<?xml version="1.0" encoding="UTF-8" standalone="no"?>
<!-- Created with Inkscape (http://www.inkscape.org/) -->

<svg
   xmlns:dc="http://purl.org/dc/elements/1.1/"
   xmlns:cc="http://creativecommons.org/ns#"
   xmlns:rdf="http://www.w3.org/1999/02/22-rdf-syntax-ns#"
   xmlns:svg="http://www.w3.org/2000/svg"
   xmlns="http://www.w3.org/2000/svg"
   xmlns:sodipodi="http://sodipodi.sourceforge.net/DTD/sodipodi-0.dtd"
   xmlns:inkscape="http://www.inkscape.org/namespaces/inkscape"
   width="400"
   height="300"
   viewBox="0 0 400 300"
   id="svg4173"
   version="1.1"
   inkscape:version="0.91 r13725"
   sodipodi:docname="controls.svg"
   inkscape:export-filename="D:\Users\xizor\Downloads\controls\psx\controls.png"
   inkscape:export-xdpi="90"
   inkscape:export-ydpi="90">
  <defs
     id="defs4175" />
  <sodipodi:namedview
     id="base"
     pagecolor="#111110"
     bordercolor="#666666"
     borderopacity="1.0"
     inkscape:pageopacity="0"
     inkscape:pageshadow="2"
     inkscape:zoom="1.979899"
     inkscape:cx="177.15709"
     inkscape:cy="138.58663"
     inkscape:document-units="px"
     inkscape:current-layer="layer1"
     showgrid="false"
     units="px"
     inkscape:window-width="1920"
     inkscape:window-height="1057"
     inkscape:window-x="1912"
     inkscape:window-y="-8"
     inkscape:window-maximized="1"
     borderlayer="false" />
  <metadata
     id="metadata4178">
    <rdf:RDF>
      <cc:Work
         rdf:about="">
        <dc:format>image/svg+xml</dc:format>
        <dc:type
           rdf:resource="http://purl.org/dc/dcmitype/StillImage" />
        <dc:title></dc:title>
      </cc:Work>
    </rdf:RDF>
  </metadata>
  <g
     inkscape:label="Calque 1"
     inkscape:groupmode="layer"
     id="layer1"
     transform="translate(0,-752.36211)">
    <path
       style="opacity:1;fill:#000000;fill-opacity:1;fill-rule:nonzero"
       d="M 288.94336 30.828125 C 283.30828 30.840212 277.51198 31.458409 271.5293 32.675781 C 258.86486 35.252781 246.95671 40.126302 229.69141 49.794922 L 219.43555 55.537109 L 201.54492 54.779297 C 178.13724 53.787397 176.49012 53.528343 170.0918 49.845703 C 132.4129 28.158473 100.69733 25.280517 72.591797 40.998047 C 59.203247 48.485337 43.868347 63.89535 32.626953 81.15625 C 20.450514 99.85285 10.997162 121.62928 5.0410156 144.70898 C 0.38284865 162.75938 0.46679611 161.77171 0.1796875 202.91211 C -0.17190831 253.32272 0.42657815 259.73433 6.6894531 272.48633 C 10.633398 280.51673 14.568261 285.63149 20.035156 289.83789 C 24.471969 293.25209 32.916653 297.6969 37.148438 298.8457 C 46.104579 301.2773 60.015212 297.34629 73.785156 288.49219 C 88.876605 278.78835 104.63868 262.78914 120.69922 240.91016 A 28.450401 28.450401 0 0 1 115.96289 225.22266 A 28.450401 28.450401 0 0 1 144.41211 196.77148 A 28.450401 28.450401 0 0 1 172.86328 225.22266 A 28.450401 28.450401 0 0 1 172.32617 230.67383 L 199.79102 230.67383 L 216.7832 230.67383 A 28.450401 28.450401 0 0 1 216.17773 224.98047 A 28.450401 28.450401 0 0 1 244.62695 196.53125 A 28.450401 28.450401 0 0 1 273.07812 224.98047 A 28.450401 28.450401 0 0 1 272.20898 231.81055 L 272.66406 232.51367 C 276.42198 238.32807 289.81332 255.4809 295.58789 261.875 C 312.3736 280.4619 334.45925 296.23953 347.89258 299.24023 C 365.06904 303.07693 385.40024 289.8217 393.99023 269.1875 C 399.24515 256.5646 400.42172 244.02458 399.83398 206.92578 C 399.18706 166.09228 398.29707 157.81759 392.33789 137.24219 C 384.21203 109.18589 371.4955 84.809319 354.98438 65.636719 C 334.73781 42.126463 313.36205 30.775748 288.94336 30.828125 z M 305.57617 75.572266 C 306.18992 75.568346 306.81165 75.590781 307.43945 75.640625 C 317.36196 76.428425 324.44922 84.300856 324.44922 94.535156 C 324.44922 102.65556 319.83305 109.56323 312.59961 112.26953 C 308.86465 113.66693 303.5802 113.91985 299.96875 112.87305 C 296.42832 111.84705 291.49861 108.07172 289.53906 104.88672 C 286.88244 100.56842 285.95736 95.504253 286.95703 90.751953 C 288.87314 81.643016 296.36988 75.631056 305.57617 75.572266 z M 113.38477 84.417969 C 117.42041 84.477236 121.44048 86.366719 123.67383 89.738281 C 125.4247 92.381781 125.45857 92.636068 125.66211 105.35547 L 125.86914 118.28516 L 137.99414 118.28516 C 148.91846 118.28516 150.40496 118.42259 153.00195 119.67969 C 161.83734 123.95689 161.94907 137.24494 153.1875 141.71484 C 150.88042 142.89194 149.22681 143.03711 138.19141 143.03711 L 125.78906 143.03711 L 125.78906 155.43945 C 125.78906 169.68395 125.22182 171.72739 120.38281 174.92969 C 114.84049 178.59729 107.30684 177.34796 103.29883 172.09766 L 101.37109 169.57031 L 101.16406 156.3418 L 100.95898 143.11523 L 87.730469 142.9082 L 74.501953 142.70312 L 71.96875 140.76758 C 64.810997 135.30358 65.700298 123.65772 73.582031 119.63672 C 75.957279 118.42482 77.509636 118.28516 88.632812 118.28516 L 101.03516 118.28516 L 101.03516 105.88281 C 101.03516 91.614914 101.59916 89.597481 106.48633 86.363281 C 108.53703 85.006194 110.96338 84.382408 113.38477 84.417969 z M 263.44531 92.966797 C 268.32296 92.905201 272.94479 94.789516 276.69531 98.525391 C 286.23095 108.02369 283.4897 123.74557 271.30859 129.41797 C 265.30296 132.21457 257.09971 131.33357 251.8457 127.32617 C 240.72781 118.84617 242.19508 101.22992 254.52148 95.199219 C 257.49979 93.742044 260.51872 93.003754 263.44531 92.966797 z M 323.64844 119.00391 C 326.69774 119.08122 329.74588 119.85847 332.47852 121.3457 C 338.79652 124.7845 342.08532 130.46847 342.13672 138.04297 C 342.16281 141.87147 341.82357 143.45847 340.31445 146.54297 C 338.31906 150.62147 335.94274 152.9803 331.58008 155.2168 C 328.1301 156.9855 320.51317 157.50212 317.04102 156.20312 C 308.99539 153.19293 304.30962 146.73397 304.23242 138.54688 C 304.16717 131.62278 307.12608 125.79043 312.55469 122.14453 C 315.80588 119.96102 319.72791 118.9045 323.64844 119.00391 z M 284.02539 137.78906 C 293.97445 138.01297 302.62609 146.06406 302.55859 157.11914 C 302.51212 164.75624 299.02636 170.37748 292.23438 173.77148 C 288.84847 175.46328 287.37482 175.81163 283.73047 175.76562 C 275.57346 175.66803 269.88907 172.21001 266.50195 165.28711 C 261.81788 155.71311 265.98153 143.83943 275.52539 139.54883 C 278.35162 138.27824 281.23965 137.72637 284.02539 137.78906 z "
       transform="translate(0,752.36211)"
       id="path4177" />
    <text
       xml:space="preserve"
       style="font-style:normal;font-variant:normal;font-weight:normal;font-stretch:normal;font-size:40px;line-height:125%;font-family:'Tw Cen MT Condensed';-inkscape-font-specification:'Tw Cen MT Condensed, ';letter-spacing:0px;word-spacing:0px;fill:#000000;fill-opacity:1;stroke:none;stroke-width:1px;stroke-linecap:butt;stroke-linejoin:miter;stroke-opacity:1"
       x="148.9975"
       y="745.78082"
       id="text4146"
       sodipodi:linespacing="125%"><tspan
         sodipodi:role="line"
         id="tspan4148"
         x="148.9975"
         y="745.78082" /></text>
    <text
       xml:space="preserve"
       style="font-style:normal;font-variant:normal;font-weight:normal;font-stretch:normal;font-size:40px;line-height:125%;font-family:'Tw Cen MT Condensed Extra Bold';-inkscape-font-specification:'Tw Cen MT Condensed Extra Bold, ';letter-spacing:0px;word-spacing:0px;fill:#000000;fill-opacity:1;stroke:none;stroke-width:1px;stroke-linecap:butt;stroke-linejoin:miter;stroke-opacity:1"
       x="151.52287"
       y="726.58789"
       id="text4150"
       sodipodi:linespacing="125%"><tspan
         sodipodi:role="line"
         id="tspan4152"
         x="151.52287"
         y="726.58789" /></text>
    <text
       xml:space="preserve"
       style="font-style:normal;font-variant:normal;font-weight:normal;font-stretch:normal;font-size:40px;line-height:125%;font-family:'Arial Rounded MT Bold';-inkscape-font-specification:'Arial Rounded MT Bold, ';letter-spacing:0px;word-spacing:0px;fill:#000000;fill-opacity:1;stroke:none;stroke-width:1px;stroke-linecap:butt;stroke-linejoin:miter;stroke-opacity:1"
       x="138.3909"
       y="745.78082"
       id="text4154"
       sodipodi:linespacing="125%"><tspan
         sodipodi:role="line"
         id="tspan4156"
         x="138.3909"
         y="745.78082" /></text>
    <text
       xml:space="preserve"
       style="font-style:normal;font-variant:normal;font-weight:normal;font-stretch:normal;font-size:40px;line-height:125%;font-family:'Eras Bold ITC';-inkscape-font-specification:'Eras Bold ITC';letter-spacing:0px;word-spacing:0px;fill:#000000;fill-opacity:1;stroke:none;stroke-width:1px;stroke-linecap:butt;stroke-linejoin:miter;stroke-opacity:1"
       x="139.40105"
       y="761.43817"
       id="text4158"
       sodipodi:linespacing="125%"><tspan
         sodipodi:role="line"
         id="tspan4160"
         x="139.40105"
         y="761.43817" /></text>
    <text
       xml:space="preserve"
       style="font-style:normal;font-variant:normal;font-weight:bold;font-stretch:normal;font-size:40px;line-height:125%;font-family:sans-serif;-inkscape-font-specification:'sans-serif Bold';letter-spacing:0px;word-spacing:0px;fill:#000000;fill-opacity:1;stroke:none;stroke-width:1px;stroke-linecap:butt;stroke-linejoin:miter;stroke-opacity:1"
       x="145.96704"
       y="753.35693"
       id="text4162"
       sodipodi:linespacing="125%"><tspan
         sodipodi:role="line"
         id="tspan4164"
         x="145.96704"
         y="753.35693" /></text>
    <text
       xml:space="preserve"
       style="font-style:normal;font-weight:normal;font-size:40px;line-height:125%;font-family:sans-serif;letter-spacing:0px;word-spacing:0px;fill:#000000;fill-opacity:1;stroke:none;stroke-width:1px;stroke-linecap:butt;stroke-linejoin:miter;stroke-opacity:1"
       x="150.00764"
       y="752.3468"
       id="text4166"
       sodipodi:linespacing="125%"><tspan
         sodipodi:role="line"
         id="tspan4168"
         x="150.00764"
         y="752.3468"
         style="font-style:normal;font-variant:normal;font-weight:bold;font-stretch:normal;font-family:sans-serif;-inkscape-font-specification:'sans-serif Bold'" /></text>
    <text
       xml:space="preserve"
       style="font-style:normal;font-weight:normal;font-size:40px;line-height:125%;font-family:sans-serif;letter-spacing:0px;word-spacing:0px;fill:#000000;fill-opacity:1;stroke:none;stroke-width:1px;stroke-linecap:butt;stroke-linejoin:miter;stroke-opacity:1"
       x="180.31223"
       y="742.2453"
       id="text4170"
       sodipodi:linespacing="125%"><tspan
         sodipodi:role="line"
         id="tspan4172"
         x="180.31223"
         y="742.2453"
         style="font-style:normal;font-variant:normal;font-weight:normal;font-stretch:normal;font-family:sans-serif;-inkscape-font-specification:sans-serif" /></text>
    <text
       xml:space="preserve"
       style="font-style:normal;font-weight:normal;font-size:40px;line-height:125%;font-family:sans-serif;letter-spacing:0px;word-spacing:0px;fill:#000000;fill-opacity:1;stroke:none;stroke-width:1px;stroke-linecap:butt;stroke-linejoin:miter;stroke-opacity:1"
       x="152.02795"
       y="753.35693"
       id="text4178"
       sodipodi:linespacing="125%"><tspan
         sodipodi:role="line"
         id="tspan4180"
         x="152.02795"
         y="753.35693" /></text>
    <path
       style="opacity:1;fill:#000000;fill-opacity:0.99473566;fill-rule:nonzero;stroke:#000000;stroke-width:0.93881536;stroke-opacity:1"
       d="M 244.65234 188.87891 C 234.56727 188.86531 226.01015 192.69984 218.74023 200.48438 C 215.00367 204.48528 211.72779 210.45547 210.32031 215.82617 C 209.2139 220.04847 209.23587 228.75474 210.36328 232.86914 C 214.12065 246.58214 224.84406 256.61583 238.51172 259.20703 C 248.81805 261.16063 260.59542 257.82864 268.29883 250.77734 C 273.14392 246.34243 274.03341 244.89931 277.35938 236.09961 L 280.45312 227.91797 L 280.22656 222.70117 C 280.05552 218.73517 279.69615 216.57756 278.72656 213.69336 C 273.83309 199.13656 261.61898 189.69514 246.68945 188.93164 C 246.00346 188.89655 245.32468 188.87981 244.65234 188.87891 z M 245 196.54883 A 28.450401 28.450401 0 0 1 273.45117 225 A 28.450401 28.450401 0 0 1 245 253.45117 A 28.450401 28.450401 0 0 1 216.54883 225 A 28.450401 28.450401 0 0 1 245 196.54883 z "
       transform="translate(0,752.36211)"
       id="path4207" />
    <path
       style="opacity:1;fill:#000000;fill-opacity:0.99473566;fill-rule:nonzero;stroke:#000000;stroke-width:0.93881536;stroke-opacity:1"
       d="M 144.4375 189.11914 C 134.35243 189.10554 125.79726 192.94203 118.52734 200.72656 C 114.79078 204.72746 111.51295 210.69766 110.10547 216.06836 C 108.99905 220.29066 109.02102 228.99683 110.14844 233.11133 C 113.9058 246.82423 124.63117 256.85842 138.29883 259.44922 C 148.60516 261.40322 160.38057 258.06878 168.08398 251.01758 C 172.92908 246.58257 173.81858 245.1418 177.14453 236.3418 L 180.23828 228.1582 L 180.01367 222.94336 C 179.84263 218.97746 179.48326 216.81779 178.51367 213.93359 C 173.62021 199.37669 161.40609 189.93733 146.47656 189.17383 C 145.79057 189.13873 145.10984 189.12005 144.4375 189.11914 z M 145 196.90625 A 28.450401 28.450401 0 0 1 173.45117 225.35742 A 28.450401 28.450401 0 0 1 145 253.80664 A 28.450401 28.450401 0 0 1 116.54883 225.35742 A 28.450401 28.450401 0 0 1 145 196.90625 z "
       transform="translate(0,752.36211)"
       id="path4207-7" />
    <path
       style="opacity:1;fill:#ffffff;fill-opacity:0.99473566;fill-rule:nonzero;stroke:none;stroke-opacity:1"
       d="m 350.25454,299.34931 c -6.28885,-0.91376 -14.18443,-4.5664 -23.84131,-11.02943 -16.37694,-10.96054 -29.50052,-24.07039 -47.04354,-46.99432 l -2.46071,-3.21548 -1.69013,3.64888 c -2.12807,4.59436 -3.95146,6.8983 -8.02449,10.13931 -8.61767,6.85728 -20.37576,9.6003 -30.36122,7.0829 -6.90673,-1.74124 -11.96034,-4.60169 -16.88891,-9.55951 -4.70068,-4.72857 -7.37536,-9.13446 -9.37601,-15.44472 l -1.12094,-3.53553 -14.62678,-0.13379 c -11.32564,-0.1036 -14.73767,0.0104 -15.11808,0.50507 -0.27021,0.35138 -1.56842,3.42369 -2.88492,6.82737 -1.31649,3.40368 -3.13364,7.26751 -4.03809,8.5863 -3.72905,5.43732 -12.53945,11.13684 -20.02826,12.95647 -4.22694,1.02706 -12.45949,1.04857 -16.3215,0.0426 -6.70903,-1.74748 -12.9781,-5.37669 -17.44342,-10.0981 -1.47374,-1.55827 -2.72625,-2.76353 -2.78336,-2.67837 -0.0571,0.0852 -1.55561,1.97311 -3.33,4.19545 -5.99998,7.51464 -12.45717,14.61833 -19.512176,21.46574 -13.985728,13.57419 -26.36044,21.48662 -40.042512,25.6033 -3.439867,1.03499 -5.467958,1.31216 -9.883772,1.35078 -5.319725,0.0465 -5.730816,-0.0282 -9.673116,-1.75891 C 20.945058,291.67899 13.59291,285.1069 7.9476354,274.23053 2.9322645,264.56776 1.5444054,258.83833 0.76613597,244.58354 -0.28354175,225.35763 0.53343708,166.94357 1.9612515,159.13266 3.0600974,153.12139 6.449656,140.0263 8.8661363,132.45661 22.515624,89.699182 48.551345,53.52565 75.539679,39.821667 102.26221,26.252649 130.93806,28.879173 166.48054,48.151268 c 10.70271,5.803301 10.71349,5.805282 38.00307,6.982185 l 15.08215,0.650439 7.64628,-4.3 c 18.32497,-10.305327 32.74083,-16.242617 45.77953,-18.854674 4.86092,-0.973794 7.41494,-1.164894 15.65737,-1.171537 10.64863,-0.0086 15.03846,0.588517 22.58186,3.07156 34.4614,11.343568 66.06992,51.63073 80.94283,103.167019 5.83355,20.21389 6.78274,29.24614 7.38448,70.26925 0.62825,42.83054 -1.32883,55.70349 -10.64428,70.01431 -9.36345,14.38454 -25.46741,23.28624 -38.65929,21.36949 z M 151.95291,252.62174 c 8.89778,-2.29555 16.2562,-8.94678 19.46959,-17.59847 1.55487,-4.1863 1.94239,-11.52445 0.85242,-16.1414 -2.25124,-9.53589 -9.43719,-17.35381 -18.63369,-20.27242 -10.0075,-3.176 -21.1705,-0.4742 -28.55619,6.91149 -6.85013,6.85013 -9.66673,16.95997 -7.4016,26.56715 2.28632,9.69713 10.72041,18.21722 20.34248,20.54993 3.94489,0.95637 10.18515,0.94908 13.92699,-0.0163 l 0,-2e-5 z m 100.83561,-0.53507 c 7.25685,-2.02247 14.01132,-7.62645 17.26187,-14.32166 2.19218,-4.51526 2.94118,-7.81506 2.94118,-12.95767 0,-7.6821 -2.64795,-13.94364 -8.3184,-19.67029 -11.02952,-11.13883 -28.32302,-11.13883 -39.46185,0 -6.04831,6.04831 -8.68024,13.11403 -8.16213,21.91221 1.03958,17.65333 18.45572,29.85431 35.73933,25.03741 z m -135.30953,-75.516 c 3.12219,-1.06418 5.85176,-3.31562 7.0856,-5.84444 1.11409,-2.28337 1.18556,-3.05982 1.36845,-14.86526 l 0.19296,-12.45606 12.44483,-0.17544 c 14.12529,-0.19913 14.74776,-0.34435 18.17758,-4.24083 5.38802,-6.12112 3.57682,-15.6717 -3.71245,-19.57594 -1.87717,-1.00544 -2.9007,-1.09477 -14.4464,-1.26079 l -12.42611,-0.1787 -0.27178,-12.5007 c -0.22735,-10.456896 -0.41412,-12.782464 -1.14235,-14.224042 -1.21178,-2.398794 -3.1774,-4.40472 -5.55347,-5.66735 -2.75671,-1.464898 -8.7406,-1.531396 -11.56796,-0.128552 -2.72862,1.353842 -5.18751,3.945908 -5.89055,6.209594 -0.34685,1.116795 -0.69429,6.950128 -0.8406,14.11337 l -0.2494,12.2098 -12.444025,0.16457 c -10.901354,0.14417 -12.677975,0.28088 -14.331221,1.10276 -3.967566,1.97241 -6.463415,5.72704 -6.852319,10.30829 -0.346826,4.0856 0.681974,6.89572 3.719695,10.16018 l 2.639963,2.83701 5.230539,0.32528 c 2.876799,0.17891 9.037552,0.34937 13.690567,0.37881 l 8.460031,0.0535 0.0506,8.71257 c 0.0278,4.79191 0.1983,10.95249 0.37881,13.69019 l 0.32819,4.97763 2.82477,2.62894 c 1.55363,1.44592 3.59919,2.87616 4.54569,3.1783 2.33737,0.74614 6.50294,0.77877 8.59035,0.0673 z m 174.5228,-2.44197 c 4.06289,-2.00016 7.47554,-5.33976 9.17988,-8.98338 1.18162,-2.52613 1.3518,-3.52393 1.35416,-7.93997 0.003,-4.62909 -0.13115,-5.33332 -1.60061,-8.43514 -3.1951,-6.74441 -8.7662,-10.52806 -16.06583,-10.91119 -4.96776,-0.26074 -8.60492,0.65107 -12.17915,3.05322 -9.69468,6.51555 -11.01648,21.42475 -2.64104,29.78951 5.43658,5.42965 14.88762,6.90503 21.95259,3.42695 z m 39.63925,-18.77565 c 3.8307,-1.77423 6.51706,-4.31559 8.57664,-8.1137 1.66981,-3.07932 1.71681,-3.32527 1.71681,-8.98498 0,-5.55957 -0.0741,-5.96958 -1.66272,-9.19644 -6.77606,-13.76415 -27.90515,-13.51843 -34.27658,0.39862 -4.11953,8.99822 -1.56679,19.22672 6.09187,24.40945 3.92931,2.65902 5.64764,3.10258 11.41214,2.9459 4.45887,-0.1212 5.75527,-0.35348 8.14184,-1.45885 z m -62.37047,-24.90846 c 3.48652,-1.03538 7.74957,-4.2266 9.92032,-7.4261 6.66188,-9.81907 3.09089,-23.034496 -7.65264,-28.320735 -3.04907,-1.500259 -3.73119,-1.637094 -8.1608,-1.637094 -4.57393,0 -5.04106,0.10252 -8.69415,1.908143 -4.32204,2.13626 -6.68478,4.519932 -8.85373,8.932176 -1.23543,2.51322 -1.37344,3.33437 -1.36136,8.10004 0.012,4.71531 0.16438,5.61338 1.37481,8.10005 3.54972,7.29242 9.34918,10.93555 17.5867,11.04769 1.82468,0.0248 4.45306,-0.29204 5.84085,-0.70417 z M 314.002,111.8964 c 3.67536,-1.69895 6.92623,-4.95628 8.74824,-8.76565 1.13219,-2.36711 1.48088,-3.914068 1.65489,-7.341808 0.26313,-5.183431 -0.61698,-8.7562 -3.0481,-12.373525 -7.4053,-11.018548 -25.26304,-10.517022 -32.08584,0.901116 -4.38727,7.342213 -3.61099,16.845647 1.86092,22.781967 4.72733,5.12855 7.95903,6.48647 14.94196,6.27839 4.18826,-0.1248 5.54209,-0.37762 7.92793,-1.48049 z"
       id="path4358"
       inkscape:connector-curvature="0"
       transform="translate(0,752.36211)" />
  </g>
</svg>
