<?xml version="1.0" encoding="UTF-8" standalone="no"?>
<svg
   xmlns:dc="http://purl.org/dc/elements/1.1/"
   xmlns:cc="http://creativecommons.org/ns#"
   xmlns:rdf="http://www.w3.org/1999/02/22-rdf-syntax-ns#"
   xmlns:svg="http://www.w3.org/2000/svg"
   xmlns="http://www.w3.org/2000/svg"
   viewBox="0 0 201.31125 188.74249"
   height="188.74249"
   width="201.31125"
   xml:space="preserve"
   version="1.1"
   id="svg2"><metadata
     id="metadata8"><rdf:RDF><cc:Work
         rdf:about=""><dc:format>image/svg+xml</dc:format><dc:type
           rdf:resource="http://purl.org/dc/dcmitype/StillImage" /><dc:title></dc:title></cc:Work></rdf:RDF></metadata><defs
     id="defs6"><clipPath
       id="clipPath16"
       clipPathUnits="userSpaceOnUse"><path
         id="path18"
         d="m 0,150.994 161.049,0 L 161.049,0 0,0 0,150.994 Z" /></clipPath></defs><g
     transform="matrix(1.25,0,0,-1.25,0,188.7425)"
     id="g10"><g
       id="g12"><g
         clip-path="url(#clipPath16)"
         id="g14"><g
           transform="translate(60.4419,10.0454)"
           id="g20"><path
             id="path22"
             style="fill:#000000;fill-opacity:1;fill-rule:nonzero;stroke:none"
             d="m 0,0 c -0.014,-2.812 -0.076,-5.625 -0.02,-8.435 0.023,-1.146 -0.225,-1.615 -1.506,-1.61 -12.439,0.045 -24.878,0.04 -37.317,0.006 -1.132,-0.003 -1.476,0.34 -1.473,1.472 0.034,12.439 0.04,24.879 -0.006,37.318 -0.004,1.28 0.465,1.528 1.611,1.505 2.81,-0.056 5.623,0.006 8.435,0.02 0,0 0.108,-0.106 0.108,-0.106 -0.001,-3.362 -0.002,-6.725 -0.002,-10.087 -0.021,-6.204 -0.015,-12.409 -0.086,-18.613 -0.013,-1.135 0.316,-1.462 1.451,-1.449 6.203,0.071 12.408,0.065 18.612,0.085 3.362,0.001 6.724,0.001 10.087,0.002 C -0.106,0.108 0,0 0,0" /></g><g
           transform="translate(130.8841,40.3217)"
           id="g24"><path
             id="path26"
             style="fill:#000000;fill-opacity:1;fill-rule:nonzero;stroke:none"
             d="m 0,0 c 2.812,-0.014 5.625,-0.076 8.435,-0.02 1.146,0.023 1.615,-0.225 1.61,-1.506 -0.045,-12.439 -0.04,-24.878 -0.006,-37.317 0.003,-1.132 -0.34,-1.476 -1.472,-1.473 -12.439,0.035 -24.879,0.04 -37.318,-0.006 -1.28,-0.004 -1.528,0.465 -1.505,1.611 0.056,2.81 -0.006,5.623 -0.02,8.435 0,0 0.106,0.108 0.106,0.108 3.362,-0.001 6.725,-0.002 10.087,-0.002 6.204,-0.021 12.409,-0.015 18.613,-0.086 1.135,-0.013 1.462,0.316 1.449,1.451 -0.071,6.203 -0.065,12.408 -0.085,18.612 -0.001,3.362 -0.001,6.724 -0.002,10.087 L 0,0 Z" /></g><g
           transform="translate(70.4193,140.9522)"
           id="g28"><path
             id="path30"
             style="fill:#000000;fill-opacity:1;fill-rule:nonzero;stroke:none"
             d="m 0,0 c 0.014,2.915 0.065,5.83 0.022,8.744 -0.014,0.966 0.229,1.306 1.256,1.298 5.885,-0.048 11.77,-0.048 17.655,0 1.028,0.008 1.27,-0.332 1.256,-1.298 C 20.146,5.83 20.197,2.915 20.211,0 l -0.107,-0.108 c -6.666,0 -13.331,0 -19.997,0 L 0,0 Z" /></g><g
           transform="translate(60.3549,120.8327)"
           id="g32"><path
             id="path34"
             style="fill:#000000;fill-opacity:1;fill-rule:nonzero;stroke:none"
             d="m 0,0 c 0.015,6.166 0.067,12.331 0.013,18.496 -0.011,1.283 0.34,1.648 1.616,1.61 2.809,-0.084 5.623,-0.001 8.435,0.013 0,0 0.108,-0.108 0.108,-0.108 C 10.167,16.674 10.163,13.336 10.158,9.998 10.141,6.667 10.124,3.335 10.107,0.003 6.761,-0.024 3.416,-0.05 0.071,-0.077 L 0,0 Z" /></g><g
           transform="translate(90.6304,140.9521)"
           id="g36"><path
             id="path38"
             style="fill:#000000;fill-opacity:1;fill-rule:nonzero;stroke:none"
             d="m 0,0 c 2.866,-0.015 5.733,-0.083 8.598,-0.017 1.136,0.026 1.456,-0.302 1.448,-1.444 -0.04,-6.219 0.004,-12.439 0.018,-18.659 l -0.071,-0.077 c -3.345,0.027 -6.69,0.054 -10.035,0.081 -0.018,3.332 -0.035,6.663 -0.052,9.995 -0.004,3.338 -0.009,6.675 -0.013,10.013 C -0.107,-0.108 0,0 0,0" /></g><g
           transform="translate(130.8825,60.3601)"
           id="g40"><path
             id="path42"
             style="fill:#000000;fill-opacity:1;fill-rule:nonzero;stroke:none"
             d="m 0,0 c 0.001,-6.679 0.001,-13.359 0.002,-20.038 0,0 -0.108,-0.107 -0.108,-0.107 -3.321,0.029 -6.642,0.058 -9.964,0.087 0,0 -0.062,-0.038 -0.062,-0.038 0.031,6.715 0.061,13.43 0.092,20.146 3.311,0.019 6.622,0.038 9.934,0.058 L 0,0 Z" /></g><g
           transform="translate(90.5322,20.0996)"
           id="g44"><path
             id="path46"
             style="fill:#000000;fill-opacity:1;fill-rule:nonzero;stroke:none"
             d="m 0,0 c -6.672,0 -13.343,0 -20.015,0 -0.042,0.041 -0.085,0.083 -0.127,0.124 0.007,2.859 0.043,5.719 0.006,8.578 -0.013,0.969 0.158,1.449 1.308,1.439 5.88,-0.054 11.761,-0.054 17.64,0 C -0.04,10.151 0.134,9.674 0.121,8.703 0.083,5.844 0.12,2.985 0.127,0.125 0.084,0.083 0.042,0.042 0,0" /></g><g
           transform="translate(30.165,100.7047)"
           id="g48"><path
             id="path50"
             style="fill:#000000;fill-opacity:1;fill-rule:nonzero;stroke:none"
             d="m 0,0 c 0.015,2.866 0.085,5.733 0.018,8.598 -0.027,1.145 0.316,1.45 1.45,1.442 6.219,-0.04 12.439,0.003 18.659,0.017 0,0 0.109,-0.107 0.109,-0.107 C 20.222,6.645 20.209,3.34 20.195,0.035 13.495,-0.009 6.796,-0.054 0.096,-0.099 L 0,0 Z" /></g><g
           transform="translate(110.7576,110.7621)"
           id="g52"><path
             id="path54"
             style="fill:#000000;fill-opacity:1;fill-rule:nonzero;stroke:none"
             d="m 0,0 c 6.166,-0.014 12.332,-0.065 18.497,-0.013 1.272,0.011 1.656,-0.322 1.616,-1.609 -0.086,-2.809 -0.001,-5.623 0.014,-8.435 l -0.095,-0.099 c -6.7,0.045 -13.4,0.089 -20.1,0.134 -0.014,3.305 -0.027,6.61 -0.04,9.915 C -0.108,-0.107 0,0 0,0" /></g><g
           transform="translate(10.024,80.4736)"
           id="g56"><path
             id="path58"
             style="fill:#000000;fill-opacity:1;fill-rule:nonzero;stroke:none"
             d="m 0,0 c -2.855,0.019 -5.711,0.087 -8.564,0.034 -1.142,-0.022 -1.469,0.362 -1.46,1.479 0.047,5.765 0.043,11.531 0.003,17.296 -0.007,1.047 0.311,1.419 1.378,1.392 2.907,-0.072 5.817,-0.05 8.726,-0.066 C 0.087,16.785 0.091,13.434 0.095,10.084 0.099,6.758 0.104,3.431 0.108,0.105 L 0,0 Z" /></g><g
           transform="translate(10.1191,90.5578)"
           id="g60"><path
             id="path62"
             style="fill:#000000;fill-opacity:1;fill-rule:nonzero;stroke:none"
             d="m 0,0 c -0.004,3.35 -0.008,6.701 -0.012,10.051 6.686,0.032 13.372,0.064 20.058,0.096 0,0 0.096,-0.099 0.096,-0.099 C 20.124,6.711 20.107,3.374 20.089,0.037 16.739,0.02 13.388,0.003 10.037,-0.014 6.692,-0.009 3.346,-0.005 0,0" /></g><g
           transform="translate(130.8847,100.7047)"
           id="g64"><path
             id="path66"
             style="fill:#000000;fill-opacity:1;fill-rule:nonzero;stroke:none"
             d="m 0,0 c 6.686,-0.032 13.371,-0.064 20.057,-0.096 -0.004,-3.35 -0.007,-6.701 -0.011,-10.051 -3.346,-0.004 -6.692,-0.009 -10.038,-0.013 -3.35,0.016 -6.701,0.033 -10.052,0.05 -0.017,3.337 -0.034,6.674 -0.051,10.011 L 0,0 Z" /></g><g
           transform="translate(150.9306,90.5577)"
           id="g68"><path
             id="path70"
             style="fill:#000000;fill-opacity:1;fill-rule:nonzero;stroke:none"
             d="m 0,0 c 0.004,3.35 0.007,6.701 0.011,10.051 2.963,0.015 5.926,0.007 8.889,0.06 0.915,0.016 1.214,-0.324 1.21,-1.223 -0.027,-5.874 -0.039,-11.748 0.009,-17.621 0.009,-1.145 -0.494,-1.318 -1.459,-1.309 -2.855,0.025 -5.71,-0.023 -8.565,-0.042 l -0.108,0.105 C -0.009,-6.653 -0.004,-3.326 0,0" /></g><g
           transform="translate(30.1656,40.3217)"
           id="g72"><path
             id="path74"
             style="fill:#000000;fill-opacity:1;fill-rule:nonzero;stroke:none"
             d="m 0,0 c 0.001,6.679 0.001,13.359 0.002,20.038 l 0.106,0.108 c 3.311,-0.019 6.622,-0.038 9.934,-0.057 0.03,-6.716 0.061,-13.431 0.092,-20.147 0,0 -0.063,0.038 -0.063,0.038 C 6.75,-0.049 3.429,-0.077 0.108,-0.106 L 0,0 Z" /></g><g
           transform="translate(50.2921,110.762)"
           id="g76"><path
             id="path78"
             style="fill:#000000;fill-opacity:1;fill-rule:nonzero;stroke:none"
             d="m 0,0 c 0.015,2.897 0.074,5.795 0.021,8.691 -0.02,1.053 0.297,1.372 1.352,1.353 2.895,-0.052 5.793,0.01 8.69,0.027 0,0 0.071,-0.078 0.071,-0.078 C 10.097,6.64 10.06,3.286 10.023,-0.067 6.718,-0.08 3.413,-0.094 0.109,-0.107 L 0,0 Z" /></g><g
           transform="translate(100.6948,120.8326)"
           id="g80"><path
             id="path82"
             style="fill:#000000;fill-opacity:1;fill-rule:nonzero;stroke:none"
             d="m 0,0 c 2.897,-0.017 5.794,-0.079 8.69,-0.027 1.055,0.019 1.372,-0.299 1.352,-1.353 -0.053,-2.896 0.006,-5.793 0.021,-8.691 l -0.109,-0.107 c -3.304,0.014 -6.609,0.027 -9.914,0.04 -0.037,3.354 -0.074,6.707 -0.111,10.061 C -0.071,-0.077 0,0 0,0" /></g><g
           transform="translate(30.1671,60.3602)"
           id="g84"><path
             id="path86"
             style="fill:#000000;fill-opacity:1;fill-rule:nonzero;stroke:none"
             d="m 0,0 c -2.911,0.015 -5.823,0.063 -8.733,0.028 -0.983,-0.012 -1.316,0.316 -1.304,1.302 0.036,2.91 -0.011,5.822 -0.026,8.733 0,0 0.106,0.108 0.106,0.108 3.315,-0.041 6.629,-0.082 9.944,-0.123 0.04,-3.314 0.08,-6.627 0.119,-9.94 L 0,0 Z" /></g><g
           transform="translate(140.9455,70.4231)"
           id="g88"><path
             id="path90"
             style="fill:#000000;fill-opacity:1;fill-rule:nonzero;stroke:none"
             d="m 0,0 c -0.015,-2.911 -0.062,-5.823 -0.026,-8.733 0.012,-0.986 -0.321,-1.314 -1.304,-1.302 -2.91,0.035 -5.822,-0.013 -8.733,-0.028 0,0 -0.106,0.108 -0.106,0.108 0.04,3.313 0.079,6.626 0.119,9.94 3.314,0.041 6.629,0.082 9.944,0.123 L 0,0 Z" /></g><g
           transform="translate(20.1042,70.4231)"
           id="g92"><path
             id="path94"
             style="fill:#000000;fill-opacity:1;fill-rule:nonzero;stroke:none"
             d="m 0,0 c -2.909,0.015 -5.819,0.062 -8.728,0.028 -0.976,-0.012 -1.32,0.304 -1.31,1.296 0.033,2.908 -0.022,5.818 -0.042,8.727 0,0 0.108,0.105 0.108,0.105 3.345,-0.008 6.69,-0.016 10.035,-0.024 0,0 -0.033,-0.043 -0.033,-0.043 C 0.055,6.762 0.081,3.435 0.106,0.108 L 0,0 Z" /></g><g
           transform="translate(151.0256,80.4735)"
           id="g96"><path
             id="path98"
             style="fill:#000000;fill-opacity:1;fill-rule:nonzero;stroke:none"
             d="m 0,0 c -0.02,-2.855 -0.089,-5.711 -0.037,-8.565 0.021,-1.138 -0.355,-1.484 -1.477,-1.463 -2.854,0.053 -5.711,-0.007 -8.566,-0.022 0,0 -0.107,0.107 -0.106,0.107 0.025,3.327 0.051,6.655 0.076,9.982 l -0.033,0.043 c 3.345,0.008 6.69,0.015 10.035,0.023 L 0,0 Z" /></g><g
           transform="translate(70.5176,20.0997)"
           id="g100"><path
             id="path102"
             style="fill:#000000;fill-opacity:1;fill-rule:nonzero;stroke:none"
             d="m 0,0 c -0.019,-2.856 -0.086,-5.712 -0.033,-8.567 0.021,-1.136 -0.351,-1.486 -1.475,-1.465 -2.855,0.054 -5.712,-0.007 -8.568,-0.022 0,0 -0.106,0.108 -0.106,0.107 0.029,3.326 0.058,6.652 0.087,9.977 3.322,0.031 6.645,0.063 9.967,0.094 C -0.085,0.083 -0.043,0.041 0,0" /></g><g
           transform="translate(100.6078,10.0454)"
           id="g104"><path
             id="path106"
             style="fill:#000000;fill-opacity:1;fill-rule:nonzero;stroke:none"
             d="m 0,0 c -2.91,0.015 -5.82,0.062 -8.73,0.028 -0.978,-0.012 -1.319,0.307 -1.307,1.298 0.033,2.909 -0.02,5.819 -0.039,8.728 0.043,0.042 0.085,0.084 0.127,0.126 3.323,-0.032 6.646,-0.064 9.969,-0.096 C 0.048,6.759 0.077,3.433 0.106,0.108 L 0,0 Z" /></g><g
           transform="translate(50.2488,10.1516)"
           id="g108"><path
             id="path110"
             style="fill:#f6dd08;fill-opacity:1;fill-rule:nonzero;stroke:none"
             d="m 0,0 c -6.204,-0.02 -12.409,-0.014 -18.612,-0.086 -1.135,-0.013 -1.464,0.315 -1.451,1.45 0.072,6.204 0.065,12.408 0.086,18.613 3.333,0.032 6.666,0.064 9.998,0.096 0.01,-2.851 0.056,-5.703 0.011,-8.554 -0.017,-1.105 0.347,-1.532 1.484,-1.511 2.85,0.053 5.703,0.009 8.554,0.004 C 0.047,6.674 0.023,3.337 0,0" /></g><g
           transform="translate(40.2702,30.2248)"
           id="g112"><path
             id="path114"
             style="fill:#b47b08;fill-opacity:1;fill-rule:nonzero;stroke:none"
             d="m 0,0 c -3.333,-0.032 -6.666,-0.064 -9.999,-0.096 0.001,3.362 0.002,6.724 0.002,10.087 3.321,0.028 6.643,0.057 9.964,0.086 C -0.022,6.718 -0.011,3.359 0,0" /></g><g
           transform="translate(50.2488,10.1516)"
           id="g116"><path
             id="path118"
             style="fill:#b47b08;fill-opacity:1;fill-rule:nonzero;stroke:none"
             d="m 0,0 c 0.023,3.337 0.047,6.674 0.07,10.012 0,0 0.008,0.004 0.008,0.004 C 3.444,10.003 6.809,9.991 10.174,9.978 10.145,6.653 10.116,3.327 10.087,0.002 6.724,0.001 3.362,0.001 0,0" /></g><g
           transform="translate(130.7779,30.1286)"
           id="g120"><path
             id="path122"
             style="fill:#f6dd08;fill-opacity:1;fill-rule:nonzero;stroke:none"
             d="m 0,0 c 0.02,-6.204 0.014,-12.409 0.086,-18.612 0.013,-1.135 -0.315,-1.464 -1.45,-1.451 -6.204,0.072 -12.408,0.065 -18.613,0.086 -0.023,3.337 -0.047,6.674 -0.07,10.012 2.851,0.005 5.704,0.049 8.554,-0.004 1.137,-0.021 1.501,0.406 1.484,1.511 -0.045,2.851 0.001,5.703 0.011,8.554 C -6.666,0.064 -3.333,0.032 0,0" /></g><g
           transform="translate(130.7779,30.1286)"
           id="g124"><path
             id="path126"
             style="fill:#b47b08;fill-opacity:1;fill-rule:nonzero;stroke:none"
             d="m 0,0 c -3.333,0.032 -6.666,0.064 -9.998,0.096 0.011,3.359 0.022,6.718 0.033,10.077 3.321,-0.029 6.642,-0.057 9.963,-0.086 C -0.001,6.724 -0.001,3.362 0,0" /></g><g
           transform="translate(110.7308,20.1633)"
           id="g128"><path
             id="path130"
             style="fill:#b47b08;fill-opacity:1;fill-rule:nonzero;stroke:none"
             d="m 0,0 c 0.023,-3.337 0.047,-6.674 0.07,-10.012 -3.362,0.001 -6.724,0.001 -10.087,0.002 -0.029,3.326 -0.058,6.651 -0.086,9.977 3.365,0.012 6.73,0.025 10.095,0.037 L 0,0 Z" /></g><g
           transform="translate(90.5233,140.8438)"
           id="g132"><path
             id="path134"
             style="fill:#f6dd08;fill-opacity:1;fill-rule:nonzero;stroke:none"
             d="m 0,0 c 0.004,-3.338 0.009,-6.675 0.013,-10.013 -6.674,0 -13.349,0 -20.023,0 0.004,3.338 0.009,6.676 0.013,10.013 C -13.331,0 -6.666,0 0,0" /></g><g
           transform="translate(70.5131,130.8312)"
           id="g136"><path
             id="path138"
             style="fill:#fefe08;fill-opacity:1;fill-rule:nonzero;stroke:none"
             d="m 0,0 c 6.675,0 13.349,0 20.024,0 0.017,-3.332 0.034,-6.663 0.051,-9.995 0.001,-6.361 0.016,-12.723 -0.009,-19.084 -0.005,-1.028 0.561,-1.106 1.343,-1.101 2.913,0.019 5.825,0.012 8.738,0.015 -0.004,-3.327 -0.008,-6.655 -0.012,-9.982 l -0.023,-0.12 c -2.969,0.01 -5.939,0.002 -8.907,0.042 -0.753,0.01 -1.161,-0.06 -1.152,-1.009 0.058,-6.369 0.054,-12.739 0.07,-19.109 -0.014,-3.354 -0.027,-6.707 -0.041,-10.06 -0.01,-2.865 0.01,-5.731 -0.047,-8.596 -0.022,-1.101 0.346,-1.56 1.492,-1.532 2.378,0.059 4.758,0.056 7.136,0.001 1.12,-0.026 1.538,0.382 1.515,1.509 -0.059,2.864 -0.033,5.73 -0.042,8.596 0,0 0.001,0 0.001,0 3.355,0 6.711,10e-4 10.067,0.002 -10e-4,-6.094 0.032,-12.188 -0.03,-18.281 -0.014,-1.38 0.349,-1.93 1.814,-1.878 2.746,0.098 5.499,0.02 8.249,0.015 0,0 0.063,0.038 0.063,0.038 -0.011,-3.359 -0.022,-6.718 -0.034,-10.077 -0.009,-2.852 -0.055,-5.704 -0.01,-8.554 0.017,-1.106 -0.347,-1.532 -1.484,-1.511 -2.851,0.052 -5.703,0.008 -8.554,0.003 0,0 -0.009,0.004 -0.009,0.004 -0.003,2.647 -0.004,5.294 -0.009,7.941 -0.004,2.102 -0.007,2.104 -2.18,2.107 -2.107,0.003 -4.215,0.052 -6.32,-0.018 -1.214,-0.04 -1.613,0.429 -1.581,1.611 0.064,2.321 -0.02,4.646 0.034,6.968 0.026,1.115 -0.376,1.52 -1.504,1.518 -12.425,-0.026 -24.85,-0.026 -37.274,0 -1.128,0.002 -1.531,-0.403 -1.505,-1.518 0.054,-2.322 -0.03,-4.647 0.034,-6.968 0.032,-1.182 -0.366,-1.651 -1.581,-1.611 -2.104,0.07 -4.213,0.021 -6.319,0.018 -2.174,-0.003 -2.176,-0.005 -2.18,-2.107 -0.006,-2.647 -0.007,-5.294 -0.01,-7.941 0,0 -0.008,-0.004 -0.008,-0.004 -2.852,0.005 -5.704,0.049 -8.554,-0.003 -1.137,-0.021 -1.502,0.405 -1.484,1.511 0.044,2.85 -0.001,5.702 -0.011,8.554 -0.011,3.359 -0.022,6.718 -0.033,10.077 0,0 0.062,-0.038 0.062,-0.038 2.75,0.005 5.503,0.083 8.25,-0.015 1.465,-0.052 1.827,0.498 1.813,1.878 -0.062,6.093 -0.028,12.187 -0.029,18.281 3.355,-0.001 6.711,-0.002 10.067,-0.002 0,0 0,0 0,0 -0.008,-2.866 0.017,-5.732 -0.042,-8.596 -0.023,-1.127 0.395,-1.535 1.516,-1.509 2.377,0.055 4.758,0.058 7.135,-0.001 1.146,-0.028 1.514,0.431 1.492,1.532 -0.057,2.865 -0.036,5.731 -0.047,8.596 -0.013,3.353 -0.027,6.706 -0.04,10.06 0.016,6.37 0.012,12.74 0.07,19.109 0.008,0.949 -0.4,1.019 -1.152,1.009 -2.969,-0.04 -5.938,-0.032 -8.907,-0.042 l -0.024,0.12 c -0.004,3.327 -0.007,6.655 -0.011,9.982 2.912,-0.003 5.825,0.004 8.737,-0.015 0.783,-0.005 1.348,0.073 1.344,1.101 -0.026,6.361 -0.011,12.723 -0.009,19.084 C -0.034,-6.663 -0.017,-3.332 0,0" /></g><g
           transform="translate(70.4616,120.8362)"
           id="g140"><path
             id="path142"
             style="fill:#fefe83;fill-opacity:1;fill-rule:nonzero;stroke:none"
             d="m 0,0 c -0.001,-6.361 -0.016,-12.723 0.009,-19.084 0.005,-1.028 -0.561,-1.106 -1.343,-1.101 -2.913,0.019 -5.825,0.012 -8.738,0.015 l 0.02,-0.02 c -0.032,3.349 -0.063,6.699 -0.094,10.049 0.037,3.353 0.074,6.707 0.11,10.06 C -6.69,-0.054 -3.345,-0.027 0,0" /></g><g
           transform="translate(100.6598,100.666)"
           id="g144"><path
             id="path146"
             style="fill:#fefe83;fill-opacity:1;fill-rule:nonzero;stroke:none"
             d="m 0,0 c -2.912,-0.003 -5.825,0.004 -8.737,-0.015 -0.783,-0.005 -1.348,0.074 -1.344,1.101 0.026,6.361 0.011,12.723 0.009,19.084 3.345,-0.027 6.691,-0.054 10.036,-0.081 C 0.001,16.736 0.038,13.382 0.075,10.029 0.043,6.68 0.012,3.33 -0.02,-0.02 L 0,0 Z" /></g><g
           transform="translate(120.7505,40.2638)"
           id="g148"><path
             id="path150"
             style="fill:#f6dd08;fill-opacity:1;fill-rule:nonzero;stroke:none"
             d="m 0,0 c -2.75,0.005 -5.503,0.083 -8.25,-0.014 -1.465,-0.052 -1.827,0.498 -1.813,1.877 0.062,6.093 0.028,12.188 0.03,18.281 -0.001,0 -0.007,-0.007 -0.007,-0.007 3.329,-0.003 6.658,-0.005 9.986,-0.008 0,0 0.146,0.017 0.146,0.017 C 0.061,13.431 0.031,6.715 0,0" /></g><g
           transform="translate(130.8955,70.4078)"
           id="g152"><path
             id="path154"
             style="fill:#b47b08;fill-opacity:1;fill-rule:nonzero;stroke:none"
             d="m 0,0 c -0.04,-3.313 -0.079,-6.627 -0.119,-9.94 -3.312,-0.019 -6.623,-0.039 -9.934,-0.058 0,0 -0.145,-0.017 -0.145,-0.017 0.034,3.345 0.068,6.69 0.103,10.035 3.331,0.028 6.662,0.057 9.993,0.086 L 0,0 Z" /></g><g
           transform="translate(50.3273,20.1675)"
           id="g156"><path
             id="path158"
             style="fill:#f6dd08;fill-opacity:1;fill-rule:nonzero;stroke:none"
             d="m 0,0 c 0.003,2.647 0.004,5.294 0.009,7.941 0.005,2.102 0.007,2.104 2.18,2.107 2.107,0.003 4.216,0.051 6.32,-0.018 1.215,-0.041 1.613,0.429 1.581,1.611 -0.064,2.321 0.02,4.646 -0.034,6.967 -0.026,1.115 0.377,1.521 1.505,1.518 12.424,-0.026 24.849,-0.026 37.273,0 1.128,0.003 1.531,-0.403 1.505,-1.518 -0.054,-2.321 0.03,-4.646 -0.034,-6.967 -0.032,-1.182 0.367,-1.652 1.581,-1.611 2.105,0.069 4.213,0.021 6.32,0.018 2.173,-0.003 2.176,-0.005 2.18,-2.107 C 60.391,5.294 60.392,2.647 60.395,0 57.03,-0.013 53.665,-0.025 50.3,-0.038 c -3.323,0.032 -6.646,0.064 -9.968,0.095 -0.008,2.86 -0.044,5.719 -0.006,8.578 0.013,0.971 -0.161,1.448 -1.309,1.438 -5.88,-0.054 -11.76,-0.054 -17.64,0 -1.15,0.01 -1.321,-0.47 -1.308,-1.439 C 20.106,5.775 20.07,2.916 20.063,0.056 16.74,0.025 13.417,-0.006 10.095,-0.038 6.73,-0.025 3.365,-0.013 0,0" /></g><g
           transform="translate(60.3899,100.666)"
           id="g160"><path
             id="path162"
             style="fill:#fefe83;fill-opacity:1;fill-rule:nonzero;stroke:none"
             d="m 0,0 c 0.004,-3.327 0.008,-6.654 0.011,-9.982 -3.356,-0.06 -6.711,-0.12 -10.067,-0.18 -6.707,0.029 -13.414,0.058 -20.122,0.088 l -0.003,0.003 c 0.017,3.337 0.034,6.674 0.052,10.011 6.7,0.045 13.4,0.09 20.099,0.134 3.35,-0.031 6.7,-0.063 10.05,-0.094 L 0,0 Z" /></g><g
           transform="translate(60.4095,100.646)"
           id="g164"><path
             id="path166"
             style="fill:#f6dd08;fill-opacity:1;fill-rule:nonzero;stroke:none"
             d="m 0,0 c -3.35,0.031 -6.7,0.063 -10.049,0.094 0.013,3.305 0.027,6.61 0.04,9.915 3.305,0.014 6.61,0.027 9.915,0.04 C -0.063,6.699 -0.031,3.35 0,0" /></g><g
           transform="translate(100.6484,90.6842)"
           id="g168"><path
             id="path170"
             style="fill:#fefe83;fill-opacity:1;fill-rule:nonzero;stroke:none"
             d="m 0,0 c 0.004,3.327 0.008,6.654 0.011,9.982 0,0 -0.019,-0.02 -0.019,-0.02 3.349,0.031 6.699,0.063 10.049,0.094 6.7,-0.045 13.4,-0.089 20.1,-0.134 0.017,-3.337 0.034,-6.674 0.052,-10.011 L 30.189,-0.093 C 23.482,-0.122 16.774,-0.151 10.067,-0.18 6.711,-0.12 3.356,-0.06 0,0" /></g><g
           transform="translate(110.6892,100.7402)"
           id="g172"><path
             id="path174"
             style="fill:#f6dd08;fill-opacity:1;fill-rule:nonzero;stroke:none"
             d="m 0,0 c -3.35,-0.031 -6.699,-0.063 -10.049,-0.094 0.031,3.35 0.063,6.699 0.094,10.049 C -6.65,9.941 -3.345,9.928 -0.04,9.915 -0.027,6.61 -0.013,3.305 0,0" /></g><g
           transform="translate(20.1667,80.5555)"
           id="g176"><path
             id="path178"
             style="fill:#f6dd08;fill-opacity:1;fill-rule:nonzero;stroke:none"
             d="m 0,0 c -3.345,0.008 -6.69,0.016 -10.034,0.023 -0.005,3.327 -0.009,6.653 -0.014,9.979 C -6.702,9.998 -3.356,9.993 -0.01,9.989 -0.007,6.659 -0.003,3.33 0,0" /></g><g
           transform="translate(20.1667,80.5555)"
           id="g180"><path
             id="path182"
             style="fill:#fefe83;fill-opacity:1;fill-rule:nonzero;stroke:none"
             d="m 0,0 c -0.003,3.33 -0.007,6.659 -0.01,9.989 3.35,0.017 6.701,0.034 10.052,0.051 l 0.003,-0.004 C 10.034,6.685 10.023,3.335 10.012,-0.016 6.663,-0.025 3.315,-0.034 -0.033,-0.043 L 0,0 Z" /></g><g
           transform="translate(150.9174,80.5787)"
           id="g184"><path
             id="path186"
             style="fill:#f6dd08;fill-opacity:1;fill-rule:nonzero;stroke:none"
             d="m 0,0 c -3.345,-0.008 -6.69,-0.015 -10.034,-0.023 0.003,3.329 0.006,6.659 0.01,9.988 C -6.678,9.97 -3.333,9.974 0.013,9.979 0.009,6.653 0.004,3.326 0,0" /></g><g
           transform="translate(140.8932,90.5442)"
           id="g188"><path
             id="path190"
             style="fill:#fefe83;fill-opacity:1;fill-rule:nonzero;stroke:none"
             d="m 0,0 c -0.003,-3.33 -0.007,-6.659 -0.01,-9.989 0,0 0.033,-0.043 0.033,-0.043 -3.348,0.009 -6.696,0.019 -10.045,0.028 -0.011,3.35 -0.022,6.701 -0.034,10.051 l 0.004,0.004 C -6.701,0.034 -3.351,0.017 0,0" /></g><g
           transform="translate(50.3326,60.4081)"
           id="g192"><path
             id="path194"
             style="fill:#f6dd08;fill-opacity:1;fill-rule:nonzero;stroke:none"
             d="m 0,0 c 0.001,-6.094 -0.032,-12.188 0.03,-18.281 0.014,-1.38 -0.349,-1.93 -1.814,-1.878 -2.746,0.098 -5.499,0.02 -8.249,0.015 -0.031,6.715 -0.062,13.431 -0.092,20.146 0,0 0.145,-0.018 0.145,-0.018 3.329,0.003 6.658,0.006 9.987,0.009 C 0.007,-0.007 0,0 0,0" /></g><g
           transform="translate(30.2735,60.4681)"
           id="g196"><path
             id="path198"
             style="fill:#b47b08;fill-opacity:1;fill-rule:nonzero;stroke:none"
             d="m 0,0 c -0.04,3.313 -0.08,6.626 -0.119,9.94 0,0 0.101,0.105 0.101,0.105 3.332,-0.028 6.663,-0.057 9.994,-0.085 0.034,-3.345 0.069,-6.691 0.103,-10.036 0,0 -0.145,0.018 -0.145,0.018 C 6.622,-0.038 3.311,-0.019 0,0" /></g><g
           transform="translate(20.1339,80.5125)"
           id="g200"><path
             id="path202"
             style="fill:#b47b08;fill-opacity:1;fill-rule:nonzero;stroke:none"
             d="m 0,0 c 3.348,0.009 6.696,0.018 10.044,0.027 10e-4,0 0.026,-0.045 0.026,-0.045 l 0.052,-9.981 c 0,0 -0.102,-0.105 -0.102,-0.106 -3.314,0.041 -6.629,0.082 -9.944,0.123 C 0.051,-6.654 0.026,-3.327 0,0" /></g><g
           transform="translate(130.8717,80.5399)"
           id="g204"><path
             id="path206"
             style="fill:#b47b08;fill-opacity:1;fill-rule:nonzero;stroke:none"
             d="m 0,0 c 3.348,-0.009 6.696,-0.018 10.044,-0.027 -0.025,-3.328 -0.051,-6.655 -0.077,-9.982 -3.314,-0.041 -6.629,-0.082 -9.943,-0.123 0,0 -0.102,0.106 -0.102,0.106 0.017,3.326 0.034,6.653 0.052,9.98 L 0,0 Z" /></g><g
           transform="translate(100.6484,90.6842)"
           id="g208"><path
             id="path210"
             style="fill:#f6dd08;fill-opacity:1;fill-rule:nonzero;stroke:none"
             d="m 0,0 c 3.356,-0.06 6.711,-0.12 10.067,-0.18 -0.002,-10.035 -0.004,-20.069 -0.005,-30.103 0,0 0.007,0.007 0.007,0.007 -3.356,-0.001 -6.712,-0.002 -10.068,-0.002 -0.015,3.362 -0.03,6.724 -0.044,10.086 0.006,6.691 0.013,13.381 0.02,20.072 L 0,0 Z" /></g><g
           transform="translate(50.3342,90.5039)"
           id="g212"><path
             id="path214"
             style="fill:#f6dd08;fill-opacity:1;fill-rule:nonzero;stroke:none"
             d="m 0,0 c 3.356,0.06 6.711,0.12 10.067,0.18 0,0 0.023,-0.12 0.023,-0.12 0.007,-6.69 0.014,-13.381 0.02,-20.072 -0.014,-3.362 -0.029,-6.724 -0.044,-10.086 -3.356,10e-4 -6.712,10e-4 -10.068,0.002 0,0 0.007,-0.007 0.007,-0.007 C 0.003,-20.068 0.002,-10.034 0,0" /></g><g
           transform="translate(60.4447,70.4921)"
           id="g216"><path
             id="path218"
             style="fill:#7b4a00;fill-opacity:1;fill-rule:nonzero;stroke:none"
             d="m 0,0 c -0.007,6.691 -0.013,13.381 -0.02,20.072 2.969,0.01 5.938,0.002 8.907,0.042 0.752,0.01 1.161,-0.059 1.152,-1.009 C 9.981,12.736 9.985,6.366 9.969,-0.004 6.646,-0.003 3.323,-0.001 0,0" /></g><g
           transform="translate(100.625,90.5642)"
           id="g220"><path
             id="path222"
             style="fill:#7b4a00;fill-opacity:1;fill-rule:nonzero;stroke:none"
             d="m 0,0 c -0.007,-6.691 -0.013,-13.381 -0.02,-20.072 -3.323,-0.001 -6.646,-0.003 -9.969,-0.004 -0.016,6.37 -0.012,12.74 -0.07,19.109 -0.009,0.949 0.4,1.019 1.152,1.009 C -5.938,0.002 -2.969,0.01 0,0" /></g><g
           transform="translate(60.4447,70.4921)"
           id="g224"><path
             id="path226"
             style="fill:#b47b08;fill-opacity:1;fill-rule:nonzero;stroke:none"
             d="m 0,0 c 3.323,-0.001 6.646,-0.003 9.969,-0.004 0.014,-3.353 0.027,-6.707 0.041,-10.06 -3.352,-0.008 -6.703,-0.015 -10.055,-0.022 0,0 0,0 0,0 C -0.03,-6.724 -0.015,-3.362 0,0" /></g><g
           transform="translate(90.6357,70.4878)"
           id="g228"><path
             id="path230"
             style="fill:#b47b08;fill-opacity:1;fill-rule:nonzero;stroke:none"
             d="m 0,0 c 3.323,0.001 6.646,0.003 9.969,0.004 0.015,-3.362 0.03,-6.724 0.045,-10.086 0,0 0,0 0,0 -3.352,0.007 -6.703,0.015 -10.055,0.022 C -0.027,-6.707 -0.014,-3.353 0,0" /></g><g
           transform="translate(60.4001,60.4057)"
           id="g232"><path
             id="path234"
             style="fill:#f6dd08;fill-opacity:1;fill-rule:nonzero;stroke:none"
             d="m 0,0 c 3.351,0.007 6.703,0.015 10.054,0.022 0.011,-2.865 -0.01,-5.731 0.047,-8.595 0.022,-1.102 -0.346,-1.56 -1.492,-1.532 -2.377,0.058 -4.758,0.055 -7.135,0 -1.121,-0.025 -1.539,0.383 -1.516,1.51 C 0.017,-5.731 -0.008,-2.865 0,0" /></g><g
           transform="translate(90.5951,60.4279)"
           id="g236"><path
             id="path238"
             style="fill:#f6dd08;fill-opacity:1;fill-rule:nonzero;stroke:none"
             d="m 0,0 c 3.351,-0.007 6.703,-0.015 10.054,-0.022 0.009,-2.865 -0.017,-5.731 0.042,-8.596 0.023,-1.127 -0.395,-1.535 -1.515,-1.509 -2.378,0.055 -4.759,0.058 -7.136,0 -1.146,-0.028 -1.514,0.43 -1.492,1.532 C 0.01,-5.731 -0.01,-2.865 0,0" /></g><g
           transform="translate(110.7102,60.4011)"
           id="g240"><path
             id="path242"
             style="fill:#fefe08;fill-opacity:1;fill-rule:nonzero;stroke:none"
             d="m 0,0 c 0.002,10.034 0.003,20.069 0.005,30.103 6.708,0.029 13.415,0.058 20.122,0.087 0.012,-3.35 0.023,-6.701 0.034,-10.051 10e-4,0 -0.026,-0.046 -0.026,-0.046 -2.863,0.012 -5.727,-0.011 -8.589,0.052 C 10.405,20.17 10.03,19.72 10.052,18.616 10.107,15.754 10.083,12.89 10.09,10.027 10.056,6.682 10.021,3.336 9.987,-0.009 6.658,-0.006 3.329,-0.003 0,0" /></g><g
           transform="translate(120.8002,70.4277)"
           id="g244"><path
             id="path246"
             style="fill:#f6dd08;fill-opacity:1;fill-rule:nonzero;stroke:none"
             d="m 0,0 c -0.008,2.863 0.016,5.727 -0.039,8.59 -0.021,1.104 0.354,1.554 1.495,1.528 2.862,-0.062 5.726,-0.04 8.589,-0.051 C 10.028,6.739 10.011,3.413 9.994,0.086 6.662,0.057 3.331,0.029 0,0" /></g><g
           transform="translate(50.3342,90.5039)"
           id="g248"><path
             id="path250"
             style="fill:#fefe08;fill-opacity:1;fill-rule:nonzero;stroke:none"
             d="m 0,0 c 0.002,-10.034 0.003,-20.068 0.005,-30.103 -3.329,-0.003 -6.658,-0.006 -9.987,-0.008 -0.034,3.345 -0.068,6.69 -0.103,10.035 0.008,2.863 -0.016,5.727 0.039,8.59 0.021,1.103 -0.353,1.553 -1.495,1.528 -2.862,-0.063 -5.726,-0.04 -8.589,-0.052 0,0 -0.026,0.046 -0.026,0.046 0.011,3.351 0.023,6.701 0.034,10.052 C -13.415,0.058 -6.707,0.029 0,0" /></g><g
           transform="translate(30.2042,80.4941)"
           id="g252"><path
             id="path254"
             style="fill:#f6dd08;fill-opacity:1;fill-rule:nonzero;stroke:none"
             d="m 0,0 c 2.863,0.012 5.727,-0.011 8.589,0.052 1.142,0.025 1.516,-0.425 1.495,-1.529 -0.055,-2.862 -0.031,-5.726 -0.039,-8.589 -3.331,0.028 -6.662,0.057 -9.993,0.085 C 0.034,-6.654 0.017,-3.327 0,0" /></g></g></g></g></svg>