<?xml version="1.0" encoding="UTF-8" standalone="no"?>
<svg
   xmlns:dc="http://purl.org/dc/elements/1.1/"
   xmlns:cc="http://creativecommons.org/ns#"
   xmlns:rdf="http://www.w3.org/1999/02/22-rdf-syntax-ns#"
   xmlns:svg="http://www.w3.org/2000/svg"
   xmlns="http://www.w3.org/2000/svg"
   viewBox="0 0 209.16125 239.58875"
   height="239.58875"
   width="209.16125"
   xml:space="preserve"
   version="1.1"
   id="svg2"><metadata
     id="metadata8"><rdf:RDF><cc:Work
         rdf:about=""><dc:format>image/svg+xml</dc:format><dc:type
           rdf:resource="http://purl.org/dc/dcmitype/StillImage" /><dc:title></dc:title></cc:Work></rdf:RDF></metadata><defs
     id="defs6"><clipPath
       id="clipPath18"
       clipPathUnits="userSpaceOnUse"><path
         id="path20"
         d="m 0,191.671 167.329,0 L 167.329,0 0,0 0,191.671 Z" /></clipPath></defs><g
     transform="matrix(1.25,0,0,-1.25,0,239.58875)"
     id="g10"><path
       id="path12"
       style="fill:#a3a3a3;fill-opacity:1;fill-rule:nonzero;stroke:none"
       d="m 165.581,146.308 -163.833,0 0,32.548 163.833,0 0,-32.548 z" /><g
       id="g14"><g
         clip-path="url(#clipPath18)"
         id="g16"><g
           transform="translate(144.5591,176.2759)"
           id="g22"><path
             id="path24"
             style="fill:#bcbcbc;fill-opacity:1;fill-rule:nonzero;stroke:none"
             d="m 0,0 22.77,0 0,4.907 c 0,0.723 -0.588,1.311 -1.311,1.311 l -13.563,0 0,7.867 c 0,0.724 -0.586,1.311 -1.31,1.311 l -149.834,0 c -0.724,0 -1.311,-0.587 -1.311,-1.311 l 0,-14.085 22.044,0 c -1.408,-1.182 -2.636,-2.571 -3.639,-4.119 l -18.405,0 0,-2.746 16.935,0 c -0.404,-0.937 -0.73,-1.915 -0.975,-2.925 l -15.96,0 0,-2.666 15.516,0 c -0.052,-0.564 -0.081,-1.134 -0.081,-1.711 0,-0.638 0.032,-1.271 0.094,-1.894 l -15.529,0 0,-2.803 16.038,0 c 0.256,-0.981 0.595,-1.929 1.003,-2.84 l -17.041,0 0,-2.739 18.551,0 c 0.985,-1.471 2.175,-2.791 3.53,-3.923 l -22.081,0 0,-35.206 0,-110.968 6.845,-1.736 153.639,0 6.845,1.736 0,146.174 -22.807,0 c 1.354,1.132 2.545,2.452 3.529,3.923 l 19.278,0 0,2.739 -17.766,0 c 0.406,0.911 0.746,1.859 1.002,2.84 l 16.764,0 0,2.803 -16.256,0 c 0.063,0.623 0.095,1.256 0.095,1.894 0,0.577 -0.03,1.147 -0.082,1.711 l 16.243,0 0,2.666 -16.686,0 c -0.246,1.01 -0.571,1.988 -0.975,2.925 l 17.661,0 0,2.746 -19.131,0 C 2.635,-2.571 1.408,-1.182 0,0" /></g><g
           transform="translate(36.2618,144.4883)"
           id="g26"><path
             id="path28"
             style="fill:#a3a3a3;fill-opacity:1;fill-rule:nonzero;stroke:none"
             d="m 0,0 c -9.732,0 -17.622,7.889 -17.622,17.62 0,9.734 7.89,17.622 17.622,17.622 l 94.079,0 c 9.732,0 17.622,-7.888 17.622,-17.622 C 111.701,7.889 103.811,0 94.079,0 L 0,0 Z" /></g><g
           transform="translate(147.7056,26.8184)"
           id="g30"><path
             id="path32"
             style="fill:#a3a3a3;fill-opacity:1;fill-rule:nonzero;stroke:none"
             d="m 0,0 c 0,-1.687 -1.369,-3.058 -3.059,-3.058 l -123.129,0 c -1.689,0 -3.059,1.371 -3.059,3.058 l 0,108.64 c 0,1.689 1.37,3.059 3.059,3.059 l 123.129,0 c 1.69,0 3.059,-1.37 3.059,-3.059 L 0,0 Z" /></g><g
           transform="translate(94.2955,20.0117)"
           id="g34"><path
             id="path36"
             style="fill:#a3a3a3;fill-opacity:1;fill-rule:nonzero;stroke:none"
             d="m 0,0 c 1.563,0 1.922,-1.501 0.91,-2.512 -1.856,-1.858 -11.176,-11.833 -11.176,-11.833 0,0 -0.438,-0.491 -0.947,-0.491 -0.545,0 -0.947,0.491 -0.947,0.491 0,0 -9.32,9.975 -11.177,11.833 C -24.348,-1.501 -23.989,0 -22.426,0 L 0,0 Z" /></g><g
           transform="translate(6.8453,0)"
           id="g38"><path
             id="path40"
             style="fill:#a3a3a3;fill-opacity:1;fill-rule:nonzero;stroke:none"
             d="m 0,0 -6.845,1.735 0,110.969 6.408,0 c 0.241,0 0.437,-0.195 0.437,-0.436 L 0,0 Z" /></g><g
           transform="translate(160.4839,0)"
           id="g42"><path
             id="path44"
             style="fill:#a3a3a3;fill-opacity:1;fill-rule:nonzero;stroke:none"
             d="m 0,0 6.845,1.735 0,110.969 -6.408,0 C 0.196,112.704 0,112.509 0,112.268 L 0,0 Z" /></g><g
           transform="translate(130.0181,158.2349)"
           id="g46"><path
             id="path48"
             style="fill:#bcbcbc;fill-opacity:1;fill-rule:nonzero;stroke:none"
             d="m 0,0 0,3.31 -1.236,0 0,0.443 2.974,0 0,-0.443 -1.242,0 L 0.496,0 0,0 Z" /></g><g
           transform="translate(132.6431,158.2349)"
           id="g50"><path
             id="path52"
             style="fill:#bcbcbc;fill-opacity:1;fill-rule:nonzero;stroke:none"
             d="m 0,0 0,3.753 0.748,0 0.888,-2.657 C 1.718,0.848 1.777,0.663 1.814,0.54 1.857,0.677 1.924,0.877 2.015,1.142 l 0.898,2.611 0.668,0 0,-3.753 -0.478,0 0,3.141 L 2.012,0 1.564,0 0.479,3.195 0.479,0 0,0 Z" /></g><g
           transform="translate(94.5376,161.8384)"
           id="g54"><path
             id="path56"
             style="fill:#bcbcbc;fill-opacity:1;fill-rule:evenodd;stroke:none"
             d="M 0,0 C 0.142,0.255 0.289,0.506 0.426,0.763 1.198,2.222 1.992,3.67 2.726,5.148 3.108,5.821 2.894,5.783 3.675,5.712 4.174,5.667 4.164,5.702 4.18,5.193 4.215,4.015 4.266,2.838 4.308,1.659 4.327,1.159 4.338,0.657 4.355,0.156 4.398,-0.999 4.443,-2.155 4.486,-3.31 4.49,-3.404 4.488,-3.498 4.488,-3.605 l -1.306,0 C 3.113,-1.55 3.045,0.494 2.979,2.536 2.954,2.54 2.929,2.547 2.903,2.554 1.799,0.493 0.693,-1.569 -0.411,-3.631 c -0.026,0.007 -0.054,0.012 -0.081,0.02 -0.517,2.14 -1.033,4.281 -1.551,6.424 -0.022,0 -0.046,0 -0.07,10e-4 -0.119,-0.353 -0.24,-0.705 -0.356,-1.057 -0.572,-1.737 -1.14,-3.474 -1.718,-5.208 -0.022,-0.067 -0.108,-0.159 -0.167,-0.16 -0.413,-0.015 -0.825,-0.008 -1.272,-0.008 0.129,0.4 0.249,0.775 0.37,1.15 0.654,2.019 1.309,4.037 1.961,6.055 0.209,0.646 0.416,1.292 0.616,1.939 0.042,0.137 0.112,0.186 0.254,0.18 0.25,-0.011 0.503,-0.016 0.753,0.001 C -1.486,5.719 -1.413,5.65 -1.371,5.474 -1.105,4.341 -0.828,3.209 -0.557,2.076 -0.392,1.39 -0.23,0.703 -0.066,0.017 -0.045,0.012 -0.023,0.006 0,0" /></g><g
           transform="translate(111.4498,163.877)"
           id="g58"><path
             id="path60"
             style="fill:#bcbcbc;fill-opacity:1;fill-rule:evenodd;stroke:none"
             d="M 0,0 C 0.825,0.001 1.266,0.252 1.555,0.881 1.849,1.518 1.592,2.445 0.709,2.457 0.519,2.46 0.326,2.457 0.137,2.478 -0.088,2.504 -0.176,2.413 -0.202,2.193 -0.27,1.632 -0.357,1.073 -0.437,0.514 -0.51,0 -0.509,0 0,0 m -0.193,-4.396 c 0,-0.007 0.002,-0.015 0.002,-0.022 0.343,0.023 0.695,0.016 1.033,0.078 0.72,0.137 1.279,0.836 1.247,1.511 -0.034,0.759 -0.616,1.42 -1.366,1.506 -0.4,0.047 -0.809,0.027 -1.211,0.05 -0.155,0.007 -0.209,-0.058 -0.228,-0.199 -0.052,-0.395 -0.114,-0.787 -0.169,-1.18 -0.07,-0.496 -0.133,-0.991 -0.203,-1.487 -0.025,-0.183 0.022,-0.276 0.232,-0.26 0.219,0.015 0.442,0.003 0.663,0.003 m -2.442,-1.223 c 0.463,3.113 0.923,6.208 1.386,9.32 0.136,0.008 0.26,0.022 0.382,0.022 0.562,0.002 1.123,0 1.684,0 C 1.781,3.724 2.693,3.046 2.887,2.104 3.061,1.262 2.963,0.444 2.387,-0.256 2.313,-0.345 2.246,-0.442 2.166,-0.551 2.238,-0.605 2.3,-0.655 2.362,-0.702 3.004,-1.19 3.364,-1.824 3.396,-2.642 3.457,-4.201 2.372,-5.505 0.811,-5.614 c -1.11,-0.079 -2.229,-0.033 -3.342,-0.039 -0.028,0 -0.055,0.018 -0.104,0.034" /></g><g
           transform="translate(122.0152,164.3193)"
           id="g62"><path
             id="path64"
             style="fill:#bcbcbc;fill-opacity:1;fill-rule:evenodd;stroke:none"
             d="M 0,0 C -0.034,0.236 -0.052,0.525 -0.122,0.802 -0.255,1.32 -0.57,1.713 -1.05,1.953 -1.946,2.406 -3.237,1.943 -3.829,1.141 -4.273,0.539 -4.546,-0.143 -4.755,-0.854 c -0.238,-0.812 -0.404,-1.626 -0.297,-2.48 0.115,-0.913 0.785,-1.617 1.817,-1.615 0.843,0.003 1.53,0.393 2.007,1.077 C -0.431,-2.729 -0.065,-1.437 0,0 M 1.296,-0.183 C 1.258,-1.313 0.935,-2.362 0.52,-3.396 0.175,-4.251 -0.334,-4.984 -1.07,-5.532 c -1.201,-0.893 -3.121,-0.972 -4.288,0.081 -0.614,0.554 -0.936,1.262 -1.008,2.077 -0.098,1.115 0.14,2.184 0.511,3.225 0.26,0.729 0.538,1.452 1.018,2.076 0.639,0.833 1.484,1.299 2.52,1.444 0.722,0.102 1.41,0.012 2.046,-0.362 C 0.505,2.552 0.974,1.868 1.161,0.998 1.243,0.613 1.254,0.211 1.296,-0.183" /></g><g
           transform="translate(81.4996,166.2276)"
           id="g66"><path
             id="path68"
             style="fill:#bcbcbc;fill-opacity:1;fill-rule:evenodd;stroke:none"
             d="m 0,0 c -0.881,0.214 -1.745,0.258 -2.597,0.088 -1.344,-0.267 -2.539,-0.81 -3.238,-2.081 -0.558,-1.016 -0.671,-2.094 -0.319,-3.206 0.186,-0.589 0.572,-1.017 1.12,-1.281 0.852,-0.413 1.719,-0.413 2.582,-0.012 0.162,0.076 0.27,0.178 0.283,0.381 0.021,0.307 0.066,0.614 0.117,0.919 0.031,0.182 -0.044,0.216 -0.201,0.212 -0.367,-0.006 -0.737,-0.002 -1.15,-0.002 0.044,0.34 0.085,0.657 0.128,0.975 0.042,0.31 0.043,0.31 0.357,0.31 0.732,0 1.462,-0.004 2.194,0.002 0.152,10e-4 0.217,-0.037 0.193,-0.201 -0.14,-0.97 -0.271,-1.94 -0.415,-2.91 -0.016,-0.105 -0.079,-0.219 -0.154,-0.299 -0.543,-0.566 -1.243,-0.802 -1.997,-0.898 -0.815,-0.102 -1.624,-0.054 -2.375,0.308 -1.17,0.565 -1.886,1.483 -2.07,2.785 -0.131,0.934 -0.08,1.857 0.221,2.754 0.377,1.121 1.111,1.961 2.086,2.611 C -4.42,1 -3.524,1.3 -2.555,1.41 -1.75,1.502 -0.954,1.474 -0.158,1.325 0.187,1.261 0.191,1.267 0.144,0.917 0.102,0.619 0.051,0.322 0,0" /></g><g
           transform="translate(105.8794,158.2359)"
           id="g70"><path
             id="path72"
             style="fill:#bcbcbc;fill-opacity:1;fill-rule:evenodd;stroke:none"
             d="m 0,0 -5.986,0 c 0.442,3.106 0.882,6.192 1.322,9.291 l 4.858,0 C 0.131,8.902 0.074,8.52 -0.001,8.143 -0.008,8.107 -0.132,8.074 -0.202,8.074 -1.184,8.069 -2.166,8.063 -3.148,8.075 -3.387,8.078 -3.482,8.018 -3.512,7.767 -3.594,7.057 -3.709,6.352 -3.811,5.645 c -0.009,-0.07 0,-0.143 0,-0.243 l 0.275,0 c 0.841,0 1.682,-0.006 2.524,0.003 C -0.818,5.407 -0.766,5.345 -0.8,5.161 -0.865,4.814 -0.916,4.466 -0.977,4.096 l -0.251,0 c -0.848,0 -1.698,-0.004 -2.546,0.005 C -3.963,4.103 -4.053,4.054 -4.079,3.854 -4.185,3.065 -4.302,2.281 -4.423,1.494 -4.453,1.298 -4.391,1.24 -4.191,1.241 c 1.373,0.008 2.746,0.003 4.119,0.003 l 0.258,0 C 0.121,0.815 0.061,0.412 0,0" /></g><g
           transform="translate(85.7745,164.9097)"
           id="g74"><path
             id="path76"
             style="fill:#bcbcbc;fill-opacity:1;fill-rule:evenodd;stroke:none"
             d="m 0,0 c -0.023,0.002 -0.045,0.005 -0.067,0.007 -0.429,-0.935 -0.857,-1.872 -1.285,-2.81 0.057,-0.029 0.076,-0.046 0.094,-0.047 0.532,-0.002 1.063,-0.004 1.594,-0.006 0.142,0 0.143,0.079 0.123,0.194 C 0.36,-2.089 0.271,-1.513 0.173,-0.941 0.12,-0.627 0.059,-0.314 0,0 m 2.493,-6.689 c -0.427,0 -0.838,-0.004 -1.249,0.006 C 1.204,-6.682 1.14,-6.592 1.13,-6.538 1,-5.814 0.874,-5.087 0.759,-4.36 c -0.028,0.183 -0.1,0.248 -0.286,0.246 -0.731,-0.008 -1.462,-0.013 -2.192,0.002 -0.208,0.005 -0.283,-0.096 -0.354,-0.255 -0.32,-0.712 -0.648,-1.421 -0.962,-2.136 -0.053,-0.122 -0.117,-0.162 -0.246,-0.16 -0.411,0.007 -0.823,0.002 -1.261,0.002 0.244,0.543 0.473,1.06 0.708,1.575 0.586,1.287 1.178,2.571 1.764,3.858 0.562,1.233 1.118,2.469 1.688,3.697 0.038,0.082 0.169,0.16 0.263,0.168 C 0.152,2.66 0.427,2.634 0.7,2.65 0.87,2.659 0.934,2.594 0.96,2.434 1.089,1.649 1.227,0.864 1.36,0.079 c 0.306,-1.792 0.61,-3.586 0.915,-5.38 0.07,-0.407 0.14,-0.814 0.207,-1.221 0.009,-0.047 0.007,-0.097 0.011,-0.167" /></g><g
           transform="translate(123.2447,167.586)"
           id="g78"><path
             id="path80"
             style="fill:#bcbcbc;fill-opacity:1;fill-rule:evenodd;stroke:none"
             d="M 0,0 C 0.371,0 0.695,-0.03 1.014,0.007 1.408,0.052 1.59,-0.112 1.76,-0.459 2.201,-1.365 2.697,-2.246 3.174,-3.136 3.19,-3.167 3.215,-3.193 3.258,-3.249 c 0.166,0.217 0.322,0.417 0.474,0.621 0.627,0.839 1.251,1.68 1.881,2.516 0.043,0.056 0.124,0.119 0.19,0.121 C 6.288,0.018 6.774,0.015 7.326,0.015 7.156,-0.225 7.018,-0.427 6.87,-0.623 5.887,-1.921 4.906,-3.222 3.914,-4.516 3.695,-4.802 3.717,-5.142 3.667,-5.462 3.475,-6.698 3.3,-7.937 3.122,-9.176 3.098,-9.348 3.037,-9.428 2.841,-9.417 2.482,-9.396 2.123,-9.41 1.73,-9.41 c 0.061,0.409 0.117,0.785 0.17,1.159 0.17,1.167 0.343,2.332 0.501,3.5 0.016,0.111 -0.034,0.246 -0.09,0.351 -0.729,1.389 -1.465,2.775 -2.2,4.162 C 0.081,-0.18 0.055,-0.119 0,0" /></g><g
           transform="translate(36.0274,159.9727)"
           id="g82"><path
             id="path84"
             style="fill:#bcbcbc;fill-opacity:1;fill-rule:nonzero;stroke:none"
             d="M 0,0 C -0.051,0.036 -0.077,0.076 -0.102,0.118 -0.88,1.374 -1.657,2.633 -2.432,3.891 -2.479,3.967 -2.525,3.998 -2.618,3.997 -3.128,3.992 -3.639,3.995 -4.15,3.995 -4.191,3.994 -4.232,3.991 -4.277,3.989 l 0,-5.763 1.765,0 0,3.983 c 0.009,0.002 0.019,0.006 0.03,0.009 0.025,-0.039 0.051,-0.079 0.076,-0.119 0.78,-1.256 1.561,-2.512 2.338,-3.768 0.052,-0.085 0.108,-0.116 0.208,-0.116 0.498,0.006 0.997,0.004 1.496,0.004 l 0.129,0 0,5.767 L 0,3.986 0,0 Z" /></g><g
           transform="translate(64.4615,159.2969)"
           id="g86"><path
             id="path88"
             style="fill:#bcbcbc;fill-opacity:1;fill-rule:nonzero;stroke:none"
             d="m 0,0 c -0.014,-0.373 -0.321,-0.623 -0.688,-0.609 -0.374,0.013 -0.646,0.271 -0.661,0.643 -0.011,0.269 -0.003,0.539 -0.003,0.81 l -10e-4,0 c 0,0.249 -0.006,0.498 10e-4,0.748 0.012,0.407 0.267,0.665 0.661,0.679 C -0.306,2.282 -0.013,2.042 0.002,1.644 0.024,1.096 0.022,0.547 0,0 M 0.002,2.538 C -0.32,2.714 -0.631,2.855 -0.983,2.88 -1.33,2.905 -1.661,2.855 -1.976,2.705 -2.294,2.554 -2.556,2.336 -2.768,2.056 -3.291,1.362 -3.355,0.416 -2.86,-0.275 c 0.75,-1.047 1.735,-1.17 2.857,-0.632 0.005,-0.066 0.009,-0.13 0.013,-0.191 l 1.696,0 0,5.762 -1.704,0 0,-2.126 z" /></g><g
           transform="translate(46.0831,161.6094)"
           id="g90"><path
             id="path92"
             style="fill:#bcbcbc;fill-opacity:1;fill-rule:nonzero;stroke:none"
             d="M 0,0 C -0.717,0.737 -1.934,0.789 -2.73,0.117 -2.763,0.09 -2.798,0.064 -2.857,0.017 l 0,0.388 -1.699,0 0,-3.819 1.692,0 c 0.003,0.056 0.008,0.108 0.008,0.162 0,0.752 -0.005,1.504 0,2.255 0,0.122 0.019,0.254 0.069,0.362 0.158,0.343 0.585,0.523 0.971,0.428 0.366,-0.089 0.595,-0.39 0.595,-0.787 l 0,-2.27 0,-0.145 1.703,0 c 0.003,0.021 0.008,0.033 0.008,0.046 0,0.71 0.009,1.421 -0.003,2.132 C 0.479,-0.766 0.333,-0.344 0,0" /></g><g
           transform="translate(60.6846,160.5508)"
           id="g94"><path
             id="path96"
             style="fill:#bcbcbc;fill-opacity:1;fill-rule:nonzero;stroke:none"
             d="M 0,0 C -0.016,0.461 -0.224,0.855 -0.579,1.162 -1.322,1.806 -2.444,1.811 -3.201,1.174 -3.232,1.146 -3.267,1.119 -3.329,1.066 l 0,0.402 -1.704,0 0,-3.818 1.705,0 0,0.171 c -0.001,0.76 -0.001,1.521 -0.003,2.281 0,0.159 0.043,0.303 0.139,0.431 0.217,0.293 0.617,0.417 0.968,0.299 0.345,-0.116 0.53,-0.388 0.53,-0.784 0.002,-0.747 0,-1.496 0.002,-2.244 0,-0.051 0.005,-0.103 0.009,-0.155 l 1.69,0 c 0.005,0.026 0.011,0.043 0.011,0.058 C 0.014,-1.528 0.027,-0.763 0,0" /></g><g
           transform="translate(69.9903,160.1397)"
           id="g98"><path
             id="path100"
             style="fill:#bcbcbc;fill-opacity:1;fill-rule:nonzero;stroke:none"
             d="m 0,0 -0.013,0 c 0,-0.328 0.014,-0.657 -0.005,-0.984 -0.024,-0.436 -0.337,-0.716 -0.749,-0.7 -0.323,0.014 -0.588,0.263 -0.648,0.618 -0.018,0.099 -0.025,0.2 -0.026,0.298 -10e-4,0.512 -10e-4,1.021 0.002,1.533 0.001,0.107 0.009,0.217 0.031,0.321 0.079,0.378 0.372,0.619 0.716,0.601 0.365,-0.02 0.638,-0.298 0.677,-0.691 C -0.009,0.938 -0.002,0.88 -0.002,0.822 0.001,0.548 0,0.273 0,0 M 1.102,1.504 C 0.104,2.371 -1.545,2.359 -2.543,1.478 -3.458,0.67 -3.473,-0.636 -2.572,-1.46 c 0.527,-0.481 1.161,-0.69 1.823,-0.696 0.696,0.003 1.289,0.187 1.8,0.599 1.016,0.824 1.037,2.203 0.051,3.061" /></g><g
           transform="translate(52.8506,160.6831)"
           id="g102"><path
             id="path104"
             style="fill:#bcbcbc;fill-opacity:1;fill-rule:nonzero;stroke:none"
             d="m 0,0 c -0.295,0 -0.59,0.004 -0.885,-0.003 -0.112,-0.002 -0.147,0.035 -0.135,0.142 0.017,0.136 0.009,0.276 0.036,0.409 0.065,0.34 0.361,0.576 0.7,0.575 C 0.059,1.12 0.357,0.872 0.413,0.526 0.439,0.359 0.439,0.19 0.454,0 L 0,0 Z M 1.656,0.801 C 1.176,1.279 0.589,1.524 -0.08,1.572 -0.864,1.628 -1.571,1.426 -2.167,0.901 c -0.398,-0.35 -0.645,-0.79 -0.682,-1.327 -0.048,-0.698 0.232,-1.261 0.769,-1.685 0.8,-0.633 1.709,-0.76 2.671,-0.469 0.67,0.202 1.193,0.606 1.496,1.259 0.024,0.051 0.039,0.104 0.058,0.156 l -1.693,0 C 0.439,-1.323 0.437,-1.472 0.415,-1.619 0.365,-1.981 0.089,-2.238 -0.248,-2.25 c -0.369,-0.014 -0.678,0.2 -0.732,0.571 -0.052,0.355 -0.04,0.719 -0.055,1.097 l 3.284,0 c 0,0.062 0.004,0.107 -10e-4,0.151 C 2.199,0.051 1.995,0.461 1.656,0.801" /></g><g
           transform="translate(50.1993,162.5947)"
           id="g106"><path
             id="path108"
             style="fill:#bcbcbc;fill-opacity:1;fill-rule:nonzero;stroke:none"
             d="m 0,0 -0.93,0 0,0.77 -1.736,0 0,-0.771 -0.144,0 C -3.04,-0.002 -3.268,0 -3.496,-0.006 -3.533,-0.007 -3.598,-0.044 -3.6,-0.069 -3.609,-0.23 -3.605,-0.391 -3.605,-0.565 l 0.946,0 0,-3.831 1.734,0 0,3.834 0.925,0 L 0,0 Z" /></g><path
           id="path110"
           style="fill:#bcbcbc;fill-opacity:1;fill-rule:nonzero;stroke:none"
           d="m 38.822,158.197 1.713,0 0,3.82 -1.713,0 0,-3.82 z" /><path
           id="path112"
           style="fill:#bcbcbc;fill-opacity:1;fill-rule:nonzero;stroke:none"
           d="m 40.535,163.959 -1.721,0 0,-1.151 1.721,0 0,1.151 z" /></g></g></g></svg>