<?xml version="1.0" encoding="UTF-8"?>
<!DOCTYPE svg PUBLIC "-//W3C//DTD SVG 1.0//EN" "http://www.w3.org/TR/2001/REC-SVG-20010904/DTD/svg10.dtd">
<!-- Creator: CorelDRAW 2018 (64 Bit) -->
<svg xmlns="http://www.w3.org/2000/svg" xml:space="preserve" width="2085px" height="338px" version="1.0" shape-rendering="geometricPrecision" text-rendering="geometricPrecision" image-rendering="optimizeQuality" fill-rule="evenodd" clip-rule="evenodd"
viewBox="0 0 2085 337.53"
 xmlns:xlink="http://www.w3.org/1999/xlink"
 xmlns:sodipodi="http://sodipodi.sourceforge.net/DTD/sodipodi-0.dtd"
 xmlns:rdf="http://www.w3.org/1999/02/22-rdf-syntax-ns#"
 xmlns:cc="http://web.resource.org/cc/"
 xmlns:dc="http://purl.org/dc/elements/1.1/"
 xmlns:inkscape="http://www.inkscape.org/namespaces/inkscape"
 xmlns:svg="http://www.w3.org/2000/svg"
 inkscape:version="0.44.1"
 sodipodi:version="0.32"
 sodipodi:docbase="C:\Documents and Settings\Matias\Desktop"
 sodipodi:docname="Figura1.svg"
 enable-background="new 0 0 566.929 98.574">
 <g id="Camada_x0020_1">
  <metadata id="CorelCorpID_0Corel-Layer"/>
  <sodipodi:namedview width="1000px" height="200px" guidetolerance="10.0" id="base" gridtolerance="10.0" bordercolor="#666666" objecttolerance="10.0" inkscape:cx="652.10241" pagecolor="#ffffff" borderopacity="1.0" inkscape:cy="-180.96718" inkscape:zoom="0.70710678" inkscape:window-height="844" inkscape:window-x="-4" inkscape:pageopacity="0.0" inkscape:window-width="1440" inkscape:pageshadow="2" inkscape:current-layer="_42677040" inkscape:window-y="-4"/>
  <g id="_1813109538240">
   <g>
    <polygon id="_43443024" fill="#2E3192" points="1544.43,17.63 1619.52,17.63 1656.61,102.92 1712.22,17.63 1789.13,17.63 1680.69,186.34 1663.08,317.98 1593.56,317.98 1613.95,167.78 "/>
    <polygon id="_43441624" fill="#2E3192" points="991.96,317.98 1001.23,251.2 895.57,251.2 902.06,199.32 993.81,199.32 1003.09,132.58 912.25,132.58 918.75,84.37 1024.4,84.37 1034.6,17.63 859.41,17.63 817.7,317.98 "/>
    <path id="_43775888" fill="#2E3192" d="M368.12 169.63l23.18 -62.09 7.42 62.09 -30.6 0 0 0zm-25.02 59.33l63.03 0 11.13 88.99 114.01 0 52.84 -163.15 25.96 163.15 60.25 0 66.74 -172.41 11.13 172.41 66.73 0 -18.54 -300.34 -79.72 0 -62.1 158.51 -24.11 -158.5 -71.37 -0.01 -81.56 246.57 -30.6 -246.57 -88.99 0 -99.18 249.35 12.98 -97.33 -120.51 0 -8.35 59.33 52.85 0 -3.72 20.39c-9.27,5.55 -30.58,6.48 -38.92,6.48 -8.35,0 -70.45,-5.55 -67.67,-72.3 2.78,-66.73 91.77,-128.84 197.44,-94.54l10.2 -63.96c-70.45,-24.1 -255.48,-10.62 -274.39,154.8 -11.12,97.33 77.87,143.68 137.19,142.75 34.3,1.86 73.24,-11.12 87.14,-18.54l-4.63 13.91 70.45 0 34.29 -88.99 0 0z"/>
    <path id="_44102912" fill="#2E3192" d="M1469.34 14.85c-48.21,-1.86 -117.73,25.95 -140.9,138.12 -23.17,112.15 38.93,157.58 96.4,164.99 57.48,7.42 138.12,-28.73 152.95,-136.26 14.84,-107.53 -38.01,-164.07 -108.45,-166.85zm-7.42 63.96c19.47,0 61.18,12.98 50.98,90.83 -10.19,77.87 -58.39,87.14 -76.01,85.28 -17.61,-1.85 -53.76,-13.89 -43.57,-85.28 10.2,-71.36 48.2,-91.76 68.6,-90.83l0 0z"/>
    <path id="_44104296" fill="#2E3192" d="M1176.41 132.58l38.94 0c28.74,0 34.3,-18.54 35.22,-25.95 0.93,-7.42 -7.41,-22.26 -22.24,-22.26l-45.42 0 -6.5 48.21zm-16.68 118.64l52.84 0c28.73,0 35.22,-22.24 36.14,-29.66 0.94,-7.42 -7.41,-22.24 -22.23,-22.24l-59.33 0 -7.42 51.9 0 0zm-77.86 66.75l41.71 -300.33 127.92 0c30.6,0 75.09,35.22 69.53,82.5 -5.56,47.27 -20.4,50.05 -30.59,57.47 15.76,13.89 31.52,36.14 25.03,77.85 -6.49,41.72 -40.79,82.5 -101.04,82.5l-132.56 0.01 0 0z"/>
    <path id="_44106160" fill="#2E3192" d="M1700.68 272.53c-11.44,0 -20.67,9.23 -20.67,20.61 0,11.5 9.22,20.72 20.67,20.72 11.37,0 20.59,-9.22 20.59,-20.72 0,-11.39 -9.23,-20.61 -20.59,-20.61l0 -2.83c12.96,0 23.42,10.52 23.42,23.44 0,13.03 -10.46,23.55 -23.42,23.55 -13.05,-0.01 -23.56,-10.52 -23.56,-23.55 0,-12.93 10.51,-23.44 23.56,-23.44l0 2.83 0 0z"/>
    <path id="_42975192" fill="#2E3192" d="M1695.12 282.35l7.51 0c3.26,0 6.81,0.49 6.81,4.55 0,5.35 -5.71,4.74 -9.4,4.74l-4.92 -0.01 0 2.53 5.91 0 7.51 12.11 3.8 0 -7.93 -12.11c4.67,-0.12 8.3,-2.03 8.3,-7.2 0,-2.22 -0.98,-4.55 -2.95,-5.66 -1.96,-1.17 -4.18,-1.29 -6.4,-1.29l-11.43 0 0 26.26 3.19 0 0 -23.92 0 0z"/>
   </g>
   <g>
    <polygon fill="#2E3192" fill-rule="nonzero" points="2065.04,127.78 2033.77,127.78 2033.77,165.28 1971.85,165.28 1971.85,203.52 1909.63,203.52 1909.63,238.42 2065.04,238.42 2065.04,277.78 1849.24,277.78 1849.24,204.27 1880.2,204.27 1880.2,167.51 1942.43,167.51 1942.43,129.27 2004.65,129.27 2004.65,52.04 1909.63,52.04 1909.63,89.54 1849.24,89.54 1849.24,54.27 1880.2,54.27 1880.2,16.77 2033.77,16.77 2033.77,54.27 2065.04,54.27 "/>
    <path fill="#2E3192" fill-rule="nonzero" d="M1877.16 305.33l-4.01 0 0 4.85 -16.1 0 0 9.75 -7.77 0 0 -33.77 23.87 0 0 4.85 4.01 0 0 14.32zm-8.01 0l0 -14.32 -11.86 0 0 14.32 11.86 0zm39.7 14.6l-27.88 0 0 -33.77 7.81 0 0 29.21 20.07 0 0 4.56zm31.68 0l-7.81 0 0 -9.75 -12.29 0 0 9.75 -7.78 0 0 -19.21 4.01 0 0 -9.71 4.01 0 0 -4.85 11.85 0 0 4.85 4.01 0 0 9.76 4 0 0 19.16zm-8.01 -14.6l0 -9.46 -4.04 0 0 -4.86 -3.77 0 0 4.86 -4.04 0 0 9.46 11.85 0zm39.7 -9.75l-4 0 0 9.75 -4.05 0 0 14.6 -11.82 0 0 -14.6 -4 0 0 -9.75 -4.01 0 0 -9.42 7.81 0 0 9.75 4.01 0 0 4.86 4.24 -0.05 0 -4.85 4.05 0 0 -9.71 7.77 0 0 9.42zm31.69 24.35l-27.88 0 0 -33.77 27.88 0 0 4.57 -20.07 0 0 10.04 16.06 0 0 4.56 -16.06 0 0 10.04 20.07 0 0 4.56zm31.69 -14.6l-4.01 0 0 10.04 4.01 0 0 4.56 -7.81 0 0 -4.9 -4.01 0 0 -4.85 -8.29 0 0 9.75 -7.77 0 0 -33.77 23.87 0 0 4.85 4.01 0 0 14.32zm-8.01 0l0 -14.32 -11.86 0 0 14.32 11.86 0zm39.7 9.7l-4.01 0 0 4.9 -19.87 0 0 -4.9 -4.01 0 0 -4.56 7.82 0 0 4.9 12.25 0 0 -10.04 -16.06 0 0 -4.9 -4.01 0 0 -9.42 4.01 0 0 -4.85 19.87 0 0 4.85 4.01 0 0 4.57 -7.82 0 0 -4.85 -12.25 0 0 10.04 16.06 0 0 4.75 4.01 0 0 9.51z"/>
   </g>
  </g>
  <g id="_1813109543648">
   <path id="path22" fill="#FF004F" fill-rule="nonzero" d="M-1365.27 1441.98c1.65,-1.47 3.52,-2.35 5.63,-2.56 2.11,-0.24 4.02,0.02 5.78,0.74 1.72,0.76 3.11,1.9 4.07,3.56 0.98,1.59 1.22,3.49 0.72,5.7 -0.63,2.23 -1.84,4.26 -3.57,6.16 -1.75,1.92 -3.49,3.65 -5.25,5.2 -4,3.78 -8.43,6.55 -13.32,8.38 -4.86,1.79 -9.8,2.64 -14.79,2.56 -4.96,-0.11 -9.85,-1.16 -14.62,-3.2 -4.77,-2.03 -9.07,-5.06 -12.87,-9.1 -2.25,-2.41 -4.15,-4.98 -5.71,-7.64 -1.52,-2.67 -2.72,-5.47 -3.53,-8.43 -1.25,-4.33 -1.8,-8.84 -1.66,-13.57 0.07,-4.67 0.89,-9.25 2.45,-13.67 1.53,-4.45 3.7,-8.61 6.53,-12.53 2.84,-3.91 6.3,-7.26 10.39,-10 2.99,-2.04 6,-3.79 9.02,-5.29 3.03,-1.45 6.22,-2.86 9.63,-4.14 1.95,-0.72 3.94,-1.43 6,-2.14 2.06,-0.69 4.17,-1.19 6.32,-1.61 2.16,-0.35 4.32,-0.48 6.46,-0.4 2.16,0.1 4.3,0.53 6.33,1.24 1.43,0.56 2.88,1.35 4.31,2.3 1.43,0.98 2.78,2.06 3.99,3.3 1.26,1.26 2.32,2.56 3.26,3.94 0.92,1.39 1.57,2.74 2,4.03 0.29,1.19 0.39,2.43 0.22,3.65 -0.14,1.27 -0.53,2.37 -1.21,3.4 -0.68,1.01 -1.6,1.85 -2.74,2.57 -1.11,0.66 -2.37,1.1 -3.84,1.29 -2.37,0.3 -4.16,0.05 -5.45,-0.66 -1.3,-0.77 -2.3,-1.69 -3.1,-2.8 -0.76,-1.11 -1.5,-2.16 -2.23,-3.22 -0.7,-1.09 -1.73,-1.83 -3.04,-2.3 -0.85,0 -1.48,0.02 -1.88,0.13 -3.51,0.83 -7.03,1.98 -10.53,3.41 -3.57,1.4 -6.85,3.15 -9.86,5.18 -3.07,2.03 -5.7,4.37 -7.95,7.05 -2.24,2.66 -3.91,5.68 -4.94,9 -1.23,3.96 -1.69,7.98 -1.37,12.03 0.29,4.06 1.54,7.86 3.7,11.45 1.24,2.15 2.84,3.99 4.91,5.54 2.06,1.59 4.33,2.75 6.8,3.55 2.46,0.79 4.97,1.06 7.54,0.81 2.57,-0.23 5.02,-1.03 7.37,-2.4 2.08,-1.29 3.9,-2.88 5.56,-4.77 1.65,-1.91 3.13,-3.81 4.47,-5.74z"/>
   <g>
    <path id="path26" fill="#7942BA" fill-rule="nonzero" d="M-1305.87 1453.08c2.85,-1.12 5.36,-2.6 7.53,-4.44 2.11,-1.82 4.01,-3.85 5.62,-6.08 1.59,-2.21 2.96,-4.57 4.04,-7.11 1.11,-2.53 2.09,-5.04 2.93,-7.63 0.58,-3.21 0.91,-6.54 0.94,-9.97 0.03,-3.41 -0.75,-6.66 -2.34,-9.75 -1.35,-2.57 -3.35,-4.73 -6.07,-6.61 -2.73,-1.81 -5.68,-3.1 -8.94,-3.8 -3.21,-0.77 -6.48,-0.9 -9.76,-0.47 -3.27,0.43 -6.21,1.58 -8.76,3.45 -3.65,2.73 -6.56,5.79 -8.8,9.17 -2.22,3.38 -3.91,7.11 -5.07,11.2 -0.93,3.25 -1.45,6.66 -1.56,10.25 -0.08,3.58 0.52,6.99 1.88,10.24 1,2.4 2.55,4.6 4.61,6.55 2.04,1.96 4.36,3.51 6.92,4.61 2.58,1.12 5.32,1.75 8.22,1.89 2.9,0.11 5.79,-0.41 8.61,-1.5l0 0zm36.97 -21.62c-1.61,4.77 -3.67,9.46 -6.2,14.01 -2.54,4.57 -5.6,8.67 -9.2,12.25 -3.64,3.59 -7.84,6.49 -12.65,8.72 -4.8,2.21 -10.3,3.32 -16.48,3.32 -3.98,-0.16 -7.12,-0.5 -9.48,-0.97 -2.32,-0.45 -4.59,-1.14 -6.75,-2.12 -3.94,-1.02 -7.27,-2.67 -10.07,-4.93 -2.83,-2.24 -5.17,-4.86 -7.08,-7.88 -1.88,-2.98 -3.35,-6.17 -4.36,-9.53 -1,-3.37 -1.66,-6.63 -1.92,-9.8 -0.45,-5.54 0.05,-11.2 1.58,-16.93 1.53,-5.7 3.93,-10.98 7.26,-15.82 3.36,-4.8 7.53,-8.95 12.55,-12.44 5.08,-3.46 10.83,-5.7 17.27,-6.81 3.36,-0.52 6.71,-0.7 10.14,-0.52 3.44,0.15 6.77,0.76 9.98,1.79 2.67,0.84 5.13,1.82 7.43,2.93 2.29,1.11 4.46,2.54 6.57,4.25 2.75,2.22 5.07,4.78 7,7.69 1.88,2.89 3.25,5.94 4.12,9.08 1.06,4.01 1.5,7.98 1.43,11.91 -0.08,3.94 -0.48,7.87 -1.14,11.8l0 0zm0 0l0 0 0 0z"/>
   </g>
   <g>
    <path id="path30" fill="#F9E52D" fill-rule="nonzero" d="M-1164.94 1454.97c3.05,-1.21 5.72,-2.77 8.02,-4.72 2.3,-1.98 4.28,-4.15 6.05,-6.53 1.71,-2.37 3.13,-4.88 4.32,-7.61 1.19,-2.67 2.21,-5.41 3.12,-8.16 0.6,-3.45 0.93,-7.02 0.97,-10.64 0.06,-3.67 -0.76,-7.15 -2.47,-10.44 -1.43,-2.74 -3.59,-5.09 -6.5,-7.04 -2.88,-1.96 -6.07,-3.33 -9.5,-4.12 -3.49,-0.79 -6.98,-0.93 -10.49,-0.47 -3.51,0.44 -6.63,1.68 -9.38,3.72 -3.84,2.91 -7,6.15 -9.37,9.76 -2.38,3.62 -4.2,7.61 -5.42,12 -1.02,3.46 -1.61,7.1 -1.69,10.96 -0.1,3.86 0.56,7.48 1.99,10.93 1.11,2.59 2.77,4.92 4.96,7 2.16,2.09 4.65,3.75 7.39,4.93 2.74,1.19 5.69,1.86 8.77,1.99 3.11,0.13 6.19,-0.4 9.23,-1.56l0 0zm39.53 -23.13c-1.72,5.12 -3.94,10.11 -6.66,14.99 -2.66,4.89 -5.97,9.25 -9.83,13.1 -3.88,3.83 -8.37,6.93 -13.52,9.31 -5.1,2.37 -10.99,3.56 -17.61,3.56 -4.26,-0.16 -7.64,-0.54 -10.15,-1 -2.45,-0.53 -4.9,-1.3 -7.22,-2.28 -4.18,-1.11 -7.78,-2.86 -10.76,-5.31 -3.02,-2.4 -5.52,-5.19 -7.55,-8.39 -2.03,-3.17 -3.6,-6.61 -4.65,-10.23 -1.08,-3.59 -1.77,-7.1 -2.06,-10.48 -0.53,-5.92 0.03,-11.96 1.67,-18.07 1.63,-6.12 4.22,-11.75 7.78,-16.9 3.54,-5.18 8.04,-9.58 13.45,-13.31 5.38,-3.69 11.52,-6.12 18.43,-7.31 3.56,-0.54 7.16,-0.75 10.83,-0.54 3.67,0.17 7.24,0.84 10.7,1.91 2.83,0.9 5.49,1.95 7.92,3.17 2.43,1.14 4.8,2.65 7.03,4.5 2.93,2.37 5.4,5.12 7.44,8.21 2.06,3.11 3.51,6.36 4.43,9.74 1.12,4.28 1.61,8.54 1.51,12.73 -0.07,4.2 -0.47,8.4 -1.18,12.6l0 0zm0 0l0 0 0 0z"/>
   </g>
   <g>
    <path id="path34" fill="#00B3DD" fill-rule="nonzero" d="M-1075.97 1398.2c-4.12,-2.19 -8.64,-3.42 -13.5,-3.72 -4.89,-0.28 -9.57,0.35 -14.08,1.8l0 31.26c4.59,-0.25 9.12,-0.81 13.6,-1.6 4.46,-0.76 8.62,-2.51 12.39,-5.15 2.09,-1.5 3.75,-3.23 5.04,-5.23 1.27,-1.96 2.03,-3.99 2.31,-6.08 0.22,-2.08 -0.06,-4.09 -0.94,-6.07 -0.87,-1.98 -2.48,-3.73 -4.82,-5.21l0 0zm-27.58 66.98c-0.34,2.31 -1.39,4.18 -3.24,5.65 -1.85,1.48 -3.87,2.42 -6.03,2.86 -2.16,0.39 -4.12,0.18 -5.91,-0.61 -1.8,-0.85 -2.75,-2.51 -2.88,-5.02 -0.5,-10.59 -0.74,-21.6 -0.74,-32.98l0 -33.97c-1.64,-0.52 -2.91,-1.37 -3.7,-2.48 -0.84,-1.11 -1.32,-2.32 -1.48,-3.65 -0.16,-1.37 0.03,-2.72 0.52,-4.12 0.56,-1.37 1.31,-2.56 2.37,-3.58 1.1,-1.12 2.63,-2.11 4.56,-3.02 1.98,-0.95 4.12,-1.79 6.41,-2.56 2.3,-0.77 4.61,-1.48 6.88,-2 2.24,-0.56 4.13,-0.99 5.69,-1.27 6.48,-1.22 12.97,-1.16 19.56,0.07 6.56,1.25 12.32,3.49 17.31,6.69 4.99,3.25 8.71,7.44 11.17,12.62 2.46,5.19 2.73,11.07 0.77,17.72 -0.61,1.83 -1.36,3.67 -2.29,5.53 -0.94,1.81 -2.01,3.54 -3.22,5.11 -1.75,2.38 -3.81,4.52 -6.19,6.34 -2.37,1.85 -4.94,3.58 -7.7,5.13 1.94,1.85 3.82,3.78 5.54,5.8 1.77,2.04 3.7,3.86 5.86,5.55 0.82,0.64 2.03,1.65 3.62,3.02 1.59,1.39 3.17,2.87 4.63,4.46 1.47,1.56 2.79,3.09 3.93,4.62 1.11,1.51 1.64,2.77 1.53,3.8 -0.11,1.75 -0.63,3.35 -1.62,4.76 -0.97,1.45 -2.16,2.53 -3.53,3.32 -1.38,0.79 -2.9,1.19 -4.54,1.19 -1.64,0 -3.28,-0.53 -4.95,-1.53 -1.85,-1.3 -3.59,-2.8 -5.23,-4.57 -1.66,-1.74 -3.24,-3.38 -4.78,-4.83 -3.37,-3.33 -6.68,-6.66 -9.91,-10.02 -3.23,-3.37 -6.56,-6.67 -9.97,-9.92 -2.04,0.4 -4.12,0.66 -6.23,0.79 -2.09,0.13 -4.17,0.29 -6.21,0.48l0 19.64 0 0.98 0 0z"/>
   </g>
   <path id="path38" fill="#AAE000" fill-rule="nonzero" d="M-1207.81 1449.38c2.46,0.85 4.33,1.96 5.67,3.44 1.38,1.48 2.06,3.01 2.17,4.62 0.05,1.64 -0.47,3.2 -1.66,4.73 -1.17,1.52 -3.04,2.77 -5.66,3.7 -1,0.4 -2.4,0.62 -4.25,0.84 -1.84,0.18 -4.41,0.42 -7.66,0.66 -3.27,0.26 -7.42,0.6 -12.46,1 -5.02,0.37 -11.19,0.95 -18.54,1.61 -1.82,0.24 -3.73,0.43 -5.67,0.58 -1.97,0.16 -3.7,-0.31 -5.21,-1.4 -1.32,-0.81 -2.33,-2.14 -3.04,-4.01 -0.71,-1.85 -1.22,-3.8 -1.53,-5.86 -0.32,-2.06 -0.53,-4.15 -0.66,-6.24 -0.11,-2.05 -0.21,-3.77 -0.32,-5.16 -0.21,-2.76 -0.45,-5.93 -0.68,-9.51 -0.23,-3.57 -0.49,-7.27 -0.69,-11 -0.27,-3.71 -0.53,-7.37 -0.81,-10.95 -0.27,-3.57 -0.54,-6.76 -0.75,-9.51 -0.37,-4.89 -0.63,-8.83 -0.77,-11.81 -0.13,-3 -0.1,-5.36 0.14,-7.08 0.21,-1.73 0.68,-3.03 1.45,-3.85 0.76,-0.84 1.85,-1.61 3.25,-2.31 1.16,-0.54 2.51,-0.8 4.01,-0.75 1.51,0 2.88,0.26 4.23,0.73 1.32,0.51 2.45,1.25 3.44,2.25 0.91,0.98 1.45,2.12 1.54,3.38 1.12,11.04 1.97,21.97 2.62,32.83 0.64,10.88 1.41,21.7 2.24,32.56 6.45,-0.53 12.9,-1.06 19.29,-1.71 6.36,-0.64 12.83,-1.3 19.35,-2.01l0.96 0.23z"/>
   <g>
    <path id="path42" fill="#3B3E8A" fill-rule="nonzero" d="M-1059.53 1353.8c0,-5.25 4.27,-9.13 9.31,-9.13 4.98,0 9.25,3.88 9.25,9.13 0,5.3 -4.27,9.19 -9.25,9.19 -5.04,0 -9.31,-3.89 -9.31,-9.19l0 0zm9.31 7.66c4.14,0 7.41,-3.25 7.41,-7.66 0,-4.34 -3.27,-7.61 -7.41,-7.61 -4.2,0 -7.47,3.28 -7.47,7.61 0,4.41 3.27,7.66 7.47,7.66l0 0zm-1.94 -2.36l-1.6 0 0 -10.55 4.03 0c2.48,0 3.72,0.92 3.72,3 0,1.88 -1.18,2.71 -2.74,2.91l3.01 4.64 -1.79 0 -2.79 -4.58 -1.84 0 0 4.58 0 0zm1.91 -5.93c1.36,0 2.57,-0.1 2.57,-1.73 0,-1.3 -1.19,-1.55 -2.31,-1.55l-2.17 0 0 3.28 1.91 0z"/>
   </g>
   <g>
    <path id="path46" fill="#3B3E8A" fill-rule="nonzero" d="M-1415.34 1361.11l-25.17 0 -3.36 -75.8 -32.73 75.8 -16.77 0 -14 -68.53 -21.81 68.53 -42.8 0 -6.44 -36.64 -29.09 0 -16.5 36.64 -26.3 0 53.99 -122.51 31.05 0 16.51 99.01 32.17 -99.01 24.89 0 12.31 67.12 28.54 -67.12 30.21 0 5.3 122.51 0 0zm-166.86 -60.41l-4.61 -23.79 -10.63 23.79 15.24 0z"/>
   </g>
   <polygon id="path50" fill="#3B3E8A" fill-rule="nonzero" points="-1343.16,1361.11 -1338.96,1334.82 -1382.88,1334.82 -1379.4,1313.01 -1341.2,1313.01 -1337,1286.71 -1375.61,1286.71 -1372.25,1264.89 -1328.34,1264.89 -1324.14,1238.59 -1393.79,1238.59 -1413.38,1361.11 "/>
   <polygon id="path54" fill="#3B3E8A" fill-rule="nonzero" points="-1016.16,1238.59 -1045.53,1238.59 -1070.42,1278.59 -1086.09,1238.59 -1114.9,1238.59 -1085.25,1303.21 -1094.38,1361.11 -1069.21,1361.11 -1061.48,1309.92 "/>
   <g>
    <path id="path58" fill="#3B3E8A" fill-rule="nonzero" d="M-1203.74 1289.31c7.81,-33.86 36.76,-56.1 64.67,-49.65 27.9,6.44 44.18,39.13 36.36,72.99 -7.82,33.88 -36.77,56.11 -64.67,49.66 -27.9,-6.44 -44.18,-39.12 -36.36,-73l0 0zm38.11 48.48c13.31,5.96 29.62,-5.74 36.4,-26.11 6.79,-20.38 1.51,-41.74 -11.81,-47.7 -13.31,-5.96 -29.61,5.73 -36.41,26.12 -6.79,20.38 -1.5,41.72 11.82,47.69z"/>
   </g>
   <path id="path62" fill="#3B3E8A" fill-rule="nonzero" d="M-1704.02 1249.51c-23.98,14.84 -35.52,37.48 -32.44,68.24 3.56,35.7 49.79,58.19 88.95,35.54 3.42,-1.99 2.09,-1.67 3.36,-2.81l7.83 -49.78 -46.71 0 -3.58 22.93 19.52 0 -2.24 12.31c-11.18,4.48 -30.21,2.8 -38.33,-11.75 -5.13,-9.21 -9.89,-29.77 11.76,-48.67 17.62,-15.39 48.11,-18.18 65.73,-10.06 0,0 2.25,-12.88 3.92,-24.91 -33.84,-11.74 -60.14,-1.96 -77.77,8.96z"/>
   <g>
    <path id="path66" fill="#3B3E8A" fill-rule="nonzero" d="M-1264.17 1265.1l16.38 0c17.76,0 14.15,22.76 -2.78,22.76l-17.49 0 3.89 -22.76 0 0zm-7.77 47.75l21.09 0c19.99,0 19.45,24.43 -2.77,24.43l-22.21 0 3.89 -24.43 0 0zm-13.88 -73.56l-19.44 121.59 56.63 0c23.33,0 57.43,-34.38 26.38,-62.47 31.92,-33.03 0.28,-58.85 -16.65,-59.12 -13.61,-0.23 -47.2,0 -47.2,0l0.28 0 0 0zm0 0l0 0 0 0z"/>
   </g>
   <polygon fill="#2E3192" fill-rule="nonzero" points="-762.54,1276.58 -795.46,1276.58 -795.46,1316.06 -860.66,1316.06 -860.66,1356.32 -926.17,1356.32 -926.17,1393.07 -762.54,1393.07 -762.54,1434.51 -989.75,1434.51 -989.75,1357.11 -957.16,1357.11 -957.16,1318.4 -891.64,1318.4 -891.64,1278.14 -826.12,1278.14 -826.12,1196.83 -926.17,1196.83 -926.17,1236.31 -989.75,1236.31 -989.75,1199.17 -957.16,1199.17 -957.16,1159.69 -795.46,1159.69 -795.46,1199.17 -762.54,1199.17 "/>
   <path fill="#2E3192" fill-rule="nonzero" d="M-960.36 1463.52l-4.22 0 0 5.11 -16.95 0 0 10.26 -8.19 0 0 -35.55 25.14 0 0 5.11 4.22 0 0 15.07zm-8.44 0l0 -15.07 -12.48 0 0 15.07 12.48 0zm41.8 15.37l-29.35 0 0 -35.55 8.22 0 0 30.75 21.13 0 0 4.8zm33.37 0l-8.23 0 0 -10.26 -12.94 0 0 10.26 -8.19 0 0 -20.23 4.22 0 0 -10.21 4.22 0 0 -5.11 12.48 0 0 5.11 4.22 0 0 10.26 4.22 0 0 20.18zm-8.44 -15.37l0 -9.97 -4.26 0 0 -5.1 -3.96 0 0 5.1 -4.26 0 0 9.97 12.48 0zm41.8 -10.27l-4.22 0 0 10.27 -4.25 0 0 15.37 -12.45 0 0 -15.37 -4.22 0 0 -10.27 -4.21 0 0 -9.91 8.22 0 0 10.26 4.22 0 0 5.11 4.47 -0.05 0 -5.11 4.26 0 0 -10.21 8.18 0 0 9.91zm33.37 25.64l-29.36 0 0 -35.55 29.36 0 0 4.8 -21.13 0 0 10.57 16.91 0 0 4.81 -16.91 0 0 10.57 21.13 0 0 4.8zm33.36 -15.37l-4.22 0 0 10.57 4.22 0 0 4.8 -8.22 0 0 -5.15 -4.22 0 0 -5.11 -8.73 0 0 10.26 -8.18 0 0 -35.55 25.13 0 0 5.11 4.22 0 0 15.07zm-8.43 0l0 -15.07 -12.49 0 0 15.07 12.49 0zm41.8 10.22l-4.22 0 0 5.15 -20.92 0 0 -5.15 -4.22 0 0 -4.81 8.23 0 0 5.16 12.9 0 0 -10.57 -16.91 0 0 -5.16 -4.22 0 0 -9.91 4.22 0 0 -5.11 20.92 0 0 5.11 4.22 0 0 4.8 -8.23 0 0 -5.11 -12.9 0 0 10.57 16.91 0 0 5.01 4.22 0 0 10.02z"/>
  </g>
 </g>
</svg>
