<svg xmlns="http://www.w3.org/2000/svg" width="400" height="267.56485">
  <defs>
    <clipPath id="a">
      <path d="M0 348.386h520.825V0H0v348.386z"/>
    </clipPath>
    <clipPath id="b">
      <path d="M19.073 205.947l1.339-30.125 485.333-8.032-1.339 21.422-132.546 98.001-121.166-93.316-119.157 95.727-112.464-83.677z"/>
    </clipPath>
    <clipPath id="c">
      <path d="M19.073 229.892l1.339-49.502 485.333-8.034-1.339 40.801-132.546 97.066-121.166-92.381-119.157 95.728-112.464-83.678z"/>
    </clipPath>
    <clipPath id="d">
      <path d="M0 348.386h520.825V0H0v348.386z"/>
    </clipPath>
  </defs>
  <g clip-path="url(#a)" transform="matrix(0.76801283,0,0,-0.76801283,0,267.56484)">
    <path d="M296.028 28.9589c-.137-.463-.252-1.507.369-2.604.606-1.068 1.513-1.501 1.969-1.625.877.17 1.516.656 1.892 1.094-.116.682-.419 1.348-.882 1.907-.735.885-1.847 1.433-2.903 1.433-.111 0-.205-.006-.279-.014-.048-.05-.104-.113-.166-.191m-88.819-9.511c.378-.243.757-.482 1.136-.716-.026.161-.048.324-.066.489l-.231.036c-.138.022-.435.075-.839.191m44.046 1.592c1.51 0 3.615-.539 5.56-2.908.032.279.062.561.083.849.015.209.028.418.028.631v8.207l4.257-2.651c-.425.916-.666 1.681-.802 2.258-.813 2.095-.313 3.661.291 4.639.87 1.406 2.388 2.247 4.061 2.247 3.2 0 6.095-3.414 6.642-4.099.705-.881 3.501-2.881 5.477-3.304 2.699-.579 4.584-1.665 5.644-3.242.597.531 1.231 1.024 1.893 1.44 2.46 1.549 4.867 2.162 7.026 1.808.355 1.959 1.322 6.493 5.854 6.851.416.032.794.047 1.136.047 3.511 0 5.161-1.615 5.926-2.97 1.667-2.951-.032-5.772-.672-6.834l-.048-.079c-1.325-2.21-4.49-3.729-6.796-3.87-.015-.158-.034-.319-.059-.48.898.336 1.664.551 2.339.739 1.211.339 1.764.494 2.797 1.281 2.236 1.704 3.48 3.761 3.492 3.781l.439.733.692.554c1.014.789 3.669 2.623 6.422 2.623.324 0 .643-.024.954-.072l-.108.879 5.34-.189c.95-.033 1.941-.021 3.095-.008.52.006 1.072.012 1.665.016l2.139.012 1.376-1.638c.662-.789 1.336-1.52 2.006-2.184-.2 2.575-.433 5.344-.674 7.737l-.13 1.287.566 1.164c.536 1.102.953 2.419 1.321 3.58.218.686.423 1.333.649 1.937.094.248.172.5.25.763l3.201 10.786 1.66-3.179c1.68 3.712 5.462 8.398 11.917 8.398.566 0 1.145-.037 1.728-.11l-.78.886-.055 1.63c-.012.327-.037.584-.082.831l-.044.241c-.693 3.795-.936 6.183 2.102 11.119 1.256 2.04 1.776 4.928 2.379 8.271.25 1.384.508 2.815.839 4.306.94 4.234 2.548 6.701 3.839 8.683.564.865 1.05 1.612 1.412 2.407.553 1.252.257 6.009.098 8.564-.112 1.782-.216 3.466-.216 4.983 0 3.716-1.449 10.277-2.429 13.541-.19.633-.57 1.52-.973 2.46-.91 2.123-2.043 4.765-2.501 7.81l-1.638 10.86 52.956-38.977 2.764 2.259-.117.086 12.484 10.677 8.786-17.203 23.759 16.818v-44.336l-3.181 2.39-1.842-2.659 21.411-16.059c.282-.213 23.973-18.115 30.227-22.832l3.857 2.761 3.676 2.697 4.842 3.487-6.567 29.959v255.305l3.278 9.836h-47.659l-31.575-22.238-8.659 22.238h-53.457l-10.452-5.977-5.773 5.977h-76.922l-18.846-19.241h-4.188l-20.071 19.241h-76.916l-18.318-20.31-7.434 4.709-.151.153-25.511 15.448H11.838l8.152-10.429V71.6109l-7.491-17.97 7.656-5.881-.144-.405c1.174-.91 2.799-2.095 4.393-3.21l122.316 97.208 6.182-4.936-.463-2.658c-.497-2.859-1.569-5.358-2.431-7.367-.403-.939-.784-1.827-.973-2.46-.98-3.264-2.429-9.825-2.429-13.541 0-1.517-.105-3.2-.216-4.983-.159-2.555-.455-7.311.099-8.564.361-.796.848-1.543 1.411-2.407 1.291-1.982 2.899-4.449 3.84-8.683.331-1.491.589-2.923.838-4.307.604-3.343 1.124-6.231 2.379-8.27 3.038-4.937 2.794-7.325 2.102-11.12l-.043-.237c-.12-.657-.122-1.21-.008-1.559l.782-2.379-.86-1.048c.596.077 1.188.116 1.766.116 6.456 0 10.239-4.688 11.918-8.401l1.277 2.446 3.61-11.119c.539-1.702 1.277-4.035 2.33-5.133l1.471-1.538-.234-2.116c-.24-2.175-.452-4.434-.618-6.59.056-.124.115-.252.171-.374 1.24 1.42 2.265 2.962 2.775 3.729l1.36 2.045 2.783-.012c2.157 0 3.606.113 6.004.752.516.137 1.01.31 1.51.529l5.931 2.594.442-6.459c.004-.056.129-1.451 1.592-3.068.177-.196.379-.401.601-.612-1.04 1.496-1.427 2.849-1.65 4.407-.348 2.441 1.011 4.758 3.552 6.079.582.319 1.512.683 2.714.683 1.445 0 4.171-.554 6.185-4.272.71-1.311 1.082-2.614 1.216-3.832 2.031.268 4.1.068 5.914-.538l5.33.409c.595.046 1.673.123 2.205.123l.282-.004c.121-.002.284-.005.473-.005.389 0 .67.014.864.03.231.218.53.513.79.768.94.926 2.227 2.195 3.981 3.635 2.369 1.946 4.528 2.892 6.6 2.892 1.411 0 2.409-.447 2.998-.822l2.407-1.532-.326-2.835c-.258-2.236-1.19-3.981-2.19-5.347.107.004.213.006.322.006l.217-.003c.487-.015.937-.069 1.377-.165l2.609-.573.752-2.48c.737.414 1.755.793 3.014.793m21.61-6.937c.071-.147.139-.295.205-.444l.292.326c-.166.036-.332.074-.497.118m-6.12-14.103c-.39 0-.812.008-1.274.025-4.425.158-6.193 1.977-7.319 3.76-1.803 1.132-4.195 3.168-6.252 5.647-.926-1.976-2.35-3.865-4.102-5.385-2.578-2.233-3.614-2.704-6.086-3.27l-.243-.057c-.948-.218-1.891-.414-3.01-.414-1.359 0-2.648.282-4.457.713-2.254.537-3.905 1.663-5.065 2.794-1.588-.231-3.702-.442-6.11-.442-3.682 0-5.155.256-7.198 1.858-.301.236-.561.44-1.115.745-1.168.642-2.419 1.069-3.743 1.522-1.458.498-2.966 1.014-4.447 1.847-1.972 1.109-8.666 5.019-12.066 8.777-1 1.106-1.748 2.21-2.306 3.248-1.578-.328-2.944-.485-4.342-.552-2.91-4.028-6.55-7.802-11.54-8.682l-5.091-.899-.253 5.165c-.007.131-.052 1.182.04 2.996-.09.198-.188.408-.268.579-.846 1.819-1.312 2.82-1.213 4.205.141 1.956.32 4.017.526 6.051-.824 1.225-1.442 2.533-1.935 3.793-.52-.025-1.03-.038-1.531-.038-11.289 0-16.71 6.291-20.171 11.771-1.522 2.409-3.176 7.329 1.669 14.248-.081 1.095-.013 2.246.205 3.444l.044.244c.457 2.505.457 2.505-.897 4.706-2.158 3.507-2.884 7.535-3.587 11.43-.233 1.295-.475 2.635-.767 3.948-.582 2.621-1.507 4.04-2.578 5.684-.669 1.026-1.426 2.188-2.072 3.611-1.497 3.292-1.192 8.178-.898 12.903.102 1.637.198 3.182.198 4.416 0 4.318 1.222 10.091 2.135 13.681L28.373 35.6569l-.166-.106-1.148-.821-.755.016c-1.166-.307-2.421-.282-3.57.069l-.868.018-1.119.761c-.094.063-2.308 1.571-4.528 3.206-2.049 1.509-3.875 2.854-4.977 4.312l-5.233 4.02c-.207.123-.408.258-.602.404-1.727 1.327-2.685 3.338-2.614 5.428.015 1.091.303 2.151.837 3.093l7.244 17.377v252.269l-9.486 12.137c-1.547 1.991-1.821 4.624-.721 6.879 1.076 2.223 3.38 3.667 5.865 3.667h96.436c1.185 0 2.349-.323 3.369-.937l26.418-15.997c.283-.174.545-.362.79-.564l.176-.112 13.94 15.455c1.245 1.374 3.008 2.155 4.845 2.155h79.112c1.729 0 3.407-.698 4.624-1.922l16.361-15.684 15.226 15.545c1.233 1.311 2.961 2.061 4.76 2.061h79.112c1.745 0 3.384-.679 4.616-1.913l.054-.055 1.634-1.691 4.09 2.339c1.129.856 2.504 1.32 3.936 1.32h56.023c2.673 0 5.118-1.674 6.084-4.165l5.074-13.032 20.621 14.524c1.21 1.647 3.16 2.673 5.265 2.673h52.671c2.095 0 4.076-1.015 5.299-2.717 1.225-1.704 1.556-3.908.885-5.893l-3.94-11.82V75.1169l6.404-29.213c.209-.621.322-1.269.338-1.931.352-2.386-.646-4.811-2.643-6.248l-1.184-.853.016-.011-4.96-3.616-8.22-5.884c-.818-.655-1.623-1.13-2.459-1.449l-.21-.076c-.703-.243-1.418-.366-2.127-.366h-.001c-1.357 0-2.65.448-3.842 1.331-1.109.825-30.494 23.03-31.745 23.975l-23.39 17.544c-2.817 2.108-3.457 6.034-1.452 8.934l4.697 6.782v8.699l.125-.095v8.398c-.057-.019-.114-.038-.171-.056l-11.647-8.246c-1.525-1.078-3.473-1.453-5.298-1.02-1.874.462-3.422 1.689-4.285 3.375l-4.772 9.346-8.114-6.631c-1.172-.982-2.658-1.523-4.191-1.523-1.405 0-2.743.441-3.872 1.274l-34.34 25.274c.858-3.585 1.829-8.591 1.829-12.44 0-1.234.096-2.78.198-4.416.295-4.725.599-9.61-.897-12.903-.647-1.423-1.404-2.585-2.072-3.61-1.072-1.645-1.997-3.064-2.579-5.685-.291-1.312-.533-2.651-.767-3.947-.702-3.895-1.429-7.924-3.586-11.43-1.355-2.202-1.355-2.202-.898-4.706l.045-.244c.028-.157.054-.315.077-.475 6.047-7.582 4.313-12.98 2.667-15.587-3.461-5.48-8.882-11.771-20.171-11.771-.589 0-1.193.018-1.809.053-.228-.677-.486-1.396-.789-2.126.64-6.712 1.176-15.163 1.2-15.541l.365-5.781-5.705 1.006c-4.504.795-8.571 4.043-11.585 7.213l-1.168-1.321-2.103-.025c-.922 0-3.986.517-5.89.963-.12-.064-.254-.141-.387-.224-.863-1.251-2.608-3.487-5.229-5.485-2.422-1.845-4.331-2.379-5.865-2.808-.957-.268-1.784-.499-2.948-1.105-2.068-1.074-3.019-1.956-3.269-2.209l-.69-1.14-1.088-.262c-.974-.436-5.943-2.64-8.18-3.279-.693-.198-1.476-.294-2.394-.294-1.929 0-4.566.458-6.495.855-.441-.384-.95-.806-1.524-1.247l-.207-.16c-2.112-1.631-3.81-2.7-8.011-2.7"/>
    <path fill="#d37112" d="M516.1857 43.5814c.01.076.013.158.013.238 0 .283-.057.55-.165.795l-6.578 30.009v254.072l4.18 12.541c.202.599.1 1.26-.27 1.773-.37.515-.965.819-1.597.819h-52.671c-.822 0-1.558-.511-1.843-1.28l-26.178-18.438-7.189 18.463c-.293.756-1.023 1.255-1.834 1.255h-56.023c-.507 0-.986-.196-1.344-.53l-7.497-4.288-4.097 4.242c-.369.369-.868.576-1.392.576h-79.112c-.557 0-1.088-.239-1.461-.649l-18.211-18.592h-.44l-19.438 18.634c-.37.388-.885.607-1.421.607h-79.111c-.559 0-1.089-.239-1.462-.649l-16.514-18.311-3.741 2.369c-.117.119-.247.225-.395.316l-26.407 15.99c-.307.185-.66.285-1.02.285H6.5317c-.753 0-1.441-.43-1.768-1.107-.331-.678-.246-1.481.216-2.075l10.452-13.374v-254.75l-7.73-18.542-.057-.088c-.203-.319-.298-.679-.295-1.039-.036-.638.264-1.265.799-1.677.113-.084.232-.158.357-.215l14.93-11.468c.714-.551 1.717-.546 2.425.019l120.978 96.145 45.335-36.206c.667-.535 1.603-.573 2.316-.103l57.976 38.396 50.726-38.326c.693-.525 1.65-.53 2.346-.02l50.71 36.986 47.593-35.029c.735-.542 1.752-.506 2.446.088l12.214 10.442 7.516-14.718c.26-.51.729-.881 1.282-1.018.555-.132 1.142-.024 1.61.307l12.408 8.785c.774.033 1.461.514 1.749 1.237l4.852 3.434v-27.169l-5.505-7.95c-.603-.871-.41-2.062.438-2.697l23.403-17.554 31.587-24.08c.351-.27.773-.404 1.194-.404.405 0 .806.123 1.15.372l15.264 10.993c.689.496.971 1.368.737 2.158"/>
    <path fill="#cf5517" d="M25.7352 39.3815l120.978 96.145 45.335-36.206c.667-.534 1.603-.573 2.316-.103l57.975 38.396 50.727-38.325c.693-.525 1.65-.531 2.346-.021l50.71 36.986 47.593-35.029c.735-.542 1.752-.506 2.446.088l8.845 7.228-53.663 39.335-57.33-41.128-51.674 40.925-58.995-41.683-51.985 40.474-126.587-100.248c-.708-.565 8.538-6.853 8.538-6.853l2.33-.044c.031.022.065.039.095.063m483.5965-2.4305l-43.204 32.903-18.336 13.753v-.995l-5.505-7.949c-.602-.872-.41-2.062.439-2.697l23.402-17.554s30.61-23.13 31.713-23.95c.661-.491 1.465-.872 3.157.524l8.334 5.965z"/>
    <path fill="#b26216" d="M382.1942 233.4656l-1.433 54.97-.241 15.645h41.421l19.955-56.238 21.907 56.238h41.861v-171.252l-124.436 95.84.966 4.797zM205.287 176.6561l-4.254 118.912-21.165.988-1.17-99.534-38.853 29.759.06 4.147v55.393l15.645 17.759h74.843l16.491-17.759.423-124.962-9.925-6.552-32.095 21.849zm94.8473 0l.456 119.238 21.165.987 2.689-99.859 41.132 29.759-.06 4.147v55.393l-15.645 17.759h-74.843l-16.491-17.759-.423-124.962 8.283-7.669 33.737 22.966zM128.9108 235.157l-42.53-32.722-3.244 94.251-21.347-.423-2.214-114.451-38.49-29.613 2.114 141.733-1.551 9.919 81.469.23 23.679-14.8 1.268-47.781.846-6.343z"/>
    <path fill="#8f5014" d="M382.1942 257.4449l-1.433 54.97.62 15.645h40.56l19.955-56.238 21.907 56.238h41.861v-171.252l-124.436 95.84.966 4.797zM248.1527 167.802l-42.866 32.833-3.684 95.883-21.165.988-1.74-76.505-38.852 29.76.059 4.147V310.3l15.645 17.76h74.844l16.491-17.76.422-138.27.846-4.228zm9.1158 0l42.866 32.833-.493 97.022 21.165.988 3.638-77.644 41.131 29.76-.059 4.147V310.3l-15.645 17.76h-74.844l-16.49-17.76-.423-138.27-.846-4.228zm-128.3577 91.3342l-42.53-32.722-4.004 72.863-21.347-.423-1.454-93.063-38.49-29.613 2.114 141.733.837 10.296 79.081-.147 23.679-14.8 1.268-47.781.846-6.343z"/>
    <path fill="#306692" d="M382.1942 268.2108l-1.433 54.97-5.755 15.645h46.935l19.955-56.238 21.907 56.238h41.861v-171.252l-124.436 95.84.966 4.797zm-134.0415-89.6429l-42.866 32.833-2.355 83.729-21.165.988-3.069-64.351-38.852 29.76.059 4.147v55.392l15.645 17.76h74.844l16.491-17.76.422-138.27.846-4.228zm9.1158 0l42.866 32.833 2.355 83.729 21.165.988.79-64.351 41.131 29.76-.059 4.147v55.392l-15.645 17.76h-74.844l-16.49-17.76-.423-138.27-.846-4.228zm-128.3577 91.3343l-42.53-32.722-3.434 59.19-21.347-.423-2.024-79.39-38.49-29.613 2.114 141.733-8.034 10.149h87.952l23.679-14.8 1.268-47.781.846-6.343z"/>
  </g>
  <g clip-path="url(#b)" transform="matrix(0.76801283,0,0,-0.76801283,0,267.56484)">
    <path fill="#3d80b8" d="M382.1942 268.2108l-1.433 54.97-5.755 15.645h46.935l19.955-56.238 21.907 56.238h41.861v-171.252l-124.436 95.84.966 4.797zm-134.0415-89.6429l-42.866 32.833-2.355 83.729-21.165.988-3.069-64.351-38.852 29.76.059 4.147v55.392l15.645 17.76h74.844l16.491-17.76.422-138.27.846-4.228zm9.1158 0l42.866 32.833 2.355 83.729 21.165.988.79-64.351 41.131 29.76-.059 4.147v55.392l-15.645 17.76h-74.844l-16.49-17.76-.423-138.27-.846-4.228zm-128.3577 91.3343l-42.53-32.722-3.434 59.19-21.347-.423-2.024-79.39-38.49-29.613 2.114 141.733-8.034 10.149h87.952l23.679-14.8 1.268-47.781.846-6.343z"/>
  </g>
  <g clip-path="url(#c)" transform="matrix(0.76801283,0,0,-0.76801283,0,267.56484)">
    <path fill="#33709f" d="M382.1942 284.8354l-1.433 54.97 61.135-40.593 63.768-40.564v-74.45l-124.436 95.84.966 4.797zm-134.0415-89.6429l-42.866 32.833-2.355 83.729-21.165.988-3.069-64.351-38.852 29.76.059 4.147v35.692l107.04.003.362-118.573.846-4.228zm9.1158 0l42.866 32.833 2.355 83.729 21.165.988.79-64.351 41.131 29.76-.059 4.147v37.176l-107.041-1.979-.361-118.075-.846-4.228zm-128.3577 91.3343l-42.53-32.722-3.434 59.19-21.347-.423-2.024-79.39-38.49-29.613 1.773 118.87 104.5-2.955.706-26.614.846-6.343z"/>
  </g>
  <g clip-path="url(#d)" transform="matrix(0.76801283,0,0,-0.76801283,0,267.56484)">
    <path fill="#f7c657" d="M63.6201 168.5891v124.286h16.12v-112.125l-16.12-12.161zm23.578 131.744h-31.035v-146.722l31.035 23.778v122.944z"/>
    <path fill="#f7c657" d="M100.8644 334.4023l21.107-12.863v-169.329l-97.059-77.785v256.284l-2.872 3.693h78.824zm-94.279 7.457l10.87-13.911V72.1273l-8.094-19.416 120.066 96.202v176.955l-26.406 15.991H6.5854zm222.0445-7.457l13.627-14.417v-156.464l-54.29-40.039-45.231 36.121v160.184l12.991 14.615h72.903zm-76.07 7.457l-17.281-19.16v-166.396l52.587-42.003 61.849 45.114v163.611l-18.044 18.834h-79.111z"/>
    <path fill="#f7c657" d="M183.2048 188.0762v104.448h16.12v-118.022l-16.12 13.574zm23.578 111.905h-31.035v-115.134l31.035-26.602v141.736zm96.5046-125.4794v118.022h16.12v-104.448l-16.12-13.574zm23.578 125.479h-31.034v-141.736l31.034 26.603v115.133z"/>
    <path fill="#f7c657" d="M348.7124 334.4023l13.629-13.629v-157.252l-54.291-40.039-45.232 38.878v157.427l12.991 14.615h72.903zm-76.07 7.457l-17.281-19.16v-163.639l52.587-44.76 61.849 45.114v164.4l-18.043 18.045h-79.112z"/>
    <path fill="#f7c657" d="M470.9441 94.3384v123.524l-28.828-86.589-30.712 124.019v-125.435l-28.462 21.272.375.374v177.324l-3.392 5.575h37.027l24.263-62.343 23.142 62.343h37.073l-1.347-4.049v-256.86l2.716-11.833-15.049 10.944-20.999 15.748 4.193 5.986zm36.596-19.928v254.604l4.283 12.845h-52.671l-18.029-48.852-19.016 48.852h-56.022l9.775-14.876v-172.307l-4.765-3.808 47.766-35.925v79.772l22.43-87.507 22.195 68.631v-78.857l-7.065-10.201 26.868-20.151 30.956-22.811-6.705 30.591z"/>
    <path fill="#8f5014" d="M59.7148 295.8193l23.652-20.696-.42 21.247-23.232-.551zm119.4445 0l23.652-20.696-.42 21.247-23.232-.551zm144.1222 0l-23.652-20.696.42 21.247 23.232-.551z"/>
    <path fill="#cf5517" d="M369.7974 293.6236v30.16l-7.657-2.809.201-.201v-32.419l7.456 5.269zm-3.6674 48.1671l9.73-14.807v-32.468l7.457-5.7v40.012l-3.392 5.575h.066l-13.861 7.388zm135.3001-7.3884l-1.347-4.049v-130.776l7.457-5.699v135.136l4.283 12.845h-.053l-10.634-7.457h.294zM262.8187 218.0286v101.652l-7.456 3.02-.001-.001v-109.941l7.457 5.27zm33.0122 81.9524v-58.625l7.456 5.269v45.899h16.121v-34.508l7.458 5.271v36.694h-31.035zm-153.0948-10.816v30.595l-7.428 2.971-.029-.032V294.57l7.457-5.405zm-13.3082 36.7031l-7.456-4.329v-31.285l7.456 5.121v30.493zm-73.265-25.5354v-55.274l7.457 5.121v42.696h16.121v-31.624l7.457 5.121v33.96h-31.035zm193.552 22.7475l-7.458-3.094v-102.959l7.458-5.406v111.459zm-73.9672-23.0992v-34.745l7.457-5.405v32.693h16.12v-44.377l7.458-5.406v57.24h-31.035zM24.9121 223.5963v107.113l-2.869 3.691-15.403 7.459h-.054l10.87-13.911v-109.473l7.456 5.121z"/>
    <path fill="#ec8b32" d="M369.7974 297.7957l-7.456-5.486v-37.541l7.456 5.625v37.402zm-114.436-123.7325l7.457 5.626v39.401l-7.457-5.486v-39.541zm244.7214 30.9765v-39.571l7.457-5.625v39.588l-7.457 5.608zm-116.766 87.8142l-7.457 5.608v-39.293l7.457-5.625v39.31zm-200.112-66.0231v35.867l-7.457 5.515v-35.467l7.457-5.915zm120.0825-16.6121v38.645l-7.456-5.486v-38.784l7.456 5.625zm16.1205 50.5049v-38.344l7.458 5.627v38.204l-7.458-5.487zm-120.0834-9.9469v-36.732l7.458-5.916v37.132l-7.458 5.516zM24.9121 186.2585v37.943l-7.456-5.268v-38.32l7.456 5.645zm110.3669 78.5873l7.457-5.915v33.696l-7.457 5.515v-33.296zm-5.8511 33.1903l-7.456-5.268v-33.033l7.456 5.644v32.657zm-49.6873-35.1015v-35.17l7.457 5.646v34.792l-7.457-5.268zm-16.1205-47.3732v35.985l-7.457-5.268v-36.362l7.457 5.645zm186.0948-2.0511l-7.458 5.515v-39.035l7.458-5.916v39.436z"/>
    <path fill="#5a9bd2" d="M369.7974 323.5154v.299l-18.043 18.045h-79.112l-17.281-19.16 7.457-2.912 12.991 14.615h72.903l13.629-13.629v-.155l7.456 2.897zM6.5858 341.8596l15.455-7.457h78.824l21.107-12.863v-.029l7.456 4.358-26.406 15.991H6.5858zm434.5376-48.8518l-19.016 48.852h-56.023l13.84-7.457h37.027l24.263-62.344 23.142 62.344h37.074l10.392 7.457h-52.671l-18.028-48.852zm-288.5632 48.8518l-17.281-19.16 7.457-2.913 12.991 14.616h72.903l13.627-14.417 7.458 3.04-18.044 18.834h-79.111z"/>
    <path d="M296.028 28.9589c-.137-.464-.252-1.507.369-2.604.606-1.068 1.513-1.501 1.969-1.625.877.17 1.516.656 1.892 1.094-.116.682-.419 1.348-.882 1.907-.735.885-1.847 1.433-2.903 1.433-.111 0-.205-.006-.279-.014-.048-.05-.104-.114-.166-.191m-88.819-9.511c.378-.243.757-.482 1.136-.716-.026.161-.048.324-.066.489l-.231.036c-.138.022-.435.075-.839.191m44.046 1.592c1.51 0 3.615-.539 5.56-2.908.032.279.062.561.083.849.015.209.028.418.028.631v8.207l4.257-2.651c-.425.917-.666 1.681-.802 2.258-.813 2.095-.313 3.661.291 4.639.87 1.406 2.388 2.247 4.061 2.247 3.2 0 6.095-3.415 6.642-4.099.705-.881 3.501-2.881 5.477-3.304 2.698-.579 4.584-1.665 5.644-3.243.597.532 1.231 1.024 1.893 1.441 2.46 1.549 4.867 2.162 7.026 1.808.355 1.959 1.322 6.493 5.855 6.851.415.032.793.047 1.135.047 3.511 0 5.16-1.615 5.926-2.97 1.667-2.951-.032-5.773-.672-6.835l-.048-.079c-1.325-2.209-4.49-3.728-6.796-3.869-.015-.158-.034-.319-.059-.48.898.336 1.664.551 2.339.739 1.211.339 1.764.494 2.797 1.281 2.236 1.704 3.48 3.761 3.492 3.781l.439.734.692.553c1.014.789 3.669 2.623 6.422 2.623.324 0 .643-.024.955-.072l-.109.879 5.341-.189c.946-.033 1.938-.021 3.092-.008.521.006 1.073.012 1.667.016l2.139.012 1.376-1.638c.662-.789 1.336-1.52 2.006-2.184-.2 2.575-.433 5.344-.674 7.737l-.13 1.287.566 1.164c.536 1.101.953 2.419 1.321 3.58.218.686.423 1.333.649 1.937.094.248.172.5.25.763l3.202 10.788 1.659-3.181c1.68 3.713 5.463 8.399 11.917 8.399.566 0 1.145-.038 1.728-.111l-.78.887-.055 1.629c-.012.327-.037.584-.082.831l-.044.241c-.693 3.795-.936 6.183 2.102 11.119 1.256 2.04 1.776 4.927 2.379 8.271.25 1.384.508 2.815.839 4.306.94 4.234 2.548 6.701 3.839 8.683.564.865 1.05 1.611 1.412 2.407.553 1.252.257 6.009.098 8.564-.112 1.782-.216 3.466-.216 4.983 0 3.716-1.45 10.277-2.429 13.541-.19.634-.571 1.522-.975 2.462-1.144 2.663-2.711 6.311-2.711 10.496 0 1.28.059 2.147.102 2.78.075 1.103.084 1.246-1.58 5.868-1.693 4.703-3.312 6.811-5.361 9.48-.808 1.052-1.643 2.139-2.551 3.46-1.447 2.104-2.037 2.551-2.785 3.115-.771.583-1.723 1.303-2.972 2.826l-3.438 3.438 3.989 3.179c2.36 1.882 5.034 4.196 7.864 6.646.308.266.611.53.907.789-4.109-1.788-7.627-3.337-8.795-3.885-.347-.162-.696-.332-1.047-.508l-4.413-2.22-1.811 4.462c-.74.312-2.308.692-3.604 1.006-1.041.252-2.221.538-3.49.891-1.198.333-2.066.589-2.815.833l-6.747 2.193 4.799 5.225c8.159 8.88 13.62 18.57 17.108 27.093-8.119-9.561-18.423-16.385-28.152-21.995l-3.216-1.854-2.466 2.774c-.216.242-.434.491-.653.746l-1.766 2.049.952 2.531c1.504 3.999 1.819 10.143 1.329 15.954-.04-.169-.082-.337-.126-.506-1.18-4.613-4.356-9.751-9.44-15.272l-1.517-1.647-2.23.194c-.666.057-1.368.086-2.146.086-1.623 0-3.275-.125-4.875-.247-1.557-.118-3.027-.229-4.447-.229-2.206 0-3.914.284-5.376.893-.939.391-2.051.961-3.459 1.683-4.038 2.071-10.795 5.538-16.046 5.538-5.251 0-12.008-3.467-16.046-5.538-1.408-.722-2.52-1.292-3.459-1.683-1.463-.61-3.175-.894-5.385-.894-1.418 0-2.886.11-4.439.227-1.596.12-3.245.244-4.864.244-.923 0-1.746-.04-2.518-.121l-2.276-.241-1.553 1.683c-5.112 5.541-8.304 10.696-9.488 15.323-.039.154-.077.306-.114.459-.494-5.991-.139-12.307 1.43-16.197l1.051-2.603-2.318-2.633-2.465-2.749-3.2 1.84c-9.86 5.667-20.299 12.561-28.495 22.213 3.502-8.567 9.001-18.316 17.226-27.236l4.879-5.292-6.87-2.148c-.672-.21-1.444-.435-2.384-.696-1.27-.353-2.45-.639-3.491-.891-1.296-.314-2.863-.694-3.604-1.006-.016-.04-.032-.08-.049-.12l-1.893-4.574-4.402 2.262c-.477.245-.951.48-1.417.698-1.168.548-4.687 2.097-8.797 3.886.296-.26.598-.524.906-.79 2.937-2.541 5.711-4.941 8.149-6.871l3.66-2.896-2.983-3.591c-1.204-1.448-2.133-2.152-2.881-2.719-.751-.569-1.344-1.019-2.793-3.127-.908-1.321-1.743-2.408-2.551-3.459-2.05-2.669-3.669-4.778-5.362-9.481-1.664-4.622-1.654-4.764-1.579-5.867.042-.634.101-1.501.101-2.781 0-4.186-1.567-7.833-2.711-10.496-.404-.941-.786-1.829-.975-2.461-.98-3.265-2.429-9.826-2.429-13.542 0-1.517-.105-3.2-.216-4.983-.159-2.555-.455-7.311.099-8.564.362-.796.848-1.543 1.411-2.407 1.291-1.983 2.899-4.449 3.839-8.683.332-1.491.59-2.923.84-4.307.603-3.343 1.123-6.231 2.379-8.27 3.037-4.937 2.793-7.325 2.101-11.12l-.043-.237c-.12-.657-.122-1.21-.008-1.559l.782-2.379-.86-1.048c.596.077 1.188.116 1.766.116 6.456 0 10.239-4.688 11.918-8.401l1.277 2.446 3.611-11.119c.539-1.702 1.276-4.035 2.329-5.133l1.471-1.538-.233-2.116c-.241-2.175-.453-4.434-.619-6.59.056-.124.115-.252.171-.374 1.24 1.42 2.265 2.962 2.775 3.729l1.36 2.045 2.784-.012c2.156 0 3.605.113 6.003.752.516.137 1.01.31 1.51.529l5.931 2.593.442-6.458c.004-.056.129-1.451 1.592-3.068.177-.196.379-.401.601-.612-1.04 1.496-1.427 2.849-1.65 4.407-.348 2.439 1.01 4.757 3.55 6.078.582.319 1.512.685 2.716.685 1.445 0 4.17-.555 6.185-4.273.71-1.311 1.082-2.614 1.216-3.832 2.032.267 4.1.067 5.914-.538l5.33.409c.595.046 1.673.123 2.205.123l.282-.004c.121-.002.284-.005.472-.005.39 0 .671.014.865.03.231.218.53.513.79.768.94.926 2.227 2.195 3.981 3.635 2.369 1.946 4.528 2.892 6.6 2.892 1.411 0 2.409-.447 2.998-.822l2.408-1.532-.327-2.835c-.258-2.236-1.19-3.981-2.19-5.347.106.004.213.006.322.006l.218-.003c.486-.015.936-.069 1.377-.165l2.608-.574.752-2.479c.737.414 1.755.793 3.014.793m21.611-6.937c.07-.147.138-.295.204-.444l.292.326c-.166.036-.332.074-.496.118m-6.121-14.103c-.389 0-.812.008-1.274.025-4.425.158-6.193 1.977-7.319 3.76-1.803 1.132-4.195 3.168-6.252 5.647-.926-1.976-2.35-3.865-4.102-5.385-2.578-2.233-3.614-2.704-6.086-3.27l-.243-.057c-.948-.218-1.891-.414-3.01-.414-1.36 0-2.648.282-4.457.713-2.254.537-3.905 1.663-5.065 2.794-1.588-.231-3.702-.442-6.11-.442-3.682 0-5.155.256-7.198 1.858-.301.236-.561.44-1.115.745-1.168.642-2.418 1.069-3.743 1.522-1.458.498-2.966 1.014-4.447 1.847-1.972 1.109-8.666 5.02-12.066 8.777-1 1.106-1.748 2.21-2.306 3.248-1.578-.328-2.944-.485-4.342-.552-2.91-4.028-6.55-7.802-11.54-8.682l-5.091-.899-.253 5.165c-.007.131-.052 1.182.04 2.996-.09.197-.188.408-.268.579-.846 1.818-1.312 2.82-1.213 4.205.141 1.956.32 4.017.526 6.051-.824 1.225-1.442 2.533-1.935 3.793-.52-.025-1.031-.038-1.531-.038-11.289 0-16.71 6.291-20.171 11.771-1.522 2.409-3.176 7.329 1.669 14.248-.081 1.095-.013 2.246.205 3.444l.044.244c.457 2.505.457 2.505-.898 4.706-2.157 3.506-2.883 7.535-3.586 11.43-.233 1.295-.475 2.635-.767 3.948-.582 2.621-1.507 4.04-2.578 5.684-.669 1.026-1.426 2.188-2.072 3.611-1.497 3.292-1.192 8.178-.898 12.903.102 1.637.198 3.182.198 4.416 0 5.567 2.031 13.554 2.813 16.161.339 1.132.821 2.252 1.331 3.439.969 2.256 1.971 4.588 1.971 6.899 0 .971-.043 1.605-.081 2.165-.192 2.826.024 3.811 2.098 9.571 2.174 6.04 4.479 9.042 6.709 11.944.736.959 1.496 1.95 2.268 3.072 1.078 1.568 1.948 2.626 2.724 3.425-1.395 1.184-2.841 2.435-4.328 3.722-17.906 15.495-16.581 19.049-15.869 20.959.93 2.497 3.709 3.778 6.502 2.763 2.429-.884 19.402-8.228 25.395-10.903 1.542 1.076 3.488 1.682 5.559 2.21-12.065 15.384-18.68 33.477-19.942 45.68-.686 6.628.941 8.432 1.553 9.111.945 1.048 2.284 1.649 3.671 1.649 4.078 0 5.669-4.4 6.718-7.346 5.328-13.903 15.991-23.351 27.092-30.619-.687 8.603.665 18.442 3.108 24.603 2.394 6.036 7.77 12.551 12.28 12.551 1.741 0 3.316-.865 4.211-2.315.569-.92 1.324-2.863-.012-5.537-1.045-2.09-3.557-9.896-1.464-18.076.684-2.676 2.77-6.111 5.933-9.803.349.009.705.014 1.071.014 1.961 0 3.866-.143 5.547-.269 1.378-.104 2.68-.202 3.755-.202 1.35 0 1.803.161 1.88.193.607.252 1.626.775 2.805 1.38 4.77 2.447 12.754 6.542 20.206 6.542s15.436-4.095 20.206-6.542c1.18-.605 2.198-1.128 2.805-1.38.077-.032.528-.192 1.869-.192 1.076 0 2.38.099 3.76.204 1.685.127 3.596.272 5.563.272.197 0 .391-.002.582-.004 3.156 3.686 5.237 7.115 5.921 9.787 2.093 8.181-.419 15.987-1.464 18.076-1.336 2.673-.582 4.617-.013 5.537.895 1.45 2.47 2.315 4.211 2.315 4.51 0 9.886-6.514 12.28-12.55 2.414-6.088 3.775-15.985 3.095-24.618 11.074 7.24 21.755 16.671 27.105 30.633 1.049 2.946 2.64 7.346 6.717 7.346 1.388 0 2.727-.601 3.672-1.649.612-.679 2.239-2.483 1.553-9.112-1.257-12.161-7.846-30.212-19.861-45.575 2.136-.532 4.162-1.119 5.774-2.182 6.234 2.776 22.709 9.901 25.098 10.77 2.797 1.017 5.573-.265 6.503-2.762.713-1.91 2.037-5.464-15.869-20.959-1.394-1.206-2.75-2.38-4.061-3.497.833-.822 1.765-1.928 2.949-3.65.772-1.123 1.533-2.114 2.269-3.073 2.229-2.901 4.534-5.903 6.708-11.943 2.074-5.761 2.29-6.745 2.098-9.572-.038-.56-.081-1.193-.081-2.164 0-2.311 1.003-4.643 1.971-6.898.51-1.187.992-2.308 1.331-3.441.783-2.607 2.813-10.594 2.813-16.16 0-1.234.096-2.78.198-4.416.295-4.725.599-9.61-.897-12.903-.647-1.423-1.404-2.585-2.072-3.61-1.072-1.645-1.997-3.064-2.579-5.685-.291-1.312-.533-2.651-.767-3.947-.702-3.895-1.429-7.924-3.586-11.43-1.355-2.202-1.355-2.202-.898-4.706l.045-.244c.028-.157.054-.315.077-.475 6.047-7.581 4.314-12.98 2.667-15.587-3.461-5.48-8.882-11.771-20.169-11.771h-.002c-.589 0-1.193.018-1.809.053-.228-.677-.487-1.396-.789-2.126.64-6.712 1.176-15.163 1.2-15.541l.365-5.782-5.706 1.007c-4.503.795-8.57 4.043-11.584 7.213l-1.168-1.321-2.103-.025c-.922 0-3.986.517-5.89.963-.12-.064-.254-.141-.387-.224-.863-1.251-2.608-3.487-5.229-5.485-2.422-1.845-4.331-2.379-5.865-2.808-.957-.268-1.784-.499-2.948-1.105-2.068-1.074-3.019-1.956-3.269-2.209l-.69-1.14-1.088-.262c-.974-.436-5.943-2.64-8.18-3.279-.693-.198-1.476-.294-2.394-.294-1.929 0-4.566.458-6.495.855-.441-.384-.95-.806-1.524-1.247l-.207-.16c-2.112-1.631-3.81-2.7-8.011-2.7"/>
    <path fill="#dfded1" d="M221.6083 195.4153s-11.91 9.92-14.226 18.974c-2.316 9.054.118 17.875 1.803 21.244 1.684 3.369-4.923-.24-8.165-8.417-3.083-7.775-4.31-23.397-.89-31.59 4.782-11.453 23.794-11.792 21.478-.211"/>
    <path fill="#79230f" d="M299.703 26.2735c-.655-1.092-4.259-2.621-3.931-.874.327 1.748.541 3.719 1.856 3.822 4.15.328 2.73-1.856 2.075-2.948m-9.719-9.719c-1.31-.655-4.586-2.184-8.627-1.528 0 0 2.512 4.367 5.461 6.224 2.948 1.856 4.804 1.31 5.35.109.546-1.201-.873-4.149-2.184-4.805m-14.086 1.748c-2.075 0-3.495.327-7.208 4.149-3.712 3.822-3.931 6.334-3.931 6.334-1.092 2.184 1.747.218 3.058-1.42 1.31-1.638 5.023-4.259 8.081-4.914 3.057-.655 3.057-1.638 3.057-2.402 0-.765-.983-1.747-3.057-1.747m-12.449-7.208c-3.604 2.075-1.966 5.024-1.966 8.518 0 0 5.788-3.604 7.535-8.081 0 0-1.966-2.511-5.569-.437m-19.219 4.15c-.219-1.747-.656-2.839-1.092-3.167-.437-.328-1.638-2.621-6.771-.655 0 0 .437 2.402 2.075 4.259 1.638 1.856 3.494 3.603 5.46 3.166 0 0 .546-1.856.328-3.603m-12.231 3.167c-.764-.874-2.293-.765-2.948-.546-.655.218-1.529.546-2.075 1.201-.546.655-1.747 2.948-1.747 2.948s1.42.109 1.856.109c.437 0 2.73-.109 3.713.437.983.546 2.512 2.512 5.569 5.023 3.058 2.512 4.259 1.748 4.259 1.748-.327-2.84-2.73-4.587-3.822-6.116-1.092-1.528-4.04-3.931-4.805-4.804m-14.305-3.385c-2.293.982-3.385 2.074-4.368 3.276-.982 1.201-.327 3.603-.327 3.603 2.074.655 5.787.546 7.862-1.856 2.075-2.403 2.402-5.242 2.402-5.242s-3.276-.764-5.569.219m-8.954 8.735s-1.42.219-2.621 1.529c-1.201 1.311-1.451 2.079-1.638 3.385-.109.765 1.201 1.42 1.201 1.42s1.311.874 2.73-1.747c1.42-2.621.328-4.587.328-4.587m109.017 6.734c-.873 2.184-10.774 3.204-12.376 3.495-1.601.291-10.337-2.184-17.035-1.893-6.697.291-16.598.874-22.713 2.184-6.115 1.31-13.25.146-20.967 0-7.716-.146-13.686-.582-20.529-.874-6.843-.291-16.889 1.456-19.947.146s-7.28-2.766-9.318-6.406c0 0 0-2.912 2.766-5.97 2.766-3.057 8.59-6.552 10.92-7.862 2.329-1.311 5.242-1.747 8.153-3.349 2.912-1.602 1.457-2.038 6.116-2.038s8.008.873 8.008.873 1.164-2.621 4.222-3.349c3.058-.728 3.494-.728 5.387-.291 1.893.437 2.184.437 4.368 2.33s3.349 4.222 3.64 5.969c.291 1.748 1.747 2.621 1.747 2.621s1.602 1.602 3.64-1.602c2.039-3.203 5.242-5.969 6.989-6.988 1.747-1.019.728-2.767 4.805-2.912 4.077-.146 4.659.437 6.552 1.893 1.893 1.456 2.912 2.62 2.912 2.62s6.988-1.747 9.027-1.164c2.038.582 7.571 3.057 7.571 3.057s1.165 1.602 4.805 3.494c3.64 1.893 5.096 1.165 8.153 3.495 3.058 2.33 4.66 5.096 4.66 5.096s2.62 2.038 4.076 1.601c1.456-.436 5.096-1.019 5.533-1.019.437 0-.291 4.659-1.165 6.843"/>
    <path fill="#a63417" d="M164.0448 45.0089c-1.716.156-2.653.468-3.511 1.092-.858.624-2.341 1.717-3.043 3.043s-.312 3.121-.312 3.121c7.646 1.248 9.831-7.1 9.831-7.1s-1.248-.312-2.965-.156m-9.067 16.286s-8.445-7.571-4.951-13.104c3.495-5.533 8.445-11.066 20.675-9.319l3.495 6.698s-6.698 14.851-19.219 15.725m184.8733-14.4987s2.185 8.348 9.831 7.1c0 0 .39-1.795-.312-3.121-.703-1.326-2.185-2.419-3.043-3.043-.859-.624-1.795-.936-3.511-1.092-1.717-.156-2.965.156-2.965.156m-7.187.405l3.495-6.698c12.23-1.747 17.18 3.786 20.674 9.319 3.495 5.532-4.95 13.104-4.95 13.104-12.521-.874-19.219-15.725-19.219-15.725"/>
    <path fill="#dfded1" d="M283.8899 195.4153s11.91 9.92 14.226 18.974c2.316 9.054-.118 17.875-1.803 21.244-1.684 3.369 4.923-.24 8.165-8.417 3.083-7.775 4.31-23.397.89-31.59-4.782-11.453-23.794-11.792-21.478-.211"/>
    <path fill="#a63417" d="M252.9951 25.3612s-4.077 2.33-6.406 4.95c-2.33 2.621-5.533 1.748-7.28 1.165-1.747-.582-2.912-2.912-6.989-6.406-4.077-3.495-5.242-2.039-7.571-2.33-2.33-.291-8.736.291-10.775 1.165-2.038.874-2.329 3.786-4.95 6.115-2.621 2.33-7.571 0-8.736 0-1.165 0-3.203-2.621-7.571-3.785-4.368-1.165-6.406-.874-11.357-.874-4.95 0-3.785 3.494-6.406 5.824-2.621 2.33-3.494 6.698-4.368 9.027-.874 2.33-1.165 5.533-3.786 9.318-2.62 3.786-8.736 4.66-11.356 6.116-2.621 1.456-3.495 3.785-2.912 6.988.582 3.204.873 4.368-1.456 8.154-2.33 3.785-2.621 8.736-3.786 13.977-1.165 5.242-3.494 6.989-4.95 10.192-1.456 3.204-.291 10.775-.291 15.434 0 4.659 1.747 11.939 2.62 14.851.874 2.912 3.495 6.989 3.495 11.648s-.874 2.912 1.747 10.192 5.241 9.318 8.445 13.977c3.203 4.66 3.785 3.495 6.115 6.407 2.329 2.912 5.241 8.736 6.115 11.065.874 2.33 4.659 2.621 9.901 4.077 5.241 1.456 5.241 1.747 9.609 4.659s7.28 5.242 11.357 10.192c4.077 4.95 7.28 2.621 13.686 3.494 6.407.874 13.104-1.164 16.599.292 3.494 1.456 13.103 7.571 21.257 7.571 8.154 0 17.763-6.115 21.257-7.571 3.495-1.456 10.192.582 16.599-.292 6.406-.873 9.609 1.456 13.686-3.494s6.989-7.28 11.357-10.192c4.368-2.912 4.368-3.203 9.609-4.659 5.242-1.456 9.027-1.747 9.901-4.077.874-2.329 3.786-8.153 6.115-11.065 2.33-2.912 2.912-1.747 6.115-6.407 3.203-4.659 5.824-6.697 8.445-13.977 2.621-7.28 1.747-5.533 1.747-10.192s2.621-8.736 3.495-11.648c.873-2.912 2.62-10.192 2.62-14.851 0-4.659 1.165-12.23-.291-15.434-1.456-3.203-3.785-4.95-4.95-10.192-1.165-5.241-1.456-10.192-3.786-13.977-2.329-3.786-2.038-4.95-1.456-8.154.583-3.203-.291-5.532-2.912-6.988-2.62-1.456-8.736-2.33-11.356-6.116-2.621-3.785-2.912-6.988-3.786-9.318-.874-2.329-1.747-6.697-4.368-9.027-2.621-2.33-1.456-5.824-6.406-5.824-4.951 0-6.989-.291-11.357.874-4.368 1.164-6.406 3.785-7.571 3.785s-6.115 2.33-8.736 0c-2.621-2.329-2.912-5.241-4.95-6.115-2.039-.874-8.445-1.456-10.775-1.165-2.329.291-3.494-1.165-7.571 2.33-4.077 3.494-5.242 5.824-6.989 6.406-1.747.583-4.95 1.456-7.28-1.165-2.329-2.62-6.406-4.95-6.406-4.95"/>
    <path fill="#79230f" d="M345.6781 108.788c-3.262 7.611-6.759 13.847-6.759 16.837 0 2.991 1.903 2.447 0 2.991-1.903.543-4.7 1.301-6.291-.709-1.57-1.982-7.668-3.865-12.008-8.348l11.309 3.062s2.64-2.976 3.194-6.238c.554-3.262.262-9.786-1.369-11.688-1.631-1.903-2.99-3.806-2.99-3.806s-2.99-9.514-5.437-10.873c-2.446-1.359-2.31-2.175-3.534-2.99-1.223-.816-3.261 0-4.621-.544-1.359-.544-1.087-4.077-2.446-5.708-1.359-1.631-4.621-.544-5.708-1.903-1.088-1.359-6.253-5.709-8.699-5.98-2.446-.272-3.534-2.447-6.252-5.981-2.718-3.533-3.262-4.893-5.708-7.339-2.447-2.446-4.078-2.718-8.971-3.262s-5.436-3.534-6.524-4.621c-1.087-1.087-3.262-2.446-5.708-2.446-2.447 0-3.806-1.088-8.155-1.903-4.349-.816-4.893-.544-5.98-.544-1.087 0-2.718 0-6.524 1.359s-1.903.272-7.37 1.961c-5.468 1.688-2.688.214-4.319-.873-1.631-1.088-1.903-1.088-7.067-.816-5.165.272-5.437 3.534-7.611 6.252-2.175 2.718-2.175 2.718-4.35 5.437-2.174 2.718-1.902 2.174-5.436 4.621-3.534 2.446-2.447 3.262-9.514 7.611-7.068 4.349-3.262 1.087-6.524 2.718s-3.806 3.262-6.524 5.981c-2.718 2.718-2.569 1.913-5.165 2.99-2.596 1.076 2.719 1.087-1.631 4.349-4.349 3.262-3.805 8.698-5.708 8.97-1.903.272-3.262-.543-4.349 3.262-1.088 3.806-1.088 2.719-.816 4.349.272 1.631-1.727 1.409-1.087 3.262 3.271 9.481 1.698 5.269 3.364 6.524 2.875 2.167 6.693 5.165 6.693 5.165.08.062.171.117.27.168-.897.321-1.787.624-2.716.919-5.98 1.903-5.165 3.262-8.427.272 0 0-1.087-5.708-1.631-10.058-.543-4.349-5.751-9.948-5.479-13.482.272-3.534-1.938-8.427.236-12.233 2.175-3.805 1.784.632 4.502-2.358.681-.749 2.637 1.66 3.215-1.929.315-1.954 1.655-7.227 1.929-8.146 1.235-4.121 2.241-1.811 4.073-3.644 2.99-2.99 1.125-.47 4.931-1.286 3.805-.815 1.882-3.723 5.144-9.432 1.059-1.852 6.792-.903 8.146-4.287.822-2.055 1.705-1.578 2.572-3.43 1.004-2.144 5.439-6.043 6.431-7.073 1.086-1.129 3.524-4.128 4.502-2.787 1.732 2.376 4.93-1.715 6.43-1.715 1.727 0 3.527 3.02 4.716 2.358 1.023-.569 1.686-2.623 2.572-3.001 3.214-1.371 5.548-3.84 9.432-2.144 3.497 1.527 2.45 4.886 7.886 3.255 2.201-.661 3.142-2.118 5.079-2.525 1.558-.326 3.356-.274 4.984-.067 1.348.171 2.578.449 3.457.705 3.262.952 4.018 1.569 5.057 1.05 1.681-.841 2.864-1.618 3.976-1.56 1.023.053 3.336.105 4.502.429 1.22.338 1.867 2.397 3.001 2.786 1.32.454 1.949-1.438 2.787-1.286 2.036.37 2.794-2.107 4.715-3.215.9-.519 3.544-1.893 4.931-1.287 1.307.572 3.68 1.426 4.716 1.715 1.035.29.375 1.525 1.927 2.1.508.189.795 1.086 1.432 1.303 1.945.66 7.171 1.3 9.246 2.474 1.986 1.124 5.637.936 6.12 2.995.371 1.584 5.33 3.8 5.86 5.339.812 2.36-.717 5.48 1.566 7.654.946.901 3.909.9 4.502 1.5 1.919 1.946-.36 4.427.445 5.874.448.804 1.028 1.843 2.082 3.463.725 1.116 3.897-4.144 4.818-2.865.809 1.124 3.558-.629 4.427.521.623.825 9.931 3.631 10.548 4.428 2.312 2.985-1.186 9.358 0 10.808 1.025 1.253 4.549.126 5.6 2.214.282.562 1.924 3.193 2.213 3.776 1.201 2.421-1.4 5.907 0 7.944 2.99 4.349 3.132 5.02-.13 12.631"/>
    <path fill="#313966" d="M179.3554 119.9171s-3.819-2.998-6.694-5.165c-1.665-1.255-.092 2.957-3.364-6.524-.639-1.853 1.359-1.631 1.088-3.262-.272-1.631-.272-.543.815-4.349s2.447-2.99 4.349-3.262c1.903-.272 1.359-5.708 5.709-8.97 4.349-3.262-.965-3.273 1.631-4.35 2.596-1.076 2.446-.271 5.164-2.99 2.719-2.718 3.262-4.349 6.524-5.98 3.262-1.631-.543 1.631 6.524-2.718 7.068-4.349 5.98-5.165 9.514-7.611 3.534-2.447 3.262-1.903 5.437-4.621 2.174-2.719 2.174-2.719 4.349-5.437 2.175-2.718 2.447-5.98 7.611-6.252 5.165-.272 5.437-.272 7.068.816 1.631 1.087-1.149 2.561 4.318.873 5.468-1.689 3.565-.602 7.37-1.961 3.806-1.359 5.437-1.359 6.524-1.359 1.088 0 1.631-.272 5.981.544 4.349.815 5.708 1.903 8.154 1.903 2.447 0 4.622 1.359 5.709 2.446 1.087 1.087 1.631 4.077 6.524 4.621 4.893.544 6.524.816 8.97 3.262 2.447 2.446 2.99 3.806 5.709 7.339 2.718 3.534 3.805 5.709 6.252 5.981 2.446.271 7.611 4.621 8.698 5.98 1.087 1.359 4.349.272 5.709 1.903 1.359 1.631 1.087 5.164 2.446 5.708 1.359.544 3.398-.272 4.621.544 1.223.815 1.087 1.631 3.534 2.99 2.446 1.359 5.436 10.873 5.436 10.873s1.36 1.903 2.991 3.805c1.63 1.903 1.922 8.427 1.369 11.689-.554 3.262-3.194 6.238-3.194 6.238l-18.019-4.879s-52.735-20.115-60.618-19.571c-7.883.543-59.802 20.115-59.802 20.115s-11.961 3.534-14.407 1.631"/>
    <path fill="#2d5280" d="M253.5646 98.1707c-4.456.307-22.979 6.693-38.245 12.189-10.295-7.293-16.707-17.563-16.707-28.942 0-2.833.399-5.597 1.155-8.263.397-.236.836-.501 1.334-.808 7.068-4.349 5.98-5.164 9.514-7.611 3.534-2.446 3.262-1.903 5.437-4.621 2.174-2.718 2.174-2.718 4.349-5.437 2.175-2.718 2.446-5.98 7.611-6.252 5.165-.271 5.437-.271 7.068.816 1.631 1.087-1.149 2.562 4.318.873 5.467-1.689 3.565-.601 7.37-1.96 3.806-1.36 5.437-1.36 6.524-1.36 1.087 0 1.631-.271 5.98.544 4.35.816 5.709 1.903 8.155 1.903 2.447 0 4.621 1.359 5.709 2.446 1.087 1.088 1.631 4.078 6.524 4.621 4.892.544 6.523.816 8.97 3.262 2.446 2.447 2.99 3.806 5.708 7.34 2.719 3.534 3.806 5.708 6.252 5.98 1.463.162 3.893 1.782 5.846 3.348.296 1.696.449 3.424.449 5.179 0 10.888-5.872 20.759-15.399 27.98-15.33-5.458-33.544-11.529-37.922-11.227"/>
    <path fill="#076e99" d="M263.3589 100.1273c-4.609-1.296-8.163-2.069-9.794-1.957-1.641.114-5.194 1.053-9.786 2.467-11.922-4.044-20.55-15.813-20.55-29.709 0-8.914 3.554-16.948 9.246-22.636 1.191.066 1.68.333 2.605.949 1.631 1.088-1.149 2.562 4.319.873 5.467-1.688 3.564-.601 7.37-1.96s5.437-1.359 6.524-1.359c1.087 0 1.631-.272 5.98.544 4.349.815 5.708 1.902 8.155 1.902 2.446 0 4.621 1.359 5.708 2.447 1.038 1.037 1.59 3.803 5.89 4.526 2.23 4.384 3.498 9.392 3.498 14.714 0 13.352-7.966 24.74-19.165 29.199"/>
    <path fill="#dfded1" d="M289.511 95.568l.291-6.261 3.203.437 1.456-.437 2.621 1.019 2.184 2.33s.874 6.406-.291 9.755c-1.165 3.349-3.494 5.97-3.494 5.97l-8.882-.728 2.912-12.085z"/>
    <path fill="#dfded1" d="M300.4895 89.0862l2.33-.291 1.601 1.747 1.31.291 2.33 3.349s2.33 5.241 1.747 8.736c-.582 3.494-4.659 8.881-4.659 8.881l-6.115-3.494-.291-5.969 1.747-13.25z"/>
    <path fill="#dfded1" d="M309.6718 92.8417l1.019 1.893 1.456-1.311h1.456l1.165-2.038 2.33-2.038 2.184 1.164.728-.436s2.184 3.931 3.057 8.59c.874 4.659-.291 10.046-1.456 12.376s-5.533 2.475-5.533 2.475l-6.988-4.95.582-15.725z"/>
    <path fill="#dfded1" d="M323.6107 97.5782l2.766 5.678.874 3.932s-.874 5.824-1.165 7.28c-.291 1.456-2.184 2.766-2.184 2.766l-2.329-2.912-1.311-4.514 3.349-12.23z"/>
    <path fill="#dfded1" d="M327.3962 106.4599l1.747-1.165 1.747.874 1.456-.146s2.621 6.115 1.748 10.192c-.874 4.077-1.893 6.406-1.893 6.406l-2.039 1.02-4.804-.292-3.786-3.639 5.824-13.25z"/>
    <path fill="#dfded1" d="M332.6084 113.4486l1.019 1.019 1.602-.582s0 8.153-1.165 10.192c-1.165 2.038-4.659 2.184-4.659 2.184l-1.165-1.602 1.31-7.425 3.058-3.786zm5.9216-27.179s-1.165 7.134-1.456 7.717c-.291.582-.291 1.747-.291 1.747l1.31-1.31 1.456 2.183 1.602-.582 1.31.291 1.311-1.892s1.164-2.476 1.164-4.66-.582-3.64-1.456-3.931c-.873-.291-3.931-.582-4.95.437m-1.8247-8.9499c-.835 2.589-2.912 4.659-2.912 4.659l-1.747-1.747h-2.766l-.874-2.33.437-2.475s1.019-2.329.728-4.077c0 0-.138-.945 1.601-.727 2.33.291 6.989 2.183 5.533 6.697"/>
    <path fill="#dfded1" d="M328.843 71.059s-2.038-2.766-2.766-2.912c-.728-.146-6.407-.582-7.863 4.222l-.291 2.621 1.31 2.912s1.311.291 2.039 1.747c.728 1.456 1.601 2.767 1.601 2.767l2.767-1.165 2.038-.437s1.165-.437 2.039-3.64c.873-3.203-.292-4.659-.874-6.115m-58.7331-27.2747s.291-1.602 3.349-4.222c3.057-2.621 4.513-2.912 7.571-1.456s5.824 2.62 6.406 5.678c.583 3.058.292 14.414-.873 18.054l-1.165 2.767-1.165-2.184-1.456-.583-2.845-.999s-.795-4.388-2.105-4.242c-1.311.145-2.425-2.282-2.425-2.282s-2.089-7.91-5.292-10.531m-1.6813 45.1576s.874-3.203 1.019-4.077c.146-.873 4.01-7.508 4.485-9.525.475-2.018 2.374 1.305 2.374 1.305s7.264 7.929 6.827 16.665l-1.747 8.008-12.667-1.747-.291-10.629zm22.3046-47.0353c.728 0 1.31-1.165 3.058.291 1.747 1.456-.437 1.456 3.494 1.747 3.931.292 3.931 1.456 5.387 2.476 1.456 1.019 2.039 1.31 3.058 2.038 1.019.728 2.475 2.621 2.475 2.621s-.291 3.64-.291 4.222c0 .582-1.456-1.31-1.456-1.31s-1.602-.146-1.747-.583c-.146-.436-.437-2.038-.437-2.038l-1.165-1.31-2.766.873-.874-1.165-.437-1.019-2.766-1.601-2.039-.728-.873 3.203-3.058-.728s.583-3.495.583-4.368c0-.874-.146-2.621-.146-2.621m-35.4744-.5271s2.33-2.038 3.786-2.33c1.455-.291 3.348.146 4.513.292 1.165.145 2.621 1.456 2.621 1.456s1.165 5.678.728 9.464c0 0-.495 2.633-1.116 3.697-.62 1.064-1.018.234-1.018.234s-.223-.234-.755-1.298-3.635-7.537-8.759-11.515m-36.6242 53.3934l-.291-6.261-3.203.437-1.456-.437-2.621 1.019-2.184 2.33s-.874 6.406.291 9.755c1.165 3.349 3.494 5.97 3.494 5.97l8.882-.728-2.912-12.085z"/>
    <path fill="#dfded1" d="M208.0332 89.2004l-2.33-.291-1.601 1.747-1.31.291-2.33 3.349s-2.33 5.241-1.747 8.736c.582 3.494 4.659 8.881 4.659 8.881l6.115-3.494.291-5.969-1.747-13.25z"/>
    <path fill="#dfded1" d="M200.8969 93.2388l-1.019 1.893-1.456-1.311h-1.456l-1.165-2.038-2.33-2.038-2.184 1.164-.727-.436s-2.184 3.931-3.058 8.59c-.874 4.659.291 10.046 1.456 12.376 1.165 2.329 5.533 2.475 5.533 2.475l6.988-4.95-.582-15.725z"/>
    <path fill="#dfded1" d="M185.2917 97.5782l-2.766 5.678-.874 3.932s.874 5.824 1.165 7.28c.291 1.456 2.184 2.766 2.184 2.766l2.329-2.912 1.311-4.514-3.349-12.23z"/>
    <path fill="#dfded1" d="M181.506 106.4599l-1.747-1.165-1.747.874-1.456-.146s-2.621 6.115-1.747 10.192c.873 4.077 1.892 6.406 1.892 6.406l2.039 1.02 4.804-.292 3.786-3.639-5.824-13.25z"/>
    <path fill="#dfded1" d="M174.6629 113.4486l-1.019 1.019-1.602-.582s0 8.153 1.165 10.192c1.165 2.038 4.659 2.184 4.659 2.184l1.165-1.602-1.31-7.425-3.058-3.786zm-6.4654-27.179s1.165 7.134 1.456 7.717c.291.582.291 1.747.291 1.747l-1.31-1.31-1.456 2.183-1.602-.582-1.31.291-1.31-1.892s-1.165-2.476-1.165-4.66.582-3.64 1.456-3.931c.873-.291 3.931-.582 4.95.437m3.4557-8.4062c.835 2.589 2.912 4.659 2.912 4.659l1.747-1.747h2.766l.874-2.33-.437-2.475s-1.019-2.329-.728-4.077c0 0 .138-.945-1.601-.727-2.33.291-6.989 2.183-5.533 6.697"/>
    <path fill="#dfded1" d="M179.5156 71.6027s2.038-2.766 2.766-2.912c.728-.146 6.407-.582 7.863 4.222l.291 2.621-1.31 2.912s-1.311.291-2.039 1.747c-.728 1.456-1.601 2.767-1.601 2.767l-2.767-1.165-2.038-.437s-1.165-.437-2.039-3.64c-.873-3.203.292-4.659.874-6.115M235.91 45.4312s-.291-1.602-3.349-4.222c-3.057-2.621-4.513-2.912-7.571-1.456-3.057 1.456-5.824 2.62-6.406 5.678-.583 3.058-.291 14.414.873 18.054l1.165 2.767 1.165-2.184 1.456-.583 2.33-3.057s1.31-2.33 2.62-2.184c1.311.145 2.912-.437 2.912-.437s1.602-9.755 4.805-12.376m2.3889 42.9671s-2.814-3.684-3.645-9.38c-.83-5.696-2.136-4.035-2.136-4.035s-9.361 9.047-8.924 17.783l1.747 8.008 12.667-1.747.291-10.629zM215.73 41.4949c-.728 0-1.31-1.165-3.058.291-1.747 1.456.437 1.456-3.494 1.747-3.931.292-3.931 1.456-5.387 2.476-1.456 1.019-2.038 1.31-3.058 2.038-1.019.728-2.475 2.621-2.475 2.621s.291 3.64.291 4.222c0 .582 1.456-1.31 1.456-1.31s1.602-.146 1.748-.583c.145-.436.436-2.038.436-2.038l1.165-1.31 2.766.873.874-1.165.437-1.019 2.766-1.601 2.039-.728.464 1.602 2.174-.906s.71-1.716.71-2.589c0-.874.146-2.621.146-2.621m37.0901 52.154l-4.222-.146-5.97-1.747-2.184-2.766-.146-2.767s.437-4.368.292-4.804c-.146-.437 1.31-1.602 1.31-1.602l1.602-1.31h3.203l.582-1.602 1.602.874 2.184-.874 1.747-1.456 1.747 1.456 2.184.874 1.602-.874.582 1.602h3.203l1.602 1.31s1.456 1.165 1.31 1.602c-.145.436.291 4.804.291 4.804l-.145 2.767-2.184 2.766-5.97 1.747-4.222.146zm-1.7735-52.4156s-2.33-2.038-3.786-2.33c-1.456-.291-3.348.146-4.513.292-1.165.145-2.621 1.456-2.621 1.456s-1.165 5.678-.728 9.463l.582 2.185 1.162 2.723 1.152-1.33 1.064.621s.798-6.296 7.688-13.08"/>
    <path fill="#946e59" d="M334.9772 122.9071c.408.408-1.859 2.315-1.859 2.315 2.184.619.437 1.859-.219 2.685-.655.826-1.965 5.37-2.62 7.022-.656 1.653-2.403 2.066-4.805 3.305-2.403 1.24-5.242 3.098-8.299 5.37-3.058 2.273-3.932 4.131-4.805 7.849-.874 3.718-2.839 4.544-3.931 5.784-1.092 1.239-5.46.206-8.299.413-2.84.206-4.368-.826-7.208-2.479-2.839-1.652-8.299-2.272-10.046-3.924-1.747-1.653-4.15-5.577-4.586-3.718-.437 1.859-1.019 2.065-1.019 2.065s.449-2.275-1.589-3.195c-.563-.254-1.556-.224-2.282-.57-.699-.334-1.426-1.093-2.281-1.521-.941-.471.527-3.335-.57-3.612-1.097-.276-5.886 4.015-7.021 3.883-3.696-.429-7.282-.217-8.726-.217-.974 0-1.559.461-1.884.584-.325-.123-.909-.584-1.884-.584-1.707 0-5.611-1.251-9.95-.434-1.055.199-7.431-5.228-8.395-4.877-.482.175-1.91 2.299-2.352 2.52-1.322.662.282 3.926-.672 4.367-.451.21.539 2.859.168 3.024-1.779.793-1.267.632-1.267.632s-.583-.206-1.019-2.065c-.437-1.859-2.84 2.065-4.587 3.718-1.747 1.652-7.207 2.272-10.046 3.924-2.839 1.653-4.368 2.685-7.207 2.479-2.839-.207-7.207.826-8.299-.413-1.092-1.24-3.058-2.066-3.932-5.784-.873-3.718-1.747-5.576-4.804-7.849-3.058-2.272-5.897-4.13-8.299-5.37-2.403-1.239-4.15-1.652-4.805-3.305-.655-1.652-1.966-6.196-2.621-7.022-.655-.826-1.904-1.164-.218-2.685.908-.82-1.417-2.451-1.274-4.625.069-1.046.133-4.214.133-4.214l1.063-1.631s.532 5.029 1.197 6.252c.665 1.224 1.595-1.087 1.595-1.087.133.68 2.128.544 2.659.408.532-.136.931-5.301.931-5.301s2.127-.544 2.526.136 4.122.408 4.388-3.534c0 0 1.329-.272 1.329.544 0 .815.758-2.678 1.994-3.942.399-.407 2.394 1.088 2.792-.951.399-2.039.798-3.262.798-3.262l1.861.951s1.064-.272 1.862-.951c.797-.68 2.925-.816 2.925-.816s5.85 3.67 6.913-2.038c1.064-5.709 1.463-4.757 1.463-4.757s-.266 3.398 1.329 3.941c1.596.544 4.521-.272 4.92-1.087.398-.816 1.462-1.087 2.127-3.262.664-2.175 1.595-2.718 1.595-2.718s1.197.543 3.59.407c2.393-.135 4.254-.815 4.254-.815l2.128.544s3.323 9.921 10.769-3.806c0 0 1.595 0 1.994-.136s2.393.68 2.393.68 2.925 4.213 6.515.271c0 0 .93-.679 1.994-.815 1.064-.136 1.994-.544 1.994-.544s.931.408 1.995.544c1.063.136 1.994.815 1.994.815 3.59 3.942 6.515-.271 6.515-.271s1.994-.816 2.393-.68c.399.136 1.994.136 1.994.136 7.445 13.727 10.769 3.806 10.769 3.806l2.127-.544s1.862.68 4.255.815c2.393.136 3.59-.407 3.59-.407s.93.543 1.595 2.718c.665 2.175 1.728 2.446 2.127 3.262.399.815 3.324 1.631 4.919 1.087 1.596-.543 1.33-3.941 1.33-3.941s.399-.952 1.462 4.757c1.064 5.708 6.914 2.038 6.914 2.038s2.127.136 2.925.816c.798.679 1.861.951 1.861.951l1.862-.951s.398 1.223.797 3.262c.399 2.039 2.393.544 2.792.951 1.237 1.264 1.995 4.757 1.995 3.942 0-.816 1.329-.544 1.329-.544.266 3.942 3.989 4.214 4.388 3.534.398-.68 2.526-.136 2.526-.136s.398 5.165.93 5.301c.532.136 2.526.272 2.659-.408 0 0 .931 2.311 1.596 1.087.664-1.223 1.196-6.252 1.196-6.252l1.064 1.631s.931 3.534.133 4.214"/>
    <path fill="#dfded1" d="M346.3241 231.9662c-1.457-14.083-11.885-42.925-36.991-60.499-12.311-8.618-25.546 9.541-15.697 16.62 9.849 7.079 39.089 17.852 49.554 45.245 2.988 8.389 3.571 2.856 3.134-1.366m-9.6095-53.2528c3.117 1.461 24.162 10.587 26.711 11.514 2.55.927-1.854-5.563-13.905-15.992-12.052-10.429-18.734-16.163-23.871-10.197-4.551 5.284 4.076 11.399 11.065 14.675m-177.5405 53.2528c1.457-14.083 11.885-42.925 36.991-60.499 12.311-8.618 25.546 9.541 15.697 16.62-9.849 7.079-39.089 17.852-49.554 45.245-2.988 8.389-3.571 2.856-3.134-1.366m9.6096-53.2528c-3.117 1.461-24.162 10.587-26.711 11.514-2.55.927 1.854-5.563 13.905-15.992 12.052-10.429 18.734-16.163 23.871-10.197 4.55 5.284-4.076 11.399-11.065 14.675"/>
    <path fill="#68b230" d="M252.4074 121.8879c-2.293 0-9.17.723-11.463 1.807-2.293 1.083-4.585 5.291-5.799 6.917-1.214 1.625-3.776 1.934-3.776 1.934 5.664 10.658 12.946 10.116 21.038 10.116 8.091 0 15.374.542 21.038-10.116 0 0-2.562-.309-3.776-1.934-1.214-1.626-3.506-5.834-5.799-6.917-2.293-1.084-9.17-1.807-11.463-1.807"/>
    <path fill="#4a7b32" d="M254.627 142.6665c-.732 0-1.473-.005-2.22-.005-.747 0-1.486.005-2.219.005-7.203 0-13.677-.447-18.818-10.121 0 0 2.562-.308 3.776-1.934 1.213-1.626 3.506-5.833 5.798-6.917 2.293-1.084 9.171-1.807 11.463-1.807 2.293 0 9.171.723 11.463 1.807 2.293 1.084 4.586 5.291 5.799 6.917 1.214 1.626 3.776 1.934 3.776 1.934-5.141 9.675-11.615 10.121-18.818 10.121m1.553-1.03c7.053 0 11.532-1.551 15.92-8.645-.927-.374-2.913-.486-3.648-1.471-.308-.413-.707-2.535-1.108-3.145-1.115-1.694-2.747-2.657-4.123-3.308-1.887-.892-8.41-1.66-10.814-1.66s-9.138.152-11.025 1.044c-1.375.651-3.181 2.762-4.296 4.455-.401.61-.415 2.201-.723 2.614-.735.985-3.064 1.097-3.992 1.471 4.388 7.094 6.784 8.247 17.817 8.156l1.094-.003 1.239.333 1.432-.08.954.398"/>
    <path fill="#dfded1" d="M334.5692 17.7162s-1.048 16.624-1.947 21.716c-.899 5.093-6.889 5.093-9.585 2.696-2.696-2.396-4.493-8.986-1.797-13.179 2.695-4.194 8.237-10.334 13.329-11.233m-159.2913-1.0941s-.06 1.235.096 3.471c.026.367-1.571 3.357-1.542 3.76.381 5.322 1.04 11.191 1.624 14.503.899 5.092 6.89 5.092 9.585 2.696 2.696-2.397 4.493-8.986 1.798-13.18-2.696-4.193-6.469-10.351-11.561-11.25"/>
    <path fill="#e0dc01" d="M262.7831 132.472c0-3.945-4.559-7.143-10.182-7.143s-10.182 3.198-10.182 7.143 4.559 7.143 10.182 7.143 10.182-3.198 10.182-7.143"/>
    <path fill="#b3b111" d="M256.8912 132.472c0-3.337-1.921-6.042-4.29-6.042-2.369 0-4.29 2.705-4.29 6.042 0 3.337 1.921 6.042 4.29 6.042 2.369 0 4.29-2.705 4.29-6.042"/>
    <path fill="#dfded1" d="M251.2576 137.2299c0-1.919-1.556-3.474-3.475-3.474-1.918 0-3.474 1.555-3.474 3.474 0 1.919 1.556 3.475 3.474 3.475 1.919 0 3.475-1.556 3.475-3.475"/>
    <path fill="#bc8a72" d="M261.7287 94.5752c4.856.879-.084.41 3.823.821s3.701 2.467 5.963 3.701c2.261 1.234 5.346 1.439 7.196.617 1.851-.823.617-1.645 4.729-2.056 4.112-.412 4.935.205 6.991 2.261 2.056 2.057 3.495 3.085 6.58 3.496 3.084.411 4.317 3.495 7.607 4.934 3.29 1.44 2.879 1.234 5.346 1.645 2.467.412 3.701.412 6.991 3.907 3.29 3.495 6.374 2.056 7.607 4.729 1.234 2.673 3.039 5.274 3.679 6.029.639.756 2.901 1.99 2.49 5.28-.411 3.29-3.907 5.346-7.813 7.196-3.907 1.851-6.786 2.879-8.636 5.346-1.851 2.467-3.496 3.907-3.907 6.374-.411 2.467-2.613 1.533-3.642 2.15-1.028.617-2.436 3.64-7.165 1.378-4.729-2.262-8.417-3.036-10.473-3.858-2.056-.823-4.279-3.452-5.512-4.686-1.234-1.233-2.493-.487-5.577-.899-3.084-.411-1.153-1.69-1.359-2.718-.206-1.028-2.321-3.189-1.087-3.805 1.233-.617.61-3.388.815-4.621.206-1.234-2.91-1.14-4.349-2.991-1.439-1.85-.511-2.979-1.951-5.035-1.439-2.056-6.374-4.317-7.813-4.523-1.439-.206-5.14 1.234-7.196-1.234-2.056-2.467-.451-2.466-.246-6.167.206-3.7 2.714-6.497 2.714-8.142 0-1.645.987-8.636.987-8.636s.466-.989 3.208-.493m-18.2584 1.2337c-2.994.006-3.209.41-6.499 1.849-3.289 1.439-5.551 1.851-7.607 1.645-2.056-.206-1.234-2.879-3.701-3.29-2.468-.411-5.963.823-7.197 1.851-1.233 1.028-2.056 3.701-6.374 4.317-4.317.617-2.261 2.057-3.495 3.907-1.234 1.851-2.262-.206-6.374-.617-4.112-.411-4.318 2.262-7.402 3.907-3.084 1.645-4.523 3.701-5.14 4.935-.617 1.233-3.907 2.261-6.785 3.289-2.879 1.028-2.468 2.879-3.907 5.346-1.439 2.468-4.524.823-4.524.823l-.205.411 1.234 3.495c1.233 3.496 1.644 2.879 1.644 6.169 0 3.289 4.935 2.467 10.281 5.14 5.346 2.673 6.374 3.084 7.402 6.374 1.028 3.29.305 1.196 2.773 6.748 2.467 5.551 7.716-.827 7.716-.827s3.876-1.037 7.166-1.654c3.29-.616 4.073.613 5.512-.826 1.44-1.44 5.619-2.619 7.264-4.264 1.644-1.644 2.261-3.289 1.233-7.813-1.028-4.523-.613-5.13 2.06-5.541 2.673-.411 3.274-.732 4.918-3.405 1.645-2.673 4.536-5.035 5.153-5.447.617-.411 4.318-.411 6.785-.411 2.468 0 4.935-2.056 4.935-2.056s-.822-5.346-.617-8.43c.206-3.084-2.301-7.894-2.301-8.716 0-.823-2.221-3.331-2.221-5.182 0 0-.25-1.73-1.727-1.727"/>
    <path fill="#946e59" d="M194.8213 145.3598s1.908-3.235 4.626-5.409c2.718-2.175 5.437-4.349 7.068-4.893 1.631-.544 6.523-5.98 10.329-7.611 3.806-1.631 8.155-1.088 10.873-4.35 2.718-3.261 0-4.893 5.98-5.436 5.981-.544 8.155 0 10.874-.544 2.718-.543 8.154 0 8.154 0s-.845.242-1.422 1.539c-.576 1.297 1.729.288-.864 2.161s-1.585.865-6.195 1.873c-4.611 1.009-3.747.288-6.34 2.305-2.593 2.018-4.034 2.594-5.907 2.594-1.873 0-2.017-.144-5.331 1.008-3.314 1.153-3.89.721-5.331 3.17-1.441 2.45.144 2.594-4.611 4.755-4.754 2.161-6.051 1.873-8.789 3.602-2.737 1.729-.864 1.297-5.331 3.89-4.466 2.593-4.466 1.297-5.619 3.458-1.152 2.161-2.305 3.746-2.305 3.746s-2.017-2.161-2.017-3.314c0-1.152 2.158-2.544 2.158-2.544m58.7878-27.5686c.604-.949 3.458 1.585 4.899 1.009 1.441-.577 4.034-1.729 5.907-.721 1.873 1.009 1.585 1.297 4.178 1.729 2.594.432 4.899.432 6.916 1.297 2.017.864 2.305 1.729 4.899 2.881 2.593 1.153 4.899 3.17 7.78 4.467 2.882 1.297 4.755 1.441 7.781 2.161 3.025.721 5.186 1.153 7.06 3.746 1.872 2.594 2.449 3.602 4.034 4.611 1.585 1.008 2.593 2.449 3.746 3.025 1.152.577 2.449 3.17 2.449 3.17s0 1.297-.72 2.594c-.721 1.296-1.153 2.449-1.153 2.449s-1.153-1.441-1.153-2.017c0-.576.721-2.305-1.296-3.458s-2.306-2.161-3.746-3.026c-1.441-.864-2.018-.576-3.17-2.161-1.153-1.585-3.314-1.297-4.467-2.882-1.152-1.584-.432-2.449-3.458-3.313-3.025-.865-4.322.288-5.907-1.153s-1.008-2.305-2.737-2.593c-1.729-.289-3.458 1.729-6.196-.145-2.737-1.873-3.314-2.017-5.331-3.602-2.017-1.584-3.458-1.873-5.043-2.305-1.584-.432-4.466-.864-4.466-.864l-9.942-2.306s-1.873-1.008-.864-2.593"/>
    <path fill="#bc8a72" d="M251.3374 104.7802s-1.041-2.291-1.041-3.54c0-1.25-.833-3.957-.417-4.998.417-1.041 2.132-2.271 2.941-2.593.808-.323 1.224-.531 1.849.927.625 1.457 1.874 3.957-.208 5.623-2.083 1.665-1.25 4.789-1.874 6.455-.625 1.666-1.25-1.874-1.25-1.874"/>
    <path fill="#dfded1" d="M311.1674 60.3748s1.071-.268 1.785-.268 1.963-.268 2.142.714c.178.982.356 1.874.267 2.856-.089.981-.803 3.748-.892 4.016-.089.267-1.25 2.32-2.588 3.48l-.446-1.785.892-1.785s-.803-1.16-1.071-1.784c-.267-.625.446-3.749.446-3.749s-.803-.803-.535-1.695m-120.9617-1.9016c.252-.146-1.148-.208-2.585.608-.68.387-1.292 1.217-1.216 2.053.076.836.836 1.673 1.064 2.585.228.912 2.661 3.725 2.965 3.953.304.228.836.38.836.38s.457-.836.457-1.064c0-.228-.837-.836-.609-1.749.228-.912-.532-2.356-.304-2.965.228-.608.761-.912.761-1.976 0-1.065-1.369-1.825-1.369-1.825"/>
    <path fill="#79230f" d="M243.3405 169.9547c-.692-.15-1.402-.389-1.879-.912-.747-.818-.702-2.13-.199-3.118.503-.987 1.371-1.73 2.206-2.458 2.165-1.889 4.269-3.887 5.893-6.257 1.624-2.37 2.753-5.153 2.776-8.025-.182 2.46.805 4.98 2.609 6.663 1.034.964 2.302 1.651 3.343 2.609 2.975 2.739 3.607 7.123 4.061 11.142.028.242.044.518-.122.696-.3.322-.827.025-1.144-.279-1.038-.996-1.991-2.081-2.844-3.239-.284-.386-.584-.8-1.032-.97-.946-.359-1.876.542-2.428 1.39-.553.848-1.229 1.858-2.241 1.833-.321-.008-.63-.128-.951-.147-.552-.033-1.071.23-1.579.448-2.023.868-4.317 1.089-6.469.624m-14.7646 6.1522c.341.239.741.381 1.144.489 1.269.338 2.611.357 3.866.745s2.489 1.294 2.69 2.592c.169 1.092-.425 2.142-.996 3.088-1.222 2.024-2.444 4.047-3.666 6.071.418-1.715.837-3.429 1.255-5.143.166-.681.317-1.455-.074-2.036-.728-1.079-2.431-.462-3.418.385-.988.847-2.223 1.91-3.412 1.38.9-5.749-2.478-11.637-7.417-14.714s-11.129-3.645-16.864-2.663c.958-.794 1.948-1.606 3.133-1.985 2.771-.885 6.363.624 8.389-1.463.596 2.026 3.1 2.663 5.191 2.962 2.316.33 4.632.661 6.948.992.103 2.692.805 5.358 2.041 7.751.302.585.652 1.171 1.19 1.549m17.6152 7.3207c1.998-2.707 3.126-6.054 5.528-8.411.366-.358.871-.714 1.35-.533.329.125.519.462.681.775 1.752 3.381 3.505 6.763 5.258 10.144 1.154 2.225 2.34 4.611 2.095 7.105-.914-.836-1.362-2.052-2.036-3.093-1.307-2.016-3.566-3.385-5.958-3.61-2.392-.224-4.867.699-6.526 2.437-.438.029-.827-.451-.708-.872-1.778 1.511-3.425 3.176-4.917 4.97-.038-1.762.801-3.434 1.854-4.847 1.053-1.414 2.332-2.647 3.379-4.065m-8.7031 14.0952c.341-.245.731-.417 1.136-.527 1.347-.367 2.868-.014 3.915.909 1.047.922 1.589 2.387 1.394 3.769-.077-1.552-1.803-2.614-3.353-2.496-1.55.119-2.897 1.085-4.059 2.117-.608-1.271-.178-2.95.967-3.772m31.2644 4.6712c-.249-.009-.498-.018-.746-.028-.387-.63-1.126-.973-1.858-1.074-2.124-.293-4.308 1.462-4.479 3.6-.773-1.139-1.574-2.574-.964-3.807.388-.784 1.249-1.218 2.094-1.447 2.361-.638 5.417.369 5.953 2.756m19.9835-38.8671c3.253-.785 6.544-1.575 9.891-1.578 5.588-.005 11.144 2.297 15.091 6.252-5.485-2.831-11.991-2.539-18.154-2.178-1.133.067-2.292.139-3.341.574-1.422.591-2.491 1.781-3.707 2.726-1.294 1.005-2.781 1.747-4.044 2.791-3.545 2.93-4.83 8.287-2.999 12.506-1.075-1.924-3.332-2.914-5.521-3.169-1.138-.133-2.377-.078-3.304.597-.927.674-1.333 2.141-.572 2.998-1.29-.896-1.965-2.596-1.641-4.132.323-1.537 1.627-2.82 3.168-3.119.715-.139 1.493-.092 2.12-.463.402-.238.693-.622.973-.996.963-1.286 1.925-2.572 2.887-3.858.249-.333.509-.696.517-1.111.009-.47-.304-.874-.528-1.288-.517-.954-.582-2.141-.173-3.145 1.448.336 2.896.673 4.343 1.01-.386-2.426 2.606-3.841 4.994-4.417m-108.2417-4.894c.485.252.786-.528 1.065-.998.361-.607 1.118-.829 1.803-1.001 1.098-.274 2.195-.549 3.293-.823 1.429-.358 3.076-.678 4.269.187.884.641 1.266 1.893.892 2.919-.821 2.251-4.299 2.476-5.26 4.671-.354.807-.284 1.729-.209 2.607.144 1.672.289 3.344.433 5.015 2.684-3.781 5.867-7.208 9.44-10.164-1.114-.134-2.099-1.014-2.358-2.107-.219-.925.043-1.939-.311-2.821-.418-1.042-1.658-1.996-1.16-3.002-3.076.411-6.212.377-9.279-.101-.716-.111-1.489-.239-2.133.093-1.239.636-1.22 2.48-2.212 3.459-1.316 1.298-4.133.859-4.65 2.634 1.42-.367 2.841-.734 4.261-1.101.609-.157 1.357-.278 1.782.186.109.119.191.273.334.347m-27.454-19.1178c.662.531 1.682.226 2.31-.343.629-.57 1.031-1.35 1.631-1.95 1.098-1.098 2.703-1.462 4.174-1.96 1.471-.498 3.026-1.33 3.494-2.811.151-.479.178-1.005.429-1.44.894-1.554 3.928-1.036 4.342-2.78 1.032 2.488 2.064 4.977 3.096 7.465.539 1.299 1.088 2.701.783 4.073-.251 1.129-1.058 2.092-1.209 3.239-.088.665.053 1.337.07 2.007.087 3.365-2.905 6.32-2.527 9.665-2.41-2.245-4.977-4.32-7.678-6.206 1.884.311 3.768.621 5.653.932.812.134 1.762.228 2.349-.35.299-.294.439-.709.562-1.109 1.043-3.375 1.632-6.89 1.746-10.421.013-.408 0-.867-.294-1.15-.206-.198-.505-.261-.787-.305-1.03-.163-2.101-.199-3.098.102-1.741.526-3.052 2.027-3.786 3.691-.734 1.663-.974 3.496-1.206 5.299.634-.928.155-2.321-.809-2.901-.964-.579-2.22-.467-3.24.007-1.019.475-1.853 1.264-2.667 2.04-1.259 1.2-2.57 2.485-3.043 4.159-1.825-3.541-2.013-7.886-.498-11.571.116.868.184 1.743.203 2.618m.6545-22.977c1.006 1.08 1.767 2.387 2.211 3.795-.793-1.302-1.881-2.423-3.158-3.255-1.313-.856-2.864-1.447-3.817-2.691-.393-.512-.66-1.108-1.006-1.652-.984-1.545-2.637-2.646-4.442-2.957.183-1.325.786-2.592.764-3.93-.01-.58-.137-1.15-.264-1.715-.43-1.911-.859-3.822-1.289-5.732 1.123-.739 2.635.033 3.575.993.94.96 1.765 2.179 3.061 2.534.653-.698 1.333-1.414 2.213-1.786.88-.372 2.022-.305 2.649.416.379.437.516 1.036.858 1.503.451.615 1.196.925 1.852 1.315 2.345 1.394 3.698 3.953 4.934 6.384-.722-1.367-2.169-2.233-3.668-2.61-1.5-.377-3.069-.327-4.614-.276-1.412.048-2.99.169-3.928 1.225-1.157 1.302-.722 3.416.322 4.81 1.044 1.394 2.56 2.354 3.747 3.629m158.6075 41.948c.911 1.562 2.339 2.818 4.004 3.522-.469-.586-.938-1.171-1.408-1.757-.735-.918-1.516-2.076-1.107-3.179.284-.766 1.095-1.237 1.905-1.344.809-.107 1.626.088 2.415.299 1.374.367 2.733.79 4.091 1.213.707.22 1.415.44 2.122.66 2.572.801 5.143 1.601 7.715 2.402-1.402-1.459-4.131-1.137-5.259-2.816-.525-.782-.566-1.847-1.212-2.532-1.145-1.211-3.158-.42-4.806-.665-1.343-.199-2.527-1.138-3.885-1.15-1.971-.017-3.37 1.844-4.428 3.508-.22.347-.45.728-.415 1.138.021.252.141.483.268.701m28.0783-11.3076c-.341.97-.98 1.815-1.729 2.519-1.25 1.174-2.936 2.184-3.209 3.877-1.293-1.392-1.865-3.287-2.398-5.111-.726-2.487-1.459-5.022-1.404-7.613.054-2.59 1.022-5.292 3.11-6.827.876-.644 1.908-1.057 2.764-1.729 3.028-2.377 3.018-7.18 5.796-9.845.82-.786 1.939-1.984 1.156-2.808 1.467 1.516 3.357 2.618 5.399 3.147-2.024.107-3.959 1.303-4.959 3.067-1.001 1.763-1.036 4.037-.089 5.83 1.618 3.066 5.494 4.238 7.571 7.013 1.556 2.078 1.905 4.997.883 7.383-.919-3.361-4.045-5.566-6.973-7.454-1.897-1.224-3.873-2.463-6.104-2.812-2.23-.35-4.797.425-5.88 2.406-.702 1.285-.678 2.84-.482 4.291.228 1.684.722 3.441 1.979 4.586 1.256 1.144 3.461 1.37 4.569.08m12.4082-39.1437c-.618-.472-1.403-.759-1.858-1.39-.267-.369-.394-.826-.668-1.19-.273-.365-.8-.621-1.183-.374.693-1.587 1.22-3.247 1.568-4.943 1.136.136 2.272.272 3.407.409 1.666.2 3.404.393 4.984-.172 1.581-.564 2.938-2.134 2.671-3.791.5 1.516.066 3.156-.208 4.728-.73 4.192-.288 8.488.156 12.719-.171-1.666-2.32-2.764-3.77-1.926-.394.227-.718.556-1.037.88l-3.24 3.3c.44-1.411.884-2.848.88-4.325-.004-1.478-.527-3.029-1.702-3.925m-18.6711-46.0057c1.044-.207 2.148-.357 3.154-.009.707.244 1.309.717 1.895 1.182l5.991 4.743c1.45 1.149 2.911 2.307 4.119 3.709 2.412 2.799 3.667 6.385 4.871 9.878.12.348.241.719.154 1.076-.09.366-.379.643-.639.915-3.244 3.404-3.035 9.484.435 12.657-3.793-2.665-5.613-7.842-4.323-12.294.627-2.163 1.749-4.899.008-6.328-.463-.379-1.054-.564-1.557-.89-1.965-1.277-1.994-4.163-3.406-6.034-.781-1.035-1.944-1.7-3.074-2.336-4.037-2.273-8.279-4.606-12.91-4.744 1.713-.658 3.482-1.169 5.282-1.525M185.848 51.5141c-1.588.325-3.393.264-4.595 1.352-1.053.953-1.29 2.481-1.748 3.825-1.293 3.798-4.95 6.674-8.946 7.037 3.792-.961 6.551-4.408 7.772-8.124 1.22-3.716 1.163-7.714 1.094-11.625.337 1.384.756 2.798 1.662 3.897.906 1.099 2.417 1.815 3.779 1.396 1.42-.436 2.235-1.892 2.844-3.247 1.192-2.651 2.152-5.406 2.865-8.224 2.941-2.003 7.15 1.013 10.426-.376 2.107-.893 3.897-3.543 6.013-2.67-.761-.984.464-2.378 1.686-2.606 1.223-.227 2.565.072 3.669-.5 2.205-1.142 2.006-4.905 4.303-5.847-.004 2.191-.007 4.383-.01 6.574-4.007.084-6.725 3.944-10.103 6.1-2.414 1.542-5.282 2.24-7.735 3.719-4.612 2.779-7.7 8.241-12.976 9.319m144.8938-4.5558c-3.84 1.486-8.698-.886-9.889-4.828-.161-.533-.287-1.125-.717-1.479-.828-.683-2.238-.067-3.063-.753-.461-.383-.565-1.037-.847-1.566-.768-1.435-2.737-1.735-4.326-1.383-1.589.352-3.067 1.17-4.687 1.332-3.138.315-5.928-1.842-8.341-3.874-2.049-1.727-4.099-3.453-6.148-5.18.155 3.634 2.476 6.975 5.582 8.869 3.105 1.894 6.892 2.456 10.514 2.118.532-.05 1.086-.116 1.588.069 1.101.405 1.445 1.749 1.793 2.868.349 1.12 1.207 2.393 2.357 2.165-.082-.884.912-1.561 1.797-1.498.885.063 1.647.62 2.354 1.157 2.467 1.87 4.934 3.741 7.4 5.611.918.696 1.878 1.447 2.293 2.521.941 2.441-1.342 4.973-1.332 7.589 3.979-3.156 5.546-9.018 3.672-13.738M157.4364 61.1686c1.108 3.34 3.703 6.156 6.942 7.532-1.349-.816-3.052.551-3.597 2.03-.544 1.48-.539 3.181-1.43 4.482-.505.738-1.252 1.269-1.9 1.886-2.129 2.026-3.188 5.119-2.749 8.025.266 1.755 1.032 3.395 1.43 5.125.398 1.73.362 3.719-.789 5.071.845-2.646-1.749-4.982-3.163-7.372-1.724-2.916-1.687-6.786.092-9.668 1.445-2.342 4.022-4.358 3.839-7.104-.094-1.416-.945-2.667-1.261-4.051-.517-2.258.583-4.792 2.586-5.956"/>
    <path fill="#a63417" d="M224.7554 13.9436c-.569.706-1.153 1.403-1.759 2.079.209-.731.267-1.215.267-1.215s-3.276-.764-5.569.219c-2.293.982-3.385 2.074-4.368 3.275-.983 1.202-.328 3.604-.328 3.604.303.096.644.173 1.007.231-.568.148-1.146.26-1.733.321-.097.009-.206.014-.279-.051-.034-.031-.055-.074-.074-.116-.499-1.104-.458-2.395-.105-3.554.354-1.158.996-2.206 1.68-3.206.518-.758 1.07-1.505 1.768-2.102 1.388-1.186 3.257-1.688 5.081-1.739 1.825-.051 3.633.311 5.422.67-.22.59-.615 1.094-1.01 1.584m21.7608 4.9852c-.178 1.547-.812 3-1.438 4.426-.27.614-.54 1.229-.81 1.843.332-2.124.004-4.34-.899-6.289.177-.005.354-.021.533-.061 0 0 .546-1.856.328-3.604-.219-1.747-.656-2.839-1.093-3.166-.436-.328-1.637-2.621-6.77-.655 0 0 .027.149.093.401-.177-.416-.255-.872-.203-1.323.061-.537.299-1.067.716-1.413.288-.24.647-.381 1.011-.474 1.669-.428 3.49.121 4.845 1.185 1.354 1.064 2.284 2.591 2.912 4.194.614 1.566.968 3.265.775 4.936m22.0512-7.8257c-.769-.612-2.513-1.509-5.119-.008-3.268 1.881-2.228 4.483-2.005 7.557-2.332 1.581-5.388-.308-8.448 6.353-.116-3.26 1.678-5.816 2.777-7.931 1.465-2.821.334-2.257 2.632-4.454 1.161-1.109 2.495-2.016 3.823-2.918 1.149-.781 2.382-1.59 3.77-1.626 1.389-.037 2.898 1.067 2.74 2.447-.024.209-.089.398-.17.58m26.1977 10.4428c-.475.541-1.276.635-1.996.616-.396-.01-.789-.051-1.18-.106.258-.185.454-.422.579-.696.546-1.202-.873-4.15-2.184-4.805-1.227-.614-4.179-1.993-7.867-1.628-.917-1.189-1.833-2.379-2.749-3.568 2.035-.351 4.104-.627 6.16-.445 2.057.183 4.121.858 5.674 2.218 1.625 1.423 2.562 3.455 3.438 5.429.428.964.821 2.191.125 2.985"/>
  </g>
</svg>
