<?xml version="1.0" encoding="UTF-8" standalone="no"?>
<!-- Generator: Adobe Illustrator 19.0.0, SVG Export Plug-In . SVG Version: 6.00 Build 0)  -->

<svg
   xmlns:dc="http://purl.org/dc/elements/1.1/"
   xmlns:cc="http://creativecommons.org/ns#"
   xmlns:rdf="http://www.w3.org/1999/02/22-rdf-syntax-ns#"
   xmlns:svg="http://www.w3.org/2000/svg"
   xmlns="http://www.w3.org/2000/svg"
   xmlns:sodipodi="http://sodipodi.sourceforge.net/DTD/sodipodi-0.dtd"
   xmlns:inkscape="http://www.inkscape.org/namespaces/inkscape"
   version="1.1"
   id="Layer_1"
   x="0px"
   y="0px"
   viewBox="0 0 549 342.6"
   xml:space="preserve"
   inkscape:version="0.91 r13725"
   sodipodi:docname="console.svg"><metadata
     id="metadata642"><rdf:RDF><cc:Work
         rdf:about=""><dc:format>image/svg+xml</dc:format><dc:type
           rdf:resource="http://purl.org/dc/dcmitype/StillImage" /><dc:title /></cc:Work></rdf:RDF></metadata><defs
     id="defs640" /><sodipodi:namedview
     pagecolor="#ffffff"
     bordercolor="#666666"
     borderopacity="1"
     objecttolerance="10"
     gridtolerance="10"
     guidetolerance="10"
     inkscape:pageopacity="0"
     inkscape:pageshadow="2"
     inkscape:window-width="1920"
     inkscape:window-height="1027"
     id="namedview638"
     showgrid="false"
     inkscape:zoom="3.668197"
     inkscape:cx="417.08392"
     inkscape:cy="84.063682"
     inkscape:window-x="-8"
     inkscape:window-y="-8"
     inkscape:window-maximized="1"
     inkscape:current-layer="Layer_1" /><path
     fill="#181515"
     d="M1020.6,444.1"
     id="path3" /><g
     id="g5"><rect
       x="0"
       fill="#2D2A2A"
       width="549"
       height="342.6"
       id="rect7" /><polygon
       fill="#231E1E"
       points="20,0 20,214.3 9,234.4 9,342.6 0,342.6 0,0  "
       id="polygon9" /><polygon
       fill="#231E1E"
       points="529,0 528.9,214.1 540,234.4 540,342.6 549,342.6 549,0  "
       id="polygon11" /><path
       fill="#181515"
       d="M239.6,221.7H29.2c-4.6,0-8.4-3.3-9.1-7.7L9,234.4c3.3,4.3,9.7,7.3,14.5,5.8c5.7-1.8,8.3-7,8.3-14.5H142   l0,0.2c0.1,7.1,2.6,12,8.3,13.8h89.3c15.5-0.3,18.3,1.7,26.7,10.9c22.6,26.8,60.5,44.4,103.4,44.4c43,0,80.9-17.6,103.4-44.4   c5.4-6.4,6.6-9.3,15-10.1c10.3-0.9,48,0,51.9-6.1c0,0-11.1-20.3-11.1-20.3c-0.8,4.3-4.6,7.7-9.1,7.7c-11.6,0.7-26.8-0.3-29.4,3.4   c-16,22.2-54.9,62.2-119.2,62.2s-90.5-29.4-116.4-57.1C249.1,223.5,248.4,221.5,239.6,221.7"
       id="path13" /><path
       fill="#312F2F"
       d="M519.6,221.8c-11.6,0.7-29.6-0.3-32.2,3.4c-16,22.2-52.2,62.2-116.6,62.2s-90.6-29.4-116.6-57.1   c-5.7-6.7-6.4-8.7-15.2-8.5l0,0H28.3c-5.1,0-9.3-4.2-9.3-9.3V0h509.9v212.5C528.9,217.6,524.7,221.7,519.6,221.8"
       id="path15" /><path
       fill="none"
       stroke="#D6D5D5"
       stroke-miterlimit="10"
       d="M528.8,217.1"
       id="path17" /><path
       fill="#181515"
       d="M36.2,317.5l-10.9-78c3.2-1.6,5.2-4.5,6.1-8.5L36.2,317.5z"
       id="path19" /><path
       fill="#181515"
       d="M138.7,317.5l3.3-91.6c0.1,7.1,2.6,12,8.3,13.8L138.7,317.5z"
       id="path21" /><g
       id="g23"><rect
         x="49.9"
         y="243.5"
         width="19.3"
         height="69.5"
         id="rect25" /><rect
         x="50.6"
         y="244.2"
         fill="#1B1818"
         width="6.5"
         height="68.9"
         id="rect27" /><rect
         x="61.9"
         y="244.2"
         fill="#1B1818"
         width="6.5"
         height="68.9"
         id="rect29" /><g
         id="g31"><rect
           x="52.4"
           y="248"
           fill="#2B2828"
           width="14.2"
           height="6.9"
           id="rect33" /><rect
           x="52.4"
           y="262.4"
           fill="#3C3B3B"
           width="14.2"
           height="0.4"
           id="rect35" /><rect
           x="52.4"
           y="267.2"
           fill="#3F3F3E"
           width="14.2"
           height="10.1"
           id="rect37" /><rect
           x="52.4"
           y="254.9"
           fill="#333030"
           width="14.2"
           height="7.5"
           id="rect39" /><rect
           x="52.4"
           y="249.1"
           fill="#5D1314"
           width="14.2"
           height="0.8"
           id="rect41" /><rect
           x="52.4"
           y="262.9"
           fill="#414040"
           width="14.2"
           height="0.9"
           id="rect43" /><rect
           x="52.4"
           y="263.7"
           fill="#464646"
           width="14.2"
           height="0.4"
           id="rect45" /><rect
           x="52.4"
           y="264.2"
           fill="#535353"
           width="14.2"
           height="0.4"
           id="rect47" /><rect
           x="52.4"
           y="264.6"
           fill="#5F5F5F"
           width="14.2"
           height="0.4"
           id="rect49" /><rect
           x="52.4"
           y="265"
           fill="#6A6A6A"
           width="14.2"
           height="0.4"
           id="rect51" /><rect
           x="52.4"
           y="265.5"
           fill="#707070"
           width="14.2"
           height="0.4"
           id="rect53" /><rect
           x="52.4"
           y="265.9"
           fill="#6A6969"
           width="14.2"
           height="0.4"
           id="rect55" /><rect
           x="52.4"
           y="266.4"
           fill="#5A5A5A"
           width="14.2"
           height="0.4"
           id="rect57" /><rect
           x="52.4"
           y="266.8"
           fill="#484848"
           width="14.2"
           height="0.4"
           id="rect59" /></g><polygon
         fill="#0D0D0C"
         points="69.1,243.5 49.9,243.5 47.4,239.8 71.6,239.8   "
         id="polygon61" /><polygon
         fill="#4E4B4A"
         points="69.1,313.1 49.9,313.1 47.4,316.8 71.6,316.8   "
         id="polygon63" /><polygon
         fill="#211E1D"
         points="49.9,313.1 47.4,316.8 47.4,239.8 49.9,243.5   "
         id="polygon65" /><polygon
         fill="#211E1D"
         points="69.1,313.1 71.6,316.8 71.6,239.8 69.1,243.5   "
         id="polygon67" /></g><g
       id="g69"><path
         fill="none"
         stroke="#5D1314"
         stroke-miterlimit="10"
         d="M116.6,248.1"
         id="path71" /><path
         fill="none"
         stroke="#5D1314"
         stroke-miterlimit="10"
         d="M116.6,255.8"
         id="path73" /><path
         fill="none"
         stroke="#5D1314"
         stroke-miterlimit="10"
         d="M127.3,255.8"
         id="path75" /><g
         id="g77"><rect
           x="100.3"
           y="248"
           fill="#414748"
           width="9.2"
           height="7.6"
           id="rect79" /><polygon
           fill="#262323"
           points="109.5,248 100.3,248 89.7,243.8 120.1,243.8    "
           id="polygon81" /><polygon
           fill="#33302F"
           points="100.3,255.6 89.7,259.7 89.7,243.8 100.3,248    "
           id="polygon83" /><polygon
           fill="#262323"
           points="109.5,255.6 100.3,255.6 89.7,259.7 120.1,259.7    "
           id="polygon85" /><path
           fill="#5D1314"
           d="M105,257.8L105,257.8c-0.3,0-0.5-0.2-0.5-0.4v-11.2c0-0.2,0.2-0.4,0.4-0.4h0.1c0.2,0,0.4,0.2,0.4,0.4     v11.2C105.3,257.6,105.2,257.8,105,257.8z"
           id="path87" /><polygon
           fill="#33302F"
           points="109.5,255.6 120.1,259.7 120.1,243.8 109.5,248    "
           id="polygon89" /></g><rect
         x="120.1"
         y="243.8"
         fill="#282828"
         width="7.7"
         height="15.9"
         id="rect91" /><polygon
         fill="#0D0D0C"
         points="127.8,243.8 89.7,243.8 86.9,241.1 130.7,241.1   "
         id="polygon93" /><polygon
         fill="#4E4B4A"
         points="127.8,259.7 89.7,259.7 86.9,262.5 130.7,262.5   "
         id="polygon95" /><polygon
         fill="#211E1D"
         points="86.9,262.5 89.7,259.7 89.7,243.8 86.9,241.1   "
         id="polygon97" /><polygon
         fill="#211E1D"
         points="130.7,262.5 127.8,259.7 127.8,243.8 130.7,241.1   "
         id="polygon99" /><g
         id="g101"><path
           fill="#C4C4C4"
           d="M86.3,265.9c0-0.4,0.1-0.8,0.2-1.1c0.1-0.2,0.2-0.4,0.4-0.6s0.4-0.3,0.6-0.4c0.3-0.1,0.6-0.2,0.9-0.2     c0.6,0,1.1,0.2,1.5,0.6s0.6,0.9,0.6,1.6c0,0.7-0.2,1.2-0.6,1.6s-0.9,0.6-1.5,0.6c-0.6,0-1.1-0.2-1.5-0.6     C86.5,267.1,86.3,266.6,86.3,265.9z M87.2,265.8c0,0.5,0.1,0.9,0.3,1.1c0.2,0.3,0.5,0.4,0.9,0.4s0.6-0.1,0.9-0.4     c0.2-0.3,0.3-0.6,0.3-1.1c0-0.5-0.1-0.9-0.3-1.1s-0.5-0.4-0.9-0.4s-0.6,0.1-0.9,0.4C87.3,265,87.2,265.4,87.2,265.8z"
           id="path103" /><path
           fill="#C4C4C4"
           d="M91.2,268v-4.3H92l1.8,2.9v-2.9h0.8v4.3h-0.9l-1.7-2.8v2.8H91.2z"
           id="path105" /></g><g
         id="g107"><path
           fill="#C4C4C4"
           d="M119.3,265.9c0-0.4,0.1-0.8,0.2-1.1c0.1-0.2,0.2-0.4,0.4-0.6s0.4-0.3,0.6-0.4c0.3-0.1,0.6-0.2,0.9-0.2     c0.6,0,1.1,0.2,1.5,0.6s0.6,0.9,0.6,1.6c0,0.7-0.2,1.2-0.6,1.6s-0.9,0.6-1.5,0.6c-0.6,0-1.1-0.2-1.5-0.6     C119.5,267.1,119.3,266.6,119.3,265.9z M120.2,265.8c0,0.5,0.1,0.9,0.3,1.1c0.2,0.3,0.5,0.4,0.9,0.4s0.6-0.1,0.9-0.4     c0.2-0.3,0.3-0.6,0.3-1.1c0-0.5-0.1-0.9-0.3-1.1s-0.5-0.4-0.9-0.4s-0.6,0.1-0.9,0.4C120.3,265,120.2,265.4,120.2,265.8z"
           id="path109" /><path
           fill="#C4C4C4"
           d="M124.2,268v-4.3h2.9v0.7h-2.1v1h1.8v0.7h-1.8v1.8H124.2z"
           id="path111" /><path
           fill="#C4C4C4"
           d="M127.9,268v-4.3h2.9v0.7h-2.1v1h1.8v0.7h-1.8v1.8H127.9z"
           id="path113" /></g></g><g
       id="g115"><g
         id="g117"><rect
           x="42.6"
           y="246.2"
           fill="#C4C4C4"
           width="2.9"
           height="1"
           id="rect119" /><rect
           x="42.6"
           y="249.6"
           fill="#C4C4C4"
           width="2.9"
           height="1"
           id="rect121" /><rect
           x="42.6"
           y="253"
           fill="#C4C4C4"
           width="2.9"
           height="1"
           id="rect123" /><rect
           x="42.6"
           y="255.9"
           fill="#C4C4C4"
           width="2.9"
           height="1"
           id="rect125" /><rect
           x="42.6"
           y="259.3"
           fill="#C4C4C4"
           width="2.9"
           height="1"
           id="rect127" /><rect
           x="42.6"
           y="262.7"
           fill="#C4C4C4"
           width="2.9"
           height="1"
           id="rect129" /><rect
           x="42.5"
           y="266"
           fill="#C4C4C4"
           width="2.9"
           height="1"
           id="rect131" /><rect
           x="42.6"
           y="269.2"
           fill="#C4C4C4"
           width="2.9"
           height="1"
           id="rect133" /><rect
           x="42.6"
           y="272.4"
           fill="#C4C4C4"
           width="2.9"
           height="1"
           id="rect135" /><rect
           x="42.6"
           y="275.7"
           fill="#C4C4C4"
           width="2.9"
           height="1"
           id="rect137" /><rect
           x="42.6"
           y="279.1"
           fill="#C4C4C4"
           width="2.9"
           height="1"
           id="rect139" /></g><g
         id="g141"><path
           fill="#C4C4C4"
           d="M38.7,248.4H38v-2.6c-0.3,0.2-0.5,0.4-0.9,0.5v-0.6c0.2-0.1,0.4-0.2,0.6-0.3c0.2-0.2,0.4-0.4,0.4-0.6h0.6     V248.4z"
           id="path143" /><path
           fill="#C4C4C4"
           d="M40.9,244.8c0.3,0,0.6,0.1,0.8,0.4c0.2,0.3,0.3,0.8,0.3,1.5s-0.1,1.2-0.4,1.5c-0.2,0.2-0.5,0.4-0.8,0.4     c-0.3,0-0.6-0.1-0.8-0.4s-0.3-0.7-0.3-1.4c0-0.7,0.1-1.2,0.4-1.5C40.2,244.9,40.5,244.8,40.9,244.8z M40.9,245.4     c-0.1,0-0.2,0-0.2,0.1s-0.1,0.1-0.2,0.3c0,0.2-0.1,0.5-0.1,0.9s0,0.7,0.1,0.9s0.1,0.3,0.2,0.3c0.1,0.1,0.1,0.1,0.2,0.1     s0.2,0,0.2-0.1s0.1-0.1,0.2-0.3c0-0.2,0.1-0.5,0.1-0.9s0-0.7-0.1-0.9s-0.1-0.3-0.2-0.3C41,245.4,40.9,245.4,40.9,245.4z"
           id="path145" /></g><g
         id="g147"><path
           fill="#C4C4C4"
           d="M39.6,263.9l0.7-0.1c0,0.2,0.1,0.3,0.2,0.4c0.1,0.1,0.2,0.1,0.3,0.1c0.1,0,0.3-0.1,0.4-0.2     s0.1-0.3,0.1-0.5c0-0.2,0-0.4-0.1-0.5c-0.1-0.1-0.2-0.2-0.4-0.2c-0.2,0-0.4,0.1-0.5,0.3l-0.6-0.1l0.4-1.9h1.8v0.6h-1.3l-0.1,0.6     c0.2-0.1,0.3-0.1,0.5-0.1c0.3,0,0.6,0.1,0.8,0.3c0.2,0.2,0.3,0.5,0.3,0.9c0,0.3-0.1,0.6-0.3,0.8c-0.2,0.3-0.6,0.5-1,0.5     c-0.3,0-0.6-0.1-0.8-0.3S39.6,264.2,39.6,263.9z"
           id="path149" /></g><g
         id="g151"><path
           fill="#C4C4C4"
           d="M40.7,277.8c0.3,0,0.6,0.1,0.8,0.4c0.2,0.3,0.3,0.8,0.3,1.5s-0.1,1.2-0.4,1.5c-0.2,0.2-0.5,0.4-0.8,0.4     c-0.3,0-0.6-0.1-0.8-0.4s-0.3-0.7-0.3-1.4c0-0.7,0.1-1.2,0.4-1.5C40.1,277.9,40.4,277.8,40.7,277.8z M40.7,278.3     c-0.1,0-0.2,0-0.2,0.1s-0.1,0.1-0.2,0.3c0,0.2-0.1,0.5-0.1,0.9s0,0.7,0.1,0.9s0.1,0.3,0.2,0.3c0.1,0.1,0.1,0.1,0.2,0.1     s0.2,0,0.2-0.1s0.1-0.1,0.2-0.3c0-0.2,0.1-0.5,0.1-0.9s0-0.7-0.1-0.9s-0.1-0.3-0.2-0.3C40.9,278.4,40.8,278.3,40.7,278.3z"
           id="path153" /></g></g><path
       fill="#1E1B1B"
       d="M70.5,41H0v157.9h70.5c3.3,0,6-2.7,6-6V47C76.5,43.7,73.8,41,70.5,41z"
       id="path155" /><g
       id="g157"><path
         fill="#070606"
         d="M71.5,52.3H0l0-6.2h71.5c0.5,0,0.9,0.4,0.9,0.9v4.3C72.4,51.9,72,52.3,71.5,52.3z"
         id="path159" /><path
         fill="#282424"
         d="M71.1,51.2H19v-6h52.1c0.5,0,0.9,0.4,0.9,0.9v4.1C72.1,50.8,71.7,51.2,71.1,51.2z"
         id="path161" /><rect
         x="0"
         y="45.2"
         fill="#1E1B1B"
         width="19"
         height="6"
         id="rect163" /><rect
         x="0"
         y="45.2"
         fill="#252222"
         width="19"
         height="0.9"
         id="rect165" /><path
         fill="#3C3939"
         d="M72.1,46.1H19v-0.9h52.1C71.7,45.2,72.1,45.6,72.1,46.1L72.1,46.1z"
         id="path167" /></g><path
       fill="none"
       stroke="#D6D5D5"
       stroke-miterlimit="10"
       d="M469.4,242.9"
       id="path169" /><path
       fill="none"
       stroke="#D6D5D5"
       stroke-miterlimit="10"
       d="M366.1,269.4"
       id="path171" /><ellipse
       fill="#1B1818"
       cx="370.8"
       cy="143.7"
       rx="140.5"
       ry="141"
       id="ellipse173" /><ellipse
       fill="#2C2929"
       cx="370.2"
       cy="140.5"
       rx="121.2"
       ry="116.7"
       id="ellipse175" /><g
       id="g177"><g
         id="g181" /></g><g
       id="g199"><g
         id="g201" /></g><path
       fill="#181515"
       d="M456.9,115H283.5c-10.3,0-18.8-8.5-18.8-18.8v0c0-10.3,8.5-18.8,18.8-18.8h173.4c10.3,0,18.8,8.5,18.8,18.8   v0C475.7,106.5,467.2,115,456.9,115z"
       id="path247" /><path
       d="M369.9,110.8h83.2c5.6,0,10.1-4.3,10.1-19h-10.1v-7.6h0.3h-83.2h0H287h0.3v7.6h-10.1c0,14.7,4.5,19,10.1,19h83.2"
       id="path249" /><path
       fill="#282424"
       d="M369.9,109.8h82.4c5.5,0,10-4,10-17.6h-10v-7h0.3h-82.4h0h-82.4h0.3v7h-10c0,13.6,4.5,17.6,10,17.6h82.4"
       id="path251" /><rect
       x="278.6"
       y="98.7"
       fill="#010102"
       width="183.2"
       height="0.9"
       id="rect253" /><g
       id="g255"><g
         id="g257"><path
           fill="#363636"
           d="M300,87.8h-1.8c0-0.4,0.4-0.7,0.9-0.7h0C299.6,87.1,300,87.4,300,87.8z"
           id="path259" /><path
           fill="#464646"
           d="M300,95.8h-1.8c0,0.4,0.4,0.7,0.9,0.7h0C299.6,96.5,300,96.2,300,95.8z"
           id="path261" /><rect
           x="298.2"
           y="87.8"
           fill="#424141"
           width="1.8"
           height="8"
           id="rect263" /></g><g
         id="g265"><path
           fill="#363636"
           d="M300,101.8h-1.8c0-0.3,0.4-0.6,0.9-0.6h0C299.6,101.2,300,101.5,300,101.8z"
           id="path267" /><path
           fill="#464646"
           d="M300,108.2h-1.8c0,0.3,0.4,0.6,0.9,0.6h0C299.6,108.8,300,108.6,300,108.2z"
           id="path269" /><rect
           x="298.2"
           y="101.8"
           fill="#424141"
           width="1.8"
           height="6.5"
           id="rect271" /></g><g
         id="g273"><path
           fill="#363636"
           d="M440.4,87.8h1.8c0-0.4-0.4-0.7-0.9-0.7l0,0C440.8,87.1,440.4,87.4,440.4,87.8z"
           id="path275" /><path
           fill="#464646"
           d="M440.4,95.8h1.8c0,0.4-0.4,0.7-0.9,0.7l0,0C440.8,96.5,440.4,96.2,440.4,95.8z"
           id="path277" /><rect
           x="440.4"
           y="87.8"
           fill="#424141"
           width="1.8"
           height="8"
           id="rect279" /></g><g
         id="g281"><path
           fill="#363636"
           d="M440.4,101.8h1.8c0-0.3-0.4-0.6-0.9-0.6l0,0C440.8,101.2,440.4,101.5,440.4,101.8z"
           id="path283" /><path
           fill="#464646"
           d="M440.4,108.2h1.8c0,0.3-0.4,0.6-0.9,0.6l0,0C440.8,108.8,440.4,108.6,440.4,108.2z"
           id="path285" /><rect
           x="440.4"
           y="101.8"
           fill="#424141"
           width="1.8"
           height="6.5"
           id="rect287" /></g></g><path
       fill="#811B15"
       d="M320,276.5v-29.7c15.3,6.7,32.3,10.4,50.2,10.4c17.9,0,34.9-3.7,50.2-10.4l0,0v29.6l0-0.8   c-15.7,5.5-32.6,9.1-50.2,9.1c-17.6,0-34.5-4.1-50.2-9.6"
       id="path289"
       style="fill:#dbdbdb;fill-opacity:1" /><g
       id="g291"><ellipse
         fill="#631418"
         cx="370.2"
         cy="270.3"
         rx="3.3"
         ry="3.5"
         id="ellipse293" /><ellipse
         fill="#F95D5D"
         cx="370.2"
         cy="270.3"
         rx="2.3"
         ry="2.3"
         id="ellipse295" /><g
         id="g297"><g
           id="g299"><path
             fill="#391516"
             d="M343.1,266.2c0.6,0.1,0.8,0.1,1.4,0.2c0.1,0,0.3,0,0.4,0.1c0.1,0,0.2,0.1,0.3,0.1c0.1,0,0.2,0.1,0.3,0.2      c0.1,0.1,0.2,0.1,0.2,0.2s0.1,0.2,0.1,0.3c0,0.1,0,0.3,0,0.4c0,0.4-0.2,0.7-0.5,0.8c-0.3,0.2-0.6,0.2-1.1,0.2      c-0.3,0-0.5-0.1-0.8-0.1c-0.1,0.6-0.1,0.8-0.2,1.4c-0.3,0-0.4-0.1-0.7-0.1C342.8,268.4,342.9,267.7,343.1,266.2z M343.6,268      c0.3,0,0.5,0.1,0.8,0.1c0.1,0,0.2,0,0.3,0c0.1,0,0.2,0,0.2-0.1c0.1,0,0.1-0.1,0.1-0.2c0-0.1,0.1-0.1,0.1-0.2c0-0.1,0-0.2,0-0.3      c0-0.1-0.1-0.1-0.1-0.2c-0.1,0-0.1-0.1-0.2-0.1c-0.1,0-0.2,0-0.3-0.1c-0.3,0-0.5-0.1-0.8-0.1C343.7,267.4,343.6,267.6,343.6,268      z"
             id="path301" /><path
             fill="#391516"
             d="M348.3,266.8c0.3,0,0.5,0.1,0.7,0.2s0.4,0.3,0.5,0.4c0.1,0.2,0.2,0.4,0.3,0.6s0.1,0.5,0.1,0.8      c0,0.3-0.1,0.5-0.2,0.8s-0.3,0.4-0.4,0.6c-0.2,0.1-0.4,0.3-0.6,0.3c-0.2,0.1-0.5,0.1-0.7,0.1c-0.3,0-0.5-0.1-0.7-0.2      c-0.2-0.1-0.4-0.3-0.5-0.5c-0.1-0.2-0.2-0.4-0.3-0.6c-0.1-0.2-0.1-0.5,0-0.8c0-0.3,0.1-0.5,0.2-0.8c0.1-0.2,0.3-0.4,0.4-0.6      c0.2-0.1,0.4-0.3,0.6-0.3C347.8,266.8,348.1,266.8,348.3,266.8z M348,270c0.2,0,0.3,0,0.5,0c0.1,0,0.3-0.1,0.4-0.2      c0.1-0.1,0.2-0.2,0.3-0.4c0.1-0.2,0.1-0.3,0.1-0.5c0-0.2,0-0.4,0-0.6c0-0.2-0.1-0.3-0.2-0.4c-0.1-0.1-0.2-0.2-0.3-0.3      s-0.3-0.1-0.4-0.1c-0.2,0-0.3,0-0.4,0c-0.1,0-0.3,0.1-0.4,0.2c-0.1,0.1-0.2,0.2-0.3,0.4c-0.1,0.2-0.1,0.3-0.1,0.5      c0,0.2,0,0.4,0,0.6c0,0.2,0.1,0.3,0.2,0.4c0.1,0.1,0.2,0.2,0.3,0.3C347.7,270,347.8,270,348,270z"
             id="path303" /><path
             fill="#391516"
             d="M355.3,267.6c-0.5,1.4-0.8,2.2-1.3,3.6c-0.3,0-0.4,0-0.6-0.1c-0.2-1.1-0.3-1.7-0.5-2.8      c-0.4,1.1-0.6,1.6-1,2.6c-0.3,0-0.4,0-0.6-0.1c-0.3-1.5-0.4-2.3-0.7-3.8c0.3,0,0.4,0,0.7,0.1c0.1,1,0.2,1.5,0.4,2.5      c0.4-1,0.6-1.4,0.9-2.4c0.3,0,0.4,0,0.7,0.1c0.2,1,0.3,1.5,0.5,2.5c0.3-1,0.5-1.5,0.8-2.4C354.8,267.5,355,267.5,355.3,267.6z"
             id="path305" /><path
             fill="#391516"
             d="M358.4,271.5c-1.2-0.1-1.7-0.1-2.9-0.2c0.1-1.5,0.2-2.2,0.3-3.7c1.1,0.1,1.7,0.1,2.8,0.2      c0,0.3,0,0.4,0,0.6c-0.8-0.1-1.2-0.1-2.1-0.1c0,0.3,0,0.5-0.1,0.8c0.8,0.1,1.2,0.1,1.9,0.1c0,0.3,0,0.4,0,0.6      c-0.8,0-1.2-0.1-2-0.1c0,0.4,0,0.6-0.1,1c0.9,0.1,1.3,0.1,2.2,0.1C358.5,271.1,358.4,271.3,358.4,271.5z"
             id="path307" /><path
             fill="#391516"
             d="M362.4,271.7c-0.3,0-0.5,0-0.8,0c-0.1-0.4-0.2-0.6-0.3-1c0-0.1-0.1-0.1-0.1-0.2c0-0.1-0.1-0.1-0.1-0.2      c-0.1,0-0.1-0.1-0.2-0.1c-0.1,0-0.1,0-0.2,0c-0.3,0-0.5,0-0.8,0c0,0.6,0,0.9-0.1,1.5c-0.3,0-0.4,0-0.7,0      c0.1-1.5,0.1-2.2,0.2-3.7c0.7,0,1,0.1,1.7,0.1c0.1,0,0.2,0,0.3,0c0.1,0,0.2,0,0.3,0c0.1,0,0.2,0,0.2,0.1c0.1,0,0.1,0.1,0.2,0.1      c0.1,0.1,0.1,0.1,0.2,0.2c0,0.1,0.1,0.1,0.1,0.2s0,0.1,0.1,0.2c0,0.1,0,0.2,0,0.2c0,0.2-0.1,0.4-0.2,0.6s-0.3,0.3-0.5,0.4      c0.2,0.1,0.3,0.3,0.4,0.6C362.2,271,362.3,271.3,362.4,271.7z M360,269.5c0.4,0,0.6,0,0.9,0c0.1,0,0.2,0,0.3,0      c0.1,0,0.2,0,0.2-0.1c0.1,0,0.1-0.1,0.1-0.1c0-0.1,0-0.1,0-0.2c0-0.2,0-0.3-0.1-0.4s-0.3-0.1-0.5-0.1c-0.4,0-0.6,0-1,0      C360,268.9,360,269.1,360,269.5z"
             id="path309" /><path
             fill="#391516"
             d="M391.8,266.9c0.3,0,0.5,0,0.7,0.1c0.2,0.1,0.4,0.2,0.6,0.3c0.2,0.1,0.3,0.3,0.4,0.6      c0.1,0.2,0.2,0.5,0.2,0.8c0,0.3,0,0.5,0,0.8c-0.1,0.2-0.2,0.5-0.3,0.6c-0.1,0.2-0.3,0.3-0.5,0.5s-0.4,0.2-0.7,0.2      c-0.3,0-0.5,0-0.7-0.1c-0.2-0.1-0.4-0.2-0.6-0.3c-0.2-0.1-0.3-0.3-0.4-0.6c-0.1-0.2-0.2-0.5-0.2-0.8c0-0.3,0-0.6,0.1-0.8      s0.2-0.5,0.3-0.6c0.1-0.2,0.3-0.3,0.5-0.4C391.3,267,391.5,266.9,391.8,266.9z M392.2,270.1c0.2,0,0.3-0.1,0.4-0.1      c0.1-0.1,0.2-0.2,0.3-0.3c0.1-0.1,0.1-0.3,0.2-0.4c0-0.2,0-0.3,0-0.6c0-0.2-0.1-0.4-0.1-0.5c-0.1-0.2-0.2-0.3-0.3-0.4      c-0.1-0.1-0.2-0.2-0.4-0.2c-0.1,0-0.3-0.1-0.4,0c-0.2,0-0.3,0.1-0.4,0.1s-0.2,0.2-0.3,0.3c-0.1,0.1-0.1,0.3-0.2,0.4      c0,0.2,0,0.3,0,0.5c0,0.2,0.1,0.4,0.1,0.5c0.1,0.2,0.2,0.3,0.3,0.4c0.1,0.1,0.2,0.2,0.4,0.2S392,270.1,392.2,270.1z"
             id="path311" /><path
             fill="#391516"
             d="M397.8,269.9c-0.3,0-0.4,0.1-0.7,0.1c-0.8-0.9-1.2-1.3-2-2.2c0.1,1,0.2,1.5,0.3,2.5      c-0.3,0-0.4,0.1-0.7,0.1c-0.2-1.5-0.3-2.2-0.5-3.7c0.3,0,0.4,0,0.7-0.1c0.8,0.9,1.2,1.3,2,2.2c-0.1-1-0.2-1.5-0.3-2.5      c0.3,0,0.4-0.1,0.7-0.1C397.5,267.7,397.6,268.4,397.8,269.9z"
             id="path313" /><path
             fill="#391516"
             d="M388.4,269.3l0,0.7c0,0.1-3.1,0.3-6.9,0.5s-6.9,0.4-6.9,0.3l0-0.7c0,0.1,3.1-0.1,6.9-0.3      C385.3,269.6,388.4,269.3,388.4,269.3z"
             id="path315" /></g></g></g><path
       d="M421.9,175.5v71.2l0,0c-15.7,6.8-33.2,10.6-51.7,10.6c-18.4,0-35.9-3.8-51.7-10.6v-71.2c0-6.7,5.6-12.1,12.4-12.1h78.6   C416.3,163.4,421.9,168.8,421.9,175.5z"
       id="path317" /><path
       fill="#211F1F"
       d="M419.9,176.5v70.3l0,0c-15.3,6.7-32.3,10.4-50.2,10.4c-17.9,0-34.9-3.7-50.2-10.4v-70.3c0-6.6,5.4-12,12-12   h76.3C414.5,164.5,419.9,169.9,419.9,176.5z"
       id="path319" /><g
       id="g321"><path
         fill="#070606"
         d="M71.5,62H0l0-6.2h71.5c0.5,0,0.9,0.4,0.9,0.9v4.3C72.4,61.6,72,62,71.5,62z"
         id="path323" /><path
         fill="#282424"
         d="M71.1,60.9H19v-6h52.1c0.5,0,0.9,0.4,0.9,0.9V60C72.1,60.5,71.7,60.9,71.1,60.9z"
         id="path325" /><rect
         x="0"
         y="54.9"
         fill="#1E1B1B"
         width="19"
         height="6"
         id="rect327" /><rect
         x="0"
         y="54.9"
         fill="#252222"
         width="19"
         height="0.9"
         id="rect329" /><path
         fill="#3C3939"
         d="M72.1,55.8H19v-0.9h52.1C71.7,54.9,72.1,55.3,72.1,55.8L72.1,55.8z"
         id="path331" /></g><g
       id="g333"><path
         fill="#070606"
         d="M71.5,71.7H0l0-6.2h71.5c0.5,0,0.9,0.4,0.9,0.9v4.3C72.4,71.3,72,71.7,71.5,71.7z"
         id="path335" /><path
         fill="#282424"
         d="M71.1,70.6H19v-6h52.1c0.5,0,0.9,0.4,0.9,0.9v4.1C72.1,70.2,71.7,70.6,71.1,70.6z"
         id="path337" /><rect
         x="0"
         y="64.6"
         fill="#1E1B1B"
         width="19"
         height="6"
         id="rect339" /><rect
         x="0"
         y="64.6"
         fill="#252222"
         width="19"
         height="0.9"
         id="rect341" /><path
         fill="#3C3939"
         d="M72.1,65.5H19v-0.9h52.1C71.7,64.6,72.1,65,72.1,65.5L72.1,65.5z"
         id="path343" /></g><g
       id="g345"><path
         fill="#070606"
         d="M71.5,81.4H0l0-6.2h71.5c0.5,0,0.9,0.4,0.9,0.9v4.3C72.4,81,72,81.4,71.5,81.4z"
         id="path347" /><path
         fill="#282424"
         d="M71.1,80.3H19v-6h52.1c0.5,0,0.9,0.4,0.9,0.9v4.1C72.1,79.9,71.7,80.3,71.1,80.3z"
         id="path349" /><rect
         x="0"
         y="74.3"
         fill="#1E1B1B"
         width="19"
         height="6"
         id="rect351" /><rect
         x="0"
         y="74.3"
         fill="#252222"
         width="19"
         height="0.9"
         id="rect353" /><path
         fill="#3C3939"
         d="M72.1,75.2H19v-0.9h52.1C71.7,74.3,72.1,74.7,72.1,75.2L72.1,75.2z"
         id="path355" /></g><g
       id="g357"><path
         fill="#070606"
         d="M71.5,91.1H0l0-6.2h71.5c0.5,0,0.9,0.4,0.9,0.9v4.3C72.4,90.7,72,91.1,71.5,91.1z"
         id="path359" /><path
         fill="#282424"
         d="M71.1,90H19v-6h52.1c0.5,0,0.9,0.4,0.9,0.9v4.1C72.1,89.6,71.7,90,71.1,90z"
         id="path361" /><rect
         x="0"
         y="84"
         fill="#1E1B1B"
         width="19"
         height="6"
         id="rect363" /><rect
         x="0"
         y="84"
         fill="#252222"
         width="19"
         height="0.9"
         id="rect365" /><path
         fill="#3C3939"
         d="M72.1,84.9H19V84h52.1C71.7,84,72.1,84.4,72.1,84.9L72.1,84.9z"
         id="path367" /></g><g
       id="g369"><path
         fill="#070606"
         d="M71.5,100.8H0l0-6.2h71.5c0.5,0,0.9,0.4,0.9,0.9v4.3C72.4,100.4,72,100.8,71.5,100.8z"
         id="path371" /><path
         fill="#282424"
         d="M71.1,99.7H19v-6h52.1c0.5,0,0.9,0.4,0.9,0.9v4.1C72.1,99.3,71.7,99.7,71.1,99.7z"
         id="path373" /><rect
         x="0"
         y="93.7"
         fill="#1E1B1B"
         width="19"
         height="6"
         id="rect375" /><rect
         x="0"
         y="93.7"
         fill="#252222"
         width="19"
         height="0.9"
         id="rect377" /><path
         fill="#3C3939"
         d="M72.1,94.6H19v-0.9h52.1C71.7,93.7,72.1,94.1,72.1,94.6L72.1,94.6z"
         id="path379" /></g><g
       id="g381"><path
         fill="#070606"
         d="M71.5,110.5H0l0-6.2h71.5c0.5,0,0.9,0.4,0.9,0.9v4.3C72.4,110,72,110.5,71.5,110.5z"
         id="path383" /><path
         fill="#282424"
         d="M71.1,109.4H19v-6h52.1c0.5,0,0.9,0.4,0.9,0.9v4.1C72.1,109,71.7,109.4,71.1,109.4z"
         id="path385" /><rect
         x="0"
         y="103.4"
         fill="#1E1B1B"
         width="19"
         height="6"
         id="rect387" /><rect
         x="0"
         y="103.4"
         fill="#252222"
         width="19"
         height="0.9"
         id="rect389" /><path
         fill="#3C3939"
         d="M72.1,104.3H19v-0.9h52.1C71.7,103.4,72.1,103.8,72.1,104.3L72.1,104.3z"
         id="path391" /></g><g
       id="g393"><path
         fill="#070606"
         d="M71.5,120.2H0l0-6.2h71.5c0.5,0,0.9,0.4,0.9,0.9v4.3C72.4,119.7,72,120.2,71.5,120.2z"
         id="path395" /><path
         fill="#282424"
         d="M71.1,119.1H19v-6h52.1c0.5,0,0.9,0.4,0.9,0.9v4.1C72.1,118.7,71.7,119.1,71.1,119.1z"
         id="path397" /><rect
         x="0"
         y="113.1"
         fill="#1E1B1B"
         width="19"
         height="6"
         id="rect399" /><rect
         x="0"
         y="113.1"
         fill="#252222"
         width="19"
         height="0.9"
         id="rect401" /><path
         fill="#3C3939"
         d="M72.1,114H19V113h52.1C71.7,113,72.1,113.5,72.1,114L72.1,114z"
         id="path403" /></g><g
       id="g405"><path
         fill="#070606"
         d="M71.5,129.9H0l0-6.2h71.5c0.5,0,0.9,0.4,0.9,0.9v4.3C72.4,129.4,72,129.9,71.5,129.9z"
         id="path407" /><path
         fill="#282424"
         d="M71.1,128.8H19v-6h52.1c0.5,0,0.9,0.4,0.9,0.9v4.1C72.1,128.3,71.7,128.8,71.1,128.8z"
         id="path409" /><rect
         x="0"
         y="122.8"
         fill="#1E1B1B"
         width="19"
         height="6"
         id="rect411" /><rect
         x="0"
         y="122.8"
         fill="#252222"
         width="19"
         height="0.9"
         id="rect413" /><path
         fill="#3C3939"
         d="M72.1,123.7H19v-0.9h52.1C71.7,122.7,72.1,123.2,72.1,123.7L72.1,123.7z"
         id="path415" /></g><g
       id="g417"><path
         fill="#070606"
         d="M71.5,139.5H0l0-6.2h71.5c0.5,0,0.9,0.4,0.9,0.9v4.3C72.4,139.1,72,139.5,71.5,139.5z"
         id="path419" /><path
         fill="#282424"
         d="M71.1,138.5H19v-6h52.1c0.5,0,0.9,0.4,0.9,0.9v4.1C72.1,138,71.7,138.5,71.1,138.5z"
         id="path421" /><rect
         x="0"
         y="132.5"
         fill="#1E1B1B"
         width="19"
         height="6"
         id="rect423" /><rect
         x="0"
         y="132.5"
         fill="#252222"
         width="19"
         height="0.9"
         id="rect425" /><path
         fill="#3C3939"
         d="M72.1,133.4H19v-0.9h52.1C71.7,132.4,72.1,132.8,72.1,133.4L72.1,133.4z"
         id="path427" /></g><g
       id="g429"><path
         fill="#070606"
         d="M71.5,149.2H0l0-6.2h71.5c0.5,0,0.9,0.4,0.9,0.9v4.3C72.4,148.8,72,149.2,71.5,149.2z"
         id="path431" /><path
         fill="#282424"
         d="M71.1,148.2H19v-6h52.1c0.5,0,0.9,0.4,0.9,0.9v4.1C72.1,147.7,71.7,148.2,71.1,148.2z"
         id="path433" /><rect
         x="0"
         y="142.2"
         fill="#1E1B1B"
         width="19"
         height="6"
         id="rect435" /><rect
         x="0"
         y="142.2"
         fill="#252222"
         width="19"
         height="0.9"
         id="rect437" /><path
         fill="#3C3939"
         d="M72.1,143.1H19v-0.9h52.1C71.7,142.1,72.1,142.5,72.1,143.1L72.1,143.1z"
         id="path439" /></g><g
       id="g441"><path
         fill="#070606"
         d="M71.5,158.9H0l0-6.2h71.5c0.5,0,0.9,0.4,0.9,0.9v4.3C72.4,158.5,72,158.9,71.5,158.9z"
         id="path443" /><path
         fill="#282424"
         d="M71.1,157.8H19v-6h52.1c0.5,0,0.9,0.4,0.9,0.9v4.1C72.1,157.4,71.7,157.8,71.1,157.8z"
         id="path445" /><rect
         x="0"
         y="151.8"
         fill="#1E1B1B"
         width="19"
         height="6"
         id="rect447" /><rect
         x="0"
         y="151.8"
         fill="#252222"
         width="19"
         height="0.9"
         id="rect449" /><path
         fill="#3C3939"
         d="M72.1,152.8H19v-0.9h52.1C71.7,151.8,72.1,152.2,72.1,152.8L72.1,152.8z"
         id="path451" /></g><g
       id="g453"><path
         fill="#070606"
         d="M71.5,168.6H0l0-6.2h71.5c0.5,0,0.9,0.4,0.9,0.9v4.3C72.4,168.2,72,168.6,71.5,168.6z"
         id="path455" /><path
         fill="#282424"
         d="M71.1,167.5H19v-6h52.1c0.5,0,0.9,0.4,0.9,0.9v4.1C72.1,167.1,71.7,167.5,71.1,167.5z"
         id="path457" /><rect
         x="0"
         y="161.5"
         fill="#1E1B1B"
         width="19"
         height="6"
         id="rect459" /><rect
         x="0"
         y="161.5"
         fill="#252222"
         width="19"
         height="0.9"
         id="rect461" /><path
         fill="#3C3939"
         d="M72.1,162.4H19v-0.9h52.1C71.7,161.5,72.1,161.9,72.1,162.4L72.1,162.4z"
         id="path463" /></g><g
       id="g465"><path
         fill="#070606"
         d="M71.5,178.3H0l0-6.2h71.5c0.5,0,0.9,0.4,0.9,0.9v4.3C72.4,177.9,72,178.3,71.5,178.3z"
         id="path467" /><path
         fill="#282424"
         d="M71.1,177.2H19v-6h52.1c0.5,0,0.9,0.4,0.9,0.9v4.1C72.1,176.8,71.7,177.2,71.1,177.2z"
         id="path469" /><rect
         x="0"
         y="171.2"
         fill="#1E1B1B"
         width="19"
         height="6"
         id="rect471" /><rect
         x="0"
         y="171.2"
         fill="#252222"
         width="19"
         height="0.9"
         id="rect473" /><path
         fill="#3C3939"
         d="M72.1,172.1H19v-0.9h52.1C71.7,171.2,72.1,171.6,72.1,172.1L72.1,172.1z"
         id="path475" /></g><g
       id="g477"><path
         fill="#070606"
         d="M71.5,188H0l0-6.2h71.5c0.5,0,0.9,0.4,0.9,0.9v4.3C72.4,187.6,72,188,71.5,188z"
         id="path479" /><path
         fill="#282424"
         d="M71.1,186.9H19v-6h52.1c0.5,0,0.9,0.4,0.9,0.9v4.1C72.1,186.5,71.7,186.9,71.1,186.9z"
         id="path481" /><rect
         x="0"
         y="180.9"
         fill="#1E1B1B"
         width="19"
         height="6"
         id="rect483" /><rect
         x="0"
         y="180.9"
         fill="#252222"
         width="19"
         height="0.9"
         id="rect485" /><path
         fill="#3C3939"
         d="M72.1,181.8H19v-0.9h52.1C71.7,180.9,72.1,181.3,72.1,181.8L72.1,181.8z"
         id="path487" /></g><g
       id="g489"><path
         fill="#070606"
         d="M71.5,197.7H0l0-6.2h71.5c0.5,0,0.9,0.4,0.9,0.9v4.3C72.4,197.3,72,197.7,71.5,197.7z"
         id="path491" /><path
         fill="#282424"
         d="M71.1,196.6H19v-6h52.1c0.5,0,0.9,0.4,0.9,0.9v4.1C72.1,196.2,71.7,196.6,71.1,196.6z"
         id="path493" /><rect
         x="0"
         y="190.6"
         fill="#1E1B1B"
         width="19"
         height="6"
         id="rect495" /><rect
         x="0"
         y="190.6"
         fill="#252222"
         width="19"
         height="0.9"
         id="rect497" /><path
         fill="#3C3939"
         d="M72.1,191.5H19v-0.9h52.1C71.7,190.6,72.1,191,72.1,191.5L72.1,191.5z"
         id="path499" /></g><rect
       x="9"
       y="327.2"
       fill="#323030"
       width="531"
       height="1.7"
       id="rect501" /><rect
       x="9"
       y="328.9"
       fill="#383736"
       width="531"
       height="3.4"
       id="rect503" /><rect
       x="9"
       y="332.3"
       fill="#3F3E3D"
       width="531"
       height="1.7"
       id="rect505" /><rect
       x="9"
       y="334"
       fill="#444241"
       width="531"
       height="1.7"
       id="rect507" /><rect
       x="9"
       y="335.7"
       fill="#4A4747"
       width="531"
       height="1.7"
       id="rect509" /><rect
       x="9"
       y="337.4"
       fill="#504D4C"
       width="531"
       height="1.7"
       id="rect511" /><rect
       x="9"
       y="339.1"
       fill="#565252"
       width="531"
       height="1.7"
       id="rect513" /><rect
       x="9"
       y="340.9"
       fill="#5B5857"
       width="531"
       height="1.7"
       id="rect515" /><rect
       x="0"
       y="327.2"
       fill="#292424"
       width="9"
       height="1.7"
       id="rect517" /><rect
       x="0"
       y="328.9"
       fill="#302A2B"
       width="9"
       height="3.4"
       id="rect519" /><rect
       x="0"
       y="332.3"
       fill="#363031"
       width="9"
       height="1.7"
       id="rect521" /><rect
       x="0"
       y="334"
       fill="#3C3636"
       width="9"
       height="1.7"
       id="rect523" /><rect
       x="0"
       y="335.7"
       fill="#423B3C"
       width="9"
       height="1.7"
       id="rect525" /><rect
       x="0"
       y="337.4"
       fill="#484141"
       width="9"
       height="1.7"
       id="rect527" /><rect
       x="0"
       y="339.1"
       fill="#4E4646"
       width="9"
       height="1.7"
       id="rect529" /><rect
       x="0"
       y="340.9"
       fill="#544B4C"
       width="9"
       height="1.7"
       id="rect531" /><rect
       x="540"
       y="327.2"
       fill="#292424"
       width="9"
       height="1.7"
       id="rect533" /><rect
       x="540"
       y="328.9"
       fill="#302A2B"
       width="9"
       height="3.4"
       id="rect535" /><rect
       x="540"
       y="332.3"
       fill="#363031"
       width="9"
       height="1.7"
       id="rect537" /><rect
       x="540"
       y="334"
       fill="#3C3636"
       width="9"
       height="1.7"
       id="rect539" /><rect
       x="540"
       y="335.7"
       fill="#423B3C"
       width="9"
       height="1.7"
       id="rect541" /><rect
       x="540"
       y="337.4"
       fill="#484141"
       width="9"
       height="1.7"
       id="rect543" /><rect
       x="540"
       y="339.1"
       fill="#4E4646"
       width="9"
       height="1.7"
       id="rect545" /><rect
       x="540"
       y="340.9"
       fill="#544B4C"
       width="9"
       height="1.7"
       id="rect547" /><g
       id="g549"><path
         fill="#C4C4C4"
         d="M56.7,329.1c0-1.4-0.9-3.1-1.7-3.1c-0.8,0-1.7,1.3-1.7,2.8c0,1.4,1.3,2.9,2.1,2.9    C56.2,331.7,56.7,330.5,56.7,329.1z"
         id="path551" /><g
         id="g553"><path
           fill="#C4C4C4"
           d="M65.7,328.8l-0.9-0.5c0.5-0.9,0.7-1.9,0.7-2.8c0-3.3-2.7-6-6.1-6c-3.3,0-6.1,2.7-6.1,6c0,1,0.3,2,0.7,2.8     l-0.9,0.5c-0.6-1-0.9-2.2-0.9-3.3c0-3.8,3.2-6.9,7-7l0,0c0,0,0,0,0,0c3.9,0,7,3.1,7,7C66.6,326.7,66.3,327.8,65.7,328.8z"
           id="path555" /></g><path
         fill="#C4C4C4"
         d="M62.3,329.1c0-1.4,0.9-3.1,1.7-3.1c0.8,0,1.7,1.3,1.7,2.8c0,1.4-1.3,2.9-2.1,2.9    C62.8,331.7,62.3,330.5,62.3,329.1z"
         id="path557" /></g><g
       id="g559"><path
         fill="#C4C4C4"
         d="M48.2,337.5l-1.5-4.3h0.9l1.1,3.2l1.1-3.2h0.9l-1.5,4.3H48.2z"
         id="path561" /><path
         fill="#C4C4C4"
         d="M50.9,335.4c0-0.4,0.1-0.8,0.2-1.1c0.1-0.2,0.2-0.4,0.4-0.6s0.4-0.3,0.6-0.4c0.3-0.1,0.6-0.2,0.9-0.2    c0.6,0,1.1,0.2,1.5,0.6s0.6,0.9,0.6,1.6c0,0.7-0.2,1.2-0.6,1.6s-0.9,0.6-1.5,0.6c-0.6,0-1.1-0.2-1.5-0.6    C51.1,336.6,50.9,336.1,50.9,335.4z M51.8,335.3c0,0.5,0.1,0.9,0.3,1.1c0.2,0.3,0.5,0.4,0.9,0.4s0.6-0.1,0.9-0.4    c0.2-0.3,0.3-0.6,0.3-1.1c0-0.5-0.1-0.9-0.3-1.1s-0.5-0.4-0.9-0.4s-0.6,0.1-0.9,0.4C51.9,334.5,51.8,334.9,51.8,335.3z"
         id="path563" /><path
         fill="#C4C4C4"
         d="M55.8,337.5v-4.3h0.9v3.5h2.2v0.7H55.8z"
         id="path565" /><path
         fill="#C4C4C4"
         d="M59.4,333.2h0.9v2.3c0,0.4,0,0.6,0,0.7c0,0.2,0.1,0.3,0.3,0.4c0.1,0.1,0.3,0.2,0.6,0.2    c0.2,0,0.4,0,0.6-0.2s0.2-0.2,0.2-0.4s0-0.4,0-0.7v-2.4h0.9v2.3c0,0.5,0,0.9-0.1,1.1s-0.1,0.4-0.3,0.5s-0.3,0.3-0.5,0.4    c-0.2,0.1-0.5,0.1-0.8,0.1c-0.4,0-0.7,0-0.9-0.1c-0.2-0.1-0.4-0.2-0.5-0.4s-0.2-0.3-0.2-0.5c-0.1-0.2-0.1-0.6-0.1-1.1V333.2z"
         id="path567" /><path
         fill="#C4C4C4"
         d="M63.8,337.5v-4.3h1.3l0.8,2.9l0.8-2.9h1.3v4.3h-0.8v-3.4l-0.9,3.4h-0.8l-0.8-3.4v3.4H63.8z"
         id="path569" /><path
         fill="#C4C4C4"
         d="M68.8,337.5v-4.3H72v0.7h-2.3v1h2.2v0.7h-2.2v1.2H72v0.7H68.8z"
         id="path571" /></g><g
       id="g573"><g
         id="g575"><rect
           x="91.8"
           y="297.7"
           width="35.3"
           height="15.7"
           id="rect577" /><rect
           x="92.3"
           y="298.3"
           fill="#DBDBDB"
           width="34.3"
           height="14.5"
           id="rect579" /></g><g
         id="g581"><path
           fill="#CECCCE"
           d="M99.4,304.9L99.4,304.9c-0.7,0-1.3-0.6-1.3-1.2v0c0-0.7,0.6-1.3,1.3-1.3l0,0c0.7,0,1.3,0.6,1.3,1.3v0     C100.7,304.3,100.1,304.9,99.4,304.9z"
           id="path583" /><path
           fill="#CECCCE"
           d="M119.4,304.9L119.4,304.9c-0.7,0-1.3-0.6-1.3-1.2v0c0-0.7,0.6-1.3,1.3-1.3l0,0c0.7,0,1.3,0.6,1.3,1.3v0     C120.7,304.3,120.1,304.9,119.4,304.9z"
           id="path585" /><path
           fill="#CECCCE"
           d="M119.4,308.7L119.4,308.7c-0.7,0-1.3-0.6-1.3-1.2v0c0-0.7,0.6-1.3,1.3-1.3l0,0c0.7,0,1.3,0.6,1.3,1.3v0     C120.7,308.1,120.1,308.7,119.4,308.7z"
           id="path587" /><path
           fill="#CECCCE"
           d="M99.4,308.7L99.4,308.7c-0.7,0-1.3-0.6-1.3-1.2v0c0-0.7,0.6-1.3,1.3-1.3l0,0c0.7,0,1.3,0.6,1.3,1.3v0     C100.7,308.1,100.1,308.7,99.4,308.7z"
           id="path589" /><path
           fill="#CECCCE"
           d="M102.8,308.7L102.8,308.7c-0.7,0-1.3-0.6-1.3-1.2v0c0-0.7,0.6-1.3,1.3-1.3l0,0c0.7,0,1.3,0.6,1.3,1.3v0     C104,308.1,103.4,308.7,102.8,308.7z"
           id="path591" /><path
           fill="#CECCCE"
           d="M106.1,308.7L106.1,308.7c-0.7,0-1.3-0.6-1.3-1.2v0c0-0.7,0.6-1.3,1.3-1.3l0,0c0.7,0,1.3,0.6,1.3,1.3v0     C107.3,308.1,106.8,308.7,106.1,308.7z"
           id="path593" /><path
           fill="#CECCCE"
           d="M109.4,308.7L109.4,308.7c-0.7,0-1.3-0.6-1.3-1.2v0c0-0.7,0.6-1.3,1.3-1.3l0,0c0.7,0,1.3,0.6,1.3,1.3v0     C110.7,308.1,110.1,308.7,109.4,308.7z"
           id="path595" /><path
           fill="#CECCCE"
           d="M112.7,308.7L112.7,308.7c-0.7,0-1.3-0.6-1.3-1.2v0c0-0.7,0.6-1.3,1.2-1.3h0c0.7,0,1.3,0.6,1.3,1.3v0     C114,308.1,113.4,308.7,112.7,308.7z"
           id="path597" /><path
           fill="#CECCCE"
           d="M116.1,308.7L116.1,308.7c-0.7,0-1.3-0.6-1.3-1.2v0c0-0.7,0.6-1.3,1.3-1.3l0,0c0.7,0,1.3,0.6,1.3,1.3v0     C117.3,308.1,116.8,308.7,116.1,308.7z"
           id="path599" /><path
           fill="#CECCCE"
           d="M102.8,304.9L102.8,304.9c-0.7,0-1.3-0.6-1.3-1.2v0c0-0.7,0.6-1.3,1.3-1.3l0,0c0.7,0,1.3,0.6,1.3,1.3v0     C104,304.3,103.4,304.9,102.8,304.9z"
           id="path601" /><path
           fill="#CECCCE"
           d="M106.1,304.9L106.1,304.9c-0.7,0-1.3-0.6-1.3-1.2v0c0-0.7,0.6-1.3,1.3-1.3l0,0c0.7,0,1.3,0.6,1.3,1.3v0     C107.3,304.3,106.8,304.9,106.1,304.9z"
           id="path603" /><path
           fill="#CECCCE"
           d="M109.4,304.9L109.4,304.9c-0.7,0-1.3-0.6-1.3-1.2v0c0-0.7,0.6-1.3,1.3-1.3l0,0c0.7,0,1.3,0.6,1.3,1.3v0     C110.7,304.3,110.1,304.9,109.4,304.9z"
           id="path605" /><path
           fill="#CECCCE"
           d="M112.7,304.9L112.7,304.9c-0.7,0-1.3-0.6-1.3-1.2v0c0-0.7,0.6-1.3,1.2-1.3h0c0.7,0,1.3,0.6,1.3,1.3v0     C114,304.3,113.4,304.9,112.7,304.9z"
           id="path607" /><path
           fill="#CECCCE"
           d="M116.1,304.9L116.1,304.9c-0.7,0-1.3-0.6-1.3-1.2v0c0-0.7,0.6-1.3,1.3-1.3l0,0c0.7,0,1.3,0.6,1.3,1.3v0     C117.3,304.3,116.8,304.9,116.1,304.9z"
           id="path609" /></g><polygon
         fill="#0D0D0C"
         points="127.1,297.7 91.8,297.7 88.5,295.2 130.3,295.2   "
         id="polygon611" /><polygon
         fill="#4E4B4A"
         points="130.3,315.9 88.5,315.9 91.8,313.4 127.1,313.4   "
         id="polygon613" /><polygon
         fill="#211E1D"
         points="91.8,313.4 88.5,315.9 88.5,295.2 91.8,297.7   "
         id="polygon615" /><polygon
         fill="#211E1D"
         points="130.3,315.9 127.1,313.4 127.1,297.7 130.3,295.2   "
         id="polygon617" /><g
         id="g619"><path
           fill="#C4C4C4"
           d="M102.5,321.1v-3.2h1.4c0.3,0,0.6,0,0.8,0.1c0.2,0.1,0.3,0.2,0.4,0.3c0.1,0.1,0.1,0.3,0.1,0.5     c0,0.2-0.1,0.4-0.2,0.6c-0.1,0.2-0.4,0.3-0.6,0.3c0.1,0.1,0.3,0.2,0.3,0.3c0.1,0.1,0.2,0.3,0.4,0.5l0.4,0.6h-0.8l-0.5-0.7     c-0.2-0.3-0.3-0.4-0.3-0.5c-0.1-0.1-0.1-0.1-0.2-0.1c-0.1,0-0.2,0-0.3,0h-0.1v1.3H102.5z M103.1,319.3h0.5c0.3,0,0.5,0,0.6,0     c0.1,0,0.1-0.1,0.2-0.1c0-0.1,0.1-0.1,0.1-0.2c0-0.1,0-0.2-0.1-0.3c-0.1-0.1-0.1-0.1-0.2-0.1c-0.1,0-0.2,0-0.5,0h-0.5V319.3z"
           id="path621" /><path
           fill="#C4C4C4"
           d="M105.7,321.1v-3.2h2.4v0.5h-1.7v0.7h1.6v0.5h-1.6v0.9h1.8v0.5H105.7z"
           id="path623" /><path
           fill="#C4C4C4"
           d="M108.5,320.1l0.6-0.1c0,0.2,0.1,0.4,0.2,0.5c0.1,0.1,0.3,0.1,0.5,0.1c0.2,0,0.4,0,0.5-0.1     c0.1-0.1,0.2-0.2,0.2-0.3c0-0.1,0-0.1-0.1-0.2c0-0.1-0.1-0.1-0.2-0.1c-0.1,0-0.2-0.1-0.5-0.1c-0.3-0.1-0.6-0.2-0.7-0.3     c-0.2-0.2-0.3-0.4-0.3-0.6c0-0.2,0-0.3,0.1-0.5c0.1-0.1,0.2-0.3,0.4-0.3c0.2-0.1,0.4-0.1,0.6-0.1c0.4,0,0.7,0.1,0.9,0.3     c0.2,0.2,0.3,0.4,0.3,0.7l-0.7,0c0-0.2-0.1-0.3-0.2-0.4c-0.1-0.1-0.2-0.1-0.4-0.1c-0.2,0-0.3,0-0.4,0.1c-0.1,0-0.1,0.1-0.1,0.2     c0,0.1,0,0.1,0.1,0.2c0.1,0.1,0.3,0.1,0.6,0.2c0.3,0.1,0.6,0.2,0.7,0.2c0.2,0.1,0.3,0.2,0.4,0.3c0.1,0.1,0.1,0.3,0.1,0.5     c0,0.2-0.1,0.4-0.2,0.5s-0.2,0.3-0.4,0.4s-0.4,0.1-0.7,0.1c-0.4,0-0.7-0.1-0.9-0.3C108.7,320.7,108.6,320.4,108.5,320.1z"
           id="path625" /><path
           fill="#C4C4C4"
           d="M111.7,321.1v-3.2h2.4v0.5h-1.7v0.7h1.6v0.5h-1.6v0.9h1.8v0.5H111.7z"
           id="path627" /><path
           fill="#C4C4C4"
           d="M115.4,321.1v-2.7h-1v-0.5h2.6v0.5h-1v2.7H115.4z"
           id="path629" /></g></g><g
       id="_x31_6bit_1_"><path
         id="XMLID_659_"
         fill="#C6C6C6"
         d="M341.3,218.4v-2.5c2.5-0.6,4.2-1.5,5-2.5h2.5v10.3l0,2.3h-3.3l0-2.3v-7.1    C343.6,217.5,342.2,218.1,341.3,218.4z"
         style="fill:#d4aa6f;fill-opacity:1" /><path
         id="XMLID_656_"
         fill="#C6C6C6"
         d="M362.1,216.7l-3,0.7c-0.3-1.3-1-1.9-2.2-1.9c-1.7,0-2.6,1.4-2.6,4.1    c0.7-0.9,1.8-1.4,3.3-1.4c1.4,0,2.5,0.4,3.4,1.1c0.9,0.7,1.3,1.6,1.3,2.7c0,1.1-0.5,2.1-1.4,2.9c-1,0.8-2.2,1.3-3.8,1.3    c-1.6,0-2.8-0.3-3.7-1c-0.9-0.7-1.5-1.5-1.9-2.4c-0.3-0.9-0.5-1.9-0.5-2.7c0-1.9,0.5-3.4,1.5-4.7c1-1.2,2.5-1.8,4.5-1.8    c1.4,0,2.6,0.3,3.5,1C361.3,215,361.9,215.7,362.1,216.7z M356.7,224c0.6,0,1.1-0.2,1.6-0.5c0.4-0.4,0.6-0.8,0.6-1.5    c0-0.6-0.2-1-0.7-1.4c-0.4-0.3-1-0.5-1.5-0.5c-0.6,0-1.1,0.2-1.5,0.5c-0.4,0.4-0.7,0.8-0.7,1.4c0,0.5,0.2,1,0.6,1.4    C355.5,223.8,356.1,224,356.7,224z"
         style="fill:#d4aa6f;fill-opacity:1" /><path
         id="XMLID_654_"
         fill="#C6C6C6"
         d="M363.2,219.3h5.2v2.2h-5.2V219.3z"
         style="fill:#d4aa6f;fill-opacity:1" /><path
         id="XMLID_650_"
         fill="#C6C6C6"
         d="M370.2,213.6h6.9c1.2,0,2.2,0.1,2.8,0.4c0.6,0.3,1.1,0.6,1.5,1.1c0.4,0.5,0.6,1,0.6,1.7    c0,1.4-0.9,2.3-2.7,2.7c1,0.2,1.8,0.6,2.3,1.1c0.5,0.6,0.8,1.2,0.8,1.9c0,0.9-0.4,1.7-1.3,2.4c-0.8,0.7-2.2,1-4.1,1h-6.9V213.6z     M373.6,215.7v2.7h2.6c1,0,1.6-0.2,1.8-0.5c0.2-0.3,0.4-0.6,0.4-0.9c0-0.3-0.1-0.6-0.3-0.8c-0.2-0.2-0.4-0.4-0.7-0.4    c-0.2-0.1-0.7-0.1-1.4-0.1H373.6z M373.6,220.6v3h2.6c0.9,0,1.5-0.1,1.9-0.4c0.4-0.3,0.6-0.6,0.6-1.1c0-0.4-0.2-0.7-0.5-1    c-0.4-0.3-1-0.4-1.8-0.4H373.6z"
         style="fill:#d4aa6f;fill-opacity:1" /><path
         id="XMLID_648_"
         fill="#C6C6C6"
         d="M386.6,213.6v12.3h-3.4v-12.3H386.6z"
         style="fill:#d4aa6f;fill-opacity:1" /><path
         id="XMLID_646_"
         fill="#C6C6C6"
         d="M398.2,213.6v2.4h-3.6v9.9h-3.5V216h-3.7v-2.4H398.2z"
         style="fill:#d4aa6f;fill-opacity:1" /></g></g><path
     inkscape:connector-curvature="0"
     style="fill:#c2c2c2"
     id="XMLID_645_"
     d="m 526,320.10001 c -2.3,0 -4.7,0 -7.1,0 0,-0.5 0,-1 0,-1.7 1.5,0 3.1,0 4.9,0 -0.4,-1.1 -0.6,-1.9 -0.9,-2.8 -0.7,-2.2 -1.4,-4.4 -2.1,-6.5 -0.2,-0.5 -0.7,-1.2 -1.2,-1.3 -0.8,-0.2 -1,0.6 -1.3,1.3 -1.1,3.3 -2.2,6.7 -3.2,10 -0.2,0.8 -0.6,1.1 -1.4,1 -2.2,-0.1 -4.4,0 -6.5,0 -2.2,0 -3.7,-1.5 -3.7,-3.8 0,-2.1 0,-4.1 0,-6.2 0.1,-2.3 1.5,-3.7 3.7,-3.8 2,0 3.9,0 6,0 0,0.6 0,1.1 0,1.8 -1.7,0 -3.4,0 -5.1,0 -2.4,0 -2.9,0.6 -2.9,3.1 0,1.6 0,3.1 0,4.7 0,1.7 0.8,2.5 2.3,2.5 1.3,0 2.5,0 3.9,0 0,-1.8 0,-3.6 0,-5.4 -1.1,0 -2.1,0 -3.2,0 0,-0.6 0,-1.1 0,-1.7 1.6,0 3.3,0 5,0 0,2.4 0,4.8 0,7.1 0.1,0 0.2,0 0.3,0 1.1,-3.3 2.1,-6.6 3.2,-9.9 0.6,-1.9 1.7,-2.6 3.5,-2.4 1,0.2 1.7,0.7 2.1,1.7 1.3,3.9 2.6,7.9 3.8,11.9 0,0.2 -0.1,0.3 -0.1,0.4 z" /><path
     inkscape:connector-curvature="0"
     style="fill:#c2c2c2"
     id="XMLID_644_"
     d="m 481.5,320.10001 c 0,-0.6 0,-1.1 0,-1.7 1.9,0 3.8,0 5.6,0 1.6,0 2.7,-1.2 2.8,-2.6 0.1,-1.4 -1.1,-2.7 -2.6,-2.8 -0.6,0 -1.3,0 -1.9,-0.1 -1,-0.1 -1.6,-1 -1.6,-2 0,-1.1 0.7,-2 1.6,-2 2,-0.1 4.1,0 6.2,0 0,0.6 0,1.1 0,1.7 -1,0 -2.1,0 -3.1,0 -1,0 -1.9,0 -2.9,0 0,0.2 0,0.4 0,0.6 0.6,0 1.1,0.1 1.7,0.1 2.1,0 3.7,1.3 4.2,3.4 0.7,2.6 -1.2,5.4 -3.8,5.5 -2,0 -4.1,-0.1 -6.2,-0.1 z" /><path
     inkscape:connector-curvature="0"
     style="fill:#c2c2c2"
     id="XMLID_643_"
     d="m 481.4,317.70001 c 0,-0.6 0,-1.1 0,-1.8 2,0 4,0 6,0 0,-0.2 0,-0.3 0,-0.5 -0.6,0 -1.2,-0.1 -1.8,-0.1 -1.7,0 -3,-0.9 -3.7,-2.4 -0.8,-1.6 -0.6,-3.2 0.4,-4.7 0.7,-1 1.7,-1.7 2.9,-1.7 2.1,-0.1 4.2,0 6.4,0 0,0.5 0,1.1 0,1.7 -1.9,0 -3.8,0 -5.7,0 -1.9,0 -3.1,1.8 -2.5,3.6 0.3,1.1 1.3,1.8 2.6,1.9 0.6,0 1.2,0 1.8,0.1 0.9,0.1 1.7,1 1.7,2 0,1 -0.7,2 -1.6,2 -2.3,0 -4.3,-0.1 -6.5,-0.1 z" /><path
     inkscape:connector-curvature="0"
     style="fill:#c2c2c2"
     id="XMLID_642_"
     d="m 502.5,306.50001 c 0,0.6 0,1.1 0,1.7 -1.9,0 -3.7,0 -5.6,0 -2,0 -2.6,0.7 -2.6,2.7 0,1.6 0,3.3 0,4.9 0,1.9 0.7,2.6 2.5,2.6 1.9,0 3.7,0 5.7,0 0,0.6 0,1.1 0,1.7 -1.4,0 -2.8,0 -4.1,0 -0.9,0 -1.7,0 -2.6,0 -1.6,-0.1 -3,-1.6 -3.1,-3.3 -0.1,-2.4 -0.1,-4.8 0,-7.2 0,-1.5 1.3,-3.1 2.8,-3.2 2.3,0 4.6,0.1 7,0.1 z" /><path
     inkscape:connector-curvature="0"
     style="fill:#c2c2c2"
     id="XMLID_639_"
     d="m 515.3,320.10001 c 1.2,-3.7 2.4,-7.4 3.6,-11 0.1,-0.3 0.4,-0.5 0.6,-0.6 0.1,0 0.5,0.2 0.6,0.4 1,2.9 1.9,5.8 2.9,8.8 -1.4,0 -2.7,0 -4.1,0 0,-0.4 -0.1,-0.8 -0.1,-1.2 -0.1,0 -0.1,0 -0.2,-0.1 -0.2,0.7 -0.5,1.3 -0.7,2 -0.6,1.9 -0.6,1.9 -2.6,1.7 z m 3.5,-4.3 c 0.5,0 0.9,0 1.4,0 -0.2,-0.7 -0.4,-1.3 -0.6,-1.9 -0.1,0 -0.2,0 -0.2,0 -0.2,0.6 -0.4,1.2 -0.6,1.9 z" /><path
     inkscape:connector-curvature="0"
     style="fill:#c2c2c2"
     id="XMLID_638_"
     d="m 509.3,315.60001 c -0.5,-0.2 -0.8,-0.2 -1.2,-0.4 0,-0.5 0,-1 0,-1.5 0.9,0 1.7,0 2.6,0 0,1.3 0,2.6 0,4 -1.4,0 -2.7,0.1 -4,-0.1 -0.3,0 -0.9,-0.7 -0.9,-1.1 -0.1,-2.2 -0.1,-4.3 0,-6.5 0,-0.8 0.5,-1.2 1.2,-1.2 2,0 4,0 6.1,0 0,0.6 0,1.1 0,1.7 -1.5,0 -3,0 -4.5,0 -0.9,0 -1.3,0.3 -1.2,1.3 0.1,1 0,2 0,3 0,1.3 0.6,1.5 1.9,0.8 z" /><path
     inkscape:connector-curvature="0"
     style="fill:#c2c2c2"
     id="XMLID_637_"
     d="m 496.7,315.90001 c 1.9,0.3 3.8,0 5.7,0.2 0,0.5 0,1 0,1.6 -2.2,0 -4.4,0.1 -6.5,-0.1 -0.3,0 -0.9,-0.7 -0.9,-1.2 -0.2,-0.9 0,-1.8 0,-2.8 2.1,0 4.1,0 6.1,0 0,0.5 0,1 0,1.6 -1.4,0 -2.9,0 -4.3,0 0,0.3 0,0.5 -0.1,0.7 z" /><path
     inkscape:connector-curvature="0"
     style="fill:#c2c2c2"
     id="XMLID_636_"
     d="m 502.5,308.90001 c 0,0.6 0,1.1 0,1.6 -1.9,0.3 -3.9,-0.2 -5.8,0.2 0,0.1 0,0.3 0,0.4 1.4,0 2.8,0 4.3,0 0,0.6 0,1.1 0,1.7 -2,0 -4,0 -6.1,0 0,-1 -0.1,-2 0,-3.1 0,-0.4 0.6,-0.9 1,-0.9 2.2,0 4.4,0.1 6.6,0.1 z" /><g
     style="font-style:normal;font-weight:normal;font-size:4.64998579px;line-height:125%;font-family:sans-serif;letter-spacing:0px;word-spacing:0px;fill:#c2c2c2;fill-opacity:1;stroke:none;stroke-width:1px;stroke-linecap:butt;stroke-linejoin:miter;stroke-opacity:1"
     id="text4430"><path
       d="m 407.89999,317.53916 0,-0.95361 8.5825,0 q 0.63574,0 0.63574,0.95361 l -9.21824,0 z m 0,2.86083 0,-2.54296 1.58935,0 0,2.54296 -1.58935,0 z m 3.81445,0 0,-2.54296 1.58935,0 0,2.54296 -1.58935,0 z m 3.81444,0 0,-2.54296 1.58935,0 0,2.54296 -1.58935,0 z"
       style="font-style:normal;font-variant:normal;font-weight:normal;font-stretch:normal;font-family:NiseMegaDriveEU;-inkscape-font-specification:NiseMegaDriveEU;fill:#c2c2c2;fill-opacity:1"
       id="path4435" /><path
       d="m 417.75397,319.44638 0,-1.58935 1.58935,0 q 0,0.31787 0.31787,0.31787 l 3.81444,0 0,0.95361 -4.13231,0 q 0,0.31787 0.31787,0.31787 l 4.13231,0 0,0.95361 -5.40379,0 q -0.63574,0 -0.63574,-0.95361 z m 0,-1.90722 0,-0.95361 6.03953,0 0,0.95361 -6.03953,0 z"
       style="font-style:normal;font-variant:normal;font-weight:normal;font-stretch:normal;font-family:NiseMegaDriveEU;-inkscape-font-specification:NiseMegaDriveEU;fill:#c2c2c2;fill-opacity:1"
       id="path4437" /><path
       d="m 424.42924,317.53916 q 0,-0.95361 0.63574,-0.95361 l 5.72166,0 0,0.95361 -6.3574,0 z m 0,1.90722 0,-1.58935 1.58935,0 0,1.58935 3.1787,0 q 0.31787,0 0.31787,-0.15893 0,-0.15894 -0.31787,-0.15894 l -1.90722,0 0,-0.95361 2.86083,0 q 0.95361,0 0.95361,0.95361 l 0,0.31787 q 0,0.95361 -0.63574,0.95361 l -5.40379,0 q -0.63574,0 -0.63574,-0.95361 z"
       style="font-style:normal;font-variant:normal;font-weight:normal;font-stretch:normal;font-family:NiseMegaDriveEU;-inkscape-font-specification:NiseMegaDriveEU;fill:#c2c2c2;fill-opacity:1"
       id="path4439" /><path
       d="m 431.74025,320.39999 0,-2.54296 1.58935,0 0,2.54296 -1.58935,0 z m 5.08593,0 0,-0.63574 -3.17871,0 0,-0.95361 3.17871,0 0,-0.95361 1.58935,0 0,2.54296 -1.58935,0 z m -5.08593,-2.86083 q 0,-0.95361 0.63574,-0.95361 l 5.4038,0 q 0.63574,0 0.63574,0.95361 l -6.67528,0 z"
       style="font-style:normal;font-variant:normal;font-weight:normal;font-stretch:normal;font-family:NiseMegaDriveEU;-inkscape-font-specification:NiseMegaDriveEU;fill:#c2c2c2;fill-opacity:1"
       id="path4441" /><path
       d="m 441.37626,320.39999 0,-2.54296 1.58935,0 0,2.54296 -1.58935,0 z m 6.03953,0 -4.13231,0 0,-0.95361 3.1787,0 0,-1.58935 1.58935,0 0,1.58935 q 0,0.95361 -0.63574,0.95361 z m -6.03953,-2.86083 0,-0.95361 6.03953,0 q 0.63574,0 0.63574,0.95361 l -6.67527,0 z"
       style="font-style:normal;font-variant:normal;font-weight:normal;font-stretch:normal;font-family:NiseMegaDriveEU;-inkscape-font-specification:NiseMegaDriveEU;fill:#c2c2c2;fill-opacity:1"
       id="path4443" /><path
       d="m 448.68727,320.39999 0,-2.54296 1.58935,0 0,2.54296 -1.58935,0 z m 0,-2.86083 q 0,-0.95361 0.63574,-0.95361 l 5.40379,0 q 0.63574,0 0.63574,0.95361 l -6.67527,0 z m 1.90722,2.22509 0,-0.95361 2.86083,0 q 0.31787,0 0.31787,-0.31787 l 0,-0.63574 1.58935,0 0,0.95361 q 0,0.95361 -0.63574,0.95361 l 0.95361,0.63574 -1.58935,0 -0.95361,-0.63574 -2.54296,0 z"
       style="font-style:normal;font-variant:normal;font-weight:normal;font-stretch:normal;font-family:NiseMegaDriveEU;-inkscape-font-specification:NiseMegaDriveEU;fill:#c2c2c2;fill-opacity:1"
       id="path4445" /><path
       d="m 456.31615,320.39999 0,-2.54296 1.58936,0 0,2.54296 -1.58936,0 z m 0,-2.86083 0,-0.95361 1.58936,0 0,0.95361 -1.58936,0 z"
       style="font-style:normal;font-variant:normal;font-weight:normal;font-stretch:normal;font-family:NiseMegaDriveEU;-inkscape-font-specification:NiseMegaDriveEU;fill:#c2c2c2;fill-opacity:1"
       id="path4447" /><path
       d="m 459.17698,317.53916 -0.63574,-0.95361 1.90723,0 0.63574,0.95361 -1.90723,0 z m 1.90723,2.86083 -1.58936,-2.54296 1.90723,0 0.95361,1.52578 0.95361,-1.52578 1.90722,0 -1.58935,2.54296 -2.54296,0 z m 2.49755,-2.86083 0.63574,-0.95361 1.90722,0 -0.63574,0.95361 -1.90722,0 z"
       style="font-style:normal;font-variant:normal;font-weight:normal;font-stretch:normal;font-family:NiseMegaDriveEU;-inkscape-font-specification:NiseMegaDriveEU;fill:#c2c2c2;fill-opacity:1"
       id="path4449" /><path
       d="m 466.76046,319.44638 0,-1.58935 1.58935,0 q 0,0.31787 0.31787,0.31787 l 3.81444,0 0,0.95361 -4.13231,0 q 0,0.31787 0.31787,0.31787 l 4.13231,0 0,0.95361 -5.40379,0 q -0.63574,0 -0.63574,-0.95361 z m 0,-1.90722 0,-0.95361 6.03953,0 0,0.95361 -6.03953,0 z"
       style="font-style:normal;font-variant:normal;font-weight:normal;font-stretch:normal;font-family:NiseMegaDriveEU;-inkscape-font-specification:NiseMegaDriveEU;fill:#c2c2c2;fill-opacity:1"
       id="path4451" /></g></svg>