<?xml version="1.0" encoding="UTF-8" standalone="no"?>
<svg
   xmlns:dc="http://purl.org/dc/elements/1.1/"
   xmlns:cc="http://creativecommons.org/ns#"
   xmlns:rdf="http://www.w3.org/1999/02/22-rdf-syntax-ns#"
   xmlns:svg="http://www.w3.org/2000/svg"
   xmlns="http://www.w3.org/2000/svg"
   xmlns:sodipodi="http://sodipodi.sourceforge.net/DTD/sodipodi-0.dtd"
   xmlns:inkscape="http://www.inkscape.org/namespaces/inkscape"
   viewBox="0 0 189.66875 322.34226"
   height="322.34225"
   width="189.66875"
   xml:space="preserve"
   version="1.1"
   id="svg2"
   inkscape:version="0.48.4 r9939"
   sodipodi:docname="controller.svg"><sodipodi:namedview
     pagecolor="#ffffff"
     bordercolor="#666666"
     borderopacity="1"
     objecttolerance="10"
     gridtolerance="10"
     guidetolerance="10"
     inkscape:pageopacity="0"
     inkscape:pageshadow="2"
     inkscape:window-width="640"
     inkscape:window-height="480"
     id="namedview150"
     showgrid="false"
     fit-margin-top="0"
     fit-margin-left="0"
     fit-margin-right="0"
     fit-margin-bottom="0"
     inkscape:zoom="1.0547787"
     inkscape:cx="94.834248"
     inkscape:cy="161.17112"
     inkscape:window-x="61"
     inkscape:window-y="24"
     inkscape:window-maximized="0"
     inkscape:current-layer="svg2" /><metadata
     id="metadata8"><rdf:RDF><cc:Work
         rdf:about=""><dc:format>image/svg+xml</dc:format><dc:type
           rdf:resource="http://purl.org/dc/dcmitype/StillImage" /><dc:title /></cc:Work></rdf:RDF></metadata><defs
     id="defs6"><clipPath
       id="clipPath16"
       clipPathUnits="userSpaceOnUse"><path
         id="path18"
         d="m 0,151.735 257.874,0 L 257.874,0 0,0 0,151.735 z"
         inkscape:connector-curvature="0" /></clipPath></defs><g
     transform="matrix(0,1.25,1.25,0,-1.9828834e-6,-2.5e-4)"
     id="g10"><g
       id="g12"><g
         clip-path="url(#clipPath16)"
         id="g14"><g
           transform="translate(120.1992,136.783)"
           id="g20"><path
             id="path22"
             style="fill:#353132;fill-opacity:1;fill-rule:nonzero;stroke:none"
             d="M 0,0 C -0.007,0.001 -0.009,0.005 -0.005,0.008 -0.001,0.01 0.014,0.017 0.015,0.015 0.017,0.014 0.024,0.009 0.025,0.005 0.027,0.001 0.007,-0.001 0,0 m -14.921,0.406 c -0.001,0 -0.001,0.004 0,0.01 0.002,0.006 0.004,0.016 0.005,0.01 0.002,-0.005 -0.003,-0.02 -0.005,-0.02 m -8.872,-0.388 0,-0.005 c 0.003,-0.003 0.004,-0.005 0.003,-0.005 -0.002,0 -0.006,0.002 -0.003,0.005 l 0,0.005 z M 131.499,-34.79 c -4.407,8.572 -11.204,14.85 -19.126,20.048 C 98.713,-5.781 83.808,0.471 68.312,5.403 55.535,9.472 42.48,12.362 29.153,13.824 c -6.132,0.67 -12.334,0.731 -18.501,1.099 -1.129,0.066 -8.31,0.005 -9.369,-0.035 -31.797,-1.18 -61.805,-9.061 -89.826,-24.194 -8.385,-4.523 -16.1,-9.984 -21.687,-17.961 -5.824,-8.315 -8.799,-17.578 -9.45,-27.653 -0.065,-1.059 -0.096,-1.202 -0.096,-1.202 -0.233,-1.075 -0.423,-2.045 -0.423,-2.156 0,-0.111 0.186,-1.082 0.414,-2.158 0,0 0.004,-0.02 0.025,-1.014 0.216,-12.697 3.822,-24.526 9.434,-35.766 5.9,-11.799 13.7,-22.176 24.148,-30.38 4.538,-3.565 9.48,-6.319 15.344,-7.166 8.643,-1.25 17.563,3.429 21.158,11.431 2.839,6.314 6.258,12.178 11.472,16.872 3.348,3.016 7.145,5.29 11.325,6.838 16.353,6.056 33.18,7.896 50.374,4.926 7.816,-1.346 15.481,-3.565 22.671,-6.998 9.283,-4.428 15.143,-12.057 18.939,-21.375 1.609,-3.944 3.535,-7.534 7.246,-9.899 7.458,-4.745 15.148,-4.982 23.019,-1.175 6.712,3.243 12.208,8.084 17.195,13.499 12.167,13.201 20.351,28.525 23.745,46.199 2.627,13.675 1.689,27.022 -4.811,39.654"
             inkscape:connector-curvature="0" /></g><g
           transform="translate(57.748,120.5226)"
           id="g24"><path
             id="path26"
             style="fill:#424244;fill-opacity:1;fill-rule:nonzero;stroke:none"
             d="m 0,0 c -21.982,0.03 -39.815,-17.741 -39.851,-39.713 -0.036,-21.94 17.859,-40.044 39.684,-39.911 22.141,0.134 39.863,17.325 39.808,39.946 C 39.585,-16.392 20.756,0.052 0,0 m 40.977,-39.759 c -0.039,-22.133 -17.389,-41.11 -40.982,-41.143 -23.152,-0.033 -40.928,18.208 -41.188,40.978 -0.258,22.488 18.413,41.215 40.917,41.299 22.704,0.085 41.129,-18.287 41.253,-41.134"
             inkscape:connector-curvature="0" /></g><g
           transform="translate(234.0052,69.4357)"
           id="g28"><path
             id="path30"
             style="fill:#191716;fill-opacity:1;fill-rule:nonzero;stroke:none"
             d="m 0,0 c -0.504,-0.282 -1.029,-0.519 -1.563,-0.731 -6.404,-2.521 -12.914,-4.785 -19.177,-7.609 -8.995,-4.049 -17.825,-8.466 -26.654,-12.879 -4.518,-2.259 -8.865,-4.704 -14.174,-4.664 -10.675,0.086 -19.076,7.977 -20.241,18.622 -1.013,9.263 2.92,16.171 9.445,21.99 10.191,9.091 21.229,16.882 34.243,21.531 6.48,2.31 18.783,5.365 27.159,5.214 5.909,0.313 11.108,-1.583 16.337,-5.733 4.251,-3.374 6.132,-9.893 6.631,-14.835 0.035,-0.368 0.05,-0.736 0.05,-1.104 C 12.031,14.315 11.3,6.293 0,0 m -5.335,41.988 c -4.851,0.762 -9.636,0.333 -14.447,-0.337 -21.616,-3.016 -39.537,-13.267 -55.013,-28.208 -6.222,-6.005 -9.041,-13.221 -7.664,-22.066 1.815,-11.713 12.767,-20.008 24.38,-17.739 3.227,0.63 6.338,2.143 9.339,3.595 4.593,2.214 8.925,5.013 13.589,7.055 11.013,4.82 22.121,9.434 33.26,13.947 9.858,3.999 14.714,10.811 14.916,21.476 0.216,11.487 -7.272,20.533 -18.36,22.277"
             inkscape:connector-curvature="0" /></g><g
           transform="translate(246.0616,89.2374)"
           id="g32"><path
             id="path34"
             style="fill:#1b1918;fill-opacity:1;fill-rule:nonzero;stroke:none"
             d="m 0,0 c -0.025,-5.486 -0.756,-13.509 -12.056,-19.802 -0.505,-0.282 -1.029,-0.519 -1.564,-0.731 -6.404,-2.521 -12.913,-4.785 -19.176,-7.609 -8.996,-4.049 -17.825,-8.466 -26.654,-12.878 -4.518,-2.259 -8.865,-4.705 -14.175,-4.664 -10.675,0.085 -19.075,7.977 -20.24,18.621 -1.014,9.263 2.92,16.171 9.444,21.99 10.191,9.092 21.229,16.882 34.244,21.532 6.479,2.309 18.783,5.365 27.158,5.213 5.91,0.313 11.109,-1.583 16.338,-5.733 C -2.43,12.566 -0.55,6.046 -0.05,1.104 -0.015,0.736 0,0.368 0,0"
             inkscape:connector-curvature="0" /></g><g
           transform="translate(194.4875,113.2949)"
           id="g36"><path
             id="path38"
             style="fill:#1b1918;fill-opacity:1;fill-rule:nonzero;stroke:none"
             d="m 0,0 c -5.718,-2.657 -11.507,-5.169 -17.291,-7.685 -0.776,-0.338 -1.689,-0.363 -2.027,-0.433 -3.807,0.035 -6.363,2.163 -7.089,5.456 -0.711,3.232 0.514,5.793 3.65,7.215 5.376,2.441 10.766,4.861 16.207,7.161 4.926,2.082 9.258,-0.081 9.999,-4.836 C 3.898,4.014 2.647,1.225 0,0"
             inkscape:connector-curvature="0" /></g><g
           transform="translate(84.5543,105.7923)"
           id="g40"><path
             id="path42"
             style="fill:#302c2d;fill-opacity:1;fill-rule:nonzero;stroke:none"
             d="M 0,0 C -0.791,0.476 -1.303,1.028 -1.688,0.95 -2.102,0.867 -2.689,0.172 -2.661,-0.217 -2.633,-0.602 -1.941,-1.207 -1.525,-1.22 -1.129,-1.232 -0.712,-0.605 0,0 m -53.7,-1.054 c 0.176,-0.179 0.352,-0.357 0.529,-0.535 0.561,0.243 1.193,0.401 1.645,0.776 0.158,0.131 0.007,0.929 -0.244,1.178 -0.251,0.249 -1.051,0.39 -1.179,0.231 -0.367,-0.456 -0.516,-1.088 -0.751,-1.65 m 51.195,-51.453 c 0.223,-0.232 0.446,-0.465 0.67,-0.697 0.556,0.255 1.194,0.419 1.629,0.809 0.172,0.155 0.03,0.943 -0.219,1.204 -0.249,0.26 -1.027,0.436 -1.192,0.27 -0.411,-0.414 -0.606,-1.043 -0.888,-1.586 m -51.196,-0.205 c 0.202,-0.169 0.403,-0.338 0.604,-0.506 0.546,0.29 1.173,0.499 1.594,0.915 0.153,0.151 -0.062,0.951 -0.338,1.179 -0.281,0.232 -1.103,0.311 -1.23,0.132 -0.341,-0.481 -0.437,-1.135 -0.63,-1.72 m 23.995,-6.275 c 0.688,-1.818 1.259,-3.326 1.831,-4.834 0.216,0.018 0.432,0.036 0.649,0.055 0.556,1.499 1.111,2.998 1.772,4.779 l -4.252,0 z m 36.512,35.37 0,-4.353 c 1.867,0.743 3.337,1.327 4.806,1.911 -0.003,0.224 -0.006,0.447 -0.01,0.671 -1.486,0.549 -2.971,1.097 -4.796,1.771 m -72.124,-1.779 c 0.018,-0.258 0.036,-0.516 0.054,-0.774 1.505,-0.531 3.009,-1.062 4.985,-1.759 -0.113,1.676 -0.188,2.802 -0.292,4.345 -1.858,-0.709 -3.302,-1.26 -4.747,-1.812 m 35.717,34.468 c 0.139,-0.216 0.279,-0.432 0.418,-0.648 1.145,0.088 2.29,0.176 3.815,0.293 -0.772,1.87 -1.351,3.271 -1.929,4.672 -0.214,-0.011 -0.428,-0.022 -0.643,-0.032 -0.553,-1.429 -1.107,-2.857 -1.661,-4.285 m 2.76,-1.885 c -17.748,0.002 -32.246,-14.431 -32.284,-32.14 -0.039,-17.682 14.529,-32.52 32.072,-32.415 17.135,0.103 32.386,13.083 32.35,32.5 C 5.261,-6.015 -10.198,7.278 -26.841,7.187 m 0.035,7.543 c 20.756,0.053 39.584,-16.392 39.641,-39.678 0.055,-22.621 -17.667,-39.811 -39.808,-39.946 -21.826,-0.133 -39.721,17.971 -39.684,39.911 0.036,21.973 17.868,39.743 39.851,39.713"
             inkscape:connector-curvature="0" /></g><g
           transform="translate(54.9534,114.8645)"
           id="g44"><path
             id="path46"
             style="fill:#96334d;fill-opacity:1;fill-rule:nonzero;stroke:none"
             d="M 0,0 C 0.554,1.428 1.107,2.856 1.661,4.284 1.875,4.295 2.09,4.306 2.304,4.317 2.882,2.916 3.461,1.515 4.232,-0.355 2.708,-0.472 1.563,-0.56 0.418,-0.648 0.278,-0.432 0.139,-0.216 0,0"
             inkscape:connector-curvature="0" /></g><g
           transform="translate(19.2362,80.3964)"
           id="g48"><path
             id="path50"
             style="fill:#96334d;fill-opacity:1;fill-rule:nonzero;stroke:none"
             d="M 0,0 C 1.445,0.552 2.889,1.103 4.747,1.812 4.851,0.269 4.926,-0.857 5.039,-2.533 3.063,-1.836 1.559,-1.305 0.054,-0.774 0.036,-0.516 0.018,-0.258 0,0"
             inkscape:connector-curvature="0" /></g><g
           transform="translate(91.3598,82.1758)"
           id="g52"><path
             id="path54"
             style="fill:#96334d;fill-opacity:1;fill-rule:nonzero;stroke:none"
             d="M 0,0 C 1.825,-0.674 3.311,-1.223 4.797,-1.772 4.8,-1.995 4.803,-2.219 4.807,-2.442 3.337,-3.027 1.867,-3.611 0,-4.353 L 0,0 z"
             inkscape:connector-curvature="0" /></g><g
           transform="translate(54.8481,46.8054)"
           id="g56"><path
             id="path58"
             style="fill:#96334d;fill-opacity:1;fill-rule:nonzero;stroke:none"
             d="M 0,0 4.252,0 C 3.592,-1.782 3.036,-3.281 2.48,-4.779 2.264,-4.798 2.047,-4.816 1.831,-4.835 1.26,-3.326 0.689,-1.818 0,0"
             inkscape:connector-curvature="0" /></g><g
           transform="translate(231.4537,73.5755)"
           id="g60"><path
             id="path62"
             style="fill:#322e2f;fill-opacity:1;fill-rule:nonzero;stroke:none"
             d="m 0,0 c -7.982,-3.187 -16.101,-6.066 -23.931,-9.581 -8.325,-3.736 -16.424,-7.992 -24.547,-12.162 -6.308,-3.187 -8.391,-3.041 -13.221,-2.204 -3.51,0.611 -9.021,4.009 -11.205,8.618 -1.205,2.541 -1.744,5.36 -1.477,8.159 0.615,6.368 3.913,10.095 8.073,12.818 15.284,10.009 31.868,17.25 48.952,23.472 2.95,1.074 5.95,2.284 9.026,2.718 C 1.73,33.26 9.964,26.12 10.382,15.929 10.7,8.098 7.357,2.935 0,0"
             inkscape:connector-curvature="0" /></g><g
           transform="translate(193.7306,120.7501)"
           id="g64"><path
             id="path66"
             style="fill:#c1c0c0;fill-opacity:1;fill-rule:nonzero;stroke:none"
             d="m 0,0 c 0.835,-1.544 0.457,-3.372 -1.892,-4.389 -5.075,-2.429 -10.185,-4.787 -15.29,-7.153 -0.481,-0.223 -0.997,-0.419 -1.517,-0.506 -1.495,-0.25 -3.079,0.65 -3.547,2.031 -0.499,1.472 0.07,2.623 1.252,3.506 0.371,0.277 11.155,5.064 16.128,7.236 C -2.096,2.048 -0.564,1.043 0,0"
             inkscape:connector-curvature="0" /></g><g
           transform="translate(57.7246,104.4479)"
           id="g68"><path
             id="path70"
             style="fill:#2c2829;fill-opacity:1;fill-rule:nonzero;stroke:none"
             d="m 0,0 c -13.322,0.013 -23.708,-10.287 -23.759,-23.563 -0.051,-13.363 10.37,-23.908 23.648,-23.931 13.283,-0.022 23.811,10.505 23.819,23.815 C 23.716,-10.526 13.19,-0.013 0,0 M -25.126,-23.639 C -25.109,-9.685 -13.946,1.393 0.068,1.363 13.812,1.334 25.11,-9.987 25.082,-23.701 25.054,-37.559 13.719,-48.89 -0.095,-48.869 c -13.879,0.021 -25.048,11.279 -25.031,25.23"
             inkscape:connector-curvature="0" /></g><g
           transform="translate(78.6879,75.9505)"
           id="g72"><path
             id="path74"
             style="fill:#191716;fill-opacity:1;fill-rule:nonzero;stroke:none"
             d="m 0,0 -16.106,0 0,-16.237 -9.59,0 c -0.081,5.33 -0.157,10.509 -0.242,16.136 l -16.01,0 0,9.535 c 5.244,0.096 10.357,0.192 15.712,0.293 0.162,1.381 0.383,2.486 0.399,3.59 0.055,3.227 0.005,6.454 0.04,9.677 0.01,0.847 0.186,1.689 0.313,2.763 l 9.157,0 c 0.07,-5.275 0.136,-10.448 0.211,-16.06 C -10.599,9.621 -5.421,9.545 0,9.47 L 0,0 z m 0.963,8.012 c -0.035,1.992 -0.529,2.375 -2.561,2.537 -1.871,0.156 -3.752,0.297 -5.587,0.665 -4.322,0.868 -6.737,3.686 -7.514,7.927 -0.297,1.639 -0.343,3.328 -0.464,4.997 -0.151,2.113 -0.741,2.784 -2.823,2.849 -2.012,0.061 -4.034,0.066 -6.046,-0.005 -2.118,-0.071 -2.577,-0.686 -2.764,-2.859 -0.171,-1.997 -0.373,-4.014 -0.811,-5.97 -0.802,-3.595 -3.091,-5.945 -6.692,-6.762 -2.077,-0.474 -4.23,-0.676 -6.363,-0.832 -1.649,-0.121 -2.491,-0.852 -2.542,-2.476 -0.04,-1.271 -0.04,-2.551 -0.04,-3.827 -0.005,-5.088 0,-5.088 4.997,-5.365 6.999,-0.389 10.161,-3.283 11.164,-10.272 0.182,-1.26 0.061,-2.582 0.383,-3.792 0.212,-0.776 0.943,-1.966 1.503,-2.002 3.041,-0.196 6.106,-0.095 9.53,-0.095 0.202,1.638 0.464,2.98 0.509,4.336 0.263,7.402 3.333,10.846 10.59,11.749 0.927,0.116 1.885,0.015 2.813,0.131 0.822,0.111 1.624,0.383 2.728,0.661 0,3.05 0.035,5.728 -0.01,8.405"
             inkscape:connector-curvature="0" /></g><g
           transform="translate(46.966,94.696)"
           id="g76"><path
             id="path78"
             style="fill:#191716;fill-opacity:1;fill-rule:nonzero;stroke:none"
             d="m 0,0 c -1.061,-1.004 -1.685,-1.593 -2.597,-2.456 -0.602,1.315 -1.048,2.29 -1.495,3.266 0.12,0.186 0.24,0.373 0.36,0.56 C -2.679,0.983 -1.627,0.597 0,0"
             inkscape:connector-curvature="0" /></g><g
           transform="translate(71.5318,91.7328)"
           id="g80"><path
             id="path82"
             style="fill:#191716;fill-opacity:1;fill-rule:nonzero;stroke:none"
             d="m 0,0 c -0.589,0.567 -1.177,1.135 -1.766,1.702 0.07,0.242 0.14,0.484 0.209,0.727 1.051,0.46 2.102,0.92 3.152,1.38 C 1.74,3.664 1.884,3.52 2.029,3.375 1.607,2.334 1.186,1.293 0.765,0.252 0.51,0.168 0.255,0.084 0,0"
             inkscape:connector-curvature="0" /></g><g
           transform="translate(42.5274,66.0381)"
           id="g84"><path
             id="path86"
             style="fill:#191716;fill-opacity:1;fill-rule:nonzero;stroke:none"
             d="M 0,0 C 0.422,1.027 0.844,2.054 1.415,3.444 2.36,2.589 2.996,2.014 4.01,1.096 2.565,0.462 1.512,0 0.46,-0.462 0.307,-0.308 0.153,-0.154 0,0"
             inkscape:connector-curvature="0" /></g><g
           transform="translate(71.3147,69.0944)"
           id="g88"><path
             id="path90"
             style="fill:#191716;fill-opacity:1;fill-rule:nonzero;stroke:none"
             d="M 0,0 C 0.624,-1.473 1.063,-2.509 1.502,-3.545 1.366,-3.698 1.23,-3.852 1.094,-4.005 0.064,-3.601 -0.965,-3.198 -2.439,-2.619 -1.532,-1.645 -0.921,-0.989 0,0"
             inkscape:connector-curvature="0" /></g><g
           transform="translate(57.9314,76.7395)"
           id="g92"><path
             id="path94"
             style="fill:#ffffff;fill-opacity:1;fill-rule:nonzero;stroke:none"
             d="M 0,0 C 2.284,0 4.136,1.852 4.136,4.136 4.136,6.42 2.284,8.272 0,8.272 -2.284,8.272 -4.136,6.42 -4.136,4.136 -4.136,1.852 -2.284,0 0,0"
             inkscape:connector-curvature="0" /></g><g
           transform="translate(173.894,55.08)"
           id="g96"><path
             id="path98"
             style="fill:#171514;fill-opacity:1;fill-rule:nonzero;stroke:none"
             d="m 0,0 c 5.638,0 10.208,4.57 10.208,10.208 0,5.638 -4.57,10.209 -10.208,10.209 -5.638,0 -10.208,-4.571 -10.208,-10.209 C -10.208,4.57 -5.638,0 0,0 m -11.468,10.208 c 0,6.334 5.135,11.468 11.468,11.468 6.333,0 11.468,-5.134 11.468,-11.468 C 11.468,3.875 6.333,-1.259 0,-1.259 c -6.333,0 -11.468,5.134 -11.468,11.467"
             inkscape:connector-curvature="0" /></g><g
           transform="translate(200.2618,68.1153)"
           id="g100"><path
             id="path102"
             style="fill:#171514;fill-opacity:1;fill-rule:nonzero;stroke:none"
             d="m 0,0 c 5.638,0 10.208,4.57 10.208,10.208 0,5.638 -4.57,10.209 -10.208,10.209 -5.638,0 -10.208,-4.571 -10.208,-10.209 C -10.208,4.57 -5.638,0 0,0 m -11.468,10.208 c 0,6.334 5.135,11.468 11.468,11.468 6.333,0 11.468,-5.134 11.468,-11.468 C 11.468,3.875 6.333,-1.259 0,-1.259 c -6.333,0 -11.468,5.134 -11.468,11.467"
             inkscape:connector-curvature="0" /></g><g
           transform="translate(227.3289,78.9617)"
           id="g104"><path
             id="path106"
             style="fill:#171514;fill-opacity:1;fill-rule:nonzero;stroke:none"
             d="m 0,0 c 5.638,0 10.208,4.57 10.208,10.208 0,5.638 -4.57,10.209 -10.208,10.209 -5.638,0 -10.208,-4.571 -10.208,-10.209 C -10.208,4.57 -5.638,0 0,0 m -11.468,10.208 c 0,6.334 5.135,11.468 11.468,11.468 6.333,0 11.468,-5.134 11.468,-11.468 C 11.468,3.875 6.333,-1.259 0,-1.259 c -6.333,0 -11.468,5.134 -11.468,11.467"
             inkscape:connector-curvature="0" /></g><g
           transform="translate(175.3013,66.7879)"
           id="g108"><path
             id="path110"
             style="fill:#a82b2a;fill-opacity:1;fill-rule:nonzero;stroke:none"
             d="M 0,0 -1.879,1.272 -2.43,1.008 -2.544,-1.214 0,0 z m 2.906,-1.029 -0.855,-0.408 -1.378,0.896 -3.242,-1.548 -0.132,-1.617 -0.893,-0.425 0.488,5.666 1.259,0.601 4.753,-3.165 z"
             inkscape:connector-curvature="0" /></g><g
           transform="translate(201.6476,79.5573)"
           id="g112"><path
             id="path114"
             style="fill:#a82b2a;fill-opacity:1;fill-rule:nonzero;stroke:none"
             d="m 0,0 -3.265,-1.542 -0.533,1.129 3.265,1.542 C -0.2,1.286 0.057,1.173 0.236,0.794 0.413,0.419 0.333,0.157 0,0 M 0.893,-1.891 0.38,-2.133 -2.377,-3.424 -2.91,-2.296 -0.123,-0.98 0.36,-0.762 c 0.333,0.157 0.588,0.048 0.763,-0.322 0.179,-0.379 0.103,-0.65 -0.23,-0.807 m 0.074,1.828 C 1.207,0.162 1.241,0.5 1.08,0.948 L 0.908,1.335 C 0.552,2.089 -0.067,2.256 -0.941,1.843 l -3.953,-1.867 0.342,-0.745 1.422,-3.011 0.364,-0.75 3.953,1.866 c 0.874,0.413 1.137,1 0.783,1.75 l -0.189,0.379 c -0.207,0.331 -0.476,0.489 -0.814,0.472"
             inkscape:connector-curvature="0" /></g><g
           transform="translate(227.6389,90.951)"
           id="g116"><path
             id="path118"
             style="fill:#a82b2a;fill-opacity:1;fill-rule:nonzero;stroke:none"
             d="m 0,0 -1.919,-0.791 c -1.288,-0.524 -0.964,-0.992 -0.543,-2.018 0.42,-1.027 0.515,-1.585 1.798,-1.06 l 3.396,1.391 0.315,-0.77 -3.39,-1.393 c -1.793,-0.737 -2.248,-0.028 -2.879,1.512 -0.631,1.54 -0.813,2.369 0.966,3.104 L 1.155,1.372 1.468,0.608 0,0 z"
             inkscape:connector-curvature="0" /></g><g
           transform="translate(148.3853,82.2968)"
           id="g120"><path
             id="path122"
             style="fill:#d8d7d5;fill-opacity:1;fill-rule:nonzero;stroke:none"
             d="m 0,0 -6.437,0 0,1.505 4.412,0 c -0.321,0.971 -0.586,1.76 -0.843,2.553 -0.64,1.975 -1.238,3.967 -1.941,5.918 -0.17,0.472 -0.629,1.057 -1.049,1.155 C -6.565,11.295 -6.794,10.562 -6.99,9.955 -7.969,6.927 -8.976,3.91 -9.923,0.872 c -0.222,-0.714 -0.547,-0.954 -1.265,-0.935 -1.975,0.054 -3.952,0.005 -5.927,0.023 -2.002,0.018 -3.311,1.328 -3.355,3.4 -0.039,1.866 -0.043,3.735 10e-4,5.601 0.048,2.104 1.315,3.385 3.338,3.414 1.781,0.025 3.562,0.005 5.406,0.005 l 0,-1.585 c -1.53,0 -3.052,0 -4.574,0 -2.147,10e-4 -2.64,-0.518 -2.641,-2.782 0,-1.408 -0.006,-2.817 0.002,-4.226 0.009,-1.507 0.695,-2.241 2.113,-2.256 1.152,-0.012 2.303,-0.003 3.514,-0.003 l 0,4.914 -2.931,0 0,1.529 4.566,0 0,-6.473 c 0.083,-0.01 0.166,-0.02 0.249,-0.03 0.966,2.976 1.934,5.952 2.897,8.929 0.551,1.702 1.565,2.394 3.2,2.142 0.91,-0.139 1.584,-0.67 1.882,-1.571 C -2.265,7.394 -1.118,3.807 0.038,0.224 0.055,0.17 0.018,0.098 0,0"
             inkscape:connector-curvature="0" /></g><g
           transform="translate(108.0478,82.2639)"
           id="g124"><path
             id="path126"
             style="fill:#d8d7d5;fill-opacity:1;fill-rule:nonzero;stroke:none"
             d="m 0,0 0,1.567 c 1.717,0 3.401,-0.019 5.085,0.006 1.409,0.02 2.462,1.043 2.512,2.381 C 7.647,5.262 6.605,6.381 5.22,6.479 4.657,6.518 4.087,6.464 3.528,6.524 2.666,6.617 2.038,7.429 2.039,8.368 c 10e-4,0.951 0.622,1.801 1.491,1.826 1.842,0.054 3.685,0.017 5.577,0.017 l 0,-1.55 -2.802,0 -2.612,0 C 3.692,8.487 3.69,8.313 3.688,8.139 4.204,8.116 4.72,8.084 5.237,8.072 7.183,8.027 8.589,6.893 9.074,4.967 9.667,2.615 7.979,0.112 5.654,0.015 3.81,-0.061 1.96,0 0,0"
             inkscape:connector-curvature="0" /></g><g
           transform="translate(108.0324,84.4457)"
           id="g128"><path
             id="path130"
             style="fill:#d8d7d5;fill-opacity:1;fill-rule:nonzero;stroke:none"
             d="m 0,0 0,1.619 5.433,0 c 0,0.151 0.001,0.303 0.001,0.455 C 4.88,2.096 4.327,2.129 3.772,2.139 2.217,2.166 1.06,2.91 0.378,4.342 c -0.694,1.459 -0.587,2.92 0.328,4.261 0.627,0.92 1.494,1.543 2.586,1.578 1.908,0.061 3.82,0.017 5.805,0.017 l 0,-1.553 C 7.383,8.645 5.667,8.674 3.952,8.637 2.25,8.6 1.145,7.011 1.659,5.41 1.968,4.447 2.851,3.8 3.983,3.734 4.515,3.702 5.052,3.742 5.581,3.688 6.439,3.6 7.089,2.792 7.099,1.866 7.109,0.941 6.46,0.04 5.622,0.016 3.779,-0.036 1.935,0 0,0"
             inkscape:connector-curvature="0" /></g><g
           transform="translate(127.1215,94.6234)"
           id="g132"><path
             id="path134"
             style="fill:#d8d7d5;fill-opacity:1;fill-rule:nonzero;stroke:none"
             d="m 0,0 0,-1.531 c -1.698,0 -3.38,10e-4 -5.061,-0.001 -1.768,-0.002 -2.384,-0.627 -2.396,-2.457 -0.009,-1.473 -0.004,-2.946 0.007,-4.419 0.013,-1.7 0.666,-2.385 2.269,-2.389 1.686,-0.005 3.372,-10e-4 5.121,-10e-4 l 0,-1.573 c -1.258,0 -2.497,-0.002 -3.735,0.001 -0.784,0.002 -1.57,-0.026 -2.35,0.029 -1.437,0.102 -2.745,1.446 -2.782,2.95 -0.053,2.158 -0.05,4.32 -0.001,6.479 0.032,1.383 1.2,2.806 2.521,2.88 C -4.292,0.087 -2.166,0 0,0"
             inkscape:connector-curvature="0" /></g><g
           transform="translate(141.8552,86.2289)"
           id="g136"><path
             id="path138"
             style="fill:#d8d7d5;fill-opacity:1;fill-rule:nonzero;stroke:none"
             d="M 0,0 1.294,0 C 1.092,0.624 0.921,1.153 0.751,1.682 L 0.528,1.668 C 0.366,1.156 0.204,0.645 0,0 m -3.152,-3.897 c 1.092,3.373 2.154,6.674 3.241,9.965 0.077,0.233 0.318,0.481 0.536,0.56 C 0.745,6.671 1.08,6.413 1.143,6.227 2.029,3.589 2.886,0.94 3.774,-1.781 l -3.687,0 c -0.041,0.391 -0.077,0.739 -0.114,1.087 -0.052,0.019 -0.105,0.039 -0.158,0.058 -0.21,-0.611 -0.426,-1.22 -0.629,-1.833 -0.541,-1.626 -0.539,-1.627 -2.338,-1.428"
             inkscape:connector-curvature="0" /></g><g
           transform="translate(133.2224,86.3873)"
           id="g140"><path
             id="path142"
             style="fill:#d8d7d5;fill-opacity:1;fill-rule:nonzero;stroke:none"
             d="m 0,0 c -0.472,0.138 -0.752,0.22 -1.088,0.318 l 0,1.392 2.392,0 0,-3.646 c -1.223,0 -2.439,-0.069 -3.638,0.047 -0.312,0.031 -0.802,0.631 -0.817,0.988 -0.082,1.962 -0.058,3.93 -0.035,5.895 0.009,0.689 0.412,1.093 1.077,1.1 C -0.293,6.111 1.524,6.1 3.422,6.1 l 0,-1.559 C 2.055,4.541 0.714,4.503 -0.623,4.555 -1.444,4.588 -1.761,4.288 -1.708,3.423 -1.653,2.509 -1.705,1.589 -1.694,0.672 -1.68,-0.423 -1.175,-0.686 0,0"
             inkscape:connector-curvature="0" /></g><g
           transform="translate(121.8811,86.1232)"
           id="g144"><path
             id="path146"
             style="fill:#d8d7d5;fill-opacity:1;fill-rule:nonzero;stroke:none"
             d="m 0,0 c 1.688,-0.315 3.436,0.015 5.186,-0.183 l 0,-1.486 c -2.002,0 -3.964,-0.049 -5.92,0.049 -0.312,0.016 -0.779,0.653 -0.85,1.064 -0.136,0.789 -0.04,1.622 -0.04,2.519 l 5.568,0 0,-1.469 -3.892,0 C 0.034,0.329 0.017,0.165 0,0"
             inkscape:connector-curvature="0" /></g><g
           transform="translate(127.1219,92.4721)"
           id="g148"><path
             id="path150"
             style="fill:#d8d7d5;fill-opacity:1;fill-rule:nonzero;stroke:none"
             d="m 0,0 0,-1.477 c -1.736,-0.247 -3.517,0.158 -5.223,-0.219 0.006,-0.135 0.012,-0.271 0.017,-0.406 l 3.912,0 0,-1.543 -5.553,0 c 0,0.905 -0.078,1.85 0.041,2.766 0.043,0.328 0.553,0.828 0.865,0.84 C -3.978,0.038 -2.011,0 0,0"
             inkscape:connector-curvature="0" /></g><g
           transform="translate(33.2384,105.5942)"
           id="g152"><path
             id="path154"
             style="fill:#ffffff;fill-opacity:1;fill-rule:nonzero;stroke:none"
             d="m 0,0 c 0,-0.696 -0.564,-1.261 -1.261,-1.261 -0.696,0 -1.26,0.565 -1.26,1.261 0,0.696 0.564,1.261 1.26,1.261 C -0.564,1.261 0,0.696 0,0"
             inkscape:connector-curvature="0" /></g><g
           transform="translate(84.0672,105.8112)"
           id="g156"><path
             id="path158"
             style="fill:#ffffff;fill-opacity:1;fill-rule:nonzero;stroke:none"
             d="m 0,0 c 0,-0.696 -0.564,-1.261 -1.261,-1.261 -0.696,0 -1.26,0.565 -1.26,1.261 0,0.696 0.564,1.261 1.26,1.261 C -0.564,1.261 0,0.696 0,0"
             inkscape:connector-curvature="0" /></g><g
           transform="translate(84.4838,53.7363)"
           id="g160"><path
             id="path162"
             style="fill:#ffffff;fill-opacity:1;fill-rule:nonzero;stroke:none"
             d="m 0,0 c 0,-0.696 -0.564,-1.261 -1.261,-1.261 -0.696,0 -1.26,0.565 -1.26,1.261 0,0.696 0.564,1.261 1.26,1.261 C -0.564,1.261 0,0.696 0,0"
             inkscape:connector-curvature="0" /></g><g
           transform="translate(33.2344,53.7363)"
           id="g164"><path
             id="path166"
             style="fill:#ffffff;fill-opacity:1;fill-rule:nonzero;stroke:none"
             d="m 0,0 c 0,-0.696 -0.564,-1.261 -1.261,-1.261 -0.696,0 -1.26,0.565 -1.26,1.261 0,0.696 0.564,1.261 1.26,1.261 C -0.564,1.261 0,0.696 0,0"
             inkscape:connector-curvature="0" /></g><g
           transform="translate(78.6879,85.4202)"
           id="g168"><path
             id="path170"
             style="fill:#201e1d;fill-opacity:1;fill-rule:nonzero;stroke:none"
             d="m 0,0 0,-9.47 -16.106,0 0,-16.236 -9.59,0 c -0.081,5.33 -0.157,10.508 -0.242,16.135 l -16.01,0 0,9.536 c 5.244,0.096 10.357,0.191 15.712,0.292 0.162,1.382 0.383,2.486 0.399,3.59 0.055,3.228 0.005,6.455 0.04,9.677 0.01,0.847 0.186,1.689 0.313,2.763 l 9.157,0 c 0.07,-5.274 0.136,-10.448 0.211,-16.06 C -10.599,0.151 -5.421,0.076 0,0"
             inkscape:connector-curvature="0" /></g><g
           transform="translate(62.5773,80.877)"
           id="g172"><path
             id="path174"
             style="fill:#191716;fill-opacity:1;fill-rule:nonzero;stroke:none"
             d="m 0,0 c 0,-2.567 -2.077,-4.649 -4.644,-4.649 -2.567,0 -4.649,2.082 -4.649,4.649 0,2.567 2.082,4.644 4.649,4.644 C -2.077,4.644 0,2.567 0,0"
             inkscape:connector-curvature="0" /></g><g
           transform="translate(175.1745,121.1765)"
           id="g176"><path
             id="path178"
             style="fill:#d8d7d5;fill-opacity:1;fill-rule:nonzero;stroke:none"
             d="m 0,0 c -0.173,-0.073 -0.332,-0.114 -0.48,-0.124 -0.148,-0.01 -0.282,0.007 -0.403,0.052 -0.121,0.042 -0.227,0.111 -0.32,0.203 -0.092,0.092 -0.168,0.204 -0.229,0.337 l 0.436,0.185 C -0.952,0.569 -0.9,0.505 -0.84,0.456 -0.777,0.408 -0.711,0.375 -0.643,0.355 -0.571,0.336 -0.498,0.332 -0.421,0.34 -0.345,0.351 -0.268,0.372 -0.191,0.405 -0.117,0.436 -0.054,0.471 0,0.511 0.054,0.552 0.097,0.595 0.129,0.639 0.159,0.685 0.178,0.732 0.186,0.781 0.191,0.83 0.185,0.879 0.164,0.928 0.143,0.978 0.113,1.015 0.076,1.04 0.039,1.065 -0.012,1.081 -0.074,1.086 -0.137,1.093 -0.214,1.09 -0.306,1.077 -0.398,1.064 -0.51,1.046 -0.641,1.018 -0.791,0.991 -0.924,0.976 -1.041,0.975 -1.158,0.973 -1.26,0.987 -1.348,1.014 -1.436,1.043 -1.51,1.087 -1.57,1.146 c -0.063,0.06 -0.114,0.137 -0.153,0.231 -0.044,0.102 -0.062,0.204 -0.055,0.306 0.006,0.104 0.034,0.203 0.086,0.298 0.051,0.095 0.124,0.182 0.216,0.263 0.093,0.081 0.206,0.149 0.339,0.205 0.137,0.058 0.271,0.094 0.401,0.104 0.129,0.011 0.25,-10e-4 0.363,-0.036 C -0.262,2.48 -0.16,2.423 -0.07,2.34 0.021,2.259 0.095,2.153 0.153,2.024 L -0.278,1.842 C -0.426,2.103 -0.65,2.17 -0.949,2.043 -1.096,1.981 -1.196,1.908 -1.253,1.827 -1.31,1.745 -1.319,1.661 -1.283,1.574 c 0.014,-0.034 0.036,-0.061 0.064,-0.08 0.028,-0.018 0.065,-0.03 0.112,-0.036 0.045,-0.007 0.101,-0.007 0.168,0 0.065,0.007 0.143,0.02 0.232,0.038 0.079,0.016 0.16,0.029 0.242,0.044 0.084,0.015 0.167,0.024 0.25,0.03 0.084,0.005 0.166,0.003 0.244,-0.006 C 0.109,1.554 0.184,1.534 0.255,1.503 0.325,1.472 0.389,1.428 0.447,1.369 0.506,1.31 0.555,1.234 0.594,1.14 0.641,1.029 0.662,0.917 0.656,0.807 0.648,0.695 0.619,0.589 0.566,0.489 0.514,0.388 0.439,0.296 0.344,0.21 0.246,0.127 0.131,0.056 0,0"
             inkscape:connector-curvature="0" /></g><g
           transform="translate(177.4577,124.5437)"
           id="g180"><path
             id="path182"
             style="fill:#d8d7d5;fill-opacity:1;fill-rule:nonzero;stroke:none"
             d="M 0,0 -0.748,-0.318 0.098,-2.312 -0.354,-2.503 -1.199,-0.51 -1.945,-0.826 -2.121,-0.411 -0.176,0.415 0,0 z"
             inkscape:connector-curvature="0" /></g><g
           transform="translate(179.3601,124.2614)"
           id="g184"><path
             id="path186"
             style="fill:#d8d7d5;fill-opacity:1;fill-rule:nonzero;stroke:none"
             d="M 0,0 -0.616,0.64 -0.568,-0.241 0,0 z M 1.358,-0.687 0.857,-0.899 0.301,-0.322 -0.541,-0.68 -0.5,-1.475 -0.976,-1.677 -1.072,1.124 -0.645,1.306 1.358,-0.687 z"
             inkscape:connector-curvature="0" /></g><g
           transform="translate(180.8572,125.2648)"
           id="g188"><path
             id="path190"
             style="fill:#d8d7d5;fill-opacity:1;fill-rule:nonzero;stroke:none"
             d="M 0,0 0.598,0.253 C 0.679,0.288 0.745,0.322 0.798,0.358 0.851,0.393 0.891,0.432 0.916,0.473 0.941,0.514 0.954,0.558 0.954,0.606 0.952,0.656 0.94,0.709 0.915,0.768 0.87,0.875 0.804,0.94 0.715,0.961 0.627,0.983 0.514,0.965 0.376,0.906 L -0.269,0.633 0,0 z M 2.208,-0.694 1.724,-0.899 1.216,-0.341 C 1.18,-0.304 1.14,-0.271 1.097,-0.245 1.052,-0.218 1.007,-0.199 0.958,-0.187 0.911,-0.175 0.86,-0.171 0.81,-0.174 0.758,-0.176 0.708,-0.188 0.658,-0.209 L 0.176,-0.414 0.587,-1.382 0.138,-1.573 -0.885,0.835 0.194,1.293 C 0.259,1.321 0.32,1.346 0.38,1.368 0.438,1.39 0.498,1.406 0.556,1.418 0.614,1.429 0.673,1.435 0.73,1.434 0.789,1.433 0.849,1.424 0.909,1.404 0.962,1.387 1.013,1.364 1.061,1.334 1.108,1.306 1.151,1.271 1.19,1.233 1.229,1.195 1.265,1.152 1.296,1.107 1.327,1.06 1.354,1.014 1.376,0.963 1.437,0.816 1.456,0.675 1.429,0.541 1.403,0.404 1.34,0.283 1.239,0.173 1.374,0.138 1.511,0.051 1.647,-0.091 l 0.561,-0.603 z"
             inkscape:connector-curvature="0" /></g><g
           transform="translate(184.405,127.4919)"
           id="g192"><path
             id="path194"
             style="fill:#d8d7d5;fill-opacity:1;fill-rule:nonzero;stroke:none"
             d="M 0,0 -0.749,-0.317 0.098,-2.311 -0.354,-2.502 -1.199,-0.509 -1.945,-0.825 -2.121,-0.41 -0.176,0.415 0,0 z"
             inkscape:connector-curvature="0" /></g><g
           transform="translate(185.8786,97.0651)"
           id="g196"><path
             id="path198"
             style="fill:#d8d7d5;fill-opacity:1;fill-rule:nonzero;stroke:none"
             d="M 0,0 -0.749,-0.317 0.099,-2.312 -0.353,-2.503 -1.2,-0.509 -1.945,-0.825 -2.121,-0.411 -0.176,0.414 0,0 z"
             inkscape:connector-curvature="0" /></g><g
           transform="translate(186.9597,96.802)"
           id="g200"><path
             id="path202"
             style="fill:#d8d7d5;fill-opacity:1;fill-rule:nonzero;stroke:none"
             d="M 0,0 0.598,0.253 C 0.679,0.288 0.746,0.322 0.799,0.358 0.852,0.393 0.891,0.432 0.916,0.473 0.941,0.514 0.955,0.558 0.954,0.606 0.953,0.656 0.941,0.709 0.916,0.768 0.871,0.875 0.804,0.94 0.716,0.961 0.627,0.983 0.515,0.965 0.376,0.906 L -0.268,0.633 0,0 z M 2.209,-0.694 1.725,-0.899 1.217,-0.341 C 1.18,-0.304 1.141,-0.271 1.097,-0.245 1.053,-0.218 1.008,-0.199 0.959,-0.187 0.911,-0.175 0.861,-0.17 0.811,-0.174 0.759,-0.176 0.708,-0.188 0.658,-0.209 L 0.176,-0.414 0.588,-1.382 0.139,-1.573 -0.885,0.835 0.195,1.293 C 0.26,1.321 0.32,1.346 0.381,1.368 0.439,1.39 0.498,1.406 0.557,1.418 0.615,1.429 0.673,1.435 0.73,1.434 0.789,1.433 0.85,1.424 0.91,1.404 0.963,1.387 1.014,1.364 1.061,1.334 1.108,1.306 1.152,1.271 1.191,1.233 1.23,1.195 1.266,1.152 1.297,1.107 1.328,1.06 1.354,1.014 1.376,0.963 1.437,0.816 1.457,0.675 1.43,0.541 1.404,0.404 1.34,0.283 1.239,0.173 1.375,0.138 1.511,0.051 1.648,-0.091 l 0.561,-0.603 z"
             inkscape:connector-curvature="0" /></g><g
           transform="translate(190.0652,96.4885)"
           id="g204"><path
             id="path206"
             style="fill:#d8d7d5;fill-opacity:1;fill-rule:nonzero;stroke:none"
             d="M 0,0 -0.447,-0.19 -1.471,2.218 -1.023,2.408 0,0 z"
             inkscape:connector-curvature="0" /></g><g
           transform="translate(191.6882,97.1335)"
           id="g208"><path
             id="path210"
             style="fill:#d8d7d5;fill-opacity:1;fill-rule:nonzero;stroke:none"
             d="m 0,0 c -0.174,-0.074 -0.346,-0.112 -0.515,-0.114 -0.169,-0.001 -0.327,0.031 -0.475,0.096 -0.149,0.065 -0.283,0.163 -0.405,0.291 -0.122,0.129 -0.222,0.287 -0.301,0.474 -0.081,0.19 -0.126,0.374 -0.134,0.551 -0.008,0.177 0.016,0.341 0.072,0.491 0.057,0.151 0.144,0.286 0.262,0.403 0.117,0.12 0.262,0.215 0.434,0.288 0.142,0.061 0.287,0.097 0.427,0.11 0.143,0.012 0.278,0 0.405,-0.036 C -0.104,2.518 0.012,2.459 0.115,2.378 0.22,2.295 0.306,2.191 0.373,2.063 L -0.088,1.867 C -0.126,1.94 -0.172,1.998 -0.227,2.042 -0.281,2.087 -0.344,2.119 -0.412,2.137 -0.481,2.154 -0.556,2.16 -0.637,2.151 -0.717,2.141 -0.801,2.118 -0.889,2.081 -0.992,2.036 -1.08,1.978 -1.15,1.903 -1.222,1.83 -1.272,1.745 -1.304,1.646 -1.336,1.55 -1.347,1.44 -1.336,1.322 c 0.01,-0.119 0.043,-0.245 0.1,-0.38 0.056,-0.132 0.123,-0.243 0.202,-0.332 0.078,-0.089 0.164,-0.157 0.257,-0.204 0.092,-0.046 0.19,-0.07 0.293,-0.072 0.103,-0.001 0.207,0.02 0.312,0.064 0.151,0.064 0.269,0.141 0.358,0.23 0.086,0.088 0.147,0.195 0.18,0.319 L 0.26,1.2 -0.337,0.946 -0.513,1.359 0.527,1.801 1.08,0.502 0.734,0.356 0.604,0.504 C 0.549,0.399 0.473,0.304 0.372,0.221 0.273,0.136 0.148,0.062 0,0"
             inkscape:connector-curvature="0" /></g><g
           transform="translate(194.3796,98.2751)"
           id="g212"><path
             id="path214"
             style="fill:#d8d7d5;fill-opacity:1;fill-rule:nonzero;stroke:none"
             d="m 0,0 c -0.175,-0.074 -0.347,-0.111 -0.516,-0.114 -0.17,0 -0.328,0.032 -0.476,0.097 -0.148,0.065 -0.282,0.162 -0.404,0.29 -0.122,0.129 -0.222,0.288 -0.301,0.474 -0.081,0.19 -0.125,0.374 -0.134,0.552 -0.009,0.176 0.017,0.341 0.073,0.491 0.056,0.151 0.143,0.285 0.26,0.403 0.118,0.119 0.262,0.215 0.434,0.287 0.144,0.062 0.287,0.097 0.429,0.11 0.143,0.012 0.277,0 0.404,-0.036 C -0.104,2.518 0.011,2.46 0.115,2.378 0.219,2.296 0.305,2.191 0.373,2.063 L -0.089,1.868 C -0.127,1.94 -0.174,1.998 -0.229,2.043 -0.282,2.087 -0.344,2.119 -0.412,2.137 -0.482,2.155 -0.557,2.16 -0.637,2.151 -0.717,2.142 -0.801,2.119 -0.889,2.081 -0.994,2.037 -1.082,1.978 -1.152,1.904 -1.223,1.83 -1.273,1.745 -1.305,1.646 -1.337,1.55 -1.348,1.441 -1.337,1.323 -1.328,1.204 -1.295,1.077 -1.236,0.942 -1.181,0.811 -1.113,0.7 -1.035,0.611 c 0.078,-0.09 0.164,-0.158 0.257,-0.205 0.092,-0.046 0.19,-0.07 0.294,-0.071 0.102,-0.002 0.207,0.019 0.311,0.063 0.15,0.064 0.269,0.141 0.357,0.23 0.087,0.088 0.148,0.196 0.181,0.319 L 0.258,1.2 -0.338,0.947 -0.514,1.36 0.527,1.802 1.078,0.503 0.732,0.356 0.603,0.505 C 0.549,0.4 0.471,0.304 0.371,0.221 0.272,0.137 0.147,0.063 0,0"
             inkscape:connector-curvature="0" /></g><g
           transform="translate(197.8249,99.7829)"
           id="g216"><path
             id="path218"
             style="fill:#d8d7d5;fill-opacity:1;fill-rule:nonzero;stroke:none"
             d="M 0,0 -1.84,-0.781 -2.863,1.627 -1.074,2.386 -0.898,1.972 -2.238,1.403 -2.007,0.859 -0.754,1.392 -0.58,0.98 -1.832,0.448 -1.567,-0.177 -0.176,0.414 0,0 z"
             inkscape:connector-curvature="0" /></g><g
           transform="translate(198.1687,101.5593)"
           id="g220"><path
             id="path222"
             style="fill:#d8d7d5;fill-opacity:1;fill-rule:nonzero;stroke:none"
             d="M 0,0 0.598,0.254 C 0.678,0.288 0.744,0.322 0.797,0.358 0.85,0.394 0.891,0.432 0.915,0.473 0.941,0.514 0.953,0.559 0.953,0.606 0.952,0.656 0.939,0.709 0.914,0.768 0.869,0.875 0.803,0.94 0.715,0.962 0.627,0.983 0.514,0.965 0.375,0.906 L -0.27,0.633 0,0 z M 2.207,-0.693 1.724,-0.899 1.215,-0.341 C 1.18,-0.304 1.139,-0.271 1.096,-0.245 1.052,-0.218 1.006,-0.199 0.957,-0.187 0.91,-0.175 0.859,-0.17 0.809,-0.174 0.758,-0.176 0.707,-0.188 0.657,-0.209 L 0.176,-0.414 0.586,-1.382 0.137,-1.572 -0.885,0.836 0.193,1.294 C 0.258,1.321 0.32,1.346 0.379,1.368 0.438,1.39 0.497,1.406 0.555,1.418 0.613,1.43 0.672,1.435 0.73,1.434 0.789,1.434 0.848,1.424 0.908,1.404 0.962,1.387 1.012,1.364 1.061,1.334 1.107,1.306 1.15,1.271 1.189,1.233 1.229,1.195 1.265,1.152 1.296,1.107 1.327,1.061 1.354,1.014 1.375,0.963 1.437,0.816 1.455,0.676 1.429,0.541 1.402,0.404 1.34,0.283 1.238,0.173 1.374,0.139 1.51,0.051 1.646,-0.091 l 0.561,-0.602 z"
             inkscape:connector-curvature="0" /></g><g
           transform="translate(97.3168,138.9209)"
           id="g224"><path
             id="path226"
             style="fill:#d8d7d5;fill-opacity:1;fill-rule:nonzero;stroke:none"
             d="M 0,0 C -0.242,-0.038 -0.364,-0.057 -0.606,-0.096 -0.743,0.754 -0.811,1.179 -0.948,2.03 -1.103,1.133 -1.178,0.684 -1.327,-0.213 -1.536,-0.248 -1.641,-0.265 -1.851,-0.3 -2.279,0.501 -2.495,0.902 -2.929,1.701 -2.784,0.852 -2.711,0.428 -2.566,-0.422 -2.807,-0.463 -2.928,-0.484 -3.169,-0.526 -3.4,0.799 -3.516,1.462 -3.747,2.788 c 0.329,0.057 0.494,0.086 0.824,0.142 0.475,-0.892 0.711,-1.339 1.179,-2.233 0.156,0.998 0.235,1.497 0.399,2.494 0.329,0.054 0.493,0.08 0.822,0.132 C -0.314,1.994 -0.209,1.329 0,0"
             inkscape:connector-curvature="0" /></g><g
           transform="translate(100.6953,139.4218)"
           id="g228"><path
             id="path230"
             style="fill:#d8d7d5;fill-opacity:1;fill-rule:nonzero;stroke:none"
             d="m 0,0 c -1.025,-0.143 -1.537,-0.217 -2.56,-0.374 -0.204,1.33 -0.305,1.995 -0.509,3.325 1.012,0.155 1.518,0.229 2.531,0.37 0.032,-0.229 0.048,-0.343 0.08,-0.572 -0.757,-0.106 -1.135,-0.161 -1.89,-0.274 0.045,-0.301 0.067,-0.451 0.112,-0.752 0.705,0.106 1.058,0.157 1.763,0.256 0.032,-0.227 0.048,-0.341 0.08,-0.568 C -1.097,1.312 -1.448,1.261 -2.151,1.156 -2.099,0.81 -2.073,0.638 -2.022,0.292 -1.245,0.408 -0.857,0.464 -0.08,0.573 -0.048,0.344 -0.032,0.229 0,0"
             inkscape:connector-curvature="0" /></g><g
           transform="translate(102.8575,139.6566)"
           id="g232"><path
             id="path234"
             style="fill:#d8d7d5;fill-opacity:1;fill-rule:nonzero;stroke:none"
             d="m 0,0 c -0.244,-0.031 -0.471,-0.018 -0.682,0.038 -0.211,0.056 -0.398,0.15 -0.561,0.281 -0.163,0.131 -0.297,0.297 -0.405,0.498 -0.108,0.2 -0.181,0.43 -0.216,0.689 -0.036,0.264 -0.028,0.506 0.023,0.729 0.051,0.222 0.138,0.417 0.263,0.585 0.124,0.168 0.282,0.306 0.473,0.413 0.192,0.107 0.409,0.176 0.652,0.207 0.204,0.026 0.398,0.022 0.582,-0.013 C 0.313,3.392 0.479,3.33 0.626,3.241 0.772,3.153 0.896,3.039 0.997,2.902 1.098,2.763 1.168,2.603 1.206,2.422 0.946,2.391 0.816,2.375 0.555,2.343 0.534,2.445 0.497,2.533 0.444,2.607 0.391,2.682 0.326,2.743 0.245,2.789 0.164,2.836 0.072,2.867 -0.033,2.884 -0.137,2.9 -0.252,2.901 -0.375,2.885 -0.524,2.866 -0.656,2.823 -0.771,2.756 -0.886,2.689 -0.981,2.6 -1.056,2.49 -1.129,2.38 -1.181,2.249 -1.211,2.098 -1.24,1.947 -1.242,1.779 -1.218,1.593 -1.193,1.41 -1.147,1.25 -1.08,1.112 c 0.067,-0.138 0.151,-0.251 0.25,-0.34 0.101,-0.089 0.214,-0.152 0.342,-0.19 0.129,-0.038 0.266,-0.047 0.412,-0.029 0.21,0.027 0.385,0.08 0.527,0.159 0.14,0.08 0.254,0.19 0.341,0.332 C 0.775,1.184 0.766,1.254 0.749,1.393 0.414,1.352 0.247,1.331 -0.088,1.289 -0.117,1.518 -0.132,1.633 -0.161,1.863 0.425,1.937 0.718,1.973 1.304,2.043 1.39,1.323 1.433,0.962 1.519,0.241 1.326,0.218 1.23,0.207 1.037,0.183 0.994,0.275 0.972,0.321 0.928,0.413 0.823,0.302 0.694,0.212 0.539,0.143 0.386,0.074 0.206,0.026 0,0"
             inkscape:connector-curvature="0" /></g><g
           transform="translate(106.5444,141.6488)"
           id="g236"><path
             id="path238"
             style="fill:#d8d7d5;fill-opacity:1;fill-rule:nonzero;stroke:none"
             d="M 0,0 C -0.21,0.406 -0.315,0.609 -0.527,1.015 -0.637,0.574 -0.692,0.354 -0.8,-0.087 -0.48,-0.052 -0.32,-0.034 0,0 m 1.422,-1.356 c -0.28,-0.028 -0.42,-0.042 -0.7,-0.071 -0.187,0.367 -0.281,0.55 -0.47,0.917 -0.473,-0.05 -0.709,-0.076 -1.182,-0.129 -0.097,-0.398 -0.146,-0.597 -0.242,-0.995 -0.266,-0.031 -0.399,-0.046 -0.664,-0.077 0.359,1.396 0.543,2.095 0.92,3.49 0.243,0.027 0.365,0.041 0.609,0.067 0.701,-1.278 1.047,-1.918 1.729,-3.202"
             inkscape:connector-curvature="0" /></g><g
           transform="translate(111.7254,142.3387)"
           id="g240"><path
             id="path242"
             style="fill:#d8d7d5;fill-opacity:1;fill-rule:nonzero;stroke:none"
             d="M 0,0 C -0.014,0.169 -0.042,0.319 -0.087,0.451 -0.131,0.582 -0.199,0.691 -0.291,0.777 -0.382,0.863 -0.5,0.924 -0.646,0.962 -0.791,1 -0.971,1.01 -1.185,0.991 -1.379,0.975 -1.475,0.966 -1.669,0.949 -1.591,0.07 -1.553,-0.37 -1.475,-1.25 c 0.191,0.017 0.287,0.026 0.479,0.042 0.21,0.018 0.383,0.059 0.518,0.121 0.135,0.062 0.241,0.145 0.317,0.247 0.075,0.102 0.124,0.224 0.147,0.365 C 0.01,-0.333 0.014,-0.175 0,0 m 0.647,0.051 c 0.087,-1.13 -0.443,-1.736 -1.59,-1.835 -0.444,-0.038 -0.665,-0.057 -1.109,-0.098 -0.122,1.34 -0.184,2.01 -0.306,3.35 0.451,0.041 0.676,0.061 1.128,0.1 1.167,0.1 1.793,-0.411 1.877,-1.517"
             inkscape:connector-curvature="0" /></g><g
           transform="translate(113.6669,142.7152)"
           id="g244"><path
             id="path246"
             style="fill:#d8d7d5;fill-opacity:1;fill-rule:nonzero;stroke:none"
             d="M 0,0 C 0.338,0.024 0.507,0.035 0.845,0.057 0.959,0.065 1.056,0.079 1.137,0.099 1.218,0.12 1.282,0.149 1.331,0.188 1.382,0.227 1.416,0.276 1.437,0.335 1.457,0.394 1.464,0.465 1.459,0.547 1.45,0.696 1.397,0.802 1.297,0.866 1.198,0.931 1.05,0.957 0.853,0.944 0.487,0.92 0.304,0.908 -0.062,0.882 -0.037,0.529 -0.025,0.353 0,0 M 2.405,-1.78 C 2.134,-1.796 1.998,-1.804 1.727,-1.821 1.576,-1.463 1.5,-1.285 1.347,-0.928 1.32,-0.866 1.285,-0.809 1.242,-0.759 1.2,-0.708 1.152,-0.666 1.098,-0.63 1.044,-0.595 0.985,-0.569 0.922,-0.551 0.857,-0.533 0.79,-0.526 0.72,-0.531 0.448,-0.549 0.312,-0.558 0.04,-0.577 0.078,-1.116 0.097,-1.386 0.134,-1.925 -0.117,-1.943 -0.243,-1.952 -0.494,-1.97 -0.592,-0.628 -0.641,0.042 -0.739,1.384 -0.125,1.429 0.183,1.451 0.797,1.491 0.889,1.497 0.977,1.5 1.06,1.502 1.143,1.504 1.223,1.499 1.3,1.488 1.377,1.478 1.451,1.459 1.523,1.433 1.596,1.407 1.665,1.37 1.731,1.321 1.789,1.277 1.841,1.227 1.887,1.171 1.933,1.116 1.971,1.056 2.003,0.993 2.034,0.93 2.059,0.864 2.078,0.794 2.096,0.725 2.107,0.656 2.111,0.586 2.124,0.381 2.084,0.203 1.992,0.05 1.901,-0.103 1.77,-0.223 1.599,-0.312 1.75,-0.413 1.878,-0.578 1.983,-0.808 2.152,-1.197 2.237,-1.391 2.405,-1.78"
             inkscape:connector-curvature="0" /></g><g
           transform="translate(117.3272,141.0036)"
           id="g248"><path
             id="path250"
             style="fill:#d8d7d5;fill-opacity:1;fill-rule:nonzero;stroke:none"
             d="M 0,0 C -0.251,-0.013 -0.376,-0.02 -0.627,-0.033 -0.7,1.31 -0.737,1.982 -0.81,3.325 -0.555,3.339 -0.428,3.346 -0.173,3.359 -0.104,2.015 -0.069,1.344 0,0"
             inkscape:connector-curvature="0" /></g><g
           transform="translate(120.8035,144.516)"
           id="g252"><path
             id="path254"
             style="fill:#d8d7d5;fill-opacity:1;fill-rule:nonzero;stroke:none"
             d="m 0,0 c -0.491,-1.362 -0.732,-2.044 -1.204,-3.409 -0.233,-0.009 -0.349,-0.014 -0.581,-0.024 -0.582,1.322 -0.877,1.982 -1.477,3.299 0.274,0.014 0.412,0.02 0.687,0.033 0.422,-0.986 0.631,-1.48 1.044,-2.468 0.333,1.019 0.502,1.528 0.845,2.545 C -0.412,-0.014 -0.274,-0.009 0,0"
             inkscape:connector-curvature="0" /></g><g
           transform="translate(123.911,141.2288)"
           id="g256"><path
             id="path258"
             style="fill:#d8d7d5;fill-opacity:1;fill-rule:nonzero;stroke:none"
             d="m 0,0 c -1.032,-0.018 -1.548,-0.03 -2.58,-0.061 -0.041,1.344 -0.062,2.017 -0.103,3.362 1.02,0.031 1.531,0.043 2.551,0.061 0.004,-0.231 0.006,-0.347 0.01,-0.578 C -0.884,2.77 -1.265,2.762 -2.027,2.741 -2.018,2.437 -2.014,2.285 -2.006,1.981 -1.295,2.001 -0.94,2.009 -0.23,2.022 -0.225,1.792 -0.223,1.677 -0.219,1.448 -0.928,1.435 -1.282,1.427 -1.99,1.408 -1.981,1.059 -1.976,0.884 -1.967,0.535 -1.184,0.556 -0.793,0.565 -0.01,0.578 -0.006,0.347 -0.004,0.231 0,0"
             inkscape:connector-curvature="0" /></g><g
           transform="translate(128.1171,143.4595)"
           id="g260"><path
             id="path262"
             style="fill:#d8d7d5;fill-opacity:1;fill-rule:nonzero;stroke:none"
             d="M 0,0 C -0.006,0.1 -0.031,0.191 -0.071,0.271 -0.113,0.352 -0.167,0.421 -0.234,0.478 -0.302,0.535 -0.381,0.579 -0.472,0.61 -0.563,0.64 -0.661,0.655 -0.764,0.655 -0.911,0.656 -1.045,0.63 -1.162,0.579 -1.279,0.528 -1.38,0.452 -1.462,0.353 c -0.083,-0.1 -0.147,-0.224 -0.19,-0.37 -0.044,-0.146 -0.065,-0.314 -0.065,-0.503 0.001,-0.189 0.024,-0.358 0.07,-0.503 0.045,-0.146 0.108,-0.269 0.19,-0.368 0.081,-0.1 0.18,-0.176 0.295,-0.228 0.115,-0.053 0.245,-0.078 0.387,-0.078 0.108,-10e-4 0.208,0.014 0.298,0.045 0.09,0.03 0.168,0.074 0.236,0.134 0.067,0.059 0.121,0.132 0.161,0.219 0.041,0.086 0.067,0.186 0.078,0.3 C 0.257,-1.001 0.386,-1.002 0.644,-1.004 0.625,-1.205 0.576,-1.382 0.498,-1.538 0.421,-1.693 0.319,-1.824 0.195,-1.93 0.071,-2.036 -0.074,-2.118 -0.237,-2.173 c -0.164,-0.055 -0.34,-0.083 -0.532,-0.083 -0.244,0 -0.462,0.041 -0.658,0.122 -0.195,0.082 -0.361,0.197 -0.5,0.348 -0.138,0.149 -0.245,0.331 -0.322,0.545 -0.075,0.213 -0.114,0.452 -0.116,0.717 -0.002,0.265 0.034,0.504 0.108,0.718 0.075,0.215 0.181,0.399 0.32,0.551 0.14,0.152 0.309,0.27 0.507,0.352 0.197,0.083 0.419,0.124 0.664,0.124 0.186,0 0.361,-0.03 0.525,-0.089 C -0.077,1.073 0.069,0.99 0.195,0.883 0.322,0.776 0.426,0.647 0.506,0.496 0.588,0.346 0.636,0.179 0.653,-0.004 0.392,-0.002 0.261,-0.001 0,0"
             inkscape:connector-curvature="0" /></g><g
           transform="translate(130.9086,141.7262)"
           id="g264"><path
             id="path266"
             style="fill:#d8d7d5;fill-opacity:1;fill-rule:nonzero;stroke:none"
             d="M 0,0 C 0.144,-0.003 0.277,0.021 0.4,0.072 0.522,0.124 0.628,0.199 0.717,0.298 0.807,0.397 0.878,0.519 0.93,0.664 0.981,0.808 1.01,0.972 1.015,1.157 1.019,1.343 0.999,1.509 0.952,1.656 0.906,1.803 0.841,1.927 0.755,2.028 0.669,2.13 0.566,2.208 0.447,2.264 0.326,2.319 0.196,2.348 0.054,2.35 -0.09,2.353 -0.225,2.329 -0.348,2.278 -0.471,2.226 -0.579,2.152 -0.67,2.052 -0.761,1.954 -0.832,1.832 -0.884,1.687 -0.936,1.542 -0.963,1.378 -0.965,1.195 -0.968,1.01 -0.945,0.845 -0.898,0.699 -0.851,0.553 -0.785,0.428 -0.699,0.326 -0.614,0.223 -0.512,0.144 -0.393,0.088 -0.274,0.032 -0.144,0.003 0,0 M 0.058,2.911 C 0.298,2.906 0.518,2.86 0.719,2.773 0.918,2.685 1.09,2.564 1.232,2.409 1.375,2.254 1.484,2.068 1.56,1.853 1.636,1.638 1.67,1.399 1.662,1.14 1.655,0.883 1.609,0.649 1.524,0.439 1.438,0.228 1.321,0.049 1.173,-0.1 1.025,-0.25 0.851,-0.364 0.65,-0.445 c -0.2,-0.08 -0.421,-0.118 -0.659,-0.114 -0.239,0.005 -0.457,0.051 -0.654,0.138 -0.197,0.088 -0.367,0.208 -0.51,0.362 -0.141,0.154 -0.251,0.339 -0.329,0.553 -0.077,0.214 -0.115,0.451 -0.112,0.709 0.003,0.262 0.047,0.499 0.131,0.711 0.085,0.212 0.201,0.394 0.349,0.543 0.15,0.149 0.326,0.264 0.529,0.342 0.203,0.079 0.425,0.116 0.663,0.112"
             inkscape:connector-curvature="0" /></g><g
           transform="translate(135.8955,141.0595)"
           id="g268"><path
             id="path270"
             style="fill:#d8d7d5;fill-opacity:1;fill-rule:nonzero;stroke:none"
             d="M 0,0 C -0.237,0.011 -0.356,0.016 -0.594,0.026 -1.158,0.95 -1.443,1.411 -2.022,2.331 -2.053,1.432 -2.068,0.983 -2.099,0.084 c -0.243,0.008 -0.365,0.012 -0.608,0.02 0.042,1.344 0.063,2.017 0.105,3.362 0.243,-0.008 0.365,-0.012 0.608,-0.02 0.579,-0.922 0.865,-1.384 1.429,-2.31 0.038,0.901 0.057,1.351 0.095,2.251 C -0.221,3.377 -0.096,3.371 0.152,3.36 0.091,2.016 0.061,1.344 0,0"
             inkscape:connector-curvature="0" /></g><g
           transform="translate(139.3285,143.6639)"
           id="g272"><path
             id="path274"
             style="fill:#d8d7d5;fill-opacity:1;fill-rule:nonzero;stroke:none"
             d="m 0,0 c -0.426,0.027 -0.638,0.039 -1.064,0.063 -0.063,-1.112 -0.095,-1.668 -0.158,-2.78 -0.252,0.014 -0.379,0.021 -0.631,0.034 0.06,1.113 0.09,1.669 0.149,2.782 -0.424,0.023 -0.636,0.033 -1.06,0.054 0.011,0.231 0.017,0.346 0.028,0.577 C -1.627,0.677 -1.073,0.646 0.036,0.577 0.022,0.346 0.014,0.231 0,0"
             inkscape:connector-curvature="0" /></g><g
           transform="translate(140.438,142.7341)"
           id="g276"><path
             id="path278"
             style="fill:#d8d7d5;fill-opacity:1;fill-rule:nonzero;stroke:none"
             d="m 0,0 c 0.338,-0.023 0.507,-0.035 0.845,-0.06 0.114,-0.008 0.212,-0.007 0.294,0.002 0.084,0.009 0.152,0.029 0.206,0.061 C 1.4,0.035 1.441,0.078 1.469,0.134 1.497,0.189 1.514,0.259 1.521,0.341 1.532,0.49 1.494,0.603 1.404,0.68 1.315,0.757 1.171,0.803 0.975,0.817 0.609,0.844 0.426,0.857 0.06,0.882 0.036,0.529 0.024,0.353 0,0 m 2.137,-2.094 c -0.271,0.021 -0.406,0.032 -0.677,0.053 -0.1,0.375 -0.151,0.562 -0.253,0.937 -0.019,0.065 -0.046,0.126 -0.081,0.182 -0.035,0.056 -0.077,0.104 -0.125,0.146 -0.048,0.043 -0.103,0.077 -0.164,0.104 -0.061,0.026 -0.126,0.042 -0.196,0.047 -0.272,0.02 -0.408,0.029 -0.68,0.048 -0.037,-0.54 -0.056,-0.809 -0.093,-1.349 -0.251,0.018 -0.377,0.026 -0.628,0.042 0.087,1.343 0.131,2.014 0.218,3.357 C 0.073,1.433 0.38,1.412 0.995,1.367 1.087,1.36 1.174,1.352 1.256,1.342 1.339,1.332 1.418,1.316 1.492,1.295 1.568,1.274 1.639,1.246 1.706,1.21 1.774,1.174 1.838,1.127 1.896,1.07 1.948,1.018 1.993,0.962 2.031,0.9 2.068,0.839 2.098,0.775 2.121,0.708 2.143,0.641 2.159,0.572 2.168,0.501 2.177,0.429 2.178,0.359 2.172,0.29 2.156,0.085 2.093,-0.086 1.98,-0.225 1.869,-0.363 1.722,-0.465 1.541,-0.529 c 0.135,-0.12 0.24,-0.302 0.312,-0.545 0.115,-0.408 0.171,-0.612 0.284,-1.02"
             inkscape:connector-curvature="0" /></g><g
           transform="translate(144.7001,140.9648)"
           id="g280"><path
             id="path282"
             style="fill:#d8d7d5;fill-opacity:1;fill-rule:nonzero;stroke:none"
             d="M 0,0 C 0.143,-0.013 0.278,0.001 0.404,0.044 0.53,0.086 0.641,0.154 0.737,0.246 0.834,0.339 0.914,0.455 0.976,0.595 1.038,0.735 1.078,0.897 1.096,1.081 1.114,1.266 1.105,1.434 1.07,1.583 1.034,1.733 0.978,1.861 0.899,1.969 0.821,2.076 0.723,2.162 0.608,2.226 0.492,2.289 0.363,2.327 0.223,2.34 0.079,2.353 -0.058,2.339 -0.184,2.297 -0.311,2.255 -0.424,2.188 -0.522,2.095 -0.62,2.003 -0.7,1.887 -0.762,1.746 -0.824,1.605 -0.862,1.444 -0.878,1.261 -0.894,1.077 -0.883,0.911 -0.847,0.762 -0.81,0.612 -0.753,0.483 -0.674,0.375 -0.597,0.267 -0.501,0.18 -0.386,0.116 -0.271,0.052 -0.143,0.013 0,0 M 0.267,2.899 C 0.505,2.877 0.722,2.815 0.916,2.714 1.109,2.613 1.272,2.48 1.403,2.314 1.534,2.149 1.63,1.957 1.69,1.737 1.751,1.516 1.767,1.276 1.741,1.018 1.716,0.762 1.653,0.532 1.553,0.328 1.452,0.124 1.322,-0.046 1.164,-0.184 1.006,-0.322 0.823,-0.425 0.617,-0.49 0.411,-0.556 0.189,-0.578 -0.049,-0.556 c -0.238,0.021 -0.452,0.083 -0.643,0.184 -0.191,0.101 -0.352,0.234 -0.483,0.398 -0.13,0.163 -0.227,0.355 -0.289,0.574 -0.062,0.22 -0.082,0.458 -0.061,0.716 0.021,0.261 0.082,0.494 0.181,0.699 0.1,0.206 0.23,0.379 0.388,0.517 0.16,0.138 0.344,0.24 0.552,0.304 0.209,0.064 0.433,0.085 0.671,0.063"
             inkscape:connector-curvature="0" /></g><g
           transform="translate(149.0968,140.004)"
           id="g284"><path
             id="path286"
             style="fill:#d8d7d5;fill-opacity:1;fill-rule:nonzero;stroke:none"
             d="m 0,0 c -0.867,0.1 -1.301,0.147 -2.169,0.236 0.138,1.339 0.207,2.008 0.345,3.346 C -1.568,3.556 -1.44,3.542 -1.185,3.515 -1.303,2.407 -1.362,1.853 -1.48,0.745 -0.861,0.679 -0.552,0.645 0.066,0.574 0.04,0.345 0.026,0.23 0,0"
             inkscape:connector-curvature="0" /></g><g
           transform="translate(151.826,141.5273)"
           id="g288"><path
             id="path290"
             style="fill:#d8d7d5;fill-opacity:1;fill-rule:nonzero;stroke:none"
             d="m 0,0 c 0.283,-0.036 0.425,-0.055 0.708,-0.092 0.116,-0.015 0.216,-0.018 0.301,-0.007 0.085,0.01 0.155,0.032 0.213,0.066 0.056,0.035 0.101,0.08 0.132,0.137 C 1.386,0.16 1.407,0.228 1.418,0.307 1.431,0.403 1.423,0.482 1.396,0.545 1.368,0.609 1.326,0.661 1.27,0.702 1.213,0.743 1.146,0.774 1.068,0.796 0.989,0.818 0.906,0.834 0.818,0.846 0.539,0.883 0.399,0.901 0.12,0.937 0.072,0.562 0.048,0.375 0,0 M -0.443,1.59 C 0.081,1.525 0.343,1.492 0.866,1.423 0.983,1.407 1.097,1.386 1.207,1.358 1.316,1.331 1.419,1.295 1.515,1.251 1.61,1.207 1.697,1.154 1.773,1.093 1.849,1.032 1.912,0.96 1.961,0.876 2.011,0.793 2.045,0.697 2.065,0.59 2.084,0.483 2.084,0.362 2.066,0.228 2.017,-0.126 1.87,-0.377 1.629,-0.525 1.387,-0.673 1.052,-0.718 0.621,-0.662 c -0.277,0.037 -0.416,0.055 -0.694,0.091 -0.064,-0.502 -0.097,-0.753 -0.161,-1.255 -0.25,0.032 -0.375,0.048 -0.626,0.079 0.167,1.335 0.25,2.002 0.417,3.337"
             inkscape:connector-curvature="0" /></g><g
           transform="translate(156.0054,140.5965)"
           id="g292"><path
             id="path294"
             style="fill:#d8d7d5;fill-opacity:1;fill-rule:nonzero;stroke:none"
             d="M 0,0 C -0.1,0.446 -0.151,0.669 -0.253,1.116 -0.471,0.717 -0.58,0.517 -0.797,0.118 -0.478,0.072 -0.319,0.048 0,0 m 1.034,-1.672 c -0.279,0.044 -0.418,0.065 -0.697,0.108 -0.088,0.403 -0.132,0.604 -0.222,1.007 -0.471,0.071 -0.706,0.106 -1.178,0.175 -0.195,-0.361 -0.292,-0.541 -0.486,-0.902 -0.265,0.038 -0.398,0.057 -0.663,0.094 0.701,1.26 1.057,1.889 1.775,3.143 C -0.194,1.918 -0.073,1.9 0.17,1.863 0.526,0.45 0.698,-0.257 1.034,-1.672"
             inkscape:connector-curvature="0" /></g><g
           transform="translate(159.8811,140.1802)"
           id="g296"><path
             id="path298"
             style="fill:#d8d7d5;fill-opacity:1;fill-rule:nonzero;stroke:none"
             d="M 0,0 C 0.029,0.167 0.038,0.32 0.027,0.459 0.016,0.597 -0.023,0.719 -0.09,0.825 -0.158,0.93 -0.258,1.02 -0.39,1.092 -0.522,1.164 -0.694,1.218 -0.907,1.254 -1.099,1.285 -1.195,1.301 -1.387,1.332 -1.529,0.461 -1.6,0.025 -1.742,-0.846 c 0.19,-0.031 0.286,-0.047 0.476,-0.078 0.209,-0.035 0.386,-0.038 0.533,-0.011 0.147,0.026 0.27,0.08 0.369,0.161 0.098,0.08 0.176,0.186 0.234,0.317 0.057,0.132 0.1,0.284 0.13,0.457 m 0.642,-0.111 c -0.195,-1.116 -0.86,-1.572 -1.999,-1.384 -0.44,0.073 -0.66,0.108 -1.101,0.178 0.212,1.329 0.318,1.993 0.529,3.322 C -1.48,1.934 -1.256,1.897 -0.808,1.823 0.35,1.632 0.833,0.982 0.642,-0.111"
             inkscape:connector-curvature="0" /></g></g></g></g></svg>