<?xml version="1.0" encoding="UTF-8" standalone="no"?>
<!-- Created with Inkscape (http://www.inkscape.org/) -->

<svg
   xmlns:dc="http://purl.org/dc/elements/1.1/"
   xmlns:cc="http://creativecommons.org/ns#"
   xmlns:rdf="http://www.w3.org/1999/02/22-rdf-syntax-ns#"
   xmlns:svg="http://www.w3.org/2000/svg"
   xmlns="http://www.w3.org/2000/svg"
   xmlns:sodipodi="http://sodipodi.sourceforge.net/DTD/sodipodi-0.dtd"
   xmlns:inkscape="http://www.inkscape.org/namespaces/inkscape"
   id="svg2"
   version="1.1"
   inkscape:version="0.91 r13725"
   xml:space="preserve"
   width="170.34"
   height="116.4325"
   viewBox="0 0 170.34 116.4325"
   sodipodi:docname="game.svg"><metadata
     id="metadata8"><rdf:RDF><cc:Work
         rdf:about=""><dc:format>image/svg+xml</dc:format><dc:type
           rdf:resource="http://purl.org/dc/dcmitype/StillImage" /><dc:title></dc:title></cc:Work></rdf:RDF></metadata><defs
     id="defs6"><clipPath
       clipPathUnits="userSpaceOnUse"
       id="clipPath16"><path
         d="m 0,93.146 136.272,0 L 136.272,0 0,0 0,93.146 Z"
         id="path18"
         inkscape:connector-curvature="0" /></clipPath><clipPath
       clipPathUnits="userSpaceOnUse"
       id="clipPath40"><path
         d="m 31.948,29.2576 73.084,0 0,-11.742 -73.084,0 0,11.742 z"
         id="path42"
         inkscape:connector-curvature="0" /></clipPath></defs><sodipodi:namedview
     pagecolor="#ffffff"
     bordercolor="#666666"
     borderopacity="1"
     objecttolerance="10"
     gridtolerance="10"
     guidetolerance="10"
     inkscape:pageopacity="0"
     inkscape:pageshadow="2"
     inkscape:window-width="640"
     inkscape:window-height="480"
     id="namedview4"
     showgrid="false"
     inkscape:zoom="2.0269254"
     inkscape:cx="85.169998"
     inkscape:cy="58.216251"
     inkscape:window-x="0"
     inkscape:window-y="0"
     inkscape:window-maximized="0"
     inkscape:current-layer="g10" /><g
     id="g10"
     inkscape:groupmode="layer"
     inkscape:label="game"
     transform="matrix(1.25,0,0,-1.25,0,116.4325)"><g
       id="g12"><g
         id="g14"
         clip-path="url(#clipPath16)"><g
           id="g20"
           transform="translate(132.5606,1e-4)"><path
             d="m 0,0 -128.849,0 c -3.712,0 -3.712,0 -3.712,3.712 l 0,85.722 c 0,2.042 1.671,3.712 3.712,3.712 L 0,93.146 c 2.041,0 3.712,-1.67 3.712,-3.712 l 0,-85.722 C 3.712,-0.066 3.712,0 0,0"
             style="fill:#393536;fill-opacity:1;fill-rule:nonzero;stroke:none"
             id="path22"
             inkscape:connector-curvature="0" /></g><g
           id="g24"
           transform="translate(115.7696,90.4948)"><path
             d="m 0,0 0,-74.764 c 0,-1.605 -0.901,-3.008 -2.223,-3.73 -0.191,-0.102 -0.389,-0.19 -0.594,-0.265 -0.446,-0.159 -0.927,-0.247 -1.425,-0.247 l -86.076,0 c -0.498,0 -0.979,0.088 -1.425,0.247 -0.205,0.075 -0.403,0.163 -0.593,0.265 -1.322,0.722 -2.224,2.125 -2.224,3.73 l 0,74.764 c 0,1 0.35,1.923 0.937,2.651 l 92.686,0 C -0.35,1.923 0,1 0,0"
             style="fill:#201e1d;fill-opacity:1;fill-rule:nonzero;stroke:none"
             id="path26"
             inkscape:connector-curvature="0" /></g><g
           id="g28"
           transform="translate(112.1003,25.6108)"><path
             d="m 0,0 0,3.648 -0.205,0 0,-3.648 -3.977,0 0,3.648 -0.205,0 0,-3.648 -4.065,0 0,3.648 -0.209,0 0,-3.648 -4.033,0 0,3.648 -0.209,0 0,-3.648 -3.842,0 0,3.648 -0.205,0 0,-3.648 -3.92,0 0,3.648 -0.205,0 0,-3.648 -3.977,0 0,3.648 -0.205,0 0,-3.648 -3.977,0 0,3.648 -0.209,0 0,-3.648 -4.065,0 0,4.27 3.404,0 c -0.084,0.089 -0.173,0.177 -0.265,0.265 l -3.139,0 0,2.263 c -0.067,0.039 -0.134,0.074 -0.205,0.109 l 0,-2.372 -4.037,0 0,3.921 -0.205,0 0,-3.921 -3.637,0 0,4.603 c -0.071,0.003 -0.138,0.01 -0.209,0.014 l 0,-4.617 -3.917,0 0,4.592 c -0.067,-0.003 -0.137,-0.01 -0.205,-0.017 l 0,-4.575 -3.976,0 0,3.818 C -49.97,8.332 -50.041,8.311 -50.108,8.289 l 0,-3.754 -3.977,0 0,2.054 c -0.07,-0.039 -0.138,-0.081 -0.205,-0.12 l 0,-1.934 -2.563,0 c -0.091,-0.088 -0.18,-0.176 -0.265,-0.265 l 2.828,0 0,-4.27 -4.065,0 0,3.648 -0.205,0 0,-3.648 -4.037,0 0,3.648 -0.205,0 0,-3.648 -3.902,0 0,3.648 -0.209,0 0,-3.648 -3.917,0 0,3.648 -0.205,0 0,-3.648 -3.977,0 0,3.648 -0.208,0 0,-3.648 -3.977,0 0,3.648 -0.205,0 0,-3.648 -4.065,0 0,3.648 -0.205,0 0,-3.648 -4.037,0 0,3.648 -0.205,0 0,-3.648 -2.796,0 0,64.739 c 0,0.997 0.346,1.916 0.933,2.641 l 92.333,0 C 3.143,66.655 3.489,65.736 3.489,64.739 L 3.489,0 0,0 Z m 3.489,-4.447 -3.489,0 0,4.182 3.489,0 0,-4.182 z m 0,-4.479 -3.489,0 0,4.214 3.489,0 0,-4.214 z m 0,-0.816 c 0,-1.598 -0.898,-2.998 -2.213,-3.716 -0.102,-0.056 -0.208,-0.106 -0.318,-0.152 l -0.958,0 0,4.419 3.489,0 0,-0.551 z m -3.694,-3.868 -3.977,0 0,4.419 3.977,0 0,-4.419 z m -3.977,13.345 3.977,0 0,-4.182 -3.977,0 0,4.182 z m 3.977,-8.661 -3.977,0 0,4.214 3.977,0 0,-4.214 z m -4.182,-4.684 -4.065,0 0,4.419 4.065,0 0,-4.419 z m -4.065,13.345 4.065,0 0,-4.182 -4.065,0 0,4.182 z m 4.065,-8.661 -4.065,0 0,4.214 4.065,0 0,-4.214 z m -4.274,-4.684 -4.033,0 0,4.419 4.033,0 0,-4.419 z m -4.033,13.345 4.033,0 0,-4.182 -4.033,0 0,4.182 z m 4.033,-8.661 -4.033,0 0,4.214 4.033,0 0,-4.214 z m -4.242,-4.684 -3.842,0 0,4.419 3.842,0 0,-4.419 z m -3.842,13.345 3.842,0 0,-4.182 -3.842,0 0,4.182 z m 3.842,-8.661 -3.842,0 0,4.214 3.842,0 0,-4.214 z m -4.047,-4.684 -3.92,0 0,4.419 3.92,0 0,-4.419 z m -3.92,13.345 3.92,0 0,-4.182 -3.92,0 0,4.182 z m 3.92,-8.661 -3.92,0 0,4.214 3.92,0 0,-4.214 z m -4.125,-4.684 -3.977,0 0,4.419 3.977,0 0,-4.419 z m -3.977,13.345 3.977,0 0,-4.182 -3.977,0 0,4.182 z m 3.977,-8.661 -3.977,0 0,4.214 3.977,0 0,-4.214 z m -4.182,-4.684 -3.977,0 0,4.419 3.977,0 0,-4.419 z m -3.977,13.345 3.977,0 0,-4.182 -3.977,0 0,4.182 z m 3.977,-8.661 -3.977,0 0,4.214 3.977,0 0,-4.214 z m -4.186,-4.684 -4.065,0 0,4.419 4.065,0 0,-4.419 z m -4.065,13.345 4.065,0 0,-4.182 -4.065,0 0,4.182 z m 4.065,-8.661 -4.065,0 0,4.214 4.065,0 0,-4.214 z m -4.27,-4.684 -4.037,0 0,4.419 4.037,0 0,-4.419 z m 0,4.684 -4.037,0 0,4.214 4.037,0 0,-4.214 z m -4.037,13.196 4.037,0 0,-4.27 -4.037,0 0,4.27 z m 4.037,-8.717 -4.037,0 0,4.182 4.037,0 0,-4.182 z m -4.242,-9.163 -3.637,0 0,4.419 3.637,0 0,-4.419 z m 0,4.684 -3.637,0 0,4.214 3.637,0 0,-4.214 z m -3.637,13.196 3.637,0 0,-4.27 -3.637,0 0,4.27 z m 3.637,-8.717 -3.637,0 0,4.182 3.637,0 0,-4.182 z m -3.846,-9.163 -3.917,0 0,4.419 3.917,0 0,-4.419 z m 0,4.684 -3.917,0 0,4.214 3.917,0 0,-4.214 z m -3.917,13.196 3.917,0 0,-4.27 -3.917,0 0,4.27 z m 3.917,-8.717 -3.917,0 0,4.182 3.917,0 0,-4.182 z m -4.122,-9.163 -3.977,0 0,4.419 3.977,0 0,-4.419 z m 0,4.684 -3.977,0 0,4.214 3.977,0 0,-4.214 z m -3.976,13.196 3.977,0 0,-4.27 -3.977,0 0,4.27 z m 3.976,-8.717 -3.977,0 0,4.182 3.977,0 0,-4.182 z m -4.185,-9.163 -3.977,0 0,4.419 3.977,0 0,-4.419 z m 0,4.684 -3.977,0 0,4.214 3.977,0 0,-4.214 z m -3.977,13.196 3.977,0 0,-4.27 -3.977,0 0,4.27 z m 3.977,-8.717 -3.977,0 0,4.182 3.977,0 0,-4.182 z m -4.182,-9.163 -4.065,0 0,4.419 4.065,0 0,-4.419 z m -4.065,13.345 4.065,0 0,-4.182 -4.065,0 0,4.182 z m 4.065,-8.661 -4.065,0 0,4.214 4.065,0 0,-4.214 z m -4.27,-4.684 -4.037,0 0,4.419 4.037,0 0,-4.419 z m -4.037,13.345 4.037,0 0,-4.182 -4.037,0 0,4.182 z m 4.037,-8.661 -4.037,0 0,4.214 4.037,0 0,-4.214 z m -4.242,-4.684 -3.903,0 0,4.419 3.903,0 0,-4.419 z m -3.902,13.345 3.903,0 0,-4.182 -3.903,0 0,4.182 z m 3.902,-8.661 -3.903,0 0,4.214 3.903,0 0,-4.214 z m -4.111,-4.684 -3.917,0 0,4.419 3.917,0 0,-4.419 z m -3.917,13.345 3.917,0 0,-4.182 -3.917,0 0,4.182 z m 3.917,-8.661 -3.917,0 0,4.214 3.917,0 0,-4.214 z m -4.122,-4.684 -3.977,0 0,4.419 3.977,0 0,-4.419 z m -3.977,13.345 3.977,0 0,-4.182 -3.977,0 0,4.182 z m 3.977,-8.661 -3.977,0 0,4.214 3.977,0 0,-4.214 z m -4.185,-4.684 -3.977,0 0,4.419 3.977,0 0,-4.419 z m -3.977,13.345 3.977,0 0,-4.182 -3.977,0 0,4.182 z m 3.977,-8.661 -3.977,0 0,4.214 3.977,0 0,-4.214 z m -4.182,-4.684 -4.065,0 0,4.419 4.065,0 0,-4.419 z m -4.065,13.345 4.065,0 0,-4.182 -4.065,0 0,4.182 z m 4.065,-8.661 -4.065,0 0,4.214 4.065,0 0,-4.214 z m 78.667,-5.041 -85.751,0 c -0.297,0 -0.59,0.032 -0.87,0.092 l 87.49,0 c -0.279,-0.06 -0.572,-0.092 -0.869,-0.092 m -82.937,0.357 -4.037,0 0,4.419 4.037,0 0,-4.419 z m -4.037,13.345 4.037,0 0,-4.182 -4.037,0 0,4.182 z m 4.037,-8.661 -4.037,0 0,4.214 4.037,0 0,-4.214 z m -4.242,4.479 -2.796,0 0,4.182 2.796,0 0,-4.182 z m 0,-4.479 -2.796,0 0,4.214 2.796,0 0,-4.214 z m 0,-4.684 -0.265,0 c -0.11,0.046 -0.216,0.096 -0.318,0.152 -1.315,0.718 -2.213,2.118 -2.213,3.716 l 0,0.551 2.796,0 0,-4.419 z m 90.647,81.145 -92.687,0 c -0.587,-0.728 -0.937,-1.651 -0.937,-2.651 l 0,-74.764 c 0,-1.605 0.902,-3.008 2.224,-3.73 0.191,-0.102 0.389,-0.19 0.594,-0.265 0.445,-0.159 0.926,-0.247 1.424,-0.247 l 86.076,0 c 0.499,0 0.98,0.088 1.425,0.247 0.205,0.075 0.403,0.163 0.594,0.265 1.322,0.722 2.223,2.125 2.223,3.73 l 0,74.764 c 0,1 -0.35,1.923 -0.936,2.651"
             style="fill:#b1ada6;fill-opacity:1;fill-rule:nonzero;stroke:none"
             id="path30"
             inkscape:connector-curvature="0" /></g><g
           id="g32"
           transform="translate(115.7696,30.1638)"><path
             d="m 0,0 0,-0.905 -33.2,0 c -0.181,0.212 -0.371,0.421 -0.573,0.622 -0.085,0.089 -0.173,0.177 -0.265,0.265 -0.113,0.106 -0.23,0.212 -0.346,0.318 -0.813,0.725 -1.754,1.379 -2.793,1.945 -0.067,0.039 -0.134,0.074 -0.205,0.109 -2.241,1.188 -4.938,1.98 -7.879,2.231 -0.071,0.003 -0.138,0.01 -0.209,0.014 -0.594,0.046 -1.198,0.071 -1.81,0.071 -0.714,0 -1.417,-0.032 -2.107,-0.096 -0.067,-0.003 -0.138,-0.01 -0.205,-0.017 -1.389,-0.135 -2.722,-0.393 -3.977,-0.757 -0.07,-0.021 -0.141,-0.042 -0.208,-0.064 -1.45,-0.431 -2.786,-1.007 -3.977,-1.7 -0.071,-0.039 -0.138,-0.081 -0.205,-0.12 -0.813,-0.488 -1.555,-1.029 -2.216,-1.616 -0.117,-0.106 -0.234,-0.212 -0.347,-0.318 -0.092,-0.088 -0.18,-0.176 -0.265,-0.265 -0.201,-0.201 -0.392,-0.41 -0.573,-0.622 l -33.2,0 0,0.905 32.766,0 c 3.181,3.185 8.494,5.274 14.514,5.274 6.02,0 11.333,-2.089 14.515,-5.274 L 0,0 Z"
             style="fill:#b1ada6;fill-opacity:1;fill-rule:nonzero;stroke:none"
             id="path34"
             inkscape:connector-curvature="0" /></g><g
           id="g36"><g
             id="g38" /><g
             id="g44"><g
               clip-path="url(#clipPath40)"
               id="g46"><g
                 transform="translate(34.3251,20.1713)"
                 id="g48"><path
                   d="m 0,0 c 0.478,-0.393 1.019,-0.751 1.589,-0.982 1.729,-0.697 3.56,-0.962 5.409,-0.998 3.779,-0.072 7.559,-0.11 11.339,-0.115 6.167,-0.007 12.335,0.024 18.502,0.039 8.072,0.02 16.145,0.035 24.217,0.067 1.528,0.006 3.044,0.187 4.524,0.588 0.971,0.264 1.922,0.58 2.71,1.252 0.836,0.713 0.856,1.487 0.024,2.195 C 67.63,2.629 66.812,2.95 65.961,3.186 64.236,3.665 62.468,3.813 60.687,3.829 57.46,3.857 54.23,3.75 51.009,4.058 c -1.558,0.15 -3.105,0.376 -4.611,0.808 -0.906,0.26 -1.791,0.591 -2.73,0.905 10e-4,0 10e-4,0.001 10e-4,0.001 -0.004,0 -0.043,-0.015 -0.074,-0.041 C 42.697,4.958 41.647,4.502 40.504,4.224 38.623,3.766 36.713,3.639 34.784,3.642 32.948,3.645 31.112,3.62 29.294,3.945 28.258,4.131 27.216,4.314 26.273,4.807 25.729,5.092 25.22,5.442 24.659,5.785 24.673,5.789 24.636,5.782 24.601,5.767 23.567,5.308 22.497,4.958 21.397,4.694 18.798,4.072 16.15,3.902 13.492,3.846 11.077,3.796 8.66,3.817 6.244,3.763 4.939,3.734 3.648,3.534 2.391,3.165 1.507,2.905 0.65,2.57 -0.028,1.912 -0.653,1.305 -0.668,0.549 0,0 m 27.138,6.144 c 0.004,-0.352 0.29,-0.499 0.541,-0.661 0.033,-0.021 0.067,-0.04 0.104,-0.052 0.519,-0.175 1.029,-0.392 1.561,-0.514 1.674,-0.383 3.38,-0.482 5.606,-0.482 1.383,0.008 3.272,0.104 5.114,0.602 0.468,0.127 0.932,0.324 1.351,0.568 0.529,0.31 0.518,0.747 0.008,1.094 -0.229,0.156 -0.487,0.28 -0.748,0.375 C 39.329,7.561 37.918,7.721 36.504,7.82 34.358,7.969 32.219,7.907 30.094,7.542 29.257,7.398 28.424,7.228 27.671,6.807 27.41,6.662 27.134,6.497 27.138,6.144 M 43.012,6.899 C 44.424,6.002 45.997,5.549 47.604,5.206 49.516,4.797 51.459,4.594 53.412,4.562 55.585,4.528 57.76,4.55 59.934,4.568 62.182,4.586 64.415,4.463 66.606,3.921 67.754,3.637 68.862,3.242 69.831,2.534 70.344,2.16 70.73,1.708 70.705,1.023 70.69,0.599 70.499,0.245 70.248,-0.082 c -0.475,-0.619 -1.136,-0.975 -1.821,-1.3 -1.221,-0.58 -2.531,-0.8 -3.852,-0.995 -2.249,-0.331 -4.514,-0.246 -6.772,-0.257 -5.085,-0.025 -10.169,-0.014 -15.254,-0.016 -2.803,-0.002 -5.606,0 -8.409,0 l 0,-0.004 c -6.805,0 -13.611,-0.005 -20.416,0.002 -2.397,0.002 -4.794,0.002 -7.19,0.056 -2.013,0.045 -4.012,0.255 -5.928,0.929 -0.728,0.256 -1.44,0.572 -2.03,1.089 -0.23,0.202 -0.446,0.434 -0.618,0.686 -0.536,0.785 -0.424,1.606 0.298,2.226 0.639,0.548 1.388,0.902 2.174,1.188 1.676,0.611 3.422,0.905 5.19,0.962 2.075,0.067 4.154,0.022 6.231,0.009 2.768,-0.018 5.527,0.104 8.255,0.593 1.937,0.348 3.797,0.906 5.494,1.971 1.709,1.072 3.618,1.619 5.618,1.858 1.618,0.194 3.24,0.214 4.862,0.105 2.473,-0.167 4.82,-0.78 6.932,-2.121"
                   style="fill:#231f20;fill-opacity:1;fill-rule:nonzero;stroke:none"
                   id="path50"
                   inkscape:connector-curvature="0" /></g><g
                 transform="translate(35.552,20.4851)"
                 id="g52"><path
                   d="m 0,0 c 0.417,-0.473 0.929,-0.807 1.527,-1.016 1.103,-0.385 2.244,-0.574 3.405,-0.623 1.197,-0.05 2.396,-0.065 3.594,-0.066 8.13,-0.006 16.26,-0.003 24.391,-0.003 l 3.625,0 c 7.57,10e-4 15.14,-0.003 22.709,0.008 1.537,0.003 3.069,0.09 4.562,0.515 0.767,0.219 1.472,0.535 2.015,1.137 0.428,0.474 0.44,0.929 -0.04,1.34 C 65.435,1.594 65.024,1.855 64.597,2.037 63.431,2.534 62.189,2.738 60.93,2.793 59.724,2.845 58.516,2.857 57.308,2.857 41.057,2.862 24.806,2.86 8.555,2.86 7.665,2.86 6.775,2.88 5.887,2.85 4.417,2.801 2.958,2.662 1.559,2.159 0.981,1.951 0.426,1.706 0.006,1.239 -0.372,0.818 -0.375,0.424 0,0 M 23.432,5.471 C 23.993,5.128 24.502,4.778 25.046,4.493 25.99,4 27.031,3.817 28.067,3.631 c 1.818,-0.325 3.654,-0.3 5.49,-0.302 1.929,-0.004 3.839,0.123 5.721,0.581 1.142,0.278 2.192,0.734 3.09,1.507 0.031,0.027 0.07,0.042 0.075,0.042 0,0 -10e-4,-0.002 -0.002,-0.002 C 43.38,5.144 44.265,4.812 45.171,4.553 46.677,4.12 48.224,3.894 49.782,3.744 53.003,3.436 56.233,3.543 59.46,3.515 61.241,3.499 63.009,3.351 64.734,2.873 65.585,2.636 66.403,2.315 67.087,1.732 67.919,1.024 67.9,0.251 67.063,-0.462 66.275,-1.135 65.325,-1.451 64.354,-1.715 62.873,-2.116 61.357,-2.297 59.829,-2.303 51.757,-2.335 43.685,-2.349 35.613,-2.37 29.445,-2.385 23.277,-2.415 17.11,-2.409 c -3.78,0.005 -7.56,0.043 -11.339,0.115 -1.848,0.036 -3.68,0.301 -5.409,0.999 -0.57,0.23 -1.111,0.588 -1.589,0.981 -0.668,0.549 -0.652,1.305 -0.028,1.912 0.678,0.659 1.535,0.993 2.419,1.253 1.257,0.369 2.549,0.569 3.853,0.598 2.416,0.054 4.833,0.033 7.248,0.083 2.658,0.056 5.306,0.226 7.905,0.848 1.101,0.264 2.17,0.615 3.205,1.073 0.034,0.015 0.071,0.022 0.057,0.018"
                   style="fill:#ffffff;fill-opacity:1;fill-rule:nonzero;stroke:none"
                   id="path54"
                   inkscape:connector-curvature="0" /></g><g
                 transform="translate(99.9404,20.2108)"
                 id="g56"><path
                   d="M 0,0 C -0.495,-0.002 -0.932,0.424 -0.936,0.912 -0.939,1.398 -0.504,1.821 -0.002,1.819 0.504,1.817 0.927,1.396 0.917,0.901 0.908,0.417 0.486,0.002 0,0"
                   style="fill:#ffffff;fill-opacity:1;fill-rule:nonzero;stroke:none"
                   id="path58"
                   inkscape:connector-curvature="0" /></g><path
                 d="m 97.086,21.921 -4.99,0 0,0.786 4.99,0 0,-0.786 z"
                 style="fill:#ffffff;fill-opacity:1;fill-rule:nonzero;stroke:none"
                 id="path60"
                 inkscape:connector-curvature="0" /><g
                 transform="translate(93.4753,21.6778)"
                 id="g62"><path
                   d="m 0,0 c 0.061,-0.342 0.335,-0.317 0.6,-0.316 0.802,0.002 1.604,0.001 2.405,-0.001 0.123,0 0.246,-0.012 0.379,-0.02 l 0,-0.705 -3.316,0 c -0.063,-0.39 0.034,-0.516 0.378,-0.517 0.917,-0.005 1.835,-0.002 2.753,-0.003 l 0.405,0 0,-0.763 C 3.516,-2.331 3.415,-2.344 3.313,-2.344 c -1.217,-0.001 -2.434,-0.004 -3.651,0 -0.726,0.003 -1.051,0.342 -1.047,1.074 0.002,0.411 0,0.823 0,1.24 0.055,0.013 0.091,0.029 0.127,0.029 C -0.852,0.001 -0.446,0 0,0"
                   style="fill:#ffffff;fill-opacity:1;fill-rule:nonzero;stroke:none"
                   id="path64"
                   inkscape:connector-curvature="0" /></g><g
                 transform="translate(89.9524,22.7672)"
                 id="g66"><path
                   d="M 0,0 1.592,0 C 1.387,-0.31 1.209,-0.577 1.031,-0.848 l -1.587,0 C -0.35,-0.534 -0.175,-0.266 0,0"
                   style="fill:#ffffff;fill-opacity:1;fill-rule:nonzero;stroke:none"
                   id="path68"
                   inkscape:connector-curvature="0" /></g><g
                 transform="translate(89.2192,21.665)"
                 id="g70"><path
                   d="M 0,0 1.589,0 C 1.058,-0.796 0.553,-1.552 0.042,-2.317 l -1.749,0 c -0.507,0.757 -1.014,1.513 -1.548,2.311 l 1.588,0 C -1.41,-0.396 -1.136,-0.81 -0.833,-1.269 -0.54,-0.823 -0.273,-0.415 0,0"
                   style="fill:#ffffff;fill-opacity:1;fill-rule:nonzero;stroke:none"
                   id="path72"
                   inkscape:connector-curvature="0" /></g><g
                 transform="translate(86.8182,22.7649)"
                 id="g74"><path
                   d="m 0,0 c 0.174,-0.26 0.353,-0.528 0.564,-0.843 l -1.594,0 C -1.196,-0.593 -1.378,-0.317 -1.588,0 L 0,0 Z"
                   style="fill:#ffffff;fill-opacity:1;fill-rule:nonzero;stroke:none"
                   id="path76"
                   inkscape:connector-curvature="0" /></g><path
                 d="m 84.732,21.919 -1.383,0 0,0.784 1.383,0 0,-0.784 z"
                 style="fill:#ffffff;fill-opacity:1;fill-rule:nonzero;stroke:none"
                 id="path78"
                 inkscape:connector-curvature="0" /><path
                 d="m 84.724,19.352 -1.378,0 0,2.307 1.378,0 0,-2.307 z"
                 style="fill:#ffffff;fill-opacity:1;fill-rule:nonzero;stroke:none"
                 id="path80"
                 inkscape:connector-curvature="0" /><g
                 transform="translate(82.4705,21.6621)"
                 id="g82"><path
                   d="M 0,0 C 0.107,-0.578 -0.034,-1.039 -0.632,-1.388 -0.284,-1.674 0.033,-1.934 0.35,-2.194 0.32,-2.239 0.289,-2.283 0.259,-2.327 c -0.5,0 -1,-0.019 -1.498,0.014 -0.133,0.009 -0.284,0.157 -0.378,0.279 -0.258,0.34 -0.576,0.458 -1,0.423 -0.441,-0.037 -0.886,-0.009 -1.356,-0.009 l 0,0.937 1.424,0 c 0.251,0 0.502,-0.001 0.753,0.001 0.328,0.003 0.389,0.064 0.399,0.384 0.002,0.094 0.009,0.188 0.015,0.298 L 0,0 Z"
                   style="fill:#ffffff;fill-opacity:1;fill-rule:nonzero;stroke:none"
                   id="path84"
                   inkscape:connector-curvature="0" /></g><g
                 transform="translate(81.7756,22.7161)"
                 id="g86"><path
                   d="m 0,0 c 0.443,-0.004 0.732,-0.361 0.686,-0.799 l -5.682,0 C -5.034,-0.36 -4.747,-0.003 -4.312,0 -2.874,0.013 -1.437,0.013 0,0"
                   style="fill:#ffffff;fill-opacity:1;fill-rule:nonzero;stroke:none"
                   id="path88"
                   inkscape:connector-curvature="0" /></g><path
                 d="m 78.156,19.356 -1.398,0 0,2.307 1.398,0 0,-2.307 z"
                 style="fill:#ffffff;fill-opacity:1;fill-rule:nonzero;stroke:none"
                 id="path90"
                 inkscape:connector-curvature="0" /><g
                 transform="translate(75.8332,21.6563)"
                 id="g92"><path
                   d="M 0,0 C 0,-0.194 0.001,-0.391 -0.001,-0.588 -0.003,-0.859 -0.008,-1.129 -0.012,-1.4 -0.019,-1.889 -0.331,-2.294 -0.809,-2.305 -1.947,-2.333 -3.086,-2.314 -4.26,-2.314 l 0,0.755 c 0.126,0.007 0.238,0.018 0.35,0.018 0.696,0.002 1.392,-0.001 2.088,0.002 0.323,0.002 0.396,0.073 0.398,0.389 0.005,0.376 0.002,0.751 0.002,1.15 L 0,0 Z"
                   style="fill:#ffffff;fill-opacity:1;fill-rule:nonzero;stroke:none"
                   id="path94"
                   inkscape:connector-curvature="0" /></g><g
                 transform="translate(75.7989,21.9197)"
                 id="g96"><path
                   d="m 0,0 -5.841,0 c -0.007,0.106 -0.017,0.19 -0.019,0.274 -0.002,0.162 -10e-4,0.324 -10e-4,0.498 0.096,0.013 0.16,0.03 0.224,0.03 1.623,0.001 3.246,0.004 4.869,-0.001 C -0.278,0.8 0.024,0.487 0,0"
                   style="fill:#ffffff;fill-opacity:1;fill-rule:nonzero;stroke:none"
                   id="path98"
                   inkscape:connector-curvature="0" /></g><g
                 transform="translate(71.7122,25.7047)"
                 id="g100"><path
                   d="m 0,0 c -0.092,-0.247 -0.165,-0.443 -0.241,-0.647 l -0.376,0 c 0.249,0.723 0.489,1.42 0.73,2.116 C 0.155,1.471 0.198,1.472 0.241,1.473 0.434,0.912 0.626,0.35 0.83,-0.241 l -0.755,0 C 0.057,-0.181 0.037,-0.117 0,0 M 0.047,0.138 C 0.144,0.147 0.208,0.152 0.303,0.16 0.255,0.271 0.221,0.349 0.16,0.491 0.111,0.339 0.084,0.255 0.047,0.138"
                   style="fill:#231f20;fill-opacity:1;fill-rule:nonzero;stroke:none"
                   id="path102"
                   inkscape:connector-curvature="0" /></g><g
                 transform="translate(69.5479,25.3712)"
                 id="g104"><path
                   d="m 0,0 c 0.258,0.003 0.517,0.001 0.795,0.001 l 0,0.946 C 0.606,0.962 0.418,0.977 0.202,0.995 0.197,1.083 0.193,1.161 0.188,1.257 l 0.944,0 0,-1.218 C 1.152,0.034 1.172,0.028 1.193,0.023 1.222,0.082 1.259,0.138 1.28,0.2 1.454,0.711 1.629,1.222 1.792,1.737 1.878,2.008 2.049,2.182 2.328,2.188 2.621,2.192 2.799,2.012 2.89,1.732 3.085,1.126 3.29,0.523 3.489,-0.081 c 0.022,-0.07 0.03,-0.144 0.048,-0.233 l -1.309,0 c -0.004,0.085 -0.007,0.157 -0.012,0.276 l 0.932,0 C 2.927,0.602 2.732,1.182 2.522,1.757 2.501,1.815 2.367,1.886 2.319,1.867 2.236,1.833 2.147,1.745 2.117,1.66 1.92,1.116 1.739,0.566 1.552,0.019 1.515,-0.09 1.472,-0.198 1.425,-0.326 c -0.534,0 -1.065,-0.013 -1.594,0.005 -0.29,0.01 -0.512,0.264 -0.519,0.564 -0.01,0.435 -0.01,0.87 10e-4,1.305 0.008,0.326 0.23,0.565 0.569,0.584 0.403,0.022 0.808,0.005 1.241,0.005 l 0,-0.318 c -0.361,0 -0.708,0.002 -1.053,0 C -0.267,1.815 -0.363,1.721 -0.366,1.39 -0.368,1.052 -0.363,0.714 -0.366,0.375 -0.368,0.125 -0.256,-0.003 0,0"
                   style="fill:#231f20;fill-opacity:1;fill-rule:nonzero;stroke:none"
                   id="path106"
                   inkscape:connector-curvature="0" /></g><g
                 transform="translate(71.7592,25.8428)"
                 id="g108"><path
                   d="M 0,0 C 0.037,0.117 0.064,0.201 0.113,0.353 0.174,0.211 0.208,0.133 0.256,0.022 0.161,0.014 0.097,0.009 0,0"
                   style="fill:#ffffff;fill-opacity:1;fill-rule:nonzero;stroke:none"
                   id="path110"
                   inkscape:connector-curvature="0" /></g><path
                 d="m 71.344,19.356 -1.389,0 0,2.304 1.389,0 0,-2.304 z"
                 style="fill:#ffffff;fill-opacity:1;fill-rule:nonzero;stroke:none"
                 id="path112"
                 inkscape:connector-curvature="0" /><g
                 transform="translate(69.6355,25.837)"
                 id="g114"><path
                   d="M 0,0 C 0.074,-0.012 0.151,-0.024 0.228,-0.036 0.168,0.106 0.117,0.226 0.05,0.385 l 0.534,0 0,-0.731 c -0.24,0 -0.471,-0.027 -0.69,0.014 -0.095,0.017 -0.224,0.17 -0.232,0.27 -0.028,0.334 -0.016,0.673 -0.003,1.009 0.007,0.178 0.114,0.278 0.303,0.276 C 0.309,1.219 0.654,1.222 1.037,1.222 l 0,-0.301 L 0,0.921 0,0 Z"
                   style="fill:#231f20;fill-opacity:1;fill-rule:nonzero;stroke:none"
                   id="path116"
                   inkscape:connector-curvature="0" /></g><g
                 transform="translate(68.6523,25.8121)"
                 id="g118"><path
                   d="m 0,0 0,-0.315 c -0.39,0 -0.772,-0.017 -1.15,0.013 -0.077,0.007 -0.167,0.178 -0.205,0.29 -0.035,0.102 -0.007,0.226 -0.007,0.369 l 1.115,0 c 0.005,-0.074 0.009,-0.145 0.015,-0.256 l -0.747,0 C -0.98,0.067 -0.98,0.034 -0.981,0 L 0,0 Z"
                   style="fill:#231f20;fill-opacity:1;fill-rule:nonzero;stroke:none"
                   id="path120"
                   inkscape:connector-curvature="0" /></g><g
                 transform="translate(68.6424,26.746)"
                 id="g122"><path
                   d="m 0,0 -0.961,0 c 0.001,-0.03 0.001,-0.059 0.002,-0.089 l 0.718,0 c 0.006,-0.11 0.01,-0.187 0.015,-0.29 l -1.124,0 c 0,0.163 -0.035,0.301 0.009,0.406 0.046,0.11 0.16,0.262 0.256,0.271 C -0.734,0.33 -0.377,0.311 0,0.311 L 0,0 Z"
                   style="fill:#231f20;fill-opacity:1;fill-rule:nonzero;stroke:none"
                   id="path124"
                   inkscape:connector-curvature="0" /></g><g
                 transform="translate(67.1684,25.7657)"
                 id="g126"><path
                   d="m 0,0 c 0.003,-0.256 0.132,-0.39 0.396,-0.389 0.355,0.003 0.71,0.001 1.086,0.001 l 0,-0.32 c -0.44,0 -0.863,-0.021 -1.284,0.006 -0.29,0.019 -0.492,0.236 -0.507,0.543 -0.023,0.452 -0.021,0.907 0.008,1.358 0.02,0.319 0.227,0.517 0.546,0.536 0.402,0.024 0.806,0.006 1.231,0.006 l 0,-0.316 C 1.129,1.425 0.794,1.427 0.459,1.424 0.102,1.421 -0.001,1.319 -0.004,0.955 -0.007,0.637 -0.005,0.318 0,0"
                   style="fill:#231f20;fill-opacity:1;fill-rule:nonzero;stroke:none"
                   id="path128"
                   inkscape:connector-curvature="0" /></g><g
                 transform="translate(66.6359,21.661)"
                 id="g130"><path
                   d="m 0,0 0,-2.304 -1.381,0 c -0.01,0.214 -0.019,0.422 -0.03,0.67 l -2.508,0 0,0.943 2.516,0 0,0.691 L 0,0 Z"
                   style="fill:#ffffff;fill-opacity:1;fill-rule:nonzero;stroke:none"
                   id="path132"
                   inkscape:connector-curvature="0" /></g><g
                 transform="translate(65.8116,26.319)"
                 id="g134"><path
                   d="m 0,0 c -0.087,0.002 -0.174,-0.003 -0.26,0.003 -0.057,0.005 -0.139,0.005 -0.163,0.039 -0.081,0.119 -0.213,0.265 -0.191,0.374 0.025,0.123 0.188,0.293 0.305,0.306 0.361,0.04 0.728,0.015 1.112,0.015 0.005,-0.095 0.009,-0.166 0.015,-0.29 l -1.095,0 C -0.28,0.418 -0.283,0.389 -0.285,0.361 -0.176,0.347 -0.067,0.332 0.043,0.32 0.516,0.266 0.83,-0.057 0.828,-0.488 0.825,-0.895 0.527,-1.247 0.125,-1.269 c -0.384,-0.022 -0.769,-0.005 -1.181,-0.005 -0.006,0.109 -0.011,0.198 -0.019,0.328 0.379,0 0.735,-0.01 1.088,0.003 0.299,0.011 0.497,0.227 0.488,0.499 C 0.492,-0.179 0.298,-0.008 0,0"
                   style="fill:#231f20;fill-opacity:1;fill-rule:nonzero;stroke:none"
                   id="path136"
                   inkscape:connector-curvature="0" /></g><g
                 transform="translate(61.0398,21.9237)"
                 id="g138"><path
                   d="m 0,0 c 0.009,0.48 0.277,0.791 0.719,0.794 1.389,0.011 2.778,0.011 4.168,0 C 5.324,0.79 5.615,0.446 5.587,0 L 0,0 Z"
                   style="fill:#ffffff;fill-opacity:1;fill-rule:nonzero;stroke:none"
                   id="path140"
                   inkscape:connector-curvature="0" /></g><g
                 transform="translate(65.1167,26.5145)"
                 id="g142"><path
                   d="m 0,0 c 0.054,-0.121 0.228,-0.212 0.368,-0.264 0.12,-0.045 0.271,0.003 0.402,-0.023 0.2,-0.039 0.332,-0.176 0.324,-0.385 -0.007,-0.206 -0.133,-0.347 -0.349,-0.353 -0.356,-0.01 -0.713,-0.003 -1.097,-0.003 -0.009,0.097 -0.016,0.175 -0.027,0.295 l 1.109,0 c 0.003,0.029 0.006,0.06 0.01,0.089 -0.091,0.015 -0.181,0.038 -0.273,0.042 -0.48,0.02 -0.837,0.345 -0.845,0.776 -0.009,0.445 0.319,0.794 0.8,0.819 0.355,0.018 0.71,0.003 1.081,0.003 l 0,-0.32 C 1.183,0.676 0.864,0.701 0.552,0.666 0.375,0.647 0.17,0.568 0.053,0.444 -0.034,0.354 -0.055,0.122 0,0"
                   style="fill:#231f20;fill-opacity:1;fill-rule:nonzero;stroke:none"
                   id="path144"
                   inkscape:connector-curvature="0" /></g><g
                 transform="translate(69.2753,24.6061)"
                 id="g146"><path
                   d="m 0,0 c -2.226,0.001 -3.932,0.099 -5.607,0.482 -0.531,0.122 -1.041,0.339 -1.561,0.514 -0.036,0.012 -0.07,0.031 -0.103,0.052 -0.251,0.163 -0.537,0.309 -0.541,0.661 -0.004,0.353 0.272,0.518 0.533,0.664 0.752,0.42 1.586,0.59 2.423,0.734 2.124,0.365 4.264,0.427 6.409,0.278 C 2.968,3.286 4.378,3.127 5.725,2.639 5.986,2.544 6.244,2.42 6.473,2.265 6.982,1.917 6.994,1.48 6.465,1.171 6.046,0.926 5.582,0.729 5.113,0.603 3.272,0.104 1.383,0.008 0,0 M -3.45,0.77 C -3.804,0.757 -4.159,0.767 -4.539,0.767 c 0.008,-0.13 0.013,-0.219 0.02,-0.328 0.411,0 0.797,-0.017 1.18,0.005 0.402,0.022 0.701,0.374 0.703,0.781 0.002,0.431 -0.312,0.754 -0.785,0.808 -0.109,0.012 -0.219,0.027 -0.328,0.041 0.002,0.028 0.005,0.057 0.008,0.086 l 1.095,0 C -2.652,2.284 -2.656,2.355 -2.66,2.45 -3.044,2.45 -3.412,2.475 -3.772,2.435 -3.89,2.422 -4.052,2.252 -4.077,2.129 -4.099,2.02 -3.968,1.874 -3.887,1.755 -3.863,1.721 -3.78,1.721 -3.724,1.716 -3.638,1.71 -3.551,1.715 -3.464,1.713 -3.166,1.705 -2.971,1.534 -2.963,1.269 -2.953,0.997 -3.152,0.781 -3.45,0.77 m -1.06,0.111 c 0.384,0 0.74,-0.008 1.096,0.002 0.217,0.006 0.342,0.147 0.349,0.354 0.009,0.208 -0.123,0.345 -0.324,0.385 -0.13,0.025 -0.281,-0.022 -0.401,0.023 -0.141,0.051 -0.315,0.142 -0.369,0.263 -0.054,0.123 -0.033,0.354 0.053,0.445 0.117,0.123 0.323,0.202 0.5,0.221 0.312,0.035 0.63,0.01 0.95,0.01 l 0,0.32 c -0.37,0 -0.726,0.015 -1.08,-0.003 C -4.217,2.876 -4.546,2.527 -4.537,2.083 -4.528,1.652 -4.172,1.327 -3.692,1.307 -3.6,1.303 -3.51,1.279 -3.419,1.265 -3.423,1.235 -3.425,1.205 -3.429,1.175 l -1.108,0 C -4.526,1.056 -4.519,0.977 -4.51,0.881 m 2.403,0.279 c -0.005,0.318 -0.007,0.637 -0.004,0.955 0.003,0.363 0.106,0.466 0.463,0.469 0.335,0.003 0.671,0 1.017,0 l 0,0.316 C -1.056,2.9 -1.46,2.918 -1.862,2.895 -2.181,2.876 -2.388,2.678 -2.408,2.359 -2.437,1.907 -2.439,1.453 -2.416,1.001 -2.401,0.693 -2.199,0.476 -1.908,0.458 -1.488,0.431 -1.064,0.451 -0.625,0.451 l 0,0.321 c -0.376,0 -0.731,0.001 -1.086,-0.001 -0.264,-0.002 -0.392,0.132 -0.396,0.389 m 0.122,0.403 c 0,-0.143 -0.028,-0.267 0.007,-0.369 0.038,-0.112 0.128,-0.283 0.205,-0.29 0.378,-0.03 0.76,-0.013 1.15,-0.013 l 0,0.315 -0.981,0 c 0.001,0.034 0.001,0.067 0.002,0.101 l 0.747,0 c -0.006,0.111 -0.01,0.181 -0.015,0.256 l -1.115,0 z m 0.011,0.604 C -2.018,2.062 -1.983,1.924 -1.983,1.761 l 1.124,0 c -0.005,0.103 -0.009,0.18 -0.015,0.29 l -0.718,0 C -1.593,2.081 -1.593,2.11 -1.594,2.14 l 0.961,0 0,0.311 C -1.01,2.451 -1.367,2.47 -1.718,2.438 -1.814,2.429 -1.928,2.277 -1.974,2.167 M -0.415,1.008 C -0.408,0.708 -0.187,0.454 0.104,0.444 0.633,0.426 1.164,0.439 1.698,0.439 1.745,0.567 1.787,0.675 1.824,0.784 2.012,1.331 2.193,1.881 2.389,2.425 2.42,2.51 2.509,2.598 2.592,2.632 2.639,2.651 2.773,2.58 2.794,2.522 3.005,1.947 3.2,1.367 3.42,0.727 l -0.931,0 C 2.494,0.608 2.497,0.536 2.501,0.451 l 1.309,0 C 3.792,0.54 3.784,0.614 3.761,0.684 3.562,1.288 3.358,1.891 3.163,2.497 3.072,2.777 2.894,2.957 2.601,2.953 2.322,2.947 2.151,2.773 2.065,2.502 1.902,1.987 1.726,1.476 1.553,0.965 1.532,0.903 1.495,0.847 1.465,0.788 1.445,0.794 1.425,0.799 1.404,0.804 l 0,1.218 -0.943,0 C 0.466,1.926 0.47,1.848 0.475,1.76 0.69,1.743 0.878,1.727 1.068,1.712 l 0,-0.946 C 0.789,0.766 0.531,0.768 0.273,0.765 0.016,0.762 -0.096,0.89 -0.093,1.14 c 0.003,0.339 -0.003,0.677 0,1.016 0.003,0.33 0.098,0.424 0.435,0.428 0.346,0.003 0.692,0 1.054,0 l 0,0.318 C 0.963,2.902 0.557,2.92 0.154,2.897 -0.184,2.878 -0.406,2.639 -0.414,2.313 -0.425,1.878 -0.425,1.443 -0.415,1.008 M 0.022,1.169 C 0.03,1.069 0.16,0.916 0.254,0.899 0.473,0.858 0.704,0.885 0.944,0.885 l 0,0.731 -0.534,0 C 0.477,1.457 0.528,1.337 0.588,1.195 0.511,1.207 0.434,1.219 0.36,1.231 l 0,0.921 1.037,0 0,0.301 C 1.015,2.453 0.669,2.45 0.323,2.454 0.133,2.456 0.027,2.356 0.02,2.178 0.006,1.842 -0.006,1.503 0.022,1.169 m 1.798,-0.718 0.376,0 C 2.272,0.656 2.345,0.852 2.437,1.099 2.473,0.982 2.494,0.918 2.512,0.858 l 0.754,0 C 3.063,1.449 2.871,2.011 2.678,2.572 2.635,2.571 2.592,2.569 2.549,2.568 2.309,1.871 2.069,1.175 1.82,0.451"
                   style="fill:#ffffff;fill-opacity:1;fill-rule:nonzero;stroke:none"
                   id="path148"
                   inkscape:connector-curvature="0" /></g><path
                 d="m 62.421,19.355 -1.397,0 0,2.304 1.397,0 0,-2.304 z"
                 style="fill:#ffffff;fill-opacity:1;fill-rule:nonzero;stroke:none"
                 id="path150"
                 inkscape:connector-curvature="0" /><g
                 transform="translate(60.3107,22.7231)"
                 id="g152"><path
                   d="m 0,0 0,-0.798 -5.893,0 c -0.051,0.456 0.257,0.788 0.746,0.796 C -4.586,0.006 -4.025,0 -3.465,0 L -0.362,0 0,0 Z"
                   style="fill:#ffffff;fill-opacity:1;fill-rule:nonzero;stroke:none"
                   id="path154"
                   inkscape:connector-curvature="0" /></g><g
                 transform="translate(55.7999,20.6023)"
                 id="g156"><path
                   d="m 0,0 c 0.002,-0.443 0.044,-0.485 0.476,-0.486 0.714,0 1.429,0 2.144,0 0.058,0 0.116,-0.001 0.174,0.003 0.166,0.012 0.305,0.093 0.261,0.265 C 3.03,-0.122 2.886,0.003 2.79,0.009 2.357,0.034 1.921,0.021 1.487,0.021 l -0.384,0 0,0.678 c 0.016,0.013 0.03,0.035 0.044,0.035 0.859,0 1.718,0.025 2.575,-0.012 C 4.19,0.701 4.554,0.171 4.523,-0.327 4.493,-0.838 4.079,-1.256 3.56,-1.265 2.797,-1.277 2.034,-1.269 1.272,-1.269 c -0.571,-0.001 -1.14,-0.005 -1.71,0.002 -0.613,0.006 -0.971,0.371 -0.973,0.975 -10e-4,0.442 0,0.884 0,1.37 l 0.704,0 0.707,0 C 0,0.705 -0.001,0.352 0,0"
                   style="fill:#ffffff;fill-opacity:1;fill-rule:nonzero;stroke:none"
                   id="path158"
                   inkscape:connector-curvature="0" /></g><path
                 d="m 41.596,21.666 -1.377,0 0,-2.312 1.377,0 0,2.312 z m 3.107,-0.01 -1.369,0 0,-2.306 1.369,0 0,2.306 z m 3.124,0.262 c 0.022,0.49 -0.283,0.803 -0.788,0.803 -2.193,0.004 -4.386,0.002 -6.579,0.001 -0.075,0 -0.149,-0.015 -0.24,-0.023 l 0,-0.781 7.607,0 z m 0.007,-0.262 -1.41,0 0,-2.301 1.41,0 0,2.301 z m 5.808,1.046 -4.986,0 0,-0.781 4.986,0 0,0.781 z m 8.779,-1.043 -1.397,0 0,-2.304 1.397,0 0,2.304 z m 4.206,0.265 c 0.027,0.445 -0.263,0.79 -0.701,0.793 -1.389,0.011 -2.778,0.011 -4.167,0.001 -0.442,-0.004 -0.71,-0.315 -0.719,-0.794 l 5.587,0 z m 4.717,-0.264 -1.389,0 0,-2.304 1.389,0 0,2.304 z m 4.489,-0.592 c 0.001,0.197 0,0.395 0,0.588 l -1.422,0 c 0,-0.399 0.003,-0.774 -0.001,-1.149 -0.003,-0.317 -0.076,-0.388 -0.399,-0.39 -0.696,-0.003 -1.392,0 -2.088,-0.001 -0.112,-0.001 -0.224,-0.012 -0.35,-0.019 l 0,-0.755 c 1.174,0 2.313,-0.019 3.451,0.009 0.479,0.012 0.79,0.416 0.797,0.906 0.004,0.27 0.009,0.541 0.012,0.811 m 2.323,0.595 -1.398,0 0,-2.307 1.398,0 0,2.307 z m 6.568,-0.004 -1.378,0 0,-2.307 1.378,0 0,2.307 z m 0.008,1.044 -1.383,0 0,-0.784 1.383,0 0,0.784 z m 6.077,-1.038 -1.59,0 c -0.272,-0.415 -0.54,-0.823 -0.833,-1.269 -0.303,0.459 -0.576,0.873 -0.833,1.263 l -1.589,0 c 0.535,-0.798 1.042,-1.554 1.548,-2.311 l 1.749,0 c 0.511,0.765 1.016,1.521 1.548,2.317 m 0.174,0.255 c 0.179,0.27 0.356,0.537 0.561,0.847 l -1.592,0 c -0.174,-0.266 -0.35,-0.534 -0.555,-0.847 l 1.586,0 z m 6.103,0.787 -4.99,0 0,-0.786 4.99,0 0,0.786 z M 49.707,19.334 c 1.209,-0.003 2.417,-0.001 3.625,0 0.103,0 0.205,0.012 0.306,0.018 l 0,0.764 -0.371,0 c -0.928,0.001 -1.856,-0.002 -2.784,0.002 -0.342,0.002 -0.44,0.125 -0.39,0.515 l 3.322,0 0,0.729 -0.404,0 c -0.812,0 -1.624,0.004 -2.437,-0.002 -0.249,-0.002 -0.464,0.029 -0.538,0.298 l -1.389,0 c 0,-0.436 0.002,-0.849 0,-1.262 -0.002,-0.724 0.328,-1.06 1.06,-1.062 m 4.682,0.976 c 0.002,-0.604 0.36,-0.968 0.973,-0.975 0.57,-0.007 1.139,-0.002 1.709,-0.002 0.763,0 1.526,-0.007 2.289,0.005 0.518,0.008 0.933,0.426 0.963,0.938 0.031,0.497 -0.333,1.027 -0.801,1.048 -0.857,0.038 -1.716,0.013 -2.575,0.013 -0.014,0 -0.028,-0.022 -0.044,-0.036 l 0,-0.677 0.384,0 c 0.434,-10e-4 0.87,0.012 1.303,-0.013 0.096,-0.005 0.24,-0.131 0.265,-0.226 0.044,-0.173 -0.095,-0.254 -0.261,-0.266 -0.058,-0.004 -0.116,-0.002 -0.174,-0.002 -0.715,-0.001 -1.43,-0.001 -2.144,0 -0.433,0 -0.474,0.043 -0.476,0.485 -10e-4,0.352 0,0.705 0,1.078 l -0.707,0 -0.704,0 c 0,-0.486 -0.001,-0.928 0,-1.37 m 0.029,1.615 5.893,0 0,0.798 -0.362,0 -3.103,0 c -0.561,0 -1.122,0.006 -1.682,-0.002 -0.489,-0.008 -0.797,-0.34 -0.746,-0.796 m 10.807,-1.898 c 0.011,-0.248 0.02,-0.456 0.03,-0.67 l 1.381,0 0,2.304 -1.403,0 0,-0.692 -2.516,0 0,-0.942 2.508,0 z m 4.732,1.893 5.842,0 c 0.024,0.486 -0.279,0.8 -0.768,0.801 -1.623,0.005 -3.246,0.002 -4.869,0 -0.064,0 -0.129,-0.016 -0.224,-0.029 0,-0.174 -0.001,-0.336 10e-4,-0.498 0.002,-0.085 0.012,-0.169 0.018,-0.274 M 37.003,20.211 c 0.487,0.003 0.914,0.426 0.917,0.908 0.003,0.498 -0.424,0.914 -0.934,0.911 -0.49,-0.003 -0.913,-0.418 -0.917,-0.9 -0.004,-0.487 0.438,-0.922 0.934,-0.919 m 42.85,-0.16 c 0.424,0.036 0.743,-0.083 1.001,-0.423 0.093,-0.122 0.244,-0.27 0.377,-0.279 0.498,-0.033 0.999,-0.014 1.499,-0.014 0.03,0.044 0.06,0.089 0.091,0.133 -0.317,0.26 -0.634,0.521 -0.982,0.807 0.598,0.348 0.739,0.809 0.632,1.387 l -1.382,0 c -0.006,-0.11 -0.014,-0.203 -0.016,-0.297 -0.01,-0.321 -0.071,-0.382 -0.398,-0.385 -0.252,-0.002 -0.503,-0.001 -0.754,-0.001 l -1.424,0 0,-0.936 c 0.471,0 0.916,-0.029 1.356,0.008 m 2.608,1.866 c 0.047,0.438 -0.243,0.795 -0.685,0.799 -1.438,0.013 -2.875,0.013 -4.312,0 -0.435,-0.003 -0.722,-0.36 -0.684,-0.799 l 5.681,0 z m 3.327,0.004 1.594,0 c -0.21,0.315 -0.39,0.583 -0.564,0.844 l -1.587,0 c 0.209,-0.317 0.392,-0.594 0.557,-0.844 m 7.349,-2.587 c 1.217,-0.004 2.435,-0.001 3.652,0 0.101,0 0.202,0.013 0.29,0.019 l 0,0.763 -0.405,0 c -0.918,0.001 -1.835,-0.002 -2.753,0.003 -0.344,0.001 -0.44,0.127 -0.378,0.516 l 3.316,0 0,0.706 c -0.132,0.007 -0.255,0.02 -0.378,0.02 -0.802,0.002 -1.604,0.002 -2.406,10e-4 -0.265,-10e-4 -0.539,-0.026 -0.6,0.316 -0.446,0 -0.852,0 -1.257,-0.001 -0.036,0 -0.073,-0.017 -0.128,-0.029 0,-0.417 0.002,-0.829 0,-1.241 -0.003,-0.732 0.321,-1.07 1.047,-1.073 m 3.345,3.944 c 1.259,-0.055 2.501,-0.258 3.667,-0.756 0.427,-0.182 0.838,-0.443 1.191,-0.745 0.48,-0.411 0.468,-0.866 0.04,-1.339 -0.543,-0.603 -1.248,-0.919 -2.015,-1.137 C 97.872,18.875 96.34,18.788 94.803,18.785 87.234,18.774 79.664,18.779 72.095,18.777 l -3.626,0 c -8.13,0 -16.261,-0.003 -24.391,0.003 -1.198,10e-4 -2.397,0.017 -3.594,0.066 -1.161,0.049 -2.302,0.238 -3.405,0.623 -0.598,0.209 -1.11,0.543 -1.527,1.016 -0.375,0.424 -0.372,0.819 0.006,1.239 0.42,0.467 0.975,0.713 1.553,0.92 1.399,0.503 2.858,0.642 4.328,0.691 0.888,0.03 1.778,0.01 2.668,0.01 16.251,0.001 32.502,0.002 48.753,-0.002 1.208,0 2.416,-0.013 3.622,-0.065 m 3.458,-3.067 c 0.486,0.002 0.908,0.417 0.917,0.901 0.01,0.494 -0.413,0.916 -0.919,0.918 -0.502,0.002 -0.937,-0.421 -0.933,-0.907 0.003,-0.488 0.441,-0.915 0.935,-0.912"
                 style="fill:#231f20;fill-opacity:1;fill-rule:nonzero;stroke:none"
                 id="path160"
                 inkscape:connector-curvature="0" /><path
                 d="m 53.642,21.921 -4.986,0 0,0.781 4.986,0 0,-0.781 z"
                 style="fill:#ffffff;fill-opacity:1;fill-rule:nonzero;stroke:none"
                 id="path162"
                 inkscape:connector-curvature="0" /><g
                 transform="translate(50.093,20.6331)"
                 id="g164"><path
                   d="m 0,0 c -0.05,-0.39 0.048,-0.513 0.39,-0.515 0.928,-0.004 1.856,-0.001 2.784,-0.002 l 0.371,0 0,-0.764 C 3.444,-1.287 3.342,-1.299 3.239,-1.299 c -1.208,-0.002 -2.416,-0.003 -3.625,0 -0.732,0.002 -1.062,0.338 -1.06,1.062 0.002,0.413 0,0.826 0,1.262 l 1.389,0 C 0.017,0.756 0.232,0.725 0.481,0.727 1.294,0.733 2.106,0.729 2.918,0.729 l 0.404,0 L 3.322,0 0,0 Z"
                   style="fill:#ffffff;fill-opacity:1;fill-rule:nonzero;stroke:none"
                   id="path166"
                   inkscape:connector-curvature="0" /></g><path
                 d="m 47.834,19.355 -1.41,0 0,2.301 1.41,0 0,-2.301 z"
                 style="fill:#ffffff;fill-opacity:1;fill-rule:nonzero;stroke:none"
                 id="path168"
                 inkscape:connector-curvature="0" /><g
                 transform="translate(47.8272,21.9179)"
                 id="g170"><path
                   d="m 0,0 -7.607,0 0,0.781 c 0.091,0.009 0.165,0.023 0.24,0.023 2.193,0.001 4.386,0.003 6.579,-0.001 C -0.284,0.803 0.022,0.49 0,0"
                   style="fill:#ffffff;fill-opacity:1;fill-rule:nonzero;stroke:none"
                   id="path172"
                   inkscape:connector-curvature="0" /></g><path
                 d="m 44.703,19.349 -1.369,0 0,2.306 1.369,0 0,-2.306 z"
                 style="fill:#ffffff;fill-opacity:1;fill-rule:nonzero;stroke:none"
                 id="path174"
                 inkscape:connector-curvature="0" /><path
                 d="m 41.596,19.353 -1.377,0 0,2.312 1.377,0 0,-2.312 z"
                 style="fill:#ffffff;fill-opacity:1;fill-rule:nonzero;stroke:none"
                 id="path176"
                 inkscape:connector-curvature="0" /><g
                 transform="translate(36.986,22.0299)"
                 id="g178"><path
                   d="M 0,0 C 0.51,0.003 0.937,-0.412 0.934,-0.911 0.931,-1.393 0.504,-1.816 0.017,-1.819 -0.479,-1.822 -0.921,-1.387 -0.917,-0.9 -0.913,-0.418 -0.49,-0.003 0,0"
                   style="fill:#ffffff;fill-opacity:1;fill-rule:nonzero;stroke:none"
                   id="path180"
                   inkscape:connector-curvature="0" /></g></g></g></g></g></g></g></svg>