<svg xmlns="http://www.w3.org/2000/svg" viewBox="0 0 117.333 281.167"><path d="M0 274.171V6.995C0 3.148 3.148 0 6.995 0h103.343c3.847 0 6.995 3.148 6.995 6.995v267.176c0 3.847-3.148 6.995-6.995 6.995H6.995C3.148 281.167 0 278.019 0 274.171z" fill="#1b1b1d"/><path fill="none" stroke="#45444c" stroke-width=".25" stroke-miterlimit="10" d="M17.75 70.833h3.99"/><path d="M18.979 124.963v152.37h60.187v-152.24c0-.005.755-1.698 1.549-1.698h32.492V18.333H3.982a.149.149 0 0 0-.149.149L4.125 124l13.177.021c.866 0 1.677.077 1.677.942z" fill="#1b1b1d"/><path d="M5.75 120.68V20.703c0-.273.222-.495.494-.495h105.412c.213 0 .386.173.386.385v100.3c0 .24-.195.435-.435.435H80.802a3.347 3.347 0 0 0-3.344 3.343v149.207c0 .871-.696 1.58-1.551 1.58H21.171c-.855 0-1.552-.709-1.552-1.58V124.672c0-1.843-1.5-3.343-3.344-3.343H6.399a.65.65 0 0 1-.649-.649zM111.792 20.594a.135.135 0 0 0-.136-.135H6.244a.244.244 0 0 0-.244.244v99.977a.4.4 0 0 0 .398.399h9.877a3.598 3.598 0 0 1 3.594 3.593v149.207c0 .733.584 1.33 1.302 1.33h54.736c.717 0 1.301-.597 1.301-1.33V124.672a3.598 3.598 0 0 1 3.594-3.593h30.805a.185.185 0 0 0 .185-.185v-100.3z"/><path fill="#595763" d="M65.116 174.342v43h-43v-43z"/><circle cx="43.616" cy="195.841" r="17.82" fill="#060606"/><circle cx="43.616" cy="195.841" r="17.5" fill="#1a1d1f"/><circle cx="43.616" cy="195.841" r="13.365" fill="#060606"/><circle cx="43.616" cy="195.841" r="13" fill="#151618"/><path fill="#841116" d="M74.365 174.341v43h-7.157v-43z"/><g fill="#fff"><path d="M70.149 194.653l1.125-.001c.3-.003.45.089.45.277v3.386l-.675.025v-2.986l-.675-.001v2.625c0 .235-.15.354-.45.358l-1.125.001c-.3-.012-.45-.113-.45-.301v-3.386l.675-.025v2.986l.675.001v-2.625c0-.219.15-.331.45-.334zM71.049 198.623l.675-.025v3.668l-.675.025v-1.493l-2.7.001v-.705l2.7-.001v-1.47zM68.349 202.145l3.375 1.654v.846l-3.375 1.309v-.846l.675-.29v-1.629l.675.338v1l1.125-.436-2.475-1.241v-.705zM71.724 206.357v3.386c0 .188-.144.287-.431.296l-1.144.016c-.3-.012-.45-.097-.45-.254v-.988l-1.35 1.214v-.846l1.35-1.167v-.949h.675v2.256l.675.001v-2.257l-2.7.001v-.705l3.375-.004zM71.049 210.332l.675-.025v3.668l-.675.025v-1.493l-2.7.001v-.705l2.7-.001v-1.47z"/></g><path d="M68.349 187.144v-.588h3.5v-1.127h.483c.07.467.147.764.231.89.107.149.357.289.749.42v.405h-4.963z" fill="#fff"/><path fill="#595763" d="M65.116 221.342v43h-43v-43z"/><circle cx="43.616" cy="242.841" r="17.82" fill="#060606"/><circle cx="43.616" cy="242.841" r="17.5" fill="#1a1d1f"/><circle cx="43.616" cy="242.841" r="13.365" fill="#060606"/><circle cx="43.616" cy="242.842" r="13" fill="#151618"/><path fill="#841116" d="M74.365 221.341v43h-7.157v-43z"/><path d="M71.822 233.723c-.322 0-.619-.105-.889-.315a1.888 1.888 0 0 1-.483-.566l-.511-.924c-.294-.528-.627-.819-1.001-.875v2.646h-.588v-3.304c.887.042 1.5.345 1.841.91l.7 1.169c.252.424.563.637.931.637.285 0 .511-.091.679-.273.168-.182.252-.429.252-.741 0-.621-.387-.952-1.162-.994v-.588c1.148.014 1.722.59 1.722 1.729 0 .373-.117.702-.35.987-.276.334-.656.502-1.141.502z" fill="#fff"/><g fill="#595763"><path d="M65.221 170.65v.741h-43v-.74zM65.221 167.304v.741h-43v-.74zM65.221 163.958v.741h-43v-.74zM65.221 160.612v.741h-43v-.74zM65.222 157.267v.74h-43v-.74zM65.222 153.92v.742h-43v-.741zM65.221 150.575v.741h-43v-.741zM65.221 147.23v.74h-43v-.74zM65.221 143.883v.741h-43v-.74zM65.221 140.537v.741h-43v-.74zM65.222 137.192v.74h-43v-.74zM65.222 133.846v.74h-43v-.74zM65.222 130.5v.741h-43v-.741zM65.221 127.154v.741h-43v-.74zM65.221 123.808v.741h-43v-.74zM65.221 120.462v.741h-43v-.74z"/></g><g fill="#fff"><path d="M38.912 125.088l.004 5.508a4.079 4.079 0 1 0 8.158 0l-.007-1.43c0-.114.092-.206.206-.206.115 0 .207.092.207.206l-.001 5.495 1.727.003v-5.5a1.929 1.929 0 1 0-3.858 0l-.016 1.437a2.336 2.336 0 1 1-4.671 0v-5.512l-1.749-.001"/><path d="M41.068 125.09v5.512a1.929 1.929 0 1 0 3.858 0l.016-1.437a2.336 2.336 0 1 1 4.671 0l.002 5.5 1.736-.003.002-5.495a4.079 4.079 0 1 0-8.157 0l-.001 1.422a.2.2 0 1 1-.4 0l-.002-5.5-1.725.001M40.65 138.944c0-.954.765-1.737 1.737-1.737h5.521c.936 0 1.71.783 1.71 1.737l-.002 5.88h1.734l.001-5.879a3.462 3.462 0 0 0-3.462-3.462h-5.504a3.462 3.462 0 0 0-3.461 3.462l-.002 5.855 1.729-.002-.001-5.854"/><path d="M47.891 137.629c.729 0 1.32.586 1.32 1.316v5.88H47.48v-5.065c0-.406-.408-.411-.408-.411v4.224l-1.726.001v-5.947l2.545.002M41.07 138.944c0-.728.59-1.317 1.317-1.317l2.547-.001v5.947l-1.731-.001v-4.224c-.407.005-.408.411-.408.411v5.041l-1.722-.002-.003-5.854M40.655 148.943c0-.954.778-1.732 1.732-1.732h5.504c.954 0 1.728.773 1.728 1.728l.001 5.693 1.732.001v-5.706a3.462 3.462 0 0 0-3.462-3.462h-5.504c-1.911 0-3.461 1.563-3.461 3.475l-.002 5.693 8.15-.001v-4.893h-1.728v3.163h-4.691l.001-3.959"/><path d="M42.387 147.619c-.729 0-1.329.591-1.329 1.32v3.555h3.88v-2.751h-1.733v1.021l-.408.004.002-1.016c0-.224.182-.406.406-.406l3.871-.007s.404-.001.412.408v4.888l1.728-.005-.004-5.692a1.32 1.32 0 0 0-1.32-1.32h-5.505M49.239 159.981a.564.564 0 0 1-.002 1.065l-8.19 2.761v-4.044l1.926.004v1.353l1.813-.61-5.863-1.982v-2.042l10.316 3.495"/><path d="M40.654 164.366v-4.596h-1.73v6.997l10.802-3.639c1.053-.319 1.826-1.369 1.826-2.615 0-1.245-.772-2.295-1.824-2.614l-10.803-3.673v1.832l10.502 3.563a.964.964 0 0 1 .003 1.777l-8.776 2.968"/></g><g fill="#45444c"><path d="M60.333 70.833L100 110.729V30.938zM57.417 70.833L17.75 30.938v79.791zM58.875 69.375l39.896-39.667H18.979zM58.875 72.292l-39.896 39.666h79.792z"/></g><path fill="#fff" d="M21.74 70.833v1.565l-1.75-.782-1.75-.783 1.75-.782 1.75-.782zM58.875 107.969h1.565l-.783 1.75-.782 1.75-.782-1.75-.783-1.75zM96.109 70.833v-1.564l1.75.782 1.75.782-1.75.783-1.75.782zM58.875 33.687H57.31l.783-1.75.782-1.75.782 1.75.783 1.75z"/><path d="M23.237 53.948c0-10.314 8.391-18.706 18.705-18.706h33.76c10.314 0 18.706 8.392 18.706 18.706v33.759c0 10.314-8.392 18.706-18.706 18.706h-33.76c-10.314 0-18.705-8.392-18.705-18.706V53.948z" fill="#1d1e20"/><path d="M28.237 53.948c0-7.558 6.148-13.706 13.705-13.706h33.76c7.558 0 13.706 6.148 13.706 13.706v33.759c0 7.558-6.148 13.706-13.706 13.706h-33.76c-7.557 0-13.705-6.148-13.705-13.706V53.948z"/><path d="M29.736 87.707V53.948c0-6.713 5.493-12.206 12.206-12.206h33.759c6.713 0 12.206 5.493 12.206 12.206v33.759c0 6.713-5.493 12.206-12.206 12.206H41.942c-6.713 0-12.206-5.492-12.206-12.206z" fill="#1e2021"/><g><path fill="#202122" stroke="#000" stroke-width=".1" stroke-miterlimit="10" d="M43.193 56.103l-1.391 1.391-.861-2.251-.86-2.252 2.252.86 2.252.861z"/><path fill="#252526" stroke="#000" stroke-width=".1" stroke-miterlimit="10" d="M43.193 84.865l1.392 1.392-2.252.86-2.252.861.86-2.252.861-2.252zM73.391 84.865l1.392-1.391.86 2.252.861 2.252-2.252-.861-2.252-.86zM73.391 56.076L72 54.684l2.252-.86 2.252-.861-.861 2.252-.86 2.252z"/><path d="M73 70.833c0-.831.68-1.512 1.512-1.512h7.977c.831 0 1.512.68 1.512 1.512 0 .831-.68 1.512-1.512 1.512h-7.977c-.832 0-1.512-.68-1.512-1.512zM32.585 70.833c0-.831.68-1.512 1.512-1.512h7.977c.831 0 1.512.68 1.512 1.512 0 .831-.68 1.512-1.512 1.512h-7.977c-.832 0-1.512-.68-1.512-1.512zM58.875 56.494c-.831 0-1.512-.68-1.512-1.512v-7.977c0-.831.68-1.512 1.512-1.512.831 0 1.512.68 1.512 1.512v7.977c0 .832-.681 1.512-1.512 1.512zM58.822 95.474c-.831 0-1.512-.68-1.512-1.512v-7.977c0-.831.68-1.512 1.512-1.512.831 0 1.512.68 1.512 1.512v7.977a1.517 1.517 0 0 1-1.512 1.512z" fill="#252526" stroke="#000" stroke-width=".25" stroke-miterlimit="10"/><circle cx="58.875" cy="70.833" r="10.778" fill="#1a1c1d"/></g><g><path d="M14.146 111.164v-80.91a4.054 4.054 0 0 1 4.05-4.05h83.67a4.055 4.055 0 0 1 4.05 4.05v6.523h-1.5v-6.523a2.553 2.553 0 0 0-2.55-2.55h-83.67a2.553 2.553 0 0 0-2.55 2.55v80.91a2.553 2.553 0 0 0 2.55 2.55h83.67a2.553 2.553 0 0 0 2.55-2.55v-6.382h1.5v6.382a4.055 4.055 0 0 1-4.05 4.05h-83.67a4.055 4.055 0 0 1-4.05-4.05z" fill="#931416"/></g><g fill="#fff"><path d="M102.704 45.721h-.495l-.126-.558 1.333.225v.549l-1.306-.036c-.306-.567-.432-1.188-.432-1.818 0-1.819 1.314-3.043 3.151-3.043 1.8 0 3.151 1.278 3.151 3.034 0 .486-.081 1.125-.432 1.738l-1.306.036v-.549l1.333-.225-.126.558h-.549c.477-.513.63-1.017.63-1.449 0-1.215-.945-2.197-2.701-2.197-1.756 0-2.701.882-2.701 2.134 0 .512.153 1.088.576 1.601zM104.829 52.228c-1.972 0-3.151-1.35-3.151-2.746s1.099-2.755 3.151-2.755c1.971 0 3.151 1.368 3.151 2.755 0 1.387-1.099 2.746-3.151 2.746zm-2.701-2.745c0 1.27 1.351 1.8 2.701 1.8s2.701-.531 2.701-1.8-1.351-1.81-2.701-1.81c-1.351 0-2.701.54-2.701 1.81zM102.173 52.839l.135.945v.18l-.135 1.035h-.36v-2.16h.36zm5.393.567l-.216.558.135-1.08h.36v1.35l-5.141 3.736h-.954v-.288l5.816-4.276zm.279.198l-.36.45h-5.672v-.45h6.032zm0 2.971v2.161h-.36l-.135-.9v-.18l.135-1.081h.36zm0 .945v.45h-6.095l.45-.45h5.645zM107.394 59.661l.45.405-1.603-.288v-.504l1.603.072v4.916l-1.603.072v-.504l1.603-.288-.45.405v-4.286zm-5.086 2.232l-.135 1.26h-.36v-2.701h.36l.135 1.26v.181zm2.746-.495c.928 0 1.864 0 2.791-.027v.864c-.909-.027-1.846-.027-2.791-.027h-.45c-.927 0-1.864 0-2.791.027v-.864c.909.027 1.846.027 2.791.027h.45zM107.485 64.917h.36v1.26h-.495v-.09l.135-1.17zm-5.177 1.35l-.135 1.17h-.36v-2.521h.36l.135 1.17v.181zm2.746-.495c.928 0 1.864 0 2.791-.027v.864c-.936-.027-1.818-.027-2.881-.027h-.27c-1.017 0-1.954 0-2.881.027v-.864c.909.027 1.846.027 2.791.027h.45zm-.045.405v1.125c0 .972.522 1.44 1.251 1.44.756 0 1.17-.405 1.17-1.342v-1.224h.414v1.233c0 1.377-.585 2.188-1.584 2.188-.765 0-1.458-.603-1.558-1.782l.072.027c-.063.648-.36 1.044-1.17 1.287l-1.495.441.171-.279-.108.927h-.36a2.073 2.073 0 0 1-.09-.648c0-.558.144-.801.558-.909l1.467-.369c.729-.18.855-.513.855-1.26v-.855h.407zM104.829 76.105c-1.972 0-3.151-1.35-3.151-2.746s1.099-2.755 3.151-2.755c1.971 0 3.151 1.369 3.151 2.755s-1.099 2.746-3.151 2.746zm-2.701-2.746c0 1.27 1.351 1.8 2.701 1.8s2.701-.531 2.701-1.8-1.351-1.81-2.701-1.81c-1.351.001-2.701.541-2.701 1.81zM107.485 76.716h.36v2.521h-.36l-.135-1.17v-.18l.135-1.171zm-5.177 1.26h-.495v-1.26h.36l.135 1.17v.09zm5.537-.432v.864c-.927-.027-1.863-.027-2.791-.027h-.63c-.765 0-1.702 0-2.611.027v-.864c.927.027 1.864.027 2.791.027h.45c.945 0 1.881 0 2.791-.027zm-4.34 3.736l-1.692-.09v-3.214h.45v2.899l-.45-.495 1.692.36v.54zM107.485 84.194h.36v1.26h-.495v-.09l.135-1.17zm-5.177 1.35l-.135 1.17h-.36v-2.521h.36l.135 1.17v.181zm2.746-.495c.928 0 1.864 0 2.791-.027v.864c-.909-.027-1.846-.027-2.791-.027h-.549c-.918 0-1.765 0-2.692.027v-.864c.909.027 1.846.027 2.791.027h.45zm-.855 1.297v-.891h.414v1.026c0 1.107.585 1.54 1.44 1.54.874 0 1.377-.486 1.377-1.576v-.99h.414v1.161c0 1.495-.738 2.26-1.792 2.26-1.007-.001-1.853-.694-1.853-2.53zM102.173 88.586l.135.9v.18l-.135.99h-.36v-2.071h.36zm5.716 2.683v.54l-6.077 2.07v-.837l5.393-1.81v.207l-5.393-1.836v-.423l6.077 2.089zm-3.69-1.053v2.431l-.414.144v-2.719l.414.144zm-2.026 1.774l.135 1.134v.18l-.135 1.117h-.36V91.99h.36zM107.485 94.824h.36v1.26h-.495v-.09l.135-1.17zm-5.177 1.26h-.495v-1.26h.36l.135 1.17v.09zm2.746-.405c.928 0 1.864 0 2.791-.027v.864c-.909-.027-1.846-.027-2.791-.027h-.342c-1.035 0-1.972 0-2.899.027v-.864c.909.027 1.846.027 2.899.027h.342zm-2.827.405v1.161c0 1.414.955 2.188 2.593 2.188 1.702 0 2.611-.774 2.611-2.107v-1.242h.414v1.396c0 1.71-1.063 2.899-3.025 2.899-1.944 0-3.007-1.333-3.007-3.079v-1.215h.414z"/></g><path d="M0 13.833V6.916C0 3.112 3.112 0 6.917 0h103.5c3.804 0 6.917 3.112 6.917 6.917v6.917H0z" fill="#1d1f20"/><path fill="#191919" d="M117.333 13.833v5.125H0v-5.125z"/><path d="M79.167 125.094c0-1.231.612-1.698 1.549-1.698h34.919c.938 0 1.698.76 1.698 1.698v6.949L84 129.533l-4.833-4.439z" fill="#212121"/><path d="M84 281.167V129.533c0-.385.317-.7.704-.7h29.477c1.734 0 3.153 1.444 3.153 3.21v142.782c0 3.488-2.803 6.341-6.228 6.341H84z" fill="#2b2b2d"/><path fill="#161616" d="M79.167 125.094v156.073H84V129.533z"/><path d="M16.75 279.226v.048c0 1.041.852 1.893 1.893 1.893h60.423a1.899 1.899 0 0 0 1.893-1.893v-.048a1.899 1.899 0 0 0-1.893-1.893H18.643a1.899 1.899 0 0 0-1.893 1.893z" fill="#131315"/><path fill="#3c3c3c" d="M18.979 126.115v155.052h-4.891l-.114-153.025z"/><path d="M18.979 124.948v1.167L0 133.802v-10.406h17.427c.854 0 1.552.698 1.552 1.552z" fill="#161616"/><path d="M0 274.786V131.124a3.24 3.24 0 0 1 3.23-3.23h10.213c.387 0 .704.317.704.704v152.568H6.38c-3.509.001-6.38-2.87-6.38-6.38z" fill="#1d1f21"/><path d="M2.125 16.903c0 .298.246.54.544.54h1.456v107.875H2.667a.544.544 0 0 0-.542.542v.489H0V16.411h2.125v.492zM115.208 16.903c0 .298-.245.54-.544.54h-1.456v107.875h1.458c.298 0 .542.244.542.542v.489h2.125V16.411h-2.125v.492z" fill="#242628"/></svg>