<?xml version="1.0" encoding="UTF-8" standalone="no"?>
<!-- Created with Inkscape (http://www.inkscape.org/) -->
<svg xmlns:dc="http://purl.org/dc/elements/1.1/" xmlns:cc="http://creativecommons.org/ns#" xmlns:rdf="http://www.w3.org/1999/02/22-rdf-syntax-ns#" xmlns:svg="http://www.w3.org/2000/svg" xmlns="http://www.w3.org/2000/svg" xmlns:sodipodi="http://sodipodi.sourceforge.net/DTD/sodipodi-0.dtd" xmlns:inkscape="http://www.inkscape.org/namespaces/inkscape" width="450" height="400" id="svg2" version="1.1" inkscape:version="0.48.3.1 r9886" sodipodi:docname="tux25.svg">
  <defs id="defs4">
    <filter inkscape:collect="always" id="filter3914" color-interpolation-filters="sRGB">
      <feGaussianBlur inkscape:collect="always" stdDeviation="2.7976342" id="feGaussianBlur3916"/>
    </filter>
    <filter inkscape:collect="always" id="filter3932" color-interpolation-filters="sRGB">
      <feGaussianBlur inkscape:collect="always" stdDeviation="1.4139868" id="feGaussianBlur3934"/>
    </filter>
    <filter inkscape:collect="always" id="filter3952" color-interpolation-filters="sRGB">
      <feGaussianBlur inkscape:collect="always" stdDeviation="1.3061249" id="feGaussianBlur3954"/>
    </filter>
    <filter inkscape:collect="always" id="filter3968" x="-0.078797072" width="1.1575941" y="-0.39122301" height="1.782446" color-interpolation-filters="sRGB">
      <feGaussianBlur inkscape:collect="always" stdDeviation="8.5287929" id="feGaussianBlur3970"/>
    </filter>
  </defs>
  <sodipodi:namedview id="base" pagecolor="#ffffff" bordercolor="#666666" borderopacity="1.0" inkscape:pageopacity="0.0" inkscape:pageshadow="2" inkscape:zoom="0.35" inkscape:cx="206.36802" inkscape:cy="229.78611" inkscape:document-units="px" inkscape:current-layer="layer2" showgrid="false" showguides="true" inkscape:guide-bbox="true" inkscape:window-width="959" inkscape:window-height="744" inkscape:window-x="65" inkscape:window-y="24" inkscape:window-maximized="1" inkscape:snap-global="false"/>
  <metadata id="metadata7">
    <rdf:RDF>
      <cc:Work rdf:about="">
        <dc:format>image/svg+xml</dc:format>
        <dc:type rdf:resource="http://purl.org/dc/dcmitype/StillImage"/>
        <dc:title/>
      </cc:Work>
    </rdf:RDF>
  </metadata>
  <g inkscape:groupmode="layer" id="layer2" inkscape:label="pengi" transform="translate(0,-652.36218)">
    <g id="g4014" transform="matrix(1,0,0,1.0086001,-287.14286,246.35955)" inkscape:export-filename="/home/karsono/Desktop/tux1.png" inkscape:export-xdpi="90" inkscape:export-ydpi="90">
      <path sodipodi:nodetypes="sssssssssssssssss" inkscape:connector-curvature="0" id="path3958" d="m 410,695.21933 c -6.75645,2.3175 -15.44994,5.9178 -17.14286,12.85714 -1.69104,6.93162 6.42857,20 9.28572,19.28571 2.85714,-0.71428 10.70487,-4.92481 16.42857,-5 14.32411,-0.18818 27.19962,9.76951 41.42857,11.42857 12.77938,1.49005 26.27181,2.34665 38.57143,-1.42857 6.44194,-1.97727 10.47388,-9.74844 17.14286,-10.71428 4.40206,-0.63753 8.56989,2.38648 12.85714,3.57143 9.52042,2.63133 18.72476,7.07907 28.57143,7.85714 15.04541,1.18886 29.96691,-3.66438 45,-5 10.69594,-0.95028 21.80979,0.77844 32.14285,-2.14286 4.91931,-1.39075 10.75896,-2.87392 13.57143,-7.14286 4.99309,-7.57883 6.10688,-18.97853 2.14286,-27.14285 -2.24971,-4.63351 -7.80032,-7.59206 -12.85714,-8.57143 -5.73049,-1.10984 -12.11787,0.60161 -17.14286,3.57143 -1.88976,1.11687 -2.29944,4.06547 -4.28571,5 C 553.65796,720.84499 474.87169,672.96798 410,695.21933 z" style="opacity:0.54320984;fill:#666666;stroke:none;filter:url(#filter3968)"/>
      <path sodipodi:nodetypes="cccsccccccc" inkscape:connector-curvature="0" id="path3073" d="m 380.82751,625.57273 c 2.0233,-6.01957 3.25262,-11.84065 12.62691,-19.69797 20.60734,-11.08248 35.20681,-23.88711 39.64849,-48.9924 2.87344,-10.0444 4.65882,-17.46252 5.40307,-27.255 8.58674,-112.98021 149.72023,-105.34081 156.97895,2.00119 l 3.53553,27.77919 c 13.15218,21.76547 28.01849,33.24613 42.42641,47.47717 5.89856,8.14828 13.10625,16.80008 10.6066,21.71828 -11.25863,-5.82043 -22.82177,-14.93928 -37.37565,-15.65736 -27.56255,132.49984 -164.03653,121.75927 -194.45436,2.0203 -13.13198,-1.2039 -26.26397,5.49396 -39.39595,10.6066 z" style="fill:#000000;stroke:#000000;stroke-width:2.98718238;stroke-linecap:butt;stroke-linejoin:miter;stroke-opacity:1"/>
      <path sodipodi:nodetypes="ccc" inkscape:connector-curvature="0" id="path3110" d="M 520,559.86218 C 583.82329,542.28129 657.29684,695.73132 519.64286,709.1479 390.2143,700.15201 442.27761,550.29825 520,559.86218 z" style="fill:#ffffff;stroke:#000000;stroke-width:2.98718238;stroke-linecap:butt;stroke-linejoin:miter;stroke-opacity:1"/>
      <path sodipodi:nodetypes="ccc" inkscape:connector-curvature="0" id="path3075" d="m 488.57143,497.36218 c -31.55098,-1.1245 -45.90286,56.2811 -0.35714,67.5 48.0686,-5.29441 38.87267,-64.03535 0.35714,-67.5 z" style="fill:#ffffff;stroke:#000000;stroke-width:2.98718238;stroke-linecap:butt;stroke-linejoin:miter;stroke-opacity:1"/>
      <path sodipodi:nodetypes="ccc" inkscape:connector-curvature="0" id="path3077" d="m 549.28572,555.57647 c -49.98016,-5.63563 -30.39998,-48.06582 -0.71429,-47.14286 30.71307,7.05866 33.90991,45.78009 0.71429,47.14286 z" style="fill:#ffffff;stroke:#000000;stroke-width:2.98718238;stroke-linecap:butt;stroke-linejoin:miter;stroke-opacity:1"/>
      <path sodipodi:nodetypes="cccc" inkscape:connector-curvature="0" id="path3079" d="m 518.92857,590.93361 c -9.64348,1.12173 -22.60185,-18.80826 -25.71429,-32.14286 17.21318,-18.38635 38.38197,-18.15741 53.92858,-0.17857 -2.00667,12.17345 -16.71526,33.99982 -28.21429,32.32143 z" style="fill:#ffcc00;stroke:#000000;stroke-width:2.98718238;stroke-linecap:butt;stroke-linejoin:miter;stroke-opacity:1"/>
      <path sodipodi:nodetypes="ccc" inkscape:connector-curvature="0" id="path3081" d="m 522.14286,520.57647 c -1.36189,-22.88781 53.14252,-36.21655 53.21428,10.35714 -21.22935,-36.96846 -45.71614,-18.9226 -53.21428,-10.35714 z" style="opacity:0.30041151;fill:#ffffff;stroke:#000000;stroke-width:2.98718238;stroke-linecap:butt;stroke-linejoin:miter;stroke-opacity:1"/>
      <path sodipodi:nodetypes="ccc" inkscape:connector-curvature="0" id="path3083" d="m 458.21429,526.29075 c -8.31684,-40.11791 57.85941,-64.57709 63.21428,-3.92857 -17.00173,-35.68657 -53.1171,-32.87673 -63.21428,3.92857 z" style="opacity:0.20341564;fill:#ffffff;stroke:#000000;stroke-width:2.98718238;stroke-linecap:butt;stroke-linejoin:miter;stroke-opacity:1"/>
      <path sodipodi:nodetypes="ccc" inkscape:connector-curvature="0" id="path3104" d="m 527.32143,521.82647 c 6.5824,-0.53022 11.47399,17.68832 0,21.07143 -9.77557,-3.55231 -7.21653,-20.98223 0,-21.07143 z" style="fill:#000000;stroke:#000000;stroke-width:2.98718238;stroke-linecap:butt;stroke-linejoin:miter;stroke-opacity:1"/>
      <path sodipodi:nodetypes="ccc" inkscape:connector-curvature="0" id="path3106" d="m 510.53572,519.50504 c 9.75944,1.19047 11.10409,23.45238 -1.42858,25.53571 -11.04237,-2.40612 -8.72923,-25.78579 1.42858,-25.53571 z" style="fill:#000000;stroke:#000000;stroke-width:2.98718238;stroke-linecap:butt;stroke-linejoin:miter;stroke-opacity:1"/>
      <path sodipodi:nodetypes="cccc" inkscape:connector-curvature="0" id="path3108" d="m 458.92857,506.29075 c 24.60071,-35.84158 60.68785,-18.74344 62.14286,12.85715 12.49927,-27.268 35.4478,-24.24456 54.64286,-7.5 -5.25338,-80.69832 -114.79909,-77.46888 -116.78572,-5.35715 z" style="opacity:0.23456792;fill:#ffffff;stroke:#000000;stroke-width:2.98718238;stroke-linecap:butt;stroke-linejoin:miter;stroke-opacity:1;filter:url(#filter3914)"/>
      <path sodipodi:nodetypes="ccccc" inkscape:connector-curvature="0" id="path3112" d="m 536.78572,719.50504 c 5.05952,3.01128 50.11904,4.90831 75.71428,0 4.89594,-1.01547 13.37491,-6.83594 7.85714,-22.14286 -7.03559,-18.46299 -45.01693,-31.77308 -63.57142,-27.5 -23.0552,5.4664 -38.61995,38.86898 -20,49.64286 z" style="fill:#ffcc00;stroke:#000000;stroke-width:2.98718238;stroke-linecap:butt;stroke-linejoin:miter;stroke-opacity:1"/>
      <path style="fill:#ffcc00;stroke:#000000;stroke-width:2.98718238;stroke-linecap:butt;stroke-linejoin:miter;stroke-opacity:1" d="m 501.31599,719.56194 c -5.21377,2.95439 -51.64701,4.81556 -78.02257,0 -5.0452,-0.99628 -13.78267,-6.70675 -8.09666,-21.72443 7.25008,-18.1141 44.24647,-31.17267 65.50948,-26.98034 23.50022,4.91044 39.60874,38.23839 20.60975,48.70477 z" id="path3133" inkscape:connector-curvature="0" sodipodi:nodetypes="ccccc"/>
      <path style="opacity:0.66255146;fill:#ffffff;stroke:#000000;stroke-width:2.98718238;stroke-linecap:butt;stroke-linejoin:miter;stroke-opacity:1" d="m 525.30838,522.53691 c 3.04699,-0.35058 5.31131,11.69551 0,13.93242 -4.52511,-2.34879 -3.34053,-13.87344 0,-13.93242 z" id="path3918" inkscape:connector-curvature="0" sodipodi:nodetypes="ccc"/>
      <path style="opacity:0.59670781;fill:#ffffff;stroke:#000000;stroke-width:2.98718238;stroke-linecap:butt;stroke-linejoin:miter;stroke-opacity:1" d="m 509.06178,524.14682 c 5.71422,0.54117 6.50152,10.66116 -0.83644,11.60822 -6.46537,-1.09379 -5.11102,-11.72191 0.83644,-11.60822 z" id="path3920" inkscape:connector-curvature="0" sodipodi:nodetypes="ccc"/>
      <path sodipodi:nodetypes="cccc" inkscape:connector-curvature="0" id="path3922" d="m 447.49758,559.40774 c 0,0 6.19691,16.40873 22.72843,11.61675 -16.3719,9.38434 -29.1177,26.32288 -34.85026,67.17515 -10.75896,-29.29442 -5.55899,-52.52793 12.12183,-78.7919 z" style="opacity:0.20164609;fill:#ffffff;stroke:none"/>
      <path style="opacity:0.20164609;fill:#ffffff;stroke:none" d="m 590.7895,562.97917 c 0,0 -5.99614,16.40873 -21.99207,11.61675 15.84148,9.38434 28.17434,26.32288 33.72117,67.17515 10.41039,-29.29442 5.37889,-52.52793 -11.7291,-78.7919 z" id="path3924" inkscape:connector-curvature="0" sodipodi:nodetypes="cccc"/>
      <path sodipodi:nodetypes="cscsc" inkscape:connector-curvature="0" id="path3926" d="m 540.71429,559.1479 c 0,0 -9.53143,25.95202 -20.71429,26.42857 -11.86598,0.50566 -24.28571,-26.07143 -24.28571,-26.07143 0,0 13.49847,19.21184 23.57143,18.92857 9.60593,-0.27014 21.42857,-19.28571 21.42857,-19.28571 z" style="opacity:0.44855969;fill:#ffffff;stroke:#ffffff;stroke-width:0.99572766px;stroke-linecap:butt;stroke-linejoin:miter;stroke-opacity:1"/>
      <path sodipodi:nodetypes="cccc" inkscape:connector-curvature="0" id="path3930" d="m 447.5,648.07647 c 9.44244,-32.316 18.31524,-47.05324 48.57143,-63.21429 -5.34801,-4.92019 -7.87212,-8.903 -8.92857,-15 -34.53105,28.95877 -41.24277,57.29415 -39.64286,78.21429 z" style="opacity:0.48559672;fill:#666666;stroke:none;filter:url(#filter3932)"/>
      <path sodipodi:nodetypes="ccsc" inkscape:connector-curvature="0" id="path3936" d="m 541.44176,694.76818 c 3.59417,14.06023 72.27041,17.02018 74.24622,3.53554 1.48881,-7.5753 -39.48085,-27.43197 -55.80349,-23.46811 -24.02508,5.83436 -18.44273,19.93257 -18.44273,19.93257 z" style="opacity:0.61316869;fill:#ffffff;stroke:none;filter:url(#filter3952)"/>
      <path transform="matrix(-0.96892997,0,0,1,1019.6322,-0.71428571)" style="opacity:0.61316869;fill:#ffffff;stroke:none;filter:url(#filter3952)" d="m 541.44176,694.76818 c 3.59417,14.06023 72.27041,17.02018 74.24622,3.53554 1.48881,-7.5753 -39.48085,-27.43197 -55.80349,-23.46811 -24.02508,5.83436 -18.44273,19.93257 -18.44273,19.93257 z" id="path3956" inkscape:connector-curvature="0" sodipodi:nodetypes="ccsc"/>
    </g>
  </g>
</svg>