<?xml version="1.0" encoding="UTF-8"?>
<!DOCTYPE svg PUBLIC "-//W3C//DTD SVG 1.0//EN" "http://www.w3.org/TR/2001/REC-SVG-20010904/DTD/svg10.dtd">
<!-- Creator: CorelDRAW 2018 (64 Bit) -->
<svg xmlns="http://www.w3.org/2000/svg" xml:space="preserve" width="1255px" height="2019px" version="1.0" shape-rendering="geometricPrecision" text-rendering="geometricPrecision" image-rendering="optimizeQuality" fill-rule="evenodd" clip-rule="evenodd"
viewBox="0 0 1255 2019.8"
 xmlns:xlink="http://www.w3.org/1999/xlink"
 xmlns:rdf="http://www.w3.org/1999/02/22-rdf-syntax-ns#"
 xmlns:cc="http://creativecommons.org/ns#"
 xmlns:dc="http://purl.org/dc/elements/1.1/">
 <defs>
    <linearGradient id="id0" gradientUnits="userSpaceOnUse" x1="628.24" y1="190.03" x2="844.94" y2="190.03">
     <stop offset="0" stop-opacity="1" stop-color="#7694A2"/>
     <stop offset="1" stop-opacity="0" stop-color="#7694A2"/>
    </linearGradient>
    <linearGradient id="id1" gradientUnits="userSpaceOnUse" x1="634.91" y1="626.77" x2="854.94" y2="620.1">
     <stop offset="0" stop-opacity="1" stop-color="#7694A2"/>
     <stop offset="1" stop-opacity="0" stop-color="#7694A2"/>
    </linearGradient>
 </defs>
 <g id="Camada_x0020_1">
  <metadata id="CorelCorpID_0Corel-Layer"/>
  <g id="_1813111102128">
   <path id="path4241" fill="#698999" d="M1102.24 705.68c112.51,-22.81 123.31,-402.8 0,-515.92 -46.37,-50.04 -375.59,-219.37 -897.84,-185.26 -193.48,53.65 -267.68,262.54 -119.71,410.43l176.72 128.27c-147.71,148.44 -65.82,319.97 65.56,390.49l0 151.06c-92.43,55.17 -238.47,188.51 -74.11,384.79l-162.47 119.72c-109.83,108.2 -130.77,224.17 0,353.42 128.85,107.74 429.27,87.28 669.81,31.35 223.56,-59.51 260.75,-72.74 339.78,-137.22 130.01,-127.75 94.63,-511.41 3.39,-529.22 -89.17,-23.47 -89.65,-107.38 -83.78,-206.66l0 -197.62c-13.25,-172.39 45.99,-155.52 82.66,-197.59l-0.01 -0.04z"/>
   <g>
    <path id="path4294-6-5" fill="#303432" d="M334.89 1170.52c13.2,-4.14 26.96,-6.24 40.79,-6.24 59.55,0 112.23,38.62 130.14,95.4 4.18,13.28 6.33,27.14 6.33,41.07 0,59.43 -38.48,112.06 -95.12,130.05 -13.36,4.25 -27.32,6.42 -41.35,6.42 -59.33,0 -111.86,-38.34 -129.95,-94.83 -4.3,-13.45 -6.52,-27.51 -6.52,-41.64 0,-59.22 38.2,-111.7 94.55,-129.88l1.13 -0.35zm0 0l0 0 0 0z"/>
   </g>
   <g>
    <path id="path4294-8" fill="#404643" d="M352 1167.08c13.54,-4.25 27.67,-6.4 41.87,-6.4 61.12,0 115.21,39.65 133.59,97.94 4.3,13.63 6.5,27.86 6.5,42.16 0,61.01 -39.51,115.04 -97.64,133.51 -13.72,4.36 -28.05,6.58 -42.45,6.58 -60.91,0 -114.84,-39.35 -133.41,-97.35 -4.43,-13.8 -6.69,-28.24 -6.69,-42.74 0,-60.79 39.22,-114.67 97.06,-133.33l1.17 -0.37zm0 0l0 0 0 0z"/>
   </g>
   <g>
    <path id="path4294-6" fill="#303432" d="M334.89 588.73c13.2,-4.14 26.96,-6.24 40.79,-6.24 59.55,0 112.23,38.62 130.14,95.4 4.18,13.28 6.33,27.14 6.33,41.07 0,59.43 -38.48,112.07 -95.12,130.06 -13.36,4.25 -27.32,6.41 -41.35,6.41 -59.33,0 -111.86,-38.33 -129.95,-94.83 -4.3,-13.45 -6.52,-27.51 -6.52,-41.64 0,-59.21 38.2,-111.69 94.55,-129.87l1.13 -0.36zm0 0l0 0 0 0z"/>
   </g>
   <path id="path4404-2" fill="url(#id0)" d="M644.14 131.71c29.05,-9.11 59.34,-13.73 89.77,-13.73 131.07,0 247.02,85 286.44,209.98 9.21,29.24 13.94,59.75 13.94,90.41 0,130.81 -84.71,246.65 -209.35,286.26 -29.43,9.35 -60.16,14.12 -91.04,14.12 -130.58,0 -246.28,-84.42 -286.06,-208.77 -9.47,-29.58 -14.31,-60.53 -14.31,-91.62 0,-130.33 84.08,-245.85 208.1,-285.85m2.51 -0.8l0 0 0 0z"/>
   <g>
    <path id="path4249-3" fill="#303432" d="M687.05 256.32c16.63,-5.21 33.97,-7.86 51.4,-7.86 75.06,0 141.47,48.68 164.04,120.26 5.28,16.73 7.98,34.2 7.98,51.76 0,74.91 -48.51,141.25 -119.89,163.94 -16.84,5.35 -34.44,8.08 -52.12,8.08 -74.79,0 -141.02,-48.32 -163.83,-119.54 -5.42,-16.94 -8.19,-34.67 -8.19,-52.48 0,-74.64 48.16,-140.79 119.18,-163.7l1.43 -0.46zm0 0l0 0 0 0z"/>
   </g>
   <path id="path4249" fill="#404643" d="M910.45 419.5c-0.08,-17.21 -2.81,-34.37 -7.98,-50.77 -0.62,-1.81 -1.33,-3.68 -2.03,-5.46l-110 1.77 -0.5 -108.48c-16.75,-5.28 -34.27,-7.99 -51.85,-7.99 -17.3,0 -34.57,2.62 -51.07,7.75l-0.11 0.03 -0.5 108.7 -109.99 -1.78c-6.53,18.46 -9.89,37.95 -9.89,57.54 0,17.69 2.75,35.3 8.1,52.15 0.55,1.59 1.16,3.16 1.77,4.72l110.03 -1.76 0.49 108.45c16.76,5.3 34.28,8.01 51.85,8.01 17.35,0 34.64,-2.65 51.18,-7.79l0.5 -108.66 110.05 1.75c6.57,-18.47 9.95,-38.04 9.95,-57.68 0,-0.14 0,-0.36 0,-0.5l0 0z"/>
   <g>
    <path id="path4294" fill="#404643" d="M352 585.29c13.54,-4.24 27.67,-6.4 41.87,-6.4 61.12,0 115.21,39.65 133.59,97.94 4.3,13.63 6.5,27.86 6.5,42.16 0,61.01 -39.51,115.04 -97.64,133.51 -13.72,4.36 -28.05,6.59 -42.45,6.59 -60.91,0 -114.84,-39.36 -133.41,-97.36 -4.43,-13.8 -6.69,-28.24 -6.69,-42.74 0,-60.79 39.22,-114.66 97.06,-133.32l1.17 -0.38zm0 0l0 0 0 0z"/>
   </g>
   <path id="path4404" fill="url(#id1)" d="M644.14 1313.47c29.04,-9.11 59.34,-13.73 89.77,-13.73 131.07,0 247.02,85 286.44,209.98 9.2,29.26 13.93,59.73 13.93,90.39 0,130.8 -84.71,246.65 -209.35,286.25 -29.42,9.36 -60.15,14.12 -91.03,14.12 -130.58,0 -246.28,-84.41 -286.06,-208.77 -9.46,-29.54 -14.3,-60.53 -14.3,-91.59 0,-130.33 84.08,-245.84 208.1,-285.85m2.5 -0.8l0 0 0 0z"/>
   <g>
    <path id="path4313" fill="yellow" d="M859.48 1532.8c6.45,-2.02 13.18,-3.05 19.94,-3.05 29.12,0 54.88,18.89 63.64,46.66 2.05,6.49 3.1,13.27 3.1,20.08 0,29.07 -18.82,54.8 -46.52,63.6 -6.54,2.08 -13.36,3.14 -20.22,3.14 -29.02,0 -54.71,-18.75 -63.56,-46.38 -2.1,-6.57 -3.18,-13.45 -3.18,-20.36 0,-28.96 18.68,-54.62 46.24,-63.51l0.56 -0.18zm0 0l0 0 0 0z"/>
   </g>
   <g>
    <path id="path4313-6" fill="navy" d="M707.59 1387.28c6.45,-2.02 13.18,-3.05 19.94,-3.05 29.12,0 54.88,18.89 63.64,46.65 2.05,6.5 3.1,13.28 3.1,20.09 0,29.06 -18.82,54.8 -46.52,63.6 -6.54,2.08 -13.36,3.14 -20.22,3.14 -29.02,0 -54.71,-18.75 -63.56,-46.38 -2.1,-6.58 -3.18,-13.45 -3.18,-20.36 0,-28.96 18.68,-54.62 46.24,-63.51l0.56 -0.18zm0 0l0 0 0 0z"/>
   </g>
   <g>
    <path id="path4313-1" fill="green" d="M555.7 1532.8c6.45,-2.02 13.18,-3.05 19.94,-3.05 29.12,0 54.88,18.89 63.64,46.66 2.05,6.49 3.1,13.27 3.1,20.08 0,29.07 -18.82,54.8 -46.51,63.6 -6.54,2.08 -13.37,3.14 -20.23,3.14 -29.01,0 -54.71,-18.75 -63.56,-46.38 -2.09,-6.57 -3.18,-13.45 -3.18,-20.36 0,-28.96 18.68,-54.62 46.24,-63.51l0.56 -0.18zm0 0l0 0 0 0z"/>
   </g>
   <g>
    <path id="path4313-63" fill="red" d="M707.59 1678.33c6.45,-2.03 13.18,-3.06 19.94,-3.06 29.12,0 54.88,18.89 63.64,46.66 2.05,6.5 3.1,13.27 3.1,20.09 0,29.06 -18.82,54.8 -46.52,63.6 -6.54,2.07 -13.36,3.13 -20.22,3.13 -29.02,0 -54.71,-18.74 -63.56,-46.37 -2.1,-6.58 -3.18,-13.46 -3.18,-20.37 0,-28.95 18.68,-54.62 46.24,-63.51l0.56 -0.17zm0 0l0 0 0 0z"/>
   </g>
   <path id="path4343" fill="#404643" d="M1183.67 1508.37l51.01 12.03c22.02,7.26 24.79,104.45 -10.59,141.02l-60.16 58.06c17.54,-63.2 24.55,-134.51 19.73,-211.11l0.01 0z"/>
   <path id="path4343-1" fill="#404643" d="M1190.27 504.98l48.4 -12.04c22.02,-7.26 24.79,-104.44 -10.59,-141.02l-63.88 -57.67c13.95,66.98 27.22,122.2 26.07,210.72l0 0.01z"/>
   <path fill="#404643" d="M731.19 1162.37l0 39.14c0,17.37 -14.09,31.46 -31.46,31.46l-4.61 0c-17.37,0 -31.46,-14.09 -31.46,-31.46l0 -39.14c0,-17.37 14.09,-31.46 31.46,-31.46l4.61 0c17.37,0 31.46,14.09 31.46,31.46z"/>
   <path fill="#404643" d="M731.19 821.09l0 39.13c0,17.38 -14.09,31.47 -31.46,31.47l-4.61 0c-17.37,0 -31.46,-14.09 -31.46,-31.46l0 -39.14c0,-17.38 14.09,-31.46 31.46,-31.46l4.61 -0.01c17.37,0.01 31.46,14.09 31.46,31.47z"/>
   <path fill="#404643" d="M912.98 1203.04l0 39.14c0,17.37 -14.09,31.46 -31.46,31.46l-4.6 0c-17.38,0 -31.47,-14.09 -31.47,-31.46l0 -39.14c0,-17.37 14.09,-31.46 31.46,-31.46l4.61 0c17.37,0 31.46,14.09 31.46,31.46z"/>
   <path fill="#404643" d="M912.98 779.65l0 39.13c0,17.38 -14.09,31.47 -31.46,31.47l-4.6 0c-17.38,0 -31.47,-14.09 -31.47,-31.46l0 -39.14c0,-17.37 14.09,-31.46 31.46,-31.46l4.61 -0.01c17.37,0.01 31.46,14.1 31.46,31.47z"/>
   <path id="path4438" fill="#404643" d="M105.13 1900.93c58.89,-18.32 101.2,-23.72 185.32,-23.66 110.11,0.07 166.46,11.66 251.02,51.63 42.9,20.28 87.62,36.08 120.81,42.69l52.68 10.49 -41.18 7.76c-208.97,39.36 -414.9,33.96 -523.05,-13.7 -30.88,-13.62 -78.86,-50.15 -78.86,-60.06 0,-2.65 14.97,-9.47 33.27,-15.16l-0.01 0.01z"/>
   <path id="path4440" fill="#404643" d="M102.86 56.77c62.08,-45.57 80.64,-50.52 199.33,-53.22 58.74,-1.33 144.27,0.85 190.08,4.85 92.84,8.1 215.24,25.75 210.62,30.37 -1.65,1.65 -23.11,6.83 -47.68,11.51 -24.58,4.69 -75,21.72 -112.05,37.85 -37.06,16.14 -86.27,33.34 -109.36,38.24 -54.28,11.5 -176.91,11.59 -236.26,0.17 -48.88,-9.4 -116.8,-32.48 -122.44,-41.59 -1.82,-2.95 10.67,-15.63 27.77,-28.18l-0.01 0z"/>
  </g>
 </g>
</svg>
