<?xml version="1.0" encoding="UTF-8" standalone="no"?>
<!-- Generator: Adobe Illustrator 19.0.0, SVG Export Plug-In . SVG Version: 6.00 Build 0)  -->

<svg
   xmlns:dc="http://purl.org/dc/elements/1.1/"
   xmlns:cc="http://creativecommons.org/ns#"
   xmlns:rdf="http://www.w3.org/1999/02/22-rdf-syntax-ns#"
   xmlns:svg="http://www.w3.org/2000/svg"
   xmlns="http://www.w3.org/2000/svg"
   xmlns:sodipodi="http://sodipodi.sourceforge.net/DTD/sodipodi-0.dtd"
   xmlns:inkscape="http://www.inkscape.org/namespaces/inkscape"
   version="1.1"
   id="Ebene_1"
   sodipodi:docname="logo.svg"
   inkscape:version="0.92.4 (5da689c313, 2019-01-14)"
   x="0px"
   y="0px"
   viewBox="-22 283.2 566.9 226.8"
   xml:space="preserve"><metadata
   id="metadata8"><rdf:RDF><cc:Work
       rdf:about=""><dc:format>image/svg+xml</dc:format><dc:type
         rdf:resource="http://purl.org/dc/dcmitype/StillImage" /></cc:Work></rdf:RDF></metadata><defs
   id="defs6" />
<sodipodi:namedview
   inkscape:cy="113.4"
   inkscape:cx="252.64624"
   borderopacity="1"
   pagecolor="#ffffff"
   gridtolerance="10"
   objecttolerance="10"
   bordercolor="#666666"
   id="namedview4058"
   guidetolerance="10"
   inkscape:zoom="2.2526018"
   showgrid="false"
   inkscape:window-y="-9"
   inkscape:pageopacity="0"
   inkscape:window-x="-9"
   inkscape:window-height="1001"
   inkscape:window-width="1920"
   inkscape:pageshadow="2"
   inkscape:snap-grids="false"
   inkscape:current-layer="Ebene_1"
   inkscape:window-maximized="1">
	<inkscape:grid
   type="xygrid"
   id="grid3869"
   snapvisiblegridlinesonly="true"
   enabled="true"
   empspacing="5"
   visible="true">
		</inkscape:grid>
</sodipodi:namedview>

<g
   id="g867"><g
   aria-label="PC"
   style="font-style:normal;font-weight:normal;font-size:81.15274811px;line-height:1.25;font-family:sans-serif;letter-spacing:0px;word-spacing:0px;fill:#000000;fill-opacity:1;stroke:none;stroke-width:2.02881861"
   id="text853"
   transform="matrix(1.5518105,0,0,1.5518105,6.7505819,-215.48794)"><path
     d="m 26.36159,348.27013 q 0,3.92291 -1.386887,7.29107 -1.347263,3.32853 -3.804035,5.7853 -3.051154,3.05116 -7.211817,4.59655 -4.1606633,1.50576 -10.5007217,1.50576 H -4.387693 v 21.99208 h -7.845822 V 330.43872 H 3.7751322 q 5.309799,0 8.9949578,0.91138 3.685159,0.87176 6.538185,2.77378 3.368156,2.25864 5.190923,5.6268 1.862392,3.36816 1.862392,8.51945 z m -8.162825,0.19813 q 0,-3.05115 -1.069885,-5.3098 -1.069885,-2.25865 -3.24928,-3.68516 -1.902017,-1.22838 -4.3587898,-1.74351 -2.4171473,-0.55476 -6.1419316,-0.55476 H -4.387693 v 23.57709 h 6.617436 q 4.7550438,0 7.7269462,-0.83213 2.9719028,-0.87176 4.8342948,-2.73415 1.862392,-1.90202 2.615274,-4.00216 0.792507,-2.10015 0.792507,-4.71542 z"
     style="fill:#000000;stroke-width:2.02881861"
     id="path835"
     inkscape:connector-curvature="0" /><path
     d="m 82.312606,385.16135 q -2.179395,0.95101 -3.962536,1.78314 -1.743516,0.83213 -4.596543,1.74352 -2.417147,0.75288 -5.270173,1.26801 -2.813401,0.55475 -6.221183,0.55475 -6.419309,0 -11.689482,-1.78314 -5.230548,-1.82277 -9.113834,-5.66643 -3.804035,-3.76441 -5.943805,-9.54971 -2.13977,-5.82493 -2.13977,-13.51225 0,-7.29107 2.060519,-13.03674 2.060519,-5.74568 5.943805,-9.70822 3.76441,-3.84366 9.074209,-5.86455 5.349424,-2.0209 11.847984,-2.0209 4.755044,0 9.470462,1.14914 4.755044,1.14913 10.540347,4.04179 v 9.31196 h -0.59438 q -4.87392,-4.08142 -9.668589,-5.94381 -4.794669,-1.86239 -10.26297,-1.86239 -4.477666,0 -8.083574,1.46614 -3.566283,1.42651 -6.379684,4.47767 -2.73415,2.9719 -4.27954,7.52881 -1.505764,4.5173 -1.505764,10.4611 0,6.22118 1.664266,10.69885 1.70389,4.47767 4.35879,7.29107 2.773776,2.93227 6.458935,4.35879 3.724784,1.38688 7.845822,1.38688 5.666427,0 10.619598,-1.94164 4.95317,-1.94164 9.272335,-5.82493 h 0.554755 z"
     style="fill:#000000;stroke-width:2.02881861"
     id="path837"
     inkscape:connector-curvature="0" /></g>
<g
   aria-label="G A M E S"
   style="font-style:normal;font-weight:normal;font-size:142.31976318px;line-height:1.25;font-family:sans-serif;letter-spacing:0px;word-spacing:0px;fill:#000000;fill-opacity:1;stroke:none;stroke-width:3.55799389"
   id="text860"><path
     d="m 50.611071,505.43315 -5.420381,1.45933 -5.072921,-5.42038 q -4.516985,2.77968 -9.450922,4.10003 -4.933937,1.32035 -11.327208,1.32035 -17.5814941,0 -26.4764793,-12.02213 -8.8949857,-12.09162 -8.8949857,-35.85791 0,-14.80181 4.864446,-25.99003 4.8644445,-11.18822 13.967906,-17.16454 9.103461,-6.04581 21.403558,-6.04581 6.462763,0 12.439081,0.76441 5.976318,0.69492 13.272986,2.50172 v 19.11032 h -6.879715 q -1.876286,-6.25429 -4.447493,-9.7289 -2.571207,-3.54409 -6.184794,-5.00342 -3.544096,-1.52883 -9.03397,-1.52883 -7.574636,0 -13.272985,4.86445 -5.6983504,4.86444 -8.8949857,14.38485 -3.1271432,9.45093 -3.1271432,22.8629 0,13.62044 2.64069871,23.27984 2.71019079,9.6594 7.99158829,14.59333 5.2813979,4.86445 12.9950179,4.86445 8.200064,0 12.161112,-3.5441 3.961048,-3.61358 3.961048,-11.04924 v -4.16952 q 0,-6.25429 -0.694921,-9.03397 -0.625428,-2.77968 -2.293238,-4.30851 -1.66781,-1.52882 -5.489874,-2.50171 v -3.40511 h 28.074797 v 3.40511 q -2.501714,0.8339 -3.752571,1.94578 -1.250858,1.04238 -1.945778,2.64069 -0.625429,1.59832 -0.903397,3.96105 -0.208477,2.29324 -0.208477,6.60175 z"
     style="font-style:normal;font-variant:normal;font-weight:normal;font-stretch:normal;font-family:Cambria;-inkscape-font-specification:Cambria;fill:#000000;stroke-width:3.55799389"
     id="path840"
     inkscape:connector-curvature="0" /><path
     d="m 149.4288,505.78061 v -3.40511 q 3.4746,-0.69492 5.14241,-1.52883 1.7373,-0.8339 2.57121,-2.29324 0.8339,-1.52882 0.8339,-4.03054 0,-2.36273 -0.55593,-5.07292 -0.55594,-2.77968 -1.59832,-6.18479 l -2.57121,-8.96448 h -32.3833 l -2.36274,6.81022 q -1.80679,5.14242 -2.36273,7.78312 -0.55593,2.64069 -0.55593,4.79495 0,4.16952 2.08476,6.1153 2.15425,1.94578 6.53225,2.57121 v 3.40511 H 94.53006 v -3.40511 q 3.891556,-0.62543 6.74073,-4.51699 2.91867,-3.89155 5.62886,-11.11873 l 28.97819,-76.92772 h 10.97975 l 23.6273,77.48366 q 1.66781,5.42038 2.91867,8.26955 1.32035,2.84918 3.12714,4.4475 1.8068,1.59831 4.93394,2.36273 v 3.40511 z m -26.68496,-37.52572 h 29.04769 l -13.2035,-44.82239 z"
     style="font-style:normal;font-variant:normal;font-weight:normal;font-stretch:normal;font-family:Cambria;-inkscape-font-specification:Cambria;fill:#000000;stroke-width:3.55799389"
     id="path842"
     inkscape:connector-curvature="0" /><path
     d="m 321.83863,414.32904 q -3.05765,0.76442 -4.44749,1.52883 -1.32035,0.76441 -2.15425,1.94578 -0.76442,1.11187 -1.18137,3.40511 -0.34746,2.29324 -0.34746,7.08819 v 60.11064 q 0,4.65597 0.27797,6.81022 0.34746,2.15426 1.04238,3.40512 0.76441,1.25085 2.15425,2.08476 1.45934,0.8339 4.65597,1.66781 v 3.40511 h -28.97819 v -3.40511 q 3.96105,-0.97289 5.48987,-2.22375 1.52883,-1.25086 2.08476,-3.68308 0.55594,-2.43222 0.55594,-8.06108 v -26.61546 q 0,-10.49331 0.27797,-21.19508 0.34746,-10.77128 0.76441,-14.73232 h -1.18136 l -27.51886,68.86664 h -7.99159 L 239.7685,424.75285 h -1.18137 q 0.34746,4.23902 0.62543,15.35775 0.34746,11.11873 0.34746,22.86289 v 25.4341 q 0,4.65597 0.27797,6.81022 0.34746,2.15426 1.04238,3.40512 0.76441,1.25085 2.15425,2.08476 1.45934,0.8339 4.65597,1.66781 v 3.40511 h -25.3646 v -3.40511 q 4.3085,-1.11188 5.76784,-2.43222 1.45933,-1.38985 1.87628,-3.89156 0.48645,-2.50172 0.48645,-7.64413 v -60.11064 q 0,-4.79495 -0.34746,-6.94921 -0.34746,-2.22374 -1.18137,-3.40511 -0.76441,-1.25086 -2.08476,-1.94578 -1.32035,-0.76441 -4.51698,-1.66781 v -3.40511 h 24.80867 l 24.39171,67.61579 26.82394,-67.61579 h 23.48832 z"
     style="font-style:normal;font-variant:normal;font-weight:normal;font-stretch:normal;font-family:Cambria;-inkscape-font-specification:Cambria;fill:#000000;stroke-width:3.55799389"
     id="path844"
     inkscape:connector-curvature="0" /><path
     d="m 435.18021,410.92393 v 20.98661 h -6.81023 q -1.04238,-3.40511 -2.15425,-5.97632 -1.11187,-2.57121 -2.29324,-4.30851 -1.18136,-1.7373 -2.6407,-2.77968 -1.38984,-1.04238 -3.33562,-1.38984 -1.94577,-0.41696 -4.65597,-0.41696 h -21.95949 v 36.41385 h 14.8713 q 3.05765,0 4.79496,-0.83391 1.7373,-0.90339 2.84917,-2.98815 1.18137,-2.08477 2.22375,-6.53226 h 6.53225 v 26.68496 h -6.53225 q -0.97289,-4.16953 -2.15426,-6.25429 -1.18136,-2.15425 -2.84917,-3.05765 -1.59832,-0.9034 -4.86445,-0.9034 h -14.8713 v 40.09693 h 21.61203 q 3.40512,0 5.48988,-0.55594 2.15425,-0.62543 3.68308,-2.01527 1.52882,-1.45933 2.71019,-3.75257 1.18136,-2.29324 1.94578,-4.72546 0.8339,-2.50172 2.22374,-7.22718 h 6.87972 l -1.32035,24.39172 h -64.34966 v -3.40511 q 4.30851,-1.11188 5.76784,-2.43222 1.45934,-1.38985 1.87629,-3.89156 0.48644,-2.50172 0.48644,-7.64413 v -60.11064 q 0,-4.79495 -0.34746,-6.94921 -0.34746,-2.22374 -1.18136,-3.40511 -0.76442,-1.25086 -2.08477,-1.94578 -1.32034,-0.76441 -4.51698,-1.66781 v -3.40511 z"
     style="font-style:normal;font-variant:normal;font-weight:normal;font-stretch:normal;font-family:Cambria;-inkscape-font-specification:Cambria;fill:#000000;stroke-width:3.55799389"
     id="path846"
     inkscape:connector-curvature="0" /><path
     d="m 489.93994,484.16857 q 1.38984,6.11531 3.75257,9.6594 2.36273,3.5441 6.1153,5.2814 3.75258,1.66781 9.6594,1.66781 8.13057,0 12.43908,-4.23902 4.378,-4.23901 4.378,-12.36959 0,-5.2119 -1.80679,-8.756 -1.80679,-3.54409 -5.90683,-6.67124 -4.10003,-3.12714 -12.50857,-7.29666 -8.13057,-4.03054 -12.85603,-7.85261 -4.72546,-3.89155 -7.08819,-8.40854 -2.29324,-4.51698 -2.29324,-9.86787 0,-7.78311 3.61359,-13.48146 3.68308,-5.76785 10.70177,-8.89499 7.0882,-3.12714 16.19166,-3.12714 5.28139,0 10.28482,0.55593 5.07292,0.55594 12.64756,2.50172 v 18.76286 h -6.87971 q -1.59832,-6.1153 -4.03054,-9.52042 -2.43223,-3.40511 -5.69835,-4.72546 -3.26613,-1.38984 -8.47804,-1.38984 -4.51698,0 -8.13057,1.66781 -3.5441,1.66781 -5.62886,5.07292 -2.08476,3.33562 -2.08476,7.99159 0,4.93394 1.7373,8.33905 1.8068,3.40511 5.55937,6.32378 3.75257,2.91867 11.11873,6.53225 8.89498,4.4475 13.75943,8.26956 4.93394,3.82206 7.64413,8.756 2.77968,4.86445 2.77968,11.3967 0,7.29667 -2.29324,12.36959 -2.29324,5.00343 -6.39327,8.20006 -4.03054,3.12715 -9.72889,4.58648 -5.62886,1.38984 -12.36959,1.38984 -10.91025,0 -25.15613,-3.68308 v -19.04083 z"
     style="font-style:normal;font-variant:normal;font-weight:normal;font-stretch:normal;font-family:Cambria;-inkscape-font-specification:Cambria;fill:#000000;stroke-width:3.55799389"
     id="path848"
     inkscape:connector-curvature="0" /></g>
</g><g
   id="g3479"
   transform="matrix(0.7305585,0,0,0.7305585,157.41853,323.55593)"
   style="display:inline"
   inkscape:label="TUX"><path
     class="fil0"
     d="m 335.06001,45.852046 h 32.89336 v 5.492998 h -2.26182 c -1.35709,0 -2.52032,0.129247 -3.61892,0.452365 -0.64623,0.19387 -1.16322,0.516988 -1.61558,1.033976 -0.38775,0.452365 -0.58162,0.969353 -0.58162,1.357094 0,1.033976 0.84011,2.520317 2.4557,4.523645 l 9.30578,11.761479 10.92138,-11.761479 c 2.06795,-2.132575 3.0373,-3.812787 3.0373,-4.911386 0,-0.775482 -0.38774,-1.357094 -1.03397,-1.809459 -0.71086,-0.452364 -2.1972,-0.646235 -4.52365,-0.646235 h -2.45569 v -5.492998 h 27.85273 v 5.492998 c -2.71419,0.129247 -5.10526,0.710859 -7.04396,1.680212 -2.00333,1.033976 -4.3944,2.908058 -7.04397,5.686868 l -14.99265,15.574266 18.67619,21.196512 0.71086,0.969352 c 1.80946,2.326447 3.87741,4.200526 6.13924,5.686866 1.22784,0.77549 3.23117,1.22785 5.88074,1.29247 v 5.493 h -32.11789 v -5.493 h 2.77881 c 2.06795,0 3.42505,-0.12924 4.00666,-0.38774 0.90473,-0.45236 1.42172,-1.16322 1.42172,-2.1972 0,-0.96935 -1.0986,-2.778808 -3.16656,-5.363748 l -11.89072,-14.54029 -13.24782,14.54029 -1.29247,1.615587 -0.71086,0.775483 c -1.0986,1.163223 -1.68021,2.197198 -1.68021,3.101928 0,0.84011 0.32312,1.48634 1.03398,1.87408 0.64623,0.38774 2.19719,0.58161 4.52364,0.58161 h 2.64956 v 5.493 h -27.52961 v -5.493 c 2.13258,-0.0646 3.81279,-0.25849 5.04063,-0.71086 1.16323,-0.38774 2.39107,-1.03397 3.48967,-1.87408 2.00333,-1.615585 3.36043,-2.843431 4.26515,-3.748161 L 364.4637,77.388319 348.17858,58.712124 c -2.00333,-2.326446 -3.61892,-3.942034 -4.84676,-4.846763 -1.16323,-0.904729 -2.39107,-1.615588 -3.48967,-1.938705 -1.16323,-0.387741 -2.71419,-0.581612 -4.78214,-0.581612 z m -92.08851,0 24.75081,-0.969353 v 42.069905 c 0,3.68354 0.51699,6.656222 1.55096,8.853421 0.96936,2.132576 2.58494,3.812787 4.6529,5.040631 2.13257,1.16323 4.58827,1.80946 7.4317,1.80946 3.48967,0 7.4317,-0.96935 11.89073,-2.843433 4.39439,-1.874082 8.78879,-4.652893 13.18319,-8.336433 V 61.038571 c 0,-3.231176 -0.19387,-5.363751 -0.71086,-6.397728 -0.45236,-0.969352 -1.35709,-1.809458 -2.52031,-2.39107 -1.22785,-0.581611 -3.16656,-0.904729 -5.7515,-0.904729 h -4.78214 v -5.492998 l 24.75081,-0.969353 V 93.60882 c 0,3.166552 0.25849,5.299128 0.77548,6.52697 0.58161,1.16323 1.35709,2.00333 2.32645,2.52032 1.03397,0.51699 3.10193,0.77548 6.20385,0.77548 h 2.00333 v 5.493 l -21.64887,1.0986 V 97.938595 c -6.00999,4.782135 -11.17987,8.013315 -15.63889,9.822775 -4.45902,1.80946 -8.98267,2.71419 -13.57094,2.71419 -3.36042,0 -6.3331,-0.45237 -8.85342,-1.3571 -2.45569,-0.90473 -4.71752,-2.32644 -6.5916,-4.1359 -1.87408,-1.80946 -3.36042,-4.00666 -4.32977,-6.5916 -1.03398,-2.584941 -1.48634,-5.299128 -1.48634,-8.207186 V 60.392336 c 0,-2.649564 -0.2585,-4.459022 -0.71086,-5.557622 -0.51699,-1.033976 -1.29247,-1.938705 -2.39107,-2.584941 -1.0986,-0.581611 -2.64957,-0.904729 -4.58827,-0.904729 h -5.94537 z m -80.0039,9.435032 V 49.79408 c 3.87741,-0.452364 6.78547,-0.969353 8.72417,-1.615588 1.87408,-0.581611 4.6529,-1.874081 8.27181,-3.87741 h 4.71752 v 12.407714 c 5.75149,-4.846764 10.66288,-8.142563 14.73416,-9.822774 4.07128,-1.744835 8.20718,-2.58494 12.34309,-2.58494 3.61892,0 6.78547,0.581611 9.49966,1.744835 2.77881,1.227846 5.04063,2.908057 6.72084,4.911386 1.68021,2.003329 2.84343,4.394399 3.42505,6.979339 0.32311,1.615588 0.51698,4.071281 0.51698,7.302457 v 28.757462 c 0,3.425046 0.2585,5.686869 0.77549,6.656219 0.45236,0.96936 1.29247,1.68021 2.39107,2.13258 1.03397,0.38774 3.74816,0.64623 8.01331,0.64623 v 5.493 H 209.4319 v -5.493 h 1.87408 c 3.10193,0 5.23451,-0.32311 6.39773,-0.8401 1.0986,-0.58161 1.93871,-1.42172 2.4557,-2.52032 0.45236,-1.033975 0.71085,-3.295798 0.71085,-6.656221 V 69.375004 c 0,-4.976011 -0.38774,-8.401057 -1.22784,-10.339762 -0.77548,-1.874082 -2.13258,-3.48967 -4.07128,-4.652893 -1.93871,-1.163223 -4.3944,-1.809458 -7.36708,-1.809458 -3.5543,0 -7.30246,0.904729 -11.30912,2.714187 -4.00666,1.809459 -7.88407,4.459023 -11.63223,8.013316 v 30.114555 c 0,3.360423 0.25849,5.686869 0.71086,6.785471 0.51699,1.16322 1.42172,2.00333 2.45569,2.58494 0.77548,0.38774 2.90806,0.64623 6.33311,0.64623 h 1.87408 v 5.493 H 162.9676 v -5.493 h 1.61559 c 3.2958,0 5.493,-0.32311 6.65622,-0.8401 1.16322,-0.51699 2.00333,-1.55097 2.45569,-2.90806 0.2585,-0.646235 0.38774,-3.101929 0.38774,-7.17321 V 55.287078 Z M 17.435455,17.740819 h 35.34906 v 5.557622 h -3.231176 c -2.520317,0 -4.329775,0.258494 -5.363751,0.710859 -1.033976,0.516988 -1.809458,1.163223 -2.261823,2.132575 -0.516988,0.90473 -0.710859,2.520317 -0.710859,4.911387 v 63.524911 c 0,2.908057 0.06462,4.652892 0.323118,5.234504 0.258494,0.775483 0.840106,1.357093 1.680211,1.744833 0.581612,0.2585 2.39107,0.38774 5.299128,0.38774 h 4.911387 c 5.622245,0 10.469008,-0.8401 14.604913,-2.455691 4.135905,-1.680211 7.754821,-4.006657 10.727503,-7.173209 2.972681,-3.101929 5.880739,-7.754822 8.65955,-13.894055 L 93.303456,80.361 83.092941,108.92459 H 17.435455 v -5.493 h 2.908058 c 2.778811,0 4.652892,-0.25849 5.622245,-0.71086 0.969353,-0.51698 1.680211,-1.29247 2.197199,-2.39107 0.516989,-1.098595 0.775483,-3.0373 0.775483,-5.751487 V 32.604226 c 0,-3.166552 -0.193871,-5.234504 -0.710859,-6.333104 C 27.775216,25.237146 27.064358,24.461664 26.159629,24.0093 25.2549,23.556935 23.316194,23.298441 20.343513,23.298441 h -2.908058 z m 93.445595,89.051201 c -3.2958,1.35709 -7.30246,2.06795 -12.084596,2.13257 18.676196,-7.81944 -14.863407,-68.371672 38.838726,-95.384299 -4.32977,25.397039 12.86008,34.121213 11.37374,55.059231 -1.0986,15.703512 0.71086,26.818756 8.40106,39.743458 -15.50964,-6.26848 -28.88671,-6.5916 -46.52893,-1.55096 z m 4.78214,-2.64957 c 14.79878,-9.305783 26.1079,-8.918042 40.90668,3.42505 C 142.93431,94.513549 145.39,76.160472 145.58388,68.534898 146.29473,44.947317 128.13553,39.454319 137.31207,13.928032 113.98298,26.59424 139.44464,86.694104 115.66319,104.14245 Z"
     id="path13"
     inkscape:connector-curvature="0"
     style="fill-rule:evenodd" /><g
     id="g3406"
     transform="matrix(0.40930534,0,0,0.40930534,-195.76453,96.435937)"><path
       style="fill:#000000;fill-opacity:1;stroke:none"
       d="m 919.01497,-249.59771 c 0,61.07469 -55.52879,110.58552 -124.02701,110.58552 -34.06753,0 -64.92697,-12.2468 -87.34261,-32.07208 -22.65461,-20.03663 -36.68441,-47.81418 -36.68441,-78.51344 0,-61.0747 55.52879,-110.58552 124.02702,-110.58552 68.49822,0 124.02701,49.51082 124.02701,110.58552 z"
       id="path4205"
       inkscape:connector-curvature="0"
       sodipodi:nodetypes="ssssss" /><g
       transform="matrix(7.5635306,0,0,7.5635306,611.38805,-442.22649)"
       id="g5056-2-7-6"
       inkscape:export-filename="/Users/mdespont/Desktop/recherche en cours/kong/path5090.png"
       inkscape:export-xdpi="1256.7957"
       inkscape:export-ydpi="1256.7957"><g
         id="g5058-1-5-0"
         transform="matrix(0.41061481,0,0,0.41061481,37.955384,10.947249)"><circle
           transform="matrix(0.17771062,0,0,0.17771062,-42.905099,-80.331303)"
           id="path5060-6-7-9"
           style="fill:#ffffff;fill-opacity:1;stroke:none"
           cx="120"
           cy="592.36218"
           r="57.142857" /><circle
           style="fill:#000000;fill-opacity:1;stroke:#000000;stroke-width:0.1;stroke-linejoin:miter;stroke-miterlimit:4;stroke-dasharray:none;stroke-opacity:1"
           id="path5062-8-8-5"
           transform="matrix(0.11892134,0,0,0.13545904,-35.976303,-55.557543)"
           cx="120"
           cy="592.36218"
           r="57.142857" /><circle
           transform="matrix(0.04452845,0,0,0.04452845,-26.133566,-5.6169532)"
           id="path5064-5-2-8"
           style="fill:#ffffff;fill-opacity:1;stroke:#000000;stroke-width:0.1;stroke-linejoin:miter;stroke-miterlimit:4;stroke-dasharray:none;stroke-opacity:1"
           cx="120"
           cy="592.36218"
           r="57.142857" /></g><g
         transform="matrix(0.41061481,0,0,0.41061481,28.219551,10.947249)"
         id="g5066-7-7-9"><circle
           style="fill:#ffffff;fill-opacity:1;stroke:none"
           id="path5068-6-8-0"
           transform="matrix(0.17771062,0,0,0.17771062,-42.905099,-80.331303)"
           cx="120"
           cy="592.36218"
           r="57.142857" /><circle
           transform="matrix(0.11892134,0,0,0.13545904,-35.976303,-55.557543)"
           id="path5070-1-0-0"
           style="fill:#000000;fill-opacity:1;stroke:#000000;stroke-width:0.1;stroke-linejoin:miter;stroke-miterlimit:4;stroke-dasharray:none;stroke-opacity:1"
           cx="120"
           cy="592.36218"
           r="57.142857" /><circle
           style="fill:#ffffff;fill-opacity:1;stroke:#000000;stroke-width:0.1;stroke-linejoin:miter;stroke-miterlimit:4;stroke-dasharray:none;stroke-opacity:1"
           id="path5072-8-2-0"
           transform="matrix(0.04452845,0,0,0.04452845,-26.133566,-5.6169532)"
           cx="120"
           cy="592.36218"
           r="57.142857" /></g></g><g
       id="g4921"
       transform="matrix(1.49991,-0.13069951,0.13069951,1.49991,-144.60082,234.9424)"><path
         inkscape:connector-curvature="0"
         sodipodi:nodetypes="csssss"
         id="path3656"
         d="m 597.88212,-264.91731 c 4.03157,-4.3589 27.74905,-9.89642 54.34753,-5.75744 23.84372,3.71034 47.10537,13.84958 49.68448,24.43567 1.88653,7.74324 -18.57914,37.47635 -47.92901,37.52585 -35.56236,0.0599 -57.72043,-34.78682 -58.59499,-41.06869 -0.69673,-5.00491 -2.26255,-9.99476 2.49199,-15.13539 z"
         style="display:inline;fill:#ecb63a;fill-opacity:1;stroke:#9e720b;stroke-width:1.71652818;stroke-linecap:butt;stroke-linejoin:miter;stroke-miterlimit:4;stroke-dasharray:none;stroke-opacity:1" /><path
         inkscape:connector-curvature="0"
         sodipodi:nodetypes="cscssc"
         id="path3658"
         d="m 602.84741,-252.32286 c 21.894,17.46754 21.14664,16.47059 29.99361,18.87556 13.07393,3.55394 29.29344,4.51074 44.11604,3.50329 0,0 -10.86491,6.96965 -22.17797,6.90738 -5.4482,-0.0296 -15.09887,-1.454 -20.85324,-4.15344 -15.01603,-7.04425 -27.61156,-19.86262 -31.07844,-25.13279 z"
         style="display:inline;fill:#876108;fill-opacity:1;stroke:none" /></g></g></g></svg>