<?xml version="1.0" encoding="UTF-8" standalone="no"?>
<svg
   xmlns:dc="http://purl.org/dc/elements/1.1/"
   xmlns:cc="http://creativecommons.org/ns#"
   xmlns:rdf="http://www.w3.org/1999/02/22-rdf-syntax-ns#"
   xmlns:svg="http://www.w3.org/2000/svg"
   xmlns="http://www.w3.org/2000/svg"
   viewBox="0 0 493.06 504.04999"
   height="504.04999"
   width="493.06"
   xml:space="preserve"
   version="1.1"
   id="svg2"><metadata
     id="metadata8"><rdf:RDF><cc:Work
         rdf:about=""><dc:format>image/svg+xml</dc:format><dc:type
           rdf:resource="http://purl.org/dc/dcmitype/StillImage" /><dc:title></dc:title></cc:Work></rdf:RDF></metadata><defs
     id="defs6"><clipPath
       id="clipPath16"
       clipPathUnits="userSpaceOnUse"><path
         id="path18"
         d="m 0,403.24 394.448,0 L 394.448,0 0,0 0,403.24 Z" /></clipPath></defs><g
     transform="matrix(1.25,0,0,-1.25,0,504.05)"
     id="g10"><g
       id="g12"><g
         clip-path="url(#clipPath16)"
         id="g14"><g
           transform="translate(8.391,0)"
           id="g20"><path
             id="path22"
             style="fill:#3a3742;fill-opacity:1;fill-rule:evenodd;stroke:none"
             d="m 0,0 c -7.527,0 -8.391,4.572 -8.391,8.624 l 0,390.587 c 0,4.141 3.357,4.028 12.442,4.028 l 369.564,0 c 9.085,0 12.442,0.113 12.442,-4.028 l 0,-390.587 C 386.057,4.572 385.193,0 377.666,0 L 0,0 Z" /></g><g
           transform="translate(0,160.4541)"
           id="g24"><path
             id="path26"
             style="fill:#181221;fill-opacity:1;fill-rule:evenodd;stroke:none"
             d="m 0,0 c 0,15.891 3.253,19.809 11.835,19.809 l 370.965,0 c 8.582,0 11.648,-3.918 11.648,-19.809 C 394.448,0 0,-0.073 0,0" /></g><g
           transform="translate(0.187,346.9384)"
           id="g28"><path
             id="path30"
             style="fill:#2a2733;fill-opacity:1;fill-rule:evenodd;stroke:none"
             d="m 0,0 0,52.273 c 0,4.14 3.357,4.028 12.442,4.028 l 369.377,0 c 9.085,0 12.442,0.112 12.442,-4.028 L 394.261,0 0,0 Z" /></g><g
           transform="translate(379.1743,7.6283)"
           id="g32"><path
             id="path34"
             style="fill:#3f3e4a;fill-opacity:1;fill-rule:evenodd;stroke:none"
             d="m 0,0 c 3.615,0 6.546,2.931 6.546,6.546 l 0,139.754 c 0,3.616 -2.931,6.547 -6.546,6.547 l -363.714,0 c -3.615,0 -6.546,-2.931 -6.546,-6.547 l 0,-139.754 c 0,-3.615 2.931,-6.546 6.546,-6.546 L 0,0 Z" /></g><g
           transform="translate(379.1743,7.6283)"
           id="g36"><path
             id="path38"
             style="fill:none;stroke:#0e0e10;stroke-width:1.278;stroke-linecap:butt;stroke-linejoin:miter;stroke-miterlimit:10;stroke-dasharray:none;stroke-opacity:1"
             d="m 0,0 c 3.615,0 6.546,2.931 6.546,6.546 l 0,139.754 c 0,3.616 -2.931,6.547 -6.546,6.547 l -363.714,0 c -3.615,0 -6.546,-2.931 -6.546,-6.547 l 0,-139.754 c 0,-3.615 2.931,-6.546 6.546,-6.546 L 0,0 Z" /></g><g
           transform="translate(50.8259,78.6681)"
           id="g40"><path
             id="path42"
             style="fill:#afacb3;fill-opacity:1;fill-rule:evenodd;stroke:none"
             d="m 0,0 21.571,0 c 1.24,0 2.245,-1.005 2.245,-2.245 l 0,-15.426 c 0,-1.24 -1.005,-2.245 -2.245,-2.245 l -21.571,0 c -1.24,0 -2.244,1.005 -2.244,2.245 l 0,15.426 C -2.244,-1.005 -1.24,0 0,0" /></g><g
           transform="translate(84.1178,78.6692)"
           id="g44"><path
             id="path46"
             style="fill:#afacb3;fill-opacity:1;fill-rule:evenodd;stroke:none"
             d="m 0,0 21.574,0 c 1.239,0 2.244,-1.005 2.244,-2.244 l 0,-15.431 c 0,-1.24 -1.005,-2.245 -2.244,-2.245 L 0,-19.92 c -1.24,0 -2.244,1.005 -2.244,2.245 l 0,15.431 C -2.244,-1.005 -1.24,0 0,0" /></g><g
           transform="translate(117.4108,78.6692)"
           id="g48"><path
             id="path50"
             style="fill:#afacb3;fill-opacity:1;fill-rule:evenodd;stroke:none"
             d="m 0,0 21.574,0 c 1.239,0 2.244,-1.005 2.244,-2.244 l 0,-15.431 c 0,-1.24 -1.005,-2.245 -2.244,-2.245 L 0,-19.92 c -1.24,0 -2.245,1.005 -2.245,2.245 l 0,15.431 C -2.245,-1.005 -1.24,0 0,0" /></g><g
           transform="translate(150.7039,78.6692)"
           id="g52"><path
             id="path54"
             style="fill:#afacb3;fill-opacity:1;fill-rule:evenodd;stroke:none"
             d="m 0,0 21.574,0 c 1.239,0 2.244,-1.005 2.244,-2.244 l 0,-15.431 c 0,-1.24 -1.005,-2.245 -2.244,-2.245 L 0,-19.92 c -1.24,0 -2.244,1.005 -2.244,2.245 l 0,15.431 C -2.244,-1.005 -1.24,0 0,0" /></g><g
           transform="translate(183.9969,78.6692)"
           id="g56"><path
             id="path58"
             style="fill:#afacb3;fill-opacity:1;fill-rule:evenodd;stroke:none"
             d="m 0,0 21.574,0 c 1.239,0 2.244,-1.005 2.244,-2.244 l 0,-15.431 c 0,-1.24 -1.005,-2.245 -2.244,-2.245 L 0,-19.92 c -1.24,0 -2.244,1.005 -2.244,2.245 l 0,15.431 C -2.244,-1.005 -1.24,0 0,0" /></g><g
           transform="translate(217.29,78.6692)"
           id="g60"><path
             id="path62"
             style="fill:#afacb3;fill-opacity:1;fill-rule:evenodd;stroke:none"
             d="m 0,0 21.574,0 c 1.239,0 2.244,-1.005 2.244,-2.244 l 0,-15.431 c 0,-1.24 -1.005,-2.245 -2.244,-2.245 L 0,-19.92 c -1.24,0 -2.244,1.005 -2.244,2.245 l 0,15.431 C -2.244,-1.005 -1.24,0 0,0" /></g><g
           transform="translate(250.583,78.6692)"
           id="g64"><path
             id="path66"
             style="fill:#afacb3;fill-opacity:1;fill-rule:evenodd;stroke:none"
             d="m 0,0 21.574,0 c 1.239,0 2.244,-1.005 2.244,-2.244 l 0,-15.431 c 0,-1.24 -1.005,-2.245 -2.244,-2.245 L 0,-19.92 c -1.24,0 -2.245,1.005 -2.245,2.245 l 0,15.431 C -2.245,-1.005 -1.24,0 0,0" /></g><g
           transform="translate(283.8761,78.6692)"
           id="g68"><path
             id="path70"
             style="fill:#afacb3;fill-opacity:1;fill-rule:evenodd;stroke:none"
             d="m 0,0 21.574,0 c 1.239,0 2.244,-1.005 2.244,-2.244 l 0,-15.431 c 0,-1.24 -1.005,-2.245 -2.244,-2.245 L 0,-19.92 c -1.24,0 -2.244,1.005 -2.244,2.245 l 0,15.431 C -2.244,-1.005 -1.24,0 0,0" /></g><g
           transform="translate(317.1691,78.6692)"
           id="g72"><path
             id="path74"
             style="fill:#afacb3;fill-opacity:1;fill-rule:evenodd;stroke:none"
             d="m 0,0 21.574,0 c 1.239,0 2.244,-1.005 2.244,-2.244 l 0,-15.431 c 0,-1.24 -1.005,-2.245 -2.244,-2.245 L 0,-19.92 c -1.24,0 -2.244,1.005 -2.244,2.245 l 0,15.431 C -2.244,-1.005 -1.24,0 0,0" /></g><g
           transform="translate(350.4622,78.6692)"
           id="g76"><path
             id="path78"
             style="fill:#afacb3;fill-opacity:1;fill-rule:evenodd;stroke:none"
             d="m 0,0 21.574,0 c 1.239,0 2.244,-1.005 2.244,-2.244 l 0,-15.431 c 0,-1.24 -1.005,-2.245 -2.244,-2.245 L 0,-19.92 c -1.24,0 -2.244,1.005 -2.244,2.245 l 0,15.431 C -2.244,-1.005 -1.24,0 0,0" /></g><g
           transform="translate(35.1904,46.773)"
           id="g80"><path
             id="path82"
             style="fill:#afacb3;fill-opacity:1;fill-rule:evenodd;stroke:none"
             d="m 0,0 21.574,0 c 1.239,0 2.244,-1.005 2.244,-2.244 l 0,-15.431 c 0,-1.24 -1.005,-2.245 -2.244,-2.245 L 0,-19.92 c -1.24,0 -2.245,1.005 -2.245,2.245 l 0,15.431 C -2.245,-1.005 -1.24,0 0,0" /></g><g
           transform="translate(68.4836,46.773)"
           id="g84"><path
             id="path86"
             style="fill:#afacb3;fill-opacity:1;fill-rule:evenodd;stroke:none"
             d="m 0,0 21.574,0 c 1.239,0 2.244,-1.005 2.244,-2.244 l 0,-15.431 c 0,-1.24 -1.005,-2.245 -2.244,-2.245 L 0,-19.92 c -1.24,0 -2.245,1.005 -2.245,2.245 l 0,15.431 C -2.245,-1.005 -1.24,0 0,0" /></g><g
           transform="translate(101.7766,46.773)"
           id="g88"><path
             id="path90"
             style="fill:#afacb3;fill-opacity:1;fill-rule:evenodd;stroke:none"
             d="m 0,0 21.574,0 c 1.239,0 2.244,-1.005 2.244,-2.244 l 0,-15.431 c 0,-1.24 -1.005,-2.245 -2.244,-2.245 L 0,-19.92 c -1.24,0 -2.244,1.005 -2.244,2.245 l 0,15.431 C -2.244,-1.005 -1.24,0 0,0" /></g><g
           transform="translate(135.0697,46.773)"
           id="g92"><path
             id="path94"
             style="fill:#afacb3;fill-opacity:1;fill-rule:evenodd;stroke:none"
             d="m 0,0 21.574,0 c 1.239,0 2.244,-1.005 2.244,-2.244 l 0,-15.431 c 0,-1.24 -1.005,-2.245 -2.244,-2.245 L 0,-19.92 c -1.24,0 -2.244,1.005 -2.244,2.245 l 0,15.431 C -2.244,-1.005 -1.24,0 0,0" /></g><g
           transform="translate(168.3628,46.773)"
           id="g96"><path
             id="path98"
             style="fill:#afacb3;fill-opacity:1;fill-rule:evenodd;stroke:none"
             d="m 0,0 21.574,0 c 1.239,0 2.244,-1.005 2.244,-2.244 l 0,-15.431 c 0,-1.24 -1.005,-2.245 -2.244,-2.245 L 0,-19.92 c -1.24,0 -2.244,1.005 -2.244,2.245 l 0,15.431 C -2.244,-1.005 -1.24,0 0,0" /></g><g
           transform="translate(201.6559,46.773)"
           id="g100"><path
             id="path102"
             style="fill:#afacb3;fill-opacity:1;fill-rule:evenodd;stroke:none"
             d="m 0,0 21.574,0 c 1.239,0 2.244,-1.005 2.244,-2.244 l 0,-15.431 c 0,-1.24 -1.005,-2.245 -2.244,-2.245 L 0,-19.92 c -1.24,0 -2.244,1.005 -2.244,2.245 l 0,15.431 C -2.244,-1.005 -1.24,0 0,0" /></g><g
           transform="translate(234.9491,46.773)"
           id="g104"><path
             id="path106"
             style="fill:#afacb3;fill-opacity:1;fill-rule:evenodd;stroke:none"
             d="m 0,0 21.574,0 c 1.239,0 2.244,-1.005 2.244,-2.244 l 0,-15.431 c 0,-1.24 -1.005,-2.245 -2.244,-2.245 L 0,-19.92 c -1.24,0 -2.244,1.005 -2.244,2.245 l 0,15.431 C -2.244,-1.005 -1.24,0 0,0" /></g><g
           transform="translate(268.2422,46.773)"
           id="g108"><path
             id="path110"
             style="fill:#afacb3;fill-opacity:1;fill-rule:evenodd;stroke:none"
             d="m 0,0 21.574,0 c 1.239,0 2.244,-1.005 2.244,-2.244 l 0,-15.431 c 0,-1.24 -1.005,-2.245 -2.244,-2.245 L 0,-19.92 c -1.24,0 -2.245,1.005 -2.245,2.245 l 0,15.431 C -2.245,-1.005 -1.24,0 0,0" /></g><g
           transform="translate(301.5353,46.773)"
           id="g112"><path
             id="path114"
             style="fill:#afacb3;fill-opacity:1;fill-rule:evenodd;stroke:none"
             d="m 0,0 21.574,0 c 1.239,0 2.244,-1.005 2.244,-2.244 l 0,-15.431 c 0,-1.24 -1.005,-2.245 -2.244,-2.245 L 0,-19.92 c -1.24,0 -2.245,1.005 -2.245,2.245 l 0,15.431 C -2.245,-1.005 -1.24,0 0,0" /></g><g
           transform="translate(334.8283,46.773)"
           id="g116"><path
             id="path118"
             style="fill:#afacb3;fill-opacity:1;fill-rule:evenodd;stroke:none"
             d="m 0,0 21.574,0 c 1.239,0 2.244,-1.005 2.244,-2.244 l 0,-15.431 c 0,-1.24 -1.005,-2.245 -2.244,-2.245 L 0,-19.92 c -1.24,0 -2.244,1.005 -2.244,2.245 l 0,15.431 C -2.244,-1.005 -1.24,0 0,0" /></g><g
           transform="translate(42.8315,111.0212)"
           id="g120"><path
             id="path122"
             style="fill:#afacb3;fill-opacity:1;fill-rule:evenodd;stroke:none"
             d="m 0,0 21.574,0 c 1.239,0 2.244,-1.005 2.244,-2.244 l 0,-15.431 c 0,-1.24 -1.005,-2.245 -2.244,-2.245 L 0,-19.92 c -1.24,0 -2.245,1.005 -2.245,2.245 l 0,15.431 C -2.245,-1.005 -1.24,0 0,0" /></g><g
           transform="translate(76.1246,111.0212)"
           id="g124"><path
             id="path126"
             style="fill:#afacb3;fill-opacity:1;fill-rule:evenodd;stroke:none"
             d="m 0,0 21.574,0 c 1.239,0 2.244,-1.005 2.244,-2.244 l 0,-15.431 c 0,-1.24 -1.005,-2.245 -2.244,-2.245 L 0,-19.92 c -1.24,0 -2.245,1.005 -2.245,2.245 l 0,15.431 C -2.245,-1.005 -1.24,0 0,0" /></g><g
           transform="translate(109.4177,111.0212)"
           id="g128"><path
             id="path130"
             style="fill:#afacb3;fill-opacity:1;fill-rule:evenodd;stroke:none"
             d="m 0,0 21.574,0 c 1.239,0 2.244,-1.005 2.244,-2.244 l 0,-15.431 c 0,-1.24 -1.005,-2.245 -2.244,-2.245 L 0,-19.92 c -1.24,0 -2.244,1.005 -2.244,2.245 l 0,15.431 C -2.244,-1.005 -1.24,0 0,0" /></g><g
           transform="translate(142.7108,111.0212)"
           id="g132"><path
             id="path134"
             style="fill:#afacb3;fill-opacity:1;fill-rule:evenodd;stroke:none"
             d="m 0,0 21.574,0 c 1.239,0 2.244,-1.005 2.244,-2.244 l 0,-15.431 c 0,-1.24 -1.005,-2.245 -2.244,-2.245 L 0,-19.92 c -1.24,0 -2.244,1.005 -2.244,2.245 l 0,15.431 C -2.244,-1.005 -1.24,0 0,0" /></g><g
           transform="translate(176.0039,111.0212)"
           id="g136"><path
             id="path138"
             style="fill:#afacb3;fill-opacity:1;fill-rule:evenodd;stroke:none"
             d="m 0,0 21.574,0 c 1.239,0 2.244,-1.005 2.244,-2.244 l 0,-15.431 c 0,-1.24 -1.005,-2.245 -2.244,-2.245 L 0,-19.92 c -1.24,0 -2.244,1.005 -2.244,2.245 l 0,15.431 C -2.244,-1.005 -1.24,0 0,0" /></g><g
           transform="translate(209.297,111.0212)"
           id="g140"><path
             id="path142"
             style="fill:#afacb3;fill-opacity:1;fill-rule:evenodd;stroke:none"
             d="m 0,0 21.574,0 c 1.239,0 2.244,-1.005 2.244,-2.244 l 0,-15.431 c 0,-1.24 -1.005,-2.245 -2.244,-2.245 L 0,-19.92 c -1.24,0 -2.244,1.005 -2.244,2.245 l 0,15.431 C -2.244,-1.005 -1.24,0 0,0" /></g><g
           transform="translate(242.5901,111.0212)"
           id="g144"><path
             id="path146"
             style="fill:#afacb3;fill-opacity:1;fill-rule:evenodd;stroke:none"
             d="m 0,0 21.574,0 c 1.239,0 2.244,-1.005 2.244,-2.244 l 0,-15.431 c 0,-1.24 -1.005,-2.245 -2.244,-2.245 L 0,-19.92 c -1.24,0 -2.244,1.005 -2.244,2.245 l 0,15.431 C -2.244,-1.005 -1.24,0 0,0" /></g><g
           transform="translate(275.8832,111.0212)"
           id="g148"><path
             id="path150"
             style="fill:#afacb3;fill-opacity:1;fill-rule:evenodd;stroke:none"
             d="m 0,0 21.574,0 c 1.239,0 2.244,-1.005 2.244,-2.244 l 0,-15.431 c 0,-1.24 -1.005,-2.245 -2.244,-2.245 L 0,-19.92 c -1.24,0 -2.244,1.005 -2.244,2.245 l 0,15.431 C -2.244,-1.005 -1.24,0 0,0" /></g><g
           transform="translate(309.1763,111.0212)"
           id="g152"><path
             id="path154"
             style="fill:#afacb3;fill-opacity:1;fill-rule:evenodd;stroke:none"
             d="m 0,0 21.574,0 c 1.239,0 2.244,-1.005 2.244,-2.244 l 0,-15.431 c 0,-1.24 -1.005,-2.245 -2.244,-2.245 L 0,-19.92 c -1.24,0 -2.245,1.005 -2.245,2.245 l 0,15.431 C -2.245,-1.005 -1.24,0 0,0" /></g><g
           transform="translate(342.4694,111.0212)"
           id="g156"><path
             id="path158"
             style="fill:#afacb3;fill-opacity:1;fill-rule:evenodd;stroke:none"
             d="m 0,0 21.574,0 c 1.239,0 2.244,-1.005 2.244,-2.244 l 0,-15.431 c 0,-1.24 -1.005,-2.245 -2.244,-2.245 L 0,-19.92 c -1.24,0 -2.244,1.005 -2.244,2.245 l 0,15.431 C -2.244,-1.005 -1.24,0 0,0" /></g><g
           transform="translate(25.4821,142.9525)"
           id="g160"><path
             id="path162"
             style="fill:#afacb3;fill-opacity:1;fill-rule:evenodd;stroke:none"
             d="m 0,0 21.574,0 c 1.239,0 2.244,-1.005 2.244,-2.245 l 0,-15.43 c 0,-1.24 -1.005,-2.245 -2.244,-2.245 L 0,-19.92 c -1.24,0 -2.245,1.005 -2.245,2.245 l 0,15.43 C -2.245,-1.005 -1.24,0 0,0" /></g><g
           transform="translate(58.7751,142.9525)"
           id="g164"><path
             id="path166"
             style="fill:#afacb3;fill-opacity:1;fill-rule:evenodd;stroke:none"
             d="m 0,0 21.574,0 c 1.239,0 2.244,-1.005 2.244,-2.245 l 0,-15.43 c 0,-1.24 -1.005,-2.245 -2.244,-2.245 L 0,-19.92 c -1.24,0 -2.244,1.005 -2.244,2.245 l 0,15.43 C -2.244,-1.005 -1.24,0 0,0" /></g><g
           transform="translate(92.0682,142.9525)"
           id="g168"><path
             id="path170"
             style="fill:#afacb3;fill-opacity:1;fill-rule:evenodd;stroke:none"
             d="m 0,0 21.574,0 c 1.239,0 2.244,-1.005 2.244,-2.245 l 0,-15.43 c 0,-1.24 -1.005,-2.245 -2.244,-2.245 L 0,-19.92 c -1.24,0 -2.244,1.005 -2.244,2.245 l 0,15.43 C -2.244,-1.005 -1.24,0 0,0" /></g><g
           transform="translate(125.3613,142.9525)"
           id="g172"><path
             id="path174"
             style="fill:#afacb3;fill-opacity:1;fill-rule:evenodd;stroke:none"
             d="m 0,0 21.574,0 c 1.239,0 2.244,-1.005 2.244,-2.245 l 0,-15.43 c 0,-1.24 -1.005,-2.245 -2.244,-2.245 L 0,-19.92 c -1.24,0 -2.244,1.005 -2.244,2.245 l 0,15.43 C -2.244,-1.005 -1.24,0 0,0" /></g><g
           transform="translate(158.6544,142.9525)"
           id="g176"><path
             id="path178"
             style="fill:#afacb3;fill-opacity:1;fill-rule:evenodd;stroke:none"
             d="m 0,0 21.574,0 c 1.239,0 2.244,-1.005 2.244,-2.245 l 0,-15.43 c 0,-1.24 -1.005,-2.245 -2.244,-2.245 L 0,-19.92 c -1.24,0 -2.244,1.005 -2.244,2.245 l 0,15.43 C -2.244,-1.005 -1.24,0 0,0" /></g><g
           transform="translate(191.9476,142.9525)"
           id="g180"><path
             id="path182"
             style="fill:#afacb3;fill-opacity:1;fill-rule:evenodd;stroke:none"
             d="m 0,0 21.574,0 c 1.239,0 2.244,-1.005 2.244,-2.245 l 0,-15.43 c 0,-1.24 -1.005,-2.245 -2.244,-2.245 L 0,-19.92 c -1.24,0 -2.244,1.005 -2.244,2.245 l 0,15.43 C -2.244,-1.005 -1.24,0 0,0" /></g><g
           transform="translate(225.2407,142.9525)"
           id="g184"><path
             id="path186"
             style="fill:#afacb3;fill-opacity:1;fill-rule:evenodd;stroke:none"
             d="m 0,0 21.574,0 c 1.239,0 2.244,-1.005 2.244,-2.245 l 0,-15.43 c 0,-1.24 -1.005,-2.245 -2.244,-2.245 L 0,-19.92 c -1.24,0 -2.245,1.005 -2.245,2.245 l 0,15.43 C -2.245,-1.005 -1.24,0 0,0" /></g><g
           transform="translate(258.5338,142.9525)"
           id="g188"><path
             id="path190"
             style="fill:#afacb3;fill-opacity:1;fill-rule:evenodd;stroke:none"
             d="m 0,0 21.574,0 c 1.239,0 2.244,-1.005 2.244,-2.245 l 0,-15.43 c 0,-1.24 -1.005,-2.245 -2.244,-2.245 L 0,-19.92 c -1.24,0 -2.245,1.005 -2.245,2.245 l 0,15.43 C -2.245,-1.005 -1.24,0 0,0" /></g><g
           transform="translate(291.8268,142.9525)"
           id="g192"><path
             id="path194"
             style="fill:#afacb3;fill-opacity:1;fill-rule:evenodd;stroke:none"
             d="m 0,0 21.574,0 c 1.239,0 2.244,-1.005 2.244,-2.245 l 0,-15.43 c 0,-1.24 -1.005,-2.245 -2.244,-2.245 L 0,-19.92 c -1.24,0 -2.244,1.005 -2.244,2.245 l 0,15.43 C -2.244,-1.005 -1.24,0 0,0" /></g><g
           transform="translate(325.1199,142.9525)"
           id="g196"><path
             id="path198"
             style="fill:#afacb3;fill-opacity:1;fill-rule:evenodd;stroke:none"
             d="m 0,0 21.574,0 c 1.239,0 2.244,-1.005 2.244,-2.245 l 0,-15.43 c 0,-1.24 -1.005,-2.245 -2.244,-2.245 L 0,-19.92 c -1.24,0 -2.244,1.005 -2.244,2.245 l 0,15.43 C -2.244,-1.005 -1.24,0 0,0" /></g><g
           transform="translate(20.0218,196.1421)"
           id="g200"><path
             id="path202"
             style="fill:#f05953;fill-opacity:1;fill-rule:nonzero;stroke:none"
             d="m 0,0 15.094,0 0,3.595 -6.107,0 C 8.61,3.595 8.187,3.586 7.719,3.57 7.252,3.554 6.804,3.537 6.377,3.521 5.885,3.488 5.392,3.463 4.9,3.447 l 0,0.074 1.207,1.207 C 6.451,5.072 6.812,5.45 7.19,5.86 7.567,6.27 7.912,6.664 8.224,7.042 l 6.525,7.978 0,3.3 -14.084,0 0,-3.546 5.269,0 c 0.361,0 0.763,0.004 1.207,0.012 0.443,0.008 0.862,0.021 1.255,0.037 0.46,0.016 0.928,0.041 1.404,0.074 l 0,-0.074 C 9.422,14.462 9.053,14.093 8.692,13.715 8.38,13.387 8.052,13.038 7.707,12.669 7.362,12.299 7.05,11.95 6.771,11.622 L 0,3.398 0,0 Z" /></g><g
           transform="translate(36.4451,196.1421)"
           id="g204"><path
             id="path206"
             style="fill:#f05953;fill-opacity:1;fill-rule:nonzero;stroke:none"
             d="m 0,0 4.777,0 1.896,3.226 c 0.213,0.36 0.431,0.759 0.652,1.194 0.222,0.435 0.423,0.841 0.604,1.219 0.213,0.443 0.418,0.886 0.615,1.329 l 0.049,0 C 8.79,6.525 8.987,6.082 9.184,5.639 9.365,5.261 9.558,4.855 9.763,4.42 9.968,3.985 10.177,3.586 10.391,3.226 L 12.238,0 l 4.974,0 -6.107,9.603 5.54,8.717 -4.58,0 -1.502,-2.487 C 10.35,15.471 10.132,15.082 9.911,14.663 9.689,14.244 9.488,13.846 9.308,13.469 9.094,13.042 8.889,12.599 8.692,12.139 l -0.049,0 c -0.214,0.46 -0.419,0.903 -0.616,1.33 -0.181,0.377 -0.378,0.775 -0.591,1.194 -0.213,0.419 -0.427,0.808 -0.64,1.17 L 5.319,18.32 0.517,18.32 6.156,9.578 0,0 Z" /></g><g
           transform="translate(59.7016,199.4416)"
           id="g208"><path
             id="path210"
             style="fill:#f05953;fill-opacity:1;fill-rule:nonzero;stroke:none"
             d="m 0,0 c -0.566,0.476 -0.85,1.124 -0.85,1.945 0,0.854 0.288,1.527 0.862,2.019 0.575,0.493 1.355,0.739 2.34,0.739 0.984,0 1.756,-0.246 2.314,-0.739 C 5.224,3.472 5.503,2.799 5.503,1.945 5.503,1.141 5.216,0.496 4.641,0.012 4.067,-0.472 3.303,-0.714 2.352,-0.714 1.35,-0.714 0.566,-0.476 0,0 m 0.32,7.941 c -0.468,0.402 -0.702,0.94 -0.702,1.613 0,0.689 0.234,1.239 0.702,1.65 0.468,0.41 1.129,0.615 1.982,0.615 0.87,0 1.535,-0.205 1.995,-0.615 C 4.756,10.793 4.986,10.243 4.986,9.554 4.986,8.881 4.756,8.343 4.297,7.941 3.837,7.539 3.172,7.338 2.302,7.338 1.449,7.338 0.788,7.539 0.32,7.941 m 4.925,-11.29 c 0.878,0.246 1.637,0.604 2.277,1.071 0.641,0.468 1.141,1.047 1.502,1.736 0.361,0.69 0.542,1.469 0.542,2.34 0,1.034 -0.292,1.945 -0.874,2.733 C 8.109,5.319 7.235,5.876 6.07,6.205 l 0,0.074 c 0.919,0.328 1.6,0.804 2.043,1.428 0.444,0.624 0.665,1.33 0.665,2.118 0,0.738 -0.152,1.403 -0.455,1.994 -0.304,0.591 -0.735,1.092 -1.293,1.502 -0.558,0.41 -1.236,0.726 -2.032,0.948 -0.796,0.222 -1.686,0.333 -2.671,0.333 -0.985,0 -1.88,-0.115 -2.684,-0.345 -0.805,-0.23 -1.49,-0.558 -2.056,-0.985 -0.566,-0.427 -1.002,-0.94 -1.305,-1.539 -0.304,-0.599 -0.456,-1.26 -0.456,-1.982 0,-0.821 0.222,-1.539 0.665,-2.155 0.443,-0.615 1.133,-1.087 2.069,-1.416 l 0,-0.073 C -2.573,5.762 -3.435,5.199 -4.026,4.42 -4.617,3.64 -4.912,2.733 -4.912,1.699 c 0,-0.854 0.18,-1.613 0.541,-2.278 0.361,-0.664 0.866,-1.231 1.515,-1.699 0.648,-0.467 1.416,-0.825 2.302,-1.071 0.886,-0.246 1.855,-0.369 2.906,-0.369 1.05,0 2.014,0.123 2.893,0.369" /></g><path
           id="path212"
           style="fill:#f05953;fill-opacity:1;fill-rule:nonzero;stroke:none"
           d="m 71.533,196.142 4.211,0 0,18.32 -4.211,0 0,-18.32 z" /><path
           id="path214"
           style="fill:#181221;fill-opacity:1;fill-rule:nonzero;stroke:none"
           d="m 122.82,393.477 5.755,0 0,-21.577 -5.755,0 0,21.577 z" /><path
           id="path216"
           style="fill:#181221;fill-opacity:1;fill-rule:nonzero;stroke:none"
           d="m 137.203,377.655 14.387,0 0,-1.439 -14.387,0 0,1.439 z m -5.751,10.068 0,-4.313 20.138,0 0,-1.439 -20.138,0 0,-10.07 25.893,0 0,15.822 -25.893,0 z" /><path
           id="path218"
           style="fill:#181221;fill-opacity:1;fill-rule:nonzero;stroke:none"
           d="m 160.223,387.723 5.751,0 0,-15.822 -5.751,0 0,15.822 z" /><path
           id="path220"
           style="fill:#181221;fill-opacity:1;fill-rule:nonzero;stroke:none"
           d="m 160.223,393.477 5.751,0 0,-4.316 -5.751,0 0,4.316 z" /><g
           transform="translate(168.8513,387.7226)"
           id="g222"><path
             id="path224"
             style="fill:#181221;fill-opacity:1;fill-rule:nonzero;stroke:none"
             d="m 0,0 0,-15.822 5.755,0 0,11.51 23.015,0 L 28.77,0 0,0 Z" /></g><g
           transform="translate(91.1721,387.7226)"
           id="g226"><path
             id="path228"
             style="fill:#181221;fill-opacity:1;fill-rule:nonzero;stroke:none"
             d="m 0,0 0,-15.822 28.77,0 0,4.316 -23.015,0 0,7.194 23.015,0 L 28.77,0 0,0 Z" /></g><g
           transform="translate(59.524,387.7226)"
           id="g230"><path
             id="path232"
             style="fill:#181221;fill-opacity:1;fill-rule:nonzero;stroke:none"
             d="m 0,0 0,-15.822 5.755,0 0,11.51 17.261,0 0,-11.51 5.755,0 L 28.771,0 0,0 Z" /></g><path
           id="path234"
           style="fill:#181221;fill-opacity:1;fill-rule:nonzero;stroke:none"
           d="m 50.892,387.723 5.755,0 0,-15.822 -5.755,0 0,15.822 z" /><path
           id="path236"
           style="fill:#181221;fill-opacity:1;fill-rule:nonzero;stroke:none"
           d="m 50.892,393.477 5.755,0 0,-4.316 -5.755,0 0,4.316 z" /><g
           transform="translate(19.2476,387.7226)"
           id="g238"><path
             id="path240"
             style="fill:#181221;fill-opacity:1;fill-rule:nonzero;stroke:none"
             d="m 0,0 0,-10.067 23.016,0 0,-1.439 -23.016,0 0,-4.316 28.771,0 0,10.071 -23.02,0 0,1.439 23.02,0 0,4.312 L 0,0 Z" /></g><path
           id="path242"
           style="fill:#5b585b;fill-opacity:1;fill-rule:nonzero;stroke:none"
           d="m 121.262,395.035 5.755,0 0,-21.577 -5.755,0 0,21.577 z" /><path
           id="path244"
           style="fill:#5b585b;fill-opacity:1;fill-rule:nonzero;stroke:none"
           d="m 135.645,379.214 14.387,0 0,-1.439 -14.387,0 0,1.439 z m -5.751,10.067 0,-4.313 20.138,0 0,-1.439 -20.138,0 0,-10.07 25.893,0 0,15.822 -25.893,0 z" /><path
           id="path246"
           style="fill:#5b585b;fill-opacity:1;fill-rule:nonzero;stroke:none"
           d="m 158.665,389.281 5.751,0 0,-15.822 -5.751,0 0,15.822 z" /><path
           id="path248"
           style="fill:#5b585b;fill-opacity:1;fill-rule:nonzero;stroke:none"
           d="m 158.665,395.035 5.751,0 0,-4.316 -5.751,0 0,4.316 z" /><g
           transform="translate(167.2932,389.2806)"
           id="g250"><path
             id="path252"
             style="fill:#5b585b;fill-opacity:1;fill-rule:nonzero;stroke:none"
             d="m 0,0 0,-15.822 5.755,0 0,11.51 23.015,0 L 28.77,0 0,0 Z" /></g><g
           transform="translate(89.614,389.2806)"
           id="g254"><path
             id="path256"
             style="fill:#5b585b;fill-opacity:1;fill-rule:nonzero;stroke:none"
             d="m 0,0 0,-15.822 28.77,0 0,4.316 -23.015,0 0,7.194 23.015,0 L 28.77,0 0,0 Z" /></g><g
           transform="translate(57.966,389.2806)"
           id="g258"><path
             id="path260"
             style="fill:#5b585b;fill-opacity:1;fill-rule:nonzero;stroke:none"
             d="m 0,0 0,-15.822 5.755,0 0,11.51 17.261,0 0,-11.51 5.755,0 L 28.771,0 0,0 Z" /></g><path
           id="path262"
           style="fill:#5b585b;fill-opacity:1;fill-rule:nonzero;stroke:none"
           d="m 49.334,389.281 5.755,0 0,-15.822 -5.755,0 0,15.822 z" /><path
           id="path264"
           style="fill:#5b585b;fill-opacity:1;fill-rule:nonzero;stroke:none"
           d="m 49.334,395.035 5.755,0 0,-4.316 -5.755,0 0,4.316 z" /><g
           transform="translate(17.6895,389.2806)"
           id="g266"><path
             id="path268"
             style="fill:#5b585b;fill-opacity:1;fill-rule:nonzero;stroke:none"
             d="m 0,0 0,-10.067 23.016,0 0,-1.439 -23.016,0 0,-4.316 28.771,0 0,10.071 -23.02,0 0,1.439 23.02,0 0,4.312 L 0,0 Z" /></g><path
           id="path270"
           style="fill:#2a2733;fill-opacity:1;fill-rule:nonzero;stroke:none"
           d="m 122.041,394.256 5.755,0 0,-21.577 -5.755,0 0,21.577 z" /><path
           id="path272"
           style="fill:#2a2733;fill-opacity:1;fill-rule:nonzero;stroke:none"
           d="m 136.424,378.435 14.387,0 0,-1.439 -14.387,0 0,1.439 z m -5.751,10.067 0,-4.313 20.138,0 0,-1.439 -20.138,0 0,-10.07 25.893,0 0,15.822 -25.893,0 z" /><path
           id="path274"
           style="fill:#2a2733;fill-opacity:1;fill-rule:nonzero;stroke:none"
           d="m 159.444,388.502 5.751,0 0,-15.822 -5.751,0 0,15.822 z" /><path
           id="path276"
           style="fill:#2a2733;fill-opacity:1;fill-rule:nonzero;stroke:none"
           d="m 159.444,394.256 5.751,0 0,-4.316 -5.751,0 0,4.316 z" /><g
           transform="translate(168.0723,388.5016)"
           id="g278"><path
             id="path280"
             style="fill:#2a2733;fill-opacity:1;fill-rule:nonzero;stroke:none"
             d="m 0,0 0,-15.822 5.755,0 0,11.51 23.015,0 L 28.77,0 0,0 Z" /></g><g
           transform="translate(90.3931,388.5016)"
           id="g282"><path
             id="path284"
             style="fill:#2a2733;fill-opacity:1;fill-rule:nonzero;stroke:none"
             d="m 0,0 0,-15.822 28.77,0 0,4.316 -23.015,0 0,7.194 23.015,0 L 28.77,0 0,0 Z" /></g><g
           transform="translate(58.745,388.5016)"
           id="g286"><path
             id="path288"
             style="fill:#2a2733;fill-opacity:1;fill-rule:nonzero;stroke:none"
             d="m 0,0 0,-15.822 5.755,0 0,11.51 17.261,0 0,-11.51 5.755,0 L 28.771,0 0,0 Z" /></g><path
           id="path290"
           style="fill:#2a2733;fill-opacity:1;fill-rule:nonzero;stroke:none"
           d="m 50.113,388.502 5.755,0 0,-15.822 -5.755,0 0,15.822 z" /><path
           id="path292"
           style="fill:#2a2733;fill-opacity:1;fill-rule:nonzero;stroke:none"
           d="m 50.113,394.256 5.755,0 0,-4.316 -5.755,0 0,4.316 z" /><g
           transform="translate(18.4686,388.5016)"
           id="g294"><path
             id="path296"
             style="fill:#2a2733;fill-opacity:1;fill-rule:nonzero;stroke:none"
             d="m 0,0 0,-10.067 23.016,0 0,-1.439 -23.016,0 0,-4.316 28.771,0 0,10.071 -23.02,0 0,1.439 23.02,0 0,4.312 L 0,0 Z" /></g></g></g></g></svg>