<?xml version="1.0" encoding="UTF-8" standalone="no"?>
<svg
   xmlns:dc="http://purl.org/dc/elements/1.1/"
   xmlns:cc="http://creativecommons.org/ns#"
   xmlns:rdf="http://www.w3.org/1999/02/22-rdf-syntax-ns#"
   xmlns:svg="http://www.w3.org/2000/svg"
   xmlns="http://www.w3.org/2000/svg"
   viewBox="0 0 236.24625 145.15125"
   height="145.15125"
   width="236.24625"
   xml:space="preserve"
   version="1.1"
   id="svg2"><metadata
     id="metadata8"><rdf:RDF><cc:Work
         rdf:about=""><dc:format>image/svg+xml</dc:format><dc:type
           rdf:resource="http://purl.org/dc/dcmitype/StillImage" /><dc:title></dc:title></cc:Work></rdf:RDF></metadata><defs
     id="defs6"><clipPath
       id="clipPath16"
       clipPathUnits="userSpaceOnUse"><path
         id="path18"
         d="m 0,116.121 188.997,0 L 188.997,0 0,0 0,116.121 Z" /></clipPath></defs><g
     transform="matrix(1.25,0,0,-1.25,0,145.15125)"
     id="g10"><g
       id="g12"><g
         clip-path="url(#clipPath16)"
         id="g14"><g
           transform="translate(54.8531,48.7435)"
           id="g20"><path
             id="path22"
             style="fill:#311610;fill-opacity:1;fill-rule:nonzero;stroke:none"
             d="m 0,0 c -8.212,0 -14.87,6.657 -14.87,14.87 0,8.212 6.658,14.869 14.87,14.869 8.212,0 14.87,-6.657 14.87,-14.869 C 14.87,6.657 8.212,0 0,0 m 0,37.798 c -12.663,0 -22.928,-10.265 -22.928,-22.928 0,-12.663 10.265,-22.929 22.928,-22.929 12.663,0 22.928,10.266 22.928,22.929 0,12.663 -10.265,22.928 -22.928,22.928" /></g><g
           transform="translate(134.1441,48.7479)"
           id="g24"><path
             id="path26"
             style="fill:#311610;fill-opacity:1;fill-rule:nonzero;stroke:none"
             d="m 0,0 c -8.212,0 -14.87,6.657 -14.87,14.87 0,8.212 6.658,14.869 14.87,14.869 8.212,0 14.87,-6.657 14.87,-14.869 C 14.87,6.657 8.212,0 0,0 m 0,44.049 c -16.118,0 -29.184,-13.066 -29.184,-29.183 0,-16.118 13.066,-29.184 29.184,-29.184 16.117,0 29.183,13.066 29.183,29.184 0,16.117 -13.066,29.183 -29.183,29.183" /></g><g
           transform="translate(134.7942,54.7523)"
           id="g28"><path
             id="path30"
             style="fill:#e4e4e3;fill-opacity:1;fill-rule:nonzero;stroke:none"
             d="m 0,0 0,1.936 -1.263,0 0,-1.939 C -4.075,0.189 -6.529,1.686 -8.02,3.89 l 1.68,0.97 -0.631,1.094 -1.679,-0.97 c -0.57,1.173 -0.89,2.489 -0.89,3.881 0,1.401 0.325,2.727 0.903,3.906 l 1.66,-0.958 0.631,1.093 -1.656,0.957 c 1.49,2.188 3.93,3.674 6.728,3.868 l 0,-1.89 1.262,0 0,1.889 C 2.78,17.532 5.216,16.047 6.704,13.862 L 5.065,12.916 5.697,11.823 7.338,12.77 C 7.916,11.591 8.241,10.266 8.241,8.865 8.241,7.482 7.925,6.173 7.362,5.006 L 5.702,5.964 5.071,4.87 6.733,3.911 C 5.251,1.705 2.806,0.203 0,0 m -0.65,19.495 c -5.871,0 -10.63,-4.759 -10.63,-10.63 0,-5.872 4.759,-10.631 10.63,-10.631 5.871,0 10.631,4.759 10.631,10.631 0,5.871 -4.76,10.63 -10.631,10.63" /></g><g
           transform="translate(55.4652,54.7495)"
           id="g32"><path
             id="path34"
             style="fill:#e4e4e3;fill-opacity:1;fill-rule:nonzero;stroke:none"
             d="m 0,0 0,1.939 -1.263,0 0,-1.936 c -2.805,0.203 -5.25,1.705 -6.733,3.91 l 1.662,0.96 -0.631,1.094 -1.66,-0.959 c -0.563,1.168 -0.879,2.477 -0.879,3.859 0,1.402 0.326,2.727 0.903,3.906 l 1.642,-0.947 0.631,1.093 -1.638,0.946 c 1.487,2.185 3.923,3.67 6.715,3.868 l 0,-1.889 1.263,0 0,1.89 C 2.809,17.539 5.25,16.053 6.74,13.866 l -1.657,-0.957 0.631,-1.093 1.66,0.958 C 7.952,11.595 8.278,10.269 8.278,8.867 8.278,7.476 7.957,6.16 7.388,4.987 L 5.708,5.957 5.077,4.863 6.757,3.893 C 5.266,1.689 2.812,0.192 0,0 m -0.613,19.498 c -5.871,0 -10.631,-4.76 -10.631,-10.631 0,-5.871 4.76,-10.63 10.631,-10.63 5.871,0 10.631,4.759 10.631,10.63 0,5.871 -4.76,10.631 -10.631,10.631" /></g><g
           transform="translate(186.5556,41.7545)"
           id="g36"><path
             id="path38"
             style="fill:#181221;fill-opacity:1;fill-rule:nonzero;stroke:none"
             d="m 0,0 c 1.672,-1.719 2.197,-2.292 2.197,-2.292 0,0 0.286,-0.191 0.239,-1.003 -0.048,-0.812 0,-26.697 0,-27.509 0,-0.812 -0.239,-0.812 -0.478,-1.099 C 1.719,-32.189 0,-34.195 0,-34.195 L 0,0 Z" /></g><g
           transform="translate(2.441,41.7545)"
           id="g40"><path
             id="path42"
             style="fill:#181221;fill-opacity:1;fill-rule:nonzero;stroke:none"
             d="m 0,0 c -1.672,-1.719 -2.197,-2.292 -2.197,-2.292 0,0 -0.286,-0.191 -0.239,-1.003 0.048,-0.812 0,-26.697 0,-27.509 0,-0.812 0.239,-0.812 0.478,-1.099 C -1.719,-32.189 0,-34.195 0,-34.195 L 0,0 Z" /></g><g
           transform="translate(134.1445,53.5293)"
           id="g44"><path
             id="path46"
             style="fill:#181221;fill-opacity:1;fill-rule:nonzero;stroke:none"
             d="m 0,0 c -5.571,0 -10.087,4.516 -10.087,10.088 0,5.571 4.516,10.087 10.087,10.087 5.571,0 10.088,-4.516 10.088,-10.087 C 10.088,4.516 5.571,0 0,0 m 5.215,-51.052 c -2.219,0 -4.018,1.799 -4.018,4.018 0,2.219 1.799,4.018 4.018,4.018 2.219,0 4.018,-1.799 4.018,-4.018 0,-2.219 -1.799,-4.018 -4.018,-4.018 m -15.132,4.873 c 0,-0.799 -0.654,-1.454 -1.454,-1.454 l -4.443,0 c -0.8,0 -1.454,0.655 -1.454,1.454 l 0,4.017 c 0,0.799 0.654,1.454 1.454,1.454 l 4.443,0 c 0.8,0 1.454,-0.655 1.454,-1.454 l 0,-4.017 z m -8.32,48.107 c 0,-0.233 -0.218,-0.423 -0.485,-0.423 l -42.23,0 c -0.267,0 -0.485,0.19 -0.485,0.423 l 0,17.256 c 0,0.232 0.218,0.422 0.485,0.422 l 42.23,0 c 0.267,0 0.485,-0.19 0.485,-0.422 l 0,-17.256 z m -43.787,-48.107 c 0,-0.799 -0.654,-1.454 -1.454,-1.454 l -4.444,0 c -0.799,0 -1.454,0.655 -1.454,1.454 l 0,4.017 c 0,0.799 0.655,1.454 1.454,1.454 l 4.444,0 c 0.8,0 1.454,-0.655 1.454,-1.454 l 0,-4.017 z M -79.292,0 c -5.571,0 -10.088,4.516 -10.088,10.088 0,5.571 4.517,10.087 10.088,10.087 5.571,0 10.087,-4.516 10.087,-10.087 C -69.205,4.516 -73.721,0 -79.292,0 m -5.215,-51.052 c -2.219,0 -4.018,1.799 -4.018,4.018 0,2.219 1.799,4.018 4.018,4.018 2.219,0 4.018,-1.799 4.018,-4.018 0,-2.219 -1.799,-4.018 -4.018,-4.018 m 134.149,113.644 -178.653,0 c -1.866,0 -3.393,-1.527 -3.393,-3.393 l 0,-109.336 c 0,-1.866 1.527,-3.392 3.393,-3.392 l 178.653,0 c 1.866,0 3.393,1.526 3.393,3.392 l 0,109.336 c 0,1.866 -1.527,3.393 -3.393,3.393" /></g><g
           transform="translate(115.9072,55.4569)"
           id="g48"><path
             id="path50"
             style="fill:#3e3845;fill-opacity:1;fill-rule:nonzero;stroke:none"
             d="m 0,0 c 0,-0.233 -0.218,-0.423 -0.485,-0.423 l -42.23,0 c -0.267,0 -0.485,0.19 -0.485,0.423 l 0,17.256 c 0,0.233 0.218,0.423 0.485,0.423 l 42.23,0 C -0.218,17.679 0,17.489 0,17.256 L 0,0 Z m 0.185,18.286 -43.569,0 c -0.276,0 -0.501,-0.203 -0.501,-0.451 l 0,-18.414 c 0,-0.248 0.225,-0.451 0.501,-0.451 l 43.569,0 c 0.275,0 0.5,0.203 0.5,0.451 l 0,18.414 c 0,0.248 -0.225,0.451 -0.5,0.451" /></g><g
           transform="translate(159.7814,0)"
           id="g52"><path
             id="path54"
             style="fill:#0f0c12;fill-opacity:1;fill-rule:nonzero;stroke:none"
             d="m 0,0 c -1.161,5.286 -5.047,23.817 -5.462,25.644 -0.427,1.881 -1.197,3.42 -3.59,3.42 l -112.462,0 c -2.393,0 -3.163,-1.539 -3.59,-3.42 C -125.52,23.817 -129.405,5.286 -130.566,0 l 1.78,0 c 1.405,6.475 4.614,21.653 5.143,24.183 0.59,2.829 1.196,3.42 3.59,3.42 l 109.54,0 c 2.394,0 2.999,-0.591 3.59,-3.42 C -6.394,21.653 -3.185,6.476 -1.78,0 L 0,0 Z" /></g><g
           transform="translate(134.1445,51.343)"
           id="g56"><path
             id="path58"
             style="fill:#d4d1d1;fill-opacity:1;fill-rule:evenodd;stroke:none"
             d="m 0,0 -79.292,0 c -6.779,0 -12.274,5.495 -12.274,12.274 0,6.779 5.495,12.274 12.274,12.274 l 79.292,0 c 6.779,0 12.274,-5.495 12.274,-12.274 C 12.274,5.495 6.779,0 0,0 m 41.24,48.511 c -0.158,0.182 -5.878,6.151 -6.123,6.414 -0.172,0.185 -0.452,0.19 -0.452,0.19 l -148.622,0 c 0,0 -0.28,-0.005 -0.452,-0.19 -0.245,-0.263 -5.965,-6.232 -6.124,-6.414 -0.246,-0.284 -0.196,-0.462 -0.196,-0.462 l 0,-63.951 c 0,-0.266 0.218,-0.484 0.485,-0.484 l 161.196,0 c 0.266,0 0.485,0.218 0.485,0.484 l 0,63.951 c 0,0 0.049,0.178 -0.197,0.462" /></g><path
           id="path60"
           style="fill:#060809;fill-opacity:1;fill-rule:nonzero;stroke:none"
           d="m 167.105,82.54 -71.609,0 0,23.918 71.609,0 0,-23.918 z" /><path
           id="path62"
           style="fill:#d4d1d1;fill-opacity:1;fill-rule:nonzero;stroke:none"
           d="m 136.537,102.19 2.03,0 0,-7.612 -2.03,0 0,7.612 z" /><path
           id="path64"
           style="fill:#d4d1d1;fill-opacity:1;fill-rule:nonzero;stroke:none"
           d="m 141.611,96.608 5.076,0 0,-0.508 -5.076,0 0,0.508 z m -2.029,3.552 0,-1.521 7.105,0 0,-0.508 -7.105,0 0,-3.553 9.135,0 0,5.582 -9.135,0 z" /><path
           id="path66"
           style="fill:#d4d1d1;fill-opacity:1;fill-rule:nonzero;stroke:none"
           d="m 149.733,100.16 2.029,0 0,-5.582 -2.029,0 0,5.582 z" /><path
           id="path68"
           style="fill:#d4d1d1;fill-opacity:1;fill-rule:nonzero;stroke:none"
           d="m 149.733,102.19 2.029,0 0,-1.523 -2.029,0 0,1.523 z" /><g
           transform="translate(152.7767,100.16)"
           id="g70"><path
             id="path72"
             style="fill:#d4d1d1;fill-opacity:1;fill-rule:nonzero;stroke:none"
             d="m 0,0 0,-5.582 2.03,0 0,4.061 8.12,0 L 10.15,0 0,0 Z" /></g><g
           transform="translate(125.3717,100.16)"
           id="g74"><path
             id="path76"
             style="fill:#d4d1d1;fill-opacity:1;fill-rule:nonzero;stroke:none"
             d="m 0,0 0,-5.582 10.15,0 0,1.523 -8.12,0 0,2.538 8.12,0 L 10.15,0 0,0 Z" /></g><g
           transform="translate(114.2063,100.16)"
           id="g78"><path
             id="path80"
             style="fill:#d4d1d1;fill-opacity:1;fill-rule:nonzero;stroke:none"
             d="m 0,0 0,-5.582 2.03,0 0,4.061 6.09,0 0,-4.061 2.03,0 L 10.15,0 0,0 Z" /></g><path
           id="path82"
           style="fill:#d4d1d1;fill-opacity:1;fill-rule:nonzero;stroke:none"
           d="m 111.161,100.16 2.03,0 0,-5.582 -2.03,0 0,5.582 z" /><path
           id="path84"
           style="fill:#d4d1d1;fill-opacity:1;fill-rule:nonzero;stroke:none"
           d="m 111.161,102.19 2.03,0 0,-1.523 -2.03,0 0,1.523 z" /><g
           transform="translate(99.9969,100.16)"
           id="g86"><path
             id="path88"
             style="fill:#d4d1d1;fill-opacity:1;fill-rule:nonzero;stroke:none"
             d="m 0,0 0,-3.552 8.12,0 0,-0.507 -8.12,0 0,-1.523 10.15,0 0,3.553 -8.121,0 0,0.508 8.121,0 L 10.15,0 0,0 Z" /></g><g
           transform="translate(99.9774,87.9084)"
           id="g90"><path
             id="path92"
             style="fill:#d4d1d1;fill-opacity:1;fill-rule:nonzero;stroke:none"
             d="m 0,0 3.897,0 0,0.928 -1.576,0 C 2.223,0.928 2.114,0.926 1.993,0.922 1.872,0.918 1.757,0.913 1.647,0.909 1.519,0.901 1.392,0.894 1.265,0.89 l 0,0.019 0.312,0.312 C 1.666,1.31 1.759,1.407 1.856,1.513 1.954,1.619 2.043,1.721 2.123,1.818 l 1.685,2.06 0,0.852 -3.636,0 0,-0.915 1.36,0 c 0.093,0 0.197,10e-4 0.312,0.003 0.114,0.002 0.222,0.005 0.324,0.009 0.119,0.004 0.239,0.011 0.362,0.019 l 0,-0.019 C 2.433,3.734 2.337,3.639 2.244,3.541 2.164,3.456 2.079,3.366 1.99,3.271 1.901,3.176 1.82,3.086 1.748,3.001 L 0,0.877 0,0 Z" /></g><g
           transform="translate(104.2179,87.9084)"
           id="g94"><path
             id="path96"
             style="fill:#d4d1d1;fill-opacity:1;fill-rule:nonzero;stroke:none"
             d="m 0,0 1.233,0 0.49,0.833 c 0.055,0.093 0.111,0.196 0.168,0.308 0.058,0.112 0.11,0.217 0.156,0.315 0.055,0.114 0.108,0.229 0.159,0.343 l 0.013,0 C 2.27,1.685 2.321,1.57 2.371,1.456 2.418,1.358 2.468,1.253 2.521,1.141 2.574,1.029 2.628,0.926 2.683,0.833 L 3.16,0 4.444,0 2.867,2.479 4.298,4.73 3.115,4.73 2.727,4.088 C 2.672,3.995 2.616,3.894 2.559,3.786 2.502,3.678 2.45,3.575 2.403,3.478 2.348,3.367 2.295,3.253 2.244,3.134 l -0.012,0 C 2.176,3.253 2.123,3.367 2.073,3.478 2.026,3.575 1.975,3.678 1.92,3.786 1.865,3.894 1.81,3.995 1.755,4.088 L 1.373,4.73 0.134,4.73 1.589,2.473 0,0 Z" /></g><g
           transform="translate(110.2226,88.7604)"
           id="g98"><path
             id="path100"
             style="fill:#d4d1d1;fill-opacity:1;fill-rule:nonzero;stroke:none"
             d="m 0,0 c -0.146,0.123 -0.219,0.29 -0.219,0.502 0,0.221 0.074,0.394 0.222,0.522 0.149,0.127 0.35,0.19 0.604,0.19 0.254,0 0.454,-0.063 0.598,-0.19 C 1.349,0.896 1.421,0.723 1.421,0.502 1.421,0.295 1.347,0.128 1.198,0.003 1.05,-0.122 0.853,-0.184 0.607,-0.184 0.349,-0.184 0.146,-0.123 0,0 m 0.083,2.05 c -0.121,0.104 -0.182,0.243 -0.182,0.417 0,0.178 0.061,0.32 0.182,0.426 0.12,0.106 0.291,0.159 0.511,0.159 0.225,0 0.397,-0.053 0.515,-0.159 C 1.228,2.787 1.287,2.645 1.287,2.467 1.287,2.293 1.228,2.154 1.109,2.05 0.991,1.946 0.819,1.895 0.594,1.895 0.374,1.895 0.203,1.946 0.083,2.05 m 1.271,-2.915 c 0.227,0.064 0.423,0.156 0.588,0.277 0.166,0.121 0.295,0.27 0.388,0.448 0.093,0.178 0.14,0.379 0.14,0.604 0,0.267 -0.075,0.502 -0.226,0.706 -0.15,0.203 -0.376,0.347 -0.677,0.432 l 0,0.019 C 1.804,1.706 1.98,1.829 2.095,1.99 2.209,2.151 2.267,2.333 2.267,2.537 2.267,2.727 2.227,2.899 2.149,3.052 2.07,3.204 1.959,3.333 1.815,3.439 1.671,3.545 1.496,3.627 1.291,3.684 1.085,3.741 0.855,3.77 0.601,3.77 0.346,3.77 0.115,3.74 -0.092,3.681 -0.3,3.622 -0.477,3.537 -0.623,3.427 -0.769,3.316 -0.882,3.184 -0.96,3.029 -1.038,2.875 -1.078,2.704 -1.078,2.518 c 0,-0.212 0.058,-0.398 0.172,-0.557 0.115,-0.159 0.292,-0.28 0.534,-0.365 l 0,-0.019 C -0.664,1.488 -0.887,1.342 -1.039,1.141 -1.192,0.94 -1.268,0.706 -1.268,0.439 c 0,-0.221 0.046,-0.417 0.14,-0.588 0.093,-0.172 0.223,-0.318 0.391,-0.439 0.167,-0.121 0.365,-0.213 0.594,-0.277 0.229,-0.063 0.479,-0.095 0.75,-0.095 0.271,0 0.52,0.032 0.747,0.095" /></g><path
           id="path102"
           style="fill:#d4d1d1;fill-opacity:1;fill-rule:nonzero;stroke:none"
           d="m 113.277,87.908 1.087,0 0,4.73 -1.087,0 0,-4.73 z" /></g></g></g></svg>