<svg xmlns="http://www.w3.org/2000/svg" width="400" height="175.27666">
  <defs>
    <clipPath id="a">
      <path d="M0 232.525h530.647V0H0v232.525z"/>
    </clipPath>
  </defs>
  <g clip-path="url(#a)" transform="matrix(0.75379702,0,0,-0.75379702,0,175.27665)">
    <path fill="#dbdde2" d="M95.7473 232.5246s-14.697-15.715-19.391-19.634c-2.149-1.793-16.151-.575-28.183-1.502h-18.227c10.403 12.966 17.107 17.515 20.714 19.198 3.636 1.694 7.76 1.938 7.76 1.938h37.327zm339.575-.0145l13.388-14.806c5.337-5.814 5.337-5.814 13.064-6.087 4.898-.174 11.374-.156 17.151-.229h21.816c-5.585 6.862-10.624 11.454-13.515 14.228-6.061 5.818-14.788 6.909-14.788 6.909l-37.116-.015M81.3559 6.6188c-3.938-.12-20.845-.004-21.969.004-1.283.007-1.876-.197-5.272 2.105-3.392 2.302-3.778 3.636-4.141 4.363-.364.727-.204 2.32.316 2.771.523.458 1.229 1.065 2.545 1.171 1.32.101 9.403-.004 9.403-.004h11.875s3.123.076 6.334-2.636c2.145-1.811 3.105-2.487 3.545-3.545.287-.688 1.302-4.105-2.636-4.229m14.271-1.225s-6.697 7.352-12.289 12.388c-1.982 1.785-4.549 2.818-7.218 2.839l-33.397.288c-.505-.03-.97-.03-1.403 0h-10.134c6.771-8.003 13.115-13.294 16.446-15.879 5.938-4.603 11.515-4.89 11.515-4.89h2.258l39.473.003-5.251 5.251z"/>
    <path fill="#2d2d2d" d="M520.6778 60.7846c-10.424-35.393-22.06-40.723-22.06-40.723s-.818-.364-1.785-.397c-.971-.029-37.484 0-37.484 0s-2.909.517-4.727-1.24c-1.818-1.759-18.118-18.241-18.118-18.241l-335.626-.04-5.251 5.25s-6.697 7.352-12.289 12.388c-1.982 1.785-4.549 2.818-7.218 2.84l-33.397.287c-.505-.029-.97-.029-1.403 0h-10.134c-5.297 6.261-10.857 14.177-15.431 23.754-10.421 21.816-15.755 49.468-15.755 71.669 0 22.202 5.272 47.654 9.272 57.471 4 9.818 9.879 24.06 20.424 37.27.083.105.171.21.25.316h18.228c12.031.927 26.034-.291 28.183 1.502 4.694 3.919 19.391 19.634 19.391 19.634h166.773l172.801-.014 13.388-14.806c5.338-5.814 5.338-5.814 13.064-6.087 4.898-.175 11.374-.156 17.152-.229h21.816c6.126-7.523 12.911-17.773 18.238-31.343 10.181-25.939 10.668-45.33 11.395-53.813.727-8.486.727-30.059-9.697-65.448"/>
    <path fill="#313131" d="M515.4674 64.7842c-10.155-33.891-19.515-38.422-19.515-38.422s-.796-.349-1.741-.378c-.946-.029-36.557-.229-36.557-.229s-2.836.494-4.607-1.189c-1.77-1.683-18.06-19.173-18.06-19.173h-339.36s-6.698 7.352-12.29 12.388c-1.982 1.786-4.549 2.818-7.217 2.84l-33.397.287c-.506-.029-.971-.029-1.404 0-3.21.197-4.639 1.847-6.25 3.782-5.141 6.174-11.664 16.827-15.315 24.336-10.155 20.892-13.817 48.064-13.817 69.327 0 21.264 6.025 45.545 9.919 54.948 3.56 8.588 8.647 20.707 17.33 32.382 1.799 2.422 4.432 4.102 7.388 4.709 2.334.476 4.916.789 7.599.996 12.032.927 26.034-.291 28.183 1.502 4.694 3.92 19.391 19.634 19.391 19.634h166.773l172.802-.014 13.388-14.806c5.337-5.814 5.337-5.814 13.064-6.087 4.898-.174 11.373-.156 17.151-.229 4.432-.054 8.454-.16 11.032-.44 1.603-.178 3.094-.916 4.203-2.09 5.599-5.949 12.326-16.173 18.296-29.579 9.919-24.838 10.876-43.345 11.585-51.472.709-8.126 1.581-29.132-8.574-63.023"/>
    <path fill="none" stroke="#ec1c24" stroke-width=".36399999" stroke-miterlimit="10" d="M42.7232 20.9084h-1.404M100.8922.1286l-.015.015"/>
    <path fill="none" stroke="#ec1c24" stroke-width=".35100001" stroke-miterlimit="10" d="M48.359 211.3885h-.185"/>
    <path fill="#0f0f12" d="M408.1083 43.8153h-284.146c-.852 0-1.55.697-1.55 1.55v156.643c0 .852.698 1.549 1.55 1.549h284.146c.852 0 1.55-.697 1.55-1.549V45.3653c0-.853-.698-1.55-1.55-1.55m61.6652 49.6317c-18.275 0-33.088 14.813-33.088 33.088 0 18.274 14.813 33.088 33.088 33.088s33.088-14.814 33.088-33.088c0-18.275-14.813-33.088-33.088-33.088m0 67.266c-18.875 0-34.179-15.304-34.179-34.178 0-18.875 15.304-34.179 34.179-34.179s34.179 15.304 34.179 34.179c0 18.874-15.304 34.178-34.179 34.178"/>
    <path fill="#0f0f12" d="M452.4418 127.8073c0 8.702-7.054 15.756-15.756 15.756s-15.756-7.054-15.756-15.756 7.054-15.756 15.756-15.756 15.756 7.054 15.756 15.756"/>
    <path fill="#232323" d="M451.4722 127.8073c0 8.166-6.62 14.786-14.786 14.786-8.167 0-14.787-6.62-14.787-14.786s6.62-14.786 14.787-14.786c8.166 0 14.786 6.62 14.786 14.786"/>
    <path fill="#0f0f12" d="M518.6174 127.8073c0 8.702-7.054 15.756-15.756 15.756s-15.756-7.054-15.756-15.756 7.054-15.756 15.756-15.756 15.756 7.054 15.756 15.756"/>
    <path fill="#232323" d="M517.5266 127.8073c0 8.099-6.566 14.665-14.665 14.665-8.1 0-14.666-6.566-14.666-14.665s6.566-14.665 14.666-14.665c8.099 0 14.665 6.566 14.665 14.665"/>
    <path fill="#0f0f12" d="M485.6205 160.8042c0 8.702-7.054 15.756-15.756 15.756s-15.756-7.054-15.756-15.756 7.054-15.756 15.756-15.756 15.756 7.054 15.756 15.756"/>
    <path fill="#232323" d="M484.4388 160.8042c0 8.049-6.525 14.574-14.574 14.574-8.05 0-14.575-6.525-14.575-14.574s6.525-14.574 14.575-14.574c8.049 0 14.574 6.525 14.574 14.574"/>
    <path fill="#0f0f12" d="M485.6205 94.356c0 8.702-7.054 15.756-15.756 15.756s-15.756-7.054-15.756-15.756 7.054-15.756 15.756-15.756 15.756 7.054 15.756 15.756"/>
    <path fill="#232323" d="M484.4388 94.356c0 8.049-6.525 14.574-14.574 14.574-8.05 0-14.575-6.525-14.575-14.574s6.525-14.574 14.575-14.574c8.049 0 14.574 6.525 14.574 14.574"/>
    <path fill="#231f20" d="M379.0549 13.0764c-6.73 0-12.337 4.436-12.879 10.028h25.758c-.542-5.592-6.149-10.028-12.879-10.028m-14.711 11.817v-.894c0-7.011 6.599-12.712 14.711-12.712s14.711 5.701 14.711 12.712v.894h-29.422z"/>
    <path fill="#232323" d="M391.9337 23.1046c-.542-5.592-6.149-10.028-12.879-10.028-6.73 0-12.337 4.436-12.879 10.028h25.758z"/>
    <path fill="#231f20" d="M413.597 13.0764c-6.73 0-12.337 4.436-12.879 10.028h25.758c-.542-5.592-6.149-10.028-12.879-10.028m-14.711 11.817v-.894c0-7.011 6.599-12.712 14.711-12.712s14.711 5.701 14.711 12.712v.894h-29.422z"/>
    <path fill="#232323" d="M426.4758 23.1046c-.542-5.592-6.148-10.028-12.879-10.028-6.73 0-12.337 4.436-12.879 10.028h25.758z"/>
    <path fill="#231f20" d="M120.1704 13.0764c-6.73 0-12.337 4.436-12.879 10.028h25.758c-.542-5.592-6.149-10.028-12.879-10.028m-14.711 11.817v-.894c0-7.011 6.599-12.712 14.711-12.712s14.711 5.701 14.711 12.712v.894h-29.422z"/>
    <path fill="#232323" d="M133.0492 23.1046c-.542-5.592-6.149-10.028-12.879-10.028-6.73 0-12.337 4.436-12.879 10.028h25.758z"/>
    <path fill="#231f20" d="M166.2424 18.3923c0-2.931-2.385-5.316-5.319-5.316h-4.909c-2.931 0-5.316 2.385-5.316 5.316v1.396c0 2.931 2.385 5.316 5.316 5.316h4.909c2.934 0 5.319-2.385 5.319-5.316v-1.396zm-5.319 8.501h-4.909c-3.916 0-7.105-3.189-7.105-7.105v-1.396c0-3.916 3.189-7.105 7.105-7.105h4.909c3.919 0 7.108 3.189 7.108 7.105v1.396c0 3.916-3.189 7.105-7.108 7.105"/>
    <path fill="#232323" d="M166.2424 19.7885v-1.396c0-2.931-2.385-5.316-5.319-5.316h-4.909c-2.931 0-5.316 2.385-5.316 5.316v1.396c0 2.931 2.385 5.316 5.316 5.316h4.909c2.934 0 5.319-2.385 5.319-5.316"/>
    <path fill="#231f20" d="M200.7518 18.3923c0-2.931-2.385-5.316-5.316-5.316h-4.908c-2.931 0-5.316 2.385-5.316 5.316v1.396c0 2.931 2.385 5.316 5.316 5.316h4.908c2.931 0 5.316-2.385 5.316-5.316v-1.396zm-5.316 8.501h-4.908c-3.92 0-7.105-3.189-7.105-7.105v-1.396c0-3.916 3.185-7.105 7.105-7.105h4.908c3.92 0 7.105 3.189 7.105 7.105v1.396c0 3.916-3.185 7.105-7.105 7.105"/>
    <path fill="#232323" d="M200.7518 19.7885v-1.396c0-2.931-2.385-5.316-5.316-5.316h-4.908c-2.931 0-5.316 2.385-5.316 5.316v1.396c0 2.931 2.385 5.316 5.316 5.316h4.908c2.931 0 5.316-2.385 5.316-5.316"/>
    <path fill="#231f20" d="M331.5576 17.316c0-2.887-2.349-5.24-5.24-5.24h-5.061c-2.89 0-5.239 2.353-5.239 5.24v1.549c0 2.887 2.349 5.239 5.239 5.239h5.061c2.891 0 5.24-2.352 5.24-5.239v-1.549zm-5.24 8.577h-5.061c-3.876 0-7.028-3.152-7.028-7.028v-1.549c0-3.876 3.152-7.028 7.028-7.028h5.061c3.876 0 7.029 3.152 7.029 7.028v1.549c0 3.876-3.153 7.028-7.029 7.028"/>
    <path fill="#232323" d="M331.5576 18.865v-1.549c0-2.887-2.349-5.239-5.24-5.239h-5.061c-2.89 0-5.239 2.352-5.239 5.239v1.549c0 2.887 2.349 5.24 5.239 5.24h5.061c2.891 0 5.24-2.353 5.24-5.24"/>
    <path fill="#231f20" d="M353.9191 17.4396c0-2.956-2.403-5.363-5.363-5.363h-4.814c-2.96 0-5.363 2.407-5.363 5.363v1.302c0 2.956 2.403 5.363 5.363 5.363h4.814c2.96 0 5.363-2.407 5.363-5.363v-1.302zm-5.363 8.454h-4.814c-3.945 0-7.152-3.207-7.152-7.152v-1.302c0-3.945 3.207-7.152 7.152-7.152h4.814c3.945 0 7.152 3.207 7.152 7.152v1.302c0 3.945-3.207 7.152-7.152 7.152"/>
    <path fill="#232323" d="M353.9191 18.7413v-1.302c0-2.956-2.403-5.363-5.363-5.363h-4.814c-2.96 0-5.363 2.407-5.363 5.363v1.302c0 2.956 2.403 5.363 5.363 5.363h4.814c2.96 0 5.363-2.407 5.363-5.363"/>
    <path fill="#231f20" d="M343.7401 24.8262c-3.355 0-6.084-2.729-6.084-6.084v-1.303c0-3.355 2.729-6.084 6.084-6.084h4.818c3.355 0 6.084 2.729 6.084 6.084v1.303c0 3.355-2.729 6.084-6.084 6.084h-4.818zm4.818-13.817h-4.818c-3.545 0-6.43 2.884-6.43 6.43v1.303c0 3.545 2.885 6.429 6.43 6.429h4.818c3.545 0 6.43-2.884 6.43-6.429v-1.303c0-3.546-2.885-6.43-6.43-6.43"/>
    <path fill="#d0d2d3" d="M161.803 17.909h-6.954v1.636h6.954v-1.636zm30.4969 4.1356v-2.682h-2.636v-1.454h2.636v-2.545h1.318v2.545h2.682v1.364h-2.682v2.772h-1.318zm134.6072-4.9322c0-.84-.687-1.531-1.531-1.531h-2.752c-.844 0-1.535.691-1.535 1.531v1.502c0 .84.691 1.53 1.535 1.53h2.752c.844 0 1.531-.69 1.531-1.53v-1.502zm-1.014 3.887h-3.789c-1.156 0-2.105-.949-2.105-2.105v-2.062c0-1.156.949-2.105 2.108-2.105h3.786c1.159 0 2.105.949 2.105 2.105v2.062c0 1.156-.946 2.105-2.105 2.105"/>
    <path fill="#0f0f12" d="M440.9126 30.8165h-3.727c-2.925 0-5.318 2.393-5.318 5.318 0 2.924 2.393 5.317 5.318 5.317h3.727c2.925 0 5.318-2.393 5.318-5.317 0-2.925-2.393-5.318-5.318-5.318m-345.1657 0h-3.727c-2.925 0-5.318 2.393-5.318 5.318 0 2.924 2.393 5.317 5.318 5.317h3.727c2.925 0 5.318-2.393 5.318-5.317 0-2.925-2.393-5.318-5.318-5.318"/>
    <path fill="#ba8d5e" d="M502.225 47.8149c0 1.28 1.038 2.318 2.318 2.318s2.318-1.038 2.318-2.318-1.038-2.318-2.318-2.318-2.318 1.038-2.318 2.318"/>
    <path fill="#55bfa2" d="M510.6333 72.1763c0 1.28 1.038 2.318 2.318 2.318s2.318-1.038 2.318-2.318-1.038-2.318-2.318-2.318-2.318 1.038-2.318 2.318"/>
    <path fill="#d0d2d3" d="M503.0867 123.3532c-2.258 0-4.087 1.833-4.087 4.091 0 2.257 1.829 4.09 4.087 4.09 2.262 0 4.094-1.833 4.094-4.09 0-2.258-1.832-4.091-4.094-4.091m0 9.635c-3.062 0-5.541-2.483-5.541-5.544 0-3.062 2.479-5.545 5.541-5.545 3.065 0 5.549 2.483 5.549 5.545 0 3.061-2.484 5.544-5.549 5.544m-33.3132 32.59l2.803-4.978h-5.606l2.803 4.978zm0 2.727l-5.454-9.184h10.683l-5.229 9.184zM439.566 124.717h-5.879v5.879h5.879v-5.879zm-7.305-1.636h8.788v9.061h-8.788v-9.061zm37.5125-27.513l3.272 3.272 1.091-1.09-3.348-3.349 3.136-3.136-.969-.969-3.137 3.136-3.181-3.182-1.045 1.046 3.215 3.215-3.242 3.242 1.042 1.042 3.166-3.227z"/>
    <path fill="#0f0f12" d="M65.3574 41.1792c-8.283 0-14.999 6.716-14.999 14.999 0 8.282 6.716 14.998 14.999 14.998 8.283 0 14.999-6.716 14.999-14.998 0-8.283-6.716-14.999-14.999-14.999m0 31.633c-9.188 0-16.635-7.446-16.635-16.634 0-9.189 7.447-16.635 16.635-16.635 9.188 0 16.635 7.446 16.635 16.635 0 9.188-7.447 16.634-16.635 16.634"/>
    <path fill="#232323" d="M80.356 56.1778c0-8.283-6.716-14.999-14.999-14.999-8.282 0-14.998 6.716-14.998 14.999 0 8.283 6.716 14.999 14.998 14.999 8.283 0 14.999-6.716 14.999-14.999"/>
    <path fill="#55bfa2" d="M25.3158 47.724c0 1.431 1.16 2.591 2.591 2.591 1.43 0 2.59-1.16 2.59-2.591 0-1.431-1.16-2.591-2.59-2.591-1.431 0-2.591 1.16-2.591 2.591"/>
    <path fill="#f6921e" d="M16.9075 72.1763c0 1.406 1.14 2.545 2.545 2.545 1.406 0 2.545-1.139 2.545-2.545s-1.139-2.545-2.545-2.545c-1.405 0-2.545 1.139-2.545 2.545"/>
    <path fill="#0f0f12" d="M101.2195 135.9884v-17.758c0-1.873-1.52-3.393-3.392-3.393h-14.054c-.585 0-1.149.237-1.563.651l-9.127 9.225c-1.33 1.32-1.334 3.468-.014 4.796l9.166 9.206c.426.425 1 .665 1.6.665h13.992c1.872 0 3.392-1.519 3.392-3.392m-25.343-46.836c.658.662 1.065 1.575 1.065 2.582v15.097c0 .651-.258 1.269-.716 1.727l-9.934 9.89c-1.436 1.425-3.752 1.422-5.181-.011l-9.948-9.854c-.451-.443-.705-1.054-.705-1.687v-15.162c0-1.174.552-2.218 1.41-2.887-12.471 3.771-22.343 13.515-26.295 25.907.64-.553 1.476-.888 2.388-.888h15.097c.651 0 1.269.259 1.727.717l9.89 9.933c1.426 1.437 1.422 3.753-.011 5.182l-9.853 9.948c-.444.451-1.055.705-1.687.705h-15.163c-.803 0-1.545-.258-2.148-.694 4.021 11.795 13.442 21.092 25.317 24.939-.425-.596-.672-1.327-.672-2.112v-15.097c0-.651.258-1.269.716-1.727l9.933-9.89c1.437-1.425 3.753-1.422 5.182.011l9.948 9.853c.451.444.705 1.055.705 1.687v15.163c0 .672-.182 1.305-.501 1.847 11.537-4.011 20.648-13.203 24.561-24.783-.629.501-1.425.803-2.291.803h-15.097c-.65 0-1.269-.258-1.727-.716l-9.89-9.934c-1.425-1.436-1.421-3.752.011-5.181l9.854-9.948c.443-.451 1.054-.706 1.687-.706h15.162c.985 0 1.88.39 2.538 1.026-3.821-12.134-13.315-21.751-25.372-25.74m-3.298.073h-17.758c-1.873 0-3.393 1.52-3.393 3.393v14.053c0 .585.237 1.149.651 1.563l9.225 9.127c1.32 1.33 3.469 1.334 4.796.014l9.206-9.166c.426-.426.665-1 .665-1.6v-13.991c0-1.873-1.519-3.393-3.392-3.393m-47.126 46.763c0 1.873 1.519 3.392 3.392 3.392h14.053c.586 0 1.149-.236 1.564-.65l9.126-9.225c1.331-1.32 1.335-3.469.015-4.796l-9.167-9.206c-.425-.426-1-.666-1.6-.666h-13.991c-1.873 0-3.392 1.52-3.392 3.393v17.758zm25.975 25.612c0 1.873 1.52 3.393 3.393 3.393h17.758c1.873 0 3.392-1.52 3.392-3.393v-14.053c0-.586-.236-1.149-.65-1.564l-9.225-9.126c-1.32-1.331-3.469-1.334-4.796-.015l-9.206 9.167c-.426.425-.666 1-.666 1.6v13.991zm11.959 6.203c-22.623 0-40.963-18.34-40.963-40.967 0-22.623 18.34-40.963 40.963-40.963 22.627 0 40.967 18.34 40.967 40.963 0 22.627-18.34 40.967-40.967 40.967"/>
    <path fill="#232323" d="M53.6022 124.7094l-9.166-9.206c-.426-.426-1-.666-1.6-.666h-13.992c-1.872 0-3.392 1.52-3.392 3.393v17.758c0 1.872 1.52 3.392 3.392 3.392h14.054c.585 0 1.149-.236 1.563-.651l9.126-9.224c1.331-1.32 1.335-3.469.015-4.796"/>
    <path fill="#d0d2d3" d="M34.8222 124.5058l-2.342 2.531 2.342 2.338v-4.869zm-4.007 2.847v-.454l5.181-5.182v10.636l-5.181-5z"/>
    <path fill="#232323" d="M101.2195 135.9884v-17.758c0-1.873-1.52-3.393-3.392-3.393h-14.054c-.585 0-1.149.237-1.563.651l-9.127 9.225c-1.33 1.32-1.334 3.468-.014 4.796l9.166 9.206c.426.425 1 .665 1.6.665h13.992c1.872 0 3.392-1.519 3.392-3.392"/>
    <path fill="#d0d2d3" d="M91.8492 129.7126l2.342-2.531-2.342-2.338v4.869zm4.007-2.847v.454l-5.181 5.182v-10.636l5.181 5z"/>
    <path fill="#232323" d="M75.9709 161.6004v-14.053c0-.586-.236-1.149-.651-1.564l-9.224-9.126c-1.32-1.331-3.469-1.334-4.796-.015l-9.207 9.167c-.425.425-.665 1-.665 1.6v13.991c0 1.873 1.52 3.392 3.392 3.392h17.759c1.872 0 3.392-1.519 3.392-3.392"/>
    <path fill="#d0d2d3" d="M61.0959 155.6227l2.531 2.342 2.338-2.342h-4.869zm2.847 4.007h-.454l-5.182-5.181h10.636l-5 5.181z"/>
    <path fill="#232323" d="M75.9709 106.6093v-13.991c0-1.873-1.52-3.393-3.392-3.393h-17.759c-1.872 0-3.392 1.52-3.392 3.393v14.053c0 .585.236 1.149.651 1.563l9.224 9.127c1.32 1.33 3.469 1.334 4.796.014l9.207-9.166c.425-.426.665-1 .665-1.6"/>
    <path fill="#d0d2d3" d="M66.3027 98.5957l-2.531-2.342-2.338 2.342h4.869zm-2.847-4.007h.454l5.182 5.181h-10.636l5-5.181z"/>
    <path fill="#0f0f12" d="M89.8703 217.4352c0 .837.678 1.515 1.515 1.515.837 0 1.515-.678 1.515-1.515 0-.837-.678-1.515-1.515-1.515-.837 0-1.515.678-1.515 1.515m3.2724 4.2268c0 .837.678 1.515 1.515 1.515.837 0 1.515-.678 1.515-1.515 0-.837-.678-1.515-1.515-1.515-.837 0-1.515.678-1.515 1.515m4.9086 0c0 .837.678 1.515 1.515 1.515.837 0 1.515-.678 1.515-1.515 0-.837-.678-1.515-1.515-1.515-.837 0-1.515.678-1.515 1.515m5.0298 0c0 .837.678 1.515 1.515 1.515.837 0 1.515-.678 1.515-1.515 0-.837-.678-1.515-1.515-1.515-.837 0-1.515.678-1.515 1.515m4.7571 0c0 .837.678 1.515 1.515 1.515.837 0 1.515-.678 1.515-1.515 0-.837-.678-1.515-1.515-1.515-.837 0-1.515.678-1.515 1.515m4.7572 0c0 .837.678 1.515 1.515 1.515.837 0 1.515-.678 1.515-1.515 0-.837-.678-1.515-1.515-1.515-.837 0-1.515.678-1.515 1.515m4.7874 0c0 .837.678 1.515 1.515 1.515.837 0 1.515-.678 1.515-1.515 0-.837-.678-1.515-1.515-1.515-.837 0-1.515.678-1.515 1.515m4.9086 0c0 .837.678 1.515 1.515 1.515.837 0 1.515-.678 1.515-1.515 0-.837-.678-1.515-1.515-1.515-.837 0-1.515.678-1.515 1.515m4.545 0c0 .837.678 1.515 1.515 1.515.837 0 1.515-.678 1.515-1.515 0-.837-.678-1.515-1.515-1.515-.837 0-1.515.678-1.515 1.515m4.9541 0c0 .837.678 1.515 1.515 1.515.837 0 1.515-.678 1.515-1.515 0-.837-.678-1.515-1.515-1.515-.837 0-1.515.678-1.515 1.515m4.5905 0c0 .837.678 1.515 1.515 1.515.837 0 1.515-.678 1.515-1.515 0-.837-.678-1.515-1.515-1.515-.837 0-1.515.678-1.515 1.515m4.9995 0c0 .837.678 1.515 1.515 1.515.837 0 1.515-.678 1.515-1.515 0-.837-.678-1.515-1.515-1.515-.837 0-1.515.678-1.515 1.515m4.9086 0c0 .837.678 1.515 1.515 1.515.837 0 1.515-.678 1.515-1.515 0-.837-.678-1.515-1.515-1.515-.837 0-1.515.678-1.515 1.515m4.8178 0c0 .837.678 1.515 1.515 1.515.837 0 1.515-.678 1.515-1.515 0-.837-.678-1.515-1.515-1.515-.837 0-1.515.678-1.515 1.515m4.5904 0c0 .837.678 1.515 1.515 1.515.837 0 1.515-.678 1.515-1.515 0-.837-.678-1.515-1.515-1.515-.837 0-1.515.678-1.515 1.515m5.0905 0c0 .837.678 1.515 1.515 1.515.837 0 1.515-.678 1.515-1.515 0-.837-.678-1.515-1.515-1.515-.837 0-1.515.678-1.515 1.515m4.5904 0c0 .837.678 1.515 1.515 1.515.837 0 1.515-.678 1.515-1.515 0-.837-.678-1.515-1.515-1.515-.837 0-1.515.678-1.515 1.515m4.7874 0c0 .837.678 1.515 1.515 1.515.837 0 1.515-.678 1.515-1.515 0-.837-.678-1.515-1.515-1.515-.837 0-1.515.678-1.515 1.515m4.9087 0c0 .837.678 1.515 1.515 1.515.837 0 1.515-.678 1.515-1.515 0-.837-.678-1.515-1.515-1.515-.837 0-1.515.678-1.515 1.515m4.545 0c0 .837.678 1.515 1.515 1.515.837 0 1.515-.678 1.515-1.515 0-.837-.678-1.515-1.515-1.515-.837 0-1.515.678-1.515 1.515m5.0298 0c0 .837.678 1.515 1.515 1.515.837 0 1.515-.678 1.515-1.515 0-.837-.678-1.515-1.515-1.515-.837 0-1.515.678-1.515 1.515m4.9692 0c0 .837.678 1.515 1.515 1.515.837 0 1.515-.678 1.515-1.515 0-.837-.678-1.515-1.515-1.515-.837 0-1.515.678-1.515 1.515m4.5299 0c0 .837.678 1.515 1.515 1.515.837 0 1.515-.678 1.515-1.515 0-.837-.678-1.515-1.515-1.515-.837 0-1.515.678-1.515 1.515m4.8177 0c0 .837.678 1.515 1.515 1.515.837 0 1.515-.678 1.515-1.515 0-.837-.678-1.515-1.515-1.515-.837 0-1.515.678-1.515 1.515m4.8632 0c0 .837.678 1.515 1.515 1.515.837 0 1.515-.678 1.515-1.515 0-.837-.678-1.515-1.515-1.515-.837 0-1.515.678-1.515 1.515m4.6359 0c0 .837.678 1.515 1.515 1.515.837 0 1.515-.678 1.515-1.515 0-.837-.678-1.515-1.515-1.515-.837 0-1.515.678-1.515 1.515m4.9087 0c0 .837.678 1.515 1.515 1.515.837 0 1.515-.678 1.515-1.515 0-.837-.678-1.515-1.515-1.515-.837 0-1.515.678-1.515 1.515m4.8177 0c0 .837.678 1.515 1.515 1.515.837 0 1.515-.678 1.515-1.515 0-.837-.678-1.515-1.515-1.515-.837 0-1.515.678-1.515 1.515m4.8177 0c0 .837.678 1.515 1.515 1.515.837 0 1.515-.678 1.515-1.515 0-.837-.678-1.515-1.515-1.515-.837 0-1.515.678-1.515 1.515m4.8177 0c0 .837.678 1.515 1.515 1.515.837 0 1.515-.678 1.515-1.515 0-.837-.678-1.515-1.515-1.515-.837 0-1.515.678-1.515 1.515m4.636 0c0 .837.678 1.515 1.515 1.515.837 0 1.515-.678 1.515-1.515 0-.837-.678-1.515-1.515-1.515-.837 0-1.515.678-1.515 1.515m4.8631 0c0 .837.678 1.515 1.515 1.515.837 0 1.515-.678 1.515-1.515 0-.837-.678-1.515-1.515-1.515-.837 0-1.515.678-1.515 1.515m4.9541 0c0 .837.678 1.515 1.515 1.515.837 0 1.515-.678 1.515-1.515 0-.837-.678-1.515-1.515-1.515-.837 0-1.515.678-1.515 1.515m4.6359 0c0 .837.678 1.515 1.515 1.515.837 0 1.515-.678 1.515-1.515 0-.837-.678-1.515-1.515-1.515-.837 0-1.515.678-1.515 1.515m4.6814 0c0 .837.678 1.515 1.515 1.515.837 0 1.515-.678 1.515-1.515 0-.837-.678-1.515-1.515-1.515-.837 0-1.515.678-1.515 1.515m4.9995 0c0 .837.678 1.515 1.515 1.515.837 0 1.515-.678 1.515-1.515 0-.837-.678-1.515-1.515-1.515-.837 0-1.515.678-1.515 1.515m176.2484 0c0-.837-.678-1.515-1.515-1.515-.837 0-1.515.678-1.515 1.515 0 .837.678 1.515 1.515 1.515.837 0 1.515-.678 1.515-1.515m4.5072 0c0-.837-.678-1.515-1.515-1.515-.837 0-1.515.678-1.515 1.515 0 .837.678 1.515 1.515 1.515.837 0 1.515-.678 1.515-1.515m-9.4158 0c0-.837-.678-1.515-1.515-1.515-.837 0-1.515.678-1.515 1.515 0 .837.678 1.515 1.515 1.515.837 0 1.515-.678 1.515-1.515m-5.0298 0c0-.837-.678-1.515-1.515-1.515-.837 0-1.515.678-1.515 1.515 0 .837.678 1.515 1.515 1.515.837 0 1.515-.678 1.515-1.515m-4.7571 0c0-.837-.678-1.515-1.515-1.515-.837 0-1.515.678-1.515 1.515 0 .837.678 1.515 1.515 1.515.837 0 1.515-.678 1.515-1.515m-4.7572 0c0-.837-.678-1.515-1.515-1.515-.837 0-1.515.678-1.515 1.515 0 .837.678 1.515 1.515 1.515.837 0 1.515-.678 1.515-1.515m-4.7874 0c0-.837-.678-1.515-1.515-1.515-.837 0-1.515.678-1.515 1.515 0 .837.678 1.515 1.515 1.515.837 0 1.515-.678 1.515-1.515m-4.9086 0c0-.837-.678-1.515-1.515-1.515-.837 0-1.515.678-1.515 1.515 0 .837.678 1.515 1.515 1.515.837 0 1.515-.678 1.515-1.515m-4.545 0c0-.837-.678-1.515-1.515-1.515-.837 0-1.515.678-1.515 1.515 0 .837.678 1.515 1.515 1.515.837 0 1.515-.678 1.515-1.515m-4.9541 0c0-.837-.678-1.515-1.515-1.515-.837 0-1.515.678-1.515 1.515 0 .837.678 1.515 1.515 1.515.837 0 1.515-.678 1.515-1.515m-4.5905 0c0-.837-.678-1.515-1.515-1.515-.837 0-1.515.678-1.515 1.515 0 .837.678 1.515 1.515 1.515.837 0 1.515-.678 1.515-1.515m-4.9995 0c0-.837-.678-1.515-1.515-1.515-.837 0-1.515.678-1.515 1.515 0 .837.678 1.515 1.515 1.515.837 0 1.515-.678 1.515-1.515m-4.9086 0c0-.837-.678-1.515-1.515-1.515-.837 0-1.515.678-1.515 1.515 0 .837.678 1.515 1.515 1.515.837 0 1.515-.678 1.515-1.515m-4.8178 0c0-.837-.678-1.515-1.515-1.515-.837 0-1.515.678-1.515 1.515 0 .837.678 1.515 1.515 1.515.837 0 1.515-.678 1.515-1.515m-4.5904 0c0-.837-.678-1.515-1.515-1.515-.837 0-1.515.678-1.515 1.515 0 .837.678 1.515 1.515 1.515.837 0 1.515-.678 1.515-1.515m-5.0905 0c0-.837-.678-1.515-1.515-1.515-.837 0-1.515.678-1.515 1.515 0 .837.678 1.515 1.515 1.515.837 0 1.515-.678 1.515-1.515m-4.5904 0c0-.837-.678-1.515-1.515-1.515-.837 0-1.515.678-1.515 1.515 0 .837.678 1.515 1.515 1.515.837 0 1.515-.678 1.515-1.515m-4.7875 0c0-.837-.678-1.515-1.515-1.515-.837 0-1.515.678-1.515 1.515 0 .837.678 1.515 1.515 1.515.837 0 1.515-.678 1.515-1.515m-4.9086 0c0-.837-.678-1.515-1.515-1.515-.837 0-1.515.678-1.515 1.515 0 .837.678 1.515 1.515 1.515.837 0 1.515-.678 1.515-1.515m-4.545 0c0-.837-.678-1.515-1.515-1.515-.837 0-1.515.678-1.515 1.515 0 .837.678 1.515 1.515 1.515.837 0 1.515-.678 1.515-1.515m-5.0298 0c0-.837-.678-1.515-1.515-1.515-.837 0-1.515.678-1.515 1.515 0 .837.678 1.515 1.515 1.515.837 0 1.515-.678 1.515-1.515m-4.9693 0c0-.837-.678-1.515-1.515-1.515-.837 0-1.515.678-1.515 1.515 0 .837.678 1.515 1.515 1.515.837 0 1.515-.678 1.515-1.515m-4.5298 0c0-.837-.678-1.515-1.515-1.515-.837 0-1.515.678-1.515 1.515 0 .837.678 1.515 1.515 1.515.837 0 1.515-.678 1.515-1.515m-4.8178 0c0-.837-.678-1.515-1.515-1.515-.837 0-1.515.678-1.515 1.515 0 .837.678 1.515 1.515 1.515.837 0 1.515-.678 1.515-1.515m-4.8631 0c0-.837-.678-1.515-1.515-1.515-.837 0-1.515.678-1.515 1.515 0 .837.678 1.515 1.515 1.515.837 0 1.515-.678 1.515-1.515m-4.6359 0c0-.837-.678-1.515-1.515-1.515-.837 0-1.515.678-1.515 1.515 0 .837.678 1.515 1.515 1.515.837 0 1.515-.678 1.515-1.515m-4.9087 0c0-.837-.678-1.515-1.515-1.515-.837 0-1.515.678-1.515 1.515 0 .837.678 1.515 1.515 1.515.837 0 1.515-.678 1.515-1.515m-4.8177 0c0-.837-.678-1.515-1.515-1.515-.837 0-1.515.678-1.515 1.515 0 .837.678 1.515 1.515 1.515.837 0 1.515-.678 1.515-1.515m-4.8177 0c0-.837-.678-1.515-1.515-1.515-.837 0-1.515.678-1.515 1.515 0 .837.678 1.515 1.515 1.515.837 0 1.515-.678 1.515-1.515m-4.8177 0c0-.837-.678-1.515-1.515-1.515-.837 0-1.515.678-1.515 1.515 0 .837.678 1.515 1.515 1.515.837 0 1.515-.678 1.515-1.515m-4.636 0c0-.837-.678-1.515-1.515-1.515-.837 0-1.515.678-1.515 1.515 0 .837.678 1.515 1.515 1.515.837 0 1.515-.678 1.515-1.515m-4.8631 0c0-.837-.678-1.515-1.515-1.515-.837 0-1.515.678-1.515 1.515 0 .837.678 1.515 1.515 1.515.837 0 1.515-.678 1.515-1.515m-4.9541 0c0-.837-.678-1.515-1.515-1.515-.837 0-1.515.678-1.515 1.515 0 .837.678 1.515 1.515 1.515.837 0 1.515-.678 1.515-1.515m-4.6359 0c0-.837-.678-1.515-1.515-1.515-.837 0-1.515.678-1.515 1.515 0 .837.678 1.515 1.515 1.515.837 0 1.515-.678 1.515-1.515m-4.6814 0c0-.837-.678-1.515-1.515-1.515-.837 0-1.515.678-1.515 1.515 0 .837.678 1.515 1.515 1.515.837 0 1.515-.678 1.515-1.515m-4.9995 0c0-.837-.678-1.515-1.515-1.515-.837 0-1.515.678-1.515 1.515 0 .837.678 1.515 1.515 1.515.837 0 1.515-.678 1.515-1.515m-8.0677 0c0 .837.678 1.515 1.515 1.515.837 0 1.515-.678 1.515-1.515 0-.837-.678-1.515-1.515-1.515-.837 0-1.515.678-1.515 1.515m-18.7858 3.8936c0 .837.678 1.515 1.515 1.515.837 0 1.515-.678 1.515-1.515 0-.837-.678-1.515-1.515-1.515-.837 0-1.515.678-1.515 1.515m4.6359 0c0 .837.678 1.515 1.515 1.515.837 0 1.515-.678 1.515-1.515 0-.837-.678-1.515-1.515-1.515-.837 0-1.515.678-1.515 1.515m4.6813 0c0 .837.678 1.515 1.515 1.515.837 0 1.515-.678 1.515-1.515 0-.837-.678-1.515-1.515-1.515-.837 0-1.515.678-1.515 1.515m4.9996 0c0 .837.678 1.515 1.515 1.515.837 0 1.515-.678 1.515-1.515 0-.837-.678-1.515-1.515-1.515-.837 0-1.515.678-1.515 1.515m173.7032 0c0-.837-.678-1.515-1.515-1.515-.837 0-1.515.678-1.515 1.515 0 .837.678 1.515 1.515 1.515.837 0 1.515-.678 1.515-1.515m4.5071 0c0-.837-.678-1.515-1.515-1.515-.837 0-1.515.678-1.515 1.515 0 .837.678 1.515 1.515 1.515.837 0 1.515-.678 1.515-1.515m-9.4158 0c0-.837-.678-1.515-1.515-1.515-.837 0-1.515.678-1.515 1.515 0 .837.678 1.515 1.515 1.515.837 0 1.515-.678 1.515-1.515m-5.0298 0c0-.837-.678-1.515-1.515-1.515-.837 0-1.515.678-1.515 1.515 0 .837.678 1.515 1.515 1.515.837 0 1.515-.678 1.515-1.515m-4.7571 0c0-.837-.678-1.515-1.515-1.515-.837 0-1.515.678-1.515 1.515 0 .837.678 1.515 1.515 1.515.837 0 1.515-.678 1.515-1.515m-4.3935 0c0-.837-.678-1.515-1.515-1.515-.837 0-1.515.678-1.515 1.515 0 .837.678 1.515 1.515 1.515.837 0 1.515-.678 1.515-1.515m-4.7875 0c0-.837-.678-1.515-1.515-1.515-.837 0-1.515.678-1.515 1.515 0 .837.678 1.515 1.515 1.515.837 0 1.515-.678 1.515-1.515m-4.9086 0c0-.837-.678-1.515-1.515-1.515-.837 0-1.515.678-1.515 1.515 0 .837.678 1.515 1.515 1.515.837 0 1.515-.678 1.515-1.515m-4.545 0c0-.837-.678-1.515-1.515-1.515-.837 0-1.515.678-1.515 1.515 0 .837.678 1.515 1.515 1.515.837 0 1.515-.678 1.515-1.515m-4.9541 0c0-.837-.678-1.515-1.515-1.515-.837 0-1.515.678-1.515 1.515 0 .837.678 1.515 1.515 1.515.837 0 1.515-.678 1.515-1.515m-4.5904 0c0-.837-.678-1.515-1.515-1.515-.837 0-1.515.678-1.515 1.515 0 .837.678 1.515 1.515 1.515.837 0 1.515-.678 1.515-1.515m-4.636 0c0-.837-.678-1.515-1.515-1.515-.837 0-1.515.678-1.515 1.515 0 .837.678 1.515 1.515 1.515.837 0 1.515-.678 1.515-1.515m-4.9086 0c0-.837-.678-1.515-1.515-1.515-.837 0-1.515.678-1.515 1.515 0 .837.678 1.515 1.515 1.515.837 0 1.515-.678 1.515-1.515m-4.8177 0c0-.837-.678-1.515-1.515-1.515-.837 0-1.515.678-1.515 1.515 0 .837.678 1.515 1.515 1.515.837 0 1.515-.678 1.515-1.515m-4.5905 0c0-.837-.678-1.515-1.515-1.515-.837 0-1.515.678-1.515 1.515 0 .837.678 1.515 1.515 1.515.837 0 1.515-.678 1.515-1.515m-4.7268 0c0-.837-.678-1.515-1.515-1.515-.837 0-1.515.678-1.515 1.515 0 .837.678 1.515 1.515 1.515.837 0 1.515-.678 1.515-1.515m-4.5905 0c0-.837-.678-1.515-1.515-1.515-.837 0-1.515.678-1.515 1.515 0 .837.678 1.515 1.515 1.515.837 0 1.515-.678 1.515-1.515m-4.7874 0c0-.837-.678-1.515-1.515-1.515-.837 0-1.515.678-1.515 1.515 0 .837.678 1.515 1.515 1.515.837 0 1.515-.678 1.515-1.515m-4.9086 0c0-.837-.678-1.515-1.515-1.515-.837 0-1.515.678-1.515 1.515 0 .837.678 1.515 1.515 1.515.837 0 1.515-.678 1.515-1.515m-4.545 0c0-.837-.678-1.515-1.515-1.515-.837 0-1.515.678-1.515 1.515 0 .837.678 1.515 1.515 1.515.837 0 1.515-.678 1.515-1.515m-4.6663 0c0-.837-.678-1.515-1.515-1.515-.837 0-1.515.678-1.515 1.515 0 .837.678 1.515 1.515 1.515.837 0 1.515-.678 1.515-1.515m-4.9692 0c0-.837-.678-1.515-1.515-1.515-.837 0-1.515.678-1.515 1.515 0 .837.678 1.515 1.515 1.515.837 0 1.515-.678 1.515-1.515m-4.5299 0c0-.837-.678-1.515-1.515-1.515-.837 0-1.515.678-1.515 1.515 0 .837.678 1.515 1.515 1.515.837 0 1.515-.678 1.515-1.515m-4.8177 0c0-.837-.678-1.515-1.515-1.515-.837 0-1.515.678-1.515 1.515 0 .837.678 1.515 1.515 1.515.837 0 1.515-.678 1.515-1.515m-4.8632 0c0-.837-.678-1.515-1.515-1.515-.837 0-1.515.678-1.515 1.515 0 .837.678 1.515 1.515 1.515.837 0 1.515-.678 1.515-1.515m-4.6359 0c0-.837-.678-1.515-1.515-1.515-.837 0-1.515.678-1.515 1.515 0 .837.678 1.515 1.515 1.515.837 0 1.515-.678 1.515-1.515m-4.9086 0c0-.837-.678-1.515-1.515-1.515-.837 0-1.515.678-1.515 1.515 0 .837.678 1.515 1.515 1.515.837 0 1.515-.678 1.515-1.515m-4.4542 0c0-.837-.678-1.515-1.515-1.515-.837 0-1.515.678-1.515 1.515 0 .837.678 1.515 1.515 1.515.837 0 1.515-.678 1.515-1.515m-4.8177 0c0-.837-.678-1.515-1.515-1.515-.837 0-1.515.678-1.515 1.515 0 .837.678 1.515 1.515 1.515.837 0 1.515-.678 1.515-1.515m-4.8177 0c0-.837-.678-1.515-1.515-1.515-.837 0-1.515.678-1.515 1.515 0 .837.678 1.515 1.515 1.515.837 0 1.515-.678 1.515-1.515m-4.6359 0c0-.837-.678-1.515-1.515-1.515-.837 0-1.515.678-1.515 1.515 0 .837.678 1.515 1.515 1.515.837 0 1.515-.678 1.515-1.515m-4.8632 0c0-.837-.678-1.515-1.515-1.515-.837 0-1.515.678-1.515 1.515 0 .837.678 1.515 1.515 1.515.837 0 1.515-.678 1.515-1.515m-4.5905 0c0-.837-.678-1.515-1.515-1.515-.837 0-1.515.678-1.515 1.515 0 .837.678 1.515 1.515 1.515.837 0 1.515-.678 1.515-1.515m-4.9995 0c0-.837-.678-1.515-1.515-1.515-.837 0-1.515.678-1.515 1.515 0 .837.678 1.515 1.515 1.515.837 0 1.515-.678 1.515-1.515m-4.4923 0c0-.837-.678-1.515-1.515-1.515-.837 0-1.515.678-1.515 1.515 0 .837.678 1.515 1.515 1.515.837 0 1.515-.678 1.515-1.515m-4.825 0c0-.837-.678-1.515-1.515-1.515-.837 0-1.515.678-1.515 1.515 0 .837.678 1.515 1.515 1.515.837 0 1.515-.678 1.515-1.515m-7.7041 0c0 .837.678 1.515 1.515 1.515.837 0 1.515-.678 1.515-1.515 0-.837-.678-1.515-1.515-1.515-.837 0-1.515.678-1.515 1.515m-161.1851.0606c0 .837.678 1.515 1.515 1.515.837 0 1.515-.678 1.515-1.515 0-.837-.678-1.515-1.515-1.515-.837 0-1.515.678-1.515 1.515m-4.5072 0c0 .837.678 1.515 1.515 1.515.837 0 1.515-.678 1.515-1.515 0-.837-.678-1.515-1.515-1.515-.837 0-1.515.678-1.515 1.515m9.4158 0c0 .837.678 1.515 1.515 1.515.837 0 1.515-.678 1.515-1.515 0-.837-.678-1.515-1.515-1.515-.837 0-1.515.678-1.515 1.515m5.0298 0c0 .837.678 1.515 1.515 1.515.837 0 1.515-.678 1.515-1.515 0-.837-.678-1.515-1.515-1.515-.837 0-1.515.678-1.515 1.515m4.7571 0c0 .837.678 1.515 1.515 1.515.837 0 1.515-.678 1.515-1.515 0-.837-.678-1.515-1.515-1.515-.837 0-1.515.678-1.515 1.515m4.3936 0c0 .837.678 1.515 1.515 1.515.837 0 1.515-.678 1.515-1.515 0-.837-.678-1.515-1.515-1.515-.837 0-1.515.678-1.515 1.515m4.7874 0c0 .837.678 1.515 1.515 1.515.837 0 1.515-.678 1.515-1.515 0-.837-.678-1.515-1.515-1.515-.837 0-1.515.678-1.515 1.515m4.9086 0c0 .837.678 1.515 1.515 1.515.837 0 1.515-.678 1.515-1.515 0-.837-.678-1.515-1.515-1.515-.837 0-1.515.678-1.515 1.515m4.545 0c0 .837.678 1.515 1.515 1.515.837 0 1.515-.678 1.515-1.515 0-.837-.678-1.515-1.515-1.515-.837 0-1.515.678-1.515 1.515m4.9541 0c0 .837.678 1.515 1.515 1.515.837 0 1.515-.678 1.515-1.515 0-.837-.678-1.515-1.515-1.515-.837 0-1.515.678-1.515 1.515m4.5905 0c0 .837.678 1.515 1.515 1.515.837 0 1.515-.678 1.515-1.515 0-.837-.678-1.515-1.515-1.515-.837 0-1.515.678-1.515 1.515m4.6359 0c0 .837.678 1.515 1.515 1.515.837 0 1.515-.678 1.515-1.515 0-.837-.678-1.515-1.515-1.515-.837 0-1.515.678-1.515 1.515m4.9086 0c0 .837.678 1.515 1.515 1.515.837 0 1.515-.678 1.515-1.515 0-.837-.678-1.515-1.515-1.515-.837 0-1.515.678-1.515 1.515m4.8177 0c0 .837.678 1.515 1.515 1.515.837 0 1.515-.678 1.515-1.515 0-.837-.678-1.515-1.515-1.515-.837 0-1.515.678-1.515 1.515m4.5905 0c0 .837.678 1.515 1.515 1.515.837 0 1.515-.678 1.515-1.515 0-.837-.678-1.515-1.515-1.515-.837 0-1.515.678-1.515 1.515m4.7268 0c0 .837.678 1.515 1.515 1.515.837 0 1.515-.678 1.515-1.515 0-.837-.678-1.515-1.515-1.515-.837 0-1.515.678-1.515 1.515m4.5905 0c0 .837.678 1.515 1.515 1.515.837 0 1.515-.678 1.515-1.515 0-.837-.678-1.515-1.515-1.515-.837 0-1.515.678-1.515 1.515m4.7874 0c0 .837.678 1.515 1.515 1.515.837 0 1.515-.678 1.515-1.515 0-.837-.678-1.515-1.515-1.515-.837 0-1.515.678-1.515 1.515m4.9087 0c0 .837.678 1.515 1.515 1.515.837 0 1.515-.678 1.515-1.515 0-.837-.678-1.515-1.515-1.515-.837 0-1.515.678-1.515 1.515m4.545 0c0 .837.678 1.515 1.515 1.515.837 0 1.515-.678 1.515-1.515 0-.837-.678-1.515-1.515-1.515-.837 0-1.515.678-1.515 1.515m4.6662 0c0 .837.678 1.515 1.515 1.515.837 0 1.515-.678 1.515-1.515 0-.837-.678-1.515-1.515-1.515-.837 0-1.515.678-1.515 1.515m4.9692 0c0 .837.678 1.515 1.515 1.515.837 0 1.515-.678 1.515-1.515 0-.837-.678-1.515-1.515-1.515-.837 0-1.515.678-1.515 1.515m4.5299 0c0 .837.678 1.515 1.515 1.515.837 0 1.515-.678 1.515-1.515 0-.837-.678-1.515-1.515-1.515-.837 0-1.515.678-1.515 1.515m4.8177 0c0 .837.678 1.515 1.515 1.515.837 0 1.515-.678 1.515-1.515 0-.837-.678-1.515-1.515-1.515-.837 0-1.515.678-1.515 1.515m4.8632 0c0 .837.678 1.515 1.515 1.515.837 0 1.515-.678 1.515-1.515 0-.837-.678-1.515-1.515-1.515-.837 0-1.515.678-1.515 1.515m4.6359 0c0 .837.678 1.515 1.515 1.515.837 0 1.515-.678 1.515-1.515 0-.837-.678-1.515-1.515-1.515-.837 0-1.515.678-1.515 1.515m4.9086 0c0 .837.678 1.515 1.515 1.515.837 0 1.515-.678 1.515-1.515 0-.837-.678-1.515-1.515-1.515-.837 0-1.515.678-1.515 1.515m4.4542 0c0 .837.678 1.515 1.515 1.515.837 0 1.515-.678 1.515-1.515 0-.837-.678-1.515-1.515-1.515-.837 0-1.515.678-1.515 1.515m4.8177 0c0 .837.678 1.515 1.515 1.515.837 0 1.515-.678 1.515-1.515 0-.837-.678-1.515-1.515-1.515-.837 0-1.515.678-1.515 1.515m4.8177 0c0 .837.678 1.515 1.515 1.515.837 0 1.515-.678 1.515-1.515 0-.837-.678-1.515-1.515-1.515-.837 0-1.515.678-1.515 1.515m4.6359 0c0 .837.678 1.515 1.515 1.515.837 0 1.515-.678 1.515-1.515 0-.837-.678-1.515-1.515-1.515-.837 0-1.515.678-1.515 1.515m-143.2401-8.181c0 .837.678 1.515 1.515 1.515.837 0 1.515-.678 1.515-1.515 0-.837-.678-1.515-1.515-1.515-.837 0-1.515.678-1.515 1.515m4.9086 0c0 .837.678 1.515 1.515 1.515.837 0 1.515-.678 1.515-1.515 0-.837-.678-1.515-1.515-1.515-.837 0-1.515.678-1.515 1.515m5.0298 0c0 .837.678 1.515 1.515 1.515.837 0 1.515-.678 1.515-1.515 0-.837-.678-1.515-1.515-1.515-.837 0-1.515.678-1.515 1.515m4.9693 0c0 .837.678 1.515 1.515 1.515.837 0 1.515-.678 1.515-1.515 0-.837-.678-1.515-1.515-1.515-.837 0-1.515.678-1.515 1.515m4.7874 0c0 .837.678 1.515 1.515 1.515.837 0 1.515-.678 1.515-1.515 0-.837-.678-1.515-1.515-1.515-.837 0-1.515.678-1.515 1.515m4.9086 0c0 .837.678 1.515 1.515 1.515.837 0 1.515-.678 1.515-1.515 0-.837-.678-1.515-1.515-1.515-.837 0-1.515.678-1.515 1.515m5.0298 0c0 .837.678 1.515 1.515 1.515.837 0 1.515-.678 1.515-1.515 0-.837-.678-1.515-1.515-1.515-.837 0-1.515.678-1.515 1.515m4.7268 0c0 .837.678 1.515 1.515 1.515.837 0 1.515-.678 1.515-1.515 0-.837-.678-1.515-1.515-1.515-.837 0-1.515.678-1.515 1.515m4.7875 0c0 .837.678 1.515 1.515 1.515.837 0 1.515-.678 1.515-1.515 0-.837-.678-1.515-1.515-1.515-.837 0-1.515.678-1.515 1.515m4.9086 0c0 .837.678 1.515 1.515 1.515.837 0 1.515-.678 1.515-1.515 0-.837-.678-1.515-1.515-1.515-.837 0-1.515.678-1.515 1.515m5.0298 0c0 .837.678 1.515 1.515 1.515.837 0 1.515-.678 1.515-1.515 0-.837-.678-1.515-1.515-1.515-.837 0-1.515.678-1.515 1.515m4.9692 0c0 .837.678 1.515 1.515 1.515.837 0 1.515-.678 1.515-1.515 0-.837-.678-1.515-1.515-1.515-.837 0-1.515.678-1.515 1.515m4.7875 0c0 .837.678 1.515 1.515 1.515.837 0 1.515-.678 1.515-1.515 0-.837-.678-1.515-1.515-1.515-.837 0-1.515.678-1.515 1.515m4.9086 0c0 .837.678 1.515 1.515 1.515.837 0 1.515-.678 1.515-1.515 0-.837-.678-1.515-1.515-1.515-.837 0-1.515.678-1.515 1.515m5.0298 0c0 .837.678 1.515 1.515 1.515.837 0 1.515-.678 1.515-1.515 0-.837-.678-1.515-1.515-1.515-.837 0-1.515.678-1.515 1.515m4.9692 0c0 .837.678 1.515 1.515 1.515.837 0 1.515-.678 1.515-1.515 0-.837-.678-1.515-1.515-1.515-.837 0-1.515.678-1.515 1.515m4.7875 0c0 .837.678 1.515 1.515 1.515.837 0 1.515-.678 1.515-1.515 0-.837-.678-1.515-1.515-1.515-.837 0-1.515.678-1.515 1.515m4.9086 0c0 .837.678 1.515 1.515 1.515.837 0 1.515-.678 1.515-1.515 0-.837-.678-1.515-1.515-1.515-.837 0-1.515.678-1.515 1.515m5.0298 0c0 .837.678 1.515 1.515 1.515.837 0 1.515-.678 1.515-1.515 0-.837-.678-1.515-1.515-1.515-.837 0-1.515.678-1.515 1.515m4.9692 0c0 .837.678 1.515 1.515 1.515.837 0 1.515-.678 1.515-1.515 0-.837-.678-1.515-1.515-1.515-.837 0-1.515.678-1.515 1.515m4.7875 0c0 .837.678 1.515 1.515 1.515.837 0 1.515-.678 1.515-1.515 0-.837-.678-1.515-1.515-1.515-.837 0-1.515.678-1.515 1.515m4.9086 0c0 .837.678 1.515 1.515 1.515.837 0 1.515-.678 1.515-1.515 0-.837-.678-1.515-1.515-1.515-.837 0-1.515.678-1.515 1.515m5.0298 0c0 .837.678 1.515 1.515 1.515.837 0 1.515-.678 1.515-1.515 0-.837-.678-1.515-1.515-1.515-.837 0-1.515.678-1.515 1.515m4.7268 0c0 .837.678 1.515 1.515 1.515.837 0 1.515-.678 1.515-1.515 0-.837-.678-1.515-1.515-1.515-.837 0-1.515.678-1.515 1.515m4.7874 0c0 .837.678 1.515 1.515 1.515.837 0 1.515-.678 1.515-1.515 0-.837-.678-1.515-1.515-1.515-.837 0-1.515.678-1.515 1.515m4.9087 0c0 .837.678 1.515 1.515 1.515.837 0 1.515-.678 1.515-1.515 0-.837-.678-1.515-1.515-1.515-.837 0-1.515.678-1.515 1.515m5.0298 0c0 .837.678 1.515 1.515 1.515.837 0 1.515-.678 1.515-1.515 0-.837-.678-1.515-1.515-1.515-.837 0-1.515.678-1.515 1.515m4.9692 0c0 .837.678 1.515 1.515 1.515.837 0 1.515-.678 1.515-1.515 0-.837-.678-1.515-1.515-1.515-.837 0-1.515.678-1.515 1.515m4.7874 0c0 .837.678 1.515 1.515 1.515.837 0 1.515-.678 1.515-1.515 0-.837-.678-1.515-1.515-1.515-.837 0-1.515.678-1.515 1.515m4.9087 0c0 .837.678 1.515 1.515 1.515.837 0 1.515-.678 1.515-1.515 0-.837-.678-1.515-1.515-1.515-.837 0-1.515.678-1.515 1.515m5.0298 0c0 .837.678 1.515 1.515 1.515.837 0 1.515-.678 1.515-1.515 0-.837-.678-1.515-1.515-1.515-.837 0-1.515.678-1.515 1.515m4.6205 0c0 .837.678 1.515 1.515 1.515.837 0 1.515-.678 1.515-1.515 0-.837-.678-1.515-1.515-1.515-.837 0-1.515.678-1.515 1.515m4.7874 0c0 .837.678 1.515 1.515 1.515.837 0 1.515-.678 1.515-1.515 0-.837-.678-1.515-1.515-1.515-.837 0-1.515.678-1.515 1.515m4.9086 0c0 .837.678 1.515 1.515 1.515.837 0 1.515-.678 1.515-1.515 0-.837-.678-1.515-1.515-1.515-.837 0-1.515.678-1.515 1.515m5.0299 0c0 .837.678 1.515 1.515 1.515.837 0 1.515-.678 1.515-1.515 0-.837-.678-1.515-1.515-1.515-.837 0-1.515.678-1.515 1.515m4.9692 0c0 .837.678 1.515 1.515 1.515.837 0 1.515-.678 1.515-1.515 0-.837-.678-1.515-1.515-1.515-.837 0-1.515.678-1.515 1.515m4.7874 0c0 .837.678 1.515 1.515 1.515.837 0 1.515-.678 1.515-1.515 0-.837-.678-1.515-1.515-1.515-.837 0-1.515.678-1.515 1.515m4.9086 0c0 .837.678 1.515 1.515 1.515.837 0 1.515-.678 1.515-1.515 0-.837-.678-1.515-1.515-1.515-.837 0-1.515.678-1.515 1.515m5.0299 0c0 .837.678 1.515 1.515 1.515.837 0 1.515-.678 1.515-1.515 0-.837-.678-1.515-1.515-1.515-.837 0-1.515.678-1.515 1.515m4.8331 0c0 .837.678 1.515 1.515 1.515.837 0 1.515-.678 1.515-1.515 0-.837-.678-1.515-1.515-1.515-.837 0-1.515.678-1.515 1.515m4.7874 0c0 .837.678 1.515 1.515 1.515.837 0 1.515-.678 1.515-1.515 0-.837-.678-1.515-1.515-1.515-.837 0-1.515.678-1.515 1.515m4.9087 0c0 .837.678 1.515 1.515 1.515.837 0 1.515-.678 1.515-1.515 0-.837-.678-1.515-1.515-1.515-.837 0-1.515.678-1.515 1.515m5.0298 0c0 .837.678 1.515 1.515 1.515.837 0 1.515-.678 1.515-1.515 0-.837-.678-1.515-1.515-1.515-.837 0-1.515.678-1.515 1.515m4.9692 0c0 .837.678 1.515 1.515 1.515.837 0 1.515-.678 1.515-1.515 0-.837-.678-1.515-1.515-1.515-.837 0-1.515.678-1.515 1.515m4.7874 0c0 .837.678 1.515 1.515 1.515.837 0 1.515-.678 1.515-1.515 0-.837-.678-1.515-1.515-1.515-.837 0-1.515.678-1.515 1.515m4.9087 0c0 .837.678 1.515 1.515 1.515.837 0 1.515-.678 1.515-1.515 0-.837-.678-1.515-1.515-1.515-.837 0-1.515.678-1.515 1.515m5.0298 0c0 .837.678 1.515 1.515 1.515.837 0 1.515-.678 1.515-1.515 0-.837-.678-1.515-1.515-1.515-.837 0-1.515.678-1.515 1.515m4.848 0c0 .837.678 1.515 1.515 1.515.837 0 1.515-.678 1.515-1.515 0-.837-.678-1.515-1.515-1.515-.837 0-1.515.678-1.515 1.515m4.7875 0c0 .837.678 1.515 1.515 1.515.837 0 1.515-.678 1.515-1.515 0-.837-.678-1.515-1.515-1.515-.837 0-1.515.678-1.515 1.515m4.9086 0c0 .837.678 1.515 1.515 1.515.837 0 1.515-.678 1.515-1.515 0-.837-.678-1.515-1.515-1.515-.837 0-1.515.678-1.515 1.515m5.0298 0c0 .837.678 1.515 1.515 1.515.837 0 1.515-.678 1.515-1.515 0-.837-.678-1.515-1.515-1.515-.837 0-1.515.678-1.515 1.515m4.9692 0c0 .837.678 1.515 1.515 1.515.837 0 1.515-.678 1.515-1.515 0-.837-.678-1.515-1.515-1.515-.837 0-1.515.678-1.515 1.515m4.7874 0c0 .837.678 1.515 1.515 1.515.837 0 1.515-.678 1.515-1.515 0-.837-.678-1.515-1.515-1.515-.837 0-1.515.678-1.515 1.515m4.9086 0c0 .837.678 1.515 1.515 1.515.837 0 1.515-.678 1.515-1.515 0-.837-.678-1.515-1.515-1.515-.837 0-1.515.678-1.515 1.515m5.0299 0c0 .837.678 1.515 1.515 1.515.837 0 1.515-.678 1.515-1.515 0-.837-.678-1.515-1.515-1.515-.837 0-1.515.678-1.515 1.515m4.7874 0c0 .837.678 1.515 1.515 1.515.837 0 1.515-.678 1.515-1.515 0-.837-.678-1.515-1.515-1.515-.837 0-1.515.678-1.515 1.515m4.7874 0c0 .837.678 1.515 1.515 1.515.837 0 1.515-.678 1.515-1.515 0-.837-.678-1.515-1.515-1.515-.837 0-1.515.678-1.515 1.515m4.9087 0c0 .837.678 1.515 1.515 1.515.837 0 1.515-.678 1.515-1.515 0-.837-.678-1.515-1.515-1.515-.837 0-1.515.678-1.515 1.515m5.0298 0c0 .837.678 1.515 1.515 1.515.837 0 1.515-.678 1.515-1.515 0-.837-.678-1.515-1.515-1.515-.837 0-1.515.678-1.515 1.515m4.9692 0c0 .837.678 1.515 1.515 1.515.837 0 1.515-.678 1.515-1.515 0-.837-.678-1.515-1.515-1.515-.837 0-1.515.678-1.515 1.515m4.7874 0c0 .837.678 1.515 1.515 1.515.837 0 1.515-.678 1.515-1.515 0-.837-.678-1.515-1.515-1.515-.837 0-1.515.678-1.515 1.515m4.9087 0c0 .837.678 1.515 1.515 1.515.837 0 1.515-.678 1.515-1.515 0-.837-.678-1.515-1.515-1.515-.837 0-1.515.678-1.515 1.515m5.0298 0c0 .837.678 1.515 1.515 1.515.837 0 1.515-.678 1.515-1.515 0-.837-.678-1.515-1.515-1.515-.837 0-1.515.678-1.515 1.515m4.545 0c0 .837.678 1.515 1.515 1.515.837 0 1.515-.678 1.515-1.515 0-.837-.678-1.515-1.515-1.515-.837 0-1.515.678-1.515 1.515m4.7874 0c0 .837.678 1.515 1.515 1.515.837 0 1.515-.678 1.515-1.515 0-.837-.678-1.515-1.515-1.515-.837 0-1.515.678-1.515 1.515m4.9087 0c0 .837.678 1.515 1.515 1.515.837 0 1.515-.678 1.515-1.515 0-.837-.678-1.515-1.515-1.515-.837 0-1.515.678-1.515 1.515m5.0298 0c0 .837.678 1.515 1.515 1.515.837 0 1.515-.678 1.515-1.515 0-.837-.678-1.515-1.515-1.515-.837 0-1.515.678-1.515 1.515m4.9692 0c0 .837.678 1.515 1.515 1.515.837 0 1.515-.678 1.515-1.515 0-.837-.678-1.515-1.515-1.515-.837 0-1.515.678-1.515 1.515m4.7874 0c0 .837.678 1.515 1.515 1.515.837 0 1.515-.678 1.515-1.515 0-.837-.678-1.515-1.515-1.515-.837 0-1.515.678-1.515 1.515m4.9087 0c0 .837.678 1.515 1.515 1.515.837 0 1.515-.678 1.515-1.515 0-.837-.678-1.515-1.515-1.515-.837 0-1.515.678-1.515 1.515m5.0298 0c0 .837.678 1.515 1.515 1.515.837 0 1.515-.678 1.515-1.515 0-.837-.678-1.515-1.515-1.515-.837 0-1.515.678-1.515 1.515"/>
    <path fill="#d0d2d3" d="M115.4583 17.5529h-.863v1.555h-1.582v-1.555h-.86v3.819h.86v-1.523h1.582v1.523h.863v-3.819zm2.5246 3.1424c-.302 0-.541-.113-.719-.339-.178-.227-.266-.527-.266-.899 0-.379.088-.678.266-.898.178-.22.41-.33.698-.33.296 0 .531.107.705.321.174.214.261.511.261.891 0 .396-.084.704-.253.924-.168.22-.399.33-.692.33m-.037-3.209c-.547 0-.993.178-1.337.534-.345.356-.517.82-.517 1.391 0 .604.175 1.092.525 1.465.35.373.813.559 1.39.559.545 0 .986-.178 1.322-.535.337-.357.505-.827.505-1.411 0-.6-.175-1.084-.523-1.452-.349-.367-.804-.551-1.365-.551m6.8732.0666h-.85v2.285c0 .247.011.519.032.818h-.021c-.044-.235-.084-.404-.12-.506l-.895-2.597h-.703l-.91 2.57c-.025.069-.065.247-.12.533h-.024c.023-.377.034-.707.034-.991v-2.112h-.775v3.819h1.26l.78-2.264c.063-.181.108-.363.136-.546h.016c.048.212.099.395.152.552l.78 2.258h1.228v-3.819zm3.1584 0h-2.29v3.819h2.202v-.701h-1.342v-.849h1.249v-.698h-1.249v-.873h1.43v-.698zm46.1379 2.6372l-1.316-3.819h-.974l-1.3 3.819h.927l.796-2.658c.043-.144.069-.271.077-.381h.016c.013.119.04.25.083.392l.791 2.647h.9zm2.1091-.6765c-.302 0-.541-.113-.719-.339-.178-.227-.266-.527-.266-.899 0-.379.088-.678.266-.898.178-.22.41-.33.698-.33.296 0 .531.107.705.321.174.214.261.511.261.891 0 .396-.084.704-.253.924-.168.22-.399.33-.692.33m-.037-3.209c-.547 0-.993.178-1.337.534-.345.356-.517.82-.517 1.391 0 .604.175 1.092.525 1.465.35.373.813.559 1.39.559.545 0 .986-.178 1.322-.535.337-.357.505-.827.505-1.411 0-.6-.175-1.084-.523-1.452-.349-.367-.804-.551-1.365-.551m4.796.0666h-2.274v3.819h.86v-3.121h1.414v-.698zm189.2294 1.3111v.909c.165-.138.344-.242.537-.311.193-.069.388-.104.585-.104.115 0 .216.011.303.032.086.02.158.049.215.086.058.037.101.081.13.131.028.05.042.104.042.163 0 .08-.022.151-.068.213-.045.063-.107.12-.186.173-.079.053-.172.105-.28.154-.108.049-.224.099-.349.15-.318.133-.555.295-.712.486-.156.191-.234.422-.234.693 0 .212.043.395.128.547.085.152.201.278.348.377.146.098.316.17.51.217.193.046.397.069.613.069.212 0 .4-.012.564-.038.164-.025.315-.065.453-.118v-.849c-.068.047-.142.089-.223.125-.08.036-.163.066-.248.089-.086.024-.17.041-.255.053-.084.011-.164.017-.24.017-.104 0-.198-.01-.284-.03-.085-.02-.157-.048-.216-.084-.058-.036-.104-.079-.136-.129-.032-.05-.048-.106-.048-.169 0-.068.018-.129.054-.183.036-.054.087-.105.153-.154.066-.048.147-.095.242-.142.094-.046.201-.094.321-.143.162-.068.309-.141.438-.217.13-.077.241-.164.334-.26.093-.097.164-.207.213-.331.049-.124.074-.269.074-.433 0-.228-.043-.419-.129-.573-.086-.154-.203-.279-.351-.375-.148-.096-.319-.164-.515-.206-.197-.041-.404-.062-.621-.062-.224 0-.436.019-.638.057-.202.037-.376.094-.524.17m5.8914-.1562h-2.443v4.073h2.349v-.747h-1.431v-.906h1.332v-.744h-1.332v-.932h1.525v-.744zm3.0793 0h-2.426v4.073h.918v-3.329h1.508v-.744zm2.9912 0h-2.443v4.073h2.349v-.747h-1.431v-.906h1.332v-.744h-1.332v-.932h1.525v-.744zm3.5735.1449c-.297-.144-.686-.216-1.165-.216-.625 0-1.116.184-1.474.551-.358.368-.537.857-.537 1.469 0 .651.201 1.18.604 1.585.402.405.924.608 1.566.608.398 0 .733-.05 1.006-.151v-.883c-.273.163-.583.244-.932.244-.382 0-.691-.12-.926-.361-.235-.24-.352-.566-.352-.977 0-.394.111-.708.332-.942.222-.234.52-.35.895-.35.358 0 .686.087.983.261v-.838zm3.5707 3.1815h-1.162v-3.326h-.92v3.326h-1.156v.747h3.238v-.747zm15.7996-3.1702v.909c.165-.138.344-.242.537-.311.193-.069.388-.104.585-.104.115 0 .216.011.303.032.086.02.158.049.215.086.058.037.101.081.13.131.028.05.042.104.042.163 0 .08-.022.151-.068.213-.045.063-.107.12-.186.173-.079.053-.172.105-.28.154-.108.049-.224.099-.349.15-.318.133-.555.295-.712.486-.156.191-.234.422-.234.693 0 .212.043.395.128.547.085.152.201.278.348.377.146.098.317.17.51.217.193.046.397.069.613.069.212 0 .4-.012.564-.038.164-.025.315-.065.453-.118v-.849c-.068.047-.142.089-.223.125-.08.036-.163.066-.248.089-.086.024-.17.041-.255.053-.084.011-.164.017-.24.017-.104 0-.198-.01-.284-.03-.085-.02-.157-.048-.216-.084-.058-.036-.104-.079-.136-.129-.032-.05-.048-.106-.048-.169 0-.068.018-.129.054-.183.036-.054.087-.105.153-.154.066-.048.147-.095.242-.142.094-.046.201-.094.321-.143.162-.068.309-.141.438-.217.13-.077.241-.164.334-.26.093-.097.164-.207.213-.331.049-.124.074-.269.074-.433 0-.228-.043-.419-.129-.573-.086-.154-.203-.279-.351-.375-.148-.096-.319-.164-.515-.206-.196-.041-.404-.062-.621-.062-.224 0-.436.019-.638.057-.202.037-.376.094-.524.17m6.3091 3.1702h-1.162v-3.326h-.92v3.326h-1.156v.747h3.238v-.747zm2.6304-1.7158l-.437 1.369c-.033.102-.056.225-.069.367h-.022c-.01-.12-.034-.238-.071-.355l-.444-1.381h1.043zm1.5-1.611h-1l-.29.907h-1.449l-.286-.907h-.995l1.483 4.074h1.088l1.449-4.074zm1.4259 3.3864v-1.133h.398c.197 0 .355.056.474.17.121.115.182.259.182.429 0 .356-.213.534-.639.534h-.415zm2.5-3.386h-1.054l-.634 1.048c-.047.08-.092.151-.136.213-.044.063-.088.116-.132.161-.045.044-.091.078-.139.102-.048.024-.101.035-.158.035h-.247v-1.559h-.918v4.073h1.455c.988 0 1.483-.369 1.483-1.107 0-.142-.022-.274-.066-.394-.043-.12-.105-.229-.184-.325-.08-.097-.176-.18-.289-.25-.112-.07-.238-.125-.376-.165v-.011c.061-.019.119-.05.176-.093.057-.042.112-.092.165-.149.053-.056.104-.118.152-.183s.092-.129.132-.192l.77-1.204zm3.2409 3.3264h-1.162v-3.326h-.92v3.326h-1.156v.747h3.238v-.747zm64.2789 52.7043v-1.27h.361c.488 0 .733.214.733.642 0 .419-.245.628-.733.628h-.361zm0-1.966v-1.403h-.918v4.073h1.438c1.026 0 1.539-.432 1.539-1.298 0-.409-.147-.74-.441-.993-.295-.252-.688-.379-1.181-.379h-.437zm4.4172 1.949c-.322 0-.578-.121-.767-.362-.189-.242-.284-.561-.284-.959 0-.403.095-.722.284-.957.189-.235.437-.352.744-.352.317 0 .567.114.753.342.186.228.278.545.278.95 0 .422-.089.751-.269.986-.18.234-.427.352-.739.352m-.04-3.423c-.583 0-1.058.19-1.426.57-.367.379-.551.874-.551 1.484 0 .644.187 1.164.56 1.562.373.398.867.597 1.483.597.581 0 1.051-.191 1.41-.571.359-.381.538-.883.538-1.506 0-.64-.186-1.156-.558-1.548-.372-.392-.857-.588-1.456-.588m8.0193 4.1445l-1.077-4.073h-1.017l-.676 2.613c-.035.136-.058.289-.065.457h-.011c-.017-.185-.042-.338-.074-.457l-.693-2.613h-1.06l-1.071 4.073h1.003l.574-2.713c.024-.115.042-.271.054-.466h.017c.007.146.035.305.082.478l.739 2.701h.983l.667-2.736c.025-.1.047-.246.065-.437h.012c.007.15.027.301.06.455l.562 2.718h.926zm2.96-4.0735h-2.443v4.073h2.349v-.747h-1.431v-.906h1.332v-.744h-1.332v-.932h1.525v-.744zm1.5709 3.3861v-1.133h.398c.197 0 .355.056.474.17.121.115.182.259.182.429 0 .356-.213.534-.639.534h-.415zm2.5-3.386h-1.054l-.634 1.048c-.047.08-.092.151-.136.213-.044.063-.088.116-.132.161-.044.044-.091.078-.139.102-.048.024-.101.035-.158.035h-.247v-1.559h-.918v4.073h1.455c.988 0 1.483-.369 1.483-1.107 0-.142-.022-.274-.066-.394-.043-.12-.105-.229-.184-.325-.08-.097-.176-.18-.289-.25-.112-.07-.238-.125-.376-.165v-.011c.061-.019.119-.05.176-.093.057-.042.112-.092.165-.149.053-.056.104-.118.152-.183s.092-.129.132-.192l.77-1.204zm-21.092-23.9069h-.92v1.659h-1.688v-1.659h-.917v4.073h.917V48.73h1.688v1.624h.92v-4.073zm2.6929 3.3519c-.322 0-.578-.121-.767-.362-.189-.242-.284-.561-.284-.959 0-.403.095-.722.284-.957.189-.235.437-.352.744-.352.317 0 .567.114.753.342.186.228.278.545.278.95 0 .422-.089.751-.269.986-.18.234-.427.352-.739.352m-.04-3.423c-.583 0-1.058.19-1.426.57-.367.379-.551.874-.551 1.484 0 .644.187 1.164.56 1.562.373.398.867.597 1.483.597.581 0 1.051-.191 1.41-.571.359-.381.538-.883.538-1.506 0-.64-.186-1.156-.558-1.548-.372-.392-.857-.588-1.456-.588m5.1162.0711h-2.426v4.073h.918v-3.329h1.508v-.744zm1.4658 3.3264v-2.582h.454c.398 0 .71.119.936.358.227.238.34.563.34.974 0 .388-.112.694-.337.916-.224.223-.539.334-.944.334h-.449zm-.918-3.326v4.073h1.444c1.446 0 2.17-.662 2.17-1.986 0-.634-.198-1.141-.593-1.519-.394-.379-.92-.568-1.577-.568h-1.444zM299.9739 24.6385v3.633h-19.197v1.038h20.649v-6.099h-18.849v-5.038h-1.804v6.466h19.201zm-62.8301 3.5907v1.091h20.306c.041-.94.013-1.949.018-2.954.005-1.02.001-2.04.001-3.116h-18.812c-.186-.859-.07-1.693-.091-2.514-.021-.838-.004-1.678-.004-2.574h-1.368v6.434h19.094v3.633h-19.144zm19.9937-10.0659v1.335h9.782c.006 3.288 0 6.522.004 9.815h11.601v-.972h-9.917c-.093-.098-.142-.136-.174-.186-.029-.046-.054-.105-.054-.158-.003-3.258-.003-6.515-.003-9.834h-11.239zM47.554 187.2486c-.917.293-1.814.58-2.723.87v11.803c.457-.105.907-.189 1.346-.313.79-.223 1.578-.453 2.357-.711.644-.213 1.264-.483 1.811-.904.526-.404.849-.93 1.036-1.553.156-.517.171-1.053.161-1.583-.01-.573-.102-1.138-.452-1.625-.417-.579-.965-.76-1.652-.651-.242.039-.475.126-.716.177-.161.035-.203.12-.202.279.006 1.332.005 2.664.002 3.996-.001.335-.134.59-.457.737-.211.096-.416.021-.508-.362-.014-.059-.003-.125-.003-.189v-9.971z"/>
    <path fill="#d0d2d3" d="M47.9765 189.9628c0 .549-.003 1.06.005 1.57.001.046.07.118.118.13.606.146 1.208.336 1.823.407.61.071 1.235.025 1.853.018.568-.006 1.12-.125 1.659-.297.467-.148.954-.267 1.341-.588.425-.351.439-.821-.118-1.22-.495-.353-1.067-.528-1.628-.729-1.444-.518-2.887-1.037-4.33-1.555-.231-.083-.461-.166-.723-.26 0 .521-.005 1.009.007 1.496.002.056.091.136.156.159 1.075.386 2.153.763 3.229 1.145.348.123.695.251 1.039.386.074.029.161.082.191.148.027.056.002.196-.037.213-.148.064-.308.108-.469.133-.719.113-1.355-.194-2.006-.417-.692-.237-1.381-.483-2.11-.739m-3.6196 2.8604c0-.527.004-1.017-.006-1.507-.001-.051-.073-.127-.128-.147-.874-.315-1.752-.621-2.627-.934-.096-.034-.188-.087-.268-.149-.051-.04-.114-.119-.105-.168.01-.056.086-.118.148-.143.383-.154.786-.174 1.176-.06.562.165 1.112.369 1.669.553.037.013.082.002.131.002v-1.463c-.756-.028-1.506-.106-2.25-.067-.605.031-1.208.179-1.8.323-.374.092-.743.24-1.082.423-.185.099-.371.3-.437.495-.146.437.01.595.37.836.316.21.672.371 1.028.508.829.319 1.668.613 2.505.912.457.164.918.319 1.377.479.092.031.183.065.299.107m385.5653.2228c.169 1.448 1.209 2.006 2.439 2.305 1.324.323 2.669.347 4.001.019.352-.086.694-.23 1.022-.388.515-.247.552-.24.66.338h1.188v-2.707h-1.095c-.378.936-1.162 1.402-2.057 1.709-1.038.357-2.092.375-3.138.02-.191-.065-.382-.157-.542-.278-.423-.319-.402-.79.083-.996.46-.194.958-.314 1.451-.405 1.268-.236 2.548-.413 3.812-.667.399-.08.79-.287 1.141-.505 1.184-.734.898-2.169.307-2.814-.61-.665-1.417-.905-2.262-1.071-.071-.014-.139-.044-.209-.066h-2.785c-.058.022-.115.047-.175.065-.626.188-1.261.35-1.876.569-.443.158-.464.174-.608-.27-.025-.075-.105-.184-.163-.187-.371-.017-.742-.008-1.107-.008v2.84c.332 0 .644.009.955-.006.076-.004.182-.071.216-.139.457-.903 1.24-1.367 2.173-1.633.851-.243 1.723-.281 2.592-.175.408.049.825.173 1.19.357.176.088.328.393.33.6.001.167-.22.359-.381.496-.105.09-.274.122-.42.148-1.09.199-2.184.37-3.269.589-.776.157-1.55.342-2.304.578-.485.152-.847.509-1.03 1.006-.058.156-.093.321-.139.482v.194zm20.0283-1.5061c-.001.787-.173 1.514-.676 2.144-.974 1.22-3.292 1.221-4.422.391-.999-.734-1.215-1.782-1.1-2.934.104-1.042.548-1.888 1.558-2.313 1.043-.439 2.111-.423 3.137.039 1.138.511 1.489 1.508 1.503 2.673m-4.223-4c-.584.134-1.181.227-1.749.409-.989.317-1.837.858-2.38 1.779-1.044 1.769-.397 4.028 1.455 5.064 1.211.677 2.537.856 3.899.851 1.243-.004 2.446-.201 3.56-.784 1.009-.527 1.768-1.283 2.011-2.432.384-1.819-.466-3.45-2.179-4.236-.709-.325-1.458-.511-2.234-.59-.083-.008-.164-.04-.245-.061h-2.138zm7.2177 6.7859v.979h.721c.983 0 1.965-.008 2.947.006.237.003.405-.074.571-.232 1.483-1.398 2.971-2.791 4.458-4.185.023-.021.052-.036.107-.074.014.084.034.149.034.215.005.895.008 1.791.009 2.687.001.407-.083.524-.487.579-.318.043-.642.035-.982.051v.927h4.411v-.954c-.257 0-.514.019-.767-.004-.481-.045-.589-.18-.589-.664v-5.993c-.571 0-1.118-.006-1.665.007-.081.002-.173.077-.239.139-1.201 1.132-2.399 2.267-3.599 3.401-.602.569-1.205 1.137-1.842 1.736-.018-.113-.039-.181-.039-.249-.002-1.144-.003-2.288.002-3.432.002-.49.142-.636.632-.656.301-.013.603-.003.928-.003v-.925h-4.607v.924c.263 0 .526-.002.789.001.644.006.768.132.768.779.001 1.425.001 2.85.001 4.275 0 .483-.106.617-.593.66-.31.027-.624.005-.969.005m20.9541-5.655v-.942h-5.545v.944c.309 0 .618-.009.926.002.573.019.674.129.675.694 0 .022-.004.044 0 .065.163.919-.189 1.609-.851 2.247-.751.724-1.391 1.561-2.117 2.313-.18.187-.499.259-.769.334-.178.049-.381.009-.592.009v.98h5.019v-.977c-.186 0-.377.014-.565-.003-.296-.026-.369-.179-.176-.398.471-.533.953-1.057 1.441-1.575.155-.165.339-.175.508.004.494.527.993 1.049 1.481 1.582.064.071.124.212.094.283-.025.063-.175.093-.274.105-.138.018-.279.005-.445.005v.979h3.962v-.979c-.173 0-.352-.011-.53.002-.362.027-.648-.107-.887-.374-.755-.843-1.48-1.716-2.283-2.512-.513-.509-.742-1.028-.694-1.757.064-1.001.041-1.029 1.044-1.031h.578M347.1075 20.5264v-5.468c-.001-.109-.001-.219-.013-.328-.024-.239-.12-.452-.258-.646-.152-.214-.343-.387-.557-.536-.282-.196-.585-.346-.92-.428-.285-.07-.57-.08-.854.005-.143.042-.274.107-.387.206-.175.155-.265.351-.275.582-.017.371.114.691.346.973.23.28.518.486.838.651.206.106.42.189.648.233.287.054.571.054.847-.052.073-.028.142-.07.213-.106.013-.007.026-.016.048-.029v7.366c0 .024-.002.048 0 .072.005.055.042.091.097.094.042.001.084.001.126 0 .062-.002.097-.038.101-.102.003-.045.004-.091.006-.137.013-.325.088-.638.199-.942.123-.338.286-.657.47-.964.204-.34.414-.675.619-1.014.193-.316.373-.64.514-.983.115-.279.201-.566.241-.865.024-.18.031-.361.024-.543-.026-.64-.169-1.255-.4-1.852-.029-.073-.076-.127-.152-.149-.091-.026-.17.004-.232.072-.058.065-.071.14-.037.222.11.263.201.532.27.809.08.324.124.652.133.986.01.335-.07.65-.204.954-.146.33-.342.629-.56.915-.264.346-.558.664-.859.978-.006.007-.014.012-.032.026M33.8136 54.6823c-.012.343-.023.683-.035 1.022 3.612.218 7.625-2.757 7.534-7.517-.344.011-.689.022-1.037.033.036 1.802-.56 3.363-1.835 4.631-1.271 1.264-2.832 1.856-4.627 1.831"/>
    <path fill="#d0d2d3" d="M39.2223 48.1777c-.345.017-.683.033-1.029.05.027 1.222-.359 2.283-1.225 3.148-.863.862-1.921 1.25-3.147 1.221-.017.343-.034.684-.051 1.024 2.801.213 5.613-2.18 5.452-5.443"/>
    <path fill="#d0d2d3" d="M33.8409 50.5074c-.03.344-.06.687-.091 1.029 1.929.176 3.559-1.446 3.381-3.384-.339.03-.679.06-1.027.091.039.643-.183 1.187-.627 1.632-.444.445-.987.67-1.636.632m.9215-1.3451c.403-.407.401-1.067-.004-1.468-.406-.402-1.07-.4-1.471.003-.403.407-.397 1.071.013 1.477.4.396 1.063.39 1.462-.012M30.7315 74.64c3.398 0 7.132.216 7.132.585 0 .12-3.235.154-7.132.154s-7.132-.034-7.132-.154c0-.369 3.734-.585 7.132-.585m0-1.165c1.627 0 5.313.213 5.313.504 0 .088-2.477.109-5.313.109s-5.313-.021-5.313-.109c0-.291 3.686-.504 5.313-.504m0-1.0103c1.799 0 3.841.199 3.841.425 0 .095-1.742.075-3.841.075s-3.841.02-3.841-.075c0-.226 2.042-.425 3.841-.425m.0025 3.5678c.212 0 .457.006.695.051.268.051.383.169.42.421.034.233-.087.601-.149.929-.089.461.125.68.715.68.708 0 .868-.34 1.189-1.189.193-.51.395-.71 1.131-.782.66-.065 1.491-.113 2.514-.113.843 0 .93.242-.333.448-.8.13-1.276.322-1.555.655-.309.368-.38.595-.584.84-.23.275-.531.4-.908.447-.919.115-1.975.18-3.135.18-1.16 0-2.216-.065-3.135-.18-.378-.047-.679-.172-.908-.447-.204-.245-.276-.472-.584-.84-.28-.333-.755-.525-1.555-.655-1.263-.206-1.176-.448-.334-.448 1.024 0 1.855.048 2.515.113.736.072.938.272 1.131.782.321.849.481 1.189 1.189 1.189.589 0 .804-.219.715-.68-.062-.328-.183-.696-.149-.929.037-.252.152-.37.42-.421.238-.045.483-.051.695-.051"/>
  </g>
</svg>
