<svg xmlns="http://www.w3.org/2000/svg" viewBox="0 0 548.783 198.976"><g fill="#1b1b1b"><path d="M201.975 168.611c0-16.77 13.281-65.135 29.664-65.135 16.384 0 24.977 45.546 28.02 62.862 2.903 16.517-11.636 32.638-28.02 32.638-16.383 0-29.664-13.595-29.664-30.365zM58.055 168.611c0-16.77-13.281-65.135-29.664-65.135-16.384 0-24.976 45.546-28.02 62.862-2.903 16.517 11.636 32.638 28.02 32.638s29.664-13.595 29.664-30.365z"/></g><g fill="#b2b2b2" stroke="#b2b2b2" stroke-width=".42" stroke-miterlimit="10"><path d="M78.812 193.07a2.518 2.518 0 0 1-2.604 2.43l-17.554-.609a2.519 2.519 0 0 1-2.43-2.604l.174-5.035a2.519 2.519 0 0 1 2.605-2.43l17.553.61a2.52 2.52 0 0 1 2.43 2.604l-.174 5.034zM107.291 194.176a2.518 2.518 0 0 1-2.571 2.465l-17.561-.367a2.518 2.518 0 0 1-2.465-2.571l.105-5.036a2.52 2.52 0 0 1 2.571-2.466l17.56.368a2.517 2.517 0 0 1 2.465 2.57l-.104 5.037zM181.218 193.07a2.518 2.518 0 0 0 2.605 2.43l17.553-.609a2.519 2.519 0 0 0 2.43-2.604l-.175-5.035a2.518 2.518 0 0 0-2.605-2.43l-17.553.61a2.52 2.52 0 0 0-2.43 2.604l.175 5.034zM152.739 194.176a2.518 2.518 0 0 0 2.571 2.465l17.561-.367a2.517 2.517 0 0 0 2.465-2.571l-.105-5.036a2.519 2.519 0 0 0-2.571-2.466l-17.561.368a2.518 2.518 0 0 0-2.465 2.57l.105 5.037z"/></g><path d="M130.015 0c53.592 0 98.018 3.988 98.018 3.988 9.306.49 17.351 8.535 17.771 17.981l7.696 143.846c.561 14.412-8.535 23.578-39.459 24.557 0 0-52.788 2.94-84.026 2.94s-84.027-2.94-84.027-2.94c-30.923-.979-40.018-10.145-39.458-24.558l7.696-143.846c.42-9.446 8.466-17.491 17.771-17.981C31.996 3.988 76.424 0 130.015 0z" fill="#202020"/><path d="M207.357 2.482s-.818 19.976-10.684 64.263c-9.864 44.287-31.956 49.325-66.658 49.325s-56.793-5.038-66.658-49.325C53.492 22.458 52.674 2.482 52.674 2.482 70.653 1.339 99.204 0 131.012 0c30.641 0 58.286 1.365 76.345 2.482z" fill="#1b1b1b"/><path d="M130.086 70.663h54.094c3.412 0 7.753-3.639 8.925-8.641 1.172-5.002 1.994-12.515 1.994-14.745 0-2.229-.892-2.92-3.27-2.92H68.2c-2.377 0-3.27.69-3.27 2.92 0 2.231.822 9.743 1.994 14.745 1.171 5.002 5.513 8.641 8.925 8.641h54.237z" fill="#151314"/><path d="M130.05 70.244h53.242c3.359 0 7.976-3.219 7.976-8.396v-9.095c0-1.16-.939-2.099-2.099-2.099H70.861a2.099 2.099 0 0 0-2.099 2.099v9.095c0 5.177 4.617 8.396 7.976 8.396H130.05z" fill="#b2b2b2"/><g fill="#0d0c0d"><path d="M181.648 86.265v6.243a51.386 51.386 0 0 0 2.414-4.053v-2.19h-2.414zM176.086 86.265v13.044a38.498 38.498 0 0 0 2.414-2.594v-10.45h-2.414zM170.524 86.265v17.53a36.868 36.868 0 0 0 2.414-1.732V86.265h-2.414zM164.962 86.265v20.539c.82-.363 1.625-.749 2.414-1.163V86.265h-2.414zM159.4 86.265v22.563a49.313 49.313 0 0 0 2.414-.78V86.265H159.4zM153.838 86.265v23.899a63.12 63.12 0 0 0 2.414-.51V86.265h-2.414zM148.276 86.265v24.75a87.988 87.988 0 0 0 2.413-.318V86.265h-2.413zM142.714 86.265v25.251a112.83 112.83 0 0 0 2.414-.183V86.265h-2.414zM137.151 86.265v25.51c.814-.023 1.618-.054 2.414-.088V86.265h-2.414zM131.589 86.265v25.601c.814-.004 1.617-.012 2.414-.024V86.265h-2.414zM126.027 86.265v25.577c.797.011 1.602.02 2.414.024V86.265h-2.414zM120.465 86.265v25.422c.796.034 1.601.064 2.414.088v-25.51h-2.414zM114.903 86.265v25.068c.796.069 1.6.13 2.414.183V86.265h-2.414zM109.341 86.265v24.432c.794.116 1.599.222 2.413.318v-24.75h-2.413zM103.779 86.265v23.389c.792.184 1.598.354 2.413.51V86.265h-2.413zM98.217 86.265v21.783c.791.279 1.596.539 2.414.78V86.265h-2.414zM92.655 86.265v19.376c.788.413 1.593.8 2.413 1.163V86.265h-2.413zM87.092 86.265v15.798c.787.612 1.59 1.192 2.414 1.732v-17.53h-2.414zM81.53 86.265v10.45a38.759 38.759 0 0 0 2.414 2.594V86.265H81.53zM75.968 86.265v2.19a51.693 51.693 0 0 0 2.414 4.053v-6.243h-2.414z"/></g><path d="M161.964 171.497a8.38 8.38 0 0 1-8.379 8.38h-47.138a8.38 8.38 0 0 1-8.38-8.38v-25.49a8.38 8.38 0 0 1 8.38-8.38s9.262-.463 23.569-.463c14.306 0 23.569.463 23.569.463a8.38 8.38 0 0 1 8.379 8.38v25.49z" fill="none" stroke="#0d0c0d" stroke-width=".42" stroke-miterlimit="10"/><path d="M137.466 142.202a2.52 2.52 0 0 1-2.519 2.519h-9.865a2.52 2.52 0 0 1-2.519-2.519v-4.885h14.902v4.885z" fill="#0d0c0d"/><path d="M136.224 139.893a2.099 2.099 0 0 1-2.099 2.099h-8.221a2.099 2.099 0 0 1-2.099-2.099v-2.519s12.289-.13 12.418 0v2.519z" fill="#202020"/><path fill="none" stroke="#151314" stroke-width=".84" stroke-miterlimit="10" d="M68.762 60.448h122.506"/><path d="M209.529 165.946c0 6.337-5.137 11.475-11.474 11.475-6.337 0-11.475-5.138-11.475-11.475v-25.32c0-6.337 5.137-11.474 11.475-11.474 6.337 0 11.474 5.137 11.474 11.474v25.32z" fill="#151314"/><path d="M207.866 165.791c0 5.418-4.393 9.811-9.811 9.811-5.419 0-9.811-4.393-9.811-9.811v-13.359c0-5.418 4.392-9.811 9.811-9.811s9.811 4.393 9.811 9.811v13.359z" fill="#202020"/><path d="M73.45 165.946c0 6.337-5.137 11.475-11.474 11.475-6.337 0-11.475-5.138-11.475-11.475v-25.32c0-6.337 5.137-11.474 11.475-11.474 6.337 0 11.474 5.137 11.474 11.474v25.32z" fill="#151314"/><path d="M71.786 149.074c0-5.419-4.393-9.812-9.811-9.812-5.419 0-9.812 4.393-9.812 9.812v4.212h19.623v-4.212z" fill="#0d0c0d"/><path d="M71.786 165.791c0 5.418-4.393 9.811-9.811 9.811-5.419 0-9.812-4.393-9.812-9.811v-13.359c0-5.418 4.393-9.811 9.812-9.811s9.811 4.393 9.811 9.811v13.359z" fill="#202020"/><path fill="#2b2b2b" d="M52.164 154.131h19.623v4.98H52.164z"/><g fill-rule="evenodd" clip-rule="evenodd" fill="#151314"><path d="M130.017 17.134c3.865 0 7.731.001 11.596-.002.716 0 1.39.153 2.004.523 1.048.632 1.686 1.554 1.856 2.769a3.804 3.804 0 0 1-2.602 4.17 3.976 3.976 0 0 1-1.248.187h-20.594c-.921 0-1.841.007-2.76-.003-1.727-.018-3.254-1.25-3.646-2.931a3.825 3.825 0 0 1 2.53-4.524 3.979 3.979 0 0 1 1.268-.189h11.596zm0 6.745h11.586c.205 0 .407-.014.608-.049 1.618-.287 2.694-1.892 2.336-3.486a2.916 2.916 0 0 0-2.873-2.306h-23.316c-.686 0-1.298.213-1.837.637-1.249.984-1.469 2.837-.478 4.08.607.762 1.408 1.125 2.378 1.125 3.866-.002 7.731-.001 11.596-.001z"/><path d="M120.278 21.633v-.101c0-.745.001-1.49-.002-2.234 0-.081.021-.1.1-.099.296.004.592.003.888.001.062-.001.08.015.08.079a946.97 946.97 0 0 0 0 3.371c0 .067-.018.085-.085.084-.3-.003-.599-.003-.898.001-.064 0-.095-.023-.127-.073-.507-.789-1.017-1.577-1.525-2.364-.02-.029-.038-.058-.075-.086v.096c0 .77-.003 1.541.003 2.311 0 .101-.029.119-.122.117a26.757 26.757 0 0 0-.85-.001c-.067.001-.093-.011-.093-.086.003-1.121.003-2.242 0-3.362 0-.077.026-.086.092-.085.321.003.643.003.964-.001.066-.001.102.024.135.076l1.495 2.36c.007-.003.013-.003.02-.004zM137.95 20.494c0-.347-.002-.677 0-1.007 0-.092-.039-.211.015-.268.054-.059.174-.017.266-.017.232-.003.465.001.697-.002.063-.001.087.009.087.08-.002 1.124-.002 2.248-.001 3.372.001.06-.013.083-.078.082-.302-.003-.605-.001-.907-.001-.035 0-.075.017-.083-.047-.007-.057-.047-.009-.064-.003a1.904 1.904 0 0 1-.585.127c-.481.022-.833-.207-1.083-.595-.567-.88.012-1.731.697-1.912.331-.087.642-.026.938.137.029.013.056.029.101.054zm-.001 1.082c0-.168.004-.338 0-.506-.006-.24-.163-.404-.388-.411-.232-.007-.419.146-.428.382-.013.353-.008.706-.002 1.059.003.152.095.242.249.269a.914.914 0 0 0 .313.003c.165-.028.252-.123.256-.292.002-.167 0-.336 0-.504zM133.591 20.658c.119-.046.219-.108.319-.166.615-.354 1.324-.073 1.681.464a.43.43 0 0 1 .068.244c-.002.509-.002 1.019 0 1.528 0 .061-.008.088-.081.087a31.76 31.76 0 0 0-.926 0c-.067 0-.084-.019-.084-.085.003-.497.002-.994.002-1.49 0-.244-.295-.466-.534-.405a1.1 1.1 0 0 0-.212.084c-.161.081-.246.192-.239.39.014.474.002.949.006 1.422 0 .068-.018.084-.084.083-.3-.004-.599-.004-.898 0-.068 0-.084-.019-.083-.085.002-.742.002-1.483-.001-2.225 0-.071.024-.083.088-.082.295.003.591.005.888-.001.08-.001.097.026.089.097-.003.043.001.086.001.14zM124.709 20.583c.097-.052.184-.091.263-.141.506-.326 1.12-.208 1.532.184.185.175.292.366.282.635-.018.455-.008.911-.002 1.366 0 .091-.028.108-.112.107a25.757 25.757 0 0 0-.879 0c-.079.001-.102-.019-.101-.099.004-.487.002-.973.002-1.46 0-.268-.297-.489-.557-.417a1.08 1.08 0 0 0-.201.084c-.152.081-.236.185-.23.377.014.467.002.936.007 1.403.001.096-.028.114-.117.112a27.33 27.33 0 0 0-.859-.001c-.064.001-.087-.013-.087-.082.002-.745.002-1.49 0-2.234 0-.058.014-.076.074-.075.303.003.604.002.907 0 .06-.001.088.012.08.077-.006.047-.002.096-.002.164zM141.006 20.263c.382.002.739.107 1.051.344.668.508.683 1.372.036 1.906-.603.497-1.569.503-2.177.011-.657-.53-.636-1.436.045-1.936a1.742 1.742 0 0 1 1.045-.325zm-.426 1.309c0 .23-.002.459.001.688.002.165.083.257.244.294.084.019.17.017.256.012.208-.013.317-.121.319-.327.003-.441.004-.884 0-1.326-.002-.256-.16-.413-.401-.412-.26 0-.416.152-.419.414-.003.219 0 .439 0 .657zM131.132 21.564c-.299 0-.598.002-.897-.001-.064 0-.088.011-.086.081.005.197.001.395.002.592.003.206.108.315.316.329a.851.851 0 0 0 .247-.012c.172-.041.254-.142.258-.317a3.962 3.962 0 0 0 0-.267c-.001-.044.011-.061.058-.061.321.003.643.003.964 0 .077 0 .055.04.04.078a1.317 1.317 0 0 1-.578.662c-.624.374-1.484.307-2.025-.159-.594-.511-.596-1.315-.005-1.827.623-.539 1.668-.531 2.274.018.235.212.379.473.412.793.007.07-.005.095-.082.094-.3-.005-.599-.003-.898-.003zm-.57-.398h.152c.276 0 .276 0 .257-.279a.402.402 0 0 0-.406-.386c-.227-.006-.386.126-.41.349-.01.088-.003.178-.006.266-.002.047.023.051.059.05h.354zM127.418 21.533c0-.369-.002-.739.002-1.108.001-.068-.02-.086-.085-.083-.134.004-.268-.001-.401.002-.051.001-.071-.01-.073-.068-.008-.253-.01-.253.246-.253.083 0 .167-.002.249.001.05.003.066-.011.065-.063-.004-.124.001-.248-.003-.373-.001-.054.016-.069.07-.069.315.002.63.002.945 0 .058 0 .078.013.076.074-.005.121.001.242-.003.363-.001.055.016.069.069.068.14-.004.28.001.42-.002.053-.002.068.014.069.067.004.253.005.252-.248.254-.101.001-.235-.043-.292.019-.05.055-.017.187-.017.285-.001.663-.001 1.325.002 1.986 0 .08-.019.102-.1.101a34.274 34.274 0 0 0-.907-.001c-.066.001-.086-.015-.085-.083.003-.372.001-.745.001-1.117zM123.064 21.537c0 .369-.002.739.002 1.108.001.072-.018.09-.089.089a37.551 37.551 0 0 0-.888-.001c-.065.001-.086-.017-.086-.084.002-.742.002-1.483 0-2.226 0-.069.021-.083.086-.082.299.003.599.003.897 0 .062-.001.081.015.08.078-.003.373-.002.746-.002 1.118zM122.531 19.836c-.153-.001-.306-.003-.459 0-.055.001-.07-.017-.069-.07a17.07 17.07 0 0 0 0-.506c0-.044.01-.06.058-.06.315.002.63.002.946 0 .046 0 .059.015.059.06-.003.172-.003.344 0 .515.001.054-.021.062-.067.062-.156-.003-.312-.001-.468-.001zM142.697 19.184c.294 0 .549.264.55.571 0 .289-.26.55-.548.55a.553.553 0 0 1-.545-.549.557.557 0 0 1 .543-.572zm-.002 1.033a.473.473 0 0 0 .466-.458c.001-.263-.211-.487-.461-.488-.261-.001-.458.205-.46.482 0 .26.198.463.455.464z"/><path d="M142.497 19.722c0-.015-.001-.032 0-.047.007-.065-.031-.165.02-.187a.386.386 0 0 1 .27.003c.105.036.141.193.056.279-.045.047-.037.075-.009.118.017.026.05.056-.004.084-.056.03-.052-.025-.071-.047a.253.253 0 0 1-.034-.057c-.023-.054-.069-.035-.107-.035-.056 0-.029.046-.032.072-.004.031.006.064-.045.064-.051-.001-.042-.035-.044-.066v-.181zm.181.013c.066.006.122.003.124-.08.002-.095-.064-.09-.131-.095-.075-.006-.085.021-.089.089-.004.084.03.101.096.086z"/></g><g fill="#1c1b1d"><path d="M55.633 161.882h.273c.464 0 .818.068 1.064.203s.448.351.607.646.238.629.238 1.002c0 .315-.058.609-.172.881s-.284.498-.508.678a1.883 1.883 0 0 1-.645.316v2.641h-.859v-6.367zm.86.945v1.863c.286-.19.43-.502.43-.938 0-.229-.036-.42-.107-.574s-.18-.27-.323-.351zM58.063 165.148c0-1.229.132-2.121.395-2.676.203-.427.456-.641.758-.641.141 0 .278.052.414.156s.261.291.375.561.202.63.262 1.082.09.934.09 1.447c0 1.297-.157 2.213-.473 2.75-.185.315-.402.473-.652.473-.352 0-.624-.25-.816-.75-.236-.617-.353-1.418-.353-2.402zm1.153-2.336c-.067.115-.118.24-.152.377s-.059.382-.074.736a33.98 33.98 0 0 0-.035 1.316c0 .721.028 1.241.086 1.559.036.203.095.381.176.535.075-.151.129-.296.16-.436s.052-.385.063-.736c.019-.651.027-1.126.027-1.426 0-.669-.027-1.148-.082-1.438a1.625 1.625 0 0 0-.169-.487zM60.298 161.882h.863l.271 3.707.352-3.707h.758l.355 3.758.271-3.758h.848l-.766 6.418h-.705l-.383-3.543-.379 3.543h-.706l-.779-6.418zM64.329 161.882h1.465v.844h-.605v2.008h.605v.828h-.605v1.852h.605v.836h-1.465v-6.368zM66.079 161.882h.461c.539 0 .959.155 1.26.465s.451.744.451 1.301c0 .315-.062.595-.184.84a1.64 1.64 0 0 1-.402.5c.133.146.23.284.293.414.13.276.233.63.311 1.063s.143 1.027.197 1.785h-.867c-.036-.948-.122-1.643-.258-2.086-.102-.333-.235-.568-.402-.703v2.789h-.859v-6.368zm.929.918v1.832a.657.657 0 0 0 .326-.333c.079-.163.119-.357.119-.583 0-.236-.039-.433-.117-.59s-.187-.267-.328-.326z"/></g><g fill="#1c1b1d"><path d="M193.102 161.066h.461c.539 0 .959.155 1.26.465s.451.744.451 1.301c0 .315-.062.595-.184.84a1.64 1.64 0 0 1-.402.5c.133.146.23.284.293.414.13.276.233.63.311 1.063s.143 1.027.197 1.785h-.867c-.036-.948-.122-1.643-.258-2.086-.102-.333-.235-.568-.402-.703v2.789h-.859v-6.368zm.93.918v1.832a.657.657 0 0 0 .326-.333c.079-.163.119-.357.119-.583 0-.236-.039-.433-.117-.59s-.187-.266-.328-.326zM195.77 161.066h1.465v.844h-.605v2.008h.605v.828h-.605v1.852h.605v.836h-1.465v-6.368zM197.407 166.507a.94.94 0 0 0 .367.086c.153 0 .275-.049.365-.148s.135-.245.135-.438c0-.154-.017-.301-.051-.441-.065-.279-.185-.64-.359-1.084s-.304-.847-.387-1.209a3.098 3.098 0 0 1-.07-.688c0-.547.106-.945.318-1.195s.489-.375.83-.375c.159 0 .341.033.547.098v.848a.774.774 0 0 0-.328-.086c-.146 0-.27.06-.371.18s-.152.294-.152.523c0 .151.017.299.05.445a8.3 8.3 0 0 0 .328 1.02c.193.508.334.962.423 1.363.044.203.066.42.066.652 0 .458-.111.811-.334 1.057s-.501.369-.834.369c-.146 0-.327-.034-.543-.102v-.875zM199.438 161.066h1.465v.844h-.605v2.008h.605v.828h-.605v1.852h.605v.836h-1.465v-6.368zM201.067 161.066h2.066v.832h-.602v5.535h-.859v-5.535h-.605v-.832z"/></g><g fill="#1c1b1d"><path d="M113.157 174.432v-2.999h.991l.363 1.771h.009l.375-1.771h.983v2.999h-.671l.071-2.351h-.008l-.495 2.351h-.524l-.483-2.351h-.008l.063 2.351h-.666zM116.257 174.432v-2.999h1.611v.6h-.907v.552h.879v.6h-.879v.648h.955v.6h-1.659zM118.269 174.432v-2.999h.991l.363 1.771h.009l.375-1.771h.983v2.999h-.671l.071-2.351h-.008l-.495 2.351h-.524l-.483-2.351h-.008l.063 2.351h-.666zM123.251 173.476c0 .676-.235 1.027-.947 1.027-.711 0-.959-.352-.959-1.027v-1.219c0-.576.344-.896.959-.896.616 0 .947.32.947.896v1.219zm-.703-1.171c0-.184-.016-.404-.248-.404-.224 0-.252.22-.252.404v1.231c0 .172.028.428.256.428.229 0 .244-.256.244-.428v-1.231zM124.28 174.432h-.703v-2.999h1.027c.576 0 .863.232.863.828 0 .32-.076.548-.371.684v.008c.195.044.335.18.348.388.02.24.023.755.063.947.017.04.036.076.068.104v.04h-.768a.598.598 0 0 1-.04-.172c-.012-.264.004-.512-.016-.696-.021-.184-.076-.304-.24-.315h-.232v1.183zm0-1.723h.24c.204 0 .252-.188.252-.372 0-.356-.148-.372-.492-.364v.736zM126.668 172.413h.008l.36-.979h.703l-.724 1.739v1.259h-.703v-1.259l-.708-1.739h.712l.352.979zM128.968 174.432v-2.999h1.611v.6h-.907v.552h.879v.6h-.879v.648h.955v.6h-1.659zM131.9 172.345h.008l.32-.912h.703l-.623 1.503.651 1.495h-.703l-.34-.896h-.009l-.399.896h-.672l.668-1.495-.632-1.503h.699l.329.912zM133.22 174.432v-2.999h.836c.271 0 .663.024.859.248.164.184.195.408.195.652 0 .324-.075.688-.396.835-.244.12-.527.084-.792.096v1.167h-.702zm.704-1.707c.133-.004.284.012.396-.076.071-.08.088-.2.088-.304 0-.116-.012-.292-.132-.348-.068-.024-.164-.024-.276-.024h-.076v.752zM135.121 174.432l.655-2.999h.848l.651 2.999h-.711l-.101-.583h-.552l-.084.583h-.706zm1.079-2.455h-.008l-.204 1.343h.408l-.196-1.343zM138.091 172.753l-.008.008.064 1.671h-.668v-2.999h.724l.544 1.675h.012l-.068-1.675h.668v2.999h-.72l-.548-1.679zM140.249 173.428v.212c0 .172.056.324.279.324.164 0 .236-.148.236-.3 0-.252-.208-.348-.392-.46-.216-.124-.4-.24-.532-.392a.876.876 0 0 1-.204-.6c0-.564.34-.852.884-.852.611 0 .924.408.892.972h-.647c-.008-.176 0-.416-.232-.432-.144-.012-.228.068-.243.2-.021.18.071.271.212.368.264.168.491.272.655.424s.26.352.26.715c0 .576-.319.896-.903.896-.644 0-.916-.359-.916-.755v-.32h.651zM141.737 174.432v-2.999h.703v2.999h-.703zM144.712 173.476c0 .676-.235 1.027-.947 1.027-.711 0-.959-.352-.959-1.027v-1.219c0-.576.344-.896.959-.896.616 0 .947.32.947.896v1.219zm-.704-1.171c0-.184-.016-.404-.248-.404-.224 0-.252.22-.252.404v1.231c0 .172.028.428.256.428.229 0 .244-.256.244-.428v-1.231zM145.652 172.753l-.008.008.064 1.671h-.668v-2.999h.724l.544 1.675h.012l-.068-1.675h.668v2.999h-.72l-.548-1.679z"/></g><g fill="#1c1b1d"><circle cx="118.523" cy="149.275" r=".965"/><circle cx="133.846" cy="149.275" r=".965"/><circle cx="141.507" cy="149.275" r=".965"/><circle cx="126.185" cy="149.275" r=".965"/></g><g><linearGradient id="a" gradientUnits="userSpaceOnUse" x1="387.925" y1="35.543" x2="457.215" y2="155.555"><stop offset="0" stop-color="#323131"/><stop offset=".016" stop-color="#313030"/><stop offset=".185" stop-color="#2a2929"/><stop offset=".377" stop-color="#232323"/><stop offset=".611" stop-color="#201f20"/><stop offset="1" stop-color="#1e1e1e"/></linearGradient><path d="M418.908 62.852c7.16-.077 16.94.513 28.09 3.484 3.323.886 3.094 1.003 16.801 5.575 21.48 7.164 25.132 7.905 27.827 8.363 2.575.438 3.165.429 19.452 1.675 8.957.685 16.246 1.26 20.976 1.635 2.735.392 3.325 1.384 3.325 3.076v6.13c-18.125.892-28.547 4.83-28.547 6.645v27.472h-175.85V99.436c0-1.814-10.422-5.753-28.547-6.645v-6.13c0-1.692.591-2.684 3.325-3.076 4.731-.376 12.02-.95 20.976-1.635 16.287-1.246 16.877-1.237 19.452-1.675 2.695-.458 6.347-1.199 27.827-8.363 13.707-4.572 13.478-4.69 16.801-5.575 11.152-2.971 20.932-3.562 28.092-3.485z" fill="url(#a)"/><linearGradient id="b" gradientUnits="userSpaceOnUse" x1="391.799" y1="86.604" x2="446.017" y2="86.604"><stop offset="0" stop-color="#121319"/><stop offset="1" stop-color="#101015"/></linearGradient><path d="M418.908 69.597c4.048.028 20.138-.101 24.92 3.469 4.431 3.308 1.087 11.427-.899 20.178-1.675 7.38-4.19 10.366-24.021 10.366s-22.346-2.986-24.021-10.366c-1.987-8.751-5.331-16.87-.899-20.178 4.782-3.569 20.871-3.441 24.92-3.469z" fill="url(#b)"/><g fill="#31529a"><path d="M420.558 88.416l.436-.513v-3.465l-2.081.83-1.724 3.178 1.724-.687 1.645.657zM424.255 93.244v-5.843l2.111-.841v9.195l-2.111.923-3.102-4.192v5.546l-2.24.974v-9.472l2.24-.882 3.102 4.592zM415.553 95.766l-1.982-3.977v4.89l1.982-.913z"/></g><g fill="#459c5f"><path d="M415.682 86.561l.991 2.091.515-.205 1.724-3.178-2.081-.841-1.149 2.133zM420.558 88.416l1.586-1.855 2.111.841v5.843l-3.102-4.592-.595-.237z"/><path d="M418.913 99.005v-9.472l-2.24-.882v4.808l-3.112-6.058-2.111-.841v9.195l2.111.923v-4.89l3.112 6.243 2.24.974z"/></g><g fill="#98394d"><path d="M413.571 87.402l2.111-.841.991 2.091v4.808l-3.102-6.058zM421.153 94.772l.634.923 2.468.984-3.102-4.192v2.285z"/></g><g fill="#b7bd62"><path d="M416.683 88.652l2.24-.882 2.24.882-2.24.882-2.24-.882zM424.255 85.721l2.111.841-2.111.841-2.111-.841 2.111-.841zM413.571 85.721l2.111.841-2.111.841-2.111-.841 2.111-.841zM418.913 83.599l-2.081.83 2.081.841 2.081-.83-2.081-.841z"/></g><g fill="#b3c4d6"><path d="M423.767 76.307h1.889c1.616 0 2.123.915 2.123 2.162 0 1.285-.798 2.084-2.025 2.084h-1.986v-4.246h-.001zm1.558 3.291h.156c.253 0 .428-.078.526-.253.097-.175.117-.506.117-.915s-.02-.74-.117-.915c-.097-.175-.273-.253-.526-.253h-.156v2.336zM430.272 76.19c1.383 0 2.084.915 2.084 2.24 0 1.324-.682 2.24-2.084 2.24-1.383 0-2.084-.915-2.084-2.24 0-1.325.681-2.24 2.084-2.24zm0 3.388c.253 0 .428-.117.428-1.169 0-1.013-.175-1.168-.428-1.168s-.428.136-.428 1.168c-.001 1.033.174 1.169.428 1.169zM402.169 76.307v2.434h-.019l-.857-2.434h-1.909v4.246h1.285v-2.454h.019l.857 2.454h1.909v-4.246h-1.285zM409.375 76.307v2.434h-.019l-.857-2.434h-1.909v4.246h1.285v-2.454h.019l.857 2.454h1.909v-4.246h-1.285zM421.78 76.307v2.434h-.019l-.857-2.434h-1.909v4.246h1.285v-2.454h.019l.857 2.454h1.909v-4.246h-1.285zM405.83 76.307v4.246h-1.597v-4.246h1.597zM412.14 80.552v-3.097h-1.013v-1.149h3.622v1.149h-1.013v3.097h-1.596zM416.795 77.436v.448h1.461v1.091h-1.461v.467h1.636v1.11h-3.194v-4.246h3.155v1.13h-1.597zM435.218 75.742h-.292c-.682.039-.935.312-1.032.643h.019c.175-.156.37-.214.643-.214.526 0 1.013.389 1.013 1.11 0 .701-.526 1.246-1.246 1.246-.954 0-1.363-.721-1.363-1.5 0-.623.214-1.168.584-1.5.351-.331.798-.487 1.344-.506h.312v.721h.018zm-.896 2.103c.214 0 .351-.214.351-.506 0-.234-.117-.506-.409-.506a.409.409 0 0 0-.37.253c-.019.039-.019.097-.019.195.019.272.155.564.447.564zM437.244 78.468v-.76h-1.422v-.604l1.13-2.025h1.13v1.947h.351v.701h-.351v.76h-.857l.019-.019zm0-1.46v-.584c0-.214.019-.448.019-.682h-.019c-.097.234-.195.448-.312.682l-.273.565v.019h.585z"/></g><linearGradient id="c" gradientUnits="userSpaceOnUse" x1="299.222" y1="88.503" x2="320.569" y2="109.85"><stop offset="0" stop-color="#323131"/><stop offset="1" stop-color="#1e1e1e"/></linearGradient><path d="M302.436 92.791c-7.724 2.086-13.403 4.295-13.403 6.645h41.95c0-1.814-10.422-5.752-28.547-6.645z" fill="url(#c)"/><linearGradient id="d" gradientUnits="userSpaceOnUse" x1="289.033" y1="102.957" x2="330.983" y2="102.957"><stop offset="0" stop-color="#1e1e1e"/><stop offset=".5" stop-color="#323131"/><stop offset="1" stop-color="#1e1e1e"/></linearGradient><path fill="url(#d)" d="M289.033 99.436h41.95v7.041h-41.95z"/><linearGradient id="e" gradientUnits="userSpaceOnUse" x1="289.034" y1="117.154" x2="330.983" y2="117.154"><stop offset="0" stop-color="#1e1e1e"/><stop offset=".5" stop-color="#323131"/><stop offset="1" stop-color="#1e1e1e"/></linearGradient><path d="M289.034 107.4l1.86 17.652a2.267 2.267 0 0 0 2.229 1.857h37.86V107.4h-41.949z" fill="url(#e)"/><linearGradient id="f" gradientUnits="userSpaceOnUse" x1="506.833" y1="96.114" x2="548.783" y2="96.114"><stop offset="0" stop-color="#323131"/><stop offset="1" stop-color="#1e1e1e"/></linearGradient><path d="M535.38 92.791c7.724 2.086 13.403 4.295 13.403 6.645h-41.95c0-1.814 10.422-5.752 28.547-6.645z" fill="url(#f)"/><linearGradient id="g" gradientUnits="userSpaceOnUse" x1="-71.167" y1="102.957" x2="-29.218" y2="102.957" gradientTransform="matrix(-1 0 0 1 477.615 0)"><stop offset="0" stop-color="#1e1e1e"/><stop offset=".5" stop-color="#323131"/><stop offset="1" stop-color="#1e1e1e"/></linearGradient><path fill="url(#g)" d="M506.833 99.436h41.95v7.041h-41.95z"/><linearGradient id="h" gradientUnits="userSpaceOnUse" x1="506.833" y1="117.154" x2="548.782" y2="117.154"><stop offset="0" stop-color="#1e1e1e"/><stop offset=".5" stop-color="#323131"/><stop offset="1" stop-color="#1e1e1e"/></linearGradient><path d="M548.782 107.4l-1.86 17.652a2.267 2.267 0 0 1-2.229 1.857h-37.86V107.4h41.949z" fill="url(#h)"/><ellipse cx="418.908" cy="117.835" rx="6.43" ry="1.632" fill="#bf2f62"/><linearGradient id="i" gradientUnits="userSpaceOnUse" x1="393.163" y1="74.531" x2="398.776" y2="74.531"><stop offset="0" stop-color="#deecf6"/><stop offset="1" stop-color="#88929c"/></linearGradient><path d="M393.163 77.082c.865-2.622 1.452-3.976 5.614-5.102-3.572 0-5.614 2.242-5.614 5.102z" fill="url(#i)"/><linearGradient id="j" gradientUnits="userSpaceOnUse" x1="355.787" y1="80.96" x2="360.31" y2="73.126"><stop offset="0" stop-color="#2a2a2a"/><stop offset="1" stop-color="#1e1e1e"/></linearGradient><path d="M363.947 75.226c-1.569.507-3.284-1.5-6.543-.569-3.258.931-4.598 2.962-5.245 4.208 2.556-.721 6.228-1.841 11.788-3.639z" fill="url(#j)"/><path d="M352.839 78.325c.653-.878 1.434-1.707 2.954-2.542.986-.542 1.655-.904 2.681-1.229-.807.094-1.792.421-2.778.963-1.519.834-2.607 1.943-2.857 2.808z" fill="#90979e"/><path fill="#0e1015" d="M290.894 106.477h256.029v.922H290.894zM293.404 126.908h251.008v.922H293.404z"/><linearGradient id="k" gradientUnits="userSpaceOnUse" x1="451.109" y1="116.956" x2="463.078" y2="96.225"><stop offset="0" stop-color="#8f95a4"/><stop offset="1" stop-color="#a7bdd2"/></linearGradient><circle cx="457.094" cy="106.591" r="11.967" fill="url(#k)"/><path d="M457.094 111.465h6.622c.301 0 .59-.149.747-.406a8.61 8.61 0 0 0 1.186-5.51c-.459-3.907-3.656-7.083-7.566-7.518a8.619 8.619 0 0 0-8.359 13.027.875.875 0 0 0 .749.408l6.621-.001z" fill="#0e1015"/><linearGradient id="l" gradientUnits="userSpaceOnUse" x1="450.201" y1="104.883" x2="463.986" y2="104.883"><stop offset="0" stop-color="#8f95a4"/><stop offset="1" stop-color="#a7bdd2"/></linearGradient><path d="M457.094 109.844h5.298a.711.711 0 0 0 .597-.299 5.925 5.925 0 0 0 .949-4.053c-.367-2.874-2.925-5.209-6.053-5.53-4.161-.426-7.684 2.557-7.684 6.297a5.93 5.93 0 0 0 .997 3.285c.126.19.358.3.599.3h5.297z" fill="url(#l)"/><g fill="#141015"><circle cx="452.922" cy="106.922" r="1.893"/><circle cx="457.094" cy="106.922" r="1.893"/><circle cx="461.265" cy="106.922" r="1.893"/></g><circle cx="452.922" cy="106.922" r=".628" fill="#68686a"/><circle cx="457.094" cy="106.922" r=".628" fill="#68686a"/><circle cx="461.265" cy="106.922" r=".628" fill="#68686a"/><linearGradient id="m" gradientUnits="userSpaceOnUse" x1="455.373" y1="115.046" x2="454.173" y2="113.846"><stop offset="0" stop-color="#a9b4c6"/><stop offset=".138" stop-color="#a5afc1"/><stop offset=".299" stop-color="#99a0b2"/><stop offset=".473" stop-color="#84889a"/><stop offset=".654" stop-color="#6a6c7f"/><stop offset=".84" stop-color="#4d5063"/><stop offset="1" stop-color="#2e354b"/></linearGradient><circle cx="454.773" cy="114.446" r=".849" fill="url(#m)"/><linearGradient id="n" gradientUnits="userSpaceOnUse" x1="457.693" y1="115.046" x2="456.493" y2="113.846"><stop offset="0" stop-color="#a9b4c6"/><stop offset=".138" stop-color="#a5afc1"/><stop offset=".299" stop-color="#99a0b2"/><stop offset=".473" stop-color="#84889a"/><stop offset=".654" stop-color="#6a6c7f"/><stop offset=".84" stop-color="#4d5063"/><stop offset="1" stop-color="#2e354b"/></linearGradient><circle cx="457.094" cy="114.446" r=".849" fill="url(#n)"/><linearGradient id="o" gradientUnits="userSpaceOnUse" x1="460.014" y1="115.046" x2="458.814" y2="113.846"><stop offset="0" stop-color="#a9b4c6"/><stop offset=".138" stop-color="#a5afc1"/><stop offset=".299" stop-color="#99a0b2"/><stop offset=".473" stop-color="#84889a"/><stop offset=".654" stop-color="#6a6c7f"/><stop offset=".84" stop-color="#4d5063"/><stop offset="1" stop-color="#2e354b"/></linearGradient><circle cx="459.414" cy="114.446" r=".849" fill="url(#o)"/><linearGradient id="p" gradientUnits="userSpaceOnUse" x1="480.178" y1="116.956" x2="492.147" y2="96.225"><stop offset="0" stop-color="#8f95a4"/><stop offset="1" stop-color="#a7bdd2"/></linearGradient><circle cx="486.162" cy="106.591" r="11.967" fill="url(#p)"/><path d="M486.162 111.465h6.622c.301 0 .59-.149.747-.406a8.61 8.61 0 0 0 1.186-5.51c-.459-3.907-3.656-7.083-7.566-7.518a8.619 8.619 0 0 0-8.359 13.027.875.875 0 0 0 .749.408l6.621-.001z" fill="#0e1015"/><linearGradient id="q" gradientUnits="userSpaceOnUse" x1="479.269" y1="104.883" x2="493.055" y2="104.883"><stop offset="0" stop-color="#8f95a4"/><stop offset="1" stop-color="#a7bdd2"/></linearGradient><path d="M486.162 109.844h5.298a.711.711 0 0 0 .597-.299 5.925 5.925 0 0 0 .949-4.053c-.367-2.874-2.925-5.209-6.053-5.53-4.161-.426-7.684 2.557-7.684 6.297a5.93 5.93 0 0 0 .997 3.285c.125.19.358.3.599.3h5.297z" fill="url(#q)"/><g fill="#141015"><circle cx="481.991" cy="106.922" r="1.893"/><circle cx="486.163" cy="106.922" r="1.893"/><circle cx="490.334" cy="106.922" r="1.893"/></g><circle cx="481.991" cy="106.922" r=".628" fill="#68686a"/><circle cx="486.163" cy="106.922" r=".628" fill="#68686a"/><circle cx="490.334" cy="106.922" r=".628" fill="#68686a"/><linearGradient id="r" gradientUnits="userSpaceOnUse" x1="483.282" y1="115.046" x2="482.082" y2="113.846"><stop offset="0" stop-color="#a9b4c6"/><stop offset=".138" stop-color="#a5afc1"/><stop offset=".299" stop-color="#99a0b2"/><stop offset=".473" stop-color="#84889a"/><stop offset=".654" stop-color="#6a6c7f"/><stop offset=".84" stop-color="#4d5063"/><stop offset="1" stop-color="#2e354b"/></linearGradient><circle cx="482.682" cy="114.446" r=".849" fill="url(#r)"/><linearGradient id="s" gradientUnits="userSpaceOnUse" x1="485.602" y1="115.046" x2="484.402" y2="113.846"><stop offset="0" stop-color="#a9b4c6"/><stop offset=".138" stop-color="#a5afc1"/><stop offset=".299" stop-color="#99a0b2"/><stop offset=".473" stop-color="#84889a"/><stop offset=".654" stop-color="#6a6c7f"/><stop offset=".84" stop-color="#4d5063"/><stop offset="1" stop-color="#2e354b"/></linearGradient><circle cx="485.002" cy="114.446" r=".849" fill="url(#s)"/><linearGradient id="t" gradientUnits="userSpaceOnUse" x1="487.923" y1="115.046" x2="486.722" y2="113.846"><stop offset="0" stop-color="#a9b4c6"/><stop offset=".138" stop-color="#a5afc1"/><stop offset=".299" stop-color="#99a0b2"/><stop offset=".473" stop-color="#84889a"/><stop offset=".654" stop-color="#6a6c7f"/><stop offset=".84" stop-color="#4d5063"/><stop offset="1" stop-color="#2e354b"/></linearGradient><circle cx="487.322" cy="114.446" r=".849" fill="url(#t)"/><linearGradient id="u" gradientUnits="userSpaceOnUse" x1="490.243" y1="115.046" x2="489.043" y2="113.846"><stop offset="0" stop-color="#a9b4c6"/><stop offset=".138" stop-color="#a5afc1"/><stop offset=".299" stop-color="#99a0b2"/><stop offset=".473" stop-color="#84889a"/><stop offset=".654" stop-color="#6a6c7f"/><stop offset=".84" stop-color="#4d5063"/><stop offset="1" stop-color="#2e354b"/></linearGradient><circle cx="489.643" cy="114.446" r=".849" fill="url(#u)"/><linearGradient id="v" gradientUnits="userSpaceOnUse" x1="456.325" y1="116.956" x2="468.294" y2="96.225" gradientTransform="translate(-110.656)"><stop offset="0" stop-color="#8f95a4"/><stop offset="1" stop-color="#a7bdd2"/></linearGradient><circle cx="351.653" cy="106.591" r="11.967" fill="url(#v)"/><path d="M351.653 111.465h6.622c.301 0 .59-.149.747-.406a8.61 8.61 0 0 0 1.186-5.51c-.459-3.907-3.656-7.083-7.566-7.518a8.619 8.619 0 0 0-8.359 13.027.875.875 0 0 0 .749.408l6.621-.001z" fill="#0e1015"/><linearGradient id="w" gradientUnits="userSpaceOnUse" x1="455.417" y1="104.883" x2="469.203" y2="104.883" gradientTransform="translate(-110.656)"><stop offset="0" stop-color="#8f95a4"/><stop offset="1" stop-color="#a7bdd2"/></linearGradient><path d="M351.653 109.844h5.298a.711.711 0 0 0 .597-.299 5.925 5.925 0 0 0 .949-4.053c-.367-2.874-2.925-5.209-6.053-5.53-4.161-.426-7.684 2.557-7.684 6.297a5.93 5.93 0 0 0 .997 3.285c.126.19.358.3.599.3h5.297z" fill="url(#w)"/><g fill="#141015"><circle cx="347.481" cy="106.922" r="1.893"/><circle cx="351.653" cy="106.922" r="1.893"/><circle cx="355.825" cy="106.922" r="1.893"/></g><circle cx="347.481" cy="106.922" r=".628" fill="#68686a"/><circle cx="351.653" cy="106.922" r=".628" fill="#68686a"/><circle cx="355.825" cy="106.922" r=".628" fill="#68686a"/><g><linearGradient id="x" gradientUnits="userSpaceOnUse" x1="463.13" y1="115.046" x2="461.93" y2="113.846" gradientTransform="translate(-110.656)"><stop offset="0" stop-color="#a9b4c6"/><stop offset=".138" stop-color="#a5afc1"/><stop offset=".299" stop-color="#99a0b2"/><stop offset=".473" stop-color="#84889a"/><stop offset=".654" stop-color="#6a6c7f"/><stop offset=".84" stop-color="#4d5063"/><stop offset="1" stop-color="#2e354b"/></linearGradient><circle cx="351.874" cy="114.446" r=".849" fill="url(#x)"/></g><g><linearGradient id="y" gradientUnits="userSpaceOnUse" x1="485.394" y1="116.956" x2="497.363" y2="96.225" gradientTransform="translate(-110.656)"><stop offset="0" stop-color="#8f95a4"/><stop offset="1" stop-color="#a7bdd2"/></linearGradient><circle cx="380.722" cy="106.591" r="11.967" fill="url(#y)"/><path d="M380.722 111.465h6.622c.301 0 .59-.149.747-.406a8.61 8.61 0 0 0 1.186-5.51c-.459-3.907-3.656-7.083-7.566-7.518a8.619 8.619 0 0 0-8.359 13.027.875.875 0 0 0 .749.408l6.621-.001z" fill="#0e1015"/><linearGradient id="z" gradientUnits="userSpaceOnUse" x1="484.486" y1="104.883" x2="498.272" y2="104.883" gradientTransform="translate(-110.656)"><stop offset="0" stop-color="#8f95a4"/><stop offset="1" stop-color="#a7bdd2"/></linearGradient><path d="M380.722 109.844h5.298a.711.711 0 0 0 .597-.299 5.925 5.925 0 0 0 .949-4.053c-.367-2.874-2.925-5.209-6.053-5.53-4.161-.426-7.684 2.557-7.684 6.297a5.93 5.93 0 0 0 .997 3.285c.126.19.358.3.599.3h5.297z" fill="url(#z)"/><g fill="#141015"><circle cx="376.55" cy="106.922" r="1.893"/><circle cx="380.722" cy="106.922" r="1.893"/><circle cx="384.894" cy="106.922" r="1.893"/></g><circle cx="376.55" cy="106.922" r=".628" fill="#68686a"/><circle cx="380.722" cy="106.922" r=".628" fill="#68686a"/><circle cx="384.894" cy="106.922" r=".628" fill="#68686a"/><g><linearGradient id="A" gradientUnits="userSpaceOnUse" x1="490.818" y1="115.046" x2="489.618" y2="113.846" gradientTransform="translate(-110.656)"><stop offset="0" stop-color="#a9b4c6"/><stop offset=".138" stop-color="#a5afc1"/><stop offset=".299" stop-color="#99a0b2"/><stop offset=".473" stop-color="#84889a"/><stop offset=".654" stop-color="#6a6c7f"/><stop offset=".84" stop-color="#4d5063"/><stop offset="1" stop-color="#2e354b"/></linearGradient><circle cx="379.562" cy="114.446" r=".849" fill="url(#A)"/><linearGradient id="B" gradientUnits="userSpaceOnUse" x1="493.139" y1="115.046" x2="491.939" y2="113.846" gradientTransform="translate(-110.656)"><stop offset="0" stop-color="#a9b4c6"/><stop offset=".138" stop-color="#a5afc1"/><stop offset=".299" stop-color="#99a0b2"/><stop offset=".473" stop-color="#84889a"/><stop offset=".654" stop-color="#6a6c7f"/><stop offset=".84" stop-color="#4d5063"/><stop offset="1" stop-color="#2e354b"/></linearGradient><circle cx="381.882" cy="114.446" r=".849" fill="url(#B)"/></g></g><linearGradient id="C" gradientUnits="userSpaceOnUse" x1="291.94" y1="131.209" x2="343.76" y2="131.209"><stop offset="0" stop-color="#131214"/><stop offset=".097" stop-color="#151416"/><stop offset=".197" stop-color="#191a1d"/><stop offset=".298" stop-color="#1f2226"/><stop offset=".3" stop-color="#1f2226"/><stop offset=".304" stop-color="#1f2226"/><stop offset=".541" stop-color="#191a1d"/><stop offset=".774" stop-color="#151416"/><stop offset="1" stop-color="#131214"/></linearGradient><path d="M342.901 135.048H295.19a3.25 3.25 0 0 1-3.25-3.25v-3.568a.86.86 0 0 1 .86-.86h50.101a.86.86 0 0 1 .86.86v5.958a.861.861 0 0 1-.86.86z" fill="url(#C)"/><linearGradient id="D" gradientUnits="userSpaceOnUse" x1="294.297" y1="195.137" x2="343.76" y2="195.137"><stop offset="0" stop-color="#131214"/><stop offset=".097" stop-color="#151416"/><stop offset=".197" stop-color="#191a1d"/><stop offset=".298" stop-color="#1f2226"/><stop offset=".3" stop-color="#1f2226"/><stop offset=".304" stop-color="#1f2226"/><stop offset=".541" stop-color="#191a1d"/><stop offset=".774" stop-color="#151416"/><stop offset="1" stop-color="#131214"/></linearGradient><path d="M342.92 198.976h-45.448a3.175 3.175 0 0 1-3.175-3.175v-3.663a.84.84 0 0 1 .84-.84h47.783a.84.84 0 0 1 .84.84v5.998a.84.84 0 0 1-.84.84z" fill="url(#D)"/><linearGradient id="E" gradientUnits="userSpaceOnUse" x1="-360.208" y1="131.209" x2="-412.028" y2="131.209" gradientTransform="matrix(-1 0 0 1 133.848 0)"><stop offset="0" stop-color="#131214"/><stop offset=".097" stop-color="#151416"/><stop offset=".197" stop-color="#191a1d"/><stop offset=".298" stop-color="#1f2226"/><stop offset=".3" stop-color="#1f2226"/><stop offset=".304" stop-color="#1f2226"/><stop offset=".541" stop-color="#191a1d"/><stop offset=".774" stop-color="#151416"/><stop offset="1" stop-color="#131214"/></linearGradient><path d="M494.915 135.048h47.711a3.25 3.25 0 0 0 3.25-3.25v-3.568a.86.86 0 0 0-.86-.86h-50.101a.86.86 0 0 0-.86.86v5.958c0 .475.385.86.86.86z" fill="url(#E)"/><linearGradient id="F" gradientUnits="userSpaceOnUse" x1="-360.208" y1="195.137" x2="-409.671" y2="195.137" gradientTransform="matrix(-1 0 0 1 133.848 0)"><stop offset="0" stop-color="#131214"/><stop offset=".097" stop-color="#151416"/><stop offset=".197" stop-color="#191a1d"/><stop offset=".298" stop-color="#1f2226"/><stop offset=".3" stop-color="#1f2226"/><stop offset=".304" stop-color="#1f2226"/><stop offset=".541" stop-color="#191a1d"/><stop offset=".774" stop-color="#151416"/><stop offset="1" stop-color="#131214"/></linearGradient><path d="M494.896 198.976h45.448a3.175 3.175 0 0 0 3.175-3.175v-3.663a.84.84 0 0 0-.84-.84h-47.783a.84.84 0 0 0-.84.84v5.998a.84.84 0 0 0 .84.84z" fill="url(#F)"/><linearGradient id="G" gradientUnits="userSpaceOnUse" x1="293.404" y1="163.173" x2="330.983" y2="163.173"><stop offset="0" stop-color="#1e1e1e"/><stop offset=".45" stop-color="#323131"/><stop offset="1" stop-color="#1e1e1e"/></linearGradient><path fill="url(#G)" d="M330.983 135.048h-35.927l-1.652 32.916 1.603 23.334h35.976z"/><linearGradient id="H" gradientUnits="userSpaceOnUse" x1="-289.126" y1="163.173" x2="-251.547" y2="163.173" gradientTransform="matrix(-1 0 0 1 255.286 0)"><stop offset="0" stop-color="#1e1e1e"/><stop offset=".4" stop-color="#323131"/><stop offset="1" stop-color="#1e1e1e"/></linearGradient><path fill="url(#H)" d="M506.833 135.048h35.927l1.652 32.916-1.603 23.334h-35.976z"/><linearGradient id="I" gradientUnits="userSpaceOnUse" x1="330.983" y1="163.173" x2="506.833" y2="163.173"><stop offset="0" stop-color="#323131"/><stop offset=".016" stop-color="#313030"/><stop offset=".185" stop-color="#2a2929"/><stop offset=".377" stop-color="#232323"/><stop offset=".611" stop-color="#201f20"/><stop offset="1" stop-color="#1e1e1e"/></linearGradient><path fill="url(#I)" d="M330.983 135.048h175.849v56.25H330.983z"/><path fill="#0e1015" d="M544.384 168.408H293.435l-.031-.444.023-.444H544.39l.022.444z"/><ellipse cx="418.908" cy="143.46" rx="6.43" ry="1.632" fill="#bf2f62"/><g fill="#191919"><path d="M401.626 141.824h.34l.636 2.848h-.408l-.12-.612h-.556l-.12.612h-.408l.636-2.848zm.172.82h-.008l-.2 1.032h.408l-.2-1.032zM404.097 144.036a.655.655 0 0 1-.188.462.67.67 0 0 1-.206.144.606.606 0 0 1-.254.054.93.93 0 0 1-.236-.032.568.568 0 0 1-.374-.316.731.731 0 0 1-.062-.324v-1.568c0-.093.016-.18.048-.26a.625.625 0 0 1 .346-.346.694.694 0 0 1 .27-.05c.093 0 .18.017.26.05a.62.62 0 0 1 .346.356c.033.084.05.175.05.274v.16h-.408v-.136a.333.333 0 0 0-.068-.208.22.22 0 0 0-.184-.088c-.102 0-.169.031-.202.094a.509.509 0 0 0-.05.238v1.456c0 .083.018.152.054.208.036.056.101.084.194.084a.314.314 0 0 0 .086-.014.239.239 0 0 0 .084-.046.235.235 0 0 0 .062-.088.355.355 0 0 0 .024-.14v-.14h.408v.176zM405.725 144.036a.655.655 0 0 1-.188.462.67.67 0 0 1-.206.144.606.606 0 0 1-.254.054.93.93 0 0 1-.236-.032.568.568 0 0 1-.374-.316.731.731 0 0 1-.062-.324v-1.568c0-.093.016-.18.048-.26a.625.625 0 0 1 .346-.346.694.694 0 0 1 .27-.05c.093 0 .18.017.26.05a.62.62 0 0 1 .346.356c.033.084.05.175.05.274v.16h-.408v-.136a.333.333 0 0 0-.068-.208.22.22 0 0 0-.184-.088c-.102 0-.169.031-.202.094a.509.509 0 0 0-.05.238v1.456c0 .083.018.152.054.208.036.056.101.084.194.084a.314.314 0 0 0 .086-.014.239.239 0 0 0 .084-.046.235.235 0 0 0 .062-.088.355.355 0 0 0 .024-.14v-.14h.408v.176zM406.057 141.824h1.216v.384h-.808v.836h.704v.384h-.704v.836h.808v.408h-1.216v-2.848zM408.858 142.644h-.408v-.092a.436.436 0 0 0-.066-.242c-.044-.068-.118-.102-.222-.102a.27.27 0 0 0-.138.032.236.236 0 0 0-.084.082.348.348 0 0 0-.042.116.77.77 0 0 0-.012.138c0 .056.002.104.006.142s.014.072.03.1a.223.223 0 0 0 .07.074.727.727 0 0 0 .126.064l.312.124a.769.769 0 0 1 .22.122.51.51 0 0 1 .13.164.7.7 0 0 1 .062.216c.011.081.016.174.016.278 0 .12-.012.231-.036.334s-.063.191-.118.264-.127.131-.218.174a.79.79 0 0 1-.332.064.718.718 0 0 1-.496-.194.672.672 0 0 1-.2-.482v-.152h.408v.128c0 .075.022.142.066.202s.118.09.222.09a.36.36 0 0 0 .162-.03c.039-.02.068-.048.088-.084s.033-.081.038-.134a1.897 1.897 0 0 0 0-.36.295.295 0 0 0-.034-.116.225.225 0 0 0-.072-.072.927.927 0 0 0-.122-.06l-.292-.12c-.176-.072-.294-.167-.354-.286s-.09-.267-.09-.446c0-.107.015-.208.044-.304s.073-.179.13-.248a.617.617 0 0 1 .218-.166.724.724 0 0 1 .308-.062.683.683 0 0 1 .632.41.598.598 0 0 1 .048.234v.2zM410.482 142.644h-.408v-.092a.436.436 0 0 0-.066-.242c-.044-.068-.118-.102-.222-.102a.27.27 0 0 0-.138.032.236.236 0 0 0-.084.082.348.348 0 0 0-.042.116.77.77 0 0 0-.012.138c0 .056.002.104.006.142s.014.072.03.1a.223.223 0 0 0 .07.074.727.727 0 0 0 .126.064l.312.124a.769.769 0 0 1 .22.122.51.51 0 0 1 .13.164.7.7 0 0 1 .062.216c.011.081.016.174.016.278 0 .12-.012.231-.036.334s-.063.191-.118.264-.127.131-.218.174a.79.79 0 0 1-.332.064.718.718 0 0 1-.496-.194.672.672 0 0 1-.2-.482v-.152h.408v.128c0 .075.022.142.066.202s.118.09.222.09a.36.36 0 0 0 .162-.03c.039-.02.068-.048.088-.084s.033-.081.038-.134a1.897 1.897 0 0 0 0-.36.295.295 0 0 0-.034-.116.225.225 0 0 0-.072-.072.927.927 0 0 0-.122-.06l-.292-.12c-.176-.072-.294-.167-.354-.286s-.09-.267-.09-.446c0-.107.015-.208.044-.304s.073-.179.13-.248a.617.617 0 0 1 .218-.166.724.724 0 0 1 .308-.062.683.683 0 0 1 .632.41.598.598 0 0 1 .048.234v.2z"/></g><linearGradient id="J" gradientUnits="userSpaceOnUse" x1="340.575" y1="167.964" x2="497.241" y2="167.964"><stop offset="0" stop-color="#323131"/><stop offset=".016" stop-color="#313030"/><stop offset=".185" stop-color="#2a2929"/><stop offset=".377" stop-color="#232323"/><stop offset=".611" stop-color="#201f20"/><stop offset="1" stop-color="#1e1e1e"/></linearGradient><path d="M488.017 189.131H349.799a9.224 9.224 0 0 1-9.224-9.224v-23.885a9.224 9.224 0 0 1 9.224-9.224h138.218a9.224 9.224 0 0 1 9.224 9.224v23.885a9.224 9.224 0 0 1-9.224 9.224z" fill="url(#J)" stroke="#0f1014" stroke-width=".75" stroke-miterlimit="10"/><linearGradient id="K" gradientUnits="userSpaceOnUse" x1="493.856" y1="171.548" x2="344.76" y2="171.548"><stop offset="0" stop-color="#323131"/><stop offset="1" stop-color="#1e1e1e"/></linearGradient><path d="M488.611 185.964H350.006a5.246 5.246 0 0 1-5.246-5.246v-18.341a5.246 5.246 0 0 1 5.246-5.246H488.61a5.246 5.246 0 0 1 5.246 5.246v18.341a5.245 5.245 0 0 1-5.245 5.246z" fill="url(#K)"/><path d="M486.987 179.631H350.829a.38.38 0 0 1-.379-.379v-1.734h136.917v1.734a.38.38 0 0 1-.38.379z" fill="#0c0a0c"/><path d="M487.366 177.518H350.45v-17.967c0-.63.51-1.14 1.14-1.14h134.637c.63 0 1.14.51 1.14 1.14v17.967z" fill="#202021"/><linearGradient id="L" gradientUnits="userSpaceOnUse" x1="474.295" y1="163.398" x2="483.428" y2="172.531"><stop offset="0" stop-color="#a1acba"/><stop offset="1" stop-color="#999da8"/></linearGradient><circle cx="478.861" cy="167.964" r="6.458" fill="url(#L)"/><g fill="#8e97a7"><path d="M474.733 166.651v.995h1.085v.54h-1.085v1.091h1.154v.616h-1.593v-3.858h1.583v.616h-1.144zM477.6 166.036v2.662c0 .496-.049.825-.148.987s-.298.243-.6.243c-.321 0-.529-.078-.624-.234s-.143-.499-.143-1.026l.005-.286h.419c.007.143.01.25.01.322 0 .068.002.15.005.246.007.233.118.35.334.35.129 0 .212-.042.249-.125.037-.084.055-.273.055-.567v-2.572h.438zM478.4 166.651v.995h1.085v.54H478.4v1.091h1.154v.616h-1.593v-3.858h1.583v.616H478.4zM480.968 168.517h.342v.133c0 .537-.046.884-.137 1.042-.091.157-.292.236-.604.236-.354 0-.572-.124-.653-.373-.081-.249-.122-.914-.122-1.995 0-.637.055-1.056.165-1.256.11-.201.341-.301.692-.301.255 0 .426.083.512.248.086.165.129.492.129.982l.002.088h-.342v-.099c0-.252-.022-.414-.066-.485-.044-.071-.145-.106-.303-.106-.211 0-.338.056-.38.167-.042.111-.064.441-.064.989 0 .738.019 1.176.057 1.312.038.135.162.203.37.203.169 0 .279-.038.329-.113.05-.075.075-.241.075-.498l-.002-.174zM482.737 166.691v3.203h-.439v-3.203h-.668v-.655h1.798v.655h-.691z"/></g><path d="M468.939 174.381h-99.833a1.422 1.422 0 0 1-1.417-1.417v-11.125c0-.779.638-1.417 1.417-1.417h99.833c.779 0 1.417.638 1.417 1.417v11.125c0 .779-.637 1.417-1.417 1.417z" fill="#1a191b"/><path d="M464.157 171.789h-90.268a1.07 1.07 0 0 1-1.066-1.066v-6.643c0-.586.48-1.066 1.066-1.066h90.268c.586 0 1.066.48 1.066 1.066v6.643a1.07 1.07 0 0 1-1.066 1.066z" fill="#121116"/><g><path fill="#1a191c" d="M353.122 172.027h12.398v3.48h-12.398z"/><path fill="#121114" d="M353.122 160.422h12.458v11.605h-12.458z"/><g fill="#292929"><path d="M360.891 164.272l-.918 1.038.252-.286v-1.941l-1.206-.471-1.206.465-.666 1.194-1.223-.471-1.223.471 1.223.471 1.797 3.394-1.803-3.394-1.223-.471v5.151l1.223.517V167.2l.006.011v2.728l1.144-.509.653 1.267 1.298.546 1.298-.546v-1.826l.368.517 1.43.551 1.223-.517v-5.151l-1.223-.471-1.224.472zm-3.17 1.171l.299-.115.999-.385.711.274-.705-.268-1.298.494 1.295.493-.003.001-1.298-.494zM361.937 161.584c0-.368-.149-.637-.626-.637h-.557v1.252h.586c.361 0 .597-.236.597-.615zm-.724.333V161.228h.046c.075 0 .126.023.155.075.029.052.034.149.034.27 0 .121-.006.218-.034.27-.029.052-.08.075-.155.075h-.046zM362.672 162.233c.413 0 .614-.27.614-.66 0-.391-.207-.66-.614-.66-.413 0-.614.27-.614.66-.001.39.206.66.614.66zm0-1.01c.075 0 .126.046.126.345 0 .31-.052.345-.126.345s-.126-.04-.126-.345.051-.345.126-.345zM354.764 160.947h-.379v.718h-.006l-.252-.718h-.563v1.252h.379v-.724h.006l.252.724h.563zM356.068 161.475h.005l.253.724h.563v-1.252h-.379v.718h-.006l-.253-.718h-.562v1.252h.379zM359.726 161.475h.005l.253.724h.563v-1.252h-.379v.718h-.006l-.253-.718h-.562v1.252h.379zM354.994 160.947h.471v1.252h-.471zM357.325 162.199h.471v-.913h.299v-.339h-1.068v.339h.298zM359.18 161.871h-.482v-.137h.43v-.322h-.43v-.132h.471v-.333h-.931v1.252h.942zM363.935 160.907a.264.264 0 0 0-.19.063h-.006c.029-.098.103-.178.304-.189h.08v-.212h-.092a.584.584 0 0 0-.396.149.588.588 0 0 0-.172.442c0 .23.121.442.402.442a.36.36 0 0 0 .368-.368c.001-.212-.143-.327-.298-.327zm-.069.494c-.086 0-.126-.086-.132-.167 0-.029 0-.046.006-.057a.12.12 0 0 1 .109-.075c.086 0 .121.08.121.149-.001.086-.041.15-.104.15zM364.974 161.159v-.574h-.333l-.333.597v.178h.419v.224l-.006.006h.253v-.224h.103v-.207h-.103zm-.247-.178v.172h-.172v-.006l.08-.167c.034-.069.063-.132.092-.201h.006c0 .07-.006.139-.006.202z"/></g><g fill="#0c0c0c"><path d="M359.973 165.31l.252-.286v-1.941l-1.206.466-1 1.779 1-.384.954.366zM362.114 168.017v-3.275l1.223-.47v5.15l-1.223.516-1.797-2.35v3.107l-1.298.546v-5.305l1.298-.494 1.797 2.575zM357.072 169.43l-1.148-2.228v2.738l1.148-.51z"/></g><g fill="#070707"><path d="M357.147 164.271l.573 1.171.3-.114.999-1.78-1.207-.47-.665 1.193zM359.973 165.31l.92-1.039 1.223.471v3.275l-1.797-2.572-.346-.135z"/><path d="M359.019 171.244v-5.306l-1.299-.493v2.694l-1.804-3.394-1.223-.471v5.15l1.223.516v-2.738l1.804 3.496 1.299.546z"/></g><g fill="#141414"><path d="M355.924 164.742l1.223-.47.573 1.17v2.694l-1.796-3.394zM360.317 168.871l.366.516 1.43.55-1.796-2.349v1.283z"/></g><g fill="#191919"><path d="M357.728 165.442l1.298-.493 1.298.493-1.298.494-1.298-.494zM362.114 163.8l1.223.471-1.223.471-1.224-.47 1.224-.472zM355.924 163.8l1.223.471-1.223.471-1.224-.47 1.224-.472zM359.019 162.612l-1.207.466 1.207.47 1.206-.465-1.206-.471z"/></g><path d="M360.753 160.947h.558c.476 0 .626.27.626.638 0 .379-.235.616-.598.616h-.586v-1.254zm.46.97h.046c.075 0 .127-.023.154-.075.03-.053.035-.15.035-.27s-.005-.219-.035-.269c-.03-.052-.08-.074-.154-.074h-.045v.687zM362.672 160.912c.408 0 .615.27.615.66s-.202.66-.615.66c-.409 0-.616-.268-.616-.66s.202-.66.616-.66zm0 1c.074 0 .127-.035.127-.344 0-.3-.053-.344-.127-.344s-.127.04-.127.344.052.343.127.343zM354.386 160.947v.718h-.005l-.252-.718h-.563v1.251h.379v-.723h.005l.252.723h.563v-1.25h-.379zM356.51 160.947v.718h-.006l-.251-.718h-.564v1.251h.38v-.723h.004l.252.723h.563v-1.25h-.379zM360.167 160.947v.718h-.005l-.251-.718h-.564v1.251h.38v-.723h.004l.252.723h.563v-1.25h-.379zM355.465 160.947v1.251h-.47v-1.25h.47zM357.324 162.198v-.912h-.299v-.339h1.07v.339h-.3v.912h-.47zM358.697 161.281v.132h.431v.322h-.43v.137h.483v.326h-.942v-1.25h.93v.333h-.472zM364.13 160.78h-.088c-.202.013-.276.092-.304.19h.005a.268.268 0 0 1 .19-.063c.154 0 .299.115.299.327a.358.358 0 0 1-.367.366c-.281 0-.4-.212-.4-.441 0-.184.061-.344.171-.441a.576.576 0 0 1 .396-.15h.092v.212h.005zm-.265.62c.063 0 .102-.062.102-.149 0-.07-.034-.15-.12-.15a.121.121 0 0 0-.109.075c-.005.013-.005.03-.005.058.008.08.048.167.132.167zM364.728 161.585v-.224h-.42v-.177l.335-.598h.334v.573h.102v.207h-.102v.224h-.252l.003-.005zm0-.431v-.172c0-.062.004-.132.004-.202h-.004c-.03.07-.058.132-.093.202l-.08.167v.005h.173z" fill="#0c0c0c"/><g fill="#121114"><path d="M354.401 172.458h.655c.805 0 1.236.468 1.236 1.299 0 .832-.431 1.318-1.222 1.318h-.67v-2.617zm.63 2.345c.612 0 .917-.383.917-1.045 0-.662-.305-1.026-.917-1.026h-.297v2.071h.297zM357.613 172.458h.333v2.618h-.333v-2.618zM359.23 174.735l.199-.229c.189.195.45.324.722.324.344 0 .547-.171.547-.425 0-.267-.19-.353-.437-.46l-.376-.166c-.244-.104-.53-.289-.53-.674 0-.4.348-.695.824-.695.31 0 .587.134.771.324l-.177.214a.837.837 0 0 0-.594-.245c-.294 0-.488.148-.488.382 0 .252.228.346.433.433l.373.161c.303.13.539.311.539.7 0 .414-.342.744-.892.744-.366 0-.685-.149-.914-.388zM362.306 172.458h.333v1.313h.011l1.088-1.313h.377l-.819.997.945 1.62h-.372l-.781-1.36-.449.532v.828h-.333v-2.617z"/></g></g><g><linearGradient id="M" gradientUnits="userSpaceOnUse" x1="418.908" y1="184.798" x2="418.908" y2="181.485"><stop offset="0" stop-color="#1e1e1e"/><stop offset="1" stop-color="#323131"/></linearGradient><path d="M408.409 184.798c-2.229 0-3.72-.747-3.72-1.654 0-.906 1.493-1.662 3.717-1.659h21.005c2.222-.003 3.716.753 3.716 1.659s-1.49 1.653-3.719 1.654h-20.999zm.006-2.906c-1.766.001-2.848.56-2.848 1.25s1.077 1.252 2.848 1.249H429.4c1.773.003 2.849-.559 2.849-1.249 0-.69-1.083-1.248-2.849-1.25h-20.985z" fill="url(#M)"/><linearGradient id="N" gradientUnits="userSpaceOnUse" x1="409.244" y1="183.918" x2="409.244" y2="182.359"><stop offset="0" stop-color="#1e1e1e"/><stop offset="1" stop-color="#323131"/></linearGradient><path d="M407.51 182.359h1.028l1.422 1.088-.001-1.088h1.019v1.56h-1.018l-1.429-1.088v1.088h-1.022l.001-1.56z" fill="url(#N)"/><linearGradient id="O" gradientUnits="userSpaceOnUse" x1="417.017" y1="183.918" x2="417.017" y2="182.519"><stop offset="0" stop-color="#1e1e1e"/><stop offset="1" stop-color="#323131"/></linearGradient><path d="M416.521 182.519h.993v.21h.537v.154h-.537l.001 1.035h-.994v-1.035h-.539v-.154h.539v-.21z" fill="url(#O)"/><linearGradient id="P" gradientUnits="userSpaceOnUse" x1="412.042" y1="183.918" x2="412.042" y2="182.881"><stop offset="0" stop-color="#1e1e1e"/><stop offset="1" stop-color="#323131"/></linearGradient><path d="M411.546 182.881h.992v1.037h-.992v-1.037z" fill="url(#P)"/><linearGradient id="Q" gradientUnits="userSpaceOnUse" x1="412.041" y1="182.677" x2="412.041" y2="182.358"><stop offset="0" stop-color="#1e1e1e"/><stop offset="1" stop-color="#323131"/></linearGradient><path d="M411.543 182.358h.994v.319h-.994v-.319z" fill="url(#Q)"/><linearGradient id="R" gradientUnits="userSpaceOnUse" x1="428.925" y1="183.975" x2="428.925" y2="182.811"><stop offset="0" stop-color="#1e1e1e"/><stop offset="1" stop-color="#323131"/></linearGradient><path d="M428.926 182.811c-.8 0-1.449.26-1.449.582 0 .321.649.582 1.449.582.801 0 1.449-.261 1.449-.582 0-.322-.648-.582-1.449-.582m.398.58l-.001.22c0 .165-.206.233-.406.233-.199 0-.407-.068-.407-.233v-.224l.001-.216c0-.165.209-.232.406-.232.198 0 .406.068.406.232l.001.22z" fill="url(#R)"/><linearGradient id="S" gradientUnits="userSpaceOnUse" x1="425.753" y1="183.948" x2="425.753" y2="182.359"><stop offset="0" stop-color="#1e1e1e"/><stop offset="1" stop-color="#323131"/></linearGradient><path d="M426.181 183.395v-.186c0-.16-.234-.201-.388-.201-.158 0-.389.041-.389.201v.37c0 .161.231.202.389.202.154 0 .388-.041.388-.202v-.184zm-.006-1.036h.978v1.559h-.98v-.06a2.405 2.405 0 0 1-1.142.039c-.089-.02-.678-.154-.678-.515 0-.274.545-.573 1.261-.543.235.01.403.05.562.093l-.001-.573z" fill="url(#S)"/><linearGradient id="T" gradientUnits="userSpaceOnUse" x1="414.53" y1="183.918" x2="414.53" y2="182.833"><stop offset="0" stop-color="#1e1e1e"/><stop offset="1" stop-color="#323131"/></linearGradient><path d="M414.86 182.833c.371-.005 1.123.11 1.118.52v.565h-.985v-.681c0-.091-.183-.191-.454-.191-.27 0-.471.1-.471.191l.001.681h-.984l-.001-1.037h.985v.109c.19-.086.463-.152.791-.157" fill="url(#T)"/><linearGradient id="U" gradientUnits="userSpaceOnUse" x1="422.591" y1="183.918" x2="422.591" y2="182.833"><stop offset="0" stop-color="#1e1e1e"/><stop offset="1" stop-color="#323131"/></linearGradient><path d="M422.919 182.833c.371-.005 1.123.11 1.118.52v.565h-.986v-.681c0-.091-.183-.191-.454-.191-.27 0-.47.1-.47.191l.001.681h-.984v-1.037h.984v.109c.19-.086.463-.152.791-.157" fill="url(#U)"/><linearGradient id="V" gradientUnits="userSpaceOnUse" x1="419.382" y1="183.98" x2="419.382" y2="182.816"><stop offset="0" stop-color="#1e1e1e"/><stop offset="1" stop-color="#323131"/></linearGradient><path d="M419.799 183.555v.063c0 .19-.264.232-.41.232-.146 0-.415-.042-.415-.232l.001-.214h1.868c0-.321-.657-.588-1.463-.588-.807 0-1.46.26-1.46.582 0 .322.654.582 1.46.582.669 0 1.235-.181 1.407-.426l-.988.001zm-.824-.313c-.002-.091.002-.151.065-.203.077-.064.22-.094.349-.095.129 0 .271.031.348.095.063.052.067.112.065.203h-.827z" fill="url(#V)"/><linearGradient id="W" gradientUnits="userSpaceOnUse" x1="430.615" y1="182.73" x2="430.615" y2="182.375"><stop offset="0" stop-color="#1e1e1e"/><stop offset="1" stop-color="#323131"/></linearGradient><path d="M430.579 182.53c.096 0 .183-.003.183-.058 0-.044-.084-.052-.164-.052h-.155v.11h.136zm-.135.2h-.114v-.355h.285c.178 0 .266.031.266.101 0 .064-.084.091-.194.098l.213.156h-.127l-.198-.154h-.13l-.001.154z" fill="url(#W)"/><linearGradient id="X" gradientUnits="userSpaceOnUse" x1="430.579" y1="182.86" x2="430.579" y2="182.244"><stop offset="0" stop-color="#1e1e1e"/><stop offset="1" stop-color="#323131"/></linearGradient><path d="M430.581 182.809c.295 0 .527-.109.527-.257 0-.146-.232-.256-.527-.256-.297 0-.53.11-.53.256 0 .148.232.257.53.257m-.661-.258c0-.177.303-.307.661-.307.355 0 .658.13.658.307 0 .178-.303.309-.658.309-.358 0-.661-.13-.661-.309" fill="url(#X)"/></g><linearGradient id="Y" gradientUnits="userSpaceOnUse" x1="478.086" y1="134.155" x2="480.461" y2="134.155"><stop offset="0" stop-color="#323131"/><stop offset=".016" stop-color="#313030"/><stop offset=".185" stop-color="#2a2929"/><stop offset=".377" stop-color="#232323"/><stop offset=".611" stop-color="#201f20"/><stop offset="1" stop-color="#1e1e1e"/></linearGradient><path d="M480.461 135.048h-2.375c0-.982.534-1.785 1.188-1.785.652 0 1.187.803 1.187 1.785z" fill="url(#Y)"/><linearGradient id="Z" gradientUnits="userSpaceOnUse" x1="484.601" y1="134.155" x2="486.976" y2="134.155"><stop offset="0" stop-color="#323131"/><stop offset=".016" stop-color="#313030"/><stop offset=".185" stop-color="#2a2929"/><stop offset=".377" stop-color="#232323"/><stop offset=".611" stop-color="#201f20"/><stop offset="1" stop-color="#1e1e1e"/></linearGradient><path d="M486.976 135.048h-2.375c0-.982.534-1.785 1.188-1.785.653 0 1.187.803 1.187 1.785z" fill="url(#Z)"/><path d="M411.523 163.097H380.96c0 2.107 4.956 3.831 7.063 3.831h16.438c2.107 0 7.062-1.724 7.062-3.831zM426.293 163.097h30.563c0 2.107-4.956 3.831-7.063 3.831h-16.438c-2.107 0-7.062-1.724-7.062-3.831z" fill="#151314"/><path fill="#121114" d="M380.961 131.209h75.895v3.839h-75.895z"/><path fill="#0e1015" d="M343.76 126.908h150.295v4.3H343.76z"/></g></svg>