<svg xmlns="http://www.w3.org/2000/svg" viewBox="0 0 89.849 91.198"><path fill="#676a6f" d="M61.577.602h-3.713V0h-.584v1.562h4.297z"/><path d="M89.849 80.16V3.092A2.579 2.579 0 0 0 87.278.521h-.928v1.04H52.864l-.96-1.04H2.571A2.579 2.579 0 0 0 0 3.092V85.14c0 2.18.827 3.989 3.009 4.629 13.735.978 27.583 1.43 41.915 1.43s28.18-.452 41.915-1.43c2.183-.64 3.009-2.449 3.009-4.629v-4.98z" fill="#b3b7bf"/><path d="M58.277 89.616c7.528-.066 14.955-.209 22.415-.496V1.562H52.864l-.96-1.04H9.156v88.599c7.461.287 14.888.429 22.416.496V77.679c0-7.374 5.978-13.353 13.353-13.353 7.374 0 13.353 5.978 13.353 13.353v11.937z" fill="#afb1b6"/><linearGradient id="a" gradientUnits="userSpaceOnUse" x1="44.924" y1="89.652" x2="44.924" y2="64.326"><stop offset="0" stop-color="#b1b5bd"/><stop offset=".495" stop-color="#afb3bb"/><stop offset=".673" stop-color="#a9acb4"/><stop offset=".8" stop-color="#9fa1a8"/><stop offset=".902" stop-color="#929299"/><stop offset=".989" stop-color="#818088"/><stop offset="1" stop-color="#7e7e86"/></linearGradient><path d="M52.865 89.652V77.81a7.94 7.94 0 0 0-15.88 0v11.841c-1.811-.008-3.614-.02-5.412-.035V77.678c0-7.374 5.978-13.353 13.353-13.353 7.374 0 13.353 5.978 13.353 13.353v11.938c-1.8.016-3.603.028-5.414.036z" fill="url(#a)"/><path d="M44.924 31.942c8.096.151 20.065 1.586 23.851 2.634 1.813.502 1.813 2.121 1.813 3.371v22.429a2.28 2.28 0 0 1-2.273 2.273H21.533a2.28 2.28 0 0 1-2.273-2.273V37.948c0-1.25 0-2.87 1.813-3.371 3.787-1.048 15.755-2.484 23.851-2.635z" fill="#a4a3a8"/><path d="M44.924 32.403c7.853.146 19.463 1.539 23.136 2.555 1.759.487 1.759 2.058 1.759 3.27v21.756a2.21 2.21 0 0 1-2.204 2.204h-45.38a2.21 2.21 0 0 1-2.204-2.204V38.228c0-1.212 0-2.784 1.759-3.27 3.672-1.016 15.281-2.409 23.134-2.555z" fill="#f2f0ec"/><path fill="#606060" d="M58.623 57.23h8.074v2.266h-8.074z"/><path d="M59.94 58.078a.678.678 0 0 0-.377.098.456.456 0 0 1 .223-.223c.184-.092.461-.076.461-.076v-.361s-.537-.027-.839.219c-.303.246-.372.501-.372.759 0 .184.048.719.685.719s.679-.475.679-.611-.056-.524-.46-.524zm-.196.8c-.123 0-.204-.104-.204-.269 0-.164.095-.211.182-.211.131 0 .19.096.19.224s-.045.256-.168.256zm2.633-.412h-.365v-.927h-.562l-.566.927v.349h.675v.37h.453v-.37h.365v-.349zm-1.085 0l.267-.46v.46h-.267zm2.301-.927h-.614v1.646h.614c.453 0 .823-.37.823-.823a.825.825 0 0 0-.823-.823zm.289.823c0 .272-.168.494-.372.494h-.102v-.988h.102c.204 0 .372.222.372.494zm1.579-.823h-.614v1.646h.614c.453 0 .823-.37.823-.823a.824.824 0 0 0-.823-.823zm.289.823c0 .272-.168.494-.372.494h-.102v-.988h.102c.204 0 .372.222.372.494z" fill="#fff"/><path d="M63.225 53.019l.149-.17v-1.148l-.713.275-.591 1.053.591-.228.564.218z" fill="#253488"/><path d="M64.492 54.619v-1.936l.723-.279v3.047l-.723.306-1.063-1.389v1.838l-.768.323V53.39l.768-.292 1.063 1.521z" fill="#253287"/><path d="M61.51 55.454l-.679-1.318v1.62l.679-.302z" fill="#253488"/><path d="M61.554 52.404l.34.693.177-.068.591-1.053-.713-.279-.395.707zM63.225 53.019l.543-.615.724.279v1.936l-1.063-1.522-.204-.078z" fill="#238b41"/><path d="M62.661 56.528v-3.139l-.768-.292v1.593l-1.067-2.007-.723-.279v3.047l.723.306v-1.62l1.067 2.069.768.322z" fill="#238b41"/><path d="M60.831 52.683l.723-.279.34.693v1.593l-1.063-2.007zM63.429 55.125l.217.306.846.326-1.063-1.389v.757z" fill="#c33937"/><path d="M61.897 53.097l.768-.292.768.292-.768.292-.768-.292zM64.492 52.126l.723.279-.723.279-.724-.279.724-.279zM60.831 52.126l.723.279-.723.279-.723-.279.723-.279zM62.661 51.423l-.713.275.713.279.713-.275-.713-.279z" fill="#e6b531"/><g fill="#233387"><path d="M65.384 50.658a.1.1 0 0 0-.097.097.1.1 0 0 0 .097.097.1.1 0 0 0 .097-.097.098.098 0 0 0-.097-.097zm0 .176a.08.08 0 0 1 0-.158.08.08 0 0 1 .079.079.08.08 0 0 1-.079.079z"/><path d="M65.369 50.807h-.022v-.105h.045c.019 0 .037.007.037.026 0 .015-.007.022-.022.026.019.004.019.011.019.026 0 .007.004.019.007.026h-.026c-.004-.011-.004-.019-.004-.03 0-.007-.004-.015-.011-.015h-.022v.046zm0-.059h.019c.011 0 .015-.004.015-.015s-.007-.015-.015-.015h-.019v.03z"/></g><path d="M63.593 50.015h.363c.31 0 .408.176.408.415 0 .247-.153.4-.389.4h-.381v-.815h-.001zm.299.632h.03c.049 0 .082-.015.101-.049a.42.42 0 0 0 .022-.176.438.438 0 0 0-.022-.176c-.019-.034-.052-.049-.101-.049h-.03v.45zM64.842 49.992c.266 0 .4.176.4.43s-.131.43-.4.43c-.266 0-.4-.176-.4-.43s.131-.43.4-.43zm0 .651c.049 0 .082-.022.082-.224 0-.194-.034-.224-.082-.224-.049 0-.082.026-.082.224s.033.224.082.224zM59.445 50.015v.467h-.004l-.165-.467h-.367v.815h.247v-.471h.004l.165.471h.366v-.815h-.246zM60.829 50.015v.467h-.004l-.165-.467h-.367v.815h.247v-.471h.004l.165.471h.367v-.815h-.247zM63.211 50.015v.467h-.004l-.165-.467h-.367v.815h.247v-.471h.004l.165.471h.367v-.815h-.247zM60.148 50.015v.815h-.307v-.815h.307zM61.36 50.83v-.595h-.194v-.221h.696v.221h-.194v.595h-.308zM62.254 50.231v.086h.28v.209h-.28v.09h.314v.213h-.613v-.815h.606v.217h-.307z" fill="#233387"/><path d="M65.792 49.906h-.056c-.131.007-.18.06-.198.123h.004a.17.17 0 0 1 .123-.041c.101 0 .194.075.194.213a.233.233 0 0 1-.239.239c-.183 0-.262-.138-.262-.288 0-.12.041-.224.112-.288a.377.377 0 0 1 .258-.097h.06v.138h.004zm-.172.404c.041 0 .067-.041.067-.097 0-.045-.022-.097-.079-.097a.077.077 0 0 0-.071.049c-.004.007-.004.019-.004.037.005.052.031.108.087.108zM66.181 50.43v-.146h-.273v-.116l.217-.389h.217v.374h.067v.135h-.067v.146h-.165l.004-.004zm0-.281v-.112c0-.041.004-.086.004-.131h-.004a1.903 1.903 0 0 1-.06.131l-.052.108v.004h.112z" fill="#c33d3a"/><path fill="none" stroke="#79797a" stroke-width=".113" stroke-miterlimit="10" d="M58.319 49.503H67v10.261h-8.681z"/><g><g fill="#545459"><path d="M23.573 40.336c-1.033 0-1.723-.753-1.723-1.667 0-.913.692-1.676 1.721-1.673H33.3c1.029-.003 1.721.759 1.721 1.673s-.69 1.667-1.723 1.667h-9.725zm.003-2.929c-.818.001-1.319.564-1.319 1.26 0 .696.499 1.263 1.319 1.26h9.719c.821.003 1.32-.564 1.32-1.26 0-.696-.502-1.259-1.32-1.26h-9.719z"/><path d="M23.157 37.877h.476l.658 1.097v-1.097h.472v1.573h-.472l-.662-1.097v1.097h-.473l.001-1.573zM27.331 38.039h.46v.212h.249v.156h-.249v1.044h-.46v-1.044h-.25v-.155h.25v-.213zM25.026 38.404h.459v1.046h-.459v-1.046zM25.025 37.876h.461v.322h-.461v-.322zM33.076 38.333c-.371 0-.671.262-.671.587 0 .324.301.587.671.587.371 0 .671-.263.671-.587 0-.325-.3-.587-.671-.587m.185.585v.222c0 .167-.095.235-.188.235-.092 0-.188-.069-.188-.235v-.226-.218c0-.166.097-.234.188-.234.092 0 .188.068.188.234a8.165 8.165 0 0 0 0 .222zM31.805 38.921v-.187c0-.162-.109-.203-.18-.203-.073 0-.18.041-.18.203v.372c0 .162.107.204.18.204.071 0 .18-.042.18-.204v-.185zm-.003-1.044h.453v1.572h-.454v-.06a.54.54 0 0 1-.529.039.56.56 0 0 1-.314-.519c0-.276.253-.577.584-.547a.6.6 0 0 1 .26.094v-.579zM26.561 38.356c.172-.005.52.111.518.524v.569h-.456v-.687c0-.091-.085-.192-.21-.192-.125 0-.218.101-.218.192v.687h-.456v-1.046h.456v.11a.543.543 0 0 1 .366-.157M30.294 38.356c.172-.005.52.111.518.524v.569h-.457v-.687c0-.091-.085-.192-.21-.192-.125 0-.218.101-.218.192v.687h-.456v-1.046h.456v.11a.548.548 0 0 1 .367-.157M28.849 39.083v.064c0 .191-.122.234-.19.234s-.192-.043-.192-.234v-.216h.865c0-.324-.304-.593-.678-.593s-.676.262-.676.587.303.587.676.587c.31 0 .572-.182.652-.429h-.457zm-.382-.315c-.001-.092.001-.153.03-.205a.183.183 0 1 1 .323 0c.029.052.031.113.03.205h-.383zM33.842 38.049c.045 0 .085-.003.085-.058 0-.044-.039-.052-.076-.052h-.072v.111h.063zm-.063.202h-.053v-.358h.132c.082 0 .123.031.123.102 0 .064-.039.092-.09.098l.099.157h-.059l-.092-.155h-.06v.156z"/><path d="M33.843 38.331c.137 0 .244-.11.244-.26 0-.147-.108-.258-.244-.258-.138 0-.246.111-.246.258 0 .15.108.26.246.26m-.306-.26a.305.305 0 1 1 .611 0 .305.305 0 1 1-.611 0"/></g></g><g fill="#464648"><path d="M23.097 60.115h-.122v-.825l-.276.825h-.115l-.276-.825v.825h-.122v-.97h.193l.263.808.264-.808h.192v.97zM24.149 60.115h-.145l-.112-.295h-.406l-.107.295h-.136l.372-.97h.138l.396.97zm-.295-.397l-.171-.45-.163.45h.334zM24.296 59.146h.308c.33 0 .494.16.494.48 0 .327-.165.49-.494.49h-.308v-.97zm.128.854h.177c.141 0 .237-.033.288-.098a.443.443 0 0 0 .077-.277.418.418 0 0 0-.076-.269c-.051-.063-.147-.095-.288-.095h-.177V60zM26.036 60.115h-.723v-.97h.701v.115h-.572v.296h.535v.115h-.535V60h.595v.115zM26.8 60.115h-.129v-.97h.129v.97zM27.833 60.115h-.132l-.508-.765v.765h-.122v-.97h.131l.508.765v-.765h.122v.97zM28.948 59.805c0 .119-.023.203-.069.252-.046.05-.114.074-.203.074a.252.252 0 0 1-.191-.073.267.267 0 0 1-.07-.194v-.026h.129c0 .118.044.177.132.177.046 0 .082-.013.107-.039.025-.026.037-.081.037-.166v-.666h.128v.661zM30.001 60.115h-.145l-.112-.295h-.406l-.107.295h-.136l.372-.97h.138l.396.97zm-.295-.397l-.171-.45-.163.45h.334zM30.147 59.146h.362a.75.75 0 0 1 .199.022.214.214 0 0 1 .127.096.303.303 0 0 1 .047.165c0 .098-.031.172-.093.223-.062.051-.152.076-.27.076h-.244v.388h-.128v-.97zm.129.467h.245c.082 0 .141-.015.176-.046s.053-.075.053-.134a.188.188 0 0 0-.029-.103.128.128 0 0 0-.074-.057.53.53 0 0 0-.129-.012h-.243v.352zM31.887 60.115h-.145l-.112-.295h-.406l-.107.295h-.137l.372-.97h.138l.397.97zm-.295-.397l-.171-.45-.163.45h.334zM32.795 60.115h-.132l-.508-.765v.765h-.122v-.97h.131l.508.765v-.765h.122v.97z"/></g><g fill="#464648"><path d="M22.577 57.323a.48.48 0 0 1 .351.147c.098.098.147.215.147.352s-.049.255-.146.352a.478.478 0 0 1-.352.147.48.48 0 0 1-.353-.147.48.48 0 0 1-.147-.353.48.48 0 0 1 .147-.353.484.484 0 0 1 .353-.145zm-.001.916a.401.401 0 0 0 .294-.123.402.402 0 0 0 .123-.295.4.4 0 0 0-.122-.294c-.082-.081-.18-.122-.294-.122s-.213.041-.294.122a.4.4 0 0 0-.122.294c0 .115.041.213.122.295.08.082.178.123.293.123zm.238-.312c-.03.121-.108.182-.235.182a.25.25 0 0 1-.191-.077.294.294 0 0 1-.072-.208c0-.086.024-.155.072-.205a.259.259 0 0 1 .196-.076c.059 0 .109.015.151.044.041.029.066.07.076.123h-.092c-.013-.062-.059-.094-.137-.094a.155.155 0 0 0-.128.057.235.235 0 0 0-.046.153c0 .062.016.111.047.149a.154.154 0 0 0 .123.056c.081 0 .129-.034.145-.103h.091zM23.837 58.309h-.681c0-.059.019-.116.058-.169.039-.054.11-.12.213-.199.104-.079.175-.142.213-.189a.247.247 0 0 0 .057-.16.164.164 0 0 0-.049-.126.193.193 0 0 0-.138-.046.204.204 0 0 0-.132.046.192.192 0 0 0-.062.136h-.136a.29.29 0 0 1 .1-.204.344.344 0 0 1 .233-.076c.103 0 .181.026.237.078a.258.258 0 0 1 .083.195.3.3 0 0 1-.062.187 1.49 1.49 0 0 1-.245.225c-.122.096-.184.158-.187.187h.496v.115zM24.351 57.323c.223 0 .335.168.335.503 0 .333-.112.5-.335.5-.223 0-.334-.167-.334-.5 0-.336.111-.503.334-.503zm0 .905a.16.16 0 0 0 .148-.088c.034-.059.05-.164.05-.314s-.017-.255-.05-.315a.161.161 0 0 0-.148-.09c-.065 0-.113.03-.147.09-.034.06-.05.165-.05.315s.017.255.05.314a.16.16 0 0 0 .147.088zM25.191 57.323c.223 0 .335.168.335.503 0 .333-.112.5-.335.5-.223 0-.334-.167-.334-.5 0-.336.111-.503.334-.503zm0 .905a.16.16 0 0 0 .148-.088c.034-.059.05-.164.05-.314s-.017-.255-.05-.315a.161.161 0 0 0-.148-.09c-.065 0-.113.03-.147.09-.034.06-.05.165-.05.315s.017.255.05.314a.162.162 0 0 0 .147.088zM26.031 57.323c.223 0 .335.168.335.503 0 .333-.112.5-.335.5-.223 0-.334-.167-.334-.5 0-.336.112-.503.334-.503zm0 .905a.16.16 0 0 0 .148-.088c.034-.059.05-.164.05-.314s-.017-.255-.05-.315a.161.161 0 0 0-.148-.09c-.065 0-.113.03-.147.09-.034.06-.05.165-.05.315s.017.255.05.314a.162.162 0 0 0 .147.088zM27.554 58.309h-.132l-.508-.765v.765h-.122v-.97h.131l.508.765v-.765h.122v.97zM27.919 57.474h-.125v-.135h.125v.135zm0 .835h-.125v-.702h.125v.702zM28.267 57.696a.276.276 0 0 1 .21-.105c.158 0 .238.086.238.259v.459h-.125v-.454c0-.057-.01-.099-.031-.124-.02-.025-.054-.038-.101-.038-.064 0-.127.037-.191.112v.503h-.125v-.702h.125v.09zM29.207 58.31a.49.49 0 0 1-.089.008c-.051 0-.089-.009-.112-.027a.11.11 0 0 1-.044-.07.603.603 0 0 1-.009-.117v-.398h-.087v-.098h.087v-.175h.124v.175h.114v.098h-.114v.405c0 .048.006.078.018.092.012.013.029.02.05.02a.41.41 0 0 0 .062-.005v.092zM29.649 58.325a.33.33 0 0 1-.249-.097.371.371 0 0 1-.094-.27.38.38 0 0 1 .091-.27.31.31 0 0 1 .238-.097c.1 0 .18.032.24.096a.38.38 0 0 1 .09.271v.03h-.529a.275.275 0 0 0 .067.181.2.2 0 0 0 .146.059.216.216 0 0 0 .118-.033.11.11 0 0 0 .055-.095h.129a.232.232 0 0 1-.098.167.348.348 0 0 1-.204.058zm.184-.435a.257.257 0 0 0-.068-.152.178.178 0 0 0-.13-.05.18.18 0 0 0-.128.05.243.243 0 0 0-.068.152h.394zM30.268 57.696a.276.276 0 0 1 .21-.105c.158 0 .238.086.238.259v.459h-.126v-.454c0-.057-.01-.099-.031-.124-.02-.025-.054-.038-.101-.038-.064 0-.127.037-.191.112v.503h-.125v-.702h.125v.09zM31.38 58.225a.253.253 0 0 1-.201.101.25.25 0 0 1-.213-.098.422.422 0 0 1-.075-.264.41.41 0 0 1 .084-.272.265.265 0 0 1 .212-.1.28.28 0 0 1 .193.07v-.322h.124v.97h-.124v-.085zm0-.118v-.333a.247.247 0 0 0-.185-.085.15.15 0 0 0-.128.069.362.362 0 0 0-.048.206c0 .086.015.152.045.197.03.045.072.067.125.067.071 0 .134-.04.191-.121zM32.013 57.591c.1 0 .18.032.24.096a.38.38 0 0 1 .09.271c0 .116-.03.207-.09.271a.313.313 0 0 1-.24.096.311.311 0 0 1-.239-.096.38.38 0 0 1-.09-.271.38.38 0 0 1 .09-.271.31.31 0 0 1 .239-.096zm0 .637c.06 0 .108-.022.145-.068.037-.045.056-.112.056-.201 0-.09-.019-.157-.056-.202a.179.179 0 0 0-.145-.068.18.18 0 0 0-.145.068c-.037.045-.056.113-.056.202 0 .089.019.156.056.201a.179.179 0 0 0 .145.068z"/></g><g><linearGradient id="b" gradientUnits="userSpaceOnUse" x1="40.371" y1="84.964" x2="40.371" y2="83.271"><stop offset="0" stop-color="#717178"/><stop offset=".3" stop-color="#8c8990"/><stop offset=".301" stop-color="#8c8990"/><stop offset=".444" stop-color="#a5a3ab"/><stop offset=".586" stop-color="#b8b7c0"/><stop offset=".727" stop-color="#c4c6cf"/><stop offset=".866" stop-color="#cbced8"/><stop offset="1" stop-color="#cdd1da"/></linearGradient><circle cx="40.371" cy="84.117" r=".847" fill="url(#b)"/><linearGradient id="c" gradientUnits="userSpaceOnUse" x1="43.407" y1="84.964" x2="43.407" y2="83.271"><stop offset="0" stop-color="#717178"/><stop offset=".3" stop-color="#8c8990"/><stop offset=".326" stop-color="#908d94"/><stop offset=".498" stop-color="#a9a8b0"/><stop offset=".669" stop-color="#bcbdc6"/><stop offset=".837" stop-color="#c8cbd4"/><stop offset="1" stop-color="#ccd0d8"/></linearGradient><circle cx="43.407" cy="84.117" r=".847" fill="url(#c)"/><linearGradient id="d" gradientUnits="userSpaceOnUse" x1="46.442" y1="84.964" x2="46.442" y2="83.271"><stop offset="0" stop-color="#717178"/><stop offset=".3" stop-color="#8c8990"/><stop offset=".326" stop-color="#908d94"/><stop offset=".498" stop-color="#a9a8b0"/><stop offset=".669" stop-color="#bcbdc6"/><stop offset=".837" stop-color="#c8cbd4"/><stop offset="1" stop-color="#ccd0d8"/></linearGradient><circle cx="46.442" cy="84.117" r=".847" fill="url(#d)"/><linearGradient id="e" gradientUnits="userSpaceOnUse" x1="49.478" y1="84.964" x2="49.478" y2="83.271"><stop offset="0" stop-color="#717178"/><stop offset=".3" stop-color="#8c8990"/><stop offset=".326" stop-color="#908d94"/><stop offset=".498" stop-color="#a9a8b0"/><stop offset=".669" stop-color="#bcbdc6"/><stop offset=".837" stop-color="#c8cbd4"/><stop offset="1" stop-color="#ccd0d8"/></linearGradient><circle cx="49.478" cy="84.117" r=".847" fill="url(#e)"/></g><linearGradient id="f" gradientUnits="userSpaceOnUse" x1="44.924" y1="30.437" x2="44.924" y2=".521"><stop offset="0" stop-color="#dcd6dc"/><stop offset=".007" stop-color="#dbd4da"/><stop offset=".094" stop-color="#c8c4ca"/><stop offset=".197" stop-color="#bab7bd"/><stop offset=".324" stop-color="#b0aeb4"/><stop offset=".503" stop-color="#abaaaf"/><stop offset="1" stop-color="#a9a8ae"/></linearGradient><path d="M52.865 1.562l-.96-1.04H31.572v16.563c0 7.374 5.978 13.353 13.353 13.353 7.374 0 13.353-5.978 13.353-13.353V1.562h-5.413z" fill="url(#f)"/><path d="M44.924 24.893a7.94 7.94 0 0 1-7.94-7.94V.521h14.921l.96 1.04v15.391a7.94 7.94 0 0 1-7.941 7.941z" fill="#b3b7bf"/><path fill="#cbccd2" d="M39.502 8.752h11.102l-5.551-3.236z"/><path fill="#828488" d="M39.245 8.752h11.101l-5.55-3.236z"/><path fill="#b0b3ba" d="M39.374 8.787h11.101l-5.551-3.236z"/><linearGradient id="g" gradientUnits="userSpaceOnUse" x1="23.068" y1="89.505" x2="23.116" y2="86.741"><stop offset="0" stop-color="#3b3a42"/><stop offset=".029" stop-color="#48474e"/><stop offset=".087" stop-color="#5f5d64"/><stop offset=".154" stop-color="#75737a"/><stop offset=".229" stop-color="#8a878d"/><stop offset=".317" stop-color="#9b999f"/><stop offset=".425" stop-color="#a7a7ad"/><stop offset=".578" stop-color="#aeafb4"/><stop offset="1" stop-color="#afb1b6"/></linearGradient><path d="M9.156 89.121c2.911-2.026 4.416-2.363 14.316-2.363 7.035 0 12.077 1.016 13.512 2.894-1.811-.008-3.614-.02-5.412-.035-7.528-.067-14.955-.21-22.416-.496z" fill="url(#g)"/><linearGradient id="h" gradientUnits="userSpaceOnUse" x1="318.562" y1="89.505" x2="318.61" y2="86.741" gradientTransform="matrix(-1 0 0 1 385.342 0)"><stop offset="0" stop-color="#3b3a42"/><stop offset=".029" stop-color="#48474e"/><stop offset=".087" stop-color="#5f5d64"/><stop offset=".154" stop-color="#75737a"/><stop offset=".229" stop-color="#8a878d"/><stop offset=".317" stop-color="#9b999f"/><stop offset=".425" stop-color="#a7a7ad"/><stop offset=".578" stop-color="#aeafb4"/><stop offset="1" stop-color="#afb1b6"/></linearGradient><path d="M80.693 89.121c-2.911-2.026-4.416-2.363-14.316-2.363-7.035 0-12.077 1.016-13.512 2.894 1.811-.008 3.614-.02 5.412-.035 7.528-.067 14.955-.21 22.416-.496z" fill="url(#h)"/><path fill="none" d="M31.572 87.354v2.262"/><linearGradient id="i" gradientUnits="userSpaceOnUse" x1="34.258" y1="89.663" x2="34.297" y2="87.402"><stop offset="0" stop-color="#3b3a42"/><stop offset=".033" stop-color="#4a4950"/><stop offset=".092" stop-color="#615f67"/><stop offset=".158" stop-color="#77757d"/><stop offset=".233" stop-color="#8b8a91"/><stop offset=".32" stop-color="#9c9ca4"/><stop offset=".428" stop-color="#a8aab2"/><stop offset=".58" stop-color="#aeb2ba"/><stop offset="1" stop-color="#b0b4bc"/></linearGradient><path d="M31.572 89.616v-2.262c2.724.485 4.619 1.26 5.413 2.298-1.812-.008-3.615-.02-5.413-.036" fill="url(#i)"/><linearGradient id="j" gradientUnits="userSpaceOnUse" x1="79.002" y1="89.663" x2="79.042" y2="87.402" gradientTransform="matrix(-1 0 0 1 134.593 0)"><stop offset="0" stop-color="#3b3a42"/><stop offset=".033" stop-color="#4a4950"/><stop offset=".092" stop-color="#615f67"/><stop offset=".158" stop-color="#77757d"/><stop offset=".233" stop-color="#8b8a91"/><stop offset=".32" stop-color="#9c9ca4"/><stop offset=".428" stop-color="#a8aab2"/><stop offset=".58" stop-color="#aeb2ba"/><stop offset="1" stop-color="#b0b4bc"/></linearGradient><path d="M58.277 89.616v-2.262c-2.724.485-4.619 1.26-5.413 2.298 1.812-.008 3.615-.02 5.413-.036" fill="url(#j)"/></svg>