<?xml version="1.0" encoding="UTF-8" standalone="no"?>
<svg
   xmlns:dc="http://purl.org/dc/elements/1.1/"
   xmlns:cc="http://creativecommons.org/ns#"
   xmlns:rdf="http://www.w3.org/1999/02/22-rdf-syntax-ns#"
   xmlns:svg="http://www.w3.org/2000/svg"
   xmlns="http://www.w3.org/2000/svg"
   viewBox="0 0 395.82626 381.02625"
   height="381.02625"
   width="395.82626"
   xml:space="preserve"
   version="1.1"
   id="svg2"><metadata
     id="metadata8"><rdf:RDF><cc:Work
         rdf:about=""><dc:format>image/svg+xml</dc:format><dc:type
           rdf:resource="http://purl.org/dc/dcmitype/StillImage" /><dc:title></dc:title></cc:Work></rdf:RDF></metadata><defs
     id="defs6"><clipPath
       id="clipPath16"
       clipPathUnits="userSpaceOnUse"><path
         id="path18"
         d="m 0,304.821 316.661,0 L 316.661,0 0,0 0,304.821 Z" /></clipPath></defs><g
     transform="matrix(1.25,0,0,-1.25,0,381.02625)"
     id="g10"><g
       id="g12"><g
         clip-path="url(#clipPath16)"
         id="g14"><g
           transform="translate(6.1612,248.3213)"
           id="g20"><path
             id="path22"
             style="fill:#1d1d1b;fill-opacity:1;fill-rule:nonzero;stroke:none"
             d="m 0,0 c -2.5,4.5 7.48,49.5 7.48,49.5 0,0 2.977,6 18.249,6 8.086,0 75.005,1 138.402,1 56.328,0 109.877,-1 116.913,-1 14.956,0 17.456,-10 17.456,-10 0,0 8,-37.35 7,-43.5 C 304.5,-4.15 2.5,-4.5 0,0" /></g><g
           transform="translate(3.1612,208.8213)"
           id="g24"><path
             id="path26"
             style="fill:#f5f5f5;fill-opacity:1;fill-rule:nonzero;stroke:none"
             d="M 0,0 C 0,0 -3.161,-45.166 -3.161,-76.833 -3.161,-108.5 -3,-198.5 -3,-198.5 c 0,0 -1.477,-7 6.5,-7 7.977,0 95.5,-3.321 156.5,-3.321 61,0 141.652,0.821 145.5,0.821 8,0 8,8.5 8,8.5 0,0 -0.351,73.542 -0.351,134.021 C 312.755,-32.964 310,0 310,0 l -1.5,46.5 c 0,0 1.466,6.5 -7.5,6.5 -8.966,0 -65.999,2.155 -141,2.155 C 85,55.155 20.5,53 12,53 3.5,53 2,47.5 2,47.5 L 0,0 Z" /></g><g
           transform="translate(288.6612,214.8213)"
           id="g28"><path
             id="path30"
             style="fill:#1d1d1b;fill-opacity:1;fill-rule:nonzero;stroke:none"
             d="m 0,0 -215,0 c -4.4,0 -8,3.6 -8,8 l 0,26.5 c 0,4.4 3.6,8 8,8 l 215,0 c 4.4,0 8,-3.6 8,-8 L 8,8 C 8,3.6 4.4,0 0,0" /></g><g
           transform="translate(288.6612,17.8213)"
           id="g32"><path
             id="path34"
             style="fill:#1d1d1b;fill-opacity:1;fill-rule:nonzero;stroke:none"
             d="m 0,0 -215,0 c -4.4,0 -8,3.6 -8,8 l 0,149.5 c 0,4.4 3.6,8 8,8 l 215,0 c 4.4,0 8,-3.6 8,-8 L 8,8 C 8,3.6 4.4,0 0,0" /></g><g
           transform="translate(285.4971,154.8213)"
           id="g36"><path
             id="path38"
             style="fill:none;stroke:#ffffff;stroke-width:2;stroke-linecap:butt;stroke-linejoin:miter;stroke-miterlimit:10;stroke-dasharray:none;stroke-opacity:1"
             d="m 0,0 -205.836,0 c -2.75,0 -5,2.25 -5,5 l 0,9.236 c 0,2.75 2.25,5 5,5 L 0,19.236 c 2.75,0 5,-2.25 5,-5 L 5,5 C 5,2.25 2.75,0 0,0 Z" /></g><g
           transform="translate(94.2458,158.3144)"
           id="g40"><path
             id="path42"
             style="fill:#ffffff;fill-opacity:1;fill-rule:nonzero;stroke:none"
             d="m 0,0 -13.917,0 c -1.1,0 -2,0.9 -2,2 l 0,6.25 c 0,1.1 0.9,2 2,2 L 0,10.25 c 1.1,0 2,-0.9 2,-2 L 2,2 C 2,0.9 1.1,0 0,0" /></g><g
           transform="translate(115.5747,158.3144)"
           id="g44"><path
             id="path46"
             style="fill:#ffffff;fill-opacity:1;fill-rule:nonzero;stroke:none"
             d="m 0,0 -13.917,0 c -1.1,0 -2,0.9 -2,2 l 0,6.25 c 0,1.1 0.9,2 2,2 L 0,10.25 c 1.1,0 2,-0.9 2,-2 L 2,2 C 2,0.9 1.1,0 0,0" /></g><g
           transform="translate(136.9035,158.3144)"
           id="g48"><path
             id="path50"
             style="fill:#ffffff;fill-opacity:1;fill-rule:nonzero;stroke:none"
             d="m 0,0 -13.917,0 c -1.1,0 -2,0.9 -2,2 l 0,6.25 c 0,1.1 0.9,2 2,2 L 0,10.25 c 1.1,0 2,-0.9 2,-2 L 2,2 C 2,0.9 1.1,0 0,0" /></g><g
           transform="translate(158.2324,158.3144)"
           id="g52"><path
             id="path54"
             style="fill:#ffffff;fill-opacity:1;fill-rule:nonzero;stroke:none"
             d="m 0,0 -13.917,0 c -1.1,0 -2,0.9 -2,2 l 0,6.25 c 0,1.1 0.9,2 2,2 L 0,10.25 c 1.1,0 2,-0.9 2,-2 L 2,2 C 2,0.9 1.1,0 0,0" /></g><g
           transform="translate(179.5612,158.3144)"
           id="g56"><path
             id="path58"
             style="fill:#ffffff;fill-opacity:1;fill-rule:nonzero;stroke:none"
             d="m 0,0 -13.917,0 c -1.1,0 -2,0.9 -2,2 l 0,6.25 c 0,1.1 0.9,2 2,2 L 0,10.25 c 1.1,0 2,-0.9 2,-2 L 2,2 C 2,0.9 1.1,0 0,0" /></g><g
           transform="translate(200.8901,158.3144)"
           id="g60"><path
             id="path62"
             style="fill:#ffffff;fill-opacity:1;fill-rule:nonzero;stroke:none"
             d="m 0,0 -13.917,0 c -1.1,0 -2,0.9 -2,2 l 0,6.25 c 0,1.1 0.9,2 2,2 L 0,10.25 c 1.1,0 2,-0.9 2,-2 L 2,2 C 2,0.9 1.1,0 0,0" /></g><g
           transform="translate(222.2189,158.3144)"
           id="g64"><path
             id="path66"
             style="fill:#ffffff;fill-opacity:1;fill-rule:nonzero;stroke:none"
             d="m 0,0 -13.917,0 c -1.1,0 -2,0.9 -2,2 l 0,6.25 c 0,1.1 0.9,2 2,2 L 0,10.25 c 1.1,0 2,-0.9 2,-2 L 2,2 C 2,0.9 1.1,0 0,0" /></g><g
           transform="translate(243.5478,158.3144)"
           id="g68"><path
             id="path70"
             style="fill:#ffffff;fill-opacity:1;fill-rule:nonzero;stroke:none"
             d="m 0,0 -13.917,0 c -1.1,0 -2,0.9 -2,2 l 0,6.25 c 0,1.1 0.9,2 2,2 L 0,10.25 c 1.1,0 2,-0.9 2,-2 L 2,2 C 2,0.9 1.1,0 0,0" /></g><g
           transform="translate(264.8766,158.3144)"
           id="g72"><path
             id="path74"
             style="fill:#ffffff;fill-opacity:1;fill-rule:nonzero;stroke:none"
             d="m 0,0 -13.917,0 c -1.1,0 -2,0.9 -2,2 l 0,6.25 c 0,1.1 0.9,2 2,2 L 0,10.25 c 1.1,0 2,-0.9 2,-2 L 2,2 C 2,0.9 1.1,0 0,0" /></g><g
           transform="translate(286.2054,158.3144)"
           id="g76"><path
             id="path78"
             style="fill:#ffffff;fill-opacity:1;fill-rule:nonzero;stroke:none"
             d="m 0,0 -13.917,0 c -1.1,0 -2,0.9 -2,2 l 0,6.25 c 0,1.1 0.9,2 2,2 L 0,10.25 c 1.1,0 2,-0.9 2,-2 L 2,2 C 2,0.9 1.1,0 0,0" /></g><g
           transform="translate(285.4971,129.3213)"
           id="g80"><path
             id="path82"
             style="fill:none;stroke:#ffffff;stroke-width:2;stroke-linecap:butt;stroke-linejoin:miter;stroke-miterlimit:10;stroke-dasharray:none;stroke-opacity:1"
             d="m 0,0 -205.836,0 c -2.75,0 -5,2.25 -5,5 l 0,9.236 c 0,2.75 2.25,5 5,5 L 0,19.236 c 2.75,0 5,-2.25 5,-5 L 5,5 C 5,2.25 2.75,0 0,0 Z" /></g><g
           transform="translate(94.2458,133.4879)"
           id="g84"><path
             id="path86"
             style="fill:#ffffff;fill-opacity:1;fill-rule:nonzero;stroke:none"
             d="m 0,0 -13.917,0 c -1.1,0 -2,0.9 -2,2 l 0,5.25 c 0,1.1 0.9,2 2,2 L 0,9.25 c 1.1,0 2,-0.9 2,-2 L 2,2 C 2,0.9 1.1,0 0,0" /></g><g
           transform="translate(115.4636,133.4879)"
           id="g88"><path
             id="path90"
             style="fill:#ffffff;fill-opacity:1;fill-rule:nonzero;stroke:none"
             d="m 0,0 -13.917,0 c -1.1,0 -2,0.9 -2,2 l 0,5.25 c 0,1.1 0.9,2 2,2 L 0,9.25 c 1.1,0 2,-0.9 2,-2 L 2,2 C 2,0.9 1.1,0 0,0" /></g><g
           transform="translate(136.6813,133.4879)"
           id="g92"><path
             id="path94"
             style="fill:#ffffff;fill-opacity:1;fill-rule:nonzero;stroke:none"
             d="m 0,0 -13.917,0 c -1.1,0 -2,0.9 -2,2 l 0,5.25 c 0,1.1 0.9,2 2,2 L 0,9.25 c 1.1,0 2,-0.9 2,-2 L 2,2 C 2,0.9 1.1,0 0,0" /></g><g
           transform="translate(157.899,133.4879)"
           id="g96"><path
             id="path98"
             style="fill:#ffffff;fill-opacity:1;fill-rule:nonzero;stroke:none"
             d="m 0,0 -13.917,0 c -1.1,0 -2,0.9 -2,2 l 0,5.25 c 0,1.1 0.9,2 2,2 L 0,9.25 c 1.1,0 2,-0.9 2,-2 L 2,2 C 2,0.9 1.1,0 0,0" /></g><g
           transform="translate(179.1168,133.4879)"
           id="g100"><path
             id="path102"
             style="fill:#ffffff;fill-opacity:1;fill-rule:nonzero;stroke:none"
             d="m 0,0 -13.917,0 c -1.1,0 -2,0.9 -2,2 l 0,5.25 c 0,1.1 0.9,2 2,2 L 0,9.25 c 1.1,0 2,-0.9 2,-2 L 2,2 C 2,0.9 1.1,0 0,0" /></g><g
           transform="translate(200.3345,133.4879)"
           id="g104"><path
             id="path106"
             style="fill:#ffffff;fill-opacity:1;fill-rule:nonzero;stroke:none"
             d="m 0,0 -13.917,0 c -1.1,0 -2,0.9 -2,2 l 0,5.25 c 0,1.1 0.9,2 2,2 L 0,9.25 c 1.1,0 2,-0.9 2,-2 L 2,2 C 2,0.9 1.1,0 0,0" /></g><g
           transform="translate(221.5522,133.4879)"
           id="g108"><path
             id="path110"
             style="fill:#ffffff;fill-opacity:1;fill-rule:nonzero;stroke:none"
             d="m 0,0 -13.917,0 c -1.1,0 -2,0.9 -2,2 l 0,5.25 c 0,1.1 0.9,2 2,2 L 0,9.25 c 1.1,0 2,-0.9 2,-2 L 2,2 C 2,0.9 1.1,0 0,0" /></g><g
           transform="translate(242.77,133.4879)"
           id="g112"><path
             id="path114"
             style="fill:#ffffff;fill-opacity:1;fill-rule:nonzero;stroke:none"
             d="m 0,0 -13.917,0 c -1.1,0 -2,0.9 -2,2 l 0,5.25 c 0,1.1 0.9,2 2,2 L 0,9.25 c 1.1,0 2,-0.9 2,-2 L 2,2 C 2,0.9 1.1,0 0,0" /></g><g
           transform="translate(263.9877,133.4879)"
           id="g116"><path
             id="path118"
             style="fill:#ffffff;fill-opacity:1;fill-rule:nonzero;stroke:none"
             d="m 0,0 -13.917,0 c -1.1,0 -2,0.9 -2,2 l 0,5.25 c 0,1.1 0.9,2 2,2 L 0,9.25 c 1.1,0 2,-0.9 2,-2 L 2,2 C 2,0.9 1.1,0 0,0" /></g><g
           transform="translate(285.2054,133.4879)"
           id="g120"><path
             id="path122"
             style="fill:#e20613;fill-opacity:1;fill-rule:nonzero;stroke:none"
             d="m 0,0 -13.917,0 c -1.1,0 -2,0.9 -2,2 l 0,5.25 c 0,1.1 0.9,2 2,2 L 0,9.25 c 1.1,0 2,-0.9 2,-2 L 2,2 C 2,0.9 1.1,0 0,0" /></g><g
           transform="translate(285.4971,27.8213)"
           id="g124"><path
             id="path126"
             style="fill:none;stroke:#ffffff;stroke-width:2;stroke-linecap:butt;stroke-linejoin:miter;stroke-miterlimit:10;stroke-dasharray:none;stroke-opacity:1"
             d="m 0,0 -205.836,0 c -2.75,0 -5,2.25 -5,5 l 0,77.236 c 0,2.75 2.25,5 5,5 L 0,87.236 c 2.75,0 5,-2.25 5,-5 L 5,5 C 5,2.25 2.75,0 0,0 Z" /></g><g
           transform="translate(93.9112,99.1546)"
           id="g128"><path
             id="path130"
             style="fill:#ffffff;fill-opacity:1;fill-rule:nonzero;stroke:none"
             d="m 0,0 -13.917,0 c -1.1,0 -2,0.9 -2,2 l 0,6.25 c 0,1.1 0.9,2 2,2 L 0,10.25 c 1.1,0 2,-0.9 2,-2 L 2,2 C 2,0.9 1.1,0 0,0" /></g><g
           transform="translate(115.2401,99.1546)"
           id="g132"><path
             id="path134"
             style="fill:#ffffff;fill-opacity:1;fill-rule:nonzero;stroke:none"
             d="m 0,0 -13.917,0 c -1.1,0 -2,0.9 -2,2 l 0,6.25 c 0,1.1 0.9,2 2,2 L 0,10.25 c 1.1,0 2,-0.9 2,-2 L 2,2 C 2,0.9 1.1,0 0,0" /></g><g
           transform="translate(136.5689,99.1546)"
           id="g136"><path
             id="path138"
             style="fill:#ffffff;fill-opacity:1;fill-rule:nonzero;stroke:none"
             d="m 0,0 -13.917,0 c -1.1,0 -2,0.9 -2,2 l 0,6.25 c 0,1.1 0.9,2 2,2 L 0,10.25 c 1.1,0 2,-0.9 2,-2 L 2,2 C 2,0.9 1.1,0 0,0" /></g><g
           transform="translate(157.8978,99.1546)"
           id="g140"><path
             id="path142"
             style="fill:#ffffff;fill-opacity:1;fill-rule:nonzero;stroke:none"
             d="m 0,0 -13.917,0 c -1.1,0 -2,0.9 -2,2 l 0,6.25 c 0,1.1 0.9,2 2,2 L 0,10.25 c 1.1,0 2,-0.9 2,-2 L 2,2 C 2,0.9 1.1,0 0,0" /></g><g
           transform="translate(179.2266,99.1546)"
           id="g144"><path
             id="path146"
             style="fill:#ffffff;fill-opacity:1;fill-rule:nonzero;stroke:none"
             d="m 0,0 -13.917,0 c -1.1,0 -2,0.9 -2,2 l 0,6.25 c 0,1.1 0.9,2 2,2 L 0,10.25 c 1.1,0 2,-0.9 2,-2 L 2,2 C 2,0.9 1.1,0 0,0" /></g><g
           transform="translate(200.5555,99.1546)"
           id="g148"><path
             id="path150"
             style="fill:#ffffff;fill-opacity:1;fill-rule:nonzero;stroke:none"
             d="m 0,0 -13.917,0 c -1.1,0 -2,0.9 -2,2 l 0,6.25 c 0,1.1 0.9,2 2,2 L 0,10.25 c 1.1,0 2,-0.9 2,-2 L 2,2 C 2,0.9 1.1,0 0,0" /></g><g
           transform="translate(221.8843,99.1546)"
           id="g152"><path
             id="path154"
             style="fill:#ffffff;fill-opacity:1;fill-rule:nonzero;stroke:none"
             d="m 0,0 -13.917,0 c -1.1,0 -2,0.9 -2,2 l 0,6.25 c 0,1.1 0.9,2 2,2 L 0,10.25 c 1.1,0 2,-0.9 2,-2 L 2,2 C 2,0.9 1.1,0 0,0" /></g><g
           transform="translate(243.2132,99.1546)"
           id="g156"><path
             id="path158"
             style="fill:#ffffff;fill-opacity:1;fill-rule:nonzero;stroke:none"
             d="m 0,0 -13.917,0 c -1.1,0 -2,0.9 -2,2 l 0,6.25 c 0,1.1 0.9,2 2,2 L 0,10.25 c 1.1,0 2,-0.9 2,-2 L 2,2 C 2,0.9 1.1,0 0,0" /></g><g
           transform="translate(264.542,99.1546)"
           id="g160"><path
             id="path162"
             style="fill:#ffffff;fill-opacity:1;fill-rule:nonzero;stroke:none"
             d="m 0,0 -13.917,0 c -1.1,0 -2,0.9 -2,2 l 0,6.25 c 0,1.1 0.9,2 2,2 L 0,10.25 c 1.1,0 2,-0.9 2,-2 L 2,2 C 2,0.9 1.1,0 0,0" /></g><g
           transform="translate(104.5577,78.4879)"
           id="g164"><path
             id="path166"
             style="fill:#ffffff;fill-opacity:1;fill-rule:nonzero;stroke:none"
             d="m 0,0 -13.917,0 c -1.1,0 -2,0.9 -2,2 l 0,6.25 c 0,1.1 0.9,2 2,2 L 0,10.25 c 1.1,0 2,-0.9 2,-2 L 2,2 C 2,0.9 1.1,0 0,0" /></g><g
           transform="translate(125.8027,78.4879)"
           id="g168"><path
             id="path170"
             style="fill:#ffffff;fill-opacity:1;fill-rule:nonzero;stroke:none"
             d="m 0,0 -13.917,0 c -1.1,0 -2,0.9 -2,2 l 0,6.25 c 0,1.1 0.9,2 2,2 L 0,10.25 c 1.1,0 2,-0.9 2,-2 L 2,2 C 2,0.9 1.1,0 0,0" /></g><g
           transform="translate(147.0476,78.4879)"
           id="g172"><path
             id="path174"
             style="fill:#ffffff;fill-opacity:1;fill-rule:nonzero;stroke:none"
             d="m 0,0 -13.917,0 c -1.1,0 -2,0.9 -2,2 l 0,6.25 c 0,1.1 0.9,2 2,2 L 0,10.25 c 1.1,0 2,-0.9 2,-2 L 2,2 C 2,0.9 1.1,0 0,0" /></g><g
           transform="translate(168.2926,78.4879)"
           id="g176"><path
             id="path178"
             style="fill:#ffffff;fill-opacity:1;fill-rule:nonzero;stroke:none"
             d="m 0,0 -13.917,0 c -1.1,0 -2,0.9 -2,2 l 0,6.25 c 0,1.1 0.9,2 2,2 L 0,10.25 c 1.1,0 2,-0.9 2,-2 L 2,2 C 2,0.9 1.1,0 0,0" /></g><g
           transform="translate(189.5375,78.4879)"
           id="g180"><path
             id="path182"
             style="fill:#ffffff;fill-opacity:1;fill-rule:nonzero;stroke:none"
             d="m 0,0 -13.917,0 c -1.1,0 -2,0.9 -2,2 l 0,6.25 c 0,1.1 0.9,2 2,2 L 0,10.25 c 1.1,0 2,-0.9 2,-2 L 2,2 C 2,0.9 1.1,0 0,0" /></g><g
           transform="translate(210.7825,78.4879)"
           id="g184"><path
             id="path186"
             style="fill:#ffffff;fill-opacity:1;fill-rule:nonzero;stroke:none"
             d="m 0,0 -13.917,0 c -1.1,0 -2,0.9 -2,2 l 0,6.25 c 0,1.1 0.9,2 2,2 L 0,10.25 c 1.1,0 2,-0.9 2,-2 L 2,2 C 2,0.9 1.1,0 0,0" /></g><g
           transform="translate(232.0274,78.4879)"
           id="g188"><path
             id="path190"
             style="fill:#ffffff;fill-opacity:1;fill-rule:nonzero;stroke:none"
             d="m 0,0 -13.917,0 c -1.1,0 -2,0.9 -2,2 l 0,6.25 c 0,1.1 0.9,2 2,2 L 0,10.25 c 1.1,0 2,-0.9 2,-2 L 2,2 C 2,0.9 1.1,0 0,0" /></g><g
           transform="translate(253.2724,78.4879)"
           id="g192"><path
             id="path194"
             style="fill:#ffffff;fill-opacity:1;fill-rule:nonzero;stroke:none"
             d="m 0,0 -13.917,0 c -1.1,0 -2,0.9 -2,2 l 0,6.25 c 0,1.1 0.9,2 2,2 L 0,10.25 c 1.1,0 2,-0.9 2,-2 L 2,2 C 2,0.9 1.1,0 0,0" /></g><g
           transform="translate(274.5173,78.4879)"
           id="g196"><path
             id="path198"
             style="fill:#ffffff;fill-opacity:1;fill-rule:nonzero;stroke:none"
             d="m 0,0 -13.917,0 c -1.1,0 -2,0.9 -2,2 l 0,6.25 c 0,1.1 0.9,2 2,2 L 0,10.25 c 1.1,0 2,-0.9 2,-2 L 2,2 C 2,0.9 1.1,0 0,0" /></g><g
           transform="translate(115.5577,58.1546)"
           id="g200"><path
             id="path202"
             style="fill:#ffffff;fill-opacity:1;fill-rule:nonzero;stroke:none"
             d="m 0,0 -13.917,0 c -1.1,0 -2,0.9 -2,2 l 0,6.25 c 0,1.1 0.9,2 2,2 L 0,10.25 c 1.1,0 2,-0.9 2,-2 L 2,2 C 2,0.9 1.1,0 0,0" /></g><g
           transform="translate(136.8027,58.1546)"
           id="g204"><path
             id="path206"
             style="fill:#ffffff;fill-opacity:1;fill-rule:nonzero;stroke:none"
             d="m 0,0 -13.917,0 c -1.1,0 -2,0.9 -2,2 l 0,6.25 c 0,1.1 0.9,2 2,2 L 0,10.25 c 1.1,0 2,-0.9 2,-2 L 2,2 C 2,0.9 1.1,0 0,0" /></g><g
           transform="translate(158.0476,58.1546)"
           id="g208"><path
             id="path210"
             style="fill:#ffffff;fill-opacity:1;fill-rule:nonzero;stroke:none"
             d="m 0,0 -13.917,0 c -1.1,0 -2,0.9 -2,2 l 0,6.25 c 0,1.1 0.9,2 2,2 L 0,10.25 c 1.1,0 2,-0.9 2,-2 L 2,2 C 2,0.9 1.1,0 0,0" /></g><g
           transform="translate(179.2926,58.1546)"
           id="g212"><path
             id="path214"
             style="fill:#ffffff;fill-opacity:1;fill-rule:nonzero;stroke:none"
             d="m 0,0 -13.917,0 c -1.1,0 -2,0.9 -2,2 l 0,6.25 c 0,1.1 0.9,2 2,2 L 0,10.25 c 1.1,0 2,-0.9 2,-2 L 2,2 C 2,0.9 1.1,0 0,0" /></g><g
           transform="translate(200.5375,58.1546)"
           id="g216"><path
             id="path218"
             style="fill:#ffffff;fill-opacity:1;fill-rule:nonzero;stroke:none"
             d="m 0,0 -13.917,0 c -1.1,0 -2,0.9 -2,2 l 0,6.25 c 0,1.1 0.9,2 2,2 L 0,10.25 c 1.1,0 2,-0.9 2,-2 L 2,2 C 2,0.9 1.1,0 0,0" /></g><g
           transform="translate(210.2244,36.1963)"
           id="g220"><path
             id="path222"
             style="fill:#ffffff;fill-opacity:1;fill-rule:nonzero;stroke:none"
             d="m 0,0 -55.917,0 c -1.1,0 -2,0.9 -2,2 l 0,6.25 c 0,1.1 0.9,2 2,2 L 0,10.25 c 1.1,0 2,-0.9 2,-2 L 2,2 C 2,0.9 1.1,0 0,0" /></g><g
           transform="translate(221.7825,58.1546)"
           id="g224"><path
             id="path226"
             style="fill:#ffffff;fill-opacity:1;fill-rule:nonzero;stroke:none"
             d="m 0,0 -13.917,0 c -1.1,0 -2,0.9 -2,2 l 0,6.25 c 0,1.1 0.9,2 2,2 L 0,10.25 c 1.1,0 2,-0.9 2,-2 L 2,2 C 2,0.9 1.1,0 0,0" /></g><g
           transform="translate(243.0274,58.1546)"
           id="g228"><path
             id="path230"
             style="fill:#ffffff;fill-opacity:1;fill-rule:nonzero;stroke:none"
             d="m 0,0 -13.917,0 c -1.1,0 -2,0.9 -2,2 l 0,6.25 c 0,1.1 0.9,2 2,2 L 0,10.25 c 1.1,0 2,-0.9 2,-2 L 2,2 C 2,0.9 1.1,0 0,0" /></g><g
           transform="translate(264.2724,58.1546)"
           id="g232"><path
             id="path234"
             style="fill:#ffffff;fill-opacity:1;fill-rule:nonzero;stroke:none"
             d="m 0,0 -13.917,0 c -1.1,0 -2,0.9 -2,2 l 0,6.25 c 0,1.1 0.9,2 2,2 L 0,10.25 c 1.1,0 2,-0.9 2,-2 L 2,2 C 2,0.9 1.1,0 0,0" /></g><g
           transform="translate(285.5173,58.1546)"
           id="g236"><path
             id="path238"
             style="fill:#ffffff;fill-opacity:1;fill-rule:nonzero;stroke:none"
             d="m 0,0 -13.917,0 c -1.1,0 -2,0.9 -2,2 l 0,6.25 c 0,1.1 0.9,2 2,2 L 0,10.25 c 1.1,0 2,-0.9 2,-2 L 2,2 C 2,0.9 1.1,0 0,0" /></g><g
           transform="translate(285.8708,99.1546)"
           id="g240"><path
             id="path242"
             style="fill:#ffffff;fill-opacity:1;fill-rule:nonzero;stroke:none"
             d="m 0,0 -13.917,0 c -1.1,0 -2,0.9 -2,2 l 0,6.25 c 0,1.1 0.9,2 2,2 L 0,10.25 c 1.1,0 2,-0.9 2,-2 L 2,2 C 2,0.9 1.1,0 0,0" /></g><path
           id="path244"
           style="fill:#ffffff;fill-opacity:1;fill-rule:nonzero;stroke:none"
           d="m 74.661,36.988 74.958,0 0,8.667 -74.958,0 0,-8.667 z" /><path
           id="path246"
           style="fill:#ffffff;fill-opacity:1;fill-rule:nonzero;stroke:none"
           d="m 215.246,36.988 74.958,0 0,8.667 -74.958,0 0,-8.667 z" /><path
           id="path248"
           style="fill:#e20613;fill-opacity:1;fill-rule:nonzero;stroke:none"
           d="m 248.536,230.258 -14.592,0 0,13.846 14.592,0 0,-13.846 z" /><path
           id="path250"
           style="fill:#ffffff;fill-opacity:1;fill-rule:nonzero;stroke:none"
           d="m 250.536,230.258 15.75,0 0,13.814 -15.75,0 0,-13.814 z" /><path
           id="path252"
           style="fill:#ffffff;fill-opacity:1;fill-rule:nonzero;stroke:none"
           d="m 216.194,230.258 15.75,0 0,13.814 -15.75,0 0,-13.814 z" /><path
           id="path254"
           style="fill:#ffffff;fill-opacity:1;fill-rule:nonzero;stroke:none"
           d="m 199.11,224.321 18.084,0 0,24.85 -18.084,0 0,-24.85 z" /><path
           id="path256"
           style="fill:#ffffff;fill-opacity:1;fill-rule:nonzero;stroke:none"
           d="m 73.11,224.321 44.353,0 0,24.85 -44.353,0 0,-24.85 z" /><g
           transform="translate(195.4112,224.3213)"
           id="g258"><path
             id="path260"
             style="fill:none;stroke:#ffffff;stroke-width:1;stroke-linecap:butt;stroke-linejoin:miter;stroke-miterlimit:10;stroke-dasharray:none;stroke-opacity:1"
             d="m 0,0 -72.759,0 c -1.1,0 -2,0.9 -2,2 l 0,20.85 c 0,1.1 0.9,2 2,2 L 0,24.85 c 1.1,0 2,-0.9 2,-2 L 2,2 C 2,0.9 1.1,0 0,0 Z" /></g><g
           transform="translate(20.9411,242.8271)"
           id="g262"><path
             id="path264"
             style="fill:#000000;fill-opacity:1;fill-rule:nonzero;stroke:none"
             d="M 0,0 C 0.588,0 1.152,-0.041 1.704,0.02 1.929,0.045 2.192,0.249 2.322,0.448 2.457,0.654 2.496,0.952 2.499,1.211 2.516,2.49 2.513,3.77 2.501,5.05 2.499,5.282 2.475,5.538 2.374,5.739 2.276,5.937 2.086,6.196 1.904,6.226 1.244,6.333 0.567,6.391 -0.063,6.19 -0.198,5.079 -0.167,0.785 0,0 m -1.708,-0.494 0,7.178 c 0.153,0.226 0.407,0.28 0.682,0.28 C -0.223,6.965 0.58,6.985 1.381,6.958 2.526,6.92 3.191,6.253 3.212,5.103 3.235,3.796 3.234,2.488 3.21,1.181 3.189,0.066 2.547,-0.619 1.466,-0.667 c -0.89,-0.04 -1.783,-0.017 -2.674,0 -0.161,0.003 -0.321,0.108 -0.5,0.173" /></g><g
           transform="translate(14.5272,249.088)"
           id="g266"><path
             id="path268"
             style="fill:#000000;fill-opacity:1;fill-rule:nonzero;stroke:none"
             d="m 0,0 c -0.064,-0.243 -0.156,-0.434 -0.157,-0.625 -0.012,-1.664 -0.014,-3.329 0.002,-4.993 0.002,-0.21 0.127,-0.42 0.194,-0.625 0.792,-0.013 1.496,-0.141 2.226,0.097 0.217,1.102 -0.036,2.208 0.156,3.309 0.26,0.187 0.518,0.373 0.798,0.574 C 3.145,-1.51 3.413,-0.737 3.014,0 L 0,0 Z M -0.815,0.444 C -0.258,0.746 0.684,0.809 3.124,0.704 3.417,0.691 3.417,0.691 3.87,0.402 3.886,0.257 3.922,0.083 3.922,-0.09 c 0.004,-1.965 0.002,-3.93 0.002,-5.895 0,-0.12 0.003,-0.239 -0.003,-0.358 -0.019,-0.347 -0.203,-0.581 -0.549,-0.583 -1.309,-0.008 -2.618,0.007 -3.927,0.023 -0.074,10e-4 -0.147,0.094 -0.215,0.14 -0.128,0.646 -0.16,6.082 -0.045,7.207" /></g><g
           transform="translate(38.0016,245.5138)"
           id="g270"><path
             id="path272"
             style="fill:#000000;fill-opacity:1;fill-rule:nonzero;stroke:none"
             d="m 0,0 c -1.053,0.402 -2.167,-0.07 -3.198,0.326 l 0,3.762 c 0.129,0.055 0.28,0.165 0.44,0.181 1.089,0.11 3.05,0.014 3.59,-0.176 l 0,-2.063 -0.573,0 C 0.207,2.553 0.161,3.013 0.11,3.527 -0.762,3.666 -1.573,3.622 -2.434,3.563 -2.601,2.707 -2.519,1.916 -2.497,1.041 -1.441,0.666 -0.317,1.05 0.698,0.815 0.927,0.164 0.978,-1.809 0.82,-3.163 0.741,-3.215 0.644,-3.332 0.546,-3.334 c -1.072,-0.02 -2.145,-0.028 -3.217,-0.022 -0.166,10e-4 -0.332,0.084 -0.53,0.139 l 0,2.085 c 0.442,0.172 0.865,0.142 1.346,0.016 0.03,-0.48 0.059,-0.942 0.088,-1.401 0.588,-0.313 1.133,-0.153 1.742,-0.138 C 0.069,-1.736 0.034,-0.889 0,0" /></g><g
           transform="translate(29.8927,244.4575)"
           id="g274"><path
             id="path276"
             style="fill:#000000;fill-opacity:1;fill-rule:nonzero;stroke:none"
             d="m 0,0 1.264,0 c 0.067,-0.521 0.132,-1.027 0.2,-1.556 0.585,-0.12 1.104,-0.145 1.705,0.023 C 3.36,-0.725 3.214,0.101 3.26,0.859 3.021,1.199 2.734,1.228 2.425,1.223 1.888,1.216 1.352,1.216 0.816,1.226 0.584,1.23 0.354,1.269 0.086,1.296 -0.175,2.549 0.011,3.778 -0.049,4.968 0.097,5.286 0.346,5.322 0.631,5.337 2.615,5.442 3.541,5.368 4.063,5.018 3.94,4.389 4.131,3.708 3.905,3.025 3.763,3.033 3.652,3.039 3.532,3.045 3.251,3.537 3.606,4.156 3.136,4.626 l -2.337,0 C 0.487,3.773 0.548,2.921 0.754,2.042 1.816,1.776 2.875,2.105 3.957,1.821 4.113,0.541 3.934,-0.732 4.062,-1.927 3.887,-2.285 3.628,-2.31 3.347,-2.308 2.453,-2.304 1.559,-2.318 0.665,-2.303 0.038,-2.292 -0.102,-2.108 -0.062,-1.479 -0.032,-1.015 -0.022,-0.55 0,0" /></g><g
           transform="translate(39.6519,242.5446)"
           id="g278"><path
             id="path280"
             style="fill:#000000;fill-opacity:1;fill-rule:nonzero;stroke:none"
             d="M 0,0 0,6.985 C 0.192,7.068 0.396,7.229 0.604,7.234 1.669,7.26 2.734,7.246 3.841,7.246 3.866,7.007 3.884,6.839 3.904,6.642 3.338,6.442 2.772,6.573 2.219,6.536 1.703,6.501 1.129,6.68 0.683,6.054 0.683,5.577 0.666,5.015 0.688,4.454 0.709,3.932 0.926,3.737 1.483,3.716 1.958,3.698 2.435,3.712 2.911,3.712 c 0.293,0 0.586,0 0.932,0 C 3.86,3.517 3.871,3.386 3.89,3.163 3.494,3.153 3.146,3.121 2.8,3.138 1.698,3.192 1.504,3 1.562,1.862 1.578,1.535 1.549,1.206 1.572,0.88 1.584,0.713 1.663,0.55 1.734,0.31 2.244,0.296 2.741,0.281 3.239,0.267 3.547,0.259 3.843,0.233 3.914,-0.227 3.771,-0.281 3.622,-0.383 3.47,-0.385 2.578,-0.401 1.685,-0.389 0.792,-0.396 0.477,-0.399 0.196,-0.359 0,0" /></g><g
           transform="translate(26.2028,242.3188)"
           id="g282"><path
             id="path284"
             style="fill:#000000;fill-opacity:1;fill-rule:nonzero;stroke:none"
             d="m 0,0 c 0,0.794 -0.025,1.537 0.008,2.278 0.025,0.557 -0.147,0.981 -0.6,1.309 -0.239,0.173 -0.443,0.393 -0.662,0.589 0,1.038 -0.003,2.046 0.008,3.053 10e-4,0.063 0.112,0.126 0.172,0.189 C -0.749,7.365 -0.733,7.135 -0.733,6.89 -0.735,6.176 -0.734,5.462 -0.734,4.662 -0.281,4.286 0.192,3.893 0.679,3.488 1.333,3.792 1.825,4.2 2.222,4.694 2.431,5.59 2.088,6.496 2.424,7.35 2.439,7.39 2.522,7.403 2.584,7.434 2.647,7.379 2.77,7.322 2.771,7.263 2.782,6.255 2.779,5.246 2.779,4.182 2.596,4.009 2.402,3.774 2.161,3.607 1.587,3.21 1.378,2.686 1.425,1.995 1.471,1.316 1.435,0.632 1.435,-0.074 0.941,-0.195 0.518,-0.242 0,0" /></g><g
           transform="translate(47.1333,242.2146)"
           id="g286"><path
             id="path288"
             style="fill:#000000;fill-opacity:1;fill-rule:nonzero;stroke:none"
             d="m 0,0 -1.386,0 0,3.097 c -0.444,0.354 -0.91,0.726 -1.28,1.02 0,1.209 -0.002,2.243 0.01,3.277 0,0.047 0.138,0.093 0.229,0.15 0.441,-0.392 0.191,-0.901 0.232,-1.348 0.039,-0.442 0.008,-0.891 0.008,-1.283 0.676,-0.826 0.801,-0.927 1.585,-1.283 0.244,0.173 0.515,0.355 0.775,0.55 C 0.658,4.544 0.914,5.004 0.855,5.641 0.811,6.114 0.832,6.595 0.853,7.071 0.86,7.228 0.957,7.381 1.058,7.663 1.22,7.438 1.382,7.316 1.386,7.189 1.41,6.355 1.428,5.518 1.385,4.685 1.373,4.454 1.174,4.214 1.016,4.013 0.871,3.829 0.667,3.69 0.488,3.533 0.13,3.218 -0.029,2.838 -0.008,2.347 0.023,1.607 0,0.864 0,0" /></g><g
           transform="translate(54.4947,249.7016)"
           id="g290"><path
             id="path292"
             style="fill:none;stroke:#bd1622;stroke-width:0.5;stroke-linecap:butt;stroke-linejoin:miter;stroke-miterlimit:10;stroke-dasharray:none;stroke-opacity:1"
             d="m 0,0 0,2.426 c 0,0.357 0.138,0.662 0.413,0.914 0.281,0.258 0.621,0.387 1.02,0.387 l 3.093,0 c 0.118,0 0.217,0.035 0.299,0.105 0.082,0.076 0.123,0.17 0.123,0.281 0,0.106 -0.041,0.197 -0.123,0.273 C 4.737,4.462 4.638,4.5 4.526,4.5 L 0,4.5 l 0,1.477 5.142,0 C 5.54,5.977 5.877,5.848 6.152,5.59 6.434,5.332 6.574,5.027 6.574,4.676 l 0,-1.125 C 6.574,3.188 6.434,2.88 6.152,2.628 5.865,2.376 5.528,2.25 5.142,2.25 l -3.094,0 C 1.931,2.25 1.828,2.212 1.74,2.136 1.664,2.06 1.626,1.969 1.626,1.863 l 0,-0.386 4.948,0 L 6.574,0 0,0 Z" /></g></g></g></g></svg>