<?xml version="1.0" encoding="UTF-8" standalone="no"?>
<svg
   xmlns:dc="http://purl.org/dc/elements/1.1/"
   xmlns:cc="http://creativecommons.org/ns#"
   xmlns:rdf="http://www.w3.org/1999/02/22-rdf-syntax-ns#"
   xmlns:svg="http://www.w3.org/2000/svg"
   xmlns="http://www.w3.org/2000/svg"
   viewBox="0 0 212.67375 257.9025"
   height="257.9025"
   width="212.67375"
   xml:space="preserve"
   version="1.1"
   id="svg2"><metadata
     id="metadata8"><rdf:RDF><cc:Work
         rdf:about=""><dc:format>image/svg+xml</dc:format><dc:type
           rdf:resource="http://purl.org/dc/dcmitype/StillImage" /><dc:title></dc:title></cc:Work></rdf:RDF></metadata><defs
     id="defs6"><clipPath
       id="clipPath16"
       clipPathUnits="userSpaceOnUse"><path
         id="path18"
         d="m 0,206.322 170.139,0 L 170.139,0 0,0 0,206.322 Z" /></clipPath></defs><g
     transform="matrix(1.25,0,0,-1.25,0,257.9025)"
     id="g10"><g
       id="g12"><g
         clip-path="url(#clipPath16)"
         id="g14"><g
           transform="translate(164.4359,0)"
           id="g20"><path
             id="path22"
             style="fill:#1d1d1b;fill-opacity:1;fill-rule:nonzero;stroke:none"
             d="m 0,0 -158.733,0 c -3.137,0 -5.703,2.566 -5.703,5.703 l 0,194.916 c 0,3.137 2.566,5.703 5.703,5.703 l 158.733,0 c 3.137,0 5.703,-2.566 5.703,-5.703 l 0,-194.916 C 5.703,2.566 3.137,0 0,0" /></g><g
           transform="translate(20.0163,153.9718)"
           id="g24"><path
             id="path26"
             style="fill:#000000;fill-opacity:1;fill-rule:nonzero;stroke:none"
             d="m 0,0 0,-128.951 c 0,-3.176 2.598,-5.774 5.774,-5.774 l 118.558,0 c 3.176,0 5.774,2.598 5.774,5.774 l 0,156.281 c 0,3.176 -2.598,5.774 -5.774,5.774 l -83.914,0" /></g><g
           transform="translate(144.3481,18.6691)"
           id="g28"><path
             id="path30"
             style="fill:#ffffff;fill-opacity:1;fill-rule:nonzero;stroke:none"
             d="m 0,0 -118.558,0 c -3.502,0 -6.351,2.85 -6.351,6.351 l 0,128.951 1.154,0 0,-128.951 c 0,-2.865 2.331,-5.196 5.197,-5.196 L 0,1.155 c 2.866,0 5.197,2.331 5.197,5.196 l 0,156.282 c 0,2.865 -2.331,5.196 -5.197,5.196 l -83.914,0 0,1.155 83.914,0 c 3.502,0 6.351,-2.849 6.351,-6.351 l 0,-156.282 C 6.351,2.85 3.502,0 0,0" /></g><g
           transform="translate(50.554,187.0757)"
           id="g32"><path
             id="path34"
             style="fill:#e20613;fill-opacity:1;fill-rule:nonzero;stroke:none"
             d="m 0,0 -24.764,0 c -3.175,0 -5.774,-2.598 -5.774,-5.774 l 0,-20.401 0,-6.929 40.418,0 L 9.88,0 0,0 Z" /></g><g
           transform="translate(20.5935,154.549)"
           id="g36"><path
             id="path38"
             style="fill:#ffffff;fill-opacity:1;fill-rule:nonzero;stroke:none"
             d="m 0,0 39.263,0 0,31.949 -34.066,0 C 2.331,31.949 0,29.618 0,26.753 L 0,0 Z m 40.418,-1.155 -41.573,0 0,27.908 c 0,3.502 2.849,6.351 6.352,6.351 l 35.221,0 0,-34.259 z" /></g><g
           transform="translate(112.0955,110.6616)"
           id="g40"><path
             id="path42"
             style="fill:#ffffff;fill-opacity:1;fill-rule:nonzero;stroke:none"
             d="m 0,0 -5.663,5.663 0,8.008 c 0,2.54 -2.078,4.619 -4.619,4.619 l -8.008,0 -5.662,5.662 c -1.797,1.797 -4.736,1.797 -6.533,0 l -5.662,-5.662 -8.008,0 c -2.541,0 -4.62,-2.079 -4.62,-4.619 l 0,-8.008 L -54.437,0 c -1.797,-1.796 -1.797,-4.736 0,-6.532 l 5.662,-5.663 0,-8.008 c 0,-2.541 2.079,-4.619 4.62,-4.619 l 8.008,0 5.662,-5.663 c 1.797,-1.796 4.736,-1.796 6.533,0 l 5.662,5.663 8.008,0 c 2.541,0 4.619,2.078 4.619,4.619 l 0,8.008 L 0,-6.532 C 1.796,-4.736 1.796,-1.796 0,0" /></g><g
           transform="translate(67.9398,128.3739)"
           id="g44"><path
             id="path46"
             style="fill:#ffffff;fill-opacity:1;fill-rule:nonzero;stroke:none"
             d="m 0,0 c -2.228,0 -4.042,-1.813 -4.042,-4.042 l 0,-8.247 -5.831,-5.832 c -0.76,-0.76 -1.178,-1.775 -1.178,-2.858 0,-1.083 0.418,-2.098 1.178,-2.858 l 5.831,-5.831 0,-8.247 c 0,-2.229 1.814,-4.042 4.042,-4.042 l 8.248,0 5.831,-5.831 c 1.519,-1.519 4.195,-1.521 5.716,0 l 5.832,5.831 8.247,0 c 2.228,0 4.042,1.813 4.042,4.042 l 0,8.247 5.831,5.831 c 0.76,0.76 1.179,1.775 1.179,2.858 0,1.083 -0.419,2.098 -1.179,2.858 l -5.831,5.832 0,8.247 C 37.916,-1.813 36.102,0 33.874,0 l -8.247,0 -5.832,5.831 c -1.521,1.52 -4.196,1.519 -5.716,0 L 8.248,0 0,0 Z m 16.937,-50.123 c -1.392,0 -2.697,0.539 -3.674,1.518 l -5.494,5.493 -7.769,0 c -2.866,0 -5.197,2.331 -5.197,5.197 l 0,7.769 -5.493,5.493 c -0.977,0.978 -1.516,2.283 -1.516,3.674 0,1.392 0.539,2.697 1.516,3.675 l 5.493,5.493 0,7.769 c 0,2.866 2.331,5.197 5.197,5.197 l 7.769,0 5.494,5.493 c 0.977,0.978 2.283,1.516 3.674,1.516 1.391,0 2.697,-0.538 3.674,-1.516 l 5.494,-5.493 7.769,0 c 2.866,0 5.197,-2.331 5.197,-5.197 l 0,-7.769 5.493,-5.493 c 0.977,-0.978 1.516,-2.283 1.516,-3.675 0,-1.391 -0.539,-2.696 -1.516,-3.674 l -5.493,-5.493 0,-7.769 c 0,-2.866 -2.331,-5.197 -5.197,-5.197 l -7.769,0 -5.494,-5.493 c -0.977,-0.979 -2.282,-1.518 -3.674,-1.518" /></g><g
           transform="translate(143.9635,66.3041)"
           id="g48"><path
             id="path50"
             style="fill:#575756;fill-opacity:1;fill-rule:nonzero;stroke:none"
             d="m 0,0 -117.788,0 c -0.32,0 -0.578,0.258 -0.578,0.577 0,0.32 0.258,0.578 0.578,0.578 L 0,1.155 C 0.319,1.155 0.577,0.897 0.577,0.577 0.577,0.258 0.319,0 0,0" /></g><g
           transform="translate(143.9635,56.7049)"
           id="g52"><path
             id="path54"
             style="fill:#575756;fill-opacity:1;fill-rule:nonzero;stroke:none"
             d="m 0,0 -117.788,0 c -0.32,0 -0.578,0.258 -0.578,0.577 0,0.32 0.258,0.578 0.578,0.578 L 0,1.155 C 0.319,1.155 0.577,0.897 0.577,0.577 0.577,0.258 0.319,0 0,0" /></g><g
           transform="translate(143.9635,47.1058)"
           id="g56"><path
             id="path58"
             style="fill:#575756;fill-opacity:1;fill-rule:nonzero;stroke:none"
             d="m 0,0 -117.788,0 c -0.32,0 -0.578,0.258 -0.578,0.577 0,0.32 0.258,0.578 0.578,0.578 L 0,1.155 C 0.319,1.155 0.577,0.897 0.577,0.577 0.577,0.258 0.319,0 0,0" /></g><g
           transform="translate(143.9635,37.5066)"
           id="g60"><path
             id="path62"
             style="fill:#575756;fill-opacity:1;fill-rule:nonzero;stroke:none"
             d="m 0,0 -117.788,0 c -0.32,0 -0.578,0.258 -0.578,0.577 0,0.32 0.258,0.578 0.578,0.578 L 0,1.155 C 0.319,1.155 0.577,0.897 0.577,0.577 0.577,0.258 0.319,0 0,0" /></g><g
           transform="translate(143.9635,27.9074)"
           id="g64"><path
             id="path66"
             style="fill:#575756;fill-opacity:1;fill-rule:nonzero;stroke:none"
             d="m 0,0 -117.788,0 c -0.32,0 -0.578,0.258 -0.578,0.577 0,0.32 0.258,0.578 0.578,0.578 L 0,1.155 C 0.319,1.155 0.577,0.897 0.577,0.577 0.577,0.258 0.319,0 0,0" /></g><g
           transform="translate(142.5201,180.7245)"
           id="g68"><path
             id="path70"
             style="fill:#575756;fill-opacity:1;fill-rule:nonzero;stroke:none"
             d="m 0,0 -75.061,0 c -0.319,0 -0.578,0.258 -0.578,0.577 0,0.32 0.259,0.578 0.578,0.578 L 0,1.155 C 0.319,1.155 0.577,0.897 0.577,0.577 0.577,0.258 0.319,0 0,0" /></g><g
           transform="translate(142.5201,175.3543)"
           id="g72"><path
             id="path74"
             style="fill:#575756;fill-opacity:1;fill-rule:nonzero;stroke:none"
             d="m 0,0 -75.061,0 c -0.319,0 -0.578,0.258 -0.578,0.577 0,0.32 0.259,0.578 0.578,0.578 L 0,1.155 C 0.319,1.155 0.577,0.897 0.577,0.577 0.577,0.258 0.319,0 0,0" /></g><g
           transform="translate(142.5201,169.9847)"
           id="g76"><path
             id="path78"
             style="fill:#575756;fill-opacity:1;fill-rule:nonzero;stroke:none"
             d="m 0,0 -75.061,0 c -0.319,0 -0.578,0.258 -0.578,0.577 0,0.32 0.259,0.578 0.578,0.578 L 0,1.155 C 0.319,1.155 0.577,0.897 0.577,0.577 0.577,0.258 0.319,0 0,0" /></g><g
           transform="translate(142.5201,164.615)"
           id="g80"><path
             id="path82"
             style="fill:#575756;fill-opacity:1;fill-rule:nonzero;stroke:none"
             d="m 0,0 -75.061,0 c -0.319,0 -0.578,0.258 -0.578,0.577 0,0.32 0.259,0.578 0.578,0.578 L 0,1.155 C 0.319,1.155 0.577,0.897 0.577,0.577 0.577,0.258 0.319,0 0,0" /></g><g
           transform="translate(142.5201,159.2454)"
           id="g84"><path
             id="path86"
             style="fill:#575756;fill-opacity:1;fill-rule:nonzero;stroke:none"
             d="m 0,0 -75.061,0 c -0.319,0 -0.578,0.258 -0.578,0.577 0,0.32 0.259,0.578 0.578,0.578 L 0,1.155 C 0.319,1.155 0.577,0.897 0.577,0.577 0.577,0.258 0.319,0 0,0" /></g><g
           transform="translate(142.5201,153.8757)"
           id="g88"><path
             id="path90"
             style="fill:#575756;fill-opacity:1;fill-rule:nonzero;stroke:none"
             d="m 0,0 -75.061,0 c -0.319,0 -0.578,0.258 -0.578,0.577 0,0.32 0.259,0.578 0.578,0.578 L 0,1.155 C 0.319,1.155 0.577,0.897 0.577,0.577 0.577,0.258 0.319,0 0,0" /></g><g
           transform="translate(98.9268,107.3954)"
           id="g92"><path
             id="path94"
             style="fill:#1d1d1b;fill-opacity:1;fill-rule:nonzero;stroke:none"
             d="m 0,0 c 0,-7.76 -6.29,-14.05 -14.05,-14.05 -7.76,0 -14.05,6.29 -14.05,14.05 0,7.76 6.29,14.05 14.05,14.05 C -6.29,14.05 0,7.76 0,0" /></g><g
           transform="translate(84.8771,120.8678)"
           id="g96"><path
             id="path98"
             style="fill:#ffffff;fill-opacity:1;fill-rule:nonzero;stroke:none"
             d="m 0,0 c -7.429,0 -13.473,-6.043 -13.473,-13.472 0,-7.429 6.044,-13.473 13.473,-13.473 7.429,0 13.472,6.044 13.472,13.473 C 13.472,-6.043 7.429,0 0,0 m 0,-28.099 c -8.065,0 -14.628,6.561 -14.628,14.627 0,8.065 6.563,14.627 14.628,14.627 8.065,0 14.627,-6.562 14.627,-14.627 0,-8.066 -6.562,-14.627 -14.627,-14.627" /></g><g
           transform="translate(84.8771,114.8971)"
           id="g100"><path
             id="path102"
             style="fill:#ffffff;fill-opacity:1;fill-rule:nonzero;stroke:none"
             d="m 0,0 c -4.136,0 -7.502,-3.365 -7.502,-7.502 0,-4.136 3.366,-7.502 7.502,-7.502 4.136,0 7.502,3.366 7.502,7.502 C 7.502,-3.365 4.136,0 0,0 m 0,-16.159 c -4.774,0 -8.657,3.884 -8.657,8.657 0,4.773 3.883,8.657 8.657,8.657 4.773,0 8.656,-3.884 8.656,-8.657 0,-4.773 -3.883,-8.657 -8.656,-8.657" /></g></g></g></g></svg>