<?xml version="1.0" encoding="UTF-8" standalone="no"?>
<svg
   xmlns:dc="http://purl.org/dc/elements/1.1/"
   xmlns:cc="http://creativecommons.org/ns#"
   xmlns:rdf="http://www.w3.org/1999/02/22-rdf-syntax-ns#"
   xmlns:svg="http://www.w3.org/2000/svg"
   xmlns="http://www.w3.org/2000/svg"
   viewBox="0 0 181.63251 294.83499"
   height="294.83499"
   width="181.63251"
   xml:space="preserve"
   version="1.1"
   id="svg2"><metadata
     id="metadata8"><rdf:RDF><cc:Work
         rdf:about=""><dc:format>image/svg+xml</dc:format><dc:type
           rdf:resource="http://purl.org/dc/dcmitype/StillImage" /><dc:title></dc:title></cc:Work></rdf:RDF></metadata><defs
     id="defs6"><clipPath
       id="clipPath16"
       clipPathUnits="userSpaceOnUse"><path
         id="path18"
         d="m 0,235.868 145.306,0 L 145.306,0 0,0 0,235.868 Z" /></clipPath><linearGradient
       id="linearGradient50"
       spreadMethod="pad"
       gradientTransform="matrix(0,29.797281,29.797281,0,64.454468,98.612198)"
       gradientUnits="userSpaceOnUse"
       y2="0"
       x2="1"
       y1="0"
       x1="0"><stop
         id="stop52"
         offset="0"
         style="stop-opacity:1;stop-color:#f2e500" /><stop
         id="stop54"
         offset="0.3"
         style="stop-opacity:1;stop-color:#f2e500" /><stop
         id="stop56"
         offset="0.6"
         style="stop-opacity:1;stop-color:#f39519" /><stop
         id="stop58"
         offset="1"
         style="stop-opacity:1;stop-color:#e6680b" /></linearGradient><clipPath
       id="clipPath66"
       clipPathUnits="userSpaceOnUse"><path
         id="path68"
         d="m 0,235.868 145.306,0 L 145.306,0 0,0 0,235.868 Z" /></clipPath></defs><g
     transform="matrix(1.25,0,0,-1.25,0,294.835)"
     id="g10"><g
       id="g12"><g
         clip-path="url(#clipPath16)"
         id="g14"><g
           transform="translate(118.4972,171.3254)"
           id="g20"><path
             id="path22"
             style="fill:#575756;fill-opacity:1;fill-rule:nonzero;stroke:none"
             d="m 0,0 -91.689,0 c -1.239,0 -2.253,1.014 -2.253,2.253 l 0.451,40.775 c 0,1.239 1.014,2.253 2.253,2.253 l 90.787,0 c 1.24,0 2.253,-1.014 2.253,-2.253 L 2.253,2.253 C 2.253,1.014 1.239,0 0,0 m 26.808,2.67 -3.629,48.797 c -0.627,8.559 -4.833,13.076 -9.413,13.076 l -119.22,0 c -4.581,0 -8.787,-4.517 -9.414,-13.076 L -118.497,2.67 c 0,-0.107 0.008,-0.18 0.022,-0.229 -0.013,-0.099 -0.022,-0.199 -0.022,-0.301 l 0,-171.212 c 0,-1.24 1.014,-2.253 2.253,-2.253 l 140.799,0 c 1.24,0 2.253,1.013 2.253,2.253 l 0,171.212 c 0,0.102 -0.009,0.202 -0.022,0.301 0.014,0.049 0.022,0.122 0.022,0.229" /></g><g
           transform="translate(126.0468,35.4816)"
           id="g24"><path
             id="path26"
             style="fill:#1d1d1b;fill-opacity:1;fill-rule:nonzero;stroke:none"
             d="m 0,0 -106.788,0 c -6.318,0 -11.487,5.169 -11.487,11.487 l 0,106.45 c 0,6.317 5.169,11.486 11.487,11.486 l 106.788,0 c 6.318,0 11.487,-5.169 11.487,-11.486 l 0,-106.45 C 11.487,5.169 6.318,0 0,0" /></g><path
           id="path28"
           style="fill:#1d1d1b;fill-opacity:1;fill-rule:nonzero;stroke:none"
           d="m 58.967,0.052 -17.572,0 0,22.926 17.572,0 0,-22.926 z" /><g
           transform="translate(19.52,157.6057)"
           id="g30"><path
             id="path32"
             style="fill:none;stroke:#9c9b9b;stroke-width:1.72300005;stroke-linecap:butt;stroke-linejoin:miter;stroke-miterlimit:10;stroke-dasharray:none;stroke-opacity:1"
             d="M 0,0 98.557,0" /></g><g
           transform="translate(19.52,136.4283)"
           id="g34"><path
             id="path36"
             style="fill:none;stroke:#9c9b9b;stroke-width:1.72300005;stroke-linecap:butt;stroke-linejoin:miter;stroke-miterlimit:10;stroke-dasharray:none;stroke-opacity:1"
             d="M 0,0 98.557,0" /></g></g></g><g
       id="g38"><g
         id="g40"><g
           id="g46"><g
             id="g48"><path
               id="path60"
               style="fill:url(#linearGradient50);stroke:none"
               d="m 59.126,127.98 c -0.38,-0.507 -0.182,-1.66 -0.182,-1.66 l 0,0 0.901,-4.382 5.989,0 c 0.123,0 0.19,-0.099 0.149,-0.223 l 0,0 -0.114,-0.535 c -0.041,-0.123 -0.174,-0.223 -0.298,-0.223 l 0,0 -5.503,0 4.682,-22.345 5.254,25.622 -6.294,0 c -0.164,0 -0.331,0.134 -0.372,0.298 l 0,0 -0.098,0.666 c -0.041,0.165 0.06,0.298 0.224,0.298 l 0,0 6.837,0 0.559,2.909 -10.725,0 c 0,0 -0.037,0.005 -0.1,0.005 l 0,0 c -0.193,0 -0.622,-0.047 -0.909,-0.43 m 13.863,-0.004 c -0.602,-0.507 -0.913,-1.661 -0.913,-1.661 l 0,0 -1.068,-4.379 5.368,0 c 0.122,0 0.145,-0.1 0.049,-0.224 l 0,0 -0.308,-0.534 c -0.096,-0.124 -0.272,-0.223 -0.396,-0.223 l 0,0 -4.884,0 -5.9,-22.323 16.043,25.598 -5.672,0 c -0.162,0 -0.27,0.134 -0.238,0.298 l 0,0 0.166,0.666 c 0.03,0.164 0.188,0.298 0.352,0.298 l 0,0 6.213,0 1.867,2.908 -9.489,0 c 0,0 -0.035,0.005 -0.097,0.005 l 0,0 c -0.192,0 -0.639,-0.047 -1.093,-0.429 m -29.472,0.424 -9.801,0 3.104,-3.029 6.171,0 2.713,-3.326 c 0.4,-0.478 0.348,-0.865 -0.116,-0.865 l 0,0 -0.61,0 -3.055,3.054 -3.966,0 26.35,-25.619 -32.668,29.785 -8.91,0 c 0,0 -1.32,-0.383 -1.32,-1.439 l 0,0 c 0,-1.057 0.726,-1.569 0.726,-1.569 l 0,0 L 64.307,98.615 47.38,125.09 c 0,0 -0.612,1.209 -1.714,2.324 l 0,0 c -0.893,0.905 -1.752,0.991 -2.044,0.991 l 0,0 c -0.068,0 -0.105,-0.005 -0.105,-0.005 m -14.685,-3.84 c -0.566,0.477 -0.641,0.864 -0.171,0.864 l 0,0 2.116,0 4.291,-3.677 c 0.567,-0.478 0.345,-0.865 -0.125,-0.865 l 0,0 -1.225,0 -4.886,3.678 z m 74.73,3.845 -4.296,-3.659 c -0.664,-0.478 -1.28,-0.451 -1.692,-0.451 l 0,0 c -0.411,0 -1.014,0.441 -0.491,0.856 l 0,0 3.33,3.215 -3.339,0.039 -5.412,-5.214 c -0.518,-0.494 -1.474,-1.913 -0.596,-1.886 l 0,0 1.36,0 -26.631,-22.69 30.702,22.69 1.669,0 c 0.472,0 1.169,0.444 1.842,0.921 l 0,0 7.493,6.179 -3.939,0 z m -18.106,0 -20.256,-29.79 22.788,22.342 -3.5,0 c -0.124,0 -0.19,0.1 -0.149,0.223 l 0,0 0.113,0.535 c 0.042,0.124 0.174,0.223 0.298,0.223 l 0,0 4.114,0 2.77,2.594 -4.167,0 c -0.124,0 -0.191,0.1 -0.149,0.223 l 0,0 0.201,0.517 c 0.041,0.124 0.174,0.224 0.298,0.224 l 0,0 4.781,0 2.987,2.909 -10.129,0 z m -32.667,-0.005 1.229,-3.151 c 0.182,-0.414 -0.004,-0.751 -0.413,-0.751 l 0,0 c -0.41,0 -0.89,0.337 -1.072,0.751 l 0,0 -1.527,3.151 -4.222,0 3.693,-6.299 c 0.282,-0.477 0.485,-0.905 1.381,-0.921 l 0,0 1.069,0 11.677,-22.565 -7.616,22.565 0.76,0 c 0.737,0.016 0.969,0.312 0.857,0.808 l 0,0 -1.723,6.412 -4.093,0 z" /></g></g></g></g><g
       id="g62"><g
         clip-path="url(#clipPath66)"
         id="g64"><g
           transform="translate(111.8136,126.0214)"
           id="g70"><path
             id="path72"
             style="fill:#e6680b;fill-opacity:1;fill-rule:nonzero;stroke:none"
             d="m 0,0 -4.585,0 c 0,0 2.681,2.342 2.905,2.565 0.219,0.219 0.734,0.421 0.961,0.421 l 2.472,0.009 c 0,0 0.767,0.137 0.964,0.419 0.195,0.28 -0.355,0.438 -0.355,0.438 l -2.98,-0.006 c -0.13,0 0.614,0.463 0.715,0.564 0.098,0.099 0.223,0.182 0.38,0.252 0.155,0.07 0.297,0.104 0.429,0.104 l 3.488,0 c 0.226,0 0.517,-0.067 0.55,-0.195 0.032,-0.129 0.098,-0.28 -0.078,-0.456 0,0 -0.293,-0.387 -0.833,-0.944 C 3.494,2.616 2.592,2.432 2.301,2.303 2.009,2.173 0.998,2.148 0.772,2.148 l -1.259,-0.073 -1.007,-0.909 2.242,0 C 0.871,1.166 0.943,1.13 0.962,1.061 0.982,0.992 0.943,0.907 0.844,0.81 0.745,0.709 0.122,0 0,0" /></g></g></g></g></svg>