<svg xmlns="http://www.w3.org/2000/svg" viewBox="0 0 175.727 297.71"><path fill="#c9c9c9" d="M77.122 292.686h12.415v4.855H77.122z"/><path d="M77.648 297.7c.11 0 .2-.17.2-.38v-4.634h11.275v4.63c0 .212.09.384.202.384h45.997s14.484.736 27.445-10.734c12.961-11.471 12.961-29.865 12.961-29.865V16.189H0v273.886a7.624 7.624 0 0 0 7.624 7.625h70.024z" fill="#d6d6d6"/><path d="M36.68 2.741a4.108 4.108 0 0 0-7.746 0h7.746z" fill="#bdbec0"/><path fill="#aeadab" d="M162.958 1.488H12.77L.763 13.605v3.728h174.203v-3.728z"/><path d="M12.77 1.371H7.624A7.624 7.624 0 0 0 0 8.995v5.527h12.77V1.371zM168.104 1.371h-5.146v13.151h12.77V8.995a7.625 7.625 0 0 0-7.624-7.624z" fill="#d9d9d9"/><linearGradient id="a" gradientUnits="userSpaceOnUse" x1="-263.271" y1="113.218" x2="-261.129" y2="116.927" gradientTransform="translate(404.8 159.02)"><stop offset="0" stop-color="#c9c9c9"/><stop offset="1" stop-color="#a8a8a8"/></linearGradient><path d="M164.49 259.179l-45.866 26.215 45.866-26.215z" fill="url(#a)"/><path d="M162.767 286.966c12.961-11.471 12.961-29.865 12.961-29.865v-4.262L97.289 297.7h38.032s14.485.736 27.446-10.734z" fill="#c6c6c6"/><path fill="#39509c" d="M71.928 254.167zM67.921 256.202zM63.82 258.29v-.002zM59.814 260.325z"/><path d="M35.425 174.898c15.438 0 27.955 12.517 27.955 27.954 0 15.439-12.517 27.954-27.955 27.954-15.438 0-27.954-12.515-27.954-27.954 0-15.438 12.515-27.954 27.954-27.954z" fill="#c9c9c9"/><g fill="#d9d9d9"><path d="M9.485 203.011l2.707 1.72v-3.378zM61.366 203.011l-2.708 1.72v-3.378zM35.394 229.364l1.72-2.708h-3.377zM35.394 176.34l1.72 2.708h-3.377z"/></g><path d="M55.382 194.72H43.747v-12.396a2.1 2.1 0 0 0-2.1-2.101H29.965a2.1 2.1 0 0 0-2.1 2.101v12.396H15.469a2.1 2.1 0 0 0-2.101 2.101v11.683c0 1.158.94 2.1 2.101 2.1h12.397v12.778c0 1.16.94 2.1 2.1 2.1h11.682a2.1 2.1 0 0 0 2.1-2.1v-12.778h11.635a2.102 2.102 0 0 0 2.101-2.1V196.82a2.104 2.104 0 0 0-2.102-2.1z" fill="#3d3d3d"/><linearGradient id="b" gradientUnits="userSpaceOnUse" x1="-352.058" y1="-151.122" x2="-285.4" y2="-8.174" gradientTransform="translate(404.8 159.02)"><stop offset="0" stop-color="#7c7f81"/><stop offset=".015" stop-color="#7c7e81"/><stop offset=".625" stop-color="#676b7c"/><stop offset="1" stop-color="#60657a"/></linearGradient><path d="M154.89 132.898c6.379-6.379 6.988-14.559 6.988-17.662V29.849a5.337 5.337 0 0 0-5.337-5.337H18.297a5.337 5.337 0 0 0-5.336 5.337v104.827a5.337 5.337 0 0 0 5.336 5.337h118.931c1.572 0 11.284-.736 17.662-7.115z" fill="url(#b)"/><path fill="#c2aa33" d="M39.263 37.727h95.678v88.817H39.263z"/><linearGradient id="c" gradientUnits="userSpaceOnUse" x1="-382.44" y1="-91.585" x2="-380.399" y2="-87.209" gradientTransform="translate(404.8 159.02)"><stop offset="0" stop-color="#ef4237"/><stop offset="1" stop-color="#cd3634"/></linearGradient><path d="M23.38 67.208a2.414 2.414 0 1 1 0 4.827 2.414 2.414 0 0 1 0-4.827z" fill="url(#c)"/><path d="M156.541 25.465H18.297a4.39 4.39 0 0 0-4.384 4.384v104.827a4.389 4.389 0 0 0 4.384 4.384h118.931c.103 0 10.386-.234 16.988-6.837 6.056-6.056 6.709-13.897 6.709-16.987V29.849a4.389 4.389 0 0 0-4.384-4.384z" fill="none"/><path d="M88.358 290.585c-.012-.049-.024-.098-.033-.16l-.206.041a.48.48 0 0 0 .239.119z" fill="#c7c7c7"/><g fill="#aaabaf"><path d="M123.506 292.745a1.523 1.523 0 0 1-1.342-.801l-12.706-23.508a1.525 1.525 0 0 1 2.682-1.451l12.706 23.508a1.525 1.525 0 0 1-1.34 2.252zM132.147 287.788a1.522 1.522 0 0 1-1.342-.799l-12.706-23.508a1.525 1.525 0 0 1 2.682-1.451l12.706 23.508a1.525 1.525 0 0 1-1.34 2.25zM140.787 282.833a1.524 1.524 0 0 1-1.342-.801l-12.706-23.506c-.4-.74-.125-1.666.616-2.068.74-.4 1.665-.123 2.066.617l12.706 23.506c.4.742.125 1.668-.616 2.066-.23.127-.479.186-.724.186zM149.428 277.876a1.521 1.521 0 0 1-1.342-.799l-12.706-23.506a1.526 1.526 0 0 1 2.683-1.451l12.706 23.506a1.524 1.524 0 0 1-1.341 2.25zM158.068 272.921a1.521 1.521 0 0 1-1.342-.799l-12.706-23.506a1.526 1.526 0 0 1 2.682-1.453l12.707 23.508a1.523 1.523 0 0 1-1.341 2.25zM166.708 267.966a1.522 1.522 0 0 1-1.342-.799l-12.707-23.508c-.4-.74-.124-1.666.616-2.067a1.526 1.526 0 0 1 2.066.616l12.706 23.507a1.525 1.525 0 0 1-1.339 2.251z"/></g><g fill="#34308e"><path d="M61.55 153.103l-.454 3.186c-.96.517-1.915.775-2.863.775-1.139 0-2.044-.373-2.718-1.12-.673-.747-1.009-1.673-1.009-2.777 0-1.405.528-2.623 1.584-3.653 1.056-1.03 2.555-1.546 4.497-1.546.381 0 .893.039 1.536.115l-.146 1.066c-.698-.076-1.223-.115-1.574-.115-1.452 0-2.588.41-3.409 1.229-.821.819-1.231 1.774-1.231 2.866 0 .847.239 1.536.717 2.069s1.094.8 1.847.8c.563 0 1.13-.142 1.701-.425l.209-1.537h-1.263l.133-.933h2.443zM66.485 148.031l1.719 8.918h-1.093l-.523-2.78h-2.789l-1.17 2.78h-1.186l3.925-8.918h1.117zm-2.29 5.198h2.216l-.686-3.638-1.53 3.638zM78.335 148.082v8.867h-1.174l-.006-6.754-3.577 6.754-1.564-6.785-2.182 6.785h-1.17l2.924-8.867h1.016l1.385 6.007 3.182-6.007h1.166zM85.717 148.082l-.146 1.053h-3.55l-.386 2.781h3.129l-.14 1.053H81.47l-.42 2.927h4.666l-.159 1.054h-5.821l1.289-8.867h4.692zM91.221 148.082h1.301c.91 0 1.606.2 2.088.602.482.402.724.952.724 1.649 0 .77-.408 1.354-1.225 1.751 1.223.423 1.834 1.217 1.834 2.382 0 .736-.296 1.335-.889 1.794-.592.46-1.363.689-2.311.689h-2.755l1.233-8.867zm.532 4.538l-.467 3.339h1.341c.682 0 1.205-.133 1.57-.4.364-.266.546-.646.546-1.143 0-.503-.209-.929-.628-1.275s-.918-.521-1.499-.521h-.863zm.493-3.522l-.354 2.532h.637c.488 0 .878-.122 1.169-.365s.437-.563.437-.962c0-.816-.506-1.225-1.52-1.225a3.47 3.47 0 0 0-.369.02zM101.072 147.967c.935 0 1.691.342 2.27 1.025.577.684.866 1.582.866 2.695 0 1.54-.421 2.821-1.263 3.843-.842 1.022-1.847 1.533-3.015 1.533-.922 0-1.68-.349-2.272-1.048-.592-.697-.889-1.595-.889-2.691 0-1.366.403-2.601 1.209-3.703.806-1.102 1.837-1.654 3.094-1.654zm-1.117 8.03c.821 0 1.535-.441 2.143-1.323.607-.883.911-1.948.911-3.196 0-.762-.176-1.359-.527-1.793s-.825-.651-1.422-.651c-.914 0-1.658.456-2.231 1.368-.573.912-.86 1.941-.86 3.089 0 .773.18 1.386.54 1.834s.841.672 1.446.672zM110.708 148.082l-3.113 4.455-.621 4.412h-1.167l.622-4.418-2.082-4.449h1.24l1.505 3.245 2.267-3.245h1.349zM112.397 154.219v.5h-.988v2.229h-.68v-2.229h-.988v-.5h2.656zM114.279 155.23l.877-1.012h.591v2.729h-.68v-1.703l-.737.855h-.102l-.737-.855v1.703h-.68v-2.729h.59l.878 1.012z"/></g><g fill="#34308e"><path d="M12.326 150.943h1.783l2.465 4.105-.001-4.105h1.767v5.887h-1.765l-2.477-4.105v4.105h-1.771l-.001-5.887zM27.949 151.548h1.721v.792h.931v.582h-.931l.002 3.906h-1.723l.001-3.906h-.934v-.58l.934-.002-.001-.792zM19.324 152.915h1.72v3.915h-1.72v-3.915zM19.319 150.941h1.724v1.204h-1.724v-1.204zM49.453 152.649c-1.388 0-2.513.982-2.513 2.197 0 1.213 1.125 2.197 2.513 2.197 1.389 0 2.512-.984 2.512-2.197 0-1.215-1.123-2.197-2.512-2.197m.691 2.191l-.002.829c0 .624-.357.881-.703.881-.345 0-.705-.257-.705-.881l.001-.845.001-.815c0-.622.362-.877.703-.877.343 0 .703.255.703.877 0 .237-.001.676.002.832v-.001zM44.696 154.852v-.7c0-.606-.406-.759-.673-.759-.274 0-.674.153-.674.759v1.394c0 .607.4.763.674.763.267 0 .673-.156.673-.763v-.694zm-.012-3.909h1.696v5.886h-1.699l-.001-.225c-.658.424-1.4.424-1.98.148a2.092 2.092 0 0 1-1.175-1.942c0-1.033.946-2.161 2.185-2.049.408.037.698.19.974.351v-2.169zM25.068 152.734c.644-.019 1.946.414 1.938 1.963-.002.277-.001 2.131-.001 2.131h-1.707v-2.571c0-.342-.317-.72-.786-.72-.468 0-.816.379-.816.72l.002 2.571h-1.706l-.002-3.914 1.708-.002s-.002.315 0 .412a2.045 2.045 0 0 1 1.37-.59M39.04 152.734c.643-.019 1.947.414 1.938 1.963-.002.277 0 2.131 0 2.131h-1.709v-2.571c0-.342-.317-.72-.786-.72-.468 0-.815.379-.815.72l.002 2.571h-1.706v-3.914l1.706-.002s-.002.315 0 .412a2.043 2.043 0 0 1 1.37-.59M33.631 155.459l.001.238c0 .716-.457.875-.711.875-.253 0-.72-.16-.72-.875l.002-.808s3.239.002 3.239-.002c0-1.213-1.138-2.218-2.536-2.218-1.398 0-2.531.982-2.531 2.197s1.133 2.197 2.531 2.197c1.16 0 2.141-.681 2.439-1.606l-1.714.002zm-1.428-1.181c-.004-.342.004-.571.113-.767a.699.699 0 0 1 .605-.358c.223.002.47.116.603.358.109.196.116.425.113.767h-1.434z"/></g><path d="M19.732 32.491h38.592" fill="none" stroke="#04004d" stroke-miterlimit="10"/><path d="M19.732 29.145h38.592" fill="none" stroke="#760d50" stroke-miterlimit="10"/><path d="M137.962 32.491h16.284" fill="none" stroke="#04004d" stroke-miterlimit="10"/><path d="M137.962 29.145h16.284" fill="none" stroke="#760d50" stroke-miterlimit="10"/><g fill="#eeeeec"><path d="M62.41 32.478v-3.122h1.043c.236 0 .415.016.539.045.173.042.321.116.444.223.16.14.279.317.358.534.08.216.12.464.12.742 0 .237-.027.447-.081.63a1.55 1.55 0 0 1-.207.456c-.084.12-.176.214-.276.283-.1.07-.22.12-.361.156a2 2 0 0 1-.486.053H62.41zm.401-.368h.646c.2 0 .357-.02.47-.058a.682.682 0 0 0 .272-.162.983.983 0 0 0 .221-.395 1.98 1.98 0 0 0 .08-.601c0-.326-.052-.578-.156-.753a.795.795 0 0 0-.379-.352c-.107-.043-.28-.064-.518-.064h-.636v2.385zM65.345 30.958c0-.518.135-.924.405-1.217.27-.293.618-.44 1.044-.44.28 0 .532.07.756.207.224.138.395.33.513.576.118.246.176.526.176.837 0 .317-.062.6-.186.85s-.3.44-.527.568-.472.193-.735.193a1.366 1.366 0 0 1-1.274-.794 1.815 1.815 0 0 1-.172-.78zm.412.006c0 .376.099.672.295.889a.955.955 0 0 0 .738.325c.302 0 .55-.11.745-.328s.292-.53.292-.93c0-.255-.041-.477-.125-.666a.967.967 0 0 0-.905-.597c-.283 0-.528.1-.731.302-.206.2-.309.536-.309 1.005zM69.523 32.478v-2.753h-.998v-.369h2.399v.369h-1.001v2.753h-.4zM72.498 32.478v-3.122h.603l.717 2.21c.066.206.114.36.145.462.034-.113.087-.28.161-.5l.725-2.173h.538v3.122h-.386v-2.613l-.879 2.613h-.361l-.876-2.658v2.658l-.387.001zM75.704 32.478l1.162-3.122h.432l1.238 3.122h-.456l-.353-.945h-1.265l-.333.945h-.425zm.874-1.281h1.026l-.316-.865a8.53 8.53 0 0 1-.215-.647c-.038.2-.092.4-.163.597l-.332.915zM79.631 32.478v-2.753h-.997v-.369h2.398v.369h-1v2.753h-.4zM81.452 32.478v-3.122h1.342c.27 0 .475.029.615.085.141.056.253.155.337.296a.91.91 0 0 1 .126.47c0 .222-.07.409-.209.56-.138.152-.353.249-.643.29.106.052.186.104.24.155.118.11.228.249.334.415l.526.85h-.504l-.4-.649c-.118-.188-.214-.33-.29-.43s-.144-.169-.204-.209a.615.615 0 0 0-.183-.083 1.142 1.142 0 0 0-.223-.015h-.464v1.386l-.4.001zm.4-1.743h.861c.183 0 .326-.02.43-.06a.453.453 0 0 0 .235-.187.515.515 0 0 0 .08-.28.475.475 0 0 0-.155-.365c-.104-.096-.268-.142-.492-.142h-.958v1.034zM84.57 32.478v-3.122h.4v3.122h-.4zM85.366 32.478l1.17-1.627-1.031-1.495h.476l.55.8c.114.167.195.294.243.384.067-.114.148-.233.24-.356l.609-.829h.435l-1.063 1.472 1.146 1.65h-.496l-.762-1.114a5.805 5.805 0 0 1-.132-.208 5.189 5.189 0 0 1-.144.235l-.76 1.087-.481.001zM90.2 32.478l-.804-3.122h.41l.462 2.047c.049.214.092.427.128.639.076-.334.122-.527.135-.577l.577-2.109h.483l.433 1.58c.109.393.187.761.236 1.106.038-.197.088-.424.15-.68l.475-2.006h.403l-.83 3.122h-.387l-.638-2.378c-.054-.2-.085-.321-.094-.367a7.911 7.911 0 0 1-.089.367l-.642 2.378H90.2zM93.728 32.478v-3.122h.4v3.122h-.4zM95.602 32.478v-2.753h-.997v-.369h2.399v.369h-1.002v2.753h-.4zM97.429 32.478v-3.122h.4v1.282h1.574v-1.282h.401v3.122h-.4v-1.471H97.83v1.471h-.401zM101.508 31.476l.379-.035c.017.157.059.285.125.384.065.1.166.181.304.243.138.062.292.092.465.092.152 0 .287-.023.404-.07a.556.556 0 0 0 .261-.193.455.455 0 0 0 .003-.524.61.61 0 0 0-.273-.184 5.27 5.27 0 0 0-.538-.152c-.278-.069-.473-.134-.584-.195a.826.826 0 0 1-.323-.29.728.728 0 0 1-.106-.39.812.812 0 0 1 .51-.753 1.4 1.4 0 0 1 .555-.106c.225 0 .422.037.594.111a.86.86 0 0 1 .396.33.964.964 0 0 1 .148.49l-.384.03c-.02-.197-.09-.346-.21-.447-.119-.1-.294-.15-.527-.15-.242 0-.419.045-.53.136a.415.415 0 0 0-.166.331c0 .112.039.204.118.278.077.072.278.146.603.222.326.076.549.142.67.199a.92.92 0 0 1 .39.318.796.796 0 0 1 .126.444.87.87 0 0 1-.138.469.921.921 0 0 1-.398.343 1.353 1.353 0 0 1-.583.123c-.273 0-.503-.042-.688-.124a.97.97 0 0 1-.435-.372 1.06 1.06 0 0 1-.168-.558zM105.24 32.478v-2.753h-.998v-.369h2.398v.369h-1v2.753h-.4zM107.062 32.478v-3.122h2.188v.369h-1.788v.956h1.674v.366h-1.674v1.063h1.858v.368h-2.258zM109.884 32.478v-3.122h1.342c.27 0 .475.029.615.085.141.056.253.155.337.296a.91.91 0 0 1 .126.47c0 .222-.07.409-.209.56-.138.152-.353.249-.643.29.106.052.186.104.24.155.118.11.228.249.334.415l.526.85h-.504l-.4-.649a5.88 5.88 0 0 0-.29-.43.911.911 0 0 0-.204-.209.615.615 0 0 0-.183-.083 1.142 1.142 0 0 0-.223-.015h-.464v1.386l-.4.001zm.4-1.743h.861c.183 0 .326-.02.43-.06a.453.453 0 0 0 .235-.187.515.515 0 0 0 .08-.28.475.475 0 0 0-.155-.365c-.104-.096-.268-.142-.492-.142h-.958v1.034zM112.942 32.478v-3.122h2.188v.369h-1.788v.956h1.674v.366h-1.674v1.063h1.858v.368h-2.258zM115.636 30.958c0-.518.135-.924.405-1.217.27-.293.618-.44 1.045-.44.28 0 .531.07.755.207.224.138.396.33.513.576.117.246.176.526.176.837 0 .317-.062.6-.186.85s-.3.44-.527.568a1.473 1.473 0 0 1-.734.193c-.285 0-.54-.071-.764-.213a1.364 1.364 0 0 1-.51-.581 1.83 1.83 0 0 1-.173-.78zm.413.006c0 .376.098.672.294.889a.955.955 0 0 0 .739.325c.301 0 .55-.11.744-.328.195-.219.293-.53.293-.93 0-.255-.042-.477-.125-.666a.967.967 0 0 0-.905-.597c-.284 0-.528.1-.732.302-.206.2-.308.536-.308 1.005zM120.081 31.476l.378-.035c.018.157.06.285.125.384.065.1.167.181.305.243.137.062.292.092.464.092.153 0 .288-.023.405-.07a.556.556 0 0 0 .26-.193.455.455 0 0 0 .004-.524.61.61 0 0 0-.273-.184 5.27 5.27 0 0 0-.539-.152c-.277-.069-.472-.134-.583-.195a.826.826 0 0 1-.323-.29.728.728 0 0 1-.107-.39.812.812 0 0 1 .51-.753 1.4 1.4 0 0 1 .556-.106c.224 0 .422.037.593.111a.86.86 0 0 1 .396.33.964.964 0 0 1 .149.49l-.384.03c-.02-.197-.09-.346-.21-.447-.119-.1-.294-.15-.528-.15-.242 0-.418.045-.53.136a.415.415 0 0 0-.166.331c0 .112.04.204.118.278.077.072.28.146.604.222.326.076.548.142.67.199a.92.92 0 0 1 .39.318.796.796 0 0 1 .126.444.87.87 0 0 1-.138.469.921.921 0 0 1-.398.343 1.353 1.353 0 0 1-.583.123c-.274 0-.503-.042-.688-.124a.97.97 0 0 1-.436-.372 1.06 1.06 0 0 1-.167-.558zM122.92 30.958c0-.518.135-.924.405-1.217.27-.293.618-.44 1.044-.44.28 0 .532.07.756.207.224.138.395.33.513.576.118.246.176.526.176.837 0 .317-.062.6-.186.85s-.3.44-.527.568a1.473 1.473 0 0 1-.735.193c-.284 0-.54-.071-.764-.213a1.364 1.364 0 0 1-.51-.581 1.83 1.83 0 0 1-.172-.78zm.412.006c0 .376.099.672.295.889a.955.955 0 0 0 .738.325c.302 0 .55-.11.745-.328s.292-.53.292-.93c0-.255-.041-.477-.125-.666a.967.967 0 0 0-.905-.597c-.283 0-.528.1-.731.302-.206.2-.309.536-.309 1.005zM128.315 29.356h.4v1.804c0 .314-.034.563-.103.748s-.193.335-.372.45c-.18.115-.416.173-.707.173-.284 0-.515-.05-.696-.151a.852.852 0 0 1-.386-.438c-.077-.19-.115-.452-.115-.783v-1.804h.4v1.802c0 .271.025.471.073.6.05.128.133.227.252.296s.265.104.437.104c.294 0 .504-.069.629-.206.125-.138.188-.402.188-.794v-1.8zM129.38 32.478v-3.122h.41l1.59 2.451v-2.45h.383v3.121h-.41l-1.589-2.452v2.452h-.385zM132.44 32.478v-3.122h1.042c.236 0 .415.016.539.045.173.042.32.116.444.223.16.14.279.317.358.534.08.216.12.464.12.742 0 .237-.027.447-.081.63-.054.184-.122.336-.207.456s-.176.214-.276.283c-.1.07-.22.12-.361.156a2 2 0 0 1-.486.053h-1.092zm.4-.368h.645c.2 0 .357-.02.47-.058a.682.682 0 0 0 .272-.162.983.983 0 0 0 .221-.395 1.98 1.98 0 0 0 .08-.601c0-.326-.052-.578-.156-.753a.795.795 0 0 0-.379-.352c-.107-.043-.28-.064-.518-.064h-.636v2.385z"/></g><g fill="#eeeeec"><path d="M17.517 79.874v-2.79h.992c.201 0 .364.027.485.084a.64.64 0 0 1 .287.26c.07.118.105.241.105.368a.66.66 0 0 1-.092.337.666.666 0 0 1-.277.255c.16.05.283.134.369.253.085.12.128.26.128.422 0 .13-.026.252-.079.365s-.117.2-.193.26a.79.79 0 0 1-.29.138c-.115.03-.257.046-.426.046h-1.01zm.35-1.618h.57c.155 0 .267-.01.334-.032.09-.028.156-.074.202-.139s.067-.146.067-.243a.469.469 0 0 0-.063-.245.323.323 0 0 0-.18-.145 1.44 1.44 0 0 0-.402-.039h-.529v.843zm0 1.288h.657c.113 0 .193-.004.239-.013a.557.557 0 0 0 .201-.076c.055-.036.098-.088.134-.155s.052-.146.052-.236a.483.483 0 0 0-.076-.271.399.399 0 0 0-.21-.161 1.245 1.245 0 0 0-.386-.047h-.612v.96zM19.784 79.874l1.015-2.79h.376l1.083 2.79h-.398l-.309-.846h-1.105l-.29.846h-.372zm.763-1.147h.896l-.275-.772a8.102 8.102 0 0 1-.188-.579c-.034.179-.08.357-.142.533l-.291.818zM23.29 79.874v-2.46h-.87v-.33h2.095v.33h-.874v2.46h-.35zM25.662 79.874v-2.46h-.87v-.33h2.095v.33h-.874v2.46h-.35zM27.14 79.874v-2.79h1.911v.328H27.49v.855h1.462v.328H27.49v.95h1.622v.328H27.14zM29.451 79.874v-2.79h1.172c.236 0 .415.024.537.074.123.05.221.14.294.265a.83.83 0 0 1 .11.42c0 .199-.06.365-.182.501s-.308.222-.562.259a.946.946 0 0 1 .21.139c.103.098.2.223.29.37l.46.76h-.44l-.35-.58a5.198 5.198 0 0 0-.251-.385.857.857 0 0 0-.177-.187.487.487 0 0 0-.16-.074.966.966 0 0 0-.195-.013h-.405v1.239h-.35zm.35-1.56h.752c.16 0 .285-.017.375-.052a.4.4 0 0 0 .205-.168.474.474 0 0 0 .07-.25.429.429 0 0 0-.136-.326c-.09-.085-.235-.127-.43-.127H29.8v.923zM32.667 79.874v-1.182l-1.02-1.608h.426l.52.842c.097.157.187.314.27.471.08-.145.175-.31.288-.493l.512-.82h.407l-1.055 1.608v1.182h-.348z"/></g><g fill="#34308e"><path d="M58.232 257.205c.137-.072.289-.049.343.054.05.096-.012.242-.149.314l-2.258 1.196c-.185.098-.274.28-.204.414l.202.382c.069.131.274.163.459.065l1.694-.897c.445-.235.953-.156 1.133.183l.2.378c.178.336-.042.8-.487 1.036l-2.268 1.2c-.137.072-.284.047-.339-.056-.052-.099.009-.236.146-.309l2.267-1.2c.175-.093.264-.28.193-.414l-.2-.378c-.071-.135-.276-.166-.451-.073l-1.694.897c-.45.237-.958.159-1.136-.177l-.202-.382c-.178-.336.043-.801.492-1.039l2.259-1.194zM63.834 257.392c.128-.067.291-.044.342.05.055.104-.021.247-.149.314l-2.154 1.141c-.449.237-.958.159-1.136-.177l-.853-1.611c-.178-.336.042-.801.492-1.038l2.154-1.141c.133-.07.284-.047.339.056.05.096-.012.242-.145.313l-2.154 1.141c-.175.093-.264.279-.194.409l.316.598 2.419-1.28c.137-.073.286-.044.337.053.052.098-.007.238-.144.312l-2.419 1.28.344.649c.069.131.276.166.451.073l2.154-1.142zM63.92 254.429c-.054-.103.007-.239.144-.312.133-.07.289-.049.344.054l1.077 2.035c.069.131.276.165.456.07l2.22-1.176c.132-.07.291-.044.341.051.055.103-.016.243-.148.313l-2.22 1.176c-.449.238-.958.159-1.136-.177l-1.078-2.034zM72.171 252.978c.127-.067.291-.044.341.051.055.103-.021.246-.148.313l-2.153 1.141c-.45.238-.958.159-1.136-.177l-.853-1.611c-.178-.336.043-.8.492-1.038l2.154-1.141c.132-.07.284-.047.338.057.05.096-.012.242-.144.312l-2.154 1.141c-.175.093-.264.28-.194.409l.316.598 2.418-1.28c.137-.072.287-.044.337.053.052.098-.007.239-.145.312l-2.419 1.281.345.648c.068.131.275.166.45.073l2.155-1.142zM75.126 248.258c.142-.076.289-.05.343.053.051.095-.006.238-.148.314l-2.153 1.14c-.18.096-.269.282-.2.413l.853 1.611c.069.13.275.166.455.07l2.154-1.141c.142-.074.291-.045.341.051.055.103-.006.238-.148.314l-2.153 1.14c-.45.238-.958.159-1.136-.177l-.854-1.611c-.178-.336.043-.8.492-1.038l2.154-1.139zM79.651 245.861c.142-.075.289-.049.343.054.051.095-.006.238-.148.313l-1.302.689 1.204 2.275c.055.103-.011.241-.144.312-.137.072-.289.049-.344-.054l-1.204-2.275-1.306.691c-.137.073-.289.039-.339-.056-.054-.103.007-.238.145-.312l3.095-1.637z"/></g><g fill="#34308e"><path d="M89.196 257.205c.138-.072.289-.049.344.054.05.095-.012.242-.149.314l-2.258 1.195c-.185.098-.274.281-.204.415l.202.382c.069.131.274.162.458.064l1.695-.897c.445-.235.953-.155 1.133.184l.2.378c.178.336-.042.8-.487 1.035l-2.268 1.201c-.137.072-.284.047-.339-.057-.052-.098.009-.235.146-.308l2.268-1.201c.175-.093.264-.279.192-.413l-.2-.378c-.071-.135-.276-.167-.451-.074l-1.695.897c-.45.238-.958.16-1.136-.176l-.202-.383c-.178-.336.043-.8.492-1.038l2.259-1.194zM93.544 254.897c.143-.074.289-.048.344.055.05.095-.007.238-.148.314l-1.302.688 1.204 2.275c.055.103-.012.241-.144.312-.138.072-.289.049-.344-.053l-1.204-2.275-1.307.691c-.138.072-.289.039-.339-.056-.055-.103.007-.24.144-.313l3.096-1.638zM97.299 252.91c.449-.238.958-.158 1.136.178l1.077 2.035c.055.103-.021.246-.148.313-.128.068-.289.049-.344-.053l-.568-1.074-2.414 1.277.568 1.074c.055.103-.016.244-.148.314-.128.067-.284.047-.339-.056l-1.077-2.035c-.178-.336.042-.802.492-1.04l1.765-.933zm-1.453 2.317l2.414-1.278-.317-.6c-.071-.135-.273-.163-.449-.07l-1.766.935c-.18.096-.271.278-.199.413l.317.6zM103.003 250.669l.305.575c.178.336-.04.795-.487 1.036.211.146.583.394.841.56a.128.128 0 0 1 .054.054c.039.074.01.18-.064.256a.31.31 0 0 1-.083.062c-.095.05-.212.059-.287.007l-.977-.664-1.685.892.451.853c.055.103-.021.246-.149.313-.137.073-.289.05-.344-.053l-1.077-2.035c-.178-.336.043-.802.497-1.042l1.87-.99c.45-.24.958-.16 1.135.176zm-.482.256c-.069-.131-.278-.16-.459-.065l-1.869.99c-.18.095-.269.282-.199.413l.434.819 2.196-1.163c.18-.095.273-.284.202-.419l-.305-.575zM107.004 247.772c.142-.075.289-.049.343.054.051.095-.006.239-.148.313l-1.302.689 1.204 2.275c.055.103-.011.241-.144.312-.137.073-.289.05-.344-.053l-1.204-2.275-1.307.691c-.137.072-.288.039-.339-.056-.054-.103.007-.24.145-.313l3.096-1.637z"/></g><path d="M132.44 224.301c.544-.288 1.321-.496 1.64.105l.27.509c.11.208.099.457-.007.689.239.049.462.186.565.38l.233.442c.223.42-.052 1.002-.615 1.3l-2.876 1.523c-.166.087-.366.053-.431-.067l-1.33-2.513c-.236-.446.022-1.03.598-1.335l1.953-1.033zm1.053 1.458c.225-.119.342-.356.252-.523l-.27-.51c-.086-.163-.35-.204-.575-.085l-2.172 1.15c-.231.122-.333.357-.229.556l.412.779 2.582-1.367zm.79 1.508c.226-.119.337-.354.249-.518l-.233-.442c-.089-.168-.346-.208-.571-.089l-2.574 1.363.556 1.049 2.573-1.363zM158.842 210.304c.563-.298 1.198-.198 1.421.221l1.349 2.549c.068.128-.025.308-.186.393-.16.084-.361.061-.43-.067l-.712-1.345-3.019 1.599.711 1.345c.068.129-.02.305-.186.393-.16.085-.356.059-.424-.069l-1.35-2.548c-.222-.42.053-1.002.616-1.3l2.21-1.171zm-1.815 2.898l3.02-1.6-.398-.752c-.089-.168-.344-.203-.563-.087l-2.208 1.169c-.226.119-.338.35-.249.517l.398.753z" fill="#34308e"/><path d="M72.595 245.817l-14.685 7.775a3.108 3.108 0 0 1-4.189-1.289l-.355-.67a3.108 3.108 0 0 1 1.289-4.189l14.685-7.775a3.108 3.108 0 0 1 4.189 1.289l.355.67a3.109 3.109 0 0 1-1.289 4.189zM102.276 245.817l-14.685 7.775a3.108 3.108 0 0 1-4.189-1.289l-.355-.67a3.108 3.108 0 0 1 1.289-4.189l14.685-7.775a3.108 3.108 0 0 1 4.189 1.289l.355.67a3.107 3.107 0 0 1-1.289 4.189z" fill="#939598"/><path d="M157.438 205.204l-28.64 15.164c-6.28 3.325-14.139.907-17.465-5.373l-1.128-2.131c-3.325-6.28-.907-14.139 5.373-17.465l28.64-15.164c6.28-3.325 14.139-.907 17.465 5.373l1.128 2.131c3.326 6.281.908 14.14-5.373 17.465z" fill="#c9c9c9"/><g fill="#9b2063"><path d="M118.429 197.654c-5.263 2.787-7.279 9.335-4.492 14.599 2.787 5.263 9.336 7.277 14.599 4.49s7.278-9.336 4.492-14.599c-2.787-5.263-9.336-7.277-14.599-4.49zM144.481 183.86c-5.262 2.786-7.278 9.334-4.491 14.598 2.787 5.263 9.336 7.277 14.598 4.491 5.264-2.787 7.278-9.336 4.492-14.599-2.787-5.263-9.335-7.277-14.599-4.49z"/></g><path fill="#c9c9c9" d="M16.686 1.488h37.403v10.204H16.686z"/><path d="M22.463 1.57v2.241c0 .11.089.198.198.198h1.597a.2.2 0 0 0 .2-.2V1.568a.198.198 0 0 0-.198-.198h-1.598a.2.2 0 0 0-.199.2zM26.886 1.57v2.238c0 .112.09.202.202.202h1.594c.11 0 .199-.089.199-.199v-2.24a.199.199 0 0 0-.199-.199h-1.597a.197.197 0 0 0-.199.198z" fill="#d9d9d9"/><g fill="#d9d9d9"><path d="M26.853 5.773c.595 0 1.09.198 1.486.594s.594.893.594 1.49-.2 1.091-.599 1.483c-.399.391-.903.587-1.511.587-.581 0-1.064-.196-1.451-.587-.387-.392-.58-.882-.58-1.472 0-.605.195-1.106.584-1.502s.882-.593 1.477-.593zm.022.551c-.441 0-.804.145-1.087.435-.284.29-.426.66-.426 1.11 0 .437.142.8.427 1.09s.641.435 1.069.435c.43 0 .788-.148 1.075-.444.287-.296.431-.664.431-1.105 0-.429-.144-.79-.431-1.083a1.427 1.427 0 0 0-1.058-.438zM29.617 5.831h2.054v.516h-1.503v1.131h1.503v.516h-1.503v1.887h-.551v-4.05zM32.267 5.831h2.054v.516h-1.503v1.131h1.503v.516h-1.503v1.887h-.551v-4.05zM36.484 7.623c0 .339-.26.612-.582.612s-.582-.274-.582-.612.26-.612.582-.612c.333-.001.582.285.582.612zM39.626 5.773c.595 0 1.09.198 1.486.594s.594.893.594 1.49-.2 1.091-.599 1.483c-.399.391-.903.587-1.511.587-.581 0-1.064-.196-1.451-.587-.387-.392-.58-.882-.58-1.472 0-.605.195-1.106.584-1.502s.881-.593 1.477-.593zm.022.551c-.441 0-.804.145-1.087.435-.284.29-.426.66-.426 1.11 0 .437.142.8.427 1.09.285.29.641.435 1.069.435.43 0 .788-.148 1.075-.444.287-.296.431-.664.431-1.105 0-.429-.144-.79-.431-1.083a1.43 1.43 0 0 0-1.058-.438zM45.445 5.831h.524v4.05h-.474l-2.575-3.12v3.12h-.518v-4.05h.447l2.597 3.146V5.831z"/><g><path d="M23.335 5.401V10.3l-3.764-2.45zM47.571 5.401V10.3l3.765-2.45z"/></g></g><path d="M31.286 1.57v2.439h18.962a3.852 3.852 0 0 1 3.841 3.841 3.852 3.852 0 0 1-3.841 3.841h-29.73a3.852 3.852 0 0 1-3.841-3.841 3.856 3.856 0 0 1 3.338-3.808V1.568a.197.197 0 0 0-.197-.197h-4.379v13.151H160.29V1.371H31.486a.2.2 0 0 0-.2.199zM80.277 293.066v4.266c0 .209.089.378.198.378h1.597c.11 0 .2-.17.2-.38v-4.266c0-.208-.089-.376-.198-.376h-1.598c-.109-.002-.199.168-.199.378zM84.7 293.065v4.26c0 .212.09.385.202.385h1.594c.11 0 .199-.17.199-.379v-4.265c0-.209-.089-.379-.199-.379h-1.597c-.11-.001-.199.169-.199.378z" fill="#d9d9d9"/><path d="M89.412 292.686H68.324a3.32 3.32 0 0 1-3.311-3.31v-.408a3.32 3.32 0 0 1 3.311-3.31h21.087a3.32 3.32 0 0 1 3.311 3.31v.408a3.32 3.32 0 0 1-3.31 3.31z" fill="#c9c9c9"/><g fill="#d9d9d9"><path d="M72.532 290.907v-3.313h1.049c.316 0 .567.086.755.256.188.171.282.399.282.688a.922.922 0 0 1-.144.511.828.828 0 0 1-.396.323c-.167.067-.408.101-.72.101h-.351v1.436h-.475zm.965-2.891h-.49v1.035h.519c.192 0 .341-.046.445-.137.104-.091.156-.221.156-.39 0-.338-.21-.508-.63-.508zM77.362 287.599h.474v3.309h-.474v-1.439h-1.859v1.439h-.473v-3.309h.474v1.431h1.859v-1.431zM80.189 287.552c.511 0 .937.162 1.276.485.34.323.51.729.51 1.217 0 .488-.171.892-.515 1.212-.343.319-.776.479-1.298.479-.499 0-.914-.16-1.246-.479a1.6 1.6 0 0 1-.498-1.202c0-.494.167-.903.502-1.227s.758-.485 1.269-.485zm.018.45c-.378 0-.689.118-.933.354-.244.237-.366.539-.366.907 0 .356.122.653.367.891.245.236.551.355.918.355.369 0 .677-.121.924-.362.247-.242.371-.543.371-.902 0-.351-.124-.646-.371-.885a1.258 1.258 0 0 0-.91-.358zM85.186 287.599h.45v3.309h-.407l-2.212-2.548v2.548h-.445v-3.309h.384l2.23 2.57v-2.57zM86.345 287.599h1.875v.422h-1.402v1.009h1.354v.424h-1.354v1.028h1.447v.421h-1.92v-3.304zM89.589 289.522l-.36-.219c-.226-.139-.387-.273-.482-.407a.77.77 0 0 1-.144-.461c0-.26.09-.472.271-.635.181-.162.416-.243.705-.243.276 0 .529.077.76.232v.537c-.238-.229-.495-.344-.77-.344a.638.638 0 0 0-.381.107.325.325 0 0 0-.149.274c0 .1.037.192.11.278.073.087.191.178.354.272l.362.215c.403.24.605.548.605.92 0 .266-.089.48-.266.646-.178.166-.409.249-.693.249-.327 0-.625-.101-.893-.302v-.602c.256.324.552.486.888.486a.558.558 0 0 0 .371-.124.387.387 0 0 0 .148-.311c-.001-.197-.146-.388-.436-.568z"/><g><path d="M69.324 287.187a2.06 2.06 0 0 1 1.949 2.72.135.135 0 0 1-.116.074c-.068 0-.12-.086-.12-.154a1.81 1.81 0 0 0-1.712-2.39 1.81 1.81 0 0 0-1.712 2.39c0 .068-.052.154-.12.154a.135.135 0 0 1-.116-.074 2.057 2.057 0 0 1 1.947-2.72z"/><path d="M68.036 291.157v-1.291a.645.645 0 0 0 0 1.291zM70.613 291.157v-1.291a.645.645 0 0 1 0 1.291z"/></g></g><g><path d="M40.412 223.849h-9.364a1.875 1.875 0 0 1-1.874-1.873v-12.721H16.76a1.877 1.877 0 0 1-1.874-1.874v-9.363c0-1.034.84-1.874 1.874-1.874h12.414V183.73c0-1.034.84-1.875 1.874-1.875h9.364c1.033 0 1.874.841 1.874 1.875v12.414H54.09c1.033 0 1.874.84 1.874 1.874v9.363a1.876 1.876 0 0 1-1.874 1.873H42.286v12.721c0 1.034-.84 1.874-1.874 1.874z" fill="#212121"/><circle cx="35.425" cy="202.852" r="5.458" fill="#191919"/><g fill="#191919"><path d="M44.158 208.31h-.898c-.555 0-1.01-.454-1.01-1.01v-8.897c0-.555.454-1.01 1.01-1.01h.897c.555 0 1.01.454 1.01 1.01v8.897c0 .556-.454 1.01-1.009 1.01zM48.303 208.31h-.897c-.555 0-1.01-.454-1.01-1.01v-8.897c0-.555.454-1.01 1.01-1.01h.897c.555 0 1.01.454 1.01 1.01v8.897c0 .556-.454 1.01-1.01 1.01zM52.449 208.31h-.897c-.555 0-1.01-.454-1.01-1.01v-8.897c0-.555.454-1.01 1.01-1.01h.897c.555 0 1.01.454 1.01 1.01v8.897c0 .556-.454 1.01-1.01 1.01zM40.884 194.12v.897c0 .555-.454 1.01-1.01 1.01h-8.897c-.555 0-1.01-.454-1.01-1.01v-.897c0-.555.454-1.01 1.01-1.01h8.897c.555 0 1.01.454 1.01 1.01zM40.884 189.974v.897c0 .555-.454 1.01-1.01 1.01h-8.897c-.555 0-1.01-.454-1.01-1.01v-.897c0-.555.454-1.01 1.01-1.01h8.897c.555 0 1.01.454 1.01 1.01zM40.884 185.828v.897c0 .555-.454 1.01-1.01 1.01h-8.897c-.555 0-1.01-.454-1.01-1.01v-.897c0-.555.454-1.01 1.01-1.01h8.897c.555 0 1.01.454 1.01 1.01zM29.967 211.584v-.897c0-.555.454-1.01 1.01-1.01h8.897c.555 0 1.01.454 1.01 1.01v.897c0 .555-.454 1.01-1.01 1.01h-8.897c-.556 0-1.01-.454-1.01-1.01zM29.967 215.73v-.897c0-.555.454-1.01 1.01-1.01h8.897c.555 0 1.01.454 1.01 1.01v.897c0 .555-.454 1.01-1.01 1.01h-8.897c-.556 0-1.01-.455-1.01-1.01zM29.967 219.876v-.897c0-.555.454-1.01 1.01-1.01h8.897c.555 0 1.01.454 1.01 1.01v.897c0 .555-.454 1.01-1.01 1.01h-8.897c-.556 0-1.01-.455-1.01-1.01zM26.693 197.394h.897c.555 0 1.01.454 1.01 1.01v8.897c0 .555-.454 1.01-1.01 1.01h-.897c-.555 0-1.01-.454-1.01-1.01v-8.897c0-.556.454-1.01 1.01-1.01zM22.547 197.394h.897c.555 0 1.01.454 1.01 1.01v8.897c0 .555-.454 1.01-1.01 1.01h-.897c-.555 0-1.01-.454-1.01-1.01v-8.897c0-.556.455-1.01 1.01-1.01zM18.401 197.394h.897c.555 0 1.01.454 1.01 1.01v8.897c0 .555-.454 1.01-1.01 1.01h-.897c-.555 0-1.01-.454-1.01-1.01v-8.897c0-.556.455-1.01 1.01-1.01z"/></g></g></svg>