<svg xmlns="http://www.w3.org/2000/svg" viewBox="0 0 471.428 266.667"><path fill="#a3a3a3" d="M1.384 125.042h129.729v25.773H1.384z"/><path d="M114.467 127.085h18.03V123.2c0-.573-.466-1.038-1.038-1.038H120.72v-6.229c0-.573-.465-1.038-1.038-1.038H1.038c-.573 0-1.038.465-1.038 1.038v11.153h17.455a14.694 14.694 0 0 0-2.881 3.261H0v2.175h13.409c-.32.742-.578 1.516-.771 2.316H0v2.111h12.286a14.814 14.814 0 0 0 .011 2.854H0v2.22h12.699c.203.776.472 1.527.794 2.248H0v2.169h14.69a14.731 14.731 0 0 0 2.795 3.106H0v115.747l5.42 1.374h121.656l5.42-1.374V149.546h-18.059a14.731 14.731 0 0 0 2.795-3.106h15.265v-2.169H118.43c.322-.721.591-1.472.793-2.248h13.274v-2.22h-12.872c.05-.493.076-.994.076-1.499 0-.457-.024-.909-.065-1.355h12.861v-2.111h-13.212a14.568 14.568 0 0 0-.772-2.316h13.984v-2.175h-15.149a14.702 14.702 0 0 0-2.881-3.262z" fill="#bcbcbc"/><path d="M28.713 152.256c-7.707 0-13.953-6.247-13.953-13.952 0-7.707 6.247-13.954 13.953-13.954h74.495c7.706 0 13.954 6.247 13.954 13.954 0 7.706-6.247 13.952-13.954 13.952H28.713zM116.958 245.431a2.422 2.422 0 0 1-2.422 2.421H17.038a2.423 2.423 0 0 1-2.422-2.421v-86.025a2.423 2.423 0 0 1 2.422-2.422h97.499a2.422 2.422 0 0 1 2.422 2.422v86.025zM74.666 250.821c1.237 0 1.522 1.188.721 1.989-1.47 1.472-8.85 9.37-8.85 9.37s-.346.389-.75.389c-.431 0-.749-.389-.749-.389s-7.38-7.898-8.851-9.37c-.801-.8-.516-1.989.721-1.989h17.758zM5.42 266.667L0 265.293v-87.869h5.075c.191 0 .346.154.346.345v88.898zM127.077 266.667l5.42-1.374v-87.869h-5.074a.346.346 0 0 0-.346.345v88.898z" fill="#a3a3a3"/><g fill="#bcbcbc"><path d="M102.953 141.371v-2.621h-.979v-.351h2.355v.351h-.984v2.621h-.392zM105.031 141.371v-2.972h.592l.703 2.104c.065.196.112.343.142.44.034-.108.087-.267.159-.476l.711-2.068h.529v2.972h-.379v-2.487l-.864 2.487h-.354l-.86-2.53v2.53h-.379z"/></g><g fill-rule="evenodd" clip-rule="evenodd" fill="#bcbcbc"><path d="M74.858 138.517c.112-.202.229-.401.337-.604.612-1.155 1.24-2.302 1.821-3.472.303-.532.133-.503.752-.446.395.036.387.008.4.411.028.933.068 1.865.101 2.798.015.396.024.793.038 1.19l.104 2.744c.003.074.001.148.001.234h-1.035l-.161-4.862a.876.876 0 0 1-.06-.015l-2.625 4.898-.064-.016-1.228-5.087-.056-.001c-.094.279-.189.558-.281.837-.453 1.375-.903 2.751-1.361 4.124-.018.053-.085.126-.132.127-.327.012-.653.006-1.007.006l.293-.911 1.553-4.795c.165-.511.329-1.023.488-1.535.033-.108.088-.147.201-.142.198.009.398.013.596-.001.147-.01.205.045.238.184.21.897.43 1.794.645 2.691.131.543.259 1.087.388 1.63l.054.013zM86.164 141.353l1.097-7.38c.108-.006.206-.017.302-.017.445-.002.889 0 1.334 0 .763-.001 1.485.535 1.639 1.282.138.667.06 1.314-.396 1.868-.059.07-.111.147-.175.234l.155.12c.508.386.793.888.819 1.536.048 1.235-.811 2.267-2.048 2.353-.878.063-1.765.026-2.646.031-.021 0-.043-.015-.081-.027zm1.933-.969l.002.018c.272-.019.551-.012.818-.061.57-.109 1.013-.662.988-1.197-.027-.601-.488-1.124-1.082-1.192-.316-.037-.64-.022-.959-.039-.122-.006-.165.046-.18.157-.041.313-.09.623-.134.935-.056.392-.105.784-.161 1.177-.02.145.017.218.183.206.174-.014.35-.004.525-.004zm.153-3.481c.653-.001 1.002-.199 1.231-.698.233-.504.029-1.238-.67-1.248-.151-.003-.303 0-.453-.017-.178-.021-.247.051-.268.225-.053.445-.123.887-.186 1.33-.058.408-.057.408.346.408zM97.642 136.697c-.03.895-.286 1.726-.614 2.544-.274.677-.677 1.257-1.26 1.692-.95.707-2.471.769-3.395-.065-.486-.438-.741-.999-.798-1.644-.077-.883.111-1.729.405-2.553.206-.578.425-1.15.806-1.644.506-.659 1.175-1.028 1.995-1.143.572-.08 1.117-.01 1.621.287.614.362.985.904 1.134 1.592.064.305.073.623.106.934zm-1.026-.144c-.027-.187-.041-.416-.097-.635a1.367 1.367 0 0 0-.735-.912c-.71-.358-1.732.008-2.201.643-.351.476-.568 1.016-.733 1.58-.189.643-.32 1.287-.235 1.963.091.723.622 1.281 1.438 1.279.668-.002 1.212-.312 1.59-.853.632-.904.921-1.927.973-3.065zM64.534 135.042c-.698-.17-1.382-.204-2.057-.07-1.064.211-2.011.641-2.563 1.647a3.13 3.13 0 0 0-.253 2.539c.147.466.453.805.887 1.014.675.327 1.361.327 2.045.009.128-.06.214-.141.225-.301.016-.244.052-.487.092-.728.025-.144-.035-.171-.159-.168-.291.005-.583.002-.911.002.035-.27.067-.52.101-.772.033-.246.034-.246.283-.246.58 0 1.158.003 1.738-.001.12-.001.171.029.153.159-.111.768-.215 1.535-.329 2.304a.467.467 0 0 1-.122.237c-.43.449-.984.636-1.581.711-.646.081-1.286.043-1.881-.244-.926-.447-1.493-1.175-1.639-2.205-.104-.74-.064-1.47.175-2.18.298-.888.879-1.553 1.651-2.068a4.694 4.694 0 0 1 2.122-.755 6.325 6.325 0 0 1 1.898.067c.273.051.277.046.239.323-.033.236-.073.471-.114.726zM83.839 141.37h-4.74c.35-2.46.699-4.903 1.047-7.357h3.847c-.05.309-.095.611-.155.91-.005.028-.104.054-.159.054-.777.003-1.555.009-2.333-.001-.189-.003-.264.045-.288.244-.065.562-.156 1.12-.237 1.68-.008.056 0 .114 0 .193h.217c.666 0 1.332.005 1.999-.003.153-.002.195.048.168.194-.052.274-.092.55-.14.843h-.199c-.672 0-1.345.003-2.017-.004-.149-.002-.22.037-.241.196a91.408 91.408 0 0 1-.272 1.869c-.024.155.025.201.183.201 1.087-.007 2.174-.003 3.262-.003h.204l-.146.984zM69.893 141.382c-.338 0-.664.003-.989-.005-.032-.001-.082-.072-.09-.114a83.903 83.903 0 0 1-.294-1.725c-.022-.145-.079-.196-.226-.195-.579.007-1.158.01-1.736-.002-.164-.003-.224.076-.28.202-.253.564-.513 1.125-.762 1.691-.042.097-.093.128-.195.127-.326-.005-.651-.001-.998-.001.193-.43.374-.839.56-1.247.465-1.019.933-2.036 1.397-3.055.445-.976.886-1.955 1.337-2.927.03-.065.134-.127.209-.133.215-.018.432.003.648-.01.135-.007.185.044.206.171.102.622.211 1.243.317 1.865l.725 4.26.164.967c.005.036.004.076.007.131zm-1.974-5.297l-.053-.006-1.017 2.225c.045.023.06.036.075.037l1.262.005c.112 0 .113-.062.097-.154-.078-.453-.15-.909-.227-1.363-.042-.248-.09-.495-.137-.744zM97.589 133.966c.294 0 .551.024.803-.005.312-.036.456.094.591.369.35.718.742 1.415 1.12 2.12.013.024.032.046.067.09.131-.172.255-.33.376-.492.496-.664.991-1.33 1.489-1.992.034-.045.098-.094.15-.096.384-.007.769-.005 1.206-.005-.135.189-.244.35-.361.505-.779 1.028-1.555 2.058-2.341 3.083-.173.227-.156.496-.196.749-.152.979-.291 1.96-.432 2.941-.019.136-.067.2-.223.191-.284-.017-.568-.005-.879-.005l.135-.918c.135-.924.271-1.846.397-2.771a.507.507 0 0 0-.071-.278c-.578-1.099-1.161-2.197-1.742-3.295-.024-.048-.045-.096-.089-.191z"/></g><g fill="#bcbcbc"><path d="M28.528 139.995a.272.272 0 0 1-.081-.094c-.616-.995-1.231-1.991-1.845-2.987-.037-.061-.074-.085-.147-.085-.404.005-.809.002-1.214.002l-.101.005v4.564h1.398v-3.154l.024-.007.061.094c.618.994 1.236 1.989 1.851 2.984.042.068.086.092.165.092.394-.005.789-.003 1.184-.003h.102v-4.567h-1.398l.001 3.156zM51.044 138.52c-.255-.139-.501-.251-.78-.271-.275-.02-.537.02-.786.138-.252.12-.459.292-.627.514-.414.549-.465 1.299-.073 1.845.594.829 1.374.927 2.262.5.004.053.008.103.01.151h1.343v-4.562h-1.349v1.685zm-.001 2.01c-.011.295-.254.493-.545.483a.516.516 0 0 1-.523-.51c-.009-.213-.002-.427-.002-.641h-.001c0-.197-.005-.394.001-.593.009-.322.211-.526.523-.537.305-.009.537.181.549.496.017.434.016.869-.002 1.302zM36.49 138.699c-.568-.584-1.531-.624-2.162-.092l-.101.079v-.308h-1.345v3.024h1.34c.002-.044.006-.085.006-.128 0-.595-.004-1.191 0-1.786 0-.096.015-.201.055-.286.125-.271.464-.414.769-.338.29.07.471.309.471.623v1.912h1.349c.003-.017.006-.026.006-.036 0-.562.007-1.125-.002-1.688-.007-.37-.122-.704-.386-.976zM48.052 139.537a1.251 1.251 0 0 0-.458-.92 1.608 1.608 0 0 0-2.076-.01l-.102.085v-.318h-1.349v3.023h1.35v-.135l-.002-1.807c0-.126.034-.239.109-.341a.691.691 0 0 1 .767-.237c.273.092.42.307.42.621l.001 1.777c0 .041.004.082.007.123h1.338c.004-.02.009-.034.009-.046-.003-.605.008-1.211-.014-1.815zM56.293 138.672c-.79-.687-2.096-.677-2.886.02-.725.64-.737 1.675-.023 2.327a2.11 2.11 0 0 0 1.444.551c.551-.003 1.021-.148 1.425-.474.805-.653.821-1.745.04-2.424zm-.872 1.19h-.01c0 .26.012.52-.003.779-.019.346-.267.567-.593.554-.256-.01-.466-.208-.514-.489a1.343 1.343 0 0 1-.02-.236c-.001-.405-.001-.808.002-1.213.001-.085.007-.172.025-.254.062-.3.295-.491.566-.476.289.016.505.237.537.547.004.046.01.092.01.138v.65zM43.16 138.798a2.098 2.098 0 0 0-1.375-.611c-.621-.044-1.18.116-1.652.532-.315.277-.511.625-.54 1.051-.038.553.184.999.609 1.335.634.501 1.353.602 2.115.372.531-.16.945-.481 1.185-.997.019-.04.03-.082.045-.123h-1.34c-.01.125-.012.243-.029.359-.04.287-.258.491-.525.5-.292.011-.537-.158-.58-.452-.041-.281-.031-.569-.043-.868h2.6c0-.049.003-.085-.001-.12a1.573 1.573 0 0 0-.469-.978zm-1.311.634c-.234 0-.467-.003-.701.002-.089.002-.117-.028-.107-.113.013-.107.007-.218.028-.324a.56.56 0 0 1 1.106.018c.021.132.021.266.032.416l-.358.001zM39.75 137.918h-.737v-.61h-1.375v.611h-.114c-.182.001-.363-.001-.543.004-.029.001-.081.031-.082.05-.007.127-.004.255-.004.393h.749v3.033h1.373v-3.036h.733v-.445zM30.74 141.4h1.357v-3.025H30.74v3.025zM32.097 136.838h-1.363v.911h1.363v-.911z"/></g><g><path d="M470.737 33.267H182.263a.694.694 0 0 1-.692-.692V11.369a4.326 4.326 0 0 1 4.313-4.313h281.232a4.326 4.326 0 0 1 4.313 4.313v21.208a.694.694 0 0 1-.692.69z" fill="#c3bab1"/><path fill="#97907e" d="M183.013 33.267h286.972v.69H183.013z"/><path fill="#b0aa9c" d="M183.013 33.957h286.972v.69H183.013z"/><path d="M470.724 62.012h-288.45a.706.706 0 0 1-.704-.704V35.35c0-.387.317-.704.704-.704h288.449c.387 0 .704.317.704.704v25.957a.705.705 0 0 1-.703.705z" fill="#c3bab1"/><path fill="#97907e" d="M183.013 62.012h286.972v.723H183.013z"/><path fill="#b0aa9c" d="M183.013 62.735h286.972v.723H183.013z"/><path d="M470.672 94.954H182.326a.758.758 0 0 1-.755-.755V64.214c0-.415.34-.755.755-.755h288.347c.415 0 .755.34.755.755v29.985c0 .415-.34.755-.756.755z" fill="#c3bab1"/><path fill="#97907e" d="M183.013 94.954h286.972v.723H183.013z"/><path fill="#b0aa9c" d="M183.013 95.677h286.972v.723H183.013z"/><path d="M470.724 123.766h-288.45a.706.706 0 0 1-.704-.704V97.105c0-.387.317-.704.704-.704h288.449c.387 0 .704.317.704.704v25.957a.705.705 0 0 1-.703.704z" fill="#c3bab1"/><path fill="#97907e" d="M183.013 123.762h286.972v.723H183.013z"/><path fill="#b0aa9c" d="M183.013 124.485h286.972v.723H183.013z"/><path d="M470.724 152.573h-288.45a.706.706 0 0 1-.704-.704v-25.957c0-.387.317-.704.704-.704h288.449c.387 0 .704.317.704.704v25.957a.704.704 0 0 1-.703.704z" fill="#c3bab1"/><path fill="#97907e" d="M183.013 152.573h286.972v.723H183.013z"/><path fill="#b0aa9c" d="M183.013 153.297h286.972v.723H183.013z"/><path d="M470.724 181.385h-288.45a.706.706 0 0 1-.704-.704v-25.957c0-.387.317-.704.704-.704h288.449c.387 0 .704.317.704.704v25.957a.705.705 0 0 1-.703.704z" fill="#c3bab1"/><path fill="#97907e" d="M183.013 181.385h286.972v.723H183.013z"/><path fill="#b0aa9c" d="M183.013 182.109h286.972v.723H183.013z"/><path d="M470.724 210.197h-288.45a.706.706 0 0 1-.704-.704v-25.957c0-.387.317-.704.704-.704h288.449c.387 0 .704.317.704.704v25.957a.705.705 0 0 1-.703.704z" fill="#c3bab1"/><path fill="#97907e" d="M183.013 210.197h286.972v.723H183.013z"/><path fill="#b0aa9c" d="M183.013 210.92h286.972v.723H183.013z"/><path d="M470.724 239.009h-288.45a.706.706 0 0 1-.704-.704v-25.957c0-.387.317-.704.704-.704h288.449c.387 0 .704.317.704.704v25.957a.705.705 0 0 1-.703.704z" fill="#c3bab1"/><path fill="#97907e" d="M183.013 239.009h286.972v.723H183.013z"/><path fill="#b0aa9c" d="M183.013 239.732h286.972v.723H183.013z"/><path d="M470.737 240.456H182.263a.694.694 0 0 0-.692.692v21.206a4.326 4.326 0 0 0 4.313 4.313h281.232a4.326 4.326 0 0 0 4.313-4.313v-21.208a.694.694 0 0 0-.692-.69z" fill="#c3bab1"/><path d="M260.038 0v60.373c0 18.968 18.645 17.799 63.496 19.75 2.08.09 4.173.09 6.254 0 44.85-1.951 63.496-.782 63.496-19.75V0h32.326c.946 0 1.72.774 1.72 1.72v263.227c0 .946-.774 1.72-1.72 1.72H227.39c-.946 0-1.72-.774-1.72-1.72V1.72c0-.946.774-1.72 1.72-1.72h32.648z" fill="#bcb4ad"/><g><path d="M393.283 0H260.038v60.373c0 18.968 18.645 17.799 63.496 19.75 2.08.09 4.173.09 6.254 0 44.851-1.951 63.496-.782 63.496-19.75V0z" fill="#c9c2bd"/><path d="M326.661 80.191c1.043 0 2.087-.023 3.127-.068 29.586-1.287 47.769-1.216 56.719-6.464l-.001-12.783a.31.31 0 0 0-.428-.295c-9.744 3.999-29.398 6.081-56.289 7.251a72.385 72.385 0 0 1-6.254 0c-26.891-1.17-46.546-3.252-56.289-7.251a.31.31 0 0 0-.428.295l-.001 12.783c8.95 5.248 27.132 5.177 56.718 6.464a72.27 72.27 0 0 0 3.126.068z" fill="#363932"/><path d="M297.406 66.165V0h-3.909v65.782c1.27.133 2.573.26 3.909.383zM355.916 66.165V0h3.909v65.782c-1.271.133-2.574.26-3.909.383z" fill="#bcb5b1"/><g fill="#33352e"><path d="M293.496 78.811c1.264.077 2.567.148 3.909.217v.003-12.866c-1.335-.123-2.639-.25-3.909-.383M359.825 78.811c-1.264.077-2.567.148-3.909.217v.003-12.866c1.335-.123 2.639-.25 3.909-.383"/></g><g><g fill="#a5a19f"><path d="M316.361 18.107h20.599v.535h-20.599zM316.361 19.56h12.191v.535h-12.191zM316.361 20.961h8.714v.535h-8.714zM316.361 22.337h6.344v.535h-6.344zM316.361 23.701h4.572v.535h-4.572zM316.361 25.063h2.737v.535h-2.737zM316.361 26.453h1.369v.535h-1.369zM316.361 27.814h.459v.535h-.459zM331.056 19.56h5.905v.535h-5.905zM327.406 20.961h9.554v.535h-9.554zM325.075 22.337h11.886v.535h-11.886zM323.278 23.701h13.682v.535h-13.682zM335.623 25.063h1.338v.535h-1.338zM328.285 25.063h5.026v.535h-5.026zM321.425 25.063h4.548v.535h-4.548zM335.623 26.439h1.338v.535h-1.338zM328.285 26.439h2.733v.535h-2.733zM320.03 26.439h3.669v.535h-3.669zM334.705 27.814h2.255v.535h-2.255zM327.406 27.814h1.758v.535h-1.758zM319.098 27.814h2.766v.535h-2.766zM333.769 29.171h3.191v.535h-3.191zM326.431 29.171h1.854v.535h-1.854zM317.73 29.171h3.203v.535h-3.203zM332.431 30.566h4.529v.535h-4.529zM325.075 30.566h2.255v.535h-2.255zM316.82 30.566H320v.535h-3.18zM316.361 33.337h20.599v.535h-20.599zM334.247 34.694h2.713v.535h-2.713zM325.992 34.694h4.051v.535h-4.051zM333.349 36.05h3.592v.535h-3.592zM325.552 36.05h2.733v.535h-2.733zM332.431 37.445h4.51v.535h-4.51zM324.616 37.445h2.752v.535h-2.752zM331.495 38.802h5.465v.535h-5.465zM323.718 38.802h2.713v.535h-2.713zM330.138 40.197h6.822v.535h-6.822zM322.323 40.197h3.229v.535h-3.229zM327.826 41.553h9.134v.535h-9.134zM320.489 41.553h5.064v.535h-5.064zM316.361 42.936h20.599v.535h-20.599zM331.017 31.942h5.943v.535h-5.943zM316.377 31.942h3.18v.535h-3.18zM323.699 31.942h3.21v.535h-3.21zM316.377 34.694h6.367v.535h-6.367zM316.361 36.05h4.605v.535h-4.605zM316.361 37.445h3.196v.535h-3.196zM316.377 38.802h1.8v.535h-1.8zM316.377 40.197h1.341v.535h-1.341zM316.377 41.553h.9v.535h-.9z"/></g></g></g><g><circle cx="447.03" cy="252.239" r="5.409" fill="#2b2726"/><path fill="#544237" d="M442.676 253.78l.843-4.542 4.354-1.54 3.511 3-.842 4.541-4.354 1.541z"/><path fill="#817054" d="M443.112 253.625l.758-4.087 3.918-1.386 3.161 2.7-.759 4.087-3.918 1.387z"/><circle cx="447.03" cy="75.626" r="5.409" fill="#2b2726"/><path fill="#544237" d="M442.676 77.167l.843-4.541 4.354-1.541 3.511 3-.842 4.541-4.354 1.541z"/><path fill="#817054" d="M443.112 77.013l.758-4.087 3.918-1.387 3.161 2.7-.759 4.087-3.918 1.387z"/><g><circle cx="205.968" cy="252.239" r="5.409" fill="#2b2726"/><path fill="#544237" d="M210.322 253.78l-.843-4.542-4.354-1.54-3.511 3 .842 4.541 4.354 1.541z"/><path fill="#817054" d="M209.886 253.625l-.758-4.087-3.918-1.386-3.161 2.7.759 4.087 3.918 1.387z"/></g><g><circle cx="205.968" cy="75.626" r="5.409" fill="#2b2726"/><path fill="#544237" d="M210.322 77.167l-.843-4.541-4.354-1.541-3.511 3 .842 4.541 4.354 1.541z"/><path fill="#817054" d="M209.886 77.013l-.758-4.087-3.918-1.387-3.161 2.7.759 4.087 3.918 1.387z"/></g></g><linearGradient id="a" gradientUnits="userSpaceOnUse" x1="326.499" y1="243.45" x2="326.499" y2="191.849"><stop offset="0" stop-color="#bcb4ad"/><stop offset=".421" stop-color="#b3aba4"/><stop offset=".611" stop-color="#ada59e"/><stop offset="1" stop-color="#ada59e"/></linearGradient><path fill="url(#a)" d="M298.714 191.849h55.571v51.601h-55.571z"/><g><g fill="#726f68"><path d="M300.887 191.849h-2.174v51.601c1.649-16.396 3.571-33.671 2.174-51.601zM352.111 191.849h2.174v51.601c-1.649-16.396-3.571-33.671-2.174-51.601z"/></g></g><path d="M419.909 266.667v-70.285c0-3.043-2.457-5.533-5.46-5.533h-175.9c-3.003 0-5.46 2.49-5.46 5.533v70.285l.589-69.358c0-3.003 2.442-5.46 5.426-5.46h174.79c2.984 0 5.426 2.457 5.426 5.46l.589 69.358z" fill="#5b5b5b"/><g><path d="M413.331 156.624H239.667c-3.443 0-6.259-2.817-6.259-6.259V97.56c0-3.443 2.817-6.259 6.259-6.259h173.664c3.443 0 6.259 2.817 6.259 6.259v52.805c0 3.442-2.816 6.259-6.259 6.259z" fill="#fff"/><g fill="#009"><path d="M395.369 147.565a1.444 1.444 0 1 0 0 2.888 1.443 1.443 0 0 0 1.44-1.444v-.004a1.44 1.44 0 0 0-1.44-1.44v-.199c.906 0 1.637.736 1.637 1.638a1.64 1.64 0 0 1-1.632 1.646h-.005a1.642 1.642 0 1 1 0-3.284v.199z"/><path d="M394.864 148.254h.525c.229 0 .477.035.477.319 0 .374-.4.33-.657.33h-.345v.177h.413l.525.846h.266l-.555-.846c.327-.009.58-.142.58-.503 0-.155-.069-.318-.207-.395-.137-.082-.291-.09-.447-.09h-.799v1.835h.223l.001-1.673zM382.016 124.201h6.593l3.257 7.487 4.882-7.487h6.756l-9.523 14.812-1.547 11.557h-6.104l1.79-13.184-6.104-13.185zm-48.507 26.368l.814-5.861h-9.277l.569-4.557h8.056l.814-5.86h-7.975l.569-4.232h9.277l.895-5.859H321.87l-3.663 26.368 15.302.001zm-54.774-13.022l2.035-5.452.651 5.452h-2.686zm-2.197 5.209h5.534l.977 7.813h10.011l4.639-14.324 2.279 14.324h5.29l5.86-15.137.977 15.137h5.86l-1.627-26.369h-6.999l-5.452 13.917-2.117-13.917h-6.266l-7.162 21.649-2.686-21.649h-7.813l-8.708 21.893 1.139-8.546h-10.581l-.733 5.209h4.639l-.325 1.791c-.814.489-2.685.57-3.418.57-.732 0-6.185-.489-5.941-6.348.244-5.861 8.057-11.313 17.335-8.301l.895-5.616c-6.186-2.116-22.431-.932-24.091 13.591-.976 8.546 6.837 12.616 12.046 12.535 3.011.163 6.429-.977 7.65-1.628l-.407 1.22h6.186l3.009-7.814z"/><path d="M375.424 123.956c-4.232-.163-10.337 2.279-12.371 12.127-2.036 9.848 3.418 13.835 8.463 14.486 5.047.652 12.127-2.523 13.43-11.963 1.302-9.441-3.337-14.405-9.522-14.65zm-.651 5.616c1.71 0 5.371 1.139 4.476 7.975-.895 6.837-5.128 7.651-6.673 7.489-1.547-.163-4.721-1.22-3.827-7.489.896-6.266 4.233-8.056 6.024-7.975z"/><path d="M349.706 134.292h3.416c2.523 0 3.013-1.627 3.094-2.279.081-.651-.651-1.954-1.953-1.954h-3.988l-.569 4.233zm-1.465 10.417h4.639c2.523 0 3.094-1.953 3.175-2.604.081-.65-.651-1.953-1.953-1.953h-5.209l-.652 4.557zm-6.838 5.86l3.662-26.369h11.232c2.685 0 6.593 3.093 6.104 7.243-.487 4.151-1.791 4.395-2.685 5.046 1.382 1.222 2.767 3.174 2.198 6.837-.57 3.662-3.583 7.243-8.873 7.243h-11.638z"/></g><path d="M269.685 107.001c3.753 1.033 7.525 2.002 11.235 3.187 1.058.338 2.129.648 3.067 1.283.703.476 1.327 1.013 1.662 1.82.626 1.226.67 2.494.223 3.775-.223.638-.696 1.085-1.292 1.405-1.14.613-2.367.983-3.613 1.295-3.288.823-6.639 1.293-9.995 1.722-2.967.379-5.941.702-8.919.975-2.366.217-4.732.445-7.103.613-1.573.112-3.147.236-4.718.381-.315.029-.592-.005-.816-.246-.84-.723-1.171-2.443-.656-3.429.18-.344.447-.597.835-.683a6.633 6.633 0 0 1 2.71-.03c.296.056.546.205.632.483.096.311.276.324.543.304 8.391-.632 16.756-1.476 25.023-3.1 1.621-.318 3.229-.698 4.791-1.242.289-.101.777-.214.809-.443.099-.49-.44-.777-.883-.948-1.666-.643-3.372-1.167-5.081-1.682a205.063 205.063 0 0 0-8.104-2.284c-.713-.183-1.265-.492-1.861-1.074-1.058-1.249-1.405-2.746-1.442-4.334-.013-.546.372-.916.757-1.245.512-.438 1.111-.74 1.711-1.034 2.777-1.362 5.691-2.331 8.695-3.056 3.416-.825 6.853-1.501 10.372-1.669 1.884-.09 3.74.112 5.585.498 1.204.251 2.209.741 2.719 1.944.465.811.629 1.689.602 2.615-.03 1.042-.422 1.906-1.237 2.563-1.311 1.057-2.783 1.825-4.37 2.374-.294.102-.52.158-.906.002-.395-.172-.583-.475-.68-.918-.037-.171-.051-.329-.069-.495-.142-1.319.134-2.107 1.643-2.372 1.075-.188 2.087-.624 3.052-1.146.178-.096.463-.265.473-.37.083-.399-.342-.71-.751-.88-1.025-.428-2.116-.552-3.199-.717-1.938-.295-3.854-.024-5.764.256-4.111.601-8.132 1.569-12.019 3.052a36.087 36.087 0 0 0-3.868 1.718c-.082.043-.166.085-.243.135-.158.104-.318.218-.31.43.011.239.228.392.76.567zM341.839 108.726c-.556-1.46-1.572-2.011-3.107-1.671-4.365.965-8.453 2.634-12.325 4.843-1.09.591-2.385 1.321-3.197 1.882.783-.722 1.581-1.741 2.467-2.678 1.004-1.063 1.991-2.142 2.99-3.21.115-.122.229-.247.206-.436-.363-.629-.825-1.185-1.282-1.745-.272-.333-.567-.411-.977-.253-.851.329-1.648.763-2.436 1.213-3.399 1.939-6.667 4.094-10.016 6.116-2.061 1.244-4.086 2.555-6.314 3.499-.319.101-.883.251-1.048.007-.159-.235.107-.48.246-.684 1.138-1.673 2.479-3.179 3.843-4.669 1.001-1.094 2.046-2.142 3.089-3.193.104-.105.214-.207.241-.364-.407-.595-.835-1.177-1.214-1.79-.242-.39-.39-.475-.809-.138-6.261 5.033-12.971 9.325-20.48 12.28-.945.311-1.234.261-1.35.048-.101-.184.057-.312.172-.428 1.114-1.116 2.182-2.283 3.357-3.332 2.519-2.248 5.158-4.351 7.851-6.388.207-.156.43-.298.51-.569-.465-.669-.94-1.331-1.388-2.011-.175-.265-.299-.292-.554-.086-.967.784-1.964 1.531-2.929 2.318-2.898 2.361-5.762 4.76-8.207 7.609-.642.748-1.228 1.537-1.658 2.434-.301.628-.347 1.225.017 1.854.298.516.595 1.026.998 1.468.541.63 1.254.669 1.992.542a8.544 8.544 0 0 0 1.658-.475c3.139-1.226 6.117-2.778 9.045-4.434a108.192 108.192 0 0 0 3.029-1.776c-.166.608-.327 1.022-.569 1.658-.109.451-.171.899.043 1.341.186.384.497.675.744 1.014.532.642 1.214.868 2.031.758.595-.08 1.157-.263 1.705-.495a106.984 106.984 0 0 0 12.132-6.085c-.675.627-7.803 8.93-10.284 12.396-.775 1.082-.864 1.558-.156 2.27 1.043.892 1.483 1.011 2.083.338 1.483-1.664 2.959-3.329 4.606-4.842a120.256 120.256 0 0 1 4.145-3.641c.394-.33.681-.365 1.11-.046 1.343 1.001 2.875 1.444 4.549 1.405 1.745-.041 3.368-.555 4.926-1.291 3.721-1.758 6.808-4.362 9.647-7.289.404-.417.74-.897.908-1.457.177-.6.302-1.218-.04-1.817zm-4.031 2.519c-2.451 2.348-5.073 4.461-8.234 5.794-1.524.643-3.1 1.032-4.766.562a4.399 4.399 0 0 1-.968-.414c-.304-.168-.252-.279.003-.455 4.571-3.168 9.462-5.649 14.893-6.979.108-.026.218-.045.329-.06.03-.004.131-.015.131.045-.39.581-.897 1.038-1.388 1.507zM404.948 117.741c-.263-.716-.543-1.049-1.232-1.251-2.587-.76-5.243-1.044-7.914-1.156-7.034-.293-14.024.242-20.982 1.26a9.175 9.175 0 0 1-.501.057c-.494.045-.474-.202-.319-.58.484-1.184 1.007-2.351 1.499-3.532.377-.905.545-1.815-.024-2.715-.332-.627-.778-1.157-1.285-1.655a12.001 12.001 0 0 1-1.608-1.963c-.06-.102-.099-.168-.146-.251-.264-.457-.286-.861-.076-1.378.312-.766.393-1.58.096-2.389-.268-.443-.493-.912-.904-1.257-.894-.753-2.108-.901-2.943-.343-.788.527-.999 1.529-.592 2.715.233.681.651 1.245 1.082 1.803.183.236.212.399-.058.634-4.211 3.663-8.611 7.064-13.493 9.8-2.955 1.657-6.011 3.085-9.37 3.723-1.071.203-2.163.382-3.233-.054-.778-.763-.65-.956-.251-1.808.276-.589.727-1.073 1.152-1.565a.743.743 0 0 1 .802-.223 5.441 5.441 0 0 0 1.8.283c2.534-.013 4.849-.82 7.06-1.972 2.247-1.171 4.298-2.637 6.248-4.251 1.021-.844 1.198-1.664.552-2.823-.777-1.476-1.785-2.01-3.455-1.861-.97.087-1.904.32-2.808.665-3.916 1.494-7.38 3.72-10.48 6.524-1.147 1.038-2.18 2.18-2.968 3.524-.417.711-.716 1.463-.832 2.285-.168 1.187.323 2.131 1.08 2.98.514.549 1.197.714 1.9.831.775.128 1.547.055 2.326.03 1.699-.054 3.306-.475 4.883-1.037 3.333-1.187 6.361-2.964 9.281-4.925 3.768-2.531 7.306-5.362 10.694-8.381.304-.271.518-.369.867.015.136.15.24.284.371.437.425.54.814 1.115 1.285 1.61.572.601.59 1.227.298 1.939a47.82 47.82 0 0 1-2.029 4.273c-.688 1.296-.74 2.46.361 3.543.091.09.164.198.246.298.32.433.758.472 1.246.392 2.693-.438 5.396-.803 8.106-1.13 3.225-.389 6.464-.602 9.707-.694 2.765-.079 5.519.211 8.27.485.667.066 1.23.116 1.363.907.051.536.88.442.95.442 1.214-.007 2.429 0 3.63-.223a.317.317 0 0 0 .249-.238c.137-.586.271-1.123.099-1.8zm-57.575-5.643c2.675-2.028 5.519-3.745 8.785-4.657.409-.114.832-.178 1.252-.248.219-.036.443-.035.655.069.348.171.355.557.055.802-.117.095-.232.193-.348.289-2.148 1.59-4.325 3.135-6.779 4.234-1.117.5-2.255.95-3.5 1.02-.549.061-1.096.091-1.728-.127.576-.498 1.068-.972 1.608-1.382z" fill="#950c8c"/><g><path d="M269.14 106.208c3.753 1.033 7.525 2.002 11.235 3.187 1.058.338 2.129.648 3.067 1.283.703.476 1.327 1.013 1.662 1.82.626 1.226.67 2.494.223 3.775-.223.638-.696 1.085-1.292 1.405-1.14.612-2.367.983-3.613 1.295-3.288.823-6.639 1.293-9.995 1.722-2.967.379-5.941.702-8.919.975-2.366.217-4.732.445-7.103.613-1.573.112-3.147.236-4.718.381-.315.029-.592-.005-.816-.246-.84-.723-1.171-2.443-.656-3.429.18-.344.447-.597.835-.683a6.633 6.633 0 0 1 2.71-.03c.296.056.546.205.632.483.096.311.276.324.543.304 8.391-.632 16.756-1.476 25.023-3.1 1.621-.318 3.229-.698 4.791-1.242.289-.101.777-.214.809-.443.099-.49-.44-.777-.883-.948-1.666-.643-3.372-1.167-5.081-1.682a205.063 205.063 0 0 0-8.104-2.284c-.713-.183-1.265-.492-1.861-1.074-1.058-1.249-1.405-2.746-1.442-4.334-.013-.546.372-.916.757-1.245.512-.438 1.111-.74 1.711-1.034 2.777-1.362 5.691-2.331 8.695-3.056 3.416-.825 6.853-1.501 10.372-1.669 1.884-.09 3.74.112 5.585.498 1.204.251 2.209.741 2.719 1.944.465.811.629 1.689.602 2.615-.03 1.042-.422 1.906-1.237 2.563-1.311 1.057-2.783 1.825-4.37 2.374-.294.102-.52.158-.906.002-.395-.172-.583-.475-.68-.918-.037-.171-.051-.329-.069-.495-.142-1.319.134-2.107 1.643-2.372 1.075-.188 2.087-.624 3.052-1.146.178-.096.463-.265.473-.37.083-.399-.342-.71-.751-.88-1.025-.428-2.116-.552-3.199-.717-1.938-.295-3.854-.024-5.764.256-4.111.601-8.132 1.569-12.019 3.052a36.087 36.087 0 0 0-3.868 1.718c-.082.043-.166.085-.243.135-.158.104-.318.218-.31.43.01.239.227.392.76.567zM341.294 107.933c-.556-1.46-1.572-2.011-3.107-1.671-4.365.965-8.453 2.634-12.325 4.843-1.09.591-2.385 1.321-3.197 1.882.783-.722 1.581-1.741 2.467-2.678 1.004-1.063 1.991-2.142 2.99-3.21.115-.122.229-.247.206-.436-.363-.629-.825-1.184-1.282-1.745-.272-.333-.567-.411-.977-.253-.851.329-1.648.763-2.436 1.213-3.399 1.939-6.667 4.094-10.016 6.116-2.061 1.244-4.086 2.555-6.314 3.499-.319.101-.883.251-1.048.007-.159-.235.107-.48.246-.684 1.138-1.673 2.479-3.179 3.843-4.669 1.001-1.094 2.046-2.142 3.089-3.193.104-.105.214-.207.241-.364-.407-.595-.835-1.177-1.214-1.79-.242-.39-.39-.475-.809-.138-6.261 5.033-12.971 9.325-20.48 12.28-.945.311-1.234.261-1.35.048-.101-.184.057-.312.172-.428 1.114-1.116 2.182-2.283 3.357-3.332 2.519-2.248 5.158-4.351 7.851-6.388.207-.156.43-.298.51-.569-.465-.669-.94-1.331-1.388-2.011-.175-.265-.299-.292-.554-.086-.967.784-1.964 1.531-2.929 2.318-2.898 2.361-5.762 4.76-8.207 7.609-.642.748-1.228 1.537-1.658 2.434-.301.628-.347 1.225.017 1.854.298.516.595 1.026.998 1.468.541.63 1.254.669 1.992.542a8.544 8.544 0 0 0 1.658-.475c3.139-1.226 6.117-2.778 9.045-4.434a108.192 108.192 0 0 0 3.029-1.776c-.166.608-.327 1.022-.569 1.658-.109.451-.171.899.043 1.341.186.384.497.675.744 1.014.532.642 1.214.868 2.031.758.595-.08 1.157-.263 1.705-.495a106.984 106.984 0 0 0 12.132-6.085c-.675.627-7.803 8.93-10.284 12.396-.775 1.082-.864 1.558-.156 2.27 1.043.892 1.483 1.011 2.083.338 1.483-1.664 2.959-3.329 4.606-4.842a120.256 120.256 0 0 1 4.145-3.641c.394-.33.681-.365 1.11-.046 1.343 1.001 2.875 1.444 4.549 1.405 1.745-.041 3.368-.555 4.926-1.291 3.721-1.758 6.808-4.362 9.647-7.289.404-.417.74-.897.908-1.457.176-.6.301-1.218-.04-1.817zm-4.032 2.519c-2.451 2.348-5.073 4.461-8.234 5.794-1.524.643-3.1 1.032-4.766.562a4.399 4.399 0 0 1-.968-.414c-.304-.168-.252-.279.003-.455 4.571-3.168 9.462-5.649 14.893-6.979.108-.026.218-.045.329-.06.03-.004.131-.015.131.045-.39.581-.896 1.038-1.388 1.507zM404.402 116.948c-.263-.716-.543-1.049-1.232-1.251-2.587-.76-5.243-1.044-7.914-1.156-7.034-.293-14.024.242-20.982 1.26a9.175 9.175 0 0 1-.501.057c-.494.045-.474-.202-.319-.58.484-1.184 1.007-2.351 1.499-3.532.377-.905.545-1.815-.024-2.715-.332-.627-.778-1.157-1.285-1.655a12.001 12.001 0 0 1-1.608-1.963c-.06-.102-.099-.168-.146-.251-.264-.457-.286-.861-.076-1.378.312-.766.393-1.58.096-2.389-.268-.443-.493-.912-.904-1.257-.894-.753-2.108-.901-2.943-.343-.788.527-.999 1.529-.592 2.715.233.681.651 1.245 1.082 1.803.183.236.212.399-.058.634-4.211 3.663-8.611 7.064-13.493 9.8-2.955 1.657-6.011 3.085-9.37 3.723-1.071.203-2.163.382-3.233-.054-.778-.763-.65-.956-.251-1.808.276-.589.727-1.073 1.152-1.565a.743.743 0 0 1 .802-.223 5.441 5.441 0 0 0 1.8.283c2.534-.013 4.849-.82 7.06-1.972 2.247-1.171 4.298-2.637 6.248-4.251 1.021-.844 1.198-1.664.552-2.823-.777-1.476-1.785-2.01-3.455-1.861-.97.087-1.904.32-2.808.665-3.916 1.494-7.38 3.72-10.48 6.524-1.147 1.038-2.18 2.18-2.968 3.524-.417.711-.716 1.463-.832 2.285-.168 1.187.323 2.131 1.08 2.98.514.549 1.197.714 1.9.831.775.128 1.547.055 2.326.03 1.699-.054 3.306-.475 4.883-1.037 3.333-1.187 6.361-2.964 9.281-4.925 3.768-2.531 7.306-5.362 10.694-8.381.304-.271.518-.369.867.015.136.15.24.284.371.437.425.54.814 1.115 1.285 1.61.572.601.59 1.227.298 1.939a47.82 47.82 0 0 1-2.029 4.273c-.688 1.296-.74 2.46.361 3.543.091.09.164.198.246.298.32.433.758.472 1.246.392 2.693-.438 5.396-.803 8.106-1.13 3.225-.389 6.464-.602 9.707-.694 2.765-.079 5.519.211 8.27.485.667.066 1.23.116 1.363.907.051.536.88.442.95.442 1.214-.007 2.429 0 3.63-.223a.317.317 0 0 0 .249-.238c.137-.586.271-1.123.099-1.8zm-57.575-5.643c2.675-2.028 5.519-3.745 8.785-4.657.409-.114.832-.178 1.252-.248.219-.036.443-.035.655.069.348.171.355.557.055.802-.117.095-.232.193-.348.289-2.148 1.59-4.325 3.135-6.779 4.234-1.117.5-2.255.95-3.5 1.02-.549.061-1.096.091-1.728-.127.577-.498 1.068-.972 1.608-1.382z" fill="#fe0000"/></g></g><path fill="none" stroke="#818384" stroke-width=".683" stroke-miterlimit="10" d="M225.669 168.127h201.66"/></g></svg>