<?xml version="1.0" encoding="utf-8"?>
<!-- Generator: Adobe Illustrator 16.0.0, SVG Export Plug-In . SVG Version: 6.00 Build 0)  -->
<!DOCTYPE svg PUBLIC "-//W3C//DTD SVG 1.1//EN" "http://www.w3.org/Graphics/SVG/1.1/DTD/svg11.dtd">
<svg version="1.1" id="Layer_1" xmlns="http://www.w3.org/2000/svg" xmlns:xlink="http://www.w3.org/1999/xlink" x="0px" y="0px"
	 width="15519.497px" height="15980.73px" viewBox="-7679.631 -7915.22 15519.497 15980.73"
	 enable-background="new -7679.631 -7915.22 15519.497 15980.73" xml:space="preserve">
<g>
	<path fill="#F1F1F2" d="M7209.245-612.972c249.398,84.035,478.436,318.448,478.436,684.015v176.682
		c-0.381,55.266,9.232,105.475,29.725,156.441c11.129,26.814,27.566,50.467,31.615,80.689c3.67,28.455,46.035,281.27,46.035,648.922
		V7021.76c0,508.416-400.408,926.654-908.312,948.408c-1144.814,50.211-2289.76,99.533-3435.457,75.5
		c-25.927-0.375-60.199-1.77-95.99-7.838c-94.479-15.307-188.95-31.494-283.171-49.322c-35.917-6.961-109.021-10.369-109.021-10.369
		h-5765.747c0,0-72.657,3.408-108.64,10.369c-94.405,17.828-188.817,34.016-283.485,49.322c-35.346,6.068-69.433,7.463-95.926,7.838
		c-1145.511,24.033-2290.892-25.289-3435.838-75.5c-508.029-21.754-908.756-439.992-908.374-948.408l0.567-5887.982
		c0-367.652,41.924-620.467,45.274-648.922c4.179-30.223,20.492-53.875,31.495-80.689c21.117-50.967,30.542-101.176,30.033-156.441
		V71.109c0-365.375,228.729-599.915,478.694-684.081v-6666.099c0-343.935,279.063-622.866,622.491-622.866H6586.246
		c344.001,0,622.999,278.932,622.999,622.866V-612.972"/>
	<path fill="#58595B" d="M-7059.082-613.354c-249.721,83.917-478.442,318.33-478.442,684.272v176.301
		c0.189,36.166-4.364,70.064-13.024,103.703h-71.65c-41.924,0-54.257-26.809-54-75.881l14.924-428.101
		c0-388.52,260.909-628.941,602.192-636.404V-613.354"/>
	<path fill="#58595B" d="M7198.493-613.736v-175.097c341.598,6.957,602.631,247.38,602.631,635.773l14.676,428.101
		c0.248,49.072-12.273,75.881-53.875,75.881h-71.842c-8.344-33.639-12.898-67.537-12.516-103.703V70.918
		C7677.692-295.155,7448.78-529.57,7198.493-613.736"/>
	<path fill="none" stroke="#231F20" stroke-width="17.4833" d="M-7048.712-242.859c0,222.655,175.73,405.471,397.937,415.203
		c1136.404,48.314,2273.131,72.092,3410.542,72.092V-857.881h6641.185V244.436c1137.603,0,2274.454-24.283,3410.918-72.466
		c221.581-9.489,397.376-192.298,397.376-414.829v-7036.212c0-343.935-278.748-622.866-622.999-622.866H-6426.352
		c-343.428,0-622.491,278.932-622.491,622.866v7036.212H-7048.712z"/>
	<path fill="#77787B" d="M6296.884,4128.867c0,208.801-169.477,378.396-378.279,378.396c-208.928,0-378.273-169.596-378.273-378.396
		c0-208.678,169.346-378.404,378.273-378.404C6127.407,3750.463,6296.884,3919.932,6296.884,4128.867"/>
	<path fill="none" stroke="#231F20" stroke-width="17.4833" d="M5918.604,3750.586c208.934,0,378.279,169.346,378.279,378.281
		c0,208.928-169.346,378.396-378.279,378.396c-208.928,0-378.273-169.469-378.273-378.396
		C5540.331,3919.932,5709.677,3750.586,5918.604,3750.586z"/>
	<path fill="#58595B" d="M6296.884,2489.545c0,208.678-169.477,378.148-378.279,378.148c-208.928,0-378.654-169.471-378.654-378.148
		c0-208.803,169.727-378.398,378.654-378.398C6127.407,2111.146,6296.884,2280.619,6296.884,2489.545"/>
	<path fill="none" stroke="#231F20" stroke-width="17.4833" d="M5918.479,2111.146c208.928,0,378.404,169.346,378.404,378.398
		c0,208.936-169.477,378.406-378.404,378.406s-378.398-169.471-378.398-378.406
		C5540.081,2280.492,5709.552,2111.146,5918.479,2111.146z"/>
	<path fill="#77787B" d="M7123.369,3309.08c0,208.928-169.472,378.148-378.655,378.148c-208.803,0-378.273-169.221-378.273-378.148
		c0-208.934,169.471-378.404,378.273-378.404C6953.897,2930.676,7123.369,3100.146,7123.369,3309.08"/>
	<path fill="none" stroke="#231F20" stroke-width="17.4833" d="M6744.839,2930.551c208.935,0,378.404,169.471,378.404,378.529
		c0,208.928-169.47,378.398-378.404,378.398c-208.928,0-378.398-169.471-378.398-378.398
		C6366.44,3100.021,6535.911,2930.551,6744.839,2930.551z"/>
	<path fill="#58595B" d="M5482.409,3309.08c0,208.928-169.471,378.148-378.272,378.148c-208.81,0-378.155-169.221-378.155-378.148
		c0-208.934,169.346-378.404,378.155-378.404C5312.938,2930.676,5482.409,3100.146,5482.409,3309.08"/>
	<path fill="none" stroke="#231F20" stroke-width="17.4833" d="M5455.594,4128.867v-311.119c0-29.6-12.142-41.607-41.478-41.607
		h-311.25c-257.873,0-466.926-209.186-466.926-467.061c0-257.748,209.053-466.676,466.926-466.676h311.25
		c29.467,0,41.478-12.141,41.478-41.484v-311.117c0-257.875,208.809-467.184,466.934-467.184c257.749,0,466.8,209.309,466.8,467.184
		v311.117c0,29.594,12.273,41.484,41.61,41.484h311.124c257.743,0,467.052,208.928,467.052,466.676
		c0,257.875-209.309,467.061-467.052,467.061h-311.124c-29.593,0-41.61,12.141-41.61,41.607v311.119
		c0,257.873-208.801,467.057-466.8,467.057C5664.402,4595.924,5455.594,4386.74,5455.594,4128.867z M5482.409,3309.08
		c0,208.928-169.471,378.148-378.272,378.148c-208.81,0-378.155-169.221-378.155-378.148c0-208.934,169.346-378.404,378.155-378.404
		C5312.938,2930.676,5482.409,3100.146,5482.409,3309.08z"/>
	<path fill="#58595B" d="M6047.479,1292.377h762.112c107.126,0.25,194.01-86.76,194.01-193.754
		c0-107.25-86.884-193.76-194.01-193.377h-762.112c-14.793,0-20.992,5.941-20.992,20.617v345.514
		C6026.487,1286.303,6032.687,1292.377,6047.479,1292.377"/>
	<path fill="none" stroke="#231F20" stroke-width="17.4833" d="M6047.479,1292.377h762.112
		c107.126,0.25,194.01-86.76,194.01-193.754c0-107.25-86.884-193.76-194.01-193.377h-762.112c-14.793,0-20.992,5.941-20.992,20.617
		v345.514C6026.487,1286.303,6032.687,1292.377,6047.479,1292.377z"/>
	<path fill="#58595B" d="M5801.872,1292.377h-762.871c-106.486,0.25-193.752-86.76-193.752-193.754
		c0-107.25,87.266-193.76,193.752-193.377h762.871c14.293,0,20.865,5.941,20.865,20.617v345.514
		C5822.737,1286.303,5816.165,1292.377,5801.872,1292.377"/>
	<path fill="none" stroke="#231F20" stroke-width="17.4833" d="M6809.592,870.717H5034.954
		c-125.584,0-228.405,101.941-228.405,228.031c0,126.342,102.821,228.781,228.405,228.781h1774.638
		c125.966,0,228.406-102.439,228.406-228.781C7037.998,972.658,6935.558,870.717,6809.592,870.717z M5801.872,1292.377h-762.871
		c-106.486,0.25-193.752-86.76-193.752-193.754c0-107.25,87.266-193.76,193.752-193.377h762.871
		c14.293,0,20.865,5.941,20.865,20.617v345.514C5822.737,1286.303,5816.165,1292.377,5801.872,1292.377z"/>
	<path fill="#4C4C4E" d="M-3032.378,7349.447c0,16.945-13.72,30.986-31.048,30.986h-63.232c-16.953,0-30.923-14.041-30.923-30.986
		v-245.477c0-16.951,13.971-30.738,30.923-30.738h63.232c17.328,0,31.048,13.787,31.048,30.738V7349.447"/>
	<path fill="#4C4C4E" d="M2943.883,7349.447c0,16.945-13.912,30.986-31.114,30.986h-62.726c-17.201,0-31.113-14.041-31.113-30.986
		v-245.477c0-16.951,13.912-30.738,31.113-30.738h62.726c17.202,0,31.114,13.787,31.114,30.738V7349.447"/>
	<path fill="#4C4C4E" d="M3318.74,7349.447c0,16.945-14.161,30.986-31.106,30.986h-62.983c-17.452,0-31.495-14.041-31.495-30.986
		v-245.477c0-16.951,14.043-30.738,31.495-30.738h62.726c17.203,0,31.238,13.787,31.238,30.738v245.477"/>
	<path fill="none" stroke="#231F20" stroke-width="17.4833" d="M-6933.623,3688.873c-98.144-243.713-98.144-515.879,0-759.709
		c13.213-32.885,31.87-45.781,67.471-45.781h637.6c29.086,0,41.419-12.143,41.295-41.236v-637.033
		c0-35.793,12.583-54.508,45.721-67.787c243.832-97.762,515.938-97.762,759.837,0c33.008,13.535,45.53,31.994,45.53,67.787v637.033
		c0,29.219,11.952,41.236,41.478,41.236h637.417c35.476,0,54,12.896,67.222,45.781c98.583,243.83,98.583,515.996,0,759.709
		c-13.346,33.135-31.746,45.656-67.222,45.656h-637.417c-29.526,0-41.478,12.143-41.478,41.479v637.416
		c0,35.162-12.522,53.877-45.53,66.773c-243.898,98.9-516.005,98.9-759.837,0c-33.139-12.896-45.721-31.611-45.721-66.773v-637.416
		c0.125-29.592-12.208-41.479-41.295-41.479h-637.6C-6901.753,3734.529-6920.41,3722.008-6933.623,3688.873z M-6194.78,3641.191
		c59.188,0,100.796,41.482,100.796,100.926 M2913.025-436.738v-421.144 M2384.122-436.738v-421.144 M80.326-436.738v-421.144
		 M-2752.499-436.738v-421.144 M2339.099-689.235v933.67H125.285v-933.67H2339.099z M3356.433,261.131V-762.398h-396.611V261.131
		H3356.433z M-3204.06,261.131V-762.398h405.088V261.131H-3204.06z M7209.245-612.972
		c249.398,84.035,478.436,318.448,478.436,684.015v176.682c-0.381,55.266,9.232,105.475,29.725,156.441
		c11.129,26.814,27.566,50.467,31.615,80.689c3.67,28.455,46.035,281.27,46.035,648.922V7021.76
		c0,508.416-400.408,926.654-908.312,948.408c-1144.814,50.211-2289.76,99.533-3435.457,75.5c-25.927-0.375-60.199-1.77-95.99-7.838
		c-94.479-15.307-188.95-31.494-283.171-49.322c-35.917-6.961-109.021-10.369-109.021-10.369h-5765.747
		c0,0-72.657,3.408-108.64,10.369c-94.405,17.828-188.817,34.016-283.485,49.322c-35.346,6.068-69.433,7.463-95.926,7.838
		c-1145.511,24.033-2290.892-25.289-3435.838-75.5c-508.029-21.754-908.756-439.992-908.374-948.408l0.567-5887.982
		c0-367.652,41.924-620.467,45.274-648.922c4.179-30.223,20.492-53.875,31.495-80.689c21.117-50.967,30.542-101.176,30.033-156.441
		V71.109c0-365.375,228.729-599.915,478.694-684.081 M2384.122,244.184v-680.921h528.903v680.921H2384.122z M-2752.499,244.184
		v-680.921H80.326v680.416L-2752.499,244.184z M7209.245-530.326c171.615,91.819,292.902,269.765,292.902,515.183v7013.25
		c0,288.738-261.664,657.777-651.321,657.777c-1063.374-3.664-2126.989-2.525-3190.612,3.291
		c-86.252,0.25-172.761,0.756-259.013,0.756h-6641.435c-86.501,0-172.886-0.506-259.263-0.756
		c-1063.241-5.816-2126.99-7.08-3190.355-3.291c-389.973,0-651.959-369.039-651.959-657.777V-15.143
		c0-244.912,121.477-423.238,293.225-514.926"/>
	<path fill="#58595B" d="M-6194.78,3641.191h-606.494c-38.443,0-57.606-13.912-69.366-50.842
		c-61.403-195.268-61.403-367.521,0-562.793c11.76-36.68,31.679-48.691,69.366-48.691l606.494,0.633
		c57.226,0.506,103.771-46.037,103.514-103.453l-0.822-606.305c-0.125-37.562,11.825-57.541,48.565-69.176
		c195.082-61.594,367.526-61.594,562.857,0c36.616,11.635,48.822,31.613,48.822,69.176l-0.888,606.305
		c0,60.955,44.01,100.92,103.71,100.92h606.488c38.7,0,57.606,13.662,69.115,50.592c61.654,195.271,61.654,367.525,0,562.793
		c-11.383,36.68-30.415,50.842-69.115,50.842h-606.488c-59.7,0-100.86,41.482-100.86,100.926v606.047
		c0,38.951-14.044,57.924-50.658,69.434c-195.142,61.594-367.777,61.594-562.859,0c-36.74-11.51-50.585-30.482-50.585-69.434
		v-606.047"/>
	<path fill="none" stroke="#231F20" stroke-width="17.4833" d="M-4999.189,1306.031c0,29.092-23.527,52.236-52.046,52.236h-1421.469
		c-28.771,0-52.04-23.145-52.04-52.236V891.084c0-28.205,23.46-51.473,52.04-51.473h1421.469c28.52,0,52.046,23.395,52.046,51.473
		V1306.031z M3608.358,6505.254h-7056.19c-64.062,0-103.453-37.18-103.453-104.717V559.35c0-62.227,50.9-103.961,103.453-103.961
		h7056.19c75.507,0,103.585,51.98,103.585,103.961v5841.188C3711.943,6472.371,3660.97,6505.254,3608.358,6505.254z
		 M-5429.126,3309.08c0,184.396-149.617,334.645-333.887,334.389c-184.645,0-334.261-149.742-334.261-334.389
		c0-184.27,149.617-334.893,334.261-334.393C-5578.743,2974.688-5429.126,3124.305-5429.126,3309.08z M-6194.78,3641.191h-606.494
		c-38.443,0-57.606-13.912-69.366-50.842c-61.403-195.268-61.403-367.521,0-562.793c11.76-36.68,31.679-48.691,69.366-48.691
		l606.494,0.633c57.226,0.506,103.771-46.037,103.514-103.453l-0.822-606.305c-0.125-37.562,11.825-57.541,48.565-69.176
		c195.082-61.594,367.526-61.594,562.857,0c36.616,11.635,48.822,31.613,48.822,69.176l-0.888,606.305
		c0,60.955,44.01,100.92,103.71,100.92h606.488c38.7,0,57.606,13.662,69.115,50.592c61.654,195.271,61.654,367.525,0,562.793
		c-11.383,36.68-30.415,50.842-69.115,50.842h-606.488c-59.7,0-100.86,41.482-100.86,100.926v606.047
		c0,38.951-14.044,57.924-50.658,69.434c-195.142,61.594-367.777,61.594-562.859,0c-36.74-11.51-50.585-30.482-50.585-69.434
		v-606.047"/>
	<path fill="#58595B" d="M-5249.095,1269.865c0,17.451-14.167,31.361-31.494,31.361h-963.518c-17.386,0-31.239-13.91-31.239-31.361
		V927.633c0-17.201,13.853-31.238,31.239-31.238h963.518c17.328,0,31.494,14.037,31.494,31.238V1269.865"/>
	<path fill="none" stroke="#231F20" stroke-width="17.4833" d="M-5249.095,1269.865c0,17.451-14.167,31.361-31.494,31.361h-963.518
		c-17.386,0-31.239-13.91-31.239-31.361V927.633c0-17.201,13.853-31.238,31.239-31.238h963.518
		c17.328,0,31.494,14.037,31.494,31.238V1269.865z"/>
	<path fill="#58595B" d="M-3385.547-6998.935c-85.937,0-155.624,69.815-155.624,155.81v5707.067
		c0,86.252,69.688,155.809,155.624,155.809h6931.936c85.495,0,155.31-69.682,155.31-155.809v-5707.067
		c0-85.995-69.814-155.81-155.31-155.81H-3385.547"/>
	<path fill="none" stroke="#231F20" stroke-width="17.4833" d="M4417.647-767.458v-238.968c0-42.998,34.91-77.716,77.908-77.716
		h238.902c42.747,0,77.783,34.843,77.783,77.716v238.843c0,42.998-35.036,77.527-77.783,77.527h-238.902
		C4452.558-690.057,4417.647-724.586,4417.647-767.458z M4417.647-7004.121v-238.901c0-42.879,34.91-77.718,77.908-77.718h238.902
		c42.747,0,77.783,34.969,77.783,77.718v238.901c0,43-35.036,77.967-77.783,77.967h-238.902
		C4452.558-6926.154,4417.647-6961.121,4417.647-7004.121z M-4651.333-767.458v-238.968c0-42.998,34.845-77.716,77.593-77.716
		h238.835c42.939,0,77.533,34.843,77.533,77.716v238.843c0,42.998-34.594,77.527-77.533,77.527h-238.835
		C-4616.487-690.057-4651.333-724.586-4651.333-767.458z M-4651.333-7004.121v-238.901c0-42.879,34.845-77.718,77.593-77.718
		h238.835c42.939,0,77.533,34.969,77.533,77.718v238.901c0,43-34.594,77.967-77.533,77.967h-238.835
		C-4616.487-6926.154-4651.333-6961.121-4651.333-7004.121z M7473.693,6535.104c0,0-467.058,5.436-700.269,5.436H4339.239
		c-120.023,0-254.465-46.414-254.465-176.684V596.529c0-76.895,60.838-176.176,254.465-176.176h2434.186
		c0,0,467.059,1.645,700.269,4.936c0,50.336-112.43,60.074-162.515,60.074H4402.979c-54.764,0-86.758,66.648-86.758,96.117v5797.426
		c0,51.605,36.291,96.123,86.758,96.123h2908.199C7424.622,6475.029,7473.693,6505.254,7473.693,6535.104z M-7313.167,6535.104
		c0,0,466.869,5.436,700.336,5.436h2434.06c120.207,0,254.399-46.414,254.399-176.684V596.529
		c0-76.895-60.647-176.176-254.399-176.176h-2434.06c0,0-467.251,1.645-700.336,4.936c0,50.336,111.99,60.074,162.266,60.074
		h2908.705c54.258,0,86.501,66.648,86.501,96.117v5797.426c0,51.605-36.107,96.123-86.501,96.123h-2908.705
		C-7264.22,6475.029-7313.167,6505.254-7313.167,6535.104z M-3385.547-6998.935c-85.937,0-155.624,69.815-155.624,155.81v5707.067
		c0,86.252,69.688,155.809,155.624,155.809h6931.936c85.495,0,155.31-69.682,155.31-155.809v-5707.067
		c0-85.995-69.814-155.81-155.31-155.81H-3385.547z"/>
	<path fill="#231F20" d="M-6114.601-2972.731c0-28.46-23.203-51.663-52.04-51.663c-28.646,0-51.855,23.203-51.855,51.663
		c0,29.021,23.209,51.981,51.855,51.981C-6137.937-2920.75-6114.601-2943.834-6114.601-2972.731"/>
	<path fill="#231F20" d="M-5772.306-2972.731c0-28.46-23.085-51.663-52.104-51.663c-28.586,0-51.789,23.203-51.789,51.663
		c0,29.021,23.203,51.981,51.789,51.981C-5795.391-2920.75-5772.306-2943.834-5772.306-2972.731"/>
	<path fill="#231F20" d="M-5429.882-2972.731c0-28.46-23.211-51.663-51.98-51.663c-28.588,0-52.046,23.203-52.046,51.663
		c0,29.021,23.585,51.981,52.046,51.981C-5453.218-2920.75-5429.882-2943.834-5429.882-2972.731"/>
	<path fill="#231F20" d="M-5087.212-2972.731c0-28.46-23.591-51.663-52.104-51.663c-28.71,0-51.922,23.203-51.922,51.663
		c0,29.021,23.211,51.981,51.922,51.981C-5110.803-2920.75-5087.212-2943.834-5087.212-2972.731"/>
	<path fill="#231F20" d="M-4744.79-2972.731c0-28.46-23.592-51.663-51.98-51.663c-29.092,0-52.295,23.203-52.295,51.663
		c0,29.021,23.203,51.981,52.295,51.981C-4768.382-2920.75-4744.79-2943.834-4744.79-2972.731"/>
	<path fill="#231F20" d="M-4402.939-2972.731c0-28.46-23.146-51.663-51.665-51.663c-28.771,0-51.664,23.203-51.664,51.663
		c0,29.021,23.078,51.981,51.664,51.981C-4426.085-2920.75-4402.939-2943.834-4402.939-2972.731"/>
	<path fill="#231F20" d="M-4060.145-2972.731c0-28.46-23.519-51.663-52.296-51.663c-28.52,0-51.531,23.203-51.531,51.663
		c0,29.021,23.012,51.981,51.531,51.981C-4083.663-2920.75-4060.145-2943.834-4060.145-2972.731"/>
	<path fill="#231F20" d="M-6114.601-2495.624c0-28.704-23.203-51.914-52.04-51.914c-28.646,0-51.855,23.209-51.855,51.914
		c0,28.777,23.209,51.922,51.855,51.922C-6137.937-2443.577-6114.601-2466.722-6114.601-2495.624"/>
	<path fill="#231F20" d="M-5772.306-2495.624c0-28.704-23.085-51.914-52.104-51.914c-28.586,0-51.789,23.209-51.789,51.914
		c0,28.777,23.203,51.922,51.789,51.922C-5795.391-2443.577-5772.306-2466.722-5772.306-2495.624"/>
	<path fill="#231F20" d="M-5429.882-2495.624c0-28.704-23.211-51.914-51.98-51.914c-28.588,0-52.046,23.209-52.046,51.914
		c0,28.777,23.585,51.922,52.046,51.922C-5453.218-2443.577-5429.882-2466.722-5429.882-2495.624"/>
	<path fill="#231F20" d="M-5087.212-2495.624c0-28.704-23.591-51.914-52.104-51.914c-28.71,0-51.922,23.209-51.922,51.914
		c0,28.777,23.211,51.922,51.922,51.922C-5110.803-2443.577-5087.212-2466.722-5087.212-2495.624"/>
	<path fill="#231F20" d="M-4744.79-2495.624c0-28.704-23.592-51.914-51.98-51.914c-29.092,0-52.295,23.209-52.295,51.914
		c0,28.777,23.203,51.922,52.295,51.922C-4768.382-2443.577-4744.79-2466.722-4744.79-2495.624"/>
	<path fill="#231F20" d="M-4402.939-2495.624c0-28.704-23.146-51.914-51.665-51.914c-28.771,0-51.664,23.209-51.664,51.914
		c0,28.777,23.078,51.922,51.664,51.922C-4426.085-2443.577-4402.939-2466.722-4402.939-2495.624"/>
	<path fill="#231F20" d="M-4060.145-2495.624c0-28.704-23.519-51.914-52.296-51.914c-28.52,0-51.531,23.209-51.531,51.914
		c0,28.777,23.012,51.922,51.531,51.922C-4083.663-2443.577-4060.145-2466.722-4060.145-2495.624"/>
	<path fill="#231F20" d="M-6114.601-2018.634c0-28.771-23.203-51.664-52.04-51.664c-28.646,0-51.855,23.018-51.855,51.664
		c0,28.769,23.209,51.914,51.855,51.914C-6137.937-1966.596-6114.601-1989.739-6114.601-2018.634"/>
	<path fill="#231F20" d="M-5772.306-2018.634c0-28.771-23.085-51.664-52.104-51.664c-28.586,0-51.789,23.018-51.789,51.664
		c0,28.769,23.203,51.914,51.789,51.914C-5795.391-1966.596-5772.306-1989.739-5772.306-2018.634"/>
	<path fill="#231F20" d="M-5429.882-2018.634c0-28.771-23.211-51.664-51.98-51.664c-28.588,0-52.046,23.018-52.046,51.664
		c0,28.769,23.585,51.914,52.046,51.914C-5453.218-1966.596-5429.882-1989.739-5429.882-2018.634"/>
	<path fill="#231F20" d="M-5087.212-2018.634c0-28.771-23.591-51.664-52.104-51.664c-28.71,0-51.922,23.018-51.922,51.664
		c0,28.769,23.211,51.914,51.922,51.914C-5110.803-1966.596-5087.212-1989.739-5087.212-2018.634"/>
	<path fill="#231F20" d="M-4744.79-2018.634c0-28.771-23.592-51.664-51.98-51.664c-29.092,0-52.295,23.018-52.295,51.664
		c0,28.769,23.203,51.914,52.295,51.914C-4768.382-1966.596-4744.79-1989.739-4744.79-2018.634"/>
	<path fill="#231F20" d="M-4402.939-2018.634c0-28.771-23.146-51.664-51.665-51.664c-28.771,0-51.664,23.018-51.664,51.664
		c0,28.769,23.078,51.914,51.664,51.914C-4426.085-1966.596-4402.939-1989.739-4402.939-2018.634"/>
	<path fill="#231F20" d="M-4060.145-2018.634c0-28.771-23.519-51.664-52.296-51.664c-28.52,0-51.531,23.018-51.531,51.664
		c0,28.769,23.012,51.914,51.531,51.914C-4083.663-1966.596-4060.145-1989.739-4060.145-2018.634"/>
	<path fill="#231F20" d="M-6114.601-1541.146c0-28.771-23.203-52.295-52.04-52.295c-28.646,0-51.855,23.524-51.855,52.295
		c0,28.646,23.209,51.789,51.855,51.789C-6137.937-1489.482-6114.601-1512.627-6114.601-1541.146"/>
	<path fill="#231F20" d="M-5772.306-1541.146c0-28.771-23.085-52.295-52.104-52.295c-28.586,0-51.789,23.524-51.789,52.295
		c0,28.646,23.203,51.789,51.789,51.789C-5795.391-1489.482-5772.306-1512.627-5772.306-1541.146"/>
	<path fill="#231F20" d="M-5429.882-1541.146c0-28.771-23.211-52.295-51.98-52.295c-28.588,0-52.046,23.524-52.046,52.295
		c0,28.646,23.585,51.789,52.046,51.789C-5453.218-1489.482-5429.882-1512.627-5429.882-1541.146"/>
	<path fill="#231F20" d="M-5087.212-1541.146c0-28.771-23.591-52.295-52.104-52.295c-28.71,0-51.922,23.524-51.922,52.295
		c0,28.646,23.211,51.789,51.922,51.789C-5110.803-1489.482-5087.212-1512.627-5087.212-1541.146"/>
	<path fill="#231F20" d="M-4744.79-1541.146c0-28.771-23.592-52.295-51.98-52.295c-29.092,0-52.295,23.524-52.295,52.295
		c0,28.646,23.203,51.789,52.295,51.789C-4768.382-1489.482-4744.79-1512.627-4744.79-1541.146"/>
	<path fill="#231F20" d="M-4402.939-1541.146c0-28.771-23.146-52.295-51.665-52.295c-28.771,0-51.664,23.524-51.664,52.295
		c0,28.646,23.078,51.789,51.664,51.789C-4426.085-1489.482-4402.939-1512.627-4402.939-1541.146"/>
	<path fill="#231F20" d="M-4060.145-1541.146c0-28.771-23.519-52.295-52.296-52.295c-28.52,0-51.531,23.524-51.531,52.295
		c0,28.646,23.012,51.789,51.531,51.789C-4083.663-1489.482-4060.145-1512.627-4060.145-1541.146"/>
	<path fill="#231F20" d="M4324.44-2972.731c0-28.46-22.512-51.663-51.855-51.663c-28.579,0-51.598,23.203-51.598,51.663
		c0,29.021,23.019,51.981,51.598,51.981C4301.929-2920.75,4324.44-2943.834,4324.44-2972.731"/>
	<path fill="#231F20" d="M4667.053-2972.731c0-28.46-23.15-51.663-51.729-51.663c-28.963,0-51.98,23.203-51.98,51.663
		c0,29.021,23.145,51.981,51.98,51.981C4643.902-2920.75,4667.053-2943.834,4667.053-2972.731"/>
	<path fill="#231F20" d="M5009.915-2972.731c0-28.46-23.782-51.663-52.361-51.663c-28.58,0-51.348,23.203-51.348,51.663
		c0,29.021,22.768,51.981,51.348,51.981C4986.133-2920.75,5009.915-2943.834,5009.915-2972.731"/>
	<path fill="#231F20" d="M5352.015-2972.731c0-28.46-23.144-51.663-51.724-51.663c-28.712,0-52.362,23.203-52.362,51.663
		c0,29.021,23.65,51.981,52.362,51.981C5328.871-2920.75,5352.015-2943.834,5352.015-2972.731"/>
	<path fill="#231F20" d="M5694.371-2972.731c0-28.46-23.27-51.663-51.599-51.663c-28.837,0-52.23,23.203-52.23,51.663
		c0,29.021,23.65,51.981,52.23,51.981C5671.102-2920.75,5694.371-2943.834,5694.371-2972.731"/>
	<path fill="#231F20" d="M6036.477-2972.731c0-28.46-23.651-51.663-51.599-51.663c-28.712,0-51.98,23.203-51.98,51.663
		c0,29.021,23.395,51.981,51.98,51.981C6012.825-2920.75,6036.477-2943.834,6036.477-2972.731"/>
	<path fill="#231F20" d="M6378.958-2972.731c0-28.46-23.145-51.663-52.23-51.663c-28.33,0-51.474,23.203-51.474,51.663
		c0,29.021,23.144,51.981,51.474,51.981C6355.813-2920.75,6378.958-2943.834,6378.958-2972.731"/>
	<path fill="#231F20" d="M4324.44-2495.624c0-28.704-22.512-51.914-51.855-51.914c-28.579,0-51.598,23.209-51.598,51.914
		c0,28.777,23.019,51.922,51.598,51.922C4301.929-2443.577,4324.44-2466.722,4324.44-2495.624"/>
	<path fill="#231F20" d="M4667.053-2495.624c0-28.704-23.15-51.914-51.729-51.914c-28.963,0-51.98,23.209-51.98,51.914
		c0,28.777,23.145,51.922,51.98,51.922C4643.902-2443.577,4667.053-2466.722,4667.053-2495.624"/>
	<path fill="#231F20" d="M5009.915-2495.624c0-28.704-23.782-51.914-52.361-51.914c-28.58,0-51.348,23.209-51.348,51.914
		c0,28.777,22.768,51.922,51.348,51.922C4986.133-2443.702,5009.915-2466.722,5009.915-2495.624"/>
	<path fill="#231F20" d="M5352.015-2495.624c0-28.704-23.144-51.914-51.724-51.914c-28.712,0-52.362,23.209-52.362,51.914
		c0,28.777,23.65,51.922,52.362,51.922C5328.871-2443.702,5352.015-2466.722,5352.015-2495.624"/>
	<path fill="#231F20" d="M5694.371-2495.624c0-28.704-23.27-51.914-51.599-51.914c-28.837,0-52.23,23.209-52.23,51.914
		c0,28.777,23.65,51.922,52.23,51.922C5671.102-2443.577,5694.371-2466.722,5694.371-2495.624"/>
	<path fill="#231F20" d="M6036.477-2495.624c0-28.704-23.651-51.914-51.599-51.914c-28.712,0-51.98,23.209-51.98,51.914
		c0,28.777,23.395,51.922,51.98,51.922C6012.825-2443.577,6036.477-2466.722,6036.477-2495.624"/>
	<path fill="#231F20" d="M6378.958-2495.624c0-28.704-23.145-51.914-52.23-51.914c-28.33,0-51.474,23.209-51.474,51.914
		c0,28.777,23.144,51.922,51.474,51.922C6355.813-2443.577,6378.958-2466.722,6378.958-2495.624"/>
	<path fill="#231F20" d="M4324.44-2018.634c0-28.771-22.512-51.664-51.855-51.664c-28.579,0-51.598,23.018-51.598,51.664
		c0,28.769,23.019,51.914,51.598,51.914C4301.929-1966.596,4324.44-1989.739,4324.44-2018.634"/>
	<path fill="#231F20" d="M4667.053-2018.634c0-28.771-23.15-51.664-51.729-51.664c-28.963,0-51.98,23.018-51.98,51.664
		c0,28.769,23.145,51.914,51.98,51.914C4643.902-1966.596,4667.053-1989.739,4667.053-2018.634"/>
	<path fill="#231F20" d="M5009.915-2018.634c0-28.771-23.782-51.664-52.361-51.664c-28.58,0-51.348,23.018-51.348,51.664
		c0,28.769,22.768,51.914,51.348,51.914C4986.133-1966.721,5009.915-1989.739,5009.915-2018.634"/>
	<path fill="#231F20" d="M5352.015-2018.634c0-28.771-23.144-51.664-51.724-51.664c-28.712,0-52.362,23.018-52.362,51.664
		c0,28.769,23.65,51.914,52.362,51.914C5328.871-1966.721,5352.015-1989.739,5352.015-2018.634"/>
	<path fill="#231F20" d="M5694.371-2018.634c0-28.771-23.27-51.664-51.599-51.664c-28.837,0-52.23,23.018-52.23,51.664
		c0,28.769,23.65,51.914,52.23,51.914C5671.102-1966.596,5694.371-1989.739,5694.371-2018.634"/>
	<path fill="#231F20" d="M6036.477-2018.634c0-28.771-23.651-51.664-51.599-51.664c-28.712,0-51.98,23.018-51.98,51.664
		c0,28.769,23.395,51.914,51.98,51.914C6012.825-1966.596,6036.477-1989.739,6036.477-2018.634"/>
	<path fill="#231F20" d="M6378.958-2018.634c0-28.771-23.145-51.664-52.23-51.664c-28.33,0-51.474,23.018-51.474,51.664
		c0,28.769,23.144,51.914,51.474,51.914C6355.813-1966.596,6378.958-1989.739,6378.958-2018.634"/>
	<path fill="#231F20" d="M4324.44-1541.146c0-28.771-22.512-52.295-51.855-52.295c-28.579,0-51.598,23.524-51.598,52.295
		c0,28.646,23.019,51.789,51.598,51.789C4301.929-1489.482,4324.44-1512.627,4324.44-1541.146"/>
	<path fill="#231F20" d="M4667.053-1541.146c0-28.771-23.15-52.295-51.729-52.295c-28.963,0-51.98,23.524-51.98,52.295
		c0,28.646,23.145,51.789,51.98,51.789C4643.902-1489.482,4667.053-1512.627,4667.053-1541.146"/>
	<path fill="#231F20" d="M5009.915-1541.146c0-28.771-23.782-52.295-52.361-52.295c-28.58,0-51.348,23.524-51.348,52.295
		c0,28.646,22.768,51.789,51.348,51.789C4986.133-1489.357,5009.915-1512.627,5009.915-1541.146"/>
	<path fill="#231F20" d="M5352.015-1541.146c0-28.771-23.144-52.295-51.724-52.295c-28.712,0-52.362,23.524-52.362,52.295
		c0,28.646,23.65,51.789,52.362,51.789C5328.871-1489.357,5352.015-1512.627,5352.015-1541.146"/>
	<path fill="#231F20" d="M5694.371-1541.146c0-28.771-23.27-52.295-51.599-52.295c-28.837,0-52.23,23.524-52.23,52.295
		c0,28.646,23.65,51.789,52.23,51.789C5671.102-1489.482,5694.371-1512.627,5694.371-1541.146"/>
	<path fill="#231F20" d="M6036.477-1541.146c0-28.771-23.651-52.295-51.599-52.295c-28.712,0-51.98,23.524-51.98,52.295
		c0,28.646,23.395,51.789,51.98,51.789C6012.825-1489.482,6036.477-1512.627,6036.477-1541.146"/>
	<path fill="#231F20" d="M6378.958-1541.146c0-28.771-23.145-52.295-52.23-52.295c-28.33,0-51.474,23.524-51.474,52.295
		c0,28.646,23.144,51.789,51.474,51.789C6355.813-1489.482,6378.958-1512.627,6378.958-1541.146"/>
	<path fill="none" stroke="#231F20" stroke-width="17.4833" d="M3294.714,5482.732l338.691,966.875 M3631.003,513.818
		l-285.704,101.684 M-3148.665,5482.732l-339.006,966.875 M-3485.519,513.818l285.698,101.684"/>
	<path fill="#C6C8CA" d="M960.061,5876.188c0,0,0,116.607,0,118.504c-1.771,0-28.08,0-29.593,0c0-1.896,0-158.467,0-159.73
		c1.513,0,24.408,0,25.164,0l120.274,116.352c0,0,0-115.088,0-116.352c1.646,0,23.524,0,23.524,0s4.555,0,5.562,0
		c0,1.514,0,158.086,0,159.73c-1.515,0-22.131,0-23.27,0L960.061,5876.188"/>
	<path fill="#C6C8CA" d="M1257.392,5876.188c0,0,0,116.607,0,118.504c-1.645,0-27.947,0-29.975,0c0-1.896,0-158.467,0-159.73
		c2.152,0,24.914,0,25.547,0l120.148,116.352c0,0,0-115.088,0-116.352c1.77,0,23.906,0,23.906,0s4.173,0,5.436,0
		c0,1.514,0,158.086,0,159.73c-1.52,0-22.261,0-23.268,0L1257.392,5876.188"/>
	<path fill="#C6C8CA" d="M1873.436,5876.188c0,0,0,116.607,0,118.504c-1.646,0-27.954,0-29.469,0c0-1.896,0-158.467,0-159.73
		c1.515,0,24.408,0,25.165,0l119.642,116.352c0,0,0-115.088,0-116.352c2.151,0,24.282,0,24.282,0s4.304,0,5.567,0
		c0,1.514,0,158.086,0,159.73c-1.646,0-22.512,0-23.4,0L1873.436,5876.188"/>
	<path fill="#C6C8CA" d="M1175.694,5834.961c0,0,3.922,0,5.561,0c0,1.514,0,158.086,0,159.73c-1.896,0-28.073,0-29.469,0
		c0-1.896,0-158.467,0-159.73C1153.182,5834.961,1175.694,5834.961,1175.694,5834.961"/>
	<path fill="#C6C8CA" d="M1604.302,5834.961c0,0,4.172,0,5.567,0c0,1.006,0,25.67,0,27.314c-1.771,0-71.334,0-71.334,0
		s0,130.771,0,132.416c-1.514,0-29.468,0-30.856,0c0-1.896,0-132.416,0-132.416s-69.813,0-71.834,0c0-1.645,0-26.309,0-27.314
		C1437.865,5834.961,1604.302,5834.961,1604.302,5834.961"/>
	<path fill="#C6C8CA" d="M1794.515,5834.961c0,0,4.047,0,5.311,0c0,1.006,0,25.67,0,27.314c-1.771,0-127.105,0-127.105,0v35.918
		c0,0,96.756,0,98.525,0c0,1.521,0,25.803,0,27.316c-1.77,0-98.525,0-98.525,0v41.99c0,0,125.592,0,127.105,0
		c0,1.389,0,25.803,0,27.191c-1.771,0-154.547,0-156.316,0c0-1.896,0-158.467,0-159.73
		C1645.278,5834.961,1794.515,5834.961,1794.515,5834.961"/>
	<path fill="#C6C8CA" d="M2183.29,5967.5h-90.812v-105.225h90.812c28.704,0,38.824,28.33,38.824,52.105
		C2222.114,5939.17,2211.994,5967.5,2183.29,5967.5 M2232.354,5858.104c-11.884-15.18-29.086-23.4-49.828-23.4
		c0,0-116.984,0-118.879,0c0,1.521,0,158.092,0,159.863c1.895,0,118.879,0,118.879,0c20.742,0,37.944-8.094,49.828-23.145
		c10.503-14.418,15.938-34.021,15.938-57.166C2248.292,5891.619,2242.857,5872.391,2232.354,5858.104z"/>
	<path fill="#C6C8CA" d="M2448.245,5960.795c0,3.414-3.166,6.705-6.957,6.705h-127.104c-3.416,0-6.449-3.291-6.449-6.705V5868.6
		c0-3.539,2.784-6.58,6.449-6.58h127.104c3.666,0,6.957,2.916,6.957,6.58V5960.795 M2442.553,5834.961h-129.125
		c-18.847,0-34.278,15.049-34.278,33.891v92.074c0,18.84,15.432,33.891,34.278,33.891h129.125c18.59,0,34.021-15.051,34.021-33.891
		v-92.074C2476.573,5850.01,2461.143,5834.961,2442.553,5834.961z"/>
	<path fill="#C6C8CA" d="M2448.245,6140.26c0,3.541-3.166,6.193-6.957,6.193h-127.104c-3.416,0-6.449-2.652-6.449-6.193v-92.074
		c0-3.791,2.784-6.318,6.449-6.318h127.104c3.666,0,6.957,2.527,6.957,6.318V6140.26 M2442.553,6014.295h-129.125
		c-18.847,0-34.278,14.924-34.278,33.891v92.074c0,18.717,15.432,33.891,34.278,33.891h129.125c18.59,0,34.021-15.174,34.021-33.891
		v-92.074C2476.573,6029.471,2461.143,6014.295,2442.553,6014.295z"/>
	<path fill="#C6C8CA" d="M2981.063,6106.365c30.48,12.521,95.49,22.387,146.2,22.387c55.396,0,78.54-19.098,78.54-43.006
		c0-21.373-21.756-34.271-82.712-56.527c-82.08-30.098-141.772-54.131-141.772-107.756c0-55.771,71.959-88.529,182.118-88.529
		c58.937,0,79.421,3.672,117.108,10.627l0.257,52.738c-36.681-7.213-69.688-19.223-120.398-19.223
		c-54.64,0-77.907,17.32-77.907,35.41c0,25.672,35.916,37.938,98.642,60.324c87.141,31.363,135.581,55.27,135.581,108.008
		c0,54.133-60.456,93.207-198.057,93.207c-56.152,0-94.597-3.416-137.6-10.244V6106.365"/>
	<path fill="#C6C8CA" d="M2688.917,5879.854h-65.003V6126.6h65.003c100.42,0,163.403-42.748,163.403-123.182
		C2852.32,5923.232,2789.337,5879.854,2688.917,5879.854 M2864.329,6149.744c-32.244,14.293-93.457,24.031-146.826,24.031h-203.999
		v-339.953h203.999c53.369,0,114.582,9.102,146.826,23.9c78.797,35.285,103.961,92.576,103.961,145.945
		C2968.29,6057.293,2943.126,6114.076,2864.329,6149.744z"/>
	<polyline fill="#B2B4B6" points="-2814.277,7123.699 -2794.739,7243.342 -2793.917,7243.342 -2777.979,7123.699 
		-2724.544,7123.699 -2703.427,7325.547 -2744.464,7325.547 -2753.762,7179.852 -2754.454,7179.852 -2760.777,7230.061 
		-2777.979,7325.547 -2808.967,7325.547 -2828.255,7228.666 -2835.27,7184.148 -2835.27,7179.852 -2835.776,7179.852 
		-2841.594,7325.547 -2884.466,7325.547 -2866.699,7123.699 -2814.277,7123.699 	"/>
	<rect x="-2664.154" y="7123.699" fill="#B2B4B6" width="39.773" height="201.848"/>
	<path fill="#B2B4B6" d="M-2475.206,7162.143c-5.06-1.645-10.121-2.4-15.182-2.4c-34.968,0-50.079,31.994-50.079,62.857
		c0,29.842,15.11,66.773,49.829,66.773c5.061,0,10.372-1.008,15.301-2.527v37.18c-6.259,2.533-11.951,3.541-18.649,3.541
		c-57.232,0-89.352-51.848-89.352-104.717c0-50.078,33.383-101.553,87.64-101.553c7.021,0,13.471,1.139,20.235,3.16v37.686"/>
	<path fill="#B2B4B6" d="M-2396.857,7303.283c0,14.043-10.878,25.422-25.295,25.422c-14.359,0-25.362-11.379-25.362-25.422
		c0-13.91,11.003-24.914,25.362-24.914C-2407.735,7278.369-2396.857,7289.373-2396.857,7303.283"/>
	<path fill="#939598" d="M5879.022,2312.869l20.742,49.322c6.323,17.076,13.279,35.541,17.195,53.625h0.506
		c4.304-18.084,9.614-36.174,16.188-53.625l21.757-49.322h77.018l-77.018,170.609l82.461,182.119h-82.461l-23.02-56.152
		c-6.574-17.709-10.622-35.162-15.432-52.869h-1.514c-5.062,17.834-9.107,35.16-15.432,52.869l-20.992,56.152h-79.803
		l76.262-182.119l-76.262-170.609H5879.022"/>
	<polyline fill="#939598" points="5099.708,3270.256 5107.802,3244.328 5141.06,3142.895 5223.522,3142.895 5136.638,3340.951 
		5136.638,3495.754 5063.284,3495.754 5063.284,3340.951 4974.498,3142.895 5054.808,3142.895 5093.127,3253.305 5099.708,3270.256 
			"/>
	<path fill="#BBBDC0" d="M6698.808,3117.1l-85.12,352.6h71.841l13.279-59.066h73.354l13.404,59.066h77.526l-88.404-352.6H6698.808
		 M6761.284,3355.369h-51.35l15.682-94.096l7.713-53.627h1.139l8.351,53.627L6761.284,3355.369z"/>
	<path fill="#BBBDC0" d="M5955.792,4052.604c0,26.936-17.076,44.393-45.407,44.393v-85.752
		C5939.222,4009.35,5955.792,4027.182,5955.792,4052.604 M5908.234,4305.291c68.931,0,124.452-29.467,124.452-99.023
		c0-30.863-15.432-68.043-46.67-82.211c28.073-17.828,40.471-41.734,40.471-72.848c0-29.336-13.662-60.957-38.7-79.803
		c-24.033-17.959-49.323-19.098-78.415-19.098h-73.604v352.982H5908.234z M5958.443,4198.297c0,29.719-17.833,49.705-47.808,48.566
		v-95.484C5940.235,4150.615,5958.443,4170.094,5958.443,4198.297z"/>
	<path fill="#808285" d="M5101.478,1046.262c-7.969-6.199-16.945-11.891-27.572-11.891c-11.128,0-18.84,7.211-18.84,18.596
		c0,31.238,57.033,33.26,57.033,84.732c0,34.271-19.096,59.824-54.631,59.824c-10.122,0-23.526-3.547-31.871-9.74v-35.791
		c8.345,6.066,16.945,10.113,27.823,10.113c12.647,0,21.749-8.094,21.749-20.992c0-14.799-10.872-19.852-22.006-27.572
		c-21.242-14.793-35.028-29.336-35.028-56.527c0-30.23,17.326-56.789,49.702-56.789c12.648,0,23.02,3.414,33.641,9.488V1046.262"/>
	<polyline fill="#808285" points="5222.766,1003.389 5222.766,1038.924 5184.064,1038.924 5184.064,1080.408 5217.954,1080.408 
		5217.954,1115.951 5184.064,1115.951 5184.064,1158.822 5222.766,1158.822 5222.766,1194.482 5146.502,1194.482 5146.502,1003.389 
		5222.766,1003.389 	"/>
	<polyline fill="#808285" points="5306.614,1003.389 5306.614,1158.822 5343.288,1158.822 5343.288,1194.482 5268.671,1194.482 
		5268.671,1003.389 5306.614,1003.389 	"/>
	<polyline fill="#808285" points="5452.816,1003.389 5452.816,1038.924 5414.622,1038.924 5414.622,1080.408 5448.513,1080.408 
		5448.513,1115.951 5414.622,1115.951 5414.622,1158.822 5453.316,1158.822 5453.316,1194.482 5376.929,1194.482 5376.929,1003.389 
		5452.816,1003.389 	"/>
	<path fill="#808285" d="M5581.815,1039.688c-4.811-1.52-9.107-2.533-13.536-2.533c-31.745,0-45.399,29.975-45.399,59.691
		c0,28.33,13.53,63.115,45.024,63.115c4.804,0,9.101-1.27,13.911-2.658v35.41c-5.566,2.533-11.133,3.289-16.951,3.289
		c-51.848,0-80.941-49.07-80.941-98.898c0-47.551,30.48-96.623,79.428-96.623c6.324,0,12.142,1.77,18.465,3.791V1039.688"/>
	<polyline fill="#808285" points="5713.343,1003.389 5713.343,1038.924 5683.999,1038.924 5683.999,1194.482 5646.062,1194.482 
		5646.062,1038.924 5616.213,1038.924 5616.213,1003.389 5713.343,1003.389 	"/>
	<path fill="#808285" d="M6244.522,1046.262c-7.338-6.199-16.945-12.141-26.811-12.141c-12.272,0-19.479,7.461-19.479,18.846
		c0,31.238,57.417,33.26,57.417,84.732c0,34.271-19.472,59.824-55.015,59.824c-10.245,0-23.525-3.547-32.376-9.74v-36.049
		c8.851,6.324,17.327,9.865,28.712,9.865c12.266,0,21.748-7.713,21.748-20.486c0-14.799-11.378-19.852-22.006-27.572
		c-21.748-14.793-35.285-29.336-35.285-56.783c0-29.975,17.708-56.533,50.085-56.533c11.761,0,22.888,3.414,33.259,9.488v36.549"/>
	<polyline fill="#808285" points="6378.958,1003.389 6378.958,1038.924 6349.497,1038.924 6349.497,1194.482 6311.046,1194.482 
		6311.046,1038.924 6282.21,1038.924 6282.21,1003.389 6378.958,1003.389 	"/>
	<path fill="#808285" d="M6436.38,1003.389l-44.144,191.094h37.438l6.705-32.119h38.318l7.08,32.119h40.223l-46.039-191.094H6436.38
		 M6468.881,1132.514h-26.178l7.713-51.092l4.554-29.344h0.25l4.047,29.344L6468.881,1132.514z"/>
	<path fill="#808285" d="M6591.05,1194.482v-88.529h0.764l33.258,88.529h39.715l-33.516-87.008
		c18.973-10.371,27.949-28.33,27.949-49.322c0-52.361-43.379-54.764-67.662-54.764h-37.938v191.094H6591.05 M6591.05,1034.502h5.061
		c18.973-1.139,25.803,9.99,25.803,24.025c0,15.432-6.955,27.191-24.282,27.191l-6.581-0.375V1034.502L6591.05,1034.502z"/>
	<polyline fill="#808285" points="6784.302,1003.389 6784.302,1038.924 6753.946,1038.924 6753.946,1194.482 6716.386,1194.482 
		6716.386,1038.924 6686.534,1038.924 6686.534,1003.389 6784.302,1003.389 	"/>
	<path fill="#808285" d="M-6070.083,1199.799v-78.92l8.034,0.383c33.201,0,54.949-20.369,54.949-56.027
		c0-61.846-53.624-56.66-61.147-56.66h-37.181v191.225H-6070.083 M-6070.083,1039.812h7.021c15.682,0,20.361,10.879,20.361,24.658
		c0,19.604-9.865,26.309-27.257,25.553v-50.211H-6070.083z"/>
	<path fill="#808285" d="M-5916.737,1005.541c-31.743,0-63.547,26.809-63.547,98.768c0,71.84,31.804,98.65,63.547,98.65
		c31.995,0,63.365-26.811,63.365-98.65C-5853.372,1032.35-5884.742,1005.541-5916.737,1005.541 M-5941.717,1104.184
		c0-17.201,1.713-63.615,24.98-63.615c23.585,0,25.671,46.414,25.671,63.615c0,15.176-2.086,63.74-25.671,63.74
		C-5940.004,1167.924-5941.717,1119.359-5941.717,1104.184z"/>
	<path fill="#808285" d="M-5796.397,1008.574l15.3,91.188c2.028,13.529,2.404,27.059,3.608,40.846h0.506
		c1.704-13.787,2.46-27.316,5.186-40.846l18.273-91.188h28.206l23.076,132.033h0.509c1.138-13.654,1.262-26.811,3.349-40.346
		l13.977-91.562h37.812l-37.812,191.1h-30.797l-18.399-100.926c-0.889-11.635-3.481-23.27-5.062-34.904h-0.506
		c-1.705,11.635-2.717,23.27-5.435,34.904l-20.867,100.926h-30.924l-36.553-191.1h36.553"/>
	<polyline fill="#808285" points="-5543.583,1008.574 -5543.583,1043.734 -5579.756,1043.734 -5579.756,1085.719 
		-5548.011,1085.719 -5548.011,1121.129 -5579.756,1121.129 -5579.756,1164.133 -5542.952,1164.133 -5542.952,1199.799 
		-5615.357,1199.799 -5615.357,1008.574 -5543.583,1008.574 	"/>
	<path fill="#808285" d="M-5469.155,1199.799v-88.277h0.38l31.488,88.277h37.562l-31.488-87.014
		c17.893-10.115,25.671-28.58,25.671-49.322c0-52.361-40.529-54.889-63.614-54.889h-35.476v191.225H-5469.155 M-5469.155,1039.812
		h4.804c18.148-0.889,23.965,9.99,23.965,23.65c0,15.807-6.257,27.441-22.445,27.441l-6.199-0.375v-50.717H-5469.155z"/>
	<path fill="none" stroke="#231F20" stroke-width="27.3258" d="M7826.171,276.055l-14.676-428.483
		c0-388.394-261.664-628.375-602.125-635.141v-6491.502c0-343.935-278.873-622.485-622.873-622.485h-13012.85
		c-343.428,0-622.491,278.551-622.491,622.485v6490.49c-341.026,6.83-602.381,247.76-602.381,636.153l-14.735,428.483
		c-0.374,48.816,11.891,75.631,54.008,75.631h70.321c-4.685,17.195-8.418,35.027-15.939,52.355
		c-11.002,26.814-27.315,50.84-31.495,80.691c-3.224,28.578-45.274,281.525-45.274,649.045l-0.567,5887.982
		c-0.382,508.16,400.212,926.529,908.374,948.283c1144.946,50.08,2290.327,99.658,3435.838,75.5
		c26.494-0.375,60.581-1.389,95.926-7.338c94.668-15.805,189.08-31.994,283.485-49.447c35.983-7.08,108.64-10.619,108.64-10.619
		h5766.004c0,0,72.972,3.539,109.014,10.619c94.221,17.453,188.699,33.643,283.17,49.447c35.792,5.949,70.063,6.963,96.116,7.338
		c1145.703,24.158,2290.643-25.42,3435.332-75.5c507.91-21.754,908.314-440.123,908.314-948.283V1133.777
		c0-367.52-42.365-620.467-46.033-649.045c-4.045-29.852-20.49-53.877-31.617-80.691c-6.707-17.453-11.129-35.16-15.432-52.355
		h70.318C7814.405,351.686,7826.927,324.871,7826.171,276.055z"/>
	<path fill="#4C4C4E" d="M-6520.762,3309.08c0-117.871,27.888-229.42,76.071-329.332l-356.268-0.756
		c-37.878,0-58.046,11.885-69.682,48.689c-61.403,195.146-61.403,367.9,0,562.668c11.503,37.188,30.923,50.967,69.682,50.967
		h357.539C-6492.367,3540.646-6520.762,3428.217-6520.762,3309.08"/>
	<path fill="none" stroke="#231F20" stroke-width="17.4833" d="M-6520.762,3309.08c0-117.871,27.888-229.42,76.071-329.332
		l-356.268-0.756c-37.878,0-58.046,11.885-69.682,48.689c-61.403,195.146-61.403,367.9,0,562.668
		c11.503,37.188,30.923,50.967,69.682,50.967h357.539C-6492.367,3540.646-6520.762,3428.217-6520.762,3309.08z"/>
	<path fill="#4C4C4E" d="M-4653.543,3027.682c-11.634-36.805-30.415-50.586-69.115-50.586h-360.572
		c49.196,100.039,77.591,212.85,77.591,331.729c0,119.135-28.395,231.697-77.591,332.242h360.572
		c38.7,0,57.481-13.787,69.115-50.967C-4591.89,3395.582-4591.89,3222.828-4653.543,3027.682"/>
	<path fill="none" stroke="#231F20" stroke-width="17.4833" d="M-4653.543,3027.682c-11.634-36.805-30.415-50.586-69.115-50.586
		h-360.572c49.196,100.039,77.591,212.85,77.591,331.729c0,119.135-28.395,231.697-77.591,332.242h360.572
		c38.7,0,57.481-13.787,69.115-50.967C-4591.89,3395.582-4591.89,3222.828-4653.543,3027.682z"/>
	<path fill="#4C4C4E" d="M-5763.263,2551.646c118.884,0,230.558,28.074,331.161,76.77l0.382-358.551
		c0-37.562-12.207-57.414-48.82-69.176c-195.142-61.719-367.777-61.719-562.859,0c-36.607,11.762-48.565,31.613-48.565,69.176
		l0.382,357.281C-5991.986,2578.963-5881.009,2551.646-5763.263,2551.646"/>
	<path fill="none" stroke="#231F20" stroke-width="17.4833" d="M-5763.263,2551.646c118.884,0,230.558,28.074,331.161,76.77
		l0.382-358.551c0-37.562-12.207-57.414-48.82-69.176c-195.142-61.719-367.777-61.719-562.859,0
		c-36.607,11.762-48.565,31.613-48.565,69.176l0.382,357.281C-5991.986,2578.963-5881.009,2551.646-5763.263,2551.646z"/>
	<path fill="#4C4C4E" d="M-5763.263,4066.641c-118.753,0-230.75-28.074-330.597-77.145v358.668c0,38.951,13.72,57.166,50.46,69.434
		c195.083,61.213,367.526,61.213,562.859,0c36.614-12.268,50.658-30.482,50.658-69.434v-359.432
		C-5530.685,4038.061-5643.621,4066.641-5763.263,4066.641"/>
	<path fill="none" stroke="#231F20" stroke-width="17.4833" d="M3324.688,5378.146V700.49c0-74.998-57.29-108.764-108.265-108.764
		h-6272.071c-51.158,0-107.875,27.316-107.875,108.764v4677.656c0,82.455,54.124,108.26,107.875,108.26h6272.071
		C3269.294,5486.406,3324.688,5444.414,3324.688,5378.146z M-5763.263,4066.641c-118.753,0-230.75-28.074-330.597-77.145v358.668
		c0,38.951,13.72,57.166,50.46,69.434c195.083,61.213,367.526,61.213,562.859,0c36.614-12.268,50.658-30.482,50.658-69.434v-359.432
		C-5530.685,4038.061-5643.621,4066.641-5763.263,4066.641z"/>
	<path d="M3324.688,5429.996c0,31.113-23.4,56.533-52.736,56.533h-6380.844c-29.026,0-52.611-25.295-52.611-56.533V645.602
		c0-31.238,23.585-56.533,52.611-56.533h6380.844c29.461,0,52.736,25.17,52.736,56.533V5429.996z"/>
	<path d="M3324.688-1597.364c0,31.112-23.4,56.475-52.736,56.475h-6380.844c-29.026,0-52.611-25.231-52.611-56.475v-4784.33
		c0-31.239,23.585-56.468,52.611-56.468h6380.844c29.461,0,52.736,25.229,52.736,56.468V-1597.364z"/>
</g>
</svg>
