<?xml version="1.0" encoding="iso-8859-1"?>
<!-- Generator: Adobe Illustrator 19.0.0, SVG Export Plug-In . SVG Version: 6.00 Build 0)  -->
<svg version="1.1" id="Capa_1" xmlns="http://www.w3.org/2000/svg" xmlns:xlink="http://www.w3.org/1999/xlink" x="0px" y="0px"
	 viewBox="0 0 57 57" style="enable-background:new 0 0 57 57;" xml:space="preserve">
<path style="fill:#0192CB;" d="M54.654,57H2.346C1.326,57,0.5,56.174,0.5,55.154V28.003h56v27.151C56.5,56.174,55.674,57,54.654,57z
	"/>
<path style="fill:#38454F;" d="M56.5,28h-56V1.846C0.5,0.826,1.326,0,2.346,0h52.308c1.02,0,1.846,0.826,1.846,1.846V28z"/>
<path style="fill:#283238;" d="M41.924,24H15.076c-0.87,0-1.576-0.706-1.576-1.576V5.573c0-0.87,0.706-1.576,1.576-1.576h26.848
	c0.87,0,1.576,0.706,1.576,1.576v16.851C43.5,23.294,42.794,24,41.924,24z"/>
<path style="fill:#283238;" d="M41.924,53H15.076c-0.87,0-1.576-0.706-1.576-1.576V33.576c0-0.87,0.706-1.576,1.576-1.576h26.848
	c0.87,0,1.576,0.706,1.576,1.576v17.848C43.5,52.294,42.794,53,41.924,53z"/>
<rect x="6.5" y="35" style="fill:#62B9F4;" width="2" height="8"/>
<rect x="3.5" y="38" style="fill:#62B9F4;" width="8" height="2"/>
<path style="fill:#62B9F4;" d="M50,39L50,39c-0.828,0-1.5-0.672-1.5-1.5l0,0c0-0.828,0.672-1.5,1.5-1.5l0,0
	c0.828,0,1.5,0.672,1.5,1.5l0,0C51.5,38.328,50.828,39,50,39z"/>
<path style="fill:#62B9F4;" d="M50,44L50,44c-0.828,0-1.5-0.672-1.5-1.5l0,0c0-0.828,0.672-1.5,1.5-1.5l0,0
	c0.828,0,1.5,0.672,1.5,1.5l0,0C51.5,43.328,50.828,44,50,44z"/>
<path style="fill:#62B9F4;" d="M51.5,40L51.5,40c0-0.828,0.672-1.5,1.5-1.5l0,0c0.828,0,1.5,0.672,1.5,1.5l0,0
	c0,0.828-0.672,1.5-1.5,1.5l0,0C52.172,41.5,51.5,40.828,51.5,40z"/>
<path style="fill:#62B9F4;" d="M45.5,40L45.5,40c0-0.828,0.672-1.5,1.5-1.5l0,0c0.828,0,1.5,0.672,1.5,1.5l0,0
	c0,0.828-0.672,1.5-1.5,1.5l0,0C46.172,41.5,45.5,40.828,45.5,40z"/>
<g>
	<path style="fill:#283238;" d="M2.79,11.29C2.61,11.47,2.5,11.729,2.5,12c0,0.26,0.11,0.52,0.29,0.71C2.98,12.89,3.24,13,3.5,13
		c0.26,0,0.52-0.11,0.71-0.29C4.39,12.52,4.5,12.26,4.5,12c0-0.271-0.11-0.521-0.29-0.71C3.83,10.92,3.16,10.92,2.79,11.29z"/>
	<path style="fill:#283238;" d="M5.79,11.29C5.61,11.47,5.5,11.729,5.5,12c0,0.26,0.11,0.52,0.29,0.71C5.98,12.89,6.24,13,6.5,13
		c0.26,0,0.52-0.11,0.71-0.29C7.39,12.52,7.5,12.26,7.5,12c0-0.271-0.11-0.521-0.29-0.71C6.83,10.92,6.16,10.92,5.79,11.29z"/>
	<path style="fill:#283238;" d="M8.79,11.29C8.61,11.479,8.5,11.729,8.5,12c0,0.26,0.11,0.52,0.29,0.71C8.98,12.89,9.24,13,9.5,13
		c0.26,0,0.52-0.11,0.71-0.29c0.18-0.19,0.29-0.45,0.29-0.71c0-0.271-0.11-0.521-0.29-0.71C9.83,10.92,9.16,10.92,8.79,11.29z"/>
	<path style="fill:#283238;" d="M2.79,15.29C2.61,15.479,2.5,15.74,2.5,16s0.11,0.52,0.29,0.71C2.98,16.89,3.24,17,3.5,17
		c0.26,0,0.52-0.11,0.71-0.29C4.39,16.52,4.5,16.26,4.5,16s-0.11-0.521-0.29-0.71C3.84,14.92,3.16,14.92,2.79,15.29z"/>
	<path style="fill:#283238;" d="M5.79,15.29C5.61,15.479,5.5,15.74,5.5,16s0.11,0.52,0.29,0.71C5.98,16.89,6.23,17,6.5,17
		c0.26,0,0.52-0.11,0.71-0.29C7.39,16.52,7.5,16.26,7.5,16s-0.11-0.521-0.29-0.71C6.83,14.92,6.15,14.93,5.79,15.29z"/>
	<path style="fill:#283238;" d="M8.79,15.29C8.61,15.479,8.5,15.729,8.5,16c0,0.26,0.11,0.52,0.29,0.71C8.98,16.89,9.24,17,9.5,17
		c0.26,0,0.52-0.11,0.71-0.29c0.18-0.19,0.29-0.45,0.29-0.71s-0.11-0.521-0.29-0.71C9.84,14.92,9.16,14.92,8.79,15.29z"/>
	<path style="fill:#283238;" d="M46.79,11.29c-0.18,0.18-0.29,0.439-0.29,0.71c0,0.26,0.11,0.52,0.29,0.71
		C46.98,12.89,47.24,13,47.5,13c0.26,0,0.52-0.11,0.71-0.29c0.18-0.19,0.29-0.45,0.29-0.71c0-0.271-0.11-0.521-0.29-0.71
		C47.83,10.92,47.16,10.92,46.79,11.29z"/>
	<path style="fill:#283238;" d="M49.79,11.29c-0.18,0.18-0.29,0.439-0.29,0.71c0,0.26,0.11,0.52,0.29,0.71
		C49.98,12.89,50.24,13,50.5,13c0.26,0,0.52-0.11,0.71-0.29c0.18-0.19,0.29-0.45,0.29-0.71c0-0.271-0.11-0.521-0.29-0.71
		C50.83,10.92,50.16,10.92,49.79,11.29z"/>
	<path style="fill:#283238;" d="M53.5,13c0.26,0,0.52-0.11,0.71-0.29c0.18-0.19,0.29-0.45,0.29-0.71c0-0.271-0.11-0.521-0.29-0.71
		c-0.38-0.37-1.05-0.37-1.42,0c-0.18,0.189-0.29,0.439-0.29,0.71c0,0.26,0.11,0.52,0.29,0.71C52.98,12.89,53.24,13,53.5,13z"/>
	<path style="fill:#283238;" d="M46.79,15.29c-0.18,0.189-0.29,0.439-0.29,0.71c0,0.26,0.11,0.52,0.29,0.71
		C46.98,16.89,47.24,17,47.5,17c0.26,0,0.52-0.11,0.71-0.29c0.18-0.19,0.29-0.45,0.29-0.71s-0.11-0.521-0.29-0.71
		C47.84,14.92,47.16,14.92,46.79,15.29z"/>
	<path style="fill:#283238;" d="M49.79,15.29c-0.18,0.189-0.29,0.45-0.29,0.71s0.11,0.52,0.29,0.71C49.98,16.89,50.23,17,50.5,17
		c0.26,0,0.52-0.11,0.71-0.29c0.18-0.19,0.29-0.45,0.29-0.71s-0.11-0.521-0.29-0.71C50.83,14.92,50.15,14.93,49.79,15.29z"/>
	<path style="fill:#283238;" d="M52.79,15.29c-0.18,0.189-0.29,0.439-0.29,0.71c0,0.26,0.11,0.52,0.29,0.71
		C52.98,16.89,53.24,17,53.5,17c0.26,0,0.52-0.11,0.71-0.29c0.18-0.19,0.29-0.45,0.29-0.71s-0.11-0.521-0.29-0.71
		C53.84,14.92,53.16,14.92,52.79,15.29z"/>
</g>
<g>
	<path style="fill:#38454F;" d="M17.5,41c0.256,0,0.512-0.098,0.707-0.293l4-4c0.391-0.391,0.391-1.023,0-1.414
		s-1.023-0.391-1.414,0l-4,4c-0.391,0.391-0.391,1.023,0,1.414C16.988,40.902,17.244,41,17.5,41z"/>
	<path style="fill:#38454F;" d="M18.793,42.293l-2,2c-0.391,0.391-0.391,1.023,0,1.414C16.988,45.902,17.244,46,17.5,46
		s0.512-0.098,0.707-0.293l2-2c0.391-0.391,0.391-1.023,0-1.414S19.184,41.902,18.793,42.293z"/>
	<path style="fill:#38454F;" d="M20.79,40.29c-0.18,0.189-0.29,0.45-0.29,0.71s0.11,0.52,0.29,0.71C20.98,41.89,21.24,42,21.5,42
		c0.27,0,0.52-0.11,0.71-0.29c0.18-0.19,0.29-0.44,0.29-0.71c0-0.271-0.11-0.521-0.29-0.71C21.84,39.92,21.17,39.92,20.79,40.29z"/>
	<path style="fill:#38454F;" d="M27.207,35.293c-0.391-0.391-1.023-0.391-1.414,0l-3,3c-0.391,0.391-0.391,1.023,0,1.414
		C22.988,39.902,23.244,40,23.5,40s0.512-0.098,0.707-0.293l3-3C27.598,36.316,27.598,35.684,27.207,35.293z"/>
</g>
<g>
	<path style="fill:#38454F;" d="M17.5,13c0.256,0,0.512-0.098,0.707-0.293l4-4c0.391-0.391,0.391-1.023,0-1.414
		s-1.023-0.391-1.414,0l-4,4c-0.391,0.391-0.391,1.023,0,1.414C16.988,12.902,17.244,13,17.5,13z"/>
	<path style="fill:#38454F;" d="M18.793,14.293l-2,2c-0.391,0.391-0.391,1.023,0,1.414C16.988,17.902,17.244,18,17.5,18
		s0.512-0.098,0.707-0.293l2-2c0.391-0.391,0.391-1.023,0-1.414S19.184,13.902,18.793,14.293z"/>
	<path style="fill:#38454F;" d="M20.79,12.29c-0.18,0.189-0.29,0.45-0.29,0.71s0.11,0.52,0.29,0.71C20.98,13.89,21.24,14,21.5,14
		c0.26,0,0.52-0.11,0.71-0.29c0.18-0.19,0.29-0.45,0.29-0.71s-0.11-0.521-0.29-0.71C21.84,11.92,21.16,11.92,20.79,12.29z"/>
	<path style="fill:#38454F;" d="M27.207,7.293c-0.391-0.391-1.023-0.391-1.414,0l-3,3c-0.391,0.391-0.391,1.023,0,1.414
		C22.988,11.902,23.244,12,23.5,12s0.512-0.098,0.707-0.293l3-3C27.598,8.316,27.598,7.684,27.207,7.293z"/>
</g>
<g>
</g>
<g>
</g>
<g>
</g>
<g>
</g>
<g>
</g>
<g>
</g>
<g>
</g>
<g>
</g>
<g>
</g>
<g>
</g>
<g>
</g>
<g>
</g>
<g>
</g>
<g>
</g>
<g>
</g>
</svg>
