<?xml version="1.0" encoding="utf-8"?>
<!-- Generator: Adobe Illustrator 16.0.0, SVG Export Plug-In . SVG Version: 6.00 Build 0)  -->
<!DOCTYPE svg PUBLIC "-//W3C//DTD SVG 1.1//EN" "http://www.w3.org/Graphics/SVG/1.1/DTD/svg11.dtd">
<svg version="1.1" id="Layer_1" xmlns="http://www.w3.org/2000/svg" xmlns:xlink="http://www.w3.org/1999/xlink" x="0px" y="0px"
	 width="376.657px" height="398.629px" viewBox="0 0 376.657 398.629" enable-background="new 0 0 376.657 398.629"
	 xml:space="preserve">
<g>
	<path fill="#BDBEC0" d="M66.539,344.145h255.558c6.031,0,10.975-4.939,10.975-10.975V42.502c0-6.039-4.943-10.975-10.975-10.975
		H55.572c-6.038,0-10.974,4.936-10.974,10.975v279.702L66.539,344.145z"/>
	<path fill="#FFFFFF" d="M239.399,91.556h-0.098h-0.324c-1.709,0-3.787-0.665-5.262-1.712l-4.92-2.918
		c-0.99-0.635-2.086-0.989-2.576-0.989h-76.424c-0.484,0-1.558,0.354-2.517,0.952l-5.14,3.057c-1.315,0.945-3.394,1.61-5.094,1.61
		l-92.613-5.782l-2.547-0.162v-2.547V42.502c0-7.551,6.137-13.68,13.687-13.68h266.524c7.551,0,13.688,6.129,13.688,13.68V82.77
		v2.531l-2.531,0.186L239.399,91.556z"/>
	<path fill="#424143" d="M322.097,31.527c6.031,0,10.975,4.939,10.975,10.975v40.26l-93.854,6.084
		c-0.074,0.008-0.166,0.008-0.24,0.008c-1.195,0-2.715-0.537-3.711-1.225l-5.094-3.026c-1.135-0.719-2.744-1.376-3.953-1.376
		h-76.424c-1.21,0-2.812,0.657-3.961,1.376l-5.078,3.026c-1.013,0.688-2.518,1.225-3.719,1.225c-0.075,0-0.166,0-0.242-0.008
		l-92.197-5.789V42.502c0-6.035,4.936-10.975,10.967-10.975H322.097 M322.097,26.112H55.565c-9.039,0-16.386,7.35-16.386,16.39
		v40.555v5.09l5.079,0.317l92.197,5.789l0.174,0.016l0.408,0.008c2.222,0,4.814-0.835,6.771-2.173l4.8-2.85
		c0.635-0.393,1.201-0.594,1.375-0.627l76.235,0.015c0.021,0.026,0.582,0.234,1.059,0.529l5.215,3.117
		c1.654,1.146,4.254,1.988,6.484,1.988h0.174l0.416-0.023l93.852-6.084l5.07-0.324v-5.083v-40.26
		C338.489,33.462,331.136,26.112,322.097,26.112"/>
	<polygon fill="#FFFFFF" points="335.784,346.85 333.079,346.85 44.591,346.85 41.886,346.85 41.886,344.141 41.886,306.582 
		41.886,303.873 44.591,303.873 333.079,303.873 335.784,303.873 335.784,306.582 335.784,344.141 	"/>
	<path fill="#424143" d="M333.071,344.152H44.599v-37.574h288.473V344.152z M338.489,301.155h-5.418H44.599H39.18v5.415v37.582
		v5.418h5.419h288.473h5.418v-5.418V306.57V301.155z"/>
	<path fill="#6E6F72" d="M369.304,18.324c0-6.031-4.943-10.974-10.975-10.974H18.32c-5.29,0-9.72,3.782-10.739,8.767
		c-0.159,0.714-0.227,1.455-0.227,2.207v307.137c0,36.188,29.611,65.814,65.805,65.814H358.36c6.031,0,10.943-4.947,10.943-10.975
		V18.324z M333.071,333.17c0,6.035-4.943,10.975-10.975,10.975H69.743c-2.856,0-3.794-0.574-5.623-2.408l-17.563-17.567
		c-1.603-1.603-1.966-3.306-1.966-5.317V42.502c0-6.039,4.936-10.975,10.975-10.975h266.531c6.031,0,10.975,4.936,10.975,10.975
		V333.17z"/>
	<path fill="none" stroke="#424143" stroke-width="5.4174" d="M369.304,18.324c0-6.031-4.943-10.974-10.975-10.974H18.32
		c-5.29,0-9.72,3.782-10.739,8.767c-0.159,0.714-0.227,1.455-0.227,2.207v307.137c0,36.188,29.611,65.814,65.805,65.814H358.36
		c6.031,0,10.943-4.947,10.943-10.975V18.324z M333.071,333.17c0,6.035-4.943,10.975-10.975,10.975H69.743
		c-2.856,0-3.794-0.574-5.623-2.408l-17.563-17.567c-1.603-1.603-1.966-3.306-1.966-5.317V42.502
		c0-6.039,4.936-10.975,10.975-10.975h266.531c6.031,0,10.975,4.936,10.975,10.975V333.17z"/>
	<path fill="#424143" d="M358.329,7.351c6.031,0,10.975,4.946,10.975,10.974v361.977c0,6.031-4.912,10.975-10.943,10.975H73.159
		c-36.201,0-65.805-29.631-65.805-65.814V18.324c0-0.748,0.075-1.493,0.219-2.203c1.021-4.992,5.457-8.771,10.747-8.771H358.329
		 M358.329,0H18.32C9.659,0,2.109,6.16,0.378,14.647C0.129,15.796,0,17.055,0,18.324v307.137c0,40.344,32.816,73.168,73.159,73.168
		H358.36c10.09,0,18.297-8.227,18.297-18.328V18.324C376.657,8.227,368.435,0,358.329,0"/>
	<polygon fill="#424143" points="221.247,357.061 188.34,379 155.434,357.061 	"/>
	<polygon fill="#010101" points="96.944,51.303 96.944,60.644 94.608,60.644 94.608,48.034 96.604,48.034 106.066,57.221 
		106.066,48.034 107.926,48.034 108.364,48.034 108.364,60.644 106.542,60.644 	"/>
	<path fill="#939598" d="M213.659,62.163h-10.182c-1.473,0-2.676,1.209-2.676,2.679v7.26c0,1.462,1.203,2.676,2.676,2.676h10.182
		c1.465,0,2.674-1.214,2.674-2.676v-7.26C216.333,63.372,215.124,62.163,213.659,62.163 M214.089,72.086
		c0,0.284-0.234,0.519-0.521,0.519h-9.998c-0.287,0-0.521-0.234-0.521-0.519V64.85c0-0.287,0.234-0.51,0.521-0.51h9.998
		c0.287,0,0.521,0.223,0.521,0.51V72.086z"/>
	<polygon fill="#010101" points="120.351,51.303 120.351,60.644 118.015,60.644 118.015,48.034 120.003,48.034 129.465,57.221 
		129.465,48.034 131.332,48.034 131.763,48.034 131.763,60.644 129.949,60.644 	"/>
	<polygon fill="#010101" points="168.856,51.303 168.856,60.644 166.528,60.644 166.528,48.034 168.517,48.034 177.971,57.221 
		177.971,48.034 179.846,48.034 180.283,48.034 180.283,60.644 178.455,60.644 	"/>
	<polygon fill="#010101" points="113.927,48.037 114.35,48.037 114.35,60.644 112.021,60.644 112.021,48.037 	"/>
	<polygon fill="#010101" points="147.664,48.037 148.095,48.037 148.095,50.21 142.465,50.21 142.465,60.644 140.046,60.644 
		140.046,50.21 134.408,50.21 134.408,48.037 	"/>
	<polygon fill="#010101" points="162.629,48.037 163.052,48.037 163.052,50.21 153.053,50.21 153.053,53.037 160.792,53.037 
		160.792,55.202 153.053,55.202 153.053,58.475 163.052,58.475 163.052,60.644 150.748,60.644 150.748,48.037 	"/>
	<path fill="#010101" d="M197.085,49.882c-0.916-1.213-2.268-1.848-3.893-1.848h-9.356v12.606h9.356
		c1.625,0,2.977-0.636,3.893-1.833c0.854-1.13,1.307-2.664,1.307-4.467S197.938,50.996,197.085,49.882 M193.253,58.475h-7.165
		v-8.261h0.061h7.104c2.244,0,3.037,2.223,3.037,4.127S195.497,58.475,193.253,58.475"/>
	<path fill="#010101" d="M213.659,48.037h-10.182c-1.473,0-2.676,1.21-2.676,2.68v7.259c0,1.463,1.203,2.668,2.676,2.668h10.182
		c1.465,0,2.674-1.205,2.674-2.668v-7.259C216.333,49.247,215.124,48.037,213.659,48.037 M214.089,57.961
		c0,0.275-0.234,0.51-0.521,0.51h-9.998c-0.287,0-0.521-0.234-0.521-0.51v-7.236c0-0.287,0.234-0.511,0.521-0.511h9.998
		c0.287,0,0.521,0.224,0.521,0.511V57.961z"/>
	<path fill="#010101" d="M256.034,69.456c2.426,0.952,7.527,1.731,11.52,1.731c4.367,0,6.174-1.508,6.174-3.383
		c0-1.692-1.678-2.683-6.5-4.447c-6.447-2.385-11.17-4.259-11.17-8.491c0-4.38,5.684-6.965,14.359-6.965
		c4.656,0,6.258,0.303,9.205,0.843l0.031,4.149c-2.902-0.552-5.48-1.493-9.479-1.493c-4.293,0-6.113,1.36-6.113,2.755
		c0,2.041,2.811,3.008,7.746,4.773c6.863,2.456,10.688,4.349,10.688,8.498c0,4.263-4.777,7.354-15.57,7.354
		c-4.436,0-7.496-0.302-10.891-0.846V69.456z"/>
	<path fill="#010101" d="M246.853,72.831c-2.547,1.152-7.346,1.882-11.557,1.882h-16.053V47.958h16.053
		c4.211,0,9.01,0.744,11.557,1.89c6.189,2.8,8.207,7.259,8.207,11.491C255.06,65.579,253.058,70.038,246.853,72.831 M233.06,51.59
		h-5.133v19.431h5.133c7.883,0,12.863-3.367,12.863-9.682S240.942,51.59,233.06,51.59"/>
	<path fill="#010101" d="M289.81,63.479c-3.082,0-5.592,2.509-5.592,5.596c0,3.096,2.51,5.604,5.592,5.604
		c3.1,0,5.609-2.509,5.609-5.604C295.419,65.987,292.909,63.479,289.81,63.479 M289.81,73.719c-2.553,0-4.639-2.082-4.639-4.645
		c0-2.569,2.086-4.637,4.639-4.637c2.57,0,4.641,2.067,4.641,4.637C294.45,71.637,292.38,73.719,289.81,73.719"/>
	<path fill="#010101" d="M289.87,69.619h-1.178v2.524h-0.938v-6.047h0.906h0.031h2.01v0.016c0.922,0,1.678,0.827,1.678,1.757
		c0,0.861-0.635,1.603-1.467,1.712l1.512,2.562h-1.057L289.87,69.619z M288.692,68.761h1.889h0.061c0.469,0,0.848-0.427,0.848-0.899
		c0-0.465-0.379-0.914-0.848-0.914l-0.061,0.011l-1.889-0.011V68.761z"/>
</g>
</svg>
