<svg xmlns="http://www.w3.org/2000/svg" viewBox="0 0 191.313 281.809"><path d="M138.673 90.497v33.781c0 3.355-8.074 6.299-20.214 7.956-1.059.145-2.149.279-3.267.404-1.837.204-3.751.381-5.729.527a187.88 187.88 0 0 1-13.763.491c-4.816 0-9.447-.173-13.77-.492-16.979-1.253-29.203-4.758-29.203-8.886V90.497" fill="#656769" stroke="#4f4d4d" stroke-width=".452" stroke-miterlimit="10"/><path d="M134.936 128.109v-8.356c0-1.488-1.471-2.75-2.99-3.129-.498-.124-1.013-.092-1.516.008-3.237.646-7.303 1.198-11.97 1.623-1.059.096-2.149.186-3.267.269-1.837.136-3.751.254-5.729.351-4.321.213-8.949.328-13.763.328-4.813 0-9.442-.115-13.763-.328a230.883 230.883 0 0 1-5.729-.351 201.223 201.223 0 0 1-3.267-.269c-4.667-.425-8.733-.977-11.97-1.623-.503-.1-1.018-.133-1.516-.008-1.519.379-2.99 1.642-2.99 3.129v8.356c4.864 2.368 14.099 4.216 25.465 5.055 4.323.319 8.954.492 13.77.492 4.813 0 9.442-.173 13.763-.491 1.978-.146 3.892-.322 5.729-.527 1.118-.124 2.208-.259 3.267-.404 7.201-.984 12.972-2.419 16.476-4.125z" fill="#2d2f33"/><g fill="#1e2022"><path d="M115.192 118.524c1.118-.083 2.208-.173 3.267-.269v13.979c-1.059.145-2.149.279-3.267.404v-14.114zM76.209 118.524a201.223 201.223 0 0 1-3.267-.269v13.979c1.059.145 2.149.279 3.267.404v-14.114z"/></g><g fill="#5b5b5b"><path d="M115.192 118.524c1.118-.083 2.208-.173 3.267-.269V90.497h-3.267v28.027zM76.209 118.524a201.223 201.223 0 0 1-3.267-.269V90.497h3.267v28.027z"/></g><g><path d="M128.688 80.693H62.367a3.646 3.646 0 0 1-3.635-3.635V3.748A3.646 3.646 0 0 1 62.367.113h66.321a3.646 3.646 0 0 1 3.635 3.635v73.31a3.646 3.646 0 0 1-3.635 3.635z" fill="#575556"/><path d="M138.673 28.85V1.408a1.3 1.3 0 0 0-1.295-1.295H54.023a1.3 1.3 0 0 0-1.295 1.295v32.486c0 4.128 12.223 7.633 29.203 8.886 4.323.319 8.954.492 13.77.492 4.813 0 9.442-.173 13.763-.491 1.978-.146 3.892-.322 5.729-.527 1.118-.124 2.208-.259 3.267-.404 12.14-1.657 20.214-4.601 20.214-7.956l-.001-5.044z" fill="#515253" stroke="#424242" stroke-width=".226" stroke-miterlimit="10"/><path d="M82.892 22.631c-3.805-.104-7.15-.42-9.837-.673-1.09-.103-2.093-.198-3.008-.268l-9.892-1.04c-1.596-.035-2.884-1.353-2.884-2.968V7.472c0-1.637 1.322-2.969 2.948-2.969h70.738c1.625 0 2.948 1.332 2.948 2.969v10.209c0 1.615-1.288 2.934-2.884 2.968l-9.861 1.037c-.946.073-1.95.168-3.039.27-2.687.253-6.032.569-9.817.673l-12.716.124-12.696-.122z" fill="#716c74"/><path d="M95.587 5.622h35.622c1.018 0 1.85.833 1.85 1.85v10.21c0 1.018-.833 1.85-1.85 1.85l-9.983 1.042c-3.239.247-7.572.794-12.863.938l-12.776.123-12.776-.123c-5.291-.144-9.624-.691-12.863-.938l-9.983-1.042a1.855 1.855 0 0 1-1.85-1.85V7.472c0-1.018.833-1.85 1.85-1.85h35.622z" fill="#fcfcfc"/><path d="M73.622 13.417c-.971-2.724-3.094-4.783-5.751-5.665h1.701c1.789 1.153 3.31 3.304 4.078 5.039l-.028.626zM72.24 7.765c.633.721 1.075 1.704 1.41 2.648V7.752l-1.41.013zM70.844 7.752h.788c.735 1.035 1.521 2.293 2.005 3.456v.782c-.729-1.455-1.632-3.25-2.793-4.238zM66.143 17.274c1.525-.414.792-1.602.415-2.661.837 1.093 2.058 2.181 3.346 2.675l-3.761-.014z" fill="#1b1b1b"/><path d="M71.772 10.868c1.801 1.894 2.364 4.447 1.258 5.702-1.106 1.256-3.463.737-5.264-1.156-1.801-1.894-2.364-4.447-1.258-5.703 1.106-1.255 3.463-.738 5.264 1.157z" fill="#1b1b1b"/><path d="M72.745 13.382c-.17.517-.852.62-1.523.23-.671-.391-1.077-1.126-.907-1.643.17-.517.852-.62 1.523-.23.671.39 1.077 1.125.907 1.643" fill="#e3282a"/><path d="M72.67 13.358c-.09.269-.327.41-.655.412-.226 0-.489-.072-.753-.226-.548-.317-.909-.88-.907-1.323 0-.081.011-.157.035-.228.09-.269.327-.41.655-.412.226 0 .489.072.754.226.548.316.909.88.906 1.323a.75.75 0 0 1-.035.228l.15.048a.881.881 0 0 0 .042-.277c-.003-.523-.397-1.114-.984-1.458a1.693 1.693 0 0 0-.833-.248c-.373-.002-.694.178-.805.52a.882.882 0 0 0-.043.277c.003.523.397 1.114.984 1.458.285.166.574.247.833.248.373.002.694-.178.805-.52l-.149-.048z" fill="#e3282a"/><path d="M71.939 13.994c0 .547-.595.991-1.329.991s-1.329-.443-1.329-.99c-.001-.547.595-.991 1.329-.991.733-.001 1.329.443 1.329.99" fill="#1b1b1b"/><path d="M71.867 13.994c0 .247-.134.474-.361.644a1.509 1.509 0 0 1-.897.276c-.353 0-.671-.107-.897-.276-.227-.169-.361-.396-.361-.643s.134-.474.361-.644c.226-.169.544-.276.896-.276.353 0 .671.107.897.276.228.169.362.396.362.643h.143c-.005-.603-.641-1.06-1.401-1.061-.759.001-1.396.458-1.4 1.062.005.603.641 1.06 1.401 1.061.76-.001 1.396-.459 1.401-1.062h-.144z" fill="#1b1b1b"/><path d="M72.686 14.78c0 .471-.541.854-1.209.854-.669 0-1.21-.382-1.21-.853s.541-.854 1.209-.854 1.21.381 1.21.853" fill="#f5e72b"/><path d="M72.623 14.78c0 .211-.121.406-.328.552a1.424 1.424 0 0 1-.818.238 1.44 1.44 0 0 1-.819-.238c-.207-.146-.328-.341-.328-.552 0-.211.121-.406.328-.552.206-.146.497-.239.818-.238.322 0 .612.092.819.238.207.146.328.341.328.552h.127c-.005-.524-.585-.916-1.274-.916-.689 0-1.268.392-1.273.917.005.524.584.916 1.274.916.689 0 1.268-.392 1.273-.917h-.127z" fill="#f5e72b"/><path d="M70.007 12.844c-.172.521-.861.625-1.541.231-.679-.393-1.089-1.135-.917-1.656.172-.521.861-.625 1.541-.232.679.394 1.09 1.136.917 1.657" fill="#36a6de"/><path d="M69.932 12.819c-.091.271-.331.413-.662.416-.228 0-.495-.073-.763-.228-.554-.319-.92-.887-.917-1.333 0-.081.012-.158.035-.229.091-.271.331-.414.663-.416.228 0 .495.073.762.228.554.319.92.887.917 1.333a.742.742 0 0 1-.035.229l.151.049a.9.9 0 0 0 .043-.279c-.003-.527-.402-1.123-.996-1.47a1.705 1.705 0 0 0-.842-.249c-.377-.003-.702.18-.814.525a.9.9 0 0 0-.043.279c.003.527.402 1.123.996 1.47.288.167.581.249.843.249.377.003.701-.18.814-.525l-.152-.049z" fill="#36a6de"/><path d="M69.439 13.466c0 .547-.595.991-1.329.991s-1.329-.444-1.329-.991c-.001-.547.595-.991 1.329-.991.733 0 1.329.443 1.329.991" fill="#1b1b1b"/><path d="M69.367 13.466c0 .247-.134.474-.361.644a1.509 1.509 0 0 1-.897.276c-.353 0-.671-.107-.897-.276-.227-.17-.361-.397-.361-.644s.134-.474.361-.644c.226-.169.544-.276.896-.276.353 0 .671.107.897.276.228.169.362.396.362.644l.143-.001c-.005-.604-.642-1.06-1.401-1.061-.759.001-1.396.458-1.4 1.062.005.603.641 1.061 1.401 1.062.76-.001 1.396-.459 1.401-1.062h-.144z" fill="#1b1b1b"/><path d="M70.03 14.271c0 .471-.541.853-1.21.853-.668 0-1.209-.382-1.209-.853-.001-.471.541-.853 1.209-.854.668 0 1.21.382 1.21.854" fill="#8ec049"/><path d="M69.967 14.271c0 .21-.121.405-.328.552a1.432 1.432 0 0 1-.819.238c-.322 0-.612-.092-.819-.238-.207-.146-.328-.341-.328-.552 0-.211.121-.406.327-.552.206-.146.497-.238.819-.238.322 0 .612.093.819.238.208.146.329.341.329.552l.127-.001c-.006-.524-.585-.916-1.274-.916-.689.001-1.268.392-1.273.917.005.524.584.916 1.273.916s1.268-.392 1.273-.916h-.126z" fill="#8ec049"/><g fill-rule="evenodd" clip-rule="evenodd"><path d="M79.343 11.959c-1.286 0-2.145-.833-2.145-1.842 0-1.009.861-1.851 2.143-1.849h12.115c1.282-.003 2.143.839 2.143 1.849 0 1.009-.859 1.842-2.145 1.842H79.343z" fill="#020203"/><path d="M79.347 8.723c-1.018.002-1.643.623-1.643 1.392 0 .769.621 1.395 1.643 1.392H91.45c1.022.003 1.643-.623 1.643-1.392 0-.769-.625-1.39-1.643-1.392H79.347z" fill="#f1f2f0"/><g fill="#020203"><path d="M78.825 9.242h.592l.821 1.212-.001-1.212h.588v1.738h-.587l-.824-1.212v1.212h-.589V9.242zM84.022 9.421h.573v.234h.309v.171h-.309v1.154h-.573V9.826h-.311v-.171h.311v-.234zM81.153 9.824h.572v1.156h-.572V9.824zM81.151 9.242h.574v.355h-.574v-.355zM91.406 10.393v.245c0 .184-.119.26-.234.26-.114 0-.234-.076-.234-.26v-.249-.241c0-.183.119-.259.233-.259s.234.075.234.259l.001.245zm-.23-.648c-.462 0-.836.29-.836.649 0 .358.374.649.836.649.462 0 .836-.291.836-.649 0-.358-.374-.649-.836-.649zM89.59 9.242h.565v1.737h-.565v-.067a.747.747 0 0 1-.659.043c-.051-.022-.391-.171-.391-.573 0-.305.315-.638.727-.605a.814.814 0 0 1 .324.103l-.001-.638zm.004 1.154v-.207c0-.179-.135-.224-.224-.224-.091 0-.224.045-.224.224v.411c0 .179.133.225.224.225.089 0 .224-.047.224-.225v-.204zM83.064 9.771c.214-.005.648.122.645.58v.628h-.569v-.759c0-.101-.106-.213-.261-.213-.156 0-.272.112-.272.213l.001.759h-.568V9.824h.568v.121a.723.723 0 0 1 .456-.174zM87.712 9.771c.214-.005.648.122.645.58v.628h-.568v-.759c0-.101-.106-.213-.261-.213-.156 0-.272.112-.272.213l.001.759h-.568V9.824h.567v.121a.726.726 0 0 1 .456-.174zM85.437 10.227c-.001-.101.001-.169.038-.227a.239.239 0 0 1 .201-.105c.075 0 .157.034.201.105.036.058.038.126.038.227h-.478zm.475.349v.07c0 .211-.152.259-.236.259-.085 0-.24-.047-.24-.259l.001-.239h1.077c0-.358-.379-.655-.844-.655-.465 0-.842.291-.842.649 0 .358.377.649.842.649.386 0 .712-.201.811-.474h-.569zM92.052 9.656h-.066V9.26h.165c.102 0 .153.035.153.112 0 .071-.049.102-.112.109l.123.174h-.073l-.115-.172h-.075v.173zm.078-.223c.056 0 .105-.004.105-.064 0-.049-.049-.058-.094-.058h-.09v.122h.079z"/><path d="M91.75 9.457c0-.197.175-.342.381-.342.205 0 .379.145.379.342 0 .199-.174.344-.379.344-.206 0-.381-.145-.381-.344zm.381.287c.17 0 .304-.122.304-.287 0-.162-.134-.285-.304-.285-.172 0-.306.123-.306.285 0 .165.135.287.306.287z"/></g></g><g fill="#1e1e1c"><path d="M86.156 18.721a.393.393 0 0 1 .019.5.525.525 0 0 1-.239.168 1.086 1.086 0 0 1-.388.061h-.704v-1.688h.68a1 1 0 0 1 .352.056.53.53 0 0 1 .226.154.35.35 0 0 1-.002.444.489.489 0 0 1-.251.146c.139.03.241.083.307.159zm-1.036-.76v.531h.364a.6.6 0 0 0 .299-.066c.076-.044.114-.115.114-.212a.211.211 0 0 0-.042-.131.276.276 0 0 0-.124-.09.54.54 0 0 0-.2-.033h-.411zm.747 1.214a.244.244 0 0 0 .096-.2.251.251 0 0 0-.102-.211c-.068-.053-.17-.079-.304-.079h-.437v.568h.434c.144 0 .249-.026.313-.078zM86.764 19.431a1.07 1.07 0 0 1-.313-.142l.132-.172c.08.054.172.094.273.121s.197.04.287.04a.664.664 0 0 0 .33-.067.225.225 0 0 0 .113-.206.208.208 0 0 0-.04-.132.357.357 0 0 0-.132-.095 2.267 2.267 0 0 0-.264-.095l-.051-.016a2.239 2.239 0 0 1-.306-.113.514.514 0 0 1-.19-.147.358.358 0 0 1-.072-.229c0-.097.031-.179.092-.246a.558.558 0 0 1 .243-.15c.1-.033.207-.05.322-.05.12 0 .234.013.341.039.108.026.212.069.315.128l-.127.172a1.126 1.126 0 0 0-.255-.106 1.07 1.07 0 0 0-.277-.032.55.55 0 0 0-.265.057.19.19 0 0 0-.106.177c0 .042.012.079.035.109a.336.336 0 0 0 .12.089c.058.028.137.057.24.089l.051.016c.134.04.242.078.322.113.08.036.149.087.207.154a.377.377 0 0 1 .088.259.407.407 0 0 1-.088.267.53.53 0 0 1-.25.164 1.443 1.443 0 0 1-.775.004zM90.237 17.763v1.688h-.271v-1.297c-.03.075-.069.153-.118.235l-.469.789h-.268l-.461-.789-.073-.126a1.687 1.687 0 0 1-.056-.106v1.295h-.265v-1.688h.316l.439.745c.119.201.198.353.238.456.022-.059.052-.126.092-.2s.088-.16.146-.255l.443-.745h.307zM91.016 19.375a.684.684 0 0 1-.3-.302 1.007 1.007 0 0 1-.097-.461c0-.205.041-.373.124-.504a.747.747 0 0 1 .327-.287c.134-.06.282-.09.442-.09a1.324 1.324 0 0 1 .635.154l-.12.183a1.035 1.035 0 0 0-.502-.128c-.209 0-.363.059-.463.177-.099.118-.148.278-.148.482 0 .21.052.375.156.495.104.12.258.18.461.18.102 0 .195-.011.277-.034.083-.023.165-.055.247-.096l.112.174c-.107.054-.21.095-.311.122a1.267 1.267 0 0 1-.336.042c-.202 0-.37-.036-.504-.107zM92.298 18.857v-.208h.843v.208h-.843zM94.893 17.763h.277v1.688h-.277v-.758h-1.078v.758h-.277v-1.688h.277v.727h1.078v-.727zM97.643 17.763v1.688h-.271v-1.297c-.03.075-.069.153-.118.235l-.469.789h-.268l-.461-.789-.073-.126a1.687 1.687 0 0 1-.056-.106v1.295h-.265v-1.688h.316l.439.745c.119.201.198.353.238.456.022-.059.052-.126.092-.2s.088-.16.146-.255l.443-.745h.307zM98.04 18.857v-.208h.843v.208h-.843zM98.91 19.331l.145-.18a.738.738 0 0 0 .176.087c.059.02.125.03.199.03.109 0 .191-.029.247-.086a.323.323 0 0 0 .085-.239v-1.18h.277v1.188c0 .127-.026.23-.08.309a.448.448 0 0 1-.213.171.821.821 0 0 1-.3.052.946.946 0 0 1-.536-.152zM101.552 17.827a.457.457 0 0 1 .325.449.487.487 0 0 1-.083.279.558.558 0 0 1-.25.199 1.022 1.022 0 0 1-.41.074h-.35v.622h-.277v-1.688h.65c.155.001.286.022.395.065zm-.083.709a.294.294 0 0 0 .119-.25.279.279 0 0 0-.11-.238c-.073-.054-.182-.082-.327-.082h-.367v.659h.329c.158 0 .277-.029.356-.089zM103.807 17.763v1.688h-.307l-.858-1.094-.04-.05a.448.448 0 0 0-.038-.049 1.121 1.121 0 0 1-.094-.14v1.334h-.265v-1.688h.292l.882 1.118.051.064a1.183 1.183 0 0 1 .111.166v-1.347h.266z"/></g><g><path d="M77.644 14.912a1.55 1.55 0 0 1-.539-.552c-.11-.204-.119-.446-.029-.724.099-.308.287-.503.564-.585a3.37 3.37 0 0 1 .906-.128l1.251-.006c.322.008.625.053.909.134.284.082.473.277.568.585.013.048.023.096.032.142a.75.75 0 0 1 .013.142c.004.082-.004.162-.023.242s-.046.157-.08.231a.918.918 0 0 1-.21.29c-.088.082-.188.16-.3.234.15.066.28.144.39.231a.71.71 0 0 1 .235.354 1.061 1.061 0 0 1 .052.334c0 .059-.004.118-.01.175a.783.783 0 0 1-.036.164.887.887 0 0 1-.532.582 2.288 2.288 0 0 1-.86.159h-1.534c-.314 0-.603-.053-.867-.159a.887.887 0 0 1-.532-.582.852.852 0 0 1-.036-.164 1.679 1.679 0 0 1-.01-.175c0-.056.006-.112.016-.17.011-.057.025-.112.041-.164a.716.716 0 0 1 .232-.351c.108-.085.236-.163.387-.234v-.005zm.65.34c-.154.065-.229.299-.225.496-.004.204.071.472.225.533.155.062.331.092.529.092l.709-.005c.193.003.367-.025.522-.087.154-.061.231-.329.231-.533 0-.197-.077-.431-.231-.496a1.341 1.341 0 0 0-.522-.097l-.709-.005a1.42 1.42 0 0 0-.529.102zm.014-1.724c-.155.06-.232.361-.232.565 0 .201.077.42.232.479.154.059.329.089.522.089l.702-.006c.193.004.367-.024.522-.083.154-.059.231-.278.231-.479.005-.204-.071-.505-.228-.565a1.483 1.483 0 0 0-.525-.089l-.702-.005a1.493 1.493 0 0 0-.522.094z" fill="#1e1e1c"/><g fill="#1e1e1c"><path d="M100.494 9.405h-1.032v.341c0 .943-.292 1.901-1.58 2.484a1.833 1.833 0 0 0-.257-.247c1.255-.543 1.487-1.422 1.487-2.233v-.345h-1.596v1.23h-.351v-1.23h-.967v-.336h.967V7.998l.474.029c-.005.05-.049.094-.123.104v.939h1.596V7.933l.474.03c-.005.044-.044.084-.123.094v1.012h1.032v.336zM105.176 9.864h-1.669l.084.025c-.011.029-.044.054-.099.059-.133.919-.469 1.738-1.525 2.257a2.705 2.705 0 0 0-.267-.247c1.027-.494 1.313-1.185 1.427-2.094h-1.921v-.33h3.971v.33zm-.489-1.392h-3.031v-.331h3.031v.331zM109.62 9.528a.115.115 0 0 1-.064.05c-.406 1.491-1.23 2.217-2.707 2.627a1.472 1.472 0 0 0-.207-.287c1.343-.336 2.178-1.027 2.489-2.173h-3.269V9.41h3.418l.049-.029.291.147zm-.464-1.056h-2.815v-.326h2.815v.326zM113.156 11.692c.198-.005.727-.025 1.038-.074.005.108.01.247.019.356-.326.035-.82.054-1.022.054h-1.234c-.746 0-1.106-.326-1.106-1.032v-2.88l.484.029c-.01.05-.044.079-.133.089v1.61c.755-.237 1.808-.632 2.449-.978l.251.341a.115.115 0 0 1-.059.015.172.172 0 0 1-.069-.015c-.597.301-1.724.716-2.573.973v.825c0 .499.242.687.751.687h1.204zm.465-3.719c.227.203.474.509.613.726l-.188.143a4.197 4.197 0 0 0-.602-.726l.177-.143zm.607-.296c.223.202.474.503.613.721l-.188.143a4.355 4.355 0 0 0-.602-.721l.177-.143zM118.481 11.553v.286h-3.368v-.286h2.01c.079-.499.212-1.481.261-1.985h-1.881v-.286h1.98l.059-.02.242.119c-.005.02-.029.04-.059.044-.065.518-.223 1.6-.306 2.129h1.062zM119.203 9.815h4.123v.351h-3.936c-.029.049-.093.084-.158.093l-.029-.444z"/></g><g fill="#1e1e1c"><path d="M89.479 13.786c.464.203.953.45 1.403.711a9.475 9.475 0 0 0 .888-1.723l.485.198c-.02.044-.09.069-.178.059a11.467 11.467 0 0 1-.879 1.649c.381.237.776.504 1.076.761l-.237.311a9.081 9.081 0 0 0-1.052-.77 8.076 8.076 0 0 1-2.088 2.02 1.524 1.524 0 0 0-.282-.247 8.044 8.044 0 0 0 2.07-1.951 13.778 13.778 0 0 0-1.392-.726l.186-.292zM95.627 14.936v1.116c0 .262.123.439.484.439h.909c.172 0 .435-.01.597-.035.005.094.01.262.01.336a4.841 4.841 0 0 1-.607.029h-.934c-.602 0-.814-.316-.814-.77v-1.116h-1.413v-.325h1.413v-1.22h-1.057v-.326h3.18v.326h-1.767v1.22h2.236v.326h-2.237zM99.588 15.465v-2.4l.469.029c-.006.044-.04.079-.119.089v2.281h-.35zm2.75-2.593c-.005.05-.04.074-.119.084v1.571c0 1.037-.356 1.985-1.773 2.533a1.417 1.417 0 0 0-.256-.266c1.368-.509 1.674-1.353 1.674-2.267v-1.684l.474.029zM103.855 14.625h4.123v.351h-3.936c-.029.049-.093.084-.158.093l-.029-.444zM110.797 13.504c-.014.04-.054.069-.128.074-.198 1.185-.608 2.434-1.185 3.165a1.593 1.593 0 0 0-.331-.178c.553-.672.988-1.926 1.146-3.165l.498.104zm2.485 3.21c-.232-.864-.806-2.267-1.313-3.181l.321-.153c.518.884 1.097 2.276 1.353 3.19l-.361.144zm-.716-3.971c.226.203.469.509.602.731l-.188.138a3.966 3.966 0 0 0-.602-.73l.188-.139zm.651-.256c.223.207.469.503.608.726l-.193.144a3.916 3.916 0 0 0-.603-.726l.188-.144zM115.325 14.057c.148.301.311.775.371 1.062l-.277.074a5.616 5.616 0 0 0-.361-1.052l.267-.084zm2.949.035c-.01.044-.06.054-.104.049-.384 1.442-1.111 2.326-2.306 2.81a1.294 1.294 0 0 0-.193-.227c1.18-.464 1.857-1.274 2.217-2.746l.386.114zm-1.748-.272c.103.331.198.805.232 1.121l-.292.054a5.955 5.955 0 0 0-.232-1.111l.292-.064zM123.128 13.672a.308.308 0 0 1-.074.069c-.518 1.6-1.328 2.627-2.691 3.319a1.293 1.293 0 0 0-.251-.272c1.293-.627 2.094-1.614 2.503-2.923h-1.763a5.038 5.038 0 0 1-1.106 1.22 1.862 1.862 0 0 0-.281-.227 5.011 5.011 0 0 0 1.575-2.143l.469.133c-.019.049-.079.064-.143.064a7.697 7.697 0 0 1-.316.622h1.738l.059-.029.281.167z"/></g><g fill="#1e1e1c"><path d="M124.242 10.736h-.268v.758h-.188v-.758h-.277v-.157h.733v.157zM125.233 11.495h-.188v-.743l-.163.743h-.188l-.163-.74v.74h-.188v-.915h.276l.17.701.172-.701h.274v.915z"/></g><path d="M84.596 16.918l-.656-2.602c-.012-.02-.081-.412-.417-.415a.655.655 0 0 0-.612.448l-.323 2.569h-.864l.621-3.346c.17-.485.615-.806 1.095-.802.601.006.934.52.956.555l.55 1.203.55-1.203c.022-.035.355-.549.956-.555.48-.004.925.317 1.095.802l.621 3.346h-.864l-.323-2.569a.654.654 0 0 0-.612-.448c-.336.003-.405.395-.417.415l-.656 2.602h-.7z" fill="#1e1e1c"/></g><g><circle cx="64.576" cy="62.636" r="3.258" fill="#2c2827"/><path fill="#554237" d="M67.519 63.677l-.57-3.069-2.943-1.042-2.374 2.028.57 3.07 2.943 1.042z"/><path fill="#635249" d="M67.225 63.573l-.513-2.763-2.649-.937-2.136 1.825.512 2.763 2.649.938z"/></g><g><circle cx="126.46" cy="62.636" r="3.258" fill="#2c2827"/><path fill="#554237" d="M123.517 63.677l.57-3.069 2.943-1.042 2.374 2.028-.57 3.07-2.943 1.042z"/><path fill="#635249" d="M123.811 63.573l.513-2.763 2.649-.937 2.136 1.825-.512 2.763-2.649.938z"/></g><path d="M81.931 42.78c4.323.319 8.954.492 13.77.492 4.813 0 9.442-.173 13.763-.491 0 0 .007-.271.007-.435 0-8.444-6.165-15.29-13.77-15.29-7.605 0-13.77 6.846-13.77 15.29v.434z" fill="#636164" stroke="#59585a" stroke-width=".226" stroke-miterlimit="10"/><g fill="#727072"><circle cx="88.906" cy="39.874" r=".547"/><circle cx="95.518" cy="39.874" r=".547"/><circle cx="102.13" cy="39.874" r=".547"/></g></g><g><path d="M191.174 97.508c.076-.028.138-.084.138-.165v-4.644a2.208 2.208 0 0 0-2.201-2.201h-50.438v33.781c0 3.355-8.074 6.299-20.214 7.956-1.059.145-2.149.279-3.267.404-1.837.204-3.751.381-5.729.527a187.88 187.88 0 0 1-13.763.491c-4.816 0-9.447-.173-13.77-.492-16.979-1.253-29.203-4.758-29.203-8.886V90.497H2.201c-1.21 0-2.201.99-2.201 2.201v4.644c0 .081.062.137.138.165.312.114.549.608.549 1.194v.612c0 .587-.237 1.08-.549 1.194-.076.029-.138.085-.138.167v2.92c0 .081.062.137.138.165.312.114.549.608.549 1.194v.612c0 .587-.237 1.08-.549 1.194-.076.029-.138.085-.138.166v3.061c.378 0 .687.549.687 1.219v.612c0 .671-.309 1.219-.687 1.219v3.061c0 .081.062.137.138.165.312.114.549.608.549 1.194v.612c0 .587-.237 1.08-.549 1.194-.076.029-.138.085-.138.166v2.92c0 .081.062.137.138.165.312.114.549.608.549 1.194v.612c0 .587-.237 1.08-.549 1.194-.076.029-.138.085-.138.167v153.928c0 1.211.991 2.202 2.201 2.202h186.91a2.208 2.208 0 0 0 2.201-2.202V125.68c0-.081-.062-.137-.138-.165-.312-.114-.549-.608-.549-1.194v-.612c0-.587.237-1.08.549-1.194.076-.028.138-.084.138-.165v-2.92c0-.081-.062-.137-.138-.165-.312-.114-.549-.608-.549-1.194v-.612c0-.587.237-1.08.549-1.194.076-.028.138-.084.138-.165v-3.061c-.378 0-.687-.549-.687-1.219v-.612c0-.671.309-1.219.687-1.219v-3.061c0-.081-.062-.137-.138-.165-.312-.114-.549-.608-.549-1.194v-.612c0-.587.237-1.08.549-1.194.076-.028.138-.084.138-.165v-2.92c0-.081-.062-.137-.138-.165-.312-.114-.549-.608-.549-1.194v-.612c0-.592.237-1.085.549-1.199z" fill="#5a5a5c"/><path d="M95.656 215.415c48.753 0 86.717 1.469 88.275 2.937H7.381c1.559-1.468 39.522-2.937 88.275-2.937z" fill="#2f2d2c"/><path d="M81.931 133.655c0 8.444 6.165 15.29 13.77 15.29 7.605 0 13.77-6.846 13.77-15.29 0-.164-.002-.328-.007-.491a187.88 187.88 0 0 1-13.763.491c-4.816 0-9.447-.173-13.77-.492v.492z" fill="#5e5c60" stroke="#59585a" stroke-width=".226" stroke-miterlimit="10"/><circle cx="176.394" cy="146.124" r="4.284" fill="#2c2827"/><path fill="#554237" d="M178.93 147.022l-.491-2.646-2.536-.897-2.046 1.748.491 2.645 2.537.898z"/><path fill="#534839" d="M178.677 146.932l-.442-2.381-2.283-.808-1.841 1.573.442 2.381 2.282.808z"/><circle cx="176.394" cy="271.265" r="4.284" fill="#2c2827"/><path fill="#554237" d="M178.93 272.162l-.491-2.645-2.536-.898-2.046 1.748.491 2.645 2.537.898z"/><path fill="#534839" d="M178.677 272.072l-.442-2.38-2.283-.808-1.841 1.573.442 2.381 2.282.807z"/><circle cx="14.919" cy="146.124" r="4.284" fill="#2c2827"/><path fill="#554237" d="M12.382 147.022l.491-2.646 2.537-.897 2.045 1.748-.491 2.645-2.536.898z"/><path fill="#534839" d="M12.636 146.932l.442-2.381 2.282-.808 1.841 1.573-.441 2.381-2.283.808z"/><circle cx="14.919" cy="271.265" r="4.284" fill="#2c2827"/><path fill="#554237" d="M12.382 272.162l.491-2.645 2.537-.898 2.045 1.748-.491 2.645-2.536.898z"/><path fill="#534839" d="M12.636 272.072l.442-2.38 2.282-.808 1.841 1.573-.441 2.381-2.283.807z"/><g fill="none" stroke="#504e4e" stroke-width=".904" stroke-miterlimit="10"><path d="M155.244 90.497v191.312M36.069 90.497v191.312"/></g><g><path fill="none" stroke="#1e1e1c" stroke-width=".226" stroke-miterlimit="10" d="M58.166 196.999v-6.364M59.823 181.973v4.368"/><path d="M168.576 209.653H22.736a4.352 4.352 0 0 1-4.339-4.339v-47.058a4.352 4.352 0 0 1 4.339-4.339h145.84a4.352 4.352 0 0 1 4.339 4.339v47.058a4.351 4.351 0 0 1-4.339 4.339z" fill="#f1f2f0"/><path d="M18.397 185.171v20.143a4.352 4.352 0 0 0 4.339 4.339h145.84a4.352 4.352 0 0 0 4.339-4.339v-22.738h-2.034v-3.389h-3.841v7.57h-5.197v-4.464h-3.917v-8.355h-5.461v5.4h-3.945.141v8.003h-3.898v-4.284h-6.496v8.935h-5.084v4.632h-6.722v-7.777h-3.145v-11.58h-16.429v7.947H92.135v-3.239H59.823v4.368h-5.837v3.879h-3.314v-8.853h-2.787v-7.115h-4.067v11.056h-4.105v5.665h-5.54v2.26h-6.311v-2.26H22.3v-5.803h-3.903z" fill="#f5ee99"/><g fill-rule="evenodd" clip-rule="evenodd" fill="#020203"><path d="M152.53 203.591h.772l1.07 1.58-.001-1.58h.767v2.267h-.765l-1.076-1.581v1.581h-.768l.001-2.267zM159.308 203.825h.747v.304h.404v.224h-.404v1.505h-.747v-1.505h-.405v-.223h.406l-.001-.305zM155.565 204.351h.747v1.507h-.747v-1.507zM155.564 203.591h.748v.463h-.748v-.463zM168.938 205.092l-.001.319c0 .24-.155.339-.305.339-.149 0-.306-.099-.306-.339l.001-.325v-.314c0-.239.156-.338.305-.338s.305.098.305.338l.001.321v-.001zm-.299-.844c-.602 0-1.09.379-1.09.846 0 .467.488.846 1.09.846.603 0 1.09-.379 1.09-.846 0-.467-.488-.846-1.09-.846zM166.569 203.591h.736v2.266h-.737l-.001-.087a.973.973 0 0 1-.859.057c-.067-.029-.51-.223-.51-.747 0-.398.411-.832.949-.789.177.014.303.073.422.134v-.834zm.006 1.506v-.27c0-.233-.176-.292-.292-.292-.119 0-.293.059-.293.292v.537c0 .233.174.294.293.294.116 0 .292-.061.292-.294v-.267zM158.058 204.281c.279-.007.845.16.841.757v.82h-.741v-.99c0-.131-.138-.277-.341-.277s-.354.146-.354.277l.001.99h-.741l-.001-1.507.741-.001v.158a.947.947 0 0 1 .595-.227zM164.121 204.281c.278-.007.845.16.841.757l-.001.82h-.741v-.99c0-.131-.138-.277-.341-.277s-.355.146-.355.277l.001.99h-.741l.001-1.507.74-.001v.158a.952.952 0 0 1 .596-.227zM161.154 204.876c-.001-.132.002-.22.049-.296a.312.312 0 0 1 .263-.137c.098 0 .204.044.262.137.048.076.05.164.049.296h-.623zm.619.454l.001.091c0 .276-.198.337-.308.337-.11 0-.312-.061-.312-.337l.001-.311h1.405c0-.468-.494-.855-1.101-.855s-1.099.379-1.099.846c0 .468.492.846 1.099.846.503 0 .928-.263 1.058-.618l-.744.001z"/></g><g fill="#1e1e1c"><path d="M143.566 204.762a1.2 1.2 0 0 1-.319.839c-.213.233-.468.349-.766.349s-.554-.116-.767-.349a1.199 1.199 0 0 1-.319-.839 1.2 1.2 0 0 1 .319-.838c.213-.233.468-.35.767-.35s.553.117.766.35c.212.233.319.513.319.838zm-.154 0a1.03 1.03 0 0 0-.274-.721.862.862 0 0 0-.658-.299c-.256 0-.475.1-.658.3s-.274.44-.274.72c0 .281.091.521.272.72a.862.862 0 0 0 .659.299.86.86 0 0 0 .658-.3c.184-.2.275-.439.275-.719zm-.627.207l.18.042c-.073.313-.241.47-.504.47a.458.458 0 0 1-.407-.216.923.923 0 0 1-.142-.516c0-.214.051-.384.154-.512a.494.494 0 0 1 .408-.191c.262 0 .426.151.492.454l-.186.037c-.054-.218-.158-.327-.312-.327a.285.285 0 0 0-.252.147c-.062.098-.093.237-.093.416 0 .162.031.292.094.391.062.099.145.148.249.148.166 0 .273-.114.319-.343zM146.47 205.5l.211-.084c.087.212.233.318.44.318.2 0 .35-.092.451-.276.101-.184.153-.433.156-.748-.137.276-.344.414-.62.414a.633.633 0 0 1-.49-.218.772.772 0 0 1-.198-.54c0-.218.069-.404.208-.559a.682.682 0 0 1 .531-.233c.263 0 .465.102.606.304.14.203.211.481.211.836 0 .372-.075.674-.223.905a.715.715 0 0 1-.635.346c-.322 0-.538-.155-.648-.465zm.697-.607a.463.463 0 0 0 .363-.166.567.567 0 0 0 .147-.388c0-.144-.046-.267-.139-.371s-.215-.155-.367-.155a.453.453 0 0 0-.365.159.585.585 0 0 0-.134.388c0 .164.049.294.149.39a.484.484 0 0 0 .346.143zM148.316 205.5l.211-.084c.087.212.233.318.44.318.2 0 .35-.092.451-.276.101-.184.153-.433.156-.748-.137.276-.344.414-.62.414a.633.633 0 0 1-.49-.218.772.772 0 0 1-.198-.54c0-.218.069-.404.208-.559a.682.682 0 0 1 .531-.233c.263 0 .465.102.606.304.14.203.211.481.211.836 0 .372-.075.674-.223.905a.715.715 0 0 1-.635.346c-.322 0-.537-.155-.648-.465zm.697-.607a.463.463 0 0 0 .363-.166.567.567 0 0 0 .147-.388c0-.144-.046-.267-.139-.371s-.215-.155-.367-.155a.453.453 0 0 0-.365.159.585.585 0 0 0-.134.388c0 .164.049.294.149.39a.484.484 0 0 0 .346.143zM151.522 203.621l-.022.247h-1.031l-.045.745c.156-.167.327-.251.513-.251.197 0 .367.075.51.224.143.149.214.34.214.572a.77.77 0 0 1-.233.579.789.789 0 0 1-.569.226.776.776 0 0 1-.47-.151.699.699 0 0 1-.271-.392l.223-.084c.092.267.266.4.52.4.167 0 .3-.054.399-.162a.598.598 0 0 0 .148-.416c0-.176-.049-.314-.146-.413a.472.472 0 0 0-.35-.148c-.199 0-.363.104-.493.313l-.207-.049.068-1.241h1.242zM145.45 205.918h.25v-2.344h-.25l-.305.166.076.213.229-.099z"/></g><g fill="#1e1e1c"><path d="M56.424 204.165h4.011v.363h-4.011zM130.878 204.698h4.011v.363h-4.011z"/></g><g fill="#c04039"><path d="M101.181 181.977h9.038v5.367h-9.038zM77.851 185.643c2.411 1.2 5.028 3.369 5.028 5.824 0 3.765-3.777 6.816-8.436 6.816h-14.16v-26.136h14.16c4.659 0 8.436 3.271 8.436 7.306-.001 2.637-2.61 4.905-5.028 6.19"/><path d="M85.59 172.148l-2.373 9.433 13.134 12.061-10.271-3.568-4.633 8.21h17.738l3.992-2.561-.904-5.273-13.331-13.586 11.976 2.74v-7.456zM131.799 198.284h-8.813l-5.592-9.246v9.246h-11.072l8.078-12.641-8.982-13.495h8.53l4.519 6.326v-6.326h11.298l-7.906 11.878z"/></g><linearGradient id="a" gradientUnits="userSpaceOnUse" x1="104.932" y1="186.062" x2="104.932" y2="180.696"><stop offset="0" stop-color="#ffe169"/><stop offset="1" stop-color="#d92a41"/></linearGradient><path fill="url(#a)" d="M100.413 180.696h9.038v5.367h-9.038z"/><linearGradient id="b" gradientUnits="userSpaceOnUse" x1="70.812" y1="197.002" x2="70.812" y2="170.867"><stop offset="0" stop-color="#ffe169"/><stop offset=".058" stop-color="#fddb68"/><stop offset=".152" stop-color="#f9ca66"/><stop offset=".272" stop-color="#f1ac5f"/><stop offset=".411" stop-color="#e77e54"/><stop offset=".566" stop-color="#db3c44"/><stop offset=".6" stop-color="#d92a41"/><stop offset=".637" stop-color="#d32b43"/><stop offset=".699" stop-color="#c32f4a"/><stop offset=".776" stop-color="#a83253"/><stop offset=".866" stop-color="#7f345f"/><stop offset=".966" stop-color="#48346a"/><stop offset="1" stop-color="#32336d"/></linearGradient><path d="M77.082 184.362c2.411 1.2 5.028 3.369 5.028 5.824 0 3.765-3.777 6.816-8.436 6.816h-14.16v-26.136h14.16c4.659 0 8.436 3.271 8.436 7.306 0 2.637-2.61 4.905-5.028 6.19" fill="url(#b)"/><linearGradient id="c" gradientUnits="userSpaceOnUse" x1="91.544" y1="197.002" x2="91.544" y2="170.867"><stop offset="0" stop-color="#ffe169"/><stop offset=".058" stop-color="#fddb68"/><stop offset=".152" stop-color="#f9ca66"/><stop offset=".272" stop-color="#f1ac5f"/><stop offset=".411" stop-color="#e77e54"/><stop offset=".566" stop-color="#db3c44"/><stop offset=".6" stop-color="#d92a41"/><stop offset=".637" stop-color="#d32b43"/><stop offset=".699" stop-color="#c32f4a"/><stop offset=".776" stop-color="#a83253"/><stop offset=".866" stop-color="#7f345f"/><stop offset=".966" stop-color="#48346a"/><stop offset="1" stop-color="#32336d"/></linearGradient><path fill="url(#c)" d="M84.821 170.867l-2.372 9.433 13.134 12.061-10.272-3.568-4.632 8.21h17.738l3.992-2.561-.904-5.273-13.332-13.586 11.976 2.74v-7.456z"/><linearGradient id="d" gradientUnits="userSpaceOnUse" x1="117.84" y1="197.002" x2="117.84" y2="170.867"><stop offset="0" stop-color="#ffe169"/><stop offset=".058" stop-color="#fddb68"/><stop offset=".152" stop-color="#f9ca66"/><stop offset=".272" stop-color="#f1ac5f"/><stop offset=".411" stop-color="#e77e54"/><stop offset=".566" stop-color="#db3c44"/><stop offset=".6" stop-color="#d92a41"/><stop offset=".637" stop-color="#d32b43"/><stop offset=".699" stop-color="#c32f4a"/><stop offset=".776" stop-color="#a83253"/><stop offset=".866" stop-color="#7f345f"/><stop offset=".966" stop-color="#48346a"/><stop offset="1" stop-color="#32336d"/></linearGradient><path fill="url(#d)" d="M131.03 197.003h-8.812l-5.593-9.246v9.246h-11.072l8.078-12.641-8.982-13.495h8.53l4.519 6.326v-6.326h11.298l-7.905 11.878z"/><circle cx="117.698" cy="179.769" r="1.369" fill="#657a54"/><circle cx="88.306" cy="175.719" r="1.779" fill="#c94153"/><circle cx="72.28" cy="178.545" r="1.683" fill="#ece155"/><path d="M59.514 190.638h2.853v-2.7h6.044v-4.004h4.773v3.145h3.898v-2.717c2.411 1.2 5.028 3.369 5.028 5.824 0 3.765-3.777 6.816-8.436 6.816h-14.16" fill="#1e1e1c"/><path fill="#c13c4c" d="M67.663 192.448v-5.653l3.149 2.827z"/><path fill="#f2e3a6" d="M68.937 191.305v-3.367l1.875 1.684z"/><path fill="#c13c4c" d="M67.449 181.371v-5.653l3.148 2.827z"/><path fill="#f2e3a6" d="M68.722 180.228v-3.367l1.875 1.684z"/><path d="M81.585 180.228h-4.503v4.134c1.761-.935 3.623-2.392 4.505-4.133" fill="#1e1e1c"/><circle cx="72.495" cy="189.622" r="1.683" fill="#ece155"/><path fill="#1e1e1c" d="M85.57 183.166v-3.939h3.94v3.333h2.711v3.898h4.915v3.078h4.432l.841 4.906-3.992 2.561H80.679l4.632-8.21 10.272 3.568z"/><circle cx="95.583" cy="192.361" r="1.779" fill="#c94153"/><path fill="#1e1e1c" d="M104.649 185.978v-.989h3.587v-4.293h1.215v5.366h-4.802z"/><path fill="#1e1e1c" d="M111.191 180.696h4.474v2.937H118v-1.468h2.297v7.757h2.636v-4.534l2.236 3.207v4.321h3.012v4.087h-5.963l-5.593-9.246v9.246h-11.072l8.078-12.641z"/><circle cx="116.625" cy="187.757" r="1.779" fill="#657a54"/><g fill="#1e1e1c"><path d="M25.009 200.363a.522.522 0 0 1-.263.467c-.176.109-.421.164-.737.164-.286 0-.511-.056-.677-.167a.644.644 0 0 1-.288-.467h.475c.035.209.213.313.534.313a.784.784 0 0 0 .355-.068c.089-.045.133-.106.133-.184 0-.143-.111-.232-.333-.266l-.582-.09a.738.738 0 0 1-.389-.172.415.415 0 0 1-.15-.318c0-.189.08-.338.24-.445s.38-.162.658-.162c.301 0 .534.054.701.162a.509.509 0 0 1 .247.459h-.457c-.007-.094-.056-.168-.149-.223a.702.702 0 0 0-.361-.082c-.279 0-.418.083-.418.249 0 .108.094.177.284.209l.503.085c.229.039.392.092.49.159a.43.43 0 0 1 .184.377zM27.264 200.933h-.49v-.875h-.944v.875h-.49V199h.49v.727h.944V199h.49v1.933zM29.593 199l-.81 1.934h-.421L27.554 199h.493l.526 1.456.524-1.456h.496zM31.898 200.273a.722.722 0 0 1-.34.549c-.181.113-.418.169-.713.169-.322 0-.577-.092-.764-.276-.188-.184-.281-.433-.281-.748 0-.292.093-.529.278-.711.196-.192.467-.289.814-.289.29 0 .528.064.716.19a.604.604 0 0 1 .291.497h-.467a.358.358 0 0 0-.168-.255.623.623 0 0 0-.358-.101.592.592 0 0 0-.459.183c-.112.122-.168.288-.168.496 0 .207.056.371.167.492a.574.574 0 0 0 .444.182c.146 0 .27-.035.372-.105a.345.345 0 0 0 .163-.275h.473zM32.992 200.382h-.889v-.361h.889v.361zM34.996 200.933h-1.791v-.329l1.215-1.271h-1.215V199h1.791v.335l-1.218 1.268h1.218v.33zM37.273 200.374a.47.47 0 0 1-.193.384c-.146.117-.35.175-.611.175h-1.102V199H36.4c.229 0 .421.045.577.135s.234.213.234.369c0 .149-.075.282-.226.398.193.124.288.281.288.472zm-.529-.828c0-.142-.102-.212-.304-.212h-.582v.437h.568c.212 0 .318-.075.318-.225zm.062.783c0-.152-.106-.228-.32-.228h-.628v.501h.628c.214 0 .32-.091.32-.273zM39.532 200.363a.522.522 0 0 1-.263.467c-.176.109-.421.164-.737.164-.286 0-.511-.056-.677-.167a.644.644 0 0 1-.288-.467h.475c.035.209.213.313.534.313a.784.784 0 0 0 .355-.068c.089-.045.133-.106.133-.184 0-.143-.111-.232-.333-.266l-.582-.09a.738.738 0 0 1-.389-.172.415.415 0 0 1-.15-.318c0-.189.08-.338.24-.445.16-.108.38-.162.658-.162.301 0 .534.054.701.162a.509.509 0 0 1 .247.459h-.457c-.007-.094-.056-.168-.149-.223a.702.702 0 0 0-.361-.082c-.279 0-.418.083-.418.249 0 .108.094.177.284.209l.503.085c.229.039.392.092.49.159a.43.43 0 0 1 .184.377zM41.231 200.488a.418.418 0 0 1-.177.335c-.143.115-.349.172-.614.172-.233 0-.411-.052-.534-.156a.536.536 0 0 1-.185-.43v-.188h.49v.125c0 .117.017.199.051.245.034.047.095.07.184.07a.357.357 0 0 0 .216-.058.192.192 0 0 0 .079-.162V199h.49v1.488zM42.434 200.382h-.889v-.361h.889v.361zM44.136 200.488a.418.418 0 0 1-.177.335c-.143.115-.349.172-.614.172-.233 0-.411-.052-.534-.156a.536.536 0 0 1-.185-.43v-.188h.49v.125c0 .117.017.199.051.245.034.047.095.07.184.07a.357.357 0 0 0 .216-.058.192.192 0 0 0 .079-.162V199h.49v1.488zM46.43 199.618a.58.58 0 0 1-.196.447.651.651 0 0 1-.451.179H45.1v.69h-.49V199h1.121c.231 0 .405.055.523.165.118.109.176.26.176.453zm-.473-.024a.244.244 0 0 0-.079-.191.312.312 0 0 0-.219-.071H45.1v.581h.572a.255.255 0 0 0 .203-.103.326.326 0 0 0 .082-.216zM48.702 200.933h-.485l-.963-1.35v1.35h-.49V199h.483l.964 1.326V199h.49v1.933zM25.473 204.116h-.49v-1.57l-.425 1.57h-.49l-.425-1.562v1.562h-.49v-1.934h.717l.443 1.481.448-1.481h.713v1.934zM27.956 204.116h-.501l-.167-.387h-.883l-.163.387h-.498l.83-1.934h.565l.817 1.934zm-.784-.719l-.314-.752-.294.752h.608zM30.244 203.082c0 .29-.09.537-.268.74-.17.196-.369.294-.595.294H28.27v-1.934h1.147c.19 0 .367.074.533.22a.871.871 0 0 1 .294.68zm-.493.032a.711.711 0 0 0-.121-.411c-.085-.124-.192-.186-.32-.186h-.549v1.268h.451c.159 0 .289-.06.389-.179.1-.119.15-.284.15-.492zM32.417 204.116h-1.781v-1.934h1.726v.332h-1.235v.44h1.14v.332h-1.14v.499h1.291v.331zM34.166 204.116h-.49v-1.934h.49v1.934zM36.535 204.116h-.485l-.963-1.35v1.35h-.49v-1.934h.483l.964 1.326v-1.326h.49v1.934zM39.234 203.671a.418.418 0 0 1-.177.335c-.143.115-.349.172-.614.172-.233 0-.411-.052-.534-.156a.536.536 0 0 1-.185-.43v-.188h.49v.125c0 .117.017.199.051.245.034.047.095.07.184.07a.357.357 0 0 0 .216-.058.192.192 0 0 0 .079-.162v-1.441h.49v1.488zM41.757 204.116h-.501l-.167-.387h-.883l-.163.387h-.498l.83-1.934h.565l.817 1.934zm-.784-.719l-.314-.752-.294.752h.608zM43.888 202.801a.58.58 0 0 1-.196.447.651.651 0 0 1-.451.179h-.683v.69h-.49v-1.934h1.121c.231 0 .405.055.523.165.117.109.176.26.176.453zm-.474-.024a.244.244 0 0 0-.079-.191.313.313 0 0 0-.219-.072h-.559v.581h.572a.255.255 0 0 0 .203-.103.322.322 0 0 0 .082-.215zM46.297 204.116h-.501l-.167-.387h-.883l-.163.387h-.498l.83-1.934h.565l.817 1.934zm-.785-.719l-.314-.752-.294.752h.608zM48.519 204.116h-.485l-.963-1.35v1.35h-.49v-1.934h.483l.964 1.326v-1.326h.49v1.934z"/></g><g fill="#1e1e1c"><path d="M39.119 165.713v-.164h-.035a6.424 6.424 0 0 1-.318.646l.094.03c-.005.03-.034.055-.094.06v2.626h-.312v-2.204a4.335 4.335 0 0 1-.387.507 2.345 2.345 0 0 0-.184-.278c.333-.368.695-.978.923-1.569l.313.109v-.034h.551c.03-.144.06-.313.089-.482h-.477v-.26h.516c.025-.144.045-.283.06-.407l.377.035c-.005.04-.034.054-.094.059l-.045.313h.864v.74h.377v.273h-2.218zm-.034-1.271c-.015.04-.059.05-.104.045a6.18 6.18 0 0 1-.908 1.082 1.661 1.661 0 0 0-.189-.248c.303-.268.645-.69.824-1.023l.377.144zm2.144 3.868h-.725v.601h-.303v-.601H38.99v-.268h.382v-.477h-.209v-.268h1.038v-.328h-.884v-.988h1.703v.988h-.427c-.015.02-.04.035-.089.045v.283h.636v.268h-.636v.477h.725v.268zm-1.643-2.086v.501h1.152v-.501h-1.152zm.055 1.817h.561v-.477h-.561v.477zm1.038-3.083h-.621l-.085.482h.705v-.482zm1.847 1.028v.308h-.457v2.21c0 .372-.139.407-.849.407a1.256 1.256 0 0 0-.099-.327c.149.005.288.01.392.01.214 0 .238 0 .238-.089v-2.21H41.2v-.308h1.326zm-.09-1.435v.308h-1.152v-.308h1.152zM45.565 168.484h2.1v.298h-4.513v-.298h2.07v-.571h-1.341v-.278h1.341v-.507H44.05a3.808 3.808 0 0 1-.556.71 1.714 1.714 0 0 0-.253-.188c.338-.313.68-.844.879-1.37l.392.129c-.015.03-.049.045-.109.045a4.116 4.116 0 0 1-.184.387h1.003v-.566l.442.03c-.005.035-.03.06-.099.069v.467h1.783v.288h-1.783v.507h1.395v.278h-1.395v.57zm1.485-3.963v1.748h-3.282v-1.748h3.282zm-.343.74v-.462h-2.611v.462h2.611zm0 .73v-.466h-2.611v.466h2.611zM50.08 166.165l.174.01c-.005.03-.005.075-.005.114-.035 1.718-.075 2.274-.203 2.448-.104.149-.238.159-.507.159-.104 0-.218 0-.338-.01a.857.857 0 0 0-.084-.308c.214.015.412.019.492.019.074 0 .114-.01.154-.064.09-.119.129-.625.159-2.055h-.69c-.06.953-.218 1.852-.695 2.437a1.028 1.028 0 0 0-.258-.218c.586-.7.645-1.986.67-3.252h-.631v-.318h.938v-.82l.427.025c-.005.035-.03.06-.099.069v.725h.973v.318h-1.286c-.005.238-.01.481-.02.72h.829zm2.835-.611h-.367c-.134.824-.342 1.509-.681 2.065.283.447.636.794 1.087 1.008-.079.07-.184.194-.233.288a2.837 2.837 0 0 1-1.053-.993c-.318.417-.725.75-1.251.998a1.417 1.417 0 0 0-.179-.283 2.897 2.897 0 0 0 1.252-1.023c-.229-.432-.397-.929-.527-1.48a3.645 3.645 0 0 1-.342.621 1.917 1.917 0 0 0-.263-.209c.368-.501.641-1.375.794-2.249l.427.094c-.01.034-.045.055-.109.055a8.338 8.338 0 0 1-.188.794h1.633v.314zm-1.728 0c-.01.025-.015.05-.025.075.114.611.283 1.181.521 1.663.258-.477.422-1.057.531-1.738h-1.027zM54.59 166.284v1.624c.387.591 1.097.591 1.991.591.536 0 1.167-.015 1.554-.04-.04.079-.099.238-.109.337-.342.015-.889.025-1.38.025-1.023 0-1.703 0-2.204-.616-.243.218-.506.442-.72.611.005.045-.01.064-.045.079l-.194-.368c.238-.159.531-.387.785-.606v-1.32h-.73v-.318h1.052zm-.74-1.862c.333.214.72.542.889.785l-.263.223c-.164-.248-.541-.586-.874-.809l.248-.199zm4.21 2.204h-1.32c.208.66.64 1.102 1.331 1.306a1.043 1.043 0 0 0-.214.278c-.675-.233-1.107-.685-1.355-1.361-.144.467-.501.959-1.341 1.341a1.155 1.155 0 0 0-.223-.248c.899-.372 1.192-.869 1.286-1.316h-1.331v-.308h1.365c.005-.06.005-.119.005-.174v-.571h-1.207v-.308h1.976l-.253-.114a5.42 5.42 0 0 0 .496-.854l.397.149c-.015.034-.05.045-.109.049a6.386 6.386 0 0 1-.516.77h.864v.308h-1.316v.571c0 .055 0 .114-.005.174h1.47v.308zm-2.344-1.36c-.064-.229-.253-.581-.451-.834l.283-.119c.203.248.402.586.467.814l-.299.139zM63.285 167.491v.283h-1.216v.765c0 .184-.04.273-.189.323-.154.049-.402.049-.814.049a1.232 1.232 0 0 0-.104-.298c.318.01.596.01.68.01.079-.005.104-.03.104-.09v-.76h-3.019v-.283h3.019v-.328l.422.02c-.01.035-.034.055-.099.07v.238h1.216zm-2.453-2.215v-.303h-2.06v-.273h2.06v-.397l.427.03c-.005.035-.03.06-.099.069v.298h2.09v.273h-2.09v.303h1.499v1.365h-.526c.362.139.749.342.963.501l-.199.199a3.111 3.111 0 0 0-.303-.208c-1.276.04-2.646.074-3.49.084-.01.04-.04.06-.075.064l-.104-.332c.492 0 1.167-.005 1.907-.015v-.293h-1.464v-1.365h1.464zm-.456 3.376c-.179-.199-.541-.471-.844-.66l.228-.199c.303.174.675.437.854.631l-.238.228zm-.69-3.138v.328h1.147v-.328h-1.147zm0 .889h1.147v-.338h-1.147v.338zm2.646-.889H61.16v.328h1.172v-.328zm0 .889v-.338H61.16v.338h1.172zm-1.172.238v.288l1.018-.015a3.99 3.99 0 0 0-.417-.164l.119-.109h-.72zM68.142 164.655v3.773c0 .457-.219.462-1.157.452a1.274 1.274 0 0 0-.119-.323c.184.005.363.01.507.01.412 0 .437 0 .437-.139v-1.077h-1.43v1.509h-.323v-1.509h-1.305c-.075.566-.244 1.147-.636 1.584a1.238 1.238 0 0 0-.253-.224c.556-.625.611-1.519.611-2.229v-1.827h3.668zm-3.341 1.828c0 .174-.005.357-.02.551h1.276v-.869h-1.256v.318zm1.256-1.51h-1.256v.879h1.256v-.879zm1.753.879v-.879h-1.43v.879h1.43zm-1.43 1.182h1.43v-.869h-1.43v.869zM73.114 165.609c-.01.02-.02.045-.045.064-.064 1.43-.203 2.328-.397 2.681-.199.343-.486.357-.651.357-.193 0-.546-.045-.888-.114.01-.099 0-.248-.015-.352.372.084.755.124.869.124.179 0 .278-.045.382-.233.149-.303.273-1.137.323-2.254h-1.589c-.248 1.187-.74 2.17-1.638 2.845a1.722 1.722 0 0 0-.283-.218c.859-.645 1.311-1.494 1.549-2.626H69.36v-.333h1.44c.06-.353.09-.67.114-1.083l.492.04c-.005.055-.05.085-.124.09-.03.362-.055.636-.109.953h1.609l.079-.03.253.089zM78.353 165.569a.171.171 0 0 1-.079.06c-.223.536-.616 1.211-1.038 1.618a2.862 2.862 0 0 0-.298-.178c.377-.338.685-.834.849-1.231l-1.901.496v1.286c0 .487.293.651.69.651h.809c.203 0 .546-.03.74-.055 0 .109.005.244.01.348a7.4 7.4 0 0 1-.735.04h-.83c-.625 0-1.042-.293-1.042-.978v-1.202l-1.251.323-.084-.333 1.335-.332v-1.509l.481.02c-.01.06-.055.089-.124.099v1.296l2.1-.541.055-.04.313.162zM79.65 164.943c.348.407.7 1.008.854 1.41l-.343.173c-.139-.392-.491-1.013-.824-1.42l.313-.163zm3.475.06c-.015.045-.05.064-.129.064-.501 1.852-1.455 2.939-2.85 3.575a1.56 1.56 0 0 0-.253-.263c1.365-.601 2.284-1.634 2.756-3.53l.476.154zM84.06 166.339h4.146v.352h-3.957a.224.224 0 0 1-.159.094l-.03-.446z"/></g><g fill="#1e1e1c"><path d="M62.106 202.134c.923 0 2.085-.094 2.428-.209l.119.313c-.055.015-.129.079-.233.169-.501.417-1.226.938-1.817 1.346.69-.144 2.1-.357 3.029-.342v.353c-.069-.005-.149-.005-.223-.005-.268 0-.551.02-.76.075-.427.119-1.46.73-1.46 1.41 0 .308.189.412.258.447.223.124.765.214 1.231.244l-.109.347c-1.202-.094-1.753-.372-1.753-1.008 0-.641.695-1.182 1.182-1.44-.849.09-1.688.263-2.512.477l-.064-.338c.288-.06.492-.129.651-.223.372-.218 1.47-1.023 1.881-1.415-.308.049-.928.099-1.211.114-.144.01-.343.015-.472.025a.196.196 0 0 1-.129.06l-.036-.4zM66.362 202.904c.402 0 .769-.035.933-.075.01-.297.015-.462.035-.914l.511.04c-.01.055-.055.09-.139.1-.02.218-.04.526-.05.71l.154.06c-.119.238-.169.531-.199.71.546-.512 1.152-.874 1.564-.874.466 0 .7.327.7.904 0 .064-.005.129-.01.193a21.653 21.653 0 0 0-.084 1.455c0 .298.034.457.243.457.149 0 .447-.149.66-.333.01.099.05.303.069.377-.253.184-.551.323-.779.323-.417 0-.556-.248-.556-.764 0-.259.09-1.624.09-1.628 0-.432-.149-.626-.392-.626-.372 0-.998.402-1.514.948 0 .72 0 1.603.005 2.279h-.348c.005-.288 0-1.703.005-2.02-.174.347-.512.799-.904 1.196l-.179-.313c.412-.387.874-.988 1.092-1.499 0-.144.005-.278.01-.437-.174.04-.536.079-.914.084l-.003-.353zM71.596 206.101c-.154-.357-.214-1.097-.214-1.748 0-.66.104-1.489.268-2.319l.481.094c-.01.05-.06.085-.129.09a9.516 9.516 0 0 0-.288 2.14c0 .377.005.755.045.938.109-.298.308-.775.412-1.008l.223.208c-.164.338-.511 1.093-.511 1.326 0 .07.015.144.05.238l-.337.041zm1.261-2.924c.417.005.834.01 1.251-.02-.02-.427-.034-.794-.045-1.162l.501.015c-.005.05-.049.09-.129.104.005.318.015.641.025 1.018.392-.04.71-.109.973-.199l.045.347a4.76 4.76 0 0 1-1.003.179c.02.551.045 1.132.06 1.45.377.154.755.397 1.013.631l-.194.318a2.98 2.98 0 0 0-.804-.566c-.005.422-.085.894-.829.894-.581 0-.968-.278-.968-.715 0-.507.511-.73.968-.73.154 0 .318.02.472.064-.015-.313-.045-.834-.07-1.32-.154.01-.362.015-.507.015h-.755l-.004-.323zm1.361 1.951a1.706 1.706 0 0 0-.492-.089c-.303 0-.666.109-.666.422 0 .278.298.417.661.417.367 0 .501-.179.501-.576l-.004-.174zM80.321 204.259v2.13h-.343v-.209h-2.14v.199h-.328v-1.638a6.037 6.037 0 0 1-1.281.586 1.148 1.148 0 0 0-.189-.293 5.704 5.704 0 0 0 1.892-.988 5.084 5.084 0 0 0-.805-.7l.248-.203c.283.189.615.457.819.68a4.25 4.25 0 0 0 .968-1.246h-1.579a5.58 5.58 0 0 1-1.276 1.077 1.059 1.059 0 0 0-.238-.253c.809-.462 1.39-1.112 1.683-1.648l.447.075c-.01.04-.045.064-.109.064a4.234 4.234 0 0 1-.263.382h1.529l.06-.019.243.129a.155.155 0 0 1-.064.045c-.298.725-.804 1.346-1.4 1.832h2.126zm-2.483 1.614h2.14v-1.306h-2.14v1.306zM84.924 201.906c-.02.03-.055.045-.114.04a5.538 5.538 0 0 1-.556.655h1.34v.308h-4.488v-.308h1.361a3.917 3.917 0 0 0-.581-.7l.293-.134c.228.203.487.496.606.7l-.293.134h1.728l-.268-.119a4.85 4.85 0 0 0 .561-.735l.411.159zm-1.916 1.469v.005h.169v2.612c0 .353-.164.382-.869.382-.02-.09-.07-.214-.114-.298.109.005.218.005.308.005.353 0 .353 0 .353-.094v-.705h-1.087v1.107h-.318v-3.014h1.558zm-.154.293h-1.087v.531h1.087v-.531zm-1.087 1.346h1.087v-.546h-1.087v.546zm1.976-1.589l.417.03c-.005.03-.035.055-.099.064v1.971h-.318v-2.065zm1.474 2.547c0 .387-.154.417-.988.417a1.209 1.209 0 0 0-.124-.323c.184.005.357.01.481.01.273 0 .303 0 .303-.104v-2.701l.427.02c-.01.035-.035.064-.099.069v2.612zM90.292 203.892c-.01.005-.02.01-.03.01a.126.126 0 0 1-.075-.03c-.377.124-.929.328-1.34.506.01.114.015.244.015.387 0 .159-.005.338-.015.531l-.363.02c.015-.179.025-.407.025-.601 0-.075 0-.144-.005-.199-.561.273-1.018.605-1.018.903 0 .288.342.427 1.028.427.481 0 .929-.01 1.246-.049l.005.333c-.293.03-.74.04-1.251.04-.953 0-1.375-.229-1.375-.735 0-.437.575-.859 1.32-1.231-.03-.313-.169-.467-.367-.467-.363 0-.74.203-1.187.7a8.273 8.273 0 0 1-.546.541l-.243-.244c.496-.437.963-.854 1.251-1.832l-.278.005h-.829v-.323c.303.005.655.005.859.005l.338-.005c.054-.228.099-.442.134-.71l.487.06c-.01.049-.05.079-.124.089-.034.199-.079.372-.124.551a6.771 6.771 0 0 0 1.708-.288l.06.333c-.621.194-1.37.263-1.862.278-.119.372-.244.67-.357.839h.005c.218-.194.546-.323.799-.323.338 0 .551.243.616.645.417-.188.943-.392 1.34-.546l.153.38zM90.81 204.155c.313-.248.779-.685 1.157-1.077l.154.253c-.338.367-.74.775-1.033 1.033.005.015.005.03.005.04 0 .035-.015.06-.04.079l-.243-.328zm3.967.452v1.331h.605v.298H90.81v-.298h.611v-1.331h3.356zm-3.674-2.692c.318.109.73.293.938.437l-.164.263a4.79 4.79 0 0 0-.933-.467l.159-.233zm.635 2.97v1.053h.69v-1.053h-.69zm1.907-2.245h-.646c-.169.328-.362.631-.576.854a1.386 1.386 0 0 0-.248-.189c.347-.347.66-.938.839-1.539l.387.119c-.015.03-.049.045-.104.045a4.502 4.502 0 0 1-.174.442h1.941l.065-.005.199.02c0 .03-.169.635-.383 1.013a4.27 4.27 0 0 1-.293-.079 4.57 4.57 0 0 0 .258-.68h-.923v.149c-.005.244.144 1.098 1.455 1.465a6.57 6.57 0 0 0-.184.273c-.968-.288-1.36-.953-1.44-1.271-.075.313-.462.963-1.569 1.271a1.332 1.332 0 0 0-.184-.253c1.47-.382 1.579-1.231 1.579-1.485v-.15zm-.209 2.245h-.7v1.053h.7v-1.053zm1.013 0h-.7v1.053h.7v-1.053zM95.96 202.536c.308.02.72.02 1.057.02.224 0 .477-.005.685-.01-.005-.238-.01-.516-.01-.69l.502.025c-.005.06-.05.089-.134.104-.005.079 0 .462 0 .546.581-.03 1.157-.079 1.648-.194l.045.327c-.486.109-1.063.159-1.693.189.005.298.01.605.02.914.481-.03.998-.094 1.4-.194l.04.323c-.417.09-.938.149-1.435.174l.04.829c.457.149.944.407 1.46.775l-.219.303a4.835 4.835 0 0 0-1.231-.73c0 .079.005.169.005.233-.005.472-.288.745-.889.745-.631 0-1.092-.259-1.092-.725 0-.477.541-.74 1.097-.74.164 0 .338.015.521.06-.005-.214-.015-.472-.019-.74-.159.005-.338.01-.482.01-.849 0-1.087-.134-1.087-.422 0-.189.144-.342.462-.546l.238.154c-.224.124-.343.233-.343.333 0 .149.233.179.864.179.109 0 .223 0 .333-.005l-.03-.918c-.214.01-.462.01-.685.01-.318 0-.77 0-1.068-.01v-.329zm1.837 2.587a2.075 2.075 0 0 0-.556-.079c-.378 0-.76.154-.76.452 0 .293.348.437.779.437.392 0 .542-.174.542-.522l-.005-.288zM100.563 202.904c.402 0 .769-.035.933-.075.01-.297.015-.462.035-.914l.511.04c-.01.055-.055.09-.139.1-.02.218-.04.526-.05.71l.154.06c-.119.238-.169.531-.199.71.546-.512 1.152-.874 1.564-.874.466 0 .7.327.7.904 0 .064-.005.129-.01.193a21.653 21.653 0 0 0-.084 1.455c0 .298.034.457.243.457.149 0 .447-.149.66-.333.01.099.05.303.069.377-.253.184-.551.323-.779.323-.417 0-.556-.248-.556-.764 0-.259.09-1.624.09-1.628 0-.432-.149-.626-.392-.626-.372 0-.998.402-1.514.948 0 .72 0 1.603.005 2.279h-.348c.005-.288 0-1.703.005-2.02-.174.347-.511.799-.904 1.196l-.179-.313c.412-.387.874-.988 1.092-1.499 0-.144.005-.278.01-.437-.174.04-.536.079-.914.084l-.003-.353zM108.369 202.854c-.422.149-.983.243-1.524.283-.209 1.137-.511 2.269-.909 3.103l-.357-.134c.407-.8.705-1.827.899-2.954-.099.005-.765.01-.914.005l-.005-.338c.079.005.184.005.298.005.045 0 .541 0 .67-.005.049-.318.099-.666.129-.968l.511.05c-.005.054-.075.094-.144.099-.03.218-.079.486-.124.789.487-.045.978-.129 1.39-.278l.08.343zm1.321 3.307c-.149.005-.303.01-.457.01-.467 0-.909-.035-1.177-.109-.352-.099-.556-.357-.551-.685.005-.218.099-.467.308-.72l.298.129c-.174.203-.258.397-.258.551 0 .392.377.492 1.281.492.184 0 .372-.005.556-.02v.352zm-1.937-2.393a5.913 5.913 0 0 1 1.802-.253v.338a5.606 5.606 0 0 0-1.718.223l-.084-.308zM111.543 201.911c-.01.03-.05.045-.105.04-.228.333-.64.79-.993 1.098a1.795 1.795 0 0 0-.193-.244c.333-.268.715-.695.918-1.038l.373.144zm-.67 2.264a5.567 5.567 0 0 1-.432.566 1.778 1.778 0 0 0-.179-.273c.348-.382.75-1.018.998-1.624l.372.139c-.015.035-.049.05-.109.045a7.457 7.457 0 0 1-.342.656l.099.034c-.01.03-.04.055-.094.06v2.597h-.313v-2.2zm2.691 1.226l.005.278c-.73.109-1.489.208-1.966.273-.005.04-.035.06-.07.069l-.104-.377c.243-.025.556-.06.894-.099v-.804h-.76v-.298h.76v-.646l.412.03c-.005.034-.03.055-.094.064v.551h.76v.298h-.76v.77l.923-.109zm-1.242-1.961v-.73h-.685v-.293h.685v-.655l.417.03c-.005.035-.03.055-.094.065v.561h.69v.293h-.69v.73h.785v.298h-1.902v-.298h.794zm2.577.01v.303h-.501v2.204c0 .397-.159.422-.934.422a1.838 1.838 0 0 0-.109-.338c.174.005.328.01.442.01.238 0 .273 0 .273-.094v-2.204h-.536v-.303h1.365zm-.089-1.385v.308h-1.246v-.308h1.246zM117.839 202.67a.126.126 0 0 1-.124.079c-.179 1.544-.695 2.89-1.519 2.89-.417 0-.794-.417-.794-1.201 0-1.192.928-2.19 2.234-2.19 1.435 0 2.056.909 2.056 1.877 0 1.181-.685 1.753-1.887 2.031a1.95 1.95 0 0 0-.209-.303c1.142-.218 1.728-.775 1.728-1.713 0-.819-.526-1.564-1.688-1.564-.049 0-.104.005-.149.01l.352.084zm-.476-.064a1.827 1.827 0 0 0-1.623 1.822c0 .531.228.864.466.864.601 0 1.033-1.326 1.157-2.686zM122.16 204.522l-.7.154v1.703h-.327v-1.629c-.273.06-.521.114-.72.154a.093.093 0 0 1-.065.075l-.129-.382c.248-.04.566-.1.914-.169v-1.281h-.492a4.663 4.663 0 0 1-.184.78 1.863 1.863 0 0 0-.248-.139c.139-.402.213-1.097.263-1.748l.387.084c-.01.035-.045.05-.104.055-.015.208-.04.432-.064.645h.442v-1.053l.422.025c-.005.035-.03.06-.094.07v.958h.631v.323h-.631v1.222l.67-.134.029.287zm2.369-1.777l.179.015a.96.96 0 0 1-.01.114c-.094 2.324-.179 3.088-.368 3.321-.094.134-.199.189-.527.189-.109 0-.233-.005-.357-.01a.814.814 0 0 0-.094-.333c.223.015.422.02.511.02.084 0 .129-.015.178-.084.144-.169.244-.894.323-2.915h-.387c-.144 1.202-.486 2.617-1.018 3.322a1.256 1.256 0 0 0-.288-.164c.546-.655.879-1.986 1.027-3.158h-.427c-.189 1.018-.571 2.224-1.068 2.84a1.33 1.33 0 0 0-.298-.164c.501-.566.884-1.683 1.072-2.676h-.397c-.129.422-.293.805-.487 1.092a1.911 1.911 0 0 0-.253-.188c.342-.492.581-1.35.71-2.215l.412.09c-.01.034-.045.055-.109.055-.05.288-.109.576-.184.854h1.777l.083-.005zM125.18 202.899v-.283h1.822v.283h-1.822zm1.663 1.782v1.459h-1.142v.233h-.293v-1.693h1.435zm-.015-1.37v.273h-1.415v-.273h1.415zm-1.415.958v-.273h1.415v.273h-1.415zm1.401-2.324v.273h-1.37v-.273h1.37zm-.269 3.019h-.844v.894h.844v-.894zm2.806-1.102h.496v.303h-2.83v-.303h.68c.045-.218.094-.477.144-.749h-.546v-.298h.596c.03-.189.06-.383.089-.556h-.784v-.298h2.467v.298h-1.36l-.085.556h1.132v1.047zm-1.941 2.522v-1.808h2.09v1.778h-.323v-.199h-1.45v.229h-.317zm1.767-1.504h-1.45v.968h1.45v-.968zm-.149-1.768h-.859c-.045.268-.094.531-.139.749h.998v-.749z"/></g><g><path d="M34.783 183.381c-1.388-4.389-4.421-7.708-8.218-9.129h2.43c2.557 1.857 4.73 5.324 5.827 8.119l-.039 1.01zM32.807 174.274c.905 1.161 1.536 2.745 2.015 4.266v-4.288l-2.015.022zM30.812 174.253h1.126c1.05 1.667 2.174 3.694 2.865 5.569v1.26c-1.041-2.344-2.331-5.238-3.991-6.829zM24.096 189.596c2.179-.666 1.132-2.581.593-4.288 1.196 1.761 2.941 3.515 4.781 4.31l-5.374-.022z" fill="#1b1b1b"/><path d="M32.139 179.274c2.573 3.052 3.379 7.166 1.797 9.188-1.58 2.023-4.948 1.188-7.522-1.863-2.573-3.052-3.379-7.166-1.797-9.189 1.58-2.023 4.948-1.189 7.522 1.864z" fill="#1b1b1b"/><path d="M33.529 183.325c-.243.833-1.218.999-2.177.37-.959-.63-1.539-1.815-1.296-2.648.243-.833 1.218-.999 2.177-.37.96.629 1.539 1.814 1.296 2.648" fill="#e3282a"/><path d="M33.422 183.286c-.128.433-.468.66-.936.664-.322 0-.699-.116-1.077-.364-.783-.511-1.299-1.418-1.295-2.132 0-.13.016-.253.05-.367.128-.434.468-.661.936-.665.322 0 .699.116 1.077.364.783.51 1.299 1.417 1.295 2.131 0 .13-.017.253-.05.369l.214.077c.041-.142.061-.292.061-.446-.004-.843-.567-1.795-1.407-2.349-.407-.267-.82-.399-1.191-.399-.533-.004-.992.287-1.15.839a1.57 1.57 0 0 0-.061.446c.004.843.567 1.795 1.407 2.35.407.267.82.399 1.191.399.533.004.992-.287 1.15-.838l-.214-.079z" fill="#e3282a"/><path d="M32.377 184.311c0 .882-.85 1.597-1.899 1.597s-1.899-.714-1.899-1.596c-.001-.882.85-1.597 1.898-1.597 1.049-.001 1.9.714 1.9 1.596" fill="#1b1b1b"/><path d="M32.275 184.311c0 .398-.191.764-.515 1.037a1.998 1.998 0 0 1-1.282.445c-.504 0-.958-.172-1.282-.444-.324-.273-.515-.639-.515-1.037 0-.398.191-.764.515-1.038a1.991 1.991 0 0 1 1.281-.444c.504 0 .959.172 1.282.444.325.273.516.639.516 1.037h.205c-.007-.972-.916-1.709-2.003-1.71-1.085.002-1.994.738-2.001 1.711.007.972.916 1.709 2.002 1.71 1.086-.002 1.995-.739 2.002-1.711h-.205z" fill="#1b1b1b"/><path d="M33.445 185.577c0 .76-.774 1.376-1.728 1.376-.955 0-1.729-.616-1.729-1.375 0-.76.774-1.376 1.728-1.376.955 0 1.729.615 1.729 1.375" fill="#f5e72b"/><path d="M33.354 185.577c0 .339-.172.654-.468.89-.295.235-.71.384-1.17.384-.46 0-.875-.149-1.17-.384-.296-.236-.468-.55-.468-.889 0-.339.172-.654.468-.89.295-.235.71-.384 1.17-.384.46 0 .875.149 1.17.384.296.235.469.55.468.889h.181c-.008-.845-.836-1.475-1.82-1.476-.984.001-1.811.632-1.819 1.477.008.844.835 1.475 1.82 1.476.984-.001 1.811-.632 1.819-1.477h-.181z" fill="#f5e72b"/><path d="M29.617 182.458c-.246.84-1.231 1.007-2.202.373-.97-.634-1.556-1.829-1.311-2.668.246-.84 1.231-1.008 2.202-.374.97.634 1.558 1.829 1.311 2.669" fill="#36a6de"/><path d="M29.509 182.418c-.13.437-.473.666-.946.67-.326 0-.708-.118-1.09-.367-.792-.514-1.314-1.429-1.31-2.148 0-.131.017-.255.05-.369.13-.437.473-.667.947-.671.326 0 .707.117 1.089.367.791.514 1.314 1.429 1.31 2.148 0 .13-.016.255-.05.37l.216.079c.042-.144.062-.295.062-.45-.004-.85-.574-1.81-1.423-2.368-.412-.269-.829-.401-1.204-.402-.539-.004-1.003.29-1.163.846a1.591 1.591 0 0 0-.062.449c.004.849.574 1.81 1.423 2.368.412.269.83.402 1.205.402.538.004 1.002-.289 1.163-.845l-.217-.079z" fill="#36a6de"/><path d="M28.804 183.46c0 .882-.85 1.597-1.899 1.597s-1.899-.715-1.899-1.597c-.001-.882.85-1.597 1.898-1.597 1.05 0 1.9.714 1.9 1.597" fill="#1b1b1b"/><path d="M28.702 183.46c0 .398-.191.764-.515 1.037a1.998 1.998 0 0 1-1.282.445c-.504 0-.958-.172-1.282-.445-.324-.273-.515-.639-.515-1.037 0-.398.191-.764.515-1.038a1.991 1.991 0 0 1 1.281-.444c.504 0 .958.172 1.282.444.325.273.516.639.516 1.038l.205-.001c-.007-.973-.917-1.709-2.003-1.71-1.085.002-1.994.738-2.001 1.711.007.972.916 1.709 2.002 1.711 1.086-.002 1.995-.739 2.002-1.711h-.205z" fill="#1b1b1b"/><path d="M29.65 184.757c0 .759-.774 1.375-1.729 1.375-.955 0-1.728-.615-1.728-1.375-.001-.76.773-1.375 1.728-1.376.954 0 1.728.616 1.729 1.376" fill="#8ec049"/><path d="M29.559 184.757c0 .339-.172.653-.468.889-.295.235-.71.384-1.17.384-.46 0-.875-.149-1.17-.384-.296-.236-.468-.55-.468-.889 0-.34.172-.654.468-.89.295-.235.71-.384 1.17-.384.46 0 .875.149 1.17.384.295.236.468.55.468.89l.181-.001c-.009-.844-.836-1.475-1.82-1.476-.984.001-1.811.631-1.819 1.477.008.845.835 1.475 1.819 1.476.985-.001 1.812-.632 1.82-1.476h-.181z" fill="#8ec049"/></g><g><g fill="#020203"><path d="M31.111 172.008h-.291v-.985h1.072c.185 0 .33.131.335.317v.668h-.275v-.612c0-.091-.054-.154-.144-.162-.05-.005-.1-.001-.153-.001v.776h-.288v-.781h-.256v.78zM35.54 172.008h-.291v-.985h1.072c.185 0 .33.131.335.317v.668h-.275v-.612c0-.091-.054-.154-.144-.162-.05-.005-.1-.001-.153-.001v.776h-.288v-.781h-.256v.78zM27.586 171.632l.285.376h-.327l-.251-.365h-.279v.365h-.287v-.985h.794c.204 0 .351.184.31.383a.274.274 0 0 1-.197.212.592.592 0 0 1-.048.014zm-.571-.166h.378c.02 0 .04-.009.059-.017.042-.018.071-.046.071-.096 0-.052-.019-.094-.07-.113a.277.277 0 0 0-.09-.018h-.349l.001.244zM30.657 172.008h-.731a.59.59 0 0 1-.162-.027.266.266 0 0 1-.197-.286.288.288 0 0 1 .231-.277.438.438 0 0 1 .095-.01h.467c.013 0-.013 0 0 0a.201.201 0 0 0-.204-.195h-.51v-.189h.597c.229 0 .409.171.416.4v.584h-.002zm-.289-.416h-.358c-.076 0-.127.045-.129.113-.001.066.049.109.126.109h.361v-.222zM22.035 172.008v-.193h.644c.059 0 .096-.03.108-.088.009-.043-.018-.087-.069-.106a.217.217 0 0 0-.075-.014h-.397c-.162-.002-.257-.099-.271-.27-.011-.133.087-.286.22-.313h.847v.198h-.608a.247.247 0 0 0-.054.005c-.045.008-.077.036-.086.079-.008.042.011.081.046.108a.077.077 0 0 0 .043.012h.428c.106.003.206.03.26.135.094.182.022.444-.255.448l-.781-.001zM34.505 171c.11.004.217.016.317.062.139.064.243.165.273.318.037.193.003.373-.151.51a.605.605 0 0 1-.312.132.798.798 0 0 1-.505-.079c-.149-.075-.212-.206-.229-.364a.57.57 0 0 1 .018-.236c.059-.182.194-.275.372-.315.07-.015.111-.025.217-.028zm.32.515l-.003-.054a.28.28 0 0 0-.21-.268.472.472 0 0 0-.218-.002.253.253 0 0 0-.203.188.547.547 0 0 0-.01.248.22.22 0 0 0 .167.187.637.637 0 0 0 .174.02c.199-.004.308-.122.303-.319zM26.572 171.418v.187h-.683c.002.118.085.202.198.202h.48v.199h-.552c-.275-.013-.442-.206-.433-.461a.737.737 0 0 1 .04-.246.43.43 0 0 1 .406-.278h.545v.199l-.463-.001a.22.22 0 0 0-.216.197c.226.002.451.002.678.002zM23.974 171.806v-.783h.281v.985h-.739a.275.275 0 0 1-.222-.104.33.33 0 0 1-.085-.228c.005-.197.002-.653.002-.653h.282l-.001.629c-.002.092.049.146.135.154h.347zM24.697 171.675v.333h-.274v-.985h.748a.319.319 0 0 1 .304.241.319.319 0 0 1-.314.41h-.425l-.039.001zm.009-.192h.379c.015 0 .032-.01.045-.019.041-.028.07-.104.057-.146-.021-.065-.063-.097-.131-.097h-.35v.262zM29.489 171.023v.189h-.481a.247.247 0 0 0-.199.108.178.178 0 0 0-.029.091h.696v.208h-.699v.388h-.284v-.582c0-.211.16-.396.371-.403l.625.001zM33.811 171.815v.193h-.519a.425.425 0 0 1-.431-.336.583.583 0 0 1 .071-.471.379.379 0 0 1 .332-.178h.554v.195h-.471c-.092 0-.152.043-.182.13a.498.498 0 0 0-.008.319.203.203 0 0 0 .206.148h.448zM32.403 171.023h.304v.986h-.304z"/></g><path fill="#020203" d="M22.299 158.976h14.032v10.6H22.299z"/><ellipse cx="25.855" cy="165.352" rx="2.71" ry="1.212" fill="#00954b"/><path d="M33.418 167.359c0 .669-1.214 1.212-2.71 1.212-1.497 0-2.71-.543-2.71-1.212 0-.669 1.214-1.212 2.71-1.212 1.496.001 2.71.543 2.71 1.212z" fill="#f5e837"/><path d="M33.744 166.564c-.326-1.357-1.509-2.857-3.037-2.205 1.244-2.869 3.591-2.412 4.406-1.434.635.762.62 3.366-1.369 3.639z" fill="#e53333"/><path d="M28.967 164.37c-.326-1.357-1.509-2.857-3.037-2.205 1.244-2.869 3.591-2.412 4.406-1.434.635.761.62 3.366-1.369 3.639z" fill="#363f90"/></g><g fill-rule="evenodd" clip-rule="evenodd"><path d="M145.262 165.384c-2.151 0-3.589-1.393-3.589-3.081 0-1.689 1.441-3.097 3.586-3.093h20.268c2.145-.004 3.586 1.404 3.586 3.093 0 1.688-1.438 3.081-3.589 3.081h-20.262z" fill="#020203"/><path d="M145.269 159.969c-1.703.003-2.749 1.043-2.749 2.329 0 1.286 1.039 2.334 2.749 2.328h20.247c1.71.006 2.749-1.043 2.749-2.328 0-1.286-1.046-2.326-2.749-2.329h-20.247z" fill="#f1f2f0"/><g fill="#020203"><path d="M144.395 160.838h.991l1.372 2.027-.001-2.027h.984v2.907h-.982l-1.379-2.027v2.027h-.985v-2.907zM153.089 161.137h.958v.391h.518v.287h-.518l.001 1.93h-.959l.001-1.93h-.52v-.286h.52l-.001-.392zM148.289 161.812h.957v1.933h-.957v-1.933zM148.287 160.837h.959v.595h-.959v-.595zM165.442 162.763l-.001.409c0 .308-.199.435-.391.435-.191 0-.392-.127-.392-.435l.001-.417.001-.403c0-.307.2-.433.391-.433s.391.126.391.433l.001.412v-.001h-.001zm-.384-1.083c-.772 0-1.398.486-1.398 1.086 0 .599.626 1.085 1.398 1.085.773 0 1.398-.486 1.398-1.085 0-.6-.625-1.086-1.398-1.086zM162.403 160.838h.945v2.906h-.946l-.001-.111c-.366.21-.78.209-1.102.072-.086-.037-.654-.286-.654-.958 0-.51.527-1.067 1.217-1.012.227.018.389.094.542.172l-.001-1.069zm.007 1.931v-.346c0-.299-.226-.375-.375-.375-.152 0-.375.076-.375.375l.001.345-.001.344c0 .299.223.377.375.377.149 0 .375-.078.375-.377v-.343zM151.486 161.723c.357-.009 1.084.205 1.079.97v1.051h-.951v-1.27c0-.169-.177-.356-.437-.356-.261 0-.455.187-.455.356l.001 1.27h-.95l-.001-1.933.951-.001v.203c.183-.158.446-.282.763-.29zM159.263 161.723c.357-.009 1.083.205 1.079.97l-.001 1.051h-.951v-1.27c0-.169-.176-.356-.437-.356s-.455.187-.455.356l.001 1.27h-.95l.001-1.933.949-.001v.203c.184-.158.447-.282.764-.29zM155.457 162.486c-.002-.169.002-.282.063-.379a.4.4 0 0 1 .337-.176h-.001a.398.398 0 0 1 .336.176c.061.097.064.21.063.379h-.798zm.794.583l.001.117c0 .354-.254.433-.395.433-.142 0-.401-.079-.401-.433l.001-.399h1.802c0-.6-.633-1.096-1.412-1.096-.778 0-1.409.486-1.409 1.085 0 .6.631 1.086 1.409 1.086.646 0 1.191-.337 1.357-.793h-.953zM166.523 161.53h-.11v-.662h.276c.171 0 .256.058.256.188 0 .118-.081.17-.188.182l.206.292h-.122l-.192-.287h-.126v.287zm.131-.373c.093 0 .176-.006.176-.108 0-.082-.081-.097-.157-.097h-.15v.205h.131z"/><path d="M166.017 161.197c0-.329.293-.572.638-.572.343 0 .635.243.635.572 0 .333-.292.575-.635.575-.345 0-.638-.242-.638-.575zm.638.48c.285 0 .508-.203.508-.48 0-.271-.224-.477-.508-.477-.287 0-.511.205-.511.477 0 .276.224.48.511.48z"/></g></g><g fill="#020203"><path d="M142.397 198.053l-.248 1.055 3.244-1.088c.773-.259 1.453-.884 1.518-1.542l.145-1.822c-.039-.634-.484-.686-1.253-.428l-1.012.339c-.502.168-.37-.202-.241-.489l.34-.87c.122-.347.421-.43.693-.556l1.857-.623.096-.772-2.371.795c-.643.209-1.045.811-1.181 1.306l-.414 1.434c-.138.686.362.85 1.444.487l1.109-.372-.146 1.267c-.141.601-.423.836-1.094 1.061l-2.486.818zM153.69 189.192l2.058 5.355 1.095-.368-2.39-5.243zM153.2 189.387l-2.37.795c-.545.183-.809.594-.812 1.12l.113 3.602c.106 1.245.938 1.181 1.837.88l2.98-1-1-3.166-.901.302.684 2.315-1.955.656c-.543.182-.685-.146-.727-.697l-.205-2.908c-.005-.36.234-.433.559-.542l2.024-.679-.227-.678zM158.134 187.747l-2.292.753c-.49.164-.637.86-.534 1.166l1.508 3.025c.596 1.235 1.488.981 2.401.675l2.98-1-2.335-2.687-.878.279 1.617 1.971-1.576.544c-.543.183-.929.368-1.221-.146l-1.55-2.827c-.213-.321.044-.354 1.395-.807l.97-.325-.485-.621zM147.593 197.262l.253-3.051-.49.164.012-.581.539-.181.092-1.383.579-.195-.027 1.384.558-.188-.015.572-.647.217-.076 2.992zM148.696 196.03l-.008.886.823-.276-.011-.879zM163.987 191.752l-1.054.354-3.516-3.771c-.368-.459-.242-.937.358-1.138l1.345-.451c.499-.22.994.061 1.336.215l5.67 3.388-1.178.395-4.962-3.255c-.377-.23-.867-.033-1.234.09-.37.124-.709.275-.498.491l3.733 3.682z"/></g><path d="M74.871 160.2c-.037-.037-.045-.123-.045-.471 0-.292.011-.436.035-.46.026-.026.374-.035 1.387-.035H77.6l.028.074c.015.041.028.248.028.46 0 .312-.009.395-.045.431-.04.04-.204.045-1.37.045s-1.33-.004-1.37-.044z" fill="#020203"/><g fill="#020203"><path d="M37.545 162.31v-.534h.979c.812 0 .993-.007 1.061-.043l.129-.043c.025 0 .132-.045.236-.099.237-.124.743-.617.743-.725l.059-.219a.678.678 0 0 0 .051-.297l-.009-.147-1.501-.007c-1.371-.007-1.505-.012-1.538-.056-.025-.034-.036-.185-.036-.503 0-.375.008-.462.045-.5.04-.041.256-.045 1.946-.045 1.617 0 1.905.006 1.935.042.025.03.032.257.025.86-.008.722-.015.828-.06.896l-.051.128-.072.196-.071.197c0 .029.107.167.238.308.435.466.628.692.628.734l.036.065.106.102.037.152-.033.072h-.976l-.207-.218a1.95 1.95 0 0 1-.238-.287c-.042-.091-.124-.108-.201-.041l-.093.055-.076.042-.474.247-.147.058-.209.075-.111.044c-.009.014-.494.025-1.083.025h-1.067v-.534z"/><path d="M42.245 161.409c-.105-.017-.112-.055-.102-.572l.008-.433 1.715-.008c1.243-.005 1.726.002 1.754.025.03.025.04.137.04.473 0 .375-.007.446-.048.48-.039.033-.341.041-1.668.043a59.135 59.135 0 0 1-1.699-.008zM45.55 162.81v-1.086l.955-.179c.323-.125.407-.326.498-.722.018-.103.042-.232.042-.868.001-.579.011-.805.036-.83l.7.011c.067.067.067 2.242 0 2.438-.063.184-.221 1.269-1.288 1.271h-.444c-.324-.001-.475-.011-.499-.035zM50.747 161.409l-.096-.09.013-.893c.019-.028.398-.036 1.739-.036 1.667 0 1.716.001 1.746.056l-.011.913c-.04.054-.093.056-1.682.06a55.29 55.29 0 0 1-1.709-.01zM55.582 162.799c-.035-.09-.02-1.039.017-1.075.026-.025.325-.035 1.167-.035.923 0 1.148-.007 1.214-.041.045-.022.179-.071.298-.108.273-.084.451-.205.571-.386l.094-.143-.007-.448-.008-.448-1.813-.007-1.813-.007-.028-.074c-.016-.041-.028-.242-.028-.447 0-.335.006-.38.058-.432.057-.057.096-.058 2.236-.058 1.941 0 2.183.005 2.224.045.039.04.045.173.045 1.027 0 .925-.003.993-.062 1.175-.063.198-.137.38-.222.548-.061.122-.531.583-.593.583l-.047.027c0 .06-.298.2-.563.266l-.143.056c-.016.016-.543.027-1.304.027-1.137 0-1.277-.004-1.293-.045zM60.418 162.804c-.022-.027-.031-.173-.025-.454l.008-.414.072-.02c.04-.011.298-.021.575-.023l.503-.003.096-.108c.089-.1.097-.124.097-.298 0-.297-.035-.284.755-.293.636-.007.688-.012.747-.066l.1-.249c-.017-.052-.079-.054-1.543-.054-.839 0-1.547-.008-1.572-.018v-.831c.025-.01.899-.018 1.943-.018 1.438 0 1.906.008 1.933.035.048.048.045 1.173-.004 1.352-.083.298-.213.459-.497.611l-.172.092-.542.012-.542.012v.147c0 .25-.128.451-.363.57-.102.052-.172.057-.824.057-.571.001-.718-.006-.745-.039zM69.663 162.941c-.027-.011-.036-.144-.036-.528 0-.442.007-.519.048-.553.039-.032.391-.042 1.913-.054l1.865-.015.008-.719c.007-.639.002-.725-.041-.772-.046-.051-.135-.054-1.865-.054-1.197 0-1.836-.01-1.873-.03-.052-.027-.056-.064-.056-.476 0-.411.004-.448.056-.475h4.595c.054.029.056.08.056 1.845v1.815l-.065.017-4.605-.001zM74.861 162.942l-.008-.992c.024-.038.22-.044 1.417-.052 1.102-.006 1.207-.001 1.452-.047.304-.1.438-.117.675-.357a.968.968 0 0 0 .286-.489c.036-.31.041-.234.041-.882 0-.598.009-.828.035-.853l.711-.009c.031.02.037.247.029 1.209-.008 1.08.003 1.059-.06 1.241-.096.211-.19.413-.428.649-.207.205-.297.271-.494.363-.513.24-.348.222-2.074.229-.85.002-1.562-.002-1.582-.01zM50.607 162.811c-.024.024-.176.035-.498.035h-.444c-1.067-.002-1.224-1.086-1.288-1.271-.067-.196-.067-2.371 0-2.438l.7-.011c.025.025.035.251.036.83 0 .635.024.765.042.868.091.396.174.598.498.722l.955.179v1.086z"/><path d="M50.001 159.001a.782.782 0 1 0 0 1.564.782.782 0 0 0 0-1.564zm0 1.006a.223.223 0 1 1 0-.446.223.223 0 0 1 0 .446z"/><path d="M80.648 160.017h-.092v-.554h.231c.143 0 .214.048.214.157 0 .099-.068.142-.158.152l.172.244h-.102l-.161-.24h-.105v.241zm.11-.311l.147-.09-.132-.082h-.125v.171h.11z" fill-rule="evenodd" clip-rule="evenodd"/><path d="M80.225 159.739c0-.275.245-.479.534-.479.287 0 .531.204.531.479 0 .278-.244.481-.531.481-.289 0-.534-.203-.534-.481zm.534.401c.238 0 .425-.17.425-.401 0-.227-.187-.399-.425-.399-.24 0-.428.172-.428.399 0 .231.188.401.428.401z" fill-rule="evenodd" clip-rule="evenodd"/><path d="M69.117 160.404l-4.44-.389-.139-.152v-.651l.139-.128 4.44.388.139.152v.652zM69.117 161.628l-4.44-.389-.139-.152v-.652l.139-.127 4.44.388.139.152v.652zM69.117 162.852l-4.44-.389-.139-.152v-.652l.139-.128 4.44.389.139.152v.652z"/></g></g><g fill="#535351"><path d="M191.313 100.533c-.378 0-.687-.549-.687-1.219v-.612c0-.671.309-1.219.687-1.219h-8.365c-.671 0-1.219.549-1.219 1.219v.612c0 .671.549 1.219 1.219 1.219h8.365zM191.313 106.785c-.378 0-.687-.549-.687-1.219v-.612c0-.671.309-1.219.687-1.219h-8.365c-.671 0-1.219.549-1.219 1.219v.612c0 .671.549 1.219 1.219 1.219h8.365zM191.313 113.036c-.378 0-.687-.549-.687-1.219v-.612c0-.671.309-1.219.687-1.219h-8.365c-.671 0-1.219.549-1.219 1.219v.612c0 .671.549 1.219 1.219 1.219h8.365zM191.313 119.288c-.378 0-.687-.549-.687-1.219v-.612c0-.671.309-1.219.687-1.219h-8.365c-.671 0-1.219.549-1.219 1.219v.612c0 .671.549 1.219 1.219 1.219h8.365zM191.313 125.539c-.378 0-.687-.549-.687-1.219v-.612c0-.671.309-1.219.687-1.219h-8.365c-.671 0-1.219.549-1.219 1.219v.612c0 .671.549 1.219 1.219 1.219h8.365z"/><g><path d="M0 100.533c.378 0 .687-.549.687-1.219v-.612c0-.671-.309-1.219-.687-1.219h8.365c.671 0 1.219.549 1.219 1.219v.612c0 .671-.549 1.219-1.219 1.219H0zM0 106.785c.378 0 .687-.549.687-1.219v-.612c0-.671-.309-1.219-.687-1.219h8.365c.671 0 1.219.549 1.219 1.219v.612c0 .671-.549 1.219-1.219 1.219H0zM0 113.036c.378 0 .687-.549.687-1.219v-.612c0-.671-.309-1.219-.687-1.219h8.365c.671 0 1.219.549 1.219 1.219v.612c0 .671-.549 1.219-1.219 1.219H0zM0 119.288c.378 0 .687-.549.687-1.219v-.612c0-.671-.309-1.219-.687-1.219h8.365c.671 0 1.219.549 1.219 1.219v.612c0 .671-.549 1.219-1.219 1.219H0zM0 125.539c.378 0 .687-.549.687-1.219v-.612c0-.671-.309-1.219-.687-1.219h8.365c.671 0 1.219.549 1.219 1.219v.612c0 .671-.549 1.219-1.219 1.219H0z"/></g></g><linearGradient id="e" gradientUnits="userSpaceOnUse" x1="95.656" y1="257.632" x2="95.656" y2="230.592"><stop offset="0" stop-color="#717075"/><stop offset=".092" stop-color="#6e6d70"/><stop offset=".266" stop-color="#6b6b6b"/><stop offset=".354" stop-color="#676667"/><stop offset=".582" stop-color="#615f61"/><stop offset="1" stop-color="#5f5d60"/></linearGradient><path fill="url(#e)" d="M76.506 230.592h38.3v27.04h-38.3z"/><path d="M144.985 281.809l-.522-47.981c0-1.78-1.441-3.236-3.202-3.236h-91.21c-1.761 0-3.202 1.456-3.202 3.236l-.522 47.981v-49.11c0-1.822 1.456-3.312 3.236-3.312h92.186c1.78 0 3.236 1.491 3.236 3.312v49.11z" fill="#2e2f2d"/><g fill="#393737"><path d="M77.636 230.592h-1.13v27.04c.658-9.23 1.23-16.571 1.13-27.04zM113.677 230.592h1.13v27.04c-.659-9.23-1.231-16.571-1.13-27.04z"/></g><path fill="#222221" d="M36.522 218.352h-.905v-2.08l.905-.03zM154.791 218.352h.906v-2.08l-.906-.03z"/></g></svg>