<svg xmlns="http://www.w3.org/2000/svg" width="400" height="402.63974">
  <defs>
    <clipPath id="a">
      <path d="M0 289.901h288V0H0v289.901z"/>
    </clipPath>
  </defs>
  <g clip-path="url(#a)" transform="matrix(1.3888889,0,0,-1.3888889,0,402.64028)">
    <path fill="#ed1f24" d="M223.1445 285.9014H64.8555c-1.104 0-2 .896-2 2s.896 2 2 2h158.289c1.104 0 2-.896 2-2s-.896-2-2-2"/>
    <path fill="#206633" d="M44.5 8.7354v-5.871c0-1.584-.918-2.864-2.5-2.864-1.582 0-2.5 1.28-2.5 2.864v5.871c0 1.583.918 2.864 2.5 2.864 1.582 0 2.5-1.281 2.5-2.864"/>
    <path fill="#d3d2d2" d="M285 4.8789c1.65.013 3 1.372 3 3.022v260.5c0 11-9 20-20 20H20c-11 0-20-9-20-20v-260.5c0-1.65 1.35-3 3-3h13.5c1.65 0 4.191.635 5.648 1.41l118.703 63.181c1.457.775 3.854.802 5.328.06L272.07 6.1529c1.474-.742 4.03-1.339 5.68-1.327l7.25.053z"/>
    <path fill="#e9e9e9" d="M280 268.5567c0 6.6-5.3 11.845-11.899 11.845H19.899c-6.6 0-11.899-5.245-11.899-11.845l-.1-262.53c-.001-1.1.899-2 1.999-2h21.035c1.1 0 2 .9 2 2v1.945c0 1.1.9 2 2 2h8.238c1.101 0 2-.9 2-2v-1.945c0-1.1.9-2 2-2h14.782c1.101 0 2.767.47 3.704 1.047l76.138 46.781c.937.576 2.474.58 3.414.01l77.126-46.801c.94-.571 2.609-1.037 3.71-1.037h14.881c1.1 0 2 .9 2 2v1.945c0 1.1.899 2 2 2h8.239c1.1 0 2-.9 2-2v-1.945c0-1.1.9-2 2-2h20.935c1.099 0 2 .9 2 2l-.101 262.53z"/>
    <path fill="#deddde" d="M223 2.9014c1.1 0 2 .9 2 2v180.343c0 44.888-36.111 81.329-81 81.329s-81-36.338-81-81.227V4.9014c0-1.1.9-2 2-2h16.5c1.1 0 2 .9 2 2v.459c0 1.1.9 2 2 2h23.012c1.099 0 2.853.284 3.897.632l29.193 9.72c1.043.347 2.748.337 3.787-.024l29.221-10.132c1.039-.36 2.79-.655 3.89-.655h24c1.1 0 2-.9 2-2s.9-2 2-2H223z"/>
    <path fill="#d3d2d2" d="M38.4853 208.9014c3.506 0 6.015-2.445 6.015-5.951v-50.74c0-3.506-2.494-6.348-6-6.348s-6 2.842-6 6.348v43.691H7.8993l-5.565 6.219 5.565 6.781h30.586zm211.1963 0c-3.506 0-6.182-2.445-6.182-5.951v-50.74c0-3.506 2.994-6.348 6.5-6.348s6.5 2.842 6.5 6.348v43.691h23.768l5.566 6.219-5.566 6.781h-30.586zM45.5 4.9014v23.372c0 3.506-2.994 6.348-6.5 6.348s-6.5-2.842-6.5-6.348V4.9014"/>
    <path fill="#d3d2d2" d="M53.5 8.9014c0-1.104-.896-2-2-2h-25c-1.104 0-2 .896-2 2v15c0 1.105.896 2 2 2h25c1.104 0 2-.895 2-2v-15zm202-4v23.187c0 3.506-2.994 6.348-6.5 6.348s-6.5-2.842-6.5-6.348V4.9014"/>
    <path fill="#bdbcbc" d="M7.5 76.901H63v4H7.5v-4zm0-8H63v4H7.5v-4zm0-8H63v4H7.5v-4zm0-8H63v4H7.5v-4zm0-8H63v4H7.5v-4zm217.5 32h55.5v4H225v-4zm0-8h55.5v4H225v-4zm0-8h55.5v4H225v-4zm0-8h55.5v4H225v-4zm0-8h55.5v4H225v-4z"/>
    <path fill="#c8c7c7" d="M204.5 4.9014v115.5c0 2.75-2.25 4.5-5 4.5h-111c-2.75 0-5-1.75-5-4.5v-115.5h28l32.5 22.166 31.5-22.166h29z"/>
    <path fill="#110f0d" d="M201.5 117.901h-116v3h116v-3z"/>
    <path fill="#bdbcbc" d="M201.5 114.901h-116v2h116v-2z"/>
    <path fill="#bdbcbc" d="M92.5 45.901h-2v70h2v-70zm10 0h-2v70h2v-70zm11 27h-2v43h2v-43zm10 0h-2v43h2v-43zm11 0h-2v43h2v-43zm10 0h-2v33h2v-33z"/>
    <path fill="#bdbcbc" d="M137.3652 101.3047l1.099-1.023 5.034 5.418 5.037-5.418 1.098 1.023-6.135 6.597-6.133-6.597zM155.5 72.901h-2v43h2v-43zm10 0h-2v43h2v-43zm11 0h-2v43h2v-43zm10-27h-2v70h2v-70zm11 0h-2v70h2v-70z"/>
    <path fill="#b2b1b1" d="M143.5 8.9004c19.333 0 32-3.997 32-3.997v29.439c0 17.735-14.266 32.131-32 32.131s-32-14.356-32-32.09v-29.48s12.667 3.997 32 3.997"/>
    <path fill="#ed1f24" d="M109.1211 157.6309c-.061 0-.122.015-.18.041-5.921 2.874-8.978 6.225-8.841 9.689.111 2.852 2.439 5.544 6.731 7.788 4.071 2.129 9.816 3.817 16.612 4.883.227.037.438-.118.473-.344.037-.228-.119-.44-.346-.474-13.763-2.163-22.439-6.716-22.64-11.885-.121-3.066 2.851-6.23 8.373-8.909.207-.101.293-.349.192-.556-.071-.146-.22-.233-.374-.233m51.6133 21.2783c-.022 0-.045.002-.067.006-4.373.719-8.992 1.197-13.722 1.424-.231.011-.406.205-.396.435.011.228.21.404.435.393 4.764-.228 9.412-.709 13.816-1.434.227-.036.381-.25.344-.476-.033-.203-.21-.348-.41-.348m-13.0664-28.0078h-.763.417c.114 0 .231.242.346.242 22.215 0 39.745 5.899 39.975 13.319.082 2.595-2.004 5.292-6.034 7.679-4.011 2.378-9.761 4.434-16.627 5.891-.224.049-.368.283-.32.508.047.224.268.373.492.326 6.953-1.475 12.789-3.53 16.879-5.953 4.305-2.551 6.531-5.441 6.44-8.358-.122-3.947-4.482-7.371-12.276-9.955-7.535-2.5-17.654-3.699-28.529-3.699"/>
    <path fill="#ed1f24" d="M155.1855 172.169l10.959 8.354-12.871-5.137-3.618 3.764 1.153-5.217-10.959-8.354 12.872 5.14 3.617-3.765-1.153 5.215z"/>
    <path fill="#ed1f24" d="M129.4355 176.5088l.861 4.631 3.227.512c.424.067.641-.174.557-.622l-.589-3.168c-.083-.449-.405-.774-.827-.841l-3.229-.512zm36.697-13.268l.881 4.734c.278 1.497 1.888 2.968 3.259 3.186l5.932.941c.999.159 1.693-.958 1.489-2.05l-.291-1.524c-.203-1.093-1.32-2.254-2.319-2.414l-6.158-.976-.088-.553c-.117-.629.301-1.119.876-1.027l6.883 1.096-.464-2.497-7.763-1.231c-1.371-.218-2.514.814-2.237 2.315m-15.385 4.823l2.48.391-1.903-10.235-2.535-.4 1.902 10.233.056.011zm-16.487-12.551l-2.537-.4 1.235 6.646c.157.833-.095 1.102-.898.977l-4.421-.704-1.449-7.798-2.537-.403 1.901 10.236.06.009 8.416 1.335c1.272.202 1.964-.57 1.714-1.916l-1.484-7.982zm-12.184.67l-.498-2.68-10.608-1.683 3.307 17.791 8.762 1.39-.453-2.438-6.225-.988-.951-5.118 5.072.805-.453-2.437-5.073-.804-.953-5.118 8.073 1.28zm.363 1.951l-5.996-.952.226 1.217 4.842.769 1.178 6.337-4.842-.769.226 1.218 5.995.951-1.629-8.771zm13.305-4.277l.039.215c.164-.014.385-.077.578-.047l4.986.781c-.185-.996-1.499-1.243-3.504-1.561l-2.282-.363-1.224-6.578 2.998.475c7.381.729 10.19 4.541 11.09 9.089l8.993 1.427 1.45 7.798.731.118c.802.128.684.273.529-.561l-1.326-7.135 6.457 1.025.088.473c.487-.215 1.057-.291 1.66-.196l11.165 1.77 1.042 5.606-.724.515c.628.742 1.116 1.651 1.258 2.414l.175.885c.558 3.305-2.49 4.183-3.881 3.961l-6.408-1.016c-1.135-.18-2.385-.97-3.294-2.017-.841.831-2.137 1.155-2.893 1.035l-7.133-1.131.798-1.765 6.434 1.019c.928.148 1.547-.223 1.717-.957-.068-.195-1.717-8.977-1.717-8.977l-2.306-.365 1.236 6.649c.154.831-.099 1.101-.9.972l-4.42-.701-1.451-7.799-2.536-.402 1.661 8.928-2.088 2.463-7.516-2.717 3.563.566.057.006-2.265-12.182c-.576-3.097-3.878-6.056-6.808-6.521l-2.998-.475.455 2.438 2.28.361c2.005.318 4.262 2.326 4.651 4.424l.246 1.32-5.939-.942c-1.273-.202-1.965.571-1.713 1.915l1.065 5.728c.187 1.018.823 1.864 1.674 2.303l.013.151 2.979 2.294-1.74-.294c-.926-.145-2.643-.839-3.735-2.231-.824.983-2.267 1.37-3.08 1.241l-6.4-1.016 1.044 5.606 4.669.741c2.485.394 5.236 3.189 5.724 5.814l.701 3.778c.49 2.627-1.357 4.693-3.843 4.299l-10.204-1.619-2.175-11.698-9.397-1.492c-.795-.127-1.568-.91-1.724-1.751l-3.512-18.887c-.154-.84.363-1.421 1.158-1.295l17.93 2.844 1.45 7.798.73.118c.804.126.685.271.53-.562l-1.326-7.133 6.458 1.023zm33.655 13.824l-.055-.297 4.798.762c.378.061.747.444.824.857.076.414-.168.701-.547.641l-1.232-.196-1.966-.312-.497-.077c-.576-.093-1.209-.749-1.325-1.378m-29.522-4.826l-.568-3.057c-.155-.834.097-1.103.899-.976l4.651.738.997 5.361-4.651-.736c-.803-.128-1.174-.495-1.328-1.33m1.583-1.115c.157.775.444.662 1.228.787l.73.116-.227-1.218-.731-.117c-.783-.124-1.129-.334-1 .432"/>
    <path fill="#ed1f24" d="M150.0693 174.3428l-.684 2.714-.386-.047-.125-.669c-.085-.465-.459-.842-.897-.912l-2.651-.42c-.439-.07-.69.209-.603.674l1.337 7.189c.086.461.459.84.897.91l2.652.42c.437.071.688-.21.602-.671l-.171-.916 5.362.852.203 1.095c.514 2.767-1.365 4.869-3.984 4.455l-5.129-.815c-2.617-.414-5.419-3.26-5.933-6.025l-1.426-7.678c-.514-2.765 1.365-4.868 3.984-4.453l1.715.272 5.237 4.025zm3.8018 1.6367c.14.377.236.52.308.906l.182.976-2.135-.339 1.645-1.543z"/>
    <path fill="#110f0d" d="M83.5459 9.9014h17.11c1.313 0 2.373 1.189 2.373 2.5 0 1.312-1.06 2.5-2.373 2.5h-17.11"/>
    <path fill="#cacac8" fill-rule="evenodd" d="M39.7988 263.8555c-.562-.479-1.07-1.117-1.408-1.812-.338-.695-.509-1.449-.518-2.138-.008-.692.145-1.321.426-1.897.282-.577.692-1.101 1.199-1.455.508-.355 1.112-.541 1.665-.626.554-.085 1.058-.07 1.457-.014.4.056.694.152.962.301l1.587 3.298c-.411-.193-.829-.369-1.263-.548-.433-.178-.882-.361-1.359-.419-.477-.056-.98.01-1.428.276-.447.265-.838.73-1.041 1.252-.203.519-.217 1.097-.075 1.617.142.52.442.985.806 1.392.363.406.791.755 1.188.985.398.231.765.343 1.14.369l1.199-1.727 1.379.516-.967 2.366c-.272.01-.547-.002-.871-.037-.324-.035-.699-.095-1.088-.194-.388-.1-.792-.24-1.301-.471-.51-.231-1.127-.554-1.689-1.034m-9.012.881c.141-.159.318-.363.277-.579l-.55-2.895c-.043-.226-.244-.39-.401-.504-.158-.113-.351-.143-.544-.174.167-.065.334-.13.445-.251.113-.122.267-.294.226-.476l-.629-2.819c-.058-.26-.324-.423-.511-.565-.189-.141-.403-.214-.618-.286h7.522l.528 2.821c-.289-.586-.579-1.171-1.071-1.547-.494-.375-1.17-.705-1.886-.705h-1.378l.688 3.491c.25.086.532.077.787-.047.256-.123.482-.363.688-.622.203-.26.382-.54.525-.837l.721 3.671c-.246-.27-.521-.514-.816-.734-.296-.22-.611-.415-.907-.513-.297-.098-.572-.098-.828-.022l.713 3.436 1.109.011c.502.004 1.004.065 1.408-.267.407-.332.717-1.028 1.026-1.724l.549 2.515h-7.647c.216-.109.432-.219.574-.378m-3.937-4.458l-4.471 5.355-2.031-2.322.974-.891-1.164-6.445 2.337 1.026-1.206 1.117.669 3.408 4.709-5.428 1.626 7.402 1.647.996-1.991 1.211-1.099-5.429z"/>
    <path fill="#e9e9e9" d="M72.9336 280.0562v8.345c0 .718.782 1.3 1.5 1.3s1.5-.582 1.5-1.3v-8.345m3.3242 0v8.345c0 .718.782 1.3 1.5 1.3s1.5-.582 1.5-1.3v-8.345m3.3242 0v8.345c0 .718.782 1.3 1.5 1.3s1.5-.582 1.5-1.3v-8.345m3.3242 0v8.345c0 .718.782 1.3 1.5 1.3s1.5-.582 1.5-1.3v-8.345m3.3243 0v8.345c0 .718.782 1.3 1.5 1.3s1.5-.582 1.5-1.3v-8.345m3.3242 0v8.345c0 .718.782 1.3 1.5 1.3s1.5-.582 1.5-1.3v-8.345m3.3242 0v8.345c0 .718.782 1.3 1.5 1.3s1.5-.582 1.5-1.3v-8.345m3.3242 0v8.345c0 .718.782 1.3 1.5 1.3s1.5-.582 1.5-1.3v-8.345m3.3242 0v8.345c0 .718.782 1.3 1.5 1.3s1.5-.582 1.5-1.3v-8.345m3.3243 0v8.345c0 .718.782 1.3 1.5 1.3s1.5-.582 1.5-1.3v-8.345m3.3242 0v8.345c0 .718.782 1.3 1.5 1.3s1.5-.582 1.5-1.3v-8.345m3.3242 0v8.345c0 .718.782 1.3 1.5 1.3s1.5-.582 1.5-1.3v-8.345m3.3242 0v8.345c0 .718.782 1.3 1.5 1.3s1.5-.582 1.5-1.3v-8.345m3.3242 0v8.345c0 .718.782 1.3 1.5 1.3s1.5-.582 1.5-1.3v-8.345m3.3242 0v8.345c0 .718.782 1.3 1.5 1.3s1.5-.582 1.5-1.3v-8.345m3.3243 0v8.345c0 .718.782 1.3 1.5 1.3s1.5-.582 1.5-1.3v-8.345m3.3242 0v8.345c0 .718.782 1.3 1.5 1.3s1.5-.582 1.5-1.3v-8.345m3.3242 0v8.345c0 .718.782 1.3 1.5 1.3s1.5-.582 1.5-1.3v-8.345m3.3242 0v8.345c0 .718.782 1.3 1.5 1.3s1.5-.582 1.5-1.3v-8.345m3.3242 0v8.345c0 .718.782 1.3 1.5 1.3s1.5-.582 1.5-1.3v-8.345m3.3243 0v8.345c0 .718.782 1.3 1.5 1.3s1.5-.582 1.5-1.3v-8.345m3.3242 0v8.345c0 .718.782 1.3 1.5 1.3s1.5-.582 1.5-1.3v-8.345m3.3242 0v8.345c0 .718.782 1.3 1.5 1.3s1.5-.582 1.5-1.3v-8.345"/>
  </g>
</svg>
