<svg xmlns="http://www.w3.org/2000/svg" width="129.60274" height="200">
  <defs>
    <clipPath id="a">
      <path d="M0 223.285h144.692V0H0v223.285z"/>
    </clipPath>
  </defs>
  <g clip-path="url(#a)" transform="matrix(0.89571704,0,0,-0.89571704,-3.5828682e-4,200)">
    <path fill="#e9e9e9" d="M144.6924 8.4258c0-4.635-3.792-8.426-8.426-8.426H8.4254c-4.634 0-8.425 3.791-8.425 8.426v206.434c0 4.634 3.791 8.425 8.425 8.425h127.841c4.634 0 8.426-3.791 8.426-8.425V8.4258z"/>
    <path fill="#bdbcbc" d="M138.812 20.012H5.88V148.31h132.932V20.012z"/>
    <path fill="#2f2d2e" d="M3.8887 218.375V160.9c0-4.633 3.791-8.425 8.426-8.425h120.063c4.635 0 8.426 3.792 8.426 8.425v57.475H3.8887z"/>
    <path fill="#231f20" d="M140.804 218.375H3.889v-11.621h136.915v11.621z"/>
    <path fill="#d3d2d2" d="M92.3897 10.041l-20.044 6.004-20.043-6.004V3.596h40.087v6.445z"/>
    <path fill="#f6b310" d="M9.502 207.779H7.543v7.74h1.959v-7.74zm3.449 0h-1.958v8.951h1.958v-8.951zm3.45 0h-1.958v8.951h1.958v-8.951zm3.451 0h-1.958v8.951h1.958v-8.951zm3.45 0h-1.959v8.951h1.959v-8.951zm3.449 0h-1.958v8.951h1.958v-8.951zm3.45 0h-1.958v8.951h1.958v-8.951zm3.45 0h-1.958v8.951h1.958v-8.951zm3.451 0h-1.959v8.951h1.959v-8.951zm3.449 0h-1.958v8.951h1.958v-8.951zm3.45 0h-1.958v8.951h1.958v-8.951zm3.45 0h-1.959v8.951h1.959v-8.951zm3.449 0h-1.958v8.951H50.9v-8.951zm3.451 0h-1.958v8.951h1.958v-8.951zm3.45 0h-1.959v8.951h1.959v-8.951zm3.449 0h-1.958v8.951h1.958v-8.951zm3.45 0h-1.958v8.951H64.7v-8.951zm3.45-1.025h-1.958v11.621h1.958v-11.621zm3.451 1.025h-1.959v8.951h1.959v-8.951zm3.449 0h-1.958v8.951h1.958v-8.951zm3.45 0h-1.958v8.951H78.5v-8.951zm3.45 0h-1.958v8.951h1.958v-8.951zm3.45 0h-1.959v8.951H85.4v-8.951zm3.45 0h-1.958v8.951h1.958v-8.951zm3.45 0h-1.958v8.951H92.3v-8.951zm3.45 0h-1.959v8.951h1.959v-8.951zm3.449 0h-1.958v8.951h1.958v-8.951zm3.45 0h-1.958v8.951h1.958v-8.951zm3.451 0h-1.958v8.951h1.958v-8.951zm3.45 0h-1.959v8.951h1.959v-8.951zm3.449 0h-1.958v8.951h1.958v-8.951zm3.45 0h-1.958v8.951h1.958v-8.951zm3.45 0h-1.959v8.951h1.959v-8.951zm3.451 0h-1.959v8.951h1.959v-8.951zm3.449 0h-1.958v8.951h1.958v-8.951zm3.45 0h-1.958v8.951h1.958v-8.951zm3.45 0h-1.959v8.951h1.959v-8.951zm3.449-1.025h-1.958v11.621h1.958v-11.621z"/>
  </g>
</svg>
