<svg xmlns="http://www.w3.org/2000/svg" viewBox="-201 259.7 400 193.40157">
  <path fill="red" d="M-160.12875 401.87993c-.28222 0-.56443-.0706-.84664-.21166-26.81023-12.98179-40.63867-28.15074-40.00369-43.81356.49388-12.91124 11.00631-25.11695 30.479-35.27661 18.41439-9.59524 44.44854-17.28554 75.209748-22.08316 1.058299-.14111 1.975491.56442 2.116597 1.55217.141107 1.05829-.564425 1.97549-1.552171 2.11659-62.298504 9.87746-101.526104 30.479-102.443294 53.83212-.56443 13.89899 12.91124 28.22129 37.88708 40.2859.9172.42332 1.34052 1.55217.84664 2.53991-.28221.70554-.98774 1.0583-1.69327 1.0583zm233.601757-96.30516h-.28222c-19.82546-3.24545-40.70921-5.4326-62.08684-6.42035-1.0583-.0705-1.8343905-.91719-1.7638305-1.97549.0705-1.0583.9171905-1.83438 1.9754905-1.76383 21.58929 1.0583 42.61415 3.24545 62.51016 6.4909.98775.14111 1.69328 1.12885 1.55217 2.18715-.21166.84664-.98774 1.48162-1.90493 1.48162zM14.349397 433.9111h-1.55217c-1.0583 0-1.90494-.84664-1.90494-1.90494s.84664-1.90493 1.90494-1.90493h1.55217c100.538353 0 179.910743-26.1047 180.898493-59.68804.35276-11.78239-9.10137-23.70589-27.3041-34.50053-18.13218-10.79465-44.16633-19.96657-75.280303-26.52802-.98775-.21166-1.69328-1.1994-1.48162-2.2577.21166-.98775 1.1994-1.69328 2.2577-1.48162 31.466743 6.70256 57.853653 16.01559 76.409153 26.95134 19.4727 11.57073 29.56181 24.62308 29.13849 37.81653-.56443 17.84997-20.31933 34.14777-55.5254 45.8596-34.07721 11.42963-79.936813 17.63831-129.112413 17.63831z"/>
  <path fill="red" d="M48.356057 336.12432l49.59892-37.81653-58.27697 23.21201-16.36835-17.00333 5.22094 23.63533-49.59893 37.74598 58.27697-23.21201 16.36835 17.00333"/>
  <g fill="red">
    <path d="M-13.73079248 383.3244259c.70553234-3.5276617 1.97549055-2.96323583 5.57370548-3.5276617l3.316002-.49387264-1.0582985 5.50315225-3.316002.4938727c-3.5276617.4938727-5.1503861 1.4816179-4.51540698-1.9754905zm-7.19642987-5.07983285l-2.53991643 13.82843387c-.70553234 3.80987463.4233194 5.0092796 4.09208758 4.44485374l21.02486373-3.316002 4.51540697-24.2703125-21.02486373 3.316002c-3.66876817.56442587-5.36204578 2.2577035-6.06757812 5.9970249zm133.6278252-21.8009493l-.2116597 1.34051144 21.73039606-3.4571085c1.6932777-.282213 3.3865553-1.9754906 3.7393215-3.8804279.3527662-1.9049373-.7760856-3.1748956-2.4693632-2.8926826l-5.5737055.8466388-8.8897075 1.4110647-2.2577035.3527661c-2.6810229.4233194-5.5737055 3.3865552-6.0675781 6.2792378zm-152.3244322 62.51016532l.2116597-.98774528c.77608556.0705532 1.76383084.3527661 2.61046965.2116597l22.57703488-3.5276617c-.8466388 4.5154069-6.77311047 5.6442587-15.87447765 7.0553234l-10.30077217 1.6227243-5.50315225 29.7734647 13.546221-2.116597c33.3716797-3.316002 46.1418151-20.5309911 50.1633494-41.13253547l40.7092161-6.4908975 6.56145076-35.276617 3.316002-.5644259c3.59821494-.56442586 3.1043423-1.19940496 2.39880996 2.53991644l-5.9970249 32.3133812 29.2090389-4.65651346.4233194-2.116597c2.18715025.98774525 4.7976199 1.3405114 7.4786428.917192l50.51611555-8.04306866 4.72706666-25.39916427-3.24544877-2.3282567c2.82212935-3.3865552 5.07983284-7.4786428 5.71481194-10.93575125l.7760856-4.0215343c2.5399164-14.9572856-11.28851745-18.9082667-17.56775528-17.9205214l-28.9973792 4.5859602c-5.1503861.8466388-10.7946448 4.3743005-14.8867324 9.1013672-3.8098746-3.7393214-9.66579304-5.22093936-13.1229015-4.6565135l-32.3133812 5.1503861 3.59821493 7.97251547 29.1384856-4.5859602c4.23319404-.6349791 6.98477017.98774527 7.76085574 4.30374727-.28221293.8466388-7.76085574 40.6386628-7.76085574 40.6386628l-10.44187862 1.6227244 5.5737055-30.0556777c.70553235-3.7393214-.4233194-5.0092796-4.0920876-4.44485374l-20.03711844 3.1748955-6.56145075 35.276617-11.50017714 1.834384 7.4786428-40.42700307-9.45413337-11.147411L3.2725369 358.630794l16.08613736-2.53991642.28221294-.07055324-10.23021893 55.172629C6.8001986 425.2330469-8.157087 438.5676081-21.421095 440.68420514l-13.54622092 2.116597 2.0460438-11.0063045 10.30077215-1.62272437c9.1013672-1.41106468 19.26103288-10.51243187 21.02486373-20.03711846l1.12885175-5.9970249-26.8807821 4.2331941c-5.7853652.9171921-8.8897075-2.6104696-7.7608557-8.6780478l4.79762-25.8930369c.8466388-4.5859602 3.7393214-8.466388 7.54919603-10.4418786l.07055324-.7055323 13.4756677-10.3713254-7.90196222 1.3405115c-4.1626408.6349791-11.99404974 3.8098746-16.93277612 10.08911246-3.7393214-4.44485374-10.23021892-6.2086846-13.96954032-5.64425872l-28.99737914 4.5859602 4.7270667-25.3991642 21.1659702-3.38655523c11.2179642-1.76383085 23.7058866-14.46341297 25.89303687-26.3163563l3.1748954-17.0738827c2.18715027-11.92349656-6.13813134-21.23652345-17.4266488-19.4726926l-46.21236825 7.33753634-9.80689953 52.9149255-42.5436001 6.77311046c-3.59821493.5644258-7.12587663 4.0920875-7.83140897 7.9019622l-15.5922647 85.7221793c-.70553236 3.8098746 1.62272436 6.4203443 5.2209393 5.8559184l81.1362191-12.9112418 6.56145076-35.276617 3.316002-.4938727c3.6687682-.5644259 3.1043423-1.199405 2.39881 2.5399164l-5.9970249 32.31338116 29.2090389-4.72706668zm-60.1819086-19.33158612l-27.1629951 4.30374728.98774527-5.50315225 21.94205578-3.45710847 5.36204578-28.644613-21.94205577 3.4571085.9877453-5.5031522 27.1629951-4.3037472-7.3375363 39.6509175zm-1.69327763 8.81915425l-2.2577035 12.13515625-47.9761991 7.61974927 14.9572856-80.50124 39.6509175-6.27923782-2.04604378 11.0063045-28.15074036 4.44485375-4.30374728 23.14146075 22.92980105-3.66876817-2.04604378 11.0063045-22.92980105 3.7393214-4.30374728 23.14146076 36.47602198-5.7853652zm55.172629 3.03378907l-11.50017715 1.83438408 5.57370548-30.05567768c.70553234-3.7393214-.4233194-5.00927962-4.09208757-4.44485375l-20.03711846 3.17489553-6.56145076 35.276617-11.50017714 1.8343841 8.60749455-46.35347475.28221293-.07055323 38.09874636-6.06757813c5.7853652-.91719204 8.8897075 2.61046966 7.76085574 8.67804778l-6.632004 36.19380905zm74.57476833-56.79535337l11.2179642-1.76383085-8.60749455 46.35347473-11.50017714 1.8343841 8.60749455-46.28292152.282213-.14110646zm69.63604195 21.87150254l3.9509811-21.44818314c1.26995822-6.77311046 8.53694132-13.40511446 14.7456259-14.39285974l26.81022893-4.23319404c4.51540698-.70553234 7.6903025 4.30374728 6.77311047 9.24247366l-1.34051145 6.91421693c-.91719204 4.9387264-5.9970249 10.230219-10.51243186 10.9357513l-27.8685275 4.4448538-.4233194 2.4693632c-.5644259 2.8221294 1.3405114 5.0798329 3.9509811 4.6565135l31.1139762-4.9387264-2.1165971 11.28851747-35.13551056 5.57370548c-5.9970249.91719207-11.14741098-3.7393214-9.948006-10.51243183zm-166.08231283-60.11135537l3.88042787-20.9543105 14.60451944-2.32825672c1.9049373-.28221294 2.8926826.77608557 2.53991642 2.82212936l-2.6810229 14.3223065c-.35276616 2.0460438-1.83438408 3.5276617-3.7393214 3.8098747l-14.60451943 2.3282567z"/>
    <path d="M25.21459268 326.2468596l-3.1043423-12.27626272-1.76383084.2116597-.56442587 3.03378906c-.4233194 2.11659702-2.0460438 3.80987464-4.09208758 4.1626408l-11.9940498 1.90493733c-1.9754906.28221293-3.1043423-.91719205-2.7515761-3.03378907l6.0675781-32.52504087c.3527661-2.11659702 2.0460438-3.80987464 4.0215343-4.09208757l11.9940498-1.90493732c1.9754905-.28221294 3.1043423.91719204 2.7515761 3.03378906l-.7760856 4.1626408 24.2703125-3.88042786.917192-4.93872638c2.3282567-12.48792242-6.2086846-22.012609-18.0616279-20.17822493l-23.212014 3.66876817c-11.8529433 1.90493732-24.5525254 14.7456259-26.8102289 27.30410156l-6.49089757 34.71219113c-2.3282567 12.4879224 6.2086846 22.012609 18.0616279 20.1782249l7.76085575-1.199405 23.77643985-18.3438409zm17.2149891-7.40808958c.6349791-1.6932776 1.0582985-2.32825672 1.41106468-4.09208757l.8466388-4.44485374-9.66579305 1.5521712 7.4080896 6.9847702z"/>
  </g>
</svg>
