<?xml version="1.0" encoding="UTF-8" standalone="no"?>
<svg
   xmlns:dc="http://purl.org/dc/elements/1.1/"
   xmlns:cc="http://creativecommons.org/ns#"
   xmlns:rdf="http://www.w3.org/1999/02/22-rdf-syntax-ns#"
   xmlns:svg="http://www.w3.org/2000/svg"
   xmlns="http://www.w3.org/2000/svg"
   viewBox="0 0 228.02875 525.10376"
   height="525.10376"
   width="228.02875"
   xml:space="preserve"
   version="1.1"
   id="svg2"><metadata
     id="metadata8"><rdf:RDF><cc:Work
         rdf:about=""><dc:format>image/svg+xml</dc:format><dc:type
           rdf:resource="http://purl.org/dc/dcmitype/StillImage" /><dc:title></dc:title></cc:Work></rdf:RDF></metadata><defs
     id="defs6"><clipPath
       id="clipPath16"
       clipPathUnits="userSpaceOnUse"><path
         id="path18"
         d="m 0,420.083 182.423,0 L 182.423,0 0,0 0,420.083 Z" /></clipPath></defs><g
     transform="matrix(1.25,0,0,-1.25,0,525.10375)"
     id="g10"><g
       id="g12"><g
         clip-path="url(#clipPath16)"
         id="g14"><g
           transform="translate(1.8808,0)"
           id="g20"><path
             id="path22"
             style="fill:#ffffff;fill-opacity:1;fill-rule:nonzero;stroke:none"
             d="m 0,0 c -1.039,0 -1.881,0.958 -1.881,2.139 l 0,415.804 c 0,1.182 0.842,2.14 1.881,2.14 l 178.662,0 c 1.038,0 1.88,-0.958 1.88,-2.14 l 0,-415.804 C 180.542,0.958 179.7,0 178.662,0 L 0,0 Z" /></g><g
           transform="translate(11.9238,166.5781)"
           id="g24"><path
             id="path26"
             style="fill:#333333;fill-opacity:1;fill-rule:nonzero;stroke:none"
             d="m 0,0 0,-152.916 c 0,-1.111 0.65,-2.012 1.451,-2.012 l 137.889,0 c 0.802,0 1.451,0.901 1.451,2.012 l 0,391.023 c 0,1.112 -0.649,2.012 -1.451,2.012 l -137.889,0 C 0.65,240.119 0,239.219 0,238.107 L 0,117.433 0,0 Z" /></g><g
           transform="translate(39.7197,165.3115)"
           id="g28"><path
             id="path30"
             style="fill:#212121;fill-opacity:1;fill-rule:nonzero;stroke:none"
             d="m 0,0 c -3.512,0 -6.358,2.314 -6.358,5.169 l 0,108.025 c 0,2.856 2.846,5.17 6.358,5.17 l 27.98,0 c 3.511,0 6.359,-2.314 6.359,-5.17 l 0,-108.025 C 34.339,2.314 31.491,0 27.98,0 L 0,0 Z" /></g><g
           transform="translate(41.1279,171.1367)"
           id="g32"><path
             id="path34"
             style="fill:#ffffff;fill-opacity:1;fill-rule:nonzero;stroke:none"
             d="m 0,0 c -1.287,0 -2.33,1.043 -2.33,2.33 l 0,102.054 c 0,1.286 1.043,2.329 2.33,2.329 l 25.164,0 c 1.287,0 2.33,-1.043 2.33,-2.329 l 0,-102.054 C 27.494,1.043 26.451,0 25.164,0 L 0,0 Z" /></g><g
           transform="translate(148.9873,165.7773)"
           id="g36"><path
             id="path38"
             style="fill:#666666;fill-opacity:1;fill-rule:nonzero;stroke:none"
             d="m 0,0 c 2.059,0 3.728,1.67 3.728,3.729 l 0,109.975 c 0,2.06 -1.669,3.728 -3.728,3.728 l -11.301,0 c -2.058,0 -3.727,-1.668 -3.727,-3.728 l 0,-109.975 C -15.028,1.67 -13.359,0 -11.301,0 L 0,0 Z" /></g><g
           transform="translate(123.3672,165.7773)"
           id="g40"><path
             id="path42"
             style="fill:#666666;fill-opacity:1;fill-rule:nonzero;stroke:none"
             d="m 0,0 c 2.059,0 3.729,1.67 3.729,3.729 l 0,109.975 c 0,2.06 -1.67,3.728 -3.729,3.728 l -11.301,0 c -2.058,0 -3.727,-1.668 -3.727,-3.728 l 0,-109.975 C -15.028,1.67 -13.359,0 -11.301,0 L 0,0 Z" /></g><g
           transform="translate(96.8613,165.7773)"
           id="g44"><path
             id="path46"
             style="fill:#666666;fill-opacity:1;fill-rule:nonzero;stroke:none"
             d="m 0,0 c 2.06,0 3.729,1.67 3.729,3.729 l 0,109.975 c 0,2.06 -1.669,3.728 -3.729,3.728 l -11.3,0 c -2.059,0 -3.728,-1.668 -3.728,-3.728 l 0,-109.975 C -15.028,1.67 -13.359,0 -11.3,0 L 0,0 Z" /></g><g
           transform="translate(24.332,169.5059)"
           id="g48"><path
             id="path50"
             style="fill:#666666;fill-opacity:1;fill-rule:nonzero;stroke:none"
             d="m 0,0 0,109.975 c 0,2.06 -1.669,3.728 -3.727,3.728 l -8.681,0 0,-117.432 8.681,0 C -1.669,-3.729 0,-2.059 0,0" /></g><g
           transform="translate(57.1943,328.1445)"
           id="g52"><path
             id="path54"
             style="fill:#ffffff;fill-opacity:1;fill-rule:nonzero;stroke:none"
             d="m 0,0 0,-20.241 c 0,-2.059 1.669,-3.728 3.729,-3.728 l 27.726,0 c 2.06,0 3.729,1.669 3.729,3.728 l 0,20.241 20.242,0 c 2.058,0 3.727,1.67 3.727,3.728 l 0,27.727 c 0,2.06 -1.669,3.729 -3.727,3.729 l -20.242,0 0,20.242 c 0,2.058 -1.669,3.728 -3.729,3.728 l -27.726,0 C 1.669,59.154 0,57.484 0,55.426 l 0,-20.242 -20.241,0 c -2.059,0 -3.729,-1.669 -3.729,-3.729 l 0,-27.727 C -23.97,1.67 -22.3,0 -20.241,0 L 0,0 Z" /></g><g
           transform="translate(34.2343,101.1055)"
           id="g56"><path
             id="path58"
             style="fill:#ffffff;fill-opacity:1;fill-rule:nonzero;stroke:none"
             d="m 0,0 c -1.287,0 -2.33,1.043 -2.33,2.33 l 0,38.912 c 0,1.286 1.043,2.329 2.33,2.329 l 39.377,0 c 1.287,0 2.33,-1.043 2.33,-2.329 l 0,-38.912 C 41.707,1.043 40.664,0 39.377,0 L 0,0 Z" /></g><g
           transform="translate(53.9228,105.5332)"
           id="g60"><path
             id="path62"
             style="fill:#cd3332;fill-opacity:1;fill-rule:nonzero;stroke:none"
             d="m 0,0 c -9.587,0 -17.358,7.771 -17.358,17.357 0,9.588 7.771,17.36 17.358,17.36 9.587,0 17.358,-7.772 17.358,-17.36 C 17.358,7.771 9.587,0 0,0" /></g><g
           transform="translate(34.2343,46.4395)"
           id="g64"><path
             id="path66"
             style="fill:#ffffff;fill-opacity:1;fill-rule:nonzero;stroke:none"
             d="m 0,0 c -1.287,0 -2.33,1.043 -2.33,2.33 l 0,38.911 c 0,1.286 1.043,2.329 2.33,2.329 l 39.377,0 c 1.287,0 2.33,-1.043 2.33,-2.329 l 0,-38.911 C 41.707,1.043 40.664,0 39.377,0 L 0,0 Z" /></g><g
           transform="translate(53.9228,50.8672)"
           id="g68"><path
             id="path70"
             style="fill:#cd3332;fill-opacity:1;fill-rule:nonzero;stroke:none"
             d="m 0,0 c -9.587,0 -17.358,7.771 -17.358,17.357 0,9.588 7.771,17.36 17.358,17.36 9.587,0 17.358,-7.772 17.358,-17.36 C 17.358,7.771 9.587,0 0,0" /></g><g
           transform="translate(47.9043,262.958)"
           id="g72"><path
             id="path74"
             style="fill:#212121;fill-opacity:1;fill-rule:nonzero;stroke:none"
             d="m 0,0 c 0,3.323 2.694,6.019 6.019,6.019 3.325,0 6.019,-2.696 6.019,-6.019 l 0,-21.94 c 0,-3.325 -2.694,-6.02 -6.019,-6.02 C 2.694,-27.96 0,-25.265 0,-21.94 L 0,0 Z" /></g><g
           transform="translate(47.9043,207.9697)"
           id="g76"><path
             id="path78"
             style="fill:#212121;fill-opacity:1;fill-rule:nonzero;stroke:none"
             d="m 0,0 c 0,3.325 2.694,6.02 6.019,6.02 3.325,0 6.019,-2.695 6.019,-6.02 l 0,-21.94 c 0,-3.325 -2.694,-6.02 -6.019,-6.02 C 2.694,-27.96 0,-25.265 0,-21.94 L 0,0 Z" /></g><g
           transform="translate(60.3398,331.291)"
           id="g80"><path
             id="path82"
             style="fill:#212121;fill-opacity:1;fill-rule:nonzero;stroke:none"
             d="m 0,0 0,-24.058 28.893,0 0,24.058 24.057,0 0,28.893 -24.057,0 0,24.056 -28.893,0 0,-24.056 -24.057,0 L -24.057,0 0,0 Z" /></g><g
           transform="translate(92.9599,345.7363)"
           id="g84"><path
             id="path86"
             style="fill:#000000;fill-opacity:1;fill-rule:nonzero;stroke:none"
             d="m 0,0 0,-6 6.933,0 0,-2.563 L 15.379,0 6.933,8.563 6.933,6 0,6 0,0 Z" /></g><g
           transform="translate(56.6123,345.7363)"
           id="g88"><path
             id="path90"
             style="fill:#000000;fill-opacity:1;fill-rule:nonzero;stroke:none"
             d="m 0,0 0,6 -6.932,0 0,2.563 L -15.378,0 -6.932,-8.563 -6.932,-6 0,-6 0,0 Z" /></g><g
           transform="translate(74.5664,327.5625)"
           id="g92"><path
             id="path94"
             style="fill:#000000;fill-opacity:1;fill-rule:nonzero;stroke:none"
             d="m 0,0 -6,0 0,-6.932 -2.564,0 8.564,-8.445 8.563,8.445 -2.564,0 L 5.999,0 0,0 Z" /></g><g
           transform="translate(74.5664,363.9102)"
           id="g96"><path
             id="path98"
             style="fill:#000000;fill-opacity:1;fill-rule:nonzero;stroke:none"
             d="m 0,0 5.999,0 0,6.932 2.564,0 L 0,15.379 -8.564,6.932 -6,6.932 -6,0 0,0 Z" /></g><g
           transform="translate(74.5664,337.834)"
           id="g100"><path
             id="path102"
             style="fill:#000000;fill-opacity:1;fill-rule:nonzero;stroke:none"
             d="m 0,0 c -4.364,0 -7.902,3.539 -7.902,7.902 0,4.366 3.538,7.903 7.902,7.903 4.363,0 7.902,-3.537 7.902,-7.903 C 7.902,3.539 4.363,0 0,0" /></g><g
           transform="translate(119.791,132.5527)"
           id="g104"><path
             id="path106"
             style="fill:#cd3332;fill-opacity:1;fill-rule:nonzero;stroke:none"
             d="m 0,0 c 0.08,0.115 0.173,0.176 0.267,0.234 2.855,1.764 5.71,3.53 8.568,5.287 0.172,0.107 0.243,0.213 0.24,0.42 C 9.064,7.103 9.07,8.264 9.07,9.424 9.07,9.516 9.061,9.607 9.057,9.713 l -13.087,0 0,-4.008 9.045,0 C 5.021,5.682 5.029,5.659 5.035,5.637 4.946,5.578 4.856,5.518 4.767,5.461 1.915,3.691 -0.936,1.919 -3.791,0.155 -3.982,0.037 -4.053,-0.09 -4.051,-0.316 c 0.012,-1.132 0.006,-2.264 0.006,-3.397 l 0,-0.295 13.094,0 L 9.049,0 0,0 Z" /></g><g
           transform="translate(118.2568,67.9941)"
           id="g108"><path
             id="path110"
             style="fill:#cd3332;fill-opacity:1;fill-rule:nonzero;stroke:none"
             d="m 0,0 c -0.848,0.033 -1.414,0.732 -1.385,1.563 0.03,0.85 0.614,1.467 1.462,1.501 0.611,0.025 1.227,0.004 1.839,0.004 l 0,0.005 C 2.481,3.073 3.048,3.086 3.613,3.07 4.539,3.044 5.123,2.465 5.154,1.569 5.184,0.696 4.636,0.03 3.731,-0.006 2.489,-0.055 1.242,-0.049 0,0 m 5.763,-0.004 c 0.4,0.733 0.716,1.44 0.775,2.236 C 6.595,3.02 6.481,3.772 6.142,4.488 5.799,5.211 5.303,5.807 4.667,6.286 3.091,7.476 0.943,7.616 -0.624,6.494 -3.002,4.792 -3.281,2.557 -2.06,0.008 c -0.148,-0.01 -0.293,-0.021 -0.432,-0.03 l 0,-3.849 13.081,0 0,3.867 -4.826,0 z" /></g><g
           transform="translate(123.5078,109.7227)"
           id="g112"><path
             id="path114"
             style="fill:#cd3332;fill-opacity:1;fill-rule:nonzero;stroke:none"
             d="M 0,0 C 1.673,1.627 1.79,4.392 0.265,6.199 0.203,6.273 0.145,6.352 0.038,6.486 l 0.88,0 0,3.858 -8.671,0 0,-3.843 c 0.128,-0.007 0.248,-0.019 0.368,-0.018 1.708,0.002 3.415,0.013 5.122,0.003 0.276,-0.002 0.575,-0.045 0.82,-0.158 0.777,-0.36 1.186,-1.329 0.972,-2.205 -0.203,-0.832 -0.886,-1.35 -1.787,-1.35 l -5.151,0 -0.331,0 0,-3.868 c 0.048,-0.009 0.075,-0.018 0.102,-0.018 1.614,0 3.227,-0.019 4.839,0.008 1.06,0.017 2.02,0.348 2.799,1.105" /></g><g
           transform="translate(121.1045,76.5684)"
           id="g116"><path
             id="path118"
             style="fill:#cd3332;fill-opacity:1;fill-rule:nonzero;stroke:none"
             d="M 0,0 C 1.046,0.037 1.942,0.512 2.638,1.314 4.101,3.004 4.11,5.552 2.665,7.268 2.601,7.343 2.538,7.418 2.419,7.561 l 0.911,0 0,3.868 -8.667,0 0,-3.87 0.388,0 c 1.726,0.002 3.453,0.002 5.179,0.005 0.363,0 0.688,-0.097 0.978,-0.312 C 1.875,6.754 2.155,5.846 1.888,5.049 1.626,4.268 1.006,3.848 0.108,3.846 c -1.697,0 -3.395,0 -5.093,-10e-4 C -5.104,3.844 -5.222,3.83 -5.337,3.822 l 0,-3.837 c 0.058,-0.01 0.094,-0.023 0.131,-0.023 C -3.471,-0.031 -1.733,-0.061 0,0" /></g><g
           transform="translate(120.1689,55.4434)"
           id="g120"><path
             id="path122"
             style="fill:#cd3332;fill-opacity:1;fill-rule:nonzero;stroke:none"
             d="m 0,0 0,0.029 c -0.745,0 -1.491,-0.033 -2.234,0.008 -0.991,0.057 -1.624,0.767 -1.587,1.701 0.029,0.736 0.595,1.336 1.404,1.474 0.222,0.038 0.449,0.056 0.675,0.056 1.161,0.005 2.32,0.005 3.48,-0.002 C 1.982,3.265 2.23,3.247 2.469,3.197 3.325,3.016 3.874,2.35 3.832,1.569 3.787,0.741 3.153,0.121 2.262,0.031 2.131,0.018 1.999,0.002 1.867,0.002 1.244,-0.002 0.622,0 0,0 M 3.417,-2.502 C 5.386,-0.238 5.358,3.506 3.357,5.771 1.523,7.85 -1.442,7.885 -3.313,5.84 -4.408,4.643 -4.882,3.205 -4.896,1.699 c 0.007,-1.582 0.424,-2.926 1.363,-4.086 1.87,-2.308 5.001,-2.357 6.95,-0.115" /></g><g
           transform="translate(121.4023,94.3574)"
           id="g124"><path
             id="path126"
             style="fill:#cd3332;fill-opacity:1;fill-rule:nonzero;stroke:none"
             d="M 0,0 C 0,0.669 0.012,1.338 -0.006,2.008 -0.012,2.264 0.073,2.342 0.319,2.314 0.627,2.277 0.943,2.295 1.246,2.236 2.02,2.086 2.555,1.415 2.55,0.645 2.545,-0.133 1.982,-0.811 1.196,-0.937 0.819,-0.998 0.433,-0.998 0,-1.029 L 0,0 Z M 1.818,-3.759 C 2.904,-2.672 3.463,-1.34 3.571,0.183 3.697,1.963 3.24,3.566 2.048,4.92 1.251,5.823 0.254,6.383 -0.967,6.467 -2.552,6.576 -3.83,5.939 -4.793,4.723 -6.229,2.906 -6.516,0.842 -5.858,-1.342 c 0.459,-1.523 1.379,-2.711 2.86,-3.398 0.113,-0.053 0.234,-0.086 0.355,-0.129 l 0,3.844 c -0.358,0.027 -0.697,0.033 -1.032,0.081 -0.823,0.117 -1.405,0.739 -1.433,1.506 -0.032,0.838 0.453,1.54 1.299,1.665 0.803,0.117 1.628,0.086 2.488,0.123 l 0,-7.455 c 0.142,0 0.244,-0.01 0.344,0 1.094,0.111 2.025,0.574 2.795,1.346" /></g><g
           transform="translate(125.7441,100.377)"
           id="g128"><path
             id="path130"
             style="fill:#cd3332;fill-opacity:1;fill-rule:nonzero;stroke:none"
             d="m 0,0 0,2.109 1.748,0 0,3.942 -1.751,0 c 0,0.128 0.001,0.229 0,0.33 C -0.004,6.9 0.001,7.419 -0.014,7.937 -0.016,8.021 -0.101,8.17 -0.156,8.173 -0.52,8.193 -0.887,8.184 -1.283,8.184 l 0,-2.149 -8.698,0 0,-3.933 8.706,0 L -1.275,0 0,0 Z" /></g><path
           id="path132"
           style="fill:#cd3332;fill-opacity:1;fill-rule:nonzero;stroke:none"
           d="m 115.759,122.318 8.675,0 0,3.891 -8.675,0 0,-3.891 z" /><path
           id="path134"
           style="fill:#cd3332;fill-opacity:1;fill-rule:nonzero;stroke:none"
           d="m 128.842,126.227 -2.612,0 0,-3.908 2.612,0 0,3.908 z" /><g
           transform="translate(125.0683,50.4463)"
           id="g136"><path
             id="path138"
             style="fill:#cd3332;fill-opacity:1;fill-rule:nonzero;stroke:none"
             d="M 0,0 C -0.002,1.208 0.928,2.125 2.166,2.138 3.387,2.149 4.338,1.222 4.343,0.013 4.347,-1.178 3.41,-2.101 2.192,-2.105 0.95,-2.11 0.001,-1.198 0,0 M 4.753,0.001 C 4.757,1.456 3.632,2.604 2.192,2.614 0.735,2.624 -0.398,1.485 -0.399,0.011 -0.4,-1.442 0.732,-2.591 2.169,-2.597 c 1.43,-0.004 2.58,1.153 2.584,2.598" /></g><g
           transform="translate(127.417,50.8477)"
           id="g140"><path
             id="path142"
             style="fill:#cd3332;fill-opacity:1;fill-rule:nonzero;stroke:none"
             d="M 0,0 C 0.001,0.057 0.002,0.164 0.002,0.164 L 0.96,0.168 0.963,-0.76 C 0.955,-0.98 0.697,-1.139 0.461,-1.129 0.229,-1.12 0.036,-0.986 0.01,-0.742 -0.019,-0.49 -0.004,-0.253 0,0 m -1.624,-1.176 0,-0.433 c 0.428,0.273 0.841,0.536 1.264,0.806 0.024,-0.093 0.048,-0.166 0.072,-0.234 0.13,-0.375 0.425,-0.567 0.831,-0.537 0.399,0.029 0.683,0.24 0.715,0.635 0.04,0.494 0.009,0.993 0.009,1.511 l -2.904,0 0,-0.412 1.254,0 0,-0.553 c 0,0 -0.204,-0.132 -0.31,-0.193 l -0.931,-0.59 z" /></g></g></g></g></svg>