<?xml version="1.0" encoding="UTF-8" standalone="no"?>
<svg
   xmlns:dc="http://purl.org/dc/elements/1.1/"
   xmlns:cc="http://creativecommons.org/ns#"
   xmlns:rdf="http://www.w3.org/1999/02/22-rdf-syntax-ns#"
   xmlns:svg="http://www.w3.org/2000/svg"
   xmlns="http://www.w3.org/2000/svg"
   viewBox="0 0 204.06625 229.99875"
   height="229.99875"
   width="204.06625"
   xml:space="preserve"
   version="1.1"
   id="svg2"><metadata
     id="metadata8"><rdf:RDF><cc:Work
         rdf:about=""><dc:format>image/svg+xml</dc:format><dc:type
           rdf:resource="http://purl.org/dc/dcmitype/StillImage" /><dc:title></dc:title></cc:Work></rdf:RDF></metadata><defs
     id="defs6"><clipPath
       id="clipPath26"
       clipPathUnits="userSpaceOnUse"><path
         id="path28"
         d="m 0,183.999 163.253,0 L 163.253,0 0,0 0,183.999 Z" /></clipPath></defs><g
     transform="matrix(1.25,0,0,-1.25,0,229.99875)"
     id="g10"><g
       transform="translate(157.2912,183.9996)"
       id="g12"><path
         id="path14"
         style="fill:#bcbcbc;fill-opacity:1;fill-rule:nonzero;stroke:none"
         d="m 0,0 0,-2.327 -9.016,0 0,2.327 -87.249,0 0,-2.327 -35.982,0 0,2.327 -10.147,0 0,-2.327 -8.952,0 0,2.327 -5.945,0 0,-150.166 8.482,0 0,-33.834 145.319,0 0,33.398 9.452,0 L 5.962,0 0,0 Z" /></g><path
       id="path16"
       style="fill:#a3a3a3;fill-opacity:1;fill-rule:nonzero;stroke:none"
       d="m 5.945,181.673 8.951,0 0,0.921 -8.951,0 0,-0.921 z" /><path
       id="path18"
       style="fill:#a3a3a3;fill-opacity:1;fill-rule:nonzero;stroke:none"
       d="m 148.275,181.673 9.016,0 0,0.921 -9.016,0 0,-0.921 z" /><path
       id="path20"
       style="fill:#a3a3a3;fill-opacity:1;fill-rule:nonzero;stroke:none"
       d="m 25.044,0 35.982,0 0,181.673 -35.982,0 0,-181.673 z" /><g
       id="g22"><g
         clip-path="url(#clipPath26)"
         id="g24"><g
           transform="translate(61.0263,181.6728)"
           id="g30"><path
             id="path32"
             style="fill:#848484;fill-opacity:1;fill-rule:nonzero;stroke:none"
             d="m 0,0 -35.982,0 0,-20.423 c 0,-0.857 0.694,-1.551 1.551,-1.551 l 32.879,0 c 0.858,0 1.552,0.694 1.552,1.551 L 0,0 Z" /></g><g
           transform="translate(25.3346,0)"
           id="g34"><path
             id="path36"
             style="fill:#bcbcbc;fill-opacity:1;fill-rule:nonzero;stroke:none"
             d="m 0,0 35.4,0 0,17.515 c 0,0.856 -0.683,1.551 -1.525,1.551 l -32.349,0 C 0.683,19.066 0,18.371 0,17.515 L 0,0 Z" /></g><path
           id="path38"
           style="fill:#bcbcbc;fill-opacity:1;fill-rule:nonzero;stroke:none"
           d="m 60.202,22.298 -34.415,0 0,3.296 34.415,0 0,-3.296 z" /><path
           id="path40"
           style="fill:#bcbcbc;fill-opacity:1;fill-rule:nonzero;stroke:none"
           d="m 60.202,29.213 -34.415,0 0,3.296 34.415,0 0,-3.296 z" /><path
           id="path42"
           style="fill:#bcbcbc;fill-opacity:1;fill-rule:nonzero;stroke:none"
           d="m 60.202,36.128 -34.415,0 0,3.296 34.415,0 0,-3.296 z" /><path
           id="path44"
           style="fill:#bcbcbc;fill-opacity:1;fill-rule:nonzero;stroke:none"
           d="m 60.202,43.043 -34.415,0 0,3.296 34.415,0 0,-3.296 z" /><path
           id="path46"
           style="fill:#bcbcbc;fill-opacity:1;fill-rule:nonzero;stroke:none"
           d="m 60.202,49.959 -34.415,0 0,3.296 34.415,0 0,-3.296 z" /><path
           id="path48"
           style="fill:#bcbcbc;fill-opacity:1;fill-rule:nonzero;stroke:none"
           d="m 60.202,56.874 -34.415,0 0,3.296 34.415,0 0,-3.296 z" /><path
           id="path50"
           style="fill:#bcbcbc;fill-opacity:1;fill-rule:nonzero;stroke:none"
           d="m 60.202,63.79 -34.415,0 0,3.296 34.415,0 0,-3.296 z" /><path
           id="path52"
           style="fill:#bcbcbc;fill-opacity:1;fill-rule:nonzero;stroke:none"
           d="m 60.202,70.705 -34.415,0 0,3.296 34.415,0 0,-3.296 z" /><path
           id="path54"
           style="fill:#bcbcbc;fill-opacity:1;fill-rule:nonzero;stroke:none"
           d="m 60.202,77.62 -34.415,0 0,3.296 34.415,0 0,-3.296 z" /><path
           id="path56"
           style="fill:#bcbcbc;fill-opacity:1;fill-rule:nonzero;stroke:none"
           d="m 60.202,84.535 -34.415,0 0,3.297 34.415,0 0,-3.297 z" /><path
           id="path58"
           style="fill:#bcbcbc;fill-opacity:1;fill-rule:nonzero;stroke:none"
           d="m 60.202,91.451 -34.415,0 0,3.296 34.415,0 0,-3.296 z" /><path
           id="path60"
           style="fill:#bcbcbc;fill-opacity:1;fill-rule:nonzero;stroke:none"
           d="m 60.202,98.367 -34.415,0 0,3.296 34.415,0 0,-3.296 z" /><path
           id="path62"
           style="fill:#bcbcbc;fill-opacity:1;fill-rule:nonzero;stroke:none"
           d="m 60.202,105.282 -34.415,0 0,3.296 34.415,0 0,-3.296 z" /><path
           id="path64"
           style="fill:#bcbcbc;fill-opacity:1;fill-rule:nonzero;stroke:none"
           d="m 60.202,112.197 -34.415,0 0,3.296 34.415,0 0,-3.296 z" /><path
           id="path66"
           style="fill:#bcbcbc;fill-opacity:1;fill-rule:nonzero;stroke:none"
           d="m 60.202,119.112 -34.415,0 0,3.296 34.415,0 0,-3.296 z" /><path
           id="path68"
           style="fill:#bcbcbc;fill-opacity:1;fill-rule:nonzero;stroke:none"
           d="m 60.202,126.028 -34.415,0 0,3.297 34.415,0 0,-3.297 z" /><path
           id="path70"
           style="fill:#bcbcbc;fill-opacity:1;fill-rule:nonzero;stroke:none"
           d="m 60.202,132.943 -34.415,0 0,3.296 34.415,0 0,-3.296 z" /><path
           id="path72"
           style="fill:#bcbcbc;fill-opacity:1;fill-rule:nonzero;stroke:none"
           d="m 60.202,139.859 -34.415,0 0,3.296 34.415,0 0,-3.296 z" /><path
           id="path74"
           style="fill:#bcbcbc;fill-opacity:1;fill-rule:nonzero;stroke:none"
           d="m 60.202,146.775 -34.415,0 0,3.296 34.415,0 0,-3.296 z" /><path
           id="path76"
           style="fill:#bcbcbc;fill-opacity:1;fill-rule:nonzero;stroke:none"
           d="m 60.202,153.69 -34.415,0 0,3.296 34.415,0 0,-3.296 z" /><g
           transform="translate(64.3701,183.9993)"
           id="g78"><path
             id="path80"
             style="fill:#a3a3a3;fill-opacity:1;fill-rule:nonzero;stroke:none"
             d="m 0,0 0,-123.926 c 0,-0.857 0.695,-1.551 1.552,-1.551 l 75.616,0 c 0.857,0 1.552,0.694 1.552,1.551 L 78.72,0 0,0 Z" /></g><g
           transform="translate(73.5804,47.6642)"
           id="g82"><path
             id="path84"
             style="fill:#a3a3a3;fill-opacity:1;fill-rule:nonzero;stroke:none"
             d="M 0,0 14.769,0 7.384,-12.797 0,0 Z" /></g><path
           id="path86"
           style="fill:#a3a3a3;fill-opacity:1;fill-rule:nonzero;stroke:none"
           d="m 60.202,160.605 -34.415,0 0,3.296 34.415,0 0,-3.296 z" /><path
           id="path88"
           style="fill:#a3a3a3;fill-opacity:1;fill-rule:nonzero;stroke:none"
           d="m 60.202,167.52 -34.415,0 0,3.296 34.415,0 0,-3.296 z" /><path
           id="path90"
           style="fill:#a3a3a3;fill-opacity:1;fill-rule:nonzero;stroke:none"
           d="m 60.202,174.436 -34.415,0 0,3.296 34.415,0 0,-3.296 z" /></g></g></g></svg>