<svg xmlns="http://www.w3.org/2000/svg" width="137.4845" height="200">
  <defs>
    <clipPath id="a">
      <path d="M0 345.409h237.442V0H0v345.409z"/>
    </clipPath>
  </defs>
  <g clip-path="url(#a)" transform="matrix(0.57902371,0,0,-0.57902371,-5.7902371e-5,200)">
    <path fill="#383838" d="M5.0801 0c-2.805 0-5.08 2.275-5.08 5.077v335.255c0 2.803 2.275 5.077 5.08 5.077h227.283c2.807 0 5.079-2.274 5.079-5.077V5.077c0-2.802-2.272-5.077-5.079-5.077H5.0801z"/>
    <path fill="#2d2d2d" d="M150.2305 203.2441c-24.741 0-44.799 20.057-44.799 44.799 0 24.744 20.058 44.799 44.799 44.799 24.743 0 44.801-20.055 44.801-44.799 0-24.742-20.058-44.799-44.801-44.799"/>
    <path fill="#3f3f3f" d="M149.6329 230.1211c-9.898 0-17.92 8.025-17.92 17.922s8.022 17.918 17.92 17.918c9.897 0 17.92-8.021 17.92-17.918 0-9.897-8.023-17.922-17.92-17.922"/>
    <path fill="#2d2d2d" d="M168.3809 71.8799c6.902-13.08 15.031-17.825 26.328-14.581 11.295 3.245 17.824 15.032 14.578 26.328-8.804 27.479-41.172 60.853-84.576 85.198-10.21 5.825-23.037 3.599-29.437-6.259-6.399-9.861-3.88-23.498 6.262-29.439 34.546-20.228 49.407-29.864 66.845-61.247"/>
    <path fill="#494949" d="M113.459 136.416c-7.857 0-14.225 6.369-14.225 14.226 0 7.857 6.368 14.221 14.225 14.221 7.854 0 14.224-6.364 14.224-14.221s-6.37-14.226-14.224-14.226m30.0938-19.0117c-7.857 0-14.224 6.365-14.224 14.223 0 7.856 6.367 14.225 14.224 14.225s14.225-6.369 14.225-14.225c0-7.858-6.368-14.223-14.225-14.223m26.3457-25.0176c-7.857 0-14.224 6.369-14.224 14.222 0 7.857 6.367 14.226 14.224 14.226 7.855 0 14.225-6.369 14.225-14.226 0-7.853-6.37-14.222-14.225-14.222m19.664-29.2715c-7.856 0-14.224 6.365-14.224 14.223 0 7.856 6.368 14.225 14.224 14.225 7.857 0 14.225-6.369 14.225-14.225 0-7.858-6.368-14.223-14.225-14.223m10.2071 139.2969c.316 2.373 2.494 4.037 4.867 3.719 2.37-.32 4.035-2.497 3.716-4.865l-1.83-13.691c-.319-2.372-2.497-4.037-4.867-3.723-2.37.32-4.034 2.498-3.718 4.87l1.832 13.69zm0-58.2149c.316-2.368 2.494-4.032 4.867-3.719 2.37.32 4.035 2.497 3.716 4.869l-1.83 13.692c-.319 2.367-2.497 4.036-4.867 3.718-2.37-.32-4.034-2.498-3.718-4.865l1.832-13.695z"/>
    <path fill="#e8e2e9" d="M221.7891 328.5058v-2.404h3.866l-3.866-4.347v-2.386h6.469v2.4h-3.869l3.869 4.346v2.391h-6.469zm0-9.4062v-2.399h3.066l-3.066-3.613v-2.854l3.328 3.89 3.141-3.824v2.855l-2.866 3.546h2.866v2.399h-6.469zm4.667 9.8037h1.802v7.003c.019 1.217-.928 2-2.068 2-1.141 0-2.09-.752-2.069-2v-4.436c0-.164-.117-.3-.266-.3-.148 0-.265.136-.265.3v6.369h-1.801v-7.001c-.022-1.222.925-2.001 2.066-2.001 1.143 0 2.09.748 2.068 2.001v4.435c0 .164.12.301.267.301.147 0 .266-.137.266-.301v-6.37zM41.5752 163.0176h-3.139v.23c.864.266 1.514.673 1.953 1.222.447.536.677.859.677 1.505 0 .611-.195 1.125-.564 1.531-.379.416-.895.699-1.563.872-.669.169-1.355.253-2.058.253-.852 0-1.598-.093-2.24-.279-.651-.186-.994-.486-1.293-.902-.298-.416-.447-.748-.447-1.32 0-.204.016-.407.06-.611.053-.212.113-.376.201-.593h2.27c.349 0 .579.022.685.062.096.049.192.141.272.279.086.138.133.31.133.514v.212h.237v-4.006h-.237c-.028.301-.071.51-.141.633-.063.124-.178.212-.334.279-.089.031-.291.049-.615.053l-2.199.017c-.245.523-.456 1.001-.589 1.572-.121.571-.227 1.165-.227 1.775 0 .784.061 1.279.29 1.793.227.522.437.97.807 1.368.378.389.799.699 1.266.929.609.274 1.275.424 2.032.424 1.336 0 2.461-.442 3.381-1.314.926-.863 1.382-1.961 1.382-3.279 0-.603-.166-1.143-.396-1.705-.166-.399-.246-.633-.246-.708 0-.111.044-.212.133-.31.088-.098.254-.185.509-.266v-.23zm-.5713 14.789c-.009.774-.405 1.355-1.195 1.752-.642.332-1.582.496-2.795.496-1.452 0-2.541-.234-3.227-.739-.482-.363-.713-.872-.713-1.509h-.674v.009c0 1.562.535 2.775 1.608 3.634.844.672 1.844 1.013 3.006 1.013 1.301 0 2.39-.438 3.251-1.314.872-.881 1.284-1.966 1.233-3.254v-.088h-.494zm0-.018v.018h.494c.033-1.342-.379-2.452-1.224-3.298-.87-.863-1.953-1.292-3.251-1.292-1.119 0-2.094.322-2.947.965-1.115.858-1.676 2.063-1.676 3.625h.674c0-.43.124-.806.336-1.089.264-.368.694-.602 1.282-.81.58-.2 1.328-.341 2.269-.341 1.124 0 1.961.106 2.514.318.562.204.949.475 1.186.788.228.328.343.704.343 1.116m-.1503 9.0073h-3.508v-.177c0-.562.177-.783.537-1.035.353-.253.87-.412 1.566-.479v-.251h-4.659v.251c.511.049.923.16 1.248.324.326.173.545.367.651.589.112.216.166.358.166.778h-2.609c-.492 0-.792-.021-.897-.062-.115-.045-.204-.115-.274-.23-.069-.115-.104-.292-.104-.553v-.531c0-.819.192-1.059.579-1.554.379-.496.82-.837 1.61-1.057v-.245l-2.681.381v7.242h.246v-.301c0-.252.042-.465.131-.62.061-.115.168-.203.318-.261.104-.049.376-.075.823-.075h5.854c.396 0 .645.009.739.035.151.04.273.12.352.244.125.163.183.389.183.677v.301h.249v-7.427h-2.629v.243c.642.128 1.099.301 1.379.54.283.226.484.545.617.965.08.248.113.704.113 1.377v.911zm.5195 9.6279l-5.521-4.568h3.826c.534 0 .894.07 1.08.234.255.222.379.482.367 1.005h.248v-2.762h-.248c-.041.39-.112.456-.184.584-.079.138-.201.243-.376.32-.168.074-.466.114-.887.114h-7.403v.23l7.403 6.268h-5.653c-.51 0-.851-.124-1.037-.367-.176-.244-.263-.523-.263-.837v-.221h-.247v3.288h.247c0-.509.103-.862.298-1.066.193-.195.527-.301 1.002-.301h6.276l.236.203c.238.195.387.368.467.514.07.155.115.017.121.292h.248v-2.93zm-.3692-46.2949c-.009.77-.405 1.35-1.195 1.748-.642.336-1.582.5-2.795.5-1.452 0-2.541-.239-3.227-.744-.482-.358-.713-.871-.713-1.504h-.674v.008c0 1.562.535 2.775 1.608 3.63.844.677 1.844 1.018 3.006 1.018 1.301 0 2.39-.438 3.251-1.319.872-.876 1.284-1.961 1.233-3.249v-.088h-.494zm0-.018v.018h.494c.033-1.346-.379-2.453-1.224-3.298-.87-.872-1.953-1.306-3.251-1.306-1.119 0-2.094.328-2.947.969-1.115.864-1.676 2.068-1.676 3.635h.674c0-.435.124-.807.336-1.094.264-.367.694-.601 1.282-.805.58-.205 1.328-.341 2.269-.341 1.124 0 1.961.106 2.514.318.562.204.949.47 1.186.788.228.327.343.699.343 1.116"/>
    <path fill="#e8e2e9" d="M40.8536 159.1181h-3.508v-.177c0-.566.177-.783.537-1.036.353-.252.87-.416 1.566-.482v-.252h-4.659v.252c.511.049.923.164 1.248.328.326.168.545.367.651.584.112.221.166.358.166.783h-2.609c-.492 0-.792-.026-.897-.066-.115-.04-.204-.111-.274-.226-.069-.115-.104-.297-.104-.553v-.531c0-.824.192-1.059.579-1.559.379-.496.82-.836 1.61-1.057v-.243l-2.681.384v7.237h.246v-.301c0-.252.042-.46.131-.619.061-.115.168-.204.318-.262.104-.049.376-.07.823-.07h5.854c.396 0 .645.009.739.031.151.039.273.123.352.248.125.158.183.389.183.672v.301h.249v-7.427h-2.629v.248c.642.128 1.099.301 1.379.535.283.231.484.545.617.97.08.243.113.699.113 1.377v.911z"/>
    <path fill="#e8e2e9" fill-rule="evenodd" d="M37.8477 172.0742v-.049c0-.465-.396-.841-.869-.841-.475 0-.861.376-.861.841v.049c0 .465.386.837.861.837.473 0 .869-.372.869-.837"/>
    <path fill="#494949" d="M217.0586 172.707c0-21.281 20.384-167.63 20.384-167.63v335.255s-20.384-146.795-20.384-167.625"/>
  </g>
</svg>
