<?xml version="1.0" encoding="UTF-8" standalone="no"?>
<svg
   xmlns:dc="http://purl.org/dc/elements/1.1/"
   xmlns:cc="http://creativecommons.org/ns#"
   xmlns:rdf="http://www.w3.org/1999/02/22-rdf-syntax-ns#"
   xmlns:svg="http://www.w3.org/2000/svg"
   xmlns="http://www.w3.org/2000/svg"
   viewBox="0 0 601.48248 117.26488"
   height="117.26488"
   width="601.48248"
   xml:space="preserve"
   version="1.1"
   id="svg2"><metadata
     id="metadata8"><rdf:RDF><cc:Work
         rdf:about=""><dc:format>image/svg+xml</dc:format><dc:type
           rdf:resource="http://purl.org/dc/dcmitype/StillImage" /><dc:title></dc:title></cc:Work></rdf:RDF></metadata><defs
     id="defs6"><clipPath
       id="clipPath16"
       clipPathUnits="userSpaceOnUse"><path
         id="path18"
         d="m 0,93.812 481.186,0 L 481.186,0 0,0 0,93.812 Z" /></clipPath></defs><g
     transform="matrix(1.25,0,0,-1.25,0,117.26488)"
     id="g10"><g
       id="g12"><g
         clip-path="url(#clipPath16)"
         id="g14"><g
           transform="translate(86.6544,29.2392)"
           id="g20"><path
             id="path22"
             style="fill:#e72835;fill-opacity:1;fill-rule:nonzero;stroke:none"
             d="m 0,0 c 1.282,2.112 1.571,4.315 1.774,6.515 0.165,1.792 -0.218,3.554 -0.602,5.301 -1.318,5.996 -4.328,11.081 -8.466,15.525 -1.437,1.542 -2.936,3.029 -4.598,4.362 -2.261,1.814 -4.646,3.426 -7.183,4.798 -3.203,1.732 -6.615,2.985 -10.187,3.682 -2.043,0.399 -4.157,0.71 -6.223,0.631 -1.843,-0.071 -3.719,-0.349 -5.544,-0.849 -4.561,-1.251 -8.013,-3.915 -10.125,-8.112 -1.824,-3.625 -2.03,-7.572 -1.238,-11.485 0.701,-3.471 2.046,-6.772 3.94,-9.773 2.378,-3.768 5.167,-7.19 8.679,-10.027 2.258,-1.824 4.588,-3.502 7.116,-4.9 5.655,-3.126 11.659,-4.957 18.192,-4.645 1.792,0.086 3.553,0.417 5.218,1.158 -0.528,0.078 -1.045,0.095 -1.561,0.075 -3.072,-0.117 -5.912,0.754 -8.635,2.064 -4.588,2.207 -8.189,5.568 -10.746,9.914 -1.965,3.341 -2.993,7.015 -1.976,10.951 0.546,2.114 1.669,3.834 3.497,5.166 2.942,2.143 6.295,2.099 9.57,1.741 2.674,-0.293 5.244,-1.332 7.617,-2.729 3.437,-2.024 6.391,-4.582 8.538,-7.953 C -0.883,8.174 0.513,4.706 -0.071,0.732 -0.097,0.554 -0.038,0.364 0,0 m -32.182,64.573 c 0.911,-0.693 2.043,-0.403 3.041,-0.556 5.275,-0.81 10.298,-2.394 15.186,-4.468 4.89,-2.076 9.568,-4.584 13.979,-7.52 2.994,-1.994 5.896,-4.147 8.624,-6.537 1.537,-1.347 2.966,-2.816 4.563,-4.112 1.544,-1.253 2.775,-2.899 4.105,-4.397 1.815,-2.044 3.486,-4.228 5.013,-6.508 3.028,-4.524 5.321,-9.39 6.488,-14.718 0.33,-1.507 0.69,-3.094 0.22,-5.039 -0.212,1.844 -0.339,3.367 -0.844,4.794 -0.916,2.589 -2.309,4.929 -3.949,7.124 -1.51,2.02 -3.132,3.948 -5.015,5.628 -2.502,2.232 -5.149,4.258 -8.072,5.949 -2.862,1.656 -5.887,2.852 -9.052,3.69 -2.579,0.683 -5.225,1.015 -7.94,0.745 0.002,-0.456 0.373,-0.652 0.691,-0.867 2.16,-1.455 4.138,-3.126 6.076,-4.867 1.451,-1.303 2.805,-2.666 4.11,-4.115 2.392,-2.654 4.518,-5.493 6.408,-8.511 2.536,-4.048 4.326,-8.431 5.436,-13.063 0.912,-3.808 1.099,-7.669 0.529,-11.582 -0.608,-4.177 -2.077,-8.011 -4.43,-11.454 -2.269,-3.32 -5.261,-5.888 -8.808,-7.89 -3.556,-2.007 -7.333,-3.317 -11.268,-4.193 -1.724,-0.384 -3.495,-0.62 -5.278,-0.785 -2.549,-0.236 -5.096,-0.489 -7.653,-0.552 -3.073,-0.076 -6.096,0.418 -9.137,0.858 -3.074,0.444 -6.018,1.281 -8.933,2.247 -5.718,1.895 -11.087,4.542 -16.265,7.625 -3.356,1.998 -6.558,4.213 -9.614,6.61 -3.53,2.768 -6.844,5.825 -9.825,9.181 -3.911,4.404 -7.463,9.088 -9.902,14.512 -1.285,2.859 -2.284,5.792 -2.773,8.918 -0.202,1.291 -0.214,2.532 -0.146,3.812 0.254,-1.257 0.467,-2.514 0.738,-3.763 0.573,-2.64 1.998,-4.833 3.414,-7.029 1.274,-1.976 2.924,-3.678 4.506,-5.398 1.411,-1.534 3.072,-2.865 4.742,-4.128 2.214,-1.675 4.568,-3.183 7.103,-4.319 3.56,-1.595 7.225,-2.915 11.206,-2.953 0.775,-0.007 1.459,-0.487 2.267,-0.336 0.397,0.075 0.821,-0.008 1.046,0.481 -4.163,2.757 -7.856,6.092 -11.196,9.781 -2.687,2.966 -4.949,6.271 -7.004,9.728 -2.454,4.129 -3.9,8.611 -4.995,13.225 -0.512,2.157 -0.394,4.394 -0.421,6.609 -0.073,5.806 1.867,10.997 5.176,15.596 2.957,4.111 7.05,6.924 11.772,8.875 2.766,1.143 5.61,1.981 8.498,2.621 1.818,0.404 3.697,0.732 5.594,0.753 0.363,0.003 0.849,-0.255 1.079,0.298 l 10.91,0 z" /></g><g
           transform="translate(128.9086,52.2882)"
           id="g24"><path
             id="path26"
             style="fill:#262223;fill-opacity:1;fill-rule:nonzero;stroke:none"
             d="m 0,0 c 2.895,1.775 4.663,5.398 8.703,5.3 1.459,-0.035 2.92,-0.005 4.56,-0.005 -1.997,-8.308 -3.92,-16.306 -5.863,-24.386 4.507,1.57 4.394,1.689 5.831,6.165 1.433,4.465 2.622,8.98 3.741,13.525 0.485,1.968 4.005,4.71 6.004,4.683 2.403,-0.032 4.819,0.203 7.256,-0.166 -1.906,-7.992 -3.786,-15.873 -5.788,-24.263 3.078,1.773 5.302,3.373 5.859,6.713 0.636,3.815 1.657,7.567 2.498,11.349 0.6,2.699 3.216,3.721 4.699,5.685 0.864,1.144 2.128,0.634 3.228,0.676 1.769,0.069 3.543,0.019 5.391,0.019 -1.952,-7.796 -3.859,-15.294 -5.686,-22.812 -0.409,-1.685 -0.241,-1.394 -2.397,-3.711 l -2.618,-2.247 c -1.692,-1.451 -3.393,-2.374 -5.798,-2.348 -11.827,0.127 -23.655,0.058 -35.483,0.058 0,0.634 5.738,25.688 5.863,25.765" /></g><g
           transform="translate(478.4567,27.9471)"
           id="g28"><path
             id="path30"
             style="fill:#262223;fill-opacity:1;fill-rule:nonzero;stroke:none"
             d="m 0,0 -11.561,0 c 0.825,3.058 1.648,6.149 2.494,9.232 1.08,3.933 0.154,5.185 -3.873,5.191 -0.945,10e-4 -1.891,0 -3.031,0 -0.948,-3.263 -1.846,-6.554 -2.867,-9.807 -1.143,-3.643 -3.592,-5.472 -7.308,-5.377 -2.126,0.055 -4.352,-0.521 -6.415,0.43 0.887,4.309 5.197,17.213 5.744,19.191 l 17.466,0 c 2.1,0 4.206,-0.092 6.3,0.024 2.407,0.133 4.212,-0.898 5.78,-2.56 C 2.729,14.212 0.875,3.462 0,0" /></g><g
           transform="translate(294.1375,42.315)"
           id="g32"><path
             id="path34"
             style="fill:#262223;fill-opacity:1;fill-rule:nonzero;stroke:none"
             d="M 0,0 C -8.463,0.194 -10.088,-0.462 -10.606,-4.159 -4.367,-4.869 -3.985,-4.726 0,0 m 9.563,-1.985 c 2.671,2.513 5.583,3.815 8.233,5.524 1.159,0.748 2.425,0.999 3.833,0.98 4.961,-0.069 9.925,-0.065 14.887,-0.005 1.61,0.019 2.998,-0.302 4.401,-1.169 2.431,-1.502 3.044,-3.279 1.44,-5.562 -0.961,-1.369 -2.256,-2.402 -3.947,-2.876 -3.12,-0.875 -6.178,-0.969 -9.233,0.136 0.11,0.563 0.132,0.767 0.19,0.959 0.35,1.177 1.945,2.164 0.597,3.596 -0.671,0.713 -3.505,0.491 -4.742,-0.039 -2.845,-1.217 -3.681,-3.768 -4.176,-6.375 -0.533,-2.807 -1.702,-5.407 -2.127,-8.215 l -11.84,0 c 0.882,4.181 1.736,8.23 2.633,12.48 C 8.132,-3.11 7.404,-4.231 6.53,-5.057 2.92,-8.466 -1.315,-9.352 -6.077,-8.851 c -1.861,0.195 -3.76,0.032 -5.545,0.032 -0.536,-0.87 -0.416,-1.554 -0.154,-2.444 l 15.343,0 c -2.2,-2.479 -4.486,-4.561 -7.957,-4.537 -4.646,0.032 -9.292,-0.013 -13.938,0.026 -0.904,0.008 -1.764,-0.038 -2.723,0.399 -3.097,1.409 -4.389,2.17 -3.092,6.378 0.966,3.132 1.244,6.491 3.964,8.763 1.814,1.515 3.761,2.87 5.6,4.355 0.775,0.627 1.615,0.347 2.415,0.352 C -6.251,4.508 -0.338,4.498 5.575,4.49 8.792,4.486 9.474,3.784 9.561,0.432 9.577,-0.2 9.563,-0.832 9.563,-1.985" /></g><g
           transform="translate(322.0508,26.7922)"
           id="g36"><path
             id="path38"
             style="fill:#262223;fill-opacity:1;fill-rule:nonzero;stroke:none"
             d="m 0,0 c 2.093,2.095 4.111,4.046 6.039,6.081 0.704,0.744 1.502,0.634 2.318,0.616 8.206,-0.188 16.421,0.395 24.623,-0.288 1.753,-0.146 2.498,0.79 3.205,4.098 -3.607,0 -7.161,0.234 -10.67,-0.062 -4.073,-0.343 -6.831,2.018 -6.52,6.578 0.348,5.102 2.726,8.868 6.748,11.731 0.709,0.505 1.588,0.812 2.611,0.804 8.421,-0.062 16.842,-0.035 25.794,-0.035 -1.85,-1.885 -3.414,-3.39 -4.869,-4.996 -0.77,-0.85 -1.681,-0.703 -2.604,-0.705 -3.381,-0.009 -6.761,0.017 -10.141,-0.01 -3.338,-0.025 -4.651,-1.189 -5.456,-5.065 3.712,0 7.355,-0.036 10.996,0.013 2.459,0.033 4.501,-0.899 5.934,-2.79 1.432,-1.891 1.113,-4.313 0.738,-6.378 C 48.025,5.611 45.954,2.324 42.135,0.465 41.218,0.018 40.288,-0.303 39.188,-0.299 26.406,-0.251 13.625,-0.267 0.843,-0.259 0.669,-0.259 0.495,-0.156 0,0" /></g><g
           transform="translate(399.1349,32.3591)"
           id="g40"><path
             id="path42"
             style="fill:#262223;fill-opacity:1;fill-rule:nonzero;stroke:none"
             d="m 0,0 c 2.857,1.321 4.848,3.201 5.59,6.525 0.916,4.103 2.457,5.042 4.458,7.222 1.186,1.293 2.77,0.539 4.171,0.681 1.025,0.103 2.068,0.02 3.156,0.02 C 16.928,9.876 15.232,5.862 14.754,1.586 14.523,-0.492 7.994,-4.042 6.794,-5.336 6.272,-5.9 5.679,-5.831 5.069,-5.831 c -11.288,-0.002 -22.576,0.003 -33.864,0.019 -0.192,0 -0.383,0.147 -0.715,0.283 0.735,4.489 1.859,8.941 2.817,13.403 0.565,2.627 3.367,4.146 5.284,6.045 1.108,1.099 2.597,0.397 3.909,0.509 1.142,0.097 2.299,0.02 3.835,0.02 -0.445,-5.187 -2.188,-9.945 -3.202,-14.731 0.462,-0.442 0.62,-0.051 0.859,0.022 4.496,1.383 4.882,5.291 5.498,9.016 0.502,3.031 3.505,5.686 6.604,5.692 2.005,0.003 4.009,-10e-4 6.013,-0.021 C 2.304,14.424 2.499,14.289 2.694,14.214 1.83,9.62 -0.255,-0.229 0,0" /></g><g
           transform="translate(259.7591,42.0052)"
           id="g44"><path
             id="path46"
             style="fill:#262223;fill-opacity:1;fill-rule:nonzero;stroke:none"
             d="m 0,0 c -1.855,0.557 -3.12,0.36 -4.361,0.346 -2.094,-0.025 -4.573,-1.143 -5.318,-3.933 -0.555,-2.076 -1.522,-4.751 -0.684,-7.249 4.606,-0.415 7.309,0.232 9.062,4.492 C -0.599,-4.637 0,-2.171 0,0 M 17.072,11.771 C 15.349,9.354 14.108,7.234 12.496,5.449 10.575,3.322 10.272,0.739 9.697,-1.834 c -1,-4.477 -2.095,-8.932 -3.21,-13.648 l -12.619,0 c -3.587,0 -7.174,-0.013 -10.761,0.003 -4.289,0.019 -6.348,2.293 -5.68,6.523 0.299,1.89 0.928,3.751 1.603,5.553 0.645,1.719 0.933,2.468 2.514,3.794 1.149,0.964 0,0 4.287,3.001 2.686,1.648 2.394,1.481 3.941,1.432 2.635,-0.081 5.275,0.017 7.912,-0.037 1.526,-0.032 2.643,0.19 3.768,1.758 2.618,3.649 1.682,2.404 2.618,3.649 0.521,0.693 1.065,1.59 2.2,1.584 3.436,-0.018 6.871,-0.007 10.802,-0.007" /></g><g
           transform="translate(183.4422,31.0606)"
           id="g48"><path
             id="path50"
             style="fill:#262223;fill-opacity:1;fill-rule:nonzero;stroke:none"
             d="M 0,0 C 6.82,0.003 9.19,4.567 9.031,11.13 2.589,12.167 -1.398,9.066 0,0 M 19.514,3.937 C 19.113,2.274 18.229,1.051 16.853,0.153 c -2.137,-1.395 -4.34,-2.692 -6.448,-4.131 -0.865,-0.59 -1.746,-0.56 -2.676,-0.56 -5.071,0 -10.154,-0.219 -15.208,0.066 -4.475,0.253 -6.281,2.87 -5.147,6.778 0.397,1.367 0.702,2.811 1.199,4.079 0.734,1.87 1.384,3.736 3.442,5.133 3.677,2.819 2.394,1.959 3.677,2.819 1.352,0.906 2.734,1.54 4.559,1.476 5.382,-0.187 10.774,-0.064 16.161,-0.067 4.054,-0.003 5.857,-2.307 4.646,-6.226 C 20.765,8.572 19.756,4.94 19.514,3.937" /></g><g
           transform="translate(437.3184,41.9097)"
           id="g52"><path
             id="path54"
             style="fill:#262223;fill-opacity:1;fill-rule:nonzero;stroke:none"
             d="m 0,0 c -2.828,0.735 -5.187,1.048 -7.239,-1.433 -0.925,-1.118 -1.845,-2.28 -2.547,-3.485 -0.632,-1.084 -1.154,-2.583 -0.069,-3.919 1.229,-1.513 2.908,-2.281 4.712,-2.708 1.186,-0.281 1.815,0.361 2.153,1.651 C -2.148,-6.678 -1.081,-3.522 0,0 m 7.442,-14.119 c -8.244,0 -16.557,-0.032 -24.869,0.023 -2.114,0.013 -4.416,2.948 -4.644,5.428 -0.504,5.493 2.134,9.085 6.666,11.757 2.22,1.308 4.437,1.9 7.024,1.853 C -1.22,4.813 5.945,4.897 13.185,4.897 12.874,3.101 8.816,-9.933 7.442,-14.119" /></g><g
           transform="translate(206.5737,44.8559)"
           id="g56"><path
             id="path58"
             style="fill:#262223;fill-opacity:1;fill-rule:nonzero;stroke:none"
             d="M 0,0 C 0.588,1.51 1.14,1.972 2.589,1.966 10.087,1.935 17.587,2.051 25.083,1.901 28.01,1.842 30.127,0.204 30.026,-3.026 29.9,-7.015 28.523,-10.662 27.68,-14.449 c -0.175,-0.784 -0.015,-1.654 -0.532,-2.496 l -10.624,0 c 0.521,2.927 0.848,5.754 1.597,8.465 0.29,1.051 0.399,2.04 0.384,3.059 -0.03,1.962 -0.896,2.843 -2.815,2.923 -1.467,0.061 -2.938,0.012 -4.491,0.012 -0.84,-3.232 -1.577,-6.385 -2.487,-9.488 -1.083,-3.69 -3.951,-5.719 -7.808,-5.725 -5.504,-0.009 -5.388,-0.035 -4.177,5.295 C -2.87,-10.628 -0.904,-2.323 0,0" /></g></g></g></g></svg>