<?xml version="1.0" encoding="utf-8"?>
<!-- Generator: Adobe Illustrator 19.0.0, SVG Export Plug-In . SVG Version: 6.00 Build 0)  -->
<svg version="1.1" baseProfile="tiny" id="Layer_1" xmlns="http://www.w3.org/2000/svg" xmlns:xlink="http://www.w3.org/1999/xlink"
	 x="0px" y="0px" viewBox="0 0 303.7 728.2" xml:space="preserve">
<g>
	<path fill="#0B0B0B" d="M11,728.2c-4.8,0-8.6-3.9-8.6-8.6V264.1c0-4.8,3.9-8.6,8.6-8.6h281.8c4.8,0,8.6,3.9,8.6,8.6v455.5
		c0,4.8-3.9,8.6-8.6,8.6H11z"/>
	<path fill="#282828" d="M292.8,726.2H11c-3.6,0-6.6-3-6.6-6.6V264.1c0-3.6,3-6.6,6.6-6.6h281.8c3.6,0,6.6,3,6.6,6.6v455.5
		C299.4,723.2,296.4,726.2,292.8,726.2z"/>
	<rect y="176" fill="#989D9B" width="8" height="75.3"/>
	<rect x="15.8" y="173" fill="#0B0B0B" width="271.8" height="91.9"/>
	<rect x="17.3" y="174.5" fill="#282828" width="268.8" height="88.9"/>
	<rect x="18.8" y="176" fill="#0E0E0E" width="265.8" height="85.9"/>
	<path fill="#0B0B0B" d="M2.1,168.1V12.6c0-4.3,3.5-7.9,7.9-7.9h283.5c4.3,0,7.9,3.5,7.9,7.9v155.5c0,4.3-3.5,7.9-7.9,7.9H10
		C5.7,176,2.1,172.4,2.1,168.1z"/>
	<path fill="#282828" d="M293.5,176H10c-3.8,0-6.9-3.1-6.9-6.9V12.6c0-3.8,3.1-6.9,6.9-6.9h283.5c3.8,0,6.9,3.1,6.9,6.9v156.5
		C300.4,172.9,297.3,176,293.5,176z"/>
	<path fill="#0E0E0E" d="M290.4,176H13.1c-3.8,0-6.9-3.1-6.9-6.9V15.6c0-3.8,3.1-6.9,6.9-6.9h277.3c3.8,0,6.9,3.1,6.9,6.9v153.5
		C297.3,172.9,294.2,176,290.4,176z"/>
	<path fill="#121212" d="M151.8,155.2c-38.5,0-69.9-31.4-69.9-69.9s31.4-69.9,69.9-69.9s69.9,31.4,69.9,69.9
		S190.3,155.2,151.8,155.2z"/>
	<path fill="#0A0A0A" d="M151.7,152.2c-36.9,0-66.9-30-66.9-66.9s30-66.9,66.9-66.9s66.9,30,66.9,66.9S188.6,152.2,151.7,152.2z"/>
	<rect x="149" y="139.4" fill="#121212" width="5.5" height="15.8"/>
	<path fill="#101010" d="M151.7,133.8c-36.9,0-66.9-30-66.9-66.9S114.9,0,151.7,0s66.9,30,66.9,66.9S188.6,133.8,151.7,133.8z"/>
	<path fill="#282829" d="M151.7,131.8c-35.8,0-64.9-29.1-64.9-64.9S116,2,151.7,2s64.9,29.1,64.9,64.9S187.5,131.8,151.7,131.8z"/>
	<circle fill="#D8D9D8" cx="151.8" cy="66.9" r="52.9"/>
	<rect x="8" y="176" fill="#8E8F8E" width="8" height="75.3"/>
	<rect x="295.7" y="176" fill="#989D9B" width="8" height="75.3"/>
	<rect x="287.7" y="176" fill="#8E8F8E" width="8" height="75.3"/>
	<path fill="#0E0E0E" d="M290.9,726.2H12.6c-3.6,0-6.6-3-6.6-6.6V266.8c0-3.6,3-6.6,6.6-6.6h278.3c3.6,0,6.6,3,6.6,6.6v452.8
		C297.5,723.2,294.5,726.2,290.9,726.2z"/>
	<path fill="#181818" d="M25.8,254.8V183c0-2.6,2.1-4.8,4.8-4.8h242c2.6,0,4.8,2.1,4.8,4.8v71.9l18.8,14.7v439.6
		c0,3-2.4,5.4-5.4,5.4H12.3c-3,0-5.4-2.4-5.4-5.4V269.5L25.8,254.8z"/>
	<path fill="#282627" d="M91.9,429.8h-48c-6.6,0-12-5.4-12-12v-52.8c0-6.6,5.4-12,12-12h48c6.6,0,12,5.4,12,12v52.8
		C103.9,424.4,98.5,429.8,91.9,429.8z"/>
	<path fill="#939393" d="M90.1,429.8h-45c-6.6,0-12-5.4-12-12v-46.1c0-6.6,5.4-12,12-12h45c6.6,0,12,5.4,12,12v46.1
		C102.1,424.4,96.7,429.8,90.1,429.8z"/>
	<path fill="#B3B3B3" d="M90.4,429.8h-45c-6.6,0-12-5.4-12-12v-39.8c0-6.6,5.4-12,12-12h45c6.6,0,12,5.4,12,12v39.8
		C102.4,424.4,97,429.8,90.4,429.8z"/>
	<g>
		<path d="M69.1,385.8L69.1,385.8l-5.8,3l-0.9-3.3l7.1-3.8h3.7v32.5h-4.2V385.8z"/>
	</g>
	<g>
		<path fill="#282627" d="M175.8,429.8h-48c-6.6,0-12-5.4-12-12v-52.8c0-6.6,5.4-12,12-12h48c6.6,0,12,5.4,12,12v52.8
			C187.8,424.4,182.4,429.8,175.8,429.8z"/>
		<path fill="#939393" d="M174,429.8h-45c-6.6,0-12-5.4-12-12v-46.1c0-6.6,5.4-12,12-12h45c6.6,0,12,5.4,12,12v46.1
			C186,424.4,180.6,429.8,174,429.8z"/>
		<path fill="#B3B3B3" d="M174,429.8h-45c-6.6,0-12-5.4-12-12v-39.8c0-6.6,5.4-12,12-12h45c6.6,0,12,5.4,12,12v39.8
			C186,424.4,180.6,429.8,174,429.8z"/>
	</g>
	<text transform="matrix(1 0 0 1 137.8996 405.2609)" font-family="'MyriadHebrew-Regular'" font-size="54px">1</text>
	<path fill="#282627" d="M175.5,429.8h-48c-6.6,0-12-5.4-12-12v-52.8c0-6.6,5.4-12,12-12h48c6.6,0,12,5.4,12,12v52.8
		C187.5,424.4,182.1,429.8,175.5,429.8z"/>
	<path fill="#939393" d="M173.8,429.8h-45c-6.6,0-12-5.4-12-12v-46.1c0-6.6,5.4-12,12-12h45c6.6,0,12,5.4,12,12v46.1
		C185.8,424.4,180.4,429.8,173.8,429.8z"/>
	<path fill="#B3B3B3" d="M174.2,429.8h-45c-6.6,0-12-5.4-12-12v-39.8c0-6.6,5.4-12,12-12h45c6.6,0,12,5.4,12,12v39.8
		C186.2,424.4,180.8,429.8,174.2,429.8z"/>
	<g>
		<path d="M141.4,414.5v-2.7l3.5-3.3c8.3-7.9,12.1-12.2,12.1-17.1c0-3.3-1.6-6.4-6.5-6.4c-3,0-5.4,1.5-6.9,2.8l-1.4-3.1
			c2.3-1.9,5.5-3.3,9.2-3.3c7,0,9.9,4.8,9.9,9.5c0,6-4.4,10.9-11.2,17.5l-2.6,2.5v0.1h14.6v3.6H141.4z"/>
	</g>
	<path fill="#282627" d="M259.1,429.8h-48c-6.6,0-12-5.4-12-12v-52.8c0-6.6,5.4-12,12-12h48c6.6,0,12,5.4,12,12v52.8
		C271.1,424.4,265.7,429.8,259.1,429.8z"/>
	<path fill="#939393" d="M257.4,429.8h-45c-6.6,0-12-5.4-12-12v-46.1c0-6.6,5.4-12,12-12h45c6.6,0,12,5.4,12,12v46.1
		C269.4,424.4,264,429.8,257.4,429.8z"/>
	<path fill="#B3B3B3" d="M257.8,429.8h-45c-6.6,0-12-5.4-12-12v-39.8c0-6.6,5.4-12,12-12h45c6.6,0,12,5.4,12,12v39.8
		C269.8,424.4,264.4,429.8,257.8,429.8z"/>
	<g>
		<path d="M226.4,409.1c1.3,0.8,4.1,2.1,7.2,2.1c5.7,0,7.4-3.6,7.4-6.3c-0.1-4.5-4.2-6.5-8.4-6.5h-2.5v-3.3h2.5
			c3.2,0,7.3-1.7,7.3-5.5c0-2.6-1.7-4.9-5.7-4.9c-2.6,0-5.1,1.2-6.5,2.2l-1.1-3.2c1.7-1.3,5-2.5,8.5-2.5c6.4,0,9.4,3.8,9.4,7.8
			c0,3.4-2,6.2-6,7.7v0.1c4,0.8,7.3,3.8,7.3,8.3c0,5.2-4.1,9.8-11.9,9.8c-3.7,0-6.9-1.1-8.5-2.3L226.4,409.1z"/>
	</g>
	<path fill="#282627" d="M92.1,516.1h-48c-6.6,0-12-5.4-12-12v-52.8c0-6.6,5.4-12,12-12h48c6.6,0,12,5.4,12,12v52.8
		C104.1,510.7,98.7,516.1,92.1,516.1z"/>
	<path fill="#939393" d="M90.4,516.1h-45c-6.6,0-12-5.4-12-12V458c0-6.6,5.4-12,12-12h45c6.6,0,12,5.4,12,12v46.1
		C102.4,510.7,97,516.1,90.4,516.1z"/>
	<path fill="#B3B3B3" d="M89.9,516.1h-45c-6.6,0-12-5.4-12-12v-39.8c0-6.6,5.4-12,12-12h45c6.6,0,12,5.4,12,12v39.8
		C101.9,510.7,96.5,516.1,89.9,516.1z"/>
	<g>
		<path d="M70.6,500.5v-8.9H55.5v-2.9L70,468h4.8v20.3h4.6v3.4h-4.6v8.9H70.6z M70.6,488.3v-10.9c0-1.7,0.1-3.4,0.2-5.1l-0.2,0
			c-1,2-1.8,3.4-2.7,4.9l-8,11.1v0.1H70.6z"/>
	</g>
	<path fill="#282627" d="M175.7,516.1h-48c-6.6,0-12-5.4-12-12v-52.8c0-6.6,5.4-12,12-12h48c6.6,0,12,5.4,12,12v52.8
		C187.7,510.7,182.3,516.1,175.7,516.1z"/>
	<path fill="#939393" d="M174,516.1h-45c-6.6,0-12-5.4-12-12V458c0-6.6,5.4-12,12-12h45c6.6,0,12,5.4,12,12v46.1
		C186,510.7,180.6,516.1,174,516.1z"/>
	<path fill="#B3B3B3" d="M174.2,516.1h-45c-6.6,0-12-5.4-12-12v-39.8c0-6.6,5.4-12,12-12h45c6.6,0,12,5.4,12,12v39.8
		C186.2,510.7,180.8,516.1,174.2,516.1z"/>
	<g>
		<path d="M161.2,471.4h-12.4l-1.3,8.4c0.8-0.1,1.5-0.2,2.7-0.2c2.5,0,5,0.6,7,1.8c2.5,1.5,4.7,4.3,4.7,8.4
			c0,6.4-5.1,11.1-12.1,11.1c-3.5,0-6.5-1-8.1-2l1.1-3.4c1.3,0.8,4,1.8,7,1.8c4.1,0,7.7-2.7,7.7-7.1c0-4.2-2.9-7.2-9.4-7.2
			c-1.9,0-3.3,0.2-4.5,0.4l2.1-15.6h15.6V471.4z"/>
	</g>
	<path fill="#282627" d="M259.4,516.1h-48c-6.6,0-12-5.4-12-12v-52.8c0-6.6,5.4-12,12-12h48c6.6,0,12,5.4,12,12v52.8
		C271.4,510.7,266,516.1,259.4,516.1z"/>
	<path fill="#939393" d="M257.6,516.1h-45c-6.6,0-12-5.4-12-12V458c0-6.6,5.4-12,12-12h45c6.6,0,12,5.4,12,12v46.1
		C269.6,510.7,264.2,516.1,257.6,516.1z"/>
	<path fill="#B3B3B3" d="M257.8,516.1h-45c-6.6,0-12-5.4-12-12v-39.8c0-6.6,5.4-12,12-12h45c6.6,0,12,5.4,12,12v39.8
		C269.8,510.7,264.4,516.1,257.8,516.1z"/>
	<g>
		<path d="M243.3,471.1c-0.9,0-2,0-3.3,0.3c-6.9,1.1-10.6,6.2-11.3,11.6h0.1c1.5-2.2,4.3-3.9,7.9-3.9c5.8,0,9.8,4.2,9.8,10.6
			c0,6-4.1,11.5-10.9,11.5c-6.9,0-11.5-5.4-11.5-13.9c0-6.4,2.3-11.5,5.5-14.7c2.7-2.7,6.3-4.3,10.4-4.8c1.3-0.2,2.3-0.3,3.2-0.3
			V471.1z M242.1,489.9c0-4.7-2.6-7.5-6.7-7.5c-2.7,0-5.2,1.6-6.4,4c-0.3,0.5-0.4,1.2-0.4,1.9c0.1,5.4,2.5,9.4,7.2,9.4
			C239.5,497.7,242.1,494.5,242.1,489.9z"/>
	</g>
	<path fill="#282627" d="M92.1,602.5h-48c-6.6,0-12-5.4-12-12v-52.8c0-6.6,5.4-12,12-12h48c6.6,0,12,5.4,12,12v52.8
		C104.1,597.1,98.7,602.5,92.1,602.5z"/>
	<path fill="#939393" d="M90.4,602.5h-45c-6.6,0-12-5.4-12-12v-46.1c0-6.6,5.4-12,12-12h45c6.6,0,12,5.4,12,12v46.1
		C102.4,597.1,97,602.5,90.4,602.5z"/>
	<path fill="#B3B3B3" d="M90.4,602.5h-45c-6.6,0-12-5.4-12-12v-39.8c0-6.6,5.4-12,12-12h45c6.6,0,12,5.4,12,12v39.8
		C102.4,597.1,97,602.5,90.4,602.5z"/>
	<g>
		<path d="M78.2,554.4v2.9L64,586.9h-4.5l14.1-28.8V558H57.7v-3.7H78.2z"/>
	</g>
	<path fill="#282627" d="M175.7,602.5h-48c-6.6,0-12-5.4-12-12v-52.8c0-6.6,5.4-12,12-12h48c6.6,0,12,5.4,12,12v52.8
		C187.7,597.1,182.3,602.5,175.7,602.5z"/>
	<path fill="#939393" d="M174,602.5h-45c-6.6,0-12-5.4-12-12v-46.1c0-6.6,5.4-12,12-12h45c6.6,0,12,5.4,12,12v46.1
		C186,597.1,180.6,602.5,174,602.5z"/>
	<path fill="#B3B3B3" d="M174,602.5h-45c-6.6,0-12-5.4-12-12v-39.8c0-6.6,5.4-12,12-12h45c6.6,0,12,5.4,12,12v39.8
		C186,597.1,180.6,602.5,174,602.5z"/>
	<g>
		<path d="M140.5,578.6c0-4,2.4-7,6.4-8.7v-0.2c-3.6-1.7-5.2-4.5-5.2-7.3c0-5.1,4.4-8.7,10.1-8.7c6.3,0,9.5,4,9.5,8
			c0,2.8-1.4,5.7-5.4,7.6v0.1c4.1,1.6,6.6,4.5,6.6,8.4c0,5.7-4.9,9.5-11.1,9.5C144.6,587.4,140.5,583.4,140.5,578.6z M158,578.4
			c0-3.9-2.8-5.9-7.2-7.1c-3.8,1-5.9,3.6-5.9,6.7c-0.2,3.3,2.3,6.2,6.5,6.2C155.5,584.2,158,581.8,158,578.4z M145.9,562.2
			c0,3.3,2.5,5,6.2,6c2.8-1,4.9-3,4.9-5.9c0-2.6-1.5-5.3-5.5-5.3C147.9,557,145.9,559.4,145.9,562.2z"/>
	</g>
	<path fill="#282627" d="M259.4,602.5h-48c-6.6,0-12-5.4-12-12v-52.8c0-6.6,5.4-12,12-12h48c6.6,0,12,5.4,12,12v52.8
		C271.4,597.1,266,602.5,259.4,602.5z"/>
	<path fill="#939393" d="M257.6,602.5h-45c-6.6,0-12-5.4-12-12v-46.1c0-6.6,5.4-12,12-12h45c6.6,0,12,5.4,12,12v46.1
		C269.6,597.1,264.2,602.5,257.6,602.5z"/>
	<path fill="#B3B3B3" d="M257.3,602.5h-45c-6.6,0-12-5.4-12-12v-39.8c0-6.6,5.4-12,12-12h45c6.6,0,12,5.4,12,12v39.8
		C269.3,597.1,263.9,602.5,257.3,602.5z"/>
	<g>
		<path d="M226.6,583.8c0.9,0.1,2,0,3.5-0.1c2.5-0.4,5-1.4,6.8-3.2c2.1-2,3.7-4.8,4.3-8.7h-0.2c-1.8,2.3-4.4,3.5-7.7,3.5
			c-5.8,0-9.6-4.4-9.6-10c0-6.2,4.5-11.6,11.1-11.6s10.8,5.4,10.8,13.7c0,7.2-2.4,12.2-5.6,15.3c-2.5,2.5-6,4-9.5,4.4
			c-1.6,0.3-3,0.3-4,0.3V583.8z M228.2,565.1c0,4,2.5,6.9,6.3,6.9c2.9,0,5.2-1.5,6.3-3.5c0.2-0.4,0.5-0.8,0.5-1.6
			c0-5.6-2.1-9.8-6.7-9.8C230.9,557.2,228.2,560.5,228.2,565.1z"/>
	</g>
	<path fill="#282627" d="M92.1,694.8h-48c-6.6,0-12-5.4-12-12v-52.8c0-6.6,5.4-12,12-12h48c6.6,0,12,5.4,12,12v52.8
		C104.1,689.4,98.7,694.8,92.1,694.8z"/>
	<path fill="#2F3133" d="M90.4,694.8h-45c-6.6,0-12-5.4-12-12v-46.1c0-6.6,5.4-12,12-12h45c6.6,0,12,5.4,12,12v46.1
		C102.4,689.4,97,694.8,90.4,694.8z"/>
	<path fill="#36393B" d="M90.4,694.8h-45c-6.6,0-12-5.4-12-12v-39.8c0-6.6,5.4-12,12-12h45c6.6,0,12,5.4,12,12v39.8
		C102.4,689.4,97,694.8,90.4,694.8z"/>
	<g>
		<path fill="#F4F4F4" d="M70.7,648.7l-1.6,11.9l0.1,0.2l9.4-7.2l2.6,4.6l-10.8,4.6l0.1,0.1l11.1,4.4l-2.8,4.8l-9.5-7l-0.1,0.1
			l1.1,12L65,677l1.6-11.9l-0.1-0.1l-9.2,7l-2.6-4.6l10.5-4.4l0-0.2l-11-4.6l2.7-4.7l9.5,6.9l0.1-0.1l-1.3-11.7L70.7,648.7z"/>
	</g>
	<path fill="#282627" d="M175.7,694.8h-48c-6.6,0-12-5.4-12-12v-52.8c0-6.6,5.4-12,12-12h48c6.6,0,12,5.4,12,12v52.8
		C187.7,689.4,182.3,694.8,175.7,694.8z"/>
	<path fill="#939393" d="M174,694.8h-45c-6.6,0-12-5.4-12-12v-46.1c0-6.6,5.4-12,12-12h45c6.6,0,12,5.4,12,12v46.1
		C186,689.4,180.6,694.8,174,694.8z"/>
	<path fill="#B3B3B3" d="M174.2,694.8h-45c-6.6,0-12-5.4-12-12v-39.8c0-6.6,5.4-12,12-12h45c6.6,0,12,5.4,12,12v39.8
		C186.2,689.4,180.8,694.8,174.2,694.8z"/>
	<g>
		<path d="M162.8,662.6c0,11-4.1,17.2-11.3,17.2c-6.4,0-10.7-6-10.8-16.7c0-10.9,4.7-16.9,11.3-16.9
			C158.9,646.1,162.8,652.2,162.8,662.6z M145.1,663.1c0,8.5,2.6,13.3,6.6,13.3c4.5,0,6.7-5.3,6.7-13.5c0-8-2-13.2-6.6-13.2
			C147.9,649.6,145.1,654.2,145.1,663.1z"/>
	</g>
	<path fill="#282627" d="M258.3,694.8h-48c-6.6,0-12-5.4-12-12v-52.8c0-6.6,5.4-12,12-12h48c6.6,0,12,5.4,12,12v52.8
		C270.3,689.4,264.9,694.8,258.3,694.8z"/>
	<path fill="#2F3133" d="M256.6,694.8h-45c-6.6,0-12-5.4-12-12v-46.1c0-6.6,5.4-12,12-12h45c6.6,0,12,5.4,12,12v46.1
		C268.6,689.4,263.2,694.8,256.6,694.8z"/>
	<path fill="#36393B" d="M256.6,694.8h-45c-6.6,0-12-5.4-12-12v-39.8c0-6.6,5.4-12,12-12h45c6.6,0,12,5.4,12,12v39.8
		C268.6,689.4,263.2,694.8,256.6,694.8z"/>
	<g>
		<path fill="#F4F4F4" d="M226.3,679.2l1.3-9.8h-4.1v-3h4.5l1-7.3h-4.4v-3h4.8l1.3-9.6h2.9l-1.3,9.6h5.2l1.3-9.6h3l-1.3,9.6h4v3
			h-4.5l-0.9,7.3h4.3v3h-4.8l-1.3,9.8h-3l1.3-9.8h-5.2l-1.3,9.8H226.3z M236.3,666.4l1-7.3H232l-1,7.3H236.3z"/>
	</g>
	<rect x="15.8" y="257.5" fill="#282828" width="1.5" height="2.8"/>
	<rect x="286.2" y="257.5" fill="#282828" width="1.5" height="2.8"/>
	<g>
		<path fill="#1C1C1C" d="M210.7,231.2H92.8c-6.6,0-12-5.4-12-12v-6c0-6.6,5.4-12,12-12h117.8c6.6,0,12,5.4,12,12v6
			C222.7,225.8,217.3,231.2,210.7,231.2z"/>
		<g>
			<path fill="#171717" d="M151.6,215.9"/>
			<path fill="#1B1B1B" d="M151.6,215.9"/>
			<polygon fill="#232323" points="133.6,225.6 133.6,206.8 139.6,206.8 139.6,220.2 151,220.2 151,225.6 			"/>
			<polygon fill="#0E0E0E" points="139.1,220.7 150.5,220.7 150.5,225.1 134.1,225.1 134.1,207.3 139.1,207.3 			"/>
			<polygon fill="#232323" points="151.6,225.6 151.6,206.8 170.3,206.8 170.3,211.9 157.6,211.9 157.6,213.9 169.4,213.9 
				169.4,218.4 157.6,218.4 157.6,220.6 170.3,220.6 170.3,225.6 			"/>
			<polygon fill="#0E0E0E" points="152.1,207.3 169.8,207.3 169.8,211.4 157.1,211.4 157.1,214.4 168.9,214.4 168.9,217.9 
				157.1,217.9 157.1,221.1 169.8,221.1 169.8,225.1 152.1,225.1 			"/>
			<path fill="#232323" d="M115.4,225.3c-3,0-5.5-2.6-5.5-5.9v-6.8c0-3.3,2.5-5.9,5.5-5.9h12.2c3,0,5.5,2.6,5.5,5.9v6.8
				c0,3.3-2.5,5.9-5.5,5.9H115.4z M117.8,211.8c-1.3,0-2.4,1.2-2.4,2.6v3.4c0,1.4,1.1,2.6,2.4,2.6h7.4c1.3,0,2.4-1.2,2.4-2.6v-3.4
				c0-1.4-1.1-2.6-2.4-2.6H117.8z"/>
			<path fill="#0E0E0E" d="M127.7,207.3h-12.2c-2.8,0-5,2.4-5,5.4v6.8c0,3,2.2,5.4,5,5.4h12.2c2.8,0,5-2.4,5-5.4v-6.8
				C132.7,209.7,130.4,207.3,127.7,207.3z M128.1,217.8c0,1.7-1.3,3.1-2.9,3.1h-7.4c-1.6,0-2.9-1.4-2.9-3.1v-3.4
				c0-1.7,1.3-3.1,2.9-3.1h7.4c1.6,0,2.9,1.4,2.9,3.1V217.8z"/>
			<path fill="#232323" d="M92.8,225.3c-2.9,0-5.3-2.6-5.3-5.9v-6.8c0-3.3,2.4-5.9,5.3-5.9h11.6c2.9,0,5.3,2.6,5.3,5.9v1.5h-5.3
				l-0.1-0.4c-0.2-1.2-1.1-2-2.1-2h-7c-1.2,0-2.2,1.2-2.2,2.6v3.4c0,1.4,1,2.6,2.2,2.6h7c1,0,1.9-0.8,2.1-2l0.1-0.4h5.3v1.5
				c0,3.3-2.4,5.9-5.3,5.9H92.8z"/>
			<path fill="#0E0E0E" d="M104.7,218.5c-0.3,1.4-1.4,2.4-2.6,2.4h-7c-1.5,0-2.7-1.4-2.7-3.1v-3.4c0-1.7,1.2-3.1,2.7-3.1h7
				c1.3,0,2.3,1,2.6,2.4h4.4v-1c0-3-2.1-5.4-4.8-5.4H92.8c-2.6,0-4.8,2.4-4.8,5.4v6.8c0,3,2.1,5.4,4.8,5.4h11.6
				c2.6,0,4.8-2.4,4.8-5.4v-1H104.7z"/>
			<path fill="#232323" d="M198.3,225.3c-3,0-5.5-2.6-5.5-5.9v-6.8c0-3.3,2.5-5.9,5.5-5.9h12.2c3,0,5.5,2.6,5.5,5.9v6.8
				c0,3.3-2.5,5.9-5.5,5.9H198.3z M200.7,211.8c-1.3,0-2.4,1.2-2.4,2.6v3.4c0,1.4,1.1,2.6,2.4,2.6h7.4c1.3,0,2.4-1.2,2.4-2.6v-3.4
				c0-1.4-1.1-2.6-2.4-2.6H200.7z"/>
			<path fill="#0E0E0E" d="M210.5,207.3h-12.2c-2.8,0-5,2.4-5,5.4v6.8c0,3,2.2,5.4,5,5.4h12.2c2.8,0,5-2.4,5-5.4v-6.8
				C215.5,209.7,213.3,207.3,210.5,207.3z M210.9,217.8c0,1.7-1.3,3.1-2.9,3.1h-7.4c-1.6,0-2.9-1.4-2.9-3.1v-3.4
				c0-1.7,1.3-3.1,2.9-3.1h7.4c1.6,0,2.9,1.4,2.9,3.1V217.8z"/>
			<path fill="#232323" d="M175.6,225.3c-2.9,0-5.3-2.6-5.3-5.9v-6.8c0-3.3,2.4-5.9,5.3-5.9h11.6c2.9,0,5.3,2.6,5.3,5.9v1.5h-5.3
				l-0.1-0.4c-0.2-1.2-1.1-2-2.1-2h-7c-1.2,0-2.2,1.2-2.2,2.6v3.4c0,1.4,1,2.6,2.2,2.6h7c1,0,1.9-0.8,2.1-2l0.1-0.4h5.3v1.5
				c0,3.3-2.4,5.9-5.3,5.9H175.6z"/>
			<path fill="#0E0E0E" d="M187.6,218.5c-0.3,1.4-1.4,2.4-2.6,2.4h-7c-1.5,0-2.7-1.4-2.7-3.1v-3.4c0-1.7,1.2-3.1,2.7-3.1h7
				c1.3,0,2.3,1,2.6,2.4h4.4v-1c0-3-2.1-5.4-4.8-5.4h-11.6c-2.6,0-4.8,2.4-4.8,5.4v6.8c0,3,2.1,5.4,4.8,5.4h11.6
				c2.6,0,4.8-2.4,4.8-5.4v-1H187.6z"/>
		</g>
	</g>
</g>
</svg>
