<?xml version="1.0" encoding="utf-8"?>
<!-- Generator: Adobe Illustrator 19.0.0, SVG Export Plug-In . SVG Version: 6.00 Build 0)  -->
<svg version="1.1" baseProfile="tiny" id="Layer_1" xmlns="http://www.w3.org/2000/svg" xmlns:xlink="http://www.w3.org/1999/xlink"
	 x="0px" y="0px" viewBox="0 0 50.8 60" xml:space="preserve">
<g>
	<path fill="#2D2C2B" d="M47.1,60H3.7c-0.5,0-0.9-0.4-0.9-0.9V1.6c0-0.5,0.4-0.9,0.9-0.9h43.4c0.5,0,0.9,0.4,0.9,0.9v57.5
		C48,59.6,47.6,60,47.1,60z"/>
	<g>
		<path fill="#2D2C2B" d="M1.3,13.7h1c0.3,0,0.6-0.3,0.6-0.6V0.6C2.9,0.3,2.6,0,2.3,0h-1C1,0,0.7,0.3,0.7,0.6v12.6
			C0.7,13.4,1,13.7,1.3,13.7z"/>
		<path fill="#2D2C2B" d="M0.5,3.2H0.2C0.1,3.2,0,3.1,0,3l0-0.4c0-0.1,0.1-0.2,0.2-0.2h0.3c0.1,0,0.2,0.1,0.2,0.2V3
			C0.7,3.1,0.6,3.2,0.5,3.2z"/>
		<path fill="#2D2C2B" d="M0.5,5.1H0.2C0.1,5.1,0,5,0,4.9l0-0.4c0-0.1,0.1-0.2,0.2-0.2h0.3c0.1,0,0.2,0.1,0.2,0.2v0.4
			C0.7,5,0.6,5.1,0.5,5.1z"/>
		<path fill="#2D2C2B" d="M0.5,7H0.2C0.1,7,0,6.9,0,6.8l0-0.4c0-0.1,0.1-0.2,0.2-0.2h0.3c0.1,0,0.2,0.1,0.2,0.2v0.4
			C0.7,6.9,0.6,7,0.5,7z"/>
		<path fill="#2D2C2B" d="M0.5,8.9H0.2C0.1,8.9,0,8.8,0,8.7l0-0.4c0-0.1,0.1-0.2,0.2-0.2h0.3c0.1,0,0.2,0.1,0.2,0.2v0.4
			C0.7,8.8,0.6,8.9,0.5,8.9z"/>
		<path fill="#2D2C2B" d="M0.5,10.7H0.2c-0.1,0-0.2-0.1-0.2-0.2l0-0.4C0,10.1,0.1,10,0.2,10h0.3c0.1,0,0.2,0.1,0.2,0.2v0.4
			C0.7,10.7,0.6,10.7,0.5,10.7z"/>
		<path fill="#2D2C2B" d="M0.5,12.6H0.2c-0.1,0-0.2-0.1-0.2-0.2l0-0.4c0-0.1,0.1-0.2,0.2-0.2h0.3c0.1,0,0.2,0.1,0.2,0.2v0.4
			C0.7,12.5,0.6,12.6,0.5,12.6z"/>
	</g>
	<g>
		<path fill="#2D2C2B" d="M49.5,13.8h-1c-0.3,0-0.6-0.3-0.6-0.6V0.7c0-0.3,0.3-0.6,0.6-0.6l1,0c0.3,0,0.6,0.3,0.6,0.6v12.6
			C50.1,13.6,49.8,13.8,49.5,13.8z"/>
		<path fill="#2D2C2B" d="M50.3,3.4h0.3c0.1,0,0.2-0.1,0.2-0.2V2.8c0-0.1-0.1-0.2-0.2-0.2h-0.3c-0.1,0-0.2,0.1-0.2,0.2v0.4
			C50.1,3.3,50.2,3.4,50.3,3.4z"/>
		<path fill="#2D2C2B" d="M50.3,5.3h0.3c0.1,0,0.2-0.1,0.2-0.2V4.7c0-0.1-0.1-0.2-0.2-0.2h-0.3c-0.1,0-0.2,0.1-0.2,0.2v0.4
			C50.1,5.2,50.2,5.3,50.3,5.3z"/>
		<path fill="#2D2C2B" d="M50.3,7.1h0.3c0.1,0,0.2-0.1,0.2-0.2V6.6c0-0.1-0.1-0.2-0.2-0.2h-0.3c-0.1,0-0.2,0.1-0.2,0.2v0.4
			C50.1,7,50.2,7.1,50.3,7.1z"/>
		<path fill="#2D2C2B" d="M50.3,9h0.3c0.1,0,0.2-0.1,0.2-0.2V8.4c0-0.1-0.1-0.2-0.2-0.2h-0.3c-0.1,0-0.2,0.1-0.2,0.2v0.4
			C50.1,8.9,50.2,9,50.3,9z"/>
		<path fill="#2D2C2B" d="M50.3,10.9h0.3c0.1,0,0.2-0.1,0.2-0.2v-0.4c0-0.1-0.1-0.2-0.2-0.2h-0.3c-0.1,0-0.2,0.1-0.2,0.2v0.4
			C50.1,10.8,50.2,10.9,50.3,10.9z"/>
		<path fill="#2D2C2B" d="M50.3,12.8h0.3c0.1,0,0.2-0.1,0.2-0.2v-0.4c0-0.1-0.1-0.2-0.2-0.2h-0.3c-0.1,0-0.2,0.1-0.2,0.2v0.4
			C50.1,12.7,50.2,12.8,50.3,12.8z"/>
	</g>
	<path d="M47.1,45.5H3.7c-0.5,0-0.9-0.4-0.9-0.9v-43c0-0.5,0.4-0.9,0.9-0.9h43.4c0.5,0,0.9,0.4,0.9,0.9v43
		C48,45.1,47.6,45.5,47.1,45.5z"/>
	<path fill="#FFFFFF" d="M7.6,44c-1.6,0-2.8-1.3-2.8-2.8V5.8C4.8,4.3,6,3,7.6,3h35.6c1.6,0,2.8,1.3,2.8,2.8v35.3
		c0,1.6-1.3,2.8-2.8,2.8H7.6z"/>
	<path d="M43.2,43.3H7.6c-1.2,0-2.1-1-2.1-2.1V5.8c0-1.2,1-2.1,2.1-2.1h35.6c1.2,0,2.1,1,2.1,2.1v35.3
		C45.4,42.3,44.4,43.3,43.2,43.3z"/>
	<path fill="#FFFFFF" d="M25.3,12.4v0.8h-2.4c-0.3,0-0.3,0.3,0,0.3c0,0,1.1,0,1.6,0c1.2,0,1.2,1.8,0,1.8c-0.8,0-2.5,0-2.5,0v-0.8
		c0,0,1.6,0,2.4,0c0.3,0,0.3-0.3,0-0.3c-0.5,0-1.5,0-1.5,0c-1.3,0-1.3-1.9,0-1.9C23.7,12.4,25.3,12.4,25.3,12.4z M30.8,12.4h2.8
		c0.5,0,1,0.4,1,0.9v2h-1v-1.7c0-0.3-0.2-0.4-0.4-0.4h-1.4v2.1h-1V12.4z M28.1,13.2c-0.3,0-0.4,0.2-0.4,0.4v0.5
		c0,0.2,0.2,0.4,0.4,0.4h1.1c0.1,0,0.4-0.1,0.4-0.4v-0.5c0-0.2-0.1-0.4-0.4-0.4L28.1,13.2z M27.7,12.4h1.9c0.6,0,1,0.4,1,0.9v1.1
		c0,0.8-0.7,1-1,1h-1.9c-0.7,0-1-0.6-1-1v-1.1C26.7,12.7,27.3,12.4,27.7,12.4z M25.5,12.4h1v2.9h-1V12.4z M20.7,12.4h1v2.9h-1V12.4z
		 M16.1,12.4h1.1l1.1,1.9l1.3-1.9h0.9l-1.7,2.9h-0.9L16.1,12.4z M25.1,9.3h3.2v0.7h-2.2v0.3h2.2v0.7h-2.2c0,0.3,0.2,0.4,0.4,0.4h1.8
		v0.8H26c-0.5,0-0.9-0.4-0.9-0.9L25.1,9.3z M22.5,9.3h1v1.7c0,0.3,0.2,0.4,0.4,0.4H25v0.8h-1.5c-0.4,0-0.9-0.2-0.9-0.9V9.3z
		 M31.6,9.3h-2.2c-0.6,0-0.9,0.6-0.9,0.9v1.1c0,0.7,0.6,1,0.9,1h2.2v-0.8h-1.7c-0.1,0-0.4-0.1-0.4-0.4v-0.6c0-0.3,0.2-0.4,0.4-0.4
		h1.7V9.3z M33.2,10.1c-0.3,0-0.4,0.2-0.4,0.4v0.5c0,0.2,0.2,0.4,0.4,0.4h1.1c0.1,0,0.4-0.1,0.4-0.4v-0.5c0-0.2-0.1-0.4-0.4-0.4
		L33.2,10.1z M32.8,9.3h1.9c0.6,0,1,0.4,1,0.9v1.1c0,0.8-0.7,1-1,1h-1.9c-0.7,0-1-0.6-1-1v-1.1C31.8,9.6,32.3,9.3,32.8,9.3L32.8,9.3
		z M19.9,10.1c-0.3,0-0.4,0.2-0.4,0.4v0.5c0,0.2,0.2,0.4,0.4,0.4H21c0.1,0,0.4-0.1,0.4-0.4v-0.5c0-0.2-0.1-0.4-0.4-0.4L19.9,10.1z
		 M19.5,9.3h1.9c0.6,0,1,0.4,1,0.9v1.1c0,0.8-0.7,1-1,1h-1.9c-0.7,0-1-0.6-1-1v-1.1C18.5,9.6,19,9.3,19.5,9.3z M18.3,9.3h-2.2
		c-0.6,0-0.9,0.6-0.9,0.9v1.1c0,0.7,0.6,1,0.9,1h2.2v-0.8h-1.7c-0.1,0-0.4-0.1-0.4-0.4v-0.6c0-0.3,0.2-0.4,0.4-0.4h1.7V9.3z"/>
	<g>
		<path fill="#FFFFFF" d="M36.6,9.4h-0.3v0.8h-0.2V9.4h-0.3V9.3L36.6,9.4L36.6,9.4z"/>
		<path fill="#FFFFFF" d="M37.7,10.2h-0.2V9.6c0,0,0,0,0-0.1l-0.3,0.5h0L37,9.6c0,0,0,0.1,0,0.1v0.6h-0.2V9.3H37l0.3,0.6
			c0,0,0,0,0,0c0,0,0,0,0,0l0.3-0.6h0.2V10.2z"/>
	</g>
</g>
</svg>
