<?xml version="1.0" encoding="utf-8"?>
<!-- Generator: Adobe Illustrator 19.0.0, SVG Export Plug-In . SVG Version: 6.00 Build 0)  -->
<svg version="1.1" id="Layer_1" xmlns="http://www.w3.org/2000/svg" xmlns:xlink="http://www.w3.org/1999/xlink" x="0px" y="0px"
	 viewBox="-131 270 1150 254" enable-background="new -131 270 1150 254" xml:space="preserve">
<path fill="#FFFFFF" d="M195.2,401.2c3.7,2.6,7.8,4.9,12.5,6.3l-23.1,34L167.1,409H183c3.3,0,6.9-0.8,9.5-3.4
	C193.8,404.3,194.6,402.8,195.2,401.2z M98,270c-15.5,0-27,6.4-34,14.8c-7,8.3-10,18.2-10,26.3v55v0c0,9.9,3.7,20,10.3,28
	c5.8,7.2,14.3,12.7,24.3,13.7l68.4,113.3l1.8,2.9h3.4h44h3.3l1.8-2.8l44.9-71.4V508v0c0,3.7,0.8,7.5,3.4,10.8
	c2.6,3.3,7,5.2,11.6,5.2h147c5.3,0,10.5-1.7,15.1-3.9c1.3-0.6,2.5-1.4,3.7-2.2c2.1,3.2,6.3,6,11.2,6h37.9c0,0,0,0,0.1,0
	c4.9,0,9.3-2,12-5.1c0.4-0.5,0.7-1,1.1-1.5c6.4,3.7,14.2,6.6,21.9,6.6h84h0.4l0.3,0c13.8-1.7,19.2-4.3,22.9-6.6
	c2.8,3.9,6.7,6.6,11.4,6.6h38c3.4,0,6.2-1,9.4-3.2c3.2-2.2,6.6-6.3,6.6-11.8v-62h25c1.6,0,3.6,0.7,4.9,1.8s2.1,2.3,2.1,4.2v56v0
	c0,3.7,1.4,6.5,3.8,9.3S736,524,741,524h39c4.4,0,7.6-2.1,10.2-4.6s4.8-5.9,4.8-10.4v-77v-0.4l-0.1-0.4c-0.7-5.6-1.2-13-6.8-22.3
	h4.6c0.1,0,0.2,0,0.3,0c11.5,0.5,21.5-5.8,28.8-13.5c7.3-7.8,12.3-17.3,12.3-26.5v-58v0c0-9.2-3.9-19.1-11.2-27.1
	c-7.3-8-18.3-13.9-31.8-13.9h-85c-9.2,0-17.2,3.4-23.7,7.8c-0.4-0.9-0.8-1.7-1.4-2.6c-2-2.7-5.6-5.3-9.9-5.3h-86
	c-7.8,0-14.2,2.3-19,5v-5h-6H423h-6v6v71h-19h0h0c-1.2,0-3.6-0.5-5-1.4c-1.4-0.9-2-1.5-2-3.6v-58c0-8.5-7.4-14-15-14h-38
	c-4.5,0-8.2,2.3-10.7,5c-0.4,0.4-0.6,0.9-0.9,1.3C321,273,314.7,270,307,270h-90c-9,0-16.2,3.7-21.8,7.8c-0.6-1.3-1.5-2.5-2.6-3.7
	c-2.1-2.2-5.6-4.1-9.6-4.1H98z"/>
<path d="M190,290c5-4.9,14.8-14,27-14h90c8.3,0,15.2,4.7,22,9c0.3-4,4-9,9-9h38c4.5,0,9,3.4,9,8v58c0,8.1,8.1,11.1,13,11h25v-77h137
	v11c3-2.9,10.9-11,25-11h86c4.5,0,6.8,4.8,7,8v5c6-6.3,16.4-13,28-13h85c23.8,0,37,20.1,37,35v58c0,13.4-16.7,35-35,34h-17
	c12.3,13.3,12,20.8,13,29v77c0,4.3-5,9-9,9h-39c-5.6,0-9-6.1-9-9v-56c0-7.6-7-12-13-12h-31v68c0,6.2-7.3,9-10,9h-38
	c-3.5,0-7.3-3.2-9-9c-6.5,3.1-6.1,6.5-26,9h-84c-8.4,0-19.4-5.2-25-10c0,5-3.3,10.1-10,10h-38c-6.5,0-8-6.5-8-10
	c-3.8,4.5-14.1,10-22,10H271c-6.5,0-9-4.4-9-10v-79l-56,89h-44L92,402c-19,0-32-19.3-32-36v-55c0-13,10.1-35,38-35h85
	c4.6,0,7,3.9,7,6V290z M218,403c-11.9,0-21.5-7-28-14v7c-0.1,4.9-2.2,7-7,7h-26l27,50L218,403z"/>
<linearGradient id="SVGID_1_" gradientUnits="userSpaceOnUse" x1="69" y1="399" x2="819" y2="399" gradientTransform="matrix(1 0 0 -1 0 796)">
	<stop  offset="0" style="stop-color:#F090A7"/>
	<stop  offset="0.1495" style="stop-color:#EF7B75"/>
	<stop  offset="0.2564" style="stop-color:#EE6E5E"/>
	<stop  offset="0.5894" style="stop-color:#FCE72C"/>
	<stop  offset="0.8131" style="stop-color:#ACDEE4"/>
	<stop  offset="1" style="stop-color:#A3DDF2"/>
</linearGradient>
<path fill="url(#SVGID_1_)" d="M438,400v31h-88c-10.1,0-9.5,10,0,10c0,0,38.7,0,58,0c45.2,0,45.2,67,0,67c-30.3,0-91,0-91,0v-30
	c0,0,58,0,87,0c10.4,0,9.7-10,0-10c-18,0-54,0-54,0c-46.4,0-46.3-68,0-68C379.3,400,438,400,438,400z M640,400h103
	c18.5,0,35,14.4,35,34v74h-37v-64c0-10.7-6.4-12.8-14-13h-50v77h-37V400z M543,430.1c-9.8,0.1-14,6.2-14,13.9v20c0,8.3,7.1,14,14,14
	h41c4.9,0,13-3.3,13-14v-20c0-6.7-4.1-14.2-13-14.1L543,430.1z M529,400h69c21.9,0,36,14.9,36,33v40c0,28.4-24.5,35-36,35h-69
	c-25.9,0-37-20.9-37-35v-40C492,410,512.6,400,529,400z M448,400h37v108h-37V400z M270,400h37v108h-37V400z M102,400h41l40,70l47-70
	h34l-64,108h-33.6L102,400z M432,286h117v27h-81v10h81v27h-81c0,9.9,7.3,14,15,14h66v29h-85c-19,0-32.1-15.8-32.1-33L432,286z
	 M338,286h36v64c0,9.2,6.9,14.1,15,14h39v29h-56c-15.9,0-34-7.1-34-33V286z M670,286h-81c-23.3,0-32.9,21.4-33,33v40
	c0,25.9,21.3,35.2,33,35h81v-30h-62c-4.4,0-15-3.3-15-13v-21c0-10,7.5-14,15-14h62V286z M728,316.1c-9.8,0.1-14,6.2-14,13.9v20
	c0,8.3,7.1,14,14,14h41c4.9,0,13-3.3,13-14v-20c0-6.7-4.1-14.2-13-14.1L728,316.1z M714,286h69c21.9,0,36,14.9,36,33v40
	c0,28.4-24.5,35-36,35h-69c-25.9,0-37-20.9-37-35v-40C677,296,697.6,286,714,286L714,286z M240,316.1c-9.8,0.1-14,6.2-14,13.9v20
	c0,8.3,7.1,14,14,14h41c4.9,0,13-3.3,13-14v-20c0-6.7-4.1-14.2-13-14.1L240,316.1z M226,286h69c21.9,0,36,14.9,36,33v40
	c0,28.4-24.5,35-36,35h-69c-25.9,0-36-20.9-36-35v-40C190,296,209.6,286,226,286z M183,286h-81c-23.3,0-32.9,21.4-33,33v40
	c0,25.9,21.3,35.2,33,35h81v-30h-63c-4.4,0-15-3.3-15-13v-21c0-10,7.5-14,15-14h63V286z"/>
</svg>
