<?xml version="1.0" encoding="UTF-8" standalone="no"?>
<!-- Generator: Adobe Illustrator 19.0.0, SVG Export Plug-In . SVG Version: 6.00 Build 0)  -->

<svg
   xmlns:dc="http://purl.org/dc/elements/1.1/"
   xmlns:cc="http://creativecommons.org/ns#"
   xmlns:rdf="http://www.w3.org/1999/02/22-rdf-syntax-ns#"
   xmlns:svg="http://www.w3.org/2000/svg"
   xmlns="http://www.w3.org/2000/svg"
   xmlns:sodipodi="http://sodipodi.sourceforge.net/DTD/sodipodi-0.dtd"
   xmlns:inkscape="http://www.inkscape.org/namespaces/inkscape"
   version="1.1"
   id="Layer_1"
   x="0px"
   y="0px"
   viewBox="0 0 200.05909 200"
   enable-background="new 0 0 338.4 338.4"
   xml:space="preserve"
   sodipodi:docname="game.svg"
   width="200.05908"
   height="200"
   inkscape:version="0.92.2 (5c3e80d, 2017-08-06)"><metadata
     id="metadata540"><rdf:RDF><cc:Work
         rdf:about=""><dc:format>image/svg+xml</dc:format><dc:type
           rdf:resource="http://purl.org/dc/dcmitype/StillImage" /><dc:title></dc:title></cc:Work></rdf:RDF></metadata><defs
     id="defs538" /><sodipodi:namedview
     pagecolor="#ffffff"
     bordercolor="#666666"
     borderopacity="1"
     objecttolerance="10"
     gridtolerance="10"
     guidetolerance="10"
     inkscape:pageopacity="0"
     inkscape:pageshadow="2"
     inkscape:window-width="1920"
     inkscape:window-height="1013"
     id="namedview536"
     showgrid="false"
     fit-margin-top="0"
     fit-margin-left="0"
     fit-margin-right="0"
     fit-margin-bottom="0"
     inkscape:zoom="0.69739954"
     inkscape:cx="169.2"
     inkscape:cy="169.2"
     inkscape:window-x="-9"
     inkscape:window-y="-9"
     inkscape:window-maximized="1"
     inkscape:current-layer="Layer_1" /><g
     id="g533"
     transform="matrix(0.59084195,0,0,0.59084195,0,0.05908419)"><path
       stroke-miterlimit="10"
       d="M 169.3,337.9 C 76.3,337.9 0.5,262.2 0.5,169.2 0.5,76.2 76.2,0.4 169.3,0.4 c 93,0 168.8,75.7 168.8,168.8 -0.1,93 -75.8,168.7 -168.8,168.7 z"
       id="path2"
       inkscape:connector-curvature="0"
       style="fill:none;stroke:#979395;stroke-miterlimit:10" /><path
       stroke-miterlimit="10"
       d="M 169.3,335.9 C 77.4,335.9 2.5,261.1 2.5,169.2 2.5,77.2 77.3,2.4 169.3,2.4 261.2,2.4 336,77.2 336,169.1 c 0,92 -74.8,166.8 -166.7,166.8 z"
       id="path4"
       inkscape:connector-curvature="0"
       style="fill:none;stroke:#151315;stroke-width:3;stroke-miterlimit:10" /><circle
       stroke-miterlimit="10"
       cx="169.3"
       cy="169.10001"
       r="22.799999"
       id="circle6"
       style="fill:none;stroke:#797576;stroke-miterlimit:10" /><path
       d="m 169.3,233.9 c -35.7,0 -64.7,-29 -64.7,-64.7 0,-35.7 29,-64.8 64.7,-64.8 35.7,0 64.8,29 64.8,64.8 -0.1,35.6 -29.1,64.7 -64.8,64.7 z M 219,168.6 c 0,-27.4 -22.3,-49.8 -49.8,-49.8 -27.5,0 -49.8,22.3 -49.8,49.8 0,27.5 22.3,49.7 49.8,49.7 27.5,0 49.8,-22.2 49.8,-49.7 z"
       id="path8"
       inkscape:connector-curvature="0"
       style="fill:#0b0f11" /><path
       d="m 169.3,224.4 c -30.7,0 -55.8,-25 -55.8,-55.7 0,-30.7 25,-55.8 55.8,-55.8 30.8,0 55.8,25 55.8,55.8 0,30.8 -25.1,55.7 -55.8,55.7 z M 219,168.6 c 0,-27.4 -22.3,-49.8 -49.8,-49.8 -27.5,0 -49.8,22.3 -49.8,49.8 0,27.5 22.3,49.7 49.8,49.7 27.5,0 49.8,-22.2 49.8,-49.7 z"
       id="path10"
       inkscape:connector-curvature="0"
       style="fill:#cbc9c8" /><g
       id="g16"><path
         d="m 330.1,212.2 c -4,-2.6 -3.7,-6.8 -11.8,-8.1 -5,-0.8 -10.2,0.1 -13.1,-0.9 -11,-3.5 -19.3,-26.7 -26.6,-23.1 -18.6,9.1 -24.2,14.2 -34.4,18.8 -14.3,6.5 -18.3,15.3 -20.3,15.8 -2.6,0.7 -8,2.7 -10.2,2 l -0.5,-0.6 C 226,204.4 234,188 234,169.1 c 0,-35.7 -28.9,-64.8 -64.6,-64.8 -35.2,0 -63.5,28.3 -64.2,63.4 l -0.6,-0.6 c -3.5,-14.5 -8,-19.7 -11.8,-20.8 -8.6,-2.5 -12.4,7.9 -23.2,5.4 C 62.2,150 56.1,133.2 50.1,130 c -7,-3.7 -22.2,11.4 -47.4,31.3 l -0.4,0.4 C 6.1,73.1 79.9,2.4 169.4,2.4 c 91.9,0 166.8,74.8 166.8,166.8 0,15 -2,29.5 -5.7,43.3"
         id="path12"
         inkscape:connector-curvature="0"
         style="fill:#741c49" /><path
         stroke-miterlimit="10"
         d="m 330.5,212.5 c 1.2,-4.6 -4,-6.6 -12.1,-7.9 -5,-0.8 -10.2,0.1 -13.1,-0.8 -11,-3.5 -19.4,-26.7 -26.8,-23.1 -18.6,9.1 -24.3,14.2 -34.5,18.8 -14.3,6.5 -18.3,15.1 -20.3,15.7 -2.6,0.7 -8.3,2.3 -10.5,1.6 -11.5,10.6 -26.9,17.1 -43.8,17.1 -35.7,0 -64.8,-29 -64.8,-64.7 0,-0.5 0,-0.9 0,-1.4 -3.5,-14.5 -8,-20.3 -11.9,-21.4 -8.6,-2.5 -12.3,8.2 -23,5.7 C 62.3,150.4 56,133.6 50,130.4 43,126.7 27.9,142.1 2.7,162 c -0.1,2.4 -0.2,4.7 -0.2,7.1 0,91.9 74.8,166.7 166.8,166.7 77.1,0.1 142.1,-52.3 161.2,-123.3 z"
         id="path14"
         inkscape:connector-curvature="0"
         style="fill:#283b89;stroke:#000000;stroke-miterlimit:10" /></g><g
       id="g531"><g
         id="g106"><g
           id="g104"><g
             id="g38"><g
               id="g36"><path
                 d="m 130.1,80.8 h -10.6 l 10.5,6.3 h 4.2 L 127,82.9 h 3.8 c 1.9,0 3.4,-1.9 3.4,-4.2 0,-2.3 -1.5,-4.2 -3.4,-4.2 h -15.7 v 12.6 h 2.4 V 76.7 h 12.6 c 1,0 1.8,0.9 1.8,2 0,1.1 -0.8,2.1 -1.8,2.1 z"
                 id="path18"
                 inkscape:connector-curvature="0"
                 style="fill:#938270" /><g
                 id="g24"><rect
                   x="149.3"
                   y="79.5"
                   width="12.4"
                   height="2.4000001"
                   id="rect20"
                   style="fill:#938270" /><polygon
                   points="147.5,84.9 164.8,84.9 164.8,87.1 145.3,87.1 145.3,74.5 164.8,74.5 164.8,76.9 147.5,76.9 "
                   id="polygon22"
                   style="fill:#938270" /></g><rect
                 x="138.10001"
                 y="78.5"
                 width="4"
                 height="4"
                 id="rect26"
                 style="fill:#938270" /><rect
                 x="168.8"
                 y="78.5"
                 width="4"
                 height="4"
                 id="rect28"
                 style="fill:#938270" /><rect
                 x="200.3"
                 y="78.5"
                 width="4"
                 height="4"
                 id="rect30"
                 style="fill:#938270" /><polygon
                 points="228.5,87.1 209,87.1 209,74.5 211.3,74.5 211.3,84.9 228.5,84.9 "
                 id="polygon32"
                 style="fill:#938270" /><path
                 d="m 193.5,83.9 3.6,3.2 h 3.8 L 187,74.6 c -0.2,-0.2 -0.5,-0.2 -0.7,0 l -13,12.5 h 3.2 l 10.2,-9.5 4.2,4.1 h -6.1 l -2.2,2.1 h 10.9 z"
                 id="path34"
                 inkscape:connector-curvature="0"
                 style="fill:#938270" /></g></g><g
             id="g42"><rect
               x="115.1"
               y="89.099998"
               width="113.4"
               height="1.2"
               id="rect40"
               style="fill:#938270" /></g><g
             id="g102"><g
               id="g100"><g
                 id="g50"><path
                   d="m 117.1,94 c 0,0.1 0.1,0.3 0.2,0.3 0.1,0.1 0.3,0.1 0.5,0.1 0.4,0 0.6,-0.2 0.6,-0.4 0,-0.4 -0.9,-0.4 -1.2,-0.4 v -0.5 c 0.3,0 1.1,0 1.1,-0.3 0,-0.2 -0.3,-0.3 -0.5,-0.3 -0.3,0 -0.6,0.1 -0.6,0.3 H 116 c 0,-0.7 0.9,-1.1 1.9,-1.1 1.1,0 1.8,0.4 1.8,0.9 0,0.3 -0.2,0.5 -0.5,0.6 0.4,0.1 0.7,0.4 0.7,0.7 0,0.8 -0.8,1.1 -2.1,1.1 -1.1,0 -1.9,-0.4 -1.9,-1.2 h 1.2 z"
                   id="path44"
                   inkscape:connector-curvature="0"
                   style="fill:#938270" /><path
                   d="M 120.7,95.1 V 92 h 1.9 c 1.4,0 2.3,0.5 2.3,1.5 0,1.2 -0.9,1.6 -2.3,1.6 z m 1.4,-0.7 h 0.3 c 0.7,0 1,-0.3 1,-0.8 0,-0.6 -0.3,-0.8 -1.1,-0.8 H 122 v 1.6 z"
                   id="path46"
                   inkscape:connector-curvature="0"
                   style="fill:#938270" /><path
                   d="m 129.7,93.6 c 0,1.1 -1,1.7 -2.3,1.7 -1.4,0 -2.3,-0.6 -2.3,-1.7 0,-1 0.9,-1.6 2.3,-1.6 1.6,-0.1 2.3,0.7 2.3,1.6 z m -3.1,0 c 0,0.4 0.2,0.9 0.9,0.9 0.6,0 0.9,-0.4 0.9,-0.9 0,-0.4 -0.2,-0.9 -0.9,-0.9 -0.7,0 -0.9,0.5 -0.9,0.9 z"
                   id="path48"
                   inkscape:connector-curvature="0"
                   style="fill:#938270" /></g><g
                 id="g74"><path
                   d="M 134.3,95.1 V 92 h 1.4 v 3.1 z"
                   id="path52"
                   inkscape:connector-curvature="0"
                   style="fill:#938270" /><path
                   d="M 139.2,93.7 139.1,93 v -1 h 1.3 v 3.1 h -1.3 l -1.5,-1.7 0.1,0.7 v 1 h -1.3 V 92 h 1.3 z"
                   id="path54"
                   inkscape:connector-curvature="0"
                   style="fill:#938270" /><path
                   d="m 140.9,92 h 3.8 v 0.8 h -1.2 v 2.3 h -1.4 v -2.3 h -1.2 z"
                   id="path56"
                   inkscape:connector-curvature="0"
                   style="fill:#938270" /><path
                   d="M 145.1,95.1 V 92 h 3.6 v 0.7 h -2.2 v 0.4 h 1.8 v 0.7 h -1.8 v 0.5 h 2.2 V 95 h -3.6 z"
                   id="path58"
                   inkscape:connector-curvature="0"
                   style="fill:#938270" /><path
                   d="m 150.9,94 v 1.1 h -1.4 V 92 h 2.1 c 1.5,0 1.9,0.3 1.9,0.9 0,0.4 -0.2,0.7 -0.7,0.8 0.5,0.1 0.7,0.2 0.7,0.8 0,0.4 0,0.5 0.2,0.5 v 0.1 h -1.5 c 0,-0.1 -0.1,-0.3 -0.1,-0.5 0,-0.4 -0.1,-0.5 -0.8,-0.5 h -0.4 z m 0,-0.6 h 0.6 c 0.4,0 0.7,-0.1 0.7,-0.3 0,-0.2 -0.2,-0.3 -0.6,-0.3 h -0.7 z"
                   id="path60"
                   inkscape:connector-curvature="0"
                   style="fill:#938270" /><path
                   d="m 154,95.1 1.5,-3.1 h 1.4 l 1.5,3.1 H 157 l -0.2,-0.4 h -1.4 l -0.2,0.4 z m 2.2,-2.1 -0.4,1.1 h 0.9 z"
                   id="path62"
                   inkscape:connector-curvature="0"
                   style="fill:#938270" /><path
                   d="m 161.5,93.2 c 0,-0.3 -0.3,-0.5 -0.7,-0.5 -0.5,0 -0.8,0.3 -0.8,0.9 0,0.4 0.1,0.8 0.8,0.8 0.4,0 0.6,-0.2 0.7,-0.5 h 1.3 c -0.1,0.8 -0.9,1.3 -2,1.3 -1.4,0 -2.2,-0.6 -2.2,-1.6 0,-1 0.9,-1.6 2.1,-1.6 1.3,0 2,0.5 2.1,1.3 h -1.3 z"
                   id="path64"
                   inkscape:connector-curvature="0"
                   style="fill:#938270" /><path
                   d="m 163,92 h 3.8 v 0.8 h -1.2 v 2.3 h -1.4 V 92.8 H 163 Z"
                   id="path66"
                   inkscape:connector-curvature="0"
                   style="fill:#938270" /><path
                   d="M 167.3,95.1 V 92 h 1.4 v 3.1 z"
                   id="path68"
                   inkscape:connector-curvature="0"
                   style="fill:#938270" /><path
                   d="m 169.1,92 h 1.4 l 0.7,2.1 0.8,-2.1 h 1.4 l -1.4,3.1 h -1.4 z"
                   id="path70"
                   inkscape:connector-curvature="0"
                   style="fill:#938270" /><path
                   d="M 173.8,95.1 V 92 h 3.5 v 0.7 h -2.1 v 0.4 h 1.8 v 0.7 h -1.8 v 0.5 h 2.2 V 95 h -3.6 z"
                   id="path72"
                   inkscape:connector-curvature="0"
                   style="fill:#938270" /></g><g
                 id="g98"><path
                   d="M 181.9,95.1 V 92 h 1.9 l 0.8,1.9 0.8,-1.9 h 1.9 v 3.1 H 186 v -0.9 -0.5 l 0.1,-0.6 v 0 l -0.9,2 h -1.1 l -0.9,-2 v 0 l 0.1,0.5 v 0.5 1.1 h -1.4 z"
                   id="path76"
                   inkscape:connector-curvature="0"
                   style="fill:#938270" /><path
                   d="m 188.4,92 h 1.4 v 1.9 c 0,0.3 0.1,0.6 0.7,0.6 0.5,0 0.6,-0.2 0.6,-0.6 V 92 h 1.4 v 1.8 c 0,1 -0.6,1.4 -2,1.4 -1.3,0 -2,-0.4 -2,-1.4 V 92 Z"
                   id="path78"
                   inkscape:connector-curvature="0"
                   style="fill:#938270" /><path
                   d="M 193.3,95.1 V 92 h 1.4 v 2.4 h 1.9 v 0.7 z"
                   id="path80"
                   inkscape:connector-curvature="0"
                   style="fill:#938270" /><path
                   d="m 196.2,92 h 3.9 v 0.8 h -1.2 v 2.3 h -1.4 v -2.3 h -1.2 V 92 Z"
                   id="path82"
                   inkscape:connector-curvature="0"
                   style="fill:#938270" /><path
                   d="M 200.4,95.1 V 92 h 1.4 v 3.1 z"
                   id="path84"
                   inkscape:connector-curvature="0"
                   style="fill:#938270" /><path
                   d="M 202.8,95.1 V 92 h 2 c 1.2,0 1.8,0.4 1.8,1 0,0.7 -0.5,1.1 -1.8,1.1 h -0.7 v 1 z m 1.9,-1.7 c 0.3,0 0.6,-0.1 0.6,-0.4 0,-0.3 -0.4,-0.3 -0.7,-0.3 h -0.4 v 0.7 z"
                   id="path86"
                   inkscape:connector-curvature="0"
                   style="fill:#938270" /><path
                   d="M 207.1,95.1 V 92 h 1.4 v 2.4 h 1.9 v 0.7 z"
                   id="path88"
                   inkscape:connector-curvature="0"
                   style="fill:#938270" /><path
                   d="m 210.6,95.1 1.5,-3.1 h 1.4 l 1.5,3.1 h -1.4 l -0.2,-0.4 H 212 l -0.2,0.4 z m 2.3,-2.2 -0.4,1.1 h 0.9 z"
                   id="path90"
                   inkscape:connector-curvature="0"
                   style="fill:#938270" /><path
                   d="m 217.6,95.1 h -1.4 V 94 l -1.6,-2 h 1.6 l 0.7,1.1 0.7,-1.1 h 1.5 l -1.6,2 v 1.1 z"
                   id="path92"
                   inkscape:connector-curvature="0"
                   style="fill:#938270" /><path
                   d="M 219.4,95.1 V 92 h 3.5 v 0.7 h -2.1 v 0.4 h 1.7 v 0.7 h -1.7 v 0.5 h 2.1 V 95 h -3.5 z"
                   id="path94"
                   inkscape:connector-curvature="0"
                   style="fill:#938270" /><path
                   d="m 225.1,94 v 1.1 h -1.4 V 92 h 2.1 c 1.5,0 1.9,0.3 1.9,0.9 0,0.4 -0.2,0.7 -0.7,0.8 0.5,0.1 0.7,0.2 0.7,0.8 0,0.4 0,0.5 0.2,0.5 v 0.1 h -1.5 c 0,-0.1 -0.1,-0.3 -0.1,-0.5 0,-0.4 -0.1,-0.5 -0.8,-0.5 h -0.4 z m 0,-0.6 h 0.6 c 0.4,0 0.7,-0.1 0.7,-0.3 0,-0.2 -0.2,-0.3 -0.6,-0.3 h -0.7 z"
                   id="path96"
                   inkscape:connector-curvature="0"
                   style="fill:#938270" /></g></g></g></g></g><g
         id="g132"><path
           d="m 132.1,51.3 c 0,-3.9 -0.4,-7 -7.8,-7 -6.1,0 -8.1,2.3 -8.1,6.2 v 0 h 5.5 v 0 c 0.1,-1.4 1.4,-2 2.3,-2 0.6,0 2,0.2 2,1.3 0,3.6 -10.6,0.3 -10.6,7.8 0,3.4 3.3,4.8 5.1,4.7 2.3,-0.1 4.1,-0.5 5.8,-2.2 v 0 l 0.7,1.7 h 5.4 v 0 c -0.2,-0.5 -0.3,-10.5 -0.3,-10.5 z m -8.9,7.3 c -1.2,0 -1.7,-0.9 -1.7,-1.7 0,-1.4 2.7,-1.3 4.7,-2.4 0.1,2.3 -0.9,4.1 -3,4.1 z"
           id="path108"
           inkscape:connector-curvature="0"
           style="clip-rule:evenodd;fill:#a18b77;fill-rule:evenodd" /><path
           d="m 240.5,55.1 c -0.2,1.3 -0.8,2.9 -2.4,2.9 -1.9,0 -3,-2 -3,-4.5 0,-1.9 0.7,-4.5 3,-4.5 0.7,0 1.2,0.2 1.6,0.7 0.4,0.4 0.6,1 0.6,1.7 v 0 h 5.9 v 0 c -0.4,-4.8 -4,-6.7 -8.1,-6.7 -5.1,0 -8.9,3.2 -8.9,8.8 0,5.5 3.9,8.9 8.9,8.9 4.3,0 7.7,-2.3 8.3,-7.2 v 0 h -5.9 z"
           id="path110"
           inkscape:connector-curvature="0"
           style="clip-rule:evenodd;fill:#a18b77;fill-rule:evenodd" /><polygon
           points="222.6,45.1 222.6,61.9 228.6,61.9 228.6,45.1 "
           id="polygon112"
           style="clip-rule:evenodd;fill:#a18b77;fill-rule:evenodd" /><polygon
           points="222.6,38.2 222.6,42.5 228.6,42.5 228.6,38.2 "
           id="polygon114"
           style="clip-rule:evenodd;fill:#a18b77;fill-rule:evenodd" /><path
           d="m 194.8,44.4 c -5.2,0 -8.8,3.3 -8.8,9 0,5.6 3.9,8.9 8.8,8.9 5,0 8.9,-3.2 8.9,-9.2 0,-5.1 -3.5,-8.7 -8.9,-8.7 z m 0,13.5 c -1.6,0 -2.8,-1.8 -2.8,-4.9 0,-1.8 0.7,-4.1 2.8,-4.1 1.6,-0.1 2.7,1.8 2.7,4.3 0.1,3.1 -1,4.7 -2.7,4.7 z"
           id="path116"
           inkscape:connector-curvature="0"
           style="clip-rule:evenodd;fill:#a18b77;fill-rule:evenodd" /><path
           d="m 175.2,49.2 c 0,-0.8 0.8,-1.2 1.9,-1.2 0.5,0 1.1,0.1 1.5,0.4 0.2,0.1 0.5,0.6 0.6,1.2 v 0 h 5.6 v 0 c -0.2,-4.4 -4.2,-5.3 -7.8,-5.3 -3.2,0 -7.4,1.3 -7.4,5.5 0,6.9 9.9,4.4 9.9,7 0,1.2 -0.8,1.6 -2.3,1.6 -0.6,0 -1.2,-0.4 -1.6,-0.7 C 175.2,57.4 175,57 175,56.2 v 0 h -5.5 v 0 c 0.1,4.6 4.1,6.3 7.6,6.3 6.6,0 8.5,-3 8.5,-6.4 -0.1,-6.6 -10.4,-4.5 -10.4,-6.9 z"
           id="path118"
           inkscape:connector-curvature="0"
           style="clip-rule:evenodd;fill:#a18b77;fill-rule:evenodd" /><path
           d="m 168.5,51.3 c 0,-3.9 -0.4,-7 -7.8,-7 -6.1,0 -8.2,2.3 -8.1,6.2 v 0 h 5.5 v 0 c 0.1,-1.4 1.4,-2 2.3,-2 0.6,0 2,0.2 2,1.3 0,3.6 -10.6,0.3 -10.6,7.8 0,3.4 3.3,4.8 5.1,4.7 2.3,-0.1 4.1,-0.5 5.8,-2.2 v 0 l 0.7,1.7 h 5.4 v 0 c -0.3,-0.5 -0.3,-10.5 -0.3,-10.5 z m -9,7.3 c -1.2,0 -1.7,-0.9 -1.7,-1.7 0,-1.4 2.7,-1.3 4.7,-2.4 0.2,2.3 -0.8,4.1 -3,4.1 z"
           id="path120"
           inkscape:connector-curvature="0"
           style="clip-rule:evenodd;fill:#a18b77;fill-rule:evenodd" /><path
           d="M 106.6,37.7 H 96 v 24.2 h 6.8 v -7.5 h 4 v 0 c 6.1,0 9.1,-3.5 9.1,-8.3 0,-4.6 -3.2,-8.4 -9.3,-8.4 z m -0.4,11.4 h -3.4 v -5.5 h 2.5 v 0 c 1.5,0 3.7,0.4 3.7,2.5 0,1.9 -1.1,3 -2.8,3 z"
           id="path122"
           inkscape:connector-curvature="0"
           style="clip-rule:evenodd;fill:#a18b77;fill-rule:evenodd" /><path
           d="m 215.6,44.4 c -2.3,0 -3.3,0.4 -5.5,2.5 v 0 -1.9 h -5.6 v 16.9 h 5.6 V 53 53 c 0,-2.1 1,-3.4 2.9,-3.4 1.7,0 2.2,1 2.2,2.6 v 0 9.7 h 6.1 v -10.3 0 c 0,-4.5 -1.6,-7.2 -5.7,-7.2 z"
           id="path124"
           inkscape:connector-curvature="0"
           style="clip-rule:evenodd;fill:#a18b77;fill-rule:evenodd" /><path
           d="m 145,44.4 c -2.3,0 -3.3,0.4 -5.5,2.5 v 0 -1.9 h -5.6 v 16.9 h 5.9 V 53 53 c 0,-2.1 0.8,-3.6 2.7,-3.6 1.7,0 2.1,1.2 2.1,2.8 v 0 9.7 h 6.1 v -10.3 0 c 0.1,-4.5 -1.6,-7.2 -5.7,-7.2 z"
           id="path126"
           inkscape:connector-curvature="0"
           style="clip-rule:evenodd;fill:#a18b77;fill-rule:evenodd" /><g
           id="g130"><path
             d="m 243.3,42.2 c 0,-1.7 1.3,-3 3,-3 1.7,0 3,1.4 3,3 0,1.6 -1.4,3 -3,3 -1.6,0.1 -3,-1.3 -3,-3 z m 5.3,0 c 0,-1.4 -0.9,-2.3 -2.2,-2.3 -1.3,0 -2.2,1 -2.2,2.3 0,1.3 0.9,2.3 2.2,2.3 1.2,0 2.2,-0.9 2.2,-2.3 z m -0.8,1.7 H 247 l -0.7,-1.4 h -0.5 v 1.4 h -0.7 v -3.3 h 1.6 c 0.9,0 1.3,0.2 1.3,1 0,0.6 -0.3,0.8 -0.9,0.9 z M 246.7,42 c 0.4,0 0.6,-0.1 0.6,-0.5 0,-0.4 -0.5,-0.4 -0.8,-0.4 h -0.7 V 42 Z"
             id="path128"
             inkscape:connector-curvature="0"
             style="fill:#a18b77" /></g></g><g
         id="g173"><path
           d="m 190.6,328.6 h -39.1 c -1.1,0 -2,-0.9 -2,-2 v -82.3 c 0,-1.1 0.9,-2 2,-2 h 39.1 c 1.1,0 2,0.9 2,2 v 82.3 c 0,1.1 -0.9,2 -2,2 z"
           id="path134"
           inkscape:connector-curvature="0"
           style="fill:#948472" /><g
           id="g171"><g
             id="g167"><g
               id="g165"><g
                 id="g163"><rect
                   x="150.60001"
                   y="310"
                   width="40.799999"
                   height="16.799999"
                   id="rect136" /><ellipse
                   cx="171"
                   cy="299.10001"
                   rx="7.3000002"
                   ry="1.3"
                   id="ellipse138"
                   style="fill:#1c2728" /><g
                   id="g148"><g
                     id="g146"><path
                       d="m 157.4,317.6 v 0 c 1.2,0 2.1,0.3 2.7,0.8 0.6,0.5 0.9,1 0.9,1.7 0,0.7 -0.3,1.3 -1,1.8 -0.7,0.5 -1.5,0.7 -2.7,0.7 -1,0 -1.7,-0.2 -2.2,-0.6 -0.5,-0.4 -0.8,-0.8 -0.8,-1.3 0,-0.3 0.1,-0.6 0.4,-0.8 0.2,-0.2 0.5,-0.3 0.8,-0.3 0.3,0 0.6,0.1 0.8,0.3 0.2,0.2 0.3,0.4 0.3,0.7 0,0.4 -0.3,0.7 -0.8,1 -0.1,0.1 -0.2,0.1 -0.2,0.2 0,0.1 0.1,0.2 0.4,0.3 0.3,0.1 0.6,0.1 0.9,0.1 1,0 1.5,-0.7 1.5,-2.2 0,-1.4 -0.6,-2.1 -1.8,-2.1 h -1 c -0.2,0 -0.3,-0.1 -0.3,-0.2 0,-0.2 0.1,-0.3 0.3,-0.3 h 0.7 c 0.7,0 1.2,-0.2 1.5,-0.5 0.2,-0.3 0.4,-0.8 0.4,-1.4 0,-0.6 -0.1,-1.1 -0.3,-1.4 -0.2,-0.3 -0.5,-0.4 -1,-0.4 -0.2,0 -0.5,0 -0.7,0.1 -0.2,0.1 -0.3,0.2 -0.3,0.2 0,0.1 0.1,0.2 0.2,0.2 0.4,0.2 0.6,0.5 0.6,0.8 0,0.3 -0.1,0.5 -0.3,0.7 -0.2,0.2 -0.4,0.2 -0.7,0.2 -0.3,0 -0.6,-0.1 -0.8,-0.3 -0.2,-0.2 -0.4,-0.4 -0.4,-0.7 0,-0.5 0.3,-0.9 0.8,-1.2 0.5,-0.3 1.2,-0.5 2,-0.5 0.9,0 1.7,0.2 2.3,0.6 0.6,0.4 0.9,0.9 0.9,1.5 0.3,1.3 -0.8,2.1 -3.1,2.3 z"
                       id="path140"
                       inkscape:connector-curvature="0"
                       style="fill:#948472" /><path
                       d="m 168.5,313.8 v 8.2 h 0.8 c 1.2,0 2,-0.3 2.2,-1 0.3,-0.6 0.4,-1.7 0.4,-3.3 0,-1.2 -0.1,-2.1 -0.2,-2.6 -0.2,-0.5 -0.4,-0.9 -0.7,-1.1 -0.3,-0.2 -0.7,-0.3 -1.2,-0.3 h -1.3 z M 166,322 v -8.2 h -1.3 v -0.4 h 5.2 c 1.5,0 2.7,0.4 3.5,1.3 0.9,0.8 1.3,1.9 1.3,3.2 0,0.7 -0.1,1.3 -0.4,1.9 -0.3,0.6 -0.7,1.1 -1.2,1.6 -0.6,0.5 -1.1,0.8 -1.7,0.9 -0.6,0.1 -1.3,0.2 -2.1,0.2 h -4.5 V 322 Z"
                       id="path142"
                       inkscape:connector-curvature="0"
                       style="fill:#948472" /><path
                       d="m 184.7,317.9 c 0,-1.4 0,-2.3 -0.1,-2.8 -0.1,-0.4 -0.2,-0.8 -0.4,-1.1 -0.2,-0.3 -0.6,-0.4 -1.2,-0.4 -0.5,0 -0.8,0.1 -1.1,0.3 -0.3,0.2 -0.4,0.6 -0.5,1.1 -0.1,0.5 -0.1,1.4 -0.1,2.8 0,1.4 0,2.3 0.1,2.8 0.1,0.4 0.2,0.8 0.5,1.1 0.2,0.3 0.6,0.4 1.2,0.4 0.4,0 0.8,-0.1 1.1,-0.3 0.3,-0.2 0.5,-0.6 0.5,-1 -0.1,-0.6 0,-1.5 0,-2.9 z m -6.3,-0.1 c 0,-1.4 0.4,-2.5 1.3,-3.3 0.9,-0.9 2,-1.3 3.2,-1.3 1.2,0 2.2,0.4 3.1,1.2 0.9,0.8 1.4,2 1.4,3.5 0,1.4 -0.4,2.5 -1.3,3.4 -0.9,0.8 -1.9,1.3 -3.2,1.3 -1.4,0 -2.5,-0.5 -3.3,-1.3 -0.8,-1 -1.2,-2.1 -1.2,-3.5 z"
                       id="path144"
                       inkscape:connector-curvature="0"
                       style="fill:#948472" /></g></g><radialGradient
                   id="SVGID_1_"
                   cx="171.86909"
                   cy="285.78589"
                   r="7.4742999"
                   gradientUnits="userSpaceOnUse"><stop
                     offset="0"
                     style="stop-color:#948472"
                     id="stop150" /><stop
                     offset="0.8933"
                     style="stop-color:#000000"
                     id="stop152" /><stop
                     offset="1"
                     style="stop-color:#000000"
                     id="stop154" /></radialGradient><circle
                   cx="171"
                   cy="287"
                   id="ellipse157"
                   style="fill:url(#SVGID_1_)"
                   r="6.1999998" /><path
                   d="m 165.2,270.8 c -0.9,0.6 -1.2,4.1 -1.2,4.1 0,0 0.2,3.5 1.2,4.1 0.9,0.6 5.8,1 5.8,1 0,0 4.9,-0.4 5.8,-1 0.9,-0.6 1.2,-4.1 1.2,-4.1 0,0 -0.2,-3.5 -1.2,-4.1 -0.9,-0.6 -5.8,-1 -5.8,-1 0,0 -4.8,0.4 -5.8,1 z"
                   id="path159"
                   inkscape:connector-curvature="0"
                   style="fill:#080e12" /><polygon
                   points="163.8,262.2 171,254.9 178.3,262.2 171,269.5 "
                   id="polygon161"
                   style="fill:#0c1215" /></g></g></g><rect
             x="150.60001"
             y="244.10001"
             stroke-miterlimit="10"
             width="40.799999"
             height="82.699997"
             id="rect169"
             style="fill:none;stroke:#000000;stroke-width:0.5;stroke-miterlimit:10" /></g></g><g
         id="g377"><path
           d="m 211.7,262.7 c 0,0.2 0,0.4 0.1,0.5 0.1,0.1 0.2,0.2 0.4,0.2 0.3,0 0.5,-0.3 0.5,-0.5 0,-0.5 -0.4,-0.5 -0.7,-0.5 v -0.8 c 0.3,0 0.6,0 0.6,-0.5 0,-0.3 -0.2,-0.4 -0.4,-0.4 -0.3,0 -0.4,0.2 -0.5,0.5 h -1 c 0,-1 0.7,-1.5 1.5,-1.5 0.9,0 1.4,0.5 1.4,1.3 0,0.4 -0.1,0.7 -0.4,0.9 0.3,0.2 0.5,0.5 0.5,0.9 0,1 -0.6,1.6 -1.6,1.6 -0.8,0 -1.5,-0.5 -1.5,-1.7 z"
           id="path175"
           inkscape:connector-curvature="0"
           style="fill:#80696b" /><path
           d="m 214.3,264.2 v -4.6 h 1.6 c 1.2,0 1.9,0.7 1.9,2.2 0,1.7 -0.8,2.4 -2,2.4 z m 1.2,-1 h 0.3 c 0.6,0 0.9,-0.4 0.9,-1.2 0,-1 -0.3,-1.2 -0.9,-1.2 h -0.2 v 2.4 z"
           id="path177"
           inkscape:connector-curvature="0"
           style="fill:#80696b" /><path
           d="m 222,261.9 c 0,1.6 -0.8,2.4 -1.9,2.4 -1.2,0 -1.9,-0.9 -1.9,-2.5 0,-1.4 0.8,-2.4 1.9,-2.4 1.3,0.1 1.9,1.3 1.9,2.5 z m -2.7,0 c 0,0.6 0.1,1.3 0.7,1.3 0.5,0 0.7,-0.6 0.7,-1.3 0,-0.6 -0.2,-1.3 -0.7,-1.3 -0.5,0 -0.7,0.7 -0.7,1.3 z"
           id="path179"
           inkscape:connector-curvature="0"
           style="fill:#80696b" /><path
           d="m 222.5,264.8 c 0.2,0 0.3,-0.1 0.4,-0.2 0.1,-0.1 0.1,-0.2 0.1,-0.4 h -0.5 v -1.3 h 1.1 v 1.1 c 0,0.9 -0.4,1.3 -1.1,1.3 z"
           id="path181"
           inkscape:connector-curvature="0"
           style="fill:#80696b" /><path
           d="m 226,264.2 v -4.6 h 1.2 v 4.6 z"
           id="path183"
           inkscape:connector-curvature="0"
           style="fill:#80696b" /><path
           d="m 227.8,260.9 h 1 v 0.5 c 0.2,-0.4 0.5,-0.6 0.9,-0.6 0.7,0 1,0.5 1,1.4 v 2 h -1.1 v -1.8 c 0,-0.3 -0.1,-0.6 -0.4,-0.6 -0.3,0 -0.4,0.3 -0.4,0.7 v 1.7 h -1.1 v -3.3 z"
           id="path185"
           inkscape:connector-curvature="0"
           style="fill:#80696b" /><path
           d="m 233,264.2 c -1.4,0.1 -1.6,0 -1.6,-1.2 v -1.4 H 231 v -0.8 h 0.4 v -1 h 1 v 1 h 0.5 v 0.8 h -0.5 v 1.2 c 0,0.3 0,0.4 0.3,0.4 h 0.2 v 1 z"
           id="path187"
           inkscape:connector-curvature="0"
           style="fill:#80696b" /><path
           d="m 234.5,262.9 c 0,0.4 0.2,0.7 0.5,0.7 0.2,0 0.3,-0.1 0.4,-0.3 h 1 c -0.2,0.8 -0.9,1.1 -1.5,1.1 -0.9,0 -1.5,-0.6 -1.5,-1.7 0,-1.1 0.7,-1.8 1.5,-1.8 1,0 1.6,0.9 1.6,2.1 h -2 z m 0.9,-0.7 c 0,-0.3 -0.2,-0.6 -0.5,-0.6 -0.3,0 -0.5,0.2 -0.5,0.6 z"
           id="path189"
           inkscape:connector-curvature="0"
           style="fill:#80696b" /><path
           d="m 236.9,260.9 h 1 v 0.7 0 c 0.1,-0.5 0.4,-0.8 0.8,-0.8 0,0 0.1,0 0.1,0 v 1.3 c -0.1,0 -0.1,0 -0.2,0 -0.4,0 -0.7,0.3 -0.7,1 v 1.2 h -1.1 v -3.4 z"
           id="path191"
           inkscape:connector-curvature="0"
           style="fill:#80696b" /><path
           d="m 241.1,264.2 -0.1,-0.4 c -0.3,0.4 -0.6,0.5 -1,0.5 -0.5,0 -1,-0.3 -1,-1 0,-1.5 1.9,-0.8 1.9,-1.5 0,-0.2 -0.2,-0.3 -0.3,-0.3 -0.1,0 -0.3,0 -0.4,0.3 h -1 c 0,-0.7 0.4,-1.1 1.5,-1.1 1.3,0 1.3,0.6 1.3,1.4 v 1.6 c 0,0.2 0,0.3 0.1,0.4 v 0.1 z m -0.1,-1.4 c -0.3,0.2 -0.8,0.1 -0.8,0.5 0,0.2 0.1,0.3 0.3,0.3 0.4,0 0.5,-0.4 0.5,-0.8 z"
           id="path193"
           inkscape:connector-curvature="0"
           style="fill:#80696b" /><path
           d="m 244.4,262.2 c 0,-0.1 0,-0.3 -0.1,-0.3 -0.1,-0.1 -0.2,-0.1 -0.3,-0.1 -0.4,0 -0.5,0.5 -0.5,0.9 0,0.5 0.2,0.8 0.5,0.8 0.3,0 0.4,-0.2 0.4,-0.5 h 1.1 c 0,0.5 -0.2,0.9 -0.5,1.1 -0.3,0.2 -0.6,0.3 -1,0.3 -0.9,0 -1.5,-0.6 -1.5,-1.7 0,-1.1 0.6,-1.8 1.5,-1.8 0.7,0 1.4,0.4 1.5,1.4 h -1.1 z"
           id="path195"
           inkscape:connector-curvature="0"
           style="fill:#80696b" /><path
           d="m 247.7,264.2 c -1.4,0.1 -1.6,0 -1.6,-1.2 v -1.4 h -0.4 v -0.8 h 0.4 v -1 h 1 v 1 h 0.5 v 0.8 h -0.5 v 1.2 c 0,0.3 0,0.4 0.3,0.4 h 0.2 v 1 z"
           id="path197"
           inkscape:connector-curvature="0"
           style="fill:#80696b" /><path
           d="m 248.3,259.5 h 1.1 v 0.9 h -1.1 z m 0,4.7 v -3.4 h 1.1 v 3.4 z"
           id="path199"
           inkscape:connector-curvature="0"
           style="fill:#80696b" /><path
           d="m 249.8,260.9 h 1.1 l 0.5,2.1 0.5,-2.1 h 1 l -0.9,3.4 h -1.2 z"
           id="path201"
           inkscape:connector-curvature="0"
           style="fill:#80696b" /><path
           d="m 254,262.9 c 0,0.4 0.2,0.7 0.5,0.7 0.2,0 0.3,-0.1 0.4,-0.3 h 1 c -0.2,0.8 -0.9,1.1 -1.5,1.1 -0.9,0 -1.5,-0.6 -1.5,-1.7 0,-1.1 0.7,-1.8 1.5,-1.8 1,0 1.6,0.9 1.6,2.1 h -2 z m 1,-0.7 c 0,-0.3 -0.2,-0.6 -0.5,-0.6 -0.3,0 -0.5,0.2 -0.5,0.6 z"
           id="path203"
           inkscape:connector-curvature="0"
           style="fill:#80696b" /><path
           d="m 258.2,264.2 v -4.6 h 1.5 l 0.6,2.9 0.6,-2.9 h 1.5 v 4.6 h -1.1 v -1.4 -0.7 l 0.1,-0.8 v 0 l -0.7,3 h -0.8 l -0.7,-3 v 0 l 0.1,0.7 v 0.7 1.6 h -1.1 z"
           id="path205"
           inkscape:connector-curvature="0"
           style="fill:#80696b" /><path
           d="m 265.9,264.2 h -1 v -0.5 c -0.3,0.5 -0.5,0.6 -1,0.6 -0.6,0 -1,-0.4 -1,-1.4 v -2 h 1.1 v 1.8 c 0,0.5 0.1,0.6 0.4,0.6 0.3,0 0.4,-0.3 0.4,-0.8 v -1.6 h 1.1 z"
           id="path207"
           inkscape:connector-curvature="0"
           style="fill:#80696b" /><path
           d="m 266.5,264.2 v -4.6 h 1.1 v 4.6 z"
           id="path209"
           inkscape:connector-curvature="0"
           style="fill:#80696b" /><path
           d="m 269.9,264.2 c -1.4,0.1 -1.6,0 -1.6,-1.2 v -1.4 h -0.4 v -0.8 h 0.4 v -1 h 1 v 1 h 0.5 v 0.8 h -0.5 v 1.2 c 0,0.3 0,0.4 0.3,0.4 h 0.2 v 1 z"
           id="path211"
           inkscape:connector-curvature="0"
           style="fill:#80696b" /><path
           d="m 270.4,259.5 h 1.1 v 0.9 h -1.1 z m 0,4.7 v -3.4 h 1.1 v 3.4 z"
           id="path213"
           inkscape:connector-curvature="0"
           style="fill:#80696b" /><path
           d="m 273,260.9 v 0.5 0 c 0.1,-0.4 0.5,-0.6 0.8,-0.6 0.8,0 1.2,0.8 1.2,1.7 0,1.3 -0.7,1.8 -1.3,1.8 -0.3,0 -0.5,-0.1 -0.7,-0.4 v 1.5 h -1.1 v -4.5 z m 1,1.7 c 0,-0.5 -0.2,-0.8 -0.5,-0.8 -0.3,0 -0.4,0.3 -0.4,0.8 0,0.5 0.2,0.8 0.4,0.8 0.3,-0.1 0.5,-0.4 0.5,-0.8 z"
           id="path215"
           inkscape:connector-curvature="0"
           style="fill:#80696b" /><path
           d="m 275.6,264.2 v -4.6 h 1.1 v 4.6 z"
           id="path217"
           inkscape:connector-curvature="0"
           style="fill:#80696b" /><path
           d="m 279.1,264.2 -0.1,-0.4 c -0.3,0.4 -0.6,0.5 -1,0.5 -0.5,0 -1,-0.3 -1,-1 0,-1.5 1.9,-0.8 1.9,-1.5 0,-0.2 -0.2,-0.3 -0.3,-0.3 -0.1,0 -0.3,0 -0.4,0.3 h -1 c 0,-0.7 0.4,-1.1 1.5,-1.1 1.3,0 1.3,0.6 1.3,1.4 v 1.6 c 0,0.2 0,0.3 0.1,0.4 v 0.1 z m -0.1,-1.4 c -0.3,0.2 -0.8,0.1 -0.8,0.5 0,0.2 0.1,0.3 0.3,0.3 0.4,0 0.5,-0.4 0.5,-0.8 z"
           id="path219"
           inkscape:connector-curvature="0"
           style="fill:#80696b" /><path
           d="m 281.9,263 0.5,-2.1 h 1 l -0.9,3.1 c -0.3,1 -0.4,1.4 -1.3,1.4 -0.2,0 -0.4,0 -0.5,0 v -0.9 c 0.1,0 0.1,0 0.2,0 0.3,0 0.4,-0.1 0.3,-0.5 l -0.9,-3 h 1.1 z"
           id="path221"
           inkscape:connector-curvature="0"
           style="fill:#80696b" /><path
           d="m 284.7,262.9 c 0,0.4 0.2,0.7 0.5,0.7 0.2,0 0.3,-0.1 0.4,-0.3 h 1 c -0.2,0.8 -0.9,1.1 -1.5,1.1 -0.9,0 -1.5,-0.6 -1.5,-1.7 0,-1.1 0.7,-1.8 1.5,-1.8 1,0 1.6,0.9 1.6,2.1 h -2 z m 1,-0.7 c 0,-0.3 -0.2,-0.6 -0.5,-0.6 -0.3,0 -0.5,0.2 -0.5,0.6 z"
           id="path223"
           inkscape:connector-curvature="0"
           style="fill:#80696b" /><path
           d="m 287.1,260.9 h 1 v 0.7 0 c 0.1,-0.5 0.4,-0.8 0.8,-0.8 0,0 0.1,0 0.1,0 v 1.3 c -0.1,0 -0.1,0 -0.2,0 -0.4,0 -0.7,0.3 -0.7,1 v 1.2 H 287 v -3.4 z"
           id="path225"
           inkscape:connector-curvature="0"
           style="fill:#80696b" /><path
           d="m 212.7,271.9 -0.1,-0.4 c -0.3,0.4 -0.6,0.5 -1,0.5 -0.5,0 -1,-0.3 -1,-1 0,-1.5 1.9,-0.8 1.9,-1.5 0,-0.2 -0.2,-0.3 -0.3,-0.3 -0.1,0 -0.3,0 -0.4,0.3 h -1 c 0,-0.7 0.4,-1.1 1.5,-1.1 1.3,0 1.3,0.6 1.3,1.4 v 1.6 c 0,0.2 0,0.3 0.1,0.4 v 0.1 z m -0.1,-1.5 c -0.3,0.2 -0.8,0.1 -0.8,0.5 0,0.2 0.1,0.3 0.3,0.3 0.4,0.1 0.5,-0.3 0.5,-0.8 z"
           id="path227"
           inkscape:connector-curvature="0"
           style="fill:#80696b" /><path
           d="m 214.2,268.6 h 1 v 0.5 c 0.2,-0.4 0.5,-0.6 0.9,-0.6 0.7,0 1,0.5 1,1.4 v 2 H 216 v -1.8 c 0,-0.3 -0.1,-0.6 -0.4,-0.6 -0.3,0 -0.4,0.3 -0.4,0.7 v 1.7 h -1.1 v -3.3 z"
           id="path229"
           inkscape:connector-curvature="0"
           style="fill:#80696b" /><path
           d="m 219.6,271.9 v -0.4 c -0.3,0.4 -0.5,0.5 -0.8,0.5 -0.8,0 -1.2,-0.8 -1.2,-1.7 0,-1.1 0.5,-1.8 1.1,-1.8 0.3,0 0.6,0.1 0.8,0.4 v -1.6 h 1.1 v 4.6 z m -0.1,-1.6 c 0,-0.4 -0.1,-0.8 -0.5,-0.8 -0.4,0 -0.5,0.4 -0.5,0.8 0,0.4 0.1,0.8 0.4,0.8 0.5,-0.1 0.6,-0.4 0.6,-0.8 z"
           id="path231"
           inkscape:connector-curvature="0"
           style="fill:#80696b" /><path
           d="m 222.6,267.3 h 3.4 v 1.2 h -1.1 v 3.4 h -1.2 v -3.4 h -1.1 z"
           id="path233"
           inkscape:connector-curvature="0"
           style="fill:#80696b" /><path
           d="m 226.4,267.3 h 1.1 v 1.7 c 0.2,-0.3 0.5,-0.5 0.8,-0.5 0.7,0 1,0.5 1,1.4 v 2 h -1.1 v -1.8 c 0,-0.3 -0.1,-0.6 -0.4,-0.6 -0.3,0 -0.4,0.3 -0.4,0.7 v 1.7 h -1.1 v -4.6 z"
           id="path235"
           inkscape:connector-curvature="0"
           style="fill:#80696b" /><path
           d="m 230.8,270.5 c 0,0.4 0.2,0.7 0.5,0.7 0.2,0 0.3,-0.1 0.4,-0.3 h 1 c -0.2,0.8 -0.9,1.1 -1.5,1.1 -0.9,0 -1.5,-0.6 -1.5,-1.7 0,-1.1 0.7,-1.8 1.5,-1.8 1,0 1.6,0.9 1.6,2.1 h -2 z m 0.9,-0.6 c 0,-0.3 -0.2,-0.6 -0.5,-0.6 -0.3,0 -0.5,0.2 -0.5,0.6 z"
           id="path237"
           inkscape:connector-curvature="0"
           style="fill:#80696b" /><path
           d="m 235.9,270.3 c 0,0.2 0,0.4 0.1,0.5 0.1,0.1 0.2,0.2 0.4,0.2 0.3,0 0.5,-0.3 0.5,-0.5 0,-0.5 -0.4,-0.5 -0.7,-0.5 v -0.8 c 0.3,0 0.6,0 0.6,-0.5 0,-0.3 -0.2,-0.4 -0.4,-0.4 -0.3,0 -0.4,0.2 -0.5,0.5 h -1 c 0,-1 0.7,-1.5 1.5,-1.5 0.9,0 1.4,0.5 1.4,1.3 0,0.4 -0.1,0.7 -0.4,0.9 0.3,0.2 0.5,0.5 0.5,0.9 0,1 -0.6,1.6 -1.6,1.6 -0.8,0 -1.5,-0.5 -1.5,-1.7 z"
           id="path239"
           inkscape:connector-curvature="0"
           style="fill:#80696b" /><path
           d="m 238.4,271.9 v -4.6 h 1.6 c 1.2,0 1.9,0.7 1.9,2.2 0,1.7 -0.8,2.4 -2,2.4 z m 1.2,-1.1 h 0.3 c 0.6,0 0.9,-0.4 0.9,-1.2 0,-1 -0.3,-1.2 -0.9,-1.2 h -0.2 v 2.4 z"
           id="path241"
           inkscape:connector-curvature="0"
           style="fill:#80696b" /><path
           d="m 246.1,269.6 c 0,1.6 -0.8,2.4 -1.9,2.4 -1.2,0 -1.9,-0.9 -1.9,-2.5 0,-1.4 0.8,-2.4 1.9,-2.4 1.3,0.1 1.9,1.3 1.9,2.5 z m -2.6,0 c 0,0.6 0.1,1.3 0.7,1.3 0.5,0 0.7,-0.6 0.7,-1.3 0,-0.6 -0.2,-1.3 -0.7,-1.3 -0.6,0 -0.7,0.7 -0.7,1.3 z"
           id="path243"
           inkscape:connector-curvature="0"
           style="fill:#80696b" /><path
           d="m 250.7,269.1 c 0,-0.5 -0.3,-0.8 -0.7,-0.8 -0.4,0 -0.7,0.5 -0.7,1.3 0,0.6 0.1,1.3 0.7,1.3 0.4,0 0.6,-0.3 0.6,-0.8 h 1.2 c -0.1,1.2 -0.8,1.9 -1.8,1.9 -1.2,0 -2,-0.9 -2,-2.4 0,-1.5 0.8,-2.4 1.8,-2.4 1.1,0 1.8,0.7 1.9,1.9 z"
           id="path245"
           inkscape:connector-curvature="0"
           style="fill:#80696b" /><path
           d="m 253.7,268.5 c 0.9,0 1.5,0.7 1.5,1.7 0,1.2 -0.7,1.8 -1.5,1.8 -0.8,0 -1.5,-0.6 -1.5,-1.7 0,-1.2 0.6,-1.8 1.5,-1.8 z m -0.5,1.7 c 0,0.6 0.2,0.9 0.5,0.9 0.3,0 0.5,-0.3 0.5,-0.9 0,-0.5 -0.2,-0.9 -0.4,-0.8 -0.5,0 -0.6,0.4 -0.6,0.8 z"
           id="path247"
           inkscape:connector-curvature="0"
           style="fill:#80696b" /><path
           d="m 255.6,268.6 h 1 v 0.5 c 0.1,-0.3 0.5,-0.6 0.8,-0.6 0.5,0 0.7,0.3 0.9,0.6 0.2,-0.4 0.5,-0.6 0.9,-0.6 0.8,0 1,0.5 1,1.5 v 2 h -1.1 v -1.7 c 0,-0.5 -0.1,-0.7 -0.4,-0.7 -0.3,0 -0.4,0.3 -0.4,0.7 v 1.7 h -1.1 v -1.7 c 0,-0.5 -0.1,-0.7 -0.4,-0.7 -0.3,0 -0.4,0.3 -0.4,0.7 v 1.7 h -1.1 v -3.4 z"
           id="path249"
           inkscape:connector-curvature="0"
           style="fill:#80696b" /><path
           d="m 261.7,268.6 v 0.5 0 c 0.1,-0.4 0.5,-0.6 0.8,-0.6 0.8,0 1.2,0.8 1.2,1.7 0,1.3 -0.7,1.8 -1.3,1.8 -0.3,0 -0.5,-0.1 -0.7,-0.4 v 1.5 h -1.1 v -4.5 z m 1,1.6 c 0,-0.5 -0.2,-0.8 -0.5,-0.8 -0.3,0 -0.4,0.3 -0.4,0.8 0,0.5 0.2,0.8 0.4,0.8 0.3,0 0.5,-0.3 0.5,-0.8 z"
           id="path251"
           inkscape:connector-curvature="0"
           style="fill:#80696b" /><path
           d="m 266,271.9 -0.1,-0.4 c -0.3,0.4 -0.6,0.5 -1,0.5 -0.5,0 -1,-0.3 -1,-1 0,-1.5 1.9,-0.8 1.9,-1.5 0,-0.2 -0.2,-0.3 -0.3,-0.3 -0.1,0 -0.3,0 -0.4,0.3 h -1 c 0,-0.7 0.4,-1.1 1.5,-1.1 1.3,0 1.3,0.6 1.3,1.4 v 1.6 c 0,0.2 0,0.3 0.1,0.4 v 0.1 z m -0.1,-1.5 c -0.3,0.2 -0.8,0.1 -0.8,0.5 0,0.2 0.1,0.3 0.3,0.3 0.4,0.1 0.6,-0.3 0.5,-0.8 z"
           id="path253"
           inkscape:connector-curvature="0"
           style="fill:#80696b" /><path
           d="m 269.3,271.9 c -1.4,0.1 -1.6,0 -1.6,-1.2 v -1.4 h -0.4 v -0.8 h 0.4 v -1 h 1 v 1 h 0.5 v 0.8 h -0.5 v 1.2 c 0,0.3 0,0.4 0.3,0.4 h 0.2 v 1 z"
           id="path255"
           inkscape:connector-curvature="0"
           style="fill:#80696b" /><path
           d="m 269.9,267.2 h 1.1 v 0.9 h -1.1 z m 0,4.7 v -3.4 h 1.1 v 3.4 z"
           id="path257"
           inkscape:connector-curvature="0"
           style="fill:#80696b" /><path
           d="m 272.6,268.9 c 0.2,-0.3 0.5,-0.4 0.8,-0.4 0.7,0 1.2,0.7 1.2,1.8 0,1 -0.3,1.8 -1.2,1.8 -0.4,0 -0.7,-0.2 -0.8,-0.6 v 0 0.5 h -1 v -4.6 h 1.1 v 1.5 z m 0.9,1.4 c 0,-0.4 -0.1,-0.8 -0.5,-0.8 -0.3,0 -0.4,0.4 -0.4,0.7 0,0.4 0.1,0.8 0.4,0.8 0.4,0 0.5,-0.4 0.5,-0.7 z"
           id="path259"
           inkscape:connector-curvature="0"
           style="fill:#80696b" /><path
           d="m 275,267.2 h 1.1 v 0.9 H 275 Z m 0,4.7 v -3.4 h 1.1 v 3.4 z"
           id="path261"
           inkscape:connector-curvature="0"
           style="fill:#80696b" /><path
           d="m 276.7,271.9 v -4.6 h 1.1 v 4.6 z"
           id="path263"
           inkscape:connector-curvature="0"
           style="fill:#80696b" /><path
           d="m 278.4,267.2 h 1.1 v 0.9 h -1.1 z m 0,4.7 v -3.4 h 1.1 v 3.4 z"
           id="path265"
           inkscape:connector-curvature="0"
           style="fill:#80696b" /><path
           d="m 281.8,271.9 c -1.4,0.1 -1.6,0 -1.6,-1.2 v -1.4 h -0.4 v -0.8 h 0.4 v -1 h 1 v 1 h 0.5 v 0.8 h -0.5 v 1.2 c 0,0.3 0,0.4 0.3,0.4 h 0.2 v 1 z"
           id="path267"
           inkscape:connector-curvature="0"
           style="fill:#80696b" /><path
           d="m 283.6,270.6 0.5,-2.1 h 1 l -0.9,3.1 c -0.3,1 -0.4,1.4 -1.3,1.4 -0.2,0 -0.4,0 -0.5,0 v -0.9 c 0.1,0 0.1,0 0.2,0 0.3,0 0.4,-0.1 0.3,-0.5 l -0.9,-3 h 1.1 z"
           id="path269"
           inkscape:connector-curvature="0"
           style="fill:#80696b" /><path
           d="m 212.8,276.3 c 0,-0.2 -0.1,-0.3 -0.2,-0.3 -0.1,0 -0.2,-0.1 -0.3,-0.1 -0.3,0 -0.4,0.1 -0.4,0.3 0,0.7 2.1,0.3 2.1,1.9 0,1.1 -0.7,1.6 -1.7,1.6 -1,0 -1.6,-0.7 -1.6,-1.5 h 1.2 c 0,0.2 0.1,0.3 0.2,0.4 0.1,0.1 0.2,0.1 0.3,0.1 0.3,0 0.5,-0.1 0.5,-0.3 0,-0.7 -2.1,-0.2 -2.1,-2 0,-1 0.7,-1.5 1.6,-1.5 1,0 1.5,0.7 1.6,1.5 h -1.2 z"
           id="path271"
           inkscape:connector-curvature="0"
           style="fill:#80696b" /><path
           d="m 215.8,278.3 0.5,-2.1 h 1 l -0.9,3.1 c -0.3,1 -0.4,1.4 -1.3,1.4 -0.2,0 -0.4,0 -0.5,0 v -0.9 c 0.1,0 0.1,0 0.2,0 0.3,0 0.4,-0.1 0.3,-0.5 l -0.9,-3 h 1.1 z"
           id="path273"
           inkscape:connector-curvature="0"
           style="fill:#80696b" /><path
           d="m 217.6,276.2 h 1 v 0.5 c 0.1,-0.3 0.5,-0.6 0.8,-0.6 0.5,0 0.7,0.3 0.9,0.6 0.2,-0.4 0.5,-0.6 0.9,-0.6 0.8,0 1,0.5 1,1.5 v 2 h -1.1 v -1.7 c 0,-0.5 -0.1,-0.7 -0.4,-0.7 -0.3,0 -0.4,0.3 -0.4,0.7 v 1.7 h -1.1 v -1.7 c 0,-0.5 -0.1,-0.7 -0.4,-0.7 -0.3,0 -0.4,0.3 -0.4,0.7 v 1.7 h -1.1 v -3.4 z"
           id="path275"
           inkscape:connector-curvature="0"
           style="fill:#80696b" /><path
           d="m 223.8,276.6 c 0.2,-0.3 0.5,-0.4 0.8,-0.4 0.7,0 1.2,0.7 1.2,1.8 0,1 -0.3,1.8 -1.2,1.8 -0.4,0 -0.7,-0.2 -0.8,-0.6 v 0 0.5 h -1 V 275 h 1.1 v 1.6 z m 0.8,1.3 c 0,-0.4 -0.1,-0.8 -0.5,-0.8 -0.3,0 -0.4,0.4 -0.4,0.7 0,0.4 0.1,0.8 0.4,0.8 0.4,0.1 0.5,-0.3 0.5,-0.7 z"
           id="path277"
           inkscape:connector-curvature="0"
           style="fill:#80696b" /><path
           d="m 227.6,276.1 c 0.9,0 1.5,0.7 1.5,1.7 0,1.2 -0.7,1.8 -1.5,1.8 -0.8,0 -1.5,-0.6 -1.5,-1.7 -0.1,-1.1 0.6,-1.8 1.5,-1.8 z m -0.5,1.8 c 0,0.6 0.2,0.9 0.5,0.9 0.3,0 0.5,-0.3 0.5,-0.9 0,-0.5 -0.2,-0.9 -0.4,-0.8 -0.5,-0.1 -0.6,0.4 -0.6,0.8 z"
           id="path279"
           inkscape:connector-curvature="0"
           style="fill:#80696b" /><path
           d="M 229.6,279.6 V 275 h 1.1 v 4.6 z"
           id="path281"
           inkscape:connector-curvature="0"
           style="fill:#80696b" /><path
           d="m 234.8,279.6 -0.1,-0.4 c -0.3,0.4 -0.6,0.5 -1,0.5 -0.5,0 -1,-0.3 -1,-1 0,-1.5 1.9,-0.8 1.9,-1.5 0,-0.2 -0.2,-0.3 -0.3,-0.3 -0.1,0 -0.3,0 -0.4,0.3 h -1 c 0,-0.7 0.4,-1.1 1.5,-1.1 1.3,0 1.3,0.6 1.3,1.4 v 1.6 c 0,0.2 0,0.3 0.1,0.4 v 0.1 z m -0.1,-1.5 c -0.3,0.2 -0.8,0.1 -0.8,0.5 0,0.2 0.1,0.3 0.3,0.3 0.4,0 0.5,-0.3 0.5,-0.8 z"
           id="path283"
           inkscape:connector-curvature="0"
           style="fill:#80696b" /><path
           d="m 236.4,276.2 h 1 v 0.7 0 c 0.1,-0.5 0.4,-0.8 0.8,-0.8 0,0 0.1,0 0.1,0 v 1.3 c -0.1,0 -0.1,0 -0.2,0 -0.4,0 -0.7,0.3 -0.7,1 v 1.2 h -1.1 v -3.4 z"
           id="path285"
           inkscape:connector-curvature="0"
           style="fill:#80696b" /><path
           d="m 239.5,278.2 c 0,0.4 0.2,0.7 0.5,0.7 0.2,0 0.3,-0.1 0.4,-0.3 h 1 c -0.2,0.8 -0.9,1.1 -1.5,1.1 -0.9,0 -1.5,-0.6 -1.5,-1.7 0,-1.1 0.7,-1.8 1.5,-1.8 1,0 1.6,0.9 1.6,2.1 h -2 z m 0.9,-0.7 c 0,-0.3 -0.2,-0.6 -0.5,-0.6 -0.3,0 -0.5,0.2 -0.5,0.6 z"
           id="path287"
           inkscape:connector-curvature="0"
           style="fill:#80696b" /><path
           d="m 245.4,279.6 c -1.4,0.1 -1.6,0 -1.6,-1.2 V 277 h -0.4 v -0.8 h 0.4 v -1 h 1 v 1 h 0.5 v 0.8 h -0.5 v 1.2 c 0,0.3 0,0.4 0.3,0.4 h 0.2 v 1 z"
           id="path289"
           inkscape:connector-curvature="0"
           style="fill:#80696b" /><path
           d="m 245.9,276.2 h 1 v 0.7 0 c 0.1,-0.5 0.4,-0.8 0.8,-0.8 0,0 0.1,0 0.1,0 v 1.3 c -0.1,0 -0.1,0 -0.2,0 -0.4,0 -0.7,0.3 -0.7,1 v 1.2 h -1.1 v -3.4 z"
           id="path291"
           inkscape:connector-curvature="0"
           style="fill:#80696b" /><path
           d="m 250,279.6 -0.1,-0.4 c -0.3,0.4 -0.6,0.5 -1,0.5 -0.5,0 -1,-0.3 -1,-1 0,-1.5 1.9,-0.8 1.9,-1.5 0,-0.2 -0.2,-0.3 -0.3,-0.3 -0.1,0 -0.3,0 -0.4,0.3 h -1 c 0,-0.7 0.4,-1.1 1.5,-1.1 1.3,0 1.3,0.6 1.3,1.4 v 1.6 c 0,0.2 0,0.3 0.1,0.4 v 0.1 z m -0.1,-1.5 c -0.3,0.2 -0.8,0.1 -0.8,0.5 0,0.2 0.1,0.3 0.3,0.3 0.4,0 0.6,-0.3 0.5,-0.8 z"
           id="path293"
           inkscape:connector-curvature="0"
           style="fill:#80696b" /><path
           d="m 253.5,279.6 v -0.4 c -0.3,0.4 -0.5,0.5 -0.8,0.5 -0.8,0 -1.2,-0.8 -1.2,-1.7 0,-1.1 0.5,-1.8 1.1,-1.8 0.3,0 0.6,0.1 0.8,0.4 V 275 h 1.1 v 4.6 z m -0.1,-1.7 c 0,-0.4 -0.1,-0.8 -0.5,-0.8 -0.4,0 -0.5,0.4 -0.5,0.8 0,0.4 0.1,0.8 0.4,0.8 0.5,0 0.6,-0.4 0.6,-0.8 z"
           id="path295"
           inkscape:connector-curvature="0"
           style="fill:#80696b" /><path
           d="m 255.9,278.2 c 0,0.4 0.2,0.7 0.5,0.7 0.2,0 0.3,-0.1 0.4,-0.3 h 1 c -0.2,0.8 -0.9,1.1 -1.5,1.1 -0.9,0 -1.5,-0.6 -1.5,-1.7 0,-1.1 0.7,-1.8 1.5,-1.8 1,0 1.6,0.9 1.6,2.1 h -2 z m 1,-0.7 c 0,-0.3 -0.2,-0.6 -0.5,-0.6 -0.3,0 -0.5,0.2 -0.5,0.6 z"
           id="path297"
           inkscape:connector-curvature="0"
           style="fill:#80696b" /><path
           d="m 258.4,276.2 h 1 v 0.5 c 0.1,-0.3 0.5,-0.6 0.8,-0.6 0.5,0 0.7,0.3 0.9,0.6 0.2,-0.4 0.5,-0.6 0.9,-0.6 0.8,0 1,0.5 1,1.5 v 2 h -1.1 v -1.7 c 0,-0.5 -0.1,-0.7 -0.4,-0.7 -0.3,0 -0.4,0.3 -0.4,0.7 v 1.7 H 260 v -1.7 c 0,-0.5 -0.1,-0.7 -0.4,-0.7 -0.3,0 -0.4,0.3 -0.4,0.7 v 1.7 h -1.1 v -3.4 z"
           id="path299"
           inkscape:connector-curvature="0"
           style="fill:#80696b" /><path
           d="m 265.4,279.6 -0.1,-0.4 c -0.3,0.4 -0.6,0.5 -1,0.5 -0.5,0 -1,-0.3 -1,-1 0,-1.5 1.9,-0.8 1.9,-1.5 0,-0.2 -0.2,-0.3 -0.3,-0.3 -0.1,0 -0.3,0 -0.4,0.3 h -1 c 0,-0.7 0.4,-1.1 1.5,-1.1 1.3,0 1.3,0.6 1.3,1.4 v 1.6 c 0,0.2 0,0.3 0.1,0.4 v 0.1 z m -0.1,-1.5 c -0.3,0.2 -0.8,0.1 -0.8,0.5 0,0.2 0.1,0.3 0.3,0.3 0.4,0 0.5,-0.3 0.5,-0.8 z"
           id="path301"
           inkscape:connector-curvature="0"
           style="fill:#80696b" /><path
           d="m 266.9,276.2 h 1 v 0.7 0 c 0.1,-0.5 0.4,-0.8 0.8,-0.8 0,0 0.1,0 0.1,0 v 1.3 c -0.1,0 -0.1,0 -0.2,0 -0.4,0 -0.7,0.3 -0.7,1 v 1.2 h -1.1 v -3.4 z"
           id="path303"
           inkscape:connector-curvature="0"
           style="fill:#80696b" /><path
           d="m 270.2,278.6 v 0.9 h -1.1 V 275 h 1.1 v 2.3 l 0.7,-1 h 1.2 l -1,1.3 1.1,2.1 H 271 l -0.6,-1.2 z"
           id="path305"
           inkscape:connector-curvature="0"
           style="fill:#80696b" /><path
           d="m 273.5,278.5 c 0,0.1 0,0.2 0.1,0.3 0.1,0.1 0.2,0.1 0.3,0.1 0.2,0 0.3,-0.1 0.3,-0.3 0,-0.5 -1.6,-0.1 -1.6,-1.4 0,-0.9 0.7,-1.1 1.3,-1.1 0.6,0 1.3,0.2 1.3,1.1 h -1 c 0,-0.1 0,-0.2 -0.1,-0.2 -0.1,-0.1 -0.1,-0.1 -0.2,-0.1 -0.2,0 -0.3,0.1 -0.3,0.2 0,0.5 1.7,0.2 1.7,1.4 0,0.7 -0.5,1.2 -1.4,1.2 -0.6,0 -1.3,-0.2 -1.3,-1.1 h 0.9 z"
           id="path307"
           inkscape:connector-curvature="0"
           style="fill:#80696b" /><path
           d="m 278.8,276.1 c 0.9,0 1.5,0.7 1.5,1.7 0,1.2 -0.7,1.8 -1.5,1.8 -0.8,0 -1.5,-0.6 -1.5,-1.7 0,-1.1 0.6,-1.8 1.5,-1.8 z m -0.4,1.8 c 0,0.6 0.2,0.9 0.5,0.9 0.3,0 0.5,-0.3 0.5,-0.9 0,-0.5 -0.2,-0.9 -0.4,-0.8 -0.5,-0.1 -0.6,0.4 -0.6,0.8 z"
           id="path309"
           inkscape:connector-curvature="0"
           style="fill:#80696b" /><path
           d="M 282.5,276.2 V 277 H 282 v 2.6 h -1.1 V 277 h -0.4 v -0.8 h 0.4 c 0,-1.2 0.4,-1.4 1,-1.4 h 0.5 v 0.8 c -0.3,0 -0.5,0 -0.4,0.5 h 0.5 z"
           id="path311"
           inkscape:connector-curvature="0"
           style="fill:#80696b" /><path
           d="m 210.7,282.6 h 3.4 v 1.2 H 213 v 3.4 h -1.2 v -3.4 h -1.1 z"
           id="path313"
           inkscape:connector-curvature="0"
           style="fill:#80696b" /><path
           d="m 214.5,282.6 h 1.1 v 1.7 c 0.2,-0.3 0.5,-0.5 0.8,-0.5 0.7,0 1,0.5 1,1.4 v 2 h -1.1 v -1.8 c 0,-0.3 -0.1,-0.6 -0.4,-0.6 -0.3,0 -0.4,0.3 -0.4,0.7 v 1.7 h -1.1 v -4.6 z"
           id="path315"
           inkscape:connector-curvature="0"
           style="fill:#80696b" /><path
           d="m 218.9,285.9 c 0,0.4 0.2,0.7 0.5,0.7 0.2,0 0.3,-0.1 0.4,-0.3 h 1 c -0.2,0.8 -0.9,1.1 -1.5,1.1 -0.9,0 -1.5,-0.6 -1.5,-1.7 0,-1.1 0.7,-1.8 1.5,-1.8 1,0 1.6,0.9 1.6,2.1 h -2 z m 0.9,-0.7 c 0,-0.3 -0.2,-0.6 -0.5,-0.6 -0.3,0 -0.5,0.2 -0.5,0.6 z"
           id="path317"
           inkscape:connector-curvature="0"
           style="fill:#80696b" /><path
           d="m 223.9,285.7 c 0,0.2 0,0.4 0.1,0.5 0.1,0.1 0.2,0.2 0.4,0.2 0.3,0 0.5,-0.3 0.5,-0.5 0,-0.5 -0.4,-0.5 -0.7,-0.5 v -0.8 c 0.3,0 0.6,0 0.6,-0.5 0,-0.3 -0.2,-0.4 -0.4,-0.4 -0.3,0 -0.4,0.2 -0.5,0.5 h -1 c 0,-1 0.7,-1.5 1.5,-1.5 0.9,0 1.4,0.5 1.4,1.3 0,0.4 -0.1,0.7 -0.4,0.9 0.3,0.2 0.5,0.5 0.5,0.9 0,1 -0.6,1.6 -1.6,1.6 -0.8,0 -1.5,-0.5 -1.5,-1.7 z"
           id="path319"
           inkscape:connector-curvature="0"
           style="fill:#80696b" /><path
           d="m 226.5,287.2 v -4.6 h 1.6 c 1.2,0 1.9,0.7 1.9,2.2 0,1.7 -0.8,2.4 -2,2.4 z m 1.2,-1 h 0.3 c 0.6,0 0.9,-0.4 0.9,-1.2 0,-1 -0.3,-1.2 -0.9,-1.2 h -0.2 v 2.4 z"
           id="path321"
           inkscape:connector-curvature="0"
           style="fill:#80696b" /><path
           d="m 234.2,284.9 c 0,1.6 -0.8,2.4 -1.9,2.4 -1.2,0 -1.9,-0.9 -1.9,-2.5 0,-1.4 0.8,-2.4 1.9,-2.4 1.3,0.1 1.9,1.3 1.9,2.5 z m -2.7,0 c 0,0.6 0.1,1.3 0.7,1.3 0.5,0 0.7,-0.6 0.7,-1.3 0,-0.6 -0.2,-1.3 -0.7,-1.3 -0.5,0 -0.7,0.7 -0.7,1.3 z"
           id="path323"
           inkscape:connector-curvature="0"
           style="fill:#80696b" /><path
           d="m 238.7,284.4 c 0,-0.5 -0.3,-0.8 -0.7,-0.8 -0.4,0 -0.7,0.5 -0.7,1.3 0,0.6 0.1,1.3 0.7,1.3 0.4,0 0.6,-0.3 0.6,-0.8 h 1.2 c -0.1,1.2 -0.8,1.9 -1.8,1.9 -1.2,0 -2,-0.9 -2,-2.4 0,-1.5 0.8,-2.4 1.8,-2.4 1.1,0 1.8,0.7 1.9,1.9 z"
           id="path325"
           inkscape:connector-curvature="0"
           style="fill:#80696b" /><path
           d="m 241.8,283.8 c 0.9,0 1.5,0.7 1.5,1.7 0,1.2 -0.7,1.8 -1.5,1.8 -0.8,0 -1.5,-0.6 -1.5,-1.7 -0.1,-1.2 0.6,-1.8 1.5,-1.8 z m -0.5,1.7 c 0,0.6 0.2,0.9 0.5,0.9 0.3,0 0.5,-0.3 0.5,-0.9 0,-0.5 -0.2,-0.9 -0.4,-0.8 -0.5,0 -0.6,0.5 -0.6,0.8 z"
           id="path327"
           inkscape:connector-curvature="0"
           style="fill:#80696b" /><path
           d="m 243.7,283.9 h 1 v 0.5 c 0.1,-0.3 0.5,-0.6 0.8,-0.6 0.5,0 0.7,0.3 0.9,0.6 0.2,-0.4 0.5,-0.6 0.9,-0.6 0.8,0 1,0.5 1,1.5 v 2 h -1.1 v -1.7 c 0,-0.5 -0.1,-0.7 -0.4,-0.7 -0.3,0 -0.4,0.3 -0.4,0.7 v 1.7 h -1.1 v -1.7 c 0,-0.5 -0.1,-0.7 -0.4,-0.7 -0.3,0 -0.4,0.3 -0.4,0.7 v 1.7 h -1.1 v -3.4 z"
           id="path329"
           inkscape:connector-curvature="0"
           style="fill:#80696b" /><path
           d="m 249.8,283.9 v 0.5 0 c 0.1,-0.4 0.5,-0.6 0.8,-0.6 0.8,0 1.2,0.8 1.2,1.7 0,1.3 -0.7,1.8 -1.3,1.8 -0.3,0 -0.5,-0.1 -0.7,-0.4 v 1.5 h -1.1 v -4.5 z m 0.9,1.7 c 0,-0.5 -0.2,-0.8 -0.5,-0.8 -0.3,0 -0.4,0.3 -0.4,0.8 0,0.5 0.2,0.8 0.4,0.8 0.4,-0.1 0.5,-0.4 0.5,-0.8 z"
           id="path331"
           inkscape:connector-curvature="0"
           style="fill:#80696b" /><path
           d="m 254.1,287.2 -0.1,-0.4 c -0.3,0.4 -0.6,0.5 -1,0.5 -0.5,0 -1,-0.3 -1,-1 0,-1.5 1.9,-0.8 1.9,-1.5 0,-0.2 -0.2,-0.3 -0.3,-0.3 -0.1,0 -0.3,0 -0.4,0.3 h -1 c 0,-0.7 0.4,-1.1 1.5,-1.1 1.3,0 1.3,0.6 1.3,1.4 v 1.6 c 0,0.2 0,0.3 0.1,0.4 v 0.1 z m -0.1,-1.4 c -0.3,0.2 -0.8,0.1 -0.8,0.5 0,0.2 0.1,0.3 0.3,0.3 0.4,0 0.5,-0.4 0.5,-0.8 z"
           id="path333"
           inkscape:connector-curvature="0"
           style="fill:#80696b" /><path
           d="m 255.6,283.9 h 1 v 0.5 c 0.2,-0.4 0.5,-0.6 0.9,-0.6 0.7,0 1,0.5 1,1.4 v 2 h -1.1 v -1.8 c 0,-0.3 -0.1,-0.6 -0.4,-0.6 -0.3,0 -0.4,0.3 -0.4,0.7 v 1.7 h -1.1 v -3.3 z"
           id="path335"
           inkscape:connector-curvature="0"
           style="fill:#80696b" /><path
           d="m 260.4,286 0.5,-2.1 h 1 L 261,287 c -0.3,1 -0.4,1.4 -1.3,1.4 -0.2,0 -0.4,0 -0.5,0 v -0.9 c 0.1,0 0.1,0 0.2,0 0.3,0 0.4,-0.1 0.3,-0.5 l -0.9,-3 h 1.1 z"
           id="path337"
           inkscape:connector-curvature="0"
           style="fill:#80696b" /><path
           d="m 261.8,287.2 v -1.3 h 1.1 v 1.3 z"
           id="path339"
           inkscape:connector-curvature="0"
           style="fill:#80696b" /><path
           d="m 210.6,294.9 1.3,-4.6 h 1.2 l 1.3,4.6 h -1.2 l -0.1,-0.6 h -1.2 l -0.1,0.6 z m 1.9,-3.2 -0.4,1.6 h 0.8 z"
           id="path341"
           inkscape:connector-curvature="0"
           style="fill:#80696b" /><path
           d="m 214.8,294.9 v -4.6 h 1.1 v 4.6 z"
           id="path343"
           inkscape:connector-curvature="0"
           style="fill:#80696b" /><path
           d="m 216.5,294.9 v -4.6 h 1.1 v 4.6 z"
           id="path345"
           inkscape:connector-curvature="0"
           style="fill:#80696b" /><path
           d="m 219.9,291.6 h 1 v 0.7 0 c 0.1,-0.5 0.4,-0.8 0.8,-0.8 0,0 0.1,0 0.1,0 v 1.3 c -0.1,0 -0.1,0 -0.2,0 -0.4,0 -0.7,0.3 -0.7,1 v 1.2 h -1.1 v -3.4 z"
           id="path347"
           inkscape:connector-curvature="0"
           style="fill:#80696b" /><path
           d="m 222.2,290.2 h 1.1 v 0.9 h -1.1 z m 0,4.7 v -3.4 h 1.1 v 3.4 z"
           id="path349"
           inkscape:connector-curvature="0"
           style="fill:#80696b" /><path
           d="m 225,295.1 c 0,0 0,0.1 0.1,0.1 0,0.1 0.1,0.1 0.2,0.1 0.3,0 0.4,-0.2 0.4,-0.7 v -0.3 c -0.2,0.2 -0.4,0.4 -0.8,0.4 -0.7,0 -1.2,-0.7 -1.2,-1.6 0,-0.8 0.3,-1.7 1.2,-1.7 0.3,0 0.6,0.2 0.8,0.5 v -0.4 h 0.9 v 2.7 c 0,1 -0.1,1.8 -1.4,1.8 -0.9,0 -1.3,-0.5 -1.4,-1 h 1.2 z m -0.2,-1.9 c 0,0.3 0.1,0.6 0.4,0.7 0.3,0 0.5,-0.3 0.5,-0.7 0,-0.4 -0.1,-0.7 -0.5,-0.7 -0.3,-0.1 -0.4,0.2 -0.4,0.7 z"
           id="path351"
           inkscape:connector-curvature="0"
           style="fill:#80696b" /><path
           d="m 227.2,290.3 h 1.1 v 1.7 c 0.2,-0.3 0.5,-0.5 0.8,-0.5 0.7,0 1,0.5 1,1.4 v 2 H 229 v -1.8 c 0,-0.3 -0.1,-0.6 -0.4,-0.6 -0.3,0 -0.4,0.3 -0.4,0.7 v 1.7 h -1.1 v -4.6 z"
           id="path353"
           inkscape:connector-curvature="0"
           style="fill:#80696b" /><path
           d="m 232.4,294.9 c -1.4,0.1 -1.6,0 -1.6,-1.2 v -1.4 h -0.4 v -0.8 h 0.4 v -1 h 1 v 1 h 0.5 v 0.8 h -0.5 v 1.2 c 0,0.3 0,0.4 0.3,0.4 h 0.2 v 1 z"
           id="path355"
           inkscape:connector-curvature="0"
           style="fill:#80696b" /><path
           d="m 233.9,293.9 c 0,0.1 0,0.2 0.1,0.3 0.1,0.1 0.2,0.1 0.3,0.1 0.2,0 0.3,-0.1 0.3,-0.3 0,-0.5 -1.6,-0.1 -1.6,-1.4 0,-0.9 0.7,-1.1 1.3,-1.1 0.6,0 1.3,0.2 1.3,1.1 h -1 c 0,-0.1 0,-0.2 -0.1,-0.2 -0.1,-0.1 -0.1,-0.1 -0.2,-0.1 -0.2,0 -0.3,0.1 -0.3,0.2 0,0.5 1.7,0.2 1.7,1.4 0,0.7 -0.5,1.2 -1.4,1.2 -0.6,0 -1.3,-0.2 -1.3,-1.1 h 0.9 z"
           id="path357"
           inkscape:connector-curvature="0"
           style="fill:#80696b" /><path
           d="m 237.8,291.6 h 1 v 0.7 0 c 0.1,-0.5 0.4,-0.8 0.8,-0.8 0,0 0.1,0 0.1,0 v 1.3 c -0.1,0 -0.1,0 -0.2,0 -0.4,0 -0.7,0.3 -0.7,1 v 1.2 h -1.1 v -3.4 z"
           id="path359"
           inkscape:connector-curvature="0"
           style="fill:#80696b" /><path
           d="m 240.9,293.5 c 0,0.4 0.2,0.7 0.5,0.7 0.2,0 0.3,-0.1 0.4,-0.3 h 1 c -0.2,0.8 -0.9,1.1 -1.5,1.1 -0.9,0 -1.5,-0.6 -1.5,-1.7 0,-1.1 0.7,-1.8 1.5,-1.8 1,0 1.6,0.9 1.6,2.1 h -2 z m 1,-0.6 c 0,-0.3 -0.2,-0.6 -0.5,-0.6 -0.3,0 -0.5,0.2 -0.5,0.6 z"
           id="path361"
           inkscape:connector-curvature="0"
           style="fill:#80696b" /><path
           d="m 244.3,293.9 c 0,0.1 0,0.2 0.1,0.3 0.1,0.1 0.2,0.1 0.3,0.1 0.2,0 0.3,-0.1 0.3,-0.3 0,-0.5 -1.6,-0.1 -1.6,-1.4 0,-0.9 0.7,-1.1 1.3,-1.1 0.6,0 1.3,0.2 1.3,1.1 h -1 c 0,-0.1 0,-0.2 -0.1,-0.2 -0.1,-0.1 -0.1,-0.1 -0.2,-0.1 -0.2,0 -0.3,0.1 -0.3,0.2 0,0.5 1.7,0.2 1.7,1.4 0,0.7 -0.5,1.2 -1.4,1.2 -0.6,0 -1.3,-0.2 -1.3,-1.1 h 0.9 z"
           id="path363"
           inkscape:connector-curvature="0"
           style="fill:#80696b" /><path
           d="m 247.4,293.5 c 0,0.4 0.2,0.7 0.5,0.7 0.2,0 0.3,-0.1 0.4,-0.3 h 1 c -0.2,0.8 -0.9,1.1 -1.5,1.1 -0.9,0 -1.5,-0.6 -1.5,-1.7 0,-1.1 0.7,-1.8 1.5,-1.8 1,0 1.6,0.9 1.6,2.1 h -2 z m 1,-0.6 c 0,-0.3 -0.2,-0.6 -0.5,-0.6 -0.3,0 -0.5,0.2 -0.5,0.6 z"
           id="path365"
           inkscape:connector-curvature="0"
           style="fill:#80696b" /><path
           d="m 249.9,291.6 h 1 v 0.7 0 c 0.1,-0.5 0.4,-0.8 0.8,-0.8 0,0 0.1,0 0.1,0 v 1.3 c -0.1,0 -0.1,0 -0.2,0 -0.4,0 -0.7,0.3 -0.7,1 v 1.2 h -1.1 v -3.4 z"
           id="path367"
           inkscape:connector-curvature="0"
           style="fill:#80696b" /><path
           d="m 252,291.6 h 1.1 l 0.5,2.1 0.5,-2.1 h 1 l -0.9,3.4 H 253 Z"
           id="path369"
           inkscape:connector-curvature="0"
           style="fill:#80696b" /><path
           d="m 256.3,293.5 c 0,0.4 0.2,0.7 0.5,0.7 0.2,0 0.3,-0.1 0.4,-0.3 h 1 c -0.2,0.8 -0.9,1.1 -1.5,1.1 -0.9,0 -1.5,-0.6 -1.5,-1.7 0,-1.1 0.7,-1.8 1.5,-1.8 1,0 1.6,0.9 1.6,2.1 h -2 z m 1,-0.6 c 0,-0.3 -0.2,-0.6 -0.5,-0.6 -0.3,0 -0.5,0.2 -0.5,0.6 z"
           id="path371"
           inkscape:connector-curvature="0"
           style="fill:#80696b" /><path
           d="m 260.7,294.9 v -0.4 c -0.3,0.4 -0.5,0.5 -0.8,0.5 -0.8,0 -1.2,-0.8 -1.2,-1.7 0,-1.1 0.5,-1.8 1.1,-1.8 0.3,0 0.6,0.1 0.8,0.4 v -1.6 h 1.1 v 4.6 z m -0.1,-1.6 c 0,-0.4 -0.1,-0.8 -0.5,-0.8 -0.4,0 -0.5,0.4 -0.5,0.8 0,0.4 0.1,0.8 0.4,0.8 0.5,-0.1 0.6,-0.4 0.6,-0.8 z"
           id="path373"
           inkscape:connector-curvature="0"
           style="fill:#80696b" /><path
           d="m 262.2,294.9 v -1.3 h 1.1 v 1.3 z"
           id="path375"
           inkscape:connector-curvature="0"
           style="fill:#80696b" /></g><g
         id="g501"><path
           d="m 55.8,264.3 v -4.9 h 1.4 l 0.6,3.1 0.6,-3.1 h 1.4 v 4.9 h -1 v -1.5 -0.8 l 0.1,-0.9 v 0 l -0.6,3.1 h -0.8 l -0.6,-3.1 v 0 0.7 0.8 1.7 z"
           id="path379"
           inkscape:connector-curvature="0"
           style="fill:#80696b" /><path
           d="m 62.1,264.3 v -0.4 c -0.3,0.4 -0.6,0.5 -1,0.5 -0.5,0 -0.9,-0.3 -0.9,-1.1 0,-1.6 1.8,-0.9 1.8,-1.6 0,-0.3 -0.2,-0.3 -0.3,-0.3 -0.1,0 -0.3,0 -0.4,0.3 h -1 c 0,-0.8 0.4,-1.2 1.4,-1.2 1.2,0 1.3,0.6 1.3,1.5 v 1.7 c 0,0.2 0,0.3 0.1,0.5 v 0.1 z M 62,262.7 c -0.3,0.2 -0.8,0.1 -0.8,0.6 0,0.2 0.1,0.3 0.3,0.3 0.4,0 0.5,-0.4 0.5,-0.9 z"
           id="path381"
           inkscape:connector-curvature="0"
           style="fill:#80696b" /><path
           d="m 65.2,264.3 c -1.3,0.1 -1.5,0 -1.5,-1.3 v -1.5 h -0.4 v -0.8 h 0.4 v -1.1 h 1 v 1.1 h 0.5 v 0.8 h -0.5 v 1.3 c 0,0.3 0,0.4 0.3,0.4 h 0.2 z"
           id="path383"
           inkscape:connector-curvature="0"
           style="fill:#80696b" /><path
           d="m 66.6,263.2 c 0,0.1 0,0.3 0.1,0.3 0.1,0.1 0.1,0.1 0.2,0.1 0.2,0 0.3,-0.1 0.3,-0.3 0,-0.6 -1.5,-0.1 -1.5,-1.5 0,-0.9 0.7,-1.2 1.2,-1.2 0.5,0 1.2,0.2 1.3,1.1 h -0.9 c 0,-0.1 0,-0.2 -0.1,-0.3 -0.1,-0.1 -0.1,-0.1 -0.2,-0.1 -0.2,0 -0.3,0.1 -0.3,0.3 0,0.5 1.6,0.2 1.6,1.5 0,0.7 -0.4,1.2 -1.4,1.2 -0.6,0 -1.2,-0.3 -1.3,-1.2 h 1 z"
           id="path385"
           inkscape:connector-curvature="0"
           style="fill:#80696b" /><path
           d="m 71.4,264.3 h -0.9 v -0.5 c -0.3,0.5 -0.5,0.6 -0.9,0.6 -0.5,0 -0.9,-0.5 -0.9,-1.5 v -2.2 h 1 v 1.9 c 0,0.5 0.1,0.6 0.4,0.6 0.3,0 0.4,-0.3 0.4,-0.9 v -1.7 h 1 v 3.7 z"
           id="path387"
           inkscape:connector-curvature="0"
           style="fill:#80696b" /><path
           d="m 72.7,263.2 c 0,0.1 0,0.3 0.1,0.3 0.1,0.1 0.1,0.1 0.2,0.1 0.2,0 0.3,-0.1 0.3,-0.3 0,-0.6 -1.5,-0.1 -1.5,-1.5 0,-0.9 0.7,-1.2 1.2,-1.2 0.5,0 1.2,0.2 1.3,1.1 h -0.9 c 0,-0.1 0,-0.2 -0.1,-0.3 -0.1,-0.1 -0.1,-0.1 -0.2,-0.1 -0.2,0 -0.3,0.1 -0.3,0.3 0,0.5 1.6,0.2 1.6,1.5 0,0.7 -0.4,1.2 -1.4,1.2 -0.6,0 -1.2,-0.3 -1.3,-1.2 h 1 z"
           id="path389"
           inkscape:connector-curvature="0"
           style="fill:#80696b" /><path
           d="m 74.8,259.4 h 1 v 1.8 c 0.2,-0.4 0.4,-0.6 0.8,-0.6 0.7,0 1,0.6 1,1.5 v 2.1 h -1 v -1.9 c 0,-0.4 -0.1,-0.7 -0.4,-0.7 -0.3,0 -0.4,0.3 -0.4,0.7 v 1.8 h -1 z"
           id="path391"
           inkscape:connector-curvature="0"
           style="fill:#80696b" /><path
           d="m 78.1,259.2 h 1 v 1 h -1 z m 0,5.1 v -3.6 h 1 v 3.6 z"
           id="path393"
           inkscape:connector-curvature="0"
           style="fill:#80696b" /><path
           d="m 81.3,264.3 c -1.3,0.1 -1.5,0 -1.5,-1.3 v -1.5 h -0.4 v -0.8 h 0.4 v -1.1 h 1 v 1.1 h 0.5 v 0.8 h -0.5 v 1.3 c 0,0.3 0,0.4 0.3,0.4 h 0.2 z"
           id="path395"
           inkscape:connector-curvature="0"
           style="fill:#80696b" /><path
           d="m 83.5,264.3 v -0.4 c -0.3,0.4 -0.6,0.5 -0.9,0.5 -0.5,0 -0.9,-0.3 -0.9,-1.1 0,-1.6 1.8,-0.9 1.8,-1.6 0,-0.3 -0.2,-0.3 -0.3,-0.3 -0.1,0 -0.3,0 -0.4,0.3 h -1 c 0,-0.8 0.4,-1.2 1.4,-1.2 1.2,0 1.3,0.6 1.3,1.5 v 1.7 c 0,0.2 0,0.3 0.1,0.5 v 0.1 z m -0.1,-1.6 c -0.3,0.2 -0.8,0.1 -0.8,0.6 0,0.2 0.1,0.3 0.3,0.3 0.5,0 0.6,-0.4 0.5,-0.9 z"
           id="path397"
           inkscape:connector-curvature="0"
           style="fill:#80696b" /><path
           d="m 86.7,264.3 v -4.9 h 2.8 v 1.1 h -1.7 v 0.7 h 1.4 v 1.1 h -1.4 v 0.8 h 1.8 v 1.1 h -2.9 z"
           id="path399"
           inkscape:connector-curvature="0"
           style="fill:#80696b" /><path
           d="m 90.1,264.3 v -4.9 h 1 v 4.9 z"
           id="path401"
           inkscape:connector-curvature="0"
           style="fill:#80696b" /><path
           d="m 92.6,262.8 c 0,0.4 0.2,0.7 0.5,0.7 0.2,0 0.3,-0.1 0.4,-0.3 h 1 c -0.2,0.9 -0.8,1.2 -1.4,1.2 -0.8,0 -1.4,-0.7 -1.4,-1.9 0,-1.2 0.6,-1.9 1.4,-1.9 0.9,0 1.5,0.9 1.5,2.2 z m 0.9,-0.7 c 0,-0.3 -0.2,-0.6 -0.4,-0.6 -0.3,0 -0.5,0.2 -0.5,0.6 z"
           id="path403"
           inkscape:connector-curvature="0"
           style="fill:#80696b" /><path
           d="m 96.6,262.1 c 0,-0.2 0,-0.3 -0.1,-0.4 -0.1,-0.1 -0.1,-0.1 -0.3,-0.1 -0.4,0 -0.4,0.6 -0.4,1 0,0.5 0.1,0.9 0.4,0.9 0.3,0 0.4,-0.3 0.4,-0.5 h 1 c 0,0.5 -0.2,0.9 -0.5,1.2 -0.3,0.2 -0.6,0.3 -0.9,0.3 -0.8,0 -1.4,-0.6 -1.4,-1.9 0,-1.2 0.6,-1.9 1.4,-1.9 0.7,0 1.3,0.4 1.4,1.5 h -1 z"
           id="path405"
           inkscape:connector-curvature="0"
           style="fill:#80696b" /><path
           d="m 99.8,264.3 c -1.3,0.1 -1.5,0 -1.5,-1.3 v -1.5 h -0.4 v -0.8 h 0.4 v -1.1 h 1 v 1.1 h 0.5 v 0.8 h -0.5 v 1.3 c 0,0.3 0,0.4 0.3,0.4 h 0.2 z"
           id="path407"
           inkscape:connector-curvature="0"
           style="fill:#80696b" /><path
           d="m 100.3,260.7 h 0.9 v 0.7 0 c 0.1,-0.6 0.4,-0.8 0.8,-0.8 0,0 0.1,0 0.1,0 v 1.4 c -0.1,0 -0.1,0 -0.2,0 -0.4,0 -0.6,0.3 -0.6,1 v 1.2 h -1 z"
           id="path409"
           inkscape:connector-curvature="0"
           style="fill:#80696b" /><path
           d="m 102.5,259.2 h 1 v 1 h -1 z m 0,5.1 v -3.6 h 1 v 3.6 z"
           id="path411"
           inkscape:connector-curvature="0"
           style="fill:#80696b" /><path
           d="m 105.7,262.1 c 0,-0.2 0,-0.3 -0.1,-0.4 -0.1,-0.1 -0.1,-0.1 -0.3,-0.1 -0.4,0 -0.4,0.6 -0.4,1 0,0.5 0.1,0.9 0.4,0.9 0.3,0 0.4,-0.3 0.4,-0.5 h 1 c 0,0.5 -0.2,0.9 -0.5,1.2 -0.3,0.2 -0.6,0.3 -0.9,0.3 -0.8,0 -1.4,-0.6 -1.4,-1.9 0,-1.2 0.6,-1.9 1.4,-1.9 0.7,0 1.3,0.4 1.4,1.5 h -1 z"
           id="path413"
           inkscape:connector-curvature="0"
           style="fill:#80696b" /><path
           d="m 109,264.3 v -4.9 h 1.1 v 4.9 z"
           id="path415"
           inkscape:connector-curvature="0"
           style="fill:#80696b" /><path
           d="m 110.7,260.7 h 0.9 v 0.6 c 0.2,-0.4 0.5,-0.7 0.9,-0.7 0.7,0 1,0.6 1,1.5 v 2.1 h -1 v -1.9 c 0,-0.4 -0.1,-0.7 -0.4,-0.7 -0.3,0 -0.4,0.3 -0.4,0.7 v 1.8 h -1 z"
           id="path417"
           inkscape:connector-curvature="0"
           style="fill:#80696b" /><path
           d="m 115.8,264.3 v -0.5 c -0.2,0.4 -0.5,0.6 -0.8,0.6 -0.8,0 -1.1,-0.8 -1.1,-1.8 0,-1.2 0.5,-2 1.1,-2 0.3,0 0.5,0.1 0.8,0.5 v -1.7 h 1 v 4.9 z m -0.1,-1.8 c 0,-0.4 -0.1,-0.8 -0.4,-0.8 -0.3,0 -0.4,0.4 -0.4,0.8 0,0.4 0.1,0.8 0.4,0.8 0.3,0 0.4,-0.4 0.4,-0.8 z"
           id="path419"
           inkscape:connector-curvature="0"
           style="fill:#80696b" /><path
           d="M 119.9,264.3 H 119 v -0.5 c -0.3,0.5 -0.5,0.6 -0.9,0.6 -0.5,0 -0.9,-0.5 -0.9,-1.5 v -2.2 h 1 v 1.9 c 0,0.5 0.1,0.6 0.4,0.6 0.3,0 0.4,-0.3 0.4,-0.9 v -1.7 h 1 v 3.7 z"
           id="path421"
           inkscape:connector-curvature="0"
           style="fill:#80696b" /><path
           d="m 121.2,263.2 c 0,0.1 0,0.3 0.1,0.3 0.1,0.1 0.1,0.1 0.2,0.1 0.2,0 0.3,-0.1 0.3,-0.3 0,-0.6 -1.5,-0.1 -1.5,-1.5 0,-0.9 0.7,-1.2 1.2,-1.2 0.5,0 1.2,0.2 1.3,1.1 h -0.9 c 0,-0.1 0,-0.2 -0.1,-0.3 -0.1,-0.1 -0.1,-0.1 -0.2,-0.1 -0.2,0 -0.3,0.1 -0.3,0.3 0,0.5 1.6,0.2 1.6,1.5 0,0.7 -0.4,1.2 -1.4,1.2 -0.6,0 -1.2,-0.3 -1.3,-1.2 h 1 z"
           id="path423"
           inkscape:connector-curvature="0"
           style="fill:#80696b" /><path
           d="m 125,264.3 c -1.3,0.1 -1.5,0 -1.5,-1.3 v -1.5 h -0.4 v -0.8 h 0.4 v -1.1 h 1 v 1.1 h 0.5 v 0.8 h -0.5 v 1.3 c 0,0.3 0,0.4 0.3,0.4 h 0.2 z"
           id="path425"
           inkscape:connector-curvature="0"
           style="fill:#80696b" /><path
           d="m 125.5,260.7 h 0.9 v 0.7 0 c 0.1,-0.6 0.4,-0.8 0.8,-0.8 0,0 0.1,0 0.1,0 v 1.4 c -0.1,0 -0.1,0 -0.2,0 -0.4,0 -0.6,0.3 -0.6,1 v 1.2 h -1 z"
           id="path427"
           inkscape:connector-curvature="0"
           style="fill:#80696b" /><path
           d="m 127.7,259.2 h 1 v 1 h -1 z m 0,5.1 v -3.6 h 1 v 3.6 z"
           id="path429"
           inkscape:connector-curvature="0"
           style="fill:#80696b" /><path
           d="m 131,264.3 v -0.4 c -0.3,0.4 -0.6,0.5 -1,0.5 -0.5,0 -0.9,-0.3 -0.9,-1.1 0,-1.6 1.8,-0.9 1.8,-1.6 0,-0.3 -0.2,-0.3 -0.3,-0.3 -0.1,0 -0.3,0 -0.4,0.3 h -1 c 0,-0.8 0.4,-1.2 1.4,-1.2 1.2,0 1.3,0.6 1.3,1.5 v 1.7 c 0,0.2 0,0.3 0.1,0.5 v 0.1 z m -0.1,-1.6 c -0.3,0.2 -0.8,0.1 -0.8,0.6 0,0.2 0.1,0.3 0.3,0.3 0.4,0 0.5,-0.4 0.5,-0.9 z"
           id="path431"
           inkscape:connector-curvature="0"
           style="fill:#80696b" /><path
           d="m 132.5,264.3 v -4.9 h 1 v 4.9 z"
           id="path433"
           inkscape:connector-curvature="0"
           style="fill:#80696b" /><path
           d="m 98.2,269.4 c 0,-0.5 -0.3,-0.8 -0.6,-0.8 -0.4,0 -0.6,0.5 -0.6,1.4 0,0.7 0.1,1.3 0.7,1.3 0.4,0 0.5,-0.4 0.6,-0.8 h 1.1 c -0.1,1.3 -0.7,2 -1.7,2 -1.1,0 -1.8,-1 -1.8,-2.6 0,-1.6 0.8,-2.6 1.7,-2.6 1.1,0 1.7,0.7 1.7,2 h -1.1 z"
           id="path435"
           inkscape:connector-curvature="0"
           style="fill:#80696b" /><path
           d="m 101.1,268.8 c 0.9,0 1.4,0.7 1.4,1.9 0,1.3 -0.6,1.9 -1.4,1.9 -0.8,0 -1.4,-0.6 -1.4,-1.8 0,-1.3 0.5,-2 1.4,-2 z m -0.4,1.8 c 0,0.7 0.2,1 0.4,1 0.3,0 0.4,-0.3 0.4,-1 0,-0.5 -0.2,-0.9 -0.4,-0.9 -0.3,0 -0.4,0.5 -0.4,0.9 z"
           id="path437"
           inkscape:connector-curvature="0"
           style="fill:#80696b" /><path
           d="M 103,272.4 V 271 h 1 v 1.4 z"
           id="path439"
           inkscape:connector-curvature="0"
           style="fill:#80696b" /><path
           d="m 104.6,273 c 0.1,0 0.3,-0.1 0.3,-0.2 0.1,-0.1 0.1,-0.2 0.1,-0.4 h -0.5 V 271 h 1 v 1.2 c 0,0.9 -0.4,1.4 -1,1.4 V 273 Z"
           id="path441"
           inkscape:connector-curvature="0"
           style="fill:#80696b" /><path
           d="m 107.9,272.4 v -4.9 h 1.1 v 3.8 h 1.6 v 1.1 z"
           id="path443"
           inkscape:connector-curvature="0"
           style="fill:#80696b" /><path
           d="m 112.6,272.4 c -1.3,0.1 -1.5,0 -1.5,-1.3 v -1.5 h -0.4 v -0.8 h 0.4 v -1.1 h 1 v 1.1 h 0.5 v 0.8 h -0.5 v 1.3 c 0,0.3 0,0.4 0.3,0.4 h 0.2 z"
           id="path445"
           inkscape:connector-curvature="0"
           style="fill:#80696b" /><path
           d="M 115,272.4 V 272 c -0.2,0.4 -0.5,0.6 -0.8,0.6 -0.8,0 -1.1,-0.8 -1.1,-1.8 0,-1.2 0.5,-2 1.1,-2 0.3,0 0.5,0.1 0.8,0.5 v -1.7 h 1 v 4.9 h -1 z m -0.1,-1.7 c 0,-0.4 -0.1,-0.8 -0.4,-0.8 -0.3,0 -0.4,0.4 -0.4,0.8 0,0.4 0.1,0.8 0.4,0.8 0.3,0 0.4,-0.4 0.4,-0.8 z"
           id="path447"
           inkscape:connector-curvature="0"
           style="fill:#80696b" /><path
           d="M 116.4,272.4 V 271 h 1 v 1.4 z"
           id="path449"
           inkscape:connector-curvature="0"
           style="fill:#80696b" /><path
           d="m 121.6,272.4 h -1 v -2.8 h -0.8 v -1 c 0.5,0 0.9,-0.3 1,-1.1 h 0.8 z"
           id="path451"
           inkscape:connector-curvature="0"
           style="fill:#80696b" /><path
           d="m 123.7,271.2 c 0.1,0.3 0.2,0.4 0.4,0.4 0.4,0 0.5,-0.5 0.5,-1.1 -0.3,0.3 -0.5,0.3 -0.8,0.3 -0.8,0 -1.1,-0.9 -1.1,-1.6 0,-1.2 0.6,-1.7 1.4,-1.7 1,0 1.6,0.8 1.6,2.5 0,1.5 -0.5,2.5 -1.5,2.5 -0.6,0 -1.2,-0.3 -1.4,-1.3 z m 0.9,-2 c 0,-0.3 -0.2,-0.6 -0.5,-0.6 -0.3,0 -0.4,0.3 -0.4,0.7 0,0.4 0.2,0.6 0.4,0.6 0.3,0 0.5,-0.3 0.5,-0.7 z"
           id="path453"
           inkscape:connector-curvature="0"
           style="fill:#80696b" /><path
           d="m 126.9,271.2 c 0.1,0.3 0.2,0.4 0.4,0.4 0.4,0 0.5,-0.5 0.5,-1.1 -0.3,0.3 -0.5,0.3 -0.8,0.3 -0.8,0 -1.1,-0.9 -1.1,-1.6 0,-1.2 0.6,-1.7 1.4,-1.7 1,0 1.6,0.8 1.6,2.5 0,1.5 -0.5,2.5 -1.5,2.5 -0.6,0 -1.2,-0.3 -1.4,-1.3 z m 0.9,-2 c 0,-0.3 -0.2,-0.6 -0.5,-0.6 -0.3,0 -0.4,0.3 -0.4,0.7 0,0.4 0.2,0.6 0.4,0.6 0.3,0 0.5,-0.3 0.5,-0.7 z"
           id="path455"
           inkscape:connector-curvature="0"
           style="fill:#80696b" /><path
           d="m 130.1,270.8 c 0,0.2 0,0.4 0.1,0.5 0.1,0.1 0.2,0.2 0.4,0.2 0.3,0 0.4,-0.3 0.4,-0.6 0,-0.6 -0.4,-0.5 -0.6,-0.5 v -0.8 c 0.2,0 0.6,0 0.6,-0.5 0,-0.3 -0.2,-0.4 -0.4,-0.4 -0.2,0 -0.4,0.2 -0.4,0.5 h -0.9 c 0,-1.1 0.7,-1.6 1.4,-1.6 0.8,0 1.3,0.5 1.3,1.3 0,0.4 -0.1,0.8 -0.4,0.9 0.3,0.2 0.5,0.5 0.5,1 0,1.1 -0.6,1.7 -1.5,1.7 -0.8,0 -1.4,-0.6 -1.4,-1.8 h 0.9 z"
           id="path457"
           inkscape:connector-curvature="0"
           style="fill:#80696b" /><path
           d="M 132.5,272.4 V 271 h 1 v 1.4 z"
           id="path459"
           inkscape:connector-curvature="0"
           style="fill:#80696b" /><path
           d="m 83.7,280.6 1.2,-4.9 h 1.2 l 1.2,4.9 H 86.2 L 86.1,280 H 85 l -0.1,0.6 z m 1.8,-3.4 -0.4,1.8 h 0.7 z"
           id="path461"
           inkscape:connector-curvature="0"
           style="fill:#80696b" /><path
           d="m 87.7,280.6 v -4.9 h 1 v 4.9 z"
           id="path463"
           inkscape:connector-curvature="0"
           style="fill:#80696b" /><path
           d="m 89.3,280.6 v -4.9 h 1 v 4.9 z"
           id="path465"
           inkscape:connector-curvature="0"
           style="fill:#80696b" /><path
           d="m 92.5,277 h 0.9 v 0.7 0 c 0.1,-0.6 0.4,-0.8 0.8,-0.8 0,0 0.1,0 0.1,0 v 1.4 c -0.1,0 -0.1,0 -0.2,0 -0.4,0 -0.6,0.3 -0.6,1 v 1.2 h -1 z"
           id="path467"
           inkscape:connector-curvature="0"
           style="fill:#80696b" /><path
           d="m 94.7,275.6 h 1 v 1 h -1 z m 0,5 V 277 h 1 v 3.6 z"
           id="path469"
           inkscape:connector-curvature="0"
           style="fill:#80696b" /><path
           d="m 97.3,280.8 c 0,0 0,0.1 0.1,0.2 0,0.1 0.1,0.1 0.2,0.1 0.3,0 0.4,-0.2 0.4,-0.7 V 280 c -0.1,0.2 -0.4,0.4 -0.7,0.4 -0.7,0 -1.1,-0.8 -1.1,-1.7 0,-0.9 0.3,-1.8 1.1,-1.8 0.3,0 0.6,0.2 0.8,0.6 V 277 H 99 v 2.9 c 0,1.1 -0.1,1.9 -1.3,1.9 -0.9,0 -1.3,-0.5 -1.3,-1 z m -0.1,-2 c 0,0.4 0.1,0.7 0.4,0.7 0.3,0 0.4,-0.4 0.4,-0.7 0,-0.4 -0.1,-0.8 -0.4,-0.8 -0.3,-0.1 -0.4,0.3 -0.4,0.8 z"
           id="path471"
           inkscape:connector-curvature="0"
           style="fill:#80696b" /><path
           d="m 99.4,275.7 h 1 v 1.8 c 0.2,-0.4 0.4,-0.6 0.8,-0.6 0.7,0 1,0.6 1,1.5 v 2.1 h -1 v -1.9 c 0,-0.4 -0.1,-0.7 -0.4,-0.7 -0.3,0 -0.4,0.3 -0.4,0.7 v 1.8 h -1 z"
           id="path473"
           inkscape:connector-curvature="0"
           style="fill:#80696b" /><path
           d="m 104.3,280.6 c -1.3,0.1 -1.5,0 -1.5,-1.3 v -1.5 h -0.4 V 277 h 0.4 v -1.1 h 1 v 1.1 h 0.5 v 0.8 h -0.5 v 1.3 c 0,0.3 0,0.4 0.3,0.4 h 0.2 z"
           id="path475"
           inkscape:connector-curvature="0"
           style="fill:#80696b" /><path
           d="m 105.7,279.5 c 0,0.1 0,0.3 0.1,0.3 0.1,0.1 0.1,0.1 0.2,0.1 0.2,0 0.3,-0.1 0.3,-0.3 0,-0.6 -1.5,-0.1 -1.5,-1.5 0,-0.9 0.7,-1.2 1.2,-1.2 0.5,0 1.2,0.2 1.3,1.1 h -0.9 c 0,-0.1 0,-0.2 -0.1,-0.3 -0.1,-0.1 -0.1,-0.1 -0.2,-0.1 -0.2,0 -0.3,0.1 -0.3,0.3 0,0.5 1.6,0.2 1.6,1.5 0,0.7 -0.4,1.2 -1.4,1.2 -0.6,0 -1.2,-0.3 -1.3,-1.2 h 1 z"
           id="path477"
           inkscape:connector-curvature="0"
           style="fill:#80696b" /><path
           d="m 109.4,277 h 0.9 v 0.7 0 c 0.1,-0.6 0.4,-0.8 0.8,-0.8 0,0 0.1,0 0.1,0 v 1.4 c -0.1,0 -0.1,0 -0.2,0 -0.4,0 -0.6,0.3 -0.6,1 v 1.2 h -1 z"
           id="path479"
           inkscape:connector-curvature="0"
           style="fill:#80696b" /><path
           d="m 112.3,279.1 c 0,0.4 0.2,0.7 0.5,0.7 0.2,0 0.3,-0.1 0.4,-0.3 h 1 c -0.2,0.9 -0.8,1.2 -1.4,1.2 -0.8,0 -1.4,-0.7 -1.4,-1.9 0,-1.2 0.6,-1.9 1.4,-1.9 0.9,0 1.5,0.9 1.5,2.2 z m 1,-0.7 c 0,-0.3 -0.2,-0.6 -0.4,-0.6 -0.3,0 -0.5,0.2 -0.5,0.6 z"
           id="path481"
           inkscape:connector-curvature="0"
           style="fill:#80696b" /><path
           d="m 115.5,279.5 c 0,0.1 0,0.3 0.1,0.3 0.1,0.1 0.1,0.1 0.2,0.1 0.2,0 0.3,-0.1 0.3,-0.3 0,-0.6 -1.5,-0.1 -1.5,-1.5 0,-0.9 0.7,-1.2 1.2,-1.2 0.5,0 1.2,0.2 1.3,1.1 h -0.9 c 0,-0.1 0,-0.2 -0.1,-0.3 -0.1,-0.1 -0.1,-0.1 -0.2,-0.1 -0.2,0 -0.3,0.1 -0.3,0.3 0,0.5 1.6,0.2 1.6,1.5 0,0.7 -0.4,1.2 -1.4,1.2 -0.6,0 -1.2,-0.3 -1.3,-1.2 h 1 z"
           id="path483"
           inkscape:connector-curvature="0"
           style="fill:#80696b" /><path
           d="m 118.5,279.1 c 0,0.4 0.2,0.7 0.5,0.7 0.2,0 0.3,-0.1 0.4,-0.3 h 1 c -0.2,0.9 -0.8,1.2 -1.4,1.2 -0.8,0 -1.4,-0.7 -1.4,-1.9 0,-1.2 0.6,-1.9 1.4,-1.9 0.9,0 1.5,0.9 1.5,2.2 z m 0.9,-0.7 c 0,-0.3 -0.2,-0.6 -0.4,-0.6 -0.3,0 -0.5,0.2 -0.5,0.6 z"
           id="path485"
           inkscape:connector-curvature="0"
           style="fill:#80696b" /><path
           d="m 120.8,277 h 0.9 v 0.7 0 c 0.1,-0.6 0.4,-0.8 0.8,-0.8 0,0 0.1,0 0.1,0 v 1.4 c -0.1,0 -0.1,0 -0.2,0 -0.4,0 -0.6,0.3 -0.6,1 v 1.2 h -1 z"
           id="path487"
           inkscape:connector-curvature="0"
           style="fill:#80696b" /><path
           d="m 122.9,277 h 1 l 0.4,2.3 0.4,-2.3 h 1 l -0.9,3.6 h -1.1 z"
           id="path489"
           inkscape:connector-curvature="0"
           style="fill:#80696b" /><path
           d="m 126.9,279.1 c 0,0.4 0.2,0.7 0.5,0.7 0.2,0 0.3,-0.1 0.4,-0.3 h 1 c -0.2,0.9 -0.8,1.2 -1.4,1.2 -0.8,0 -1.4,-0.7 -1.4,-1.9 0,-1.2 0.6,-1.9 1.4,-1.9 0.9,0 1.5,0.9 1.5,2.2 z m 0.9,-0.7 c 0,-0.3 -0.2,-0.6 -0.4,-0.6 -0.3,0 -0.5,0.2 -0.5,0.6 z"
           id="path491"
           inkscape:connector-curvature="0"
           style="fill:#80696b" /><path
           d="m 131.1,280.6 v -0.5 c -0.2,0.4 -0.5,0.6 -0.8,0.6 -0.8,0 -1.1,-0.8 -1.1,-1.8 0,-1.2 0.5,-2 1.1,-2 0.3,0 0.5,0.1 0.8,0.5 v -1.7 h 1 v 4.9 z m -0.1,-1.7 c 0,-0.4 -0.1,-0.8 -0.4,-0.8 -0.3,0 -0.4,0.4 -0.4,0.8 0,0.4 0.1,0.8 0.4,0.8 0.3,0 0.4,-0.4 0.4,-0.8 z"
           id="path493"
           inkscape:connector-curvature="0"
           style="fill:#80696b" /><path
           d="m 132.5,280.6 v -1.4 h 1 v 1.4 z"
           id="path495"
           inkscape:connector-curvature="0"
           style="fill:#80696b" /><g
           id="g499"><path
             d="m 48.6,261.5 c 0,-1.7 1.3,-3 3,-3 1.7,0 3,1.4 3,3 0,1.7 -1.4,3 -3,3 -1.7,0 -3,-1.3 -3,-3 z m 5.2,0 c 0,-1.4 -0.9,-2.3 -2.2,-2.3 -1.3,0 -2.2,1 -2.2,2.3 0,1.4 0.9,2.3 2.2,2.3 1.3,0 2.2,-1 2.2,-2.3 z m -1.4,-0.6 c -0.1,-0.4 -0.4,-0.6 -0.8,-0.6 -0.6,0 -0.9,0.5 -0.9,1.1 0,0.6 0.3,1.2 0.9,1.2 0.4,0 0.7,-0.2 0.7,-0.6 H 53 c -0.1,0.7 -0.7,1.2 -1.4,1.2 -1,0 -1.7,-0.8 -1.7,-1.7 0,-1 0.6,-1.8 1.7,-1.8 0.7,0 1.3,0.4 1.4,1.1 h -0.6 z"
             id="path497"
             inkscape:connector-curvature="0"
             style="fill:#80696b" /></g></g><g
         id="g529"><g
           id="g527"><path
             d="m 256.5,209.9 c 0,0 3,0 3.2,0 0.4,0 0.4,-0.2 0.4,-0.6 0,-1 0,-2.8 0,-3.2 0,-0.4 0.5,-0.7 0.7,-0.7 0.4,0 2.4,0 2.7,0 0.4,0 0.8,0.2 0.8,0.8 0,0.7 0,15.2 0,15.6 0,0.4 -0.3,0.7 -0.7,0.7 -0.4,0 -6.3,0 -7.2,0 -0.9,0 -1.9,-1 -1.9,-2.1 0,-1.1 0,-7.2 0,-8.4 -0.1,-1.2 0.9,-2.1 2,-2.1 z m -1.4,2 c 0,0.7 0,7.7 0,8.5 0,0.8 0.8,1.3 1.3,1.3 0.6,0 6.4,0 6.6,0 0.2,0 0.4,-0.1 0.4,-0.4 0,-0.4 0,-14.6 0,-14.8 0,-0.3 -0.1,-0.4 -0.4,-0.4 -0.2,0 -1.6,0 -1.9,0 -0.3,0 -0.4,0.2 -0.4,0.4 0,0.3 0,2.8 0,3.2 0,0.5 -0.2,0.8 -0.7,0.8 -0.4,0 -3.5,0 -3.5,0 -0.7,0.1 -1.4,0.7 -1.4,1.4 z"
             id="path503"
             inkscape:connector-curvature="0"
             style="clip-rule:evenodd;fill:#80696b;fill-rule:evenodd" /><path
             d="m 259.2,220.7 c -0.4,0 -0.8,-0.2 -1.1,-0.5 -0.3,-0.3 -0.5,-0.7 -0.5,-1.1 v -5.8 c 0,-0.4 0.2,-0.8 0.5,-1.1 0.3,-0.3 0.7,-0.5 1.1,-0.5 0.4,0 0.8,0.2 1.1,0.5 0.3,0.3 0.5,0.7 0.5,1.1 v 5.8 c 0,0.9 -0.7,1.6 -1.6,1.6 z m 0,-0.7 c 0.5,0 0.8,-0.4 0.8,-0.8 v -5.8 c 0,-0.5 -0.4,-0.8 -0.8,-0.8 -0.4,0 -0.8,0.4 -0.8,0.8 v 5.8 c 0,0.4 0.3,0.8 0.8,0.8 z"
             id="path505"
             inkscape:connector-curvature="0"
             style="clip-rule:evenodd;fill:#80696b;fill-rule:evenodd" /><path
             d="m 266,222.5 c -0.4,0 -0.7,-0.3 -0.7,-0.7 v -11.2 c 0,-0.4 0.3,-0.7 0.7,-0.7 h 2.7 c 0.4,0 0.7,0.3 0.7,0.7 v 11.2 c 0,0.4 -0.3,0.7 -0.7,0.7 z m 2.3,-0.7 c 0.2,0 0.3,-0.1 0.3,-0.3 v -10.6 c 0,-0.2 -0.1,-0.3 -0.3,-0.3 h -2.1 c -0.2,0 -0.3,0.1 -0.3,0.3 v 10.6 c 0,0.2 0.1,0.3 0.3,0.3 z"
             id="path507"
             inkscape:connector-curvature="0"
             style="clip-rule:evenodd;fill:#80696b;fill-rule:evenodd" /><path
             d="m 278.6,209.9 c 0.5,0 0.8,0.2 0.8,0.7 0,0.5 0,1.3 0,2 0,0.7 -0.3,0.9 -0.7,0.9 -0.5,0 -3,0 -4,0 -0.6,0 -0.7,1 0,1 0.7,0 1.6,0 3,0 1.4,0 2.3,1 2.3,2.2 0,1.2 0,2.8 0,3.8 0,0.9 -0.6,2.2 -2,2.2 -1.4,0 -6,0 -6.5,0 -0.5,0 -0.8,-0.2 -0.8,-0.7 0,-0.5 0,-1.4 0,-2 0,-0.6 0.3,-0.8 0.8,-0.8 0.5,0 3.5,0 4.3,0 0.8,0 0.7,-1 0,-1 -0.5,0 -1.7,0 -2.9,0 -1.2,0 -2.2,-1.1 -2.2,-2.3 0,-1.3 0,-2.2 0,-3.5 0,-1.2 0.8,-2.3 2.2,-2.3 h 5.7 z m 0,2.4 c 0,-0.4 0,-1.2 0,-1.4 0,-0.2 -0.1,-0.4 -0.4,-0.4 -0.3,0 -4.9,0 -5.6,0 -0.7,0 -1.4,0.7 -1.4,1.5 0,0.8 0,2.9 0,3.7 0,0.8 0.6,1.5 1.5,1.5 1,0 2.3,0 2.8,0 1.7,0 1.6,2.4 0.1,2.4 -1.8,0 -3.8,0 -4.1,0 -0.3,0 -0.3,0.2 -0.3,0.4 0,0.2 0,1.2 0,1.4 0,0.2 0.1,0.3 0.4,0.3 0.3,0 5.3,0 6,0 0.8,0 1.3,-0.7 1.3,-1.5 0,-0.8 0,-3 0,-3.9 0,-0.9 -0.9,-1.3 -1.3,-1.3 -0.4,0 -2.5,0 -3,0 -1.8,0 -1.7,-2.5 0,-2.5 0.6,0 3.5,0 3.7,0 0.2,0.2 0.3,0 0.3,-0.2 z"
             id="path509"
             inkscape:connector-curvature="0"
             style="clip-rule:evenodd;fill:#80696b;fill-rule:evenodd" /><path
             d="m 289.9,217.8 v 2.9 c 0,1.1 -0.9,1.9 -1.9,1.9 h -5.2 c -1.1,0 -1.9,-0.9 -1.9,-1.9 v -8.8 c 0,-1.1 0.9,-1.9 1.9,-1.9 h 5.2 c 1.1,0 1.9,0.9 1.9,1.9 v 2.7 c 0,0.8 -0.1,1 -0.7,1 -0.6,0 -2,0 -2.4,0 -0.5,0 -0.7,-0.3 -0.7,-0.7 0,-0.5 0,-1 0,-1.7 0,-0.8 -1.3,-0.8 -1.3,0 0,0.8 0,5.6 0,6.2 0,0.8 1.3,0.9 1.3,0 0,-0.8 0,-1.3 0,-1.6 0,-0.3 0.3,-0.7 0.6,-0.7 0.3,0 2.1,0 2.5,0 0.5,-0.1 0.7,0.1 0.7,0.7 z m -2.7,-3.1 c 0.3,0 1.4,0 1.7,0 0.3,0 0.3,-0.2 0.3,-0.6 0,-0.3 0,-1.5 0,-2.2 0,-0.8 -0.6,-1.4 -1.6,-1.4 -1.1,0 -3.7,0 -4.6,0 -0.9,0 -1.4,0.8 -1.4,1.5 0,0.7 0,7.1 0,8 0,0.9 0.4,1.7 1.5,1.7 1.1,0 3.6,0 4.6,0 1,0 1.6,-0.5 1.6,-1.7 0,-1.1 0,-1.8 0,-2.1 0,-0.3 -0.3,-0.3 -0.5,-0.3 -0.2,0 -1.3,0 -1.6,0 -0.3,0 -0.3,0.1 -0.3,0.5 0,0.6 0,-0.3 0,1.1 0,1.9 -2.8,1.8 -2.8,-0.1 0,-1.8 0,-4.7 0,-6.1 0,-1.8 2.8,-1.8 2.8,0 0,0.6 0,1 0,1.2 0,0.2 0.1,0.5 0.3,0.5 z"
             id="path511"
             inkscape:connector-curvature="0"
             style="clip-rule:evenodd;fill:#80696b;fill-rule:evenodd" /><path
             d="m 265.3,207.2 c 0,-0.7 0,-1.1 0.1,-1.3 0.1,-0.3 0.4,-0.6 1.5,-0.6 1.1,0 1.4,0.2 1.5,0.5 0.1,0.3 0.1,0.9 0.1,0.9 h -0.9 c 0,0 0,-0.3 0,-0.3 0,-0.2 -0.1,-0.2 -0.7,-0.2 -0.5,0 -0.6,0.1 -0.6,0.3 0,0.2 0,1.3 0,1.4 0,0.2 0.1,0.3 0.6,0.3 0.6,0 0.7,0 0.7,-0.3 0,-0.2 0,-0.3 0,-0.3 h 0.9 c 0,0 0,0.4 0,0.6 0,0.3 0,0.7 -1.6,0.7 -1.5,0 -1.5,-0.4 -1.5,-0.6 -0.1,-0.1 -0.1,-1.1 -0.1,-1.1 z"
             id="path513"
             inkscape:connector-curvature="0"
             style="clip-rule:evenodd;fill:#80696b;fill-rule:evenodd" /><path
             d="m 284.1,207.2 c 0,-0.7 0,-1.1 0.1,-1.3 0.1,-0.3 0.4,-0.6 1.5,-0.6 1.1,0 1.4,0.2 1.5,0.5 0.1,0.3 0.1,0.9 0.1,0.9 h -0.9 c 0,0 0,-0.3 0,-0.3 0,-0.2 -0.1,-0.2 -0.7,-0.2 -0.5,0 -0.6,0.1 -0.6,0.3 0,0.2 0,1.3 0,1.4 0,0.2 0.1,0.3 0.6,0.3 0.6,0 0.7,0 0.7,-0.3 0,-0.2 0,-0.3 0,-0.3 h 0.9 c 0,0 0,0.4 0,0.6 0,0.3 0,0.7 -1.6,0.7 -1.5,0 -1.5,-0.4 -1.5,-0.6 -0.1,-0.1 -0.1,-1.1 -0.1,-1.1 z"
             id="path515"
             inkscape:connector-curvature="0"
             style="clip-rule:evenodd;fill:#80696b;fill-rule:evenodd" /><path
             d="m 270.5,208.9 c 1.5,0 1.5,-0.4 1.5,-0.6 0,-0.2 0.1,-1.1 0.1,-1.1 0,-0.7 0,-1.1 -0.1,-1.3 -0.1,-0.3 -0.4,-0.5 -1.5,-0.5 -1.1,0 -1.5,0.3 -1.5,0.6 0,0.2 -0.1,0.6 -0.1,1.3 0,0 0,0.9 0.1,1.1 0,0.2 0,0.5 1.5,0.5 z m 0,-0.7 c -0.6,0 -0.6,-0.1 -0.6,-0.3 0,-0.2 0,-1.2 0,-1.4 0,-0.2 0.1,-0.3 0.6,-0.3 0.5,0 0.7,0.1 0.7,0.2 0,0.1 0,0.3 0,0.3 v 0 1.1 c 0,0 0,0.1 0,0.1 0,0.2 -0.2,0.3 -0.7,0.3 z"
             id="path517"
             inkscape:connector-curvature="0"
             style="clip-rule:evenodd;fill:#80696b;fill-rule:evenodd" /><polygon
             points="272.6,205.4 273.9,205.4 274.8,208 275.7,205.4 277,205.4 277,208.9 276.1,208.9 276.1,206.4 275.3,208.9 274.4,208.9 273.5,206.4 273.5,208.9 272.6,208.9 "
             id="polygon519"
             style="clip-rule:evenodd;fill:#80696b;fill-rule:evenodd" /><polygon
             points="288.3,206.3 288.3,208.9 289.2,208.9 289.2,206.3 290,206.3 290,205.4 287.5,205.4 287.5,206.3 "
             id="polygon521"
             style="clip-rule:evenodd;fill:#80696b;fill-rule:evenodd" /><path
             d="m 283.1,208.9 h 0.9 l -1,-3.5 h -1.3 l -1,3.5 h 0.9 l 0.2,-0.7 h 1.1 z m -1.1,-1.3 0.4,-1.4 0.4,1.4 z"
             id="path523"
             inkscape:connector-curvature="0"
             style="clip-rule:evenodd;fill:#80696b;fill-rule:evenodd" /><path
             d="m 280.7,207.3 c -0.1,0.4 -0.3,0.6 -0.7,0.7 -0.4,0.1 -1.3,0.1 -1.3,0.1 v 0.8 h -0.9 v -3.5 h 0.9 c 0,0 0.5,0 0.8,0 0.3,0 0.7,0 0.9,0.2 0.3,0.2 0.4,0.6 0.4,0.8 -0.1,0.1 -0.1,0.9 -0.1,0.9 z m -1.2,0 c 0.3,0 0.3,-0.2 0.3,-0.3 0,-0.1 0,-0.2 0,-0.4 0,-0.3 -0.2,-0.3 -0.4,-0.3 -0.2,0 -0.8,0 -0.8,0 v 1 c 0.1,0 0.6,0 0.9,0 z"
             id="path525"
             inkscape:connector-curvature="0"
             style="clip-rule:evenodd;fill:#80696b;fill-rule:evenodd" /></g></g></g></g></svg>