<?xml version="1.0" encoding="UTF-8" standalone="no"?>
<svg
   xmlns:dc="http://purl.org/dc/elements/1.1/"
   xmlns:cc="http://creativecommons.org/ns#"
   xmlns:rdf="http://www.w3.org/1999/02/22-rdf-syntax-ns#"
   xmlns:svg="http://www.w3.org/2000/svg"
   xmlns="http://www.w3.org/2000/svg"
   viewBox="0 0 938.78003 582.09003"
   height="582.09003"
   width="938.78003"
   xml:space="preserve"
   version="1.1"
   id="svg2"><metadata
     id="metadata8"><rdf:RDF><cc:Work
         rdf:about=""><dc:format>image/svg+xml</dc:format><dc:type
           rdf:resource="http://purl.org/dc/dcmitype/StillImage" /><dc:title></dc:title></cc:Work></rdf:RDF></metadata><defs
     id="defs6"><clipPath
       id="clipPath16"
       clipPathUnits="userSpaceOnUse"><path
         id="path18"
         d="m 0,465.672 751.024,0 L 751.024,0 0,0 0,465.672 Z" /></clipPath></defs><g
     transform="matrix(1.25,0,0,-1.25,0,582.09)"
     id="g10"><g
       id="g12"><g
         clip-path="url(#clipPath16)"
         id="g14"><g
           transform="translate(739.5266,0)"
           id="g20"><path
             id="path22"
             style="fill:#3a3742;fill-opacity:1;fill-rule:nonzero;stroke:none"
             d="m 0,0 c 12.421,0 11.481,1.631 11.481,7.078 l 0,450.933 c 0,5.998 -10.819,7.661 -22.962,7.661 l -705.068,0 c -12.142,0 -22.961,-1.711 -22.961,-7.661 l 0,-450.933 C -739.51,1.631 -740.45,0 -728.03,0 L 0,0 Z" /></g><g
           transform="translate(652.3839,6.9732)"
           id="g24"><path
             id="path26"
             style="fill:#f05953;fill-opacity:1;fill-rule:nonzero;stroke:none"
             d="m 0,0 -10.94,0.073 c 16.251,36.13 89.585,199.165 95.618,212.42 7.578,16.65 11.499,27.903 13.945,45.986 l 0,-24.398 C 96.177,215.998 92.256,204.745 84.678,188.095 78.81,175.203 28.638,63.674 0,0" /></g><g
           transform="translate(663.405,6.8284)"
           id="g28"><path
             id="path30"
             style="fill:#fded0f;fill-opacity:1;fill-rule:nonzero;stroke:none"
             d="m 0,0 -11.017,0.143 c 29.08,64.643 80.334,178.561 84.674,188.097 7.577,16.65 11.498,27.903 13.945,45.985 l 0,-24.647 C 85.155,191.496 81.235,180.242 73.657,163.592 68.487,152.233 28.925,64.305 0,0" /></g><g
           transform="translate(674.4409,6.7633)"
           id="g32"><path
             id="path34"
             style="fill:#79c043;fill-opacity:1;fill-rule:nonzero;stroke:none"
             d="m 0,0 -11.198,-0.296 c 28.938,64.336 68.64,152.573 73.819,163.953 7.578,16.651 11.499,27.904 13.945,45.987 l 0.017,-24.478 C 74.137,167.012 70.216,155.746 62.621,139.058 58.085,129.093 27.073,60.182 0,0" /></g><g
           transform="translate(674.4409,6.7633)"
           id="g36"><path
             id="path38"
             style="fill:#6cc1ec;fill-opacity:1;fill-rule:nonzero;stroke:none"
             d="m 0,0 c 27.073,60.182 58.085,129.093 62.621,139.058 7.595,16.688 11.516,27.954 13.962,46.108 l 0,-24.591 C 74.137,142.422 70.216,131.156 62.621,114.468 58.688,105.827 34.847,52.864 10.93,-0.296 L 0,0 Z" /></g><g
           transform="translate(339.1494,247.8556)"
           id="g40"><path
             id="path42"
             style="fill:#b3bbb9;fill-opacity:1;fill-rule:nonzero;stroke:none"
             d="m 0,0 -44.884,0 c -1.442,0 -2.61,1.169 -2.61,2.61 l 0,30.229 c 0,1.442 1.168,2.61 2.61,2.61 l 44.884,0 c 1.442,0 2.61,-1.168 2.61,-2.61 L 2.61,2.61 C 2.61,1.169 1.442,0 0,0" /></g><g
           transform="translate(272.7954,247.8556)"
           id="g44"><path
             id="path46"
             style="fill:#b3bbb9;fill-opacity:1;fill-rule:nonzero;stroke:none"
             d="m 0,0 -44.884,0 c -1.442,0 -2.61,1.169 -2.61,2.61 l 0,30.229 c 0,1.442 1.168,2.61 2.61,2.61 l 44.884,0 c 1.441,0 2.61,-1.168 2.61,-2.61 L 2.61,2.61 C 2.61,1.169 1.441,0 0,0" /></g><g
           transform="translate(206.4414,247.8556)"
           id="g48"><path
             id="path50"
             style="fill:#b3bbb9;fill-opacity:1;fill-rule:nonzero;stroke:none"
             d="m 0,0 -44.884,0 c -1.442,0 -2.61,1.169 -2.61,2.61 l 0,30.229 c 0,1.442 1.168,2.61 2.61,2.61 l 44.884,0 c 1.442,0 2.61,-1.168 2.61,-2.61 L 2.61,2.61 C 2.61,1.169 1.442,0 0,0" /></g><g
           transform="translate(140.0874,247.8556)"
           id="g52"><path
             id="path54"
             style="fill:#b3bbb9;fill-opacity:1;fill-rule:nonzero;stroke:none"
             d="m 0,0 -44.884,0 c -1.442,0 -2.61,1.169 -2.61,2.61 l 0,30.229 c 0,1.442 1.168,2.61 2.61,2.61 l 44.884,0 c 1.441,0 2.61,-1.168 2.61,-2.61 L 2.61,2.61 C 2.61,1.169 1.441,0 0,0" /></g><g
           transform="translate(73.7334,247.8556)"
           id="g56"><path
             id="path58"
             style="fill:#b3bbb9;fill-opacity:1;fill-rule:nonzero;stroke:none"
             d="m 0,0 -44.884,0 c -1.442,0 -2.61,1.169 -2.61,2.61 l 0,30.229 c 0,1.442 1.168,2.61 2.61,2.61 l 44.884,0 c 1.441,0 2.61,-1.168 2.61,-2.61 L 2.61,2.61 C 2.61,1.169 1.441,0 0,0" /></g><g
           transform="translate(405.5035,247.8556)"
           id="g60"><path
             id="path62"
             style="fill:#b3bbb9;fill-opacity:1;fill-rule:nonzero;stroke:none"
             d="m 0,0 -44.884,0 c -1.442,0 -2.61,1.169 -2.61,2.61 l 0,30.229 c 0,1.442 1.168,2.61 2.61,2.61 l 44.884,0 c 1.441,0 2.61,-1.168 2.61,-2.61 L 2.61,2.61 C 2.61,1.169 1.441,0 0,0" /></g><g
           transform="translate(471.8575,247.8556)"
           id="g64"><path
             id="path66"
             style="fill:#b3bbb9;fill-opacity:1;fill-rule:nonzero;stroke:none"
             d="m 0,0 -44.885,0 c -1.441,0 -2.609,1.169 -2.609,2.61 l 0,30.229 c 0,1.442 1.168,2.61 2.609,2.61 l 44.885,0 c 1.441,0 2.61,-1.168 2.61,-2.61 L 2.61,2.61 C 2.61,1.169 1.441,0 0,0" /></g><g
           transform="translate(538.2115,247.8556)"
           id="g68"><path
             id="path70"
             style="fill:#b3bbb9;fill-opacity:1;fill-rule:nonzero;stroke:none"
             d="m 0,0 -44.884,0 c -1.442,0 -2.61,1.169 -2.61,2.61 l 0,30.229 c 0,1.442 1.168,2.61 2.61,2.61 l 44.884,0 c 1.441,0 2.61,-1.168 2.61,-2.61 L 2.61,2.61 C 2.61,1.169 1.441,0 0,0" /></g><g
           transform="translate(604.5656,247.8556)"
           id="g72"><path
             id="path74"
             style="fill:#b3bbb9;fill-opacity:1;fill-rule:nonzero;stroke:none"
             d="m 0,0 -44.885,0 c -1.441,0 -2.61,1.169 -2.61,2.61 l 0,30.229 c 0,1.442 1.169,2.61 2.61,2.61 l 44.885,0 c 1.441,0 2.61,-1.168 2.61,-2.61 L 2.61,2.61 C 2.61,1.169 1.441,0 0,0" /></g><g
           transform="translate(670.9195,247.8556)"
           id="g76"><path
             id="path78"
             style="fill:#b3bbb9;fill-opacity:1;fill-rule:nonzero;stroke:none"
             d="m 0,0 -44.884,0 c -1.442,0 -2.61,1.169 -2.61,2.61 l 0,30.229 c 0,1.442 1.168,2.61 2.61,2.61 l 44.884,0 c 1.442,0 2.61,-1.168 2.61,-2.61 L 2.61,2.61 C 2.61,1.169 1.442,0 0,0" /></g><g
           transform="translate(371.8362,183.633)"
           id="g80"><path
             id="path82"
             style="fill:#b3bbb9;fill-opacity:1;fill-rule:nonzero;stroke:none"
             d="m 0,0 -44.884,0 c -1.442,0 -2.61,1.169 -2.61,2.61 l 0,30.229 c 0,1.442 1.168,2.61 2.61,2.61 l 44.884,0 c 1.441,0 2.61,-1.168 2.61,-2.61 L 2.61,2.61 C 2.61,1.169 1.441,0 0,0" /></g><g
           transform="translate(305.4821,183.633)"
           id="g84"><path
             id="path86"
             style="fill:#b3bbb9;fill-opacity:1;fill-rule:nonzero;stroke:none"
             d="m 0,0 -44.884,0 c -1.442,0 -2.61,1.169 -2.61,2.61 l 0,30.229 c 0,1.442 1.168,2.61 2.61,2.61 l 44.884,0 c 1.442,0 2.61,-1.168 2.61,-2.61 L 2.61,2.61 C 2.61,1.169 1.442,0 0,0" /></g><g
           transform="translate(239.1282,183.633)"
           id="g88"><path
             id="path90"
             style="fill:#b3bbb9;fill-opacity:1;fill-rule:nonzero;stroke:none"
             d="m 0,0 -44.884,0 c -1.442,0 -2.61,1.169 -2.61,2.61 l 0,30.229 c 0,1.442 1.168,2.61 2.61,2.61 l 44.884,0 c 1.442,0 2.61,-1.168 2.61,-2.61 L 2.61,2.61 C 2.61,1.169 1.442,0 0,0" /></g><g
           transform="translate(172.7742,183.633)"
           id="g92"><path
             id="path94"
             style="fill:#b3bbb9;fill-opacity:1;fill-rule:nonzero;stroke:none"
             d="m 0,0 -44.884,0 c -1.442,0 -2.61,1.169 -2.61,2.61 l 0,30.229 c 0,1.442 1.168,2.61 2.61,2.61 l 44.884,0 c 1.441,0 2.61,-1.168 2.61,-2.61 L 2.61,2.61 C 2.61,1.169 1.441,0 0,0" /></g><g
           transform="translate(106.4202,183.633)"
           id="g96"><path
             id="path98"
             style="fill:#b3bbb9;fill-opacity:1;fill-rule:nonzero;stroke:none"
             d="m 0,0 -44.884,0 c -1.442,0 -2.61,1.169 -2.61,2.61 l 0,30.229 c 0,1.442 1.168,2.61 2.61,2.61 l 44.884,0 c 1.441,0 2.61,-1.168 2.61,-2.61 L 2.61,2.61 C 2.61,1.169 1.441,0 0,0" /></g><g
           transform="translate(438.1903,183.633)"
           id="g100"><path
             id="path102"
             style="fill:#b3bbb9;fill-opacity:1;fill-rule:nonzero;stroke:none"
             d="m 0,0 -44.884,0 c -1.442,0 -2.61,1.169 -2.61,2.61 l 0,30.229 c 0,1.442 1.168,2.61 2.61,2.61 l 44.884,0 c 1.441,0 2.61,-1.168 2.61,-2.61 L 2.61,2.61 C 2.61,1.169 1.441,0 0,0" /></g><g
           transform="translate(504.5443,183.633)"
           id="g104"><path
             id="path106"
             style="fill:#b3bbb9;fill-opacity:1;fill-rule:nonzero;stroke:none"
             d="m 0,0 -44.884,0 c -1.442,0 -2.61,1.169 -2.61,2.61 l 0,30.229 c 0,1.442 1.168,2.61 2.61,2.61 l 44.884,0 c 1.441,0 2.61,-1.168 2.61,-2.61 L 2.61,2.61 C 2.61,1.169 1.441,0 0,0" /></g><g
           transform="translate(570.8983,183.633)"
           id="g108"><path
             id="path110"
             style="fill:#b3bbb9;fill-opacity:1;fill-rule:nonzero;stroke:none"
             d="m 0,0 -44.884,0 c -1.442,0 -2.61,1.169 -2.61,2.61 l 0,30.229 c 0,1.442 1.168,2.61 2.61,2.61 l 44.884,0 c 1.442,0 2.61,-1.168 2.61,-2.61 L 2.61,2.61 C 2.61,1.169 1.442,0 0,0" /></g><g
           transform="translate(637.2523,183.633)"
           id="g112"><path
             id="path114"
             style="fill:#b3bbb9;fill-opacity:1;fill-rule:nonzero;stroke:none"
             d="m 0,0 -44.884,0 c -1.442,0 -2.61,1.169 -2.61,2.61 l 0,30.229 c 0,1.442 1.168,2.61 2.61,2.61 l 44.884,0 c 1.441,0 2.61,-1.168 2.61,-2.61 L 2.61,2.61 C 2.61,1.169 1.441,0 0,0" /></g><g
           transform="translate(703.6063,183.633)"
           id="g116"><path
             id="path118"
             style="fill:#b3bbb9;fill-opacity:1;fill-rule:nonzero;stroke:none"
             d="m 0,0 -44.884,0 c -1.442,0 -2.61,1.169 -2.61,2.61 l 0,30.229 c 0,1.442 1.168,2.61 2.61,2.61 l 44.884,0 c 1.442,0 2.61,-1.168 2.61,-2.61 L 2.61,2.61 C 2.61,1.169 1.442,0 0,0" /></g><g
           transform="translate(388.4098,118.95)"
           id="g120"><path
             id="path122"
             style="fill:#b3bbb9;fill-opacity:1;fill-rule:nonzero;stroke:none"
             d="m 0,0 -44.884,0 c -1.442,0 -2.61,1.169 -2.61,2.61 l 0,30.229 c 0,1.442 1.168,2.61 2.61,2.61 l 44.884,0 c 1.441,0 2.61,-1.168 2.61,-2.61 L 2.61,2.61 C 2.61,1.169 1.441,0 0,0" /></g><g
           transform="translate(322.0558,118.95)"
           id="g124"><path
             id="path126"
             style="fill:#b3bbb9;fill-opacity:1;fill-rule:nonzero;stroke:none"
             d="m 0,0 -44.884,0 c -1.442,0 -2.61,1.169 -2.61,2.61 l 0,30.229 c 0,1.442 1.168,2.61 2.61,2.61 l 44.884,0 c 1.441,0 2.61,-1.168 2.61,-2.61 L 2.61,2.61 C 2.61,1.169 1.441,0 0,0" /></g><g
           transform="translate(255.7018,118.95)"
           id="g128"><path
             id="path130"
             style="fill:#b3bbb9;fill-opacity:1;fill-rule:nonzero;stroke:none"
             d="m 0,0 -44.884,0 c -1.442,0 -2.61,1.169 -2.61,2.61 l 0,30.229 c 0,1.442 1.168,2.61 2.61,2.61 l 44.884,0 c 1.441,0 2.61,-1.168 2.61,-2.61 L 2.61,2.61 C 2.61,1.169 1.441,0 0,0" /></g><g
           transform="translate(189.3478,118.95)"
           id="g132"><path
             id="path134"
             style="fill:#b3bbb9;fill-opacity:1;fill-rule:nonzero;stroke:none"
             d="m 0,0 -44.884,0 c -1.442,0 -2.61,1.169 -2.61,2.61 l 0,30.229 c 0,1.442 1.168,2.61 2.61,2.61 l 44.884,0 c 1.441,0 2.61,-1.168 2.61,-2.61 L 2.61,2.61 C 2.61,1.169 1.441,0 0,0" /></g><g
           transform="translate(122.9938,118.95)"
           id="g136"><path
             id="path138"
             style="fill:#b3bbb9;fill-opacity:1;fill-rule:nonzero;stroke:none"
             d="m 0,0 -44.884,0 c -1.442,0 -2.61,1.169 -2.61,2.61 l 0,30.229 c 0,1.442 1.168,2.61 2.61,2.61 l 44.884,0 c 1.441,0 2.61,-1.168 2.61,-2.61 L 2.61,2.61 C 2.61,1.169 1.441,0 0,0" /></g><g
           transform="translate(454.7639,118.95)"
           id="g140"><path
             id="path142"
             style="fill:#b3bbb9;fill-opacity:1;fill-rule:nonzero;stroke:none"
             d="m 0,0 -44.885,0 c -1.441,0 -2.61,1.169 -2.61,2.61 l 0,30.229 c 0,1.442 1.169,2.61 2.61,2.61 l 44.885,0 c 1.441,0 2.61,-1.168 2.61,-2.61 L 2.61,2.61 C 2.61,1.169 1.441,0 0,0" /></g><g
           transform="translate(521.1179,118.95)"
           id="g144"><path
             id="path146"
             style="fill:#b3bbb9;fill-opacity:1;fill-rule:nonzero;stroke:none"
             d="m 0,0 -44.884,0 c -1.442,0 -2.61,1.169 -2.61,2.61 l 0,30.229 c 0,1.442 1.168,2.61 2.61,2.61 l 44.884,0 c 1.441,0 2.61,-1.168 2.61,-2.61 L 2.61,2.61 C 2.61,1.169 1.441,0 0,0" /></g><g
           transform="translate(587.4719,118.95)"
           id="g148"><path
             id="path150"
             style="fill:#b3bbb9;fill-opacity:1;fill-rule:nonzero;stroke:none"
             d="m 0,0 -44.884,0 c -1.442,0 -2.61,1.169 -2.61,2.61 l 0,30.229 c 0,1.442 1.168,2.61 2.61,2.61 l 44.884,0 c 1.441,0 2.61,-1.168 2.61,-2.61 L 2.61,2.61 C 2.61,1.169 1.441,0 0,0" /></g><g
           transform="translate(653.8259,118.95)"
           id="g152"><path
             id="path154"
             style="fill:#b3bbb9;fill-opacity:1;fill-rule:nonzero;stroke:none"
             d="m 0,0 -44.884,0 c -1.442,0 -2.61,1.169 -2.61,2.61 l 0,30.229 c 0,1.442 1.168,2.61 2.61,2.61 l 44.884,0 c 1.441,0 2.61,-1.168 2.61,-2.61 L 2.61,2.61 C 2.61,1.169 1.441,0 0,0" /></g><g
           transform="translate(720.1799,118.95)"
           id="g156"><path
             id="path158"
             style="fill:#b3bbb9;fill-opacity:1;fill-rule:nonzero;stroke:none"
             d="m 0,0 -44.884,0 c -1.442,0 -2.61,1.169 -2.61,2.61 l 0,30.229 c 0,1.442 1.168,2.61 2.61,2.61 l 44.884,0 c 1.441,0 2.61,-1.168 2.61,-2.61 L 2.61,2.61 C 2.61,1.169 1.441,0 0,0" /></g><g
           transform="translate(421.5869,54.4972)"
           id="g160"><path
             id="path162"
             style="fill:#b3bbb9;fill-opacity:1;fill-rule:nonzero;stroke:none"
             d="m 0,0 -44.884,0 c -1.442,0 -2.61,1.169 -2.61,2.61 l 0,30.229 c 0,1.442 1.168,2.61 2.61,2.61 l 44.884,0 c 1.441,0 2.61,-1.168 2.61,-2.61 L 2.61,2.61 C 2.61,1.169 1.441,0 0,0" /></g><g
           transform="translate(355.2328,54.4972)"
           id="g164"><path
             id="path166"
             style="fill:#b3bbb9;fill-opacity:1;fill-rule:nonzero;stroke:none"
             d="m 0,0 -44.884,0 c -1.442,0 -2.61,1.169 -2.61,2.61 l 0,30.229 c 0,1.442 1.168,2.61 2.61,2.61 l 44.884,0 c 1.441,0 2.61,-1.168 2.61,-2.61 L 2.61,2.61 C 2.61,1.169 1.441,0 0,0" /></g><g
           transform="translate(288.8788,54.4972)"
           id="g168"><path
             id="path170"
             style="fill:#b3bbb9;fill-opacity:1;fill-rule:nonzero;stroke:none"
             d="m 0,0 -44.884,0 c -1.442,0 -2.61,1.169 -2.61,2.61 l 0,30.229 c 0,1.442 1.168,2.61 2.61,2.61 l 44.884,0 c 1.442,0 2.61,-1.168 2.61,-2.61 L 2.61,2.61 C 2.61,1.169 1.442,0 0,0" /></g><g
           transform="translate(222.5248,54.4972)"
           id="g172"><path
             id="path174"
             style="fill:#b3bbb9;fill-opacity:1;fill-rule:nonzero;stroke:none"
             d="m 0,0 -44.885,0 c -1.441,0 -2.609,1.169 -2.609,2.61 l 0,30.229 c 0,1.442 1.168,2.61 2.609,2.61 l 44.885,0 c 1.441,0 2.61,-1.168 2.61,-2.61 L 2.61,2.61 C 2.61,1.169 1.441,0 0,0" /></g><g
           transform="translate(156.1707,54.4972)"
           id="g176"><path
             id="path178"
             style="fill:#b3bbb9;fill-opacity:1;fill-rule:nonzero;stroke:none"
             d="m 0,0 -44.884,0 c -1.442,0 -2.61,1.169 -2.61,2.61 l 0,30.229 c 0,1.442 1.168,2.61 2.61,2.61 l 44.884,0 c 1.441,0 2.61,-1.168 2.61,-2.61 L 2.61,2.61 C 2.61,1.169 1.441,0 0,0" /></g><g
           transform="translate(487.9409,54.4972)"
           id="g180"><path
             id="path182"
             style="fill:#b3bbb9;fill-opacity:1;fill-rule:nonzero;stroke:none"
             d="m 0,0 -44.884,0 c -1.442,0 -2.61,1.169 -2.61,2.61 l 0,30.229 c 0,1.442 1.168,2.61 2.61,2.61 l 44.884,0 c 1.441,0 2.61,-1.168 2.61,-2.61 L 2.61,2.61 C 2.61,1.169 1.441,0 0,0" /></g><g
           transform="translate(554.2949,54.4972)"
           id="g184"><path
             id="path186"
             style="fill:#b3bbb9;fill-opacity:1;fill-rule:nonzero;stroke:none"
             d="m 0,0 -44.884,0 c -1.442,0 -2.61,1.169 -2.61,2.61 l 0,30.229 c 0,1.442 1.168,2.61 2.61,2.61 l 44.884,0 c 1.441,0 2.61,-1.168 2.61,-2.61 L 2.61,2.61 C 2.61,1.169 1.441,0 0,0" /></g><g
           transform="translate(620.6489,54.4972)"
           id="g188"><path
             id="path190"
             style="fill:#b3bbb9;fill-opacity:1;fill-rule:nonzero;stroke:none"
             d="m 0,0 -44.884,0 c -1.442,0 -2.61,1.169 -2.61,2.61 l 0,30.229 c 0,1.442 1.168,2.61 2.61,2.61 l 44.884,0 c 1.441,0 2.61,-1.168 2.61,-2.61 L 2.61,2.61 C 2.61,1.169 1.441,0 0,0" /></g><g
           transform="translate(720.1799,54.4972)"
           id="g192"><path
             id="path194"
             style="fill:#b3bbb9;fill-opacity:1;fill-rule:nonzero;stroke:none"
             d="m 0,0 -78.061,0 c -1.442,0 -2.61,1.169 -2.61,2.61 l 0,30.229 c 0,1.442 1.168,2.61 2.61,2.61 l 78.061,0 c 1.441,0 2.61,-1.168 2.61,-2.61 L 2.61,2.61 C 2.61,1.169 1.441,0 0,0" /></g><g
           transform="translate(90.0768,54.4972)"
           id="g196"><path
             id="path198"
             style="fill:#b3bbb9;fill-opacity:1;fill-rule:nonzero;stroke:none"
             d="m 0,0 -61.343,0 c -1.441,0 -2.61,1.169 -2.61,2.61 l 0,30.229 c 0,1.442 1.169,2.61 2.61,2.61 l 61.343,0 c 1.441,0 2.61,-1.168 2.61,-2.61 L 2.61,2.61 C 2.61,1.169 1.441,0 0,0" /></g><g
           transform="translate(727.01,314.2239)"
           id="g200"><path
             id="path202"
             style="fill:#181221;fill-opacity:1;fill-rule:nonzero;stroke:none"
             d="m 0,0 c 10.128,0 20.026,-2.9 24.013,-15.733 l 0,0.072 C 20.947,0.452 10.128,2.754 0,2.754 l -702.997,0 c -10.128,0 -20.947,-2.302 -24.013,-18.415 l 0,-0.072 C -723.023,-2.9 -713.125,0 -702.997,0 L 0,0 Z" /></g><g
           transform="translate(727.01,316.4602)"
           id="g204"><path
             id="path206"
             style="fill:#3a3742;fill-opacity:1;fill-rule:nonzero;stroke:none"
             d="m 0,0 c 10.128,0 20.026,-2.9 24.013,-15.733 l 0,0.072 C 20.947,0.452 10.128,2.754 0,2.754 l -702.997,0 c -10.128,0 -20.947,-2.302 -24.013,-18.415 l 0,-0.072 C -723.023,-2.9 -713.125,0 -702.997,0 L 0,0 Z" /></g><g
           transform="translate(727.01,319.2142)"
           id="g208"><path
             id="path210"
             style="fill:#181221;fill-opacity:1;fill-rule:nonzero;stroke:none"
             d="M 0,0 C 10.128,0 20.947,-2.302 24.013,-18.415 24.013,-2.187 22.789,14.041 0,14.041 l -702.997,0 c -22.788,0 -24.013,-16.228 -24.013,-32.456 C -723.944,-2.302 -713.125,0 -702.997,0 L 0,0 Z" /></g><g
           transform="translate(11.4969,2.2362)"
           id="g212"><path
             id="path214"
             style="fill:#181221;fill-opacity:1;fill-rule:nonzero;stroke:none"
             d="m 0,0 c -12.421,0 -11.481,1.631 -11.481,7.078 0,0 1.746,-1.764 11.682,-1.764 l 727.627,0 c 9.937,0 11.682,1.764 11.682,1.764 C 739.51,1.631 740.45,0 728.03,0 L 0,0 Z" /></g><g
           transform="translate(11.4969,0)"
           id="g216"><path
             id="path218"
             style="fill:#3a3742;fill-opacity:1;fill-rule:nonzero;stroke:none"
             d="m 0,0 c -12.421,0 -11.481,1.631 -11.481,7.078 0,0 1.746,-1.764 11.682,-1.764 l 727.627,0 c 9.937,0 11.682,1.764 11.682,1.764 C 739.51,1.631 740.45,0 728.03,0 L 0,0 Z" /></g><g
           transform="translate(56.7343,401.1324)"
           id="g220"><path
             id="path222"
             style="fill:#d3c5c5;fill-opacity:1;fill-rule:nonzero;stroke:none"
             d="M 0,0 C 0.594,0.174 1.111,0.427 1.553,0.76 1.994,1.092 2.34,1.501 2.59,1.986 2.841,2.47 2.966,3.029 2.966,3.661 2.966,4.304 2.849,4.838 2.615,5.263 2.381,5.688 2.07,6.041 1.683,6.325 1.297,6.608 0.85,6.834 0.343,7.003 -0.163,7.172 -0.689,7.316 -1.234,7.436 -1.713,7.545 -2.136,7.643 -2.501,7.73 c -0.365,0.088 -0.672,0.188 -0.923,0.303 -0.251,0.114 -0.441,0.248 -0.572,0.4 -0.131,0.153 -0.196,0.349 -0.196,0.589 0,0.381 0.174,0.686 0.523,0.915 0.348,0.229 0.811,0.343 1.389,0.343 0.61,0 1.095,-0.131 1.455,-0.392 0.359,-0.262 0.577,-0.632 0.653,-1.112 l 2.73,0 c -0.044,0.6 -0.191,1.125 -0.442,1.578 -0.25,0.452 -0.582,0.83 -0.996,1.136 -0.415,0.304 -0.905,0.533 -1.471,0.686 -0.567,0.152 -1.183,0.229 -1.847,0.229 -0.676,0 -1.302,-0.074 -1.88,-0.221 -0.577,-0.147 -1.078,-0.37 -1.503,-0.67 -0.425,-0.3 -0.758,-0.678 -0.997,-1.136 -0.24,-0.457 -0.36,-1.002 -0.36,-1.634 0,-0.632 0.112,-1.152 0.335,-1.561 C -6.38,6.774 -6.072,6.436 -5.679,6.17 -5.287,5.903 -4.83,5.688 -4.307,5.524 -3.784,5.361 -3.228,5.214 -2.639,5.083 -2.204,4.985 -1.812,4.889 -1.463,4.797 -1.114,4.704 -0.82,4.598 -0.58,4.478 -0.341,4.358 -0.158,4.211 -0.033,4.037 0.092,3.862 0.155,3.645 0.155,3.383 0.155,3.132 0.098,2.917 -0.016,2.737 -0.131,2.558 -0.286,2.411 -0.482,2.296 -0.678,2.182 -0.902,2.097 -1.152,2.043 -1.403,1.988 -1.664,1.961 -1.937,1.961 c -0.784,0 -1.392,0.153 -1.822,0.458 -0.431,0.305 -0.684,0.79 -0.76,1.454 l -2.811,0 c 0.022,-0.653 0.161,-1.239 0.417,-1.757 0.255,-0.517 0.618,-0.95 1.087,-1.299 0.468,-0.349 1.029,-0.616 1.683,-0.801 0.654,-0.185 1.389,-0.278 2.206,-0.278 0.697,0 1.343,0.088 1.937,0.262" /></g><g
           transform="translate(64.1132,403.592)"
           id="g224"><path
             id="path226"
             style="fill:#d3c5c5;fill-opacity:1;fill-rule:nonzero;stroke:none"
             d="m 0,0 c -0.338,0.474 -0.507,1.087 -0.507,1.839 0,0.37 0.041,0.713 0.123,1.029 0.082,0.316 0.204,0.594 0.368,0.834 C 0.147,3.941 0.351,4.129 0.597,4.266 0.842,4.402 1.128,4.47 1.455,4.47 2.086,4.47 2.555,4.227 2.86,3.743 3.165,3.258 3.318,2.623 3.318,1.839 3.318,1.054 3.16,0.433 2.844,-0.025 2.528,-0.482 2.076,-0.711 1.487,-0.711 0.833,-0.711 0.338,-0.474 0,0 m -2.991,-5.32 2.566,0 0,2.076 c 0,0.468 -0.008,0.86 -0.024,1.177 -0.017,0.315 -0.036,0.555 -0.058,0.719 l 0.033,0 c 0.251,-0.425 0.597,-0.758 1.038,-0.997 0.441,-0.24 0.95,-0.36 1.528,-0.36 0.577,0 1.103,0.109 1.577,0.327 0.474,0.218 0.877,0.526 1.21,0.923 C 5.211,-1.057 5.467,-0.572 5.647,0 5.826,0.572 5.916,1.212 5.916,1.92 5.916,2.585 5.829,3.198 5.655,3.759 5.48,4.32 5.232,4.805 4.911,5.214 4.59,5.622 4.197,5.941 3.734,6.17 3.271,6.399 2.751,6.513 2.174,6.513 0.997,6.513 0.114,6.017 -0.474,5.026 l -0.049,0 0,1.242 -2.468,0 0,-11.588 z" /></g><g
           transform="translate(76.6159,407.7761)"
           id="g228"><path
             id="path230"
             style="fill:#d3c5c5;fill-opacity:1;fill-rule:nonzero;stroke:none"
             d="m 0,0 c 0.316,-0.343 0.496,-0.82 0.539,-1.43 l -3.71,0 c 0.087,0.599 0.284,1.073 0.589,1.422 0.305,0.348 0.752,0.523 1.34,0.523 C -0.73,0.515 -0.316,0.343 0,0 m 0.409,-6.668 c 0.457,0.136 0.858,0.327 1.201,0.572 0.343,0.245 0.632,0.534 0.866,0.866 0.234,0.332 0.406,0.689 0.515,1.071 l -2.484,0 c -0.142,-0.273 -0.341,-0.483 -0.597,-0.63 -0.256,-0.147 -0.586,-0.22 -0.989,-0.22 -0.621,0 -1.106,0.185 -1.454,0.555 -0.349,0.371 -0.567,0.883 -0.654,1.537 l 6.341,0 C 3.165,-2.057 3.056,-1.272 2.827,-0.564 2.599,0.144 2.239,0.738 1.749,1.218 1.367,1.566 0.929,1.839 0.433,2.035 -0.063,2.231 -0.621,2.329 -1.242,2.329 -1.907,2.329 -2.512,2.212 -3.056,1.978 -3.601,1.743 -4.07,1.419 -4.462,1.005 -4.854,0.591 -5.159,0.103 -5.377,-0.458 -5.595,-1.019 -5.704,-1.626 -5.704,-2.28 c 0,-0.654 0.106,-1.258 0.319,-1.814 0.212,-0.556 0.517,-1.041 0.915,-1.455 0.398,-0.414 0.88,-0.738 1.446,-0.972 0.567,-0.234 1.204,-0.352 1.913,-0.352 0.555,0 1.062,0.069 1.52,0.205" /></g><g
           transform="translate(86.8714,401.1569)"
           id="g232"><path
             id="path234"
             style="fill:#d3c5c5;fill-opacity:1;fill-rule:nonzero;stroke:none"
             d="M 0,0 C 0.496,0.18 0.918,0.428 1.267,0.744 1.615,1.06 1.89,1.433 2.092,1.863 2.294,2.293 2.405,2.754 2.427,3.244 l -2.468,0 C -0.095,2.743 -0.261,2.356 -0.539,2.084 -0.817,1.811 -1.196,1.675 -1.675,1.675 c -0.654,0 -1.142,0.245 -1.463,0.736 -0.321,0.49 -0.482,1.133 -0.482,1.928 0,0.817 0.161,1.471 0.482,1.961 0.321,0.491 0.809,0.736 1.463,0.736 0.425,0 0.768,-0.117 1.029,-0.351 0.262,-0.235 0.436,-0.554 0.524,-0.957 l 2.484,0 C 2.285,6.197 2.138,6.63 1.92,7.028 1.702,7.425 1.422,7.766 1.079,8.049 0.736,8.332 0.329,8.553 -0.139,8.711 -0.607,8.869 -1.131,8.948 -1.708,8.948 -2.394,8.948 -3.015,8.831 -3.571,8.597 -4.127,8.362 -4.601,8.038 -4.993,7.624 -5.385,7.21 -5.688,6.723 -5.9,6.162 -6.112,5.6 -6.219,4.993 -6.219,4.339 c 0,-0.654 0.109,-1.261 0.327,-1.822 0.218,-0.561 0.526,-1.049 0.924,-1.463 0.397,-0.414 0.877,-0.738 1.438,-0.972 0.561,-0.234 1.19,-0.352 1.887,-0.352 0.6,0 1.147,0.09 1.643,0.27" /></g><g
           transform="translate(89.9848,408.2255)"
           id="g236"><path
             id="path238"
             style="fill:#d3c5c5;fill-opacity:1;fill-rule:nonzero;stroke:none"
             d="m 0,0 1.307,0 0,-4.87 c 0,-0.447 0.066,-0.815 0.197,-1.104 0.13,-0.288 0.315,-0.523 0.555,-0.702 0.24,-0.18 0.526,-0.306 0.858,-0.376 0.333,-0.071 0.7,-0.106 1.104,-0.106 0.348,0 0.648,0.016 0.898,0.049 0.251,0.032 0.447,0.059 0.589,0.081 l 0,1.912 -0.131,0 C 5.29,-5.127 5.192,-5.135 5.083,-5.14 4.974,-5.146 4.876,-5.148 4.789,-5.148 c -0.305,0 -0.542,0.057 -0.711,0.171 -0.169,0.115 -0.254,0.335 -0.254,0.662 l 0,4.315 1.7,0 0,1.634 -1.7,0 0,2.779 -2.517,0 0,-2.779 L 0,1.634 0,0 Z" /></g><g
           transform="translate(99.3168,409.8598)"
           id="g240"><path
             id="path242"
             style="fill:#d3c5c5;fill-opacity:1;fill-rule:nonzero;stroke:none"
             d="m 0,0 -2.468,0 0,-8.695 2.566,0 0,4.037 c 0,0.85 0.21,1.49 0.629,1.921 0.42,0.43 0.978,0.639 1.676,0.629 0.174,0 0.353,-0.017 0.539,-0.049 l 0.065,0 0,2.239 C 2.909,0.125 2.729,0.147 2.468,0.147 1.923,0.147 1.455,0.016 1.062,-0.245 0.67,-0.507 0.332,-0.943 0.049,-1.553 L 0,-1.553 0,0 Z" /></g><g
           transform="translate(111.6397,401.1651)"
           id="g244"><path
             id="path246"
             style="fill:#d3c5c5;fill-opacity:1;fill-rule:nonzero;stroke:none"
             d="m 0,0 0,8.695 -2.533,0 0,-4.92 C -2.533,3.23 -2.68,2.784 -2.975,2.435 -3.269,2.086 -3.677,1.912 -4.2,1.912 c -0.458,0 -0.804,0.131 -1.038,0.392 -0.235,0.262 -0.351,0.638 -0.351,1.128 l 0,5.263 -2.566,0 0,-5.753 c 0,-0.959 0.261,-1.73 0.784,-2.313 0.523,-0.583 1.28,-0.874 2.272,-0.874 0.599,0 1.106,0.12 1.52,0.359 0.414,0.24 0.779,0.616 1.095,1.128 l 0.049,0 L -2.435,0 0,0 Z" /></g><g
           transform="translate(113.3394,401.1651)"
           id="g248"><path
             id="path250"
             style="fill:#d3c5c5;fill-opacity:1;fill-rule:nonzero;stroke:none"
             d="m 0,0 2.566,0 0,4.952 c 0,0.556 0.136,1.008 0.409,1.357 0.272,0.348 0.637,0.523 1.095,0.523 0.424,0 0.743,-0.134 0.956,-0.401 0.212,-0.267 0.318,-0.64 0.318,-1.119 l 0,-5.312 2.566,0 0,4.952 c 0,0.556 0.134,1.008 0.401,1.357 0.267,0.348 0.629,0.523 1.087,0.523 0.413,0 0.732,-0.134 0.956,-0.401 0.223,-0.267 0.335,-0.64 0.335,-1.119 l 0,-5.312 2.549,0 0,5.737 c 0,0.969 -0.245,1.746 -0.735,2.329 C 12.013,8.648 11.282,8.94 10.313,8.94 9.757,8.94 9.248,8.812 8.785,8.556 8.321,8.3 7.91,7.878 7.551,7.289 l -0.033,0 C 7.071,8.39 6.276,8.94 5.132,8.94 4.511,8.94 3.99,8.804 3.571,8.531 3.152,8.259 2.8,7.861 2.517,7.338 l -0.049,0 0,1.357 L 0,8.695 0,0 Z" /></g><g
           transform="translate(21.072,401.1651)"
           id="g252"><path
             id="path254"
             style="fill:#d3c5c5;fill-opacity:1;fill-rule:nonzero;stroke:none"
             d="m 0,0 10.019,0 0,2.386 -4.054,0 C 5.715,2.386 5.434,2.381 5.124,2.37 4.813,2.359 4.516,2.348 4.233,2.337 3.906,2.315 3.579,2.299 3.252,2.288 l 0,0.049 0.801,0.801 c 0.229,0.229 0.468,0.479 0.719,0.752 0.251,0.272 0.48,0.533 0.687,0.784 l 4.331,5.296 0,2.19 -9.349,0 0,-2.354 3.498,0 c 0.239,0 0.506,0.003 0.801,0.008 0.294,0.006 0.572,0.014 0.833,0.025 0.305,0.011 0.616,0.027 0.932,0.049 l 0,-0.049 C 6.254,9.599 6.009,9.354 5.769,9.103 5.562,8.885 5.344,8.654 5.115,8.409 4.887,8.164 4.68,7.932 4.494,7.714 L 0,2.255 0,0 Z" /></g><g
           transform="translate(32.2999,401.1651)"
           id="g256"><path
             id="path258"
             style="fill:#d3c5c5;fill-opacity:1;fill-rule:nonzero;stroke:none"
             d="m 0,0 3.171,0 1.258,2.141 c 0.142,0.24 0.286,0.504 0.433,0.793 0.147,0.288 0.281,0.558 0.401,0.809 0.141,0.294 0.277,0.588 0.408,0.882 l 0.033,0 C 5.835,4.331 5.965,4.037 6.096,3.743 6.216,3.492 6.344,3.222 6.48,2.934 6.616,2.645 6.755,2.381 6.897,2.141 L 8.123,0 l 3.301,0 -4.053,6.374 3.677,5.786 -3.04,0 -0.997,-1.651 C 6.87,10.269 6.725,10.01 6.578,9.733 6.431,9.455 6.298,9.19 6.178,8.94 6.036,8.656 5.9,8.362 5.769,8.057 l -0.032,0 C 5.595,8.362 5.459,8.656 5.328,8.94 5.208,9.19 5.077,9.455 4.936,9.733 4.794,10.01 4.652,10.269 4.511,10.509 L 3.53,12.16 0.343,12.16 4.086,6.358 0,0 Z" /></g><path
           id="path260"
           style="fill:#5b585b;fill-opacity:1;fill-rule:nonzero;stroke:none"
           d="m 183.582,461.487 9.133,0 0,-34.242 -9.133,0 0,34.242 z" /><path
           id="path262"
           style="fill:#5b585b;fill-opacity:1;fill-rule:nonzero;stroke:none"
           d="m 206.408,436.378 22.832,0 0,-2.283 -22.832,0 0,2.283 z m -9.127,15.976 0,-6.844 31.959,0 0,-2.283 -31.959,0 0,-15.982 41.092,0 0,25.109 -41.092,0 z" /><path
           id="path264"
           style="fill:#5b585b;fill-opacity:1;fill-rule:nonzero;stroke:none"
           d="m 242.939,452.354 9.127,0 0,-25.109 -9.127,0 0,25.109 z" /><path
           id="path266"
           style="fill:#5b585b;fill-opacity:1;fill-rule:nonzero;stroke:none"
           d="m 242.939,461.487 9.127,0 0,-6.849 -9.127,0 0,6.849 z" /><g
           transform="translate(256.6329,452.3541)"
           id="g268"><path
             id="path270"
             style="fill:#5b585b;fill-opacity:1;fill-rule:nonzero;stroke:none"
             d="m 0,0 0,-25.109 9.133,0 0,18.265 36.525,0 0,6.844 L 0,0 Z" /></g><g
           transform="translate(133.3571,452.3541)"
           id="g272"><path
             id="path274"
             style="fill:#5b585b;fill-opacity:1;fill-rule:nonzero;stroke:none"
             d="m 0,0 0,-25.109 45.658,0 0,6.85 -36.525,0 0,11.415 36.525,0 0,6.844 L 0,0 Z" /></g><g
           transform="translate(83.1321,452.3541)"
           id="g276"><path
             id="path278"
             style="fill:#5b585b;fill-opacity:1;fill-rule:nonzero;stroke:none"
             d="m 0,0 0,-25.109 9.133,0 0,18.265 27.393,0 0,-18.265 9.132,0 L 45.658,0 0,0 Z" /></g><path
           id="path280"
           style="fill:#5b585b;fill-opacity:1;fill-rule:nonzero;stroke:none"
           d="m 69.433,452.354 9.133,0 0,-25.109 -9.133,0 0,25.109 z" /><path
           id="path282"
           style="fill:#5b585b;fill-opacity:1;fill-rule:nonzero;stroke:none"
           d="m 69.433,461.487 9.133,0 0,-6.849 -9.133,0 0,6.849 z" /><g
           transform="translate(19.2138,452.3541)"
           id="g284"><path
             id="path286"
             style="fill:#5b585b;fill-opacity:1;fill-rule:nonzero;stroke:none"
             d="m 0,0 0,-15.976 36.526,0 0,-2.283 -36.526,0 0,-6.85 45.658,0 0,15.982 -36.531,0 0,2.283 36.531,0 0,6.844 L 0,0 Z" /></g><path
           id="path288"
           style="fill:#181221;fill-opacity:1;fill-rule:nonzero;stroke:none"
           d="m 185.818,459.251 9.133,0 0,-34.242 -9.133,0 0,34.242 z" /><path
           id="path290"
           style="fill:#181221;fill-opacity:1;fill-rule:nonzero;stroke:none"
           d="m 208.644,434.142 22.832,0 0,-2.283 -22.832,0 0,2.283 z m -9.127,15.976 0,-6.844 31.959,0 0,-2.283 -31.959,0 0,-15.982 41.092,0 0,25.109 -41.092,0 z" /><path
           id="path292"
           style="fill:#181221;fill-opacity:1;fill-rule:nonzero;stroke:none"
           d="m 245.176,450.118 9.127,0 0,-25.109 -9.127,0 0,25.109 z" /><path
           id="path294"
           style="fill:#181221;fill-opacity:1;fill-rule:nonzero;stroke:none"
           d="m 245.176,459.251 9.127,0 0,-6.85 -9.127,0 0,6.85 z" /><g
           transform="translate(258.8691,450.1179)"
           id="g296"><path
             id="path298"
             style="fill:#181221;fill-opacity:1;fill-rule:nonzero;stroke:none"
             d="m 0,0 0,-25.109 9.133,0 0,18.265 36.525,0 0,6.844 L 0,0 Z" /></g><g
           transform="translate(135.5933,450.1179)"
           id="g300"><path
             id="path302"
             style="fill:#181221;fill-opacity:1;fill-rule:nonzero;stroke:none"
             d="m 0,0 0,-25.109 45.658,0 0,6.85 -36.525,0 0,11.415 36.525,0 0,6.844 L 0,0 Z" /></g><g
           transform="translate(85.3683,450.1179)"
           id="g304"><path
             id="path306"
             style="fill:#181221;fill-opacity:1;fill-rule:nonzero;stroke:none"
             d="m 0,0 0,-25.109 9.133,0 0,18.265 27.393,0 0,-18.265 9.132,0 L 45.658,0 0,0 Z" /></g><path
           id="path308"
           style="fill:#181221;fill-opacity:1;fill-rule:nonzero;stroke:none"
           d="m 71.669,450.118 9.133,0 0,-25.109 -9.133,0 0,25.109 z" /><path
           id="path310"
           style="fill:#181221;fill-opacity:1;fill-rule:nonzero;stroke:none"
           d="m 71.669,459.251 9.133,0 0,-6.85 -9.133,0 0,6.85 z" /><g
           transform="translate(21.4501,450.1179)"
           id="g312"><path
             id="path314"
             style="fill:#181221;fill-opacity:1;fill-rule:nonzero;stroke:none"
             d="m 0,0 0,-15.976 36.526,0 0,-2.283 -36.526,0 0,-6.85 45.658,0 0,15.982 -36.531,0 0,2.283 36.531,0 0,6.844 L 0,0 Z" /></g><path
           id="path316"
           style="fill:#3a3742;fill-opacity:1;fill-rule:nonzero;stroke:none"
           d="m 184.7,460.369 9.133,0 0,-34.242 -9.133,0 0,34.242 z" /><path
           id="path318"
           style="fill:#3a3742;fill-opacity:1;fill-rule:nonzero;stroke:none"
           d="m 207.526,435.26 22.832,0 0,-2.283 -22.832,0 0,2.283 z m -9.127,15.976 0,-6.844 31.959,0 0,-2.283 -31.959,0 0,-15.982 41.092,0 0,25.109 -41.092,0 z" /><path
           id="path320"
           style="fill:#3a3742;fill-opacity:1;fill-rule:nonzero;stroke:none"
           d="m 244.057,451.236 9.127,0 0,-25.109 -9.127,0 0,25.109 z" /><path
           id="path322"
           style="fill:#3a3742;fill-opacity:1;fill-rule:nonzero;stroke:none"
           d="m 244.057,460.369 9.127,0 0,-6.85 -9.127,0 0,6.85 z" /><g
           transform="translate(257.7509,451.236)"
           id="g324"><path
             id="path326"
             style="fill:#3a3742;fill-opacity:1;fill-rule:nonzero;stroke:none"
             d="m 0,0 0,-25.109 9.133,0 0,18.265 36.525,0 0,6.844 L 0,0 Z" /></g><g
           transform="translate(134.4752,451.236)"
           id="g328"><path
             id="path330"
             style="fill:#3a3742;fill-opacity:1;fill-rule:nonzero;stroke:none"
             d="m 0,0 0,-25.109 45.658,0 0,6.849 -36.525,0 0,11.416 36.525,0 0,6.844 L 0,0 Z" /></g><g
           transform="translate(84.2502,451.236)"
           id="g332"><path
             id="path334"
             style="fill:#3a3742;fill-opacity:1;fill-rule:nonzero;stroke:none"
             d="m 0,0 0,-25.109 9.133,0 0,18.265 27.393,0 0,-18.265 9.132,0 L 45.658,0 0,0 Z" /></g><path
           id="path336"
           style="fill:#3a3742;fill-opacity:1;fill-rule:nonzero;stroke:none"
           d="m 70.551,451.236 9.133,0 0,-25.109 -9.133,0 0,25.109 z" /><path
           id="path338"
           style="fill:#3a3742;fill-opacity:1;fill-rule:nonzero;stroke:none"
           d="m 70.551,460.369 9.133,0 0,-6.85 -9.133,0 0,6.85 z" /><g
           transform="translate(20.332,451.236)"
           id="g340"><path
             id="path342"
             style="fill:#3a3742;fill-opacity:1;fill-rule:nonzero;stroke:none"
             d="m 0,0 0,-15.976 36.526,0 0,-2.284 -36.526,0 0,-6.849 45.658,0 0,15.982 -36.531,0 0,2.283 36.531,0 0,6.844 L 0,0 Z" /></g></g></g></g></svg>