<svg xmlns="http://www.w3.org/2000/svg" width="400" height="248.01981">
  <defs>
    <clipPath id="a">
      <path d="M0 465.672h751.024V0H0v465.672z"/>
    </clipPath>
  </defs>
  <g clip-path="url(#a)" transform="matrix(0.53260622,0,0,-0.53260622,0,248.0198)">
    <path fill="#3a3742" d="M739.5266 0c12.421 0 11.481 1.631 11.481 7.078v450.933c0 5.998-10.819 7.661-22.962 7.661H22.9776c-12.142 0-22.961-1.711-22.961-7.661V7.078c0-5.447-.94-7.078 11.48-7.078h728.03z"/>
    <path fill="#f05953" d="M652.3839 6.9732l-10.94.073c16.251 36.13 89.585 199.165 95.618 212.42 7.578 16.65 11.499 27.903 13.945 45.986v-24.398c-2.446-18.083-6.367-29.336-13.945-45.986-5.868-12.892-56.04-124.421-84.678-188.095"/>
    <path fill="#fded0f" d="M663.405 6.8284l-11.017.143c29.08 64.643 80.334 178.561 84.674 188.097 7.577 16.65 11.498 27.903 13.945 45.985v-24.647c-2.447-18.082-6.367-29.336-13.945-45.986-5.17-11.359-44.732-99.287-73.657-163.592"/>
    <path fill="#79c043" d="M674.4409 6.7633l-11.198-.296c28.938 64.336 68.64 152.573 73.819 163.953 7.578 16.651 11.499 27.904 13.945 45.987l.017-24.478c-2.446-18.154-6.367-29.42-13.962-46.108-4.536-9.965-35.548-78.876-62.621-139.058"/>
    <path fill="#6cc1ec" d="M674.4409 6.7633c27.073 60.182 58.085 129.093 62.621 139.058 7.595 16.688 11.516 27.954 13.962 46.108v-24.591c-2.446-18.153-6.367-29.419-13.962-46.107-3.933-8.641-27.774-61.604-51.691-114.764l-10.93.296z"/>
    <path fill="#b3bbb9" d="M339.1494 247.8556h-44.884c-1.442 0-2.61 1.169-2.61 2.61v30.229c0 1.442 1.168 2.61 2.61 2.61h44.884c1.442 0 2.61-1.168 2.61-2.61v-30.229c0-1.441-1.168-2.61-2.61-2.61m-66.354 0h-44.884c-1.442 0-2.61 1.169-2.61 2.61v30.229c0 1.442 1.168 2.61 2.61 2.61h44.884c1.441 0 2.61-1.168 2.61-2.61v-30.229c0-1.441-1.169-2.61-2.61-2.61m-66.354 0h-44.884c-1.442 0-2.61 1.169-2.61 2.61v30.229c0 1.442 1.168 2.61 2.61 2.61h44.884c1.442 0 2.61-1.168 2.61-2.61v-30.229c0-1.441-1.168-2.61-2.61-2.61m-66.354 0h-44.884c-1.442 0-2.61 1.169-2.61 2.61v30.229c0 1.442 1.168 2.61 2.61 2.61h44.884c1.441 0 2.61-1.168 2.61-2.61v-30.229c0-1.441-1.169-2.61-2.61-2.61m-66.354 0h-44.884c-1.442 0-2.61 1.169-2.61 2.61v30.229c0 1.442 1.168 2.61 2.61 2.61h44.884c1.441 0 2.61-1.168 2.61-2.61v-30.229c0-1.441-1.169-2.61-2.61-2.61m331.7701 0h-44.884c-1.442 0-2.61 1.169-2.61 2.61v30.229c0 1.442 1.168 2.61 2.61 2.61h44.884c1.441 0 2.61-1.168 2.61-2.61v-30.229c0-1.441-1.169-2.61-2.61-2.61m66.354 0h-44.885c-1.441 0-2.609 1.169-2.609 2.61v30.229c0 1.442 1.168 2.61 2.609 2.61h44.885c1.441 0 2.61-1.168 2.61-2.61v-30.229c0-1.441-1.169-2.61-2.61-2.61m66.354 0h-44.884c-1.442 0-2.61 1.169-2.61 2.61v30.229c0 1.442 1.168 2.61 2.61 2.61h44.884c1.441 0 2.61-1.168 2.61-2.61v-30.229c0-1.441-1.169-2.61-2.61-2.61m66.3541 0h-44.885c-1.441 0-2.61 1.169-2.61 2.61v30.229c0 1.442 1.169 2.61 2.61 2.61h44.885c1.441 0 2.61-1.168 2.61-2.61v-30.229c0-1.441-1.169-2.61-2.61-2.61m66.3539 0h-44.884c-1.442 0-2.61 1.169-2.61 2.61v30.229c0 1.442 1.168 2.61 2.61 2.61h44.884c1.442 0 2.61-1.168 2.61-2.61v-30.229c0-1.441-1.168-2.61-2.61-2.61M371.8362 183.633h-44.884c-1.442 0-2.61 1.169-2.61 2.61v30.229c0 1.442 1.168 2.61 2.61 2.61h44.884c1.441 0 2.61-1.168 2.61-2.61v-30.229c0-1.441-1.169-2.61-2.61-2.61m-66.3541 0h-44.884c-1.442 0-2.61 1.169-2.61 2.61v30.229c0 1.442 1.168 2.61 2.61 2.61h44.884c1.442 0 2.61-1.168 2.61-2.61v-30.229c0-1.441-1.168-2.61-2.61-2.61m-66.3539 0h-44.884c-1.442 0-2.61 1.169-2.61 2.61v30.229c0 1.442 1.168 2.61 2.61 2.61h44.884c1.442 0 2.61-1.168 2.61-2.61v-30.229c0-1.441-1.168-2.61-2.61-2.61m-66.354 0h-44.884c-1.442 0-2.61 1.169-2.61 2.61v30.229c0 1.442 1.168 2.61 2.61 2.61h44.884c1.441 0 2.61-1.168 2.61-2.61v-30.229c0-1.441-1.169-2.61-2.61-2.61m-66.354 0h-44.884c-1.442 0-2.61 1.169-2.61 2.61v30.229c0 1.442 1.168 2.61 2.61 2.61h44.884c1.441 0 2.61-1.168 2.61-2.61v-30.229c0-1.441-1.169-2.61-2.61-2.61m331.7701 0h-44.884c-1.442 0-2.61 1.169-2.61 2.61v30.229c0 1.442 1.168 2.61 2.61 2.61h44.884c1.441 0 2.61-1.168 2.61-2.61v-30.229c0-1.441-1.169-2.61-2.61-2.61m66.354 0h-44.884c-1.442 0-2.61 1.169-2.61 2.61v30.229c0 1.442 1.168 2.61 2.61 2.61h44.884c1.441 0 2.61-1.168 2.61-2.61v-30.229c0-1.441-1.169-2.61-2.61-2.61m66.354 0h-44.884c-1.442 0-2.61 1.169-2.61 2.61v30.229c0 1.442 1.168 2.61 2.61 2.61h44.884c1.442 0 2.61-1.168 2.61-2.61v-30.229c0-1.441-1.168-2.61-2.61-2.61m66.354 0h-44.884c-1.442 0-2.61 1.169-2.61 2.61v30.229c0 1.442 1.168 2.61 2.61 2.61h44.884c1.441 0 2.61-1.168 2.61-2.61v-30.229c0-1.441-1.169-2.61-2.61-2.61m66.354 0h-44.884c-1.442 0-2.61 1.169-2.61 2.61v30.229c0 1.442 1.168 2.61 2.61 2.61h44.884c1.442 0 2.61-1.168 2.61-2.61v-30.229c0-1.441-1.168-2.61-2.61-2.61M388.4098 118.95h-44.884c-1.442 0-2.61 1.169-2.61 2.61v30.229c0 1.442 1.168 2.61 2.61 2.61h44.884c1.441 0 2.61-1.168 2.61-2.61V121.56c0-1.441-1.169-2.61-2.61-2.61m-66.354 0h-44.884c-1.442 0-2.61 1.169-2.61 2.61v30.229c0 1.442 1.168 2.61 2.61 2.61h44.884c1.441 0 2.61-1.168 2.61-2.61V121.56c0-1.441-1.169-2.61-2.61-2.61m-66.354 0h-44.884c-1.442 0-2.61 1.169-2.61 2.61v30.229c0 1.442 1.168 2.61 2.61 2.61h44.884c1.441 0 2.61-1.168 2.61-2.61V121.56c0-1.441-1.169-2.61-2.61-2.61m-66.354 0h-44.884c-1.442 0-2.61 1.169-2.61 2.61v30.229c0 1.442 1.168 2.61 2.61 2.61h44.884c1.441 0 2.61-1.168 2.61-2.61V121.56c0-1.441-1.169-2.61-2.61-2.61m-66.354 0h-44.884c-1.442 0-2.61 1.169-2.61 2.61v30.229c0 1.442 1.168 2.61 2.61 2.61h44.884c1.441 0 2.61-1.168 2.61-2.61V121.56c0-1.441-1.169-2.61-2.61-2.61m331.7701 0h-44.885c-1.441 0-2.61 1.169-2.61 2.61v30.229c0 1.442 1.169 2.61 2.61 2.61h44.885c1.441 0 2.61-1.168 2.61-2.61V121.56c0-1.441-1.169-2.61-2.61-2.61m66.354 0h-44.884c-1.442 0-2.61 1.169-2.61 2.61v30.229c0 1.442 1.168 2.61 2.61 2.61h44.884c1.441 0 2.61-1.168 2.61-2.61V121.56c0-1.441-1.169-2.61-2.61-2.61m66.354 0h-44.884c-1.442 0-2.61 1.169-2.61 2.61v30.229c0 1.442 1.168 2.61 2.61 2.61h44.884c1.441 0 2.61-1.168 2.61-2.61V121.56c0-1.441-1.169-2.61-2.61-2.61m66.354 0h-44.884c-1.442 0-2.61 1.169-2.61 2.61v30.229c0 1.442 1.168 2.61 2.61 2.61h44.884c1.441 0 2.61-1.168 2.61-2.61V121.56c0-1.441-1.169-2.61-2.61-2.61m66.354 0h-44.884c-1.442 0-2.61 1.169-2.61 2.61v30.229c0 1.442 1.168 2.61 2.61 2.61h44.884c1.441 0 2.61-1.168 2.61-2.61V121.56c0-1.441-1.169-2.61-2.61-2.61m-298.593-64.4528h-44.884c-1.442 0-2.61 1.169-2.61 2.61v30.229c0 1.442 1.168 2.61 2.61 2.61h44.884c1.441 0 2.61-1.168 2.61-2.61v-30.229c0-1.441-1.169-2.61-2.61-2.61m-66.3541 0h-44.884c-1.442 0-2.61 1.169-2.61 2.61v30.229c0 1.442 1.168 2.61 2.61 2.61h44.884c1.441 0 2.61-1.168 2.61-2.61v-30.229c0-1.441-1.169-2.61-2.61-2.61m-66.354 0h-44.884c-1.442 0-2.61 1.169-2.61 2.61v30.229c0 1.442 1.168 2.61 2.61 2.61h44.884c1.442 0 2.61-1.168 2.61-2.61v-30.229c0-1.441-1.168-2.61-2.61-2.61m-66.354 0h-44.885c-1.441 0-2.609 1.169-2.609 2.61v30.229c0 1.442 1.168 2.61 2.609 2.61h44.885c1.441 0 2.61-1.168 2.61-2.61v-30.229c0-1.441-1.169-2.61-2.61-2.61m-66.3541 0h-44.884c-1.442 0-2.61 1.169-2.61 2.61v30.229c0 1.442 1.168 2.61 2.61 2.61h44.884c1.441 0 2.61-1.168 2.61-2.61v-30.229c0-1.441-1.169-2.61-2.61-2.61m331.7702 0h-44.884c-1.442 0-2.61 1.169-2.61 2.61v30.229c0 1.442 1.168 2.61 2.61 2.61h44.884c1.441 0 2.61-1.168 2.61-2.61v-30.229c0-1.441-1.169-2.61-2.61-2.61m66.354 0h-44.884c-1.442 0-2.61 1.169-2.61 2.61v30.229c0 1.442 1.168 2.61 2.61 2.61h44.884c1.441 0 2.61-1.168 2.61-2.61v-30.229c0-1.441-1.169-2.61-2.61-2.61m66.354 0h-44.884c-1.442 0-2.61 1.169-2.61 2.61v30.229c0 1.442 1.168 2.61 2.61 2.61h44.884c1.441 0 2.61-1.168 2.61-2.61v-30.229c0-1.441-1.169-2.61-2.61-2.61m99.531 0h-78.061c-1.442 0-2.61 1.169-2.61 2.61v30.229c0 1.442 1.168 2.61 2.61 2.61h78.061c1.441 0 2.61-1.168 2.61-2.61v-30.229c0-1.441-1.169-2.61-2.61-2.61m-630.1031 0h-61.343c-1.441 0-2.61 1.169-2.61 2.61v30.229c0 1.442 1.169 2.61 2.61 2.61h61.343c1.441 0 2.61-1.168 2.61-2.61v-30.229c0-1.441-1.169-2.61-2.61-2.61"/>
    <path fill="#181221" d="M727.01 314.2239c10.128 0 20.026-2.9 24.013-15.733v.072c-3.066 16.113-13.885 18.415-24.013 18.415H24.013c-10.128 0-20.947-2.302-24.013-18.415v-.072c3.987 12.833 13.885 15.733 24.013 15.733H727.01z"/>
    <path fill="#3a3742" d="M727.01 316.4602c10.128 0 20.026-2.9 24.013-15.733v.072c-3.066 16.113-13.885 18.415-24.013 18.415H24.013c-10.128 0-20.947-2.302-24.013-18.415v-.072c3.987 12.833 13.885 15.733 24.013 15.733H727.01z"/>
    <path fill="#181221" d="M727.01 319.2142c10.128 0 20.947-2.302 24.013-18.415 0 16.228-1.224 32.456-24.013 32.456H24.013C1.225 333.2552 0 317.0272 0 300.7992c3.066 16.113 13.885 18.415 24.013 18.415H727.01zM11.4969 2.2362c-12.421 0-11.481 1.631-11.481 7.078 0 0 1.746-1.764 11.682-1.764h727.627c9.937 0 11.682 1.764 11.682 1.764 0-5.447.94-7.078-11.48-7.078h-728.03z"/>
    <path fill="#3a3742" d="M11.4969 0C-.9241 0 .0159 1.631.0159 7.078c0 0 1.746-1.764 11.682-1.764h727.627c9.937 0 11.682 1.764 11.682 1.764 0-5.447.94-7.078-11.48-7.078h-728.03z"/>
    <path fill="#d3c5c5" d="M56.7343 401.1324c.594.174 1.111.427 1.553.76.441.332.787.741 1.037 1.226.251.484.376 1.043.376 1.675 0 .643-.117 1.177-.351 1.602-.234.425-.545.778-.932 1.062-.386.283-.833.509-1.34.678-.506.169-1.032.313-1.577.433-.479.109-.902.207-1.267.294-.365.088-.672.188-.923.303-.251.114-.441.248-.572.4-.131.153-.196.349-.196.589 0 .381.174.686.523.915.348.229.811.343 1.389.343.61 0 1.095-.131 1.455-.392.359-.262.577-.632.653-1.112h2.73c-.044.6-.191 1.125-.442 1.578-.25.452-.582.83-.996 1.136-.415.304-.905.533-1.471.686-.567.152-1.183.229-1.847.229-.676 0-1.302-.074-1.88-.221-.577-.147-1.078-.37-1.503-.67-.425-.3-.758-.678-.997-1.136-.24-.457-.36-1.002-.36-1.634 0-.632.112-1.152.335-1.561.223-.409.531-.747.924-1.013.392-.267.849-.482 1.372-.646.523-.163 1.079-.31 1.668-.441.435-.098.827-.194 1.176-.286.349-.093.643-.199.883-.319.239-.12.422-.267.547-.441.125-.175.188-.392.188-.654 0-.251-.057-.466-.171-.646-.115-.179-.27-.326-.466-.441-.196-.114-.42-.199-.67-.253-.251-.055-.512-.082-.785-.082-.784 0-1.392.153-1.822.458-.431.305-.684.79-.76 1.454h-2.811c.022-.653.161-1.239.417-1.757.255-.517.618-.95 1.087-1.299.468-.349 1.029-.616 1.683-.801.654-.185 1.389-.278 2.206-.278.697 0 1.343.088 1.937.262m7.3789 2.4596c-.338.474-.507 1.087-.507 1.839 0 .37.041.713.123 1.029.082.316.204.594.368.834.163.239.367.427.613.564.245.136.531.204.858.204.631 0 1.1-.243 1.405-.727.305-.485.458-1.12.458-1.904 0-.785-.158-1.406-.474-1.864-.316-.457-.768-.686-1.357-.686-.654 0-1.149.237-1.487.711m-2.991-5.32h2.566v2.076c0 .468-.008.86-.024 1.177-.017.315-.036.555-.058.719h.033c.251-.425.597-.758 1.038-.997.441-.24.95-.36 1.528-.36.577 0 1.103.109 1.577.327.474.218.877.526 1.21.923.332.398.588.883.768 1.455.179.572.269 1.212.269 1.92 0 .665-.087 1.278-.261 1.839-.175.561-.423 1.046-.744 1.455-.321.408-.714.727-1.177.956-.463.229-.983.343-1.56.343-1.177 0-2.06-.496-2.648-1.487h-.049v1.242h-2.468v-11.588zm15.4937 9.5041c.316-.343.496-.82.539-1.43h-3.71c.087.599.284 1.073.589 1.422.305.348.752.523 1.34.523.512 0 .926-.172 1.242-.515m.409-6.668c.457.136.858.327 1.201.572.343.245.632.534.866.866.234.332.406.689.515 1.071h-2.484c-.142-.273-.341-.483-.597-.63-.256-.147-.586-.22-.989-.22-.621 0-1.106.185-1.454.555-.349.371-.567.883-.654 1.537h6.341c.011.86-.098 1.645-.327 2.353-.228.708-.588 1.302-1.078 1.782-.382.348-.82.621-1.316.817-.496.196-1.054.294-1.675.294-.665 0-1.27-.117-1.814-.351-.545-.235-1.014-.559-1.406-.973-.392-.414-.697-.902-.915-1.463-.218-.561-.327-1.168-.327-1.822 0-.654.106-1.258.319-1.814.212-.556.517-1.041.915-1.455.398-.414.88-.738 1.446-.972.567-.234 1.204-.352 1.913-.352.555 0 1.062.069 1.52.205m9.8465.0488c.496.18.918.428 1.267.744.348.316.623.689.825 1.119.202.43.313.891.335 1.381h-2.468c-.054-.501-.22-.888-.498-1.16-.278-.273-.657-.409-1.136-.409-.654 0-1.142.245-1.463.736-.321.49-.482 1.133-.482 1.928 0 .817.161 1.471.482 1.961.321.491.809.736 1.463.736.425 0 .768-.117 1.029-.351.262-.235.436-.554.524-.957h2.484c-.077.469-.224.902-.442 1.3-.218.397-.498.738-.841 1.021-.343.283-.75.504-1.218.662-.468.158-.992.237-1.569.237-.686 0-1.307-.117-1.863-.351-.556-.235-1.03-.559-1.422-.973-.392-.414-.695-.901-.907-1.462-.212-.562-.319-1.169-.319-1.823 0-.654.109-1.261.327-1.822.218-.561.526-1.049.924-1.463.397-.414.877-.738 1.438-.972.561-.234 1.19-.352 1.887-.352.6 0 1.147.09 1.643.27m3.1134 7.0686h1.307v-4.87c0-.447.066-.815.197-1.104.13-.288.315-.523.555-.702.24-.18.526-.306.858-.376.333-.071.7-.106 1.104-.106.348 0 .648.016.898.049.251.032.447.059.589.081v1.912h-.131c-.087-.011-.185-.019-.294-.024-.109-.006-.207-.008-.294-.008-.305 0-.542.057-.711.171-.169.115-.254.335-.254.662v4.315h1.7v1.634h-1.7v2.779h-2.517v-2.779h-1.307v-1.634zm9.332 1.6343h-2.468v-8.695h2.566v4.037c0 .85.21 1.49.629 1.921.42.43.978.639 1.676.629.174 0 .353-.017.539-.049h.065v2.239c-.098.043-.278.065-.539.065-.545 0-1.013-.131-1.406-.392-.392-.262-.73-.698-1.013-1.308h-.049v1.553zm12.3229-8.6947v8.695h-2.533v-4.92c0-.545-.147-.991-.442-1.34-.294-.349-.702-.523-1.225-.523-.458 0-.804.131-1.038.392-.235.262-.351.638-.351 1.128v5.263h-2.566v-5.753c0-.959.261-1.73.784-2.313.523-.583 1.28-.874 2.272-.874.599 0 1.106.12 1.52.359.414.24.779.616 1.095 1.128h.049v-1.242h2.435zm1.6997 0h2.566v4.952c0 .556.136 1.008.409 1.357.272.348.637.523 1.095.523.424 0 .743-.134.956-.401.212-.267.318-.64.318-1.119v-5.312h2.566v4.952c0 .556.134 1.008.401 1.357.267.348.629.523 1.087.523.413 0 .732-.134.956-.401.223-.267.335-.64.335-1.119v-5.312h2.549v5.737c0 .969-.245 1.746-.735 2.329-.49.582-1.221.874-2.19.874-.556 0-1.065-.128-1.528-.384-.464-.256-.875-.678-1.234-1.267h-.033c-.447 1.101-1.242 1.651-2.386 1.651-.621 0-1.142-.136-1.561-.409-.419-.272-.771-.67-1.054-1.193h-.049v1.357h-2.468v-8.695zm-92.2674 0h10.019v2.386h-4.054c-.25 0-.531-.005-.841-.016-.311-.011-.608-.022-.891-.033-.327-.022-.654-.038-.981-.049v.049l.801.801c.229.229.468.479.719.752.251.272.48.533.687.784l4.331 5.296v2.19h-9.349v-2.354h3.498c.239 0 .506.003.801.008.294.006.572.014.833.025.305.011.616.027.932.049v-.049c-.251-.24-.496-.485-.736-.736-.207-.218-.425-.449-.654-.694-.228-.245-.435-.477-.621-.695l-4.494-5.459v-2.255zm11.2279 0h3.171l1.258 2.141c.142.24.286.504.433.793.147.288.281.558.401.809.141.294.277.588.408.882h.033c.131-.294.261-.588.392-.882.12-.251.248-.521.384-.809.136-.289.275-.553.417-.793l1.226-2.141h3.301l-4.053 6.374 3.677 5.786h-3.04l-.997-1.651c-.141-.24-.286-.499-.433-.776-.147-.278-.28-.543-.4-.793-.142-.284-.278-.578-.409-.883h-.032c-.142.305-.278.599-.409.883-.12.25-.251.515-.392.793-.142.277-.284.536-.425.776l-.981 1.651h-3.187l3.743-5.802-4.086-6.358z"/>
    <path fill="#5b585b" d="M183.582 461.487h9.133v-34.242h-9.133v34.242zm22.826-25.109h22.832v-2.283h-22.832v2.283zm-9.127 15.976v-6.844h31.959v-2.283h-31.959v-15.982h41.092v25.109h-41.092zm45.658 0h9.127v-25.109h-9.127v25.109zm0 9.133h9.127v-6.849h-9.127v6.849zm13.6939-9.1329v-25.109h9.133v18.265h36.525v6.844h-45.658zm-123.2758 0v-25.109h45.658v6.85h-36.525v11.415h36.525v6.844h-45.658zm-50.225 0v-25.109h9.133v18.265h27.393v-18.265h9.132v25.109h-45.658zm-13.6991-.0001h9.133v-25.109h-9.133v25.109zm0 9.133h9.133v-6.849h-9.133v6.849zm-50.2192-9.1329v-15.976h36.526v-2.283h-36.526v-6.85h45.658v15.982h-36.531v2.283h36.531v6.844h-45.658z"/>
    <path fill="#181221" d="M185.818 459.251h9.133v-34.242h-9.133v34.242zm22.826-25.109h22.832v-2.283h-22.832v2.283zm-9.127 15.976v-6.844h31.959v-2.283h-31.959v-15.982h41.092v25.109h-41.092zm45.659 0h9.127v-25.109h-9.127v25.109zm0 9.133h9.127v-6.85h-9.127v6.85zm13.6931-9.1331v-25.109h9.133v18.265h36.525v6.844h-45.658zm-123.2758 0v-25.109h45.658v6.85h-36.525v11.415h36.525v6.844h-45.658zm-50.225 0v-25.109h9.133v18.265h27.393v-18.265h9.132v25.109h-45.658zm-13.6993.0001h9.133v-25.109h-9.133v25.109zm0 9.133h9.133v-6.85h-9.133v6.85zm-50.2189-9.1331v-15.976h36.526v-2.283h-36.526v-6.85h45.658v15.982h-36.531v2.283h36.531v6.844h-45.658z"/>
    <path fill="#3a3742" d="M184.7 460.369h9.133v-34.242H184.7v34.242zm22.826-25.109h22.832v-2.283h-22.832v2.283zm-9.127 15.976v-6.844h31.959v-2.283h-31.959v-15.982h41.092v25.109h-41.092zm45.658 0h9.127v-25.109h-9.127v25.109zm0 9.133h9.127v-6.85h-9.127v6.85zm13.6939-9.133v-25.109h9.133v18.265h36.525v6.844h-45.658zm-123.2757 0v-25.109h45.658v6.849h-36.525v11.416h36.525v6.844h-45.658zm-50.225 0v-25.109h9.133v18.265h27.393v-18.265h9.132v25.109h-45.658zm-13.6992 0h9.133v-25.109h-9.133v25.109zm0 9.133h9.133v-6.85h-9.133v6.85zm-50.219-9.133V435.26h36.526v-2.284H20.332v-6.849H65.99v15.982H29.459v2.283H65.99v6.844H20.332z"/>
  </g>
</svg>
