<?xml version="1.0" encoding="UTF-8" standalone="no"?>
<svg
   xmlns:dc="http://purl.org/dc/elements/1.1/"
   xmlns:cc="http://creativecommons.org/ns#"
   xmlns:rdf="http://www.w3.org/1999/02/22-rdf-syntax-ns#"
   xmlns:svg="http://www.w3.org/2000/svg"
   xmlns="http://www.w3.org/2000/svg"
   viewBox="0 0 956.70374 326.55499"
   height="326.55499"
   width="956.70374"
   xml:space="preserve"
   version="1.1"
   id="svg2"><metadata
     id="metadata8"><rdf:RDF><cc:Work
         rdf:about=""><dc:format>image/svg+xml</dc:format><dc:type
           rdf:resource="http://purl.org/dc/dcmitype/StillImage" /><dc:title></dc:title></cc:Work></rdf:RDF></metadata><defs
     id="defs6"><clipPath
       id="clipPath16"
       clipPathUnits="userSpaceOnUse"><path
         id="path18"
         d="m 0,261.244 765.363,0 L 765.363,0 0,0 0,261.244 Z" /></clipPath></defs><g
     transform="matrix(1.25,0,0,-1.25,0,326.555)"
     id="g10"><g
       id="g12"><g
         clip-path="url(#clipPath16)"
         id="g14"><g
           transform="translate(123.2038,109.4812)"
           id="g20"><path
             id="path22"
             style="fill:#311610;fill-opacity:1;fill-rule:nonzero;stroke:none"
             d="m 0,0 c -18.445,0 -33.398,14.953 -33.398,33.398 0,18.445 14.953,33.398 33.398,33.398 18.445,0 33.398,-14.953 33.398,-33.398 C 33.398,14.953 18.445,0 0,0 m 0,84.897 c -28.442,0 -51.499,-23.057 -51.499,-51.499 0,-28.442 23.057,-51.499 51.499,-51.499 28.442,0 51.499,23.057 51.499,51.499 C 51.499,61.84 28.442,84.897 0,84.897" /></g><g
           transform="translate(301.2965,109.491)"
           id="g24"><path
             id="path26"
             style="fill:#311610;fill-opacity:1;fill-rule:nonzero;stroke:none"
             d="m 0,0 c -18.445,0 -33.398,14.953 -33.398,33.398 0,18.445 14.953,33.398 33.398,33.398 18.445,0 33.398,-14.953 33.398,-33.398 C 33.398,14.953 18.445,0 0,0 m -0.001,98.938 c -36.201,0 -65.548,-29.347 -65.548,-65.549 0,-36.201 29.347,-65.548 65.548,-65.548 36.201,0 65.549,29.347 65.549,65.548 0,36.202 -29.348,65.549 -65.549,65.549" /></g><g
           transform="translate(302.7566,122.9774)"
           id="g28"><path
             id="path30"
             style="fill:#e4e4e3;fill-opacity:1;fill-rule:nonzero;stroke:none"
             d="m 0,0 0,4.348 -2.836,0 0,-4.354 c -6.317,0.43 -11.829,3.793 -15.177,8.744 l 3.774,2.178 -1.419,2.457 -3.771,-2.178 c -1.28,2.634 -1.999,5.59 -1.999,8.715 0,3.149 0.731,6.126 2.029,8.775 l 3.728,-2.153 1.418,2.457 -3.721,2.148 c 3.347,4.914 8.829,8.251 15.112,8.688 l 0,-4.245 2.836,0 0,4.243 c 6.27,-0.446 11.741,-3.781 15.083,-8.687 l -3.68,-2.125 1.418,-2.456 3.686,2.128 c 1.298,-2.648 2.029,-5.625 2.029,-8.773 0,-3.105 -0.709,-6.045 -1.974,-8.667 L 12.808,13.395 11.39,10.939 15.124,8.783 C 11.793,3.83 6.301,0.456 0,0 m -1.459,43.788 c -13.187,0 -23.877,-10.691 -23.877,-23.878 0,-13.187 10.69,-23.877 23.877,-23.877 13.187,0 23.877,10.69 23.877,23.877 0,13.187 -10.69,23.878 -23.877,23.878" /></g><g
           transform="translate(124.5785,122.9711)"
           id="g32"><path
             id="path34"
             style="fill:#e4e4e3;fill-opacity:1;fill-rule:nonzero;stroke:none"
             d="m 0,0 0,4.354 -2.836,0 0,-4.348 C -9.138,0.462 -14.63,3.836 -17.96,8.79 l 3.734,2.155 -1.418,2.456 -3.728,-2.152 c -1.265,2.622 -1.974,5.562 -1.974,8.668 0,3.148 0.731,6.124 2.028,8.773 l 3.687,-2.129 1.418,2.456 -3.68,2.125 c 3.342,4.906 8.812,8.242 15.083,8.687 l 0,-4.243 2.836,0 0,4.245 c 6.283,-0.436 11.765,-3.774 15.112,-8.688 l -3.722,-2.148 1.418,-2.457 3.729,2.153 c 1.298,-2.649 2.029,-5.626 2.029,-8.774 0,-3.125 -0.719,-6.082 -1.999,-8.716 l -3.772,2.178 -1.418,-2.457 3.773,-2.178 C 11.828,3.794 6.317,0.431 0,0 m -1.377,43.794 c -13.187,0 -23.877,-10.691 -23.877,-23.878 0,-13.187 10.69,-23.877 23.877,-23.877 13.187,0 23.877,10.69 23.877,23.877 0,13.187 -10.69,23.878 -23.877,23.878" /></g><g
           transform="translate(419.0161,93.7835)"
           id="g36"><path
             id="path38"
             style="fill:#181221;fill-opacity:1;fill-rule:nonzero;stroke:none"
             d="m 0,0 c 3.754,-3.862 4.934,-5.149 4.934,-5.149 0,0 0.644,-0.429 0.537,-2.252 -0.108,-1.824 0,-59.964 0,-61.787 0,-1.824 -0.537,-1.824 -1.073,-2.467 C 3.862,-72.299 0,-76.804 0,-76.804 L 0,0 Z" /></g><g
           transform="translate(5.4827,93.7835)"
           id="g40"><path
             id="path42"
             style="fill:#181221;fill-opacity:1;fill-rule:nonzero;stroke:none"
             d="m 0,0 c -3.754,-3.862 -4.934,-5.149 -4.934,-5.149 0,0 -0.644,-0.429 -0.537,-2.252 0.108,-1.824 0,-59.964 0,-61.787 0,-1.824 0.537,-1.824 1.073,-2.467 C -3.862,-72.299 0,-76.804 0,-76.804 L 0,0 Z" /></g><g
           transform="translate(301.2973,120.2305)"
           id="g44"><path
             id="path46"
             style="fill:#181221;fill-opacity:1;fill-rule:nonzero;stroke:none"
             d="m 0,0 c -12.513,0 -22.657,10.144 -22.657,22.657 0,12.513 10.144,22.657 22.657,22.657 12.513,0 22.657,-10.144 22.657,-22.657 C 22.657,10.144 12.513,0 0,0 m 11.713,-114.667 c -4.984,0 -9.025,4.041 -9.025,9.025 0,4.984 4.041,9.024 9.025,9.024 4.984,0 9.024,-4.04 9.024,-9.024 0,-4.984 -4.04,-9.025 -9.024,-9.025 m -33.986,10.946 c 0,-1.796 -1.47,-3.265 -3.266,-3.265 l -9.981,0 c -1.797,0 -3.266,1.469 -3.266,3.265 l 0,9.022 c 0,1.796 1.469,3.266 3.266,3.266 l 9.981,0 c 1.796,0 3.266,-1.47 3.266,-3.266 l 0,-9.022 z M -40.962,4.329 c 0,-0.522 -0.49,-0.95 -1.089,-0.95 l -94.852,0 c -0.599,0 -1.089,0.428 -1.089,0.95 l 0,38.759 c 0,0.522 0.49,0.949 1.089,0.949 l 94.852,0 c 0.599,0 1.089,-0.427 1.089,-0.949 l 0,-38.759 z m -98.348,-108.05 c 0,-1.796 -1.469,-3.265 -3.265,-3.265 l -9.982,0 c -1.796,0 -3.266,1.469 -3.266,3.265 l 0,9.022 c 0,1.796 1.47,3.266 3.266,3.266 l 9.982,0 c 1.796,0 3.265,-1.47 3.265,-3.266 l 0,-9.022 z M -178.096,0 c -12.513,0 -22.657,10.144 -22.657,22.657 0,12.513 10.144,22.657 22.657,22.657 12.513,0 22.657,-10.144 22.657,-22.657 C -155.439,10.144 -165.583,0 -178.096,0 m -11.712,-114.667 c -4.985,0 -9.025,4.041 -9.025,9.025 0,4.984 4.04,9.024 9.025,9.024 4.984,0 9.024,-4.04 9.024,-9.024 0,-4.984 -4.04,-9.025 -9.024,-9.025 m 301.308,255.252 -401.268,0 c -4.191,0 -7.62,-3.429 -7.62,-7.62 l 0,-245.575 c 0,-4.191 3.429,-7.62 7.62,-7.62 l 401.268,0 c 4.191,0 7.62,3.429 7.62,7.62 l 0,245.575 c 0,4.191 -3.429,7.62 -7.62,7.62" /></g><g
           transform="translate(260.3351,124.5599)"
           id="g48"><path
             id="path50"
             style="fill:#3e3845;fill-opacity:1;fill-rule:nonzero;stroke:none"
             d="m 0,0 c 0,-0.522 -0.49,-0.95 -1.089,-0.95 l -94.852,0 c -0.598,0 -1.088,0.428 -1.088,0.95 l 0,38.758 c 0,0.523 0.49,0.95 1.088,0.95 l 94.852,0 C -0.49,39.708 0,39.281 0,38.758 L 0,0 Z m 0.415,41.072 -97.859,0 c -0.618,0 -1.123,-0.456 -1.123,-1.014 l 0,-41.358 c 0,-0.557 0.505,-1.013 1.123,-1.013 l 97.859,0 c 0.618,0 1.123,0.456 1.123,1.013 l 0,41.358 c 0,0.558 -0.505,1.014 -1.123,1.014" /></g><g
           transform="translate(358.8794,0)"
           id="g52"><path
             id="path54"
             style="fill:#0f0c12;fill-opacity:1;fill-rule:nonzero;stroke:none"
             d="m 0,0 c -2.609,11.873 -11.335,53.495 -12.268,57.599 -0.96,4.224 -2.688,7.68 -8.064,7.68 l -252.596,0 c -5.376,0 -7.104,-3.456 -8.064,-7.68 C -281.925,53.495 -290.651,11.874 -293.26,0 l 3.998,0 c 3.155,14.544 10.363,48.633 11.551,54.318 1.327,6.353 2.688,7.68 8.064,7.68 l 246.034,0 c 5.376,0 6.737,-1.327 8.064,-7.68 1.188,-5.684 8.396,-39.773 11.551,-54.317 L 0,0 Z" /></g><g
           transform="translate(301.2973,115.3197)"
           id="g56"><path
             id="path58"
             style="fill:#d4d1d1;fill-opacity:1;fill-rule:evenodd;stroke:none"
             d="m 0,0 -178.096,0 c -15.225,0 -27.568,12.343 -27.568,27.568 0,15.226 12.343,27.568 27.568,27.568 L 0,55.136 c 15.225,0 27.568,-12.342 27.568,-27.568 C 27.568,12.343 15.225,0 0,0 m 92.629,108.958 c -0.356,0.41 -13.203,13.816 -13.755,14.408 -0.386,0.414 -1.014,0.425 -1.014,0.425 l -333.816,0 c 0,0 -0.628,-0.011 -1.014,-0.425 -0.552,-0.592 -13.399,-13.998 -13.755,-14.408 -0.552,-0.636 -0.44,-1.038 -0.44,-1.038 l 0,-143.637 c 0,-0.598 0.49,-1.088 1.089,-1.088 l 362.057,0 c 0.598,0 1.088,0.49 1.088,1.088 l 0,143.637 c 0,0 0.112,0.402 -0.44,1.038" /></g><path
           id="path60"
           style="fill:#060809;fill-opacity:1;fill-rule:nonzero;stroke:none"
           d="m 375.329,185.39 -160.839,0 0,53.721 160.839,0 0,-53.721 z" /><path
           id="path62"
           style="fill:#d4d1d1;fill-opacity:1;fill-rule:nonzero;stroke:none"
           d="m 306.671,229.526 4.56,0 0,-17.098 -4.56,0 0,17.098 z" /><path
           id="path64"
           style="fill:#d4d1d1;fill-opacity:1;fill-rule:nonzero;stroke:none"
           d="m 318.069,216.989 11.4,0 0,-1.14 -11.4,0 0,1.14 z m -4.558,7.977 0,-3.417 15.958,0 0,-1.14 -15.958,0 0,-7.981 20.518,0 0,12.538 -20.518,0 z" /><path
           id="path66"
           style="fill:#d4d1d1;fill-opacity:1;fill-rule:nonzero;stroke:none"
           d="m 336.309,224.966 4.557,0 0,-12.537 -4.557,0 0,12.537 z" /><path
           id="path68"
           style="fill:#d4d1d1;fill-opacity:1;fill-rule:nonzero;stroke:none"
           d="m 336.309,229.526 4.557,0 0,-3.42 -4.557,0 0,3.42 z" /><g
           transform="translate(343.1466,224.966)"
           id="g70"><path
             id="path72"
             style="fill:#d4d1d1;fill-opacity:1;fill-rule:nonzero;stroke:none"
             d="m 0,0 0,-12.537 4.56,0 0,9.12 18.238,0 0,3.417 L 0,0 Z" /></g><g
           transform="translate(281.593,224.966)"
           id="g74"><path
             id="path76"
             style="fill:#d4d1d1;fill-opacity:1;fill-rule:nonzero;stroke:none"
             d="m 0,0 0,-12.537 22.798,0 0,3.42 -18.238,0 0,5.7 18.238,0 0,3.417 L 0,0 Z" /></g><g
           transform="translate(256.5149,224.966)"
           id="g78"><path
             id="path80"
             style="fill:#d4d1d1;fill-opacity:1;fill-rule:nonzero;stroke:none"
             d="m 0,0 0,-12.537 4.56,0 0,9.12 13.678,0 0,-9.12 4.56,0 L 22.798,0 0,0 Z" /></g><path
           id="path82"
           style="fill:#d4d1d1;fill-opacity:1;fill-rule:nonzero;stroke:none"
           d="m 249.675,224.966 4.56,0 0,-12.537 -4.56,0 0,12.537 z" /><path
           id="path84"
           style="fill:#d4d1d1;fill-opacity:1;fill-rule:nonzero;stroke:none"
           d="m 249.675,229.526 4.56,0 0,-3.42 -4.56,0 0,3.42 z" /><g
           transform="translate(224.5995,224.966)"
           id="g86"><path
             id="path88"
             style="fill:#d4d1d1;fill-opacity:1;fill-rule:nonzero;stroke:none"
             d="m 0,0 0,-7.977 18.238,0 0,-1.14 -18.238,0 0,-3.42 22.798,0 0,7.98 -18.241,0 0,1.14 18.241,0 0,3.417 L 0,0 Z" /></g><g
           transform="translate(255.5954,197.4102)"
           id="g90"><path
             id="path92"
             style="fill:#d4d1d1;fill-opacity:1;fill-rule:nonzero;stroke:none"
             d="M 0,0 C 0.517,0.152 0.967,0.372 1.351,0.661 1.735,0.951 2.036,1.306 2.255,1.728 2.473,2.15 2.582,2.636 2.582,3.186 2.582,3.746 2.48,4.211 2.276,4.58 2.072,4.95 1.802,5.258 1.465,5.505 1.128,5.752 0.74,5.948 0.299,6.095 -0.142,6.242 -0.6,6.368 -1.074,6.472 -1.491,6.567 -1.859,6.652 -2.176,6.729 -2.494,6.804 -2.762,6.892 -2.98,6.992 -3.198,7.091 -3.364,7.207 -3.478,7.34 c -0.114,0.133 -0.171,0.304 -0.171,0.512 0,0.332 0.152,0.598 0.456,0.797 0.303,0.199 0.706,0.299 1.209,0.299 0.531,0 0.953,-0.114 1.266,-0.342 0.313,-0.227 0.502,-0.55 0.569,-0.967 l 2.375,0 C 2.188,8.16 2.06,8.618 1.842,9.012 1.624,9.405 1.335,9.735 0.974,10 c -0.36,0.266 -0.787,0.465 -1.28,0.598 -0.493,0.132 -1.029,0.199 -1.607,0.199 -0.588,0 -1.134,-0.064 -1.636,-0.192 C -4.052,10.477 -4.488,10.282 -4.858,10.022 -5.228,9.761 -5.517,9.431 -5.726,9.033 -5.934,8.635 -6.039,8.16 -6.039,7.61 c 0,-0.55 0.098,-1.002 0.292,-1.358 0.194,-0.356 0.462,-0.65 0.804,-0.882 0.341,-0.233 0.739,-0.42 1.195,-0.562 0.455,-0.142 0.939,-0.27 1.451,-0.384 0.379,-0.085 0.72,-0.168 1.024,-0.249 C -0.97,4.094 -0.714,4.002 -0.505,3.898 -0.296,3.793 -0.138,3.665 -0.028,3.514 0.08,3.362 0.135,3.172 0.135,2.945 0.135,2.726 0.085,2.539 -0.014,2.383 -0.114,2.226 -0.249,2.098 -0.42,1.999 -0.59,1.899 -0.785,1.825 -1.003,1.778 -1.221,1.731 -1.449,1.707 -1.686,1.707 c -0.682,0 -1.211,0.133 -1.586,0.398 -0.374,0.266 -0.595,0.688 -0.661,1.266 l -2.447,0 c 0.019,-0.569 0.14,-1.079 0.363,-1.529 0.222,-0.45 0.538,-0.827 0.946,-1.131 0.407,-0.303 0.896,-0.536 1.465,-0.697 0.569,-0.161 1.209,-0.242 1.92,-0.242 0.607,0 1.169,0.076 1.686,0.228" /></g><g
           transform="translate(262.0179,199.551)"
           id="g94"><path
             id="path96"
             style="fill:#d4d1d1;fill-opacity:1;fill-rule:nonzero;stroke:none"
             d="m 0,0 c -0.294,0.413 -0.441,0.946 -0.441,1.6 0,0.323 0.036,0.621 0.107,0.897 0.071,0.274 0.178,0.516 0.32,0.725 0.142,0.208 0.32,0.372 0.533,0.491 0.214,0.118 0.463,0.178 0.747,0.178 0.55,0 0.958,-0.212 1.223,-0.633 C 2.755,2.835 2.888,2.283 2.888,1.6 2.888,0.918 2.75,0.377 2.475,-0.021 2.2,-0.42 1.807,-0.619 1.295,-0.619 0.725,-0.619 0.294,-0.412 0,0 m -2.603,-4.63 2.233,0 0,1.806 c 0,0.408 -0.007,0.749 -0.021,1.025 -0.014,0.274 -0.031,0.483 -0.05,0.625 l 0.028,0 c 0.219,-0.369 0.52,-0.659 0.904,-0.867 0.384,-0.209 0.827,-0.313 1.33,-0.313 0.502,0 0.96,0.095 1.373,0.284 0.412,0.19 0.763,0.458 1.052,0.804 C 4.535,-0.92 4.758,-0.498 4.915,0 5.071,0.498 5.15,1.055 5.15,1.671 5.15,2.25 5.074,2.783 4.922,3.272 4.77,3.76 4.554,4.182 4.275,4.538 3.995,4.893 3.653,5.171 3.25,5.37 2.847,5.569 2.394,5.669 1.892,5.669 0.868,5.669 0.1,5.237 -0.413,4.374 l -0.042,0 0,1.081 -2.148,0 0,-10.085 z" /></g><g
           transform="translate(272.9,203.1926)"
           id="g98"><path
             id="path100"
             style="fill:#d4d1d1;fill-opacity:1;fill-rule:nonzero;stroke:none"
             d="m 0,0 c 0.275,-0.299 0.431,-0.714 0.469,-1.245 l -3.229,0 c 0.076,0.522 0.247,0.934 0.512,1.238 0.266,0.303 0.655,0.455 1.167,0.455 C -0.635,0.448 -0.275,0.299 0,0 m 0.356,-5.804 c 0.398,0.119 0.746,0.285 1.045,0.498 0.299,0.213 0.55,0.465 0.754,0.754 0.204,0.289 0.353,0.6 0.448,0.932 l -2.162,0 C 0.318,-3.857 0.144,-4.04 -0.078,-4.168 -0.301,-4.296 -0.588,-4.36 -0.939,-4.36 c -0.54,0 -0.962,0.161 -1.266,0.484 -0.304,0.322 -0.493,0.768 -0.569,1.337 l 5.519,0 C 2.755,-1.79 2.66,-1.107 2.461,-0.491 2.262,0.126 1.949,0.642 1.522,1.06 1.19,1.363 0.808,1.6 0.377,1.771 -0.055,1.942 -0.541,2.027 -1.081,2.027 -1.66,2.027 -2.186,1.925 -2.66,1.721 -3.134,1.517 -3.542,1.235 -3.883,0.875 -4.225,0.514 -4.49,0.09 -4.68,-0.398 c -0.19,-0.489 -0.285,-1.017 -0.285,-1.586 0,-0.569 0.093,-1.096 0.278,-1.579 0.185,-0.484 0.45,-0.906 0.796,-1.266 0.347,-0.361 0.766,-0.643 1.259,-0.847 0.493,-0.204 1.048,-0.306 1.665,-0.306 0.483,0 0.924,0.06 1.323,0.178" /></g><g
           transform="translate(281.826,197.4315)"
           id="g102"><path
             id="path104"
             style="fill:#d4d1d1;fill-opacity:1;fill-rule:nonzero;stroke:none"
             d="m 0,0 c 0.431,0.157 0.799,0.372 1.103,0.647 0.303,0.275 0.542,0.6 0.718,0.975 0.175,0.374 0.272,0.775 0.291,1.202 l -2.147,0 C -0.083,2.387 -0.228,2.051 -0.469,1.814 -0.711,1.577 -1.041,1.458 -1.458,1.458 c -0.569,0 -0.994,0.213 -1.273,0.64 -0.28,0.427 -0.42,0.986 -0.42,1.679 0,0.711 0.14,1.28 0.42,1.707 0.279,0.427 0.704,0.64 1.273,0.64 0.37,0 0.669,-0.102 0.896,-0.306 0.228,-0.204 0.379,-0.481 0.455,-0.832 l 2.163,0 C 1.989,5.393 1.861,5.77 1.672,6.117 1.482,6.463 1.238,6.759 0.939,7.006 0.64,7.252 0.287,7.444 -0.121,7.582 -0.529,7.719 -0.984,7.788 -1.486,7.788 -2.084,7.788 -2.624,7.686 -3.108,7.482 -3.592,7.278 -4.004,6.996 -4.346,6.636 -4.687,6.275 -4.95,5.851 -5.135,5.363 -5.32,4.874 -5.413,4.346 -5.413,3.777 c 0,-0.569 0.095,-1.098 0.285,-1.586 0.189,-0.489 0.457,-0.913 0.804,-1.273 0.346,-0.361 0.763,-0.643 1.251,-0.847 0.489,-0.204 1.036,-0.306 1.643,-0.306 0.522,0 0.998,0.078 1.43,0.235" /></g><g
           transform="translate(284.5359,203.5839)"
           id="g106"><path
             id="path108"
             style="fill:#d4d1d1;fill-opacity:1;fill-rule:nonzero;stroke:none"
             d="m 0,0 1.138,0 0,-4.239 c 0,-0.389 0.057,-0.709 0.171,-0.96 0.114,-0.252 0.275,-0.455 0.483,-0.612 0.209,-0.156 0.458,-0.265 0.747,-0.327 0.289,-0.062 0.609,-0.093 0.96,-0.093 0.304,0 0.564,0.015 0.783,0.043 0.218,0.029 0.389,0.052 0.512,0.071 l 0,1.665 -0.114,0 C 4.604,-4.462 4.519,-4.469 4.424,-4.474 4.329,-4.479 4.244,-4.481 4.168,-4.481 c -0.266,0 -0.472,0.05 -0.619,0.15 -0.147,0.099 -0.22,0.291 -0.22,0.576 l 0,3.755 1.479,0 0,1.423 -1.479,0 0,2.418 -2.191,0 0,-2.418 L 0,1.423 0,0 Z" /></g><g
           transform="translate(292.6584,205.0064)"
           id="g110"><path
             id="path112"
             style="fill:#d4d1d1;fill-opacity:1;fill-rule:nonzero;stroke:none"
             d="m 0,0 -2.148,0 0,-7.568 2.233,0 0,3.514 c 0,0.74 0.183,1.297 0.548,1.671 0.365,0.375 0.851,0.557 1.458,0.548 0.152,0 0.308,-0.014 0.469,-0.043 l 0.057,0 0,1.949 C 2.532,0.109 2.376,0.128 2.148,0.128 1.674,0.128 1.266,0.014 0.925,-0.213 0.583,-0.441 0.289,-0.82 0.043,-1.351 L 0,-1.351 0,0 Z" /></g><g
           transform="translate(303.3839,197.4386)"
           id="g114"><path
             id="path116"
             style="fill:#d4d1d1;fill-opacity:1;fill-rule:nonzero;stroke:none"
             d="m 0,0 0,7.568 -2.205,0 0,-4.282 c 0,-0.474 -0.128,-0.863 -0.384,-1.166 -0.256,-0.304 -0.612,-0.456 -1.067,-0.456 -0.398,0 -0.699,0.114 -0.903,0.342 -0.204,0.227 -0.306,0.555 -0.306,0.981 l 0,4.581 -2.233,0 0,-5.007 c 0,-0.835 0.227,-1.506 0.682,-2.013 0.456,-0.508 1.115,-0.761 1.978,-0.761 0.521,0 0.962,0.104 1.323,0.313 0.36,0.208 0.678,0.535 0.953,0.981 l 0.042,0 L -2.12,0 0,0 Z" /></g><g
           transform="translate(304.8632,197.4386)"
           id="g118"><path
             id="path120"
             style="fill:#d4d1d1;fill-opacity:1;fill-rule:nonzero;stroke:none"
             d="m 0,0 2.233,0 0,4.31 c 0,0.484 0.119,0.877 0.356,1.181 0.237,0.303 0.555,0.455 0.953,0.455 0.37,0 0.647,-0.116 0.832,-0.348 C 4.559,5.365 4.652,5.04 4.652,4.623 l 0,-4.623 2.233,0 0,4.31 c 0,0.484 0.116,0.877 0.348,1.181 C 7.466,5.794 7.781,5.946 8.179,5.946 8.54,5.946 8.817,5.83 9.012,5.598 9.206,5.365 9.303,5.04 9.303,4.623 l 0,-4.623 2.219,0 0,4.993 c 0,0.844 -0.213,1.52 -0.64,2.027 C 10.455,7.527 9.82,7.781 8.976,7.781 8.492,7.781 8.049,7.67 7.646,7.447 7.243,7.224 6.885,6.857 6.572,6.344 l -0.028,0 C 6.155,7.302 5.462,7.781 4.467,7.781 3.926,7.781 3.473,7.663 3.108,7.426 2.743,7.188 2.437,6.842 2.191,6.387 l -0.043,0 0,1.181 L 0,7.568 0,0 Z" /></g><g
           transform="translate(224.5558,197.4386)"
           id="g122"><path
             id="path124"
             style="fill:#d4d1d1;fill-opacity:1;fill-rule:nonzero;stroke:none"
             d="m 0,0 8.72,0 0,2.077 -3.528,0 C 4.974,2.077 4.73,2.072 4.46,2.063 4.189,2.053 3.931,2.044 3.684,2.034 3.4,2.015 3.115,2.001 2.831,1.992 l 0,0.042 0.697,0.697 C 3.727,2.93 3.935,3.148 4.154,3.386 4.372,3.623 4.571,3.85 4.751,4.068 l 3.77,4.609 0,1.906 -8.137,0 0,-2.048 3.044,0 c 0.209,0 0.441,0.002 0.697,0.007 0.256,0.005 0.498,0.012 0.726,0.022 0.265,0.009 0.535,0.023 0.811,0.042 l 0,-0.042 C 5.443,8.355 5.23,8.141 5.021,7.923 4.841,7.734 4.652,7.532 4.452,7.319 4.253,7.105 4.073,6.904 3.912,6.714 L 0,1.963 0,0 Z" /></g><g
           transform="translate(234.3282,197.4386)"
           id="g126"><path
             id="path128"
             style="fill:#d4d1d1;fill-opacity:1;fill-rule:nonzero;stroke:none"
             d="M 0,0 2.76,0 3.855,1.864 C 3.978,2.072 4.104,2.302 4.232,2.553 4.36,2.805 4.476,3.039 4.58,3.258 4.704,3.514 4.822,3.77 4.936,4.026 l 0.029,0 C 5.078,3.77 5.192,3.514 5.306,3.258 5.41,3.039 5.522,2.805 5.64,2.553 5.759,2.302 5.88,2.072 6.003,1.864 L 7.07,0 9.943,0 6.416,5.548 l 3.2,5.035 -2.646,0 L 6.103,9.147 C 5.979,8.938 5.854,8.713 5.726,8.471 5.598,8.229 5.481,7.999 5.377,7.781 5.254,7.534 5.135,7.278 5.021,7.013 l -0.028,0 C 4.87,7.278 4.751,7.534 4.637,7.781 4.533,7.999 4.419,8.229 4.296,8.471 4.173,8.713 4.049,8.938 3.926,9.147 l -0.853,1.436 -2.774,0 L 3.556,5.534 0,0 Z" /></g><g
           transform="translate(483.7807,5.1469)"
           id="g130"><path
             id="path132"
             style="fill:#f05953;fill-opacity:1;fill-rule:evenodd;stroke:none"
             d="m 0,0 c -4.619,0 -8.364,3.745 -8.364,8.364 l 0,48.012 268.727,0 0,-48.012 C 260.363,3.745 256.619,0 251.999,0 L 0,0 Z" /></g><g
           transform="translate(475.8308,51.7934)"
           id="g134"><path
             id="path136"
             style="fill:#bb4243;fill-opacity:1;fill-rule:evenodd;stroke:none"
             d="m 0,0 c -4.619,0 -8.364,3.745 -8.364,8.364 l 0,37.322 284.627,0 0,-37.322 C 276.263,3.745 272.519,0 267.899,0 L 0,0 Z" /></g><g
           transform="translate(475.8308,54.0238)"
           id="g138"><path
             id="path140"
             style="fill:#f05953;fill-opacity:1;fill-rule:evenodd;stroke:none"
             d="m 0,0 c -4.619,0 -8.364,3.745 -8.364,8.364 l 0,37.322 284.627,0 0,-37.322 C 276.263,3.745 272.519,0 267.899,0 L 0,0 Z" /></g><g
           transform="translate(466.0471,87.1697)"
           id="g142"><path
             id="path144"
             style="fill:#3a3742;fill-opacity:1;fill-rule:evenodd;stroke:none"
             d="m 0,0 c -6.663,0 -11.849,1.254 -11.849,5.774 l 0,165.513 c 0,1.539 1.248,2.788 2.788,2.788 l 305.589,0 c 1.539,0 2.788,-1.249 2.788,-2.788 l 0,-165.513 C 299.316,1.254 294.129,0 287.467,0 L 0,0 Z" /></g><g
           transform="translate(478.4687,149.2099)"
           id="g146"><path
             id="path148"
             style="fill:#4a4a51;fill-opacity:1;fill-rule:evenodd;stroke:none"
             d="m 0,0 c -0.616,0 -1.115,0.499 -1.115,1.115 l 0,85.189 c 0,0.616 0.499,1.116 1.115,1.116 l 262.623,0 c 0.616,0 1.116,-0.5 1.116,-1.116 l 0,-85.189 C 263.739,0.499 263.239,0 262.623,0 L 0,0 Z" /></g><g
           transform="translate(459.1467,131.2317)"
           id="g150"><path
             id="path152"
             style="fill:#71707c;fill-opacity:1;fill-rule:evenodd;stroke:none"
             d="m 0,0 c 5.564,-11.334 15.627,-21.021 30.082,-21.021 l 241.103,0 c 14.455,0 24.519,9.687 30.082,21.021 L 0,0 Z" /></g><g
           transform="translate(535.3932,213.2238)"
           id="g154"><path
             id="path156"
             style="fill:#f05953;fill-opacity:1;fill-rule:nonzero;stroke:none"
             d="M 0,0 C 0.765,0.224 1.431,0.55 1.999,0.979 2.568,1.407 3.013,1.933 3.336,2.557 3.659,3.181 3.82,3.901 3.82,4.714 3.82,5.542 3.669,6.23 3.367,6.777 3.066,7.324 2.666,7.78 2.168,8.145 1.67,8.51 1.094,8.801 0.442,9.019 c -0.653,0.217 -1.33,0.403 -2.031,0.557 -0.618,0.14 -1.161,0.267 -1.631,0.379 -0.47,0.112 -0.867,0.242 -1.189,0.389 -0.323,0.148 -0.569,0.319 -0.737,0.516 -0.168,0.197 -0.252,0.449 -0.252,0.758 0,0.491 0.224,0.884 0.673,1.179 0.449,0.294 1.045,0.441 1.789,0.441 0.785,0 1.41,-0.168 1.873,-0.505 0.463,-0.336 0.744,-0.814 0.842,-1.431 l 3.515,0 c -0.057,0.772 -0.246,1.449 -0.568,2.031 -0.323,0.582 -0.751,1.07 -1.284,1.463 -0.534,0.393 -1.165,0.687 -1.895,0.884 -0.729,0.196 -1.522,0.295 -2.378,0.295 -0.87,0 -1.677,-0.095 -2.42,-0.285 -0.744,-0.189 -1.389,-0.477 -1.937,-0.863 -0.547,-0.386 -0.975,-0.873 -1.283,-1.462 -0.309,-0.59 -0.464,-1.291 -0.464,-2.105 0,-0.814 0.144,-1.484 0.432,-2.01 0.287,-0.526 0.684,-0.961 1.189,-1.305 0.505,-0.344 1.095,-0.621 1.768,-0.831 0.674,-0.211 1.389,-0.4 2.147,-0.568 0.561,-0.127 1.066,-0.25 1.515,-0.369 0.449,-0.119 0.828,-0.256 1.137,-0.41 C -0.439,5.612 -0.204,5.423 -0.042,5.199 0.119,4.974 0.2,4.694 0.2,4.357 0.2,4.034 0.126,3.757 -0.021,3.525 -0.168,3.294 -0.368,3.104 -0.621,2.957 -0.873,2.81 -1.161,2.701 -1.484,2.631 -1.807,2.561 -2.143,2.526 -2.494,2.526 c -1.01,0 -1.793,0.196 -2.347,0.589 -0.554,0.393 -0.88,1.017 -0.979,1.873 l -3.62,0 c 0.028,-0.842 0.207,-1.596 0.537,-2.262 0.33,-0.667 0.796,-1.225 1.4,-1.674 0.603,-0.449 1.326,-0.793 2.167,-1.031 0.842,-0.238 1.789,-0.358 2.842,-0.358 0.898,0 1.729,0.113 2.494,0.337" /></g><g
           transform="translate(544.8956,216.3914)"
           id="g158"><path
             id="path160"
             style="fill:#f05953;fill-opacity:1;fill-rule:nonzero;stroke:none"
             d="m 0,0 c -0.435,0.61 -0.653,1.4 -0.653,2.368 0,0.477 0.053,0.919 0.158,1.326 0.106,0.406 0.263,0.764 0.474,1.073 0.21,0.309 0.473,0.551 0.789,0.726 0.316,0.175 0.684,0.263 1.105,0.263 0.814,0 1.417,-0.312 1.81,-0.936 0.393,-0.625 0.589,-1.442 0.589,-2.452 0,-1.011 -0.203,-1.81 -0.61,-2.4 C 3.255,-0.621 2.673,-0.916 1.915,-0.916 1.073,-0.916 0.435,-0.61 0,0 m -3.852,-6.851 3.305,0 0,2.673 c 0,0.604 -0.011,1.108 -0.032,1.516 -0.021,0.406 -0.046,0.715 -0.074,0.926 l 0.043,0 c 0.322,-0.548 0.768,-0.976 1.336,-1.284 0.568,-0.309 1.224,-0.463 1.968,-0.463 0.744,0 1.421,0.14 2.031,0.421 0.61,0.28 1.129,0.676 1.557,1.189 C 6.71,-1.361 7.04,-0.737 7.272,0 7.503,0.737 7.619,1.561 7.619,2.473 7.619,3.329 7.506,4.118 7.282,4.841 7.058,5.563 6.738,6.188 6.325,6.714 5.911,7.24 5.405,7.651 4.809,7.945 4.213,8.24 3.543,8.387 2.799,8.387 1.284,8.387 0.147,7.748 -0.61,6.472 l -0.064,0 0,1.599 -3.178,0 0,-14.922 z" /></g><g
           transform="translate(560.9963,221.7794)"
           id="g162"><path
             id="path164"
             style="fill:#f05953;fill-opacity:1;fill-rule:nonzero;stroke:none"
             d="m 0,0 c 0.407,-0.442 0.638,-1.056 0.695,-1.842 l -4.778,0 c 0.112,0.772 0.365,1.382 0.758,1.831 0.392,0.449 0.968,0.674 1.725,0.674 0.66,0 1.193,-0.221 1.6,-0.663 m 0.526,-8.587 c 0.589,0.175 1.105,0.421 1.547,0.737 0.442,0.315 0.814,0.687 1.116,1.115 0.301,0.428 0.522,0.887 0.663,1.378 l -3.199,0 c -0.183,-0.35 -0.439,-0.62 -0.769,-0.81 -0.329,-0.189 -0.754,-0.284 -1.273,-0.284 -0.8,0 -1.424,0.239 -1.873,0.716 -0.449,0.477 -0.73,1.136 -0.842,1.978 l 8.166,0 C 4.076,-2.649 3.936,-1.638 3.641,-0.726 3.346,0.186 2.883,0.95 2.252,1.568 1.761,2.017 1.196,2.368 0.558,2.62 -0.081,2.873 -0.8,2.999 -1.6,2.999 -2.456,2.999 -3.234,2.848 -3.936,2.547 -4.638,2.245 -5.241,1.827 -5.746,1.294 -6.251,0.761 -6.644,0.133 -6.924,-0.589 c -0.281,-0.723 -0.421,-1.505 -0.421,-2.347 0,-0.842 0.136,-1.621 0.41,-2.336 0.274,-0.716 0.666,-1.34 1.179,-1.873 0.512,-0.534 1.133,-0.951 1.862,-1.253 0.73,-0.301 1.551,-0.452 2.463,-0.452 0.715,0 1.368,0.087 1.957,0.263" /></g><g
           transform="translate(574.2031,213.2554)"
           id="g166"><path
             id="path168"
             style="fill:#f05953;fill-opacity:1;fill-rule:nonzero;stroke:none"
             d="m 0,0 c 0.638,0.231 1.182,0.55 1.631,0.958 0.449,0.407 0.803,0.887 1.063,1.441 0.26,0.554 0.403,1.147 0.432,1.779 l -3.179,0 C -0.123,3.532 -0.337,3.034 -0.694,2.684 -1.052,2.333 -1.54,2.157 -2.157,2.157 c -0.842,0 -1.47,0.316 -1.884,0.947 -0.414,0.632 -0.621,1.46 -0.621,2.484 0,1.052 0.207,1.894 0.621,2.526 0.414,0.631 1.042,0.947 1.884,0.947 0.547,0 0.989,-0.151 1.326,-0.453 0.336,-0.302 0.561,-0.712 0.673,-1.231 l 3.199,0 C 2.943,7.98 2.754,8.538 2.473,9.05 2.192,9.562 1.831,10.001 1.389,10.366 c -0.442,0.364 -0.965,0.648 -1.568,0.852 -0.603,0.203 -1.277,0.305 -2.02,0.305 -0.884,0 -1.684,-0.151 -2.4,-0.452 C -5.314,10.769 -5.925,10.352 -6.43,9.818 -6.935,9.285 -7.324,8.657 -7.598,7.935 -7.872,7.212 -8.008,6.43 -8.008,5.588 c 0,-0.842 0.14,-1.624 0.421,-2.347 0.28,-0.723 0.676,-1.35 1.189,-1.883 0.512,-0.534 1.129,-0.951 1.852,-1.253 0.722,-0.301 1.533,-0.452 2.431,-0.452 0.771,0 1.476,0.115 2.115,0.347" /></g><g
           transform="translate(578.2125,222.3582)"
           id="g170"><path
             id="path172"
             style="fill:#f05953;fill-opacity:1;fill-rule:nonzero;stroke:none"
             d="m 0,0 1.684,0 0,-6.272 c 0,-0.576 0.084,-1.049 0.252,-1.421 0.169,-0.372 0.407,-0.673 0.716,-0.905 0.308,-0.231 0.677,-0.393 1.105,-0.484 0.428,-0.091 0.901,-0.137 1.42,-0.137 0.449,0 0.835,0.021 1.158,0.064 0.323,0.042 0.575,0.076 0.758,0.105 l 0,2.462 -0.169,0 C 6.812,-6.602 6.686,-6.612 6.546,-6.619 6.405,-6.627 6.279,-6.63 6.167,-6.63 c -0.393,0 -0.698,0.074 -0.916,0.221 -0.217,0.147 -0.326,0.432 -0.326,0.853 l 0,5.556 2.189,0 0,2.105 -2.189,0 0,3.578 -3.241,0 0,-3.578 L 0,2.105 0,0 Z" /></g><g
           transform="translate(590.2301,224.4628)"
           id="g174"><path
             id="path176"
             style="fill:#f05953;fill-opacity:1;fill-rule:nonzero;stroke:none"
             d="m 0,0 -3.178,0 0,-11.197 3.304,0 0,5.199 c 0,1.094 0.27,1.918 0.811,2.473 0.54,0.554 1.259,0.824 2.157,0.81 0.224,0 0.456,-0.021 0.694,-0.063 l 0.085,0 0,2.883 C 3.746,0.161 3.515,0.189 3.178,0.189 2.476,0.189 1.873,0.021 1.368,-0.316 0.863,-0.652 0.428,-1.214 0.063,-1.999 L 0,-1.999 0,0 Z" /></g><g
           transform="translate(606.0992,213.2659)"
           id="g178"><path
             id="path180"
             style="fill:#f05953;fill-opacity:1;fill-rule:nonzero;stroke:none"
             d="m 0,0 0,11.197 -3.262,0 0,-6.335 c 0,-0.702 -0.19,-1.277 -0.569,-1.726 -0.378,-0.449 -0.904,-0.674 -1.578,-0.674 -0.589,0 -1.035,0.169 -1.336,0.506 -0.302,0.336 -0.453,0.82 -0.453,1.452 l 0,6.777 -3.304,0 0,-7.409 c 0,-1.234 0.336,-2.227 1.01,-2.978 0.673,-0.75 1.648,-1.126 2.925,-1.126 0.772,0 1.424,0.155 1.958,0.463 0.533,0.309 1.003,0.793 1.41,1.453 l 0.063,0 0,-1.6 L 0,0 Z" /></g><g
           transform="translate(608.2881,213.2659)"
           id="g182"><path
             id="path184"
             style="fill:#f05953;fill-opacity:1;fill-rule:nonzero;stroke:none"
             d="m 0,0 3.304,0 0,6.377 c 0,0.716 0.176,1.298 0.527,1.747 0.35,0.449 0.82,0.674 1.41,0.674 0.547,0 0.957,-0.172 1.231,-0.516 0.274,-0.344 0.41,-0.824 0.41,-1.442 l 0,-6.84 3.305,0 0,6.377 c 0,0.716 0.171,1.298 0.515,1.747 0.344,0.449 0.811,0.674 1.4,0.674 0.533,0 0.944,-0.172 1.231,-0.516 0.288,-0.344 0.432,-0.824 0.432,-1.442 l 0,-6.84 3.283,0 0,7.387 c 0,1.249 -0.316,2.249 -0.947,3 -0.631,0.75 -1.572,1.126 -2.82,1.126 -0.716,0 -1.372,-0.165 -1.968,-0.495 -0.597,-0.33 -1.126,-0.873 -1.589,-1.631 l -0.042,0 c -0.576,1.417 -1.6,2.126 -3.073,2.126 -0.8,0 -1.47,-0.176 -2.01,-0.526 C 4.058,10.636 3.606,10.124 3.241,9.45 l -0.063,0 0,1.747 L 0,11.197 0,0 Z" /></g><g
           transform="translate(493.65,213.2659)"
           id="g186"><path
             id="path188"
             style="fill:#f05953;fill-opacity:1;fill-rule:nonzero;stroke:none"
             d="m 0,0 12.902,0 0,3.073 -5.22,0 C 7.359,3.073 6.998,3.066 6.598,3.052 6.198,3.038 5.816,3.023 5.451,3.01 5.03,2.981 4.609,2.96 4.188,2.947 l 0,0.063 1.032,1.031 C 5.514,4.336 5.823,4.658 6.146,5.009 6.468,5.36 6.763,5.697 7.03,6.02 l 5.577,6.819 0,2.82 -12.039,0 0,-3.031 4.504,0 c 0.309,0 0.653,0.004 1.032,0.011 0.378,0.007 0.736,0.017 1.073,0.031 0.393,0.014 0.793,0.035 1.2,0.063 l 0,-0.063 C 8.054,12.361 7.738,12.046 7.43,11.723 7.163,11.442 6.882,11.144 6.588,10.829 6.293,10.513 6.026,10.215 5.788,9.934 L 0,2.904 0,0 Z" /></g><g
           transform="translate(508.109,213.2659)"
           id="g190"><path
             id="path192"
             style="fill:#f05953;fill-opacity:1;fill-rule:nonzero;stroke:none"
             d="M 0,0 4.083,0 5.704,2.757 C 5.886,3.066 6.072,3.406 6.262,3.778 6.451,4.15 6.623,4.497 6.777,4.82 6.959,5.199 7.135,5.577 7.303,5.956 l 0.042,0 C 7.514,5.577 7.682,5.199 7.851,4.82 8.005,4.497 8.17,4.15 8.345,3.778 8.52,3.406 8.699,3.066 8.882,2.757 L 10.46,0 l 4.252,0 -5.22,8.208 4.736,7.451 -3.915,0 -1.284,-2.126 C 8.847,13.225 8.661,12.891 8.471,12.533 8.282,12.176 8.11,11.835 7.956,11.513 7.773,11.148 7.598,10.769 7.43,10.376 l -0.043,0 c -0.182,0.393 -0.357,0.772 -0.526,1.137 -0.154,0.322 -0.323,0.663 -0.505,1.02 -0.182,0.358 -0.365,0.692 -0.547,1 l -1.263,2.126 -4.104,0 L 5.262,8.187 0,0 Z" /></g></g></g></g></svg>