<svg xmlns="http://www.w3.org/2000/svg" viewBox="0 0 698.626 359.502"><path d="M683.659 350.821h-658c-8.232 0-14.967-6.735-14.967-14.967V23.648c0-8.232 6.735-14.967 14.967-14.967h658c8.232 0 14.967 6.735 14.967 14.967v312.205c0 8.233-6.735 14.968-14.967 14.968z" fill="#d4d3c9"/><path d="M684.46 342.14H23.504c-3.933 0-7.151-3.218-7.151-7.151V24.513c0-3.933 3.218-7.151 7.151-7.151H684.46c3.933 0 7.151 3.218 7.151 7.151v310.476c0 3.933-3.218 7.151-7.151 7.151z" fill="#e4e7d7"/><circle cx="354.464" cy="179.751" r="179.751" fill="#e6e8dd"/><path d="M43.449 179.898a1.824 1.824 0 0 1-.683 1.297L3.112 216.642c-1.203.964-2.987.108-2.987-1.433v-70.905c0-1.542 1.784-2.398 2.987-1.433l39.654 35.447c.419.336.647.811.683 1.297" fill="#f3f4eb" stroke="#bcbdb1" stroke-width=".252" stroke-miterlimit="10"/><circle cx="44.657" cy="34.424" r="11.58" fill="#b7b5ae"/><circle cx="44.657" cy="325.078" r="11.58" fill="#b7b5ae"/><circle cx="663.308" cy="325.078" r="11.58" fill="#b7b5ae"/><circle cx="663.308" cy="34.424" r="11.58" fill="#b7b5ae"/><g fill="#e0e2d5"><path d="M184.401 86.67H163.4a.82.82 0 0 1-.819-.819V64.85a.82.82 0 0 1 .819-.819h21.001a.82.82 0 0 1 .819.819v21.001a.819.819 0 0 1-.819.819zM274.447 86.67h-21.001a.82.82 0 0 1-.819-.819V64.85a.82.82 0 0 1 .819-.819h21.001a.82.82 0 0 1 .819.819v21.001a.82.82 0 0 1-.819.819zM364.493 86.67h-21.001a.82.82 0 0 1-.819-.819V64.85a.82.82 0 0 1 .819-.819h21.001a.82.82 0 0 1 .819.819v21.001a.82.82 0 0 1-.819.819zM454.538 86.67h-21.001a.82.82 0 0 1-.819-.819V64.85a.82.82 0 0 1 .819-.819h21.001a.82.82 0 0 1 .819.819v21.001a.819.819 0 0 1-.819.819zM544.584 86.67h-21.001a.82.82 0 0 1-.819-.819V64.85a.82.82 0 0 1 .819-.819h21.001a.82.82 0 0 1 .819.819v21.001a.82.82 0 0 1-.819.819z"/></g><path d="M184.401 272.563H163.4a.82.82 0 0 0-.819.819v21.001a.82.82 0 0 0 .819.819h21.001a.82.82 0 0 0 .819-.819v-21.001a.819.819 0 0 0-.819-.819zM274.447 272.563h-21.001a.82.82 0 0 0-.819.819v21.001a.82.82 0 0 0 .819.819h21.001a.82.82 0 0 0 .819-.819v-21.001a.82.82 0 0 0-.819-.819zM364.493 272.563h-21.001a.82.82 0 0 0-.819.819v21.001a.82.82 0 0 0 .819.819h21.001a.82.82 0 0 0 .819-.819v-21.001a.82.82 0 0 0-.819-.819zM454.538 272.563h-21.001a.82.82 0 0 0-.819.819v21.001a.82.82 0 0 0 .819.819h21.001a.82.82 0 0 0 .819-.819v-21.001a.819.819 0 0 0-.819-.819zM544.584 272.563h-21.001a.82.82 0 0 0-.819.819v21.001a.82.82 0 0 0 .819.819h21.001a.82.82 0 0 0 .819-.819v-21.001a.82.82 0 0 0-.819-.819z" fill="#e0e2d5"/><g fill="#050102"><circle cx="102.342" cy="134.799" r="3.489"/><circle cx="113.832" cy="134.799" r="3.489"/><circle cx="102.342" cy="146.034" r="3.489"/><circle cx="113.832" cy="146.034" r="3.489"/><circle cx="102.342" cy="157.268" r="3.489"/><circle cx="113.832" cy="157.268" r="3.489"/><circle cx="102.342" cy="168.502" r="3.489"/><circle cx="113.832" cy="168.502" r="3.489"/><circle cx="102.342" cy="179.737" r="3.489"/><circle cx="113.832" cy="179.737" r="3.489"/><circle cx="102.342" cy="190.971" r="3.489"/><circle cx="113.832" cy="190.971" r="3.489"/><circle cx="102.342" cy="202.206" r="3.489"/><circle cx="113.832" cy="202.206" r="3.489"/><circle cx="102.342" cy="213.44" r="3.489"/><circle cx="113.832" cy="213.44" r="3.489"/><circle cx="102.342" cy="224.675" r="3.489"/><circle cx="113.832" cy="224.675" r="3.489"/></g><path d="M577.199 228.164H131.687a1.683 1.683 0 0 1-1.678-1.678v-93.499c0-.923.755-1.678 1.678-1.678h445.512c.923 0 1.678.755 1.678 1.678v93.499a1.684 1.684 0 0 1-1.678 1.678z" fill="#aaaba9"/><path d="M575.643 227.195H135.059a1.657 1.657 0 0 1-1.652-1.652v-91.614c0-.908.743-1.652 1.652-1.652h440.585c.908 0 1.652.743 1.652 1.652v91.614a1.658 1.658 0 0 1-1.653 1.652z" fill="#f2f2f2"/><path fill="#161716" d="M308.351 164.695v-25.019h-4.292l.071 16.088-19.838-15.884.07 25.088h3.728v-16.225l20.261 15.952M311.094 165.104l3.306-5.453h-3.025v-3.817h4.995l9.075-15.952 14.491 25.223h-5.135l-2.955-5.453h-12.873l-3.096 5.453h-4.783m9.638-9.341h9.286l-4.643-8.248-4.643 8.248M376.659 165.104h-4.221v-25.155l14.351 16.156 14.492-16.497v25.496h-4.503l-.069-13.703-9.99 11.657-10.06-11.589v13.635M409.512 139.335h4.221v25.768h-4.221zM417.742 143.629v-3.613h-1.196v-.681h3.308v.681h-1.268v3.613z"/><path d="M339.797 152.765c0-7.566 6.331-13.702 14.14-13.702s14.14 6.136 14.14 13.702c0 7.568-6.331 13.703-14.14 13.703-7.809-.001-14.14-6.136-14.14-13.703m14.14 9.612c5.487 0 9.919-4.295 9.919-9.612 0-5.249-4.432-9.544-9.919-9.544-5.417 0-9.849 4.295-9.849 9.544 0 5.317 4.432 9.612 9.849 9.612" fill="#c22b08"/><path fill="#161716" d="M422.526 143.608l-1.267-2.773v2.794h-.844v-4.294h.915l1.196 2.659 1.196-2.635h.915v4.295h-.844v-2.794z"/><path d="M551.614 175.779h-394.3a1.155 1.155 0 0 1-1.155-1.155v-.149c0-.638.517-1.155 1.155-1.155h394.3c.638 0 1.155.517 1.155 1.155v.149c0 .638-.517 1.155-1.155 1.155z" fill="#c22b08"/><g><path d="M91.278 114.076v136.457c0 1.155-.929 2.1-2.063 2.1H54.869c-1.135 0-2.063-.945-2.063-2.1V114.076c0-1.155.929-2.1 2.063-2.1h34.345c1.135-.001 2.064.944 2.064 2.1z" fill="#f2f2f2"/><g fill="#53554e"><path d="M61.815 119.795c0 1.085-.365 1.996-1.094 2.731-.729.736-1.583 1.102-2.561 1.102a3.432 3.432 0 0 1-1.878-.545 3.656 3.656 0 0 1-1.314-1.428 3.988 3.988 0 0 1-.457-1.861c0-1.086.363-1.996 1.091-2.731.728-.736 1.581-1.102 2.559-1.102.684 0 1.311.181 1.883.545a3.66 3.66 0 0 1 1.314 1.427c.305.589.457 1.21.457 1.862zm-.6 0c0-.912-.317-1.685-.95-2.317-.589-.587-1.29-.879-2.104-.879-.876 0-1.615.334-2.216 1.004a3.173 3.173 0 0 0-.834 2.192c0 .909.317 1.68.95 2.316.585.587 1.285.879 2.1.879.876 0 1.614-.334 2.216-1.003a3.17 3.17 0 0 0 .838-2.192zm-3.65 1.238l-.175.62a1.62 1.62 0 0 1-.975-.662 2.017 2.017 0 0 1-.351-1.181c0-.579.179-1.059.539-1.442.358-.382.874-.574 1.547-.574s1.185.189 1.538.568c.353.378.529.875.529 1.491 0 .426-.1.793-.3 1.098-.2.307-.481.516-.842.627l-.14-.607a1.16 1.16 0 0 0 .554-.457c.123-.2.187-.429.187-.686 0-.384-.132-.706-.393-.962-.263-.257-.651-.385-1.166-.385-.492 0-.862.122-1.112.367a1.22 1.22 0 0 0-.374.912c0 .298.081.566.244.801.162.237.393.393.69.472zM57.082 124.873l.066.648c-.333.034-.593.113-.779.235a1.302 1.302 0 0 0-.448.524 1.704 1.704 0 0 0-.169.769c0 .409.095.726.286.952a.931.931 0 0 0 .744.339.874.874 0 0 0 .468-.123.905.905 0 0 0 .327-.371c.086-.165.206-.524.361-1.073.139-.489.279-.837.42-1.045.141-.207.319-.368.535-.483.217-.116.461-.173.733-.173.491 0 .892.165 1.203.496.311.331.466.777.466 1.338 0 .385-.072.723-.219 1.013a1.602 1.602 0 0 1-.628.673 2 2 0 0 1-.963.257l-.058-.661c.394-.035.686-.158.876-.369.19-.212.284-.508.284-.891 0-.389-.082-.685-.25-.889a.796.796 0 0 0-.647-.307c-.245 0-.435.075-.571.224-.134.15-.272.487-.41 1.01-.135.512-.253.871-.353 1.078a1.733 1.733 0 0 1-.61.718c-.251.16-.552.242-.903.242-.347 0-.662-.085-.947-.255a1.68 1.68 0 0 1-.649-.693c-.149-.292-.223-.644-.223-1.056 0-.642.184-1.154.553-1.535.374-.379.874-.577 1.505-.592zM55.133 130.016h6.059v3.752h-.715v-3.065h-1.851v2.871h-.715v-2.871h-2.062v3.186h-.716zM57.507 137.343h.715l.005 2.198h-2.252a3.742 3.742 0 0 1-.709-1.045 2.72 2.72 0 0 1-.238-1.11c0-.506.121-.959.363-1.356.243-.397.597-.711 1.064-.943.465-.232 1.025-.348 1.679-.348.661 0 1.237.117 1.728.35.491.233.852.539 1.085.915.233.377.349.824.349 1.338 0 .38-.068.713-.202.997a1.852 1.852 0 0 1-.574.704c-.249.185-.589.323-1.021.415l-.198-.617c.342-.083.597-.189.767-.315.169-.127.302-.294.399-.501.097-.207.144-.44.144-.699 0-.376-.088-.702-.262-.973-.176-.272-.448-.491-.818-.656-.369-.165-.82-.248-1.352-.248-.811 0-1.418.177-1.823.531-.404.354-.605.815-.605 1.381 0 .271.061.547.186.831.123.284.271.509.442.676h1.128v-1.525zM55.133 140.035l6.058 2.001v.735l-6.058 2.125v-.786l1.834-.603v-2.183l-1.834-.565v-.724zm2.488 1.49v1.768l1.678-.54c.515-.167.935-.289 1.256-.367a8.6 8.6 0 0 1-1.157-.284l-1.777-.577zM57.082 146.949l.066.648c-.333.035-.593.113-.779.235-.186.122-.335.297-.448.524s-.169.483-.169.769c0 .409.095.726.286.952a.931.931 0 0 0 .744.339.874.874 0 0 0 .468-.123.902.902 0 0 0 .327-.372c.086-.165.206-.524.361-1.073.139-.489.279-.837.42-1.045.141-.207.319-.368.535-.483.217-.116.461-.173.733-.173.491 0 .892.165 1.203.497.311.331.466.777.466 1.338 0 .385-.072.723-.219 1.012-.146.289-.356.514-.628.673s-.593.245-.963.257l-.058-.661c.394-.034.686-.158.876-.369.19-.212.284-.508.284-.891 0-.389-.082-.685-.25-.889a.796.796 0 0 0-.647-.307c-.245 0-.435.075-.571.224-.134.15-.272.487-.41 1.01-.135.512-.253.871-.353 1.078a1.733 1.733 0 0 1-.61.718 1.637 1.637 0 0 1-.903.242c-.347 0-.662-.085-.947-.255-.284-.17-.501-.4-.649-.693-.149-.292-.223-.644-.223-1.056 0-.642.184-1.154.553-1.535.374-.378.874-.577 1.505-.591zM55.133 152.093h6.059v3.752h-.715v-3.065h-1.851v2.87h-.715v-2.87h-2.062v3.186h-.716zM55.133 156.973h6.058v2.301c0 .48-.057.835-.169 1.064s-.301.417-.564.564c-.262.147-.567.22-.914.22-.457 0-.828-.124-1.111-.374-.283-.249-.464-.611-.541-1.086-.111.193-.223.34-.337.44a4.264 4.264 0 0 1-.773.54l-1.649.907v-.864l1.26-.692c.493-.269.824-.471.995-.608.172-.136.287-.269.347-.396.059-.128.089-.308.089-.537v-.793h-2.69v-.686zm3.385.686v1.476c0 .323.037.567.112.734s.192.299.351.397c.16.098.346.147.558.147.306 0 .546-.094.722-.281.175-.187.262-.465.262-.833v-1.641h-2.005zM55.133 164.328h6.059v.703l-4.766 2.729h4.766v.656h-6.059v-.703l4.768-2.725h-4.768zM57.427 169.311c.758 0 1.33.166 1.715.499.386.332.579.754.579 1.263a1.6 1.6 0 0 1-.579 1.256c-.385.337-.942.505-1.669.505-.788 0-1.374-.165-1.76-.497a1.592 1.592 0 0 1-.579-1.265c0-.504.194-.923.581-1.259.386-.335.958-.502 1.712-.502zm.002.652c-.568 0-.99.108-1.268.324-.277.216-.415.483-.415.803 0 .299.14.556.42.771.28.214.701.321 1.264.321.566 0 .987-.108 1.265-.324.277-.216.415-.483.415-.803 0-.302-.139-.56-.418-.773-.279-.212-.701-.319-1.263-.319zM55.028 173.845h.847v.725h-.847z"/></g><path d="M70.226 131.679v-.675h21.052v.675H70.226zm0-7.319v-.675h21.052v.675H70.226zm0-2.93v-.675h21.052v.675H70.226zm0 8.778v-2.134h21.052v2.134H70.226zm0-2.918v-2.147h21.052v2.147H70.226zm0 16.094v-.675h21.052v.675H70.226zm0-1.471v-.675h21.052v.675H70.226zm0-1.46v-.675h21.052v.675H70.226zm0-5.86v-2.134h21.052v2.134H70.226zm0 4.401v-2.146h21.052v2.146H70.226zm0 5.845v-.675h21.052v.675H70.226zm0 10.249v-.675h21.052v.675H70.226zm0-5.86v-.675h21.052v.675H70.226zm0 4.389v-2.134h21.052v2.134H70.226zm0-5.848v-2.146h21.052v2.146H70.226zm0 13.164v-.675h21.052v.675H70.226zm0-1.459v-.675h21.052v.675H70.226zm0 2.93v-.688h21.052v.688H70.226zm0-4.401v-2.134h21.052v2.134H70.226zm0 8.79v-2.146h21.052v2.146H70.226zm0 1.455v-.675h21.052v.675H70.226zm0 10.25v-.675h21.052v.675H70.226zm0-5.86v-.675h21.052v.675H70.226zm0 4.389v-2.134h21.052v2.134H70.226zm0-5.849v-2.146h21.052v2.146H70.226zm0 8.775v-.675h21.052v.675H70.226zm0 7.319v-.675h21.052v.675H70.226zm0 2.93v-.675h21.052v.675H70.226zm0-4.389v-2.147h21.052v2.147H70.226zm0-2.93v-2.146h21.052v2.146H70.226zm0 17.553v-.675h21.052v.675H70.226zm0-5.848v-.675h21.052v.675H70.226zm0 7.319v-.675h21.052v.675H70.226zm0-8.79v-2.134h21.052v2.134H70.226zm0 4.401v-2.147h21.052v2.147H70.226zm0 13.163v-.675h21.052v.675H70.226zm0-5.86v-.675h21.052v.675H70.226zm0-1.459v-.675h21.052v.675H70.226zm0 4.39v-2.134h21.052v2.134H70.226zm0 5.86v-2.146h21.052v2.146H70.226zm0 1.455v-.675h21.052v.675H70.226zm0 10.249v-.675h21.052v.675H70.226zm0-5.86v-.675h21.052v.675H70.226zm0 4.389v-2.134h21.052v2.134H70.226zm0-5.848v-2.147h21.052v2.147H70.226zm0 16.094v-.675h21.052v.675H70.226zm0-4.389v-.675h21.052v.675H70.226zm0 1.459v-.675h21.052v.675H70.226zm0-2.93v-2.134h21.052v2.134H70.226zm0 8.79v-2.146h21.052v2.146H70.226zm0 11.704v-.675h21.052v.675H70.226zm0-7.319v-.675h21.052v.675H70.226zm0-2.93v-.675h21.052v.675H70.226zm0 8.778v-2.134h21.052v2.134H70.226zm0-2.918v-2.146h21.052v2.146H70.226z" fill="#5f5f5f"/></g><g fill="#050102"><circle cx="608.745" cy="134.813" r="3.489"/><circle cx="597.255" cy="134.813" r="3.489"/><circle cx="608.745" cy="146.048" r="3.489"/><circle cx="597.255" cy="146.048" r="3.489"/><circle cx="608.745" cy="157.282" r="3.489"/><circle cx="597.255" cy="157.282" r="3.489"/><circle cx="608.745" cy="168.517" r="3.489"/><circle cx="597.255" cy="168.517" r="3.489"/><circle cx="608.745" cy="179.751" r="3.489"/><circle cx="597.255" cy="179.751" r="3.489"/><circle cx="608.745" cy="190.985" r="3.489"/><circle cx="597.255" cy="190.985" r="3.489"/><circle cx="608.745" cy="202.22" r="3.489"/><circle cx="597.255" cy="202.22" r="3.489"/><circle cx="608.745" cy="213.454" r="3.489"/><circle cx="597.255" cy="213.454" r="3.489"/><circle cx="608.745" cy="224.689" r="3.489"/><circle cx="597.255" cy="224.689" r="3.489"/></g><g><path d="M180.942 155.149a5.111 5.111 0 0 0 3.572 1.455l21.946.002-4.74-14.168c-.646-1.504-2.166-2.558-3.989-2.558-1.818 0-3.359 1.088-3.982 2.587l-1.58 4.615-.008-6.963-7.662-.004a5.045 5.045 0 0 0-3.548 1.436l.003-1.43h-7.848a5.13 5.13 0 0 0-3.72 1.605v-1.612l-7.396.006c-3.192-.002-5.812 2.498-5.815 5.803 0 1.532.668 2.918 1.653 3.946l-1.668-.002v6.735l7.452-.001c2.094-.002 4.169-1.269 4.889-2.785l.022-.062a5.112 5.112 0 0 0 4.584 2.848l7.835-.001v-1.452z" fill="#fff"/><path d="M157.312 155.451l6.283-.006a4.651 4.651 0 0 0 4.654-4.646 4.65 4.65 0 0 0-4.654-4.649l-1.632.008a.235.235 0 0 1-.234-.236c0-.13.105-.236.234-.236l6.271.001.002-1.97h-6.274a2.202 2.202 0 0 0-2.202 2.199c0 1.215.988 2.199 2.202 2.199l1.639.021a2.664 2.664 0 0 1 2.666 2.659 2.665 2.665 0 0 1-2.666 2.662h-6.288l-.001 1.994z" fill="#0057f0"/><path d="M157.314 152.994h6.288a2.198 2.198 0 1 0 0-4.396l-1.639-.017a2.662 2.662 0 0 1 0-5.323l6.274-.001-.002-1.979h-6.271a4.65 4.65 0 0 0-4.654 4.645 4.652 4.652 0 0 0 4.654 4.647l1.623.002.228.228-.228.226-6.274.005.001 1.963zM173.121 153.47a1.975 1.975 0 0 1-1.983-1.98v-6.291c0-1.068.893-1.949 1.983-1.949l6.708.002v-1.975h-6.708a3.947 3.947 0 0 0-3.951 3.944v6.269a3.948 3.948 0 0 0 3.951 3.946l6.68.003-.002-1.971-6.678.002z" fill="#0057f0"/><path d="M171.619 145.221c0-.834.669-1.509 1.502-1.509h6.708v1.977h-5.779c-.463 0-.469.462-.469.462h4.82v1.968h-6.784l.002-2.898zM173.121 152.991a1.502 1.502 0 0 1-1.505-1.501v-2.902h6.784v1.973h-4.82c.006.464.469.466.469.466h5.751l-.002 1.961-6.677.003zM184.528 153.465a1.979 1.979 0 0 1-1.974-1.975v-6.269c0-1.09.881-1.971 1.969-1.971h6.496v-1.973h-6.512a3.947 3.947 0 0 0-3.949 3.944v6.269c0 2.179 1.783 3.946 3.965 3.946l6.496.003v-9.287h-5.583v1.968h3.61v5.346h-4.518z" fill="#0057f0"/><path d="M183.017 151.49a1.51 1.51 0 0 0 1.506 1.513h4.057v-4.417h-3.14v1.975h1.166l.004.464h-1.16a.466.466 0 0 1-.462-.464l-.009-4.411s-.001-.46.465-.471h5.577l-.003-1.968-6.496.001c-.833 0-1.506.675-1.506 1.509v6.269z" fill="#0057f0"/><path d="M202.165 141.452c0-.317.123-.617.351-.843.224-.226.525-.349.842-.349a1.19 1.19 0 0 1 1.197 1.192 1.197 1.197 0 0 1-2.04.846 1.183 1.183 0 0 1-.35-.846m1.193 1.391a1.388 1.388 0 1 0 0-2.775 1.387 1.387 0 1 0 0 2.775z"/><path d="M203.004 141.4h.407l.188-.015c.142-.035.192-.136.192-.248l-.09-.216-.301-.066h-.396v.545m0 .169v.656h-.202v-1.539h.571c.214.002.341.002.46.094a.42.42 0 0 1 .164.356c0 .36-.292.407-.366.421l.432.668h-.243l-.421-.656h-.395z"/><path d="M202.127 153.465h-5.247v1.972h7.984l-4.152-12.308c-.365-1.201-1.563-2.083-2.983-2.083-1.422 0-2.619.88-2.984 2.077l-4.19 12.313h2.089l4.067-11.969a1.102 1.102 0 0 1 2.027-.002l3.389 10z" fill="#0057f0"/><path d="M193.136 155.437l3.987-11.754a.643.643 0 0 1 1.214 0l3.152 9.334h-4.616l.003-1.754-1.412 4.173h-2.328zm3.741-4.174zm1.544-.442l-.694-2.069-.7 2.069h1.394z" fill="#0057f0"/></g></svg>