<?xml version="1.0" encoding="UTF-8" standalone="no"?>
<svg
   xmlns:dc="http://purl.org/dc/elements/1.1/"
   xmlns:cc="http://creativecommons.org/ns#"
   xmlns:rdf="http://www.w3.org/1999/02/22-rdf-syntax-ns#"
   xmlns:svg="http://www.w3.org/2000/svg"
   xmlns="http://www.w3.org/2000/svg"
   xmlns:sodipodi="http://sodipodi.sourceforge.net/DTD/sodipodi-0.dtd"
   xmlns:inkscape="http://www.inkscape.org/namespaces/inkscape"
   viewBox="0 0 400.00001 282.35842"
   id="svg2"
   version="1.1"
   inkscape:version="0.91 r13725"
   sodipodi:docname="console.svg"
   inkscape:export-filename="C:\Users\xizor\Desktop\recalbox-multi-v32\amiga600\data\console.png"
   inkscape:export-xdpi="63.169998"
   inkscape:export-ydpi="63.169998"
   width="400"
   height="282.35843">
  <metadata
     id="metadata368">
    <rdf:RDF>
      <cc:Work
         rdf:about="">
        <dc:format>image/svg+xml</dc:format>
        <dc:type
           rdf:resource="http://purl.org/dc/dcmitype/StillImage" />
        <dc:title></dc:title>
      </cc:Work>
    </rdf:RDF>
  </metadata>
  <defs
     id="defs366" />
  <sodipodi:namedview
     pagecolor="#ffffff"
     bordercolor="#666666"
     borderopacity="1"
     objecttolerance="10"
     gridtolerance="10"
     guidetolerance="10"
     inkscape:pageopacity="0"
     inkscape:pageshadow="2"
     inkscape:window-width="1920"
     inkscape:window-height="1027"
     id="namedview364"
     showgrid="false"
     inkscape:zoom="0.78223398"
     inkscape:cx="-19.606152"
     inkscape:cy="114.7297"
     inkscape:window-x="-8"
     inkscape:window-y="-8"
     inkscape:window-maximized="1"
     inkscape:current-layer="svg2"
     fit-margin-top="0"
     fit-margin-left="0"
     fit-margin-right="0"
     fit-margin-bottom="0" />
  <path
     d="m 9.2653252,136.73373 -7.4871315,0 C 0.18717828,136.73373 0,136.54656 0,134.01964 L 0,2.5269 C 0,0.56152 0.28076744,0 2.5269068,0 L 392.23211,0 c 4.58585,0 4.77302,0.37436 4.77302,4.77304 l 0,27.140853 c 0,0.56152 0,0.65512 -0.65512,0.65512 l -2.80768,0 c -0.65512,0 -0.74869,0.1872 -0.74869,0.65512 l 0,91.249427 6.27045,0 c 0.84232,0 0.93591,0.28076 0.93591,0.56152 l 0,10.57557 c 0,0.93591 -0.0936,1.12308 -1.40384,1.12308 l -389.3308348,0 z"
     id="path4"
     inkscape:connector-curvature="0"
     style="fill:#cfd0cf;fill-rule:evenodd" />
  <path
     stroke-miterlimit="10"
     d="m 5.4281704,136.73373 0,-70.84697 c 0,-2.058987 0,-3.4628 3.4627983,-3.4628 l 383.9962413,0"
     id="path6"
     inkscape:connector-curvature="0"
     style="fill:none;stroke:#9b9a9a;stroke-width:1.8717829;stroke-miterlimit:10" />
  <path
     d="m 11.885821,282.35844 c -5.334581,0 -6.4576506,-4.21152 -6.4576506,-8.04867 l 0,-208.329437 c 0,-2.05896 0,-3.4628 3.4627983,-3.4628 l 384.6513813,0 c 3.4628,0 3.4628,1.31024 3.4628,3.4628 l 0,208.329437 c 0,3.83715 -1.02948,8.04867 -6.45766,8.04867 l -378.661669,0 z"
     id="path8"
     inkscape:connector-curvature="0"
     style="fill:#cfd0cf;fill-rule:evenodd" />
  <path
     d="m 202.52689,97.98781 141.88115,0 c 0.37436,0 0.56155,0.28079 0.56155,0.56155 l 0,21.89985 c 0,0.37436 -0.28078,0.56155 -0.56155,0.56155 l -141.88113,0 c -0.37435,0 -0.56152,-0.28079 -0.56152,-0.56155 l 0,-21.89985 c 0,-0.28076 0.1872,-0.56155 0.56152,-0.56155 z m 155.63876,0 28.35751,0 c 0.37436,0 0.56155,0.28079 0.56155,0.56155 l 0,21.89985 c 0,0.37436 -0.28078,0.56155 -0.56155,0.56155 l -28.35751,0 c -0.37436,0 -0.56153,-0.28079 -0.56153,-0.56155 l 0,-21.89985 c -0.0936,-0.28076 0.1872,-0.56155 0.56153,-0.56155 z m -306.878799,0 141.506789,0 c 0.37435,0 0.56153,0.28079 0.56153,0.56155 l 0,21.89985 c 0,0.37436 -0.28077,0.56155 -0.56153,0.56155 l -141.506789,0 c -0.374356,0 -0.561535,-0.28079 -0.561535,-0.56155 l 0,-21.89985 c 0,-0.28076 0.18718,-0.56155 0.561535,-0.56155 z m -34.721572,0 21.431913,0 c 0.374356,0 0.561536,0.28079 0.561536,0.56155 l 0,21.89985 c 0,0.37436 -0.280768,0.56155 -0.561536,0.56155 l -21.431913,0 c -0.374358,0 -0.561535,-0.28079 -0.561535,-0.56155 l 0,-21.89985 c -0.09359,-0.28076 0.187177,-0.56155 0.561535,-0.56155 z m 371.080961,126.62612 0,22.74216 c 0,0.37436 -0.28077,0.56155 -0.56153,0.56155 l -353.11185,0 c -0.374357,0 -0.561536,-0.28079 -0.561536,-0.56155 l 0,-19.74729 c 0,0 0.748715,-2.62051 -1.965372,-2.62051 l -15.255031,0 c -0.374356,0 -0.561534,-0.28077 -0.561534,-0.56153 l 0,-90.12635 c 0,-0.37436 0.280768,-0.56153 0.561534,-0.56153 l 370.332239,0 c 0.37436,0 0.56155,0.28076 0.56155,0.56153 l 0,21.89987 c 0,0 -0.65512,1.40384 -2.43332,1.40384 l -17.78195,0 c -1.40384,0 -1.7782,0.65512 -1.7782,1.40381 l 0,64.20216 c 0,0.37436 0.0936,0.56155 0.56155,0.56155 l 20.68318,0 c 1.12308,-0.0936 1.31027,0.37436 1.31027,0.84229 z"
     id="path10"
     inkscape:connector-curvature="0"
     style="fill:#0c0c0d;fill-rule:evenodd" />
  <path
     d="m 7.206364,8.04866 382.686006,0 c 0.1872,0 0.28078,0.0936 0.28078,0.28076 l 0,3.08844 c 0,0.1872 -0.0936,0.28078 -0.28078,0.28078 l -382.686006,0 c -0.187178,0 -0.2807673,-0.0936 -0.2807673,-0.28078 l 0,-3.08844 c 0,-0.0936 0.093591,-0.28076 0.2807673,-0.28076 z m 0,7.01918 382.686006,0 c 0.1872,0 0.28078,0.0936 0.28078,0.280773 l 0,3.08844 c 0,0.1872 -0.0936,0.28076 -0.28078,0.28076 l -382.686006,0 c -0.187178,0 -0.2807673,-0.0936 -0.2807673,-0.28076 l 0,-3.08844 c 0,-0.1872 0.093591,-0.280773 0.2807673,-0.280773 z m 0,7.0192 382.686006,0 c 0.1872,0 0.28078,0.0936 0.28078,0.28076 l 0,3.08844 c 0,0.1872 -0.0936,0.28076 -0.28078,0.28076 l -382.686006,0 c -0.187178,0 -0.2807673,-0.0936 -0.2807673,-0.28076 l 0,-3.08844 c 0,-0.1872 0.093591,-0.28076 0.2807673,-0.28076 z m 0,7.019173 382.686006,0 c 0.1872,0 0.28078,0.0936 0.28078,0.280774 l 0,3.088426 c 0,0.1872 -0.0936,0.280787 -0.28078,0.280787 l -382.686006,0 c -0.187178,0 -0.2807673,-0.0936 -0.2807673,-0.280787 l 0,-3.088426 c 0,-0.187214 0.093591,-0.280774 0.2807673,-0.280774 z m 0,7.019187 382.686006,0 c 0.1872,0 0.28078,0.0936 0.28078,0.280773 l 0,3.08844 c 0,0.187214 -0.0936,0.28076 -0.28078,0.28076 l -382.686006,0 c -0.187178,0 -0.2807673,-0.0936 -0.2807673,-0.28076 l 0,-3.08844 c 0,-0.1872 0.093591,-0.280773 0.2807673,-0.280773 z m 0,7.019173 382.686006,0 c 0.1872,0 0.28078,0.0936 0.28078,0.280787 l 0,3.08844 c 0,0.1872 -0.0936,0.28076 -0.28078,0.28076 l -382.686006,0 c -0.187178,0 -0.2807673,-0.0936 -0.2807673,-0.28076 l 0,-3.08844 c 0,-0.1872 0.093591,-0.280787 0.2807673,-0.280787 z m 0,7.019214 382.686006,0 c 0.1872,0 0.28078,0.0936 0.28078,0.280746 l 0,3.08844 c 0,0.187214 -0.0936,0.280787 -0.28078,0.280787 l -382.686006,0 c -0.187178,0 -0.2807673,-0.0936 -0.2807673,-0.280787 l 0,-3.08844 c 0,-0.1872 0.093591,-0.280746 0.2807673,-0.280746 z"
     id="path12"
     inkscape:connector-curvature="0"
     style="fill:#777878;fill-rule:evenodd" />
  <g
     id="g14"
     transform="scale(0.93589144,0.93589144)"
     style="fill-rule:evenodd">
    <path
       d="m 243.8,192.2 19.4,0 c 0.8,0 1.4,0.6 1.4,1.4 l 0,19.8 c 0,0.8 -0.6,1.4 -1.4,1.4 l -19.4,0 c -0.8,0 -1.4,-0.6 -1.4,-1.4 l 0,-19.8 c -0.1,-0.7 0.6,-1.4 1.4,-1.4 z"
       id="path16"
       inkscape:connector-curvature="0"
       style="fill:#9b9a9a" />
    <path
       d="m 246.7,194.4 13.5,0 c 0.8,0 1.4,0.6 1.4,1.4 l 0,13.5 c 0,0.8 -0.6,1.4 -1.4,1.4 l -13.5,0 c -0.8,0 -1.4,-0.6 -1.4,-1.4 l 0,-13.5 c 0,-0.7 0.7,-1.4 1.4,-1.4 z"
       id="path18"
       inkscape:connector-curvature="0"
       style="fill:#cfd0cf" />
    <path
       d="m 267.7,192.2 19.4,0 c 0.8,0 1.4,0.6 1.4,1.4 l 0,19.8 c 0,0.8 -0.6,1.4 -1.4,1.4 l -19.4,0 c -0.8,0 -1.4,-0.6 -1.4,-1.4 l 0,-19.8 c 0,-0.7 0.6,-1.4 1.4,-1.4 z"
       id="path20"
       inkscape:connector-curvature="0"
       style="fill:#9b9a9a" />
    <path
       d="m 270.7,194.4 13.5,0 c 0.8,0 1.4,0.6 1.4,1.4 l 0,13.5 c 0,0.8 -0.6,1.4 -1.4,1.4 l -13.5,0 c -0.8,0 -1.4,-0.6 -1.4,-1.4 l 0,-13.5 c -0.1,-0.7 0.6,-1.4 1.4,-1.4 z"
       id="path22"
       inkscape:connector-curvature="0"
       style="fill:#cfd0cf" />
    <path
       d="m 291.6,192.2 19.4,0 c 0.8,0 1.4,0.6 1.4,1.4 l 0,19.8 c 0,0.8 -0.6,1.4 -1.4,1.4 l -19.4,0 c -0.8,0 -1.4,-0.6 -1.4,-1.4 l 0,-19.8 c 0,-0.7 0.6,-1.4 1.4,-1.4 z"
       id="path24"
       inkscape:connector-curvature="0"
       style="fill:#9b9a9a" />
    <path
       d="m 294.6,194.4 13.5,0 c 0.8,0 1.4,0.6 1.4,1.4 l 0,13.5 c 0,0.8 -0.6,1.4 -1.4,1.4 l -13.5,0 c -0.8,0 -1.4,-0.6 -1.4,-1.4 l 0,-13.5 c -0.1,-0.7 0.6,-1.4 1.4,-1.4 z"
       id="path26"
       inkscape:connector-curvature="0"
       style="fill:#cfd0cf" />
    <path
       d="m 315.5,192.2 19.4,0 c 0.8,0 1.4,0.6 1.4,1.4 l 0,19.8 c 0,0.8 -0.6,1.4 -1.4,1.4 l -19.4,0 c -0.8,0 -1.4,-0.6 -1.4,-1.4 l 0,-19.8 c 0,-0.7 0.6,-1.4 1.4,-1.4 z"
       id="path28"
       inkscape:connector-curvature="0"
       style="fill:#9b9a9a" />
    <path
       d="m 318.5,194.4 13.5,0 c 0.8,0 1.4,0.6 1.4,1.4 l 0,13.5 c 0,0.8 -0.6,1.4 -1.4,1.4 l -13.5,0 c -0.8,0 -1.4,-0.6 -1.4,-1.4 l 0,-13.5 c -0.1,-0.7 0.6,-1.4 1.4,-1.4 z"
       id="path30"
       inkscape:connector-curvature="0"
       style="fill:#cfd0cf" />
    <path
       d="m 339.4,192.2 19.4,0 c 0.8,0 1.4,0.6 1.4,1.4 l 0,19.8 c 0,0.8 -0.6,1.4 -1.4,1.4 l -19.4,0 c -0.8,0 -1.4,-0.6 -1.4,-1.4 l 0,-19.8 c 0,-0.7 0.6,-1.4 1.4,-1.4 z"
       id="path32"
       inkscape:connector-curvature="0"
       style="fill:#9b9a9a" />
    <path
       d="m 342.4,194.4 13.5,0 c 0.8,0 1.4,0.6 1.4,1.4 l 0,13.5 c 0,0.8 -0.6,1.4 -1.4,1.4 l -13.5,0 c -0.8,0 -1.4,-0.6 -1.4,-1.4 l 0,-13.5 c 0,-0.7 0.6,-1.4 1.4,-1.4 z"
       id="path34"
       inkscape:connector-curvature="0"
       style="fill:#cfd0cf" />
    <path
       d="m 219.9,192.2 19.4,0 c 0.8,0 1.4,0.6 1.4,1.4 l 0,19.8 c 0,0.8 -0.6,1.4 -1.4,1.4 l -19.4,0 c -0.8,0 -1.4,-0.6 -1.4,-1.4 l 0,-19.8 c -0.1,-0.7 0.6,-1.4 1.4,-1.4 z"
       id="path36"
       inkscape:connector-curvature="0"
       style="fill:#9b9a9a" />
    <path
       d="m 222.8,194.4 13.5,0 c 0.8,0 1.4,0.6 1.4,1.4 l 0,13.5 c 0,0.8 -0.6,1.4 -1.4,1.4 l -13.5,0 c -0.8,0 -1.4,-0.6 -1.4,-1.4 l 0,-13.5 c 0,-0.7 0.6,-1.4 1.4,-1.4 z"
       id="path38"
       inkscape:connector-curvature="0"
       style="fill:#cfd0cf" />
    <path
       d="m 196,192.2 19.4,0 c 0.8,0 1.4,0.6 1.4,1.4 l 0,19.8 c 0,0.8 -0.6,1.4 -1.4,1.4 l -19.4,0 c -0.8,0 -1.4,-0.6 -1.4,-1.4 l 0,-19.8 c -0.1,-0.7 0.6,-1.4 1.4,-1.4 z"
       id="path40"
       inkscape:connector-curvature="0"
       style="fill:#9b9a9a" />
    <path
       d="m 198.9,194.4 13.5,0 c 0.8,0 1.4,0.6 1.4,1.4 l 0,13.5 c 0,0.8 -0.6,1.4 -1.4,1.4 l -13.5,0 c -0.8,0 -1.4,-0.6 -1.4,-1.4 l 0,-13.5 c 0,-0.7 0.6,-1.4 1.4,-1.4 z"
       id="path42"
       inkscape:connector-curvature="0"
       style="fill:#cfd0cf" />
    <path
       d="m 172.1,192.2 19.4,0 c 0.8,0 1.4,0.6 1.4,1.4 l 0,19.8 c 0,0.8 -0.6,1.4 -1.4,1.4 l -19.4,0 c -0.8,0 -1.4,-0.6 -1.4,-1.4 l 0,-19.8 c -0.1,-0.7 0.6,-1.4 1.4,-1.4 z"
       id="path44"
       inkscape:connector-curvature="0"
       style="fill:#9b9a9a" />
    <path
       d="m 175,194.4 13.5,0 c 0.8,0 1.4,0.6 1.4,1.4 l 0,13.5 c 0,0.8 -0.6,1.4 -1.4,1.4 l -13.5,0 c -0.8,0 -1.4,-0.6 -1.4,-1.4 l 0,-13.5 c 0,-0.7 0.6,-1.4 1.4,-1.4 z"
       id="path46"
       inkscape:connector-curvature="0"
       style="fill:#cfd0cf" />
    <path
       d="m 148.1,192.2 19.4,0 c 0.8,0 1.4,0.6 1.4,1.4 l 0,19.8 c 0,0.8 -0.6,1.4 -1.4,1.4 l -19.4,0 c -0.8,0 -1.4,-0.6 -1.4,-1.4 l 0,-19.8 c 0,-0.7 0.7,-1.4 1.4,-1.4 z"
       id="path48"
       inkscape:connector-curvature="0"
       style="fill:#9b9a9a" />
    <path
       d="m 151.1,194.4 13.5,0 c 0.8,0 1.4,0.6 1.4,1.4 l 0,13.5 c 0,0.8 -0.6,1.4 -1.4,1.4 l -13.5,0 c -0.8,0 -1.4,-0.6 -1.4,-1.4 l 0,-13.5 c 0,-0.7 0.6,-1.4 1.4,-1.4 z"
       id="path50"
       inkscape:connector-curvature="0"
       style="fill:#cfd0cf" />
    <path
       d="m 124.2,192.2 19.4,0 c 0.8,0 1.4,0.6 1.4,1.4 l 0,19.8 c 0,0.8 -0.6,1.4 -1.4,1.4 l -19.4,0 c -0.8,0 -1.4,-0.6 -1.4,-1.4 l 0,-19.8 c 0,-0.7 0.6,-1.4 1.4,-1.4 z"
       id="path52"
       inkscape:connector-curvature="0"
       style="fill:#9b9a9a" />
    <path
       d="m 127.2,194.4 13.5,0 c 0.8,0 1.4,0.6 1.4,1.4 l 0,13.5 c 0,0.8 -0.6,1.4 -1.4,1.4 l -13.5,0 c -0.8,0 -1.4,-0.6 -1.4,-1.4 l 0,-13.5 c 0,-0.7 0.6,-1.4 1.4,-1.4 z"
       id="path54"
       inkscape:connector-curvature="0"
       style="fill:#cfd0cf" />
    <path
       d="m 100.3,192.2 19.4,0 c 0.8,0 1.4,0.6 1.4,1.4 l 0,19.8 c 0,0.8 -0.6,1.4 -1.4,1.4 l -19.4,0 c -0.8,0 -1.4,-0.6 -1.4,-1.4 l 0,-19.8 c 0,-0.7 0.6,-1.4 1.4,-1.4 z"
       id="path56"
       inkscape:connector-curvature="0"
       style="fill:#9b9a9a" />
    <path
       d="m 103.3,194.4 13.5,0 c 0.8,0 1.4,0.6 1.4,1.4 l 0,13.5 c 0,0.8 -0.6,1.4 -1.4,1.4 l -13.5,0 c -0.8,0 -1.4,-0.6 -1.4,-1.4 l 0,-13.5 c 0,-0.7 0.6,-1.4 1.4,-1.4 z"
       id="path58"
       inkscape:connector-curvature="0"
       style="fill:#cfd0cf" />
    <path
       d="m 76.4,192.2 19.4,0 c 0.8,0 1.4,0.6 1.4,1.4 l 0,19.8 c 0,0.8 -0.6,1.4 -1.4,1.4 l -19.4,0 c -0.8,0 -1.4,-0.6 -1.4,-1.4 l 0,-19.8 c 0,-0.7 0.6,-1.4 1.4,-1.4 z"
       id="path60"
       inkscape:connector-curvature="0"
       style="fill:#9b9a9a" />
    <path
       d="m 79.4,194.4 13.5,0 c 0.8,0 1.4,0.6 1.4,1.4 l 0,13.5 c 0,0.8 -0.6,1.4 -1.4,1.4 l -13.5,0 c -0.8,0 -1.4,-0.6 -1.4,-1.4 l 0,-13.5 c -0.1,-0.7 0.6,-1.4 1.4,-1.4 z"
       id="path62"
       inkscape:connector-curvature="0"
       style="fill:#cfd0cf" />
    <path
       d="m 231.8,216.3 19.4,0 c 0.8,0 1.4,0.6 1.4,1.4 l 0,19.8 c 0,0.8 -0.6,1.4 -1.4,1.4 l -19.4,0 c -0.8,0 -1.4,-0.6 -1.4,-1.4 l 0,-19.8 c 0,-0.8 0.7,-1.4 1.4,-1.4 z"
       id="path64"
       inkscape:connector-curvature="0"
       style="fill:#9b9a9a" />
    <path
       d="m 234.8,218.5 13.5,0 c 0.8,0 1.4,0.6 1.4,1.4 l 0,13.5 c 0,0.8 -0.6,1.4 -1.4,1.4 l -13.5,0 c -0.8,0 -1.4,-0.6 -1.4,-1.4 l 0,-13.5 c 0,-0.8 0.6,-1.4 1.4,-1.4 z"
       id="path66"
       inkscape:connector-curvature="0"
       style="fill:#cfd0cf" />
    <path
       d="m 255.8,216.3 19.4,0 c 0.8,0 1.4,0.6 1.4,1.4 l 0,19.8 c 0,0.8 -0.6,1.4 -1.4,1.4 l -19.4,0 c -0.8,0 -1.4,-0.6 -1.4,-1.4 l 0,-19.8 c -0.1,-0.8 0.6,-1.4 1.4,-1.4 z"
       id="path68"
       inkscape:connector-curvature="0"
       style="fill:#9b9a9a" />
    <path
       d="m 258.7,218.5 13.5,0 c 0.8,0 1.4,0.6 1.4,1.4 l 0,13.5 c 0,0.8 -0.6,1.4 -1.4,1.4 l -13.5,0 c -0.8,0 -1.4,-0.6 -1.4,-1.4 l 0,-13.5 c 0,-0.8 0.6,-1.4 1.4,-1.4 z"
       id="path70"
       inkscape:connector-curvature="0"
       style="fill:#cfd0cf" />
    <path
       d="m 279.7,216.3 19.4,0 c 0.8,0 1.4,0.6 1.4,1.4 l 0,19.8 c 0,0.8 -0.6,1.4 -1.4,1.4 l -19.4,0 c -0.8,0 -1.4,-0.6 -1.4,-1.4 l 0,-19.8 c -0.1,-0.8 0.6,-1.4 1.4,-1.4 z"
       id="path72"
       inkscape:connector-curvature="0"
       style="fill:#9b9a9a" />
    <path
       d="m 282.6,218.5 13.5,0 c 0.8,0 1.4,0.6 1.4,1.4 l 0,13.5 c 0,0.8 -0.6,1.4 -1.4,1.4 l -13.5,0 c -0.8,0 -1.4,-0.6 -1.4,-1.4 l 0,-13.5 c 0,-0.8 0.6,-1.4 1.4,-1.4 z"
       id="path74"
       inkscape:connector-curvature="0"
       style="fill:#cfd0cf" />
    <path
       d="m 303.6,216.3 19.4,0 c 0.8,0 1.4,0.6 1.4,1.4 l 0,19.8 c 0,0.8 -0.6,1.4 -1.4,1.4 l -19.4,0 c -0.8,0 -1.4,-0.6 -1.4,-1.4 l 0,-19.8 c -0.1,-0.8 0.6,-1.4 1.4,-1.4 z"
       id="path76"
       inkscape:connector-curvature="0"
       style="fill:#9b9a9a" />
    <path
       d="m 306.5,218.5 13.5,0 c 0.8,0 1.4,0.6 1.4,1.4 l 0,13.5 c 0,0.8 -0.6,1.4 -1.4,1.4 l -13.5,0 c -0.8,0 -1.4,-0.6 -1.4,-1.4 l 0,-13.5 c 0,-0.8 0.6,-1.4 1.4,-1.4 z"
       id="path78"
       inkscape:connector-curvature="0"
       style="fill:#cfd0cf" />
    <path
       d="m 320.3,240.3 19.4,0 c 0.8,0 1.4,0.6 1.4,1.4 l 0,19.8 c 0,0.8 -0.6,1.4 -1.4,1.4 l -19.4,0 c -0.8,0 -1.4,-0.6 -1.4,-1.4 l 0,-19.8 c -0.1,-0.7 0.6,-1.4 1.4,-1.4 z"
       id="path80"
       inkscape:connector-curvature="0"
       style="fill:#9b9a9a" />
    <path
       d="m 323.2,242.5 13.5,0 c 0.8,0 1.4,0.6 1.4,1.4 l 0,13.5 c 0,0.8 -0.6,1.4 -1.4,1.4 l -13.5,0 c -0.8,0 -1.4,-0.6 -1.4,-1.4 l 0,-13.4 c 0,-0.8 0.6,-1.5 1.4,-1.5 z"
       id="path82"
       inkscape:connector-curvature="0"
       style="fill:#cfd0cf" />
    <path
       d="m 344.2,240.3 19.4,0 c 0.8,0 1.4,0.6 1.4,1.4 l 0,19.8 c 0,0.8 -0.6,1.4 -1.4,1.4 l -19.4,0 c -0.8,0 -1.4,-0.6 -1.4,-1.4 l 0,-19.8 c -0.1,-0.7 0.6,-1.4 1.4,-1.4 z"
       id="path84"
       inkscape:connector-curvature="0"
       style="fill:#9b9a9a" />
    <path
       d="m 347.1,242.5 13.5,0 c 0.8,0 1.4,0.6 1.4,1.4 l 0,13.5 c 0,0.8 -0.6,1.4 -1.4,1.4 l -13.5,0 c -0.8,0 -1.4,-0.6 -1.4,-1.4 l 0,-13.4 c 0,-0.8 0.7,-1.5 1.4,-1.5 z"
       id="path86"
       inkscape:connector-curvature="0"
       style="fill:#cfd0cf" />
    <path
       d="m 368.1,240.3 19.4,0 c 0.8,0 1.4,0.6 1.4,1.4 l 0,19.8 c 0,0.8 -0.6,1.4 -1.4,1.4 l -19.4,0 c -0.8,0 -1.4,-0.6 -1.4,-1.4 l 0,-19.8 c 0,-0.7 0.6,-1.4 1.4,-1.4 z"
       id="path88"
       inkscape:connector-curvature="0"
       style="fill:#9b9a9a" />
    <path
       d="m 371.1,242.5 13.5,0 c 0.8,0 1.4,0.6 1.4,1.4 l 0,13.5 c 0,0.8 -0.6,1.4 -1.4,1.4 l -13.5,0 c -0.8,0 -1.4,-0.6 -1.4,-1.4 l 0,-13.4 c -0.1,-0.8 0.6,-1.5 1.4,-1.5 z"
       id="path90"
       inkscape:connector-curvature="0"
       style="fill:#cfd0cf" />
    <path
       d="m 392,240.3 19.4,0 c 0.8,0 1.4,0.6 1.4,1.4 l 0,19.8 c 0,0.8 -0.6,1.4 -1.4,1.4 l -19.4,0 c -0.8,0 -1.4,-0.6 -1.4,-1.4 l 0,-19.8 c 0,-0.7 0.6,-1.4 1.4,-1.4 z"
       id="path92"
       inkscape:connector-curvature="0"
       style="fill:#9b9a9a" />
    <path
       d="m 395,242.5 13.5,0 c 0.8,0 1.4,0.6 1.4,1.4 l 0,13.5 c 0,0.8 -0.6,1.4 -1.4,1.4 l -13.5,0 c -0.8,0 -1.4,-0.6 -1.4,-1.4 l 0,-13.4 c -0.1,-0.8 0.6,-1.5 1.4,-1.5 z"
       id="path94"
       inkscape:connector-curvature="0"
       style="fill:#cfd0cf" />
    <path
       d="m 368,216.3 19.4,0 c 0.8,0 1.4,0.6 1.4,1.4 l 0,19.8 c 0,0.8 -0.6,1.4 -1.4,1.4 l -19.4,0 c -0.8,0 -1.4,-0.6 -1.4,-1.4 l 0,-19.8 c -0.1,-0.8 0.6,-1.4 1.4,-1.4 z"
       id="path96"
       inkscape:connector-curvature="0"
       style="fill:#9b9a9a" />
    <path
       d="m 370.9,218.5 13.5,0 c 0.8,0 1.4,0.6 1.4,1.4 l 0,13.5 c 0,0.8 -0.6,1.4 -1.4,1.4 l -13.5,0 c -0.8,0 -1.4,-0.6 -1.4,-1.4 l 0,-13.5 c 0,-0.8 0.7,-1.4 1.4,-1.4 z"
       id="path98"
       inkscape:connector-curvature="0"
       style="fill:#cfd0cf" />
    <path
       d="m 207.9,216.3 19.4,0 c 0.8,0 1.4,0.6 1.4,1.4 l 0,19.8 c 0,0.8 -0.6,1.4 -1.4,1.4 l -19.4,0 c -0.8,0 -1.4,-0.6 -1.4,-1.4 l 0,-19.8 c 0,-0.8 0.6,-1.4 1.4,-1.4 z"
       id="path100"
       inkscape:connector-curvature="0"
       style="fill:#9b9a9a" />
    <path
       d="m 210.9,218.5 13.5,0 c 0.8,0 1.4,0.6 1.4,1.4 l 0,13.5 c 0,0.8 -0.6,1.4 -1.4,1.4 l -13.5,0 c -0.8,0 -1.4,-0.6 -1.4,-1.4 l 0,-13.5 c 0,-0.8 0.6,-1.4 1.4,-1.4 z"
       id="path102"
       inkscape:connector-curvature="0"
       style="fill:#cfd0cf" />
    <path
       d="m 184,216.3 19.4,0 c 0.8,0 1.4,0.6 1.4,1.4 l 0,19.8 c 0,0.8 -0.6,1.4 -1.4,1.4 l -19.4,0 c -0.8,0 -1.4,-0.6 -1.4,-1.4 l 0,-19.8 c 0,-0.8 0.6,-1.4 1.4,-1.4 z"
       id="path104"
       inkscape:connector-curvature="0"
       style="fill:#9b9a9a" />
    <path
       d="m 187,218.5 13.5,0 c 0.8,0 1.4,0.6 1.4,1.4 l 0,13.5 c 0,0.8 -0.6,1.4 -1.4,1.4 l -13.5,0 c -0.8,0 -1.4,-0.6 -1.4,-1.4 l 0,-13.5 c 0,-0.8 0.6,-1.4 1.4,-1.4 z"
       id="path106"
       inkscape:connector-curvature="0"
       style="fill:#cfd0cf" />
    <path
       d="m 160.1,216.3 19.4,0 c 0.8,0 1.4,0.6 1.4,1.4 l 0,19.8 c 0,0.8 -0.6,1.4 -1.4,1.4 l -19.4,0 c -0.8,0 -1.4,-0.6 -1.4,-1.4 l 0,-19.8 c 0,-0.8 0.6,-1.4 1.4,-1.4 z"
       id="path108"
       inkscape:connector-curvature="0"
       style="fill:#9b9a9a" />
    <path
       d="m 163.1,218.5 13.5,0 c 0.8,0 1.4,0.6 1.4,1.4 l 0,13.5 c 0,0.8 -0.6,1.4 -1.4,1.4 l -13.5,0 c -0.8,0 -1.4,-0.6 -1.4,-1.4 l 0,-13.5 c -0.1,-0.8 0.6,-1.4 1.4,-1.4 z"
       id="path110"
       inkscape:connector-curvature="0"
       style="fill:#cfd0cf" />
    <path
       d="m 136.2,216.3 19.4,0 c 0.8,0 1.4,0.6 1.4,1.4 l 0,19.8 c 0,0.8 -0.6,1.4 -1.4,1.4 l -19.4,0 c -0.8,0 -1.4,-0.6 -1.4,-1.4 l 0,-19.8 c 0,-0.8 0.6,-1.4 1.4,-1.4 z"
       id="path112"
       inkscape:connector-curvature="0"
       style="fill:#9b9a9a" />
    <path
       d="m 139.2,218.5 13.5,0 c 0.8,0 1.4,0.6 1.4,1.4 l 0,13.5 c 0,0.8 -0.6,1.4 -1.4,1.4 l -13.5,0 c -0.8,0 -1.4,-0.6 -1.4,-1.4 l 0,-13.5 c -0.1,-0.8 0.6,-1.4 1.4,-1.4 z"
       id="path114"
       inkscape:connector-curvature="0"
       style="fill:#cfd0cf" />
    <path
       d="m 112.3,216.3 19.4,0 c 0.8,0 1.4,0.6 1.4,1.4 l 0,19.8 c 0,0.8 -0.6,1.4 -1.4,1.4 l -19.4,0 c -0.8,0 -1.4,-0.6 -1.4,-1.4 l 0,-19.8 c 0,-0.8 0.6,-1.4 1.4,-1.4 z"
       id="path116"
       inkscape:connector-curvature="0"
       style="fill:#9b9a9a" />
    <path
       d="m 115.3,218.5 13.5,0 c 0.8,0 1.4,0.6 1.4,1.4 l 0,13.5 c 0,0.8 -0.6,1.4 -1.4,1.4 l -13.5,0 c -0.8,0 -1.4,-0.6 -1.4,-1.4 l 0,-13.5 c -0.1,-0.8 0.6,-1.4 1.4,-1.4 z"
       id="path118"
       inkscape:connector-curvature="0"
       style="fill:#cfd0cf" />
    <path
       d="m 88.4,216.3 19.4,0 c 0.8,0 1.4,0.6 1.4,1.4 l 0,19.8 c 0,0.8 -0.6,1.4 -1.4,1.4 l -19.4,0 c -0.8,0 -1.4,-0.6 -1.4,-1.4 l 0,-19.8 c 0,-0.8 0.6,-1.4 1.4,-1.4 z"
       id="path120"
       inkscape:connector-curvature="0"
       style="fill:#9b9a9a" />
    <path
       d="m 91.4,218.5 13.5,0 c 0.8,0 1.4,0.6 1.4,1.4 l 0,13.5 c 0,0.8 -0.6,1.4 -1.4,1.4 l -13.5,0 c -0.8,0 -1.4,-0.6 -1.4,-1.4 l 0,-13.5 c -0.1,-0.8 0.6,-1.4 1.4,-1.4 z"
       id="path122"
       inkscape:connector-curvature="0"
       style="fill:#cfd0cf" />
    <path
       d="m 64.5,216.3 19.4,0 c 0.8,0 1.4,0.6 1.4,1.4 l 0,19.8 c 0,0.8 -0.6,1.4 -1.4,1.4 l -19.4,0 c -0.8,0 -1.4,-0.6 -1.4,-1.4 l 0,-19.8 c -0.1,-0.8 0.6,-1.4 1.4,-1.4 z"
       id="path124"
       inkscape:connector-curvature="0"
       style="fill:#9b9a9a" />
    <path
       d="m 67.4,218.5 13.6,0 c 0.8,0 1.4,0.6 1.4,1.4 l 0,13.5 c 0,0.8 -0.6,1.4 -1.4,1.4 l -13.6,0 c -0.8,0 -1.4,-0.6 -1.4,-1.4 l 0,-13.5 c 0,-0.8 0.6,-1.4 1.4,-1.4 z"
       id="path126"
       inkscape:connector-curvature="0"
       style="fill:#cfd0cf" />
    <path
       d="m 100.3,240.3 185.5,0 c 0.8,0 1.4,0.6 1.4,1.4 l 0,19.8 c 0,0.8 -0.6,1.4 -1.4,1.4 l -185.5,0 c -0.8,0 -1.4,-0.6 -1.4,-1.4 l 0,-19.8 c 0,-0.7 0.6,-1.4 1.4,-1.4 z"
       id="path128"
       inkscape:connector-curvature="0"
       style="fill:#9b9a9a" />
    <path
       d="m 103.3,242.5 179.6,0 c 0.8,0 1.4,0.6 1.4,1.4 l 0,13.5 c 0,0.8 -0.6,1.4 -1.4,1.4 l -179.6,0 c -0.8,0 -1.4,-0.6 -1.4,-1.4 l 0,-13.4 c 0,-0.8 0.6,-1.5 1.4,-1.5 z"
       id="path130"
       inkscape:connector-curvature="0"
       style="fill:#cfd0cf" />
    <path
       d="m 237,168.2 19.4,0 c 0.8,0 1.4,0.6 1.4,1.4 l 0,19.8 c 0,0.8 -0.6,1.4 -1.4,1.4 l -19.4,0 c -0.8,0 -1.4,-0.6 -1.4,-1.4 l 0,-19.8 c 0,-0.8 0.6,-1.4 1.4,-1.4 z"
       id="path132"
       inkscape:connector-curvature="0"
       style="fill:#9b9a9a" />
    <path
       d="m 240,170.4 13.5,0 c 0.8,0 1.4,0.6 1.4,1.4 l 0,13.5 c 0,0.8 -0.6,1.4 -1.4,1.4 l -13.5,0 c -0.8,0 -1.4,-0.6 -1.4,-1.4 l 0,-13.5 c 0,-0.8 0.6,-1.4 1.4,-1.4 z"
       id="path134"
       inkscape:connector-curvature="0"
       style="fill:#cfd0cf" />
    <path
       d="m 260.9,168.2 19.4,0 c 0.8,0 1.4,0.6 1.4,1.4 l 0,19.8 c 0,0.8 -0.6,1.4 -1.4,1.4 l -19.4,0 c -0.8,0 -1.4,-0.6 -1.4,-1.4 l 0,-19.8 c 0,-0.8 0.6,-1.4 1.4,-1.4 z"
       id="path136"
       inkscape:connector-curvature="0"
       style="fill:#9b9a9a" />
    <path
       d="m 263.9,170.4 13.5,0 c 0.8,0 1.4,0.6 1.4,1.4 l 0,13.5 c 0,0.8 -0.6,1.4 -1.4,1.4 l -13.5,0 c -0.8,0 -1.4,-0.6 -1.4,-1.4 l 0,-13.5 c 0,-0.8 0.6,-1.4 1.4,-1.4 z"
       id="path138"
       inkscape:connector-curvature="0"
       style="fill:#cfd0cf" />
    <path
       d="m 284.9,168.2 19.4,0 c 0.8,0 1.4,0.6 1.4,1.4 l 0,19.8 c 0,0.8 -0.6,1.4 -1.4,1.4 l -19.4,0 c -0.8,0 -1.4,-0.6 -1.4,-1.4 l 0,-19.8 c -0.1,-0.8 0.6,-1.4 1.4,-1.4 z"
       id="path140"
       inkscape:connector-curvature="0"
       style="fill:#9b9a9a" />
    <path
       d="m 287.8,170.4 13.5,0 c 0.8,0 1.4,0.6 1.4,1.4 l 0,13.5 c 0,0.8 -0.6,1.4 -1.4,1.4 l -13.5,0 c -0.8,0 -1.4,-0.6 -1.4,-1.4 l 0,-13.5 c 0,-0.8 0.6,-1.4 1.4,-1.4 z"
       id="path142"
       inkscape:connector-curvature="0"
       style="fill:#cfd0cf" />
    <path
       d="m 308.8,168.2 19.4,0 c 0.8,0 1.4,0.6 1.4,1.4 l 0,19.8 c 0,0.8 -0.6,1.4 -1.4,1.4 l -19.4,0 c -0.8,0 -1.4,-0.6 -1.4,-1.4 l 0,-19.8 c -0.1,-0.8 0.6,-1.4 1.4,-1.4 z"
       id="path144"
       inkscape:connector-curvature="0"
       style="fill:#9b9a9a" />
    <path
       d="m 311.7,170.4 13.5,0 c 0.8,0 1.4,0.6 1.4,1.4 l 0,13.5 c 0,0.8 -0.6,1.4 -1.4,1.4 l -13.5,0 c -0.8,0 -1.4,-0.6 -1.4,-1.4 l 0,-13.5 c 0,-0.8 0.6,-1.4 1.4,-1.4 z"
       id="path146"
       inkscape:connector-curvature="0"
       style="fill:#cfd0cf" />
    <path
       d="m 332.7,168.2 19.4,0 c 0.8,0 1.4,0.6 1.4,1.4 l 0,19.8 c 0,0.8 -0.6,1.4 -1.4,1.4 l -19.4,0 c -0.8,0 -1.4,-0.6 -1.4,-1.4 l 0,-19.8 c -0.1,-0.8 0.6,-1.4 1.4,-1.4 z"
       id="path148"
       inkscape:connector-curvature="0"
       style="fill:#9b9a9a" />
    <path
       d="m 335.6,170.4 13.5,0 c 0.8,0 1.4,0.6 1.4,1.4 l 0,13.5 c 0,0.8 -0.6,1.4 -1.4,1.4 l -13.5,0 c -0.8,0 -1.4,-0.6 -1.4,-1.4 l 0,-13.5 c 0,-0.8 0.6,-1.4 1.4,-1.4 z"
       id="path150"
       inkscape:connector-curvature="0"
       style="fill:#cfd0cf" />
    <path
       d="m 213.1,168.2 19.4,0 c 0.8,0 1.4,0.6 1.4,1.4 l 0,19.8 c 0,0.8 -0.6,1.4 -1.4,1.4 l -19.4,0 c -0.8,0 -1.4,-0.6 -1.4,-1.4 l 0,-19.8 c 0,-0.8 0.6,-1.4 1.4,-1.4 z"
       id="path152"
       inkscape:connector-curvature="0"
       style="fill:#9b9a9a" />
    <path
       d="m 216.1,170.4 13.5,0 c 0.8,0 1.4,0.6 1.4,1.4 l 0,13.5 c 0,0.8 -0.6,1.4 -1.4,1.4 l -13.5,0 c -0.8,0 -1.4,-0.6 -1.4,-1.4 l 0,-13.5 c 0,-0.8 0.6,-1.4 1.4,-1.4 z"
       id="path154"
       inkscape:connector-curvature="0"
       style="fill:#cfd0cf" />
    <path
       d="m 189.6,168.2 19.4,0 c 0.8,0 1.4,0.6 1.4,1.4 l 0,19.8 c 0,0.8 -0.6,1.4 -1.4,1.4 l -19.4,0 c -0.8,0 -1.4,-0.6 -1.4,-1.4 l 0,-19.8 c -0.1,-0.8 0.6,-1.4 1.4,-1.4 z"
       id="path156"
       inkscape:connector-curvature="0"
       style="fill:#9b9a9a" />
    <path
       d="m 192.5,170.4 13.5,0 c 0.8,0 1.4,0.6 1.4,1.4 l 0,13.5 c 0,0.8 -0.6,1.4 -1.4,1.4 l -13.5,0 c -0.8,0 -1.4,-0.6 -1.4,-1.4 l 0,-13.5 c 0,-0.8 0.6,-1.4 1.4,-1.4 z"
       id="path158"
       inkscape:connector-curvature="0"
       style="fill:#cfd0cf" />
    <path
       d="m 165.3,168.2 19.4,0 c 0.8,0 1.4,0.6 1.4,1.4 l 0,19.8 c 0,0.8 -0.6,1.4 -1.4,1.4 l -19.4,0 c -0.8,0 -1.4,-0.6 -1.4,-1.4 l 0,-19.8 c 0,-0.8 0.6,-1.4 1.4,-1.4 z"
       id="path160"
       inkscape:connector-curvature="0"
       style="fill:#9b9a9a" />
    <path
       d="m 168.3,170.4 13.5,0 c 0.8,0 1.4,0.6 1.4,1.4 l 0,13.5 c 0,0.8 -0.6,1.4 -1.4,1.4 l -13.5,0 c -0.8,0 -1.4,-0.6 -1.4,-1.4 l 0,-13.5 c -0.1,-0.8 0.6,-1.4 1.4,-1.4 z"
       id="path162"
       inkscape:connector-curvature="0"
       style="fill:#cfd0cf" />
    <path
       d="m 141.4,168.2 19.4,0 c 0.8,0 1.4,0.6 1.4,1.4 l 0,19.8 c 0,0.8 -0.6,1.4 -1.4,1.4 l -19.4,0 c -0.8,0 -1.4,-0.6 -1.4,-1.4 l 0,-19.8 c 0,-0.8 0.6,-1.4 1.4,-1.4 z"
       id="path164"
       inkscape:connector-curvature="0"
       style="fill:#9b9a9a" />
    <path
       d="m 144.4,170.4 13.5,0 c 0.8,0 1.4,0.6 1.4,1.4 l 0,13.5 c 0,0.8 -0.6,1.4 -1.4,1.4 l -13.5,0 c -0.8,0 -1.4,-0.6 -1.4,-1.4 l 0,-13.5 c -0.1,-0.8 0.6,-1.4 1.4,-1.4 z"
       id="path166"
       inkscape:connector-curvature="0"
       style="fill:#cfd0cf" />
    <path
       d="m 117.5,168.2 19.4,0 c 0.8,0 1.4,0.6 1.4,1.4 l 0,19.8 c 0,0.8 -0.6,1.4 -1.4,1.4 l -19.4,0 c -0.8,0 -1.4,-0.6 -1.4,-1.4 l 0,-19.8 c 0,-0.8 0.6,-1.4 1.4,-1.4 z"
       id="path168"
       inkscape:connector-curvature="0"
       style="fill:#9b9a9a" />
    <path
       d="m 120.5,170.4 13.5,0 c 0.8,0 1.4,0.6 1.4,1.4 l 0,13.5 c 0,0.8 -0.6,1.4 -1.4,1.4 l -13.5,0 c -0.8,0 -1.4,-0.6 -1.4,-1.4 l 0,-13.5 c -0.1,-0.8 0.6,-1.4 1.4,-1.4 z"
       id="path170"
       inkscape:connector-curvature="0"
       style="fill:#cfd0cf" />
    <path
       d="m 93.6,168.2 19.4,0 c 0.8,0 1.4,0.6 1.4,1.4 l 0,19.8 c 0,0.8 -0.6,1.4 -1.4,1.4 l -19.4,0 c -0.8,0 -1.4,-0.6 -1.4,-1.4 l 0,-19.8 c -0.1,-0.8 0.6,-1.4 1.4,-1.4 z"
       id="path172"
       inkscape:connector-curvature="0"
       style="fill:#9b9a9a" />
    <path
       d="m 96.5,170.4 13.5,0 c 0.8,0 1.4,0.6 1.4,1.4 l 0,13.5 c 0,0.8 -0.6,1.4 -1.4,1.4 l -13.5,0 c -0.8,0 -1.4,-0.6 -1.4,-1.4 l 0,-13.5 c 0,-0.8 0.6,-1.4 1.4,-1.4 z"
       id="path174"
       inkscape:connector-curvature="0"
       style="fill:#cfd0cf" />
    <path
       d="m 69.7,168.2 19.4,0 c 0.8,0 1.4,0.6 1.4,1.4 l 0,19.8 c 0,0.8 -0.6,1.4 -1.4,1.4 l -19.4,0 c -0.8,0 -1.4,-0.6 -1.4,-1.4 l 0,-19.8 c -0.1,-0.8 0.6,-1.4 1.4,-1.4 z"
       id="path176"
       inkscape:connector-curvature="0"
       style="fill:#9b9a9a" />
    <path
       d="m 72.6,170.4 13.5,0 c 0.8,0 1.4,0.6 1.4,1.4 l 0,13.5 c 0,0.8 -0.6,1.4 -1.4,1.4 l -13.5,0 c -0.8,0 -1.4,-0.6 -1.4,-1.4 l 0,-13.5 c 0,-0.8 0.6,-1.4 1.4,-1.4 z"
       id="path178"
       inkscape:connector-curvature="0"
       style="fill:#cfd0cf" />
    <path
       d="m 224.6,144.2 19.4,0 c 0.8,0 1.4,0.6 1.4,1.4 l 0,19.8 c 0,0.8 -0.6,1.4 -1.4,1.4 l -19.4,0 c -0.8,0 -1.4,-0.6 -1.4,-1.4 l 0,-19.8 c 0,-0.8 0.6,-1.4 1.4,-1.4 z"
       id="path180"
       inkscape:connector-curvature="0"
       style="fill:#9b9a9a" />
    <path
       d="m 227.6,146.4 13.5,0 c 0.8,0 1.4,0.6 1.4,1.4 l 0,13.5 c 0,0.8 -0.6,1.4 -1.4,1.4 l -13.5,0 c -0.8,0 -1.4,-0.6 -1.4,-1.4 l 0,-13.5 c 0,-0.8 0.6,-1.4 1.4,-1.4 z"
       id="path182"
       inkscape:connector-curvature="0"
       style="fill:#cfd0cf" />
    <path
       d="m 248.6,144.2 19.4,0 c 0.8,0 1.4,0.6 1.4,1.4 l 0,19.8 c 0,0.8 -0.6,1.4 -1.4,1.4 l -19.4,0 c -0.8,0 -1.4,-0.6 -1.4,-1.4 l 0,-19.8 c -0.1,-0.8 0.6,-1.4 1.4,-1.4 z"
       id="path184"
       inkscape:connector-curvature="0"
       style="fill:#9b9a9a" />
    <path
       d="m 251.5,146.4 13.5,0 c 0.8,0 1.4,0.6 1.4,1.4 l 0,13.5 c 0,0.8 -0.6,1.4 -1.4,1.4 l -13.5,0 c -0.8,0 -1.4,-0.6 -1.4,-1.4 l 0,-13.5 c 0,-0.8 0.6,-1.4 1.4,-1.4 z"
       id="path186"
       inkscape:connector-curvature="0"
       style="fill:#cfd0cf" />
    <path
       d="m 272.5,144.2 19.4,0 c 0.8,0 1.4,0.6 1.4,1.4 l 0,19.8 c 0,0.8 -0.6,1.4 -1.4,1.4 l -19.4,0 c -0.8,0 -1.4,-0.6 -1.4,-1.4 l 0,-19.8 c -0.1,-0.8 0.6,-1.4 1.4,-1.4 z"
       id="path188"
       inkscape:connector-curvature="0"
       style="fill:#9b9a9a" />
    <path
       d="m 275.4,146.4 13.6,0 c 0.8,0 1.4,0.6 1.4,1.4 l 0,13.5 c 0,0.8 -0.6,1.4 -1.4,1.4 l -13.5,0 c -0.8,0 -1.4,-0.6 -1.4,-1.4 l 0,-13.5 c -0.1,-0.8 0.5,-1.4 1.3,-1.4 z"
       id="path190"
       inkscape:connector-curvature="0"
       style="fill:#cfd0cf" />
    <path
       d="m 296.4,144.2 19.4,0 c 0.8,0 1.4,0.6 1.4,1.4 l 0,19.8 c 0,0.8 -0.6,1.4 -1.4,1.4 l -19.4,0 c -0.8,0 -1.4,-0.6 -1.4,-1.4 l 0,-19.8 c -0.1,-0.8 0.6,-1.4 1.4,-1.4 z"
       id="path192"
       inkscape:connector-curvature="0"
       style="fill:#9b9a9a" />
    <path
       d="m 299.3,146.4 13.5,0 c 0.8,0 1.4,0.6 1.4,1.4 l 0,13.5 c 0,0.8 -0.6,1.4 -1.4,1.4 l -13.5,0 c -0.8,0 -1.4,-0.6 -1.4,-1.4 l 0,-13.5 c 0,-0.8 0.6,-1.4 1.4,-1.4 z"
       id="path194"
       inkscape:connector-curvature="0"
       style="fill:#cfd0cf" />
    <path
       d="m 320.3,144.2 19.4,0 c 0.8,0 1.4,0.6 1.4,1.4 l 0,19.8 c 0,0.8 -0.6,1.4 -1.4,1.4 l -19.4,0 c -0.8,0 -1.4,-0.6 -1.4,-1.4 l 0,-19.8 c -0.1,-0.8 0.6,-1.4 1.4,-1.4 z"
       id="path196"
       inkscape:connector-curvature="0"
       style="fill:#9b9a9a" />
    <path
       d="m 323.2,146.4 13.5,0 c 0.8,0 1.4,0.6 1.4,1.4 l 0,13.5 c 0,0.8 -0.6,1.4 -1.4,1.4 l -13.5,0 c -0.8,0 -1.4,-0.6 -1.4,-1.4 l 0,-13.5 c 0,-0.8 0.6,-1.4 1.4,-1.4 z"
       id="path198"
       inkscape:connector-curvature="0"
       style="fill:#cfd0cf" />
    <path
       d="m 344.2,144.2 19.4,0 c 0.8,0 1.4,0.6 1.4,1.4 l 0,19.8 c 0,0.8 -0.6,1.4 -1.4,1.4 l -19.4,0 c -0.8,0 -1.4,-0.6 -1.4,-1.4 l 0,-19.8 c -0.1,-0.8 0.6,-1.4 1.4,-1.4 z"
       id="path200"
       inkscape:connector-curvature="0"
       style="fill:#9b9a9a" />
    <path
       d="m 347.1,146.4 13.5,0 c 0.8,0 1.4,0.6 1.4,1.4 l 0,13.5 c 0,0.8 -0.6,1.4 -1.4,1.4 l -13.5,0 c -0.8,0 -1.4,-0.6 -1.4,-1.4 l 0,-13.5 c 0,-0.8 0.7,-1.4 1.4,-1.4 z"
       id="path202"
       inkscape:connector-curvature="0"
       style="fill:#cfd0cf" />
    <path
       d="m 200.7,144.2 19.4,0 c 0.8,0 1.4,0.6 1.4,1.4 l 0,19.8 c 0,0.8 -0.6,1.4 -1.4,1.4 l -19.4,0 c -0.8,0 -1.4,-0.6 -1.4,-1.4 l 0,-19.8 c 0,-0.8 0.6,-1.4 1.4,-1.4 z"
       id="path204"
       inkscape:connector-curvature="0"
       style="fill:#9b9a9a" />
    <path
       d="m 203.7,146.4 13.5,0 c 0.8,0 1.4,0.6 1.4,1.4 l 0,13.5 c 0,0.8 -0.6,1.4 -1.4,1.4 l -13.5,0 c -0.8,0 -1.4,-0.6 -1.4,-1.4 l 0,-13.5 c 0,-0.8 0.6,-1.4 1.4,-1.4 z"
       id="path206"
       inkscape:connector-curvature="0"
       style="fill:#cfd0cf" />
    <path
       d="m 176.8,144.2 19.4,0 c 0.8,0 1.4,0.6 1.4,1.4 l 0,19.8 c 0,0.8 -0.6,1.4 -1.4,1.4 l -19.4,0 c -0.8,0 -1.4,-0.6 -1.4,-1.4 l 0,-19.8 c 0,-0.8 0.6,-1.4 1.4,-1.4 z"
       id="path208"
       inkscape:connector-curvature="0"
       style="fill:#9b9a9a" />
    <path
       d="m 179.8,146.4 13.5,0 c 0.8,0 1.4,0.6 1.4,1.4 l 0,13.5 c 0,0.8 -0.6,1.4 -1.4,1.4 l -13.5,0 c -0.8,0 -1.4,-0.6 -1.4,-1.4 l 0,-13.5 c -0.1,-0.8 0.6,-1.4 1.4,-1.4 z"
       id="path210"
       inkscape:connector-curvature="0"
       style="fill:#cfd0cf" />
    <path
       d="m 152.9,144.2 19.4,0 c 0.8,0 1.4,0.6 1.4,1.4 l 0,19.8 c 0,0.8 -0.6,1.4 -1.4,1.4 l -19.4,0 c -0.8,0 -1.4,-0.6 -1.4,-1.4 l 0,-19.8 c 0,-0.8 0.6,-1.4 1.4,-1.4 z"
       id="path212"
       inkscape:connector-curvature="0"
       style="fill:#9b9a9a" />
    <path
       d="m 155.9,146.4 13.5,0 c 0.8,0 1.4,0.6 1.4,1.4 l 0,13.5 c 0,0.8 -0.6,1.4 -1.4,1.4 l -13.5,0 c -0.8,0 -1.4,-0.6 -1.4,-1.4 l 0,-13.5 c -0.1,-0.8 0.6,-1.4 1.4,-1.4 z"
       id="path214"
       inkscape:connector-curvature="0"
       style="fill:#cfd0cf" />
    <path
       d="m 129,144.2 19.4,0 c 0.8,0 1.4,0.6 1.4,1.4 l 0,19.8 c 0,0.8 -0.6,1.4 -1.4,1.4 l -19.4,0 c -0.8,0 -1.4,-0.6 -1.4,-1.4 l 0,-19.8 c 0,-0.8 0.6,-1.4 1.4,-1.4 z"
       id="path216"
       inkscape:connector-curvature="0"
       style="fill:#9b9a9a" />
    <path
       d="m 132,146.4 13.5,0 c 0.8,0 1.4,0.6 1.4,1.4 l 0,13.5 c 0,0.8 -0.6,1.4 -1.4,1.4 l -13.5,0 c -0.8,0 -1.4,-0.6 -1.4,-1.4 l 0,-13.5 c -0.1,-0.8 0.6,-1.4 1.4,-1.4 z"
       id="path218"
       inkscape:connector-curvature="0"
       style="fill:#cfd0cf" />
    <path
       d="m 105.1,144.2 19.4,0 c 0.8,0 1.4,0.6 1.4,1.4 l 0,19.8 c 0,0.8 -0.6,1.4 -1.4,1.4 l -19.4,0 c -0.8,0 -1.4,-0.6 -1.4,-1.4 l 0,-19.8 c 0,-0.8 0.6,-1.4 1.4,-1.4 z"
       id="path220"
       inkscape:connector-curvature="0"
       style="fill:#9b9a9a" />
    <path
       d="m 108.1,146.4 13.5,0 c 0.8,0 1.4,0.6 1.4,1.4 l 0,13.5 c 0,0.8 -0.6,1.4 -1.4,1.4 l -13.5,0 c -0.8,0 -1.4,-0.6 -1.4,-1.4 l 0,-13.5 c -0.1,-0.8 0.6,-1.4 1.4,-1.4 z"
       id="path222"
       inkscape:connector-curvature="0"
       style="fill:#cfd0cf" />
    <path
       d="m 81.2,144.2 19.4,0 c 0.8,0 1.4,0.6 1.4,1.4 l 0,19.8 c 0,0.8 -0.6,1.4 -1.4,1.4 l -19.4,0 c -0.8,0 -1.4,-0.6 -1.4,-1.4 l 0,-19.8 c -0.1,-0.8 0.6,-1.4 1.4,-1.4 z"
       id="path224"
       inkscape:connector-curvature="0"
       style="fill:#9b9a9a" />
    <path
       d="m 84.1,146.4 13.5,0 c 0.8,0 1.4,0.6 1.4,1.4 l 0,13.5 c 0,0.8 -0.6,1.4 -1.4,1.4 l -13.5,0 c -0.8,0 -1.4,-0.6 -1.4,-1.4 l 0,-13.5 c 0,-0.8 0.7,-1.4 1.4,-1.4 z"
       id="path226"
       inkscape:connector-curvature="0"
       style="fill:#cfd0cf" />
    <path
       d="m 57.3,144.2 19.4,0 c 0.8,0 1.4,0.6 1.4,1.4 l 0,19.8 c 0,0.8 -0.6,1.4 -1.4,1.4 l -19.4,0 c -0.8,0 -1.4,-0.6 -1.4,-1.4 l 0,-19.8 c -0.1,-0.8 0.6,-1.4 1.4,-1.4 z"
       id="path228"
       inkscape:connector-curvature="0"
       style="fill:#9b9a9a" />
    <path
       d="m 60.2,146.4 13.5,0 c 0.8,0 1.4,0.6 1.4,1.4 l 0,13.5 c 0,0.8 -0.6,1.4 -1.4,1.4 l -13.5,0 c -0.8,0 -1.4,-0.6 -1.4,-1.4 l 0,-13.5 c 0,-0.8 0.6,-1.4 1.4,-1.4 z"
       id="path230"
       inkscape:connector-curvature="0"
       style="fill:#cfd0cf" />
    <path
       d="m 19.5,216.3 40.1,0 c 0.8,0 1.4,0.6 1.4,1.4 l 0,19.8 c 0,0.8 -0.6,1.4 -1.4,1.4 l -40.1,0 c -0.8,0 -1.4,-0.6 -1.4,-1.4 l 0,-19.8 c -0.1,-0.8 0.6,-1.4 1.4,-1.4 z"
       id="path232"
       inkscape:connector-curvature="0"
       style="fill:#60605d" />
    <path
       d="m 22.4,218.5 34.2,0 c 0.8,0 1.4,0.6 1.4,1.4 l 0,13.5 c 0,0.8 -0.6,1.4 -1.4,1.4 l -34.2,0 c -0.8,0 -1.4,-0.6 -1.4,-1.4 l 0,-13.5 c 0,-0.8 0.6,-1.4 1.4,-1.4 z"
       id="path234"
       inkscape:connector-curvature="0"
       style="fill:#868580" />
    <path
       d="m 327.4,216.3 36.1,0 c 0.8,0 1.4,0.6 1.4,1.4 l 0,19.8 c 0,0.8 -0.6,1.4 -1.4,1.4 l -36.1,0 c -0.8,0 -1.4,-0.6 -1.4,-1.4 l 0,-19.8 c -0.1,-0.8 0.6,-1.4 1.4,-1.4 z"
       id="path236"
       inkscape:connector-curvature="0"
       style="fill:#60605d" />
    <path
       d="m 330.3,218.5 30.2,0 c 0.8,0 1.4,0.6 1.4,1.4 l 0,13.5 c 0,0.8 -0.6,1.4 -1.4,1.4 l -30.2,0 c -0.8,0 -1.4,-0.6 -1.4,-1.4 l 0,-13.5 c 0,-0.8 0.6,-1.4 1.4,-1.4 z"
       id="path238"
       inkscape:connector-curvature="0"
       style="fill:#868580" />
    <path
       d="m 38.8,240.3 26.8,0 c 0.8,0 1.4,0.6 1.4,1.4 l 0,19.8 c 0,0.8 -0.6,1.4 -1.4,1.4 l -26.8,0 c -0.8,0 -1.4,-0.6 -1.4,-1.4 l 0,-19.8 c -0.1,-0.7 0.6,-1.4 1.4,-1.4 z"
       id="path240"
       inkscape:connector-curvature="0"
       style="fill:#60605d" />
    <path
       d="m 41.7,242.5 20.9,0 c 0.8,0 1.4,0.6 1.4,1.4 l 0,13.5 c 0,0.8 -0.6,1.4 -1.4,1.4 l -20.9,0 c -0.8,0 -1.4,-0.6 -1.4,-1.4 l 0,-13.4 c 0,-0.8 0.6,-1.5 1.4,-1.5 z"
       id="path242"
       inkscape:connector-curvature="0"
       style="fill:#868580" />
    <path
       d="m 69.7,240.3 26.8,0 c 0.8,0 1.4,0.6 1.4,1.4 l 0,19.8 c 0,0.8 -0.6,1.4 -1.4,1.4 l -26.8,0 c -0.8,0 -1.4,-0.6 -1.4,-1.4 l 0,-19.8 c -0.1,-0.7 0.6,-1.4 1.4,-1.4 z"
       id="path244"
       inkscape:connector-curvature="0"
       style="fill:#60605d" />
    <path
       d="m 72.6,242.5 20.9,0 c 0.8,0 1.4,0.6 1.4,1.4 l 0,13.5 c 0,0.8 -0.6,1.4 -1.4,1.4 l -20.9,0 c -0.8,0 -1.4,-0.6 -1.4,-1.4 l 0,-13.4 c 0,-0.8 0.6,-1.5 1.4,-1.5 z"
       id="path246"
       inkscape:connector-curvature="0"
       style="fill:#868580" />
    <path
       d="m 290.1,240.3 25.8,0 c 0.8,0 1.4,0.6 1.4,1.4 l 0,19.8 c 0,0.8 -0.6,1.4 -1.4,1.4 l -25.8,0 c -0.8,0 -1.4,-0.6 -1.4,-1.4 l 0,-19.8 c -0.1,-0.7 0.6,-1.4 1.4,-1.4 z"
       id="path248"
       inkscape:connector-curvature="0"
       style="fill:#60605d" />
    <path
       d="m 293,242.5 19.9,0 c 0.8,0 1.4,0.6 1.4,1.4 l 0,13.5 c 0,0.8 -0.6,1.4 -1.4,1.4 l -19.9,0 c -0.8,0 -1.4,-0.6 -1.4,-1.4 l 0,-13.4 c 0,-0.8 0.6,-1.5 1.4,-1.5 z"
       id="path250"
       inkscape:connector-curvature="0"
       style="fill:#868580" />
    <path
       d="m 19.5,192.2 28.5,0 c 0.8,0 1.4,0.6 1.4,1.4 l 0,19.8 c 0,0.8 -0.6,1.4 -1.4,1.4 l -28.5,0 c -0.8,0 -1.4,-0.6 -1.4,-1.4 l 0,-19.8 c -0.1,-0.7 0.6,-1.4 1.4,-1.4 z"
       id="path252"
       inkscape:connector-curvature="0"
       style="fill:#60605d" />
    <path
       d="m 22.4,194.4 22.6,0 c 0.8,0 1.4,0.6 1.4,1.4 l 0,13.5 c 0,0.8 -0.6,1.4 -1.4,1.4 l -22.6,0 c -0.8,0 -1.4,-0.6 -1.4,-1.4 l 0,-13.5 c 0,-0.7 0.6,-1.4 1.4,-1.4 z"
       id="path254"
       inkscape:connector-curvature="0"
       style="fill:#868580" />
    <path
       d="m 52.7,192.2 19.2,0 c 0.8,0 1.4,0.6 1.4,1.4 l 0,19.8 c 0,0.8 -0.6,1.4 -1.4,1.4 l -19.2,0 c -0.8,0 -1.4,-0.6 -1.4,-1.4 l 0,-19.8 c 0,-0.7 0.6,-1.4 1.4,-1.4 z"
       id="path256"
       inkscape:connector-curvature="0"
       style="fill:#60605d" />
    <path
       d="m 55.7,194.4 13.3,0 c 0.8,0 1.4,0.6 1.4,1.4 l 0,13.5 c 0,0.8 -0.6,1.4 -1.4,1.4 l -13.3,0 c -0.8,0 -1.4,-0.6 -1.4,-1.4 l 0,-13.5 c 0,-0.7 0.6,-1.4 1.4,-1.4 z"
       id="path258"
       inkscape:connector-curvature="0"
       style="fill:#868580" />
    <path
       d="m 368.1,144.2 19.2,0 c 0.8,0 1.4,0.6 1.4,1.4 l 0,19.8 c 0,0.8 -0.6,1.4 -1.4,1.4 l -19.2,0 c -0.8,0 -1.4,-0.6 -1.4,-1.4 l 0,-19.8 c 0,-0.8 0.6,-1.4 1.4,-1.4 z"
       id="path260"
       inkscape:connector-curvature="0"
       style="fill:#60605d" />
    <path
       d="m 371.1,146.4 13.3,0 c 0.8,0 1.4,0.6 1.4,1.4 l 0,13.5 c 0,0.8 -0.6,1.4 -1.4,1.4 l -13.3,0 c -0.8,0 -1.4,-0.6 -1.4,-1.4 l 0,-13.5 c -0.1,-0.8 0.6,-1.4 1.4,-1.4 z"
       id="path262"
       inkscape:connector-curvature="0"
       style="fill:#868580" />
    <path
       d="m 391.8,144.2 19.2,0 c 0.8,0 1.4,0.6 1.4,1.4 l 0,19.8 c 0,0.8 -0.6,1.4 -1.4,1.4 l -19.2,0 c -0.8,0 -1.4,-0.6 -1.4,-1.4 l 0,-19.8 c 0,-0.8 0.6,-1.4 1.4,-1.4 z"
       id="path264"
       inkscape:connector-curvature="0"
       style="fill:#60605d" />
    <path
       d="m 394.8,146.4 13.3,0 c 0.8,0 1.4,0.6 1.4,1.4 l 0,13.5 c 0,0.8 -0.6,1.4 -1.4,1.4 l -13.3,0 c -0.8,0 -1.4,-0.6 -1.4,-1.4 l 0,-13.5 c -0.1,-0.8 0.6,-1.4 1.4,-1.4 z"
       id="path266"
       inkscape:connector-curvature="0"
       style="fill:#868580" />
    <path
       d="m 19.5,168.2 45.8,0 c 0.8,0 1.4,0.6 1.4,1.4 l 0,19.8 c 0,0.8 -0.6,1.4 -1.4,1.4 l -45.8,0 c -0.8,0 -1.4,-0.6 -1.4,-1.4 l 0,-19.8 c -0.1,-0.8 0.6,-1.4 1.4,-1.4 z"
       id="path268"
       inkscape:connector-curvature="0"
       style="fill:#60605d" />
    <path
       d="m 22.4,170.4 39.9,0 c 0.8,0 1.4,0.6 1.4,1.4 l 0,13.5 c 0,0.8 -0.6,1.4 -1.4,1.4 l -39.9,0 c -0.8,0 -1.4,-0.6 -1.4,-1.4 l 0,-13.5 c 0,-0.8 0.6,-1.4 1.4,-1.4 z"
       id="path270"
       inkscape:connector-curvature="0"
       style="fill:#868580" />
    <path
       d="m 19.5,144.2 33.4,0 c 0.8,0 1.4,0.6 1.4,1.4 l 0,19.8 c 0,0.8 -0.6,1.4 -1.4,1.4 l -33.4,0 c -0.8,0 -1.4,-0.6 -1.4,-1.4 l 0,-19.8 c -0.1,-0.8 0.6,-1.4 1.4,-1.4 z"
       id="path272"
       inkscape:connector-curvature="0"
       style="fill:#60605d" />
    <path
       d="m 22.4,146.4 27.5,0 c 0.8,0 1.4,0.6 1.4,1.4 l 0,13.5 c 0,0.8 -0.6,1.4 -1.4,1.4 l -27.5,0 c -0.8,0 -1.4,-0.6 -1.4,-1.4 l 0,-13.5 c 0,-0.8 0.6,-1.4 1.4,-1.4 z"
       id="path274"
       inkscape:connector-curvature="0"
       style="fill:#868580" />
    <path
       d="m 356.8,168.2 30.5,0 c 0.8,0 1.4,0.6 1.4,1.4 l 0,43.7 c 0,0.8 -0.6,1.4 -1.4,1.4 l -23.5,0 c -0.8,0 -1.4,-0.6 -1.4,-1.4 l 0,-18.7 c 0,-2.4 -1.5,-3.2 -3.7,-3.2 -3,0 -3.3,-1.8 -3.3,-3 l 0,-18.8 c 0,-0.8 0.7,-1.4 1.4,-1.4 z"
       id="path276"
       inkscape:connector-curvature="0"
       style="fill:#60605d" />
    <path
       d="m 359.7,170.3 24.8,0 c 0.8,0 1.4,0.6 1.4,1.4 l 0,37.7 c 0,0.8 -0.6,1.4 -1.4,1.4 l -17.8,0 c -0.8,0 -1.4,-0.6 -1.4,-1.4 l 0,-16.6 c 0,-2 -1.9,-3 -3.6,-3 -3.1,0 -3.4,-2.1 -3.4,-3.1 l 0,-15 c 0,-0.8 0.6,-1.4 1.4,-1.4 z"
       id="path278"
       inkscape:connector-curvature="0"
       style="fill:#868580" />
    <path
       d="m 19.4,105.7 19.4,0 c 0.8,0 1.4,0.6 1.4,1.4 l 0,19.8 c 0,0.8 -0.6,1.4 -1.4,1.4 l -19.4,0 c -0.8,0 -1.4,-0.6 -1.4,-1.4 l 0,-19.8 c -0.1,-0.8 0.6,-1.4 1.4,-1.4 z"
       id="path280"
       inkscape:connector-curvature="0"
       style="fill:#60605d" />
    <path
       d="m 22.3,107.9 13.5,0 c 0.8,0 1.4,0.6 1.4,1.4 l 0,13.5 c 0,0.8 -0.6,1.4 -1.4,1.4 l -13.5,0 c -0.8,0 -1.4,-0.6 -1.4,-1.4 l 0,-13.5 c 0,-0.8 0.6,-1.4 1.4,-1.4 z"
       id="path282"
       inkscape:connector-curvature="0"
       style="fill:#868580" />
    <path
       d="m 56.7,105.7 26.2,0 c 0.8,0 1.4,0.6 1.4,1.4 l 0,19.8 c 0,0.8 -0.6,1.4 -1.4,1.4 l -26.2,0 c -0.8,0 -1.4,-0.6 -1.4,-1.4 l 0,-19.8 c 0,-0.8 0.6,-1.4 1.4,-1.4 z"
       id="path284"
       inkscape:connector-curvature="0"
       style="fill:#60605d" />
    <path
       d="m 59.7,107.9 20.3,0 c 0.8,0 1.4,0.6 1.4,1.4 l 0,13.5 c 0,0.8 -0.6,1.4 -1.4,1.4 l -20.3,0 c -0.8,0 -1.4,-0.6 -1.4,-1.4 l 0,-13.5 c -0.1,-0.8 0.6,-1.4 1.4,-1.4 z"
       id="path286"
       inkscape:connector-curvature="0"
       style="fill:#868580" />
    <path
       d="m 87.1,105.7 26.2,0 c 0.8,0 1.4,0.6 1.4,1.4 l 0,19.8 c 0,0.8 -0.6,1.4 -1.4,1.4 l -26.2,0 c -0.8,0 -1.4,-0.6 -1.4,-1.4 l 0,-19.8 c -0.1,-0.8 0.6,-1.4 1.4,-1.4 z"
       id="path288"
       inkscape:connector-curvature="0"
       style="fill:#60605d" />
    <path
       d="m 90,107.9 20.3,0 c 0.8,0 1.4,0.6 1.4,1.4 l 0,13.5 c 0,0.8 -0.6,1.4 -1.4,1.4 l -20.3,0 c -0.8,0 -1.4,-0.6 -1.4,-1.4 l 0,-13.5 c 0,-0.8 0.6,-1.4 1.4,-1.4 z"
       id="path290"
       inkscape:connector-curvature="0"
       style="fill:#868580" />
    <path
       d="m 117.4,105.7 26.2,0 c 0.8,0 1.4,0.6 1.4,1.4 l 0,19.8 c 0,0.8 -0.6,1.4 -1.4,1.4 l -26.2,0 c -0.8,0 -1.4,-0.6 -1.4,-1.4 l 0,-19.8 c 0,-0.8 0.7,-1.4 1.4,-1.4 z"
       id="path292"
       inkscape:connector-curvature="0"
       style="fill:#60605d" />
    <path
       d="m 120.4,107.9 20.3,0 c 0.8,0 1.4,0.6 1.4,1.4 l 0,13.5 c 0,0.8 -0.6,1.4 -1.4,1.4 l -20.3,0 c -0.8,0 -1.4,-0.6 -1.4,-1.4 l 0,-13.5 c 0,-0.8 0.6,-1.4 1.4,-1.4 z"
       id="path294"
       inkscape:connector-curvature="0"
       style="fill:#868580" />
    <path
       d="m 147.8,105.7 26.2,0 c 0.8,0 1.4,0.6 1.4,1.4 l 0,19.8 c 0,0.8 -0.6,1.4 -1.4,1.4 l -26.2,0 c -0.8,0 -1.4,-0.6 -1.4,-1.4 l 0,-19.8 c 0,-0.8 0.6,-1.4 1.4,-1.4 z"
       id="path296"
       inkscape:connector-curvature="0"
       style="fill:#60605d" />
    <path
       d="m 150.8,107.9 20.3,0 c 0.8,0 1.4,0.6 1.4,1.4 l 0,13.5 c 0,0.8 -0.6,1.4 -1.4,1.4 l -20.3,0 c -0.8,0 -1.4,-0.6 -1.4,-1.4 l 0,-13.5 c -0.1,-0.8 0.6,-1.4 1.4,-1.4 z"
       id="path298"
       inkscape:connector-curvature="0"
       style="fill:#868580" />
    <path
       d="m 178.2,105.7 26.2,0 c 0.8,0 1.4,0.6 1.4,1.4 l 0,19.8 c 0,0.8 -0.6,1.4 -1.4,1.4 l -26.2,0 c -0.8,0 -1.4,-0.6 -1.4,-1.4 l 0,-19.8 c 0,-0.8 0.6,-1.4 1.4,-1.4 z"
       id="path300"
       inkscape:connector-curvature="0"
       style="fill:#60605d" />
    <path
       d="m 181.2,107.9 20.3,0 c 0.8,0 1.4,0.6 1.4,1.4 l 0,13.5 c 0,0.8 -0.6,1.4 -1.4,1.4 l -20.3,0 c -0.8,0 -1.4,-0.6 -1.4,-1.4 l 0,-13.5 c -0.1,-0.8 0.6,-1.4 1.4,-1.4 z"
       id="path302"
       inkscape:connector-curvature="0"
       style="fill:#868580" />
    <path
       d="m 218.5,105.7 26.2,0 c 0.8,0 1.4,0.6 1.4,1.4 l 0,19.8 c 0,0.8 -0.6,1.4 -1.4,1.4 l -26.2,0 c -0.8,0 -1.4,-0.6 -1.4,-1.4 l 0,-19.8 c 0,-0.8 0.6,-1.4 1.4,-1.4 z"
       id="path304"
       inkscape:connector-curvature="0"
       style="fill:#60605d" />
    <path
       d="m 221.5,107.9 20.3,0 c 0.8,0 1.4,0.6 1.4,1.4 l 0,13.5 c 0,0.8 -0.6,1.4 -1.4,1.4 l -20.3,0 c -0.8,0 -1.4,-0.6 -1.4,-1.4 l 0,-13.5 c -0.1,-0.8 0.6,-1.4 1.4,-1.4 z"
       id="path306"
       inkscape:connector-curvature="0"
       style="fill:#868580" />
    <path
       d="m 248.9,105.7 26.1,0 c 0.8,0 1.4,0.6 1.4,1.4 l 0,19.8 c 0,0.8 -0.6,1.4 -1.4,1.4 l -26.2,0 c -0.8,0 -1.4,-0.6 -1.4,-1.4 l 0,-19.8 c 0,-0.8 0.7,-1.4 1.5,-1.4 z"
       id="path308"
       inkscape:connector-curvature="0"
       style="fill:#60605d" />
    <path
       d="m 251.8,107.9 20.3,0 c 0.8,0 1.4,0.6 1.4,1.4 l 0,13.5 c 0,0.8 -0.6,1.4 -1.4,1.4 l -20.3,0 c -0.8,0 -1.4,-0.6 -1.4,-1.4 l 0,-13.5 c 0,-0.8 0.6,-1.4 1.4,-1.4 z"
       id="path310"
       inkscape:connector-curvature="0"
       style="fill:#868580" />
    <path
       d="m 279.2,105.7 26.2,0 c 0.8,0 1.4,0.6 1.4,1.4 l 0,19.8 c 0,0.8 -0.6,1.4 -1.4,1.4 l -26.2,0 c -0.8,0 -1.4,-0.6 -1.4,-1.4 l 0,-19.8 c 0,-0.8 0.7,-1.4 1.4,-1.4 z"
       id="path312"
       inkscape:connector-curvature="0"
       style="fill:#60605d" />
    <path
       d="m 282.2,107.9 20.3,0 c 0.8,0 1.4,0.6 1.4,1.4 l 0,13.5 c 0,0.8 -0.6,1.4 -1.4,1.4 l -20.3,0 c -0.8,0 -1.4,-0.6 -1.4,-1.4 l 0,-13.5 c 0,-0.8 0.6,-1.4 1.4,-1.4 z"
       id="path314"
       inkscape:connector-curvature="0"
       style="fill:#868580" />
    <path
       d="m 309.6,105.7 26.2,0 c 0.8,0 1.4,0.6 1.4,1.4 l 0,19.8 c 0,0.8 -0.6,1.4 -1.4,1.4 l -26.2,0 c -0.8,0 -1.4,-0.6 -1.4,-1.4 l 0,-19.8 c 0,-0.8 0.6,-1.4 1.4,-1.4 z"
       id="path316"
       inkscape:connector-curvature="0"
       style="fill:#60605d" />
    <path
       d="m 312.6,107.9 20.3,0 c 0.8,0 1.4,0.6 1.4,1.4 l 0,13.5 c 0,0.8 -0.6,1.4 -1.4,1.4 l -20.3,0 c -0.8,0 -1.4,-0.6 -1.4,-1.4 l 0,-13.5 c -0.1,-0.8 0.6,-1.4 1.4,-1.4 z"
       id="path318"
       inkscape:connector-curvature="0"
       style="fill:#868580" />
    <path
       d="m 340,105.7 26.2,0 c 0.8,0 1.4,0.6 1.4,1.4 l 0,19.8 c 0,0.8 -0.6,1.4 -1.4,1.4 l -26.2,0 c -0.8,0 -1.4,-0.6 -1.4,-1.4 l 0,-19.8 c 0,-0.8 0.6,-1.4 1.4,-1.4 z"
       id="path320"
       inkscape:connector-curvature="0"
       style="fill:#60605d" />
    <path
       d="m 343,107.9 20.3,0 c 0.8,0 1.4,0.6 1.4,1.4 l 0,13.5 c 0,0.8 -0.6,1.4 -1.4,1.4 l -20.3,0 c -0.8,0 -1.4,-0.6 -1.4,-1.4 l 0,-13.5 c -0.1,-0.8 0.6,-1.4 1.4,-1.4 z"
       id="path322"
       inkscape:connector-curvature="0"
       style="fill:#868580" />
    <path
       d="m 384.8,105.7 26.2,0 c 0.8,0 1.4,0.6 1.4,1.4 l 0,19.8 c 0,0.8 -0.6,1.4 -1.4,1.4 l -26.2,0 c -0.8,0 -1.4,-0.6 -1.4,-1.4 l 0,-19.8 c 0,-0.8 0.6,-1.4 1.4,-1.4 z"
       id="path324"
       inkscape:connector-curvature="0"
       style="fill:#60605d" />
    <path
       d="m 387.8,107.9 20.3,0 c 0.8,0 1.4,0.6 1.4,1.4 l 0,13.5 c 0,0.8 -0.6,1.4 -1.4,1.4 l -20.3,0 c -0.8,0 -1.4,-0.6 -1.4,-1.4 l 0,-13.5 c 0,-0.8 0.6,-1.4 1.4,-1.4 z"
       id="path326"
       inkscape:connector-curvature="0"
       style="fill:#868580" />
  </g>
  <g
     id="g328"
     transform="scale(0.93589144,0.93589144)"
     style="fill-rule:evenodd">
    <path
       d="m 399.1,177.2 8.7,0 c 0,0 0.1,0.1 0.1,0.2 l 0,2.8 c 0,0.1 0,0.2 -0.1,0.2 l -8.7,0 c 0,0 -0.1,-0.1 -0.1,-0.2 l 0,-2.8 c 0,-0.1 0.1,-0.2 0.1,-0.2 z"
       id="path330"
       inkscape:connector-curvature="0"
       style="fill:#bad532" />
    <path
       d="m 399.1,201 8.7,0 c 0,0 0.1,0.1 0.1,0.2 l 0,2.8 c 0,0.1 0,0.2 -0.1,0.2 l -8.7,0 c 0,0 -0.1,-0.1 -0.1,-0.2 l 0,-2.8 c 0,-0.1 0.1,-0.2 0.1,-0.2 z m 0,23.9 8.7,0 c 0,0 0.1,0.1 0.1,0.2 l 0,2.8 c 0,0.1 0,0.2 -0.1,0.2 l -8.7,0 c 0,0 -0.1,-0.1 -0.1,-0.2 l 0,-2.8 c 0,-0.1 0.1,-0.2 0.1,-0.2 z"
       id="path332"
       inkscape:connector-curvature="0"
       style="fill:#525056" />
    <path
       d="m 406.4,179.6 -5.9,0 c -0.3,0 -0.6,-0.3 -0.6,-0.6 l 0,-0.4 c 0,-0.3 0.3,-0.6 0.6,-0.6 l 5.9,0 c 0.3,0 0.6,0.3 0.6,0.6 l 0,0.4 c 0.1,0.4 -0.2,0.6 -0.6,0.6 z"
       id="path334"
       inkscape:connector-curvature="0"
       style="fill:#e7e514" />
  </g>
  <g
     id="g336"
     transform="scale(0.93589144,0.93589144)"
     style="fill-rule:evenodd">
    <path
       d="m 18.5,92.1 0,-14.2 c 0,-0.5 0.4,-1 1,-1 l 60.7,0 c 0.1,0 0.3,0 0.4,0.1 -0.2,-0.2 -0.4,-0.4 -0.7,-0.4 l -60.8,0 c -0.5,0 -1,0.4 -1,1 l 0,14.2 c 0,0.4 0.2,0.7 0.6,0.9 -0.1,-0.2 -0.2,-0.4 -0.2,-0.6 z"
       id="path338"
       inkscape:connector-curvature="0"
       style="fill:#eaeaea" />
    <path
       d="m 80.3,76.8 c 0.1,0.1 0.1,0.3 0.1,0.5 l 0,14.2 c 0,0.5 -0.4,1 -1,1 l -60.7,0 c -0.2,0 -0.3,-0.1 -0.5,-0.1 0.2,0.3 0.5,0.5 0.8,0.5 l 60.7,0 c 0.5,0 1,-0.4 1,-1 l 0,-14.3 C 80.8,77.3 80.6,77 80.3,76.8 Z"
       id="path340"
       inkscape:connector-curvature="0"
       style="fill:#777878" />
  </g>
  <path
     d="m 43.893308,83.38792 1.21666,-1.87179 0.280765,1.87179 -1.497425,0 z m 2.994852,1.96537 0.09359,-0.1872 -0.18718,0 c -0.09359,0 -0.18718,-0.0936 -0.18718,-0.0936 l -0.18718,-0.1872 c 0,-0.0936 -0.0936,-0.0936 -0.0936,-0.1872 l -0.655124,-4.21149 -0.280768,0 c -0.374356,0.56153 -0.748712,1.21665 -1.216658,2.05896 -0.467946,0.74872 -0.935893,1.49741 -1.310248,2.15253 -0.09359,0.0936 -0.187181,0.28079 -0.280769,0.28079 -0.09357,0.0936 -0.18718,0.0936 -0.18718,0.1872 -0.09359,0 -0.187179,0.0936 -0.280768,0.0936 l -0.18718,0 -0.09357,0.1872 1.871782,0 0.09359,-0.1872 c -0.18718,0 -0.374357,0 -0.467947,-0.0936 -0.0936,0 -0.187178,-0.0936 -0.187178,-0.1872 0,0 0,-0.0936 0.09359,-0.1872 0,-0.0936 0.0936,-0.1872 0.0936,-0.28076 0,-0.0936 0.09359,-0.1872 0.18718,-0.37436 0.09359,-0.1872 0.18718,-0.28079 0.280768,-0.37436 l 1.684604,0 c 0.09357,0.37436 0.09357,0.65512 0.09357,0.84229 l 0,0.37436 c 0,0.0936 0,0.0936 -0.09357,0.0936 0,0 -0.09359,0.0936 -0.18718,0.0936 l -0.467946,0 -0.09359,0.1872 2.152551,0 z m 5.334581,-2.71409 c -0.18718,-0.28076 -0.467945,-0.37435 -0.842301,-0.37435 -0.18718,0 -0.467947,0 -0.655124,0.0936 -0.18718,0.0936 -0.467947,0.1872 -0.655124,0.37436 0.18718,-0.46793 0.467945,-0.93589 0.842301,-1.31025 0.374356,-0.37435 0.842303,-0.56152 1.310248,-0.74871 l 0.280768,0 0,-0.28077 c -0.467945,0.0936 -0.935892,0.1872 -1.310248,0.37436 -0.374356,0.1872 -0.748713,0.46796 -1.02948,0.74872 -0.280768,0.28076 -0.561536,0.65512 -0.748713,1.12305 -0.18718,0.37438 -0.280768,0.84231 -0.280768,1.31027 0,0.46793 0.09359,0.84231 0.374356,1.12307 0.280768,0.28077 0.561536,0.37436 1.029481,0.37436 0.280768,0 0.561535,-0.0936 0.748712,-0.18722 0.280768,-0.0936 0.467947,-0.28074 0.655124,-0.46793 0.18718,-0.1872 0.280768,-0.37436 0.467947,-0.65512 0.09359,-0.28077 0.18718,-0.46796 0.18718,-0.74872 0,-0.28076 -0.09359,-0.56153 -0.374356,-0.74872 z m -0.748712,2.15256 c -0.280768,0.28076 -0.467945,0.46793 -0.842304,0.46793 -0.280765,0 -0.467944,-0.0936 -0.561533,-0.28076 -0.09359,-0.1872 -0.18718,-0.46793 -0.18718,-0.84229 0,-0.1872 0,-0.46796 0.09359,-0.65515 0,-0.1872 0.09359,-0.28076 0.09359,-0.37433 0.18718,-0.0936 0.280768,-0.28079 0.467947,-0.28079 0.187179,-0.0936 0.374356,-0.0936 0.561533,-0.0936 0.280768,0 0.467947,0.0936 0.561536,0.28076 0.18718,0.1872 0.18718,0.37436 0.18718,0.74872 0,0.28076 -0.09359,0.65512 -0.374356,1.02948 z m 5.147403,-2.80768 c -0.280768,-0.28076 -0.655124,-0.37436 -1.123069,-0.37436 -0.28077,0 -0.655124,0.0936 -0.935894,0.1872 -0.280765,0.0936 -0.561533,0.28077 -0.748712,0.56153 -0.187178,0.28076 -0.374356,0.46795 -0.467945,0.84231 -0.09359,0.28076 -0.18718,0.65512 -0.18718,0.93589 0,0.37436 0.09357,0.74871 0.374356,1.02948 0.280768,0.28076 0.655124,0.37436 1.123069,0.37436 0.374356,0 0.655126,-0.0936 0.935894,-0.1872 0.280765,-0.0936 0.561533,-0.28077 0.74871,-0.56153 0.187182,-0.1872 0.374359,-0.46795 0.467947,-0.84231 0.09357,-0.28077 0.18718,-0.65512 0.18718,-0.93589 0,-0.46795 -0.09359,-0.74871 -0.374356,-1.02948 z m -0.467945,1.59101 -0.28077,0.84231 c -0.18718,0.28076 -0.374354,0.56153 -0.561533,0.65512 -0.18718,0.1872 -0.374356,0.1872 -0.655124,0.1872 -0.280768,0 -0.467945,-0.0936 -0.561535,-0.28076 -0.09359,-0.1872 -0.18718,-0.37436 -0.18718,-0.74872 0,-0.1872 0,-0.46793 0.0936,-0.74872 0.09359,-0.28076 0.18718,-0.56152 0.28077,-0.74869 0.09359,-0.28079 0.280765,-0.46795 0.467945,-0.65512 0.18718,-0.1872 0.467944,-0.1872 0.655124,-0.1872 0.280765,0 0.467944,0.0936 0.561533,0.28074 0.09359,0.18722 0.18718,0.37438 0.18718,0.74874 0.09359,0.0936 0.09359,0.37436 0,0.65512 z m 4.773045,-1.59101 c -0.280767,-0.28076 -0.655124,-0.37436 -1.123069,-0.37436 -0.280767,0 -0.655124,0.0936 -0.935891,0.1872 -0.280768,0.0936 -0.561536,0.28077 -0.748713,0.56153 -0.18718,0.28076 -0.374356,0.46795 -0.467947,0.84231 -0.09357,0.37436 -0.18718,0.65512 -0.18718,0.93589 0,0.37436 0.09357,0.74871 0.374356,1.02948 0.280768,0.28076 0.655124,0.37436 1.123071,0.37436 0.374357,0 0.655124,-0.0936 0.935892,-0.1872 0.280768,-0.0936 0.561533,-0.28077 0.748713,-0.56153 0.18718,-0.1872 0.374356,-0.46795 0.467944,-0.84231 0.09357,-0.28077 0.18718,-0.65512 0.18718,-0.93589 0.09359,-0.46795 -0.0936,-0.74871 -0.374357,-1.02948 z m -0.374356,1.59101 -0.280768,0.84231 c -0.18718,0.28076 -0.374356,0.56153 -0.561535,0.65512 -0.18718,0.1872 -0.374356,0.1872 -0.655124,0.1872 -0.280768,0 -0.467945,-0.0936 -0.561534,-0.28076 -0.09359,-0.1872 -0.187182,-0.37436 -0.187182,-0.74872 0,-0.1872 0,-0.46793 0.09359,-0.74872 0.09357,-0.28076 0.18718,-0.56152 0.280768,-0.74869 0.09359,-0.28079 0.280765,-0.46795 0.467944,-0.65512 0.18718,-0.1872 0.467945,-0.1872 0.655124,-0.1872 0.280768,0 0.467945,0.0936 0.561536,0.28074 0.09359,0.18722 0.18718,0.37438 0.18718,0.74874 0.09359,0.0936 0,0.37436 0,0.65512 z M 24.333179,73.280293 c -3.182032,0 -5.708939,2.526907 -5.708939,5.708947 0,3.18201 2.526907,5.70892 5.708939,5.70892 0.655124,0 1.216657,-0.0936 1.778193,-0.28076 l 0,-2.90127 c -0.467947,0.28076 -1.029483,0.46795 -1.591016,0.46795 -1.778193,0 -3.182032,-1.40384 -3.182032,-2.99484 0,-1.684627 1.403839,-2.994867 3.182032,-2.994867 0.561533,0 1.123069,0.1872 1.591016,0.467947 l 0,-2.901267 c -0.561536,-0.1872 -1.21666,-0.28076 -1.778193,-0.28076 z m 1.778193,3.556387 4.3051,0 -1.965372,2.05896 -2.339728,0"
     id="path342"
     inkscape:connector-curvature="0"
     style="fill:#192753" />
  <path
     d="m 26.111372,81.23537 4.3051,0 L 28.4511,79.27 l -2.339728,0"
     id="path344"
     inkscape:connector-curvature="0"
     style="fill:#ed2224" />
  <path
     d="m 40.992044,77.5854 c 0.467945,0 0.935892,-0.1872 1.21666,-0.37436 0.280768,-0.280787 0.467945,-0.65512 0.467945,-1.12308 0,-0.467947 -0.18718,-0.842307 -0.467945,-1.123067 -0.280768,-0.28076 -0.748715,-0.37436 -1.21666,-0.37436 -0.467944,0 -0.935889,0.1872 -1.216659,0.37436 -0.280768,0.28076 -0.467945,0.65512 -0.467945,1.123067 0,0.46796 0.18718,0.842293 0.467945,1.12308 0.28077,0.28076 0.748715,0.37436 1.216659,0.37436 z m 0,-0.74872 c -0.280765,0 -0.374356,-0.0936 -0.561535,-0.28076 -0.09357,-0.1872 -0.18718,-0.37436 -0.18718,-0.561533 0,-0.1872 0.09359,-0.467947 0.18718,-0.561547 0.09357,-0.1872 0.28077,-0.28076 0.561535,-0.28076 0.280768,0 0.374359,0.0936 0.561536,0.28076 0.09357,0.1872 0.18718,0.37436 0.18718,0.561547 0,0.1872 -0.09357,0.467933 -0.18718,0.561533 -0.09359,0.0936 -0.280768,0.28076 -0.561536,0.28076 z m 2.152552,0.65512 1.02948,0 0,-1.31024 c 0,-0.280787 0.09357,-0.561547 0.18718,-0.74872 0.09359,-0.1872 0.280768,-0.1872 0.467945,-0.1872 0.18718,0 0.280768,0.0936 0.280768,0.1872 0.09359,0.0936 0.09359,0.280773 0.09359,0.467933 l 0,1.591027 1.029481,0 0,-1.31024 c 0,-0.280787 0.09357,-0.561547 0.187179,-0.74872 0.09359,-0.1872 0.280767,-0.1872 0.467945,-0.1872 0.187179,0 0.280767,0.0936 0.280767,0.1872 0.09359,0.0936 0.09359,0.280773 0.09359,0.467933 l 0,1.591027 1.029478,0 0,-1.778187 c 0,-0.37436 -0.09357,-0.74872 -0.187178,-0.935893 -0.18718,-0.1872 -0.467947,-0.37436 -0.842303,-0.37436 -0.18718,0 -0.374357,0 -0.561536,0.0936 -0.18718,0.0936 -0.374356,0.28076 -0.467945,0.467933 -0.09359,-0.1872 -0.18718,-0.37436 -0.374356,-0.467933 -0.18718,-0.0936 -0.374356,-0.1872 -0.561535,-0.1872 -0.280768,0 -0.467945,0.0936 -0.655124,0.1872 -0.18718,0.0936 -0.374357,0.28076 -0.467945,0.467933 l 0,-0.561533 -0.935892,0 0,3.08844 z m 5.708936,0 1.029483,0 0,-1.31024 c 0,-0.280787 0.09359,-0.561547 0.187178,-0.74872 0.09359,-0.1872 0.280768,-0.1872 0.467947,-0.1872 0.18718,0 0.280768,0.0936 0.280768,0.1872 0.09357,0.0936 0.09357,0.280773 0.09357,0.467933 l 0,1.591027 1.02948,0 0,-1.31024 c 0,-0.280787 0.09357,-0.561547 0.18718,-0.74872 0.09359,-0.1872 0.280766,-0.1872 0.467944,-0.1872 0.18718,0 0.280768,0.0936 0.280768,0.1872 0.0936,0.0936 0.0936,0.280773 0.0936,0.467933 l 0,1.591027 1.02948,0 0,-1.778187 c 0,-0.37436 -0.0936,-0.74872 -0.18718,-0.935893 -0.18718,-0.1872 -0.467945,-0.37436 -0.842301,-0.37436 -0.18718,0 -0.374359,0 -0.561536,0.0936 -0.18718,0.0936 -0.374356,0.28076 -0.467947,0.467933 -0.09359,-0.1872 -0.18718,-0.37436 -0.374356,-0.467933 -0.18718,-0.0936 -0.374356,-0.1872 -0.561533,-0.1872 -0.280768,0 -0.467947,0.0936 -0.655124,0.1872 -0.18718,0.0936 -0.374359,0.28076 -0.467947,0.467933 l 0,-0.561533 -0.935892,0 0,3.08844 z m 7.299955,0.0936 c 0.467945,0 0.93589,-0.1872 1.216658,-0.37436 0.280767,-0.280787 0.467946,-0.65512 0.467946,-1.12308 0,-0.467947 -0.187182,-0.842307 -0.467946,-1.123067 -0.280768,-0.28076 -0.748713,-0.37436 -1.216658,-0.37436 -0.467947,0 -0.935894,0.1872 -1.216659,0.37436 -0.280768,0.28076 -0.467947,0.65512 -0.467947,1.123067 0,0.46796 0.18718,0.842293 0.467947,1.12308 0.280765,0.28076 0.655124,0.37436 1.216659,0.37436 z m 0,-0.74872 c -0.28077,0 -0.374358,-0.0936 -0.561535,-0.28076 -0.18718,-0.1872 -0.18718,-0.37436 -0.18718,-0.561533 0,-0.1872 0.09359,-0.467947 0.18718,-0.561547 0.09359,-0.1872 0.280765,-0.28076 0.561535,-0.28076 0.280766,0 0.374356,0.0936 0.561534,0.28076 0.09359,0.1872 0.18718,0.37436 0.18718,0.561547 0,0.1872 -0.09359,0.467933 -0.18718,0.561533 -0.187178,0.1872 -0.374357,0.28076 -0.561534,0.28076 z m 5.428169,-3.649987 -1.02948,0 0,1.6846 c -0.0936,-0.1872 -0.280768,-0.28076 -0.467945,-0.374333 -0.18718,-0.0936 -0.374356,-0.0936 -0.561535,-0.0936 -0.374357,0 -0.748713,0.1872 -0.935892,0.467933 -0.18718,0.280787 -0.374356,0.655147 -0.374356,1.02948 0,0.46796 0.09357,0.84232 0.374356,1.12308 0.18718,0.28076 0.561535,0.467947 1.02948,0.467947 0.280768,0 0.467945,-0.0936 0.655124,-0.1872 0.18718,-0.0936 0.280768,-0.28076 0.374357,-0.467947 l 0,0.561547 0.935891,0 0,-4.21152 z m -2.339728,2.80768 c 0,-0.1872 0.09359,-0.37436 0.18718,-0.561533 0.0936,-0.1872 0.280768,-0.1872 0.467945,-0.1872 0.18718,0 0.374356,0.0936 0.467947,0.1872 0.09359,0.1872 0.18718,0.37436 0.18718,0.561533 0,0.1872 -0.0936,0.37436 -0.18718,0.561547 -0.09359,0.1872 -0.280768,0.1872 -0.467947,0.1872 -0.18718,0 -0.374356,-0.0936 -0.467945,-0.1872 -0.09359,-0.0936 -0.18718,-0.280787 -0.18718,-0.561547 z m 4.398689,1.591027 c 0.467947,0 0.935894,-0.1872 1.216659,-0.37436 0.280768,-0.280787 0.467945,-0.65512 0.467945,-1.12308 0,-0.467947 -0.187178,-0.842307 -0.467945,-1.123067 -0.280765,-0.28076 -0.748712,-0.37436 -1.216659,-0.37436 -0.467945,0 -0.935892,0.1872 -1.21666,0.37436 -0.280765,0.28076 -0.467944,0.65512 -0.467944,1.123067 0,0.46796 0.18718,0.842293 0.467944,1.12308 0.374359,0.28076 0.748715,0.37436 1.21666,0.37436 z m 0,-0.74872 c -0.280766,0 -0.374354,-0.0936 -0.561534,-0.28076 -0.09357,-0.1872 -0.18718,-0.37436 -0.18718,-0.561533 0,-0.1872 0.0936,-0.467947 0.18718,-0.561547 0.09359,-0.1872 0.280768,-0.28076 0.561534,-0.28076 0.28077,0 0.374358,0.0936 0.561535,0.28076 0.0936,0.1872 0.18718,0.37436 0.18718,0.561547 0,0.1872 -0.09357,0.467933 -0.18718,0.561533 -0.09359,0.1872 -0.280765,0.28076 -0.561535,0.28076 z m 4.398691,-2.33972 -0.374357,0 c -0.18718,0 -0.374358,0.0936 -0.561535,0.1872 -0.18718,0.0936 -0.280768,0.28076 -0.374356,0.467947 l 0,-0.561547 -0.935892,0 0,2.994867 1.02948,0 0,-1.310267 c 0,-0.28076 0.0936,-0.56152 0.18718,-0.65512 0.09359,-0.1872 0.280768,-0.28076 0.561536,-0.28076 l 0.374356,0 0.0936,-0.842307 z m 3.27562,1.871773 0,-0.1872 c 0,-0.467933 -0.09359,-0.842293 -0.374357,-1.216653 -0.18718,-0.28076 -0.655124,-0.467947 -1.216659,-0.467947 -0.467945,0 -0.842301,0.1872 -1.123069,0.374347 -0.280768,0.280773 -0.467947,0.655133 -0.467947,1.12308 0,0.467933 0.18718,0.842307 0.467947,1.123053 0.280768,0.280787 0.748713,0.374374 1.21666,0.374374 l 0.561533,0 c 0,0 0.374356,-0.0936 0.561535,-0.187214 l 0,-0.748693 c -0.18718,0.0936 -0.280767,0.1872 -0.467944,0.1872 -0.18718,0 -0.280768,0.0936 -0.467947,0.0936 -0.280768,0 -0.467945,0 -0.655124,-0.0936 -0.18718,-0.0936 -0.280768,-0.280773 -0.280768,-0.46796 l 2.24614,0 z m -2.058961,-0.65512 c 0,-0.1872 0.0936,-0.280773 0.18718,-0.46796 0.09359,-0.0936 0.18718,-0.1872 0.374357,-0.1872 0.18718,0 0.374356,0.0936 0.467944,0.1872 0.0936,0.0936 0.0936,0.280787 0.0936,0.46796 l -1.123069,0 z M 37.0613,77.5854 c -0.467944,-0.0936 -0.748712,-0.280787 -1.123068,-0.655147 -0.280768,-0.28076 -0.374357,-0.56152 -0.467945,-1.123053 -0.18718,-1.02948 0.280765,-1.965387 1.123069,-2.33972 0.374356,-0.1872 0.935891,-0.280787 1.497427,-0.280787 0.374356,0 0.655124,0.0936 0.935889,0.0936 l -0.09357,0.93588 c 0,0 -0.09359,0 -0.280768,-0.0936 -0.18718,-0.0936 -0.374356,-0.0936 -0.561534,-0.0936 -0.374358,0 -0.748714,0.0936 -1.029482,0.280787 -0.561534,0.467933 -0.561534,1.591 0,2.152533 0.374358,0.280787 1.029482,0.37436 1.591016,0.280787 l 0.280768,-0.0936 0.09357,0.935893 c -0.18718,0 -0.561533,0.0936 -1.02948,0.0936 -0.467945,0 -0.655124,-0.0936 -0.935892,-0.0936 z m -3.930744,1.31024 40.617691,0 0,0.37436 -40.617691,0 z"
     id="path346"
     inkscape:connector-curvature="0"
     style="fill:#192753" />
  <g
     id="g348"
     transform="scale(0.93589144,0.93589144)"
     style="fill:#777878">
    <path
       d="m 318.4,88 5.6,-7 0.1,-1 -6.5,8 m 10.4,-13.5 0,18.6 c 0,0.7 0.2,1.2 0.5,1.6 0.2,0.2 0.4,0.3 0.7,0.4 -0.1,0 -0.1,-0.1 -0.1,-0.1 -0.3,-0.3 -0.5,-0.8 -0.5,-1.6 l 0,-18.9 -0.6,0 z m -12.8,21 0,0.3 -5.8,0 -0.1,0.3 6.4,0 0,-0.5 c -0.2,-0.1 -0.3,-0.1 -0.5,-0.1 z m 8.8,-6.5 -7.1,0 -1.3,1.6 -1.4,1.8 c -0.3,0.4 -0.5,0.7 -0.6,1.1 -0.1,0.2 -0.1,0.5 -0.1,0.7 0,0.3 0.2,0.5 0.4,0.7 0.1,0.1 0.3,0.2 0.4,0.2 -0.2,-0.2 -0.3,-0.4 -0.4,-0.6 0,-0.2 0,-0.5 0.1,-0.7 0.1,-0.3 0.3,-0.7 0.6,-1.1 l 1.4,-1.8 1.3,-1.6 6.6,0 0.1,-0.3 z m 5.9,6.5 -0.1,0.4 -8.7,0 -0.1,0.3 9.2,0 0.1,-0.5 c 0,-0.2 -0.2,-0.2 -0.4,-0.2 z m 9.9,-16.8 -0.2,-1.5 -3.7,14.8 c -0.1,0.6 -0.2,1.1 -0.2,1.5 0,0.5 0.2,0.9 0.6,1.3 0.1,0.1 0.3,0.2 0.5,0.3 -0.4,-0.3 -0.6,-0.7 -0.6,-1.3 0,-0.4 0,-0.9 0.2,-1.5 l 3.4,-13.6 z m 6,11.1 0.4,-0.6 -2.3,-14.3 -0.4,0 m 19.1,0 -0.1,0.3 c -1,0 -1.8,0.2 -2.3,0.7 -0.5,0.4 -0.9,1.3 -1.3,2.6 L 355.5,92 c -0.2,0.9 -0.3,1.5 -0.3,1.9 0,0.4 0.2,0.7 0.5,0.9 0.1,0.1 0.2,0.1 0.4,0.2 -0.2,-0.2 -0.4,-0.5 -0.4,-0.8 0,-0.4 0.1,-1.1 0.3,-1.9 l 3.4,-13.6 c 0.3,-1.3 0.7,-2.2 1.3,-2.6 0.5,-0.4 1.3,-0.7 2.3,-0.7 l 0.2,-0.5 -0.6,0 z m -5.1,20.9 -10.1,0 -0.1,0.3 10.7,0 0.1,-0.5 -0.6,0 0,0.2 z m -2.7,-18.4 -12.1,18.4 -0.2,0 0.1,0.3 0.6,0 11.2,-17 m -16.4,16.7 -6.5,0 -0.1,0.3 7.1,0 0.1,-0.5 -0.6,0 0,0.2 z m 27.1,-20.5 0,0.2 m 5.3,20.3 -10,0 -0.1,0.3 10.6,0 0.1,-0.5 -0.6,0 0,0.2 z m 4.6,-20.9 -0.1,0.3 c -0.9,0 -1.7,0.2 -2.1,0.6 -0.5,0.4 -0.9,1.3 -1.2,2.6 L 368.2,92 c -0.2,1 -0.4,1.6 -0.3,1.9 0,0.4 0.2,0.7 0.5,0.9 0.1,0.1 0.2,0.1 0.4,0.2 -0.2,-0.2 -0.4,-0.5 -0.4,-0.8 0,-0.3 0.1,-1 0.3,-1.9 l 3.4,-13.5 c 0.3,-1.3 0.7,-2.2 1.2,-2.6 0.5,-0.4 1.2,-0.6 2.1,-0.6 l 0.2,-0.5 -0.6,0 z m 19.9,0.2 -1,5.8 -0.1,0 0,0.3 0.5,0 1,-5.8 c 0,0 0,-0.6 -0.2,-0.8 -0.2,-0.2 -0.3,-0.2 -0.3,-0.2 l -0.1,0 c 0.2,0.3 0.2,0.7 0.2,0.7 z m -14.4,18.5 c 0.5,0.5 1.1,0.9 1.6,1.2 -0.4,-0.2 -0.8,-0.6 -1.1,-0.9 -1,-1.1 -1.6,-2.7 -1.7,-4.8 -0.1,-2.4 0.5,-4.7 1.5,-6.9 1,-2.2 2.8,-3.8 4.3,-4.9 1.5,-1.1 3.4,-1.6 4.9,-1.6 0.6,0 1,0.1 1.3,0.2 -0.5,-0.3 -1,-0.5 -1.8,-0.5 -1.5,0 -3.4,0.6 -4.9,1.6 -1.5,1.1 -3.3,2.7 -4.3,4.9 -1,2.2 -1.6,4.5 -1.5,6.9 0.1,2.1 0.7,3.7 1.7,4.8 z"
       id="path350"
       inkscape:connector-curvature="0" />
    <path
       d="m 394.7,86 c -0.5,0 -1,0.1 -1.3,0.3 -0.3,0.2 -0.5,0.4 -0.7,0.8 -0.1,0.2 -0.2,0.7 -0.4,1.6 l -1.6,6.3 c -2.2,0.9 -4.6,1.4 -7.1,1.4 -1.9,0 -3.5,-0.3 -4.9,-1 0.1,0.1 0.3,0.2 0.4,0.3 1.4,0.7 3,1 5,1 2.5,0 4.9,-0.5 7.1,-1.4 l 1.6,-6.3 c 0.2,-0.8 0.3,-1.4 0.4,-1.6 0.2,-0.3 0.4,-0.6 0.7,-0.8 0.3,-0.2 0.7,-0.3 1.3,-0.3 l 0.1,-0.6 -0.6,0 0,0.3 z m 3.4,9.5 0,0.3 -5.8,0 -0.1,0.3 6.4,0 0,-0.5 c -0.2,-0.1 -0.3,-0.1 -0.5,-0.1 z m 12.9,-21 0,18.6 c 0,0.7 0.2,1.2 0.5,1.6 0.2,0.2 0.4,0.3 0.7,0.4 -0.1,0 -0.1,-0.1 -0.1,-0.1 -0.3,-0.3 -0.5,-0.8 -0.5,-1.6 l 0,-18.9 -0.6,0 z m -9.6,13.5 6.1,-7.6 0,-0.9 -6.9,8.5 m 6.3,1 -7.1,0 -1.3,1.6 -1.4,1.8 c -0.3,0.4 -0.5,0.7 -0.6,1.1 -0.1,0.2 -0.1,0.5 -0.1,0.7 0,0.3 0.2,0.5 0.4,0.7 0.1,0.1 0.3,0.2 0.4,0.2 -0.2,-0.2 -0.3,-0.4 -0.4,-0.6 0,-0.2 0,-0.5 0.1,-0.7 0.1,-0.3 0.3,-0.7 0.6,-1.1 l 1.4,-1.8 1.3,-1.6 6.6,0 0.1,-0.3 z m 6,6.5 -0.1,0.4 -8.7,0 -0.1,0.3 9.2,0 0.1,-0.5 c -0.1,-0.2 -0.3,-0.2 -0.4,-0.2 z"
       id="path352"
       inkscape:connector-curvature="0" />
  </g>
  <g
     id="g354"
     transform="scale(0.93589144,0.93589144)"
     style="fill:#e8e8e8">
    <path
       d="m 310,95.8 c 0.6,-0.1 1.1,-0.3 1.5,-0.6 0.6,-0.4 1.4,-1.3 2.4,-2.6 l 14.4,-17.9 0.2,0 0,-0.3 -0.7,0 -14.4,17.9 c -1,1.3 -1.9,2.2 -2.4,2.6 -0.4,0.3 -0.9,0.5 -1.5,0.6 l -0.1,0.5 0.6,0 0,-0.2 z m 14.6,-15.5 -0.6,0.7 -0.1,7 -5.3,0 -0.3,0.3 6.1,0 m -2.6,7.5 c 0.9,-0.1 1.4,-0.2 1.6,-0.2 0.3,-0.1 0.5,-0.5 0.8,-0.9 0.2,-0.5 0.3,-1.3 0.3,-2.4 l 0,-3 -0.5,0 0,2.8 c 0,1.2 -0.1,2 -0.3,2.4 -0.2,0.5 -0.5,0.8 -0.8,0.9 -0.1,0.1 -0.7,0.1 -1.6,0.2 l -0.2,0.5 0.6,0 0.1,-0.3 z m 15,-20.6 7.2,0 0,-0.3 -7.6,0 -0.2,0.5 0.6,0 0,-0.2 z M 348,95.8 c 1.1,0 2,-0.2 2.5,-0.7 0.5,-0.4 1,-1.3 1.3,-2.6 l 3.7,-14.8 -0.9,1.4 -3.3,13.1 c -0.3,1.3 -0.8,2.2 -1.3,2.6 -0.5,0.4 -1.4,0.7 -2.5,0.7 l -0.2,0.5 0.6,0 0.1,-0.2 z"
       id="path356"
       inkscape:connector-curvature="0" />
    <path
       d="m 346.4,90.1 9.8,-14.9 6.9,0 0.1,-0.3 -7.5,0 -9.5,14.3 m -5.9,-11.6 -0.3,1.1 2.6,17.4 0.4,0 m -10.9,-0.3 c 0.8,0 1.5,-0.2 1.9,-0.5 0.8,-0.6 1.3,-1.5 1.6,-2.7 l 4,-15.7 c -0.5,-0.5 -0.9,-0.8 -1.2,-0.9 0.2,0.2 0.5,0.4 0.7,0.7 l -4,15.7 c -0.3,1.2 -0.9,2.1 -1.6,2.7 -0.4,0.3 -1.1,0.5 -1.9,0.5 l -0.1,0.5 0.6,0 0,-0.3 z m 33.6,-20.6 9.8,0 0.1,-0.3 -10.4,0 -0.2,0.5 c 0.2,0 0.4,0 0.6,0.1 l 0.1,-0.3 z M 361,95.8 c 1.1,0 1.8,-0.2 2.3,-0.6 0.5,-0.4 0.9,-1.3 1.2,-2.7 L 367.9,79 c 0.2,-0.8 0.3,-1.5 0.3,-1.9 0,-0.4 -0.2,-0.7 -0.5,-0.9 -0.1,-0.1 -0.2,-0.1 -0.4,-0.2 0.2,0.2 0.3,0.5 0.3,0.8 0,0.4 -0.1,1.1 -0.3,1.9 L 364,92.3 c -0.3,1.4 -0.8,2.3 -1.2,2.7 -0.5,0.4 -1.2,0.6 -2.3,0.6 l -0.2,0.5 0.6,0 0.1,-0.3 z m 25,-9.6 0.6,0 0.1,-0.3 8.6,0 0.1,-0.3 -9.2,0 -0.2,0.6 z m -3.4,8.8 c 0.8,0.5 1.6,0.7 2.5,0.7 0.6,0 1.2,-0.2 2,-0.5 l 1.4,-5.6 c 0.2,-0.9 0.3,-1.5 0.3,-1.8 0,-0.4 -0.2,-0.7 -0.5,-1 -0.1,-0.1 -0.3,-0.2 -0.4,-0.2 0.3,0.3 0.4,0.5 0.5,0.9 0,0.3 -0.1,0.9 -0.3,1.8 l -1.4,5.6 c -0.8,0.3 -1.5,0.5 -2,0.5 -0.8,0.1 -1.5,-0.1 -2.1,-0.4 z"
       id="path358"
       inkscape:connector-curvature="0" />
    <path
       d="m 376.3,92.6 c -0.9,-1.5 -1.5,-3.1 -1.5,-5 -0.2,-4 1.5,-7.3 5,-9.9 2.7,-2 5.8,-2.9 9.3,-3.1 0.3,0 1.2,-0.1 2.4,-0.1 1,0 2.2,0 3.8,0.2 0,0 0,-0.1 -0.1,-0.1 -0.2,-0.2 -0.3,-0.2 -0.3,-0.2 -1.7,-0.2 -2.9,-0.2 -3.9,-0.2 -1.2,0 -2.1,0.1 -2.4,0.1 -3.5,0.2 -6.6,1.1 -9.3,3.1 -3.5,2.6 -5.1,5.9 -5,9.9 0.1,1.9 0.6,3.5 1.5,5 0.9,1.5 2.1,2.5 3.5,3.2 -1.2,-0.6 -2.2,-1.6 -3,-2.9 z"
       id="path360"
       inkscape:connector-curvature="0" />
    <path
       d="m 393.9,81.2 0.5,0 c -0.1,-1.8 -0.2,-3.1 -1,-3.9 -0.5,-0.5 -0.9,-0.9 -1.4,-1.1 0.3,0.2 0.6,0.5 0.9,0.8 0.7,0.9 0.8,2.3 1,4.2 z m 10.8,14.6 c 0.9,-0.1 1.4,-0.2 1.6,-0.2 0.3,-0.1 0.5,-0.5 0.8,-0.9 0.2,-0.5 0.3,-1.3 0.3,-2.4 l 0,-3 -0.5,0 0,2.7 c 0,1.2 -0.1,2 -0.3,2.4 -0.2,0.5 -0.5,0.8 -0.8,0.9 -0.1,0.1 -0.7,0.1 -1.6,0.2 l -0.2,0.5 0.6,0 0.1,-0.2 z m -11.8,0 c 0.6,-0.1 1.1,-0.3 1.5,-0.6 0.6,-0.4 1.4,-1.3 2.4,-2.6 l 14.4,-17.9 0.2,0 0,-0.3 -0.7,0 -14.4,17.9 c -1,1.3 -1.9,2.2 -2.4,2.6 -0.4,0.3 -0.9,0.5 -1.5,0.6 l -0.1,0.5 0.6,0 0,-0.2 z m 14.6,-15.4 -0.5,0.6 -0.1,7 -5.4,0 -0.3,0.3 6.2,0"
       id="path362"
       inkscape:connector-curvature="0" />
  </g>
</svg>
