<?xml version="1.0"?>
<svg xmlns="http://www.w3.org/2000/svg" viewBox="0 0 195.056 323.899">
  <path fill="#313034" d="M139.18 314.996l24.565-1.215v5.298l-24.521 1.353z"/>
  <linearGradient id="a" gradientUnits="userSpaceOnUse" x1="-146.008" y1="690.833" x2="-145.008" y2="690.833" gradientTransform="rotate(-90 -15047.133 10028.277) scale(36.557)">
    <stop offset="0" stop-color="#17c4fd"/>
    <stop offset="1" stop-color="#0b24bf"/>
  </linearGradient>
  <path d="M163.745 318.317v-35.681c0-.4.492-.59.761-.294l30.435 33.886a.437.437 0 0 1-.323.731l-30.435 1.796a.439.439 0 0 1-.438-.438z" fill="url(#a)"/>
  <linearGradient id="b" gradientUnits="userSpaceOnUse" x1="-146.008" y1="690.833" x2="-145.008" y2="690.833" gradientTransform="scale(279.3009 -279.3009) rotate(90 273.256 418.137)">
    <stop offset="0" stop-color="#15349d"/>
    <stop offset="0" stop-color="#2e2e30"/>
    <stop offset="1" stop-color="#181516"/>
    <stop offset="1" stop-color="#181516"/>
  </linearGradient>
  <path d="M166.891 313.625l-21.648 1.071v-279.3l21.678 2.253c.211.022.371.2.371.411v275.131a.437.437 0 0 1-.401.434z" fill="url(#b)"/>
  <linearGradient id="c" gradientUnits="userSpaceOnUse" x1="-146.008" y1="690.833" x2="-145.008" y2="690.833" gradientTransform="matrix(19.3125 0 0 -19.3125 2965.017 13631.54)">
    <stop offset="0" stop-color="#15349d"/>
    <stop offset="0" stop-color="#1535a2"/>
    <stop offset="1" stop-color="#277af9"/>
  </linearGradient>
  <path d="M163.327 270.917l-18.085.073v37.75l18.282-.782a1.128 1.128 0 0 0 1.03-1.125v-34.792a1.128 1.128 0 0 0-1.227-1.124z" fill="url(#c)"/>
  <path d="M158.708 304.224l-4.422.155a.414.414 0 0 1-.428-.414v-13.297c0-.223.176-.406.399-.414l4.422-.154a.414.414 0 0 1 .429.414v13.297a.415.415 0 0 1-.4.413z" fill="#3a3839"/>
  <path d="M158.708 304.224l-.004-.125-4.422.155h-.01a.29.29 0 0 1-.289-.289v-13.297a.29.29 0 0 1 .279-.289l4.422-.154h.011a.29.29 0 0 1 .289.289v13.297a.288.288 0 0 1-.279.288l.003.125.004.125c.29-.01.52-.248.52-.538v-13.297a.539.539 0 0 0-.539-.539h-.02l-4.422.154a.539.539 0 0 0-.52.539v13.297c0 .299.242.539.539.539h.018l4.423-.155-.003-.125z" fill="#071041"/>
  <path d="M153.857 301.912l3.276.859a.279.279 0 0 0 .35-.27v-12.36l-3.195.109a.45.45 0 0 0-.431.446v11.216z" fill="#160c09"/>
  <path fill="#4c423b" d="M154.951 296.849h1.953v1.281h-1.953zM154.951 294.786h1.953v1.281h-1.953z"/>
  <path d="M151.291 304.224l-4.422.155a.415.415 0 0 1-.429-.414v-13.297c0-.223.177-.406.399-.414l4.422-.154a.414.414 0 0 1 .428.414v13.297a.411.411 0 0 1-.398.413z" fill="#3a3839"/>
  <path d="M151.291 304.224l-.004-.125-4.422.155h-.01a.29.29 0 0 1-.29-.289v-13.297a.29.29 0 0 1 .279-.289l4.422-.154h.011c.159 0 .288.129.288.289v13.297a.288.288 0 0 1-.279.288l.005.125.004.125c.29-.01.52-.248.52-.538v-13.297a.538.538 0 0 0-.538-.539h-.02l-4.422.154a.539.539 0 0 0-.52.539v13.297a.54.54 0 0 0 .54.539h.018l4.422-.155-.004-.125z" fill="#071041"/>
  <path d="M146.44 301.912l3.28.86a.276.276 0 0 0 .346-.267v-12.364l-3.195.109a.45.45 0 0 0-.431.446v11.216z" fill="#160c09"/>
  <path fill="#4c423b" d="M147.534 296.849h1.953v1.281h-1.953zM147.534 294.786h1.953v1.281h-1.953z"/>
  <path fill="#071041" d="M151.731 282.976l-4.423.152v-6.75l4.423-.152z"/>
  <path d="M147.541 278.997c.205 0 .372.304.372.68s-.167.68-.372.68v1.322a1.11 1.11 0 0 0 1.148 1.109l1.739-.061a1.11 1.11 0 0 0 1.071-1.108v-3.942a1.11 1.11 0 0 0-1.148-1.109l-1.739.061a1.11 1.11 0 0 0-1.071 1.108v1.26z" fill="#171616"/>
  <path d="M147.541 278.997v.125c.035-.002.096.031.153.134.055.1.094.251.094.421a.907.907 0 0 1-.094.421c-.057.103-.118.136-.153.134h-.125v1.447c0 .684.555 1.234 1.234 1.235l.044-.001 1.739-.061a1.234 1.234 0 0 0 1.191-1.233v-3.942c0-.684-.555-1.235-1.234-1.235l-.045.001-1.738.061a1.234 1.234 0 0 0-1.191 1.233v1.386h.125v-.126h.125v-1.261c0-.53.42-.965.95-.983l1.739-.061.035-.001a.986.986 0 0 1 .984.985v3.942c0 .53-.42.965-.95.983l-1.739.061-.035.001a.986.986 0 0 1-.984-.985v-1.322h-.125v.125c.17-.002.294-.121.372-.264.08-.146.124-.334.124-.541 0-.206-.045-.394-.124-.541-.078-.143-.203-.262-.372-.264v.126h.125-.125z" fill="#31312f"/>
  <path d="M150.324 281.212a.379.379 0 0 1-.378-.378v-2.313c0-.208.17-.378.378-.378s.378.17.378.378v2.313c0 .208-.17.378-.378.378zM149.094 278.6h.852v.626h-.852zM149.094 280.127h.852v.626h-.852zM148.715 281.212a.379.379 0 0 1-.378-.378v-2.313c0-.208.17-.378.378-.378s.378.17.378.378v2.313a.378.378 0 0 1-.378.378z" fill="#31312f"/>
  <path d="M157.958 286.594c.074.271.297.453.561.43.325-.028.588-.356.588-.73 0-.375-.263-.656-.588-.628-.264.023-.487.244-.561.527l-1.324.116a14.951 14.951 0 0 0-.548-.624c-.264-.279-.408-.355-.675-.361l-.07-.003-.016-.001-.001-.178-.001-.178-.427.038-.427.037-.001.524-.001.525.429-.038.429-.038v-.387l.041.001c.271 0 .334.046.852.631l.073.086c0 .001-.475.044-1.056.095l-1.056.093v-.217c0-.129-.002-.217-.004-.217s-.2.156-.438.345c-.238.19-.439.35-.446.354l-.012.01.446.277.45.278a3.1 3.1 0 0 0 .004-.219v-.22l1.575-.138a165.32 165.32 0 0 1 1.576-.134c0 .006-.155.237-.239.356a4.337 4.337 0 0 1-.313.392.767.767 0 0 1-.316.211 1.065 1.065 0 0 1-.278.046l-.154.014-.011-.044a.517.517 0 0 0-.269-.348l-.202-.033-.202.068c-.318.204-.39.726-.137.999a.405.405 0 0 0 .318.138c.208-.007.402-.177.479-.421l.016-.047.159-.018c.22-.024.317-.047.433-.102.264-.125.5-.397.954-1.104l.089-.138.301-.025zM146.037 281.998c0 .284-.082.508-.244.673l-.147-.132a.74.74 0 0 0 .221-.549c0-.142-.026-.246-.081-.313l-.187-.1-.172.106a.87.87 0 0 0-.099.26 6.193 6.193 0 0 1-.073.306.621.621 0 0 1-.134.259.31.31 0 0 1-.245.106c-.126 0-.229-.057-.309-.171s-.12-.258-.12-.434c0-.257.072-.464.217-.62l.141.131c-.123.125-.185.293-.185.507 0 .105.022.191.068.259l.176.101.134-.078.078-.192c.017-.076.038-.159.063-.25s.052-.173.081-.25l.137-.192.228-.078c.125 0 .231.053.319.159s.133.274.133.492zM146.009 280.096v.218h-.389v.833h-.159l-.988-.751v-.3h.979v-.247h.168v.247h.389zm-.557.218h-.802l.802.615v-.615zM146.037 278.961a.64.64 0 0 1-.07.306l-.188.21c-.078.052-.162.09-.253.116s-.185.038-.283.038-.192-.013-.283-.038-.175-.064-.252-.116l-.187-.21a.64.64 0 0 1-.07-.306c0-.114.023-.215.07-.305l.187-.211c.077-.052.161-.09.252-.116s.185-.038.283-.038.192.013.283.038.175.064.253.116l.188.211c.047.089.07.191.07.305zm-.266.262a.378.378 0 0 0 .096-.263.377.377 0 0 0-.096-.263l-.229-.145c-.09-.026-.189-.039-.3-.039s-.21.013-.3.039l-.228.145a.38.38 0 0 0-.095.263c0 .105.031.193.095.263l.228.145c.09.026.189.04.3.04s.21-.013.3-.04l.229-.145zM146.037 277.353a.64.64 0 0 1-.07.306l-.188.21c-.078.052-.162.09-.253.116s-.185.038-.283.038-.192-.013-.283-.038-.175-.064-.252-.116l-.187-.21a.64.64 0 0 1-.07-.306c0-.114.023-.215.07-.305l.187-.211c.077-.052.161-.09.252-.116s.185-.038.283-.038.192.013.283.038.175.064.253.116l.188.211c.047.09.07.191.07.305zm-.266.263a.378.378 0 0 0 .096-.263.377.377 0 0 0-.096-.263l-.229-.145c-.09-.026-.189-.039-.3-.039s-.21.013-.3.039l-.228.145a.38.38 0 0 0-.095.263c0 .105.031.193.095.263l.228.145c.09.026.189.04.3.04s.21-.013.3-.04l.229-.145zM155.225 277.503c0-.32-.262-.56-.58-.532s-.58.314-.58.634.262.561.58.533.58-.315.58-.635M157.159 276.725l1.16-.1v-.001c0-.32-.262-.56-.58-.532s-.58.313-.58.633" fill="#5969ad"/>
  <path d="M157.739 277.258a.526.526 0 0 1-.58-.532l-1.608.141v1.216l2.77-.243v-1.216h-.001a.652.652 0 0 1-.581.634" fill="#5969ad"/>
  <path fill="#161513" d="M149.451 244.5h1.708V255h-1.708zM152.169 244.5h1.708V255h-1.708zM154.888 244.5h1.708V255h-1.708zM157.606 244.5h1.708V255h-1.708zM160.325 244.5h1.709V255h-1.709zM149.451 230.667h1.708v10.5h-1.708zM152.169 230.667h1.708v10.5h-1.708zM154.888 230.667h1.708v10.5h-1.708zM157.606 230.667h1.708v10.5h-1.708zM160.325 230.667h1.709v10.5h-1.709zM149.451 216.833h1.708v10.5h-1.708zM152.169 216.833h1.708v10.5h-1.708zM154.888 216.833h1.708v10.5h-1.708zM157.606 216.833h1.708v10.5h-1.708zM160.325 216.833h1.709v10.5h-1.709zM149.451 203h1.708v10.5h-1.708zM152.169 203h1.708v10.5h-1.708zM154.888 203h1.708v10.5h-1.708zM157.606 203h1.708v10.5h-1.708zM160.325 203h1.709v10.5h-1.709zM149.451 189.167h1.708v10.5h-1.708zM152.169 189.167h1.708v10.5h-1.708zM154.888 189.167h1.708v10.5h-1.708zM157.606 189.167h1.708v10.5h-1.708zM160.325 189.167h1.709v10.5h-1.709zM149.451 175.333h1.708v10.5h-1.708zM152.169 175.333h1.708v10.5h-1.708zM154.888 175.333h1.708v10.5h-1.708zM157.606 175.333h1.708v10.5h-1.708zM160.325 175.333h1.709v10.5h-1.709zM149.451 161.5h1.708V172h-1.708zM152.169 161.5h1.708V172h-1.708zM154.888 161.5h1.708V172h-1.708zM157.606 161.5h1.708V172h-1.708zM160.325 161.5h1.709V172h-1.709zM149.451 147.667h1.708v10.5h-1.708zM152.169 147.667h1.708v10.5h-1.708zM154.888 147.667h1.708v10.5h-1.708zM157.606 147.667h1.708v10.5h-1.708zM160.325 147.667h1.709v10.5h-1.709zM149.451 133.833h1.708v10.5h-1.708zM152.169 133.833h1.708v10.5h-1.708zM154.888 133.833h1.708v10.5h-1.708zM157.606 133.833h1.708v10.5h-1.708zM160.325 133.833h1.709v10.5h-1.709zM149.451 120h1.708v10.5h-1.708zM152.169 120h1.708v10.5h-1.708zM154.888 120h1.708v10.5h-1.708zM157.606 120h1.708v10.5h-1.708zM160.325 120h1.709v10.5h-1.709zM149.451 106.167h1.708v10.5h-1.708zM152.169 106.167h1.708v10.5h-1.708zM154.888 106.167h1.708v10.5h-1.708zM157.606 106.167h1.708v10.5h-1.708zM160.325 106.167h1.709v10.5h-1.709zM149.451 92.333h1.708v10.5h-1.708zM152.169 92.333h1.708v10.5h-1.708zM154.888 92.333h1.708v10.5h-1.708zM157.606 92.333h1.708v10.5h-1.708zM160.325 92.333h1.709v10.5h-1.709zM149.451 78.5h1.708V89h-1.708zM152.169 78.5h1.708V89h-1.708zM154.888 78.5h1.708V89h-1.708zM157.606 78.5h1.708V89h-1.708zM160.325 78.5h1.709V89h-1.709zM149.451 64.667h1.708v10.5h-1.708zM152.169 64.667h1.708v10.5h-1.708zM154.888 64.667h1.708v10.5h-1.708zM157.606 64.667h1.708v10.5h-1.708zM160.325 64.667h1.709v10.5h-1.709z"/>
  <linearGradient id="d" gradientUnits="userSpaceOnUse" x1="-146.008" y1="690.833" x2="-145.008" y2="690.833" gradientTransform="scale(14.2852 -14.2852) rotate(-30 -1399.959 49.988)">
    <stop offset="0" stop-color="#0d0d11"/>
    <stop offset="1" stop-color="#2c2c2d"/>
  </linearGradient>
  <path fill="url(#d)" d="M91.492 319.203l7.164 1.349v-2.454l6.586 1.239v-2.167l-13.75-2.588z"/>
  <linearGradient id="e" gradientUnits="userSpaceOnUse" x1="-146.008" y1="690.833" x2="-145.008" y2="690.833" gradientTransform="matrix(13.9063 0 0 -13.9063 2121.764 9927.91)">
    <stop offset="0" stop-color="#1c191f"/>
    <stop offset="1" stop-color="#2c2c2d"/>
    <stop offset="1" stop-color="#2c2c2d"/>
  </linearGradient>
  <path d="M91.492 319.203v1.692a.437.437 0 0 1-.156.335l13.906 2.617v-4.511l-6.586-1.239v2.454l-7.164-1.348z" fill="url(#e)"/>
  <path fill="#1f1f23" d="M91.469 319.326l7.312 1.377v-2.454l6.438 1.211.046-.246-6.734-1.267v2.454l-7.016-1.32-.046.245z"/>
  <linearGradient id="f" gradientUnits="userSpaceOnUse" x1="-146.008" y1="690.833" x2="-145.008" y2="690.833" gradientTransform="scale(317.5 -317.5) rotate(90 273.021 418.029)">
    <stop offset="0" stop-color="#373331"/>
    <stop offset="1" stop-color="#26211e"/>
  </linearGradient>
  <path d="M106.992.276c0-.152.124-.276.275-.276h-.275L30.438 24.853a.284.284 0 0 0-.196.27v277.932l76.75 14.445h.271a.27.27 0 0 1-.271-.271V.276z" fill="url(#f)"/>
  <path d="M101.729 66.389l.05-.002c.054.003.079-.009.079.218s-.025.221-.079.236l-.157.022-.157.012c-.054-.003-.079.008-.079-.219s.025-.221.079-.235l.053-.009v-.311l-.108.021c-.107.029-.209-.021-.209.554s.102.502.209.509l.212-.012.212-.034c.107-.029.209.021.209-.554s-.102-.502-.209-.509l-.105.003v.31zM101.223 70.127l.6.237-.6.369-.002.453.805-.088v-.303l-.6.066.6-.368v-.304l-.6-.235.6-.065v-.303l-.805.088zM101.221 66.066v-.871l.205-.022v.284l.6-.066v.303l-.6.066v.284zM102.026 68.314l-.806-.259v-.452l.806-.437v.304l-.166.089v.398l-.131-.042v-.284l-.329.176.626.204zM101.387 71.898c0-.227.025-.221.079-.235l.157-.022.157-.012c.054.003.079-.009.079.218s-.025.221-.079.235l-.157.022-.157.012c-.054-.003-.079.009-.079-.218l-.186.02c0 .576.102.502.209.509l.212-.013.212-.034c.107-.029.209.021.209-.554s-.102-.502-.209-.509l-.212.012-.212.034c-.107.03-.209-.021-.209.555l.186-.02zM101.729 72.884l.05-.002c.054.003.079-.008.079.219s-.025.221-.079.235l-.157.022-.157.012c-.054-.003-.079.009-.079-.218s.025-.221.079-.236l.053-.009v-.311l-.108.021c-.107.03-.209-.021-.209.554 0 .576.102.503.209.509l.212-.012.212-.034c.107-.03.209.021.209-.554 0-.576-.102-.503-.209-.509l-.105.003v.31zM101.842 68.868v.184l-.184.02v-.184c0-.227-.025-.217-.079-.22l-.048.003-.046.007c-.053.015-.079.011-.079.237v.184l.619-.068v.304l-.805.088v-.487c0-.576.103-.524.209-.557l.103-.014.102-.009c.107.004.208-.064.208.512zM105.061 74.41l-.001 1.896c0 .274-.151.514-.337.534l-1.958.213c-.186.021-.337-.186-.337-.46l-.001-1.187c0-.143-.078-.25-.175-.239l-.783.082-.073-.1v-.696l.073-.116 3.519-.391.073.1v.364l.175-.01v-.475c0-.143-.079-.25-.175-.239l-3.666.4c-.097.01-.175.134-.175.277v.913c0 .143.079.25.175.239l.785-.087.073.1-.001 1.084c0 .418.23.732.514.702l1.958-.213c.284-.031.514-.395.514-.813V74.4l-.177.01z" fill="#302d2b"/>
  <path d="M104.34 75.194l-1.267.138c-.106.012-.192.148-.192.304 0 .157.086.274.192.263l1.367-.149c.106-.012.192-.148.192-.305 0-.156-.086-.274-.192-.262l-.1.011.006-.258.095-.01c.203-.022.367.202.367.501s-.164.559-.367.581l-1.367.149c-.203.022-.367-.202-.367-.501s.164-.559.367-.581l1.272-.139-.006.258zM105.061 72.607v.355l-.074.116-2.484.267-.074-.101v-.696l.074-.116 2.484-.278.074.1v.353l.174-.019v-.455c0-.143-.079-.25-.175-.239l-2.632.287c-.097.011-.175.135-.175.277v.913c0 .143.079.25.175.239l2.631-.286c.097-.011.175-.134.175-.276v-.459l-.173.018zM102.918 69.562l-.001.765c0 .235.129.412.289.395.16-.018.289-.222.289-.458l.002-1.048c0-.274.151-.513.337-.533l.884-.093c.186-.02.337.186.337.46l.003 2.079-.074.117-.342.037-.073-.1-.003-1.417c0-.235-.129-.412-.289-.395-.16.018-.289.222-.289.458l-.002 1.026c0 .274-.151.513-.337.534l-.883.096c-.186.021-.337-.186-.337-.46l-.006-1.927.073-.116.35-.039.074.101-.002.518.172-.01v-.634c0-.142-.078-.25-.175-.239l-.49.052c-.097.011-.175.135-.175.277v2.035c0 .418.23.732.514.702l.883-.097c.284-.031.514-.395.514-.813l-.001-1.026c0-.095.052-.177.116-.184.064-.007.116.064.116.159v1.527c0 .143.079.25.175.239l.489-.053c.097-.011.175-.135.175-.277v-2.189c0-.418-.23-.732-.514-.701l-.884.093c-.283.031-.513.395-.513.813l.002 1.047c0 .094-.052.177-.116.184s-.116-.064-.116-.159v-.755l-.172.009zM103.404 65.657v-.328l-.074-.101-.566.063c-.186.02-.337.259-.337.533v1.643c0 .274.151.48.337.46l1.958-.213c.186-.021.337-.259.337-.534v-1.643c0-.274-.151-.48-.337-.46l-.538.057-.074.116v.62l.074.1.256-.031c.203-.022.367.148.367.447s-.164.505-.367.527l-1.367.149c-.203.022-.367-.148-.367-.447s.164-.505.367-.527l.257-.024.074-.116v-.291l.176-.01v.39c0 .143-.079.267-.175.277l-.332.033c-.106.011-.192.094-.192.25 0 .157.086.22.192.208l1.367-.149c.106-.012.192-.094.192-.25s-.086-.22-.192-.208l-.331.04c-.097.01-.175-.097-.175-.239v-.836c0-.143.079-.267.175-.277l.613-.066c.284-.031.514.283.514.702v1.643c0 .418-.23.782-.514.813l-1.958.213c-.284.031-.514-.283-.514-.702v-1.643c0-.418.23-.783.514-.813l.641-.07c.097-.011.175.097.175.239v.447l-.176.008zM104.753 62.694l-.922.101v-.585c0-.208.041-.376.121-.503a.44.44 0 0 1 .336-.214c.15-.016.265.03.345.14.08.108.12.267.12.477v.584zm-.715-.277l.509-.056v-.167c0-.135-.021-.229-.061-.281-.041-.054-.106-.076-.199-.066-.167.018-.25.152-.25.403v.167zM104.753 60.093l-.922.101v-.355l.922-.1zM104.248 57.138l.505-.055v.229l-.101.032c.08.075.12.197.12.366a.887.887 0 0 1-.14.509.466.466 0 0 1-.341.222.365.365 0 0 1-.342-.149c-.092-.116-.138-.274-.138-.477 0-.155.027-.292.08-.411.061-.133.145-.214.253-.241v.354l-.092.094-.035.188c0 .106.029.185.085.234l.188.052.189-.093a.359.359 0 0 0 .085-.253l-.037-.209-.102-.088v.248l-.179.02v-.572zM104.753 55.709l-.922.1v-.354l.922-.101zM103.831 52.972l.207-.022v.406l.715-.078v.354l-.715.078v.406l-.207.023zM104.087 51.26l.323.119v-.309l-.323.186v.004zm.666.613l-.922-.408v-.36l.922-.609v.37l-.166.102v.475l.166.067v.363zM104.753 49.252l-.922.101v-.355l.716-.078v-.634l.206-.023zM101.664 60.923l1.904-.208v2.106l-1.904.208v-2.106zm1.665 1.049c0-.485-.321-.843-.716-.8-.392.043-.712.47-.712.956v.439l1.428-.155v-.44zm-1.665-3.332l1.904-.208v2.105l-1.904.208V58.64zm.241.851c0 .484.319.843.714.8.394-.043.713-.472.713-.956v-.439l-1.427.155v.44zM102.007 57.553v-.881c0-.246.035-.427.104-.542.07-.121.188-.19.354-.208l.247-.027c.167-.018.286.014.358.098.078.089.117.252.117.488v.944l-1.18.128zm.906-.563v-.406c0-.156-.067-.227-.201-.212l-.247.027-.149.072-.035.182v.406l.632-.069zM103.196 54.742c0 .128-.005.237-.016.326a1.08 1.08 0 0 1-.064.262.408.408 0 0 1-.353.264l-.334.036c-.169.019-.286-.043-.352-.187a.89.89 0 0 1-.064-.248 2.658 2.658 0 0 1-.016-.323c0-.128.005-.237.016-.326a1.08 1.08 0 0 1 .064-.262.407.407 0 0 1 .352-.264l.334-.036c.169-.019.286.044.353.187a.89.89 0 0 1 .064.248c.01.087.016.195.016.323zm-.274.03c0-.13-.01-.214-.031-.252l-.162-.054-.266.029-.162.089a.71.71 0 0 0-.03.258c0 .128.01.211.03.248l.162.059.266-.029.162-.094a.66.66 0 0 0 .031-.254zM102.913 53.241v-.726l.274-.029v1.189l-1.18.129v-.464zM102.007 52.265v-.914c0-.094.003-.172.011-.233l.042-.176c.045-.103.128-.16.249-.173l.183.031c.048.035.078.106.089.213l.013-.001c.005-.12.032-.205.081-.257l.184-.073c.135-.015.226.024.272.116l.045.174c.007.06.011.14.011.242v.923l-1.18.128zm.472-.515v-.334l-.022-.16-.091-.029-.075.031-.025.125v.39l.213-.023zm.449-.049v-.35c0-.142-.04-.209-.119-.2l-.093.056-.019.16v.359l.231-.025zM102.772 49.533l.415-.045v.463l-.415.045-.765.701v-.531l.454-.36v-.017l-.454-.27v-.538z" fill="#302d2b"/>
  <path d="M101.798 48.726l1.637-.179v9.144l-1.637.179v-9.144zm1.772-.386l-1.906.208v9.542l1.904-.208.002-9.542zM104.73 45.554l-.077.167.08.127c.131-.014.099-.409.3-.431.119-.013.201.117.201.325a.533.533 0 0 1-.039.215l-.112-.025v-.025c.051-.02.096-.085.096-.191 0-.102-.041-.148-.091-.143-.134.015-.098.401-.3.423-.123.013-.19-.118-.19-.274 0-.094.017-.167.043-.219l.088.032v.019zm.27-.604l-.208.02c-.094.01-.154.02-.183.025l.004-.108-.004-.107c.116.004.208-.004.311-.016.216-.023.252-.119.252-.29 0-.209-.153-.207-.319-.189l-.244.037.004-.067-.004-.065c.052.002.18-.002.333-.019.206-.022.292.101.292.354 0 .225-.067.406-.234.425zm-.06-1.557v.012l.036-.004c.1-.011.168-.021.246-.037l-.004.108.004.107c-.078 0-.146.005-.246.016l-.121.013c-.1.011-.168.021-.246.037l.004-.107-.004-.192c0-.132.008-.181.03-.229l.117-.098c.086-.009.141.058.164.185.1-.095.201-.205.302-.312l-.004.118.004.119-.282.264zm-.28.038l.242-.022.001-.029c0-.115-.043-.173-.127-.164-.104.011-.116.072-.116.215zm.28-1.178v.012l.036-.004c.1-.011.168-.021.246-.037l-.004.108.004.106a2.386 2.386 0 0 0-.246.017l-.121.013c-.1.011-.168.021-.246.037l.004-.108-.004-.192c0-.132.008-.182.03-.23l.117-.098c.086-.009.141.058.164.185.1-.095.201-.205.302-.312l-.004.118.004.119-.282.266zm-.28.038l.242-.022.001-.029c0-.115-.043-.173-.127-.164-.104.011-.116.072-.116.215zm-.062-1.332c0-.278.104-.508.317-.531.176-.019.319.174.319.466 0 .276-.096.509-.318.533-.175.019-.318-.164-.318-.468zm.05-.002c0 .179.123.271.275.254.189-.021.255-.156.255-.303 0-.157-.089-.285-.282-.264-.153.017-.248.144-.248.313zm.352-1.042l-.208.02a2.19 2.19 0 0 0-.183.025l.004-.108-.004-.107c.116.004.208-.004.311-.015.216-.024.252-.119.252-.29 0-.209-.153-.207-.319-.189l-.244.038.004-.067-.004-.065c.052.002.18-.003.333-.02.206-.022.292.101.292.354 0 .224-.067.405-.234.424zm-.391-1.285l.004-.06-.004-.058c.141-.204.282-.407.423-.614a5.325 5.325 0 0 0-.423.055l.004-.06-.004-.059c.258-.007.376-.02.613-.046l-.004.054.004.051c-.147.201-.292.407-.432.619l.207-.02c.142-.016.192-.025.225-.032l-.004.062.004.06a4.064 4.064 0 0 0-.436.021l-.177.027zm.246-1.381c-.1.011-.168.021-.246.037l.004-.107c0-.058-.004-.122-.004-.237 0-.298.065-.511.289-.536.195-.021.324.171.324.418 0 .131-.004.22-.004.289l.004.106a2.386 2.386 0 0 0-.246.017l-.121.013zm.141-.209l.173-.021.002-.115c0-.196-.09-.311-.275-.291-.146.016-.236.145-.236.326l.004.136.173-.018.159-.017zm-1.818 7.141c.193-.021.363-.232.398-.489l-.797.087c.036.249.206.423.399.402z" fill="#302d2b"/>
  <path d="M101.203 46.482l3.181-.347v-9.819l-3.181.347v9.819zm2.623-8.67c.009.081.041.399.032.723-.011.395-.03.535-.045.678-.003.023-.041.212-.048.356-.007.138.016.23.02.259.063.428.074.837.074.837 0 .964-.279 1.07-.279 1.07l-.821.089v.46l1.104-.121v1.546l-.05.005c.035.161.055.339.055.529 0 .757-.224 1.396-.691 1.447-.415.045-.69-.539-.69-1.296 0-.19.02-.373.055-.542l-.987.107V42.41l.933-.102v-.459l-.295.032-.446-1.497.742-.081v-.418l.271-.03v.413l.817-.089.036-.28c-.029-.218-.026-.322.02-.619.06-.388-.072-.497-.124-.491l-.125.121c-.02.033-.263.702-.514.729-.329.036-.402-.997-.402-1.291 0-.691.096-1.104.096-1.104l.124.028-.002.229c0 .094.015.177.015.177.08.327.277-.097.303-.149.059-.12.168-.361.283-.446.286-.214.495.348.539.729zM104.273 27.785c-.062-1.88-.225-3.183-.415-3.3l-.034-.008-.033.014-.084.148c-.137.381-.251 1.373-.312 2.713-.025.57-.04 1.154-.044 1.852l-.001.255-.875-1.052-.875-1.052.001-.714v-.714l.006-.054c.025-.249.077-.426.163-.553l.162-.142.124-.015.163.082c.146.127.255.373.31.697.023.133.022.131.026.42l.003.257c0 .001-.184-.043-.408-.098l-.409-.099-.001.506v.506l.601.143.601.144v-.82c.001-.852.001-.851-.009-.991-.033-.451-.111-.832-.234-1.135l-.044-.1c-.171-.363-.404-.557-.652-.542-.232.013-.447.213-.592.552l-.061.164a2.9 2.9 0 0 0-.125.647l-.005.056v1.226l-.001 1.227.563.602c.31.331.562.602.561.604l-.566.318-.564.316v3.802l.194.043.195.042.004-.726c.003-.604.004-.733.007-.777.025-.358.141-.607.318-.683l.133-.014c.14.029.263.159.354.375.067.159.114.362.136.593.005.055.006.081.009.258l.002.208-.001.011-.406-.107-.412-.108-.005-.001v1.024l.601.143.601.144.001-.013c.007-.064.011-.784.005-.987-.009-.286-.021-.5-.04-.724-.057-.658-.17-1.162-.33-1.477a1.015 1.015 0 0 0-.22-.3c-.155-.133-.336-.16-.547-.081l-.13.06-.003.001c0-.001.376-.246.835-.542l.837-.543.003.093c0 .488.015 1.208.036 1.726.069 1.708.225 2.858.403 2.969l.037.008.063-.056c.193-.302.35-1.817.394-3.794l.009-.565c.002-.125 0-1.188-.003-1.306l-.02-.756zm-.258 1.87a5.458 5.458 0 0 1-.092.929c-.04.182-.085.277-.133.277l-.043-.025c-.068-.083-.13-.388-.158-.786a6.653 6.653 0 0 1-.018-.579c0-.239.001-.301.011-.47.03-.528.105-.907.192-.963l.092.063c.027.055.058.171.079.291.038.215.061.486.07.813.003.094.003.35 0 .45zM105.228 32.572l-.001-.076-.324-.229-.325-.229-.001.141v.14l.209.132c.115.073.21.133.21.135s-.094.083-.209.183l-.209.18-.002.101-.001.149v.048l.243-.223.327-.299.083-.076v-.077zM104.576 31.175v.255l.316-.035.317-.034v-.255l-.317.034zM105.209 30.434l.001-.202.001-.277-.007-.128a.876.876 0 0 0-.13-.391l-.164-.099-.189.134-.082.177-.049.216a2.457 2.457 0 0 0-.015.383l-.002.255.318-.035.318-.033zm-.526-.325a.933.933 0 0 1 .014-.221l.065-.162.075-.076.114-.014.075.061.065.154.008.035v.154l.001.155-.209.022-.209.023.001-.131zM104.827 27.107l.114-.006c.068-.027.13-.095.18-.195.053-.106.091-.25.102-.391l.004-.041-.002-.195c-.02-.248-.104-.444-.22-.515l-.088-.027c-.167-.005-.315.243-.351.59v.269a.866.866 0 0 0 .129.401l.132.11zm-.152-.647l.017-.167c.036-.166.126-.277.216-.269l.118.081.073.22.004.136c-.014.204-.1.364-.205.384l-.143-.074-.074-.206-.006-.105zM105.103 28.036l-.001.331-.086.009-.086.009-.001-.312-.001-.311-.052.005-.053.006v.626l-.07.006-.07.007-.001-.33-.001-.329-.052.006-.053.005v.987l.316-.035.317-.035v-.985l-.053.005-.053.006zM104.957 18.257c-.016-.177-.088-.267-.173-.257-.13.014-.188.209-.188.459v.491l.611-.067v-.328l-.235.026v-.003l.235-.335v-.409l-.25.423zm-.239.351v-.032c0-.107.01-.229.076-.236s.076.112.076.219v.032l-.152.017zm-.142-1.822c0 .363.129.684.314.664.198-.021.337-.33.337-.735 0-.405-.14-.683-.337-.662-.184.021-.314.37-.314.733zm.154-.017c0-.196.077-.365.162-.374.105-.012.182.141.182.336s-.077.365-.182.376c-.085.011-.162-.142-.162-.338zm.478-1.219v-.327l-.352-.067v-.003l.352-.328v-.131l-.352-.264v-.003l.352-.13v-.329l-.611.258v.327l.327.235-.327.292v.323l.611.147zM104.273 15.263c-.062-1.88-.225-3.183-.415-3.3l-.034-.008-.033.014-.084.148c-.137.381-.251 1.373-.312 2.713-.025.569-.04 1.154-.044 1.852l-.001.255-.875-1.052-.875-1.052.001-.714v-.714l.006-.054c.025-.249.077-.426.163-.553l.162-.142.124-.015.163.082c.146.128.255.373.31.697.023.132.022.131.026.42l.003.257c0 .001-.184-.043-.408-.098l-.409-.099-.001.506v.506l.601.143.601.144v-.82c.001-.852.001-.851-.009-.991-.033-.451-.111-.833-.234-1.135l-.044-.1c-.171-.363-.404-.557-.652-.543-.232.013-.447.214-.592.552l-.061.163a2.91 2.91 0 0 0-.125.648l-.005.055v1.227l-.001 1.227.563.601c.31.331.562.603.561.604l-.566.318-.564.315v3.802l.194.043.195.042.004-.726c.003-.604.004-.733.007-.777.025-.358.141-.607.318-.683l.133-.014c.14.029.263.159.354.375.067.159.114.362.136.593.005.055.006.081.009.258l.002.208-.001.011-.406-.107-.412-.108-.005-.001v1.024l.601.143.601.143.001-.013c.007-.064.011-.784.005-.987-.009-.286-.021-.5-.04-.724-.057-.658-.17-1.162-.33-1.477a1.015 1.015 0 0 0-.22-.3c-.155-.133-.336-.16-.547-.081l-.13.06-.003.001c0-.001.376-.246.835-.543l.837-.542.003.093c0 .488.015 1.208.036 1.726.069 1.708.225 2.858.403 2.969l.037.008.063-.056c.193-.302.35-1.817.394-3.794l.009-.565c.002-.125 0-1.188-.003-1.306l-.02-.752zm-.258 1.87a5.458 5.458 0 0 1-.092.929c-.04.182-.085.277-.133.277l-.043-.025c-.068-.083-.13-.388-.158-.786a6.664 6.664 0 0 1-.018-.58c0-.238.001-.301.011-.469.03-.528.105-.907.192-.963l.092.063c.027.055.058.171.079.291.038.215.061.486.07.812a11.3 11.3 0 0 1 0 .451z" fill="#302d2b"/>
  <linearGradient id="g" gradientUnits="userSpaceOnUse" x1="-146.008" y1="690.833" x2="-145.008" y2="690.833" gradientTransform="scale(45.041 -45.041) rotate(76 374.079 435.891)">
    <stop offset="0" stop-color="#1a5094"/>
    <stop offset=".037" stop-color="#258ef7"/>
    <stop offset=".115" stop-color="#46abfb"/>
    <stop offset=".173" stop-color="#5bbcfd"/>
    <stop offset="1" stop-color="#6a69a8"/>
  </linearGradient>
  <path d="M91.1 284.779a.425.425 0 0 0-.369.141l-32.448 37.432a.437.437 0 0 0 .324.731L.328 308.334a.435.435 0 0 1-.219-.709l28.758-32.545a.413.413 0 0 1 .373-.134l61.86 9.833z" fill="url(#g)"/>
  <linearGradient id="h" gradientUnits="userSpaceOnUse" x1="-146.008" y1="690.833" x2="-145.008" y2="690.833" gradientTransform="matrix(0 -38.307 -38.307 0 26538.598 -5270.04)">
    <stop offset="0" stop-color="#17c4fd"/>
    <stop offset="1" stop-color="#0b24bf"/>
  </linearGradient>
  <path d="M91.492 320.896v-35.681c0-.4-.492-.59-.761-.294l-32.448 37.432a.437.437 0 0 0 .324.731l32.448-1.75a.439.439 0 0 0 .437-.438z" fill="url(#h)"/>
  <linearGradient id="i" gradientUnits="userSpaceOnUse" x1="-146.008" y1="690.833" x2="-145.008" y2="690.833" gradientTransform="matrix(0 20.768 -20.768 1.817 14430.843 1906.088)">
    <stop offset="0" stop-color="#33438a"/>
    <stop offset="1" stop-color="#0098df"/>
  </linearGradient>
  <path fill="url(#i)" d="M91.156 129.836v8.158l-15.786 1.381v11.126l16.437-1.438v-1.484l-15.786 1.381v-8.157l15.786-1.382v-11.126l-16.437 1.438v1.484z"/>
  <linearGradient id="j" gradientUnits="userSpaceOnUse" x1="-146.008" y1="690.833" x2="-145.008" y2="690.833" gradientTransform="matrix(0 20.768 -20.768 1.817 14411.463 1907.783)">
    <stop offset="0" stop-color="#33438a"/>
    <stop offset="1" stop-color="#0098df"/>
  </linearGradient>
  <path fill="url(#j)" d="M72.934 129.947v1.483l-8.385.734v19.284l-9.066.793v-1.484l8.385-.733V130.74z"/>
  <linearGradient id="k" gradientUnits="userSpaceOnUse" x1="-146.008" y1="690.833" x2="-145.008" y2="690.833" gradientTransform="matrix(0 20.768 -20.768 1.817 14394.519 1909.266)">
    <stop offset="0" stop-color="#33438a"/>
    <stop offset="1" stop-color="#0098df"/>
  </linearGradient>
  <path fill="url(#k)" d="M39.696 153.622v-9.641l15.787-1.382v-11.126l-16.438 1.438v1.46l15.788-1.357v8.158l-15.788 1.381v11.126z"/>
  <path d="M53.284 159.657v7.305l.5-.043v-6.604l.463-.041s.335-.033.451.301c.097.284.115.81.115 1.167 0 .383-.01.973-.067 1.194-.085.337-.224.415-.353.426l-.305.027v.647l.438-.039s.396.005.566-.406c.209-.504.262-1.159.262-2.029 0-.793-.125-1.581-.383-1.828-.213-.207-.597-.173-.597-.173l-1.09.096zM55.653 166.755l.501-.044v-7.305l-.501.044zM58.624 160.891l.914 5.389-.525 2.978.414-.036 1.511-8.533-.463.04-.658 4.153-.612-4.041zM61.221 166.221v-.689s.528.001.638-.009c.244-.021.365-.151.457-.382.055-.138.104-.74.104-.951 0-.214-.017-.67-.054-.854-.038-.181-.123-.345-.25-.357-.091-.011-.232-.039-.396-.042-.23-.004-.383-.267-.457-.457-.072-.193-.17-.478-.17-1.393 0-.911.104-1.429.207-1.676a.778.778 0 0 1 .372-.421c.133-.066.353-.088.353-.088l.699-.014v.689s-.51 0-.62.009c-.244.021-.317.145-.409.376-.053.14-.096.51-.096.724 0 .21.011.636.047.817.036.183.122.345.249.36.091.008.232.037.396.041.231.006.384.266.457.458s.171.601.171 1.512-.104 1.571-.208 1.815c-.103.25-.255.368-.371.423-.134.067-.354.086-.354.086l-.765.023zM63.945 159.425l-.499.044v5.359s.012.488.024.657c.012.172.122.574.408.549l.518-.071v-.688l-.225.043c-.086.007-.19.002-.208-.328-.019-.326-.019-.722-.019-.722v-3.156l.564-.049v-.688l-.564.049v-.999zM68.485 165.632l.499-.044v-5.603l-.499.044zM68.485 159.344l.499-.044v-1.016l-.499.043zM70.47 159.809c.339-.03.603.122.745.371.143.25.318.786.318 2.384 0 1.599-.175 2.164-.318 2.442a.916.916 0 0 1-.745.5c-.341.03-.604-.122-.746-.37-.142-.253-.318-.788-.318-2.386s.176-2.164.318-2.439a.916.916 0 0 1 .746-.502zm-.342 1.104c-.069.198-.152.613-.152 1.787 0 1.176.083 1.573.152 1.759.068.186.194.305.357.291.164-.014.29-.155.359-.353.068-.198.152-.61.152-1.786 0-1.173-.084-1.573-.152-1.76-.07-.185-.195-.302-.359-.288-.163.014-.29.153-.357.35zM72.475 160.469l.489-.09c.129-.011.279.055.352.258.068.194.111.427.111.81v3.744l.5-.044v-3.837c0-.726-.098-1.138-.245-1.39-.21-.362-.584-.295-.584-.295l-1.12.146v5.546l.497-.043v-4.805zM67.585 159.107l-.5.044v5.359s.012.488.024.658c.012.171.121.573.408.548l.518-.071v-.688l-.226.043c-.084.007-.189.002-.207-.328-.018-.327-.018-.723-.018-.723v-3.156l.563-.049v-.687l-.563.049v-.999zM57.955 162.801c0-.383-.043-.616-.111-.81-.073-.203-.224-.269-.352-.258l-.659.105v-.74l.793-.118s.375-.067.585.295c.146.252.244.664.244 1.39v3.784l-.958.13s-.434.043-.651-.142c-.213-.179-.329-.711-.329-1.462 0-.726.098-1.158.244-1.436.21-.397.584-.393.584-.393l.306-.027v.647l-.171.015c-.128.011-.26.076-.333.292-.069.207-.106.381-.106.764 0 .501.043.723.146.885.091.144.255.163.438.146l.33-.075v-2.992zM66.096 162.088c0-.383-.042-.616-.11-.81-.074-.204-.224-.269-.352-.258l-.658.105v-.74l.792-.118s.375-.067.585.295c.146.252.243.664.243 1.39v3.784l-.956.13s-.434.043-.653-.141c-.212-.179-.329-.712-.329-1.463 0-.726.099-1.158.244-1.436.21-.397.585-.393.585-.393l.305-.027v.647l-.172.015c-.127.011-.26.077-.333.292-.068.207-.105.381-.105.764 0 .501.044.723.146.885.091.144.256.162.439.146l.33-.076v-2.991zM78.406 158.404c.006.841-.012 1.286-.136 1.718-.109.38-.325.736-.803.778l-.593.012a.6.6 0 0 0-.451.386c-.098.251-.106.433-.116 1.078v1.89l2.016-.176v.925l-2.204.193-.106.008c-.15.013-.297-.206-.297-.67v-1.41c.01-1.647.062-1.888.219-2.334.108-.308.364-.665.674-.727.061-.012.175-.04.336-.043.117.001.235-.001.286-.003.274-.018.375-.142.45-.373.085-.26.132-.563.132-1.052 0-.458-.041-.886-.118-1.08-.092-.224-.181-.371-.439-.349-.652.053-1.413.159-1.413.159v-.875s.744-.137 1.502-.229c.472-.06.733.204.865.586.141.398.19.782.196 1.588z"/>
  <path fill="#161513" d="M109.867 316.107l32.503-1.578V6.921h-.003l-32.505-2.828h.005v312.986"/>
  <linearGradient id="l" gradientUnits="userSpaceOnUse" x1="-146.008" y1="690.833" x2="-145.008" y2="690.833" gradientTransform="scale(34.2728 -34.2728) rotate(3.07 12993.39 3122.275)">
    <stop offset="0" stop-color="#2c2c2d"/>
    <stop offset=".1" stop-color="#2b292c"/>
    <stop offset=".2" stop-color="#2c2c2d"/>
    <stop offset=".3" stop-color="#2b292c"/>
    <stop offset=".4" stop-color="#2c2c2d"/>
    <stop offset=".5" stop-color="#2b292c"/>
    <stop offset=".6" stop-color="#2c2c2d"/>
    <stop offset=".7" stop-color="#2b292c"/>
    <stop offset=".8" stop-color="#2c2c2d"/>
    <stop offset=".9" stop-color="#2b292c"/>
    <stop offset="1" stop-color="#2c2c2d"/>
    <stop offset="1" stop-color="#2c2c2d"/>
  </linearGradient>
  <path d="M139.18 321.815v-5.065a.285.285 0 0 0-.299-.285l-33.639 1.634v5.801l33.673-1.805a.281.281 0 0 0 .265-.28z" fill="url(#l)"/>
  <path fill="#282726" d="M142.37 314.839v-.31l-37.128 1.802v1.767l46.959-2.28v.898l11.543-.635.001-2.3z"/>
  <linearGradient id="m" gradientUnits="userSpaceOnUse" x1="-146.008" y1="690.833" x2="-145.008" y2="690.833" gradientTransform="scale(317.5 -317.5) rotate(90 273.084 418.091)">
    <stop offset="0" stop-color="#333232"/>
    <stop offset=".015" stop-color="#323030"/>
    <stop offset=".171" stop-color="#272525"/>
    <stop offset=".39" stop-color="#221f1e"/>
    <stop offset="1" stop-color="#201d1c"/>
  </linearGradient>
  <path d="M109.586 317.361l-2.323.14a.27.27 0 0 1-.271-.271V.276c0-.152.124-.276.275-.276l2.328.229c.15 0 .272.122.272.272V317.08a.281.281 0 0 1-.281.281z" fill="url(#m)"/>
  <linearGradient id="n" gradientUnits="userSpaceOnUse" x1="-146.008" y1="690.833" x2="-145.008" y2="690.833" gradientTransform="scale(312.4586 -312.4586) rotate(90 273.148 418.146)">
    <stop offset="0" stop-color="#333232"/>
    <stop offset=".015" stop-color="#323030"/>
    <stop offset=".171" stop-color="#272525"/>
    <stop offset=".39" stop-color="#221f1e"/>
    <stop offset="1" stop-color="#201d1c"/>
  </linearGradient>
  <path d="M144.961 315.39l-2.323.138a.27.27 0 0 1-.271-.267V3.34c0-.15.124-.271.275-.271l2.328.225c.15 0 .272.12.272.268v311.552a.279.279 0 0 1-.281.276z" fill="url(#n)"/>
  <linearGradient id="o" gradientUnits="userSpaceOnUse" x1="-146.008" y1="690.833" x2="-145.008" y2="690.833" gradientTransform="scale(314.4337 -314.4337) rotate(90 273.122 418.124)">
    <stop offset="0" stop-color="#333232"/>
    <stop offset=".015" stop-color="#323030"/>
    <stop offset=".171" stop-color="#272525"/>
    <stop offset=".39" stop-color="#221f1e"/>
    <stop offset="1" stop-color="#201d1c"/>
  </linearGradient>
  <path d="M130.848 316.174l-2.323.124a.27.27 0 0 1-.271-.269V2.137c0-.15.124-.272.275-.272l2.328.227a.27.27 0 0 1 .271.269v313.536a.278.278 0 0 1-.28.277z" fill="url(#o)"/>
  <linearGradient id="p" gradientUnits="userSpaceOnUse" x1="-146.008" y1="690.833" x2="-145.008" y2="690.833" gradientTransform="scale(316.4915 -316.4915) rotate(90 273.093 418.099)">
    <stop offset="0" stop-color="#232323"/>
    <stop offset="1" stop-color="#131010"/>
  </linearGradient>
  <path d="M112.305 316.714l2.045.381a.27.27 0 0 1-.271-.27V.878c0-.151.123-.274.275-.274l-2.05.625v315.485z" fill="url(#p)"/>
  <linearGradient id="q" gradientUnits="userSpaceOnUse" x1="-146.008" y1="690.833" x2="-145.008" y2="690.833" gradientTransform="scale(316.4915 -316.4915) rotate(90 273.096 418.102)">
    <stop offset="0" stop-color="#333232"/>
    <stop offset=".015" stop-color="#323030"/>
    <stop offset=".171" stop-color="#272525"/>
    <stop offset=".39" stop-color="#221f1e"/>
    <stop offset="1" stop-color="#201d1c"/>
  </linearGradient>
  <path d="M116.673 316.956l-2.323.139a.27.27 0 0 1-.271-.27V.878c0-.151.123-.274.275-.274l2.328.228c.15 0 .272.122.272.271v315.573a.28.28 0 0 1-.281.28z" fill="url(#q)"/>
  <path fill="#6a6c73" d="M116.768 270.877v.378h-2.232l.456.488-.204.229-.688-.762v-.333zM116.788 215.223v2.09h-.268c-.427-.624-.756-1.062-.988-1.314s-.455-.379-.668-.379a.408.408 0 0 0-.364.189.798.798 0 0 0-.124.449c0 .35.112.625.336.826l-.212.233a1.15 1.15 0 0 1-.31-.454 1.65 1.65 0 0 1-.11-.605c0-.276.068-.516.204-.719a.658.658 0 0 1 .58-.303c.248 0 .495.122.742.365s.542.614.886 1.113v-1.492h.296zM114.918 251.221v.009l1.288.716v.569l-1.288.709v.01h1.288v.443h-1.544v-.819l1.204-.633v-.009l-1.204-.647v-.791h1.544v.443h-1.288zm1.293-2.444v-.496l-1.184.854v.554l1.184.886v-1.244h-.209v.611l-.769-.52v-.007l.978-.638zm0-10.459v-.496l-1.184.854v.554l1.184.886v-1.244h-.209v.611l-.769-.52v-.007l.978-.638zm-.689 8.83v-.767h.645c.032.127.061.345.061.667 0 .831-.223 1.21-.608 1.21-.386 0-.609-.379-.609-1.21 0-.282.022-.492.051-.656l.228.008a3.566 3.566 0 0 0-.055.641c0 .48.139.737.385.737.266 0 .384-.25.384-.712 0-.106-.01-.201-.022-.261h-.241v.344h-.219zm-.495-1.279v-.422h1.184v.422h-1.184zm.288-4.438v-1.065h.858c.03.226.054.478.054.871 0 1.111-.302 1.579-.794 1.579s-.794-.468-.794-1.579c0-.369.04-.733.066-.857l.268.016a4.817 4.817 0 0 0-.069.832c0 .707.192 1.091.53 1.091.348 0 .53-.375.53-1.059 0-.138-.014-.473-.029-.461h-.358v.633h-.262zm-.063-4.135v.731h-.225v-1.881h.225v.728h.959v.421h-.959zm-.225-1.484v-1.506h.211v1.084h.251v-1.039h.211v1.039h.3v-1.119h.211v1.541h-1.184zm.935 7.426c.028.183.042.368.041.554 0 .48-.139.737-.384.737-.246 0-.385-.257-.385-.737 0-.194.014-.375.042-.554l-.228-.007a4.023 4.023 0 0 0-.037.568c0 .831.223 1.21.608 1.21s.608-.38.608-1.21c0-.235-.015-.419-.037-.568l-.228.007z"/>
  <linearGradient id="r" gradientUnits="userSpaceOnUse" x1="-146.008" y1="690.833" x2="-145.008" y2="690.833" gradientTransform="scale(315.4854 -315.4854) rotate(90 273.109 418.113)">
    <stop offset="0" stop-color="#333232"/>
    <stop offset=".015" stop-color="#323030"/>
    <stop offset=".171" stop-color="#272525"/>
    <stop offset=".39" stop-color="#221f1e"/>
    <stop offset="1" stop-color="#201d1c"/>
  </linearGradient>
  <path d="M121.167 294.216h2.063a.814.814 0 0 0 .812-.811v22.9c0 .154-.126.28-.281.28l-2.323.129a.27.27 0 0 1-.271-.269v-22.229zm2.875-292.49a.271.271 0 0 0-.272-.27l-2.328-.228a.275.275 0 0 0-.275.274v191.976h2.063c.446 0 .812.365.812.811V1.726zm-.812 237.336h-2.063v9.571h2.063c.446 0 .812.365.812.811v-11.193a.814.814 0 0 1-.812.811z" fill="url(#r)"/>
  <linearGradient id="s" gradientUnits="userSpaceOnUse" x1="-146.008" y1="690.833" x2="-145.008" y2="690.833" gradientTransform="scale(314.4337 -314.4337) rotate(90 273.118 418.12)">
    <stop offset="0" stop-color="#232323"/>
    <stop offset="1" stop-color="#131010"/>
  </linearGradient>
  <path d="M128.525 316.298a.27.27 0 0 1-.271-.269V2.137c0-.15.124-.272.275-.272l-2.048.65v313.401l2.045.381" fill="url(#s)"/>
  <linearGradient id="t" gradientUnits="userSpaceOnUse" x1="-146.008" y1="690.833" x2="-145.008" y2="690.833" gradientTransform="scale(312.4586 -312.4586) rotate(90 273.144 418.142)">
    <stop offset="0" stop-color="#232323"/>
    <stop offset="1" stop-color="#131010"/>
  </linearGradient>
  <path d="M140.508 315.146V3.719l2.135-.65a.273.273 0 0 0-.275.271v311.921a.27.27 0 0 0 .271.267l-2.131-.382z" fill="url(#t)"/>
  <linearGradient id="u" gradientUnits="userSpaceOnUse" x1="-146.008" y1="690.833" x2="-145.008" y2="690.833" gradientTransform="scale(315.4854 -315.4854) rotate(90 273.106 418.11)">
    <stop offset="0" stop-color="#232323"/>
    <stop offset="1" stop-color="#131010"/>
  </linearGradient>
  <path d="M119.305 316.333v-22.117h1.862v22.229a.27.27 0 0 0 .271.269l-2.133-.381zm0-67.7h1.862v-9.571h-1.862v9.571zm0-246.753v191.599h1.862V1.503c0-.151.123-.274.275-.274l-2.137.651z" fill="url(#u)"/>
  <path d="M116.955 248.633h6.276c.446 0 .812.365.812.811v43.961a.814.814 0 0 1-.812.811h-6.276" fill="#141212"/>
  <path d="M116.955 248.883h6.276a.566.566 0 0 1 .562.561v43.961a.566.566 0 0 1-.562.561h-6.276v.5h6.276a1.062 1.062 0 0 0 1.061-1.061v-43.961a1.064 1.064 0 0 0-1.061-1.061h-6.276v.5z" fill="#120e0e"/>
  <path d="M116.955 193.479h6.276c.446 0 .812.365.812.811v43.961a.814.814 0 0 1-.812.811h-6.276" fill="#141212"/>
  <path d="M116.955 193.729h6.276a.567.567 0 0 1 .562.561v43.961a.566.566 0 0 1-.562.561h-6.276v.5h6.276a1.062 1.062 0 0 0 1.061-1.061V194.29a1.063 1.063 0 0 0-1.061-1.061h-6.276v.5z" fill="#120e0e"/>
  <path d="M127.85 89.058l-.006 6.49-1.536-.565v-7.628l1.96.586c1.254.382 2.022 1.124 2.01 2.425-.012 1.513-.63 2.121-1.835 1.725v-2.983c0-.361-.593-.382-.593-.05z" fill="#c41700"/>
  <path d="M125.603 93.724l-.725.276c-.468.184-.868-.248-.437-.424l.35-.142-1.317-.474c-.406.156-.787.488-.762.955.025.474.98.587 1.717.721a3.34 3.34 0 0 0 1.879-.17v-.488l-.705-.254zm2.253 1.824l1.342-.53-1.355-.487v.982l.013.035z" fill="#d8a100"/>
  <path d="M131.427 94.127l.025-.007c.587-.233.836-.559.774-.863-.1-.509-.818-.785-1.922-.876-.793-.063-1.573.134-2.335.431l-.125.05 1.367.48.799-.304c.836-.176 1.173.134.368.424l-.399.156 1.448.509zm-5.119-2.248l-.605.233.605.212v-.445z" fill="#0f3bc2"/>
  <path d="M129.198 95.017l2.229-.891-1.448-.509-2.135.827v.085l1.354.488zm-2.89-1.562l-.705.269.705.254v-.523zm1.535.417v-1.011l1.367.481-1.367.53zm-3.052-.438l1.517-.615v-.495l-.605-.212-2.197.841-.031.007 1.316.474z" fill="#109dbc"/>
  <path fill="#120e0e" d="M116.955 30.646h12.736v-.5h-12.736M116.955 164.646h12.736v-.5h-12.736"/>
  <path d="M121.324 22.906l-9.779-.512a.313.313 0 0 1-.294-.31v-9.778c0-.163.132-.288.294-.279l9.779.513a.313.313 0 0 1 .294.31v9.778a.276.276 0 0 1-.294.278z" fill="#202224"/>
  <path d="M121.324 22.906l.003-.05-9.779-.512a.264.264 0 0 1-.247-.26v-9.778c0-.131.101-.229.229-.23H111.544l9.778.513a.264.264 0 0 1 .247.26v9.778c0 .13-.1.229-.228.229h-.014l-.003.05-.002.05h.018a.327.327 0 0 0 .328-.329v-9.778a.364.364 0 0 0-.342-.36l-9.779-.513-.003.05.004-.05-.019-.001a.328.328 0 0 0-.329.33v9.778c.001.19.152.35.342.36l9.779.512.003-.049z" fill="#1c1c1c"/>
  <path d="M119.898 20.056v.271l-.639.411v.37l.639.056v.229l-1.609-.141v-.74c0-.171.044-.307.133-.407s.206-.144.352-.131c.138.012.249.068.331.168s.128.218.137.353l.656-.439zm-.815.553c0-.108-.029-.2-.086-.274a.307.307 0 0 0-.222-.123c-.091-.008-.166.02-.222.084s-.084.15-.084.259v.483l.615.054v-.483zM119.898 18.504v1.207l-1.608-.141v-1.207l.178.016v.977l.519.046v-.958l.178.015v.958l.555.049v-.977zM119.927 17.546c0 .298-.085.527-.255.685l-.154-.152a.714.714 0 0 0 .231-.557c0-.149-.028-.261-.084-.336l-.195-.122-.181.096a.838.838 0 0 0-.103.265c-.023.106-.049.21-.077.315a.6.6 0 0 1-.14.26.296.296 0 0 1-.257.089c-.132-.012-.24-.081-.323-.208s-.125-.283-.125-.467c0-.271.076-.481.227-.632l.147.151c-.129.12-.193.292-.193.516 0 .11.024.203.071.278l.185.123.14-.069.082-.194a3.64 3.64 0 0 1 .15-.512l.144-.189a.343.343 0 0 1 .239-.06c.13.011.242.077.334.196.091.119.137.294.137.524zM119.898 15.314v1.207l-1.608-.141v-1.207l.178.016v.977l.519.046v-.958l.178.015v.958l.555.049v-.977zM119.898 14.265v.229l-1.43-.125v.582l-.178-.015v-1.398l.178.016v.585zM113.422 17.533l2.211.116.013-.25-2.211-.116" fill="#40a9a8"/>
  <path d="M114.414 16.65c.251-.447.696-.738 1.2-.738.77.002 1.409.688 1.41 1.554-.001.867-.64 1.553-1.41 1.555-.503 0-.948-.292-1.2-.738l-.218.122c.289.515.814.865 1.418.865.926-.002 1.658-.816 1.66-1.805-.002-.988-.734-1.802-1.66-1.804-.604 0-1.129.35-1.418.866l.218.123z" fill="#40a9a8"/>
  <linearGradient id="v" gradientUnits="userSpaceOnUse" x1="-146.008" y1="690.833" x2="-145.008" y2="690.833" gradientTransform="scale(23.4638 -23.4638) rotate(40 896.087 544.537)">
    <stop offset="0" stop-color="#0e0d1d"/>
    <stop offset=".099" stop-color="#171420"/>
    <stop offset=".363" stop-color="#282327"/>
    <stop offset=".65" stop-color="#322b2b"/>
    <stop offset="1" stop-color="#352e2c"/>
    <stop offset="1" stop-color="#352e2c"/>
  </linearGradient>
  <path d="M106.992 317.5l-15.5-2.918v-29.368c7.75 4.202 15.5 6.939 15.5 15.5V317.5" fill="url(#v)"/>
  <path d="M119.305 248.633v45.584h3.926a.814.814 0 0 0 .812-.811v-43.961a.813.813 0 0 0-.812-.811l-3.926-.001z" fill="#201d1c"/>
  <path fill="#6a6c73" d="M123.424 280.928v.28h-1.479l1.479.763v.114l-1.479.766h1.479v.28h-1.758v-.401l1.355-.702-1.355-.699v-.401zM123.424 278.928v1.474h-1.758v-1.474h.195v1.194h.567v-1.171h.195v1.171h.606v-1.194zM123.424 276.279v.28h-1.479l1.479.763v.114l-1.479.766h1.479v.28h-1.758v-.401l1.355-.702-1.355-.698v-.402zM123.198 273.921c.172.209.258.478.258.807 0 .328-.086.596-.258.804-.172.208-.39.313-.651.313s-.479-.104-.651-.313c-.172-.208-.258-.476-.258-.804 0-.329.086-.597.258-.807.172-.209.39-.313.651-.313s.478.104.651.313zm.063.806c0-.248-.067-.448-.202-.601s-.305-.229-.513-.229c-.207 0-.378.077-.513.229s-.202.353-.202.601c0 .25.067.45.2.6a.656.656 0 0 0 .514.226.656.656 0 0 0 .513-.226c.135-.15.203-.35.203-.6zM123.424 271.539v.331l-.699.57v.452h.699v.28h-1.758v-.904a.84.84 0 0 1 .145-.511.455.455 0 0 1 .385-.198c.151 0 .271.057.361.17.09.114.14.252.15.417l.717-.607zm-.891.763a.522.522 0 0 0-.095-.325.292.292 0 0 0-.243-.126c-.1 0-.181.042-.242.126a.534.534 0 0 0-.092.325v.591h.672v-.591zM123.424 270.237v.28h-.743l-1.015.887v-.327l.817-.699-.817-.698v-.327l1.015.884zM123.456 267.12c0 .328-.085.603-.254.825s-.388.333-.655.333a.79.79 0 0 1-.655-.333c-.169-.222-.254-.497-.254-.825 0-.362.116-.647.348-.854l.103.232a.683.683 0 0 0-.186.265.904.904 0 0 0-.07.356c0 .25.067.457.2.621a.634.634 0 0 0 .514.246.634.634 0 0 0 .513-.248.954.954 0 0 0 .202-.619.888.888 0 0 0-.071-.356.712.712 0 0 0-.184-.265l.1-.236c.232.219.349.505.349.858zM123.424 263.989v.32l-.393.199v1.12l.393.199v.321l-1.758-.908v-.347l1.758-.904zm-.585.601l-.949.479.949.476v-.955zM123.424 262.062v.331l-.699.57v.452h.699v.28h-1.758v-.904a.84.84 0 0 1 .145-.511.455.455 0 0 1 .385-.198c.151 0 .271.057.361.17.09.114.14.252.15.417l.717-.607zm-.891.763a.522.522 0 0 0-.095-.325.292.292 0 0 0-.243-.126c-.1 0-.181.042-.242.126a.534.534 0 0 0-.092.325v.591h.672v-.591zM123.424 260.872v.769h-1.758v-.769c0-.344.083-.623.25-.835a.769.769 0 0 1 .63-.319c.255 0 .465.105.63.317.166.211.248.49.248.837zm-.195 0c0-.266-.064-.476-.195-.631a.61.61 0 0 0-.488-.233.618.618 0 0 0-.49.229c-.13.153-.195.364-.195.634v.489h1.368v-.488z"/>
  <path d="M119.297 193.479v45.583h3.926a.814.814 0 0 0 .812-.811V194.29a.814.814 0 0 0-.812-.811h-3.926z" fill="#201d1c"/>
  <path fill="#6a6c73" d="M123.424 225.774v.28h-1.479l1.479.762v.115l-1.479.766h1.479v.28h-1.758v-.401l1.355-.702-1.355-.699v-.401zM123.424 223.773v1.474h-1.758v-1.474h.195v1.195h.567v-1.171h.195v1.171h.606v-1.195zM123.424 221.125v.28h-1.479l1.479.762v.115l-1.479.766h1.479v.28h-1.758v-.401l1.355-.702-1.355-.699v-.401zM123.198 218.766c.172.209.258.478.258.807 0 .328-.086.596-.258.804-.172.208-.39.313-.651.313s-.479-.104-.651-.313c-.172-.208-.258-.476-.258-.804 0-.329.086-.597.258-.807.172-.209.39-.313.651-.313s.478.104.651.313zm.063.807c0-.248-.067-.448-.202-.601s-.305-.229-.513-.229c-.207 0-.378.077-.513.229s-.202.353-.202.601c0 .25.067.45.2.6a.656.656 0 0 0 .514.226.656.656 0 0 0 .513-.226c.135-.15.203-.35.203-.6zM123.424 216.385v.331l-.699.57v.452h.699v.28h-1.758v-.904a.84.84 0 0 1 .145-.511.455.455 0 0 1 .385-.198c.151 0 .271.057.361.17.09.114.14.252.15.417l.717-.607zm-.891.762a.522.522 0 0 0-.095-.325.292.292 0 0 0-.243-.126c-.1 0-.181.042-.242.126a.534.534 0 0 0-.092.325v.591h.672v-.591zM123.424 215.082v.281h-.743l-1.015.887v-.327l.817-.699-.817-.698v-.327l1.015.883zM123.456 211.966c0 .328-.085.603-.254.825s-.388.333-.655.333a.79.79 0 0 1-.655-.333c-.169-.222-.254-.497-.254-.825 0-.362.116-.647.348-.854l.103.232a.683.683 0 0 0-.186.265.904.904 0 0 0-.07.356c0 .25.067.457.2.621a.634.634 0 0 0 .514.246.634.634 0 0 0 .513-.248.954.954 0 0 0 .202-.619.888.888 0 0 0-.071-.356.712.712 0 0 0-.184-.265l.1-.236c.232.219.349.505.349.858zM123.424 208.835v.32l-.393.199v1.12l.393.199v.321l-1.758-.908v-.347l1.758-.904zm-.585.6l-.949.479.949.476v-.955zM123.424 206.908v.331l-.699.57v.452h.699v.28h-1.758v-.904a.84.84 0 0 1 .145-.511.455.455 0 0 1 .385-.198c.151 0 .271.057.361.17.09.114.14.252.15.417l.717-.607zm-.891.762a.522.522 0 0 0-.095-.325.292.292 0 0 0-.243-.126c-.1 0-.181.042-.242.126a.534.534 0 0 0-.092.325v.591h.672v-.591zM123.424 205.718v.769h-1.758v-.769c0-.344.083-.623.25-.835a.769.769 0 0 1 .63-.319c.255 0 .465.105.63.317.166.211.248.49.248.837zm-.195 0c0-.266-.064-.476-.195-.631a.61.61 0 0 0-.488-.233.618.618 0 0 0-.49.229c-.13.153-.195.364-.195.634v.489h1.368v-.488z"/>
  <path d="M133.959 237.521h-2.83v-43.104h2.83a4.258 4.258 0 0 1 4.258 4.258v34.588a4.259 4.259 0 0 1-4.258 4.258z" fill="#110d0d"/>
  <path d="M133.959 237.521v-.125h-2.705v-42.854h2.705c1.142 0 2.174.462 2.922 1.21a4.119 4.119 0 0 1 1.21 2.922v34.588a4.117 4.117 0 0 1-1.21 2.922 4.119 4.119 0 0 1-2.922 1.21v.252a4.383 4.383 0 0 0 4.383-4.383v-34.588a4.383 4.383 0 0 0-4.383-4.383h-2.955v43.354h2.955v-.125z" fill="#120e0e"/>
  <path fill="#201d1c" d="M131.129 197.375h4.557v12.061h-4.557z"/>
  <path d="M137.203 209.435h-1.518a1.016 1.016 0 0 1-1.013-1.013v-10.034c0-.557.456-1.013 1.013-1.013h1.518c.557 0 1.013.456 1.013 1.013v10.034c0 .557-.456 1.013-1.013 1.013z" fill="#252321"/>
  <path fill="#201d1c" d="M131.129 209.938h4.557v12.061h-4.557z"/>
  <path d="M137.203 221.999h-1.518a1.016 1.016 0 0 1-1.013-1.013v-10.034c0-.557.456-1.013 1.013-1.013h1.518c.557 0 1.013.456 1.013 1.013v10.034c0 .557-.456 1.013-1.013 1.013z" fill="#252321"/>
  <path fill="#201d1c" d="M131.129 222.564h4.557v12.06h-4.557z"/>
  <path d="M137.203 234.624h-1.518a1.016 1.016 0 0 1-1.013-1.013v-10.034c0-.557.456-1.013 1.013-1.013h1.518c.557 0 1.013.456 1.013 1.013v10.034c0 .558-.456 1.013-1.013 1.013z" fill="#252321"/>
  <path d="M133.959 292.854h-2.83V249.75h2.83a4.258 4.258 0 0 1 4.258 4.258v34.588a4.259 4.259 0 0 1-4.258 4.258z" fill="#110d0d"/>
  <path d="M133.959 292.854v-.125h-2.705v-42.855h2.705c1.142 0 2.174.462 2.922 1.211a4.12 4.12 0 0 1 1.21 2.923v34.588a4.121 4.121 0 0 1-1.21 2.923 4.124 4.124 0 0 1-2.922 1.211v.249a4.383 4.383 0 0 0 4.383-4.383v-34.588a4.383 4.383 0 0 0-4.383-4.383h-2.955v43.354h2.955v-.125z" fill="#120e0e"/>
  <linearGradient id="w" gradientUnits="userSpaceOnUse" x1="-146.008" y1="690.833" x2="-145.008" y2="690.833" gradientTransform="scale(313.4348 -313.4348) rotate(90 273.135 418.135)">
    <stop offset="0" stop-color="#333232"/>
    <stop offset=".015" stop-color="#323030"/>
    <stop offset=".171" stop-color="#272525"/>
    <stop offset=".39" stop-color="#221f1e"/>
    <stop offset="1" stop-color="#201d1c"/>
  </linearGradient>
  <path d="M138.207 198.389a4.26 4.26 0 0 0-2.866-3.742V2.741c0-.15.124-.272.275-.272l2.328.226c.15 0 .272.12.272.269v195.424m-.014 35.222a4.26 4.26 0 0 1-2.86 3.681v12.689a4.26 4.26 0 0 1 2.866 3.742h.009v-20.458m-.001 55.332a4.258 4.258 0 0 1-2.875 4.028v23.012a.27.27 0 0 0 .271.268l2.323-.113a.28.28 0 0 0 .281-.278v-26.567" fill="url(#w)"/>
  <linearGradient id="x" gradientUnits="userSpaceOnUse" x1="-146.008" y1="690.833" x2="-145.008" y2="690.833" gradientTransform="scale(313.4392 -313.4392) rotate(90 273.131 418.131)">
    <stop offset="0" stop-color="#232323"/>
    <stop offset="1" stop-color="#131010"/>
  </linearGradient>
  <path d="M135.617 2.469a.274.274 0 0 0-.275.272v191.906a4.25 4.25 0 0 0-1.383-.23h-.479V3.12l2.137-.651zm-.275 234.822a4.25 4.25 0 0 1-1.383.23h-.479v12.229h.479c.484 0 .949.081 1.383.23v-12.691m.27 78.615a.269.269 0 0 1-.271-.268v-23.012a4.25 4.25 0 0 1-1.383.23h-.479v22.673l2.069.381" fill="url(#x)"/>
  <path fill="#201d1c" d="M131.129 252.708h4.557v12.061h-4.557z"/>
  <path d="M137.203 264.769h-1.518a1.016 1.016 0 0 1-1.013-1.013v-10.034c0-.557.456-1.013 1.013-1.013h1.518c.557 0 1.013.456 1.013 1.013v10.034c0 .557-.456 1.013-1.013 1.013z" fill="#252321"/>
  <path fill="#201d1c" d="M131.129 265.272h4.557v12.061h-4.557z"/>
  <path d="M137.203 277.332h-1.518a1.016 1.016 0 0 1-1.013-1.013v-10.034c0-.557.456-1.013 1.013-1.013h1.518c.557 0 1.013.456 1.013 1.013v10.034c0 .557-.456 1.013-1.013 1.013z" fill="#252321"/>
  <path fill="#201d1c" d="M131.129 277.897h4.557v12.061h-4.557z"/>
  <path d="M137.203 289.958h-1.518a1.016 1.016 0 0 1-1.013-1.013V278.91c0-.557.456-1.013 1.013-1.013h1.518c.557 0 1.013.456 1.013 1.013v10.034c0 .558-.456 1.014-1.013 1.014z" fill="#252321"/>
  <path d="M142.607 24.863l-9.778-.512a.314.314 0 0 1-.295-.31v-9.778c0-.163.132-.288.295-.279l9.778.513a.313.313 0 0 1 .294.31v9.779c0 .16-.131.285-.294.277z" fill="#202224"/>
  <path d="M142.607 24.863l.003-.05-9.778-.512a.265.265 0 0 1-.248-.26v-9.778c0-.131.1-.229.23-.23h.011l9.78.513a.263.263 0 0 1 .247.26v9.779c0 .13-.1.229-.228.229h-.014l-.003.049-.002.05h.018a.327.327 0 0 0 .328-.329v-9.779a.365.365 0 0 0-.342-.36l-9.778-.513-.003.05.004-.05-.019-.001a.328.328 0 0 0-.33.33v9.778c.001.19.152.349.342.36l9.778.512.004-.048z" fill="#1c1c1c"/>
  <path d="M138.357 20.981l-.006.125.239.012h.019a.351.351 0 0 0 .352-.352V18.23a.38.38 0 0 0-.358-.377l-.239-.012-.006.125.009-.125-.022-.001a.351.351 0 0 0-.351.353v2.536a.381.381 0 0 0 .358.377l.005-.125.007-.125-.122-.128v-2.536l.101-.103h.005l.241.012.121.128v2.536l-.102.102h-.007l-.238-.012-.006.126zM137.577 20.863l.125-.001-.027-2.859a.31.31 0 0 0-.307-.305l-.169.056-.003.002-1.641 1.368.003.325v.053l1.661 1.569.002.002.196.074a.285.285 0 0 0 .283-.285h-.248l-.033.035-.034-.014-.081.095.086-.091-1.581-1.494-.001-.154 1.548-1.291-.08-.096.075.1.019-.006.057.057.027 2.859.123.001z" fill="#849dca"/>
  <path d="M119.46 6.447l.417.039v1.17l-.417-.039c-.208-.745-1.241-.949-1.889-1.009-.567-.053-.991.066-.991.371 0 .353.798.437 1.442.589.83.196 2.042.288 2.042 1.438 0 .908-1.138 1.111-1.85 1.046-1.275-.115-1.671-.542-1.962-.569-.081-.007-.123.072-.123.238l-.417-.039V8.37l.417.039c.156.806 1.304 1.085 1.788 1.13.343.032 1.225.042 1.225-.39 0-.409-.566-.44-1.254-.608-.753-.184-2.24-.347-2.24-1.41 0-.82.866-1.132 1.839-1.042 1.129.104 1.688.545 1.855.561.079.007.118-.066.118-.203zM131.037 11.027l-.672-.063-2.684-2.684v1.811c0 .121.057.187.172.198l.491.045v.442l-2.007-.186v-.442l.491.045c.114.011.172-.044.172-.166V7.811c0-.121-.058-.187-.172-.198l-.491-.045v-.442l1.683.156 2.336 2.334V8.123c0-.122-.058-.187-.172-.198l-.491-.045v-.443l2.007.186v.442l-.491-.045c-.114-.01-.172.045-.172.167v2.84zM135.395 7.966l1.973.183v.442l-.388-.036a.488.488 0 0 0-.412.144l-1.32 1.371v.723c0 .122.057.188.172.198l.491.045v.442l-2.38-.221v-.442l.491.045c.114.011.172-.045.172-.166v-.676l-1.354-1.666a.593.593 0 0 0-.412-.22l-.388-.036v-.441l2.424.225v.442l-.24-.022-.113.054.02.119.8.979.8-.831.02-.115-.113-.076-.241-.022v-.442zM123.374 6.635c-1.529-.142-2.542.599-2.542 1.712s1.013 2.042 2.542 2.184c1.529.142 2.542-.599 2.542-1.712s-1.013-2.042-2.542-2.184zm0 .52c.877.082 1.458.747 1.458 1.564 0 .816-.581 1.375-1.458 1.293-.877-.082-1.458-.747-1.458-1.564 0-.816.581-1.375 1.458-1.293z" fill="#8d8e8a"/>
  <linearGradient id="y" gradientUnits="userSpaceOnUse" x1="-146.008" y1="690.833" x2="-145.008" y2="690.833" gradientTransform="matrix(2.4427 0 0 -2.4427 466.51 1690.243)">
    <stop offset="0" stop-color="#232323"/>
    <stop offset="1" stop-color="#131010"/>
  </linearGradient>
  <path fill="url(#y)" d="M112.305 1.229v3.077l-2.443-.213V2.104z"/>
  <linearGradient id="z" gradientUnits="userSpaceOnUse" x1="-146.008" y1="690.833" x2="-145.008" y2="690.833" gradientTransform="matrix(2.3502 0 0 -2.3502 460.103 1627)">
    <stop offset="0" stop-color="#232323"/>
    <stop offset="1" stop-color="#131010"/>
  </linearGradient>
  <path fill="url(#z)" d="M119.305 1.88l-2.35.887V4.71l2.35.204z"/>
  <linearGradient id="A" gradientUnits="userSpaceOnUse" x1="-146.008" y1="690.833" x2="-145.008" y2="690.833" gradientTransform="matrix(2.4395 0 0 -2.4395 480.23 1689.329)">
    <stop offset="0" stop-color="#232323"/>
    <stop offset="1" stop-color="#131010"/>
  </linearGradient>
  <path fill="url(#A)" d="M126.481 2.515l-2.439.693v2.118l2.439.213z"/>
  <linearGradient id="B" gradientUnits="userSpaceOnUse" x1="-146.008" y1="690.833" x2="-145.008" y2="690.833" gradientTransform="matrix(2.3502 0 0 -2.3502 474.278 1628.237)">
    <stop offset="0" stop-color="#232323"/>
    <stop offset="1" stop-color="#131010"/>
  </linearGradient>
  <path fill="url(#B)" d="M131.129 3.845l2.35-.725v3.027l-2.35-.204z"/>
  <linearGradient id="C" gradientUnits="userSpaceOnUse" x1="-146.008" y1="690.833" x2="-145.008" y2="690.833" gradientTransform="matrix(2.2915 0 0 -2.2915 472.789 1588.295)">
    <stop offset="0" stop-color="#232323"/>
    <stop offset="1" stop-color="#131010"/>
  </linearGradient>
  <path fill="url(#C)" d="M140.508 6.822l-2.292-.262V4.374l2.292-.655z"/>
  <path d="M135.788 199.115a.656.656 0 1 0 1.313 0 .656.656 0 0 0-1.313 0z" fill="#120e0d"/>
  <circle cx="136.444" cy="203.405" r=".656" fill="#120e0d"/>
  <circle cx="136.444" cy="207.696" r=".656" fill="#120e0d"/>
  <circle cx="136.444" cy="211.678" r=".656" fill="#120e0d"/>
  <circle cx="136.444" cy="215.969" r=".656" fill="#120e0d"/>
  <circle cx="136.444" cy="220.259" r=".656" fill="#120e0d"/>
  <circle cx="136.444" cy="224.304" r=".656" fill="#120e0d"/>
  <circle cx="136.444" cy="228.594" r=".656" fill="#120e0d"/>
  <circle cx="136.444" cy="232.885" r=".656" fill="#120e0d"/>
  <circle cx="136.444" cy="254.448" r=".656" fill="#120e0d"/>
  <circle cx="136.444" cy="258.739" r=".656" fill="#120e0d"/>
  <circle cx="136.444" cy="263.029" r=".656" fill="#120e0d"/>
  <circle cx="136.444" cy="267.012" r=".656" fill="#120e0d"/>
  <path d="M135.788 271.302a.656.656 0 1 0 1.313 0 .656.656 0 0 0-1.313 0z" fill="#120e0d"/>
  <circle cx="136.444" cy="275.593" r=".656" fill="#120e0d"/>
  <circle cx="136.444" cy="279.637" r=".656" fill="#120e0d"/>
  <circle cx="136.444" cy="283.928" r=".656" fill="#120e0d"/>
  <circle cx="136.444" cy="288.218" r=".656" fill="#120e0d"/>
  <ellipse transform="rotate(-46.251 113.18 13.785)" cx="113.18" cy="13.788" rx=".534" ry=".583" fill="#59ae7d"/>
  <ellipse transform="rotate(-46.251 141.231 16.164)" cx="141.231" cy="16.168" rx=".534" ry=".583" fill="#6da5d4"/>
</svg>
