<?xml version="1.0"?>
<svg xmlns="http://www.w3.org/2000/svg" viewBox="0 0 149.621 241.356">
  <linearGradient id="a" gradientUnits="userSpaceOnUse" x1="-46.367" y1="195.988" x2="-45.367" y2="195.988" gradientTransform="rotate(180 -1761.089 7771.256) scale(78.6875)">
    <stop offset="0" stop-color="#1a1a1a"/>
    <stop offset=".541" stop-color="#25272c"/>
    <stop offset="1" stop-color="#30353e"/>
  </linearGradient>
  <path d="M51.584 132.072v-23.477a23.957 23.957 0 0 1-3.912-1.379v26.234a24.047 24.047 0 0 1 3.912-1.378m74.775 39.81v-43.128a1.575 1.575 0 0 1-.75-1.344v-14.312c0-.564.303-1.04.75-1.313V69.452a38.055 38.055 0 0 1-6.291 7.461v87.507a38.061 38.061 0 0 1 6.291 7.462" fill="url(#a)"/>
  <linearGradient id="b" gradientUnits="userSpaceOnUse" x1="-46.367" y1="195.988" x2="-45.367" y2="195.988" gradientTransform="rotate(180 -1527.687 6771.406) scale(68.4843)">
    <stop offset="0" stop-color="#282828"/>
    <stop offset="0" stop-color="#282828"/>
    <stop offset="0" stop-color="#282828"/>
    <stop offset=".004" stop-color="#404649"/>
    <stop offset=".007" stop-color="#525b61"/>
    <stop offset=".01" stop-color="#5c686f"/>
    <stop offset=".013" stop-color="#606c74"/>
    <stop offset=".021" stop-color="#505a63"/>
    <stop offset=".032" stop-color="#424952"/>
    <stop offset=".045" stop-color="#383e47"/>
    <stop offset=".064" stop-color="#323740"/>
    <stop offset=".117" stop-color="#30353e"/>
    <stop offset=".884" stop-color="#1a1a1a"/>
    <stop offset=".937" stop-color="#1b1c1c"/>
    <stop offset=".956" stop-color="#212223"/>
    <stop offset=".97" stop-color="#2a2d2e"/>
    <stop offset=".981" stop-color="#373c3f"/>
    <stop offset=".991" stop-color="#485055"/>
    <stop offset=".999" stop-color="#5d6870"/>
    <stop offset="1" stop-color="#606c74"/>
  </linearGradient>
  <path d="M120.068 164.42V76.913c-6.746 6.183-15.737 9.957-25.608 9.957-4.499 0-8.814-.784-12.818-2.222.006.217.008.436.008.653 0 13.284-10.769 24.052-24.052 24.052a24.09 24.09 0 0 1-6.014-.758v23.477a24.09 24.09 0 0 1 6.014-.758c13.283 0 24.052 10.769 24.052 24.053 0 .44-.008.891-.031 1.326a37.854 37.854 0 0 1 12.841-2.23c9.872 0 18.863 3.774 25.608 9.957" fill="url(#b)"/>
  <radialGradient id="c" cx="-46.367" cy="195.988" r="1" gradientTransform="matrix(-39.0436 -20.8473 12.2791 -22.9967 -4164.975 3575.386)" gradientUnits="userSpaceOnUse">
    <stop offset="0" stop-color="#30353e"/>
    <stop offset="1" stop-color="#1a1a1a"/>
  </radialGradient>
  <path d="M103.872 12.099C73.807 6.609 41.645 3.028 27.532.334 13.007-2.438 0 12.537 0 27.124c0 7.645 3.571 15.184 12.369 20.007 11.236 6.161 24.26 12.806 33.241 17.313a23.936 23.936 0 0 1 11.987-3.195c.332 0 .667.005.996.018a37.87 37.87 0 0 1-2.042-12.306c0-20.936 16.972-37.908 37.908-37.908 3.216 0 6.34.401 9.323 1.155l.09-.109" fill="url(#c)"/>
  <linearGradient id="d" gradientUnits="userSpaceOnUse" x1="-46.367" y1="195.988" x2="-45.367" y2="195.988" gradientTransform="rotate(180 -137.33 992.31) scale(9.1504)">
    <stop offset="0" stop-color="#23262a"/>
    <stop offset="1" stop-color="#606c74"/>
  </linearGradient>
  <path d="M140.471 174.674v33.15l4.271-2.598c2.8-1.704 4.879-6.132 4.879-13.978s-2.079-12.273-4.879-13.977l-4.271-2.597z" fill="url(#d)"/>
  <linearGradient id="e" gradientUnits="userSpaceOnUse" x1="-46.367" y1="195.988" x2="-45.367" y2="195.988" gradientTransform="rotate(180 -137.33 921.134) scale(9.1504)">
    <stop offset="0" stop-color="#23262a"/>
    <stop offset="1" stop-color="#606c74"/>
  </linearGradient>
  <path d="M140.471 32.321v33.15l4.271-2.598c2.8-1.703 4.879-6.131 4.879-13.977s-2.079-12.273-4.879-13.977l-4.271-2.598z" fill="url(#e)"/>
  <radialGradient id="f" cx="-46.367" cy="195.988" r="1" gradientTransform="rotate(90 1351.684 2211.998) scale(17.4997)" gradientUnits="userSpaceOnUse">
    <stop offset="0" stop-color="#30353e"/>
    <stop offset=".459" stop-color="#25272c"/>
    <stop offset="1" stop-color="#1a1a1a"/>
  </radialGradient>
  <path d="M120.602 69.746c10.98-1.699 16.47-2.483 20.522-3.268 4.053-.785 6.144-7.712 6.144-17.582 0-9.869-2.091-16.797-6.144-17.582-4.052-.784-9.542-1.569-20.522-3.268" fill="url(#f)"/>
  <radialGradient id="g" cx="-46.367" cy="195.988" r="1" gradientTransform="rotate(90 1280.508 2283.175) scale(17.4997)" gradientUnits="userSpaceOnUse">
    <stop offset="0" stop-color="#30353e"/>
    <stop offset=".459" stop-color="#25272c"/>
    <stop offset="1" stop-color="#1a1a1a"/>
  </radialGradient>
  <path d="M120.602 212.099c10.98-1.699 16.47-2.483 20.522-3.268 4.053-.784 6.144-7.713 6.144-17.582s-2.091-16.797-6.144-17.582c-4.052-.784-9.542-1.568-20.522-3.268" fill="url(#g)"/>
  <radialGradient id="h" cx="-46.367" cy="195.988" r="1" gradientTransform="matrix(-32.5903 36.9664 -28.8708 -25.453 4230.167 6762.735)" gradientUnits="userSpaceOnUse">
    <stop offset="0" stop-color="#444d56"/>
    <stop offset=".294" stop-color="#30353e"/>
    <stop offset=".601" stop-color="#23262a"/>
    <stop offset="1" stop-color="#1a1a1a"/>
  </radialGradient>
  <path d="M39.035 85.301c0-10.251 8.311-18.562 18.563-18.562 10.251 0 18.562 8.311 18.562 18.562s-8.311 18.562-18.562 18.562c-10.252 0-18.563-8.31-18.563-18.562m93.334-36.34c0-17.72-12.157-32.6-28.586-36.753a37.993 37.993 0 0 0-9.323-1.155c-20.937 0-37.908 16.972-37.908 37.908 0 4.308.719 8.447 2.042 12.306a25.345 25.345 0 0 0-.996-.018 23.947 23.947 0 0 0-11.987 3.195C38.4 68.597 33.546 76.382 33.546 85.301c0 9.745 5.795 18.136 14.127 21.916a23.99 23.99 0 0 0 9.926 2.137c13.283 0 24.052-10.769 24.052-24.052a23.6 23.6 0 0 0-.008-.653 37.852 37.852 0 0 0 12.818 2.222c9.872 0 18.863-3.774 25.608-9.957a38.084 38.084 0 0 0 6.291-7.461 37.749 37.749 0 0 0 6.009-20.492" fill="url(#h)"/>
  <radialGradient id="i" cx="-46.367" cy="195.988" r="1" gradientTransform="matrix(-39.0457 20.8485 -12.2798 -22.9979 648.18 5680.43)" gradientUnits="userSpaceOnUse">
    <stop offset="0" stop-color="#30353e"/>
    <stop offset="1" stop-color="#1a1a1a"/>
  </radialGradient>
  <path d="M103.872 229.234l-.089-.109a37.993 37.993 0 0 1-9.323 1.155c-20.937 0-37.908-16.973-37.908-37.908 0-4.56.805-8.931 2.28-12.979-.405.02-.824.026-1.234.026a23.927 23.927 0 0 1-11.358-2.846c-8.995 4.509-22.369 11.322-33.87 17.629C3.577 199.022.008 206.575.008 214.234c0 14.626 13.016 29.641 27.525 26.765 13.59-2.693 46.274-6.274 76.339-11.765" fill="url(#i)"/>
  <linearGradient id="j" gradientUnits="userSpaceOnUse" x1="-46.367" y1="195.988" x2="-45.367" y2="195.988" gradientTransform="rotate(180 -107.588 702.498) scale(6.6665)">
    <stop offset="0" stop-color="#444d56"/>
    <stop offset="1" stop-color="#41444b"/>
  </linearGradient>
  <path d="M93.933 94.19v8.497c0 .866-.702 1.568-1.568 1.568h-3.53a1.568 1.568 0 0 1-1.568-1.568V94.19c0-.867.702-1.569 1.568-1.569h3.53a1.57 1.57 0 0 1 1.568 1.569z" fill="url(#j)"/>
  <path d="M93.933 94.19h-.25v8.497a1.32 1.32 0 0 1-1.318 1.318h-3.53a1.32 1.32 0 0 1-1.318-1.318V94.19a1.32 1.32 0 0 1 1.318-1.319h3.53a1.32 1.32 0 0 1 1.318 1.319h.5a1.818 1.818 0 0 0-1.818-1.819h-3.53a1.818 1.818 0 0 0-1.818 1.819v8.497c0 1.004.814 1.818 1.818 1.818h3.53a1.818 1.818 0 0 0 1.818-1.818V94.19h-.25z" fill="#232323"/>
  <linearGradient id="k" gradientUnits="userSpaceOnUse" x1="-46.367" y1="195.988" x2="-45.367" y2="195.988" gradientTransform="rotate(180 -110.312 735.576) scale(6.7853)">
    <stop offset="0" stop-color="#444d56"/>
    <stop offset="1" stop-color="#41444b"/>
  </linearGradient>
  <path d="M90.599 146.347l-3.333-8.496c-.317-.81.7-1.569 1.568-1.569h3.53c.869 0 1.886.76 1.568 1.569l-3.333 8.496z" fill="url(#k)"/>
  <path d="M90.599 146.347l.233-.091-3.333-8.496-.042-.216c-.003-.231.156-.486.428-.687.269-.2.634-.328.95-.326h3.53a1.67 1.67 0 0 1 .95.326c.272.2.431.455.428.687l-.043.216-3.333 8.495.232.092.233-.091-.233.091.233.092 3.333-8.496a1.09 1.09 0 0 0 .077-.398c-.003-.454-.28-.83-.632-1.09a2.173 2.173 0 0 0-1.246-.423h-3.53c-.442.002-.89.162-1.246.423-.352.26-.629.636-.632 1.09 0 .131.025.267.077.397l3.566 9.09.233-.593-.233-.092z" fill="#232323"/>
  <linearGradient id="l" gradientUnits="userSpaceOnUse" x1="-46.367" y1="195.988" x2="-45.367" y2="195.988" gradientTransform="matrix(0 56 -56 0 11070.3 2617.359)">
    <stop offset="0" stop-color="#23262a"/>
    <stop offset=".478" stop-color="#1a1a1a"/>
    <stop offset=".738" stop-color="#1b1c1c"/>
    <stop offset=".832" stop-color="#202123"/>
    <stop offset=".899" stop-color="#282b2e"/>
    <stop offset=".952" stop-color="#343a3f"/>
    <stop offset=".998" stop-color="#434c55"/>
    <stop offset="1" stop-color="#444d56"/>
  </linearGradient>
  <path d="M122.958 41.001a2.782 2.782 0 0 0-2.781-2.781h-14.656V23.533c0-1.536-1.246-2.75-2.781-2.75H87.146c-1.536 0-2.781 1.214-2.781 2.75V38.22H69.708a2.78 2.78 0 0 0-2.781 2.781v15.594c0 1.536 1.245 2.75 2.781 2.75h14.656v14.688c0 1.536 1.246 2.75 2.781 2.75h15.594c1.536 0 2.781-1.214 2.781-2.75V59.345h14.656c1.536 0 2.781-1.214 2.781-2.75V41.001z" fill="url(#l)"/>
  <radialGradient id="m" cx="-46.367" cy="195.988" r="1" gradientTransform="matrix(-34.0373 -35.8679 27.0802 -25.6982 -6802.68 3554.244)" gradientUnits="userSpaceOnUse">
    <stop offset="0" stop-color="#444d56"/>
    <stop offset=".294" stop-color="#30353e"/>
    <stop offset=".601" stop-color="#23262a"/>
    <stop offset="1" stop-color="#1a1a1a"/>
  </radialGradient>
  <path d="M39.035 155.367c0-10.252 8.311-18.563 18.563-18.563 10.251 0 18.562 8.311 18.562 18.563 0 10.251-8.311 18.562-18.562 18.562-10.252 0-18.563-8.311-18.563-18.562m93.334 37.005a37.74 37.74 0 0 0-6.009-20.49 38.061 38.061 0 0 0-6.291-7.462c-6.746-6.183-15.737-9.957-25.608-9.957-4.507 0-8.831.787-12.841 2.23.023-.436.031-.886.031-1.326 0-13.284-10.769-24.053-24.052-24.053a23.957 23.957 0 0 0-9.926 2.137c-8.332 3.779-14.127 12.171-14.127 21.916 0 9.175 5.139 17.151 12.694 21.206a23.942 23.942 0 0 0 11.358 2.846c.41 0 .829-.007 1.234-.026a37.82 37.82 0 0 0-2.28 12.979c0 20.936 16.972 37.908 37.908 37.908 3.216 0 6.341-.401 9.323-1.155 16.429-4.153 28.586-19.033 28.586-36.753" fill="url(#m)"/>
  <linearGradient id="n" gradientUnits="userSpaceOnUse" x1="-46.367" y1="195.988" x2="-45.367" y2="195.988" gradientTransform="translate(283.046 -655.551) scale(3.5938)">
    <stop offset="0" stop-color="#1a1a1a"/>
    <stop offset=".541" stop-color="#25272c"/>
    <stop offset="1" stop-color="#30353e"/>
  </linearGradient>
  <path fill="url(#n)" d="M120.007 48.783l-3.593-3.784v7.567z"/>
  <linearGradient id="o" gradientUnits="userSpaceOnUse" x1="-46.367" y1="195.988" x2="-45.367" y2="195.988" gradientTransform="translate(236.51 -655.551) scale(3.5938)">
    <stop offset="0" stop-color="#1a1a1a"/>
    <stop offset=".541" stop-color="#25272c"/>
    <stop offset="1" stop-color="#30353e"/>
  </linearGradient>
  <path fill="url(#o)" d="M69.878 48.783l3.594-3.784v7.567z"/>
  <linearGradient id="p" gradientUnits="userSpaceOnUse" x1="-46.367" y1="195.988" x2="-45.367" y2="195.988" gradientTransform="translate(442.039 -1411.07) scale(7.5674)">
    <stop offset="0" stop-color="#1a1a1a"/>
    <stop offset=".541" stop-color="#25272c"/>
    <stop offset="1" stop-color="#30353e"/>
  </linearGradient>
  <path fill="url(#p)" d="M94.942 73.847l3.784-3.593h-7.567z"/>
  <linearGradient id="q" gradientUnits="userSpaceOnUse" x1="-46.367" y1="195.988" x2="-45.367" y2="195.988" gradientTransform="translate(442.039 -1457.606) scale(7.5674)">
    <stop offset="0" stop-color="#1a1a1a"/>
    <stop offset=".541" stop-color="#25272c"/>
    <stop offset="1" stop-color="#30353e"/>
  </linearGradient>
  <path fill="url(#q)" d="M94.942 23.718l3.784 3.593h-7.567z"/>
  <linearGradient id="r" gradientUnits="userSpaceOnUse" x1="-46.367" y1="195.988" x2="-45.367" y2="195.988" gradientTransform="rotate(180 -211.99 1138.818) scale(11.3125)">
    <stop offset="0" stop-color="#23262a"/>
    <stop offset="1" stop-color="#606c74"/>
  </linearGradient>
  <path d="M100.553 58.102a1.175 1.175 0 0 0-.469-.844l-4.438-3.5a1.18 1.18 0 0 0-1.438 0l-4.469 3.5a1.183 1.183 0 0 0-.469.938l-.031 8.125a1.181 1.181 0 0 0 1.187 1.188h8.781a1.18 1.18 0 0 0 1.188-1.156l.156-8.125v-.126z" fill="url(#r)"/>
  <linearGradient id="s" gradientUnits="userSpaceOnUse" x1="-46.367" y1="195.988" x2="-45.367" y2="195.988" gradientTransform="rotate(180 -211.945 1127.09) scale(11.3125)">
    <stop offset="0" stop-color="#23262a"/>
    <stop offset="1" stop-color="#606c74"/>
  </linearGradient>
  <path d="M100.642 39.463a1.177 1.177 0 0 1-.469.844l-4.438 3.5a1.18 1.18 0 0 1-1.438 0l-4.469-3.5a1.183 1.183 0 0 1-.469-.938l-.031-8.125a1.18 1.18 0 0 1 1.187-1.187h8.781a1.18 1.18 0 0 1 1.188 1.156l.156 8.125v.125z" fill="url(#s)"/>
  <linearGradient id="t" gradientUnits="userSpaceOnUse" x1="-46.367" y1="195.988" x2="-45.367" y2="195.988" gradientTransform="rotate(180 -279.343 1395.765) scale(13.9947)">
    <stop offset="0" stop-color="#23262a"/>
    <stop offset="1" stop-color="#606c74"/>
  </linearGradient>
  <path d="M85.623 54.394a1.18 1.18 0 0 0 .844-.469l3.5-4.438a1.18 1.18 0 0 0 0-1.438l-3.5-4.469a1.18 1.18 0 0 0-.938-.469l-8.125-.031a1.181 1.181 0 0 0-1.187 1.187v8.781a1.18 1.18 0 0 0 1.156 1.188l8.125.156h.125z" fill="url(#t)"/>
  <linearGradient id="u" gradientUnits="userSpaceOnUse" x1="-46.367" y1="195.988" x2="-45.367" y2="195.988" gradientTransform="rotate(180 -267.614 1395.81) scale(13.9947)">
    <stop offset="0" stop-color="#23262a"/>
    <stop offset="1" stop-color="#606c74"/>
  </linearGradient>
  <path d="M104.262 54.482a1.18 1.18 0 0 1-.844-.469l-3.5-4.438a1.18 1.18 0 0 1 0-1.438l3.5-4.469a1.18 1.18 0 0 1 .938-.469l8.125-.031a1.181 1.181 0 0 1 1.187 1.187v8.781a1.18 1.18 0 0 1-1.156 1.188l-8.125.156h-.125z" fill="url(#u)"/>
  <linearGradient id="v" gradientUnits="userSpaceOnUse" x1="-46.367" y1="195.988" x2="-45.367" y2="195.988" gradientTransform="rotate(180 -106.471 776.305) scale(7.6719)">
    <stop offset="0" stop-color="#30353e"/>
    <stop offset=".378" stop-color="#3f474f"/>
    <stop offset="1" stop-color="#606c74"/>
  </linearGradient>
  <path fill="url(#v)" d="M142.783 46.623v1.038h-6.798v3.736h-.874v-4.774h7.672"/>
  <linearGradient id="w" gradientUnits="userSpaceOnUse" x1="-46.367" y1="195.988" x2="-45.367" y2="195.988" gradientTransform="rotate(180 -106.471 848.064) scale(7.6719)">
    <stop offset="0" stop-color="#30353e"/>
    <stop offset=".378" stop-color="#3f474f"/>
    <stop offset="1" stop-color="#606c74"/>
  </linearGradient>
  <path d="M138.708 193.179c-.076.223-.237.438-.483.647-.247.212-.585.425-1.017.637l-2.097 1.054v-1.115l1.968-.981c.514-.254.855-.5 1.023-.74.167-.236.251-.56.251-.971v-1.131h-3.242v-1.038h7.672v2.344c0 .877-.183 1.531-.55 1.963s-.92.647-1.66.647c-.483 0-.884-.113-1.203-.34-.317-.223-.538-.549-.662-.976m3.222-2.601h-2.724v1.306c0 .5.115.877.344 1.13.233.257.574.386 1.023.386s.786-.129 1.012-.386c.229-.253.344-.63.344-1.13v-1.306" fill="url(#w)"/>
  <linearGradient id="x" gradientUnits="userSpaceOnUse" x1="-42.313" y1="195.988" x2="-41.313" y2="195.988" gradientTransform="rotate(180 -30.147 387.935) scale(3.4531)">
    <stop offset="0" stop-color="#9ba2a6"/>
    <stop offset=".311" stop-color="#adb2b5"/>
    <stop offset=".93" stop-color="#dadbdb"/>
    <stop offset="1" stop-color="#e0e0e0"/>
  </linearGradient>
  <path d="M85.649 92.785h-.439a2.74 2.74 0 0 0 .183-.484c.04-.151.06-.298.06-.439 0-.245-.048-.435-.143-.568a.47.47 0 0 0-.406-.199c-.147 0-.259.044-.334.132-.074.089-.135.257-.181.504l-.056.272c-.064.335-.177.583-.339.742-.161.161-.376.241-.646.241-.323 0-.567-.108-.733-.326-.167-.215-.25-.532-.25-.95 0-.157.018-.325.053-.503.036-.177.088-.36.158-.551h.464c-.103.183-.18.362-.232.537a1.812 1.812 0 0 0-.078.517c0 .257.051.456.152.596a.5.5 0 0 0 .432.209.493.493 0 0 0 .384-.152c.092-.1.161-.264.207-.493l.054-.274c.067-.336.171-.579.314-.729.143-.15.341-.225.595-.225.294 0 .526.103.695.31.169.208.254.494.254.858 0 .156-.014.315-.042.477s-.069.328-.126.498m.109.902v2.104h-.379v-1.654h-.985v1.585h-.379v-1.585h-1.206v1.694h-.379v-2.145h3.328m0 2.891v.45h-2.949v1.621h-.379v-2.071h3.328m0 2.541v2.104h-.379v-1.654h-.985v1.585h-.379v-1.585h-1.206v1.694h-.379v-2.145h3.328m-.256 5.382h-.475a1.56 1.56 0 0 0 .316-.486c.07-.171.105-.353.105-.546 0-.38-.117-.672-.35-.874-.232-.202-.568-.303-1.008-.303-.438 0-.774.101-1.007.303-.232.202-.348.493-.348.874 0 .193.035.375.105.546.07.172.175.334.316.486h-.47a1.835 1.835 0 0 1-.321-1.059c0-.503.154-.9.461-1.19.309-.29.73-.435 1.264-.435.535 0 .957.145 1.264.435.309.29.464.687.464 1.19a1.9 1.9 0 0 1-.316 1.059m.256.239v2.815h-.379v-1.182H82.43v-.453h2.949v-1.181h.379" fill="url(#x)"/>
  <linearGradient id="y" gradientUnits="userSpaceOnUse" x1="-42.313" y1="195.988" x2="-41.313" y2="195.988" gradientTransform="rotate(180 -30.147 408.598) scale(3.4531)">
    <stop offset="0" stop-color="#9ba2a6"/>
    <stop offset=".311" stop-color="#adb2b5"/>
    <stop offset=".93" stop-color="#dadbdb"/>
    <stop offset="1" stop-color="#e0e0e0"/>
  </linearGradient>
  <path d="M85.649 135.666h-.439c.082-.171.143-.332.183-.483.04-.151.06-.298.06-.439 0-.245-.048-.435-.143-.568a.47.47 0 0 0-.406-.198c-.147 0-.259.044-.334.132-.074.089-.135.257-.181.504l-.056.271c-.064.336-.177.584-.339.742-.161.161-.376.241-.646.241-.323 0-.567-.108-.733-.325-.167-.216-.25-.532-.25-.95 0-.157.018-.325.053-.504.036-.177.088-.36.158-.551h.464c-.103.184-.18.362-.232.538a1.812 1.812 0 0 0-.078.517c0 .257.051.456.152.596a.5.5 0 0 0 .432.209c.164 0 .292-.05.384-.151.092-.1.161-.264.207-.492l.054-.274c.067-.336.171-.579.314-.729.143-.149.341-.225.595-.225.294 0 .526.103.695.31.169.208.254.494.254.858 0 .156-.014.315-.042.477a3.26 3.26 0 0 1-.126.494m.109.441v2.816h-.379v-1.182H82.43v-.453h2.949v-1.182h.379m-.443 4.01l-1.656-.611v1.225l1.656-.614m.443-.254v.51l-3.328 1.269v-.468l.854-.304v-1.5l-.854-.303v-.476l3.328 1.272m-1.767 3.841a.665.665 0 0 1-.209.281 2.114 2.114 0 0 1-.441.276l-.91.457v-.484l.854-.426c.223-.109.371-.217.443-.321.073-.103.109-.242.109-.421v-.49H82.43v-.45h3.328v1.017c0 .38-.08.664-.238.852-.159.187-.399.28-.72.28a.885.885 0 0 1-.521-.146.75.75 0 0 1-.288-.425m1.397-1.128h-1.181v.566c0 .217.05.38.149.49.101.111.249.167.443.167s.341-.056.439-.167c.099-.11.149-.273.149-.49v-.566m.371 1.933v2.815h-.379v-1.182H82.43v-.452h2.949v-1.182h.379" fill="url(#y)"/>
  <linearGradient id="z" gradientUnits="userSpaceOnUse" x1="-46.367" y1="195.988" x2="-45.367" y2="195.988" gradientTransform="rotate(180 -82.83 677.45) scale(6.2974)">
    <stop offset="0" stop-color="#1a1a1a"/>
    <stop offset=".541" stop-color="#25272c"/>
    <stop offset="1" stop-color="#30353e"/>
  </linearGradient>
  <path d="M126.332 69.466l-.007 42.345c-.447.272-.75.748-.75 1.313v14.312c0 .565.301 1.071.75 1.344v43.13c-1.77-2.752-3.889-5.318-6.291-7.521V76.936h.001a38.047 38.047 0 0 0 6.297-7.47z" fill="url(#z)"/>
  <linearGradient id="A" gradientUnits="userSpaceOnUse" x1="-46.367" y1="195.988" x2="-45.367" y2="195.988" gradientTransform="rotate(180 -1237.775 5586.927) scale(56.0313)">
    <stop offset="0" stop-color="#23262a"/>
    <stop offset=".478" stop-color="#1a1a1a"/>
    <stop offset=".738" stop-color="#1b1c1c"/>
    <stop offset=".832" stop-color="#202123"/>
    <stop offset=".899" stop-color="#282b2e"/>
    <stop offset=".952" stop-color="#343a3f"/>
    <stop offset=".998" stop-color="#434c55"/>
    <stop offset="1" stop-color="#444d56"/>
  </linearGradient>
  <path d="M122.476 184.591a2.78 2.78 0 0 0-2.781-2.781h-14.656v-14.688c0-1.536-1.245-2.75-2.781-2.75H86.663c-1.536 0-2.781 1.214-2.781 2.75v14.688H69.226a2.782 2.782 0 0 0-2.781 2.781v15.594c0 1.535 1.246 2.75 2.781 2.75h14.656v14.688c0 1.535 1.246 2.75 2.781 2.75h15.594c1.536 0 2.781-1.215 2.781-2.75v-14.688h14.656c1.536 0 2.781-1.215 2.781-2.75v-15.594z" fill="url(#A)"/>
  <linearGradient id="B" gradientUnits="userSpaceOnUse" x1="-46.367" y1="195.988" x2="-45.367" y2="195.988" gradientTransform="rotate(180 -322.05 1711.8) scale(16.4868)">
    <stop offset="0" stop-color="#23262a"/>
    <stop offset="1" stop-color="#606c74"/>
  </linearGradient>
  <path d="M112.107 200.607c-4.548.004-8.239-3.68-8.244-8.228s3.679-8.239 8.227-8.243h.017a8.236 8.236 0 0 1 .016 16.471h-.016z" fill="url(#B)"/>
  <linearGradient id="C" gradientUnits="userSpaceOnUse" x1="-46.367" y1="195.988" x2="-45.367" y2="195.988" gradientTransform="rotate(180 -339.752 1711.752) scale(16.4863)">
    <stop offset="0" stop-color="#23262a"/>
    <stop offset="1" stop-color="#606c74"/>
  </linearGradient>
  <path d="M76.683 200.607a8.235 8.235 0 0 1-8.243-8.228 8.234 8.234 0 0 1 8.227-8.243h.017a8.236 8.236 0 0 1 .016 16.471h-.017z" fill="url(#C)"/>
  <linearGradient id="D" gradientUnits="userSpaceOnUse" x1="-46.367" y1="195.988" x2="-45.367" y2="195.988" gradientTransform="rotate(180 -330.907 1720.656) scale(16.4868)">
    <stop offset="0" stop-color="#23262a"/>
    <stop offset="1" stop-color="#606c74"/>
  </linearGradient>
  <path d="M94.395 201.849a8.235 8.235 0 0 1 8.243 8.228 8.235 8.235 0 0 1-8.227 8.243h-.016a8.236 8.236 0 0 1-.016-16.471h.016z" fill="url(#D)"/>
  <linearGradient id="E" gradientUnits="userSpaceOnUse" x1="-46.367" y1="195.988" x2="-45.367" y2="195.988" gradientTransform="rotate(180 -330.907 1702.944) scale(16.4868)">
    <stop offset="0" stop-color="#23262a"/>
    <stop offset="1" stop-color="#606c74"/>
  </linearGradient>
  <path d="M94.395 166.424a8.236 8.236 0 0 1 .016 16.471h-.016a8.236 8.236 0 1 1-.016-16.471h.016z" fill="url(#E)"/>
  <path fill="#e295dd" d="M99.109 169.945h-.5v8.928h-8.428v-8.428h8.928v-.5h-.5.5v-.5h-9.928v10.428h10.428v-10.428h-.5z"/>
  <path fill="#3dd3c8" d="M108.771 197.62h.5v-9.63l7.577 4.382-8.327 4.815.25.433h.5-.5l.25.433 9.824-5.681-10.574-6.116v12.23l.75-.433z"/>
  <path d="M94.395 204.436l.004.5h.001a5.147 5.147 0 0 1 5.147 5.142v.006a5.145 5.145 0 0 1-5.142 5.147h-.015a5.146 5.146 0 0 1-5.147-5.142v-.006a5.146 5.146 0 0 1 5.142-5.147h.015l-.005-.5v-.5h-.011a6.148 6.148 0 0 0-6.141 6.147v.006a6.147 6.147 0 0 0 6.147 6.142h.016a6.148 6.148 0 0 0 6.141-6.147v-.008.002a6.146 6.146 0 0 0-6.147-6.142h-.01.004v.5z" fill="#f36070"/>
  <linearGradient id="F" gradientUnits="userSpaceOnUse" x1="-46.367" y1="195.988" x2="-45.367" y2="195.988" gradientTransform="rotate(180 -102.327 725.775) scale(6.8731)">
    <stop offset="0" stop-color="#9ba2a6"/>
    <stop offset=".311" stop-color="#adb2b5"/>
    <stop offset=".93" stop-color="#dadbdb"/>
    <stop offset="1" stop-color="#e0e0e0"/>
  </linearGradient>
  <path d="M113.725 107.507v.78h-2.063v-.78c1.279-.388 1.471-2.322 1.471-3.534 0-1.061-.279-1.853-.817-1.853-.622 0-.64 1.492-.803 2.698-.21 1.553-.174 3.817-2.204 3.817-1.602 0-2.145-2.127-2.148-3.459-.005-2.384.682-3.125.682-3.67 0-.151-.146-.229-.438-.229v-.78h2.315v.78c-1.396.293-1.7 2.439-1.7 3.344 0 .642.126 2.291.888 2.291.722 0 .685-1.058.868-2.344.202-1.41.246-4.189 2.12-4.189 1.446 0 2.138 1.62 2.138 3.438 0 2.112-.686 3.156-.686 3.47-.001.147.135.22.377.22z" fill="url(#F)"/>
  <linearGradient id="G" gradientUnits="userSpaceOnUse" x1="-46.367" y1="195.988" x2="-45.367" y2="195.988" gradientTransform="rotate(180 -84.857 661.566) scale(6.1113)">
    <stop offset="0" stop-color="#9ba2a6"/>
    <stop offset=".311" stop-color="#adb2b5"/>
    <stop offset=".93" stop-color="#dadbdb"/>
    <stop offset="1" stop-color="#e0e0e0"/>
  </linearGradient>
  <path d="M107.541 129.159v-1.258l4.294-5.02h-3.193c-.214 0-.321.107-.321.321v.918h-.78v-3.753h.78v.918c0 .214.107.321.321.321h3.909c.214 0 .321-.107.321-.321v-.918h.78v3.148l-3.734 4.367h2.633c.214 0 .321-.106.321-.32v-.918h.78v3.753h-.78v-.917c0-.215-.107-.321-.321-.321h-5.01z" fill="url(#G)"/>
  <linearGradient id="H" gradientUnits="userSpaceOnUse" x1="-46.367" y1="195.988" x2="-45.367" y2="195.988" gradientTransform="rotate(180 -84.857 666.882) scale(6.1113)">
    <stop offset="0" stop-color="#9ba2a6"/>
    <stop offset=".311" stop-color="#adb2b5"/>
    <stop offset=".93" stop-color="#dadbdb"/>
    <stop offset="1" stop-color="#e0e0e0"/>
  </linearGradient>
  <path d="M113.652 137.309v3.688h-.78v-.725c0-.306-.107-.563-.321-.771l-2.633-2.469h-1.276c-.214 0-.321.106-.321.321v.917h-.78v-4.45h.78v.918c0 .214.107.321.321.321h1.193l2.716-2.533c.214-.208.321-.465.321-.771v-.725h.78v4.532h-.78v-.449c0-.11-.038-.181-.115-.211l-.207.036-1.596 1.496 1.596 1.496.207.036c.077-.03.115-.101.115-.211v-.449h.78z" fill="url(#H)"/>
  <linearGradient id="I" gradientUnits="userSpaceOnUse" x1="-46.367" y1="195.988" x2="-45.367" y2="195.988" gradientTransform="rotate(180 -102.326 730.932) scale(6.873)">
    <stop offset="0" stop-color="#9ba2a6"/>
    <stop offset=".311" stop-color="#adb2b5"/>
    <stop offset=".93" stop-color="#dadbdb"/>
    <stop offset="1" stop-color="#e0e0e0"/>
  </linearGradient>
  <path d="M114.033 114.826c0-2.86-1.472-4.754-3.437-4.754s-3.437 1.894-3.437 4.754 1.472 4.754 3.437 4.754 3.437-1.894 3.437-4.754zm-.917 0c0 1.64-1.08 2.726-2.52 2.726s-2.52-1.086-2.52-2.726 1.08-2.727 2.52-2.727 2.52 1.087 2.52 2.727z" fill="url(#I)"/>
  <path d="M71.921 188.547l8.503 8.504.707-.707-8.503-8.504-.707.707zm.707 8.504l8.503-8.504-.707-.707-8.503 8.504.707.707z" fill="#94b8f2"/>
  <path d="M76.16 85.301c0 10.251-8.311 18.562-18.562 18.562-10.252 0-18.563-8.311-18.563-18.562s8.311-18.563 18.563-18.563c10.251.001 18.562 8.312 18.562 18.563zM76.16 155.367c0 10.251-8.311 18.562-18.562 18.562-10.252 0-18.563-8.311-18.563-18.563 0-10.251 8.311-18.562 18.563-18.562 10.251.001 18.562 8.311 18.562 18.563z" fill="#1b1b1c"/>
  <radialGradient id="J" cx="-46.367" cy="195.988" r="1" gradientTransform="rotate(90 1198.76 2035.636) scale(16.2091)" gradientUnits="userSpaceOnUse">
    <stop offset="0" stop-color="#23262a"/>
    <stop offset=".405" stop-color="#25292d"/>
    <stop offset=".754" stop-color="#2c3038"/>
    <stop offset=".883" stop-color="#30353e"/>
    <stop offset=".926" stop-color="#444d56"/>
    <stop offset=".929" stop-color="#414952"/>
    <stop offset=".94" stop-color="#373e47"/>
    <stop offset=".956" stop-color="#323740"/>
    <stop offset="1" stop-color="#30353e"/>
  </radialGradient>
  <path d="M57.598 101.511c-8.952 0-16.209-7.257-16.209-16.209s7.257-16.209 16.209-16.209 16.209 7.257 16.209 16.209-7.257 16.209-16.209 16.209z" fill="url(#J)"/>
  <radialGradient id="K" cx="-46.367" cy="195.988" r="1" gradientTransform="rotate(90 1163.737 2070.684) scale(16.2092)" gradientUnits="userSpaceOnUse">
    <stop offset="0" stop-color="#23262a"/>
    <stop offset=".405" stop-color="#25292d"/>
    <stop offset=".754" stop-color="#2c3038"/>
    <stop offset=".883" stop-color="#30353e"/>
    <stop offset=".926" stop-color="#444d56"/>
    <stop offset=".929" stop-color="#414952"/>
    <stop offset=".94" stop-color="#373e47"/>
    <stop offset=".956" stop-color="#323740"/>
    <stop offset="1" stop-color="#30353e"/>
  </radialGradient>
  <path d="M57.598 171.576c-8.952 0-16.209-7.258-16.209-16.209 0-8.952 7.257-16.21 16.209-16.21s16.209 7.258 16.209 16.21c0 8.951-7.257 16.209-16.209 16.209z" fill="url(#K)"/>
  <linearGradient id="L" gradientUnits="userSpaceOnUse" x1="-43.147" y1="192.651" x2="-42.147" y2="192.651" gradientTransform="rotate(180 -107.588 702.498) scale(6.6665)">
    <stop offset="0" stop-color="#444d56"/>
    <stop offset="1" stop-color="#41444b"/>
  </linearGradient>
  <path d="M72.465 116.44v8.497c0 .866-.702 1.568-1.568 1.568h-3.53a1.568 1.568 0 0 1-1.568-1.568v-8.497c0-.867.702-1.569 1.568-1.569h3.53c.866 0 1.568.702 1.568 1.569z" fill="url(#L)"/>
  <path d="M72.465 116.44h-.25v8.497a1.32 1.32 0 0 1-1.318 1.318h-3.53a1.32 1.32 0 0 1-1.318-1.318v-8.497a1.32 1.32 0 0 1 1.318-1.319h3.53a1.32 1.32 0 0 1 1.318 1.319h.5a1.818 1.818 0 0 0-1.818-1.819h-3.53a1.818 1.818 0 0 0-1.818 1.819v8.497c0 1.004.814 1.818 1.818 1.818h3.53a1.818 1.818 0 0 0 1.818-1.818v-8.497h-.25z" fill="#232323"/>
  <linearGradient id="M" gradientUnits="userSpaceOnUse" x1="74.811" y1="93.482" x2="74.811" y2="101.491" gradientTransform="rotate(90 74.81 120.678)">
    <stop offset="0" stop-color="#9ba2a6"/>
    <stop offset=".311" stop-color="#adb2b5"/>
    <stop offset=".93" stop-color="#dadbdb"/>
    <stop offset="1" stop-color="#e0e0e0"/>
  </linearGradient>
  <path d="M95.624 119.038h.269l-.147-.404-.122.404zm6.382.33h-7.471l-.538 1.687h6.273c.293 0 .489.135.416.342-.073.281-.342.33-.636.33h-2.507c-.514 1.052 0 1.883 1.345 1.883 1.382 0 1.993-.489 2.482-1.92.257-.757.465-1.539.636-2.322zm-5.49-.33h.709l.122-.416s-.66-1.859-.709-1.993c-.049-.135-.134-.355-.134-.355l-.465 1.443.477 1.321zm.012 2.335h-.819l.452 1.259.367-1.259zm-1.43 0h-.232l-.355 1.1a642.456 642.456 0 0 0 .929 2.604l.452-1.492-.794-2.212zm-.978 0l.391 1.1.355-1.1h-.746zm1.626-2.739l-.135-.367c-.11-.293-.183-.844-.049-1.125.122-.269.293.049.342.22l.135.367.465-1.455c-.159-.391-.404-.795-.673-.783-.269.012-.489.232-.697.978a5.827 5.827 0 0 0-.122 2.556h.611l.123-.391zm1.748.404l-.147-.416-.122.416h.269zm-1.32 6.823c.269-.037.477-.404.636-.905a5.383 5.383 0 0 0 .257-1.81 5.544 5.544 0 0 0-.33-1.785h-.196l-.367 1.259.208.562c.049.122.073.257.086.379.012.171.012.342-.012.514 0 .049-.049.22-.134.257-.086.037-.183-.122-.245-.269-.061-.147-.183-.514-.183-.514l-.44 1.492c.096.343.365.869.72.82z" fill="url(#M)"/>
  <g>
    <linearGradient id="N" gradientUnits="userSpaceOnUse" x1="63.83" y1="103.271" x2="63.83" y2="106.869" gradientTransform="rotate(90 74.81 120.678)">
      <stop offset="0" stop-color="#9ba2a6"/>
      <stop offset=".311" stop-color="#adb2b5"/>
      <stop offset=".93" stop-color="#dadbdb"/>
      <stop offset="1" stop-color="#e0e0e0"/>
    </linearGradient>
    <path d="M92.203 108.568h-3.584v.526h3.233v.584s.068.584-.662.584c0 0-.808.049-.828-.331v-.458h-.331v.467s-.049.643.497.799c0 0 .74.224 1.344-.049 0 0 .39-.136.341-.799l-.01-1.323z" fill="url(#N)"/>
    <linearGradient id="O" gradientUnits="userSpaceOnUse" x1="65.695" y1="103.285" x2="65.695" y2="106.85" gradientTransform="rotate(90 74.81 120.678)">
      <stop offset="0" stop-color="#9ba2a6"/>
      <stop offset=".311" stop-color="#adb2b5"/>
      <stop offset=".93" stop-color="#dadbdb"/>
      <stop offset="1" stop-color="#e0e0e0"/>
    </linearGradient>
    <path fill="url(#O)" d="M92.203 111.295v.535h-3.564v-.535z"/>
    <linearGradient id="P" gradientUnits="userSpaceOnUse" x1="80.829" y1="104.074" x2="80.829" y2="106.85" gradientTransform="rotate(90 74.81 120.678)">
      <stop offset="0" stop-color="#9ba2a6"/>
      <stop offset=".311" stop-color="#adb2b5"/>
      <stop offset=".93" stop-color="#dadbdb"/>
      <stop offset="1" stop-color="#e0e0e0"/>
    </linearGradient>
    <path fill="url(#P)" d="M91.414 126.428v.536h-2.775v-.536z"/>
    <linearGradient id="Q" gradientUnits="userSpaceOnUse" x1="80.829" y1="103.285" x2="80.829" y2="103.753" gradientTransform="rotate(90 74.81 120.678)">
      <stop offset="0" stop-color="#9ba2a6"/>
      <stop offset=".311" stop-color="#adb2b5"/>
      <stop offset=".93" stop-color="#dadbdb"/>
      <stop offset="1" stop-color="#e0e0e0"/>
    </linearGradient>
    <path fill="url(#Q)" d="M92.203 126.428v.536h-.467v-.536z"/>
    <linearGradient id="R" gradientUnits="userSpaceOnUse" x1="67.6" y1="104.062" x2="67.6" y2="106.864" gradientTransform="rotate(90 74.81 120.678)">
      <stop offset="0" stop-color="#9ba2a6"/>
      <stop offset=".311" stop-color="#adb2b5"/>
      <stop offset=".93" stop-color="#dadbdb"/>
      <stop offset="1" stop-color="#e0e0e0"/>
    </linearGradient>
    <path d="M91.054 112.736h.37v.799s.068.838-.555.993c-.273.029-.555.039-.838.029h-1.402v-1.091s-.127-1.11.886-1.091c0 0 .847-.088.857.925v.341h-.312s.058-.516-.166-.604a.784.784 0 0 0-.721 0s-.166.136-.175.506v.458h1.578s.487-.01.497-.438l-.019-.827z" fill="url(#R)"/>
    <linearGradient id="S" gradientUnits="userSpaceOnUse" x1="77.148" y1="104.062" x2="77.148" y2="106.864" gradientTransform="rotate(90 74.81 120.678)">
      <stop offset="0" stop-color="#9ba2a6"/>
      <stop offset=".311" stop-color="#adb2b5"/>
      <stop offset=".93" stop-color="#dadbdb"/>
      <stop offset="1" stop-color="#e0e0e0"/>
    </linearGradient>
    <path d="M91.054 122.29h.37v.789s.068.838-.555.993c-.273.029-.555.039-.838.029h-1.402v-1.081s-.127-1.11.886-1.091c0 0 .847-.097.857.925v.341h-.312s.068-.516-.166-.604a.756.756 0 0 0-.721.01s-.166.136-.175.506v.448h1.578s.487-.01.497-.438l-.019-.827z" fill="url(#S)"/>
    <linearGradient id="T" gradientUnits="userSpaceOnUse" x1="70.306" y1="104.074" x2="70.306" y2="108.213" gradientTransform="rotate(90 74.81 120.678)">
      <stop offset="0" stop-color="#9ba2a6"/>
      <stop offset=".311" stop-color="#adb2b5"/>
      <stop offset=".93" stop-color="#dadbdb"/>
      <stop offset="1" stop-color="#e0e0e0"/>
    </linearGradient>
    <path d="M91.414 116.972v.506l-4.139-1.724v-.438l1.363.545s.058.088.477-.117l2.298-.876v.643l-1.977.701 1.978.76z" fill="url(#T)"/>
    <linearGradient id="U" gradientUnits="userSpaceOnUse" x1="72.96" y1="103.285" x2="72.96" y2="106.86" gradientTransform="rotate(90 74.81 120.678)">
      <stop offset="0" stop-color="#9ba2a6"/>
      <stop offset=".311" stop-color="#adb2b5"/>
      <stop offset=".93" stop-color="#dadbdb"/>
      <stop offset="1" stop-color="#e0e0e0"/>
    </linearGradient>
    <path d="M91.843 119.641h.36v-.828s.049-1.003-.789-1.003c0 0-.652-.049-.886.127 0 0-.312.166-.321.808 0 0 .058.594-.516.555 0 0-.701.019-.75-.409a5.845 5.845 0 0 1-.019-.419l.019-.526h-.312v1.032s-.039.662.477.779c.36.117.75.127 1.11.019 0 0 .477-.088.477-.779 0 0-.019-.477.234-.575a.825.825 0 0 1 .74.049s.185.088.185.409l-.009.761z" fill="url(#U)"/>
    <linearGradient id="V" gradientUnits="userSpaceOnUse" x1="75.175" y1="103.626" x2="75.175" y2="106.85" gradientTransform="rotate(90 74.81 120.678)">
      <stop offset="0" stop-color="#9ba2a6"/>
      <stop offset=".311" stop-color="#adb2b5"/>
      <stop offset=".93" stop-color="#dadbdb"/>
      <stop offset="1" stop-color="#e0e0e0"/>
    </linearGradient>
    <path d="M89.428 120.994h1.617v.633h.341v-.604h.477v-.565h-2.698c-.536-.029-.526.467-.526.467v.555h.312v-.166s-.029-.282.214-.312l.263-.008z" fill="url(#V)"/>
    <linearGradient id="W" gradientUnits="userSpaceOnUse" x1="79.46" y1="103.626" x2="79.46" y2="106.85" gradientTransform="rotate(90 74.81 120.678)">
      <stop offset="0" stop-color="#9ba2a6"/>
      <stop offset=".311" stop-color="#adb2b5"/>
      <stop offset=".93" stop-color="#dadbdb"/>
      <stop offset="1" stop-color="#e0e0e0"/>
    </linearGradient>
    <path d="M89.428 125.279h1.617v.633h.341v-.604h.477v-.565h-2.698c-.536-.029-.526.467-.526.467v.555h.312v-.166s-.029-.282.214-.312l.263-.008z" fill="url(#W)"/>
    <linearGradient id="X" gradientUnits="userSpaceOnUse" x1="85.834" y1="104.074" x2="85.834" y2="106.859" gradientTransform="rotate(90 74.81 120.678)">
      <stop offset="0" stop-color="#9ba2a6"/>
      <stop offset=".311" stop-color="#adb2b5"/>
      <stop offset=".93" stop-color="#dadbdb"/>
      <stop offset="1" stop-color="#e0e0e0"/>
    </linearGradient>
    <path d="M91.414 130.616v1.217s.019.565-.273.75c0 0-.224.195-.769.204h-1.743v-.536h1.724s.643.019.643-.458v-.652H88.63v-.526h2.784v.001z" fill="url(#X)"/>
    <linearGradient id="Y" gradientUnits="userSpaceOnUse" x1="82.897" y1="104.091" x2="82.897" y2="106.872" gradientTransform="rotate(90 74.81 120.678)">
      <stop offset="0" stop-color="#9ba2a6"/>
      <stop offset=".311" stop-color="#adb2b5"/>
      <stop offset=".93" stop-color="#dadbdb"/>
      <stop offset="1" stop-color="#e0e0e0"/>
    </linearGradient>
    <path d="M89.282 127.655c.614-.224 1.441 0 1.441 0a.87.87 0 0 1 .584.477c.136.234.078.896.078.896a.937.937 0 0 1-.477.789c-.458.243-1.383.127-1.383.127-.614-.058-.789-.428-.789-.428-.243-.438-.039-1.324-.039-1.324a.832.832 0 0 1 .585-.537zm1.655 1.471a.603.603 0 0 0-.019-.682s-.243-.39-1.539-.175c0 0-.36.039-.39.39 0 0-.068.477.175.575.146.068.302.107.467.117.011.009 1.033.145 1.306-.225z" fill="url(#Y)"/>
  </g>
  <g>
    <linearGradient id="Z" gradientUnits="userSpaceOnUse" x1="66.714" y1="117.631" x2="66.714" y2="121.022" gradientTransform="rotate(90 74.81 120.678)">
      <stop offset="0" stop-color="#9ba2a6"/>
      <stop offset=".311" stop-color="#adb2b5"/>
      <stop offset=".93" stop-color="#dadbdb"/>
      <stop offset="1" stop-color="#e0e0e0"/>
    </linearGradient>
    <path d="M77.858 112.264v.631l-3.391 1.306v-.635l.898-.318v-1.354l-.898-.318v-.612l3.391 1.3zm-2.041-.209v1.034l1.457-.508v-.014l-1.457-.512z" fill="url(#Z)"/>
    <linearGradient id="aa" gradientUnits="userSpaceOnUse" x1="69.983" y1="117.631" x2="69.983" y2="121.022" gradientTransform="rotate(90 74.81 120.678)">
      <stop offset="0" stop-color="#9ba2a6"/>
      <stop offset=".311" stop-color="#adb2b5"/>
      <stop offset=".93" stop-color="#dadbdb"/>
      <stop offset="1" stop-color="#e0e0e0"/>
    </linearGradient>
    <path d="M77.858 114.5v.603l-2.498 1.549v.009h2.498v.54h-3.391v-.601l2.493-1.547v-.014h-2.493v-.54h3.391z" fill="url(#aa)"/>
    <linearGradient id="ab" gradientUnits="userSpaceOnUse" x1="73.31" y1="117.631" x2="73.31" y2="121.022" gradientTransform="rotate(90 74.81 120.678)">
      <stop offset="0" stop-color="#9ba2a6"/>
      <stop offset=".311" stop-color="#adb2b5"/>
      <stop offset=".93" stop-color="#dadbdb"/>
      <stop offset="1" stop-color="#e0e0e0"/>
    </linearGradient>
    <path d="M77.858 118.86v.631l-3.391 1.305v-.635l.898-.317v-1.355l-.898-.318v-.612l3.391 1.301zm-2.041-.209v1.035l1.457-.508v-.014l-1.457-.513z" fill="url(#ab)"/>
    <linearGradient id="ac" gradientUnits="userSpaceOnUse" x1="76.413" y1="117.631" x2="76.413" y2="121.022" gradientTransform="rotate(90 74.81 120.678)">
      <stop offset="0" stop-color="#9ba2a6"/>
      <stop offset=".311" stop-color="#adb2b5"/>
      <stop offset=".93" stop-color="#dadbdb"/>
      <stop offset="1" stop-color="#e0e0e0"/>
    </linearGradient>
    <path d="M77.858 121.121v.594H74.98v1.724h-.513v-2.317h3.391z" fill="url(#ac)"/>
    <linearGradient id="ad" gradientUnits="userSpaceOnUse" x1="79.423" y1="117.55" x2="79.423" y2="121.101" gradientTransform="rotate(90 74.81 120.678)">
      <stop offset="0" stop-color="#9ba2a6"/>
      <stop offset=".311" stop-color="#adb2b5"/>
      <stop offset=".93" stop-color="#dadbdb"/>
      <stop offset="1" stop-color="#e0e0e0"/>
    </linearGradient>
    <path d="M77.939 125.289c0 .494-.172.888-.515 1.183-.343.295-.764.443-1.264.443-.501 0-.922-.148-1.262-.442-.339-.293-.509-.687-.51-1.182-.001-.495.168-.891.508-1.186.34-.294.761-.441 1.262-.441s.919.144 1.255.431c.161.139.289.309.385.51.095.203.142.431.141.684zm-2.688-.775c-.254.17-.38.429-.38.775 0 .346.128.605.383.775.255.172.558.258.909.258s.654-.086.909-.258.383-.429.383-.772c0-.345-.128-.604-.385-.777a1.583 1.583 0 0 0-.911-.258 1.597 1.597 0 0 0-.908.257z" fill="url(#ad)"/>
    <linearGradient id="ae" gradientUnits="userSpaceOnUse" x1="82.988" y1="117.55" x2="82.988" y2="121.103" gradientTransform="rotate(90 74.81 120.678)">
      <stop offset="0" stop-color="#9ba2a6"/>
      <stop offset=".311" stop-color="#adb2b5"/>
      <stop offset=".93" stop-color="#dadbdb"/>
      <stop offset="1" stop-color="#e0e0e0"/>
    </linearGradient>
    <path d="M74.467 130.413v-.38l.399-.09c-.181-.159-.306-.317-.376-.475s-.104-.352-.104-.582c.001-.23.049-.446.141-.647.189-.403.504-.679.946-.83.215-.074.444-.111.687-.111.5 0 .917.144 1.252.431.161.139.289.309.385.509.096.201.143.411.141.631 0 .638-.219 1.085-.656 1.344a1.29 1.29 0 0 1-.503.16v-.594a.705.705 0 0 0 .496-.288.903.903 0 0 0 .179-.547c0-.363-.128-.629-.383-.798a1.6 1.6 0 0 0-.909-.255 1.58 1.58 0 0 0-.909.258c-.255.171-.383.429-.383.772-.006.299.073.53.237.694.164.163.395.25.693.257v-.905h.452v1.445h-1.785z" fill="url(#ae)"/>
  </g>
  <path d="M60.222 115.93h1.224c.405 0 .733.328.733.733v8.048c0 .404-.33.734-.734.734h-1.223a.734.734 0 0 1-.734-.734v-8.047a.733.733 0 0 1 .734-.734z" fill="#232323"/>
  <path d="M59.771 124.313v-7.25c0-.229.188-.417.417-.417h1.292c.229 0 .417.188.417.417v7.25a.419.419 0 0 1-.417.417h-1.292a.419.419 0 0 1-.417-.417z" fill="#e51f44"/>
  <g>
    <path d="M124.076 111.403v-1.419c0-.276-.018-.518-.053-.723a1.887 1.887 0 0 0-.151-.51c-.066-.134-.145-.233-.239-.299s-.198-.098-.313-.098a.563.563 0 0 0-.278.076.672.672 0 0 0-.24.245c-.07.113-.126.261-.169.444a2.98 2.98 0 0 0-.064.671v1.611h1.507zm-1.121-.981v-.313c0-.179.014-.319.042-.422a.675.675 0 0 1 .102-.232l.119-.098.096-.021.118.024.123.099c.038.049.07.119.096.212.026.092.039.214.039.366v.384h-.735zM122.533 105.102v.981h.821l.118.007.112.051.083.139a.873.873 0 0 1 .033.268.907.907 0 0 1-.033.277l-.083.143-.112.051-.118.007h-.821v.982h.924c.21 0 .365-.12.467-.359.101-.239.152-.604.152-1.096s-.051-.855-.152-1.094c-.102-.237-.257-.356-.467-.356h-.924zM123.538 103.603l-.464-.308v-.01l.464-.285v.603zm.538 1.344v-.986l-.215-.144v-1.013l.215-.134v-1.018l-1.507 1.16v.96l1.507 1.175zM124.076 101.409v-2.392h-.386v1.41h-1.121v.982zM123.534 98.84l.207-.08.147-.206c.041-.083.073-.177.097-.281a3.41 3.41 0 0 0 .084-.607 5.504 5.504 0 0 0-.02-.759c-.017-.176-.046-.333-.086-.473s-.093-.253-.159-.34a.301.301 0 0 0-.247-.129l-.176.076-.123.202a1.83 1.83 0 0 0-.082.288 6.484 6.484 0 0 0-.094.663 5.976 5.976 0 0 1-.038.292l-.046.212-.066.087-.052-.035-.031-.09-.015-.115-.004-.112.009-.151.029-.139.049-.096.072-.02V96.1a.32.32 0 0 0-.231.12c-.063.075-.113.173-.152.295s-.066.262-.083.42a4.605 4.605 0 0 0 .004.973c.019.154.049.291.089.41a.888.888 0 0 0 .155.288l.225.109.187-.099c.049-.065.089-.149.121-.252s.057-.219.076-.348a38.743 38.743 0 0 0 .101-.721l.038-.21.038-.107.05-.031.069.04.042.103.021.135.005.129c0 .093-.007.185-.021.276-.014.093-.043.156-.089.192l-.099.036v.982zM124.076 95.554v-.983h-.597v-.919h.597v-.982h-1.507v.982h.524v.919h-.524v.983zM123.287 92.233a.496.496 0 0 0 .318-.115.979.979 0 0 0 .249-.328c.07-.142.124-.313.164-.512s.059-.419.059-.66-.02-.461-.059-.66-.094-.37-.164-.512a.954.954 0 0 0-.249-.327.492.492 0 0 0-.635 0 .94.94 0 0 0-.249.327c-.07.142-.125.313-.164.512-.039.199-.059.419-.059.66s.02.461.059.66c.04.199.094.37.164.512.069.141.152.25.249.328a.495.495 0 0 0 .317.115zm0-.981l-.207-.064-.126-.159-.063-.205-.018-.205.018-.205.063-.205.126-.159.207-.064.207.064.125.159.063.205.018.205-.018.205-.063.205-.125.159-.207.064zM123.095 85.62c-.19.042-.337.183-.44.422-.103.239-.156.58-.157 1.02 0 .247.019.47.057.668.038.197.091.367.161.509.069.141.152.249.249.325a.512.512 0 0 0 .635.007.882.882 0 0 0 .25-.314 2.05 2.05 0 0 0 .167-.507c.041-.199.061-.429.061-.688 0-.231-.018-.438-.055-.62s-.085-.334-.145-.457a.838.838 0 0 0-.202-.281l-.226-.096v.964l.099.06.081.099.053.147.019.212a.992.992 0 0 1-.036.29l-.095.186-.133.1-.15.031-.15-.031-.133-.1-.095-.186a.992.992 0 0 1-.036-.29c0-.102.009-.184.027-.248l.063-.153.073-.081.058-.031v-.957zM124.076 85.212v-.983h-.445l-.141-.271.586-.786v-1.223l-.918 1.344-.589-1.156v1.209l.519.875v.008h-.519v.983zM123.909 81.524h-.268v-.28l.021-.128.054-.048.057.054.008.032.004-.019.046-.049.044-.003.019-.006.009-.019h.007v.128l-.018.008-.029.004h-.025l-.026.022-.008.07v.115h.106v.119zm-.15-.116v-.134l-.009-.067-.027-.022-.026.021-.009.063v.139h.071z" fill="#2e90d7"/>
    <path d="M123.78 80.808v.031l.137.127c.04.084.065.203.065.336s-.025.253-.065.337l-.137.127-.137-.127c-.04-.084-.065-.204-.065-.337s.025-.252.065-.336l.137-.127v-.062c-.167.01-.262.247-.265.525.003.278.098.517.265.526.167-.01.262-.248.265-.526-.003-.278-.098-.516-.265-.525v.031zM123.552 76.74l.524.05v3.445h-.492l-.255-.77a13.677 13.677 0 0 0-.236-.632c-.12-.309-.213-.51-.278-.604-.064-.094-.132-.141-.203-.141-.068 0-.123.041-.164.123a.71.71 0 0 0-.062.323c0 .333.123.519.37.558l-.105 1.143c-.251-.084-.438-.292-.561-.625-.123-.333-.184-.725-.184-1.178 0-.49.062-.891.186-1.201.125-.311.29-.466.497-.466.138 0 .269.084.393.253.125.169.314.664.57 1.483V76.74z" fill="#2e90d7"/>
  </g>
</svg>
