<?xml version="1.0"?>
<svg xmlns="http://www.w3.org/2000/svg" viewBox="0 0 184.697 184.696">
  <path d="M92.348 0C41.427 0 0 41.427 0 92.348s41.428 92.349 92.349 92.349 92.349-41.428 92.349-92.349S143.269 0 92.348 0zm0 108.782c-9.062 0-16.435-7.373-16.435-16.435 0-9.062 7.373-16.434 16.435-16.434s16.435 7.373 16.435 16.434c0 9.063-7.373 16.435-16.435 16.435z" fill="#efece6"/>
  <path d="M92.348 2.834c-49.357 0-89.514 40.156-89.514 89.514s40.156 89.514 89.514 89.514 89.514-40.155 89.514-89.514c0-49.358-40.155-89.514-89.514-89.514zm0 105.948c-9.062 0-16.435-7.373-16.435-16.435 0-9.062 7.373-16.434 16.435-16.434s16.435 7.373 16.435 16.434c0 9.063-7.373 16.435-16.435 16.435z" fill="#b3bbbc"/>
  <path d="M92.348 108.782c-9.062 0-16.435-7.373-16.435-16.435 0-9.062 7.373-16.434 16.435-16.434s16.435 7.373 16.435 16.434c0 9.063-7.373 16.435-16.435 16.435zm15.075-16.434c0-8.312-6.762-15.074-15.074-15.074-8.312 0-15.073 6.762-15.073 15.074 0 8.312 6.762 15.074 15.073 15.074 8.312 0 15.074-6.762 15.074-15.074z" fill="#efede8"/>
  <path d="M92.348 103.436v-.15a10.9 10.9 0 0 1-7.73-3.207 10.908 10.908 0 0 1-3.208-7.731c0-3.016 1.227-5.749 3.208-7.73a10.902 10.902 0 0 1 7.73-3.207 10.9 10.9 0 0 1 7.73 3.207 10.907 10.907 0 0 1 3.208 7.73c0 3.016-1.227 5.749-3.208 7.731a10.902 10.902 0 0 1-7.73 3.207v.3c6.196 0 11.238-5.041 11.238-11.238 0-6.196-5.041-11.237-11.238-11.237-6.196 0-11.238 5.041-11.238 11.237 0 6.197 5.041 11.238 11.238 11.238v-.15z" fill="#bcbcbc"/>
  <path d="M161.471 149.162H23.225c16.432 19.955 41.317 32.699 69.124 32.699 27.764 0 52.616-12.705 69.048-32.607"/>
  <path d="M51.038 156.416v10.181h1.589v-9.206h1.472s1.068 0 1.435.478c.311.406.368 1.143.368 1.64 0 .532-.034 1.355-.213 1.656-.271.46-.716.552-1.123.552h-.971v.904h1.396s1.26.052 1.802-.499c.664-.675.833-1.583.833-2.798 0-1.104-.4-2.219-1.22-2.597-.678-.312-1.9-.312-1.9-.312h-3.468M58.875 156.416h1.59v10.181h-1.59zM68.92 158.791l2.908 7.621-1.67 4.088h1.319l4.808-11.709h-1.473l-2.095 5.707-1.948-5.707H68.92M77.481 166.537v-.962s1.682.066 2.031.066c.775 0 1.163-.166 1.454-.478.173-.188.328-1.018.328-1.314 0-.295-.057-.933-.172-1.194a.945.945 0 0 0-.796-.529c-.29-.025-.738-.083-1.261-.107a2.03 2.03 0 0 1-1.453-.693c-.231-.275-.542-.69-.542-1.959 0-1.271.329-1.984.658-2.314.33-.333.813-.478 1.183-.544.427-.073 1.123-.077 1.123-.077l2.225.065v.962s-1.622-.065-1.972-.065c-.775 0-1.008.167-1.299.478-.171.186-.306.699-.306.994 0 .295.035.893.151 1.151.115.256.388.496.794.532.289.022.737.081 1.26.104a2.017 2.017 0 0 1 1.453.693c.233.276.545.858.545 2.127 0 1.271-.332 2.18-.66 2.511-.33.331-.812.478-1.182.542-.428.074-1.124.079-1.124.079l-2.438-.068M86.154 157.391h-1.589v7.475s.038.682.077.922.389.809 1.299.809l1.646-.032v-.959s-.446.032-.715.032c-.273 0-.604-.018-.659-.479-.06-.46-.06-1.01-.06-1.01v-4.401h1.794v-.958h-1.794v-1.399M101.492 158.791h1.588v7.806h-1.588zM101.492 156.416h1.588v1.417h-1.588zM108.101 158.724c1.081 0 1.92.242 2.371.606.454.365 1.014 1.135 1.014 3.364s-.56 2.999-1.014 3.365c-.451.364-1.29.607-2.371.607-1.084 0-1.919-.243-2.373-.607-.454-.366-1.01-1.136-1.01-3.365s.556-3 1.01-3.364c.454-.364 1.289-.606 2.373-.606zm-1.089 1.497c-.219.269-.485.835-.485 2.473 0 1.637.267 2.204.485 2.473.218.267.619.447 1.139.447.521 0 .921-.18 1.141-.447.218-.269.484-.835.484-2.473s-.267-2.204-.484-2.473c-.22-.268-.62-.446-1.141-.446-.519 0-.921.179-1.139.446M114.777 159.887l1.559-.065c.407 0 .888.11 1.12.405.217.278.354.61.354 1.144v5.219h1.592v-5.35c0-1.012-.313-1.6-.779-1.97-.667-.529-1.86-.478-1.86-.478l-3.561.064v7.734h1.576v-6.703M98.327 157.391h-1.589v7.475s.037.682.075.922c.04.24.387.809 1.301.809l1.646-.032v-.959s-.447.032-.718.032c-.27 0-.602-.018-.659-.479-.057-.46-.057-1.01-.057-1.01v-4.401h1.79v-.958h-1.79v-1.399M66.495 161.37c0-.534-.136-.865-.354-1.144-.232-.295-.71-.405-1.119-.405l-2.096.065v-1.032l2.522-.064s1.194-.051 1.861.478c.465.37.774.958.774 1.97v5.275l-3.046.066s-1.379.005-2.073-.276c-.677-.275-1.047-1.031-1.047-2.081 0-1.013.311-1.601.776-1.971.667-.529 1.86-.477 1.86-.477h.973v.899h-.546c-.408 0-.829.076-1.063.371-.218.275-.334.514-.334 1.048 0 .701.136 1.014.466 1.252.291.212.813.258 1.395.258l1.05-.064v-4.168M93.293 161.37c0-.534-.133-.865-.352-1.144-.235-.295-.713-.405-1.119-.405l-2.095.065v-1.032l2.521-.064s1.192-.051 1.859.478c.465.37.776.958.776 1.97v5.275l-3.046.066s-1.381.005-2.073-.276c-.678-.275-1.049-1.031-1.049-2.081 0-1.013.313-1.601.776-1.971.666-.529 1.861-.477 1.861-.477h.973v.899h-.547c-.406 0-.829.076-1.06.371-.219.275-.336.514-.336 1.048 0 .701.137 1.014.466 1.252.29.212.814.258 1.396.258l1.047-.064v-4.168M122.281 166.661a1.55 1.55 0 0 0 1.098-2.649 1.554 1.554 0 0 0-2.649 1.098 1.546 1.546 0 0 0 1.551 1.551zm-1.291-1.551c0-.345.136-.669.379-.912a1.285 1.285 0 0 1 1.825 0 1.293 1.293 0 1 1-2.204.912" fill="#fff"/>
  <path d="M123.047 165.831l-.051-.076-.015-.13-.007-.223a.406.406 0 0 0-.063-.229l-.103-.085.131-.126a.483.483 0 0 0 .066-.264c0-.204-.086-.348-.254-.424a.793.793 0 0 0-.328-.058h-.802v1.727h.299v-.708h.472l.186.025c.062.03.094.091.098.185l.014.276.012.135.022.066.013.021h.333v-.101l-.023-.011zm-.346-1.112c0 .097-.024.161-.072.196a.409.409 0 0 1-.228.057h-.48v-.489h.51l.166.029c.071.036.104.105.104.207M133.656 157.731c.021 1.173-.037 1.792-.431 2.381-.348.515-1.035.989-2.557.989l-1.887-.059c-.297.003-1.071.092-1.436.486-.314.334-.335.588-.369 1.488v2.631h6.416v1.293h-7.013l-.335-.004c-.478 0-.946-.324-.946-.97v-1.963c.032-2.298.198-2.629.696-3.229.346-.415 1.155-.881 2.143-.931.194-.011.561-.036 1.069-.017.377.013.747.022.912.024.873.011 1.192-.15 1.432-.464.272-.354.416-.768.416-1.45 0-.635-.128-1.241-.371-1.52-.296-.322-.575-.538-1.398-.54-2.071-.005-4.494.048-4.494.048v-1.217s2.366-.103 4.781-.139c1.504-.023 2.329.374 2.752.923.443.577.601 1.118.62 2.24" fill="#fff"/>
  <path d="M19.62 79.704h23.292v23.75H19.62z"/>
  <path fill-rule="evenodd" clip-rule="evenodd" fill="#00a99d" d="M30.257 93.139l-2.916-.875-3.842 1.378-.662.266 2.782.874zM35.027 94.57l-4.161 1.458-.689.212-2.836-.875 4.718-1.696zM36.83 95.1l-4.851 1.749 2.731.901 4.478-1.59.53-.238z"/>
  <path fill-rule="evenodd" clip-rule="evenodd" fill="#f2c102" d="M34.71 97.75l-2.731-.901-2.729.981 2.783.874zM27.341 95.365l2.836.875c-2.385.795-4.69.875-6.943.265-1.192-.318-1.855-.742-1.908-1.325-.026-.398.504-.849 1.511-1.272l2.782.874-.715.265c-.213.08-.397.186-.53.265-.133.132-.08.265.133.397l1.06.132 1.113-.212.661-.264z"/>
  <path fill-rule="evenodd" clip-rule="evenodd" fill="#326cb2" d="M28.799 91.787l2.863.822-1.405.53-2.916-.875zM32.059 93.669c1.378-.53 2.703-.795 3.976-.821a9.604 9.604 0 0 1 3.498.477c1.06.345 1.643.742 1.669 1.246.054.53-.424.954-1.483 1.352L36.83 95.1l.98-.371c.397-.132.583-.265.529-.424-.053-.133-.186-.239-.477-.265l-.98-.053-.742.186-1.113.397-2.968-.901z"/>
  <path d="M28.747 83.333v14.364l3.286 1.007V86.699c0-.318.026-.53.159-.663.132-.186.265-.212.45-.132.45.132.662.53.662 1.192v4.824c1.008.477 1.908.53 2.571.026.688-.477 1.06-1.325 1.06-2.597 0-1.325-.265-2.332-.848-2.995-.53-.716-1.458-1.299-2.836-1.776-1.801-.582-3.312-1.006-4.504-1.245z" fill-rule="evenodd" clip-rule="evenodd" fill="#dc0029"/>
  <path d="M39.093 102.396a1.55 1.55 0 0 0 1.098-2.649 1.554 1.554 0 0 0-2.649 1.098 1.552 1.552 0 0 0 1.551 1.551zm-1.291-1.552c0-.345.136-.669.379-.912a1.285 1.285 0 0 1 1.825 0 1.293 1.293 0 1 1-2.204.912" fill="#fff"/>
  <path d="M39.859 101.565l-.051-.076-.015-.13-.007-.223a.406.406 0 0 0-.063-.229l-.103-.085.131-.126a.483.483 0 0 0 .066-.264c0-.204-.086-.348-.254-.424a.793.793 0 0 0-.328-.058h-.802v1.727h.299v-.708h.472l.186.025c.062.03.094.091.098.185l.014.276.012.135.022.066.013.021h.333v-.101l-.023-.011zm-.346-1.112c0 .097-.024.161-.072.196a.409.409 0 0 1-.228.057h-.48v-.489h.51l.166.029c.071.036.104.105.104.207" fill="#fff"/>
  <path d="M37.421 110.67h1.715s2.073-.106 2.021.957c-.082 1.646-2.605 1.529-2.605 1.529l.491-2.14h-1.715l-.718 3.097h1.702s1.699.076 3.098-.598c1.488-.718 1.502-1.98 1.502-1.98s.053-.798-.731-1.263c-.875-.519-2.021-.558-2.021-.558h-3.75l-2.22 2.884-.931-2.884h-6.461l-.239.957h1.715s2.074-.106 2.021.957c-.082 1.646-2.605 1.529-2.605 1.529l.492-2.14h-1.715l-.719 3.097h1.702s1.7.076 3.098-.598c1.489-.718 1.502-1.98 1.502-1.98s-.02-.363-.066-.519c-.04-.133-.093-.346-.093-.346h.079l1.582 4.44 3.869-4.441zM33.455 115.959c-.287 0-.522.167-.522.349 0 .228.235.395.522.395s.523-.167.523-.395c0-.182-.236-.349-.523-.349zM30.807 115.933h-.047v.33h.047c.157 0 .334-.021.334-.165s-.176-.165-.334-.165z"/>
  <path d="M33.605 115.11c-4.597 0-8.322.536-8.322 1.196 0 .661 3.726 1.196 8.322 1.196 4.596 0 8.321-.535 8.321-1.196 0-.66-3.725-1.196-8.321-1.196zm-2.386 1.882l-.454-.509h-.005v.509h-.481v-1.323h.72c.366 0 .644.125.644.407 0 .182-.143.34-.405.374l.582.542h-.601zm2.236.044c-.594 0-1.024-.302-1.024-.73 0-.399.492-.68 1.024-.68.533 0 1.024.281 1.024.68 0 .429-.43.73-1.024.73zm3.552-.044l-.135-.761h-.005l-.444.761h-.191l-.425-.761h-.005l-.155.761h-.479l.314-1.323h.474l.376.708.397-.708h.479l.281 1.323h-.482zM41.084 117.23h-.343v.057h.136v.375h.071v-.375h.136v-.057zm.563 0h-.108l-.127.329-.13-.329h-.11v.433h.071v-.362h.003l.142.362h.045l.142-.362h.002v.362h.071v-.433zM26.236 121.068v2.871h.598c.653 0 1.196-.642 1.196-1.436 0-.792-.543-1.435-1.196-1.435h-.598m-.598-.478h2.87v3.827h-2.87v-3.827zM31.02 121.068h-.599c-.653 0-1.196.644-1.196 1.435 0 .793.544 1.436 1.196 1.436h.599v-2.871m-2.27-.478h2.87v3.827h-2.87v-3.827zM39.684 128.096c-.01-.332-.332-.521-.629-.521-.415 0-.686.318-.686.717s.271.717.686.717c.35 0 .609-.208.629-.563h-.358c-.014.158-.109.254-.277.254-.231 0-.32-.205-.32-.409s.089-.408.32-.408c.15 0 .258.073.277.212h.358m-2.271.886h.359v-1.376h-.359v1.376zm-.594-.754h-.578v.266h.251c-.02.125-.139.208-.316.208-.231 0-.32-.205-.32-.409s.089-.408.32-.408c.145 0 .26.07.271.188h.358c-.032-.345-.337-.497-.622-.497-.416 0-.687.318-.687.717s.271.717.687.717a.47.47 0 0 0 .384-.179l.021.15h.231v-.753zm-2.827.066c0-.204.089-.408.319-.408.232 0 .32.204.32.408s-.088.409-.32.409c-.23-.001-.319-.205-.319-.409zm-.359 0c0 .399.244.717.678.717.435 0 .679-.318.679-.717s-.244-.717-.679-.717c-.433 0-.678.318-.678.717zm-1.5.688h1v-.309h-.642v-1.067h-.358v1.376zm-2.322-.688c0-.204.089-.408.32-.408s.32.204.32.408-.089.409-.32.409-.32-.205-.32-.409zm-.357 0c0 .399.244.717.678.717s.679-.318.679-.717-.245-.717-.679-.717-.678.318-.678.717zm-1.349-.401h.284c.101 0 .182.046.182.148 0 .104-.058.162-.165.162h-.301v-.31zm-.358 1.089h.358v-.501h.271c.167 0 .19.143.2.281l.041.22h.354l-.058-.311c-.012-.13-.054-.295-.2-.33v-.004c.145-.055.216-.196.216-.344 0-.278-.239-.388-.482-.388h-.7v1.377zm-1.332-1.089h.24c.11 0 .193.052.193.182 0 .125-.081.171-.193.171h-.24v-.353zm-.359 1.089h.358v-.459h.295c.303 0 .497-.133.497-.474 0-.325-.241-.443-.497-.443h-.653v1.376zm15.395-1.134h.457v.889h-.457v-.889zm-.587-.244v.245h.228v.889h-.228v.245h1.632v-.245h-.229v-.889h.229v-.245h-1.632zm-15.226-.411h17.273v2.2H25.638v-2.2zM26.187 126.075c.007.189.128.25.31.25.122 0 .256-.048.256-.169 0-.141-.229-.168-.465-.235-.235-.067-.478-.168-.478-.465 0-.356.357-.499.667-.499.316 0 .646.162.646.526H26.7c.006-.148-.129-.196-.264-.196-.087 0-.202.034-.202.142 0 .122.236.148.472.209.235.068.472.175.472.471 0 .411-.351.546-.707.546-.371 0-.7-.169-.708-.58h.424M29.334 125.948c0 .471-.215.708-.707.708s-.708-.236-.708-.708v-.95h.425v.977c0 .209.074.317.283.317.208 0 .283-.108.283-.317v-.977h.424v.95M30.944 125.698h-.351v-.364h.337c.115 0 .209.054.209.175 0 .122-.066.189-.195.189m.606.553c-.02-.155-.067-.344-.242-.391.175-.067.256-.236.256-.411 0-.324-.283-.452-.565-.452h-.829v1.624h.424v-.593h.317c.202 0 .229.168.235.33l.055.263h.417l-.068-.37zM33.141 125.698h-.351v-.364h.337c.114 0 .209.054.209.175.001.122-.067.189-.195.189m.607.553c-.014-.155-.068-.344-.242-.391.174-.067.256-.236.256-.411 0-.324-.284-.452-.566-.452h-.829v1.624h.425v-.593h.316c.202 0 .229.168.236.33l.054.263h.418l-.068-.37zM35.304 126.291c-.276 0-.378-.243-.378-.486 0-.242.102-.485.378-.485.263 0 .37.243.37.485 0 .244-.107.486-.37.486m0-1.335c-.513 0-.802.378-.802.849 0 .472.289.85.802.85.505 0 .795-.378.795-.85 0-.471-.29-.849-.795-.849zM38.283 125.948c0 .471-.216.708-.708.708-.491 0-.708-.236-.708-.708v-.95h.425v.977c0 .209.081.317.283.317.209 0 .283-.108.283-.317v-.977h.425v.95M39.118 124.997h.431l.566.998h.007v-.998h.397v1.624h-.437l-.567-1.017v1.017h-.397v-1.624M41.981 126.257h-.194v-.896h.194c.29 0 .452.142.452.438 0 .323-.128.452-.452.458m.074-1.26h-.693v1.624h.693c.499 0 .802-.29.802-.822 0-.505-.303-.802-.802-.802zM41.8 121.642h-.532l-.316.663h-.017l-.308-.663h-.526l.611 1.118v.604h.459v-.604l.629-1.118m-2.779 1.008h.356c.149 0 .202.021.202.163 0 .14-.063.174-.212.174h-.347v-.337zm0-.631h.386c.129.004.146.043.146.146 0 .138-.039.166-.2.166h-.331v-.312zm-.459 1.345h.914c.365 0 .563-.058.563-.479 0-.216-.044-.37-.299-.386v-.019c.228-.037.271-.179.271-.397 0-.376-.202-.44-.544-.44h-.905v1.721zm-.919-1.722h-.459v1.722h1.178v-.399h-.719v-1.323zm-1.481 1.337c-.239 0-.317-.025-.324-.283v-.388c.007-.255.085-.28.324-.28.238 0 .323.025.323.28v.388c0 .257-.085.283-.323.283zm0 .4c.466 0 .797-.102.797-.632v-.487c0-.53-.331-.631-.797-.631-.467 0-.797.101-.797.631v.487c0 .53.33.632.797.632zm-2.091-1.337h.402c.16 0 .231.046.231.268v.361c0 .181-.062.293-.231.293h-.402v-.922zm-.459 1.322h.935c.479 0 .632-.222.632-.693v-.361c0-.489-.214-.667-.693-.667h-.873v1.721z"/>
  <path d="M32.383 120.59v3.827h10.525v-3.827H32.383zm10.256 3.559h-9.988v-3.292h9.988v3.292z"/>
</svg>
