<?xml version="1.0" encoding="UTF-8" standalone="no"?>
<svg
   xmlns:dc="http://purl.org/dc/elements/1.1/"
   xmlns:cc="http://creativecommons.org/ns#"
   xmlns:rdf="http://www.w3.org/1999/02/22-rdf-syntax-ns#"
   xmlns:svg="http://www.w3.org/2000/svg"
   xmlns="http://www.w3.org/2000/svg"
   viewBox="0 0 121.28287 431.67499"
   height="431.67499"
   width="121.28287"
   xml:space="preserve"
   version="1.1"
   id="svg2"><metadata
     id="metadata8"><rdf:RDF><cc:Work
         rdf:about=""><dc:format>image/svg+xml</dc:format><dc:type
           rdf:resource="http://purl.org/dc/dcmitype/StillImage" /><dc:title></dc:title></cc:Work></rdf:RDF></metadata><defs
     id="defs6"><clipPath
       id="clipPath16"
       clipPathUnits="userSpaceOnUse"><path
         id="path18"
         d="m 0,345.34 97.026,0 L 97.026,0 0,0 0,345.34 Z" /></clipPath></defs><g
     transform="matrix(1.25,0,0,-1.25,0,431.675)"
     id="g10"><g
       id="g12"><g
         clip-path="url(#clipPath16)"
         id="g14"><g
           transform="translate(78.039,316.0045)"
           id="g20"><path
             id="path22"
             style="fill:#8a1001;fill-opacity:1;fill-rule:nonzero;stroke:none"
             d="m 0,0 -1.141,0 c -0.822,0 -1.494,0.672 -1.494,1.494 0,0.821 0.672,1.494 1.494,1.494 L 0,2.988 C 0.822,2.988 1.494,2.315 1.494,1.494 1.494,0.672 0.822,0 0,0" /></g><g
           transform="translate(50.2001,323.0427)"
           id="g24"><path
             id="path26"
             style="fill:#1a5bc0;fill-opacity:1;fill-rule:nonzero;stroke:none"
             d="m 0,0 c 2.785,-0.287 5.523,0.642 8.346,-0.552 1.525,-0.645 3.546,-0.115 5.82,-0.115 -2.5,-1.404 -4.048,-3.034 -3.644,-5.557 0.352,-2.205 1.882,-3.736 4.086,-4.052 2.481,-0.356 4.205,1.058 5.462,3.712 0,-11.504 -0.001,-22.462 0.002,-33.42 0,-0.724 0.049,-1.396 -1.026,-1.392 -6.249,0.023 -12.499,0.011 -19.364,0.011 1.694,1.663 2.938,2.946 4.253,4.151 0.776,0.711 1.081,1.474 1.076,2.549 -0.044,9.077 0.004,18.154 -0.045,27.231 C 4.953,-5.001 3.73,-3.057 1.798,-1.665 1.129,-1.183 0.605,-0.611 0,0" /></g><g
           transform="translate(59.9651,285.8189)"
           id="g28"><path
             id="path30"
             style="fill:#000000;fill-opacity:1;fill-rule:nonzero;stroke:none"
             d="m 0,0 -3.267,0 c -0.6,0 -1.092,0.492 -1.092,1.092 l 0,18.365 c 0,0.601 0.492,1.092 1.092,1.092 l 3.267,0 c 0.601,0 1.092,-0.491 1.092,-1.092 l 0,-18.365 C 1.092,0.492 0.601,0 0,0" /></g><g
           transform="translate(68.9654,317.5002)"
           id="g32"><path
             id="path34"
             style="fill:#164489;fill-opacity:1;fill-rule:nonzero;stroke:none"
             d="m 0,0 c 0,-1.943 -1.575,-3.519 -3.519,-3.519 -1.943,0 -3.519,1.576 -3.519,3.519 0,1.943 1.576,3.519 3.519,3.519 C -1.575,3.519 0,1.943 0,0" /></g><g
           transform="translate(53.5187,118.8855)"
           id="g36"><path
             id="path38"
             style="fill:#a6724f;fill-opacity:1;fill-rule:nonzero;stroke:none"
             d="m 0,0 -0.748,0 c -0.197,0 -0.357,0.161 -0.357,0.357 l 0,2.657 c 0,0.196 0.16,0.357 0.357,0.357 l 0.748,0 c 0.196,0 0.357,-0.161 0.357,-0.357 l 0,-2.657 C 0.357,0.161 0.196,0 0,0" /></g><g
           transform="translate(69.1306,102.6656)"
           id="g40"><path
             id="path42"
             style="fill:#901909;fill-opacity:1;fill-rule:nonzero;stroke:none"
             d="m 0,0 0,0 c 0,0.495 0.405,0.899 0.899,0.899 l 8.551,0 c 0.495,0 0.899,-0.404 0.899,-0.899 0,-0.495 -0.404,-0.899 -0.899,-0.899 l -8.551,0 C 0.405,-0.899 0,-0.495 0,0" /></g><g
           transform="translate(58.2544,87.5907)"
           id="g44"><path
             id="path46"
             style="fill:#625b65;fill-opacity:1;fill-rule:nonzero;stroke:none"
             d="m 0,0 -35.092,0 c -0.835,0 -1.518,0.683 -1.518,1.518 l 0,8.456 c 0,0.835 0.683,1.518 1.518,1.518 l 35.092,0 c 0.835,0 1.518,-0.683 1.518,-1.518 l 0,-8.456 C 1.518,0.683 0.835,0 0,0" /></g><g
           transform="translate(59.5225,75.668)"
           id="g48"><path
             id="path50"
             style="fill:#8a828d;fill-opacity:1;fill-rule:nonzero;stroke:none"
             d="m 0,0 -40.074,0 c -0.806,0 -1.465,0.659 -1.465,1.465 l 0,6.562 c 0,0.806 0.659,1.465 1.465,1.465 L 0,9.492 c 0.806,0 1.465,-0.659 1.465,-1.465 l 0,-6.562 C 1.465,0.659 0.806,0 0,0" /></g><g
           transform="translate(60.0336,101.2797)"
           id="g52"><path
             id="path54"
             style="fill:#8a828d;fill-opacity:1;fill-rule:nonzero;stroke:none"
             d="m 0,0 -40.003,0 c -0.825,0 -1.5,0.675 -1.5,1.5 l 0,6.955 c 0,0.825 0.675,1.5 1.5,1.5 L 0,9.955 c 0.825,0 1.5,-0.675 1.5,-1.5 L 1.5,1.5 C 1.5,0.675 0.825,0 0,0" /></g><g
           transform="translate(63.5913,86.706)"
           id="g56"><path
             id="path58"
             style="fill:#901909;fill-opacity:1;fill-rule:nonzero;stroke:none"
             d="m 0,0 0,0 c -0.869,0 -1.581,0.711 -1.581,1.581 l 0,9.35 c 0,0.869 0.712,1.581 1.581,1.581 l 0,0 c 0.869,0 1.581,-0.712 1.581,-1.581 l 0,-9.35 C 1.581,0.711 0.869,0 0,0" /></g><g
           transform="translate(59.9072,72.1104)"
           id="g60"><path
             id="path62"
             style="fill:#850f01;fill-opacity:1;fill-rule:nonzero;stroke:none"
             d="m 0,0 -28.071,0 c -0.305,0 -0.554,0.249 -0.554,0.554 0,0.305 0.249,0.554 0.554,0.554 L 0,1.108 C 0.305,1.108 0.554,0.859 0.554,0.554 0.554,0.249 0.305,0 0,0" /></g><g
           transform="translate(50.5683,61.4682)"
           id="g64"><path
             id="path66"
             style="fill:#850f01;fill-opacity:1;fill-rule:nonzero;stroke:none"
             d="m 0,0 0,0 c -0.74,0 -1.345,0.605 -1.345,1.345 l 0,3.782 c 0,0.739 0.605,1.345 1.345,1.345 l 0,0 c 0.74,0 1.345,-0.606 1.345,-1.345 l 0,-3.782 C 1.345,0.605 0.74,0 0,0" /></g><g
           transform="translate(42.7452,56.2809)"
           id="g68"><path
             id="path70"
             style="fill:#a6724f;fill-opacity:1;fill-rule:nonzero;stroke:none"
             d="m 0,0 -1.29,0 c -0.299,0 -0.544,0.245 -0.544,0.544 l 0,3.732 c 0,0.299 0.245,0.544 0.544,0.544 l 1.29,0 c 0.299,0 0.544,-0.245 0.544,-0.544 l 0,-3.732 C 0.544,0.245 0.299,0 0,0" /></g><g
           transform="translate(42.7678,26.279)"
           id="g72"><path
             id="path74"
             style="fill:#a6724f;fill-opacity:1;fill-rule:nonzero;stroke:none"
             d="m 0,0 -1.29,0 c -0.299,0 -0.544,0.245 -0.544,0.544 l 0,3.732 c 0,0.299 0.245,0.544 0.544,0.544 l 1.29,0 c 0.299,0 0.544,-0.245 0.544,-0.544 l 0,-3.732 C 0.544,0.245 0.299,0 0,0" /></g><g
           transform="translate(44.2751,230.3786)"
           id="g76"><path
             id="path78"
             style="fill:#0d418d;fill-opacity:1;fill-rule:nonzero;stroke:none"
             d="m 0,0 c -4.589,-0.777 -5.652,-1.859 -5.429,-5.36 0.133,-2.083 1.662,-3.579 3.774,-3.692 3.174,-0.168 4.63,0.991 5.169,4.233 1.658,-1.491 2.676,-3.393 4.006,-5.037 0.479,-0.593 0.512,-1.176 -0.316,-1.713 -2.143,-1.392 -4.23,-2.874 -6.316,-4.353 -1.056,-0.748 -1.791,-0.652 -2.546,0.491 -1.216,1.841 -2.615,3.56 -3.875,5.374 -0.903,1.301 -2.169,1.117 -3.392,0.895 -7.763,-1.406 -15.321,-3.505 -22.619,-6.554 -2.964,-1.238 -4.172,-3.922 -5.627,-6.361 -0.722,-1.211 0.497,-2.203 1.427,-2.934 2.008,-1.578 4.079,-3.076 6.11,-4.626 0.32,-0.244 0.799,-0.588 0.796,-0.881 -0.005,-0.525 -0.617,-0.598 -1.059,-0.741 -0.328,-0.106 -0.645,-0.243 -0.971,-0.355 -4.3,-1.479 -6.521,-0.67 -9.563,2.792 -2.353,2.677 -3.106,5.678 -3.177,9.104 -0.061,2.964 -0.66,5.921 -0.667,8.883 -0.006,2.718 1.221,5.242 2.374,7.637 0.487,1.01 2.232,0.909 3.429,1.11 0.484,0.082 1.137,-0.488 0.849,-1.332 -0.223,-0.652 -0.309,-1.357 -0.572,-1.989 -1.611,-3.868 -0.645,-3.922 1.959,-6.513 1.881,-1.872 3.803,-1.787 6.223,-1.128 4.814,1.311 9.587,2.572 13.88,5.268 1.332,0.838 2.169,1.664 1.906,3.293 -0.044,0.272 0.038,0.566 -0.013,0.835 -0.431,2.294 0.61,3.438 2.703,4.382 4.751,2.142 4.809,2.669 0.973,5.989 -2.61,2.258 -3.683,5.029 -3.676,8.381 0.019,10.611 0.056,21.223 -0.038,31.833 -0.017,1.898 0.566,2.418 2.37,2.299 2.224,-0.146 4.467,-0.078 6.699,-0.017 1.071,0.029 1.512,-0.107 1.501,-1.424 C -3.789,37.737 -4.099,27.667 -3.595,17.64 -3.379,13.339 -3.105,9.015 -2.859,4.699 -2.752,2.823 -0.87,1.786 0,0" /></g><g
           transform="translate(61.8483,244.7911)"
           id="g80"><path
             id="path82"
             style="fill:#1a5bc0;fill-opacity:1;fill-rule:nonzero;stroke:none"
             d="m 0,0 c 5.582,0 11.164,-0.04 16.745,0.029 1.362,0.017 1.886,-0.373 1.757,-1.756 -0.104,-1.106 -0.021,-2.231 -0.021,-3.347 10e-4,-5.825 -0.068,-5.735 -4.775,-9.276 -2.645,-1.99 -4.834,-4.611 -7.561,-6.455 -3.289,-2.225 -6.741,-3.184 -11.144,-2.279 -4.966,1.022 -6.138,5.071 -8.751,8.003 -1.453,1.631 -2.591,3.543 -3.879,5.322 -0.499,0.689 -0.799,1.413 -0.78,2.298 0.043,1.952 0.093,3.911 -0.014,5.859 -0.073,1.332 0.43,1.64 1.677,1.627 C -11.164,-0.033 -5.582,0 0,0" /></g><g
           transform="translate(73.2057,300.6794)"
           id="g84"><path
             id="path86"
             style="fill:#1761cf;fill-opacity:1;fill-rule:nonzero;stroke:none"
             d="m 0,0 c 0,5.516 -0.038,11.032 0.019,16.547 0.022,2.222 -0.756,4.163 -1.743,6.059 -0.365,0.699 -0.958,1.121 -1.825,1.201 -1.715,0.158 -1.988,1.239 -1.938,2.806 0.121,3.836 0.079,7.68 0.016,11.519 -0.019,1.171 0.32,1.576 1.526,1.551 3.419,-0.071 6.842,-0.073 10.262,10e-4 1.236,0.027 1.847,-0.258 1.654,-1.607 -0.229,-1.606 0.748,-1.818 2.052,-1.802 0.687,0.009 1.772,0.476 2.011,-0.453 0.242,-0.937 0.64,-2.34 -0.282,-2.955 C 8.5,30.694 9.237,27.463 9.228,24.411 9.224,22.948 9.203,21.671 7.95,20.462 6.574,19.135 5.091,19.559 3.65,19.592 2.144,19.626 1.378,19.287 1.67,17.651 1.718,17.38 1.714,17.088 1.67,16.815 1.335,14.739 2.001,13.666 4.289,14.088 5.741,14.356 6.344,13.91 6.329,12.229 6.241,2.456 6.247,-7.32 6.325,-17.094 6.337,-18.69 5.877,-19.073 4.335,-19.048 0.001,-18.979 0,-19.051 0,-14.662 0,-9.775 0,-4.887 0,0" /></g><g
           transform="translate(61.9187,250.2983)"
           id="g88"><path
             id="path90"
             style="fill:#417099;fill-opacity:1;fill-rule:nonzero;stroke:none"
             d="m 0,0 c -5.499,-0.019 -10.999,-0.013 -16.498,-0.078 -1.151,-0.013 -1.578,0.312 -1.571,1.522 0.046,7.519 0.046,15.039 0,22.558 -0.007,1.21 0.42,1.535 1.571,1.521 C -10.999,25.459 -5.499,25.465 0,25.445 0.901,24.783 0.952,23.797 0.961,22.82 1.025,16.088 1.025,9.357 0.961,2.626 0.952,1.649 0.901,0.662 0,0" /></g><g
           transform="translate(53.0902,302.002)"
           id="g92"><path
             id="path94"
             style="fill:#0d418d;fill-opacity:1;fill-rule:nonzero;stroke:none"
             d="m 0,0 c 0,-4.254 -0.03,-8.509 0.02,-12.763 0.013,-1.061 -0.392,-1.775 -1.05,-2.577 -3.069,-3.736 -6.713,-5.727 -11.769,-5.065 -3.017,0.395 -6.128,0.064 -9.196,0.083 -0.586,0.003 -1.4,-0.214 -1.491,0.695 -0.084,0.835 0.686,0.839 1.261,1.008 2.778,0.815 5.534,1.709 8.329,2.457 5.275,1.412 8.683,4.794 8.506,10.611 -0.233,7.665 -0.061,15.342 -0.049,23.014 0.001,0.534 -0.26,1.264 0.227,1.559 0.595,0.362 1.205,-0.214 1.695,-0.536 C -1.176,16.945 0.116,14.87 0.029,11.925 -0.088,7.953 0,3.975 0,0" /></g><g
           transform="translate(31.3008,309.5192)"
           id="g96"><path
             id="path98"
             style="fill:#0d418d;fill-opacity:1;fill-rule:nonzero;stroke:none"
             d="m 0,0 c -0.001,3.486 0.052,6.974 -0.026,10.458 -0.032,1.398 0.325,1.998 1.849,1.952 3.274,-0.1 6.554,-0.062 9.83,-0.015 1.162,0.017 1.787,-0.209 1.777,-1.586 -0.052,-7.182 -0.051,-14.364 0,-21.546 0.009,-1.338 -0.538,-1.644 -1.741,-1.624 -3.346,0.054 -6.694,0.065 -10.04,-0.004 -1.291,-0.027 -1.692,0.441 -1.67,1.697 C 0.041,-7.113 0.001,-3.556 0,0" /></g><g
           transform="translate(19.9927,201.656)"
           id="g100"><path
             id="path102"
             style="fill:#471308;fill-opacity:1;fill-rule:nonzero;stroke:none"
             d="m 0,0 c -0.664,-0.044 -1.194,0.222 -1.719,0.621 -1.662,1.263 -3.361,2.477 -5.037,3.722 -2.487,1.847 -2.342,4.308 0.616,5.449 5.182,2 10.266,4.358 15.823,5.251 0.479,0.077 0.955,0.187 1.428,0.301 5.081,1.224 5.045,1.199 8.132,-2.97 0.933,-1.261 0.723,-2.099 -0.447,-2.959 C 16.868,8 14.625,7.192 12.537,6.087 9.088,4.264 5.63,2.458 2.173,0.651 1.493,0.296 0.808,-0.063 0,0" /></g><g
           transform="translate(68.9856,275.7415)"
           id="g104"><path
             id="path106"
             style="fill:#578ea5;fill-opacity:1;fill-rule:nonzero;stroke:none"
             d="m 0,0 c 2.925,0.02 5.85,0.011 8.774,0.075 0.981,0.022 1.333,-0.292 1.329,-1.302 -0.032,-7.662 -0.032,-15.325 0,-22.988 0.004,-1.009 -0.348,-1.323 -1.329,-1.301 -2.924,0.064 -5.849,0.055 -8.774,0.075 -0.9,0.663 -0.95,1.649 -0.959,2.626 -0.064,6.73 -0.064,13.459 0,20.189 C -0.95,-1.649 -0.9,-0.663 0,0" /></g><g
           transform="translate(68.9856,275.7415)"
           id="g108"><path
             id="path110"
             style="fill:#abe2f7;fill-opacity:1;fill-rule:nonzero;stroke:none"
             d="m 0,0 c 0,-8.48 0,-16.961 0,-25.441 -2.356,-0.001 -4.711,-0.002 -7.067,-0.002 0,8.482 0,16.963 0,25.445 C -4.711,0.001 -2.356,0.001 0,0" /></g><g
           transform="translate(50.3933,326.0948)"
           id="g112"><path
             id="path114"
             style="fill:#0d418d;fill-opacity:1;fill-rule:nonzero;stroke:none"
             d="m 0,0 c -1.809,-0.001 -3.619,-0.016 -5.428,0.01 -0.519,0.007 -1.105,-0.139 -1.43,0.543 -0.846,1.783 0.214,5.942 1.852,7.024 2.013,1.329 4.038,2.641 6.071,3.94 1.726,1.104 3.647,0.545 5.49,0.566 C 7.332,12.092 7.292,11.38 7.294,10.832 7.305,7.7 7.271,4.569 7.318,1.438 7.334,0.348 6.913,-0.042 5.845,-0.014 3.898,0.037 1.949,0.001 0,0" /></g><g
           transform="translate(44.329,294.2381)"
           id="g116"><path
             id="path118"
             style="fill:#a19c96;fill-opacity:1;fill-rule:nonzero;stroke:none"
             d="m 0,0 c -0.964,-3.39 -3.595,-4.562 -6.307,-5.379 -4.345,-1.308 -8.799,-2.259 -13,-4.037 -0.981,-0.415 -1.734,-0.485 -1.699,0.995 0.056,2.435 0.034,4.872 0.005,7.308 -0.009,0.766 0.201,1.129 1.048,1.126 C -13.362,-0.01 -6.772,0 0,0" /></g><g
           transform="translate(82.8357,231.8827)"
           id="g120"><path
             id="path122"
             style="fill:#1761cf;fill-opacity:1;fill-rule:nonzero;stroke:none"
             d="m 0,0 c -0.034,-5.096 0.761,-9.564 3.371,-13.558 0.862,-1.318 -0.047,-2.674 -0.116,-3.981 -0.069,-1.31 -0.25,-2.684 -0.447,-4.592 -1.245,2.205 -2.315,3.914 -3.193,5.716 -0.767,1.573 -1.757,2.547 -3.625,2.538 -0.868,-0.004 -1.772,0.248 -2.601,0.547 -2.473,0.893 -3.195,4.116 -1.316,5.919 C -5.431,-5.016 -2.876,-2.683 0,0" /></g><g
           transform="translate(11.9942,220.1872)"
           id="g124"><path
             id="path126"
             style="fill:#471308;fill-opacity:1;fill-rule:nonzero;stroke:none"
             d="m 0,0 c -1.788,0.018 -3.32,2.142 -2.782,3.857 0.985,3.144 0.985,3.138 4.32,3.148 3.958,0.012 7.93,-0.226 11.831,0.772 0.518,0.133 1.332,0.47 1.633,-0.366 C 15.243,6.738 15.108,6.061 14.516,5.512 12.62,3.755 2.709,-0.028 0,0" /></g><g
           transform="translate(21.4635,301.0821)"
           id="g128"><path
             id="path130"
             style="fill:#8a1001;fill-opacity:1;fill-rule:nonzero;stroke:none"
             d="m 0,0 c 0.606,-0.197 1.197,-0.372 1.776,-0.58 3.03,-1.087 3.03,-1.09 3.031,2.24 0,4.883 0.01,9.766 -0.006,14.648 -0.007,2.199 -0.319,2.39 -2.266,1.493 C 2.157,17.627 1.806,17.38 1.415,17.248 0.941,17.088 0.39,16.412 -0.024,17 -0.42,17.563 -0.439,18.488 0.26,18.87 1.941,19.787 3.517,21.028 5.641,20.828 6.503,20.747 6.898,20.456 6.897,19.572 6.886,12.178 6.893,4.784 6.888,-2.609 6.888,-3.023 6.919,-3.635 6.499,-3.717 4.995,-4.011 3.402,-4.267 2.054,-3.325 0.962,-2.561 -0.823,-2.09 0,0" /></g><g
           transform="translate(60.6342,332.8034)"
           id="g132"><path
             id="path134"
             style="fill:#1a5bc0;fill-opacity:1;fill-rule:nonzero;stroke:none"
             d="M 0,0 C 0,1.955 0.06,3.912 -0.022,5.863 -0.073,7.082 0.224,7.57 1.58,7.572 5.028,7.575 5.028,7.651 5.028,4.172 5.028,0.821 4.984,-2.53 5.051,-5.879 5.075,-7.097 4.807,-7.757 3.447,-7.562 2.968,-7.493 2.463,-7.493 1.984,-7.562 0.481,-7.776 -0.167,-7.3 -0.035,-5.651 0.115,-3.779 0,-1.885 0,0" /></g><g
           transform="translate(82.4811,244.8222)"
           id="g136"><path
             id="path138"
             style="fill:#1761cf;fill-opacity:1;fill-rule:nonzero;stroke:none"
             d="m 0,0 0,32.776 c 1.127,0.062 1.223,-0.603 1.211,-1.45 -0.031,-2.298 0.08,-4.601 -0.039,-6.893 -0.089,-1.71 0.452,-2.512 2.232,-2.262 0.41,0.058 0.837,0.035 1.252,-10e-4 0.376,-0.033 0.932,0.191 1.029,-0.367 C 5.728,21.555 5.448,21.074 5.205,20.98 3.016,20.128 2.823,17.789 1.628,16.208 0.89,15.23 0.778,13.798 1.546,12.897 3.055,11.125 2.202,9.377 1.867,7.625 1.383,5.091 0.766,2.582 0.206,0.062 0.137,0.042 0.069,0.021 0,0" /></g><g
           transform="translate(21.2448,309.5616)"
           id="g140"><path
             id="path142"
             style="fill:#0d418d;fill-opacity:1;fill-rule:nonzero;stroke:none"
             d="M 0,0 C 0,1.673 -0.018,3.347 0.011,5.02 0.02,5.539 -0.182,6.174 0.505,6.48 1.502,6.924 2.472,8.041 3.48,7.636 4.182,7.355 3.746,5.996 3.754,5.124 3.788,1.568 3.825,-1.989 3.722,-5.542 3.701,-6.276 4.552,-7.821 2.974,-7.701 1.695,-7.603 -0.05,-7.314 -0.007,-5.229 0.029,-3.487 0,-1.743 0,0" /></g><g
           transform="translate(82.4255,306.5913)"
           id="g144"><path
             id="path146"
             style="fill:#1761cf;fill-opacity:1;fill-rule:nonzero;stroke:none"
             d="M 0,0 C 1.325,-0.426 1.261,-1.277 1.26,-2.121 1.254,-9.437 1.269,-16.753 1.233,-24.07 c -0.003,-0.568 0.482,-1.623 -0.66,-1.599 -0.938,0.021 -0.552,0.972 -0.554,1.504 C -0.009,-16.155 0,-8.146 0,0" /></g><g
           transform="translate(61.9186,277.1184)"
           id="g148"><path
             id="path150"
             style="fill:#417099;fill-opacity:1;fill-rule:nonzero;stroke:none"
             d="m 0,0 -17.621,0 c 0.784,1.287 1.778,1.676 3.169,1.648 C -9.636,1.549 -4.817,1.578 0,1.559 0.457,1.039 0.457,0.52 0,0" /></g><g
           transform="translate(87.5111,257.3143)"
           id="g152"><path
             id="path154"
             style="fill:#1761cf;fill-opacity:1;fill-rule:nonzero;stroke:none"
             d="M 0,0 C -1.548,0.128 -2.208,0.764 -2.144,2.034 -2.072,3.458 -1.007,4.279 0.062,3.737 2.53,2.485 5.062,3.219 7.55,2.986 8.4,2.907 9.59,3.234 9.512,1.839 9.444,0.641 8.349,0.957 7.561,0.884 4.936,0.639 2.177,1.652 0,0" /></g><g
           transform="translate(61.9186,247.7839)"
           id="g156"><path
             id="path158"
             style="fill:#417099;fill-opacity:1;fill-rule:nonzero;stroke:none"
             d="m 0,0 c -5.563,-0.019 -11.126,-0.045 -16.69,-0.043 -0.487,0 -1.277,-0.248 -1.277,0.613 10e-4,0.861 0.79,0.613 1.277,0.613 C -11.126,1.185 -5.563,1.159 0,1.14 0.312,0.76 0.312,0.38 0,0" /></g><g
           transform="translate(68.9856,278.675)"
           id="g160"><path
             id="path162"
             style="fill:#578ea5;fill-opacity:1;fill-rule:nonzero;stroke:none"
             d="m 0,0 c 2.921,0.02 5.842,0.049 8.763,0.051 0.577,0.001 1.314,0.201 1.314,-0.828 0,-1.029 -0.737,-0.829 -1.314,-0.829 C 5.842,-1.604 2.921,-1.574 0,-1.554 -0.457,-1.036 -0.457,-0.518 0,0" /></g><g
           transform="translate(72.1084,343.3099)"
           id="g164"><path
             id="path166"
             style="fill:#334877;fill-opacity:1;fill-rule:nonzero;stroke:none"
             d="m 0,0 c -0.901,0 -1.803,-0.019 -2.704,0.006 -0.629,0.018 -0.778,0.462 -0.779,1.002 0,0.538 0.144,0.995 0.775,1.003 1.802,0.024 3.606,0.021 5.409,0.016 C 3.447,2.024 3.594,1.542 3.581,0.908 3.568,0.312 3.294,0.001 2.705,-0.007 1.803,-0.018 0.902,-0.01 0,-0.01 0,-0.007 0,-0.003 0,0" /></g><g
           transform="translate(68.9856,248.9213)"
           id="g168"><path
             id="path170"
             style="fill:#578ea5;fill-opacity:1;fill-rule:nonzero;stroke:none"
             d="M 0,0 C 2.922,0.02 5.843,0.054 8.764,0.045 9.246,0.044 10.031,0.319 10.031,-0.568 10.03,-1.454 9.246,-1.179 8.764,-1.181 5.843,-1.189 2.921,-1.155 0,-1.135 -0.31,-0.757 -0.31,-0.378 0,0" /></g><g
           transform="translate(68.9856,278.675)"
           id="g172"><path
             id="path174"
             style="fill:#abe2f7;fill-opacity:1;fill-rule:nonzero;stroke:none"
             d="m 0,0 c 0,-0.518 0,-1.036 0,-1.554 -2.356,-10e-4 -4.711,-0.002 -7.067,-0.003 0,0.52 0,1.04 0,1.559 C -4.711,0.001 -2.356,0.001 0,0" /></g><g
           transform="translate(68.9856,248.9213)"
           id="g176"><path
             id="path178"
             style="fill:#abe2f7;fill-opacity:1;fill-rule:nonzero;stroke:none"
             d="m 0,0 c 0,-0.378 0,-0.757 0,-1.135 -2.356,-10e-4 -4.711,-0.002 -7.067,-0.002 0,0.379 0,0.759 0,1.139 C -4.711,0.001 -2.356,0.001 0,0" /></g><g
           transform="translate(75.1306,21.0072)"
           id="g180"><path
             id="path182"
             style="fill:#c01d08;fill-opacity:1;fill-rule:nonzero;stroke:none"
             d="m 0,0 c -0.671,-0.664 -1.521,-0.372 -2.287,-0.374 -8.996,-0.023 -17.992,-0.036 -26.987,0.019 -0.882,0.005 -2.327,-0.694 -2.519,0.946 -0.132,1.132 -0.672,2.668 1.419,2.9 0.742,0.082 0.833,0.871 0.831,1.546 -0.004,1.767 -0.001,3.534 -0.004,5.301 0,0.577 -0.042,1.344 -0.637,1.427 -2.198,0.309 -1.67,1.925 -1.675,3.263 -0.019,5.462 0.001,10.924 -0.014,16.386 -0.003,1.073 -0.103,2.086 1.408,2.27 0.739,0.091 0.92,0.803 0.918,1.498 -0.003,1.686 -10e-4,3.373 -0.004,5.06 -0.001,0.594 -0.133,1.283 -0.744,1.367 -2.111,0.294 -1.455,1.87 -1.577,3.116 -0.14,1.434 0.194,2.2 1.919,2.173 1.618,-0.025 1.873,-0.765 1.81,-2.078 -0.055,-1.122 -0.092,-2.258 0.025,-3.371 0.215,-2.038 1.406,-3.182 3.472,-3.285 1.994,-0.1 3.548,1.245 3.792,3.233 0.058,0.475 0.02,0.963 0.022,1.444 0.021,4.005 0.02,4.005 4.14,4.005 4.98,0 9.96,-0.018 14.94,0.012 1.16,0.007 2.013,-0.058 2.008,-1.602 C 0.203,30.318 0.194,15.38 0.165,0.441 0.164,0.292 0.056,0.144 -0.002,-0.005 -0.54,0.804 -0.258,1.711 -0.26,2.566 c -0.021,12.831 -0.015,25.662 -0.015,38.493 0,-12.83 -0.006,-25.66 0.016,-38.49 C -0.258,1.715 -0.543,0.808 0,0" /></g><g
           transform="translate(12.3669,182.6153)"
           id="g184"><path
             id="path186"
             style="fill:#1a5bc0;fill-opacity:1;fill-rule:nonzero;stroke:none"
             d="m 0,0 c 4.736,-1.243 8.149,-4.563 11.85,-7.463 7.952,-6.231 15.198,-13.239 22.5,-20.189 0.345,-0.329 0.74,-0.61 1.125,-0.895 3.203,-2.368 3.16,-4.295 -0.35,-6.393 -3.547,-2.119 -7.433,-3.267 -11.587,-3.518 -0.963,-0.059 -1.109,0.591 -1.269,1.12 -1.248,4.116 -4.176,6.278 -8.22,7.094 -1.484,0.299 -2.595,1.103 -3.666,2.068 -4.824,4.343 -11.094,4.916 -16.982,6.463 -2.131,0.561 -3.589,1.664 -3.963,3.93 0.287,4.503 0.421,9.006 -0.069,13.505 1.425,3.797 4.856,5.682 8.262,4.539 C -1.657,-0.53 -0.821,-0.195 0,0" /></g><g
           transform="translate(75.554,105.9255)"
           id="g188"><path
             id="path190"
             style="fill:#c01d08;fill-opacity:1;fill-rule:nonzero;stroke:none"
             d="m 0,0 c -0.643,0 -1.286,-0.011 -1.929,0.002 -1.363,0.027 -2.908,-0.327 -4.043,0.2 -1.463,0.68 -0.362,2.466 -0.722,3.712 -0.044,0.154 -0.03,0.359 -0.127,0.457 -3.135,3.147 -1.928,6.848 -1.169,10.374 1.638,7.614 3.216,15.282 5.974,22.566 1.913,5.05 6.414,8.015 10.873,10.743 2.137,1.307 4.522,1.975 7.016,2.335 2.066,0.298 2.065,-0.458 1.497,-2.104 C 15.735,43.544 14.077,38.8 12.744,33.969 10.726,26.652 10.355,19.033 9.007,11.588 8.482,8.686 8.082,5.761 7.575,2.854 7.242,0.941 6.465,-0.407 4.093,-0.037 2.759,0.171 1.366,0 0,0" /></g><g
           transform="translate(28.2952,66.4216)"
           id="g192"><path
             id="path194"
             style="fill:#8a1001;fill-opacity:1;fill-rule:nonzero;stroke:none"
             d="m 0,0 c 0.662,-0.679 0.338,-1.529 0.339,-2.291 0.023,-13.584 0.011,-27.169 0.026,-40.753 0.001,-1.391 0.014,-2.725 -1.201,-3.73 -0.772,-0.64 -0.65,-1.593 -0.654,-2.473 -0.009,-2.17 -0.064,-4.342 0.009,-6.51 0.049,-1.476 -0.591,-2.011 -2,-1.984 -2.411,0.045 -4.823,0.038 -7.234,0.003 -1.323,-0.019 -1.833,0.53 -1.831,1.875 0.029,16.157 0.026,32.314 0.008,48.47 -0.002,1.115 0.448,1.774 1.437,2.243 3.554,1.683 7.085,3.415 10.625,5.128 0.46,-0.831 0.228,-1.734 0.229,-2.6 0.017,-13.102 0.008,-26.204 0.021,-39.306 0.001,-0.787 -0.165,-1.597 0.178,-2.474 0.031,-0.21 0.254,0.287 -0.023,0.124 -0.072,-0.043 -0.122,0.026 -0.123,0.207 -0.086,14.465 -0.032,28.931 -0.032,43.397 0,0.26 0.129,0.457 0.226,0.674" /></g><g
           transform="translate(32.5279,136.4063)"
           id="g196"><path
             id="path198"
             style="fill:#c01d08;fill-opacity:1;fill-rule:nonzero;stroke:none"
             d="m 0,0 c 0.905,2.872 3.131,3.548 5.845,3.892 7.384,0.936 13.618,3.71 17.074,10.964 4.447,9.337 9.074,18.588 13.657,27.86 0.367,0.744 0.565,1.594 1.537,2.027 2.887,1.288 4.422,0.433 4.26,-2.702 C 42.204,38.777 41.767,35.527 41.491,32.267 41.412,31.34 40.729,30.89 40.186,30.326 37.983,28.033 36.752,25.375 36.823,22.129 36.892,18.996 36.647,15.845 36.885,12.728 37.195,8.667 35.884,5.034 34.511,1.372 34.279,-0.647 32.996,-0.829 31.244,-0.814 21.694,-0.732 12.142,-0.782 2.591,-0.763 1.677,-0.761 0.613,-1.097 0,0" /></g><g
           transform="translate(30.8434,44.4522)"
           id="g200"><path
             id="path202"
             style="fill:#971a09;fill-opacity:1;fill-rule:nonzero;stroke:none"
             d="m 0,0 c 0,6.993 0.053,13.987 -0.036,20.978 -0.024,1.895 0.582,2.608 2.485,2.452 1.677,-0.137 3.377,0.039 5.06,-0.055 0.916,-0.052 2.431,0.57 2.462,-1.048 0.025,-1.339 1.07,-3.135 -0.999,-3.98 C 8.05,17.97 7.891,17.248 7.888,16.405 7.883,14.958 7.861,13.511 7.902,12.065 7.915,11.6 7.975,10.827 8.228,10.726 11.069,9.58 10.007,7.133 10.054,5.167 c 0.112,-4.659 0.041,-9.323 0.032,-13.985 -0.003,-1.168 0.274,-2.439 -1.441,-2.825 -0.705,-0.158 -0.743,-0.982 -0.749,-1.634 -0.013,-1.687 -0.01,-3.375 0.003,-5.063 0.006,-0.761 0.167,-1.481 1.033,-1.698 1.664,-0.418 1.137,-1.731 1.073,-2.754 -0.084,-1.339 -1.237,-1.003 -2.05,-1.025 -1.767,-0.049 -3.543,0.075 -5.303,-0.042 -1.985,-0.132 -2.705,0.643 -2.683,2.639 C 0.049,-14.147 0,-7.073 0,0" /></g><g
           transform="translate(24.9258,122.0829)"
           id="g204"><path
             id="path206"
             style="fill:#8a1001;fill-opacity:1;fill-rule:nonzero;stroke:none"
             d="m 0,0 c 0,-2.008 -0.087,-4.022 0.026,-6.024 0.098,-1.734 -0.439,-2.554 -2.295,-2.392 -1.355,0.118 -2.733,-0.051 -4.094,0.034 -1.814,0.113 -2.429,-0.723 -2.35,-2.445 0.084,-1.844 -0.05,-3.698 0.033,-5.542 0.067,-1.516 -0.434,-2.2 -2.049,-2.146 -2.648,0.089 -5.302,0.072 -7.952,0.005 -1.435,-0.036 -2.022,0.497 -2.002,1.959 0.054,4.016 0.029,8.034 0.012,12.05 -0.003,0.922 0.194,1.776 0.777,2.475 2.663,3.196 5.354,6.369 8.033,9.552 0.357,0.424 0.635,0.957 1.297,0.957 3.132,0.004 6.264,0.02 9.396,-0.006 C -0.009,8.468 -0.017,7.564 -0.012,6.748 0.001,4.499 -0.008,2.249 -0.008,0 -0.005,0 -0.003,0 0,0" /></g><g
           transform="translate(15.7554,101.1331)"
           id="g208"><path
             id="path210"
             style="fill:#8a1001;fill-opacity:1;fill-rule:nonzero;stroke:none"
             d="m 0,0 c 0.613,-0.942 0.842,-2.261 2.467,-2.11 0.894,0.083 1.233,-0.608 1.235,-1.433 0.007,-2.807 -0.006,-5.614 0.014,-8.421 0.008,-1.103 -0.49,-1.607 -1.594,-1.597 -0.922,0.008 -1.597,-0.416 -1.597,-1.404 0.002,-4.005 0.042,-8.01 0.101,-12.015 0.005,-0.286 0.279,-0.567 0.428,-0.85 0.066,-1.209 -0.862,-0.824 -1.453,-0.857 -2.103,-0.118 -4.217,0.161 -6.315,-0.167 -1.333,1.255 -2.66,2.517 -4.001,3.764 -0.567,0.527 -0.78,1.167 -0.778,1.927 0.011,7.346 0.006,14.693 0.033,22.039 0.001,0.362 0.255,0.723 0.392,1.085 C -7.378,-0.331 -3.688,-0.42 0,0" /></g><g
           transform="translate(66.4108,73.1572)"
           id="g212"><path
             id="path214"
             style="fill:#c01d08;fill-opacity:1;fill-rule:nonzero;stroke:none"
             d="m 0,0 c 4.402,3.261 2.847,7.859 2.71,12.132 -0.021,0.625 -0.181,1.245 -0.277,1.866 -0.041,3.294 0.043,6.589 -0.041,9.88 -0.037,1.444 0.412,2.057 1.922,1.955 1.563,-0.106 3.138,-0.024 4.331,-0.024 -1.833,0.207 -4.073,-0.336 -6.269,0.252 3.485,0.653 7.002,0.161 10.502,0.278 1.639,0.056 1.304,-1.091 1.025,-1.986 C 13.17,22.005 12.341,19.686 11.55,17.355 11.063,12.155 11.368,6.941 11.395,1.737 11.405,-0.27 10.852,-0.919 8.856,-0.764 6.621,-0.591 4.362,-0.739 2.114,-0.717 1.346,-0.709 0.46,-0.956 0,0" /></g><g
           transform="translate(29.7455,130.9961)"
           id="g216"><path
             id="path218"
             style="fill:#971a09;fill-opacity:1;fill-rule:nonzero;stroke:none"
             d="m 0,0 c 6.803,0.029 13.605,0.038 20.407,0.104 1.342,0.013 1.989,-0.506 1.791,-1.829 -0.26,-1.735 0.882,-3.772 -1.409,-5.101 -0.986,-0.571 -0.595,-6.802 0.315,-7.489 0.515,-0.389 1.231,-0.565 0.992,-1.38 -0.286,-0.976 -1.175,-0.576 -1.832,-0.655 -0.312,-0.038 -0.637,0.039 -0.955,0.063 -0.249,0.227 -0.49,0.459 -0.667,0.749 -1.28,2.507 -2.352,5.117 -3.707,7.587 -0.351,0.64 -0.529,1.652 -1.674,1.004 -0.272,-0.177 -0.549,-0.336 -0.864,-0.414 -1.234,0.044 -2.526,0.476 -3.6,-0.552 C 7.739,-7.943 7.298,-7.131 6.785,-6.424 6.331,-5.798 6.103,-4.907 5.06,-5.003 4.637,-5.024 4.225,-5.094 3.842,-5.278 2.73,-5.996 3.407,-6.829 3.751,-7.562 c 0.873,-1.863 1.832,-3.683 2.841,-5.48 0.566,-1.008 1.371,-2.153 0.125,-3.294 -2.407,0.203 -4.875,-0.596 -7.23,0.446 0.609,3.148 0.105,6.328 0.277,9.488 C -0.119,-4.269 -0.51,-2.118 0,0" /></g><g
           transform="translate(60.2682,131.0903)"
           id="g220"><path
             id="path222"
             style="fill:#aa1804;fill-opacity:1;fill-rule:nonzero;stroke:none"
             d="m 0,0 c 1.453,-0.19 3.737,0.782 4.797,-0.454 0.986,-1.15 -0.429,-3.153 -0.695,-4.796 -0.534,-3.298 -1.26,-6.565 -1.816,-9.86 -0.143,-0.848 -0.352,-1.348 -1.285,-1.34 -1.927,0.016 -3.855,-0.006 -5.782,0.012 -0.465,0.005 -1.012,-0.005 -1.095,0.656 -0.064,0.51 0.166,0.816 0.582,1.18 1.765,1.545 1.566,6.521 -0.024,8.302 -1.412,1.582 -0.689,3.671 -0.493,5.475 0.155,1.437 1.705,0.688 2.639,0.8 C -2.222,0.089 -1.248,0 0,0" /></g><g
           transform="translate(49.169,163.1363)"
           id="g224"><path
             id="path226"
             style="fill:#891001;fill-opacity:1;fill-rule:nonzero;stroke:none"
             d="M 0,0 C 0,0.641 0.049,1.286 -0.008,1.922 -0.405,6.388 2.449,7.283 6.19,6.884 7.955,6.696 9.396,3.927 8.604,2.161 7.296,-0.758 5.781,-3.584 4.371,-6.458 3.905,-7.408 3.486,-7.352 2.531,-6.863 -0.518,-5.305 -0.055,-2.611 0,0" /></g><g
           transform="translate(23.2593,67.0289)"
           id="g228"><path
             id="path230"
             style="fill:#860f01;fill-opacity:1;fill-rule:nonzero;stroke:none"
             d="m 0,0 c -2.046,-1.027 -4.087,-2.063 -6.142,-3.074 -0.648,-0.319 -1.209,-0.368 -1.401,0.583 -0.229,1.137 -1.177,1.858 -1.96,3.063 l 9.348,0 C -0.103,0.382 -0.052,0.191 0,0" /></g><g
           transform="translate(28.2952,66.4216)"
           id="g232"><path
             id="path234"
             style="fill:#8e1001;fill-opacity:1;fill-rule:nonzero;stroke:none"
             d="m 0,0 0,-44.108 c -0.159,-0.001 -0.318,-0.001 -0.476,-0.002 l 0,44.088 C -0.318,-0.015 -0.159,-0.007 0,0" /></g><g
           transform="translate(32.5279,136.4063)"
           id="g236"><path
             id="path238"
             style="fill:#c51e08;fill-opacity:1;fill-rule:nonzero;stroke:none"
             d="m 0,0 c 0.978,-0.423 2.007,-0.532 3.06,-0.531 9.31,0.003 18.62,0.03 27.93,-0.029 1.631,-0.01 2.791,0.477 3.521,1.932 C 34.772,-0.36 34.335,-1.186 32.276,-1.165 22.125,-1.061 11.971,-1.137 1.819,-1.069 1.216,-1.065 -0.379,-1.975 0,0" /></g><g
           transform="translate(68.7867,99.2177)"
           id="g240"><path
             id="path242"
             style="fill:#c41e08;fill-opacity:1;fill-rule:nonzero;stroke:none"
             d="m 0,0 9.859,0 0.016,-0.498 c -2.226,0 -4.455,-0.064 -6.678,0.019 -1.981,0.074 -2.66,-0.8 -2.711,-2.733 -0.077,-2.95 0.526,-5.943 -0.429,-8.85 C -0.648,-8.045 -0.52,-4.023 0,0" /></g><g
           transform="translate(9.0414,72.2788)"
           id="g244"><path
             id="path246"
             style="fill:#8f1101;fill-opacity:1;fill-rule:nonzero;stroke:none"
             d="m 0,0 c 1.625,0.661 3.331,0.319 5.001,0.389 0.969,0.041 1.93,0.047 2.767,0.636 3.819,0 7.639,0 11.945,0 C 18.099,-0.372 5.031,-0.775 0,0" /></g><g
           transform="translate(66.4108,73.1572)"
           id="g248"><path
             id="path250"
             style="fill:#c51e08;fill-opacity:1;fill-rule:nonzero;stroke:none"
             d="m 0,0 c 3.137,-0.907 6.339,-0.436 9.512,-0.382 1.534,0.026 1.573,1.33 1.576,2.482 0.012,4.07 0.008,8.14 0.013,12.21 10e-4,1.036 -0.055,2.082 0.449,3.045 C 11.582,11.752 11.591,6.149 11.663,0.547 11.679,-0.695 11.221,-1.162 9.987,-1.143 6.865,-1.097 3.742,-1.149 0.619,-1.117 -0.086,-1.11 -1.519,-1.321 0,0" /></g><g
           transform="translate(25.9489,141.1789)"
           id="g252"><path
             id="path254"
             style="fill:#850f01;fill-opacity:1;fill-rule:nonzero;stroke:none"
             d="M 0,0 C 0.285,2.11 1.629,3.059 3.254,3.778 4.318,4.249 4.46,3.387 4.667,2.752 4.85,2.194 5.012,1.083 4.289,1.281 2.56,1.754 1.583,0.275 0,0" /></g><g
           transform="translate(29.7455,130.9961)"
           id="g256"><path
             id="path258"
             style="fill:#9c1b09;fill-opacity:1;fill-rule:nonzero;stroke:none"
             d="m 0,0 c 0.001,-4.292 0.002,-8.584 0.001,-12.876 0,-1.033 0.042,-2.075 -0.514,-3.014 -0.038,4.82 -0.082,9.64 -0.104,14.46 C -0.619,-0.891 -0.678,-0.271 0,0" /></g><g
           transform="translate(1.7354,178.3372)"
           id="g260"><path
             id="path262"
             style="fill:#1b5ec7;fill-opacity:1;fill-rule:nonzero;stroke:none"
             d="M 0,0 C 0.881,-4.497 0.741,-9 0.069,-13.505 -0.337,-9.005 -0.202,-4.503 0,0" /></g><g
           transform="translate(15.7554,101.1331)"
           id="g264"><path
             id="path266"
             style="fill:#8f1101;fill-opacity:1;fill-rule:nonzero;stroke:none"
             d="M 0,0 C -3.687,-0.78 -7.376,-0.727 -11.068,-0.039 -7.38,0.254 -3.69,0.186 0,0" /></g><g
           transform="translate(12.3669,182.6153)"
           id="g268"><path
             id="path270"
             style="fill:#1b5ec8;fill-opacity:1;fill-rule:nonzero;stroke:none"
             d="M 0,0 C -0.85,-0.46 -1.647,-0.437 -2.369,0.261 -1.575,0.213 -0.751,0.441 0,0" /></g><g
           transform="translate(75.1306,21.0072)"
           id="g272"><path
             id="path274"
             style="fill:#c61e08;fill-opacity:1;fill-rule:nonzero;stroke:none"
             d="m 0,0 c -0.455,0.799 -0.513,1.676 -0.513,2.567 0.002,13.896 0.001,27.791 0.007,41.687 0,0.305 0.064,0.611 0.504,0.907 0,-15.055 0,-30.111 0,-45.166 C -0.002,-0.005 0,0 0,0" /></g><g
           transform="translate(12.1316,173.021)"
           id="g276"><path
             id="path278"
             style="fill:#1b5ec7;fill-opacity:1;fill-rule:nonzero;stroke:none"
             d="M 0,0 C -0.369,-1.109 -0.238,-2.244 -0.183,-3.376" /></g><g
           transform="translate(38.9045,157.097)"
           id="g280"><path
             id="path282"
             style="fill:#1b5ec7;fill-opacity:1;fill-rule:nonzero;stroke:none"
             d="M 0,0 C 0.573,-0.962 0.57,-1.926 0.012,-2.892 -0.375,-1.93 -0.358,-0.966 0,0" /></g><g
           transform="translate(31.2817,22.7924)"
           id="g284"><path
             id="path286"
             style="fill:#9b1b09;fill-opacity:1;fill-rule:nonzero;stroke:none"
             d="m 0,0 0,43.324 c 0.079,0.001 0.158,0.001 0.236,0.002 l 0,-43.332 C 0.158,-0.004 0.079,-0.002 0,0" /></g><g
           transform="translate(61.098,102.0962)"
           id="g288"><path
             id="path290"
             style="fill:#8e8691;fill-opacity:1;fill-rule:nonzero;stroke:none"
             d="M 0,0 C -4.584,-0.948 -9.214,-0.268 -13.822,-0.389" /></g><g
           transform="translate(53.0146,0)"
           id="g292"><path
             id="path294"
             style="fill:#aa1907;fill-opacity:1;fill-rule:nonzero;stroke:none"
             d="m 0,0 -4.893,0 c -1.629,0 -2.963,1.333 -2.963,2.963 l 0,0 c 0,1.63 1.334,2.963 2.963,2.963 l 4.893,0 c 1.63,0 2.963,-1.333 2.963,-2.963 l 0,0 C 2.963,1.333 1.63,0 0,0" /></g><g
           transform="translate(74.2271,8.6792)"
           id="g296"><path
             id="path298"
             style="fill:#aa1804;fill-opacity:1;fill-rule:nonzero;stroke:none"
             d="m 0,0 -43.099,0 c -1,0 -1.818,0.818 -1.818,1.818 l 0,6.067 c 0,1 0.818,1.818 1.818,1.818 L 0,9.703 c 1,0 1.818,-0.818 1.818,-1.818 l 0,-6.067 C 1.818,0.818 1,0 0,0" /></g><g
           transform="translate(83.8244,15.5463)"
           id="g300"><path
             id="path302"
             style="fill:#bd1d08;fill-opacity:1;fill-rule:nonzero;stroke:none"
             d="m 0,0 -3.847,0 c -0.241,0 -0.438,0.197 -0.438,0.439 l 0,1.958 c 0,0.242 0.197,0.439 0.438,0.439 l 3.847,0 c 0.241,0 0.439,-0.197 0.439,-0.439 l 0,-1.958 C 0.439,0.197 0.241,0 0,0" /></g><g
           transform="translate(85.8552,65.0023)"
           id="g304"><path
             id="path306"
             style="fill:#bd1d08;fill-opacity:1;fill-rule:nonzero;stroke:none"
             d="m 0,0 -5.788,0 c -0.29,0 -0.528,0.238 -0.528,0.528 l 0,1.78 c 0,0.29 0.238,0.528 0.528,0.528 l 5.788,0 c 0.29,0 0.528,-0.238 0.528,-0.528 l 0,-1.78 C 0.528,0.238 0.29,0 0,0" /></g><g
           transform="translate(64.0634,76.2223)"
           id="g308"><path
             id="path310"
             style="fill:#901909;fill-opacity:1;fill-rule:nonzero;stroke:none"
             d="m 0,0 0,29.05 c 0,0.305 0.249,0.555 0.554,0.555 0.305,0 0.554,-0.25 0.554,-0.555 L 1.108,0 C 1.108,-0.305 0.859,-0.554 0.554,-0.554 0.249,-0.554 0,-0.305 0,0" /></g><path
           id="path312"
           style="fill:#e7e7b2;fill-opacity:1;fill-rule:nonzero;stroke:none"
           d="m 46.584,75.668 -7.098,0 0,9.492 7.098,0 0,-9.492 z" /><path
           id="path314"
           style="fill:#e7e7b2;fill-opacity:1;fill-rule:nonzero;stroke:none"
           d="m 46.584,101.293 -7.098,0 0,9.927 7.098,0 0,-9.927 z" /><g
           transform="translate(48.8737,114.6402)"
           id="g316"><path
             id="path318"
             style="fill:#971a09;fill-opacity:1;fill-rule:nonzero;stroke:none"
             d="m 0,0 -18.776,0 c -0.551,0 -1.001,0.45 -1.001,1 l 0,14.356 c 0,0.55 0.45,1 1.001,1 l 18.776,0 c 0.55,0 1,-0.45 1,-1 L 1,1 C 1,0.45 0.55,0 0,0" /></g><g
           transform="translate(34.864,115.8492)"
           id="g320"><path
             id="path322"
             style="fill:#000000;fill-opacity:1;fill-rule:nonzero;stroke:none"
             d="m 0,0 0,0 c -0.363,-0.153 -0.786,0.018 -0.939,0.382 l -3.224,7.636 c -0.153,0.363 0.019,0.785 0.382,0.939 l 0,0 C -3.418,9.11 -2.995,8.938 -2.842,8.575 L 0.382,0.939 C 0.535,0.576 0.363,0.153 0,0" /></g><g
           transform="translate(37.1922,115.8492)"
           id="g324"><path
             id="path326"
             style="fill:#000000;fill-opacity:1;fill-rule:nonzero;stroke:none"
             d="m 0,0 0,0 c -0.363,-0.153 -0.786,0.018 -0.939,0.382 l -4.268,10.109 c -0.153,0.363 0.019,0.786 0.382,0.939 0.363,0.153 0.786,-0.018 0.939,-0.382 L 0.382,0.939 C 0.535,0.576 0.363,0.153 0,0" /></g><g
           transform="translate(39.5942,115.8492)"
           id="g328"><path
             id="path330"
             style="fill:#000000;fill-opacity:1;fill-rule:nonzero;stroke:none"
             d="m 0,0 0,0 c -0.363,-0.153 -0.786,0.018 -0.939,0.382 l -4.583,10.856 c -0.153,0.363 0.018,0.786 0.382,0.939 l 0,0 c 0.363,0.153 0.786,-0.018 0.939,-0.382 L 0.382,0.939 C 0.535,0.576 0.363,0.153 0,0" /></g><g
           transform="translate(17.3731,169.6932)"
           id="g332"><path
             id="path334"
             style="fill:#0f1522;fill-opacity:1;fill-rule:nonzero;stroke:none"
             d="m 0,0 c 0,-1.782 -1.445,-3.227 -3.227,-3.227 -1.782,0 -3.227,1.445 -3.227,3.227 0,1.782 1.445,3.227 3.227,3.227 C -1.445,3.227 0,1.782 0,0" /></g><g
           transform="translate(16.3861,169.6448)"
           id="g336"><path
             id="path338"
             style="fill:#ab7551;fill-opacity:1;fill-rule:nonzero;stroke:none"
             d="m 0,0 c 0,-1.237 -1.003,-2.24 -2.24,-2.24 -1.237,0 -2.24,1.003 -2.24,2.24 0,1.237 1.003,2.24 2.24,2.24 C -1.003,2.24 0,1.237 0,0" /></g><g
           transform="translate(38.0065,155.92)"
           id="g340"><path
             id="path342"
             style="fill:#0f1522;fill-opacity:1;fill-rule:nonzero;stroke:none"
             d="m 0,0 c 0,-1.782 -1.445,-3.227 -3.227,-3.227 -1.782,0 -3.227,1.445 -3.227,3.227 0,1.782 1.445,3.227 3.227,3.227 C -1.445,3.227 0,1.782 0,0" /></g><g
           transform="translate(37.0195,155.8716)"
           id="g344"><path
             id="path346"
             style="fill:#ab7551;fill-opacity:1;fill-rule:nonzero;stroke:none"
             d="m 0,0 c 0,-1.237 -1.003,-2.24 -2.24,-2.24 -1.237,0 -2.24,1.003 -2.24,2.24 0,1.237 1.003,2.24 2.24,2.24 C -1.003,2.24 0,1.237 0,0" /></g><g
           transform="translate(63.8798,315.1113)"
           id="g348"><path
             id="path350"
             style="fill:#000000;fill-opacity:1;fill-rule:nonzero;stroke:none"
             d="M 0,0 0,0 C -0.239,0.173 -0.294,0.51 -0.121,0.749 L 2.385,4.225 C 2.557,4.465 2.894,4.519 3.133,4.347 3.373,4.174 3.427,3.837 3.255,3.598 L 0.749,0.121 C 0.576,-0.118 0.239,-0.173 0,0" /></g><g
           transform="translate(58.2907,288.7749)"
           id="g352"><path
             id="path354"
             style="fill:#2f4678;fill-opacity:1;fill-rule:nonzero;stroke:none"
             d="m 0,0 0,0 c -0.317,0 -0.577,0.26 -0.577,0.577 l 0,12.464 c 0,0.317 0.26,0.577 0.577,0.577 0.317,0 0.577,-0.26 0.577,-0.577 l 0,-12.464 C 0.577,0.26 0.317,0 0,0" /></g><g
           transform="translate(35.3109,243.6152)"
           id="g356"><path
             id="path358"
             style="fill:#000000;fill-opacity:1;fill-rule:nonzero;stroke:none"
             d="m 0,0 0,0 c -1.908,0 -3.469,1.561 -3.469,3.469 l 0,7.324 c 0,1.908 1.561,3.469 3.469,3.469 l 0,0 c 1.908,0 3.469,-1.561 3.469,-3.469 l 0,-7.324 C 3.469,1.561 1.908,0 0,0" /></g><g
           transform="translate(36.9169,251.9024)"
           id="g360"><path
             id="path362"
             style="fill:#0d418d;fill-opacity:1;fill-rule:nonzero;stroke:none"
             d="m 0,0 0,0 c -0.459,0 -0.835,0.376 -0.835,0.835 l 0,1.863 c 0,0.459 0.376,0.835 0.835,0.835 l 0,0 c 0.459,0 0.835,-0.376 0.835,-0.835 l 0,-1.863 C 0.835,0.376 0.459,0 0,0" /></g><g
           transform="translate(41.1876,316.3729)"
           id="g364"><path
             id="path366"
             style="fill:#060a11;fill-opacity:1;fill-rule:nonzero;stroke:none"
             d="m 0,0 c 0,-1.759 -1.426,-3.186 -3.186,-3.186 -1.759,0 -3.186,1.427 -3.186,3.186 0,1.759 1.427,3.186 3.186,3.186 C -1.426,3.186 0,1.759 0,0" /></g><g
           transform="translate(40.2278,316.8722)"
           id="g368"><path
             id="path370"
             style="fill:#2c4e7e;fill-opacity:1;fill-rule:nonzero;stroke:none"
             d="m 0,0 c 0.439,-0.699 0.02,-1.754 -0.936,-2.355 -0.957,-0.601 -2.089,-0.521 -2.528,0.178" /></g><g
           transform="translate(41.1876,303.4171)"
           id="g372"><path
             id="path374"
             style="fill:#060a11;fill-opacity:1;fill-rule:nonzero;stroke:none"
             d="m 0,0 c 0,-1.759 -1.426,-3.186 -3.186,-3.186 -1.759,0 -3.186,1.427 -3.186,3.186 0,1.759 1.427,3.186 3.186,3.186 C -1.426,3.186 0,1.759 0,0" /></g><g
           transform="translate(36.336,301.2438)"
           id="g376"><path
             id="path378"
             style="fill:#2c4e7e;fill-opacity:1;fill-rule:nonzero;stroke:none"
             d="M 0,0 0,0 C -0.239,0.173 -0.294,0.509 -0.121,0.749 L 2.385,4.225 C 2.557,4.465 2.894,4.519 3.133,4.347 3.373,4.174 3.427,3.837 3.255,3.598 L 0.749,0.121 C 0.576,-0.118 0.239,-0.173 0,0" /></g></g></g></g></svg>