<?xml version="1.0" encoding="UTF-8" standalone="no"?>
<svg
   xmlns:dc="http://purl.org/dc/elements/1.1/"
   xmlns:cc="http://creativecommons.org/ns#"
   xmlns:rdf="http://www.w3.org/1999/02/22-rdf-syntax-ns#"
   xmlns:svg="http://www.w3.org/2000/svg"
   xmlns="http://www.w3.org/2000/svg"
   viewBox="0 0 580.02124 461.88376"
   height="461.88376"
   width="580.02124"
   xml:space="preserve"
   version="1.1"
   id="svg2"><metadata
     id="metadata8"><rdf:RDF><cc:Work
         rdf:about=""><dc:format>image/svg+xml</dc:format><dc:type
           rdf:resource="http://purl.org/dc/dcmitype/StillImage" /><dc:title></dc:title></cc:Work></rdf:RDF></metadata><defs
     id="defs6"><clipPath
       id="clipPath16"
       clipPathUnits="userSpaceOnUse"><path
         id="path18"
         d="m 0,369.507 464.017,0 L 464.017,0 0,0 0,369.507 Z" /></clipPath></defs><g
     transform="matrix(1.25,0,0,-1.25,0,461.88375)"
     id="g10"><g
       id="g12"><g
         clip-path="url(#clipPath16)"
         id="g14"><g
           transform="translate(285.9677,366.7803)"
           id="g20"><path
             id="path22"
             style="fill:#5a5758;fill-opacity:1;fill-rule:nonzero;stroke:none"
             d="m 0,0 -107.918,0 c -0.752,0 -1.363,0.611 -1.363,1.363 0,0.753 0.611,1.364 1.363,1.364 L 0,2.727 C 0.754,2.727 1.365,2.116 1.365,1.363 1.365,0.611 0.754,0 0,0" /></g><g
           transform="translate(464.0166,44.0469)"
           id="g24"><path
             id="path26"
             style="fill:#4f4c4d;fill-opacity:1;fill-rule:nonzero;stroke:none"
             d="m 0,0 c 0,-2.256 -1.846,-4.104 -4.104,-4.104 l -455.809,0 c -2.256,0 -4.104,1.848 -4.104,4.104 l 0,226.537 c 0,2.258 1.848,4.104 4.104,4.104 l 455.809,0 c 2.258,0 4.104,-1.846 4.104,-4.104 l 0,-12.168 c 0,-2.256 -1.846,-4.119 -4.104,-4.137 l -17.428,-0.14 c -2.257,-0.02 -4.104,-1.881 -4.104,-4.139 l 0,-24.723 c 0,-2.256 1.847,-4.103 4.104,-4.103 l 17.428,0 c 2.258,0 4.104,-1.848 4.104,-4.104 L 0,0 Z" /></g><g
           transform="translate(459.6406,278.518)"
           id="g28"><path
             id="path30"
             style="fill:#444141;fill-opacity:1;fill-rule:nonzero;stroke:none"
             d="m 0,0 c 0,3.612 -2.955,6.566 -6.568,6.566 l -442.128,0 c -3.612,0 -6.566,-2.954 -6.566,-6.566 l 0,-242.405 c 0,-3.611 2.954,-6.566 6.566,-6.566 l 383.092,0 8.93,0 c 1.301,0 2.373,1.109 2.381,2.464 0.01,1.354 0.885,2.464 1.945,2.464 l 8.494,0 5.334,0 8.518,0 c 1.069,0 1.945,-1.11 1.94,-2.464 -0.003,-1.355 1.396,-2.464 3.112,-2.464 l 9.687,0 8.695,0 c 3.613,0 6.568,2.955 6.568,6.566 L 0,0 Z" /></g><g
           transform="translate(337.3418,217.0967)"
           id="g32"><path
             id="path34"
             style="fill:#444141;fill-opacity:1;fill-rule:nonzero;stroke:none"
             d="m 0,0 c 0,-3.161 -2.585,-5.745 -5.744,-5.745 l -199.178,0 c -3.159,0 -5.746,2.584 -5.746,5.745 l 0,145.416 c 0,3.161 2.587,5.746 5.746,5.746 l 199.178,0 c 3.159,0 5.744,-2.585 5.744,-5.746 L 0,0 Z" /></g><path
           id="path36"
           style="fill:#4f4c4d;fill-opacity:1;fill-rule:nonzero;stroke:none"
           d="m 328.588,259.367 -193.157,0 0,102.195 193.157,0 0,-102.195 z" /><g
           transform="translate(450.8261,43.7871)"
           id="g38"><path
             id="path40"
             style="fill:#4f4c4d;fill-opacity:1;fill-rule:nonzero;stroke:none"
             d="m 0,0 c 0,-2.258 -1.847,-4.105 -4.105,-4.105 l -429.015,0 c -2.256,0 -4.104,1.847 -4.104,4.105 l 0,187.775 c 0,2.258 1.848,4.104 4.104,4.104 l 429.015,0 c 2.258,0 4.105,-1.846 4.105,-4.104 L 0,0 Z" /></g><path
           id="path42"
           style="fill:#4f4c4d;fill-opacity:1;fill-rule:nonzero;stroke:none"
           d="m 371.098,216.221 -277.766,0 0,49.691 277.766,0 0,-49.691 z" /><path
           id="path44"
           style="fill:#5a5758;fill-opacity:1;fill-rule:nonzero;stroke:none"
           d="m 440.977,45.775 -417.524,0 0,170.445 417.524,0 0,-170.445 z" /><path
           id="path46"
           style="fill:#4f4c4d;fill-opacity:1;fill-rule:nonzero;stroke:none"
           d="m 151.495,62.59 -120.108,0 0,20.654 120.108,0 0,-20.654 z" /><g
           transform="translate(49.1592,72.9179)"
           id="g48"><path
             id="path50"
             style="fill:#4f4c4d;fill-opacity:1;fill-rule:nonzero;stroke:none"
             d="m 0,0 c 0,-11.502 -9.325,-20.826 -20.825,-20.826 -11.503,0 -20.826,9.324 -20.826,20.826 0,11.501 9.323,20.826 20.826,20.826 C -9.325,20.826 0,11.501 0,0" /></g><g
           transform="translate(28.334,87.5976)"
           id="g52"><path
             id="path54"
             style="fill:#231f20;fill-opacity:1;fill-rule:nonzero;stroke:none"
             d="m 0,0 c -8.095,0 -14.68,-6.586 -14.68,-14.68 0,-8.093 6.585,-14.679 14.68,-14.679 8.094,0 14.679,6.586 14.679,14.679 C 14.679,-6.586 8.094,0 0,0 m 0,-30.102 c -8.505,0 -15.424,6.918 -15.424,15.422 0,8.504 6.919,15.422 15.424,15.422 8.504,0 15.423,-6.918 15.423,-15.422 0,-8.504 -6.919,-15.422 -15.423,-15.422" /></g><path
           id="path56"
           style="fill:#4f4c4d;fill-opacity:1;fill-rule:nonzero;stroke:none"
           d="m 151.495,114.025 -120.108,0 0,20.654 120.108,0 0,-20.654 z" /><g
           transform="translate(49.1592,124.3535)"
           id="g58"><path
             id="path60"
             style="fill:#4f4c4d;fill-opacity:1;fill-rule:nonzero;stroke:none"
             d="m 0,0 c 0,-11.502 -9.325,-20.826 -20.825,-20.826 -11.503,0 -20.826,9.324 -20.826,20.826 0,11.501 9.323,20.825 20.826,20.825 C -9.325,20.825 0,11.501 0,0" /></g><g
           transform="translate(28.334,139.0332)"
           id="g62"><path
             id="path64"
             style="fill:#231f20;fill-opacity:1;fill-rule:nonzero;stroke:none"
             d="m 0,0 c -8.095,0 -14.68,-6.586 -14.68,-14.68 0,-8.093 6.585,-14.679 14.68,-14.679 8.094,0 14.679,6.586 14.679,14.679 C 14.679,-6.586 8.094,0 0,0 m 0,-30.103 c -8.505,0 -15.424,6.919 -15.424,15.423 0,8.504 6.919,15.422 15.424,15.422 8.504,0 15.423,-6.918 15.423,-15.422 0,-8.504 -6.919,-15.423 -15.423,-15.423" /></g><path
           id="path66"
           style="fill:#4f4c4d;fill-opacity:1;fill-rule:nonzero;stroke:none"
           d="m 151.495,165.461 -120.108,0 0,20.654 120.108,0 0,-20.654 z" /><g
           transform="translate(49.1592,175.789)"
           id="g68"><path
             id="path70"
             style="fill:#4f4c4d;fill-opacity:1;fill-rule:nonzero;stroke:none"
             d="m 0,0 c 0,-11.502 -9.325,-20.827 -20.825,-20.827 -11.503,0 -20.826,9.325 -20.826,20.827 0,11.5 9.323,20.825 20.826,20.825 C -9.325,20.825 0,11.5 0,0" /></g><g
           transform="translate(28.334,190.4668)"
           id="g72"><path
             id="path74"
             style="fill:#231f20;fill-opacity:1;fill-rule:nonzero;stroke:none"
             d="m 0,0 c -8.095,0 -14.68,-6.584 -14.68,-14.678 0,-8.094 6.585,-14.679 14.68,-14.679 8.094,0 14.679,6.585 14.679,14.679 C 14.679,-6.584 8.094,0 0,0 m 0,-30.101 c -8.505,0 -15.424,6.919 -15.424,15.423 0,8.504 6.919,15.422 15.424,15.422 8.504,0 15.423,-6.918 15.423,-15.422 0,-8.504 -6.919,-15.423 -15.423,-15.423" /></g><path
           id="path76"
           style="fill:#4f4c4d;fill-opacity:1;fill-rule:nonzero;stroke:none"
           d="m 312.613,62.59 120.107,0 0,20.654 -120.107,0 0,-20.654 z" /><g
           transform="translate(414.9492,72.9179)"
           id="g78"><path
             id="path80"
             style="fill:#4f4c4d;fill-opacity:1;fill-rule:nonzero;stroke:none"
             d="m 0,0 c 0,-11.502 9.322,-20.826 20.825,-20.826 11.502,0 20.825,9.324 20.825,20.826 0,11.501 -9.323,20.826 -20.825,20.826 C 9.322,20.826 0,11.501 0,0" /></g><g
           transform="translate(435.7744,87.5976)"
           id="g82"><path
             id="path84"
             style="fill:#231f20;fill-opacity:1;fill-rule:nonzero;stroke:none"
             d="m 0,0 c -8.095,0 -14.681,-6.586 -14.681,-14.68 0,-8.093 6.586,-14.679 14.681,-14.679 8.095,0 14.68,6.586 14.68,14.679 C 14.68,-6.586 8.095,0 0,0 m 0,-30.102 c -8.505,0 -15.425,6.918 -15.425,15.422 0,8.504 6.92,15.422 15.425,15.422 8.505,0 15.424,-6.918 15.424,-15.422 0,-8.504 -6.919,-15.422 -15.424,-15.422" /></g><path
           id="path86"
           style="fill:#4f4c4d;fill-opacity:1;fill-rule:nonzero;stroke:none"
           d="m 312.613,114.025 120.107,0 0,20.654 -120.107,0 0,-20.654 z" /><g
           transform="translate(414.9492,124.3535)"
           id="g88"><path
             id="path90"
             style="fill:#4f4c4d;fill-opacity:1;fill-rule:nonzero;stroke:none"
             d="m 0,0 c 0,-11.502 9.322,-20.826 20.825,-20.826 11.502,0 20.825,9.324 20.825,20.826 0,11.501 -9.323,20.825 -20.825,20.825 C 9.322,20.825 0,11.501 0,0" /></g><g
           transform="translate(435.7744,139.0332)"
           id="g92"><path
             id="path94"
             style="fill:#231f20;fill-opacity:1;fill-rule:nonzero;stroke:none"
             d="m 0,0 c -8.095,0 -14.681,-6.586 -14.681,-14.68 0,-8.093 6.586,-14.679 14.681,-14.679 8.095,0 14.68,6.586 14.68,14.679 C 14.68,-6.586 8.095,0 0,0 m 0,-30.103 c -8.505,0 -15.425,6.919 -15.425,15.423 0,8.504 6.92,15.422 15.425,15.422 8.505,0 15.424,-6.918 15.424,-15.422 0,-8.504 -6.919,-15.423 -15.424,-15.423" /></g><path
           id="path96"
           style="fill:#4f4c4d;fill-opacity:1;fill-rule:nonzero;stroke:none"
           d="m 312.613,165.461 120.107,0 0,20.654 -120.107,0 0,-20.654 z" /><g
           transform="translate(414.9492,175.789)"
           id="g98"><path
             id="path100"
             style="fill:#4f4c4d;fill-opacity:1;fill-rule:nonzero;stroke:none"
             d="m 0,0 c 0,-11.502 9.322,-20.827 20.825,-20.827 11.502,0 20.825,9.325 20.825,20.827 0,11.5 -9.323,20.825 -20.825,20.825 C 9.322,20.825 0,11.5 0,0" /></g><g
           transform="translate(435.7744,190.4668)"
           id="g102"><path
             id="path104"
             style="fill:#231f20;fill-opacity:1;fill-rule:nonzero;stroke:none"
             d="m 0,0 c -8.095,0 -14.681,-6.584 -14.681,-14.678 0,-8.094 6.586,-14.679 14.681,-14.679 8.095,0 14.68,6.585 14.68,14.679 C 14.68,-6.584 8.095,0 0,0 m 0,-30.101 c -8.505,0 -15.425,6.919 -15.425,15.423 0,8.504 6.92,15.422 15.425,15.422 8.505,0 15.424,-6.918 15.424,-15.422 0,-8.504 -6.919,-15.423 -15.424,-15.423" /></g><g
           transform="translate(328.5879,4.9238)"
           id="g106"><path
             id="path108"
             style="fill:#5a5758;fill-opacity:1;fill-rule:nonzero;stroke:none"
             d="m 0,0 c 0,-2.707 -2.215,-4.924 -4.925,-4.924 l -183.308,0 c -2.708,0 -4.924,2.217 -4.924,4.924 l 0,258.82 c 0,2.707 2.216,4.924 4.924,4.924 l 183.308,0 c 2.71,0 4.925,-2.217 4.925,-4.924 L 0,0 Z" /></g><path
           id="path110"
           style="fill:#656263;fill-opacity:1;fill-rule:nonzero;stroke:none"
           d="m 145.827,20.381 -6.156,0 0,225.58 6.156,0 0,-225.58 z" /><path
           id="path112"
           style="fill:#656263;fill-opacity:1;fill-rule:nonzero;stroke:none"
           d="m 157.727,20.381 -6.156,0 0,225.58 6.156,0 0,-225.58 z" /><path
           id="path114"
           style="fill:#656263;fill-opacity:1;fill-rule:nonzero;stroke:none"
           d="m 169.629,20.381 -6.156,0 0,225.58 6.156,0 0,-225.58 z" /><path
           id="path116"
           style="fill:#656263;fill-opacity:1;fill-rule:nonzero;stroke:none"
           d="m 181.53,20.381 -6.155,0 0,225.58 6.155,0 0,-225.58 z" /><path
           id="path118"
           style="fill:#656263;fill-opacity:1;fill-rule:nonzero;stroke:none"
           d="m 193.432,20.381 -6.155,0 0,150.379 6.155,0 0,-150.379 z" /><path
           id="path120"
           style="fill:#656263;fill-opacity:1;fill-rule:nonzero;stroke:none"
           d="m 276.741,20.381 -6.155,0 0,150.379 6.155,0 0,-150.379 z" /><path
           id="path122"
           style="fill:#656263;fill-opacity:1;fill-rule:nonzero;stroke:none"
           d="m 288.643,20.381 -6.157,0 0,225.58 6.157,0 0,-225.58 z" /><path
           id="path124"
           style="fill:#656263;fill-opacity:1;fill-rule:nonzero;stroke:none"
           d="m 300.544,20.381 -6.155,0 0,225.58 6.155,0 0,-225.58 z" /><path
           id="path126"
           style="fill:#656263;fill-opacity:1;fill-rule:nonzero;stroke:none"
           d="m 312.445,20.381 -6.156,0 0,225.58 6.156,0 0,-225.58 z" /><path
           id="path128"
           style="fill:#656263;fill-opacity:1;fill-rule:nonzero;stroke:none"
           d="m 324.347,20.381 -6.155,0 0,225.58 6.155,0 0,-225.58 z" /><path
           id="path130"
           style="fill:#656263;fill-opacity:1;fill-rule:nonzero;stroke:none"
           d="m 261.599,20.381 -59.181,0 0,150.379 59.181,0 0,-150.379 z" /><g
           transform="translate(180.8584,66.6416)"
           id="g132"><path
             id="path134"
             style="fill:#4f4c4d;fill-opacity:1;fill-rule:nonzero;stroke:none"
             d="m 0,0 c 0,-7.866 -6.379,-14.243 -14.245,-14.243 -7.866,0 -14.244,6.377 -14.244,14.243 0,7.866 6.378,14.245 14.244,14.245 C -6.379,14.245 0,7.866 0,0" /></g><g
           transform="translate(176.9111,66.6416)"
           id="g136"><path
             id="path138"
             style="fill:#656263;fill-opacity:1;fill-rule:nonzero;stroke:none"
             d="m 0,0 c 0,-5.686 -4.611,-10.298 -10.298,-10.298 -5.686,0 -10.298,4.612 -10.298,10.298 0,5.689 4.612,10.298 10.298,10.298 C -4.611,10.298 0,5.689 0,0" /></g><g
           transform="translate(163.7734,61.7226)"
           id="g140"><path
             id="path142"
             style="fill:#444141;fill-opacity:1;fill-rule:nonzero;stroke:none"
             d="M 0,0 -2.84,4.92 0,9.839 5.681,9.839 8.521,4.92 5.681,0 0,0 Z" /></g><g
           transform="translate(180.8584,203.8262)"
           id="g144"><path
             id="path146"
             style="fill:#4f4c4d;fill-opacity:1;fill-rule:nonzero;stroke:none"
             d="m 0,0 c 0,-7.866 -6.379,-14.244 -14.245,-14.244 -7.866,0 -14.244,6.378 -14.244,14.244 0,7.867 6.378,14.245 14.244,14.245 C -6.379,14.245 0,7.867 0,0" /></g><g
           transform="translate(176.9111,203.8262)"
           id="g148"><path
             id="path150"
             style="fill:#656263;fill-opacity:1;fill-rule:nonzero;stroke:none"
             d="m 0,0 c 0,-5.686 -4.611,-10.299 -10.298,-10.299 -5.686,0 -10.298,4.613 -10.298,10.299 0,5.688 4.612,10.299 10.298,10.299 C -4.611,10.299 0,5.688 0,0" /></g><g
           transform="translate(163.7734,198.9072)"
           id="g152"><path
             id="path154"
             style="fill:#444141;fill-opacity:1;fill-rule:nonzero;stroke:none"
             d="M 0,0 -2.84,4.921 0,9.839 5.681,9.839 8.521,4.921 5.681,0 0,0 Z" /></g><g
           transform="translate(311.7832,66.6416)"
           id="g156"><path
             id="path158"
             style="fill:#4f4c4d;fill-opacity:1;fill-rule:nonzero;stroke:none"
             d="m 0,0 c 0,-7.866 -6.377,-14.243 -14.243,-14.243 -7.867,0 -14.244,6.377 -14.244,14.243 0,7.866 6.377,14.245 14.244,14.245 C -6.377,14.245 0,7.866 0,0" /></g><g
           transform="translate(307.8369,66.6416)"
           id="g160"><path
             id="path162"
             style="fill:#656263;fill-opacity:1;fill-rule:nonzero;stroke:none"
             d="m 0,0 c 0,-5.686 -4.61,-10.298 -10.297,-10.298 -5.688,0 -10.299,4.612 -10.299,10.298 0,5.689 4.611,10.298 10.299,10.298 C -4.61,10.298 0,5.689 0,0" /></g><g
           transform="translate(294.7002,61.7226)"
           id="g164"><path
             id="path166"
             style="fill:#444141;fill-opacity:1;fill-rule:nonzero;stroke:none"
             d="M 0,0 -2.841,4.92 0,9.839 5.679,9.839 8.521,4.92 5.679,0 0,0 Z" /></g><g
           transform="translate(311.7832,203.8262)"
           id="g168"><path
             id="path170"
             style="fill:#4f4c4d;fill-opacity:1;fill-rule:nonzero;stroke:none"
             d="m 0,0 c 0,-7.866 -6.377,-14.244 -14.243,-14.244 -7.867,0 -14.244,6.378 -14.244,14.244 0,7.867 6.377,14.245 14.244,14.245 C -6.377,14.245 0,7.867 0,0" /></g><g
           transform="translate(307.8369,203.8262)"
           id="g172"><path
             id="path174"
             style="fill:#656263;fill-opacity:1;fill-rule:nonzero;stroke:none"
             d="m 0,0 c 0,-5.686 -4.61,-10.299 -10.297,-10.299 -5.688,0 -10.299,4.613 -10.299,10.299 0,5.688 4.611,10.299 10.299,10.299 C -4.61,10.299 0,5.688 0,0" /></g><g
           transform="translate(294.7002,198.9072)"
           id="g176"><path
             id="path178"
             style="fill:#444141;fill-opacity:1;fill-rule:nonzero;stroke:none"
             d="M 0,0 -2.841,4.921 0,9.839 5.679,9.839 8.521,4.921 5.679,0 0,0 Z" /></g><g
           transform="translate(205.8203,72.5097)"
           id="g180"><path
             id="path182"
             style="fill:#0a93b2;fill-opacity:1;fill-rule:nonzero;stroke:none"
             d="m 0,0 5.455,4.876 c 2.186,-0.009 4.371,10e-4 6.556,-0.006 0,-2.324 -10e-4,-4.649 0.003,-6.974 -1.576,0 -3.148,0.002 -4.72,0 -0.002,-1.839 0.002,-3.678 -0.002,-5.515 2.587,-0.004 5.17,-0.008 7.757,0.002 0,0.551 0.012,1.101 0.015,1.654 2.314,-0.004 4.628,0.006 6.942,-0.006 -0.012,-1.34 0.002,-2.679 -0.005,-4.021 0.007,-0.151 -0.149,-0.24 -0.236,-0.344 -1.67,-1.598 -3.306,-3.239 -4.994,-4.818 -3.703,-0.03 -7.409,-0.002 -11.116,-0.014 L 0.006,-10.184 0,0 Z" /></g><g
           transform="translate(238.6435,79.9971)"
           id="g184"><path
             id="path186"
             style="fill:#0a93b2;fill-opacity:1;fill-rule:nonzero;stroke:none"
             d="m 0,0 c -10.942,-0.008 -21.883,-0.001 -32.823,-0.003 l 0,7.482 C -22.386,7.481 -11.947,7.474 -1.509,7.483 -1.513,8.179 -1.521,8.874 -1.504,9.569 0.865,9.563 3.232,9.565 5.6,9.569 5.625,8.298 5.607,7.026 5.612,5.755 5.636,5.604 5.555,5.489 5.449,5.397 L 0,0 Z" /></g><g
           transform="translate(205.8203,93.4414)"
           id="g188"><path
             id="path190"
             style="fill:#0a93b2;fill-opacity:1;fill-rule:nonzero;stroke:none"
             d="m 0,0 0,7.481 c 10.949,-0.006 21.901,0.017 32.849,-0.01 1.885,-1.789 3.707,-3.65 5.572,-5.459 0.004,-1.326 10e-4,-2.649 10e-4,-3.975 -2.361,-0.002 -4.724,-0.004 -7.086,0.002 C 31.33,-1.309 31.333,-0.654 31.335,0 20.89,0.003 10.444,0 0,0" /></g><path
           id="path192"
           style="fill:#0a93b2;fill-opacity:1;fill-rule:nonzero;stroke:none"
           d="m 205.82,110.832 38.422,0 0,-7.48 -38.422,0 0,7.48 z" /><g
           transform="translate(205.8222,118.1963)"
           id="g194"><path
             id="path196"
             style="fill:#0a93b2;fill-opacity:1;fill-rule:nonzero;stroke:none"
             d="m 0,0 c 1.804,1.809 3.586,3.645 5.393,5.451 l 14.589,0 C 21.789,3.645 23.57,1.811 25.374,0 c 0.004,-1.78 0.002,-3.562 0.003,-5.343 l -7.281,0 0,3.238 -10.818,0 0,-3.238 -7.28,0 L 0,0 Z" /></g><g
           transform="translate(205.8203,126.1006)"
           id="g198"><path
             id="path200"
             style="fill:#0a93b2;fill-opacity:1;fill-rule:nonzero;stroke:none"
             d="m 0,0 0,16.479 7.28,0 0,-8.998 23.862,0 0,8.998 7.28,0 L 38.422,0 0,0 Z" /></g><path
           id="path202"
           style="fill:#0a93b2;fill-opacity:1;fill-rule:nonzero;stroke:none"
           d="m 205.82,152.591 38.422,0 0,-7.483 -38.422,0 0,7.483 z" /><g
           transform="translate(225.1474,161.2051)"
           id="g204"><path
             id="path206"
             style="fill:#0a93b2;fill-opacity:1;fill-rule:nonzero;stroke:none"
             d="m 0,0 c 1.527,1.493 3.008,3.042 4.552,4.517 4.847,0.032 9.696,0.004 14.543,0.013 l 0,-7.582 -15.368,0 0,-3.741 -7.281,0 0,3.741 -8.493,0 0,-3.741 -7.28,0 0.002,5.846 5.56,5.476 c 3.001,0.005 6.003,-0.002 9.004,0.002 L 0,0 Z" /></g><path
           id="path208"
           style="fill:#0a93b2;fill-opacity:1;fill-rule:nonzero;stroke:none"
           d="m 220.38,141.064 7.281,0 0,-5.46 -7.281,0 0,5.46 z" /><g
           transform="translate(244.2353,72.3838)"
           id="g210"><path
             id="path212"
             style="fill:#0a93b2;fill-opacity:1;fill-rule:nonzero;stroke:none"
             d="m 0,0 0.007,-10.183 -5.454,-4.877 c -2.188,0.008 -4.372,-0.002 -6.56,0.006 0.002,2.324 0.003,4.65 0,6.973 1.574,0.004 3.148,0 4.721,0.004 10e-4,1.837 -0.004,3.676 0.003,5.513 l -9.074,-0.002 c 0,-0.416 -0.002,-0.833 -0.017,-1.248 -2.312,0 -4.625,-0.007 -6.939,0.004 0.009,1.205 -0.003,2.411 0.006,3.615 -0.015,0.129 0.112,0.208 0.183,0.296 1.645,1.589 3.282,3.185 4.925,4.776 0.081,0.087 0.181,0.121 0.301,0.104 4.084,0 8.168,-0.002 12.25,0 L 0,0 Z" /></g><g
           transform="translate(258.8027,86.0605)"
           id="g214"><path
             id="path216"
             style="fill:#0a93b2;fill-opacity:1;fill-rule:nonzero;stroke:none"
             d="m 0,0 0,-11.428 c 0.007,-0.749 -0.233,-1.522 -0.761,-2.068 -0.35,-0.365 -0.848,-0.578 -1.355,-0.559 -2.264,0.002 -4.527,-0.004 -6.789,0.004 -0.817,-0.005 -1.492,0.631 -1.777,1.359 -0.232,0.524 -0.251,1.107 -0.24,1.671 0.003,3.673 0,7.348 0.002,11.021 l 2.022,0 0,-11.527 6.875,0 0,9 -2.427,0 0,-4.348 -2.021,0 0,6.875 L 0,0 Z" /></g><path
           id="path218"
           style="fill:#0a93b2;fill-opacity:1;fill-rule:nonzero;stroke:none"
           d="m 249.904,91.015 2.428,0 0,8.595 -2.428,0 0,-8.595 z m -2.021,-2.528 0,11.027 c -0.01,0.927 0.376,1.946 1.222,2.414 0.455,0.269 1.001,0.201 1.508,0.209 0.636,-0.012 1.275,0.023 1.91,-0.017 0.77,-0.08 1.355,-0.718 1.618,-1.409 0.303,-0.741 0.189,-1.554 0.211,-2.332 l 4.446,3.959 0.006,-3.129 c -1.483,-1.324 -2.962,-2.648 -4.452,-3.966 l 0,-4.228 4.451,0 0,-2.528 -10.92,0 z" /><g
           transform="translate(258.8027,116.2929)"
           id="g220"><path
             id="path222"
             style="fill:#0a93b2;fill-opacity:1;fill-rule:nonzero;stroke:none"
             d="m 0,0 c -2.964,-1.461 -5.921,-2.932 -8.89,-4.381 l 0,-1.148 C -5.921,-6.977 -2.964,-8.449 0,-9.91 l -0.001,-2.93 c -3.64,1.793 -7.271,3.597 -10.913,5.381 l 0,5.006 c 3.642,1.785 7.273,3.59 10.913,5.383 L 0,0 Z" /></g><g
           transform="translate(247.8828,120.4375)"
           id="g224"><path
             id="path226"
             style="fill:#0a93b2;fill-opacity:1;fill-rule:nonzero;stroke:none"
             d="m 0,0 0,12.842 2.021,0 0,-10.315 2.428,0 0,9 2.021,0 0,-9 4.45,0 L 10.92,0 0,0 Z" /></g><g
           transform="translate(258.7959,149.539)"
           id="g228"><path
             id="path230"
             style="fill:#0a93b2;fill-opacity:1;fill-rule:nonzero;stroke:none"
             d="m 0,0 -0.007,-3.711 c -1.256,-1.344 -2.58,-2.629 -3.855,-3.955 1.275,-1.326 2.599,-2.611 3.855,-3.955 L 0,-15.33 -5.795,-9.638 c -1.711,-1.721 -3.396,-3.469 -5.112,-5.187 l -0.003,3.723 3.366,3.436 c -1.107,1.162 -2.269,2.274 -3.358,3.452 l -0.005,3.706 c 1.736,-1.73 3.43,-3.508 5.171,-5.234 L 0,0 Z" /></g><g
           transform="translate(214.0488,33.7519)"
           id="g232"><path
             id="path234"
             style="fill:#0a93b2;fill-opacity:1;fill-rule:nonzero;stroke:none"
             d="m 0,0 c -0.032,0 -0.066,0.008 -0.096,0.023 -3.134,1.521 -4.754,3.295 -4.681,5.129 0.059,1.509 1.293,2.936 3.563,4.123 2.157,1.127 5.198,2.022 8.796,2.586 0.118,0.02 0.231,-0.063 0.25,-0.183 C 7.852,11.559 7.77,11.445 7.649,11.429 0.362,10.283 -4.23,7.871 -4.338,5.135 -4.401,3.514 -2.828,1.836 0.096,0.42 0.205,0.365 0.249,0.234 0.197,0.125 0.159,0.047 0.081,0 0,0" /></g><g
           transform="translate(241.374,45.0195)"
           id="g236"><path
             id="path238"
             style="fill:#0a93b2;fill-opacity:1;fill-rule:nonzero;stroke:none"
             d="M 0,0 -0.037,0 C -2.352,0.381 -4.798,0.635 -7.301,0.756 -7.423,0.76 -7.516,0.863 -7.512,0.985 -7.505,1.107 -7.399,1.199 -7.28,1.194 -4.76,1.074 -2.298,0.818 0.034,0.436 0.154,0.416 0.235,0.303 0.217,0.182 0.198,0.075 0.104,0 0,0" /></g><g
           transform="translate(234.4551,30.1904)"
           id="g240"><path
             id="path242"
             style="fill:#0a93b2;fill-opacity:1;fill-rule:nonzero;stroke:none"
             d="m 0,0 -0.185,0 -0.218,0 0.219,0 0.001,0 c 0.061,0 0.122,0.128 0.183,0.128 11.762,0 21.042,3.121 21.164,7.05 0.042,1.376 -1.062,2.804 -3.194,4.065 -2.125,1.261 -5.169,2.348 -8.803,3.121 -0.12,0.025 -0.195,0.149 -0.17,0.268 0.024,0.118 0.142,0.197 0.26,0.173 3.681,-0.781 6.772,-1.869 8.936,-3.152 2.28,-1.351 3.459,-2.88 3.409,-4.424 C 21.538,5.139 19.23,3.325 15.104,1.958 11.115,0.636 5.758,0 0,0" /></g><g
           transform="translate(238.4355,41.4492)"
           id="g244"><path
             id="path246"
             style="fill:#0a93b2;fill-opacity:1;fill-rule:nonzero;stroke:none"
             d="m 0,0 5.8,4.423 -6.812,-2.72 -1.916,1.993 0.61,-2.761 -5.8,-4.423 6.813,2.72 L 0.609,-2.762 0,0 Z" /></g><g
           transform="translate(224.8017,43.7461)"
           id="g248"><path
             id="path250"
             style="fill:#0a93b2;fill-opacity:1;fill-rule:nonzero;stroke:none"
             d="M 0,0 0.457,2.451 2.165,2.725 C 2.39,2.76 2.505,2.633 2.458,2.395 L 2.147,0.717 C 2.104,0.48 1.933,0.309 1.711,0.271 L 0,0 Z m 19.43,-7.023 0.465,2.507 c 0.148,0.792 1,1.57 1.726,1.686 l 3.141,0.498 c 0.527,0.084 0.896,-0.508 0.787,-1.086 L 25.395,-4.224 C 25.287,-4.803 24.696,-5.418 24.169,-5.501 L 20.907,-6.02 20.861,-6.312 c -0.062,-0.333 0.159,-0.592 0.464,-0.543 l 3.645,0.58 -0.246,-1.325 -4.111,-0.649 c -0.725,-0.116 -1.331,0.432 -1.183,1.226 m -8.145,2.552 1.312,0.207 -1.007,-5.418 -1.342,-0.213 1.006,5.418 0.031,0.006 z m -8.729,-6.642 -1.344,-0.213 0.654,3.519 c 0.083,0.44 -0.052,0.582 -0.475,0.515 l -2.341,-0.37 -0.768,-4.129 -1.343,-0.213 1.007,5.418 0.033,0.006 4.455,0.705 c 0.673,0.108 1.04,-0.3 0.908,-1.013 l -0.786,-4.225 z m -6.451,0.353 -0.263,-1.419 -5.616,-0.889 1.749,9.418 4.639,0.734 -0.238,-1.291 -3.296,-0.522 -0.505,-2.71 2.687,0.427 -0.241,-1.291 -2.685,-0.426 -0.505,-2.709 4.274,0.678 z m 0.193,1.032 -3.175,-0.504 0.12,0.644 2.563,0.408 0.625,3.355 -2.565,-0.407 0.119,0.646 3.175,0.502 -0.862,-4.644 z m 7.044,-2.262 0.019,0.113 c 0.088,-0.008 0.204,-0.041 0.307,-0.025 l 2.639,0.413 c -0.098,-0.527 -0.794,-0.658 -1.855,-0.826 l -1.209,-0.191 -0.646,-3.484 1.588,0.252 c 3.906,0.384 5.394,2.404 5.871,4.812 l 4.759,0.755 0.768,4.128 0.388,0.062 c 0.424,0.067 0.362,0.145 0.28,-0.296 l -0.702,-3.778 3.418,0.543 0.046,0.25 c 0.258,-0.113 0.559,-0.154 0.88,-0.104 l 5.911,0.938 0.551,2.968 -0.384,0.273 c 0.333,0.393 0.592,0.872 0.667,1.277 l 0.093,0.469 c 0.295,1.748 -1.318,2.214 -2.055,2.097 l -3.394,-0.538 c -0.6,-0.097 -1.262,-0.514 -1.744,-1.068 -0.445,0.44 -1.131,0.612 -1.53,0.55 l -3.777,-0.6 0.423,-0.935 3.406,0.539 c 0.491,0.079 0.818,-0.119 0.91,-0.506 -0.037,-0.103 -0.91,-4.752 -0.91,-4.752 l -1.222,-0.194 0.655,3.52 c 0.082,0.439 -0.05,0.582 -0.475,0.514 l -2.341,-0.372 -0.768,-4.129 -1.343,-0.21 0.88,4.726 -1.105,1.303 -3.981,-1.438 1.888,0.299 0.03,0.004 -1.199,-6.45 c -0.306,-1.64 -2.054,-3.206 -3.606,-3.452 l -1.585,-0.251 0.24,1.288 1.207,0.192 c 1.062,0.171 2.256,1.232 2.461,2.343 l 0.133,0.699 -3.146,-0.5 c -0.675,-0.107 -1.041,0.303 -0.907,1.015 l 0.563,3.034 c 0.1,0.538 0.437,0.986 0.887,1.218 L 5.333,-5.414 6.91,-4.201 5.988,-4.357 C 5.5,-4.434 4.59,-4.802 4.012,-5.537 3.575,-5.018 2.812,-4.811 2.381,-4.88 l -3.388,-0.538 0.552,2.968 2.472,0.391 c 1.317,0.209 2.771,1.69 3.031,3.08 l 0.37,1.998 C 5.678,4.411 4.7,5.505 3.385,5.296 L -2.019,4.439 -3.17,-1.755 -8.144,-2.545 c -0.421,-0.066 -0.83,-0.48 -0.914,-0.926 l -1.859,-10 c -0.081,-0.444 0.192,-0.752 0.613,-0.684 l 9.492,1.506 0.768,4.129 0.388,0.061 c 0.426,0.067 0.362,0.144 0.279,-0.297 l -0.701,-3.777 3.42,0.543 z m 17.817,7.316 -0.03,-0.156 2.541,0.404 c 0.201,0.031 0.394,0.235 0.435,0.453 0.041,0.219 -0.087,0.371 -0.29,0.339 L 23.163,-3.736 22.123,-3.902 21.86,-3.943 C 21.556,-3.993 21.22,-4.34 21.159,-4.674 M 5.528,-7.227 5.228,-8.846 C 5.146,-9.287 5.279,-9.431 5.706,-9.363 l 2.461,0.391 0.527,2.838 -2.462,-0.391 C 5.807,-6.592 5.611,-6.785 5.528,-7.227 m 0.839,-0.59 c 0.082,0.409 0.236,0.35 0.651,0.416 L 7.404,-7.34 7.283,-7.986 6.897,-8.047 c -0.416,-0.065 -0.598,-0.176 -0.53,0.23" /></g><g
           transform="translate(235.7265,42.5996)"
           id="g252"><path
             id="path254"
             style="fill:#0a93b2;fill-opacity:1;fill-rule:nonzero;stroke:none"
             d="M 0,0 -0.361,1.437 -0.566,1.413 -0.632,1.059 C -0.677,0.813 -0.876,0.612 -1.106,0.576 L -2.511,0.352 C -2.743,0.316 -2.876,0.463 -2.83,0.709 l 0.708,3.808 c 0.044,0.243 0.242,0.443 0.475,0.481 l 1.404,0.223 C -0.012,5.259 0.12,5.109 0.075,4.865 L -0.016,4.38 2.824,4.83 2.931,5.411 C 3.203,6.875 2.207,7.988 0.821,7.77 L -1.895,7.339 C -3.279,7.118 -4.763,5.611 -5.034,4.147 L -5.789,0.084 c -0.273,-1.467 0.723,-2.577 2.108,-2.359 L -2.773,-2.129 0,0 Z" /></g><g
           transform="translate(237.7392,43.4668)"
           id="g256"><path
             id="path258"
             style="fill:#0a93b2;fill-opacity:1;fill-rule:nonzero;stroke:none"
             d="M 0,0 C 0.073,0.199 0.124,0.275 0.163,0.48 L 0.26,0.996 -0.871,0.817 0,0 Z" /></g><g
           transform="translate(186.3193,268.6679)"
           id="g260"><path
             id="path262"
             style="fill:#444141;fill-opacity:1;fill-rule:nonzero;stroke:none"
             d="m 0,0 0,-90.568 c 0,-1.651 1.35,-3 3,-3 l 85.38,0 c 1.65,0 3,1.349 3,3 L 91.38,0 0,0 Z" /></g><g
           transform="translate(258.5478,216.666)"
           id="g264"><path
             id="path266"
             style="fill:#4f4c4d;fill-opacity:1;fill-rule:nonzero;stroke:none"
             d="m 0,0 c 0,-3.299 -2.7,-6 -6,-6 l -41.077,0 c -3.3,0 -6,2.701 -6,6 l 0,58.588 c 0,3.3 2.7,6 6,6 l 41.077,0 c 3.3,0 6,-2.7 6,-6 L 0,0 Z" /></g><g
           transform="translate(209.7217,277.7837)"
           id="g268"><path
             id="path270"
             style="fill:#444141;fill-opacity:1;fill-rule:nonzero;stroke:none"
             d="m 0,0 c -1.1,0 -2,-0.9 -2,-2 l 0,-39.029 c 0,-3.122 2.557,-5.678 5.678,-5.678 l 37.218,0 c 3.122,0 5.677,2.556 5.677,5.678 l 0,39.029 c 0,1.1 -0.9,2 -2,2 L 0,0 Z" /></g><path
           id="path272"
           style="fill:#231f20;fill-opacity:1;fill-rule:nonzero;stroke:none"
           d="m 125.083,190.234 -55.38,0 0,4.26 55.38,0 0,-4.26 z" /><path
           id="path274"
           style="fill:#231f20;fill-opacity:1;fill-rule:nonzero;stroke:none"
           d="m 125.083,198.158 -55.38,0 0,4.26 55.38,0 0,-4.26 z" /><path
           id="path276"
           style="fill:#231f20;fill-opacity:1;fill-rule:nonzero;stroke:none"
           d="m 125.083,206.082 -55.38,0 0,4.26 55.38,0 0,-4.26 z" /><path
           id="path278"
           style="fill:#231f20;fill-opacity:1;fill-rule:nonzero;stroke:none"
           d="m 339.023,190.234 55.38,0 0,4.26 -55.38,0 0,-4.26 z" /><path
           id="path280"
           style="fill:#231f20;fill-opacity:1;fill-rule:nonzero;stroke:none"
           d="m 339.023,198.158 55.38,0 0,4.26 -55.38,0 0,-4.26 z" /><path
           id="path282"
           style="fill:#231f20;fill-opacity:1;fill-rule:nonzero;stroke:none"
           d="m 339.023,206.082 55.38,0 0,4.26 -55.38,0 0,-4.26 z" /><g
           transform="translate(135.4306,320.041)"
           id="g284"><path
             id="path286"
             style="fill:#444141;fill-opacity:1;fill-rule:nonzero;stroke:none"
             d="m 0,0 41.645,0 c 2.878,0 5.21,-2.047 5.21,-4.925 0,-2.878 -2.332,-4.925 -5.21,-4.925 L 0,-9.85" /></g><g
           transform="translate(183.5586,361.5625)"
           id="g288"><path
             id="path290"
             style="fill:#4f4c4d;fill-opacity:1;fill-rule:nonzero;stroke:none"
             d="m 0,0 0,6.921 c 0,0.49 0.532,0.888 1.021,0.888 0.49,0 1.022,-0.398 1.022,-0.888 L 2.043,0" /></g><g
           transform="translate(187.8681,361.5625)"
           id="g292"><path
             id="path294"
             style="fill:#4f4c4d;fill-opacity:1;fill-rule:nonzero;stroke:none"
             d="m 0,0 0,6.921 c 0,0.49 0.534,0.888 1.024,0.888 0.49,0 1.023,-0.398 1.023,-0.888 L 2.047,0" /></g><g
           transform="translate(192.1806,361.5625)"
           id="g296"><path
             id="path298"
             style="fill:#4f4c4d;fill-opacity:1;fill-rule:nonzero;stroke:none"
             d="m 0,0 0,6.921 c 0,0.49 0.534,0.888 1.022,0.888 0.49,0 1.024,-0.398 1.024,-0.888 L 2.046,0" /></g><g
           transform="translate(196.4922,361.5625)"
           id="g300"><path
             id="path302"
             style="fill:#4f4c4d;fill-opacity:1;fill-rule:nonzero;stroke:none"
             d="m 0,0 0,6.921 c 0,0.49 0.533,0.888 1.022,0.888 0.491,0 1.024,-0.398 1.024,-0.888 L 2.046,0" /></g><g
           transform="translate(200.8047,361.5625)"
           id="g304"><path
             id="path306"
             style="fill:#4f4c4d;fill-opacity:1;fill-rule:nonzero;stroke:none"
             d="m 0,0 0,6.921 c 0,0.49 0.532,0.888 1.022,0.888 0.489,0 1.023,-0.398 1.023,-0.888 L 2.045,0" /></g><g
           transform="translate(205.1152,361.5625)"
           id="g308"><path
             id="path310"
             style="fill:#4f4c4d;fill-opacity:1;fill-rule:nonzero;stroke:none"
             d="m 0,0 0,6.921 c 0,0.49 0.534,0.888 1.023,0.888 0.49,0 1.024,-0.398 1.024,-0.888 L 2.047,0" /></g><g
           transform="translate(209.4287,361.5625)"
           id="g312"><path
             id="path314"
             style="fill:#4f4c4d;fill-opacity:1;fill-rule:nonzero;stroke:none"
             d="m 0,0 0,6.921 c 0,0.49 0.532,0.888 1.022,0.888 0.489,0 1.022,-0.398 1.022,-0.888 L 2.044,0" /></g><g
           transform="translate(213.7392,361.5625)"
           id="g316"><path
             id="path318"
             style="fill:#4f4c4d;fill-opacity:1;fill-rule:nonzero;stroke:none"
             d="m 0,0 0,6.921 c 0,0.49 0.534,0.888 1.022,0.888 0.49,0 1.023,-0.398 1.023,-0.888 L 2.045,0" /></g><g
           transform="translate(218.0517,361.5625)"
           id="g320"><path
             id="path322"
             style="fill:#4f4c4d;fill-opacity:1;fill-rule:nonzero;stroke:none"
             d="m 0,0 0,6.921 c 0,0.49 0.532,0.888 1.022,0.888 0.491,0 1.023,-0.398 1.023,-0.888 L 2.045,0" /></g><g
           transform="translate(222.3623,361.5625)"
           id="g324"><path
             id="path326"
             style="fill:#4f4c4d;fill-opacity:1;fill-rule:nonzero;stroke:none"
             d="m 0,0 0,6.921 c 0,0.49 0.533,0.888 1.022,0.888 0.491,0 1.024,-0.398 1.024,-0.888 L 2.046,0" /></g><g
           transform="translate(226.6748,361.5625)"
           id="g328"><path
             id="path330"
             style="fill:#4f4c4d;fill-opacity:1;fill-rule:nonzero;stroke:none"
             d="m 0,0 0,6.921 c 0,0.49 0.534,0.888 1.023,0.888 0.489,0 1.022,-0.398 1.022,-0.888 L 2.045,0" /></g><g
           transform="translate(230.9863,361.5625)"
           id="g332"><path
             id="path334"
             style="fill:#4f4c4d;fill-opacity:1;fill-rule:nonzero;stroke:none"
             d="m 0,0 0,6.921 c 0,0.49 0.533,0.888 1.023,0.888 0.49,0 1.024,-0.398 1.024,-0.888 L 2.047,0" /></g><g
           transform="translate(235.2978,361.5625)"
           id="g336"><path
             id="path338"
             style="fill:#4f4c4d;fill-opacity:1;fill-rule:nonzero;stroke:none"
             d="m 0,0 0,6.921 c 0,0.49 0.532,0.888 1.023,0.888 0.49,0 1.022,-0.398 1.022,-0.888 L 2.045,0" /></g><g
           transform="translate(239.6113,361.5625)"
           id="g340"><path
             id="path342"
             style="fill:#4f4c4d;fill-opacity:1;fill-rule:nonzero;stroke:none"
             d="m 0,0 0,6.921 c 0,0.49 0.532,0.888 1.021,0.888 0.489,0 1.023,-0.398 1.023,-0.888 L 2.044,0" /></g><g
           transform="translate(243.9219,361.5625)"
           id="g344"><path
             id="path346"
             style="fill:#4f4c4d;fill-opacity:1;fill-rule:nonzero;stroke:none"
             d="m 0,0 0,6.921 c 0,0.49 0.533,0.888 1.022,0.888 0.49,0 1.022,-0.398 1.022,-0.888 L 2.044,0" /></g><g
           transform="translate(248.2324,361.5625)"
           id="g348"><path
             id="path350"
             style="fill:#4f4c4d;fill-opacity:1;fill-rule:nonzero;stroke:none"
             d="m 0,0 0,6.921 c 0,0.49 0.534,0.888 1.023,0.888 0.491,0 1.023,-0.398 1.023,-0.888 L 2.046,0" /></g><g
           transform="translate(252.5449,361.5625)"
           id="g352"><path
             id="path354"
             style="fill:#4f4c4d;fill-opacity:1;fill-rule:nonzero;stroke:none"
             d="m 0,0 0,6.921 c 0,0.49 0.535,0.888 1.023,0.888 0.49,0 1.022,-0.398 1.022,-0.888 L 2.045,0" /></g><g
           transform="translate(256.8574,361.5625)"
           id="g356"><path
             id="path358"
             style="fill:#4f4c4d;fill-opacity:1;fill-rule:nonzero;stroke:none"
             d="m 0,0 0,6.921 c 0,0.49 0.532,0.888 1.022,0.888 0.489,0 1.023,-0.398 1.023,-0.888 L 2.045,0" /></g><g
           transform="translate(261.1679,361.5625)"
           id="g360"><path
             id="path362"
             style="fill:#4f4c4d;fill-opacity:1;fill-rule:nonzero;stroke:none"
             d="m 0,0 0,6.921 c 0,0.49 0.534,0.888 1.024,0.888 0.49,0 1.023,-0.398 1.023,-0.888 L 2.047,0" /></g><g
           transform="translate(265.4804,361.5625)"
           id="g364"><path
             id="path366"
             style="fill:#4f4c4d;fill-opacity:1;fill-rule:nonzero;stroke:none"
             d="m 0,0 0,6.921 c 0,0.49 0.532,0.888 1.024,0.888 0.488,0 1.022,-0.398 1.022,-0.888 L 2.046,0" /></g><g
           transform="translate(269.791,361.5625)"
           id="g368"><path
             id="path370"
             style="fill:#4f4c4d;fill-opacity:1;fill-rule:nonzero;stroke:none"
             d="m 0,0 0,6.921 c 0,0.49 0.535,0.888 1.024,0.888 0.49,0 1.023,-0.398 1.023,-0.888 L 2.047,0" /></g><g
           transform="translate(274.1045,361.5625)"
           id="g372"><path
             id="path374"
             style="fill:#4f4c4d;fill-opacity:1;fill-rule:nonzero;stroke:none"
             d="m 0,0 0,6.921 c 0,0.49 0.532,0.888 1.022,0.888 0.489,0 1.022,-0.398 1.022,-0.888 L 2.044,0" /></g><g
           transform="translate(278.416,361.5625)"
           id="g376"><path
             id="path378"
             style="fill:#4f4c4d;fill-opacity:1;fill-rule:nonzero;stroke:none"
             d="m 0,0 0,6.921 c 0,0.49 0.533,0.888 1.022,0.888 0.49,0 1.024,-0.398 1.024,-0.888 L 2.046,0" /></g><g
           transform="translate(126.9482,236.7851)"
           id="g380"><path
             id="path382"
             style="fill:#5a5758;fill-opacity:1;fill-rule:nonzero;stroke:none"
             d="m 0,0 c 0,-1.805 -1.477,-3.282 -3.283,-3.282 l -116.005,0 c -1.805,0 -3.281,1.477 -3.281,3.282 l 0,48.701 c 0,1.806 1.476,3.283 3.281,3.283 l 116.005,0 C -1.477,51.984 0,50.507 0,48.701 L 0,0 Z" /></g><g
           transform="translate(459.6396,236.7851)"
           id="g384"><path
             id="path386"
             style="fill:#5a5758;fill-opacity:1;fill-rule:nonzero;stroke:none"
             d="m 0,0 c 0,-1.805 -1.478,-3.282 -3.283,-3.282 l -116.005,0 c -1.805,0 -3.281,1.477 -3.281,3.282 l 0,48.701 c 0,1.806 1.476,3.283 3.281,3.283 l 116.005,0 C -1.478,51.984 0,50.507 0,48.701 L 0,0 Z" /></g><g
           transform="translate(126.9482,216.6855)"
           id="g388"><path
             id="path390"
             style="fill:#5a5758;fill-opacity:1;fill-rule:nonzero;stroke:none"
             d="m 0,0 c 0,-1.806 -1.477,-3.283 -3.283,-3.283 l -116.005,0 c -1.805,0 -3.281,1.477 -3.281,3.283 l 0,48.701 c 0,1.805 1.476,3.282 3.281,3.282 l 116.005,0 C -1.477,51.983 0,50.506 0,48.701 L 0,0 Z" /></g><g
           transform="translate(117.4258,256.1582)"
           id="g392"><path
             id="path394"
             style="fill:#4f4c4d;fill-opacity:1;fill-rule:nonzero;stroke:none"
             d="m 0,0 c -2.56,0 -4.652,2.094 -4.652,4.652 l 0,6.336 -94.036,0 0,-6.336 C -98.688,2.094 -100.783,0 -103.342,0 l -7.148,0 0,-30.434 7.148,0 c 2.559,0 4.654,-2.093 4.654,-4.654 l 0,-6.145 94.036,0 0,6.145 c 0,2.561 2.092,4.654 4.652,4.654 l 6.966,0 L 6.966,0 0,0 Z" /></g><g
           transform="translate(17.0156,261.8183)"
           id="g396"><path
             id="path398"
             style="fill:#4f4c4d;fill-opacity:1;fill-rule:nonzero;stroke:none"
             d="m 0,0 c 0,-2.146 -1.741,-3.889 -3.89,-3.889 -2.147,0 -3.887,1.743 -3.887,3.889 0,2.147 1.74,3.89 3.887,3.89 C -1.741,3.89 0,2.147 0,0" /></g><g
           transform="translate(17.0156,220.1094)"
           id="g400"><path
             id="path402"
             style="fill:#4f4c4d;fill-opacity:1;fill-rule:nonzero;stroke:none"
             d="m 0,0 c 0,-2.148 -1.741,-3.889 -3.89,-3.889 -2.147,0 -3.887,1.741 -3.887,3.889 0,2.148 1.74,3.889 3.887,3.889 C -1.741,3.889 0,2.148 0,0" /></g><g
           transform="translate(122.1699,261.8183)"
           id="g404"><path
             id="path406"
             style="fill:#4f4c4d;fill-opacity:1;fill-rule:nonzero;stroke:none"
             d="m 0,0 c 0,-2.146 -1.741,-3.889 -3.888,-3.889 -2.149,0 -3.889,1.743 -3.889,3.889 0,2.147 1.74,3.89 3.889,3.89 C -1.741,3.89 0,2.147 0,0" /></g><g
           transform="translate(122.1699,220.1094)"
           id="g408"><path
             id="path410"
             style="fill:#4f4c4d;fill-opacity:1;fill-rule:nonzero;stroke:none"
             d="m 0,0 c 0,-2.148 -1.741,-3.889 -3.888,-3.889 -2.149,0 -3.889,1.741 -3.889,3.889 0,2.148 1.74,3.889 3.889,3.889 C -1.741,3.889 0,2.148 0,0" /></g><g
           transform="translate(459.6406,216.6855)"
           id="g412"><path
             id="path414"
             style="fill:#5a5758;fill-opacity:1;fill-rule:nonzero;stroke:none"
             d="m 0,0 c 0,-1.806 -1.479,-3.283 -3.284,-3.283 l -116.005,0 c -1.805,0 -3.282,1.477 -3.282,3.283 l 0,48.701 c 0,1.805 1.477,3.282 3.282,3.282 l 116.005,0 C -1.479,51.983 0,50.506 0,48.701 L 0,0 Z" /></g><g
           transform="translate(450.1172,256.1582)"
           id="g416"><path
             id="path418"
             style="fill:#4f4c4d;fill-opacity:1;fill-rule:nonzero;stroke:none"
             d="m 0,0 c -2.561,0 -4.653,2.094 -4.653,4.652 l 0,6.336 -94.037,0 0,-6.336 C -98.69,2.094 -100.784,0 -103.342,0 l -7.149,0 0,-30.434 7.149,0 c 2.558,0 4.652,-2.093 4.652,-4.654 l 0,-6.145 94.037,0 0,6.145 c 0,2.561 2.092,4.654 4.653,4.654 l 6.966,0 L 6.966,0 0,0 Z" /></g><g
           transform="translate(349.706,261.8183)"
           id="g420"><path
             id="path422"
             style="fill:#4f4c4d;fill-opacity:1;fill-rule:nonzero;stroke:none"
             d="m 0,0 c 0,-2.146 -1.74,-3.889 -3.888,-3.889 -2.148,0 -3.888,1.743 -3.888,3.889 0,2.147 1.74,3.89 3.888,3.89 C -1.74,3.89 0,2.147 0,0" /></g><g
           transform="translate(349.706,220.1094)"
           id="g424"><path
             id="path426"
             style="fill:#4f4c4d;fill-opacity:1;fill-rule:nonzero;stroke:none"
             d="m 0,0 c 0,-2.148 -1.74,-3.889 -3.888,-3.889 -2.148,0 -3.888,1.741 -3.888,3.889 0,2.148 1.74,3.889 3.888,3.889 C -1.74,3.889 0,2.148 0,0" /></g><g
           transform="translate(454.8613,261.8183)"
           id="g428"><path
             id="path430"
             style="fill:#4f4c4d;fill-opacity:1;fill-rule:nonzero;stroke:none"
             d="m 0,0 c 0,-2.146 -1.742,-3.889 -3.89,-3.889 -2.147,0 -3.887,1.743 -3.887,3.889 0,2.147 1.74,3.89 3.887,3.89 C -1.742,3.89 0,2.147 0,0" /></g><g
           transform="translate(454.8613,220.1094)"
           id="g432"><path
             id="path434"
             style="fill:#4f4c4d;fill-opacity:1;fill-rule:nonzero;stroke:none"
             d="m 0,0 c 0,-2.148 -1.742,-3.889 -3.89,-3.889 -2.147,0 -3.887,1.741 -3.887,3.889 0,2.148 1.74,3.889 3.887,3.889 C -1.742,3.889 0,2.148 0,0" /></g><path
           id="path436"
           style="fill:#0c6737;fill-opacity:1;fill-rule:nonzero;stroke:none"
           d="m 98.709,234.173 -29.006,0 0,17.17 29.006,0 0,-17.17 z" /><path
           id="path438"
           style="fill:#098846;fill-opacity:1;fill-rule:nonzero;stroke:none"
           d="m 81.17,234.173 -9.435,0 0,17.17 9.435,0 0,-17.17 z" /><path
           id="path440"
           style="fill:#0c6737;fill-opacity:1;fill-rule:nonzero;stroke:none"
           d="m 73.77,234.173 -0.985,0 0,17.17 0.985,0 0,-17.17 z" /><path
           id="path442"
           style="fill:#0c6737;fill-opacity:1;fill-rule:nonzero;stroke:none"
           d="m 75.744,234.173 -0.986,0 0,17.17 0.986,0 0,-17.17 z" /><path
           id="path444"
           style="fill:#0c6737;fill-opacity:1;fill-rule:nonzero;stroke:none"
           d="m 77.716,234.173 -0.986,0 0,17.17 0.986,0 0,-17.17 z" /><path
           id="path446"
           style="fill:#0c6737;fill-opacity:1;fill-rule:nonzero;stroke:none"
           d="m 79.689,234.173 -0.986,0 0,17.17 0.986,0 0,-17.17 z" /><path
           id="path448"
           style="fill:#0c6737;fill-opacity:1;fill-rule:nonzero;stroke:none"
           d="m 81.662,234.173 -0.986,0 0,17.17 0.986,0 0,-17.17 z" /><g
           transform="translate(186.3193,257.584)"
           id="g450"><path
             id="path452"
             style="fill:#110f0d;fill-opacity:1;fill-rule:nonzero;stroke:none"
             d="m 0,0 12.702,0 c 1.447,0 2.618,1.312 2.618,2.758 0,1.448 -1.171,2.759 -2.618,2.759 L 0,5.517 0,0 Z" /></g></g></g></g></svg>