<?xml version="1.0" encoding="UTF-8" standalone="no"?>
<svg
   xmlns:dc="http://purl.org/dc/elements/1.1/"
   xmlns:cc="http://creativecommons.org/ns#"
   xmlns:rdf="http://www.w3.org/1999/02/22-rdf-syntax-ns#"
   xmlns:svg="http://www.w3.org/2000/svg"
   xmlns="http://www.w3.org/2000/svg"
   viewBox="0 0 193.34125 413.1525"
   height="413.1525"
   width="193.34125"
   xml:space="preserve"
   version="1.1"
   id="svg2"><metadata
     id="metadata8"><rdf:RDF><cc:Work
         rdf:about=""><dc:format>image/svg+xml</dc:format><dc:type
           rdf:resource="http://purl.org/dc/dcmitype/StillImage" /><dc:title></dc:title></cc:Work></rdf:RDF></metadata><defs
     id="defs6"><clipPath
       id="clipPath16"
       clipPathUnits="userSpaceOnUse"><path
         id="path18"
         d="m 0,330.522 154.673,0 L 154.673,0 0,0 0,330.522 Z" /></clipPath></defs><g
     transform="matrix(1.25,0,0,-1.25,0,413.1525)"
     id="g10"><g
       id="g12"><g
         clip-path="url(#clipPath16)"
         id="g14"><g
           transform="translate(7.3857,0)"
           id="g20"><path
             id="path22"
             style="fill:#444141;fill-opacity:1;fill-rule:nonzero;stroke:none"
             d="m 0,0 c -4.062,0 -7.386,3.324 -7.386,7.387 l 0,315.75 c 0,4.062 3.324,7.385 7.386,7.385 l 119.56,0 c 4.063,0 7.757,-3.302 8.211,-7.34 l 17.277,-153.811 c 0.453,-4.039 0.439,-10.642 -0.032,-14.678 L 127.803,7.338 C 127.333,3.303 123.623,0 119.56,0 L 0,0 Z" /></g><g
           transform="translate(8.9756,6.0039)"
           id="g24"><path
             id="path26"
             style="fill:#4f4c4d;fill-opacity:1;fill-rule:nonzero;stroke:none"
             d="m 0,0 c -3.915,0 -7.118,3.201 -7.118,7.117 l 0,304.283 c 0,3.914 3.203,7.118 7.118,7.118 l 115.22,0 c 3.914,0 7.474,-3.183 7.91,-7.073 l 0.419,-148.226 c 0.436,-3.893 0.422,-10.256 -0.032,-14.145 L 123.161,7.068 C 122.708,3.18 119.134,0 115.22,0 L 0,0 Z" /></g><g
           transform="translate(45.8535,250.3672)"
           id="g28"><path
             id="path30"
             style="fill:#5a5758;fill-opacity:1;fill-rule:nonzero;stroke:none"
             d="m 0,0 c -16.933,0 -30.658,13.727 -30.658,30.66 0,16.934 13.725,30.66 30.658,30.66 16.934,0 30.659,-13.726 30.659,-30.66 C 30.659,13.727 16.934,0 0,0" /></g><g
           transform="translate(9.6934,239.583)"
           id="g32"><path
             id="path34"
             style="fill:#110f0d;fill-opacity:1;fill-rule:nonzero;stroke:none"
             d="m 0,0 0,14.773 c 0,5.06 0.422,6.767 2.722,6.767 2.217,0 3.042,-2.144 6.501,-5.385 C 16.407,9.421 25.536,4.492 36.16,4.492 c 20.408,0 36.951,16.544 36.951,36.952 0,9.716 -4.431,17.518 -4.431,17.518 -1.823,3.533 -0.803,6.127 3.26,6.127 l 33.31,0 c 4.063,0 7.387,-3.324 7.387,-7.387 l 0,-64.627 c 0,-4.062 -2.805,-7.386 -6.233,-7.386 l -6.386,0 c -34.671,0 -63.026,-28.108 -63.026,-62.78 0,-34.672 27.801,-62.779 62.473,-62.779 l 6.478,0 c 3.681,0 6.694,-3.324 6.694,-7.387 l 0,-61.859 c 0,-4.061 -3.324,-7.385 -7.387,-7.385 l -67.002,0 c -3.945,-2.822 -8.779,-4.482 -14.033,-4.482 C 10.721,-220.983 0,-210.095 0,-196.602 L 0,0" /></g><g
           transform="translate(44.5894,42.6621)"
           id="g36"><path
             id="path38"
             style="fill:#4f4c4d;fill-opacity:1;fill-rule:nonzero;stroke:none"
             d="m 0,0 c 0,6.115 -4.922,11.09 -10.972,11.09 -6.082,0 -11.03,-4.975 -11.03,-11.09 0,-6.115 4.948,-11.09 11.03,-11.09 C -4.922,-11.09 0,-6.115 0,0 m -26.618,0 c 0,8.66 7.018,15.706 15.646,15.706 8.596,0 15.588,-7.046 15.588,-15.706 0,-8.66 -6.992,-15.706 -15.588,-15.706 -8.628,0 -15.646,7.046 -15.646,15.706" /></g><g
           transform="translate(20.2793,42.6621)"
           id="g40"><path
             id="path42"
             style="fill:#656263;fill-opacity:1;fill-rule:nonzero;stroke:none"
             d="m 0,0 c 0,-7.4 5.939,-13.398 13.338,-13.398 7.4,0 13.28,5.998 13.28,13.398 0,7.4 -5.88,13.399 -13.28,13.399 C 5.939,13.399 0,7.4 0,0" /></g><g
           transform="translate(27.2358,134.334)"
           id="g44"><path
             id="path46"
             style="fill:#4f4c4d;fill-opacity:1;fill-rule:nonzero;stroke:none"
             d="m 0,0 0,15.695 c 0,3.825 3.1,6.924 6.924,6.924 3.825,0 6.925,-3.099 6.925,-6.924 L 13.849,0 c 0,-3.824 -3.1,-6.925 -6.925,-6.925 C 3.1,-6.925 0,-3.824 0,0" /></g><g
           transform="translate(29.5439,134.334)"
           id="g48"><path
             id="path50"
             style="fill:#656263;fill-opacity:1;fill-rule:nonzero;stroke:none"
             d="m 0,0 0,15.695 c 0,2.549 2.067,4.616 4.616,4.616 2.55,0 4.616,-2.067 4.616,-4.616 L 9.232,0 C 9.232,-2.55 7.166,-4.617 4.616,-4.617 2.067,-4.617 0,-2.55 0,0" /></g><g
           transform="translate(27.2358,174.8672)"
           id="g52"><path
             id="path54"
             style="fill:#4f4c4d;fill-opacity:1;fill-rule:nonzero;stroke:none"
             d="m 0,0 0,15.695 c 0,3.825 3.1,6.924 6.924,6.924 3.825,0 6.925,-3.099 6.925,-6.924 L 13.849,0 c 0,-3.824 -3.1,-6.924 -6.925,-6.924 C 3.1,-6.924 0,-3.824 0,0" /></g><g
           transform="translate(29.5439,174.8672)"
           id="g56"><path
             id="path58"
             style="fill:#656263;fill-opacity:1;fill-rule:nonzero;stroke:none"
             d="m 0,0 0,15.695 c 0,2.549 2.067,4.616 4.616,4.616 2.55,0 4.616,-2.067 4.616,-4.616 L 9.232,0 C 9.232,-2.549 7.166,-4.616 4.616,-4.616 2.067,-4.616 0,-2.549 0,0" /></g><g
           transform="translate(114.7363,278.211)"
           id="g60"><path
             id="path62"
             style="fill:#0a93b2;fill-opacity:1;fill-rule:evenodd;stroke:none"
             d="M 0,0 C -0.482,0.564 -1.121,1.074 -1.818,1.412 -2.516,1.752 -3.273,1.924 -3.965,1.933 -4.66,1.94 -5.291,1.787 -5.869,1.506 -6.449,1.221 -6.976,0.81 -7.33,0.302 -7.687,-0.209 -7.873,-0.815 -7.959,-1.37 c -0.085,-0.557 -0.07,-1.062 -0.014,-1.464 0.057,-0.4 0.153,-0.695 0.302,-0.965 l 3.311,-1.594 c -0.195,0.414 -0.37,0.833 -0.55,1.269 -0.18,0.434 -0.361,0.886 -0.42,1.364 -0.057,0.479 0.01,0.984 0.277,1.434 0.266,0.449 0.733,0.842 1.257,1.045 0.521,0.205 1.101,0.216 1.624,0.076 0.522,-0.143 0.988,-0.443 1.397,-0.811 0.408,-0.363 0.758,-0.793 0.988,-1.192 0.232,-0.399 0.344,-0.768 0.371,-1.144 l -1.732,-1.204 0.516,-1.384 2.375,0.971 c 0.009,0.272 -0.001,0.547 -0.036,0.874 -0.035,0.325 -0.096,0.7 -0.196,1.092 -0.099,0.391 -0.24,0.795 -0.473,1.308 C 0.807,-1.185 0.48,-0.565 0,0 M 0.885,9.047 C 0.725,8.905 0.521,8.729 0.303,8.77 L -2.604,9.32 C -2.83,9.364 -2.994,9.566 -3.108,9.725 -3.222,9.883 -3.252,10.076 -3.283,10.271 -3.348,10.103 -3.414,9.935 -3.535,9.822 -3.658,9.709 -3.83,9.555 -4.014,9.596 l -2.83,0.631 c -0.26,0.06 -0.424,0.326 -0.568,0.513 -0.141,0.191 -0.213,0.406 -0.285,0.621 l 0,-7.551 2.832,-0.532 c -0.588,0.29 -1.176,0.581 -1.553,1.075 -0.377,0.499 -0.708,1.175 -0.708,1.894 l 0,1.385 3.504,-0.692 C -3.535,6.69 -3.545,6.405 -3.67,6.15 -3.793,5.895 -4.033,5.666 -4.294,5.461 -4.555,5.256 -4.836,5.076 -5.135,4.933 l 3.686,-0.724 c -0.27,0.247 -0.516,0.523 -0.737,0.818 -0.22,0.298 -0.418,0.615 -0.515,0.912 -0.098,0.297 -0.098,0.575 -0.022,0.831 L 0.727,6.055 0.738,4.94 C 0.743,4.437 0.804,3.934 0.471,3.527 0.137,3.119 -0.561,2.807 -1.261,2.498 l 2.526,-0.551 0,7.676 C 1.154,9.406 1.045,9.19 0.885,9.047 m -4.476,3.954 5.377,4.487 -2.331,2.039 -0.894,-0.978 -6.471,1.17 1.029,-2.346 1.121,1.21 3.422,-0.671 -5.449,-4.728 7.432,-1.633 1,-1.653 1.214,1.998 -5.45,1.105 z" /></g><g
           transform="translate(56.1431,73.1211)"
           id="g64"><path
             id="path66"
             style="fill:#0a93b2;fill-opacity:1;fill-rule:nonzero;stroke:none"
             d="m 0,0 c 0,-4.209 3.343,-7.619 7.551,-7.619 4.209,0 7.553,3.41 7.553,7.619 l 0,13.938 c 0,4.208 -3.344,7.619 -7.553,7.619 -4.208,0 -7.585,-3.411 -7.585,-7.619 L 0,0 Z" /></g><g
           transform="translate(83.3862,87.3809)"
           id="g68"><path
             id="path70"
             style="fill:#4f4c4d;fill-opacity:1;fill-rule:nonzero;stroke:none"
             d="m 0,0 c -3.33,0 -6.028,-2.646 -6.028,-5.976 0,-3.329 2.698,-5.975 6.028,-5.975 l 17.028,0 c 3.329,0 6.029,2.646 6.029,5.975 0,3.33 -2.7,6.001 -6.029,6.001 L 0,0 Z" /></g><g
           transform="translate(101.728,92.7207)"
           id="g72"><path
             id="path74"
             style="fill:#4f4c4d;fill-opacity:1;fill-rule:nonzero;stroke:none"
             d="M 0,0 C 0,1.082 -0.858,1.958 -1.94,1.958 -3.022,1.958 -3.882,1.082 -3.882,0 l 0,-5.533 c 0,-1.082 0.86,-1.959 1.942,-1.959 1.082,0 1.949,0.877 1.949,1.959 L 0,0 Z" /></g><g
           transform="translate(85.9458,92.7207)"
           id="g76"><path
             id="path78"
             style="fill:#4f4c4d;fill-opacity:1;fill-rule:nonzero;stroke:none"
             d="M 0,0 C 0,1.082 -0.858,1.958 -1.94,1.958 -3.022,1.958 -3.882,1.082 -3.882,0 l 0,-5.533 c 0,-1.082 0.86,-1.959 1.942,-1.959 1.082,0 1.949,0.877 1.949,1.959 L 0,0 Z" /></g><g
           transform="translate(93.8374,92.7207)"
           id="g80"><path
             id="path82"
             style="fill:#4f4c4d;fill-opacity:1;fill-rule:nonzero;stroke:none"
             d="M 0,0 C 0,1.082 -0.859,1.958 -1.941,1.958 -3.022,1.958 -3.883,1.082 -3.883,0 l 0,-5.533 c 0,-1.082 0.861,-1.959 1.942,-1.959 1.082,0 1.95,0.877 1.95,1.959 L 0,0 Z" /></g><g
           transform="translate(83.3862,35.3702)"
           id="g84"><path
             id="path86"
             style="fill:#4f4c4d;fill-opacity:1;fill-rule:nonzero;stroke:none"
             d="m 0,0 c -3.33,0 -6.028,2.646 -6.028,5.976 0,3.328 2.698,5.974 6.028,5.974 l 17.028,0 c 3.329,0 6.029,-2.646 6.029,-5.974 0,-3.33 -2.7,-6.002 -6.029,-6.002 L 0,0 Z" /></g><g
           transform="translate(101.728,30.0303)"
           id="g88"><path
             id="path90"
             style="fill:#4f4c4d;fill-opacity:1;fill-rule:nonzero;stroke:none"
             d="m 0,0 c 0,-1.082 -0.858,-1.958 -1.94,-1.958 -1.082,0 -1.942,0.876 -1.942,1.958 l 0,5.532 c 0,1.082 0.86,1.959 1.942,1.959 1.082,0 1.949,-0.877 1.949,-1.959 L 0,0 Z" /></g><g
           transform="translate(85.9458,30.0303)"
           id="g92"><path
             id="path94"
             style="fill:#4f4c4d;fill-opacity:1;fill-rule:nonzero;stroke:none"
             d="m 0,0 c 0,-1.082 -0.858,-1.958 -1.94,-1.958 -1.082,0 -1.942,0.876 -1.942,1.958 l 0,5.532 c 0,1.082 0.86,1.959 1.942,1.959 1.082,0 1.949,-0.877 1.949,-1.959 L 0,0 Z" /></g><g
           transform="translate(93.8374,30.0303)"
           id="g96"><path
             id="path98"
             style="fill:#4f4c4d;fill-opacity:1;fill-rule:nonzero;stroke:none"
             d="m 0,0 c 0,-1.082 -0.859,-1.958 -1.941,-1.958 -1.081,0 -1.942,0.876 -1.942,1.958 l 0,5.532 c 0,1.082 0.861,1.959 1.942,1.959 1.082,0 1.95,-0.877 1.95,-1.959 L 0,0 Z" /></g><g
           transform="translate(56.1431,35.6914)"
           id="g100"><path
             id="path102"
             style="fill:#0a93b2;fill-opacity:1;fill-rule:nonzero;stroke:none"
             d="m 0,0 c 0,-4.209 3.343,-7.619 7.551,-7.619 4.209,0 7.553,3.41 7.553,7.619 l 0,13.938 c 0,4.207 -3.344,7.619 -7.553,7.619 -4.208,0 -7.585,-3.412 -7.585,-7.619 L 0,0 Z" /></g><g
           transform="translate(44.5894,80.0899)"
           id="g104"><path
             id="path106"
             style="fill:#4f4c4d;fill-opacity:1;fill-rule:nonzero;stroke:none"
             d="m 0,0 c 0,6.115 -4.922,11.091 -10.972,11.091 -6.082,0 -11.03,-4.976 -11.03,-11.091 0,-6.115 4.948,-11.09 11.03,-11.09 C -4.922,-11.09 0,-6.115 0,0 m -26.618,0 c 0,8.66 7.018,15.707 15.646,15.707 8.596,0 15.588,-7.047 15.588,-15.707 0,-8.66 -6.992,-15.706 -15.588,-15.706 -8.628,0 -15.646,7.046 -15.646,15.706" /></g><g
           transform="translate(20.2793,80.0899)"
           id="g108"><path
             id="path110"
             style="fill:#656263;fill-opacity:1;fill-rule:nonzero;stroke:none"
             d="m 0,0 c 0,-7.4 5.939,-13.399 13.338,-13.399 7.4,0 13.28,5.999 13.28,13.399 0,7.398 -5.88,13.398 -13.28,13.398 C 5.939,13.398 0,7.398 0,0" /></g><g
           transform="translate(154.6733,206.3457)"
           id="g112"><path
             id="path114"
             style="fill:#444141;fill-opacity:1;fill-rule:nonzero;stroke:none"
             d="m 0,0 c 0,1.525 -1.246,2.771 -2.77,2.771 l -45.479,0 c -26.196,0 -47.5,-20.89 -47.5,-47.085 0,-26.198 21.166,-47.086 47.361,-47.086 l 45.618,0 c 1.524,0 2.77,1.246 2.77,2.769 L 0,0 Z" /></g><g
           transform="translate(75.8115,272.6788)"
           id="g116"><path
             id="path118"
             style="fill:#656263;fill-opacity:1;fill-rule:nonzero;stroke:none"
             d="m 0,0 c 0.531,0 1.052,0.426 1.155,0.945 0,0 0.916,2.868 0.916,7.404 0,4.34 -0.914,7.402 -0.914,7.402 C 1.052,16.27 0.531,16.696 0,16.696 l -20.646,0 c -0.531,0 -0.964,0.434 -0.964,0.965 l 0,20.646 c 0,0.531 -0.425,1.051 -0.945,1.155 0,0 -2.899,0.916 -7.403,0.916 -3.838,0 -7.402,-0.916 -7.402,-0.916 -0.52,-0.104 -0.946,-0.624 -0.946,-1.155 l 0,-20.646 c 0,-0.531 -0.433,-0.965 -0.965,-0.965 l -20.644,0 c -0.531,0 -1.052,-0.426 -1.156,-0.945 0,0 -0.914,-2.526 -0.914,-7.402 0,-4.964 0.915,-7.404 0.915,-7.404 C -60.967,0.426 -60.446,0 -59.915,0 l 20.644,0 c 0.532,0 0.965,-0.435 0.965,-0.964 l 0,-20.646 c 0,-0.531 0.426,-1.051 0.946,-1.155 0,0 2.494,-0.916 7.402,-0.916 5.166,0 7.403,0.916 7.403,0.916 0.52,0.104 0.945,0.624 0.945,1.155 l 0,20.646 c 0,0.529 0.433,0.964 0.964,0.964 L 0,0 Z" /></g><g
           transform="translate(45.8535,273.9805)"
           id="g120"><path
             id="path122"
             style="fill:#444141;fill-opacity:1;fill-rule:nonzero;stroke:none"
             d="m 0,0 c -3.893,0 -7.047,3.154 -7.047,7.047 0,3.892 3.154,7.049 7.047,7.049 3.894,0 7.049,-3.157 7.049,-7.049 C 7.049,3.154 3.894,0 0,0" /></g><g
           transform="translate(59.1699,241.7881)"
           id="g124"><path
             id="path126"
             style="fill:#0a93b2;fill-opacity:1;fill-rule:nonzero;stroke:none"
             d="m 0,0 c -0.587,-0.203 -1.068,-0.878 -1.068,-1.5 l 0,-12.956 c 0,-0.621 0.487,-0.984 1.083,-0.805 0,0 2.17,0.651 3.756,1.272 1.298,0.509 2.811,1.222 2.811,1.222 0.562,0.266 1.022,0.993 1.022,1.614 l 0,13.529 c 0,0.623 -0.445,0.883 -0.988,0.581 0,0 -1.768,-0.985 -3.215,-1.634 C 1.954,0.675 0,0 0,0 m -38.151,6.358 c -0.51,0.358 -0.927,0.141 -0.929,-0.48 l -0.036,-14.425 c -10e-4,-0.621 0.413,-1.423 0.922,-1.78 0,0 4.182,-2.945 7.826,-4.189 3.361,-1.147 10.04,-2.196 10.04,-2.196 0.615,-0.096 1.117,0.334 1.117,0.956 l 0,12.866 c 0,0.622 -0.497,1.238 -1.105,1.368 0,0 -5.691,1.22 -8.879,2.572 -3.542,1.499 -8.956,5.308 -8.956,5.308 m 33.152,-22.81 c 0.613,0.105 1.114,0.699 1.114,1.322 l 0,12.875 c 0,0.621 -0.499,1.029 -1.109,0.906 0,0 -2.419,-0.486 -4.238,-0.666 -1.311,-0.131 -2.639,-0.197 -3.984,-0.197 -1.145,0 -2.292,0.073 -2.292,0.073 -0.62,0.04 -1.128,-0.436 -1.128,-1.057 l 0,-12.77 c 0,-0.621 0.508,-1.154 1.129,-1.184 0,0 1.154,-0.056 2.291,-0.056 1.172,0 2.344,0.045 3.511,0.133 1.954,0.148 4.706,0.621 4.706,0.621 M 23.898,1.274 c 0.378,0.495 0.687,1.409 0.687,2.03 l 0,18.702 c 0,0.622 -0.211,0.667 -0.469,0.1 0,0 -1.12,-2.462 -2.086,-4.105 -0.968,-1.641 -2.553,-3.786 -2.553,-3.786 -0.37,-0.5 -0.671,-1.418 -0.671,-2.04 l 0,-15.472 c 0,-0.622 0.36,-0.771 0.801,-0.333 0,0 1.243,1.236 2.207,2.336 0.964,1.102 2.084,2.568 2.084,2.568 M 10.177,-9.761 c 0,-0.621 0.434,-0.864 0.965,-0.539 0,0 1.43,0.877 2.584,1.697 0.852,0.606 1.618,1.211 1.618,1.211 0.487,0.386 0.886,1.21 0.886,1.832 l 0,14.789 c 0,0.623 -0.36,0.771 -0.8,0.332 0,0 -0.861,-0.858 -1.743,-1.632 C 12.57,6.95 11.086,5.849 11.086,5.849 10.587,5.478 10.177,4.666 10.177,4.044 l 0,-13.805 z" /></g><g
           transform="translate(86.9605,249.7559)"
           id="g128"><path
             id="path130"
             style="fill:#0a93b2;fill-opacity:1;fill-rule:nonzero;stroke:none"
             d="m 0,0 c 2.463,4.322 3.848,7.03 5.178,12.461 1.272,5.189 1.977,10.896 1.977,17.092 0.037,0.62 0.077,1.646 0.077,2.269 l 0,15.443 c 0,0.622 -0.508,1.131 -1.13,1.131 l -5.459,0 c -0.622,0 -1.13,-0.509 -1.13,-1.131 L -0.489,0.111 C -0.489,-0.51 -0.269,-0.561 0,0" /></g><g
           transform="translate(99.791,67.2627)"
           id="g132"><path
             id="path134"
             style="fill:#0a93b2;fill-opacity:1;fill-rule:nonzero;stroke:none"
             d="m 0,0 c -1.214,0 -2.198,0.984 -2.198,2.198 0,1.215 0.984,2.2 2.198,2.2 1.214,0 2.199,-0.985 2.199,-2.2 C 2.199,0.984 1.214,0 0,0" /></g><g
           transform="translate(83.3516,75.4395)"
           id="g136"><path
             id="path138"
             style="fill:#656263;fill-opacity:1;fill-rule:nonzero;stroke:none"
             d="m 0,0 c -3.307,0 -5.988,2.682 -5.988,5.99 0,3.307 2.681,5.989 5.988,5.989 3.308,0 5.99,-2.682 5.99,-5.989 C 5.99,2.682 3.308,0 0,0" /></g><g
           transform="translate(83.3516,35.3731)"
           id="g140"><path
             id="path142"
             style="fill:#656263;fill-opacity:1;fill-rule:nonzero;stroke:none"
             d="m 0,0 c -3.307,0 -5.988,2.682 -5.988,5.99 0,3.307 2.681,5.989 5.988,5.989 3.308,0 5.99,-2.682 5.99,-5.989 C 5.99,2.682 3.308,0 0,0" /></g><g
           transform="translate(99.791,58.8653)"
           id="g144"><path
             id="path146"
             style="fill:#0a93b2;fill-opacity:1;fill-rule:nonzero;stroke:none"
             d="m 0,0 c -1.214,0 -2.198,0.984 -2.198,2.199 0,1.214 0.984,2.198 2.198,2.198 1.214,0 2.199,-0.984 2.199,-2.198 C 2.199,0.984 1.214,0 0,0" /></g><g
           transform="translate(99.791,50.4688)"
           id="g148"><path
             id="path150"
             style="fill:#0a93b2;fill-opacity:1;fill-rule:nonzero;stroke:none"
             d="m 0,0 c -1.214,0 -2.198,0.984 -2.198,2.199 0,1.213 0.984,2.197 2.198,2.197 1.214,0 2.199,-0.984 2.199,-2.197 C 2.199,0.984 1.214,0 0,0" /></g><g
           transform="translate(91.8999,63.0645)"
           id="g152"><path
             id="path154"
             style="fill:#0a93b2;fill-opacity:1;fill-rule:nonzero;stroke:none"
             d="m 0,0 c -1.214,0 -2.198,0.984 -2.198,2.198 0,1.214 0.984,2.198 2.198,2.198 1.214,0 2.199,-0.984 2.199,-2.198 C 2.199,0.984 1.214,0 0,0" /></g><g
           transform="translate(91.8999,54.667)"
           id="g156"><path
             id="path158"
             style="fill:#0a93b2;fill-opacity:1;fill-rule:nonzero;stroke:none"
             d="m 0,0 c -1.214,0 -2.198,0.984 -2.198,2.198 0,1.215 0.984,2.199 2.198,2.199 1.214,0 2.199,-0.984 2.199,-2.199 C 2.199,0.984 1.214,0 0,0" /></g><g
           transform="translate(84.0088,58.8653)"
           id="g160"><path
             id="path162"
             style="fill:#0a93b2;fill-opacity:1;fill-rule:nonzero;stroke:none"
             d="m 0,0 c -1.214,0 -2.198,0.984 -2.198,2.199 0,1.214 0.984,2.198 2.198,2.198 1.214,0 2.199,-0.984 2.199,-2.198 C 2.199,0.984 1.214,0 0,0" /></g></g></g></g></svg>