<?xml version="1.0" encoding="UTF-8" standalone="no"?>
<svg
   xmlns:dc="http://purl.org/dc/elements/1.1/"
   xmlns:cc="http://creativecommons.org/ns#"
   xmlns:rdf="http://www.w3.org/1999/02/22-rdf-syntax-ns#"
   xmlns:svg="http://www.w3.org/2000/svg"
   xmlns="http://www.w3.org/2000/svg"
   viewBox="0 0 180.86501 279.10626"
   height="279.10626"
   width="180.86501"
   xml:space="preserve"
   version="1.1"
   id="svg2"><metadata
     id="metadata8"><rdf:RDF><cc:Work
         rdf:about=""><dc:format>image/svg+xml</dc:format><dc:type
           rdf:resource="http://purl.org/dc/dcmitype/StillImage" /><dc:title></dc:title></cc:Work></rdf:RDF></metadata><defs
     id="defs6"><clipPath
       id="clipPath16"
       clipPathUnits="userSpaceOnUse"><path
         id="path18"
         d="m 0,223.285 144.692,0 L 144.692,0 0,0 0,223.285 Z" /></clipPath></defs><g
     transform="matrix(1.25,0,0,-1.25,0,279.10625)"
     id="g10"><g
       id="g12"><g
         clip-path="url(#clipPath16)"
         id="g14"><g
           transform="translate(144.6924,8.4258)"
           id="g20"><path
             id="path22"
             style="fill:#e9e9e9;fill-opacity:1;fill-rule:nonzero;stroke:none"
             d="m 0,0 c 0,-4.635 -3.792,-8.426 -8.426,-8.426 l -127.841,0 c -4.634,0 -8.425,3.791 -8.425,8.426 l 0,206.434 c 0,4.634 3.791,8.425 8.425,8.425 l 127.841,0 c 4.634,0 8.426,-3.791 8.426,-8.425 L 0,0 Z" /></g><path
           id="path24"
           style="fill:#bdbcbc;fill-opacity:1;fill-rule:nonzero;stroke:none"
           d="m 138.812,20.012 -132.932,0 0,128.298 132.932,0 0,-128.298 z" /><g
           transform="translate(3.8886,218.375)"
           id="g26"><path
             id="path28"
             style="fill:#2c2a2a;fill-opacity:1;fill-rule:nonzero;stroke:none"
             d="M 0,0 0,-57.475 C 0,-62.108 3.791,-65.9 8.426,-65.9 l 120.063,0 c 4.635,0 8.426,3.792 8.426,8.425 L 136.915,0 0,0 Z" /></g><path
           id="path30"
           style="fill:#231f20;fill-opacity:1;fill-rule:nonzero;stroke:none"
           d="m 140.804,218.375 -136.915,0 0,-11.621 136.915,0 0,11.621 z" /><g
           transform="translate(92.3896,10.041)"
           id="g32"><path
             id="path34"
             style="fill:#d3d2d2;fill-opacity:1;fill-rule:nonzero;stroke:none"
             d="M 0,0 -20.044,6.004 -40.087,0 l 0,-6.445 L 0,-6.445 0,0 Z" /></g><path
           id="path36"
           style="fill:#f9b00b;fill-opacity:1;fill-rule:nonzero;stroke:none"
           d="m 9.502,207.779 -1.959,0 0,7.74 1.959,0 0,-7.74 z" /><path
           id="path38"
           style="fill:#f9b00b;fill-opacity:1;fill-rule:nonzero;stroke:none"
           d="m 12.951,207.779 -1.958,0 0,8.951 1.958,0 0,-8.951 z" /><path
           id="path40"
           style="fill:#f9b00b;fill-opacity:1;fill-rule:nonzero;stroke:none"
           d="m 16.401,207.779 -1.958,0 0,8.951 1.958,0 0,-8.951 z" /><path
           id="path42"
           style="fill:#f9b00b;fill-opacity:1;fill-rule:nonzero;stroke:none"
           d="m 19.852,207.779 -1.958,0 0,8.951 1.958,0 0,-8.951 z" /><path
           id="path44"
           style="fill:#f9b00b;fill-opacity:1;fill-rule:nonzero;stroke:none"
           d="m 23.302,207.779 -1.959,0 0,8.951 1.959,0 0,-8.951 z" /><path
           id="path46"
           style="fill:#f9b00b;fill-opacity:1;fill-rule:nonzero;stroke:none"
           d="m 26.751,207.779 -1.958,0 0,8.951 1.958,0 0,-8.951 z" /><path
           id="path48"
           style="fill:#f9b00b;fill-opacity:1;fill-rule:nonzero;stroke:none"
           d="m 30.201,207.779 -1.958,0 0,8.951 1.958,0 0,-8.951 z" /><path
           id="path50"
           style="fill:#f9b00b;fill-opacity:1;fill-rule:nonzero;stroke:none"
           d="m 33.651,207.779 -1.958,0 0,8.951 1.958,0 0,-8.951 z" /><path
           id="path52"
           style="fill:#f9b00b;fill-opacity:1;fill-rule:nonzero;stroke:none"
           d="m 37.102,207.779 -1.959,0 0,8.951 1.959,0 0,-8.951 z" /><path
           id="path54"
           style="fill:#f9b00b;fill-opacity:1;fill-rule:nonzero;stroke:none"
           d="m 40.551,207.779 -1.958,0 0,8.951 1.958,0 0,-8.951 z" /><path
           id="path56"
           style="fill:#f9b00b;fill-opacity:1;fill-rule:nonzero;stroke:none"
           d="m 44.001,207.779 -1.958,0 0,8.951 1.958,0 0,-8.951 z" /><path
           id="path58"
           style="fill:#f9b00b;fill-opacity:1;fill-rule:nonzero;stroke:none"
           d="m 47.451,207.779 -1.959,0 0,8.951 1.959,0 0,-8.951 z" /><path
           id="path60"
           style="fill:#f9b00b;fill-opacity:1;fill-rule:nonzero;stroke:none"
           d="m 50.9,207.779 -1.958,0 0,8.951 1.958,0 0,-8.951 z" /><path
           id="path62"
           style="fill:#f9b00b;fill-opacity:1;fill-rule:nonzero;stroke:none"
           d="m 54.351,207.779 -1.958,0 0,8.951 1.958,0 0,-8.951 z" /><path
           id="path64"
           style="fill:#f9b00b;fill-opacity:1;fill-rule:nonzero;stroke:none"
           d="m 57.801,207.779 -1.959,0 0,8.951 1.959,0 0,-8.951 z" /><path
           id="path66"
           style="fill:#f9b00b;fill-opacity:1;fill-rule:nonzero;stroke:none"
           d="m 61.25,207.779 -1.958,0 0,8.951 1.958,0 0,-8.951 z" /><path
           id="path68"
           style="fill:#f9b00b;fill-opacity:1;fill-rule:nonzero;stroke:none"
           d="m 64.7,207.779 -1.958,0 0,8.951 1.958,0 0,-8.951 z" /><path
           id="path70"
           style="fill:#f9b00b;fill-opacity:1;fill-rule:nonzero;stroke:none"
           d="m 68.15,206.754 -1.958,0 0,11.621 1.958,0 0,-11.621 z" /><path
           id="path72"
           style="fill:#f9b00b;fill-opacity:1;fill-rule:nonzero;stroke:none"
           d="m 71.601,207.779 -1.959,0 0,8.951 1.959,0 0,-8.951 z" /><path
           id="path74"
           style="fill:#f9b00b;fill-opacity:1;fill-rule:nonzero;stroke:none"
           d="m 75.05,207.779 -1.958,0 0,8.951 1.958,0 0,-8.951 z" /><path
           id="path76"
           style="fill:#f9b00b;fill-opacity:1;fill-rule:nonzero;stroke:none"
           d="m 78.5,207.779 -1.958,0 0,8.951 1.958,0 0,-8.951 z" /><path
           id="path78"
           style="fill:#f9b00b;fill-opacity:1;fill-rule:nonzero;stroke:none"
           d="m 81.95,207.779 -1.958,0 0,8.951 1.958,0 0,-8.951 z" /><path
           id="path80"
           style="fill:#f9b00b;fill-opacity:1;fill-rule:nonzero;stroke:none"
           d="m 85.4,207.779 -1.959,0 0,8.951 1.959,0 0,-8.951 z" /><path
           id="path82"
           style="fill:#f9b00b;fill-opacity:1;fill-rule:nonzero;stroke:none"
           d="m 88.85,207.779 -1.958,0 0,8.951 1.958,0 0,-8.951 z" /><path
           id="path84"
           style="fill:#f9b00b;fill-opacity:1;fill-rule:nonzero;stroke:none"
           d="m 92.3,207.779 -1.958,0 0,8.951 1.958,0 0,-8.951 z" /><path
           id="path86"
           style="fill:#f9b00b;fill-opacity:1;fill-rule:nonzero;stroke:none"
           d="m 95.75,207.779 -1.959,0 0,8.951 1.959,0 0,-8.951 z" /><path
           id="path88"
           style="fill:#f9b00b;fill-opacity:1;fill-rule:nonzero;stroke:none"
           d="m 99.199,207.779 -1.958,0 0,8.951 1.958,0 0,-8.951 z" /><path
           id="path90"
           style="fill:#f9b00b;fill-opacity:1;fill-rule:nonzero;stroke:none"
           d="m 102.649,207.779 -1.958,0 0,8.951 1.958,0 0,-8.951 z" /><path
           id="path92"
           style="fill:#f9b00b;fill-opacity:1;fill-rule:nonzero;stroke:none"
           d="m 106.1,207.779 -1.958,0 0,8.951 1.958,0 0,-8.951 z" /><path
           id="path94"
           style="fill:#f9b00b;fill-opacity:1;fill-rule:nonzero;stroke:none"
           d="m 109.55,207.779 -1.959,0 0,8.951 1.959,0 0,-8.951 z" /><path
           id="path96"
           style="fill:#f9b00b;fill-opacity:1;fill-rule:nonzero;stroke:none"
           d="m 112.999,207.779 -1.958,0 0,8.951 1.958,0 0,-8.951 z" /><path
           id="path98"
           style="fill:#f9b00b;fill-opacity:1;fill-rule:nonzero;stroke:none"
           d="m 116.449,207.779 -1.958,0 0,8.951 1.958,0 0,-8.951 z" /><path
           id="path100"
           style="fill:#f9b00b;fill-opacity:1;fill-rule:nonzero;stroke:none"
           d="m 119.899,207.779 -1.959,0 0,8.951 1.959,0 0,-8.951 z" /><path
           id="path102"
           style="fill:#f9b00b;fill-opacity:1;fill-rule:nonzero;stroke:none"
           d="m 123.35,207.779 -1.959,0 0,8.951 1.959,0 0,-8.951 z" /><path
           id="path104"
           style="fill:#f9b00b;fill-opacity:1;fill-rule:nonzero;stroke:none"
           d="m 126.799,207.779 -1.958,0 0,8.951 1.958,0 0,-8.951 z" /><path
           id="path106"
           style="fill:#f9b00b;fill-opacity:1;fill-rule:nonzero;stroke:none"
           d="m 130.249,207.779 -1.958,0 0,8.951 1.958,0 0,-8.951 z" /><path
           id="path108"
           style="fill:#f9b00b;fill-opacity:1;fill-rule:nonzero;stroke:none"
           d="m 133.699,207.779 -1.959,0 0,8.951 1.959,0 0,-8.951 z" /><path
           id="path110"
           style="fill:#f9b00b;fill-opacity:1;fill-rule:nonzero;stroke:none"
           d="m 137.148,206.754 -1.958,0 0,11.621 1.958,0 0,-11.621 z" /></g></g></g></svg>