<?xml version="1.0" encoding="utf-8"?>
<!-- Generator: Adobe Illustrator 19.0.0, SVG Export Plug-In . SVG Version: 6.00 Build 0)  -->
<svg version="1.1" baseProfile="tiny"
	 id="svg2" xmlns:dc="http://purl.org/dc/elements/1.1/" xmlns:cc="http://creativecommons.org/ns#" xmlns:rdf="http://www.w3.org/1999/02/22-rdf-syntax-ns#" xmlns:svg="http://www.w3.org/2000/svg"
	 xmlns="http://www.w3.org/2000/svg" xmlns:xlink="http://www.w3.org/1999/xlink" x="0px" y="0px"
	 viewBox="-101.7 363.6 250.3 66.4" xml:space="preserve">
<rect x="-362.7" y="727.2" fill="none" width="172.5" height="66.4"/>
<g id="g14">
	<g id="g20" transform="translate(44.7168,52.9789)">
		<path id="path22" fill="#0A93B2" d="M-51.5,310.8l6.1,6.8c0,2.7,0,5.5,0,8.2c-2.9,0-5.8,0-8.7,0c0-2,0-3.9,0-5.9
			c-2.3,0-4.6,0-6.9,0c0,3.2,0,6.5,0,9.7c0.7,0,1.4,0,2.1,0c0,2.9,0,5.8,0,8.7c-1.7,0-3.3,0-5,0c-0.2,0-0.3-0.2-0.4-0.3
			c-2-2.1-4.1-4.1-6-6.2c0-4.6,0-9.3,0-13.9l6.2-7.1L-51.5,310.8z"/>
	</g>
	<g id="g24" transform="translate(52.2605,20.1686)">
		<path id="path26" fill="#0A93B2" d="M-49.6,384.6c0-13.7,0-27.4-0.1-41c3.1,0,6.2,0,9.4,0c0,13,0,26.1,0.1,39.1c0.9,0,1.7,0,2.6,0
			c0,3,0,5.9,0,8.9c-1.6,0-3.2,0-4.8,0c-0.2,0-0.3-0.1-0.4-0.2L-49.6,384.6z"/>
	</g>
	<g id="g28" transform="translate(65.6484,53.0148)">
		<path id="path30" fill="#0A93B2" d="M-46.3,310.7c3.1,0,6.2,0,9.4,0c0,13.7,0.1,27.4,0.1,41.1c-2.2,2.4-4.6,4.6-6.8,7
			c-1.7,0-3.3,0-5,0c0-3,0-5.9,0-8.9c0.8,0,1.6,0,2.5,0C-46.3,336.8-46.3,323.8-46.3,310.7"/>
	</g>
	<g id="g32" transform="translate(75.5585,53.0319)">
		<path id="path34" fill="#0A93B2" d="M-43.8,310.7c3.1,0,6.2,0,9.4,0c0,16,0.1,32,0.1,48c-3.1,0-6.2,0-9.4,0
			C-43.8,342.7-43.8,326.7-43.8,310.7"/>
	</g>
	<g id="g36" transform="translate(90.4033,53.0555)">
		<path id="path38" fill="#0A93B2" d="M-40.1,310.6c2.3,2.3,4.6,4.5,6.8,6.7v18.2c-2.3,2.3-4.5,4.5-6.8,6.8c-2.2,0-4.5,0-6.7,0
			c0-3,0-6.1,0-9.1c1.4,0,2.7,0,4,0c0-4.5,0-9,0-13.5c-1.4,0-2.7,0-4,0c0-3,0-6.1,0-9.1H-40.1z"/>
	</g>
	<g id="g40" transform="translate(98.3076,53.071)">
		<path id="path42" fill="#0A93B2" d="M-38.1,310.6c6.9,0,13.7,0,20.6,0c0,3,0,6.1,0,9.1c-3.7,0-7.5,0-11.2,0c0,9.9,0,19.9,0.1,29.8
			c3.8,0,7.5,0,11.2,0c0,3,0,6.1,0,9.1c-6.9,0-13.7,0-20.6,0C-38.1,342.6-38.1,326.6-38.1,310.6"/>
	</g>
	<g id="g44" transform="translate(117.3143,53.1036)">
		<path id="path46" fill="#0A93B2" d="M-33.4,310.5c3.1,0,6.2,0,9.4,0c0,16,0.1,32,0.1,48c-3.1,0-6.2,0-9.4,0
			C-33.3,342.5-33.4,326.5-33.4,310.5"/>
	</g>
	<g id="g48" transform="translate(133.4452,33.8042)">
		<path id="path50" fill="#0A93B2" d="M-29.4,353.9c1.9,1.9,3.8,3.8,5.7,5.7c0.1,6.1,0,12.1,0,18.2c-3.2,0-6.3,0-9.5,0
			c0-6.4,0-12.8,0-19.2c-1.6,0-3.1,0-4.7,0c0-3,0-6.1,0-9.1c1.6,0,3.1,0,4.7,0c0-3.5,0-7.1,0-10.6c-1.6,0-3.1,0-4.7,0
			c0-3,0-6.1,0-9.1h7.3l6.9,6.9c0,3.8,0,7.5,0,11.3L-29.4,353.9z"/>
	</g>
	<g id="g52" transform="translate(107.8365,38.5277)">
		<path id="path54" fill="#0A93B2" d="M-35.8,343.3c2.3,0,4.6,0,6.8,0c0,3,0,6.1,0,9.1c-2.3,0-4.5,0-6.8,0
			C-35.7,349.4-35.7,346.3-35.8,343.3"/>
	</g>
	<g id="g56" transform="translate(44.6569,14.5637)">
		<path id="path58" fill="#0A93B2" d="M-51.5,397.2h-12.7l-6.1-6.8c0-2.7,0-5.5,0-8.2c2.9,0,5.8,0,8.7,0c0,2,0,3.9,0,5.9
			c2.3,0,4.6,0,6.9,0v-11.3c-0.5,0-1,0-1.6,0c0-2.9,0-5.8,0-8.7c1.5,0,3,0,4.5,0c0.2,0,0.3,0.1,0.4,0.2c2,2.1,4,4.1,6,6.1
			c0.1,0.1,0.2,0.2,0.1,0.4c0,5.1,0,10.2,0,15.3L-51.5,397.2z"/>
	</g>
	<g id="g60" transform="translate(58.3586,0.0198)">
		<path id="path62" fill="#0A93B2" d="M-48.1,430c-4.8,0-9.5,0-14.3,0c-0.9,0-1.9-0.3-2.6-0.9c-0.5-0.4-0.7-1.1-0.7-1.7
			c0-2.8,0-5.7,0-8.5c0-1,0.8-1.9,1.7-2.2c0.7-0.3,1.4-0.3,2.1-0.3c4.6,0,9.2,0,13.8,0c0,0.8,0,1.7,0,2.5c-4.8,0-9.6,0-14.4,0
			c0,2.9,0,5.7,0,8.6c3.8,0,7.5,0,11.3,0c0-1,0-2,0-3c-1.8,0-3.6,0-5.4,0c0-0.8,0-1.7,0-2.5c2.9,0,5.7,0,8.6,0L-48.1,430z"/>
	</g>
	<g id="g64" transform="translate(63.2974,8.9267)">
		<path id="path66" fill="#0A93B2" d="M-46.9,409.9c0,1,0,2,0,3c3.6,0,7.2,0,10.7,0c0-1,0-2,0-3C-39.7,409.9-43.3,409.9-46.9,409.9
			 M-50.1,407.4c4.6,0,9.2,0,13.8,0c1.2,0,2.4,0.5,3,1.5c0.3,0.6,0.3,1.3,0.3,1.9c0,0.8,0,1.6,0,2.4c-0.1,1-0.9,1.7-1.8,2
			c-0.9,0.4-1.9,0.2-2.9,0.3l5,5.5h-3.9c-1.7-1.9-3.3-3.7-5-5.6h-5.3v5.6h-3.2C-50,421-50.1,407.4-50.1,407.4z"/>
	</g>
	<g id="g68" transform="translate(88.5909,0.0718)">
		<path id="path70" fill="#0A93B2" d="M-40.6,429.8c-1.8-3.7-3.7-7.4-5.5-11.1h-1.4c-1.8,3.7-3.6,7.4-5.5,11.1h-3.7
			c2.2-4.6,4.5-9.1,6.7-13.7h6.3c2.2,4.5,4.5,9.1,6.8,13.6L-40.6,429.8z"/>
	</g>
	<g id="g72" transform="translate(92.7168,10.9988)">
		<path id="path74" fill="#0A93B2" d="M-39.5,405.3c5.4,0,10.7,0,16.1,0c0,0.8,0,1.7,0,2.5c-4.3,0-8.6,0-12.9,0c0,1,0,2,0,3
			c3.8,0,7.5,0,11.3,0c0,0.8,0,1.7,0,2.5c-3.8,0-7.5,0-11.3,0c0,1.9,0,3.7,0,5.6c-1.1,0-2.1,0-3.2,0
			C-39.5,414.4-39.5,409.8-39.5,405.3"/>
	</g>
	<g id="g76" transform="translate(121.837,0.1357)">
		<path id="path78" fill="#0A93B2" d="M-32.3,429.7h-4.6c-1.7-1.6-3.3-3.2-5-4.8c-1.7,1.6-3.3,3.3-4.9,4.8h-4.6l7.1-7.3
			c-2.2-2.1-4.3-4.2-6.5-6.4h4.7l4.3,4.2c1.5-1.4,2.8-2.8,4.3-4.2h4.6c-2.2,2.2-4.4,4.3-6.5,6.5L-32.3,429.7z"/>
	</g>
	<g id="g80" transform="translate(5.9731,44.6838)">
		<path id="path82" fill="#0A93B2" d="M-61.2,329.5v-0.1c1.9-3.9,4.1-5.9,6.4-5.9c1.9,0.1,3.7,1.6,5.2,4.4c1.4,2.7,2.5,6.5,3.3,11
			c0,0.1-0.1,0.3-0.2,0.3c-0.1,0-0.3-0.1-0.3-0.2c-1.4-9.1-4.5-14.8-7.9-15c-2-0.1-4.1,1.9-5.9,5.6c-0.1,0.1-0.2,0.2-0.4,0.1
			C-61.2,329.7-61.2,329.6-61.2,329.5"/>
	</g>
	<g id="g84" transform="translate(17.2877,17.378)">
		<path id="path86" fill="#0A93B2" d="M-58.4,390.9L-58.4,390.9c0.5-2.9,0.8-6,0.9-9.1c0-0.2,0.1-0.3,0.3-0.3s0.3,0.1,0.3,0.3
			c-0.1,3.1-0.5,6.2-0.9,9.1c0,0.2-0.2,0.3-0.3,0.2C-58.3,391.1-58.4,391-58.4,390.9"/>
	</g>
	<g id="g88" transform="translate(2.4467,24.2714)">
		<path id="path90" fill="#0A93B2" d="M-62.1,375.4c0-0.1,0-0.2,0-0.2c0-0.1,0-0.3,0-0.3s0,0.1,0,0.3l0,0c0,0.1,0.2,0.2,0.2,0.2
			c0,14.7,3.9,26.3,8.9,26.4c1.7,0,3.5-1.3,5.1-4s2.9-6.5,3.9-11c0-0.1,0.2-0.2,0.3-0.2s0.2,0.2,0.2,0.3c-1,4.6-2.3,8.5-3.9,11.2
			c-1.7,2.9-3.6,4.3-5.5,4.3c-2.6-0.1-4.9-3-6.6-8.1C-61.3,389.3-62.1,382.6-62.1,375.4"/>
	</g>
	<g id="g92" transform="translate(13.7124,20.3103)">
		<path id="path94" fill="#0A93B2" d="M-59.3,384.3l5.5,7.2l-3.4-8.5l2.5-2.4l-3.5,0.8l-5.5-7.2l3.4,8.5l-2.5,2.4L-59.3,384.3z"/>
	</g>
	<g id="g96" transform="translate(15.9858,33.9481)">
		<path id="path98" fill="#0A93B2" d="M-58.7,353.6l3.1,0.6l0.3,2.1c0,0.3-0.1,0.4-0.4,0.4l-2.1-0.4c-0.3-0.1-0.5-0.3-0.6-0.5
			L-58.7,353.6z M-67.5,377.9l3.1,0.6c1,0.2,2,1.2,2.1,2.2l0.6,3.9c0.1,0.7-0.6,1.1-1.4,1l-1-0.2c-0.7-0.1-1.5-0.9-1.6-1.5l-0.7-4.1
			l-0.4-0.1c-0.4-0.1-0.7,0.2-0.7,0.6l0.7,4.6l-1.7-0.3l-0.8-5.1C-69.1,378.5-68.4,377.7-67.5,377.9 M-64.3,367.7l0.3,1.6l-6.8-1.2
			l-0.3-1.7L-64.3,367.7L-64.3,367.7z M-72.6,356.8l-0.3-1.7l4.4,0.8c0.5,0.1,0.7-0.1,0.6-0.6l-0.5-2.9l-5.2-1l-0.3-1.7l6.8,1.2l0,0
			l0.9,5.6c0.1,0.8-0.4,1.3-1.3,1.1C-67.3,357.8-72.6,356.8-72.6,356.8z M-72.2,348.8l-1.8-0.3l-1.1-7l11.8,2.2l0.9,5.8l-1.6-0.3
			l-0.7-4.1l-3.4-0.6l0.5,3.4l-1.6-0.3l-0.5-3.4l-3.4-0.6C-73,343.4-72.2,348.8-72.2,348.8z M-70.9,349l-0.6-4l0.8,0.1l0.5,3.2
			l4.2,0.8l-0.5-3.2l0.8,0.1l0.6,4C-65.1,350.1-70.9,349-70.9,349z M-73.7,357.8h0.1c0,0.1-0.1,0.3,0,0.4l0.5,3.3
			c-0.7-0.1-0.8-1-1-2.3l-0.2-1.5l-4.4-0.8l0.3,2c0.5,4.9,3,6.7,6,7.3l1,5.9l5.2,0.9l0.1,0.5c0.1,0.5,0.2,0.5-0.4,0.4l-4.7-0.9
			l0.7,4.3l0.3,0.1c-0.1,0.3-0.2,0.7-0.1,1.1l1.2,7.4l3.7,0.7l0.3-0.5c0.5,0.4,1.1,0.7,1.6,0.8l0.6,0.1c2.2,0.4,2.8-1.7,2.6-2.6
			l-0.7-4.2c-0.1-0.8-0.6-1.6-1.3-2.2c0.5-0.6,0.8-1.4,0.7-1.9l-0.8-4.7l-1.2,0.5l0.7,4.3c0.1,0.6-0.1,1-0.6,1.1
			c-0.1,0-5.9-1.1-5.9-1.1l-0.2-1.5l4.4,0.8c0.6,0.1,0.7-0.1,0.6-0.6l-0.5-2.9l-5.2-1l-0.3-1.7l5.9,1.1l1.6-1.4l-1.8-5l0.4,2.4l0,0
			l-8.1-1.5c-2.1-0.4-4-2.6-4.3-4.5l-0.3-2l1.6,0.3l0.2,1.5c0.2,1.3,1.5,2.8,2.9,3.1l0.9,0.2l-0.6-3.9c-0.1-0.8,0.4-1.3,1.3-1.1
			l3.8,0.7c0.7,0.1,1.2,0.5,1.5,1.1h0.1l1.5,2l-0.2-1.2c-0.1-0.6-0.6-1.7-1.5-2.5c0.6-0.5,0.9-1.5,0.8-2l-0.7-4.2l3.7,0.7l0.5,3.1
			c0.3,1.6,2.1,3.5,3.9,3.8l2.5,0.5c1.7,0.3,3.1-0.9,2.8-2.5l-1.1-6.8l-7.7-1.4l-1-6.2c-0.1-0.5-0.6-1-1.2-1.1l-12.5-2.3
			c-0.6-0.1-0.9,0.2-0.9,0.8l1.9,11.9l5.2,1l0.1,0.5c0.1,0.5,0.2,0.5-0.4,0.4l-4.7-0.9C-74.4,353.5-73.7,357.8-73.7,357.8z
			 M-64.5,380.1h-0.2l0.5,3.2c0,0.3,0.3,0.5,0.6,0.5c0.3,0.1,0.5-0.1,0.4-0.4l-0.1-0.8l-0.2-1.3l-0.1-0.3
			C-63.7,380.6-64.1,380.2-64.5,380.1 M-67.7,360.5l-2-0.4c-0.6-0.1-0.7,0.1-0.6,0.6l0.5,3.1l3.5,0.7l-0.5-3.1
			C-66.9,360.9-67.2,360.6-67.7,360.5 M-68.5,361.6c0.5,0.1,0.4,0.3,0.5,0.8l0.1,0.5l-0.8-0.1l-0.1-0.5
			C-68.8,361.7-69,361.5-68.5,361.6"/>
	</g>
	<g id="g100" transform="translate(14.8581,23.0213)">
		<path id="path102" fill="#0A93B2" d="M-59,378.2l1.8-0.5v-0.3l-0.4-0.1c-0.3-0.1-0.6-0.3-0.6-0.6l-0.3-1.8c0-0.3,0.1-0.5,0.4-0.4
			l4.8,0.9c0.3,0.1,0.6,0.3,0.6,0.6l0.3,1.8c0,0.3-0.1,0.5-0.4,0.4l-0.6-0.1l0.6,3.5l0.7,0.1c1.8,0.3,3.2-0.9,2.9-2.6l-0.5-3.4
			c-0.3-1.7-2.2-3.6-4-3.9l-5.1-0.9c-1.8-0.3-3.2,0.9-2.9,2.6l0.2,1.1L-59,378.2z"/>
	</g>
	<g id="g104" transform="translate(15.7287,21.0101)">
		<path id="path106" fill="#0A93B2" d="M-58.8,382.7c0.2,0.1,0.3,0.2,0.6,0.2l0.6,0.1l-0.2-1.4L-58.8,382.7z"/>
	</g>
</g>
</svg>
