<svg xmlns="http://www.w3.org/2000/svg" width="400" height="291.9693">
  <defs>
    <clipPath id="a">
      <path d="M0 337.457h462.318V0H0v337.457z"/>
    </clipPath>
  </defs>
  <g clip-path="url(#a)" transform="matrix(0.86520552,0,0,-0.86520552,0,291.96931)">
    <path fill="#333" d="M439.9312 324.7256c0-1.877-1.521-3.4-3.4-3.4h-3.059c-1.877 0-3.4 1.523-3.4 3.4v9.332c0 1.877 1.523 3.399 3.4 3.399h3.059c1.879 0 3.4-1.522 3.4-3.399v-9.332zm-407.6851 0c0-1.877-1.522-3.4-3.399-3.4h-3.06c-1.877 0-3.399 1.523-3.399 3.4v9.332c0 1.877 1.522 3.399 3.399 3.399h3.06c1.877 0 3.399-1.522 3.399-3.399v-9.332z"/>
    <path fill="#999" d="M452.2222 66.3896v-48.634c0-3.116-2.549-5.666-5.666-5.666h-121.812c-1.872 0-4.594-.957-6.053-2.127l-9.776-7.836c-1.461-1.17-4.183-2.127-6.052-2.127h-133.068c-1.869 0-4.611.935-6.091 2.076l-10.292 7.938c-1.48 1.142-4.222 2.076-6.092 2.076H16.4842c-3.116 0-5.666 2.55-5.666 5.666v225.891h441.404V66.3896z"/>
    <path fill="#ccc" d="M449.2691 16.9843c0-1.247-1.02-2.267-2.266-2.267h-123.394c-1.869 0-4.594-.956-6.053-2.126l-9.775-7.836c-1.459-1.17-4.182-2.126-6.051-2.126h-130.801c-1.87 0-4.611.933-6.092 2.076l-10.292 7.936c-1.481 1.143-4.222 2.076-6.091 2.076H15.7521c-1.247 0-2.266 1.02-2.266 2.267v4.836c0 1.248 1.019 2.268 2.266 2.268h208.628c1.246 0 2.536-.985 2.865-2.187l.211-.767c.329-1.204 1.618-2.187 2.865-2.187h7.148c1.247 0 2.511.99 2.81 2.201l.182.738c.299 1.21 1.563 2.202 2.809 2.202h203.733c1.246 0 2.266-1.02 2.266-2.268v-4.836z"/>
    <path fill="#737373" d="M287.652 2.347H174.878v18.067h112.774V2.347z"/>
    <path fill="#bfbfbf" d="M264.048 14.387h-89.17v6.323h89.17v-6.323z"/>
    <path fill="#8c8c8c" d="M287.652 14.387h-23.604v6.323h23.604v-6.323z"/>
    <path fill="red" d="M401.6695 226.8652h-116.297c-.811 0-1.469.658-1.469 1.47 0 .811.658 1.468 1.469 1.468h116.297c.81 0 1.469-.657 1.469-1.468 0-.812-.659-1.47-1.469-1.47"/>
    <path fill="#006837" d="M270.4175 23.2334v-4.313c0-1.164-.674-2.105-1.837-2.105-1.161 0-1.836.941-1.836 2.105v4.313c0 1.163.675 2.105 1.836 2.105 1.163 0 1.837-.942 1.837-2.105"/>
    <path fill="#ccc" d="M447.1128 20.4004c1.213.009 2.205 1.009 2.205 2.221v191.386c0 8.082-6.613 14.695-14.693 14.695h-182.207c-8.082 0-14.695-6.613-14.695-14.695V22.6214c0-1.212.993-2.204 2.205-2.204h9.918c1.213 0 3.08.465 4.15 1.035l87.211 46.42c1.07.568 2.832.589 3.916.044l92.492-46.58c1.082-.544 2.959-.984 4.172-.975l5.326.039z"/>
    <path fill="#e6e6e6" d="M443.441 214.122c0 4.849-3.895 8.702-8.742 8.702H252.344c-4.85 0-8.743-3.853-8.743-8.702l-.073-192.879c-.001-.807.66-1.47 1.469-1.47h15.454c.808 0 1.469.663 1.469 1.47v1.43c0 .808.662 1.47 1.469 1.47h6.053c.809 0 1.47-.662 1.47-1.47v-1.43c0-.807.66-1.47 1.468-1.47h10.862c.808 0 2.031.347 2.72.77l55.94 34.37c.687.423 1.816.427 2.508.008l56.664-34.386c.691-.418 1.918-.762 2.726-.762h10.934c.807 0 1.469.663 1.469 1.47v1.43c0 .808.662 1.47 1.468 1.47h6.055c.807 0 1.469-.662 1.469-1.47v-1.43c0-.807.662-1.47 1.469-1.47h15.381c.808 0 1.468.663 1.468 1.47l-.072 192.879z"/>
    <path fill="#d9d9d9" d="M401.562 18.9472c.809 0 1.471.662 1.471 1.47v132.498c0 32.979-26.533 59.751-59.512 59.751-32.98 0-59.512-26.696-59.512-59.675V20.4172c0-.808.662-1.47 1.47-1.47h12.122c.809 0 1.471.662 1.471 1.47v.337c0 .807.66 1.469 1.469 1.469h16.906c.808 0 2.098.209 2.865.464l21.447 7.141c.766.256 2.018.248 2.782-.017l21.47-7.444c.762-.265 2.049-.481 2.858-.481h17.633c.806 0 1.468-.662 1.468-1.469 0-.808.662-1.47 1.469-1.47h12.123z"/>
    <path fill="#ccc" d="M265.9986 170.2968c2.576 0 4.419-1.798 4.419-4.374v-37.277c0-2.576-1.833-4.664-4.408-4.664-2.576 0-4.408 2.088-4.408 4.664v32.098h-18.074l-4.09 4.571 4.09 4.982h22.471zm155.167 0c-2.576 0-4.541-1.798-4.541-4.374v-37.277c0-2.576 2.199-4.664 4.775-4.664 2.575 0 4.776 2.088 4.776 4.664v32.098h17.461l4.089 4.571-4.089 4.982h-22.471zM271.1529 20.417v17.172c0 2.575-2.201 4.663-4.776 4.663-2.576 0-4.775-2.088-4.775-4.663V20.417"/>
    <path fill="#ccc" d="M277.0308 23.3564c0-.811-.658-1.47-1.471-1.47h-18.367c-.811 0-1.47.659-1.47 1.47v11.02c0 .811.659 1.469 1.47 1.469h18.367c.813 0 1.471-.658 1.471-1.469v-11.02zM425.441 20.417v17.036c0 2.575-2.201 4.663-4.777 4.663-2.577 0-4.776-2.088-4.776-4.663V20.417"/>
    <path fill="#b3b3b3" d="M243.233 73.315h40.776v2.939h-40.776v-2.939zm0-5.877h40.776v2.938h-40.776v-2.938zm0-5.878h40.776v2.939h-40.776V61.56zm0-5.877h40.776v2.939h-40.776v-2.939zm0-5.877h40.776v2.938h-40.776v-2.938zm159.8 23.509h40.775v2.939h-40.775v-2.939zm0-5.877h40.775v2.938h-40.775v-2.938zm0-5.878h40.775v2.939h-40.775V61.56zm0-5.877h40.775v2.939h-40.775v-2.939zm0-5.877h40.775v2.938h-40.775v-2.938z"/>
    <path fill="#bfbfbf" d="M387.9702 20.417v84.858c0 2.021-1.652 3.306-3.674 3.306h-81.551c-2.021 0-3.673-1.285-3.673-3.306V20.417h20.57l23.879 16.285 23.142-16.285h21.307z"/>
    <path d="M385.767 103.438H300.54v2.204h85.227v-2.204z"/>
    <path fill="#b3b3b3" d="M385.767 101.234H300.54v1.469h85.227v-1.469z"/>
    <path fill="#b3b3b3" d="M305.683 50.54h-1.469v51.429h1.469V50.54zm7.348 0h-1.469v51.429h1.469V50.54zm8.082 19.836h-1.471v31.593h1.471V70.376zm7.345 0h-1.469v31.593h1.469V70.376zm8.083 0h-1.469v31.593h1.469V70.376zm7.347 0h-1.469v24.246h1.469V70.376z"/>
    <path fill="#b3b3b3" d="M338.646 91.2451l.807-.752 3.699 3.981 3.701-3.981.807.752-4.508 4.847-4.506-4.847zM351.97 70.376h-1.471v31.593h1.471V70.376zm7.346 0h-1.469v31.593h1.469V70.376zm8.082 0h-1.469v31.593h1.469V70.376zm7.348-19.836h-1.469v51.429h1.469V50.54zm8.082 0h-1.471v51.429h1.471V50.54z"/>
    <path fill="#a6a6a6" d="M343.1538 23.3545c14.203 0 23.51-2.937 23.51-2.937v21.629c0 13.031-10.481 23.608-23.51 23.608-13.029 0-23.512-10.548-23.512-23.576v-21.661s9.307 2.937 23.512 2.937"/>
    <path fill="red" d="M317.896 132.6279c-.045 0-.09.01-.133.029-4.349 2.114-6.597 4.573-6.496 7.12.082 2.095 1.793 4.074 4.945 5.722 2.993 1.563 7.213 2.804 12.205 3.588.167.027.323-.088.348-.254.027-.167-.088-.323-.254-.347-10.113-1.59-16.486-4.936-16.635-8.733-.087-2.252 2.096-4.577 6.153-6.546.152-.073.215-.256.14-.407-.052-.11-.162-.172-.273-.172m37.92 15.6338c-.018 0-.033.001-.051.003-3.213.528-6.605.88-10.08 1.047-.17.007-.299.151-.291.319.008.168.154.297.32.289 3.498-.168 6.914-.521 10.151-1.053.166-.027.279-.183.252-.35-.024-.149-.155-.255-.301-.255m-9.6016-20.5781h-.559.305c.084 0 .17.178.254.178 16.322 0 29.201 4.333 29.371 9.785.059 1.908-1.473 3.888-4.434 5.642-2.947 1.747-7.171 3.258-12.214 4.328-.166.036-.272.208-.237.374.036.163.198.273.362.239 5.109-1.083 9.396-2.595 12.402-4.373 3.162-1.875 4.799-3.997 4.73-6.141-.089-2.901-3.293-5.417-9.019-7.315-5.535-1.835-12.971-2.717-20.961-2.717"/>
    <path fill="red" d="M351.7378 143.3105l8.053 6.137-9.457-3.776-2.658 2.766.847-3.832-8.051-6.138 9.457 3.777 2.657-2.768-.848 3.834z"/>
    <path fill="red" d="M332.8199 146.497l.633 3.401 2.371.378c.31.048.471-.127.408-.457l-.432-2.328c-.06-.329-.296-.568-.607-.617l-2.373-.377zm26.963-9.748l.646 3.478c.205 1.1 1.387 2.181 2.395 2.341l4.357.692c.735.116 1.244-.704 1.094-1.507l-.213-1.119c-.15-.803-.971-1.657-1.703-1.773l-4.525-.718-.065-.407c-.086-.461.221-.821.645-.753l5.054.804-.339-1.834-5.704-.904c-1.007-.161-1.847.598-1.642 1.7m-11.305 3.544l1.822.288-1.398-7.52-1.863-.294 1.398 7.518.041.008zm-12.113-9.221l-1.863-.295.906 4.883c.115.612-.068.811-.66.717l-3.248-.516-1.065-5.729-1.863-.295 1.396 7.518.045.008 6.184.98c.934.149 1.441-.417 1.258-1.405l-1.09-5.866zm-8.951.492l-.367-1.969-7.793-1.237 2.429 13.072 6.438 1.019-.332-1.79-4.574-.725-.7-3.76 3.727.591-.332-1.79-3.727-.591-.701-3.761 5.932.941zm.265 1.434l-4.404-.7.166.894 3.557.565.867 4.655-3.559-.565.166.896 4.405.698-1.198-6.443zm9.776-3.143l.029.157c.121-.009.283-.056.426-.035l3.662.576c-.137-.733-1.102-.914-2.574-1.148l-1.676-.265-.9-4.834 2.203.348c5.424.536 7.486 3.337 8.148 6.679l6.608 1.048 1.064 5.73.537.086c.59.093.502.198.389-.412l-.975-5.242 4.744.753.065.346c.357-.157.777-.213 1.22-.143l8.202 1.301.767 4.119-.533.379c.461.545.82 1.212.924 1.773l.129.648c.41 2.429-1.83 3.075-2.852 2.912l-4.707-.746c-.834-.134-1.752-.714-2.42-1.484-.619.613-1.57.85-2.127.761l-5.24-.83.586-1.297 4.728.748c.682.11 1.137-.163 1.262-.702-.051-.143-1.262-6.595-1.262-6.595l-1.695-.269.908 4.884c.114.612-.072.81-.662.715l-3.246-.515-1.066-5.729-1.864-.296 1.221 6.559-1.535 1.808-5.521-1.994 2.617.414.043.006-1.664-8.951c-.422-2.274-2.85-4.447-5.002-4.79l-2.203-.348.334 1.789 1.675.265c1.475.234 3.131 1.71 3.416 3.251l.182.97-4.363-.692c-.936-.149-1.444.418-1.258 1.407l.781 4.21c.139.747.606 1.368 1.231 1.69l.009.112 2.188 1.685-1.277-.215c-.682-.109-1.942-.618-2.745-1.639-.605.721-1.666 1.005-2.261.911l-4.703-.748.767 4.12 3.43.544c1.826.29 3.847 2.342 4.205 4.271l.516 2.777c.359 1.93-.999 3.447-2.825 3.159l-7.498-1.19-1.595-8.596-6.905-1.096c-.584-.092-1.152-.667-1.267-1.285l-2.58-13.877c-.114-.618.267-1.044.851-.951l13.172 2.089 1.066 5.73.538.086c.589.093.502.199.388-.413l-.974-5.24 4.744.751zm24.726 10.156l-.039-.217 3.526.56c.277.044.548.326.603.629.057.304-.123.516-.4.471l-.906-.144-1.444-.229-.365-.058c-.424-.067-.889-.551-.975-1.012m-21.689-3.545l-.418-2.245c-.113-.614.072-.812.662-.718l3.416.542.732 3.937-3.418-.541c-.589-.092-.861-.362-.974-.975m1.164-.819c.113.57.326.486.9.578l.537.084-.166-.894-.537-.085c-.576-.092-.83-.245-.734.317"/>
    <path fill="red" d="M347.98 144.9052l-.502 1.995-.285-.034-.092-.491c-.062-.342-.336-.62-.658-.67l-1.947-.31c-.323-.051-.508.154-.444.495l.983 5.281c.062.341.338.619.658.671l1.949.308c.32.052.504-.155.442-.494l-.125-.673 3.939.626.15.806c.377 2.031-1.003 3.576-2.927 3.272l-3.77-.598c-1.922-.305-3.98-2.397-4.359-4.428l-1.047-5.64c-.377-2.033 1.004-3.578 2.928-3.272l1.259.2 3.848 2.956zm2.793 1.2041c.104.277.174.381.227.664l.134.718-1.57-.249 1.209-1.133z"/>
    <path d="M299.105 24.0898h12.57c.965 0 1.745.874 1.745 1.837 0 .964-.78 1.837-1.745 1.837h-12.57"/>
    <path fill="#cacaca" fill-rule="evenodd" d="M266.9639 210.6679c-.413-.352-.787-.821-1.035-1.331-.248-.511-.374-1.063-.38-1.571-.006-.508.106-.97.312-1.394.208-.424.509-.808.882-1.069.373-.26.816-.397 1.223-.459.407-.064.777-.053 1.071-.011.293.041.508.112.706.222l1.166 2.423c-.302-.142-.609-.272-.927-.403-.319-.132-.649-.265-.998-.307-.351-.043-.722.008-1.05.202-.328.196-.616.537-.764.919-.15.383-.16.805-.056 1.188.104.383.324.724.592 1.023.266.299.581.555.873.724.292.17.562.251.837.271l.881-1.269 1.013.379-.71 1.738c-.2.008-.402 0-.64-.027-.238-.025-.514-.069-.799-.142-.286-.074-.582-.176-.957-.347-.374-.169-.828-.406-1.24-.759m-6.622.648c.104-.118.234-.268.204-.426l-.404-2.127c-.032-.166-.179-.287-.295-.371-.115-.082-.258-.105-.4-.127.123-.048.245-.096.327-.185.084-.089.198-.216.167-.35l-.462-2.072c-.043-.19-.238-.309-.375-.414-.14-.103-.297-.157-.455-.21h5.527l.388 2.073c-.212-.43-.426-.86-.788-1.135-.362-.277-.859-.52-1.385-.52h-1.012l.504 2.566c.184.063.392.055.58-.034.187-.092.354-.268.504-.458.15-.191.282-.396.386-.615l.53 2.697c-.181-.199-.382-.377-.599-.539-.217-.162-.449-.305-.666-.376-.219-.073-.421-.073-.609-.017l.524 2.524.815.007c.368.004.738.049 1.034-.194.299-.244.527-.756.753-1.268l.404 1.848h-5.618c.158-.08.317-.16.421-.277m-2.892-3.275l-3.285 3.934-1.492-1.706.716-.655-.856-4.735 1.718.754-.886.819.491 2.505 3.46-3.987 1.195 5.437 1.209.732-1.463.889-.807-3.987z"/>
    <path fill="#e6e6e6" d="M291.3081 222.5713v6.13c0 .528.574.956 1.102.956.527 0 1.103-.428 1.103-.956v-6.13m2.4415 0v6.13c0 .528.574.956 1.102.956.527 0 1.103-.428 1.103-.956v-6.13m2.4415 0v6.13c0 .528.574.956 1.102.956.527 0 1.103-.428 1.103-.956v-6.13m2.4415 0v6.13c0 .528.574.956 1.102.956.527 0 1.101-.428 1.101-.956v-6.13m2.4435 0v6.13c0 .528.574.956 1.102.956.527 0 1.101-.428 1.101-.956v-6.13m2.4435 0v6.13c0 .528.574.956 1.102.956.527 0 1.101-.428 1.101-.956v-6.13m2.4434 0v6.13c0 .528.574.956 1.102.956.527 0 1.101-.428 1.101-.956v-6.13m2.4435 0v6.13c0 .528.574.956 1.102.956.527 0 1.101-.428 1.101-.956v-6.13m2.4435 0v6.13c0 .528.574.956 1.102.956.527 0 1.101-.428 1.101-.956v-6.13m2.4435 0v6.13c0 .528.574.956 1.102.956.527 0 1.101-.428 1.101-.956v-6.13m2.4435 0v6.13c0 .528.574.956 1.102.956.527 0 1.101-.428 1.101-.956v-6.13m2.4435 0v6.13c0 .528.574.956 1.102.956.527 0 1.101-.428 1.101-.956v-6.13m2.4435 0v6.13c0 .528.574.956 1.102.956.527 0 1.101-.428 1.101-.956v-6.13m2.4434 0v6.13c0 .528.574.956 1.102.956.527 0 1.101-.428 1.101-.956v-6.13m2.4435 0v6.13c0 .528.574.956 1.102.956.527 0 1.101-.428 1.101-.956v-6.13m2.4416 0v6.13c0 .528.576.956 1.104.956.527 0 1.101-.428 1.101-.956v-6.13m2.4414 0v6.13c0 .528.576.956 1.104.956.527 0 1.101-.428 1.101-.956v-6.13m2.4415 0v6.13c0 .528.576.956 1.104.956.527 0 1.101-.428 1.101-.956v-6.13m2.4415 0v6.13c0 .528.576.956 1.103.956.528 0 1.102-.428 1.102-.956v-6.13m2.4415 0v6.13c0 .528.574.956 1.104.956.527 0 1.101-.428 1.101-.956v-6.13m2.4415 0v6.13c0 .528.574.956 1.103.956.526 0 1.102-.428 1.102-.956v-6.13m2.4415 0v6.13c0 .528.574.956 1.102.956.527 0 1.103-.428 1.103-.956v-6.13m2.4414 0v6.13c0 .528.576.956 1.104.956.527 0 1.101-.428 1.101-.956v-6.13"/>
    <path fill="#ccc" d="M231.9981 149.0605v89.343c0 1.061.861 1.924 1.924 1.924s1.925-.863 1.925-1.924v-89.343c0-1.061-.862-1.924-1.925-1.924-1.063 0-1.924.863-1.924 1.924"/>
    <path fill="#e6e6e6" d="M232.0537 162.9033h3.675c3.58 0 6.51 4.08 6.51 9.066v43.063c0 4.986 4.079 9.065 9.065 9.065h184.434c4.986 0 9.065-4.079 9.065-9.065v-43.063c0-4.986 2.929-9.066 6.509-9.066h3.676v74.794h-222.934v-74.794zM13.5806 78.3818l21.496.021c16.769-30.704 49.783-51.954 87.746-51.9 37.962.053 70.917 21.396 87.598 52.147l19.61.033-.014-56.438c0-1.247-1.02-2.266-2.267-2.266H15.8576c-1.247 0-2.267 1.019-2.267 2.266l-.01 56.137z"/>
    <path fill="#ccc" d="M65.9678 34.7988c-1.787 0-3.3-1.175-3.809-2.794h-6.471c-1.434 0-2.597-1.163-2.597-2.597s1.163-2.597 2.597-2.597h10.248v.004c.011 0 .021-.002.032-.002 2.205 0 3.993 1.787 3.993 3.993 0 2.205-1.788 3.993-3.993 3.993m158.0523 16.0098c0-5.946-4.819-10.766-10.765-10.766-5.945 0-10.765 4.82-10.765 10.766 0 5.944 4.82 10.764 10.765 10.764 5.946 0 10.765-4.82 10.765-10.764"/>
    <path d="M48.6514 44.292c0-7.823-6.341-14.165-14.164-14.165-7.823 0-14.165 6.342-14.165 14.165 0 7.823 6.342 14.164 14.165 14.164 7.823 0 14.164-6.341 14.164-14.164m8.6064-14.8467c0-.836-.678-1.513-1.513-1.513-.836 0-1.514.677-1.514 1.513 0 .836.678 1.514 1.514 1.514.835 0 1.513-.678 1.513-1.514"/>
    <path fill="#ccc" d="M228.6582 99.8437v27.551c0 .811.659 1.469 1.469 1.469.812 0 1.471-.658 1.471-1.469v-27.551c0-.811-.659-1.47-1.471-1.47-.81 0-1.469.659-1.469 1.47M7.6768 149.0605v89.343c0 1.061.862 1.924 1.924 1.924 1.063 0 1.924-.863 1.924-1.924v-89.343c0-1.061-.861-1.924-1.924-1.924-1.062 0-1.924.863-1.924 1.924M224.9825 70.374c0-3.139-2.545-5.683-5.683-5.683s-5.683 2.544-5.683 5.683c0 3.138 2.545 5.683 5.683 5.683s5.683-2.545 5.683-5.683"/>
    <path fill="#b3b3b3" d="M68.8726 30.8056c0-1.605-1.3-2.905-2.905-2.905-1.604 0-2.906 1.3-2.906 2.905 0 1.604 1.302 2.905 2.906 2.905 1.605 0 2.905-1.301 2.905-2.905"/>
    <path fill="#e6e6e6" d="M13.5806 80.5117l.01 149.383c0 1.247 1.02 2.266 2.267 2.266h211.892c1.247 0 2.267-1.019 2.267-2.266l.005-149.354-216.441-.029z"/>
    <path fill="#d9d9d9" d="M208.8872 80.372c7.249 13.63 11.357 29.186 11.357 45.7 0 53.825-43.634 97.459-97.458 97.459-53.825 0-97.459-43.634-97.459-97.459 0-16.495 4.098-32.033 11.331-45.65l172.229-.05z"/>
    <path d="M122.7857 104.1631c-32.925 0-63.023-8.975-86.087-23.804 16.381-30.783 48.784-51.745 86.087-51.745 37.303 0 69.705 20.962 86.086 51.745-23.064 14.829-53.161 23.804-86.086 23.804"/>
    <path fill="#cacaca" fill-rule="evenodd" d="M38.9639 214.415c-.413-.352-.787-.82-1.034-1.332-.249-.511-.374-1.063-.381-1.571-.006-.507.106-.969.313-1.394.207-.423.509-.807.881-1.069.373-.259.817-.396 1.223-.459.407-.063.777-.051 1.071-.01.293.04.509.112.706.222l1.167 2.423c-.303-.142-.61-.272-.928-.403-.319-.133-.649-.265-.998-.307-.351-.043-.722.007-1.05.202-.329.195-.615.537-.764.919-.15.383-.16.805-.056 1.188.104.383.325.724.592 1.023.267.298.581.555.874.724.291.17.561.251.836.271l.882-1.269 1.012.378-.71 1.739c-.2.008-.402-.001-.639-.027-.239-.026-.515-.069-.8-.143-.286-.073-.581-.175-.957-.346-.374-.169-.827-.406-1.24-.759m-6.621.646c.104-.116.233-.266.203-.424l-.404-2.127c-.032-.166-.179-.288-.295-.371-.115-.082-.257-.105-.4-.127.123-.048.246-.096.328-.185.083-.089.197-.216.166-.35l-.462-2.072c-.043-.19-.238-.309-.375-.414-.139-.103-.297-.156-.455-.21h5.527l.388 2.074c-.213-.431-.425-.862-.788-1.137-.362-.276-.859-.518-1.384-.518h-1.013l.504 2.565c.185.063.392.055.579-.035.189-.091.355-.267.506-.458.149-.19.281-.396.385-.614l.53 2.697c-.181-.199-.382-.378-.599-.539-.218-.162-.449-.305-.666-.378-.219-.071-.421-.071-.61-.016l.525 2.525.815.007c.368.004.738.049 1.035-.194.298-.245.526-.757.753-1.268l.403 1.848h-5.618c.158-.08.317-.16.422-.279m-2.893-3.274l-3.285 3.935-1.492-1.706.716-.656-.855-4.734 1.717.754-.886.819.491 2.505 3.46-3.987 1.195 5.436 1.209.733-1.462.889-.808-3.988z"/>
    <path fill="#ccc" d="M208.0655 30.9189c0-1.435-1.163-2.597-2.597-2.597h-27.994c-1.434 0-2.597 1.162-2.597 2.597s1.163 2.597 2.597 2.597h27.994c1.434 0 2.597-1.162 2.597-2.597"/>
    <path fill="none" stroke="#999" stroke-width=".56699997" stroke-miterlimit="10" d="M191.5132 33.5156v-5.193"/>
    <path fill="#666" fill-rule="evenodd" d="M144.9717 129.3291c-.642-.587-1.429-.777-2.262-.795-1.05-.022-2.1-.006-3.152-.006-.998 0-1.997-.007-2.997.002-.725.008-1.426.123-2.049.537-.742.495-1.183 1.177-1.342 2.056-.165.908.086 1.71.63 2.415.516.67 1.228 1.088 2.076 1.1 2.4.03 4.8.011 7.199.009.681-.001 1.269-.23 1.809-.66.561-.445.898-1.011 1.048-1.686.261-1.168-.074-2.163-.96-2.972m-2.2 6.186c-1.071-.006-2.142-.002-3.214-.002-.978 0-1.956-.004-2.934.002-.756.006-1.491-.068-2.175-.431-.779-.412-1.391-.993-1.758-1.789-.32-.696-.45-1.426-.335-2.214.117-.815.43-1.514.969-2.109.822-.91 1.883-1.302 3.092-1.307 1.884-.008 3.769-.005 5.654 0 .459.001.918-.023 1.378.055.796.133 1.513.434 2.104.986.711.663 1.12 1.47 1.24 2.462.109.893-.058 1.708-.512 2.437-.795 1.285-1.986 1.918-3.509 1.91m-44.28-6.98c-.078-.02-.163-.007-.247-.007h-3.615c-1.226 0-2.452.005-3.678-.005-.223 0-.319.032-.317.294.013 1.834.01 3.667.002 5.501 0 .216.056.274.274.274 2.358-.009 4.718.024 7.076-.016 1.495-.025 2.594-.797 2.895-2.393.317-1.676-.537-3.15-2.39-3.648m1.835 6.102c-.62.499-1.34.848-2.12.861-2.73.041-5.46.013-8.19.02-.238.001-.309-.052-.308-.301.01-2.421.01-4.843-.001-7.263-.001-.258.086-.298.314-.296 1.38.01 2.762.006 4.141.006 1.36 0 2.721.004 4.08-.005.31-.002.621.04.894.15 1.498.608 2.446 1.704 2.615 3.326.145 1.383-.302 2.598-1.425 3.502m24.095-1.362c-.209-.123-.42-.176-.664-.176-3.039.006-6.078.009-9.117-.005-.335-.002-.418.099-.39.409.026.264.023.536 0 .803-.02.237.065.288.292.286 1.597-.01 3.194-.005 4.79-.005h4.759c.353 0 .591-.172.674-.484.105-.4.005-.623-.344-.828m-.614 2.23c-3.41.023-6.821.007-10.231.013-.21 0-.253-.069-.252-.262.009-.927.014-1.856-.001-2.782-.004-.245.065-.305.306-.304 1.699.011 3.399.006 5.1.006 1.535 0 3.069-.001 4.605 0 .426.001.837.012 1.257.168.702.259 1.228 1.128.994 1.885-.279.909-.901 1.269-1.778 1.276m-15.302-4.405c-.109-.333-.369-.5-.698-.526-.342-.027-.691-.023-1.031.061-.288.07-.593.526-.556.827.058.462.351.771.735.776h.432c.314-.021.673.072.968-.238.267-.282.255-.576.15-.9m.087 1.874c-.434.275-.944.25-1.444.257-1.099.017-2.069-1.195-1.7-2.292.278-.823.906-1.256 2.025-1.301.146-.049.331.034.519.07 1.022.193 1.398.857 1.484 1.501.095.707-.123 1.285-.884 1.765m69.032 1.974c.01-.19-.05-.27-.241-.238-.01.002-.021 0-.031 0h-3.059c-.998 0-1.997.011-2.995-.007-.296-.005-.366.093-.361.372.011.612.008 1.223.128 1.827.105.531.617 1.274 1.273 1.406.332.068.657.115.993.113.587-.004 1.175-.004 1.762-.001.377.002.713.308.735.661.025.448-.216.743-.632.827-.286.056-.569.056-.853.056-.813.001-1.627.011-2.44-.006-.24-.005-.304.07-.284.296.019.214.022.432 0 .647-.029.295.111.366.374.364 1.111-.005 2.224-.003 3.335 0 .266 0 .519-.041.779-.107.776-.196 1.245-.695 1.442-1.44.291-1.112-.295-2.219-1.517-2.523-.079-.018-.163-.012-.246-.012-.67 0-1.338.002-2.008 0-.465-.003-.896-.389-.922-.797-.012-.2.047-.267.253-.258.401.014.802.005 1.204.005 1.01 0 2.019-.01 3.028.005.239.003.297-.07.283-.294-.018-.298-.015-.598 0-.896m.164 1.619c-1.277-.007-2.553-.003-3.83-.003h-.378c.121.209.27.187.407.187.587 0 1.174.003 1.761-.003.226-.002.442.046.654.11 1.29.398 1.867 1.669 1.62 2.877-.254 1.242-1.144 1.909-2.369 1.951-1.368.044-2.739.006-4.109.013-.27.001-.361-.114-.356-.372.01-.505.016-1.01-.003-1.514-.009-.236.064-.289.291-.287 1.102.013 2.205.006 3.306.006.365 0 .548-.113.55-.34.002-.255-.136-.341-.557-.341-.598 0-1.196.011-1.792-.004-.251-.006-.511-.029-.749-.101-1.105-.332-1.581-1.223-1.655-2.329-.041-.615-.001-1.234-.01-1.853-.003-.171.043-.228.222-.228 2.328.005 4.654.006 6.982 0 .218-.002.287.075.283.288-.01.567-.014 1.134.002 1.699.007.222-.084.245-.27.244m-28.768-6.023c-.239-1.236-.853-2.25-1.792-3.062-.59-.509-1.271-.865-2.041-1.068-.592-.156-1.185-.173-1.785-.173h-3.832c-1.391 0-2.783.026-4.172-.006-2.258-.052-4.294 1.423-5.025 3.445-.686 1.896-.437 3.673.753 5.286.75 1.014 1.785 1.669 3.022 1.951.399.092.812.152 1.236.15 2.905-.014 5.81.026 8.714-.024 1.161-.021 2.211-.475 3.115-1.248.621-.532 1.115-1.153 1.44-1.892.474-1.075.593-2.196.367-3.359m-.771 5.5c-.51.545-1.111.977-1.787 1.285-.756.345-1.544.597-2.391.597-1.504-.001-3.009-.001-4.513-.001-1.288 0-2.575.006-3.863-.003-.439-.002-.877.03-1.317-.055-1.281-.241-2.412-.774-3.35-1.687-.624-.608-1.102-1.319-1.434-2.125-.531-1.286-.629-2.619-.288-3.954.349-1.363 1.072-2.514 2.196-3.403 1.155-.913 2.464-1.373 3.924-1.38 2.822-.014 5.646-.008 8.468-.001.415 0 .828.07 1.232.167.86.208 1.641.567 2.361 1.106.895.668 1.56 1.501 1.998 2.511.491 1.135.653 2.317.448 3.553-.217 1.31-.783 2.43-1.684 3.39m-44.627-6.793c-.232-.46-.503-.891-.835-1.292-.401-.485-.88-.864-1.425-1.162-.644-.349-1.332-.602-2.067-.611-1.905-.022-3.81-.006-5.715-.006-1.936 0-3.872.004-5.808-.006-.231-.001-.289.057-.289.289.008 3.418.008 6.837 0 10.256-.002.24.072.283.294.283 3.769-.006 7.538.024 11.307-.021 1.195-.014 2.276-.495 3.177-1.311.725-.658 1.304-1.419 1.604-2.366.126-.402.245-.806.258-1.238.031-.976-.051-1.928-.501-2.815m-1.197 7.491c-.955.68-2.01 1.162-3.188 1.171-4.098.03-8.198.01-12.296.018-.252 0-.325-.056-.325-.318.01-3.995.01-7.991.001-11.986-.001-.262.068-.32.322-.319 2.091.01 4.182.006 6.272.006h6.025c.224 0 .443.01.667.055 1.672.328 2.991 1.203 3.973 2.577.633.884.964 1.89 1.118 2.969.143 1.004-.002 1.966-.339 2.896-.438 1.2-1.184 2.185-2.23 2.931m25.137-10.567c-.566.014-1.132.014-1.699 0-.199-.006-.239.064-.237.247.01.649-.011 1.299.008 1.947.022.712-.642 1.695-1.406 1.958-.362.125-.719.185-1.102.184-3.173-.008-6.346-.009-9.519.004-.294 0-.35-.089-.346-.36.014-1.235 0-2.472.011-3.708.002-.221-.06-.279-.275-.273-.525.016-1.051.02-1.576-.001-.254-.01-.325.056-.324.318.01 3.091.006 6.182.006 9.272 0 .298.021.599-.005.896-.028.31.054.411.39.408 2.204-.016 4.409-.008 6.614-.008 2.184 0 4.369.019 6.554-.006 1.412-.017 2.715-1.022 3.075-2.443.325-1.285-.028-2.377-.958-3.295-.187-.184-.283-.302-.046-.541.282-.284.513-.623.693-.988.226-.457.383-.929.376-1.446-.009-.639-.008-1.278.002-1.917.003-.18-.034-.254-.236-.248m1.152 2.416c-.119.812-.428 1.551-.898 2.219-.116.162-.072.275.018.376.253.285.422.619.564.961.344.839.507 1.695.273 2.605-.239.933-.694 1.706-1.458 2.309-.76.601-1.615.915-2.572.921-2.308.014-4.616.004-6.923.004-2.411 0-4.822-.002-7.232.005-.223 0-.317-.031-.317-.293.01-4.038.009-8.077.002-12.116-.001-.216.055-.275.272-.273 1.164.01 2.329.012 3.493-.001.25-.003.329.05.327.316-.016 1.215.002 2.43-.014 3.647-.004.267.079.315.327.314 2.689-.009 5.378-.004 8.067-.007.295-.001.587-.006.884-.051.719-.105 1.174-.767 1.176-1.332.001-.874.005-1.75-.004-2.625-.002-.2.049-.262.254-.261 1.196.009 2.391.01 3.585 0 .218-.002.251.079.249.267-.01.742.002 1.483-.007 2.226-.003.262-.028.529-.066.789m-43.941 7.213c.022-.274-.053-.36-.346-.359-2.801.012-5.604.006-8.406.006-.547 0-1.094-.02-1.638.005-1.509.07-3.05-1.162-3.537-2.473-.525-1.406-.331-2.697.537-3.865.547-.736 1.314-1.225 2.249-1.399.193-.037.382-.055.575-.055 3.41 0 6.82-.005 10.23.005.269.001.364-.059.337-.335-.027-.275-.023-.558-.001-.834.021-.251-.048-.329-.314-.328-1.865.013-3.73.008-5.594.008-1.762 0-3.523-.014-5.286.004-1.264.011-2.376.446-3.351 1.266-.829.695-1.391 1.558-1.654 2.589-.435 1.705-.204 3.301.85 4.762.833 1.154 1.971 1.791 3.316 2.11.313.074.648.082.973.083 3.574.006 7.15 0 10.724.011.271 0 .363-.062.337-.338-.027-.285-.023-.577-.001-.863m.586 2.127c-3.41-.009-6.82-.007-10.23-.005-.817 0-1.635.005-2.447-.123-.906-.143-1.735-.475-2.479-1.004-.864-.615-1.522-1.397-2.02-2.35-.693-1.326-.824-2.723-.572-4.141.238-1.349.893-2.51 1.953-3.431 1.163-1.01 2.492-1.551 4.028-1.561 1.905-.011 3.811-.002 5.716-.002 2.041 0 4.079.003 6.119-.005.217 0 .276.056.274.273-.013.866-.017 1.73.002 2.596.004.271-.056.359-.348.357-3.606-.011-7.211-.002-10.816-.01-1.033-.002-1.857.405-2.494 1.2-.469.588-.669 1.29-.613 2.016.06.794.365 1.51.997 2.054.542.468 1.144.788 1.87.79 3.698.005 7.396.005 11.094-.003.236-.001.313.051.31.3-.017.907-.021 1.813 0 2.719.008.289-.088.33-.344.33m83.499-11.697c-.556.022-1.113.018-1.668.001-.224-.006-.271.068-.269.279.007 2.225.016 4.451-.002 6.675-.006.85-.352 1.557-1.09 2.022-.38.24-.818.351-1.265.359-.947.018-1.895-.004-2.842.012-.247.004-.305-.067-.305-.308.009-2.915.003-5.83.012-8.745.002-.273-.056-.374-.348-.357-.462.027-.927.024-1.39 0-.27-.014-.313.083-.313.329.008 2.905 0 5.81.013 8.716.001.301-.075.373-.371.366-.916-.021-1.834.014-2.75-.013-.843-.026-1.561-.345-2.024-1.09-.249-.4-.363-.852-.363-1.325-.003-2.194-.007-4.388.005-6.583.002-.27-.06-.35-.337-.338-.555.024-1.111.013-1.668.003-.168-.002-.231.038-.231.221.006 2.586-.016 5.172.013 7.758.014 1.25 1.038 2.364 2.149 2.674.452.127.893.171 1.353.17 1.75-.002 3.503-.001 5.253-.001 1.896 0 3.791.024 5.687-.008 1.151-.02 2.04-.574 2.652-1.554.287-.458.389-.97.391-1.501.003-2.483-.002-4.967.005-7.448.001-.23-.039-.323-.297-.314m-.243 10.777c-.759.654-1.636.975-2.636.975h-11.031c-.428.001-.838-.045-1.259-.168-.814-.241-1.472-.676-2.012-1.322-.548-.654-.924-1.406-.935-2.248-.035-2.874-.011-5.748-.018-8.621-.001-.205.061-.257.259-.256 1.165.009 2.328.013 3.492-.001.265-.005.344.053.341.332-.012 2.514-.012 5.027-.004 7.54 0 .591.245 1.061.804 1.311.289.13.61.146.922.154.525.013 1.051-.015 1.576.011.29.013.35-.082.348-.357-.009-2.916-.004-5.829-.011-8.745 0-.236.052-.311.301-.308 1.102.014 2.205.014 3.306-.001.256-.003.298.084.298.313-.009 2.092-.006 4.183-.006 6.272 0 .857.001 1.711 0 2.566 0 .137-.024.267.193.254.716-.04 1.432.002 2.151-.044.77-.049 1.313-.702 1.308-1.491-.012-2.494 0-4.987-.01-7.478 0-.246.041-.335.313-.33 1.154.017 2.306.016 3.461 0 .261-.004.319.07.317.323-.008 2.709-.008 5.419-.004 8.128.003 1.292-.489 2.349-1.464 3.191"/>
    <path fill="#262626" d="M462.3179 241.0966c0-1.878-1.522-3.399-3.398-3.399H3.3999c-1.877 0-3.4 1.521-3.4 3.399v89.808c0 1.878 1.523 3.4 3.4 3.4h455.52c1.876 0 3.398-1.522 3.398-3.4v-89.808z"/>
    <path fill="#404040" d="M170.174 256.867h118.234v59.306H170.174v-59.306z"/>
    <path fill="#333" d="M175.5923 242.5937c0-1.252-1.015-2.267-2.266-2.267H14.8723c-1.252 0-2.267 1.015-2.267 2.267v74.712c0 1.252 1.015 2.267 2.267 2.267h158.454c1.251 0 2.266-1.015 2.266-2.267v-74.712z"/>
    <path fill="#404040" d="M171.9185 254.6953c0-.626-.507-1.134-1.133-1.134H23.5215c-.626 0-1.133.508-1.133 1.134v60.345c0 .625.507 1.132 1.133 1.132h147.264c.626 0 1.133-.507 1.133-1.132v-60.345z"/>
    <path fill="#333" d="M286.7261 242.5937c0-1.252 1.016-2.267 2.268-2.267h158.453c1.252 0 2.265 1.015 2.265 2.267v74.712c0 1.252-1.013 2.267-2.265 2.267h-158.453c-1.252 0-2.268-1.015-2.268-2.267v-74.712z"/>
    <path fill="#404040" d="M290.3999 254.6953c0-.626.508-1.134 1.133-1.134h147.265c.625 0 1.133.508 1.133 1.134v60.345c0 .625-.508 1.132-1.133 1.132h-147.265c-.625 0-1.133-.507-1.133-1.132v-60.345z"/>
    <path d="M92.075 323.35H57.984v6.044h34.091v-6.044zm179.312-3.777h-80.456v9.821h80.456v-9.821zm132.099 3.777h-34.092v6.044h34.092v-6.044z"/>
    <path fill="#006837" d="M392.943 303.401h-8.586v3.156h8.586v-3.156z"/>
    <path fill="#ccc" d="M31.68 304.074h2.593v-8.456H31.68v8.456zm3.6667-.0003h4.019l4.87-6.144h.024v6.144h2.592v-8.456h-4.018l-4.87 6.144h-.024v-6.144h-2.593v8.456zm11.8193 0h9.881v-2.102h-3.644v-6.354H50.81v6.354h-3.644v2.102zm10.1958 0h9.251v-1.961h-6.658v-1.355h6.307v-1.753h-6.307v-1.355h6.81v-2.032h-9.403v8.456zm12.7422-4.1577h4.287c.701 0 .958.28.958.888v.28c0 .748-.374.888-1.192.888h-4.053v-2.056zm-2.592 4.158h7.825c1.997 0 2.535-.993 2.535-2.511v-.538c0-1.132-.258-1.798-1.449-2.078v-.024c.771-.14 1.414-.479 1.414-1.869v-1.436h-2.593v1.016c0 .888-.258 1.18-1.064 1.18h-4.076v-2.196h-2.592v8.456zm11.2927-.0003h8.831v-2.032h-6.238v-1.576h5.946v-1.963h-5.946v-2.885h-2.593v8.456zm12.7315-5.1392h3.317l-1.682 3.178-1.635-3.178zm-.047 5.139h3.377l4.648-8.456h-2.885l-.806 1.495h-5.256l-.76-1.495h-2.896l4.578 8.456zm7.9415-2.9661c0 2.476 1.391 3.06 3.726 3.06h3.049c3.691 0 4.17-.794 4.146-3.189h-2.593v.234c0 .608-.444.783-1.214.783h-2.827c-1.367 0-1.624-.643-1.624-1.694v-.911c0-1.226.257-1.694 1.483-1.694h2.769c1.168 0 1.518.118 1.518 1.168h2.593v-.794c0-1.425-.513-2.546-3.119-2.546h-4.181c-2.335 0-3.726.584-3.726 3.06v2.523zm11.7725 2.9663h9.251v-1.961h-6.658v-1.355h6.307v-1.753h-6.307v-1.355h6.81v-2.032h-9.403v8.456zm15.1005 0h2.593v-4.882c0-1.075.386-1.495 1.449-1.495h2.569c1.063 0 1.449.42 1.449 1.495v4.882h2.593v-5.442c0-2.103-1.087-3.108-3.469-3.108h-3.715c-2.382 0-3.469 1.005-3.469 3.108v5.442zm11.5865 0h4.018l4.871-6.144h.022v6.144h2.594v-8.456h-4.018l-4.871 6.144h-.023v-6.144h-2.593v8.456zm12.5788.0003h2.593v-8.456h-2.593v8.456zm3.0476-.0003h9.881v-2.102h-3.644v-6.354h-2.593v6.354h-3.644v2.102z"/>
  </g>
</svg>
