<svg xmlns="http://www.w3.org/2000/svg" width="93.593163" height="200">
  <defs>
    <clipPath id="a">
      <path d="M0 154.673h330.522V0H0v154.673z"/>
    </clipPath>
  </defs>
  <g clip-path="url(#a)" transform="matrix(0,0.60510344,0.60510344,0,0,0)">
    <path fill="#deddde" d="M330.522 7.3857c0-4.062-3.323-7.386-7.387-7.386H7.386C3.323-.0003 0 3.3237 0 7.3857v119.56c0 4.063 3.303 7.758 7.34 8.211l153.812 17.277c4.038.453 10.642.439 14.677-.032l147.355-17.213c4.036-.47 7.338-4.18 7.338-8.243V7.3857z"/>
    <path fill="#e9e9e9" d="M324.5191 8.9755c0-3.915-3.201-7.118-7.117-7.118H13.1191c-3.915 0-7.118 3.203-7.118 7.118v115.219c0 3.915 3.182 7.475 7.073 7.911l148.227.419c3.891.436 10.255.422 14.144-.032l142.005-.355c3.888-.454 7.069-4.028 7.069-7.943V8.9755z"/>
    <path fill="#464648" d="M80.1548 45.8535c0-16.933-13.726-30.659-30.66-30.659-16.933 0-30.659 13.726-30.659 30.659s13.726 30.659 30.659 30.659c16.934 0 30.66-13.726 30.66-30.659"/>
    <path fill="#464648" d="M90.9395 9.6938h-14.772c-5.061 0-6.769.422-6.769 2.721 0 2.218 2.145 3.042 5.386 6.501 6.734 7.185 11.663 16.314 11.663 26.938 0 20.408-16.545 36.951-36.953 36.951-9.715 0-17.517-4.432-17.517-4.432-3.533-1.822-6.127-.802-6.127 3.261v33.31c0 4.063 3.324 7.386 7.387 7.386h64.627c4.063 0 7.386-2.804 7.386-6.232v-6.386c0-34.672 28.107-63.026 62.779-63.026 34.674 0 62.781 27.8 62.781 62.472v6.478c0 3.682 3.324 6.694 7.386 6.694h61.859c4.06 0 7.385-3.323 7.385-7.386v-67.002c2.822-3.946 4.482-8.78 4.482-14.034 0-13.494-10.888-24.214-24.381-24.214H90.9395"/>
    <path fill="#cacac8" d="M287.8608 44.5893c-6.115 0-11.09-4.922-11.09-10.972 0-6.082 4.975-11.03 11.09-11.03 6.114 0 11.089 4.948 11.089 11.03 0 6.05-4.975 10.972-11.089 10.972m0-26.619c-8.66 0-15.707 7.019-15.707 15.647 0 8.596 7.047 15.588 15.707 15.588s15.706-6.992 15.706-15.588c0-8.628-7.046-15.647-15.706-15.647"/>
    <path fill="#464648" d="M287.8608 20.2788c7.4 0 13.398 5.939 13.398 13.339s-5.998 13.28-13.398 13.28c-7.4 0-13.398-5.88-13.398-13.28 0-7.4 5.998-13.339 13.398-13.339"/>
    <path fill="#cacac8" d="M196.1895 27.2353h-15.695c-3.825 0-6.925 3.1-6.925 6.924 0 3.824 3.1 6.925 6.925 6.925h15.695c3.824 0 6.924-3.101 6.924-6.925s-3.1-6.924-6.924-6.924"/>
    <path fill="#464648" d="M196.1895 29.5434h-15.695c-2.55 0-4.617 2.067-4.617 4.616 0 2.55 2.067 4.616 4.617 4.616h15.695c2.549 0 4.616-2.066 4.616-4.616 0-2.549-2.067-4.616-4.616-4.616"/>
    <path fill="#cacac8" d="M155.6553 27.2353h-15.695c-3.824 0-6.924 3.1-6.924 6.924 0 3.824 3.1 6.925 6.924 6.925h15.695c3.824 0 6.924-3.101 6.924-6.925s-3.1-6.924-6.924-6.924"/>
    <path fill="#464648" d="M155.6553 29.5434h-15.695c-2.549 0-4.616 2.067-4.616 4.616 0 2.55 2.067 4.616 4.616 4.616h15.695c2.549 0 4.616-2.066 4.616-4.616 0-2.549-2.067-4.616-4.616-4.616"/>
    <path fill="#ed1f24" d="M257.895 60.8032c0-.508-.416-.923-.923-.923h-13.079c-.508 0-.924.415-.924.923v14.584c0 .507.336 1.168.746 1.469l5.973 4.384c.409.3 1.079.3 1.489 0l5.974-4.384c.409-.301.744-.962.744-1.469v-14.584zm37.4297 0c0-.508-.415-.923-.923-.923h-13.077c-.51 0-.926.415-.926.923v14.584c0 .507.337 1.168.747 1.469l5.972 4.384c.41.3 1.08.3 1.489 0l5.975-4.384c.408-.301.743-.962.743-1.469v-14.584z"/>
    <path fill="#ed1f24" fill-rule="evenodd" d="M52.312 114.7363c-.564-.482-1.074-1.121-1.413-1.818-.339-.698-.512-1.455-.52-2.147-.008-.695.145-1.326.427-1.904.284-.58.695-1.107 1.204-1.461.51-.357 1.116-.544 1.672-.629.556-.085 1.062-.071 1.463-.014.401.057.695.152.966.302l1.593 3.311c-.413-.194-.833-.371-1.268-.551-.435-.178-.887-.361-1.365-.42-.478-.055-.983.01-1.434.278-.449.265-.841.732-1.044 1.257-.205.521-.217 1.1-.076 1.624.142.521.443.987.81 1.396.363.408.793.759 1.193.989.399.232.767.344 1.143.372l1.204-1.734 1.385.517-.971 2.375c-.273.009-.548 0-.875-.036-.325-.035-.7-.096-1.091-.196-.391-.099-.795-.24-1.308-.473-.511-.232-1.131-.557-1.695-1.038m-9.047.884c.141-.159.317-.363.277-.582l-.551-2.905c-.044-.227-.245-.392-.404-.505-.158-.114-.352-.144-.546-.175.168-.065.335-.131.448-.253.113-.122.268-.295.227-.478l-.631-2.83c-.06-.26-.326-.425-.514-.568-.19-.141-.405-.213-.621-.285h7.551l.532 2.832c-.29-.589-.581-1.175-1.075-1.553-.498-.377-1.175-.708-1.893-.708H44.68l.691 3.504c.25.086.535.077.79-.048.256-.122.484-.363.69-.624.204-.261.384-.541.528-.841l.723 3.686c-.246-.27-.522-.516-.818-.737-.298-.22-.614-.417-.912-.515-.297-.097-.574-.097-.83-.021l.715 3.449 1.114.012c.504.004 1.007.065 1.413-.269.408-.333.721-1.031 1.03-1.731l.55 2.526h-7.675c.216-.11.432-.22.576-.381m-3.954-4.475l-4.488 5.377-2.039-2.331.978-.894-1.169-6.472 2.346 1.03-1.21 1.121.671 3.423 4.728-5.45 1.632 7.431 1.654 1-1.998 1.216-1.105-5.451z"/>
    <path fill="#ed1f24" d="M78.5064 12.2065l-2.412 2.796c8.982 7.75 14.134 18.996 14.134 30.851 0 22.461-18.273 40.734-40.734 40.734-6.405 0-12.535-1.443-18.22-4.291l-1.654 3.302c6.203 3.107 12.89 4.682 19.874 4.682 24.497 0 44.428-19.93 44.428-44.427 0-12.93-5.619-25.194-15.416-33.647m209.0742 1.0522c11.356 0 20.559 9.02 20.559 20.375s-9.203 20.376-20.559 20.376h-37.605c-11.355 0-20.559-9.021-20.559-20.376s9.204-20.466 20.559-20.466l37.605.091z"/>
    <path fill="#cacac8" d="M250.4331 44.5893c-6.116 0-11.092-4.922-11.092-10.972 0-6.082 4.976-11.03 11.092-11.03 6.114 0 11.089 4.948 11.089 11.03 0 6.05-4.975 10.972-11.089 10.972m0-26.619c-8.661 0-15.708 7.019-15.708 15.647 0 8.596 7.047 15.588 15.708 15.588 8.66 0 15.706-6.992 15.706-15.588 0-8.628-7.046-15.647-15.706-15.647"/>
    <path fill="#464648" d="M250.4331 20.2788c7.399 0 13.398 5.939 13.398 13.339s-5.999 13.28-13.398 13.28-13.399-5.88-13.399-13.28c0-7.4 6-13.339 13.399-13.339"/>
    <path fill="#cacac8" d="M287.8648 17.767c8.796 0 15.926 7.06 15.926 15.857 0 8.796-7.13 15.786-15.926 15.786-8.798 0-15.93-6.99-15.93-15.786 0-8.797 7.132-15.857 15.93-15.857"/>
    <path fill="#464648" d="M287.8648 20.2788c7.398 0 13.398 5.939 13.398 13.339s-6 13.28-13.398 13.28c-7.4 0-13.399-5.88-13.399-13.28 0-7.4 5.999-13.339 13.399-13.339"/>
    <path fill="#deddde" d="M124.1763 154.6733c-1.524 0-2.77-1.247-2.77-2.77v-45.479c0-26.195 20.89-47.5 47.085-47.5 26.197 0 47.086 21.166 47.086 47.361v45.618c0 1.523-1.246 2.77-2.77 2.77h-88.631z"/>
    <path fill="#5f6062" d="M57.8438 75.8115c0 .531-.426 1.052-.945 1.156 0 0-2.868.915-7.404.915-4.34 0-7.402-.914-7.402-.914-.52-.105-.945-.626-.945-1.157v-20.645c0-.531-.434-.965-.965-.965h-20.646c-.531 0-1.051-.425-1.155-.945 0 0-.916-2.9-.916-7.403 0-3.838.916-7.403.916-7.403.104-.519.624-.944 1.155-.944h20.646c.531 0 .965-.435.965-.966v-20.644c0-.531.425-1.052.945-1.157 0 0 2.526-.914 7.402-.914 4.964 0 7.404.916 7.404.916.519.103.945.624.945 1.155v20.644c0 .531.434.966.964.966h20.646c.531 0 1.051.425 1.155.944 0 0 .915 2.495.915 7.403 0 5.166-.915 7.403-.915 7.403-.104.52-.624.945-1.155.945h-20.646c-.53 0-.964.434-.964.965v20.645z"/>
    <path fill="#464648" d="M56.5425 45.8535c0-3.893-3.155-7.047-7.048-7.047-3.892 0-7.048 3.154-7.048 7.047 0 3.894 3.156 7.048 7.048 7.048 3.893 0 7.048-3.154 7.048-7.048"/>
  </g>
</svg>
