<svg xmlns="http://www.w3.org/2000/svg" viewBox="0 0 339.9 200"><path fill="#E6E6E6" d="M339.9 193.9c0 3.3-2.7 6.1-6.1 6.1h-91.9c-3.3 0-6.1-2.7-6.1-6.1V45.5c0-3.3 2.7-6.1 6.1-6.1h91.9c3.3 0 6.1 2.7 6.1 6.1v148.4z"/><path fill="#B3B3B3" d="M240.1 95.2h95.6v90.4h-95.6z"/><path fill="#202022" d="M238.7 42.9v41.8c0 3.4 2.7 6.1 6.1 6.1h86.4c3.3 0 6.1-2.8 6.1-6.1V42.9h-98.6z"/><path d="M238.7 42.9h98.5v8.4h-98.5z"/><path fill="#CCC" d="M302.3 192.8l-14.4-4.3-14.4 4.3v4.6h28.8z"/><g fill="#F7B71D"><path d="M241.3 45h1.4v5.6h-1.4zM243.8 44.1h1.4v6.4h-1.4zM246.3 44.1h1.4v6.4h-1.4zM248.7 44.1h1.4v6.4h-1.4zM251.2 44.1h1.4v6.4h-1.4zM253.7 44.1h1.4v6.4h-1.4zM256.2 44.1h1.4v6.4h-1.4zM258.7 44.1h1.4v6.4h-1.4zM261.1 44.1h1.4v6.4h-1.4zM263.6 44.1h1.4v6.4h-1.4zM266.1 44.1h1.4v6.4h-1.4zM268.6 44.1h1.4v6.4h-1.4zM271.1 44.1h1.4v6.4h-1.4zM273.6 44.1h1.4v6.4h-1.4zM276 44.1h1.4v6.4H276zM278.5 44.1h1.4v6.4h-1.4zM281 44.1h1.4v6.4H281zM283.5 42.9h1.4v8.4h-1.4zM286 44.1h1.4v6.4H286zM288.4 44.1h1.4v6.4h-1.4zM290.9 44.1h1.4v6.4h-1.4zM293.4 44.1h1.4v6.4h-1.4zM295.9 44.1h1.4v6.4h-1.4zM298.4 44.1h1.4v6.4h-1.4zM300.8 44.1h1.4v6.4h-1.4zM303.3 44.1h1.4v6.4h-1.4zM305.8 44.1h1.4v6.4h-1.4zM308.3 44.1h1.4v6.4h-1.4zM310.8 44.1h1.4v6.4h-1.4zM313.2 44.1h1.4v6.4h-1.4zM315.7 44.1h1.4v6.4h-1.4zM318.2 44.1h1.4v6.4h-1.4zM320.7 44.1h1.4v6.4h-1.4zM323.2 44.1h1.4v6.4h-1.4zM325.7 44.1h1.4v6.4h-1.4zM328.1 44.1h1.4v6.4h-1.4zM330.6 44.1h1.4v6.4h-1.4zM333.1 42.9h1.4v8.4h-1.4z"/></g><g fill="#231F20"><path d="M315.4 180.9H314l-.3 1.6h-.7l.8-3.6h.7l-.3 1.4h1.4l.3-1.4h.7l-.8 3.6h-.8l.4-1.6zM317 179.9h.7l-.3 1.5c0 .2-.1.3-.1.3 0 .1 0 .1.1.2s.1.1.2.1h.2c.1 0 .1-.1.2-.1s.1-.1.2-.2.1-.1.1-.2.1-.2.1-.4l.3-1.2h.7l-.5 2.6h-.7l.1-.4c-.3.3-.6.4-.9.4-.2 0-.4-.1-.5-.2-.1-.1-.2-.3-.2-.5 0-.1 0-.3.1-.5l.2-1.4zM322.2 181.2l.7.1c-.1.4-.4.7-.7.9-.3.2-.6.3-1 .3s-.8-.1-1-.4c-.2-.3-.4-.7-.4-1.2 0-.4.1-.8.2-1.1.2-.3.4-.6.7-.8.3-.2.6-.3 1-.3s.7.1.9.3c.2.2.4.5.4.9l-.7.1c0-.2-.1-.4-.2-.5-.1-.1-.3-.1-.4-.1-.2 0-.4.1-.6.2-.2.1-.3.3-.4.6-.1.3-.2.5-.2.8 0 .3.1.5.2.7.1.2.3.2.5.2s.4-.1.5-.2c.3 0 .4-.2.5-.5zM325.6 181.7h-1.4l-.4.8h-.8l2-3.6h.8l.6 3.6h-.7l-.1-.8zm-.1-.6l-.2-1.5-.9 1.5h1.1zM327.6 182.5h-.7l.8-3.6h1.6c.3 0 .5 0 .6.1.2.1.3.2.4.3.1.2.1.3.1.5 0 .3-.1.6-.3.8-.2.2-.5.3-.8.4l.3.3c.2.3.3.7.6 1.2h-.8c-.1-.2-.2-.5-.4-1-.1-.2-.2-.4-.3-.5-.1 0-.2-.1-.4-.1h-.3l-.4 1.6zm.4-2h.4c.4 0 .7 0 .8-.1.1 0 .2-.1.3-.2.1-.1.1-.2.1-.3 0-.1-.1-.2-.2-.3-.1 0-.2-.1-.4-.1h-.8l-.2 1zM330.5 182.5l.8-3.6h1.5c.1 0 .3 0 .4.1.1 0 .2.1.3.2.1.1.2.2.2.3.1.1.1.3.2.4 0 .2.1.3.1.5 0 .4-.1.7-.2 1-.1.3-.3.5-.6.7-.2.1-.4.2-.7.3-.2 0-.4.1-.7.1h-1.3zm.9-.6h.4c.3 0 .5 0 .6-.1.1 0 .2-.1.3-.2.1-.1.3-.3.4-.5.1-.2.1-.5.1-.8 0-.3 0-.4-.1-.6l-.3-.3h-.9l-.5 2.5z"/></g><g><path fill="#56524F" d="M197.1 100c0 53.6-43.5 97.1-97.1 97.1S2.9 153.6 2.9 100 46.4 2.9 100 2.9s97.1 43.5 97.1 97.1zm-80.4-35.3C111.6 62.3 106 61 100 61c-21.6 0-39.1 17.5-39.1 39.1s17.5 39.1 39.1 39.1 39.1-17.5 39.1-39.1c0-15.7-9.2-29.2-22.4-35.4"/><path fill="#0F1417" d="M100 200C44.9 200 0 155.1 0 100S44.9 0 100 0s100 44.9 100 100-44.9 100-100 100zM100 .2C45 .2.2 45 .2 100S45 199.8 100 199.8s99.8-44.8 99.8-99.8S155 .2 100 .2z"/><path fill="#A198A0" d="M100 117.3c-9.6 0-17.3-7.8-17.3-17.3s7.8-17.3 17.3-17.3 17.3 7.8 17.3 17.3-7.7 17.3-17.3 17.3zm0-33.4c-8.9 0-16.1 7.2-16.1 16.1 0 8.9 7.2 16.1 16.1 16.1 8.9 0 16.1-7.2 16.1-16.1 0-8.9-7.2-16.1-16.1-16.1z"/><path fill="#A198A0" d="M100 114c-7.7 0-14-6.3-14-14s6.3-14 14-14 14 6.3 14 14-6.3 14-14 14zm0-26.8c-7.1 0-12.8 5.7-12.8 12.8 0 7.1 5.7 12.8 12.8 12.8 7.1 0 12.8-5.7 12.8-12.8 0-7.1-5.7-12.8-12.8-12.8z"/><path fill="#1E1C1A" d="M2.9 100c0 53.6 43.5 97.1 97.1 97.1s97-43.5 97-97.1l.3-.4h-58.2c0 21.6-16.9 39.1-38.5 39.1s-39.1-17.5-39.1-39.1H2.7"/><path fill-rule="evenodd" clip-rule="evenodd" fill="#56524F" d="M159.2 112.3l-6.1-6.7-2.8 2.9 1.3 1.1-1.6 8.1 3.2-1.3-1.7-1.4.9-4.3 6.5 6.8 2.2-9.3 2.3-1.2-2.7-1.5-1.5 6.8zm5.4-5.6c.2.2.4.5.4.7l-.8 3.6c-.1.3-.3.5-.6.6s-.5.2-.7.2c.2.1.5.2.6.3.2.2.4.4.3.6l-.9 3.5c-.1.3-.4.5-.7.7-.3.2-.6.3-.8.4h10.3l.7-3.5c-.4.7-.8 1.5-1.5 1.9-.7.5-1.6.9-2.6.9h-1.9l.9-4.4c.3-.1.7-.1 1.1.1.4.2.7.5.9.8.3.3.5.7.7 1l1-4.6c-.3.3-.7.6-1.1.9-.4.3-.8.5-1.2.6-.4.1-.8.1-1.1 0l1-4.3h1.5c.7 0 1.4-.1 1.9.3.6.4 1 1.3 1.4 2.2l.8-3.1h-10.5c.4.2.7.4.9.6zm12.4 1.1c-.8.6-1.5 1.4-1.9 2.3-.5.9-.7 1.8-.7 2.7 0 .9.2 1.7.6 2.4.4.7 1 1.4 1.6 1.8.7.4 1.5.7 2.3.8.8.1 1.5.1 2 0s1-.2 1.3-.4l2.2-4.1c-.6.2-1.1.5-1.7.7-.6.2-1.2.5-1.9.5-.7.1-1.3 0-2-.3-.6-.3-1.2-.9-1.4-1.6-.3-.7-.3-1.4-.1-2 .2-.7.6-1.2 1.1-1.7.5-.5 1.1-.9 1.6-1.2.5-.3 1-.4 1.6-.5l1.6 2.2 1.9-.6-1.3-3h-1.2c-.4 0-1 .1-1.5.2s-1.1.3-1.8.6c-.7.2-1.6.6-2.3 1.2z"/><g fill="#56524F"><path d="M45.9 105.1v.2c0 .2 0 .3-.6.3s-.6-.1-.6-.3v-.6-.6c0-.2 0-.3.6-.3s.6.1.6.3v.2h.9v-.4c0-.4.1-.9-1.5-.9s-1.4.4-1.5.9v1.8c0 .4-.1.9 1.5.9s1.4-.4 1.5-.9v-.4h-.9v-.2zM35.6 103l-.9 2.5-.8-2.5h-1.3v3.4h.8v-2.5l.9 2.5h.8l.9-2.5v2.5h.8V103zM47 103h2.4v.9h-.8v2.5h-.8v-2.5H47zM40.4 106.4l1-3.4h1.2l1 3.4h-.8l-.2-.7h-1.1l.1-.6h.8l-.4-1.3-.8 2.6zM30.5 103.7c.6 0 .6.1.6.3v1.2c0 .2 0 .3-.6.3s-.6-.1-.6-.3v-.6-.6c0-.2 0-.3.6-.3v-.8c-1.6 0-1.4.4-1.5.9v1.8c0 .4-.1.9 1.5.9s1.4-.4 1.5-.9v-.9-.9c-.1-.4.1-.9-1.5-.9v.8zM27.7 105.1v.2c0 .2 0 .3-.6.3s-.6-.1-.6-.3v-.6-.6c0-.2 0-.3.6-.3s.6.1.6.3v.2h.9v-.4c-.1-.4.1-.9-1.5-.9s-1.4.4-1.5.9v1.8c.1.4-.1.9 1.5.9s1.4-.4 1.5-.9v-.4h-.9zM38.9 105.6h-.5v-.8h.5c.6 0 .6-.1.6-.3v-.2-.2c0-.2 0-.3-.6-.3h-.5v2.6h-.9V103h1.4c1.6 0 1.4.4 1.5.9v.8c0 .5.1.9-1.5.9zM22.4 118.9h-5.3c-.8 0-1.4-.6-1.4-1.4v-8.1c0-.8.6-1.4 1.4-1.4h3.3c.4 0 .7-.3.7-.7v-3.2c0-.2.1-.3.3-.3h2c.2 0 .3.1.3.3v14.6c0 .2-.1.3-.3.3l-1-.1v.7h1.3c.4 0 .7-.3.7-.7v-15.2c0-.4-.3-.7-.7-.7h-2.6c-.4 0-.7.3-.7.7v3.2c0 .2-.1.3-.3.3h-3c-1.2 0-2.1 1-2.1 2.1v8.1c0 1.2 1 2.1 2.1 2.1h5.3v-.6z"/><path d="M20.4 115.9v-5.2c0-.4-.4-.8-.8-.8s-.8.4-.8.8v5.7c0 .4.4.8.8.8s.8-.4.8-.8v-.5h.7v.4c0 .8-.7 1.5-1.5 1.5s-1.5-.7-1.5-1.5v-5.7c0-.8.7-1.5 1.5-1.5s1.5.7 1.5 1.5v5.3h-.7zM27.4 118.9h-1c-.2 0-.3-.1-.3-.3v-10.3c0-.2.1-.3.3-.3h2c.2 0 .3.1.3.3v10.3c0 .2-.1.3-.3.3h-1v.7h1.3c.4 0 .7-.3.7-.7V108c0-.4-.3-.7-.7-.7h-2.6c-.4 0-.7.3-.7.7v10.9c0 .4.3.7.7.7h1.3v-.7zM36.6 110h-2.1c-.7 0-1.2.5-1.2 1.2s.5 1.2 1.2 1.2h2.9c.8 0 1.4.6 1.4 1.4v3.7c0 .8-.6 1.4-1.4 1.4h-5.8c-.2 0-.3-.1-.3-.3v-1.4c0-.2.1-.3.3-.3h4c.7 0 1.2-.5 1.2-1.2s-.5-1.2-1.2-1.2h-2.9c-.8 0-1.4-.6-1.4-1.4v-3.7c0-.8.6-1.4 1.4-1.4h5.4c.2 0 .3.1.3.3v1.4c0 .2-.1.3-.3.3h-1.5v.7h1.8c.4 0 .7-.3.7-.7v-2c0-.4-.3-.7-.7-.7h-5.7c-1.2 0-2.1 1-2.1 2.1v3.7c0 1.2 1 2.1 2.1 2.1h2.9c.3 0 .5.2.5.5s-.2.5-.5.5h-4.3c-.4 0-.7.3-.7.7v2c0 .4.3.7.7.7h6.1c1.2 0 2.1-1 2.1-2.1v-3.7c0-1.2-1-2.1-2.1-2.1h-2.9c-.3 0-.5-.2-.5-.5s.2-.5.5-.5h2.1v-.7zM47.4 112.1h.9c.2 0 .3-.1.3-.3v-2.3c0-.8-.6-1.4-1.4-1.4h-4.6c-.8 0-1.4.6-1.4 1.4v8.1c0 .8.6 1.4 1.4 1.4h4.6c.8 0 1.4-.6 1.4-1.4v-2.2c0-.2-.1-.3-.3-.3h-1.7c-.2 0-.3.1-.3.3v1.1c0 .8-.5 1.5-1.4 1.5-.8 0-1.4-.7-1.4-1.5v-5.7c0-.8.5-1.5 1.4-1.5.8 0 1.4.7 1.4 1.5v1.1c0 .2.1.3.3.3l.8-.1v.7h-1.1c-.4 0-.7-.3-.7-.7v-1.4c0-.4-.2-.8-.6-.8-.4 0-.6.4-.6.8v5.7c0 .4.2.8.6.8.4 0 .6-.4.6-.8V115c0-.4.3-.7.7-.7h2.3c.4 0 .7.3.7.7v2.5c0 1.2-1 2.1-2.1 2.1h-4.6c-1.2 0-2.1-1-2.1-2.1v-8.1c0-1.2 1-2.1 2.1-2.1h4.6c1.2 0 2.1 1 2.1 2.1v2.6c0 .4-.3.7-.7.7h-1.3l.1-.6z"/></g><path fill-rule="evenodd" clip-rule="evenodd" fill="#56524F" d="M144.8 151.1c-.8-.7-1.7-1-2.7-1h-11.3c-.4 0-.9 0-1.3.2-.8.2-1.5.7-2.1 1.4-.6.7-.9 1.4-1 2.3v8.8c0 .2.1.3.3.3h3.6c.3 0 .4-.1.4-.3v-7.7c0-.6.3-1.1.8-1.3.3-.1.6-.2.9-.2h1.6c.3 0 .4.1.4.4v9c0 .2.1.3.3.3h3.4c.3 0 .3-.1.3-.3v-6.4-2.6c0-.1 0-.3.2-.3h2.2c.8.1 1.3.7 1.3 1.5v7.7c0 .3 0 .3.3.3h3.6c.3 0 .3-.1.3-.3v-8.3c0-1.5-.5-2.6-1.5-3.5zm.3 11.1h-1.7c-.2 0-.3-.1-.3-.3v-6.8c0-.9-.4-1.6-1.1-2.1-.4-.2-.8-.4-1.3-.4h-2.9c-.3 0-.3.1-.3.3v9c0 .3-.1.4-.4.4h-1.4c-.3 0-.3-.1-.3-.3v-8.9c0-.3-.1-.4-.4-.4h-2.8c-.9 0-1.6.4-2.1 1.1-.3.4-.4.9-.4 1.4v6.8c0 .3-.1.4-.3.3h-1.7c-.2 0-.2 0-.2-.2v-8c0-1.3 1.1-2.4 2.2-2.7.5-.1.9-.2 1.4-.2h11.2c1.2 0 2.1.6 2.7 1.6.3.5.4 1 .4 1.5v7.6c0 .2-.1.3-.3.3zm-85.7-12H48.9c-.8 0-1.7 0-2.5.1-.9.1-1.8.5-2.5 1-.9.6-1.6 1.4-2.1 2.4-.7 1.4-.8 2.8-.6 4.2.2 1.4.9 2.6 2 3.5 1.2 1 2.6 1.6 4.1 1.6h12.2c.2 0 .3-.1.3-.3V160c0-.3-.1-.4-.4-.4H48.3c-1.1 0-1.9-.4-2.6-1.2-.5-.6-.7-1.3-.6-2.1.1-.8.4-1.5 1-2.1.6-.5 1.2-.8 1.9-.8h11.4c.2 0 .3-.1.3-.3v-2.8c.1-.1 0-.1-.3-.1zm-.6 2.1c0 .3-.1.4-.4.4H48.1c-1.5-.1-3.1 1.2-3.6 2.5-.5 1.4-.3 2.8.6 4 .6.8 1.3 1.3 2.3 1.4.2 0 .4.1.6.1h10.5c.3 0 .4.1.3.3v.9c0 .3 0 .3-.3.3H47.4c-1.3 0-2.4-.5-3.4-1.3-.8-.7-1.4-1.6-1.7-2.7-.4-1.7-.2-3.4.9-4.9.9-1.2 2-1.8 3.4-2.2.3-.1.7-.1 1-.1h11c.3 0 .4.1.3.3-.1.5-.1.8-.1 1zm45.1 7.4c-.1-.8-.4-1.6-.9-2.3-.1-.2-.1-.3 0-.4.3-.3.4-.6.6-1 .4-.9.5-1.7.3-2.7-.2-1-.7-1.8-1.5-2.4-.8-.6-1.7-.9-2.6-.9H85.3c-.2 0-.3 0-.3.3v12.4c0 .2.1.3.3.3h3.6c.3 0 .3-.1.3-.3V159c0-.3.1-.3.3-.3h8.3c.3 0 .6 0 .9.1.7.1 1.2.8 1.2 1.4v2.7c0 .2.1.3.3.3h3.7c.2 0 .3-.1.3-.3v-2.3c-.3-.3-.3-.6-.3-.9zm-1.2 2.5H101c-.2 0-.2-.1-.2-.3v-2c0-.7-.7-1.7-1.4-2-.4-.1-.7-.2-1.1-.2h-9.8c-.3 0-.4.1-.4.4v3.8c0 .2-.1.3-.3.3h-1.6c-.3 0-.3-.1-.3-.3v-9.5-.9c0-.3.1-.4.4-.4h13.5c1.4 0 2.8 1 3.2 2.5.3 1.3 0 2.4-1 3.4-.2.2-.3.3 0 .6s.5.6.7 1c.2.5.4 1 .4 1.5v2c-.2.1-.2.1-.4.1zm-25.8-10.8c-1-.7-2.1-1.2-3.3-1.2H61c-.3 0-.3.1-.3.3v12.3c0 .3.1.3.3.3H73.6c.2 0 .5 0 .7-.1 1.7-.3 3.1-1.2 4.1-2.6.6-.9 1-1.9 1.1-3 .1-1 0-2-.3-3-.5-1.2-1.2-2.3-2.3-3zm1.2 7.7c-.2.5-.5.9-.9 1.3-.4.5-.9.9-1.5 1.2-.7.4-1.4.6-2.1.6H61.7c-.2 0-.3-.1-.3-.3v-10.5c0-.2.1-.3.3-.3h11.6c1.2 0 2.3.5 3.3 1.3.7.7 1.3 1.5 1.6 2.4.1.4.3.8.3 1.3.2 1.1.1 2.1-.4 3zm45.8-7c-.5-.6-1.1-1-1.8-1.3-.8-.4-1.6-.6-2.5-.6H111c-.4 0-.9 0-1.4.1-1.3.2-2.5.8-3.4 1.7-.6.6-1.1 1.4-1.5 2.2-.5 1.3-.6 2.7-.3 4.1.4 1.4 1.1 2.6 2.3 3.5 1.2.9 2.5 1.4 4 1.4h8.7c.4 0 .8-.1 1.3-.2.9-.2 1.7-.6 2.4-1.1.9-.7 1.6-1.5 2-2.6.5-1.2.7-2.4.5-3.6-.2-1.5-.8-2.6-1.7-3.6zm.8 5.6c-.2 1.3-.9 2.3-1.8 3.1-.6.5-1.3.9-2.1 1.1-.6.2-1.2.2-1.8.2h-8.3c-2.3.1-4.4-1.5-5.2-3.5-.7-1.9-.4-3.8.8-5.4.8-1 1.8-1.7 3.1-2 .4-.1.8-.2 1.3-.2h8.9c1.2 0 2.3.5 3.2 1.3.6.5 1.1 1.2 1.5 1.9.5 1.2.6 2.3.4 3.5zm29.5-6.1h-4.3c.1-.2.3-.2.4-.2h1.8c.2 0 .5 0 .7-.1 1.3-.4 1.9-1.7 1.7-3-.3-1.3-1.2-2-2.4-2h-4.2c-.3 0-.4.1-.4.4v1.6c0 .2.1.3.3.3h3.4c.4 0 .6.1.6.3 0 .3-.1.3-.6.3h-1.8c-.3 0-.5 0-.8.1-1.1.3-1.6 1.3-1.7 2.4v1.9c0 .2 0 .2.2.2h7.2c.2 0 .3-.1.3-.3v-1.7c-.1-.2-.2-.2-.4-.2zm-.2 1.6c0 .2-.1.3-.2.2h-6.2c-.3 0-.4-.1-.4-.4 0-.6 0-1.3.1-1.9.1-.5.6-1.3 1.3-1.4.3-.1.7-.1 1-.1h1.8c.4 0 .7-.3.8-.7 0-.5-.2-.8-.6-.8-.3-.1-.6-.1-.9-.1h-2.5c-.2 0-.3-.1-.3-.3v-.7c0-.3.1-.4.4-.4h3.4c.3 0 .5 0 .8.1.8.2 1.3.7 1.5 1.5.3 1.1-.3 2.3-1.6 2.6H150c-.5 0-.9.4-.9.8 0 .2 0 .3.3.3h4.3c.2 0 .3.1.3.3v1zm-70.8 2c-.4-.3-1-.3-1.5-.3-1.1 0-2.1 1.2-1.7 2.4.3.8.9 1.3 2.1 1.3.1.1.3 0 .5-.1 1-.2 1.4-.9 1.5-1.5.1-.7-.1-1.3-.9-1.8zm-.1 2c-.1.3-.4.5-.7.5-.4 0-.7 0-1.1-.1-.3-.1-.6-.5-.6-.8.1-.5.4-.8.8-.8h.4c.3 0 .7-.1 1 .2.4.3.4.6.2 1zm15.7-4.5H88.3c-.2 0-.3.1-.3.3v2.9c0 .3.1.3.3.3h9.9c.4 0 .9 0 1.3-.2.7-.3 1.3-1.2 1-1.9-.1-1.1-.8-1.4-1.7-1.4zm.7 2.2c-.2.1-.4.2-.7.2h-9.4c-.3 0-.4-.1-.4-.4v-.8c0-.2.1-.3.3-.3h9.8c.4 0 .6.2.7.5.1.4 0 .6-.3.8zm-24.7-1.4c-.6-.5-1.4-.9-2.2-.9h-8.4c-.2 0-.3.1-.3.3v7.4c0 .3.1.3.3.3h8.4c.3 0 .6 0 .9-.2 1.5-.6 2.5-1.7 2.7-3.4.2-1.3-.3-2.5-1.4-3.5zm-1.9 6.3h-7.8c-.2 0-.3 0-.3-.3v-5.6c0-.2.1-.3.3-.3h7.3c1.5 0 2.7.8 3 2.5.2 1.7-.6 3.2-2.5 3.7zm45.4-7.2H112c-.8 0-1.5.1-2.2.4-.8.4-1.4 1-1.8 1.8-.3.7-.5 1.5-.3 2.3.1.8.4 1.6 1 2.2.8.9 1.9 1.3 3.2 1.3h5.8c.5 0 .9 0 1.4-.1.8-.1 1.6-.4 2.2-1 .7-.7 1.1-1.5 1.3-2.5.1-.9-.1-1.8-.5-2.5-1-1.2-2.2-1.9-3.8-1.9zm2.2 6.4c-.7.6-1.5.8-2.3.8H111.9c-.7 0-1.5-.1-2.1-.6-.8-.5-1.2-1.2-1.4-2.1-.2-.9.1-1.8.6-2.5s1.3-1.1 2.1-1.1h7.4c.7 0 1.3.2 1.9.7.6.5.9 1 1.1 1.7.3 1.2 0 2.3-1 3.1z"/><g><path d="M100 139.1c-21.6 0-39.1-17.5-39.1-39.1S78.4 60.9 100 60.9s39.1 17.5 39.1 39.1-17.5 39.1-39.1 39.1zm0-77c-20.9 0-37.9 17-37.9 37.9s17 37.9 37.9 37.9 37.9-17 37.9-37.9-17-37.9-37.9-37.9z"/></g><g><path fill="#706B67" d="M138.5 100c0 21.3-17.2 38.5-38.5 38.5S61.5 121.3 61.5 100 78.7 61.5 100 61.5s38.5 17.2 38.5 38.5zM100 66.5c-18.5 0-33.5 15-33.5 33.5s15 33.5 33.5 33.5 33.5-15 33.5-33.5-15-33.5-33.5-33.5z"/></g></g></svg>