<?xml version="1.0" encoding="UTF-8" standalone="no"?>
<!-- Created with Inkscape (http://www.inkscape.org/) -->

<svg
   xmlns:dc="http://purl.org/dc/elements/1.1/"
   xmlns:cc="http://creativecommons.org/ns#"
   xmlns:rdf="http://www.w3.org/1999/02/22-rdf-syntax-ns#"
   xmlns:svg="http://www.w3.org/2000/svg"
   xmlns="http://www.w3.org/2000/svg"
   xmlns:sodipodi="http://sodipodi.sourceforge.net/DTD/sodipodi-0.dtd"
   xmlns:inkscape="http://www.inkscape.org/namespaces/inkscape"
   width="23"
   height="23"
   id="svg2"
   version="1.1"
   inkscape:version="0.92.2 (5c3e80d, 2017-08-06)"
   sodipodi:docname="rating_empty.svg">
  <defs
     id="defs4">
    <meshgradient
       inkscape:collect="always"
       id="meshgradient817"
       gradientUnits="userSpaceOnUse"
       x="176.07138"
       y="375.60028">
      <meshrow
         id="meshrow819">
        <meshpatch
           id="meshpatch821">
          <stop
             path="c 120,0  240,0  360,0"
             style="stop-color:#ffffff;stop-opacity:1"
             id="stop823" />
          <stop
             path="c 0,106.798  0,213.597  0,320.395"
             style="stop-color:#000000;stop-opacity:1"
             id="stop825" />
          <stop
             path="c -120,0  -240,0  -360,0"
             style="stop-color:#ffffff;stop-opacity:1"
             id="stop827" />
          <stop
             path="c 0,-106.798  0,-213.597  0,-320.395"
             style="stop-color:#000000;stop-opacity:1"
             id="stop829" />
        </meshpatch>
      </meshrow>
    </meshgradient>
  </defs>
  <sodipodi:namedview
     id="base"
     pagecolor="#ffffff"
     bordercolor="#666666"
     borderopacity="1.0"
     inkscape:pageopacity="0.0"
     inkscape:pageshadow="2"
     inkscape:zoom="22.4"
     inkscape:cx="3.6218152"
     inkscape:cy="11.110008"
     inkscape:document-units="px"
     inkscape:current-layer="layer1"
     showgrid="false"
     fit-margin-top="0"
     fit-margin-left="0"
     fit-margin-right="0"
     fit-margin-bottom="0"
     inkscape:window-width="1366"
     inkscape:window-height="741"
     inkscape:window-x="0"
     inkscape:window-y="27"
     inkscape:window-maximized="1" />
  <metadata
     id="metadata7">
    <rdf:RDF>
      <cc:Work
         rdf:about="">
        <dc:format>image/svg+xml</dc:format>
        <dc:type
           rdf:resource="http://purl.org/dc/dcmitype/StillImage" />
        <dc:title />
      </cc:Work>
    </rdf:RDF>
  </metadata>
  <g
     inkscape:label="Calque 1"
     inkscape:groupmode="layer"
     id="layer1"
     transform="translate(-184.64281,-384.42407)">
    <g
       id="g3100"
       transform="matrix(0.05833334,0,0,0.05692033,174.52197,364.90778)"
       style="fill-opacity:1;fill:url(#meshgradient817);opacity:0.15272727">
      <path
         style="fill:#e6e6e6;fill-opacity:1"
         d="m 245.87127,694.13502 -5.20017,-1.86032 -4.12838,-2.86098 c -5.35338,-3.70989 -11.74141,-10.86246 -17.69906,-19.81736 l -4.76534,-7.16274 -8.54227,-17 -8.54227,-17 -7.27387,-18.22622 -7.27386,-18.22623 -3.11853,-11.77377 -3.11854,-11.77378 -0.0688,-20 -0.0688,-20 2.30148,-8 2.30147,-8 3.93976,-8.17284 3.93976,-8.17285 5.06415,-6.32715 c 2.78529,-3.47994 6.95173,-7.85282 9.25877,-9.71752 l 4.19462,-3.39036 7.02988,-3.28822 7.02987,-3.28822 7.80944,-2.04548 7.80943,-2.04549 14.16069,-1.62216 14.16069,-1.62217 8.92219,-2.44036 c 4.90721,-1.34219 13.18727,-4.22246 18.40014,-6.40059 l 9.47794,-3.96023 10.09987,-6.64992 10.09986,-6.64992 9.5,-10.00612 c 5.225,-5.50337 14.225,-14.81871 20,-20.70077 l 10.5,-10.69464 7.90073,-4.60663 7.90073,-4.60662 6.79668,-1.54587 6.79667,-1.54587 9.8026,0.0174 9.80259,0.0174 6.5,1.39334 c 17.18044,3.6828 31.97798,11.25239 47.52879,24.31305 l 6.88828,5.78527 6.91108,7.9868 c 12.82141,14.81709 34.39721,48.0028 45.15416,69.45153 l 5.59891,11.16392 3.11016,9.18568 3.11016,9.18568 0.0992,9.5 0.0992,9.5 -2.27647,4.62041 -2.27647,4.62041 -4.11725,4.0765 -4.11725,4.07649 -8.10628,4.05586 -8.10628,4.05586 -6.5,1.66803 -6.5,1.66803 -12,-0.0688 -12,-0.0688 -7.66908,-2.04034 c -8.88737,-2.36447 -13.63461,-4.63558 -23.33092,-11.1617 -13.01129,-8.75726 -37.3645,-21.16164 -50,-25.46765 l -5,-1.70393 -4.84109,0.63139 -4.8411,0.63138 -7.6589,3.0226 c -13.24147,5.22576 -28.84415,14.40396 -39.56775,23.27551 l -4.90884,4.06105 -2.32458,5.07757 -2.32459,5.07756 -2.07493,11.94633 -2.07493,11.94633 -0.84205,22 -0.84205,22 -2.59428,8 -2.59429,8 -4.15474,7.5 -4.15475,7.5 -8.60056,8.52773 -8.60057,8.52773 -8.58245,4.24425 -8.58245,4.24425 -6.41755,0.50888 -6.41755,0.50888 -5.20016,-1.86032 z m 22.30793,-119.29465 13.43976,-7.09326 -5.52249,-10.57469 c -3.03737,-5.81608 -5.41056,-10.66103 -5.27376,-10.76656 0.13679,-0.10552 4.29872,-2.28125 9.24872,-4.83495 4.95,-2.5537 9.60159,-5.03 10.33687,-5.50289 l 1.33686,-0.85981 -7.18684,-13.66137 -7.18684,-13.66138 -10.29856,5.52408 c -5.6642,3.03824 -10.54945,5.52408 -10.85611,5.52408 -0.30666,0 -2.86905,-4.5 -5.69421,-10 l -5.13665,-10 -0.8881,0 c -1.34004,0 -25.82645,13.02922 -26.48306,14.09164 l -0.57082,0.9236 5.29495,9.92783 c 2.91222,5.46031 5.07839,10.11414 4.81373,10.34185 -0.26467,0.2277 -5.04834,2.85094 -10.63037,5.82941 l -10.14915,5.41539 6.99233,12.98514 c 3.84578,7.14183 7.21094,13.20818 7.47813,13.48079 0.26719,0.2726 5.25276,-1.9699 11.07904,-4.98334 l 10.59324,-5.47898 0.34452,0.98334 c 0.81773,2.33401 10.44376,19.48333 10.93613,19.48333 0.29861,0 6.59081,-3.19196 13.98268,-7.09325 z m 146.48611,-88.4553 2.99457,-1.54855 1.95203,-3.20145 1.95204,-3.20145 0,-3 0,-3 -2.01815,-3.31018 -2.01816,-3.31017 -3.65871,-1.52871 -3.6587,-1.5287 -2.90356,0.58071 -2.90356,0.58071 -2.78377,1.98223 -2.78377,1.98222 -1.26023,3.04246 -1.26023,3.04246 0.58856,3.62688 0.58856,3.62688 2.2896,2.46596 c 2.7113,2.92015 5.26874,4.09736 9.08926,4.18386 l 2.79966,0.0634 2.99456,-1.54855 z m 42.02377,-23.3338 3.88235,-3.88236 0,-4.54092 0,-4.54092 -2.53273,-3.00997 -2.53272,-3.00998 -3.46728,-1.1443 -3.46727,-1.1443 -3.46727,1.1443 -3.46728,1.1443 -2.44801,2.9093 -2.44801,2.90929 -0.64142,2.92036 -0.64142,2.92037 1.49653,3.58169 1.49653,3.5817 3.31017,2.01816 3.31018,2.01815 3.86765,0.004 3.86764,0.004 3.88236,-3.88235 z m -77.60743,1.44253 3.44599,-1.43983 2.01816,-3.31017 2.01815,-3.31018 0,-3 0,-3 -1.95204,-3.20145 -1.95203,-3.20145 -2.99457,-1.54855 -2.99456,-1.54855 -2.59932,0 -2.59932,0 -2.99456,1.54855 -2.99457,1.54855 -1.95203,3.20145 -1.95204,3.20145 -0.004,2.79966 -0.004,2.79966 1.54855,2.99456 1.54855,2.99457 3.20145,1.95203 3.20145,1.95204 2.28212,0.004 c 1.25516,0.002 3.83281,-0.64418 5.7281,-1.43608 z m 42.59225,-23.15835 2.95044,-2.82671 0.80942,-3.03756 0.80942,-3.03756 -0.81618,-2.92472 -0.81618,-2.92473 -2.69486,-2.81282 -2.69485,-2.81282 -3.34151,-0.62687 -3.3415,-0.62687 -3.00358,1.24412 -3.00359,1.24412 -2.39503,2.84634 -2.39504,2.84634 -0.65387,2.97708 -0.65388,2.97708 1.73912,3.66494 1.73913,3.66493 3.08003,1.93675 3.08004,1.93674 4.32601,-0.44053 4.32601,-0.44054 2.95045,-2.82671 z m 26.71003,-65.08494 1.3125,-0.52522 0.60417,0.60416 0.60416,0.60417 -1.91666,-0.079 -1.91667,-0.079 1.3125,-0.52522 z"
         id="path3108"
         inkscape:connector-curvature="0" />
      <path
         style="fill:#e4e4e4;fill-opacity:1"
         d="m 245.87127,694.13502 -5.20017,-1.86032 -4.12838,-2.86098 c -5.35338,-3.70989 -11.74141,-10.86246 -17.69906,-19.81736 l -4.76534,-7.16274 -8.54227,-17 -8.54227,-17 -7.27387,-18.22622 -7.27386,-18.22623 -3.11853,-11.77377 -3.11854,-11.77378 -0.0688,-20 -0.0688,-20 2.30148,-8 2.30147,-8 3.93976,-8.17284 3.93976,-8.17285 5.06415,-6.32715 c 2.78529,-3.47994 6.95173,-7.85282 9.25877,-9.71752 l 4.19462,-3.39036 7.02988,-3.28822 7.02987,-3.28822 7.80944,-2.04548 7.80943,-2.04549 14.16069,-1.62216 14.16069,-1.62217 8.92219,-2.44036 c 4.90721,-1.34219 13.18727,-4.22246 18.40014,-6.40059 l 9.47794,-3.96023 10.09987,-6.64992 10.09986,-6.64992 9.5,-10.00612 c 5.225,-5.50337 14.225,-14.81871 20,-20.70077 l 10.5,-10.69464 7.90073,-4.60663 7.90073,-4.60662 6.79668,-1.54587 6.79667,-1.54587 9.8026,0.0174 9.80259,0.0174 6.5,1.39334 c 17.18044,3.6828 31.97798,11.25239 47.52879,24.31305 l 6.88828,5.78527 6.91108,7.9868 c 12.82141,14.81709 34.39721,48.0028 45.15416,69.45153 l 5.59891,11.16392 3.11016,9.18568 3.11016,9.18568 0.0992,9.5 0.0992,9.5 -2.27647,4.62041 -2.27647,4.62041 -4.11725,4.0765 -4.11725,4.07649 -8.10628,4.05586 -8.10628,4.05586 -6.5,1.66803 -6.5,1.66803 -12,-0.0688 -12,-0.0688 -7.66908,-2.04034 c -8.88737,-2.36447 -13.63461,-4.63558 -23.33092,-11.1617 -13.01129,-8.75726 -37.3645,-21.16164 -50,-25.46765 l -5,-1.70393 -4.84109,0.63139 -4.8411,0.63138 -7.6589,3.0226 c -13.24147,5.22576 -28.84415,14.40396 -39.56775,23.27551 l -4.90884,4.06105 -2.32458,5.07757 -2.32459,5.07756 -2.07493,11.94633 -2.07493,11.94633 -0.84205,22 -0.84205,22 -2.59428,8 -2.59429,8 -4.15474,7.5 -4.15475,7.5 -8.60056,8.52773 -8.60057,8.52773 -8.58245,4.24425 -8.58245,4.24425 -6.41755,0.50888 -6.41755,0.50888 -5.20016,-1.86032 z m 22.30793,-119.29465 13.43976,-7.09326 -5.52249,-10.57469 c -3.03737,-5.81608 -5.41056,-10.66103 -5.27376,-10.76656 0.13679,-0.10552 4.29872,-2.28125 9.24872,-4.83495 4.95,-2.5537 9.60159,-5.03 10.33687,-5.50289 l 1.33686,-0.85981 -7.18684,-13.66137 -7.18684,-13.66138 -10.29856,5.52408 c -5.6642,3.03824 -10.54945,5.52408 -10.85611,5.52408 -0.30666,0 -2.86905,-4.5 -5.69421,-10 l -5.13665,-10 -0.8881,0 c -1.34004,0 -25.82645,13.02922 -26.48306,14.09164 l -0.57082,0.9236 5.29495,9.92783 c 2.91222,5.46031 5.07839,10.11414 4.81373,10.34185 -0.26467,0.2277 -5.04834,2.85094 -10.63037,5.82941 l -10.14915,5.41539 6.99233,12.98514 c 3.84578,7.14183 7.21094,13.20818 7.47813,13.48079 0.26719,0.2726 5.25276,-1.9699 11.07904,-4.98334 l 10.59324,-5.47898 0.34452,0.98334 c 0.81773,2.33401 10.44376,19.48333 10.93613,19.48333 0.29861,0 6.59081,-3.19196 13.98268,-7.09325 z m 146.48611,-88.4553 2.99457,-1.54855 1.95203,-3.20145 1.95204,-3.20145 0,-3 0,-3 -2.01815,-3.31018 -2.01816,-3.31017 -3.65871,-1.52871 -3.6587,-1.5287 -2.90356,0.58071 -2.90356,0.58071 -2.78377,1.98223 -2.78377,1.98222 -1.26023,3.04246 -1.26023,3.04246 0.58856,3.62688 0.58856,3.62688 2.2896,2.46596 c 2.7113,2.92015 5.26874,4.09736 9.08926,4.18386 l 2.79966,0.0634 2.99456,-1.54855 z m 42.02377,-23.3338 3.88235,-3.88236 0,-4.54092 0,-4.54092 -2.53273,-3.00997 -2.53272,-3.00998 -3.46728,-1.1443 -3.46727,-1.1443 -3.46727,1.1443 -3.46728,1.1443 -2.44801,2.9093 -2.44801,2.90929 -0.64142,2.92036 -0.64142,2.92037 1.49653,3.58169 1.49653,3.5817 3.31017,2.01816 3.31018,2.01815 3.86765,0.004 3.86764,0.004 3.88236,-3.88235 z m -77.60743,1.44253 3.44599,-1.43983 2.01816,-3.31017 2.01815,-3.31018 0,-3 0,-3 -1.95204,-3.20145 -1.95203,-3.20145 -2.99457,-1.54855 -2.99456,-1.54855 -2.59932,0 -2.59932,0 -2.99456,1.54855 -2.99457,1.54855 -1.95203,3.20145 -1.95204,3.20145 -0.004,2.79966 -0.004,2.79966 1.54855,2.99456 1.54855,2.99457 3.20145,1.95203 3.20145,1.95204 2.28212,0.004 c 1.25516,0.002 3.83281,-0.64418 5.7281,-1.43608 z m 42.59225,-23.15835 2.95044,-2.82671 0.80942,-3.03756 0.80942,-3.03756 -0.81618,-2.92472 -0.81618,-2.92473 -2.69486,-2.81282 -2.69485,-2.81282 -3.34151,-0.62687 -3.3415,-0.62687 -3.00358,1.24412 -3.00359,1.24412 -2.39503,2.84634 -2.39504,2.84634 -0.65387,2.97708 -0.65388,2.97708 1.73912,3.66494 1.73913,3.66493 3.08003,1.93675 3.08004,1.93674 4.32601,-0.44053 4.32601,-0.44054 2.95045,-2.82671 z m 27.23086,-65.0685 0.66667,-0.66666 0.66667,0.66666 0.66666,0.66667 -1.33333,0 -1.33333,0 0.66666,-0.66667 z"
         id="path3106"
         inkscape:connector-curvature="0" />
      <path
         style="fill:#d9d8d8;fill-opacity:1"
         d="m 448.90476,376.26695 0.66667,-0.66666 0.66667,0.66666 0.66666,0.66667 -1.33333,0 -1.33333,0 0.66666,-0.66667 z"
         id="path3104"
         inkscape:connector-curvature="0" />
      <path
         style="fill:#646162;fill-opacity:1"
         d="m 448.57143,376.43362 c 0,-0.275 0.225,-0.5 0.5,-0.5 0.275,0 0.5,0.225 0.5,0.5 0,0.275 -0.225,0.5 -0.5,0.5 -0.275,0 -0.5,-0.225 -0.5,-0.5 z"
         id="path3102"
         inkscape:connector-curvature="0" />
    </g>
  </g>
</svg>
