<?xml version="1.0" encoding="utf-8"?>
<!-- Generator: Adobe Illustrator 19.0.0, SVG Export Plug-In . SVG Version: 6.00 Build 0)  -->
<svg version="1.1" baseProfile="tiny" id="Layer_1" xmlns="http://www.w3.org/2000/svg" xmlns:xlink="http://www.w3.org/1999/xlink"
	 x="0px" y="0px" viewBox="0 0 495.5 161.4" xml:space="preserve">
<g>
	<path fill="#D5D4CF" d="M248.2,161.4l232.5-2.3c1.7,0,3.8-1,5-2.7l4.9-9.5H248.2H5.8l4.9,9.5c1.3,1.7,3.3,2.7,5,2.7L248.2,161.4"/>
	<path fill="#E2E4E2" d="M247.7,37.1h244.9c1.6,0,2.8,1.3,2.8,2.8L492.5,144c0,1.6-1.3,2.8-2.8,2.8h-242H5.8c-1.6,0-2.8-1.3-2.8-2.8
		L0,39.9c0-1.6,1.3-2.8,2.8-2.8H247.7"/>
	<path fill="#BDBBB8" d="M426.2,135.2l0.1,0l0.1,0l0,0l0,0.1v2.2l-0.1,0.2c0,0-0.1,0.1-0.2,0.1h-4.1c-0.1,0-0.2,0-0.2-0.1l-0.1-0.2
		v-2.2l0-0.1l0,0l0.1,0l0.1,0l0.1,0l0.1,0l0,0l0,0.1v1.8h1.4v-1.5l0-0.1l0,0l0.1,0l0.1,0l0.1,0l0.1,0l0,0l0,0.1v1.5h1.6v-1.8l0-0.1
		l0,0l0.1,0L426.2,135.2z"/>
	<path fill="#BDBBB8" d="M425.3,133.2c0.2,0,0.3,0,0.5,0c0.1,0,0.3,0.1,0.4,0.2c0.1,0.1,0.2,0.2,0.2,0.3c0.1,0.1,0.1,0.3,0.1,0.5
		l0,0.2l0,0.2l-0.1,0.1l-0.1,0.1l0,0l-0.1,0l-0.1,0l-0.1,0l-0.1,0l-0.1,0l0,0l0,0l0-0.1l0.1-0.1l0.1-0.1l0-0.2l0-0.2l-0.1-0.1
		c-0.1,0-0.1-0.1-0.2-0.1c-0.1,0-0.2,0-0.4,0H422l0,0l0,0l0-0.1l0-0.1l0-0.1l0-0.1l0,0l0,0L425.3,133.2z"/>
	<path fill="#BDBBB8" d="M426.2,129.4l0.1,0l0.1,0l0,0l0,0.1v2.2l-0.1,0.2c0,0-0.1,0.1-0.2,0.1h-4.1c-0.1,0-0.2,0-0.2-0.1l-0.1-0.2
		v-2.2l0-0.1l0,0l0.1,0l0.1,0l0.1,0l0.1,0l0,0l0,0.1v1.8h1.4v-1.5l0-0.1l0,0l0.1,0l0.1,0l0.1,0l0.1,0l0,0l0,0.1v1.5h1.6v-1.8l0-0.1
		l0,0l0.1,0L426.2,129.4z"/>
	<path fill="#BDBBB8" d="M425.8,125.4L425.8,125.4l0.2,0l0.1,0l0.1,0l0.1,0.1c0,0.1,0.1,0.2,0.1,0.3c0,0.1,0.1,0.2,0.1,0.4
		c0,0.1,0,0.3,0,0.5c0,0.3,0,0.6-0.1,0.8c-0.1,0.2-0.2,0.4-0.4,0.6s-0.4,0.3-0.7,0.4c-0.3,0.1-0.6,0.1-1,0.1c-0.4,0-0.7,0-1-0.1
		c-0.3-0.1-0.5-0.2-0.7-0.4c-0.2-0.2-0.4-0.4-0.5-0.6c-0.1-0.2-0.2-0.5-0.2-0.8c0-0.1,0-0.3,0-0.4c0-0.1,0.1-0.2,0.1-0.3
		c0-0.1,0.1-0.2,0.1-0.3l0.1-0.2l0.1-0.1l0.1,0l0.1,0l0.1,0l0.1,0l0.1,0l0,0l0,0l-0.1,0.1c0,0.1-0.1,0.1-0.2,0.2
		c-0.1,0.1-0.1,0.2-0.2,0.3c0,0.1-0.1,0.3-0.1,0.5c0,0.2,0,0.4,0.1,0.5c0.1,0.2,0.2,0.3,0.4,0.4c0.2,0.1,0.3,0.2,0.6,0.3
		s0.5,0.1,0.8,0.1c0.3,0,0.5,0,0.8-0.1s0.4-0.2,0.6-0.3s0.3-0.3,0.3-0.4c0.1-0.2,0.1-0.4,0.1-0.6c0-0.2,0-0.3-0.1-0.5
		c0-0.1-0.1-0.2-0.1-0.3c-0.1-0.1-0.1-0.2-0.1-0.2l-0.1-0.1l0,0l0,0l0.1,0L425.8,125.4L425.8,125.4z"/>
	<polygon fill="#BDBBB8" points="422.2,121.8 422.3,121.8 422.4,121.8 422.4,121.8 422.4,121.9 422.4,123.2 426.4,123.2 
		426.4,123.2 426.5,123.2 426.5,123.3 426.5,123.5 426.5,123.6 426.5,123.7 426.4,123.8 426.4,123.8 422.4,123.8 422.4,125.1 
		422.4,125.1 422.4,125.1 422.3,125.2 422.2,125.2 422.1,125.2 422,125.1 421.9,125.1 421.9,125.1 421.9,121.9 421.9,121.8 
		422,121.8 422.1,121.8 422.2,121.8 	"/>
	<path fill="#BDBBB8" d="M72.1,135.1c0.2,0,0.4,0,0.6,0.1c0.2,0.1,0.3,0.2,0.5,0.3c0.1,0.1,0.2,0.3,0.3,0.5c0.1,0.2,0.1,0.4,0.1,0.7
		v0.5h1.6l0,0l0,0l0,0.1l0,0.1l0,0.1l0,0.1l0,0l0,0H71c-0.1,0-0.2,0-0.2-0.1l-0.1-0.2v-1c0-0.1,0-0.2,0-0.3c0-0.1,0-0.2,0.1-0.3
		c0-0.1,0.1-0.2,0.2-0.4c0.1-0.1,0.2-0.2,0.3-0.3c0.1-0.1,0.2-0.2,0.4-0.2C71.8,135.1,71.9,135.1,72.1,135.1L72.1,135.1z
		 M72.1,135.7c-0.2,0-0.3,0-0.5,0.1c-0.1,0.1-0.2,0.2-0.3,0.3c-0.1,0.1-0.1,0.2-0.1,0.3c0,0.1,0,0.2,0,0.3v0.6h1.8v-0.5
		c0-0.2,0-0.3-0.1-0.5c0-0.1-0.1-0.2-0.2-0.3c-0.1-0.1-0.2-0.1-0.3-0.2C72.4,135.7,72.3,135.7,72.1,135.7L72.1,135.7z"/>
	<path fill="#BDBBB8" d="M73,130.3c0.4,0,0.7,0,1,0.1c0.3,0.1,0.5,0.2,0.8,0.4c0.2,0.2,0.4,0.4,0.5,0.6c0.1,0.3,0.2,0.6,0.2,0.9
		c0,0.3-0.1,0.6-0.2,0.9c-0.1,0.2-0.2,0.5-0.4,0.6c-0.2,0.2-0.4,0.3-0.7,0.4c-0.3,0.1-0.6,0.1-1,0.1c-0.4,0-0.7,0-1-0.1
		c-0.3-0.1-0.5-0.2-0.7-0.4s-0.4-0.4-0.5-0.6c-0.1-0.3-0.2-0.6-0.2-0.9c0-0.3,0.1-0.6,0.2-0.9c0.1-0.2,0.2-0.5,0.4-0.6
		c0.2-0.2,0.4-0.3,0.7-0.4C72.3,130.4,72.6,130.3,73,130.3z M73,131c-0.3,0-0.5,0-0.7,0.1c-0.2,0-0.4,0.1-0.6,0.2
		c-0.2,0.1-0.3,0.2-0.4,0.4c-0.1,0.2-0.1,0.4-0.1,0.7c0,0.3,0,0.5,0.1,0.7c0.1,0.2,0.2,0.3,0.4,0.4c0.2,0.1,0.4,0.2,0.6,0.2
		c0.2,0,0.4,0.1,0.7,0.1c0.3,0,0.5,0,0.7-0.1s0.4-0.1,0.6-0.2s0.3-0.2,0.4-0.4c0.1-0.2,0.1-0.4,0.1-0.7c0-0.3,0-0.5-0.1-0.7
		c-0.1-0.2-0.2-0.3-0.4-0.4s-0.4-0.2-0.6-0.2C73.5,131,73.3,131,73,131L73,131z"/>
	<polygon fill="#BDBBB8" points="75.2,125 75.2,125.1 75.3,125.2 75.3,125.3 75.3,125.5 75.3,125.6 75.3,125.8 75.2,125.8 
		75.2,125.9 71.7,126.8 71.7,126.8 75.2,127.7 75.2,127.8 75.3,127.8 75.3,127.9 75.3,128.1 75.3,128.3 75.3,128.4 75.2,128.5 
		75.2,128.6 71,129.8 70.8,129.8 70.8,129.8 70.7,129.7 70.7,129.5 70.7,129.3 70.8,129.2 70.8,129.2 70.9,129.1 74.7,128.1 
		74.7,128.1 70.9,127.1 70.8,127.1 70.8,127.1 70.7,127 70.7,126.8 70.7,126.6 70.8,126.6 70.8,126.5 70.9,126.5 74.7,125.4 
		74.7,125.4 70.9,124.4 70.8,124.4 70.8,124.4 70.7,124.3 70.7,124.1 70.7,123.9 70.8,123.8 70.8,123.8 71,123.8 	"/>
	<path fill="#BDBBB8" d="M75.1,120.5l0.1,0l0.1,0l0,0l0,0.1v2.2l-0.1,0.2c0,0-0.1,0.1-0.2,0.1H71c-0.1,0-0.2,0-0.2-0.1l-0.1-0.2
		v-2.2l0-0.1l0,0l0.1,0l0.1,0l0.1,0l0.1,0l0,0l0,0.1v1.8h1.4v-1.5l0-0.1l0,0l0.1,0l0.1,0l0.1,0l0.1,0l0,0l0,0.1v1.5h1.6v-1.8l0-0.1
		l0,0l0.1,0L75.1,120.5L75.1,120.5z"/>
	<path fill="#BDBBB8" d="M75.2,116.4L75.2,116.4L75.2,116.4l0.1,0.2l0,0.2l0,0.1l0,0.1l0,0.1l-0.1,0l-1.1,0.4
		c-0.1,0-0.2,0.1-0.3,0.2c-0.1,0.1-0.2,0.1-0.3,0.2s-0.1,0.2-0.2,0.3c0,0.1-0.1,0.2-0.1,0.4v0.4h1.9l0,0l0,0l0,0.1l0,0.1l0,0.1
		l0,0.1l0,0l0,0H71c-0.1,0-0.2,0-0.2-0.1l-0.1-0.2v-1c0-0.1,0-0.2,0-0.3l0-0.2c0-0.2,0.1-0.3,0.1-0.5c0.1-0.1,0.1-0.2,0.2-0.3
		c0.1-0.1,0.2-0.2,0.3-0.2s0.3-0.1,0.4-0.1c0.2,0,0.3,0,0.4,0.1c0.1,0,0.2,0.1,0.3,0.2c0.1,0.1,0.2,0.2,0.2,0.3
		c0.1,0.1,0.1,0.2,0.2,0.4l0.1-0.2l0.2-0.2c0.1-0.1,0.2-0.1,0.2-0.1c0.1,0,0.2-0.1,0.3-0.1l1-0.4L75.2,116.4L75.2,116.4L75.2,116.4z
		 M72,117.4c-0.2,0-0.3,0-0.5,0.1c-0.1,0.1-0.2,0.2-0.3,0.4l0,0.2c0,0.1,0,0.2,0,0.3v0.5h1.5v-0.6c0-0.2,0-0.3-0.1-0.4
		c0-0.1-0.1-0.2-0.2-0.3s-0.2-0.1-0.2-0.2C72.2,117.4,72.1,117.4,72,117.4L72,117.4z"/>
	<path fill="#BDBBB8" d="M479.3,106.8c-0.2,0.7-0.9,1.4-1.6,1.7c-0.5,0.2-3.1,0.9-12.3,3.5l-1.4,0.4l0-1.7c0-1,0-1.7,0-1.8
		c0,0,2.5-0.7,5.6-1.4l5.6-1.4l-2.6-0.7c-6.1-1.6-7.1-1.9-7.5-2.1c-0.6-0.3-1-0.7-1.1-1.3c-0.1-0.3-0.1-1,0-1.3
		c0.2-0.6,0.6-1.1,1.3-1.4c0.4-0.2,1.7-0.5,6.7-1.8c1.7-0.4,3.1-0.8,3.1-0.8c0,0-2-0.6-5.5-1.5l-5.6-1.4l0-1.8c0-1.4,0-1.8,0-1.7
		c0,0,1.4,0.4,3,0.8c7.7,2.1,10.3,2.9,10.8,3.1c0.8,0.4,1.3,1,1.5,1.7c0.1,0.3,0.1,0.9,0,1.2c-0.1,0.4-0.2,0.6-0.6,1
		c-0.3,0.3-0.4,0.4-0.7,0.5c-0.5,0.2-1.3,0.5-6.9,2c-1.3,0.4-2.4,0.7-2.4,0.7c0,0,1.2,0.4,2.8,0.8c3.5,1,5.3,1.5,5.8,1.6
		c1.1,0.3,1.8,1,2,1.8C479.3,105.8,479.3,106.5,479.3,106.8z M473.9,88.5h-5.3v-1.7v-1.7h5.3h5.3v1.7v1.7H473.9z M473.9,81.8h-5.3
		v-1.7v-1.7h5.3h5.3v1.7v1.7H473.9z M466.7,87.3c-0.2,0.8-0.8,1.4-1.6,1.5c-0.9,0.2-1.8-0.5-2.1-1.4c-0.1-0.5-0.1-1.1,0.2-1.5
		c0.1-0.3,0.5-0.7,0.7-0.8c0.8-0.5,1.9-0.2,2.4,0.6C466.7,86.2,466.8,86.8,466.7,87.3z M466.7,80.6c-0.2,1-1.2,1.7-2.1,1.5
		c-0.7-0.1-1.3-0.7-1.5-1.4c-0.1-0.5-0.1-1.1,0.2-1.5c0.1-0.3,0.5-0.6,0.7-0.8c0.8-0.5,1.9-0.2,2.4,0.6
		C466.7,79.5,466.8,80.1,466.7,80.6z"/>
	<path fill="#EEEFEC" d="M243.4,88.9L49.2,86.1l-0.7-0.2C43,84.1,39,78.5,39,72.6c0-5.7,3.6-10.4,9.4-12.3l0.7-0.2l195.5-4.7l6,0
		l195.6,4.7l0.7,0.2c5.8,1.9,9.4,6.6,9.4,12.3c0,5.9-4,11.5-9.4,13.2l-0.7,0.2l-197.4,2.8L243.4,88.9z"/>
	<path fill="#91B9E3" d="M244.7,60.4L50,65.1c-9.2,3-6.6,13.8,0,16l193.4,2.8l5.4,0l196.6-2.8c6.6-2.2,9.2-13,0-16l-194.9-4.7H244.7
		z"/>
	<path d="M52.8,66c-9.1,2.2-6.6,10.2,0,11.8l190.6,2c1.3,0.1,2.9,0,4.3,0l194.9-2.1c6.6-1.6,9.1-9.6,0-11.8l-194.9-3.5
		C182.8,63.4,117.8,64.8,52.8,66z"/>
	<path fill="#BDBBB8" d="M116.5,138.3h-5v-1.8c0-0.4,0-0.7,0.1-0.8c0.1-0.2,0.2-0.3,0.5-0.4c0.2-0.1,0.5-0.2,0.8-0.2
		c0.4,0,0.7,0.1,0.9,0.3c0.2,0.2,0.4,0.5,0.4,0.9c0.1-0.2,0.2-0.3,0.3-0.3c0.2-0.2,0.4-0.3,0.6-0.4l1.4-0.7v0.7l-1,0.5
		c-0.4,0.2-0.7,0.4-0.8,0.5c-0.1,0.1-0.2,0.2-0.3,0.3c0,0.1-0.1,0.2-0.1,0.4v0.6h2.2V138.3z M113.7,137.8v-1.2c0-0.3,0-0.4-0.1-0.6
		s-0.2-0.2-0.3-0.3c-0.1-0.1-0.3-0.1-0.5-0.1c-0.3,0-0.5,0.1-0.6,0.2c-0.1,0.1-0.2,0.4-0.2,0.7v1.3H113.7z"/>
	<polygon fill="#BDBBB8" points="116.5,134.2 111.5,134.2 111.5,131.2 112.1,131.2 112.1,133.6 113.6,133.6 113.6,131.3 
		114.2,131.3 114.2,133.6 115.9,133.6 115.9,131.1 116.5,131.1 	"/>
	<path fill="#BDBBB8" d="M114.9,130.5l-0.1-0.5c0.3,0,0.5-0.1,0.6-0.2c0.2-0.1,0.3-0.2,0.4-0.4s0.1-0.4,0.1-0.6
		c0-0.3-0.1-0.6-0.2-0.8c-0.2-0.2-0.4-0.3-0.6-0.3c-0.1,0-0.3,0-0.4,0.1c-0.1,0.1-0.2,0.2-0.3,0.3c-0.1,0.1-0.2,0.4-0.3,0.8
		c-0.1,0.4-0.2,0.7-0.3,0.8s-0.3,0.3-0.4,0.4c-0.2,0.1-0.4,0.1-0.6,0.1c-0.4,0-0.7-0.1-1-0.4s-0.4-0.6-0.4-1.1
		c0-0.3,0.1-0.6,0.2-0.8c0.1-0.2,0.3-0.4,0.5-0.5c0.2-0.1,0.5-0.2,0.8-0.2l0,0.5c-0.3,0-0.6,0.1-0.7,0.3c-0.2,0.2-0.2,0.4-0.2,0.7
		c0,0.3,0.1,0.5,0.2,0.7c0.1,0.2,0.3,0.2,0.5,0.2c0.2,0,0.4-0.1,0.5-0.2c0.1-0.1,0.2-0.4,0.3-0.8c0.1-0.4,0.2-0.7,0.3-0.9
		c0.1-0.3,0.3-0.4,0.5-0.6c0.2-0.1,0.5-0.2,0.7-0.2c0.3,0,0.5,0.1,0.8,0.2c0.2,0.1,0.4,0.3,0.5,0.5c0.1,0.2,0.2,0.5,0.2,0.8
		c0,0.5-0.2,0.9-0.5,1.2C115.8,130.4,115.4,130.5,114.9,130.5z"/>
	<polygon fill="#BDBBB8" points="116.5,126.5 111.5,126.5 111.5,123.5 112.1,123.5 112.1,126 113.6,126 113.6,123.7 114.2,123.7 
		114.2,126 115.9,126 115.9,123.4 116.5,123.4 	"/>
	<polygon fill="#BDBBB8" points="116.5,121.6 112.1,121.6 112.1,123 111.5,123 111.5,119.7 112.1,119.7 112.1,121.1 116.5,121.1 	
		"/>
	<path fill="#FFFFFF" d="M48.5,146.9l-1.1-27.3c0-2,1.5-3.6,3.4-3.6h9.7c1.9,0,3.4,1.6,3.4,3.5l1.1,27.4H48.5z"/>
	<path fill="#EDEFEA" d="M54.7,155.1c-1.7,0-2.4-1.3-2.8-2.1l-0.2-0.3l-3.2-5.8H65l2.3,4c0.4,0.8,0.4,1.8,0,2.5
		c-0.5,1-1.7,1.6-2.9,1.6H54.7z"/>
	<path fill="#EBECE7" d="M49.6,146.9l-1.1-27.2c0-0.9,0.8-1.7,1.7-1.7h10.6c0.9,0,1.7,0.8,1.7,1.7l1.1,27.2H49.6z"/>
	<path fill="#E4E4E2" d="M63.6,146.9h-14l3.1,5.4c0.5,0.9,0.7,1.5,1.5,1.5h11c0.8,0,1.9-0.8,1.5-1.5L63.6,146.9z"/>
	<rect x="50.6" y="127.2" fill="#B9BCBF" width="6.2" height="0.9"/>
	<path fill="#B9BCBF" d="M51.9,125.8H53c0.7-1,1.8-1.7,3.1-1.7c2,0,3.7,1.6,3.7,3.7c0,2-1.6,3.7-3.7,3.7c-1.3,0-2.4-0.7-3.1-1.7v0.1
		h-1c0.8,1.5,2.3,2.5,4.1,2.5c2.6,0,4.6-2.1,4.6-4.6c0-2.6-2.1-4.6-4.6-4.6C54.2,123.2,52.6,124.3,51.9,125.8z"/>
	<path fill="#B2D42E" d="M56.3,142.6c-0.5,0-1-0.2-1.4-0.6c-0.4-0.4-0.6-0.9-0.6-1.4c0-1.1,0.9-1.9,1.9-1.9h0h0c0.5,0,1,0.2,1.4,0.6
		c0.4,0.4,0.6,0.9,0.6,1.4c0,0.5-0.2,1-0.6,1.4C57.3,142.4,56.8,142.6,56.3,142.6L56.3,142.6z"/>
	<path fill="#D2EB76" d="M56.3,139.5c-0.7,0-1.2,0.5-1.2,1.2c0,0.3,0.1,0.6,0.4,0.9c0.2,0.2,0.5,0.4,0.9,0.4h0
		c0.3,0,0.6-0.1,0.9-0.4c0.2-0.2,0.4-0.5,0.4-0.9c0-0.3-0.1-0.6-0.4-0.9C56.9,139.6,56.6,139.5,56.3,139.5L56.3,139.5L56.3,139.5z"
		/>
	<path fill="#FFFFFF" d="M92.4,146.9l-0.9-27.3c0-2,1.3-3.6,3-3.6h8.4c1.6,0,3,1.6,3,3.5l0.9,27.4H92.4z"/>
	<path fill="#EDEFEA" d="M97.8,155.1c-1.5,0-2.1-1.3-2.4-2.1l-0.1-0.3l-2.8-5.8h14.4l2,4c0.4,0.8,0.4,1.8,0,2.5
		c-0.5,1-1.5,1.6-2.5,1.6H97.8z"/>
	<path fill="#EBECE7" d="M93.3,146.9l-0.9-27.2c0-0.9,0.7-1.7,1.5-1.7h9.2c0.8,0,1.5,0.8,1.5,1.7l0.9,27.2H93.3z"/>
	<path fill="#E4E4E2" d="M105.5,146.9H93.3l2.7,5.4c0.4,0.9,0.6,1.5,1.3,1.5h9.6c0.7,0,1.7-0.8,1.3-1.5L105.5,146.9z"/>
	<path fill="#FFFFFF" d="M446.6,146.9l1.1-27.3c0-2-1.6-3.6-3.5-3.6h-10c-1.9,0-3.5,1.6-3.5,3.5l-1.1,27.4H446.6z"/>
	<path fill="#EDEFEA" d="M440.2,155.1c1.8,0,2.5-1.3,2.9-2.1l0.2-0.3l3.4-5.8h-17.1l-2.4,4c-0.5,0.8-0.4,1.8,0,2.5
		c0.6,1,1.8,1.6,3,1.6H440.2z"/>
	<path fill="#EBECE7" d="M445.6,146.9l1.1-27.2c0-0.9-0.8-1.7-1.8-1.7h-11c-1,0-1.8,0.8-1.8,1.7l-1.1,27.2H445.6z"/>
	<path fill="#E4E4E2" d="M431,146.9h14.5l-3.2,5.4c-0.5,0.9-0.7,1.5-1.6,1.5h-11.4c-0.9,0-2-0.8-1.6-1.5L431,146.9z"/>
	<polyline fill="#808080" points="227.6,114.8 227.6,116.4 267.8,116.4 267.8,114.8 227.6,114.8 227.6,114.8 	"/>
	<path fill="#848381" d="M344.9,146.9h-1.1c0,1.6-1,7.3-2.6,7.3h-93.4h-93.4c-1.6,0-2.6-5.7-2.6-7.3h-1.1c0,1.6,1.3,7.8,2.9,7.8
		h94.3H342C343.6,154.7,344.9,148.4,344.9,146.9"/>
	<path fill="#8A8B8A" d="M338.8,114h-58.2h-32.9h-32.9h-58.2c-3.7,0-6.1,3.6-6.1,7.5v25.4l0,0h1.1l0,0l-0.3-25.1
		c0-3.5,2-6.7,5.2-6.7h58.2h12.8v-0.3h0h40.2v0.3h12.8h58.2c3.2,0,5.2,3.2,5.2,6.7l-0.3,25.1l0,0h1.1l0,0v-25.4
		C344.9,117.6,342.5,114,338.8,114"/>
	<polyline fill="#595959" points="267.8,114.8 227.6,114.8 227.6,114.8 227.6,115 247.7,115 267.8,115 267.8,114.8 	"/>
	<polygon fill="#BDBBB8" points="435.9,132 440.4,128.4 440.4,135.6 	"/>
	<rect x="441.7" y="128.4" fill="#BDBBB8" width="1.2" height="7.2"/>
	<path fill="#EBEAE8" d="M247.7,0h18.6h49.9h113.3c1,0,2.1,0.3,3,0.8l61.2,36.6h-246H1.7L62.9,0.8c0.9-0.5,1.9-0.8,3-0.8h113.3h49.9
		H247.7z"/>
	<path fill="#BDBBB8" d="M467.5,32.5H27.9v-0.1c0,0,0,0,0.1-0.1l0,0c0.4-0.3,1.9-1.2,7.2-4.4L74.9,4.2h345.7l0,0l39.5,23.7
		c5.3,3.2,6.8,4.1,7.2,4.4l0,0c0.2,0.1,0.2,0.1,0.2,0.1V32.5z M28.6,32.2h438.2c-4.8-2.9-44.9-26.9-46.4-27.8H75
		C73.6,5.3,33.4,29.4,28.6,32.2z"/>
	<rect x="10.1" y="32.2" fill="#BDBBB8" width="18" height="0.3"/>
	<rect x="467.4" y="32.2" fill="#BDBBB8" width="18" height="0.3"/>
</g>
</svg>
