<?xml version="1.0" encoding="utf-8"?>
<!-- Generator: Adobe Illustrator 19.0.0, SVG Export Plug-In . SVG Version: 6.00 Build 0)  -->
<svg version="1.1" baseProfile="tiny"
	 id="svg2" xmlns:inkscape="http://www.inkscape.org/namespaces/inkscape" xmlns:svg="http://www.w3.org/2000/svg" xmlns:sodipodi="http://sodipodi.sourceforge.net/DTD/sodipodi-0.dtd" xmlns:cc="http://creativecommons.org/ns#" xmlns:dc="http://purl.org/dc/elements/1.1/" xmlns:ns1="http://sozi.baierouge.fr" xmlns:rdf="http://www.w3.org/1999/02/22-rdf-syntax-ns#" inkscape:version="0.47 r22583" sodipodi:docname="iiw.svg"
	 xmlns="http://www.w3.org/2000/svg" xmlns:xlink="http://www.w3.org/1999/xlink" x="0px" y="0px" viewBox="-382.3 255.5 197.3 282"
	 xml:space="preserve">
<title  id="title3021">Wii controller</title>
<sodipodi:namedview  bordercolor="#666666" showgrid="false" pagecolor="#ffffff" borderopacity="1.0" id="base" inkscape:zoom="2.8" inkscape:cy="232.62948" inkscape:cx="7.8362212" inkscape:document-units="px" inkscape:pageshadow="2" inkscape:window-width="1366" inkscape:window-height="748" inkscape:window-x="-4" inkscape:pageopacity="0.0" inkscape:window-y="-3" inkscape:window-maximized="1" inkscape:current-layer="layer1">
	</sodipodi:namedview>
<g>
	<g>
		<path fill="#C7C8CB" d="M-256,536.5c-4.4,0-8-3.6-8-8v-264c0-4.4,3.6-8,8-8h62c4.4,0,8,3.6,8,8v264c0,4.4-3.6,8-8,8H-256
			 M-194,255.5h-62c-5,0-9,4-9,9v264c0,5,4,9,9,9h62c5,0,9-4,9-9v-264C-185,259.5-189,255.5-194,255.5"/>
		<path fill="#F1F1F2" d="M-223,393.9c-3.9,0-7-3.1-7-7c0-3.9,3.1-7,7-7c3.9,0,7,3.1,7,7C-216,390.8-219.1,393.9-223,393.9
			 M-239.4,308.1c-1.4,0-2.5-0.7-2.5-1.7v-6.5c0-0.9,1.1-1.7,2.5-1.7h11.5v-11.5c0-1.4,0.7-2.5,1.7-2.5h6.5c0.9,0,1.7,1.1,1.7,2.5
			v11.5h11.5c1.4,0,2.5,0.7,2.5,1.7v6.5c0,0.9-1.1,1.7-2.5,1.7h-11.5v11.5c0,1.4-0.7,2.5-1.7,2.5h-6.5c-0.9,0-1.7-1.1-1.7-2.5v-11.5
			H-239.4 M-194,256.5h-62c-4.4,0-8,3.6-8,8v264c0,4.4,3.6,8,8,8h62c4.4,0,8-3.6,8-8v-264C-186,260.1-189.6,256.5-194,256.5"/>
		<g>
			<polyline fill="#5C5C5C" points="-231.1,505.2 -236.1,505.2 -236.1,510.2 -231.1,510.2 -231.1,505.2 			"/>
			<polyline fill="#5C5C5C" points="-196.8,505.2 -201.8,505.2 -201.8,510.2 -196.8,510.2 -196.8,505.2 			"/>
			<polyline fill="#5C5C5C" points="-213.9,505.2 -218.9,505.2 -218.9,510.2 -213.9,510.2 -213.9,505.2 			"/>
			<polyline fill="#11B3EF" points="-248.2,505.2 -253.2,505.2 -253.2,510.2 -248.2,510.2 -248.2,505.2 			"/>
		</g>
		<circle cx="-215.5" cy="431.4" r="1.5"/>
		<circle cx="-223" cy="431.4" r="1.5"/>
		<circle cx="-230.5" cy="431.4" r="1.5"/>
		<circle cx="-215.5" cy="425.4" r="1.5"/>
		<circle cx="-223" cy="425.4" r="1.5"/>
		<circle cx="-230.5" cy="425.4" r="1.5"/>
		<circle cx="-215.5" cy="419.4" r="1"/>
		<circle cx="-223" cy="419.4" r="1"/>
		<circle cx="-230.5" cy="419.4" r="1"/>
		<circle cx="-215.5" cy="413.4" r="0.5"/>
		<circle cx="-223" cy="413.4" r="0.5"/>
		<circle cx="-230.5" cy="413.4" r="0.5"/>
		<circle cx="-215.5" cy="443.4" r="0.5"/>
		<circle cx="-223" cy="443.4" r="0.5"/>
		<circle cx="-230.5" cy="443.4" r="0.5"/>
		<circle cx="-215.5" cy="437.4" r="1"/>
		<circle cx="-223" cy="437.4" r="1"/>
		<circle cx="-230.5" cy="437.4" r="1"/>
		<path fill="#898A8C" d="M-239.4,307.7c-1.2,0-2.1-0.6-2.1-1.3v-6.5c0-0.7,0.9-1.3,2.1-1.3h11.9v-11.9c0-1.2,0.6-2.1,1.3-2.1h6.5
			c0.7,0,1.3,0.9,1.3,2.1v11.9h11.9c1.2,0,2.1,0.6,2.1,1.3v6.5c0,0.7-0.9,1.3-2.1,1.3h-11.9v11.9c0,1.2-0.6,2.1-1.3,2.1h-6.5
			c-0.7,0-1.3-0.9-1.3-2.1v-11.9H-239.4 M-219.7,284.2h-6.5c-0.9,0-1.7,1.1-1.7,2.5v11.5h-11.5c-1.4,0-2.5,0.7-2.5,1.7v6.5
			c0,0.9,1.1,1.7,2.5,1.7h11.5v11.5c0,1.4,0.7,2.5,1.7,2.5h6.5c0.9,0,1.7-1.1,1.7-2.5v-11.5h11.5c1.4,0,2.5-0.7,2.5-1.7v-6.5
			c0-0.9-1.1-1.7-2.5-1.7h-11.5v-11.5C-218.1,285.3-218.8,284.2-219.7,284.2"/>
		<path fill="#DBDCDD" d="M-219.7,284.6h-6.5c-0.7,0-1.3,0.9-1.3,2.1v11.9h-11.9c-1.2,0-2.1,0.6-2.1,1.3v6.5c0,0.7,0.9,1.3,2.1,1.3
			h11.9v11.9c0,1.2,0.6,2.1,1.3,2.1h6.5c0.7,0,1.3-0.9,1.3-2.1v-11.9h11.9c1.2,0,2.1-0.6,2.1-1.3v-6.5c0-0.7-0.9-1.3-2.1-1.3h-11.9
			v-11.9C-218.5,285.5-219,284.6-219.7,284.6"/>
		<rect x="-238.4" y="302.7" fill="#818285" width="6.9" height="1"/>
		<rect x="-214.5" y="302.7" fill="#818285" width="6.9" height="1"/>
		<rect x="-223.5" y="287.4" fill="#818285" width="1" height="6.9"/>
		<rect x="-223.5" y="312" fill="#818285" width="1" height="6.9"/>
		<path fill="#BDBEBF" d="M-245.8,279c-3.9,0-7-3.1-7-7s3.1-7,7-7c3.9,0,7,3.1,7,7S-241.9,279-245.8,279z"/>
		<circle fill="#E7E8E9" cx="-245.8" cy="271.9" r="6.7"/>
		<path fill="#BF1E2E" d="M-245.8,275.9c-1.8,0-3.2-1.4-3.2-3.2s1.4-3.2,3.2-3.2s3.2,1.4,3.2,3.2S-244,275.9-245.8,275.9z
			 M-245.8,270.5c-1.2,0-2.2,1-2.2,2.2s1,2.2,2.2,2.2s2.2-1,2.2-2.2S-244.6,270.5-245.8,270.5z"/>
		<rect x="-246.9" y="267.8" fill="#E7E8E9" width="2.2" height="5.9"/>
		<rect x="-246.3" y="268.2" fill="#BF1E2E" width="1" height="4.9"/>
		<path fill="#BDBEBF" d="M-223,360.4c-7.3,0-13.2-6-13.2-13.3s5.9-13.3,13.2-13.3s13.2,6,13.2,13.3S-215.7,360.4-223,360.4z"/>
		<ellipse fill="#D1D1D1" cx="-223" cy="347.1" rx="12.9" ry="13"/>
		<polygon fill="#A7A8AC" points="-219.5,352.8 -223,344.4 -226.5,352.8 -227.9,352.2 -223.7,342.2 -222.3,342.2 -218.1,352.2 		"/>
		<rect x="-225.6" y="348" fill="#A7A8AC" width="5.2" height="1.5"/>
		<path fill="#BDBEBF" d="M-223,393.9c-3.9,0-7-3.1-7-7c0-3.9,3.1-7,7-7c3.9,0,7,3.1,7,7C-216,390.8-219.1,393.9-223,393.9"/>
		<path fill="#E7E8E9" d="M-216.3,386.9c0,3.7-3,6.7-6.7,6.7c-3.7,0-6.7-3-6.7-6.7c0-3.7,3-6.7,6.7-6.7
			C-219.3,380.2-216.3,383.2-216.3,386.9"/>
		<polyline fill="#24A9E2" points="-225.8,390.2 -220.4,390.2 -220.4,386.7 -219.2,386.7 -223,383.6 -226.8,386.7 -225.8,386.7 
			-225.8,390.2 -225.8,390.2 		"/>
		<polyline fill="#EDF7FD" points="-221.9,387.4 -224.1,387.4 -224.1,388.8 -221.9,388.8 -221.9,387.4 		"/>
		<path fill="#BDBEBF" d="M-243.7,393.9c-3.9,0-7-3.1-7-7c0-3.9,3.1-7,7-7c3.9,0,7,3.1,7,7C-236.7,390.8-239.9,393.9-243.7,393.9z"
			/>
		<circle fill="#E7E8E9" cx="-243.7" cy="386.9" r="6.7"/>
		<line fill="#818185" x1="-247.5" y1="386.9" x2="-239.9" y2="386.9"/>
		<rect x="-247.5" y="386.4" fill="#818185" width="7.6" height="1"/>
		<path fill="#BDBEBF" d="M-202.3,393.9c-3.9,0-7-3.1-7-7c0-3.9,3.1-7,7-7s7,3.1,7,7C-195.3,390.8-198.4,393.9-202.3,393.9z"/>
		<circle fill="#E7E8E9" cx="-202.3" cy="386.9" r="6.7"/>
		<line fill="#818185" x1="-206.1" y1="386.9" x2="-198.5" y2="386.9"/>
		<rect x="-206.1" y="386.4" fill="#818185" width="7.6" height="1"/>
		<line fill="#818185" x1="-202.3" y1="383.1" x2="-202.3" y2="390.7"/>
		<rect x="-202.8" y="383.1" fill="#818185" width="1" height="7.6"/>
		<path fill="#BDBEBF" d="M-223,472.2c-5.5,0-9.9-4.4-9.9-9.9c0-5.5,4.4-9.9,9.9-9.9c5.5,0,9.9,4.4,9.9,9.9
			C-213.1,467.8-217.5,472.2-223,472.2z"/>
		<circle fill="#E7E8E9" cx="-223" cy="462.4" r="9.6"/>
		<polygon fill="#796E6E" points="-222.2,466.3 -223.7,466.3 -223.7,459.3 -225.4,459.7 -225.7,458.2 -222.2,457.5 		"/>
		<rect x="-225.4" y="465.6" fill="#796E6E" width="5" height="1.5"/>
		<path fill="#BDBEBF" d="M-223,499.3c-5.5,0-9.9-4.4-9.9-9.9s4.4-9.9,9.9-9.9c5.5,0,9.9,4.4,9.9,9.9S-217.5,499.3-223,499.3z"/>
		<circle fill="#E7E8E9" cx="-223" cy="489.4" r="9.6"/>
		<path fill="#796E6E" d="M-220.4,493.9h-5c-0.3,0-0.6-0.2-0.7-0.5c-0.1-0.3-0.1-0.6,0.2-0.8l3.6-3.7c0.8-0.8,0.8-1.6,0.4-2.1
			c-0.5-0.6-1.7-0.8-3.3,0.4l-0.9-1.2c2.3-1.7,4.4-1.3,5.3-0.1c0.8,1,0.9,2.8-0.6,4.1l-2.3,2.4h3.2V493.9z"/>
		<rect x="-212.3" y="519.4" fill="#808184" width="2" height="9.7"/>
		<rect x="-212.3" y="515.6" fill="#808184" width="2" height="2.1"/>
		<rect x="-217.2" y="519.4" fill="#808184" width="2" height="9.7"/>
		<rect x="-217.2" y="515.6" fill="#808184" width="2" height="2.1"/>
		<polygon fill="#808184" points="-224.5,529.2 -227.3,519.5 -230.1,529.2 -232,529.2 -235.7,516.1 -233.8,515.5 -231,525.3 
			-228.2,515.5 -226.3,515.5 -223.6,525.3 -220.8,515.5 -218.9,516.1 -222.6,529.2 		"/>
		<rect x="-231.8" y="397.3" fill="#808184" width="0.6" height="4.4"/>
		<rect x="-229" y="397.3" fill="#808184" width="0.6" height="4.4"/>
		<rect x="-231.5" y="399.2" fill="#808184" width="2.8" height="0.6"/>
		<path fill="#808184" d="M-225.3,401.8c-0.3,0-0.7-0.1-1-0.3c-0.7-0.4-1-1.1-1-2c0-0.9,0.4-1.7,1-2.1c0.6-0.3,1.3-0.3,1.9,0
			c0.7,0.4,1.1,1.2,1.1,2.1c0,0.9-0.4,1.7-1.1,2C-224.7,401.7-225,401.8-225.3,401.8z M-225.3,397.8c-0.2,0-0.5,0.1-0.7,0.2
			c-0.5,0.3-0.8,0.8-0.7,1.6v0c0,0.7,0.2,1.2,0.7,1.5c0.4,0.3,0.9,0.3,1.4,0c0.5-0.3,0.8-0.8,0.8-1.5c0-0.7-0.3-1.3-0.8-1.6
			C-224.9,397.8-225.1,397.8-225.3,397.8z"/>
		<polygon fill="#808184" points="-218.5,401.7 -219.1,401.7 -219.1,398.6 -220.3,400.8 -220.8,400.8 -221.9,398.6 -221.9,401.7 
			-222.5,401.7 -222.5,397.3 -222,397.2 -220.5,400 -219.1,397.2 -218.5,397.3 		"/>
		<polygon fill="#808184" points="-214.5,401.8 -217.3,401.8 -217.3,397.2 -214.5,397.2 -214.5,397.8 -216.7,397.8 -216.7,401.2 
			-214.5,401.2 		"/>
		<rect x="-216.9" y="399.1" fill="#808184" width="2.2" height="0.6"/>
		<path fill="#808184" d="M-250.9,285.5c-0.3,0-0.7-0.1-1-0.3c-0.7-0.4-1-1.1-1-2c0-0.9,0.4-1.7,1-2.1c0.6-0.3,1.3-0.3,1.9,0
			c0.7,0.4,1.1,1.2,1.1,2.1c0,0.9-0.4,1.7-1.1,2C-250.2,285.5-250.5,285.5-250.9,285.5z M-250.9,281.5c-0.2,0-0.5,0.1-0.7,0.2
			c-0.5,0.3-0.8,0.8-0.7,1.6v0c0,0.7,0.2,1.2,0.7,1.5c0.4,0.3,0.9,0.3,1.4,0c0.5-0.3,0.8-0.8,0.8-1.5c0-0.7-0.3-1.3-0.8-1.6
			C-250.4,281.6-250.6,281.5-250.9,281.5z"/>
		<polygon fill="#808184" points="-243.9,285.5 -244.5,285.5 -245.4,282.1 -246.4,285.5 -247,285.5 -248.2,281.1 -247.6,281 
			-246.7,284.3 -245.7,281 -245.1,281 -244.2,284.3 -243.2,281 -242.7,281.1 		"/>
		<polygon fill="#808184" points="-239.2,285.5 -242,285.5 -242,281 -239.2,281 -239.2,281.6 -241.4,281.6 -241.4,284.9 
			-239.2,284.9 		"/>
		<rect x="-241.6" y="282.8" fill="#808184" width="2.2" height="0.6"/>
		<path fill="#808184" d="M-255.7,285.3h-0.6v-4.4h1.4c1,0.1,1.5,0.7,1.5,1.3c0,0.6-0.5,1.3-1.4,1.4l-0.8,0V285.3z M-255.7,281.5
			v1.5l0.8,0c0.6,0,0.9-0.4,0.9-0.8c0-0.3-0.2-0.7-0.9-0.7L-255.7,281.5z"/>
		<path fill="#808184" d="M-237.7,285.3h-0.6v-4.4h1.4c1,0.1,1.5,0.7,1.5,1.3c0,0.6-0.5,1.3-1.4,1.4l-0.8,0V285.3z M-237.7,281.5
			v1.5l0.8,0c0.6,0,0.9-0.4,0.9-0.8c0-0.3-0.2-0.7-0.9-0.7L-237.7,281.5z"/>
		<path fill="#808184" d="M-235.2,285.3l-0.6,0c0-0.4-0.4-1.5-1.2-1.7l0.1-0.6C-235.8,283.2-235.2,284.6-235.2,285.3z"/>
		<g>
			<path fill="#D3D3D3" d="M-249.6,502.7c0,0.5-0.5,0.9-1.1,0.9c-0.6,0-1.1-0.4-1.1-0.9c0-0.5,0.5-0.9,1.1-0.9
				C-250.1,501.8-249.6,502.2-249.6,502.7"/>
			<path fill="#D3D3D3" d="M-203,502.7c0,0.5-0.5,0.9-1.1,0.9c-0.6,0-1.1-0.4-1.1-0.9c0-0.5,0.5-0.9,1.1-0.9
				C-203.5,501.8-203,502.2-203,502.7"/>
			<path fill="#D3D3D3" d="M-199.8,502.7c0,0.5-0.5,0.9-1.1,0.9c-0.6,0-1.1-0.4-1.1-0.9c0-0.5,0.5-0.9,1.1-0.9
				C-200.3,501.8-199.8,502.2-199.8,502.7"/>
			<path fill="#D3D3D3" d="M-196.6,502.7c0,0.5-0.5,0.9-1.1,0.9c-0.6,0-1.1-0.4-1.1-0.9c0-0.5,0.5-0.9,1.1-0.9
				C-197.1,501.8-196.6,502.2-196.6,502.7"/>
			<path fill="#D3D3D3" d="M-193.4,502.7c0,0.5-0.5,0.9-1.1,0.9c-0.6,0-1.1-0.4-1.1-0.9c0-0.5,0.5-0.9,1.1-0.9
				C-193.9,501.8-193.4,502.2-193.4,502.7"/>
			<path fill="#D3D3D3" d="M-218.6,502.7c0,0.5-0.5,0.9-1.1,0.9c-0.6,0-1.1-0.4-1.1-0.9c0-0.5,0.5-0.9,1.1-0.9
				C-219,501.8-218.6,502.2-218.6,502.7"/>
			<path fill="#D3D3D3" d="M-215.4,502.7c0,0.5-0.5,0.9-1.1,0.9c-0.6,0-1.1-0.4-1.1-0.9c0-0.5,0.5-0.9,1.1-0.9
				C-215.9,501.8-215.4,502.2-215.4,502.7"/>
			<path fill="#D3D3D3" d="M-212.2,502.7c0,0.5-0.5,0.9-1.1,0.9c-0.6,0-1.1-0.4-1.1-0.9c0-0.5,0.5-0.9,1.1-0.9
				C-212.7,501.8-212.2,502.2-212.2,502.7"/>
			<path fill="#D3D3D3" d="M-234.1,502.7c0,0.5-0.5,0.9-1.1,0.9c-0.6,0-1.1-0.4-1.1-0.9c0-0.5,0.5-0.9,1.1-0.9
				C-234.6,501.8-234.1,502.2-234.1,502.7"/>
			<path fill="#D3D3D3" d="M-230.9,502.7c0,0.5-0.5,0.9-1.1,0.9c-0.6,0-1.1-0.4-1.1-0.9c0-0.5,0.5-0.9,1.1-0.9
				C-231.4,501.8-230.9,502.2-230.9,502.7"/>
		</g>
	</g>
	<g>
		<path fill="#BFBFBF" d="M-346.3,537.5c-19.9,0-25.8-53.4-31.6-105c-1-8.7-2-17.7-3-26.2c-4.9-39.5,3.9-58.9,12.2-68.2
			c6.6-7.5,15.3-11.4,25.2-11.4s18.6,3.9,25.2,11.4c8.2,9.3,17,28.7,12.2,68.2c-1,8.5-2,17.5-3,26.2c-5.7,51.6-11.7,105-31.6,105
			H-346.3z"/>
		<path fill="#F1F1F2" d="M-340.7,537h-5.6c-22.8,0-27-73.5-34.1-130.7c-7.1-57.5,14-79,36.9-79c22.8,0,43.9,21.6,36.9,79
			C-313.7,463.5-317.9,537-340.7,537z"/>
		<polygon fill="#E0E1E2" points="-358.1,389.8 -364.6,374.1 -358.1,358.3 -342.3,351.8 -326.6,358.3 -320.1,374.1 -326.6,389.8 
			-342.3,396.4 		"/>
		<polygon fill="#727275" points="-355.7,387.4 -361.2,374.1 -355.7,360.7 -342.3,355.2 -329,360.7 -323.5,374.1 -329,387.4 
			-342.3,392.9 		"/>
		<polygon fill="#E7E8E9" points="-342.3,392.4 -355.3,387 -360.6,374.1 -355.3,361.1 -342.3,355.8 -329.4,361.1 -324,374.1 
			-329.4,387 		"/>
		<g>
			<circle fill="#D6D6D6" cx="-342.3" cy="374.1" r="15"/>
			<circle fill="#DDDDDD" cx="-342.3" cy="374.1" r="13.5"/>
			<circle fill="#E2E2E2" cx="-342.3" cy="374.1" r="12.1"/>
			<circle fill="#E5E5E5" cx="-342.3" cy="374.1" r="10.9"/>
			<circle fill="#E5E5E5" cx="-342.3" cy="374.1" r="9.8"/>
			<circle fill="#E5E5E5" cx="-342.3" cy="374.1" r="8.9"/>
			<circle fill="#E5E5E5" cx="-342.3" cy="374.1" r="8"/>
			<circle fill="#D6D6D6" cx="-342.3" cy="374.1" r="7.2"/>
			<circle fill="#F1F1F2" cx="-342.3" cy="374.1" r="6.5"/>
		</g>
	</g>
</g>
</svg>
