<svg xmlns="http://www.w3.org/2000/svg" viewBox="0 0 497.41 505"><path d="M248.705 497h37.307c4.709 0 9.413.287 14.089.859l56.552 6.923c1.182.145 2.372.217 3.563.217h75.479c2.208 0 4.4-.276 6.542-.825 8.593-2.203 31.722-8.675 45.421-17.675 8.122-5.336 9.564-22.638 9.734-25.186.013-.199.019-.399.019-.599v-204.24c0-2.149-.704-4.258-2.084-5.876-2.619-3.072-4.255-7.408-4.255-12.223 0-4.816 1.636-9.152 4.255-12.223 1.38-1.618 2.084-3.727 2.084-5.876 0-2.149-.704-4.258-2.084-5.876-2.619-3.072-4.255-7.408-4.255-12.223s1.636-9.152 4.255-12.223c1.38-1.618 2.084-3.727 2.084-5.876 0-2.149-.704-4.258-2.084-5.876-2.619-3.072-4.255-7.408-4.255-12.223 0-4.816 1.636-9.152 4.255-12.223 1.38-1.618 2.084-3.727 2.084-5.876 0-2.149-.704-4.258-2.084-5.876-2.619-3.072-4.255-7.408-4.255-12.223 0-4.816 1.636-9.152 4.255-12.223 1.38-1.618 2.084-3.727 2.084-5.876 0-2.149-.704-4.258-2.084-5.876-2.619-3.072-4.255-7.408-4.255-12.223 0-4.816 1.636-9.152 4.255-12.223 1.38-1.618 2.084-3.727 2.084-5.876 0-2.149-.704-4.258-2.084-5.876-2.619-3.072-4.255-7.408-4.255-12.223 0-4.816 1.636-9.152 4.255-12.223 1.38-1.618 2.084-3.727 2.084-5.876v-15.28C497.41 10.744 486.931 0 474.004 0H23.406C10.479 0 0 10.744 0 23.998v15.28c0 2.149.704 4.258 2.084 5.876 2.619 3.072 4.255 7.408 4.255 12.223 0 4.816-1.636 9.152-4.255 12.223C.704 71.22 0 73.329 0 75.478s.704 4.258 2.084 5.876c2.619 3.072 4.255 7.408 4.255 12.223 0 4.816-1.636 9.152-4.255 12.223C.704 107.419 0 109.528 0 111.677c0 2.149.704 4.258 2.084 5.876 2.619 3.072 4.255 7.408 4.255 12.223 0 4.816-1.636 9.152-4.255 12.223C.704 143.619 0 145.728 0 147.877s.704 4.258 2.084 5.876c2.619 3.072 4.255 7.408 4.255 12.223 0 4.816-1.636 9.152-4.255 12.223C.704 179.819 0 181.927 0 184.077c0 2.149.704 4.258 2.084 5.876 2.619 3.072 4.255 7.408 4.255 12.223s-1.636 9.152-4.255 12.223C.704 216.018 0 218.127 0 220.276c0 2.149.704 4.258 2.084 5.876 2.619 3.072 4.255 7.408 4.255 12.223 0 4.816-1.636 9.152-4.255 12.223C.704 252.218 0 254.326 0 256.476v204.24c0 .2.006.399.019.599.17 2.548 1.612 19.849 9.734 25.186 13.699 9 36.828 15.472 45.421 17.675 2.142.549 4.334.825 6.542.825h75.479c1.191 0 2.381-.073 3.563-.217l56.552-6.923c4.676-.572 9.38-.859 14.089-.859h37.306z" fill="#24241e"/><linearGradient id="a" gradientUnits="userSpaceOnUse" x1="41.26" y1="281.417" x2="456.327" y2="281.417"><stop offset="0" stop-color="#24241e"/><stop offset=".136" stop-color="#292922"/><stop offset=".89" stop-color="#292922"/><stop offset="1" stop-color="#24241e"/></linearGradient><path fill="url(#a)" d="M40.682 129.5l-5.422 272 217.171 31.833L459.574 401.5l-2.846-272z"/><path fill="none" stroke="#1a1a16" stroke-width="3" stroke-miterlimit="10" d="M380.703 0v26H114.131V0"/><ellipse transform="rotate(-17.794 54.536 459.94)" cx="54.545" cy="459.982" rx="26.309" ry="26.676" fill="#2b2b2b"/><ellipse cx="53.828" cy="459.333" rx="25.633" ry="26" fill="#080605"/><ellipse cx="53.828" cy="459.333" rx="21.702" ry="22.013" fill="#414242"/><ellipse transform="matrix(1 -.0091 .0091 1 -4.176 .508)" cx="53.664" cy="458.52" rx="20.704" ry="20.91" fill="#939494"/><ellipse cx="53.828" cy="459.333" rx="20.704" ry="21" fill="#626363"/><ellipse cx="248.705" cy="465.479" rx="4.955" ry="5.172" fill="#262624"/><path fill="none" stroke="#171717" stroke-width="3" stroke-miterlimit="10" d="M383.168 0v99H111.667V0"/><path fill="#24241e" d="M111.667 0h2.465v99h-2.465zM380.703 0h2.465v99h-2.465z"/><path d="M382.79 410.195c4.02-.646 7.443-2.579 9.718-5.425-45.501 2.02-104.526 4.23-145.09 4.23-39.773 0-97.297-2.124-142.416-4.111 2.274 2.78 5.655 4.67 9.619 5.307 23.804 3.824 77.588 11.305 134.085 11.305 56.495-.001 110.28-7.482 134.084-11.306z" fill="none" stroke="#363633" stroke-width="2" stroke-miterlimit="10"/><path d="M104.732 135.345l-2.783 260.627c-.082 7.562 5.307 13.039 12.671 14.223 23.804 3.824 77.588 11.305 134.085 11.305s110.281-7.481 134.085-11.305c7.364-1.183 12.753-6.66 12.671-14.223l-2.783-260.627C352.321 137.725 248.705 140 248.705 140s-103.616-2.275-143.973-4.655z" fill="none" stroke="#30302d" stroke-width="4" stroke-miterlimit="10"/><path d="M104.732 135.345l-2.783 260.627c-.082 7.562 5.307 13.039 12.671 14.223 23.804 3.824 77.588 11.305 134.085 11.305s110.281-7.481 134.085-11.305c7.364-1.183 12.753-6.66 12.671-14.223l-2.783-260.627C352.321 137.725 248.705 140 248.705 140s-103.616-2.275-143.973-4.655z" fill="none" stroke="#1c1c1a" stroke-width="2" stroke-miterlimit="10"/><path d="M248.705 140s113.87-2.5 149.362-5 36.478-5.5 58.661-5.5H40.682c22.183 0 23.168 3 58.661 5.5s149.362 5 149.362 5z" fill="#2e2e29"/><linearGradient id="b" gradientUnits="userSpaceOnUse" x1="247.417" y1="43.5" x2="247.417" y2="27.968"><stop offset=".527" stop-color="#181a14"/><stop offset=".805" stop-color="#1c1e18"/><stop offset="1" stop-color="#24241e"/></linearGradient><path fill="url(#b)" d="M380.703 40.6l1.232-13.523H112.899l1.232 13.523z"/><path fill="#303030" d="M112.899 26h269.036v1.077H112.899z"/><linearGradient id="c" gradientUnits="userSpaceOnUse" x1="247.417" y1="56" x2="247.417" y2="41.363"><stop offset=".527" stop-color="#181a14"/><stop offset=".805" stop-color="#1c1e18"/><stop offset="1" stop-color="#24241e"/></linearGradient><path fill="url(#c)" d="M380.703 55.2l1.232-13.523H112.899l1.232 13.523z"/><path fill="#303030" d="M112.899 40.6h269.036v1.077H112.899z"/><linearGradient id="d" gradientUnits="userSpaceOnUse" x1="247.417" y1="72.5" x2="247.417" y2="56.306"><stop offset=".527" stop-color="#181a14"/><stop offset=".805" stop-color="#1c1e18"/><stop offset="1" stop-color="#24241e"/></linearGradient><path fill="url(#d)" d="M380.703 69.8l1.232-13.523H112.899l1.232 13.523z"/><path fill="#303030" d="M112.899 55.2h269.036v1.077H112.899z"/><linearGradient id="e" gradientUnits="userSpaceOnUse" x1="247.417" y1="87.5" x2="247.417" y2="72.425"><stop offset=".527" stop-color="#181a14"/><stop offset=".805" stop-color="#1c1e18"/><stop offset="1" stop-color="#24241e"/></linearGradient><path fill="url(#e)" d="M380.703 84.4l1.232-13.523H112.899l1.232 13.523z"/><path fill="#303030" d="M112.899 69.8h269.036v1.077H112.899z"/><linearGradient id="f" gradientUnits="userSpaceOnUse" x1="247.417" y1="104" x2="247.417" y2="86"><stop offset=".527" stop-color="#181a14"/><stop offset=".805" stop-color="#1c1e18"/><stop offset="1" stop-color="#24241e"/></linearGradient><path fill="url(#f)" d="M380.703 99l1.232-13.523H112.899L114.131 99z"/><path fill="#303030" d="M112.899 84.4h269.036v1.077H112.899z"/><linearGradient id="g" gradientUnits="userSpaceOnUse" x1="105.001" y1="454.885" x2="392.507" y2="454.885"><stop offset="0" stop-color="#24241e"/><stop offset=".13" stop-color="#1c1e1a"/><stop offset=".5" stop-color="#292922"/><stop offset=".87" stop-color="#1c1e1a"/><stop offset="1" stop-color="#24241e"/></linearGradient><path d="M105.002 404.77c2.274 2.78 5.655 4.788 9.619 5.425 23.804 3.824 77.588 11.305 134.085 11.305 56.496 0 110.281-7.481 134.085-11.305 4.02-.646 7.443-2.579 9.718-5.425V505h-32.291c-1.191 0-2.381-.073-3.563-.217l-56.552-6.923c-4.676-.572-9.38-.859-14.089-.859H211.4c-4.709 0-9.413.287-14.089.859l-56.552 6.923a29.263 29.263 0 0 1-3.563.217h-32.192V404.77z" fill="url(#g)"/><path d="M248.705 453.5s47.742 1 78.774-8.226 39.387-14.613 59.677-20.484 71.161-22.29 71.161-22.29-140.387 3-209.613 3-210.613-3-210.613-3 51.871 16.419 72.161 22.29 28.645 11.258 59.677 20.484 78.776 8.226 78.776 8.226z" fill="#191c16"/><g fill="#898a8a"><path d="M42.096 457.13c.357 0 .661.052.912.156.25.104.455.241.612.412.157.17.272.365.344.584a2.16 2.16 0 0 1 0 1.356c-.072.222-.187.417-.344.588s-.361.309-.612.412a2.381 2.381 0 0 1-.912.156h-1.32v2.048H39.52v-5.56a.15.15 0 0 1 .151-.151h2.425zm-.344 2.688c.144 0 .282-.01.416-.031a.975.975 0 0 0 .352-.124.669.669 0 0 0 .244-.261c.062-.111.092-.258.092-.439s-.031-.328-.092-.44a.687.687 0 0 0-.244-.26.95.95 0 0 0-.352-.124 2.677 2.677 0 0 0-.416-.032h-.976v1.712h.976zM44.8 458.823c.128-.365.312-.685.552-.956.24-.272.535-.485.884-.641a2.896 2.896 0 0 1 1.18-.231c.443 0 .837.077 1.184.231.347.155.64.368.88.641.24.271.424.591.552.956s.192.761.192 1.188c0 .416-.064.804-.192 1.164s-.312.674-.552.94a2.53 2.53 0 0 1-.88.628 2.938 2.938 0 0 1-1.184.228c-.437 0-.831-.076-1.18-.228a2.518 2.518 0 0 1-.884-.628c-.24-.267-.424-.58-.552-.94s-.192-.748-.192-1.164c0-.428.064-.823.192-1.188zm1.148 1.887c.056.227.145.431.268.612.123.181.283.326.48.436s.437.164.72.164.523-.055.72-.164.357-.255.48-.436c.123-.182.212-.386.268-.612s.084-.46.084-.7c0-.251-.028-.493-.084-.728a1.954 1.954 0 0 0-.268-.629c-.123-.184-.283-.33-.48-.439s-.438-.164-.72-.164-.522.055-.72.164-.357.256-.48.439a1.932 1.932 0 0 0-.268.629 3.12 3.12 0 0 0 0 1.428zM55.272 462.842l-.968-3.888h-.016l-.923 3.772a.15.15 0 0 1-.147.115h-1.037a.15.15 0 0 1-.146-.113l-1.482-5.599h1.256l.904 3.888h.016l.992-3.888h1.176l.976 3.936h.016l.936-3.936h1.232l-1.536 5.712h-1.249zM62.904 457.13v1.056h-3.016v1.225h2.768v.976h-2.768v1.4h3.08v1.056h-4.185a.15.15 0 0 1-.151-.151v-5.409a.15.15 0 0 1 .151-.151h4.121zM66.896 457.13c.256 0 .487.041.692.124.205.083.381.196.528.34.146.145.259.311.336.5s.116.394.116.612c0 .336-.071.627-.212.872-.141.245-.372.432-.692.56v.016a.969.969 0 0 1 .632.509c.064.12.11.252.14.396.029.145.049.288.06.433.005.09.011.197.016.319.005.123.015.248.028.376s.035.25.064.364.073.212.132.292H67.48a2.228 2.228 0 0 1-.128-.648c-.016-.25-.04-.49-.072-.72-.043-.299-.133-.517-.272-.656s-.366-.208-.68-.208h-1.256v2.232h-1.256v-5.56a.15.15 0 0 1 .151-.151h2.929zm-.448 2.584c.288 0 .504-.064.648-.192s.216-.336.216-.624c0-.277-.072-.479-.216-.604s-.36-.188-.648-.188h-1.376v1.608h1.376z"/></g><g><path d="M41.92 456.955c.357 0 .661.052.912.156.25.104.455.241.612.412.157.17.272.365.344.584a2.16 2.16 0 0 1 0 1.356c-.072.222-.187.417-.344.588s-.361.309-.612.412a2.381 2.381 0 0 1-.912.156H40.6v2.048h-1.256v-5.56a.15.15 0 0 1 .151-.151h2.425zm-.344 2.688c.144 0 .282-.01.416-.031a.975.975 0 0 0 .352-.124.669.669 0 0 0 .244-.261c.062-.111.092-.258.092-.439s-.031-.328-.092-.44a.687.687 0 0 0-.244-.26.95.95 0 0 0-.352-.124 2.677 2.677 0 0 0-.416-.032H40.6v1.712h.976zM44.624 458.647c.128-.365.312-.685.552-.956.24-.272.535-.485.884-.641a2.896 2.896 0 0 1 1.18-.231c.443 0 .837.077 1.184.231.347.155.64.368.88.641.24.271.424.591.552.956s.192.761.192 1.188c0 .416-.064.804-.192 1.164s-.312.674-.552.94a2.53 2.53 0 0 1-.88.628 2.938 2.938 0 0 1-1.184.228c-.437 0-.831-.076-1.18-.228a2.518 2.518 0 0 1-.884-.628c-.24-.267-.424-.58-.552-.94s-.192-.748-.192-1.164c0-.427.064-.822.192-1.188zm1.148 1.888c.056.227.145.431.268.612.123.181.283.326.48.436s.437.164.72.164.523-.055.72-.164.357-.255.48-.436c.123-.182.212-.386.268-.612s.084-.46.084-.7c0-.251-.028-.493-.084-.728a1.954 1.954 0 0 0-.268-.629c-.123-.184-.283-.33-.48-.439s-.438-.164-.72-.164-.522.055-.72.164-.357.256-.48.439a1.932 1.932 0 0 0-.268.629 3.12 3.12 0 0 0 0 1.428zM55.096 462.667l-.968-3.888h-.016l-.923 3.772a.15.15 0 0 1-.147.115h-1.037a.15.15 0 0 1-.146-.113l-1.482-5.599h1.256l.904 3.888h.016l.992-3.888h1.176l.976 3.936h.016l.936-3.936h1.232l-1.536 5.712h-1.249zM62.728 456.955v1.056h-3.016v1.225h2.768v.976h-2.768v1.4h3.08v1.056h-4.185a.15.15 0 0 1-.151-.151v-5.409a.15.15 0 0 1 .151-.151h4.121zM66.72 456.955c.256 0 .487.041.692.124.205.083.381.196.528.34.146.145.259.311.336.5s.116.394.116.612c0 .336-.071.627-.212.872-.141.245-.372.432-.692.56v.016a.969.969 0 0 1 .632.509c.064.12.11.252.14.396.029.145.049.288.06.433.005.09.011.197.016.319.005.123.015.248.028.376s.035.25.064.364.073.212.132.292h-1.256a2.228 2.228 0 0 1-.128-.648c-.016-.25-.04-.49-.072-.72-.043-.299-.133-.517-.272-.656s-.366-.208-.68-.208h-1.256v2.232H63.64v-5.56a.15.15 0 0 1 .151-.151h2.929zm-.448 2.584c.288 0 .504-.064.648-.192s.216-.336.216-.624c0-.277-.072-.479-.216-.604s-.36-.188-.648-.188h-1.376v1.608h1.376z" fill="#535454"/></g><ellipse cx="248.705" cy="465.333" rx="4.955" ry="5.026" fill="#111110"/><path d="M248.705 469.327c-2.175 0-3.944-1.792-3.944-3.994s1.77-3.993 3.944-3.993 3.944 1.791 3.944 3.993-1.769 3.994-3.944 3.994z" fill="#a72323"/><ellipse cx="248.705" cy="465.333" rx="3.444" ry="3.494" fill="#ff674e"/><g><path d="M248.705 420.53c-55.414 0-107.757-7.08-134.025-11.3-7.467-1.2-12.433-6.766-12.356-13.849l2.778-260.234c40.179 2.345 142.562 4.609 143.595 4.632 1.049-.023 103.432-2.288 143.61-4.632l2.778 260.234c.077 7.083-4.889 12.648-12.355 13.849-26.268 4.219-78.61 11.3-134.025 11.3z" fill="#292922"/><path d="M105.473 135.545c40.456 2.337 142.186 4.587 143.248 4.61 1.03-.023 102.759-2.273 143.215-4.61l2.774 259.841c.075 6.89-4.764 12.305-12.04 13.474-26.258 4.218-78.579 11.295-133.966 11.295s-107.708-7.077-133.966-11.295c-7.276-1.169-12.115-6.584-12.04-13.474l2.775-259.841m287.205-.795c-40.357 2.38-143.973 4.655-143.973 4.655s-103.616-2.275-143.973-4.655l-2.783 260.627c-.082 7.562 5.307 13.039 12.671 14.223 23.804 3.824 77.588 11.305 134.085 11.305s110.281-7.481 134.085-11.305c7.364-1.183 12.753-6.66 12.671-14.223l-2.783-260.627z" fill="#21211d"/></g><g><ellipse cx="234.841" cy="385.25" rx="1.655" ry="1.675" fill="#404038"/><path d="M234.841 383.875c.749 0 1.356.616 1.356 1.375s-.607 1.375-1.356 1.375c-.749 0-1.356-.616-1.356-1.375s.607-1.375 1.356-1.375m0-.6c-1.078 0-1.956.886-1.956 1.975s.877 1.975 1.956 1.975c1.078 0 1.956-.886 1.956-1.975s-.878-1.975-1.956-1.975z" fill="#1a1a17"/><path d="M244.084 386.925c-.913 0-1.656-.751-1.656-1.675s.743-1.675 1.656-1.675 1.655.751 1.655 1.675-.742 1.675-1.655 1.675z" fill="#404038"/><path d="M244.084 383.875c.749 0 1.356.616 1.356 1.375s-.607 1.375-1.356 1.375-1.356-.616-1.356-1.375.607-1.375 1.356-1.375m0-.6c-1.078 0-1.956.886-1.956 1.975s.877 1.975 1.956 1.975 1.956-.886 1.956-1.975-.878-1.975-1.956-1.975z" fill="#1a1a17"/><ellipse cx="253.326" cy="385.25" rx="1.655" ry="1.675" fill="#404038"/><path d="M253.326 383.875c.749 0 1.356.616 1.356 1.375s-.607 1.375-1.356 1.375c-.749 0-1.356-.616-1.356-1.375s.608-1.375 1.356-1.375m0-.6c-1.078 0-1.956.886-1.956 1.975s.877 1.975 1.956 1.975 1.956-.886 1.956-1.975-.877-1.975-1.956-1.975z" fill="#1a1a17"/><ellipse cx="262.569" cy="385.25" rx="1.655" ry="1.675" fill="#404038"/><path d="M262.569 383.875c.749 0 1.356.616 1.356 1.375s-.607 1.375-1.356 1.375c-.749 0-1.356-.616-1.356-1.375s.607-1.375 1.356-1.375m0-.6c-1.078 0-1.956.886-1.956 1.975s.877 1.975 1.956 1.975c1.078 0 1.956-.886 1.956-1.975s-.878-1.975-1.956-1.975z" fill="#1a1a17"/><g><ellipse cx="234.841" cy="394.625" rx="1.655" ry="1.675" fill="#404038"/><path d="M234.841 393.25c.749 0 1.356.616 1.356 1.375S235.59 396 234.841 396c-.749 0-1.356-.616-1.356-1.375s.607-1.375 1.356-1.375m0-.6c-1.078 0-1.956.886-1.956 1.975s.877 1.975 1.956 1.975c1.078 0 1.956-.886 1.956-1.975s-.878-1.975-1.956-1.975z" fill="#1a1a17"/></g><g><path d="M244.084 396.3c-.913 0-1.656-.751-1.656-1.675s.743-1.675 1.656-1.675 1.655.751 1.655 1.675-.742 1.675-1.655 1.675z" fill="#404038"/><path d="M244.084 393.25c.749 0 1.356.616 1.356 1.375s-.608 1.375-1.356 1.375-1.356-.616-1.356-1.375.607-1.375 1.356-1.375m0-.6c-1.078 0-1.956.886-1.956 1.975s.877 1.975 1.956 1.975 1.956-.886 1.956-1.975-.878-1.975-1.956-1.975z" fill="#1a1a17"/></g><g><ellipse cx="253.326" cy="394.625" rx="1.655" ry="1.675" fill="#404038"/><path d="M253.326 393.25c.749 0 1.356.616 1.356 1.375s-.607 1.375-1.356 1.375c-.749 0-1.356-.616-1.356-1.375s.608-1.375 1.356-1.375m0-.6c-1.078 0-1.956.886-1.956 1.975s.877 1.975 1.956 1.975 1.956-.886 1.956-1.975-.877-1.975-1.956-1.975z" fill="#1a1a17"/></g><g><ellipse cx="262.569" cy="394.625" rx="1.655" ry="1.675" fill="#404038"/><path d="M262.569 393.25c.749 0 1.356.616 1.356 1.375s-.607 1.375-1.356 1.375c-.749 0-1.356-.616-1.356-1.375s.607-1.375 1.356-1.375m0-.6c-1.078 0-1.956.886-1.956 1.975s.877 1.975 1.956 1.975c1.078 0 1.956-.886 1.956-1.975s-.878-1.975-1.956-1.975z" fill="#1a1a17"/></g></g><g><g fill-rule="evenodd" clip-rule="evenodd" fill="#fffdbe"><path d="M239.814 264.574v3.362h-10.099c-.474 0-1.057-.093-1.33.082-.212.133-.283.568-.011.747.179.121.665.085 1.022.085h5.511c.725 0 1.523-.046 2.115.083 1.181.255 2.038.938 2.495 1.911a4.19 4.19 0 0 1 .392 1.82c0 2.077-1.105 3.37-2.851 3.751-.598.131-1.367.085-2.126.085-3.656 0-7.319-.022-11-.013v-3.362h5.868c1.335 0 2.936.011 4.396.011.411 0 1.103.069 1.379-.083a.478.478 0 0 0 .188-.593c-.155-.385-1.111-.25-1.674-.25h-5.69c-.469 0-.941.019-1.364-.048-1.583-.24-2.665-1.184-3.006-2.67-.186-.812-.128-1.779.129-2.496a3.66 3.66 0 0 1 1.188-1.649 3.67 3.67 0 0 1 2.102-.787c1.029-.048 2.071 0 3.1 0 3.069 0 6.153.026 9.266.014zM240.313 264.56h3.588c.169 0 .39-.035.534 0 .115.031.403.352.499.44.175.159.327.33.477.464 2.25 2.077 4.499 4.364 6.71 6.379v-7.283h4.169v11.95h-3.599c-.166 0-.362.027-.511 0-.149-.026-.369-.296-.512-.426-.487-.447-.982-.946-1.437-1.378-1.922-1.826-3.858-3.713-5.758-5.477v7.281h-4.172v-11.913c-.002-.016-.002-.034.012-.037zM256.885 264.56h4.11c.004 1.813-.011 3.647.012 5.442.059.005.126-.076.19-.132 1.883-1.632 3.723-3.319 5.62-4.978.111-.098.287-.306.39-.333.184-.043.471 0 .713 0h4.906c.026.052-.047.066-.07.085-2.253 1.868-4.617 3.703-6.877 5.572 2.374 1.963 4.78 3.927 7.161 5.904.155.126.333.228.451.39h-5.142c-.248 0-.529.043-.724 0-.136-.026-.302-.264-.429-.379a30.599 30.599 0 0 1-1.245-1.178c-1.618-1.613-3.338-3.156-4.944-4.716-.022 2.069-.008 4.177-.012 6.263-1.374 0-2.762-.008-4.122.011v-11.913c0-.017 0-.035.012-.038z"/></g><path d="M231.771 302.913a2.32 2.32 0 0 0-1.703.701 2.315 2.315 0 0 0-.701 1.703c0 .658.233 1.221.701 1.689a2.32 2.32 0 0 0 1.703.701c.657 0 1.221-.234 1.688-.701a2.3 2.3 0 0 0 .702-1.689c0-.668-.234-1.235-.702-1.703a2.303 2.303 0 0 0-1.688-.701zm45.759-5.864c-2.476-.099-4.563.682-6.258 2.344-1.697 1.662-2.545 3.738-2.545 6.228 0 2.219.652 4.136 1.956 5.753 1.651 2.045 3.987 3.068 7.008 3.068 3.012 0 5.344-1.072 6.995-3.216 1.246-1.616 1.869-3.489 1.869-5.616 0-2.49-.836-4.564-2.507-6.222-1.671-1.659-3.843-2.438-6.518-2.339zm3.943 13.314c-.403 1.159-.968 2.002-1.694 2.529-.569.413-1.276.618-2.125.618-1.261 0-2.241-.478-2.942-1.435-1.005-1.368-1.508-3.483-1.508-6.344 0-2.408.325-4.254.977-5.54.799-1.567 1.965-2.35 3.498-2.35.832 0 1.567.227 2.206.68.638.454 1.163 1.23 1.575 2.331.412 1.101.618 2.76.618 4.978.001 1.864-.201 3.375-.605 4.533zm-28.028-3.33h-8.161v.435h.432c.403 0 .746.08 1.03.238.285.158.471.335.562.53.09.196.136.627.136 1.292v3.494a8.707 8.707 0 0 1-1.301.377c-.424.087-.837.13-1.239.13-1.159 0-2.16-.285-3.003-.854s-1.452-1.46-1.831-2.672c-.378-1.212-.567-2.623-.567-4.231 0-1.328.174-2.622.521-3.884.346-1.262.938-2.245 1.771-2.95.834-.705 1.879-1.058 3.134-1.058 1.313 0 2.523.421 3.629 1.263 1.107.842 1.937 2.072 2.491 3.689h.435v-5.923h-.435c-.165.476-.347.8-.546.971a.968.968 0 0 1-.644.257c-.148 0-.63-.155-1.444-.465-.814-.31-1.402-.498-1.766-.565a11.713 11.713 0 0 0-2.256-.198c-2.693 0-4.928.87-6.704 2.608-1.777 1.739-2.664 3.868-2.664 6.39 0 1.409.289 2.682.866 3.82a8.049 8.049 0 0 0 1.887 2.379 9.933 9.933 0 0 0 2.784 1.706c1.052.432 2.375.648 3.967.648a17.68 17.68 0 0 0 3.607-.362c1.159-.242 2.275-.6 3.348-1.076v-3.494c0-.616.037-1.003.111-1.162.131-.299.318-.514.56-.643.243-.129.673-.214 1.289-.256v-.434zm-34.053-9.984c-2.477-.099-4.563.682-6.259 2.344-1.697 1.662-2.544 3.738-2.544 6.228 0 2.219.651 4.136 1.956 5.753 1.651 2.045 3.987 3.068 7.007 3.068 3.013 0 5.345-1.072 6.996-3.216 1.246-1.616 1.87-3.489 1.87-5.616 0-2.49-.836-4.564-2.507-6.222-1.673-1.659-3.845-2.438-6.519-2.339zm3.942 13.314c-.404 1.159-.968 2.002-1.693 2.529-.569.413-1.277.618-2.125.618-1.262 0-2.242-.478-2.942-1.435-1.006-1.368-1.508-3.483-1.508-6.344 0-2.408.325-4.254.976-5.54.8-1.567 1.966-2.35 3.498-2.35.832 0 1.567.227 2.206.68.639.454 1.163 1.23 1.576 2.331.412 1.101.618 2.76.618 4.978 0 1.864-.202 3.375-.606 4.533zm42.213 1.703c-.944.725-2.2 1.088-3.766 1.088h-1.002c-.478 0-.825-.065-1.039-.198a1.018 1.018 0 0 1-.439-.507c-.079-.206-.117-.772-.117-1.697v-4.73c.8 0 1.411.106 1.832.316.421.211.791.622 1.108 1.233.318.611.526 1.396.625 2.354h.476v-8.795h-.476c-.132 1.304-.437 2.291-.916 2.959-.479.669-1.25 1.003-2.315 1.003h-.334v-6.834h1.723c1.271 0 2.138.074 2.6.223.792.248 1.405.636 1.838 1.165.434.528.77 1.4 1.009 2.614h.476v-4.972h-14.045v.436h.556c.543 0 .971.117 1.283.35.222.159.375.383.457.675.041.175.062.646.062 1.412v11.054c0 .85-.046 1.374-.137 1.574-.114.283-.279.484-.494.6-.296.175-.687.262-1.172.262h-.556v.435h14.499l.755-5.336h-.456c-.412 1.485-1.091 2.59-2.035 3.316zm-58.138 0c-.945.725-2.2 1.088-3.767 1.088h-1.002c-.478 0-.824-.065-1.039-.198a1.013 1.013 0 0 1-.439-.507c-.078-.206-.118-.772-.118-1.697v-4.73c.801 0 1.412.106 1.833.316.421.211.791.622 1.108 1.233.317.611.526 1.396.626 2.354h.475v-8.795h-.475c-.133 1.304-.438 2.291-.917 2.959-.479.669-1.251 1.003-2.315 1.003h-.335v-6.834h1.724c1.271 0 2.137.074 2.6.223.793.248 1.405.636 1.839 1.165.433.528.769 1.4 1.009 2.614h.475v-4.972h-19.303v.436c.936-.016 1.604.216 2.002.698.289.357.435 1.043.435 2.056v7.203l-8.251-10.392h-5.952v.436c.512.017.904.097 1.176.24.272.143.586.442.941.897l.358.444v11.849c0 .903-.181 1.543-.545 1.919-.363.377-1.007.569-1.931.577v.435h5.963v-.435h-.396a2.4 2.4 0 0 1-1.516-.514c-.442-.343-.662-1.004-.662-1.982v-10.688l11.309 13.996h.418v-13.985c0-.797.068-1.36.204-1.688.137-.328.326-.565.568-.71.243-.146.719-.264 1.427-.355h.266c.543 0 .971.117 1.284.35.223.159.375.383.457.675.041.175.062.646.062 1.412v11.054c0 .85-.046 1.374-.135 1.574-.116.283-.28.484-.494.6-.296.175-.688.262-1.173.262h-.555v.435h14.498l.755-5.336h-.456c-.414 1.484-1.093 2.589-2.036 3.315zm104.788-13.44c-.543-.235-1.444-.348-2.704-.341v12.382c0 .637.03 1.027.091 1.171.06.144.162.254.305.329.204.113.498.17.882.17 1.259 0 2.22-.431 2.885-1.294.905-1.167 1.357-3.132 1.357-5.586 0-1.977-.31-3.556-.928-4.738-.489-.925-1.119-1.76-1.888-2.093zm.93 12.005c-.537.698-1.306 1.036-2.355 1.036-.374 0-.52-.065-.556-.086a.045.045 0 0 0-.01-.005c-.012-.072-.042-.3-.042-.909v-11.702c.995.035 1.508.164 1.767.276.631.274 1.143.998 1.564 1.792.563 1.077.848 2.566.848 4.424 0 2.29-.409 4.134-1.216 5.174zm5.513-9.793c-.776-1.362-1.926-2.598-3.421-3.268-1.202-.537-2.785-.791-4.708-.791l-6.936-.002h-1.69l-.079.579c-.045.327-.131.434-.156.459-.056.056-.098.068-.15.069-.038-.004-.271-.042-1.09-.361-1.276-.496-2.51-.747-3.669-.747a9.122 9.122 0 0 0-4.484 1.174 8.811 8.811 0 0 0-3.361 3.312c-.825 1.413-1.243 2.932-1.243 4.513 0 1.502.378 2.937 1.124 4.266a7.667 7.667 0 0 0 3.226 3.104c1.365.705 2.94 1.062 4.681 1.062 1.334 0 2.525-.223 3.54-.663 1.011-.439 1.991-1.149 2.912-2.112l.186-.195v-3.405l-1.178 1.371c-.832.968-1.621 1.652-2.346 2.034a4.973 4.973 0 0 1-2.342.558c-1.019 0-1.848-.244-2.463-.726-.627-.489-1.098-1.241-1.403-2.233-.326-1.06-.491-2.26-.491-3.564 0-1.304.222-2.499.662-3.555a4.136 4.136 0 0 1 1.516-1.873 3.86 3.86 0 0 1 2.257-.71c.996 0 1.864.315 2.654.963.785.644 1.333 1.601 1.63 2.844l.123.515h1.636v-4.955h.562c.382 0 .583.071.684.131.169.1.213.175.223.199.012.041.074.653.074 1.594v10.133c0 .844-.039 1.116-.055 1.19a.62.62 0 0 1-.245.255c-.074.044-.261.118-.681.118h-1.179v1.74h7.553c1.043 0 1.797-.049 2.307-.148 1.095-.207 2.044-.507 2.818-.893a7.306 7.306 0 0 0 2.102-1.574c.608-.655 1.108-1.488 1.485-2.478.376-.984.566-2.225.566-3.385-.003-1.678-.389-3.207-1.151-4.545zm-15.735 1.948h-.435c-.333-1.395-.951-2.464-1.857-3.207-.906-.743-1.933-1.115-3.079-1.115-.959 0-1.838.276-2.638.828a4.831 4.831 0 0 0-1.755 2.167c-.475 1.143-.713 2.413-.713 3.812 0 1.377.173 2.63.521 3.761.347 1.131.891 1.985 1.63 2.564.74.579 1.699.868 2.876.868.965 0 1.85-.211 2.654-.635.804-.424 1.651-1.154 2.542-2.19v1.328c-.862.901-1.76 1.555-2.695 1.961-.933.405-2.025.608-3.273.608-1.641 0-3.099-.329-4.373-.987a6.978 6.978 0 0 1-2.949-2.837 7.92 7.92 0 0 1-1.038-3.937c0-1.467.383-2.859 1.151-4.175a8.121 8.121 0 0 1 3.108-3.064 8.42 8.42 0 0 1 4.158-1.089c1.081 0 2.223.234 3.426.701.696.271 1.138.407 1.327.407a.86.86 0 0 0 .629-.265c.178-.177.293-.458.347-.842h.435v5.338zm15.691 5.743c-.348.912-.797 1.666-1.35 2.26a6.615 6.615 0 0 1-1.91 1.431c-.722.36-1.605.638-2.647.835-.462.09-1.188.136-2.178.136h-6.883v-.399h.509c.445 0 .786-.071 1.024-.212.237-.141.413-.334.526-.579.068-.16.102-.641.102-1.443v-10.133c0-.794-.042-1.651-.124-1.85-.083-.199-.251-.372-.504-.521-.252-.149-.594-.223-1.024-.223h-.509v-.399h6.883c1.837 0 3.315.25 4.433.75 1.368.613 2.406 1.747 3.113 2.988.707 1.242 1.06 2.646 1.06 4.213.001 1.082-.173 2.234-.521 3.146z" fill="#fffdbe"/><g fill="#fffdbe"><path d="M227.822 317.007c.277 0 .512.04.707.121.194.08.352.187.474.319s.211.282.267.452a1.703 1.703 0 0 1 0 1.05 1.225 1.225 0 0 1-.267.455c-.122.133-.28.239-.474.319-.194.081-.43.121-.707.121h-1.023v1.587h-.973v-4.426h1.996zm-.266 2.083a2.1 2.1 0 0 0 .322-.025.756.756 0 0 0 .273-.096.539.539 0 0 0 .189-.201.718.718 0 0 0 .071-.342.717.717 0 0 0-.071-.341.531.531 0 0 0-.189-.201.756.756 0 0 0-.273-.096 1.99 1.99 0 0 0-.322-.025h-.756v1.327h.756zM231.944 317.007c.198 0 .377.032.536.096.159.064.295.152.409.264.113.111.2.241.26.388.06.146.09.305.09.474 0 .261-.055.486-.165.676-.109.19-.288.335-.536.435v.012a.757.757 0 0 1 .49.393c.05.094.086.195.108.308.023.111.038.223.047.334l.012.248c.004.096.011.192.021.292.01.099.027.192.05.281a.649.649 0 0 0 .102.227h-.973a1.731 1.731 0 0 1-.099-.502 7.214 7.214 0 0 0-.056-.558c-.033-.231-.104-.401-.211-.509s-.283-.161-.527-.161h-.973v1.729h-.973v-4.426h2.388zm-.347 2.002c.223 0 .39-.05.502-.148.111-.1.167-.261.167-.483 0-.215-.056-.371-.167-.469-.112-.097-.279-.146-.502-.146h-1.066v1.246h1.066zM233.587 318.317c.099-.282.242-.529.428-.74s.414-.376.685-.496c.271-.12.575-.18.914-.18.343 0 .649.06.917.18s.496.285.682.496.329.458.428.74c.099.283.148.59.148.921 0 .322-.049.623-.148.902a2.162 2.162 0 0 1-.428.728 1.972 1.972 0 0 1-.682.487 2.276 2.276 0 0 1-.917.177c-.339 0-.644-.06-.914-.177a1.956 1.956 0 0 1-.685-.487 2.143 2.143 0 0 1-.428-.728 2.68 2.68 0 0 1-.149-.902c0-.331.05-.637.149-.921zm.89 1.463c.043.176.112.334.208.475s.219.253.372.338.339.127.558.127c.219 0 .405-.042.558-.127s.277-.197.372-.338c.095-.141.164-.299.208-.475a2.391 2.391 0 0 0 0-1.106 1.477 1.477 0 0 0-.208-.486c-.095-.143-.219-.256-.372-.341s-.339-.127-.558-.127c-.219 0-.405.042-.558.127s-.277.198-.372.341-.164.305-.208.486c-.043.183-.065.37-.065.564 0 .186.021.367.065.542zM239.816 319.362v.756h-1.866v-.756h1.866zM242.792 321.398a1.632 1.632 0 0 1-.639.134c-.339 0-.644-.06-.914-.177a1.956 1.956 0 0 1-.685-.487 2.143 2.143 0 0 1-.428-.728 2.68 2.68 0 0 1-.149-.902c0-.331.05-.638.149-.921.099-.282.242-.529.428-.74s.414-.376.685-.496c.271-.12.575-.18.914-.18.228 0 .447.034.66.103s.405.168.577.301c.171.132.313.295.425.489.111.194.18.417.205.67h-.93c-.058-.248-.169-.435-.334-.559a.976.976 0 0 0-.602-.186c-.219 0-.405.042-.558.127s-.277.198-.372.341-.164.305-.208.486c-.043.183-.065.37-.065.564 0 .186.021.367.065.542.043.176.112.334.208.475s.219.253.372.338.339.127.558.127c.323 0 .571-.081.747-.245.176-.163.278-.399.307-.709h-.979v-.726h1.859v2.393h-.62l-.099-.502c-.174.223-.366.38-.577.468zM247.782 317.007v.818h-2.337v.948h2.145v.756h-2.145v1.085h2.387v.818h-3.36v-4.426h3.31z"/><path d="M250.292 317.007l1.655 4.426h-1.01l-.335-.985h-1.655l-.347.985h-.979l1.673-4.426h.998zm.056 2.715l-.558-1.624h-.012l-.577 1.624h1.147z"/><path d="M254.315 317.007c.198 0 .377.032.536.096.159.064.295.152.409.264.113.111.2.241.26.388.06.146.09.305.09.474 0 .261-.055.486-.165.676-.109.19-.288.335-.536.435v.012a.757.757 0 0 1 .49.393c.05.094.086.195.108.308.023.111.038.223.047.334l.012.248c.004.096.011.192.021.292.01.099.027.192.05.281a.649.649 0 0 0 .102.227h-.973a1.731 1.731 0 0 1-.099-.502 7.214 7.214 0 0 0-.056-.558c-.033-.231-.104-.401-.211-.509s-.283-.161-.527-.161h-.973v1.729h-.973v-4.426h2.388zm-.347 2.002c.223 0 .39-.05.502-.148.111-.1.167-.261.167-.483 0-.215-.056-.371-.167-.469-.112-.097-.279-.146-.502-.146h-1.066v1.246h1.066zM258.065 320.342c.054.104.125.187.214.251s.193.111.313.143c.12.031.244.047.372.047.087 0 .18-.008.279-.022a.96.96 0 0 0 .279-.083.63.63 0 0 0 .217-.171.425.425 0 0 0 .087-.275.39.39 0 0 0-.115-.292c-.077-.074-.177-.136-.301-.186s-.265-.093-.421-.13a14.725 14.725 0 0 1-.478-.124c-.165-.042-.326-.093-.483-.152s-.297-.138-.421-.232-.224-.214-.301-.356a1.089 1.089 0 0 1-.115-.518c0-.228.049-.425.146-.592.097-.168.224-.307.381-.419.157-.111.335-.193.533-.248.198-.053.397-.08.595-.08.231 0 .454.025.667.077.212.052.402.136.567.251.166.116.296.264.394.443s.146.398.146.654h-.942a.79.79 0 0 0-.083-.329.563.563 0 0 0-.189-.204.77.77 0 0 0-.27-.105 1.636 1.636 0 0 0-.332-.031c-.079 0-.157.009-.235.025a.623.623 0 0 0-.214.087.54.54 0 0 0-.158.154.415.415 0 0 0-.062.236c0 .086.017.156.05.21a.437.437 0 0 0 .195.149c.097.045.231.091.403.136.171.046.396.104.672.174.083.017.197.047.344.09.146.044.292.112.437.208.145.095.27.222.375.381.105.159.158.362.158.61 0 .203-.039.391-.118.564s-.195.323-.35.449-.347.225-.577.295c-.229.07-.495.105-.796.105-.244 0-.48-.03-.71-.09-.229-.061-.432-.154-.607-.282s-.315-.292-.418-.49a1.454 1.454 0 0 1-.148-.706h.942a.8.8 0 0 0 .078.378zM262.937 317.007c.277 0 .512.04.707.121.194.08.352.187.474.319s.211.282.267.452a1.703 1.703 0 0 1 0 1.05 1.225 1.225 0 0 1-.267.455c-.122.133-.28.239-.474.319-.194.081-.43.121-.707.121h-1.023v1.587h-.973v-4.426h1.996zm-.266 2.083a2.1 2.1 0 0 0 .322-.025.756.756 0 0 0 .273-.096.539.539 0 0 0 .189-.201.718.718 0 0 0 .071-.342.717.717 0 0 0-.071-.341.531.531 0 0 0-.189-.201.756.756 0 0 0-.273-.096 1.99 1.99 0 0 0-.322-.025h-.756v1.327h.756zM267.983 317.007v.818h-2.337v.948h2.145v.756h-2.145v1.085h2.387v.818h-3.36v-4.426h3.31zM271.126 318.188a.973.973 0 0 0-.511-.409 1.015 1.015 0 0 0-.344-.059c-.219 0-.405.042-.558.127-.153.085-.277.198-.372.341s-.164.305-.208.486c-.043.183-.065.37-.065.564 0 .186.021.367.065.542.043.176.112.334.208.475s.219.253.372.338c.153.085.339.127.558.127.298 0 .53-.091.698-.272.167-.182.27-.422.307-.72h.942a2.26 2.26 0 0 1-.192.75 1.744 1.744 0 0 1-1.004.93 2.193 2.193 0 0 1-.75.124c-.339 0-.644-.06-.914-.177a1.956 1.956 0 0 1-.685-.487 2.143 2.143 0 0 1-.428-.728 2.68 2.68 0 0 1-.149-.902c0-.331.05-.638.149-.921.099-.282.242-.529.428-.74s.414-.376.685-.496c.271-.12.575-.18.914-.18.244 0 .475.035.691.105s.411.173.583.307a1.686 1.686 0 0 1 .635 1.181h-.942a.812.812 0 0 0-.113-.306zM199.082 324.007l1.655 4.426h-1.01l-.335-.985h-1.655l-.347.985h-.979l1.673-4.426h.998zm.056 2.715l-.558-1.624h-.012l-.577 1.624h1.147z"/><path d="M202.627 324.007c.285 0 .551.045.796.137.246.091.459.227.639.408.18.183.32.409.421.683.101.272.152.593.152.961 0 .322-.041.619-.124.893a1.975 1.975 0 0 1-.375.706 1.762 1.762 0 0 1-.626.468 2.11 2.11 0 0 1-.883.171h-1.909v-4.426h1.909zm-.068 3.607c.141 0 .277-.022.409-.068a.897.897 0 0 0 .354-.226c.103-.105.186-.243.248-.412a1.82 1.82 0 0 0 .093-.62c0-.224-.021-.425-.065-.604s-.115-.334-.214-.462-.23-.227-.394-.295a1.598 1.598 0 0 0-.604-.102h-.694v2.789h.867zM205.87 328.433l-1.432-4.426h.998l.986 3.111h.012l.998-3.111h1.004l-1.469 4.426h-1.097zM210.332 324.007l1.655 4.426h-1.01l-.335-.985h-1.655l-.347.985h-.979l1.673-4.426h.998zm.056 2.715l-.558-1.624h-.012l-.577 1.624h1.147z"/><path d="M212.936 324.007l1.848 2.969h.012v-2.969h.911v4.426h-.973l-1.841-2.963h-.013v2.963h-.911v-4.426h.967zM218.998 325.188a.973.973 0 0 0-.511-.409 1.015 1.015 0 0 0-.344-.059c-.219 0-.405.042-.558.127s-.277.198-.372.341-.164.305-.208.486c-.043.183-.065.37-.065.564 0 .186.021.367.065.542.043.176.112.334.208.475s.219.253.372.338.339.127.558.127c.298 0 .53-.091.698-.272.167-.182.27-.422.307-.72h.942a2.26 2.26 0 0 1-.192.75 1.744 1.744 0 0 1-1.004.93 2.193 2.193 0 0 1-.75.124c-.339 0-.644-.06-.914-.177a1.956 1.956 0 0 1-.685-.487 2.143 2.143 0 0 1-.428-.728 2.68 2.68 0 0 1-.149-.902c0-.331.05-.638.149-.921.099-.282.242-.529.428-.74s.414-.376.685-.496c.271-.12.575-.18.914-.18.244 0 .475.035.691.105s.411.173.583.307a1.686 1.686 0 0 1 .635 1.181h-.942a.812.812 0 0 0-.113-.306zM223.66 324.007v.818h-2.337v.948h2.145v.756h-2.145v1.085h2.387v.818h-3.36v-4.426h3.31zM225.873 324.007c.285 0 .551.045.796.137.246.091.459.227.639.408.18.183.32.409.421.683.101.272.152.593.152.961 0 .322-.041.619-.124.893a1.975 1.975 0 0 1-.375.706 1.762 1.762 0 0 1-.626.468 2.11 2.11 0 0 1-.883.171h-1.909v-4.426h1.909zm-.069 3.607c.141 0 .277-.022.409-.068a.897.897 0 0 0 .354-.226c.103-.105.186-.243.248-.412a1.82 1.82 0 0 0 .093-.62c0-.224-.021-.425-.065-.604s-.115-.334-.214-.462-.23-.227-.394-.295a1.598 1.598 0 0 0-.604-.102h-.694v2.789h.867zM232.784 324.007v.818h-2.337v.948h2.145v.756h-2.145v1.085h2.387v.818h-3.36v-4.426h3.31zM234.055 324.007l1.848 2.969h.012v-2.969h.911v4.426h-.973l-1.841-2.963h-.013v2.963h-.911v-4.426h.967zM236.931 324.825v-.818h3.626v.818h-1.327v3.607h-.973v-3.607h-1.326zM243.973 324.007v.818h-2.337v.948h2.145v.756h-2.145v1.085h2.387v.818h-3.36v-4.426h3.31zM246.663 324.007c.198 0 .377.032.536.096.159.064.295.152.409.264.113.111.2.241.26.388.06.146.09.305.09.474 0 .261-.055.486-.165.676-.109.19-.288.335-.536.435v.012a.757.757 0 0 1 .49.393c.05.094.086.195.108.308.023.111.038.223.047.334l.012.248c.004.096.011.192.021.292.01.099.027.192.05.281a.649.649 0 0 0 .102.227h-.973a1.731 1.731 0 0 1-.099-.502 7.214 7.214 0 0 0-.056-.558c-.033-.231-.104-.401-.211-.509s-.283-.161-.527-.161h-.973v1.729h-.973v-4.426h2.388zm-.347 2.002c.223 0 .39-.05.502-.148.111-.1.167-.261.167-.483 0-.215-.056-.371-.167-.469-.112-.097-.279-.146-.502-.146h-1.066v1.246h1.066z"/><path d="M247.89 324.825v-.818h3.626v.818h-1.327v3.607h-.973v-3.607h-1.326zM253.258 324.007l1.655 4.426h-1.01l-.335-.985h-1.655l-.347.985h-.979l1.673-4.426h.998zm.056 2.715l-.558-1.624h-.012l-.577 1.624h1.147z"/><path d="M255.868 324.007v4.426h-.973v-4.426h.973zM257.287 324.007l1.848 2.969h.012v-2.969h.911v4.426h-.973l-1.841-2.963h-.013v2.963h-.911v-4.426h.967zM261.881 324.007l1.035 3.044h.012l.979-3.044h1.37v4.426h-.911v-3.137h-.012l-1.085 3.137h-.75l-1.084-3.105h-.013v3.105h-.911v-4.426h1.37zM269.04 324.007v.818h-2.337v.948h2.145v.756h-2.145v1.085h2.387v.818h-3.36v-4.426h3.31zM270.311 324.007l1.848 2.969h.012v-2.969h.911v4.426h-.973l-1.841-2.963h-.013v2.963h-.911v-4.426h.967zM273.187 324.825v-.818h3.626v.818h-1.327v3.607h-.973v-3.607h-1.326zM278.983 327.342c.054.104.125.187.214.251s.193.111.313.143c.12.031.244.047.372.047.087 0 .18-.008.279-.022a.96.96 0 0 0 .279-.083.63.63 0 0 0 .217-.171.425.425 0 0 0 .087-.275.39.39 0 0 0-.115-.292c-.077-.074-.177-.136-.301-.186s-.265-.093-.421-.13a14.725 14.725 0 0 1-.478-.124c-.165-.042-.326-.093-.483-.152s-.297-.138-.421-.232-.224-.214-.301-.356a1.089 1.089 0 0 1-.115-.518c0-.228.049-.425.146-.592.097-.168.224-.307.381-.419.157-.111.335-.193.533-.248.198-.053.397-.08.595-.08.231 0 .454.025.667.077.212.052.402.136.567.251.166.116.296.264.394.443s.146.398.146.654h-.942a.79.79 0 0 0-.083-.329.563.563 0 0 0-.189-.204.77.77 0 0 0-.27-.105 1.636 1.636 0 0 0-.332-.031c-.079 0-.157.009-.235.025a.623.623 0 0 0-.214.087.54.54 0 0 0-.158.154.415.415 0 0 0-.062.236c0 .086.017.156.05.21a.437.437 0 0 0 .195.149c.097.045.231.091.403.136.171.046.396.104.672.174.083.017.197.047.344.09.146.044.292.112.437.208.145.095.27.222.375.381.105.159.158.362.158.61 0 .203-.039.391-.118.564s-.195.323-.35.449-.347.225-.577.295c-.229.07-.495.105-.796.105-.244 0-.48-.03-.71-.09-.229-.061-.432-.154-.607-.282s-.315-.292-.418-.49a1.454 1.454 0 0 1-.148-.706h.942a.777.777 0 0 0 .078.378zM281.381 324.007h1.091l1.035 1.748 1.029-1.748h1.085l-1.643 2.728v1.698h-.973v-1.724l-1.624-2.702zM286.334 327.342c.054.104.125.187.214.251s.193.111.313.143c.12.031.244.047.372.047.087 0 .18-.008.279-.022a.96.96 0 0 0 .279-.083.63.63 0 0 0 .217-.171.425.425 0 0 0 .087-.275.39.39 0 0 0-.115-.292c-.077-.074-.177-.136-.301-.186s-.265-.093-.421-.13a14.725 14.725 0 0 1-.478-.124c-.165-.042-.326-.093-.483-.152s-.297-.138-.421-.232-.224-.214-.301-.356a1.089 1.089 0 0 1-.115-.518c0-.228.049-.425.146-.592.097-.168.224-.307.381-.419.157-.111.335-.193.533-.248.198-.053.397-.08.595-.08.231 0 .454.025.667.077.212.052.402.136.567.251.166.116.296.264.394.443s.146.398.146.654h-.942a.79.79 0 0 0-.083-.329.563.563 0 0 0-.189-.204.77.77 0 0 0-.27-.105 1.636 1.636 0 0 0-.332-.031c-.079 0-.157.009-.235.025a.623.623 0 0 0-.214.087.54.54 0 0 0-.158.154.415.415 0 0 0-.062.236c0 .086.017.156.05.21a.437.437 0 0 0 .195.149c.097.045.231.091.403.136.171.046.396.104.672.174.083.017.197.047.344.09.146.044.292.112.437.208.145.095.27.222.375.381.105.159.158.362.158.61 0 .203-.039.391-.118.564s-.195.323-.35.449-.347.225-.577.295c-.229.07-.495.105-.796.105-.244 0-.48-.03-.71-.09-.229-.061-.432-.154-.607-.282s-.315-.292-.418-.49a1.454 1.454 0 0 1-.148-.706h.942a.8.8 0 0 0 .078.378zM288.863 324.825v-.818h3.626v.818h-1.327v3.607h-.973v-3.607h-1.326zM295.905 324.007v.818h-2.337v.948h2.145v.756h-2.145v1.085h2.387v.818h-3.36v-4.426h3.31zM297.579 324.007l1.035 3.044h.012l.979-3.044h1.37v4.426h-.911v-3.137h-.012l-1.085 3.137h-.75l-1.084-3.105h-.013v3.105h-.911v-4.426h1.37z"/></g></g><g fill="#fff"><path d="M358.541 317.801a3.11 3.11 0 0 1-.006.142c-.017.152 0 .223-.437.223s-.42-.072-.437-.223a7.441 7.441 0 0 1-.01-.445c.001-.126.005-.396.01-.445.017-.152 0-.223.437-.223s.42.072.437.223a3.6 3.6 0 0 1 .006.151h.598a4.267 4.267 0 0 0-.017-.308c-.034-.303.085-.593-1.023-.593-1.108 0-.989.29-1.023.593-.011.099-.022.349-.021.602s.009.503.021.602c.034.303-.085.593 1.023.593 1.108 0 .989-.29 1.023-.593.007-.058.012-.167.016-.298l-.597-.001zM351.454 316.364l-.583 1.703-.583-1.703-.872-.005v2.287h.583v-1.704l.583 1.704h.583l.579-1.704v1.704h.583v-2.287zM359.27 316.359h1.676v.583h-.547v1.704h-.583v-1.704h-.546zM354.774 318.646l.669-2.289h.87l.67 2.289h-.583l-.138-.473h-.765l.108-.372h.547l-.271-.932-.524 1.777zM348.011 316.829c.437 0 .42.072.437.223.006.049.01.319.01.445.001.126-.005.396-.01.445-.017.152 0 .223-.437.223s-.42-.072-.437-.223a7.441 7.441 0 0 1-.01-.445c.001-.126.005-.396.01-.445.017-.151 0-.223.437-.223l.001-.526c-1.108 0-.989.29-1.023.593a6.716 6.716 0 0 0-.021.602c.001.252.009.503.021.602.034.303-.085.593 1.023.593 1.108 0 .989-.29 1.023-.593.011-.099.019-.349.021-.602a6.366 6.366 0 0 0-.021-.602c-.034-.303.085-.593-1.023-.593l-.001.526zM346.042 317.801a3.11 3.11 0 0 1-.006.142c-.017.152 0 .223-.437.223s-.42-.072-.437-.223a7.441 7.441 0 0 1-.01-.445c.001-.126.005-.396.01-.445.017-.152 0-.223.437-.223s.42.072.437.223a3.6 3.6 0 0 1 .006.151h.598a4.267 4.267 0 0 0-.017-.308c-.034-.303.085-.593-1.023-.593-1.108 0-.989.29-1.023.593a6.716 6.716 0 0 0-.021.602c.001.252.009.503.021.602.034.303-.085.593 1.023.593 1.108 0 .989-.29 1.023-.593.007-.058.012-.167.016-.298l-.597-.001zM353.747 318.123h-.354v-.522l.354-.002c.437 0 .423-.072.441-.223.006-.049.004-.009.004-.135-.001-.126.002-.083-.004-.132-.017-.152-.004-.223-.441-.223l-.354.001.001 1.757h-.584v-2.284h.938c1.108 0 .987.291 1.027.593.005.036.005.201.005.29 0 .072 0 .237-.005.289-.029.304.08.591-1.028.591zM342.406 327.256l-3.65-.004a.956.956 0 0 1-.956-.956v-5.556c0-.528.428-.956.956-.956l2.285-.003a.497.497 0 0 0 .497-.497l.007-2.221c0-.115.093-.208.208-.208h1.339c.115 0 .208.093.208.208l.014 9.986a.208.208 0 0 1-.208.208l-.7-.001-.017.496h.914a.497.497 0 0 0 .497-.497V316.85a.497.497 0 0 0-.497-.497h-1.757a.497.497 0 0 0-.497.497l.003 2.227a.208.208 0 0 1-.208.208l-2.087-.004c-.805 0-1.458.653-1.458 1.458v5.556c0 .805.653 1.458 1.458 1.458l3.633-.001.016-.496z"/><path d="M341.048 325.211v-3.595a.545.545 0 0 0-1.091 0v3.88a.546.546 0 1 0 1.091 0v-.285l.496.017v.269a1.04 1.04 0 1 1-2.082 0v-3.88a1.04 1.04 0 1 1 2.082 0v3.612l-.496-.018zM345.875 327.256h-.683a.208.208 0 0 1-.208-.208l.008-7.052c0-.115.093-.208.208-.208h1.339c.115 0 .208.093.208.208l.014 7.052a.208.208 0 0 1-.208.208h-.678v.494l.876.001a.497.497 0 0 0 .497-.497v-7.471a.497.497 0 0 0-.497-.497h-1.757a.497.497 0 0 0-.497.497l-.001 7.469c0 .274.221.497.495.497l.884.001v-.494zM352.185 321.175l-1.471-.002a.82.82 0 1 0 0 1.64l2.016.006c.528 0 .956.428.956.956l-.007 2.51a.956.956 0 0 1-.956.956l-4.002.007a.208.208 0 0 1-.208-.208v-.972c0-.115.093-.208.208-.208l2.727-.009a.82.82 0 1 0 0-1.64l-1.974-.008a.956.956 0 0 1-.956-.956v-2.507c0-.528.428-.956.956-.956l3.709-.017c.115 0 .208.093.208.208v.994a.208.208 0 0 1-.208.208l-.998-.002-.017.489h1.22a.496.496 0 0 0 .497-.495l.002-1.393a.497.497 0 0 0-.497-.497l-3.916.002c-.805 0-1.458.653-1.458 1.458v2.507c0 .805.653 1.458 1.458 1.458l1.975-.003a.33.33 0 0 1 0 .659l-2.939-.001a.497.497 0 0 0-.497.497v1.39c0 .274.222.497.497.497l4.214-.001c.805 0 1.458-.653 1.458-1.458l.007-2.51c0-.805-.653-1.458-1.458-1.458l-2.016.006a.33.33 0 0 1 0-.66h1.454l.016-.487zM359.6 322.554h.632a.208.208 0 0 0 .208-.208l-.003-1.606a.956.956 0 0 0-.956-.956h-3.161a.956.956 0 0 0-.956.956v5.556c0 .528.428.956.956.956h3.161a.956.956 0 0 0 .956-.956l.003-1.527a.208.208 0 0 0-.208-.208h-1.193a.208.208 0 0 0-.208.208l.007.728c0 .575-.362 1.041-.937 1.041-.575 0-.937-.466-.937-1.041v-3.88c0-.575.362-1.041.937-1.041.575 0 .937.466.937 1.041l-.007.729c0 .115.093.208.208.208h.561l-.017.501h-.75a.497.497 0 0 1-.497-.497l.006-.941c0-.301-.14-.545-.441-.545s-.441.244-.441.545v3.88c0 .301.14.546.441.546s.441-.244.441-.546l-.006-.94c0-.274.222-.497.497-.497h1.61c.274 0 .497.222.497.497l-.001 1.739c0 .805-.653 1.458-1.458 1.458h-3.161a1.458 1.458 0 0 1-1.458-1.458v-5.556c0-.805.653-1.458 1.458-1.458h3.161c.805 0 1.458.653 1.458 1.458l.001 1.818a.497.497 0 0 1-.497.497h-.86l.017-.501z"/></g><path d="M382.79 411.195c4.02-.646 8.749-3.637 11.023-6.483C348.311 406.733 287.982 410 247.417 410c-39.773 0-98.488-3.177-143.607-5.164 2.274 2.78 6.846 5.722 10.81 6.359 23.804 3.824 77.588 11.305 134.085 11.305 56.496 0 110.281-7.481 134.085-11.305z" fill="#242424"/><path d="M382.79 410.195c4.02-.646 7.443-2.579 9.718-5.425-45.501 2.02-104.526 4.23-145.09 4.23-39.773 0-97.297-2.124-142.416-4.111 2.274 2.78 5.655 4.67 9.619 5.307 23.804 3.824 77.588 11.305 134.085 11.305 56.495-.001 110.28-7.482 134.084-11.306z" fill="#21211d"/></svg>