<svg xmlns="http://www.w3.org/2000/svg" viewBox="0 0 167.523 339.845"><path d="M73.742 339.1c6.126-1.171 13.458-2.298 21.096-4.441 17.466-4.9 36.53-12.604 46.419-20.433 14.214-11.252 21.913-27.243 24.282-36.423 2.369-9.18 3.85-21.617-2.961-44.418s-7.403-63.463-7.403-63.463.592-40.662 7.403-63.463 5.33-35.238 2.961-44.418-10.068-25.17-24.282-36.423c-9.889-7.829-28.953-15.534-46.419-20.433C87.2 3.043 79.868 1.915 73.742.744c-20.136-3.85-47.971 7.699-59.224 23.689S.305 49.308.009 64.114s6.953 40.317 8.884 73.141c.592 10.068 1.481 25.95 1.481 32.667s-.888 22.599-1.481 32.667C6.962 235.413-.287 260.924.009 275.73s3.257 23.689 14.51 39.68c11.252 15.991 39.087 27.539 59.223 23.69z" fill="#24241e"/><linearGradient id="a" gradientUnits="userSpaceOnUse" x1="78.078" y1="108.133" x2="93.533" y2="199.629" gradientTransform="rotate(90 98.795 169.922)"><stop offset="0" stop-color="#33332b"/><stop offset="1" stop-color="#24241e"/></linearGradient><path d="M155.964 127.977s1.766-7.906 4.738-20.407c2.6-10.939 6.602-25.648 4.803-38.323-3.306-23.284-23.207-42.375-30.861-46.293-16.583-8.489-44.108-22.9-63.708-20.926-.345.035-47.477-6.974-57.885 44.22s24.184 85.688 36.856 127.813c8.404 27.935-3.453 78.884 3.79 110.754 3.078 13.546 24.299 38.016 47.288 38.257 26.264.275 54.721-25.699 61.297-41.681 6.317-15.352 3.82-26.351.791-40.732-2.947-13.99-7.62-28.627-8.189-34.857-3.061-33.505-1.09-67.374 1.08-77.825z" fill="url(#a)"/><circle cx="90.029" cy="83.066" r="58.927" fill="#545448"/><circle cx="90.029" cy="82.473" r="58.927" fill="#1e1e1e"/><circle cx="90.115" cy="82.164" r="57.447" fill="#4c4c4a"/><circle cx="90.029" cy="82.473" r="57.447" fill="#252625"/><circle cx="90.029" cy="82.473" r="39.976" fill="#2b2b2b"/><circle cx="90.029" cy="82.473" r="39.176" fill="#0e0d0b"/><radialGradient id="b" cx="11.346" cy="178.688" r="38.717" gradientTransform="rotate(90 98.795 169.922)" gradientUnits="userSpaceOnUse"><stop offset=".709" stop-color="#424242"/><stop offset=".966" stop-color="#141414"/></radialGradient><path d="M128.745 82.473c0-21.383-17.334-38.717-38.717-38.717S51.311 61.09 51.311 82.473s17.334 38.717 38.717 38.717 38.717-17.334 38.717-38.717zm-72.687 0c0-18.761 15.209-33.97 33.97-33.97s33.97 15.209 33.97 33.97-15.209 33.97-33.97 33.97-33.97-15.208-33.97-33.97z" fill="url(#b)"/><linearGradient id="c" gradientUnits="userSpaceOnUse" x1="-3.653" y1="156.116" x2="26.255" y2="201.126" gradientTransform="rotate(90 98.795 169.922)"><stop offset=".054" stop-color="#424242"/><stop offset=".966" stop-color="#141414"/></linearGradient><circle cx="90.029" cy="82.473" r="28.723" fill="url(#c)"/><circle cx="90.029" cy="82.473" r="25.096" fill="#141612"/><circle cx="90.029" cy="82.473" r="23.319" fill="#3b3838"/><ellipse transform="rotate(-38.765 89.596 83)" cx="89.599" cy="83" rx="18.889" ry="19.03" fill="#4a4747"/><linearGradient id="d" gradientUnits="userSpaceOnUse" x1="20.919" y1="190.107" x2="4.534" y2="170.563" gradientTransform="rotate(90 98.795 169.922)"><stop offset="0" stop-color="#424242"/><stop offset="1" stop-color="#2e2e2e"/></linearGradient><circle cx="90.029" cy="82.473" r="18.781" fill="url(#d)"/><circle cx="90.029" cy="68.26" r="2.488" fill="#262422"/><path d="M90.084 67.162a1.04 1.04 0 1 1 .183 2.067c.06.008.12.018.182.018a1.407 1.407 0 1 0-1.407-1.407c0 .062.01.122.018.182a1.04 1.04 0 0 1 1.024-.86z" fill="#403e3e"/><path d="M145.101 82.613l-10.992 3.891c-.622.325-1.399-.081-1.399-.732V77.99c0-.651.777-1.057 1.399-.732l10.992 3.891c.622.325.622 1.139 0 1.464z" fill="#dce3dc"/><path d="M89.889 137.545l-3.891-10.992c-.325-.622.081-1.399.732-1.399h7.783c.651 0 1.057.777.732 1.399l-3.891 10.992c-.326.622-1.14.622-1.465 0zM34.957 82.333l10.992-3.891c.622-.325 1.399.081 1.399.732v7.783c0 .651-.777 1.057-1.399.732l-10.992-3.891c-.622-.326-.622-1.139 0-1.465z" fill="#b2b7ad"/><path d="M90.169 27.402l3.891 10.992c.325.622-.081 1.399-.732 1.399h-7.783c-.651 0-1.057-.777-.732-1.399l3.891-10.992c.326-.622 1.139-.622 1.465 0z" fill="#d9dedc"/><path d="M127.415 45.645l-3.895 8.163c-.163.52-.812.723-1.169.366l-4.269-4.269c-.357-.357-.154-1.006.366-1.169l8.163-3.895c.521-.162.967.284.804.804z" fill="#dce3dc"/><path d="M126.857 119.86l-8.163-3.895c-.52-.163-.723-.812-.366-1.169l4.269-4.269c.357-.357 1.006-.154 1.169.366l3.895 8.163c.162.52-.284.966-.804.804z" fill="#bec2ba"/><path d="M52.642 119.302l3.895-8.163c.163-.52.812-.723 1.169-.366l4.269 4.269c.357.357.154 1.006-.366 1.169l-8.163 3.895c-.52.162-.966-.284-.804-.804z" fill="#b2b7ad"/><path d="M53.2 45.087l8.163 3.895c.52.163.723.812.366 1.169L57.46 54.42c-.357.357-1.006.154-1.169-.366l-3.895-8.163c-.162-.521.285-.967.804-.804z" fill="#bcc6c5"/><linearGradient id="e" gradientUnits="userSpaceOnUse" x1="94.929" y1="178.626" x2="124.794" y2="178.626" gradientTransform="rotate(90 98.795 169.922)"><stop offset="0" stop-color="#33332b"/><stop offset="1" stop-color="#24241e"/></linearGradient><path d="M85.012 183.908c3.923 6.827 8.574 10.746 8.574 10.746 2.276 1.736 3.856 1.358 4.818.805.962-.553 2.085-1.728 1.731-4.568 0 0-1.043-5.992-4.966-12.819-3.923-6.827-8.574-10.746-8.574-10.746-2.276-1.736-3.856-1.358-4.818-.805-.962.553-2.085 1.728-1.731 4.568 0-.001 1.043 5.992 4.966 12.819z" fill="url(#e)"/><path d="M85.604 183.315c3.923 6.827 8.574 10.746 8.574 10.746 2.276 1.736 3.856 1.358 4.818.805.962-.553 2.085-1.728 1.731-4.568 0 0-1.043-5.992-4.966-12.819-3.923-6.827-8.574-10.746-8.574-10.746-2.276-1.736-3.856-1.358-4.818-.805s-2.085 1.728-1.731 4.568c0 0 1.043 5.992 4.966 12.819z" fill="#181a14"/><linearGradient id="f" gradientUnits="userSpaceOnUse" x1="94.929" y1="218.188" x2="124.794" y2="218.188" gradientTransform="rotate(90 98.795 169.922)"><stop offset="0" stop-color="#33332b"/><stop offset="1" stop-color="#24241e"/></linearGradient><path d="M45.45 183.908c3.923 6.827 8.574 10.746 8.574 10.746 2.276 1.736 3.856 1.358 4.818.805.962-.553 2.085-1.728 1.731-4.568 0 0-1.043-5.992-4.966-12.819s-8.574-10.746-8.574-10.746c-2.276-1.736-3.856-1.358-4.818-.805-.962.553-2.085 1.728-1.731 4.568 0-.001 1.043 5.992 4.966 12.819z" fill="url(#f)"/><path d="M46.042 183.315c3.923 6.827 8.574 10.746 8.574 10.746 2.276 1.736 3.856 1.358 4.818.805.962-.553 2.085-1.728 1.731-4.568 0 0-1.043-5.992-4.966-12.819-3.923-6.827-8.574-10.746-8.574-10.746-2.276-1.736-3.856-1.358-4.818-.805-.962.553-2.085 1.728-1.731 4.568 0 0 1.043 5.992 4.966 12.819z" fill="#181a14"/><path d="M86.617 182.733c3.401 5.919 7.769 9.246 7.769 9.246 1.801 1.628 2.917 1.45 3.569 1.076.652-.375 1.368-1.249.868-3.625 0 0-.675-5.45-4.076-11.369s-7.769-9.246-7.769-9.246c-1.801-1.628-2.917-1.45-3.569-1.075s-1.368 1.249-.868 3.625c.001-.001.676 5.449 4.076 11.368z" fill="#656660"/><path d="M88.134 181.962c2.874 5.002 6.386 7.917 6.386 7.917 1.459 1.412 2.313 1.313 2.8 1.033.488-.28 1.003-.968.518-2.939 0 0-.75-4.502-3.624-9.504s-6.386-7.917-6.386-7.917c-1.459-1.412-2.313-1.313-2.8-1.033-.488.28-1.003.968-.518 2.939 0 0 .75 4.502 3.624 9.504z" fill="#74756e"/><path d="M47.128 182.733c3.401 5.919 7.769 9.246 7.769 9.246 1.801 1.628 2.917 1.45 3.569 1.076.652-.375 1.368-1.249.868-3.625 0 0-.675-5.45-4.076-11.369s-7.769-9.246-7.769-9.246c-1.801-1.628-2.917-1.45-3.569-1.075-.652.375-1.368 1.249-.868 3.625 0-.001.675 5.449 4.076 11.368z" fill="#656660"/><path d="M48.644 181.962c2.874 5.002 6.386 7.917 6.386 7.917 1.459 1.412 2.313 1.313 2.8 1.033.488-.28 1.003-.968.518-2.939 0 0-.75-4.502-3.624-9.504s-6.386-7.917-6.386-7.917c-1.459-1.412-2.313-1.313-2.8-1.033-.488.28-1.003.968-.518 2.939.001 0 .751 4.502 3.624 9.504z" fill="#74756e"/><circle cx="105.21" cy="230.878" r="16.707" fill="#2b2b26"/><circle cx="105.21" cy="230.878" r="15.935" fill="#181a14"/><circle cx="105.21" cy="230.878" r="13.866" fill="#019b46"/><circle cx="126.895" cy="268.88" r="13.866" fill="#0270a1"/><circle cx="88.503" cy="291.089" r="13.866" fill="#f0c20c"/><circle cx="66.76" cy="252.173" r="13.866" fill="#fb5341"/><circle cx="105.802" cy="230.285" r="13.104" fill="#02ad53"/><path d="M105.21 217.011c7.658 0 13.866 6.208 13.866 13.866 0 7.581-6.084 13.737-13.635 13.86.077.001.153.006.231.006 7.913 0 14.328-6.415 14.328-14.328 0-7.913-6.415-14.328-14.328-14.328-7.913 0-14.328 6.415-14.328 14.328 0 .077.005.154.006.231.124-7.55 6.279-13.635 13.86-13.635z" fill="#2be088"/><circle cx="126.895" cy="268.88" r="16.707" fill="#2b2b26"/><circle cx="126.895" cy="268.88" r="15.935" fill="#181a14"/><circle cx="126.895" cy="268.88" r="13.866" fill="#006796"/><circle cx="127.488" cy="268.287" r="13.104" fill="#0174a8"/><path d="M126.895 255.013c7.658 0 13.866 6.208 13.866 13.866 0 7.581-6.084 13.737-13.635 13.86.077.001.153.006.231.006 7.913 0 14.328-6.415 14.328-14.328 0-7.913-6.415-14.328-14.328-14.328-7.913 0-14.328 6.415-14.328 14.328 0 .077.005.154.006.231.124-7.55 6.28-13.635 13.86-13.635z" fill="#2d95c6"/><circle cx="88.503" cy="291.089" r="16.707" fill="#2b2b26"/><circle cx="88.503" cy="291.089" r="15.935" fill="#181a14"/><circle cx="88.503" cy="291.089" r="13.866" fill="#dfaf05"/><circle cx="89.095" cy="290.496" r="13.104" fill="#f1c10d"/><path d="M88.503 277.222c7.658 0 13.866 6.208 13.866 13.866 0 7.581-6.084 13.737-13.635 13.86.077.001.153.006.231.006 7.913 0 14.328-6.415 14.328-14.328 0-7.913-6.415-14.328-14.328-14.328-7.913 0-14.328 6.415-14.328 14.328 0 .077.005.154.006.231.124-7.551 6.28-13.635 13.86-13.635z" fill="#f9d022"/><circle cx="66.76" cy="252.173" r="16.707" fill="#2b2b26"/><circle cx="66.76" cy="252.173" r="15.935" fill="#181a14"/><circle cx="66.76" cy="252.173" r="13.866" fill="#e64735"/><circle cx="67.352" cy="251.581" r="13.104" fill="#fe5743"/><path d="M66.76 238.307c7.658 0 13.866 6.208 13.866 13.866 0 7.581-6.084 13.737-13.635 13.86.077.001.153.006.231.006 7.913 0 14.328-6.415 14.328-14.328 0-7.913-6.415-14.328-14.328-14.328-7.913 0-14.328 6.415-14.328 14.328 0 .077.005.154.006.231.123-7.551 6.279-13.635 13.86-13.635z" fill="#f19581"/><g fill-rule="evenodd" clip-rule="evenodd" fill="#dee0d6"><path d="M140.142 165.874h-2.639v-7.926c0-.372.073-.83-.065-1.044-.105-.166-.446-.222-.586-.009-.095.141-.067.522-.067.802v4.325c0 .569.036 1.196-.065 1.66-.2.927-.736 1.6-1.5 1.958a3.3 3.3 0 0 1-1.428.308c-1.63 0-2.645-.868-2.944-2.238-.103-.469-.066-1.073-.066-1.669 0-2.87.017-5.744.01-8.633h2.638v4.605c0 1.048-.008 2.304-.008 3.45 0 .322-.054.865.065 1.083a.375.375 0 0 0 .465.147c.302-.122.196-.872.196-1.314v-4.466c0-.368-.015-.738.037-1.07.188-1.243.929-2.091 2.096-2.359.637-.146 1.396-.101 1.959.101.555.2.995.546 1.294.932.317.405.584.958.617 1.65.038.808 0 1.626 0 2.433.002 2.41-.019 4.83-.009 7.274zM140.153 166.266v2.816c0 .133.027.306 0 .419-.024.09-.276.316-.345.392-.125.138-.259.257-.364.374-1.63 1.766-3.425 3.531-5.006 5.266h5.716v3.272h-9.379v-2.825c0-.131-.021-.284 0-.401.02-.117.232-.29.335-.402.351-.382.743-.771 1.081-1.128 1.433-1.509 2.914-3.028 4.298-4.519h-5.714v-3.275h9.349c.012 0 .026 0 .029.011zM140.153 179.272v3.226c-1.423.003-2.862-.008-4.271.009-.004.046.06.099.103.149 1.281 1.478 2.605 2.922 3.907 4.411.077.087.241.226.261.306.034.144 0 .37 0 .559v3.851c-.041.02-.051-.037-.066-.055-1.466-1.768-2.906-3.623-4.373-5.398-1.541 1.863-3.082 3.752-4.634 5.62-.099.122-.179.262-.306.354v-4.036c0-.195-.034-.415 0-.568.02-.107.207-.237.298-.337.299-.332.617-.674.924-.977 1.266-1.27 2.477-2.62 3.701-3.881-1.624-.018-3.279-.006-4.915-.009 0-1.079.006-2.168-.008-3.235h9.349c.013.001.027.001.03.011z"/></g><g><path d="M124.213 171.929c0-.306-.107-.567-.322-.782a1.061 1.061 0 0 0-.781-.322c-.302 0-.56.107-.775.322a1.066 1.066 0 0 0-.322.782c0 .302.107.56.322.774.215.215.473.322.775.322.306 0 .567-.107.781-.322a1.05 1.05 0 0 0 .322-.774zm2.691 21c.045-1.136-.313-2.094-1.076-2.872-.763-.779-1.715-1.168-2.858-1.168-1.018 0-1.898.299-2.64.898-.939.757-1.408 1.83-1.408 3.216 0 1.382.492 2.452 1.476 3.21.742.572 1.601.858 2.578.858 1.143 0 2.095-.383 2.855-1.151.761-.767 1.119-1.763 1.073-2.991zm-6.11 1.81c-.532-.185-.919-.444-1.161-.777-.189-.261-.284-.586-.284-.975 0-.579.219-1.029.658-1.35.628-.461 1.599-.692 2.911-.692 1.105 0 1.952.149 2.542.448.719.367 1.079.902 1.079 1.605 0 .382-.104.719-.312 1.013-.208.293-.565.534-1.07.723-.505.189-1.267.284-2.284.284-.854-.001-1.547-.094-2.079-.279zm1.528-12.863v-3.745h-.2v.198a.967.967 0 0 1-.109.473.577.577 0 0 1-.243.258c-.09.042-.288.062-.593.062h-1.604a3.936 3.936 0 0 1-.173-.597 2.816 2.816 0 0 1-.06-.569c0-.532.131-.991.392-1.378.261-.387.67-.666 1.226-.84.556-.174 1.204-.26 1.942-.26.609 0 1.203.08 1.783.239.579.159 1.03.43 1.354.813.324.383.486.862.486 1.438 0 .603-.193 1.158-.579 1.665-.386.508-.951.889-1.693 1.143v.2h2.718v-.2c-.219-.076-.367-.159-.446-.25a.441.441 0 0 1-.118-.296c0-.068.071-.289.213-.663.142-.374.229-.643.259-.81.061-.307.091-.652.091-1.035 0-1.236-.399-2.261-1.197-3.077-.798-.815-1.775-1.223-2.932-1.223-.646 0-1.231.132-1.753.398a3.713 3.713 0 0 0-1.092.866 4.56 4.56 0 0 0-.783 1.278c-.198.483-.298 1.09-.298 1.82 0 .572.055 1.123.166 1.655.111.532.276 1.044.494 1.536h1.604c.283 0 .46.017.533.051.137.06.236.146.295.257.059.112.098.309.118.592h.199zm4.582-15.628c.045-1.137-.313-2.094-1.076-2.872-.763-.779-1.715-1.167-2.858-1.167-1.018 0-1.898.299-2.64.898-.939.757-1.408 1.829-1.408 3.216 0 1.383.492 2.453 1.476 3.21.742.572 1.601.858 2.578.858 1.143 0 2.095-.384 2.855-1.151.761-.767 1.119-1.765 1.073-2.992zm-6.11 1.81c-.532-.185-.919-.444-1.161-.777-.189-.261-.284-.586-.284-.975 0-.579.219-1.029.658-1.35.628-.462 1.599-.692 2.911-.692 1.105 0 1.952.149 2.542.448.719.367 1.079.902 1.079 1.605 0 .382-.104.719-.312 1.013-.208.293-.565.534-1.07.723-.505.189-1.267.284-2.284.284-.854-.001-1.547-.094-2.079-.279zm-.781 19.372c-.333-.433-.499-1.01-.499-1.728v-.46c0-.219.03-.379.091-.477a.471.471 0 0 1 .233-.202c.095-.036.354-.054.779-.054h2.17c0 .367-.049.647-.145.841-.097.193-.285.363-.566.509-.28.146-.641.241-1.08.287v.218h4.036v-.218c-.599-.061-1.051-.201-1.358-.42-.307-.22-.46-.574-.46-1.062v-.153h3.136v.791c0 .583-.034.981-.102 1.193-.114.363-.292.645-.535.844-.242.199-.642.353-1.2.463v.218h2.282v-6.446h-.2v.255c0 .249-.054.446-.16.589a.552.552 0 0 1-.31.21c-.08.019-.296.029-.648.029h-5.073c-.39 0-.631-.021-.722-.063a.511.511 0 0 1-.275-.227c-.08-.136-.12-.315-.12-.538v-.255h-.2v6.654l2.449.346v-.209c-.683-.19-1.19-.502-1.523-.935zm0-26.681c-.333-.433-.499-1.01-.499-1.729v-.46c0-.219.03-.378.091-.477a.476.476 0 0 1 .233-.202c.095-.036.354-.054.779-.054h2.17c0 .367-.049.648-.145.841-.097.193-.285.363-.566.509-.28.146-.641.241-1.08.287v.218h4.036v-.218c-.599-.061-1.051-.201-1.358-.421-.307-.22-.46-.574-.46-1.063v-.154h3.136v.791c0 .583-.034.981-.102 1.193-.114.364-.292.645-.535.844-.242.199-.642.353-1.2.463v.218h2.282v-8.858h-.2c.007.43-.099.736-.32.919-.164.133-.478.199-.943.199h-3.305l4.769-3.786v-2.731h-.2c-.008.235-.045.415-.11.54-.066.125-.203.269-.411.432l-.204.164h-5.438c-.415 0-.708-.083-.881-.25-.173-.167-.261-.462-.265-.886h-.2v2.736h.2v-.182c0-.261.079-.493.236-.696.157-.203.461-.304.91-.304h4.905l-6.423 5.19v.192h6.418c.366 0 .624.031.775.093a.655.655 0 0 1 .326.261c.067.112.121.33.163.655v.122c0 .249-.054.446-.16.589a.552.552 0 0 1-.31.21c-.08.019-.296.028-.648.028h-5.073c-.39 0-.631-.021-.722-.062a.516.516 0 0 1-.275-.227c-.08-.136-.12-.316-.12-.538v-.255h-.2v6.653l2.449.346v-.209c-.685-.187-1.192-.498-1.525-.931z" fill="#dee0d6"/></g><g fill="#dee0d6"><path d="M104.258 158.15a.78.78 0 0 0-.336.266 1.104 1.104 0 0 0-.178.414c-.036.16-.055.335-.055.522 0 .133.017.266.05.398s.083.253.149.36.152.196.257.266a.688.688 0 0 0 .382.104.49.49 0 0 0 .353-.133c.091-.089.17-.203.236-.344.066-.142.124-.302.174-.481s.103-.36.157-.543c.056-.188.122-.37.199-.547.077-.178.177-.336.299-.478.121-.141.271-.254.447-.34s.393-.128.647-.128c.331 0 .613.068.846.207.231.138.421.317.567.539.146.221.254.471.323.75s.104.563.104.85c0 .305-.034.591-.104.858a1.929 1.929 0 0 1-.336.705 1.649 1.649 0 0 1-.593.48c-.24.119-.531.179-.874.179v-1.235a.945.945 0 0 0 .418-.07.722.722 0 0 0 .278-.225c.071-.097.123-.211.153-.344a1.91 1.91 0 0 0 .008-.792c-.024-.124-.066-.236-.124-.336s-.134-.18-.228-.24a.632.632 0 0 0-.349-.091.464.464 0 0 0-.36.161 1.354 1.354 0 0 0-.241.39 2.775 2.775 0 0 0-.148.469l-.088.39c-.061.232-.131.445-.211.639s-.184.36-.311.502c-.128.141-.282.25-.465.327s-.406.116-.672.116c-.354 0-.654-.073-.903-.22s-.45-.335-.605-.564a2.366 2.366 0 0 1-.336-.774 3.707 3.707 0 0 1-.104-.854c0-.829.169-1.446.506-1.854.337-.406.868-.609 1.592-.609v1.236a1.163 1.163 0 0 0-.524.074zM108.739 167.569l-1.095-.224v-3.218l-1.269-.265v2.977l-1.011-.216v-2.977l-1.451-.307v3.267l-1.095-.232v-4.56l5.92 1.235v4.52zM108.739 169.559l-4.825-1.012v2.86l-1.095-.231v-4.162l5.92 1.235v1.31zM108.739 177.195l-1.095-.224v-3.218l-1.269-.265v2.977l-1.011-.216v-2.977l-1.451-.307v3.267l-1.095-.232v-4.56l5.92 1.235v4.52zM107.508 180.979c.186-.196.278-.452.278-.767 0-.332-.076-.621-.229-.866a1.912 1.912 0 0 0-.589-.605c-.24-.157-.508-.275-.804-.353s-.585-.116-.866-.116c-.205 0-.398.026-.581.079s-.344.133-.484.24a1.136 1.136 0 0 0-.336.415 1.363 1.363 0 0 0-.125.609c0 .177.032.344.096.501.063.158.149.297.257.419a1.506 1.506 0 0 0 .825.473v1.302a4.66 4.66 0 0 1-1.053-.469 2.766 2.766 0 0 1-.701-.605c-.18-.224-.31-.473-.39-.746s-.12-.57-.12-.891c0-.841.224-1.488.672-1.944.447-.456 1.095-.685 1.94-.685.48 0 .937.075 1.368.224.431.149.811.363 1.14.643s.59.619.783 1.021c.193.4.29.85.29 1.347 0 .343-.047.661-.141.954s-.233.546-.419.759a1.863 1.863 0 0 1-.688.493 2.336 2.336 0 0 1-.95.166v-1.302c.367-.001.642-.099.827-.296zM107.644 182.924l1.095.232v4.941l-1.095-.231v-1.774l-4.825-1.012v-1.311l4.825 1.012v-1.857z"/><g><path d="M61.914 156.521a.78.78 0 0 0-.336.266 1.104 1.104 0 0 0-.178.414c-.036.16-.055.335-.055.522 0 .133.017.266.05.398s.083.253.149.36.152.196.257.266a.688.688 0 0 0 .382.104.49.49 0 0 0 .353-.133c.091-.089.17-.203.236-.344.066-.142.124-.302.174-.481s.103-.36.157-.543c.056-.188.122-.37.199-.547.077-.178.177-.336.299-.478.121-.141.271-.254.447-.34s.393-.128.647-.128c.331 0 .613.068.846.207.231.138.421.317.567.539.146.221.254.471.323.75s.104.563.104.85c0 .305-.034.591-.104.858a1.929 1.929 0 0 1-.336.705 1.649 1.649 0 0 1-.593.48c-.24.119-.531.179-.874.179v-1.235a.945.945 0 0 0 .418-.07.722.722 0 0 0 .278-.225c.071-.097.123-.211.153-.344a1.91 1.91 0 0 0 .008-.792c-.024-.124-.066-.236-.124-.336s-.134-.18-.228-.24a.632.632 0 0 0-.349-.091.464.464 0 0 0-.36.161 1.354 1.354 0 0 0-.241.39 2.775 2.775 0 0 0-.148.469l-.088.39c-.061.232-.131.445-.211.639s-.184.36-.311.502c-.128.141-.282.25-.465.327s-.406.116-.672.116c-.354 0-.654-.073-.903-.22s-.45-.335-.605-.564a2.366 2.366 0 0 1-.336-.774 3.707 3.707 0 0 1-.104-.854c0-.829.169-1.446.506-1.854.337-.406.868-.609 1.592-.609v1.236a1.177 1.177 0 0 0-.524.074zM65.301 160.658l1.095.232v4.941l-1.095-.231v-1.774l-4.825-1.012v-1.311l4.825 1.012v-1.857zM66.395 168.378l-5.92.986v-1.293l1.318-.19v-2.214l-1.318-.746v-1.368l5.92 3.49v1.335zm-3.632-.613l2.355-.29v-.017l-2.355-1.277v1.584zM66.395 173.568a2.86 2.86 0 0 1-.07.726 1.414 1.414 0 0 1-.266.56 1.21 1.21 0 0 1-.484.356 1.897 1.897 0 0 1-.73.124 1.638 1.638 0 0 1-1.056-.381c-.141-.122-.259-.266-.353-.432s-.154-.348-.183-.547h-.017c-.077.243-.211.406-.402.489a1.59 1.59 0 0 1-.643.124c-.132 0-.291-.007-.477-.021a7.306 7.306 0 0 0-.551-.021c-.133 0-.259.005-.378.017a1.215 1.215 0 0 0-.311.066v-1.269c.071-.017.14-.031.203-.042s.129-.017.195-.017c.198 0 .398.011.601.033s.402.033.602.033a.843.843 0 0 0 .352-.063.546.546 0 0 0 .22-.174.621.621 0 0 0 .112-.27c.02-.104.029-.221.029-.348v-1.228l-2.313-.489v-1.293l5.92 1.235v2.832zm-2.677-.879c0 .177.018.345.054.506.036.16.091.303.166.427a.883.883 0 0 0 .29.299.792.792 0 0 0 .427.111c.16 0 .289-.026.386-.078.097-.053.17-.123.22-.212s.083-.19.1-.307.024-.238.024-.365v-1.235l-1.666-.348v1.202zM65.301 175.483l1.095.232v4.941l-1.095-.231v-1.774l-4.825-1.012v-1.311l4.825 1.012v-1.857z"/></g></g><g><path d="M46.666 242.052l-8.457 1.41v-1.849l1.884-.271v-3.163l-1.884-1.066v-1.954l8.457 4.987v1.906zm-5.188-.876l3.363-.415v-.023l-3.363-1.824v2.262zM81.927 226.233c.265-.28.396-.646.396-1.096 0-.474-.108-.887-.325-1.237a2.757 2.757 0 0 0-.841-.865c-.344-.225-.727-.393-1.149-.503s-.835-.166-1.237-.166c-.293 0-.569.037-.829.112-.261.075-.492.189-.693.344s-.361.352-.479.592c-.119.241-.178.531-.178.871 0 .253.045.491.136.717a2.078 2.078 0 0 0 .906 1.036c.205.118.419.197.64.237v1.859a6.68 6.68 0 0 1-1.504-.669 3.953 3.953 0 0 1-1.001-.865 3.063 3.063 0 0 1-.557-1.065 4.535 4.535 0 0 1-.172-1.273c0-1.201.319-2.126.959-2.778.64-.651 1.563-.977 2.772-.977.687 0 1.338.106 1.954.319.616.214 1.158.52 1.629.918.47.398.843.885 1.119 1.457s.414 1.214.414 1.925c0 .489-.066.943-.201 1.362a3.064 3.064 0 0 1-.598 1.084 2.657 2.657 0 0 1-.983.704c-.391.166-.843.245-1.356.237v-1.859c.521 0 .914-.14 1.178-.421zM122.671 293.416c0 1.192-.286 2.089-.858 2.689-.573.6-1.384.899-2.435.899-.734 0-1.417-.103-2.049-.308s-1.179-.512-1.641-.918a4.192 4.192 0 0 1-1.084-1.528c-.261-.611-.391-1.324-.391-2.138v-3.529l8.457 1.776v3.057zm-6.894-1.22c0 .474.087.895.261 1.262s.41.675.711.924c.3.248.647.438 1.042.568s.817.195 1.268.195c.308 0 .586-.033.835-.101s.464-.176.646-.326c.182-.149.321-.341.42-.574.099-.232.148-.515.148-.847V291.9l-5.33-1.138v1.434zM78.697 313.376c0 .426-.027.809-.083 1.148-.055.34-.156.628-.302.864a1.442 1.442 0 0 1-.604.545c-.257.127-.586.189-.988.189-.237 0-.469-.035-.693-.106a1.835 1.835 0 0 1-1.047-.811 1.653 1.653 0 0 1-.226-.669h-.023c-.11.403-.322.713-.634.93a1.846 1.846 0 0 1-1.084.326c-.458 0-.86-.089-1.208-.267s-.636-.417-.864-.717c-.229-.3-.403-.644-.521-1.03s-.178-.794-.178-1.22v-4.501l8.457 1.765v3.554zm-7.012-.9c0 .426.114.775.343 1.048.229.272.569.409 1.02.409.221 0 .395-.046.521-.137s.224-.207.29-.35c.067-.142.108-.3.125-.474.016-.174.023-.344.023-.509v-1.824l-2.321-.498v2.335zm3.589.533c0 .339.093.633.278.882s.464.373.835.373c.332 0 .559-.089.681-.267.123-.178.184-.416.184-.717v-1.966l-1.978-.414v2.109z" fill="#dee0d6"/></g><path d="M148.66 169.922v6.64c0 .242.144.469.386.608l5.896 3.379c.151.087.331.133.515.133.498 0 .901-.332.901-.741v-20.036c0-.409-.404-.741-.901-.741-.184 0-.364.046-.515.133l-5.896 3.379c-.242.139-.386.366-.386.608v6.638z" fill="#2b2b24"/><path d="M148.068 169.922v6.364c0 .232.144.45.386.583l5.896 3.238c.151.083.331.128.515.128.498 0 .901-.318.901-.71v-19.204c0-.392-.404-.71-.901-.71-.184 0-.364.045-.515.128l-5.896 3.238c-.242.133-.386.35-.386.583v6.362z" fill="#292922"/><path d="M156.359 179.941v-20.036c0-.409-.404-.741-.901-.741-.184 0-.364.046-.515.133l-4.891 2.802 4.298-2.361c.151-.083.331-.128.515-.128.498 0 .901.318.901.71v19.204c0 .392-.404.71-.901.71-.184 0-.364-.044-.515-.128l-4.299-2.361 4.891 2.802c.151.087.331.133.515.133.499.002.902-.33.902-.739z" fill="#373835"/><g><path d="M72.379 336.92c5.581-.873 12.261-2.306 19.219-3.904 15.912-3.654 33.28-10.584 42.289-16.423 12.949-8.392 5.686-5.93 1.987-3.391-9.497 6.517-27.337 13.378-43.829 17.598-7.211 1.845-14.134 2.816-19.919 3.825-19.012 3.315-45.295-7.815-55.919-21.587-4.498-5.83-4.551-3.435 2.218 4.439 10.251 11.925 35.609 22.314 53.954 19.443z" fill="#44423f"/></g></svg>