<svg xmlns="http://www.w3.org/2000/svg" viewBox="0 0 152.555 152.555"><path d="M76.278 46.942c-16.202 0-29.336 13.134-29.336 29.336s13.134 29.336 29.336 29.336 29.336-13.134 29.336-29.336S92.48 46.942 76.278 46.942zm0 38.699a9.363 9.363 0 1 1 0-18.726 9.363 9.363 0 0 1 0 18.726z" fill="#e8e8e8"/><path d="M76.278 0C34.151 0 0 34.151 0 76.278s34.151 76.278 76.278 76.278 76.278-34.151 76.278-76.278S118.405 0 76.278 0zm0 105.614c-16.202 0-29.336-13.134-29.336-29.336s13.134-29.336 29.336-29.336 29.336 13.134 29.336 29.336-13.134 29.336-29.336 29.336z" fill="#3b3b3b"/><path d="M76.278 49.815c14.592 0 26.463 11.871 26.463 26.463s-11.871 26.463-26.463 26.463-26.463-11.872-26.463-26.463 11.871-26.463 26.463-26.463m0-2.873c-16.202 0-29.336 13.134-29.336 29.336s13.134 29.336 29.336 29.336c16.202 0 29.336-13.134 29.336-29.336S92.48 46.942 76.278 46.942z" fill="#ababab"/><path d="M76.278 52.727c12.986 0 23.551 10.565 23.551 23.551s-10.565 23.55-23.551 23.55c-12.986 0-23.551-10.565-23.551-23.551s10.565-23.55 23.551-23.55m0-.08c-13.051 0-23.631 10.58-23.631 23.631s10.58 23.631 23.631 23.631 23.631-10.58 23.631-23.631-10.58-23.631-23.631-23.631z" fill="#4a4a4a"/><path d="M76.278 66.947c5.145 0 9.331 4.186 9.331 9.331s-4.186 9.331-9.331 9.331-9.331-4.186-9.331-9.331 4.186-9.331 9.331-9.331m0-.033a9.363 9.363 0 1 0 0 18.726 9.363 9.363 0 0 0 0-18.726z"/><path d="M76.278 1.448c41.261 0 74.83 33.569 74.83 74.83s-33.569 74.83-74.83 74.83-74.83-33.569-74.83-74.83 33.568-74.83 74.83-74.83m0-1.448C34.151 0 0 34.151 0 76.278s34.151 76.278 76.278 76.278 76.278-34.151 76.278-76.278S118.405 0 76.278 0z" fill="#ababab"/><g fill="#171717"><path d="M109.6 44.428c-.336-.127-.519-.348-.794-.33-.912.066-2.214 1.374-2.082 2.501.042.385.306.954.833 1.08.39.097 1.146.037 1.626 0 .702-.047 1.401-.282 1.791-.581.222-.174.642-.659.705-1.002.27-1.42-1.08-1.279-2.079-1.668zM119.681 69.137c1.905.915 3.593 2.003 6.041 2.214 2.565.215 4.742-.954 6.17-2.046 3.116-2.385 4.316-6.881 4.208-12.375-.007-.025-.009-.048-.042-.043-1.065 2.22-2.309 4.427-3.377 6.586-.372.751-.768 1.713-1.206 2.292-2.171 2.835-7.006 3.587-11.794 3.372zM121.058 42.095c.429.041.864-.121 1.332-.078.339.024.786.276 1.251.12.672-.215.96-1.197.96-2.165-.003-.295-.126-.636-.084-.96.063-.483.498-1.068.294-1.746-.183-.599-.957-.996-1.506-1.211-.738-.295-1.338-.348-2.082-.666a.292.292 0 0 0-.126.084c-1.026.917-2.184 2.016-2.33 3.708-.033.348-.084.867.039 1.289.228.784 1.319 1.541 2.252 1.625zM35.308 138.35c-5.552-3.898-10.645-8.386-14.541-14.046-2.916-4.226-5.333-8.959-6.251-15.21-.312-2.099-.168-4.427-.168-6.952 0-8.17 1.26-15.39 4.334-20.714.435-.749.843-1.566 1.374-2.163.399-.45.993-.861 1.503-1.293 2.478-2.099 5.006-4.253 8.332-5.621 1.29-.54 2.807-1.05 4.373-1.17a13.297 13.297 0 0 1 8.668 2.331c1.662 1.165 2.967 2.692 4.059 4.431a29.392 29.392 0 0 1 .844-8.87c-7.998-6.466-15.263-13.775-24.153-19.31-3.971 9.295-7.943 18.588-11.878 27.916a5625.828 5625.828 0 0 1 1.904-42.298A74.389 74.389 0 0 0 1.519 76.278c0 29.552 17.15 55.092 42.037 67.228a94.033 94.033 0 0 1-8.248-5.156zM19.514 27.68c6.904 5.21 13.689 10.533 20.588 15.753 2.694-9.373 4.598-19.542 5.789-30.42.117 1.853 1.242 3.278.75 5.333 1.146-.354 2.361-1.003 3.582-1.416v1.416c1.139-.528 2.445-1.47 3.584-2.001v41.082a29.521 29.521 0 0 1 5.673-5.193c.299-13.16.601-26.318.868-39.513 10.698-2.646 20.061-6.627 30.207-9.825a75.108 75.108 0 0 0-14.276-1.378c-22.77 0-43.148 10.193-56.86 26.25.031-.028.063-.06.095-.088zM121.243 135.999a75.165 75.165 0 0 0 15.486-15.758c-6.05 4.324-10.409 10.438-15.486 15.758zM117.642 131.47c-1.152-2.237-.87-5.908-2.96-7.205-.429.276-.705.522-1.125.743-3.743 1.992-8.548-.851-9.043-4.324h-.081c-2.633.468-4.961 1.025-6.25 2.954-.33.492-.858 1.515-.876 2.163-.027.99.54 2.247 1.125 3.006 1.545 2.004 4.43 2.55 6.458 3.87.396.264.726.689 1.167.923.819.429 2.04.591 3.086.624 3.682.102 6.267-1.446 8.499-2.754zM121.181 100.139c-1.101-1.836-3.887-1.854-6.539-1.548-.768 2.394-2.514 6.803.039 8.423 2.558-.417 5.009-.9 6.247-2.708.39-.558.864-1.371.879-2.124.016-.76-.359-1.599-.626-2.043zM128.392 109.137c-1.374.141-2.783 1.31-2.459 2.838.276 1.283 1.74 2.801 3.585 2.201.395-.818 1.383-1.361 1.622-2.291.449-1.729-1.009-2.928-2.748-2.748z"/><path d="M99.433 145.555c-5.447-1.007-9.535-3.634-10.207-9.501-.654-5.687 1.481-11.219.666-16.917-.066-.438-.324-.98-.294-1.332.036-.384 1.035-1.422 1.29-1.751a8601.097 8601.097 0 0 1 17.421-21.998c.933-1.175 1.812-2.384 2.789-3.5h29.211c-.694 9.122-1.342 18.253-2.031 27.507 8.055-11.929 12.759-26.308 12.759-41.785 0-35.523-24.785-65.238-58-72.849-.497.372-.96.777-1.358 1.248.486.52.987 1.023 1.506 1.5-1.644 1.533-3.413 2.931-5.003 4.502 2.195.336 4.262.792 6.461 1.122-3.719 2.507-7.606 4.778-11.419 7.171-3.812 2.39-7.624 4.778-11.419 7.172h25.459c.03.174-.198.213-.291.288-8.8 6.617-17.975 13.149-26.79 19.79a10.44 10.44 0 0 0-.026 1.365 29.458 29.458 0 0 1 6.121-.644c16.202 0 29.336 13.134 29.336 29.336a29.21 29.21 0 0 1-2.634 12.146c.126.208.239.43.328.674-.253.165-.52.269-.801.315a29.45 29.45 0 0 1-13.966 13.514c1.05 2.144 2.098 4.286 3.138 6.42-8.266-.384-16.697-.968-24.997-1.457 3.941 9.694 8.165 19.472 12.166 29.25h-3v1.709c0 .588-.126 1.35 0 1.703.102.282.453.198.54.459-1.043-.411-2.018-.894-2.582-1.787-1.107.734-.405 2.924-.621 4.334-.105.066-.237-.223-.336-.378-6.815-10.798-13.719-21.785-20.54-32.586 2.449-3.384 4.916-6.752 7.375-10.127a29.458 29.458 0 0 1-6.235-5.773c-1.837-.788-3.365-1.951-4.893-3.056-1.757-1.271-3.536-2.573-5.462-3.749-2.627-1.614-6.143-3.522-10.579-3.207-1.31.088-2.72.303-3.752.831-.84.432-1.605 1.254-2.25 1.956-1.988 2.186-3.467 4.943-3.917 8.626-.645 5.327 1.116 9.952 2.877 13.627 1.793 3.743 4.268 6.937 7.042 9.709 2.795 2.795 6.143 5.122 9.877 6.874-1.161-5.247-.138-12.678-5.294-14.002-1.658-.425-3.884-.192-6.163-.251-.078-.187.351-.402.579-.534.756-.459 1.812-.79 2.252-1.548-1.17-.708-2.366-1.385-3.542-2.081 1.863-.735 2.756-2.436 4.166-3.624-.69-.465-1.538-.99-2.042-1.5 4.997-1.164 9.919-2.394 14.919-3.548 2.106 16.147 4.273 32.239 6.422 48.336a74.705 74.705 0 0 0 22.589 3.482c9.67 0 18.9-1.856 27.383-5.198a19.722 19.722 0 0 1-4.228-.283zm3.209-87.252c-.948-1.523-2.115-2.922-2.75-4.584-1.986-5.159-4.064-10.629-6.125-15.831.372-.866.996-1.592 1.5-2.378 2.501-3.89 5.114-7.801 7.625-11.749a155.779 155.779 0 0 1 3.125-4.75c7.379 1.932 14.631 3.977 21.998 5.921.003.041.054.036.084.041 4.097 6.059 8.836 11.392 12.669 17.835 1.856 3.119 3.581 6.497 4.622 10.623.729 2.88 1.1 6.755.627 10.288a26.766 26.766 0 0 1-.291 1.629c-.105.503-.123 1.215-.336 1.58-.162.273-.702.588-.999.831-3.662 2.996-5.501 7.856-8.168 12-.945 1.476-2.06 2.967-3.332 3.96-1.518 1.181-3.389 1.764-5.627 1.212-.942-.234-1.791-.594-2.622-1.044-.414-.223-.78-.468-1.209-.624-4.101-1.458-6.929-3.96-9.502-6.962-4.489-5.226-7.537-11.939-11.289-17.998z"/></g><path d="M18.004 80.489c.025.032.053.061.099.113v-1.085c0-.107.004-.214-.005-.32-.022-.255-.099-.332-.351-.376-.031-.005-.059-.027-.089-.042a.566.566 0 0 1 .016-.036h3.465v.908c-.037-.023-.068-.034-.087-.056-.015-.018-.016-.048-.022-.073-.102-.397-.279-.559-.68-.594-.189-.017-.382-.003-.575-.003v1.214c.292.024.463-.08.556-.346.032-.092.042-.191.069-.285.009-.031.037-.058.056-.086l.032.019v1.573l-.035.018c-.02-.033-.046-.064-.058-.1-.029-.093-.044-.191-.078-.282-.091-.246-.276-.347-.539-.323 0 .368-.007.738.007 1.108.002.054.098.144.158.151.656.076 1.099-.081 1.314-.692.012-.035.047-.063.071-.094l.034.022-.133.941H18.62l-.012-.033c.028-.013.056-.036.085-.038.286-.022.339-.072.339-.362.002-.735.001-1.47-.001-2.205-.001-.2-.072-.276-.269-.302-.335-.043-.491.098-.494.464-.004.504-.001 1.008-.001 1.513v1.067c-.061-.044-.106-.065-.134-.099-.618-.763-1.235-1.528-1.852-2.292-.034-.042-.07-.083-.119-.141-.003.055-.007.091-.007.127v1.743c0 .353.06.422.413.487.022.004.04.031.087.071h-1.113v-.077c.319.005.434-.104.443-.42v-.115c0-.627-.004-1.254.003-1.881a.429.429 0 0 0-.126-.317c-.089-.097-.202-.12-.32-.138v-.077c.316.001.632.005.948-.001a.225.225 0 0 1 .203.097M23.285 77.511a.258.258 0 0 1-.199-.085c-1.185-1.189-2.373-2.376-3.556-3.567a.295.295 0 0 1-.076-.187c-.002-1.688 0-3.375.005-5.063 0-.056.026-.127.065-.166 1.019-1.023 2.041-2.044 3.062-3.064.021-.021.044-.039.064-.057l3.622 3.61c.03-.042.054-.09.09-.126.887-.889 1.777-1.776 2.663-2.666a.273.273 0 0 1 .212-.089c1.478.005 2.956.005 4.434.011.06 0 .134.03.176.072a781.32 781.32 0 0 1 3.151 3.156c.041.042.07.116.071.175.003 1.482.003 2.965-.001 4.447 0 .053-.02.121-.056.157-1.031 1.035-2.065 2.067-3.099 3.1-.009.009-.02.015-.01.008l-2.588-2.527c-.014.013-.048.043-.08.075-.898.897-1.796 1.793-2.691 2.692a.28.28 0 0 1-.222.095M24.699 80.248c-.002 1.024-.801 1.703-1.847 1.57-.656-.083-1.136-.487-1.305-1.098-.185-.664.022-1.321.538-1.725.356-.278.768-.33 1.199-.294.857.072 1.417.687 1.415 1.547zm-2.406.001c.011.385.026.771.242 1.11a.657.657 0 0 0 1.107.018c.068-.101.12-.217.154-.334.128-.434.125-.879.057-1.32a1.857 1.857 0 0 0-.195-.574c-.132-.249-.416-.35-.693-.294-.276.056-.429.247-.53.49-.12.288-.133.596-.142.904zM33.622 78.688c.781.01 1.397.49 1.53 1.198.151.803-.226 1.568-.918 1.833-.647.248-1.683.173-2.117-.767-.414-.897.037-1.949.947-2.203a.956.956 0 0 1 .175-.037c.127-.011.255-.016.383-.024zm.759 1.533c-.008-.124-.012-.274-.027-.422a1.455 1.455 0 0 0-.205-.653.658.658 0 0 0-.698-.292c-.299.061-.454.273-.549.536-.126.351-.135.718-.116 1.087.015.283.057.56.192.815.085.159.202.285.381.34.36.111.674-.031.846-.386.153-.316.166-.657.176-1.025zM28.129 81.567v-.676c-.002-.22-.076-.295-.297-.313-.033-.003-.064-.021-.097-.033a.467.467 0 0 0 .011-.04H29.2l.02.025c-.024.017-.046.045-.072.05-.244.05-.279.088-.284.341-.004.188.003.376-.005.563-.002.042-.037.105-.073.12-.528.218-1.078.3-1.641.187-.739-.148-1.236-.736-1.25-1.448-.015-.769.463-1.422 1.186-1.608a1.896 1.896 0 0 1 1.17.051l.216.078c.148.05.203.025.281-.112.018-.032.054-.053.082-.08.011.037.031.074.031.112.003.315.001.63.001.945a1.463 1.463 0 0 1-.04.021c-.026-.035-.061-.067-.077-.106-.112-.271-.277-.498-.534-.65-.575-.339-1.209-.103-1.402.532-.146.48-.152.968-.019 1.452.167.606.761.866 1.339.589z" fill="#828282"/><path d="M30.257 80.325v1.059c0 .113.055.192.17.205.3.032.598.029.872-.122.231-.126.352-.338.441-.576.013-.035.046-.062.07-.093l.035.021-.133.942c-.039.002-.076.007-.113.007h-2.383c-.021 0-.044.005-.064-.001-.02-.007-.036-.024-.054-.037.017-.014.032-.037.05-.041.367-.071.368-.071.368-.45 0-.696 0-1.392-.002-2.088-.001-.242-.075-.316-.318-.335-.036-.003-.071-.02-.106-.03l.011-.043h2.517v.907c-.037-.027-.062-.044-.086-.064-.006-.005-.006-.016-.008-.024-.091-.462-.343-.645-.852-.646h-.414v1.216c.253.038.438-.057.532-.288.041-.101.056-.213.087-.319.011-.038.035-.071.052-.107a.64.64 0 0 1 .039.016v1.57l-.025.021c-.022-.028-.054-.053-.065-.085-.031-.097-.044-.2-.082-.294-.102-.252-.236-.329-.539-.321zM38.149 81.709v-.295h.174c.185-.003.209-.024.209-.206.002-.406.001-.812.001-1.218 0-.261.002-.521-.001-.782-.003-.242-.014-.25-.27-.244v.883h-.296c-.029-.088-.054-.181-.09-.271-.13-.321-.413-.515-.73-.504-.312.01-.575.215-.686.543a1.92 1.92 0 0 0 .016 1.257c.157.466.677.632 1.125.362.126-.076.234-.185.341-.288.089-.086.164-.185.266-.303 0 .216.002.409-.003.601-.001.027-.036.055-.06.078-.508.512-1.115.568-1.764.362-.534-.17-.851-.559-.963-1.1a1.616 1.616 0 0 1 1.657-1.931c.217.011.431.089.646.138.06.014.118.036.19.059l.051-.219c.66.015 1.324-.001 1.981.055.645.055 1.114.561 1.211 1.203.054.358.028.707-.128 1.038-.227.485-.639.733-1.144.77-.573.045-1.151.012-1.733.012zm.108-2.909l.012.032.075.006c.231.007.3.064.302.296.007.705.007 1.409.004 2.114-.001.218-.068.272-.287.288-.035.003-.07.02-.105.031l.009.041c.255 0 .511.003.766-.001.286-.005.575.009.856-.029.535-.072.939-.342 1.091-.885a2.11 2.11 0 0 0 .063-.644c-.021-.496-.367-1.17-1.087-1.237-.542-.05-1.091-.033-1.637-.044-.02-.001-.041.021-.062.032zm-.179 2.208c-.132.109-.253.23-.394.32-.462.294-1.066.166-1.268-.284-.233-.52-.252-1.063-.023-1.59.224-.517.871-.661 1.314-.311.164.129.261.3.323.495.012.038.04.07.061.106l.032-.017v-.954a.124.124 0 0 0-.084.072c-.046.11-.124.147-.236.109-.073-.024-.145-.05-.217-.076a1.677 1.677 0 0 0-.779-.093c-.812.096-1.434.928-1.282 1.724.1.524.387.904.901 1.065.552.173 1.085.151 1.551-.257a.29.29 0 0 0 .101-.309zM25.309 79.757a.431.431 0 1 1-.003.863.43.43 0 0 1-.434-.44.424.424 0 0 1 .437-.423z" fill="#828282"/><path d="M22.645 65.893l3.32 3.31c-.202.115-.146.309-.147.487-.002.722-.002 1.444-.002 2.166 0 .029.003.059.006.104h.14c.867.001 1.735.002 2.602 0 .088 0 .148.025.212.088.765.752 1.533 1.5 2.306 2.256-.063.069-.089.101-.117.13-.87.87-1.74 1.74-2.614 2.606a.291.291 0 0 1-.187.075c-1.568.004-3.136.002-4.704.004a.255.255 0 0 1-.2-.084c-1.11-1.114-2.222-2.225-3.33-3.341a.293.293 0 0 1-.077-.186 1059.53 1059.53 0 0 1 0-4.717c0-.057.021-.13.06-.168.892-.897 1.787-1.79 2.682-2.684a.338.338 0 0 1 .05-.046zm4.186 6.589c-.08.165-.16.301-.214.447-.095.26-.174.526-.258.789-.219.688-.694 1.093-1.393 1.223-.514.096-1.032.119-1.555-.138.198.308.423.527.749.624.38.114.767.099 1.156.062.236-.022.469-.058.659-.213.932-.753 1.136-1.647.856-2.794zm-2.77-1.822c.105.005.175.001.241.013.087.015.143-.011.186-.09.063-.116.133-.228.205-.339.065-.1.07-.194.003-.297-.088-.135-.181-.27-.251-.415-.074-.152-.182-.18-.343-.189-.218-.012-.359.048-.455.247-.062.129-.213.241-.219.366-.006.13.124.262.176.4.09.233.222.377.457.304zM22 71.839c.089-.001.422-.255.44-.316.002-.008.005-.018.001-.025-.071-.133-.11-.318-.221-.388-.356-.223-.707 0-.777.379-.003.017.004.045.017.056.162.15.339.272.54.294zM32.588 72.801c.317-.154.627-.305.938-.453.071-.034.101-.079.127-.156.13-.385.071-.766.002-1.149a1.764 1.764 0 0 1-.018-.127c-.003-.025-.003-.05-.005-.09l1.408-.316.213.91c.021.091.029.188.064.274.149.372.073.737-.025 1.101-.01.038-.058.081-.098.093-.15.047-.303.092-.458.119-.1.018-.13.071-.147.159-.05.26-.105.518-.158.777-.011.056-.021.099-.097.108-.347.043-.693.096-1.04.14-.038.005-.09-.02-.121-.048a5.572 5.572 0 0 1-.325-.309.28.28 0 0 1-.068-.131c-.065-.293-.126-.589-.192-.902zM30.938 69.538c-.033.326-.062.623-.097.919-.004.036-.042.083-.077.098-.18.078-.362.15-.546.216a.152.152 0 0 1-.124-.021 16.31 16.31 0 0 1-.596-.483c-.031-.026-.051-.087-.048-.129.025-.286.051-.537.093-.851.005-.04.058-.075.09-.111.002-.003.008-.001.012-.002l.57-.133c.23.147.46.292.688.441.023.014.032.051.035.056zM31.844 67.774c.024.004.057.009.089.016.418.084.42.083.569.486.013.034-.005.084-.021.122-.013.03-.044.051-.067.076-.292.323-.292.323-.709.211-.024-.006-.063-.018-.065-.03-.016-.129-.061-.269-.029-.387.044-.168.147-.32.233-.494z" fill="#171717"/><path d="M39.334 78.93c.381-.052.605.055.789.378.153.268.19.562.192.863.002.3-.016.597-.14.877-.127.288-.349.422-.659.406-.14-.007-.189-.047-.19-.184-.003-.772-.002-1.544-.002-2.317 0-.008.006-.015.01-.023zm.115 2.386c.315.045.511-.062.624-.343.118-.295.133-.606.117-.919-.015-.29-.075-.564-.251-.805-.125-.171-.296-.209-.49-.199v2.266z" fill="#828282"/><g><path d="M82.34 139.842a2.097 2.097 0 0 1-.004.095c-.011.101 0 .149-.291.149s-.279-.048-.291-.149a5.565 5.565 0 0 1 0-.594c.011-.101 0-.149.291-.149s.279.048.291.149c.002.014.003.053.004.101h.398a3.636 3.636 0 0 0-.011-.205c-.023-.202.057-.395-.681-.395-.738 0-.658.193-.681.395a4.883 4.883 0 0 0-.014.401c.001.168.006.335.014.401.023.202-.057.395.681.395.738 0 .658-.193.681-.395.004-.038.008-.111.01-.199h-.397zM77.621 138.885l-.389 1.134-.388-1.134-.581-.003v1.522h.388v-1.134l.389 1.134h.388l.385-1.134v1.134h.389v-1.522zM82.825 138.882h1.116v.388h-.364v1.134h-.388v-1.134h-.364zM79.831 140.404l.446-1.524h.579l.446 1.524h-.388l-.092-.315h-.509l.072-.247h.364l-.181-.621-.348 1.183zM75.328 139.195c.291 0 .279.048.291.149.004.033.006.212.007.297 0 .084-.003.264-.007.297-.011.101 0 .149-.291.149s-.279-.048-.291-.149a5.565 5.565 0 0 1 0-.594c.012-.102 0-.149.291-.149v-.35c-.738 0-.658.193-.681.395a4.883 4.883 0 0 0-.014.401c.001.168.006.335.014.401.023.202-.057.395.681.395.738 0 .658-.193.681-.395.007-.066.013-.232.014-.401a4.123 4.123 0 0 0-.014-.401c-.023-.202.057-.395-.681-.395v.35zM74.017 139.842a2.097 2.097 0 0 1-.004.095c-.011.101 0 .149-.291.149s-.279-.048-.291-.149a5.565 5.565 0 0 1 0-.594c.011-.101 0-.149.291-.149s.279.048.291.149c.002.014.003.053.004.101h.398a3.636 3.636 0 0 0-.011-.205c-.023-.202.057-.395-.681-.395-.738 0-.658.193-.681.395a4.883 4.883 0 0 0-.014.401c.001.168.006.335.014.401.023.202-.057.395.681.395.738 0 .658-.193.681-.395a3.4 3.4 0 0 0 .011-.199h-.398zM79.147 140.056h-.236v-.347l.236-.001c.291 0 .282-.048.293-.149.004-.033.003-.006.003-.09 0-.084.001-.055-.003-.088-.011-.101-.002-.149-.293-.149l-.236.001v1.17h-.389v-1.521h.624c.738 0 .657.194.684.395.003.024.003.134.003.193 0 .048 0 .158-.003.193-.017.202.055.393-.683.393zM71.595 146.138l-2.431-.003a.637.637 0 0 1-.637-.637v-3.7c0-.352.285-.637.637-.637l1.521-.002a.33.33 0 0 0 .331-.331l.004-1.479c0-.077.062-.139.139-.139h.892c.077 0 .139.062.139.139L72.2 146a.139.139 0 0 1-.139.139l-.466-.001-.011.33h.608a.33.33 0 0 0 .331-.331v-6.928a.33.33 0 0 0-.331-.331h-1.17a.33.33 0 0 0-.331.331l.002 1.483a.139.139 0 0 1-.139.139l-1.39-.003a.971.971 0 0 0-.971.971v3.7c0 .536.435.971.971.971l2.419-.001.012-.331z" fill="#828282"/><path d="M70.692 144.776v-2.394a.363.363 0 1 0-.726 0v2.584a.363.363 0 1 0 .726 0v-.19l.33.011v.179a.693.693 0 1 1-1.386 0v-2.584a.693.693 0 1 1 1.386 0v2.405l-.33-.011zM73.906 146.138h-.455a.139.139 0 0 1-.139-.139l.006-4.696c0-.077.062-.139.139-.139h.892c.077 0 .139.062.139.139l.009 4.696a.139.139 0 0 1-.139.139h-.452v.329l.583.001a.33.33 0 0 0 .331-.331v-4.975a.33.33 0 0 0-.331-.331h-1.17a.33.33 0 0 0-.331.331l-.001 4.973a.33.33 0 0 0 .33.331l.589.001v-.329zM78.107 142.089l-.98-.001a.546.546 0 0 0 0 1.092l1.342.004c.352 0 .637.285.637.637l-.004 1.671a.637.637 0 0 1-.637.637l-2.665.005a.139.139 0 0 1-.139-.139v-.647c0-.077.062-.139.139-.139l1.816-.006a.546.546 0 0 0 0-1.092l-1.315-.005a.637.637 0 0 1-.637-.637V141.8c0-.352.285-.637.637-.637l2.47-.012c.077 0 .139.062.139.139v.662a.139.139 0 0 1-.139.139l-.664-.002-.011.325h.812a.33.33 0 0 0 .331-.33l.001-.927a.33.33 0 0 0-.331-.331l-2.608.001a.971.971 0 0 0-.971.971v1.669c0 .536.435.971.971.971l1.315-.002a.219.219 0 1 1 0 .438h-1.957a.33.33 0 0 0-.331.331v.925a.33.33 0 0 0 .331.331l2.806-.001a.971.971 0 0 0 .971-.971l.004-1.671a.971.971 0 0 0-.971-.971l-1.342.004a.219.219 0 1 1 0-.438h.968l.012-.324zM83.045 143.007h.421a.139.139 0 0 0 .139-.139l-.002-1.069a.637.637 0 0 0-.637-.637H80.86a.637.637 0 0 0-.637.637v3.7c0 .352.285.637.637.637h2.105a.637.637 0 0 0 .637-.637l.002-1.017a.139.139 0 0 0-.139-.139h-.794a.139.139 0 0 0-.139.139l.004.485c0 .383-.241.693-.624.693s-.624-.31-.624-.693v-2.584c0-.383.241-.693.624-.693s.624.31.624.693l-.004.485c0 .077.062.139.139.139h.374l-.011.333h-.5a.33.33 0 0 1-.331-.331l.004-.627c0-.201-.093-.363-.294-.363-.201 0-.294.163-.294.363v2.584c0 .201.093.363.294.363.201 0 .294-.163.294-.363l-.004-.626a.33.33 0 0 1 .331-.331h1.072a.33.33 0 0 1 .331.331l-.001 1.158a.971.971 0 0 1-.971.971H80.86a.971.971 0 0 1-.971-.971v-3.7c0-.536.435-.971.971-.971h2.105c.536 0 .971.435.971.971l.001 1.211a.33.33 0 0 1-.331.331h-.573l.012-.333z" fill="#828282"/></g><g fill="#a8a8a8"><path d="M18.969 87.953l.616 1.643.619-1.643h.356v1.955h-.246v-1.627h-.006l-.61 1.627h-.222l-.61-1.627h-.006v1.627h-.246v-1.955h.355zM21.757 87.953l.764 1.955h-.288l-.213-.589h-.827l-.219.589h-.266l.762-1.955h.287zm.181 1.148l-.326-.912h-.005l-.332.912h.663zM23.329 87.953c.301 0 .533.076.695.229s.244.388.244.701c0 .164-.018.311-.055.437a.823.823 0 0 1-.17.321c-.077.086-.174.152-.293.198s-.259.068-.421.068h-.671v-1.955h.671zm.022 1.736a.67.67 0 0 0 .396-.115.495.495 0 0 0 .13-.135.732.732 0 0 0 .095-.212c.024-.085.037-.188.037-.308 0-.117-.011-.222-.034-.313a.588.588 0 0 0-.112-.236c-.052-.064-.119-.113-.201-.147s-.184-.051-.304-.051h-.438v1.518h.431zM25.88 87.953v.219h-1.09v.622h1.016v.219H24.79v.677h1.098v.219H24.53v-1.955h1.35zM27.127 87.953v1.955h-.26v-1.955h.26zM27.784 87.953l1.03 1.585h.005v-1.585h.247v1.955h-.285l-1.021-1.569h-.005v1.569h-.247v-1.955h.276zM31.105 89.615a.447.447 0 0 1-.274.292.757.757 0 0 1-.275.045c-.183 0-.323-.048-.422-.144-.099-.097-.148-.237-.148-.424v-.12h.26v.082c0 .057.004.108.014.156s.025.089.048.123c.023.035.055.062.096.081s.093.028.157.028c.119 0 .2-.031.245-.096a.435.435 0 0 0 .067-.257v-1.43h.26v1.468a.678.678 0 0 1-.028.196zM32.324 87.953l.764 1.955H32.8l-.213-.589h-.827l-.219.589h-.266l.762-1.955h.287zm.181 1.148l-.326-.912h-.005l-.332.912h.663zM34.083 87.953c.197 0 .346.051.448.151.101.102.152.244.152.426 0 .183-.051.325-.152.428-.102.103-.25.152-.448.15h-.597v.8h-.26v-1.955h.857zm-.088.937c.148.002.256-.028.325-.091.068-.062.103-.151.103-.269 0-.116-.034-.205-.103-.267s-.177-.092-.325-.092h-.509v.718h.509zM35.561 87.953l.764 1.955h-.288l-.213-.589h-.827l-.219.589h-.266l.762-1.955h.287zm.181 1.148l-.326-.912h-.005l-.332.912h.663zM36.736 87.953l1.03 1.585h.005v-1.585h.247v1.955h-.285l-1.021-1.569h-.005v1.569h-.247v-1.955h.276zM21.749 91.505l.877 2.347h-.536l-.177-.522h-.877l-.184.522h-.519l.887-2.347h.529zm.03 1.439l-.296-.86h-.006l-.306.86h.608zM23.776 91.505c.151 0 .292.024.422.072a.93.93 0 0 1 .562.579c.054.144.081.314.081.509 0 .171-.022.329-.066.474s-.11.27-.199.374a.93.93 0 0 1-.332.248 1.11 1.11 0 0 1-.468.091h-1.012v-2.347h1.012zm-.036 1.913a.663.663 0 0 0 .217-.036c.07-.024.133-.064.188-.12s.099-.129.131-.219a.956.956 0 0 0 .049-.328 1.36 1.36 0 0 0-.034-.32.624.624 0 0 0-.114-.245c-.052-.068-.122-.12-.208-.156s-.193-.054-.32-.054h-.369v1.479h.46zM26.639 92.131a.546.546 0 0 0-.271-.217.533.533 0 0 0-.183-.031c-.116 0-.215.022-.296.067s-.146.105-.197.181a.783.783 0 0 0-.11.259 1.275 1.275 0 0 0 0 .586c.023.094.06.177.11.252.05.074.116.134.197.179s.18.067.296.067c.158 0 .281-.048.37-.145s.143-.224.163-.381h.5c-.013.146-.047.279-.102.397s-.127.219-.217.302a.913.913 0 0 1-.316.191c-.12.043-.253.065-.397.065-.18 0-.341-.031-.485-.094s-.264-.148-.363-.258-.174-.238-.227-.387a1.427 1.427 0 0 1-.079-.478c0-.176.026-.338.079-.488.053-.15.128-.281.227-.393.099-.112.219-.199.363-.263s.305-.096.485-.096c.129 0 .251.019.366.056.115.037.218.092.309.163s.166.159.225.265a.939.939 0 0 1 .112.361h-.5a.408.408 0 0 0-.059-.16zM28.515 91.505c.151 0 .292.024.422.072a.93.93 0 0 1 .562.579c.054.144.081.314.081.509 0 .171-.022.329-.066.474s-.11.27-.199.374a.93.93 0 0 1-.332.248 1.11 1.11 0 0 1-.468.091h-1.012v-2.347h1.012zm-.036 1.913a.663.663 0 0 0 .217-.036c.07-.024.133-.064.188-.12s.099-.129.131-.219a.956.956 0 0 0 .049-.328 1.36 1.36 0 0 0-.034-.32.624.624 0 0 0-.114-.245c-.052-.068-.122-.12-.208-.156s-.193-.054-.32-.054h-.368v1.479h.459zM30.81 92.754v.401h-.99v-.401h.99zM31.054 92.128c.045-.152.106-.274.183-.366s.166-.158.268-.197a.88.88 0 0 1 .324-.06c.116 0 .225.02.327.06a.67.67 0 0 1 .27.197c.078.092.139.214.184.366s.067.34.067.563c0 .23-.022.423-.067.577s-.106.277-.184.369a.657.657 0 0 1-.27.197.888.888 0 0 1-.327.06.88.88 0 0 1-.324-.06c-.102-.039-.191-.105-.268-.197s-.138-.215-.183-.369-.067-.347-.067-.577a1.977 1.977 0 0 1 .067-.563zm.406.802c.004.093.019.183.042.27s.06.16.11.222.123.092.217.092c.097 0 .17-.03.222-.092a.573.573 0 0 0 .111-.222c.023-.087.037-.177.042-.27.004-.093.006-.173.006-.238l-.001-.143a1.766 1.766 0 0 0-.046-.349c-.014-.058-.036-.11-.064-.156s-.064-.083-.108-.111-.098-.043-.161-.043-.117.015-.159.043a.329.329 0 0 0-.105.111.663.663 0 0 0-.064.156 1.3 1.3 0 0 0-.033.176c-.007.06-.01.117-.012.173l-.001.143a2.49 2.49 0 0 0 .004.238zM32.815 92.128c.045-.152.106-.274.183-.366s.166-.158.268-.197a.88.88 0 0 1 .324-.06c.116 0 .225.02.327.06a.67.67 0 0 1 .27.197c.078.092.139.214.184.366s.067.34.067.563c0 .23-.022.423-.067.577s-.106.277-.184.369a.657.657 0 0 1-.27.197.888.888 0 0 1-.327.06.88.88 0 0 1-.324-.06c-.102-.039-.191-.105-.268-.197s-.138-.215-.183-.369-.067-.347-.067-.577c0-.223.022-.411.067-.563zm.406.802c.004.093.019.183.042.27s.06.16.11.222.123.092.217.092c.097 0 .17-.03.222-.092a.573.573 0 0 0 .111-.222c.023-.087.037-.177.042-.27.004-.093.006-.173.006-.238l-.001-.143a1.766 1.766 0 0 0-.046-.349c-.014-.058-.036-.11-.064-.156s-.064-.083-.108-.111-.098-.043-.161-.043-.117.015-.159.043a.329.329 0 0 0-.105.111.663.663 0 0 0-.064.156 1.3 1.3 0 0 0-.033.176c-.007.06-.01.117-.012.173l-.001.143a2.49 2.49 0 0 0 .004.238zM35.351 92.481c.057-.005.11-.018.16-.038s.09-.051.122-.09a.246.246 0 0 0 .047-.158.273.273 0 0 0-.099-.227.349.349 0 0 0-.227-.079c-.118 0-.208.039-.268.116a.458.458 0 0 0-.087.295h-.443a.953.953 0 0 1 .064-.324.727.727 0 0 1 .409-.414.87.87 0 0 1 .322-.058c.092 0 .184.014.276.041a.78.78 0 0 1 .248.124.672.672 0 0 1 .179.2c.046.079.069.17.069.272 0 .112-.027.211-.081.296s-.134.144-.242.174v.007c.127.028.227.09.299.185a.54.54 0 0 1 .108.338.697.697 0 0 1-.26.558.856.856 0 0 1-.272.145c-.103.033-.21.05-.322.05-.129 0-.247-.019-.353-.056a.712.712 0 0 1-.443-.425.914.914 0 0 1-.058-.354h.444c.002.062.012.12.029.176s.043.104.076.145a.356.356 0 0 0 .123.097.398.398 0 0 0 .176.036c.105 0 .194-.032.266-.097s.108-.152.108-.265a.334.334 0 0 0-.051-.2.304.304 0 0 0-.129-.101.56.56 0 0 0-.173-.036 3.773 3.773 0 0 0-.179-.005v-.328c.051.004.105.004.162 0z"/></g></svg>