<svg xmlns="http://www.w3.org/2000/svg" viewBox="0 0 178.041 221.696"><path d="M86.78.013C63.72-.082 29.224-.224 15.447 21.346c-1.861 2.913-3.064 5.785-5.333 15-6.513 26.443-7.705 47.864-8.739 68.667-2.597 52.272-2.654 69.75 10.155 84.417.469.538.917 1.021.917 1.021 7.846 8.32 18.906 9.808 25.833 10.646 19.269 2.331 30.25 3 30.25 3 25.052 1.527 37.393 3.047 45 4.5 16.307 3.114 18.317 4.365 25.058 8.046.593.324 8.928 4.317 11.317 4.829 0 0 7.708 1.651 16.625-4 16.599-10.519 11.618-76.774 7.25-139.625-.082-1.186-.213-3.06-.469-5.566-1.032-10.092-4.135-40.444-17.031-56.184C143.293.246 121.145.155 86.78.013z" fill="#8c8c8c"/><circle cx="90.803" cy="154.461" r="14" fill="#918f8b"/><g fill="#7b7677"><path d="M92.226 147.249a7.36 7.36 0 0 1 5.772 5.705h2.489a9.807 9.807 0 0 0-8.261-8.19v2.485zM89.321 147.26a7.36 7.36 0 0 0-5.714 5.694h-2.489a9.807 9.807 0 0 1 8.261-8.19v2.485l-.058.011zM89.379 161.673a7.358 7.358 0 0 1-5.804-5.872h-2.481a9.807 9.807 0 0 0 8.285 8.357v-2.485zM92.226 161.673a7.358 7.358 0 0 0 5.804-5.872h2.481a9.807 9.807 0 0 1-8.285 8.357v-2.485z"/></g><g fill="#898784" stroke="#4c4c4c" stroke-width=".01" stroke-miterlimit="10"><path d="M80.332 141.142v-4.425h1.344c.405 0 .728.114.968.341.241.228.361.534.361.917 0 .257-.062.485-.185.683a1.074 1.074 0 0 1-.507.432c-.215.09-.522.134-.923.134h-.449v1.917h-.609zm1.238-3.861h-.628v1.382h.665c.247 0 .437-.061.571-.182.133-.121.2-.294.2-.521 0-.453-.269-.679-.808-.679zM85.614 136.66c.655 0 1.201.216 1.636.648s.654.974.654 1.626c0 .651-.22 1.19-.66 1.618-.44.427-.995.641-1.664.641-.639 0-1.171-.214-1.597-.641-.425-.427-.638-.962-.638-1.605 0-.66.214-1.206.643-1.638.429-.432.971-.649 1.626-.649zm.025.602c-.485 0-.884.158-1.196.474-.313.316-.469.72-.469 1.211 0 .477.157.873.47 1.189s.706.475 1.176.475c.473 0 .868-.162 1.184-.484.316-.323.475-.725.475-1.205 0-.468-.158-.862-.475-1.182s-.705-.478-1.165-.478zM93.803 136.724h.605l-1.714 4.438h-.133l-1.386-3.593-1.4 3.593h-.13l-1.709-4.438h.612l1.168 3.046 1.176-3.046h.574l1.182 3.046 1.155-3.046zM94.879 136.724h2.404v.563h-1.797v1.347h1.736v.566h-1.736v1.373h1.854v.563h-2.461v-4.412zM98.004 141.142v-4.418h1.063c.429 0 .77.11 1.021.332.252.221.378.521.378.898 0 .257-.062.48-.185.667-.124.188-.3.328-.531.421.136.093.268.219.398.379.129.16.312.44.546.838.148.251.266.439.355.566l.225.316h-.723l-.185-.291c-.006-.011-.019-.029-.037-.054l-.118-.174-.188-.323-.203-.345a3.438 3.438 0 0 0-.344-.434c-.104-.107-.199-.185-.283-.232s-.225-.071-.424-.071h-.158v1.923h-.607zm.79-3.88h-.182v1.395h.23c.308 0 .519-.027.633-.082s.203-.138.267-.248a.753.753 0 0 0 .096-.378c0-.139-.036-.265-.106-.378s-.17-.192-.299-.239-.342-.07-.639-.07z"/></g><circle cx="90.803" cy="154.378" r="4.969" fill="#837c6f"/><circle cx="90.803" cy="180.972" r="11.223" fill="#918f8b"/><g fill="#7b7677"><path d="M91.944 175.19a5.901 5.901 0 0 1 4.627 4.573h1.996a7.862 7.862 0 0 0-6.622-6.566l-.001 1.993zM89.615 175.199a5.902 5.902 0 0 0-4.581 4.564h-1.996a7.862 7.862 0 0 1 6.622-6.566v1.992l-.045.01zM89.661 186.753a5.898 5.898 0 0 1-4.653-4.707h-1.989a7.86 7.86 0 0 0 6.642 6.699v-1.992zM91.944 186.753a5.898 5.898 0 0 0 4.653-4.707h1.989a7.86 7.86 0 0 1-6.642 6.699v-1.992z"/></g><circle cx="90.803" cy="180.905" r="3.983" fill="#5e4c3f"/><g fill="#898784" stroke="#4c4c4c" stroke-width=".01" stroke-miterlimit="10"><path d="M82.813 174.224v-4.418h1.063c.429 0 .77.11 1.021.332.252.221.378.521.378.898 0 .257-.062.48-.185.667-.124.188-.3.328-.531.421.136.093.268.219.398.379.129.16.312.44.546.838.148.251.266.439.355.566l.225.316h-.723l-.185-.291c-.006-.011-.019-.029-.037-.054l-.118-.174-.188-.323-.203-.345a3.438 3.438 0 0 0-.344-.434c-.104-.107-.199-.185-.283-.232s-.225-.071-.424-.071h-.158v1.923h-.607zm.79-3.88h-.182v1.395h.23c.308 0 .519-.027.633-.082s.203-.138.267-.248a.753.753 0 0 0 .096-.378c0-.139-.036-.265-.106-.378s-.17-.192-.299-.239-.342-.07-.639-.07zM86.549 169.806h2.404v.563h-1.797v1.347h1.736v.566h-1.736v1.373h1.854v.563h-2.461v-4.412zM90.707 172.373l-.461-.292c-.29-.184-.495-.365-.618-.543s-.184-.383-.184-.615c0-.348.116-.63.348-.848.231-.217.533-.326.903-.326.354 0 .679.104.974.311v.718c-.306-.306-.634-.459-.986-.459a.793.793 0 0 0-.489.144.44.44 0 0 0-.191.367.58.58 0 0 0 .141.372c.094.115.245.237.453.364l.463.286c.517.322.776.732.776 1.229 0 .354-.114.642-.341.863-.228.222-.523.333-.888.333-.419 0-.8-.134-1.145-.403v-.803c.328.433.708.649 1.138.649.19 0 .349-.055.475-.166s.189-.249.189-.415c.001-.27-.185-.524-.557-.766zM92.504 169.806h2.404v.563h-1.797v1.347h1.736v.566h-1.736v1.373h1.854v.563h-2.461v-4.412zM95.251 169.8h3.542v.563h-1.478v3.862h-.61v-3.862h-1.454v-.563z"/></g><path d="M89.02 27.013a1.231 1.231 0 0 1-1.228-1.228V9.075c0-.676.553-1.228 1.228-1.228.676 0 1.228.553 1.228 1.228v16.71a1.23 1.23 0 0 1-1.228 1.228zM65.424 14.335l1.08 3.852a1.295 1.295 0 0 0 1.592.895 1.295 1.295 0 0 0 .895-1.592l-1.078-3.852v-4c0-.71-.581-1.292-1.292-1.292-.71 0-1.292.581-1.292 1.292l.095 4.697zM112.617 14.335l-1.08 3.852a1.295 1.295 0 0 1-1.592.895 1.295 1.295 0 0 1-.895-1.592l1.078-3.852v-4c0-.71.581-1.292 1.292-1.292.71 0 1.292.581 1.292 1.292l-.095 4.697zM.61 121.378h17.586v-3.573H.766M162.32 99.305h3.329V113.9h-3.329z" fill="#939393"/><path fill="#939393" d="M175.478 102.587H162.32v-3.282h12.939M175.817 107.795H162.32v-3.282h13.285M158.126 221.051v-27.72h-3.103v28.239"/><path fill="#939393" d="M176.613 191.78h-20.039v3.103h19.611"/><g fill="#91918b"><path d="M138.207 127.512l-4.158 4.623a3.024 3.024 0 0 0 .226 4.259l5.447 4.899 8.191-9.108-5.447-4.899a3.025 3.025 0 0 0-4.259.226zm5.736 5.221l-4.096 4.554-2.724-2.449a1.513 1.513 0 0 1-.113-2.13l2.079-2.312a1.513 1.513 0 0 1 2.13-.113l2.724 2.45zM135.526 156.404l4.397 4.397a3.024 3.024 0 0 0 4.265 0l5.18-5.18-8.662-8.662-5.18 5.18a3.024 3.024 0 0 0 0 4.265zm5.517-5.452l4.331 4.331-2.59 2.59a1.514 1.514 0 0 1-2.133 0l-2.198-2.198a1.514 1.514 0 0 1 0-2.133l2.59-2.59z"/><path d="M152.775 158.351c-8.34 0-15.125-6.785-15.125-15.124 0-8.34 6.785-15.125 15.125-15.125s15.125 6.785 15.125 15.125c0 8.339-6.785 15.124-15.125 15.124z"/><path d="M164.236 162.283l4.397-4.397a3.024 3.024 0 0 0 0-4.265l-5.18-5.18-8.662 8.662 5.18 5.18a3.024 3.024 0 0 0 4.265 0zm-5.451-5.518l4.331-4.331 2.59 2.59a1.514 1.514 0 0 1 0 2.133l-2.198 2.198a1.514 1.514 0 0 1-2.133 0l-2.59-2.59z"/></g><g fill="#84817e"><path d="M123.813 145.972h-6.218a3.025 3.025 0 0 0-3.016 3.016v7.326h12.25v-7.326a3.025 3.025 0 0 0-3.016-3.016zm-.046 7.756h-6.125v-3.663c0-.829.679-1.508 1.508-1.508h3.109c.829 0 1.508.679 1.508 1.508v3.663zM105.497 183.089l4.791 3.964a3.025 3.025 0 0 0 4.246-.401l4.67-5.645-9.439-7.809-4.67 5.645a3.025 3.025 0 0 0 .402 4.246zm4.98-5.947l4.719 3.904-2.335 2.822a1.513 1.513 0 0 1-2.123.201l-2.395-1.982a1.513 1.513 0 0 1-.201-2.123l2.335-2.822z"/><path d="M121.59 182.304c-8.34 0-15.125-6.785-15.125-15.124 0-8.34 6.785-15.125 15.125-15.125s15.125 6.785 15.125 15.125c0 8.339-6.785 15.124-15.125 15.124z"/></g><circle cx="121.59" cy="167.469" r="11.156" fill="#004f8a"/><path d="M119.129 173.014h-2.726v-10.263h2.581c1.628 0 2.845.807 2.845 2.712 0 .836-.381 1.745-1.202 2.127.865.308 1.379 1.217 1.379 2.331-.002 2.051-1.176 3.093-2.877 3.093zm-.102-8.871h-1.202v2.786h1.173c.763 0 1.364-.44 1.364-1.423-.002-1.01-.558-1.363-1.335-1.363zm-.059 4.164h-1.144v3.314h1.291c.864 0 1.421-.469 1.421-1.701 0-1.144-.673-1.613-1.568-1.613z" fill="#014577"/><circle cx="18.196" cy="119.592" r="6.338" fill="#91918f"/><circle cx="163.985" cy="113.899" r="5.906" fill="#91918f"/><circle cx="156.574" cy="193.331" r="5.505" fill="#91918f"/><circle cx="27.087" cy="187.701" r="5.792" fill="#91918f"/><circle cx="52.446" cy="10.842" r="6.338" fill="#91918f"/><circle cx="125.594" cy="10.815" r="6.338" fill="#91918f"/><circle cx="148.852" cy="21.625" r="4.472" fill="#91918f"/><circle cx="29.188" cy="21.492" r="4.472" fill="#91918f"/><g><circle cx="18.196" cy="119.592" r="1.786" fill="#878786"/><circle cx="163.985" cy="113.899" r="1.665" fill="#878786"/><circle cx="156.574" cy="193.331" r="1.552" fill="#878786"/><circle cx="27.087" cy="187.701" r="1.632" fill="#878786"/><circle cx="52.446" cy="10.842" r="1.786" fill="#878786"/><circle cx="125.594" cy="10.815" r="1.786" fill="#878786"/><circle cx="148.852" cy="21.625" r="1.26" fill="#878786"/><circle cx="29.188" cy="21.492" r="1.26" fill="#878786"/></g><g><circle cx="152.885" cy="143.164" r="11.156" fill="#004f8a"/><path d="M152.64 148.79l-.602-2.712h-2.229l-.586 2.712h-1.525l2.521-10.262h1.481l2.507 10.262h-1.567zm-1.275-5.806c-.147-.675-.367-1.862-.441-2.243-.072.381-.293 1.554-.439 2.243l-.381 1.73h1.642l-.381-1.73z" fill="#014577"/></g><g><ellipse cx="89.02" cy="75.097" rx="67.406" ry="50.5"/><path d="M43.395 74.472c.229 16.312.167 22.458.542 28.667.075 1.237 1.542 1.583 9.583 1.958 6.995.326 15.425.5 35.501.5s28.505-.174 35.501-.5c8.042-.375 9.509-.721 9.583-1.958.375-6.208.313-12.354.542-28.667-.229-16.312-.167-22.458-.542-28.667-.075-1.237-1.542-1.583-9.583-1.958-6.995-.326-15.425-.5-35.501-.5s-28.505.174-35.501.5c-8.042.375-9.509.721-9.583 1.958-.375 6.208-.313 12.354-.542 28.667z" fill="#7e7646"/><path d="M57.284 109.227v6.708h1.793v-2.369h1.394s1.803-.133 1.803-1.432v-1.299s-.011-1.609-1.803-1.609c-1.773.001-3.179.023-3.187.001zm1.793 1.299h.956c.491.129.438.574.438.574v.566c0 .47-.438.566-.438.566h-.956v-1.706zM65.053 110.835c-.496-.001-2.48.139-2.48 2.537 0 2.74 2.59 2.563 2.59 2.563s2.53-.023 2.53-2.563-2.502-2.535-2.53-2.537h-.11zm.11 1.3s.926-.133.926 1.237c0 1.269-.926 1.131-.926 1.131s-.966.01-.966-1.131c0-1.375.966-1.222.966-1.237zM68.451 108.834h1.622v3.88l1.255-1.878h1.733l-1.733 2.249 1.733 2.853h-1.733l-1.255-2.375v2.375h-1.622v-7.104zM75.681 110.835c-1.913 0-2.351 1.296-2.351 2.537s.846 2.563 2.48 2.563 1.783-.292 1.783-.292v-.857c-.012-.003-1.338 0-2.042 0-.704 0-.568-.84-.568-.84h3.038v-.937c.001.001.002-2.174-2.34-2.174zm.11 1.114c.808 0 .817.283.817.283v.778h-1.624v-.778s-.001-.283.807-.283zM74.054 109.526l.613.769 2.331-1.237-.718-.794-2.197 1.25-.029.012zM78.829 115.938h1.434v-2.933s.06-.771.797-.771.737.771.737.771v2.933h1.355v-2.933s.03-.771.767-.771.737.771.737.771v2.933h1.404v-3.704s.1-1.399-1.404-1.399-1.504.832-1.504.832.179-.832-1.355-.832-1.534.832-1.534.832.219-.832-.608-.832h-.827v5.103zM89.437 110.838c-.496-.001-2.48.139-2.48 2.537 0 2.74 2.59 2.563 2.59 2.563s2.53-.023 2.53-2.563-2.502-2.535-2.53-2.537h-.11zm.109 1.299s.926-.133.926 1.237c0 1.269-.926 1.131-.926 1.131s-.966.01-.966-1.131c0-1.374.966-1.221.966-1.237zM92.863 115.938h1.564v-2.933s-.04-.771.827-.771.867.771.867.771v2.933h1.454v-3.704s.01-1.399-1.454-1.399-1.693.832-1.693.832.139-.832-.438-.832h-1.126v5.103z" fill="#fff"/><path d="M101.297 110.836h6.712s.648-.022.648.543v4.264s.014.295-.31.295h-.972s-.324-.007-.324-.295v-2.638s-.028-.337-.31-.337h-.972s-.324-.033-.324.337v2.638s-.042.295-.324.295h-.916s-.352.018-.352-.295v-2.638s.099-.337-.338-.337h-.916s-.324-.033-.324.337v2.638s0 .295-.324.295h-.972s-.296-.02-.296-.295v-4.264s.015-.502.614-.543zM111.191 113.376s.311-.021.311.273v1.995s-.033.295-.302.295h-.657s-.323-.008-.323-.295v-1.995s.014-.273.333-.273.618.01.638 0zM110.553 112.519s-.333.005-.333-.284v-.855s-.001-.283.338-.283h.637s.307-.006.307.283v.855s.032.284-.302.284-.637-.004-.647 0zM113.093 115.644s.01.295.329.295h.936s.329-.016.329-.295v-2.638s.01-.337.319-.337h.956s.329-.033.329.337v2.638s-.02.295.319.295h.647s.299-.016.299-.295v-3.976s-.01-.571-.637-.571h-3.177s-.647.005-.647.571c-.002.567.028 4.007-.002 3.976zM120.444 113.376s.311-.021.311.273v1.995s-.033.295-.302.295h-.657s-.323-.008-.323-.295v-1.995s.014-.273.333-.273c.32 0 .618.01.638 0zM119.807 112.519s-.333.005-.333-.284v-.855s-.001-.283.338-.283h.637s.307-.006.307.283v.855s.032.284-.302.284-.637-.004-.647 0z" fill="#f1d941"/><g fill-rule="evenodd" clip-rule="evenodd" fill="#fff"><path d="M102.662 29.745H75.379c-2.887-.006-4.827 2.092-4.827 4.608 0 2.515 1.935 4.59 4.831 4.59h27.273c2.896-.001 4.831-2.075 4.831-4.59.001-2.516-1.938-4.614-4.825-4.608zm-.014 8.07H75.393c-2.302.009-3.7-1.553-3.7-3.469s1.408-3.465 3.7-3.47h27.255c2.293.004 3.701 1.553 3.701 3.47 0 1.916-1.4 3.478-3.701 3.469z"/><path d="M77.398 35.191l-1.847-3.02h-1.334l-.001 4.331h1.326v-3.02l1.856 3.02h1.322v-4.331h-1.323zM87.907 33.627V33.2h-.698v-.583H85.92l.001.583h-.7v.427h.699v2.875h1.29l-.001-2.875zM79.458 33.622h1.288v2.88h-1.288zM79.455 32.171h1.291v.886h-1.291zM102.031 33.426c-1.04 0-1.882.724-1.882 1.617 0 .892.842 1.616 1.882 1.616s1.883-.724 1.883-1.616c-.001-.893-.843-1.617-1.883-1.617zm.516 2.223c0 .459-.268.649-.526.649s-.528-.19-.528-.649l.001-.621.001-.6c0-.457.269-.645.526-.645s.526.188.526.645l.001.613-.001.608zM98.458 33.765c-.206-.117-.423-.229-.729-.257-.928-.082-1.638.747-1.638 1.508 0 1.001.765 1.373.881 1.428.434.204.991.205 1.483-.108l.001.166h1.273v-4.33h-1.272c.001-.001.001.927.001 1.593zm.009 1.283v.511c0 .445-.304.561-.505.561-.205 0-.505-.116-.505-.561l.001-.512-.001-.514c0-.445.3-.558.505-.558.201 0 .505.113.505.558v.515zM83.762 33.489a1.542 1.542 0 0 0-1.027.434v-.303l-1.28.001.001 2.879h1.279l-.001-1.891c0-.251.261-.53.612-.53s.588.279.588.53V36.5h1.28v-1.566c.007-1.14-.971-1.458-1.452-1.445zM94.23 33.489a1.542 1.542 0 0 0-1.027.434c-.002-.071 0-.303 0-.303l-1.278.001-.001 2.879h1.279l-.002-1.891c0-.251.262-.53.612-.53.351 0 .588.279.588.53V36.5h1.28s-.001-1.364.001-1.566c.007-1.14-.971-1.458-1.452-1.445zM91.534 35.075c0-.893-.853-1.633-1.9-1.633s-1.897.724-1.897 1.616c0 .893.85 1.617 1.897 1.617.869 0 1.603-.502 1.827-1.182l-1.284.001.001.175c0 .527-.342.644-.532.644-.191 0-.539-.117-.539-.644l.002-.594h2.425zm-2.342-1.014a.526.526 0 0 1 .453-.262h.001a.522.522 0 0 1 .452.262c.082.145.087.313.085.565h-1.075c-.004-.252.002-.421.084-.565zM104.571 32.496c0-.194-.114-.28-.344-.28h-.372v.986h.148v-.428h.169l.258.428h.165l-.277-.434c.144-.019.253-.096.253-.272zm-.568.151v-.305h.202c.102 0 .212.023.212.145 0 .152-.111.161-.237.161h-.177z"/><path d="M104.181 31.854a.85.85 0 0 0-.859.853.85.85 0 0 0 .859.857.848.848 0 0 0 .854-.857.846.846 0 0 0-.854-.853zm0 1.567c-.386 0-.688-.303-.688-.715 0-.404.302-.71.688-.71.383 0 .684.306.684.71.001.412-.3.715-.684.715z"/></g></g><path d="M22.188 51.891l3.865 1.029c.687.183 1.099.894.916 1.58a1.295 1.295 0 0 1-1.58.916l-3.865-1.028-13.387.053a1.295 1.295 0 0 1-1.308-1.275 1.295 1.295 0 0 1 1.275-1.308l14.084.033zM16.471 73.329l3.865 1.029c.687.183 1.099.894.916 1.58a1.295 1.295 0 0 1-1.58.916l-3.865-1.028-10.67.052a1.295 1.295 0 0 1-1.308-1.275 1.295 1.295 0 0 1 1.275-1.308l11.367.034zM155.605 51.951l-3.697.984a1.232 1.232 0 0 0-.88 1.498 1.232 1.232 0 0 0 1.508.862l3.697-.983 12.795.013a1.24 1.24 0 0 0 1.254-1.21 1.222 1.222 0 0 0-1.215-1.234l-13.462.07zM161.34 73.383l-3.71.988a1.233 1.233 0 0 0-.885 1.496 1.233 1.233 0 0 0 1.511.858l3.71-.986 10.229.004a1.246 1.246 0 0 0 1.26-1.209 1.219 1.219 0 0 0-1.216-1.23l-10.899.079z" fill="#939393"/><circle cx="44.65" cy="159.08" r="31.958" fill="#898888"/><circle cx="44.65" cy="159.08" r="27.164" fill="#636a75"/><path d="M40.994 185.481a5.71 5.71 0 0 1-5.703-5.703V168.44H23.952a5.71 5.71 0 0 1-5.704-5.703v-7.313a5.71 5.71 0 0 1 5.704-5.703H35.29v-11.338a5.71 5.71 0 0 1 5.703-5.703h7.313a5.71 5.71 0 0 1 5.703 5.703v11.338h11.338a5.71 5.71 0 0 1 5.703 5.703v7.313a5.71 5.71 0 0 1-5.703 5.703H54.009v11.338a5.71 5.71 0 0 1-5.703 5.703h-7.312z" fill="#5e717c"/><g><path d="M37.275 150.492v-12.109a3.73 3.73 0 0 1 3.719-3.719h7.312a3.73 3.73 0 0 1 3.719 3.719v12.109c0 .67.543 1.214 1.214 1.214h12.109a3.73 3.73 0 0 1 3.719 3.719v7.312a3.73 3.73 0 0 1-3.719 3.719h-12.11c-.67 0-1.214.543-1.214 1.214v12.109a3.73 3.73 0 0 1-3.719 3.719h-7.312a3.73 3.73 0 0 1-3.719-3.719V167.67c0-.67-.543-1.214-1.214-1.214H23.952a3.73 3.73 0 0 1-3.719-3.719v-7.312a3.73 3.73 0 0 1 3.719-3.719h12.109a1.215 1.215 0 0 0 1.214-1.214z" fill="#004f8a"/><path d="M41.45 146.646h6.682a.886.886 0 0 0 .767-1.329l-3.341-5.787a.886.886 0 0 0-1.534 0l-3.341 5.787a.886.886 0 0 0 .767 1.329z" fill="#093f72"/><path d="M41.309 146.504h6.682a.886.886 0 0 0 .767-1.329l-3.341-5.787a.886.886 0 0 0-1.534 0l-3.341 5.787a.886.886 0 0 0 .767 1.329z" fill="#014577"/><path d="M32.216 162.279v-6.682a.886.886 0 0 0-1.329-.767l-5.787 3.341a.886.886 0 0 0 0 1.534l5.787 3.341a.886.886 0 0 0 1.329-.767z" fill="#093f72"/><path d="M32.074 162.421v-6.682a.886.886 0 0 0-1.329-.767l-5.787 3.341a.886.886 0 0 0 0 1.534l5.787 3.341a.886.886 0 0 0 1.329-.767z" fill="#014577"/><path d="M47.849 171.514h-6.682a.886.886 0 0 0-.767 1.329l3.341 5.787a.886.886 0 0 0 1.534 0l3.341-5.787a.886.886 0 0 0-.767-1.329z" fill="#093f72"/><path d="M47.99 171.656h-6.682a.886.886 0 0 0-.767 1.329l3.341 5.787a.886.886 0 0 0 1.534 0l3.341-5.787a.886.886 0 0 0-.767-1.329z" fill="#014577"/><g><path d="M57.084 155.881v6.682a.886.886 0 0 0 1.329.767l5.787-3.341a.886.886 0 0 0 0-1.534l-5.787-3.341a.886.886 0 0 0-1.329.767z" fill="#093f72"/><path d="M57.225 155.739v6.682a.886.886 0 0 0 1.329.767l5.787-3.341a.886.886 0 0 0 0-1.534l-5.787-3.341a.886.886 0 0 0-1.329.767z" fill="#014577"/></g><linearGradient id="a" gradientUnits="userSpaceOnUse" x1="40.427" y1="161.518" x2="48.872" y2="156.642"><stop offset="0" stop-color="#004c8a"/><stop offset=".628" stop-color="#004b88"/><stop offset=".854" stop-color="#004981"/><stop offset="1" stop-color="#014577"/></linearGradient><circle cx="44.65" cy="159.08" r="4.875" fill="url(#a)"/></g><path d="M172.553 65.429c.128-16.576-1.897-29.011-3.466-35.333-1.068-4.301-5.888-12.673-8.969-16.388-.867-1.045-1.82-2.12-3.447-2.519-.262-.064-.708-.152-2.362-.169-1.694-.017-1.993.091-2.936.16a34.857 34.857 0 0 1 4.907 4.915c10.672 13.027 14.638 36.058 16.273 49.334z" fill="#065d93"/></svg>