<?xml version="1.0" encoding="UTF-8" standalone="no"?>
<svg
   xmlns:dc="http://purl.org/dc/elements/1.1/"
   xmlns:cc="http://creativecommons.org/ns#"
   xmlns:rdf="http://www.w3.org/1999/02/22-rdf-syntax-ns#"
   xmlns:svg="http://www.w3.org/2000/svg"
   xmlns="http://www.w3.org/2000/svg"
   viewBox="0 0 218.69875 372.46625"
   height="372.46625"
   width="218.69875"
   xml:space="preserve"
   version="1.1"
   id="svg2"><metadata
     id="metadata8"><rdf:RDF><cc:Work
         rdf:about=""><dc:format>image/svg+xml</dc:format><dc:type
           rdf:resource="http://purl.org/dc/dcmitype/StillImage" /><dc:title></dc:title></cc:Work></rdf:RDF></metadata><defs
     id="defs6"><clipPath
       id="clipPath16"
       clipPathUnits="userSpaceOnUse"><path
         id="path18"
         d="m 0,297.973 174.959,0 L 174.959,0 0,0 0,297.973 Z" /></clipPath></defs><g
     transform="matrix(1.25,0,0,-1.25,0,372.46625)"
     id="g10"><g
       id="g12"><g
         clip-path="url(#clipPath16)"
         id="g14"><g
           transform="translate(1.6299,21.4199)"
           id="g20"><path
             id="path22"
             style="fill:#7942ba;fill-opacity:1;fill-rule:nonzero;stroke:none"
             d="m 0,0 c 0,0 0.649,-17.524 81.783,-21.42 l 8.184,0 C 171.1,-17.524 171.749,0 171.749,0 l 0,269.374 c 0,0 0,7.787 -8.438,7.141 0,0 -68.15,-0.107 -77.238,-0.107 l -0.394,0 c -9.088,0 -77.24,0.107 -77.24,0.107 C 0.002,277.161 0,269.374 0,269.374 L 0,0 Z" /></g><g
           transform="translate(5.6392,277.4483)"
           id="g24"><path
             id="path26"
             style="fill:#7942ba;fill-opacity:1;fill-rule:nonzero;stroke:none"
             d="m 0,0 c 0,-0.466 -0.23,-0.842 -0.515,-0.842 l -4.612,0 c -0.284,0 -0.512,0.376 -0.512,0.842 0,0.465 0.228,0.842 0.512,0.842 l 4.612,0 C -0.23,0.842 0,0.465 0,0" /></g><g
           transform="translate(5.6392,272.3208)"
           id="g28"><path
             id="path30"
             style="fill:#7942ba;fill-opacity:1;fill-rule:nonzero;stroke:none"
             d="m 0,0 c 0,-0.466 -0.23,-0.842 -0.515,-0.842 l -4.612,0 c -0.284,0 -0.512,0.376 -0.512,0.842 0,0.466 0.228,0.842 0.512,0.842 l 4.612,0 C -0.23,0.842 0,0.466 0,0" /></g><g
           transform="translate(5.6392,267.1934)"
           id="g32"><path
             id="path34"
             style="fill:#7942ba;fill-opacity:1;fill-rule:nonzero;stroke:none"
             d="m 0,0 c 0,-0.465 -0.23,-0.842 -0.515,-0.842 l -4.612,0 c -0.284,0 -0.512,0.377 -0.512,0.842 0,0.466 0.228,0.842 0.512,0.842 l 4.612,0 C -0.23,0.842 0,0.466 0,0" /></g><g
           transform="translate(5.6392,262.0664)"
           id="g36"><path
             id="path38"
             style="fill:#7942ba;fill-opacity:1;fill-rule:nonzero;stroke:none"
             d="m 0,0 c 0,-0.465 -0.23,-0.842 -0.515,-0.842 l -4.612,0 c -0.284,0 -0.512,0.377 -0.512,0.842 0,0.466 0.228,0.84 0.512,0.84 l 4.612,0 C -0.23,0.84 0,0.466 0,0" /></g><g
           transform="translate(174.959,277.4483)"
           id="g40"><path
             id="path42"
             style="fill:#7942ba;fill-opacity:1;fill-rule:nonzero;stroke:none"
             d="m 0,0 c 0,-0.466 -0.228,-0.842 -0.51,-0.842 l -4.618,0 c -0.282,0 -0.513,0.376 -0.513,0.842 0,0.465 0.231,0.842 0.513,0.842 l 4.618,0 C -0.228,0.842 0,0.465 0,0" /></g><g
           transform="translate(174.959,272.3208)"
           id="g44"><path
             id="path46"
             style="fill:#7942ba;fill-opacity:1;fill-rule:nonzero;stroke:none"
             d="m 0,0 c 0,-0.466 -0.228,-0.842 -0.51,-0.842 l -4.618,0 c -0.282,0 -0.513,0.376 -0.513,0.842 0,0.466 0.231,0.842 0.513,0.842 l 4.618,0 C -0.228,0.842 0,0.466 0,0" /></g><g
           transform="translate(174.959,267.1934)"
           id="g48"><path
             id="path50"
             style="fill:#7942ba;fill-opacity:1;fill-rule:nonzero;stroke:none"
             d="m 0,0 c 0,-0.465 -0.228,-0.842 -0.51,-0.842 l -4.618,0 c -0.282,0 -0.513,0.377 -0.513,0.842 0,0.466 0.231,0.842 0.513,0.842 l 4.618,0 C -0.228,0.842 0,0.466 0,0" /></g><g
           transform="translate(174.959,262.0664)"
           id="g52"><path
             id="path54"
             style="fill:#7942ba;fill-opacity:1;fill-rule:nonzero;stroke:none"
             d="m 0,0 c 0,-0.465 -0.228,-0.842 -0.51,-0.842 l -4.618,0 c -0.282,0 -0.513,0.377 -0.513,0.842 0,0.466 0.231,0.84 0.513,0.84 l 4.618,0 C -0.228,0.84 0,0.466 0,0" /></g><g
           transform="translate(87.4258,288.9507)"
           id="g56"><path
             id="path58"
             style="fill:#333333;fill-opacity:1;fill-rule:nonzero;stroke:none"
             d="m 0,0 64.012,0 c 13.209,0.089 12.199,-5.568 12.199,-5.568 l 0,-119.161 c 0,0 1.154,-6.614 -7.111,-8.437 -8.076,-1.781 -11.376,-2.862 -69.01,-4.817 -57.633,1.955 -60.933,3.036 -69.008,4.817 -8.266,1.823 -7.112,8.437 -7.112,8.437 l 0,119.161 c 0,0 -1.01,5.657 12.199,5.568 L 0.181,0 0,0 Z" /></g><g
           transform="translate(18.1338,286.9029)"
           id="g60"><path
             id="path62"
             style="fill:#272727;fill-opacity:1;fill-rule:nonzero;stroke:none"
             d="m 0,0 c -1.324,0 -2.331,-0.367 -3.081,-1.122 -1.33,-1.34 -1.615,-3.708 -1.609,-4.431 l 0,-117.129 c 0.003,-0.544 0.187,-5.331 5.48,-6.431 l 1.09,-0.229 c 7.397,-1.559 12.744,-2.685 67.502,-4.545 54.944,1.866 60.321,2.996 67.759,4.561 l 1.015,0.213 c 5.293,1.1 5.477,5.887 5.481,6.429 l 0,117.116 C 143.635,-4.634 143.397,0 138.946,0 L 0,0 Z m 69.382,-137.985 -0.069,0.003 c -55.181,1.872 -60.674,3.03 -68.277,4.633 l -1.079,0.225 c -6.969,1.45 -8.767,7.475 -8.743,10.458 l 0,117.098 c -0.004,0.445 0.047,4.56 2.799,7.332 1.536,1.547 3.551,2.331 5.987,2.331 l 138.946,0 c 2.437,0 4.451,-0.784 5.988,-2.331 2.751,-2.772 2.802,-6.887 2.798,-7.347 l 0,-117.099 c 0.024,-2.967 -1.774,-8.992 -8.743,-10.442 l -1.005,-0.21 c -7.644,-1.608 -13.167,-2.77 -68.532,-4.648 l -0.07,-0.003 z" /></g><path
           id="path64"
           style="fill:#8e827b;fill-opacity:1;fill-rule:nonzero;stroke:none"
           d="m 137.729,271.32 -100.606,0 0,-88.275 100.606,0 0,88.275 z" /><g
           transform="translate(20.4243,245.9961)"
           id="g66"><path
             id="path68"
             style="fill:#e50016;fill-opacity:1;fill-rule:nonzero;stroke:none"
             d="m 0,0 c 0,-1.32 -1.069,-2.393 -2.393,-2.393 -1.321,0 -2.392,1.073 -2.392,2.393 0,1.323 1.071,2.393 2.392,2.393 C -1.069,2.393 0,1.323 0,0" /></g><g
           transform="translate(42.8086,82.2227)"
           id="g70"><path
             id="path72"
             style="fill:#2b2b2b;fill-opacity:1;fill-rule:nonzero;stroke:none"
             d="m 0,0 c 0,-1.135 -0.918,-2.051 -2.051,-2.051 l -9.529,0 c -1.131,0 -2.05,0.916 -2.05,2.051 l 0,39.385 c 0,1.135 0.919,2.054 2.05,2.054 l 9.529,0 C -0.918,41.439 0,40.52 0,39.385 L 0,0 Z" /></g><g
           transform="translate(55.686,108.7305)"
           id="g74"><path
             id="path76"
             style="fill:#2b2b2b;fill-opacity:1;fill-rule:nonzero;stroke:none"
             d="m 0,0 c 1.134,0 2.051,-0.916 2.051,-2.051 l 0,-9.527 C 2.051,-12.713 1.134,-13.63 0,-13.63 l -39.385,0 c -1.132,0 -2.051,0.917 -2.051,2.052 l 0,9.527 c 0,1.135 0.919,2.051 2.051,2.051 L 0,0 Z" /></g><g
           transform="translate(160.7485,105.667)"
           id="g78"><path
             id="path80"
             style="fill:#2b2b2b;fill-opacity:1;fill-rule:nonzero;stroke:none"
             d="m 0,0 c 0,-5.665 -4.591,-10.257 -10.253,-10.257 -5.666,0 -10.258,4.592 -10.258,10.257 0,5.663 4.592,10.255 10.258,10.255 C -4.591,10.255 0,5.663 0,0" /></g><g
           transform="translate(127.4189,95.4102)"
           id="g82"><path
             id="path84"
             style="fill:#2b2b2b;fill-opacity:1;fill-rule:nonzero;stroke:none"
             d="m 0,0 c 0,-5.662 -4.591,-10.254 -10.256,-10.254 -5.665,0 -10.257,4.592 -10.257,10.254 0,5.665 4.592,10.257 10.257,10.257 C -4.591,10.257 0,5.665 0,0" /></g><g
           transform="translate(81.2725,50.7969)"
           id="g86"><path
             id="path88"
             style="fill:#2b2b2b;fill-opacity:1;fill-rule:nonzero;stroke:none"
             d="m 0,0 c 0,-1.135 -0.859,-2.052 -1.92,-2.052 l -11.029,0 c -1.063,0 -1.923,0.917 -1.923,2.052 l 0,0.51 c 0,1.136 0.86,2.055 1.923,2.055 l 11.029,0 C -0.859,2.565 0,1.646 0,0.51 L 0,0 Z" /></g><g
           transform="translate(107.9487,50.7969)"
           id="g90"><path
             id="path92"
             style="fill:#2b2b2b;fill-opacity:1;fill-rule:nonzero;stroke:none"
             d="m 0,0 c 0,-1.135 -0.857,-2.052 -1.917,-2.052 l -11.033,0 c -1.058,0 -1.916,0.917 -1.916,2.052 l 0,0.51 c 0,1.136 0.858,2.055 1.916,2.055 l 11.033,0 C -0.857,2.565 0,1.646 0,0.51 L 0,0 Z" /></g><g
           transform="translate(41.2754,101.5625)"
           id="g94"><path
             id="path96"
             style="fill:#3a3a3a;fill-opacity:1;fill-rule:nonzero;stroke:none"
             d="m 0,0 c 0,-2.831 -2.296,-5.127 -5.128,-5.127 -2.833,0 -5.126,2.296 -5.126,5.127 0,2.834 2.293,5.127 5.126,5.127 C -2.296,5.127 0,2.834 0,0" /></g><g
           transform="translate(47.7573,106.7031)"
           id="g98"><path
             id="path100"
             style="fill:#3a3a3a;fill-opacity:1;fill-rule:nonzero;stroke:none"
             d="M 0,0 8.572,-4.625 0,-9.254 0,0 Z" /></g><g
           transform="translate(23.9985,97.4492)"
           id="g102"><path
             id="path104"
             style="fill:#3a3a3a;fill-opacity:1;fill-rule:nonzero;stroke:none"
             d="M 0,0 -8.572,4.624 0,9.254 0,0 Z" /></g><g
           transform="translate(31.2593,113.4395)"
           id="g106"><path
             id="path108"
             style="fill:#3a3a3a;fill-opacity:1;fill-rule:nonzero;stroke:none"
             d="M 0,0 4.627,8.567 9.256,0 0,0 Z" /></g><g
           transform="translate(40.5156,89.6885)"
           id="g110"><path
             id="path112"
             style="fill:#3a3a3a;fill-opacity:1;fill-rule:nonzero;stroke:none"
             d="M 0,0 -4.627,-8.57 -9.256,0 0,0 Z" /></g><g
           transform="translate(48.7388,164.5059)"
           id="g114"><path
             id="path116"
             style="fill:#c1c1c1;fill-opacity:1;fill-rule:nonzero;stroke:none"
             d="m 0,0 c -0.659,-0.193 -1.767,-0.445 -2.957,-0.445 -1.336,0 -2.425,0.312 -3.188,0.951 -0.761,0.614 -1.106,1.503 -1.106,2.43 0,1.446 0.689,2.806 1.94,3.707 1.062,0.759 2.512,1.192 4.134,1.192 1.221,0 2.095,-0.216 2.442,-0.372 L 0.748,6.282 c -0.461,0.193 -1.177,0.336 -2.053,0.336 -1.033,0 -1.983,-0.274 -2.7,-0.792 -0.875,-0.627 -1.423,-1.675 -1.423,-2.782 0,-1.456 0.949,-2.298 2.758,-2.298 0.517,0 0.949,0.084 1.235,0.18 l 0.459,2.034 -1.709,0 0.274,1.132 3.329,0 L 0,0 Z" /></g><g
           transform="translate(54.0513,167.5381)"
           id="g118"><path
             id="path120"
             style="fill:#c1c1c1;fill-opacity:1;fill-rule:nonzero;stroke:none"
             d="m 0,0 -0.272,2.023 c -0.043,0.433 -0.101,1.058 -0.144,1.541 l -0.029,0 C -0.704,3.081 -0.961,2.504 -1.233,2.023 L -2.412,0 0,0 Z m -2.942,-1.083 -1.323,-2.311 -1.779,0 4.852,8.113 2.096,0 1.221,-8.113 -1.751,0 -0.273,2.311 -3.043,0 z" /></g><g
           transform="translate(63.2583,164.1446)"
           id="g122"><path
             id="path124"
             style="fill:#c1c1c1;fill-opacity:1;fill-rule:nonzero;stroke:none"
             d="m 0,0 0.643,3.814 c 0.144,0.832 0.348,1.974 0.59,2.975 l -0.042,0 C 0.688,5.838 0.113,4.79 -0.419,3.936 l -2.382,-3.839 -1.294,0 -0.501,3.78 c -0.115,0.901 -0.202,1.949 -0.259,2.912 l -0.027,0 C -5.142,5.863 -5.43,4.634 -5.673,3.814 L -6.779,0 l -1.552,0 2.458,8.112 2.209,0 0.518,-3.79 C -3.074,3.598 -2.973,2.757 -2.96,1.986 l 0.059,0 c 0.344,0.771 0.802,1.625 1.219,2.324 L 0.659,8.112 2.9,8.112 1.622,0 0,0 Z" /></g><g
           transform="translate(70.9243,167.7559)"
           id="g126"><path
             id="path128"
             style="fill:#c1c1c1;fill-opacity:1;fill-rule:nonzero;stroke:none"
             d="m 0,0 -3.475,0 -0.548,-2.42 3.906,0 -0.273,-1.191 -5.584,0 1.837,8.112 5.37,0 -0.272,-1.192 -3.692,0 -0.487,-2.13 3.49,0 L 0,0 Z" /></g><g
           transform="translate(77.4409,168.9346)"
           id="g130"><path
             id="path132"
             style="fill:#c1c1c1;fill-opacity:1;fill-rule:nonzero;stroke:none"
             d="M 0,0 0.775,0 C 2.026,0 2.93,0.493 2.93,1.325 2.93,1.986 2.313,2.273 1.395,2.273 1.006,2.273 0.676,2.252 0.503,2.214 L 0,0 Z m -0.86,-3.696 c 0.273,-0.024 0.573,-0.034 0.889,-0.034 1.249,0 2.399,0.421 2.399,1.503 0,0.867 -0.878,1.192 -1.896,1.192 l -0.789,0 -0.603,-2.661 z M -0.932,3.19 c 0.645,0.119 1.45,0.194 2.327,0.194 1.003,0 1.735,-0.147 2.326,-0.496 C 4.28,2.601 4.654,2.118 4.654,1.504 4.654,0.48 3.706,-0.215 2.643,-0.459 l 0,-0.034 c 0.904,-0.23 1.55,-0.855 1.55,-1.781 0,-0.854 -0.544,-1.493 -1.248,-1.902 C 2.14,-4.66 0.99,-4.837 -0.474,-4.837 c -0.975,0 -1.78,0.047 -2.238,0.119 l 1.78,7.908 z" /></g><g
           transform="translate(84.792,170.5122)"
           id="g134"><path
             id="path136"
             style="fill:#c1c1c1;fill-opacity:1;fill-rule:nonzero;stroke:none"
             d="m 0,0 c -0.847,-0.711 -1.335,-2.036 -1.335,-3.081 0,-1.228 0.662,-2.239 2.284,-2.239 0.703,0 1.377,0.253 1.88,0.685 0.835,0.699 1.308,2.081 1.308,3.105 0,1.072 -0.446,2.226 -2.227,2.226 C 1.164,0.696 0.518,0.434 0,0 m 5.918,-1.481 c 0,-1.444 -0.619,-2.937 -1.754,-3.876 -0.875,-0.721 -2.051,-1.141 -3.46,-1.141 -2.498,0 -3.805,1.527 -3.805,3.342 0,1.447 0.646,2.964 1.81,3.902 0.875,0.711 2.096,1.132 3.404,1.132 2.584,0 3.805,-1.506 3.805,-3.359" /></g><g
           transform="translate(91.3857,164.1446)"
           id="g138"><path
             id="path140"
             style="fill:#c1c1c1;fill-opacity:1;fill-rule:nonzero;stroke:none"
             d="m 0,0 0.76,3.334 -1.881,4.778 1.78,0 0.76,-2.311 C 1.635,5.102 1.736,4.743 1.823,4.381 l 0.028,0 C 2.11,4.765 2.425,5.224 2.856,5.826 l 1.739,2.286 1.979,0 L 2.425,3.358 1.664,0 0,0 Z" /></g><g
           transform="translate(105.1128,166.9727)"
           id="g142"><path
             id="path144"
             style="fill:#ff004f;fill-opacity:1;fill-rule:nonzero;stroke:none"
             d="M 0,0 C 0.154,0.139 0.33,0.221 0.527,0.241 0.726,0.263 0.904,0.238 1.07,0.171 1.231,0.1 1.362,-0.007 1.451,-0.163 1.543,-0.312 1.565,-0.49 1.519,-0.698 1.46,-0.906 1.347,-1.097 1.184,-1.275 1.021,-1.456 0.857,-1.618 0.691,-1.763 c -0.374,-0.355 -0.79,-0.615 -1.248,-0.785 -0.456,-0.169 -0.92,-0.248 -1.387,-0.241 -0.466,0.01 -0.924,0.109 -1.372,0.3 -0.447,0.191 -0.851,0.475 -1.206,0.854 -0.211,0.226 -0.39,0.466 -0.536,0.716 -0.143,0.25 -0.255,0.513 -0.331,0.791 -0.117,0.406 -0.17,0.829 -0.156,1.273 0.006,0.438 0.084,0.867 0.23,1.282 0.143,0.417 0.346,0.808 0.612,1.174 0.267,0.367 0.591,0.682 0.975,0.939 0.28,0.191 0.563,0.355 0.845,0.496 0.285,0.136 0.584,0.268 0.904,0.389 0.183,0.066 0.369,0.134 0.562,0.2 0.193,0.064 0.391,0.112 0.593,0.151 0.202,0.033 0.405,0.045 0.606,0.037 C -0.015,5.804 0.186,5.764 0.376,5.697 0.51,5.645 0.646,5.571 0.78,5.481 0.914,5.39 1.04,5.288 1.154,5.172 1.273,5.054 1.372,4.932 1.46,4.803 1.546,4.672 1.607,4.545 1.648,4.424 1.675,4.312 1.684,4.196 1.668,4.081 1.655,3.963 1.618,3.86 1.555,3.763 1.491,3.668 1.405,3.59 1.298,3.522 1.194,3.46 1.075,3.419 0.938,3.401 0.715,3.373 0.547,3.396 0.426,3.463 0.305,3.535 0.211,3.622 0.136,3.726 0.064,3.83 -0.004,3.928 -0.074,4.028 -0.139,4.13 -0.235,4.199 -0.359,4.244 -0.438,4.244 -0.498,4.241 -0.535,4.231 -0.864,4.154 -1.194,4.045 -1.523,3.911 -1.857,3.78 -2.165,3.616 -2.447,3.426 -2.735,3.235 -2.982,3.015 -3.193,2.765 -3.403,2.515 -3.56,2.232 -3.656,1.92 -3.772,1.549 -3.815,1.172 -3.785,0.792 c 0.028,-0.381 0.144,-0.737 0.347,-1.074 0.117,-0.201 0.267,-0.374 0.461,-0.52 0.193,-0.149 0.406,-0.258 0.638,-0.332 0.231,-0.075 0.466,-0.1 0.707,-0.077 0.24,0.022 0.47,0.097 0.691,0.225 0.195,0.122 0.366,0.271 0.522,0.448 C -0.265,-0.358 -0.126,-0.181 0,0" /></g><g
           transform="translate(110.6836,165.6821)"
           id="g146"><path
             id="path148"
             style="fill:#7942ba;fill-opacity:1;fill-rule:nonzero;stroke:none"
             d="M 0,0 C 0.268,0.105 0.503,0.244 0.706,0.417 0.904,0.587 1.082,0.778 1.233,0.987 1.382,1.194 1.511,1.416 1.612,1.653 1.716,1.89 1.808,2.126 1.887,2.369 1.941,2.671 1.972,2.982 1.975,3.304 1.979,3.624 1.905,3.928 1.756,4.218 1.629,4.459 1.441,4.662 1.187,4.838 0.931,5.008 0.653,5.128 0.349,5.195 0.047,5.267 -0.26,5.279 -0.567,5.239 -0.874,5.199 -1.15,5.091 -1.39,4.915 -1.732,4.659 -2.004,4.372 -2.214,4.055 -2.423,3.738 -2.581,3.388 -2.69,3.004 -2.777,2.7 -2.826,2.38 -2.836,2.044 -2.844,1.707 -2.787,1.387 -2.66,1.083 -2.566,0.858 -2.42,0.651 -2.227,0.469 -2.036,0.285 -1.818,0.139 -1.579,0.036 -1.337,-0.068 -1.08,-0.128 -0.808,-0.141 -0.536,-0.151 -0.265,-0.103 0,0 M 3.468,2.027 C 3.316,1.581 3.123,1.14 2.885,0.714 2.648,0.285 2.36,-0.099 2.023,-0.435 1.681,-0.772 1.288,-1.044 0.836,-1.253 c -0.45,-0.208 -0.965,-0.312 -1.545,-0.312 -0.373,0.015 -0.668,0.047 -0.889,0.092 -0.218,0.042 -0.431,0.106 -0.633,0.198 -0.37,0.096 -0.682,0.25 -0.945,0.463 -0.265,0.21 -0.485,0.456 -0.663,0.738 -0.177,0.28 -0.315,0.579 -0.409,0.895 -0.094,0.316 -0.157,0.621 -0.181,0.918 -0.042,0.52 0.005,1.051 0.149,1.588 0.143,0.535 0.368,1.03 0.68,1.484 0.315,0.451 0.707,0.84 1.177,1.167 0.476,0.324 1.016,0.534 1.62,0.638 0.315,0.05 0.63,0.067 0.951,0.05 C 0.471,6.651 0.783,6.594 1.084,6.498 1.335,6.419 1.565,6.327 1.781,6.223 1.996,6.119 2.199,5.984 2.397,5.824 2.655,5.616 2.873,5.376 3.054,5.103 3.23,4.832 3.358,4.546 3.44,4.251 3.54,3.875 3.581,3.503 3.574,3.134 3.566,2.765 3.529,2.396 3.468,2.027" /></g><g
           transform="translate(123.9009,165.7896)"
           id="g150"><path
             id="path152"
             style="fill:#f9e52d;fill-opacity:1;fill-rule:nonzero;stroke:none"
             d="M 0,0 C 0.287,0.113 0.537,0.259 0.752,0.443 0.968,0.628 1.153,0.832 1.32,1.055 1.48,1.277 1.614,1.513 1.725,1.768 1.837,2.018 1.932,2.276 2.018,2.534 2.074,2.858 2.105,3.192 2.109,3.532 2.114,3.876 2.037,4.203 1.877,4.51 1.743,4.768 1.54,4.988 1.267,5.171 0.997,5.355 0.698,5.483 0.376,5.557 0.049,5.631 -0.279,5.645 -0.608,5.602 -0.937,5.561 -1.229,5.444 -1.487,5.253 -1.848,4.98 -2.144,4.676 -2.366,4.337 -2.589,3.997 -2.76,3.624 -2.874,3.212 -2.97,2.888 -3.025,2.546 -3.033,2.184 -3.042,1.822 -2.98,1.483 -2.846,1.159 -2.742,0.916 -2.586,0.698 -2.381,0.502 -2.178,0.307 -1.945,0.151 -1.688,0.04 -1.431,-0.072 -1.154,-0.135 -0.865,-0.146 -0.573,-0.159 -0.285,-0.109 0,0 M 3.708,2.169 C 3.546,1.689 3.338,1.221 3.084,0.763 2.833,0.304 2.522,-0.105 2.162,-0.466 1.797,-0.825 1.376,-1.115 0.893,-1.338 c -0.478,-0.223 -1.03,-0.334 -1.652,-0.334 -0.399,0.015 -0.716,0.049 -0.951,0.093 -0.23,0.05 -0.46,0.122 -0.678,0.214 -0.392,0.104 -0.729,0.268 -1.009,0.498 -0.283,0.224 -0.517,0.487 -0.708,0.787 -0.19,0.297 -0.337,0.62 -0.436,0.959 -0.102,0.337 -0.166,0.666 -0.193,0.983 -0.05,0.555 0.003,1.122 0.156,1.695 0.153,0.574 0.396,1.102 0.73,1.585 0.332,0.485 0.754,0.898 1.262,1.248 0.504,0.347 1.08,0.574 1.728,0.686 0.334,0.05 0.672,0.07 1.016,0.05 C 0.502,7.11 0.836,7.048 1.161,6.947 1.427,6.863 1.676,6.764 1.904,6.65 2.132,6.543 2.355,6.402 2.563,6.229 2.838,6.006 3.07,5.748 3.261,5.458 3.454,5.166 3.59,4.861 3.677,4.545 3.782,4.143 3.828,3.744 3.818,3.351 3.812,2.957 3.774,2.563 3.708,2.169" /></g><g
           transform="translate(132.2451,171.2954)"
           id="g154"><path
             id="path156"
             style="fill:#00b3dd;fill-opacity:1;fill-rule:nonzero;stroke:none"
             d="M 0,0 C -0.386,0.206 -0.811,0.321 -1.266,0.35 -1.724,0.376 -2.163,0.317 -2.586,0.18 l 0,-2.931 c 0.43,0.024 0.855,0.076 1.275,0.15 0.418,0.071 0.808,0.235 1.162,0.483 0.196,0.141 0.352,0.303 0.473,0.491 0.119,0.183 0.191,0.374 0.216,0.569 0.021,0.196 -0.005,0.384 -0.087,0.57 C 0.371,-0.302 0.22,-0.139 0,0 m -2.586,-6.282 c -0.032,-0.215 -0.131,-0.391 -0.305,-0.529 -0.173,-0.139 -0.362,-0.227 -0.565,-0.268 -0.203,-0.037 -0.386,-0.017 -0.554,0.057 -0.169,0.079 -0.258,0.235 -0.27,0.471 -0.047,0.992 -0.07,2.026 -0.07,3.093 l 0,3.186 c -0.153,0.049 -0.272,0.128 -0.347,0.232 -0.078,0.104 -0.124,0.218 -0.138,0.342 -0.015,0.129 0.002,0.256 0.049,0.387 0.052,0.128 0.122,0.24 0.222,0.336 0.103,0.104 0.247,0.198 0.427,0.283 0.186,0.089 0.387,0.168 0.601,0.24 0.217,0.072 0.432,0.139 0.645,0.188 0.211,0.052 0.389,0.092 0.535,0.119 0.607,0.114 1.216,0.109 1.834,-0.007 C 0.093,1.732 0.633,1.521 1.102,1.221 1.569,0.916 1.918,0.523 2.149,0.038 2.38,-0.449 2.405,-1.001 2.221,-1.625 2.164,-1.796 2.093,-1.969 2.006,-2.143 1.918,-2.313 1.817,-2.475 1.704,-2.623 1.54,-2.846 1.347,-3.046 1.124,-3.217 0.901,-3.391 0.661,-3.553 0.401,-3.698 c 0.183,-0.174 0.359,-0.355 0.52,-0.545 0.166,-0.191 0.347,-0.361 0.55,-0.52 0.077,-0.06 0.19,-0.154 0.34,-0.283 0.148,-0.131 0.296,-0.269 0.433,-0.418 0.138,-0.146 0.262,-0.29 0.369,-0.434 0.104,-0.141 0.154,-0.26 0.143,-0.356 C 2.747,-6.418 2.697,-6.568 2.605,-6.7 2.513,-6.836 2.402,-6.937 2.273,-7.012 2.145,-7.086 2.001,-7.124 1.848,-7.124 c -0.154,0 -0.308,0.05 -0.464,0.144 -0.174,0.122 -0.337,0.262 -0.49,0.429 -0.157,0.163 -0.305,0.317 -0.449,0.452 -0.316,0.312 -0.626,0.625 -0.93,0.94 -0.303,0.316 -0.615,0.626 -0.934,0.93 C -1.61,-4.266 -1.806,-4.29 -2.003,-4.303 -2.2,-4.314 -2.396,-4.33 -2.586,-4.347 l 0,-1.843 0,-0.092 z" /></g><g
           transform="translate(119.8799,166.1533)"
           id="g158"><path
             id="path160"
             style="fill:#aae000;fill-opacity:1;fill-rule:nonzero;stroke:none"
             d="M 0,0 C 0.231,-0.079 0.407,-0.184 0.532,-0.322 0.662,-0.461 0.726,-0.605 0.736,-0.756 0.741,-0.909 0.691,-1.056 0.58,-1.2 0.471,-1.342 0.295,-1.459 0.049,-1.546 c -0.093,-0.038 -0.225,-0.059 -0.398,-0.079 -0.173,-0.017 -0.414,-0.04 -0.719,-0.062 -0.306,-0.024 -0.696,-0.057 -1.169,-0.094 -0.471,-0.034 -1.049,-0.089 -1.739,-0.151 -0.17,-0.022 -0.349,-0.04 -0.531,-0.054 -0.184,-0.015 -0.347,0.029 -0.489,0.131 -0.123,0.076 -0.218,0.201 -0.285,0.376 -0.066,0.174 -0.114,0.356 -0.144,0.55 -0.029,0.193 -0.049,0.389 -0.061,0.585 -0.011,0.193 -0.02,0.354 -0.03,0.485 -0.02,0.258 -0.042,0.555 -0.065,0.891 -0.021,0.335 -0.045,0.682 -0.064,1.031 -0.025,0.349 -0.049,0.691 -0.076,1.027 -0.025,0.335 -0.05,0.635 -0.07,0.893 -0.035,0.458 -0.059,0.828 -0.072,1.107 -0.013,0.282 -0.01,0.503 0.013,0.664 0.02,0.163 0.064,0.284 0.136,0.361 0.072,0.079 0.174,0.151 0.305,0.217 0.108,0.051 0.235,0.075 0.376,0.07 0.142,0 0.27,-0.024 0.396,-0.069 0.124,-0.047 0.231,-0.116 0.323,-0.21 0.086,-0.092 0.136,-0.199 0.145,-0.317 0.105,-1.036 0.184,-2.061 0.246,-3.079 0.06,-1.02 0.131,-2.036 0.21,-3.054 0.604,0.049 1.21,0.099 1.809,0.16 0.596,0.061 1.203,0.122 1.815,0.189 L 0,0 Z" /></g><g
           transform="translate(128.4482,42.4258)"
           id="g162"><path
             id="path164"
             style="fill:#2b2b2b;fill-opacity:1;fill-rule:nonzero;stroke:none"
             d="m 0,0 c 0,-0.566 -0.458,-1.027 -1.029,-1.027 -0.567,0 -1.023,0.461 -1.023,1.027 0,0.565 0.456,1.025 1.023,1.025 C -0.458,1.025 0,0.565 0,0" /></g><g
           transform="translate(133.5747,38.3223)"
           id="g166"><path
             id="path168"
             style="fill:#2b2b2b;fill-opacity:1;fill-rule:nonzero;stroke:none"
             d="m 0,0 c 0,-0.568 -0.458,-1.024 -1.025,-1.024 -0.568,0 -1.026,0.456 -1.026,1.024 0,0.566 0.458,1.025 1.026,1.025 C -0.458,1.025 0,0.566 0,0" /></g><g
           transform="translate(133.5747,43.4512)"
           id="g170"><path
             id="path172"
             style="fill:#2b2b2b;fill-opacity:1;fill-rule:nonzero;stroke:none"
             d="m 0,0 c 0,-0.569 -0.458,-1.025 -1.025,-1.025 -0.568,0 -1.026,0.456 -1.026,1.025 0,0.565 0.458,1.022 1.026,1.022 C -0.458,1.022 0,0.565 0,0" /></g><g
           transform="translate(133.5747,48.5781)"
           id="g174"><path
             id="path176"
             style="fill:#2b2b2b;fill-opacity:1;fill-rule:nonzero;stroke:none"
             d="m 0,0 c 0,-0.564 -0.458,-1.027 -1.025,-1.027 -0.568,0 -1.026,0.463 -1.026,1.027 0,0.567 0.458,1.025 1.026,1.025 C -0.458,1.025 0,0.567 0,0" /></g><g
           transform="translate(138.7017,49.6035)"
           id="g178"><path
             id="path180"
             style="fill:#2b2b2b;fill-opacity:1;fill-rule:nonzero;stroke:none"
             d="m 0,0 c 0,-0.566 -0.458,-1.025 -1.022,-1.025 -0.57,0 -1.028,0.459 -1.028,1.025 0,0.566 0.458,1.023 1.028,1.023 C -0.458,1.023 0,0.566 0,0" /></g><g
           transform="translate(143.8291,45.668)"
           id="g182"><path
             id="path184"
             style="fill:#2b2b2b;fill-opacity:1;fill-rule:nonzero;stroke:none"
             d="m 0,0 c 0,-0.563 -0.456,-1.022 -1.025,-1.022 -0.567,0 -1.023,0.459 -1.023,1.022 0,0.568 0.456,1.029 1.023,1.029 C -0.456,1.029 0,0.568 0,0" /></g><g
           transform="translate(143.8291,50.7988)"
           id="g186"><path
             id="path188"
             style="fill:#2b2b2b;fill-opacity:1;fill-rule:nonzero;stroke:none"
             d="m 0,0 c 0,-0.568 -0.456,-1.025 -1.025,-1.025 -0.567,0 -1.023,0.457 -1.023,1.025 0,0.565 0.456,1.024 1.023,1.024 C -0.456,1.024 0,0.565 0,0" /></g><g
           transform="translate(148.9595,51.8223)"
           id="g190"><path
             id="path192"
             style="fill:#2b2b2b;fill-opacity:1;fill-rule:nonzero;stroke:none"
             d="m 0,0 c 0,-0.565 -0.462,-1.024 -1.025,-1.024 -0.568,0 -1.03,0.459 -1.03,1.024 0,0.568 0.462,1.027 1.03,1.027 C -0.462,1.027 0,0.568 0,0" /></g><g
           transform="translate(154.0864,16.9571)"
           id="g194"><path
             id="path196"
             style="fill:#2b2b2b;fill-opacity:1;fill-rule:nonzero;stroke:none"
             d="m 0,0 c 0,-0.567 -0.459,-1.028 -1.026,-1.028 -0.567,0 -1.025,0.461 -1.025,1.028 0,0.564 0.458,1.022 1.025,1.022 C -0.459,1.022 0,0.564 0,0" /></g><g
           transform="translate(154.0864,22.0821)"
           id="g198"><path
             id="path200"
             style="fill:#2b2b2b;fill-opacity:1;fill-rule:nonzero;stroke:none"
             d="m 0,0 c 0,-0.567 -0.459,-1.025 -1.026,-1.025 -0.567,0 -1.025,0.458 -1.025,1.025 0,0.566 0.458,1.027 1.025,1.027 C -0.459,1.027 0,0.566 0,0" /></g><g
           transform="translate(154.0864,27.209)"
           id="g202"><path
             id="path204"
             style="fill:#2b2b2b;fill-opacity:1;fill-rule:nonzero;stroke:none"
             d="m 0,0 c 0,-0.565 -0.459,-1.023 -1.026,-1.023 -0.567,0 -1.025,0.458 -1.025,1.023 0,0.566 0.458,1.027 1.025,1.027 C -0.459,1.027 0,0.566 0,0" /></g><g
           transform="translate(154.0864,32.3379)"
           id="g206"><path
             id="path208"
             style="fill:#2b2b2b;fill-opacity:1;fill-rule:nonzero;stroke:none"
             d="m 0,0 c 0,-0.564 -0.459,-1.025 -1.026,-1.025 -0.567,0 -1.025,0.461 -1.025,1.025 0,0.567 0.458,1.023 1.025,1.023 C -0.459,1.023 0,0.567 0,0" /></g><g
           transform="translate(154.0864,37.4649)"
           id="g210"><path
             id="path212"
             style="fill:#2b2b2b;fill-opacity:1;fill-rule:nonzero;stroke:none"
             d="m 0,0 c 0,-0.564 -0.459,-1.025 -1.026,-1.025 -0.567,0 -1.025,0.461 -1.025,1.025 0,0.565 0.458,1.028 1.025,1.028 C -0.459,1.028 0,0.565 0,0" /></g><g
           transform="translate(154.0864,42.5928)"
           id="g214"><path
             id="path216"
             style="fill:#2b2b2b;fill-opacity:1;fill-rule:nonzero;stroke:none"
             d="m 0,0 c 0,-0.565 -0.459,-1.023 -1.026,-1.023 -0.567,0 -1.025,0.458 -1.025,1.023 0,0.567 0.458,1.028 1.025,1.028 C -0.459,1.028 0,0.567 0,0" /></g><g
           transform="translate(154.0864,47.7207)"
           id="g218"><path
             id="path220"
             style="fill:#2b2b2b;fill-opacity:1;fill-rule:nonzero;stroke:none"
             d="m 0,0 c 0,-0.568 -0.459,-1.023 -1.026,-1.023 -0.567,0 -1.025,0.455 -1.025,1.023 0,0.566 0.458,1.024 1.025,1.024 C -0.459,1.024 0,0.566 0,0" /></g><g
           transform="translate(154.0864,52.8496)"
           id="g222"><path
             id="path224"
             style="fill:#2b2b2b;fill-opacity:1;fill-rule:nonzero;stroke:none"
             d="m 0,0 c 0,-0.564 -0.459,-1.027 -1.026,-1.027 -0.567,0 -1.025,0.463 -1.025,1.027 0,0.564 0.458,1.025 1.025,1.025 C -0.459,1.025 0,0.564 0,0" /></g><g
           transform="translate(159.2134,53.875)"
           id="g226"><path
             id="path228"
             style="fill:#2b2b2b;fill-opacity:1;fill-rule:nonzero;stroke:none"
             d="m 0,0 c 0,-0.567 -0.458,-1.025 -1.026,-1.025 -0.566,0 -1.025,0.458 -1.025,1.025 0,0.564 0.459,1.025 1.025,1.025 C -0.458,1.025 0,0.564 0,0" /></g><g
           transform="translate(159.2134,48.7451)"
           id="g230"><path
             id="path232"
             style="fill:#2b2b2b;fill-opacity:1;fill-rule:nonzero;stroke:none"
             d="m 0,0 c 0,-0.564 -0.458,-1.024 -1.026,-1.024 -0.566,0 -1.025,0.46 -1.025,1.024 0,0.567 0.459,1.028 1.025,1.028 C -0.458,1.028 0,0.567 0,0" /></g><g
           transform="translate(164.3433,49.7735)"
           id="g234"><path
             id="path236"
             style="fill:#2b2b2b;fill-opacity:1;fill-rule:nonzero;stroke:none"
             d="m 0,0 c 0,-0.565 -0.461,-1.028 -1.025,-1.028 -0.568,0 -1.028,0.463 -1.028,1.028 0,0.564 0.46,1.025 1.028,1.025 C -0.461,1.025 0,0.564 0,0" /></g><g
           transform="translate(164.3433,44.6455)"
           id="g238"><path
             id="path240"
             style="fill:#2b2b2b;fill-opacity:1;fill-rule:nonzero;stroke:none"
             d="m 0,0 c 0,-0.569 -0.461,-1.024 -1.025,-1.024 -0.568,0 -1.028,0.455 -1.028,1.024 0,0.565 0.46,1.022 1.028,1.022 C -0.461,1.022 0,0.565 0,0" /></g><g
           transform="translate(164.3433,39.5156)"
           id="g242"><path
             id="path244"
             style="fill:#2b2b2b;fill-opacity:1;fill-rule:nonzero;stroke:none"
             d="m 0,0 c 0,-0.566 -0.461,-1.022 -1.025,-1.022 -0.568,0 -1.028,0.456 -1.028,1.022 0,0.568 0.46,1.026 1.028,1.026 C -0.461,1.026 0,0.568 0,0" /></g><g
           transform="translate(164.3433,34.3897)"
           id="g246"><path
             id="path248"
             style="fill:#2b2b2b;fill-opacity:1;fill-rule:nonzero;stroke:none"
             d="m 0,0 c 0,-0.565 -0.461,-1.028 -1.025,-1.028 -0.568,0 -1.028,0.463 -1.028,1.028 0,0.563 0.46,1.028 1.028,1.028 C -0.461,1.028 0,0.563 0,0" /></g><g
           transform="translate(164.3433,29.2617)"
           id="g250"><path
             id="path252"
             style="fill:#2b2b2b;fill-opacity:1;fill-rule:nonzero;stroke:none"
             d="m 0,0 c 0,-0.564 -0.461,-1.025 -1.025,-1.025 -0.568,0 -1.028,0.461 -1.028,1.025 0,0.567 0.46,1.023 1.028,1.023 C -0.461,1.023 0,0.567 0,0" /></g><g
           transform="translate(164.3433,24.1319)"
           id="g254"><path
             id="path256"
             style="fill:#2b2b2b;fill-opacity:1;fill-rule:nonzero;stroke:none"
             d="m 0,0 c 0,-0.563 -0.461,-1.022 -1.025,-1.022 -0.568,0 -1.028,0.459 -1.028,1.022 0,0.567 0.46,1.025 1.028,1.025 C -0.461,1.025 0,0.567 0,0" /></g><g
           transform="translate(159.2134,43.6211)"
           id="g258"><path
             id="path260"
             style="fill:#2b2b2b;fill-opacity:1;fill-rule:nonzero;stroke:none"
             d="m 0,0 c 0,-0.567 -0.458,-1.028 -1.026,-1.028 -0.566,0 -1.025,0.461 -1.025,1.028 0,0.565 0.459,1.024 1.025,1.024 C -0.458,1.024 0,0.565 0,0" /></g><g
           transform="translate(159.2134,38.4932)"
           id="g262"><path
             id="path264"
             style="fill:#2b2b2b;fill-opacity:1;fill-rule:nonzero;stroke:none"
             d="m 0,0 c 0,-0.567 -0.458,-1.028 -1.026,-1.028 -0.566,0 -1.025,0.461 -1.025,1.028 0,0.562 0.459,1.022 1.025,1.022 C -0.458,1.022 0,0.562 0,0" /></g><g
           transform="translate(159.2134,33.3613)"
           id="g266"><path
             id="path268"
             style="fill:#2b2b2b;fill-opacity:1;fill-rule:nonzero;stroke:none"
             d="m 0,0 c 0,-0.564 -0.458,-1.023 -1.026,-1.023 -0.566,0 -1.025,0.459 -1.025,1.023 0,0.566 0.459,1.028 1.025,1.028 C -0.458,1.028 0,0.566 0,0" /></g><g
           transform="translate(159.2134,28.2363)"
           id="g270"><path
             id="path272"
             style="fill:#2b2b2b;fill-opacity:1;fill-rule:nonzero;stroke:none"
             d="m 0,0 c 0,-0.566 -0.458,-1.027 -1.026,-1.027 -0.566,0 -1.025,0.461 -1.025,1.027 0,0.564 0.459,1.025 1.025,1.025 C -0.458,1.025 0,0.564 0,0" /></g><g
           transform="translate(159.2134,23.1094)"
           id="g274"><path
             id="path276"
             style="fill:#2b2b2b;fill-opacity:1;fill-rule:nonzero;stroke:none"
             d="m 0,0 c 0,-0.565 -0.458,-1.027 -1.026,-1.027 -0.566,0 -1.025,0.462 -1.025,1.027 0,0.564 0.459,1.022 1.025,1.022 C -0.458,1.022 0,0.564 0,0" /></g><g
           transform="translate(159.2134,17.9795)"
           id="g278"><path
             id="path280"
             style="fill:#2b2b2b;fill-opacity:1;fill-rule:nonzero;stroke:none"
             d="m 0,0 c 0,-0.567 -0.458,-1.022 -1.026,-1.022 -0.566,0 -1.025,0.455 -1.025,1.022 0,0.567 0.459,1.026 1.025,1.026 C -0.458,1.026 0,0.567 0,0" /></g><g
           transform="translate(148.9595,46.6973)"
           id="g282"><path
             id="path284"
             style="fill:#2b2b2b;fill-opacity:1;fill-rule:nonzero;stroke:none"
             d="m 0,0 c 0,-0.568 -0.462,-1.029 -1.025,-1.029 -0.568,0 -1.03,0.461 -1.03,1.029 0,0.564 0.462,1.023 1.03,1.023 C -0.462,1.023 0,0.564 0,0" /></g><g
           transform="translate(148.9595,41.5694)"
           id="g286"><path
             id="path288"
             style="fill:#2b2b2b;fill-opacity:1;fill-rule:nonzero;stroke:none"
             d="m 0,0 c 0,-0.569 -0.462,-1.027 -1.025,-1.027 -0.568,0 -1.03,0.458 -1.03,1.027 0,0.562 0.462,1.023 1.03,1.023 C -0.462,1.023 0,0.562 0,0" /></g><g
           transform="translate(148.9595,36.4395)"
           id="g290"><path
             id="path292"
             style="fill:#2b2b2b;fill-opacity:1;fill-rule:nonzero;stroke:none"
             d="m 0,0 c 0,-0.566 -0.462,-1.021 -1.025,-1.021 -0.568,0 -1.03,0.455 -1.03,1.021 0,0.568 0.462,1.025 1.03,1.025 C -0.462,1.025 0,0.568 0,0" /></g><g
           transform="translate(148.9595,31.3125)"
           id="g294"><path
             id="path296"
             style="fill:#2b2b2b;fill-opacity:1;fill-rule:nonzero;stroke:none"
             d="m 0,0 c 0,-0.564 -0.462,-1.027 -1.025,-1.027 -0.568,0 -1.03,0.463 -1.03,1.027 0,0.565 0.462,1.025 1.03,1.025 C -0.462,1.025 0,0.565 0,0" /></g><g
           transform="translate(148.9595,26.1856)"
           id="g298"><path
             id="path300"
             style="fill:#2b2b2b;fill-opacity:1;fill-rule:nonzero;stroke:none"
             d="m 0,0 c 0,-0.565 -0.462,-1.028 -1.025,-1.028 -0.568,0 -1.03,0.463 -1.03,1.028 0,0.564 0.462,1.023 1.03,1.023 C -0.462,1.023 0,0.564 0,0" /></g><g
           transform="translate(148.9595,21.0567)"
           id="g302"><path
             id="path304"
             style="fill:#2b2b2b;fill-opacity:1;fill-rule:nonzero;stroke:none"
             d="m 0,0 c 0,-0.567 -0.462,-1.023 -1.025,-1.023 -0.568,0 -1.03,0.456 -1.03,1.023 0,0.566 0.462,1.025 1.03,1.025 C -0.462,1.025 0,0.566 0,0" /></g><g
           transform="translate(148.9595,15.9287)"
           id="g306"><path
             id="path308"
             style="fill:#2b2b2b;fill-opacity:1;fill-rule:nonzero;stroke:none"
             d="m 0,0 c 0,-0.564 -0.462,-1.024 -1.025,-1.024 -0.568,0 -1.03,0.46 -1.03,1.024 0,0.566 0.462,1.028 1.03,1.028 C -0.462,1.028 0,0.566 0,0" /></g><g
           transform="translate(143.8291,40.542)"
           id="g310"><path
             id="path312"
             style="fill:#2b2b2b;fill-opacity:1;fill-rule:nonzero;stroke:none"
             d="m 0,0 c 0,-0.565 -0.456,-1.026 -1.025,-1.026 -0.567,0 -1.023,0.461 -1.023,1.026 0,0.567 0.456,1.027 1.023,1.027 C -0.456,1.027 0,0.567 0,0" /></g><g
           transform="translate(143.8291,35.418)"
           id="g314"><path
             id="path316"
             style="fill:#2b2b2b;fill-opacity:1;fill-rule:nonzero;stroke:none"
             d="m 0,0 c 0,-0.568 -0.456,-1.028 -1.025,-1.028 -0.567,0 -1.023,0.46 -1.023,1.028 0,0.562 0.456,1.021 1.023,1.021 C -0.456,1.021 0,0.562 0,0" /></g><g
           transform="translate(143.8291,30.2852)"
           id="g318"><path
             id="path320"
             style="fill:#2b2b2b;fill-opacity:1;fill-rule:nonzero;stroke:none"
             d="m 0,0 c 0,-0.564 -0.456,-1.023 -1.025,-1.023 -0.567,0 -1.023,0.459 -1.023,1.023 0,0.567 0.456,1.027 1.023,1.027 C -0.456,1.027 0,0.567 0,0" /></g><g
           transform="translate(143.8291,25.1572)"
           id="g322"><path
             id="path324"
             style="fill:#2b2b2b;fill-opacity:1;fill-rule:nonzero;stroke:none"
             d="m 0,0 c 0,-0.563 -0.456,-1.025 -1.025,-1.025 -0.567,0 -1.023,0.462 -1.023,1.025 0,0.567 0.456,1.028 1.023,1.028 C -0.456,1.028 0,0.567 0,0" /></g><g
           transform="translate(143.8291,20.0332)"
           id="g326"><path
             id="path328"
             style="fill:#2b2b2b;fill-opacity:1;fill-rule:nonzero;stroke:none"
             d="m 0,0 c 0,-0.567 -0.456,-1.027 -1.025,-1.027 -0.567,0 -1.023,0.46 -1.023,1.027 0,0.564 0.456,1.023 1.023,1.023 C -0.456,1.023 0,0.564 0,0" /></g><g
           transform="translate(143.8291,14.9043)"
           id="g330"><path
             id="path332"
             style="fill:#2b2b2b;fill-opacity:1;fill-rule:nonzero;stroke:none"
             d="m 0,0 c 0,-0.568 -0.456,-1.026 -1.025,-1.026 -0.567,0 -1.023,0.458 -1.023,1.026 0,0.563 0.456,1.024 1.023,1.024 C -0.456,1.024 0,0.563 0,0" /></g><g
           transform="translate(138.7017,44.4737)"
           id="g334"><path
             id="path336"
             style="fill:#2b2b2b;fill-opacity:1;fill-rule:nonzero;stroke:none"
             d="m 0,0 c 0,-0.563 -0.458,-1.022 -1.022,-1.022 -0.57,0 -1.028,0.459 -1.028,1.022 0,0.567 0.458,1.029 1.028,1.029 C -0.458,1.029 0,0.567 0,0" /></g><g
           transform="translate(138.7017,39.3477)"
           id="g338"><path
             id="path340"
             style="fill:#2b2b2b;fill-opacity:1;fill-rule:nonzero;stroke:none"
             d="m 0,0 c 0,-0.566 -0.458,-1.025 -1.022,-1.025 -0.57,0 -1.028,0.459 -1.028,1.025 0,0.566 0.458,1.027 1.028,1.027 C -0.458,1.027 0,0.566 0,0" /></g><g
           transform="translate(138.7017,34.2227)"
           id="g342"><path
             id="path344"
             style="fill:#2b2b2b;fill-opacity:1;fill-rule:nonzero;stroke:none"
             d="m 0,0 c 0,-0.566 -0.458,-1.027 -1.022,-1.027 -0.57,0 -1.028,0.461 -1.028,1.027 0,0.562 0.458,1.023 1.028,1.023 C -0.458,1.023 0,0.562 0,0" /></g><g
           transform="translate(138.7017,29.0899)"
           id="g346"><path
             id="path348"
             style="fill:#2b2b2b;fill-opacity:1;fill-rule:nonzero;stroke:none"
             d="m 0,0 c 0,-0.564 -0.458,-1.023 -1.022,-1.023 -0.57,0 -1.028,0.459 -1.028,1.023 0,0.568 0.458,1.028 1.028,1.028 C -0.458,1.028 0,0.568 0,0" /></g><g
           transform="translate(138.7017,23.9629)"
           id="g350"><path
             id="path352"
             style="fill:#2b2b2b;fill-opacity:1;fill-rule:nonzero;stroke:none"
             d="m 0,0 c 0,-0.564 -0.458,-1.025 -1.022,-1.025 -0.57,0 -1.028,0.461 -1.028,1.025 0,0.568 0.458,1.028 1.028,1.028 C -0.458,1.028 0,0.568 0,0" /></g><g
           transform="translate(138.7017,18.8379)"
           id="g354"><path
             id="path356"
             style="fill:#2b2b2b;fill-opacity:1;fill-rule:nonzero;stroke:none"
             d="m 0,0 c 0,-0.566 -0.458,-1.027 -1.022,-1.027 -0.57,0 -1.028,0.461 -1.028,1.027 0,0.565 0.458,1.023 1.028,1.023 C -0.458,1.023 0,0.565 0,0" /></g><g
           transform="translate(138.7017,13.709)"
           id="g358"><path
             id="path360"
             style="fill:#2b2b2b;fill-opacity:1;fill-rule:nonzero;stroke:none"
             d="m 0,0 c 0,-0.568 -0.458,-1.025 -1.022,-1.025 -0.57,0 -1.028,0.457 -1.028,1.025 0,0.564 0.458,1.025 1.028,1.025 C -0.458,1.025 0,0.564 0,0" /></g><g
           transform="translate(133.5747,33.1953)"
           id="g362"><path
             id="path364"
             style="fill:#2b2b2b;fill-opacity:1;fill-rule:nonzero;stroke:none"
             d="m 0,0 c 0,-0.565 -0.458,-1.029 -1.025,-1.029 -0.568,0 -1.026,0.464 -1.026,1.029 0,0.563 0.458,1.027 1.026,1.027 C -0.458,1.027 0,0.563 0,0" /></g><g
           transform="translate(133.5747,28.0674)"
           id="g366"><path
             id="path368"
             style="fill:#2b2b2b;fill-opacity:1;fill-rule:nonzero;stroke:none"
             d="m 0,0 c 0,-0.565 -0.458,-1.024 -1.025,-1.024 -0.568,0 -1.026,0.459 -1.026,1.024 0,0.567 0.458,1.023 1.026,1.023 C -0.458,1.023 0,0.567 0,0" /></g><g
           transform="translate(133.5747,22.9375)"
           id="g370"><path
             id="path372"
             style="fill:#2b2b2b;fill-opacity:1;fill-rule:nonzero;stroke:none"
             d="m 0,0 c 0,-0.564 -0.458,-1.022 -1.025,-1.022 -0.568,0 -1.026,0.458 -1.026,1.022 0,0.567 0.458,1.025 1.026,1.025 C -0.458,1.025 0,0.567 0,0" /></g><g
           transform="translate(133.5747,17.8106)"
           id="g374"><path
             id="path376"
             style="fill:#2b2b2b;fill-opacity:1;fill-rule:nonzero;stroke:none"
             d="m 0,0 c 0,-0.565 -0.458,-1.025 -1.025,-1.025 -0.568,0 -1.026,0.46 -1.026,1.025 0,0.564 0.458,1.027 1.026,1.027 C -0.458,1.027 0,0.564 0,0" /></g><g
           transform="translate(133.5747,12.6836)"
           id="g378"><path
             id="path380"
             style="fill:#2b2b2b;fill-opacity:1;fill-rule:nonzero;stroke:none"
             d="m 0,0 c 0,-0.564 -0.458,-1.026 -1.025,-1.026 -0.568,0 -1.026,0.462 -1.026,1.026 0,0.566 0.458,1.025 1.026,1.025 C -0.458,1.025 0,0.566 0,0" /></g><g
           transform="translate(128.4482,37.2988)"
           id="g382"><path
             id="path384"
             style="fill:#2b2b2b;fill-opacity:1;fill-rule:nonzero;stroke:none"
             d="m 0,0 c 0,-0.566 -0.458,-1.028 -1.029,-1.028 -0.567,0 -1.023,0.462 -1.023,1.028 0,0.563 0.456,1.024 1.023,1.024 C -0.458,1.024 0,0.563 0,0" /></g><g
           transform="translate(128.4482,32.166)"
           id="g386"><path
             id="path388"
             style="fill:#2b2b2b;fill-opacity:1;fill-rule:nonzero;stroke:none"
             d="m 0,0 c 0,-0.564 -0.458,-1.023 -1.029,-1.023 -0.567,0 -1.023,0.459 -1.023,1.023 0,0.568 0.456,1.029 1.023,1.029 C -0.458,1.029 0,0.568 0,0" /></g><g
           transform="translate(128.4482,27.043)"
           id="g390"><path
             id="path392"
             style="fill:#2b2b2b;fill-opacity:1;fill-rule:nonzero;stroke:none"
             d="m 0,0 c 0,-0.568 -0.458,-1.028 -1.029,-1.028 -0.567,0 -1.023,0.46 -1.023,1.028 0,0.564 0.456,1.024 1.023,1.024 C -0.458,1.024 0,0.564 0,0" /></g><g
           transform="translate(128.4482,21.9151)"
           id="g394"><path
             id="path396"
             style="fill:#2b2b2b;fill-opacity:1;fill-rule:nonzero;stroke:none"
             d="m 0,0 c 0,-0.566 -0.458,-1.028 -1.029,-1.028 -0.567,0 -1.023,0.462 -1.023,1.028 0,0.564 0.456,1.022 1.023,1.022 C -0.458,1.022 0,0.564 0,0" /></g><g
           transform="translate(128.4482,16.7852)"
           id="g398"><path
             id="path400"
             style="fill:#2b2b2b;fill-opacity:1;fill-rule:nonzero;stroke:none"
             d="m 0,0 c 0,-0.566 -0.458,-1.023 -1.029,-1.023 -0.567,0 -1.023,0.457 -1.023,1.023 0,0.567 0.456,1.025 1.023,1.025 C -0.458,1.025 0,0.567 0,0" /></g></g></g></g></svg>