<?xml version="1.0" encoding="utf-8"?>
<!-- Generator: Adobe Illustrator 19.0.0, SVG Export Plug-In . SVG Version: 6.00 Build 0)  -->
<svg version="1.1" baseProfile="tiny" id="Layer_1" xmlns="http://www.w3.org/2000/svg" xmlns:xlink="http://www.w3.org/1999/xlink"
	 x="0px" y="0px" viewBox="0 0 418 448.5" xml:space="preserve">
<g>
	<path fill="#524C82" d="M413.8,444H4.2c-2.3,0-4.2-1.9-4.2-4.2V4.2C0,1.9,1.9,0,4.2,0h409.7c2.3,0,4.2,1.9,4.2,4.2v435.7
		C418,442.1,416.1,444,413.8,444z"/>
	<circle cx="44" cy="109.6" r="25.5"/>
	<circle fill="#CBC9E0" cx="44" cy="109.6" r="25"/>
	<circle cx="44" cy="386.6" r="25.5"/>
	<circle fill="#463371" cx="44" cy="386.6" r="25"/>
	<circle cx="374" cy="386.7" r="25.5"/>
	<circle fill="#453371" cx="374" cy="386.7" r="25"/>
	<circle fill="#524C82" cx="374" cy="386.7" r="13"/>
	<g>
		<path fill="#20203A" d="M213.2,404c-1.4,0-2.8,0-4.2,0c-35,0.2-78.1-1.3-132.1-13.5l-1-0.1l0.1-1c0.1-0.9,0.1-1.8,0.1-2.7
			c0-17.6-14.4-32-32-32h-1V142h1c17.6,0,32-14.4,32-32S61.7,78,44,78h-1V0h2v76c18.3,0.5,33,15.6,33,34s-14.7,33.5-33,34v208.7
			c18.3,0.5,33,15.6,33,34c0,0.7,0,1.3-0.1,2c53.5,12,96.2,13.5,131,13.3c34.8,0.1,77.5-1.3,131.1-13.3c0-0.7-0.1-1.3-0.1-2
			c0-18.4,14.7-33.5,33-34V0h2v354.6h-1c-17.6,0-32,14.4-32,32c0,0.9,0,1.8,0.1,2.7l0.1,1l-1,0.1C289.2,402.1,247.5,404,213.2,404z"
			/>
	</g>
	<g>
		<path fill="#483573" d="M290.3,34.9c-6,0-10-4.4-10-9.7c0-5.3,4-9.8,10-9.7H347c6,0,10,4.4,10,9.7c0,5.3-4,9.7-10,9.7H290.3
			L290.3,34.9z M290.3,17.9c-4.8,0-7.7,3.3-7.7,7.3c0,4.1,2.9,7.4,7.7,7.3h56.6c4.8,0,7.7-3.3,7.7-7.3c0-4.1-2.9-7.3-7.7-7.3H290.3z
			"/>
		<path id="path456_2_" fill="#483573" d="M287.9,20.6h2.8l3.8,6.4l0-6.4h2.7v9.2h-2.7l-3.9-6.4v6.4h-2.8L287.9,20.6L287.9,20.6z"/>
		<path id="path458_2_" fill="#483573" d="M312.2,21.6h2.7v1.2h1.4v0.9h-1.4l0,6.1h-2.7l0-6.1h-1.5v-0.9l1.5,0L312.2,21.6
			L312.2,21.6z"/>
		<path id="path460_2_" fill="#483573" d="M298.8,23.7h2.7v6.1h-2.7V23.7z"/>
		<path id="path462_2_" fill="#483573" d="M298.8,20.6h2.7v1.9h-2.7V20.6z"/>
		<path id="path464_2_" fill="#483573" d="M345.6,23.3c-2.2,0-3.9,1.5-3.9,3.4c0,1.9,1.8,3.4,3.9,3.4c2.2,0,3.9-1.5,3.9-3.4
			C349.6,24.8,347.8,23.3,345.6,23.3 M346.7,26.7c0,0,0,0.9,0,1.3c0,1-0.6,1.4-1.1,1.4c-0.5,0-1.1-0.4-1.1-1.4c0-0.4,0-1.3,0-1.3
			s0-0.9,0-1.3c0-1,0.6-1.4,1.1-1.4c0.5,0,1.1,0.4,1.1,1.4C346.7,25.8,346.7,26.5,346.7,26.7L346.7,26.7L346.7,26.7z"/>
		<path id="path466_2_" fill="#483573" d="M338.2,26.7v-1.1c0-0.9-0.6-1.2-1-1.2c-0.4,0-1,0.2-1,1.2v1.1v1.1c0,0.9,0.6,1.2,1,1.2
			c0.4,0,1-0.2,1-1.2V26.7L338.2,26.7z M338.2,20.6h2.6v9.2h-2.6c0,0,0-0.3,0-0.4c-1,0.7-2.2,0.7-3.1,0.2c-0.2-0.1-1.8-0.9-1.8-3
			c0-1.6,1.5-3.4,3.4-3.2c0.6,0.1,1.1,0.3,1.5,0.5L338.2,20.6L338.2,20.6z"/>
		<path id="path468_2_" fill="#483573" d="M307.7,23.4c1,0,3,0.6,3,3.1c0,0.4,0,3.3,0,3.3h-2.7v-4c0-0.5-0.5-1.1-1.2-1.1
			c-0.7,0-1.3,0.6-1.3,1.1c0,0.3,0,4,0,4h-2.7l0-6.1l2.7,0c0,0,0,0.5,0,0.6C306.1,23.8,306.8,23.4,307.7,23.4"/>
		<path id="path470_2_" fill="#483573" d="M329.4,23.4c1,0,3,0.6,3,3.1c0,0.4,0,3.3,0,3.3h-2.7v-4c0-0.5-0.5-1.1-1.2-1.1
			c-0.7,0-1.3,0.6-1.3,1.1c0,0.3,0,4,0,4h-2.7v-6.1l2.7,0c0,0,0,0.5,0,0.6C327.8,23.8,328.6,23.4,329.4,23.4"/>
		<path id="path472_2_" fill="#483573" d="M321,27.7c0,0,0,0,0,0.4c0,1.1-0.7,1.4-1.1,1.4c-0.4,0-1.1-0.2-1.1-1.4c0-0.3,0-1.3,0-1.3
			s5,0,5,0c0-1.9-1.8-3.5-3.9-3.5c-2.2,0-3.9,1.5-3.9,3.4c0,1.9,1.8,3.4,3.9,3.4c1.8,0,3.3-1.1,3.8-2.5L321,27.7L321,27.7z
			 M318.8,25.8c0-0.5,0-0.9,0.2-1.2c0.2-0.4,0.6-0.6,0.9-0.6c0.3,0,0.7,0.2,0.9,0.6c0.2,0.3,0.2,0.7,0.2,1.2H318.8z"/>
		<path id="path474_2_" fill="#483573" d="M350.1,21.6c0.3,0,0.5,0,0.5-0.3c0-0.3-0.2-0.3-0.4-0.3h-0.4v0.6H350.1z M349.7,22.8h-0.3
			v-2.1h0.8c0.5,0,0.7,0.2,0.7,0.6c0,0.4-0.2,0.5-0.5,0.6l0.6,0.9h-0.3l-0.5-0.9h-0.4V22.8L349.7,22.8z"/>
		<path id="path476_2_" fill="#483573" d="M350.1,23.3c0.8,0,1.4-0.6,1.4-1.5c0-0.9-0.6-1.5-1.4-1.5c-0.8,0-1.4,0.6-1.4,1.5
			C348.7,22.6,349.3,23.3,350.1,23.3 M348.3,21.8c0-1,0.8-1.8,1.8-1.8c1,0,1.8,0.8,1.8,1.8c0,1-0.8,1.8-1.8,1.8
			C349.1,23.6,348.3,22.8,348.3,21.8"/>
	</g>
	<path fill="#F2A136" d="M264.2,401.1c-20.1,1.6-38.4,1.9-55.2,1.8c-16.9,0.1-35.1-0.3-55.2-1.8l0,0c8.1,8.9,29.7,15.3,55.2,15.3
		C234.4,416.5,256.1,410.1,264.2,401.1"/>
	<path fill="#E58B48" d="M247.6,403.4c-14.1,1.1-26.9,1.3-38.7,1.3c-11.8,0-24.6-0.2-38.7-1.3l0,0c5.7,6.3,20.8,10.7,38.6,10.7
		C226.7,414.2,241.9,409.7,247.6,403.4"/>
	<circle cx="209" cy="228" r="116.5"/>
	<path fill="#393939" d="M247.4,286l22.2,29.1l-0.1-0.1c-17.2,12-38.1,19-60.6,19c-22.4,0-43.2-7-60.4-18.9l0,0l22.2-29.1l0,0
		c10.9,7.3,24,11.5,38.1,11.5c14.3,0,27.5-4.3,38.5-11.8L247.4,286z"/>
	<path fill="#CBC9E0" d="M174.4,296.3L156.3,320c15.5,8.9,33.5,14,52.7,14c22.5,0,43.4-7,60.6-19l-18.3-24
		c-11.6,9.2-27.3,14.5-42.3,14.5C196.4,305.5,184.6,302.2,174.4,296.3"/>
	<g>
		<path fill-rule="evenodd" fill="#B7B7B7" d="M217.7,208.2v-1.3H214c-0.5,0-0.9,0.1-1.3,0.3c-0.4,0.2-0.7,0.4-0.9,0.8
			c-0.2,0.3-0.3,0.7-0.4,1v4c0,0.4,0.1,0.7,0.3,1c0.2,0.3,0.6,0.6,0.9,0.8c0.4,0.2,0.8,0.3,1.3,0.3h3.7v-1.3h-3.6
			c-0.3,0-0.6-0.1-0.8-0.2c-0.2-0.2-0.3-0.3-0.3-0.6v-1.5h4.7v-1.3H213v-1.1c0-0.3,0.1-0.5,0.3-0.6c0.2-0.2,0.5-0.2,0.8-0.2H217.7
			L217.7,208.2z"/>
		<polygon fill-rule="evenodd" fill="#B7B7B7" points="227.2,215.1 227.2,208.7 230.5,215.1 232.1,215.1 232.1,206.9 230.5,206.9 
			230.5,212.1 227.8,206.9 225.6,206.9 225.6,215.1 227.2,215.1 		"/>
		<path fill-rule="evenodd" fill="#B7B7B7" d="M240,206.9v8.2h3.9c0.5,0,0.9-0.1,1.3-0.3c0.4-0.2,0.7-0.4,1-0.8
			c0.2-0.3,0.3-0.7,0.4-1.1V209c0-0.4-0.1-0.7-0.4-1c-0.2-0.3-0.6-0.6-1-0.8c-0.4-0.2-0.8-0.3-1.3-0.3H240L240,206.9z M244.7,208.4
			c0.2,0.2,0.3,0.4,0.4,0.6v3.9c0,0.3-0.1,0.5-0.4,0.6c-0.2,0.2-0.5,0.3-0.8,0.3h-2.3v-5.6h2.3C244.2,208.2,244.4,208.3,244.7,208.4
			L244.7,208.4z"/>
		<path fill-rule="evenodd" fill="#B7B7B7" d="M259.4,207.1c-0.4-0.2-0.8-0.3-1.3-0.3h-1.4c-0.5,0-0.9,0.1-1.3,0.3
			c-0.4,0.2-0.7,0.4-1,0.8c-0.2,0.3-0.4,0.7-0.4,1.1v4.1c0,0.4,0.1,0.7,0.4,1c0.2,0.3,0.6,0.6,1,0.8c0.4,0.2,0.8,0.3,1.3,0.3h1.4
			c0.5,0,0.9-0.1,1.3-0.3c0.4-0.2,0.7-0.4,1-0.8c0.2-0.3,0.4-0.7,0.4-1V209c0-0.4-0.1-0.8-0.4-1.1
			C260.1,207.6,259.8,207.3,259.4,207.1L259.4,207.1z M258.8,208.4c0.2,0.2,0.4,0.4,0.4,0.6v4c0,0.2-0.1,0.4-0.4,0.6
			c-0.2,0.2-0.5,0.3-0.8,0.3h-1.3c-0.3,0-0.6-0.1-0.8-0.3c-0.2-0.2-0.3-0.4-0.3-0.6v-4c0-0.2,0.1-0.4,0.3-0.6
			c0.2-0.2,0.5-0.2,0.8-0.3h1.3C258.3,208.1,258.6,208.2,258.8,208.4L258.8,208.4z"/>
		<polygon fill-rule="evenodd" fill="#B7B7B7" points="262.7,220.2 262.7,218 251.4,218 251.4,228.6 262.8,228.6 262.8,226.2 
			254.4,226.2 254.4,224.2 259.2,224.2 259.2,222 254.4,222 254.4,220.2 262.7,220.2 		"/>
		<path fill-rule="evenodd" fill="#B7B7B7" d="M250.2,220.2c0-0.7-0.2-1.3-0.6-1.7c-0.4-0.4-1.1-0.6-2-0.6h-9.3v10.6h8.6
			c2.3,0,3.4-0.8,3.4-2.3v-1.3c0-0.9-0.4-1.5-1.2-1.9c0.7-0.3,1.1-0.9,1.1-1.7V220.2L250.2,220.2z M247.3,220.3
			c0.1,0.1,0.2,0.2,0.1,0.4v1c0,0.1,0,0.3-0.1,0.3l-0.7,0.1h-5.3v-1.9h5.3C247,220.1,247.3,220.2,247.3,220.3L247.3,220.3z
			 M241.3,226.3v-2.1h5.3c0.4,0,0.6,0.1,0.8,0.1c0.1,0.1,0.2,0.3,0.2,0.5v0.8c0,0.2-0.1,0.4-0.2,0.5c-0.1,0.1-0.4,0.2-0.8,0.2H241.3
			L241.3,226.3z"/>
		<path fill-rule="evenodd" fill="#B7B7B7" d="M237,218h-3v8.2h-6.4V218h-3v8c0,0.7,0.1,1.2,0.3,1.6c0.2,0.4,0.5,0.7,0.9,0.8
			c0.4,0.2,1,0.3,1.7,0.2h6.6c0.7,0,1.3-0.1,1.7-0.2c0.4-0.2,0.7-0.4,0.9-0.8c0.2-0.4,0.3-0.9,0.3-1.6V218L237,218z"/>
		<path fill-rule="evenodd" fill="#B7B7B7" d="M223.2,219.1c-0.2-0.4-0.5-0.7-0.9-0.8c-0.4-0.2-1-0.2-1.7-0.2h-6.5
			c-0.7,0-1.3,0.1-1.7,0.2c-0.4,0.2-0.7,0.4-0.9,0.8c-0.2,0.4-0.3,0.9-0.3,1.6v5.3c0,0.7,0.1,1.2,0.3,1.6c0.2,0.4,0.5,0.7,0.9,0.8
			c0.4,0.2,1,0.3,1.7,0.2h6.5c0.7,0,1.3-0.1,1.7-0.2c0.4-0.2,0.7-0.4,0.9-0.8c0.2-0.4,0.3-0.9,0.3-1.6V224l-3,0v2.2h-6.3v-5.9h6.3
			v1.9h3v-1.6C223.5,220,223.4,219.4,223.2,219.1L223.2,219.1z"/>
		<polygon fill-rule="evenodd" fill="#B7B7B7" points="209.1,220.2 209.1,218 197.8,218 197.8,228.6 209.2,228.6 209.2,226.2 
			200.8,226.2 200.8,224.2 205.6,224.2 205.6,222 200.8,222 200.8,220.2 209.1,220.2 		"/>
		<polygon fill-rule="evenodd" fill="#B7B7B7" points="164,206.9 162.4,206.9 162.4,212.1 159.7,206.9 157.5,206.9 157.5,215.1 
			159.1,215.1 159.1,208.7 162.4,215.1 164,215.1 164,206.9 		"/>
		<polygon fill-rule="evenodd" fill="#B7B7B7" points="174.8,215.1 174.8,206.9 173,206.9 173,215.1 174.8,215.1 		"/>
		<polygon fill-rule="evenodd" fill="#B7B7B7" points="185.5,215.1 185.5,208.7 188.8,215.1 190.4,215.1 190.4,206.9 188.7,206.9 
			188.7,212.1 186,206.9 183.8,206.9 183.8,215.1 185.5,215.1 		"/>
		<polygon fill-rule="evenodd" fill="#B7B7B7" points="197.6,206.9 197.6,208.2 200.3,208.2 200.3,215.1 202,215.1 202,208.2 
			204.8,208.2 204.8,206.9 197.6,206.9 		"/>
		<polygon fill-rule="evenodd" fill="#B7B7B7" points="193.8,218 189.3,225.5 184.8,218 182.1,218 182.1,226.7 176.8,218 174.2,218 
			167.8,228.6 175.8,228.6 175.8,226.2 172.2,226.2 175.5,220.9 179.9,228.6 184.8,228.6 184.8,222.9 188.2,228.6 190.4,228.6 
			193.8,222.9 193.8,228.6 196.5,228.6 196.5,218 193.8,218 		"/>
		<path fill-rule="evenodd" fill="#B7B7B7" d="M168.1,220.3V218h-10c-0.7,0-1.3,0.1-1.7,0.2c-0.4,0.2-0.7,0.4-0.9,0.8
			c-0.2,0.4-0.3,0.9-0.3,1.6v5.3c0,0.7,0.1,1.2,0.3,1.6c0.2,0.4,0.5,0.7,0.9,0.8c0.4,0.2,1,0.3,1.7,0.2h7.3c1,0,1.8-0.2,2.2-0.6
			c0.4-0.4,0.6-1.1,0.6-2.1v-3.8h-6.9v2.2h4v1.8h-7.1v-5.9H168.1L168.1,220.3z"/>
	</g>
	<g>
		<g>
			<path fill="#B7B7B7" d="M61.6,79.2c0.9-2.5,1.3-3.8,2.2-6.3c0.7,0.2,1,0.4,1.7,0.7c0.6,0.3,1,0.5,1.2,0.6
				c0.3,0.2,0.4,0.6,0.5,0.9c0,0.4-0.1,0.8-0.3,1.3c-0.2,0.4-0.5,0.8-0.8,1c-0.3,0.2-0.6,0.3-0.9,0.4c-0.3,0-0.7-0.1-1.3-0.3
				c-0.2-0.1-0.4-0.1-0.6-0.2c-0.4,0.9-0.5,1.4-0.9,2.4C62.2,79.4,62,79.4,61.6,79.2z M64.5,74.4c-0.3,0.7-0.4,1.1-0.7,1.8
				c0.2,0.1,0.3,0.1,0.5,0.2c0.4,0.1,0.6,0.2,0.8,0.2c0.2,0,0.3,0,0.4-0.1s0.3-0.3,0.4-0.5c0.1-0.2,0.1-0.4,0.1-0.6
				c0-0.2-0.1-0.3-0.2-0.4c-0.1-0.1-0.4-0.3-0.8-0.4C64.8,74.5,64.7,74.5,64.5,74.4z"/>
			<path fill="#B7B7B7" d="M68.5,78.8c0.4-0.7,0.8-1.2,1.3-1.5c0.5-0.3,0.9-0.5,1.4-0.5c0.5,0,0.9,0.2,1.4,0.5c0.6,0.5,1,1.1,1,1.9
				c0,0.8-0.4,1.6-1.1,2.4c-0.7,0.9-1.5,1.4-2.2,1.6c-0.6,0.2-1.2,0.1-1.7-0.3c-0.5-0.4-0.8-0.9-0.8-1.6
				C67.7,80.6,67.9,79.8,68.5,78.8z M69.4,79.3C69,80,68.8,80.5,68.8,81c0,0.5,0.1,0.8,0.4,1c0.3,0.2,0.7,0.2,1.1,0.1
				c0.4-0.2,0.9-0.5,1.4-1.2c0.5-0.6,0.7-1.1,0.8-1.6c0-0.5-0.2-0.8-0.5-1.1c-0.4-0.3-0.8-0.3-1.2-0.2
				C70.3,78.3,69.8,78.7,69.4,79.3z"/>
			<path fill="#B7B7B7" d="M72.5,86.3c1.7-2.1,2.4-3.3,3.9-5.5c0.3,0.3,0.5,0.5,0.8,0.8c-1.1,1.5-1.7,2.2-2.8,3.7
				c1.6-1,2.4-1.4,4.1-2.3c0.3,0.4,0.5,0.6,0.8,1c-1.2,1.5-1.9,2.2-3.2,3.6c1.7-0.9,2.5-1.3,4.3-2.1c0.3,0.4,0.4,0.6,0.6,0.9
				c-2.5,1-3.8,1.6-6.2,2.8c-0.2-0.3-0.3-0.5-0.6-0.8c1.4-1.5,2-2.3,3.3-3.9c-1.8,1-2.7,1.5-4.4,2.5C72.9,86.7,72.8,86.6,72.5,86.3z
				"/>
			<path fill="#B7B7B7" d="M76.6,91.9c2.3-1.3,3.5-1.9,5.9-3.2c0.8,1.4,1.1,2.2,1.8,3.7c-0.4,0.2-0.6,0.3-1.1,0.4
				c-0.4-1.1-0.7-1.6-1.2-2.6c-0.5,0.3-0.8,0.4-1.3,0.7c0.5,0.9,0.7,1.4,1.1,2.3c-0.4,0.2-0.6,0.3-1,0.4c-0.4-0.9-0.6-1.4-1-2.3
				c-0.6,0.3-1,0.5-1.6,0.8c0.5,0.9,0.7,1.4,1.1,2.4c-0.4,0.2-0.6,0.3-1.1,0.4C77.5,93.7,77.2,93.1,76.6,91.9z"/>
			<path fill="#B7B7B7" d="M78.8,97.3c2.6-0.8,3.9-1.1,6.4-1.9c0.3,0.9,0.4,1.4,0.6,2.3c0.1,0.6,0.2,1,0.1,1.3
				c-0.1,0.3-0.2,0.5-0.5,0.7c-0.3,0.2-0.6,0.3-1,0.4c-0.5,0.1-1,0-1.3-0.2c-0.4-0.2-0.6-0.5-0.8-0.9c-0.1,0.2-0.3,0.5-0.5,0.6
				c-0.2,0.2-0.5,0.4-1,0.7c-0.5,0.3-0.7,0.5-1.2,0.8c-0.1-0.4-0.1-0.7-0.2-1.1c0.5-0.4,0.8-0.6,1.3-0.9c0.5-0.4,0.8-0.6,0.9-0.7
				c0.1-0.1,0.2-0.2,0.2-0.4c0-0.1,0-0.3,0-0.5c0-0.1,0-0.1-0.1-0.2c-1.1,0.3-1.6,0.4-2.7,0.7C79,97.8,78.9,97.7,78.8,97.3z
				 M82.8,97.2c0.1,0.3,0.1,0.5,0.2,0.8c0.1,0.5,0.2,0.8,0.3,0.9c0.1,0.1,0.2,0.2,0.3,0.3c0.1,0.1,0.3,0.1,0.5,0
				c0.2,0,0.4-0.1,0.5-0.2c0.1-0.1,0.2-0.2,0.2-0.4c0-0.1,0-0.4-0.1-0.9c-0.1-0.3-0.1-0.5-0.2-0.8C83.8,97,83.5,97.1,82.8,97.2z"/>
		</g>
	</g>
	<g>
		<g>
			<path fill="#B7B7B7" d="M58,354.1c0.5-2.4,0.7-3.6,1.2-6.1c1.3,0.3,1.9,0.4,3.2,0.8c0.8,0.2,1.3,0.5,1.6,0.7
				c0.3,0.2,0.5,0.5,0.6,0.8c0.1,0.3,0.1,0.7-0.1,1c-0.2,0.4-0.5,0.7-0.9,0.9c-0.4,0.2-0.9,0.2-1.5,0.1c0.2,0.2,0.4,0.5,0.5,0.7
				c0.1,0.2,0.2,0.6,0.3,1.2c0.1,0.6,0.2,0.8,0.2,1.4c-0.5-0.2-0.8-0.3-1.4-0.6c-0.2-0.6-0.2-0.9-0.4-1.6c-0.2-0.6-0.3-0.9-0.4-1.1
				c-0.1-0.2-0.2-0.3-0.3-0.4c-0.1-0.1-0.3-0.2-0.7-0.2c-0.1,0-0.2,0-0.3-0.1c-0.2,1-0.4,1.5-0.6,2.5
				C58.8,354.3,58.5,354.2,58,354.1z M60.1,350.9c0.4,0.1,0.6,0.2,1,0.3c0.6,0.2,1,0.3,1.2,0.3c0.2,0,0.3,0,0.5-0.1
				c0.1-0.1,0.3-0.2,0.3-0.4c0.1-0.2,0.1-0.4,0-0.5c-0.1-0.2-0.2-0.3-0.4-0.4c-0.1-0.1-0.5-0.2-1.2-0.4c-0.5-0.1-0.7-0.2-1.1-0.3
				C60.3,350,60.3,350.3,60.1,350.9z"/>
			<path fill="#B7B7B7" d="M63.9,356c1.1-2.2,1.6-3.4,2.6-5.6c2,1,3,1.5,4.8,2.8c-0.2,0.3-0.4,0.5-0.6,0.9c-1.3-0.9-2-1.3-3.4-2.1
				c-0.3,0.5-0.4,0.7-0.6,1.2c1.2,0.7,1.8,1,3,1.8c-0.2,0.3-0.4,0.5-0.6,0.9c-1.1-0.8-1.7-1.1-2.9-1.8c-0.3,0.6-0.5,0.9-0.8,1.5
				c1.3,0.7,1.9,1,3,1.9c-0.2,0.3-0.4,0.5-0.6,0.9C66.4,357.3,65.6,356.8,63.9,356z"/>
			<path fill="#B7B7B7" d="M69.7,357.2c0.4,0.3,0.7,0.4,1.1,0.7c-0.4,0.7-0.3,1.3,0.3,1.8c0.3,0.3,0.6,0.4,0.8,0.5
				c0.3,0,0.5,0,0.7-0.2c0.1-0.1,0.2-0.2,0.2-0.3c0-0.1,0-0.3-0.1-0.4c-0.1-0.2-0.3-0.5-0.7-1.1c-0.3-0.5-0.6-0.9-0.7-1.2
				c-0.1-0.3-0.2-0.6-0.1-0.9c0-0.3,0.1-0.6,0.3-0.8c0.2-0.3,0.5-0.4,0.8-0.5c0.3-0.1,0.7,0,1.1,0.1c0.4,0.2,0.8,0.4,1.2,0.8
				c0.7,0.6,1,1.2,1.1,1.8c0.1,0.6-0.1,1.1-0.5,1.5c-0.4-0.4-0.6-0.6-1-1c0.2-0.3,0.3-0.5,0.2-0.8c-0.1-0.2-0.2-0.5-0.5-0.8
				c-0.3-0.3-0.6-0.4-0.8-0.5c-0.2-0.1-0.4,0-0.5,0.1c-0.1,0.1-0.1,0.3-0.1,0.5c0.1,0.2,0.3,0.6,0.7,1.1c0.4,0.6,0.6,1.1,0.7,1.4
				c0.1,0.3,0.1,0.7,0,0.9c-0.1,0.3-0.3,0.6-0.5,0.8c-0.4,0.4-0.9,0.5-1.4,0.5c-0.5,0-1.1-0.4-1.7-0.9
				C69.2,359.5,69,358.4,69.7,357.2z"/>
			<path fill="#B7B7B7" d="M72.8,362.9c1.9-1.6,2.9-2.3,4.8-3.9c1.4,1.7,2.1,2.7,3.1,4.7c-0.4,0.2-0.5,0.3-0.9,0.5
				c-0.8-1.4-1.2-2.1-2.1-3.3c-0.4,0.3-0.7,0.5-1.1,0.8c0.8,1.1,1.2,1.7,1.9,3c-0.4,0.2-0.5,0.3-0.9,0.5c-0.7-1.2-1-1.8-1.8-2.8
				c-0.5,0.4-0.8,0.6-1.4,1c0.8,1.1,1.2,1.7,1.9,3c-0.4,0.2-0.6,0.3-0.9,0.5C74.5,365.2,73.9,364.4,72.8,362.9z"/>
			<path fill="#B7B7B7" d="M76.4,369c1.9-0.8,2.8-1.2,4.7-2c-0.3-0.8-0.5-1.2-0.9-2c0.4-0.2,0.6-0.3,0.9-0.5
				c1.1,2.2,1.6,3.3,2.3,5.7c-0.4,0.1-0.6,0.2-1,0.3c-0.2-0.9-0.4-1.3-0.7-2.1c-1.9,0.7-2.9,1.1-4.8,1.8
				C76.7,369.7,76.6,369.4,76.4,369z"/>
		</g>
	</g>
	<g>
		<g>
			<path fill="#B7B7B7" d="M340.2,371.7c-0.6-0.1-1.1-0.3-1.4-0.6c-0.3-0.4-0.6-0.8-0.7-1.3c-0.1-0.5-0.1-1.2,0.1-1.9
				c0.3-1,0.8-1.8,1.4-2.2c0.6-0.4,1.4-0.5,2.1-0.2c0.8,0.3,1.2,0.9,1.5,1.6c0.2,0.6,0.2,1.3,0,2.1c-0.2,0.8-0.5,1.5-1,1.9
				C341.6,371.6,341,371.8,340.2,371.7z M340.3,370.4c0.6,0.1,1,0,1.4-0.3c0.3-0.3,0.6-0.6,0.7-1.1c0.1-0.5,0.1-0.9-0.1-1.3
				c-0.2-0.4-0.5-0.7-1.1-0.9c-0.5-0.2-1-0.2-1.4,0.1c-0.4,0.3-0.6,0.7-0.8,1.2c-0.2,0.6-0.1,1.1,0.1,1.5
				C339.4,370,339.8,370.2,340.3,370.4z"/>
			<path fill="#B7B7B7" d="M344.5,365.6c-1.8-0.9-2.7-1.3-4.5-2.1c0.4-0.9,0.6-1.3,1.1-2.1c0.5-0.8,0.8-1.2,1-1.4
				c0.3-0.3,0.7-0.5,1-0.6c0.4-0.1,0.7,0,1,0.3c0.3,0.2,0.5,0.5,0.5,0.8c0.1,0.3,0,0.6-0.1,1c-0.1,0.3-0.4,0.8-0.8,1.5
				c-0.2,0.3-0.3,0.4-0.4,0.7c0.7,0.4,1,0.5,1.7,0.9C344.8,365,344.7,365.2,344.5,365.6z M341.4,362.6c0.5,0.3,0.7,0.4,1.2,0.7
				c0.1-0.3,0.2-0.4,0.4-0.6c0.3-0.4,0.4-0.7,0.5-0.9c0.1-0.2,0.1-0.3,0.1-0.5c0-0.2-0.1-0.3-0.2-0.4c-0.1-0.1-0.3-0.1-0.5-0.1
				c-0.2,0-0.3,0.1-0.4,0.3c-0.1,0.1-0.4,0.4-0.7,1C341.6,362.2,341.5,362.3,341.4,362.6z"/>
			<path fill="#B7B7B7" d="M347.4,361.1c-1.5-1.3-2.3-2-3.8-3.3c1.4-1.6,2.2-2.4,3.9-3.7c0.2,0.3,0.3,0.4,0.5,0.7
				c-1.2,0.9-1.8,1.4-2.9,2.5c0.3,0.3,0.5,0.5,0.8,0.8c0.9-1,1.4-1.4,2.5-2.2c0.2,0.3,0.3,0.4,0.5,0.7c-1,0.8-1.5,1.2-2.4,2.2
				c0.4,0.4,0.6,0.6,1,0.9c0.9-1,1.5-1.4,2.6-2.2c0.2,0.3,0.3,0.4,0.5,0.7C349.2,359.1,348.6,359.7,347.4,361.1z"/>
			<path fill="#B7B7B7" d="M351.5,357.5c-1.1-1.7-1.7-2.5-2.8-4.1c0.5-0.3,0.7-0.5,1.2-0.8c1.7,0.5,2.5,0.9,4,1.7
				c-0.5-1.2-0.8-1.8-1.3-3.1c0.5-0.2,0.8-0.3,1.3-0.5c0.7,1.9,1,2.8,1.7,4.7c-0.5,0.2-0.7,0.3-1.1,0.5c-1.4-0.8-2.2-1.1-3.8-1.7
				c0.7,1.1,1,1.7,1.7,2.8C352.1,357.1,351.9,357.2,351.5,357.5z"/>
		</g>
	</g>
	<path fill="#D8D8D8" d="M369.5,448.5h-321c-2.5,0-4.5-2-4.5-4.5l0,0h330l0,0C374,446.5,372,448.5,369.5,448.5z"/>
</g>
</svg>
