<?xml version="1.0" encoding="UTF-8" standalone="no"?>
<svg
   xmlns:dc="http://purl.org/dc/elements/1.1/"
   xmlns:cc="http://creativecommons.org/ns#"
   xmlns:rdf="http://www.w3.org/1999/02/22-rdf-syntax-ns#"
   xmlns:svg="http://www.w3.org/2000/svg"
   xmlns="http://www.w3.org/2000/svg"
   viewBox="0 0 325.03751 248.72"
   height="248.72"
   width="325.03751"
   xml:space="preserve"
   version="1.1"
   id="svg2"><metadata
     id="metadata8"><rdf:RDF><cc:Work
         rdf:about=""><dc:format>image/svg+xml</dc:format><dc:type
           rdf:resource="http://purl.org/dc/dcmitype/StillImage" /><dc:title></dc:title></cc:Work></rdf:RDF></metadata><defs
     id="defs6"><clipPath
       id="clipPath16"
       clipPathUnits="userSpaceOnUse"><path
         id="path18"
         d="m 0,198.976 260.03,0 L 260.03,0 0,0 0,198.976 Z" /></clipPath></defs><g
     transform="matrix(1.25,0,0,-1.25,0,248.72)"
     id="g10"><g
       id="g12"><g
         clip-path="url(#clipPath16)"
         id="g14"><g
           transform="translate(201.975,30.3642)"
           id="g20"><path
             id="path22"
             style="fill:#1c1c1c;fill-opacity:1;fill-rule:nonzero;stroke:none"
             d="m 0,0 c 0,16.77 13.281,65.135 29.664,65.135 16.384,0 24.977,-45.546 28.02,-62.862 C 60.586,-14.243 46.048,-30.364 29.664,-30.364 13.281,-30.364 0,-16.77 0,0" /></g><g
           transform="translate(58.0555,30.3642)"
           id="g24"><path
             id="path26"
             style="fill:#1c1c1c;fill-opacity:1;fill-rule:nonzero;stroke:none"
             d="m 0,0 c 0,16.77 -13.281,65.135 -29.664,65.135 -16.384,0 -24.976,-45.546 -28.02,-62.862 -2.902,-16.516 11.636,-32.637 28.02,-32.637 C -13.281,-30.364 0,-16.77 0,0" /></g><g
           transform="translate(78.8124,5.9052)"
           id="g28"><path
             id="path30"
             style="fill:#b2b2b2;fill-opacity:1;fill-rule:nonzero;stroke:none"
             d="m 0,0 c -0.048,-1.391 -1.215,-2.479 -2.604,-2.43 l -17.554,0.61 c -1.391,0.049 -2.478,1.214 -2.43,2.603 l 0.174,5.035 c 0.049,1.391 1.215,2.479 2.605,2.43 L -2.255,7.639 C -0.865,7.59 0.223,6.424 0.174,5.034 L 0,0 Z" /></g><g
           transform="translate(78.8124,5.9052)"
           id="g32"><path
             id="path34"
             style="fill:none;stroke:#b2b2b2;stroke-width:0.41999999;stroke-linecap:butt;stroke-linejoin:miter;stroke-miterlimit:10;stroke-dasharray:none;stroke-opacity:1"
             d="m 0,0 c -0.048,-1.391 -1.215,-2.479 -2.604,-2.43 l -17.554,0.61 c -1.391,0.049 -2.478,1.214 -2.43,2.603 l 0.174,5.035 c 0.049,1.391 1.215,2.479 2.605,2.43 L -2.255,7.639 C -0.865,7.59 0.223,6.424 0.174,5.034 L 0,0 Z" /></g><g
           transform="translate(107.2914,4.7998)"
           id="g36"><path
             id="path38"
             style="fill:#b2b2b2;fill-opacity:1;fill-rule:nonzero;stroke:none"
             d="m 0,0 c -0.029,-1.391 -1.18,-2.494 -2.571,-2.465 l -17.56,0.367 c -1.391,0.03 -2.495,1.18 -2.466,2.572 l 0.106,5.036 c 0.029,1.39 1.18,2.494 2.571,2.466 L -2.36,7.607 C -0.969,7.578 0.135,6.428 0.105,5.037 L 0,0 Z" /></g><g
           transform="translate(107.2914,4.7998)"
           id="g40"><path
             id="path42"
             style="fill:none;stroke:#b2b2b2;stroke-width:0.41999999;stroke-linecap:butt;stroke-linejoin:miter;stroke-miterlimit:10;stroke-dasharray:none;stroke-opacity:1"
             d="m 0,0 c -0.029,-1.391 -1.18,-2.494 -2.571,-2.465 l -17.56,0.367 c -1.391,0.03 -2.495,1.18 -2.466,2.572 l 0.106,5.036 c 0.029,1.39 1.18,2.494 2.571,2.466 L -2.36,7.607 C -0.969,7.578 0.135,6.428 0.105,5.037 L 0,0 Z" /></g><g
           transform="translate(181.2186,5.9052)"
           id="g44"><path
             id="path46"
             style="fill:#b2b2b2;fill-opacity:1;fill-rule:nonzero;stroke:none"
             d="m 0,0 c 0.048,-1.391 1.214,-2.479 2.605,-2.43 l 17.553,0.61 c 1.39,0.049 2.479,1.214 2.43,2.603 l -0.175,5.035 c -0.048,1.391 -1.214,2.479 -2.605,2.43 L 2.255,7.639 C 0.865,7.59 -0.224,6.424 -0.175,5.034 L 0,0 Z" /></g><g
           transform="translate(181.2186,5.9052)"
           id="g48"><path
             id="path50"
             style="fill:none;stroke:#b2b2b2;stroke-width:0.41999999;stroke-linecap:butt;stroke-linejoin:miter;stroke-miterlimit:10;stroke-dasharray:none;stroke-opacity:1"
             d="m 0,0 c 0.048,-1.391 1.214,-2.479 2.605,-2.43 l 17.553,0.61 c 1.39,0.049 2.479,1.214 2.43,2.603 l -0.175,5.035 c -0.048,1.391 -1.214,2.479 -2.605,2.43 L 2.255,7.639 C 0.865,7.59 -0.224,6.424 -0.175,5.034 L 0,0 Z" /></g><g
           transform="translate(152.7391,4.7998)"
           id="g52"><path
             id="path54"
             style="fill:#b2b2b2;fill-opacity:1;fill-rule:nonzero;stroke:none"
             d="m 0,0 c 0.029,-1.391 1.18,-2.494 2.571,-2.465 l 17.56,0.367 c 1.391,0.03 2.495,1.18 2.466,2.572 L 22.491,5.51 C 22.463,6.9 21.311,8.004 19.92,7.976 L 2.36,7.607 C 0.969,7.578 -0.134,6.428 -0.105,5.037 L 0,0 Z" /></g><g
           transform="translate(152.7391,4.7998)"
           id="g56"><path
             id="path58"
             style="fill:none;stroke:#b2b2b2;stroke-width:0.41999999;stroke-linecap:butt;stroke-linejoin:miter;stroke-miterlimit:10;stroke-dasharray:none;stroke-opacity:1"
             d="m 0,0 c 0.029,-1.391 1.18,-2.494 2.571,-2.465 l 17.56,0.367 c 1.391,0.03 2.495,1.18 2.466,2.572 L 22.491,5.51 C 22.463,6.9 21.311,8.004 19.92,7.976 L 2.36,7.607 C 0.969,7.578 -0.134,6.428 -0.105,5.037 L 0,0 Z" /></g><g
           transform="translate(130.0155,198.9756)"
           id="g60"><path
             id="path62"
             style="fill:#212121;fill-opacity:1;fill-rule:nonzero;stroke:none"
             d="m 0,0 c 53.592,0 98.018,-3.988 98.018,-3.988 9.306,-0.49 17.352,-8.535 17.772,-17.981 l 7.695,-143.845 c 0.561,-14.413 -8.535,-23.579 -39.459,-24.557 0,0 -52.788,-2.94 -84.026,-2.94 -31.238,0 -84.027,2.94 -84.027,2.94 -30.924,0.978 -40.018,10.144 -39.459,24.557 l 7.696,143.845 c 0.42,9.446 8.466,17.491 17.771,17.981 0,0 44.427,3.988 98.019,3.988" /></g><g
           transform="translate(207.3568,196.4931)"
           id="g64"><path
             id="path66"
             style="fill:#1c1c1c;fill-opacity:1;fill-rule:nonzero;stroke:none"
             d="m 0,0 c 0,0 -0.818,-19.976 -10.684,-64.263 -9.864,-44.287 -31.955,-49.324 -66.657,-49.324 -34.702,0 -56.793,5.037 -66.658,49.324 C -153.864,-19.976 -154.683,0 -154.683,0 c 17.979,1.143 46.53,2.482 78.338,2.482 C -45.704,2.482 -18.059,1.117 0,0" /></g><g
           transform="translate(130.0863,128.3125)"
           id="g68"><path
             id="path70"
             style="fill:#141414;fill-opacity:1;fill-rule:nonzero;stroke:none"
             d="m 0,0 54.094,0 c 3.412,0 7.754,3.639 8.925,8.641 1.172,5.002 1.994,12.514 1.994,14.745 0,2.229 -0.891,2.92 -3.269,2.92 l -61.815,0 -61.815,0 c -2.377,0 -3.269,-0.691 -3.269,-2.92 0,-2.231 0.822,-9.743 1.994,-14.745 C -61.99,3.639 -57.649,0 -54.236,0 L -0.142,0 0,0 Z" /></g><g
           transform="translate(130.0502,128.7324)"
           id="g72"><path
             id="path74"
             style="fill:#b2b2b2;fill-opacity:1;fill-rule:nonzero;stroke:none"
             d="m 0,0 53.242,0 c 3.359,0 7.976,3.219 7.976,8.395 l 0,9.096 c 0,1.159 -0.939,2.099 -2.099,2.099 l -59.119,0 -0.07,0 -59.119,0 c -1.159,0 -2.099,-0.94 -2.099,-2.099 l 0,-9.096 C -61.288,3.219 -56.671,0 -53.313,0 L -0.07,0 0,0 Z" /></g><g
           transform="translate(181.6483,112.7109)"
           id="g76"><path
             id="path78"
             style="fill:#0c0c0c;fill-opacity:1;fill-rule:nonzero;stroke:none"
             d="m 0,0 0,-6.243 c 0.839,1.268 1.643,2.617 2.414,4.053 L 2.414,0 0,0 Z" /></g><g
           transform="translate(176.0863,112.7109)"
           id="g80"><path
             id="path82"
             style="fill:#0c0c0c;fill-opacity:1;fill-rule:nonzero;stroke:none"
             d="m 0,0 0,-13.044 c 0.829,0.812 1.634,1.675 2.414,2.594 L 2.414,0 0,0 Z" /></g><g
           transform="translate(170.5243,112.7109)"
           id="g84"><path
             id="path86"
             style="fill:#0c0c0c;fill-opacity:1;fill-rule:nonzero;stroke:none"
             d="m 0,0 0,-17.53 c 0.825,0.54 1.627,1.12 2.414,1.732 L 2.414,0 0,0 Z" /></g><g
           transform="translate(164.9623,112.7109)"
           id="g88"><path
             id="path90"
             style="fill:#0c0c0c;fill-opacity:1;fill-rule:nonzero;stroke:none"
             d="m 0,0 0,-20.539 c 0.82,0.363 1.625,0.75 2.414,1.163 L 2.414,0 0,0 Z" /></g><g
           transform="translate(159.4002,112.7109)"
           id="g92"><path
             id="path94"
             style="fill:#0c0c0c;fill-opacity:1;fill-rule:nonzero;stroke:none"
             d="m 0,0 0,-22.563 c 0.818,0.241 1.623,0.501 2.414,0.78 L 2.414,0 0,0 Z" /></g><g
           transform="translate(153.8382,112.7109)"
           id="g96"><path
             id="path98"
             style="fill:#0c0c0c;fill-opacity:1;fill-rule:nonzero;stroke:none"
             d="m 0,0 0,-23.899 c 0.816,0.156 1.621,0.326 2.414,0.51 L 2.414,0 0,0 Z" /></g><g
           transform="translate(148.2762,112.7109)"
           id="g100"><path
             id="path102"
             style="fill:#0c0c0c;fill-opacity:1;fill-rule:nonzero;stroke:none"
             d="m 0,0 0,-24.749 c 0.814,0.095 1.619,0.201 2.414,0.317 L 2.414,0 0,0 Z" /></g><g
           transform="translate(142.7142,112.7109)"
           id="g104"><path
             id="path106"
             style="fill:#0c0c0c;fill-opacity:1;fill-rule:nonzero;stroke:none"
             d="m 0,0 0,-25.251 c 0.814,0.053 1.618,0.114 2.414,0.183 L 2.414,0 0,0 Z" /></g><g
           transform="translate(137.1512,112.7109)"
           id="g108"><path
             id="path110"
             style="fill:#0c0c0c;fill-opacity:1;fill-rule:nonzero;stroke:none"
             d="m 0,0 0,-25.51 c 0.814,0.024 1.618,0.054 2.414,0.088 L 2.414,0 0,0 Z" /></g><g
           transform="translate(131.5892,112.7109)"
           id="g112"><path
             id="path114"
             style="fill:#0c0c0c;fill-opacity:1;fill-rule:nonzero;stroke:none"
             d="m 0,0 0,-25.601 c 0.814,0.004 1.617,0.012 2.414,0.023 L 2.414,0 0,0 Z" /></g><g
           transform="translate(126.0272,112.7109)"
           id="g116"><path
             id="path118"
             style="fill:#0c0c0c;fill-opacity:1;fill-rule:nonzero;stroke:none"
             d="m 0,0 0,-25.578 c 0.797,-0.011 1.602,-0.019 2.414,-0.023 L 2.414,0 0,0 Z" /></g><g
           transform="translate(120.4652,112.7109)"
           id="g120"><path
             id="path122"
             style="fill:#0c0c0c;fill-opacity:1;fill-rule:nonzero;stroke:none"
             d="m 0,0 0,-25.422 c 0.796,-0.034 1.601,-0.064 2.414,-0.088 L 2.414,0 0,0 Z" /></g><g
           transform="translate(114.9032,112.7109)"
           id="g124"><path
             id="path126"
             style="fill:#0c0c0c;fill-opacity:1;fill-rule:nonzero;stroke:none"
             d="m 0,0 0,-25.068 c 0.796,-0.069 1.6,-0.13 2.414,-0.183 L 2.414,0 0,0 Z" /></g><g
           transform="translate(109.3412,112.7109)"
           id="g128"><path
             id="path130"
             style="fill:#0c0c0c;fill-opacity:1;fill-rule:nonzero;stroke:none"
             d="m 0,0 0,-24.432 c 0.794,-0.116 1.599,-0.222 2.414,-0.317 L 2.414,0 0,0 Z" /></g><g
           transform="translate(103.7792,112.7109)"
           id="g132"><path
             id="path134"
             style="fill:#0c0c0c;fill-opacity:1;fill-rule:nonzero;stroke:none"
             d="m 0,0 0,-23.389 c 0.792,-0.184 1.598,-0.354 2.413,-0.51 L 2.413,0 0,0 Z" /></g><g
           transform="translate(98.2171,112.7109)"
           id="g136"><path
             id="path138"
             style="fill:#0c0c0c;fill-opacity:1;fill-rule:nonzero;stroke:none"
             d="m 0,0 0,-21.783 c 0.792,-0.279 1.596,-0.539 2.414,-0.78 L 2.414,0 0,0 Z" /></g><g
           transform="translate(92.6551,112.7109)"
           id="g140"><path
             id="path142"
             style="fill:#0c0c0c;fill-opacity:1;fill-rule:nonzero;stroke:none"
             d="m 0,0 0,-19.376 c 0.788,-0.413 1.593,-0.8 2.413,-1.163 L 2.413,0 0,0 Z" /></g><g
           transform="translate(87.0921,112.7109)"
           id="g144"><path
             id="path146"
             style="fill:#0c0c0c;fill-opacity:1;fill-rule:nonzero;stroke:none"
             d="M 0,0 0,-15.798 C 0.787,-16.41 1.59,-16.99 2.414,-17.53 L 2.414,0 0,0 Z" /></g><g
           transform="translate(81.5301,112.7109)"
           id="g148"><path
             id="path150"
             style="fill:#0c0c0c;fill-opacity:1;fill-rule:nonzero;stroke:none"
             d="m 0,0 0,-10.45 c 0.781,-0.919 1.585,-1.782 2.414,-2.594 L 2.414,0 0,0 Z" /></g><g
           transform="translate(75.9681,112.7109)"
           id="g152"><path
             id="path154"
             style="fill:#0c0c0c;fill-opacity:1;fill-rule:nonzero;stroke:none"
             d="M 0,0 0,-2.19 C 0.771,-3.626 1.576,-4.975 2.414,-6.243 L 2.414,0 0,0 Z" /></g><g
           transform="translate(209.5296,33.0293)"
           id="g156"><path
             id="path158"
             style="fill:#141414;fill-opacity:1;fill-rule:nonzero;stroke:none"
             d="m 0,0 c 0,-6.337 -5.137,-11.475 -11.474,-11.475 -6.337,0 -11.475,5.138 -11.475,11.475 l 0,25.32 c 0,6.337 5.138,11.474 11.475,11.474 C -5.137,36.794 0,31.657 0,25.32 L 0,0 Z" /></g><g
           transform="translate(207.8666,33.1845)"
           id="g160"><path
             id="path162"
             style="fill:#212121;fill-opacity:1;fill-rule:nonzero;stroke:none"
             d="m 0,0 c 0,-5.418 -4.393,-9.811 -9.811,-9.811 -5.419,0 -9.811,4.393 -9.811,9.811 l 0,13.359 c 0,5.418 4.392,9.811 9.811,9.811 C -4.393,23.17 0,18.777 0,13.359 L 0,0 Z" /></g><g
           transform="translate(73.4496,33.0293)"
           id="g164"><path
             id="path166"
             style="fill:#141414;fill-opacity:1;fill-rule:nonzero;stroke:none"
             d="m 0,0 c 0,-6.337 -5.137,-11.475 -11.474,-11.475 -6.338,0 -11.475,5.138 -11.475,11.475 l 0,25.32 c 0,6.337 5.137,11.474 11.475,11.474 C -5.137,36.794 0,31.657 0,25.32 L 0,0 Z" /></g><g
           transform="translate(71.7865,49.9013)"
           id="g168"><path
             id="path170"
             style="fill:#0c0c0c;fill-opacity:1;fill-rule:nonzero;stroke:none"
             d="m 0,0 c 0,5.419 -4.393,9.812 -9.811,9.812 -5.419,0 -9.812,-4.393 -9.812,-9.812 l 0,-4.212 L 0,-4.212 0,0 Z" /></g><g
           transform="translate(71.7865,33.1845)"
           id="g172"><path
             id="path174"
             style="fill:#212121;fill-opacity:1;fill-rule:nonzero;stroke:none"
             d="m 0,0 c 0,-5.418 -4.393,-9.811 -9.811,-9.811 -5.419,0 -9.812,4.393 -9.812,9.811 l 0,13.359 c 0,5.418 4.393,9.811 9.812,9.811 C -4.393,23.17 0,18.777 0,13.359 L 0,0 Z" /></g><path
           id="path176"
           style="fill:#2b2b2b;fill-opacity:1;fill-rule:nonzero;stroke:none"
           d="m 71.786,39.864 -19.623,0 0,4.98 19.623,0 0,-4.98 z" /><g
           transform="translate(130.0174,175.0966)"
           id="g178"><path
             id="path180"
             style="fill:#141414;fill-opacity:1;fill-rule:evenodd;stroke:none"
             d="m 0,0 c 3.862,0 7.724,0 11.586,0.001 0.205,0 0.407,0.014 0.608,0.049 1.618,0.287 2.694,1.892 2.336,3.486 -0.306,1.365 -1.474,2.306 -2.872,2.306 -7.773,0 -15.545,0 -23.317,0 -0.685,0 -1.297,-0.213 -1.837,-0.637 -1.249,-0.984 -1.469,-2.837 -0.478,-4.08 C -13.367,0.363 -12.566,0 -11.596,0 -7.73,0.001 -3.866,0 0,0 m -0.001,6.745 c 3.866,0 7.731,-0.001 11.597,0.002 0.716,0 1.39,-0.153 2.004,-0.523 1.048,-0.632 1.686,-1.554 1.856,-2.769 0.26,-1.86 -0.829,-3.588 -2.602,-4.17 -0.405,-0.133 -0.822,-0.187 -1.248,-0.187 -6.865,0.001 -13.73,0 -20.594,0 -0.921,0 -1.841,-0.007 -2.761,0.004 -1.726,0.017 -3.253,1.25 -3.646,2.93 -0.455,1.95 0.631,3.892 2.53,4.525 0.412,0.136 0.835,0.189 1.268,0.189 3.866,-0.001 7.731,-0.001 11.596,-0.001" /></g><g
           transform="translate(120.2782,177.3427)"
           id="g182"><path
             id="path184"
             style="fill:#141414;fill-opacity:1;fill-rule:evenodd;stroke:none"
             d="m 0,0 0,0.101 c 0,0.745 0.001,1.49 -0.002,2.234 -0.001,0.081 0.021,0.1 0.1,0.099 C 0.393,2.43 0.69,2.43 0.985,2.433 c 0.062,0.001 0.08,-0.015 0.08,-0.079 -0.002,-1.123 -0.002,-2.247 0,-3.371 0,-0.067 -0.018,-0.085 -0.085,-0.084 -0.299,0.003 -0.598,0.003 -0.898,-0.001 -0.064,0 -0.095,0.024 -0.127,0.074 -0.507,0.789 -1.017,1.576 -1.525,2.364 -0.019,0.029 -0.038,0.058 -0.075,0.086 l 0,-0.096 c 0,-0.77 -0.003,-1.541 0.003,-2.311 0,-0.101 -0.029,-0.119 -0.122,-0.117 -0.282,0.006 -0.566,0.004 -0.849,0.001 -0.068,-0.001 -0.094,0.012 -0.094,0.087 0.003,1.12 0.003,2.242 0,3.362 0,0.076 0.026,0.086 0.093,0.085 C -2.293,2.43 -1.971,2.43 -1.65,2.434 -1.584,2.435 -1.548,2.41 -1.515,2.357 -1.018,1.57 -0.519,0.784 -0.02,-0.003 -0.013,-0.001 -0.007,-0.001 0,0" /></g><g
           transform="translate(137.9486,177.3999)"
           id="g186"><path
             id="path188"
             style="fill:#141414;fill-opacity:1;fill-rule:evenodd;stroke:none"
             d="M 0,0 C 0,0.168 0.004,0.338 -0.001,0.506 -0.006,0.746 -0.164,0.91 -0.388,0.917 -0.62,0.923 -0.808,0.771 -0.816,0.534 -0.829,0.181 -0.825,-0.172 -0.818,-0.525 c 0.003,-0.152 0.095,-0.242 0.249,-0.269 0.103,-0.018 0.208,-0.021 0.313,-0.003 0.164,0.027 0.252,0.123 0.255,0.292 C 0.002,-0.337 0,-0.168 0,0 m 0.001,1.081 c 0,0.347 -0.001,0.677 0.001,1.007 0,0.093 -0.039,0.211 0.015,0.268 0.054,0.059 0.174,0.017 0.265,0.018 0.232,0.002 0.465,-10e-4 0.697,0.002 0.063,0 0.087,-0.009 0.087,-0.081 -0.002,-1.124 -0.001,-2.248 0,-3.371 0,-0.06 -0.013,-0.083 -0.078,-0.082 -0.302,0.003 -0.605,10e-4 -0.907,0.002 -0.035,0 -0.075,-0.017 -0.083,0.047 -0.007,0.057 -0.047,0.009 -0.064,0.004 -0.189,-0.073 -0.384,-0.118 -0.585,-0.128 -0.481,-0.022 -0.833,0.207 -1.082,0.595 -0.568,0.88 0.012,1.731 0.697,1.912 0.331,0.087 0.642,0.026 0.937,-0.137 0.028,-0.015 0.055,-0.03 0.1,-0.056" /></g><g
           transform="translate(133.5907,178.3178)"
           id="g190"><path
             id="path192"
             style="fill:#141414;fill-opacity:1;fill-rule:evenodd;stroke:none"
             d="m 0,0 c 0.119,0.046 0.219,0.108 0.319,0.166 0.615,0.355 1.324,0.073 1.682,-0.464 0.048,-0.073 0.068,-0.154 0.068,-0.243 -0.002,-0.51 -0.002,-1.019 0,-1.529 0,-0.061 -0.008,-0.088 -0.081,-0.087 -0.308,0.005 -0.617,0.004 -0.926,0 -0.067,0 -0.083,0.02 -0.083,0.085 0.002,0.497 0.001,0.994 0.001,1.49 0,0.244 -0.295,0.466 -0.534,0.405 -0.074,-0.019 -0.143,-0.05 -0.212,-0.084 -0.161,-0.081 -0.245,-0.192 -0.238,-0.39 0.013,-0.474 0.002,-0.949 0.006,-1.422 0,-0.069 -0.019,-0.084 -0.084,-0.084 -0.3,0.004 -0.599,0.004 -0.898,0 -0.068,0 -0.084,0.02 -0.083,0.085 0.002,0.742 0.002,1.484 -0.001,2.225 0,0.071 0.024,0.083 0.087,0.082 C -0.681,0.232 -0.385,0.23 -0.089,0.236 -0.009,0.237 0.008,0.21 0.001,0.139 -0.004,0.097 0,0.053 0,0" /></g><g
           transform="translate(124.7088,178.3925)"
           id="g194"><path
             id="path196"
             style="fill:#141414;fill-opacity:1;fill-rule:evenodd;stroke:none"
             d="M 0,0 C 0.097,0.052 0.184,0.091 0.263,0.141 0.769,0.467 1.383,0.349 1.795,-0.043 1.98,-0.218 2.087,-0.409 2.077,-0.678 2.059,-1.133 2.069,-1.589 2.074,-2.044 2.075,-2.135 2.046,-2.152 1.962,-2.151 c -0.293,0.005 -0.586,0.005 -0.878,0 -0.079,-0.001 -0.102,0.018 -0.101,0.099 0.003,0.487 0.001,0.973 0.001,1.46 0,0.268 -0.296,0.49 -0.557,0.417 -0.07,-0.02 -0.136,-0.05 -0.201,-0.084 -0.152,-0.081 -0.236,-0.185 -0.23,-0.377 0.014,-0.468 0.001,-0.936 0.007,-1.403 0.001,-0.096 -0.028,-0.114 -0.117,-0.113 -0.286,0.007 -0.572,0.005 -0.859,0.002 -0.064,-10e-4 -0.087,0.012 -0.087,0.082 0.002,0.745 0.002,1.49 0.001,2.234 -0.001,0.058 0.013,0.076 0.073,0.075 0.303,-0.003 0.605,-0.002 0.907,0 C -0.019,0.242 0.009,0.229 0.002,0.164 -0.003,0.117 0,0.068 0,0" /></g><g
           transform="translate(140.5799,177.4033)"
           id="g198"><path
             id="path200"
             style="fill:#141414;fill-opacity:1;fill-rule:evenodd;stroke:none"
             d="m 0,0 0,0 c 0,-0.23 -0.002,-0.459 0.001,-0.688 0.003,-0.165 0.083,-0.256 0.245,-0.294 0.084,-0.019 0.17,-0.017 0.255,-0.011 0.208,0.013 0.317,0.121 0.319,0.327 0.004,0.441 0.004,0.884 0,1.326 C 0.818,0.916 0.66,1.072 0.419,1.071 0.16,1.071 0.004,0.919 0.001,0.657 -0.002,0.438 0,0.218 0,0 M 0.426,1.309 C 0.808,1.308 1.165,1.202 1.477,0.965 2.145,0.456 2.16,-0.408 1.513,-0.941 0.91,-1.438 -0.057,-1.443 -0.664,-0.952 -1.321,-0.422 -1.3,0.483 -0.619,0.983 -0.31,1.209 0.039,1.307 0.426,1.309" /></g><g
           transform="translate(130.5624,177.8095)"
           id="g202"><path
             id="path204"
             style="fill:#141414;fill-opacity:1;fill-rule:evenodd;stroke:none"
             d="M 0,0 0.152,0 C 0.428,0 0.428,0 0.409,0.279 0.394,0.503 0.229,0.659 0.003,0.665 -0.224,0.671 -0.383,0.539 -0.407,0.316 -0.417,0.228 -0.41,0.138 -0.413,0.05 -0.415,0.003 -0.389,-0.001 -0.353,0 -0.235,0.001 -0.118,0 0,0 m 0.57,-0.398 c -0.299,0 -0.598,-0.002 -0.898,0.001 -0.063,0.001 -0.088,-0.011 -0.086,-0.081 0.005,-0.197 0.001,-0.394 0.002,-0.592 0.003,-0.206 0.109,-0.316 0.317,-0.329 0.082,-0.005 0.165,-0.008 0.246,0.011 0.172,0.041 0.255,0.142 0.258,0.318 0.003,0.089 0.004,0.178 0,0.267 -0.001,0.044 0.011,0.061 0.058,0.061 0.321,-0.003 0.643,-0.003 0.964,0 0.077,0 0.055,-0.04 0.04,-0.078 C 1.359,-1.111 1.157,-1.324 0.893,-1.482 0.27,-1.856 -0.591,-1.789 -1.132,-1.323 -1.727,-0.812 -1.729,-0.008 -1.137,0.504 -0.514,1.043 0.531,1.035 1.137,0.486 1.372,0.274 1.516,0.013 1.549,-0.306 1.556,-0.376 1.544,-0.401 1.467,-0.4 1.168,-0.396 0.869,-0.398 0.57,-0.398" /></g><g
           transform="translate(127.4178,177.4428)"
           id="g206"><path
             id="path208"
             style="fill:#141414;fill-opacity:1;fill-rule:evenodd;stroke:none"
             d="m 0,0 c 0,0.369 -0.002,0.739 0.002,1.108 0.001,0.068 -0.02,0.086 -0.085,0.083 -0.134,-0.004 -0.268,10e-4 -0.402,-0.002 -0.051,-0.001 -0.071,0.01 -0.073,0.067 -0.008,0.254 -0.01,0.254 0.246,0.254 0.083,0 0.166,0.002 0.248,-0.001 0.05,-0.003 0.067,0.012 0.065,0.063 -0.003,0.124 0.002,0.249 -0.002,0.373 -0.001,0.054 0.015,0.069 0.069,0.069 0.315,-0.002 0.631,-0.003 0.946,0 C 1.071,2.014 1.092,2.001 1.09,1.94 1.085,1.819 1.091,1.698 1.087,1.577 1.085,1.522 1.103,1.507 1.156,1.508 1.296,1.512 1.437,1.507 1.577,1.51 1.63,1.512 1.645,1.497 1.645,1.443 1.65,1.19 1.651,1.191 1.397,1.189 1.296,1.188 1.163,1.232 1.105,1.17 1.055,1.115 1.088,0.983 1.088,0.885 1.088,0.223 1.087,-0.439 1.09,-1.101 1.09,-1.181 1.071,-1.203 0.991,-1.202 0.688,-1.197 0.386,-1.198 0.083,-1.201 0.017,-1.202 -0.002,-1.185 -0.001,-1.118 0.002,-0.746 0,-0.372 0,0" /></g><g
           transform="translate(123.0643,177.4389)"
           id="g210"><path
             id="path212"
             style="fill:#141414;fill-opacity:1;fill-rule:evenodd;stroke:none"
             d="m 0,0 c 0,-0.37 -0.002,-0.739 0.002,-1.108 0,-0.072 -0.018,-0.09 -0.089,-0.09 -0.296,0.004 -0.593,0.004 -0.889,10e-4 -0.065,-10e-4 -0.086,0.017 -0.086,0.084 0.003,0.742 0.003,1.484 0,2.226 0,0.069 0.022,0.083 0.086,0.082 0.3,-0.003 0.599,-0.003 0.898,0 C -0.017,1.196 0.002,1.18 0.002,1.117 -0.002,0.744 0,0.372 0,0" /></g><g
           transform="translate(122.5311,179.1396)"
           id="g214"><path
             id="path216"
             style="fill:#141414;fill-opacity:1;fill-rule:evenodd;stroke:none"
             d="m 0,0 c -0.153,0.001 -0.306,0.003 -0.459,-0.001 -0.055,-0.001 -0.07,0.017 -0.069,0.071 0.004,0.168 0.003,0.336 0,0.506 0,0.044 0.01,0.06 0.058,0.06 0.316,-0.002 0.631,-0.002 0.946,0 0.046,0 0.059,-0.014 0.059,-0.06 C 0.532,0.404 0.531,0.232 0.535,0.061 0.536,0.007 0.513,-0.001 0.467,-0.001 0.311,0.002 0.156,0 0,0" /></g><g
           transform="translate(142.6952,178.7588)"
           id="g218"><path
             id="path220"
             style="fill:#141414;fill-opacity:1;fill-rule:evenodd;stroke:none"
             d="M 0,0 C 0.247,-0.002 0.465,0.212 0.466,0.458 0.467,0.722 0.256,0.945 0.005,0.946 -0.256,0.947 -0.453,0.741 -0.455,0.464 -0.455,0.204 -0.257,0.001 0,0 M 0.001,1.033 C 0.295,1.034 0.55,0.77 0.551,0.462 0.552,0.173 0.292,-0.088 0.003,-0.088 c -0.297,0 -0.545,0.25 -0.545,0.549 -0.001,0.315 0.242,0.571 0.543,0.572" /></g><g
           transform="translate(142.6776,179.2402)"
           id="g222"><path
             id="path224"
             style="fill:#141414;fill-opacity:1;fill-rule:evenodd;stroke:none"
             d="M 0,0 C 0.066,-0.006 0.122,-0.003 0.124,0.08 0.126,0.175 0.06,0.17 -0.007,0.175 -0.081,0.181 -0.092,0.153 -0.096,0.085 -0.099,0.002 -0.066,-0.015 0,0 m -0.18,0.013 c 0,0.015 -0.001,0.032 0,0.048 0.007,0.064 -0.031,0.165 0.019,0.187 0.08,0.034 0.182,0.026 0.27,-0.003 C 0.215,0.209 0.25,0.052 0.166,-0.034 0.12,-0.081 0.128,-0.109 0.157,-0.152 0.173,-0.178 0.207,-0.208 0.153,-0.236 0.097,-0.267 0.101,-0.211 0.082,-0.189 c -0.014,0.016 -0.025,0.037 -0.034,0.057 -0.023,0.054 -0.069,0.034 -0.107,0.034 -0.056,0 -0.029,-0.046 -0.032,-0.071 -0.005,-0.032 0.006,-0.065 -0.046,-0.064 -0.05,0.001 -0.042,0.035 -0.043,0.066 l 0,0.18 z" /></g><path
           id="path226"
           style="fill:#141414;fill-opacity:1;fill-rule:nonzero;stroke:none"
           d="m 191.269,139.172 -122.506,0 0,-0.934 122.506,0 0,0.934 z" /><g
           transform="translate(151.8663,21.0766)"
           id="g228"><path
             id="path230"
             style="fill:#0c0c0c;fill-opacity:1;fill-rule:nonzero;stroke:none"
             d="m 0,0 -46.85,0 c -4.571,0 -8.311,3.74 -8.311,8.311 l 0,25.934 c 0,4.571 3.74,8.311 8.311,8.311 l 46.85,0 c 4.571,0 8.311,-3.74 8.311,-8.311 l 0,-25.934 C 8.311,3.74 4.571,0 0,0" /></g><g
           transform="translate(151.2126,21.8773)"
           id="g232"><path
             id="path234"
             style="fill:#212121;fill-opacity:1;fill-rule:nonzero;stroke:none"
             d="m 0,0 -45.543,0 c -4.428,0 -8.052,3.624 -8.052,8.052 l 0,25.029 c 0,4.428 3.624,8.052 8.052,8.052 l 45.543,0 c 4.429,0 8.052,-3.624 8.052,-8.052 l 0,-25.029 C 8.052,3.624 4.429,0 0,0" /></g><g
           transform="translate(135.8922,58.1249)"
           id="g236"><path
             id="path238"
             style="fill:#0c0c0c;fill-opacity:1;fill-rule:nonzero;stroke:none"
             d="m 0,0 c 0,-1.39 -1.127,-2.519 -2.519,-2.519 l -9.864,0 c -1.391,0 -2.519,1.129 -2.519,2.519 l 0,4.885 L 0,4.885 0,0 Z" /></g><g
           transform="translate(134.6505,60.434)"
           id="g240"><path
             id="path242"
             style="fill:#212121;fill-opacity:1;fill-rule:nonzero;stroke:none"
             d="m 0,0 c 0,-1.159 -0.939,-2.099 -2.099,-2.099 l -8.22,0 c -1.16,0 -2.1,0.94 -2.1,2.099 l 0,2.519 c 0,0 12.29,0.129 12.419,0 L 0,0 Z" /></g></g></g></g></svg>