<?xml version="1.0" encoding="UTF-8" standalone="no"?>
<svg
   xmlns:dc="http://purl.org/dc/elements/1.1/"
   xmlns:cc="http://creativecommons.org/ns#"
   xmlns:rdf="http://www.w3.org/1999/02/22-rdf-syntax-ns#"
   xmlns:svg="http://www.w3.org/2000/svg"
   xmlns="http://www.w3.org/2000/svg"
   viewBox="0 0 208.15875 138"
   height="138"
   width="208.15875"
   xml:space="preserve"
   version="1.1"
   id="svg2"><metadata
     id="metadata8"><rdf:RDF><cc:Work
         rdf:about=""><dc:format>image/svg+xml</dc:format><dc:type
           rdf:resource="http://purl.org/dc/dcmitype/StillImage" /><dc:title></dc:title></cc:Work></rdf:RDF></metadata><defs
     id="defs6"><clipPath
       id="clipPath16"
       clipPathUnits="userSpaceOnUse"><path
         id="path18"
         d="m 0,110.4 166.527,0 0,-110.4 L 0,0 0,110.4 Z" /></clipPath></defs><g
     transform="matrix(1.25,0,0,-1.25,0,138)"
     id="g10"><g
       id="g12"><g
         clip-path="url(#clipPath16)"
         id="g14"><g
           transform="translate(83.2806,0.6973)"
           id="g20"><path
             id="path22"
             style="fill:#a3a3a3;fill-opacity:1;fill-rule:nonzero;stroke:none"
             d="m 0,0 -52.877,0 0,0.864 0,101.987 c 14.346,2.959 33.205,5.458 52.877,5.458 19.672,0 38.531,-2.499 52.877,-5.458 L 52.877,0.864 52.877,0 0,0 Z" /></g><g
           transform="translate(83.2806,0.6973)"
           id="g24"><path
             id="path26"
             style="fill:none;stroke:#a3a3a3;stroke-width:0.17399999;stroke-linecap:round;stroke-linejoin:round;stroke-miterlimit:10;stroke-dasharray:none;stroke-opacity:1"
             d="m 0,0 -52.877,0 0,0.864 0,101.987 c 14.346,2.959 33.205,5.458 52.877,5.458 19.672,0 38.531,-2.499 52.877,-5.458 L 52.877,0.864 52.877,0 0,0 Z" /></g><g
           transform="translate(83.2806,0)"
           id="g28"><path
             id="path30"
             style="fill:#b2b2b2;fill-opacity:1;fill-rule:nonzero;stroke:none"
             d="m 0,0 -50.064,0 0,0.882 0,103.955 c 13.582,3.016 31.438,5.563 50.064,5.563 18.625,0 36.481,-2.547 50.062,-5.563 L 50.062,0.882 50.062,0 0,0 Z" /></g><g
           transform="translate(134.5111,0.5772)"
           id="g32"><path
             id="path34"
             style="fill:#b2b2b2;fill-opacity:1;fill-rule:nonzero;stroke:none"
             d="m 0,0 0,104 c 17.792,-4.042 29.443,-8.806 30.742,-9.409 1.481,-0.688 1.263,-1.958 1.263,-2.713 l 0,-89.552 c 0,-1.974 -3.355,-2.903 -3.355,-2.903 L 0,-0.577 0,0 Z" /></g><g
           transform="translate(154.5091,0)"
           id="g36"><path
             id="path38"
             style="fill:#a3a3a3;fill-opacity:1;fill-rule:nonzero;stroke:none"
             d="m 0,0 8.664,0 c 0,0 3.354,0.929 3.354,2.903 l 0,30.2 C 6.214,32.696 0,30.722 0,27.411 L 0,0 Z" /></g><g
           transform="translate(32.0169,0.5772)"
           id="g40"><path
             id="path42"
             style="fill:#b2b2b2;fill-opacity:1;fill-rule:nonzero;stroke:none"
             d="m 0,0 0,104 c -17.793,-4.042 -29.445,-8.806 -30.742,-9.409 -1.481,-0.688 -1.264,-1.958 -1.264,-2.713 l 0,-89.552 c 0,-1.974 3.354,-2.903 3.354,-2.903 L 0,-0.577 0,0 Z" /></g><g
           transform="translate(12.0325,0)"
           id="g44"><path
             id="path46"
             style="fill:#a3a3a3;fill-opacity:1;fill-rule:nonzero;stroke:none"
             d="m 0,0 -8.665,0 c 0,0 -3.353,0.929 -3.353,2.903 l 0,30.2 C -6.215,32.696 0,30.722 0,27.411 L 0,0 Z" /></g><g
           transform="translate(120.1751,8.6534)"
           id="g48"><path
             id="path50"
             style="fill:#a3a3a3;fill-opacity:1;fill-rule:nonzero;stroke:none"
             d="m 0,0 c 2.727,0 4.937,2.211 4.937,4.938 l 0,79.5 c 0,2.727 -2.359,4.597 -4.877,5.287 0,0 -13.335,3.02 -36.989,3.02 -23.655,0 -36.989,-3.02 -36.989,-3.02 -2.518,-0.69 -4.878,-2.56 -4.878,-5.287 l 0,-79.5 C -78.796,2.211 -76.585,0 -73.857,0 L 0,0 Z" /></g><g
           transform="translate(120.1751,8.6534)"
           id="g52"><path
             id="path54"
             style="fill:none;stroke:#a3a3a3;stroke-width:0.17399999;stroke-linecap:round;stroke-linejoin:round;stroke-miterlimit:10;stroke-dasharray:none;stroke-opacity:1"
             d="m 0,0 c 2.727,0 4.937,2.211 4.937,4.938 l 0,79.5 c 0,2.727 -2.359,4.597 -4.877,5.287 0,0 -13.335,3.02 -36.989,3.02 -23.655,0 -36.989,-3.02 -36.989,-3.02 -2.518,-0.69 -4.878,-2.56 -4.878,-5.287 l 0,-79.5 C -78.796,2.211 -76.585,0 -73.857,0 L 0,0 Z" /></g></g></g></g></svg>