<svg xmlns="http://www.w3.org/2000/svg" viewBox="0 0 330.417 331.359"><path d="M323.904 324.667H6.513c-3.582 0-6.513-2.931-6.513-6.513V6.513C0 2.931 2.931 0 6.513 0h317.391c3.582 0 6.513 2.931 6.513 6.513v311.641c0 3.582-2.931 6.513-6.513 6.513z" fill="#9f0e12"/><path d="M316.79 320.5H21.333V41.627c0-4.607 3.769-8.377 8.377-8.377h295.457v278.873c0 4.607-3.77 8.377-8.377 8.377z" fill="#ad1722"/><path d="M252.562 316.365a6.47 6.47 0 0 1-6.462-6.463v-57.36a6.469 6.469 0 0 1 6.462-6.462h60.777a6.469 6.469 0 0 1 6.462 6.462v57.36a6.47 6.47 0 0 1-6.462 6.463h-60.777z" fill="#9f0e12"/><path d="M234.667 166.422v40.536c0 2.773 2.269 5.042 5.042 5.042h85.458V33.25h-85.458c-2.773 0-5.042 2.269-5.042 5.042v92.936h3.375v35.194h-3.375zM139.583 239.5v3.375h35.194V239.5h40.685c3.596 0 6.538 2.942 6.538 6.538V320.5H21.333v-74.462c0-3.596 2.942-6.538 6.538-6.538h111.712z" fill="#ad1722" stroke="#9f0e12" stroke-miterlimit="10"/><path d="M125.167 208H53.271a5.104 5.104 0 0 1-5.104-5.104V69.438a5.104 5.104 0 0 1 5.104-5.104h71.896V33.25H29.71c-4.607 0-8.377 3.77-8.377 8.377v204.412c0-3.596 2.942-6.538 6.538-6.538h97.295V208z" fill="#ad1722" stroke="#9f0e12" stroke-miterlimit="10"/><g fill="#9f0e12"><path d="M80.069 50.47a6.072 6.072 0 0 0-2.11-.387c-1.02 0-1.899.211-2.638.633-.738.457-1.125.949-1.125 1.547v.074c.035.774.598 1.368 1.688 1.79l2.04-1.794c-.387 0-.739-.07-1.02-.211s-.422-.316-.422-.563l.141-.316c.246-.281.704-.422 1.301-.422.598 0 1.02.141 1.266.422l.879-.773"/><path d="M81.687 52.405a5.448 5.448 0 0 0-2.497-1.161l-1.266 1.09c.527.035 1.02.176 1.407.457.387.316.563.704.563 1.125l-.035.246a1.645 1.645 0 0 1-.668.95c-.387.246-.809.352-1.301.352a2.39 2.39 0 0 1-1.336-.387c-.387-.246-.598-.563-.669-.949l-3.482 3.025c.281 1.161.949 2.11 1.969 2.849 1.02.739 2.216 1.125 3.552 1.125 1.547 0 2.884-.492 3.974-1.442 1.09-.985 1.653-2.18 1.653-3.552 0-1.478-.633-2.709-1.864-3.728"/></g><g fill="#9f0e12"><path d="M87.507 51.244c1.838 0 2.741.985 2.741 2.989h-1.872c0-.879-.234-1.301-.735-1.301-.435 0-.635.246-.635.739 0 .352.234.668.702.985l.836.563c.568.387 1.003.774 1.237 1.09a2.94 2.94 0 0 1 .468 1.618c0 1.02-.167 1.723-.501 2.18-.368.457-1.036.704-2.005.704-1.036 0-1.805-.281-2.239-.879-.401-.528-.602-1.301-.602-2.392h1.939c-.1 1.02.2 1.512.902 1.512.368 0 .568-.211.568-.668 0-.352-.1-.633-.268-.844l-.602-.492-.836-.528c-1.036-.668-1.537-1.512-1.537-2.567 0-.739.167-1.337.468-1.794.434-.599 1.069-.915 1.971-.915M100.242 53.565c.669 0 1.137.246 1.404.774.334-.527.802-.809 1.404-.809.301 0 .635.106.936.316.435.246.635.668.635 1.231v5.486h-1.872v-4.467l-.067-.598c-.034-.176-.167-.281-.401-.281s-.401.106-.468.281l-.033.598v4.467h-1.872v-4.431l-.034-.633c-.067-.176-.2-.246-.434-.246s-.368.106-.401.281l-.034.563v4.467H97.1v-6.823h1.805v.598l.167-.176c.334-.387.735-.598 1.17-.598M118.792 53.706l-1.471 6.964c-.234 1.02-.602 1.688-1.103 2.005-.267.176-.669.246-1.17.211l-.669-.071v-1.477l.568.035c.267-.035.334-.387.167-1.02l-1.404-6.647h1.972l.535 4.185.635-4.185h1.94M108.765 53.6c.668 0 1.136.246 1.37.739.368-.527.869-.774 1.437-.774.301 0 .635.106.936.281.434.281.635.703.635 1.231v5.486h-1.905v-4.431l-.033-.598c-.034-.176-.167-.281-.401-.281s-.401.106-.468.281l-.033.598v4.431h-1.872v-4.396l-.033-.633c-.034-.176-.201-.281-.435-.281-.234 0-.368.106-.401.316l-.034.563v4.467h-1.905v-6.823h1.805v.598l.167-.211c.334-.387.735-.563 1.17-.563M95.964 55.464v3.763l.033.879c.033.246.067.422.167.563h-1.872l-.234-.492-.401.281c-.301.246-.602.387-.902.387-.635 0-1.103-.176-1.437-.492-.368-.316-.535-.738-.535-1.336 0-.668.134-1.161.368-1.547.201-.352.568-.633 1.137-.809l.902-.352c.501-.176.769-.387.802-.598.033-.246 0-.457-.134-.633-.1-.176-.267-.246-.435-.211-.267 0-.434.141-.535.387l-.1.633h-1.972c.033-1.02.368-1.688 1.002-2.075.401-.246.969-.352 1.705-.352.635 0 1.136.07 1.437.211.669.281 1.004.879 1.004 1.793m-1.906 1.864l-.735.352c-.434.246-.635.563-.602.949 0 .317.134.563.435.669.234.07.434.035.602-.106.167-.176.267-.422.301-.809v-1.055"/></g><g fill="#9f0e12"><path d="M27.269 37.424h2.223c.836 0 2.046.044 2.706.693.396.385.495.869.495 1.419 0 1.254-.605 1.87-1.001 2.167-.528.407-1.32.726-2.409.726h-1.045l-.572 2.695H25.62l1.649-7.7zm1.276 3.554h.55c.209 0 .715 0 1.1-.264.165-.11.451-.385.451-.924 0-.264-.055-.473-.165-.605-.242-.297-.727-.308-.891-.308h-.605l-.44 2.101zM38.644 44.432c-.451.374-1.276.825-2.663.825-.605 0-1.595-.088-2.277-.781-.682-.693-.704-1.507-.704-1.837 0-1.353.583-2.068 1.012-2.454.902-.814 2.046-.924 2.685-.924 1.364 0 1.98.495 2.233.737.66.638.748 1.364.748 1.827 0 .649-.11 1.837-1.034 2.607zm-1.232-3.444c-.121-.154-.375-.341-.771-.341-.616 0-.979.363-1.166.616-.352.462-.429.99-.429 1.364 0 .462.132.704.297.891.176.198.385.352.77.352.506 0 .869-.209 1.078-.473.286-.341.44-.946.44-1.497.001-.471-.121-.769-.219-.912zM47.905 45.125h-2.299l-.077-4.147h-.022l-1.969 4.147h-2.311l-.55-5.732h1.969l.055 4.148h.022l1.881-4.148h2.398l.044 4.148h.022l1.837-4.148h2.002l-3.002 5.732zM55.726 44.938a6.82 6.82 0 0 1-2.024.319c-1.188 0-1.826-.451-2.167-.781-.671-.66-.759-1.375-.759-1.837 0-.649.198-1.507.759-2.2.528-.66 1.375-1.177 2.673-1.177.539 0 1.32.099 1.892.594.396.352.748.924.748 1.903 0 .253-.033.517-.143 1.079h-4.06c0 .198.044.363.143.539.11.198.242.319.451.407.319.143.77.154.946.154.363 0 .99-.044 1.793-.396l-.252 1.396zm-.528-3.224c.011-.33-.099-.693-.275-.88-.121-.121-.341-.253-.704-.253-.572 0-.858.231-.979.352a1.59 1.59 0 0 0-.473.781h2.431zM60.555 39.393l-.22 1.177h.022c.198-.429.517-.759.704-.913a1.716 1.716 0 0 1 1.133-.396c.165 0 .462.022.771.143l-.451 1.749a1.14 1.14 0 0 0-.363-.187 1.508 1.508 0 0 0-.429-.066c-.594 0-.902.22-1.111.473-.297.374-.429.847-.484 1.111l-.561 2.641h-1.98l.891-4.236c.154-.759.22-1.254.242-1.496h1.836zM67.914 44.938a6.82 6.82 0 0 1-2.024.319c-1.188 0-1.826-.451-2.167-.781-.671-.66-.759-1.375-.759-1.837 0-.649.198-1.507.759-2.2.528-.66 1.375-1.177 2.673-1.177.539 0 1.32.099 1.892.594.396.352.748.924.748 1.903 0 .253-.033.517-.143 1.079h-4.06c0 .198.044.363.143.539.11.198.242.319.451.407.319.143.77.154.946.154.363 0 .99-.044 1.793-.396l-.252 1.396zm-.528-3.224c.011-.33-.099-.693-.275-.88-.121-.121-.341-.253-.704-.253-.572 0-.858.231-.979.352a1.59 1.59 0 0 0-.473.781h2.431zM77.606 36.874l-1.54 7.393-.121.858H74.13l.154-.913h-.022c-.22.319-.506.572-.814.748-.451.253-.99.297-1.265.297-.825 0-1.276-.44-1.518-.704-.484-.55-.616-1.089-.616-1.661 0-.803.165-1.694.781-2.508.506-.682 1.177-1.122 2.233-1.122 1.254 0 1.705.66 1.881 1.056h.022l.693-3.443h1.947zm-5.105 4.444c-.286.352-.407.77-.407 1.243 0 .429.121.693.253.858.121.154.33.319.693.319.286 0 .737-.088 1.111-.616.253-.341.385-.759.385-1.177 0-.11-.011-.517-.22-.803a.855.855 0 0 0-.726-.363c-.198 0-.693.044-1.089.539zM84.017 36.874l-.715 3.212h.022c.649-.737 1.496-.825 1.848-.825.924 0 1.386.429 1.606.693.363.44.528 1.001.528 1.716 0 1.034-.341 1.915-.748 2.464-.385.517-1.122 1.122-2.376 1.122-.528 0-1.463-.154-1.881-1.21h-.022l-.286 1.078h-1.837c.055-.154.209-.605.396-1.43l1.518-6.821h1.947zm-.968 6.491a.824.824 0 0 0 .715.374c.33 0 .77-.121 1.111-.572.22-.286.385-.704.385-1.21 0-.627-.22-1.177-.946-1.177-.539 0-.913.319-1.122.616-.231.33-.374.814-.374 1.177.001.121.022.495.231.792zM91.586 45.884c-.363.638-.671.979-.979 1.21-.319.242-.803.473-1.584.473-.396 0-.671-.055-.825-.088-.143-.033-.363-.077-.66-.154l.418-1.441c.297.11.583.165.902.165.308 0 .594-.121.803-.341.132-.143.275-.385.352-.605l-1.265-5.71h2.013l.517 3.62h.022l1.947-3.62h2.102l-3.763 6.491z"/></g><g fill="#9f0e12"><path d="M67.384 316.625v-5.762h4.902v1.227h-3.313v1h3.152v1.184h-3.152v1.113h3.402v1.238h-4.991z"/><path d="M72.341 316.625l1.953-2.168-1.688-1.848h1.91l.77.992.832-.992h1.648l-1.688 1.863 1.871 2.152h-1.93l-.961-1.258-1.055 1.258h-1.662zM78.161 318.145v-4.625c0-.273-.021-.577-.063-.91h1.551c.031.208.047.417.047.625v.125c.438-.57 1.022-.855 1.754-.855.654 0 1.159.195 1.516.586.344.378.516.897.516 1.559 0 .641-.184 1.147-.553 1.521s-.872.561-1.51.561c-.685 0-1.259-.227-1.723-.68v2.094h-1.535zm2.648-2.223c.346 0 .619-.113.816-.341.188-.216.281-.5.281-.853 0-.386-.088-.692-.266-.919-.195-.248-.48-.372-.855-.372-.362 0-.641.116-.836.349-.18.219-.27.514-.27.884.001.835.378 1.252 1.13 1.252zM87.309 316.031c-.344.461-.967.691-1.871.691-.456 0-.822-.087-1.098-.262-.331-.208-.496-.527-.496-.957 0-.495.208-.87.625-1.125.305-.188.99-.281 2.055-.281h.746v-.057-.057c0-.448-.251-.672-.752-.672-.525 0-.812.163-.861.488h-1.555c.096-.859.912-1.289 2.445-1.289 1.474 0 2.211.513 2.211 1.539v2.047c0 .219.026.395.078.527h-1.43a1.234 1.234 0 0 1-.098-.52v-.072zm-.039-1.199h-.121c-.477 0-.809.016-.996.047-.471.078-.707.253-.707.523 0 .297.255.445.766.445.706 0 1.059-.309 1.059-.926v-.089zM89.633 316.625v-3.07c0-.37-.016-.685-.047-.945h1.543c.026.208.039.422.039.641a2.288 2.288 0 0 1 1.73-.738c.537 0 .958.141 1.266.422.318.292.477.703.477 1.234v2.457h-1.543v-2.383c0-.55-.283-.824-.848-.824-.721 0-1.082.39-1.082 1.168v2.039h-1.535zM95.223 315.352h1.529c0 .359.248.539.743.539.464 0 .696-.14.696-.418 0-.214-.279-.355-.837-.426l-.227-.031c-.563-.073-.955-.165-1.173-.277-.376-.19-.563-.508-.563-.953 0-.849.674-1.273 2.023-1.273.641 0 1.127.067 1.461.203.508.206.762.578.762 1.117h-1.504v-.016c0-.331-.221-.496-.664-.496-.398 0-.598.109-.598.328 0 .188.28.327.84.418.07.013.163.028.277.047.568.094.949.187 1.145.277.385.185.578.487.578.906 0 .95-.755 1.426-2.266 1.426-.646 0-1.133-.073-1.461-.219-.471-.214-.725-.598-.761-1.152zM100.273 311.992v-1.129h1.656v1.129h-1.656zm.062 4.633v-4.016h1.535v4.016h-1.535zM105.14 316.723c-.787 0-1.406-.152-1.859-.457-.531-.356-.797-.909-.797-1.656s.277-1.3.832-1.656c.463-.3 1.092-.449 1.887-.449.799 0 1.431.151 1.895.453.555.359.832.915.832 1.668-.001 1.397-.931 2.097-2.79 2.097zm.08-.899c.359 0 .636-.12.831-.359.182-.224.273-.52.273-.887 0-.372-.091-.672-.273-.898-.198-.245-.477-.367-.838-.367-.372 0-.654.118-.846.355-.177.219-.265.52-.265.902-.001.836.372 1.254 1.118 1.254zM108.573 316.625v-3.07c0-.37-.016-.685-.047-.945h1.543c.026.208.039.422.039.641a2.288 2.288 0 0 1 1.73-.738c.537 0 .958.141 1.266.422.318.292.477.703.477 1.234v2.457h-1.543v-2.383c0-.55-.283-.824-.848-.824-.721 0-1.082.39-1.082 1.168v2.039h-1.535zM117.425 316.625v-5.762h1.648v5.762h-1.648zM121.951 310.777h.931l-2.57 6.59h-.943l2.582-6.59zM126.366 316.73c-1.034 0-1.841-.238-2.422-.715-.63-.516-.945-1.277-.945-2.285 0-.997.346-1.755 1.039-2.273.62-.458 1.447-.688 2.48-.688 1.047 0 1.865.237 2.453.711.643.519.965 1.286.965 2.305 0 1.031-.349 1.796-1.047 2.293-.607.435-1.448.652-2.523.652zm-1.688-2.929c0 1.211.59 1.816 1.77 1.816 1.201 0 1.801-.595 1.801-1.785 0-1.308-.605-1.961-1.816-1.961-.576 0-1.017.181-1.324.543-.288.336-.431.798-.431 1.387zM139.389 314.617c-.047 1.403-.987 2.105-2.82 2.105-1.021 0-1.81-.235-2.367-.707-.594-.508-.891-1.262-.891-2.262 0-1.011.31-1.767.93-2.27.568-.461 1.37-.691 2.406-.691 1.692 0 2.599.656 2.719 1.969h-1.645c-.088-.544-.482-.816-1.18-.816-1.044 0-1.566.593-1.566 1.777 0 1.216.494 1.824 1.48 1.824.768 0 1.195-.31 1.281-.93h1.653zM143.139 316.031c-.344.461-.968.691-1.872.691-.456 0-.821-.087-1.098-.262-.331-.208-.496-.527-.496-.957 0-.495.208-.87.625-1.125.305-.188.989-.281 2.055-.281h.746v-.057-.057c0-.448-.251-.672-.752-.672-.525 0-.812.163-.861.488h-1.555c.097-.859.911-1.289 2.446-1.289 1.474 0 2.211.513 2.211 1.539v2.047c0 .219.026.395.078.527h-1.43a1.234 1.234 0 0 1-.098-.52v-.072zm-.039-1.199h-.121c-.477 0-.809.016-.996.047-.472.078-.708.253-.708.523 0 .297.255.445.766.445.706 0 1.059-.309 1.059-.926v-.089zM148.705 313.887a3.007 3.007 0 0 0-.48-.039c-.817 0-1.227.46-1.227 1.379v1.398h-1.535v-3.07c0-.37-.016-.685-.047-.945h1.504c.021.183.031.386.031.609v.184c.308-.56.839-.84 1.594-.84h.16v1.324zM151.134 311.199v1.41h1.262v.953h-1.262v1.566c0 .216.052.364.156.445.091.07.249.105.473.105.148 0 .359-.013.633-.039v.977c-.336.07-.667.105-.992.105-1.177 0-1.766-.425-1.766-1.273v-1.887h-.922v-.953h.922v-.855l.816-.258c.211-.066.438-.166.68-.296zM156.201 313.887a3.007 3.007 0 0 0-.48-.039c-.817 0-1.227.46-1.227 1.379v1.398h-1.535v-3.07c0-.37-.016-.685-.047-.945h1.504c.021.183.031.386.031.609v.184c.308-.56.839-.84 1.594-.84h.16v1.324zM156.642 311.992v-1.129h1.656v1.129h-1.656zm.063 4.633v-4.016h1.535v4.016h-1.535zM164.236 310.863v4.852c0 .273.021.577.063.91h-1.551a4.242 4.242 0 0 1-.047-.625v-.129c-.425.567-1.007.852-1.746.852-.653 0-1.16-.194-1.52-.582-.347-.375-.52-.894-.52-1.555 0-.641.184-1.147.551-1.521s.871-.561 1.512-.561c.685 0 1.259.227 1.723.68v-2.32h1.535zm-2.649 2.45c-.347 0-.616.114-.809.343-.185.214-.277.496-.277.847 0 .388.086.693.258.917.192.247.477.37.852.37.364 0 .644-.115.836-.347.18-.216.27-.51.27-.882-.001-.832-.377-1.248-1.13-1.248zM168.793 313.211c0-.234.016-.435.047-.602h1.504a7.428 7.428 0 0 0-.055.91v2.051c0 .414-.015.723-.043.926-.052.354-.16.64-.324.855-.43.565-1.249.848-2.457.848-1.503 0-2.262-.472-2.277-1.414h1.516c.021.362.292.543.813.543.825 0 1.238-.399 1.238-1.199v-.336c-.396.453-.966.68-1.711.68-.604 0-1.098-.173-1.48-.52-.396-.359-.594-.837-.594-1.434 0-.644.199-1.142.598-1.496.38-.341.896-.512 1.547-.512.636.001 1.197.234 1.678.7zm-2.246 1.316c0 .325.101.583.301.773s.465.285.793.285c.753 0 1.129-.371 1.129-1.113 0-.349-.098-.617-.293-.805s-.469-.281-.82-.281c-.356 0-.631.101-.822.301s-.288.481-.288.84zM175.868 315.344c-.075.919-.872 1.379-2.391 1.379-.747 0-1.34-.149-1.777-.449-.511-.352-.766-.883-.766-1.594 0-.747.259-1.309.777-1.684.458-.333 1.075-.5 1.852-.5 1.591 0 2.387.776 2.387 2.328v.137h-3.48c.013.297.118.528.316.695.19.156.437.234.738.234.516 0 .796-.183.84-.547h1.504zm-3.399-1.199h1.965c-.008-.269-.105-.473-.294-.613-.173-.13-.397-.195-.675-.195-.619-.001-.951.268-.996.808z"/></g><path fill="#9f0e12" d="M21.333 246.204H222v39.546H21.333zM287.493 33.25V212h-39.546V33.25zM247.947 212v28.379c0 3.126-2.534 5.826-5.66 5.826H222v39.546h65.493V212h-39.546z"/><path d="M313.339 314.097h-60.777a4.208 4.208 0 0 1-4.195-4.195v-57.36a4.208 4.208 0 0 1 4.195-4.195h60.777a4.208 4.208 0 0 1 4.195 4.195v57.36a4.207 4.207 0 0 1-4.195 4.195z" fill="#d7d4c1"/><linearGradient id="a" gradientUnits="userSpaceOnUse" x1="300.551" y1="288.006" x2="300.551" y2="263.011"><stop offset="0" stop-color="#eb6101"/><stop offset="1" stop-color="#9a4400"/></linearGradient><path fill="url(#a)" d="M303.391 288.006h-12.224l6.543-24.995h12.224z"/><linearGradient id="b" gradientUnits="userSpaceOnUse" x1="285.055" y1="292.48" x2="285.055" y2="258.362"><stop offset="0" stop-color="#eb6101"/><stop offset="1" stop-color="#9a4400"/></linearGradient><path fill="url(#b)" d="M286.702 292.48h-12.224l8.931-34.118h12.224z"/><linearGradient id="c" gradientUnits="userSpaceOnUse" x1="264.345" y1="300.429" x2="264.345" y2="253.731"><stop offset="0" stop-color="#eb6101"/><stop offset="1" stop-color="#9a4400"/></linearGradient><path fill="url(#c)" d="M264.345 300.429h-12.223l12.223-46.698h12.224z"/><linearGradient id="d" gradientUnits="userSpaceOnUse" x1="293.401" y1="288.006" x2="293.401" y2="258.362"><stop offset="0" stop-color="#029205"/><stop offset="1" stop-color="#d6edd9"/></linearGradient><path fill="url(#d)" d="M295.633 258.362h-12.224l7.76 29.644h12.223z"/><linearGradient id="e" gradientUnits="userSpaceOnUse" x1="275.529" y1="292.48" x2="275.529" y2="253.731"><stop offset="0" stop-color="#029205"/><stop offset="1" stop-color="#d6edd9"/></linearGradient><path fill="url(#e)" d="M286.712 292.48l-10.143-38.749h-12.224l10.143 38.749z"/><path d="M274.291 305.156c-.486-.214-.604.02-.69.325-.343 1.219-.709 2.432-1.028 3.656-.108.413-.324.558-.78.532-.524-.03-1.052-.007-1.723-.007l1.398-4.497c-.518-.259-.666-.011-.76.345-.318 1.204-.657 2.403-.954 3.611-.1.407-.3.581-.765.547-.396-.029-.796-.015-1.193-.005-.439.011-.529-.164-.417-.524.474-1.517.92-3.042 1.418-4.553.059-.178.377-.405.58-.409 2.144-.034 4.289-.037 6.434-.027.667.003.946.304.793.891a111.275 111.275 0 0 1-1.213 4.293c-.043.142-.336.293-.53.314-.436.047-.883.003-1.325.017-.465.015-.581-.159-.453-.551.361-1.111.703-2.227 1.049-3.341.062-.205.107-.414.159-.617zM288.622 304.167l-1.366 4.425c.533.251.678-.012.777-.36.337-1.179.693-2.353 1.009-3.536.107-.401.307-.571.772-.541.501.032 1.006.007 1.658.007l-1.33 4.435c.495.218.645.026.741-.331.326-1.201.689-2.395 1.006-3.598.1-.379.289-.535.724-.513.524.027 1.051.006 1.658.006-.051.251-.072.42-.12.582-.437 1.465-.892 2.925-1.311 4.394-.106.373-.286.519-.722.516-2.078-.017-4.156-.001-6.234-.01-.785-.004-1.06-.29-.873-.989.369-1.377.783-2.744 1.207-4.108.046-.15.265-.351.418-.361.612-.043 1.228-.018 1.986-.018zM264.303 309.658c-.685 0-1.371.015-2.056-.004-.7-.02-1.014-.377-.834-.994a121.95 121.95 0 0 1 1.29-4.149c.05-.153.322-.347.494-.349 1.414-.023 2.829-.009 4.244.003.574.005.826.311.701.786a124.453 124.453 0 0 1-1.244 4.408c-.041.136-.349.283-.541.293-.683.035-1.37.014-2.055.014l.001-.008zm-.503-1.031c-.038.138.321.08.494.074.629-.022.589-.026.701-.573.12-.584.734-2.634.828-2.988-.053-.059-.984-.107-1.054.084-.351.972-.69 2.396-.969 3.403zM306.6 304.161c-.302 1.044-.566 1.965-.835 2.885-.203.694-.435 1.382-.607 2.081-.116.473-.398.479-1.033.479-.934 0-1.577.01-2.576.01-.693 0-1.052-.179-1.108-.71-.149-1.429-.222-2.877-.353-4.307-.007-.079.057-.353.234-.357.697-.015 1.164-.002 1.746-.017.152-.004.144.22.167.383.159 1.167.269 2.787.408 3.956.033.312.473.234.514.097.345-1.155.744-2.844 1.047-4.008.091-.351.253-.516.666-.499.524.024 1.051.007 1.73.007zM281.973 306.139c.723 0 1.403-.002 2.084.001.842.003 1.102.274.92.993-.177.7-.363 1.399-.593 2.086-.056.167-.293.403-.45.405-1.718.029-3.437.018-5.148.018-.084-.887.062-1.043.899-1.042.663.001 1.328-.024 1.989.013.519.029.776-.141.855-.603.049-.29.168-.571.301-1.002-.767 0-1.437.002-2.107 0-1.001-.004-1.222-.261-.982-1.137.469-1.71.469-1.711 2.444-1.71 1.061.001 2.122.007 3.183.014.06 0 .12.041.177.061-.022.847-.07.893-.957.894h-1.525c-.949.003-.949.003-1.09 1.009zM258.081 305.257c-.673-.402-2.006.466-2.002-1.033h6.436c-.036.813-.14.906-.966.913-1.408.013-1.099-.131-1.426.976-.296 1-.563 2.007-.851 3.01-.156.541-.711.711-1.615.508-.514-.115-.745-.504-.584-1.028.311-1.017.638-2.031.955-3.047.028-.093.034-.191.053-.299zM279.625 304.163c-.069.3-.104.493-.158.682-.406 1.409-.829 2.813-1.216 4.226-.113.411-.293.646-.801.578-.195-.026-.397.001-.596-.006-.726-.026-.982-.34-.789-.984.404-1.348.827-2.691 1.216-4.042.094-.328.254-.472.633-.459.544.019 1.089.005 1.711.005zM253.752 305.052h-.508l-.648 2.307h1.331l-.175-2.307zm2.517 3.778l.098.835c-.199-.006-2.065 0-2.264 0l-.106-1.391-1.657-.002-.39 1.39c-.874 0-1.595.003-2.324.003.143-.431.263-.823.366-1.162.388-1.269.788-2.536 1.146-3.812.103-.367.256-.547.7-.54 1.06.016 2.121.002 3.182-.008.479-.004.761.206.815.624.193 1.485.244 2.577.434 4.063zM297.389 305.049h-.508l-.648 2.307h1.331l-.175-2.307zm2.517 3.779l.098.835c-.199-.006-2.065 0-2.264 0l-.106-1.391-1.657-.002-.39 1.39c-.874 0-1.595.003-2.324.003.143-.431.263-.823.366-1.162.388-1.269.788-2.536 1.146-3.812.103-.367.256-.547.7-.54 1.06.016 2.121.002 3.182-.008.479-.004.761.206.815.624.193 1.485.244 2.577.434 4.063zM311.137 309.503l.122-.626c.033-.09-.041-.182-.146-.182l-2.933.001c.103-.38.202-.643.241-.913.063-.448.32-.565.809-.569.437-.004 1.479.005 2.028.007.101 0 .186-.067.2-.158l.121-.811c.01-.069-.049-.13-.126-.13h-2.458c.048-.879.081-.912.887-.914.512-.002 1.631.001 2.232 0a.175.175 0 0 0 .17-.116l.191-.777c.023-.072-.035-.144-.118-.144-1.596-.001-3.263-.007-4.857.019-.136.002-.339.236-.388.393-.424 1.343-.83 2.69-1.218 4.042-.193.673.087.991.853.997 1.191.01 2.967.007 4.202.005a.2.2 0 0 0 .188-.124zM313.329 309.714h-.198v-1.417h-.504v-.177h1.209v.177h-.507v1.417zM315.658 309.714h-.198v-1.34l-.54 1.34h-.081l-.542-1.34v1.34h-.198v-1.594h.284l.497 1.228.495-1.228h.284v1.594z"/><g fill="#9f0e12"><path d="M319.197 181.718c1.403.047 2.105.986 2.105 2.82 0 1.021-.235 1.811-.707 2.367-.508.594-1.262.891-2.262.891-1.011 0-1.767-.311-2.27-.93-.461-.568-.691-1.369-.691-2.406 0-1.693.656-2.6 1.969-2.719v1.645c-.544.088-.816.482-.816 1.18 0 1.045.593 1.566 1.777 1.566 1.216 0 1.824-.494 1.824-1.48 0-.768-.31-1.195-.93-1.281v-1.653zM321.302 178.687c0 .787-.152 1.406-.457 1.859-.356.531-.909.797-1.656.797s-1.3-.277-1.656-.832c-.3-.463-.449-1.092-.449-1.887 0-.799.151-1.432.453-1.895.359-.555.915-.832 1.668-.832 1.398.001 2.097.931 2.097 2.79zm-.898-.08c0-.359-.12-.636-.359-.83-.224-.183-.52-.273-.887-.273-.372 0-.672.091-.898.273-.245.197-.367.477-.367.838 0 .371.118.654.355.846.219.178.52.266.902.266.836-.001 1.254-.374 1.254-1.12zM321.205 175.253h-3.07c-.37 0-.685.016-.945.047v-1.512c.156-.023.371-.048.645-.074a2.148 2.148 0 0 1-.742-1.66c0-.75.277-1.23.832-1.441-.555-.385-.832-.932-.832-1.641 0-.562.144-.994.43-1.296.294-.307.72-.461 1.277-.461h2.406v1.527h-2.449c-.505 0-.758.258-.758.773 0 .641.39.961 1.168.961h2.039v1.512h-2.449c-.239 0-.426.068-.559.205s-.199.325-.199.564c0 .656.39.984 1.168.984h2.039v1.512zM321.205 166.375h-3.07c-.37 0-.685.016-.945.047v-1.512c.156-.023.371-.048.645-.074a2.15 2.15 0 0 1-.742-1.66c0-.75.277-1.23.832-1.441-.555-.385-.832-.932-.832-1.641 0-.563.144-.995.43-1.297.294-.307.72-.461 1.277-.461h2.406v1.527h-2.449c-.505 0-.758.258-.758.773 0 .641.39.961 1.168.961h2.039v1.512h-2.449c-.239 0-.426.068-.559.205s-.199.325-.199.564c0 .656.39.984 1.168.984h2.039v1.513zM321.205 154.059a5.44 5.44 0 0 1-.641.039 2.32 2.32 0 0 1 .738 1.73c0 .56-.148.99-.445 1.291s-.726.451-1.285.451h-2.383v-1.543h2.328c.586 0 .879-.288.879-.863 0-.711-.392-1.066-1.176-1.066h-2.031v-1.535h3.063a12.801 12.801 0 0 0 .953-.047v1.543zM321.205 151.649h-3.07c-.37 0-.685.016-.945.047v-1.543c.208-.026.422-.039.641-.039a2.288 2.288 0 0 1-.738-1.73c0-.537.141-.958.422-1.266.292-.318.703-.477 1.234-.477h2.457v1.543h-2.383c-.55 0-.824.283-.824.848 0 .721.39 1.082 1.168 1.082h2.039v1.535zM316.572 145.888h-1.129v-1.656h1.129v1.656zm4.633-.063h-4.016v-1.535h4.016v1.535zM318.603 140.208c-.438.068-.656.362-.656.883 0 .349.133.609.398.781.224.146.521.219.891.219.763 0 1.145-.331 1.145-.992 0-.588-.247-.888-.742-.898v-1.582c1.104.057 1.656.889 1.656 2.496 0 .755-.147 1.353-.441 1.793-.347.516-.878.773-1.594.773-.745 0-1.306-.259-1.684-.777-.333-.458-.5-1.076-.5-1.852 0-1.479.509-2.272 1.527-2.379v1.535zM320.611 134.876c.461.344.691.967.691 1.871 0 .456-.087.822-.262 1.098-.208.331-.527.496-.957.496-.495 0-.87-.208-1.125-.625-.188-.305-.281-.99-.281-2.055v-.746h-.114c-.448 0-.672.251-.672.752 0 .525.163.812.488.861v1.555c-.859-.096-1.289-.912-1.289-2.445 0-1.474.513-2.211 1.539-2.211h2.047c.219 0 .395-.026.527-.078v1.43a1.234 1.234 0 0 1-.52.098h-.072zm-1.199.04v.121c0 .477.016.809.047.996.078.471.253.707.523.707.297 0 .445-.255.445-.766 0-.706-.309-1.059-.926-1.059h-.089zM315.779 130.65h1.41v-1.262h.953v1.262h1.566c.216 0 .364-.052.445-.156.07-.091.105-.249.105-.473 0-.148-.013-.359-.039-.633h.977c.07.336.105.667.105.992 0 1.177-.425 1.766-1.273 1.766h-1.887v.922h-.953v-.922h-.855l-.258-.816a4.036 4.036 0 0 0-.296-.68zM316.572 128.912h-1.129v-1.656h1.129v1.656zm4.633-.063h-4.016v-1.535h4.016v1.535zM321.302 124.045c0 .787-.152 1.406-.457 1.859-.356.531-.909.797-1.656.797s-1.3-.277-1.656-.832c-.3-.463-.449-1.092-.449-1.887 0-.799.151-1.431.453-1.895.359-.555.915-.832 1.668-.832 1.398.001 2.097.931 2.097 2.79zm-.898-.08c0-.359-.12-.636-.359-.831-.224-.182-.52-.273-.887-.273-.372 0-.672.091-.898.273-.245.198-.367.477-.367.838 0 .372.118.654.355.846.219.177.52.265.902.265.836.001 1.254-.372 1.254-1.118zM321.205 120.611h-3.07c-.37 0-.685.016-.945.047v-1.543c.208-.026.422-.039.641-.039a2.288 2.288 0 0 1-.738-1.73c0-.537.141-.958.422-1.266.292-.316.703-.477 1.234-.477h2.457v1.543h-2.383c-.55 0-.824.283-.824.848 0 .721.39 1.082 1.168 1.082h2.039v1.535zM319.197 106.014c1.403.047 2.105.987 2.105 2.82 0 1.021-.235 1.81-.707 2.367-.508.594-1.262.891-2.262.891-1.011 0-1.767-.31-2.27-.93-.461-.567-.691-1.37-.691-2.406 0-1.692.656-2.599 1.969-2.719v1.645c-.544.089-.816.481-.816 1.18 0 1.044.593 1.566 1.777 1.566 1.216 0 1.824-.493 1.824-1.48 0-.769-.31-1.195-.93-1.281v-1.653zM320.611 102.264c.461.344.691.968.691 1.871 0 .456-.087.821-.262 1.098-.208.331-.527.496-.957.496-.495 0-.87-.208-1.125-.625-.188-.305-.281-.989-.281-2.055v-.746h-.114c-.448 0-.672.251-.672.752 0 .525.163.812.488.861v1.555c-.859-.097-1.289-.911-1.289-2.445 0-1.474.513-2.211 1.539-2.211h2.047c.219 0 .395-.026.527-.078v1.43a1.234 1.234 0 0 1-.52.098h-.072zm-1.199.039v.121c0 .477.016.809.047.996.078.472.253.707.523.707.297 0 .445-.255.445-.766 0-.706-.309-1.059-.926-1.059h-.089zM318.466 96.699a3.007 3.007 0 0 0-.039.48c0 .817.46 1.227 1.379 1.227h1.398v1.535h-3.07c-.37 0-.685.016-.945.047v-1.504a5.38 5.38 0 0 1 .609-.031h.184c-.56-.308-.84-.839-.84-1.594v-.16h1.324zM315.779 94.269h1.41v-1.262h.953v1.262h1.566c.216 0 .364-.052.445-.156.07-.091.105-.249.105-.473 0-.148-.013-.359-.039-.633h.977c.07.336.105.667.105.992 0 1.177-.425 1.766-1.273 1.766h-1.887v.922h-.953v-.922h-.855l-.258-.816a4.036 4.036 0 0 0-.296-.68zM318.466 89.203a3.007 3.007 0 0 0-.039.48c0 .817.46 1.227 1.379 1.227h1.398v1.535h-3.07c-.37 0-.685.016-.945.047v-1.504a5.38 5.38 0 0 1 .609-.031h.184c-.56-.308-.84-.839-.84-1.594v-.16h1.324zM316.572 88.761h-1.129v-1.656h1.129v1.656zm4.633-.062h-4.016v-1.535h4.016v1.535zM315.443 81.167h4.852c.273 0 .577-.021.91-.063v1.551a4.242 4.242 0 0 1-.625.047h-.129c.567.425.852 1.007.852 1.746 0 .653-.194 1.16-.582 1.52-.375.347-.894.52-1.555.52-.641 0-1.147-.184-1.521-.551s-.561-.871-.561-1.512c0-.685.227-1.259.68-1.723h-2.32v-1.535zm2.449 2.649c0 .347.114.616.343.809.214.185.496.277.847.277.388 0 .693-.086.917-.258.247-.192.37-.477.37-.852 0-.364-.115-.644-.347-.836-.216-.18-.51-.27-.882-.27-.832.001-1.248.377-1.248 1.13zM317.791 76.61a3.35 3.35 0 0 1-.602-.047v-1.504c.292.036.595.055.91.055h2.051c.414 0 .723.015.926.043.354.052.64.16.855.324.565.43.848 1.249.848 2.457 0 1.503-.472 2.262-1.414 2.277V78.7c.362-.021.543-.292.543-.813 0-.825-.399-1.238-1.199-1.238h-.336c.453.396.68.966.68 1.711 0 .604-.173 1.098-.52 1.48-.359.396-.837.594-1.434.594-.644 0-1.142-.199-1.496-.598-.341-.38-.512-.896-.512-1.547 0-.637.234-1.198.7-1.679zm1.316 2.246c.325 0 .583-.101.773-.301s.285-.465.285-.793c0-.753-.371-1.129-1.113-1.129-.349 0-.617.098-.805.293s-.281.469-.281.82c0 .356.101.631.301.822s.481.288.84.288zM319.923 69.536c.919.075 1.379.872 1.379 2.391 0 .747-.149 1.34-.449 1.777-.352.511-.883.766-1.594.766-.747 0-1.309-.259-1.684-.777-.333-.458-.5-1.075-.5-1.852 0-1.591.776-2.387 2.328-2.387h.137v3.48c.297-.013.528-.118.695-.316.156-.19.234-.437.234-.738 0-.516-.183-.796-.547-.84v-1.504zm-1.199 3.398v-1.965c-.269.008-.473.105-.613.294-.13.173-.195.397-.195.675 0 .619.269.951.808.996z"/></g><path d="M239.708 33.25c-2.773 0-5.042 2.269-5.042 5.042v77.866h-32.75v-46.72a5.104 5.104 0 0 0-5.104-5.104H189.5V33.25h50.208z" fill="#ad1722" stroke="#9f0e12" stroke-miterlimit="10"/><linearGradient id="f" gradientUnits="userSpaceOnUse" x1="157.333" y1="67.925" x2="157.333" y2="33.25"><stop offset="0" stop-color="#820b0b"/><stop offset=".066" stop-color="#8d0e10"/><stop offset=".227" stop-color="#a11419"/><stop offset=".409" stop-color="#af181f"/><stop offset=".631" stop-color="#b71a23"/><stop offset="1" stop-color="#ba1b24"/></linearGradient><path fill="url(#f)" d="M125.167 33.25H189.5v34.675h-64.333z"/><linearGradient id="g" gradientUnits="userSpaceOnUse" x1="216.37" y1="181.718" x2="216.37" y2="116.158"><stop offset="0" stop-color="#820b0b"/><stop offset=".033" stop-color="#8d0e10"/><stop offset=".113" stop-color="#a11419"/><stop offset=".205" stop-color="#af181f"/><stop offset=".316" stop-color="#b71a23"/><stop offset=".5" stop-color="#ba1b24"/><stop offset=".684" stop-color="#b71a23"/><stop offset=".795" stop-color="#af181f"/><stop offset=".887" stop-color="#a11419"/><stop offset=".967" stop-color="#8d0e10"/><stop offset="1" stop-color="#820b0b"/></linearGradient><path fill="url(#g)" d="M198.073 181.718v-65.56h36.594v65.56h-36.594"/><linearGradient id="h" gradientUnits="userSpaceOnUse" x1="125.167" y1="221.954" x2="189.5" y2="221.954"><stop offset="0" stop-color="#820b0b"/><stop offset=".033" stop-color="#8d0e10"/><stop offset=".113" stop-color="#a11419"/><stop offset=".205" stop-color="#af181f"/><stop offset=".316" stop-color="#b71a23"/><stop offset=".5" stop-color="#ba1b24"/><stop offset=".684" stop-color="#b71a23"/><stop offset=".795" stop-color="#af181f"/><stop offset=".887" stop-color="#a11419"/><stop offset=".967" stop-color="#8d0e10"/><stop offset="1" stop-color="#820b0b"/></linearGradient><path fill="url(#h)" d="M125.167 204.408H189.5V239.5h-64.333z"/><path d="M125.167 64.333V208H53.271a5.104 5.104 0 0 1-5.104-5.104V69.438a5.104 5.104 0 0 1 5.104-5.104h71.896z" fill="#ab0c11"/><path fill="#680703" d="M48.167 153.167h3.844v18.667h-3.844z"/><path d="M202.307 181.718v21.178a5.104 5.104 0 0 1-5.104 5.104H189.5v-26.282h12.807zM189.5 64.333h7.703a5.104 5.104 0 0 1 5.104 5.104v46.72H189.5V64.333z" fill="#ab0c11"/><path fill="#680703" d="M198.073 76.983h3.844V95.65h-3.844z"/><path d="M124.923 204.408h68.301a4.849 4.849 0 0 0 4.849-4.849V72.774a4.849 4.849 0 0 0-4.849-4.849h-68.301.237-68.301a4.849 4.849 0 0 0-4.849 4.849v126.785a4.849 4.849 0 0 0 4.849 4.849h68.301-.237z" fill="#c11127"/><g><path d="M184.217 93.531v55.854c0 .321-.26.582-.582.582h-8.521a.582.582 0 0 1-.582-.582V93.531c0-.321.26-.582.582-.582h8.521a.583.583 0 0 1 .582.582z" fill="#a1ac9b"/><path d="M175.667 121v26.563c0 .449.364.813.813.813h4.167a.813.813 0 0 0 .813-.812v-.854h.813a.813.813 0 0 0 .813-.813V121v.459-24.896a.813.813 0 0 0-.813-.813h-.812v-.854a.812.812 0 0 0-.812-.812h-4.167a.813.813 0 0 0-.813.812v26.563" fill="#7f8583"/><g fill="#8f9392"><path d="M180.938 101.325h-2.458a.565.565 0 0 1-.563-.563c0-.309.253-.563.563-.563h2.458c.309 0 .563.253.563.563a.565.565 0 0 1-.563.563zM180.938 99.47h-2.458a.565.565 0 0 1-.563-.563c0-.309.253-.563.563-.563h2.458c.309 0 .563.253.563.563a.565.565 0 0 1-.563.563zM180.938 103.179h-2.458a.565.565 0 0 1-.563-.563c0-.309.253-.563.563-.563h2.458c.309 0 .563.253.563.563a.565.565 0 0 1-.563.563zM180.938 105.033h-2.458a.565.565 0 0 1-.563-.563c0-.309.253-.563.563-.563h2.458c.309 0 .563.253.563.563a.565.565 0 0 1-.563.563zM180.938 106.887h-2.458a.565.565 0 0 1-.563-.563c0-.309.253-.563.563-.563h2.458c.309 0 .563.253.563.563a.565.565 0 0 1-.563.563zM180.938 108.741h-2.458a.565.565 0 0 1-.563-.563c0-.309.253-.563.563-.563h2.458c.309 0 .563.253.563.563a.565.565 0 0 1-.563.563zM180.938 110.595h-2.458a.565.565 0 0 1-.563-.563c0-.309.253-.563.563-.563h2.458c.309 0 .563.253.563.563a.565.565 0 0 1-.563.563zM180.938 112.45h-2.458a.565.565 0 0 1-.563-.563c0-.309.253-.563.563-.563h2.458c.309 0 .563.253.563.563a.565.565 0 0 1-.563.563zM180.938 114.304h-2.458a.565.565 0 0 1-.563-.563c0-.309.253-.563.563-.563h2.458c.309 0 .563.253.563.563a.565.565 0 0 1-.563.563zM180.938 116.158h-2.458a.565.565 0 0 1-.563-.563c0-.309.253-.563.563-.563h2.458c.309 0 .563.253.563.563a.565.565 0 0 1-.563.563zM180.938 118.012h-2.458a.565.565 0 0 1-.563-.563c0-.309.253-.563.563-.563h2.458c.309 0 .563.253.563.563a.565.565 0 0 1-.563.563zM180.938 119.866h-2.458a.565.565 0 0 1-.563-.563c0-.309.253-.563.563-.563h2.458c.309 0 .563.253.563.563a.565.565 0 0 1-.563.563zM180.938 121.72h-2.458a.565.565 0 0 1-.563-.563c0-.309.253-.563.563-.563h2.458c.309 0 .563.253.563.563a.565.565 0 0 1-.563.563zM180.938 123.575h-2.458a.565.565 0 0 1-.563-.563c0-.309.253-.563.563-.563h2.458c.309 0 .563.253.563.563a.565.565 0 0 1-.563.563zM180.938 125.429h-2.458a.565.565 0 0 1-.563-.563c0-.309.253-.563.563-.563h2.458c.309 0 .563.253.563.563a.565.565 0 0 1-.563.563zM180.938 127.283h-2.458a.565.565 0 0 1-.563-.563c0-.309.253-.563.563-.563h2.458c.309 0 .563.253.563.563a.565.565 0 0 1-.563.563zM180.938 129.137h-2.458a.565.565 0 0 1-.563-.563c0-.309.253-.563.563-.563h2.458c.309 0 .563.253.563.563a.565.565 0 0 1-.563.563zM180.938 130.991h-2.458a.565.565 0 0 1-.563-.563c0-.309.253-.563.563-.563h2.458c.309 0 .563.253.563.563a.565.565 0 0 1-.563.563zM180.938 132.845h-2.458a.565.565 0 0 1-.563-.563c0-.309.253-.563.563-.563h2.458c.309 0 .563.253.563.563a.565.565 0 0 1-.563.563zM180.938 134.7h-2.458a.565.565 0 0 1-.563-.563c0-.309.253-.563.563-.563h2.458c.309 0 .563.253.563.563a.565.565 0 0 1-.563.563zM180.938 136.554h-2.458a.565.565 0 0 1-.563-.563c0-.309.253-.563.563-.563h2.458c.309 0 .563.253.563.563a.565.565 0 0 1-.563.563zM180.938 138.408h-2.458a.565.565 0 0 1-.563-.563c0-.309.253-.563.563-.563h2.458c.309 0 .563.253.563.563a.565.565 0 0 1-.563.563zM180.938 140.262h-2.458a.565.565 0 0 1-.563-.563c0-.309.253-.563.563-.563h2.458c.309 0 .563.253.563.563a.565.565 0 0 1-.563.563zM180.938 142.116h-2.458a.565.565 0 0 1-.563-.563c0-.309.253-.563.563-.563h2.458c.309 0 .563.253.563.563a.565.565 0 0 1-.563.563zM180.938 143.97h-2.458a.565.565 0 0 1-.563-.563c0-.309.253-.563.563-.563h2.458c.309 0 .563.253.563.563a.565.565 0 0 1-.563.563z"/></g><path d="M179.451 145.59h-.674a.55.55 0 0 1-.549-.549V97.274a.55.55 0 0 1 .549-.549h.674a.55.55 0 0 1 .549.549v47.767a.55.55 0 0 1-.549.549zM180.001 97.845h.604v46.625h-.604z" fill="#8f9392"/><circle cx="179.115" cy="87.642" r="3.604" fill="#4f524b"/><g fill="#576362"><circle cx="179.096" cy="87.66" r="1.344"/><path d="M180.75 86.714l-2.6 2.6a.277.277 0 0 1-.39 0l-.317-.317a.277.277 0 0 1 0-.39l2.6-2.6a.277.277 0 0 1 .39 0l.317.317a.277.277 0 0 1 0 .39z"/><path d="M180.08 89.277l-2.6-2.6a.277.277 0 0 1 0-.39l.317-.317a.277.277 0 0 1 .39 0l2.6 2.6a.277.277 0 0 1 0 .39l-.317.317a.275.275 0 0 1-.39 0z"/></g><circle cx="179.115" cy="155.275" r="3.604" fill="#4f524b"/><g><g fill="#576362"><circle cx="179.096" cy="155.257" r="1.344"/><path d="M180.75 156.203l-2.6-2.6a.277.277 0 0 0-.39 0l-.317.317a.277.277 0 0 0 0 .39l2.6 2.6a.277.277 0 0 0 .39 0l.317-.317a.277.277 0 0 0 0-.39z"/><path d="M180.08 153.64l-2.6 2.6a.277.277 0 0 0 0 .39l.317.317a.277.277 0 0 0 .39 0l2.6-2.6a.277.277 0 0 0 0-.39l-.317-.317a.275.275 0 0 0-.39 0z"/></g></g></g><path d="M141.729 203.377h29.875v1.031h-29.875z"/><circle cx="95.745" cy="121.391" r="3.641" fill="#930f19"/><path d="M247.947 212v28.379c0 3.126-2.534 5.826-5.66 5.826H222v-.166c0-3.596-2.942-6.538-6.538-6.538H189.5V208h7.703a5.104 5.104 0 0 0 5.104-5.104v-21.178h32.36v25.24c0 2.773 2.269 5.042 5.042 5.042h8.238z" fill="#ad1722" stroke="#9f0e12" stroke-miterlimit="10"/><path d="M141.729 67.925h29.875v1.031h-29.875z"/><path d="M69.396 331.333H35.844a1.86 1.86 0 0 1-1.854-1.854v-4.813h37.25v4.823c0 1.015-.83 1.844-1.844 1.844zM192.791 331.359H78.145a1.839 1.839 0 0 1-1.833-1.833v-4.833h118.333v4.813a1.859 1.859 0 0 1-1.854 1.853z" fill="#d1a195"/><g fill="#f8dbc9"><path d="M77.949 326.089h3.125v3.875h-3.125z"/><path d="M77.972 326.089h3.125v3.875h-3.125zM82.449 326.089h3.125v3.875h-3.125zM86.925 326.089h3.125v3.875h-3.125zM91.402 326.089h3.125v3.875h-3.125zM95.878 326.089h3.125v3.875h-3.125zM100.354 326.089h3.125v3.875h-3.125zM104.831 326.089h3.125v3.875h-3.125zM109.307 326.089h3.125v3.875h-3.125zM113.784 326.089h3.125v3.875h-3.125zM118.26 326.089h3.125v3.875h-3.125zM122.737 326.089h3.125v3.875h-3.125zM127.213 326.089h3.125v3.875h-3.125zM131.69 326.089h3.125v3.875h-3.125zM136.166 326.089h3.125v3.875h-3.125zM140.643 326.089h3.125v3.875h-3.125zM145.119 326.089h3.125v3.875h-3.125zM149.596 326.089h3.125v3.875h-3.125zM154.072 326.089h3.125v3.875h-3.125zM158.549 326.089h3.125v3.875h-3.125zM163.025 326.089h3.125v3.875h-3.125zM167.502 326.089h3.125v3.875h-3.125zM171.978 326.089h3.125v3.875h-3.125zM176.455 326.089h3.125v3.875h-3.125zM180.931 326.089h3.125v3.875h-3.125zM185.407 326.089h3.125v3.875h-3.125zM189.884 326.089h3.125v3.875h-3.125z"/></g><g fill="#f8dbc9"><path d="M35.302 326.115h3.125v3.875h-3.125zM39.802 326.115h3.125v3.875h-3.125zM44.302 326.115h3.125v3.875h-3.125zM48.802 326.115h3.125v3.875h-3.125zM53.302 326.115h3.125v3.875h-3.125zM57.802 326.115h3.125v3.875h-3.125zM62.302 326.115h3.125v3.875h-3.125zM66.802 326.01h3.125v3.875h-3.125z"/></g></svg>