<svg xmlns="http://www.w3.org/2000/svg" viewBox="0 0 152.761 142.494"><path d="M87.512 142.494c1.045 0 2.701-1.367 2.701-3.721h34.323c0 2.353 1.656 3.721 2.701 3.721h19.327c3.408 0 6.196-2.788 6.196-6.196V6.196c0-3.408-2.788-6.196-6.196-6.196h-19.327c-1.045 0-2.701 1.367-2.701 3.721H90.214C90.214 1.367 88.558 0 87.512 0H6.196C2.788 0 0 2.788 0 6.196v130.101c0 3.408 2.788 6.196 6.196 6.196l81.316.001z" fill="#9f0e12"/><path d="M127.237 141.643c-.554 0-1.851-.977-1.851-2.87l-.03-.851H89.363v.851c0 1.894-1.297 2.87-1.851 2.87H6.196a5.352 5.352 0 0 1-5.346-5.346V6.197A5.352 5.352 0 0 1 6.196.851h81.316c.554 0 1.851.977 1.851 2.87v.851h35.993l.03-.851c0-1.894 1.297-2.87 1.851-2.87h19.327a5.352 5.352 0 0 1 5.346 5.346v130.101a5.352 5.352 0 0 1-5.346 5.346l-19.327-.001z" fill="#ad1722" stroke="#9f0e12" stroke-miterlimit="10"/><path d="M143.906 136.794H8.855a2.753 2.753 0 0 1-2.745-2.745V8.444A2.753 2.753 0 0 1 8.855 5.7h135.051a2.753 2.753 0 0 1 2.745 2.745V134.05a2.753 2.753 0 0 1-2.745 2.744z" fill="#c11127"/><path d="M138.027 132.694H14.734a4.24 4.24 0 0 1-4.228-4.228V14.028A4.24 4.24 0 0 1 14.734 9.8h123.293a4.24 4.24 0 0 1 4.228 4.228v114.438a4.24 4.24 0 0 1-4.228 4.228z" fill="#fff"/><path d="M142.255 94.304H10.507v34.162a4.24 4.24 0 0 0 4.228 4.228h123.293a4.24 4.24 0 0 0 4.228-4.228V94.304z"/><path fill="#fff" d="M10.507 108.429h64.999v10.5H10.507z"/><path d="M20.704 15.636a3.64 3.64 0 0 0-1.263-.232c-.611 0-1.137.126-1.579.379-.442.274-.674.568-.674.926v.043c.021.463.358.82 1.011 1.073l1.221-1.074a1.38 1.38 0 0 1-.611-.126c-.169-.084-.253-.189-.253-.337l.084-.189c.148-.169.421-.253.779-.253.358 0 .611.084.758.253l.527-.463" fill="#70ff03"/><path d="M21.673 16.794a3.255 3.255 0 0 0-1.495-.695l-.758.653c.316.021.611.105.842.274a.844.844 0 0 1 .337.674l-.021.147a.983.983 0 0 1-.4.569 1.4 1.4 0 0 1-.779.211c-.316 0-.568-.084-.8-.232a.827.827 0 0 1-.4-.568l-2.085 1.811c.169.695.568 1.263 1.179 1.706s1.327.674 2.127.674c.926 0 1.727-.295 2.379-.863.653-.59.99-1.305.99-2.127 0-.886-.379-1.623-1.116-2.234" fill="#2bd60d"/><path d="M25.463 16.015c1.158 0 1.727.59 1.727 1.79h-1.179c0-.526-.147-.779-.463-.779-.274 0-.4.147-.4.442 0 .211.147.4.442.59l.527.337c.358.232.632.463.779.653.189.274.295.611.295.969 0 .611-.105 1.032-.316 1.305-.232.274-.653.421-1.263.421-.653 0-1.137-.169-1.411-.526-.253-.316-.379-.779-.379-1.432h1.221c-.063.611.126.905.568.905.232 0 .358-.126.358-.4a.764.764 0 0 0-.169-.505l-.379-.295-.526-.316c-.653-.4-.969-.905-.969-1.537 0-.442.105-.8.295-1.074.274-.358.674-.548 1.242-.548M33.486 17.405c.421 0 .716.148.884.463.211-.316.505-.484.884-.484.189 0 .4.063.59.189.274.147.4.4.4.737v3.285h-1.179v-2.674l-.042-.358c-.021-.105-.105-.169-.253-.169s-.253.063-.295.169l-.021.358v2.674h-1.179v-2.653l-.021-.379c-.042-.105-.126-.147-.274-.147s-.232.063-.253.168l-.021.337v2.674h-1.2V17.51h1.137v.358l.105-.105c.211-.232.464-.358.738-.358M45.172 17.489l-.926 4.169c-.147.611-.379 1.011-.695 1.2-.169.105-.421.147-.737.126l-.421-.042v-.884l.358.021c.169-.021.211-.232.105-.611l-.884-3.98h1.242l.337 2.506.4-2.506h1.221M38.855 17.426c.421 0 .716.147.863.442a1.08 1.08 0 0 1 .906-.463c.189 0 .4.063.59.169.274.169.4.421.4.737v3.285h-1.2v-2.653l-.021-.358c-.021-.105-.105-.168-.253-.168-.147 0-.253.063-.295.168l-.021.358v2.653h-1.179v-2.632l-.021-.379c-.021-.105-.126-.168-.274-.168s-.232.063-.253.189l-.021.337v2.674h-1.2v-4.085h1.137v.358l.105-.126a.964.964 0 0 1 .737-.338M30.791 18.542v2.253l.021.526c.021.147.042.253.105.337h-1.179l-.147-.295-.253.168c-.189.147-.379.232-.568.232-.4 0-.695-.105-.906-.295-.232-.189-.337-.442-.337-.8 0-.4.084-.695.232-.926.126-.211.358-.379.716-.484l.568-.211c.316-.105.484-.232.505-.358.021-.147 0-.274-.084-.379a.254.254 0 0 0-.274-.126c-.168 0-.274.084-.337.232l-.063.379h-1.242c.021-.611.232-1.011.632-1.242.253-.148.611-.211 1.074-.211.4 0 .716.042.905.126.421.169.632.527.632 1.074m-1.201 1.116l-.463.21c-.274.147-.4.337-.379.568 0 .19.084.337.274.4a.4.4 0 0 0 .379-.063c.105-.105.168-.253.189-.484v-.631"/><g><linearGradient id="a" gradientUnits="userSpaceOnUse" x1="129.153" y1="111.265" x2="129.153" y2="100.617"><stop offset="0" stop-color="#eb6101"/><stop offset="1" stop-color="#9a4400"/></linearGradient><path fill="url(#a)" d="M130.363 111.265h-5.207l2.787-10.648h5.207z"/><linearGradient id="b" gradientUnits="userSpaceOnUse" x1="122.552" y1="113.171" x2="122.552" y2="98.637"><stop offset="0" stop-color="#eb6101"/><stop offset="1" stop-color="#9a4400"/></linearGradient><path fill="url(#b)" d="M123.254 113.171h-5.207l3.804-14.534h5.207z"/><linearGradient id="c" gradientUnits="userSpaceOnUse" x1="113.73" y1="116.557" x2="113.73" y2="96.664"><stop offset="0" stop-color="#eb6101"/><stop offset="1" stop-color="#9a4400"/></linearGradient><path fill="url(#c)" d="M113.73 116.557h-5.207l5.207-19.893h5.207z"/><linearGradient id="d" gradientUnits="userSpaceOnUse" x1="126.107" y1="111.265" x2="126.107" y2="98.637"><stop offset="0" stop-color="#029205"/><stop offset="1" stop-color="#d6edd9"/></linearGradient><path fill="url(#d)" d="M127.058 98.637h-5.207l3.306 12.628h5.207z"/><linearGradient id="e" gradientUnits="userSpaceOnUse" x1="118.494" y1="113.171" x2="118.494" y2="96.664"><stop offset="0" stop-color="#029205"/><stop offset="1" stop-color="#d6edd9"/></linearGradient><path fill="url(#e)" d="M123.258 113.171l-4.321-16.507h-5.207l4.321 16.507z"/><g fill="#fff"><path d="M117.967 118.571c-.207-.091-.257.009-.294.138-.146.519-.302 1.036-.438 1.557-.046.176-.138.238-.332.226-.223-.013-.448-.003-.734-.003l.596-1.916c-.221-.11-.284-.005-.324.147-.136.513-.28 1.024-.406 1.538-.042.173-.128.247-.326.233-.168-.012-.339-.006-.508-.002-.187.005-.226-.07-.178-.223.202-.646.392-1.296.604-1.94.025-.076.161-.173.247-.174a125.2 125.2 0 0 1 2.741-.011c.284.001.403.129.338.38a47.38 47.38 0 0 1-.517 1.829c-.018.061-.143.125-.226.134-.186.02-.376.001-.564.007-.198.006-.247-.068-.193-.235.154-.473.299-.948.447-1.423.026-.087.045-.176.067-.262zM124.072 118.149l-.582 1.885c.227.107.289-.005.331-.153.143-.502.295-1.002.43-1.506.046-.171.131-.243.329-.231.213.014.429.003.706.003l-.567 1.889c.211.093.275.011.316-.141.139-.512.293-1.02.428-1.533.043-.161.123-.228.308-.218.223.012.448.003.706.003-.022.107-.031.179-.051.248-.186.624-.38 1.246-.558 1.872-.045.159-.122.221-.307.22-.885-.007-1.77 0-2.656-.004-.335-.002-.452-.124-.372-.422.157-.586.334-1.169.514-1.75.02-.064.113-.149.178-.154.262-.018.524-.008.847-.008zM113.712 120.489c-.292 0-.584.007-.876-.002-.298-.009-.432-.16-.355-.423.173-.592.356-1.181.549-1.768.021-.065.137-.148.211-.149.602-.01 1.205-.004 1.808.001.245.002.352.133.299.335a51.905 51.905 0 0 1-.53 1.878c-.018.058-.149.12-.23.125-.291.015-.584.006-.875.006l-.001-.003zm-.214-.439c-.016.059.137.034.21.031.268-.009.251-.011.299-.244.051-.249.313-1.122.353-1.273-.023-.025-.419-.045-.449.036-.15.414-.295 1.021-.413 1.45zM131.73 118.147c-.129.445-.241.837-.356 1.229-.086.296-.185.589-.258.887-.05.201-.17.204-.44.204-.398 0-.672.004-1.097.004-.295 0-.448-.076-.472-.302-.064-.609-.095-1.225-.151-1.835-.003-.034.024-.15.1-.152.297-.006.496-.001.744-.007.065-.002.062.094.071.163.068.497.115 1.187.174 1.685.014.133.202.1.219.041.147-.492.317-1.211.446-1.707.039-.149.108-.22.284-.212.222.009.447.002.736.002zM121.239 118.99h.888c.359.001.469.117.392.423-.075.298-.155.596-.252.889-.024.071-.125.172-.192.173-.732.012-1.464.008-2.193.008-.036-.378.026-.444.383-.444.283 0 .566-.01.847.006.221.013.331-.06.364-.257.021-.124.072-.243.128-.427h-.898c-.426-.002-.521-.111-.418-.484.2-.728.2-.729 1.041-.728.452 0 .904.003 1.356.006.026 0 .051.017.075.026-.009.361-.03.38-.408.381h-.65c-.403-.001-.403-.001-.463.428zM111.061 118.614c-.287-.171-.855.198-.853-.44h2.742c-.016.346-.06.386-.412.389-.6.005-.468-.056-.608.416-.126.426-.24.855-.363 1.282-.066.23-.303.303-.688.216-.219-.049-.317-.215-.249-.438.133-.433.272-.865.407-1.298.014-.039.016-.081.024-.127zM120.239 118.148c-.029.128-.044.21-.067.291-.173.6-.353 1.198-.518 1.8-.048.175-.125.275-.341.246-.083-.011-.169.001-.254-.003-.309-.011-.418-.145-.336-.419.172-.574.352-1.146.518-1.722.04-.14.108-.201.27-.196.231.009.463.003.728.003zM109.217 118.527h-.216l-.276.983h.567l-.075-.983zm1.073 1.609l.042.356c-.085-.003-.88 0-.965 0l-.045-.593-.706-.001-.166.592-.99.001c.061-.184.112-.351.156-.495.165-.541.335-1.08.488-1.624.044-.156.109-.233.298-.23.452.007.904.001 1.355-.003.204-.002.324.088.347.266.083.633.105 1.098.186 1.731zM127.806 118.526h-.216l-.276.983h.567l-.075-.983zm1.072 1.609l.042.356c-.085-.003-.88 0-.965 0l-.045-.593-.706-.001-.166.592-.99.001c.061-.184.112-.351.156-.495.165-.541.336-1.08.488-1.624.044-.156.109-.233.298-.23.452.007.904.001 1.355-.003.204-.002.324.088.347.266.084.633.106 1.098.186 1.731zM133.663 120.423l.052-.267c.014-.038-.017-.078-.062-.078h-1.249c.044-.162.086-.274.102-.389.027-.191.136-.241.345-.243.186-.002.63.002.864.003.043 0 .079-.029.085-.067l.052-.345c.004-.029-.021-.055-.053-.055h-1.047c.021-.374.035-.388.378-.389h.951c.034 0 .063-.02.072-.049l.082-.331c.01-.031-.015-.061-.05-.061-.68 0-1.39-.003-2.069.008-.058.001-.144.1-.165.167-.18.572-.354 1.146-.519 1.722-.082.287.037.422.363.425.507.004 1.264.003 1.79.002a.087.087 0 0 0 .078-.053z"/><g><path d="M134.597 120.512h-.084v-.604h-.215v-.075h.515v.075h-.216v.604zM135.589 120.512h-.084v-.571l-.23.571h-.035l-.231-.571v.571h-.084v-.679h.121l.212.523.211-.523h.121v.679z"/></g></g></g></svg>