<svg xmlns="http://www.w3.org/2000/svg" viewBox="0 0 495.066 251.188"><linearGradient id="a" gradientUnits="userSpaceOnUse" x1="158.438" y1="251.188" x2="158.438"><stop offset="0" stop-color="#b6b896"/><stop offset=".001" stop-color="#b6b897"/><stop offset=".02" stop-color="#babca2"/><stop offset=".047" stop-color="#bcbea9"/><stop offset=".122" stop-color="#bdbfab"/><stop offset=".221" stop-color="#caccbc"/><stop offset=".344" stop-color="#d3d6c7"/><stop offset=".518" stop-color="#d9dbce"/><stop offset="1" stop-color="#daddd0"/></linearGradient><path fill="url(#a)" d="M158.438 0L10.915.354c-2.091 0-3.801 1.684-3.801 3.741C5.208 39.897 2.767 73.355 1.398 111.5-.549 165.771.036 199.563.255 243.688c.01 2.058 1.947 6.542 6.096 6.792l152.087.708 152.087-.708c4.149-.25 6.086-4.734 6.096-6.792.219-44.125.804-77.917-1.143-132.188-1.369-38.145-3.81-71.603-5.715-107.405 0-2.058-1.711-3.741-3.801-3.741L158.438 0z"/><path fill="#111207" d="M293.464 227.437h-20.998a.553.553 0 0 1-.553-.553v-75.81c0-.305.247-.553.553-.553h20.998c.305 0 .553.247.553.553v75.81a.554.554 0 0 1-.553.553z"/><path fill="#A17826" d="M274.62 179.197a.655.655 0 0 1-.197-.467v-8.25c0-.18.074-.345.193-.463l-2.557-2.46-.004.003a.552.552 0 0 0-.163.392v13.307c0 .154.064.294.167.395l2.561-2.457zM291.293 179.193a.654.654 0 0 0 .193-.463v-8.25a.657.657 0 0 0-.197-.468l2.562-2.456a.552.552 0 0 1 .167.395v13.307a.552.552 0 0 1-.163.392l-.004.003-2.562-2.456"/><path fill="#AB7827" d="M272.058 181.653c.1.099.238.16.388.16h21.016a.552.552 0 0 0 .392-.163l-2.561-2.457a.654.654 0 0 1-.463.193h-15.75a.651.651 0 0 1-.459-.189l-2.563 2.456z"/><path fill="#B18526" d="M272.055 167.559a.552.552 0 0 1 .392-.163h21.016c.151 0 .288.061.388.159l-2.562 2.456a.653.653 0 0 0-.459-.189h-15.75a.656.656 0 0 0-.464.193l-2.561-2.456z"/><path fill="#D5B127" d="M274.622 194.405a.656.656 0 0 1-.197-.468v-8.25c0-.18.074-.345.193-.463l-2.557-2.46-.004.003a.552.552 0 0 0-.163.392v13.307c0 .154.064.294.167.395l2.561-2.456zM291.295 194.401a.654.654 0 0 0 .193-.463v-8.25a.657.657 0 0 0-.197-.468l2.562-2.456a.552.552 0 0 1 .167.395v13.307a.552.552 0 0 1-.163.392l-.004.003-2.562-2.456"/><path fill="#D6A82E" d="M272.06 196.861c.1.099.238.16.388.16h21.016a.552.552 0 0 0 .392-.163l-2.561-2.457a.654.654 0 0 1-.463.193h-15.75a.651.651 0 0 1-.459-.189l-2.563 2.456z"/><path fill="#C6A230" d="M272.057 182.767a.552.552 0 0 1 .392-.163h21.016c.151 0 .288.061.388.159l-2.562 2.456a.653.653 0 0 0-.459-.189h-15.75a.656.656 0 0 0-.464.193l-2.561-2.456z"/><path fill="#D5B127" d="M274.64 209.612a.656.656 0 0 1-.197-.468v-8.25c0-.18.074-.345.193-.463l-2.557-2.46-.004.003a.552.552 0 0 0-.163.392v13.307c0 .154.064.294.167.395l2.561-2.456zM291.312 209.608a.654.654 0 0 0 .193-.463v-8.25a.657.657 0 0 0-.197-.468l2.562-2.456a.551.551 0 0 1 .166.395v13.307a.552.552 0 0 1-.163.392l-.004.003-2.562-2.456"/><path fill="#D6A82E" d="M272.078 212.069c.1.099.238.16.388.16h21.016a.552.552 0 0 0 .392-.163l-2.561-2.457a.655.655 0 0 1-.464.193h-15.75a.651.651 0 0 1-.459-.189l-2.562 2.456z"/><path fill="#C6A230" d="M272.074 197.975a.552.552 0 0 1 .392-.163h21.016c.151 0 .288.061.388.159l-2.562 2.456a.653.653 0 0 0-.459-.189h-15.75a.652.652 0 0 0-.463.193l-2.562-2.456z"/><path fill="#9E9F7F" d="M274.641 224.821a.656.656 0 0 1-.197-.468v-8.25c0-.18.074-.345.193-.463l-2.557-2.46-.004.003a.552.552 0 0 0-.163.392v13.307c0 .154.064.294.167.395l2.561-2.456zM291.314 224.817a.654.654 0 0 0 .193-.463v-8.25a.657.657 0 0 0-.197-.468l2.562-2.456a.551.551 0 0 1 .166.395v13.307a.552.552 0 0 1-.163.392l-.004.003-2.562-2.456"/><path fill="#B2AF90" d="M272.079 227.277c.1.099.238.16.388.16h21.016a.552.552 0 0 0 .392-.163l-2.561-2.457a.655.655 0 0 1-.464.193H275.1a.651.651 0 0 1-.459-.189l-2.562 2.456z"/><path fill="#98977B" d="M272.076 213.183a.552.552 0 0 1 .392-.163h21.016c.151 0 .288.061.388.159l-2.562 2.456a.653.653 0 0 0-.459-.189h-15.75a.652.652 0 0 0-.463.193l-2.562-2.456zM272.055 150.707a.527.527 0 0 1 .392-.182h21.016c.151 0 .288.068.388.178l-2.562 2.74a.622.622 0 0 0-.459-.21h-15.75a.62.62 0 0 0-.463.215l-2.562-2.741z"/><path fill="#A67B1D" d="M271.892 154.191h2.529v8.75h-2.529zM291.486 162.941h2.531v-8.75h-2.533v8.75"/><path fill="#9E9F7F" d="M291.289 153.443l2.562-2.74a.652.652 0 0 1 .167.441v3.048h-2.533v-.227a.78.78 0 0 0-.196-.522zM271.892 154.191h2.531v-.227c0-.201.074-.384.193-.517l-2.557-2.744-.004.003a.652.652 0 0 0-.163.437v3.048z"/><path fill="#B2AF90" d="M272.051 166.426a.527.527 0 0 0 .392.182h21.016a.524.524 0 0 0 .388-.178l-2.562-2.74a.622.622 0 0 1-.459.21h-15.75a.62.62 0 0 1-.463-.215l-2.562 2.741z"/><path fill="#9E9F7F" d="M291.285 163.69l2.562 2.74a.651.651 0 0 0 .166-.441v-3.048h-2.533v.227a.774.774 0 0 1-.195.522zM271.888 162.941h2.531v.227c0 .201.074.384.193.517l-2.557 2.744-.004-.003a.652.652 0 0 1-.163-.437v-3.048z"/><path fill="#A88126" d="M274.619 153.445a.77.77 0 0 0-.197.522v9.204c0 .201.074.384.193.517l-.002-.002a.622.622 0 0 0 .464.215h15.77c.179 0 .341-.08.46-.21l.008-.004a.775.775 0 0 0 .193-.517v-9.204a.776.776 0 0 0-.197-.522h-.002a.622.622 0 0 0-.46-.21h-15.77a.622.622 0 0 0-.464.215"/><path fill="#A79F7F" d="M291.484 154.191v-.227a.776.776 0 0 0-.197-.522.622.622 0 0 0-.459-.21h-15.75a.623.623 0 0 0-.464.215.775.775 0 0 0-.193.517v.227h17.063zM291.486 162.941h-17.064v.227c0 .204.076.389.197.522.119.13.281.211.459.211h15.75c.18 0 .345-.082.463-.215s.193-.316.193-.517v-.227"/><g fill="#3A3A3C"><path d="M277.517 157.723c.137.084.336.154.545.154.312 0 .493-.164.493-.402 0-.22-.126-.346-.444-.468-.384-.136-.622-.335-.622-.667 0-.367.305-.64.762-.64.241 0 .416.056.521.115l-.084.248a.937.937 0 0 0-.447-.112c-.322 0-.444.192-.444.353 0 .22.144.329.469.454.398.154.601.346.601.692 0 .363-.269.678-.824.678-.228 0-.476-.066-.602-.15l.076-.255zM279.774 158.094v-1l-.744-1.355h.346l.332.65c.091.178.16.321.233.485h.008c.066-.153.146-.307.237-.485l.339-.65h.346l-.789 1.352v1.003h-.308zM281.021 157.723c.137.084.336.154.545.154.312 0 .493-.164.493-.402 0-.22-.126-.346-.444-.468-.384-.136-.622-.335-.622-.667 0-.367.305-.64.762-.64.241 0 .416.056.521.115l-.084.248a.937.937 0 0 0-.447-.112c-.322 0-.444.192-.444.353 0 .22.144.329.469.454.398.154.601.346.601.692 0 .363-.269.678-.824.678-.228 0-.476-.066-.602-.15l.076-.255zM283.2 155.997h-.717v-.258h1.744v.258h-.72v2.097h-.307v-2.097zM285.677 156.99h-.916v.849h1.021v.255h-1.324v-2.355h1.271v.255h-.968v.744h.916v.252zM288.128 157.06a16.598 16.598 0 0 1-.034-1.017h-.011c-.08.276-.179.57-.297.895l-.416 1.143h-.23l-.381-1.122a10.37 10.37 0 0 1-.272-.916h-.008c-.007.293-.024.688-.045 1.042l-.063 1.01h-.29l.164-2.355h.388l.401 1.139c.099.29.179.548.238.793h.01c.06-.238.144-.496.248-.793l.42-1.139h.388l.146 2.355h-.297l-.059-1.035zM278.905 158.77c.153-.031.374-.049.583-.049.325 0 .535.06.682.192a.584.584 0 0 1 .186.447c0 .311-.196.517-.444.601v.011c.183.063.29.23.347.475.076.329.133.556.182.646h-.314c-.039-.066-.091-.269-.157-.563-.07-.325-.196-.447-.472-.458h-.287v1.021h-.304v-2.323zm.303 1.073h.312c.324 0 .531-.178.531-.447 0-.304-.221-.437-.542-.44a1.26 1.26 0 0 0-.301.028v.859zM281.972 159.99h-.916v.849h1.021v.255h-1.324v-2.355h1.271v.255h-.968v.744h.916v.252zM282.398 160.723c.137.084.336.154.545.154.312 0 .493-.164.493-.402 0-.22-.126-.346-.444-.468-.384-.136-.622-.335-.622-.667 0-.367.305-.64.762-.64.241 0 .416.056.521.115l-.084.248a.937.937 0 0 0-.447-.112c-.322 0-.444.192-.444.353 0 .22.144.329.469.454.398.154.601.346.601.692 0 .363-.269.678-.824.678-.228 0-.476-.066-.602-.15l.076-.255zM285.35 159.99h-.916v.849h1.021v.255h-1.324v-2.355h1.271v.255h-.968v.744h.916v.252zM286.321 158.997h-.717v-.258h1.744v.258h-.72v2.097h-.308v-2.097z"/></g><path fill="#CFD3C4" d="M42.779.278l4.597-.011A3307.383 3307.383 0 0 0 37.21 114.188h-4.583c-19.688 12.688-25.083 13.667-26.438 25.375L.255 243.688C.036 199.563-.549 165.771 1.398 111.5 2.767 73.355 5.208 39.897 7.113 4.095c0-2.058 1.711-3.741 3.801-3.741L42.779.278z"/><linearGradient id="b" gradientUnits="userSpaceOnUse" x1="32.613" y1="57.227" x2="47.375" y2="57.227"><stop offset="0" stop-color="#daddd0"/><stop offset=".064" stop-color="#d7dacd"/><stop offset=".311" stop-color="#d1d5c6"/><stop offset="1" stop-color="#cfd3c4"/></linearGradient><path fill="url(#b)" d="M47.375.267a3307.383 3307.383 0 0 0-10.166 113.921h-4.596A3304.241 3304.241 0 0 1 42.779.278l4.596-.011z"/><path fill="#BF9438" d="M290.929 179.385h-15.928a.58.58 0 0 1-.578-.578v-8.406a.58.58 0 0 1 .578-.578h15.928a.58.58 0 0 1 .578.578v8.406a.58.58 0 0 1-.578.578z"/><g fill="#3A3A3C"><path d="M279.79 174.45c0 .698-.424 1.067-.941 1.067-.534 0-.91-.415-.91-1.028 0-.643.399-1.064.94-1.064.554 0 .911.424.911 1.025zm-1.572.033c0 .433.234.821.646.821.415 0 .649-.382.649-.842 0-.403-.211-.824-.646-.824-.432.001-.649.401-.649.845zM280.189 173.482c.126-.021.292-.039.502-.039.259 0 .448.06.568.168a.544.544 0 0 1 .177.424.598.598 0 0 1-.156.433c-.138.147-.363.223-.619.223a.898.898 0 0 1-.21-.018v.812h-.262v-2.003zm.261.977a.875.875 0 0 0 .216.021c.316 0 .509-.153.509-.433 0-.268-.189-.396-.479-.396-.114 0-.201.009-.246.021v.787zM282.233 173.681h-.616v-.222h1.5v.222h-.619v1.804h-.265v-1.804zM283.663 173.459v2.026h-.262v-2.026h.262zM285.913 174.45c0 .698-.424 1.067-.941 1.067-.534 0-.91-.415-.91-1.028 0-.643.399-1.064.94-1.064.554 0 .911.424.911 1.025zm-1.572.033c0 .433.234.821.646.821.415 0 .649-.382.649-.842 0-.403-.211-.824-.646-.824-.432.001-.649.401-.649.845zM286.312 175.484v-2.026h.285l.649 1.025c.15.237.268.451.364.658l.006-.003a9.036 9.036 0 0 1-.03-.833v-.848h.246v2.026h-.264l-.644-1.028a6.454 6.454 0 0 1-.379-.677l-.009.003c.015.255.021.499.021.835v.866h-.245z"/></g><path fill="#EBD335" d="M290.918 194.594H274.99a.58.58 0 0 1-.578-.578v-8.406a.58.58 0 0 1 .578-.578h15.928a.58.58 0 0 1 .578.578v8.406a.58.58 0 0 1-.578.578zM290.956 209.801h-15.928a.58.58 0 0 1-.578-.578v-8.406a.58.58 0 0 1 .578-.578h15.928a.58.58 0 0 1 .578.578v8.406a.58.58 0 0 1-.578.578z"/><path fill="#A79F7F" d="M290.956 225.01h-15.928a.58.58 0 0 1-.578-.578v-8.406a.58.58 0 0 1 .578-.578h15.928a.58.58 0 0 1 .578.578v8.406a.58.58 0 0 1-.578.578z"/><path fill="#30302F" d="M288.086 221.756h-10.223a.045.045 0 0 1-.045-.045v-2.973c0-.025.02-.045.045-.045h10.223c.025 0 .045.02.045.045v2.973a.046.046 0 0 1-.045.045z"/><g fill="#AA1400"><path d="M279.115 220.225h-.531a.769.769 0 0 1-.766-.766c0-.421.345-.766.766-.766h.531c.421 0 .766.345.766.766a.769.769 0 0 1-.766.766z"/><path d="M281.177 220.225h-.531a.769.769 0 0 1-.766-.766c0-.421.345-.766.766-.766h.531c.421 0 .766.345.766.766a.768.768 0 0 1-.766.766z"/><path d="M283.239 220.225h-.531a.769.769 0 0 1-.766-.766c0-.421.345-.766.766-.766h.531c.421 0 .766.345.766.766a.767.767 0 0 1-.766.766zM285.302 220.225h-.531a.769.769 0 0 1-.766-.766c0-.421.345-.766.766-.766h.531c.421 0 .766.345.766.766a.768.768 0 0 1-.766.766z"/><path d="M287.364 220.225h-.531a.769.769 0 0 1-.766-.766c0-.421.345-.766.766-.766h.531c.421 0 .766.345.766.766a.767.767 0 0 1-.766.766zM279.115 221.756h-.531a.769.769 0 0 1-.766-.766c0-.421.345-.766.766-.766h.531c.421 0 .766.345.766.766a.769.769 0 0 1-.766.766z"/><path d="M281.177 221.756h-.531a.769.769 0 0 1-.766-.766c0-.421.345-.766.766-.766h.531c.421 0 .766.345.766.766a.768.768 0 0 1-.766.766z"/><path d="M283.239 221.756h-.531a.769.769 0 0 1-.766-.766c0-.421.345-.766.766-.766h.531c.421 0 .766.345.766.766a.767.767 0 0 1-.766.766zM285.302 221.756h-.531a.769.769 0 0 1-.766-.766c0-.421.345-.766.766-.766h.531c.421 0 .766.345.766.766a.768.768 0 0 1-.766.766z"/><path d="M287.364 221.756h-.531a.769.769 0 0 1-.766-.766c0-.421.345-.766.766-.766h.531c.421 0 .766.345.766.766a.767.767 0 0 1-.766.766z"/></g><g fill="#3A3A3C"><path d="M277.687 190.469c.137.084.336.154.545.154.312 0 .493-.164.493-.402 0-.22-.126-.346-.444-.468-.384-.136-.622-.335-.622-.667 0-.367.305-.64.762-.64.241 0 .416.056.521.115l-.084.248a.937.937 0 0 0-.447-.112c-.322 0-.444.192-.444.353 0 .22.144.329.469.454.398.154.601.346.601.692 0 .363-.269.678-.824.678-.228 0-.476-.066-.602-.15l.076-.255zM280.73 189.735h-.916v.849h1.021v.255h-1.324v-2.355h1.271v.255h-.968v.744h.916v.252zM281.288 188.484h.304v2.1h1.007v.255h-1.311v-2.355zM284.216 189.735h-.916v.849h1.021v.255h-1.324v-2.355h1.271v.255h-.968v.744h.916v.252zM286.419 190.763c-.111.056-.335.112-.622.112-.664 0-1.163-.419-1.163-1.192 0-.737.499-1.237 1.229-1.237.294 0 .479.063.56.105l-.073.248a1.107 1.107 0 0 0-.476-.098c-.552 0-.919.353-.919.972 0 .577.332.947.905.947.185 0 .374-.039.496-.098l.063.241zM287.406 188.743h-.717v-.258h1.744v.258h-.72v2.097h-.308v-2.097z"/></g><g fill="#3A3A3C"><path d="M278.749 205.582a.929.929 0 0 0 .469.132c.268 0 .424-.141.424-.346 0-.189-.108-.297-.382-.403-.33-.117-.535-.289-.535-.574 0-.316.262-.55.655-.55a.92.92 0 0 1 .448.099l-.072.213a.807.807 0 0 0-.385-.096c-.276 0-.382.166-.382.304 0 .189.123.283.403.391.343.132.517.298.517.595 0 .313-.231.583-.709.583-.195 0-.409-.057-.518-.129l.067-.219zM280.874 204.097h-.616v-.222h1.5v.222h-.619v1.804h-.265v-1.804zM282.308 205.263l-.21.637h-.271l.688-2.026h.315l.691 2.026h-.279l-.217-.637h-.717zm.665-.204l-.198-.583c-.046-.132-.075-.252-.105-.37h-.006c-.03.12-.063.243-.103.367l-.198.586h.61zM284.041 203.901c.132-.027.321-.042.502-.042.279 0 .46.051.586.166a.5.5 0 0 1 .159.385.532.532 0 0 1-.382.517v.009c.157.054.25.198.298.409.066.283.114.478.156.556h-.271c-.033-.057-.078-.231-.135-.484-.061-.28-.169-.385-.406-.394h-.246v.878h-.262v-2zm.262.923h.268c.279 0 .457-.153.457-.385 0-.262-.189-.375-.467-.379-.126 0-.216.012-.258.024v.74zM286.292 204.097h-.616v-.222h1.5v.222h-.619v1.804h-.265v-1.804z"/></g><path fill="#111207" d="M30.754 183.867v30.408c0 .314.254.568.568.568l36.154.008c.314 0 .568.254.568.568v14.323c0 .314.254.568.568.568h139.365a.568.568 0 0 0 .568-.568v-14.323c0-.314.254-.568.568-.568l44.419-.008a.568.568 0 0 0 .568-.568v-30.408c0-.314.254-.568.568-.568l2.148.008a.568.568 0 0 0 .568-.568v-30.5a.568.568 0 0 0-.568-.568l-230.417-.01a.568.568 0 0 0-.568.568v30.5c0 .314.254.568.568.568l3.789.003a.566.566 0 0 1 .566.567z"/><path fill="#323232" d="M40.501 166.99H26.71a.314.314 0 0 1-.313-.313v-14.125c0-.172.141-.313.313-.313h13.792c.172 0 .313.141.313.313v14.125a.316.316 0 0 1-.314.313zM55.918 166.99H42.126a.314.314 0 0 1-.313-.313v-14.125c0-.172.141-.313.313-.313h13.792c.172 0 .313.141.313.313v14.125a.315.315 0 0 1-.313.313zM71.335 166.99H57.543a.314.314 0 0 1-.313-.313v-14.125c0-.172.141-.313.313-.313h13.792c.172 0 .313.141.313.313v14.125a.315.315 0 0 1-.313.313zM86.751 166.99H72.96a.314.314 0 0 1-.313-.313v-14.125c0-.172.141-.313.313-.313h13.792c.172 0 .313.141.313.313v14.125a.316.316 0 0 1-.314.313zM102.335 166.99H88.543a.314.314 0 0 1-.313-.313v-14.125c0-.172.141-.313.313-.313h13.792c.172 0 .313.141.313.313v14.125a.315.315 0 0 1-.313.313zM117.751 166.99H103.96a.314.314 0 0 1-.313-.313v-14.125c0-.172.141-.313.313-.313h13.792c.172 0 .313.141.313.313v14.125a.316.316 0 0 1-.314.313zM133.168 166.99h-13.792a.314.314 0 0 1-.313-.313v-14.125c0-.172.141-.313.313-.313h13.792c.172 0 .313.141.313.313v14.125a.315.315 0 0 1-.313.313zM148.585 166.99h-13.792a.314.314 0 0 1-.313-.313v-14.125c0-.172.141-.313.313-.313h13.792c.172 0 .313.141.313.313v14.125a.315.315 0 0 1-.313.313zM164.001 166.99H150.21a.314.314 0 0 1-.313-.313v-14.125c0-.172.141-.313.313-.313h13.792c.172 0 .313.141.313.313v14.125a.316.316 0 0 1-.314.313zM179.418 166.99h-13.792a.314.314 0 0 1-.313-.313v-14.125c0-.172.141-.313.313-.313h13.792c.172 0 .313.141.313.313v14.125a.315.315 0 0 1-.313.313zM194.835 166.99h-13.792a.314.314 0 0 1-.313-.313v-14.125c0-.172.141-.313.313-.313h13.792c.172 0 .313.141.313.313v14.125a.315.315 0 0 1-.313.313zM210.251 166.99H196.46a.314.314 0 0 1-.313-.313v-14.125c0-.172.141-.313.313-.313h13.792c.172 0 .313.141.313.313v14.125a.316.316 0 0 1-.314.313zM225.668 166.99h-13.792a.314.314 0 0 1-.313-.313v-14.125c0-.172.141-.313.313-.313h13.792c.172 0 .313.141.313.313v14.125a.315.315 0 0 1-.313.313zM241.085 166.99h-13.792a.314.314 0 0 1-.313-.313v-14.125c0-.172.141-.313.313-.313h13.792c.172 0 .313.141.313.313v14.125a.315.315 0 0 1-.313.313zM256.501 166.99H242.71a.314.314 0 0 1-.313-.313v-14.125c0-.172.141-.313.313-.313h13.792c.172 0 .313.141.313.313v14.125a.316.316 0 0 1-.314.313zM63.126 182.74H49.335a.314.314 0 0 1-.313-.313v-14.125c0-.172.141-.313.313-.313h13.792c.172 0 .313.141.313.313v14.125a.316.316 0 0 1-.314.313zM78.543 182.74H64.751a.314.314 0 0 1-.313-.313v-14.125c0-.172.141-.313.313-.313h13.792c.172 0 .313.141.313.313v14.125a.315.315 0 0 1-.313.313z"/><path fill="#40403E" d="M74.626 180.635h-5.958a2.299 2.299 0 0 1-2.292-2.292v-5.958a2.299 2.299 0 0 1 2.292-2.292h5.958a2.299 2.299 0 0 1 2.292 2.292v5.958a2.298 2.298 0 0 1-2.292 2.292z"/><path fill="#323232" d="M93.96 182.74H80.168a.314.314 0 0 1-.313-.313v-14.125c0-.172.141-.313.313-.313H93.96c.172 0 .313.141.313.313v14.125a.315.315 0 0 1-.313.313z"/><path fill="#40403E" d="M90.043 180.635h-5.958a2.299 2.299 0 0 1-2.292-2.292v-5.958a2.299 2.299 0 0 1 2.292-2.292h5.958a2.299 2.299 0 0 1 2.292 2.292v5.958a2.299 2.299 0 0 1-2.292 2.292z"/><path fill="#323232" d="M109.376 182.74H95.585a.314.314 0 0 1-.313-.313v-14.125c0-.172.141-.313.313-.313h13.792c.172 0 .313.141.313.313v14.125a.316.316 0 0 1-.314.313z"/><path fill="#40403E" d="M105.46 180.635h-5.958a2.299 2.299 0 0 1-2.292-2.292v-5.958a2.299 2.299 0 0 1 2.292-2.292h5.958a2.299 2.299 0 0 1 2.292 2.292v5.958a2.3 2.3 0 0 1-2.292 2.292z"/><path fill="#323232" d="M124.96 182.74h-13.792a.314.314 0 0 1-.313-.313v-14.125c0-.172.141-.313.313-.313h13.792c.172 0 .313.141.313.313v14.125a.315.315 0 0 1-.313.313z"/><path fill="#40403E" d="M121.043 180.635h-5.958a2.299 2.299 0 0 1-2.292-2.292v-5.958a2.299 2.299 0 0 1 2.292-2.292h5.958a2.299 2.299 0 0 1 2.292 2.292v5.958a2.299 2.299 0 0 1-2.292 2.292z"/><path fill="#323232" d="M140.376 182.74h-13.792a.314.314 0 0 1-.313-.313v-14.125c0-.172.141-.313.313-.313h13.792c.172 0 .313.141.313.313v14.125a.314.314 0 0 1-.313.313z"/><path fill="#40403E" d="M136.46 180.635h-5.958a2.299 2.299 0 0 1-2.292-2.292v-5.958a2.299 2.299 0 0 1 2.292-2.292h5.958a2.299 2.299 0 0 1 2.292 2.292v5.958a2.3 2.3 0 0 1-2.292 2.292z"/><path fill="#323232" d="M155.793 182.74h-13.792a.314.314 0 0 1-.313-.313v-14.125c0-.172.141-.313.313-.313h13.792c.172 0 .313.141.313.313v14.125a.315.315 0 0 1-.313.313z"/><path fill="#40403E" d="M151.876 180.635h-5.958a2.299 2.299 0 0 1-2.292-2.292v-5.958a2.299 2.299 0 0 1 2.292-2.292h5.958a2.299 2.299 0 0 1 2.292 2.292v5.958a2.298 2.298 0 0 1-2.292 2.292z"/><path fill="#323232" d="M171.21 182.74h-13.792a.314.314 0 0 1-.313-.313v-14.125c0-.172.141-.313.313-.313h13.792c.172 0 .313.141.313.313v14.125a.315.315 0 0 1-.313.313z"/><path fill="#40403E" d="M167.293 180.635h-5.958a2.299 2.299 0 0 1-2.292-2.292v-5.958a2.299 2.299 0 0 1 2.292-2.292h5.958a2.299 2.299 0 0 1 2.292 2.292v5.958a2.299 2.299 0 0 1-2.292 2.292z"/><path fill="#323232" d="M186.626 182.74h-13.792a.314.314 0 0 1-.313-.313v-14.125c0-.172.141-.313.313-.313h13.792c.172 0 .313.141.313.313v14.125a.314.314 0 0 1-.313.313z"/><path fill="#40403E" d="M182.71 180.635h-5.958a2.299 2.299 0 0 1-2.292-2.292v-5.958a2.299 2.299 0 0 1 2.292-2.292h5.958a2.299 2.299 0 0 1 2.292 2.292v5.958a2.3 2.3 0 0 1-2.292 2.292z"/><path fill="#323232" d="M202.043 182.74h-13.792a.314.314 0 0 1-.313-.313v-14.125c0-.172.141-.313.313-.313h13.792c.172 0 .313.141.313.313v14.125a.315.315 0 0 1-.313.313zM217.46 182.74h-13.792a.314.314 0 0 1-.313-.313v-14.125c0-.172.141-.313.313-.313h13.792c.172 0 .313.141.313.313v14.125a.315.315 0 0 1-.313.313zM232.876 182.74h-13.792a.314.314 0 0 1-.313-.313v-14.125c0-.172.141-.313.313-.313h13.792c.172 0 .313.141.313.313v14.125a.314.314 0 0 1-.313.313zM256.422 182.74H234.58a.392.392 0 0 1-.391-.391v-13.967c0-.215.176-.391.391-.391h21.842c.215 0 .391.176.391.391v13.967a.392.392 0 0 1-.391.391zM47.639 182.74H26.78a.384.384 0 0 1-.383-.383v-13.985c0-.21.172-.383.383-.383h20.86c.211 0 .383.172.383.383v13.985a.386.386 0 0 1-.384.383zM68.051 198.49H54.259a.314.314 0 0 1-.313-.313v-14.125c0-.172.141-.313.313-.313h13.792c.172 0 .313.141.313.313v14.125a.315.315 0 0 1-.313.313z"/><path fill="#40403E" d="M64.134 196.385h-5.958a2.299 2.299 0 0 1-2.292-2.292v-5.958a2.299 2.299 0 0 1 2.292-2.292h5.958a2.299 2.299 0 0 1 2.292 2.292v5.958a2.299 2.299 0 0 1-2.292 2.292z"/><path fill="#323232" d="M83.467 198.49H69.676a.314.314 0 0 1-.313-.313v-14.125c0-.172.141-.313.313-.313h13.792c.172 0 .313.141.313.313v14.125a.316.316 0 0 1-.314.313z"/><path fill="#40403E" d="M79.551 196.385h-5.958a2.299 2.299 0 0 1-2.292-2.292v-5.958a2.299 2.299 0 0 1 2.292-2.292h5.958a2.299 2.299 0 0 1 2.292 2.292v5.958a2.3 2.3 0 0 1-2.292 2.292z"/><path fill="#323232" d="M98.884 198.49H85.092a.314.314 0 0 1-.313-.313v-14.125c0-.172.141-.313.313-.313h13.792c.172 0 .313.141.313.313v14.125a.314.314 0 0 1-.313.313z"/><path fill="#40403E" d="M94.967 196.385h-5.958a2.299 2.299 0 0 1-2.292-2.292v-5.958a2.299 2.299 0 0 1 2.292-2.292h5.958a2.299 2.299 0 0 1 2.292 2.292v5.958a2.298 2.298 0 0 1-2.292 2.292z"/><path fill="#323232" d="M114.301 198.49h-13.792a.314.314 0 0 1-.313-.313v-14.125c0-.172.141-.313.313-.313h13.792c.172 0 .313.141.313.313v14.125a.315.315 0 0 1-.313.313z"/><path fill="#40403E" d="M110.384 196.385h-5.958a2.299 2.299 0 0 1-2.292-2.292v-5.958a2.299 2.299 0 0 1 2.292-2.292h5.958a2.299 2.299 0 0 1 2.292 2.292v5.958a2.299 2.299 0 0 1-2.292 2.292z"/><path fill="#323232" d="M129.884 198.49h-13.792a.314.314 0 0 1-.313-.313v-14.125c0-.172.141-.313.313-.313h13.792c.172 0 .313.141.313.313v14.125a.314.314 0 0 1-.313.313z"/><path fill="#40403E" d="M125.967 196.385h-5.958a2.299 2.299 0 0 1-2.292-2.292v-5.958a2.299 2.299 0 0 1 2.292-2.292h5.958a2.299 2.299 0 0 1 2.292 2.292v5.958a2.298 2.298 0 0 1-2.292 2.292z"/><path fill="#323232" d="M145.301 198.49h-13.792a.314.314 0 0 1-.313-.313v-14.125c0-.172.141-.313.313-.313h13.792c.172 0 .313.141.313.313v14.125a.315.315 0 0 1-.313.313z"/><path fill="#40403E" d="M141.384 196.385h-5.958a2.299 2.299 0 0 1-2.292-2.292v-5.958a2.299 2.299 0 0 1 2.292-2.292h5.958a2.299 2.299 0 0 1 2.292 2.292v5.958a2.299 2.299 0 0 1-2.292 2.292z"/><path fill="#323232" d="M160.717 198.49h-13.792a.314.314 0 0 1-.313-.313v-14.125c0-.172.141-.313.313-.313h13.792c.172 0 .313.141.313.313v14.125a.314.314 0 0 1-.313.313z"/><path fill="#40403E" d="M156.801 196.385h-5.958a2.299 2.299 0 0 1-2.292-2.292v-5.958a2.299 2.299 0 0 1 2.292-2.292h5.958a2.299 2.299 0 0 1 2.292 2.292v5.958a2.3 2.3 0 0 1-2.292 2.292z"/><path fill="#323232" d="M176.134 198.49h-13.792a.314.314 0 0 1-.313-.313v-14.125c0-.172.141-.313.313-.313h13.792c.172 0 .313.141.313.313v14.125a.314.314 0 0 1-.313.313z"/><path fill="#40403E" d="M172.217 196.385h-5.958a2.299 2.299 0 0 1-2.292-2.292v-5.958a2.299 2.299 0 0 1 2.292-2.292h5.958a2.299 2.299 0 0 1 2.292 2.292v5.958a2.298 2.298 0 0 1-2.292 2.292z"/><path fill="#323232" d="M191.551 198.49h-13.792a.314.314 0 0 1-.313-.313v-14.125c0-.172.141-.313.313-.313h13.792c.172 0 .313.141.313.313v14.125a.315.315 0 0 1-.313.313z"/><path fill="#40403E" d="M187.634 196.385h-5.958a2.299 2.299 0 0 1-2.292-2.292v-5.958a2.299 2.299 0 0 1 2.292-2.292h5.958a2.299 2.299 0 0 1 2.292 2.292v5.958a2.299 2.299 0 0 1-2.292 2.292z"/><path fill="#323232" d="M206.967 198.49h-13.792a.314.314 0 0 1-.313-.313v-14.125c0-.172.141-.313.313-.313h13.792c.172 0 .313.141.313.313v14.125a.314.314 0 0 1-.313.313zM222.384 198.49h-13.792a.314.314 0 0 1-.313-.313v-14.125c0-.172.141-.313.313-.313h13.792c.172 0 .313.141.313.313v14.125a.314.314 0 0 1-.313.313zM237.801 198.49h-13.792a.314.314 0 0 1-.313-.313v-14.125c0-.172.141-.313.313-.313h13.792c.172 0 .313.141.313.313v14.125a.315.315 0 0 1-.313.313zM253.217 198.49h-13.792a.314.314 0 0 1-.313-.313v-14.125c0-.172.141-.313.313-.313h13.792c.172 0 .313.141.313.313v14.125a.314.314 0 0 1-.313.313zM52.564 198.49h-20.86a.384.384 0 0 1-.383-.383v-13.985c0-.21.172-.383.383-.383h20.86c.211 0 .383.172.383.383v13.985c0 .21-.173.383-.383.383zM76.814 214.275H63.022a.314.314 0 0 1-.313-.313v-14.125c0-.172.141-.313.313-.313h13.792c.172 0 .313.141.313.313v14.125a.314.314 0 0 1-.313.313z"/><path fill="#40403E" d="M72.898 212.171h-5.961a2.297 2.297 0 0 1-2.29-2.29v-5.961c0-1.26 1.031-2.29 2.29-2.29h5.961c1.26 0 2.29 1.031 2.29 2.29v5.961a2.295 2.295 0 0 1-2.29 2.29z"/><path fill="#323232" d="M92.23 214.275H78.439a.314.314 0 0 1-.313-.313v-14.125c0-.172.141-.313.313-.313H92.23c.172 0 .313.141.313.313v14.125a.313.313 0 0 1-.313.313z"/><path fill="#40403E" d="M88.314 212.171h-5.958a2.299 2.299 0 0 1-2.292-2.292v-5.958a2.299 2.299 0 0 1 2.292-2.292h5.958a2.299 2.299 0 0 1 2.292 2.292v5.958a2.3 2.3 0 0 1-2.292 2.292z"/><path fill="#323232" d="M107.647 214.275H93.855a.314.314 0 0 1-.313-.313v-14.125c0-.172.141-.313.313-.313h13.792c.172 0 .313.141.313.313v14.125a.313.313 0 0 1-.313.313z"/><path fill="#40403E" d="M103.73 212.171h-5.958a2.299 2.299 0 0 1-2.292-2.292v-5.958a2.299 2.299 0 0 1 2.292-2.292h5.958a2.299 2.299 0 0 1 2.292 2.292v5.958a2.298 2.298 0 0 1-2.292 2.292z"/><path fill="#323232" d="M123.064 214.275h-13.792a.314.314 0 0 1-.313-.313v-14.125c0-.172.141-.313.313-.313h13.792c.172 0 .313.141.313.313v14.125a.314.314 0 0 1-.313.313z"/><path fill="#40403E" d="M119.147 212.171h-5.958a2.299 2.299 0 0 1-2.292-2.292v-5.958a2.299 2.299 0 0 1 2.292-2.292h5.958a2.299 2.299 0 0 1 2.292 2.292v5.958a2.299 2.299 0 0 1-2.292 2.292z"/><path fill="#323232" d="M138.647 214.275h-13.792a.314.314 0 0 1-.313-.313v-14.125c0-.172.141-.313.313-.313h13.792c.172 0 .313.141.313.313v14.125a.313.313 0 0 1-.313.313z"/><path fill="#40403E" d="M134.73 212.171h-5.958a2.299 2.299 0 0 1-2.292-2.292v-5.958a2.299 2.299 0 0 1 2.292-2.292h5.958a2.299 2.299 0 0 1 2.292 2.292v5.958a2.298 2.298 0 0 1-2.292 2.292z"/><path fill="#323232" d="M154.064 214.275h-13.792a.314.314 0 0 1-.313-.313v-14.125c0-.172.141-.313.313-.313h13.792c.172 0 .313.141.313.313v14.125a.314.314 0 0 1-.313.313z"/><path fill="#40403E" d="M150.147 212.171h-5.958a2.299 2.299 0 0 1-2.292-2.292v-5.958a2.299 2.299 0 0 1 2.292-2.292h5.958a2.299 2.299 0 0 1 2.292 2.292v5.958a2.298 2.298 0 0 1-2.292 2.292z"/><path fill="#323232" d="M169.48 214.275h-13.792a.314.314 0 0 1-.313-.313v-14.125c0-.172.141-.313.313-.313h13.792c.172 0 .313.141.313.313v14.125a.313.313 0 0 1-.313.313z"/><path fill="#40403E" d="M165.564 212.171h-5.958a2.299 2.299 0 0 1-2.292-2.292v-5.958a2.299 2.299 0 0 1 2.292-2.292h5.958a2.299 2.299 0 0 1 2.292 2.292v5.958a2.3 2.3 0 0 1-2.292 2.292z"/><path fill="#323232" d="M184.897 214.275h-13.792a.314.314 0 0 1-.313-.313v-14.125c0-.172.141-.313.313-.313h13.792c.172 0 .313.141.313.313v14.125a.313.313 0 0 1-.313.313zM200.314 214.275h-13.792a.314.314 0 0 1-.313-.313v-14.125c0-.172.141-.313.313-.313h13.792c.172 0 .313.141.313.313v14.125a.314.314 0 0 1-.313.313zM215.73 214.275h-13.792a.314.314 0 0 1-.313-.313v-14.125c0-.172.141-.313.313-.313h13.792c.172 0 .313.141.313.313v14.125a.313.313 0 0 1-.313.313zM231.147 214.275h-13.792a.314.314 0 0 1-.313-.313v-14.125c0-.172.141-.313.313-.313h13.792c.172 0 .313.141.313.313v14.125a.313.313 0 0 1-.313.313zM61.256 214.275H31.775a.455.455 0 0 1-.454-.454v-13.843c0-.25.204-.454.454-.454h29.481c.25 0 .454.204.454.454v13.843c0 .25-.205.454-.454.454zM253.152 214.275h-20.315a.379.379 0 0 1-.378-.378v-13.994c0-.208.17-.378.378-.378h20.315c.208 0 .378.17.378.378v13.994c0 .208-.17.378-.378.378zM207.004 230.025H69.582a.975.975 0 0 1-.972-.972v-12.807c0-.534.437-.972.972-.972h137.421c.534 0 .972.437.972.972v12.807a.974.974 0 0 1-.971.972z"/><path fill="#40403E" d="M203.774 227.921H72.812a2.27 2.27 0 0 1-2.264-2.264v-6.013a2.27 2.27 0 0 1 2.264-2.264h130.961a2.27 2.27 0 0 1 2.264 2.264v6.013a2.27 2.27 0 0 1-2.263 2.264zM36.585 164.885h-5.958a2.299 2.299 0 0 1-2.292-2.292v-5.958a2.299 2.299 0 0 1 2.292-2.292h5.958a2.299 2.299 0 0 1 2.292 2.292v5.958a2.3 2.3 0 0 1-2.292 2.292zM52.001 164.885h-5.958a2.299 2.299 0 0 1-2.292-2.292v-5.958a2.299 2.299 0 0 1 2.292-2.292h5.958a2.299 2.299 0 0 1 2.292 2.292v5.958a2.298 2.298 0 0 1-2.292 2.292zM67.418 164.885H61.46a2.299 2.299 0 0 1-2.292-2.292v-5.958a2.299 2.299 0 0 1 2.292-2.292h5.958a2.299 2.299 0 0 1 2.292 2.292v5.958a2.3 2.3 0 0 1-2.292 2.292zM82.918 164.885H76.96a2.299 2.299 0 0 1-2.292-2.292v-5.958a2.299 2.299 0 0 1 2.292-2.292h5.958a2.299 2.299 0 0 1 2.292 2.292v5.958a2.299 2.299 0 0 1-2.292 2.292zM98.418 164.885H92.46a2.299 2.299 0 0 1-2.292-2.292v-5.958a2.299 2.299 0 0 1 2.292-2.292h5.958a2.299 2.299 0 0 1 2.292 2.292v5.958a2.299 2.299 0 0 1-2.292 2.292zM113.835 164.885h-5.958a2.299 2.299 0 0 1-2.292-2.292v-5.958a2.299 2.299 0 0 1 2.292-2.292h5.958a2.299 2.299 0 0 1 2.292 2.292v5.958a2.3 2.3 0 0 1-2.292 2.292zM129.251 164.885h-5.958a2.299 2.299 0 0 1-2.292-2.292v-5.958a2.299 2.299 0 0 1 2.292-2.292h5.958a2.299 2.299 0 0 1 2.292 2.292v5.958a2.298 2.298 0 0 1-2.292 2.292zM144.668 164.885h-5.958a2.299 2.299 0 0 1-2.292-2.292v-5.958a2.299 2.299 0 0 1 2.292-2.292h5.958a2.299 2.299 0 0 1 2.292 2.292v5.958a2.299 2.299 0 0 1-2.292 2.292zM160.085 164.885h-5.958a2.299 2.299 0 0 1-2.292-2.292v-5.958a2.299 2.299 0 0 1 2.292-2.292h5.958a2.299 2.299 0 0 1 2.292 2.292v5.958a2.3 2.3 0 0 1-2.292 2.292zM175.501 164.885h-5.958a2.299 2.299 0 0 1-2.292-2.292v-5.958a2.299 2.299 0 0 1 2.292-2.292h5.958a2.299 2.299 0 0 1 2.292 2.292v5.958a2.298 2.298 0 0 1-2.292 2.292zM190.918 164.885h-5.958a2.299 2.299 0 0 1-2.292-2.292v-5.958a2.299 2.299 0 0 1 2.292-2.292h5.958a2.299 2.299 0 0 1 2.292 2.292v5.958a2.299 2.299 0 0 1-2.292 2.292zM206.335 164.885h-5.958a2.299 2.299 0 0 1-2.292-2.292v-5.958a2.299 2.299 0 0 1 2.292-2.292h5.958a2.299 2.299 0 0 1 2.292 2.292v5.958a2.3 2.3 0 0 1-2.292 2.292zM221.751 164.885h-5.958a2.299 2.299 0 0 1-2.292-2.292v-5.958a2.299 2.299 0 0 1 2.292-2.292h5.958a2.299 2.299 0 0 1 2.292 2.292v5.958a2.298 2.298 0 0 1-2.292 2.292zM237.168 165.093h-5.958a2.299 2.299 0 0 1-2.292-2.292v-5.958a2.299 2.299 0 0 1 2.292-2.292h5.958a2.299 2.299 0 0 1 2.292 2.292v5.958a2.299 2.299 0 0 1-2.292 2.292zM252.585 165.093h-5.958a2.299 2.299 0 0 1-2.292-2.292v-5.958a2.299 2.299 0 0 1 2.292-2.292h5.958a2.299 2.299 0 0 1 2.292 2.292v5.958a2.3 2.3 0 0 1-2.292 2.292zM59.345 180.755h-5.958a2.299 2.299 0 0 1-2.292-2.292v-5.958a2.299 2.299 0 0 1 2.292-2.292h5.958a2.299 2.299 0 0 1 2.292 2.292v5.958a2.3 2.3 0 0 1-2.292 2.292zM180.98 212.171h-5.958a2.299 2.299 0 0 1-2.292-2.292v-5.958a2.299 2.299 0 0 1 2.292-2.292h5.958a2.299 2.299 0 0 1 2.292 2.292v5.958a2.298 2.298 0 0 1-2.292 2.292zM196.189 212.153h-5.958a2.299 2.299 0 0 1-2.292-2.292v-5.958a2.299 2.299 0 0 1 2.292-2.292h5.958a2.299 2.299 0 0 1 2.292 2.292v5.958a2.3 2.3 0 0 1-2.292 2.292zM211.814 212.153h-5.958a2.299 2.299 0 0 1-2.292-2.292v-5.958a2.299 2.299 0 0 1 2.292-2.292h5.958a2.299 2.299 0 0 1 2.292 2.292v5.958a2.3 2.3 0 0 1-2.292 2.292zM227.23 212.171h-5.958a2.299 2.299 0 0 1-2.292-2.292v-5.958a2.299 2.299 0 0 1 2.292-2.292h5.958a2.299 2.299 0 0 1 2.292 2.292v5.958a2.298 2.298 0 0 1-2.292 2.292zM248.441 212.176h-10.893a2.264 2.264 0 0 1-2.257-2.257v-6.028a2.264 2.264 0 0 1 2.257-2.257h10.893a2.264 2.264 0 0 1 2.257 2.257v6.028a2.264 2.264 0 0 1-2.257 2.257zM57.497 212.171H35.534a2.282 2.282 0 0 1-2.275-2.275v-5.992a2.282 2.282 0 0 1 2.275-2.275h21.963a2.282 2.282 0 0 1 2.275 2.275v5.992a2.282 2.282 0 0 1-2.275 2.275zM48.815 196.256H35.453a2.287 2.287 0 0 1-2.28-2.28v-5.982a2.287 2.287 0 0 1 2.28-2.28h13.361a2.287 2.287 0 0 1 2.28 2.28v5.982a2.285 2.285 0 0 1-2.279 2.28zM43.903 180.635H30.516a2.273 2.273 0 0 1-2.267-2.267v-6.008a2.273 2.273 0 0 1 2.267-2.267h13.388a2.273 2.273 0 0 1 2.267 2.267v6.008a2.275 2.275 0 0 1-2.268 2.267zM203.051 196.403h-5.958a2.299 2.299 0 0 1-2.292-2.292v-5.958a2.299 2.299 0 0 1 2.292-2.292h5.958a2.299 2.299 0 0 1 2.292 2.292v5.958a2.3 2.3 0 0 1-2.292 2.292zM252.6 180.635h-14.198a2.282 2.282 0 0 1-2.276-2.276v-5.99a2.282 2.282 0 0 1 2.276-2.276H252.6a2.282 2.282 0 0 1 2.276 2.276v5.99a2.282 2.282 0 0 1-2.276 2.276zM249.301 196.385h-5.958a2.299 2.299 0 0 1-2.292-2.292v-5.958a2.299 2.299 0 0 1 2.292-2.292h5.958a2.299 2.299 0 0 1 2.292 2.292v5.958a2.3 2.3 0 0 1-2.292 2.292zM198.126 180.755h-5.958a2.299 2.299 0 0 1-2.292-2.292v-5.958a2.299 2.299 0 0 1 2.292-2.292h5.958a2.299 2.299 0 0 1 2.292 2.292v5.958a2.298 2.298 0 0 1-2.292 2.292zM213.592 180.635h-5.958a2.299 2.299 0 0 1-2.292-2.292v-5.958a2.299 2.299 0 0 1 2.292-2.292h5.958a2.299 2.299 0 0 1 2.292 2.292v5.958a2.298 2.298 0 0 1-2.292 2.292zM228.96 180.755h-5.958a2.299 2.299 0 0 1-2.292-2.292v-5.958a2.299 2.299 0 0 1 2.292-2.292h5.958a2.299 2.299 0 0 1 2.292 2.292v5.958a2.3 2.3 0 0 1-2.292 2.292zM218.467 196.385h-5.958a2.299 2.299 0 0 1-2.292-2.292v-5.958a2.299 2.299 0 0 1 2.292-2.292h5.958a2.299 2.299 0 0 1 2.292 2.292v5.958a2.298 2.298 0 0 1-2.292 2.292zM234.043 196.37h-5.958a2.299 2.299 0 0 1-2.292-2.292v-5.958a2.299 2.299 0 0 1 2.292-2.292h5.958a2.299 2.299 0 0 1 2.292 2.292v5.958a2.3 2.3 0 0 1-2.292 2.292z"/><g><g fill="#FCFAFD"><path d="M32.198 159.545h-.788v.73h.878v.219h-1.139v-2.026h1.094v.219h-.833v.64h.788v.218zM32.814 160.176a.929.929 0 0 0 .469.132c.268 0 .424-.141.424-.346 0-.189-.108-.297-.381-.403-.331-.117-.535-.289-.535-.574 0-.316.261-.55.655-.55.208 0 .357.048.448.099l-.072.213a.807.807 0 0 0-.385-.096c-.276 0-.382.166-.382.304 0 .189.124.283.403.391.343.132.517.298.517.595 0 .313-.231.583-.709.583-.195 0-.409-.057-.517-.129l.065-.219zM35.97 160.429a1.301 1.301 0 0 1-.535.096c-.571 0-1.001-.361-1.001-1.025 0-.634.43-1.064 1.058-1.064.252 0 .412.054.481.09l-.063.213a.952.952 0 0 0-.409-.084c-.475 0-.791.304-.791.836 0 .496.286.814.778.814.16 0 .322-.033.427-.084l.055.208z"/></g><g fill="#FCFAFD"><path d="M48.733 158.342c0-.108.075-.187.177-.187.108 0 .177.078.177.187 0 .105-.069.187-.177.187-.105 0-.177-.081-.177-.187zm.075-.429l-.042-1.443h.289l-.042 1.443h-.205zM48.849 160.788h-.006l-.34.184-.051-.202.427-.229h.226v1.954h-.255v-1.707z"/></g><g fill="#FCFAFD"><path d="M63.897 157.169c.069-.252.199-.577.283-.715l.168-.018a4.115 4.115 0 0 0-.177.704l-.274.029zm.448 0a3.52 3.52 0 0 1 .279-.715l.168-.018a4.115 4.115 0 0 0-.177.704l-.27.029zM63.692 162.495v-.162l.208-.202c.499-.475.724-.728.728-1.022 0-.198-.096-.382-.388-.382a.664.664 0 0 0-.415.166l-.084-.187a.858.858 0 0 1 .553-.198c.421 0 .598.289.598.568 0 .361-.261.652-.673 1.049l-.156.144v.006h.878v.219h-1.249z"/></g><g fill="#FCFAFD"><path d="M79.36 158.495l.078-.589h-.247v-.177h.273l.057-.436h-.258v-.178h.285l.078-.574h.174l-.075.574h.313l.078-.574h.177l-.075.574h.247v.178h-.273l-.054.436h.258v.177h-.285l-.078.589h-.181l.078-.589h-.313l-.078.589h-.179zm.598-.766l.057-.436h-.313l-.057.436h.313zM79.255 162.191c.075.048.25.124.433.124.339 0 .445-.217.442-.379-.003-.273-.25-.391-.505-.391h-.147v-.199h.147c.192 0 .436-.099.436-.331 0-.156-.099-.294-.343-.294a.72.72 0 0 0-.391.129l-.069-.192a.933.933 0 0 1 .511-.15c.385 0 .559.229.559.466 0 .201-.12.373-.361.46v.006c.241.048.436.229.436.502 0 .313-.244.586-.712.586a.995.995 0 0 1-.508-.132l.072-.205z"/></g><g fill="#FCFAFD"><path d="M95.212 158.753v-.303a.88.88 0 0 1-.46-.132l.072-.202a.803.803 0 0 0 .433.129c.214 0 .358-.123.358-.294 0-.166-.117-.268-.34-.358-.307-.12-.496-.258-.496-.52 0-.25.177-.439.454-.484v-.304h.187v.292c.18.006.304.054.391.105l-.075.198a.725.725 0 0 0-.378-.102c-.231 0-.319.138-.319.258 0 .156.111.234.373.343.31.126.466.283.466.55 0 .237-.166.46-.475.511v.313h-.191zM95.51 162.495v-.532h-.908v-.174l.872-1.248h.285v1.215h.274v.207h-.274v.532h-.249zm0-.739v-.652c0-.103.003-.205.009-.307h-.009a6.027 6.027 0 0 1-.163.289l-.478.664v.006h.641z"/></g><g fill="#FCFAFD"><path d="M110.571 157.091c0 .412-.216.616-.469.616-.243 0-.454-.195-.457-.589 0-.391.213-.61.472-.61.273 0 .454.211.454.583zm-.715.018c-.006.25.087.439.252.439.174 0 .252-.187.252-.445 0-.238-.069-.436-.252-.436-.165 0-.252.196-.252.442zm.228 1.419l1.148-2.02h.168l-1.148 2.02h-.168zm1.759-.628c0 .412-.216.616-.466.616-.244 0-.454-.195-.457-.586 0-.394.213-.613.472-.613.273 0 .451.21.451.583zm-.716.018c-.003.25.093.439.255.439.174 0 .252-.187.252-.445 0-.238-.069-.436-.252-.436-.165 0-.255.195-.255.442zM111.275 160.764h-.746l-.075.502c.045-.006.087-.012.159-.012.15 0 .301.033.421.105.153.087.28.255.28.502 0 .382-.304.667-.728.667a.948.948 0 0 1-.487-.121l.066-.201c.081.048.24.108.418.108.25 0 .463-.163.463-.424-.003-.253-.171-.433-.562-.433-.111 0-.199.012-.271.021l.126-.938h.935v.224z"/></g><g fill="#FCFAFD"><path d="M126.749 158.495a7.172 7.172 0 0 1-.189-.198.83.83 0 0 1-.592.231c-.394 0-.622-.265-.622-.568 0-.276.165-.466.396-.592v-.009a.697.697 0 0 1-.168-.424c0-.247.177-.499.514-.499.253 0 .448.168.448.43 0 .213-.124.382-.445.541v.009c.171.198.364.421.493.565.093-.141.156-.336.195-.592h.241c-.054.319-.141.571-.292.749.108.114.213.229.333.358h-.312zm-.319-.349c-.12-.132-.346-.379-.571-.637-.108.069-.262.198-.262.412a.4.4 0 0 0 .415.409.566.566 0 0 0 .418-.184zm-.616-1.235c0 .144.066.255.153.364.205-.118.337-.226.337-.397 0-.123-.069-.262-.234-.262-.169 0-.256.139-.256.295zM126.64 160.728a.953.953 0 0 0-.198.012.796.796 0 0 0-.68.694h.009a.58.58 0 0 1 .472-.226c.346 0 .589.25.589.631 0 .358-.244.688-.649.688-.417 0-.691-.325-.691-.833 0-.385.138-.688.331-.88.163-.16.379-.259.625-.289.078-.012.144-.015.192-.015v.218zm-.075 1.127c0-.28-.159-.448-.403-.448-.159 0-.307.1-.379.241a.225.225 0 0 0-.03.117c.006.322.153.559.43.559.229 0 .382-.19.382-.469z"/></g><g fill="#FCFAFD"><path d="M141.986 156.412l-.367.43h-.189l.265-.43h.291zM142.21 160.541v.175l-.851 1.779h-.273l.848-1.729v-.006h-.956v-.22h1.232z"/></g><g fill="#FCFAFD"><path d="M157.462 158.688c-.165.087-.333.12-.535.12-.493 0-.91-.36-.91-.938 0-.62.43-1.154 1.097-1.154.523 0 .875.367.875.869 0 .451-.253.715-.535.715-.12 0-.231-.081-.223-.265h-.012c-.105.177-.243.265-.424.265-.175 0-.325-.142-.325-.379a.71.71 0 0 1 .713-.712c.129 0 .243.027.321.063l-.102.544c-.046.229-.01.333.09.336.153.003.324-.201.324-.55 0-.436-.261-.749-.728-.749-.489 0-.901.388-.901.998 0 .502.328.812.772.812a.937.937 0 0 0 .454-.105l.049.13zm-.165-1.299a.519.519 0 0 0-.15-.021c-.265 0-.478.25-.478.542 0 .132.065.228.198.228.174 0 .333-.222.366-.409l.064-.34zM156.334 161.999c0-.247.147-.421.388-.523l-.003-.009c-.216-.103-.31-.271-.31-.439 0-.31.262-.52.604-.52.379 0 .568.237.568.481 0 .165-.082.343-.322.457v.009c.244.096.394.268.394.505 0 .34-.291.568-.664.568-.408 0-.655-.243-.655-.529zm1.052-.012c0-.238-.165-.352-.43-.427-.229.066-.352.217-.352.403-.009.199.142.373.391.373.238 0 .391-.148.391-.349zm-.727-.977c0 .195.146.3.372.361.169-.057.298-.178.298-.355 0-.156-.093-.318-.331-.318-.218 0-.339.144-.339.312z"/></g><g fill="#FCFAFD"><path d="M172.778 156.409c-.22.294-.379.685-.379 1.229 0 .535.165.92.379 1.221h-.208a1.952 1.952 0 0 1-.394-1.221c.003-.592.205-.977.394-1.229h.208zM171.929 162.309c.057.006.123 0 .213-.009a.738.738 0 0 0 .409-.189.86.86 0 0 0 .259-.52h-.01a.571.571 0 0 1-.46.21c-.352 0-.577-.265-.577-.598 0-.37.268-.694.668-.694.399 0 .646.325.646.824 0 .43-.145.73-.337.917a.976.976 0 0 1-.568.262c-.096.015-.181.018-.243.015v-.218zm.096-1.124c0 .244.147.415.376.415a.438.438 0 0 0 .385-.204.174.174 0 0 0 .024-.096c0-.334-.124-.589-.4-.589-.226-.002-.385.197-.385.474z"/></g><g fill="#FCFAFD"><path d="M187.46 158.859a2.03 2.03 0 0 0 .379-1.229c0-.538-.162-.923-.379-1.22h.205c.192.246.394.631.394 1.223 0 .589-.201.971-.394 1.227h-.205zM188.491 161.497c0 .665-.246 1.031-.68 1.031-.382 0-.64-.358-.646-1.004 0-.656.282-1.016.679-1.016.412 0 .647.367.647.989zm-1.062.03c0 .508.157.796.397.796.271 0 .399-.315.399-.814 0-.481-.123-.797-.396-.797-.231 0-.4.283-.4.815z"/></g><g fill="#FCFAFD"><path d="M200.868 157.44c-.08.04-.24.08-.445.08-.476 0-.833-.3-.833-.853 0-.528.357-.886.881-.886.21 0 .343.045.4.075l-.053.178a.79.79 0 0 0-.34-.07c-.396 0-.658.252-.658.695 0 .413.237.678.647.678a.856.856 0 0 0 .355-.07l.046.173zM201.327 155.809h.218v1.504h.721v.183h-.938v-1.687zM203.569 156.704h-.656v.608h.731v.183h-.949v-1.687h.911v.183h-.693v.533h.656v.18zM204.385 156.965l-.175.53h-.226l.573-1.687h.263l.576 1.687h-.233l-.18-.53h-.598zm.554-.171l-.166-.485a3.689 3.689 0 0 1-.087-.308h-.005c-.025.1-.053.203-.085.306l-.166.488h.509zM205.83 155.831c.11-.022.268-.035.418-.035.232 0 .383.042.488.138a.42.42 0 0 1 .132.32c0 .223-.14.37-.317.431v.007c.13.045.208.165.248.34.055.235.095.398.13.463h-.226c-.027-.047-.064-.193-.112-.403-.05-.233-.141-.32-.338-.328h-.205v.73h-.218v-1.663zm.218.768h.223c.232 0 .38-.127.38-.32 0-.218-.157-.313-.388-.315-.104 0-.18.01-.215.02v.615zM201.619 160.443l3.249-1.674v.483l-2.738 1.373v.014l2.738 1.373v.483l-3.249-1.674v-.378z"/></g><g fill="#FCFAFD"><path d="M214.942 155.809v1.687h-.218v-1.687h.218zM215.509 157.495v-1.687h.237l.541.853c.125.198.223.375.303.548l.005-.002a7.524 7.524 0 0 1-.025-.693v-.706h.206v1.687h-.221l-.535-.856a5.265 5.265 0 0 1-.315-.563l-.008.002c.013.213.018.416.018.696v.721h-.206zM217.312 157.23c.098.06.24.11.39.11.224 0 .354-.118.354-.288 0-.158-.09-.248-.318-.335-.275-.098-.445-.24-.445-.478 0-.263.218-.458.546-.458a.76.76 0 0 1 .373.083l-.061.178a.673.673 0 0 0-.32-.08c-.23 0-.317.138-.317.253 0 .158.103.235.335.325.285.11.431.248.431.496 0 .26-.192.485-.591.485a.88.88 0 0 1-.431-.107l.054-.184zM219.635 156.704h-.656v.608h.731v.183h-.949v-1.687h.911v.183h-.693v.533h.656v.18zM220.179 155.831c.11-.022.268-.035.418-.035.232 0 .383.042.488.138a.42.42 0 0 1 .132.32c0 .223-.14.37-.317.431v.007c.13.045.208.165.248.34.055.235.095.398.13.463h-.226c-.027-.047-.064-.193-.112-.403-.05-.233-.141-.32-.338-.328h-.205v.73h-.218v-1.663zm.218.768h.223c.232 0 .38-.127.38-.32 0-.218-.157-.313-.388-.315-.104 0-.18.01-.215.02v.615zM222.054 155.994h-.513v-.185h1.248v.185h-.516v1.501h-.22v-1.501zM220.285 160.828l-3.249 1.667v-.483l2.759-1.373v-.014l-2.759-1.373v-.483l3.249 1.667v.392z"/></g><g fill="#FCFAFD"><path d="M229.889 157.039c.133-.02.29-.035.463-.035.313 0 .535.073.684.21.149.137.237.333.237.605 0 .275-.085.5-.242.656-.158.157-.418.243-.746.243-.155 0-.285-.008-.396-.02v-1.659zm.218 1.491c.055.01.135.013.22.013.466 0 .719-.26.719-.716.002-.398-.223-.65-.684-.65-.112 0-.197.01-.255.022v1.331zM232.615 157.912h-.655v.608h.73v.183h-.948v-1.687h.911v.183h-.693v.533h.655v.18zM233.159 157.016h.217v1.504h.721v.183h-.938v-1.687zM235.4 157.912h-.656v.608h.731v.183h-.948v-1.687h.91v.183h-.693v.533h.656v.18zM236.304 157.201h-.513v-.185h1.248v.185h-.515v1.501h-.221v-1.501zM238.287 157.912h-.656v.608h.731v.183h-.948v-1.687h.91v.183h-.693v.533h.656v.18zM230.09 161.039c.095-.02.245-.035.397-.035.218 0 .358.038.464.123.087.065.14.166.14.298 0 .163-.107.305-.285.371v.005c.16.04.348.173.348.423a.457.457 0 0 1-.143.338c-.117.107-.308.158-.583.158-.15 0-.266-.01-.338-.02v-1.661zm.218.69h.197c.23 0 .366-.12.366-.283 0-.198-.15-.275-.371-.275-.1 0-.157.007-.192.015v.543zm0 .809c.043.007.105.01.183.01.226 0 .433-.083.433-.328 0-.23-.197-.325-.436-.325h-.18v.643zM231.906 162.172l-.176.53h-.225l.573-1.687h.263l.575 1.687h-.232l-.181-.53h-.597zm.552-.17l-.165-.485a4.147 4.147 0 0 1-.088-.308h-.005a4.87 4.87 0 0 1-.085.306l-.165.488h.508zM234.491 162.647c-.08.04-.24.08-.445.08-.476 0-.833-.3-.833-.853 0-.528.357-.886.881-.886.21 0 .343.045.4.075l-.053.178a.795.795 0 0 0-.341-.07c-.396 0-.658.252-.658.695 0 .413.238.678.648.678a.859.859 0 0 0 .355-.07l.046.173zM234.95 161.016h.217v.813h.008a3.85 3.85 0 0 1 .133-.18l.516-.633h.271l-.611.716.658.971h-.258l-.556-.828-.16.185v.643h-.217v-1.687zM237.18 162.438c.098.06.24.11.391.11.223 0 .353-.118.353-.288 0-.158-.09-.248-.317-.335-.275-.098-.445-.24-.445-.478 0-.263.218-.458.545-.458a.76.76 0 0 1 .373.083l-.06.178a.676.676 0 0 0-.32-.08c-.23 0-.318.138-.318.253 0 .158.103.235.336.325.285.11.43.248.43.496 0 .26-.192.485-.59.485a.874.874 0 0 1-.431-.107l.053-.184z"/></g><g fill="#FCFAFD"><path d="M245.92 158.892c.095-.02.245-.035.397-.035.218 0 .357.038.463.123a.354.354 0 0 1 .141.298c0 .163-.108.305-.286.371v.005c.16.04.349.173.349.423a.457.457 0 0 1-.143.338c-.118.107-.309.158-.584.158a2.54 2.54 0 0 1-.337-.02v-1.661zm.217.691h.198c.23 0 .365-.12.365-.283 0-.198-.15-.275-.37-.275a.896.896 0 0 0-.193.015v.543zm0 .808c.043.007.105.01.184.01.225 0 .433-.083.433-.328 0-.23-.198-.325-.436-.325h-.181v.643zM247.462 158.892c.11-.022.268-.035.418-.035.232 0 .383.042.488.138a.42.42 0 0 1 .132.32c0 .223-.14.37-.317.431v.007c.13.045.208.165.248.34.055.235.095.398.13.463h-.226c-.027-.047-.064-.193-.112-.403-.05-.233-.14-.32-.338-.328h-.205v.73h-.218v-1.663zm.218.768h.223c.232 0 .381-.127.381-.32 0-.218-.158-.313-.389-.315-.104 0-.18.01-.215.02v.615zM249.868 159.765h-.656v.608h.731v.183h-.948v-1.687h.91v.183h-.693v.533h.656v.18zM250.685 160.026l-.176.53h-.225l.573-1.687h.263l.575 1.687h-.232l-.181-.53h-.597zm.553-.171l-.165-.485a4.147 4.147 0 0 1-.088-.308h-.005a4.87 4.87 0 0 1-.085.306l-.165.488h.508zM252.13 158.87h.217v.813h.008a3.85 3.85 0 0 1 .133-.18l.516-.633h.271l-.611.716.658.971h-.258l-.556-.828-.16.185v.643h-.217v-1.687z"/></g><path fill="#FCFAFD" d="M57.864 177.839a21.696 21.696 0 0 1-1.547-.468.775.775 0 0 0-.246-.06c-.959-.036-1.781-.744-1.781-2.045 0-1.295.792-2.129 1.883-2.129 1.098 0 1.811.852 1.811 2.045 0 1.038-.479 1.703-1.151 1.937v.024c.402.102.84.198 1.182.258l-.151.438zm-.433-2.633c0-.81-.419-1.643-1.277-1.643-.882 0-1.313.816-1.308 1.691-.006.857.468 1.631 1.283 1.631.835 0 1.302-.755 1.302-1.679zM69.999 177.245l-1.025-4.042h.552l.48 2.045c.12.504.228 1.008.3 1.397h.012c.066-.402.192-.881.33-1.403l.54-2.039h.546l.492 2.051c.114.479.222.959.282 1.385h.012c.084-.444.198-.894.324-1.397l.534-2.039h.534l-1.146 4.042h-.546l-.51-2.105a12.666 12.666 0 0 1-.264-1.319h-.012c-.072.402-.162.798-.312 1.319l-.576 2.105h-.547zM87.911 175.23H86.34v1.457h1.751v.438h-2.273v-4.042h2.183v.438H86.34v1.277h1.571v.432zM101.097 173.138a5.434 5.434 0 0 1 1.001-.084c.558 0 .917.102 1.169.33.204.18.318.456.318.768 0 .534-.336.888-.762 1.032v.018c.312.108.498.396.594.815.132.563.228.954.312 1.109h-.54c-.066-.114-.156-.462-.27-.965-.12-.558-.336-.768-.81-.786h-.492v1.751h-.522v-3.988zm.522 1.841h.534c.558 0 .912-.306.912-.768 0-.521-.378-.75-.93-.755-.252 0-.432.024-.516.048v1.475zM117.571 173.527h-1.229v-.444h2.992v.444h-1.235v3.598h-.528v-3.598zM132.988 177.245v-1.715l-1.277-2.327h.594l.569 1.116c.156.306.276.552.402.833h.012c.114-.264.251-.528.408-.833l.582-1.116h.594l-1.355 2.321v1.721h-.529zM147.709 173.203v2.393c0 .905.402 1.289.941 1.289.6 0 .983-.396.983-1.289v-2.393h.528v2.357c0 1.241-.654 1.751-1.529 1.751-.828 0-1.451-.474-1.451-1.727v-2.381h.528zM164.35 173.084v4.042h-.522v-4.042h.522zM181.348 175.063c0 1.391-.845 2.129-1.877 2.129-1.067 0-1.816-.828-1.816-2.051 0-1.283.798-2.123 1.877-2.123 1.103 0 1.816.845 1.816 2.045zm-3.136.065c0 .864.468 1.637 1.289 1.637.828 0 1.295-.762 1.295-1.679 0-.803-.419-1.643-1.289-1.643-.863 0-1.295.798-1.295 1.685zM183.47 188.834h.521v3.604h1.728v.438h-2.249v-4.042zM60.203 191.329l-.42 1.271h-.54l1.373-4.042h.63l1.379 4.042h-.558l-.432-1.271h-1.432zm1.326-.408l-.396-1.163c-.09-.264-.15-.504-.21-.738h-.012c-.06.24-.126.486-.204.731l-.396 1.169h1.218zM75.251 192.257c.234.144.576.264.936.264.534 0 .846-.282.846-.69 0-.378-.216-.594-.762-.803-.66-.234-1.067-.576-1.067-1.146 0-.63.521-1.098 1.307-1.098.414 0 .714.096.894.198l-.144.426a1.61 1.61 0 0 0-.768-.192c-.552 0-.761.33-.761.605 0 .378.246.563.803.78.684.264 1.032.593 1.032 1.187 0 .624-.462 1.164-1.416 1.164-.39 0-.815-.114-1.031-.258l.131-.437zM90.221 188.888a7.474 7.474 0 0 1 1.109-.084c.75 0 1.284.174 1.637.504.36.33.57.797.57 1.451 0 .66-.204 1.199-.582 1.571-.378.378-1.001.582-1.787.582-.372 0-.684-.018-.948-.048v-3.976zm.522 3.574c.132.024.324.03.528.03 1.115 0 1.721-.624 1.721-1.715.006-.954-.534-1.56-1.637-1.56-.27 0-.474.024-.612.054v3.191zM106.258 188.851h2.177v.438h-1.655v1.343h1.529v.432h-1.529v1.829h-.522v-4.042zM124.274 192.713a3.767 3.767 0 0 1-1.242.222c-.611 0-1.115-.156-1.511-.534-.348-.336-.564-.875-.564-1.505.006-1.205.833-2.087 2.189-2.087.468 0 .833.102 1.007.186l-.126.426a2.096 2.096 0 0 0-.894-.174c-.983 0-1.625.612-1.625 1.625 0 1.025.618 1.631 1.559 1.631.342 0 .576-.048.696-.108v-1.206h-.822v-.42h1.332v1.944zM137.201 188.834v1.691h1.955v-1.691h.527v4.042h-.527v-1.895h-1.955v1.895h-.522v-4.042h.522zM153.77 188.704h.522v2.705c0 1.074-.528 1.403-1.224 1.403a1.69 1.69 0 0 1-.558-.096l.078-.426c.107.042.264.078.438.078.468 0 .743-.21.743-1.001v-2.663zM167.843 188.851h.521v1.949h.019c.107-.156.216-.3.317-.432l1.235-1.518h.647l-1.463 1.715 1.577 2.327h-.618l-1.331-1.985-.384.444v1.541h-.521v-4.041zM68.214 208.337l2.243-3.28v-.018h-2.051v-.438h2.729v.318l-2.23 3.269v.018h2.261v.438h-2.951v-.307zM86.065 208.661l-.516-.894c-.21-.342-.342-.563-.468-.797h-.011c-.114.234-.228.45-.438.803l-.486.888h-.6l1.235-2.045-1.188-1.997h.607l.534.948c.15.264.264.468.372.684h.018c.114-.24.216-.426.366-.684l.552-.948h.6l-1.229 1.967 1.26 2.075h-.608zM102.025 208.511c-.192.096-.576.192-1.067.192-1.14 0-1.997-.72-1.997-2.045 0-1.265.857-2.123 2.111-2.123.504 0 .822.108.959.18l-.126.426a1.896 1.896 0 0 0-.815-.168c-.947 0-1.577.605-1.577 1.667 0 .989.57 1.625 1.553 1.625.318 0 .642-.066.852-.168l.107.414zM115.696 208.661l-1.319-4.042h.564l.629 1.991c.174.545.324 1.037.432 1.511h.012c.114-.468.282-.978.462-1.505l.684-1.997h.558l-1.445 4.042h-.577zM130.356 204.655c.228-.048.588-.084.954-.084.522 0 .857.09 1.109.294.21.156.336.396.336.713 0 .39-.258.732-.684.888v.012c.384.096.833.414.833 1.014 0 .348-.138.612-.342.81-.282.258-.738.378-1.397.378-.36 0-.635-.024-.81-.048v-3.977zm.522 1.656h.474c.552 0 .875-.288.875-.678 0-.474-.36-.66-.887-.66-.24 0-.378.018-.462.036v1.302zm0 1.936c.102.018.252.024.438.024.54 0 1.038-.198 1.038-.786 0-.552-.474-.78-1.043-.78h-.432v1.542zM145.425 208.643v-4.042h.57l1.295 2.045c.3.474.534.9.726 1.313l.012-.006c-.048-.54-.06-1.032-.06-1.661v-1.691h.492v4.042h-.528l-1.283-2.051c-.282-.45-.552-.912-.756-1.349l-.018.006c.03.51.042.996.042 1.667v1.727h-.492zM163.81 206.868a30.89 30.89 0 0 1-.061-1.745h-.018c-.138.474-.306.978-.51 1.535l-.714 1.961h-.396l-.653-1.925a18.328 18.328 0 0 1-.468-1.571h-.013a57.27 57.27 0 0 1-.077 1.787l-.108 1.733h-.498l.282-4.042h.666l.689 1.955c.168.498.306.941.407 1.361h.019c.102-.408.246-.852.426-1.361l.72-1.955h.665l.252 4.042h-.51l-.1-1.775z"/><g fill="#FCFAFD"><path d="M177.514 206.929v-3.989h.916v.275h-.575v3.438h.575v.275h-.916zM177.376 210.984c.11-.295.245-.831.3-1.196l.491-.05c-.115.426-.336.981-.476 1.216l-.315.03z"/></g><g fill="#FCFAFD"><path d="M193.323 202.917v3.994h-.915v-.275h.575v-3.443h-.575v-.275h.915zM192.765 210.09c0-.185.125-.315.3-.315.176 0 .296.13.296.315 0 .18-.115.315-.301.315-.175 0-.295-.135-.295-.315z"/></g><g fill="#FCFAFD"><path d="M208.337 205.394l-.01-.13c-.03-.271.061-.565.311-.866.225-.265.351-.46.351-.686 0-.255-.16-.425-.476-.43a.89.89 0 0 0-.506.155l-.12-.315c.165-.12.45-.2.716-.2.575 0 .836.355.836.736 0 .34-.19.585-.431.871-.22.26-.3.48-.285.736l.005.13h-.391zm-.109.701c0-.185.125-.315.3-.315s.295.13.295.315c0 .175-.114.311-.3.311-.175-.001-.295-.136-.295-.311zM207.784 210.55l1.396-3.628h.34l-1.401 3.628h-.335z"/></g><path fill="#FCFAFD" d="M223.878 203.782h.736v6.224h-.736zM220.703 210.018l.122.001c1.56-.04 2.814-1.611 2.814-3.541v-2.687h-.489v1.832c0 1.777-1.062 3.248-2.447 3.503v.892zM227.8 210.018l-.122.001c-1.56-.04-2.814-1.611-2.814-3.541v-2.687h.489v1.832c0 1.777 1.062 3.248 2.447 3.503v.892z"/><g fill="#FCFAFD"><path d="M239.073 207.467a.926.926 0 0 0 .469.132c.268 0 .424-.141.424-.346 0-.189-.108-.297-.382-.403-.331-.117-.535-.289-.535-.574 0-.316.262-.55.655-.55.208 0 .357.048.448.099l-.072.213a.807.807 0 0 0-.385-.096c-.276 0-.382.166-.382.304 0 .189.123.283.402.391.343.132.518.298.518.595 0 .313-.231.583-.71.583-.195 0-.408-.057-.517-.129l.067-.219zM241.074 205.76v.848h.98v-.848h.265v2.026h-.265v-.95h-.98v.95h-.261v-2.026h.261zM243.254 205.76v2.026h-.261v-2.026h.261zM243.936 205.76h1.091v.219h-.83v.673h.767v.216h-.767v.917h-.261v-2.025zM246.006 205.982h-.616v-.222h1.5v.222h-.619v1.804h-.265v-1.804z"/></g><g fill="#FCFAFD"><path d="M42.593 207.462a.929.929 0 0 0 .469.132c.268 0 .424-.141.424-.346 0-.189-.108-.297-.381-.403-.331-.117-.535-.289-.535-.574 0-.316.261-.55.655-.55.208 0 .357.048.448.099l-.072.213a.807.807 0 0 0-.385-.096c-.276 0-.382.166-.382.304 0 .189.124.283.403.391.343.132.517.298.517.595 0 .313-.231.583-.709.583-.195 0-.409-.057-.517-.129l.065-.219zM44.595 205.755v.848h.98v-.848h.265v2.026h-.265v-.95h-.98v.95h-.261v-2.026h.261zM46.775 205.755v2.026h-.261v-2.026h.261zM47.456 205.755h1.091v.219h-.83v.673h.767v.216h-.767v.917h-.261v-2.025zM49.527 205.978h-.616v-.222h1.5v.222h-.619v1.804h-.265v-1.804z"/></g><path fill="#FCFAFD" d="M45.996 193.223h-7.724a.294.294 0 0 1-.294-.294v-3.887c0-.162.132-.294.294-.294h7.724c.162 0 .294.132.294.294v3.887a.294.294 0 0 1-.294.294z"/><g fill="#40403E"><path d="M40.156 191.8a1.301 1.301 0 0 1-.535.096c-.571 0-1.001-.361-1.001-1.025 0-.634.43-1.064 1.058-1.064.252 0 .412.054.481.09l-.063.213a.952.952 0 0 0-.409-.084c-.475 0-.791.304-.791.836 0 .496.286.814.778.814.16 0 .322-.033.427-.084l.055.208zM41.174 190.062h-.616v-.222h1.5v.222h-.619v1.804h-.265v-1.804zM42.505 189.867a2.73 2.73 0 0 1 .502-.042c.28 0 .46.051.586.165.103.09.16.229.16.385a.53.53 0 0 1-.382.517v.009c.156.054.25.198.297.409.066.283.114.478.156.556h-.271c-.033-.057-.078-.231-.135-.484-.06-.28-.168-.385-.406-.394h-.247v.878h-.261v-1.999zm.261.923h.268c.28 0 .457-.153.457-.385 0-.262-.189-.376-.466-.379a1.09 1.09 0 0 0-.259.024v.74zM44.344 189.84h.261v1.807h.866v.219h-1.127v-2.026z"/></g><path fill="#FCFAFD" d="M35.068 174.1h-5.202a.274.274 0 0 1-.274-.274v-2.108c0-.151.123-.274.274-.274h5.202c.151 0 .274.123.274.274v2.108a.274.274 0 0 1-.274.274z"/><path fill="#40403E" d="M31.394 173.679a1.301 1.301 0 0 1-.535.096c-.571 0-1.001-.361-1.001-1.025 0-.634.43-1.064 1.058-1.064.252 0 .412.054.481.09l-.063.213a.952.952 0 0 0-.409-.084c-.475 0-.791.304-.791.836 0 .496.286.814.778.814.16 0 .322-.033.427-.084l.055.208zM31.944 171.719h.261v1.807h.866v.219h-1.127v-2.026zM33.585 171.746a2.73 2.73 0 0 1 .502-.042c.28 0 .46.051.586.165.103.09.16.229.16.385a.53.53 0 0 1-.382.517v.009c.156.054.25.198.297.409.066.283.114.478.156.556h-.271c-.033-.057-.078-.231-.135-.484-.06-.28-.168-.385-.406-.394h-.247v.878h-.261v-1.999zm.261.923h.268c.28 0 .457-.153.457-.385 0-.262-.189-.375-.466-.379a1.09 1.09 0 0 0-.259.024v.74z"/><path fill="#FCFAFD" d="M39.692 173.426a.929.929 0 0 0 .469.132c.268 0 .424-.141.424-.346 0-.189-.108-.297-.381-.403-.331-.117-.535-.289-.535-.574 0-.316.261-.55.655-.55.208 0 .357.048.448.099l-.072.213a.807.807 0 0 0-.385-.096c-.276 0-.381.166-.381.304 0 .189.123.283.402.391.343.132.517.298.517.595 0 .313-.231.583-.709.583-.195 0-.409-.057-.517-.129l.065-.219zM42.481 172.795h-.788v.73h.878v.219h-1.139v-2.026h1.094v.219h-.833v.64h.788v.218zM43.566 171.941h-.616v-.222h1.5v.222h-.619v1.804h-.265v-1.804zM35.121 176.941h-.616v-.222h1.5v.222h-.619v1.804h-.265v-1.804zM36.555 178.108l-.21.637h-.271l.688-2.026h.315l.691 2.026h-.279l-.217-.637h-.717zm.665-.205l-.198-.583c-.045-.132-.075-.252-.105-.37h-.007c-.03.12-.063.243-.102.367l-.198.586h.61zM38.288 176.746c.114-.024.294-.042.478-.042.261 0 .43.045.556.147a.424.424 0 0 1 .168.357c0 .195-.129.367-.342.445v.006c.192.048.417.207.417.508a.547.547 0 0 1-.171.406c-.141.129-.37.189-.7.189-.18 0-.319-.012-.406-.024v-1.992zm.262.83h.238c.276 0 .439-.144.439-.339 0-.238-.181-.331-.445-.331-.121 0-.189.009-.232.018v.652zm0 .971a1.4 1.4 0 0 0 .22.012c.271 0 .52-.099.52-.394 0-.277-.237-.391-.523-.391h-.217v.773z"/><g fill="#FCFAFD"><path d="M199.626 188.578c0-.185.125-.315.301-.315.175 0 .29.13.295.315 0 .175-.115.31-.3.31-.176 0-.296-.135-.296-.31zm0 1.767c0-.185.125-.315.301-.315.175 0 .29.13.295.315 0 .175-.115.311-.3.311-.176-.001-.296-.136-.296-.311zM199.451 195.216c.11-.295.245-.831.3-1.196l.486-.05c-.12.426-.341.981-.48 1.216l-.306.03zm.215-2.638c0-.185.125-.315.296-.315.18 0 .295.13.295.315 0 .175-.115.31-.295.31-.176 0-.296-.135-.296-.31z"/></g><g fill="#FCFAFD"><path d="M239.976 174.246c.132-.027.321-.042.502-.042.279 0 .46.051.586.165.103.09.159.229.159.385a.53.53 0 0 1-.382.517v.009c.156.054.25.198.298.409.066.283.114.478.156.556h-.271c-.033-.057-.078-.231-.136-.484-.06-.28-.168-.385-.405-.394h-.247v.878h-.261v-1.999zm.261.923h.268c.28 0 .457-.153.457-.385 0-.262-.189-.375-.466-.379a1.09 1.09 0 0 0-.259.024v.74zM242.864 175.295h-.788v.73h.878v.219h-1.139v-2.026h1.094v.219h-.833v.64h.788v.218zM243.949 174.441h-.616v-.222h1.5v.222h-.619v1.804h-.265v-1.804zM245.54 174.219v1.199c0 .454.202.646.473.646.301 0 .493-.199.493-.646v-1.199h.264v1.181c0 .622-.327.878-.766.878-.415 0-.728-.238-.728-.866v-1.193h.264zM247.446 174.246c.132-.027.321-.042.502-.042.279 0 .46.051.586.165.103.09.159.229.159.385a.53.53 0 0 1-.382.517v.009c.156.054.25.198.298.409.066.283.114.478.156.556h-.271c-.033-.057-.078-.231-.136-.484-.06-.28-.168-.385-.405-.394h-.247v.878h-.261v-1.999zm.26.923h.268c.28 0 .457-.153.457-.385 0-.262-.189-.375-.466-.379a1.09 1.09 0 0 0-.259.024v.74zM249.284 176.245v-2.026h.286l.648 1.025c.15.237.268.451.364.658l.006-.003a9.036 9.036 0 0 1-.03-.833v-.848h.247v2.026h-.265l-.644-1.028a6.454 6.454 0 0 1-.379-.677l-.009.003c.015.255.021.499.021.835v.866h-.245z"/></g><g fill="#FCFAFD"><path d="M244.52 189.94c-.08.04-.24.08-.445.08-.476 0-.833-.3-.833-.853 0-.528.357-.886.881-.886.21 0 .343.045.4.075l-.053.178a.79.79 0 0 0-.34-.07c-.396 0-.658.252-.658.695 0 .413.237.678.647.678a.856.856 0 0 0 .355-.07l.046.173zM245.262 189.465l-.176.53h-.225l.573-1.687h.263l.575 1.687h-.232l-.181-.53h-.597zm.553-.171l-.165-.485a4.147 4.147 0 0 1-.088-.308h-.005a4.87 4.87 0 0 1-.085.306l-.165.488h.508zM246.706 188.329c.105-.018.243-.033.418-.033.215 0 .373.05.473.14.093.08.147.203.147.353a.498.498 0 0 1-.13.36c-.115.123-.303.185-.516.185a.727.727 0 0 1-.175-.015v.676h-.218v-1.666zm.218.813a.703.703 0 0 0 .18.018c.264 0 .424-.127.424-.36 0-.223-.158-.33-.398-.33a.846.846 0 0 0-.205.018v.654zM248.194 189.73c.098.06.24.11.391.11.223 0 .353-.118.353-.288 0-.158-.09-.248-.317-.335-.275-.098-.445-.24-.445-.478 0-.263.218-.458.545-.458a.76.76 0 0 1 .373.083l-.06.178a.676.676 0 0 0-.32-.08c-.23 0-.318.138-.318.253 0 .158.103.235.336.325.285.11.43.248.43.496 0 .26-.192.485-.59.485a.874.874 0 0 1-.431-.107l.053-.184zM242.986 192.309h.218v1.504h.721v.183h-.938v-1.687zM245.698 193.134c0 .581-.354.888-.784.888-.445 0-.758-.345-.758-.855 0-.536.333-.886.783-.886.461 0 .759.353.759.853zm-1.31.028c0 .36.195.683.538.683.346 0 .541-.317.541-.7 0-.335-.176-.686-.538-.686-.36 0-.541.333-.541.703zM246.441 193.995l-.428-1.687h.23l.2.853c.05.21.095.42.125.583h.005c.027-.168.08-.368.138-.586l.226-.851h.228l.205.855c.048.2.093.4.118.578h.005c.035-.185.082-.373.135-.583l.223-.851h.223l-.478 1.687h-.228l-.213-.878a4.843 4.843 0 0 1-.11-.55h-.005a5.14 5.14 0 0 1-.13.55l-.24.878h-.229zM248.468 192.331c.11-.022.268-.035.418-.035.232 0 .383.042.488.138a.42.42 0 0 1 .132.32c0 .223-.14.37-.317.431v.007c.13.045.208.165.248.34.055.235.095.398.13.463h-.226c-.027-.047-.064-.193-.112-.403-.05-.233-.14-.32-.338-.328h-.205v.73h-.218v-1.663zm.218.768h.223c.232 0 .381-.127.381-.32 0-.218-.158-.313-.389-.315-.104 0-.18.01-.215.02v.615z"/></g><path fill="#FCFAFD" d="M193.782 173.251a6.05 6.05 0 0 1 1.002-.078c.516 0 .894.12 1.133.336.223.192.354.486.354.845 0 .366-.108.654-.313.864-.275.294-.726.444-1.234.444-.156 0-.301-.006-.42-.036v1.619h-.522v-3.994zm.522 1.949c.113.03.258.042.432.042.63 0 1.014-.306 1.014-.863 0-.534-.378-.792-.954-.792a2.18 2.18 0 0 0-.491.042v1.571zM209.793 175.795h-2.734a.664.664 0 0 1-.664-.664v-2.734c0-.367.297-.664.664-.664h2.734c.367 0 .664.297.664.664v2.734a.664.664 0 0 1-.664.664z"/><path d="M208.301 173.291h.25v1.538h-.25z"/><path d="M209.109 173.382h-1.367l.684-.683z"/><path fill="#FCFAFD" d="M209.542 178.497h3.166v.5h-3.166zM211.666 173.514h3.166v.5h-3.166zM225.16 175.915h-2.734a.664.664 0 0 1-.664-.664v-2.734c0-.367.297-.664.664-.664h2.734c.367 0 .664.297.664.664v2.734a.664.664 0 0 1-.664.664z"/><g><path d="M223.668 172.819h.25v1.322h-.25z"/><path d="M223.232 173.977l.561.971.561-.971z"/></g><g><path fill="#FCFAFD" d="M229.366 172.301h.5v3.166h-.5z"/></g><g><path fill="#FCFAFD" d="M214.668 191.545h-2.734a.664.664 0 0 1-.664-.664v-2.734c0-.367.297-.664.664-.664h2.734c.367 0 .664.297.664.664v2.734a.664.664 0 0 1-.664.664z"/></g><g><path d="M212.827 189.389h1.538v.25h-1.538z"/><path d="M212.919 188.83v1.367l-.683-.683z"/></g><g><path fill="#FCFAFD" d="M224.503 177.943v-.3h2.583v.3h-2.583zm0 .981v-.3h2.583v.3h-2.583z"/></g><g><path fill="#FCFAFD" d="M215.463 192.597v1.176h1.131v.3h-1.131v1.186h-.32v-1.186h-1.132v-.3h1.132v-1.176h.32z"/></g><g><path fill="#FCFAFD" d="M219.279 191.181l-1.361-3.628h.341l1.361 3.628h-.341z"/></g><g><path fill="#FCFAFD" d="M231.654 192.702l-.666.875v.014l1.058-.14v.476l-1.058-.126v.014l.673.84-.441.252-.42-.98h-.015l-.455.988-.398-.252.665-.854v-.014l-1.037.133v-.476l1.03.133v-.014l-.658-.854.427-.245.435.974h.014l.427-.98.419.236z"/></g><g><path fill="#FCFAFD" d="M229.784 191.529h-2.734a.664.664 0 0 1-.664-.664v-2.734c0-.367.297-.664.664-.664h2.734c.367 0 .664.297.664.664v2.734a.664.664 0 0 1-.664.664z"/></g><g><path d="M227.352 189.373h1.538v.25h-1.538z"/><path d="M228.799 190.181v-1.367l.683.684z"/></g><g><path fill="#FCFAFD" d="M234.719 190.038l-.836-1.942h-.01l-.836 1.942h-.351l1.036-2.307h.311l1.036 2.307h-.35z"/></g></g><g><path fill="#7F7F74" d="M184.688 151.787h-52.5v-7.898h52.5v7.898zm-52.25-.25h52v-7.398h-52v7.398z"/></g><g><path fill="#7F7F74" d="M184.688 144.139h-52.5v-6.074h52.5v6.074zm-52.25-.25h52v-5.574h-52v5.574z"/></g><g fill="#CACCBF"><path d="M141.275 146.313c.22-.028.507-.052.874-.052.45 0 .78.08.989.224a.66.66 0 0 1 .309.564.697.697 0 0 1-.272.576c-.241.196-.633.295-1.079.295-.136 0-.261-.004-.366-.024v1.08h-.455v-2.663zm.455 1.299c.1.02.225.028.377.028.549 0 .884-.204.884-.576 0-.355-.33-.527-.832-.527-.199 0-.351.012-.429.028v1.047zM144.908 146.281v1.595c0 .604.351.86.822.86.523 0 .858-.264.858-.86v-1.595h.46v1.571c0 .828-.57 1.167-1.334 1.167-.722 0-1.267-.316-1.267-1.151v-1.587h.461zM148.234 146.281h.455v2.402h1.508v.292h-1.963v-2.694zM151.097 146.281h.456v2.402h1.507v.292h-1.963v-2.694z"/></g><g fill="#CACCBF"><path d="M165.836 147.594c0 .927-.738 1.419-1.638 1.419-.932 0-1.586-.552-1.586-1.367 0-.855.695-1.415 1.638-1.415.963-.001 1.586.563 1.586 1.363zm-2.737.044c0 .576.408 1.091 1.125 1.091.723 0 1.131-.508 1.131-1.12 0-.536-.366-1.095-1.125-1.095-.754 0-1.131.532-1.131 1.124zM166.823 146.306c.22-.028.507-.052.874-.052.449 0 .779.08.988.224.194.128.31.324.31.564a.7.7 0 0 1-.272.576c-.241.196-.633.295-1.078.295a2.03 2.03 0 0 1-.366-.024v1.08h-.455v-2.663zm.455 1.299c.1.02.225.028.377.028.549 0 .884-.204.884-.576 0-.355-.329-.527-.832-.527-.198 0-.351.012-.429.028v1.047zM171.827 147.705h-1.371v.971h1.528v.292h-1.983v-2.694h1.904v.292h-1.449v.852h1.371v.287zM172.969 148.969v-2.694h.497l1.131 1.363c.262.315.466.6.634.875l.01-.004a9.139 9.139 0 0 1-.052-1.107v-1.127h.429v2.694h-.46l-1.12-1.367a8.517 8.517 0 0 1-.66-.899l-.016.004c.026.34.037.664.037 1.111v1.151h-.43z"/></g><path fill="#CACCBF" d="M155.032 145.962l3.406 2.625 3.406-2.625h-3.406z"/><path fill="#CFD3C4" d="M274.098.278l-4.597-.011a3307.383 3307.383 0 0 1 10.166 113.921h4.583c19.688 12.688 25.083 13.667 26.438 25.375l5.933 104.125c.219-44.125.804-77.917-1.143-132.188-1.369-38.145-3.81-71.603-5.715-107.405 0-2.058-1.711-3.741-3.801-3.741L274.098.278z"/><linearGradient id="c" gradientUnits="userSpaceOnUse" x1="-299.387" y1="57.227" x2="-284.625" y2="57.227" gradientTransform="matrix(-1 0 0 1 -15.124 0)"><stop offset="0" stop-color="#daddd0"/><stop offset=".064" stop-color="#d7dacd"/><stop offset=".311" stop-color="#d1d5c6"/><stop offset="1" stop-color="#cfd3c4"/></linearGradient><path fill="url(#c)" d="M269.501.267a3307.383 3307.383 0 0 1 10.166 113.921h4.596A3304.241 3304.241 0 0 0 274.097.278l-4.596-.011z"/><linearGradient id="d" gradientUnits="userSpaceOnUse" x1="158.438" y1="138.19" x2="158.438"><stop offset="0" stop-color="#cfd3c4"/><stop offset=".108" stop-color="#d3d6c8"/><stop offset=".187" stop-color="#daddd0"/><stop offset=".239" stop-color="#d7dacd"/><stop offset=".44" stop-color="#d1d5c6"/><stop offset="1" stop-color="#cfd3c4"/></linearGradient><path fill="url(#d)" d="M269.501.267a3307.383 3307.383 0 0 1 10.166 113.921s-5.072 14.559-6.053 18.104c-1.759 6.355-5.376 5.879-5.738 5.896H49.001c-.362-.018-3.979.458-5.739-5.896-.981-3.545-6.053-18.104-6.053-18.104A3304.887 3304.887 0 0 1 47.375.267L158.438 0l111.063.267z"/><path fill="#7F7F74" d="M133.076 132.266c-.434 1.58-1.033 3.652-.888 6.046v.003h.25c-.145-2.395.204-4.47.638-6.049zM183.8 132.265c.434 1.58 1.033 3.652.888 6.046v.003h-.25a18.64 18.64 0 0 0-.638-6.049z"/><g fill="#CACCC1"><path d="M112.164 117.703h43.814c1.303 0 2.368.964 2.368 2.141l-.592 10.279c0 1.178-1.066 2.141-2.368 2.141H68.942c-1.303 0-2.368-.964-2.368-2.141l-.592-10.279c0-1.178 1.066-2.141 2.368-2.141h43.814z"/><path d="M155.386 132.39H68.942c-1.371 0-2.487-1.017-2.487-2.267l-.592-10.271c0-1.258 1.116-2.274 2.487-2.274h87.629c1.371 0 2.487 1.017 2.487 2.267l-.592 10.286c-.001 1.242-1.117 2.259-2.488 2.259zM68.35 117.828c-1.241 0-2.25.905-2.25 2.017l.592 10.271c0 1.12 1.009 2.024 2.25 2.024h86.444c1.241 0 2.25-.905 2.25-2.017l.592-10.286c0-1.104-1.009-2.009-2.25-2.009H68.35z"/></g><g><path d="M71.943 120.394c.348-.501 1.15-.586 1.667-.166.211.165.368.394.46.639 1.157 3.059 2.317 6.117 3.473 9.177-.525.001-1.05-.001-1.574.001-.321-.843-.637-1.689-.955-2.533-1.015-.002-2.029-.001-3.044-.001-.175.844-.346 1.689-.516 2.534-.522-.002-1.044-.001-1.566-.001.589-2.918 1.18-5.837 1.773-8.755.075-.304.083-.645.282-.895m1.09 1.875c-.261 1.267-.515 2.538-.774 3.806.738.003 1.475.001 2.212.001l-1.438-3.807zM83.002 120.46c.239-.397.751-.589 1.227-.467.435.098.793.465.941.879l3.47 9.17c-.525.004-1.051 0-1.576.002-.318-.844-.634-1.69-.954-2.534-1.013.001-2.026-.002-3.039.001-.168.845-.344 1.688-.512 2.533l-1.564.001c.588-2.934 1.185-5.867 1.78-8.799.067-.265.076-.557.227-.786m.364 5.616l2.203.001c-.477-1.272-.959-2.542-1.434-3.813-.256 1.27-.515 2.54-.769 3.812zM75.488 119.978h5.694l.134 1.536c-.699.001-1.398-.001-2.096.001l.746 8.53h-1.502l-.746-8.53-2.097-.001c-.043-.512-.089-1.024-.133-1.536zM89.435 120.041c.14-.05.292-.067.445-.063.599.002 1.197 0 1.796.001 1.01.018 2.026.644 2.542 1.551.354.589.445 1.274.425 1.92.007.677-.218 1.353-.699 1.801-.253.245-.583.393-.858.611-.151.123-.138.362-.039.533.902 1.226 1.833 2.433 2.751 3.649-.593.001-1.186-.002-1.779.001-.879-1.166-1.749-2.338-2.625-3.506-.256-.332-.357-.773-.254-1.152.081-.291.316-.504.59-.614.523-.206 1.027-.531 1.282-1.041.194-.383.141-.856.002-1.276-.168-.545-.736-.974-1.295-.955-.388.003-.776-.002-1.163.002a.304.304 0 0 0-.31.326c.238 2.738.48 5.477.718 8.215l-1.513-.001c-.259-2.948-.515-5.896-.775-8.844a1.13 1.13 0 0 1 .759-1.158zM95.709 119.978h1.592c.293 3.356.588 6.711.88 10.067l-1.591-.001-.881-10.066z"/><path fill="#5D3615" d="M122.226 130.045c-2.781 0-5.242-2.263-5.485-5.044-.243-2.781 1.822-5.044 4.603-5.044 2.781 0 5.242 2.263 5.485 5.044.243 2.781-1.822 5.044-4.603 5.044zm-.85-9.717c-2.577 0-4.49 2.096-4.265 4.673.225 2.577 2.505 4.673 5.082 4.673s4.49-2.096 4.264-4.673c-.224-2.576-2.504-4.673-5.081-4.673zm.709 8.109c-1.894 0-3.571-1.541-3.736-3.436-.166-1.894 1.241-3.436 3.135-3.436 1.894 0 3.57 1.541 3.736 3.436.166 1.895-1.24 3.436-3.135 3.436zm-.568-6.5c-1.69 0-2.945 1.375-2.797 3.065.148 1.69 1.643 3.065 3.333 3.065 1.69 0 2.945-1.375 2.797-3.065-.148-1.69-1.643-3.065-3.333-3.065z"/><g><path fill="#5D3615" d="M111.901 130.045c-2.781 0-5.242-2.263-5.485-5.044-.243-2.781 1.822-5.044 4.603-5.044 2.781 0 5.242 2.263 5.485 5.044.243 2.781-1.822 5.044-4.603 5.044zm-.85-9.717c-2.577 0-4.49 2.096-4.265 4.673.225 2.577 2.506 4.673 5.082 4.673 2.577 0 4.49-2.096 4.264-4.673-.224-2.576-2.504-4.673-5.081-4.673zm.709 8.109c-1.894 0-3.571-1.541-3.736-3.436-.166-1.894 1.241-3.436 3.135-3.436 1.894 0 3.57 1.541 3.736 3.436.166 1.895-1.24 3.436-3.135 3.436zm-.568-6.5c-1.69 0-2.945 1.375-2.797 3.065.148 1.69 1.643 3.065 3.333 3.065 1.69 0 2.945-1.375 2.797-3.065-.148-1.69-1.643-3.065-3.333-3.065z"/></g><g><path fill="#5D3615" d="M103.259 130.045c-1.948 0-3.671-1.584-3.841-3.533-.102-1.169.392-2.272 1.297-2.926a2.515 2.515 0 0 1-.486-1.275c-.114-1.298.85-2.354 2.148-2.354s2.446 1.056 2.56 2.354c.04.458-.051.895-.264 1.275 1.02.654 1.707 1.757 1.81 2.926.17 1.949-1.276 3.533-3.224 3.533zm-.85-9.717c-1.094 0-1.906.89-1.81 1.983.039.443.219.863.521 1.213l.143.165-.17.107c-.901.569-1.401 1.609-1.304 2.716.153 1.743 1.695 3.162 3.439 3.162s3.038-1.419 2.886-3.162c-.097-1.106-.779-2.147-1.779-2.716l-.188-.107.113-.165c.241-.35.347-.77.309-1.213-.099-1.093-1.067-1.983-2.16-1.983zm.722 8.251c-1.139 0-2.147-.927-2.247-2.066-.1-1.139.746-2.066 1.886-2.066 1.139 0 2.147.927 2.247 2.066.099 1.139-.747 2.066-1.886 2.066zm-.33-3.763c-.935 0-1.629.761-1.548 1.696.082.935.909 1.696 1.844 1.696s1.629-.761 1.548-1.696c-.081-.934-.908-1.696-1.844-1.696zm-.128-1.466a1.157 1.157 0 0 1-1.129-1.038c-.05-.572.375-1.038.947-1.038s1.079.466 1.129 1.038a.936.936 0 0 1-.947 1.038zm-.149-1.706c-.368 0-.642.3-.609.668a.744.744 0 0 0 .726.668c.369 0 .642-.3.61-.668a.746.746 0 0 0-.727-.668z"/></g><path fill="#3D3832" d="M50.477 130.621c.077.878.858 1.596 1.736 1.596h11.239c.878 0 1.533-.718 1.457-1.596l-.983-11.239c-.077-.878-.858-1.596-1.736-1.596H50.95c-.878 0-1.533.718-1.456 1.596l.983 11.239z"/><g fill="#A1978E"><path d="M55.135 120.303h.712c.05.558.098 1.117.147 1.675.043.466.071.932.092 1.398.027.672.044 1.346-.009 2.011a4.76 4.76 0 0 1-.316 1.32c-.262.676-.716 1.248-1.24 1.729-.468.446-1.045.771-1.662.991a5.59 5.59 0 0 1-1.084.273l-.123-1.405c.448-.068.871-.23 1.257-.443a4.1 4.1 0 0 0 1.191-1c.34-.416.598-.899.781-1.41.217-.588.305-1.224.346-1.861a19.03 19.03 0 0 0-.022-2.446c-.02-.278-.047-.555-.07-.832zM56.134 120.303c.437-.003.874 0 1.312-.001l.822 9.396c-.436.001-.873-.002-1.308.002-.093-.999-.176-1.998-.265-2.996-.188-2.133-.373-4.267-.561-6.401zM57.737 120.302h.708c.076.955.192 1.912.389 2.86.158.737.354 1.479.708 2.166a5.93 5.93 0 0 0 1.358 1.78 5.143 5.143 0 0 0 1.853 1.052c.189.058.38.104.573.132l.123 1.404a6.306 6.306 0 0 1-1.123-.269 6.187 6.187 0 0 1-1.267-.586 6.509 6.509 0 0 1-.822-.611 5.938 5.938 0 0 1-1.13-1.255 6.103 6.103 0 0 1-.583-1.169c-.145-.407-.229-.828-.308-1.246a28.881 28.881 0 0 1-.345-2.72l-.134-1.538z"/><path d="M56.134 120.303l.561 6.401c.089.998.171 1.998.265 2.996.436-.004.872-.001 1.308-.002l-.822-9.396c-.438.001-.875-.001-1.312.001M57.737 120.302l.135 1.54c.074.907.184 1.816.345 2.72.079.418.162.839.308 1.246.155.405.342.801.583 1.169.309.472.701.888 1.13 1.255.261.222.53.434.822.611.4.246.828.438 1.267.586.368.121.744.218 1.123.269l-.123-1.404a3.802 3.802 0 0 1-.573-.132 5.15 5.15 0 0 1-1.853-1.052 5.937 5.937 0 0 1-1.358-1.78c-.354-.686-.55-1.429-.708-2.166a23.029 23.029 0 0 1-.389-2.86c-.236-.002-.473-.002-.709-.002"/></g></g><path fill="#B6B7AE" d="M276.118 69.095H40.759A3306.065 3306.065 0 0 1 47.376.267L158.438 0l111.063.267a3306.065 3306.065 0 0 1 6.617 68.828z"/><path fill="#727272" d="M55.984 20.188h204.908l-1.037-12.001H57.021zM52.845 56.518h19.871l.56-8.164 1.717-24.5H55.667l-2.117 24.5zM244.172 56.518h19.859l-.737-8.164-2.085-24.5h-19.325l1.716 24.5z"/><path fill="#B5B7AB" d="M157.852 8.187h1.172v12h-1.172z"/><g fill="#C9CDBC"><path d="M157.556 69.095l.03-69.093-1.721.004-.133 69.089zM153.908 69.095L154.142.01l-1.722.004-.337 69.081zM150.259 69.095l.439-69.076-1.722.004-.541 69.072zM146.611 69.095l.643-69.068-1.722.004-.745 69.064zM142.963 69.095l.847-69.06-1.722.004-.949 69.056zM139.315 69.095L140.366.043l-1.722.005-1.153 69.047zM135.667 69.095L136.922.052 135.2.056l-1.357 69.039zM132.018 69.095L133.478.06l-1.722.004-1.562 69.031zM128.37 69.095L130.034.068l-1.723.004-1.765 69.023zM124.722 69.095L126.589.076l-1.722.005-1.969 69.014zM121.074 69.095l2.071-69.01-1.722.004-2.173 69.006zM117.426 69.095L119.701.093l-1.722.004-2.377 68.998zM113.777 69.095l2.48-68.994-1.722.004-2.582 68.99zM110.129 69.095L112.813.11l-1.722.004-2.786 68.981zM106.481 69.095L109.369.118l-1.722.004-2.99 68.973zM102.833 69.095L105.925.126l-1.722.004-3.194 68.965zM99.185 69.095L102.481.134l-1.722.004-3.398 68.957zM95.537 69.095l3.5-68.952-1.722.004-3.603 68.948zM91.888 69.095L95.593.151l-1.722.004-3.807 68.94zM88.24 69.095L92.148.159l-1.722.004-4.01 68.932zM84.592 69.095L88.704.167l-1.722.005-4.214 68.923zM80.944 69.095L85.26.176 83.538.18 79.12 69.095zM77.296 69.095L81.816.184l-1.722.004-4.622 68.907zM73.647 69.095L78.372.192 76.65.196l-4.827 68.899zM69.999 69.095L74.928.2l-1.722.005-5.031 68.89zM66.351 69.095L71.484.209l-1.722.004-5.235 68.882zM62.703 69.095L68.04.217l-1.722.004-5.439 68.874zM59.055 69.095L64.596.225l-1.722.004-5.643 68.866zM55.406 69.095L61.152.234 59.43.238l-5.848 68.857zM51.758 69.095L57.708.242l-1.723.004-6.051 68.849zM48.11 69.095L54.263.25l-1.722.004-6.255 68.841zM44.462 69.095L50.819.258l-1.722.005-6.459 68.832zM159.32 69.095L159.29.002l1.721.004.133 69.089zM162.969 69.095L162.734.01l1.722.004.337 69.081zM166.617 69.095L166.178.019l1.722.004.541 69.072zM170.265 69.095L169.622.027l1.722.004.745 69.064zM173.913 69.095l-.847-69.06 1.722.004.949 69.056zM177.561 69.095L176.51.043l1.723.005 1.153 69.047zM181.21 69.095L179.955.052l1.722.004 1.357 69.039zM184.858 69.095L183.399.06l1.722.004 1.561 69.031zM188.506 69.095L186.843.068l1.722.004 1.765 69.023zM192.154 69.095L190.287.076l1.722.005 1.969 69.014zM195.802 69.095L193.731.085l1.722.004 2.173 69.006zM199.451 69.095L197.175.093l1.722.004 2.378 68.998zM203.099 69.095L200.619.101l1.722.004 2.582 68.99zM206.747 69.095L204.063.11l1.722.004 2.786 68.981zM210.395 69.095L207.507.118l1.722.004 2.99 68.973zM214.043 69.095L210.951.126l1.722.004 3.194 68.965zM217.692 69.095L214.396.134l1.722.004 3.398 68.957zM221.34 69.095L217.84.143l1.722.004 3.602 68.948zM224.988 69.095L221.284.151l1.722.004 3.806 68.94zM228.636 69.095L224.728.159l1.722.004 4.01 68.932zM232.284 69.095L228.172.167l1.722.005 4.214 68.923zM235.932 69.095L231.616.176l1.722.004 4.419 68.915zM239.581 69.095L235.06.184l1.722.004 4.623 68.907zM243.229 69.095L238.504.192l1.722.004 4.827 68.899zM246.877 69.095L241.948.2l1.722.005 5.031 68.89zM250.525 69.095L245.392.209l1.722.004 5.235 68.882zM254.173 69.095L248.836.217l1.723.004 5.439 68.874zM257.822 69.095L252.281.225l1.722.004 5.643 68.866zM261.47 69.095L255.725.234l1.722.004 5.847 68.857zM265.118 69.095L259.169.242l1.722.004 6.051 68.849zM268.766 69.095L262.613.25l1.722.004 6.255 68.841zM272.414 69.095L266.057.258l1.722.005 6.459 68.832z"/></g><g><path fill="#494848" d="M48.808 138.314c-2.585 0-4.595-2.122-5.666-5.99-.969-3.5-6-17.95-6.051-18.096l-.008-.024.002-.025A3320.27 3320.27 0 0 1 47.25.267h.25a3325.071 3325.071 0 0 0-10.164 113.904c.236.678 5.095 14.646 6.047 18.087 1.038 3.749 2.962 5.806 5.425 5.806l.166-.002H267.976l.09.001c2.465 0 4.39-2.058 5.428-5.806.952-3.44 5.811-17.411 6.046-18.087A3324.863 3324.863 0 0 0 269.375.265h.252a3322.744 3322.744 0 0 1 10.165 113.912l.002.025-.009.024c-.051.146-5.081 14.595-6.051 18.096-1.07 3.867-3.081 5.989-5.666 5.99l-.163-.002H49.001c-.024-.001-.055 0-.094 0a1.092 1.092 0 0 1-.099.004z"/></g><g><path fill="#2C383A" d="M351.428 249.776h5.438v1.411h-5.438zM480.032 251.187h-5.438v-1.41h5.438z"/><path fill="#B6B896" d="M352.147 237.74l-9.031 11.417-.002.004c.594.399 1.351.616 2.326.616h140.584c.975 0 1.732-.217 2.326-.616l-.002-.004-9.031-11.417.003.004c-.566.451-1.342.702-2.433.702H354.576c-1.091 0-1.867-.251-2.433-.702"/><path fill="#B1B294" d="M352.147 237.74l-9.031 11.417-.002.004c-2.376-1.597-2.15-6.117-2.883-11.384L336.804 217a30.817 30.817 0 0 1-.401-5.686c.033-1.437.166-2.873.401-4.296l3.427-20.777c.731-5.246.508-9.752 2.855-11.366l.003.004 9.181 11.305-.002-.003c-1.763 1.25-1.615 4.284-2.221 7.791l-2.981 14.544a17.457 17.457 0 0 0-.35 3.939 17.35 17.35 0 0 0 .35 3.047l2.981 14.544c.592 3.423.465 6.396 2.098 7.698"/><path fill="#B6B896" d="M488.372 174.878l-9.181 11.305.002-.003c-.554-.393-1.296-.609-2.31-.609H354.576c-1.014 0-1.756.217-2.31.609l.002.003-9.181-11.305-.003-.004c.598-.411 1.363-.634 2.353-.634h140.584c.99 0 1.755.223 2.353.634"/><path fill="#B1B294" d="M479.314 237.74l9.031 11.417.002.004c2.376-1.597 2.149-6.117 2.883-11.384L494.657 217a30.675 30.675 0 0 0 0-9.982l-3.427-20.777c-.731-5.246-.508-9.752-2.855-11.366l-.003.004-9.181 11.305.002-.003c1.763 1.25 1.615 4.284 2.221 7.791l2.981 14.544a17.343 17.343 0 0 1 0 6.987l-2.981 14.544c-.592 3.423-.465 6.396-2.098 7.698"/><path fill="#C5C6A5" d="M354.577 241.28c-5.95 0-6.578-5.055-6.993-8.399-.093-.744-.189-1.534-.331-2.352l-2.966-14.458a20.438 20.438 0 0 1-.396-4.875c.044-1.089.178-2.184.397-3.252l2.98-14.543c.126-.731.223-1.521.315-2.266.415-3.345 1.043-8.399 6.993-8.399h122.308c5.95 0 6.578 5.055 6.993 8.399.093.745.189 1.535.331 2.352l2.966 14.458a20.14 20.14 0 0 1 0 8.125l-2.981 14.545c-.126.731-.223 1.521-.315 2.266-.415 3.345-1.043 8.399-6.993 8.399H354.577z"/><path fill="#98977B" d="M346.722 211.313c-.015.38-.018.761-.008 1.141h-10.316c-.006-.38-.004-.761.005-1.141h10.319zM484.738 211.437c.015.38.018.761.008 1.141h10.316c.006-.38.004-.761-.005-1.141h-10.319z"/><path fill="#262626" d="M346.714 212.454a17.364 17.364 0 0 1 .35-3.939l2.981-14.544c.797-4.608.29-8.4 4.531-8.4h122.308c4.241 0 3.734 3.792 4.531 8.4l2.981 14.544a17.343 17.343 0 0 1 0 6.987l-2.981 14.544c-.798 4.608-.29 8.4-4.531 8.4H354.576c-4.241 0-3.734-3.792-4.531-8.4l-2.981-14.544a17.373 17.373 0 0 1-.35-3.048z"/><path fill="#2F302F" d="M354.577 237.028c-2.005 0-2.296-.825-2.773-4.671-.101-.808-.208-1.666-.361-2.553l-2.989-14.587a16.005 16.005 0 0 1-.314-3.846c.035-.863.141-1.728.314-2.571l2.981-14.544c.161-.93.269-1.788.369-2.596.478-3.846.769-4.671 2.773-4.671h122.308c2.005 0 2.296.825 2.773 4.671.101.808.208 1.666.361 2.553l2.989 14.587a15.874 15.874 0 0 1 0 6.418l-2.981 14.543c-.161.93-.269 1.788-.369 2.596-.478 3.846-.769 4.671-2.773 4.671H354.577z"/><path fill="#323232" d="M375.397 237.028v-50.041h-20.82c-2.005 0-2.296.825-2.773 4.671-.101.808-.208 1.666-.369 2.596l-2.981 14.544a15.968 15.968 0 0 0-.321 3.618c.024.936.132 1.878.321 2.799l2.989 14.587c.153.887.261 1.745.361 2.553.478 3.846.769 4.671 2.773 4.671h20.82z"/><circle fill="#322F26" cx="364.523" cy="209.572" r="3.082"/><circle fill="#321B17" cx="364.523" cy="209.572" r="2.312"/><circle fill="#522C26" cx="364.612" cy="217.665" r="3.082"/><circle fill="#F73863" cx="364.612" cy="217.665" r="2.312"/><path fill="#3A3C39" d="M368.405 224.19v12.141h-8.308V224.19z"/><path fill="#3B4E55" d="M360.522 224.615h7.458v4.458h-7.458z"/><path fill="#6A8187" d="M360.522 229.073h7.458v4.979h-7.458z"/><path fill="#202930" d="M360.522 234.052h7.458v1.854h-7.458z"/><path fill="#6D7778" d="M358.08 202.379c0 .802.656 1.458 1.458 1.458h10.267c.802 0 1.458-.656 1.458-1.458v-10.267c0-.802-.656-1.458-1.458-1.458h-10.267c-.802 0-1.458.656-1.458 1.458v10.267z"/><g fill="#FFF"><path d="M363.16 193.147h.651v1.53c.002.426-.01.851-.027 1.277-.029.614-.068 1.23-.169 1.837-.07.419-.215.823-.394 1.206-.293.618-.754 1.14-1.271 1.58a4.758 4.758 0 0 1-1.597.905 5.344 5.344 0 0 1-1.012.249v-1.284c.415-.062.814-.21 1.184-.404.44-.232.835-.545 1.168-.913.344-.38.618-.821.826-1.288.245-.538.376-1.119.465-1.7.112-.739.158-1.487.176-2.234.001-.255-.001-.508 0-.761zM364.072 193.148c.399-.003.799 0 1.198-.001v8.583c-.399.001-.797-.002-1.195.002-.005-.912-.001-1.825-.002-2.737-.001-1.949.001-3.898-.001-5.847zM365.537 193.147h.647c-.007.872.023 1.747.127 2.613.085.673.205 1.352.473 1.979a4.805 4.805 0 0 0 1.098 1.626 4.198 4.198 0 0 0 1.609.961c.168.053.339.095.513.121v1.283a5.333 5.333 0 0 1-1.004-.246 5.07 5.07 0 0 1-1.11-.535 5.307 5.307 0 0 1-.702-.558 4.786 4.786 0 0 1-.932-1.146 5.023 5.023 0 0 1-.439-1.068c-.1-.371-.143-.756-.181-1.138a25.746 25.746 0 0 1-.098-2.484l-.001-1.408z"/><path d="M364.072 193.148l.001 5.847c.001.912-.003 1.825.002 2.737.398-.003.797-.001 1.195-.002v-8.583c-.399 0-.798-.002-1.198.001M365.537 193.147v1.407c-.005.829.023 1.659.098 2.484.039.382.081.766.181 1.138.109.37.248.732.439 1.068.244.431.569.811.932 1.146.22.203.45.397.702.558.345.225.722.4 1.11.535.327.111.662.199 1.004.246v-1.283a3.24 3.24 0 0 1-.513-.121 4.21 4.21 0 0 1-1.609-.961 4.796 4.796 0 0 1-1.098-1.626c-.268-.627-.388-1.305-.473-1.979a20.543 20.543 0 0 1-.127-2.613l-.646.001"/></g><g fill="#212121"><path d="M368.939 215.625v-1.032h.883c.082 0 .142.016.178.047.037.032.056.083.056.153v.23c0 .07-.019.12-.056.152-.036.032-.096.047-.178.047h-.646v.402h-.237zm.776-.854h-.54v.273h.54c.042 0 .07-.006.085-.018.016-.012.023-.033.023-.064v-.11c0-.03-.008-.051-.023-.063-.015-.012-.043-.018-.085-.018zM370.674 215.625l-.397-1.032h.248l.262.692.274-.692h.168l.279.692.25-.692h.215l-.398 1.032h-.162l-.284-.714-.288.714h-.167zM372.314 215.625v-1.032h.883c.082 0 .142.016.178.047.037.032.056.083.056.153v.242c0 .07-.019.121-.056.152-.036.032-.096.048-.178.048h-.135l.477.39h-.345l-.416-.39h-.228v.39h-.236zm.776-.854h-.54v.287h.54c.042 0 .07-.006.085-.018.016-.012.023-.033.023-.064v-.124c0-.03-.008-.051-.023-.063-.015-.012-.043-.018-.085-.018zM369.659 216.837c0-.094.018-.158.053-.192s.103-.052.203-.052h.76c.101 0 .168.017.203.052s.053.099.053.192v.544c0 .094-.018.159-.053.193s-.103.051-.203.051h-.76c-.101 0-.168-.017-.203-.051s-.053-.099-.053-.193v-.544zm.241.594h.792v-.653h-.792v.653zM371.435 217.625v-1.032h.164l.727.608c.024.02.047.039.065.057s.036.036.052.055l-.008-.123-.002-.056v-.542h.216v1.032h-.164l-.758-.638c-.019-.016-.034-.031-.048-.044s-.026-.026-.038-.04c.003.032.006.062.007.09l.003.074v.558h-.216z"/></g><g fill="#212121"><path d="M368.307 207.719v-1.032h.885c.081 0 .141.016.177.048s.055.083.055.152v.126c0 .049-.016.089-.046.119s-.074.048-.132.055c.06.008.104.029.138.063.031.035.048.08.048.135v.132c0 .068-.025.119-.075.152s-.126.05-.229.05h-.821zm.784-.864h-.548v.246h.548c.042 0 .07-.005.087-.017.016-.011.023-.03.023-.058v-.098c0-.027-.008-.046-.023-.057-.017-.011-.045-.016-.087-.016zm0 .416h-.548v.263h.548c.046 0 .076-.007.093-.021.016-.014.023-.038.023-.072v-.078c0-.035-.008-.059-.023-.072-.017-.014-.047-.02-.093-.02zM370.135 206.687v.838h.685v-.838h.239v.788c0 .094-.018.159-.053.193s-.103.051-.203.051h-.652c-.1 0-.167-.017-.203-.051-.035-.034-.053-.099-.053-.193v-.788h.24zM372.482 206.867h-.676v.222h.644c.101 0 .169.017.204.052.036.035.054.099.054.192v.142c0 .094-.018.158-.054.192-.035.035-.104.052-.204.052h-.638c-.101 0-.169-.017-.205-.052-.035-.035-.053-.099-.053-.192v-.028l.212-.044v.122h.729v-.235h-.644c-.101 0-.168-.017-.203-.052s-.053-.099-.053-.192v-.114c0-.094.018-.158.053-.192s.103-.052.203-.052h.586c.097 0 .164.017.2.05.037.033.056.092.056.177v.021l-.212.05v-.119zM373.493 207.719v-.462l-.536-.57h.32l.354.396.355-.396h.282l-.534.564v.468h-.241z"/></g><g fill="#212121"><path d="M368.939 230.906v-1.032h.883c.082 0 .142.016.178.047.037.032.056.083.056.153v.23c0 .07-.019.12-.056.152-.036.032-.096.047-.178.047h-.646v.402h-.237zm.776-.853h-.54v.273h.54c.042 0 .07-.006.085-.018.016-.012.023-.033.023-.064v-.11c0-.03-.008-.051-.023-.063-.015-.012-.043-.018-.085-.018zM370.674 230.906l-.397-1.032h.248l.262.692.274-.692h.168l.279.692.25-.692h.215l-.398 1.032h-.162l-.284-.714-.288.714h-.167zM372.314 230.906v-1.032h.883c.082 0 .142.016.178.047.037.032.056.083.056.153v.242c0 .07-.019.121-.056.152-.036.032-.096.048-.178.048h-.135l.477.39h-.345l-.416-.39h-.228v.39h-.236zm.776-.853h-.54v.287h.54c.042 0 .07-.006.085-.018.016-.012.023-.033.023-.064v-.124c0-.03-.008-.051-.023-.063-.015-.012-.043-.018-.085-.018z"/></g><g fill="#212121"><path d="M369.659 224.681c0-.094.018-.158.053-.192s.103-.052.203-.052h.76c.101 0 .168.017.203.052s.053.099.053.192v.544c0 .094-.018.159-.053.193s-.103.051-.203.051h-.76c-.101 0-.168-.017-.203-.051s-.053-.099-.053-.193v-.544zm.241.593h.792v-.653h-.792v.653zM371.435 225.469v-1.032h.164l.727.608c.024.02.047.039.065.057s.036.036.052.055l-.008-.123-.002-.056v-.542h.216v1.032h-.164l-.758-.638c-.019-.016-.034-.031-.048-.044s-.026-.026-.038-.04c.003.032.006.062.007.09l.003.074v.558h-.216z"/></g><g fill="#212121"><path d="M369.187 235.389c0-.094.018-.158.053-.192s.103-.052.203-.052h.76c.101 0 .168.017.203.052s.053.099.053.192v.544c0 .094-.018.159-.053.193s-.103.051-.203.051h-.76c-.101 0-.168-.017-.203-.051s-.053-.099-.053-.193v-.544zm.24.593h.792v-.653h-.792v.653zM370.964 236.177v-1.032h1.044v.181h-.804v.271h.435v.188h-.435v.392h-.24zM372.306 236.177v-1.032h1.044v.181h-.804v.271h.435v.188h-.435v.392h-.24z"/></g><g fill="#EBD335"><path d="M444.407 226.594a.68.68 0 0 1 .952-.094.743.743 0 0 1 .229.362c.503 1.732 1.009 3.463 1.512 5.195h-.891c-.14-.477-.277-.956-.415-1.434l-1.723-.001c-.141.478-.279.956-.418 1.435l-.886-.001 1.437-4.956c.056-.171.078-.365.203-.506m.524 1.061c-.211.717-.417 1.436-.626 2.154.417.002.835.001 1.252.001l-.626-2.155zM450.664 226.632a.68.68 0 0 1 .718-.264.69.69 0 0 1 .489.497l1.51 5.191c-.297.002-.595 0-.892.001l-.414-1.434h-1.72c-.137.478-.278.955-.415 1.434h-.885c.478-1.661.961-3.321 1.443-4.981.049-.15.069-.315.166-.444m-.072 3.179h1.247c-.207-.72-.417-1.439-.623-2.158-.208.719-.418 1.438-.624 2.158zM446.434 226.359h3.224v.869h-1.187v4.829h-.85v-4.829h-1.187v-.869zM454.326 226.394a.736.736 0 0 1 .255-.036h1.016c.571.01 1.115.365 1.362.878.171.334.189.721.145 1.087-.03.383-.19.766-.485 1.02-.156.139-.349.223-.516.346-.091.07-.096.205-.049.302.45.694.917 1.377 1.376 2.066-.336.001-.672-.001-1.007.001-.44-.66-.875-1.324-1.312-1.985a.733.733 0 0 1-.087-.652.614.614 0 0 1 .364-.347c.306-.117.608-.3.777-.589.129-.217.122-.485.064-.722a.703.703 0 0 0-.686-.54c-.22.002-.439-.001-.658.001-.099-.002-.193.084-.191.185v4.65h-.856l-.001-5.007a.72.72 0 0 1 .489-.658zM457.881 226.359h.901l-.001 5.699h-.9v-5.699z"/></g><path fill="#FFF" d="M469.161 232.057a2.859 2.859 0 0 1-2.855-2.855 2.859 2.859 0 0 1 2.855-2.855 2.859 2.859 0 0 1 2.855 2.855 2.859 2.859 0 0 1-2.855 2.855zm0-5.501a2.649 2.649 0 0 0-2.646 2.645 2.649 2.649 0 0 0 2.646 2.646 2.648 2.648 0 0 0 2.645-2.646 2.649 2.649 0 0 0-2.645-2.645zm0 4.591a1.947 1.947 0 0 1-1.945-1.945c0-1.072.873-1.945 1.945-1.945s1.945.872 1.945 1.945a1.948 1.948 0 0 1-1.945 1.945zm0-3.68c-.957 0-1.735.778-1.735 1.735 0 .957.778 1.735 1.735 1.735.957 0 1.735-.778 1.735-1.735 0-.957-.779-1.735-1.735-1.735zM461.853 232.057c-1.103 0-2-.897-2-2 0-.662.334-1.286.879-1.656a1.333 1.333 0 1 1 2.241 0 2 2 0 0 1-1.12 3.656zm0-5.501a1.125 1.125 0 0 0-.888 1.81l.073.094-.102.061a1.801 1.801 0 0 0-.873 1.537c0 .987.803 1.79 1.79 1.79s1.79-.803 1.79-1.79a1.8 1.8 0 0 0-.873-1.537l-.101-.061.072-.094a1.125 1.125 0 0 0-.888-1.81zm0 4.671c-.645 0-1.17-.525-1.17-1.17 0-.645.525-1.17 1.17-1.17a1.17 1.17 0 0 1 0 2.34zm0-2.13a.962.962 0 0 0-.96.96c0 .529.431.96.96.96a.96.96 0 0 0 0-1.92zm0-.83a.589.589 0 0 1 0-1.176.589.589 0 0 1 0 1.176zm0-.966a.378.378 0 1 0 0 .757.378.378 0 0 0 0-.757z"/><path fill="#FFF" d="M465.705 231.964h-1.338v-4.319c-.075-.024-.221-.042-.505-.029l-.122.006-.004-.122v-1.055l.17-.008c.616-.031 1.368-.068 1.671.22.091.087.129.23.129.352v4.955zm-1.103-.234h.87v-4.722c0-.057.003-.132-.041-.174-.255-.242-1.116-.184-1.46-.167v.711c.221-.006.454.009.581.096l.051.035v4.221z"/><path fill="#242E33" d="M470.689 220.748h-88.375a1.944 1.944 0 0 1-1.938-1.938v-17.716c0-1.066.872-1.938 1.938-1.938h88.375c1.066 0 1.938.872 1.938 1.938v17.716a1.945 1.945 0 0 1-1.938 1.938z"/><path fill="#222A33" d="M437.788 201.24h-22.573a.466.466 0 0 1-.464-.464v-1.156c0-.255.209-.464.464-.464h22.573c.255 0 .464.209.464.464v1.156a.466.466 0 0 1-.464.464z"/><path fill="#000004" d="M469.345 216.073h-85.687a.281.281 0 0 1-.281-.281v-14.271c0-.155.126-.281.281-.281h85.687c.155 0 .281.126.281.281v14.271a.281.281 0 0 1-.281.281z"/><path fill="#242E33" d="M438.446 231.147h-23.869a.576.576 0 0 1-.576-.576v-9.823h25v9.844a.555.555 0 0 1-.555.555z"/><path fill="#13161C" d="M436.116 229.208h-19.229a.428.428 0 0 1-.427-.427V223c0-.235.192-.427.427-.427h19.229c.235 0 .427.192.427.427v5.781a.428.428 0 0 1-.427.427z"/><path fill="#0E1419" d="M430.387 221.906h-7.772a.992.992 0 0 1-.989-.989v-3.855c0-.544.445-.989.989-.989h7.772c.544 0 .989.445.989.989v3.855a.992.992 0 0 1-.989.989z"/></g></svg>