<svg xmlns="http://www.w3.org/2000/svg" viewBox="0 0 131.5 131.5"><path fill="#1D1D1D" d="M119.5 131.5H12c-6.6 0-12-5.4-12-12V12C0 5.4 5.4 0 12 0h107.5c6.6 0 12 5.4 12 12v107.5c0 6.6-5.4 12-12 12z"/><path fill="#0C0D0D" d="M127.7 14.6V117c0 6.2-5 11.3-11.2 11.3H15c-6.2 0-11.2-5.1-11.2-11.3V14.6c0-6.2 5-11.3 11.2-11.3h101.6c6.1 0 11.1 5.1 11.1 11.3z"/><path fill="#040505" d="M116.6 73.2c0 28.1-22.8 50.9-50.9 50.9-28.1 0-50.9-22.8-50.9-50.9 0-10 2.9-19.3 7.9-27.2L10.6 33.5c-2.1-2.9-3.4-6.4-3.4-10.3C7.2 13.7 14.9 6 24.4 6c5.2 0 9.8 2.3 13 5.9l12 13.1c5.2-1.8 10.7-2.7 16.5-2.7 27.9 0 50.7 22.8 50.7 50.9z"/><path fill="#121312" d="M104.6 72.5c0 21.4-17.4 38.8-38.8 38.8S27 93.9 27 72.5s17.4-38.8 38.8-38.8 38.8 17.4 38.8 38.8z"/><path fill="#121312" d="M65.8 45.3c-15 0-27.2 12.2-27.2 27.2s12.2 27.2 27.2 27.2S93 87.5 93 72.5c-.1-15-12.2-27.2-27.2-27.2zm0 46.4c-10.6 0-19.2-8.6-19.2-19.2s8.6-19.2 19.2-19.2S85 61.9 85 72.5c-.1 10.6-8.7 19.2-19.2 19.2z"/><path fill="#040405" d="M65.8 38.9c-18.6 0-33.6 15.1-33.6 33.6 0 18.6 15.1 33.6 33.6 33.6 18.6 0 33.6-15.1 33.6-33.6 0-18.6-15.1-33.6-33.6-33.6zm0 60.8c-15 0-27.2-12.2-27.2-27.2s12.2-27.2 27.2-27.2S93 57.5 93 72.5c-.1 15-12.2 27.2-27.2 27.2z"/><path fill="#5D5D5D" d="M65.8 32.5c-22.1 0-40 17.9-40 40s17.9 40 40 40 40-17.9 40-40-17.9-40-40-40zm0 78.8C44.4 111.3 27 93.9 27 72.5s17.4-38.8 38.8-38.8 38.8 17.4 38.8 38.8-17.4 38.8-38.8 38.8z"/><path fill="#911A21" d="M24.2 11.1c-6.6 0-12 5.4-12 12s5.4 12 12 12 12-5.4 12-12-5.4-12-12-12z"/><path fill="#BB2127" d="M35.3 23.1c0 6.2-5 11.1-11.1 11.1-6.2 0-11.1-5-11.1-11.1S18.1 12 24.2 12c6.1-.1 11.1 4.9 11.1 11.1z"/><g fill="#E57225"><path d="M81.2 27.7l-1 2.6c-1.5-.5-3.1-.9-4.7-1.3l.4-2.7c1.8.4 3.6.8 5.3 1.4zM88.9 31.1l-1.3 2.4c-1.4-.8-2.8-1.5-4.3-2.1l1-2.6c1.5.7 3.1 1.5 4.6 2.3zM96.1 36l-1.9 2c-1.2-1-2.5-2-3.9-2.8l1.5-2.3c1.5 1 2.9 2 4.3 3.1zM101.9 41.9l-2.1 1.8c-1-1.2-2-2.3-3.1-3.4l2-1.9c1.1 1.1 2.2 2.2 3.2 3.5zM106.4 48.1l-2.5 1.2c-.7-1.2-1.4-2.3-2.2-3.4l2.2-1.7c.9 1.3 1.7 2.6 2.5 3.9zM109.9 55.3l-2.6.9c-.5-1.3-1.1-2.6-1.7-3.9L108 51c.7 1.4 1.3 2.8 1.9 4.3zM112 62.4l-2.7.5-.9-3.6 2.6-1c.4 1.4.7 2.7 1 4.1zM112 82.1c-.3 1.4-.7 2.8-1.1 4.1l-2.6-1c.4-1.2.7-2.4 1-3.7l2.7.6zM109.8 89.2c-.6 1.5-1.2 2.9-1.9 4.3l-2.4-1.4c.6-1.2 1.2-2.5 1.7-3.8l2.6.9zM106.3 96.3c-.8 1.3-1.6 2.5-2.5 3.7l-2-1.8c.8-1.1 1.5-2.2 2.2-3.3l2.3 1.4zM101.9 102.5c-1.1 1.3-2.2 2.5-3.4 3.6l-1.8-2.1c1.1-1 2.1-2.1 3-3.2l2.2 1.7zM96 108.3c-1.4 1.2-2.9 2.3-4.4 3.3l-1.2-2.4c1.3-.9 2.6-1.8 3.9-2.8l1.7 1.9zM89 113.1c-1.5.9-3.1 1.6-4.7 2.3l-1-2.6c1.5-.6 2.9-1.3 4.3-2.1l1.4 2.4zM81.2 116.6c-1.6.6-3.3 1-5 1.4l-.5-2.7c1.5-.3 3.1-.8 4.5-1.3l1 2.6zM56.7 115.3l-.5 2.7c-1.7-.4-3.4-.8-5.1-1.4l1-2.6c1.5.5 3 1 4.6 1.3zM49.1 112.9l-1 2.6c-1.6-.7-3.2-1.4-4.7-2.3l1.5-2.3c1.3.7 2.7 1.4 4.2 2zM42.1 109.2l-1.4 2.3c-1.5-1-3-2.1-4.4-3.2l1.8-2c1.2 1 2.6 2 4 2.9zM35.7 104.2l-1.9 2c-1.2-1.1-2.4-2.4-3.4-3.6l2.1-1.7c1.1 1.1 2.1 2.2 3.2 3.3zM30.6 98.3l-2.2 1.6c-.9-1.2-1.7-2.4-2.4-3.6l2.4-1.4c.6 1.3 1.4 2.4 2.2 3.4zM26.8 92.2l-2.3 1.4c-.7-1.4-1.4-2.8-1.9-4.3l2.6-.9c.4 1.3.9 2.5 1.6 3.8zM23.9 85.1l-2.5 1.1c-.4-1.3-.8-2.7-1.1-4.1l2.7-.5c.2 1.2.5 2.3.9 3.5zM23.9 59.2c-.4 1.2-.7 2.4-1 3.7l-2.7-.5c.3-1.3.6-2.7 1-4l2.7.8zM26.7 52.3c-.6 1.2-1.2 2.5-1.7 3.8l-2.6-.9c.5-1.4 1.1-2.8 1.8-4.1l2.5 1.2zM30.5 46.1c-.8 1-1.5 2.1-2.1 3.2L26 47.9c.7-1.2 1.6-2.5 2.4-3.6l2.1 1.8zM35.7 40.1c-1.1 1-2.1 2.1-3.1 3.3l-2.2-1.7c1.1-1.3 2.2-2.4 3.4-3.6l1.9 2zM42.1 35.1c-1.3.9-2.6 1.8-3.9 2.8l-1.8-2c1.3-1.1 2.8-2.2 4.2-3.1l1.5 2.3zM49.2 31.4c-1.4.6-2.9 1.3-4.2 2L43.5 31c1.4-.8 2.9-1.5 4.5-2.2l1.2 2.6zM56.7 29c-1.6.3-3.1.7-4.6 1.3L51 27.7c1.6-.6 3.3-1 5-1.4l.7 2.7z"/></g><g fill="#E16F26"><path d="M63.6 26.3H62v2.4h-.6v-2.4h-1.5V26h3.7v.3zM66.3 25.9c.7 0 1.2.1 1.6.4.4.3.6.6.6 1s-.2.8-.6 1c-.4.3-1 .4-1.6.4-.7 0-1.2-.1-1.6-.4-.4-.3-.6-.6-.6-1s.2-.8.6-1c.4-.2.9-.4 1.6-.4zm0 2.6c.5 0 .9-.1 1.2-.3.3-.2.5-.5.5-.8 0-.4-.1-.6-.5-.8-.3-.2-.7-.3-1.2-.3s-.9.1-1.2.3c-.3.2-.5.5-.5.8 0 .4.2.6.5.8.3.2.7.3 1.2.3zM69.4 26h1.8c.4 0 .7 0 1 .1.3 0 .5.1.6.3.2.1.2.3.2.5 0 .3-.2.5-.5.6-.3.1-.7.2-1.3.2H70v1.1h-.6V26zm.6 1.3h1.2c.4 0 .7 0 .9-.1.2-.1.3-.2.3-.4 0-.1 0-.2-.1-.3-.1-.1-.2-.1-.4-.2H70v1z"/></g><g fill="#E16F26"><path d="M20.3 65.8l2 .2-.3 4.5h-6.2v-.7l4.3-1.5zM20.3 78.6l2-.3-.3-4.4h-6.2v.6l4.3 1.6z"/></g><g fill="#E16F26"><path d="M111.8 78.7l-2-.3.3-4.5h6.2v.7l-4.2 1.5zM111.8 65.8l-2 .3.3 4.4h6.2v-.6l-4.2-1.6z"/></g><path fill="none" d="M65.8 86.9V58.1"/><path fill="#040405" d="M85 72.7c0 10.6-8.6 19.2-19.2 19.2s-19.2-8.6-19.2-19.2 8.6-19.2 19.2-19.2c10.6.1 19.2 8.7 19.2 19.2z"/><path fill="#171818" d="M52.4 65v15.5l13.4 7.7 13.4-7.7V65l-13.4-7.7z"/><path fill="#2F2F2F" d="M53.9 79.6V65.9L65.8 59l11.9 6.9v13.7l-11.9 6.9z"/><circle fill="#171818" cx="65.8" cy="72.7" r="4.5"/></svg>