<svg xmlns="http://www.w3.org/2000/svg" viewBox="0 0 84.801 148.562"><path fill="#E5DFDB" d="M77.398 48.562H7.417a2.13 2.13 0 0 1-2.123-2.123V2.123A2.13 2.13 0 0 1 7.417 0h69.981a2.13 2.13 0 0 1 2.123 2.123v44.315a2.129 2.129 0 0 1-2.123 2.124zm-19.08-30.974a4.108 4.108 0 1 0 0 8.215 4.108 4.108 0 0 0 0-8.215zm-31.821 0a4.108 4.108 0 1 0 0 8.215 4.108 4.108 0 0 0 0-8.215zm-2.011 25.458a1.766 1.766 0 1 0 0 3.533 1.766 1.766 0 0 0 0-3.533zm8.966 1.046v-.816a.995.995 0 0 0-.992-.992h-1.092a.995.995 0 0 0-.992.992v.816c0 .546.447.992.992.992h1.092a.994.994 0 0 0 .992-.992zm25.112.719a1.766 1.766 0 1 0 3.533 0 1.766 1.766 0 0 0-3.533 0zm-6.208.273h1.092a.995.995 0 0 0 .992-.992v-.816a.995.995 0 0 0-.992-.992h-1.092a.995.995 0 0 0-.992.992v.816a.994.994 0 0 0 .992.992zm-2.041-22.512v-5.121a.071.071 0 0 0-.071-.071H34.562a.071.071 0 0 0-.071.071v5.121c0 .039.032.071.071.071h15.682a.073.073 0 0 0 .071-.071z"/><circle fill="#A3A098" cx="7.348" cy="2.362" r="1.731"/><circle fill="#75706A" cx="7.348" cy="2.362" r="1.471"/><path fill="#C9BBB7" d="M7.989 2.755l.233.233a.115.115 0 0 1 0 .163l-.204.204a.116.116 0 0 1-.164 0l-.232-.233a.443.443 0 0 0-.628 0l-.233.233a.115.115 0 0 1-.163 0l-.204-.204a.115.115 0 0 1 0-.163l.233-.233a.444.444 0 0 0-.001-.628l-.232-.233a.115.115 0 0 1 0-.163l.204-.204a.115.115 0 0 1 .163 0l.233.233a.443.443 0 0 0 .628 0l.233-.233a.115.115 0 0 1 .163 0l.204.204a.115.115 0 0 1 0 .163l-.233.233a.445.445 0 0 0 0 .628z"/><circle fill="#A3A098" cx="7.348" cy="46.2" r="1.731"/><circle fill="#75706A" cx="7.348" cy="46.2" r="1.471"/><path fill="#C9BBB7" d="M7.989 45.807l.233-.233a.115.115 0 0 0 0-.163l-.204-.204a.115.115 0 0 0-.163 0l-.233.233a.443.443 0 0 1-.628 0l-.233-.233a.115.115 0 0 0-.163 0l-.204.204a.115.115 0 0 0 0 .163l.233.233a.443.443 0 0 1 0 .628l-.233.233a.115.115 0 0 0 0 .163l.204.204a.115.115 0 0 0 .163 0l.233-.233a.443.443 0 0 1 .628 0l.233.233a.115.115 0 0 0 .163 0l.204-.204a.115.115 0 0 0 0-.163l-.233-.233a.445.445 0 0 1 0-.628z"/><circle fill="#A3A098" cx="77.453" cy="2.348" r="1.731"/><circle fill="#75706A" cx="77.453" cy="2.348" r="1.471"/><path fill="#C9BBB7" d="M76.812 2.741l-.233.233a.115.115 0 0 0 0 .163l.204.204a.115.115 0 0 0 .163 0l.233-.233a.443.443 0 0 1 .628 0l.233.232a.115.115 0 0 0 .163 0l.204-.204a.115.115 0 0 0 0-.163l-.233-.233a.443.443 0 0 1 0-.628l.233-.233a.115.115 0 0 0 0-.163l-.204-.204a.115.115 0 0 0-.163 0l-.233.233a.443.443 0 0 1-.628 0l-.233-.233a.115.115 0 0 0-.163 0l-.204.204a.115.115 0 0 0 0 .163l.233.233a.444.444 0 0 1 0 .629z"/><circle fill="#A3A098" cx="77.453" cy="46.185" r="1.731"/><circle fill="#75706A" cx="77.453" cy="46.185" r="1.471"/><g fill="#9C9A96"><path d="M25.826 18.851l-.868.36a.065.065 0 0 1-.085-.035l-.444-1.07.988-.41.444 1.07a.065.065 0 0 1-.035.085zM27.169 24.541l.868-.36a.065.065 0 0 1 .085.035l.444 1.07-.988.41-.444-1.07a.065.065 0 0 1 .035-.085zM23.698 20.855l-.122.932a.065.065 0 0 1-.073.056l-1.148-.15.139-1.061 1.148.15a.066.066 0 0 1 .056.073zM29.297 22.537l.122-.932a.065.065 0 0 1 .073-.056l1.148.15-.139 1.061-1.148-.15a.065.065 0 0 1-.056-.073zM24.37 23.7l.746.572a.064.064 0 0 1 .012.091l-.704.919-.849-.651.704-.919a.065.065 0 0 1 .091-.012zM28.625 19.692l-.746-.572a.064.064 0 0 1-.012-.091l.704-.919.849.651-.704.919a.065.065 0 0 1-.091.012z"/></g><g fill="#9C9A96"><path d="M58.788 18.811h-.94a.065.065 0 0 1-.065-.065v-1.158h1.07v1.158a.065.065 0 0 1-.065.065zM57.848 24.581h.94c.036 0 .065.029.065.065v1.158h-1.07v-1.158c0-.036.029-.065.065-.065zM56.055 19.846l-.47.814a.065.065 0 0 1-.089.024l-1.003-.579.535-.927 1.003.579a.066.066 0 0 1 .024.089zM60.582 23.545l.47-.814a.065.065 0 0 1 .089-.024l1.003.579-.535.927-1.003-.579a.064.064 0 0 1-.024-.089zM55.585 22.732l.47.814a.065.065 0 0 1-.024.089l-1.003.579-.535-.927 1.003-.579a.065.065 0 0 1 .089.024zM61.052 20.66l-.47-.814a.065.065 0 0 1 .024-.089l1.003-.579.535.927-1.003.579a.065.065 0 0 1-.089-.024z"/></g><path fill="#C9BBB7" d="M76.812 45.793l-.233-.233a.115.115 0 0 1 0-.163l.204-.204a.115.115 0 0 1 .163 0l.233.233a.443.443 0 0 0 .628 0l.233-.233a.115.115 0 0 1 .163 0l.204.204a.115.115 0 0 1 0 .163l-.233.233a.443.443 0 0 0 0 .628l.233.233a.115.115 0 0 1 0 .163l-.204.204a.115.115 0 0 1-.163 0l-.233-.233a.443.443 0 0 0-.628 0l-.233.233a.115.115 0 0 1-.163 0l-.204-.204a.115.115 0 0 1 0-.163l.233-.233a.443.443 0 0 0 0-.628z"/><path fill="#C5C5C5" d="M5.294 44.608V31.575s-.969.696-.969.963v11.108c-.001.266.969.962.969.962zM79.507 44.594V31.56s.969.696.969.963v11.108c.001.267-.969.963-.969.963z"/><path fill="#272020" d="M26.497 11.569c5.593 0 10.127 4.534 10.127 10.127S32.09 31.823 26.497 31.823 16.37 27.289 16.37 21.696s4.535-10.127 10.127-10.127zm0 6.019a4.108 4.108 0 1 0 0 8.215 4.108 4.108 0 0 0 0-8.215z"/><path fill="#DDD8D4" d="M42.408 3.557h30.508a.42.42 0 0 1 .297.123l2.66 2.66a.42.42 0 0 1 .123.297v28.395a.42.42 0 0 1-.42.42H9.24a.42.42 0 0 1-.42-.42V6.637a.42.42 0 0 1 .123-.297l2.66-2.66a.42.42 0 0 1 .297-.123h30.508zM26.497 17.588a4.108 4.108 0 1 0 0 8.215 4.108 4.108 0 0 0 0-8.215zm31.821 0a4.108 4.108 0 1 0 0 8.215 4.108 4.108 0 0 0 0-8.215zm-8.003 4.984v-5.121a.071.071 0 0 0-.071-.071H34.562a.071.071 0 0 0-.071.071v5.121c0 .039.032.071.071.071h15.682a.073.073 0 0 0 .071-.071z"/><path fill="#000302" d="M21.721 18.387a5.82 5.82 0 0 1 4.776-2.507h31.821c1.965 0 3.711.988 4.765 2.491l12.443.002V7.988c0-.33-.131-.646-.364-.88l-2.141-2.141a1.245 1.245 0 0 0-.88-.364H42.408 12.674c-.33 0-.646.131-.88.364l-2.14 2.142c-.233.233-.364.55-.364.879v10.446l12.431-.047z"/><path fill="#F3EDE3" d="M21.716 18.383a5.816 5.816 0 0 0 4.781 9.129h31.821a5.816 5.816 0 0 0 4.77-9.145h12.438V33.166c0 .684-.557 1.239-1.244 1.239H10.534a1.242 1.242 0 0 1-1.244-1.239V18.434h12.426"/><g fill="#C5C5C5"><path d="M33.655 25.061h-.005l-.265.155-.04-.171.333-.194h.176v1.656h-.199v-1.446zM35.42 25.662c0 .563-.193.874-.53.874-.298 0-.499-.303-.504-.851 0-.555.22-.861.53-.861.321 0 .504.311.504.838zm-.828.025c0 .43.122.675.309.675.211 0 .312-.267.312-.69 0-.408-.096-.675-.309-.675-.18 0-.312.24-.312.69zM36.62 25.662c0 .563-.192.874-.529.874-.298 0-.499-.303-.504-.851 0-.555.22-.861.53-.861.32 0 .503.311.503.838zm-.828.025c0 .43.122.675.309.675.211 0 .312-.267.312-.69 0-.408-.096-.675-.309-.675-.18 0-.312.24-.312.69z"/></g><g fill="#C5C5C5"><path d="M42.264 25.04h-.581l-.058.425c.035-.005.068-.01.124-.01.118 0 .234.028.328.089a.48.48 0 0 1 .218.426.55.55 0 0 1-.567.565.7.7 0 0 1-.38-.102l.052-.171a.64.64 0 0 0 .326.092.349.349 0 0 0 .361-.359c-.002-.214-.133-.367-.438-.367-.087 0-.155.01-.211.018l.098-.795h.729v.189zM43.568 25.662c0 .563-.193.874-.53.874-.298 0-.499-.303-.504-.851 0-.555.22-.861.53-.861.32 0 .504.311.504.838zm-.828.025c0 .43.122.675.309.675.211 0 .312-.267.312-.69 0-.408-.096-.675-.309-.675-.181 0-.312.24-.312.69z"/></g><path fill="#C5C5C5" d="M50.315 25.662c0 .563-.192.874-.529.874-.298 0-.499-.303-.504-.851 0-.555.22-.861.53-.861.32 0 .503.311.503.838zm-.828.025c0 .43.122.675.309.675.211 0 .312-.267.312-.69 0-.408-.096-.675-.309-.675-.18 0-.312.24-.312.69zM35.092 24.589h-.132a.058.058 0 0 1-.057-.057v-1.563c0-.031.026-.057.057-.057h.131c.031 0 .057.026.057.057v1.563a.056.056 0 0 1-.056.057zM36.583 23.882h-.159a.044.044 0 0 1-.044-.044v-.883c0-.024.02-.044.044-.044h.159c.024 0 .044.02.044.044v.883a.045.045 0 0 1-.044.044zM38.06 23.882h-.159a.044.044 0 0 1-.044-.044v-.883c0-.024.02-.044.044-.044h.159c.024 0 .044.02.044.044v.883a.045.045 0 0 1-.044.044zM39.537 23.882h-.159a.044.044 0 0 1-.044-.044v-.883c0-.024.02-.044.044-.044h.159c.024 0 .044.02.044.044v.883c0 .024-.02.044-.044.044zM41.014 23.882h-.159a.044.044 0 0 1-.044-.044v-.883c0-.024.02-.044.044-.044h.159c.024 0 .044.02.044.044v.883c0 .024-.02.044-.044.044zM42.477 24.589h-.131a.058.058 0 0 1-.057-.057v-1.563c0-.031.026-.057.057-.057h.131c.031 0 .057.026.057.057v1.563a.056.056 0 0 1-.057.057zM49.732 24.589h.131a.058.058 0 0 0 .057-.057v-1.563a.058.058 0 0 0-.057-.057h-.131a.058.058 0 0 0-.057.057v1.563c0 .031.025.057.057.057zM48.241 23.882h.159c.024 0 .044-.02.044-.044v-.883a.044.044 0 0 0-.044-.044h-.159a.044.044 0 0 0-.044.044v.883c0 .024.02.044.044.044zM46.764 23.882h.159c.024 0 .044-.02.044-.044v-.883a.044.044 0 0 0-.044-.044h-.159a.044.044 0 0 0-.044.044v.883c0 .024.02.044.044.044zM45.286 23.882h.159c.024 0 .044-.02.044-.044v-.883a.044.044 0 0 0-.044-.044h-.159a.044.044 0 0 0-.044.044v.883c.001.024.02.044.044.044zM43.809 23.882h.159c.024 0 .044-.02.044-.044v-.883a.044.044 0 0 0-.044-.044h-.159a.044.044 0 0 0-.044.044v.883c.001.024.02.044.044.044z"/><g fill="#1B1918"><path d="M12.399 33.03a.623.623 0 0 1-1.165.312.614.614 0 0 1 0-.623.623.623 0 0 1 1.165.311zm-.129.003a.476.476 0 0 0-.145-.351.474.474 0 0 0-.35-.145.494.494 0 0 0-.43.737.488.488 0 0 0 .428.246.49.49 0 0 0 .248-.066.489.489 0 0 0 .249-.421zm-.315.112h.143a.266.266 0 0 1-.096.176.304.304 0 0 1-.202.069.33.33 0 0 1-.251-.103.375.375 0 0 1-.098-.268c0-.107.032-.193.097-.259a.332.332 0 0 1 .247-.1c.081 0 .147.021.199.061.052.041.087.1.103.177h-.143a.158.158 0 0 0-.056-.093.158.158 0 0 0-.102-.033.19.19 0 0 0-.149.066.258.258 0 0 0-.058.178c0 .077.021.14.062.187a.188.188 0 0 0 .148.071.152.152 0 0 0 .104-.037.126.126 0 0 0 .052-.092zM13.134 32.448h.342v1.199h-.227v-.985h-.247l.132-.214zM14.245 33.678l-.194-.096.21-.408a.349.349 0 0 1-.26-.109.373.373 0 0 1-.107-.271c0-.105.036-.193.11-.266a.363.363 0 0 1 .264-.109.36.36 0 0 1 .27.113.364.364 0 0 1 .091.37 1.086 1.086 0 0 1-.077.172l-.307.604zm.028-.721a.14.14 0 0 0 .107-.047.161.161 0 0 0 .043-.115.163.163 0 0 0-.045-.117.146.146 0 0 0-.214 0 .158.158 0 0 0-.046.117c0 .046.015.084.044.115.03.032.067.047.111.047zM15.442 32.997a.363.363 0 0 1 .17.311.37.37 0 0 1-.052.192.327.327 0 0 1-.139.132.483.483 0 0 1-.223.045.517.517 0 0 1-.231-.043.329.329 0 0 1-.137-.13.38.38 0 0 1-.052-.196.367.367 0 0 1 .164-.311.382.382 0 0 1-.081-.116.336.336 0 0 1 .018-.301.313.313 0 0 1 .127-.12.404.404 0 0 1 .188-.043.38.38 0 0 1 .185.043.332.332 0 0 1 .148.413.377.377 0 0 1-.085.124zm-.244.122a.2.2 0 0 0-.138.05.154.154 0 0 0-.056.12c0 .048.018.089.053.123.035.033.082.05.139.05a.2.2 0 0 0 .139-.047.155.155 0 0 0 .052-.121.162.162 0 0 0-.054-.124.189.189 0 0 0-.135-.051zm-.009-.481a.123.123 0 0 0-.093.037c-.024.025-.036.056-.036.095s.013.071.038.097a.128.128 0 0 0 .094.039.128.128 0 0 0 .132-.137.122.122 0 0 0-.038-.094.126.126 0 0 0-.097-.037zM15.981 32.744h-.219a.358.358 0 0 1 .37-.326c.098 0 .181.031.247.094.067.062.1.137.1.223a.253.253 0 0 1-.044.146.308.308 0 0 1-.127.107.308.308 0 0 1 .233.305c0 .107-.04.199-.119.273a.422.422 0 0 1-.303.112.394.394 0 0 1-.285-.106.41.41 0 0 1-.12-.287h.226c.01.062.031.108.065.138.033.03.075.045.127.045a.179.179 0 0 0 .132-.052.169.169 0 0 0 .053-.125.17.17 0 0 0-.071-.138.324.324 0 0 0-.204-.058V32.9a.355.355 0 0 0 .123-.026.15.15 0 0 0 .063-.053.125.125 0 0 0 .023-.071.108.108 0 0 0-.034-.081.124.124 0 0 0-.09-.032.147.147 0 0 0-.089.03.14.14 0 0 0-.057.077zM17.569 32.448h.231l.461 1.199h-.237l-.094-.247h-.489l-.097.247h-.237l.462-1.199zm.117.318l-.161.411h.321l-.16-.411zM18.319 32.448h.662v.225h-.218v.974h-.232v-.974h-.213v-.225zM19.504 32.448h.232l.461 1.199h-.237l-.094-.247h-.489l-.097.247h-.237l.461-1.199zm.118.318l-.161.411h.321l-.16-.411zM20.389 32.448h.242a.79.79 0 0 1 .283.036.292.292 0 0 1 .136.118c.034.055.051.12.051.195a.331.331 0 0 1-.057.198.344.344 0 0 1-.171.12l.284.533h-.25l-.27-.508h-.021v.508h-.228v-1.2zm.228.469h.072c.072 0 .123-.01.15-.028.027-.019.041-.051.041-.095a.119.119 0 0 0-.02-.068.115.115 0 0 0-.054-.041.396.396 0 0 0-.125-.013h-.063v.245zM21.326 32.448h.226v1.199h-.226v-1.199zM21.891 33.422l.159.08-.202.344-.111-.053.154-.371zM22.727 32.448h.226v1.199h-.226v-1.199zM23.211 32.448h.219l.513.789v-.789h.228v1.199h-.219l-.512-.787v.787h-.228v-1.199zM25.547 32.659l-.159.152a.494.494 0 0 0-.366-.172.393.393 0 0 0-.29.118.391.391 0 0 0-.118.29c0 .08.017.151.052.213a.371.371 0 0 0 .148.146.452.452 0 0 0 .394.016.664.664 0 0 0 .181-.135l.155.162a.853.853 0 0 1-.251.18.695.695 0 0 1-.27.05.623.623 0 0 1-.458-.177.613.613 0 0 1-.178-.454.596.596 0 0 1 .313-.543.65.65 0 0 1 .326-.085.695.695 0 0 1 .521.239zM25.844 33.415c.035 0 .065.012.091.037a.123.123 0 0 1 .038.09.125.125 0 0 1-.038.091.124.124 0 0 1-.091.038.122.122 0 0 1-.091-.038.124.124 0 0 1-.038-.091.12.12 0 0 1 .038-.09.123.123 0 0 1 .091-.037zM27.046 32.448h.232l.461 1.199h-.237l-.094-.247h-.489l-.097.247h-.237l.461-1.199zm.118.318l-.161.411h.321l-.16-.411zM27.916 32.448h.228v.982h.333v.217h-.561v-1.199zM28.65 32.448h.228v.982h.333v.217h-.561v-1.199zM29.867 32.448h.242a.79.79 0 0 1 .283.036.292.292 0 0 1 .136.118c.034.055.051.12.051.195a.331.331 0 0 1-.057.198.344.344 0 0 1-.171.12l.284.533h-.25l-.27-.508h-.021v.508h-.228v-1.2zm.228.469h.072c.072 0 .123-.01.15-.028.027-.019.041-.051.041-.095a.119.119 0 0 0-.02-.068.115.115 0 0 0-.054-.041.396.396 0 0 0-.125-.013h-.063v.245zM30.804 32.448h.226v1.199h-.226v-1.199zM32.394 32.644l-.161.159a.477.477 0 0 0-.356-.161.405.405 0 0 0-.292.696c.083.08.185.121.306.121a.374.374 0 0 0 .199-.05.348.348 0 0 0 .131-.156h-.347v-.214h.603l.001.05a.58.58 0 0 1-.082.298.566.566 0 0 1-.211.215.608.608 0 0 1-.304.074.678.678 0 0 1-.333-.081.592.592 0 0 1-.232-.231.642.642 0 0 1 .072-.737.618.618 0 0 1 .486-.21c.104 0 .202.019.292.058.079.034.154.09.228.169zM32.688 32.448h.232v.453h.4v-.453h.231v1.199h-.231v-.526h-.4v.526h-.232v-1.199zM33.706 32.448h.662v.225h-.218v.974h-.232v-.974h-.213v-.225zM35.155 32.611l-.169.149c-.06-.083-.12-.124-.181-.124a.113.113 0 0 0-.074.024c-.019.016-.028.034-.028.054 0 .02.007.039.021.057a1.5 1.5 0 0 0 .167.154c.087.073.14.119.158.138a.473.473 0 0 1 .098.134.34.34 0 0 1 .029.14c0 .098-.034.18-.102.244a.373.373 0 0 1-.266.096.394.394 0 0 1-.223-.063.503.503 0 0 1-.163-.197l.192-.116c.058.106.124.159.199.159a.147.147 0 0 0 .099-.034.1.1 0 0 0 .04-.079.14.14 0 0 0-.03-.082.9.9 0 0 0-.133-.125 1.34 1.34 0 0 1-.253-.246.315.315 0 0 1-.057-.173c0-.083.031-.154.095-.214s.142-.089.235-.089c.06 0 .117.014.171.041a.668.668 0 0 1 .175.152zM35.876 32.448h.242a.79.79 0 0 1 .283.036.292.292 0 0 1 .136.118c.034.055.051.12.051.195a.331.331 0 0 1-.057.198.344.344 0 0 1-.171.12l.284.533h-.25l-.27-.508h-.021v.508h-.228v-1.2zm.228.469h.072c.072 0 .123-.01.15-.028.027-.019.041-.051.041-.095a.119.119 0 0 0-.02-.068.115.115 0 0 0-.054-.041.396.396 0 0 0-.125-.013h-.063v.245zM36.829 32.448h.655v.224h-.428v.217h.428v.219h-.428v.315h.428v.224h-.655v-1.199zM38.326 32.611l-.169.149c-.06-.083-.12-.124-.181-.124a.113.113 0 0 0-.074.024c-.019.016-.028.034-.028.054 0 .02.007.039.021.057a1.5 1.5 0 0 0 .167.154c.087.073.14.119.158.138a.473.473 0 0 1 .098.134.34.34 0 0 1 .029.14c0 .098-.034.18-.102.244a.373.373 0 0 1-.266.096.394.394 0 0 1-.223-.063.503.503 0 0 1-.163-.197l.192-.116c.058.106.124.159.199.159a.147.147 0 0 0 .099-.034.1.1 0 0 0 .04-.079.14.14 0 0 0-.03-.082.9.9 0 0 0-.133-.125 1.34 1.34 0 0 1-.253-.246.315.315 0 0 1-.057-.173c0-.083.031-.154.095-.214s.142-.089.235-.089c.06 0 .117.014.171.041a.668.668 0 0 1 .175.152zM38.566 32.448h.655v.224h-.428v.217h.428v.219h-.428v.315h.428v.224h-.655v-1.199zM39.448 32.448h.242a.79.79 0 0 1 .283.036.292.292 0 0 1 .136.118c.034.055.051.12.051.195a.331.331 0 0 1-.057.198.344.344 0 0 1-.171.12l.284.533h-.25l-.27-.508h-.021v.508h-.228v-1.2zm.228.469h.072c.072 0 .123-.01.15-.028.027-.019.041-.051.041-.095a.119.119 0 0 0-.02-.068.115.115 0 0 0-.054-.041.396.396 0 0 0-.125-.013h-.063v.245zM40.31 32.448h.234l.302.852.306-.852h.234l-.432 1.199h-.22l-.424-1.199zM41.571 32.448h.655v.224h-.428v.217h.428v.219h-.428v.315h.428v.224h-.655v-1.199zM42.439 32.448h.27c.174 0 .304.022.388.065a.506.506 0 0 1 .209.211.68.68 0 0 1 .082.341.684.684 0 0 1-.046.255.528.528 0 0 1-.127.193.46.46 0 0 1-.175.106 1.277 1.277 0 0 1-.327.029h-.274v-1.2zm.226.221v.756h.106a.53.53 0 0 0 .227-.036.273.273 0 0 0 .115-.12.442.442 0 0 0 .045-.209.398.398 0 0 0-.107-.296c-.064-.063-.167-.094-.309-.094h-.077z"/></g><g fill="#E4D8CD"><path d="M19.686 13.518a.587.587 0 0 1-.594.593.585.585 0 0 1-.514-.296.585.585 0 0 1-.079-.297.594.594 0 0 1 1.187 0zm-.123.003a.454.454 0 0 0-.138-.334.453.453 0 0 0-.333-.137.467.467 0 0 0-.472.469.463.463 0 0 0 .235.404.466.466 0 0 0 .471 0 .456.456 0 0 0 .173-.17.449.449 0 0 0 .064-.232zm-.3.107h.136a.256.256 0 0 1-.091.167.287.287 0 0 1-.192.066.317.317 0 0 1-.239-.098.356.356 0 0 1-.093-.255.34.34 0 0 1 .092-.246.314.314 0 0 1 .235-.095c.077 0 .14.019.19.058a.284.284 0 0 1 .098.169h-.136a.15.15 0 0 0-.053-.088.15.15 0 0 0-.097-.031.184.184 0 0 0-.142.062.246.246 0 0 0-.056.169c0 .074.019.133.059.178a.182.182 0 0 0 .141.068.148.148 0 0 0 .099-.035.13.13 0 0 0 .049-.089zM22.162 12.965h.325v1.141h-.215v-.937h-.235l.125-.204zM23.218 14.134l-.185-.092.2-.388a.353.353 0 0 1-.349-.362c0-.1.035-.184.105-.253a.343.343 0 0 1 .251-.104c.103 0 .189.036.257.107a.348.348 0 0 1 .087.353c-.011.035-.035.09-.073.164l-.293.575zm.027-.685c.04 0 .074-.015.102-.044a.157.157 0 0 0 .041-.109.152.152 0 0 0-.043-.111.133.133 0 0 0-.1-.045.143.143 0 0 0-.104.044.153.153 0 0 0-.043.111c0 .044.014.08.042.11a.14.14 0 0 0 .105.044zM24.357 13.487a.35.35 0 0 1 .163.297c0 .066-.017.127-.049.182s-.077.098-.132.126a.47.47 0 0 1-.212.043.502.502 0 0 1-.22-.041.314.314 0 0 1-.13-.123.367.367 0 0 1 .108-.483.373.373 0 0 1-.077-.11.312.312 0 0 1 .017-.286.3.3 0 0 1 .12-.114.381.381 0 0 1 .179-.041c.067 0 .126.014.176.041a.32.32 0 0 1 .164.278.287.287 0 0 1-.023.114.44.44 0 0 1-.084.117zm-.232.116a.192.192 0 0 0-.132.048.147.147 0 0 0-.053.114c0 .046.017.085.05.117a.186.186 0 0 0 .133.048.189.189 0 0 0 .132-.045.148.148 0 0 0 .049-.115.154.154 0 0 0-.051-.118.177.177 0 0 0-.128-.049zm-.008-.457a.119.119 0 0 0-.123.125c0 .036.012.067.036.092a.12.12 0 0 0 .09.037.12.12 0 0 0 .09-.036.132.132 0 0 0 .035-.094.118.118 0 0 0-.036-.089c-.022-.024-.053-.035-.092-.035zM24.83 12.965h.325v1.141h-.215v-.937h-.235l.125-.204zM25.666 13.891l.151.076-.191.327-.106-.05.146-.353zM26.824 12.965h.22l.439 1.141h-.226l-.089-.235h-.466l-.093.235h-.226l.441-1.141zm.112.302l-.153.392h.305l-.152-.392zM27.538 12.965h.63v.214h-.208v.926h-.22v-.926h-.203v-.214zM28.666 12.965h.22l.439 1.141h-.226l-.089-.235h-.466l-.093.235h-.226l.441-1.141zm.111.302l-.153.392h.305l-.152-.392zM29.507 12.965h.23c.126 0 .216.012.269.034.053.022.096.06.129.112a.347.347 0 0 1 .049.185.314.314 0 0 1-.054.188.33.33 0 0 1-.163.114l.27.507H30l-.256-.483h-.02v.483h-.217v-1.14zm.217.446h.068c.069 0 .116-.009.142-.027.026-.018.039-.048.039-.09a.108.108 0 0 0-.071-.105.395.395 0 0 0-.119-.012h-.06v.234zM30.398 12.965h.216v1.141h-.216v-1.141zM30.936 13.891l.151.076-.191.327-.106-.05.146-.353zM31.731 12.965h.216v1.141h-.216v-1.141zM32.191 12.965h.209l.488.751v-.751h.217v1.141h-.209l-.488-.748v.748h-.217v-1.141zM34.414 13.165l-.152.145a.472.472 0 0 0-.349-.164.375.375 0 0 0-.275.112.375.375 0 0 0-.112.276.41.41 0 0 0 .05.203.36.36 0 0 0 .14.139.4.4 0 0 0 .201.05c.063 0 .12-.012.173-.035a.603.603 0 0 0 .172-.128l.147.154a.812.812 0 0 1-.239.171.647.647 0 0 1-.257.048.589.589 0 0 1-.435-.169.583.583 0 0 1-.169-.432c0-.114.026-.215.077-.303a.62.62 0 0 1 .531-.293c.094 0 .185.02.272.06a.628.628 0 0 1 .225.166zM34.696 13.885a.12.12 0 0 1 .086.035.115.115 0 0 1 .036.086.116.116 0 0 1-.036.086c-.024.024-.053.036-.086.036s-.062-.012-.086-.036a.115.115 0 0 1-.035-.086.12.12 0 0 1 .121-.121zM36.635 14.106v-1.141h.179a.95.95 0 0 1 .228.02.302.302 0 0 1 .163.101c.04.049.061.107.061.173a.253.253 0 0 1-.116.218c.069.033.12.074.152.122a.31.31 0 0 1 .048.173.332.332 0 0 1-.049.175.315.315 0 0 1-.128.118.49.49 0 0 1-.216.039h-.322zm.217-.934v.241h.048c.053 0 .092-.011.118-.034a.112.112 0 0 0 .039-.091.104.104 0 0 0-.037-.085c-.024-.021-.061-.031-.111-.031h-.057zm0 .434v.292h.054c.09 0 .151-.012.182-.034s.047-.056.047-.099a.137.137 0 0 0-.055-.116c-.037-.028-.098-.043-.184-.043h-.044zM37.904 12.965h.22l.439 1.141h-.226l-.089-.235h-.466l-.093.235h-.226l.441-1.141zm.112.302l-.153.392h.305l-.152-.392zM39.329 13.12l-.161.142c-.056-.079-.114-.118-.172-.118a.107.107 0 0 0-.07.023c-.018.016-.027.032-.027.052 0 .019.006.038.019.054.017.023.071.071.159.146.083.069.133.113.151.131a.444.444 0 0 1 .093.127.327.327 0 0 1 .028.133.305.305 0 0 1-.097.232.355.355 0 0 1-.253.092.374.374 0 0 1-.212-.06.464.464 0 0 1-.155-.188l.182-.11c.055.101.118.151.19.151a.138.138 0 0 0 .094-.033.099.099 0 0 0 .038-.075.133.133 0 0 0-.029-.078.773.773 0 0 0-.127-.119 1.304 1.304 0 0 1-.241-.235.299.299 0 0 1-.054-.164c0-.079.03-.147.09-.204a.312.312 0 0 1 .223-.085c.057 0 .111.013.163.039a.616.616 0 0 1 .168.147zM39.541 12.965h.216v1.141h-.216v-1.141zM41.049 13.165l-.152.145a.472.472 0 0 0-.349-.164.375.375 0 0 0-.275.112.375.375 0 0 0-.112.276.41.41 0 0 0 .05.203.36.36 0 0 0 .14.139.4.4 0 0 0 .201.05c.063 0 .12-.012.173-.035a.603.603 0 0 0 .172-.128l.147.154a.812.812 0 0 1-.239.171.647.647 0 0 1-.257.048.589.589 0 0 1-.435-.169.583.583 0 0 1-.169-.432c0-.114.026-.215.077-.303a.62.62 0 0 1 .531-.293c.094 0 .185.02.272.06a.611.611 0 0 1 .225.166zM42.732 13.165l-.152.145a.472.472 0 0 0-.349-.164.375.375 0 0 0-.275.112.375.375 0 0 0-.112.276.41.41 0 0 0 .05.203.36.36 0 0 0 .14.139.4.4 0 0 0 .201.05c.063 0 .12-.012.173-.035a.603.603 0 0 0 .172-.128l.147.154a.812.812 0 0 1-.239.171.647.647 0 0 1-.257.048.589.589 0 0 1-.435-.169.583.583 0 0 1-.169-.432c0-.114.026-.215.077-.303a.62.62 0 0 1 .531-.293c.094 0 .185.02.272.06a.611.611 0 0 1 .225.166zM43.27 12.965h.22l.439 1.141h-.226l-.089-.235h-.466l-.093.235h-.225l.44-1.141zm.111.302l-.153.392h.305l-.152-.392zM44.111 12.965h.23c.126 0 .216.012.269.034.053.022.096.06.129.112a.347.347 0 0 1 .049.185.314.314 0 0 1-.054.188.33.33 0 0 1-.163.114l.27.507h-.237l-.256-.483h-.02v.483h-.217v-1.14zm.217.446h.068c.069 0 .116-.009.142-.027.026-.018.039-.048.039-.09a.108.108 0 0 0-.071-.105.395.395 0 0 0-.119-.012h-.06v.234zM44.905 12.965h.63v.214h-.208v.926h-.22v-.926h-.203v-.214zM45.699 12.965h.23c.126 0 .216.012.269.034s.096.06.129.112a.347.347 0 0 1 .049.185.314.314 0 0 1-.054.188.33.33 0 0 1-.163.114l.27.507h-.237l-.256-.483h-.02v.483h-.217v-1.14zm.217.446h.068c.069 0 .116-.009.142-.027.026-.018.039-.048.039-.09a.108.108 0 0 0-.071-.105.395.395 0 0 0-.119-.012h-.06v.234zM46.59 12.965h.216v1.141h-.216v-1.141zM47.05 12.965h.257c.166 0 .289.021.369.062a.476.476 0 0 1 .199.201.653.653 0 0 1 .078.324.635.635 0 0 1-.044.242.496.496 0 0 1-.121.183.431.431 0 0 1-.167.101 1.22 1.22 0 0 1-.312.028h-.259v-1.141zm.216.209v.719h.101a.503.503 0 0 0 .216-.034.256.256 0 0 0 .11-.115.427.427 0 0 0 .043-.199.378.378 0 0 0-.102-.282c-.061-.06-.159-.09-.294-.09h-.074zM49.215 13.151l-.153.151a.455.455 0 0 0-.338-.154.387.387 0 0 0-.396.383c0 .11.039.203.118.28a.405.405 0 0 0 .291.115.364.364 0 0 0 .19-.047.323.323 0 0 0 .124-.148h-.33v-.204h.574l.002.048c0 .1-.026.194-.078.284a.55.55 0 0 1-.201.205.573.573 0 0 1-.289.071.65.65 0 0 1-.317-.077c-.093-.052-.166-.125-.22-.22s-.081-.198-.081-.308c0-.151.05-.282.15-.394a.59.59 0 0 1 .462-.199.63.63 0 0 1 .492.214zM49.496 12.965h.623v.212h-.407v.206h.407v.209h-.407v.3h.407v.213h-.623v-1.14zM51.814 13.165l-.152.145a.472.472 0 0 0-.349-.164.375.375 0 0 0-.275.112.375.375 0 0 0-.112.276.41.41 0 0 0 .05.203.36.36 0 0 0 .14.139.4.4 0 0 0 .201.05c.063 0 .12-.012.173-.035a.603.603 0 0 0 .172-.128l.147.154a.812.812 0 0 1-.239.171.647.647 0 0 1-.257.048.589.589 0 0 1-.435-.169.583.583 0 0 1-.169-.432c0-.114.026-.215.077-.303a.62.62 0 0 1 .531-.293c.094 0 .185.02.272.06a.628.628 0 0 1 .225.166zM51.93 12.965h.244l.24.366.24-.366h.244l-.362.553.385.587h-.245l-.263-.401-.262.401h-.246l.386-.588-.361-.552zM53.084 12.965h.217v.934h.316v.207h-.533v-1.141zM54.179 12.936h.216v.734h.101v.201h-.101v.234h-.212v-.234h-.498v-.201l.494-.734zm.004.735v-.382l-.261.382h.261zM54.982 12.936c.083 0 .155.02.215.061.06.041.107.103.14.187s.049.201.049.351a.998.998 0 0 1-.05.353c-.034.084-.078.146-.135.186s-.128.06-.213.06a.372.372 0 0 1-.216-.06.392.392 0 0 1-.137-.181.957.957 0 0 1-.049-.347c0-.21.032-.361.097-.455a.345.345 0 0 1 .299-.155zm.006.207a.15.15 0 0 0-.097.035.23.23 0 0 0-.065.121 1.064 1.064 0 0 0-.022.252c0 .144.017.244.051.299.034.055.079.083.133.083.053 0 .094-.026.126-.079.038-.063.057-.168.057-.316 0-.15-.017-.253-.051-.31-.035-.057-.079-.085-.132-.085zM55.872 12.936c.083 0 .155.02.215.061.06.041.107.103.14.187s.049.201.049.351a.998.998 0 0 1-.05.353.402.402 0 0 1-.135.186.36.36 0 0 1-.213.06.372.372 0 0 1-.216-.06.392.392 0 0 1-.137-.181.957.957 0 0 1-.049-.347c0-.21.032-.361.097-.455a.343.343 0 0 1 .299-.155zm.005.207a.15.15 0 0 0-.097.035.23.23 0 0 0-.065.121 1.064 1.064 0 0 0-.022.252c0 .144.017.244.051.299.034.055.079.083.133.083.053 0 .094-.026.125-.079.038-.063.057-.168.057-.316 0-.15-.017-.253-.051-.31-.034-.057-.077-.085-.131-.085zM56.597 13.332h-.212a.411.411 0 0 1 .116-.29.379.379 0 0 1 .276-.106c.069 0 .131.014.184.044a.323.323 0 0 1 .127.127.33.33 0 0 1 .048.168.491.491 0 0 1-.058.219 1.177 1.177 0 0 1-.211.277l-.128.135h.406v.201h-.79v-.104l.353-.36c.085-.086.142-.155.17-.208a.307.307 0 0 0 .042-.142.148.148 0 0 0-.044-.109.157.157 0 0 0-.113-.043.147.147 0 0 0-.116.052.202.202 0 0 0-.05.139zM57.799 12.965h.23c.126 0 .216.012.269.034s.096.06.129.112a.347.347 0 0 1 .049.185.314.314 0 0 1-.054.188.33.33 0 0 1-.163.114l.27.507h-.237l-.256-.483h-.02v.483h-.217v-1.14zm.217.446h.068c.069 0 .116-.009.142-.027.026-.018.039-.048.039-.09a.108.108 0 0 0-.071-.105.395.395 0 0 0-.119-.012h-.06v.234zM58.706 12.965h.623v.212h-.407v.206h.407v.209h-.407v.3h.407v.213h-.623v-1.14zM60.509 13.939l.199.256h-.257l-.101-.129a.577.577 0 0 1-.279.069.567.567 0 0 1-.427-.177.586.586 0 0 1-.17-.422.589.589 0 0 1 .296-.518.59.59 0 0 1 .715.095.583.583 0 0 1 .174.427.572.572 0 0 1-.15.399zm-.135-.175a.396.396 0 0 0 .069-.226.38.38 0 0 0-.11-.275.356.356 0 0 0-.265-.113.363.363 0 0 0-.268.11.385.385 0 0 0-.108.28.375.375 0 0 0 .524.355l-.204-.263h.259l.103.132zM60.857 12.965h.218v.738c0 .063.005.108.017.135.011.026.03.048.055.063a.172.172 0 0 0 .093.024.187.187 0 0 0 .099-.026.14.14 0 0 0 .057-.067.515.515 0 0 0 .016-.155v-.71h.218v.68a.991.991 0 0 1-.019.239c-.013.044-.038.087-.074.129s-.078.072-.126.092a.428.428 0 0 1-.166.03.4.4 0 0 1-.216-.057.34.34 0 0 1-.132-.143.765.765 0 0 1-.039-.29v-.682zM61.865 12.965h.216v1.141h-.216v-1.141zM62.34 12.965h.23c.126 0 .216.012.269.034.053.022.096.06.129.112a.347.347 0 0 1 .049.185.314.314 0 0 1-.054.188.33.33 0 0 1-.163.114l.27.507h-.237l-.256-.483h-.02v.483h-.217v-1.14zm.217.446h.068c.069 0 .116-.009.142-.027.026-.018.039-.048.039-.09a.108.108 0 0 0-.071-.105.395.395 0 0 0-.119-.012h-.06v.234zM63.247 12.965h.623v.212h-.407v.206h.407v.209h-.407v.3h.407v.213h-.623v-1.14zM64.073 12.965h.257c.166 0 .289.021.369.062a.476.476 0 0 1 .199.201.653.653 0 0 1 .078.324.635.635 0 0 1-.044.242.496.496 0 0 1-.121.183.431.431 0 0 1-.167.101 1.22 1.22 0 0 1-.312.028h-.261v-1.141zm.215.209v.719h.101a.503.503 0 0 0 .216-.034.256.256 0 0 0 .11-.115.427.427 0 0 0 .043-.199.378.378 0 0 0-.102-.282c-.061-.06-.159-.09-.294-.09h-.074zM21.487 13.518a.587.587 0 0 1-.594.593.585.585 0 0 1-.514-.296.585.585 0 0 1-.079-.297.594.594 0 0 1 1.187 0zm-.122.003a.454.454 0 0 0-.138-.334.453.453 0 0 0-.333-.137.467.467 0 0 0-.472.469.463.463 0 0 0 .235.404.466.466 0 0 0 .471 0 .456.456 0 0 0 .173-.17.449.449 0 0 0 .064-.232zm-.613-.29h.116a.4.4 0 0 1 .136.017c.028.012.05.03.066.056a.174.174 0 0 1 .024.093c0 .04-.011.074-.032.1a.167.167 0 0 1-.086.056.496.496 0 0 1-.116.009v.244h-.11v-.575zm.11.226h.035a.178.178 0 0 0 .057-.006.048.048 0 0 0 .025-.019.058.058 0 0 0 .009-.033.055.055 0 0 0-.026-.049c-.013-.008-.036-.011-.07-.011h-.031v.118z"/><circle cx="35.695" cy="13.339" r=".293"/></g><path fill="#E4D8CD" d="M66.224 16.594l.345-.074c.041.195.2.293.476.293a.485.485 0 0 0 .291-.075.224.224 0 0 0 .102-.186c0-.054-.016-.104-.046-.149s-.097-.082-.198-.107l-.377-.098a.937.937 0 0 1-.286-.115.446.446 0 0 1-.148-.181.575.575 0 0 1-.056-.25c0-.176.065-.317.196-.423a.772.772 0 0 1 .502-.159.92.92 0 0 1 .454.111.504.504 0 0 1 .255.314l-.338.084c-.052-.149-.173-.224-.364-.224a.4.4 0 0 0-.253.069.216.216 0 0 0-.087.176c0 .113.091.191.274.237l.335.084c.203.051.339.126.408.226.069.1.104.21.104.33a.545.545 0 0 1-.219.457c-.146.111-.334.167-.566.167-.195 0-.366-.041-.513-.123a.615.615 0 0 1-.291-.384zM68.473 17.068h-.355v-1.969h.355v1.969zM68.896 17.068v-1.969h.726c.268 0 .484.095.646.285.163.19.244.424.244.703 0 .279-.084.512-.251.7-.167.188-.407.281-.718.281h-.647zm.365-.29h.296c.159 0 .293-.06.404-.179.111-.119.166-.297.166-.532a.806.806 0 0 0-.145-.488.452.452 0 0 0-.383-.2h-.338v1.399zM72.12 17.068h-1.28v-1.969h1.267v.293h-.912v.534h.733v.286h-.733v.551h.925v.305z"/><path d="M69.704 22.022h-.43l.001-1.299c-.224.088-.198.096-.36.161l-.125-.194c.164-.062.913-.387.913-.387v1.719z"/><path fill="#E4D8CD" d="M28.082 11.663h-.853V6.68h.853v4.983zm-.668-.185h.484V6.865h-.484v4.613zM18.571 11.663h-.925l-.289-1.237h-1.18l-.276 1.237h-.908l1.224-4.679c.083-.255.303-.426.547-.426.223 0 .425.143.523.362h.008l.022.069 1.254 4.674zm-.779-.185h.538l-1.193-4.436c-.06-.182-.206-.299-.372-.299-.164 0-.308.113-.369.289l-.002.008-1.161 4.438h.52l.276-1.237h1.474l.289 1.237zm-.459-1.692h-1.141l.564-2.505.577 2.505zm-.909-.185h.678l-.343-1.488-.335 1.488zM19.863 11.663h-.853V7.491h-1.038v-.829h2.933v.829h-1.042v4.172zm-.669-.185h.484V7.306h1.042v-.459h-2.564v.459h1.038v4.172zM27.03 11.663h-.983l-.852-1.532a1.083 1.083 0 0 1-.124-.527c.001-.204.055-.4.15-.551.09-.131.183-.195.358-.289a.707.707 0 0 0 .14-.094c.124-.106.2-.307.2-.528 0-.025 0-.048-.002-.071l-.005-.044-.004-.031c-.04-.243-.171-.422-.318-.441a1.631 1.631 0 0 0-.171-.008h-.439c-.013 0-.053.046-.053.129v3.986h-.835l-.001-4.287c0-.46.251-.82.571-.82h.761c.016 0 .16-.001.233.01.588.054 1.053.747 1.053 1.576 0 .6-.243 1.142-.635 1.413-.037.026-.06.041-.071.06a.223.223 0 0 0 .006.17l1.021 1.879zm-.874-.185h.564l-.872-1.606.088-.048-.089.046a.396.396 0 0 1-.007-.337c.035-.065.084-.098.117-.121.351-.243.569-.739.569-1.271 0-.735-.391-1.347-.89-1.393-.054-.008-.166-.007-.21-.009h-.762c-.206 0-.38.282-.386.619l.001.018v4.1h.465v-3.8c0-.176.104-.314.237-.314h.439c.001 0 .159.002.202.011.224.028.416.265.469.588l.006.038.006.056a.824.824 0 0 1 .003.087c0 .274-.101.53-.263.667a.99.99 0 0 1-.177.12c-.169.091-.229.137-.29.226a.875.875 0 0 0-.119.452.908.908 0 0 0 .101.436l.798 1.435zM23.975 11.663h-.925l-.289-1.237h-1.18l-.275 1.237h-.908l1.224-4.679c.083-.255.303-.426.547-.426.223 0 .425.143.523.362h.008l.022.069 1.253 4.674zm-.779-.185h.538L22.54 7.042c-.06-.182-.206-.299-.372-.299-.164 0-.308.113-.369.289l-.001.008-1.161 4.438h.521l.275-1.237h1.474l.289 1.237zm-.459-1.692h-1.141l.564-2.505.577 2.505zm-.91-.185h.678l-.343-1.488-.335 1.488zM29.126 6.46c.142 0 .281.036.417.11a.777.777 0 0 1 .317.313.851.851 0 0 1-.312 1.16.855.855 0 0 1-1.158-.313.854.854 0 0 1 .002-.846.863.863 0 0 1 .734-.424m0 .141a.724.724 0 0 0-.348.091.647.647 0 0 0-.264.262.706.706 0 0 0 .612 1.061.712.712 0 0 0 .614-.356.715.715 0 0 0-.002-.705.643.643 0 0 0-.265-.262.72.72 0 0 0-.347-.091m-.372 1.176v-.912h.313c.107 0 .185.009.233.025a.24.24 0 0 1 .086.396.283.283 0 0 1-.189.083c.032.013.058.03.078.048.036.036.082.096.135.181l.111.179h-.18l-.081-.144a.732.732 0 0 0-.154-.212c-.027-.021-.066-.031-.118-.031h-.086v.388h-.148zm.148-.513h.179c.085 0 .143-.013.175-.038a.125.125 0 0 0 .047-.101.126.126 0 0 0-.084-.121.449.449 0 0 0-.148-.016h-.167v.276z"/><g fill="#DF0007"><path d="M32.615 10.734H29.02c-.015 0-.035.013-.045.028l-.551.872c-.01.016-.006.028.009.028h3.596c.015 0 .035-.013.045-.028l.551-.872c.009-.015.005-.028-.01-.028zM33.469 9.372h-3.596c-.015 0-.035.013-.045.028l-.551.872c-.01.016-.006.028.009.028h3.596c.015 0 .035-.013.045-.028l.551-.872c.01-.016.006-.028-.009-.028zM34.323 8.009h-3.596c-.015 0-.035.013-.045.028l-.55.873c-.01.016-.006.028.009.028h3.596c.015 0 .035-.013.045-.028l.551-.872c.009-.016.005-.029-.01-.029zM35.177 6.647h-3.596c-.015 0-.035.013-.045.028l-.551.872c-.01.016-.006.028.009.028h3.596c.015 0 .035-.013.045-.028l.551-.872c.01-.015.006-.028-.009-.028z"/></g><g><g fill="#CF2400"><path d="M36.734 10.734h-3.596c-.015 0-.035.013-.045.028l-.551.872c-.01.016-.006.028.009.028h3.596c.015 0 .035-.013.045-.028l.551-.872c.01-.015.006-.028-.009-.028zM37.588 9.372h-3.596c-.015 0-.035.013-.045.028l-.551.872c-.01.016-.006.028.009.028h3.596c.015 0 .035-.013.045-.028l.551-.872c.01-.016.006-.028-.009-.028zM38.442 8.009h-3.596c-.015 0-.035.013-.045.028l-.551.873c-.01.016-.006.028.009.028h3.596c.015 0 .035-.013.045-.028l.551-.872c.009-.016.005-.029-.009-.029zM39.296 6.647H35.7c-.015 0-.035.013-.045.028l-.551.872c-.01.016-.006.028.009.028h3.596c.015 0 .035-.013.045-.028l.551-.872c.009-.015.005-.028-.009-.028z"/></g></g><g><g fill="#E14F0C"><path d="M40.852 10.734h-3.596c-.015 0-.035.013-.045.028l-.551.872c-.01.016-.006.028.009.028h3.596c.015 0 .035-.013.045-.028l.551-.872c.01-.015.006-.028-.009-.028zM41.706 9.372H38.11c-.015 0-.035.013-.045.028l-.551.872c-.01.016-.006.028.009.028h3.596c.015 0 .035-.013.045-.028l.551-.872c.01-.016.006-.028-.009-.028zM42.56 8.009h-3.596c-.015 0-.035.013-.045.028l-.551.873c-.01.016-.006.028.009.028h3.596c.015 0 .035-.013.045-.028l.551-.872c.01-.016.006-.029-.009-.029zM43.414 6.647h-3.596c-.015 0-.035.013-.045.028l-.551.872c-.01.016-.006.028.009.028h3.596c.015 0 .035-.013.045-.028l.551-.872c.01-.015.006-.028-.009-.028z"/></g></g><g><g fill="#FEC41A"><path d="M44.971 10.734h-3.596c-.015 0-.035.013-.045.028l-.551.872c-.01.016-.006.028.009.028h3.596c.015 0 .035-.013.045-.028l.551-.872c.01-.015.006-.028-.009-.028zM45.825 9.372h-3.596c-.015 0-.035.013-.045.028l-.551.872c-.01.016-.006.028.009.028h3.596c.015 0 .035-.013.045-.028l.551-.872c.01-.016.005-.028-.009-.028zM46.679 8.009h-3.596c-.015 0-.035.013-.045.028l-.551.873c-.01.016-.006.028.009.028h3.596c.015 0 .035-.013.045-.028l.551-.872c.009-.016.005-.029-.009-.029zM47.532 6.647h-3.596c-.015 0-.035.013-.045.028l-.551.872c-.01.016-.006.028.009.028h3.596c.015 0 .035-.013.045-.028l.551-.872c.01-.015.006-.028-.009-.028z"/></g></g><g><g fill="#FBDF0A"><path d="M49.089 10.734h-3.596c-.015 0-.035.013-.045.028l-.551.872c-.01.016-.006.028.009.028h3.596c.015 0 .035-.013.045-.028l.551-.872c.01-.015.006-.028-.009-.028zM49.943 9.372h-3.596c-.015 0-.035.013-.045.028l-.551.872c-.01.016-.006.028.009.028h3.596c.015 0 .035-.013.045-.028l.551-.872c.01-.016.006-.028-.009-.028zM50.797 8.009h-3.596c-.015 0-.035.013-.045.028l-.551.873c-.01.016-.006.028.009.028h3.596c.015 0 .035-.013.045-.028l.551-.872c.01-.016.006-.029-.009-.029zM51.651 6.647h-3.596c-.015 0-.035.013-.045.028l-.551.872c-.01.016-.006.028.009.028h3.596c.015 0 .035-.013.045-.028l.551-.872c.01-.015.006-.028-.009-.028z"/></g></g><g><g fill="#ADB821"><path d="M53.208 10.734h-3.596c-.015 0-.035.013-.045.028l-.551.872c-.01.016-.006.028.009.028h3.596c.015 0 .035-.013.045-.028l.551-.872c.01-.015.006-.028-.009-.028zM54.062 9.372h-3.596c-.015 0-.035.013-.045.028l-.551.872c-.01.016-.006.028.009.028h3.596c.015 0 .035-.013.045-.028l.551-.872c.009-.016.005-.028-.009-.028zM54.916 8.009H51.32c-.015 0-.035.013-.045.028l-.551.873c-.01.016-.006.028.009.028h3.596c.015 0 .035-.013.045-.028l.551-.872c.009-.016.005-.029-.009-.029zM55.769 6.647h-3.596c-.015 0-.035.013-.045.028l-.551.872c-.01.016-.006.028.009.028h3.596c.015 0 .035-.013.045-.028l.551-.872c.01-.015.006-.028-.009-.028z"/></g></g><g><g fill="#82950F"><path d="M57.326 10.734H53.73c-.015 0-.035.013-.045.028l-.551.872c-.01.016-.006.028.009.028h3.596c.015 0 .035-.013.045-.028l.551-.872c.01-.015.006-.028-.009-.028zM58.18 9.372h-3.596c-.015 0-.035.013-.045.028l-.551.872c-.01.016-.006.028.009.028h3.596c.015 0 .035-.013.045-.028l.551-.872c.01-.016.006-.028-.009-.028zM59.034 8.009h-3.596c-.015 0-.035.013-.045.028l-.551.873c-.01.016-.006.028.009.028h3.596c.015 0 .035-.013.045-.028l.551-.872c.01-.016.006-.029-.009-.029zM59.888 6.647h-3.596c-.015 0-.035.013-.045.028l-.551.872c-.01.016-.006.028.009.028h3.596c.015 0 .035-.013.045-.028l.551-.872c.01-.015.006-.028-.009-.028z"/></g></g><g><g fill="#148134"><path d="M61.445 10.734h-3.596c-.015 0-.035.013-.045.028l-.551.872c-.01.016-.006.028.009.028h3.596c.015 0 .035-.013.045-.028l.551-.872c.009-.015.005-.028-.009-.028zM62.299 9.372h-3.596c-.015 0-.035.013-.045.028l-.551.872c-.01.016-.006.028.009.028h3.596c.015 0 .035-.013.045-.028l.551-.872c.009-.016.005-.028-.009-.028zM63.152 8.009h-3.596c-.015 0-.035.013-.045.028l-.55.873c-.01.016-.006.028.009.028h3.596c.015 0 .035-.013.045-.028l.551-.872c.009-.016.005-.029-.01-.029zM64.006 6.647H60.41c-.015 0-.035.013-.045.028l-.551.872c-.01.016-.006.028.009.028h3.596c.015 0 .035-.013.045-.028l.551-.872c.01-.015.006-.028-.009-.028z"/></g></g><g><g fill="#17549C"><path d="M65.563 10.734h-3.596c-.015 0-.035.013-.045.028l-.551.872c-.01.016-.006.028.009.028h3.596c.015 0 .035-.013.045-.028l.551-.872c.01-.015.006-.028-.009-.028zM66.417 9.372h-3.596c-.015 0-.035.013-.045.028l-.551.872c-.01.016-.006.028.009.028h3.596c.015 0 .035-.013.045-.028l.551-.872c.01-.016.006-.028-.009-.028zM67.271 8.009h-3.596c-.015 0-.035.013-.045.028l-.551.873c-.01.016-.006.028.009.028h3.596c.015 0 .035-.013.045-.028l.551-.872c.01-.016.006-.029-.009-.029zM68.125 6.647h-3.596c-.015 0-.035.013-.045.028l-.551.872c-.01.016-.006.028.009.028h3.596c.015 0 .035-.013.045-.028l.551-.872c.01-.015.006-.028-.009-.028z"/></g></g><path fill="#DDD8D4" d="M68.445 48.562H16.371l2.495-11.587c.177-.702.092-.969 1.046-.969h44.992c.954 0 .87.267 1.046.969l2.495 11.587zm-43.959-5.516a1.766 1.766 0 1 0 0 3.533 1.766 1.766 0 0 0 0-3.533zm8.966 1.046v-.816a.995.995 0 0 0-.992-.992h-1.092a.995.995 0 0 0-.992.992v.816c0 .546.447.992.992.992h1.092a.994.994 0 0 0 .992-.992zm25.112.719a1.766 1.766 0 1 0 3.533 0 1.766 1.766 0 0 0-3.533 0zm-6.208.273h1.092a.995.995 0 0 0 .992-.992v-.816a.995.995 0 0 0-.992-.992h-1.092a.995.995 0 0 0-.992.992v.816a.994.994 0 0 0 .992.992z"/><circle fill="#A3A098" cx="42.408" cy="39.768" r="1.731"/><circle fill="#75706A" cx="42.408" cy="39.768" r="1.471"/><path fill="#C9BBB7" d="M43.049 39.375l.233-.233a.115.115 0 0 0 0-.163l-.204-.204a.115.115 0 0 0-.163 0l-.233.233a.443.443 0 0 1-.628 0l-.233-.233a.115.115 0 0 0-.163 0l-.204.204a.115.115 0 0 0 0 .163l.233.233a.443.443 0 0 1 0 .628l-.233.233a.115.115 0 0 0 0 .163l.204.204a.115.115 0 0 0 .163 0l.233-.233a.443.443 0 0 1 .628 0l.233.233a.115.115 0 0 0 .163 0l.204-.204a.115.115 0 0 0 0-.163l-.233-.233a.443.443 0 0 1 0-.628z"/><g><path fill="#3C3C3C" d="M55.6 111.31v.242l-.181.455-.334.333-.454.182h-.484l-.424-.182-.334-.333-.181-.455-.031-.242.031-.242.181-.424.334-.333.424-.182.242-.03.242.03.454.182.334.333.181.424v.242zM42.401 120.305h.424l.787.182 1.06.484 1.121 1.091.484 1.06.152.787.03.424v16.143l-.03.424-.152.787-.484 1.09-1.121 1.091-1.06.484-.787.152-.424.03-.394-.03-.788-.152-1.09-.484-1.09-1.091-.485-1.09-.181-.787v-16.991l.181-.787.485-1.06 1.09-1.091 1.09-.484.788-.182h.394z"/><path d="M0 63.761h84.801v20.054h-2.009v4.049h2.009v60.698H51.698l-.03-.242-.182-.424-.303-.333-.454-.182-.242-.03-.242.03-.454.182-.303.333-.182.424-.03.242h-13.72l-.03-.242-.182-.424-.333-.333-.424-.182-.242-.03-.242.03-.454.182-.333.333-.182.424v.242H0V63.761zm50.487 42.4l-.03-.818-.333-1.575-.606-1.454-.878-1.302-1.09-1.09-1.272-.878-1.454-.606-1.575-.303-.848-.03-.818.03-1.575.303-1.454.606-1.302.878-1.09 1.09-.878 1.302-.606 1.454-.303 1.575-.03.818.03.848.303 1.575.606 1.454.878 1.272 1.09 1.09 1.302.878 1.454.606 1.575.333.818.03.848-.03 1.575-.333 1.454-.606 1.272-.878 1.09-1.09.878-1.272.606-1.454.333-1.575.03-.848z"/><path fill-rule="evenodd" clip-rule="evenodd" fill="#3C3C3C" d="M50.487 106.161l-.03.848-.333 1.575-.606 1.454-.878 1.272-1.09 1.09-1.272.878-1.454.606-1.575.333-.848.03-.818-.03-1.575-.333-1.454-.606-1.302-.878-1.09-1.09-.878-1.272-.606-1.454-.303-1.575-.03-.848.03-.818.303-1.575.606-1.454.878-1.302 1.09-1.09 1.302-.878 1.454-.606 1.575-.303.818-.03.848.03 1.575.303 1.454.606 1.272.878 1.09 1.09.878 1.302.606 1.454.333 1.575.03.818zm2.029 0l-.03 1.06-.424 1.969-.757 1.787-1.09 1.635-1.363 1.363-1.635 1.09-1.787.757-1.969.394-1.06.061-1.03-.061-1.969-.394-1.817-.757-1.605-1.09-1.363-1.363-1.09-1.635-.787-1.787-.394-1.969-.03-1.06.03-1.03.394-1.969.787-1.817 1.09-1.605 1.363-1.363 1.605-1.09 1.817-.787 1.969-.394 1.03-.03 1.06.03 1.969.394 1.787.787 1.635 1.09 1.363 1.363 1.09 1.605.757 1.817.424 1.969.03 1.03z"/><path fill="#84817F" d="M34.902 68.99H4.277v-2.756c0-.308.249-.557.557-.557h29.511c.308 0 .557.249.557.557v2.756zM4.277 68.99h30.625v3.313H4.277zM4.277 72.303h30.625v3.313H4.277z"/><path fill="#84817F" d="M4.277 75.615h30.625v3.313H4.277z"/><path fill="#84817F" d="M34.334 82.801H4.844a.568.568 0 0 1-.568-.568v-3.306h30.625v3.306a.566.566 0 0 1-.567.568z"/><path clip-rule="evenodd" fill="none" stroke="#1A1A1A" stroke-miterlimit="10" d="M50.487 106.161l-.03.848-.333 1.575-.606 1.454-.878 1.272-1.091 1.09-1.272.879-1.454.605-1.574.334-.848.03-.818-.03-1.575-.334-1.454-.605-1.302-.879-1.09-1.09-.879-1.272-.605-1.454-.303-1.575-.031-.848.031-.817.303-1.575.605-1.454.879-1.272 1.09-1.12 1.302-.848 1.454-.637 1.575-.302.818-.031.848.031 1.574.302 1.454.637 1.272.848 1.091 1.12.878 1.272.606 1.454.333 1.575.03.817z"/><path fill="#E5E5E5" d="M4.277 66.828h30.625v.323H4.277zM4.277 69.141h30.625v.323H4.277zM4.277 71.454h30.625v.323H4.277zM4.277 73.766h30.625v.323H4.277zM4.277 76.079h30.625v.323H4.277zM4.277 78.392h30.625v.323H4.277zM4.277 80.704h30.625v.323H4.277z"/><g><path d="M18.309 74.525a.682.682 0 0 1 .585.338.687.687 0 0 1 .002.675.629.629 0 0 1-.25.251.687.687 0 0 1-.672 0 .682.682 0 0 1-.249-.926.621.621 0 0 1 .253-.25.69.69 0 0 1 .331-.088m0 .113a.571.571 0 0 0-.488.282.567.567 0 0 0-.001.563.57.57 0 0 0 .771.209.564.564 0 0 0-.282-1.054m-.296.938v-.728h.25c.085 0 .147.007.186.02a.176.176 0 0 1 .091.07.186.186 0 0 1 .034.107.195.195 0 0 1-.057.139.223.223 0 0 1-.151.066.206.206 0 0 1 .062.039.909.909 0 0 1 .108.144l.089.143h-.143l-.065-.115a.58.58 0 0 0-.123-.169.15.15 0 0 0-.094-.025h-.07v.309h-.117zm.117-.41h.143c.068 0 .114-.01.139-.03a.098.098 0 0 0 .037-.081.1.1 0 0 0-.018-.058.107.107 0 0 0-.05-.038.35.35 0 0 0-.118-.013h-.133v.22zM7.734 74.701a.461.461 0 0 1 .645-.064.501.501 0 0 1 .155.245c.341 1.172.683 2.344 1.023 3.517h-.603c-.095-.323-.187-.647-.281-.971H7.507l-.283.971h-.6l.973-3.355c.038-.116.053-.247.137-.343m.355.719c-.143.486-.282.972-.424 1.458h.848l-.424-1.458zM11.971 74.727a.46.46 0 0 1 .486-.179.468.468 0 0 1 .331.337l1.022 3.514c-.201.002-.403 0-.604.001-.094-.324-.186-.647-.281-.971H11.76l-.281.971h-.599c.324-1.125.651-2.248.977-3.372.035-.102.048-.214.114-.301m-.049 2.152h.844l-.422-1.461-.422 1.461zM9.107 74.542h2.182v.589h-.803V78.4H9.91v-3.269h-.803v-.589zM14.45 74.566a.48.48 0 0 1 .173-.024h.688c.386.007.755.247.922.594.116.226.128.488.098.736-.02.259-.129.519-.328.69-.105.094-.236.151-.349.234-.062.047-.065.139-.033.204.304.47.621.932.932 1.399h-.682c-.298-.447-.592-.896-.888-1.344a.497.497 0 0 1-.059-.441.415.415 0 0 1 .247-.235c.207-.079.412-.203.526-.399.087-.147.083-.328.044-.489a.476.476 0 0 0-.464-.366c-.149.001-.297-.001-.446.001a.13.13 0 0 0-.13.125v3.148h-.58V75.01a.48.48 0 0 1 .329-.444zM16.857 74.542h.61V78.4h-.61v-3.858z"/><g><path d="M6.992 78.842v.366h.423v-.366h.114v.874h-.115v-.41h-.422v.41h-.113v-.874h.113zM8.474 79.27c0 .301-.183.46-.406.46-.23 0-.393-.179-.393-.443 0-.278.172-.459.406-.459.238-.001.393.183.393.442zm-.679.014c0 .187.101.354.279.354.179 0 .28-.165.28-.363 0-.174-.091-.355-.279-.355-.186 0-.28.172-.28.364zM9.359 79.332a5.57 5.57 0 0 1-.013-.377h-.004c-.03.103-.066.211-.11.332l-.154.424h-.086l-.142-.416a3.947 3.947 0 0 1-.101-.34h-.002a9.883 9.883 0 0 1-.017.386l-.023.375h-.108l.061-.874h.144l.149.423a3.3 3.3 0 0 1 .088.294h.004c.022-.088.053-.185.092-.294l.156-.423h.144l.055.874h-.11l-.023-.384zM10.12 79.306h-.34v.315h.379v.095h-.492v-.874h.472v.095H9.78v.276h.34v.093zM11.193 79.688a.558.558 0 0 1-.231.042c-.247 0-.432-.156-.432-.442 0-.274.185-.459.457-.459.109 0 .178.023.208.039l-.027.092a.408.408 0 0 0-.176-.037c-.205 0-.341.131-.341.361 0 .214.123.352.336.352a.449.449 0 0 0 .184-.037l.022.089zM12.056 79.27c0 .301-.183.46-.406.46-.23 0-.393-.179-.393-.443 0-.278.172-.459.406-.459.239-.001.393.183.393.442zm-.678.014c0 .187.101.354.279.354.179 0 .28-.165.28-.363 0-.174-.09-.355-.279-.355-.187 0-.28.172-.28.364zM12.942 79.332a5.57 5.57 0 0 1-.013-.377h-.004c-.03.103-.066.211-.11.332l-.154.424h-.085l-.142-.416a3.947 3.947 0 0 1-.101-.34h-.003a9.883 9.883 0 0 1-.017.386l-.023.375h-.108l.061-.874h.144l.149.423a3.3 3.3 0 0 1 .088.294h.004c.022-.088.053-.185.092-.294l.156-.423h.144l.055.874h-.11l-.023-.384zM13.25 78.852a1.31 1.31 0 0 1 .216-.017c.112 0 .193.026.246.073a.235.235 0 0 1 .076.183.26.26 0 0 1-.067.187.365.365 0 0 1-.267.096.363.363 0 0 1-.091-.008v.35h-.113v-.864zm.113.422a.352.352 0 0 0 .093.009c.136 0 .219-.066.219-.187 0-.115-.082-.171-.206-.171a.482.482 0 0 0-.106.009v.34zM14.055 78.842v.518c0 .196.087.279.204.279.13 0 .213-.086.213-.279v-.518h.114v.51c0 .268-.141.378-.331.378-.179 0-.314-.103-.314-.374v-.515h.114zM14.949 78.938h-.266v-.096h.647v.096h-.267v.778h-.114v-.778zM15.881 79.306h-.34v.315h.379v.095h-.492v-.874h.472v.095h-.359v.276h.34v.093zM16.068 78.854c.057-.012.139-.019.216-.019.121 0 .199.022.253.071a.219.219 0 0 1 .069.166.23.23 0 0 1-.165.223v.005c.067.023.107.086.128.177.028.122.049.206.067.24h-.117a1.152 1.152 0 0 1-.059-.209c-.026-.121-.072-.166-.175-.17h-.106v.379h-.113v-.863zm.113.398h.115c.121 0 .197-.066.197-.166 0-.113-.082-.162-.201-.164a.413.413 0 0 0-.111.011v.319zM16.752 79.578a.404.404 0 0 0 .202.057c.116 0 .183-.061.183-.149 0-.082-.047-.128-.165-.174-.143-.051-.231-.125-.231-.248 0-.136.113-.238.283-.238.089 0 .154.021.193.043l-.031.092a.344.344 0 0 0-.166-.042c-.12 0-.165.071-.165.131 0 .082.053.122.174.168.148.057.223.128.223.257 0 .135-.1.252-.306.252a.455.455 0 0 1-.223-.056l.029-.093z"/></g></g><g><g fill="#1B1918"><path d="M20.276 79.466a.25.25 0 0 1-.128.221c-.04.023-.082.034-.128.034s-.088-.011-.128-.034a.254.254 0 1 1 .255-.441.262.262 0 0 1 .094.093.248.248 0 0 1 .035.127zm-.053.001a.2.2 0 0 0-.059-.144.192.192 0 0 0-.144-.059.2.2 0 0 0-.176.101.199.199 0 0 0 0 .201.202.202 0 0 0 .277.074.195.195 0 0 0 .102-.173zm-.129.047h.059a.112.112 0 0 1-.039.072.123.123 0 0 1-.083.028.136.136 0 0 1-.103-.042.152.152 0 0 1-.04-.11c0-.044.013-.079.04-.106a.135.135 0 0 1 .101-.041.13.13 0 0 1 .082.025.119.119 0 0 1 .042.073h-.059a.065.065 0 0 0-.023-.038.064.064 0 0 0-.042-.013.078.078 0 0 0-.061.027.105.105 0 0 0-.024.073c0 .032.009.057.026.077.017.02.037.029.061.029a.064.064 0 0 0 .043-.015.073.073 0 0 0 .02-.039zM20.577 79.228h.14v.492h-.093v-.404h-.101l.054-.088zM21.033 79.732l-.08-.039.086-.167a.145.145 0 0 1-.107-.045.154.154 0 0 1-.044-.111c0-.043.015-.079.045-.109s.066-.045.108-.045c.044 0 .081.015.111.046a.15.15 0 0 1 .037.152.492.492 0 0 1-.032.071l-.124.247zm.011-.296a.058.058 0 0 0 .044-.019.066.066 0 0 0 .018-.047.065.065 0 0 0-.019-.048.057.057 0 0 0-.043-.019.061.061 0 0 0-.045.019.065.065 0 0 0-.019.048c0 .019.006.035.018.047a.062.062 0 0 0 .046.019zM21.524 79.453c.022.014.04.033.052.055a.156.156 0 0 1-.003.152.135.135 0 0 1-.057.054.202.202 0 0 1-.091.018.212.212 0 0 1-.095-.018.136.136 0 0 1-.056-.053.157.157 0 0 1 .047-.208.14.14 0 0 1-.044-.1.13.13 0 0 1 .019-.07.13.13 0 0 1 .052-.049.159.159 0 0 1 .077-.017c.029 0 .054.006.076.018a.134.134 0 0 1 .061.169.479.479 0 0 1-.038.049zm-.1.05a.084.084 0 0 0-.057.021.065.065 0 0 0-.023.049c0 .02.007.037.022.05a.077.077 0 0 0 .057.021.085.085 0 0 0 .057-.019.064.064 0 0 0 .021-.05.067.067 0 0 0-.022-.051.077.077 0 0 0-.055-.021zm-.004-.197a.052.052 0 0 0-.038.015.053.053 0 0 0-.015.039c0 .016.005.029.016.04s.023.016.039.016a.05.05 0 0 0 .039-.016.056.056 0 0 0 .015-.041.049.049 0 0 0-.015-.038c-.011-.011-.024-.015-.041-.015zM21.745 79.349h-.09a.156.156 0 0 1 .039-.088.15.15 0 0 1 .113-.046c.04 0 .074.013.101.038a.123.123 0 0 1 .041.091.106.106 0 0 1-.018.06.126.126 0 0 1-.052.044c.03.009.053.025.07.047a.123.123 0 0 1 .025.078c0 .044-.016.082-.049.112s-.074.046-.124.046a.161.161 0 0 1-.117-.043.166.166 0 0 1-.049-.118h.093a.096.096 0 0 0 .027.057.077.077 0 0 0 .052.019c.022 0 .04-.007.054-.021a.07.07 0 0 0 .022-.051.073.073 0 0 0-.029-.057.14.14 0 0 0-.084-.024v-.08a.138.138 0 0 0 .05-.011.056.056 0 0 0 .026-.022.052.052 0 0 0 .009-.029.044.044 0 0 0-.014-.033.05.05 0 0 0-.037-.013.058.058 0 0 0-.036.012.06.06 0 0 0-.023.032zM22.396 79.228h.095l.189.492h-.097l-.038-.101h-.201l-.04.101h-.097l.189-.492zm.048.13l-.066.169h.132l-.066-.169zM22.704 79.228h.272v.092h-.09v.4h-.095v-.4h-.087v-.092zM23.19 79.228h.095l.189.492h-.097l-.038-.101h-.201l-.04.101h-.097l.189-.492zm.048.13l-.066.169h.132l-.066-.169zM23.553 79.228h.099a.32.32 0 0 1 .116.015c.023.01.042.026.056.048a.147.147 0 0 1 .021.08.14.14 0 0 1-.023.081.141.141 0 0 1-.07.049l.117.219h-.102l-.111-.208h-.009v.208h-.093v-.492zm.094.192h.029c.03 0 .05-.004.061-.012.011-.008.017-.021.017-.039a.051.051 0 0 0-.008-.028.046.046 0 0 0-.022-.017.15.15 0 0 0-.051-.005h-.026v.101zM23.937 79.228h.093v.492h-.093v-.492zM24.169 79.627l.065.033-.083.141-.045-.022.063-.152zM24.512 79.228h.093v.492h-.093v-.492zM24.711 79.228h.09l.211.324v-.324h.093v.492h-.09l-.21-.323v.323h-.094v-.492zM25.669 79.314l-.065.062a.205.205 0 0 0-.15-.071.162.162 0 0 0-.119.048.162.162 0 0 0-.048.119c0 .033.007.062.021.087.014.025.034.045.061.06s.055.022.087.022a.186.186 0 0 0 .075-.015.286.286 0 0 0 .074-.055l.063.066a.275.275 0 0 1-.214.095.255.255 0 0 1-.188-.073.252.252 0 0 1-.073-.186c0-.049.011-.093.033-.131a.27.27 0 0 1 .346-.101c.037.017.07.041.097.073zM25.791 79.624a.051.051 0 0 1 .052.052.051.051 0 0 1-.052.052.051.051 0 0 1-.052-.052.051.051 0 0 1 .052-.052zM26.284 79.228h.095l.189.492h-.097l-.038-.101h-.201l-.04.101h-.097l.189-.492zm.048.13l-.066.169h.132l-.066-.169zM26.641 79.228h.094v.403h.136v.089h-.23v-.492zM26.942 79.228h.094v.403h.136v.089h-.23v-.492zM27.441 79.228h.099a.32.32 0 0 1 .116.015c.023.01.042.026.056.048a.147.147 0 0 1 .021.08.14.14 0 0 1-.023.081.141.141 0 0 1-.07.049l.117.219h-.102l-.111-.208h-.009v.208h-.093v-.492zm.094.192h.029c.03 0 .05-.004.061-.012.011-.008.017-.021.017-.039a.051.051 0 0 0-.008-.028.046.046 0 0 0-.022-.017.15.15 0 0 0-.051-.005h-.026v.101zM27.825 79.228h.093v.492h-.093v-.492zM28.478 79.308l-.066.065a.195.195 0 0 0-.146-.066.169.169 0 0 0-.122.048.156.156 0 0 0-.049.117c0 .047.017.088.051.121.034.033.076.05.126.05a.16.16 0 0 0 .082-.02.15.15 0 0 0 .054-.064h-.142v-.089h.248l.001.021a.24.24 0 0 1-.033.122.223.223 0 0 1-.087.088.251.251 0 0 1-.125.03.28.28 0 0 1-.137-.033.241.241 0 0 1-.095-.095.267.267 0 0 1-.035-.133c0-.065.021-.122.065-.17a.254.254 0 0 1 .199-.086.3.3 0 0 1 .12.024c.03.014.061.037.091.07zM28.598 79.228h.095v.186h.164v-.186h.095v.492h-.095v-.216h-.164v.216h-.095v-.492zM29.016 79.228h.272v.092h-.09v.4h-.095v-.4h-.087v-.092zM29.61 79.294l-.069.061c-.024-.034-.049-.051-.074-.051a.044.044 0 0 0-.03.01c-.008.007-.012.014-.012.022 0 .008.003.016.008.024.008.01.03.031.069.063.036.03.057.049.065.057a.186.186 0 0 1 .04.055.135.135 0 0 1 .012.057c0 .04-.014.074-.042.1a.153.153 0 0 1-.109.039.165.165 0 0 1-.092-.026.205.205 0 0 1-.067-.081l.079-.047c.024.043.051.065.082.065.016 0 .03-.005.041-.014a.04.04 0 0 0 .016-.032.056.056 0 0 0-.012-.033.324.324 0 0 0-.055-.051.554.554 0 0 1-.104-.101.125.125 0 0 1-.023-.071c0-.034.013-.063.039-.088a.137.137 0 0 1 .096-.037c.025 0 .048.006.07.017a.257.257 0 0 1 .072.062zM29.906 79.228h.099a.32.32 0 0 1 .116.015c.023.01.042.026.056.048a.147.147 0 0 1 .021.08.14.14 0 0 1-.023.081.141.141 0 0 1-.07.049l.117.219h-.102l-.111-.208H30v.208h-.093v-.492zm.094.192h.029c.03 0 .05-.004.061-.012.011-.008.017-.021.017-.039a.051.051 0 0 0-.008-.028.046.046 0 0 0-.022-.017.15.15 0 0 0-.051-.005H30v.101zM30.297 79.228h.269v.092h-.176v.089h.176v.09h-.176v.129h.176v.092h-.269v-.492zM30.911 79.294l-.069.061c-.024-.034-.049-.051-.074-.051a.044.044 0 0 0-.03.01c-.008.007-.012.014-.012.022 0 .008.003.016.008.024.008.01.03.031.069.063.036.03.057.049.065.057a.186.186 0 0 1 .04.055.135.135 0 0 1 .012.057c0 .04-.014.074-.042.1a.153.153 0 0 1-.109.039.165.165 0 0 1-.092-.026.205.205 0 0 1-.067-.081l.079-.047c.024.043.051.065.082.065.016 0 .03-.005.041-.014a.04.04 0 0 0 .016-.032.056.056 0 0 0-.012-.033.324.324 0 0 0-.055-.051.554.554 0 0 1-.104-.101.125.125 0 0 1-.023-.071c0-.034.013-.063.039-.088a.137.137 0 0 1 .096-.037c.025 0 .048.006.07.017a.271.271 0 0 1 .072.062zM31.01 79.228h.269v.092h-.176v.089h.176v.09h-.176v.129h.176v.092h-.269v-.492zM31.372 79.228h.099a.32.32 0 0 1 .116.015c.023.01.042.026.056.048a.147.147 0 0 1 .021.08.14.14 0 0 1-.023.081.141.141 0 0 1-.07.049l.117.219h-.102l-.111-.208h-.009v.208h-.093v-.492zm.093.192h.029c.03 0 .05-.004.061-.012.011-.008.017-.021.017-.039a.051.051 0 0 0-.008-.028.046.046 0 0 0-.022-.017.15.15 0 0 0-.051-.005h-.026v.101zM31.725 79.228h.096l.124.349.126-.349h.096l-.177.492h-.09l-.175-.492zM32.242 79.228h.269v.092h-.176v.089h.176v.09h-.176v.129h.176v.092h-.269v-.492zM32.598 79.228h.111c.071 0 .125.009.159.027a.215.215 0 0 1 .086.086c.022.04.034.087.034.14a.268.268 0 0 1-.019.104.222.222 0 0 1-.052.079.18.18 0 0 1-.072.043.516.516 0 0 1-.134.012h-.113v-.491zm.093.09v.31h.043a.212.212 0 0 0 .093-.015.112.112 0 0 0 .047-.049.186.186 0 0 0 .018-.086.162.162 0 0 0-.044-.121c-.026-.026-.069-.039-.127-.039h-.03z"/></g></g><circle cx="31.474" cy="76.986" r="1.568"/></g></svg>