<svg xmlns="http://www.w3.org/2000/svg" viewBox="-2 201.9 400 258.37948">
  <path fill="#282828" d="M379.72924 298.9175H16.252v-20.54178h363.47724v20.54178z"/>
  <path fill="#212324" d="M195.87924 204.33284h173.91161l5.68036 47.62259H16.287271l5.680364-47.62259H195.87924"/>
  <path fill="none" d="M-1.9780051 201.95501H397.95925v258.32446H-1.9780051z"/>
  <path fill="#212324" d="M375.48 460.27947H20.589354c-5.482211 0-9.907611-4.49145-9.907611-9.90761V315.49624c0-5.48221 4.49145-9.90761 9.907611-9.90761H375.48c5.48221 0 9.90761 4.4254 9.90761 9.90761v134.87562c0 5.48221-4.49145 9.90761-9.90761 9.90761"/>
  <path fill="#231f20" d="M212.71498 330.77596h-47.95284c-.79261 0-1.45311-.66051-1.45311-1.45312v-7.86004c0-.79261.6605-1.45311 1.45311-1.45311h47.95284c.79261 0 1.45312.6605 1.45312 1.45311v7.86004c0 .79261-.66051 1.45312-1.45312 1.45312m79.00052 0h-73.38237c-.79261 0-1.45312-.66051-1.45312-1.45312v-7.86004c0-.79261.66051-1.45311 1.45312-1.45311h73.38237c.79261 0 1.45312.6605 1.45312 1.45311v7.86004c0 .79261-.66051 1.45312-1.45312 1.45312m-132.17896 0H36.550054c-.792609 0-1.453116-.66051-1.453116-1.45312v-7.86004c0-.79261.660507-1.45311 1.453116-1.45311H159.53654c.79261 0 1.45311.6605 1.45311 1.45311v7.86004c0 .79261-.6605 1.45312-1.45311 1.45312m140.57547 9.55979c0-.72656-.59446-1.32102-1.25497-1.32102H32.276241c-.726558 0-1.321015.59446-1.254964 1.32102v17.70159h-3.104385c-.726559 0-1.254964.59446-1.254964 1.32102v17.7016h-.528406c-.726559 0-1.321015.59446-1.254965 1.32101v32.49697c0 .72656.594457 1.32101 1.254965 1.32101h39.035989v18.42816c0 .72656.594457 1.32102 1.321015 1.32102H298.79099c.72656 0 1.25496-.59446 1.25496-1.32102v-90.29136zm71.10395 46.19668H303.58c-1.05681 0-1.91547-.85866-1.91547-1.91547v-67.70202c0-1.05681.85866-1.91547 1.91547-1.91547h67.63596c1.05681 0 1.91547.85866 1.91547 1.91547v67.63597c0 1.05681-.85866 1.98152-1.91547 1.98152"/>
  <path fill="#5d5d5d" d="M295.51058 338.10759H29.392135c-1.717319 0-3.104385-1.38707-3.104385-3.10439v-19.28681c0-1.71732 1.387066-3.10439 3.104385-3.10439H295.51058c1.71732 0 3.10439 1.38707 3.10439 3.10439v19.28681c-.0661 1.78337-1.45312 3.10439-3.10439 3.10439zM29.392135 313.33856c-1.321015 0-2.443878 1.05681-2.443878 2.44388v19.28682c0 1.32101 1.056812 2.44387 2.443878 2.44387H295.51058c1.32102 0 2.44388-1.05681 2.44388-2.44387v-19.28682c0-1.32102-1.05681-2.44388-2.44388-2.44388H29.392135zm28.696472 45.81768h12.813844c.726558 0 1.254964.59446 1.254964 1.25497v12.81384c0 .72656-.594456 1.25497-1.254964 1.25497H58.088607c-.726558 0-1.254964-.59446-1.254964-1.25497v-12.81384c0-.72656.528406-1.25497 1.254964-1.25497m17.76765 0h12.813844c.726558 0 1.254964.59446 1.254964 1.25497v12.81384c0 .72656-.594456 1.25497-1.254964 1.25497H75.856257c-.726558 0-1.254964-.59446-1.254964-1.25497v-12.81384c-.06605-.72656.528406-1.25497 1.254964-1.25497m17.701599 0H106.3717c.72656 0 1.25496.59446 1.25496 1.25497v12.81384c0 .72656-.59445 1.25497-1.25496 1.25497H93.557856c-.726558 0-1.254964-.59446-1.254964-1.25497v-12.81384c0-.72656.594457-1.25497 1.254964-1.25497m17.767654 0h12.81384c.72656 0 1.25496.59446 1.25496 1.25497v12.81384c0 .72656-.59445 1.25497-1.25496 1.25497h-12.81384c-.72656 0-1.25497-.59446-1.25497-1.25497v-12.81384c0-.72656.52841-1.25497 1.25497-1.25497m17.76765 0H141.907c.72656 0 1.25496.59446 1.25496 1.25497v12.81384c0 .72656-.59445 1.25497-1.25496 1.25497h-12.81384c-.72656 0-1.25497-.59446-1.25497-1.25497v-12.81384c0-.72656.52841-1.25497 1.25497-1.25497m17.76765 0h12.81384c.72656 0 1.25496.59446 1.25496 1.25497v12.81384c0 .72656-.59445 1.25497-1.25496 1.25497h-12.81384c-.72656 0-1.25497-.59446-1.25497-1.25497v-12.81384c-.066-.72656.52841-1.25497 1.25497-1.25497m17.7016 0h12.81384c.72656 0 1.25496.59446 1.25496 1.25497v12.81384c0 .72656-.59445 1.25497-1.25496 1.25497h-12.81384c-.72656 0-1.25497-.59446-1.25497-1.25497v-12.81384c0-.72656.59446-1.25497 1.25497-1.25497m17.76765 0h12.81384c.72656 0 1.25496.59446 1.25496 1.25497v12.81384c0 .72656-.59445 1.25497-1.25496 1.25497h-12.81384c-.72656 0-1.25497-.59446-1.25497-1.25497v-12.81384c0-.72656.52841-1.25497 1.25497-1.25497m17.76765 0h12.81384c.72656 0 1.25496.59446 1.25496 1.25497v12.81384c0 .72656-.59445 1.25497-1.25496 1.25497h-12.81384c-.72656 0-1.25497-.59446-1.25497-1.25497v-12.81384c0-.72656.52841-1.25497 1.25497-1.25497m17.76765 0h12.81384c.72656 0 1.25496.59446 1.25496 1.25497v12.81384c0 .72656-.59445 1.25497-1.25496 1.25497h-12.81384c-.72656 0-1.25497-.59446-1.25497-1.25497v-12.81384c-.066-.72656.52841-1.25497 1.25497-1.25497m17.70159 0h12.81385c.72656 0 1.25496.59446 1.25496 1.25497v12.81384c0 .72656-.59445 1.25497-1.25496 1.25497h-12.81385c-.72655 0-1.25496-.59446-1.25496-1.25497v-12.81384c0-.72656.59446-1.25497 1.25496-1.25497m17.76765 0h12.81385c.72656 0 1.25496.59446 1.25496 1.25497v12.81384c0 .72656-.59445 1.25497-1.25496 1.25497H253.3346c-.72655 0-1.25496-.59446-1.25496-1.25497v-12.81384c0-.72656.52841-1.25497 1.25496-1.25497M64.12122 377.24312h12.813844c.726558 0 1.254964.59445 1.254964 1.25496v12.81385c0 .72655-.594457 1.25496-1.254964 1.25496H64.12122c-.726559 0-1.254964-.59446-1.254964-1.25496v-12.81385c0-.72656.594456-1.25496 1.254964-1.25496m17.76765 0h12.813844c.726558 0 1.254964.59445 1.254964 1.25496v12.81385c0 .72655-.594457 1.25496-1.254964 1.25496H81.88887c-.726559 0-1.254965-.59446-1.254965-1.25496v-12.81385c0-.72656.528406-1.25496 1.254965-1.25496m17.76765 0h12.81384c.72656 0 1.25497.59445 1.25497 1.25496v12.81385c0 .72655-.59446 1.25496-1.25497 1.25496H99.65652c-.726559 0-1.254965-.59446-1.254965-1.25496v-12.81385c0-.72656.528406-1.25496 1.254965-1.25496m17.7016 0h12.81384c.72656 0 1.25497.59445 1.25497 1.25496v12.81385c0 .72655-.59446 1.25496-1.25497 1.25496h-12.81384c-.72656 0-1.25497-.59446-1.25497-1.25496v-12.81385c0-.72656.59446-1.25496 1.25497-1.25496m17.76765 0h12.81384c.72656 0 1.25497.59445 1.25497 1.25496v12.81385c0 .72655-.59446 1.25496-1.25497 1.25496h-12.81384c-.72656 0-1.25497-.59446-1.25497-1.25496v-12.81385c0-.72656.59446-1.25496 1.25497-1.25496m17.76765 0h12.81384c.72656 0 1.25497.59445 1.25497 1.25496v12.81385c0 .72655-.59446 1.25496-1.25497 1.25496h-12.81384c-.72656 0-1.25497-.59446-1.25497-1.25496v-12.81385c0-.72656.52841-1.25496 1.25497-1.25496m17.76765 0h12.81384c.72656 0 1.25497.59445 1.25497 1.25496v12.81385c0 .72655-.59446 1.25496-1.25497 1.25496h-12.81384c-.72656 0-1.25497-.59446-1.25497-1.25496v-12.81385c0-.72656.52841-1.25496 1.25497-1.25496m17.7016 0h12.81384c.72656 0 1.25497.59445 1.25497 1.25496v12.81385c0 .72655-.59446 1.25496-1.25497 1.25496h-12.81384c-.72656 0-1.25497-.59446-1.25497-1.25496v-12.81385c0-.72656.59446-1.25496 1.25497-1.25496m17.76765 0h12.81384c.72656 0 1.25497.59445 1.25497 1.25496v12.81385c0 .72655-.59446 1.25496-1.25497 1.25496h-12.81384c-.72656 0-1.25497-.59446-1.25497-1.25496v-12.81385c0-.72656.59446-1.25496 1.25497-1.25496m17.76765 0h12.81384c.72656 0 1.25497.59445 1.25497 1.25496v12.81385c0 .72655-.59446 1.25496-1.25497 1.25496h-12.81384c-.72656 0-1.25497-.59446-1.25497-1.25496v-12.81385c0-.72656.52841-1.25496 1.25497-1.25496m17.76765 0h12.81384c.72656 0 1.25497.59445 1.25497 1.25496v12.81385c0 .72655-.59446 1.25496-1.25497 1.25496h-12.81384c-.72656 0-1.25497-.59446-1.25497-1.25496v-12.81385c0-.72656.52841-1.25496 1.25497-1.25496m17.7016 0h12.81384c.72656 0 1.25497.59445 1.25497 1.25496v12.81385c0 .72655-.59446 1.25496-1.25497 1.25496h-12.81384c-.72656 0-1.25497-.59446-1.25497-1.25496v-12.81385c0-.72656.59446-1.25496 1.25497-1.25496M70.016182 395.32999h12.813845c.726558 0 1.254964.59446 1.254964 1.25496v12.81385c0 .72656-.594457 1.25496-1.254964 1.25496H70.016182c-.726558 0-1.254964-.59445-1.254964-1.25496v-12.81385c0-.72655.528406-1.25496 1.254964-1.25496m17.76765 0h12.813848c.72655 0 1.25496.59446 1.25496 1.25496v12.81385c0 .72656-.59446 1.25496-1.25496 1.25496H87.783832c-.726558 0-1.254964-.59445-1.254964-1.25496v-12.81385c0-.72655.528406-1.25496 1.254964-1.25496m17.701598 0h12.8799c.72655 0 1.25496.59446 1.25496 1.25496v12.81385c0 .72656-.59446 1.25496-1.25496 1.25496h-12.8799c-.72656 0-1.25496-.59445-1.25496-1.25496v-12.81385c0-.72655.59445-1.25496 1.25496-1.25496m17.76765 0h12.81385c.72655 0 1.25496.59446 1.25496 1.25496v12.81385c0 .72656-.59446 1.25496-1.25496 1.25496h-12.81385c-.72656 0-1.25496-.59445-1.25496-1.25496v-12.81385c0-.72655.59445-1.25496 1.25496-1.25496m17.76765 0h12.81385c.72655 0 1.25496.59446 1.25496 1.25496v12.81385c0 .72656-.59446 1.25496-1.25496 1.25496h-12.81385c-.72656 0-1.25496-.59445-1.25496-1.25496v-12.81385c0-.72655.5284-1.25496 1.25496-1.25496m17.76765 0h12.81385c.72655 0 1.25496.59446 1.25496 1.25496v12.81385c0 .72656-.59446 1.25496-1.25496 1.25496h-12.81385c-.72656 0-1.25496-.59445-1.25496-1.25496v-12.81385c0-.72655.5284-1.25496 1.25496-1.25496m17.7016 0h12.81385c.72655 0 1.25496.59446 1.25496 1.25496v12.81385c0 .72656-.59446 1.25496-1.25496 1.25496h-12.81385c-.72656 0-1.25496-.59445-1.25496-1.25496v-12.81385c0-.72655.59445-1.25496 1.25496-1.25496m17.76765 0h12.81385c.72655 0 1.25496.59446 1.25496 1.25496v12.81385c0 .72656-.59446 1.25496-1.25496 1.25496h-12.81385c-.72656 0-1.25496-.59445-1.25496-1.25496v-12.81385c0-.72655.59445-1.25496 1.25496-1.25496m17.76758 0h12.81385c.72656 0 1.25496.59446 1.25496 1.25496v12.81385c0 .72656-.59445 1.25496-1.25496 1.25496h-12.81385c-.72655 0-1.25496-.59445-1.25496-1.25496v-12.81385c0-.72655.52841-1.25496 1.25496-1.25496m17.76765 0h12.81385c.72656 0 1.25496.59446 1.25496 1.25496v12.81385c0 .72656-.59445 1.25496-1.25496 1.25496h-12.81385c-.72655 0-1.25496-.59445-1.25496-1.25496v-12.81385c0-.72655.52841-1.25496 1.25496-1.25496m17.7016 0h12.8799c.72656 0 1.25496.59446 1.25496 1.25496v12.81385c0 .72656-.59445 1.25496-1.25496 1.25496h-12.8799c-.72655 0-1.25496-.59445-1.25496-1.25496v-12.81385c0-.72655.59446-1.25496 1.25496-1.25496m48.53442 0c.66051 0 1.25496.59446 1.25496 1.25496v12.81385c0 .72656-.5284 1.25496-1.25496 1.25496h-28.00551c-.66051 0-1.25497-.59445-1.25497-1.25496v-12.81385c0-.72655.52841-1.25496 1.25497-1.25496h28.00551zM52.452299 341.0693h12.813844c.726558 0 1.254964.59446 1.254964 1.25497v12.81384c0 .72656-.594456 1.25497-1.254964 1.25497H52.452299c-.726558 0-1.254964-.59446-1.254964-1.25497v-12.81384c0-.72656.528406-1.25497 1.254964-1.25497m17.76765 0h12.813844c.726558 0 1.254964.59446 1.254964 1.25497v12.81384c0 .72656-.594456 1.25497-1.254964 1.25497H70.219949c-.726558 0-1.254964-.59446-1.254964-1.25497v-12.81384c-.06605-.72656.528406-1.25497 1.254964-1.25497m17.701599 0h12.813842c.72656 0 1.25497.59446 1.25497 1.25497v12.81384c0 .72656-.59446 1.25497-1.25497 1.25497H87.921548c-.726558 0-1.254964-.59446-1.254964-1.25497v-12.81384c0-.72656.594457-1.25497 1.254964-1.25497m17.767582 0h12.81385c.72655 0 1.25496.59446 1.25496 1.25497v12.81384c0 .72656-.59446 1.25497-1.25496 1.25497h-12.81385c-.72656 0-1.25496-.59446-1.25496-1.25497v-12.81384c0-.72656.5284-1.25497 1.25496-1.25497m17.76765 0h12.81385c.72655 0 1.25496.59446 1.25496 1.25497v12.81384c0 .72656-.59446 1.25497-1.25496 1.25497h-12.81385c-.72656 0-1.25496-.59446-1.25496-1.25497v-12.81384c0-.72656.5284-1.25497 1.25496-1.25497m17.76765 0h12.81385c.72655 0 1.25496.59446 1.25496 1.25497v12.81384c0 .72656-.59446 1.25497-1.25496 1.25497h-12.81385c-.72656 0-1.25496-.59446-1.25496-1.25497v-12.81384c-.0661-.72656.5284-1.25497 1.25496-1.25497m17.7016 0h12.81385c.72655 0 1.25496.59446 1.25496 1.25497v12.81384c0 .72656-.59446 1.25497-1.25496 1.25497h-12.81385c-.72656 0-1.25496-.59446-1.25496-1.25497v-12.81384c0-.72656.59445-1.25497 1.25496-1.25497m17.76765 0h12.81385c.72655 0 1.25496.59446 1.25496 1.25497v12.81384c0 .72656-.59446 1.25497-1.25496 1.25497h-12.81385c-.72656 0-1.25496-.59446-1.25496-1.25497v-12.81384c0-.72656.5284-1.25497 1.25496-1.25497m17.76765 0h12.81385c.72655 0 1.25496.59446 1.25496 1.25497v12.81384c0 .72656-.59446 1.25497-1.25496 1.25497h-12.81385c-.72656 0-1.25496-.59446-1.25496-1.25497v-12.81384c0-.72656.5284-1.25497 1.25496-1.25497m17.76765 0h12.81385c.72655 0 1.25496.59446 1.25496 1.25497v12.81384c0 .72656-.59446 1.25497-1.25496 1.25497h-12.81385c-.72656 0-1.25496-.59446-1.25496-1.25497v-12.81384c-.066-.72656.5284-1.25497 1.25496-1.25497m17.7016 0h12.81384c.72656 0 1.25497.59446 1.25497 1.25497v12.81384c0 .72656-.59446 1.25497-1.25497 1.25497h-12.81384c-.72656 0-1.25496-.59446-1.25496-1.25497v-12.81384c0-.72656.59445-1.25497 1.25496-1.25497m17.76765 0h12.81384c.72656 0 1.25497.59446 1.25497 1.25497v12.81384c0 .72656-.59446 1.25497-1.25497 1.25497h-12.81384c-.72656 0-1.25496-.59446-1.25496-1.25497v-12.81384c0-.72656.5284-1.25497 1.25496-1.25497m-213.013581 0h12.813844c.726558 0 1.254964.59446 1.254964 1.25497v12.81384c0 .72656-.594456 1.25497-1.254964 1.25497H34.684649c-.726558 0-1.254964-.59446-1.254964-1.25497v-12.81384c0-.72656.528406-1.25497 1.254964-1.25497m230.781231 0h12.81384c.72656 0 1.25497.59446 1.25497 1.25497v12.81384c0 .72656-.59446 1.25497-1.25497 1.25497h-12.81384c-.72656 0-1.25496-.59446-1.25496-1.25497v-12.81384c0-.72656.5284-1.25497 1.25496-1.25497m17.76765 0h12.81384c.72656 0 1.25497.59446 1.25497 1.25497v12.81384c0 .72656-.59446 1.25497-1.25497 1.25497h-12.81384c-.72656 0-1.25496-.59446-1.25496-1.25497v-12.81384c-.0661-.72656.5284-1.25497 1.25496-1.25497M59.132143 377.24312c.726558 0 1.321015.59445 1.321015 1.25496v12.81385c0 .72655-.594457 1.25496-1.321015 1.25496H28.68275c-.726558 0-1.321015-.59446-1.321015-1.25496v-12.81385c0-.72656.594457-1.25496 1.321015-1.25496h30.449393zm9.001791 36.87831h12.813845c.726558 0 1.254964.59445 1.254964 1.25496v12.81385c0 .72655-.594457 1.25496-1.254964 1.25496H68.133934c-.726558 0-1.254964-.59446-1.254964-1.25496v-12.81385c0-.72656.594457-1.25496 1.254964-1.25496m17.76765 0h12.813845c.726558 0 1.254964.59445 1.254964 1.25496v12.81385c0 .72655-.594457 1.25496-1.254964 1.25496H85.901584c-.726558 0-1.254964-.59446-1.254964-1.25496v-12.81385c0-.72656.594457-1.25496 1.254964-1.25496m17.767646 0h12.81385c.72656 0 1.25496.59445 1.25496 1.25496v12.81385c0 .72655-.59445 1.25496-1.25496 1.25496h-12.81385c-.72655 0-1.25496-.59446-1.25496-1.25496v-12.81385c0-.72656.52841-1.25496 1.25496-1.25496m144.69644 0c.72656 0 1.32102.59445 1.32102 1.25496v12.81385c0 .72655-.59446 1.25496-1.32102 1.25496h-29.85493c-.72656 0-1.32102-.59446-1.32102-1.25496v-12.81385c0-.72656.59446-1.25496 1.32102-1.25496h29.85493zm4.96893 0h12.81385c.72656 0 1.25496.59445 1.25496 1.25496v12.81385c0 .72655-.59445 1.25496-1.25496 1.25496H253.3346c-.72655 0-1.25496-.59446-1.25496-1.25496v-12.81385c0-.72656.52841-1.25496 1.25496-1.25496M64.470826 395.32999c.726558 0 1.254964.59446 1.254964 1.25496v12.81385c0 .72656-.594456 1.25496-1.254964 1.25496H28.605273c-.726559 0-1.254965-.59445-1.254965-1.25496v-12.81385c0-.72655.594457-1.25496 1.254965-1.25496h35.865553zm-11.357029-20.83941c.726558 0 1.254964-.59445 1.254964-1.25496v-12.81384c0-.72656-.594456-1.25497-1.254964-1.25497H30.392341c-.726558 0-1.254964.59446-1.254964 1.25497v12.81384c0 .72656.594457 1.25496 1.254964 1.25496h22.721456zm243.078753 39.63085c.59446 0 1.12287.59445 1.12287 1.25496v12.81385c0 .72655-.46236 1.25496-1.12287 1.25496h-25.23138c-.59446 0-1.12286-.59446-1.12286-1.25496v-12.81385c0-.72656.46235-1.25496 1.12286-1.25496h25.23138zm-175.32852-.1541h92.66919c.72656 0 1.25496.59446 1.25496 1.25496v12.81385c0 .72656-.59445 1.25496-1.25496 1.25496v.1321h-92.66919c-.72656 0-1.25497-.59445-1.25497-1.25496V415.3544c0-.72656.59446-1.25497 1.25497-1.25497"/>
  <path fill="#5d5d5d" d="M275.22376 374.49058h-4.1612c-.72656 0-1.25497-.59445-1.25497-1.25496v-12.81384c0-.72656.59446-1.25497 1.25497-1.25497h24.90113c.72656 0 1.25496.59446 1.25496 1.25497v30.91174c0 .72656-.59445 1.25497-1.25496 1.25497h-18.16396c-.72655 0-1.25496-.59446-1.25496-1.25497V375.8116c0-.72656-.59446-1.25496-1.25496-1.25496m28.94786-40.63204h12.81384c.72656 0 1.25497.59445 1.25497 1.25496v12.81384c0 .72656-.59446 1.25497-1.25497 1.25497h-12.81384c-.72656 0-1.25497-.59446-1.25497-1.25497v-12.81384c0-.66051.59446-1.25496 1.25497-1.25496m17.76765 0h12.81384c.72656 0 1.25497.59445 1.25497 1.25496v12.81384c0 .72656-.59446 1.25497-1.25497 1.25497h-12.81384c-.72656 0-1.25497-.59446-1.25497-1.25497v-12.81384c0-.66051.52841-1.25496 1.25497-1.25496m17.76765 0h12.81384c.72656 0 1.25497.59445 1.25497 1.25496v12.81384c0 .72656-.59446 1.25497-1.25497 1.25497h-12.81384c-.72656 0-1.25497-.59446-1.25497-1.25497v-12.81384c0-.66051.52841-1.25496 1.25497-1.25496m17.76765 0h12.81384c.72656 0 1.25497.59445 1.25497 1.25496v12.81384c0 .72656-.59446 1.25497-1.25497 1.25497h-12.81384c-.72656 0-1.25497-.59446-1.25497-1.25497v-12.81384c-.066-.66051.52841-1.25496 1.25497-1.25496m-53.30295-18.08688h12.81384c.72656 0 1.25497.59446 1.25497 1.25497v12.81384c0 .72656-.59446 1.25497-1.25497 1.25497h-12.81384c-.72656 0-1.25497-.59446-1.25497-1.25497v-12.81384c0-.66051.59446-1.25497 1.25497-1.25497m17.76765 0h12.81384c.72656 0 1.25497.59446 1.25497 1.25497v12.81384c0 .72656-.59446 1.25497-1.25497 1.25497h-12.81384c-.72656 0-1.25497-.59446-1.25497-1.25497v-12.81384c0-.66051.52841-1.25497 1.25497-1.25497m17.76765 0h12.81384c.72656 0 1.25497.59446 1.25497 1.25497v12.81384c0 .72656-.59446 1.25497-1.25497 1.25497h-12.81384c-.72656 0-1.25497-.59446-1.25497-1.25497v-12.81384c0-.66051.52841-1.25497 1.25497-1.25497m17.76765 0h12.81384c.72656 0 1.25497.59446 1.25497 1.25497v12.81384c0 .72656-.59446 1.25497-1.25497 1.25497h-12.81384c-.72656 0-1.25497-.59446-1.25497-1.25497v-12.81384c-.066-.66051.52841-1.25497 1.25497-1.25497m-53.30295 54.32674h12.81384c.72656 0 1.25497.59446 1.25497 1.25496v12.81385c0 .72656-.59446 1.25496-1.25497 1.25496h-12.81384c-.72656 0-1.25497-.59446-1.25497-1.25496v-12.81385c0-.72655.59446-1.25496 1.25497-1.25496m17.76765 0h12.81384c.72656 0 1.25497.59446 1.25497 1.25496v12.81385c0 .72656-.59446 1.25496-1.25497 1.25496h-12.81384c-.72656 0-1.25497-.59446-1.25497-1.25496v-12.81385c0-.72655.52841-1.25496 1.25497-1.25496m17.76765 0h12.81384c.72656 0 1.25497.59446 1.25497 1.25496v12.81385c0 .72656-.59446 1.25496-1.25497 1.25496h-12.81384c-.72656 0-1.25497-.59446-1.25497-1.25496v-12.81385c0-.72655.52841-1.25496 1.25497-1.25496m17.76765 0h12.81384c.72656 0 1.25497.59446 1.25497 1.25496v12.81385c0 .72656-.59446 1.25496-1.25497 1.25496h-12.81384c-.72656 0-1.25497-.59446-1.25497-1.25496v-12.81385c-.066-.72655.52841-1.25496 1.25497-1.25496m-53.30295-18.08694h12.81384c.72656 0 1.25497.59446 1.25497 1.25496v12.81385c0 .72656-.59446 1.25496-1.25497 1.25496h-12.81384c-.72656 0-1.25497-.59445-1.25497-1.25496v-12.81385c0-.72655.59446-1.25496 1.25497-1.25496m17.76765 0h12.81384c.72656 0 1.25497.59446 1.25497 1.25496v12.81385c0 .72656-.59446 1.25496-1.25497 1.25496h-12.81384c-.72656 0-1.25497-.59445-1.25497-1.25496v-12.81385c0-.72655.52841-1.25496 1.25497-1.25496m17.76765 0h12.81384c.72656 0 1.25497.59446 1.25497 1.25496v12.81385c0 .72656-.59446 1.25496-1.25497 1.25496h-12.81384c-.72656 0-1.25497-.59445-1.25497-1.25496v-12.81385c0-.72655.52841-1.25496 1.25497-1.25496m17.76765 0h12.81384c.72656 0 1.25497.59446 1.25497 1.25496v12.81385c0 .72656-.59446 1.25496-1.25497 1.25496h-12.81384c-.72656 0-1.25497-.59445-1.25497-1.25496v-12.81385c-.066-.72655.52841-1.25496 1.25497-1.25496M38.227281 329.56829c-.726559 0-1.254965-.59446-1.254965-1.25497v-5.74641c0-.72656.594457-1.25497 1.254965-1.25497h20.079426c.726558 0 1.254964.59446 1.254964 1.25497v5.74641c0 .72656-.594457 1.25497-1.254964 1.25497H38.227281zm24.741419 0c-.726558 0-1.254964-.59446-1.254964-1.25497v-5.74641c0-.72656.594457-1.25497 1.254964-1.25497h20.013375c.726559 0 1.254965.59446 1.254965 1.25497v5.74641c0 .72656-.594457 1.25497-1.254965 1.25497H62.9687zm24.671208 0c-.726558 0-1.254964-.59446-1.254964-1.25497v-5.74641c0-.72656.594456-1.25497 1.254964-1.25497h20.079422c.72656 0 1.25497.59446 1.25497 1.25497v5.74641c0 .72656-.59446 1.25497-1.25497 1.25497H87.639908zm24.741352 0c-.72656 0-1.25496-.59446-1.25496-1.25497v-5.74641c0-.72656.59445-1.25497 1.25496-1.25497h20.07943c.72656 0 1.25496.59446 1.25496 1.25497v5.74641c0 .72656-.59446 1.25497-1.25496 1.25497h-20.07943zm25.42392 0c-.72655 0-1.25496-.59446-1.25496-1.25497v-5.74641c0-.72656.59446-1.25497 1.25496-1.25497h20.07943c.72656 0 1.25496.59446 1.25496 1.25497v5.74641c0 .72656-.59445 1.25497-1.25496 1.25497h-20.07943zm28.22032 0c-.72656 0-1.25497-.59446-1.25497-1.25497v-5.74641c0-.72656.59446-1.25497 1.25497-1.25497h20.07942c.72656 0 1.25497.59446 1.25497 1.25497v5.74641c0 .72656-.59446 1.25497-1.25497 1.25497H166.0255zm25.42392 0c-.72656 0-1.25497-.59446-1.25497-1.25497v-5.74641c0-.72656.59446-1.25497 1.25497-1.25497h20.07942c.72656 0 1.25497.59446 1.25497 1.25497v5.74641c0 .72656-.59446 1.25497-1.25497 1.25497h-20.07942zm28.15426 0c-.72656 0-1.25497-.59446-1.25497-1.25497v-5.74641c0-.72656.59446-1.25497 1.25497-1.25497h20.07943c.72655 0 1.25496.59446 1.25496 1.25497v5.74641c0 .72656-.59446 1.25497-1.25496 1.25497h-20.07943zm24.74135 0c-.72656 0-1.25496-.59446-1.25496-1.25497v-5.74641c0-.72656.59446-1.25497 1.25496-1.25497h20.07943c.72656 0 1.25496.59446 1.25496 1.25497v5.74641c0 .72656-.59445 1.25497-1.25496 1.25497h-20.07943zm25.42399 0c-.72656 0-1.25496-.59446-1.25496-1.25497v-5.74641c0-.72656.59445-1.25497 1.25496-1.25497h20.07943c.72655 0 1.25496.59446 1.25496 1.25497v5.74641c0 .72656-.59446 1.25497-1.25496 1.25497h-20.07943z"/>
  <path fill="#5d5d5d" d="M191.44942 329.56829c-.72656 0-1.25497-.59446-1.25497-1.25497v-5.74641c0-.72656.59446-1.25497 1.25497-1.25497h20.07942c.72656 0 1.25497.59446 1.25497 1.25497v5.74641c0 .72656-.59446 1.25497-1.25497 1.25497h-20.07942z"/>
  <path fill="none" stroke="#fff" stroke-width=".66050744" stroke-miterlimit="10" d="M336.87783 422.67183h8.12424"/>
  <path fill="#231f20" d="M371.21596 430.55664h-66.24889c-1.05682 0-1.91548-.85866-1.91548-1.91548v-21.13623c0-1.05682.85866-1.91548 1.91548-1.91548h66.24889c1.05681 0 1.91547.85866 1.91547 1.91548v21.13623c0 1.05682-.85866 1.91548-1.91547 1.91548"/>
  <path fill="#231f20" d="M348.70547 438.5818h-21.53254c-1.05681 0-1.91547-.85866-1.91547-1.91547v-37.58287c0-1.05682.85866-1.91548 1.91547-1.91548h21.53254c1.05681 0 1.91547.85866 1.91547 1.91548v37.58287c0 1.05681-.85866 1.91547-1.91547 1.91547"/>
  <path fill="#5d5d5d" d="M322.70077 429.59454h-17.63555c-.59446 0-1.12287-.52841-1.12287-1.12286v-20.87204c0-.59445.52841-1.12286 1.12287-1.12286h17.63555c.59445 0 1.12286.52841 1.12286 1.12286v20.87204c0 .66051-.46236 1.12286-1.12286 1.12286"/>
  <path fill="#fff" d="M313.43464 423.81457l-5.68037-5.74641 5.68037-5.74642.46235.46236-5.218 5.28406 5.218 5.28406"/>
  <path fill="#191919" d="M333.95588 418.03064H313.6783c0-5.35011 4.5575-9.77551 10.10576-9.77551l10.17182 9.77551z"/>
  <path fill="#282828" d="M333.95588 418.03064H313.6783c0 5.35011 4.5575 9.77551 10.10576 9.77551l10.17182-9.77551z"/>
  <path fill="#fff" d="M318.09023 417.70039h7.99214v.6605h-7.99214z"/>
  <path fill="#5d5d5d" d="M353.25875 429.59454h17.63554c.59446 0 1.12287-.52841 1.12287-1.12286v-20.87204c0-.59445-.52841-1.12286-1.12287-1.12286h-17.63554c-.59446 0-1.12287.52841-1.12287 1.12286v20.87204c-.066.66051.46236 1.12286 1.12287 1.12286"/>
  <path fill="#fff" d="M362.45882 423.81457l-.46235-.46235 5.28406-5.28406-5.28406-5.28406.46235-.46236 5.74642 5.74642"/>
  <path fill="#191919" d="M341.93752 418.03064h20.27757c0-5.35011-4.5575-9.77551-10.10576-9.77551l-10.17181 9.77551z"/>
  <path fill="#282828" d="M341.93752 418.03064h20.27757c0 5.35011-4.5575 9.77551-10.10576 9.77551l-10.17181-9.77551z"/>
  <path fill="#fff" d="M349.87715 417.70039h7.99214v.6605h-7.99214z"/>
  <path fill="#5d5d5d" d="M349.7823 409.17753h-23.71222v-9.51131c0-.79261.66051-1.38706 1.38707-1.38706h20.93808c.79261 0 1.38707.6605 1.38707 1.38706v9.51131c.066-.0661.066 0 0 0"/>
  <path fill="#fff" d="M343.20232 406.66014l-5.21801-5.28406-5.28406 5.28406-.46235-.46236 5.74641-5.74641 5.74642 5.74641"/>
  <path fill="#191919" d="M349.78316 409.17753l-8.98291 8.12424h-5.81246l-8.8508-8.12424h23.64617z"/>
  <path fill="#fff" d="M333.95588 412.87875h7.99214v.66051h-7.99214z"/>
  <path fill="#5d5d5d" d="M326.17721 426.91077h23.71222v9.5113c0 .79261-.66051 1.38707-1.38706 1.38707h-21.00414c-.79261 0-1.38707-.66051-1.38707-1.38707l.0661-9.5113c-.0661.0661-.0661 0 0 0"/>
  <path fill="#fff" d="M337.9752 435.63693l-5.74642-5.74642.46236-.46235 5.28406 5.28406 5.28406-5.28406.46235.46235"/>
  <path fill="#282828" d="M326.17636 426.91077l8.9829-8.12424h5.81246l8.8508 8.12424h-23.64616z"/>
  <path fill="#fff" d="M334.01143 422.54904h7.99214v.66051h-7.99214z"/>
  <path fill="#f3e4b1" d="M316.05078 235.4866h1.84942v-.92471h-1.84942v-2.04758h-.85866v2.04758h-1.84942v.92471h1.84942v2.04757h.85866v-2.04757z"/>
  <path fill="#ead598" d="M309.121 237.55636h-17.5695v-7.33163h17.5695v7.33163z"/>
  <path fill="#212324" d="M307.77211 231.26886l-1.65127 2.50993 1.78337 2.70808h-1.65127l-.99076-1.45312-.99076 1.45312h-1.65127c.066-.0661 1.84942-2.70808 1.84942-2.70808l-.85866-1.12286h-3.23648c-.13211 0-.33026-.0661-.39631.1321 0 .0661-.0661.1321 0 .19815 0 .0661.0661.1321.1321.1321h1.38707c.59445 0 1.12286.39631 1.38706.92471.19816.46236.19816 1.12286-.066 1.51917-.33025.5284-.92471.85866-1.51916.85866h-3.56674l-.52841-2.04757-.52841 2.11362h-1.32101l-.52841-2.04757-.59445 2.04757h-1.45312s1.32101-4.88776 1.38707-5.21801h1.18891l.59446 2.17968.59445-2.17968h1.18892l.99076 3.83094h2.37782c.1321 0 .39631.066.46236-.19815 0-.0661 0-.19815-.066-.2642-.0661-.0661-.1321-.0661-.19815-.0661h-1.25497c-.59446 0-1.18891-.39631-1.45311-1.05681-.26421-.59446-.13211-1.32102.33025-1.78337.33025-.33026.66051-.46236 1.12286-.52841h4.22725l.85866 1.25496.85866-1.25496h1.78337z"/>
  <path fill="#f3e4b1" d="M311.20331 236.51666c.0661-.59446 1.65127-.99076 1.65127-2.37783 0-1.32101-.85866-1.65127-1.65127-1.65127s-1.58522.59446-1.58522 1.58522v.39631h1.12287v-.26421c0-.33025.1321-.5284.46235-.5284.26421 0 .39631.19815.39631.5284 0 .79261-1.32102 1.12286-1.84942 2.11363-.26421.3963-.26421 1.25496-.26421 1.25496h3.23649v-1.05681h-1.51917z"/>
  <path fill="#131414" d="M161.81483 245.91733h-10.03972c-1.84942 0-3.30253-1.51917-3.30253-3.30254 0-1.84942 1.51916-3.30253 3.30253-3.30253h10.03972c1.84942 0 3.30253 1.51916 3.30253 3.30253s-1.45311 3.30254-3.30253 3.30254zm-10.03972-6.01062c-1.45311 0-2.64203 1.18892-2.64203 2.64203 0 1.45312 1.18892 2.64203 2.64203 2.64203h10.03972c1.45311 0 2.64203-1.18891 2.64203-2.64203 0-1.45311-1.18892-2.64203-2.64203-2.64203h-10.03972zm57.08086-18.40068H104.69395v-4.16119h104.16202v4.16119z"/>
  <path fill="#131414" d="M208.48067 239.89013H105.0452c-1.84942 0-3.30253-1.51916-3.30253-3.30253V218.886c0-1.84942 1.51916-3.30254 3.30253-3.30254h103.43547c1.84942 0 3.30253 1.51917 3.30253 3.30254v17.7016c.0661 1.78337-1.45311 3.30253-3.30253 3.30253zM105.0452 216.17792c-1.45311 0-2.64203 1.18891-2.64203 2.64203v17.76765c0 1.45311 1.18892 2.64203 2.64203 2.64203h103.43547c1.45311 0 2.64203-1.18892 2.64203-2.64203V218.886c0-1.45312-1.18892-2.64203-2.64203-2.64203H105.0452z"/>
  <path fill="#131414" d="M195.91002 215.82567H28.339286v-11.49283H195.84397v11.49283z"/>
  <path fill="#212324" d="M42.210735 215.85321H32.104971c-.396304 0-.792609-.33025-.792609-.79261v-12.35149c0-.3963.330254-.79261.792609-.79261h10.105764c.396304 0 .792609.33026.792609.79261v12.41754c-.06605.39631-.396305.72656-.792609.72656m14.494968 0H49.37407c-.396304 0-.792609-.33025-.792609-.79261v-12.35149c0-.3963.330254-.79261.792609-.79261h7.331633c.396304 0 .792609.33026.792609.79261v12.41754c-.06605.39631-.396305.72656-.792609.72656m14.268215 0h-7.331632c-.396305 0-.792609-.33025-.792609-.79261v-12.35149c0-.3963.330253-.79261.792609-.79261h7.331632c.396305 0 .792609.33026.792609.79261v12.41754c0 .39631-.396304.72656-.792609.72656m14.268216 0h-7.331633c-.396304 0-.792609-.33025-.792609-.79261v-12.35149c0-.3963.330254-.79261.792609-.79261h7.331633c.396304 0 .792609.33026.792609.79261v12.41754c0 .39631-.330254.72656-.792609.72656m14.268215 0h-7.265581c-.396305 0-.792609-.33025-.792609-.79261v-12.35149c0-.3963.330253-.79261.792609-.79261H99.5764c.396305 0 .79261.33026.79261.79261v12.41754c-.0661.39631-.396305.72656-.858661.72656m14.334271 0h-7.33164c-.3963 0-.79261-.33025-.79261-.79261v-12.35149c0-.3963.33026-.79261.79261-.79261h7.33164c.3963 0 .7926.33026.7926.79261v12.41754c-.0661.39631-.3963.72656-.7926.72656m14.26821 0h-7.33163c-.39631 0-.79261-.33025-.79261-.79261v-12.35149c0-.3963.33025-.79261.79261-.79261h7.33163c.39631 0 .79261.33026.79261.79261v12.41754c0 .39631-.3963.72656-.79261.72656m14.26822 0h-7.33164c-.3963 0-.7926-.33025-.7926-.79261v-12.35149c0-.3963.33025-.79261.7926-.79261h7.33164c.3963 0 .79261.33026.79261.79261v12.41754c0 .39631-.33026.72656-.79261.72656m14.26821 0h-7.26558c-.3963 0-.79261-.33025-.79261-.79261v-12.35149c0-.3963.33026-.79261.79261-.79261h7.26558c.39631 0 .79261.33026.79261.79261v12.41754c0 .39631-.33025.72656-.79261.72656m14.3342 0h-7.33163c-.3963 0-.79261-.33025-.79261-.79261v-12.35149c0-.3963.33025-.79261.79261-.79261h7.33163c.39631 0 .79261.33026.79261.79261v12.41754c-.0661.39631-.3963.72656-.79261.72656m14.26822 0h-7.33163c-.39631 0-.79261-.33025-.79261-.79261v-12.35149c0-.3963.33025-.79261.79261-.79261h7.33163c.3963 0 .79261.33026.79261.79261v12.41754c0 .39631-.39631.72656-.79261.72656"/>
  <path fill="#131414" d="M195.84397 215.82567h167.50469v-11.49283H195.84397v11.49283z"/>
  <path fill="#212324" d="M349.52483 215.85321h10.10576c.39631 0 .79261-.33025.79261-.79261v-12.35149c0-.3963-.33025-.79261-.79261-.79261h-10.10576c-.3963 0-.79261.33026-.79261.79261v12.41754c.0661.39631.39631.72656.79261.72656m-14.42898 0h7.33163c.3963 0 .79261-.33025.79261-.79261v-12.35149c0-.3963-.33025-.79261-.79261-.79261h-7.33163c-.39631 0-.79261.33026-.79261.79261v12.41754c0 .39631.33025.72656.79261.72656m-14.3342 0h7.33163c.3963 0 .79261-.33025.79261-.79261v-12.35149c0-.3963-.33025-.79261-.79261-.79261h-7.33163c-.39631 0-.79261.33026-.79261.79261v12.41754c.0661.39631.3963.72656.79261.72656m-14.26822 0h7.33163c.39631 0 .79261-.33025.79261-.79261v-12.35149c0-.3963-.33025-.79261-.79261-.79261h-7.33163c-.3963 0-.79261.33026-.79261.79261v12.41754c0 .39631.39631.72656.79261.72656m-14.26821 0h7.33163c.3963 0 .79261-.33025.79261-.79261v-12.35149c0-.3963-.33026-.79261-.79261-.79261h-7.33163c-.39631 0-.79261.33026-.79261.79261v12.41754c0 .39631.33025.72656.79261.72656m-14.26822 0h7.33163c.39631 0 .79261-.33025.79261-.79261v-12.35149c0-.3963-.33025-.79261-.79261-.79261H277.957c-.3963 0-.79261.33026-.79261.79261v12.41754c0 .39631.33026.72656.79261.72656m-14.33427 0h7.33164c.3963 0 .79261-.33025.79261-.79261v-12.35149c0-.3963-.33026-.79261-.79261-.79261h-7.33164c-.3963 0-.7926.33026-.7926.79261v12.41754c.0661.39631.3963.72656.7926.72656m-14.26821 0h7.33163c.39631 0 .79261-.33025.79261-.79261v-12.35149c0-.3963-.33025-.79261-.79261-.79261h-7.33163c-.39631 0-.79261.33026-.79261.79261v12.41754c0 .39631.3963.72656.79261.72656m-14.26822 0h7.33164c.3963 0 .79261-.33025.79261-.79261v-12.35149c0-.3963-.33026-.79261-.79261-.79261h-7.33164c-.3963 0-.79261.33026-.79261.79261v12.41754c0 .39631.33026.72656.79261.72656m-14.26821 0h7.33163c.3963 0 .79261-.33025.79261-.79261v-12.35149c0-.3963-.33025-.79261-.79261-.79261h-7.33163c-.39631 0-.79261.33026-.79261.79261v12.41754c0 .39631.33025.72656.79261.72656m-14.3342 0h7.33163c.3963 0 .79261-.33025.79261-.79261v-12.35149c0-.3963-.33025-.79261-.79261-.79261h-7.33163c-.39631 0-.79261.33026-.79261.79261v12.41754c.066.39631.3963.72656.79261.72656m-6.964 0h-7.33163c-.3963 0-.79261-.33025-.79261-.79261v-12.35149c0-.3963.33026-.79261.79261-.79261h7.33163c.39631 0 .79261.33026.79261.79261v12.41754c0 .39631-.33025.72656-.79261.72656"/>
  <path fill="#ead598" d="M26.376324 219.17226h73.976836v.66051H26.376324zm188.188606 0h145.84004v.66051H214.56493z"/>
  <path fill="#212324" d="M28.379445 201.89999h-6.142719l-.132102 1.18892-.132101 1.18891h6.406922v-2.37783zm334.976675 0h6.14272l.1321 1.18892.1321 1.18891h-6.40692v-2.37783z"/>
  <path fill="#656266" d="M379.72924 251.95543H16.252v26.42029h363.47724v-26.42029z"/>
  <path fill="#212324" d="M379.72924 272.03485H16.252V258.2963h363.47724v13.73855z"/>
  <path fill="#282828" d="M5.5958355 298.92853L-2 285.45418c.4623552-2.50993 3.9630446-4.6896 7.8600385-5.48221l10.3699665-1.58522v20.54178H5.5958355z"/>
  <path fill="#212324" d="M16.24097 272.03485V258.2963l-9.3792059 1.71732c-3.5006895.85866-6.6050744 3.17043-7.0674296 5.81246v.0661l-.66050744 6.27482-.85865966 7.46374c.5284059-2.70808 3.1704357-4.95381 7.199531-5.81247l10.7662716-1.78342z"/>
  <path fill="#656266" d="M-.19859807 265.82978l1.12286264-6.80323c.39630443-2.50992 3.30253713-4.6896 6.60507433-5.48221l8.7186981-1.58522V258.3l-9.3792055 1.71731c-3.5006894.85866-6.60507437 3.17044-7.06742957 5.81247m-1.77940703 19.64897l.3302537-5.87851c.528406-2.70808 3.1704357-4.95381 7.1995311-5.87852l10.7662713-1.71732v6.34087l-10.3699669 1.58522c-3.9630446.85866-7.463734 3.03834-7.9260892 5.54826l.1321015.26421"/>
  <path fill="#5e5e5e" d="M353.81146 264.72521c0 2.84019-2.37783 5.08591-5.35011 5.08591-2.97229 0-5.35011-2.31178-5.35011-5.08591s2.37782-5.0859 5.35011-5.0859c2.97228 0 5.35011 2.31177 5.35011 5.0859"/>
  <path fill="#131414" d="M222.96883 281.0838l-.66051-.19815.92472-2.57598v-5.01985h.6605v5.15195"/>
  <path fill="#dee0e0" d="M252.24054 293.57842h-30.31729l3.43464-8.8508h30.31729l-3.43464 8.8508z"/>
  <path fill="#231f20" d="M252.43869 293.90868h-31.04385l3.69884-9.51131h31.04385l-3.69884 9.51131zm-30.05309-.66051h29.59074l3.17043-8.19029h-29.59073l-3.17044 8.19029z"/>
  <path d="M236.40804 290.44101h-5.61431l.59446-3.43464h5.61431l-.59446 3.43464zm6.36703 0h-4.02909l.59445-3.43464h4.0291l-.59446 3.43464zm7.48434 0h-4.88775l.59446-3.43464h4.88775l-.59446 3.43464zm-21.83274-2.51409h-2.44388l.26421-1.58521h2.44387l-.2642 1.58521z"/>
  <path fill="#dee0e0" d="M282.39574 293.57842h-30.31729l3.43464-8.8508h30.31729l-3.43464 8.8508z"/>
  <path fill="#231f20" d="M282.65995 293.90868H251.6161l3.69884-9.51131h31.04385l-3.69884 9.51131zm-30.11914-.66051h29.59073l3.17044-8.19029h-29.52469l-3.23648 8.19029z"/>
  <path d="M266.56318 290.44101h-5.61431l.59446-3.43464h5.61431l-.59446 3.43464zm6.43308 0h-4.0291l.59446-3.43464h4.0291l-.59446 3.43464zm7.41829 0h-4.88775l.59445-3.43464h4.88776l-.59446 3.43464zm-21.83268-2.51409H256.138l.2642-1.58521h2.44388l-.26421 1.58521z"/>
  <path fill="#dee0e0" d="M312.71 293.57842h-30.3173l3.43464-8.8508h30.31729l-3.43463 8.8508z"/>
  <path fill="none" stroke="#231f20" stroke-width=".66050744" stroke-miterlimit="10" d="M312.71 293.57842h-30.3173l3.43464-8.8508h30.31729l-3.43463 8.8508z"/>
  <path d="M296.8775 290.44101h-5.61431l.59445-3.43464h5.61432l-.59446 3.43464zm6.36703 0h-4.0291l.59446-3.43464h4.02909l-.59445 3.43464zm7.48434 0h-4.88776l.59446-3.43464h4.88776l-.59446 3.43464zm-21.83274-2.51409h-2.44388l.2642-1.58521h2.44388l-.2642 1.58521z"/>
  <path fill="#dee0e0" d="M343.08105 293.57842h-30.31729l3.43464-8.8508h30.31729l-3.43464 8.8508z"/>
  <path fill="none" stroke="#231f20" stroke-width=".66050744" stroke-miterlimit="10" d="M343.08105 293.57842h-30.31729l3.43464-8.8508h30.31729l-3.43464 8.8508z"/>
  <path d="M327.24856 290.44101h-5.61432l.59446-3.43464h5.61431l-.59445 3.43464zm6.36702 0h-4.02909l.59446-3.43464h4.02909l-.59446 3.43464zm7.48435 0h-4.88776l.59446-3.43464h4.88775l-.59445 3.43464zm-21.83275-2.51409h-2.44387l.2642-1.58521h2.44388l-.26421 1.58521z"/>
  <path fill="#813137" d="M373.48778 293.57842h-30.31729l3.43463-8.8508h30.3173l-3.43464 8.8508z"/>
  <path fill="#231f20" d="M373.68593 293.90868h-31.04385l3.69884-9.51131h31.04385l-3.69884 9.51131zm-30.05309-.66051h29.59073l3.17044-8.19029h-29.52468l-3.23649 8.19029z"/>
  <path fill="#8f9193" d="M357.65522 290.44101h-5.61432l.59446-3.43464h5.61431l-.59445 3.43464zm6.36702 0h-4.02909l.59445-3.43464h4.0291l-.59446 3.43464zm7.48434 0h-4.88775l.59446-3.43464h4.88775l-.59446 3.43464zm-21.83274-2.51409h-2.44388l.26421-1.58521h2.44387l-.2642 1.58521z"/>
  <path fill="#dee0e0" stroke="#231f20" stroke-width=".66050744" stroke-miterlimit="10" d="M203.24165 293.56739h-5.218v-8.8508h5.218v8.8508z"/>
  <path fill="#656266" d="M5.5958355 298.92853H20.523304v6.67113c-3.566741 0-6.737176 1.91547-8.520546 4.8217h.06605l-6.4729725-11.49283"/>
  <path fill="#656266" d="M375.50199 305.58863H20.479248v-6.67113H375.43594v6.67113h.066z"/>
  <path fill="#131414" d="M196.08539 299.25879H82.808362l-4.227248-18.62631H196.08539v18.62631zm-112.748622-.66051H195.42488v-17.30529H79.439774l3.896994 17.30529z"/>
  <path fill="#5e5e5e" d="M131.77475 295.15261h-2.17967v-6.01062h2.17967v6.01062zm2.97228 0h-2.17967v-6.01062h2.17967v6.01062zm2.90624 0h-2.17968v-6.01062h2.17968v6.01062zm2.97228 0h-2.17967v-6.01062h2.17967v6.01062zm2.90623 0h-2.17967v-6.01062h2.17967v6.01062z"/>
  <path fill="none" stroke="#131414" stroke-width=".66050744" stroke-miterlimit="10" d="M129.55102 292.14453h14.00276"/>
  <path fill="#5e5e5e" d="M179.72759 295.15261h-2.17967v-6.01062h2.17967v6.01062zm2.90623 0h-2.17967v-6.01062h2.17967v6.01062zm2.97229 0h-2.17968v-6.01062h2.17968v6.01062z"/>
  <path fill="none" stroke="#131414" stroke-width=".66050744" stroke-miterlimit="10" d="M177.46535 292.14453h8.05819"/>
  <path fill="#131414" d="M166.78164 295.48287H94.984486v-6.67113h71.797154v6.67113zm-71.136646-.66051h70.476146v-5.35011H95.644994v5.35011z"/>
  <path fill="#f3e4b1" d="M125.58091 286.20776h-.19815c-.59446 0-1.12287-.52841-1.12287-1.12287 0-.59445.52841-1.12286 1.12287-1.12286h.19815c.59445 0 1.12286.52841 1.12286 1.12286 0 .59446-.46235 1.12287-1.12286 1.12287m3.21997 0h-.19815c-.59446 0-1.12286-.52841-1.12286-1.12287 0-.59445.5284-1.12286 1.12286-1.12286h.19815c.59446 0 1.12286.52841 1.12286 1.12286 0 .59446-.5284 1.12287-1.12286 1.12287m3.21998 0h-.19816c-.59445 0-1.12286-.52841-1.12286-1.12287 0-.59445.52841-1.12286 1.12286-1.12286h.19816c.59445 0 1.12286.52841 1.12286 1.12286 0 .59446-.52841 1.12287-1.12286 1.12287m3.15392 0h-.19815c-.59446 0-1.12287-.52841-1.12287-1.12287 0-.59445.52841-1.12286 1.12287-1.12286h.19815c.59446 0 1.12286.52841 1.12286 1.12286.066.59446-.46235 1.12287-1.12286 1.12287"/>
  <path fill="#282828" d="M390.40416 298.93534L398 285.46099c-.46236-2.50993-3.96304-4.68961-7.86004-5.48222l-10.36997-1.58521v20.54178h10.63417z"/>
  <path fill="#212324" d="M379.75896 272.04165V258.3031l9.37921 1.71732c3.50069.85866 6.60507 3.17043 7.06743 5.81246v.0661l.66051 6.27482.85866 7.46373c-.52841-2.70808-3.17044-4.95381-7.19953-5.81247l-10.76628-1.78337z"/>
  <path fill="#656266" d="M396.1986 265.83658l-1.12286-6.80322c-.39631-2.50993-3.30254-4.68961-6.60508-5.48222l-8.7187-1.58521v6.34087l9.37921 1.71732c3.50069.79261 6.60507 3.10438 7.06743 5.81246m1.77934 19.58293l-.33025-5.87852c-.52841-2.70808-3.17044-4.95381-7.19954-5.81247l-10.76627-1.71732v6.34088l10.36997 1.58521c3.96304.85866 7.46373 2.97229 7.92609 5.48222l-.1321.2642m-7.44168 13.25163H375.4767v6.67112c3.56674 0 6.73717 1.91547 8.52054 4.82171h-.066l6.47297-11.49283"/>
  <path fill="#191919" d="M166.45139 295.15261h-22.91961v-6.01062h22.91961v6.01062z"/>
  <path fill="#131414" d="M238.59604 281.0838l-.59445-.19815.85865-2.57598v-5.01985h.66051v5.15195m14.91294 2.64203l-.59446-.19815.85866-2.57598v-5.01985h.66051v5.15195m15.04662 2.64203l-.59445-.19815.92471-2.57598v-5.01985h.6605l-.0661 5.15195m14.76862 2.64203l-.66051-.19815.92471-2.57598v-5.01985h.66051v5.15195m14.91294 2.64203l-.66051-.19815.92471-2.57598v-5.01985h.66051v5.15195m12.58108 2.87321l-.66051-.2642.92471-2.50993v-5.08591h.66051v5.21801m14.60263 2.64203l-.66051-.2642.92471-2.50993v-5.08591h.66051v5.21801m14.04675 2.64203l-.59446-.2642.85866-2.50993v-5.08591h.66051v5.21801m13.61193 2.64203l-.59445-.2642.85866-2.50993v-5.08591h.6605v5.21801m13.4982 2.64203l-.66051-.2642.92471-2.50993v-5.08591h.66051v5.21801"/>
</svg>
