<svg xmlns="http://www.w3.org/2000/svg" width="319.28647" height="200">
  <defs>
    <clipPath id="a">
      <path d="M0 143.379h228.894V0H0v143.379z"/>
    </clipPath>
  </defs>
  <g clip-path="url(#a)" transform="matrix(1.3949122,0,0,-1.3949122,0,200.00056)">
    <path fill="#494647" d="M228.8936 140.1644c0 1.78-1.432 3.214-3.213 3.214H3.2386c-1.78 0-3.214-1.432-3.214-3.214v-9.738c0-1.78 1.433-3.214 3.214-3.214h11.003c1.781 0 3.213-1.434 3.213-3.214v-43.327H3.2136c-1.78 0-3.214-1.432-3.214-3.213V3.2144h.001c0-1.781 1.432-3.214 3.213-3.214h222.466c1.781 0 3.214 1.432 3.214 3.213v136.951"/>
    <path fill="#b5b4b4" d="M207.7615 9.2816H44.3485c-6.6 0-12 5.4-12 12v110.097c0 6.6 5.4 12 12 12h163.413c6.6 0 12-5.4 12-12V21.2816c0-6.6-5.4-12-12-12"/>
    <path fill="#211d1d" d="M206.96032 23.508011h-20.16875v8.168108h20.16875v-8.168108z"/>
    <path fill="#fff" d="M205.36472 30.526339l-1.91737-2.800552 2.08545-3.059601h-1.92581l-1.14604 1.638039-1.15529-1.642056h-1.91315c.052.108038 2.09429 3.063618 2.09429 3.063618l-.87053 1.211109-3.69277-.0042c-.1723-.01345-.38335.03876-.4697-.15543-.0303-.06446-.0432-.159245-.008-.224309.0297-.0731.099-.141976.17631-.163262l.11627-.0088h1.4782c.68477-.01727 1.31854-.443598 1.61554-1.059695.26327-.517297.22431-1.223961-.0689-1.715353-.3703-.624531-1.02977-.973747-1.74487-.948043h-4.11086s-.62935 2.271206-.63357 2.275022l-.63357-2.275022-1.49927-.000401-.60325 2.284259-.65947-2.27944h-1.65893s1.52539 5.489652 1.62439 5.851719h1.40088l.65927-2.44752.67212 2.44752 1.37457.000402 1.17637-4.262477h2.74051c.18917.0092.45223-.04257.52995.189769.0301.104021.005.211457-.0689.284553-.0693.06045-.15523.07751-.2456.07751l-1.47357.000201c-.69823.02149-1.39184.478138-1.65049 1.150062-.27993.672526-.11627 1.478593.39641 1.999103.36186.36267.79281.543804 1.29726.56509l4.83459.0042.97415-1.404293 1.00789 1.40871 1.89588-.000401z"/>
    <path fill="#e4e4e4" d="M24.6602 36.7994c0-4.23-3.429-7.659-7.659-7.659s-7.659 3.429-7.659 7.659 3.429 7.659 7.659 7.659 7.659-3.429 7.659-7.659"/>
    <path fill="#1a1717" d="M3.2383 80.6714v46.541h11.003c1.781 0 3.213-1.434 3.213-3.214v-43.327h-14.24"/>
    <path fill="#4f4c4d" d="M19.2618 118.3091H.5418c-.284 0-.517.232-.517.517v3.489c0 .284.233.516.517.516h18.72c.284 0 .517-.232.517-.516v-3.489c0-.285-.233-.517-.517-.517m0-8.0965H.5418c-.284 0-.517.232-.517.517v3.489c0 .284.233.516.517.516h18.72c.284 0 .517-.232.517-.516v-3.489c0-.285-.233-.517-.517-.517m0-8.0965H.5418c-.284 0-.517.232-.517.517v3.489c0 .284.233.516.517.516h18.72c.284 0 .517-.232.517-.516v-3.489c0-.285-.233-.517-.517-.517m0-7.8777H.5418c-.284 0-.517.232-.517.517v3.489c0 .284.233.516.517.516h18.72c.284 0 .517-.232.517-.516v-3.489c0-.285-.233-.517-.517-.517m0-7.8776H.5418c-.284 0-.517.233-.517.517v3.489c0 .284.233.516.517.516h18.72c.284 0 .517-.232.517-.516v-3.489c0-.284-.233-.517-.517-.517"/>
  </g>
</svg>
