<svg xmlns="http://www.w3.org/2000/svg" viewBox="241 249.1 399.99998 203.75509">
  <path fill="#231f20" d="M241 249.10001h400v161.90476H241z"/>
  <path fill="#fff" d="M609.38095 271.79389l-37.98639 55.5102 41.36054 60.73469h-38.36734l-22.69388-32.48979-23.02041 32.48979h-37.71429c.87075-2.12245 41.36055-60.73469 41.36055-60.73469l-17.19728-23.94558h-73.2517c-3.37415.27211-7.61905-.87075-9.2517 3.10204-.59864 1.2517-.87075 3.10204-.27211 4.2449.59864 1.52381 1.85034 2.77551 3.37415 3.37415l2.5034.27211h29.4966c13.4966.27211 26.06803 8.87075 31.89115 21.11564 5.22449 10.12245 4.62586 24.21769-1.2517 34.06803-7.34693 12.2449-20.57142 19.31973-34.61224 18.72109h-81.63265l-12.57143-45.06122-12.62585 45.11564h-29.76871l-11.97279-45.38775-12.89796 45.11564h-33.08843s30.36734-108.89796 32.21768-115.91836h27.86395l12.89796 48.48979 13.22449-48.48979h27.31973l23.40136 84.68027h54.2585c3.64626-.27211 8.87075.87075 10.39456-3.64626.59864-2.12245 0-4.2449-1.2517-5.4966-1.2517-1.2517-3.10204-1.52381-4.89796-1.52381H435.5034c-13.76871-.27211-27.59184-9.52381-32.81633-22.69388-5.49659-13.22449-2.5034-29.44217 8-39.56462 7.02041-7.02041 15.61905-10.72109 25.7415-11.37415h96.05442l19.31973 27.86394 19.97279-27.86394 37.60544-.70748z"/>
  <path fill="#231f20" d="M370.79592 418.40613h83.10204v33.7415h-83.10204z"/>
  <path fill="#fff" d="M447.47619 423.35851l-8 11.64626 8.59864 12.62585h-8l-4.62585-6.7483-4.89796 6.7483h-8c.27211-.27211 8.59864-12.62585 8.59864-12.62585l-3.64626-4.89796h-15.40136c-.59864 0-1.52381-.27211-1.85034.59864 0 .27211-.27211.59864 0 .87075 0 .27211.27211.59864.59864.59864h6.80272c2.77551 0 5.4966 1.85034 6.7483 4.2449 1.2517 2.12244.87075 4.89796-.27211 7.0204-1.52381 2.50341-4.2449 3.97279-7.02041 3.97279H400.2381s-2.50341-9.52381-2.77551-9.52381l-2.77552 9.52381h-6.14966l-2.5034-9.52381-2.77551 9.52381h-6.7483s6.47619-22.69387 6.7483-24.21768h5.87755l2.77551 10.12245 2.77551-10.12245h5.87756l4.89796 17.46938h11.37414c.87075 0 1.85034.27211 2.12245-.87074 0-.27211 0-.87075-.27211-1.25171-.2721-.2721-.59863-.2721-.87074-.2721h-6.14966c-2.77551 0-5.87755-1.85034-6.7483-4.62585-1.2517-2.77551-.59864-6.14966 1.52381-8.27211 1.52381-1.52381 3.37415-2.12245 5.22449-2.5034h19.97279l3.97278 5.87755 4.2449-5.87755 7.61905.48979z"/>
  <path fill="#231f20" d="M463.69388 447.5762c.27211-2.77551 7.61905-4.62585 7.61905-10.72109 0-5.87755-4.2449-7.34694-7.61905-7.34694-3.64626 0-7.34694 2.77551-7.34694 7.34694v1.85034h5.4966v-1.2517c0-1.52381.59864-2.5034 2.12245-2.5034s1.85034.87075 1.85034 2.5034c0 3.64626-6.14966 5.22449-8.59864 9.52381-1.2517 1.85034-1.2517 5.87755-1.2517 5.87755h15.34694v-4.62585h-7.61905v-.65306zM241 418.40613h83.10204v33.7415H241z"/>
  <path fill="#fff" d="M317.68027 423.35851l-8 11.64626 8.59864 12.62585h-8l-4.62585-6.7483-4.89796 6.7483h-7.61905c.27211-.27211 8.59864-12.62585 8.59864-12.62585l-3.64625-4.89796h-15.40137c-.59863 0-1.5238-.27211-1.85034.59864 0 .27211-.2721.59864 0 .87075 0 .27211.27211.59864.59864.59864h6.7483c2.77551 0 5.4966 1.85034 6.7483 4.2449 1.2517 2.12244.87075 4.89796-.27211 7.0204-1.52381 2.50341-4.24489 3.97279-7.0204 3.97279h-17.19728s-2.5034-9.52381-2.77551-9.52381l-2.77551 9.52381h-6.14966l-2.5034-9.52381-2.77551 9.52381h-6.7483s6.47619-22.69387 6.7483-24.21768h5.87755l2.77551 10.12245 2.77551-10.12245h5.87755l4.89796 17.46938h11.37415c.87074 0 1.85034.27211 2.12245-.87074 0-.27211 0-.87075-.27211-1.25171-.27211-.32653-.59864-.2721-.87075-.2721h-6.14966c-2.77551 0-5.87755-1.85034-6.7483-4.62585-1.2517-2.77551-.59864-6.14966 1.52381-8.27211 1.52381-1.52381 3.37415-2.12245 5.22449-2.5034h19.97279l3.97279 5.87755 4.24489-5.87755 7.61905.48979z"/>
  <path fill="#231f20" d="M632.40136 442.95035H641v-4.29932h-8.59864v-9.52381h-4.29932v9.52381h-8.59864v4.29932h8.59864v9.19728h4.29932m-116.2449-33.7415h83.10204v33.7415h-83.10204z"/>
  <path fill="#fff" d="M593.16327 423.35851l-8 11.64626 8.59863 12.62585h-8l-4.62585-6.7483-4.89795 6.7483h-8c.2721-.27211 8.59863-12.62585 8.59863-12.62585l-3.64625-4.89796h-15.34694c-.59864 0-1.52381-.27211-1.85034.59864 0 .27211-.27211.59864 0 .87075 0 .27211.27211.59864.59864.59864h6.7483c2.77551 0 5.49659 1.85034 6.7483 4.2449 1.2517 2.12244.87074 4.89796-.27211 7.0204-1.52381 2.50341-4.2449 3.97279-7.02041 3.97279h-16.87075s-2.5034-9.52381-2.77551-9.52381l-2.77551 9.52381h-6.14966l-2.5034-9.52381-2.77551 9.52381h-6.80272s6.47619-22.69387 6.7483-24.21768h5.87755l2.77551 10.12245 2.77551-10.12245h5.87755l4.89796 17.46938h11.37415c.87075 0 1.85034.27211 2.12245-.87074 0-.27211 0-.87075-.27211-1.25171-.27211-.2721-.59864-.2721-.87075-.2721h-6.14966c-2.77551 0-5.87755-1.85034-6.7483-4.62585-1.2517-2.77551-.59864-6.14966 1.52381-8.27211 1.52381-1.52381 3.37415-2.12245 5.22449-2.5034h19.97279l3.97279 5.87755 4.2449-5.87755 7.67347.48979z"/>
  <path fill="#231f20" d="M609.38095 447.5762c.27211-2.77551 7.61905-4.62585 7.61905-10.72109 0-5.87755-4.2449-7.34694-7.61905-7.34694-3.64626 0-7.34694 2.77551-7.34694 7.34694v1.85034h5.4966v-1.2517c0-1.52381.59864-2.5034 2.12245-2.5034s1.85034.87075 1.85034 2.5034c0 3.64626-6.14966 5.22449-8.59864 9.52381-1.2517 1.85034-1.2517 5.87755-1.2517 5.87755H617v-4.62585h-7.61905v-.65306z"/>
</svg>
