<?xml version="1.0" encoding="UTF-8" standalone="no"?>
<svg
   xmlns:dc="http://purl.org/dc/elements/1.1/"
   xmlns:cc="http://creativecommons.org/ns#"
   xmlns:rdf="http://www.w3.org/1999/02/22-rdf-syntax-ns#"
   xmlns:svg="http://www.w3.org/2000/svg"
   xmlns="http://www.w3.org/2000/svg"
   viewBox="0 0 274.97375 182.925"
   height="182.925"
   width="274.97375"
   xml:space="preserve"
   version="1.1"
   id="svg2"><metadata
     id="metadata8"><rdf:RDF><cc:Work
         rdf:about=""><dc:format>image/svg+xml</dc:format><dc:type
           rdf:resource="http://purl.org/dc/dcmitype/StillImage" /><dc:title></dc:title></cc:Work></rdf:RDF></metadata><defs
     id="defs6"><clipPath
       id="clipPath16"
       clipPathUnits="userSpaceOnUse"><path
         id="path18"
         d="m 0,146.34 219.979,0 L 219.979,0 0,0 0,146.34 Z" /></clipPath></defs><g
     transform="matrix(1.25,0,0,-1.25,0,182.925)"
     id="g10"><g
       id="g12"><g
         clip-path="url(#clipPath16)"
         id="g14"><g
           transform="translate(219.9788,128.8218)"
           id="g20"><path
             id="path22"
             style="fill:#282827;fill-opacity:1;fill-rule:nonzero;stroke:none"
             d="m 0,0 0,-120.297 -11.835,4.859 -4.738,2.6 c -4.739,2.607 -3.076,8.525 -3.076,8.525 l 0.944,6.038 c 0,0 12.077,88.564 13.022,93.061 C -4.731,-0.71 0,0 0,0" /></g><g
           transform="translate(186.1785,52.6042)"
           id="g24"><path
             id="path26"
             style="fill:#282827;fill-opacity:1;fill-rule:nonzero;stroke:none"
             d="m 0,0 c 0,-6.23 -5.051,-11.281 -11.274,-11.281 l -131.251,0 c -6.223,0 -11.274,5.051 -11.274,11.281 l 0,73.781 c 0,2.259 1.833,4.085 4.092,4.078 L -4.255,77.354 C -1.904,77.347 0,75.436 0,73.085 L 0,0 Z m -168.66,93.736 c 0,0 1.364,-1.123 1.541,-3.346 l 0.178,-2.217 c 0,0 0.355,-18.647 1.953,-39.249 1.599,-20.601 5.506,-53.101 6.039,-57.186 0.532,-4.085 2.131,-8.88 7.459,-10.656 5.328,-1.776 26.284,-6.393 44.044,-8.169 17.76,-1.776 43.511,-1.421 56.653,0 13.142,1.421 29.659,3.552 42.446,6.571 12.787,3.019 14.208,11.544 14.208,11.544 0,0 5.15,35.874 6.393,52.569 1.243,16.694 2.401,42.715 2.401,42.715 0,0 0.356,5.442 1.862,7.424 l -185.177,0 z" /></g><g
           transform="translate(186.1785,125.689)"
           id="g28"><path
             id="path30"
             style="fill:#2c2c2d;fill-opacity:1;fill-rule:nonzero;stroke:none"
             d="m 0,0 0,-73.085 c 0,-6.23 -5.051,-11.281 -11.274,-11.281 l -131.251,0 c -6.223,0 -11.274,5.051 -11.274,11.281 l 0,73.781 c 0,2.259 1.833,4.085 4.092,4.078 L -4.255,4.269 C -1.904,4.262 0,2.351 0,0" /></g><path
           id="path32"
           style="fill:#333333;fill-opacity:1;fill-rule:nonzero;stroke:none"
           d="m 166.522,5.328 -2.01,0 0,9.945 2.01,0 0,-9.945 z m -22.256,0 -2.01,0 0,9.945 2.01,0 0,-9.945 z m -22.612,0 -2.018,0 0,9.945 2.018,0 0,-9.945 z m -22.264,0 -2.01,0 0,9.945 2.01,0 0,-9.945 z m -22.135,0 -2.018,0 0,9.945 2.018,0 0,-9.945 z m -22.91,0 -2.018,0 0,9.945 2.018,0 0,-9.945 z m 146.929,25.219 c 0,0 12.077,88.564 13.022,93.061 0.952,4.503 5.683,5.214 5.683,5.214 l 0,1.534 c 0,8.83 -7.154,15.984 -15.984,15.984 l -1.3,0 c -1.506,-1.982 -1.861,-7.424 -1.861,-7.424 0,0 -1.158,-26.021 -2.401,-42.715 -1.243,-16.694 -6.394,-52.569 -6.394,-52.569 0,0 -1.421,-8.525 -14.208,-11.544 -12.787,-3.019 -29.303,-5.15 -42.445,-6.571 -13.142,-1.421 -38.894,-1.776 -56.654,0 -17.759,1.776 -38.716,6.394 -44.044,8.17 -5.328,1.776 -6.926,6.571 -7.459,10.655 -0.533,4.085 -4.44,36.585 -6.038,57.187 -1.599,20.601 -1.954,39.249 -1.954,39.249 l -0.177,2.216 c -0.178,2.224 -1.542,3.346 -1.542,3.346 l -1.3,0 C 7.26,146.34 0,139.08 0,130.122 l 0,-1.3 c 0,0 4.731,-0.711 5.683,-5.214 0.945,-4.497 13.021,-93.061 13.021,-93.061 l 0.945,-6.039 c 0,0 1.663,-5.917 -3.076,-8.524 L 11.835,13.384 0,8.525 0,3.73 C 0,1.669 1.669,0 3.73,0 l 213.279,0 c 1.641,0 2.97,1.336 2.97,2.977 l 0,5.548 -11.835,4.859 -4.739,2.6 c -4.738,2.607 -3.076,8.524 -3.076,8.524 l 0.945,6.039 z" /><path
           id="path34"
           style="fill:#171819;fill-opacity:1;fill-rule:nonzero;stroke:none"
           d="m 166.522,5.328 -2.01,0 0,9.945 2.01,0 0,-9.945 z" /><path
           id="path36"
           style="fill:#171819;fill-opacity:1;fill-rule:nonzero;stroke:none"
           d="m 144.266,5.328 -2.01,0 0,9.945 2.01,0 0,-9.945 z" /><path
           id="path38"
           style="fill:#171819;fill-opacity:1;fill-rule:nonzero;stroke:none"
           d="m 121.654,5.328 -2.018,0 0,9.945 2.018,0 0,-9.945 z" /><path
           id="path40"
           style="fill:#171819;fill-opacity:1;fill-rule:nonzero;stroke:none"
           d="m 99.39,5.328 -2.01,0 0,9.945 2.01,0 0,-9.945 z" /><path
           id="path42"
           style="fill:#171819;fill-opacity:1;fill-rule:nonzero;stroke:none"
           d="m 77.255,5.328 -2.018,0 0,9.945 2.018,0 0,-9.945 z" /><path
           id="path44"
           style="fill:#171819;fill-opacity:1;fill-rule:nonzero;stroke:none"
           d="m 54.345,5.328 -2.018,0 0,9.945 2.018,0 0,-9.945 z" /><g
           transform="translate(16.5733,15.9837)"
           id="g46"><path
             id="path48"
             style="fill:#282827;fill-opacity:1;fill-rule:nonzero;stroke:none"
             d="m 0,0 -4.738,-2.6 -11.835,-4.859 0,120.297 c 0,0 4.731,-0.71 5.683,-5.214 C -9.945,103.127 2.131,14.563 2.131,14.563 L 3.076,8.525 C 3.076,8.525 4.738,2.607 0,0" /></g><path
           id="path50"
           style="fill:#ffffff;fill-opacity:1;fill-rule:nonzero;stroke:none"
           d="m 77.64,71.414 2.242,0 0,-3.586 -2.242,0 0,3.586 z m -5.828,0 2.242,0 0,-3.586 -2.242,0 0,3.586 z m -5.38,0 2.242,0 0,-3.586 -2.242,0 0,3.586 z m 0,0.448 0,1.345 12.553,0 c 0.598,0 0.896,-0.448 0.896,-1.345 l -13.449,0 z" /><g
           transform="translate(81.2261,69.1726)"
           id="g52"><path
             id="path54"
             style="fill:#ffffff;fill-opacity:1;fill-rule:nonzero;stroke:none"
             d="m 0,0 0,2.242 2.242,0 c 0,-0.3 0.149,-0.449 0.448,-0.449 l 5.38,0 0,-1.345 -5.828,0 C 2.242,0.149 2.391,0 2.69,0 l 5.828,0 0,-1.345 -7.621,0 C 0.299,-1.345 0,-0.897 0,0 m 0,4.035 8.518,0 0,-1.345 -8.518,0 0,1.345 z" /></g><g
           transform="translate(91.0888,69.1726)"
           id="g56"><path
             id="path58"
             style="fill:#ffffff;fill-opacity:1;fill-rule:nonzero;stroke:none"
             d="m 0,0 0,2.242 2.242,0 0,-2.242 4.483,0 c 0.298,0 0.448,0.075 0.448,0.224 0,0.149 -0.15,0.224 -0.448,0.224 l -2.242,0 0,1.345 4.035,0 c 0.896,0 1.345,-0.448 1.345,-1.345 L 9.863,0 c 0,-0.897 -0.299,-1.345 -0.897,-1.345 l -8.069,0 C 0.299,-1.345 0,-0.897 0,0 m 0,2.69 c 0,0.896 0.299,1.345 0.897,1.345 l 8.517,0 0,-1.345 -9.414,0 z" /></g><g
           transform="translate(109.4694,67.8277)"
           id="g60"><path
             id="path62"
             style="fill:#ffffff;fill-opacity:1;fill-rule:nonzero;stroke:none"
             d="m 0,0 0,0.897 -4.483,0 0,1.345 4.483,0 0,1.344 2.242,0 L 2.242,0 0,0 Z m -7.173,3.586 2.242,0 0,-3.586 -2.242,0 0,3.586 z m 0,0.449 c 0,0.896 0.299,1.345 0.897,1.345 l 7.621,0 c 0.598,0 0.897,-0.449 0.897,-1.345 l -9.415,0 z" /></g><g
           transform="translate(121.5737,67.8277)"
           id="g64"><path
             id="path66"
             style="fill:#ffffff;fill-opacity:1;fill-rule:nonzero;stroke:none"
             d="m 0,0 -5.828,0 0,1.345 4.483,0 0,2.241 2.242,0 0,-2.241 C 0.897,0.448 0.598,0 0,0 m -8.518,3.586 2.242,0 0,-3.586 -2.242,0 0,3.586 z m 0,0.449 0,1.345 8.518,0 c 0.598,0 0.897,-0.449 0.897,-1.345 l -9.415,0 z" /></g><g
           transform="translate(126.5051,68.7243)"
           id="g68"><path
             id="path70"
             style="fill:#ffffff;fill-opacity:1;fill-rule:nonzero;stroke:none"
             d="m 0,0 0,1.345 4.035,0 c 0.298,0 0.448,0.149 0.448,0.448 l 0,0.897 2.242,0 0,-1.345 C 6.725,0.448 6.426,0 5.828,0 l 1.345,-0.897 -2.242,0 L 3.586,0 0,0 Z m -2.69,2.69 2.242,0 0,-3.586 -2.242,0 0,3.586 z m 0,0.448 c 0,0.897 0.299,1.345 0.897,1.345 l 7.621,0 c 0.598,0 0.897,-0.448 0.897,-1.345 l -9.415,0 z" /></g><path
           id="path72"
           style="fill:#ffffff;fill-opacity:1;fill-rule:nonzero;stroke:none"
           d="m 135.023,73.207 2.242,0 0,-5.38 -2.242,0 0,5.38 z" /><g
           transform="translate(146.1665,71.8624)"
           id="g74"><path
             id="path76"
             style="fill:#ffffff;fill-opacity:1;fill-rule:nonzero;stroke:none"
             d="m 0,0 0.897,1.345 2.689,0 L 2.69,0 0,0 Z m -3.522,-4.035 -2.242,3.587 2.69,0 1.345,-2.152 1.345,2.152 2.69,0 -2.242,-3.587 -3.586,0 z M -6.212,0 l -0.897,1.345 2.69,0 L -3.522,0 -6.212,0 Z" /></g><g
           transform="translate(151.0979,69.1726)"
           id="g78"><path
             id="path80"
             style="fill:#ffffff;fill-opacity:1;fill-rule:nonzero;stroke:none"
             d="m 0,0 0,2.242 2.242,0 c 0,-0.3 0.149,-0.449 0.448,-0.449 l 5.38,0 0,-1.345 -5.828,0 C 2.242,0.149 2.391,0 2.69,0 l 5.828,0 0,-1.345 -7.621,0 C 0.299,-1.345 0,-0.897 0,0 m 0,4.035 8.518,0 0,-1.345 -8.518,0 0,1.345 z" /></g><g
           transform="translate(66.4319,48.8098)"
           id="g82"><path
             id="path84"
             style="fill:#ffffff;fill-opacity:1;fill-rule:nonzero;stroke:none"
             d="m 0,0 0,4.371 18.394,0 c 0.943,0 1.415,0.243 1.415,0.728 0,0.486 -0.472,0.729 -1.415,0.729 l -12.734,0 0,4.371 12.451,0 c 1.132,0 1.698,0.485 1.698,1.457 l 7.075,0 0,-7.285 C 26.884,1.457 25.563,0 22.922,0 L 0,0 Z m 0,13.113 0,4.371 22.922,0 c 2.641,0 3.962,-1.457 3.962,-4.371 L 0,13.113 Z" /></g><g
           transform="translate(96.1456,54.6378)"
           id="g86"><path
             id="path88"
             style="fill:#ffffff;fill-opacity:1;fill-rule:nonzero;stroke:none"
             d="m 0,0 c 0,2.914 1.415,4.371 4.245,4.371 l 14.149,0 c 0.943,0 1.415,0.485 1.415,1.457 l 7.075,0 0,-1.457 C 26.884,1.457 25.469,0 22.639,0 L 7.075,0 C 6.132,0 5.66,-0.485 5.66,-1.457 l 21.224,0 0,-4.371 L 0,-5.828 0,0 Z m 0,7.285 0,4.371 22.639,0 c 2.83,0 4.245,-1.457 4.245,-4.371 L 0,7.285 Z" /></g><g
           transform="translate(151.1261,66.2938)"
           id="g90"><path
             id="path92"
             style="fill:#ffffff;fill-opacity:1;fill-rule:nonzero;stroke:none"
             d="m 0,0 8.49,0 -6.307,-4.371 -8.469,0 L 0,0 Z m -0.081,-17.484 -8.308,5.766 -8.307,-5.766 -8.49,0 12.553,8.721 -4.225,2.935 16.939,0 -4.225,-2.935 12.553,-8.721 -8.49,0 z M -18.96,-4.371 -25.267,0 l 8.49,0 6.286,-4.371 -8.469,0 z" /></g><g
           transform="translate(59.7509,48.8032)"
           id="g94"><path
             id="path96"
             style="fill:#ffffff;fill-opacity:1;fill-rule:nonzero;stroke:none"
             d="m 0,0 c -0.331,0 -0.616,0.119 -0.857,0.356 -0.24,0.238 -0.361,0.57 -0.361,0.997 l 0,3.246 1.083,0 0,-3.246 c 0,-0.181 0.045,-0.271 0.135,-0.271 0.09,0 0.135,0.09 0.135,0.271 l 0,0.811 c 0,0.62 0.251,1.181 0.754,1.682 0.501,0.502 1.107,0.753 1.817,0.753 0.703,0 1.307,-0.251 1.812,-0.753 C 5.023,3.345 5.276,2.784 5.276,2.164 l 0,-3.517 -1.082,0 0,3.247 C 4.194,2.393 4.047,2.788 3.752,3.08 3.457,3.372 3.109,3.517 2.706,3.517 2.297,3.517 1.947,3.372 1.655,3.08 1.363,2.788 1.218,2.393 1.218,1.894 l 0,-0.541 C 1.218,0.926 1.099,0.594 0.861,0.356 0.624,0.119 0.336,0 0,0 m 0,-1.353 c -0.703,0 -1.308,0.251 -1.813,0.753 -0.505,0.502 -0.757,1.063 -0.757,1.682 l 0,3.517 1.082,0 0,-3.246 c 0,-0.499 0.147,-0.894 0.442,-1.186 0.295,-0.292 0.643,-0.438 1.046,-0.438 0.409,0 0.759,0.146 1.051,0.438 0.291,0.292 0.437,0.687 0.437,1.186 l 0,0.541 c 0,0.427 0.119,0.759 0.357,0.996 0.237,0.238 0.524,0.357 0.861,0.357 0.33,0 0.616,-0.119 0.856,-0.357 C 3.803,2.653 3.923,2.321 3.923,1.894 l 0,-3.247 -1.082,0 0,3.247 c 0,0.18 -0.045,0.27 -0.135,0.27 -0.091,0 -0.136,-0.09 -0.136,-0.27 l 0,-0.812 C 2.57,0.463 2.319,-0.098 1.817,-0.6 1.315,-1.102 0.71,-1.353 0,-1.353" /></g><g
           transform="translate(61.239,55.2966)"
           id="g98"><path
             id="path100"
             style="fill:#ffffff;fill-opacity:1;fill-rule:nonzero;stroke:none"
             d="m 0,0 0,3.517 1.082,0 0,-2.435 c 0.181,0 0.271,0.09 0.271,0.271 l 0,2.976 1.082,0 0,-3.247 C 2.435,0.361 2.074,0 1.353,0 L 0,0 Z m -0.271,0 -1.352,0 c -0.722,0 -1.083,0.361 -1.083,1.082 l 0,3.247 1.083,0 0,-2.976 c 0,-0.181 0.09,-0.271 0.27,-0.271 l 0,2.435 1.082,0 0,-3.517 z m -1.352,-1.353 c -1.624,0 -2.435,0.812 -2.435,2.435 l 0,3.247 1.082,0 0,-3.247 c 0,-0.902 0.451,-1.353 1.353,-1.353 l 2.976,0 c 0.902,0 1.353,0.451 1.353,1.353 l 0,3.247 1.082,0 0,-3.247 c 0,-1.623 -0.812,-2.435 -2.435,-2.435 l -2.976,0 z" /></g><g
           transform="translate(59.6156,61.5194)"
           id="g102"><path
             id="path104"
             style="fill:#ffffff;fill-opacity:1;fill-rule:nonzero;stroke:none"
             d="m 0,0 c -0.721,0 -1.082,0.361 -1.082,1.082 l 0,3.247 1.082,0 0,-2.976 C 0,1.172 0.09,1.082 0.271,1.082 l 2.435,0 c 0.18,0 0.27,0.09 0.27,0.271 l 0,0.541 -0.27,0 0,-0.541 -1.083,0 0,1.623 2.435,0 0,-1.894 C 4.058,0.361 3.698,0 2.976,0 L 0,0 Z m 0,-1.353 c -1.623,0 -2.435,0.812 -2.435,2.435 l 0,3.247 1.082,0 0,-3.247 c 0,-0.902 0.451,-1.353 1.353,-1.353 l 2.976,0 c 0.902,0 1.353,0.451 1.353,1.353 l 0,2.165 -2.976,0 0,-1.894 -1.082,0 0,2.976 5.14,0 0,-3.247 c 0,-1.623 -0.812,-2.435 -2.435,-2.435 l -2.976,0 z" /></g><g
           transform="translate(61.3292,70.2674)"
           id="g106"><path
             id="path108"
             style="fill:#ffffff;fill-opacity:1;fill-rule:nonzero;stroke:none"
             d="m 0,0 1.263,-0.496 0,0.992 L 0,0 Z m 2.345,-0.676 -0.586,0 1.939,-0.767 0,-1.082 -6.313,2.345 c -0.12,0.03 -0.181,0.09 -0.181,0.18 0,0.09 0.061,0.15 0.181,0.18 l 4.96,1.894 0,-2.75 z m 0.27,0 0,3.201 -5.501,-2.164 C -3.006,0.301 -3.066,0.18 -3.066,0 c 0,-0.15 0.06,-0.271 0.18,-0.361 l 6.584,-2.435 0,-1.082 -6.945,2.525 c -0.601,0.301 -0.902,0.752 -0.902,1.353 0,0.691 0.301,1.142 0.902,1.353 l 6.945,2.615 0,-4.644 -1.083,0 z" /></g></g></g></g></svg>