<svg xmlns="http://www.w3.org/2000/svg" viewBox="0 0 26.518 67.813"><path fill="#131413" d="M25.696 34.625l-1 32.978a.209.209 0 0 1-.209.209H2.03a.209.209 0 0 1-.209-.209l-1-32.978V.191C.821.086.906 0 1.012 0h24.493c.106 0 .191.086.191.191v34.434z"/><linearGradient id="a" gradientUnits="userSpaceOnUse" x1="1.153" y1="32.563" x2="25.383" y2="32.563"><stop offset="0" stop-color="#5d5b69"/><stop offset=".006" stop-color="#76757a"/><stop offset=".01" stop-color="#818182"/><stop offset=".011" stop-color="#7d7c7e"/><stop offset=".023" stop-color="#615e61"/><stop offset=".033" stop-color="#504c4f"/><stop offset=".04" stop-color="#4a4549"/><stop offset=".5" stop-color="#514d50"/><stop offset=".96" stop-color="#504c4f"/><stop offset=".968" stop-color="#585557"/><stop offset=".981" stop-color="#6e6c6e"/><stop offset=".99" stop-color="#818182"/><stop offset="1" stop-color="#5d5b69"/></linearGradient><path fill="url(#a)" d="M25.198 30.5H1.338a.185.185 0 0 0-.185.185v3.754c0 .102.083.185.185.185h23.86a.185.185 0 0 0 .185-.185v-3.754a.185.185 0 0 0-.185-.185z"/><path fill="#161413" d="M24.452 35.458H2.064l.9 30.501a.19.19 0 0 0 .188.193h2.624v-.542c0-.039.03-.07.067-.07h1.82c.037 0 .067.031.067.07v.542h11.057v-.542c0-.039.03-.07.067-.07h1.82c.037 0 .067.031.067.07v.542h2.624a.19.19 0 0 0 .188-.193l.899-30.501z"/><path fill="#0C0C0C" d="M24.472 35.458l-1.089.625h-4.574v.386H15.84v-.386h-5.144v.386H7.727v-.386H3.153l-1.089-.625h22.388z"/><linearGradient id="b" gradientUnits="userSpaceOnUse" x1="2.608" y1="66.153" x2="2.608" y2="35.458"><stop offset="0" stop-color="#131413"/><stop offset=".5" stop-color="#1f1e1f"/><stop offset="1" stop-color="#232223"/></linearGradient><path fill="url(#b)" d="M3.153 66.153a.19.19 0 0 1-.188-.193l-.9-30.501 1.088.625v30.069z"/><linearGradient id="c" gradientUnits="userSpaceOnUse" x1="23.908" y1="66.153" x2="23.908" y2="35.458"><stop offset="0" stop-color="#131413"/><stop offset=".5" stop-color="#1f1e1f"/><stop offset="1" stop-color="#232223"/></linearGradient><path fill="url(#c)" d="M23.364 66.153a.19.19 0 0 0 .188-.193l.9-30.501-1.088.625v30.069z"/><path fill="#BD4C46" d="M.821 9.75V3.5H.28c-.154 0-.28.095-.28.212v5.826c0 .117.126.212.28.212h.541zM25.698 9.75V3.5h.541c.154 0 .28.095.28.212v5.826c0 .116-.126.212-.28.212h-.541z"/><path fill="#111" d="M23.364 66.153H20.74v-.542c0-.039-.03-.07-.067-.07h-1.82a.068.068 0 0 0-.067.07v.542H7.729v-.542c0-.039-.03-.07-.067-.07h-1.82a.068.068 0 0 0-.067.07v.542H3.153l-1.123 1.66h22.457l-1.123-1.66z"/><path fill="#191819" d="M16.987 67.813H9.008v-2.68c0-.395.32-.716.716-.716h6.548c.395 0 .716.32.716.716v2.68z"/><g fill="#514F51" stroke="#727172" stroke-width=".05" stroke-miterlimit="10"><path d="M9.437 31.024a.244.244 0 0 1 .324-.03c.038.03.064.07.078.114l.514 1.641h-.303l-.141-.453h-.586l-.142.453h-.302l.489-1.565c.019-.054.026-.115.069-.16m.178.336l-.213.68h.426l-.213-.68zM11.567 31.036a.24.24 0 0 1 .244-.083.23.23 0 0 1 .167.157l.514 1.64h-.304l-.141-.453h-.585l-.141.453h-.301l.491-1.573c.016-.048.022-.1.056-.141m-.025 1.004h.424l-.212-.682-.212.682zM10.127 30.95h1.097v.275h-.404v1.525h-.289v-1.525h-.404v-.275zM12.813 30.961a.254.254 0 0 1 .087-.011h.346a.54.54 0 0 1 .464.277.565.565 0 0 1 .05.343.46.46 0 0 1-.165.322c-.053.044-.119.07-.175.109-.031.022-.033.065-.017.095.153.219.312.435.468.653h-.343l-.447-.627a.215.215 0 0 1-.029-.206.203.203 0 0 1 .124-.11.508.508 0 0 0 .265-.186.284.284 0 0 0 .022-.228.237.237 0 0 0-.233-.171h-.224c-.034-.001-.066.027-.065.058v1.469h-.291v-1.581c-.002-.091.068-.178.163-.206zM14.023 30.95h.307v1.8h-.307v-1.8z"/></g><path fill="#514F51" stroke="#727172" stroke-width=".05" stroke-miterlimit="10" d="M5.483 31v.257a5.471 5.471 0 0 1-.066.756 1.994 1.994 0 0 1-.176.575 1.575 1.575 0 0 1-.754.745c-.14.066-.291.116-.448.137v.434c.13-.016.258-.046.383-.084.22-.068.429-.168.604-.306.196-.149.37-.326.481-.535.068-.13.123-.266.149-.408a4.82 4.82 0 0 0 .064-.622c.007-.144.011-.288.01-.432v-.518L5.483 31M5.828 31.001v1.979c.001.309-.001.618.001.926h.452v-2.905h-.453M6.382 31v.476c-.002.281.009.561.037.841.015.129.031.259.069.385.041.125.094.248.166.361.092.146.215.275.352.388.083.069.17.134.265.189a2.198 2.198 0 0 0 .8.264v-.434a1.63 1.63 0 0 1-.802-.366 1.624 1.624 0 0 1-.415-.55 2.278 2.278 0 0 1-.179-.67A6.214 6.214 0 0 1 6.626 31h-.244M18.618 32.635v.201H17.48v-.176l.771-.77c.072-.089.156-.199.156-.315a.347.347 0 0 0-.346-.336.344.344 0 0 0-.339.322h-.22c.035-.313.238-.523.558-.523.299 0 .556.222.556.528a.58.58 0 0 1-.131.362l-.693.708.826-.001zM19.713 31.037a.92.92 0 0 0-.915.922c0 .504.41.915.915.915.519 0 .926-.403.926-.918s-.407-.919-.926-.919zm.71.922c0 .398-.317.71-.721.71a.7.7 0 0 1-.687-.71c0-.395.308-.717.687-.717.411 0 .721.308.721.717zM21.748 31.037a.92.92 0 0 0-.915.922c0 .504.41.915.915.915.519 0 .926-.403.926-.918s-.407-.919-.926-.919zm.709.922c0 .398-.317.71-.721.71a.7.7 0 0 1-.687-.71c0-.395.308-.717.687-.717.412 0 .721.308.721.717zM15.98 32.471l.168-.076c.104.201.253.302.45.302.14 0 .251-.047.335-.141a.472.472 0 0 0 .125-.326.403.403 0 0 0-.111-.288.373.373 0 0 0-.283-.117c-.154 0-.202.025-.335.159l-.184-.056.164-.829h.797l.016.184h-.678l-.078.402c.127-.025.18-.024.336-.024.153 0 .285.053.397.16a.536.536 0 0 1 .168.407.642.642 0 0 1-.668.642c-.141 0-.267-.036-.377-.107s-.191-.17-.242-.292z"/><linearGradient id="d" gradientUnits="userSpaceOnUse" x1="8.878" y1="33.71" x2="22.674" y2="33.71"><stop offset=".016" stop-color="#fcdc05"/><stop offset=".025" stop-color="#f9bf0d"/><stop offset=".039" stop-color="#f59917"/><stop offset=".053" stop-color="#f27e1e"/><stop offset=".064" stop-color="#f16e22"/><stop offset=".073" stop-color="#f06824"/><stop offset=".078" stop-color="#ef5f25"/><stop offset=".093" stop-color="#ed4926"/><stop offset=".111" stop-color="#eb3827"/><stop offset=".134" stop-color="#ea2d28"/><stop offset=".165" stop-color="#e92629"/><stop offset=".252" stop-color="#e92429"/><stop offset=".255" stop-color="#e5242b"/><stop offset=".295" stop-color="#b42b45"/><stop offset=".336" stop-color="#89305c"/><stop offset=".377" stop-color="#66346e"/><stop offset=".419" stop-color="#4b387d"/><stop offset=".461" stop-color="#383a87"/><stop offset=".504" stop-color="#2d3c8d"/><stop offset=".55" stop-color="#293c8f"/><stop offset=".588" stop-color="#294092"/><stop offset=".623" stop-color="#294b9a"/><stop offset=".657" stop-color="#285ea8"/><stop offset=".69" stop-color="#2878bc"/><stop offset=".723" stop-color="#279ad5"/><stop offset=".734" stop-color="#27a7df"/><stop offset=".736" stop-color="#25a7d9"/><stop offset=".748" stop-color="#1ba5b3"/><stop offset=".761" stop-color="#13a493"/><stop offset=".775" stop-color="#0ca379"/><stop offset=".79" stop-color="#07a264"/><stop offset=".807" stop-color="#03a156"/><stop offset=".828" stop-color="#01a14e"/><stop offset=".863" stop-color="#00a14b"/><stop offset="1" stop-color="#89be6a"/></linearGradient><path fill="url(#d)" stroke="#727172" stroke-width=".1" stroke-miterlimit="10" d="M22.587 34.15H8.965a.087.087 0 0 1-.087-.087v-.706c0-.048.039-.087.087-.087h13.622c.048 0 .087.039.087.087v.706a.087.087 0 0 1-.087.087z"/><path fill="#181818" d="M24.461 3.936v3.065a.071.071 0 0 1-.071.071H2.125a.071.071 0 0 1-.071-.071V.852c0-.039.032-.071.071-.071H24.39c.039 0 .071.032.071.071v3.074"/><path fill="#262827" d="M24.386.781l-.873.719H3.003L2.13.781zM2.133 7.052l.873-.719h20.51l.873.719z"/><path fill="#111" d="M2.906 6.245V1.607c0-.054.044-.098.098-.098h20.51c.054 0 .098.044.098.098v4.638a.098.098 0 0 1-.098.098H3.003a.097.097 0 0 1-.097-.098z"/><g fill="#161615"><path d="M9.63 1.51h.354v4.833H9.63zM16.531 1.51h.354v4.833h-.354z"/></g><g fill="#161615"><path d="M9.63 1.51l-1.118.803H4.201L3.003 1.51zM9.63 6.343l-1.118-.822H4.201l-1.198.822zM16.886 1.51l1.118.803h4.311l1.197-.803zM16.886 6.343l1.118-.822h4.311l1.197.822zM9.984 1.51l1.118.803h4.311l1.118-.803zM9.984 6.343l1.118-.822h4.311l1.118.822z"/></g><path fill="#0F0F0F" stroke="#000" stroke-width=".15" stroke-miterlimit="10" d="M22.315 5.53h-4.311a.294.294 0 0 1-.293-.293V2.615c0-.161.132-.293.293-.293h4.311c.161 0 .293.132.293.293v2.623a.293.293 0 0 1-.293.292z"/><g fill="#973E3A"><path d="M18.552 4.425h-.241v-.649c0-.108.031-.193.093-.255a.35.35 0 0 1 .258-.093.36.36 0 0 1 .244.084.268.268 0 0 1 .097.21.243.243 0 0 1-.115.209.18.18 0 0 1 .1.074c.02.032.03.08.03.143v.278h-.241v-.228c0-.053-.007-.088-.02-.106-.02-.027-.051-.041-.095-.041h-.056v-.19h.042c.039 0 .07-.01.092-.029s.034-.046.034-.079c0-.031-.011-.056-.031-.077s-.046-.031-.076-.031c-.053 0-.088.026-.106.078a.383.383 0 0 0-.009.099v.603zM19.78 4.219v.206h-.139a.47.47 0 0 1-.376-.156.491.491 0 0 1-.128-.33.484.484 0 0 1 .488-.492h.155v.206h-.093c-.153 0-.246.063-.278.189h.371v.186h-.371a.232.232 0 0 0 .083.137.291.291 0 0 0 .187.054h.101zM19.909 4.425v-.22h.244c.061 0 .1-.001.118-.004.035-.006.052-.02.052-.042 0-.021-.031-.053-.093-.097l-.208-.147a.257.257 0 0 1-.118-.218c0-.081.029-.142.088-.185a.413.413 0 0 1 .249-.065h.278v.219h-.208a.48.48 0 0 0-.119.009c-.026.008-.039.021-.039.038 0 .012.004.022.014.03.009.008.033.026.073.054l.229.157a.214.214 0 0 1 .102.187.296.296 0 0 1-.043.155c-.029.047-.068.08-.116.1s-.115.029-.199.029h-.304zM21.293 4.219v.206h-.139a.47.47 0 0 1-.376-.156.491.491 0 0 1-.128-.33.484.484 0 0 1 .488-.492h.155v.206H21.2c-.153 0-.246.063-.278.189h.371v.186h-.371a.232.232 0 0 0 .083.137.291.291 0 0 0 .187.054h.101zM21.811 4.425h-.241v-.759h-.199v-.219h.638v.219h-.198v.759z"/></g><path fill="#0F0F0F" stroke="#000" stroke-width=".15" stroke-miterlimit="10" d="M8.512 5.521H4.201a.294.294 0 0 1-.293-.293V2.605c0-.161.132-.293.293-.293h4.311c.161 0 .293.132.293.293v2.623a.295.295 0 0 1-.293.293z"/><g fill="#1E6547"><path d="M4.474 4.415v-.219h.244c.061 0 .1-.001.118-.004.035-.006.052-.02.052-.042 0-.021-.031-.053-.093-.097l-.207-.148a.257.257 0 0 1-.118-.218c0-.081.029-.142.088-.185a.413.413 0 0 1 .249-.065h.278v.219h-.209a.48.48 0 0 0-.119.009c-.026.008-.038.021-.038.038 0 .012.004.022.014.03a.484.484 0 0 0 .073.054l.229.157a.214.214 0 0 1 .102.187.296.296 0 0 1-.043.155c-.029.047-.068.08-.116.1s-.116.029-.2.029h-.304zM5.622 4.415h-.241v-.759h-.199v-.219h.638v.219h-.198v.759zM6.631 4.415H6.39v-.346h-.195v-.198h.195v-.073c0-.048-.007-.083-.022-.103a.11.11 0 0 0-.095-.049c-.047 0-.082.017-.103.051a.204.204 0 0 0-.02.099v.619h-.241V3.8c0-.11.029-.199.086-.266a.341.341 0 0 1 .274-.116c.123 0 .218.045.288.135a.411.411 0 0 1 .074.257v.605zM7.057 4.415h-.241v-.648c0-.108.031-.193.093-.255a.35.35 0 0 1 .258-.093.36.36 0 0 1 .244.084.268.268 0 0 1 .097.21.243.243 0 0 1-.115.209.18.18 0 0 1 .1.074c.02.032.03.08.03.143v.278h-.24v-.228c0-.053-.007-.088-.02-.106-.02-.027-.051-.041-.095-.041h-.056v-.19h.042c.039 0 .07-.01.092-.029s.034-.046.034-.08c0-.031-.011-.056-.031-.077s-.047-.03-.077-.03c-.053 0-.088.026-.106.078a.369.369 0 0 0-.009.098v.603zM8.044 4.415h-.241v-.759h-.199v-.219h.638v.219h-.198v.759z"/></g><g><path fill="#0F0F0F" stroke="#000" stroke-width=".15" stroke-miterlimit="10" d="M15.413 5.521h-4.311a.294.294 0 0 1-.293-.293V2.605c0-.161.132-.293.293-.293h4.311c.161 0 .293.132.293.293v2.623a.294.294 0 0 1-.293.293z"/><g fill="#CFA634"><path d="M11.514 4.406h-.241v-.615c0-.118.03-.208.089-.272a.341.341 0 0 1 .262-.11c.102 0 .187.033.256.099a.333.333 0 0 1 .103.248.333.333 0 0 1-.11.259.333.333 0 0 1-.231.078h-.078v-.217h.065c.037 0 .067-.011.09-.033s.035-.051.035-.087a.117.117 0 0 0-.119-.119c-.081 0-.121.055-.121.166v.603zM12.811 4.406h-.241V4.06h-.194v-.198h.194v-.074c0-.048-.007-.083-.022-.103a.108.108 0 0 0-.094-.048c-.047 0-.082.017-.103.051a.19.19 0 0 0-.021.099v.619h-.241v-.615c0-.11.029-.199.086-.266a.341.341 0 0 1 .274-.116c.123 0 .218.045.288.135a.411.411 0 0 1 .074.257v.605zM13.471 3.428h.241v.629a.356.356 0 0 1-.096.263.352.352 0 0 1-.265.104.353.353 0 0 1-.278-.119.353.353 0 0 1-.081-.241v-.636h.241v.612c0 .105.04.157.119.157a.106.106 0 0 0 .1-.057.225.225 0 0 0 .018-.104v-.608zM13.859 4.406v-.22h.244c.061 0 .1-.001.118-.004.035-.006.052-.02.052-.042 0-.021-.031-.053-.093-.097l-.208-.147a.257.257 0 0 1-.118-.218c0-.081.029-.142.088-.185a.413.413 0 0 1 .249-.065h.278v.219h-.208a.48.48 0 0 0-.119.009c-.026.008-.039.021-.039.038 0 .012.004.022.014.03.009.008.033.026.073.054l.229.157a.214.214 0 0 1 .102.187.296.296 0 0 1-.043.155c-.029.047-.068.08-.116.1s-.115.029-.199.029h-.304zM15.243 4.2v.206h-.139a.47.47 0 0 1-.376-.156.491.491 0 0 1-.128-.33.484.484 0 0 1 .488-.492h.155v.206h-.093c-.153 0-.246.063-.278.189h.371v.186h-.371a.232.232 0 0 0 .083.137.3.3 0 0 0 .188.054h.1z"/></g></g><path fill="#232624" d="M25.504 0l-1.118.781H2.13L1.012 0z"/><g fill="#181918"><path d="M9.994 44.211H4.766a.083.083 0 0 1-.083-.083V39.94c0-.046.038-.083.083-.083h5.229c.046 0 .083.038.083.083v4.187a.084.084 0 0 1-.084.084zM15.882 44.211h-5.229a.083.083 0 0 1-.083-.083V39.94c0-.046.038-.083.083-.083h5.229c.046 0 .083.038.083.083v4.187a.082.082 0 0 1-.083.084zM21.77 44.211h-5.229a.083.083 0 0 1-.083-.083V39.94c0-.046.038-.083.083-.083h5.229c.046 0 .083.038.083.083v4.187a.082.082 0 0 1-.083.084zM9.994 50.164H4.766a.083.083 0 0 1-.083-.083v-4.187c0-.046.038-.083.083-.083h5.229c.046 0 .083.038.083.083v4.187a.084.084 0 0 1-.084.083zM15.882 50.164h-5.229a.083.083 0 0 1-.083-.083v-4.187c0-.046.038-.083.083-.083h5.229c.046 0 .083.038.083.083v4.187a.083.083 0 0 1-.083.083zM21.77 50.164h-5.229a.083.083 0 0 1-.083-.083v-4.187c0-.046.038-.083.083-.083h5.229c.046 0 .083.038.083.083v4.187a.083.083 0 0 1-.083.083zM9.994 56.117H4.766a.083.083 0 0 1-.083-.083v-4.187c0-.046.038-.083.083-.083h5.229c.046 0 .083.038.083.083v4.187a.084.084 0 0 1-.084.083zM15.882 56.117h-5.229a.083.083 0 0 1-.083-.083v-4.187c0-.046.038-.083.083-.083h5.229c.046 0 .083.038.083.083v4.187a.083.083 0 0 1-.083.083zM21.77 56.117h-5.229a.083.083 0 0 1-.083-.083v-4.187c0-.046.038-.083.083-.083h5.229c.046 0 .083.038.083.083v4.187a.083.083 0 0 1-.083.083zM9.994 62.069H4.766a.083.083 0 0 1-.083-.083v-4.187c0-.046.038-.083.083-.083h5.229c.046 0 .083.038.083.083v4.187a.084.084 0 0 1-.084.083zM15.882 62.069h-5.229a.083.083 0 0 1-.083-.083v-4.187c0-.046.038-.083.083-.083h5.229c.046 0 .083.038.083.083v4.187a.082.082 0 0 1-.083.083zM21.77 62.069h-5.229a.083.083 0 0 1-.083-.083v-4.187c0-.046.038-.083.083-.083h5.229c.046 0 .083.038.083.083v4.187a.082.082 0 0 1-.083.083z"/></g><g fill="#30302F"><path d="M9.221 43.347H5.539a.098.098 0 0 1-.097-.097v-2.431c0-.053.044-.097.097-.097H9.22c.053 0 .097.044.097.097v2.431a.096.096 0 0 1-.096.097zM15.109 43.347h-3.681a.098.098 0 0 1-.097-.097v-2.431c0-.053.044-.097.097-.097h3.681c.053 0 .097.044.097.097v2.431a.098.098 0 0 1-.097.097zM20.997 43.347h-3.681a.098.098 0 0 1-.097-.097v-2.431c0-.053.044-.097.097-.097h3.681c.053 0 .097.044.097.097v2.431a.098.098 0 0 1-.097.097zM9.227 49.299H5.545a.098.098 0 0 1-.097-.097v-2.431c0-.053.044-.097.097-.097h3.681c.053 0 .097.044.097.097v2.431a.096.096 0 0 1-.096.097zM15.099 49.279h-3.681a.098.098 0 0 1-.097-.097v-2.431c0-.053.044-.097.097-.097h3.681c.053 0 .097.044.097.097v2.431a.098.098 0 0 1-.097.097zM20.997 49.299h-3.681a.098.098 0 0 1-.097-.097v-2.431c0-.053.044-.097.097-.097h3.681c.053 0 .097.044.097.097v2.431a.097.097 0 0 1-.097.097zM9.227 55.263H5.545a.098.098 0 0 1-.097-.097v-2.431c0-.053.044-.097.097-.097h3.681c.053 0 .097.044.097.097v2.431a.096.096 0 0 1-.096.097zM15.109 55.263h-3.681a.098.098 0 0 1-.097-.097v-2.431c0-.053.044-.097.097-.097h3.681c.053 0 .097.044.097.097v2.431a.098.098 0 0 1-.097.097zM20.983 55.252h-3.681a.098.098 0 0 1-.097-.097v-2.431c0-.053.044-.097.097-.097h3.681c.053 0 .097.044.097.097v2.431a.097.097 0 0 1-.097.097zM9.227 61.205H5.545a.098.098 0 0 1-.097-.097v-2.431c0-.053.044-.097.097-.097h3.681c.053 0 .097.044.097.097v2.431a.096.096 0 0 1-.096.097zM15.109 61.205h-3.681a.098.098 0 0 1-.097-.097v-2.431c0-.053.044-.097.097-.097h3.681c.053 0 .097.044.097.097v2.431a.098.098 0 0 1-.097.097zM20.997 61.206h-3.681a.098.098 0 0 1-.097-.097v-2.431c0-.053.044-.097.097-.097h3.681c.053 0 .097.044.097.097v2.431a.098.098 0 0 1-.097.097z"/></g><g><path fill="#AD9A3B" d="M7.466 42.882v-1.198h-.393v-.172c.145-.002.252-.029.322-.08.07-.051.112-.133.126-.246h.165v1.695h-.22zM12.69 42.882v-.007c0-.167.039-.306.116-.417.078-.112.217-.223.419-.332l.143-.079c.086-.046.149-.099.188-.157s.059-.126.059-.204a.277.277 0 0 0-.092-.216.353.353 0 0 0-.246-.082.3.3 0 0 0-.241.104.428.428 0 0 0-.088.287v.02h-.22v-.034c0-.178.05-.318.151-.422a.546.546 0 0 1 .411-.155c.166 0 .299.046.402.138a.468.468 0 0 1 .153.364c0 .116-.03.218-.09.305a.74.74 0 0 1-.275.227l-.142.072c-.135.07-.232.134-.291.191a.413.413 0 0 0-.117.19h.914v.208H12.69zM18.567 42.33h.224a.39.39 0 0 0 .098.275c.063.065.15.098.263.098a.363.363 0 0 0 .261-.089.318.318 0 0 0 .095-.244.271.271 0 0 0-.094-.22.404.404 0 0 0-.264-.079l-.05.001-.069.004v-.191l.05.002h.044c.109 0 .189-.021.242-.064.053-.043.079-.109.079-.197 0-.085-.025-.151-.077-.196-.051-.046-.124-.069-.219-.069-.107 0-.189.03-.245.091-.056.061-.083.15-.083.268h-.215v-.017c0-.165.048-.296.144-.395a.517.517 0 0 1 .388-.146c.172 0 .306.04.4.119.095.08.142.191.142.334a.381.381 0 0 1-.054.208.328.328 0 0 1-.16.131c.091.033.16.085.207.155.047.07.07.157.07.259a.494.494 0 0 1-.166.39.637.637 0 0 1-.44.146.572.572 0 0 1-.416-.152.545.545 0 0 1-.155-.408v-.014zM7.527 48.81v-.417h-.74v-.213l.738-1.017h.22v1.036h.24v.194h-.24v.417h-.218zm-.537-.611h.537v-.754l-.537.754zM12.671 48.326h.225c.014.088.05.156.109.206s.136.074.228.074a.369.369 0 0 0 .272-.103.37.37 0 0 0 .103-.271c0-.114-.034-.206-.102-.273s-.159-.102-.273-.102a.392.392 0 0 0-.321.155h-.192l.132-.893h.9v.199h-.737l-.068.454a.403.403 0 0 1 .143-.081.542.542 0 0 1 .179-.028.57.57 0 0 1 .417.154.54.54 0 0 1 .158.404c0 .177-.056.32-.167.43a.595.595 0 0 1-.436.165.582.582 0 0 1-.395-.134.517.517 0 0 1-.175-.356zM19.733 47.581h-.223c-.009-.087-.039-.154-.091-.201s-.124-.069-.214-.069a.32.32 0 0 0-.283.151c-.065.101-.104.254-.115.459a.453.453 0 0 1 .173-.138.533.533 0 0 1 .229-.047c.159 0 .289.051.388.153.1.102.149.237.149.404 0 .167-.053.303-.158.408s-.243.157-.414.157c-.198 0-.349-.068-.454-.205s-.158-.333-.158-.591c0-.302.056-.535.168-.7a.532.532 0 0 1 .469-.248c.16 0 .287.041.379.122a.464.464 0 0 1 .155.345zm-.22.716c0-.11-.031-.198-.091-.263s-.141-.098-.239-.098a.345.345 0 0 0-.26.097.363.363 0 0 0-.094.266c0 .113.031.203.093.269s.146.1.251.1a.317.317 0 0 0 .246-.103.386.386 0 0 0 .094-.268zM7.04 54.774a2.491 2.491 0 0 1 .69-1.426h-.921v-.221h1.154v.201a2.533 2.533 0 0 0-.678 1.446H7.04zM12.967 53.867a.38.38 0 0 1-.167-.139.395.395 0 0 1-.056-.215c0-.129.048-.233.145-.314s.223-.121.378-.121c.156 0 .282.04.378.121a.39.39 0 0 1 .144.314.402.402 0 0 1-.054.216.367.367 0 0 1-.167.138.417.417 0 0 1 .209.16c.047.072.07.16.07.264a.498.498 0 0 1-.157.387.603.603 0 0 1-.423.144.6.6 0 0 1-.423-.144.504.504 0 0 1-.156-.387c0-.104.023-.192.07-.264s.117-.125.209-.16zm-.045.419c0 .103.031.184.093.243s.146.089.253.089c.107 0 .192-.03.254-.089s.093-.141.093-.243c0-.096-.031-.171-.092-.227s-.146-.083-.254-.083c-.107 0-.192.028-.253.083s-.094.131-.094.227zm.053-.754c0 .081.026.146.08.194a.304.304 0 0 0 .213.073c.089 0 .16-.024.213-.073.054-.049.08-.114.08-.194s-.026-.144-.078-.19a.314.314 0 0 0-.215-.069.311.311 0 0 0-.214.069.238.238 0 0 0-.079.19zM18.566 54.346h.223c.004.084.033.15.086.198s.125.071.217.071c.123 0 .217-.05.283-.151s.104-.254.115-.46a.459.459 0 0 1-.173.14.542.542 0 0 1-.227.047.516.516 0 0 1-.388-.153.554.554 0 0 1-.149-.404c0-.168.053-.305.158-.409s.243-.157.414-.157c.197 0 .347.068.452.205.105.137.157.333.157.591 0 .304-.056.538-.167.702s-.27.246-.476.246c-.16 0-.287-.042-.381-.126s-.144-.198-.144-.34zm.22-.715c0 .109.03.196.091.261.06.065.14.098.24.098.11 0 .197-.032.26-.097a.36.36 0 0 0 .094-.265.382.382 0 0 0-.094-.27.334.334 0 0 0-.253-.1.314.314 0 0 0-.245.103.393.393 0 0 0-.093.27zM8.04 60.101c.018.008.027.023.025.046s-.017.06-.047.11c-.03.052-.054.084-.073.096s-.036.012-.052 0l-.416-.303.055.512c.004.02-.004.035-.025.045s-.061.016-.121.016-.1-.005-.121-.016-.029-.025-.025-.045l.055-.512-.414.303c-.016.012-.033.012-.053 0s-.044-.043-.074-.096c-.03-.051-.045-.087-.046-.11s.008-.038.026-.046l.471-.209-.471-.207c-.018-.009-.027-.025-.026-.048s.016-.06.046-.11.055-.082.074-.094.037-.012.053 0l.414.301-.055-.51c-.004-.021.004-.037.025-.047s.061-.016.121-.016.1.005.121.016.029.026.025.047l-.055.51.416-.301c.016-.012.033-.012.052 0s.043.043.073.096c.03.049.045.085.047.108s-.007.039-.025.048l-.471.207.471.209zM12.685 59.894c0-.285.05-.502.149-.65a.489.489 0 0 1 .435-.223c.192 0 .337.074.435.221s.147.365.147.652c0 .287-.049.503-.147.65a.489.489 0 0 1-.435.22.494.494 0 0 1-.435-.221c-.099-.147-.149-.364-.149-.649zm.232 0c0 .232.028.402.085.51a.283.283 0 0 0 .267.162.28.28 0 0 0 .266-.16c.056-.107.083-.277.083-.512s-.028-.406-.083-.513-.144-.16-.266-.16a.283.283 0 0 0-.267.162c-.056.108-.085.278-.085.511zM18.992 59.028h.17l-.117.537h.337l.121-.537h.17l-.115.537h.201v.173h-.241l-.066.311h.208v.174h-.244l-.115.537h-.169l.114-.537h-.338l-.12.537h-.165l.113-.537h-.185v-.174h.219l.067-.311h-.192v-.173h.226l.121-.537zm.02.71l-.071.313h.342l.065-.313h-.336z"/></g><ellipse fill="#0F0F0F" cx="13.258" cy="18.875" rx="10.177" ry="9.813"/><ellipse fill="#0A0A0A" cx="13.258" cy="18.241" rx="8.603" ry="8.197"/><circle fill="#0F0F0F" cx="13.258" cy="18.47" r="7.197"/><circle fill="none" stroke="#000" stroke-width=".144" stroke-miterlimit="10" cx="13.258" cy="13.542" r="2.178"/><ellipse fill="#080808" cx="13.268" cy="18.272" rx="6.514" ry="5.719"/><path fill="#0C0C0C" d="M8.204 13.778c0-2.604 2.263-4.716 5.054-4.716 2.791 0 5.054 2.111 5.054 4.716l.553 4.716c0 2.918-2.51 5.284-5.607 5.284-3.097 0-5.607-2.366-5.607-5.284l.553-4.716z"/><path fill="#161616" d="M8.213 13.746c0 2.604 2.263 4.716 5.054 4.716s5.054-2.111 5.054-4.716v.032c0-2.604-2.263-4.716-5.054-4.716s-5.054 2.111-5.054 4.716"/><g><ellipse fill="none" stroke="#0F0C0D" stroke-width=".491" stroke-miterlimit="10" cx="13.258" cy="13.626" rx="3.848" ry="3.582"/><ellipse fill="none" stroke="#0F0C0D" stroke-width=".172" stroke-miterlimit="10" cx="13.258" cy="13.542" rx="2.652" ry="2.563"/><circle fill="none" stroke="#0F0C0D" stroke-width=".122" stroke-miterlimit="10" cx="13.258" cy="13.542" r="1.851"/><circle fill="none" stroke="#0F0C0D" stroke-width=".104" stroke-miterlimit="10" cx="13.258" cy="13.542" r="1.574"/><path fill="none" stroke="#0F0C0D" stroke-width=".057" stroke-miterlimit="10" d="M13.258 14.411a.87.87 0 0 1 0-1.738.87.87 0 0 1 0 1.738z"/><g fill="#0F0C0D"><ellipse cx="12.864" cy="13.582" rx=".098" ry=".197"/><ellipse cx="13.652" cy="13.582" rx=".098" ry=".197"/></g></g><g fill="#0A0A0A"><path d="M15.56 23.313l-.443-5.164-.056-.155c-.036-.113-.127-.191-.237-.191-.11 0-.191.099-.182.21l.089.264.445 5.183M17.445 22.008l-.844-4.709-.106-.126c-.094-.118-.257-.098-.313-.043a.197.197 0 0 0-.021.267l.12.143.827 4.793M18.736 19.627l-1.012-3.654-.094-.059c-.132-.072-.294-.016-.334.058-.051.092.005.22.07.257l.139.085 1.033 3.96M13.466 23.774V18.24a.2.2 0 0 0-.198-.202.2.2 0 0 0-.198.202v5.535a5.91 5.91 0 0 0 .396-.001zM18.557 15.868l-.124-1.055-.155-.505-.109-.019c-.158-.031-.279.045-.299.134-.023.102.103.211.169.249l.172.03.346 1.166zM10.96 23.313l.443-5.164.056-.155c.036-.113.127-.191.237-.191.11 0 .191.099.182.21l-.089.264-.445 5.183M9.071 22.008l.844-4.709.106-.126c.094-.118.257-.099.313-.043a.197.197 0 0 1 .021.267l-.12.143-.827 4.793M7.787 19.627l1.012-3.654.094-.059c.132-.072.294-.016.334.058.051.092-.005.22-.07.257l-.139.085-1.033 3.96M7.963 15.868l.124-1.055.155-.505.109-.019c.158-.031.279.045.299.134.023.102-.103.211-.169.249l-.172.03-.346 1.166zM16.294 10.008l-.132.151a.195.195 0 0 0 .021.267c.056.056.219.075.313-.043 0 0 .11-.155.107-.141a5.109 5.109 0 0 0-.309-.234zM17.524 11.243l-.157.085c-.066.038-.121.166-.07.257.04.073.201.129.334.058l.101-.062a5.274 5.274 0 0 0-.208-.338M13.07 9.066V9.3a.2.2 0 0 0 .198.202.2.2 0 0 0 .198-.202v-.234a4.81 4.81 0 0 0-.399-.001M18.224 12.854l-.184.03c-.088.044-.192.147-.169.249.02.088.141.164.299.134l.119-.024a4.64 4.64 0 0 0-.065-.389zM14.752 9.272c.131.037.245.076.372.122l-.055.16c-.036.113-.127.191-.237.191-.11 0-.191-.099-.182-.21l.102-.263M10.24 10.008l.132.151a.195.195 0 0 1-.021.267c-.056.056-.219.075-.313-.043 0 0-.11-.155-.107-.141.102-.083.199-.158.309-.234zM9.01 11.243l.157.085c.066.038.121.166.07.257-.04.073-.201.129-.334.058l-.101-.062c.068-.117.132-.227.208-.338M8.31 12.854l.184.03c.088.044.192.147.169.249-.02.088-.141.164-.299.134l-.119-.024c.016-.132.037-.259.065-.389zM11.782 9.272a5.216 5.216 0 0 0-.372.122l.055.16c.036.113.127.191.237.191.11 0 .191-.099.182-.21l-.102-.263"/></g></svg>