<svg xmlns="http://www.w3.org/2000/svg" viewBox="0 0 332.737 97.679"><path d="M28.17 5.016C31.975.254 39.849-.56 44.517 3.435c1.909 1.573 3.247 3.743 3.93 6.08C57.089 38.611 65.77 67.692 74.4 96.791c-5.1.005-10.202-.009-15.302.005-2.406-8.023-4.754-16.058-7.129-24.088-9.863-.02-19.72-.005-29.582-.009A4445.395 4445.395 0 0 0 15.218 96.8c-5.072-.018-10.145-.005-15.218-.009C8.21 69.034 16.43 41.28 24.68 13.533c.981-2.9 1.351-6.145 3.49-8.517m9.004 17.83c-3.616 12.054-7.159 24.13-10.755 36.19 7.168.034 14.333.013 21.498.013-3.587-12.068-7.156-24.135-10.743-36.203zM142.179 5.655c2.658-3.772 7.796-5.602 12.318-4.438 4.142.933 7.31 4.425 8.403 8.357 8.633 29.074 17.297 58.138 25.93 87.212-5.108.039-10.212 0-15.319.02-2.375-8.029-4.724-16.066-7.116-24.096-9.846.005-19.689-.017-29.534.008-2.353 8.034-4.781 16.051-7.133 24.086-5.068.005-10.132-.005-15.2.005 8.205-27.909 16.507-55.793 24.78-83.682.867-2.519 1.202-5.295 2.871-7.472m-1.243 53.406c7.138.009 14.272.005 21.411.005-3.552-12.094-7.161-24.17-10.7-36.262-3.564 12.087-7.162 24.164-10.711 36.257zM65.733.973h55.346v14.605c-6.795.005-13.584-.008-20.374.005 0 27.041.005 54.083-.003 81.122H86.106c0-27.039-.004-54.081.004-81.122-6.794-.013-13.584 0-20.377-.005 0-4.868-.004-9.733 0-14.605zM203.247 1.569c1.401-.474 2.898-.636 4.378-.602 5.817.02 11.635.005 17.451.008 9.797.177 19.147 6.124 23.386 14.752 2.936 5.602 3.238 12.118 2.498 18.264-.511 6.434-3.269 12.868-8.323 17.133-2.669 2.327-5.995 3.739-8.853 5.812-1.57 1.168-1.649 3.44-.837 5.066 7.721 11.663 15.746 23.143 23.629 34.706-5.765.009-11.53-.013-17.296.009-7.546-11.091-15.015-22.239-22.531-33.346-2.21-3.162-2.811-7.348-1.487-10.956 1.032-2.768 3.503-4.791 6.256-5.836 5.255-1.962 10.437-5.044 13.347-9.897 2.215-3.646 2.1-8.145 1.104-12.136-1.169-5.181-6.326-9.257-11.779-9.079-3.771.024-7.538-.017-11.302.017-1.705-.039-3.308 1.411-3.286 3.1-.019 26.043.008 52.088-.008 78.13-4.903-.009-9.8 0-14.703-.005-.01-28.036.01-56.074-.01-84.111.034-4.914 3.605-9.538 8.366-11.029zM261.901.971h15.472c-.005 31.914.01 63.823-.01 95.736-5.151-.014-10.307 0-15.463-.005l.001-95.731z" fill="#1b6db7"/><g fill="#1b6db7"><path d="M295.294 88.214l5.745 1.704-.112-1.922c0-5.293 4.633-8.775 9.782-8.775 5.894 0 9.932 4.496 9.932 10.117 0 3.374-1.815 6.747-4.892 8.341l-2.446-2.54c2.372-.833 4.151-3.625 4.151-6.054 0-3.698-3.113-6.6-6.857-6.6-3.594 0-6.633 3.007-6.633 6.524 0 1.922.926 3.917 2.484 5.113v.654l-14.343-4.207V79.62h3.187v8.595l.002-.001zM316.864 59.337h3.185v17.659l-15.01-11.968c-1.406-1.124-3.149-2.429-5.002-2.429-2.928 0-5.336 2.538-5.336 5.366 0 2.794 2.299 5.078 5.114 5.26v3.408c-4.966-.543-8.303-3.698-8.303-8.667 0-4.641 3.52-8.629 8.376-8.629 2.075 0 4.149.762 5.745 2.028l11.228 8.993V59.337h.003zM291.515 44.192c0 7.83 6.562 14.199 14.628 14.199 8.002 0 14.512-6.369 14.512-14.199 0-8.058-6.399-14.37-14.57-14.37-8.172.001-14.57 6.312-14.57 14.37zm14.627-11.013c6.313 0 11.257 4.913 11.257 11.187 0 5.883-5.05 10.668-11.257 10.668-6.272 0-11.375-4.785-11.375-10.668.001-6.377 4.891-11.187 11.375-11.187zM291.515 14.37c0 7.83 6.562 14.199 14.628 14.199 8.002 0 14.512-6.369 14.512-14.199 0-8.057-6.4-14.37-14.57-14.37s-14.57 6.312-14.57 14.37zm14.627-11.013c6.313 0 11.257 4.913 11.257 11.187 0 5.883-5.05 10.67-11.257 10.67-6.272 0-11.375-4.787-11.375-10.67.001-6.379 4.891-11.187 11.375-11.187z"/></g><g fill="#1b6db7"><path d="M325.795 3.561h-1.879v5.317h-1.32V3.561h-1.943v-1.1h5.141v1.1zM332.737 8.878h-1.32v-5.21l-1.143 5.21h-1.32l-1.148-5.184v5.184h-1.32V2.46h1.934l1.191 4.913 1.204-4.913h1.922v6.418z"/></g><path d="M287.346 10.067h-1.423c-.12-.305-.176-.55-.176-.739V8.36c0-.258-.039-.447-.116-.563-.112-.176-.327-.267-.649-.267h-1.569v2.536h-1.32V3.649h3.611c.395 0 .744.133 1.036.404.357.322.537.782.537 1.376 0 .683-.314 1.204-.941 1.548.456.245.692.524.705.83l.069 1.565a.555.555 0 0 0 .236.451v.244zm-1.328-4.561c0-.503-.249-.757-.757-.757h-1.848V6.43h1.823c.198 0 .378-.095.542-.288a.991.991 0 0 0 .24-.636z" fill="#1b6db7"/><path d="M284.569 13.36c-3.417 0-6.199-2.781-6.199-6.199s2.781-6.199 6.199-6.199 6.199 2.781 6.199 6.199-2.781 6.199-6.199 6.199zm0-11.074c-2.691 0-4.875 2.184-4.875 4.875s2.184 4.875 4.875 4.875 4.875-2.184 4.875-4.875-2.184-4.875-4.875-4.875z" fill="#1b6db7"/></svg>