<svg xmlns="http://www.w3.org/2000/svg" viewBox="0 0 23.404 363.169"><path d="M19.258 309.923V156.185a3.639 3.639 0 0 0-3.639-3.639h.068a.789.789 0 0 0 .789-.789V51.347c0-.745-.604-1.348-1.348-1.348h-.131a.519.519 0 0 0 .519-.519v-1.874a.519.519 0 0 0-.519-.519h.763a.717.717 0 0 0 .717-.717v-5.66a.717.717 0 0 0-.717-.717H5.31a.717.717 0 0 0-.717.717v5.66c0 .396.321.717.717.717h.763a.519.519 0 0 0-.519.519v1.874c0 .287.232.519.519.519h-.131c-.745 0-1.348.604-1.348 1.348v100.409c0 .436.353.789.789.789h.067a3.639 3.639 0 0 0-3.639 3.639v153.738a3.639 3.639 0 0 0 3.639 3.639H3.598a.765.765 0 0 0-.765.765v1.166c0 .423.343.765.765.765H2.259a.449.449 0 0 0-.448.448v7.036c0 .247.201.448.448.448h16.552c.247 0 .448-.2.448-.448v-7.036a.449.449 0 0 0-.448-.448h-1.339a.765.765 0 0 0 .765-.765v-1.166a.765.765 0 0 0-.765-.765H15.62a3.638 3.638 0 0 0 3.638-3.638z" fill="none" stroke="#6e6d6e" stroke-width=".371" stroke-miterlimit="10"/><path d="M5.382 152.471a.715.715 0 0 1-.715-.715V51.347c0-.703.571-1.274 1.274-1.274h9.186c.703 0 1.274.571 1.274 1.274v100.409c0 .394-.32.715-.715.715H5.382z" fill="#e5e2e4"/><path d="M15.128 50.148c.661 0 1.2.538 1.2 1.2v100.409a.642.642 0 0 1-.641.641H5.382a.642.642 0 0 1-.641-.641V51.347c0-.662.538-1.2 1.2-1.2h9.187m0-.148H5.942c-.745 0-1.348.604-1.348 1.348v100.409c0 .436.353.789.789.789h10.305a.789.789 0 0 0 .789-.789V51.347a1.35 1.35 0 0 0-1.349-1.348z" fill="#8a8a8a"/><path d="M2.259 324.115a.374.374 0 0 1-.374-.373v-7.036c0-.206.168-.374.374-.374H18.81c.206 0 .374.168.374.374v7.036a.374.374 0 0 1-.374.373H2.259z" fill="#e5e2e4"/><path d="M18.811 316.407a.3.3 0 0 1 .299.299v7.036a.3.3 0 0 1-.299.299H2.259a.3.3 0 0 1-.299-.299v-7.036a.3.3 0 0 1 .299-.299h16.552m0-.149H2.259a.449.449 0 0 0-.448.448v7.036c0 .247.201.448.448.448h16.552a.449.449 0 0 0 .448-.448v-7.036a.45.45 0 0 0-.448-.448z" fill="#8a8a8a"/><path d="M3.598 316.184a.692.692 0 0 1-.691-.69v-1.166c0-.381.311-.691.691-.691h13.873c.381 0 .691.311.691.691v1.166c0 .381-.311.69-.691.69H3.598z" fill="#e5e2e4"/><path d="M17.471 313.71c.34 0 .617.277.617.617v1.166c0 .34-.277.617-.617.617H3.598a.618.618 0 0 1-.617-.617v-1.166c0-.34.277-.617.617-.617h13.873m0-.148H3.598a.765.765 0 0 0-.765.765v1.166c0 .423.343.765.765.765h13.873a.765.765 0 0 0 .765-.765v-1.166a.764.764 0 0 0-.765-.765z" fill="#8a8a8a"/><path d="M5.45 313.487a3.568 3.568 0 0 1-3.564-3.564V156.185a3.569 3.569 0 0 1 3.564-3.565h10.17a3.568 3.568 0 0 1 3.564 3.565v153.738a3.568 3.568 0 0 1-3.564 3.564H5.45z" fill="#e5e2e4"/><path d="M15.619 152.694a3.495 3.495 0 0 1 3.491 3.491v153.738a3.495 3.495 0 0 1-3.491 3.491H5.45a3.495 3.495 0 0 1-3.491-3.491V156.185a3.495 3.495 0 0 1 3.491-3.491h10.169m0-.148H5.45a3.639 3.639 0 0 0-3.639 3.639v153.738a3.639 3.639 0 0 0 3.639 3.639h10.169a3.639 3.639 0 0 0 3.639-3.639V156.185a3.639 3.639 0 0 0-3.639-3.639z" fill="#8a8a8a"/><path d="M6.073 49.925a.445.445 0 0 1-.444-.445v-1.875c0-.245.199-.444.444-.444h8.924c.245 0 .444.199.444.444v1.875a.445.445 0 0 1-.444.445H6.073z" fill="#e5e2e4"/><path d="M14.997 47.235a.37.37 0 0 1 .37.37v1.874a.37.37 0 0 1-.37.37H6.073a.37.37 0 0 1-.37-.37v-1.874a.37.37 0 0 1 .37-.37h8.924m0-.148H6.073a.519.519 0 0 0-.519.519v1.874c0 .287.232.519.519.519h8.924a.519.519 0 0 0 .519-.519v-1.874a.52.52 0 0 0-.519-.519z" fill="#8a8a8a"/><path d="M5.31 47.013a.644.644 0 0 1-.643-.643v-5.659c0-.354.288-.643.643-.643h10.449c.354 0 .643.288.643.643v5.659a.644.644 0 0 1-.643.643H5.31z" fill="#e5e2e4"/><path d="M15.759 40.142c.313 0 .568.255.568.568v5.66a.569.569 0 0 1-.568.568H5.31a.569.569 0 0 1-.568-.568v-5.66c0-.313.255-.568.568-.568h10.449m0-.148H5.31a.717.717 0 0 0-.717.717v5.66c0 .396.321.717.717.717h10.449a.717.717 0 0 0 .717-.717v-5.66a.717.717 0 0 0-.717-.717z" fill="#8a8a8a"/><path d="M19.02 325.743s-5.265 33.768-5.367 34.976c-.101 1.208-1.571 2.45-3.119 2.45-1.548 0-2.921-1.16-3.119-2.45l-5.367-34.976a1.349 1.349 0 0 1 1.333-1.553h14.305c.828 0 1.459.736 1.334 1.553z" fill="#373736"/><path d="M20.177 0H4.623a2.631 2.631 0 0 0-2.631 2.631v13.104c0 .825-.27 1.628-.77 2.285l-.623.82a2.939 2.939 0 0 0-.069 3.463l.78 1.115c.444.634.682 1.39.682 2.164v12.806c0 .887.719 1.606 1.606 1.606h13.71a2.132 2.132 0 0 0 2.132-2.132V8.364a2.623 2.623 0 0 1 2.623-2.623h.42a.921.921 0 0 0 .921-.921V3.228A3.227 3.227 0 0 0 20.177 0zM5.715 35.332a.866.866 0 0 1-1.732 0V5.76a.866.866 0 0 1 1.732 0v29.572z" fill="#070707"/><g fill="#363636" stroke="#363636" stroke-width=".223" stroke-linecap="round" stroke-linejoin="round" stroke-miterlimit="10"><path d="M14.876 10.115v.914l-2.047 1.266 2.047-.001v.908h-2.935v-.907l2.047-1.272h-2.047v-.909zM14.574 18.136v.883h-.395v.478h-.29v-.478l-1.948.001v-.884h1.948v-.48h.29v.48zM13.893 13.707v.883h-1.952v-.883zM14.877 13.705v.885h-.6v-.885zM12.932 29.532h-.413c-.311 0-.44-.184-.44-.361s.128-.362.44-.362h.421l.407.001c.31 0 .437.185.437.361s-.127.361-.437.361l-.415.001v-.001zm1.094-.355c0-.713-.491-1.29-1.096-1.29-.605 0-1.096.578-1.096 1.29 0 .713.491 1.29 1.096 1.29.605 0 1.096-.577 1.096-1.29zM14.876 26.728v.872H11.94v-.873h.113a1.06 1.06 0 0 1-.073-1.016 1.04 1.04 0 0 1 .968-.604c.515 0 1.078.486 1.022 1.122a1.184 1.184 0 0 1-.174.5l1.08-.001zm-1.949.007h.349c.302 0 .379-.208.379-.346 0-.141-.077-.346-.379-.346h-.348-.347c-.302 0-.381.206-.381.346 0 .137.079.346.381.346h.346zM13.983 16.656c.009.33-.207 1-.98.995h-1.062v-.877h1.282c.17 0 .359-.163.359-.403 0-.24-.189-.419-.359-.419l-1.282.001v-.876h1.952l.001.877h-.205c.161.168.286.411.294.702zM13.983 23.831c.009.33-.207 1-.98.995h-1.062v-.877h1.282c.17 0 .359-.163.359-.403 0-.24-.189-.419-.359-.419l-1.282.001v-.878l1.952.001.001.876h-.205c.161.169.286.412.294.704zM13.212 20.32c.171-.001.285.002.383.058a.363.363 0 0 1 0 .622c-.098.056-.212.058-.383.057v-.737zm-.588.733l-.118.001c-.357 0-.436-.235-.436-.365s.079-.369.436-.369l.403.001v1.663c.605 0 1.107-.585 1.107-1.303s-.491-1.3-1.096-1.3-1.096.582-1.096 1.3c0 .596.34 1.099.801 1.253l-.001-.881zM14.658 30.605c0 .143-.048.214-.144.214-.066 0-.116-.041-.133-.109l-.224.112v-.135l.205-.096v-.059h-.205v-.122h.501v.195zm.195-.011a.452.452 0 1 0-.904 0 .452.452 0 0 0 .904 0zm-.452.365a.365.365 0 1 1 0-.73.365.365 0 0 1 0 .73zm.035-.428v.059c0 .07.021.103.071.103.052 0 .075-.036.075-.109v-.053h-.146z"/><path d="M10.285 10.914c.001-1.985 1.407-3.311 3.112-3.311s3.128 1.329 3.124 3.308v18.698c.004 1.979-1.418 3.308-3.124 3.308-1.705 0-3.112-1.326-3.112-3.311V10.914zm5.469.007c-.003-1.571-1.053-2.536-2.352-2.536s-2.358.958-2.352 2.536V29.6c-.005 1.577 1.053 2.536 2.352 2.536s2.349-.964 2.352-2.536V10.921z"/></g><g fill="#111"><path d="M15.126 10.302v.914l-2.048 1.266 2.048-.001v.908H12.19v-.907l2.047-1.272H12.19v-.909zM14.824 18.323v.883h-.395v.478h-.291v-.478l-1.948.001v-.884h1.948v-.48h.29v.48zM14.142 13.894v.883H12.19v-.883zM15.126 13.892v.885h-.6v-.885zM13.182 29.719h-.413c-.311 0-.44-.184-.44-.361s.128-.362.44-.362h.421l.407.001c.31 0 .437.185.437.361s-.127.361-.437.361l-.415.001v-.001zm1.094-.355c0-.713-.491-1.29-1.096-1.29s-1.096.578-1.096 1.29c0 .713.491 1.29 1.096 1.29.605 0 1.096-.577 1.096-1.29zM15.126 26.915v.871H12.19v-.873h.113a1.06 1.06 0 0 1-.073-1.016 1.04 1.04 0 0 1 .968-.604c.515 0 1.078.486 1.022 1.122a1.184 1.184 0 0 1-.174.5h1.08zm-1.95.007h.349c.302 0 .379-.208.379-.346 0-.141-.077-.346-.379-.346h-.348-.347c-.302 0-.381.206-.381.346 0 .137.079.346.381.346h.346zM14.233 16.843c.009.33-.207 1-.98.995h-1.062v-.877h1.282c.17 0 .359-.163.359-.403 0-.24-.189-.419-.359-.419l-1.282.001v-.876h1.952l.001.877h-.205c.16.168.285.411.294.702zM14.233 24.018c.009.33-.207 1-.98.995h-1.062v-.877h1.282c.17 0 .359-.163.359-.403 0-.24-.189-.419-.359-.419l-1.282.001v-.876l1.952.001.001.876h-.205c.16.167.285.41.294.702zM13.462 20.506c.171-.001.285.002.383.058a.363.363 0 0 1 0 .622c-.098.056-.212.058-.383.057v-.737zm-.589.734l-.118.001c-.357 0-.436-.235-.436-.365s.079-.369.436-.369l.403.001v1.663c.605 0 1.107-.585 1.107-1.303s-.491-1.3-1.096-1.3c-.605 0-1.096.582-1.096 1.3 0 .596.34 1.099.801 1.253l-.001-.881zM14.907 30.792c0 .143-.048.214-.144.214-.066 0-.116-.041-.133-.109l-.224.112v-.135l.205-.096v-.059h-.205v-.122h.501v.195zm.196-.011a.452.452 0 1 0-.904 0 .452.452 0 0 0 .904 0zm-.452.365a.365.365 0 1 1 0-.73.365.365 0 0 1 0 .73zm.034-.428v.059c0 .07.021.103.071.103.052 0 .075-.036.075-.109v-.053h-.146z"/><path d="M10.535 11.101c.001-1.985 1.407-3.311 3.112-3.311s3.128 1.329 3.124 3.308v18.698c.004 1.979-1.418 3.308-3.124 3.308-1.705 0-3.112-1.326-3.112-3.311V11.101zm5.469.006c-.003-1.571-1.053-2.536-2.352-2.536s-2.358.958-2.352 2.536v18.68c-.005 1.577 1.053 2.536 2.352 2.536s2.349-.964 2.352-2.536v-18.68z"/></g><path d="M9.621 5.116a2.197 2.197 0 0 0-2.196-2.22h-1.92a2.196 2.196 0 0 0-2.196 2.181v32.484c0 .142.272.338.338.549.072.232-.061.474-.061.474a.529.529 0 0 0 .454.805l3.957-.03a.362.362 0 0 0 .292-.572l-.205-.288a.983.983 0 0 1 .082-1.24l.778-.834c.221-.237.346-.549.35-.873l.327-30.436zM5.715 35.332a.866.866 0 0 1-1.732 0V5.76a.866.866 0 0 1 1.732 0v29.572z" fill="#242424"/><path d="M8.074 3.754v-.743H5.468c-.82 0-1.485.665-1.485 1.485V5.76a.866.866 0 0 1 1.732 0v29.572a.866.866 0 0 1-1.732 0v.572c0 .334.265.607.599.616l.338.01a1.619 1.619 0 0 0 1.665-1.622L6.514 5.314c0-.862.698-1.56 1.56-1.56z" fill="#161616"/><path fill="#535353" d="M9.336 40.068h3.038v6.945H9.336z"/><path d="M12.301 40.142v6.796H9.41v-6.796h2.891m.148-.148H9.262v7.093h3.187v-7.093z" fill="#363636"/><g><path fill="#535353" d="M9.336 47.161h3.038v1.817H9.336z"/><path d="M12.301 47.235v1.669H9.41v-1.669h2.891m.148-.148H9.262v1.966h3.187v-1.966z" fill="#363636"/></g><g><path fill="#535353" d="M9.336 50.073h3.038v102.398H9.336z"/><path d="M12.301 50.148v102.249H9.41V50.148h2.891m.148-.149H9.262v102.546h3.187V49.999z" fill="#363636"/></g><g><path d="M8.593 313.487v-158.75c0-.486.396-.882.882-.882h2.606c.486 0 .882.396.882.882v158.75h-4.37z" fill="#535353"/><path d="M12.082 153.93c.445 0 .808.362.808.808v158.676H8.668V154.737c0-.445.362-.808.808-.808h2.606m0-.148H9.475a.956.956 0 0 0-.956.956v158.824h4.519V154.737a.956.956 0 0 0-.956-.956z" fill="#363636"/></g><g><path d="M9.509 316.184a.917.917 0 0 1-.916-.916v-.716c0-.505.411-.916.916-.916h2.538c.505 0 .916.411.916.916v.716a.917.917 0 0 1-.916.916H9.509z" fill="#535353"/><path d="M12.047 313.71c.464 0 .842.378.842.842v.716a.843.843 0 0 1-.842.842H9.51a.843.843 0 0 1-.842-.842v-.716c0-.464.378-.842.842-.842h2.537m0-.148H9.51a.99.99 0 0 0-.99.99v.716c0 .547.443.99.99.99h2.538a.99.99 0 0 0 .99-.99v-.716a.99.99 0 0 0-.991-.99z" fill="#363636"/></g><g><path d="M9.077 324.115a1.182 1.182 0 0 1-1.181-1.181v-5.422c0-.651.529-1.181 1.181-1.181h2.706c.651 0 1.181.529 1.181 1.181v5.422c0 .651-.529 1.181-1.181 1.181H9.077z" fill="#535353"/><path d="M11.783 316.407c.61 0 1.106.496 1.106 1.106v5.422c0 .61-.496 1.106-1.106 1.106H9.077c-.61 0-1.106-.496-1.106-1.106v-5.422c0-.61.496-1.106 1.106-1.106h2.706m0-.149H9.077c-.693 0-1.255.562-1.255 1.255v5.422c0 .693.562 1.255 1.255 1.255h2.706c.693 0 1.255-.562 1.255-1.255v-5.422c0-.693-.562-1.255-1.255-1.255z" fill="#363636"/></g><path d="M11.423 360.69l2.018-36.48H7.418l2.018 36.48-.883.883s.795.673 1.771.764v.018c.036 0 .07-.007.105-.009.035.002.069.009.105.009v-.018c.977-.091 1.771-.764 1.771-.764l-.882-.883z" fill="#040101"/><path d="M10.535 363.169c-1.023-.317-1.708-.834-1.981-1.596l.883-.883-2.018-36.48-4.036-.02c-.826 0-1.458.736-1.333 1.553l5.367 34.976c.197 1.29 1.57 2.45 3.118 2.45z" fill="#494846"/></svg>