<svg xmlns="http://www.w3.org/2000/svg" viewBox="0 0 173.146 297.973"><g fill="#7942ba"><path d="M.78 276.553s.649 17.524 81.783 21.42h8.184c81.133-3.895 81.782-21.42 81.782-21.42V7.179s0-7.788-8.439-7.141H9.218C.782-.608.78 7.179.78 7.179v269.374z"/><path d="M5.581 26.799c0 .485-.227.877-.509.877H.507C.226 27.675 0 27.284 0 26.799c0-.484.226-.876.507-.876h4.564c.283-.001.51.391.51.876zM5.581 36.579c0 .485-.227.876-.509.876H.507c-.281 0-.507-.392-.507-.876 0-.485.226-.876.507-.876h4.564c.283-.001.51.391.51.876zM5.581 46.358c0 .484-.227.876-.509.876H.507c-.281.001-.507-.391-.507-.876s.226-.877.507-.877h4.564c.283.001.51.393.51.877zM5.581 56.139c0 .485-.227.878-.509.878H.507c-.281 0-.507-.393-.507-.878s.226-.875.507-.875h4.564c.283 0 .51.39.51.875zM173.146 26.799c0 .485-.225.877-.505.877h-4.569c-.279 0-.508-.392-.508-.877 0-.484.229-.876.508-.876h4.569c.28-.001.505.391.505.876zM173.146 36.579c0 .485-.225.876-.505.876h-4.569c-.279 0-.508-.392-.508-.876 0-.485.229-.876.508-.876h4.569c.28-.001.505.391.505.876zM173.146 46.358c0 .484-.225.876-.505.876h-4.569c-.279 0-.508-.392-.508-.876 0-.485.229-.877.508-.877h4.569c.28.001.505.393.505.877zM173.146 56.139c0 .485-.225.878-.505.878h-4.569c-.279 0-.508-.393-.508-.878s.229-.875.508-.875h4.569c.28 0 .505.39.505.875z"/></g><path d="M144.317.144H28.828v248.822c0 4.624 2.307 8.694 5.805 11.074v.002s6.485 3.538 52.689 3.538c29.081 0 41.987.179 47.56-1.839 5.428-1.587 9.404-6.702 9.404-12.773v-2.903h.031V.144z" fill="#7042b2"/><path d="M86.576 9.022h64.012c13.209-.089 12.199 5.568 12.199 5.568v119.162s1.153 6.613-7.112 8.437c-8.076 1.781-11.376 2.862-69.009 4.817-57.633-1.956-60.933-3.036-69.009-4.817-8.265-1.823-7.112-8.437-7.112-8.437V14.59s-1.01-5.657 12.199-5.568h64.012-.18z" fill="#333"/><path d="M86.666 149.055l-.069-.003c-55.181-1.872-60.674-3.03-68.277-4.633l-1.079-.226c-6.969-1.449-8.767-7.474-8.743-10.458V16.638c-.003-.445.047-4.56 2.799-7.332 1.536-1.547 3.551-2.331 5.987-2.331H156.23c2.437 0 4.451.784 5.987 2.331 2.751 2.772 2.802 6.887 2.799 7.347v117.099c.023 2.968-1.774 8.993-8.743 10.442l-1.005.21c-7.644 1.608-13.167 2.77-68.532 4.648l-.07.003zM17.284 11.07c-1.324 0-2.331.367-3.081 1.122-1.33 1.34-1.615 3.708-1.61 4.432v117.128c.003.544.188 5.332 5.481 6.431l1.089.229c7.397 1.559 12.744 2.686 67.502 4.545 54.944-1.865 60.32-2.996 67.759-4.561l1.015-.213c5.293-1.1 5.478-5.887 5.481-6.429V16.638c-.002-.934-.239-5.568-4.69-5.568H17.284z" fill="#272727"/><path fill="#8e827b" d="M36.27 26.652h100.606v88.275H36.27z"/><g fill="#2b2b2b"><path d="M41.959 215.75a2.05 2.05 0 0 1-2.051 2.051H30.38a2.05 2.05 0 0 1-2.051-2.051v-39.385c0-1.135.919-2.055 2.051-2.055h9.528c1.133 0 2.051.92 2.051 2.055v39.385z"/><path d="M54.836 189.242c1.134 0 2.051.916 2.051 2.051v9.527a2.049 2.049 0 0 1-2.051 2.052H15.451a2.05 2.05 0 0 1-2.05-2.052v-9.527a2.05 2.05 0 0 1 2.05-2.051h39.385z"/></g><path d="M40.169 196.41a4.872 4.872 0 1 1-9.744-.002 4.872 4.872 0 0 1 9.744.002zM46.907 191.27l8.573 4.625-8.573 4.629zM23.148 200.524l-8.572-4.625 8.572-4.629zM30.409 184.533l4.627-8.567 4.63 8.567zM39.666 208.284l-4.628 8.571-4.629-8.571z" fill="#3a3a3a"/><g fill="#c1c1c1"><path d="M47.889 133.467c-.659.193-1.767.445-2.957.445-1.336 0-2.425-.312-3.188-.951-.761-.614-1.106-1.503-1.106-2.43 0-1.446.689-2.806 1.94-3.707 1.063-.759 2.512-1.192 4.134-1.192 1.221 0 2.095.216 2.442.372l-.518 1.181c-.46-.193-1.176-.336-2.053-.336-1.033 0-1.983.274-2.7.792a3.448 3.448 0 0 0-1.423 2.782c0 1.456.949 2.298 2.757 2.298.517 0 .949-.084 1.236-.181l.458-2.034h-1.709l.274-1.132h3.329l-.916 4.093z"/><path d="M50.259 131.518l-1.322 2.31h-1.779l4.852-8.112h2.096l1.221 8.112h-1.751l-.273-2.31h-3.044zm2.942-1.083l-.272-2.023c-.043-.433-.101-1.059-.144-1.542h-.029c-.259.483-.516 1.06-.788 1.542l-1.179 2.023h2.412z"/><path d="M62.408 133.828l.643-3.814c.144-.833.348-1.975.59-2.975H63.6c-.503.951-1.078 1.999-1.61 2.854l-2.382 3.838h-1.294l-.501-3.78a44.326 44.326 0 0 1-.26-2.912h-.027c-.26.926-.548 2.155-.791 2.975l-1.106 3.814h-1.551l2.458-8.112h2.209l.518 3.79c.072.724.172 1.565.185 2.336h.06c.344-.77.802-1.625 1.219-2.323l2.34-3.803h2.242l-1.278 8.112h-1.623zM70.074 130.217h-3.475l-.548 2.42h3.906l-.273 1.191H64.1l1.837-8.112h5.37l-.272 1.192h-3.692l-.487 2.13h3.49l-.272 1.179zM75.659 125.848a13.16 13.16 0 0 1 2.327-.193c1.003 0 1.735.147 2.326.496.559.287.933.77.933 1.384 0 1.023-.948 1.719-2.011 1.962v.034c.904.23 1.55.855 1.55 1.781 0 .854-.544 1.493-1.248 1.902-.805.483-1.954.661-3.418.661-.976 0-1.78-.047-2.238-.119l1.779-7.908zm.072 6.886c.273.024.574.034.89.034 1.249 0 2.399-.42 2.399-1.503 0-.867-.878-1.192-1.896-1.192h-.789l-.604 2.661zm.86-3.696h.775c1.252 0 2.155-.493 2.155-1.325 0-.661-.617-.948-1.536-.948-.389 0-.719.021-.892.059l-.502 2.214z"/><path d="M89.86 128.941c0 1.444-.619 2.938-1.754 3.877-.875.72-2.051 1.141-3.46 1.141-2.497 0-3.805-1.528-3.805-3.343 0-1.447.646-2.963 1.811-3.902.874-.71 2.096-1.132 3.403-1.132 2.584.001 3.805 1.507 3.805 3.359zm-5.918-1.48c-.847.711-1.334 2.036-1.334 3.082 0 1.228.661 2.238 2.284 2.238.703 0 1.377-.252 1.88-.685.835-.699 1.308-2.081 1.308-3.104 0-1.072-.446-2.226-2.227-2.226a2.914 2.914 0 0 0-1.911.695z"/><path d="M90.536 133.828l.76-3.334-1.882-4.778h1.78l.76 2.312c.216.699.317 1.058.405 1.419h.027c.26-.384.575-.843 1.005-1.444l1.739-2.287h1.979l-4.149 4.754-.761 3.358h-1.663z"/></g><path d="M104.263 131a.911.911 0 0 1 .527-.241c.199-.023.377.002.543.069a.796.796 0 0 1 .381.335c.092.149.114.327.067.535a1.42 1.42 0 0 1-.335.577 5.937 5.937 0 0 1-.492.488c-.374.355-.79.614-1.248.785-.456.168-.92.248-1.387.241a3.677 3.677 0 0 1-1.372-.3 3.56 3.56 0 0 1-1.207-.854 4.033 4.033 0 0 1-.536-.717 3.4 3.4 0 0 1-.331-.79 4.13 4.13 0 0 1-.156-1.273c.007-.438.084-.867.23-1.283.144-.417.347-.808.612-1.174.267-.367.591-.682.975-.938.28-.191.563-.355.845-.496.285-.136.584-.268.904-.389.183-.066.369-.134.562-.201.193-.064.391-.111.593-.151.203-.032.405-.045.606-.037.203.009.403.049.594.116.134.053.27.126.404.216a2.517 2.517 0 0 1 .679.679 1.6 1.6 0 0 1 .188.378.921.921 0 0 1 .021.343.715.715 0 0 1-.113.318.851.851 0 0 1-.617.362c-.223.027-.391.004-.512-.062a.934.934 0 0 1-.29-.263l-.21-.302a.545.545 0 0 0-.285-.216.714.714 0 0 0-.176.013 6.639 6.639 0 0 0-.988.32 4.764 4.764 0 0 0-.924.485 3.495 3.495 0 0 0-.746.661 2.41 2.41 0 0 0-.463.845 2.945 2.945 0 0 0-.128 1.127c.027.381.144.738.347 1.074.117.202.267.374.461.52.193.149.407.258.639.333.23.074.466.1.707.077a1.66 1.66 0 0 0 .691-.225c.195-.122.366-.271.522-.448.153-.179.291-.356.418-.537z" fill="#ff004f"/><path d="M113.301 130.263a7.959 7.959 0 0 1-.583 1.314 5.09 5.09 0 0 1-.862 1.149 4.159 4.159 0 0 1-1.187.818c-.45.208-.966.312-1.545.312a5.772 5.772 0 0 1-.889-.092 2.803 2.803 0 0 1-.633-.198 2.454 2.454 0 0 1-.944-.462 2.939 2.939 0 0 1-.664-.739 3.621 3.621 0 0 1-.409-.895 4.49 4.49 0 0 1-.18-.919c-.042-.52.004-1.05.148-1.588a4.8 4.8 0 0 1 .681-1.484 4.66 4.66 0 0 1 1.177-1.166 4.05 4.05 0 0 1 1.62-.639c.315-.049.63-.066.951-.049.323.015.635.071.936.168.251.079.481.171.697.275.215.104.418.239.616.398.258.209.476.449.657.721.176.271.304.558.386.852.099.376.141.748.134 1.117-.008.37-.046.739-.107 1.107zm-3.467 2.028c.268-.105.503-.244.706-.417a3.39 3.39 0 0 0 .906-1.236c.104-.237.196-.473.275-.716.054-.302.085-.614.087-.936a1.922 1.922 0 0 0-.219-.914 1.73 1.73 0 0 0-.569-.62 2.427 2.427 0 0 0-.838-.356 2.52 2.52 0 0 0-.916-.044c-.307.04-.583.148-.822.324a3.484 3.484 0 0 0-.825.86 3.906 3.906 0 0 0-.622 2.012c-.007.336.049.656.176.961.094.225.24.431.433.614a2.163 2.163 0 0 0 1.42.609c.272.01.542-.038.808-.141z" fill="#7942ba"/><path d="M126.758 130.014c-.161.48-.369.948-.624 1.406a5.38 5.38 0 0 1-.922 1.229 4.422 4.422 0 0 1-1.269.872c-.478.223-1.03.334-1.652.334a6.668 6.668 0 0 1-.951-.094 3.864 3.864 0 0 1-.678-.213 2.624 2.624 0 0 1-1.009-.498 3.173 3.173 0 0 1-.708-.787 3.701 3.701 0 0 1-.436-.96 4.793 4.793 0 0 1-.193-.983 4.877 4.877 0 0 1 .156-1.695 5.051 5.051 0 0 1 .73-1.585 4.815 4.815 0 0 1 1.261-1.248 4.297 4.297 0 0 1 1.729-.686c.334-.05.671-.07 1.016-.05.344.016.678.078 1.003.179.266.084.515.183.743.297.228.106.451.248.659.421.275.223.507.48.698.77.193.292.33.597.416.913.105.401.151.801.142 1.194-.007.396-.044.79-.111 1.184zm-3.707 2.169c.287-.113.537-.259.752-.443.215-.185.401-.389.567-.612.16-.223.294-.458.405-.713.112-.251.207-.508.293-.766.057-.324.087-.659.091-.998a2.023 2.023 0 0 0-.232-.978 1.797 1.797 0 0 0-.61-.661 2.607 2.607 0 0 0-.891-.386 2.81 2.81 0 0 0-.984-.045 1.841 1.841 0 0 0-.879.349 3.74 3.74 0 0 0-.879.916 3.95 3.95 0 0 0-.508 1.125 3.96 3.96 0 0 0-.159 1.029c-.009.361.053.701.187 1.025.104.243.26.461.465.656a2.31 2.31 0 0 0 1.516.649c.293.012.581-.037.866-.147z" fill="#f9e52d"/><path d="M128.809 132.959a.799.799 0 0 1-.304.53 1.316 1.316 0 0 1-.565.268.93.93 0 0 1-.555-.057c-.169-.08-.258-.235-.27-.471a65.553 65.553 0 0 1-.07-3.093v-3.186a.662.662 0 0 1-.347-.233.692.692 0 0 1-.139-.342.856.856 0 0 1 .049-.387.948.948 0 0 1 .222-.336c.103-.104.247-.197.428-.283a7.086 7.086 0 0 1 1.246-.428 9.44 9.44 0 0 1 .534-.119 4.919 4.919 0 0 1 1.834.006 4.548 4.548 0 0 1 1.624.628c.468.305.817.698 1.048 1.183.23.487.256 1.038.072 1.663a3.951 3.951 0 0 1-.215.518c-.087.17-.189.332-.302.48a2.94 2.94 0 0 1-.58.594 5.856 5.856 0 0 1-.723.481c.183.173.359.354.52.544.165.191.347.362.549.521.077.06.19.154.34.283a5.888 5.888 0 0 1 .803.852c.104.141.153.26.143.357a.86.86 0 0 1-.151.446 1.01 1.01 0 0 1-.331.312.843.843 0 0 1-.425.111.896.896 0 0 1-.464-.143 3.107 3.107 0 0 1-.49-.429 12.932 12.932 0 0 0-.448-.453 58.612 58.612 0 0 1-.93-.939 29.328 29.328 0 0 0-.935-.931 4.525 4.525 0 0 1-.584.074 21.25 21.25 0 0 0-.583.044v1.935zm2.586-6.282a3.078 3.078 0 0 0-1.266-.35 3.606 3.606 0 0 0-1.32.169v2.932c.431-.024.855-.076 1.276-.15a2.843 2.843 0 0 0 1.162-.483c.196-.141.352-.303.473-.491a1.38 1.38 0 0 0 .216-.57 1.088 1.088 0 0 0-.087-.569c-.083-.185-.234-.349-.454-.488z" fill="#00b3dd"/><path d="M119.03 131.819c.231.079.407.184.532.322a.704.704 0 0 1 .204.434.671.671 0 0 1-.156.444c-.109.143-.285.259-.531.347a1.686 1.686 0 0 1-.398.079c-.173.017-.414.04-.719.062-.307.024-.696.057-1.169.094-.471.035-1.049.089-1.739.151-.17.022-.349.04-.532.054a.713.713 0 0 1-.489-.131.73.73 0 0 1-.285-.376 2.644 2.644 0 0 1-.144-.55 6.74 6.74 0 0 1-.061-.585c-.011-.193-.02-.354-.03-.485a74 74 0 0 1-.064-.892c-.022-.335-.045-.682-.064-1.031-.025-.349-.049-.691-.077-1.027-.025-.335-.05-.635-.07-.893a39.102 39.102 0 0 1-.072-1.107 3.98 3.98 0 0 1 .013-.664c.02-.163.064-.284.136-.361.072-.079.173-.151.305-.216a.808.808 0 0 1 .376-.071c.142 0 .27.024.396.069.124.047.23.117.323.21a.516.516 0 0 1 .145.317c.105 1.035.184 2.061.246 3.079.06 1.02.132 2.036.21 3.054.604-.049 1.21-.1 1.809-.161.597-.06 1.203-.122 1.815-.189l.09.023z" fill="#aae000"/><circle cx="116.379" cy="202.494" r="10.323" fill="#2b2b2b"/><path d="M114.102 207.624h-2.523v-9.496h2.388c1.506 0 2.632.747 2.632 2.51 0 .774-.352 1.615-1.112 1.968.801.285 1.276 1.126 1.276 2.157-.001 1.897-1.087 2.861-2.661 2.861zm-.095-8.208h-1.112v2.578h1.085c.706 0 1.262-.407 1.262-1.316-.001-.936-.516-1.262-1.235-1.262zm-.054 3.853h-1.058v3.067h1.195c.799 0 1.315-.434 1.315-1.574-.001-1.059-.624-1.493-1.452-1.493z" fill="#414042"/><circle cx="146.888" cy="193.089" r="10.323" fill="#2b2b2b"/><path d="M146.661 198.295l-.557-2.51h-2.063l-.542 2.51h-1.411l2.333-9.496h1.37l2.32 9.496h-1.45zm-1.18-5.372c-.136-.624-.339-1.723-.408-2.076-.067.353-.271 1.438-.406 2.076l-.352 1.601h1.519l-.353-1.601z" fill="#414042"/><g fill="#bac2c5"><path d="M17.111 59.254h.897c.139 0 .272.014.4.041.126.027.238.073.337.136s.176.149.235.256a.807.807 0 0 1 .087.395c0 .165-.031.302-.094.41s-.143.194-.241.256a.96.96 0 0 1-.322.132 1.602 1.602 0 0 1-.333.039h-.607v1.357h-.359v-3.022zm.359 1.331h.606c.179 0 .325-.041.437-.122s.169-.207.169-.378-.057-.297-.169-.378a.73.73 0 0 0-.437-.122h-.606v1zM20.962 62.353c-.231 0-.442-.04-.633-.12a1.49 1.49 0 0 1-.828-.835 1.666 1.666 0 0 1-.117-.633c0-.228.039-.439.117-.634s.188-.362.328-.504c.142-.142.307-.251.5-.331.191-.079.403-.12.633-.12s.442.04.634.12a1.483 1.483 0 0 1 .828.835c.079.195.117.406.117.634 0 .228-.039.439-.117.633a1.508 1.508 0 0 1-.329.504 1.527 1.527 0 0 1-.499.331c-.192.079-.404.12-.634.12zm0-.333a1.153 1.153 0 0 0 .862-.367 1.23 1.23 0 0 0 .245-.399c.058-.152.088-.316.088-.489s-.03-.337-.088-.489a1.23 1.23 0 0 0-.245-.399 1.138 1.138 0 0 0-.862-.367 1.138 1.138 0 0 0-.862.367 1.23 1.23 0 0 0-.245.399 1.364 1.364 0 0 0-.088.489c0 .173.03.336.088.489.058.153.141.285.245.399a1.138 1.138 0 0 0 .862.367zM22.682 59.254h.397l.687 2.51h.008l.742-2.51h.401l.739 2.51h.008l.7-2.51h.375l-.888 3.023h-.388l-.747-2.561h-.006l-.751 2.561h-.393l-.884-3.023zM27.143 59.254h1.9v.333h-1.542v.947h1.439v.333h-1.439v1.075h1.618v.333h-1.977l.001-3.021zM29.675 59.254h.773c.145 0 .289.008.433.026.144.017.272.054.387.111.114.057.206.14.278.25.071.11.107.258.107.446a.736.736 0 0 1-.201.538.964.964 0 0 1-.555.26l.858 1.392h-.44l-.82-1.357h-.461v1.357h-.359v-3.023zm.358 1.331h.32c.099 0 .203-.002.31-.008.107-.005.205-.024.294-.055a.519.519 0 0 0 .222-.147.427.427 0 0 0 .088-.288.468.468 0 0 0-.064-.26.418.418 0 0 0-.169-.151c-.07-.036-.148-.059-.235-.07s-.174-.017-.263-.017h-.504l.001.996z"/></g><circle cx="19.605" cy="55.231" r="2.8" fill="#e50016"/><path d="M22.834 52.718c-.021 0-.042.003-.064.003.566.681.907 1.556.907 2.51 0 .955-.341 1.829-.907 2.51.021 0 .042.003.064.003a2.513 2.513 0 1 0 0-5.026zM26.179 52.718c-.021 0-.042.003-.064.003.566.681.907 1.556.907 2.51 0 .955-.341 1.829-.907 2.51.021 0 .042.003.064.003a2.513 2.513 0 1 0 0-5.026zM29.547 52.718c-.021 0-.042.003-.064.003.566.681.907 1.556.907 2.51 0 .955-.341 1.829-.907 2.51.021 0 .042.003.064.003a2.513 2.513 0 1 0 0-5.026z" fill="#bac2c5"/><g fill="#2b2b2b"><path d="M127.598 255.547a1.024 1.024 0 1 1-2.051 0 1.026 1.026 0 0 1 2.051 0zM132.725 259.65c0 .568-.458 1.023-1.025 1.023a1.024 1.024 0 1 1 1.025-1.023zM132.725 254.522c0 .569-.458 1.025-1.025 1.025a1.023 1.023 0 1 1 0-2.048c.567 0 1.025.457 1.025 1.023zM132.725 249.395c0 .564-.458 1.027-1.025 1.027a1.027 1.027 0 0 1-1.025-1.027 1.024 1.024 0 1 1 2.05 0zM137.852 248.369a1.025 1.025 0 1 1-2.05 0 1.025 1.025 0 0 1 2.05 0zM142.979 252.305c0 .563-.456 1.022-1.025 1.022a1.025 1.025 0 1 1 1.025-1.022zM142.979 247.174c0 .568-.456 1.025-1.025 1.025a1.022 1.022 0 0 1-1.023-1.025 1.023 1.023 0 1 1 2.048 0zM148.109 246.15a1.027 1.027 0 0 1-2.054 0 1.028 1.028 0 0 1 2.054 0zM153.236 281.016c0 .567-.459 1.028-1.026 1.028a1.027 1.027 0 0 1-1.025-1.028c0-.564.458-1.022 1.025-1.022a1.023 1.023 0 0 1 1.026 1.022zM153.236 275.891a1.025 1.025 0 1 1-2.05 0 1.025 1.025 0 0 1 2.05 0zM153.236 270.764c0 .565-.459 1.023-1.026 1.023a1.024 1.024 0 1 1 0-2.05 1.026 1.026 0 0 1 1.026 1.027zM153.236 265.635a1.027 1.027 0 0 1-2.051 0c0-.567.458-1.023 1.025-1.023a1.022 1.022 0 0 1 1.026 1.023zM153.236 260.508a1.027 1.027 0 1 1-2.053-.003 1.027 1.027 0 0 1 2.053.003zM153.236 255.38c0 .565-.459 1.023-1.026 1.023a1.026 1.026 0 1 1 1.026-1.023zM153.236 250.252c0 .568-.459 1.023-1.026 1.023a1.024 1.024 0 0 1 0-2.047c.567 0 1.026.458 1.026 1.024zM153.236 245.123c0 .564-.459 1.027-1.026 1.027a1.026 1.026 0 1 1 1.026-1.027zM158.363 244.098a1.024 1.024 0 1 1-1.026-1.025 1.024 1.024 0 0 1 1.026 1.025zM158.363 249.228a1.024 1.024 0 0 1-2.051 0 1.026 1.026 0 1 1 2.051 0zM163.493 248.199a1.03 1.03 0 0 1-1.025 1.028 1.028 1.028 0 1 1 1.025-1.028zM163.493 253.327c0 .569-.461 1.024-1.025 1.024a1.024 1.024 0 1 1 0-2.046c.564 0 1.025.457 1.025 1.022zM163.493 258.457c0 .566-.461 1.022-1.025 1.022a1.024 1.024 0 1 1 0-2.048c.564 0 1.025.458 1.025 1.026zM163.493 263.583a1.03 1.03 0 0 1-1.025 1.028 1.03 1.03 0 0 1-1.028-1.028c0-.563.46-1.028 1.028-1.028a1.03 1.03 0 0 1 1.025 1.028zM163.493 268.711a1.028 1.028 0 0 1-2.053 0c0-.567.46-1.023 1.028-1.023.564 0 1.025.456 1.025 1.023zM163.493 273.841a1.026 1.026 0 0 1-2.053 0 1.026 1.026 0 0 1 2.053 0zM158.363 254.352a1.026 1.026 0 1 1-2.052.004 1.026 1.026 0 0 1 2.052-.004zM158.363 259.48a1.026 1.026 0 1 1-2.052.004 1.026 1.026 0 0 1 2.052-.004zM158.363 264.611a1.025 1.025 0 1 1-1.026-1.028c.569 0 1.026.462 1.026 1.028zM158.363 269.736a1.026 1.026 0 1 1-2.052.002 1.026 1.026 0 0 1 2.052-.002zM158.363 274.863a1.026 1.026 0 1 1-2.051 0c0-.564.458-1.023 1.025-1.023a1.024 1.024 0 0 1 1.026 1.023zM158.363 279.993a1.02 1.02 0 0 1-1.026 1.022 1.025 1.025 0 1 1 1.026-1.022zM148.109 251.275a1.03 1.03 0 0 1-1.025 1.029 1.027 1.027 0 1 1 1.025-1.029zM148.109 256.403a1.027 1.027 0 1 1-2.054 0 1.028 1.028 0 0 1 2.054 0zM148.109 261.533c0 .566-.462 1.021-1.025 1.021a1.024 1.024 0 1 1 0-2.046c.564 0 1.025.457 1.025 1.025zM148.109 266.66a1.03 1.03 0 0 1-1.025 1.027 1.03 1.03 0 0 1-1.029-1.027 1.028 1.028 0 0 1 2.054 0zM148.109 271.787a1.03 1.03 0 0 1-1.025 1.028 1.031 1.031 0 0 1-1.029-1.028 1.027 1.027 0 0 1 2.054 0zM148.109 276.916c0 .567-.462 1.023-1.025 1.023a1.025 1.025 0 1 1 0-2.048c.564 0 1.025.459 1.025 1.025zM148.109 282.044a1.027 1.027 0 0 1-2.054 0 1.03 1.03 0 0 1 1.029-1.028 1.03 1.03 0 0 1 1.025 1.028zM142.979 257.431a1.025 1.025 0 1 1-2.048 0 1.024 1.024 0 1 1 2.048 0zM142.979 262.555a1.024 1.024 0 1 1-2.049.007 1.024 1.024 0 0 1 2.049-.007zM142.979 267.688c0 .564-.456 1.023-1.025 1.023a1.022 1.022 0 0 1-1.023-1.023 1.024 1.024 0 1 1 2.048 0zM142.979 272.816a1.025 1.025 0 0 1-2.048 0 1.025 1.025 0 1 1 2.048 0zM142.979 277.94a1.024 1.024 0 1 1-2.049.005 1.024 1.024 0 0 1 2.049-.005zM142.979 283.068a1.023 1.023 0 1 1-2.048 0 1.023 1.023 0 1 1 2.048 0zM137.852 253.499a1.025 1.025 0 1 1-1.023-1.029c.564 0 1.023.462 1.023 1.029zM137.852 258.625a1.025 1.025 0 1 1-2.05 0 1.025 1.025 0 0 1 2.05 0zM137.852 263.75a1.026 1.026 0 1 1-2.051 0 1.025 1.025 0 0 1 2.051 0zM137.852 268.883c0 .564-.459 1.022-1.023 1.022a1.024 1.024 0 1 1 1.023-1.022zM137.852 274.01a1.026 1.026 0 1 1-2.052-.002 1.026 1.026 0 0 1 2.052.002zM137.852 279.135a1.026 1.026 0 1 1-2.051 0c0-.565.458-1.023 1.028-1.023a1.022 1.022 0 0 1 1.023 1.023zM137.852 284.264a1.024 1.024 0 1 1-2.053.001 1.024 1.024 0 0 1 2.053-.001zM132.725 264.777c0 .565-.458 1.029-1.025 1.029a1.029 1.029 0 0 1 0-2.056c.567 0 1.025.464 1.025 1.027zM132.725 269.905a1.024 1.024 0 0 1-2.05 0c0-.567.458-1.022 1.025-1.022s1.025.455 1.025 1.022zM132.725 275.035c0 .564-.458 1.022-1.025 1.022a1.023 1.023 0 1 1 0-2.047c.567 0 1.025.458 1.025 1.025zM132.725 280.162a1.026 1.026 0 1 1-2.052-.002 1.026 1.026 0 0 1 2.052.002zM132.725 285.289c0 .564-.458 1.026-1.025 1.026a1.027 1.027 0 0 1 0-2.051c.567 0 1.025.459 1.025 1.025zM127.598 260.674a1.025 1.025 0 1 1 0 0zM127.598 265.807a1.026 1.026 0 1 1-2.051-.005 1.026 1.026 0 0 1 2.051.005zM127.598 270.93c0 .568-.459 1.028-1.029 1.028-.566 0-1.022-.46-1.022-1.028a1.025 1.025 0 1 1 2.051 0zM127.598 276.058a1.026 1.026 0 1 1 0 0zM127.598 281.188c0 .566-.459 1.023-1.029 1.023a1.02 1.02 0 0 1-1.022-1.023c0-.567.456-1.025 1.022-1.025a1.023 1.023 0 0 1 1.029 1.025z"/></g><g fill-rule="evenodd" clip-rule="evenodd" fill="#593e9b"><path d="M103.911 162.158H69.235c-3.669-.008-6.135 2.659-6.135 5.856s2.46 5.834 6.14 5.834h34.665c3.681-.001 6.141-2.638 6.141-5.834 0-3.198-2.466-5.864-6.135-5.856zm-.018 10.257H69.252c-2.925.011-4.703-1.974-4.703-4.409 0-2.435 1.789-4.404 4.703-4.41h34.641c2.915.005 4.704 1.974 4.704 4.41 0 2.435-1.778 4.42-4.704 4.409z"/><path d="M71.8 169.079l-2.347-3.837h-1.696v5.504h1.685v-3.838l2.359 3.838h1.681v-5.504h-1.683zM85.157 167.092v-.543h-.886v-.741h-1.639l.002.741h-.891v.543h.89l-.001 3.654h1.64l-.001-3.654zM74.419 167.086h1.637v3.66h-1.637zM74.416 165.24h1.641v1.126h-1.641zM103.109 166.836c-1.321 0-2.392.92-2.392 2.056 0 1.134 1.071 2.054 2.392 2.054 1.322 0 2.393-.92 2.393-2.054 0-1.136-1.07-2.056-2.393-2.056zm.657 2.825c0 .583-.34.824-.669.824-.328 0-.671-.241-.671-.824l.001-.789.001-.763c0-.581.342-.82.668-.82s.669.239.669.82l.001.779v.773zM98.568 167.267c-.262-.148-.538-.292-.927-.326-1.179-.105-2.082.95-2.082 1.916 0 1.273.972 1.745 1.12 1.815.551.259 1.259.26 1.885-.137l.001.211h1.618v-5.503h-1.616c.001-.001.001 1.178.001 2.024zm.012 1.63v.649c0 .566-.386.713-.641.713-.261 0-.642-.148-.642-.713l.001-.65-.001-.653c0-.566.382-.71.642-.71.255 0 .641.144.641.71v.654zM79.889 166.917c-.541.016-.992.25-1.305.552-.002-.09 0-.384 0-.384l-1.627.001.001 3.66h1.625l-.002-2.404c0-.319.331-.674.778-.674.446 0 .748.355.748.674v2.404h1.627s-.001-1.734.001-1.991c.008-1.451-1.234-1.856-1.846-1.838zM93.195 166.917c-.542.016-.992.25-1.306.552-.003-.09 0-.384 0-.384l-1.624.001-.001 3.66h1.625l-.003-2.404c0-.319.333-.674.778-.674.446 0 .748.355.748.674v2.404h1.626s-.001-1.734.001-1.991c.009-1.451-1.233-1.856-1.844-1.838zM89.767 168.931c0-1.135-1.084-2.076-2.415-2.076s-2.411.92-2.411 2.054c0 1.136 1.08 2.056 2.411 2.056 1.105 0 2.037-.638 2.323-1.502l-1.632.001.001.222c0 .67-.435.819-.676.819-.242 0-.686-.149-.686-.819l.002-.756h3.083zm-2.976-1.288a.667.667 0 0 1 .576-.333h-.001.001a.663.663 0 0 1 .575.333c.104.184.11.398.108.718h-1.367c-.003-.32.003-.534.108-.718zM106.338 165.654c0-.247-.145-.356-.438-.356h-.473v1.253h.188v-.544h.215l.328.544h.209l-.352-.552c.184-.023.323-.121.323-.345zm-.722.193v-.388h.256c.13 0 .269.029.269.184 0 .193-.142.204-.301.204h-.224z"/><path d="M105.843 164.838a1.08 1.08 0 0 0-1.092 1.084c0 .63.501 1.09 1.092 1.09.586 0 1.086-.459 1.086-1.09 0-.624-.5-1.084-1.086-1.084zm0 1.991c-.491 0-.875-.385-.875-.908 0-.514.384-.902.875-.902.487 0 .87.389.87.902-.001.524-.383.908-.87.908z"/></g><g fill="#593e9b"><path d="M46.205 5.519c-.207.096-.622.192-1.154.192-1.231 0-2.159-.72-2.159-2.045 0-1.265.928-2.123 2.283-2.123.544 0 .888.108 1.037.18l-.136.426a2.206 2.206 0 0 0-.883-.168c-1.024 0-1.705.605-1.705 1.667 0 .989.616 1.625 1.68 1.625.344 0 .693-.066.921-.168l.116.414zM50.508 3.588c0 1.391-.915 2.129-2.03 2.129-1.154 0-1.965-.828-1.965-2.051 0-1.283.862-2.123 2.03-2.123 1.192 0 1.965.846 1.965 2.045zm-3.392.066c0 .864.506 1.637 1.394 1.637.896 0 1.401-.762 1.401-1.679 0-.803-.454-1.643-1.395-1.643-.933 0-1.4.798-1.4 1.685zM54.919 3.876a27.653 27.653 0 0 1-.065-1.745h-.02c-.148.474-.33.978-.551 1.535l-.771 1.961h-.429l-.707-1.925a17.732 17.732 0 0 1-.506-1.571h-.013a50.274 50.274 0 0 1-.084 1.787l-.117 1.733h-.538l.305-4.042h.72l.746 1.955c.182.498.331.941.441 1.361h.02c.109-.408.266-.852.46-1.361l.778-1.955h.72l.272 4.042h-.552l-.109-1.775zM60.127 3.876a27.653 27.653 0 0 1-.065-1.745h-.02c-.149.474-.33.978-.551 1.535l-.771 1.961h-.429l-.707-1.925a17.732 17.732 0 0 1-.506-1.571h-.013a50.274 50.274 0 0 1-.084 1.787l-.117 1.733h-.538l.305-4.042h.72l.746 1.955c.182.498.331.941.441 1.361h.02c.109-.408.266-.852.46-1.361l.778-1.955h.72l.272 4.042h-.552l-.109-1.775zM32.971 5.568h5.5l-2.75-3.875z"/></g><path d="M80.671 247.176c0 1.135-.859 2.052-1.92 2.052h-11.03c-1.063 0-1.922-.917-1.922-2.052v-.51c0-1.137.859-2.056 1.922-2.056H78.75c1.061 0 1.92.919 1.92 2.056v.51zM107.347 247.176c0 1.135-.857 2.052-1.917 2.052H94.397c-1.058 0-1.916-.917-1.916-2.052v-.51c0-1.137.858-2.056 1.916-2.056h11.034c1.059 0 1.917.919 1.917 2.056v.51z" fill="#2b2b2b"/><g fill="#593e9b"><path d="M64.538 254.168c-.406-.386-.799-.498-1.121-.498-.441 0-.756.231-.756.567 0 .918 2.065.903 2.065 2.424 0 .749-.566 1.296-1.337 1.296-.519 0-.938-.141-1.338-.441v-.869c.35.448.791.693 1.261.693.532 0 .777-.336.777-.602 0-.988-2.066-1.1-2.066-2.409 0-.778.574-1.275 1.45-1.275.364 0 .729.112 1.064.336v.778zM68.186 253.734h-2.024v1.442h1.954v.616h-1.954v1.485h2.087v.616h-2.773v-4.776h2.711v.617zM69.654 257.278h2.157v.616h-2.844v-4.776h.687v4.16zM75.115 253.734h-2.024v1.442h1.954v.616h-1.954v1.485h2.087v.616h-2.773v-4.776h2.711v.617zM79.974 254.182c-.588-.344-1.093-.497-1.646-.497-1.093 0-1.905.777-1.905 1.828 0 1.071.784 1.813 1.933 1.813.54 0 1.128-.189 1.667-.539v.749c-.469.245-.98.421-1.729.421-1.793 0-2.578-1.38-2.578-2.382 0-1.457 1.1-2.521 2.62-2.521.49 0 .987.119 1.639.393v.735zM84.446 253.734h-1.652v4.16h-.687v-4.16h-1.653v-.616h3.992v.616z"/></g><g fill="#593e9b"><path d="M93.251 254.171c-.406-.386-.799-.498-1.121-.498-.441 0-.756.231-.756.567 0 .918 2.066.903 2.066 2.424 0 .749-.568 1.296-1.338 1.296-.518 0-.939-.141-1.338-.441v-.869c.35.448.791.693 1.26.693.533 0 .779-.336.779-.602 0-.988-2.066-1.1-2.066-2.409 0-.778.574-1.275 1.449-1.275.363 0 .729.112 1.064.336v.778zM97.774 253.737H96.12v4.16h-.686v-4.16h-1.652v-.616h3.992v.616zM101.862 257.897h-.701l-.637-1.408h-2.031l-.602 1.408h-.701l2.053-4.805h.482l2.137 4.805zm-3.103-2.024h1.486l-.771-1.729-.715 1.729zM103.605 253.121c.967 0 1.568.511 1.568 1.338 0 .553-.287.966-.799 1.169.434.287.701.729 1.064 1.324.203.329.322.49.652.945h-.82l-.631-.98c-.629-.98-.916-1.093-1.268-1.093h-.287v2.073h-.686v-4.776h1.207zm-.52 2.087h.441c.736 0 .945-.378.939-.777-.008-.448-.273-.722-.939-.722h-.441v1.499zM109.569 253.737h-1.654v4.16h-.686v-4.16h-1.652v-.616h3.992v.616z"/></g></svg>