<svg xmlns="http://www.w3.org/2000/svg" viewBox="0 0 86.976223 200">
  <path fill="#bdbdbd" d="M86.456569 136.14798c0-.51964-.06496-1.10425-.259824-1.6239-.194868-.51965-.714517-.90938-1.364078-.90938v.32478c-.129912 0-.324781 0-.324781.19486l.06496 23.12438c-.259824 8.24942-2.6632 15.45955-6.49561 21.69533-.129912.25983.129913.38974.259825.38974.454693 0 .779473-.065 1.104254-.065v.065c.454692 0 .779473.065 1.104253 0 .324781-.065.649561-.19487.84443-.5846 3.507629-6.23579 5.131531-13.38096 5.131531-20.98082v-21.63039zm0-72.16622c0 .51965-.06496 1.10425-.259824 1.6239-.194868.51965-.714517.90938-1.364078.90938v-.32478c-.129912 0-.324781 0-.324781-.19486l.06496-23.12438c-.259824-8.24942-2.6632-15.45955-6.49561-21.69533-.129912-.25983.129913-.38974.259825-.38974.454693 0 .779473.065 1.104254.065v-.065c.454692 0 .779473-.065 1.104253 0 .324781.065.649561.19487.84443.5846 3.507629 6.23579 5.131531 13.38096 5.131531 20.98083v21.63038zm0 0"/>
  <path fill="#ccc" d="M84.832667 42.09155V96.9145h-.779473v6.23578h.779473v54.758c0 23.25428-18.837269 42.09155-42.091553 42.09155-23.254284.065-42.091553-18.77231-42.091553-42.0266 0-9.22376 2.9230245-17.66806 7.9246442-24.61836l.649561-.84443c1.2341658-1.55894 1.9486828-3.44267 1.9486828-5.58622V73.14057c0-2.0786-.714517-4.02728-1.9486828-5.58623l-.649561-.84443C3.5725855 59.75961.649561 51.25036.649561 42.09155.649561 18.83727 19.48683 0 42.741114 0s42.091553 18.83727 42.091553 42.09155zm0 0"/>
  <path fill="none" d="M0 0h86.976218v199.99983H0z"/>
  <path fill="#4c4c4c" d="M23.059416 75.6089c.194868 0 .32478-.065.389736-.19487l.194868-.25982c.259825-.38974.584605-.58461.974342-.58461.194868 0 .389737.065.519649.12991.129912.065.259824.19487.32478.38974.06496.12991.129912.32478.129912.51965 0 .25982-.129912.45469-.32478.64956-.194868.12991-.454693.25982-.779473.25982v-.5846c.129912 0 .259824 0 .32478-.065.06496-.065.129912-.12991.129912-.19487 0-.12991-.06496-.19486-.129912-.25982-.06496-.065-.129912-.12991-.259824-.12991s-.259825.0649-.389737.25982c-.129912.19487-.194868.32478-.259824.4547-.194868.25982-.519649.38973-.909386.38973-.194868 0-.389736-.065-.519648-.12991-.129913-.065-.259825-.19487-.324781-.32478-.06496-.12991-.129912-.32478-.129912-.51965 0-.12991.06496-.25982.06496-.38974.06496-.12991.129912-.19486.259824-.32478.194869-.19487.519649-.25982.84443-.25982v.5846c-.194869 0-.324781 0-.389737.065-.06496.065-.129912.12991-.129912.25982 0 .12992 0 .19487.06496.25983.129912-.065.259824-.065.324781 0zm1.883726 12.66644v-.77948l-2.793112-.38973v-.58461l2.793112.38974v-.71452l.649561.065v2.07859l-.649561-.065zm-1.623902-2.79311c-.259824 0-.454693-.065-.649561-.19487-.194868-.12991-.324781-.25983-.454693-.38974-.129912-.19487-.129912-.32478-.129912-.51965 0-.25982.129912-.45469.324781-.64956.194868-.12991.519648-.25982.909385-.25982.259824 0 .519649 0 .844429.0649.324781.065.584605.12991.779473.25983.194869.12991.389737.25982.519649.38973.129912.19487.129912.32478.129912.51965 0 .25983-.129912.51965-.32478.64956-.194868.19487-.519649.25983-.909385.25983v-.51965c.194868 0 .389736 0 .454692-.065.06496-.0649.129912-.12991.129912-.25982 0-.32478-.32478-.51965-.974341-.58461-.324781 0-.519649-.065-.649561-.065-.389737 0-.584605.12991-.584605.32478 0 .12991.06496.25982.129912.32478l.389737.19487.06496.51965zm.259824-2.6632v-.97435l-.844429-.12991v1.10426l-.649561-.065v-1.75382l3.442673.4547v1.75381l-.649561-.0649v-1.10426l-.714517-.0649v.97434l-.584605-.12991zm-.779473-3.24781v1.0393l-.649561-.065v-1.68886l3.442673.4547v.5846l-2.793112-.32478zm.779473-1.16921v-.97434l-.844429-.12991v1.10425l-.649561-.065v-1.68885l3.442673.45469v1.75381l-.649561-.0649V77.6875l-.714517-.065v.97434l-.584605-.19487zm-.519648 19.87657c.194868 0 .32478-.065.389736-.19487l.194868-.32478c.259825-.38974.584605-.58461.974342-.58461.194868 0 .389737.065.519649.12992.129912.065.259824.19486.32478.38973.06496.12991.129912.32478.129912.51965 0 .25983-.129912.45469-.32478.64956-.194868.12991-.454693.25983-.779473.25983v-.58461c.129912 0 .259824 0 .32478-.065.06496-.065.129912-.12992.129912-.19487 0-.12991-.06496-.19487-.129912-.25983-.06496-.0649-.129912-.12991-.259824-.12991s-.259825.065-.389737.25983c-.129912.19486-.194868.32478-.259824.45469-.194868.25982-.519649.38973-.909386.38973-.194868 0-.389736-.065-.519648-.12991-.129913-.065-.259825-.19487-.324781-.38973-.06496-.12992-.129912-.32478-.129912-.51965 0-.12992.06496-.25983.06496-.38974.06496-.12991.129912-.19487.259824-.32478.194869-.19487.519649-.25982.84443-.25982v.5846c-.194869 0-.324781 0-.389737.065-.06496.065-.129912.12991-.129912.25982s0 .19487.06496.25983c.129912.0649.259824.0649.324781.12991zm1.883726 10.91262v-.71451l-2.793112-.38974v-.58461l2.793112.38974v-.71452l.649561.065v2.07859l-.649561-.12991zm-.974341-4.02728v.32478c0 .065 0 .19487.06496.25983.06496.065.129912.12991.259824.12991.129913 0 .194869.065.324781 0 .194868 0 .259824-.12991.259824-.25982v-.38974l-.909385-.065zm-.584605-.12991l-1.234166-.12991v-.58461l3.442673.4547v.90938c0 .25983-.06496.51965-.259824.64956-.194868.12992-.454693.19487-.714517.19487-.259824 0-.454693-.0649-.584605-.19487-.194868-.065-.32478-.19486-.389737-.38973l-1.364078.32478h-.06496v-.64956l1.234166-.25983v-.32478zm-.584605-2.53329l-.649561-.25982v-.64956l3.442673 1.36408v.5846l-3.442673.45469v-.64956l.649561-.0649v-.77948zm.649561.25983v.51965l1.16921-.12992-1.16921-.38973zm1.49399-1.10426v-.71451l-2.793112-.38974v-.5846l2.793112.38973v-.71451l.649561.0649v2.0786l-.649561-.12992zm0 0"/>
  <path fill="#999" d="M43.195807 66.25522c-13.186089 0-23.903845-10.6528-23.903845-23.83889s10.717756-23.83889 23.903845-23.83889c13.186088 0 23.903845 10.6528 23.903845 23.83889S56.381895 66.25522 43.195807 66.25522"/>
  <path fill="none" stroke="#999" stroke-width=".51964879" d="M43.195807 66.25522c-13.186089 0-23.903845-10.6528-23.903845-23.83889s10.717756-23.83889 23.903845-23.83889c13.186088 0 23.903845 10.6528 23.903845 23.83889S56.381895 66.25522 43.195807 66.25522"/>
  <path fill="#ccc" d="M43.195807 65.47575c-12.796352 0-23.124372-10.32802-23.124372-23.12437 0-12.79636 10.32802-23.12438 23.124372-23.12438 12.796351 0 23.124371 10.32802 23.124371 23.12438 0 12.79635-10.32802 23.12437-23.124371 23.12437"/>
  <path fill="#666" d="M43.130851 195.97255c-20.915865 0-37.934363-17.0185-37.934363-37.93436 0-20.98082 17.018498-37.93436 37.934363-37.93436 20.98082 0 37.934362 17.0185 37.934362 37.93436.06496 20.91586-16.953542 37.93436-37.934362 37.93436"/>
  <path fill="#4c4c4c" d="M49.171768 58.98014V48.39229h10.6528c.454693 0 .84443-.38973.84443-.84443V37.21984c0-.45469-.389737-.84443-.84443-.84443h-10.6528V25.78757c0-.45469-.389737-.84443-.844429-.84443H38.064275c-.454693 0-.84443.38974-.84443.84443v10.58784h-10.6528c-.454693 0-.844429.38974-.844429.84443v10.32802c0 .4547.389736.84443.844429.84443h10.6528v10.6528c0 .4547.389737.84443.84443.84443h10.32802c.454692-.065.779473-.45469.779473-.90938"/>
  <path fill="#666" d="M44.30006 27.41147c-.584605-1.0393-1.558946-1.0393-2.143551 0l-2.33842 4.09224c-.584604 1.03929-.32478 1.88372.584605 1.88372h5.521269c.909385 0 1.234166-.84443.584605-1.88372l-2.208508-4.09224c-.584605-1.0393-1.558946-1.0393-2.143551 0l-2.33842 4.09224c-.584604 1.03929-.32478 1.88372.584605 1.88372h5.521269c.909385 0 1.234166-.84443.584605-1.88372l-2.208508-4.09224zm0 29.87981c-.584605 1.0393-1.558946 1.0393-2.143551 0l-2.33842-4.09224c-.584604-1.03929-.32478-1.88372.584605-1.88372h5.521269c.909385 0 1.234166.84443.584605 1.88372l-2.208508 4.09224c-.584605 1.0393-1.558946 1.0393-2.143551 0l-2.33842-4.09224c-.584604-1.03929-.32478-1.88372.584605-1.88372h5.521269c.909385 0 1.234166.84443.584605 1.88372l-2.208508 4.09224zm13.770694-13.83565c1.039297-.58461 1.039297-1.55895 0-2.14355l-4.027279-2.33842c-1.039297-.58461-1.883727-.32478-1.883727.64956v5.52127c0 .90938.84443 1.23416 1.883727.64956l4.027279-2.33842c1.039297-.58461 1.039297-1.55895 0-2.14355l-4.027279-2.33842c-1.039297-.58461-1.883727-.32478-1.883727.64956v5.52127c0 .90938.84443 1.23416 1.883727.64956l4.027279-2.33842zm-29.81485 0c-1.039298-.58461-1.039298-1.55895 0-2.14355l4.092234-2.33842c1.039298-.58461 1.883727-.32478 1.883727.64956v5.52127c0 .90938-.844429 1.23416-1.883727.64956l-4.092234-2.33842c-1.039298-.58461-1.039298-1.55895 0-2.14355l4.092234-2.33842c1.039298-.58461 1.883727-.32478 1.883727.64956v5.52127c0 .90938-.844429 1.23416-1.883727.64956l-4.092234-2.33842zm9.873327 44.17015l-6.690479-8.57421c-2.338419-2.92302 1.883727-6.62552 4.417015-3.44267l6.690479 8.5742c2.338419 3.05294-2.078596 6.56057-4.417015 3.44268m0 21.50047l-6.690479-8.57421c-2.338419-2.92302 1.883727-6.62552 4.417015-3.44267l6.690479 8.5742c2.338419 3.05294-2.078596 6.56057-4.417015 3.44268"/>
  <path fill="#d8d8d8" d="M70.607281 171.02941v-1.36408l-2.078595 1.75382-2.273464-1.88373v1.29912l1.493991 1.23417-1.493991 1.23416v1.29913l2.273464-1.88373 2.078595 1.75381V173.108l-1.234166-1.03929 1.234166-1.0393zm-15.524508 17.21337v1.29912l-4.287103 1.94868v-1.0393l1.104254-.51965v-2.14355l-1.104254-.51965v-1.03929l4.287103 2.01364zm-2.33842 1.29912l1.493991-.64956-1.429035-.64956-.06496 1.29912zm-18.707356-62.94246v-1.16921l-2.403376 1.94868h-2.013639v1.0393h2.013639l2.403376 1.94868v-1.16921l-1.623903-1.29912 1.623903-1.29912zm0 0"/>
  <path fill="#ccc" d="M18.902225 142.96837v2.85807c-.129912 1.81877-2.013639 1.88373-2.143551.12991-.06496 2.20851-2.273464 2.01364-2.33842-.12991v-2.85807h4.481971zm-3.637541 2.85807c.129912.71452.909385.71452 1.039297 0v-1.75381h-1.039297v1.75381zm1.883726 0c.259825.71452.909386.4547.974342 0v-1.75381h-.974342v1.75381zm0 0"/>
  <path fill="#f4f4f4" d="M50.600802 138.9411c0-4.35206-3.507629-7.85969-7.859688-7.85969-4.352059 0-7.859688 3.50763-7.859688 7.85969 0 4.35205 3.507629 7.85968 7.859688 7.85968 4.352059 0 7.859688-3.50763 7.859688-7.85968zm-.649561 0c0 3.96232-3.182849 7.21012-7.210127 7.21012-3.962322 0-7.210127-3.18285-7.210127-7.21012 0-3.96233 3.182849-7.21013 7.210127-7.21013s7.210127 3.2478 7.210127 7.21013zm15.524508 19.03213c0-4.35206-3.507629-7.85968-7.859688-7.85968-4.352059 0-7.859688 3.50762-7.859688 7.85968s3.507629 7.85969 7.859688 7.85969c4.352059 0 7.859688-3.50763 7.859688-7.85969zm-.649561 0c0 3.96233-3.182849 7.21013-7.210127 7.21013-3.962322 0-7.210127-3.18285-7.210127-7.21013 0-4.02727 3.247805-7.14517 7.210127-7.14517s7.210127 3.18285 7.210127 7.14517zm-28.710596.64956c0-4.35205-3.50763-7.85968-7.859688-7.85968-4.352059 0-7.859689 3.50763-7.859689 7.85968 0 4.35206 3.50763 7.85969 7.859689 7.85969 4.352058 0 7.859688-3.50763 7.859688-7.85969zm-.649561 0c0 3.96233-3.182849 7.14518-7.210127 7.14518-3.962323 0-7.145171-3.18285-7.145171-7.14518 0-3.96232 3.182848-7.21012 7.145171-7.21012 4.027278.065 7.210127 3.2478 7.210127 7.21012zm15.524508 19.03214c0-4.35206-3.50763-7.85969-7.859688-7.85969-4.352059 0-7.859689 3.50763-7.859689 7.85969s3.50763 7.85969 7.859689 7.85969c4.352058 0 7.859688-3.50763 7.859688-7.85969zm-.649561 0c0 3.96232-3.182849 7.21013-7.210127 7.21013-3.962323 0-7.210128-3.18285-7.210128-7.21013 0-3.96232 3.182849-7.21013 7.210128-7.21013 3.962322.065 7.210127 3.24781 7.210127 7.21013zm0 0"/>
  <path fill="#d8d8d8" d="M48.846987 184.93002c-4.027278 3.11789-9.808371 2.40337-12.99122-1.62391L20.98082 164.27398c-3.117892-4.02728-2.403375-9.80838 1.623903-12.99122 4.027278-3.1179 9.808371-2.40338 12.99122 1.6239l14.809991 19.09709c1.16921 1.49399 1.818771 3.24781 1.948683 5.06658.194868 2.85807-.974342 5.911-3.50763 7.85969zm0 0"/>
  <path fill="#eb2d2f" d="M50.990539 177.65493c0 4.35206-3.50763 7.85969-7.859688 7.85969-4.352059 0-7.859689-3.50763-7.859689-7.85969s3.50763-7.85969 7.859689-7.85969c4.352058.065 7.859688 3.57259 7.859688 7.85969zm0 0"/>
  <path fill="#d8d8d8" d="M63.267242 165.31327c-4.027279 3.1179-9.808372 2.40338-12.99122-1.6239l-14.874947-19.03214c-3.117893-4.02728-2.403376-9.80837 1.623902-12.99122 4.027278-3.11789 9.808371-2.40337 12.99122 1.62391l14.809991 19.09709c1.16921 1.49399 1.818771 3.2478 1.948683 5.06657.259824 2.85807-.974341 5.91101-3.507629 7.85969zm0 0"/>
  <path fill="#323b98" d="M65.475749 157.97323c0 4.35206-3.507629 7.85969-7.859688 7.85969-4.352059 0-7.859688-3.50763-7.859688-7.85969s3.507629-7.85968 7.859688-7.85968c4.352059.065 7.859688 3.57258 7.859688 7.85968zm0 0"/>
  <path fill="#f9ec2b" d="M36.115592 158.62279c0 4.35206-3.50763 7.85969-7.859688 7.85969-4.352059 0-7.859689-3.50763-7.859689-7.85969 0-4.35205 3.50763-7.85968 7.859689-7.85968 4.352058 0 7.859688 3.50763 7.859688 7.85968zm0 0"/>
  <path fill="#01954b" d="M50.600802 138.9411c0 4.35205-3.507629 7.85968-7.859688 7.85968-4.352059 0-7.859688-3.50763-7.859688-7.85968 0-4.35206 3.507629-7.85969 7.859688-7.85969 4.352059 0 7.859688 3.50763 7.859688 7.85969zm0 0"/>
  <circle cx="43.195808" cy="42.351372" r="4.7417955" fill="#595959"/>
  <path fill="#4c4c4c" d="M70.412413 73.985s.06496-.12992.06496-.25983v-1.55894s.129912-.19487.389736-.19487c0 0 .259825.0649.259825.38973v2.14355h.584605v-2.79311s0-.64956-.779474-.84443c0 0-1.104253-.19487-1.104253.90939v1.42903s-.06496.4547-.389737.38974c0 0-.32478-.065-.32478-.32478v-2.20851h-.649561v2.53329s-.129913.97434.844429 1.10425c0 0 .909385.065 1.104254-.71451zm-1.299122 3.63754v-1.16921s.06496-.45469.454692-.45469h2.143552v-.97435h-2.403376s-.844429.25983-.844429.97435v2.53328h3.247805v-.97434h-2.598244zm2.6632 4.15719v-2.6632H68.46373v.90938h1.104253v1.62391c.129913 1.10425 1.104254 1.03929 1.104254 1.03929.974342-.065 1.104254-.90938 1.104254-.90938zm-1.558947-.51965v-1.16921h.909386v1.23417c0 .32478-.389737.38973-.389737.38973-.584605-.12991-.519649-.45469-.519649-.45469zm-.129912 1.75381s-1.364078-.19486-1.623902 1.36408v1.94869h.649561V84.6378s0-.51965.714517-.58461v2.33842h.649561v-2.27346s.584605.065.649561.64956v1.6239h.649561v-2.01364c0-.065-.129912-1.36408-1.688859-1.36408zm.649561 7.59987c.974342 0 1.039298-.97434 1.039298-.97434v-2.72816H68.46373v.97434h1.234166v.97434l-1.234166.84443v1.10426l1.234166-.97435c.194868.77948 1.039297.77948 1.039297.77948zM70.2825 88.9249v-1.10425h.84443v1.10425s.06496.5846-.454693.5846c0 .065-.389737.12992-.389737-.5846zm.259825 3.89737H68.46373v.97434h1.299122v2.33842h.714517v-2.33842h.194868c.389737.065.519649.64956.519649.64956v1.68886h.584605v-2.01364c-.06496-1.10426-1.234166-1.29912-1.234166-1.29912zm1.16921 6.04091v-2.14355h-.649561v1.68886c0 .64956-.649561.71452-.649561.71452V97.4991c-.06496-1.10425-1.039298-1.10425-1.039298-1.10425-1.039298 0-1.039298 1.16921-1.039298 1.16921v2.53329h1.818771c1.429034 0 1.558947-1.23417 1.558947-1.23417zm-2.6632.25983v-1.29913s0-.32478.389736-.32478c0 0 .389737.065.389737.38974v1.29912h-.779473zm2.6632 5.26144V100.617H68.46373v.97434h2.598244v.84443h-2.6632v.97434h2.598244v.38974c0 .51964-.389737.5846-.389737.5846h-2.208507v.90939h2.143551c1.039297.12991 1.16921-.90939 1.16921-.90939zm-3.247805 1.55895v1.03929h3.247805v-1.03929H68.46373zm1.623902 1.49399c-1.623902 0-1.688858 1.36408-1.688858 1.36408v1.88372h.649561v-1.6239c.129912-.71452.974341-.64956.974341-.64956 1.104254 0 .974342.71452.974342.71452v1.6239h.649561v-2.01364c-.129913-1.29912-1.558947-1.29912-1.558947-1.29912zm1.623903 5.58622s.129912-1.75381-1.364078-2.01364c0 0-1.234166-.19487-1.688859.64956 0 0-.779473 1.23417 0 2.6632 0 0 .454693.97435 1.883727.71452 0 0 1.234166-.25982 1.16921-2.01364zm-2.793113.065s-.129912-1.23417 1.104254-1.10426c0 0 1.104254-.12991 1.104254 1.0393 0 0 .129912 1.16921-1.104254 1.16921 0-.0649-1.104254.065-1.104254-1.10425zm2.728157 6.23578v-3.76745h-3.247805v.97434h2.598244v.84443h-2.663201v.97434h2.598244v.38974c0 .51965-.389736.5846-.389736.5846h-2.208508v.90939h2.143552c1.039297.065 1.16921-.90939 1.16921-.90939zm6.885346-48.39229v1.42903l-3.312761 2.01364h3.312761v1.42904H73.79013v-1.42904l3.312761-2.01364H73.79013V70.9321h4.741795zm-.454693 12.66644v1.36408h-.649561v.77947h-.454692v-.77947H73.79013v-1.36408h3.182849v-.77947h.454692v.77947h.649561zm-1.104253-6.9503v1.36407H73.79013v-1.36407h3.182849zm1.558946-.065v1.42903h-.974341v-1.42903h.974341zm-1.364078 24.42349c0-1.10425-.779473-2.01364-1.753815-2.01364-.974341 0-1.753814.90939-1.753814 2.01364 0 1.10426.779473 2.01364 1.753814 2.01364.974342.065 1.753815-.84443 1.753815-2.01364m-1.753815.58461h-.649561c-.519648 0-.714517-.25983-.714517-.58461 0-.25982.194869-.5846.714517-.5846h1.364078c.519649 0 .714518.32478.714518.5846 0 .25983-.194869.58461-.714518.58461h-.714517zm-.06496-4.41702h.584605c.519649 0 .584605-.32478.584605-.51965 0-.19486-.129912-.51964-.584605-.51964h-1.16921c-.519648 0-.649561.32478-.649561.51964 0 .19487.129913.51965.649561.51965h.584605zm3.182849 0v1.36408h-4.741795v-1.36408h.194868c-.32478-.51965-.32478-1.10425-.129912-1.6239.06496-.12991.454693-.97434 1.558946-.97434.84443 0 1.753815.77947 1.688859 1.75381 0 .32478-.129912.58461-.259824.77948l1.688858.065zm-1.429034-15.91424c0 .51965-.324781 1.55895-1.558946 1.55895h-1.753815v-1.36408h2.078595c.259824 0 .584605-.25983.584605-.64956 0-.38974-.324781-.64956-.584605-.64956h-2.078595v-1.36408h3.182849v1.36408h-.324781c.194869.25982.454693.64956.454693 1.10425m0 11.30236c0 .51965-.324781 1.55895-1.558946 1.55895h-1.753815v-1.36408h2.078595c.259824 0 .584605-.25983.584605-.64956 0-.38974-.324781-.64956-.584605-.64956h-2.078595v-1.36408h3.182849v1.36408h-.324781c.194869.25982.454693.64956.454693 1.10425m-2.208507-4.35206h-.194869c-.584605 0-.714517-.38973-.714517-.5846s.129912-.58461.714517-.58461h.649561v2.59825c.974342 0 1.818771-.90939 1.818771-2.0786 0-1.16921-.779473-2.07859-1.753815-2.07859-.974341 0-1.753814.90938-1.753814 2.07859 0 .90939.519648 1.75382 1.299122 1.94868l-.06496-1.29912zm.974341-1.16921c.259824 0 .454693 0 .649561.065.194868.12991.259824.32478.259824.51965 0 .19487-.06496.38973-.259824.51965-.129912.0649-.32478.0649-.649561.0649v-1.16921zm-3.83241-26.43713c-.714517 0-1.299122-1.29912-1.299122-2.85807s.584605-2.85807 1.299122-2.85807c.714517 0 1.299122 1.29912 1.299122 2.85807-.06496 1.55895-.584605 2.85807-1.299122 2.85807m-2.143551 5.06658c-.714517 0-1.299122-1.29913-1.299122-2.85807 0-1.55895.584605-2.85807 1.299122-2.85807.714517 0 1.299122 1.29912 1.299122 2.85807 0 1.55894-.584605 2.85807-1.299122 2.85807m1.364078.32478c1.429034-.32478 2.987981-1.55895 2.33842-3.18285 2.98798 1.29912 2.533287 3.76745 1.49399 4.61188-.779473.71452-3.50763.64956-3.83241-1.42903m2.33842-5.00162c1.429034-.32478 2.98798-1.55895 2.338419-3.18285 2.987981 1.29912 2.533288 3.76745 1.49399 4.61188-.844429.71452-3.572585.64956-3.832409-1.42903"/>
</svg>