<svg xmlns="http://www.w3.org/2000/svg" viewBox="0 0 472.738 291.168"><path fill="#a3a3a3" d="M1.384 149.543h129.729v25.773H1.384z"/><path d="M114.467 151.586h18.03v-3.885c0-.573-.466-1.038-1.038-1.038H120.72v-6.229c0-.573-.465-1.038-1.038-1.038H1.038c-.573 0-1.038.465-1.038 1.038v11.153h17.455a14.694 14.694 0 0 0-2.881 3.261H0v2.175h13.409c-.32.742-.578 1.516-.771 2.316H0v2.111h12.286a14.814 14.814 0 0 0 .011 2.854H0v2.22h12.699c.203.776.472 1.527.794 2.248H0v2.169h14.69a14.731 14.731 0 0 0 2.795 3.106H0v115.747l5.42 1.374h121.656l5.42-1.374V174.047h-18.059a14.731 14.731 0 0 0 2.795-3.106h15.265v-2.169H118.43c.322-.721.591-1.472.793-2.248h13.274v-2.22h-12.872c.05-.493.076-.994.076-1.499 0-.457-.024-.909-.065-1.355h12.861v-2.111h-13.212a14.568 14.568 0 0 0-.772-2.316h13.984v-2.175h-15.149a14.702 14.702 0 0 0-2.881-3.262z" fill="#bcbcbc"/><path d="M28.713 176.757c-7.707 0-13.953-6.247-13.953-13.952 0-7.707 6.247-13.954 13.953-13.954h74.495c7.706 0 13.954 6.247 13.954 13.954 0 7.706-6.247 13.952-13.954 13.952H28.713zM116.958 269.932a2.422 2.422 0 0 1-2.422 2.421H17.038a2.423 2.423 0 0 1-2.422-2.421v-86.025a2.423 2.423 0 0 1 2.422-2.422h97.499a2.422 2.422 0 0 1 2.422 2.422v86.025zM74.666 275.322c1.237 0 1.522 1.188.721 1.989-1.47 1.472-8.85 9.37-8.85 9.37s-.346.389-.75.389c-.431 0-.749-.389-.749-.389s-7.38-7.898-8.851-9.37c-.801-.8-.516-1.989.721-1.989h17.758zM5.42 291.168L0 289.794v-87.869h5.075c.191 0 .346.154.346.345v88.898zM127.077 291.168l5.42-1.374v-87.869h-5.074a.346.346 0 0 0-.346.345v88.898z" fill="#a3a3a3"/><g fill="#bcbcbc"><path d="M102.953 165.872v-2.621h-.979v-.351h2.355v.351h-.984v2.621h-.392zM105.031 165.872V162.9h.592l.703 2.104c.065.196.112.343.142.44.034-.108.087-.267.159-.476l.711-2.068h.529v2.972h-.379v-2.487l-.864 2.487h-.354l-.86-2.53v2.53h-.379z"/></g><g fill-rule="evenodd" clip-rule="evenodd" fill="#bcbcbc"><path d="M74.858 163.018c.112-.202.229-.401.337-.604.612-1.155 1.24-2.302 1.821-3.472.303-.532.133-.503.752-.446.395.036.387.008.4.411.028.933.068 1.865.101 2.798.015.396.024.793.038 1.19l.104 2.744c.003.074.001.148.001.234h-1.035l-.161-4.862a.876.876 0 0 1-.06-.015l-2.625 4.898-.064-.016-1.228-5.087-.056-.001c-.094.279-.189.558-.281.837-.453 1.375-.903 2.751-1.361 4.124-.018.053-.085.126-.132.127-.327.012-.653.006-1.007.006l.293-.911 1.553-4.795c.165-.511.329-1.023.488-1.535.033-.108.088-.147.201-.142.198.009.398.013.596-.001.147-.01.205.045.238.184.21.897.43 1.794.645 2.691.131.543.259 1.087.388 1.63l.054.013zM86.164 165.854l1.097-7.38c.108-.006.206-.017.302-.017.445-.002.889 0 1.334 0 .763-.001 1.485.535 1.639 1.282.138.667.06 1.314-.396 1.868-.059.07-.111.147-.175.234l.155.12c.508.386.793.888.819 1.536.048 1.235-.811 2.267-2.048 2.353-.878.063-1.765.026-2.646.031-.021 0-.043-.015-.081-.027zm1.933-.969l.002.018c.272-.019.551-.012.818-.061.57-.109 1.013-.662.988-1.197-.027-.601-.488-1.124-1.082-1.192-.316-.037-.64-.022-.959-.039-.122-.006-.165.046-.18.157-.041.313-.09.623-.134.935-.056.392-.105.784-.161 1.177-.02.145.017.218.183.206.174-.014.35-.004.525-.004zm.153-3.481c.653-.001 1.002-.199 1.231-.698.233-.504.029-1.238-.67-1.248-.151-.003-.303 0-.453-.017-.178-.021-.247.051-.268.225-.053.445-.123.887-.186 1.33-.058.408-.057.408.346.408zM97.642 161.199c-.03.895-.286 1.726-.614 2.544-.274.677-.677 1.257-1.26 1.692-.95.707-2.471.769-3.395-.065-.486-.438-.741-.999-.798-1.644-.077-.883.111-1.729.405-2.553.206-.578.425-1.15.806-1.644.506-.659 1.175-1.028 1.995-1.143.572-.08 1.117-.01 1.621.287.614.362.985.904 1.134 1.592.064.304.073.622.106.934zm-1.026-.145c-.027-.187-.041-.416-.097-.635a1.367 1.367 0 0 0-.735-.912c-.71-.358-1.732.008-2.201.643-.351.476-.568 1.016-.733 1.58-.189.643-.32 1.287-.235 1.963.091.723.622 1.281 1.438 1.279.668-.002 1.212-.312 1.59-.853.632-.904.921-1.927.973-3.065zM64.534 159.543c-.698-.17-1.382-.204-2.057-.07-1.064.211-2.011.641-2.563 1.647a3.13 3.13 0 0 0-.253 2.539c.147.466.453.805.887 1.014.675.327 1.361.327 2.045.009.128-.06.214-.141.225-.301.016-.244.052-.487.092-.728.025-.144-.035-.171-.159-.168-.291.005-.583.002-.911.002.035-.27.067-.52.101-.772.033-.246.034-.246.283-.246.58 0 1.158.003 1.738-.002.12-.001.171.029.153.159-.111.768-.215 1.535-.329 2.304a.467.467 0 0 1-.122.237c-.43.449-.984.636-1.581.711-.646.081-1.286.043-1.881-.244-.926-.447-1.493-1.175-1.639-2.205-.104-.74-.064-1.47.175-2.18.298-.888.879-1.553 1.651-2.068a4.694 4.694 0 0 1 2.122-.755 6.325 6.325 0 0 1 1.898.067c.273.051.277.046.239.323-.033.237-.073.472-.114.727zM83.839 165.871h-4.74c.35-2.46.699-4.903 1.047-7.357h3.847c-.05.309-.095.611-.155.91-.005.028-.104.054-.159.054-.777.003-1.555.009-2.333-.001-.189-.003-.264.045-.288.244-.065.562-.156 1.12-.237 1.68-.008.056 0 .114 0 .193h.217c.666 0 1.332.005 1.999-.003.153-.002.195.048.168.194-.052.274-.092.55-.14.843h-.199c-.672 0-1.345.003-2.017-.004-.149-.002-.22.037-.241.196a91.408 91.408 0 0 1-.272 1.869c-.024.155.025.201.183.201 1.087-.007 2.174-.003 3.262-.003h.204l-.146.984zM69.893 165.883c-.338 0-.664.003-.989-.005-.032-.001-.082-.072-.09-.114a83.903 83.903 0 0 1-.294-1.725c-.022-.145-.079-.196-.226-.195-.579.007-1.158.01-1.736-.002-.164-.003-.224.076-.28.202-.253.564-.513 1.125-.762 1.691-.042.097-.093.128-.195.127-.326-.005-.651-.002-.998-.002.193-.43.374-.839.56-1.247.465-1.019.933-2.036 1.397-3.055.445-.976.886-1.955 1.337-2.927.03-.065.134-.127.209-.133.215-.018.432.003.648-.01.135-.007.185.044.206.171.102.622.211 1.243.317 1.865l.725 4.26.164.967c.005.037.004.077.007.132zm-1.974-5.297l-.053-.006-1.017 2.225c.045.023.06.036.075.037l1.262.005c.112 0 .113-.062.097-.154-.078-.453-.15-.909-.227-1.363-.042-.247-.09-.495-.137-.744zM97.589 158.467c.294 0 .551.024.803-.005.312-.036.456.094.591.369.35.718.742 1.415 1.12 2.12.013.024.032.046.067.09.131-.172.255-.33.376-.492.496-.664.991-1.33 1.489-1.992.034-.045.098-.094.15-.096.384-.007.769-.005 1.206-.005-.135.189-.244.35-.361.505-.779 1.028-1.555 2.058-2.341 3.083-.173.227-.156.496-.196.749-.152.979-.291 1.96-.432 2.941-.019.136-.067.2-.223.191-.284-.017-.568-.005-.879-.005l.135-.918c.135-.924.271-1.846.397-2.771a.507.507 0 0 0-.071-.278c-.578-1.099-1.161-2.197-1.742-3.295-.024-.048-.045-.096-.089-.191z"/></g><g fill="#bcbcbc"><path d="M28.528 164.496a.272.272 0 0 1-.081-.094c-.616-.995-1.231-1.991-1.845-2.987-.037-.061-.074-.085-.147-.085-.404.005-.809.002-1.214.002l-.101.005v4.564h1.398v-3.154l.024-.007.061.094c.618.994 1.236 1.989 1.851 2.984.042.068.086.092.165.092.394-.005.789-.003 1.184-.003h.102v-4.567h-1.398l.001 3.156zM51.044 163.021c-.255-.139-.501-.251-.78-.271-.275-.02-.537.02-.786.138-.252.12-.459.292-.627.514-.414.549-.465 1.299-.073 1.845.594.829 1.374.927 2.262.5.004.053.008.103.01.151h1.343v-4.562h-1.349v1.685zm-.001 2.01c-.011.295-.254.493-.545.483a.516.516 0 0 1-.523-.51c-.009-.213-.002-.427-.002-.641h-.001c0-.197-.005-.394.001-.593.009-.322.211-.526.523-.537.305-.009.537.181.549.496.017.434.016.869-.002 1.302zM36.49 163.2c-.568-.584-1.531-.624-2.162-.092l-.101.079v-.308h-1.345v3.024h1.34c.002-.044.006-.085.006-.128 0-.595-.004-1.191 0-1.786 0-.096.015-.201.055-.286.125-.271.464-.414.769-.338.29.07.471.309.471.623v1.912h1.349c.003-.017.006-.026.006-.036 0-.562.007-1.125-.002-1.688-.007-.37-.122-.704-.386-.976zM48.052 164.038a1.251 1.251 0 0 0-.458-.92 1.608 1.608 0 0 0-2.076-.01l-.102.085v-.318h-1.349v3.023h1.35v-.135l-.002-1.807c0-.126.034-.239.109-.341a.691.691 0 0 1 .767-.237c.273.092.42.307.42.621l.001 1.777c0 .041.004.082.007.123h1.338c.004-.02.009-.034.009-.046-.003-.605.008-1.211-.014-1.815zM56.293 163.173c-.79-.687-2.096-.677-2.886.02-.725.64-.737 1.675-.023 2.327a2.11 2.11 0 0 0 1.444.551c.551-.003 1.021-.148 1.425-.474.805-.653.821-1.745.04-2.424zm-.872 1.191h-.01c0 .26.012.52-.003.779-.019.346-.267.567-.593.554-.256-.01-.466-.208-.514-.489a1.343 1.343 0 0 1-.02-.236c-.001-.405-.001-.808.002-1.213.001-.085.007-.172.025-.254.062-.3.295-.491.566-.476.289.016.505.237.537.547.004.046.01.092.01.138v.65zM43.16 163.299a2.098 2.098 0 0 0-1.375-.611c-.621-.044-1.18.116-1.652.532-.315.277-.511.625-.54 1.051-.038.553.184.999.609 1.335.634.501 1.353.602 2.115.372.531-.16.945-.481 1.185-.997.019-.04.03-.082.045-.123h-1.34c-.01.125-.012.243-.029.359-.04.287-.258.491-.525.5-.292.011-.537-.158-.58-.452-.041-.281-.031-.569-.043-.868h2.6c0-.049.003-.085-.001-.12a1.576 1.576 0 0 0-.469-.978zm-1.311.634c-.234 0-.467-.003-.701.002-.089.002-.117-.028-.107-.113.013-.107.007-.218.028-.324a.56.56 0 0 1 1.106.018c.021.132.021.266.032.416l-.358.001zM39.75 162.42h-.737v-.61h-1.375v.611h-.114c-.182.001-.363-.001-.543.004-.029.001-.081.031-.082.05-.007.127-.004.255-.004.393h.749v3.033h1.373v-3.036h.733v-.445zM30.74 165.902h1.357v-3.025H30.74v3.025zM32.097 161.339h-1.363v.911h1.363v-.911z"/></g><g><path d="M392.556 0v77.536c0 5.106-12.289 9.586-30.765 12.108-1.612.22-3.27.425-4.972.614-2.796.311-5.708.58-8.719.801-6.576.485-13.62.748-20.946.748-7.33 0-14.378-.263-20.957-.748-25.842-1.906-44.445-7.241-44.445-13.523V0" fill="#bcbdbb"/><path d="M386.867 83.367V70.649c0-2.264-2.238-4.185-4.551-4.762-.758-.189-1.542-.14-2.307.013-4.927.983-11.115 1.823-18.218 2.47-1.612.147-3.27.284-4.972.41-2.796.208-5.708.387-8.719.535-6.576.324-13.62.499-20.946.499s-14.37-.175-20.946-.499c-3.01-.148-5.923-.327-8.719-.535-1.702-.126-3.36-.263-4.972-.41-7.103-.647-13.291-1.487-18.218-2.47-.766-.153-1.55-.202-2.307-.013-2.312.577-4.551 2.498-4.551 4.762v12.717c7.402 3.605 21.457 6.417 38.756 7.693a286.49 286.49 0 0 0 20.957.748c7.326 0 14.37-.263 20.946-.748 3.01-.222 5.923-.49 8.719-.801 1.702-.189 3.36-.394 4.972-.614 10.961-1.496 19.745-3.681 25.076-6.277z" fill="#2c2e32"/><g fill="#1e2022"><path d="M356.819 68.78c1.702-.126 3.36-.263 4.972-.41v21.275c-1.612.22-3.27.425-4.972.614V68.78zM297.489 68.78c-1.702-.126-3.36-.263-4.972-.41v21.275c1.612.22 3.27.425 4.972.614V68.78z"/></g><g fill="#a3a3a2"><path d="M356.819 68.773c1.702-.126 3.36-.263 4.972-.41V0h-4.972v68.773zM297.489 68.773c-1.702-.126-3.36-.263-4.972-.41V0h4.972v68.773z"/></g><path d="M472.528 10.67c.116-.042.21-.128.21-.251V3.351a3.36 3.36 0 0 0-3.35-3.35h-76.764v77.536c0 5.106-12.289 9.586-30.765 12.108-1.612.22-3.27.425-4.972.614-2.796.311-5.708.58-8.719.801-6.576.485-13.62.748-20.946.748-7.33 0-14.378-.263-20.957-.748-25.842-1.906-44.445-7.241-44.445-13.523V0h-76.899a3.36 3.36 0 0 0-3.35 3.35v7.068c0 .124.094.209.21.251.476.174.836.925.836 1.818v.931c0 .893-.36 1.644-.836 1.818-.116.042-.21.128-.21.251v4.445c0 .124.094.209.21.251.476.174.836.925.836 1.818v.931c0 .893-.36 1.644-.836 1.818-.116.042-.21.128-.21.251v4.658c.575 0 1.046.835 1.046 1.856v.931c0 1.021-.471 1.856-1.046 1.856v4.658c0 .124.094.209.21.251.476.174.836.925.836 1.818v.931c0 .893-.36 1.644-.836 1.818-.116.042-.21.128-.21.251v4.445c0 .124.094.209.21.251.476.174.836.925.836 1.818v.931c0 .893-.36 1.644-.836 1.818-.116.042-.21.128-.21.251v234.271a3.36 3.36 0 0 0 3.35 3.351h284.467a3.36 3.36 0 0 0 3.35-3.351V53.546c0-.124-.094-.209-.21-.251-.475-.174-.836-.925-.836-1.818v-.931c0-.893.36-1.644.836-1.818.116-.042.21-.128.21-.251v-4.445c0-.124-.094-.209-.21-.251-.475-.174-.836-.925-.836-1.818v-.931c0-.893.36-1.644.836-1.818.116-.042.21-.128.21-.251v-4.658c-.575 0-1.046-.835-1.046-1.856v-.931c0-1.021.471-1.856 1.046-1.856v-4.658c0-.124-.094-.209-.21-.251-.475-.174-.836-.925-.836-1.818v-.931c0-.893.36-1.644.836-1.818.116-.042.21-.128.21-.251V15.49c0-.124-.094-.209-.21-.251-.475-.174-.836-.925-.836-1.818v-.931c0-.895.36-1.646.836-1.82z" fill="#b0b0ad"/><path d="M327.154 190.119c74.199 0 131.978 2.235 134.35 4.471h-268.7c2.372-2.236 60.151-4.471 134.35-4.471z" fill="#969791"/><g fill="#979794"><path d="M181.57 15.275c.324 0 .59-.835.59-1.856v-.931c0-1.021-.265-1.856-.59-1.856h7.181c.576 0 1.047.835 1.047 1.856v.931c0 1.021-.471 1.856-1.047 1.856h-7.181zM181.57 24.789c.324 0 .59-.835.59-1.856v-.931c0-1.021-.265-1.856-.59-1.856h7.181c.576 0 1.047.835 1.047 1.856v.931c0 1.021-.471 1.856-1.047 1.856h-7.181zM181.57 34.304c.324 0 .59-.835.59-1.856v-.931c0-1.021-.265-1.856-.59-1.856h7.181c.576 0 1.047.835 1.047 1.856v.931c0 1.021-.471 1.856-1.047 1.856h-7.181zM181.57 43.819c.324 0 .59-.835.59-1.856v-.931c0-1.021-.265-1.856-.59-1.856h7.181c.576 0 1.047.835 1.047 1.856v.931c0 1.021-.471 1.856-1.047 1.856h-7.181zM181.57 53.333c.324 0 .59-.835.59-1.856v-.931c0-1.021-.265-1.856-.59-1.856h7.181c.576 0 1.047.835 1.047 1.856v.931c0 1.021-.471 1.856-1.047 1.856h-7.181z"/><g><path d="M472.738 15.275c-.324 0-.59-.835-.59-1.856v-.931c0-1.021.266-1.856.59-1.856h-7.181c-.576 0-1.047.835-1.047 1.856v.931c0 1.021.471 1.856 1.047 1.856h7.181zM472.738 24.789c-.324 0-.59-.835-.59-1.856v-.931c0-1.021.266-1.856.59-1.856h-7.181c-.576 0-1.047.835-1.047 1.856v.931c0 1.021.471 1.856 1.047 1.856h7.181zM472.738 34.304c-.324 0-.59-.835-.59-1.856v-.931c0-1.021.266-1.856.59-1.856h-7.181c-.576 0-1.047.835-1.047 1.856v.931c0 1.021.471 1.856 1.047 1.856h7.181zM472.738 43.819c-.324 0-.59-.835-.59-1.856v-.931c0-1.021.266-1.856.59-1.856h-7.181c-.576 0-1.047.835-1.047 1.856v.931c0 1.021.471 1.856 1.047 1.856h7.181zM472.738 53.333c-.324 0-.59-.835-.59-1.856v-.931c0-1.021.266-1.856.59-1.856h-7.181c-.576 0-1.047.835-1.047 1.856v.931c0 1.021.471 1.856 1.047 1.856h7.181z"/></g></g><linearGradient id="a" gradientUnits="userSpaceOnUse" x1="327.154" y1="263.975" x2="327.154" y2="213.217"><stop offset="0" stop-color="#b1b1ae"/><stop offset=".013" stop-color="#b0b0ad"/><stop offset=".443" stop-color="#a1a29c"/><stop offset=".761" stop-color="#9c9d96"/><stop offset=".796" stop-color="#9c9d96"/><stop offset="1" stop-color="#9c9d96"/></linearGradient><path fill="url(#a)" d="M298.009 213.217H356.3v50.757h-58.291z"/><path d="M405.915 291.168l-.833-73.025c0-2.709-2.301-4.925-5.112-4.925H254.34c-2.812 0-5.112 2.216-5.112 4.925l-.833 73.025v-74.743c0-2.773 2.325-5.041 5.167-5.041h147.187c2.842 0 5.167 2.269 5.167 5.041v74.743z" fill="#72736d"/><g fill="#91928c"><path d="M299.728 213.217h-1.72v41.153c1.002-14.047 1.873-25.219 1.72-41.153zM354.58 213.217h1.72v41.153c-1.002-14.047-1.873-25.219-1.72-41.153z"/></g><g fill-rule="evenodd" clip-rule="evenodd" fill="#9e9f9b"><path d="M349.368 110.765H304.94c-4.701-.011-7.86 3.406-7.86 7.503 0 4.096 3.151 7.474 7.867 7.475h44.414c4.716-.001 7.868-3.379 7.868-7.475-.001-4.096-3.159-7.513-7.861-7.503zm-.022 13.142h-44.384c-3.748.014-6.026-2.529-6.026-5.649s2.292-5.643 6.026-5.65h44.384c3.735.007 6.027 2.53 6.027 5.65-.001 3.119-2.279 5.663-6.027 5.649z"/><path d="M308.227 119.633l-3.007-4.917h-2.173l-.001 7.053h2.16v-4.918l3.023 4.918h2.152v-7.053h-2.156zM325.341 117.087v-.696h-1.136v-.949h-2.1l.002.95h-1.141v.695h1.14l-.001 4.682h2.101l-.001-4.682zM311.582 117.079h2.098v4.69h-2.098zM311.578 114.715h2.102v1.442h-2.102zM348.341 116.759c-1.693 0-3.065 1.179-3.065 2.634 0 1.453 1.372 2.632 3.065 2.632 1.694 0 3.066-1.179 3.066-2.632 0-1.455-1.372-2.634-3.066-2.634zm.841 3.62c0 .747-.436 1.056-.857 1.056-.42 0-.859-.309-.859-1.056l.002-1.011.001-.978c0-.744.438-1.05.856-1.05s.857.306.857 1.05l.001.998c.001.005-.001.707-.001.991zM342.523 117.311c-.336-.19-.689-.374-1.187-.418-1.511-.134-2.667 1.217-2.667 2.455a2.503 2.503 0 0 0 1.435 2.325 2.5 2.5 0 0 0 2.415-.176l.001.27h2.074v-7.051h-2.071v2.595zm.015 2.089v.832c0 .725-.495.914-.822.914-.334 0-.823-.189-.823-.914l.001-.833-.001-.837c0-.725.489-.909.823-.909.327 0 .822.184.822.909v.838zM318.591 116.863c-.693.02-1.271.32-1.673.707-.002-.115 0-.493 0-.493l-2.084.002.002 4.689h2.083l-.002-3.08c0-.409.425-.863.997-.863.571 0 .958.454.958.863v3.08h2.084s-.002-2.222.001-2.55c.009-1.859-1.583-2.378-2.366-2.355zM335.638 116.863c-.694.02-1.271.32-1.673.707-.003-.115 0-.493 0-.493l-2.081.002-.002 4.689h2.082l-.003-3.08c0-.409.426-.863.997-.863s.958.454.958.863v3.08H338s-.001-2.222.002-2.55c.011-1.859-1.581-2.378-2.364-2.355zM331.247 119.444c0-1.455-1.388-2.66-3.094-2.66-1.705 0-3.089 1.179-3.089 2.632 0 1.455 1.384 2.634 3.089 2.634 1.415 0 2.61-.817 2.976-1.925l-2.091.002s.002.021.002.284c0 .858-.558 1.049-.867 1.049-.311 0-.878-.191-.878-1.049l.003-.968h3.949zm-3.814-1.651a.856.856 0 0 1 .738-.427h-.001 0a.851.851 0 0 1 .737.427c.134.236.141.51.138.92h-1.751c-.003-.41.006-.684.139-.92zM352.478 115.245c0-.316-.186-.456-.561-.456h-.606v1.606h.241v-.696h.276l.42.696h.268l-.451-.707c.234-.031.413-.156.413-.443zm-.926.247v-.497h.329c.166 0 .345.037.345.236 0 .247-.181.261-.385.261h-.289z"/><path d="M351.843 114.199c-.757 0-1.399.59-1.399 1.388 0 .807.642 1.396 1.399 1.396.751 0 1.391-.589 1.391-1.396a1.38 1.38 0 0 0-1.391-1.388zm0 2.552c-.629 0-1.121-.493-1.121-1.164 0-.658.492-1.156 1.121-1.156.624 0 1.114.498 1.114 1.156 0 .671-.49 1.164-1.114 1.164z"/></g><circle cx="456.553" cy="88.286" r="6.52" fill="#2b2726"/><path fill="#544237" d="M460.413 89.652l-.747-4.026-3.86-1.367-3.114 2.66.747 4.027 3.861 1.366z"/><path fill="#90804f" d="M460.027 89.515l-.672-3.623-3.475-1.23-2.802 2.394.673 3.624 3.474 1.229z"/><circle cx="456.553" cy="275.119" r="6.52" fill="#2b2726"/><path fill="#544237" d="M460.413 276.485l-.747-4.026-3.86-1.366-3.114 2.66.747 4.026 3.861 1.366z"/><path fill="#90804f" d="M460.027 276.349l-.672-3.624-3.475-1.229-2.802 2.394.673 3.623 3.474 1.23z"/><g><circle cx="197.756" cy="88.296" r="6.52" fill="#2b2726"/><path fill="#544237" d="M193.896 89.662l.747-4.026 3.86-1.366 3.113 2.66-.747 4.026-3.86 1.366z"/><path fill="#90804f" d="M194.282 89.525l.672-3.623 3.474-1.23 2.802 2.394-.672 3.624-3.474 1.229z"/></g><g><circle cx="197.756" cy="275.129" r="6.52" fill="#2b2726"/><path fill="#544237" d="M193.896 276.496l.747-4.027 3.86-1.366 3.113 2.66-.747 4.026-3.86 1.367z"/><path fill="#90804f" d="M194.282 276.359l.672-3.624 3.474-1.229 2.802 2.394-.672 3.623-3.474 1.23z"/></g><g><g fill="none" stroke="#8f8f8e" stroke-width="1.607" stroke-miterlimit="10"><path d="M428.23 0v291.168M226.078 0v291.168"/></g></g><g fill="#585954"><path d="M226.846 194.59h-1.536v-2.781l1.536-.062v2.843zM427.462 194.59h1.536v-2.781l-1.536-.062v2.843z"/></g><path d="M327.154 182.677h64.429c3.627 0 6.595-2.968 6.595-6.595v-24.873c0-1.794-.828-3.53-2.322-4.524-8.403-5.589-37.287-8.307-64.97-9.54a83.715 83.715 0 0 0-7.465 0c-27.683 1.233-56.567 3.951-64.97 9.54-1.494.994-2.322 2.73-2.322 4.524v24.873c0 3.627 2.968 6.595 6.595 6.595h64.43z" fill="#b5b7b4" stroke="#989898" stroke-width=".381" stroke-miterlimit="10"/><path d="M261.718 77.536c0 11.61 29.546 22.801 65.597 22.801s65.207-11.19 65.207-22.801h.068c0 5.106-12.289 9.586-30.765 12.108-1.612.22-3.27.425-4.972.614-2.796.311-5.708.58-8.719.801-6.576.485-13.62.748-20.946.748-7.33 0-14.378-.263-20.957-.748-25.842-1.906-44.445-7.241-44.445-13.523" fill="#b7b6b6"/><g><g fill="#2a2c2b"><path d="M332.402 160.847h3.212l1.587 3.648 2.378-3.648h3.292l-4.639 7.216-.754 5.63h-2.974l.872-6.423-2.974-6.423zm-23.632 12.846l.397-2.855h-4.52l.277-2.22h3.925l.397-2.855h-3.885l.277-2.062h4.52l.436-2.854H303.1l-1.785 12.846h7.455zm-26.685-6.344l.991-2.656.317 2.656h-1.308zm-1.071 2.537h2.696l.476 3.807h4.877l2.26-6.978 1.11 6.978h2.577l2.855-7.374.476 7.374h2.855l-.793-12.847h-3.41l-2.656 6.78-1.031-6.78h-3.053l-3.489 10.547-1.309-10.547h-3.807l-4.242 10.666.555-4.164h-5.155l-.357 2.538h2.26l-.158.873c-.397.238-1.308.278-1.665.278s-3.013-.238-2.894-3.093c.119-2.855 3.925-5.511 8.446-4.044l.436-2.736c-3.014-1.031-10.928-.454-11.737 6.621-.475 4.164 3.331 6.146 5.868 6.107 1.467.079 3.132-.476 3.727-.793l-.198.594h3.014l1.466-3.807z"/><path d="M329.191 160.727c-2.062-.079-5.036 1.11-6.027 5.908-.992 4.798 1.665 6.74 4.123 7.058 2.459.317 5.908-1.229 6.543-5.828.634-4.6-1.626-7.018-4.639-7.138zm-.318 2.736c.833 0 2.617.555 2.181 3.885-.436 3.331-2.498 3.727-3.251 3.649-.754-.079-2.3-.594-1.864-3.649.436-3.052 2.062-3.924 2.934-3.885z"/><path d="M316.661 165.763h1.664c1.229 0 1.468-.793 1.507-1.11s-.317-.952-.951-.952h-1.943l-.277 2.062zm-.714 5.075h2.26c1.229 0 1.507-.951 1.547-1.269.04-.316-.317-.951-.951-.951h-2.538l-.318 2.22zm-3.331 2.855l1.784-12.847h5.472c1.308 0 3.212 1.507 2.974 3.529-.237 2.022-.872 2.141-1.308 2.458.674.595 1.348 1.546 1.071 3.331-.278 1.784-1.745 3.529-4.323 3.529h-5.67z"/></g><path d="M277.41 152.08c1.829.503 3.666.975 5.474 1.553.515.165 1.037.316 1.494.625.342.232.647.494.81.887.305.597.327 1.215.109 1.839-.108.311-.339.529-.629.684-.555.298-1.153.479-1.76.631-1.602.401-3.234.63-4.869.839a121.67 121.67 0 0 1-4.345.475c-1.153.106-2.305.217-3.461.299-.766.054-1.533.115-2.299.186-.153.014-.288-.003-.398-.12-.409-.352-.57-1.19-.319-1.671a.601.601 0 0 1 .407-.333 3.243 3.243 0 0 1 1.32-.015c.144.027.266.1.308.236.047.152.135.158.264.148 4.088-.308 8.163-.719 12.191-1.51.79-.155 1.573-.34 2.334-.605.141-.049.379-.104.394-.216.048-.239-.214-.378-.43-.462-.812-.313-1.643-.569-2.475-.82a100.083 100.083 0 0 0-3.948-1.113 1.894 1.894 0 0 1-.907-.523c-.516-.609-.684-1.338-.703-2.112-.006-.266.181-.446.369-.607.249-.213.541-.36.834-.504 1.353-.663 2.772-1.135 4.236-1.489 1.664-.402 3.339-.731 5.053-.813.918-.044 1.822.055 2.721.242.587.122 1.076.361 1.325.947.227.395.306.823.293 1.274-.014.507-.206.929-.603 1.249a7.017 7.017 0 0 1-2.129 1.157c-.143.05-.253.077-.441.001-.192-.084-.284-.231-.331-.447-.018-.083-.025-.16-.034-.241-.069-.642.065-1.027.8-1.155.524-.092 1.017-.304 1.487-.558.087-.047.226-.129.23-.18.041-.194-.167-.346-.366-.429-.5-.208-1.031-.269-1.558-.349-.944-.144-1.877-.011-2.808.125-2.003.293-3.962.764-5.856 1.487-.643.245-1.274.518-1.885.837-.04.021-.081.041-.119.066-.077.05-.155.106-.151.21.006.116.112.191.371.275zM312.563 152.921c-.271-.711-.766-.98-1.514-.814-2.127.47-4.118 1.283-6.005 2.359-.531.288-1.162.644-1.558.917.381-.352.77-.848 1.202-1.305.489-.518.97-1.044 1.457-1.564.056-.06.112-.12.1-.212-.177-.307-.402-.577-.625-.85-.132-.162-.276-.2-.476-.123-.415.16-.803.372-1.187.591-1.656.945-3.248 1.995-4.88 2.98-1.004.606-1.991 1.245-3.076 1.705-.156.049-.43.122-.511.004-.077-.114.052-.234.12-.333.554-.815 1.208-1.549 1.872-2.275.488-.533.997-1.043 1.505-1.556.051-.051.104-.101.118-.177-.198-.29-.407-.574-.592-.872-.118-.19-.19-.232-.394-.067-3.05 2.452-6.319 4.543-9.978 5.983-.46.152-.601.127-.658.023-.049-.09.028-.152.084-.208.543-.544 1.063-1.112 1.636-1.623a60.719 60.719 0 0 1 3.825-3.112c.101-.076.209-.145.248-.277-.226-.326-.458-.649-.676-.98-.085-.129-.146-.142-.27-.042-.471.382-.957.746-1.427 1.129-1.412 1.15-2.807 2.319-3.998 3.707-.313.365-.598.749-.808 1.186-.147.306-.169.597.008.903.145.251.29.5.486.715.264.307.611.326.97.264.276-.047.545-.129.808-.232 1.529-.597 2.98-1.353 4.406-2.16.49-.277.977-.562 1.476-.865-.081.296-.159.498-.277.808-.053.22-.083.438.021.653.091.187.242.329.362.494.259.313.591.423.989.369.29-.039.564-.128.831-.241a52.195 52.195 0 0 0 5.91-2.964c-.329.305-3.801 4.351-5.01 6.039-.377.527-.421.759-.076 1.106.508.434.722.493 1.015.165.722-.811 1.441-1.622 2.244-2.359a58.45 58.45 0 0 1 2.019-1.774c.192-.161.332-.178.541-.022.654.488 1.4.704 2.216.685.85-.02 1.641-.27 2.4-.629 1.813-.857 3.317-2.125 4.7-3.551.197-.203.36-.437.442-.71.09-.295.151-.596-.015-.888zm-1.964 1.227c-1.194 1.144-2.472 2.173-4.011 2.823-.742.313-1.51.503-2.322.274a2.092 2.092 0 0 1-.472-.202c-.148-.082-.123-.136.002-.222 2.227-1.543 4.61-2.752 7.256-3.4a1.45 1.45 0 0 1 .16-.029c.014-.002.064-.007.064.022-.191.283-.438.506-.677.734zM343.309 157.313c-.128-.349-.265-.511-.6-.61-1.26-.37-2.554-.509-3.856-.563-3.427-.143-6.832.118-10.222.614a4.82 4.82 0 0 1-.244.028c-.241.022-.231-.098-.155-.283.236-.577.491-1.146.73-1.721.184-.441.265-.884-.012-1.323a3.302 3.302 0 0 0-.626-.806 5.804 5.804 0 0 1-.783-.956 10.048 10.048 0 0 1-.071-.122c-.129-.223-.139-.42-.037-.672.152-.373.192-.77.047-1.164-.13-.216-.24-.444-.44-.613-.436-.367-1.027-.439-1.434-.167-.384.257-.486.745-.289 1.323.114.332.317.606.527.878.089.115.103.195-.028.309-2.051 1.785-4.195 3.442-6.573 4.775-1.44.807-2.928 1.503-4.565 1.814-.522.099-1.054.186-1.575-.026-.379-.371-.316-.466-.122-.881.134-.287.354-.523.561-.762a.364.364 0 0 1 .391-.109c.283.096.577.14.877.138 1.234-.006 2.362-.399 3.44-.961 1.095-.57 2.094-1.285 3.044-2.071.497-.411.583-.811.269-1.375-.378-.719-.87-.979-1.683-.907a5.084 5.084 0 0 0-1.368.324c-1.908.728-3.595 1.812-5.105 3.179-.559.506-1.062 1.062-1.446 1.717a3.035 3.035 0 0 0-.406 1.113c-.082.579.157 1.038.526 1.452.251.268.583.348.926.405.377.063.753.027 1.133.015.828-.026 1.61-.232 2.379-.505 1.624-.578 3.099-1.444 4.522-2.4 1.836-1.233 3.559-2.612 5.21-4.083.148-.132.252-.18.422.007.066.073.117.138.181.213.207.263.396.543.626.785.279.293.287.598.145.945a23.584 23.584 0 0 1-.988 2.082c-.335.631-.361 1.199.176 1.726.044.044.08.097.12.145.156.211.369.23.607.191a97.085 97.085 0 0 1 3.949-.55 51.96 51.96 0 0 1 4.729-.338c1.347-.038 2.689.103 4.029.236.325.032.599.057.664.442.025.261.429.215.463.215.591-.003 1.183 0 1.768-.109a.153.153 0 0 0 .121-.116c.064-.287.129-.548.046-.878zm-28.05-2.749c1.303-.988 2.689-1.825 4.28-2.269.199-.056.405-.087.61-.121a.51.51 0 0 1 .319.034c.17.083.173.271.027.391-.057.046-.113.094-.169.141-1.046.774-2.107 1.527-3.302 2.063-.544.244-1.098.463-1.705.497-.267.03-.534.044-.842-.062.279-.244.519-.475.782-.674z" fill="#2a2c2b"/><g fill="#2a2c2b"><path d="M340.829 170.939a1.385 1.385 0 1 0 0 2.77 1.383 1.383 0 0 0 1.381-1.385v-.004c0-.762-.619-1.381-1.381-1.381v-.191c.869 0 1.57.706 1.57 1.572a1.572 1.572 0 0 1-1.565 1.579h-.005a1.576 1.576 0 1 1 0-3.152v.192z"/><path d="M340.344 171.6h.503c.219 0 .457.033.457.306 0 .359-.383.317-.63.317h-.331v.169h.397l.503.812h.255l-.532-.812c.314-.008.557-.136.557-.483 0-.149-.066-.305-.198-.379-.131-.078-.279-.087-.428-.087h-.766v1.76h.214l-.001-1.603z"/></g><g><circle cx="371.772" cy="161.5" r="15.44" fill="none" stroke="#2a2c2b" stroke-width=".381" stroke-miterlimit="10"/><circle cx="371.772" cy="161.5" r="11.557" fill="#2a2c2b"/><g fill="#b5b7b4"><ellipse cx="366.312" cy="162.838" rx="4.745" ry="2.029"/><path d="M378.237 166.674c0 1.121-2.125 2.029-4.745 2.029-2.621 0-4.745-.909-4.745-2.029 0-1.121 2.125-2.029 4.745-2.029s4.745.908 4.745 2.029zM378.699 165.563c-.398-2.396-2.25-5.14-4.952-4.189 2.48-4.835 6.457-3.764 7.739-1.969 1 1.398.662 5.92-2.787 6.158z"/><path d="M371.43 161.727c-.403-2.321-2.261-4.983-4.96-4.067 2.469-4.677 6.447-3.631 7.734-1.89 1.002 1.356.673 5.734-2.774 5.957z"/></g><g fill="#2a2c2b"><path d="M360.638 153.58a.751.751 0 0 0-.108.26c-.014.08.016.142.087.185.055.033.11.03.166-.009a.57.57 0 0 0 .15-.164 10.758 10.758 0 0 1 .404-.599l.046-.061c.046-.059.098-.114.152-.162a.498.498 0 0 1 .178-.104.323.323 0 0 1 .164-.014c.053.01.1.028.143.055.013.008.026.015.038.024a.81.81 0 0 1 .036.026c.145.12.203.257.176.404-.028.147-.107.311-.239.499-.274.394-.404.6-.646 1.032l-.255-.143c.233-.417.358-.616.62-.998a.812.812 0 0 0 .122-.237c.023-.076-.007-.135-.089-.178-.063-.034-.121-.031-.17.01a.87.87 0 0 0-.152.167c-.128.184-.191.278-.313.47-.125.202-.249.347-.379.435-.13.089-.275.092-.431.002-.163-.094-.24-.229-.223-.399.017-.17.095-.371.237-.595.291-.46.445-.68.77-1.098l.23.181c-.299.386-.443.588-.714 1.011zM362.48 152.299c.103.094.201.14.293.14.093 0 .204-.07.338-.207.133-.136.2-.247.197-.339-.002-.093-.05-.189-.144-.289l-.673-.72c.142-.134.215-.2.361-.327l.651.75.039.044a.842.842 0 0 1 .126.192.41.41 0 0 1 .035.178.576.576 0 0 1-.075.269 1.428 1.428 0 0 1-.173.25c-.025.031-.052.061-.079.091l-.08.085c-.025.026-.053.052-.081.079-.028.027-.059.053-.088.08a1.63 1.63 0 0 1-.251.186.602.602 0 0 1-.275.086.398.398 0 0 1-.179-.032.686.686 0 0 1-.147-.089.625.625 0 0 1-.046-.035l-.043-.037-.758-.644c.128-.153.193-.227.326-.374l.726.663zM364.046 149.63c.003 0 .005-.001.008-.003l.006-.004.099-.068a1.88 1.88 0 0 1 .293-.159.812.812 0 0 1 .195-.057.454.454 0 0 1 .301.045c.082.048.145.11.193.186a.473.473 0 0 1 .009.493.787.787 0 0 1-.16.196 3.042 3.042 0 0 1-.207.164l-.058.039-.058.039c-.176.12-.263.182-.434.31l.345.459c-.135.101-.201.154-.333.26l-1.033-1.277c.325-.263.492-.388.834-.623zm.161.245c-.178.123-.266.186-.44.317l.291.387a9.1 9.1 0 0 1 .446-.32.794.794 0 0 0 .208-.198c.049-.071.046-.147-.003-.226-.054-.088-.125-.124-.217-.098a.992.992 0 0 0-.283.14l-.002-.002zM365.801 149.044a.379.379 0 0 0 .005.314c.44-.227.665-.329 1.122-.51l.106.265c-.448.177-.669.277-1.101.498.027.052.06.097.098.138.039.039.09.068.154.086a.296.296 0 0 0 .172.001c.057-.017.113-.038.169-.064l.012-.005.012-.005c.251-.117.378-.172.634-.274l.106.265a9.394 9.394 0 0 0-.637.274c-.101.047-.2.086-.3.117a.768.768 0 0 1-.314.031.644.644 0 0 1-.339-.128.917.917 0 0 1-.263-.313c-.01-.02-.021-.04-.03-.061-.109-.236-.122-.448-.033-.635.09-.187.288-.36.594-.501.283-.132.425-.194.714-.309l.106.265c-.279.11-.417.169-.691.296-.154.072-.252.159-.296.255zM368.157 147.742c.023-.005.044-.009.065-.015.021-.006.043-.01.065-.014.082-.016.165-.028.248-.03a.522.522 0 0 1 .228.044.377.377 0 0 1 .149.111.457.457 0 0 1 .091.182l.008.031a.446.446 0 0 1-.037.31.539.539 0 0 1-.272.231c.264.218.391.33.634.56-.18.036-.27.055-.449.098a10.788 10.788 0 0 0-.587-.514c-.196.054-.293.083-.487.145l.2.612c-.156.05-.233.076-.387.132l-.562-1.542c.431-.155.651-.223 1.093-.341zm-.027.311c-.215.059-.322.091-.535.159l.128.393c.206-.066.31-.097.518-.154l.012-.001.011-.003a.995.995 0 0 0 .239-.097c.069-.04.09-.106.067-.197-.024-.093-.077-.142-.163-.141a1.09 1.09 0 0 0-.276.042l-.001-.001zM370.668 147.529c.121-.146.411-.238.864-.242.282-.004.423-.002.705.009l-.012.285a11.068 11.068 0 0 0-.729-.01c-.189.005-.328.042-.413.105-.085.063-.129.169-.13.315.502-.028.753-.031 1.255-.011l-.012.283c-.491-.02-.737-.019-1.228.008l.038.67a11.02 11.02 0 0 0-.405.029l-.068-.751c-.029-.313.014-.544.135-.69zM373.659 147.429c.274.703.388 1.059.568 1.77a9.673 9.673 0 0 0-.444-.088 12.736 12.736 0 0 0-.111-.415 10.443 10.443 0 0 0-.861-.11c-.085.149-.127.224-.208.374a12.224 12.224 0 0 0-.427-.026c.354-.641.554-.956.997-1.567.194.021.292.034.486.062zm-.682.879c.242.025.363.04.604.077-.084-.268-.13-.401-.227-.667-.156.234-.232.352-.377.59zM375.394 147.801c.077.545.105.818.139 1.359.355-.413.541-.615.933-1.006.256.097.383.148.634.258l-.664 1.501a8.584 8.584 0 0 0-.372-.155c.203-.469.305-.704.51-1.172-.398.391-.587.594-.947 1.009a8.627 8.627 0 0 0-.412-.136 14.376 14.376 0 0 0-.16-1.389c-.116.503-.176.755-.295 1.257a9.478 9.478 0 0 0-.403-.1l.374-1.597c.268.063.4.097.663.171zM376.806 150.084l.715-1.478c.177.085.266.129.44.221l-.769 1.451a8.185 8.185 0 0 0-.386-.194zM378.55 149.678a.772.772 0 0 0-.287.266l-.039.063a.56.56 0 0 0-.088.22.343.343 0 0 0 .1.314c.044.04.092.078.145.113l.011.007.011.007c.234.156.349.237.575.408l-.173.228a9.612 9.612 0 0 0-.577-.412 2.417 2.417 0 0 1-.259-.198.779.779 0 0 1-.192-.253.634.634 0 0 1-.067-.355.938.938 0 0 1 .131-.387l.037-.058c.146-.215.321-.337.527-.357s.46.061.744.251c.264.175.393.267.648.46l-.17.224a10.788 10.788 0 0 0-.625-.447c-.187-.121-.34-.151-.452-.094zM379.727 150.523a.686.686 0 0 1 .37-.079c.13.01.274.059.427.152.055.034.11.072.165.115.055.041.108.086.159.134a1.83 1.83 0 0 1 .291.333c.101.145.161.285.181.418a.66.66 0 0 1-.054.378.946.946 0 0 1-.219.288c-.049.044-.1.083-.153.117a.877.877 0 0 1-.164.084.675.675 0 0 1-.37.037.999.999 0 0 1-.381-.169 1.72 1.72 0 0 1-.152-.114 2.417 2.417 0 0 1-.381-.388.963.963 0 0 1-.186-.364.688.688 0 0 1 .017-.37c.018-.054.042-.109.073-.165s.065-.109.104-.16c.039-.05.082-.097.129-.141a.746.746 0 0 1 .144-.106zm.297.396a.81.81 0 0 0-.323.379.471.471 0 0 0-.039.209c.003.071.03.146.079.223a.958.958 0 0 0 .313.294c.08.045.158.068.23.068a.43.43 0 0 0 .205-.052.853.853 0 0 0 .206-.146.827.827 0 0 0 .148-.202.409.409 0 0 0 .051-.21.462.462 0 0 0-.083-.241.99.99 0 0 0-.341-.321.45.45 0 0 0-.242-.062.456.456 0 0 0-.205.064l.001-.003zM382.334 152.547c-.251.502-.386.747-.672 1.22.542-.101.818-.139 1.378-.192.161.259.239.392.389.665l-1.437.79c-.088-.16-.133-.239-.226-.395.445-.25.668-.375 1.115-.622-.565.047-.844.084-1.391.181-.106-.161-.16-.24-.271-.395.287-.487.421-.738.671-1.255-.391.338-.588.506-.982.84a11.039 11.039 0 0 0-.284-.349l1.246-1.067c.191.225.284.341.464.579z"/></g><g fill="#2a2c2b"><path d="M366.146 172.541a9.214 9.214 0 0 0-.027 1.423l.626-.998c.131.086.198.127.331.207l-.838 1.41a9.275 9.275 0 0 1-.441-.277 9.476 9.476 0 0 1 .014-1.518 233.1 233.1 0 0 0-.75.987 8.595 8.595 0 0 1-.364-.298l1.065-1.247c.151.129.228.191.384.311zM366.617 174.797l.782-1.441c.14.076.21.112.353.182l-.721 1.473a9.532 9.532 0 0 1-.414-.214zM368.528 173.876c.104.544.174.818.352 1.363.127-.454.191-.681.32-1.134.146.044.219.064.366.101l-.407 1.588a9.305 9.305 0 0 1-.488-.137 9.493 9.493 0 0 1-.39-1.449c-.176.464-.264.696-.438 1.16a9.414 9.414 0 0 1-.417-.174l.663-1.5c.174.078.262.114.439.182zM369.672 174.528l.066-.278c.594.14.897.186 1.502.23l-.021.285a8.16 8.16 0 0 1-.585-.06l-.178 1.34a9.471 9.471 0 0 1-.443-.068l.232-1.332a7.456 7.456 0 0 1-.573-.117zM371.836 174.89a.428.428 0 0 0-.124.28c.438.008.657.001 1.094-.038l.025.284c-.45.039-.676.046-1.127.037a.586.586 0 0 0 .02.168.322.322 0 0 0 .093.147.277.277 0 0 0 .152.077c.058.009.118.014.18.013h.026c.277-.007.415-.015.692-.04l.025.284a9.393 9.393 0 0 1-.73.039 1.853 1.853 0 0 1-.337-.023.706.706 0 0 1-.3-.123.58.58 0 0 1-.222-.284.908.908 0 0 1-.046-.404l.008-.068c.036-.257.127-.441.267-.557.141-.116.34-.171.606-.177.246-.006.368-.013.613-.036l.025.284a8.125 8.125 0 0 1-.623.034c-.143.003-.247.037-.317.103zM373.533 174.366c.364.416.564.616.994.993l-.304-1.138c.147-.037.22-.056.366-.099l.46 1.574a9.276 9.276 0 0 1-.489.131 9.226 9.226 0 0 1-1.069-1.048l.216 1.221a9.35 9.35 0 0 1-.441.062l-.198-1.627c.187-.024.28-.037.465-.069zM375.696 173.723c.251-.107.46-.142.638-.097.179.045.34.174.48.392l.037.058c.012.02.022.042.033.064a.947.947 0 0 1 .092.324.585.585 0 0 1-.088.354.735.735 0 0 1-.225.239 1.883 1.883 0 0 1-.305.166 9.365 9.365 0 0 1-.905.347l-.52-1.555a7.93 7.93 0 0 0 .763-.292zm.106.265a7.857 7.857 0 0 1-.416.168l.379.999a8.715 8.715 0 0 0 .474-.19l.011-.005c.058-.025.112-.055.163-.089a.29.29 0 0 0 .11-.136c.023-.058.031-.115.023-.17a.774.774 0 0 0-.068-.224l-.03-.061a4.085 4.085 0 0 1-.032-.065c-.011-.022-.025-.044-.037-.064a.778.778 0 0 0-.096-.128.321.321 0 0 0-.139-.086.282.282 0 0 0-.162-.01.927.927 0 0 0-.159.053l-.01.004-.011.005v-.001zM376.854 173.654a.77.77 0 0 1 .024-.354.847.847 0 0 1 .203-.317 2.063 2.063 0 0 1 .395-.303c.051-.03.103-.056.155-.078a.838.838 0 0 1 .367-.084.717.717 0 0 1 .343.1 1.076 1.076 0 0 1 .275.233c.042.05.08.101.113.156.033.054.06.109.08.166a.626.626 0 0 1 .017.373.893.893 0 0 1-.222.371 2.117 2.117 0 0 1-.468.363 1.67 1.67 0 0 1-.166.079.858.858 0 0 1-.416.075.619.619 0 0 1-.34-.147 1.146 1.146 0 0 1-.229-.288 1.423 1.423 0 0 1-.082-.172.888.888 0 0 1-.048-.171l-.001-.002zm.417-.115a.684.684 0 0 0 .043.12c.018.038.037.075.059.11a.814.814 0 0 0 .163.192.448.448 0 0 0 .186.099.414.414 0 0 0 .235-.018.6.6 0 0 0 .099-.042.941.941 0 0 0 .183-.128.663.663 0 0 0 .073-.078.432.432 0 0 0 .101-.217.416.416 0 0 0-.028-.209.924.924 0 0 0-.123-.219.906.906 0 0 0-.18-.173.41.41 0 0 0-.41-.063c-.03.011-.059.024-.089.038a.935.935 0 0 0-.164.114.728.728 0 0 0-.067.07.405.405 0 0 0-.094.198.5.5 0 0 0 .013.206z"/></g></g></g></g></svg>