<?xml version="1.0" encoding="UTF-8" standalone="no"?>
<!-- Created with Inkscape (http://www.inkscape.org/) -->

<svg
   xmlns:dc="http://purl.org/dc/elements/1.1/"
   xmlns:cc="http://creativecommons.org/ns#"
   xmlns:rdf="http://www.w3.org/1999/02/22-rdf-syntax-ns#"
   xmlns:svg="http://www.w3.org/2000/svg"
   xmlns="http://www.w3.org/2000/svg"
   xmlns:sodipodi="http://sodipodi.sourceforge.net/DTD/sodipodi-0.dtd"
   xmlns:inkscape="http://www.inkscape.org/namespaces/inkscape"
   version="1.1"
   id="svg2"
   width="1210"
   height="439"
   viewBox="0 0 1210 439"
   sodipodi:docname="psx.svg"
   inkscape:version="0.92.3 (2405546, 2018-03-11)">
  <metadata
     id="metadata8">
    <rdf:RDF>
      <cc:Work
         rdf:about="">
        <dc:format>image/svg+xml</dc:format>
        <dc:type
           rdf:resource="http://purl.org/dc/dcmitype/StillImage" />
        <dc:title></dc:title>
      </cc:Work>
    </rdf:RDF>
  </metadata>
  <defs
     id="defs6" />
  <sodipodi:namedview
     pagecolor="#ffffff"
     bordercolor="#666666"
     borderopacity="1"
     objecttolerance="10"
     gridtolerance="10"
     guidetolerance="10"
     inkscape:pageopacity="0"
     inkscape:pageshadow="2"
     inkscape:window-width="1920"
     inkscape:window-height="1017"
     id="namedview4"
     showgrid="false"
     inkscape:zoom="0.28595041"
     inkscape:cx="605"
     inkscape:cy="219.5"
     inkscape:window-x="-4"
     inkscape:window-y="-4"
     inkscape:window-maximized="1"
     inkscape:current-layer="svg2" />
  <g
     id="g12"
     transform="matrix(1,0,0,1.0360328,3.4971098,17.313094)">
    <path
       style="fill:#cecece"
       d="m 440,339.46333 v -53.53666 l 60.75,0.28666 c 59.13747,0.27906 60.86945,0.34197 65.25,2.36988 5.39579,2.49789 10.43784,7.96567 12.1164,13.13946 0.86308,2.66021 1.34473,16.7161 1.62863,47.52733 L 580.14815,393 H 569.07407 558 l -0.0805,-40.75 c -0.0547,-27.6819 -0.45553,-42.16306 -1.25,-45.15631 -1.94571,-7.33068 -4.02156,-8.2028 -21.04101,-8.83987 L 521,297.70624 V 345.35312 393 H 510 499 V 345.5 298 H 480.5 462 v 47.5 47.5 h -11 -11 z m 159,0.0367 v -53.5 h 11 11 v 53.5 53.5 h -11 -11 z m 42,-0.0591 v -53.55906 l 34.75,0.30906 34.75,0.30905 5.75133,2.8242 c 6.82062,3.34928 10.02682,8.04929 11.67152,17.10946 0.6536,3.60046 1.07715,21.78659 1.07715,46.25 V 393 H 718.04925 707.0985 l -0.29925,-43.25 c -0.22794,-32.94296 -0.60553,-43.7862 -1.58443,-45.5 -2.83724,-4.96721 -5.16636,-5.54724 -24.29012,-6.04905 L 663,297.73061 V 345.36531 393 h -11 -11 v -53.55905 z m 107,0.0591 v -53.5 h 11 11 v 53.5 53.5 h -11 -11 z m -149,-76 v -9.5 h 11 11 v 9.5 9.5 h -11 -11 z m 149,0 v -9.5 h 11 11 v 9.5 9.5 H 759 748 Z M 341,250.84315 c 0,-0.67118 6.33766,-16.81461 14.08369,-35.8743 l 14.08369,-34.65398 -11.20774,-29.40744 C 345.73581,118.83392 319.6095,50.556891 318.4863,47.75 317.83595,46.124766 318.99023,46 334.67655,46 h 16.89054 l 14.46645,42.21331 c 7.95655,23.21732 15.51871,45.52757 16.8048,49.57833 1.28608,4.05076 2.46582,7.21727 2.62163,7.03669 0.15581,-0.18058 5.29291,-14.05333 11.41576,-30.82833 6.12286,-16.775 14.21023,-38.825 17.97194,-49 l 6.83948,-18.5 13.15642,-0.279025 C 443.22892,46.043136 448,46.308652 448,46.953145 448,47.876744 429.73947,92.760304 398.95644,167.5 c -6.56932,15.95 -17.0149,41.375 -23.21239,56.5 l -11.26816,27.5 -11.73795,0.28174 C 344.01259,251.99116 341,251.75027 341,250.84315 Z m 644.76786,-67.30294 c -17.0936,-3.74205 -25.85623,-10.09365 -31.98064,-23.18122 -7.89433,-16.86978 -9.94208,-54.80815 -4.21739,-78.134915 3.5442,-14.441817 10.93432,-25.379655 20.41588,-30.216785 11.98088,-6.112187 36.45679,-8.641757 54.01429,-5.582338 23.0399,4.014731 33.2874,13.7501 39.2418,37.280293 1.9633,7.758507 2.2274,11.386919 2.2418,30.794755 0.019,25.28862 -1.3485,34.25906 -7.0316,46.13224 -6.0479,12.6352 -15.5,19.31768 -32.452,22.94297 -8.067,1.72518 -32.28789,1.70411 -40.23214,-0.035 z m 35.56184,-21.345 c 4.1467,-2.33211 5.7163,-4.00077 7.9282,-8.42831 4.3328,-8.67289 6.0515,-22.61763 5.3943,-43.7669 -1.0937,-35.196865 -7.0788,-44.976552 -27.5362,-44.994423 -13.41649,-0.01172 -20.43082,4.746668 -23.97894,16.266868 -4.45995,14.480776 -5.21392,43.757175 -1.57997,61.350235 2.72177,13.17694 6.40019,18.23976 15.65855,21.55177 7.57176,2.70865 17.18096,1.91993 24.11406,-1.97924 z M 5,94.457592 V 4.8602707 l 40.75,0.4006492 c 43.107834,0.4238311 45.292456,0.6435816 54.81821,5.5141491 8.58145,4.387734 16.03183,16.119548 18.93267,29.812492 2.07151,9.778223 1.88803,27.900798 -0.39443,38.959697 -2.33061,11.29215 -5.8428,18.319527 -12.46609,24.942822 -7.807577,7.80757 -11.181912,8.70262 -35.491714,9.4142 -11.193245,0.32765 -20.775996,0.33165 -21.295002,0.009 -0.519006,-0.32276 -0.810896,-4.14776 -0.648646,-8.5 L 49.5,97.5 63,97 C 74.929051,96.558183 76.939992,96.226449 80.281086,94.149228 86.035108,90.571845 87.931851,85.809147 89.178421,71.808129 90.984454,51.52344 88.150114,35.060195 81.857363,29.283801 76.885902,24.720277 71.741305,23.67811 52,23.235446 L 33.5,22.820616 V 103.16031 183.5 L 19.25,183.77746 5,184.05491 Z M 142,94.5 V 5 H 156.5 171 V 94.5 184 H 156.5 142 Z m 88.5,88.08757 c -12.34435,-1.79173 -16.49563,-3.07738 -21.39398,-6.62573 -9.0749,-6.57383 -13.44936,-17.58395 -13.49345,-33.96184 -0.0573,-21.29181 7.30945,-33.98285 23.23963,-40.03584 6.46822,-2.457729 21.14464,-4.18206 32.1478,-3.77704 l 8.5,0.31288 0.28801,8.09973 0.28802,8.09973 -9.78802,0.68536 c -12.49539,0.87493 -17.26462,3.01832 -21.05214,9.46123 C 226.70258,129.15539 226.5,130.3145 226.5,140.5 c 0,13.26809 1.51439,17.25204 8.0034,21.05486 5.54785,3.25126 17.6972,4.70101 30.9966,3.69875 L 275.5,164.5 275.497,124 c -0.003,-40.255072 -0.0172,-40.531155 -2.33082,-45.651611 -2.73458,-6.052167 -5.22842,-8.616959 -10.67969,-10.983553 -3.45713,-1.500867 -7.00659,-1.697637 -26.73635,-1.482178 l -22.75,0.248441 V 56.71588 47.300661 l 25.26636,-0.706844 c 26.84095,-0.750894 34.49822,-0.150421 44.15478,3.462561 11.48464,4.296955 19.2617,15.024337 21.48469,29.635175 1.24178,8.161705 1.55618,101.918087 0.34417,102.632497 -0.4125,0.24314 -15.15,0.69582 -32.75,1.00596 -23.67,0.41709 -34.34281,0.22383 -41,-0.74244 z M 475,183.0774 468.5,182.5 v -8.5 -8.5 l 22.07424,0.37205 c 18.34,0.30912 23.03365,0.0932 27.74555,-1.27664 7.61847,-2.21475 12.24721,-6.42627 14.22138,-12.93953 3.8682,-12.76212 2.66869,-33.87616 -2.2571,-39.73013 -3.88383,-4.61567 -6.85217,-5.64385 -19.79907,-6.8581 -6.59175,-0.61821 -14.33806,-1.36754 -17.21403,-1.66518 -11.15994,-1.15493 -22.87449,-9.88806 -27.80347,-20.727324 -6.69411,-14.72095 -5.3283,-44.775388 2.7211,-59.877622 3.79997,-7.129472 8.4027,-10.948225 17.46704,-14.4918994 6.47579,-2.5316861 7.97236,-2.6983462 27.79117,-3.0948649 11.52075,-0.2304978 25.13325,-0.1052172 30.25,0.2784013 L 553,6.1866491 v 8.6806769 8.680677 l -23.90774,-0.024 -23.90774,-0.024 -4.34226,3.044405 c -2.38824,1.674422 -5.46726,5.049422 -6.84226,7.5 -2.31132,4.11932 -2.49947,5.436739 -2.49295,17.455595 0.006,11.48561 0.26444,13.482811 2.21655,17.144603 3.39585,6.369954 7.68697,7.895603 26.92402,9.572474 14.66391,1.278236 16.74945,1.703845 22.69736,4.631994 15.85282,7.804317 21.47657,21.911736 20.35523,51.062006 -0.74879,19.46554 -3.90234,30.68722 -10.85163,38.61471 -4.06698,4.63945 -13.29878,9.01706 -21.98984,10.42731 -6.55548,1.06371 -44.33696,1.14779 -55.85874,0.1243 z m 132.55782,-0.55788 c -8.793,-3.15833 -13.10964,-8.63635 -14.03015,-17.80492 -0.34317,-3.41803 -0.48978,-36.96932 -0.32581,-74.558423 L 593.5,21.812354 l 14,-0.0014 14,-0.0014 0.28078,12.095225 L 622.06156,46 H 637.53078 653 v 9 9 h -15.55301 -15.553 l 0.303,48.42044 0.30301,48.42044 2.42431,2.57956 C 627.21237,165.85502 627.90306,166 637.21325,166 h 9.86462 l -0.28894,8.75 -0.28893,8.75 -17.5,0.21775 c -13.03075,0.16214 -18.50678,-0.14387 -21.44218,-1.19823 z M 700,182.54676 c -15.37356,-2.26701 -21.56344,-5.20051 -27.09966,-12.84304 -4.62411,-6.38339 -6.9969,-15.58716 -7.02054,-27.23181 -0.0308,-15.16193 2.58007,-23.54765 9.82987,-31.57231 C 683.84777,101.89169 693.67802,98.821983 715,98.630332 L 729.5,98.5 l 0.28801,8.09973 0.28802,8.09973 -9.63471,0.67725 c -11.48039,0.80699 -15.07175,2.13841 -19.16591,7.10533 -4.27271,5.18354 -5.65713,10.91816 -5.03668,20.8632 0.66564,10.66939 3.45166,15.93526 10.28809,19.44554 3.84293,1.97321 17.28099,3.17339 28.40517,2.53691 L 746,164.69442 745.98438,126.59721 C 745.96728,84.897845 745.45188,79.903365 740.49527,73.404912 734.92652,66.1039 730.42876,65.250115 700.5,65.812831 c -8.25,0.155115 -15.57939,0.260684 -16.28753,0.234598 -0.97539,-0.03593 -1.21782,-2.289893 -1,-9.297429 L 683.5,47.5 l 24,-0.840076 c 26.0121,-0.910506 35.24424,-0.224139 44.73178,3.325606 6.97783,2.610742 13.51867,8.302643 17.09779,14.878668 5.27044,9.683533 5.63411,14.082942 5.65307,68.385802 L 775,183 l -9.75,0.002 c -5.3625,10e-4 -20.1,0.21449 -32.75,0.47382 -16.6997,0.34236 -25.6023,0.0878 -32.5,-0.92936 z m 120.83625,0.0568 c -4.49487,-1.60548 -9.05825,-5.1891 -11.28716,-8.86381 -0.93157,-1.53583 -2.08217,-6.63703 -2.59389,-11.5 -1.09653,-10.42059 -1.28644,-140.229402 -0.2052,-140.263312 0.4125,-0.01294 6.825,-0.06508 14.25,-0.11588 l 13.5,-0.09236 0.28058,12.090642 0.28057,12.090642 15.71943,0.275237 L 866.5,46.5 l 0.28893,8.75 0.28894,8.75 H 851.03893 835 l 0.0629,40.75 c 0.0693,44.85229 0.72297,56.46189 3.32623,59.07234 1.26604,1.26953 4.14027,1.7993 11.81483,2.17766 l 10.1418,0.5 -0.13232,8 c -0.0728,4.4 -0.15057,8.3375 -0.17289,8.75 -0.0735,1.35827 -35.21397,0.77887 -39.20432,-0.6464 z M 890,114.97254 V 45.945087 l 14.25,0.277456 14.25,0.277457 0.25689,68.75 0.25689,68.75 H 904.50689 890 Z m 205,0.68097 V 47.307027 l 34.25,-0.704933 c 38.005,-0.782218 45.2886,-0.204889 55.25,4.379319 9.9701,4.588251 16.8773,13.784012 19.3924,25.817808 0.7263,3.474819 1.1076,22.840421 1.1076,56.249999 V 184 h -14.4571 -14.457 l -0.293,-50.75 c -0.3213,-55.67253 -0.2429,-54.932985 -6.516,-61.482248 -5.2588,-5.490328 -10.6886,-6.46266 -33.5269,-6.003819 L 1124,66 v 59 59 H 1109.5 1095 Z M 890.41637,30.083333 C 890.18737,29.854167 890,24.116667 890,17.333333 V 5 h 14.5 14.5 v 12.5 c 0,6.875 -0.3375,12.513778 -0.75,12.530619 -7.94876,0.324509 -27.52498,0.361584 -27.83363,0.05271 z"
       id="path26"
       inkscape:connector-curvature="0" />
    <path
       style="fill:#b3b3b3"
       d="m 440,339.46333 v -53.53666 l 60.75,0.28666 c 67.41391,0.31812 64.79643,0.0616 72.0274,7.06008 6.28924,6.08706 6.57376,8.3873 6.98549,56.47659 l 0.3703,43.25 h -11.0085 -11.00851 l -0.30809,-43.25 c -0.23457,-32.92935 -0.61477,-43.78691 -1.59327,-45.5 -2.69824,-4.72386 -5.4173,-5.51417 -20.76409,-6.03517 L 521,297.72424 V 345.36212 393 H 510 499 V 345.5 298 H 480.5 462 v 47.5 47.5 h -11 -11 z m 159,0.0367 v -53.5 h 11 11 v 53.5 53.5 h -11 -11 z m 42,-0.0591 v -53.55906 l 34.75,0.30906 c 32.97452,0.29326 34.97992,0.41737 39.25,2.42905 5.68022,2.67601 9.43772,6.66598 11.67203,12.39417 1.54957,3.97268 1.79034,9.49052 2.10482,48.23583 l 0.3551,43.75 h -11.02591 -11.02591 l -0.29006,-43.25 c -0.31295,-46.66152 -0.38205,-47.27047 -5.65034,-49.79379 -1.68323,-0.8062 -9.07143,-1.43463 -20.38973,-1.73432 L 663,297.7519 V 345.37595 393 h -11 -11 v -53.55905 z m 107,0.0591 v -53.5 h 11 11 v 53.5 53.5 h -11 -11 z m -149,-76 v -9.5 h 11 11 v 9.5 9.5 h -11 -11 z m 149,0 v -9.5 h 11 11 v 9.5 9.5 H 759 748 Z M 341,251.17325 c 0,-0.48962 5.66138,-14.7914 12.58084,-31.78174 6.91947,-16.99033 13.30268,-32.76662 14.18491,-35.05842 l 1.60406,-4.16691 -24.80739,-64.83309 C 330.91836,79.674891 319.53051,49.476091 319.25609,48.224647 l -0.49894,-2.275354 16.35366,0.275354 16.35366,0.275353 10.2426,30 c 18.22053,53.36692 23.54552,68.58074 23.88513,68.24114 0.18324,-0.18324 8.18244,-21.68746 17.77601,-47.787153 C 412.96178,70.854294 421.12672,48.7125 421.51252,47.75 c 0.6177,-1.541044 2.25485,-1.75 13.7111,-1.75 11.91025,0 12.96821,0.147885 12.51934,1.75 -0.26966,0.9625 -10.39673,25.825 -22.5046,55.25 -12.10787,29.425 -26.62335,64.75 -32.25663,78.5 -5.63328,13.75 -14.40698,35.125 -19.49712,47.5 l -9.2548,22.5 -11.61491,0.28174 C 346.22671,251.93669 341,251.66287 341,251.17325 Z m 646,-67.60883 c -24.72757,-5.22801 -34.88784,-17.02864 -39.02547,-45.32606 -1.63319,-11.16944 -0.71617,-45.234235 1.47356,-54.73836 3.44774,-14.964354 10.85704,-26.008432 20.8978,-31.149621 9.56494,-4.897557 18.73528,-6.611782 35.65411,-6.664877 16.7381,-0.05253 24.2073,1.18379 34.1216,5.647889 14.3278,6.451377 21.8239,19.92093 24.8434,44.640375 1.3159,10.773554 1.3111,26.970644 -0.011,38.526234 -3.2953,28.79079 -12.7341,41.91613 -34.5165,47.9975 -8.187,2.28572 -34.60335,2.93457 -43.437,1.06692 z m 31.421,-19.62074 c 3.0267,-1.13244 6.603,-3.37188 7.9598,-4.9844 5.9875,-7.11577 8.6192,-20.67246 8.6192,-44.40065 0,-18.191595 -1.894,-30.809751 -5.7845,-38.537224 -2.3558,-4.679201 -3.6089,-5.913622 -8.5881,-8.460035 -9.6747,-4.947835 -23.40392,-3.986078 -30.69665,2.150356 -7.75608,6.526304 -10.3001,17.38689 -10.37425,44.288273 -0.0956,34.69396 3.98243,46.24276 17.86366,50.58885 6.24044,1.95384 14.75334,1.69231 21.00084,-0.64517 z M 5,94.5 V 5 H 40.86901 C 80.291343,5 90.116613,5.9331593 99.724247,10.589802 108.44724,14.817678 115.79433,25.572422 119.13262,39 c 1.98273,7.975109 1.70773,33.530737 -0.45533,42.313756 -3.7053,15.045214 -11.54268,25.532714 -22.215028,29.726794 -5.543798,2.17864 -7.401065,2.34717 -26.462262,2.40127 l -20.5,0.0582 v -7.5 -7.5 L 62,97.885557 C 75.529079,97.22053 77.949533,96.596234 82.789917,92.52332 87.220451,88.795271 89.00269,82.074611 89.699453,66.4681 90.372777,51.386598 89.12052,41.998362 85.408604,34.299386 83.315004,29.956998 82.042552,28.678662 77.697887,26.553016 71.340814,23.44279 61.503806,22.071843 45.25,22.030876 L 33,22 v 81 81 H 19 5 Z m 137,0 V 5 H 156.5 171 V 94.5 184 H 156.5 142 Z m 93.03911,88.48293 c -28.52783,-2.98274 -37.71339,-11.94198 -38.81635,-37.85998 -0.77159,-18.13144 2.48735,-28.08063 11.99938,-36.63276 7.84446,-7.05285 14.06237,-8.717578 34.52786,-9.244207 L 260,98.802098 v 7.965252 7.96526 l -9.75,0.47673 c -11.80841,0.57738 -16.96006,2.78701 -20.84467,8.94062 -4.54455,7.19904 -5.08964,23.75847 -1.03985,31.58991 4.17686,8.07716 15.20383,11.04668 36.15857,9.73738 L 276,164.7602 v -38.33088 c 0,-23.49508 -0.41491,-40.265556 -1.072,-43.329459 -1.37643,-6.418065 -5.76211,-12.437133 -11.1646,-15.322699 -4.135,-2.208579 -4.96363,-2.268766 -27.5134,-1.998385 L 213,66.057554 v -8.96976 c 0,-4.933368 0.34915,-9.185547 0.77589,-9.449286 0.42674,-0.263739 13.13924,-0.627796 28.25,-0.809017 30.3074,-0.36347 34.0676,0.0999 44.26965,5.455387 6.55765,3.44238 10.50073,7.905583 14.47046,16.379228 L 303.5,74.5 l 0.29051,54.25 0.29052,54.25 h -18.38351 c -10.11094,0 -23.74167,0.1952 -30.29052,0.43378 -6.54885,0.23858 -15.7144,0.0357 -20.36789,-0.45085 z M 479.25,183.31294 469,182.93003 v -9.0763 -9.07631 l 3.25,0.59396 c 6.47828,1.18395 41.12991,0.93818 45.75,-0.32449 6.516,-1.78082 10.80294,-4.73589 12.90788,-8.89766 5.54517,-10.96361 5.61572,-36.39204 0.12238,-44.10674 -3.38679,-4.7563 -8.03987,-6.18472 -24.93824,-7.65565 -8.55833,-0.74496 -17.64799,-2.10509 -20.19925,-3.02251 C 475.10072,97.483561 466.505,87.935268 463.509,76.5 c -2.37306,-9.0576 -2.15422,-31.747278 0.40212,-41.691723 2.37842,-9.252335 4.05319,-12.656136 8.82724,-17.94043 9.29516,-10.2886286 23.41577,-12.9022068 61.54897,-11.392071 l 18.78733,0.7440084 -0.28733,8.6401076 c -0.20053,6.030109 -0.64778,8.570305 -1.48056,8.409031 -0.65628,-0.127092 -10.57179,-0.286154 -22.03447,-0.353472 -17.3206,-0.10172 -21.51113,0.157035 -24.80677,1.531758 -11.05368,4.610858 -15.60036,15.855388 -13.44357,33.247676 2.04118,16.459986 5.01137,18.565008 29.17338,20.675645 12.32438,1.076577 17.84369,1.995495 21.37931,3.559469 16.42342,7.264858 23.27256,23.047471 22.14389,51.026621 -1.17931,29.23452 -8.25873,42.59589 -25.51065,48.14768 -5.87798,1.89157 -9.30603,2.18542 -27.70789,2.37509 -11.55,0.11906 -25.6125,0.0442 -31.25,-0.16645 z m 128.97179,-0.78266 c -5.75274,-1.79638 -10.53956,-5.61053 -12.83106,-10.22383 -1.79365,-3.611 -1.90632,-7.56911 -2.19433,-77.084234 l -0.30361,-73.277783 14.17576,0.277783 14.17576,0.277784 -0.17466,11.72434 -0.17466,11.724341 15.8025,0.275659 L 652.5,46.5 l 0.28893,8.75 0.28894,8.75 h -16.16115 -16.16115 l 0.51661,46.25 c 0.53703,48.07784 0.94699,52.72656 4.83323,54.80642 1.10985,0.59397 6.15266,1.16176 11.20625,1.26176 L 646.5,166.5 l 0.295,7.91317 c 0.21083,5.65526 -0.0745,8.14758 -1,8.73469 -2.17844,1.38195 -32.78069,0.87895 -37.57321,-0.61758 z m 96.81732,0.34538 c -15.374,-1.41252 -23.06676,-4.05715 -28.96844,-9.95883 -7.45818,-7.45819 -10.65937,-19.00983 -9.82087,-35.43905 0.44938,-8.80486 0.99444,-11.40255 3.52904,-16.81886 C 677.50614,104.14606 688.3004,99 715.2101,99 H 730 v 7.88072 7.88072 l -9.27708,0.40575 c -12.70107,0.5555 -18.08042,3.17614 -21.95757,10.697 -2.33814,4.5355 -2.76535,6.59128 -2.76535,13.30718 0,10.39637 1.54428,16.21906 5.29682,19.97161 5.58161,5.58161 14.59248,7.3392 32.49459,6.33816 l 12.29141,-0.6873 -0.29141,-41.22008 L 745.5,82.353693 742.49729,76.484802 c -2.48063,-4.848448 -3.86946,-6.313651 -7.98761,-8.426847 C 729.59015,65.533537 729.22446,65.5 706.61793,65.5 h -22.90686 l 0.21193,-8.984131 c 0.11656,-4.941272 0.29485,-9.067056 0.39621,-9.168409 0.10135,-0.101352 12.55849,-0.331077 27.68253,-0.5105 30.38945,-0.360522 34.10824,0.100462 44.39839,5.503659 7.4077,3.889672 12.80829,10.54633 15.79884,19.473338 2.18482,6.521843 2.24813,7.957184 2.57788,58.445383 0.27413,41.97269 0.0908,51.83677 -0.9694,52.16888 -2.63228,0.82452 -60.56176,1.20144 -68.76834,0.44744 z m 117.95442,0.20166 c -7.84228,-2.42199 -13.11827,-7.41219 -15.19594,-14.37279 -0.95448,-3.19774 -1.2601,-21.20579 -1.2763,-75.20453 l -0.0213,-71 14.25,-0.277457 14.25,-0.277456 V 33.94715 45.949214 l 15.57733,0.275393 15.57733,0.275393 0.0859,8.5 0.0859,8.5 -15.66324,0.275393 L 835,64.050786 l 0.0201,42.724604 c 0.0111,23.49854 0.43346,45.58368 0.93867,49.07811 1.36524,9.44296 2.35228,10.1465 14.23514,10.1465 h 9.88395 l -0.28894,8.75 -0.28893,8.75 -17,0.17571 c -9.35,0.0966 -18.12791,-0.17264 -19.50647,-0.59839 z M 890,115 V 46 h 14 14 v 69 69 h -14 -14 z m 205.4705,67.77835 C 1095.2019,182.07526 1095.0986,151.35 1095.241,114.5 l 0.259,-67 33,-0.696914 c 34.7421,-0.733705 43.5593,-0.205698 53.2106,3.186457 7.0202,2.467413 11.7744,6.158228 16.0481,12.458539 6.7082,9.889323 6.7413,10.225702 6.7413,68.551918 v 52.5 h -14 -14 l -0.5,-51 -0.5,-51 -2.9226,-5.275111 c -5.4014,-9.749251 -11.5282,-11.718965 -33.2806,-10.699506 l -15.2809,0.716165 -0.258,58.629222 -0.2579,58.62923 -13.7705,0.27835 c -10.464,0.21152 -13.8878,-0.0286 -14.259,-1 z M 890,17.5 V 5 h 14 14 V 17.5 30 h -14 -14 z"
       id="path24"
       inkscape:connector-curvature="0" />
    <path
       style="fill:#909090"
       d="m 440,339.45622 v -53.54378 l 60.25,0.311 c 48.08848,0.24823 60.95648,0.58772 63.75,1.68189 5.46576,2.14082 9.81646,5.83262 12.25923,10.4026 2.21234,4.13888 2.24454,4.76625 2.53816,49.44207 l 0.2974,45.25 H 568.54739 558 l -0.0564,-41.75 c -0.0609,-45.03404 -0.25911,-46.94142 -5.26452,-50.65634 -2.50812,-1.86147 -4.47661,-2.13156 -17.75,-2.43538 L 520,297.81657 V 345.40828 393 H 509.5 499 V 345.5 298 H 480 461 V 345.5 393 H 450.5 440 Z m 159,0.0438 v -53.5 h 11 11 v 53.5 53.5 h -11 -11 z m 42,-0.0702 v -53.57015 l 34.25,0.3945 c 24.09817,0.27758 35.43562,0.77394 38.25,1.67463 5.27431,1.68793 11.82531,8.57288 13.48494,14.17237 0.95008,3.20551 1.42264,16.13161 1.74197,47.64881 l 0.43822,43.25 H 718.08256 707 v -41.97976 c 0,-46.04413 -0.25782,-48.31415 -5.80424,-51.10517 -1.88245,-0.94727 -8.20177,-1.46476 -20.94576,-1.71523 L 662,297.84114 v 47.57942 47.57942 H 651.5 641 Z m 107,0.0702 v -53.5 h 11 11 v 53.5 53.5 h -11 -11 z m -149,-76 v -9.5 h 11 11 v 9.5 9.5 h -11 -11 z m 149,0 v -9.5 h 11 11 v 9.5 9.5 h -11 -11 z m -407,-12.7548 c 0,-0.17505 6.42835,-16.07014 14.28522,-35.32245 L 369.57045,180.41858 352.4524,135.45929 C 343.03747,110.73168 331.65912,80.867509 327.16718,69.094464 322.67523,57.32142 319,47.297773 319,46.819693 c 0,-0.47808 7.25899,-0.745589 16.13108,-0.594464 L 351.26216,46.5 l 16.82945,49 c 9.2562,26.95 16.96374,49.34958 17.12787,49.77685 0.16413,0.42727 2.48597,-5.19773 5.15963,-12.5 25.57728,-69.856314 31.01364,-84.443855 31.87342,-85.52685 1.10437,-1.391094 24.26338,-1.842291 25.09976,-0.489007 0.25867,0.418545 -4.15557,12.006045 -9.80943,25.75 C 431.889,86.254947 417.01928,122.475 404.49904,153 c -12.52024,30.525 -26.65483,64.95 -31.41019,76.5 l -8.64611,21 -11.72137,0.28174 C 346.27462,250.93669 341,250.92026 341,250.74522 Z m 648.86953,-66.74711 c -12.90701,-2.05469 -25.72805,-8.25776 -30.55104,-14.7812 -3.84575,-5.20166 -7.3311,-13.14588 -9.4153,-21.46051 -2.69652,-10.75737 -3.75851,-40.5315 -1.92833,-54.062737 4.85436,-35.890109 19.8191,-48.040792 59.02514,-47.925705 34.8131,0.102191 50.1898,10.87298 55.9985,39.22459 2.6894,13.126693 3.4978,31.018512 2.0687,45.779742 -3.8395,39.65558 -17.3179,52.6904 -55.5672,53.73851 -7.7,0.211 -16.53371,-0.0197 -19.63047,-0.51269 z m 30.82257,-20.81622 c 11.3444,-5.85462 14.8534,-19.14679 14.0287,-53.14157 -0.5176,-21.33426 -1.346,-26.492016 -5.588,-34.789205 -6.6666,-13.039525 -30.4381,-15.064627 -41.39394,-3.526356 -6.47913,6.823584 -9.26918,23.115765 -8.4384,49.275241 0.93264,29.36721 4.66092,38.62694 17.54434,43.57384 5.4828,2.10527 18.5485,1.34264 23.8473,-1.39195 z M 5,94.5 V 5 H 40.058447 C 75.023809,5 84.931129,5.6747812 94.5,8.7079792 c 18.97372,6.0144038 28.78082,28.6438228 25.73967,59.3930948 -1.41775,14.334925 -4.1378,23.160343 -9.59726,31.139075 C 102.55024,111.06646 93.95194,113.95444 66.75,113.98264 L 50,114 v -8 -8 H 60.318499 C 73.316268,98 79.707335,96.236294 83.863802,91.502339 88.572018,86.139978 89.444274,81.552786 89.473681,62 89.50386,41.933385 88.032961,35.099627 82.490728,29.557394 77.203993,24.270659 70.857748,22.809138 50.75,22.247598 L 33,21.751902 V 102.87595 184 H 19 5 Z m 137.69363,88.86029 C 142.31213,182.9788 142,142.69167 142,93.833333 V 5 h 14.50537 14.50538 l -0.25538,89.25 -0.25537,89.25 -13.55637,0.27696 c -7.45601,0.15233 -13.86851,-0.0352 -14.25,-0.41667 z M 482.75,183.3239 469,182.94356 v -8.63024 -8.63024 l 19.25,0.64394 c 11.83576,0.39592 21.75351,0.24223 25.75,-0.39905 7.02482,-1.12719 14.16433,-4.70024 16.43379,-8.22447 2.63354,-4.08962 4.87906,-15.02702 4.86647,-23.7035 -0.0178,-12.29915 -1.81524,-19.71498 -5.72633,-23.62607 C 525.73246,106.53246 521.54896,105.33348 509,104.4775 488.10877,103.05248 481.22608,100.86723 473.25027,93.126974 464.88621,85.009921 462,75.718269 462,56.908621 462,30.000375 469.19464,14.812352 484.68702,9.0159126 493.34715,5.7757418 506.24883,4.8140381 530.75,5.5823328 L 553,6.2800364 v 8.3904406 8.39044 l -22.75,-0.269289 c -24.99499,-0.295864 -25.58964,-0.189895 -32.1393,5.727322 -5.75809,5.202095 -7.63948,10.85499 -7.4821,22.48105 0.20208,14.92827 2.6277,20.995615 9.74365,24.372354 2.05405,0.974711 8.57412,2.054098 16.2772,2.694663 17.49057,1.454464 24.75794,3.21308 31.00182,7.502071 8.3522,5.737226 12.56749,13.196416 14.93646,26.430912 3.46269,19.34467 0.0718,45.26119 -7.48004,57.16914 -3.37775,5.32615 -9.18143,9.11877 -18.39349,12.01987 -6.74219,2.12327 -26.34623,2.89883 -53.9642,2.13489 z m 127.00317,-0.33324 c -5.61472,-1.43572 -11.11069,-5.5126 -13.8289,-10.25822 L 593.5,168.5 593.18595,95.25 592.87189,22 h 14.03328 14.03327 L 621.21922,34.076482 621.5,46.152965 637,46.326482 652.5,46.5 v 8.5 8.5 l -15.84733,0.275887 -15.84733,0.275887 0.37083,47.224116 c 0.33134,42.19625 0.55279,47.56126 2.07993,50.39082 2.223,4.11884 6.75488,5.58118 15.99732,5.16197 L 646.5,166.5 l 0.2969,7.4031 c 0.16329,4.07171 -0.0931,7.79305 -0.56966,8.26966 -1.25838,1.25838 -32.0511,1.94888 -36.47407,0.8179 z m 211.46247,-0.88127 c -5.76915,-1.99278 -9.4977,-4.96352 -12.06065,-9.60939 -1.49027,-2.70141 -1.68352,-10.34034 -1.94159,-76.75 L 806.9268,22 H 820.9634 835 v 12 12 h 15.5 15.5 v 9 9 H 850.5 835 l 0.0596,44.25 c 0.0328,24.3375 0.41657,46.42129 0.85286,49.07508 0.45784,2.78489 1.71496,5.7447 2.9731,7 1.95612,1.95169 3.15154,2.15982 11.64714,2.02784 L 860,166.20584 v 8.24886 8.24887 l -8.25,0.64222 c -14.61587,1.13778 -24.86217,0.72288 -30.53436,-1.2364 z M 890.24311,115.25 890.5,46.5 904.25,46.22178 918,45.943561 V 114.97178 184 h -14.00689 -14.00689 z m 205.70049,68.36057 c -0.244,-0.24384 -0.3249,-30.79882 -0.1798,-67.89995 l 0.2637,-67.456607 4.7363,-0.610578 c 2.6049,-0.335817 19.3612,-0.644075 37.2362,-0.685018 26.7376,-0.06124 33.5506,0.207636 38.4251,1.51648 13.7983,3.704884 21.8131,11.11115 25.8225,23.861802 2.2158,7.047016 2.2524,8.007439 2.2524,59.163301 v 52 h -14 -14 l -0.5,-51 c -0.4995,-50.951036 -0.5022,-51.004557 -2.8373,-55.746107 -1.2855,-2.610359 -3.4849,-5.648805 -4.8876,-6.752102 -5.8381,-4.592321 -16.9675,-5.830127 -37.0536,-4.121087 L 1123.943,66.5 l -0.2215,58.5 -0.2215,58.5 -13.5564,0.27696 c -7.456,0.15233 -13.756,0.0774 -14,-0.16639 z m -868.71734,-1.75692 c -21.90607,-3.14075 -31.27292,-15.34484 -31.20181,-40.65287 0.0289,-10.29796 1.10848,-15.55589 4.69981,-22.89034 6.85624,-14.00226 20.02133,-19.59806 44.90899,-19.088485 L 259.213,99.5 l 0.002,7.5 0.002,7.5 -9.35871,0.59272 c -11.40845,0.72254 -15.81801,2.48795 -19.74099,7.90347 -7.00653,9.67223 -6.15752,30.4089 1.5237,37.21567 5.37114,4.75969 17.46179,6.61802 34.66594,5.32818 L 276,164.81335 v -39.22517 c 0,-44.071588 -0.31625,-46.611833 -6.68002,-53.655758 -5.69826,-6.307292 -10.48194,-7.230393 -35.21351,-6.795106 L 213.5,65.5 l -0.2872,-8.630878 -0.28719,-8.630879 4.28719,-0.612148 C 219.57076,47.289414 232.3,46.95664 245.5,46.886599 c 25.27687,-0.134123 31.83197,0.691304 40.46464,5.09536 5.46975,2.790457 12.44834,10.889084 15.1389,17.568621 L 303.5,75.5 l 0.29084,53.10587 0.29083,53.10588 -5.29083,0.63543 c -7.82414,0.93969 -64.28393,0.55033 -71.56458,-0.49353 z m 471.25029,0.19256 c -11.47799,-1.76523 -16.73453,-4.0015 -22.08569,-9.39584 -7.9129,-7.97675 -9.79166,-13.85774 -9.79166,-30.65037 0,-11.70594 0.30357,-14.26843 2.28434,-19.28231 C 675.80487,105.19782 688.11442,99 715.98947,99 h 14.09466 l -0.29207,7.75 -0.29206,7.75 -9.57907,0.56325 c -11.93185,0.7016 -16.21973,2.68489 -20.42093,9.44536 -2.65728,4.27603 -3.03884,5.87179 -3.34002,13.96831 -0.18941,5.0921 0.18676,11.09705 0.84928,13.55749 1.42872,5.30582 6.501,10.45046 11.77095,11.93883 6.05283,1.70949 17.20188,2.34091 27.5864,1.56236 l 9.71541,-0.7284 -0.29101,-41.6536 L 745.5,81.5 l -3,-5.455434 c -2.37005,-4.309878 -4.04938,-5.989753 -7.9974,-8 -4.96586,-2.528509 -5.14098,-2.543144 -27.75,-2.3193 L 684,65.950532 v -8.863975 -8.863975 l 3.25,-0.59411 c 1.7875,-0.32676 14.5,-0.6363 28.25,-0.687867 26.49145,-0.09935 31.66073,0.549936 40.57176,5.096007 7.93725,4.049282 14.19203,12.546689 17.05646,23.171979 1.63916,6.080291 2.47784,104.584859 0.90386,106.160579 -1.33117,1.33266 -67.44058,1.92505 -75.55553,0.67704 z M 890,17.5 V 5 h 14 14 V 17.5 30 h -14 -14 z"
       id="path22"
       inkscape:connector-curvature="0" />
    <path
       style="fill:#737373"
       d="m 440,339.44956 v -53.55045 l 60.25,0.35241 c 66.44398,0.38864 65.05555,0.25863 71.83965,6.7271 C 578.73053,299.31053 579,301.54117 579,350.1815 V 393 h -10.45993 -10.45994 l -0.29006,-43.25 c -0.22419,-33.42647 -0.59015,-43.83008 -1.61123,-45.8039 -2.46293,-4.761 -4.61261,-5.3537 -20.92884,-5.77036 L 520,297.7863 V 345.39315 393 H 509.5 499 V 345.5 298 H 480 461 V 345.5 393 H 450.5 440 Z M 599.24124,339.75 599.5,286.5 610.25,286.21617 621,285.93234 V 339.46617 393 H 609.99124 598.98247 Z M 641,339.41997 v -53.58004 l 34.25,0.39104 c 36.298,0.41441 37.98569,0.62164 44.50923,5.46507 4.46356,3.31399 7.12466,8.98924 8.23963,17.57241 0.51666,3.97735 0.95328,24.44405 0.97026,45.48155 L 729,393 h -11 -11 l -0.006,-41.75 c -0.003,-25.92223 -0.40138,-43.17524 -1.04961,-45.50946 -1.83326,-6.60134 -3.79791,-7.19383 -25.14865,-7.58421 L 662,297.81266 V 345.40633 393 H 651.5 641 Z M 748.24124,339.75 748.5,286.5 759.25,286.21617 770,285.93234 V 339.46617 393 h -11.00876 -11.00877 z m -149.02877,-76 0.28753,-9.25 10.75,-0.28383 10.75,-0.28383 V 263.46617 273 h -11.03753 -11.03752 z m 149,0 0.28753,-9.25 10.75,-0.28383 10.75,-0.28383 V 263.46617 273 H 758.96247 747.92495 Z M 342.68685,246.78178 C 343.61969,244.4268 350.08317,228.55 357.05012,211.5 l 12.6672,-31 -2.43986,-6.5 C 364.80313,167.40817 320.7539,51.989031 319.46665,48.724669 c -0.65585,-1.663188 0.33377,-1.757939 15.66664,-1.5 L 351.5,47.5 l 7.1461,21 c 14.48408,42.56388 26.32119,76.80062 26.67591,77.15534 0.20056,0.20057 3.20879,-7.40234 6.68494,-16.89534 3.47615,-9.493 11.61023,-31.66 18.07572,-49.26 l 11.75545,-32 13.0356,-0.278709 13.03559,-0.27871 -4.8489,11.77871 C 440.39352,65.199581 426.85639,98.175 412.97791,132 c -13.87848,33.825 -30.50315,74.325 -36.94372,90 l -11.71011,28.5 -11.66666,0.28178 -11.66665,0.28177 z m 648.85207,-62.82384 c -28.69966,-4.51962 -39.88009,-17.10443 -43.60375,-49.08085 -1.70633,-14.65285 -0.67612,-40.8163 2.04025,-51.814627 6.78866,-27.486662 21.2245,-37.000709 56.20918,-37.045099 22.5899,-0.02866 35.6618,3.897571 44.6628,13.414812 6.0108,6.355568 7.4225,9.018095 10.6063,20.004953 3.5899,12.387963 5.0493,31.945631 3.6401,48.781581 -2.904,34.69404 -12.1246,48.43867 -36.4597,54.34818 -7.5993,1.8454 -29.0921,2.65137 -37.09518,1.39105 z m 25.80988,-19.18059 c 6.5455,-1.96108 12.0721,-8.07676 14.529,-16.07774 3.0467,-9.92165 4.431,-30.19712 3.1542,-46.19961 -2.0062,-25.144673 -5.8157,-32.942387 -18.0845,-37.017449 -11.8129,-3.923607 -25.865,-0.05713 -31.15437,8.572209 -4.79079,7.815937 -5.99919,14.568485 -6.52203,36.44524 -0.83825,35.07483 3.76716,49.58787 17.2289,54.29345 4.1757,1.45962 15.9536,1.45052 20.8488,-0.0161 z M 5,94.439337 V 4.8222353 L 44.25,5.2695516 C 85.795888,5.7430331 90.677267,6.2438967 99.975193,10.987345 108.47551,15.32388 115.05237,25.054364 118.57109,38.5 c 2.36202,9.025719 2.38871,30.595689 0.0513,41.5 -2.93474,13.691172 -10.46076,25.32275 -19.009444,29.37936 -6.851872,3.25143 -16.519177,4.58528 -33.362986,4.60328 L 50,114 v -8 -8 L 60.75,97.9944 C 73.42387,97.9878 77.849234,96.94926 82.462423,92.898826 88.496618,87.600756 89.503087,83.095828 89.477403,61.5 89.456681,44.07637 89.265333,42.026384 87.171082,36.791503 82.601715,25.369711 76.372825,22.881699 50.755936,22.246162 L 33.011872,21.805944 32.755936,102.65297 32.5,183.5 18.75,183.77822 5,184.05644 Z M 142.4714,182.77835 C 142.20323,182.07526 142.09996,141.9 142.24191,93.5 L 142.5,5.5 156.25,5.2217804 170,4.9435609 V 93.47178 c 0,48.69052 0.001,88.86572 0.003,89.27822 0.002,0.4125 -6.08265,0.87526 -13.52051,1.02835 -10.26386,0.21127 -13.64089,-0.0298 -14.01096,-1 z M 485.75,183.322 469,182.95164 v -8.47924 -8.47925 l 23.25,0.25342 c 24.98734,0.27237 28.14975,-0.17879 34.50105,-4.92203 4.30198,-3.21277 5.77665,-6.30064 7.83029,-16.3961 1.47271,-7.23973 1.55348,-9.80888 0.57267,-18.21635 -1.23653,-10.59948 -2.69163,-14.41662 -6.69651,-17.56686 -3.90726,-3.07345 -7.71159,-3.94362 -22.4575,-5.13675 -15.37908,-1.24436 -19.82978,-2.20556 -25.55752,-5.519557 -4.6826,-2.709292 -11.52437,-9.812821 -13.92793,-14.46079 -4.39267,-8.494476 -5.87889,-30.721449 -3.04469,-45.534449 2.75781,-14.413804 8.33053,-23.125758 17.71194,-27.689491 9.53279,-4.6373691 15.03888,-5.2678275 43.69908,-5.0036308 14.50949,0.133752 26.77199,0.4848998 27.25,0.7803286 C 552.6089,6.8763196 553,10.743691 553,15.17505 v 8.057016 l -19.75,-0.70016 c -28.18284,-0.999115 -34.37408,0.912435 -39.98939,12.346745 -2.50188,5.094506 -2.75422,6.605428 -2.69241,16.121349 0.0732,11.271383 1.41961,17.112362 4.80497,20.845014 4.36224,4.809752 7.21389,5.538187 27.99731,7.151746 15.58027,1.209602 22.223,3.723065 29.00686,10.975559 8.5877,9.18095 10.99933,17.746471 10.98827,39.027681 -0.0146,28.13683 -6.09569,43.32455 -19.87219,49.63164 -9.5724,4.38239 -22.85963,5.46168 -57.74342,4.69036 z m 124.9675,-0.34661 c -7.89519,-1.99888 -13.81426,-6.85105 -15.92027,-13.05067 -0.82719,-2.43505 -1.27517,-24.30331 -1.55021,-75.67472 L 592.86018,22 h 14.03913 14.03913 L 621.21922,34.25 621.5,46.5 637.25,46.775393 653,47.050786 V 55 62.949214 L 637.25,63.224607 621.5,63.5 621.22354,105 c -0.30312,45.50165 0.35572,56.02511 3.71785,59.38344 1.85935,1.85725 3.2792,2.11656 11.58921,2.11656 h 9.47026 l -4.3e-4,8.25 L 646,183 h -6.84638 c -3.7655,0 -10.853,0.20993 -15.75,0.46652 -4.89699,0.25658 -10.60574,0.0356 -12.68612,-0.49113 z M 824,182.96815 c -5.63092,-1.1834 -11.77707,-5.42853 -14.45203,-9.98199 -2.00626,-3.41516 -2.05404,-4.98814 -2.34578,-77.23616 L 806.90438,22 H 820.95219 835 V 34.5 47 h 15.54044 15.54044 l -0.29044,8.102179 -0.29044,8.10218 -15.3027,-0.147636 -15.30269,-0.147635 0.30269,48.795452 c 0.33409,53.85503 0.13838,52.26105 6.68156,54.4205 1.9068,0.6293 6.62236,0.91328 10.75801,0.64787 L 860,166.30037 V 174.65019 183 h -6.84638 c -3.7655,0 -10.853,0.20562 -15.75,0.45694 -4.89699,0.25131 -10.92862,0.0314 -13.40362,-0.48879 z m 66.66667,0.36518 C 890.3,182.96667 890,152.14167 890,114.83333 V 47 h 14 14 v 68.5 68.5 h -13.33333 c -7.33334,0 -13.63334,-0.3 -14,-0.66667 z m 205.33253,-67.47937 8e-4,-67.646041 14.25,-0.697841 c 24.0465,-1.177589 63.3758,-0.164826 69.2952,1.784412 11.1702,3.678279 18.5332,11.06431 22.363,22.432898 1.9709,5.850773 2.0601,8.334263 2.1093,58.737102 l 0.051,52.62802 -13.5741,0.0639 -13.5741,0.0639 0.017,-44.86017 c 0.01,-24.67309 -0.3848,-47.940431 -0.8752,-51.705207 -1.1447,-8.787178 -4.9814,-15.236665 -11.062,-18.59519 -5.2474,-2.898277 -15.0463,-3.704468 -31.4427,-2.586888 l -10.5414,0.718501 -0.2579,58.445594 -0.258,58.44559 -13.2508,0.20872 -13.2508,0.20872 8e-4,-67.64604 z m -867.46028,66.03369 c -11.92168,-1.73685 -16.67375,-3.71879 -22.14806,-9.23728 -7.9129,-7.97675 -9.79166,-13.85774 -9.79166,-30.65037 0,-11.61734 0.31139,-14.2872 2.2329,-19.14482 4.46146,-11.2787 10.22106,-16.84352 21.66917,-20.93638 4.86058,-1.73772 9.08188,-2.24271 22.24873,-2.661583 L 259,98.740262 V 106.87013 115 l -7.75,0.006 c -4.2625,0.003 -9.42353,0.47036 -11.46895,1.03843 -8.27872,2.29922 -13.55641,9.8837 -14.47013,20.79479 -1.15563,13.79996 2.96996,23.01241 11.95181,26.68842 5.04319,2.06403 20.1794,3.04115 31.16404,2.01181 l 7.65529,-0.71736 -0.29103,-41.66083 L 275.5,81.5 272.55033,76.175137 c -2.06744,-3.732211 -4.31067,-6.12499 -7.5,-8 L 260.5,65.5 h -23.40323 -23.40323 l 0.22302,-8.486455 c 0.12266,-4.66755 0.45392,-8.71755 0.73613,-9 C 214.9349,47.731095 228.29099,47.5 244.3329,47.5 c 26.17267,0 29.7752,0.199308 35.09023,1.941347 10.41718,3.414302 18.86068,11.697139 22.27666,21.852782 1.5621,4.644115 1.78513,10.881282 2.06678,57.800731 l 0.31572,52.59485 -11.29115,0.6506 c -15.55825,0.89647 -56.99568,0.60454 -64.25222,-0.45266 z m 470.55274,0.0288 c -9.9679,-1.29091 -16.69928,-3.81893 -21.55903,-8.09665 -8.15421,-7.17762 -12.34945,-20.74394 -11.21218,-36.25728 1.4579,-19.88694 9.14493,-30.82756 25.17955,-35.83691 5.9057,-1.844994 9.39969,-2.189893 22.35025,-2.206242 L 729.20051,99.5 l 0.008,7.5 0.008,7.5 -9.92702,0.55185 c -7.36974,0.40968 -10.80747,1.06606 -13.34484,2.54796 -8.0979,4.72943 -12.07975,16.11953 -10.09404,28.87411 2.34595,15.06854 9.43611,19.52608 31.05817,19.52608 5.39616,0 11.89901,-0.28617 14.45078,-0.63592 L 746,164.72815 V 124.4898 c 0,-42.879763 -0.18083,-44.721903 -5.06317,-51.57851 -1.15789,-1.626113 -3.97986,-3.958881 -6.27104,-5.183929 C 730.68006,65.596277 729.49503,65.505059 707.25,65.61704 L 684,65.73408 v -8.720304 -8.720304 l 7.65088,-0.646736 c 12.47005,-1.054105 46.82273,-0.738012 52.5499,0.483534 13.08265,2.790396 22.38052,10.193475 26.90276,21.42031 L 773.5,75.5 l 0.2831,53.09532 0.2831,53.09532 -11.2831,0.65013 c -15.19839,0.87573 -55.73847,0.60566 -63.69144,-0.42431 z M 890,17.5 V 5 h 14 14 V 17.5 30 h -14 -14 z"
       id="path20"
       inkscape:connector-curvature="0" />
    <path
       style="fill:#515151"
       d="M 440.24124,339.75 440.5,286.5 h 59 c 44.28988,0 60.02197,0.31113 63.09896,1.24787 6.3645,1.93759 10.55086,5.30226 13.34176,10.72307 l 2.55928,4.97094 0.29784,44.77906 L 579.09569,393 H 568.54784 558 l -0.006,-41.75 c -0.003,-25.92223 -0.40138,-43.17524 -1.04961,-45.50946 -1.76555,-6.35754 -4.14748,-7.19161 -21.64768,-7.58029 L 520,297.8205 V 345.41025 393 H 509.5 499 V 345.5 298 H 480 461 V 345.5 393 H 450.49124 439.98247 Z M 600,339.46502 v -53.53499 l 10.25,0.28499 10.25,0.28498 0.25876,53.25 0.25877,53.25 H 610.50876 600 Z M 641.24124,339.75 641.5,286.5 l 33,0.0381 c 22.78588,0.0263 34.26871,0.41253 37.09896,1.24788 6.4642,1.90789 10.68322,5.28144 13.40104,10.7155 l 2.5,4.99855 0.2889,44.75 0.2889,44.75 H 717.5389 707 v -42.53212 c 0,-47.67812 -0.085,-48.35196 -6.43189,-51.00387 C 697.94395,298.36757 692.66245,298 679.53212,298 H 662 V 345.5 393 H 651.49124 640.98247 Z M 749,339.46502 v -53.53499 l 10.25,0.28499 10.25,0.28498 0.25876,53.25 0.25877,53.25 H 759.50876 749 Z m -149,-76 v -9.53499 l 10.25,0.28499 10.25,0.28498 0.28753,9.25 0.28752,9.25 H 610.53753 600 Z m 149,0 v -9.53499 l 10.25,0.28499 10.25,0.28498 0.28753,9.25 0.28752,9.25 H 759.53753 749 Z M 350.97941,226.7813 c 5.43377,-13.35471 11.92785,-29.22313 14.43129,-35.26314 l 4.55171,-10.98184 -24.59459,-64.51816 C 331.84079,80.533172 320.38116,50.476386 319.90197,49.225302 l -0.87125,-2.274697 16.14025,0.274697 16.14026,0.274698 16.65893,48.731212 c 9.16241,26.802168 16.91536,48.987638 17.22877,49.301048 0.3134,0.31341 1.02456,-0.69064 1.58034,-2.23121 C 387.33505,141.76047 395.08438,120.7 404,96.5 412.91562,72.3 420.65695,51.2625 421.20294,49.75 L 422.19565,47 h 12.79256 12.79255 l -5.28973,12.75 c -2.90935,7.0125 -16.63505,40.425 -30.50155,74.25 -13.8665,33.825 -30.29746,73.875 -36.51325,89 l -11.30143,27.5 -11.53749,0.2813 -11.53749,0.28131 z M 992.5,183.92997 c -19.23391,-2.62501 -31.19749,-9.57603 -37.39711,-21.7283 -5.73187,-11.23539 -8.68448,-31.85371 -7.76185,-54.20167 1.3004,-31.498347 8.69316,-48.625212 24.11875,-55.876095 9.77881,-4.596585 16.11693,-5.612871 35.04021,-5.618526 16.049,-0.0048 18.8129,0.247255 25.5,2.325469 13.6522,4.242832 20.6409,10.001263 26.0698,21.480562 5.4597,11.544721 6.4361,18.541245 6.3757,45.68859 -0.049,22.09525 -0.2715,25.28523 -2.2647,32.5 -5.6192,20.33953 -13.7988,28.67081 -32.9604,33.57152 -8.9994,2.30165 -26.8525,3.20521 -36.7204,1.85845 z m 25.3358,-19.11679 c 4.4305,-1.36124 9.8126,-6.20374 12.288,-11.05588 6.4884,-12.71833 7.596,-53.62737 1.9436,-71.788479 -2.3353,-7.503414 -5.9453,-12.330623 -11.3753,-15.210889 -3.4265,-1.817511 -5.8358,-2.226741 -13.1921,-2.240769 -11.95197,-0.02279 -17.55918,2.563792 -22.10582,10.19732 -4.96848,8.341775 -5.89496,14.83812 -5.88797,41.285517 0.007,25.69412 1.05724,32.69145 6.04109,40.24146 6.06711,9.19105 19.0527,12.63837 32.2885,8.57172 z M 5.6943385,183.36101 C 5.3124523,182.97912 5,142.65089 5,93.742726 V 4.8187863 l 38.25,0.4031318 c 48.599707,0.5122115 54.898462,1.7062513 64.61663,12.2492199 9.37405,10.169644 12.59097,22.444606 11.88648,45.355883 -0.65216,21.209556 -3.51042,30.346715 -12.66768,40.495399 C 99.888332,111.29872 89.345547,114 65.412032,114 H 50 v -8 -8 L 61.75,97.97804 C 74.798851,97.953648 79.272161,96.63737 84.186382,91.376099 88.53776,86.717418 89.270207,83.463215 89.773997,66.550763 90.624434,38.001178 86.813207,28.234564 73.117631,23.86732 71.127934,23.232846 61.290171,22.510268 51.255936,22.261592 L 33.011871,21.809453 32.755936,102.65473 32.5,183.5 19.444338,183.77767 c -7.180613,0.15272 -13.3681134,-0.0348 -13.7499995,-0.41666 z M 143,94.5 V 5 H 156.5 170 V 94.5 184 H 156.5 143 Z m 346,88.55309 -19.5,-0.55309 -0.28967,-8.20232 -0.28967,-8.20233 23.28967,0.20233 c 26.4364,0.22966 29.61949,-0.31315 35.68704,-6.08563 5.54433,-5.2747 7.58698,-12.5286 7.52194,-26.71205 -0.0589,-12.85526 -1.35358,-18.21661 -5.55413,-23.00078 -3.86919,-4.40676 -6.80297,-5.18863 -25.98543,-6.92528 -13.77194,-1.24682 -16.32032,-1.76755 -21.53662,-4.40073 -6.84834,-3.457029 -13.63493,-10.355229 -16.29656,-16.564569 -2.99863,-6.995519 -4.40033,-18.518072 -3.7605,-30.912808 0.69586,-13.480142 2.11527,-19.933927 6.16131,-28.014429 C 476.08547,8.4271027 489.66594,4.6946394 533,5.9397222 L 552.5,6.5 l 0.29169,8.327187 0.29169,8.327187 -18.37718,-0.712964 c -10.10746,-0.39213 -20.92329,-0.394849 -24.0352,-0.006 -7.70177,0.962273 -14.2391,5.438487 -17.6199,12.064632 -2.30545,4.518534 -2.5478,6.107371 -2.51682,16.5 0.0399,13.379252 1.22745,17.705597 6.01365,21.907936 4.41695,3.878139 7.98554,4.752951 24.72571,6.061317 17.73319,1.385977 23.18868,3.333071 30.8751,11.019486 4.68589,4.685889 6.0269,6.840097 7.76887,12.479949 3.22763,10.44983 4.39862,23.86451 3.15866,36.18485 -1.8536,18.41736 -5.71904,29.19158 -12.65912,35.28506 -9.61127,8.43881 -21.74632,10.23968 -61.41715,9.11449 z m 123.46134,-0.0463 C 601.98316,181.47447 595.6636,175.65354 594.32883,166.30498 593.87297,163.11224 593.5,129.45 593.5,91.5 v -69 L 607.25,22.22178 621,21.943561 V 34.47178 47 h 15.5 15.5 v 6.418213 c 0,3.530016 0.27314,7.130016 0.60699,8 C 653.145,62.820249 651.38361,63 637.10699,63 H 621 l 0.073,44.25 c 0.0402,24.3375 0.41904,46.68706 0.84198,49.6657 0.58588,4.12624 1.43381,5.98756 3.56125,7.81751 2.56979,2.21044 3.49887,2.37652 11.66032,2.0843 l 8.86804,-0.31751 -0.002,8.25 -0.002,8.25 h -12.91821 c -7.10502,0 -13.51752,0.16731 -14.25,0.37181 -0.73249,0.2045 -3.59919,0.0402 -6.37045,-0.36503 z m 213.16025,-0.0388 c -6.7062,-1.15329 -13.47173,-5.57108 -16.03105,-10.46802 -2.05676,-3.93536 -2.09545,-5.18416 -2.39415,-77.278569 l -0.3036,-73.278568 13.8036,0.278568 L 834.5,22.5 834.78078,34.75 835.06156,47 H 850.53078 866 v 8 8 h -15.54446 -15.54446 l 0.29667,48.75 c 0.16317,26.8125 0.68771,49.55414 1.16564,50.53699 1.66763,3.42938 6.26522,4.8498 14.94626,4.6176 l 8.18035,-0.2188 0.29044,8.1571 0.29044,8.15711 -12.79044,0.0137 c -7.03474,0.008 -13.69044,0.18909 -14.79044,0.4035 -1.1,0.21441 -4.19529,0.0123 -6.87841,-0.44913 z m 65.07275,0.39299 C 890.31245,182.97912 890,152.14167 890,114.83333 V 47 h 14.00694 14.00694 l -0.25694,68.25 -0.25694,68.25 -13.05566,0.27767 c -7.18062,0.15272 -13.36812,-0.0348 -13.75,-0.41666 z M 228,181.52172 c -11.54759,-1.96038 -15.74201,-3.54248 -20.50363,-7.73383 -8.11761,-7.1454 -12.31124,-20.73855 -11.17592,-36.22536 1.44532,-19.71534 8.66211,-30.10061 24.76247,-35.63423 5.18671,-1.78264 9.43688,-2.300086 22.16708,-2.698766 L 259,98.736281 V 106.86814 115 h -8.35078 c -9.58911,0 -13.97372,1.1908 -17.9908,4.88606 -4.6946,4.31851 -6.94192,9.81342 -7.44302,18.19892 -0.90202,15.09448 4.56266,24.41492 15.71733,26.80717 5.54833,1.18991 26.8007,1.51116 31.94227,0.48285 L 276,164.75 v -39.71607 c 0,-42.278162 -0.30153,-45.435543 -4.96455,-51.984146 -1.21213,-1.702285 -4.07848,-4.097375 -6.36966,-5.322423 -3.96731,-2.12124 -5.27352,-2.226669 -27.41579,-2.212833 L 214,65.529058 v -8.610852 -8.610852 l 12.157,-0.653677 c 20.04661,-1.077897 40.78167,-0.737928 47.97407,0.786576 14.43604,3.059867 22.42361,9.775387 27.42772,23.059748 1.74046,4.62038 1.90833,8.99295 2.21101,57.591429 l 0.32754,52.59143 -15.79867,0.65524 C 264.4274,183.32814 236.40599,182.94876 228,181.52172 Z m 469.73087,-0.0802 c -10.19632,-1.58694 -16.94812,-4.30269 -21.39498,-8.60563 -6.82991,-6.60883 -11.2038,-22.65054 -9.86907,-36.19589 C 669.1602,109.30638 682.89341,99.136899 717.25,99.034888 L 729,99 v 8 8 h -8.78811 c -10.60013,0 -16.16628,2.31234 -20.46287,8.50086 -5.90991,8.51224 -6.05705,26.47331 -0.27894,34.0488 5.0126,6.57186 9.04212,7.8245 26.52992,8.24723 9.74054,0.23546 16.55423,-0.0319 18.33716,-0.71949 l 2.83716,-1.09418 -0.34733,-40.24161 C 746.49675,85.480048 746.37723,83.278582 744.39799,79 738.3803,65.99137 734.29702,64.55104 705.33141,65.219702 L 684,65.712131 v -8.749613 -8.749612 l 16.42446,-0.72449 c 24.21819,-1.068275 41.62427,-0.239407 49.67896,2.365685 7.53469,2.436908 14.56291,7.992115 18.33823,14.494797 C 773.73806,73.47154 774,76.623706 774,131.23778 v 50.4491 l -15.75,0.65323 c -24.24018,1.00536 -50.82173,0.61065 -60.51913,-0.89863 z M 1096,115.61189 V 48.223786 l 23.25,-0.725501 c 33.926,-1.058639 52.6314,-0.334661 60.9033,2.357212 7.7337,2.516711 15.7266,9.033871 19.049,15.531938 4.6175,9.031081 4.7733,11.174623 4.7858,65.862565 L 1204,183 h -13.4484 -13.4483 l -0.3017,-49.75 c -0.3007,-49.602537 -0.3085,-49.765213 -2.6242,-54.882434 -4.8533,-10.724933 -10.5107,-13.371809 -28.5531,-13.358874 -6.6684,0.0048 -14.4868,0.292462 -17.3743,0.639291 L 1123,66.278582 V 124.63929 183 H 1109.5 1096 Z M 890.4329,28.685735 c -0.27738,-0.722846 -0.37576,-6.235346 -0.21862,-12.25 L 890.5,5.5 904.25,5.2217804 918,4.9435609 V 17.47178 30 h -13.53138 c -10.25551,0 -13.65349,-0.318177 -14.03572,-1.314265 z"
       id="path18"
       inkscape:connector-curvature="0" />
    <path
       style="fill:#343434"
       d="M 440.24124,339.75 440.5,286.5 H 499 c 65.46916,0 66.53249,0.0992 73.26507,6.83174 6.0119,6.0119 6.10134,6.77633 6.4837,55.41826 L 579.09661,393 H 568.5483 558 v -42.53212 c 0,-47.67812 -0.085,-48.35196 -6.43189,-51.00387 C 549.05672,298.41469 544.08958,298 534.03212,298 H 520 V 345.5 393 H 509.5 499 V 345.5 298 H 480 461 V 345.5 393 H 450.49124 439.98247 Z M 600,339.46502 v -53.53499 l 10.25,0.28499 10.25,0.28498 0.25876,53.25 0.25877,53.25 H 610.50876 600 Z M 641.24124,339.75 641.5,286.5 675,286.5581 c 32.4708,0.0563 33.67858,0.12836 39.31279,2.34534 6.92328,2.72421 10.99135,7.62467 12.61521,15.19643 0.6662,3.10639 1.072,20.87892 1.072,46.94936 V 393 H 717.5 707 v -43.04966 c 0,-37.12177 -0.21569,-43.46677 -1.56642,-46.07878 C 702.82495,298.82702 699.17668,298 679.53212,298 H 662 V 345.5 393 H 651.49124 640.98247 Z M 749,339.46502 v -53.53499 l 10.25,0.28499 10.25,0.28498 0.25876,53.25 0.25877,53.25 H 759.50876 749 Z m -149,-76 v -9.53499 l 10.25,0.28499 10.25,0.28498 0.28753,9.25 0.28752,9.25 H 610.53753 600 Z m 149,0 v -9.53499 l 10.25,0.28499 10.25,0.28498 0.28753,9.25 0.28752,9.25 H 759.53753 749 Z m -393.33596,-47.8033 14.38702,-35.33828 -25.12191,-65.91172 C 331.11209,78.160273 319.59206,48.151192 319.32907,47.724871 c -0.26299,-0.42632 6.80084,-0.65132 15.69741,-0.5 L 351.20206,47.5 367.60103,95.472942 C 376.62046,121.85806 384,144.05806 384,144.80628 c 0,5.21229 4.39854,-5.33433 20.26559,-48.59187 L 422.31763,47 h 12.34119 C 441.44647,47 447,47.255166 447,47.567036 447,48.36092 434.92795,77.894469 379.78687,212 c -8.25438,20.075 -15.23136,37.0625 -15.5044,37.75 -0.35607,0.89655 -3.67879,1.25 -11.75095,1.25 h -11.25451 z m 640.21272,-31.67065 c -24.99685,-2.39621 -36.49345,-9.99194 -43.12299,-28.49107 -4.07882,-11.38157 -5.19225,-20.29704 -5.12038,-41 0.14866,-42.827497 8.71167,-58.857802 35.36661,-66.207679 9.26977,-2.556063 37.6824,-2.504724 47,0.08492 21.7541,6.046111 30.4927,17.85221 34.0331,45.979239 1.7853,14.18338 0.7525,42.64184 -1.9375,53.39076 -5.2194,20.85539 -15.3132,30.8107 -35.1417,34.6595 -9.7363,1.88986 -21.5873,2.49403 -31.07714,1.58433 z m 25.01574,-20.73352 c 6.5786,-3.36402 10.3457,-9.35727 12.8149,-20.3877 2.1001,-9.38175 2.3691,-44.073224 0.4176,-53.86985 -3.5547,-17.8454 -11.2487,-25 -26.8847,-25 -9.07187,0 -14.01138,1.731828 -18.9204,6.633624 -5.56852,5.560317 -8.06605,13.751097 -9.48328,31.100846 -2.03945,24.96709 1.49759,49.02083 8.35723,56.83353 7.63914,8.7005 21.95825,10.69317 33.69865,4.68955 z M 5,93.893054 V 4.7861088 l 37.75,0.5094829 c 46.694608,0.6302015 53.786638,1.7737946 63.08255,10.1720903 4.93386,4.457448 8.23804,9.933102 11.18298,18.532318 3.08159,8.998246 3.91693,31.748436 1.61559,44 -2.0314,10.814463 -7.17791,21.40576 -13.01668,26.78775 -7.124076,6.56674 -14.257477,8.29887 -36.86444,8.95142 L 50,114.28038 V 106.14019 98 H 62.184276 C 72.556702,98 75.020129,97.684577 78.750259,95.878851 87.626576,91.5819 90.200376,83.92103 90.300422,61.5 90.379422,43.795366 88.749153,36.403489 83.382682,30.133975 78.031943,23.88284 73.636255,22.786851 51.75,22.246912 L 33,21.784345 V 102.39217 183 H 19 5 Z M 143,94 V 5 h 13.5 13.5 v 89 89 H 156.5 143 Z m 85.81638,87.47311 c -16.0575,-2.19016 -22.81439,-6.26846 -27.86805,-16.82051 -7.97034,-16.64204 -5.77229,-40.95865 4.7614,-52.67465 8.25919,-9.1862 16.21026,-11.83598 38.04027,-12.677346 L 259,98.712845 V 106.85642 115 h -9.18428 c -11.48527,0 -16.31626,2.02077 -20.71801,8.6662 -3.51314,5.30387 -4.52822,10.72387 -3.88513,20.74454 0.89709,13.97866 6.8265,19.80674 21.8135,21.44076 7.92012,0.86352 22.61566,0.63988 27.72392,-0.42192 L 277,164.9619 276.9802,129.23095 C 276.9693,109.57893 276.50808,90.370404 275.95528,86.545343 274.32302,75.251239 269.12284,68.234713 260.61945,65.852934 256.52413,64.705844 219.40919,64.502039 215.75,65.606547 214.17428,66.08217 214,65.242859 214,57.178707 v -8.956068 l 22.66962,-0.739155 c 25.48394,-0.830917 33.23229,-0.375317 42.54717,2.501757 8.09878,2.501459 14.02398,6.748408 17.86632,12.805874 6.33673,9.989885 6.29819,9.60453 6.68103,66.797585 l 0.34868,52.08869 -23.30641,0.659 c -30.89105,0.87347 -40.4165,0.7153 -51.99003,-0.86328 z M 473.75,182.26496 469,181.89042 v -7.87733 -7.87733 l 21.75,0.57836 c 25.52087,0.67863 30.69772,-0.22512 37.35389,-6.52106 3.26816,-3.09128 4.2296,-4.98197 5.90024,-11.60302 3.62144,-14.35238 2.11423,-31.10777 -3.359,-37.34143 -4.50317,-5.12883 -7.83805,-6.12858 -25.64555,-7.68823 -12.85843,-1.12618 -17.01434,-1.87834 -21.35275,-3.864526 -15.91392,-7.285638 -22.71301,-22.687733 -21.32336,-48.304205 1.48126,-27.305121 9.864,-39.779847 29.53255,-43.9486961 6.97934,-1.4793065 45.621,-2.0288998 55.89398,-0.7949699 L 553,7.2785819 v 7.8144601 7.81446 l -20.28652,-0.604705 c -24.67264,-0.735449 -28.90726,-0.0054 -35.23466,6.074637 -5.9409,5.708626 -7.89167,12.60181 -7.26272,25.663294 0.8411,17.467115 5.04732,22.339853 20.71636,23.999087 4.98715,0.528102 13.12319,1.389343 18.0801,1.913869 18.58608,1.966726 28.74891,10.995486 32.54719,28.915246 1.82636,8.61654 1.84205,30.86682 0.0284,40.2931 -3.98125,20.69221 -11.01577,28.70085 -28.45708,32.39772 -6.25116,1.325 -45.59513,1.79225 -59.38107,0.70521 z m 133.75,-0.47151 c -4.42098,-1.54536 -9.26298,-5.45955 -11.25105,-9.09514 -1.613,-2.9497 -1.77078,-8.93103 -2.02976,-76.94831 L 593.93838,22 H 607.46919 621 V 34.5 47 h 15.5 15.5 v 8 8 h -15.55301 -15.553 l 0.303,48.25 c 0.32516,51.77772 0.37985,52.3249 5.46033,54.63973 1.34023,0.61065 6.24061,1.11027 10.88973,1.11027 H 646 v 8 8 l -17.75,-0.0789 c -9.7625,-0.0434 -19.1,-0.55084 -20.75,-1.1276 z m 91.43615,-0.30529 c -14.65309,-2.0006 -21.61209,-5.66632 -26.45949,-13.93778 -7.16261,-12.22206 -8.00984,-33.92732 -1.85927,-47.63261 C 677.26433,105.10641 691.40952,99 719.07236,99 H 729 v 8 8 h -8.2566 c -10.01942,0 -14.1785,1.0924 -18.00971,4.7303 -4.66729,4.43182 -6.99887,9.98896 -7.51658,17.91523 -0.9696,14.84484 3.91795,23.8597 14.65647,27.0332 4.25897,1.25863 9.25011,1.63102 20.53621,1.53222 8.20038,-0.0718 15.31169,-0.53243 15.80291,-1.02365 0.50483,-0.50483 0.76143,-18.45626 0.59021,-41.29021 C 746.50242,83.823081 746.481,83.457954 744.12372,78.242721 741.25173,71.888719 736.50062,67.496585 730.76313,65.891622 726.53236,64.708136 689.50333,64.473626 685.75,65.606547 684.17475,66.082029 684,65.245036 684,57.224429 v -8.910346 l 16.65971,-0.657041 c 41.8506,-1.650544 53.9246,0.499157 63.72372,11.345605 C 773.45117,69.039556 774,73.235503 774,132.52394 v 49.15663 l -23.25,0.65741 c -30.77646,0.87024 -40.36773,0.71292 -51.81385,-0.84982 z m 122.71231,0.49662 c -4.67444,-1.41982 -9.39354,-5.19169 -11.84517,-9.4676 L 807.5,168.5 l -0.3192,-73.27867 -0.31921,-73.27867 13.66169,0.27867 13.66169,0.27867 0.15751,12 0.15752,12 15.75,0.275393 15.75,0.275393 V 55 62.949214 L 850.25,63.224607 834.5,63.5 834.5301,110 c 0.0319,49.34755 0.29079,52.36026 4.76897,55.4969 1.53683,1.07643 4.79141,1.5031 11.46554,1.5031 h 9.31956 l -0.29207,7.75 -0.29206,7.75 -17.5,0.17546 c -9.625,0.0965 -18.78319,-0.21431 -20.35154,-0.69068 z M 890.76374,115.00014 891.02747,47 H 904.51374 918 v 68 68 l -13.75,1.4e-4 -13.75,1.3e-4 z M 1096,115.65972 V 48.31943 l 23.25,-0.657414 c 45.2554,-1.279637 55.5212,-0.600155 66.1065,4.375536 6.045,2.841462 12.9318,10.563719 15.8395,17.760816 2.2909,5.670531 2.3051,5.994823 2.6021,59.451632 l 0.2986,53.75 h -13.505 -13.5051 l -0.2973,-50.25 c -0.3277,-55.403605 -0.1155,-53.496151 -6.7999,-61.109287 -5.257,-5.987426 -9.1829,-6.918722 -28.3899,-6.734666 -9.2953,0.08907 -17.2828,0.398211 -17.75,0.68697 C 1123.3823,65.881777 1123,92.416476 1123,124.55902 V 183 H 1109.5 1096 Z M 890.91667,29.587076 c -0.22917,-0.227108 -0.27771,-5.852108 -0.10787,-12.5 L 891.1176,5 H 904.5588 918 V 17.5 30 h -13.33333 c -7.33334,0 -13.52084,-0.185816 -13.75,-0.412924 z"
       id="path16"
       inkscape:connector-curvature="0" />
    <path
       style="fill:#000000"
       d="m 441,339.96333 v -53.03666 l 60.75,0.28666 c 60.00799,0.28317 60.79886,0.31296 64.75,2.43935 5.02414,2.70385 7.9083,5.77421 10.20227,10.86097 1.62669,3.60707 1.82694,8.19645 2.10473,48.23635 l 0.307,44.25 h -9.98156 -9.98156 l -0.32544,-42.75 C 558.40389,294.87457 559.86277,298.03984 534.75,298.01474 L 520,298 V 345.5 393 H 510 500 V 345.5 298 H 480.5 461 V 345.5 393 H 451 441 Z M 600,340 v -53 h 10 10 v 53 53 h -10 -10 z m 42,0 v -53 h 32.8185 c 35.88414,0 40.07694,0.51825 45.55718,5.63111 1.58163,1.4756 3.83163,4.74975 5,7.2759 2.04864,4.42936 2.13495,6.16945 2.42262,48.84299 L 728.09661,393 H 718.0483 708 v -39.36351 c 0,-42.41918 -0.53548,-48.6251 -4.54163,-52.63501 -2.47091,-2.47323 -2.71913,-2.50497 -21.97875,-2.81091 L 662,297.88115 V 345.44057 393 h -10 -10 z m 107,0 v -53 h 10 10 v 53 53 H 759 749 Z M 600,264 v -9 h 10 10 v 9 9 h -10 -10 z m 149,0 v -9 h 10 10 v 9 9 H 759 749 Z M 342,250.31333 c 0,-0.37767 6.33784,-16.18366 14.08409,-35.12442 7.74626,-18.94076 13.87972,-35.16926 13.62992,-36.06333 C 369.46421,178.23151 363.8443,163.325 357.22533,146 350.60635,128.675 339.68943,100.1 332.9655,82.5 326.24157,64.9 320.52115,49.7125 320.25346,48.75 319.80505,47.137747 320.98502,47 335.24434,47 h 15.47761 l 16.79451,49.25 c 9.23699,27.0875 17.1598,49.66275 17.60625,50.16722 0.4728,0.53425 1.01423,0.32548 1.29674,-0.5 1.88557,-5.5097 33.93758,-92.835949 35.06212,-95.527343 L 422.89795,47 h 12.15801 c 11.16762,0 12.10344,0.142555 11.48805,1.75 -0.36848,0.9625 -10.36877,25.375 -22.22287,54.25 -21.13889,51.49152 -40.21518,97.97179 -53.86722,131.25 L 363.58241,251 H 352.7912 C 346.85604,251 342,250.691 342,250.31333 Z M 985.5,182.3873 c -14.7995,-3.06487 -24.77378,-9.96544 -30.31644,-20.974 -5.78614,-11.49217 -8.86605,-36.74732 -7.18395,-58.90818 C 951.2476,59.714361 964.81872,46.643733 1006,46.643733 c 17.4799,0 25.4985,1.440618 35.708,6.415331 16.849,8.209857 24.3827,30.592314 23.0248,68.405816 -1.7072,47.53869 -16.1651,62.72939 -59.4406,62.45359 -7.03573,-0.0448 -15.9422,-0.73386 -19.7922,-1.53117 z m 35.0443,-18.43824 c 10.7141,-5.47594 14.496,-16.30202 15.2215,-43.57297 0.6569,-24.69359 -1.8766,-40.196682 -7.9006,-48.344487 -3.7326,-5.048615 -11.995,-8.481489 -20.3296,-8.446571 -8.707,0.03648 -13.69711,1.662649 -18.54676,6.044015 -8.08578,7.305016 -10.48926,18.172532 -10.36605,46.870953 0.0774,18.02212 0.3879,22.09735 2.18984,28.73853 4.30025,15.84888 12.17675,21.94463 27.73167,21.46197 5.2587,-0.16318 8.3004,-0.86061 12,-2.75144 z M 5.75959,94.250083 6.0191799,5.5 45.75959,6.0759311 c 42.888347,0.6215521 46.673315,1.0591805 55.8959,6.4628369 11.28873,6.614244 18.38892,24.17674 18.31363,45.2992 -0.0685,19.226745 -3.35926,32.396768 -10.52802,42.134847 C 101.62556,110.58947 93.855748,113 67.450779,113 H 50 v -6.87675 -6.876743 L 61.75,98.806182 C 75.337419,98.297001 81.107785,96.347377 85.301763,90.84879 88.64466,86.466026 89.82975,81.132661 90.601038,67 91.395128,52.449534 89.919142,41.31725 86.228537,34.021406 c -2.372168,-4.689465 -3.622238,-5.913793 -8.678713,-8.5 C 71.736238,22.547964 71.343413,22.492063 52.804452,22 42.443547,21.725 33.523993,21.65 32.983222,21.833333 32.349841,22.048063 32,50.779764 32,102.58333 V 183 l -13.25,8e-5 -13.25,9e-5 z M 143,94.25 V 5.5 H 156.5 170 V 94.25 183 H 156.5 143 Z m 91.541,87.59392 c -22.75472,-2.12172 -30.80464,-7.26773 -35.60166,-22.75879 -2.32032,-7.49301 -2.81471,-23.27807 -0.98376,-31.40972 2.25037,-9.99436 8.77228,-18.89772 16.9351,-23.11888 6.01086,-3.10834 15.33566,-4.52668 29.85932,-4.54175 L 259,100 v 6.86374 6.86374 l -9.37098,0.49017 c -11.732,0.61366 -16.62756,2.98331 -21.08805,10.20749 -2.93209,4.74879 -3.04097,5.34225 -3.04097,16.57475 0,11.10793 0.13126,11.84788 2.82288,15.91355 2.02498,3.05872 4.42755,5.01617 8.5,6.92525 5.46628,2.56247 6.28342,2.65666 22.0023,2.53613 9.11991,-0.0699 16.75671,-0.55671 17.30291,-1.10291 0.61487,-0.61487 0.86531,-15.97023 0.67482,-41.37482 -0.29849,-39.807551 -0.3368,-40.471991 -2.62548,-45.529524 -2.73132,-6.035691 -6.15904,-9.577037 -11.67743,-12.064518 -3.54653,-1.598641 -6.52242,-1.766943 -26.25,-1.484571 L 214,65.136954 V 56.568477 48 l 17.25,-0.25 c 39.51384,-0.572664 44.34502,-0.08296 55.14904,5.590041 7.11911,3.738124 11.68917,9.500854 14.79804,18.659959 2.13992,6.304444 2.21744,8.041994 2.57683,57.75367 0.30268,41.86756 0.1284,51.3294 -0.95169,51.66721 -2.77034,0.86647 -59.74027,1.21942 -68.28122,0.42304 z m 244.959,0.47222 -10,-0.37971 0.17737,-7.71821 c 0.15675,-6.82097 0.38925,-7.69419 2,-7.51151 1.00245,0.11369 11.09332,0.28314 22.42417,0.37655 21.84542,0.18009 25.06665,-0.2944 32.11996,-4.73134 6.99857,-4.40249 10.20154,-15.10796 9.57281,-31.99577 -0.35027,-9.40808 -0.80329,-11.90024 -2.90849,-16 -3.66043,-7.1285 -7.9483,-9.15818 -22.04738,-10.43621 -25.03516,-2.26934 -29.92116,-3.82606 -38.01227,-12.111036 -5.67215,-5.808051 -8.35393,-12.475683 -9.85513,-24.50252 -1.81432,-14.535465 0.80519,-34.12725 5.87972,-43.975459 C 473.13588,15.01475 482.75696,9.0282088 495,7.0600376 502.34706,5.878937 525.39364,5.6760078 541.34444,6.6519666 L 552,7.3039332 l 7.3e-4,7.5980338 7.3e-4,7.598033 -20.82799,-0.335057 c -24.19576,-0.389234 -27.43141,0.188093 -33.76284,6.024201 -5.51789,5.08621 -7.41985,10.942429 -7.38618,22.742357 0.044,15.440811 3.14753,22.491318 11.20835,25.463172 2.34696,0.865276 11.36184,2.225733 20.03307,3.023237 18.25029,1.678503 23.83323,3.628557 31.05009,10.845422 7.41498,7.414978 10.66253,19.233998 10.67649,38.855678 0.0154,21.59418 -5.51703,39.62646 -14.05516,45.81146 -8.28676,6.00289 -14.92476,7.30657 -38.43729,7.54892 -11.55,0.11906 -25.5,0.0456 -31,-0.16325 z m 129.26404,-0.31185 c -4.76776,-1.4356 -9.5868,-4.98219 -11.96363,-8.8047 L 594.5,169.5 594.2019,96.25 593.90381,23 H 607.4519 621 v 12 12 h 15.5 15.5 v 8 8 H 636.5 621 l 0.0239,46.25 c 0.0131,25.4375 0.44091,48.05 0.95064,50.25 1.47295,6.35717 3.70319,7.5 14.63628,7.5 h 9.38922 v 8 8 l -17.25,-0.0859 c -9.4875,-0.0473 -18.48118,-0.45667 -19.98596,-0.90976 z M 709.5,182.40347 c -21.92439,-2.20126 -29.62004,-5.08444 -35.6353,-13.35076 -5.29427,-7.27554 -7.2404,-16.19026 -6.62919,-30.36665 0.57357,-13.30339 2.8299,-20.20667 8.83393,-27.02761 C 683.67627,103.01664 693.76233,100 715.04922,100 H 729 v 6.86129 6.8613 l -8.9149,0.5083 c -11.34791,0.64703 -16.7855,3.09161 -20.98739,9.43531 -3.5193,5.31317 -4.52822,10.72384 -3.8808,20.81198 0.59161,9.2186 3.95856,15.55037 9.87364,18.56801 6.16497,3.14514 17.61808,4.40995 30.40945,3.35824 l 11,-0.90443 0.30654,-38.5 c 0.20167,-25.32846 -0.069,-40.249328 -0.79111,-43.613231 C 744.34858,75.621969 740.45301,70.375076 734,67.203329 L 728.5,64.5 706.25,64.818477 684,65.136954 V 56.728567 48.32018 l 25.25,-0.610039 c 28.1929,-0.68114 36.3643,0.156502 46.00132,4.715542 9.5415,4.51385 15.60718,13.626555 17.68864,26.574317 0.62147,3.865856 1.04799,26.05345 1.05249,54.75 L 774,182 l -17.75,0.004 c -9.7625,0.002 -23.375,0.18337 -30.25,0.40254 -6.875,0.21916 -14.3,0.21776 -16.5,-0.003 z M 822,181.82505 c -4.21396,-1.19745 -9.40627,-4.98965 -11.77057,-8.59662 -1.58784,-2.4224 -1.77037,-8.68011 -2.22943,-76.433763 l -0.5,-73.795356 13.25,3.44e-4 L 834,23 v 12 12 h 16 16 v 8 8 h -16 -16 l 0.006,43.75 c 0.006,46.36182 0.55913,54.09352 4.14164,57.90693 2.00344,2.13257 3.03901,2.34307 11.52688,2.34307 h 9.32569 v 8 8 l -16.75,-0.0902 c -9.2125,-0.0496 -18.325,-0.53774 -20.25,-1.08476 z m 69,-66.85408 V 46.94195 l 13.009,0.279025 13.00901,0.279025 0.24099,67.75007 0.241,67.75007 -13.25,-7e-5 L 891,183 Z m 205,0.68917 V 48.320271 l 33.8001,-0.613019 c 35.3522,-0.641168 43.284,-0.144305 52.4514,3.285655 10.8742,4.068557 18.5957,14.301796 20.7556,27.507093 0.5466,3.342389 0.9839,27.81456 0.9871,55.25 l 0.01,49.25 h -13.4648 -13.4649 l -0.2851,-50.25 -0.2852,-50.25 -2.8485,-5.800994 C 1168.3629,65.928723 1161.809,63.717858 1138.06,64.692733 L 1123,65.310934 V 124.15547 183 H 1109.5 1096 Z M 890.99985,17.25 890.9997,5.5 904.06754,5.6886109 917.13538,5.8772218 917.31769,17.438804 917.5,29.000386 904.25,29.000193 891,29 Z"
       id="path14"
       inkscape:connector-curvature="0" />
  </g>
</svg>
