<svg xmlns="http://www.w3.org/2000/svg" viewBox="0 0 176.331 439.301"><linearGradient id="a" gradientUnits="userSpaceOnUse" x1="428.419" y1="1056.09" x2="471.309" y2="1098.98" gradientTransform="rotate(90 696.663 414.364)"><stop offset="0" stop-color="#999"/><stop offset="1" stop-color="#e6e6e6"/></linearGradient><ellipse transform="rotate(-45.001 89.104 83.224)" cx="89.104" cy="83.222" rx="83.222" ry="83.222" fill="#231f20"/><g fill="#38383a"><path d="M89.104 160.329L106 144.006h-8.253v-18.674H80.461v18.674h-8.252zM143.627 137.745l.405-23.489-5.836 5.836-13.204-13.205-12.223 12.223 13.204 13.205-5.835 5.835zM166.211 83.223l-16.323-16.896v8.252h-18.674v17.287h18.674v8.252zM143.627 28.7l-23.488-.405 5.835 5.835-13.205 13.205 12.223 12.223 13.205-13.204 5.835 5.835zM89.105 6.116L72.21 22.438h8.252v18.675h17.286V22.439l8.252-.001zM34.583 28.699l-.406 23.489 5.835-5.835 13.205 13.205 12.224-12.223L52.236 34.13l5.835-5.835zM11.998 83.221l16.322 16.896v-8.252h18.675V74.579H28.321v-8.252zM34.581 137.744l23.489.405-5.835-5.835L65.44 119.11l-12.223-12.224-13.205 13.205-5.835-5.835z"/></g><path d="M88.166 166.433c-45.529-.504-82.284-37.562-82.284-83.21C5.882 37.575 42.636.517 88.166.013 87.853.008 87.541 0 87.227 0 41.265 0 4.005 37.26 4.005 83.222c0 45.962 37.26 83.222 83.222 83.222.314 0 .626-.008.939-.011z" fill="#6d6e70"/><ellipse transform="rotate(-76.691 89.046 83.226)" cx="89.04" cy="83.222" rx="28.159" ry="28.159" fill="#9e9e9b"/><circle cx="89.04" cy="83.222" r="22.436" fill="#565656"/><path d="M117.022 83.287c0-15.49-12.557-28.047-28.047-28.047S60.928 67.797 60.928 83.287s12.557 28.047 28.047 28.047 28.047-12.557 28.047-28.047zm-54.584-.346c0-14.847 12.036-26.883 26.883-26.883s26.883 12.036 26.883 26.883-12.036 26.883-26.883 26.883-26.883-12.036-26.883-26.883z" fill="#c9c9c7"/><path d="M60.929 83.286c0 15.49 12.556 28.047 28.047 28.047 15.49 0 28.047-12.557 28.047-28.047s-12.557-28.047-28.047-28.047c-15.491.001-28.047 12.558-28.047 28.047zm54.583.346c0 14.847-12.036 26.883-26.883 26.883S61.746 98.479 61.746 83.632c0-14.846 12.036-26.883 26.883-26.883 14.847.001 26.883 12.037 26.883 26.883z" fill="#9a9a9b"/><circle cx="110.354" cy="83.636" r="38.358" fill="#f7e555"/><g><circle cx="143.166" cy="321.85" r="33.166" fill="#f7e555"/><circle cx="143.166" cy="321.85" r="26.533" fill="#e0d04d"/><circle cx="113.166" cy="237.564" r="33.166" fill="#f7e555"/><circle cx="113.166" cy="237.564" r="26.533" fill="#e0d04d"/><circle cx="113.166" cy="406.135" r="33.166" fill="#f7e555"/><circle cx="113.166" cy="406.135" r="26.533" fill="#e0d04d"/><g><circle cx="63.166" cy="321.85" r="33.166" fill="#f7e555"/><circle cx="63.166" cy="321.85" r="26.533" fill="#e0d04d"/></g><g><circle cx="33.166" cy="237.564" r="33.166" fill="#f7e555"/><circle cx="33.166" cy="237.564" r="26.533" fill="#e0d04d"/></g><g><circle cx="33.166" cy="406.135" r="33.166" fill="#f7e555"/><circle cx="33.166" cy="406.135" r="26.533" fill="#e0d04d"/></g></g></svg>