<svg enable-background="new 0 0 681 258.1" viewBox="0 0 681 258.1" xmlns="http://www.w3.org/2000/svg" xmlns:xlink="http://www.w3.org/1999/xlink"><linearGradient id="a" gradientTransform="matrix(60.9428 60.9428 60.9428 -60.9428 -10594.291 35678.3633)" gradientUnits="userSpaceOnUse" x1="-204.2109" x2="-203.2109" y1="379.6414" y2="379.6414"><stop offset="0" stop-color="#a6a8ab"/><stop offset="1" stop-color="#e6e7e8"/></linearGradient><linearGradient id="b" gradientTransform="matrix(0 3.3813 -3.3813 0 927.9878 -933.85)" gradientUnits="userSpaceOnUse" x1="301.112" x2="326.4869" y1="236.858" y2="236.858"><stop offset="0" stop-color="#231f20"/><stop offset=".2075" stop-color="#231f20"/><stop offset=".5" stop-color="#231f20"/><stop offset=".7925" stop-color="#231f20"/><stop offset="1" stop-color="#231f20"/></linearGradient><linearGradient id="c" gradientTransform="matrix(0 3.3813 -3.3813 0 927.9878 -933.85)" gradientUnits="userSpaceOnUse" x1="301.1177" x2="326.4925" y1="236.858" y2="236.858"><stop offset="0" stop-color="#fff"/><stop offset=".5" stop-color="#fff"/><stop offset="1" stop-color="#fff"/></linearGradient><path d="m-110117.5-110799.8v221590.8h221590.8v-221590.8z" fill="none"/><path d="m33-2.7h682v257.7h-682z" fill="none"/><path d="m456.3 178.2c0-28.1 22.7-51.1 51.1-51.1s51.1 22.7 51.1 51.1-22.7 51.1-51.1 51.1c-28.4-.1-51.1-23.1-51.1-51.1" fill="#f4b20c"/><path d="m466.8 137.3h81.2v81.2h-81.2z" fill="none"/><path d="m466.8 178.2c0-22.3 18.3-40.6 40.6-40.6s40.6 18.3 40.6 40.6-18.3 40.6-40.6 40.6c-22.4-.1-40.6-18.3-40.6-40.6" fill="#c0392b" opacity=".3"/><path d="m467.8 177.8c0-21.6 17.6-39.6 39.6-39.6 21.6 0 39.6 17.6 39.6 39.6 0 21.6-17.6 39.6-39.6 39.6s-39.6-17.6-39.6-39.6" fill="#c0392b"/><path d="m467.8 177.8c0-21.6 17.6-39.6 39.6-39.6 21.6 0 39.6 17.6 39.6 39.6 0 21.6-17.6 39.6-39.6 39.6s-39.6-17.6-39.6-39.6" fill="#f4b20c"/><path d="m468 138.6h78.8v78.8h-78.8z" fill="none"/><path d="m507.7 140.6c21 0 37.9 16.9 37.9 37.9s-16.9 37.9-37.9 37.9-37.9-16.9-37.9-37.9 16.9-37.9 37.9-37.9m-.3 76.8c21.6 0 39.6-17.6 39.6-39.6 0-21.6-17.6-39.6-39.6-39.6s-39.6 17.6-39.6 39.6 17.6 39.6 39.6 39.6" fill="#c0392b" opacity=".2"/><path d="m456.6 127.1h101.4v101.4h-101.4z" fill="none"/><path d="m507.7 129.8c26.7 0 48.7 21.6 48.7 48.7 0 26.7-21.6 48.7-48.7 48.7-26.7 0-48.7-21.6-48.7-48.7.3-26.7 22-48.7 48.7-48.7m-.3 98.8c28.1 0 50.7-22.7 50.7-50.7 0-28.1-22.7-50.7-50.7-50.7-28.1 0-50.7 22.7-50.7 50.7-.1 28 22.6 50.7 50.7 50.7" fill="#c0392b" opacity=".15"/><path d="m0 127.5c0-70.3 57.1-127.5 127.5-127.5s127.4 57.1 127.4 127.5-57.1 127.4-127.4 127.4c-70.7 0-127.5-57.1-127.5-127.4" fill="#231f20"/><path d="m9.1 9.4h236v236h-236z" fill="none"/><path d="m9.1 127.5 25 25.7v-12.5h28.8v-26.4h-28.7v-12.5c0-.4-25.1 25.7-25.1 25.7zm34.9 83.5 35.8.7-8.8-8.8 20.3-20.3-18.6-18.6-20.3 20.3-8.8-8.8c-.3-.7.4 35.5.4 35.5zm83.1 34.5 25.7-25h-12.5v-28.7h-26.4v28.7h-12.5zm83.6-34.5.7-35.8-8.8 8.8-20.3-20.3-18.6 18.5 20.3 20.3-8.8 8.8zm34.4-83.5-25-25.7v12.5h-28.4v26.4h28.7v12.5zm-34.4-83.6-35.8-.7 8.8 8.8-20.3 20.3 18.6 18.6 20.3-20.3 8.8 8.8c.2.4-.4-35.5-.4-35.5zm-83.6-34.5-25.7 25h12.5v28.7h26.4v-28.6h12.5c.4 0-25.7-25.1-25.7-25.1zm-83.1 34.5-.7 35.8 8.8-8.8 20.3 20.3 18.6-18.6-20.3-20.2 8.8-8.8c.3-.3-35.5.3-35.5.3z" fill="#84849b" opacity=".1"/><path d="m254.9 129.3c-.7 69.7-57.5 125.8-127.5 125.8s-126.4-56.2-127.4-125.8v1.4c0 70.3 57.1 127.5 127.5 127.5s127.5-57.1 127.5-127.5c-.1-.4-.1-.7-.1-1.4" fill="#6d6e70"/><path d="m127.1 84.2c-23.7 0-42.9 19.3-42.9 42.9s19.3 42.9 42.9 42.9 42.9-19.3 42.9-42.9c.4-23.7-18.9-42.9-42.9-42.9" fill="url(#a)"/><path d="m33-2.7h682v257.7h-682z" fill="none"/><path d="m93 93h68.6v68.6h-68.6z" fill="none"/><path d="m93 127.5c0-18.9 15.2-34.5 34.5-34.5s34.5 15.2 34.5 34.5-15.2 34.5-34.5 34.5-34.5-15.6-34.5-34.5" fill="#231f20" opacity=".3"/><path d="m127.8 86.5c22.7 0 41.3 18.3 41.3 41.3s-18.3 41.3-41.3 41.3-41.3-18.3-41.3-41.3 18.3-41.3 41.3-41.3m-.7 83.6c23.7 0 42.9-19.3 42.9-42.9s-19.3-42.9-42.9-42.9-42.9 19.3-42.9 42.9 19.3 42.9 42.9 42.9" fill="none"/><path d="m127.8 86.5c22.7 0 41.3 18.3 41.3 41.3s-18.3 41.3-41.3 41.3-41.3-18.3-41.3-41.3 18.3-41.3 41.3-41.3m-.7 83.6c23.7 0 42.9-19.3 42.9-42.9s-19.3-42.9-42.9-42.9-42.9 19.3-42.9 42.9 19.3 42.9 42.9 42.9" fill="url(#b)" opacity=".15"/><path d="m126.5 167.7c-22.7 0-41.3-18.3-41.3-41.3 0-22.7 18.3-41.3 41.3-41.3s41.3 18.3 41.3 41.3-18.3 41.3-41.3 41.3m.6-83.5c-23.7 0-42.9 19.3-42.9 42.9s19.3 42.9 42.9 42.9 42.9-19.3 42.9-42.9-19.2-42.9-42.9-42.9" fill="none"/><path d="m126.5 167.7c-22.7 0-41.3-18.3-41.3-41.3 0-22.7 18.3-41.3 41.3-41.3s41.3 18.3 41.3 41.3-18.3 41.3-41.3 41.3m.6-83.5c-23.7 0-42.9 19.3-42.9 42.9s19.3 42.9 42.9 42.9 42.9-19.3 42.9-42.9-19.2-42.9-42.9-42.9" fill="url(#c)" opacity=".4"/><path d="m331.3 198.5c0-28.1 22.7-51.1 51.1-51.1s51.1 22.7 51.1 51.1-22.7 51.1-51.1 51.1-51.1-23-51.1-51.1" fill="#f4b20c"/><path d="m341.7 157.9h81.2v81.2h-81.2z" fill="none"/><path d="m341.7 198.5c0-22.3 18.3-40.6 40.6-40.6s40.6 18.3 40.6 40.6-18.3 40.6-40.6 40.6-40.6-18.3-40.6-40.6" fill="#c0392b" opacity=".3"/><path d="m342.8 198.5c0-21.6 17.6-39.6 39.6-39.6 21.6 0 39.6 17.6 39.6 39.6 0 21.6-17.6 39.6-39.6 39.6-22.1 0-39.6-18-39.6-39.6" fill="#c0392b"/><path d="m342.8 198.5c0-21.6 17.6-39.6 39.6-39.6 21.6 0 39.6 17.6 39.6 39.6 0 21.6-17.6 39.6-39.6 39.6-22.1 0-39.6-18-39.6-39.6" fill="#f4b20c"/><path d="m342.9 158.9h78.8v78.8h-78.8z" fill="none"/><path d="m382.7 161c21 0 37.9 16.9 37.9 37.9s-16.9 37.9-37.9 37.9-37.9-16.9-37.9-37.9 16.9-37.9 37.9-37.9m-.4 76.7c21.6 0 39.6-17.6 39.6-39.6 0-21.6-17.6-39.6-39.6-39.6s-39.6 17.6-39.6 39.6c.1 22 17.6 39.6 39.6 39.6" fill="#c0392b" opacity=".2"/><path d="m331.6 147.8h101.4v101.4h-101.4z" fill="none"/><path d="m382.7 150.5c26.7 0 48.7 21.6 48.7 48.7 0 26.7-21.6 48.7-48.7 48.7-26.7 0-48.7-21.6-48.7-48.7.3-27.1 21.9-48.7 48.7-48.7m-.4 98.7c28.1 0 50.7-22.7 50.7-50.7 0-28.1-22.7-50.7-50.7-50.7s-50.7 22.7-50.7 50.7c0 28.1 22.7 50.7 50.7 50.7" fill="#f4b20c" opacity=".15"/><path d="m578.2 177.2c0-28.1 22.7-51.1 51.1-51.1s51.1 22.7 51.1 51.1-22.7 51.1-51.1 51.1c-28.4-.1-51.1-22.7-51.1-51.1" fill="#f4b20c"/><path d="m588.7 136.6h81.2v81.2h-81.2z" fill="none"/><path d="m588.7 177.2c0-22.3 18.3-40.6 40.6-40.6s40.6 18.3 40.6 40.6-18.3 40.6-40.6 40.6c-22.3-.1-40.6-18-40.6-40.6" fill="#c0392b" opacity=".3"/><path d="m589.7 177.2c0-21.6 17.6-39.6 39.6-39.6 21.6 0 39.6 17.6 39.6 39.6s-17.6 39.6-39.6 39.6c-22-.1-39.6-18-39.6-39.6" fill="#f4b20c"/><path d="m589.9 137.6h78.8v78.8h-78.8z" fill="none"/><path d="m629.6 140c21 0 37.9 16.9 37.9 37.9s-16.9 37.9-37.9 37.9-37.9-16.9-37.9-37.9 16.9-37.9 37.9-37.9m-.3 76.7c21.6 0 39.6-17.6 39.6-39.6 0-21.6-17.6-39.6-39.6-39.6-21.6 0-39.6 17.6-39.6 39.6 0 21.7 17.6 39.6 39.6 39.6" fill="#c0392b" opacity=".2"/><path d="m578.6 126.4h101.4v101.4h-101.4z" fill="none"/><path d="m629.6 129.1c26.7 0 48.7 21.6 48.7 48.7 0 26.7-21.6 48.7-48.7 48.7-26.7 0-48.7-21.6-48.7-48.7.4-27 22-48.7 48.7-48.7m-.3 98.8c28.1 0 50.7-22.7 50.7-50.7 0-28.1-22.7-50.7-50.7-50.7-28.1 0-50.7 22.7-50.7 50.7s22.6 50.7 50.7 50.7" fill="#f4b20c" opacity=".15"/><path d="m456.3 59.8c0-28.1 22.7-51.1 51.1-51.1s51.1 22.7 51.1 51.1-22.7 51.1-51.1 51.1-51.1-22.7-51.1-51.1" fill="#f4b20c"/><path d="m466.8 19.2h81.2v81.2h-81.2z" fill="none"/><path d="m466.8 59.8c0-22.3 18.3-40.6 40.6-40.6s40.6 18.3 40.6 40.6-18.3 40.6-40.6 40.6c-22.7 0-40.6-18-40.6-40.6" fill="#c0392b" opacity=".3"/><path d="m467.8 59.8c0-21.6 17.6-39.6 39.6-39.6s39.6 17.6 39.6 39.6c0 21.6-17.6 39.6-39.6 39.6-22-.1-39.6-18-39.6-39.6" fill="#c0392b"/><path d="m467.8 59.8c0-21.6 17.6-39.6 39.6-39.6s39.6 17.6 39.6 39.6c0 21.6-17.6 39.6-39.6 39.6-22-.1-39.6-18-39.6-39.6" fill="#f4b20c"/><path d="m468 20.2h78.8v78.8h-78.8z" fill="none"/><path d="m508 22.6c21 0 37.9 16.9 37.9 37.9s-16.9 37.9-37.9 37.9-37.9-16.9-37.9-37.9 17-37.9 37.9-37.9m-.6 76.7c21.6 0 39.6-17.6 39.6-39.6 0-21.6-17.6-39.6-39.6-39.6s-39.6 17.6-39.6 39.6c.3 21.7 17.9 39.6 39.6 39.6" fill="#c0392b" opacity=".2"/><path d="m456.6 9.1h101.4v101.4h-101.4z" fill="none"/><path d="m508 11.8c26.7 0 48.7 21.6 48.7 48.7 0 26.7-21.6 48.7-48.7 48.7-26.7 0-48.7-21.6-48.7-48.7s22-48.7 48.7-48.7m-.6 98.7c28.1 0 50.7-22.7 50.7-50.7s-22.7-50.7-50.7-50.7c-28.1 0-50.7 22.7-50.7 50.7s22.6 50.7 50.7 50.7" fill="#f4b20c" opacity=".15"/><path d="m578.2 59.1c0-28.1 22.7-51.1 51.1-51.1s51.1 22.7 51.1 51.1-22.7 51.1-51.1 51.1-51.1-23-51.1-51.1" fill="#f4b20c"/><path d="m588.7 18.5h81.2v81.2h-81.2z" fill="none"/><path d="m588.7 59.1c0-22.3 18.3-40.6 40.6-40.6s40.6 18.3 40.6 40.6-18.3 40.6-40.6 40.6c-22.7 0-40.6-17.9-40.6-40.6" fill="#c0392b" opacity=".3"/><path d="m589.7 59.1c0-21.6 17.6-39.6 39.6-39.6s39.6 17.6 39.6 39.6-17.6 39.6-39.6 39.6-39.6-18-39.6-39.6" fill="#c0392b"/><path d="m589.7 59.1c0-21.6 17.6-39.6 39.6-39.6s39.6 17.6 39.6 39.6-17.6 39.6-39.6 39.6-39.6-18-39.6-39.6" fill="#f4b20c"/><path d="m589.9 19.5h78.8v78.8h-78.8z" fill="none"/><path d="m630 21.9c21 0 37.9 16.9 37.9 37.9s-16.9 37.9-37.9 37.9-37.9-16.9-37.9-37.9 16.9-37.9 37.9-37.9m-.7 76.4c21.6 0 39.6-17.6 39.6-39.6 0-21.6-17.6-39.6-39.6-39.6s-39.6 17.6-39.6 39.6c.4 22 17.9 39.6 39.6 39.6" fill="#c0392b" opacity=".2"/><path d="m578.6 8.4h101.4v101.4h-101.4z" fill="none"/><path d="m630 11.1c26.7 0 48.7 21.6 48.7 48.7 0 26.7-21.6 48.7-48.7 48.7-26.7 0-48.7-21.6-48.7-48.7s21.9-48.7 48.7-48.7m-.7 98.7c28.1 0 50.7-22.7 50.7-50.7s-22.7-50.7-50.7-50.7c-28.1 0-50.7 22.7-50.7 50.7s22.6 50.7 50.7 50.7" fill="#f4b20c" opacity=".15"/><path d="m331.4 79.1c0-28.1 22.7-51.1 51.1-51.1s50.7 23 50.7 51.1-22.7 51.1-51.1 51.1-50.7-23-50.7-51.1" fill="#f4b20c"/><path d="m341.7 38.5h81.2v81.2h-81.2z" fill="none"/><path d="m341.7 79.1c0-22.3 18.3-40.6 40.6-40.6s40.6 18.3 40.6 40.6-18.3 40.6-40.6 40.6c-22.6 0-40.6-18.3-40.6-40.6" fill="#c0392b" opacity=".3"/><path d="m342.8 79.1c0-21.6 17.6-39.6 39.6-39.6s39.6 17.6 39.6 39.6c0 21.6-17.6 39.6-39.6 39.6s-39.6-18-39.6-39.6" fill="#c0392b"/><path d="m342.8 79.1c0-21.6 17.6-39.6 39.6-39.6s39.6 17.6 39.6 39.6c0 21.6-17.6 39.6-39.6 39.6s-39.6-18-39.6-39.6" fill="#f4b20c"/><path d="m342.9 39.5h78.8v78.8h-78.8z" fill="none"/><path d="m383 41.6c21 0 37.9 16.9 37.9 37.9s-16.9 37.9-37.9 37.9-37.9-16.9-37.9-37.9 16.9-37.9 37.9-37.9m-.7 76.7c21.6 0 39.6-17.6 39.6-39.6 0-21.6-17.6-39.6-39.6-39.6s-39.6 17.6-39.6 39.6c.4 22 18 39.6 39.6 39.6" fill="#c0392b" opacity=".2"/><path d="m331.6 28h101.4v101.4h-101.4z" fill="none"/><g fill="#f4b20c"><path d="m383 31.1c26.7 0 48.7 21.6 48.7 48.7 0 26.7-21.6 48.7-48.7 48.7-26.7 0-48.7-21.6-48.7-48.7s22-48.7 48.7-48.7m-.7 98.7c28.1 0 50.7-22.7 50.7-50.7s-22.7-50.7-50.7-50.7-50.7 22.7-50.7 50.7 22.7 50.7 50.7 50.7" opacity=".15"/><path d="m127.8 153.1c-32.8 0-59.5-26.7-59.5-59.5s26.7-59.5 59.5-59.5 59.5 26.4 59.5 59.2c0 33.1-26.7 59.8-59.5 59.8"/></g></svg>