<svg xmlns="http://www.w3.org/2000/svg" viewBox="0 0 434.258 60.644"><path d="M20.258 15.735h15.735c.765 0 1.148-1.125 1.148-3.376s-.383-3.376-1.148-3.376H20.258c-.72 0-1.081 1.125-1.081 3.376s.36 3.376 1.081 3.376M47.203 15.735h15.735c.766 0 1.148-1.125 1.148-3.376s-.383-3.376-1.148-3.376H47.203c-.72 0-1.081 1.125-1.081 3.376s.361 3.376 1.081 3.376M83.106 15.735h15.735c.766 0 1.148-1.125 1.148-3.376s-.382-3.376-1.148-3.376H83.106c-.72 0-1.081 1.125-1.081 3.376s.361 3.376 1.081 3.376M128.015 15.735h15.735c.766 0 1.148-1.125 1.148-3.376s-.383-3.376-1.148-3.376h-15.735c-.72 0-1.081 1.125-1.081 3.376s.361 3.376 1.081 3.376M163.918 15.735h15.735c.765 0 1.148-1.125 1.148-3.376s-.383-3.376-1.148-3.376h-15.735c-.72 0-1.081 1.125-1.081 3.376s.361 3.376 1.081 3.376M199.845 15.735h15.735c.765 0 1.147-1.125 1.147-3.376s-.383-3.376-1.147-3.376h-15.735c-.72 0-1.081 1.125-1.081 3.376s.361 3.376 1.081 3.376M235.748 15.735h15.735c.765 0 1.147-1.125 1.147-3.376s-.383-3.376-1.147-3.376h-15.735c-.721 0-1.08 1.125-1.08 3.376s.36 3.376 1.08 3.376M262.694 15.735h15.735c.765 0 1.147-1.125 1.147-3.376s-.383-3.376-1.147-3.376h-15.735c-.721 0-1.08 1.125-1.08 3.376s.359 3.376 1.08 3.376M298.597 15.735h15.734c.766 0 1.148-1.125 1.148-3.376s-.383-3.376-1.148-3.376h-15.734c-.721 0-1.081 1.125-1.081 3.376s.36 3.376 1.081 3.376M334.524 15.735h15.735c.765 0 1.147-1.125 1.147-3.376s-.383-3.376-1.147-3.376h-15.735c-.721 0-1.08 1.125-1.08 3.376s.359 3.376 1.08 3.376M370.427 15.735h15.735c.765 0 1.147-1.125 1.147-3.376s-.383-3.376-1.147-3.376h-15.735c-.721 0-1.08 1.125-1.08 3.376s.359 3.376 1.08 3.376" fill="#e7be36"/><path d="M31.279 6.753h24.717c.765 0 1.148-1.125 1.148-3.377C57.143 1.125 56.76 0 55.995 0H31.279c-.72 0-1.081 1.125-1.081 3.376 0 2.252.36 3.377 1.081 3.377M85.145 6.753h51.662c.765 0 1.148-1.125 1.148-3.377 0-2.251-.383-3.376-1.148-3.376H85.145c-.72 0-1.081 1.125-1.081 3.376.001 2.252.361 3.377 1.081 3.377M174.939 6.753h33.698c.765 0 1.148-1.125 1.148-3.377 0-2.251-.383-3.376-1.148-3.376h-33.698c-.721 0-1.081 1.125-1.081 3.376.001 2.252.36 3.377 1.081 3.377M246.769 6.753h24.717c.766 0 1.148-1.125 1.148-3.377 0-2.251-.383-3.376-1.148-3.376h-24.717c-.72 0-1.08 1.125-1.08 3.376 0 2.252.36 3.377 1.08 3.377M300.636 6.753h42.68c.766 0 1.148-1.125 1.148-3.377 0-2.251-.383-3.376-1.148-3.376h-42.68c-.721 0-1.081 1.125-1.081 3.376 0 2.252.36 3.377 1.081 3.377M372.466 6.753h60.644c.766 0 1.148-1.125 1.148-3.377 0-2.251-.383-3.376-1.148-3.376h-60.644c-.721 0-1.08 1.125-1.08 3.376 0 2.252.359 3.377 1.08 3.377" fill="#eacd39"/><path d="M7.198 33.698h15.735c.765 0 1.148-1.125 1.148-3.376s-.383-3.376-1.148-3.376H7.198c-.721 0-1.081 1.125-1.081 3.376s.36 3.376 1.081 3.376M52.107 33.698h15.735c.765 0 1.148-1.125 1.148-3.376s-.383-3.376-1.148-3.376H52.107c-.721 0-1.081 1.125-1.081 3.376s.36 3.376 1.081 3.376M79.028 33.698h15.735c.765 0 1.148-1.125 1.148-3.376s-.383-3.376-1.148-3.376H79.028c-.72 0-1.081 1.125-1.081 3.376s.361 3.376 1.081 3.376M114.955 33.698h24.717c.766 0 1.148-1.125 1.148-3.376s-.382-3.376-1.148-3.376h-24.717c-.72 0-1.081 1.125-1.08 3.376-.001 2.251.36 3.376 1.08 3.376M150.858 33.698h15.735c.766 0 1.148-1.125 1.148-3.376s-.382-3.376-1.148-3.376h-15.735c-.72 0-1.081 1.125-1.081 3.376s.361 3.376 1.081 3.376M222.689 33.698h15.734c.766 0 1.148-1.125 1.148-3.376s-.383-3.376-1.148-3.376h-15.734c-.721 0-1.081 1.125-1.081 3.376s.36 3.376 1.081 3.376M267.597 33.698h15.735c.766 0 1.147-1.125 1.147-3.376s-.382-3.376-1.147-3.376h-15.735c-.72 0-1.08 1.125-1.08 3.376s.36 3.376 1.08 3.376M294.519 33.698h15.734c.766 0 1.148-1.125 1.148-3.376s-.383-3.376-1.148-3.376h-15.734c-.721 0-1.081 1.125-1.081 3.376s.36 3.376 1.081 3.376M339.427 33.698h15.735c.766 0 1.147-1.125 1.148-3.376-.001-2.251-.383-3.376-1.148-3.376h-15.735c-.72 0-1.08 1.125-1.08 3.376s.36 3.376 1.08 3.376M366.349 33.698h51.662c.765 0 1.147-1.125 1.147-3.376s-.383-3.376-1.147-3.376h-51.662c-.721 0-1.081 1.125-1.081 3.376s.36 3.376 1.081 3.376" fill="#dd9c30"/><path d="M3.119 51.662h15.735c.765 0 1.148-1.125 1.148-3.377 0-2.251-.383-3.376-1.148-3.376H3.119c-.72 0-1.08 1.125-1.08 3.376 0 2.252.36 3.377 1.08 3.377M48.029 51.662h15.735c.765 0 1.148-1.125 1.148-3.377 0-2.251-.383-3.376-1.148-3.376H48.029c-.721 0-1.081 1.125-1.081 3.376 0 2.252.36 3.377 1.081 3.377M74.95 51.662h15.735c.765 0 1.148-1.125 1.148-3.377 0-2.251-.383-3.376-1.148-3.376H74.95c-.721 0-1.081 1.125-1.081 3.376 0 2.252.36 3.377 1.081 3.377M101.895 51.662h24.716c.766 0 1.148-1.125 1.148-3.377 0-2.251-.383-3.376-1.148-3.376h-24.716c-.721 0-1.081 1.125-1.081 3.376.001 2.252.361 3.377 1.081 3.377M155.762 51.662h15.735c.765 0 1.148-1.125 1.148-3.377 0-2.251-.383-3.376-1.148-3.376h-15.735c-.721 0-1.081 1.125-1.081 3.376 0 2.252.36 3.377 1.081 3.377M191.689 51.662h15.735c.766 0 1.148-1.125 1.148-3.377 0-2.251-.383-3.376-1.148-3.376h-15.735c-.72 0-1.081 1.125-1.081 3.376 0 2.252.36 3.377 1.081 3.377M218.611 51.662h15.734c.766 0 1.148-1.125 1.148-3.377 0-2.251-.383-3.376-1.148-3.376h-15.734c-.721 0-1.081 1.125-1.081 3.376 0 2.252.36 3.377 1.081 3.377M263.519 51.662h15.735c.765 0 1.147-1.125 1.147-3.377 0-2.251-.383-3.376-1.147-3.376h-15.735c-.72 0-1.08 1.125-1.08 3.376 0 2.252.36 3.377 1.08 3.377M290.441 51.662h15.734c.766 0 1.148-1.125 1.148-3.377 0-2.251-.383-3.376-1.148-3.376h-15.734c-.721 0-1.081 1.125-1.081 3.376 0 2.252.36 3.377 1.081 3.377M326.367 51.662h15.735c.765 0 1.147-1.125 1.147-3.377 0-2.251-.383-3.376-1.147-3.376h-15.735c-.721 0-1.081 1.125-1.08 3.376-.001 2.252.36 3.377 1.08 3.377M362.271 51.662h15.734c.766 0 1.148-1.125 1.148-3.377 0-2.251-.383-3.376-1.148-3.376h-15.734c-.721 0-1.081 1.125-1.081 3.376 0 2.252.36 3.377 1.081 3.377" fill="#cd6929"/><path d="M1.08 60.644h15.735c.765 0 1.148-1.125 1.148-3.376s-.383-3.376-1.148-3.376H1.08c-.72 0-1.08 1.125-1.08 3.376s.36 3.376 1.08 3.376M45.989 60.644h15.735c.765 0 1.148-1.125 1.148-3.376s-.383-3.376-1.148-3.376H45.989c-.721 0-1.081 1.125-1.081 3.376s.361 3.376 1.081 3.376M72.911 60.644h15.735c.765 0 1.148-1.125 1.148-3.376s-.383-3.376-1.148-3.376H72.911c-.721 0-1.081 1.125-1.081 3.376s.36 3.376 1.081 3.376M108.838 60.644h24.717c.765 0 1.148-1.125 1.148-3.376s-.383-3.376-1.148-3.376h-24.717c-.72 0-1.081 1.125-1.081 3.376s.36 3.376 1.081 3.376M162.704 60.644h33.699c.765 0 1.148-1.125 1.148-3.376s-.383-3.376-1.148-3.376h-33.699c-.72 0-1.081 1.125-1.081 3.376s.361 3.376 1.081 3.376M216.572 60.644h15.734c.766 0 1.148-1.125 1.148-3.376s-.383-3.376-1.148-3.376h-15.734c-.721 0-1.081 1.125-1.081 3.376s.36 3.376 1.081 3.376M261.48 60.644h15.735c.765 0 1.147-1.125 1.147-3.376s-.383-3.376-1.147-3.376H261.48c-.721 0-1.08 1.125-1.08 3.376s.359 3.376 1.08 3.376M288.402 60.644h42.68c.766 0 1.148-1.125 1.148-3.376s-.383-3.376-1.148-3.376h-42.68c-.721 0-1.081 1.125-1.081 3.376s.36 3.376 1.081 3.376M360.232 60.644h60.644c.766 0 1.148-1.125 1.148-3.376s-.383-3.376-1.148-3.376h-60.644c-.721 0-1.081 1.125-1.081 3.376s.36 3.376 1.081 3.376" fill="#c64b26"/><path d="M9.237 24.717h15.735c.765 0 1.148-1.125 1.148-3.377 0-2.251-.383-3.376-1.148-3.376H9.237c-.721 0-1.081 1.125-1.081 3.376s.36 3.377 1.081 3.377M54.146 24.717h15.735c.765 0 1.148-1.125 1.148-3.377 0-2.251-.383-3.376-1.148-3.376H54.146c-.721 0-1.081 1.125-1.081 3.376s.36 3.377 1.081 3.377M81.067 24.717h15.735c.766 0 1.148-1.125 1.148-3.377 0-2.251-.383-3.376-1.148-3.376H81.067c-.72 0-1.081 1.125-1.081 3.376.001 2.251.361 3.377 1.081 3.377M125.976 24.717h15.735c.766 0 1.148-1.125 1.148-3.377 0-2.251-.382-3.376-1.148-3.376h-15.735c-.72 0-1.081 1.125-1.081 3.376s.361 3.377 1.081 3.377M152.897 24.717h15.735c.766 0 1.148-1.125 1.148-3.377 0-2.251-.382-3.376-1.148-3.376h-15.735c-.72 0-1.081 1.125-1.081 3.376.001 2.251.361 3.377 1.081 3.377M224.728 24.717h15.734c.766 0 1.148-1.125 1.148-3.377 0-2.251-.383-3.376-1.148-3.376h-15.734c-.721 0-1.081 1.125-1.081 3.376s.36 3.377 1.081 3.377M269.636 24.717h15.735c.766 0 1.147-1.125 1.147-3.377 0-2.251-.382-3.376-1.147-3.376h-15.735c-.72 0-1.08 1.125-1.08 3.376s.36 3.377 1.08 3.377M296.558 24.717h15.734c.766 0 1.148-1.125 1.148-3.377 0-2.251-.383-3.376-1.148-3.376h-15.734c-.721 0-1.081 1.125-1.081 3.376s.36 3.377 1.081 3.377M341.466 24.717h15.735c.766 0 1.148-1.125 1.148-3.377 0-2.251-.383-3.376-1.148-3.376h-15.735c-.72 0-1.08 1.125-1.08 3.376s.36 3.377 1.08 3.377M368.388 24.717h15.735c.765 0 1.147-1.125 1.147-3.377 0-2.251-.383-3.376-1.147-3.376h-15.735c-.721 0-1.081 1.125-1.081 3.376s.36 3.377 1.081 3.377" fill="#e4ae32"/><path d="M5.159 42.68h60.644c.765 0 1.148-1.125 1.148-3.376s-.383-3.376-1.148-3.376H5.159c-.721 0-1.081 1.125-1.081 3.376s.36 3.376 1.081 3.376M76.989 42.68h42.68c.765 0 1.148-1.125 1.148-3.376s-.383-3.376-1.148-3.376h-42.68c-.721 0-1.081 1.125-1.081 3.376s.36 3.376 1.081 3.376M148.819 42.68h15.735c.766 0 1.148-1.125 1.148-3.376s-.382-3.376-1.148-3.376h-15.735c-.72 0-1.081 1.125-1.081 3.376s.361 3.376 1.081 3.376M220.65 42.68h60.644c.765 0 1.147-1.125 1.147-3.376s-.383-3.376-1.147-3.376H220.65c-.721 0-1.081 1.125-1.081 3.376s.36 3.376 1.081 3.376M292.48 42.68h15.734c.766 0 1.148-1.125 1.148-3.376s-.383-3.376-1.148-3.376H292.48c-.721 0-1.081 1.125-1.081 3.376s.36 3.376 1.081 3.376M337.388 42.68h15.735c.766 0 1.147-1.125 1.148-3.376-.001-2.251-.383-3.376-1.148-3.376h-15.735c-.72 0-1.08 1.125-1.08 3.376s.36 3.376 1.08 3.376M364.31 42.68h15.734c.766 0 1.148-1.125 1.148-3.376s-.383-3.376-1.148-3.376H364.31c-.721 0-1.081 1.125-1.081 3.376s.36 3.376 1.081 3.376" fill="#d27a2c"/></svg>