<svg xmlns="http://www.w3.org/2000/svg" viewBox="0 0 287.261 213.481"><path fill="#d9d9d9" d="M69.681 5.8h147.217v201.186H69.681z"/><path fill="#666" d="M70.3 5.8h1.032v201.186H70.3zm145.611 0h1.032v201.186h-1.032z"/><path d="M287.261 209.383a4.098 4.098 0 0 1-4.099 4.099h-62.166a4.099 4.099 0 0 1-4.099-4.099V4.099A4.098 4.098 0 0 1 220.996 0h62.166a4.097 4.097 0 0 1 4.099 4.099v205.284z" fill="#d9d9d9"/><path fill="#666" d="M225.11 161.166l.633-1.045 11.424 6.922-.633 1.045z"/><path d="M70.363 209.383a4.098 4.098 0 0 1-4.099 4.099H4.099A4.099 4.099 0 0 1 0 209.383V4.099A4.098 4.098 0 0 1 4.099 0h62.166a4.097 4.097 0 0 1 4.099 4.099v205.284z" fill="#d9d9d9"/><ellipse transform="rotate(-45.001 143.187 106.876)" cx="143.188" cy="106.874" rx="98.363" ry="98.363" fill="#666"/><ellipse transform="rotate(-45.001 143.288 106.876)" cx="143.289" cy="106.874" rx="97.519" ry="97.519" fill="#d9d9d9"/><path d="M131.151 49.188h.871v2.036h-.842c-.004-.031-.007-.061-.012-.09a1.044 1.044 0 0 0-.324-.617 2.014 2.014 0 0 0-.684-.41 4.32 4.32 0 0 0-.887-.231 6.582 6.582 0 0 0-1.255-.082 4.672 4.672 0 0 0-.985.12 1.764 1.764 0 0 0-.384.139.817.817 0 0 0-.235.177.478.478 0 0 0-.126.3.28.28 0 0 0 .098.233.682.682 0 0 0 .208.122c.167.069.343.105.521.136.35.059.703.092 1.057.127.564.055 1.128.107 1.687.206.433.076.857.177 1.264.346.256.107.498.24.71.423.368.32.548.727.558 1.212.009.504-.189.917-.567 1.246a2.848 2.848 0 0 1-.826.481 5.478 5.478 0 0 1-1.111.299 6.77 6.77 0 0 1-1.129.101 3.532 3.532 0 0 1-.605-.059 15.643 15.643 0 0 1-1.975-.466 1.063 1.063 0 0 1-.248-.102c-.075-.044-.164-.04-.259-.041-.006.122 0 .242-.004.361-.05.019-.854.024-.994.011a65.21 65.21 0 0 1-.006-2.306c.05-.014.822-.019.943-.005l.01.092c.033.306.176.554.397.761.219.204.478.344.754.453.314.126.64.207.973.262.441.072.889.1 1.337.083a2.96 2.96 0 0 0 .984-.191c.177-.07.337-.162.474-.292a.938.938 0 0 0 .188-.24.173.173 0 0 0 .016-.112.467.467 0 0 0-.172-.282 1.106 1.106 0 0 0-.301-.17 3.513 3.513 0 0 0-.66-.176 17.163 17.163 0 0 0-1.137-.155c-.519-.06-1.039-.116-1.555-.208a5.955 5.955 0 0 1-1.239-.332 2.339 2.339 0 0 1-.668-.395 1.262 1.262 0 0 1-.443-.843 1.447 1.447 0 0 1 .279-1.029c.177-.242.404-.428.658-.582.356-.215.742-.36 1.142-.467a5.955 5.955 0 0 1 1.593-.207c.357.004.711.05 1.062.12.473.095.935.23 1.381.415.093.038.181.091.274.131a.21.21 0 0 0 .105.019c.07-.005.089-.03.089-.102v-.22zm14.59 1.959v3.079c0 .039.003.079.007.117.007.053.04.083.092.088.046.006.091.007.138.009h.917c.016.055.02.7.005.794h-3.487a7.002 7.002 0 0 1-.007-.792l.07-.002c.262 0 .523 0 .783-.002.033 0 .069 0 .102-.009.076-.019.117-.071.123-.148.002-.022.001-.041.001-.063v-3.846c0-.167-.032-.204-.198-.227a.515.515 0 0 0-.097-.008h-.806v-.775c.025-.001.048-.004.07-.004h2.927c.048 0 .08.019.114.048l2.178 1.964 1.725 1.556.057.047.015-.005V50.522c0-.187-.102-.299-.291-.318-.029-.003-.06-.003-.089-.003h-.821a7.978 7.978 0 0 1-.005-.837h3.509c.015.047.021.705.007.831-.019.002-.037.006-.059.006l-.754-.001-.068.002c-.149.011-.236.097-.249.246-.004.047-.004.093-.004.139v4.649c-.029.001-.05.004-.069.004-.39 0-.779-.001-1.169.001a.143.143 0 0 1-.104-.041l-4.496-3.997c-.02-.018-.038-.03-.067-.056zm-7.685 4.361c-.187-.006-.375-.003-.559-.021-.972-.089-1.872-.376-2.67-.951a3.388 3.388 0 0 1-1.017-1.123 2.545 2.545 0 0 1-.324-1.307c.012-.464.149-.893.39-1.289.242-.398.564-.727.939-1.002a4.974 4.974 0 0 1 1.683-.784 5.978 5.978 0 0 1 1.854-.193 5.685 5.685 0 0 1 2.201.535 4.15 4.15 0 0 1 1.3.937c.324.352.568.754.691 1.221.165.63.091 1.234-.203 1.812-.243.477-.598.856-1.023 1.172a4.971 4.971 0 0 1-1.73.81 5.668 5.668 0 0 1-1.09.175c-.148.011-.295.003-.442.003v.005zm-.061-1.064c.427.001.785-.062 1.122-.188.49-.184.908-.471 1.214-.903.408-.58.506-1.212.259-1.882a2.177 2.177 0 0 0-.911-1.099c-.814-.515-1.688-.604-2.6-.313a2.465 2.465 0 0 0-1.251.873c-.433.573-.554 1.206-.32 1.892.154.459.453.815.845 1.093a2.866 2.866 0 0 0 1.642.527zm19.66-5.078v.831c-.025.001-.044.005-.064.005-.143 0-.287.004-.43-.002-.144-.006-.161.081-.114.181a.488.488 0 0 0 .066.097c.149.168.294.339.443.503.295.321.592.641.887.959.014.015.022.031.038.05.026-.027.044-.044.059-.063l1.344-1.471c.022-.026.048-.05.07-.077.045-.059.034-.12-.033-.155a.213.213 0 0 0-.098-.021h-.436c-.023 0-.044-.004-.069-.007v-.825c.058-.014 3.19-.021 3.375-.007.014.048.019.758.001.838h-.073l-.822-.001a.13.13 0 0 0-.102.042l-2.668 2.847a.12.12 0 0 0-.039.097v1.1c0 .021.001.042.004.063.008.057.043.091.098.104.033.006.068.002.103.002.316.002.633.002.947.002.004 0 .01.002.014.004.013.048.018.648.005.741-.049.015-3.956.021-4.082.007a6.372 6.372 0 0 1-.005-.75c.024-.001.047-.004.071-.004h.788l.076-.001c.094-.007.143-.058.146-.15.002-.011 0-.023 0-.034 0-.381 0-.762.002-1.142a.16.16 0 0 0-.044-.116c-.796-.868-1.587-1.736-2.379-2.604-.05-.055-.102-.108-.148-.164-.026-.032-.057-.041-.096-.041l-.935.001h-.077v-.83c.047-.018 4.08-.024 4.177-.009z" fill-rule="evenodd" clip-rule="evenodd" fill="#4d4d4d"/><g fill-rule="evenodd" clip-rule="evenodd"><path d="M150.385 147.03c.318.052.495.081.739.135.281.061.559.135.83.23.329.114.645.255.922.472.22.174.391.382.475.659a.818.818 0 0 1-.1.691c-.149.247-.371.423-.608.578-.293.189-.61.325-.936.445-.028.009-.059.012-.088.02-.024.009-.048.002-.073-.006-.285-.086-.568-.175-.855-.264-.455-.143-.91-.284-1.363-.424-.263-.08-.524-.164-.787-.244-.024-.008-.055-.011-.064-.043.011-.025.036-.028.057-.036.291-.1.58-.201.871-.297a3.33 3.33 0 0 0 .598-.253.972.972 0 0 0 .244-.179.381.381 0 0 0 .053-.067c.042-.076.029-.149-.038-.207a.567.567 0 0 0-.237-.107 2.35 2.35 0 0 0-.435-.052 4.979 4.979 0 0 0-1.005.091c-.112.021-.221.065-.327.102-.454.159-.911.306-1.366.459-.033.011-.066.029-.103.029-.162-.039-.321-.095-.481-.146-.501-.153-1.003-.31-1.503-.464-.313-.097-.66-.195-.973-.29-.02-.007.012-.014 0-.03-.001-.004-.003-.008 0-.011.005-.008-.007-.007 0-.01.307-.104.626-.209.936-.304a16.8 16.8 0 0 1 1.382-.362c.265-.057.252-.057.796-.146.543-.089 2.484-.12 3.439.031z" fill="#326cb2"/><path d="M137.347 151.349c-.52-.025-1.14-.138-1.708-.224a20.065 20.065 0 0 1-1.284-.229c-.384-.085-.764-.183-1.119-.354a1.743 1.743 0 0 1-.335-.21c-.215-.176-.295-.4-.266-.675.046-.451.282-.793.616-1.075.253-.213.538-.37.844-.493.068-.026.132-.063.208-.071.071 0 .136.03.2.051l1.469.467c.371.118.741.234 1.111.354.025.008.053.013.071.034-.004.035-.036.036-.061.043l-.518.187c-.12.043-.246.079-.355.148a.51.51 0 0 0-.121.098c-.131.147-.103.321.052.456.163.14.362.203.574.225.269.029.519-.038.769-.126.233-.083.467-.157.701-.236.225-.072.447-.15.67-.226.024-.008.05-.02.078-.019l.541.172c.305.098.666.196.973.293.025.009-.017.012 0 .036.003.313.008.628 0 .943.002.004.006.006 0 .005.01.033.002.041 0 .073-.26.068-.745.153-.998.2-.001-.001-1.226.182-2.112.153z" fill="#f2c102"/><path d="M148.48 149.282c.109.051.23.076.343.112.491.153.983.304 1.475.456.241.074.481.15.722.227l.6.183c-.084.031-.169.064-.253.094l-.729.256-1.183.415-1.073.381-1.236.436c-.127.046-.253.098-.385.133-.039.007-.073-.01-.109-.019-.32-.104-.639-.205-.958-.306-.602-.193-1.26-.383-1.861-.573-.025-.009.015-.013 0-.038v-.168c.01-.024-.02-.025 0-.033.368-.12.774-.251 1.141-.374l1.676-.573c.386-.131.771-.264 1.155-.396.203-.069.407-.138.607-.209.022-.008.046-.028.068-.004zm-11.327-.356c-.395-.124-.788-.251-1.184-.378l-1.667-.53 1.693-.57 2.642-.891c.171-.058.34-.115.513-.171.022-.007.047 0 .07.007.397.124.838.248 1.235.366.045.014.002.035 0 .08-.001.302.002.601 0 .899-.005.025.021.032 0 .039-.352.125-.74.252-1.093.377-.416.148-.831.299-1.244.447-.301.106-.597.214-.895.319-.02.009-.043.023-.07.006z" fill="#00a99d"/><path d="M143.832 151.038c.979.311 1.949.623 2.929.936-.142.06-.292.104-.439.157-.308.108-.616.216-.926.323-.406.143-.814.284-1.221.424-.098.035-.247.069-.343.104v-.02c-.012-.015 0-.03 0-.049v-1.875z" fill="#f2c102"/><path d="M140.456 147.745c.002-.305 0-.605 0-.91.002-.03.035-.045 0-.058-.296-.088-.625-.181-.922-.273l-.384-.118c.223-.078.448-.156.675-.232.212-.075.418-.146.631-.22.006-.005.002-.002 0 .004.002.012 0 .025 0 .035.002.577 0 1.152 0 1.73 0 .014.002.028 0 .042-.002.003.002.003 0 0z" fill="#326db2"/><path d="M146.787 148.748c-.166.061-.332.119-.499.177-.823.282-1.634.563-2.456.846v-1.938l1.11.347.955.298.89.27zm-7.848.738c.186-.063.369-.128.557-.189.324-.111.636-.218.96-.325.002.189 0 .38 0 .569.002.145.002.289 0 .433-.297-.095-.58-.188-.878-.282-.212-.068-.427-.136-.639-.206z" fill="#00a99d"/><path d="M140.456 149.975a84.505 84.505 0 0 1 0-1.007c-.004-.353.002-.709 0-1.063 0-.053-.004-.106 0-.158.003-.574-.001-1.146 0-1.719.002-.032-.015-.064 0-.094.003-.023 0-.047 0-.07.002-2.855.014-5.71.014-8.565 0-.02-.001-.036.001-.054.002-.016.011-.022.025-.015l.426.117c.403.107.806.215 1.209.32.368.099.738.193 1.107.291.434.114.865.23 1.299.343.35.091.697.192 1.037.311a7.382 7.382 0 0 1 1.682.826c.278.189.539.401.771.648.244.255.451.537.621.851.185.343.308.708.388 1.09.033.153.05.309.069.466.009.022-.001.046.009.069l.002.081c.011.033-.002.066.008.102v.482c-.01.044.003.089-.008.134l-.002.092c-.012.029.001.062-.009.09-.001.022-.001.048-.003.07-.009.021.002.047-.006.068a.965.965 0 0 0-.004.049c-.01.02 0 .039-.009.06l-.001.041c-.012.016 0 .037-.01.055-.038.26-.08.518-.15.773a3.23 3.23 0 0 1-.431.96 2.105 2.105 0 0 1-.892.75 2.564 2.564 0 0 1-.769.188c-.022.008-.048-.002-.069.007l-.112.004a1.286 1.286 0 0 1-.215 0l-.114-.004c-.029-.009-.061.003-.09-.007a.803.803 0 0 0-.049-.002c-.019-.011-.039 0-.058-.009a2.734 2.734 0 0 1-.414-.059c-.162-.033-.326-.064-.483-.117-.027-.008-.055-.014-.083-.02-.015-.004-.021-.013-.021-.026v-5.705c0-.023.005-.047-.004-.068-.018-.184-.124-.308-.277-.393a.815.815 0 0 0-.33-.098.796.796 0 0 0-.169 0c-.187.018-.353.074-.458.243a.261.261 0 0 0-.043.139c-.011.055-.004.109-.005.166-.003.162.005.328-.003.493l-.004.615.004 6.099c.003.006-.001.013 0 .019.003.021 0 .045 0 .065v1.872c.003.363.003.728 0 1.089.003.059.003.117 0 .178.003.456-.001.908 0 1.363v.581c-.226-.076-.528-.151-.757-.226a92.502 92.502 0 0 0-.745-.242c-.297-.096-.593-.191-.888-.29-.288-.093-.699-.185-.986-.278v-1.971z" fill="#dc0029"/></g><path d="M128.87 157.789v-.493c.174 0 .34.003.508 0 .433-.006.616-.151.66-.578.028-.291.029-.59-.005-.879-.044-.393-.316-.604-.707-.606-.288-.002-.576 0-.885 0v4.509h-.784v-5.023c.01-.006.02-.018.03-.018.694.009 1.388.007 2.08.029.187.009.379.076.554.148a.768.768 0 0 1 .46.506c.16.511.182 1.028.057 1.552-.122.504-.434.806-.95.85-.335.027-.673.003-1.018.003zm28.92.053c-.033.275-.048.599-.117.907-.141.627-.451.916-1.089.975-.404.035-.821.02-1.223-.027-.487-.061-.786-.379-.904-.847a4.399 4.399 0 0 1-.021-2.025c.119-.556.465-.904 1.037-.948.428-.033.87-.036 1.293.024.582.081.843.515.936 1.054.048.278.057.563.088.887zm-2.652-.06c.038.282.053.566.118.84.097.404.359.588.774.594.448.005.711-.164.82-.581.15-.563.148-1.135.003-1.698-.104-.397-.371-.565-.818-.556-.438.009-.692.183-.783.576-.062.268-.077.547-.114.825zm-18.053 3.902c.224-.555.412-1.088.655-1.598.172-.36.166-.67.018-1.038-.393-.991-.745-1.998-1.113-2.998-.019-.05-.031-.101-.055-.171.269 0 .521-.008.772.007.049.004.115.088.138.148.278.745.554 1.49.828 2.236l.064.166c.059-.138.109-.25.156-.364.277-.687.558-1.373.831-2.061.038-.099.087-.14.196-.136.196.009.395.004.617.004-.132.329-.253.637-.379.94-.627 1.553-1.257 3.104-1.88 4.656-.063.156-.136.232-.311.214-.165-.018-.335-.005-.537-.005zm11.162-4.385v.504c-.116 0-.23-.012-.342.004-.146.021-.296.05-.434.102a.352.352 0 0 0-.233.336c-.006.174-.023.35-.003.521.033.309.168.436.483.447.325.014.65.004 1.003.004v-.186l-.001-1.938c0-.448-.236-.696-.688-.707-.354-.008-.71-.001-1.071-.001v-.532c.597.032 1.187.034 1.77.107.486.061.739.356.758.845.032.814.024 1.628.033 2.443v.504c-.294 0-.561.006-.831-.001-.48-.015-.969 0-1.442-.064-.556-.071-.771-.314-.829-.864-.029-.271-.001-.551.028-.826.028-.286.215-.463.478-.558.422-.154.862-.145 1.321-.14zm-12.921 1.918v-1.104c0-.344.003-.688 0-1.031-.003-.427-.237-.679-.666-.693-.293-.01-.59-.003-.886-.003h-.209v-.487c.031-.005.071-.015.111-.015.501.011 1.002.008 1.5.042.349.024.671.155.824.501.075.164.109.36.113.542.013.899.006 1.8.007 2.698 0 .017-.008.034-.02.081-.233 0-.473.005-.711-.001-.506-.013-1.019.008-1.518-.053-.565-.069-.78-.303-.846-.869-.035-.287-.001-.588.038-.877.042-.305.268-.48.549-.534.399-.076.808-.107 1.232-.16v.549c-.116 0-.237-.018-.353.005-.166.032-.348.064-.49.149-.228.137-.166.395-.186.61-.004.059.011.121.018.179.037.317.165.453.486.466.328.015.655.005 1.007.005zm5.44.507v-.49c.312 0 .616.006.923-.002.155-.004.315-.015.465-.052.284-.069.469-.252.49-.554.018-.227.027-.458.001-.682-.032-.284-.168-.395-.452-.43a10.781 10.781 0 0 0-.396-.036c-.992-.073-1.148-.494-1.209-1.223-.021-.263.042-.54.104-.8.107-.457.436-.698.886-.727.51-.031 1.023-.008 1.552-.008v.479c-.248 0-.494-.003-.738.002a3.77 3.77 0 0 0-.452.031c-.256.036-.439.173-.487.438-.03.177-.056.359-.045.537.019.296.179.441.474.471.257.026.517.043.773.073.364.044.604.24.716.598.17.55.209 1.101.026 1.653-.148.444-.471.691-.928.713-.561.028-1.124.009-1.703.009zm20.915.019h-.779v-2.651c-.003-.443-.232-.687-.671-.703-.247-.01-.495-.003-.742-.003-.024 0-.047.005-.096.012v3.347h-.779v-3.836c.001-.003.011-.017.02-.017.712.01 1.423.002 2.133.04.208.011.425.127.609.24.207.126.299.355.302.592.008.987.003 1.976.003 2.979zm-11.249-4.574h.792v.706h.891v.5h-.889v.19c0 .701-.002 1.401.001 2.101 0 .096.012.193.034.285.051.202.141.266.349.266h.319v.521c-.375-.015-.753.057-1.122-.055a.499.499 0 0 1-.37-.505c-.008-1.331-.005-2.662-.005-4.009zm-6.13-.004h.793v.711h.896v.503h-.893v2.244c.002.09.002.182.017.27.046.24.151.326.396.324l.283-.001v.521c-.378-.013-.761.063-1.136-.061-.216-.07-.321-.244-.348-.464-.011-.09-.01-.181-.01-.27v-3.547c.002-.07.002-.142.002-.23zm-12.025-.461v5.037h-.78v-5.037h.78zm20.479 1.182h.775v3.855h-.775v-3.855zm-.002-.491v-.687h.777v.687h-.777z" fill="#4d4d4d"/><path fill="#36ce39" d="M28.707 203.797h4.07v9.74h-4.07z"/><path fill="#707070" d="M28.706 199.522h4.07v9.74h-4.07z"/><circle cx="30.444" cy="177.982" r="22" fill="#a5a5a5"/><circle cx="30.444" cy="177.982" r="20" fill="#bcbbbb"/><circle cx="21.527" cy="133.232" r="10.5" fill="#a5a5a5"/><circle cx="21.527" cy="133.232" r="9.5" fill="#bcbbbb"/><circle cx="254.444" cy="177.982" r="22" fill="#a5a5a5"/><circle cx="254.444" cy="177.982" r="20" fill="#bcbbbb"/><path d="M20.271 180.52v-3.912h1.268c.48 0 .793.02.939.059.224.059.412.187.563.383.151.196.227.45.227.762 0 .24-.043.442-.131.606a1.074 1.074 0 0 1-.332.385 1.146 1.146 0 0 1-.41.186 4.432 4.432 0 0 1-.819.057h-.515v1.476h-.79zm.79-3.25v1.109h.433c.311 0 .519-.021.624-.062a.51.51 0 0 0 .336-.496.51.51 0 0 0-.125-.353.55.55 0 0 0-.317-.173 3.795 3.795 0 0 0-.568-.026h-.383zm2.695 1.319c0-.399.06-.733.179-1.004.089-.199.21-.378.364-.536.154-.158.322-.276.505-.353.244-.104.525-.155.843-.155.577 0 1.038.18 1.384.537.346.357.519.854.519 1.491 0 .632-.171 1.126-.515 1.482-.343.357-.802.535-1.377.535-.582 0-1.044-.177-1.388-.532-.342-.354-.514-.843-.514-1.465zm.814-.028c0 .443.103.779.307 1.008s.464.343.779.343.573-.113.775-.34c.202-.228.303-.567.303-1.021 0-.448-.098-.782-.295-1.003s-.458-.331-.783-.331-.588.111-.787.335c-.199.222-.299.559-.299 1.009zm4.153 1.959l-.934-3.912h.809l.59 2.688.715-2.688h.939l.686 2.732.601-2.732h.795l-.95 3.912h-.838l-.779-2.925-.776 2.925h-.858zm4.603 0v-3.912h2.901v.662h-2.111v.867h1.964v.659h-1.964v1.064h2.186v.659h-2.976zm3.649 0v-3.912h1.663c.418 0 .722.035.911.105s.341.195.455.375.171.385.171.616c0 .294-.086.536-.259.728-.173.19-.431.312-.774.361.171.1.312.209.423.328s.261.331.45.635l.478.764h-.944l-.571-.852c-.203-.304-.342-.496-.417-.575s-.154-.133-.237-.162-.216-.044-.397-.044h-.16v1.633h-.792zm.79-2.257h.584c.379 0 .615-.016.709-.048s.168-.087.222-.166a.51.51 0 0 0 .08-.293c0-.132-.035-.238-.105-.319s-.169-.132-.297-.153a6.677 6.677 0 0 0-.577-.013h-.616v.992z" fill="#47c3a9"/><path d="M247.02 178.558c0-.386.058-.709.173-.97.086-.193.204-.366.353-.519.148-.153.312-.267.488-.341.236-.1.508-.149.815-.149.558 0 1.003.173 1.338.519.334.346.501.826.501 1.441 0 .61-.166 1.088-.498 1.433-.331.346-.775.518-1.33.518-.563 0-1.01-.172-1.342-.515s-.498-.816-.498-1.417zm.788-.027c0 .429.099.753.297.974.197.222.448.332.753.332s.554-.109.749-.329c.195-.219.293-.548.293-.986 0-.434-.095-.757-.285-.97-.189-.214-.442-.32-.757-.32s-.568.108-.761.324-.289.541-.289.975zm3.476 1.894v-3.781h1.226c.464 0 .767.019.908.057.217.057.397.18.544.37s.219.436.219.736c0 .232-.042.428-.126.586s-.191.282-.321.372c-.13.091-.262.15-.396.18a4.376 4.376 0 0 1-.792.054h-.498v1.427h-.764zm.764-3.142v1.073h.418c.301 0 .502-.021.604-.06a.5.5 0 0 0 .325-.48c0-.138-.04-.251-.121-.341s-.184-.146-.308-.168a3.72 3.72 0 0 0-.549-.025h-.369zm2.76 3.142v-3.781h2.804v.64h-2.04v.838h1.898v.638h-1.898v1.029h2.112v.637h-2.876zm3.531 0v-3.781h.743l1.548 2.525v-2.525h.709v3.781h-.766l-1.524-2.466v2.466h-.71z" fill="#81b4e3"/><path d="M15.515 134.298v-2.58h1.096c.275 0 .476.023.601.07a.588.588 0 0 1 .3.247.742.742 0 0 1 .113.406.686.686 0 0 1-.171.479c-.114.126-.284.206-.51.238.113.065.206.138.279.217.073.078.172.218.296.419l.315.503h-.623l-.377-.562a3.628 3.628 0 0 0-.274-.379.39.39 0 0 0-.156-.107.84.84 0 0 0-.262-.029h-.106v1.077h-.521zm.52-1.488h.386c.25 0 .406-.011.468-.032a.279.279 0 0 0 .146-.109.335.335 0 0 0 .053-.193c0-.087-.023-.156-.069-.21s-.112-.087-.196-.102a4.284 4.284 0 0 0-.38-.009h-.407v.655zm2.08 1.488v-2.58h1.913v.437h-1.392v.572h1.295v.435h-1.295v.702h1.441v.435h-1.962zm2.272-.84l.507-.049c.03.17.092.295.186.375s.219.119.377.119c.167 0 .294-.035.379-.106a.315.315 0 0 0 .128-.249c0-.061-.018-.112-.054-.155s-.098-.08-.188-.112a6.007 6.007 0 0 0-.417-.112c-.279-.069-.475-.154-.588-.255a.672.672 0 0 1-.125-.888c.074-.114.182-.202.322-.262s.31-.09.508-.09c.324 0 .567.071.731.213.164.143.25.332.258.568l-.521.023c-.022-.133-.07-.229-.143-.286s-.184-.087-.33-.087a.594.594 0 0 0-.355.093.19.19 0 0 0-.083.16c0 .062.025.113.077.157.066.055.225.112.479.172s.441.122.563.186a.717.717 0 0 1 .285.263c.068.11.103.248.103.411a.763.763 0 0 1-.472.702c-.15.063-.337.095-.562.095-.326 0-.577-.075-.751-.227-.176-.15-.28-.37-.314-.659zm2.536.84v-2.58h1.913v.437h-1.392v.572h1.295v.435h-1.295v.702h1.441v.435h-1.962zm2.984 0v-2.144h-.765v-.437h2.05v.437h-.764v2.144h-.521z" fill="#565e70"/></svg>