<?xml version="1.0" encoding="UTF-8" standalone="no"?>
<svg
   xmlns:dc="http://purl.org/dc/elements/1.1/"
   xmlns:cc="http://creativecommons.org/ns#"
   xmlns:rdf="http://www.w3.org/1999/02/22-rdf-syntax-ns#"
   xmlns:svg="http://www.w3.org/2000/svg"
   xmlns="http://www.w3.org/2000/svg"
   viewBox="0 0 332.14001 535.77875"
   height="535.77875"
   width="332.14001"
   xml:space="preserve"
   version="1.1"
   id="svg2"><metadata
     id="metadata8"><rdf:RDF><cc:Work
         rdf:about=""><dc:format>image/svg+xml</dc:format><dc:type
           rdf:resource="http://purl.org/dc/dcmitype/StillImage" /><dc:title></dc:title></cc:Work></rdf:RDF></metadata><defs
     id="defs6"><clipPath
       id="clipPath16"
       clipPathUnits="userSpaceOnUse"><path
         id="path18"
         d="m 0,428.623 265.712,0 L 265.712,0 0,0 0,428.623 Z" /></clipPath></defs><g
     transform="matrix(1.25,0,0,-1.25,0,535.77875)"
     id="g10"><g
       id="g12"><g
         clip-path="url(#clipPath16)"
         id="g14"><g
           transform="translate(251.5383,114.7032)"
           id="g20"><path
             id="path22"
             style="fill:#666666;fill-opacity:1;fill-rule:nonzero;stroke:none"
             d="m 0,0 c 7.795,0 14.173,-6.378 14.173,-14.173 l 0,-23.092 C 14.173,-45.06 7.795,-51.438 0,-51.438" /></g><g
           transform="translate(251.2792,367.5892)"
           id="g24"><path
             id="path26"
             style="fill:#666666;fill-opacity:1;fill-rule:nonzero;stroke:none"
             d="m 0,0 c 7.795,0 14.173,-6.378 14.173,-14.173 l 0,-23.092 C 14.173,-45.06 7.795,-51.438 0,-51.438" /></g><g
           transform="translate(214.1754,304.7606)"
           id="g28"><path
             id="path30"
             style="fill:#d1d2d4;fill-opacity:1;fill-rule:nonzero;stroke:none"
             d="m 0,0 c 19.5,3.018 29.25,4.412 36.447,5.805 7.196,1.392 10.91,13.697 10.91,31.222 0,17.528 -3.714,29.83 -10.91,31.223 C 29.25,69.645 19.5,71.035 0,74.055" /></g><g
           transform="translate(220.5387,322.4578)"
           id="g32"><path
             id="path34"
             style="fill:#b2b2b2;fill-opacity:1;fill-rule:nonzero;stroke:none"
             d="m 0,0 c 0,2.727 -2.211,4.883 -4.94,4.883 l -126.055,0 c -2.728,0 -4.883,-2.156 -4.883,-4.883 l 0,-216.271 c 0,-2.727 2.155,-4.94 4.883,-4.94 l 126.056,0 c 2.728,0 4.939,2.213 4.939,4.94 l 0,93.783 c -0.797,0.484 -1.331,1.383 -1.331,2.384 l 0,25.42 c 0,1 0.536,1.846 1.331,2.33 L 0,0 Z" /></g><g
           transform="translate(213.2291,315.3875)"
           id="g36"><path
             id="path38"
             style="fill:#d1d2d4;fill-opacity:1;fill-rule:nonzero;stroke:none"
             d="m 0,0 0,-202.152 c 0,-0.422 -0.33,-0.764 -0.739,-0.764 l -120.142,0 c -0.409,0 -0.739,0.342 -0.739,0.764 l 0,202.152 c 0,0.422 0.33,0.764 0.739,0.764 l 120.142,0 C -0.33,0.764 0,0.422 0,0" /></g><g
           transform="translate(184.4654,407.1375)"
           id="g40"><path
             id="path42"
             style="fill:#d1d2d4;fill-opacity:1;fill-rule:nonzero;stroke:none"
             d="m 0,0 c -53.393,9.75 -110.507,16.108 -135.571,20.893 -39.315,7.502 -72.362,-58.198 -26.93,-83.108 34.492,-18.912 78.466,-40.392 78.466,-40.392 L 0,0 Z" /></g><g
           transform="translate(104.6129,320.5946)"
           id="g44"><path
             id="path46"
             style="fill:#999999;fill-opacity:1;fill-rule:nonzero;stroke:none"
             d="m 0,0 c -0.805,0.042 -1.614,0.067 -2.429,0.067 -24.252,0 -43.909,-19.659 -43.909,-43.909 0,-24.25 19.657,-43.907 43.909,-43.907 24.249,0 43.909,19.657 43.909,43.907 0,0.757 -0.02,1.51 -0.059,2.258" /></g><g
           transform="translate(144.4475,277.7538)"
           id="g48"><path
             id="path50"
             style="fill:#999999;fill-opacity:1;fill-rule:nonzero;stroke:none"
             d="m 0,0 c 7.316,-2.667 15.214,-4.122 23.452,-4.122 37.814,0 68.471,30.654 68.471,68.47 0,37.815 -30.657,68.469 -68.471,68.469 -37.814,0 -68.471,-30.654 -68.471,-68.469 0,-8.147 1.426,-15.959 4.037,-23.205 -0.797,0.042 -1.597,0.067 -2.404,0.067" /></g><g
           transform="translate(184.4654,21.5262)"
           id="g52"><path
             id="path54"
             style="fill:#d1d2d4;fill-opacity:1;fill-rule:nonzero;stroke:none"
             d="m 0,0 c -53.393,-9.75 -111.436,-16.109 -135.571,-20.893 -39.26,-7.781 -72.363,58.198 -26.93,83.108 34.492,18.912 78.466,40.392 78.466,40.392 L 0,0 Z" /></g><g
           transform="translate(146.1283,150.2786)"
           id="g56"><path
             id="path58"
             style="fill:#999999;fill-opacity:1;fill-rule:nonzero;stroke:none"
             d="m 0,0 c 0.042,0.805 0.067,1.614 0.067,2.429 0,24.252 -19.659,43.909 -43.909,43.909 -24.25,0 -43.907,-19.657 -43.907,-43.909 0,-24.249 19.657,-43.909 43.907,-43.909 0.757,0 1.51,0.021 2.258,0.059" /></g><g
           transform="translate(214.1754,51.9578)"
           id="g60"><path
             id="path62"
             style="fill:#d1d2d4;fill-opacity:1;fill-rule:nonzero;stroke:none"
             d="m 0,0 c 19.5,3.018 29.25,4.41 36.447,5.805 7.196,1.392 10.91,13.695 10.91,31.222 0,17.528 -3.714,29.831 -10.91,31.225 C 29.25,69.643 19.5,71.037 0,74.053" /></g><g
           transform="translate(103.2875,110.444)"
           id="g64"><path
             id="path66"
             style="fill:#999999;fill-opacity:1;fill-rule:nonzero;stroke:none"
             d="m 0,0 c -2.667,-7.316 -4.122,-15.214 -4.122,-23.452 0,-37.814 30.654,-68.471 68.47,-68.471 37.815,0 68.469,30.657 68.469,68.471 0,37.814 -30.654,68.471 -68.469,68.471 -8.147,0 -15.959,-1.426 -23.205,-4.037 0.042,0.797 0.067,1.597 0.067,2.404" /></g><g
           transform="translate(144.985,278.3016)"
           id="g68"><path
             id="path70"
             style="fill:#d1d2d4;fill-opacity:1;fill-rule:nonzero;stroke:none"
             d="m 0,0 c 7.11,-2.555 14.774,-3.951 22.767,-3.951 37.18,0 67.32,30.14 67.32,67.322 0,37.18 -30.14,67.32 -67.32,67.32 -37.182,0 -67.322,-30.14 -67.322,-67.32 0,-7.652 1.28,-15.006 3.632,-21.861 -0.59,0.023 -1.18,0.041 -1.775,0.041 -23.591,0 -42.714,-19.125 -42.714,-42.715 0,-23.592 19.123,-42.715 42.714,-42.715 23.59,0 42.715,19.123 42.715,42.715 C 0.017,-0.775 0.011,-0.387 0,0" /></g><g
           transform="translate(104.483,110.0496)"
           id="g72"><path
             id="path74"
             style="fill:#d1d2d4;fill-opacity:1;fill-rule:nonzero;stroke:none"
             d="m 0,0 c -2.622,-7.193 -4.053,-14.959 -4.053,-23.059 0,-37.179 30.14,-67.322 67.322,-67.322 37.18,0 67.32,30.143 67.32,67.322 0,37.18 -30.14,67.323 -67.32,67.323 -8.01,0 -15.692,-1.403 -22.816,-3.969 0.041,0.783 0.066,1.57 0.066,2.363 0,23.592 -19.125,42.715 -42.715,42.715 -23.591,0 -42.714,-19.123 -42.714,-42.715 0,-23.59 19.123,-42.715 42.714,-42.715 0.736,0 1.468,0.02 2.196,0.057" /></g><g
           transform="translate(102.2867,244.1707)"
           id="g76"><path
             id="path78"
             style="fill:#b2b2b2;fill-opacity:1;fill-rule:nonzero;stroke:none"
             d="M 0,0 C -18.205,0 -32.964,14.762 -32.964,32.967 -32.964,51.172 -18.205,65.93 0,65.93 18.206,65.93 32.965,51.172 32.965,32.967 32.965,14.762 18.206,0 0,0" /></g><g
           transform="translate(102.2867,248.3504)"
           id="g80"><path
             id="path82"
             style="fill:#666666;fill-opacity:1;fill-rule:nonzero;stroke:none"
             d="M 0,0 C -15.897,0 -28.785,12.889 -28.785,28.787 -28.785,44.684 -15.897,57.57 0,57.57 15.898,57.57 28.786,44.684 28.786,28.787 28.786,12.889 15.898,0 0,0" /></g><g
           transform="translate(217.5045,100.8114)"
           id="g84"><path
             id="path86"
             style="fill:#b2b2b2;fill-opacity:1;fill-rule:nonzero;stroke:none"
             d="m 0,0 c 0,2.725 -2.213,4.937 -4.939,4.937 l -26.028,0 0,26.084 c 0,2.727 -2.214,4.885 -4.94,4.885 l -27.694,0 c -2.726,0 -4.939,-2.158 -4.939,-4.885 l 0,-26.084 -26.027,0 c -2.728,0 -4.94,-2.212 -4.94,-4.937 l 0,-27.695 c 0,-2.727 2.212,-4.883 4.94,-4.883 l 26.027,0 0,-26.084 c 0,-2.727 2.213,-4.883 4.939,-4.883 l 27.694,0 c 2.726,0 4.94,2.156 4.94,4.883 l 0,26.084 26.028,0 c 2.726,0 4.939,2.156 4.939,4.883 L 0,0 Z" /></g><g
           transform="translate(166.8141,263.7039)"
           id="g88"><path
             id="path90"
             style="fill:#666666;fill-opacity:1;fill-rule:nonzero;stroke:none"
             d="m 0,0 0,-19.795 c 0,-0.238 -0.193,-0.433 -0.433,-0.433 l -10.973,0 c -0.239,0 -0.432,0.195 -0.432,0.433 l 0,19.795 c 0,0.24 0.193,0.432 0.432,0.432 l 10.973,0 C -0.193,0.432 0,0.24 0,0" /></g><g
           transform="translate(127.3668,224.4285)"
           id="g92"><path
             id="path94"
             style="fill:#666666;fill-opacity:1;fill-rule:nonzero;stroke:none"
             d="m 0,0 0,-19.793 c 0,-0.24 -0.192,-0.436 -0.433,-0.436 l -10.974,0 c -0.239,0 -0.431,0.196 -0.431,0.436 l 0,19.793 c 0,0.24 0.192,0.434 0.431,0.434 l 10.974,0 C -0.192,0.434 0,0.24 0,0" /></g><g
           transform="translate(103.8785,224.4285)"
           id="g96"><path
             id="path98"
             style="fill:#808080;fill-opacity:1;fill-rule:nonzero;stroke:none"
             d="m 0,0 0,-19.793 c 0,-0.24 -0.077,-0.436 -0.174,-0.436 l -4.367,0 c -0.095,0 -0.172,0.196 -0.172,0.436 l 0,19.793 c 0,0.24 0.077,0.434 0.172,0.434 l 4.367,0 C -0.077,0.434 0,0.24 0,0" /></g><g
           transform="translate(160.8951,168.7254)"
           id="g100"><path
             id="path102"
             style="fill:#666666;fill-opacity:1;fill-rule:nonzero;stroke:none"
             d="m 0,0 c -2.581,0 -5.919,15.09 -5.919,15.09 -0.445,1.67 0.326,2.785 2.784,2.785 l 6.269,0 c 2.486,0 3.193,-1.219 2.785,-2.785 C 5.919,15.09 2.43,0 0,0" /></g><g
           transform="translate(199.0904,72.366)"
           id="g104"><path
             id="path106"
             style="fill:#666666;fill-opacity:1;fill-rule:nonzero;stroke:none"
             d="m 0,0 c -8.077,0 -14.625,6.549 -14.625,14.625 0,8.076 6.548,14.625 14.625,14.625 8.077,0 14.625,-6.549 14.625,-14.625 C 14.625,6.549 8.077,0 0,0" /></g><g
           transform="translate(136.1793,72.366)"
           id="g108"><path
             id="path110"
             style="fill:#666666;fill-opacity:1;fill-rule:nonzero;stroke:none"
             d="m 0,0 c -8.077,0 -14.625,6.549 -14.625,14.625 0,8.076 6.548,14.625 14.625,14.625 8.078,0 14.625,-6.549 14.625,-14.625 C 14.625,6.549 8.078,0 0,0" /></g><g
           transform="translate(167.6354,70.161)"
           id="g112"><path
             id="path114"
             style="fill:#666666;fill-opacity:1;fill-rule:nonzero;stroke:none"
             d="m 0,0 c 8.076,0 14.626,-6.549 14.626,-14.625 0,-8.078 -6.55,-14.625 -14.626,-14.625 -8.077,0 -14.625,6.547 -14.625,14.625 C -14.625,-6.549 -8.077,0 0,0" /></g><g
           transform="translate(167.6354,133.0711)"
           id="g116"><path
             id="path118"
             style="fill:#666666;fill-opacity:1;fill-rule:nonzero;stroke:none"
             d="m 0,0 c 8.076,0 14.626,-6.547 14.626,-14.625 0,-8.078 -6.55,-14.625 -14.626,-14.625 -8.077,0 -14.625,6.547 -14.625,14.625 C -14.625,-6.547 -8.077,0 0,0" /></g><g
           transform="translate(218.36,355.8075)"
           id="g120"><path
             id="path122"
             style="fill:#b2b2b2;fill-opacity:1;fill-rule:nonzero;stroke:none"
             d="m 0,0 c 0,2.729 -2.212,4.939 -4.939,4.939 l -26.028,0 0,26.084 c 0,2.729 -2.212,4.883 -4.939,4.883 l -27.693,0 c -2.727,0 -4.939,-2.154 -4.939,-4.883 l 0,-26.084 -26.027,0 c -2.728,0 -4.94,-2.21 -4.94,-4.939 l 0,-27.691 c 0,-2.729 2.212,-4.883 4.94,-4.883 l 26.027,0 0,-26.084 c 0,-2.729 2.212,-4.885 4.939,-4.885 l 27.693,0 c 2.727,0 4.939,2.156 4.939,4.885 l 0,26.084 26.028,0 c 2.727,0 4.939,2.154 4.939,4.883 L 0,0 Z" /></g><g
           transform="translate(102.2867,119.743)"
           id="g124"><path
             id="path126"
             style="fill:#b2b2b2;fill-opacity:1;fill-rule:nonzero;stroke:none"
             d="M 0,0 C -18.205,0 -32.964,14.76 -32.964,32.965 -32.964,51.17 -18.205,65.93 0,65.93 18.206,65.93 32.965,51.17 32.965,32.965 32.965,14.76 18.206,0 0,0" /></g><g
           transform="translate(102.2867,123.9227)"
           id="g128"><path
             id="path130"
             style="fill:#666666;fill-opacity:1;fill-rule:nonzero;stroke:none"
             d="M 0,0 C -15.897,0 -28.785,12.887 -28.785,28.785 -28.785,44.684 -15.897,57.57 0,57.57 15.898,57.57 28.786,44.684 28.786,28.785 28.786,12.887 15.898,0 0,0" /></g><g
           transform="translate(213.1197,341.9891)"
           id="g132"><path
             id="path134"
             style="fill:#808080;fill-opacity:1;fill-rule:nonzero;stroke:none"
             d="m 0,0 -6.382,6.721 0,-13.44 L 0,0 Z" /></g><g
           transform="translate(124.0953,341.9891)"
           id="g136"><path
             id="path138"
             style="fill:#808080;fill-opacity:1;fill-rule:nonzero;stroke:none"
             d="m 0,0 6.382,6.721 0,-13.44 L 0,0 Z" /></g><g
           transform="translate(168.608,297.4774)"
           id="g140"><path
             id="path142"
             style="fill:#808080;fill-opacity:1;fill-rule:nonzero;stroke:none"
             d="M 0,0 6.718,6.383 -6.72,6.383 0,0 Z" /></g><g
           transform="translate(168.608,386.5028)"
           id="g144"><path
             id="path146"
             style="fill:#808080;fill-opacity:1;fill-rule:nonzero;stroke:none"
             d="m 0,0 6.718,-6.383 -13.438,0 L 0,0 Z" /></g><g
           transform="translate(178.5729,325.4383)"
           id="g148"><path
             id="path150"
             style="fill:#666666;fill-opacity:1;fill-rule:nonzero;stroke:none"
             d="m 0,0 c -0.051,0.596 -0.355,1.143 -0.833,1.5 l -7.881,6.215 c -0.753,0.578 -1.801,0.578 -2.553,0 L -19.203,1.5 c -0.522,-0.395 -0.83,-1.01 -0.833,-1.666 l -0.055,-14.43 c -0.005,-0.56 0.218,-1.097 0.613,-1.496 0.397,-0.394 0.936,-0.615 1.496,-0.611 l 15.595,0 c 1.146,-0.01 2.087,0.906 2.109,2.053 L 0,-0.221 C 0.003,-0.148 0.003,-0.074 0,0" /></g><g
           transform="translate(178.7301,358.5399)"
           id="g152"><path
             id="path154"
             style="fill:#666666;fill-opacity:1;fill-rule:nonzero;stroke:none"
             d="m 0,0 c -0.051,-0.594 -0.354,-1.139 -0.834,-1.496 l -7.88,-6.217 c -0.751,-0.58 -1.8,-0.58 -2.553,0 l -7.934,6.217 c -0.524,0.394 -0.832,1.008 -0.834,1.664 l -0.055,14.428 c -0.004,0.562 0.217,1.099 0.612,1.498 0.398,0.394 0.936,0.615 1.497,0.611 l 15.594,0 c 1.148,0.01 2.087,-0.906 2.11,-2.053 L 0,0.223 C 0.003,0.148 0.003,0.074 0,0" /></g><g
           transform="translate(152.0563,332.0242)"
           id="g156"><path
             id="path158"
             style="fill:#666666;fill-opacity:1;fill-rule:nonzero;stroke:none"
             d="m 0,0 c 0.596,0.053 1.141,0.355 1.498,0.834 l 6.216,7.881 c 0.579,0.752 0.579,1.801 0,2.553 l -6.216,7.935 c -0.394,0.522 -1.01,0.83 -1.664,0.832 l -14.429,0.057 c -0.561,0.002 -1.099,-0.219 -1.495,-0.613 -0.397,-0.397 -0.618,-0.936 -0.614,-1.497 l 0,-15.595 c -0.009,-1.145 0.907,-2.086 2.054,-2.108 L -0.221,0 C -0.148,-0.002 -0.073,-0.002 0,0" /></g><g
           transform="translate(185.1588,331.868)"
           id="g160"><path
             id="path162"
             style="fill:#666666;fill-opacity:1;fill-rule:nonzero;stroke:none"
             d="m 0,0 c -0.596,0.051 -1.14,0.353 -1.499,0.832 l -6.215,7.879 c -0.58,0.754 -0.58,1.803 0,2.555 l 6.215,7.935 c 0.394,0.524 1.012,0.83 1.665,0.832 l 14.43,0.057 c 0.56,0.004 1.098,-0.217 1.495,-0.613 0.396,-0.397 0.617,-0.936 0.613,-1.497 l 0,-15.593 C 16.712,1.238 15.798,0.299 14.65,0.277 L 0.223,0 C 0.147,-0.004 0.074,-0.004 0,0" /></g><g
           transform="translate(175.9166,206.7567)"
           id="g164"><path
             id="path166"
             style="fill:#666666;fill-opacity:1;fill-rule:evenodd;stroke:none"
             d="m 0,0 c -0.068,-0.422 -0.107,-0.654 -0.179,-0.977 -0.08,-0.369 -0.177,-0.736 -0.301,-1.093 -0.152,-0.436 -0.337,-0.852 -0.624,-1.217 -0.229,-0.291 -0.503,-0.516 -0.87,-0.625 -0.327,-0.1 -0.629,-0.041 -0.911,0.131 -0.326,0.197 -0.557,0.488 -0.763,0.801 -0.25,0.386 -0.429,0.806 -0.587,1.234 -0.011,0.037 -0.015,0.078 -0.026,0.117 -0.012,0.031 -0.003,0.063 0.008,0.096 0.113,0.377 0.23,0.75 0.348,1.129 0.187,0.599 0.375,1.199 0.557,1.797 0.107,0.347 0.218,0.693 0.324,1.039 0.009,0.031 0.014,0.072 0.056,0.084 0.033,-0.016 0.038,-0.047 0.047,-0.077 0.132,-0.382 0.268,-0.765 0.393,-1.148 0.09,-0.27 0.191,-0.537 0.334,-0.787 0.062,-0.117 0.139,-0.231 0.236,-0.324 0.027,-0.026 0.055,-0.049 0.088,-0.069 0.099,-0.054 0.197,-0.039 0.273,0.051 0.076,0.092 0.115,0.201 0.143,0.313 0.043,0.187 0.06,0.38 0.066,0.572 0.012,0.449 -0.042,0.889 -0.119,1.326 -0.027,0.148 -0.086,0.291 -0.135,0.432 -0.209,0.597 -0.401,1.201 -0.604,1.802 -0.015,0.043 -0.038,0.086 -0.038,0.135 0.051,0.215 0.124,0.424 0.19,0.635 0.203,0.66 0.409,1.322 0.613,1.982 0.128,0.412 0.257,0.871 0.382,1.284 0.01,0.025 0.02,-0.016 0.04,0 0.006,0 0.011,0.003 0.015,0 0.01,-0.006 0.009,0.007 0.012,0 C -0.895,8.238 -0.757,7.818 -0.63,7.408 -0.449,6.807 -0.285,6.201 -0.153,5.586 -0.077,5.236 -0.077,5.254 0.04,4.535 0.157,3.818 0.198,1.258 0,0" /></g><g
           transform="translate(170.2193,223.9539)"
           id="g168"><path
             id="path170"
             style="fill:#666666;fill-opacity:1;fill-rule:evenodd;stroke:none"
             d="M 0,0 C 0.034,0.686 0.183,1.504 0.295,2.252 0.381,2.818 0.473,3.387 0.598,3.947 0.709,4.453 0.838,4.955 1.065,5.424 1.14,5.58 1.231,5.727 1.342,5.865 1.573,6.148 1.869,6.254 2.232,6.215 2.827,6.156 3.277,5.844 3.65,5.402 3.93,5.068 4.138,4.693 4.301,4.289 4.335,4.201 4.384,4.115 4.394,4.016 4.394,3.922 4.354,3.838 4.327,3.752 4.12,3.104 3.918,2.461 3.712,1.814 3.555,1.324 3.402,0.836 3.245,0.348 3.234,0.314 3.223,0.207 3.194,0.184 c 0,0 -0.041,0.119 -0.051,0.15 C 3.062,0.561 2.98,0.789 2.897,1.018 2.842,1.176 2.793,1.342 2.701,1.488 2.667,1.545 2.626,1.6 2.572,1.646 2.38,1.82 2.149,1.781 1.972,1.578 1.786,1.363 1.703,1.102 1.675,0.82 1.637,0.467 1.724,0.137 1.841,-0.193 1.949,-0.5 2.049,-0.809 2.152,-1.119 2.249,-1.414 2.35,-1.709 2.45,-2.002 2.461,-2.033 2.478,-2.066 2.474,-2.104 2.399,-2.342 2.323,-2.578 2.249,-2.818 2.118,-3.221 1.989,-3.695 1.86,-4.102 c -0.009,-0.033 -0.014,0.022 -0.046,0 -0.413,-0.003 -0.829,-0.009 -1.245,0 -0.003,-0.002 -0.007,-0.005 -0.005,0 -0.045,-0.011 -0.055,-0.002 -0.097,0 -0.09,0.344 -0.203,0.985 -0.264,1.317 0,0 -0.241,1.617 -0.203,2.785" /></g><g
           transform="translate(172.9459,209.2684)"
           id="g172"><path
             id="path174"
             style="fill:#666666;fill-opacity:1;fill-rule:evenodd;stroke:none"
             d="M 0,0 C -0.068,-0.145 -0.101,-0.303 -0.148,-0.453 -0.352,-1.102 -0.549,-1.75 -0.751,-2.398 -0.849,-2.717 -0.949,-3.033 -1.05,-3.35 c -0.08,-0.263 -0.16,-0.527 -0.24,-0.791 -0.041,0.112 -0.083,0.223 -0.125,0.332 -0.11,0.321 -0.225,0.643 -0.336,0.961 -0.183,0.522 -0.365,1.041 -0.547,1.561 -0.169,0.475 -0.338,0.945 -0.503,1.416 -0.192,0.545 -0.384,1.088 -0.575,1.631 -0.061,0.168 -0.129,0.334 -0.175,0.508 -0.011,0.05 0.014,0.097 0.026,0.144 0.135,0.422 0.269,0.842 0.401,1.264 0.257,0.795 0.506,1.662 0.758,2.455 0.01,0.033 0.016,-0.018 0.051,0 l 0.22,0 c 0.031,-0.012 0.032,0.025 0.043,0 0.16,-0.486 0.332,-1.022 0.493,-1.504 0.254,-0.74 0.506,-1.475 0.758,-2.211 C -0.629,1.906 -0.454,1.4 -0.28,0.891 -0.189,0.625 -0.099,0.355 -0.005,0.092 0.004,0.061 0.032,0.029 0,0" /></g><g
           transform="translate(173.4156,224.2098)"
           id="g176"><path
             id="path178"
             style="fill:#666666;fill-opacity:1;fill-rule:evenodd;stroke:none"
             d="M 0,0 C 0.164,0.52 0.33,1.039 0.5,1.561 0.73,2.293 0.965,3.029 1.197,3.76 1.448,3.016 1.7,2.271 1.949,1.525 2.342,0.363 2.734,-0.799 3.125,-1.959 3.2,-2.184 3.277,-2.408 3.35,-2.635 3.36,-2.664 3.35,-2.697 3.341,-2.729 3.177,-3.252 3.014,-3.834 2.857,-4.357 c -0.017,-0.059 -0.044,-0.002 -0.104,0 -0.398,0 -0.792,-0.002 -1.187,0 -0.032,0.005 -0.043,-0.026 -0.051,0 C 1.351,-3.895 1.183,-3.381 1.019,-2.916 0.822,-2.367 0.624,-1.818 0.428,-1.275 0.286,-0.877 0.146,-0.488 0.006,-0.096 -0.005,-0.066 -0.023,-0.035 0,0" /></g><g
           transform="translate(170.6305,215.3992)"
           id="g180"><path
             id="path182"
             style="fill:#666666;fill-opacity:1;fill-rule:evenodd;stroke:none"
             d="m 0,0 c -0.411,-1.291 -0.823,-2.57 -1.235,-3.863 -0.079,0.185 -0.136,0.384 -0.208,0.58 -0.144,0.404 -0.285,0.812 -0.426,1.22 -0.189,0.538 -0.375,1.075 -0.56,1.612 -0.046,0.127 -0.092,0.324 -0.137,0.451 l 0.028,0 c 0.017,0.016 0.038,0 0.063,0 L -0.016,0 0,0 Z" /></g><g
           transform="translate(174.9732,219.8524)"
           id="g184"><path
             id="path186"
             style="fill:#666666;fill-opacity:1;fill-rule:evenodd;stroke:none"
             d="M 0,0 C 0.401,-0.002 0.798,0 1.201,0 1.239,-0.002 1.261,-0.047 1.276,0 1.392,0.391 1.514,0.824 1.637,1.217 1.691,1.385 1.74,1.555 1.792,1.723 1.896,1.428 1.999,1.131 2.1,0.832 2.198,0.553 2.292,0.281 2.39,0 2.396,-0.006 2.392,-0.002 2.384,0 2.369,-0.002 2.352,0 2.338,0 1.576,-0.002 0.818,0 0.057,0 0.037,0 0.019,-0.002 0,0 -0.004,0.004 -0.004,-0.002 0,0" /></g><g
           transform="translate(173.65,211.5008)"
           id="g188"><path
             id="path190"
             style="fill:#666666;fill-opacity:1;fill-rule:evenodd;stroke:none"
             d="m 0,0 c -0.08,0.221 -0.157,0.439 -0.233,0.658 -0.372,1.088 -0.742,2.156 -1.117,3.24 l 0.059,0 2.45,0 0.049,0 C 1.055,3.406 0.902,2.928 0.751,2.436 0.619,2.014 0.488,1.592 0.358,1.174 0.236,0.781 0.117,0.391 0,0" /></g><g
           transform="translate(172.6754,221.8524)"
           id="g192"><path
             id="path194"
             style="fill:#666666;fill-opacity:1;fill-rule:evenodd;stroke:none"
             d="M 0,0 C 0.084,-0.244 0.17,-0.486 0.251,-0.732 0.398,-1.162 0.537,-1.572 0.68,-2 c -0.25,-0.002 -0.502,0 -0.75,0 -0.194,-0.002 -0.383,-0.002 -0.573,0 0.124,0.393 0.248,0.766 0.373,1.158 0.089,0.28 0.178,0.565 0.27,0.842" /></g><g
           transform="translate(172.0309,219.8524)"
           id="g196"><path
             id="path198"
             style="fill:#666666;fill-opacity:1;fill-rule:evenodd;stroke:none"
             d="M 0,0 C 0.443,0.004 0.887,0.004 1.328,0 1.795,0.006 2.264,-0.002 2.729,0 2.799,0 2.87,0.006 2.938,0 3.695,-0.004 4.449,0 5.205,0 5.248,-0.002 5.291,0.02 5.329,0 5.36,-0.004 5.392,0 5.421,0 9.187,-0.002 12.955,-0.018 16.72,-0.018 l 0.071,0 c 0.02,-0.003 0.028,-0.015 0.018,-0.035 -0.051,-0.189 -0.104,-0.375 -0.155,-0.562 -0.142,-0.531 -0.283,-1.063 -0.422,-1.594 -0.13,-0.484 -0.255,-0.975 -0.384,-1.459 -0.151,-0.572 -0.304,-1.143 -0.452,-1.713 -0.121,-0.463 -0.253,-0.922 -0.411,-1.369 -0.277,-0.781 -0.622,-1.531 -1.089,-2.217 -0.25,-0.369 -0.529,-0.713 -0.853,-1.017 -0.336,-0.323 -0.708,-0.594 -1.123,-0.819 -0.452,-0.244 -0.934,-0.406 -1.438,-0.513 -0.202,-0.043 -0.41,-0.065 -0.615,-0.09 -0.03,-0.012 -0.061,0.002 -0.091,-0.012 -0.036,0 -0.071,-0.002 -0.106,-0.004 -0.045,-0.012 -0.09,0.004 -0.135,-0.01 l -0.637,0 c -0.058,0.014 -0.117,-0.002 -0.175,0.01 -0.04,0.002 -0.082,0.004 -0.122,0.004 -0.038,0.016 -0.081,-0.002 -0.119,0.012 -0.029,0.002 -0.064,0.002 -0.093,0.004 -0.027,0.011 -0.061,-0.002 -0.089,0.007 -0.024,0.002 -0.044,0.004 -0.066,0.004 -0.025,0.014 -0.049,0 -0.078,0.012 -0.016,0 -0.034,0.002 -0.053,0.002 -0.021,0.016 -0.049,0 -0.073,0.014 -0.343,0.049 -0.684,0.105 -1.02,0.197 -0.449,0.127 -0.879,0.303 -1.266,0.568 -0.438,0.301 -0.773,0.69 -0.99,1.176 -0.139,0.322 -0.212,0.664 -0.247,1.014 -0.011,0.031 0.003,0.062 -0.009,0.092 -0.002,0.05 -0.004,0.097 -0.005,0.148 -0.009,0.094 -0.009,0.189 0,0.283 10e-4,0.049 0.003,0.1 0.005,0.151 0.012,0.039 -0.004,0.08 0.009,0.119 0.001,0.019 0.003,0.045 0.003,0.064 0.014,0.024 0,0.051 0.011,0.076 0.01,0.182 0.041,0.368 0.078,0.547 0.044,0.213 0.084,0.43 0.155,0.637 0.009,0.035 0.017,0.072 0.027,0.109 0.004,0.02 0.016,0.03 0.033,0.03 l 0.065,0 7.462,0 c 0.03,0 0.06,-0.008 0.089,0.004 0.243,0.023 0.406,0.164 0.52,0.367 0.072,0.133 0.117,0.281 0.129,0.435 0.007,0.075 0.007,0.149 0,0.223 -0.023,0.246 -0.098,0.463 -0.321,0.602 -0.057,0.037 -0.117,0.058 -0.183,0.058 -0.073,0.014 -0.145,0.004 -0.22,0.006 -0.212,0.004 -0.432,-0.006 -0.648,0.004 -0.27,0 -0.543,0.004 -0.812,0.006 L 2.85,-4.453 c -0.008,-0.004 -0.017,0 -0.026,0 -0.027,-0.004 -0.059,0 -0.086,0 l -2.378,0 -0.091,0 c -0.478,-0.004 -0.959,-0.004 -1.435,0 -0.079,-0.004 -0.156,-0.004 -0.234,0 -0.603,-0.004 -1.2,0 -1.8,0 l -0.658,0 -0.08,0 -0.029,0 c 0.101,0.297 0.2,0.697 0.298,0.998 0.108,0.328 0.214,0.654 0.32,0.982 0.124,0.393 0.252,0.784 0.381,1.172 C -2.845,-0.92 -2.723,-0.379 -2.6,0 L -2.486,0 0,0 Z" /></g><g
           transform="translate(161.7242,235.1356)"
           id="g200"><path
             id="path202"
             style="fill:#666666;fill-opacity:1;fill-rule:nonzero;stroke:none"
             d="m 0,0 0.65,0 c 0,-0.229 -0.004,-0.449 0,-0.67 0.008,-0.57 0.201,-0.812 0.762,-0.871 0.385,-0.037 0.778,-0.039 1.159,0.008 0.518,0.058 0.796,0.416 0.801,0.931 0.003,0.381 0,0.76 0,1.168 l -5.947,0 0,1.034 6.625,0 C 4.057,1.588 4.073,1.574 4.073,1.561 4.061,0.645 4.064,-0.27 4.035,-1.184 4.024,-1.43 3.936,-1.684 3.839,-1.914 3.721,-2.215 3.488,-2.422 3.172,-2.521 2.499,-2.732 1.815,-2.762 1.126,-2.596 0.461,-2.436 0.062,-2.023 0.006,-1.342 -0.031,-0.9 0,-0.455 0,0" /></g><g
           transform="translate(161.733,200.4852)"
           id="g204"><path
             id="path206"
             style="fill:#666666;fill-opacity:1;fill-rule:nonzero;stroke:none"
             d="m 0,0 c -0.372,-0.049 -0.747,-0.068 -1.107,-0.154 -0.535,-0.129 -0.776,-0.475 -0.785,-1.022 -0.005,-0.592 0.218,-0.939 0.768,-1.082 0.741,-0.197 1.497,-0.197 2.24,-0.004 0.524,0.135 0.745,0.491 0.733,1.08 C 1.837,-0.604 1.607,-0.27 1.088,-0.148 0.735,-0.068 0.367,-0.049 0,0 m -0.079,-3.498 c -0.363,0.045 -0.79,0.064 -1.196,0.154 -0.827,0.186 -1.208,0.596 -1.286,1.438 -0.046,0.533 -0.028,1.082 0.037,1.611 0.08,0.645 0.499,1.039 1.116,1.193 0.886,0.225 1.781,0.221 2.671,0.028 C 1.997,0.768 2.456,0.312 2.514,-0.443 2.559,-1.006 2.562,-1.59 2.483,-2.146 2.374,-2.916 1.803,-3.26 1.093,-3.383 0.724,-3.445 0.35,-3.457 -0.079,-3.498" /></g><g
           transform="translate(156.5855,224.2996)"
           id="g208"><path
             id="path210"
             style="fill:#666666;fill-opacity:1;fill-rule:nonzero;stroke:none"
             d="m 0,0 c 0.732,-0.295 1.436,-0.543 2.108,-0.865 0.475,-0.227 0.884,-0.217 1.371,-0.024 1.306,0.518 2.634,0.983 3.955,1.469 0.064,0.024 0.13,0.041 0.224,0.072 0,-0.355 0.009,-0.687 -0.009,-1.017 C 7.644,-0.432 7.534,-0.518 7.454,-0.549 6.471,-0.914 5.488,-1.277 4.504,-1.641 4.444,-1.662 4.387,-1.686 4.286,-1.725 4.467,-1.803 4.615,-1.869 4.765,-1.932 5.672,-2.297 6.576,-2.666 7.483,-3.027 7.614,-3.076 7.667,-3.143 7.663,-3.285 7.651,-3.545 7.658,-3.807 7.658,-4.102 7.225,-3.926 6.818,-3.768 6.418,-3.6 4.369,-2.773 2.323,-1.943 0.276,-1.121 0.068,-1.039 -0.031,-0.941 -0.007,-0.711 0.019,-0.492 0,-0.266 0,0" /></g><g
           transform="translate(162.3707,209.575)"
           id="g212"><path
             id="path214"
             style="fill:#666666;fill-opacity:1;fill-rule:nonzero;stroke:none"
             d="m 0,0 -0.664,0 c 0,0.154 0.015,0.305 -0.006,0.451 C -0.699,0.645 -0.736,0.842 -0.804,1.025 -0.878,1.213 -1.035,1.328 -1.247,1.332 -1.477,1.34 -1.708,1.361 -1.936,1.336 -2.343,1.293 -2.509,1.115 -2.525,0.699 -2.543,0.27 -2.529,-0.16 -2.529,-0.625 l 0.243,0 c 0.852,0 1.704,0 2.556,0.002 0.592,0 0.918,0.312 0.933,0.906 0.011,0.467 0.002,0.938 0.002,1.414 l 0.701,0 C 1.864,0.91 1.861,0.133 1.764,-0.637 1.684,-1.279 1.295,-1.611 0.65,-1.637 -0.424,-1.68 -1.498,-1.668 -2.572,-1.68 c -0.206,-0.002 -0.409,0 -0.666,0 0,0.387 -0.007,0.739 0.002,1.096 0.019,0.633 0,1.277 0.084,1.902 0.095,0.733 0.415,1.018 1.141,1.092 0.357,0.041 0.727,0.004 1.09,-0.035 0.378,-0.037 0.61,-0.283 0.735,-0.629 C 0.018,1.187 0.006,0.605 0,0" /></g><g
           transform="translate(159.8414,226.618)"
           id="g216"><path
             id="path218"
             style="fill:#666666;fill-opacity:1;fill-rule:nonzero;stroke:none"
             d="M 0,0 1.455,0 C 1.909,0 2.363,-0.002 2.814,0 3.378,0.006 3.71,0.314 3.73,0.879 3.743,1.268 3.734,1.658 3.734,2.049 l 0,0.275 0.642,0 C 4.382,2.281 4.396,2.23 4.396,2.178 4.382,1.518 4.385,0.855 4.34,0.197 4.309,-0.262 4.136,-0.687 3.68,-0.889 3.463,-0.988 3.203,-1.033 2.965,-1.039 1.779,-1.055 0.59,-1.045 -0.595,-1.047 c -0.022,0 -0.046,0.01 -0.106,0.026 0,0.308 -0.008,0.623 0.002,0.937 0.015,0.668 -0.011,1.344 0.067,2.002 0.092,0.746 0.401,1.029 1.148,1.115 C 0.896,3.08 1.291,3.035 1.672,2.982 2.075,2.928 2.307,2.629 2.378,2.26 2.479,1.734 2.519,1.193 2.588,0.635 l -0.723,0 c 0,0.152 0.024,0.312 -0.006,0.467 C 1.816,1.318 1.773,1.559 1.66,1.746 1.48,2.049 1.14,1.967 0.855,1.992 0.778,1.998 0.696,1.979 0.619,1.969 0.201,1.918 0.023,1.752 0.006,1.328 -0.015,0.898 0,0.467 0,0" /></g><g
           transform="translate(159.1715,219.4442)"
           id="g220"><path
             id="path222"
             style="fill:#666666;fill-opacity:1;fill-rule:nonzero;stroke:none"
             d="m 0,0 0.646,0 c 0,-0.41 -0.005,-0.812 0.003,-1.217 0.006,-0.205 0.021,-0.416 0.068,-0.613 0.092,-0.375 0.334,-0.619 0.731,-0.647 0.3,-0.023 0.605,-0.037 0.9,-0.002 0.374,0.043 0.521,0.223 0.566,0.598 0.021,0.174 0.035,0.348 0.048,0.524 C 3.06,-0.051 3.613,0.156 4.574,0.236 4.922,0.264 5.287,0.18 5.63,0.1 6.231,-0.043 6.552,-0.475 6.588,-1.068 6.629,-1.742 6.598,-2.42 6.598,-3.115 l -0.631,0 c 0,0.326 0.002,0.65 -0.004,0.972 C 5.959,-1.941 5.95,-1.744 5.922,-1.547 5.875,-1.209 5.695,-0.965 5.344,-0.902 5.111,-0.863 4.869,-0.828 4.635,-0.844 4.245,-0.867 4.053,-1.08 4.014,-1.467 3.98,-1.807 3.958,-2.15 3.918,-2.488 3.859,-2.969 3.602,-3.285 3.131,-3.434 2.404,-3.656 1.678,-3.707 0.948,-3.467 0.361,-3.271 0.037,-2.846 0.009,-2.244 -0.025,-1.506 0,-0.764 0,0" /></g><g
           transform="translate(159.1461,191.8563)"
           id="g224"><path
             id="path226"
             style="fill:#666666;fill-opacity:1;fill-rule:nonzero;stroke:none"
             d="m 0,0 0,1.027 1.154,0 c 0.782,0 1.563,-0.002 2.343,0 0.585,0.004 0.905,0.307 0.928,0.885 0.014,0.326 0.005,0.652 0.005,0.979 0,0.033 -0.008,0.062 -0.017,0.127 l -4.415,0 0,1.027 5.062,0 C 5.062,4.045 5.08,4.031 5.08,4.019 5.068,3.08 5.077,2.143 5.028,1.205 5.014,0.932 4.86,0.644 4.711,0.402 4.545,0.129 4.242,0.008 3.93,0.004 2.628,-0.006 1.324,0 0,0" /></g><g
           transform="translate(165.1813,206.6942)"
           id="g228"><path
             id="path230"
             style="fill:#666666;fill-opacity:1;fill-rule:nonzero;stroke:none"
             d="m 0,0 0,-1.045 -0.933,0 0,-1.174 -0.66,0 0,1.17 -0.25,0 c -0.925,0 -1.848,0.004 -2.77,0 -0.128,0 -0.256,-0.015 -0.377,-0.045 -0.267,-0.066 -0.35,-0.185 -0.35,-0.459 l 0,-0.422 -0.687,0 c 0.017,0.495 -0.077,0.993 0.07,1.479 0.098,0.32 0.349,0.49 0.666,0.49 C -3.533,0.002 -1.777,0 0,0" /></g><g
           transform="translate(165.1852,214.7801)"
           id="g232"><path
             id="path234"
             style="fill:#666666;fill-opacity:1;fill-rule:nonzero;stroke:none"
             d="m 0,0 0,-1.047 -0.939,0 0,-1.182 -0.662,0 0,1.176 -0.288,0 -2.673,0 c -0.118,0 -0.239,0 -0.355,-0.019 -0.317,-0.061 -0.43,-0.201 -0.427,-0.524 l 0,-0.375 -0.686,0 c 0.016,0.498 -0.081,1.004 0.08,1.498 0.093,0.287 0.321,0.424 0.612,0.459 C -5.219,0 -5.101,0 -4.982,0 L -0.304,0 0,0 Z" /></g><path
           id="path236"
           style="fill:#666666;fill-opacity:1;fill-rule:nonzero;stroke:none"
           d="m 165.793,230.64 -6.644,0 0,1.031 6.644,0 0,-1.031 z" /><path
           id="path238"
           style="fill:#666666;fill-opacity:1;fill-rule:nonzero;stroke:none"
           d="m 164.235,202.606 -5.086,0 0,1.021 5.086,0 0,-1.021 z" /><path
           id="path240"
           style="fill:#666666;fill-opacity:1;fill-rule:nonzero;stroke:none"
           d="m 164.881,203.63 0.904,0 0,-1.023 -0.904,0 0,1.023 z" /><g
           transform="translate(167.8092,215.1219)"
           id="g242"><path
             id="path244"
             style="fill:none;stroke:#d1d2d4;stroke-width:0.55199999;stroke-linecap:butt;stroke-linejoin:miter;stroke-miterlimit:10;stroke-dasharray:none;stroke-opacity:1"
             d="M 0,0 7.379,0" /></g><g
           transform="translate(170.4059,220.1239)"
           id="g246"><path
             id="path248"
             style="fill:none;stroke:#d1d2d4;stroke-width:0.55199999;stroke-linecap:butt;stroke-linejoin:miter;stroke-miterlimit:10;stroke-dasharray:none;stroke-opacity:1"
             d="M 0,0 7.38,0" /></g><g
           transform="translate(159.0619,109.4457)"
           id="g250"><path
             id="path252"
             style="fill:#bc82a1;fill-opacity:1;fill-rule:nonzero;stroke:none"
             d="m 0,0 17.146,0 c 0.318,0 0.578,0.26 0.578,0.578 l 0,16.845 c 0,0.318 -0.26,0.578 -0.578,0.578 L 0,18.001 c -0.318,0 -0.578,-0.26 -0.578,-0.578 l 0,-16.845 C -0.578,0.26 -0.318,0 0,0 m 0.988,16.586 15.17,0 0,-15.171 -15.17,0 0,15.171 z" /></g><g
           transform="translate(177.0231,56.0478)"
           id="g254"><path
             id="path256"
             style="fill:#ca6869;fill-opacity:1;fill-rule:nonzero;stroke:none"
             d="m 0,0 c 0,5.15 -4.175,9.325 -9.325,9.325 -5.15,0 -9.325,-4.175 -9.325,-9.325 0,-5.15 4.175,-9.325 9.325,-9.325 C -4.175,-9.325 0,-5.15 0,0 m -9.139,-10.81 c -5.893,0 -10.67,4.778 -10.67,10.671 0,5.893 4.777,10.67 10.67,10.67 5.893,0 10.671,-4.777 10.671,-10.67 0,-5.893 -4.778,-10.671 -10.671,-10.671" /></g><g
           transform="translate(192.5354,77.2312)"
           id="g258"><path
             id="path260"
             style="fill:#5e9d81;fill-opacity:1;fill-rule:nonzero;stroke:none"
             d="m 0,0 0,0 c -0.178,0.308 -0.072,0.706 0.237,0.884 l 16.186,9.35 c 0.308,0.178 0.706,0.072 0.884,-0.236 C 17.485,9.689 17.379,9.291 17.07,9.113 L 0.884,-0.237 C 0.576,-0.415 0.178,-0.308 0,0" /></g><g
           transform="translate(193.132,76.9081)"
           id="g262"><path
             id="path264"
             style="fill:#5e9d81;fill-opacity:1;fill-rule:nonzero;stroke:none"
             d="m 0,0 0,0 c -0.356,0 -0.647,0.291 -0.647,0.647 l 0,18.61 c 0,0.356 0.291,0.647 0.647,0.647 l 0,0 c 0.356,0 0.647,-0.291 0.647,-0.647 l 0,-18.61 C 0.647,0.291 0.356,0 0,0" /></g><g
           transform="translate(192.4982,96.4887)"
           id="g266"><path
             id="path268"
             style="fill:#5e9d81;fill-opacity:1;fill-rule:nonzero;stroke:none"
             d="m 0,0 0,0 c 0.178,0.308 0.576,0.415 0.884,0.238 l 16.173,-9.321 c 0.308,-0.177 0.415,-0.575 0.237,-0.884 -0.177,-0.308 -0.575,-0.415 -0.884,-0.237 L 0.238,-0.884 C -0.071,-0.706 -0.178,-0.308 0,0" /></g><g
           transform="translate(128.0268,78.8388)"
           id="g270"><path
             id="path272"
             style="fill:#5e9ec4;fill-opacity:1;fill-rule:nonzero;stroke:none"
             d="m 0,0 0,0 c -0.301,0.301 -0.301,0.793 0,1.093 l 15.29,15.291 c 0.301,0.3 0.793,0.3 1.093,0 l 0.001,0 c 0.3,-0.301 0.3,-0.793 0,-1.094 L 1.093,0 C 0.793,-0.301 0.301,-0.301 0,0" /></g><g
           transform="translate(127.9484,95.1453)"
           id="g274"><path
             id="path276"
             style="fill:#5e9ec4;fill-opacity:1;fill-rule:nonzero;stroke:none"
             d="m 0,0 0,0 c 0.301,0.301 0.793,0.301 1.093,0 l 15.29,-15.29 c 0.301,-0.301 0.301,-0.793 0,-1.094 -0.3,-0.3 -0.792,-0.3 -1.093,0 L 0,-1.093 c -0.301,0.3 -0.301,0.792 0,1.093" /></g></g></g></g></svg>