<?xml version="1.0" encoding="utf-8"?>
<!-- Generator: Adobe Illustrator 19.0.0, SVG Export Plug-In . SVG Version: 6.00 Build 0)  -->
<svg version="1.1" id="Calque_1" xmlns="http://www.w3.org/2000/svg" xmlns:xlink="http://www.w3.org/1999/xlink" x="0px" y="0px"
	 viewBox="-219 311 172 172" enable-background="new -219 311 172 172" xml:space="preserve">
<g>
	<path fill="#929497" d="M-133,483c-47.5,0-86-38.5-86-86s38.5-86,86-86s86,38.5,86,86S-85.5,483-133,483z M-120.4,397
		c0-7-5.7-12.6-12.6-12.6c-6.9,0-12.6,5.7-12.6,12.6c0,7,5.6,12.6,12.6,12.6S-120.4,404-120.4,397z"/>
	<path id="XMLID_3_" fill="#58595B" stroke="#3B3A3C" stroke-width="1.977" stroke-miterlimit="10" d="M-133,374.4
		c-12.5,0-22.6,10.1-22.6,22.6s10.1,22.6,22.6,22.6s22.6-10.1,22.6-22.6S-120.5,374.4-133,374.4z M-133,408.9
		c-7,0-12.6-5.6-12.6-12.6s5.6-12.6,12.6-12.6s12.6,5.7,12.6,12.6C-120.4,403.3-126,408.9-133,408.9z"/>
	<path id="XMLID_6_" fill="#BBBDBF" d="M-133,371c-14.4,0-26,11.7-26,26s11.6,26,26,26s26-11.7,26-26S-118.6,371-133,371z
		 M-133,421.1c-13.3,0-24.1-10.8-24.1-24.1s10.8-24.1,24.1-24.1s24.1,10.8,24.1,24.1S-119.7,421.1-133,421.1z"/>
	<path id="XMLID_918_" fill="#FFFFFF" d="M-133,312.4c-46.7,0-84.6,37.9-84.6,84.6s37.9,84.6,84.6,84.6s84.6-37.9,84.6-84.6
		S-86.3,312.4-133,312.4z M-68.8,446.2c-14.8,19.3-38,31.7-64.2,31.7s-49.4-12.4-64.2-31.7c-10.5-13.6-16.7-30.7-16.7-49.2
		c0-44.7,36.2-80.9,80.9-80.9s80.9,36.2,80.9,80.9C-52.1,415.5-58.3,432.6-68.8,446.2L-68.8,446.2z"/>
	<path fill="#FFFFFF" d="M-177.7,423.8h1.7c0.2,0,0.4,0.2,0.4,0.4v6.6c0,0.2-0.2,0.4-0.4,0.4h-1.7c-0.2,0-0.4-0.2-0.4-0.4v-6.6
		C-178.1,423.9-177.9,423.8-177.7,423.8z"/>
	<path fill="#FFFFFF" d="M-180.7,421.1h1.4c0.2,0,0.4,0.2,0.4,0.4v9.3c0,0.2-0.2,0.4-0.4,0.4h-4.7c-0.2,0-0.5-0.3-0.5-0.5v-6.3
		c0-0.2,0.3-0.5,0.5-0.5h3v-2.3C-181.1,421.3-180.9,421.1-180.7,421.1L-180.7,421.1z M-182.3,425h1.1c0.2,0,0.4,0.2,0.4,0.4v4.3
		c0,0.2-0.2,0.4-0.4,0.4h-1.1c-0.2,0-0.4-0.2-0.4-0.4v-4.3C-182.6,425.2-182.5,425-182.3,425z"/>
	<path fill="#FFFFFF" d="M-172.9,426.5h3c0.2,0,0.4,0.3,0.4,0.4v3.9c0,0.2-0.2,0.4-0.4,0.4h-4.4c-0.1,0-0.4-0.2-0.4-0.4v-0.9
		c0-0.2,0.2-0.4,0.4-0.4h3v-1.1h-3c-0.1,0-0.4-0.2-0.4-0.4v-3.9c0-0.2,0.2-0.4,0.4-0.4h4.1c0.2,0,0.4,0.2,0.4,0.4v0.9
		c0,0.1-0.2,0.4-0.4,0.4h-2.8v1.1H-172.9z"/>
	<path fill="#FFFFFF" d="M-163.5,428.1v2.7c0,0.2-0.2,0.4-0.4,0.4h-4.4c-0.1,0-0.4-0.2-0.4-0.4v-6.6c0-0.2,0.2-0.4,0.4-0.4h4.4
		c0.2,0,0.4,0.3,0.4,0.4v2.7h-1.7v-1.6c0,0-0.2-0.4-0.4-0.4h-1.1c-0.2,0-0.4,0.2-0.4,0.4v4.3c0,0.2,0.2,0.4,0.4,0.4h1.1
		c0.2,0,0.4-0.2,0.4-0.4v-1.5H-163.5z"/>
	<polygon fill="#FFFFFF" points="-164.4,422.9 -163.9,422.9 -163.9,421.6 -163.5,421.6 -163.5,421.2 -164.9,421.2 -164.9,421.6 
		-164.4,421.6 	"/>
	<path fill="#FFFFFF" d="M-165.3,422.2h-0.5l0,0c0,0.2-0.1,0.2-0.3,0.2c-0.2,0-0.3-0.1-0.3-0.4v-0.3c0-0.3,0-0.3,0.3-0.3
		c0.2,0,0.3,0,0.3,0.2l0,0h0.5l0,0c0-0.5-0.2-0.6-0.7-0.6h-0.1c-0.5,0-0.7,0.2-0.7,0.7v0.4c0,0.5,0.2,0.7,0.7,0.7h0.1
		C-165.5,423-165.3,422.8-165.3,422.2L-165.3,422.2z"/>
	<polygon fill="#FFFFFF" points="-172.2,421.2 -172.5,422.4 -172.9,421.2 -173.6,421.2 -173.6,422.9 -173.2,422.9 -173.2,421.6 
		-172.8,422.9 -172.3,422.9 -171.9,421.6 -171.9,422.9 -171.5,422.9 -171.5,421.2 	"/>
	<g>
		<path fill="#FFFFFF" d="M-167.8,421.2h-0.4h-0.4l-0.5,1.8h0.5l0.1-0.3h0.3h0.3l0.1,0.3h0.5L-167.8,421.2z M-168.1,422.3h-0.2
			l0.2-0.7l0,0l0,0l0.2,0.7H-168.1z"/>
		<path fill="#FFFFFF" d="M-170,421.2L-170,421.2h-0.9v1.8h0.5v-0.5h0.3h0.1c0.5,0,0.7-0.2,0.7-0.6v-0.1
			C-169.3,421.3-169.5,421.2-170,421.2z M-169.8,421.9c0,0.2,0,0.2-0.2,0.2h-0.1h-0.3v-0.5h0.3l0,0c0.2,0,0.2,0,0.2,0.2
			L-169.8,421.9L-169.8,421.9z"/>
		<path fill="#FFFFFF" d="M-174.9,421.1h-0.1h-0.1c-0.5,0-0.7,0.2-0.7,0.7v0.4c0,0.5,0.2,0.7,0.7,0.7h0.1h0.1c0.5,0,0.7-0.2,0.7-0.7
			v-0.4C-174.2,421.3-174.4,421.1-174.9,421.1z M-174.7,422.2c0,0.3,0,0.4-0.3,0.4l0,0l0,0c-0.3,0-0.3-0.1-0.3-0.4v-0.3
			c0-0.3,0-0.3,0.3-0.3l0,0l0,0c0.3,0,0.3,0.1,0.3,0.3V422.2z"/>
	</g>
	<path fill="#FFFFFF" d="M-176.3,422.2h-0.5l0,0c0,0.2-0.1,0.2-0.3,0.2c-0.2,0-0.3-0.1-0.3-0.4v-0.3c0-0.3,0-0.3,0.3-0.3
		c0.2,0,0.3,0,0.3,0.2l0,0h0.5l0,0c0-0.5-0.2-0.6-0.7-0.6h-0.1c-0.5,0-0.7,0.2-0.7,0.7v0.4c0,0.5,0.2,0.7,0.7,0.7h0.1
		C-176.6,423-176.3,422.8-176.3,422.2L-176.3,422.2z"/>
	<g>
		<g>
			<path fill="#FFFFFF" d="M-85.2,410.8h-0.6v0.5h0.7v0.1H-86V410h0.8v0.1h-0.6v0.4h0.6V410.8z"/>
			<path fill="#FFFFFF" d="M-84.9,411.5v-1.4h0.2l0.5,0.7c0.1,0.2,0.2,0.3,0.3,0.4l0,0c0-0.2,0-0.3,0-0.6V410h0.2v1.4h-0.2l-0.5-0.7
				c-0.1-0.2-0.2-0.3-0.3-0.5l0,0c0,0.2,0,0.3,0,0.6v0.6h-0.2V411.5z"/>
			<path fill="#FFFFFF" d="M-83.1,410.3h-0.5v-0.1h1.1v0.1H-83v1.2h-0.2L-83.1,410.3L-83.1,410.3z"/>
			<path fill="#FFFFFF" d="M-81.4,410.8H-82v0.5h0.7v0.1h-0.9V410h0.8v0.1H-82v0.4h0.6V410.8z"/>
			<path fill="#FFFFFF" d="M-81.1,410.1c0.1,0,0.2,0,0.4,0s0.3,0,0.4,0.1c0.1,0.1,0.1,0.2,0.1,0.3c0,0.2-0.1,0.3-0.3,0.3l0,0
				c0.1,0,0.2,0.1,0.2,0.3c0,0.2,0.1,0.3,0.1,0.4h-0.2c0,0-0.1-0.2-0.1-0.3c0-0.2-0.1-0.3-0.3-0.3H-81v0.6h-0.2v-1.4H-81.1z
				 M-80.9,410.8h0.2c0.2,0,0.3-0.1,0.3-0.3s-0.1-0.3-0.4-0.3c-0.1,0-0.2,0-0.2,0L-80.9,410.8L-80.9,410.8z"/>
			<path fill="#FFFFFF" d="M-79.6,410.3h-0.5v-0.1h1.1v0.1h-0.5v1.2h-0.2L-79.6,410.3L-79.6,410.3z"/>
			<path fill="#FFFFFF" d="M-78.7,411.1l-0.2,0.4H-79l0.5-1.4h0.2l0.5,1.4H-78l-0.2-0.4H-78.7z M-78.2,410.9l-0.1-0.4
				c0-0.1-0.1-0.2-0.1-0.2l0,0c0,0.1,0,0.2-0.1,0.2l-0.1,0.4H-78.2z"/>
			<path fill="#FFFFFF" d="M-77.3,410.1v1.4h-0.2v-1.4H-77.3z"/>
			<path fill="#FFFFFF" d="M-77,411.5v-1.4h0.2l0.5,0.7c0.1,0.2,0.2,0.3,0.3,0.4l0,0c0-0.2,0-0.3,0-0.6V410h0.2v1.4H-76l-0.5-0.7
				c-0.1-0.2-0.2-0.3-0.3-0.5l0,0c0,0.2,0,0.3,0,0.6v0.6H-77V411.5z"/>
			<path fill="#FFFFFF" d="M-74.2,410.9c0-0.2,0-0.4,0-0.6l0,0c-0.1,0.2-0.1,0.3-0.2,0.5l-0.3,0.7h-0.2l-0.2-0.6
				c-0.1-0.2-0.1-0.4-0.2-0.5l0,0c0,0.2,0,0.4,0,0.6v0.6h-0.2l0.1-1.4h0.3l0.3,0.7c0.1,0.2,0.1,0.3,0.2,0.5l0,0
				c0-0.1,0.1-0.3,0.2-0.5l0.3-0.7h0.3l0.1,1.4h-0.2L-74.2,410.9z"/>
			<path fill="#FFFFFF" d="M-72.9,410.8h-0.6v0.5h0.7v0.1h-0.9V410h0.8v0.1h-0.6v0.4h0.6V410.8z"/>
			<path fill="#FFFFFF" d="M-72.6,411.5v-1.4h0.2l0.5,0.7c0.1,0.2,0.2,0.3,0.3,0.4l0,0c0-0.2,0-0.3,0-0.6V410h0.2v1.4h-0.2l-0.5-0.7
				c-0.1-0.2-0.2-0.3-0.3-0.5l0,0c0,0.2,0,0.3,0,0.6v0.6h-0.2V411.5z"/>
			<path fill="#FFFFFF" d="M-70.8,410.3h-0.5v-0.1h1.1v0.1h-0.5v1.2h-0.2L-70.8,410.3L-70.8,410.3z"/>
		</g>
		<g>
			<path fill="#FFFFFF" d="M-69,410.9h-0.2v-0.1h0.5v0.1H-69l0.1,0.6H-69V410.9z"/>
			<path fill="#FFFFFF" d="M-68.1,411.2c0-0.1,0-0.2,0-0.3l0,0C-68.2,411-68.2,411.1-68.1,411.2l-0.2,0.3h-0.1l-0.1-0.3
				c0-0.1-0.1-0.2-0.1-0.2l0,0c0,0.1,0,0.2,0,0.3v0.3h-0.1V411h0.1l0.1,0.3c0,0.1,0,0.1,0.1,0.2l0,0c0-0.1,0-0.1,0.1-0.2l0.1-0.3
				h0.1v0.6h-0.1L-68.1,411.2z"/>
		</g>
		<g>
			<path fill="#FFFFFF" d="M-84.4,409.7c-0.1,0-0.3,0.1-0.6,0.1c-0.6,0-1.1-0.3-1.1-0.9s0.5-1,1.2-1c0.3,0,0.5,0,0.5,0.1l-0.1,0.2
				c-0.1,0-0.3-0.1-0.5-0.1c-0.5,0-0.9,0.3-0.9,0.8c0,0.4,0.3,0.7,0.9,0.7c0.2,0,0.4,0,0.5-0.1L-84.4,409.7z"/>
			<path fill="#FFFFFF" d="M-82.2,408.9c0,0.6-0.5,1-1.1,1s-1-0.4-1-0.9c0-0.6,0.4-1,1.1-1C-82.6,407.9-82.2,408.3-82.2,408.9z
				 M-84,408.9c0,0.4,0.3,0.7,0.7,0.7c0.5,0,0.7-0.3,0.7-0.8c0-0.4-0.2-0.7-0.7-0.7C-83.7,408.1-84,408.5-84,408.9z"/>
			<path fill="#FFFFFF" d="M-79.9,409c0-0.3,0-0.6,0-0.8l0,0c-0.1,0.2-0.2,0.4-0.3,0.7l-0.4,0.9h-0.2l-0.4-0.9
				c-0.1-0.3-0.2-0.5-0.3-0.7l0,0c0,0.2,0,0.5,0,0.8l-0.1,0.8h-0.3l0.2-1.8h0.4l0.4,0.9c0.1,0.2,0.2,0.4,0.2,0.6l0,0
				c0.1-0.2,0.1-0.4,0.2-0.6l0.4-0.9h0.4l0.1,1.8h-0.3L-79.9,409z"/>
			<path fill="#FFFFFF" d="M-79.1,408c0.1,0,0.3,0,0.6,0s0.5,0.1,0.6,0.2c0.1,0.1,0.2,0.2,0.2,0.4c0,0.2-0.1,0.3-0.2,0.4
				c-0.2,0.1-0.4,0.2-0.7,0.2c-0.1,0-0.2,0-0.2,0v0.7h-0.3L-79.1,408L-79.1,408z M-78.8,408.9c0.1,0,0.1,0,0.2,0
				c0.4,0,0.6-0.1,0.6-0.4c0-0.2-0.2-0.4-0.5-0.4c-0.1,0-0.2,0-0.3,0V408.9z"/>
			<path fill="#FFFFFF" d="M-77,408v1c0,0.4,0.2,0.6,0.5,0.6s0.6-0.2,0.6-0.6v-1h0.3v1c0,0.6-0.4,0.8-0.9,0.8s-0.8-0.2-0.8-0.8v-1
				H-77z"/>
			<path fill="#FFFFFF" d="M-74.7,408.2h-0.7V408h1.7v0.2h-0.7v1.6h-0.3V408.2z"/>
			<path fill="#FFFFFF" d="M-72.3,408.9h-0.9v0.7h1v0.2h-1.3V408h1.2v0.2h-0.9v0.6h0.9V408.9z"/>
			<path fill="#FFFFFF" d="M-71.8,408c0.1,0,0.4,0,0.6,0c0.3,0,0.5,0,0.7,0.1c0.1,0.1,0.2,0.2,0.2,0.3c0,0.2-0.2,0.4-0.4,0.5l0,0
				c0.2,0,0.3,0.2,0.3,0.4c0.1,0.3,0.1,0.4,0.2,0.5h-0.3c0-0.1-0.1-0.2-0.2-0.4c-0.1-0.3-0.2-0.3-0.5-0.4h-0.3v0.8h-0.3V408z
				 M-71.5,408.8h0.3c0.3,0,0.5-0.1,0.5-0.3s-0.2-0.3-0.5-0.3c-0.1,0-0.2,0-0.3,0V408.8z"/>
		</g>
		<path fill="#FFFFFF" d="M-86.2,384.1h0.3c0.2,0.4,0.7,0.8,1.5,0.8c0.4,0,0.8-0.1,0.8-0.4c0-0.2-0.2-0.3-0.6-0.4l-0.6-0.1
			c-1-0.1-1.4-0.5-1.4-0.8c0-0.5,0.7-0.8,1.4-0.8c0.3,0,0.7,0.1,0.9,0.2l0.3-0.2h0.2l0.1,0.9h-0.3c-0.2-0.4-0.7-0.7-1.3-0.7
			c-0.3,0-0.7,0.1-0.7,0.4c0,0.1,0.1,0.3,0.6,0.3l0.7,0.1c0.9,0.1,1.3,0.4,1.3,0.8c0,0.4-0.5,0.8-1.4,0.8c-0.4,0-0.8-0.1-1.1-0.2
			l-0.3,0.2H-86L-86.2,384.1z"/>
		<path fill="#FFFFFF" d="M-80.6,382.5c1.1,0,2,0.6,2,1.3c0,0.7-0.9,1.3-2,1.3s-2-0.6-2-1.3C-82.6,383.1-81.7,382.5-80.6,382.5z
			 M-80.6,385c0.6,0,1-0.4,1-1.1c0-0.8-0.3-1.1-1-1.1s-1,0.4-1,1.1C-81.5,384.6-81.2,385-80.6,385z"/>
		<path fill="#FFFFFF" d="M-78.3,382.6h1.4l2.1,1.6v-1c0-0.3-0.1-0.4-0.6-0.4v-0.2h1.6v0.2c-0.5,0-0.6,0.1-0.6,0.4v1.9h-0.4l-2.5-2
			l0,0v1.3c0,0.3,0.1,0.4,0.6,0.4v0.2h-1.6v-0.2c0.5,0,0.6-0.1,0.6-0.4V383c-0.1-0.1-0.3-0.2-0.6-0.2V382.6z"/>
		<path fill="#FFFFFF" d="M-73.9,382.6h1.9v0.2h-0.1c-0.2,0-0.3,0-0.3,0.1c0,0,0,0.1,0.1,0.1l0.7,0.7l0.5-0.6
			c0.1-0.1,0.1-0.1,0.1-0.2s-0.2-0.2-0.5-0.2v-0.2h1.6v0.2c-0.4,0-0.6,0.1-0.8,0.4l-0.7,0.8v0.7c0,0.1,0,0.2,0.3,0.2h0.3v0.2H-73
			v-0.2h0.3c0.3,0,0.3,0,0.3-0.2V384l-1-1.1c-0.2-0.2-0.2-0.2-0.5-0.2L-73.9,382.6L-73.9,382.6z"/>
		
			<linearGradient id="SVGID_1_" gradientUnits="userSpaceOnUse" x1="16134.5166" y1="-16062.7383" x2="16217.8105" y2="-16062.7383" gradientTransform="matrix(0.25 0 0 -0.25 -4122.0293 -3619.1846)">
			<stop  offset="0" style="stop-color:#EF4E26"/>
			<stop  offset="0.5" style="stop-color:#E5E543"/>
			<stop  offset="1" style="stop-color:#EF4E26"/>
		</linearGradient>
		<polygon fill="url(#SVGID_1_)" points="-78,386.1 -67.6,396.6 -78,406.9 -88.4,396.5 		"/>
		
			<linearGradient id="SVGID_2_" gradientUnits="userSpaceOnUse" x1="32623.166" y1="-32944.9258" x2="32706.4609" y2="-32944.9258" gradientTransform="matrix(0.125 0 0 -0.125 -4159.4517 -3725.0156)">
			<stop  offset="0" style="stop-color:#EF4E26"/>
			<stop  offset="0.4" style="stop-color:#E5E543"/>
			<stop  offset="1" style="stop-color:#FBAE1F"/>
		</linearGradient>
		<polyline fill="url(#SVGID_2_)" points="-76.3,398.3 -81.6,393 -76.4,387.9 		"/>
		
			<linearGradient id="SVGID_3_" gradientUnits="userSpaceOnUse" x1="32695.0508" y1="-32781.7266" x2="32778.3516" y2="-32781.7266" gradientTransform="matrix(0.125 0 0 -0.125 -4171.6172 -3697.5156)">
			<stop  offset="0" style="stop-color:#FBAE1F"/>
			<stop  offset="0.6" style="stop-color:#E5E543"/>
			<stop  offset="1" style="stop-color:#EF4E26"/>
		</linearGradient>
		<polyline fill="url(#SVGID_3_)" points="-79.5,395 -74.3,400.3 -79.5,405.4 		"/>
	</g>
	<g>
		<g>
			<rect x="-199.7" y="385.2" fill="#58595B" width="25.7" height="23.6"/>
			<g>
				<polygon fill="#00A99D" points="-187.9,397.1 -190.9,396.2 -194.9,397.6 -195.6,397.9 -192.7,398.8 				"/>
				<polygon fill="#00A99D" points="-183,398.6 -187.3,400.1 -188,400.3 -190.9,399.4 -186.1,397.7 				"/>
				<polygon fill="#00A99D" points="-181.2,399.1 -186.2,400.9 -183.3,401.9 -178.7,400.2 -178.2,400 				"/>
				<polygon fill="#F2C102" points="-183.3,401.9 -186.2,400.9 -189,402 -186.1,402.9 				"/>
				<path fill="#F2C102" d="M-190.9,399.4l2.9,0.9c-2.5,0.8-4.8,0.9-7.2,0.3c-1.2-0.3-1.9-0.8-2-1.4c0-0.4,0.5-0.9,1.6-1.3l2.9,0.9
					l-0.7,0.3c-0.2,0.1-0.4,0.2-0.5,0.3c-0.1,0.1-0.1,0.3,0.1,0.4l1.1,0.1l1.1-0.2L-190.9,399.4L-190.9,399.4z"/>
				<polygon fill="#326CB2" points="-189.4,395.7 -186.5,396.6 -187.9,397.1 -190.9,396.2 				"/>
				<path fill="#326CB2" d="M-186.1,397.7c1.4-0.5,2.8-0.8,4.1-0.8c1.1-0.1,2.4,0.1,3.6,0.5c1.1,0.4,1.7,0.8,1.7,1.3
					c0.1,0.5-0.4,1-1.5,1.4l-3-0.8l1-0.4c0.4-0.1,0.6-0.3,0.5-0.4c-0.1-0.1-0.2-0.2-0.5-0.3l-1-0.1l-0.8,0.2l-1,0.3L-186.1,397.7
					L-186.1,397.7z"/>
				<path fill="#DC0029" d="M-189.5,387v14.8l3.4,1v-12.3c0-0.3,0-0.5,0.2-0.7c0.1-0.2,0.3-0.2,0.5-0.1c0.5,0.1,0.7,0.5,0.7,1.2v5
					c1,0.5,2,0.5,2.7,0c0.7-0.5,1.1-1.4,1.1-2.7c0-1.4-0.3-2.4-0.9-3.1c-0.5-0.7-1.5-1.3-2.9-1.8
					C-186.7,387.7-188.3,387.2-189.5,387L-189.5,387z"/>
			</g>
			<g>
				<path fill="#FFFFFF" d="M-194.7,403.9h-0.7h-0.1h-0.3v2.6h0.4v-2.3c0.1,0,0.3,0,0.5,0c0.3,0,0.3,0.4,0.3,0.4v0.3
					c0,0.4-0.2,0.4-0.2,0.4h-0.4v0.3c0,0,0.2,0,0.4,0c0.6,0,0.6-0.6,0.6-0.6s0-0.2,0-0.4C-194.1,403.9-194.7,403.9-194.7,403.9z"/>
				<rect x="-193.8" y="403.9" fill="#FFFFFF" width="0.4" height="2.6"/>
				<path fill="#FFFFFF" d="M-192.7,404.5h0.7c0,0,0.6-0.1,0.6,0.6c0,0.6,0,1.5,0,1.5h-1c0,0-0.6,0-0.6-0.6v-0.1c0,0,0-0.5,0.5-0.5
					h0.4v0.2h-0.2c0,0-0.2,0-0.2,0.3c0,0.3,0.1,0.4,0.4,0.4c0.2,0,0.4,0,0.4,0v-1.2c0,0,0-0.3-0.4-0.3c-0.4,0-0.6,0-0.6,0
					S-192.7,404.5-192.7,404.5z"/>
				<path fill="#FFFFFF" d="M-185.7,404.5h0.8c0,0,0.6-0.1,0.6,0.6c0,0.6,0,1.5,0,1.5h-1c0,0-0.6,0-0.6-0.6v-0.1c0,0,0-0.5,0.5-0.5
					h0.4v0.2h-0.2c0,0-0.2,0-0.2,0.3c0,0.3,0.1,0.4,0.4,0.4c0.2,0,0.4,0,0.4,0v-1.2c0,0,0-0.3-0.4-0.3s-0.6,0-0.6,0L-185.7,404.5
					L-185.7,404.5z"/>
				<polygon fill="#FFFFFF" points="-191.2,404.5 -190.7,404.5 -190.1,405.9 -189.6,404.5 -189.2,404.5 -190.5,407.5 -190.8,407.5 
					-190.4,406.5 				"/>
				<path fill="#FFFFFF" d="M-188.9,406.3h0.7c0,0,0.3,0,0.3-0.4v-0.2c0,0,0-0.3-0.3-0.3c-0.2,0-0.3,0-0.3,0s-0.6,0-0.5-0.6v-0.2
					c0,0,0-0.6,0.6-0.6c0.6,0,0.7,0,0.7,0v0.3h-0.6c0,0-0.3,0-0.3,0.3v0.2c0,0,0,0.3,0.3,0.3c0.3,0,0.3,0,0.3,0s0.4,0,0.4,0.6v0.3
					c0,0,0,0.6-0.6,0.6c-0.5,0-0.9,0-0.9,0v-0.3H-188.9z"/>
				<path fill="#FFFFFF" d="M-186.3,406.6h-0.5c0,0-0.3,0-0.3-0.5s0-1.9,0-1.9h0.4v0.3h0.4v0.3h-0.4l0,0v1.2c0,0,0,0.3,0.3,0.3h0.1
					V406.6z"/>
				<path fill="#FFFFFF" d="M-183.1,406.6h-0.5c0,0-0.3,0-0.3-0.5s0-1.9,0-1.9h0.4v0.3h0.5v0.3h-0.4l0,0v1.2c0,0,0,0.3,0.3,0.3h0.1
					v0.3H-183.1z"/>
				<rect x="-182.6" y="403.9" fill="#FFFFFF" width="0.4" height="0.4"/>
				<rect x="-182.6" y="404.5" fill="#FFFFFF" width="0.4" height="2"/>
				<path fill="#FFFFFF" d="M-180.8,404.5h-0.2c-0.4,0-0.8,0.4-0.8,0.8v0.5c0,0.4,0.4,0.8,0.8,0.8h0.2c0.4,0,0.8-0.4,0.8-0.8v-0.5
					C-180,404.9-180.3,404.5-180.8,404.5z M-180.4,405.9c0,0.2-0.2,0.4-0.4,0.4s-0.4-0.2-0.4-0.4v-0.7c0-0.2,0.2-0.4,0.4-0.4
					s0.4,0.2,0.4,0.4V405.9z"/>
				<path fill="#FFFFFF" d="M-179.5,404.5h1c0,0,0.6,0,0.6,0.6c0,0.7,0,1.4,0,1.4h-0.4v-1.4c0,0,0-0.4-0.4-0.4c-0.4,0-0.4,0-0.4,0
					v1.7h-0.4C-179.5,406.4-179.5,404.5-179.5,404.5z"/>
				<path fill="#FFFFFF" d="M-177.2,406.5V406h-0.2v-0.1h0.5v0.1h-0.2v0.6h-0.1V406.5z M-176.8,406.5v-0.7h0.2l0.2,0.5l0.2-0.5h0.2
					v0.7h-0.1V406l-0.2,0.6h-0.1l-0.3-0.6v0.6h-0.1V406.5z"/>
			</g>
		</g>
	</g>
	<path fill="#929497" d="M-181.1,429.7h-1.7c-0.1,0-0.1-0.1-0.1-0.1v-4.2c0-0.1,0.1-0.1,0.1-0.1h1.7c0.1,0,0.1,0.1,0.1,0.1v4.2
		C-181,429.7-181.1,429.7-181.1,429.7z"/>
</g>
</svg>
