<svg xmlns="http://www.w3.org/2000/svg" viewBox="0 0 186.123 142.25"><linearGradient id="a" gradientUnits="userSpaceOnUse" y1="71.125" x2="186" y2="71.125"><stop offset="0" stop-color="#aba9a3"/><stop offset=".001" stop-color="#aeaba6"/><stop offset=".009" stop-color="#b9b7b1"/><stop offset=".02" stop-color="#c0bdb8"/><stop offset=".05" stop-color="#c2bfba"/><stop offset=".064" stop-color="#c5c3bd"/><stop offset=".133" stop-color="#cfcec9"/><stop offset=".23" stop-color="#d5d5cf"/><stop offset=".5" stop-color="#d7d7d1"/><stop offset=".77" stop-color="#d5d5cf"/><stop offset=".867" stop-color="#cfcec9"/><stop offset=".936" stop-color="#c5c3bd"/><stop offset=".95" stop-color="#c2bfba"/><stop offset=".98" stop-color="#c0bdb8"/><stop offset=".991" stop-color="#b9b7b1"/><stop offset=".999" stop-color="#aeaba6"/><stop offset="1" stop-color="#aba9a3"/></linearGradient><path d="M0 118.706c0 .872.651 1.603 1.518 1.694.813.086 1.751.193 2.787.328 1.666.216 7.967 1.071 15.856 3.184 8.496 2.276 15.85 5.211 21.38 7.722C55.649 138.278 73.537 142.25 93 142.25s37.351-3.972 51.46-10.616c5.53-2.511 12.884-5.446 21.38-7.722 7.889-2.113 14.19-2.968 15.856-3.184a115.73 115.73 0 0 1 2.787-.328 1.697 1.697 0 0 0 1.518-1.694L186 2.5c0-2-13.996-2.5-93-2.5S0 .5 0 2.5v116.206z" fill="url(#a)"/><linearGradient id="b" gradientUnits="userSpaceOnUse" x1="127.914" y1="62.25" x2="158.252" y2="62.25"><stop offset="0" stop-color="#cfcec8"/><stop offset=".5" stop-color="#dfded8"/><stop offset="1" stop-color="#bbb8b2"/></linearGradient><path d="M143.083 111.25c8.343 0 15.169-6.826 15.169-15.169V28.419c0-8.343-6.826-15.169-15.169-15.169s-15.169 6.826-15.169 15.169v67.662c0 8.343 6.826 15.169 15.169 15.169z" fill="url(#b)"/><linearGradient id="c" gradientUnits="userSpaceOnUse" y1="62.172" x2="11.959" y2="62.172"><stop offset="0" stop-color="#b0ada6"/><stop offset=".5" stop-color="#d8d7d2"/><stop offset="1" stop-color="#dad9d3"/></linearGradient><path fill="url(#c)" d="M0 28.206h11.959v67.931H0z"/><linearGradient id="d" gradientUnits="userSpaceOnUse" x1="12.886" y1="62.172" x2="27.748" y2="62.172"><stop offset="0" stop-color="#b2b0a7"/><stop offset="1" stop-color="#d7d7d1"/></linearGradient><path fill="url(#d)" d="M27.748 31.582h-5.549l-3.386-3.376h-5.927v67.931h6.05l3.385-3.376h5.427z"/><linearGradient id="e" gradientUnits="userSpaceOnUse" x1="174.102" y1="62.172" x2="186.061" y2="62.172"><stop offset="0" stop-color="#dad9d3"/><stop offset=".5" stop-color="#d8d7d2"/><stop offset="1" stop-color="#b0ada6"/></linearGradient><path fill="url(#e)" d="M174.103 96.137h11.958V28.206h-11.958z"/><g fill="#e1ddda"><path d="M11.959 28.206h.927v67.931h-.927zM173.175 28.206h.927v67.931h-.927z"/></g><linearGradient id="f" gradientUnits="userSpaceOnUse" x1="158.252" y1="62.172" x2="173.175" y2="62.172"><stop offset="0" stop-color="#d7d7d1"/><stop offset="1" stop-color="#b2b0a7"/></linearGradient><path fill="url(#f)" d="M158.252 31.582h5.611l3.385-3.376h5.927v67.931h-6.049l-3.386-3.376h-5.488z"/><linearGradient id="g" gradientUnits="userSpaceOnUse" x1="27.748" y1="62.25" x2="58.086" y2="62.25"><stop offset="0" stop-color="#bbb8b2"/><stop offset=".5" stop-color="#dfded8"/><stop offset="1" stop-color="#cfcec8"/></linearGradient><path d="M42.917 111.25c-8.343 0-15.169-6.826-15.169-15.169V28.419c0-8.343 6.826-15.169 15.169-15.169s15.169 6.826 15.169 15.169v67.662c0 8.343-6.826 15.169-15.169 15.169z" fill="url(#g)"/><path fill="#c5c3bb" d="M29.724 33.557h13.021v3.011H29.724z"/><path fill="#a3a09b" d="M30.433 34.266v1.593l-.709.709v-3.011z"/><path fill="#b2afab" d="M42.745 34.266v-.709H29.724l.709.709z"/><path fill="#a09e98" d="M42.745 36.568v-.709H30.433l-.709.709z"/><path fill="#c5c3bb" d="M29.724 40.265h13.021v3.011H29.724z"/><path fill="#a3a09b" d="M30.433 40.973v1.594l-.709.709v-3.011z"/><path fill="#b2afab" d="M42.745 40.973v-.708H29.724l.709.708z"/><path fill="#a09e98" d="M42.745 43.276v-.709H30.433l-.709.709z"/><path fill="#c5c3bb" d="M29.724 49.223h13.021v3.011H29.724z"/><path fill="#a3a09b" d="M30.433 49.931v1.594l-.709.709v-3.011z"/><path fill="#b2afab" d="M42.745 49.931v-.708H29.724l.709.708z"/><path fill="#a09e98" d="M42.745 52.234v-.709H30.433l-.709.709z"/><path fill="#c5c3bb" d="M29.724 55.764h13.021v3.011H29.724z"/><path fill="#a3a09b" d="M30.433 56.473v1.594l-.709.708v-3.011z"/><path fill="#b2afab" d="M42.745 56.473v-.709H29.724l.709.709z"/><path fill="#a09e98" d="M42.745 58.775v-.708H30.433l-.709.708z"/><path fill="#c5c3bb" d="M29.724 62.306h13.021v3.011H29.724z"/><path fill="#a3a09b" d="M30.433 63.015v1.593l-.709.709v-3.011z"/><path fill="#b2afab" d="M42.745 63.015v-.709H29.724l.709.709z"/><path fill="#a09e98" d="M42.745 65.317v-.709H30.433l-.709.709z"/><path fill="#c5c3bb" d="M142.912 36.568H129.89v-3.011h13.02z"/><path fill="#a3a09b" d="M142.203 34.266v1.593l.708.709v-3.011z"/><path fill="#b2afab" d="M129.89 34.266v-.709h13.021l-.708.709z"/><path fill="#a09e98" d="M129.89 36.568v-.709h12.313l.708.709z"/><path fill="#c5c3bb" d="M142.912 43.276H129.89v-3.011h13.02z"/><path fill="#a3a09b" d="M142.203 40.973v1.594l.708.709v-3.011z"/><path fill="#b2afab" d="M129.89 40.973v-.708h13.021l-.708.708z"/><path fill="#a09e98" d="M129.89 43.276v-.709h12.313l.708.709z"/><g><path fill="#c5c3bb" d="M142.912 52.233H129.89v-3.01h13.02z"/><path fill="#a3a09b" d="M142.203 49.931v1.594l.708.709v-3.011z"/><path fill="#b2afab" d="M129.89 49.931v-.708h13.021l-.708.708z"/><path fill="#a09e98" d="M129.89 52.234v-.709h12.313l.708.709z"/></g><g><path fill="#c5c3bb" d="M142.912 58.776H129.89v-3.011h13.02z"/><path fill="#a3a09b" d="M142.203 56.473v1.594l.708.708v-3.011z"/><path fill="#b2afab" d="M129.89 56.473v-.709h13.021l-.708.709z"/><path fill="#a09e98" d="M129.89 58.775v-.708h12.313l.708.708z"/></g><g><path fill="#c5c3bb" d="M142.912 65.317H129.89v-3.011h13.02z"/><path fill="#a3a09b" d="M142.203 63.015v1.593l.708.709v-3.011z"/><path fill="#b2afab" d="M129.89 63.015v-.709h13.021l-.708.709z"/><path fill="#a09e98" d="M129.89 65.317v-.709h12.313l.708.709z"/></g><g><path fill="#c5c3bb" d="M29.724 73.156h13.021v3.011H29.724z"/><path fill="#a3a09b" d="M30.433 73.865v1.593l-.709.709v-3.011z"/><path fill="#b2afab" d="M42.745 73.865v-.709H29.724l.709.709z"/><path fill="#a09e98" d="M42.745 76.167v-.709H30.433l-.709.709z"/></g><g><path fill="#c5c3bb" d="M29.724 79.698h13.021v3.011H29.724z"/><path fill="#a3a09b" d="M30.433 80.406V82l-.709.708v-3.01z"/><path fill="#b2afab" d="M42.745 80.406v-.708H29.724l.709.708z"/><path fill="#a09e98" d="M42.745 82.708V82H30.433l-.709.708z"/></g><g><path fill="#c5c3bb" d="M29.724 86.239h13.021v3.011H29.724z"/><path fill="#a3a09b" d="M30.433 86.948v1.594l-.709.708v-3.011z"/><path fill="#b2afab" d="M42.745 86.948v-.709H29.724l.709.709z"/><path fill="#a09e98" d="M42.745 89.25v-.708H30.433l-.709.708z"/></g><radialGradient id="h" cx="42.917" cy="102.006" r="12.561" gradientTransform="matrix(0 -1 8 0 -773.129 144.923)" gradientUnits="userSpaceOnUse"><stop offset="0" stop-color="#cfcec8"/><stop offset=".61" stop-color="#cdccc6"/><stop offset=".829" stop-color="#c7c5bf"/><stop offset=".985" stop-color="#bcbab4"/><stop offset="1" stop-color="#bbb8b2"/></radialGradient><path d="M58.086 92.761H27.748v3.32c0 8.343 6.826 15.169 15.169 15.169s15.169-6.826 15.169-15.169v-3.32z" fill="url(#h)"/><radialGradient id="i" cx="42.917" cy="22.416" r="12.532" gradientTransform="matrix(0 -1 8 0 -136.412 65.333)" gradientUnits="userSpaceOnUse"><stop offset="0" stop-color="#cfcec8"/><stop offset=".61" stop-color="#cdccc6"/><stop offset=".829" stop-color="#c7c5bf"/><stop offset=".985" stop-color="#bcbab4"/><stop offset="1" stop-color="#bbb8b2"/></radialGradient><path d="M58.086 31.582H27.748v-3.163c0-8.343 6.826-15.169 15.169-15.169s15.169 6.826 15.169 15.169v3.163z" fill="url(#i)"/><radialGradient id="j" cx="143.083" cy="102.006" r="12.561" gradientTransform="matrix(0 -1 8 0 -672.963 245.089)" gradientUnits="userSpaceOnUse"><stop offset="0" stop-color="#cfcec8"/><stop offset=".61" stop-color="#cdccc6"/><stop offset=".829" stop-color="#c7c5bf"/><stop offset=".985" stop-color="#bcbab4"/><stop offset="1" stop-color="#bbb8b2"/></radialGradient><path d="M158.252 92.761h-30.338v3.32c0 8.343 6.826 15.169 15.169 15.169s15.169-6.826 15.169-15.169v-3.32z" fill="url(#j)"/><radialGradient id="k" cx="143.083" cy="22.416" r="12.532" gradientTransform="matrix(0 -1 8 0 -36.246 165.5)" gradientUnits="userSpaceOnUse"><stop offset="0" stop-color="#cfcec8"/><stop offset=".61" stop-color="#cdccc6"/><stop offset=".829" stop-color="#c7c5bf"/><stop offset=".985" stop-color="#bcbab4"/><stop offset="1" stop-color="#bbb8b2"/></radialGradient><path d="M158.252 31.582h-30.338v-3.163c0-8.343 6.826-15.169 15.169-15.169s15.169 6.826 15.169 15.169v3.163z" fill="url(#k)"/><g fill="#afaeaa"><path d="M58.086 44.709h69.828v.874H58.086zM0 41.333h18.813v.874H0zM27.748 44.709h30.338v.874H27.748z"/><path d="M22.199 44.709h5.55v.874h-5.55zM18.813 42.207l3.386 3.376v-.874l-3.386-3.376zM186 42.208h-18.813v-.874H186zM158.252 45.584h-30.338v-.874h30.338z"/><path d="M163.801 45.584h-5.55v-.874h5.55zM167.187 42.207l-3.386 3.376v-.874l3.386-3.376z"/><g><path d="M58.086 30.708h69.828v.874H58.086zM0 27.332h18.813v.874H0zM27.748 30.708h30.338v.874H27.748z"/><path d="M22.199 30.708h5.55v.874h-5.55zM18.813 28.206l3.386 3.376v-.874l-3.386-3.376zM186 28.207h-18.813v-.874H186zM158.252 31.583h-30.338v-.874h30.338z"/><path d="M163.801 31.583h-5.55v-.874h5.55zM167.187 28.206l-3.385 3.376v-.874l3.385-3.376z"/></g><g><path d="M58.086 92.761h69.828v.874H58.086zM.123 96.137h18.813v.874H.123zM27.748 92.761h30.338v.874H27.748zM22.321 92.761h5.427v.874h-5.427zM18.936 96.137l3.385-3.376v.874l-3.385 3.376zM186.123 97.012H167.31v-.874h18.813zM158.252 93.636h-30.338v-.874h30.338zM163.924 93.636h-5.672v-.874h5.672zM167.31 96.137l-3.386-3.376v.874l3.386 3.376z"/></g><g><path d="M58.086 68.735h69.828v.874H58.086zM27.748 68.735h30.338v.874H27.748zM0 68.735h27.748v.874H0zM158.252 69.61h-30.338v-.874h30.338zM186 69.61h-27.748v-.874H186z"/></g></g><g><g fill="#d7d7d7" stroke="#c2c0bb" stroke-width=".25" stroke-miterlimit="10"><path d="M53.52.079V1.43c0 .06-.013.12-.039.174l-4.336 9.348a.156.156 0 0 1-.142.09h-2.679a.154.154 0 0 1-.142-.218l4.277-9.22a.42.42 0 0 0 .039-.174V.079M59.685.079V1.43c0 .06-.013.12-.039.174l-4.336 9.348a.156.156 0 0 1-.142.09H52.49a.154.154 0 0 1-.142-.218l4.277-9.22a.42.42 0 0 0 .039-.174V.079M65.85.079V1.43c0 .06-.013.12-.039.174l-4.336 9.348a.156.156 0 0 1-.142.09h-2.679a.154.154 0 0 1-.142-.218l4.277-9.22a.42.42 0 0 0 .039-.174V.079M72.015.079V1.43c0 .06-.013.12-.039.174l-4.336 9.348a.156.156 0 0 1-.142.09H64.82a.154.154 0 0 1-.142-.218l4.277-9.22a.42.42 0 0 0 .039-.174V.079M78.18.079V1.43c0 .06-.013.12-.039.174l-4.336 9.348a.156.156 0 0 1-.142.09h-2.679a.154.154 0 0 1-.142-.218l4.277-9.22a.42.42 0 0 0 .039-.174V.079M84.346.079V1.43c0 .06-.013.12-.039.174l-4.336 9.348a.156.156 0 0 1-.142.09H77.15a.154.154 0 0 1-.142-.218l4.277-9.22a.42.42 0 0 0 .039-.174V.079M90.511.079V1.43c0 .06-.013.12-.039.174l-4.336 9.348a.156.156 0 0 1-.142.09h-2.679a.154.154 0 0 1-.142-.218l4.277-9.22a.42.42 0 0 0 .039-.174V.079M96.676.079V1.43c0 .06-.013.12-.039.174l-4.336 9.348a.156.156 0 0 1-.142.09H89.48a.154.154 0 0 1-.142-.218l4.277-9.22a.42.42 0 0 0 .039-.174V.079M102.841.079V1.43c0 .06-.013.12-.039.174l-4.336 9.348a.156.156 0 0 1-.142.09h-2.679a.154.154 0 0 1-.142-.218l4.277-9.22a.42.42 0 0 0 .039-.174V.079M109.006.079V1.43c0 .06-.013.12-.039.174l-4.336 9.348a.156.156 0 0 1-.142.09h-2.679a.154.154 0 0 1-.142-.218l4.277-9.22a.42.42 0 0 0 .039-.174V.079M115.171.079V1.43c0 .06-.013.12-.039.174l-4.336 9.348a.156.156 0 0 1-.142.09h-2.679a.154.154 0 0 1-.142-.218l4.277-9.22a.42.42 0 0 0 .039-.174V.079M121.336.079V1.43c0 .06-.013.12-.039.174l-4.336 9.348a.156.156 0 0 1-.142.09h-2.679a.154.154 0 0 1-.142-.218l4.277-9.22a.42.42 0 0 0 .039-.174V.079M127.501.079V1.43c0 .06-.013.12-.039.174l-4.336 9.348a.156.156 0 0 1-.142.09h-2.679a.154.154 0 0 1-.142-.218l4.277-9.22a.42.42 0 0 0 .039-.174V.079M133.666.079V1.43c0 .06-.013.12-.039.174l-4.336 9.348a.156.156 0 0 1-.142.09h-2.679a.154.154 0 0 1-.142-.218l4.277-9.22a.42.42 0 0 0 .039-.174V.079M139.831.079V1.43c0 .06-.013.12-.038.174l-4.336 9.348a.156.156 0 0 1-.142.09h-2.679a.154.154 0 0 1-.142-.218l4.277-9.22a.42.42 0 0 0 .039-.174V.079M145.996.079V1.43c0 .06-.013.12-.039.174l-4.336 9.348a.156.156 0 0 1-.142.09H138.8a.154.154 0 0 1-.142-.218l4.277-9.22a.42.42 0 0 0 .039-.174V.079M47.355.079V1.43c0 .06-.013.12-.039.174l-4.336 9.348a.156.156 0 0 1-.142.09H40.16a.154.154 0 0 1-.142-.218l4.277-9.22a.42.42 0 0 0 .039-.174V.079"/></g></g><path d="M47.275 94.115h-3.742a.3.3 0 0 1-.3-.3v-1.233a.3.3 0 0 1 .3-.3h3.742a.3.3 0 0 1 .3.3v1.233a.302.302 0 0 1-.3.3z" fill="#7ce881"/><g fill="#afaeaa"><path d="M45.461 99.179h-.113a.098.098 0 0 1-.097-.097v-2.118c0-.053.044-.097.097-.097h.113c.053 0 .097.044.097.097v2.118a.097.097 0 0 1-.097.097z"/><path d="M45.404 96.286c-.958 0-1.737.779-1.737 1.736s.779 1.737 1.737 1.737 1.737-.779 1.737-1.737-.78-1.736-1.737-1.736zm0 3.19a1.454 1.454 0 1 1 .001-2.907 1.454 1.454 0 0 1-.001 2.907z"/></g><path d="M43.533 93.973a.158.158 0 0 1-.158-.158v-1.233c0-.087.071-.158.158-.158h3.742c.087 0 .158.071.158.158v1.233a.158.158 0 0 1-.158.158h-3.742z" fill="#ffffbf"/><path d="M92.428 87.375h24.083a1.969 1.969 0 0 0 1.969-1.969v-8.668a.28.28 0 0 0-.279-.279h-1.888a.29.29 0 0 1-.291-.291v-.955a.275.275 0 0 0-.275-.275H69.109a.275.275 0 0 0-.275.275v.955a.29.29 0 0 1-.291.291h-1.888a.28.28 0 0 0-.279.279v8.668c0 1.088.882 1.969 1.969 1.969h24.083z" fill="#c2c1bd" stroke="#605e59" stroke-width=".15" stroke-miterlimit="10"/><linearGradient id="l" gradientUnits="userSpaceOnUse" x1="92.428" y1="81.82" x2="92.428" y2="79.633"><stop offset="0" stop-color="#c2c1bd"/><stop offset=".208" stop-color="#9f9d99"/><stop offset=".389" stop-color="#878581"/><stop offset=".5" stop-color="#7e7c78"/><stop offset=".611" stop-color="#878581"/><stop offset=".792" stop-color="#9f9d99"/><stop offset="1" stop-color="#c2c1bd"/></linearGradient><path fill="url(#l)" d="M66.376 79.633h52.104v2.188H66.376z"/><path d="M66.376 80.273h52.104v.906H66.376z"/><path fill="none" stroke="#605e59" stroke-width=".15" stroke-miterlimit="10" d="M66.376 79.633v2.187M118.48 79.633v2.187"/><radialGradient id="m" cx="143.047" cy="103.987" r="12.603" gradientTransform="matrix(0 -1 8 0 -688.85 247.034)" gradientUnits="userSpaceOnUse"><stop offset="0" stop-color="#bdbbb8"/><stop offset=".594" stop-color="#bbb9b6"/><stop offset=".808" stop-color="#b4b2af"/><stop offset=".96" stop-color="#a9a7a4"/><stop offset="1" stop-color="#a4a29f"/></radialGradient><path d="M158.908 95.875h-31.731l.009.359c0 8.726 7.14 15.866 15.866 15.866 8.726 0 15.866-7.14 15.866-15.866l-.01-.359z" fill="url(#m)" stroke="#605e59" stroke-width=".25" stroke-miterlimit="10"/><g fill="#c4c4c4" stroke="#a5a5a5" stroke-width=".15" stroke-miterlimit="10"><path d="M140.854 99.417h1.375v3.979h-1.375zM143.937 99.417h1.375v3.979h-1.375z"/></g><path fill="#d7d7d1" d="M131.206 69.609h22.167v23.152h-22.167z"/><path d="M147.449 92.761h-7.487a.507.507 0 0 1-.507-.507V70.116c0-.28.227-.506.507-.506h7.487c.28 0 .507.227.507.506v22.139c0 .28-.227.506-.507.506z" fill="#914160" stroke="#843d5a" stroke-width=".249" stroke-miterlimit="10"/><path d="M147.288 91.96h-2.457a.292.292 0 0 1-.292-.292V70.703c0-.161.131-.292.292-.292h2.457c.161 0 .292.131.292.292v20.965a.291.291 0 0 1-.292.292z" fill="#9e4968" stroke="#632e49" stroke-width=".249" stroke-miterlimit="10"/><g><path fill="#a6a8aa" d="M79.97 110.656h24.917v12.427H79.97z"/><path fill="#878684" d="M104.886 123.083v-.075H80.045v-12.277h24.766v12.352h.075v-.075.075h.075v-12.502H79.895v12.577h25.066v-.075z"/><path fill="#8c3864" d="M97.063 110.656h4.952l-6.213 12.427h-4.953z"/><path d="M81.899 115.515l-.7 5.941h1.088l.111-1.226.517.005.088 1.22h1.184l-.811-5.938-1.477-.002zm.75 1.026l.168 2.71h-.343l.175-2.71zM84.41 115.529l.01 5.932h1.138l-.003-3.466.468 3.466h.725l.458-3.466-.002 3.466h1.153v-5.932h-1.608l-.369 2.643-.301-2.643zM91.601 115.575l.002.923h.606v4.944h1.255v-4.944h.648v-.923zM89.946 115.581c-.718-.002-.986-.099-1.203.186-.276.361-.164 1.102-.163 1.962 0 .695 1.591 1.056 1.6 1.475v1.159c-.001.181-.4.124-.399-.043v-1.275h-1.21l.017.996c-.027 1.255-.018 1.441 1.464 1.437.706-.002.869-.012 1.004-.091a.893.893 0 0 0 .273-.326c.103-.213.11-.315.094-1.299l.004-.982c.001-.252-.581-.683-.893-.845-.357-.186-.745-.203-.753-.834-.007-.513-.013-.605.21-.607.243-.001.175.102.189 1.062h1.27c0-2.054-.078-1.971-1.504-1.975zM94.37 115.59l.039 5.863h1.203l.008-2.368c.431.007.399-.142.371 2.392l1.271.005c-.044-2.329.049-2.464-.527-2.939.514-.324.468-.522.479-1.491.011-.929-.021-1.058-.29-1.308-.244-.226-.467-.188-2.554-.154zm1.239.914c.471.014.381.131.381.736 0 .632.079.765-.384.768l.003-1.504zM100.784 115.661s-.082 5.725-.043 5.819v.001l2.181.017c.802.006.675-.536.69-2.834.018-2.639-.01-3.003-.599-3.003h-2.229zm1.584 2.878c.015 1.927.037 1.975-.326 1.988l-.027-3.984c.39-.001.34.31.353 1.996zM98.231 115.599l-.7 5.942h1.088l.111-1.226.517.005.088 1.221h1.184l-.811-5.938-1.477-.004zm.75 1.026l.168 2.71h-.343l.175-2.71z"/></g></svg>