<svg xmlns="http://www.w3.org/2000/svg" viewBox="0 0 53.5 118.458"><path d="M53.5 51.068c0 1.245-.512 2.28-1.186 2.49l-.001 5.672.001 5.672c.674.209 1.186 1.244 1.186 2.49v46.464a4.604 4.604 0 0 1-4.604 4.604H12.417C5.559 118.458 0 112.899 0 106.042V12.417C0 5.559 5.559 0 12.417 0h36.479A4.604 4.604 0 0 1 53.5 4.604v46.464z" fill="#cfcec8"/><path d="M32.942 81.878l-6.365-20.767a6.424 6.424 0 0 1 0-3.765l6.365-20.767c.22-.719.885-1.21 1.637-1.21h16.637c.433 0 .785.351.785.785v46.15a.785.785 0 0 1-.785.785H34.579a1.712 1.712 0 0 1-1.637-1.211z" fill="#dbd9d4"/><path d="M49.375 31.817V5.211c0-.784-.635-1.419-1.419-1.419H13.625a9.375 9.375 0 0 0-9.375 9.375v92.125a9.375 9.375 0 0 0 9.375 9.375H47.95c.787 0 1.425-.638 1.425-1.425v-26.6c0-.776-.629-1.406-1.406-1.406H34.167c-.82 0-1.544-.535-1.784-1.319l-6.937-22.636a7 7 0 0 1 0-4.104l6.937-22.636a1.865 1.865 0 0 1 1.784-1.319h13.802c.777 0 1.406-.629 1.406-1.405z" fill="#dbd9d4"/><path fill="#939598" d="M9.062 48.899h10.304v20.659H9.062z"/><path fill="#878684" d="M9.062 69.559h.062V48.962h10.18v20.535H9.062v.062h.062-.062v.062h10.366V48.837H9v20.784h.062z"/><path fill="#8c3864" d="M19.366 63.072v4.107L9.062 62.027V57.92z"/><path d="M15.337 50.499l-4.926-.581v.902l1.016.092-.004.428-1.012.073v.981l4.923-.672.003-1.223zm-.85.622l-2.247.139v-.284l2.247.145zM15.326 52.581l-4.919.009v.943l2.875-.003-2.875.389v.601l2.875.379-2.875-.001v.956h4.919v-1.333l-2.191-.306 2.191-.25zM15.288 58.544l-.765.001v.503h-4.1v1.04h4.1v.538h.765zM15.283 57.171c.002-.596.082-.818-.154-.998-.299-.229-.913-.136-1.627-.135-.576 0-.875 1.319-1.223 1.327h-.961c-.15-.001-.102-.332.036-.331h1.057V56.03l-.826.014c-1.04-.023-1.195-.015-1.191 1.214.002.585.01.721.075.832a.736.736 0 0 0 .27.226c.177.085.262.091 1.077.078l.815.004c.209.001.566-.481.7-.74.154-.296.168-.618.691-.624.425-.006.502-.011.504.174.001.202-.085.145-.881.157v1.053c1.703 0 1.634-.064 1.638-1.247zM15.275 60.84l-4.861.032v.997l1.963.006c-.006.357.118.331-1.983.308l-.004 1.054c1.931-.037 2.043.041 2.437-.437.268.426.433.388 1.236.398.77.009.877-.017 1.084-.24.188-.203.156-.388.128-2.118zm-.757 1.027c-.011.391-.109.316-.61.316-.524 0-.634.066-.637-.319l1.247.003zM15.216 66.157s-4.747-.068-4.825-.036h-.001l-.014 1.808c-.005.665.444.56 2.35.572 2.188.015 2.49-.008 2.49-.497v-1.847zm-2.385 1.314c-1.598.013-1.637.03-1.648-.27l3.303-.022c0 .323-.258.282-1.655.292zM15.268 64.041l-4.927-.581v.902l1.017.092-.004.428-1.012.073v.981l4.924-.672.002-1.223zm-.85.622l-2.247.139v-.284l2.247.145z" fill="#e7e8e9"/><g><path d="M8.86 81.712c0-3.461 2.816-6.276 6.277-6.276s6.276 2.815 6.276 6.276-2.815 6.277-6.276 6.277-6.277-2.816-6.277-6.277z" fill="#bdbec0"/><path d="M9.568 81.712c0-3.07 2.498-5.568 5.568-5.568s5.568 2.498 5.568 5.568-2.498 5.568-5.568 5.568-5.568-2.498-5.568-5.568z" fill="#77787b"/><path d="M9.993 81.712a5.149 5.149 0 0 1 5.143-5.143c2.835 0 5.143 2.307 5.143 5.143s-2.307 5.144-5.143 5.144a5.15 5.15 0 0 1-5.143-5.144z" fill="#843d5a"/><circle cx="15.136" cy="81.712" r="4.292" fill="#9e4968"/></g><g><path d="M8.859 98.025c0-3.461 2.816-6.276 6.277-6.276s6.276 2.815 6.276 6.276-2.815 6.277-6.276 6.277-6.277-2.816-6.277-6.277z" fill="#bdbec0"/><path d="M9.568 98.025c0-3.07 2.498-5.568 5.568-5.568s5.568 2.498 5.568 5.568-2.498 5.568-5.568 5.568-5.568-2.498-5.568-5.568z" fill="#77787b"/><path d="M9.993 98.025a5.149 5.149 0 0 1 5.143-5.143c2.835 0 5.143 2.307 5.143 5.143s-2.307 5.144-5.143 5.144a5.15 5.15 0 0 1-5.143-5.144z" fill="#843d5a"/><circle cx="15.136" cy="98.025" r="4.292" fill="#9e4968"/></g><path d="M5.646 82.306v-.667h1.317v-.521h.455c.006.352.128.608.519.682v.507H5.646zM5.646 97.073c.263-.013.455.09.641.269.395.379.548.972.923.972.145 0 .228-.139.228-.272 0-.257-.214-.33-.433-.327v-.6c.664.01.933.372.933.959 0 .468-.205.906-.73.906-.397 0-.561-.305-.744-.6-.103-.163-.189-.336-.272-.454v1.048h-.546v-1.901z" fill="#8a8c8f"/><g><circle cx="21.877" cy="21.24" r="13.969" fill="#bdbec0"/><circle cx="21.877" cy="21.24" r="12.572" fill="#77787b"/><circle cx="21.877" cy="21.24" r="12.321" fill="#d1d2d4"/><path d="M26.165 17.803h6.204c.47 0 .85.381.85.85v5.174a.85.85 0 0 1-.85.85h-6.204a.85.85 0 0 0-.85.85v6.204a.85.85 0 0 1-.85.85H19.29a.85.85 0 0 1-.85-.85v-6.204a.85.85 0 0 0-.85-.85h-6.204a.85.85 0 0 1-.85-.85v-5.174c0-.47.381-.85.85-.85h6.204a.85.85 0 0 0 .85-.85v-6.204c0-.47.381-.85.85-.85h5.174c.47 0 .85.381.85.85v6.204c0 .469.381.85.851.85z" fill="#a7a9ac"/><circle cx="21.877" cy="21.24" r="2.703" fill="#9a9c9f"/><g fill="#9a9c9f"><path d="M31.672 21.195l-3.066-2.314v.826h-1.461a.147.147 0 0 0-.147.147v2.682c0 .081.066.147.147.147h1.461v.918l3.066-2.406zM21.868 11.445l-2.314 3.066h.826v1.461c0 .081.066.147.147.147h2.682a.147.147 0 0 0 .147-.147V14.51h.918l-2.406-3.065zM12.082 21.287l3.066 2.314v-.826h1.461a.147.147 0 0 0 .147-.147v-2.682a.147.147 0 0 0-.147-.147h-1.461v-.918l-3.066 2.406zM21.923 31.036l2.314-3.066h-.826v-1.461a.147.147 0 0 0-.147-.147h-2.682a.147.147 0 0 0-.147.147v1.461h-.918l2.406 3.066z"/></g></g></svg>