<svg xmlns="http://www.w3.org/2000/svg" viewBox="0 0 52.283 52.914"><linearGradient id="a" gradientUnits="userSpaceOnUse" y1="26.457" x2="52.283" y2="26.457"><stop offset="0" stop-color="#7a7572"/><stop offset=".009" stop-color="#948f8c"/><stop offset=".02" stop-color="#aaa5a1"/><stop offset=".032" stop-color="#bbb6b2"/><stop offset=".048" stop-color="#c6c1bd"/><stop offset=".07" stop-color="#cdc8c4"/><stop offset=".13" stop-color="#cfcac6"/><stop offset=".87" stop-color="#cfcac6"/><stop offset=".93" stop-color="#cdc8c4"/><stop offset=".952" stop-color="#c6c1bd"/><stop offset=".968" stop-color="#bbb6b2"/><stop offset=".98" stop-color="#aaa5a1"/><stop offset=".991" stop-color="#948f8c"/><stop offset="1" stop-color="#7a7572"/></linearGradient><path d="M26.142 0H1.491C.668 0 0 .668 0 1.491v1.091h1.244c.023 0 .043.019.043.043v.197a.043.043 0 0 1-.043.043H0v.388h1.244c.023 0 .043.019.043.043v.197a.043.043 0 0 1-.043.043H0v.388h1.244c.023 0 .043.019.043.043v.197a.043.043 0 0 1-.043.043H0v.388h1.244c.023 0 .043.019.043.043v.197a.043.043 0 0 1-.043.043H0v.388h1.244c.023 0 .043.019.043.043v.197a.043.043 0 0 1-.043.043H0v.388h1.244c.023 0 .043.019.043.043v.197a.043.043 0 0 1-.043.043H0v.388h1.244c.023 0 .043.019.043.043v.197a.043.043 0 0 1-.043.043H0v.388h1.244c.023 0 .043.019.043.043v.197a.043.043 0 0 1-.043.043H0v.388h1.244c.023 0 .043.019.043.043v.197a.043.043 0 0 1-.043.043H0v.388h1.244c.023 0 .043.019.043.043v.197a.043.043 0 0 1-.043.043H0v.388h1.244c.023 0 .043.019.043.043v.197a.043.043 0 0 1-.043.043H0v.388h1.244c.023 0 .043.019.043.043v.197a.043.043 0 0 1-.043.043H0v41.181a1.49 1.49 0 0 0 1.491 1.491h49.3a1.49 1.49 0 0 0 1.491-1.491V10.241h-1.244a.043.043 0 0 1-.043-.043v-.197c0-.023.019-.043.043-.043h1.244V9.57h-1.244a.043.043 0 0 1-.043-.043v-.196c0-.023.019-.043.043-.043h1.244V8.9h-1.244a.043.043 0 0 1-.043-.043V8.66c0-.023.019-.043.043-.043h1.244v-.388h-1.244a.043.043 0 0 1-.043-.043V7.99c0-.023.019-.043.043-.043h1.244v-.388h-1.244a.043.043 0 0 1-.043-.043v-.197c0-.023.019-.043.043-.043h1.244v-.388h-1.244a.043.043 0 0 1-.043-.043v-.197c0-.023.019-.043.043-.043h1.244v-.388h-1.244a.043.043 0 0 1-.043-.043v-.196c0-.023.019-.043.043-.043h1.244v-.388h-1.244a.043.043 0 0 1-.043-.043v-.197c0-.023.019-.043.043-.043h1.244v-.388h-1.244a.043.043 0 0 1-.043-.043v-.196c0-.023.019-.043.043-.043h1.244v-.388h-1.244a.043.043 0 0 1-.043-.043v-.197c0-.023.019-.043.043-.043h1.244v-.388h-1.244a.043.043 0 0 1-.043-.043v-.197c0-.023.019-.043.043-.043h1.244v-.388h-1.244a.043.043 0 0 1-.043-.043v-.196c0-.023.019-.043.043-.043h1.244V1.491A1.49 1.49 0 0 0 50.792 0h-24.65z" fill="url(#a)"/><path d="M42.509 30.5H9.775a1.283 1.283 0 0 1-1.283-1.283V0h35.301v29.217a1.285 1.285 0 0 1-1.284 1.283z" fill="#f0f1ec"/><linearGradient id="b" gradientUnits="userSpaceOnUse" x1="8.491" y1="3.708" x2="43.792" y2="3.708"><stop offset="0" stop-color="#e5b3b2"/><stop offset="1" stop-color="#c02520"/></linearGradient><path fill="url(#b)" d="M8.491 0h35.301v7.417H8.491z"/><path d="M43.752 45.354h-8.907c-.039 0-.055.051-.023.073l4.313 2.96a.29.29 0 0 0 .328 0l4.313-2.96c.031-.022.015-.073-.024-.073zM8.532 45.354h8.907c.039 0 .055.051.023.073l-4.313 2.96a.29.29 0 0 1-.328 0l-4.313-2.96c-.032-.022-.016-.073.024-.073z" fill="#4f4949"/><path d="M43.752 45.562h-8.907c-.039 0-.055.051-.023.073l4.313 2.96a.29.29 0 0 0 .328 0l4.313-2.96c.031-.022.015-.073-.024-.073zM8.532 45.562h8.907c.039 0 .055.051.023.073l-4.313 2.96a.29.29 0 0 1-.328 0l-4.313-2.96c-.032-.022-.016-.073.024-.073z" fill="#e5e0dc"/><path d="M43.752 45.458h-8.907c-.039 0-.055.051-.023.073l4.313 2.96a.29.29 0 0 0 .328 0l4.313-2.96c.031-.022.015-.073-.024-.073zM8.532 45.458h8.907c.039 0 .055.051.023.073l-4.313 2.96a.29.29 0 0 1-.328 0l-4.313-2.96c-.032-.022-.016-.073.024-.073z" fill="#c6c1bd"/></svg>