<?xml version="1.0" encoding="UTF-8" standalone="no"?>
<svg
   xmlns:dc="http://purl.org/dc/elements/1.1/"
   xmlns:cc="http://creativecommons.org/ns#"
   xmlns:rdf="http://www.w3.org/1999/02/22-rdf-syntax-ns#"
   xmlns:svg="http://www.w3.org/2000/svg"
   xmlns="http://www.w3.org/2000/svg"
   viewBox="0 0 296.24124 296.22751"
   height="296.22751"
   width="296.24124"
   xml:space="preserve"
   version="1.1"
   id="svg2"><metadata
     id="metadata8"><rdf:RDF><cc:Work
         rdf:about=""><dc:format>image/svg+xml</dc:format><dc:type
           rdf:resource="http://purl.org/dc/dcmitype/StillImage" /><dc:title></dc:title></cc:Work></rdf:RDF></metadata><defs
     id="defs6"><clipPath
       id="clipPath16"
       clipPathUnits="userSpaceOnUse"><path
         id="path18"
         d="m 0,236.982 236.993,0 L 236.993,0 0,0 0,236.982 Z" /></clipPath></defs><g
     transform="matrix(1.25,0,0,-1.25,0,296.2275)"
     id="g10"><g
       id="g12"><g
         clip-path="url(#clipPath16)"
         id="g14"><g
           transform="translate(230.2041,26.2686)"
           id="g20"><path
             id="path22"
             style="fill:#1d1d1d;fill-opacity:1;fill-rule:nonzero;stroke:none"
             d="m 0,0 c 0,-11.19 -9.044,-20.302 -20.158,-20.302 l -183.1,0 c -11.113,0 -20.146,9.112 -20.146,20.302 l 0,184.435 c 0,11.191 9.033,20.301 20.146,20.301 l 183.1,0 C -9.044,204.736 0,195.626 0,184.435 L 0,0 Z m -15.483,210.714 -192.439,0 c -12.286,0 -22.282,-9.996 -22.282,-22.272 l 0,-192.439 c 0,-12.285 9.996,-22.272 22.282,-22.272 l 192.439,0 c 12.275,0 22.272,9.987 22.272,22.272 l 0,192.439 c 0,12.276 -9.997,22.272 -22.272,22.272" /></g><g
           transform="translate(230.2041,210.7032)"
           id="g24"><path
             id="path26"
             style="fill:#0c0d0d;fill-opacity:1;fill-rule:nonzero;stroke:none"
             d="m 0,0 0,-184.435 c 0,-11.19 -9.044,-20.301 -20.158,-20.301 l -183.1,0 c -11.113,0 -20.146,9.111 -20.146,20.301 l 0,184.435 c 0,11.191 9.033,20.302 20.146,20.302 l 183.1,0 C -9.044,20.302 0,11.191 0,0" /></g><g
           transform="translate(210.1445,105.0625)"
           id="g28"><path
             id="path30"
             style="fill:#040505;fill-opacity:1;fill-rule:nonzero;stroke:none"
             d="m 0,0 c 0,-50.622 -41.028,-91.649 -91.648,-91.649 -50.621,0 -91.649,41.027 -91.649,91.649 0,18.023 5.212,34.841 14.201,49.02 l -22.03,22.568 c -3.843,5.157 -6.12,11.553 -6.12,18.473 0,17.081 13.84,30.921 30.922,30.921 9.35,0 17.716,-4.15 23.377,-10.688 l 0,-0.01 21.537,-23.574 c 9.33,3.197 19.338,4.938 29.762,4.938 C -41.028,91.648 0,50.619 0,0" /></g><g
           transform="translate(188.4316,106.3203)"
           id="g32"><path
             id="path34"
             style="fill:#121312;fill-opacity:1;fill-rule:nonzero;stroke:none"
             d="m 0,0 c 0,-38.629 -31.316,-69.934 -69.936,-69.934 -38.619,0 -69.935,31.305 -69.935,69.934 0,38.62 31.316,69.925 69.935,69.925 C -31.316,69.925 0,38.62 0,0" /></g><g
           transform="translate(118.4961,71.7862)"
           id="g36"><path
             id="path38"
             style="fill:#121312;fill-opacity:1;fill-rule:nonzero;stroke:none"
             d="m 0,0 c -19.062,0 -34.523,15.461 -34.523,34.534 0,19.064 15.461,34.525 34.523,34.525 19.074,0 34.525,-15.461 34.525,-34.525 C 34.525,15.461 19.074,0 0,0 m 0,83.479 c -27.035,0 -48.944,-21.92 -48.944,-48.945 0,-27.034 21.909,-48.944 48.944,-48.944 27.035,0 48.945,21.91 48.945,48.944 0,27.025 -21.91,48.945 -48.945,48.945" /></g><g
           transform="translate(153.0215,106.3203)"
           id="g40"><path
             id="path42"
             style="fill:#040405;fill-opacity:1;fill-rule:nonzero;stroke:none"
             d="m 0,0 c 0,-19.073 -15.451,-34.534 -34.525,-34.534 -19.063,0 -34.524,15.461 -34.524,34.534 0,19.064 15.461,34.525 34.524,34.525 C -15.451,34.525 0,19.064 0,0" /></g><g
           transform="translate(118.4961,57.376)"
           id="g44"><path
             id="path46"
             style="fill:#040405;fill-opacity:1;fill-rule:nonzero;stroke:none"
             d="M 0,0 C -27.035,0 -48.944,21.91 -48.944,48.944 -48.944,75.969 -27.035,97.89 0,97.89 27.035,97.89 48.945,75.969 48.945,48.944 48.945,21.91 27.035,0 0,0 m 0,109.561 c -33.483,0 -60.628,-27.144 -60.628,-60.617 0,-33.484 27.145,-60.628 60.628,-60.628 33.484,0 60.629,27.144 60.629,60.628 0,33.473 -27.145,60.617 -60.629,60.617" /></g><g
           transform="translate(118.4961,36.3868)"
           id="g48"><path
             id="path50"
             style="fill:#5d5d5d;fill-opacity:1;fill-rule:nonzero;stroke:none"
             d="m 0,0 c -38.619,0 -69.936,31.305 -69.936,69.934 0,38.62 31.317,69.924 69.936,69.924 38.619,0 69.936,-31.304 69.936,-69.924 C 69.936,31.305 38.619,0 0,0 m 0,142.049 c -39.834,0 -72.125,-32.29 -72.125,-72.115 C -72.125,30.1 -39.834,-2.19 0,-2.19 c 39.836,0 72.125,32.29 72.125,72.124 0,39.825 -32.289,72.115 -72.125,72.115" /></g><g
           transform="translate(43.5468,175.3252)"
           id="g52"><path
             id="path54"
             style="fill:#911a21;fill-opacity:1;fill-rule:nonzero;stroke:none"
             d="m 0,0 c -11.093,0 -20.071,8.98 -20.071,20.071 0,11.092 8.978,20.071 20.071,20.071 11.092,0 20.07,-8.979 20.07,-20.071 C 20.07,8.98 11.092,0 0,0 m 0,41.697 c -11.947,0 -21.626,-9.679 -21.626,-21.626 0,-11.946 9.679,-21.626 21.626,-21.626 11.945,0 21.625,9.68 21.625,21.626 0,11.947 -9.68,21.626 -21.625,21.626" /></g><g
           transform="translate(63.6172,195.3965)"
           id="g56"><path
             id="path58"
             style="fill:#bb2127;fill-opacity:1;fill-rule:nonzero;stroke:none"
             d="m 0,0 c 0,-11.092 -8.979,-20.071 -20.07,-20.071 -11.093,0 -20.072,8.979 -20.072,20.071 0,11.092 8.979,20.07 20.072,20.07 C -8.979,20.07 0,11.092 0,0" /></g><g
           transform="translate(140.3086,95.1641)"
           id="g60"><path
             id="path62"
             style="fill:#171818;fill-opacity:1;fill-rule:nonzero;stroke:none"
             d="m 0,0 -21.812,-14.837 -21.811,13.763 0,25.523 21.932,12.692 L 0,24.449 0,0 Z m -21.67,39.921 -24.275,-14.059 0,-28.238 24.133,-15.243 24.132,16.426 0,27.055 -23.99,14.059 z" /></g><g
           transform="translate(140.3086,119.6133)"
           id="g64"><path
             id="path66"
             style="fill:#2f2f2f;fill-opacity:1;fill-rule:nonzero;stroke:none"
             d="m 0,0 0,-24.449 -21.812,-14.837 -21.811,13.763 0,25.523 21.932,12.691 L 0,0 Z" /></g><g
           transform="translate(146.3418,187.0313)"
           id="g68"><path
             id="path70"
             style="fill:#e57225;fill-opacity:1;fill-rule:nonzero;stroke:none"
             d="m 0,0 -1.741,-4.611 c -2.748,0.931 -5.573,1.709 -8.453,2.322 l 0.712,4.894 C -6.242,1.927 -3.076,1.05 0,0" /></g><g
           transform="translate(160.1933,180.8877)"
           id="g72"><path
             id="path74"
             style="fill:#e57225;fill-opacity:1;fill-rule:nonzero;stroke:none"
             d="m 0,0 -2.398,-4.314 c -2.53,1.414 -5.135,2.695 -7.83,3.81 l 1.73,4.621 C -5.574,2.901 -2.738,1.521 0,0" /></g><g
           transform="translate(173.1025,172.0635)"
           id="g76"><path
             id="path78"
             style="fill:#e57225;fill-opacity:1;fill-rule:nonzero;stroke:none"
             d="M 0,0 -3.482,-3.526 C -5.704,-1.698 -8.026,0 -10.436,1.575 l 2.759,4.074 C -5.005,3.919 -2.442,2.025 0,0" /></g><g
           transform="translate(183.7129,161.5508)"
           id="g80"><path
             id="path82"
             style="fill:#e57225;fill-opacity:1;fill-rule:nonzero;stroke:none"
             d="m 0,0 -3.789,-3.164 c -1.785,2.112 -3.679,4.127 -5.672,6.044 l 3.525,3.439 C -3.854,4.325 -1.873,2.213 0,0" /></g><g
           transform="translate(191.7383,150.3047)"
           id="g84"><path
             id="path86"
             style="fill:#e57225;fill-opacity:1;fill-rule:nonzero;stroke:none"
             d="m 0,0 -4.424,-2.2 c -1.247,2.081 -2.595,4.095 -4.04,6.045 l 3.888,3.033 C -2.935,4.665 -1.402,2.378 0,0" /></g><g
           transform="translate(198.0449,137.3858)"
           id="g88"><path
             id="path90"
             style="fill:#e57225;fill-opacity:1;fill-rule:nonzero;stroke:none"
             d="m 0,0 -4.664,-1.589 c -0.93,2.388 -1.96,4.709 -3.109,6.977 l 4.379,2.264 C -2.135,5.168 -1.008,2.616 0,0" /></g><g
           transform="translate(201.8457,124.585)"
           id="g92"><path
             id="path94"
             style="fill:#e57225;fill-opacity:1;fill-rule:nonzero;stroke:none"
             d="m 0,0 -4.862,-0.844 c -0.46,2.18 -1.018,4.315 -1.664,6.417 l 4.641,1.719 C -1.15,4.905 -0.516,2.475 0,0" /></g><g
           transform="translate(201.7783,89.1084)"
           id="g96"><path
             id="path98"
             style="fill:#e57225;fill-opacity:1;fill-rule:nonzero;stroke:none"
             d="m 0,0 c -0.536,-2.529 -1.193,-5.004 -1.947,-7.434 l -4.622,1.773 c 0.678,2.179 1.259,4.402 1.741,6.657 L 0,0 Z" /></g><g
           transform="translate(197.9355,76.2969)"
           id="g100"><path
             id="path102"
             style="fill:#e57225;fill-opacity:1;fill-rule:nonzero;stroke:none"
             d="m 0,0 c -1.029,-2.628 -2.179,-5.2 -3.448,-7.697 l -4.238,2.562 c 1.127,2.222 2.146,4.511 3.067,6.854 L 0,0 Z" /></g><g
           transform="translate(191.5752,63.3877)"
           id="g104"><path
             id="path106"
             style="fill:#e57225;fill-opacity:1;fill-rule:nonzero;stroke:none"
             d="m 0,0 c -1.392,-2.321 -2.902,-4.567 -4.512,-6.724 l -3.689,3.296 c 1.411,1.916 2.736,3.899 3.963,5.947 L 0,0 Z" /></g><g
           transform="translate(183.6133,52.3174)"
           id="g108"><path
             id="path110"
             style="fill:#e57225;fill-opacity:1;fill-rule:nonzero;stroke:none"
             d="m 0,0 c -1.948,-2.311 -4.018,-4.5 -6.208,-6.569 l -3.251,3.7 c 1.916,1.829 3.733,3.756 5.451,5.76 L 0,0 Z" /></g><g
           transform="translate(173.0586,41.8819)"
           id="g112"><path
             id="path114"
             style="fill:#e57225;fill-opacity:1;fill-rule:nonzero;stroke:none"
             d="m 0,0 c -2.551,-2.112 -5.223,-4.073 -8.016,-5.88 l -2.244,4.413 c 2.409,1.588 4.731,3.296 6.953,5.124 L 0,0 Z" /></g><g
           transform="translate(160.3242,33.166)"
           id="g116"><path
             id="path118"
             style="fill:#e57225;fill-opacity:1;fill-rule:nonzero;stroke:none"
             d="m 0,0 c -2.737,-1.544 -5.585,-2.934 -8.508,-4.149 l -1.752,4.598 c 2.639,1.117 5.201,2.365 7.687,3.745 L 0,0 Z" /></g><g
           transform="translate(146.3955,26.958)"
           id="g120"><path
             id="path122"
             style="fill:#e57225;fill-opacity:1;fill-rule:nonzero;stroke:none"
             d="m 0,0 c -2.944,-1.007 -5.956,-1.85 -9.044,-2.518 l -0.908,4.839 c 2.791,0.613 5.517,1.38 8.189,2.278 L 0,0 Z" /></g><g
           transform="translate(102.1914,29.2139)"
           id="g124"><path
             id="path126"
             style="fill:#e57225;fill-opacity:1;fill-rule:nonzero;stroke:none"
             d="m 0,0 -0.887,-4.852 c -3.109,0.669 -6.153,1.512 -9.12,2.508 l 1.741,4.611 C -5.572,1.369 -2.813,0.613 0,0" /></g><g
           transform="translate(88.4394,33.5508)"
           id="g128"><path
             id="path130"
             style="fill:#e57225;fill-opacity:1;fill-rule:nonzero;stroke:none"
             d="m 0,0 -1.74,-4.61 c -2.924,1.204 -5.76,2.584 -8.497,4.106 l 2.616,4.182 C -5.157,2.32 -2.617,1.095 0,0" /></g><g
           transform="translate(75.7929,40.251)"
           id="g132"><path
             id="path134"
             style="fill:#e57225;fill-opacity:1;fill-rule:nonzero;stroke:none"
             d="m 0,0 -2.574,-4.216 c -2.758,1.795 -5.408,3.745 -7.926,5.836 l 3.316,3.648 C -4.895,3.384 -2.496,1.62 0,0" /></g><g
           transform="translate(64.416,49.2285)"
           id="g136"><path
             id="path138"
             style="fill:#e57225;fill-opacity:1;fill-rule:nonzero;stroke:none"
             d="M 0,0 -3.383,-3.579 C -5.561,-1.52 -7.621,0.659 -9.57,2.947 l 3.865,3.044 C -3.908,3.9 -2.004,1.896 0,0" /></g><g
           transform="translate(55.0976,59.7744)"
           id="g140"><path
             id="path142"
             style="fill:#e57225;fill-opacity:1;fill-rule:nonzero;stroke:none"
             d="m 0,0 -3.931,-2.957 c -1.554,2.081 -3,4.237 -4.335,6.461 l 4.258,2.463 C -2.759,3.92 -1.424,1.927 0,0" /></g><g
           transform="translate(48.2109,70.9102)"
           id="g144"><path
             id="path146"
             style="fill:#e57225;fill-opacity:1;fill-rule:nonzero;stroke:none"
             d="M 0,0 -4.227,-2.551 C -5.52,-0.055 -6.68,2.519 -7.72,5.146 l 4.632,1.697 C -2.168,4.5 -1.139,2.222 0,0" /></g><g
           transform="translate(43.0527,83.711)"
           id="g148"><path
             id="path150"
             style="fill:#e57225;fill-opacity:1;fill-rule:nonzero;stroke:none"
             d="m 0,0 -4.555,-1.993 c -0.755,2.43 -1.412,4.915 -1.948,7.444 l 4.86,0.821 C -1.183,4.149 -0.646,2.058 0,0" /></g><g
           transform="translate(43.0429,130.2354)"
           id="g152"><path
             id="path154"
             style="fill:#e57225;fill-opacity:1;fill-rule:nonzero;stroke:none"
             d="m 0,0 c -0.68,-2.18 -1.248,-4.392 -1.72,-6.646 l -4.84,0.908 c 0.494,2.42 1.106,4.797 1.83,7.128 L 0,0 Z" /></g><g
           transform="translate(48.0791,142.795)"
           id="g156"><path
             id="path158"
             style="fill:#e57225;fill-opacity:1;fill-rule:nonzero;stroke:none"
             d="m 0,0 c -1.116,-2.201 -2.134,-4.469 -3.044,-6.79 l -4.653,1.621 c 0.974,2.508 2.069,4.961 3.273,7.348 L 0,0 Z" /></g><g
           transform="translate(54.9121,153.9405)"
           id="g160"><path
             id="path162"
             style="fill:#e57225;fill-opacity:1;fill-rule:nonzero;stroke:none"
             d="m 0,0 c -1.369,-1.861 -2.66,-3.787 -3.854,-5.759 l -4.282,2.432 c 1.347,2.243 2.803,4.423 4.358,6.513 L 0,0 Z" /></g><g
           transform="translate(64.4052,164.7266)"
           id="g164"><path
             id="path166"
             style="fill:#e57225;fill-opacity:1;fill-rule:nonzero;stroke:none"
             d="m 0,0 c -1.981,-1.873 -3.854,-3.844 -5.628,-5.913 l -3.898,3.033 c 1.927,2.268 3.975,4.412 6.133,6.46 L 0,0 Z" /></g><g
           transform="translate(75.8144,173.7383)"
           id="g168"><path
             id="path170"
             style="fill:#e57225;fill-opacity:1;fill-rule:nonzero;stroke:none"
             d="m 0,0 c -2.42,-1.566 -4.741,-3.275 -6.963,-5.093 l -3.274,3.692 c 2.43,2.004 4.981,3.875 7.641,5.584 L 0,0 Z" /></g><g
           transform="translate(88.5713,180.4727)"
           id="g172"><path
             id="path174"
             style="fill:#e57225;fill-opacity:1;fill-rule:nonzero;stroke:none"
             d="m 0,0 c -2.607,-1.085 -5.146,-2.3 -7.6,-3.648 l -2.518,4.239 c 2.606,1.434 5.3,2.737 8.07,3.897 L 0,0 Z" /></g><g
           transform="translate(102.1699,184.7422)"
           id="g176"><path
             id="path178"
             style="fill:#e57225;fill-opacity:1;fill-rule:nonzero;stroke:none"
             d="m 0,0 c -2.803,-0.603 -5.539,-1.347 -8.211,-2.255 l -1.971,4.544 c 2.945,1.008 5.979,1.85 9.065,2.507 L 0,0 Z" /></g><g
           transform="translate(114.5713,189.5616)"
           id="g180"><path
             id="path182"
             style="fill:#e16f26;fill-opacity:1;fill-rule:nonzero;stroke:none"
             d="m 0,0 -2.817,0 0,-4.398 -1.131,0 0,4.398 -2.793,0 0,0.592 L 0,0.592 0,0 Z" /></g><g
           transform="translate(119.4609,185.6436)"
           id="g184"><path
             id="path186"
             style="fill:#e16f26;fill-opacity:1;fill-rule:nonzero;stroke:none"
             d="M 0,0 C 0.85,0 1.549,0.177 2.094,0.531 2.636,0.885 2.908,1.379 2.908,2.016 2.908,2.65 2.639,3.145 2.096,3.498 1.553,3.852 0.861,4.029 0.021,4.029 -0.833,4.029 -1.534,3.852 -2.083,3.498 -2.631,3.145 -2.904,2.65 -2.904,2.016 -2.904,1.383 -2.631,0.888 -2.085,0.532 -1.539,0.177 -0.844,0 0,0 M 0.011,4.596 C 1.203,4.596 2.18,4.359 2.938,3.888 3.695,3.415 4.075,2.79 4.075,2.016 4.075,1.239 3.695,0.615 2.938,0.143 2.18,-0.329 1.203,-0.565 0.011,-0.565 c -1.196,0 -2.175,0.238 -2.939,0.71 -0.761,0.472 -1.144,1.096 -1.144,1.871 0,0.774 0.383,1.399 1.144,1.872 0.764,0.471 1.743,0.708 2.939,0.708" /></g><g
           transform="translate(126.1601,187.7491)"
           id="g188"><path
             id="path190"
             style="fill:#e16f26;fill-opacity:1;fill-rule:nonzero;stroke:none"
             d="m 0,0 2.156,0 c 0.724,0 1.239,0.081 1.547,0.24 0.308,0.158 0.462,0.388 0.462,0.688 0,0.2 -0.086,0.377 -0.256,0.53 C 3.738,1.612 3.523,1.709 3.263,1.75 3,1.792 2.625,1.812 2.133,1.812 L 0,1.812 0,0 Z m -1.125,2.404 3.176,0 c 0.696,0 1.281,-0.039 1.75,-0.113 C 4.273,2.214 4.645,2.049 4.92,1.797 5.195,1.543 5.332,1.261 5.332,0.948 5.332,0.443 5.059,0.061 4.512,-0.199 3.967,-0.46 3.178,-0.591 2.143,-0.591 l -2.143,0 0,-1.994 -1.125,0 0,4.989 z" /></g><g
           transform="translate(36.5664,118.4912)"
           id="g192"><path
             id="path194"
             style="fill:#e16f26;fill-opacity:1;fill-rule:nonzero;stroke:none"
             d="m 0,0 3.648,-0.518 -0.546,-8.03 -11.224,0 0,1.188 7.71,2.828 L 0,0 Z" /></g><g
           transform="translate(36.5664,95.2979)"
           id="g196"><path
             id="path198"
             style="fill:#e16f26;fill-opacity:1;fill-rule:nonzero;stroke:none"
             d="m 0,0 3.648,0.519 -0.546,8.029 -11.224,0 0,-1.187 7.71,-2.828 L 0,0 Z" /></g><g
           transform="translate(201.5224,95.2373)"
           id="g200"><path
             id="path202"
             style="fill:#e16f26;fill-opacity:1;fill-rule:nonzero;stroke:none"
             d="m 0,0 -3.65,0.519 0.547,8.027 11.225,0 0,-1.185 L 0.41,4.532 0,0 Z" /></g><g
           transform="translate(201.5224,118.4297)"
           id="g204"><path
             id="path206"
             style="fill:#e16f26;fill-opacity:1;fill-rule:nonzero;stroke:none"
             d="m 0,0 -3.65,-0.518 0.547,-8.029 11.225,0 0,1.186 L 0.41,-4.532 0,0 Z" /></g></g></g></g></svg>