<?xml version="1.0" encoding="UTF-8" standalone="no"?>
<svg
   xmlns:dc="http://purl.org/dc/elements/1.1/"
   xmlns:cc="http://creativecommons.org/ns#"
   xmlns:rdf="http://www.w3.org/1999/02/22-rdf-syntax-ns#"
   xmlns:svg="http://www.w3.org/2000/svg"
   xmlns="http://www.w3.org/2000/svg"
   viewBox="0 0 240.76125 295.86749"
   height="295.86749"
   width="240.76125"
   xml:space="preserve"
   version="1.1"
   id="svg2"><metadata
     id="metadata8"><rdf:RDF><cc:Work
         rdf:about=""><dc:format>image/svg+xml</dc:format><dc:type
           rdf:resource="http://purl.org/dc/dcmitype/StillImage" /><dc:title></dc:title></cc:Work></rdf:RDF></metadata><defs
     id="defs6"><clipPath
       id="clipPath18"
       clipPathUnits="userSpaceOnUse"><path
         id="path20"
         d="m 0,236.694 192.609,0 L 192.609,0 0,0 0,236.694 Z" /></clipPath></defs><g
     transform="matrix(1.25,0,0,-1.25,0,295.8675)"
     id="g10"><path
       id="path12"
       style="fill:#1d1d1d;fill-opacity:1;fill-rule:nonzero;stroke:none"
       d="m 0,0 192.609,0 0,236.695 L 0,236.695 0,0 Z" /><g
       id="g14"><g
         clip-path="url(#clipPath18)"
         id="g16"><g
           transform="translate(184.6939,14.7002)"
           id="g22"><path
             id="path24"
             style="fill:#d1e0eb;fill-opacity:1;fill-rule:evenodd;stroke:none"
             d="m 0,0 c 0,-2.498 -2.025,-4.523 -4.523,-4.523 l -164.717,0 c -2.498,0 -4.523,2.025 -4.523,4.523 l 0,205.833 c 0,2.498 2.025,4.523 4.523,4.523 l 164.717,0 c 2.498,0 4.523,-2.025 4.523,-4.523 L 0,0 Z" /></g><path
           id="path26"
           style="fill:#da1e3d;fill-opacity:1;fill-rule:evenodd;stroke:none"
           d="m 184.694,124.81 -173.763,0 0,20.4 173.763,0 0,-20.4 z" /><path
           id="path28"
           style="fill:#1d1d1d;fill-opacity:1;fill-rule:evenodd;stroke:none"
           d="m 157.366,124.81 -124.574,0 0,-84.99 124.574,0 0,84.99 z" /><path
           id="path30"
           style="fill:#ffce09;fill-opacity:1;fill-rule:evenodd;stroke:none"
           d="m 45.599,145.209 -34.668,0 0,2.829 34.668,0 0,-2.829 z" /><path
           id="path32"
           style="fill:#ec2027;fill-opacity:1;fill-rule:evenodd;stroke:none"
           d="m 80.268,145.209 -34.669,0 0,2.829 34.669,0 0,-2.829 z" /><path
           id="path34"
           style="fill:#c61c74;fill-opacity:1;fill-rule:evenodd;stroke:none"
           d="m 114.904,145.209 -34.668,0 0,2.829 34.668,0 0,-2.829 z" /><path
           id="path36"
           style="fill:#3666ab;fill-opacity:1;fill-rule:evenodd;stroke:none"
           d="m 150.025,145.209 -35.121,0 0,2.829 35.121,0 0,-2.829 z" /><path
           id="path38"
           style="fill:#479148;fill-opacity:1;fill-rule:evenodd;stroke:none"
           d="m 184.694,145.209 -34.669,0 0,2.829 34.669,0 0,-2.829 z" /><g
           transform="translate(108.9434,173.497)"
           id="g40"><path
             id="path42"
             style="fill:#de1e26;fill-opacity:1;fill-rule:evenodd;stroke:none"
             d="m 0,0 c 0,3.752 0.012,7.506 -0.004,11.258 -0.015,3.285 1.694,5.147 4.841,5.214 1.258,0.027 2.517,0.074 3.774,0.032 5.028,-0.172 8.862,-4.501 8.441,-9.672 -0.262,-3.206 -1.983,-5.512 -4.596,-7.109 -1.505,-0.921 -1.511,-0.95 -0.571,-2.502 1.849,-3.058 3.703,-6.113 5.534,-9.183 0.627,-1.052 0.553,-1.154 -0.646,-1.192 -4.001,-0.127 -3.992,-0.122 -6.107,3.422 -1.335,2.238 -2.71,4.452 -4.051,6.685 -1.632,2.721 -0.628,5.448 2.34,6.395 2.509,0.8 3.708,3.207 2.733,5.572 -0.594,1.44 -1.647,2.305 -3.165,2.435 -3.687,0.317 -3.689,0.311 -3.687,-3.532 0.004,-6.44 0.01,-12.881 0.012,-19.321 0.001,-1.666 -0.003,-1.666 -1.634,-1.674 -3.258,-0.014 -3.249,-0.014 -3.237,3.335 0.012,3.279 0.002,6.559 0.002,9.837 L 0,0 Z" /></g><g
           transform="translate(96.2139,181.1406)"
           id="g44"><path
             id="path46"
             style="fill:#de1e26;fill-opacity:1;fill-rule:evenodd;stroke:none"
             d="M 0,0 C -0.126,0.019 -0.252,0.038 -0.378,0.058 -1.16,-2.634 -1.957,-5.32 -2.713,-8.02 c -0.174,-0.619 0.311,-0.694 0.734,-0.697 1.212,-0.005 2.423,0.023 3.635,0.011 0.582,-0.007 0.834,0.193 0.647,0.833 C 1.538,-5.247 0.967,-2.559 0,0 m 8.481,-20.862 c -2.768,0.051 -2.365,-0.384 -3.254,2.622 -0.373,1.259 -0.695,2.535 -1.02,3.807 -0.171,0.673 -0.542,0.982 -1.22,0.973 -2.15,-0.023 -4.301,-0.035 -6.45,-0.006 -0.745,0.01 -0.952,-0.441 -1.124,-1.068 -0.471,-1.717 -1.011,-3.414 -1.455,-5.138 -0.216,-0.838 -0.621,-1.222 -1.453,-1.184 -0.89,0.04 -1.784,0.034 -2.674,-0.002 -0.868,-0.036 -1.056,0.317 -0.802,1.168 0.848,2.841 1.643,5.701 2.474,8.548 1.627,5.572 3.276,11.137 4.89,16.712 0.411,1.419 1.072,2.561 2.451,3.123 1.784,0.728 3.789,-0.146 4.428,-2.143 1.059,-3.306 1.993,-6.655 2.956,-9.995 1.526,-5.293 3.038,-10.591 4.544,-15.89 0.396,-1.396 0.276,-1.545 -1.074,-1.527 -0.406,0.005 -0.811,0 -1.217,0" /></g><g
           transform="translate(64.4546,181.3164)"
           id="g48"><path
             id="path50"
             style="fill:#de1e26;fill-opacity:1;fill-rule:evenodd;stroke:none"
             d="m 0,0 c -0.991,-2.689 -1.68,-5.473 -2.501,-8.21 -0.193,-0.645 0.22,-0.818 0.744,-0.819 1.134,-0.003 2.268,-0.002 3.401,-0.018 0.859,-0.013 1.021,0.375 0.788,1.209 -0.64,2.28 -1.21,4.582 -1.824,6.869 C 0.515,-0.621 0.513,-0.189 0,0 m 8.1,-21.079 c -2.287,0.045 -2.276,0.048 -2.875,2.588 -0.302,1.279 -0.668,2.542 -0.979,3.818 -0.179,0.732 -0.565,1.027 -1.306,1.009 -1.946,-0.046 -3.895,-0.06 -5.84,-0.004 -0.901,0.026 -1.326,-0.37 -1.556,-1.231 -0.448,-1.679 -0.992,-3.331 -1.41,-5.019 -0.217,-0.876 -0.681,-1.172 -1.478,-1.148 -0.728,0.021 -1.457,-0.026 -2.186,-0.016 -1.185,0.016 -1.305,0.174 -0.976,1.321 2.189,7.615 4.38,15.23 6.581,22.842 0.305,1.057 0.621,2.114 1.002,3.143 0.607,1.642 2.075,2.688 3.551,2.608 1.459,-0.08 2.647,-1.165 3.121,-2.95 2.055,-7.742 4.093,-15.49 6.136,-23.237 0.227,-0.859 0.41,-1.735 0.689,-2.575 0.288,-0.867 0.034,-1.199 -0.809,-1.153 -0.486,0.025 -0.974,0.004 -1.665,0.004" /></g><g
           transform="translate(82.6226,161.6172)"
           id="g52"><path
             id="path54"
             style="fill:#de1e26;fill-opacity:1;fill-rule:evenodd;stroke:none"
             d="m 0,0 c 0.011,-0.991 -0.325,-1.424 -1.263,-1.388 -0.689,0.028 -1.38,10e-4 -2.07,0.005 -1.523,0.008 -1.536,0.011 -1.514,1.672 0.063,4.686 0.144,9.372 0.205,14.06 0.033,2.557 0.016,5.115 0.071,7.671 0.02,0.923 -0.253,1.315 -1.182,1.266 -1.295,-0.069 -2.596,-0.007 -3.894,-0.026 -0.706,-0.011 -1.057,0.27 -1.012,1.057 0.054,0.978 0.054,1.959 0.089,2.938 0.026,0.71 0.328,1.033 1.067,1.034 4.909,0.011 9.817,0.044 14.724,0.115 1.031,0.015 1.372,-0.422 1.291,-1.446 C 6.442,26.067 6.438,25.17 6.437,24.274 6.437,23.634 6.185,23.359 5.561,23.362 4.145,23.367 2.727,23.293 1.311,23.316 0.476,23.331 0.194,23.003 0.204,22.118 0.242,18.411 -0.04,3.665 0,0" /></g><g
           transform="translate(128.542,175.2177)"
           id="g56"><path
             id="path58"
             style="fill:#de1e26;fill-opacity:1;fill-rule:evenodd;stroke:none"
             d="m 0,0 c 0,4.515 0.017,9.029 -0.014,13.543 -0.006,0.944 0.319,1.32 1.208,1.276 0.849,-0.042 1.705,-0.049 2.553,0.006 1.038,0.07 1.198,-0.534 1.196,-1.431 C 4.934,8.537 4.958,3.682 4.96,-1.174 4.961,-5.264 4.921,-9.352 4.956,-13.44 c 0.01,-1.105 -0.333,-1.574 -1.407,-1.453 -0.601,0.068 -1.215,0.006 -1.823,0.005 -1.84,-0.005 -1.818,-0.005 -1.811,1.991 C -0.07,-8.599 -0.08,-4.299 -0.08,0 L 0,0 Z" /></g><g
           transform="translate(143.3023,185.6084)"
           id="g60"><path
             id="path62"
             style="fill:#de1e26;fill-opacity:1;fill-rule:evenodd;stroke:none"
             d="m 0,0 c 0.017,1.68 -1.043,2.843 -2.616,2.869 -1.503,0.027 -2.717,-1.24 -2.702,-2.818 0.014,-1.497 1.32,-2.84 2.758,-2.837 C -1.072,-2.781 -0.016,-1.633 0,0 m 0.052,-8.805 c 0.009,1.64 -1.1,2.858 -2.612,2.866 -1.439,0.008 -2.742,-1.331 -2.739,-2.817 0.003,-1.56 1.286,-2.839 2.851,-2.842 1.482,-0.003 2.49,1.125 2.5,2.793 m -1.993,4.504 c 3.149,-1.933 4.019,-3.475 3.335,-5.785 -0.52,-1.759 -2.373,-3.111 -4.114,-3.002 -1.968,0.123 -3.675,1.753 -4.012,3.834 -0.32,1.974 0.934,3.679 3.717,4.873 -2.627,1.095 -4.461,2.71 -3.438,5.88 0.621,1.923 2.537,2.985 4.366,2.732 C -0.318,3.986 1.135,2.578 1.424,0.824 1.801,-1.472 0.872,-2.905 -1.941,-4.301" /></g><g
           transform="translate(143.1817,163.3633)"
           id="g64"><path
             id="path66"
             style="fill:#de1e26;fill-opacity:1;fill-rule:evenodd;stroke:none"
             d="M 0,0 C 0.241,0.6 0.085,1.155 0.107,1.695 0.129,2.244 0.305,2.611 0.865,2.639 1.437,2.667 1.655,2.317 1.652,1.758 1.647,0.48 1.684,-0.799 1.633,-2.073 1.598,-2.926 0.865,-3.193 0.125,-2.57 c -0.724,0.609 -1.343,1.354 -2.009,2.04 -0.377,0.387 -0.73,0.804 -1.137,1.154 -0.614,0.526 -1.294,0.633 -1.796,-0.119 -0.493,-0.738 -0.18,-1.37 0.466,-1.849 0.098,-0.072 0.213,-0.125 0.327,-0.169 0.486,-0.182 0.592,-0.582 0.445,-1.026 -0.185,-0.56 -0.647,-0.433 -1.029,-0.308 -1.06,0.348 -1.727,1.105 -1.91,2.261 -0.189,1.194 0.34,2.082 1.261,2.692 0.986,0.651 2.025,0.606 2.968,-0.097 0.523,-0.391 0.942,-0.932 1.42,-1.39 C -0.634,0.395 -0.451,0.089 0,0" /></g><g
           transform="translate(143.4736,169.2217)"
           id="g68"><path
             id="path70"
             style="fill:#de1e26;fill-opacity:1;fill-rule:evenodd;stroke:none"
             d="m 0,0 c -0.002,0.891 -0.595,1.512 -1.442,1.512 -0.806,-0.001 -1.461,-0.705 -1.43,-1.536 0.031,-0.829 0.71,-1.54 1.474,-1.545 C -0.599,-1.575 0.002,-0.899 0,0 m -1.433,-2.877 c -0.567,-0.054 -1.139,0.163 -1.662,0.505 -1.034,0.675 -2.051,1.378 -3.078,2.063 -0.354,0.238 -0.666,0.498 -0.668,0.993 -10e-4,0.253 -0.046,0.537 0.161,0.714 0.227,0.198 0.458,0.036 0.671,-0.087 C -5.903,1.249 -5.784,1.2 -5.696,1.115 -4.844,0.296 -4.332,0.32 -3.807,1.58 -3.293,2.813 -1.649,3.232 -0.404,2.73 0.888,2.21 1.69,0.789 1.427,-0.512 1.145,-1.914 0.015,-2.871 -1.433,-2.877" /></g></g></g></g></svg>