<?xml version="1.0" encoding="UTF-8" standalone="no"?>
<svg
   xmlns:dc="http://purl.org/dc/elements/1.1/"
   xmlns:cc="http://creativecommons.org/ns#"
   xmlns:rdf="http://www.w3.org/1999/02/22-rdf-syntax-ns#"
   xmlns:svg="http://www.w3.org/2000/svg"
   xmlns="http://www.w3.org/2000/svg"
   viewBox="0 0 656.14001 146.19125"
   height="146.19125"
   width="656.14001"
   xml:space="preserve"
   version="1.1"
   id="svg2"><metadata
     id="metadata8"><rdf:RDF><cc:Work
         rdf:about=""><dc:format>image/svg+xml</dc:format><dc:type
           rdf:resource="http://purl.org/dc/dcmitype/StillImage" /><dc:title></dc:title></cc:Work></rdf:RDF></metadata><defs
     id="defs6"><clipPath
       id="clipPath16"
       clipPathUnits="userSpaceOnUse"><path
         id="path18"
         d="m 0,116.953 524.912,0 L 524.912,0 0,0 0,116.953 Z" /></clipPath></defs><g
     transform="matrix(1.25,0,0,-1.25,0,146.19125)"
     id="g10"><g
       id="g12"><g
         clip-path="url(#clipPath16)"
         id="g14"><g
           transform="translate(132.8845,0.3707)"
           id="g20"><path
             id="path22"
             style="fill:#de1e26;fill-opacity:1;fill-rule:evenodd;stroke:none"
             d="m 0,0 c -5.617,-0.251 -11.084,0.547 -16.365,2.474 -5.311,1.937 -10.213,4.628 -14.526,8.308 -1.924,1.642 -3.855,3.298 -5.596,5.126 -3.44,3.614 -6.351,7.64 -8.831,11.98 -2.549,4.462 -4.611,9.129 -6.138,14.034 -1.343,4.313 -2.487,8.679 -2.869,13.194 -0.326,3.853 -0.701,7.719 -0.72,11.581 -0.08,16.013 -0.034,32.025 -0.034,48.037 l 0,1.527 9.384,0 0,-1.381 c 0,-11.814 -0.096,-23.629 0.056,-35.441 0.048,-3.749 0.721,-7.493 1.167,-11.232 0.542,-4.544 1.913,-8.884 3.47,-13.16 2.385,-6.554 5.488,-12.744 9.946,-18.144 2.441,-2.954 4.927,-5.937 7.782,-8.469 6.461,-5.73 13.848,-9.833 22.471,-11.406 C -0.53,16.979 -0.267,16.875 0,16.795 L 0,0 Z" /></g><path
           id="path24"
           style="fill:#de1e26;fill-opacity:1;fill-rule:evenodd;stroke:none"
           d="m 73.359,0.707 -14.078,0 0,116.246 14.078,0 0,-116.246 z" /><g
           transform="translate(0.0019,0.3707)"
           id="g26"><path
             id="path28"
             style="fill:#de1e26;fill-opacity:1;fill-rule:evenodd;stroke:none"
             d="m 0,0 c 0,5.471 -0.014,10.738 0.033,16.005 0.003,0.343 0.436,0.93 0.743,0.984 4.449,0.791 8.669,2.288 12.548,4.545 3.089,1.798 6.091,3.816 8.879,6.051 4.825,3.867 8.809,8.542 12.118,13.777 2.698,4.271 5.084,8.722 6.63,13.53 1.425,4.428 2.597,8.945 3.679,13.472 0.513,2.15 0.76,4.411 0.784,6.625 0.148,13.483 0.198,26.965 0.28,40.449 10e-4,0.242 10e-4,0.483 10e-4,0.81 l 9.383,0 0,-1.452 c 0,-17.491 0.064,-34.982 -0.054,-52.473 C 55.001,58.864 54.347,55.4 53.863,51.955 53.234,47.478 51.997,43.147 50.435,38.909 47.965,32.207 44.752,25.9 40.204,20.355 38.112,17.806 35.959,15.27 33.567,13.01 28.916,8.618 23.55,5.28 17.568,2.946 12.298,0.888 6.865,-0.174 1.201,-0.001 0.842,0.01 0.482,0 0,0" /></g><g
           transform="translate(377.114,51.8352)"
           id="g30"><path
             id="path32"
             style="fill:#de1e26;fill-opacity:1;fill-rule:evenodd;stroke:none"
             d="m 0,0 c 0,14.661 0.052,29.323 -0.016,43.983 -0.06,12.831 6.952,20.106 19.872,20.367 5.164,0.104 10.333,0.291 15.491,0.123 C 55.984,63.804 71.722,46.891 69.992,26.692 68.92,14.169 61.853,5.161 51.131,-1.082 44.951,-4.68 44.928,-4.79 48.783,-10.855 56.375,-22.8 63.984,-34.734 71.5,-46.727 c 2.575,-4.109 2.27,-4.508 -2.652,-4.658 -16.422,-0.499 -16.387,-0.477 -25.067,13.368 -5.482,8.745 -11.123,17.39 -16.629,26.12 -6.699,10.626 -2.576,21.281 9.606,24.977 10.3,3.125 15.218,12.528 11.218,21.768 -2.437,5.628 -6.76,9.002 -12.993,9.512 -15.131,1.241 -15.139,1.214 -15.131,-13.796 0.013,-25.159 0.039,-50.319 0.049,-75.479 0.003,-6.508 -0.013,-6.508 -6.71,-6.538 -13.369,-0.06 -13.334,-0.06 -13.286,13.03 0.048,12.807 0.011,25.615 0.011,38.423 L 0,0 Z" /></g><g
           transform="translate(324.863,81.6951)"
           id="g34"><path
             id="path36"
             style="fill:#de1e26;fill-opacity:1;fill-rule:evenodd;stroke:none"
             d="m 0,0 c -0.517,0.075 -1.034,0.149 -1.552,0.225 -3.209,-10.513 -6.478,-21.008 -9.584,-31.551 -0.713,-2.419 1.278,-2.713 3.015,-2.721 4.973,-0.025 9.946,0.086 14.92,0.037 2.387,-0.024 3.423,0.755 2.656,3.258 C 6.314,-20.498 3.969,-9.991 0,0 m 34.815,-81.497 c -11.363,0.198 -9.709,-1.499 -13.361,10.243 -1.53,4.917 -2.85,9.902 -4.183,14.878 -0.706,2.628 -2.227,3.829 -5.01,3.799 -8.826,-0.094 -17.653,-0.137 -26.477,-0.027 -3.056,0.039 -3.907,-1.724 -4.611,-4.169 -1.933,-6.709 -4.151,-13.338 -5.973,-20.075 -0.886,-3.272 -2.546,-4.772 -5.965,-4.626 -3.652,0.156 -7.32,0.13 -10.973,-0.009 -3.566,-0.137 -4.336,1.24 -3.293,4.564 3.481,11.101 6.743,22.271 10.155,33.395 6.678,21.766 13.445,43.505 20.071,65.287 1.687,5.541 4.402,10.003 10.063,12.2 7.321,2.841 15.55,-0.572 18.176,-8.375 4.346,-12.912 8.178,-26 12.13,-39.044 6.264,-20.678 12.469,-41.374 18.653,-62.076 1.628,-5.453 1.133,-6.034 -4.409,-5.967 -1.665,0.02 -3.329,0.002 -4.993,0.002" /></g><g
           transform="translate(194.5026,82.3821)"
           id="g38"><path
             id="path40"
             style="fill:#de1e26;fill-opacity:1;fill-rule:evenodd;stroke:none"
             d="m 0,0 c -4.068,-10.504 -6.896,-21.379 -10.263,-32.073 -0.793,-2.519 0.898,-3.194 3.052,-3.199 4.653,-0.01 9.307,-0.005 13.959,-0.07 3.527,-0.049 4.19,1.467 3.231,4.724 C 7.355,-21.711 5.016,-12.721 2.497,-3.782 2.116,-2.427 2.104,-0.733 0,0 m 33.245,-82.344 c -9.385,0.176 -9.337,0.187 -11.798,10.111 -1.239,4.996 -2.743,9.926 -4.019,14.914 -0.733,2.861 -2.317,4.013 -5.358,3.944 -7.989,-0.181 -15.988,-0.237 -23.975,-0.019 -3.697,0.101 -5.44,-1.443 -6.385,-4.811 -1.841,-6.558 -4.073,-13.011 -5.787,-19.6 -0.89,-3.423 -2.797,-4.581 -6.067,-4.489 -2.988,0.084 -5.983,-0.102 -8.975,-0.062 -4.861,0.063 -5.358,0.678 -4.005,5.16 8.983,29.751 17.982,59.497 27.013,89.234 1.254,4.129 2.551,8.258 4.113,12.277 2.493,6.414 8.519,10.499 14.577,10.186 5.987,-0.309 10.866,-4.55 12.81,-11.52 8.435,-30.247 16.798,-60.514 25.185,-90.774 0.931,-3.359 1.683,-6.78 2.829,-10.064 1.181,-3.386 0.141,-4.684 -3.322,-4.506 -1.994,0.103 -3.996,0.019 -6.836,0.019" /></g><g
           transform="translate(269.0759,5.427)"
           id="g42"><path
             id="path44"
             style="fill:#de1e26;fill-opacity:1;fill-rule:evenodd;stroke:none"
             d="m 0,0 c 0.045,-3.871 -1.334,-5.564 -5.184,-5.418 -2.828,0.106 -5.664,0.003 -8.496,0.018 -6.251,0.031 -6.303,0.038 -6.212,6.528 0.257,18.309 0.589,36.616 0.838,54.925 0.136,9.991 0.066,19.985 0.292,29.972 0.083,3.606 -1.04,5.133 -4.849,4.94 -5.317,-0.268 -10.658,-0.024 -15.988,-0.099 -2.896,-0.041 -4.335,1.058 -4.155,4.133 0.224,3.818 0.222,7.649 0.369,11.472 0.106,2.775 1.346,4.036 4.382,4.043 20.146,0.039 40.292,0.17 60.436,0.45 4.228,0.059 5.63,-1.648 5.297,-5.65 C 26.44,101.835 26.427,98.327 26.425,94.832 26.423,92.327 25.39,91.256 22.827,91.265 17.012,91.285 11.193,90.996 5.381,91.087 1.953,91.142 0.8,89.863 0.838,86.406 0.994,71.927 -0.163,14.32 0,0" /></g><g
           transform="translate(457.5602,58.5589)"
           id="g46"><path
             id="path48"
             style="fill:#de1e26;fill-opacity:1;fill-rule:evenodd;stroke:none"
             d="m 0,0 c 0,17.636 0.071,35.272 -0.058,52.908 -0.026,3.689 1.311,5.158 4.959,4.985 3.487,-0.166 6.998,-0.194 10.48,0.025 4.259,0.268 4.917,-2.09 4.909,-5.595 -0.04,-18.97 0.061,-37.94 0.066,-56.909 0.005,-15.974 -0.158,-31.949 -0.012,-47.921 0.039,-4.313 -1.37,-6.144 -5.778,-5.67 -2.465,0.265 -4.987,0.023 -7.483,0.017 -7.552,-0.019 -7.461,-0.017 -7.433,7.776 0.062,16.794 0.02,33.589 0.02,50.383 0.109,0 0.22,0 0.33,0.001" /></g><g
           transform="translate(518.1472,99.1487)"
           id="g50"><path
             id="path52"
             style="fill:#de1e26;fill-opacity:1;fill-rule:evenodd;stroke:none"
             d="m 0,0 c 0.067,6.563 -4.283,11.106 -10.74,11.212 -6.169,0.101 -11.154,-4.848 -11.091,-11.013 0.06,-5.846 5.423,-11.093 11.325,-11.079 C -4.402,-10.865 -0.066,-6.375 0,0 m 0.211,-34.393 c 0.037,6.405 -4.516,11.161 -10.719,11.194 -5.906,0.032 -11.257,-5.204 -11.244,-11.005 0.013,-6.095 5.278,-11.089 11.703,-11.101 6.082,-0.011 10.223,4.393 10.26,10.912 m -8.18,17.595 c 12.928,-7.554 16.496,-13.58 13.69,-22.604 -2.137,-6.87 -9.742,-12.151 -16.885,-11.726 -8.082,0.481 -15.086,6.851 -16.471,14.979 -1.313,7.71 3.837,14.37 15.26,19.04 -10.784,4.274 -18.313,10.584 -14.113,22.965 2.548,7.511 10.415,11.664 17.918,10.678 C -1.305,15.578 4.658,10.07 5.842,3.222 7.392,-5.747 3.582,-11.347 -7.969,-16.798" /></g><g
           transform="translate(517.652,12.2488)"
           id="g54"><path
             id="path56"
             style="fill:#de1e26;fill-opacity:1;fill-rule:evenodd;stroke:none"
             d="M 0,0 C 0.986,2.343 0.351,4.513 0.44,6.624 0.529,8.766 1.25,10.203 3.55,10.311 5.901,10.422 6.79,9.053 6.782,6.867 6.763,1.878 6.914,-3.12 6.702,-8.101 6.561,-11.43 3.548,-12.476 0.513,-10.042 c -2.969,2.381 -5.514,5.294 -8.247,7.971 -1.546,1.514 -2.996,3.146 -4.665,4.509 -2.524,2.058 -5.313,2.472 -7.373,-0.465 -2.024,-2.884 -0.738,-5.351 1.912,-7.222 0.402,-0.285 0.876,-0.49 1.342,-0.658 1.997,-0.716 2.428,-2.276 1.826,-4.013 -0.759,-2.184 -2.655,-1.686 -4.223,-1.198 -4.35,1.355 -7.086,4.312 -7.838,8.83 -0.777,4.667 1.393,8.135 5.176,10.515 4.043,2.545 8.311,2.37 12.181,-0.38 C -7.25,6.323 -5.529,4.21 -3.565,2.42 -2.603,1.543 -1.853,0.349 0,0" /></g><g
           transform="translate(518.8492,35.136)"
           id="g58"><path
             id="path60"
             style="fill:#de1e26;fill-opacity:1;fill-rule:evenodd;stroke:none"
             d="m 0,0 c -0.008,3.48 -2.442,5.908 -5.917,5.904 -3.309,-0.004 -5.998,-2.753 -5.871,-6 0.127,-3.235 2.914,-6.017 6.049,-6.035 C -2.459,-6.151 0.008,-3.516 0,0 m -5.88,-11.24 c -2.328,-0.208 -4.675,0.638 -6.824,1.974 -4.243,2.635 -8.42,5.379 -12.634,8.061 -1.452,0.925 -2.733,1.945 -2.743,3.876 -0.004,0.987 -0.187,2.098 0.66,2.793 0.936,0.768 1.88,0.136 2.756,-0.346 0.438,-0.24 0.927,-0.432 1.286,-0.763 3.495,-3.201 5.598,-3.104 7.753,1.817 2.109,4.815 8.858,6.454 13.966,4.494 C 3.644,8.631 6.937,3.083 5.859,-2.002 4.699,-7.481 0.062,-11.22 -5.88,-11.24" /></g></g></g></g></svg>