<?xml version="1.0" encoding="utf-8"?>
<!-- Generator: Adobe Illustrator 19.0.0, SVG Export Plug-In . SVG Version: 6.00 Build 0)  -->
<svg version="1.1" baseProfile="tiny" id="Calque_1"
	 xmlns="http://www.w3.org/2000/svg" xmlns:xlink="http://www.w3.org/1999/xlink" x="0px" y="0px" viewBox="0 0 231.8 289.4"
	 xml:space="preserve">
<g>
	<g id="XMLID_1_">
		<g id="XMLID_2_">
			<path id="XMLID_193_" fill="#FAAF40" d="M163.3,289.4h-12c-2.8,0-5-2.3-5-5v-12.9c0-2.8,2.3-5,5-5h12c2.8,0,5,2.3,5,5v12.9
				C168.3,287.1,166.1,289.4,163.3,289.4z"/>
		</g>
		<g id="XMLID_3_">
			<path id="XMLID_4_" fill="#A91C41" d="M28.3,287.5c-5,0-9.1-4-9.3-9l-2.3-27.4V13.3C16.8,8.2,20.9,4,26,4h181.1
				c5.1,0,9.3,4.2,9.3,9.3v238.2l-2.3,27.1c-0.1,5-4.2,9-9.3,9H28.3z"/>
			<path id="XMLID_5_" fill="#BFA886" d="M204.8,279.7H28.3c-2.5,0-4.6-2.1-4.6-4.6l-2.3-27.3V10.1c0-2.5,2.1-4.6,4.6-4.6h181.1
				c2.5,0,4.6,2.1,4.6,4.6v238l-2.3,27C209.5,277.6,207.4,279.7,204.8,279.7z"/>
		</g>
		<g id="XMLID_6_">
			<rect id="XMLID_7_" x="21.4" y="247" fill="#FFFFFF" width="190.4" height="1.4"/>
		</g>
		<g id="XMLID_8_">
			<path id="XMLID_9_" fill="#FFFFFF" d="M143,245.2H90.2c-1.7,0-3-1.4-3-3v-88.9c0-1.7,1.4-3,3-3H143c1.7,0,3,1.4,3,3v88.9
				C146,243.8,144.7,245.2,143,245.2z M90.2,151.6c-0.9,0-1.6,0.7-1.6,1.6v88.9c0,0.9,0.7,1.6,1.6,1.6H143c0.9,0,1.6-0.7,1.6-1.6
				v-88.9c0-0.9-0.7-1.6-1.6-1.6H90.2z"/>
		</g>
		<g id="XMLID_12_">
			<rect id="XMLID_13_" x="118.5" y="150.9" fill="#FFFFFF" width="1.4" height="54.7"/>
		</g>
		<g id="XMLID_14_">
			<rect id="XMLID_15_" x="113.9" y="150.9" fill="#FFFFFF" width="1.4" height="54.7"/>
		</g>
		<g id="XMLID_16_">
			<path id="XMLID_17_" fill="#FFFFFF" d="M78.2,46.6c-0.4,0-0.7-0.3-0.7-0.7v-40c0-0.4,0.3-0.7,0.7-0.7c0.4,0,0.7,0.3,0.7,0.7v40
				C78.9,46.3,78.6,46.6,78.2,46.6z"/>
		</g>
		<g id="XMLID_18_">
			<path id="XMLID_19_" fill="#FFFFFF" d="M84.8,46.6c-0.4,0-0.7-0.3-0.7-0.7v-40c0-0.4,0.3-0.7,0.7-0.7s0.7,0.3,0.7,0.7v40
				C85.5,46.3,85.2,46.6,84.8,46.6z"/>
		</g>
		<g id="XMLID_20_">
			<path id="XMLID_21_" fill="#FFFFFF" d="M91.4,46.6c-0.4,0-0.7-0.3-0.7-0.7v-40c0-0.4,0.3-0.7,0.7-0.7s0.7,0.3,0.7,0.7v40
				C92.1,46.3,91.7,46.6,91.4,46.6z"/>
		</g>
		<g id="XMLID_22_">
			<path id="XMLID_23_" fill="#FFFFFF" d="M97.9,46.6c-0.4,0-0.7-0.3-0.7-0.7v-40c0-0.4,0.3-0.7,0.7-0.7c0.4,0,0.7,0.3,0.7,0.7v40
				C98.6,46.3,98.3,46.6,97.9,46.6z"/>
		</g>
		<g id="XMLID_24_">
			<path id="XMLID_25_" fill="#FFFFFF" d="M104.5,46.6c-0.4,0-0.7-0.3-0.7-0.7v-40c0-0.4,0.3-0.7,0.7-0.7s0.7,0.3,0.7,0.7v40
				C105.2,46.3,104.9,46.6,104.5,46.6z"/>
		</g>
		<g id="XMLID_26_">
			<path id="XMLID_27_" fill="#FFFFFF" d="M111.1,46.6c-0.4,0-0.7-0.3-0.7-0.7v-40c0-0.4,0.3-0.7,0.7-0.7c0.4,0,0.7,0.3,0.7,0.7v40
				C111.8,46.3,111.5,46.6,111.1,46.6z"/>
		</g>
		<g id="XMLID_28_">
			<path id="XMLID_29_" fill="#FFFFFF" d="M117.7,46.6c-0.4,0-0.7-0.3-0.7-0.7v-40c0-0.4,0.3-0.7,0.7-0.7c0.4,0,0.7,0.3,0.7,0.7v40
				C118.4,46.3,118,46.6,117.7,46.6z"/>
		</g>
		<g id="XMLID_30_">
			<path id="XMLID_31_" fill="#FFFFFF" d="M124.2,46.6c-0.4,0-0.7-0.3-0.7-0.7v-40c0-0.4,0.3-0.7,0.7-0.7c0.4,0,0.7,0.3,0.7,0.7v40
				C124.9,46.3,124.6,46.6,124.2,46.6z"/>
		</g>
		<g id="XMLID_32_">
			<path id="XMLID_33_" fill="#FFFFFF" d="M130.8,46.6c-0.4,0-0.7-0.3-0.7-0.7v-40c0-0.4,0.3-0.7,0.7-0.7s0.7,0.3,0.7,0.7v40
				C131.5,46.3,131.2,46.6,130.8,46.6z"/>
		</g>
		<g id="XMLID_34_">
			<path id="XMLID_35_" fill="#FFFFFF" d="M137.4,46.6c-0.4,0-0.7-0.3-0.7-0.7v-40c0-0.4,0.3-0.7,0.7-0.7c0.4,0,0.7,0.3,0.7,0.7v40
				C138.1,46.3,137.8,46.6,137.4,46.6z"/>
		</g>
		<g id="XMLID_36_">
			<path id="XMLID_37_" fill="#FFFFFF" d="M144,46.6c-0.4,0-0.7-0.3-0.7-0.7v-40c0-0.4,0.3-0.7,0.7-0.7s0.7,0.3,0.7,0.7v40
				C144.7,46.3,144.4,46.6,144,46.6z"/>
		</g>
		<g id="XMLID_38_">
			<path id="XMLID_39_" fill="#FFFFFF" d="M150.5,46.6c-0.4,0-0.7-0.3-0.7-0.7v-40c0-0.4,0.3-0.7,0.7-0.7s0.7,0.3,0.7,0.7v40
				C151.2,46.3,150.9,46.6,150.5,46.6z"/>
		</g>
		<g id="XMLID_40_">
			<path id="XMLID_41_" fill="#FFFFFF" d="M157.1,46.6c-0.4,0-0.7-0.3-0.7-0.7v-40c0-0.4,0.3-0.7,0.7-0.7c0.4,0,0.7,0.3,0.7,0.7v40
				C157.8,46.3,157.5,46.6,157.1,46.6z"/>
		</g>
		<g id="XMLID_42_">
			<rect id="XMLID_43_" x="19.4" y="42.3" fill="#FFFFFF" width="45.4" height="1.4"/>
		</g>
		<g id="XMLID_44_">
			<rect id="XMLID_45_" x="171.8" y="42.3" fill="#FFFFFF" width="45.4" height="1.4"/>
		</g>
		<g id="XMLID_46_">
			<path id="XMLID_148_" fill="#A91C41" d="M138.5,223.6H94.7c-2.8,0-5-2.3-5-5v-17.8c0-2.8,2.3-5,5-5h43.7c2.8,0,5,2.3,5,5v17.8
				C143.5,221.4,141.2,223.6,138.5,223.6z"/>
		</g>
		<g id="XMLID_47_">
			<rect id="XMLID_146_" x="228.3" y="139.2" fill="#231F20" width="3.5" height="36"/>
		</g>
		<g id="XMLID_48_">
			<rect id="XMLID_144_" x="228.3" y="77.8" fill="#231F20" width="3.5" height="18.4"/>
		</g>
		<g id="XMLID_49_">
			<rect id="XMLID_142_" x="228.3" y="48" fill="#231F20" width="3.5" height="18.4"/>
		</g>
		<g id="XMLID_50_">
			<rect id="XMLID_51_" y="53.5" fill="#231F20" width="3.6" height="36"/>
		</g>
		<g id="XMLID_52_">
			<rect id="XMLID_53_" y="132.4" fill="#231F20" width="3.6" height="18.4"/>
		</g>
		<g id="XMLID_54_">
			<rect id="XMLID_55_" y="162.2" fill="#231F20" width="3.6" height="18.4"/>
		</g>
		<g id="XMLID_56_">
			<path id="XMLID_134_" fill="#A91C41" d="M172.6,239.4h-12c-2.8,0-5-2.3-5-5v-12.9c0-2.8,2.3-5,5-5h12c2.8,0,5,2.3,5,5v12.9
				C177.6,237.1,175.3,239.4,172.6,239.4z"/>
		</g>
		<g id="XMLID_57_">
			<path id="XMLID_132_" fill="#A91C41" d="M73.2,239.4h-12c-2.8,0-5-2.3-5-5v-12.9c0-2.8,2.3-5,5-5h12c2.8,0,5,2.3,5,5v12.9
				C78.2,237.1,76,239.4,73.2,239.4z"/>
		</g>
		<g id="XMLID_58_">
			<path id="XMLID_59_" fill="#A91C41" d="M201.4,268.7H30.3c-1.3,0-2.3-1-2.3-2.3l-0.9-9c0-1.3,1-2.3,2.3-2.3h172.9
				c1.3,0,2.3,1,2.3,2.3l-0.9,9C203.8,267.7,202.7,268.7,201.4,268.7z"/>
		</g>
		<g id="XMLID_60_">
			<path id="XMLID_61_" fill="#A91C41" d="M192.2,118.9H39.6c-1.3,0-2.3-1-2.3-2.3v-33l-0.9-4.6c0-1.3,1-2.3,2.3-2.3h154.4
				c1.3,0,2.3,1,2.3,2.3l-0.9,4v33.7C194.5,117.9,193.4,118.9,192.2,118.9z"/>
		</g>
		<g id="XMLID_62_">
			<polygon id="XMLID_63_" fill="#FFFFFF" points="172.3,71.6 64.1,71.6 64.1,5.4 65.5,5.4 65.5,70.2 171,70.2 171,5.4 172.3,5.4 
							"/>
		</g>
		<g id="XMLID_64_">
			<path id="XMLID_65_" fill="#A91C41" d="M8.5,30.9h19.2c2.8,0,5,2.3,5,5v156.8c0,2.8-2.3,5-5,5H8.5c-2.7,0-5-2.2-5-5V35.9
				C3.5,33.2,5.7,30.9,8.5,30.9z"/>
		</g>
		<g id="XMLID_66_">
			<path id="XMLID_122_" fill="#A91C41" d="M204.1,197.7h19.2c2.8,0,5-2.3,5-5V35.9c0-2.8-2.3-5-5-5h-19.2c-2.8,0-5,2.3-5,5v156.8
				C199.1,195.4,201.4,197.7,204.1,197.7z"/>
		</g>
		<g id="XMLID_67_">
			<path id="XMLID_68_" fill="#FFFFFF" d="M80.5,245.2H35.4c-1.7,0-3-1.4-3-3v-28.7c0-1.7,1.4-3,3-3h45.1c1.7,0,3,1.4,3,3v28.7
				C83.5,243.8,82.2,245.2,80.5,245.2z M35.4,211.8c-0.9,0-1.6,0.7-1.6,1.6v28.7c0,0.9,0.7,1.6,1.6,1.6h45.1c0.9,0,1.6-0.7,1.6-1.6
				v-28.7c0-0.9-0.7-1.6-1.6-1.6H35.4z"/>
		</g>
		<g id="XMLID_71_">
			<path id="XMLID_72_" fill="#FFFFFF" d="M198.3,245.2h-45.1c-1.7,0-3-1.4-3-3v-28.7c0-1.7,1.4-3,3-3h45.1c1.7,0,3,1.4,3,3v28.7
				C201.4,243.8,200,245.2,198.3,245.2z M153.3,211.8c-0.9,0-1.6,0.7-1.6,1.6v28.7c0,0.9,0.7,1.6,1.6,1.6h45.1
				c0.9,0,1.6-0.7,1.6-1.6v-28.7c0-0.9-0.7-1.6-1.6-1.6H153.3z"/>
		</g>
		<g id="XMLID_75_">
			<rect id="XMLID_76_" x="32.7" y="128.2" fill="#FFFFFF" width="166.5" height="1.4"/>
		</g>
		<path id="XMLID_107_" fill="#59011D" d="M76.2,229.8h-18c-1.1,0-2,0.9-2,2v2.2c0,1.1,0.9,2,2,2h18c1.1,0,2-0.9,2-2v-2.2
			C78.2,230.7,77.3,229.8,76.2,229.8z"/>
		<path id="XMLID_106_" fill="#59011D" d="M141.5,219.6H91.7c-1.1,0-2-0.9-2-2v-15.9c0-1.1,0.9-2,2-2h49.7c1.1,0,2,0.9,2,2v15.9
			C143.5,218.7,142.6,219.6,141.5,219.6z"/>
		<path id="XMLID_104_" fill="#59011D" d="M192.2,118.9H39.6c-1.3,0-2.3-1-2.3-2.3l0,0c0-1.3,1-2.3,2.3-2.3h152.6
			c1.3,0,2.3,1,2.3,2.3l0,0C194.5,117.9,193.4,118.9,192.2,118.9z"/>
		<path id="XMLID_103_" fill="#59011D" d="M193.1,81.2H38.7c-1.3,0-2.3-1-2.3-2.3l0,0c0-1.3,1-2.3,2.3-2.3h154.4
			c1.3,0,2.3,1,2.3,2.3l0,0C195.4,80.2,194.4,81.2,193.1,81.2z"/>
		<g id="XMLID_99_">
			<polygon id="XMLID_97_" fill="#BFA886" points="67.9,256.7 73,256.7 73,258.2 69.7,258.2 69.7,260 73,260 73,261.6 69.7,261.6 
				69.7,264.9 67.9,264.9 			"/>
			<path id="XMLID_121_" fill="#BFA886" d="M78.8,264.9h-1.7v-1.3h-3.4l-1,1.3h-2l6.7-8.2h1.4L78.8,264.9L78.8,264.9z M77.1,262.1
				v-2.4l-2.1,2.4H77.1z"/>
			<polygon id="XMLID_94_" fill="#BFA886" points="79.5,256.7 81.5,256.7 84.3,262.2 87.2,256.7 89.2,256.7 89.2,264.9 87.4,264.9 
				87.4,260.7 85.2,264.9 83.4,264.9 81.3,260.7 81.3,264.9 79.5,264.9 			"/>
			<polygon id="XMLID_93_" fill="#BFA886" points="122.6,256.7 124.6,256.7 127.5,262.2 130.3,256.7 132.4,256.7 132.4,264.9 
				130.6,264.9 130.6,260.7 128.4,264.9 126.6,264.9 124.4,260.7 124.4,264.9 122.6,264.9 			"/>
			<rect id="XMLID_92_" x="89.8" y="256.7" fill="#BFA886" width="1.9" height="8.2"/>
			<polygon id="XMLID_91_" fill="#BFA886" points="92.2,256.7 94,256.7 94,263.4 96.4,263.4 96.4,264.9 92.2,264.9 			"/>
			<polygon id="XMLID_90_" fill="#BFA886" points="94.4,256.7 96.4,256.7 98.4,260 100.3,256.7 102.3,256.7 99.2,261.9 99.2,264.9 
				97.4,264.9 97.4,261.9 			"/>
			<path id="XMLID_89_" fill="#BFA886" d="M112.4,262.8"/>
			<path id="XMLID_88_" fill="#BFA886" d="M112.4,258.9c-0.8-1.3-2.4-2.2-4.3-2.2c-2.7,0-4.9,1.9-4.9,4.2c0,2.3,2.2,4.2,4.9,4.2
				c1.9,0,3.5-0.9,4.3-2.3l-2.2,0c-0.5,0.4-1.3,0.7-2.1,0.7c-1.7,0-3.1-1.2-3.1-2.6s1.4-2.6,3.1-2.6c0.8,0,1.5,0.3,2,0.7
				L112.4,258.9z"/>
			<path id="XMLID_111_" fill="#BFA886" d="M117.2,265.1c-2.7,0-4.9-1.9-4.9-4.2c0-2.3,2.2-4.2,4.9-4.2c2.7,0,4.9,1.9,4.9,4.2
				C122.1,263.2,119.9,265.1,117.2,265.1z M120.3,260.9c0-1.5-1.4-2.7-3.1-2.7c-1.7,0-3.1,1.2-3.1,2.7c0,1.5,1.4,2.7,3.1,2.7
				C118.9,263.5,120.3,262.3,120.3,260.9z"/>
			<path id="XMLID_108_" fill="#BFA886" d="M136.2,256.7c1.6,0.1,2.9,1.3,2.9,2.7c0,1.4-1.3,2.6-2.9,2.7l-1.4,0v2.8H133v-8.2h1.8
				L136.2,256.7z M134.8,258.3v2.2l1.4,0c0.6-0.1,1.1-0.6,1.1-1.1c0-0.6-0.5-1-1.1-1.1L134.8,258.3z"/>
			<path id="XMLID_105_" fill="#BFA886" d="M158.8,265h-1.8v-8.2l2.5,0l1.4,0c1.6,0.1,2.9,1.3,2.9,2.7c0,1.2-0.9,2.1-2,2.5l2.1,3
				h-1.9l-2.9-4.3h-0.2L158.8,265L158.8,265z M160.9,260.5c0.6-0.1,1.1-0.6,1.1-1.1c0-0.6-0.5-1-1.1-1.1h-2.1v2.2L160.9,260.5z"/>
			<path id="XMLID_81_" fill="#BFA886" d="M141.4,261.4l0,1.2c0.1,0.5,0.7,0.9,1.3,0.9c0.6,0,1.2-0.4,1.3-0.9l0-1.2l0-4.7h1.8v4.7
				l0,1.2c-0.1,1.4-1.5,2.5-3.1,2.5c-1.7,0-3-1.1-3.1-2.5l0-1.2l0-4.7h1.8L141.4,261.4z"/>
			<polygon id="XMLID_80_" fill="#BFA886" points="147.7,265 149.5,265 149.5,258.3 151.2,258.3 151.2,256.7 146.1,256.7 
				146.1,258.3 147.7,258.3 			"/>
			<polygon id="XMLID_79_" fill="#BFA886" points="156.6,265 151.6,265 151.6,256.7 156.6,256.7 156.6,258.3 153.4,258.3 
				153.4,260.2 156.6,260.2 156.6,261.7 153.4,261.7 153.4,263.5 156.6,263.5 			"/>
			<path id="XMLID_78_" fill="#BFA886" d="M158.8,260.7"/>
			<path id="XMLID_98_" fill="#BFA886" d="M28.7,266.6"/>
			<path id="XMLID_101_" fill="#BFA886" d="M28.1,267c-0.1-0.2-0.1-0.4-0.1-0.6l0-0.2h142.6v0.8L28.1,267z"/>
			<path id="XMLID_100_" fill="#BFA886" d="M203.8,267c0-0.2,0-0.4,0-0.6l0-0.2h-12.6v0.8L203.8,267z"/>
		</g>
		<g id="XMLID_77_">
			<path id="path456_1_" fill="#BFA886" d="M171.9,264.8h0.8l1.1,1.8l0-1.8h0.8v2.6h-0.8l-1.1-1.8v1.8h-0.8L171.9,264.8L171.9,264.8
				z"/>
			<path id="path458_1_" fill="#BFA886" d="M178.9,265.1h0.8v0.4h0.4v0.3h-0.4l0,1.7h-0.8l0-1.7h-0.4v-0.3l0.4,0L178.9,265.1
				L178.9,265.1z"/>
			<path id="path460_1_" fill="#BFA886" d="M175,265.7h0.8v1.7H175V265.7z"/>
			<path id="path462_1_" fill="#BFA886" d="M175,264.8h0.8v0.5H175V264.8z"/>
			<path id="path464_1_" fill="#BFA886" d="M188.4,265.6c-0.6,0-1.1,0.4-1.1,1c0,0.5,0.5,1,1.1,1c0.6,0,1.1-0.4,1.1-1
				C189.5,266,189,265.6,188.4,265.6 M188.7,266.5c0,0,0,0.3,0,0.4c0,0.3-0.2,0.4-0.3,0.4c-0.2,0-0.3-0.1-0.3-0.4c0-0.1,0-0.4,0-0.4
				s0-0.3,0-0.4c0-0.3,0.2-0.4,0.3-0.4c0.2,0,0.3,0.1,0.3,0.4C188.7,266.3,188.7,266.5,188.7,266.5L188.7,266.5L188.7,266.5z"/>
			<path id="path466_1_" fill="#BFA886" d="M186.3,266.5v-0.3c0-0.3-0.2-0.3-0.3-0.3c-0.1,0-0.3,0.1-0.3,0.3v0.3v0.3
				c0,0.3,0.2,0.3,0.3,0.3c0.1,0,0.3-0.1,0.3-0.3L186.3,266.5L186.3,266.5z M186.3,264.8h0.8v2.6h-0.8c0,0,0-0.1,0-0.1
				c-0.3,0.2-0.6,0.2-0.9,0.1c-0.1,0-0.5-0.3-0.5-0.9c0-0.5,0.4-1,1-0.9c0.2,0,0.3,0.1,0.4,0.2L186.3,264.8L186.3,264.8z"/>
			<path id="path468_1_" fill="#BFA886" d="M177.6,265.6c0.3,0,0.9,0.2,0.9,0.9c0,0.1,0,0.9,0,0.9h-0.8v-1.1c0-0.2-0.1-0.3-0.3-0.3
				c-0.2,0-0.4,0.2-0.4,0.3c0,0.1,0,1.1,0,1.1h-0.8l0-1.7l0.8,0c0,0,0,0.1,0,0.2C177.1,265.7,177.3,265.6,177.6,265.6"/>
			<path id="path470_1_" fill="#BFA886" d="M183.8,265.6c0.3,0,0.9,0.2,0.9,0.9c0,0.1,0,0.9,0,0.9h-0.8v-1.1c0-0.2-0.1-0.3-0.3-0.3
				c-0.2,0-0.4,0.2-0.4,0.3c0,0.1,0,1.1,0,1.1h-0.8v-1.7l0.8,0c0,0,0,0.1,0,0.2C183.3,265.7,183.5,265.6,183.8,265.6"/>
			<path id="path472_1_" fill="#BFA886" d="M181.4,266.8c0,0,0,0,0,0.1c0,0.3-0.2,0.4-0.3,0.4c-0.1,0-0.3-0.1-0.3-0.4
				c0-0.1,0-0.4,0-0.4s1.4,0,1.4,0c0-0.5-0.5-1-1.1-1c-0.6,0-1.1,0.4-1.1,1c0,0.5,0.5,1,1.1,1c0.5,0,1-0.3,1.1-0.7L181.4,266.8
				L181.4,266.8z M180.7,266.3c0-0.2,0-0.3,0.1-0.3c0.1-0.1,0.2-0.2,0.3-0.2c0.1,0,0.2,0.1,0.3,0.2c0,0.1,0.1,0.2,0.1,0.3H180.7z"/>
			<path id="path474_1_" fill="#BFA886" d="M189.7,265.1c0.1,0,0.1,0,0.1-0.1c0-0.1-0.1-0.1-0.1-0.1h-0.1v0.2H189.7z M189.6,265.4
				L189.6,265.4l-0.1-0.6h0.2c0.1,0,0.2,0.1,0.2,0.2c0,0.1-0.1,0.2-0.1,0.2l0.2,0.3h-0.1l-0.2-0.3h-0.1V265.4L189.6,265.4z"/>
			<path id="path476_1_" fill="#BFA886" d="M189.7,265.6c0.2,0,0.4-0.2,0.4-0.4c0-0.2-0.2-0.4-0.4-0.4c-0.2,0-0.4,0.2-0.4,0.4
				C189.3,265.4,189.5,265.6,189.7,265.6 M189.2,265.1c0-0.3,0.2-0.5,0.5-0.5c0.3,0,0.5,0.2,0.5,0.5c0,0.3-0.2,0.5-0.5,0.5
				C189.4,265.7,189.2,265.4,189.2,265.1"/>
		</g>
		<g id="XMLID_128_">
			<circle id="XMLID_130_" fill="#BFA886" cx="43.5" cy="257.8" r="1.1"/>
			<path id="XMLID_131_" fill="#BFA886" d="M41.9,257.5c0,0,0-0.1,0-0.2c0-0.4-0.3-0.7-0.7-0.7c-0.3,0-0.6,0.2-0.7,0.5l-2.2,6.8
				c0,0.1,0,0.2,0,0.2c0,0.4,0.3,0.7,0.7,0.7c0.3,0,0.6-0.2,0.7-0.5L41.9,257.5z"/>
			<circle id="XMLID_133_" fill="#BFA886" cx="42.6" cy="260.3" r="1.1"/>
			<circle id="XMLID_135_" fill="#BFA886" cx="48.3" cy="257.8" r="1.1"/>
			<path id="XMLID_136_" fill="#BFA886" d="M46.7,257.5c0,0,0-0.1,0-0.2c0-0.4-0.3-0.7-0.7-0.7c-0.3,0-0.6,0.2-0.7,0.5l-2.2,6.8
				c0,0.1,0,0.2,0,0.2c0,0.4,0.3,0.7,0.7,0.7c0.3,0,0.6-0.2,0.7-0.5L46.7,257.5z"/>
			<circle id="XMLID_137_" fill="#BFA886" cx="47.4" cy="260.3" r="1.1"/>
		</g>
	</g>
	<g>
		<polygon fill="#3C3C3B" points="32.7,151.9 32.7,72.1 35.1,72.1 35.1,69.6 32.7,69.6 32.7,66.2 34.9,66.2 34.9,63.8 32.7,63.8 
			32.7,60.5 34.9,60.5 34.9,58.1 32.7,58.1 32.7,55.3 34.9,55.3 34.9,52.9 32.7,52.9 32.7,49.9 35.1,49.9 35.1,47.5 32.7,47.5 
			32.7,3.9 199.1,3.9 199.1,47.5 196,47.5 196,49.9 199.1,49.9 199.1,52.9 196,52.9 196,55.3 199.1,55.3 199.1,58.1 196,58.1 
			196,60.5 199.1,60.5 199.1,63.8 196,63.8 196,66.2 199.1,66.2 199.1,69.6 196,69.6 196,72.1 199.1,72.1 199.1,151.9 		"/>
		<rect x="35.1" y="47.5" width="160.9" height="2.4"/>
		<rect x="35.1" y="69.6" width="160.9" height="2.4"/>
		<rect x="34.9" y="52.9" width="92.6" height="2.4"/>
		<rect x="34.9" y="58.1" width="92.6" height="2.4"/>
		<rect x="34.9" y="63.8" width="92.6" height="2.4"/>
		<rect x="127.5" y="49.9" width="1.2" height="19.8"/>
		<rect x="183.8" y="49.9" width="1.2" height="19.8"/>
		<rect x="185" y="52.9" width="10.9" height="2.4"/>
		<rect x="185" y="58.1" width="10.9" height="2.4"/>
		<rect x="185" y="63.8" width="10.9" height="2.4"/>
		<polygon fill="#333333" points="182.9,0 108.2,0 106.9,3.9 185,3.9 		"/>
		<g id="wSyApY.tif_1_">
			<g>
				<path fill="#FFFFFF" d="M140.3,63.2c-0.1,0-0.2,0-0.3,0c-0.5,0-1.1,0-1.6,0c-0.1,0-0.2,0-0.2-0.1c-0.9-1.4-1.8-2.9-2.7-4.3
					c0,0-0.1-0.1-0.1-0.1c0,1.5,0,3,0,4.6c-0.7,0-1.3,0-2,0c0-2.2,0-4.4,0-6.6c0,0,0.1,0,0.1,0c0.6,0,1.2,0,1.8,0
					c0.1,0,0.2,0,0.2,0.1c0.9,1.4,1.8,2.9,2.7,4.3c0,0,0.1,0.1,0.1,0.1c0-1.5,0-3,0-4.5c0.7,0,1.3,0,2,0
					C140.3,58.8,140.3,61,140.3,63.2z"/>
				<path fill="#FFFFFF" d="M172.8,56.6c0,2.2,0,4.4,0,6.6c-0.6,0-1.3,0-1.9,0c0-0.1,0-0.1,0-0.2c-1.3,0.6-2.4,0.5-3.3-0.7
					c-0.6-0.8-0.5-1.9,0.1-2.7c0.4-0.5,0.9-0.8,1.5-0.9c0.6-0.1,1.2,0,1.7,0.4c0-0.8,0-1.6,0-2.4C171.5,56.6,172.1,56.6,172.8,56.6z
					 M169.3,60.9L169.3,60.9c0,0.3,0,0.6,0,0.9c0,0.4,0.3,0.7,0.8,0.8c0.4,0,0.8-0.3,0.8-0.7c0-0.6,0-1.2,0-1.8c0-0.1,0-0.1,0-0.2
					c-0.1-0.4-0.4-0.6-0.9-0.6c-0.4,0-0.7,0.3-0.7,0.7C169.3,60.3,169.3,60.6,169.3,60.9z"/>
				<path fill="#FFFFFF" d="M150.3,63.2c-0.6,0-1.3,0-1.9,0c0-0.1,0-0.1,0-0.2c0-0.9,0-1.7,0-2.6c0-0.5-0.3-0.8-0.7-0.9
					c-0.4-0.1-0.9,0.1-1.1,0.5c-0.1,0.1-0.1,0.3-0.1,0.4c0,0.9,0,1.7,0,2.6c0,0.1,0,0.1,0,0.2c-0.7,0-1.3,0-1.9,0c0-1.5,0-2.9,0-4.4
					c0.6,0,1.3,0,1.9,0c0,0.1,0,0.3,0,0.4c0.1-0.1,0.1-0.1,0.1-0.1c0.9-0.8,2.3-0.7,3.1,0.1c0.4,0.4,0.5,0.9,0.6,1.4
					C150.4,61.5,150.4,62.3,150.3,63.2C150.4,63.1,150.4,63.1,150.3,63.2z"/>
				<path fill="#FFFFFF" d="M162.7,63.2c-0.7,0-1.3,0-1.9,0c0-1.5,0-2.9,0-4.4c0.6,0,1.3,0,1.9,0c0,0.1,0,0.3,0,0.5
					c0.1-0.1,0.1-0.1,0.2-0.1c1-0.8,2.5-0.7,3.2,0.3c0.3,0.3,0.4,0.7,0.4,1.1c0,0.9,0,1.8,0,2.6c0,0,0,0,0,0.1c-0.6,0-1.3,0-1.9,0
					c0-0.1,0-0.1,0-0.2c0-0.9,0-1.7,0-2.6c0-0.5-0.2-0.8-0.6-0.9c-0.4-0.1-0.8,0-1.1,0.3c-0.1,0.2-0.2,0.3-0.2,0.5
					c0,0.9,0,1.7,0,2.6C162.7,63,162.7,63.1,162.7,63.2z"/>
				<path fill="#FFFFFF" d="M176.4,58.5c0.8,0,1.5,0.2,2.1,0.8c1,0.9,1,2.4,0.1,3.3c-1.2,1.1-3.2,1.1-4.3,0c-1.1-1-0.9-2.6,0.2-3.5
					C175,58.7,175.6,58.5,176.4,58.5z M177.1,60.9C177.1,60.9,177.1,60.9,177.1,60.9c0-0.3,0-0.6,0-0.9c0-0.1,0-0.1,0-0.2
					c0-0.3-0.2-0.6-0.5-0.8c-0.5-0.2-1,0.1-1.1,0.7c0,0.8,0,1.5,0,2.3c0,0,0,0.1,0,0.1c0.1,0.4,0.4,0.7,0.8,0.7
					c0.5,0,0.8-0.3,0.8-0.8C177.1,61.7,177.1,61.3,177.1,60.9z"/>
				<path fill="#FFFFFF" d="M160.1,61c-1.2,0-2.5,0-3.7,0c0,0.4,0,0.7,0,1.1c0,0.1,0,0.2,0,0.2c0.1,0.4,0.5,0.6,0.9,0.6
					c0.4,0,0.7-0.3,0.7-0.7c0-0.2,0-0.3,0-0.5c0.6,0,1.3,0,1.9,0c0,0.1,0,0.1-0.1,0.2c-0.4,0.8-1,1.3-1.9,1.5
					c-1.1,0.3-2.2,0.1-3.1-0.8c-1-0.9-0.9-2.4,0.1-3.3c0.7-0.6,1.5-0.8,2.4-0.8c0.9,0.1,1.6,0.4,2.1,1.1c0.3,0.4,0.5,0.8,0.5,1.2
					C160.1,60.9,160.1,60.9,160.1,61C160.1,60.9,160.1,60.9,160.1,61z M158.1,60.3c0-0.2,0-0.4,0-0.6c-0.1-0.4-0.4-0.7-0.8-0.7
					c-0.4,0-0.7,0.3-0.8,0.7c0,0.2,0,0.3,0,0.5c0,0.1,0,0.1,0.1,0.1c0.5,0,0.9,0,1.4,0C158,60.3,158,60.3,158.1,60.3z"/>
				<path fill="#FFFFFF" d="M151.5,63.2c0-1.5,0-2.9,0-4.4c-0.4,0-0.7,0-1.1,0c0-0.2,0-0.4,0-0.6c0,0,0.1-0.1,0.1-0.1
					c0.3,0,0.5,0,0.8,0c0.1,0,0.1,0,0.2,0c0-0.3,0-0.6,0-0.9c0.7,0,1.3,0,2,0c0,0.3,0,0.6,0,0.9c0.4,0,0.7,0,1.1,0
					c0,0.2,0,0.4,0,0.6c-0.3,0-0.7,0-1.1,0c0,1.5,0,2.9,0,4.4C152.8,63.2,152.1,63.2,151.5,63.2z"/>
				<path fill="#FFFFFF" d="M143.5,58.8c0,1.5,0,2.9,0,4.4c-0.6,0-1.3,0-2,0c0-1.4,0-2.9,0-4.4C142.1,58.8,142.8,58.8,143.5,58.8z"
					/>
				<path fill="#FFFFFF" d="M141.5,56.6C141.5,56.6,141.5,56.6,141.5,56.6c0.7,0,1.3,0,2,0c0,0.4,0,0.9,0,1.3c-0.7,0-1.3,0-2,0
					C141.5,57.5,141.5,57,141.5,56.6z"/>
			</g>
		</g>
		<g>
			<path fill="#FFFFFF" d="M117.1,75.4c0-0.4,0-0.8,0-1.2c0,0,0-0.1,0.1-0.1c0.2,0,0.3,0,0.5,0c0,0,0.1,0,0.1,0l0.8,1.6
				c0,0,0.7-1.5,0.7-1.6c0,0,0-0.1,0.1-0.1c0.2,0,0.3,0,0.5,0c0,0,0,0,0,0c0,0.1,0,0.2,0,0.2c0,0.7,0,1.5,0,2.2c0,0,0,0.1,0,0.1
				c0,0,0,0,0,0c-0.1,0-0.3,0-0.4,0c-0.1,0-0.1,0-0.1-0.1c0-0.3,0-0.7,0-1c0,0,0-0.1,0-0.1c0,0,0,0,0,0c0,0,0,0,0,0
				c-0.1,0.2-0.4,0.9-0.5,1.1c0,0.1,0,0.1-0.1,0.1c-0.1,0-0.2,0-0.3,0c-0.1,0-0.1-0.1-0.1-0.1l-0.6-1.2c0,0,0,0.9,0,1.2
				c0,0,0,0.1-0.1,0.1c-0.1,0-0.3,0-0.4,0c-0.1,0-0.1,0-0.1-0.1C117,76.2,117.1,75.9,117.1,75.4C117.1,75.5,117.1,75.4,117.1,75.4z"
				/>
			<path fill="#FFFFFF" d="M128.8,75.4c0-0.4,0-0.8,0-1.2c0-0.1,0-0.1,0.1-0.1c0.1,0,0.3,0,0.4,0c0,0,0.1,0,0.1,0.1
				c0,0.1,0.7,1.5,0.7,1.5c0,0,0,0.1,0,0.1c0,0,0,0.1,0.1,0.1c0,0,0,0,0-0.1c0-0.2,0.6-1.5,0.6-1.5c0-0.1,0-0.1,0.1-0.2
				c0.1,0,0.1,0,0.2,0c0.1,0,0.2,0,0.4,0c0,0.1,0,0.2,0,0.4c0,0.7,0,1.4,0,2.1c0,0,0,0.1,0,0.1c0,0,0,0,0,0c-0.1,0-0.3,0-0.4,0
				c0,0,0,0,0-0.1c0-0.2,0-0.3,0-0.5c0-0.2,0-0.4,0-0.6c0,0,0,0,0,0c0,0,0,0,0,0c0,0.1-0.4,1-0.5,1.1c0,0,0,0-0.1,0
				c-0.1,0-0.3,0-0.4,0c0,0-0.1,0-0.1,0c-0.1-0.1-0.5-1-0.5-1.1c0,0,0,0,0-0.1c0,0,0,0,0,0.1c0,0.3,0,0.6,0,0.9c0,0.1,0,0.1,0,0.2
				c-0.1,0-0.1,0-0.2,0c-0.1,0-0.1,0-0.2,0c-0.1,0-0.1,0-0.1-0.1C128.8,76.2,128.8,75.8,128.8,75.4z"/>
			<path fill="#FFFFFF" d="M127.3,76.8c-0.2,0-0.4,0-0.6-0.1c-0.1,0-0.2-0.1-0.3-0.2c-0.1-0.1-0.2-0.2-0.3-0.3
				c-0.1-0.1-0.1-0.2-0.2-0.3c-0.1-0.2-0.1-0.4-0.1-0.6c0-0.1,0-0.2,0.1-0.3c0-0.1,0.1-0.2,0.2-0.3c0.1-0.2,0.3-0.4,0.6-0.5
				c0.1-0.1,0.3-0.1,0.5-0.1c0.1,0,0.3,0,0.4,0c0.1,0,0.2,0.1,0.3,0.1c0.1,0,0.1,0.1,0.2,0.1c0,0,0.1,0.1,0.1,0.1
				c0,0.1,0.1,0.1,0.1,0.1c0,0,0.1,0.1,0.1,0.1c0.1,0.1,0.1,0.2,0.2,0.4c0,0.1,0,0.2,0,0.3c0,0.1,0,0.2,0,0.3c0,0.2-0.1,0.3-0.2,0.5
				c-0.2,0.2-0.4,0.4-0.7,0.5C127.6,76.8,127.4,76.8,127.3,76.8z M127.3,76.3c0.1,0,0.1,0,0.2,0c0.2-0.1,0.3-0.1,0.5-0.3
				c0.1-0.1,0.2-0.3,0.2-0.5c0-0.1,0-0.1,0-0.2c0-0.1,0-0.2-0.1-0.2c-0.1-0.1-0.1-0.1-0.2-0.2c-0.1-0.1-0.3-0.2-0.4-0.2
				c-0.1,0-0.1,0-0.2,0c-0.1,0-0.2,0-0.3,0.1c-0.1,0.1-0.2,0.1-0.3,0.3c-0.1,0.1-0.2,0.3-0.2,0.5c0,0.2,0,0.4,0.2,0.6
				c0.1,0.1,0.2,0.2,0.3,0.3C127.1,76.2,127.2,76.3,127.3,76.3z"/>
			<path fill="#FFFFFF" d="M138.6,76.1c0,0.2,0,0.4,0,0.6c0,0.1,0,0.1-0.1,0.1c-0.1,0-0.2,0-0.4,0c0,0-0.1,0-0.1-0.1c0,0,0,0,0-0.1
				c0-0.8,0-1.6,0-2.4c0,0,0,0,0-0.1c0,0,0,0,0,0c0.1,0,0.2,0,0.3,0c0.2,0,0.4,0,0.6,0c0.2,0,0.3,0,0.4,0.1c0.1,0.1,0.2,0.2,0.3,0.3
				c0.1,0.1,0.1,0.3,0.1,0.5c0,0.1,0,0.2-0.1,0.3c0,0,0,0.1-0.1,0.1c-0.1,0.1-0.2,0.3-0.4,0.3c0,0,0,0,0,0.1
				c0.1,0.1,0.2,0.3,0.3,0.5c0.1,0.1,0.2,0.3,0.3,0.4c0,0,0,0,0,0c-0.2,0-0.3,0-0.5,0c0,0,0,0,0,0c-0.1-0.2-0.3-0.5-0.4-0.7
				c-0.1-0.2-0.2-0.4-0.3-0.6c0,0,0,0,0,0c0,0,0,0,0,0c0,0.2,0,0.3,0,0.5C138.6,76,138.6,76,138.6,76.1z M138.6,75
				c0,0.1,0,0.2,0,0.3c0,0,0,0.1,0,0.1c0.2,0,0.3,0,0.5,0c0.1,0,0.2,0,0.2-0.1c0.1-0.1,0.1-0.3,0-0.4c0-0.1-0.1-0.1-0.2-0.1
				c-0.2,0-0.3,0-0.5,0c0,0,0,0,0,0.1C138.6,74.8,138.6,74.9,138.6,75z"/>
			<path fill="#FFFFFF" d="M133.4,75.1c0-0.3,0-0.6,0-0.9c0-0.1,0-0.1,0.1-0.1c0.1,0,0.3,0,0.4,0c0,0.1,0,0.3,0,0.4
				c0,0.5,0,0.9,0,1.4c0,0.1,0.1,0.2,0.2,0.3c0.3,0.1,0.5,0,0.5-0.3c0-0.6,0-1.1,0-1.7c0,0,0-0.1,0-0.1c0,0,0,0,0,0
				c0.1,0,0.3,0,0.4,0c0,0,0,0,0,0c0,0,0,0.1,0,0.1c0,0.6,0,1.2,0,1.7c0,0.2-0.1,0.4-0.2,0.5c-0.1,0.1-0.2,0.2-0.4,0.3
				c-0.2,0.1-0.4,0-0.6,0c-0.2-0.1-0.3-0.2-0.4-0.4c0-0.1-0.1-0.2-0.1-0.3C133.4,75.7,133.4,75.4,133.4,75.1z"/>
			<path fill="#FFFFFF" d="M125.7,74.8c-0.1,0-0.1,0-0.2,0c-0.1,0-0.1,0-0.2-0.1c-0.1-0.1-0.2-0.1-0.3-0.1c-0.1,0-0.2,0-0.3,0
				c-0.2,0-0.4,0.1-0.5,0.2c-0.1,0.1-0.1,0.1-0.2,0.2c0,0.1-0.1,0.2-0.1,0.4c0,0.2,0.1,0.4,0.2,0.5c0.1,0.1,0.1,0.2,0.2,0.2
				c0.2,0.1,0.3,0.1,0.5,0.1c0.1,0,0.2-0.1,0.4-0.2c0,0,0.1,0,0.1,0c0.2,0,0.3,0,0.5,0c0,0,0.1,0,0,0.1c-0.1,0.1-0.2,0.3-0.3,0.4
				c-0.1,0.1-0.2,0.2-0.3,0.2c-0.1,0-0.2,0.1-0.3,0.1c-0.1,0-0.2,0-0.3,0c-0.2,0-0.5,0-0.6-0.2c-0.2-0.1-0.3-0.2-0.4-0.3
				c-0.1-0.1-0.1-0.2-0.2-0.3c0-0.1-0.1-0.2-0.1-0.3c0-0.1,0-0.4,0-0.5c0-0.1,0.1-0.2,0.1-0.3c0-0.1,0.1-0.1,0.1-0.2
				c0.1-0.1,0.2-0.3,0.4-0.4c0.1-0.1,0.2-0.1,0.3-0.1c0.1,0,0.2-0.1,0.3,0c0.3,0,0.5,0.1,0.6,0.1c0.1,0,0.2,0.1,0.3,0.2
				c0.1,0.1,0.2,0.2,0.3,0.3c0,0,0,0.1,0,0.1c0,0,0,0,0,0C125.9,74.8,125.8,74.8,125.7,74.8z"/>
			<path fill="#FFFFFF" d="M116.9,76.7C116.9,76.7,116.9,76.7,116.9,76.7c-0.2,0.1-0.3,0.1-0.4,0.1c0,0-0.1,0,0,0c0-0.1,0-0.2,0-0.3
				c0,0,0,0,0,0c-0.3,0-0.6,0-0.8,0c0,0,0,0,0,0c0,0.1-0.1,0.1-0.1,0.2c0,0.1-0.1,0.1-0.1,0.2c-0.1,0-0.1,0-0.2,0c0,0-0.1,0-0.1,0
				c-0.1,0-0.2,0-0.3,0c0.1-0.1,0.1-0.1,0.1-0.2c0.1-0.2,1.6-2.4,1.7-2.4c0,0,0.1,0,0.2,0c0.1,0,0.2,0,0.2,0L116.9,76.7z
				 M116.4,75.5C116.4,75.5,116.4,75.5,116.4,75.5c0-0.1,0-0.2,0-0.3c0,0,0,0,0,0c0,0,0,0,0,0c0,0,0,0.1-0.1,0.1
				c-0.1,0.2-0.2,0.3-0.4,0.5c0,0,0,0.1,0,0.1c0,0,0.1,0,0.1,0c0,0,0.1,0,0.1,0c0.1,0,0.2,0,0.3,0C116.4,75.7,116.4,75.6,116.4,75.5
				z"/>
			<path fill="#FFFFFF" d="M136.6,75.4c0-0.4,0-0.8,0-1.3c0-0.1,0-0.1,0.1-0.1c0.4,0,0.8,0,1.2,0c0.1,0,0.1,0,0.1,0.1
				c0,0.1,0,0.2,0,0.4c0,0.1,0,0.1-0.1,0.1c-0.2,0-0.5,0-0.7,0c0,0-0.1,0-0.1,0.1c0,0.2,0,0.3,0,0.5c0,0,0,0.1,0.1,0.1
				c0.2,0,0.5,0,0.7,0c0,0,0.1,0,0.1,0c0,0,0,0,0,0c0,0,0,0,0,0c0,0.1,0,0.3,0,0.4c-0.1,0-0.3,0-0.4,0c-0.1,0-0.3,0-0.4,0
				c-0.1,0-0.1,0-0.1,0.1c0,0.1,0,0.3,0,0.4c0,0,0,0.1,0.1,0.1c0.3,0,0.5,0,0.8,0c0,0,0.1,0,0.1,0.1c0,0.1,0,0.3,0,0.4
				c0,0.1,0,0-0.1,0c-0.4,0-0.8,0-1.3,0c0,0-0.1,0-0.1-0.1c0-0.2,0-0.3,0-0.5C136.6,75.9,136.6,75.7,136.6,75.4z"/>
			<path fill="#FFFFFF" d="M131.6,75.4c0-0.4,0-0.8,0-1.2c0-0.1,0-0.1,0.1-0.1c0.2,0,0.5,0,0.7,0c0.2,0,0.3,0.1,0.5,0.2
				c0.1,0.1,0.2,0.2,0.3,0.4c0.1,0.1,0.1,0.2,0.1,0.4c0,0.1,0,0.3-0.1,0.4c-0.1,0.1-0.2,0.3-0.4,0.3c-0.1,0-0.2,0.1-0.3,0.1
				c-0.1,0-0.2,0-0.3,0c0,0.1,0,0.2,0,0.3c0,0.2,0,0.3,0,0.5c0,0,0,0.1-0.1,0.1c-0.1,0-0.3,0-0.4,0c0,0-0.1,0-0.1-0.1
				C131.6,76.2,131.6,75.8,131.6,75.4z M132.1,75c0,0.1,0,0.2,0,0.3c0,0,0,0,0,0c0.1,0,0.2,0,0.3,0c0,0,0.1,0,0.1,0
				c0,0,0.1-0.1,0.1-0.1c0,0,0-0.1,0.1-0.1c0,0,0-0.1,0-0.1c0-0.1-0.1-0.3-0.3-0.3c-0.1,0-0.2,0-0.4,0
				C132.1,74.7,132.1,74.8,132.1,75C132.1,74.9,132.1,74.9,132.1,75z"/>
			<path fill="#FFFFFF" d="M113.9,75.4c0-0.4,0-0.8,0-1.2c0-0.1,0-0.1,0.1-0.1c0.4,0,0.8,0,1.3,0c0,0,0.1,0,0.1,0.1
				c0,0.1,0,0.3,0,0.4c0,0,0,0.1-0.1,0.1c-0.3,0-0.5,0-0.8,0c0,0-0.1,0-0.1,0.1c0,0.1,0,0.3,0,0.4c0,0.1,0,0.1,0.1,0.1
				c0.2,0,0.5,0,0.7,0c0,0,0.1,0,0.1,0.1c0,0.1,0,0.3,0,0.4c0,0,0,0.1-0.1,0.1c-0.3,0-0.5,0-0.8,0c0,0-0.1,0-0.1,0.1
				c0,0.3,0,0.6,0,0.9c0,0,0,0.1-0.1,0.1c-0.1,0-0.3,0-0.4,0c0-0.1,0-0.3,0-0.4C113.9,76,113.9,75.7,113.9,75.4z"/>
			<path fill="#FFFFFF" d="M121.9,76.2c0-0.1,0-0.3,0-0.4c0-0.1,0-0.1,0-0.2c-0.1-0.3-0.3-0.5-0.4-0.8c-0.1-0.2-0.2-0.5-0.4-0.7
				c0,0,0-0.1,0-0.1c0.2,0,0.3,0,0.5,0c0.1,0,0.1,0,0.1,0.1c0.1,0.3,0.3,0.6,0.4,0.8c0,0,0,0.1,0.1,0.1c0,0,0.1-0.1,0.1-0.1
				c0.1-0.3,0.3-0.6,0.4-0.9c0,0,0,0,0,0c0.2,0,0.3,0,0.5,0c0,0,0,0,0,0.1c-0.3,0.5-0.5,1-0.8,1.5c0,0.1,0,0.1,0,0.2
				c0,0.3,0,0.5,0,0.8c0,0,0,0.1-0.1,0.1c-0.1,0-0.3,0-0.4,0c0,0-0.1,0-0.1-0.1C121.9,76.5,121.9,76.4,121.9,76.2z"/>
			<path fill="#FFFFFF" d="M136.1,75.7c0,0.3,0,0.7,0,1c0,0,0,0.1-0.1,0.1c-0.1,0-0.3,0-0.4,0c0,0-0.1,0-0.1-0.1c0-0.1,0-0.3,0-0.4
				c0-0.5,0-1.1,0-1.6c0-0.1,0-0.1-0.1-0.1c-0.1,0-0.2,0-0.3,0c0,0-0.1,0-0.1,0c0-0.2,0-0.3,0-0.5c0,0,0,0,0.1,0c0.1,0,0.2,0,0.2,0
				c0.3,0,0.7,0,1,0c0.1,0,0.1,0,0.1,0.1c0,0.1,0,0.3,0,0.4c-0.1,0-0.3,0-0.4,0c0,0,0,0,0,0.1C136.1,75,136.1,75.4,136.1,75.7z"/>
			<path fill="#FFFFFF" d="M120.5,75.4c0-0.4,0-0.8,0-1.2c0,0,0-0.1,0.1-0.1c0.1,0,0.3,0,0.4,0c0,0,0.1,0,0.1,0.1c0,0.1,0,0.3,0,0.4
				c0,0.5,0,1.1,0,1.6c0,0.1,0,0.1,0.1,0.1c0.2,0,0.4,0,0.5,0c0,0,0.1,0,0,0c0,0.1,0,0.3,0,0.4c-0.1,0-0.3,0-0.4,0
				c-0.2,0-0.5,0-0.7,0c-0.1,0-0.1,0-0.1-0.1C120.5,76.2,120.5,75.9,120.5,75.4C120.5,75.5,120.5,75.4,120.5,75.4z"/>
			<path fill="#FFFFFF" d="M119.8,75.4c0-0.4,0-0.8,0-1.2c0-0.1,0-0.1,0.1-0.1c0.1,0,0.3,0,0.4,0c0,0.1,0,0.3,0,0.4c0,0.7,0,1.4,0,2
				c0,0,0,0.1,0,0.1c0,0,0,0,0,0c-0.1,0-0.3,0-0.4,0c0,0,0,0,0-0.1c0-0.1,0-0.2,0-0.3C119.8,76.1,119.8,75.7,119.8,75.4z"/>
		</g>
		<g>
			<path fill="#FFFFFF" d="M143.7,76.1c0,0.2-0.1,0.3-0.2,0.5c-0.1,0.1-0.3,0.2-0.5,0.2H142v-0.5h0.1v-1.8H142V74h1.1
				c0.2,0,0.3,0.1,0.5,0.2c0.1,0.1,0.2,0.3,0.2,0.5V76.1z M143.2,76.1v-1.4c0,0,0-0.1,0-0.1c0,0-0.1-0.1-0.1-0.1h-0.4v1.8h0.4
				c0,0,0.1,0,0.1-0.1C143.2,76.2,143.2,76.2,143.2,76.1z"/>
			<path fill="#FFFFFF" d="M144.5,76.8H144V74h0.5V76.8z"/>
			<path fill="#FFFFFF" d="M146.5,76.2c0,0.2-0.1,0.3-0.2,0.5c-0.1,0.1-0.3,0.2-0.5,0.2h-0.4c-0.2,0-0.3-0.1-0.5-0.2
				c-0.1-0.1-0.2-0.3-0.2-0.4l0.5-0.1v0.1c0,0,0,0.1,0,0.1c0,0,0.1,0.1,0.1,0.1h0.4c0,0,0.1,0,0.1-0.1c0,0,0-0.1,0-0.1V76
				c0-0.1,0-0.2-0.1-0.2l-0.7-0.3c-0.3-0.1-0.4-0.3-0.4-0.6v-0.2c0-0.2,0.1-0.3,0.2-0.5c0.1-0.1,0.3-0.2,0.5-0.2h0.4
				c0.2,0,0.3,0.1,0.5,0.2c0.1,0.1,0.2,0.3,0.2,0.5l-0.5,0.1v-0.1c0,0,0-0.1,0-0.1c0,0-0.1-0.1-0.1-0.1h-0.4c0,0-0.1,0-0.1,0.1
				c0,0,0,0.1,0,0.1v0.1c0,0.1,0,0.2,0.1,0.2l0.7,0.3c0.3,0.1,0.4,0.3,0.4,0.6V76.2z"/>
			<path fill="#FFFFFF" d="M148.5,76.8H148v-0.2l-0.5-0.9l-0.2,0.2v0.9h-0.5V74h0.5v1l0.7-0.8V74h0.5v0.4l-0.7,0.8l0.7,1.2V76.8z"/>
			<path fill="#FFFFFF" d="M152,76.2c0,0.2-0.1,0.3-0.2,0.5c-0.1,0.1-0.3,0.2-0.5,0.2H151c-0.2,0-0.3-0.1-0.5-0.2
				c-0.1-0.1-0.2-0.3-0.2-0.4l0.5-0.1v0.1c0,0,0,0.1,0,0.1c0,0,0.1,0.1,0.1,0.1h0.4c0,0,0.1,0,0.1-0.1c0,0,0-0.1,0-0.1V76
				c0-0.1,0-0.2-0.1-0.2l-0.7-0.3c-0.3-0.1-0.4-0.3-0.4-0.6v-0.2c0-0.2,0.1-0.3,0.2-0.5c0.1-0.1,0.3-0.2,0.5-0.2h0.4
				c0.2,0,0.3,0.1,0.5,0.2c0.1,0.1,0.2,0.3,0.2,0.5l-0.5,0.1v-0.1c0,0,0-0.1,0-0.1c0,0-0.1-0.1-0.1-0.1H151c0,0-0.1,0-0.1,0.1
				c0,0,0,0.1,0,0.1v0.1c0,0.1,0,0.2,0.1,0.2l0.7,0.3c0.3,0.1,0.4,0.3,0.4,0.6V76.2z"/>
			<path fill="#FFFFFF" d="M153.9,74.4l-0.6,1.1v1.3h-0.5v-1.3l-0.6-1.1V74h0.5v0.2l0.3,0.6l0.3-0.6V74h0.5V74.4z"/>
			<path fill="#FFFFFF" d="M155.9,76.2c0,0.2-0.1,0.3-0.2,0.5c-0.1,0.1-0.3,0.2-0.5,0.2h-0.4c-0.2,0-0.3-0.1-0.5-0.2
				c-0.1-0.1-0.2-0.3-0.2-0.4l0.5-0.1v0.1c0,0,0,0.1,0,0.1c0,0,0.1,0.1,0.1,0.1h0.4c0,0,0.1,0,0.1-0.1c0,0,0-0.1,0-0.1V76
				c0-0.1,0-0.2-0.1-0.2l-0.7-0.3c-0.3-0.1-0.4-0.3-0.4-0.6v-0.2c0-0.2,0.1-0.3,0.2-0.5c0.1-0.1,0.3-0.2,0.5-0.2h0.4
				c0.2,0,0.3,0.1,0.5,0.2c0.1,0.1,0.2,0.3,0.2,0.5l-0.5,0.1v-0.1c0,0,0-0.1,0-0.1c0,0-0.1-0.1-0.1-0.1h-0.4c0,0-0.1,0-0.1,0.1
				c0,0,0,0.1,0,0.1v0.1c0,0.1,0,0.2,0.1,0.2l0.7,0.3c0.3,0.1,0.4,0.3,0.4,0.6V76.2z"/>
			<path fill="#FFFFFF" d="M157.8,74.5h-0.6v2.3h-0.5v-2.3h-0.6V74h1.7V74.5z"/>
			<path fill="#FFFFFF" d="M159.7,76.8H158V74h1.7v0.5h-1.1v0.7h0.8v0.5h-0.8v0.7h1.2V76.8z"/>
			<path fill="#FFFFFF" d="M161.7,76.8h-0.5v-1.3l-0.2,0.6h-0.4l-0.2-0.6v1.3H160V74h0.5l0.4,1.2l0.4-1.2h0.5V76.8z"/>
		</g>
		<rect x="164.2" y="74" fill="#FFFFFF" width="20.2" height="2.9"/>
		<g>
			<g>
				<path fill="#1D1D1B" d="M165.3,76.3v-1.9h0.4v0.8h1.6v-0.8h0.4v1.9h-0.4v-0.9h-1.6v0.9H165.3z"/>
				<path fill="#1D1D1B" d="M169.2,76.3l-1.2-1.9h0.4l0.8,1.3c0.1,0.1,0.1,0.2,0.2,0.3c0-0.1,0.1-0.2,0.2-0.3l0.8-1.3h0.4l-1.2,1.9
					H169.2z"/>
				<path fill="#1D1D1B" d="M173.3,75.7l0.4,0.1c-0.1,0.2-0.2,0.4-0.5,0.5c-0.2,0.1-0.5,0.2-0.8,0.2c-0.3,0-0.6,0-0.8-0.1
					c-0.2-0.1-0.4-0.2-0.5-0.4c-0.1-0.2-0.2-0.3-0.2-0.5c0-0.2,0.1-0.4,0.2-0.5c0.1-0.1,0.3-0.3,0.5-0.3c0.2-0.1,0.5-0.1,0.7-0.1
					c0.3,0,0.6,0,0.8,0.1c0.2,0.1,0.3,0.2,0.4,0.4l-0.4,0.1c-0.1-0.1-0.2-0.2-0.3-0.3s-0.3-0.1-0.5-0.1c-0.2,0-0.4,0-0.6,0.1
					c-0.2,0.1-0.3,0.2-0.3,0.3c-0.1,0.1-0.1,0.2-0.1,0.4c0,0.2,0,0.3,0.1,0.4c0.1,0.1,0.2,0.2,0.3,0.3c0.2,0.1,0.3,0.1,0.5,0.1
					c0.2,0,0.4,0,0.6-0.1C173.2,76,173.3,75.8,173.3,75.7z"/>
				<path fill="#1D1D1B" d="M174,75.8v-0.2h1.1v0.2H174z"/>
				<path fill="#1D1D1B" d="M175.5,75.4c0-0.3,0.1-0.5,0.4-0.7c0.3-0.2,0.6-0.3,1-0.3c0.3,0,0.5,0,0.8,0.1c0.2,0.1,0.4,0.2,0.5,0.3
					c0.1,0.1,0.2,0.3,0.2,0.5c0,0.2-0.1,0.4-0.2,0.5c-0.1,0.1-0.3,0.3-0.5,0.3c-0.2,0.1-0.5,0.1-0.7,0.1c-0.3,0-0.5,0-0.8-0.1
					c-0.2-0.1-0.4-0.2-0.5-0.3C175.6,75.7,175.5,75.6,175.5,75.4z M175.9,75.4c0,0.2,0.1,0.4,0.3,0.5c0.2,0.1,0.4,0.2,0.7,0.2
					c0.3,0,0.5-0.1,0.7-0.2c0.2-0.1,0.3-0.3,0.3-0.6c0-0.2,0-0.3-0.1-0.4c-0.1-0.1-0.2-0.2-0.4-0.3c-0.2-0.1-0.3-0.1-0.5-0.1
					c-0.3,0-0.5,0.1-0.7,0.2C176,75,175.9,75.2,175.9,75.4z"/>
				<path fill="#1D1D1B" d="M180.7,76.1v0.2h-2c0-0.1,0-0.1,0-0.2c0.1-0.1,0.1-0.2,0.2-0.2c0.1-0.1,0.3-0.2,0.5-0.3
					c0.3-0.2,0.6-0.3,0.7-0.4c0.1-0.1,0.2-0.2,0.2-0.3c0-0.1-0.1-0.2-0.2-0.2c-0.1-0.1-0.2-0.1-0.4-0.1c-0.2,0-0.3,0-0.4,0.1
					c-0.1,0.1-0.2,0.2-0.2,0.3l-0.4,0c0-0.2,0.1-0.3,0.3-0.4c0.2-0.1,0.4-0.1,0.7-0.1c0.3,0,0.5,0,0.7,0.1c0.2,0.1,0.3,0.2,0.3,0.4
					c0,0.1,0,0.1-0.1,0.2c0,0.1-0.1,0.1-0.2,0.2c-0.1,0.1-0.3,0.2-0.6,0.3c-0.2,0.1-0.4,0.2-0.4,0.2c-0.1,0-0.1,0.1-0.2,0.1H180.7z"
					/>
			</g>
			<g>
				<path d="M181.2,75.9c0,0,0.3,0.2,0.8,0.2c0.4,0,0.7-0.1,0.7-0.3c0-0.2-0.4-0.3-0.8-0.3h-0.2l-0.1-0.1l0.7-0.5
					c0.1-0.1,0.2-0.1,0.2-0.1v0c0,0-0.1,0-0.3,0h-1.1v-0.2h2v0.2l-0.9,0.6c0.4,0,1,0.2,1,0.5c0,0.3-0.4,0.6-1.1,0.6
					c-0.7,0-1.1-0.3-1.1-0.3L181.2,75.9z"/>
			</g>
		</g>
	</g>
</g>
</svg>
