<?xml version="1.0" encoding="UTF-8" standalone="no"?>
<svg
   xmlns:dc="http://purl.org/dc/elements/1.1/"
   xmlns:cc="http://creativecommons.org/ns#"
   xmlns:rdf="http://www.w3.org/1999/02/22-rdf-syntax-ns#"
   xmlns:svg="http://www.w3.org/2000/svg"
   xmlns="http://www.w3.org/2000/svg"
   viewBox="0 0 210.21124 465.83624"
   height="465.83624"
   width="210.21124"
   xml:space="preserve"
   version="1.1"
   id="svg2"><metadata
     id="metadata8"><rdf:RDF><cc:Work
         rdf:about=""><dc:format>image/svg+xml</dc:format><dc:type
           rdf:resource="http://purl.org/dc/dcmitype/StillImage" /><dc:title></dc:title></cc:Work></rdf:RDF></metadata><defs
     id="defs6"><clipPath
       id="clipPath16"
       clipPathUnits="userSpaceOnUse"><path
         id="path18"
         d="m 0,372.669 168.169,0 L 168.169,0 0,0 0,372.669 Z" /></clipPath></defs><g
     transform="matrix(1.25,0,0,-1.25,0,465.83625)"
     id="g10"><g
       id="g12"><g
         clip-path="url(#clipPath16)"
         id="g14"><g
           transform="translate(165.3346,22.8346)"
           id="g20"><path
             id="path22"
             style="fill:#63242b;fill-opacity:1;fill-rule:nonzero;stroke:none"
             d="M 0,0 0,0.562 0,49.5 0,277.312 0,327 c 0,11 -9,20 -20,20 l -59.333,0 -63.167,0 c -11,0 -20,-9 -20,-20 l 0,-327 c 0,-11 9,-20 20,-20 l 122.5,0 c 11,0 20,9 20,20" /></g><g
           transform="translate(157.3346,24.8971)"
           id="g24"><path
             id="path26"
             style="fill:#ae2740;fill-opacity:1;fill-rule:nonzero;stroke:none"
             d="m 0,0 0,320.437 c 0,11 -9,20 -20,20 l -113.5,0 c -11,0 -20,-9 -20,-20 l 0,-317.999 c 0,-11.001 9,-20 20,-20 l 113.5,0 C -9,-17.562 0,-6.896 0,0" /></g><g
           transform="translate(88.668,20.7513)"
           id="g28"><path
             id="path30"
             style="fill:#cbb48f;fill-opacity:1;fill-rule:nonzero;stroke:none"
             d="m 0,0 0,198.833 c 0,2.875 2.792,2.5 2.792,2.5 l 47.208,0 c 2.2,0 4,1.8 4,4 L 54,330 c 0,2.2 -1.8,4 -4,4 l -120,0 c -2.2,0 -4,-1.8 -4,-4 l 0,-121.333 0,-3.334 L -74,0 c 0,-2.2 1.8,-4 4,-4 l 66,0 c 2.2,0 4,1.8 4,4" /></g><path
           id="path32"
           style="fill:#444443;fill-opacity:1;fill-rule:nonzero;stroke:none"
           d="m 40.835,354.835 3,0 0,-337.917 -3,0 0,337.917 z" /><path
           id="path34"
           style="fill:#444443;fill-opacity:1;fill-rule:nonzero;stroke:none"
           d="m 33.668,354.835 3,0 0,-337.917 -3,0 0,337.917 z" /><g
           transform="translate(27.3346,163.7513)"
           id="g36"><path
             id="path38"
             style="fill:#ae2740;fill-opacity:1;fill-rule:nonzero;stroke:none"
             d="m 0,0 0,66 c 0,10.45 8.55,19 19,19 l 0,0 C 29.45,85 38,76.45 38,66 L 38,0 c 0,-10.45 -8.55,-19 -19,-19 l 0,0 C 8.55,-19 0,-10.45 0,0" /></g><g
           transform="translate(46.5846,86.9179)"
           id="g40"><path
             id="path42"
             style="fill:#ae2740;fill-opacity:1;fill-rule:nonzero;stroke:none"
             d="m 0,0 c -11.69,0 -21.167,9.477 -21.167,21.167 0,11.69 9.477,21.166 21.167,21.166 11.69,0 21.167,-9.476 21.167,-21.166 C 21.167,9.477 11.69,0 0,0" /></g><g
           transform="translate(46.5846,37.8346)"
           id="g44"><path
             id="path46"
             style="fill:#ae2740;fill-opacity:1;fill-rule:nonzero;stroke:none"
             d="M 0,0 C -11.874,0 -21.5,9.626 -21.5,21.5 -21.5,33.374 -11.874,43 0,43 11.874,43 21.5,33.374 21.5,21.5 21.5,9.626 11.874,0 0,0" /></g><g
           transform="translate(46.5846,89.5846)"
           id="g48"><path
             id="path50"
             style="fill:#444443;fill-opacity:1;fill-rule:nonzero;stroke:none"
             d="M 0,0 C -10.217,0 -18.5,8.283 -18.5,18.5 -18.5,28.717 -10.217,37 0,37 10.217,37 18.5,28.717 18.5,18.5 18.5,8.283 10.217,0 0,0" /></g><g
           transform="translate(46.5846,40.8346)"
           id="g52"><path
             id="path54"
             style="fill:#444443;fill-opacity:1;fill-rule:nonzero;stroke:none"
             d="M 0,0 C -10.217,0 -18.5,8.283 -18.5,18.5 -18.5,28.717 -10.217,37 0,37 10.217,37 18.5,28.717 18.5,18.5 18.5,8.283 10.217,0 0,0" /></g><g
           transform="translate(77.4596,268.5011)"
           id="g56"><path
             id="path58"
             style="fill:#ae2740;fill-opacity:1;fill-rule:nonzero;stroke:none"
             d="m 0,0 0,18.167 19.25,0 c 1.1,0 2,0.9 2,2 l 0,28.666 c 0,1.1 -0.9,2 -2,2 L 0,50.833 0,69 c 0,1.1 -0.9,2 -2,2 l -26.833,0 c -1.1,0 -2,-0.9 -2,-2 l 0,-18.167 -19.25,0 c -1.1,0 -2,-0.9 -2,-2 l 0,-28.666 c 0,-1.1 0.9,-2 2,-2 l 19.25,0 0,-18.167 c 0,-1.1 0.9,-2 2,-2 L -2,-2 c 1.1,0 2,0.9 2,2" /></g><g
           transform="translate(72.4596,271.5013)"
           id="g60"><path
             id="path62"
             style="fill:#444443;fill-opacity:1;fill-rule:nonzero;stroke:none"
             d="m 0,0 0,20.167 21.25,0 0,22.666 -21.25,0 0,20.167 -20.833,0 0,-20.167 -21.25,0 0,-22.666 21.25,0 L -20.833,0 0,0 Z" /></g><g
           transform="translate(42.0013,211.2513)"
           id="g64"><path
             id="path66"
             style="fill:#444443;fill-opacity:1;fill-rule:nonzero;stroke:none"
             d="m 0,0 0,19.333 c 0,2.475 2.025,4.5 4.5,4.5 l 0,0 c 2.475,0 4.5,-2.025 4.5,-4.5 L 9,0 C 9,-2.475 6.975,-4.5 4.5,-4.5 l 0,0 C 2.025,-4.5 0,-2.475 0,0" /></g><g
           transform="translate(42.0013,163.2513)"
           id="g68"><path
             id="path70"
             style="fill:#444443;fill-opacity:1;fill-rule:nonzero;stroke:none"
             d="m 0,0 0,19.333 c 0,2.475 2.025,4.5 4.5,4.5 l 0,0 c 2.475,0 4.5,-2.025 4.5,-4.5 L 9,0 C 9,-2.475 6.975,-4.5 4.5,-4.5 l 0,0 C 2.025,-4.5 0,-2.475 0,0" /></g><g
           transform="translate(76.9557,105.5507)"
           id="g72"><path
             id="path74"
             style="fill:#444443;fill-opacity:1;fill-rule:nonzero;stroke:none"
             d="m 0,0 c 0.082,0.281 0.123,0.893 0.123,1.834 l 0,1.669 -2.297,0 0,-1.914 c 0,-0.745 0.018,-1.218 0.053,-1.418 0.047,-0.308 0.161,-0.558 0.343,-0.751 0.181,-0.193 0.424,-0.29 0.729,-0.29 0.258,0 0.477,0.074 0.656,0.224 C -0.213,-0.497 -0.082,-0.282 0,0" /></g><g
           transform="translate(78.5377,106.1962)"
           id="g76"><path
             id="path78"
             style="fill:#444443;fill-opacity:1;fill-rule:nonzero;stroke:none"
             d="m 0,0 c 0.035,-0.354 0.138,-0.632 0.308,-0.835 0.17,-0.202 0.393,-0.304 0.671,-0.304 0.265,0 0.481,0.088 0.647,0.263 0.166,0.174 0.267,0.434 0.302,0.778 0.019,0.205 0.029,0.794 0.029,1.768 l 0,1.187 -1.986,0 0,-1.355 C -0.029,0.696 -0.02,0.196 0,0" /></g><g
           transform="translate(74.6852,102.8681)"
           id="g80"><path
             id="path82"
             style="fill:#444443;fill-opacity:1;fill-rule:nonzero;stroke:none"
             d="m 0,0 c -0.369,0.216 -0.664,0.512 -0.885,0.887 -0.22,0.375 -0.356,0.837 -0.407,1.386 -0.031,0.345 -0.051,1.176 -0.059,2.495 l 0,3.486 8.59,0 0,-4.094 C 7.239,3.35 7.211,2.745 7.154,2.347 7.098,1.948 6.979,1.593 6.8,1.278 6.62,0.964 6.381,0.702 6.082,0.492 5.783,0.282 5.448,0.178 5.077,0.178 4.675,0.178 4.306,0.307 3.97,0.565 3.634,0.824 3.382,1.175 3.214,1.617 3.062,0.993 2.802,0.513 2.435,0.178 2.067,-0.157 1.636,-0.325 1.14,-0.325 0.749,-0.325 0.369,-0.217 0,0 m 8.566,-0.577 0,11.083 c 0,3.14 -2.569,5.708 -5.708,5.708 -3.14,0 -5.709,-2.568 -5.709,-5.708 l 0,-11.083 c 0,-3.14 2.569,-5.709 5.709,-5.709 3.139,0 5.708,2.569 5.708,5.709" /></g><g
           transform="translate(76.733,60.2428)"
           id="g84"><path
             id="path86"
             style="fill:#444443;fill-opacity:1;fill-rule:nonzero;stroke:none"
             d="M 0,0 0,-2.795 3.188,-1.383 0,0 Z" /></g><g
           transform="translate(73.3346,55.8903)"
           id="g88"><path
             id="path90"
             style="fill:#444443;fill-opacity:1;fill-rule:nonzero;stroke:none"
             d="m 0,0 1.951,0.895 0,4.093 L 0,5.834 0,8.027 8.59,4.038 8.59,1.852 0,-2.249 0,0 Z m 9.917,-2.097 0,11.083 c 0,3.14 -2.569,5.708 -5.709,5.708 -3.139,0 -5.708,-2.568 -5.708,-5.708 l 0,-11.083 c 0,-3.14 2.569,-5.709 5.708,-5.709 3.14,0 5.709,2.569 5.709,5.709" /></g><g
           transform="translate(119.1686,336.5229)"
           id="g92"><path
             id="path94"
             style="fill:#444443;fill-opacity:1;fill-rule:nonzero;stroke:none"
             d="m 0,0 c -0.142,-0.264 -0.289,-0.755 -0.439,-1.473 -0.039,-0.189 -0.189,-0.283 -0.454,-0.283 -0.113,0 -0.264,0.019 -0.453,0.056 0.038,0.586 0.071,1.172 0.099,1.757 0.029,0.585 0.043,1.143 0.043,1.671 0,0.51 -0.014,1.072 -0.043,1.686 -0.028,0.613 -0.061,1.194 -0.099,1.741 0.189,0.038 0.34,0.057 0.453,0.057 0.265,0 0.415,-0.094 0.454,-0.283 C -0.308,4.211 -0.166,3.721 -0.014,3.456 0.137,3.191 0.401,3.059 0.779,3.059 l 14.418,0 c 0.378,0 0.647,0.132 0.807,0.397 0.161,0.265 0.298,0.755 0.411,1.473 0.019,0.113 0.075,0.189 0.17,0.226 0.094,0.038 0.198,0.057 0.311,0.057 0.114,0 0.265,-0.019 0.454,-0.057 -0.038,-0.566 -0.071,-1.156 -0.1,-1.77 -0.028,-0.614 -0.042,-1.166 -0.042,-1.657 0,-0.472 0.014,-1.015 0.042,-1.629 0.029,-0.613 0.062,-1.213 0.1,-1.799 -0.189,-0.037 -0.34,-0.056 -0.454,-0.056 -0.283,0 -0.443,0.094 -0.481,0.283 -0.113,0.718 -0.25,1.209 -0.411,1.473 -0.16,0.265 -0.429,0.396 -0.807,0.396 l -14.418,0 C 0.401,0.396 0.142,0.265 0,0 m 20.166,14.394 -25.333,0 0,-25.333 25.333,0 0,25.333 z" /></g><g
           transform="translate(62.0431,294.0846)"
           id="g96"><path
             id="path98"
             style="fill:#383737;fill-opacity:1;fill-rule:nonzero;stroke:none"
             d="m 0,0 c -4.925,0 -8.917,3.992 -8.917,8.917 0,4.924 3.992,8.916 8.917,8.916 4.925,0 8.917,-3.992 8.917,-8.916 C 8.917,3.992 4.925,0 0,0" /></g><g
           transform="translate(89.7513,302.8923)"
           id="g100"><path
             id="path102"
             style="fill:#2b2b2a;fill-opacity:1;fill-rule:nonzero;stroke:none"
             d="m 0,0 -6.093,7.319 0,-1.522 -7.246,0 0,-11.594 7.246,0 0,-1.305 L 0,0 Z" /></g><g
           transform="translate(89.7513,302.8923)"
           id="g104"><path
             id="path106"
             style="fill:#383737;fill-opacity:1;fill-rule:nonzero;stroke:none"
             d="m 0,0 -6.093,7.319 0,-1.522 -7.246,0 0,-11.594 7.246,0 0,-1.305 L 0,0 Z" /></g><g
           transform="translate(62.1521,330.7095)"
           id="g108"><path
             id="path110"
             style="fill:#383737;fill-opacity:1;fill-rule:nonzero;stroke:none"
             d="m 0,0 -7.319,-6.093 1.522,0 0,-7.246 11.594,0 0,7.246 1.305,0 L 0,0 Z" /></g><g
           transform="translate(34.3349,303.1103)"
           id="g112"><path
             id="path114"
             style="fill:#383737;fill-opacity:1;fill-rule:nonzero;stroke:none"
             d="m 0,0 6.093,-7.319 0,1.522 7.246,0 0,11.594 -7.246,0 0,1.305 L 0,0 Z" /></g><g
           transform="translate(61.9341,275.2931)"
           id="g116"><path
             id="path118"
             style="fill:#383737;fill-opacity:1;fill-rule:nonzero;stroke:none"
             d="m 0,0 7.319,6.093 -1.522,0 0,7.246 -11.594,0 0,-7.246 -1.305,0 L 0,0 Z" /></g></g></g></g></svg>