<svg xmlns="http://www.w3.org/2000/svg" viewBox="0 0 580.38 103.421"><path d="M561.867 103.421V55.246c0-.243.005-.487-.001-.73-.013-.495-.21-1.077-.609-1.16-.453-.094-.952-.651-1.502-.076-.224.234-.748.128-.808.622-.624.351-.486.951-.486 1.502l-.001 46.472c0 .324-.012.649.004.973.013.268-.102.358-.354.332-.12-.013-.243-.002-.365-.002-5.596 0-11.192.001-16.788-.001-.74 0-.746-.005-.746-.784l-.001-24.817c0-7.624.001-15.247-.005-22.871 0-.308.029-.703-.139-.904a3.842 3.842 0 0 0-1.181-.938c-.223-.114-.608-.002-.885.101-.812.302-1.218.908-1.198 1.786.005.203.001.406.001.608v46.472c0 1.103-.001 1.105-1.034 1.105h-15.693c-.203 0-.409-.023-.608.005-.421.058-.46-.176-.432-.5.018-.201.003-.405.003-.608v-65.45c0-.162-.002-.324 0-.487.007-.595.008-.605.56-.605 8.029-.002 16.058-.011 24.087.013.832.002 1.629.322 2.407.635 1.22.491 2.396 1.04 3.288 2.061.142.162.389.228.578.353.235.155.536.506.673.448.245-.103.397-.435.566-.698.398-.622 1.072-.99 1.722-1.36 1.396-.796 2.862-1.232 4.488-1.22 4.177.031 8.354.021 12.53.005 1.488-.006 2.895.397 4.284.828 1.556.483 2.855 1.662 4.084 3.044.93 1.046 1.222 2.34 1.771 3.536.092.201.011.476.04.714.052.418-.186.888.224 1.248.041.036.048.186.01.228-.477.525-.224 1.158-.225 1.729-.016 18.856-.013 37.712-.013 56.568-6.079-.002-12.162-.002-18.246-.002zm-38.933-34.287l.001 29.679c0 .706.006.712.695.713 3 .003 6.001.003 9.001-.002.397-.001.941.11 1.15-.099.209-.208.1-.752.1-1.149.003-14.84.004-29.68.001-44.519 0-1.507.781-2.564 1.949-3.377 1.353-.942 2.919-.727 4.438-.735 1.239.566 2.316 1.379 2.826 2.643.352.871.54 1.829.539 2.825-.023 14.394-.016 28.788-.016 43.181 0 .243.035.493-.007.728-.087.484.153.515.548.514 3.527-.014 7.055-.006 10.582-.009.549-.001.556-.01.556-.607.002-5.19.001-10.38.001-15.569 0-9.731-.001-19.462.003-29.193 0-.354-.042-.747.092-1.055.475-1.096 1.246-1.935 2.281-2.574.837-.516 1.775-.503 2.661-.605 1.415-.162 2.714.247 3.637 1.457.098.128.239.222.339.348.093.118.193.249.228.39.22.895.507 1.762.506 2.716-.02 14.475-.013 28.95-.013 43.425 0 .243.022.489-.005.729-.045.4.034.566.511.554 1.58-.04 3.162-.015 4.743-.015 2.068 0 4.136-.008 6.203.008.357.003.517-.078.476-.461-.03-.281-.006-.567-.006-.851V69.153c0-8.109-.001-16.218.001-24.328 0-.742-.182-1.425-.465-2.119-.47-1.153-1.151-2.103-2.246-2.689-.762-.408-1.532-.84-2.45-.839-5.23.006-10.461.001-15.691.009-.301.001-.594.079-.898.163-1.807.5-3.189 1.602-4.348 2.982-.391.465-.912.956-.918 1.679-.001.094-.097.186-.15.279-.11-.076-.269-.127-.323-.232-.698-1.361-1.464-2.625-2.713-3.616-1.501-1.19-3.089-1.984-5.023-1.991-1.784-.007-3.572.07-5.351-.021-1.808-.093-3.573.324-5.374.278-2.31-.059-4.622-.014-6.933-.014-.284 0-.571-.024-.85.013-.105.014-.262.162-.273.262-.035.321-.013.647-.013.972-.002 9.731-.002 19.462-.002 29.193zM57.372.005c11.802 0 23.603-.02 35.404.018 2.13.007 4.065.824 5.899 1.9 1.323.776 2.396 1.828 3.389 2.951a11.55 11.55 0 0 1 2.335 4.134c.49 1.52.75 3.071.746 4.684-.023 9.206-.007 18.412-.019 27.618-.001.724.147 1.169.873 1.597 1.645.97 3.037 2.311 4.281 3.758 1.42 1.651 2.358 3.62 3.369 5.533.162 1.133.581 2.202.783 3.338.3 1.685.178 3.351.16 5.018-.013 1.248-.404 2.475-.802 3.67-.54 1.624-1.253 3.139-2.298 4.531-1.236 1.645-2.075 2.605-3.608 3.841-.755.609-1.436 1.287-2.37 1.639-.24.09-.395.333-.391.676.022 2.068.018 4.137.003 6.205-.002.314.148.334.388.444a11.507 11.507 0 0 1 2.856 1.895c1.331 1.195 2.233 2.711 2.857 4.401.533 1.445.49 2.932.478 4.425-.003.446.038.897-.012 1.337-.046.411-.181.813-.287 1.216-.171.655-.64 1.204-.687 1.905-.63.494-.777 1.317-1.358 1.882-1.85 1.796-1.935 2.157-4.662 3.405-.485.222-.994.339-1.525.441-2.112.406-4.235.169-6.352.212-2.108.043-4.218.009-6.326.009H68.11c-.284 0-.571.027-.851-.007-.341-.041-.57-.22-.572-.611-.006-1.766-.603-3.35-1.45-4.875-.92-1.656-2.26-2.838-3.881-3.774-.454-.262-1.027-.033-1.391-.467-2.064-.397-4.101-.384-6.118.303-2.004.682-4.03 2.68-4.915 4.821-.51 1.232-.992 2.48-.985 3.852.003.585-.177.736-.79.756-.243.008-.487.001-.73.001-10.99 0-21.981.01-32.971-.008-2.554-.004-4.75-.946-6.728-2.584-.705-.584-1.288-1.245-1.824-1.932-.836-1.071-1.35-2.344-1.724-3.657-.446-1.568-.368-3.198-.192-4.759.189-1.676.778-3.308 1.873-4.684 1.637-2.057 2.187-2.302 4.362-3.527.217-.122.284-.192.284-.406-.003-2.068-.01-4.137.005-6.205.003-.382-.157-.567-.484-.714-1.22-.547-2.191-1.45-3.171-2.321-1.297-1.153-2.353-2.508-3.301-3.974-.813-1.257-1.355-2.606-1.801-4.004-.458-1.438-.819-2.903-.746-4.439.034-.728-.017-1.461.01-2.19.079-2.086.577-4.068 1.448-5.969.749-1.634 1.673-3.175 2.804-4.546 1.261-1.528 2.733-2.896 4.45-3.915.62-.368.792-.758.791-1.409-.012-9.449-.006-18.899-.01-28.348-.001-1.483.334-2.905.816-4.287.628-1.8 1.652-3.35 2.987-4.732 1.289-1.335 2.801-2.298 4.44-3.106.753-.371 1.595-.45 2.374-.732C20.96-.066 21.83 0 22.696 0c11.559.005 23.117.005 34.676.005zm-.053 4.624c-11.679 0-23.358.002-35.037-.004-1.139-.001-2.199.317-3.202.79-1.042.492-1.855 1.306-2.646 2.135-1.47 1.541-2.273 3.41-2.283 5.494-.05 10.341-.023 20.683-.023 31.024 0 .284-.013.569.004.851.015.257-.128.267-.33.363-1.339.636-2.664 1.332-3.788 2.297-1.943 1.668-3.569 3.614-4.562 6.009a10.58 10.58 0 0 0-.79 3.193c-.1 1.249-.025 2.513-.021 3.77.001.154.001.323.059.461.38.904.489 1.885.877 2.8.346.816.827 1.532 1.283 2.264.701 1.126 1.731 1.978 2.651 2.92.465.476 1.066.755 1.592 1.137.81.589 1.739.908 2.615 1.341.274.135.427.204.421.552-.025 1.338-.01 2.676-.01 4.015 0 2.798-.004 5.596.006 8.395.001.33-.025.564-.438.491-.441.504-1.094.166-1.649.432-.789.379-1.558.734-2.282 1.253-1.433 1.029-2.027 2.46-2.196 4.12-.069.684 0 1.379-.015 2.068-.017.753.408 1.378.614 2.062.136.451.565.835.921 1.191s.766.666 1.184.95c1.038.703 2.136 1.094 3.451 1.088 9.692-.044 19.385-.024 29.077-.024.284 0 .57-.024.851.006.319.034.357-.127.443-.389.185-.568.429-1.121.696-1.657 1.089-2.182 2.47-4.122 4.518-5.534 2.198-1.516 4.625-2.323 7.28-2.387 1.06-.025 2.114-.022 3.193.174 1.179.214 2.265.597 3.366 1.01 2.281.855 3.961 2.455 5.327 4.389.801 1.134 1.493 2.354 1.87 3.723.167.609.296.663 1.004.663 10.098.001 20.196.002 30.294-.005.302 0 .602-.078.902-.149.786-.186 1.367-.66 1.99-1.084.451-.306.979-.602 1.258-1.039.941-1.473 1.409-2.27 1.294-3.964-.055-.822.044-1.642-.238-2.458-.607-1.752-1.954-3.042-3.638-3.75-.75-.315-1.529-.412-2.279-.659-.35-.116-.428-.193-.427-.523.01-3.407.006-6.813.006-10.22 0-.73.023-1.461-.01-2.189-.016-.349.167-.401.415-.557.527-.33 1.176-.348 1.666-.68 1.597-1.083 3.185-2.189 4.434-3.69.735-.883 1.424-1.826 1.873-2.873.664-1.548 1.215-3.151 1.118-4.893-.038-.687.025-1.38-.015-2.067-.041-.699-.056-1.422-.253-2.084-.553-1.86-1.38-3.632-2.633-5.101-1.578-1.851-3.376-3.517-5.672-4.477-.702-.293-.949-.622-.947-1.416.036-10.382.016-20.764.039-31.145.002-.722-.159-1.399-.367-2.047-.459-1.433-1.084-2.8-2.299-3.793-.187-.153-.342-.346-.519-.513-1.398-1.325-3.075-2.048-4.984-2.052-11.68-.02-23.36-.008-35.039-.008zM397.619 64.858c0 9.486.013 18.973-.013 28.459-.005 1.576-.325 3.129-1.109 4.52-1.347 2.39-3.344 4.021-5.969 4.849a10.425 10.425 0 0 1-3.202.505c-8.554-.026-17.108-.014-25.662-.014-.203 0-.405.002-.608 0-.658-.008-.664-.008-.665-.621-.003-1.986-.001-3.973-.001-5.959 0-3.122-.001-6.243.001-9.365 0-.589.007-.598.564-.599 3.851-.003 7.703-.002 11.554-.002 1.905 0 3.811-.005 5.716.005.295.002.432-.052.422-.392-.028-.889-.017-1.779-.022-2.669-.877-.036-1.754-.098-2.631-.102-2.757-.013-5.514.017-8.27-.016-1.062-.013-2.153-.02-3.176-.262-1.592-.378-3.082-.947-4.349-2.16-1.408-1.347-2.037-3.037-2.694-4.743-.23-.598-.266-1.299-.267-1.953-.015-12.73-.011-25.459-.011-38.189 0-.162.019-.327-.004-.486-.052-.361.153-.398.43-.378.161.012.324.002.486.002h16.662c.203 0 .406.011.608-.003.285-.019.326.136.314.372-.015.283-.004.567-.004.851v28.824c0 .243.01.487-.003.73-.013.231.022.382.31.376 1.007-.024 2.015-.033 3.022-.048.026-.922.073-1.844.074-2.765.006-9.081.003-18.162.003-27.243 0-.243.013-.487-.004-.729-.016-.241.038-.386.319-.367.202.014.405.003.608.003h16.662c.162 0 .325.011.486-.002.285-.024.464.031.427.383-.029.281-.006.567-.006.851.002 9.445.002 18.891.002 28.337zm-3.164 2.026v-1.703c0-8.514.001-17.028-.001-25.542 0-.693-.007-.699-.708-.699-3.527-.002-7.055-.001-10.582-.001-.122 0-.261-.037-.36.01-.11.053-.249.176-.26.281-.034.321-.012.647-.012.972 0 8.392-.005 16.785.008 25.177.001.718-.156 1.34-.471 1.999-.795 1.659-2.15 2.317-3.869 2.465-.304.026-.637-.112-.894.212-.065.082-.378.095-.452.018-.336-.347-.748-.182-1.127-.236a2.15 2.15 0 0 1-.539-.164c-1.736-.754-2.646-2.025-2.641-3.974.021-8.676.009-17.353.008-26.029 0-.722-.005-.728-.678-.729-3.446-.003-6.892-.001-10.339-.001-.081 0-.163.007-.243-.001-.287-.031-.461.034-.425.384.029.281.006.567.006.851 0 10.055-.01 20.11.012 30.164.003 1.263-.067 2.519.178 3.801.218 1.141.473 2.226 1.029 3.234 1.143 2.07 2.928 3.146 5.272 3.165 4.662.038 9.325.011 13.987.011.284 0 .568.012.851-.003.271-.015.332.109.33.357-.009 1.581-.005 3.162-.005 4.743 0 .122.039.26-.006.362-.384.871-.677 1.848-1.463 2.419-.976.71-2.015 1.374-3.319 1.371-4.257-.01-8.514-.004-12.771-.004-.284 0-.568.012-.851-.004-.271-.015-.331.108-.331.357.007 3 .01 6-.004 9.001-.002.352.147.409.43.38.08-.008.162-.001.243-.001 8.19 0 16.379.001 24.569-.006.302 0 .593-.069.9-.16.755-.222 1.375-.603 2.01-1.039 1.483-1.019 2.515-2.819 2.515-4.559.003-8.959.003-17.919.003-26.879zM353.819 57.019v11.314c0 .284.025.571-.017.849-.01.069-.291.187-.356.144-1.277-.844-2.533-1.718-3.807-2.566-2.001-1.333-4.012-2.649-6.017-3.976-2.069-1.369-4.133-2.746-6.206-4.109a27.487 27.487 0 0 0-1.656-.995c-.309-.173-.451-.383-.442-.756.025-1.054.014-2.109.004-3.163-.002-.23-.02-.475-.103-.686-.394-1.001-1.132-1.276-2.313-.888-1.051.344-1.222.564-1.228 1.639-.007 1.338.02 2.677-.015 4.014-.01.378.105.66.398.798 1.462.688 2.661 1.788 4.046 2.576 1.951 1.11 3.713 2.503 5.689 3.577 1.338.727 2.538 1.707 3.814 2.551.919.608 1.872 1.165 2.792 1.772 1.179.778 2.26 1.639 3.081 2.843.496.727 1.099 1.383 1.429 2.214.293.737.519 1.489.703 2.271.281 1.194.189 2.374.196 3.558.023 4.298.051 8.598-.01 12.896-.028 1.967-.49 3.895-1.71 5.479-.863 1.12-1.905 2.108-3.148 2.871-1.397.858-2.958 1.286-4.455 1.882-.21.084-.471.049-.709.049-6.61.002-13.22.011-19.83-.012-.729-.003-1.49-.088-2.178-.314-.921-.302-1.928-.608-2.644-1.213-1.762-1.489-3.324-3.176-4.012-5.496a34.18 34.18 0 0 1-.77-3.098c-.181-.918-.176-1.808-.178-2.708-.019-6.164-.01-12.328-.01-18.492 0-.324-.01-.649.003-.973.013-.333.128-.394.457-.198 1.238.736 2.465 1.49 3.699 2.232 1.006.605 2.023 1.193 3.021 1.81 1.326.819 2.634 1.667 3.958 2.489.901.559 1.815 1.099 2.727 1.64 1.236.734 2.47 1.472 3.721 2.181.257.145.172.331.173.506.009 1.298-.003 2.595.007 3.893.008 1.155.554 1.7 1.723 1.683.338-.005.668.087 1.032-.154.588-.39.868-.893.704-1.614-.061-.267-.051-.553-.052-.83-.005-1.216-.009-2.433.002-3.65.004-.394-.123-.602-.504-.817-1.65-.928-3.266-1.918-4.883-2.903-1.783-1.086-3.547-2.201-5.332-3.285-.904-.549-1.849-1.029-2.748-1.585-1.347-.835-2.73-1.641-3.819-2.813-1.417-1.526-2.671-3.175-3.449-5.137-.442-.276.061-.902-.43-1.16-.084-.736-.238-1.471-.241-2.207-.021-5.11.008-10.219-.033-15.329-.006-.726.259-1.381.274-2.089.015-.69.253-1.341.479-1.988.317-.908.67-1.797 1.425-2.451.487-.421.831-.962 1.33-1.398 1.072-.936 2.317-1.462 3.607-1.902a9.386 9.386 0 0 1 3.077-.515c5.799.019 11.598.036 17.397-.009a17.014 17.014 0 0 1 4.291.539c1.347.339 2.681.834 3.734 1.846.451.434.971.796 1.44 1.212 1.217 1.078 1.895 2.495 2.373 4.002.315.992.517 2.014.51 3.079-.026 3.689-.011 7.379-.011 11.07zm-19.634 42.752c3.081 0 6.163.002 9.244-.002.664-.001 1.31-.081 1.974-.203 1.532-.283 2.621-1.114 3.333-1.927 1.242-1.419 1.877-3.166 1.899-5.034.059-5.027.021-10.055.017-15.082 0-.273.005-.564-.08-.817a8.267 8.267 0 0 0-1.872-3.122c-1.2-1.263-2.573-2.302-4.021-3.238-.739-.478-1.43-1.058-2.197-1.446-1.775-.897-3.303-2.161-5.01-3.157-2.072-1.209-4.03-2.614-6.04-3.928-.636-.416-1.269-.841-1.933-1.209-.494-.274-.767-.583-.756-1.199.036-2.067.015-4.135.013-6.203a3.829 3.829 0 0 1 .537-1.959 4.272 4.272 0 0 1 1.751-1.572c.824-.404 1.754-.446 2.606-.756.386.394.916.125 1.341.287.489.187 1.012.376 1.405.702.917.76 1.62 1.68 1.608 2.966-.006.608.027 1.218-.009 1.824-.037.631.185 1.024.783 1.292.651.292 1.262.682 1.873 1.057 1.521.932 3.034 1.879 4.548 2.822.771.481 1.604.844 2.358 1.369.863.601 1.827 1.057 2.752 1.565.574.316.557.306.596-.252.055-.795-.277-1.529-.27-2.332.043-4.743.011-9.487.027-14.231.006-1.834-.719-3.361-1.912-4.679-.995-1.1-2.252-1.848-3.639-2.361-.64-.237-1.289-.488-1.986-.489-6.568-.005-13.136-.001-19.704-.006-.746-.001-1.461.224-2.09.532a6.965 6.965 0 0 0-3.013 2.828c-.514.909-.986 1.903-.99 2.988-.019 5.514-.014 11.028-.002 16.542.001.652.219 1.268.478 1.867.767 1.779 2.12 3.093 3.49 4.388.33.312.744.537 1.131.784 1.442.92 2.896 1.823 4.332 2.753.803.521 1.531 1.181 2.38 1.603.934.464 1.746 1.08 2.599 1.653a47.42 47.42 0 0 0 2.703 1.702c1.249.723 2.323 1.713 3.669 2.29.414.177.659.596.646 1.177-.049 2.188-.018 4.378-.022 6.568 0 .309-.088.579-.209.885-.612 1.543-1.883 2.318-3.267 2.947a3.524 3.524 0 0 1-1.687.294c-.704-.062-1.451-.223-2.071-.549-1.772-.929-2.739-2.669-2.74-4.665 0-.608-.029-1.218.011-1.824.023-.341-.126-.573-.368-.697-1.583-.812-3.091-1.751-4.609-2.674a297.402 297.402 0 0 0-3.022-1.806 200.851 200.851 0 0 0-2.938-1.717c-.458-.261-.496-.226-.511.318-.111 4.02.181 8.043-.207 12.066a18.479 18.479 0 0 0 .168 4.89c.193 1.128.539 2.192 1.202 3.027 1.653 2.085 3.835 3.209 6.581 3.162 3.038-.052 6.079-.012 9.12-.012zM440.932 57.068v11.311c0 .203.009.406-.004.608-.007.111-.048.313-.081.314-.137.006-.3-.012-.411-.086-2.006-1.327-4.003-2.669-6.009-3.996-2.067-1.367-4.143-2.721-6.214-4.082-1.753-1.153-3.48-2.346-5.271-3.436-.442-.269-.509-.524-.506-.937.008-.973.008-1.946.001-2.919-.01-1.372-1.016-2.102-2.358-1.72-1.004.286-1.284.655-1.289 1.735-.006 1.338.011 2.676-.01 4.013-.006.364.121.594.42.776 1.855 1.131 3.65 2.357 5.479 3.527 1.638 1.048 3.224 2.178 4.882 3.185 1.403.853 2.758 1.766 4.116 2.683.529.357 1.145.554 1.681.939 2.155 1.549 2.82 2.188 4.115 4.224.625.983.959 2.314 1.251 3.501.274 1.115.194 2.21.2 3.313.023 4.135.014 8.27.006 12.405-.002 1.293-.383 3.25-.988 4.698a5.647 5.647 0 0 1-1.055 1.624c-1.04 1.12-2.122 2.178-3.542 2.876-1.22.6-2.511.99-3.755 1.511-.207.087-.473.04-.712.04-6.608.002-13.216.03-19.824-.026-1.162-.01-2.327-.289-3.44-.772-.88-.382-1.624-.884-2.269-1.57-.305-.325-.607-.658-.949-.942-.798-.665-1.292-1.549-1.698-2.463-.379-.853-.774-1.698-.972-2.643-.29-1.388-.47-2.764-.466-4.183.019-6.446.007-12.892.01-19.338 0-.796.074-.844.758-.421 1.616.999 3.212 2.03 4.83 3.024 1.289.793 2.606 1.541 3.899 2.328 1.2.731 2.378 1.498 3.578 2.229.936.57 1.892 1.107 2.837 1.664.1.059.169.173.271.229 1.345.733 1.346.731 1.346 2.079 0 .649-.033 1.299.01 1.945a9.82 9.82 0 0 0 .257 1.716c.153.616.799 1.055 1.465 1.084.243.01.487.015.729-.001.852-.055 1.184-.398 1.187-1.234.005-1.662-.005-3.324.005-4.986.003-.441-.164-.631-.584-.863-1.361-.751-2.647-1.64-3.975-2.452-.935-.571-1.902-1.09-2.838-1.659-1.524-.927-3.028-1.887-4.553-2.811-.709-.429-1.464-.782-2.171-1.214-1.605-.979-3.052-2.11-4.203-3.655-.851-1.143-1.656-2.294-2.282-3.566-.3-.609-.434-1.281-.606-1.943-.289-1.113-.19-2.212-.195-3.315-.021-4.743-.04-9.487.007-14.229.018-1.849.416-3.666 1.47-5.216.572-.841 1.033-1.836 2.072-2.301.31-.139.531-.467.816-.676 1.123-.827 2.474-1.069 3.764-1.484.744-.24 1.473-.219 2.217-.22 6.081-.004 12.162-.036 18.243.02 1.64.015 3.244.383 4.772 1.084 1.854.85 3.071 1.772 4.128 2.944.897.994 1.921 3.23 2.166 4.573.075.414.195.822.233 1.238.041.442.009.891.009 1.337v10.582zm-19.633 42.703c3.203 0 6.406-.005 9.61.003.822.002 1.581-.201 2.368-.441.633-.193 1.135-.451 1.579-.903.135-.138.326-.223.452-.366.424-.48.869-.949 1.236-1.472.837-1.191 1.171-2.602 1.193-3.992.08-5.027.031-10.055.031-15.083 0-.116-.419-1.623-.487-1.744-.453-.805-.926-1.589-1.562-2.275-1.394-1.503-3.098-2.587-4.816-3.654-1.875-1.164-3.672-2.446-5.569-3.58-1.83-1.095-3.603-2.289-5.367-3.489-1.134-.771-2.315-1.459-3.472-2.191-.403-.255-.654-.615-.643-1.187.042-2.148.023-4.298.014-6.447a2.967 2.967 0 0 1 .611-1.808c1.205-1.565 2.856-2.167 4.802-2.009a3.526 3.526 0 0 1 1.619.515c.711.437 1.367.862 1.773 1.707.4.832.502 1.641.432 2.494-.096 1.164.061 2.123 1.408 2.425.033.007.054.062.087.082 1.484.919 2.966 1.841 4.456 2.751 1.002.612 2.01 1.212 3.023 1.806 1.075.631 2.159 1.248 3.239 1.87.122.07.246.137.37.206.028-.151.08-.301.08-.452.004-5.596.012-11.191-.008-16.787-.002-.613-.03-1.285-.273-1.827-.535-1.195-1.182-2.383-2.227-3.199-.946-.739-1.92-1.48-3.139-1.805-.661-.176-1.294-.466-1.993-.466-6.528-.004-13.056-.002-19.584-.002-.307 0-1.885.431-2.191.583-1.223.603-2.228 1.496-2.866 2.668-.594 1.09-1.07 2.255-1.063 3.575.03 5.271.042 10.542-.009 15.813-.013 1.272.45 2.371 1.098 3.315 1.004 1.464 2.226 2.79 3.734 3.793.377.251.794.442 1.17.695 1.049.706 2.023 1.551 3.14 2.119 1.772.901 3.343 2.106 5.004 3.163 2.253 1.434 4.587 2.761 6.69 4.426.632.046.602.5.601.953-.005 2.108-.011 4.217.004 6.325.004.56-.187 1.054-.427 1.528-.689 1.362-1.907 2.101-3.269 2.615-.459.173-1.016.33-1.468.228-1.218-.275-2.462-.471-3.385-1.538-.908-1.049-1.468-2.158-1.435-3.552.015-.648.005-1.297.001-1.946-.001-.226-.039-.334-.302-.508-1.553-1.028-3.204-1.89-4.773-2.886-.96-.61-1.935-1.198-2.911-1.782a159.617 159.617 0 0 0-2.937-1.719c-.459-.262-.508-.227-.51.317-.005 1.743-.07 3.49.017 5.23.088 1.766-.352 3.494-.261 5.252.115 2.195-.249 4.404.228 6.592.146.668.552 2.279 1.001 2.743.716.74 1.347 1.57 2.268 2.11 1.394.817 2.865 1.234 4.489 1.216 3.037-.031 6.078-.008 9.119-.008zM240.67 56.625c0 4.055.002 8.111-.005 12.166 0 .186-.074.373-.113.559-.167-.083-.346-.15-.5-.253-1.269-.855-2.527-1.727-3.801-2.576-2-1.334-4.009-2.655-6.015-3.98a1967.773 1967.773 0 0 0-5.448-3.59c-.54-.354-1.079-.715-1.644-1.026-.547-.301-.789-.703-.736-1.339.05-.604.044-1.218.002-1.823-.043-.617-.093-1.248-.264-1.836-.137-.47-.525-.782-1.068-.855-.567-.076-1.091.089-1.596.27-.274.098-.571.354-.69.615-.169.372-.353.873-.234 1.216.355 1.023.138 2.052.21 3.073.011.161.026.329-.003.486-.105.579.231.942.667 1.147 1.392.655 2.526 1.705 3.853 2.448 1.994 1.116 3.759 2.583 5.777 3.667 1.006.54 1.894 1.297 2.856 1.923 1.274.829 2.598 1.585 3.844 2.454.681.475 1.221 1.147 1.868 1.677.871.713 1.512 1.651 2.005 2.587.568 1.078 1.048 2.27 1.043 3.581-.023 5.515.011 11.031-.023 16.545-.01 1.533-.768 3.433-1.82 4.845-1.272 1.706-2.948 2.77-4.833 3.596-1.267.555-2.558.987-3.975.983-6.326-.016-12.653.019-18.979-.026-1.53-.011-3.023-.397-4.36-1.202a10.368 10.368 0 0 1-2.79-2.461c-.681-.853-1.1-1.826-1.629-2.745-.433-.752-.561-1.638-.762-2.477-.153-.639-.208-1.306-.249-1.964-.04-.646-.009-1.297-.009-1.946V71.75c0-.324-.023-.652.016-.971.01-.082.294-.222.326-.194.634.569 1.387.944 2.118 1.361a97.975 97.975 0 0 1 3.024 1.804c1.326.82 2.635 1.666 3.958 2.49a445.47 445.47 0 0 0 3.782 2.323c1.359.828 2.714 1.666 4.094 2.457.26.149.196.311.198.484.008 1.216.04 2.434-.008 3.649-.034.868.453 1.428 1.053 1.861.272.196.769.1 1.165.1.887 0 1.441-.572 1.444-1.483.005-1.622.002-3.244.002-4.866 0-.238-.081-.324-.318-.493-1.121-.796-2.351-1.406-3.502-2.147-1.369-.882-2.785-1.692-4.179-2.534-1.233-.745-2.464-1.492-3.697-2.236-1.427-.861-2.959-1.592-4.251-2.622-1.042-.831-1.989-1.827-2.828-2.924-.707-.925-1.34-1.873-1.833-2.905-.475-.997-.808-2.058-.807-3.194.004-5.799-.053-11.599.031-17.397.031-2.15.827-4.104 2.36-5.704.872-.91 1.827-1.678 2.964-2.247.826-.414 1.729-.525 2.577-.831.88-.318 1.793-.239 2.698-.24 5.961-.004 11.923-.01 17.884.005 1.239.003 2.44.297 3.632.622 1.181.322 2.318.847 3.214 1.601 1.343 1.129 2.739 2.297 3.389 4.037.468 1.253.964 2.473.939 3.879-.068 3.728-.024 7.46-.024 11.19zm-19.565 43.146c3.284 0 6.568.021 9.852-.013a6.511 6.511 0 0 0 2.874-.691c.507-.253.904-.582 1.313-.941 1.694-1.486 2.388-3.363 2.374-5.592-.033-5.068-.027-10.136.005-15.204.005-.867-.261-1.576-.739-2.255-.618-.879-1.277-1.713-2.133-2.382-.589-.461-1.11-1.013-1.716-1.448-1.244-.891-2.475-1.817-3.803-2.567-1.595-.901-3.07-1.975-4.62-2.938-1.008-.626-1.956-1.35-2.968-1.948a51.84 51.84 0 0 1-2.591-1.664c-.883-.595-1.824-1.098-2.702-1.708-.24-.166-.411-.219-.409-.559.017-2.392-.014-4.784.021-7.176.014-.965.431-1.799 1.194-2.419 1.136-.924 2.877-1.318 4.326-1.121 2.43.33 3.699 2.604 3.715 4.358.005.568.006 1.135-.001 1.703-.004.288.063.401.377.577 1.419.793 2.791 1.671 4.206 2.477 1.55.883 3.033 1.88 4.553 2.816a171 171 0 0 0 3.022 1.809.787.787 0 0 0 .412.087c.033-.001.081-.204.082-.314.005-1.5.024-3.001 0-4.5-.071-4.426-.158-8.853-.24-13.279-.008-.427-.528-1.827-.782-2.231a8.777 8.777 0 0 0-2.837-2.805c-1.3-.802-2.702-1.397-4.284-1.396-6.365.003-12.731.006-19.096-.005-.677-.001-1.254.255-1.875.466-1.352.46-2.279 1.453-3.08 2.488-.677.875-1.153 1.947-1.148 3.164.023 5.676.015 11.352.003 17.028-.001.638.193 1.193.443 1.766.62 1.419 1.585 2.607 2.711 3.595.637.559 1.311 1.137 2.134 1.548 1.322.66 2.467 1.666 3.742 2.434 1.302.785 2.545 1.658 3.842 2.451 2.7 1.651 5.3 3.467 7.941 5.216.633.038.611.488.61.945-.006 1.987.026 3.974-.021 5.96-.013.555-.228 1.112-.395 1.654-.397 1.292-1.441 1.99-2.557 2.528-.668.322-1.465.59-2.182.544-.797-.051-1.632-.217-2.386-.665-1.59-.945-2.454-2.264-2.439-4.132.006-.77.009-1.541-.007-2.311-.003-.13-.071-.316-.17-.377a149.235 149.235 0 0 0-2.831-1.677c-.947-.55-1.91-1.073-2.847-1.639-1.494-.902-2.97-1.835-4.46-2.744-.32-.195-.666-.346-1-.517-.121.396-.272.786-.353 1.189-.055.273-.01.566-.01.849 0 4.744.016 9.487-.01 14.231-.007 1.312.377 2.459.956 3.625.704 1.415 1.882 2.306 3.179 2.926a8.154 8.154 0 0 0 3.687.801c3.035-.06 6.077-.017 9.118-.017zM243.833 69.141V36.547c0-.324-.022-.651.012-.972.011-.104.154-.225.265-.277.1-.047.239-.01.36-.01 5.595 0 11.189.001 16.784-.001.678 0 .585-.029.585.581v18.851c0 .324-.025.651.008.972.026.256-.19.661.156.737.309.068.42-.304.601-.562.427-.606.994-1.109 1.46-1.704.328-.418.457-.786.457-1.284-.009-5.473-.006-10.946-.006-16.419 0-.284.012-.568-.003-.851-.015-.274.115-.332.362-.326.608.014 1.216.005 1.824.005 4.986 0 9.973-.001 14.959.001.858 0 .864.004.864.787.001 7.905-.003 15.811.009 23.716.001.632-.219 1.117-.641 1.564-.93.987-1.884 1.956-2.744 3.001-1.029 1.252-2.049 2.507-3.189 3.663-.5.508-.482.898-.033 1.428.89 1.05 1.788 2.093 2.664 3.154 1.172 1.421 2.248 2.922 3.528 4.254.381.397.413.89.412 1.412-.01 4.946-.006 9.892-.006 14.838v9c0 .646.059.584-.583.583-5.635-.001-11.27-.006-16.905.012-.445.002-.53-.111-.529-.538.016-5.716-.007-11.433.027-17.148.006-.962-.15-1.664-1.13-2.096-.45-.198-.752-.722-1.137-1.082-.067-.062-.216-.06-.322-.045-.043.006-.098.123-.1.191-.01.324-.005.649-.005.973 0 6.446-.001 12.892.002 19.338 0 .736.031.64-.649.64-5.595-.001-11.189.001-16.784-.002-.566 0-.574-.009-.574-.589-.002-8.797-.001-17.594-.001-26.392.002-2.268.002-4.539.002-6.809zm3.163-.272l.001 29.441c0 .722.005.729.679.729 3.366.003 6.732.001 10.097.001.122 0 .257.034.361-.009.115-.048.274-.158.285-.255.036-.32.014-.647.014-.972V75.419c0-.324-.005-.649.005-.973.002-.068.061-.135.094-.203.057.042.12.078.171.126 1.659 1.576 3.319 3.151 4.974 4.732.41.392.793.814 1.209 1.199.312.289.648.554.989.811.821.62 1.664 1.336 1.318 2.594 0 4.947-.001 9.895.001 14.842 0 .727.005.734.673.734 3.609.003 7.218.002 10.827 0 .659-.001.664-.008.664-.743l.001-20.073c0-.162.012-.326-.004-.486-.011-.111-.033-.237-.096-.323-.276-.376-.536-.772-.862-1.101-1.087-1.096-2.03-2.312-3.012-3.497-.736-.887-1.548-1.711-2.312-2.575-.308-.349-.552-.756-.869-1.095-.61-.654-.613-.633-.327-.954.314-.351.609-.719.91-1.082.074-.089.13-.195.212-.276 1.184-1.17 2.225-2.463 3.276-3.75.729-.892 1.577-1.688 2.299-2.585.37-.46.803-.894.8-1.616-.027-6.529-.015-13.058-.017-19.586 0-.591-.007-.6-.563-.6-3.366-.003-6.732-.002-10.097-.002-.081 0-.18-.03-.239.006-.11.068-.284.178-.279.262.069 1.276-.216 2.532-.236 3.793-.058 3.77-.033 7.542-.01 11.313.004.72-.221 1.273-.727 1.775-2.648 2.628-5.281 5.271-7.919 7.909-.082.082-.172.158-.258.236-.037-.106-.103-.212-.106-.319-.092-3.535-.014-7.067-.191-10.608-.231-4.611-.056-9.243-.057-13.866 0-.74-.005-.745-.785-.745-2.879-.002-5.758-.001-8.638-.001-.608 0-1.218.026-1.824-.009-.414-.024-.466.168-.437.5.021.241.004.486.004.729l.001 28.957zM482.785 69.253V36.525c0-.324-.023-.651.013-.972.011-.098.173-.235.283-.253.237-.039.485-.012.728-.012h29.808c.243 0 .487.012.73-.003.282-.017.321.129.319.368-.009 1.257-.004 2.514-.004 3.772 0 4.299.001 8.598-.001 12.896 0 .721-.005.728-.679.729-3.609.002-7.219.001-10.828.001-.243 0-.488.014-.73-.004-.294-.022-.444.047-.423.39.029.485.007.973.007 1.46 0 1.825.009 3.65-.008 5.475-.003.363.089.476.465.474 3.609-.014 7.219-.008 10.828-.008.284 0 .571-.025.85.013.102.014.239.165.263.274.043.193.012.403.012.606v15.938c0 .162-.019.327.004.486.057.394-.133.455-.481.453-2.23-.014-4.461-.007-6.691-.007-1.744 0-3.488.006-5.232-.005-.322-.002-.51.011-.506.432.021 2.23.021 4.461 0 6.691-.004.424.188.431.508.43 3.772-.008 7.543-.005 11.315-.005.243 0 .488.013.73-.004.25-.017.379.058.357.329-.013.161-.002.324-.002.486v15.573c0 .679.097.65-.64.65-10.098-.002-20.196-.002-30.294-.002-.122 0-.244-.01-.365.002-.264.026-.353-.092-.338-.348.017-.283.004-.568.004-.851-.002-10.908-.002-21.817-.002-32.726zm3.65.578v29.443c0 .243.037.494-.008.729-.095.503.175.537.555.503.241-.022.486-.004.73-.004h21.17c.568 0 1.136-.009 1.703.004.276.006.437-.018.435-.378-.014-3.406-.011-6.813-.004-10.22 0-.248-.056-.374-.329-.359-.283.015-.568.003-.851.003h-11.071c-.669 0-.652.109-.651-.639.004-4.015.002-8.03.002-12.045 0-.527.01-1.055-.004-1.582-.007-.264.092-.354.349-.339.283.017.568.004.851.004 3.771 0 7.543.001 11.315-.001.62 0 .627-.007.628-.658.003-3.042.003-6.083 0-9.125-.001-.674-.007-.679-.729-.679-3.853-.002-7.705 0-11.558-.001-.846 0-.851-.003-.851-.801-.002-4.461-.002-8.922 0-13.383 0-.898.004-.902.872-.902 3.853-.001 7.705-.005 11.558.007.362.001.476-.088.475-.464-.015-3.082-.008-6.164-.008-9.246 0-.081.031-.183-.007-.239-.072-.107-.171-.241-.28-.266-.193-.043-.403-.012-.606-.012H487.37c-.203 0-.406.012-.608-.003-.272-.019-.344.109-.329.358.017.283.004.568.004.851-.002 9.816-.002 19.63-.002 29.444zM471.348 77.989v23.713c0 .284-.023.57.006.851.037.351-.14.408-.426.384-.161-.014-.324-.003-.486-.003h-17.633c-.203 0-.406-.011-.608.003-.276.019-.338-.117-.324-.363.017-.283.004-.567.004-.851V54.054c0-1.001-.002-1.002-1.014-1.003-2.189-.001-4.378-.01-6.566.009-.386.003-.457-.13-.457-.482.01-5.594.015-11.188-.007-16.781-.002-.468.144-.519.549-.518 5.553.013 35.037.007 35.037.007s.202-.013.202.611c-.009 1.175-.004 2.351-.004 3.526 0 4.135.002 8.269-.004 12.404-.001.394.094.946-.117 1.14-.224.205-.76.081-1.16.082-1.946.004-3.891.002-5.837.002-1.156 0-1.156.001-1.157 1.104v16.781c.002 2.351.002 4.702.002 7.053zm-15.817-3.523v24.078c0 .979.002.982.912.983 3.364.002 6.729.002 10.093 0 .915-.001.917-.004.917-.977 0-15.728 0-31.456.003-47.184 0-.557.046-1.115.07-1.672.561-.016 1.121-.045 1.682-.047 2.108-.006 4.216-.004 6.324 0 .26.001.448.013.447-.365-.015-3.324-.01-6.648-.005-9.972 0-.231-.023-.391-.311-.374-.242.014-.486.003-.729.003h-26.632c-.243 0-.487.012-.729-.003-.283-.017-.319.13-.318.369.006 3.243.01 6.486-.005 9.729-.002.369.173.374.441.372 1.094-.007 2.189-.003 3.284-.003 1.378 0 2.756.005 4.135-.004.281-.002.467.026.429.383-.03.281-.006.567-.006.851-.002 7.943-.002 15.888-.002 23.833zM134.334 68.934V36.343c0-.324.012-.649-.004-.973-.013-.272.11-.348.359-.328.201.016.405.003.608.003 9.08 0 18.161-.032 27.24.026 1.945.012 3.872.472 5.591 1.446 2.718 1.54 4.682 3.763 5.605 6.783.29.947.516 1.93.515 2.954-.012 15.282-.008 30.565-.008 45.847 0 .284.088.606-.016.844-.329.755-.177 1.602-.498 2.348-.223.516-.435 1.041-.712 1.528-.265.465-.6.891-.922 1.321-.303.406-.609.812-.946 1.188-1.613 1.8-3.727 2.764-5.957 3.521-.216.073-.463.079-.696.079-9.85.004-19.701.004-29.551.002-.599 0-.606-.007-.607-.679-.002-4.459-.001-8.918-.001-13.377V68.934zm3.163.35v29.442c0 .324.012.649-.004.973-.013.282.129.342.369.317.12-.012.243-.002.365-.002 8.233 0 16.465-.004 24.698.009.636.001 1.231-.17 1.797-.372 1.177-.419 2.276-.966 3.306-1.744.906-.685 1.534-1.509 2.096-2.427.653-1.066.954-2.242.954-3.497-.002-15.167-.005-30.335.007-45.502.001-.947-.205-1.827-.48-2.723-.412-1.344-1.242-2.424-2.024-3.543-.686-.08-.833-.952-1.519-1.033-.658-.683-1.611-.614-2.414-.927-.317-.123-.715-.044-1.076-.045-1.217-.003-2.433-.001-3.65-.001-1.257 0-2.515-.031-3.771.009-1.184.038-2.366.21-3.549.223-3.041.033-6.083.011-9.125.011-1.825 0-3.65.022-5.474-.015-.478-.01-.556.155-.511.554.027.24.005.486.005.729v29.564zM178.62 68.931V36.576c0-.324.012-.649-.004-.973-.013-.283.13-.322.369-.319.811.011 1.622.004 2.433.004 5.109 0 10.217-.001 15.326.001.6 0 .602.007.611.553.004.243.001.486.001.73 0 21.611 0 43.221-.002 64.832 0 .4-.023.801-.035 1.201-.434.028-.868.081-1.302.082-5.433.006-10.866.004-16.299.004-1.097 0-1.098-.001-1.098-1.04v-11.92-20.8zm15.574.299c0-9.609.001-19.218-.004-28.827 0-.394.071-.873-.123-1.152-.124-.177-.675-.068-1.034-.069-3.406-.003-6.811-.003-10.217 0-.399.001-.936-.121-1.158.085-.211.196-.114.747-.114 1.141-.004 14.231-.003 28.462-.003 42.692 0 5.149-.001 10.298.001 15.447 0 .727.005.734.673.734 3.771.002 7.541.001 11.312.001.081 0 .163-.006.243.001.279.026.469-.019.431-.378-.03-.281-.006-.567-.006-.851l-.001-28.824zM161.587 12.406c0-3.566.004-7.133-.007-10.699-.001-.338.04-.503.444-.495 1.337.026 2.675.017 4.012.004.293-.003.453.376.453.376l6.588 14.045s5.798-12.917 6.267-13.939c.149-.325.332-.489.713-.484 1.337.019 2.675.018 4.012 0 .333-.005.405.117.396.418-.018.648-.006 1.297-.006 1.945v18.967c0 .243-.013.487.003.729.017.264-.093.341-.348.339-1.175-.01-2.352-.034-3.525.01-.47.017-.521-.144-.519-.549.017-2.918.009-5.836.009-8.754 0-.324.006-.649-.005-.972-.002-.066-.072-.13-.11-.196-.043.059-.096.113-.126.178a1261.12 1261.12 0 0 0-4.381 9.614c-.195.437-.405.734-1.01.687-.695-.054-1.857-.033-2.561-.013-.702-.008-.907-.639-.907-.639l-4.986-10.542s-.03 7.644-.019 10.683c.001.335-.032.509-.441.498-1.094-.029-2.188-.007-3.282-.011-.654-.003-.661-.008-.662-.623-.002-3.323-.001-6.647-.001-9.97l-.001-.607zM262.326 12.359c0-3.485-.001-6.971.001-10.456.001-.676.007-.679.726-.681 1.216-.003 2.432.012 3.647-.009.373-.006.598.138.734.46.408.966 5.602 13 5.602 13 .066.212.15.491.314.583.251.141.039.696.462.541.194-.071.359-.383.425-.617.37-1.31 5.548-12.534 5.548-12.534.239-.436.124-1.122.598-1.305.494-.19 1.098-.119 1.654-.114 1.042.009 2.084.052 3.126.08.012 1.008.033 2.017.034 3.025.003 6.039.002 12.077.002 18.116 0 .284-.011.568.003.851.015.287-.142.314-.374.312-1.216-.008-2.432-.019-3.647.005-.38.008-.365-.189-.364-.448.005-1.337.002-2.675.002-4.012 0-1.864.003-3.728-.006-5.593-.001-.136-.083-.271-.128-.407-.057.138-.112.278-.172.415-.314.721-3.667 8.215-4.527 9.68-.14.239-.182.363-.46.36-1.175-.01-2.351-.022-3.526.006a.664.664 0 0 1-.662-.409c-.588-1.255-3.98-8.969-4.241-9.55-.077-.171-.17-.335-.256-.502-.045.175-.129.35-.129.525-.008 2.715-.004 5.431-.007 8.146-.001.563-.02 1.126-.031 1.689-.596.03-1.191.07-1.787.087-.526.015-1.054.004-1.581.003-.979-.002-.98-.002-.98-1.036V12.359zM249.55 24.063c-1.739.298-3.358-.387-4.947-1.06-.794-.336-1.544-.868-2.183-1.453-.846-.775-1.661-1.622-2.309-2.563-.588-.853-1.022-1.842-1.368-2.826-.554-1.576-.637-3.245-.479-4.892.089-.926.376-1.859.726-2.728.349-.867.841-1.688 1.353-2.475 1.221-1.875 2.946-3.189 4.997-4.001 1.232-.488 2.51-.904 3.904-.869 1.11.028 2.224.04 3.295.293.903.214 1.826.526 2.605 1.012.479.299 1.019.526 1.459.901.416.354.686.889 1.272 1.033.111.504.56.744.856 1.104.27.328.576.646.765 1.02.54 1.07 1.091 2.12 1.423 3.304.233.832.163 1.672.369 2.502.202.816-.048 1.784-.248 2.652-.347 1.513-1.011 2.897-1.865 4.208-1.4 2.149-3.577 3.594-5.873 4.377-1.19.407-2.417.619-3.752.461zm.253-4.308c.595-.043 1.236.043 1.775-.154 1.496-.547 2.902-1.183 3.911-2.596.914-1.28 1.334-2.632 1.488-4.135.061-.599-.154-1.15-.237-1.724-.112-.768-.384-1.442-.797-2.107-.452-.727-1.075-1.269-1.656-1.859-1.017-1.033-2.313-1.452-3.718-1.572-.523-.045-1.052-.005-1.579-.008a4.472 4.472 0 0 0-2.188.581c-1.029.569-2.008 1.157-2.748 2.18-.871 1.204-1.308 2.504-1.415 3.914-.133 1.739.416 3.318 1.433 4.745.576.807 1.992 1.836 2.886 2.227.926.408 1.86.527 2.845.508zM347.006 18.241c0 1.783-.023 3.567.015 5.349.01.481-.16.522-.555.513a61.689 61.689 0 0 0-3.161.001c-.407.011-.479-.159-.439-.497.019-.16.003-.324.003-.486V2.21c0-.203.021-.408-.005-.607-.044-.35.138-.39.424-.386.972.012 1.945.005 2.918.005 1.581 0 3.162-.038 4.741.012 1.304.041 2.542.314 3.748.928 1.178.6 2.002 1.501 2.765 2.494.896 1.166 1.266 2.506 1.242 3.988-.016.984-.084 1.924-.481 2.847-.166.386-.303.759-.555 1.11-.9 1.254-1.9 2.385-3.377 2.968-.275.109-.285.249-.163.431.868 1.289 1.597 2.659 2.374 4.002.738 1.278 1.504 2.539 2.268 3.802.081.134.267.279-.039.283-1.459.019-2.918.014-4.377-.003-.098-.001-.224-.15-.285-.259-1.2-2.14-2.429-4.267-3.692-6.366-.957-1.59-1.784-3.265-2.885-4.769-.076-.104-.187-.184-.282-.275-.067.118-.192.236-.194.355-.013 1.459-.009 2.918-.009 4.377l.001 1.094zm0-9.537c0 .85.005 1.7-.003 2.55-.003.267.002.446.371.44 1.497-.022 2.998.045 4.491-.031.776-.039 1.515-.425 1.939-1.104.73-1.169.731-2.417 0-3.586-.425-.68-1.163-1.065-1.938-1.105-1.494-.077-2.994-.01-4.491-.031-.368-.005-.376.17-.373.439.009.809.004 1.618.004 2.428zM301.989 9.804c0-2.635-.002-5.271.001-7.906.001-.668.008-.682.61-.673 1.245.019 2.49.055 3.734.084.011 1.212.031 2.423.033 3.635.004 4.014-.016 8.028.012 12.041.008 1.168.566 2.081 1.66 2.567 2.185.97 4.384-.416 4.402-2.771.036-4.784.011-9.568.011-14.352 0-.284.013-.568-.004-.851-.015-.248.056-.362.327-.36 1.257.009 2.514-.002 3.77.016.097.001.255.158.273.262.041.236.013.484.013.727 0 4.987.017 9.974-.009 14.96-.009 1.76-.75 3.247-1.894 4.566-.942 1.086-2.095 1.795-3.455 2.241-1.7.557-3.298.336-4.936-.306-1.706-.669-2.73-2.032-3.818-3.359-.227-.917-.746-1.747-.739-2.738.022-2.594.009-5.189.009-7.783z"/><path d="M235.907 7.549c-.608 0-1.217-.024-1.824.007-.548.028-1.007-.157-1.356-.542-.599-.659-1.436-.902-2.209-1.125-.686-.198-1.426-.408-2.199-.298-1.474.209-3.392.614-4.548 1.947-.464.535-1.014 1.026-1.35 1.633-.338.612-1.055 1.987-.985 3.607.104 1.798.648 3.39 1.986 4.655.652.617 1.21 1.33 2.119 1.642 1.709.587 2.899.806 4.629.436 1.178-.252 2.088-.877 3.037-1.488.252-.162.457-.263.749-.261 1.378.01 2.757 0 4.135.007.423.002.501.114.262.478-.733 1.117-1.393 2.253-2.53 3.095-.931.69-1.816 1.415-2.896 1.847a13.13 13.13 0 0 1-2.273.7c-.868.177-1.719.223-2.583.198-1.983-.057-3.887-.408-5.507-1.674-1.479-.512-2.259-1.85-3.305-2.858-.791-.763-1.199-1.845-1.619-2.844-.348-.828-.494-1.595-.584-2.682-.09-1.087.006-3.123.242-4.204.236-1.081.551-1.707.967-2.519.271-.528.644-.954.991-1.412.934-1.232 1.993-2.318 3.373-3.066.962-.521 1.946-1.011 3.002-1.258.745-.174 1.501-.438 2.293-.346 2.526-.03 4.24.614 5.181.998.797.325 1.587.788 2.221 1.364.969.882 1.989 1.742 2.687 2.886.139.227.307.439.423.677.096.197.083.397-.219.398-.77.003-1.54.002-2.31.002zM160.133 23.121c.001.336-.034.508-.442.497a87.688 87.688 0 0 0-3.284-.005c-.292.003-.434-.047-.424-.39.024-.892.001-1.784.013-2.676.003-.256-.076-.35-.339-.349-2.433.007-4.866.005-7.3.003-.205 0-.301.033-.419.273-.283.578-.678 1.101-1.04 1.639-.339.504-.592 1.192-1.069 1.441-.479.249-1.188.055-1.796.055-.284 0-.568.01-.851-.002-.756-.031-1.511-.072-2.266-.109.517-.525.858-1.179 1.289-1.761 1.166-1.575 14.028-20.256 14.367-20.419.429-.207 1.019-.091 1.539-.092.644-.001 1.932.033 1.932.033l.09 21.862zm-4.171-10.178h.028c0-.892.005-1.783-.007-2.675-.001-.096-.075-.248-.148-.272-.087-.028-.25.023-.309.097-.165.207-.279.454-.44.665-1.056 1.388-2.129 2.763-3.167 4.164-.162.219-.18.546-.265.822.233.026.465.061.698.074.242.013.486.009.729.002.96-.028 1.92-.061 2.879-.092.002-.928.002-1.857.002-2.785zM329.972 12.689c0-3.609.002-7.219-.002-10.828-.001-.741-.025-.64.65-.64 3.569.001 7.137-.001 10.706.002.56 0 .565.01.567.596.004 1.054.004 2.109 0 3.163-.002.61-.007.617-.668.618-2.109.003-4.218.008-6.326-.005-.377-.003-.583-.001-.565.504.048 1.377.027 2.757.009 4.136-.005.348.061.49.453.486 1.987-.02 3.974-.009 5.961-.009.284 0 .571-.024.85.013.105.014.207.159.279.266.038.056.007.158.007.239l-.021 3.763c-1.243.034-2.486.078-3.73.097-1.095.016-2.191.035-3.284-.011-.476-.02-.525.15-.517.552a83.753 83.753 0 0 1-.001 3.649c-.009.407.159.445.497.443 2.19-.013 4.38 0 6.57-.013.337-.002.506.036.497.443a69.16 69.16 0 0 0 .001 3.528c.012.443-.215.42-.518.419-3.65-.005-7.3-.008-10.949.004-.362.001-.481-.087-.475-.464.021-1.46.009-2.92.009-4.38v-6.571zM286.416 12.293V2.204c0-.98.002-.982 1.033-.982 2.147-.001 4.295.005 6.442-.002 1.56-.005 2.874.556 4.14 1.471 1.148.83 1.814 1.942 2.354 3.157.454 1.022.822 2.133.605 3.259-.226 1.175-.415 2.38-1.156 3.408-.879 1.221-1.882 2.247-3.311 2.831-.966.395-1.927.726-2.984.722-.805-.003-1.611.021-2.416.033-.028.839-.074 1.678-.082 2.517-.013 1.499-.011 2.998.002 4.497.003.327-.019.512-.436.503a84.521 84.521 0 0 0-3.768 0c-.423.01-.431-.186-.431-.507.011-3.605.008-7.211.008-10.818zm4.623-3.793c0 .848.013 1.696-.007 2.544-.008.318.094.411.407.404.888-.019 1.777.017 2.664-.019.329-.014.705-.093.966-.277.39-.275.754-.629 1.024-1.022.248-.361.348-.821.531-1.229.176-.395-.196-.641-.245-.983-.165-1.161-1.141-2.212-2.234-2.298-.998-.079-2.009.001-3.015.011l-.092 2.627c-.001.081.001.162.001.242zM134.577 12.341c0-3.483-.001-6.967.001-10.45.001-.661.008-.667.616-.668 3.605-.002 7.21.002 10.815-.007.329-.001.512.022.501.437a60.793 60.793 0 0 0 0 3.28c.012.424-.187.432-.507.43-2.187-.01-4.374.001-6.562-.012-.338-.002-.503.039-.495.444.027 1.255.007 2.511.011 3.767.002.654.008.661.623.661 2.147.003 4.293.008 6.44-.006.344-.002.497.053.489.45a85.177 85.177 0 0 0 0 3.645c.009.404-.048.557-.517.55-2.187-.033-4.374-.007-6.562-.022-.351-.002-.485.069-.482.456.017 2.592 0 5.185.018 7.777.003.405-.047.573-.518.548-1.28-.07-2.565-.078-3.847-.111-.008-1.212-.021-2.424-.023-3.636-.003-2.511-.001-5.022-.001-7.533zM203.44 19.344c0-1.135-.031-2.27.014-3.403.02-.499-.151-.902-.359-1.316-1.183-2.346-2.356-4.697-3.551-7.038a549.434 549.434 0 0 0-3.068-5.9c-.15-.285-.151-.459.206-.461 1.378-.01 2.755.002 4.133-.007.439-.003.539.26.712.617 1.176 2.433 2.401 4.842 3.622 7.252.154.304.377.574.568.859.214-.293.484-.561.634-.884 1.175-2.515 2.289-5.059 3.642-7.488.095-.17.054-.359.333-.357 1.418.009 2.836-.001 4.254.008.367.002.343.183.202.463-2.212 4.391-4.408 8.79-6.63 13.176-.238.47-.344.924-.34 1.443.016 2.269.002 4.538.013 6.807.002.326-.017.514-.435.504a71.423 71.423 0 0 0-3.525 0c-.422.01-.435-.184-.432-.506.015-1.257.007-2.513.007-3.769zM325.349 14.974c0 2.876-.004 5.752.006 8.628.001.326-.017.513-.435.503a71.382 71.382 0 0 0-3.524 0c-.42.01-.437-.182-.433-.505.015-1.094.006-2.187.006-3.281 0-4.537.001-9.073-.001-13.61 0-.86-.004-.861-.908-.863-.77-.002-1.539-.006-2.309.003-.267.003-.448 0-.442-.371.024-1.296.024-2.592 0-3.888-.007-.373.178-.373.443-.37.648.008 1.296.003 1.944.003 2.876 0 5.752-.001 8.628.001.915.001.916.004.917.976v3.524c-1.158.041-2.315.106-3.473.11-.429.002-.426.201-.425.514.009 2.874.006 5.75.006 8.626zM191.03 12.404c0-3.565.004-7.131-.007-10.696-.001-.338.038-.504.443-.495 1.215.027 2.431.024 3.646.001.394-.007.575.028.556.512-.047 1.173-.015 2.349-.015 3.524 0 4.538-.001 9.076.001 13.613 0 .596.007.605.556.606 1.54.005 3.079.007 4.619-.003.284-.002.442.033.428.385-.05 1.242-.07 2.486-.101 3.729-1.171.009-2.342.024-3.513.026-1.985.004-3.971.003-5.956 0-.648-.001-.655-.008-.656-.629-.002-3.322-.001-6.645-.001-9.967v-.606zM185.677 12.353c0-3.485-.001-6.97.001-10.455.001-.669.008-.683.609-.674 1.245.019 2.489.054 3.733.082.012 1.211.034 2.421.035 3.632.004 5.876.002 11.752.002 17.628 0 .243-.012.487.003.729.017.284-.134.318-.37.316-1.216-.009-2.432-.02-3.647.005-.376.008-.371-.181-.368-.444.007-.77.003-1.54.003-2.31l-.001-8.509z"/><path d="M522.934 69.134V39.941c0-.324-.022-.651.013-.972.011-.1.168-.248.273-.262.279-.037.566-.013.85-.013 2.311 0 4.623-.045 6.933.014 1.802.046 3.567-.371 5.374-.278 1.779.092 3.567.015 5.351.021 1.934.007 3.522.801 5.023 1.991 1.249.99 2.015 2.255 2.713 3.616.054.105.213.156.323.232.052-.093.149-.186.15-.279.007-.724.527-1.214.918-1.679 1.159-1.381 2.542-2.482 4.348-2.982.304-.084.597-.163.898-.163 5.23-.008 10.461-.003 15.691-.009.919-.001 1.688.431 2.45.839 1.095.586 1.776 1.536 2.246 2.689.283.694.466 1.376.465 2.119l-.001 24.328v29.071c0 .284-.024.57.006.851.041.384-.119.464-.476.461-2.068-.016-4.136-.008-6.203-.008-1.581 0-3.163-.025-4.743.015-.478.012-.557-.154-.511-.554.027-.24.005-.486.005-.729 0-14.475-.006-28.95.013-43.425.001-.954-.286-1.821-.506-2.716-.035-.141-.135-.272-.228-.39-.1-.127-.241-.221-.339-.348-.923-1.21-2.222-1.619-3.637-1.457-.886.102-1.824.089-2.661.605-1.036.638-1.806 1.477-2.281 2.574-.133.308-.091.701-.092 1.055-.004 9.731-.003 19.462-.003 29.193 0 5.19.001 10.379-.001 15.569 0 .597-.007.607-.556.607-3.528.003-7.055-.004-10.582.009-.394.002-.634-.029-.548-.514.042-.236.007-.485.007-.728 0-14.394-.007-28.788.016-43.181a7.496 7.496 0 0 0-.539-2.825c-.51-1.263-1.587-2.077-2.826-2.643-1.519.009-3.084-.207-4.438.735-1.168.813-1.949 1.87-1.949 3.377.003 14.84.002 29.679-.001 44.519 0 .397.108.941-.1 1.149-.209.209-.753.098-1.15.099-3 .005-6.001.004-9.001.002-.689-.001-.695-.007-.695-.713l.001-29.679zM57.319 4.629c11.68 0 23.359-.012 35.039.012 1.91.004 3.587.728 4.984 2.052.177.167.331.36.519.513 1.215.993 1.839 2.359 2.299 3.793.208.648.368 1.325.367 2.047-.023 10.382-.004 20.764-.039 31.145-.003.795.245 1.124.947 1.416 2.296.959 4.094 2.625 5.672 4.477 1.252 1.469 2.08 3.241 2.633 5.101.197.662.212 1.385.253 2.084.04.687-.023 1.38.015 2.067.098 1.742-.454 3.344-1.118 4.893-.449 1.047-1.138 1.99-1.873 2.873-1.249 1.5-2.837 2.607-4.434 3.69-.49.332-1.139.35-1.666.68-.248.156-.431.208-.415.557.034.728.01 1.459.01 2.189 0 3.407.004 6.813-.006 10.22-.001.33.077.408.427.523.75.248 1.53.344 2.279.659 1.684.707 3.031 1.997 3.638 3.75.282.815.183 1.636.238 2.458.114 1.693-.354 2.49-1.294 3.964-.279.437-.807.733-1.258 1.039-.623.424-1.204.898-1.99 1.084-.3.071-.6.149-.902.149-10.098.007-20.196.006-30.294.005-.708 0-.837-.055-1.004-.663-.376-1.369-1.069-2.589-1.87-3.723-1.366-1.934-3.046-3.534-5.327-4.389-1.1-.413-2.187-.795-3.366-1.01-1.079-.196-2.134-.199-3.193-.174-2.655.064-5.082.871-7.28 2.387-2.047 1.412-3.428 3.352-4.518 5.534a12.199 12.199 0 0 0-.696 1.657c-.085.262-.124.424-.443.389-.281-.03-.567-.006-.851-.006-9.692 0-19.385-.02-29.077.024-1.315.006-2.413-.384-3.451-1.088-.418-.283-.828-.594-1.184-.95s-.786-.74-.921-1.191c-.206-.684-.631-1.309-.614-2.062.015-.689-.055-1.385.015-2.067.169-1.661.762-3.091 2.196-4.12.723-.519 1.493-.874 2.282-1.253.555-.266 1.208.072 1.649-.432.412.072.439-.161.438-.491-.01-2.798-.006-5.597-.006-8.395 0-1.338-.015-2.677.01-4.015.007-.347-.147-.416-.421-.552-.876-.433-1.805-.751-2.615-1.341-.525-.382-1.127-.661-1.592-1.137-.92-.942-1.95-1.794-2.651-2.92-.456-.732-.936-1.447-1.283-2.264-.388-.915-.497-1.896-.877-2.8-.058-.138-.058-.307-.059-.461-.004-1.257-.079-2.521.021-3.77a10.61 10.61 0 0 1 .79-3.193c.993-2.396 2.62-4.341 4.562-6.009 1.124-.965 2.449-1.662 3.788-2.297.202-.096.345-.106.33-.363-.017-.283-.004-.568-.004-.851 0-10.341-.027-20.683.023-31.024.01-2.084.813-3.954 2.283-5.494.791-.829 1.604-1.643 2.646-2.135 1.003-.474 2.063-.791 3.202-.79 11.679.001 23.358-.001 35.037-.001zm21.514 53.289c.809-.119 1.782.014 2.784-.183 1.09-.214 2.161-.454 3.213-.794 2.151-.694 4.135-1.756 5.832-3.218 1.436-1.237 2.809-2.577 3.821-4.237a25.259 25.259 0 0 0 2.158-4.463c.507-1.38.597-2.828.933-4.233.195-.815.089-4.381-.275-5.101-.239-.473-.098-.912-.27-1.352-.654-1.677-1.151-3.411-2.101-4.972-.649-1.066-1.411-2.04-2.234-2.957a15.918 15.918 0 0 0-2.183-2.023c-1.344-1.028-2.713-1.936-4.292-2.586a39.473 39.473 0 0 0-2.85-1.039c-1.007-.326-2.12-.352-3.183-.533-.788-.134-1.619-.058-2.428-.017-.78.039-1.597.031-2.318.278-.467.161-.942.062-1.357.242-1.65.716-3.447 1.05-4.968 2.122-1.073.757-2.228 1.393-3.16 2.34-.867.881-1.8 1.703-2.491 2.741-.484.727-1.009 1.442-1.384 2.225-.764 1.597-1.63 3.171-1.719 5.005-.489.422-.022 1.068-.285 1.456-.348.514-.207 1.018-.183 1.504.064 1.264-.08 2.518.162 3.805.213 1.132.468 2.247.814 3.329a16.116 16.116 0 0 0 1.966 4.048 20.854 20.854 0 0 0 3.311 3.855c1.818 1.652 3.886 2.824 6.156 3.667 1.81.673 3.678 1.124 5.632 1.09.244-.003.488.001.899.001zM17.048 39.244c.102.882-.085 1.939.205 3.016.255.948.475 1.91.73 2.864.325 1.218.861 2.329 1.503 3.393.82 1.359 1.727 2.66 2.815 3.822.836.893 1.838 1.595 2.817 2.311.762.556 1.593 1.03 2.433 1.461.528.271 1.193.301 1.684.615.567.362 1.205.473 1.799.654.986.3 2.04.503 3.067.507 1.587.006 3.169.103 4.774-.161a21.679 21.679 0 0 0 4.163-1.144c1.817-.687 3.473-1.746 4.954-2.998 1.869-1.58 3.435-3.457 4.567-5.641a16.656 16.656 0 0 0 1.51-4.125c.117-.536.24-1.101.434-1.637.184-.508-.065-1.06.172-1.633.214-.52.081-1.187.085-1.788.003-.4.112-.884-.07-1.179-.25-.403-.097-.777-.172-1.153-.074-.373-.185-.741-.237-1.117a12.215 12.215 0 0 0-1.108-3.678c-.805-1.649-1.726-3.203-2.874-4.667-.926-1.18-2.013-2.147-3.159-3.006-1.646-1.235-4.492-2.903-7.513-3.271-.526-.427-1.224-.028-1.705-.28-.6-.315-1.17-.185-1.743-.189-.901-.006-1.792-.012-2.708.175-.859.176-1.727.324-2.592.512-1.648.358-3.152 1.046-4.577 1.877-1.526.89-2.852 2.056-4.117 3.314-1.898 1.887-3.174 4.135-4.086 6.59-.67 1.804-1.18 3.677-1.053 5.649.016.242.002.486.002.907zM394.455 66.884v26.88c0 1.74-1.032 3.54-2.515 4.559-.635.436-1.255.817-2.01 1.039-.306.09-.598.159-.9.16-8.19.007-16.379.006-24.569.006-.081 0-.163-.007-.243.001-.283.028-.432-.028-.43-.38.014-3 .011-6 .004-9.001-.001-.249.06-.372.331-.357.283.016.567.004.851.004 4.257 0 8.514-.006 12.771.004 1.304.003 2.343-.662 3.319-1.371.786-.571 1.079-1.548 1.463-2.419.045-.102.006-.241.006-.362 0-1.581-.004-3.162.005-4.743.001-.249-.059-.372-.33-.357-.283.015-.567.003-.851.003-4.663 0-9.325.027-13.987-.011-2.345-.019-4.13-1.096-5.272-3.165-.557-1.008-.811-2.093-1.029-3.234-.245-1.282-.175-2.538-.178-3.801-.022-10.055-.012-20.109-.012-30.164 0-.284.023-.57-.006-.851-.036-.35.138-.415.425-.384.08.009.162.001.243.001 3.446 0 6.892-.001 10.339.001.673.001.678.007.678.729.001 8.676.012 17.353-.008 26.029-.005 1.949.905 3.22 2.641 3.974.172.075.355.138.539.164.379.054.791-.111 1.127.236.074.076.387.063.452-.018.258-.323.59-.185.894-.212 1.719-.148 3.074-.806 3.869-2.465.316-.659.472-1.281.471-1.999-.013-8.392-.008-16.785-.008-25.177 0-.324-.021-.651.012-.972.011-.105.15-.228.26-.281.099-.048.238-.01.36-.01 3.527 0 7.055-.001 10.582.001.701.001.708.006.708.699.002 8.514.001 17.028.001 25.542-.003.566-.003 1.134-.003 1.702zM334.185 99.771c-3.041 0-6.082-.04-9.122.012-2.746.047-4.928-1.077-6.581-3.162-.662-.836-1.009-1.899-1.202-3.027a18.479 18.479 0 0 1-.168-4.89c.388-4.023.096-8.046.207-12.066.015-.544.053-.58.511-.318.985.562 1.962 1.14 2.938 1.717a316.99 316.99 0 0 1 3.022 1.806c1.518.923 3.025 1.862 4.609 2.674.242.124.391.356.368.697-.041.606-.012 1.216-.011 1.824.001 1.996.969 3.736 2.74 4.665.62.325 1.367.487 2.071.549a3.524 3.524 0 0 0 1.687-.294c1.384-.628 2.655-1.404 3.267-2.947.121-.306.209-.576.209-.885.004-2.189-.027-4.379.022-6.568.013-.581-.232-1-.646-1.177-1.345-.577-2.42-1.568-3.669-2.29a48.565 48.565 0 0 1-2.703-1.702c-.853-.573-1.665-1.188-2.599-1.653-.849-.422-1.577-1.082-2.38-1.603-1.435-.931-2.889-1.833-4.332-2.753-.387-.247-.801-.473-1.131-.784-1.37-1.295-2.723-2.609-3.49-4.388-.258-.6-.476-1.215-.478-1.867-.011-5.514-.017-11.028.002-16.542.004-1.085.475-2.08.99-2.988a6.959 6.959 0 0 1 3.013-2.828c.629-.309 1.344-.533 2.09-.532 6.568.005 13.136.001 19.704.006.696.001 1.345.252 1.986.489 1.387.513 2.643 1.261 3.639 2.361 1.193 1.318 1.918 2.845 1.912 4.679-.016 4.744.017 9.487-.027 14.231-.007.804.325 1.537.27 2.332-.039.558-.021.568-.596.252-.925-.509-1.889-.965-2.752-1.565-.754-.525-1.587-.888-2.358-1.369-1.514-.944-3.027-1.89-4.548-2.822-.611-.375-1.222-.765-1.873-1.057-.599-.269-.82-.661-.783-1.292.036-.606.003-1.216.009-1.824.012-1.286-.691-2.206-1.608-2.966-.393-.326-.917-.515-1.405-.702-.425-.162-.955.107-1.341-.287-.852.31-1.782.352-2.606.756a4.265 4.265 0 0 0-1.751 1.572 3.832 3.832 0 0 0-.537 1.959c.002 2.068.023 4.136-.013 6.203-.011.616.262.926.756 1.199.664.368 1.297.793 1.933 1.209 2.011 1.314 3.969 2.719 6.04 3.928 1.707.996 3.235 2.26 5.01 3.157.768.388 1.459.969 2.197 1.446 1.448.936 2.821 1.975 4.021 3.238a8.267 8.267 0 0 1 1.872 3.122c.085.253.08.544.08.817.004 5.027.042 10.055-.017 15.082-.022 1.868-.657 3.615-1.899 5.034-.712.814-1.802 1.644-3.333 1.927a10.75 10.75 0 0 1-1.974.203c-3.079.004-6.16.002-9.242.002zM421.299 99.771c-3.041 0-6.082-.023-9.123.009-1.624.018-3.095-.399-4.489-1.216-.921-.54-1.552-1.37-2.268-2.11-.449-.464-.855-2.075-1.001-2.743-.477-2.188-.114-4.397-.228-6.592-.092-1.758.349-3.486.261-5.252-.087-1.739-.022-3.486-.017-5.23.002-.545.05-.579.51-.317.986.562 1.964 1.136 2.937 1.719.976.584 1.95 1.173 2.911 1.782 1.57.996 3.221 1.857 4.773 2.886.264.175.301.282.302.508.004.649.014 1.298-.001 1.946-.032 1.394.528 2.503 1.435 3.552.923 1.067 2.168 1.264 3.385 1.538.452.102 1.01-.055 1.468-.228 1.362-.515 2.58-1.254 3.269-2.615.24-.474.431-.968.427-1.528-.015-2.108-.009-4.217-.004-6.325.001-.453.031-.907-.601-.953-2.104-1.665-4.437-2.992-6.69-4.426-1.661-1.057-3.231-2.262-5.004-3.163-1.117-.568-2.092-1.413-3.14-2.119-.376-.253-.793-.444-1.17-.695-1.508-1.003-2.73-2.329-3.734-3.793-.648-.944-1.111-2.043-1.098-3.315.051-5.27.039-10.542.009-15.813-.007-1.32.469-2.485 1.063-3.575.638-1.172 1.643-2.065 2.866-2.668.307-.151 1.884-.583 2.191-.583 6.528-.001 13.056-.002 19.584.002.698 0 1.331.29 1.993.466 1.219.325 2.194 1.065 3.139 1.805 1.045.816 1.692 2.004 2.227 3.199.243.543.271 1.214.273 1.827.019 5.596.012 11.191.008 16.787 0 .151-.052.301-.08.452-.123-.068-.248-.135-.37-.206-1.08-.622-2.164-1.239-3.239-1.87a200.838 200.838 0 0 1-3.023-1.806c-1.49-.91-2.972-1.833-4.456-2.751-.034-.021-.054-.075-.087-.082-1.347-.302-1.503-1.261-1.408-2.425.07-.852-.032-1.661-.432-2.494-.406-.845-1.062-1.271-1.773-1.707a3.542 3.542 0 0 0-1.619-.515c-1.946-.158-3.597.444-4.802 2.009a2.969 2.969 0 0 0-.611 1.808c.009 2.149.028 4.298-.014 6.447-.011.572.24.932.643 1.187 1.157.731 2.338 1.419 3.472 2.191 1.764 1.2 3.537 2.394 5.367 3.489 1.897 1.134 3.694 2.416 5.569 3.58 1.718 1.067 3.423 2.151 4.816 3.654.637.687 1.109 1.471 1.562 2.275.068.121.487 1.628.487 1.744 0 5.028.049 10.056-.031 15.083-.022 1.389-.356 2.801-1.193 3.992-.367.522-.812.991-1.236 1.472-.126.143-.317.229-.452.366-.444.452-.945.709-1.579.903-.787.24-1.546.443-2.368.441-3.199-.009-6.403-.004-9.606-.004zM221.105 99.771c-3.041 0-6.083-.043-9.122.02a8.164 8.164 0 0 1-3.687-.801c-1.297-.621-2.476-1.511-3.179-2.926-.58-1.166-.964-2.313-.956-3.625.027-4.743.01-9.487.01-14.231 0-.284-.044-.577.01-.849.081-.404.232-.793.353-1.189.334.171.681.322 1 .517 1.49.909 2.966 1.842 4.46 2.744.937.566 1.901 1.089 2.847 1.639.948.551 1.895 1.105 2.831 1.677.099.061.167.247.17.377.016.77.013 1.541.007 2.311-.015 1.868.849 3.187 2.439 4.132.754.448 1.588.614 2.386.665.717.046 1.514-.222 2.182-.544 1.116-.538 2.16-1.236 2.557-2.528.167-.542.382-1.099.395-1.654.048-1.986.015-3.973.021-5.96.001-.457.023-.907-.61-.945-2.641-1.748-5.241-3.564-7.941-5.216-1.297-.793-2.54-1.666-3.842-2.451-1.275-.768-2.419-1.774-3.742-2.434-.823-.411-1.497-.989-2.134-1.548-1.126-.988-2.091-2.176-2.711-3.595-.25-.573-.444-1.128-.443-1.766.012-5.676.019-11.352-.003-17.028-.005-1.216.471-2.289 1.148-3.164.801-1.035 1.727-2.028 3.08-2.488.622-.211 1.199-.467 1.875-.466 6.365.01 12.731.008 19.096.005 1.582-.001 2.984.594 4.284 1.396a8.787 8.787 0 0 1 2.837 2.805c.254.403.774 1.804.782 2.231.083 4.426.17 8.852.24 13.279.024 1.5.006 3 0 4.5 0 .11-.049.312-.082.314a.787.787 0 0 1-.412-.087 171 171 0 0 1-3.022-1.809c-1.52-.936-3.003-1.934-4.553-2.816-1.416-.806-2.787-1.684-4.206-2.477-.314-.176-.381-.289-.377-.577a80.56 80.56 0 0 0 .001-1.703c-.016-1.754-1.285-4.028-3.715-4.358-1.448-.197-3.189.197-4.326 1.121-.763.62-1.179 1.453-1.194 2.419-.035 2.392-.003 4.784-.021 7.176-.003.34.169.392.409.559.878.609 1.82 1.112 2.702 1.708a51.385 51.385 0 0 0 2.591 1.664c1.012.598 1.96 1.322 2.968 1.948 1.55.962 3.025 2.036 4.62 2.938 1.328.75 2.559 1.676 3.803 2.567.606.434 1.127.987 1.716 1.448.856.669 1.515 1.504 2.133 2.382.478.679.745 1.388.739 2.255-.032 5.068-.038 10.136-.005 15.204.014 2.229-.68 4.106-2.374 5.592-.409.359-.806.688-1.313.941a6.505 6.505 0 0 1-2.874.691c-3.28.031-6.564.01-9.848.01zM246.996 68.869V39.915c0-.243.017-.488-.004-.729-.029-.332.023-.524.437-.5.606.036 1.216.009 1.824.009 2.879 0 5.758-.001 8.638.001.779.001.784.005.785.745.002 4.623-.174 9.254.057 13.866.177 3.54.099 7.073.191 10.608.003.107.069.213.106.319.086-.079.175-.154.258-.236 2.639-2.637 5.271-5.281 7.919-7.909.505-.502.731-1.054.727-1.775-.023-3.771-.048-7.543.01-11.313.019-1.262.305-2.517.236-3.793-.005-.084.169-.195.279-.262.059-.036.158-.006.239-.006 3.366 0 6.732-.002 10.097.002.556 0 .563.01.563.6.002 6.529-.01 13.058.017 19.586.003.722-.43 1.156-.8 1.616-.722.897-1.57 1.693-2.299 2.585-1.051 1.287-2.092 2.58-3.276 3.75-.082.081-.138.187-.212.276-.301.362-.596.731-.91 1.082-.287.32-.284.299.327.954.317.34.561.746.869 1.095.763.865 1.576 1.688 2.312 2.575.983 1.185 1.925 2.401 3.012 3.497.326.329.586.725.862 1.101.063.086.085.212.096.323.016.161.004.324.004.486 0 6.691.001 13.382-.001 20.073 0 .736-.005.743-.664.743-3.609.002-7.218.003-10.827 0-.668-.001-.673-.007-.673-.734l-.001-14.842c.346-1.258-.497-1.975-1.318-2.594a12.838 12.838 0 0 1-.989-.811c-.416-.385-.799-.807-1.209-1.199-1.655-1.581-3.315-3.156-4.974-4.732-.051-.048-.114-.084-.171-.126-.033.068-.092.134-.094.203-.01.324-.005.649-.005.973v22.385c0 .324.023.651-.014.972-.011.098-.17.208-.285.255-.104.043-.239.009-.361.009-3.366 0-6.732.001-10.097-.001-.674-.001-.678-.007-.679-.729-.002-9.816-.002-19.63-.002-29.444zM486.435 69.831V40.388c0-.284.013-.569-.004-.851-.015-.249.056-.377.329-.358.202.014.405.003.608.003h22.751c.203 0 .413-.031.606.012.11.024.208.159.28.266.038.056.007.158.007.239 0 3.082-.007 6.164.008 9.246.002.376-.113.465-.475.464-3.853-.012-7.705-.008-11.558-.007-.868 0-.871.004-.872.902v13.383c0 .797.005.8.851.801l11.558.001c.722 0 .728.005.729.679.003 3.042.003 6.083 0 9.125-.001.651-.008.657-.628.658-3.772.002-7.543.001-11.315.001-.284 0-.569.013-.851-.004-.257-.015-.356.075-.349.339.015.527.004 1.054.004 1.582 0 4.015.002 8.03-.002 12.045-.001.747-.018.639.651.639h11.071c.284 0 .568.012.851-.003.272-.015.329.111.329.359-.006 3.407-.01 6.813.004 10.22.001.36-.159.384-.435.378-.568-.012-1.136-.004-1.703-.004h-21.17c-.243 0-.488-.018-.73.004-.38.035-.65 0-.555-.503.044-.235.008-.485.008-.729.002-9.816.002-19.63.002-29.444zM455.531 74.466V50.631c0-.284-.024-.57.006-.851.038-.357-.148-.384-.429-.383-1.378.009-2.757.004-4.135.004-1.095 0-2.189-.004-3.284.003-.268.002-.442-.003-.441-.372.015-3.243.011-6.486.005-9.729-.001-.239.035-.386.318-.369.242.015.486.003.729.003h26.632c.243 0 .487.011.729-.003.288-.017.312.143.311.374-.005 3.324-.01 6.648.005 9.972.002.378-.186.366-.447.365-2.108-.004-4.216-.006-6.324 0-.561.002-1.121.03-1.682.047-.024.557-.07 1.115-.07 1.672-.004 15.728-.003 31.456-.003 47.184 0 .974-.002.977-.917.977h-10.093c-.91 0-.911-.004-.912-.983V81.517c.002-2.349.002-4.7.002-7.051zM137.497 69.284V39.72c0-.243.022-.489-.005-.729-.045-.399.033-.807.511-.798 1.824.037 26.329-.062 26.646.061.803.313 1.756.244 2.414.927.685.081.833.953 1.519 1.033.782 1.119 1.612 2.199 2.024 3.543.275.896.48 1.776.48 2.723-.012 15.167-.009 30.335-.007 45.502 0 1.255-.301 2.432-.954 3.497-.562.918-1.19 1.742-2.096 2.427-1.03.778-2.129 1.325-3.306 1.744-.566.202-1.161.373-1.797.372-8.233-.013-16.465-.009-24.698-.009-.122 0-.244-.01-.365.002-.24.025-.382-.034-.369-.317.015-.324.004-.649.004-.973l-.001-29.441zm11.68 2.184v4.378c0 4.054-.001 8.108.002 12.162 0 .56.01.567.595.568 1.824.003 3.649-.003 5.473.005.358.002.695-.022.995-.246.57-.426 1.125-.862 1.455-1.52.202-.404.437-.791.639-1.195.226-.452-.048-.999.309-1.461.137-.177.022-.55.022-.834 0-9.568.005-19.135-.01-28.702a8.647 8.647 0 0 0-.256-2.083c-.116-.46-.44-.87-.688-1.292-.84-1.436-1.996-2.359-3.754-2.337-1.459.018-2.919.005-4.378.003-.687-.001-.652-.088-.648.641.006 1.013-.03 2.028.01 3.04.039.982.219 1.96.223 2.94.023 5.312.011 10.622.011 15.933zM194.194 69.23v28.827c0 .284-.024.57.006.851.038.359-.152.404-.431.378-.08-.007-.162-.001-.243-.001-3.771 0-7.541.001-11.312-.001-.668 0-.673-.008-.673-.734-.002-5.149-.001-10.298-.001-15.447 0-14.231-.001-28.462.003-42.692 0-.395-.096-.946.114-1.141.222-.206.759-.084 1.158-.085 3.406-.003 6.811-.003 10.217 0 .359 0 .911-.109 1.034.069.194.278.122.758.123 1.152.005 9.606.005 19.215.005 28.824z" fill="#f8b900"/><path d="M78.833 57.918c-.411 0-.655-.004-.898.001-1.954.034-3.822-.417-5.632-1.09-2.27-.844-4.338-2.016-6.156-3.667a20.854 20.854 0 0 1-3.311-3.855 16.116 16.116 0 0 1-1.966-4.048c-.347-1.082-.602-2.198-.814-3.329-.242-1.287-.098-2.541-.162-3.805-.025-.487-.166-.991.183-1.504.263-.388-.205-1.034.285-1.456.089-1.834.955-3.408 1.719-5.005.375-.783.899-1.498 1.384-2.225.691-1.038 1.624-1.86 2.491-2.741.932-.947 2.086-1.584 3.16-2.34 1.521-1.073 3.318-1.406 4.968-2.122.414-.18.889-.081 1.357-.242.72-.247 1.538-.239 2.318-.278.809-.041 1.64-.116 2.428.017 1.064.18 2.176.207 3.183.533.951.307 1.912.653 2.85 1.039 1.579.65 2.948 1.558 4.292 2.586.801.613 1.524 1.29 2.183 2.023.823.916 1.586 1.891 2.234 2.957.95 1.561 1.447 3.295 2.101 4.972.172.44.031.879.27 1.352.364.721.47 4.286.275 5.101-.336 1.405-.426 2.853-.933 4.233a25.223 25.223 0 0 1-2.158 4.463c-1.012 1.659-2.385 2.999-3.821 4.237-1.697 1.462-3.681 2.524-5.832 3.218-1.052.339-2.123.58-3.213.794-1.003.195-1.976.062-2.785.181zm-.39-2.137c1.063-.184 1.959.067 2.883-.245.544-.184 1.254-.09 1.805-.348.548-.257 1.246-.128 1.673-.664 1.072-.099 1.856-.822 2.741-1.306.926-.506 1.745-1.184 2.478-1.959.64-.677 1.449-1.236 1.941-2.003.79-1.234 1.668-2.422 2.204-3.825a19.01 19.01 0 0 0 1.216-5.329c.147-1.88-.212-3.706-.666-5.547-.399-1.62-1.189-3.011-1.951-4.429-.796-1.481-2.014-2.657-3.27-3.743-.828-.716-1.722-1.37-2.748-1.855-1.226-.58-2.398-1.242-3.748-1.535-1.127-.244-2.244-.525-3.398-.596-.525-.032-1.054-.012-1.581-.003-.465.007-.905.023-1.373.206-.441.173-.99.185-1.471.233-1.173.117-2.203.581-3.236 1.033-2.476 1.085-4.562 2.747-6.263 4.813a15.103 15.103 0 0 0-2.88 5.487 35.553 35.553 0 0 0-.483 1.989c-.022.097.056.215.088.324.057-.039.128-.068.17-.12.904-1.11 2.088-1.469 3.472-1.316.354.039.753-.052 1.063.079 2.355.999 3.472 3.451 2.323 5.812-.538 1.105-1.481 1.727-2.611 2.155-.771.292-1.484.264-2.239-.007-.783-.281-1.469-.683-2.009-1.322-.043-.051-.113-.078-.17-.117-.031.068-.096.141-.088.204.048.378-.175.817.238 1.116.095.837.441 1.594.719 2.378.514 1.448 1.349 2.706 2.218 3.946.313.447.761.766 1.062 1.258.29.473.913.728 1.319 1.147 1.338 1.381 3.055 2.16 4.732 2.981.801.392 1.703.636 2.586.789 1.123.195 2.275.23 3.254.319zM17.048 39.244c0-.421.013-.666-.002-.908-.126-1.972.384-3.845 1.053-5.649.912-2.455 2.188-4.704 4.086-6.59 1.265-1.257 2.591-2.424 4.117-3.314 1.425-.831 2.929-1.519 4.577-1.877.865-.188 1.733-.337 2.592-.512.915-.187 1.807-.181 2.708-.175.573.004 1.143-.126 1.743.189.481.252 1.179-.147 1.705.28 3.021.368 5.867 2.037 7.513 3.271 1.146.859 2.233 1.826 3.159 3.006 1.149 1.464 2.07 3.018 2.874 4.667a12.187 12.187 0 0 1 1.108 3.678c.053.376.163.743.237 1.117.075.376-.078.749.172 1.153.183.295.073.779.07 1.179-.004.602.13 1.269-.085 1.788-.237.573.012 1.125-.172 1.633-.194.536-.317 1.101-.434 1.637a16.697 16.697 0 0 1-1.51 4.125c-1.132 2.184-2.698 4.061-4.567 5.641-1.48 1.252-3.137 2.311-4.954 2.998a21.699 21.699 0 0 1-4.163 1.144c-1.605.264-3.187.167-4.774.161-1.026-.004-2.081-.207-3.067-.507-.594-.181-1.233-.292-1.799-.654-.491-.314-1.156-.344-1.684-.615-.841-.432-1.672-.905-2.433-1.461-.98-.715-1.982-1.417-2.817-2.311-1.088-1.163-1.995-2.463-2.815-3.822-.642-1.064-1.178-2.175-1.503-3.393-.255-.954-.476-1.916-.73-2.864-.289-1.076-.103-2.133-.205-3.015zm18.919 16.484c1.098.051 2.39-.12 3.701-.453 1.737-.442 3.374-1.029 4.906-1.969 2.018-1.239 3.643-2.895 5.04-4.759.69-.921 1.158-2.022 1.646-3.079.506-1.095.729-2.292 1.065-3.448.029-.1-.031-.226-.05-.339-.086.043-.197.064-.254.131-.544.638-1.221 1.084-2.034 1.255-1.358.285-1.363.261-2.471.009-.953-.217-2.112-1.388-2.502-2.347-.284-.699-.159-1.397-.232-2.094-.146-1.392 1.385-3.226 2.89-3.535 1.539-.315 3.15-.141 4.336 1.197.063.071.169.105.255.157.023-.112.091-.237.063-.334-.231-.794-.495-1.579-.72-2.375-.638-2.252-1.956-4.112-3.421-5.874-.861-1.035-1.962-1.808-3.051-2.594a14.193 14.193 0 0 0-4.232-2.104c-1.693-.505-3.457-.92-5.276-.784-.621.046-1.232-.019-1.854.221-.486.187-1.056.098-1.603.217-.863.187-1.679.464-2.477.796-.797.331-1.587.649-2.33 1.155-.758.517-1.604.935-2.23 1.607-.633.68-1.42 1.178-1.995 1.935-1.11 1.462-2.111 2.943-2.771 4.695-.647 1.714-1.158 3.412-1.122 5.246.026 1.306-.105 2.612.219 3.916.265 1.064.475 2.142.932 3.143 1.141 2.501 2.549 4.783 4.775 6.528 1.608 1.261 3.28 2.338 5.217 2.981 1.651.548 3.296.982 4.491.903.282-.02.567-.004 1.089-.004zM149.177 71.468c0-5.311.012-10.622-.011-15.932-.004-.98-.184-1.959-.223-2.94-.041-1.012-.005-2.027-.01-3.04-.004-.729-.039-.642.648-.641 1.459.002 2.919.015 4.378-.003 1.758-.022 2.914.902 3.754 2.337.247.423.571.833.688 1.292.17.673.255 1.386.256 2.083.015 9.567.01 19.135.01 28.702 0 .284.115.657-.022.834-.358.462-.083 1.009-.309 1.461-.202.404-.437.791-.639 1.195-.33.658-.884 1.094-1.455 1.52-.3.224-.636.248-.995.246-1.824-.009-3.649-.002-5.473-.005-.586-.001-.595-.008-.595-.568-.003-4.054-.002-8.108-.002-12.162v-4.379zm2.677-2.595V84.44c0 .284.002.568 0 .851-.003.39.233.574.578.602.362.03.73-.01 1.094.01.781.044 1.27-.382 1.631-1.001.252-.43.59-1.82.59-2.309.001-9.243-.003-18.486.007-27.729.001-.601-.225-1.111-.436-1.646-.312-.79-.887-1.131-1.702-1.141-.243-.003-.486-.001-.73 0-1.03.002-1.032.002-1.032.984v15.812z"/><path d="M78.443 55.781c-.979-.089-2.131-.124-3.255-.319-.883-.153-1.785-.397-2.586-.789-1.677-.821-3.394-1.6-4.732-2.981-.406-.419-1.029-.674-1.319-1.147-.301-.491-.749-.811-1.062-1.258-.869-1.241-1.704-2.499-2.218-3.946-.278-.783-.624-1.541-.719-2.378-.413-.3-.19-.738-.238-1.116-.008-.063.057-.136.088-.204.057.038.127.066.17.117.54.639 1.226 1.041 2.009 1.322.755.271 1.468.299 2.239.007 1.13-.428 2.073-1.05 2.611-2.155 1.149-2.361.032-4.813-2.323-5.812-.309-.131-.708-.04-1.063-.079-1.384-.153-2.568.206-3.472 1.316-.042.052-.113.081-.17.12-.032-.109-.109-.227-.088-.324.148-.666.297-1.333.483-1.989a15.11 15.11 0 0 1 2.88-5.487c1.701-2.066 3.787-3.728 6.263-4.813 1.032-.452 2.063-.916 3.236-1.033.481-.048 1.03-.06 1.471-.233.468-.183.908-.199 1.373-.206.527-.008 1.056-.029 1.581.003 1.154.071 2.271.352 3.398.596 1.35.293 2.522.955 3.748 1.535 1.026.485 1.92 1.139 2.748 1.855 1.256 1.086 2.474 2.262 3.27 3.743.761 1.418 1.552 2.809 1.951 4.429.453 1.841.812 3.667.666 5.547a19.01 19.01 0 0 1-1.216 5.329c-.536 1.403-1.413 2.591-2.204 3.825-.491.767-1.3 1.326-1.941 2.003-.733.775-1.552 1.453-2.478 1.959-.886.484-1.669 1.207-2.741 1.306-.427.536-1.124.407-1.673.664-.551.258-1.26.164-1.805.348-.923.312-1.819.061-2.882.245zM35.967 55.728c-.523 0-.807-.016-1.09.003-1.194.079-2.84-.355-4.491-.903-1.938-.643-3.609-1.72-5.217-2.981-2.227-1.745-3.634-4.027-4.775-6.528-.457-1.001-.666-2.078-.932-3.143-.325-1.304-.194-2.61-.219-3.916-.036-1.834.475-3.532 1.122-5.246.661-1.751 1.661-3.233 2.771-4.695.575-.757 1.362-1.255 1.995-1.935.626-.673 1.473-1.09 2.23-1.607.743-.507 1.533-.824 2.33-1.155a14.316 14.316 0 0 1 2.477-.796c.547-.118 1.116-.029 1.603-.217.622-.24 1.234-.174 1.854-.221 1.818-.136 3.583.279 5.276.784a14.216 14.216 0 0 1 4.232 2.104c1.089.786 2.19 1.559 3.051 2.594 1.465 1.763 2.783 3.622 3.421 5.874.226.796.489 1.581.72 2.375.028.097-.04.222-.063.334-.086-.051-.192-.085-.255-.157-1.185-1.338-2.797-1.513-4.336-1.197-1.505.308-3.036 2.143-2.89 3.535.073.697-.052 1.395.232 2.094.39.958 1.548 2.13 2.502 2.347 1.108.252 1.113.276 2.471-.009.813-.171 1.49-.617 2.034-1.255.057-.067.168-.089.254-.131.019.114.079.24.05.339-.336 1.156-.559 2.353-1.065 3.448-.488 1.057-.956 2.158-1.646 3.079-1.397 1.864-3.021 3.52-5.04 4.759-1.532.94-3.169 1.527-4.906 1.969-1.31.334-2.601.506-3.7.454z" fill="#f8b900"/></svg>