<svg xmlns="http://www.w3.org/2000/svg" viewBox="254 126.8 399.99999 193.15455">
  <path fill="#d6d4d4" d="M255.35608 189.05682c-.71372 0-1.35608.46393-1.35608 1.03491v128.82792c0 .57099.60667 1.03491 1.35608 1.03491h397.15401c.71373 0 1.3204-.46392 1.3204-1.03491V190.09173c0-.57098-.60667-1.03491-1.3204-1.03491H255.35608z"/>
  <path fill="#e6e6e6" d="M279.52385 220.89752h13.20397c.71372 0 1.28471.57098 1.28471 1.3204v13.23965c0 .71373-.57099 1.3204-1.28471 1.3204h-13.20397c-.71373 0-1.28472-.57098-1.28472-1.3204v-13.23965c0-.74942.57099-1.3204 1.28472-1.3204"/>
  <path fill="#b3b3b3" d="M259.97148 221.10796h13.02554c.71372 0 1.28471.57098 1.28471 1.28471v13.02554c0 .71373-.57099 1.28471-1.28471 1.28471h-13.02554c-.71373 0-1.28471-.57098-1.28471-1.28471v-13.02554c0-.71373.57098-1.28471 1.28471-1.28471m.41924 19.56875h19.80596c1.07059 0 1.96275.57098 1.96275 1.28471v13.16828c0 .71373-.85647 1.28472-1.96275 1.28472h-19.80596c-1.07059 0-1.96275-.57099-1.96275-1.28472v-13.16828c0-.67804.89216-1.28471 1.96275-1.28471m.34227 19.75243h23.0891c1.24903 0 2.28393.57098 2.28393 1.28471v13.16828c0 .71373-.99922 1.28471-2.28393 1.28471h-23.0891c-1.24902 0-2.28393-.57098-2.28393-1.28471v-13.16828c0-.71373.99922-1.28471 2.28393-1.28471m11.55023 19.7658h19.80595c1.07059 0 1.96275.57099 1.96275 1.28471v13.16829c0 .71373-.85647 1.28471-1.96275 1.28471h-19.80595c-1.0706 0-1.96276-.57098-1.96276-1.28471v-13.16829c0-.71372.85648-1.28471 1.96276-1.28471m11.15196 19.76581h13.23966c.71373 0 1.3204.57098 1.3204 1.28471v13.16829c0 .71372-.57099 1.28471-1.3204 1.28471h-13.23966c-.71373 0-1.32039-.57099-1.32039-1.28471v-13.16829c.0357-.71373.60666-1.28471 1.32039-1.28471"/>
  <path fill="#579d1c" d="M303.22854 299.94737h13.16828c.71373 0 1.28471.57098 1.28471 1.28471v13.20397c0 .71373-.57098 1.28471-1.28471 1.28471h-13.16828c-.71373 0-1.28471-.57098-1.28471-1.28471v-13.20397c0-.71373.57098-1.28471 1.28471-1.28471"/>
  <path fill="#e6e6e6" d="M299.14466 220.89752h13.20397c.71373 0 1.28471.57098 1.28471 1.3204v13.23965c0 .71373-.57098 1.3204-1.28471 1.3204h-13.20397c-.71373 0-1.28471-.57098-1.28471-1.3204v-13.23965c0-.74942.57098-1.3204 1.28471-1.3204m19.90634 0h13.16828c.71373 0 1.28471.57098 1.28471 1.3204v13.23965c0 .71373-.57098 1.3204-1.28471 1.3204H319.051c-.71373 0-1.28471-.57098-1.28471-1.3204v-13.23965c-.0357-.74942.5353-1.3204 1.28471-1.3204m19.67213 0h13.16829c.71372 0 1.28471.57098 1.28471 1.3204v13.23965c0 .71373-.57099 1.3204-1.28471 1.3204h-13.16829c-.71373 0-1.28471-.57098-1.28471-1.3204v-13.23965c0-.74942.57098-1.3204 1.28471-1.3204m19.81934 0h13.16828c.71373 0 1.28471.57098 1.28471 1.3204v13.23965c0 .71373-.57098 1.3204-1.28471 1.3204h-13.16828c-.71373 0-1.28471-.57098-1.28471-1.3204v-13.23965c0-.74942.57098-1.3204 1.28471-1.3204m19.77473 0h13.16828c.71373 0 1.28471.57098 1.28471 1.3204v13.23965c0 .71373-.57098 1.3204-1.28471 1.3204H378.3172c-.71373 0-1.28471-.57098-1.28471-1.3204v-13.23965c-.0357-.74942.57098-1.3204 1.28471-1.3204m19.77473 0h13.16828c.71373 0 1.28471.57098 1.28471 1.3204v13.23965c0 .71373-.57098 1.3204-1.28471 1.3204h-13.16828c-.71373 0-1.28471-.57098-1.28471-1.3204v-13.23965c-.0357-.74942.53529-1.3204 1.28471-1.3204m19.62081 0h13.16829c.71372 0 1.28471.57098 1.28471 1.3204v13.23965c0 .71373-.57099 1.3204-1.28471 1.3204h-13.16829c-.71373 0-1.28471-.57098-1.28471-1.3204v-13.23965c-.0357-.74942.5353-1.3204 1.28471-1.3204m19.87066 0h13.16828c.71373 0 1.28471.57098 1.28471 1.3204v13.23965c0 .71373-.57098 1.3204-1.28471 1.3204H437.5834c-.71373 0-1.28471-.57098-1.28471-1.3204v-13.23965c0-.74942.57098-1.3204 1.28471-1.3204m19.67213 0h13.16828c.71373 0 1.28471.57098 1.28471 1.3204v13.23965c0 .71373-.57098 1.3204-1.28471 1.3204h-13.16828c-.71373 0-1.28471-.57098-1.28471-1.3204v-13.23965c0-.74942.57098-1.3204 1.28471-1.3204m19.81934 0h13.16828c.71373 0 1.28471.57098 1.28471 1.3204v13.23965c0 .71373-.57098 1.3204-1.28471 1.3204h-13.16828c-.71373 0-1.28471-.57098-1.28471-1.3204v-13.23965c0-.74942.57098-1.3204 1.28471-1.3204m19.77473 0h13.16828c.71373 0 1.28471.57098 1.28471 1.3204v13.23965c0 .71373-.57098 1.3204-1.28471 1.3204H496.8496c-.71373 0-1.28472-.57098-1.28472-1.3204v-13.23965c0-.74942.57099-1.3204 1.28472-1.3204m19.75242-.19199h13.16828c.71373 0 1.28472.57098 1.28472 1.32039v13.23966c0 .71373-.57099 1.3204-1.28472 1.3204h-13.16828c-.71373 0-1.28471-.57099-1.28471-1.3204v-13.23966c-.0357-.74941.57098-1.32039 1.28471-1.32039"/>
  <path fill="#b3b3b3" d="M536.43531 221.02057h13.02554c.71373 0 1.28471.57098 1.28471 1.28471v13.02554c0 .71372-.57098 1.28471-1.28471 1.28471h-13.02554c-.71373 0-1.28471-.57099-1.28471-1.28471v-13.02554c0-.71373.57098-1.28471 1.28471-1.28471"/>
  <path fill="#e6e6e6" d="M287.38378 240.68588h13.16828c.71373 0 1.28471.57098 1.28471 1.3204v13.23966c0 .71372-.57098 1.32039-1.28471 1.32039h-13.16828c-.71373 0-1.28471-.57098-1.28471-1.32039v-13.23966c0-.74942.57098-1.3204 1.28471-1.3204m19.90634 0h13.16828c.71373 0 1.28471.57098 1.28471 1.3204v13.23966c0 .71372-.57098 1.32039-1.28471 1.32039h-13.16828c-.71373 0-1.28471-.57098-1.28471-1.32039v-13.23966c-.0357-.74942.57098-1.3204 1.28471-1.3204m19.67213 0h13.16828c.71373 0 1.28471.57098 1.28471 1.3204v13.23966c0 .71372-.57098 1.32039-1.28471 1.32039h-13.16828c-.71373 0-1.28471-.57098-1.28471-1.32039v-13.23966c0-.74942.57098-1.3204 1.28471-1.3204m19.81934 0h13.16828c.71373 0 1.28471.57098 1.28471 1.3204v13.23966c0 .71372-.57098 1.32039-1.28471 1.32039h-13.16828c-.71373 0-1.28471-.57098-1.28471-1.32039v-13.23966c0-.74942.57098-1.3204 1.28471-1.3204m19.77473 0h13.16828c.71373 0 1.28471.57098 1.28471 1.3204v13.23966c0 .71372-.57098 1.32039-1.28471 1.32039h-13.16828c-.71373 0-1.28472-.57098-1.28472-1.32039v-13.23966c0-.74942.57099-1.3204 1.28472-1.3204m19.77472 0h13.16829c.71373 0 1.28471.57098 1.28471 1.3204v13.23966c0 .71372-.57098 1.32039-1.28471 1.32039h-13.16829c-.71372 0-1.28471-.57098-1.28471-1.32039v-13.23966c-.0357-.74942.57099-1.3204 1.28471-1.3204m19.62082 0h13.16828c.71373 0 1.28471.57098 1.28471 1.3204v13.23966c0 .71372-.57098 1.32039-1.28471 1.32039h-13.16828c-.71373 0-1.28471-.57098-1.28471-1.32039v-13.23966c-.0357-.74942.53529-1.3204 1.28471-1.3204m19.87065 0h13.20397c.71373 0 1.28471.57098 1.28471 1.3204v13.23966c0 .71372-.57098 1.32039-1.28471 1.32039h-13.20397c-.71372 0-1.28471-.57098-1.28471-1.32039v-13.23966c0-.74942.57099-1.3204 1.28471-1.3204m19.67213 0h13.20397c.71373 0 1.28472.57098 1.28472 1.3204v13.23966c0 .71372-.57099 1.32039-1.28472 1.32039h-13.20397c-.71372 0-1.28471-.57098-1.28471-1.32039v-13.23966c0-.74942.57099-1.3204 1.28471-1.3204m19.85503 0h13.16828c.71373 0 1.28471.57098 1.28471 1.3204v13.23966c0 .71372-.57098 1.32039-1.28471 1.32039h-13.16828c-.71373 0-1.28471-.57098-1.28471-1.32039v-13.23966c-.0357-.74942.53529-1.3204 1.28471-1.3204m19.73904 0H498.257c.71372 0 1.28471.57098 1.28471 1.3204v13.23966c0 .71372-.57099 1.32039-1.28471 1.32039h-13.16829c-.71373 0-1.28471-.57098-1.28471-1.32039v-13.23966c0-.74942.57098-1.3204 1.28471-1.3204m19.75243-.22768h13.16828c.71373 0 1.28471.57098 1.28471 1.3204v13.23966c0 .71372-.57098 1.32039-1.28471 1.32039h-13.16828c-.71373 0-1.28471-.57098-1.28471-1.32039V241.7786c0-.71373.57098-1.3204 1.28471-1.3204m-213.50509 19.99549h13.16828c.71373 0 1.28471.57098 1.28471 1.32039v13.20398c0 .71372-.57098 1.32039-1.28471 1.32039h-13.16828c-.71373 0-1.28472-.57098-1.28472-1.32039V261.7384c0-.71373.57099-1.28471 1.28472-1.28471m19.90634 0h13.16828c.71373 0 1.28471.57098 1.28471 1.32039v13.20398c0 .71372-.57098 1.32039-1.28471 1.32039h-13.16828c-.71373 0-1.28471-.57098-1.28471-1.32039V261.7384c0-.71373.57098-1.28471 1.28471-1.28471m19.67213 0h13.16828c.71373 0 1.28471.57098 1.28471 1.32039v13.20398c0 .71372-.57098 1.32039-1.28471 1.32039h-13.16828c-.71373 0-1.28471-.57098-1.28471-1.32039V261.7384c0-.71373.57098-1.28471 1.28471-1.28471m19.81934 0h13.16828c.71373 0 1.28471.57098 1.28471 1.32039v13.20398c0 .71372-.57098 1.32039-1.28471 1.32039h-13.16828c-.71373 0-1.28472-.57098-1.28472-1.32039V261.7384c0-.71373.57099-1.28471 1.28472-1.28471m19.77472 0h13.20397c.71373 0 1.28472.57098 1.28472 1.32039v13.20398c0 .71372-.57099 1.32039-1.28472 1.32039h-13.20397c-.71372 0-1.28471-.57098-1.28471-1.32039V261.7384c0-.71373.57099-1.28471 1.28471-1.28471m19.77473 0h13.16829c.71373 0 1.28471.57098 1.28471 1.32039v13.20398c0 .71372-.57098 1.32039-1.28471 1.32039h-13.16829c-.71372 0-1.28471-.57098-1.28471-1.32039V261.7384c0-.71373.57099-1.28471 1.28471-1.28471m19.62082 0h13.16828c.71373 0 1.28471.57098 1.28471 1.32039v13.20398c0 .71372-.57098 1.32039-1.28471 1.32039h-13.16828c-.71373 0-1.28471-.57098-1.28471-1.32039V261.7384c-.0357-.71373.57098-1.28471 1.28471-1.28471m19.87065 0h13.16829c.71372 0 1.28471.57098 1.28471 1.32039v13.20398c0 .71372-.57099 1.32039-1.28471 1.32039h-13.16829c-.71373 0-1.28471-.57098-1.28471-1.32039V261.7384c0-.71373.57098-1.28471 1.28471-1.28471m19.70782 0h13.16828c.71373 0 1.28471.57098 1.28471 1.32039v13.20398c0 .71372-.57098 1.32039-1.28471 1.32039H449.4826c-.71373 0-1.28471-.57098-1.28471-1.32039V261.7384c-.0357-.71373.5353-1.28471 1.28471-1.28471m19.81934 0h13.16828c.71373 0 1.28471.57098 1.28471 1.32039v13.20398c0 .71372-.57098 1.32039-1.28471 1.32039h-13.16828c-.71373 0-1.28471-.57098-1.28471-1.32039V261.7384c-.0357-.71373.57098-1.28471 1.28471-1.28471m19.77473 0h13.16828c.71373 0 1.28471.57098 1.28471 1.32039v13.20398c0 .71372-.57098 1.32039-1.28471 1.32039h-13.16828c-.71373 0-1.28471-.57098-1.28471-1.32039V261.7384c-.0357-.71373.53529-1.28471 1.28471-1.28471m19.71674-.22768h13.16828c.71373 0 1.28471.57098 1.28471 1.3204v13.23965c0 .71373-.57098 1.3204-1.28471 1.3204h-13.16828c-.71373 0-1.28471-.57098-1.28471-1.3204v-13.23965c0-.71373.57098-1.3204 1.28471-1.3204m-209.51714 19.92904h13.16828c.71373 0 1.28472.57098 1.28472 1.32039v13.23966c0 .71373-.57099 1.3204-1.28472 1.3204h-13.16828c-.71373 0-1.28471-.57099-1.28471-1.3204v-13.23966c-.0357-.74941.57098-1.32039 1.28471-1.32039m19.87066 0h13.16828c.71373 0 1.28471.57098 1.28471 1.32039v13.23966c0 .71373-.57098 1.3204-1.28471 1.3204h-13.16828c-.71373 0-1.28472-.57099-1.28472-1.3204v-13.23966c0-.74941.57099-1.32039 1.28472-1.32039m19.70781 0h13.16829c.71372 0 1.28471.57098 1.28471 1.32039v13.23966c0 .71373-.57099 1.3204-1.28471 1.3204h-13.16829c-.71373 0-1.28471-.57099-1.28471-1.3204v-13.23966c-.0357-.74941.5353-1.32039 1.28471-1.32039m19.81934 0h13.16828c.71373 0 1.28471.57098 1.28471 1.32039v13.23966c0 .71373-.57098 1.3204-1.28471 1.3204h-13.16828c-.71373 0-1.28471-.57099-1.28471-1.3204v-13.23966c-.0357-.74941.57098-1.32039 1.28471-1.32039m19.77473 0h13.16828c.71373 0 1.28471.57098 1.28471 1.32039v13.23966c0 .71373-.57098 1.3204-1.28471 1.3204h-13.16828c-.71373 0-1.28471-.57099-1.28471-1.3204v-13.23966c-.0357-.74941.5353-1.32039 1.28471-1.32039m19.73904 0h13.16829c.71373 0 1.28471.57098 1.28471 1.32039v13.23966c0 .71373-.57098 1.3204-1.28471 1.3204h-13.16829c-.71372 0-1.28471-.57099-1.28471-1.3204v-13.23966c0-.74941.57099-1.32039 1.28471-1.32039m19.62082 0h13.16828c.71373 0 1.28471.57098 1.28471 1.32039v13.23966c0 .71373-.57098 1.3204-1.28471 1.3204h-13.16828c-.71373 0-1.28471-.57099-1.28471-1.3204v-13.23966c0-.74941.57098-1.32039 1.28471-1.32039m19.90634 0h13.16828c.71373 0 1.28471.57098 1.28471 1.32039v13.23966c0 .71373-.57098 1.3204-1.28471 1.3204h-13.16828c-.71373 0-1.28471-.57099-1.28471-1.3204v-13.23966c-.0357-.74941.57098-1.32039 1.28471-1.32039m19.67213 0h13.16828c.71373 0 1.28471.57098 1.28471 1.32039v13.23966c0 .71373-.57098 1.3204-1.28471 1.3204h-13.16828c-.71373 0-1.28471-.57099-1.28471-1.3204v-13.23966c0-.74941.57098-1.32039 1.28471-1.32039m19.81934 0h13.16828c.71373 0 1.28471.57098 1.28471 1.32039v13.23966c0 .71373-.57098 1.3204-1.28471 1.3204h-13.16828c-.71373 0-1.28471-.57099-1.28471-1.3204v-13.23966c0-.74941.57098-1.32039 1.28471-1.32039m19.77473 0h13.16828c.71373 0 1.28471.57098 1.28471 1.32039v13.23966c0 .71373-.57098 1.3204-1.28471 1.3204h-13.16828c-.71373 0-1.28471-.57099-1.28471-1.3204v-13.23966c-.0357-.74941.57098-1.32039 1.28471-1.32039"/>
  <path fill="#579d1c" d="M500.77956 299.964h13.20397c.71373 0 1.28471.57098 1.28471 1.28471v13.20397c0 .71373-.57098 1.28471-1.28471 1.28471h-13.20397c-.71373 0-1.28471-.57098-1.28471-1.28471v-13.20397c0-.71373.57098-1.28471 1.28471-1.28471"/>
  <path fill="#e6e6e6" d="M494.17015 315.75645c.71373 0 1.28471-.57099 1.28471-1.3204v-13.23966c0-.71372-.57098-1.32039-1.28471-1.32039h-171.152c-.71373 0-1.28471.57098-1.28471 1.32039v13.23966c0 .71373.57098 1.3204 1.28471 1.3204h171.152z"/>
  <path fill="#b3b3b3" d="M517.23024 280.19494h19.80596c1.07059 0 1.96275.57099 1.96275 1.28471v13.16829c0 .71373-.85647 1.28471-1.96275 1.28471h-19.80596c-1.07059 0-1.96275-.57098-1.96275-1.28471v-13.16829c.0357-.71372.89216-1.28471 1.96275-1.28471m32.27311-39.48715c.71373 0 1.28471.57099 1.28471 1.28471v32.93856c0 .71372-.57098 1.28471-1.28471 1.28471H528.377c-.71373 0-1.28471-.57099-1.28471-1.28471v-17.12948c0-.71373-.57098-1.28471-1.28471-1.28471h-1.28471c-.71373 0-1.28471-.57098-1.28471-1.28471v-13.27534c0-.71373.57098-1.28471 1.28471-1.28471l24.98048.0357"/>
  <path fill="#e6e6e6" d="M575.84592 201.39112h13.16828c.71373 0 1.28471.57098 1.28471 1.32039v13.23966c0 .71373-.57098 1.3204-1.28471 1.3204h-13.16828c-.71373 0-1.28472-.57099-1.28472-1.3204v-13.27534c-.0357-.71373.57099-1.28471 1.28472-1.28471m19.77472 0h13.16829c.71373 0 1.28471.57098 1.28471 1.32039v13.23966c0 .71373-.57098 1.3204-1.28471 1.3204h-13.16829c-.71372 0-1.28471-.57099-1.28471-1.3204v-13.27534c-.0357-.71373.5353-1.28471 1.28471-1.28471m19.71674-.22765h13.16829c.71373 0 1.28471.57099 1.28471 1.3204v13.23966c0 .71372-.57098 1.32039-1.28471 1.32039h-13.16829c-.71372 0-1.28471-.57098-1.28471-1.32039v-13.23966c0-.71373.57099-1.3204 1.28471-1.3204"/>
  <path fill="#b3b3b3" d="M635.17071 201.51416h13.02554c.71373 0 1.28471.57099 1.28471 1.28471v13.02554c0 .71373-.57098 1.28471-1.28471 1.28471h-13.02554c-.71373 0-1.28471-.57098-1.28471-1.28471v-13.02554c0-.71372.60667-1.28471 1.28471-1.28471"/>
  <path fill="#e6e6e6" d="M575.84592 221.04887h13.16828c.71373 0 1.28471.57098 1.28471 1.32039v13.23966c0 .71373-.57098 1.3204-1.28471 1.3204h-13.16828c-.71373 0-1.28472-.57099-1.28472-1.3204v-13.23966c-.0357-.71373.57099-1.32039 1.28472-1.32039m19.77472 0h13.16829c.71373 0 1.28471.57098 1.28471 1.32039v13.23966c0 .71373-.57098 1.3204-1.28471 1.3204h-13.16829c-.71372 0-1.28471-.57099-1.28471-1.3204v-13.23966c-.0357-.71373.5353-1.32039 1.28471-1.32039m19.71674-.192h13.16829c.71373 0 1.28471.57099 1.28471 1.3204v13.23966c0 .71372-.57098 1.32039-1.28471 1.32039h-13.16829c-.71372 0-1.28471-.57098-1.28471-1.32039v-13.23966c0-.74941.57099-1.3204 1.28471-1.3204"/>
  <path fill="#b3b3b3" d="M635.17071 221.17191h13.02554c.71373 0 1.28471.57099 1.28471 1.28471v13.02554c0 .71373-.57098 1.28471-1.28471 1.28471h-13.02554c-.71373 0-1.28471-.57098-1.28471-1.28471v-13.02554c0-.71372.60667-1.28471 1.28471-1.28471"/>
  <path fill="#e6e6e6" d="M575.84592 240.86246h13.16828c.71373 0 1.28471.57098 1.28471 1.32039v13.23966c0 .71373-.57098 1.3204-1.28471 1.3204h-13.16828c-.71373 0-1.28472-.57098-1.28472-1.3204v-13.23966c-.0357-.74941.57099-1.32039 1.28472-1.32039m19.77476 0h13.16828c.71373 0 1.28471.57098 1.28471 1.32039v13.23966c0 .71373-.57098 1.3204-1.28471 1.3204h-13.16828c-.71373 0-1.28471-.57098-1.28471-1.3204v-13.23966c-.0357-.74941.5353-1.32039 1.28471-1.32039m19.71674-.19196h13.16828c.71373 0 1.28471.57098 1.28471 1.3204v13.23965c0 .71373-.57098 1.3204-1.28471 1.3204h-13.16828c-.71373 0-1.28471-.57098-1.28471-1.3204V241.9909c0-.74942.57098-1.3204 1.28471-1.3204"/>
  <path fill="#b3b3b3" d="M635.17071 240.98554h13.02554c.71373 0 1.28471.57098 1.28471 1.28471v13.02554c0 .71373-.57098 1.28471-1.28471 1.28471h-13.02554c-.71373 0-1.28471-.57098-1.28471-1.28471v-13.02554c0-.71373.60667-1.28471 1.28471-1.28471"/>
  <path fill="#e6e6e6" d="M575.9256 260.51175h13.16829c.71372 0 1.28471.57098 1.28471 1.3204v13.23965c0 .71373-.57099 1.3204-1.28471 1.3204H575.9256c-.71373 0-1.28471-.57098-1.28471-1.3204v-13.23965c0-.74942.57098-1.3204 1.28471-1.3204m19.77473 0h13.16829c.71372 0 1.28471.57098 1.28471 1.3204v13.23965c0 .71373-.57099 1.3204-1.28471 1.3204h-13.16829c-.71373 0-1.28471-.57098-1.28471-1.3204v-13.23965c0-.74942.57098-1.3204 1.28471-1.3204m19.75243-.22768h13.16828c.71373 0 1.28471.57098 1.28471 1.3204v13.23965c0 .71373-.57098 1.3204-1.28471 1.3204h-13.16828c-.71373 0-1.28471-.57098-1.28471-1.3204v-13.23965c-.0357-.71373.57098-1.3204 1.28471-1.3204"/>
  <path fill="#b3b3b3" d="M635.28605 260.6348h13.02554c.71373 0 1.28471.57098 1.28471 1.28471v13.02554c0 .71372-.57098 1.28471-1.28471 1.28471h-13.02554c-.71373 0-1.28471-.57099-1.28471-1.28471v-13.02554c0-.71373.57098-1.28471 1.28471-1.28471m-85.71018-59.48971c.71373 0 1.28471-.57098 1.28471-1.28471v-5.35296c0-.71373-.57098-1.28471-1.28471-1.28471h-21.12636c-.71372 0-1.28471.57098-1.28471 1.28471v5.35296c0 .71373.57099 1.28471 1.28471 1.28471h21.12636zm-25.68083 0c.71373 0 1.28471-.57098 1.28471-1.28471v-5.35296c0-.71373-.57098-1.28471-1.28471-1.28471h-21.12635c-.71373 0-1.28472.57098-1.28472 1.28471v5.35296c0 .71373.57099 1.28471 1.28472 1.28471h21.12635zm-25.68087 0c.71373 0 1.28471-.57098 1.28471-1.28471v-5.35296c0-.71373-.57098-1.28471-1.28471-1.28471h-21.12635c-.71373 0-1.28471.57098-1.28471 1.28471v5.35296c0 .71373.57098 1.28471 1.28471 1.28471h21.12635zm-25.70313 0c.71373 0 1.28471-.57098 1.28471-1.28471v-5.35296c0-.71373-.57098-1.28471-1.28471-1.28471h-21.12635c-.71373 0-1.28471.57098-1.28471 1.28471v5.35296c0 .71373.57098 1.28471 1.28471 1.28471h21.12635z"/>
  <path fill="red" d="M446.85251 201.14509c.71373 0 1.28471-.57098 1.28471-1.28471v-5.35296c0-.71373-.57098-1.28471-1.28471-1.28471h-21.12635c-.71373 0-1.28471.57098-1.28471 1.28471v5.35296c0 .71373.57098 1.28471 1.28471 1.28471h21.12635z"/>
  <path fill="#b3b3b3" d="M383.63404 201.11651c.71373 0 1.28472-.57098 1.28472-1.28471v-5.35296c0-.71373-.57099-1.28471-1.28472-1.28471h-21.12635c-.71373 0-1.28471.57098-1.28471 1.28471v5.35296c0 .71373.57098 1.28471 1.28471 1.28471h21.12635zm-25.69342.0286c.71373 0 1.28471-.57098 1.28471-1.28471v-5.35296c0-.71373-.57098-1.28471-1.28471-1.28471h-21.12635c-.71373 0-1.28471.57098-1.28471 1.28471v5.35296c0 .71373.57098 1.28471 1.28471 1.28471h21.12635zm-25.74853 0c.71373 0 1.28471-.57098 1.28471-1.28471v-5.35296c0-.71373-.57098-1.28471-1.28471-1.28471h-21.12635c-.71373 0-1.28471.57098-1.28471 1.28471v5.35296c0 .71373.57098 1.28471 1.28471 1.28471h21.12635zm-25.62284-.003c.71373 0 1.28471-.57098 1.28471-1.28471v-5.35296c0-.71373-.57098-1.28471-1.28471-1.28471H285.4429c-.71373 0-1.28471.57098-1.28471 1.28471v5.35296c0 .71373.57098 1.28471 1.28471 1.28471h21.12635zm-25.69343 0c.71373 0 1.28472-.57098 1.28472-1.28471v-5.35296c0-.71373-.57099-1.28471-1.28472-1.28471h-21.12635c-.71373 0-1.28471.57098-1.28471 1.28471v5.35296c0 .71373.57098 1.28471 1.28471 1.28471h21.12635z"/>
  <path fill="#2323dc" d="M590.36654 315.74306l3.96119-17.77183-3.96119-17.80751h-14.56006c-.71373 0-1.28471.57098-1.28471 1.28471v33.04561c0 .71373.57098 1.28471 1.28471 1.28471l14.56006-.0357z"/>
  <path fill="#fff" d="M580.65983 302.2738l-4.31805-4.31805 4.31805-4.31806v8.63611zm-3.9255-4.31805l3.60433 3.60432v-7.24434l-3.60433 3.64002z"/>
  <path fill="#2323dc" d="M633.846 280.17499l-3.9612 17.77183 3.9612 17.80752h14.56005c.71373 0 1.28471-.57098 1.28471-1.28471v-33.04561c0-.71373-.57098-1.28471-1.28471-1.28471l-14.56005.0357z"/>
  <path fill="#fff" d="M643.5527 302.24468v-8.60042l4.31805 4.31805-4.31805 4.28237zm.28549-7.88669v7.24434l3.60433-3.60433-3.60433-3.64001z"/>
  <path fill="#2323dc" d="M594.41187 280.15505h35.57935l-3.96119 15.84476h-27.65696l-3.9612-15.84476z"/>
  <path fill="#fff" d="M616.50176 286.26634h-8.60042l4.31805-4.31805 4.28237 4.31805zm-7.92238-.28549h7.24434l-3.60433-3.60433-3.64001 3.60433z"/>
  <path fill="#2323dc" d="M629.97338 315.75645h-35.57935l3.96119-15.84477h27.65697l3.96119 15.84477z"/>
  <path fill="#fff" d="M612.20155 313.96321l-4.31806-4.31806h8.60043l-4.28237 4.31806zm-3.60433-4.03257l3.60433 3.60433 3.60432-3.60433h-7.20865z"/>
  <path fill="#d6d4d4" d="M255.52559 126.8c-.71372 0-1.35608.21412-1.35608.46392v57.34805c0 .24981.60667.46393 1.35608.46393H652.6796c.71373 0 1.3204-.21412 1.3204-.46393v-57.34805c0-.2498-.60667-.46392-1.3204-.46392H255.52559z"/>
  <path fill="#b7b7b7" d="M527.88182 160.1463c-.39255 0-.74942.32118-.74942.74942v14.66711c0 .39255.32118.74941.74942.74941h87.82424c.39255 0 .74941-.32117.74941-.74941v-14.66711c0-.39255-.32117-.74942-.74941-.74942h-87.82424z"/>
  <path fill="#545353" d="M595.70633 173.10689H531.4708c-.39255 0-.74942-.32118-.74942-.74941v-8.27925c0-.39255.32118-.74941.74942-.74941h64.23553c.39255 0 .74941.32117.74941.74941v8.27925c0 .42823-.32118.74941-.74941.74941zm-64.23553-9.38552c-.21412 0-.39255.17843-.39255.39255v8.27924c0 .21412.17843.39255.39255.39255h64.23553c.21412 0 .39255-.17843.39255-.39255v-8.27924c0-.21412-.17843-.39255-.39255-.39255H531.4708z"/>
  <path fill="#4f4d4d" d="M607.6213 163.7542c2.46237 0 4.46081 1.99844 4.46081 4.4608s-1.99844 4.4608-4.46081 4.4608c-2.46236 0-4.4608-1.99844-4.4608-4.4608s1.99844-4.4608 4.4608-4.4608"/>
  <path fill="#545353" d="M540.08928 164.90309h.53529v6.63767h-.53529zm46.78488 0h.53529v6.63767h-.53529z"/>
  <path fill="#b7b7b7" d="M527.88182 136.30618c-.39255 0-.74942.32118-.74942.74941v14.66712c0 .39255.32118.74941.74942.74941h87.82424c.39255 0 .74941-.32118.74941-.74941v-14.66712c0-.39255-.32117-.74941-.74941-.74941h-87.82424z"/>
  <path fill="#545353" d="M595.70633 149.23108H531.4708c-.39255 0-.74942-.32118-.74942-.74941v-8.27925c0-.39255.32118-.74941.74942-.74941h64.23553c.39255 0 .74941.32117.74941.74941v8.27925c0 .42823-.32118.74941-.74941.74941zm-64.23553-9.38552c-.21412 0-.39255.17843-.39255.39255v8.27924c0 .21412.17843.39255.39255.39255h64.23553c.21412 0 .39255-.17843.39255-.39255v-8.27924c0-.21412-.17843-.39255-.39255-.39255H531.4708z"/>
  <path fill="#4f4d4d" d="M607.6213 139.91407c2.46237 0 4.46081 1.99844 4.46081 4.4608 0 2.46237-1.99844 4.46081-4.46081 4.46081-2.46236 0-4.4608-1.99844-4.4608-4.46081 0-2.46236 1.99844-4.4608 4.4608-4.4608"/>
  <path fill="#545353" d="M540.08928 141.02888h.53529v6.63767h-.53529zm46.78488 0h.53529v6.63767h-.53529z"/>
  <path fill="#515050" d="M292.63407 141.32237c-.24981 0-.42824.35686-.42824.74941v1.17765c0 .39255.21412.74942.42824.74942h2.06981c.2498 0 .42824-.32118.42824-.74942v-1.17765c0-.39255-.21412-.74941-.42824-.74941h-2.06981zm0 4.55001c-.24981 0-.42824.35687-.42824.74942v1.17765c0 .39255.21412.74941.42824.74941h2.06981c.2498 0 .42824-.32117.42824-.74941v-1.17765c0-.39255-.21412-.74942-.42824-.74942h-2.06981zm0 4.58571c-.24981 0-.42824.35686-.42824.74941v1.17765c0 .39255.21412.74942.42824.74942h2.06981c.2498 0 .42824-.32118.42824-.74942v-1.17765c0-.39255-.21412-.74941-.42824-.74941h-2.06981zm0 4.55001c-.24981 0-.42824.35687-.42824.74942v1.17765c0 .39255.21412.74941.42824.74941h2.06981c.2498 0 .42824-.32117.42824-.74941v-1.17765c0-.39255-.21412-.74942-.42824-.74942h-2.06981zm0 4.58571c-.24981 0-.42824.35686-.42824.74941v1.17765c0 .39255.21412.74942.42824.74942h2.06981c.2498 0 .42824-.32118.42824-.74942v-1.17765c0-.39255-.21412-.74941-.42824-.74941h-2.06981zm0 4.5857c-.24981 0-.42824.35686-.42824.74941v1.17766c0 .39255.21412.74941.42824.74941h2.06981c.2498 0 .42824-.32118.42824-.74941v-1.17766c0-.39255-.21412-.74941-.42824-.74941h-2.06981zm0 4.55002c-.24981 0-.42824.35686-.42824.74941v1.17765c0 .39255.21412.74942.42824.74942h2.06981c.2498 0 .42824-.32118.42824-.74942v-1.17765c0-.39255-.21412-.74941-.42824-.74941h-2.06981zm4.67492-27.40716c-.24981 0-.42824.35686-.42824.74941v1.17765c0 .39255.21412.74942.42824.74942h2.06981c.2498 0 .42823-.32118.42823-.74942v-1.17765c0-.39255-.21411-.74941-.42823-.74941h-2.06981zm0 4.55001c-.24981 0-.42824.35687-.42824.74942v1.17765c0 .39255.21412.74941.42824.74941h2.06981c.2498 0 .42823-.32117.42823-.74941v-1.17765c0-.39255-.21411-.74942-.42823-.74942h-2.06981zm0 4.58571c-.24981 0-.42824.35686-.42824.74941v1.17765c0 .39255.21412.74942.42824.74942h2.06981c.2498 0 .42823-.32118.42823-.74942v-1.17765c0-.39255-.21411-.74941-.42823-.74941h-2.06981zm0 4.55001c-.24981 0-.42824.35687-.42824.74942v1.17765c0 .39255.21412.74941.42824.74941h2.06981c.2498 0 .42823-.32117.42823-.74941v-1.17765c0-.39255-.21411-.74942-.42823-.74942h-2.06981zm0 4.58571c-.24981 0-.42824.35686-.42824.74941v1.17765c0 .39255.21412.74942.42824.74942h2.06981c.2498 0 .42823-.32118.42823-.74942v-1.17765c0-.39255-.21411-.74941-.42823-.74941h-2.06981zm0 4.5857c-.24981 0-.42824.35686-.42824.74941v1.17766c0 .39255.21412.74941.42824.74941h2.06981c.2498 0 .42823-.32118.42823-.74941v-1.17766c0-.39255-.21411-.74941-.42823-.74941h-2.06981zm0 4.55002c-.24981 0-.42824.35686-.42824.74941v1.17765c0 .39255.21412.74942.42824.74942h2.06981c.2498 0 .42823-.32118.42823-.74942v-1.17765c0-.39255-.21411-.74941-.42823-.74941h-2.06981zm4.67492-27.40716c-.24981 0-.42824.35686-.42824.74941v1.17765c0 .39255.21412.74942.42824.74942h2.06981c.2498 0 .42823-.32118.42823-.74942v-1.17765c0-.39255-.21411-.74941-.42823-.74941h-2.06981zm0 4.55001c-.24981 0-.42824.35687-.42824.74942v1.17765c0 .39255.21412.74941.42824.74941h2.06981c.2498 0 .42823-.32117.42823-.74941v-1.17765c0-.39255-.21411-.74942-.42823-.74942h-2.06981zm0 4.58571c-.24981 0-.42824.35686-.42824.74941v1.17765c0 .39255.21412.74942.42824.74942h2.06981c.2498 0 .42823-.32118.42823-.74942v-1.17765c0-.39255-.21411-.74941-.42823-.74941h-2.06981zm0 4.55001c-.24981 0-.42824.35687-.42824.74942v1.17765c0 .39255.21412.74941.42824.74941h2.06981c.2498 0 .42823-.32117.42823-.74941v-1.17765c0-.39255-.21411-.74942-.42823-.74942h-2.06981zm0 4.58571c-.24981 0-.42824.35686-.42824.74941v1.17765c0 .39255.21412.74942.42824.74942h2.06981c.2498 0 .42823-.32118.42823-.74942v-1.17765c0-.39255-.21411-.74941-.42823-.74941h-2.06981zm0 4.5857c-.24981 0-.42824.35686-.42824.74941v1.17766c0 .39255.21412.74941.42824.74941h2.06981c.2498 0 .42823-.32118.42823-.74941v-1.17766c0-.39255-.21411-.74941-.42823-.74941h-2.06981zm0 4.55002c-.24981 0-.42824.35686-.42824.74941v1.17765c0 .39255.21412.74942.42824.74942h2.06981c.2498 0 .42823-.32118.42823-.74942v-1.17765c0-.39255-.21411-.74941-.42823-.74941h-2.06981zm4.67491-27.40716c-.2498 0-.42823.35686-.42823.74941v1.17765c0 .39255.21412.74942.42823.74942h2.06982c.2498 0 .42823-.32118.42823-.74942v-1.17765c0-.39255-.21412-.74941-.42823-.74941h-2.06982zm0 4.55001c-.2498 0-.42823.35687-.42823.74942v1.17765c0 .39255.21412.74941.42823.74941h2.06982c.2498 0 .42823-.32117.42823-.74941v-1.17765c0-.39255-.21412-.74942-.42823-.74942h-2.06982zm0 4.58571c-.2498 0-.42823.35686-.42823.74941v1.17765c0 .39255.21412.74942.42823.74942h2.06982c.2498 0 .42823-.32118.42823-.74942v-1.17765c0-.39255-.21412-.74941-.42823-.74941h-2.06982zm0 4.55001c-.2498 0-.42823.35687-.42823.74942v1.17765c0 .39255.21412.74941.42823.74941h2.06982c.2498 0 .42823-.32117.42823-.74941v-1.17765c0-.39255-.21412-.74942-.42823-.74942h-2.06982zm0 4.58571c-.2498 0-.42823.35686-.42823.74941v1.17765c0 .39255.21412.74942.42823.74942h2.06982c.2498 0 .42823-.32118.42823-.74942v-1.17765c0-.39255-.21412-.74941-.42823-.74941h-2.06982zm0 4.5857c-.2498 0-.42823.35686-.42823.74941v1.17766c0 .39255.21412.74941.42823.74941h2.06982c.2498 0 .42823-.32118.42823-.74941v-1.17766c0-.39255-.21412-.74941-.42823-.74941h-2.06982zm0 4.55002c-.2498 0-.42823.35686-.42823.74941v1.17765c0 .39255.21412.74942.42823.74942h2.06982c.2498 0 .42823-.32118.42823-.74942v-1.17765c0-.39255-.21412-.74941-.42823-.74941h-2.06982zm4.71061-27.40716c-.2498 0-.42824.35686-.42824.74941v1.17765c0 .39255.21412.74942.42824.74942h2.06981c.24981 0 .42824-.32118.42824-.74942v-1.17765c0-.39255-.21412-.74941-.42824-.74941h-2.06981zm0 4.55001c-.2498 0-.42824.35687-.42824.74942v1.17765c0 .39255.21412.74941.42824.74941h2.06981c.24981 0 .42824-.32117.42824-.74941v-1.17765c0-.39255-.21412-.74942-.42824-.74942h-2.06981zm0 4.58571c-.2498 0-.42824.35686-.42824.74941v1.17765c0 .39255.21412.74942.42824.74942h2.06981c.24981 0 .42824-.32118.42824-.74942v-1.17765c0-.39255-.21412-.74941-.42824-.74941h-2.06981zm0 4.55001c-.2498 0-.42824.35687-.42824.74942v1.17765c0 .39255.21412.74941.42824.74941h2.06981c.24981 0 .42824-.32117.42824-.74941v-1.17765c0-.39255-.21412-.74942-.42824-.74942h-2.06981zm0 4.58571c-.2498 0-.42824.35686-.42824.74941v1.17765c0 .39255.21412.74942.42824.74942h2.06981c.24981 0 .42824-.32118.42824-.74942v-1.17765c0-.39255-.21412-.74941-.42824-.74941h-2.06981zm0 4.5857c-.2498 0-.42824.35686-.42824.74941v1.17766c0 .39255.21412.74941.42824.74941h2.06981c.24981 0 .42824-.32118.42824-.74941v-1.17766c0-.39255-.21412-.74941-.42824-.74941h-2.06981zm0 4.55002c-.2498 0-.42824.35686-.42824.74941v1.17765c0 .39255.21412.74942.42824.74942h2.06981c.24981 0 .42824-.32118.42824-.74942v-1.17765c0-.39255-.21412-.74941-.42824-.74941h-2.06981zm4.67492-27.40716c-.24981 0-.42824.35686-.42824.74941v1.17765c0 .39255.21412.74942.42824.74942h2.06981c.24981 0 .42824-.32118.42824-.74942v-1.17765c0-.39255-.21412-.74941-.42824-.74941h-2.06981zm0 4.55001c-.24981 0-.42824.35687-.42824.74942v1.17765c0 .39255.21412.74941.42824.74941h2.06981c.24981 0 .42824-.32117.42824-.74941v-1.17765c0-.39255-.21412-.74942-.42824-.74942h-2.06981zm0 4.58571c-.24981 0-.42824.35686-.42824.74941v1.17765c0 .39255.21412.74942.42824.74942h2.06981c.24981 0 .42824-.32118.42824-.74942v-1.17765c0-.39255-.21412-.74941-.42824-.74941h-2.06981zm0 4.55001c-.24981 0-.42824.35687-.42824.74942v1.17765c0 .39255.21412.74941.42824.74941h2.06981c.24981 0 .42824-.32117.42824-.74941v-1.17765c0-.39255-.21412-.74942-.42824-.74942h-2.06981zm0 4.58571c-.24981 0-.42824.35686-.42824.74941v1.17765c0 .39255.21412.74942.42824.74942h2.06981c.24981 0 .42824-.32118.42824-.74942v-1.17765c0-.39255-.21412-.74941-.42824-.74941h-2.06981zm0 4.5857c-.24981 0-.42824.35686-.42824.74941v1.17766c0 .39255.21412.74941.42824.74941h2.06981c.24981 0 .42824-.32118.42824-.74941v-1.17766c0-.39255-.21412-.74941-.42824-.74941h-2.06981zm0 4.55002c-.24981 0-.42824.35686-.42824.74941v1.17765c0 .39255.21412.74942.42824.74942h2.06981c.24981 0 .42824-.32118.42824-.74942v-1.17765c0-.39255-.21412-.74941-.42824-.74941h-2.06981zm4.67492-27.40716c-.24981 0-.42824.35686-.42824.74941v1.17765c0 .39255.21412.74942.42824.74942h2.06981c.2498 0 .42824-.32118.42824-.74942v-1.17765c0-.39255-.21412-.74941-.42824-.74941h-2.06981zm0 4.55001c-.24981 0-.42824.35687-.42824.74942v1.17765c0 .39255.21412.74941.42824.74941h2.06981c.2498 0 .42824-.32117.42824-.74941v-1.17765c0-.39255-.21412-.74942-.42824-.74942h-2.06981zm0 4.58571c-.24981 0-.42824.35686-.42824.74941v1.17765c0 .39255.21412.74942.42824.74942h2.06981c.2498 0 .42824-.32118.42824-.74942v-1.17765c0-.39255-.21412-.74941-.42824-.74941h-2.06981zm0 4.55001c-.24981 0-.42824.35687-.42824.74942v1.17765c0 .39255.21412.74941.42824.74941h2.06981c.2498 0 .42824-.32117.42824-.74941v-1.17765c0-.39255-.21412-.74942-.42824-.74942h-2.06981zm0 4.58571c-.24981 0-.42824.35686-.42824.74941v1.17765c0 .39255.21412.74942.42824.74942h2.06981c.2498 0 .42824-.32118.42824-.74942v-1.17765c0-.39255-.21412-.74941-.42824-.74941h-2.06981zm0 4.5857c-.24981 0-.42824.35686-.42824.74941v1.17766c0 .39255.21412.74941.42824.74941h2.06981c.2498 0 .42824-.32118.42824-.74941v-1.17766c0-.39255-.21412-.74941-.42824-.74941h-2.06981zm0 4.55002c-.24981 0-.42824.35686-.42824.74941v1.17765c0 .39255.21412.74942.42824.74942h2.06981c.2498 0 .42824-.32118.42824-.74942v-1.17765c0-.39255-.21412-.74941-.42824-.74941h-2.06981zm4.67492-27.40716c-.24981 0-.42824.35686-.42824.74941v1.17765c0 .39255.21412.74942.42824.74942h2.06981c.2498 0 .42824-.32118.42824-.74942v-1.17765c0-.39255-.21412-.74941-.42824-.74941h-2.06981zm0 4.55001c-.24981 0-.42824.35687-.42824.74942v1.17765c0 .39255.21412.74941.42824.74941h2.06981c.2498 0 .42824-.32117.42824-.74941v-1.17765c0-.39255-.21412-.74942-.42824-.74942h-2.06981zm0 4.58571c-.24981 0-.42824.35686-.42824.74941v1.17765c0 .39255.21412.74942.42824.74942h2.06981c.2498 0 .42824-.32118.42824-.74942v-1.17765c0-.39255-.21412-.74941-.42824-.74941h-2.06981zm0 4.55001c-.24981 0-.42824.35687-.42824.74942v1.17765c0 .39255.21412.74941.42824.74941h2.06981c.2498 0 .42824-.32117.42824-.74941v-1.17765c0-.39255-.21412-.74942-.42824-.74942h-2.06981zm0 4.58571c-.24981 0-.42824.35686-.42824.74941v1.17765c0 .39255.21412.74942.42824.74942h2.06981c.2498 0 .42824-.32118.42824-.74942v-1.17765c0-.39255-.21412-.74941-.42824-.74941h-2.06981zm0 4.5857c-.24981 0-.42824.35686-.42824.74941v1.17766c0 .39255.21412.74941.42824.74941h2.06981c.2498 0 .42824-.32118.42824-.74941v-1.17766c0-.39255-.21412-.74941-.42824-.74941h-2.06981zm0 4.55002c-.24981 0-.42824.35686-.42824.74941v1.17765c0 .39255.21412.74942.42824.74942h2.06981c.2498 0 .42824-.32118.42824-.74942v-1.17765c0-.39255-.21412-.74941-.42824-.74941h-2.06981zm4.7106-27.40716c-.2498 0-.42823.35686-.42823.74941v1.17765c0 .39255.21411.74942.42823.74942h2.06981c.24981 0 .42824-.32118.42824-.74942v-1.17765c0-.39255-.21412-.74941-.42824-.74941h-2.06981zm0 4.55001c-.2498 0-.42823.35687-.42823.74942v1.17765c0 .39255.21411.74941.42823.74941h2.06981c.24981 0 .42824-.32117.42824-.74941v-1.17765c0-.39255-.21412-.74942-.42824-.74942h-2.06981zm0 4.58571c-.2498 0-.42823.35686-.42823.74941v1.17765c0 .39255.21411.74942.42823.74942h2.06981c.24981 0 .42824-.32118.42824-.74942v-1.17765c0-.39255-.21412-.74941-.42824-.74941h-2.06981zm0 4.55001c-.2498 0-.42823.35687-.42823.74942v1.17765c0 .39255.21411.74941.42823.74941h2.06981c.24981 0 .42824-.32117.42824-.74941v-1.17765c0-.39255-.21412-.74942-.42824-.74942h-2.06981zm0 4.58571c-.2498 0-.42823.35686-.42823.74941v1.17765c0 .39255.21411.74942.42823.74942h2.06981c.24981 0 .42824-.32118.42824-.74942v-1.17765c0-.39255-.21412-.74941-.42824-.74941h-2.06981zm0 4.5857c-.2498 0-.42823.35686-.42823.74941v1.17766c0 .39255.21411.74941.42823.74941h2.06981c.24981 0 .42824-.32118.42824-.74941v-1.17766c0-.39255-.21412-.74941-.42824-.74941h-2.06981zm0 4.55002c-.2498 0-.42823.35686-.42823.74941v1.17765c0 .39255.21411.74942.42823.74942h2.06981c.24981 0 .42824-.32118.42824-.74942v-1.17765c0-.39255-.21412-.74941-.42824-.74941h-2.06981zm4.67492-27.40716c-.2498 0-.42823.35686-.42823.74941v1.17765c0 .39255.21411.74942.42823.74942h2.06981c.24981 0 .42824-.32118.42824-.74942v-1.17765c0-.39255-.21412-.74941-.42824-.74941h-2.06981zm0 4.55001c-.2498 0-.42823.35687-.42823.74942v1.17765c0 .39255.21411.74941.42823.74941h2.06981c.24981 0 .42824-.32117.42824-.74941v-1.17765c0-.39255-.21412-.74942-.42824-.74942h-2.06981zm0 4.58571c-.2498 0-.42823.35686-.42823.74941v1.17765c0 .39255.21411.74942.42823.74942h2.06981c.24981 0 .42824-.32118.42824-.74942v-1.17765c0-.39255-.21412-.74941-.42824-.74941h-2.06981zm0 4.55001c-.2498 0-.42823.35687-.42823.74942v1.17765c0 .39255.21411.74941.42823.74941h2.06981c.24981 0 .42824-.32117.42824-.74941v-1.17765c0-.39255-.21412-.74942-.42824-.74942h-2.06981zm0 4.58571c-.2498 0-.42823.35686-.42823.74941v1.17765c0 .39255.21411.74942.42823.74942h2.06981c.24981 0 .42824-.32118.42824-.74942v-1.17765c0-.39255-.21412-.74941-.42824-.74941h-2.06981zm0 4.5857c-.2498 0-.42823.35686-.42823.74941v1.17766c0 .39255.21411.74941.42823.74941h2.06981c.24981 0 .42824-.32118.42824-.74941v-1.17766c0-.39255-.21412-.74941-.42824-.74941h-2.06981zm0 4.55002c-.2498 0-.42823.35686-.42823.74941v1.17765c0 .39255.21411.74942.42823.74942h2.06981c.24981 0 .42824-.32118.42824-.74942v-1.17765c0-.39255-.21412-.74941-.42824-.74941h-2.06981zm4.67492-27.40716c-.2498 0-.42824.35686-.42824.74941v1.17765c0 .39255.21412.74942.42824.74942h2.06981c.24981 0 .42824-.32118.42824-.74942v-1.17765c0-.39255-.21412-.74941-.42824-.74941h-2.06981zm0 4.55001c-.2498 0-.42824.35687-.42824.74942v1.17765c0 .39255.21412.74941.42824.74941h2.06981c.24981 0 .42824-.32117.42824-.74941v-1.17765c0-.39255-.21412-.74942-.42824-.74942h-2.06981zm0 4.58571c-.2498 0-.42824.35686-.42824.74941v1.17765c0 .39255.21412.74942.42824.74942h2.06981c.24981 0 .42824-.32118.42824-.74942v-1.17765c0-.39255-.21412-.74941-.42824-.74941h-2.06981zm0 4.55001c-.2498 0-.42824.35687-.42824.74942v1.17765c0 .39255.21412.74941.42824.74941h2.06981c.24981 0 .42824-.32117.42824-.74941v-1.17765c0-.39255-.21412-.74942-.42824-.74942h-2.06981zm0 4.58571c-.2498 0-.42824.35686-.42824.74941v1.17765c0 .39255.21412.74942.42824.74942h2.06981c.24981 0 .42824-.32118.42824-.74942v-1.17765c0-.39255-.21412-.74941-.42824-.74941h-2.06981zm0 4.5857c-.2498 0-.42824.35686-.42824.74941v1.17766c0 .39255.21412.74941.42824.74941h2.06981c.24981 0 .42824-.32118.42824-.74941v-1.17766c0-.39255-.21412-.74941-.42824-.74941h-2.06981zm0 4.55002c-.2498 0-.42824.35686-.42824.74941v1.17765c0 .39255.21412.74942.42824.74942h2.06981c.24981 0 .42824-.32118.42824-.74942v-1.17765c0-.39255-.21412-.74941-.42824-.74941h-2.06981zm4.67492-27.40716c-.2498 0-.42824.35686-.42824.74941v1.17765c0 .39255.21412.74942.42824.74942h2.06981c.24981 0 .42824-.32118.42824-.74942v-1.17765c0-.39255-.21412-.74941-.42824-.74941h-2.06981zm0 4.55001c-.2498 0-.42824.35687-.42824.74942v1.17765c0 .39255.21412.74941.42824.74941h2.06981c.24981 0 .42824-.32117.42824-.74941v-1.17765c0-.39255-.21412-.74942-.42824-.74942h-2.06981zm0 4.58571c-.2498 0-.42824.35686-.42824.74941v1.17765c0 .39255.21412.74942.42824.74942h2.06981c.24981 0 .42824-.32118.42824-.74942v-1.17765c0-.39255-.21412-.74941-.42824-.74941h-2.06981zm0 4.55001c-.2498 0-.42824.35687-.42824.74942v1.17765c0 .39255.21412.74941.42824.74941h2.06981c.24981 0 .42824-.32117.42824-.74941v-1.17765c0-.39255-.21412-.74942-.42824-.74942h-2.06981zm0 4.58571c-.2498 0-.42824.35686-.42824.74941v1.17765c0 .39255.21412.74942.42824.74942h2.06981c.24981 0 .42824-.32118.42824-.74942v-1.17765c0-.39255-.21412-.74941-.42824-.74941h-2.06981zm0 4.5857c-.2498 0-.42824.35686-.42824.74941v1.17766c0 .39255.21412.74941.42824.74941h2.06981c.24981 0 .42824-.32118.42824-.74941v-1.17766c0-.39255-.21412-.74941-.42824-.74941h-2.06981zm0 4.55002c-.2498 0-.42824.35686-.42824.74941v1.17765c0 .39255.21412.74942.42824.74942h2.06981c.24981 0 .42824-.32118.42824-.74942v-1.17765c0-.39255-.21412-.74941-.42824-.74941h-2.06981zm4.71061-27.40716c-.24981 0-.42824.35686-.42824.74941v1.17765c0 .39255.21412.74942.42824.74942h2.06981c.2498 0 .42823-.32118.42823-.74942v-1.17765c0-.39255-.21411-.74941-.42823-.74941h-2.06981zm0 4.55001c-.24981 0-.42824.35687-.42824.74942v1.17765c0 .39255.21412.74941.42824.74941h2.06981c.2498 0 .42823-.32117.42823-.74941v-1.17765c0-.39255-.21411-.74942-.42823-.74942h-2.06981zm0 4.58571c-.24981 0-.42824.35686-.42824.74941v1.17765c0 .39255.21412.74942.42824.74942h2.06981c.2498 0 .42823-.32118.42823-.74942v-1.17765c0-.39255-.21411-.74941-.42823-.74941h-2.06981zm0 4.55001c-.24981 0-.42824.35687-.42824.74942v1.17765c0 .39255.21412.74941.42824.74941h2.06981c.2498 0 .42823-.32117.42823-.74941v-1.17765c0-.39255-.21411-.74942-.42823-.74942h-2.06981zm0 4.58571c-.24981 0-.42824.35686-.42824.74941v1.17765c0 .39255.21412.74942.42824.74942h2.06981c.2498 0 .42823-.32118.42823-.74942v-1.17765c0-.39255-.21411-.74941-.42823-.74941h-2.06981zm0 4.5857c-.24981 0-.42824.35686-.42824.74941v1.17766c0 .39255.21412.74941.42824.74941h2.06981c.2498 0 .42823-.32118.42823-.74941v-1.17766c0-.39255-.21411-.74941-.42823-.74941h-2.06981zm0 4.55002c-.24981 0-.42824.35686-.42824.74941v1.17765c0 .39255.21412.74942.42824.74942h2.06981c.2498 0 .42823-.32118.42823-.74942v-1.17765c0-.39255-.21411-.74941-.42823-.74941h-2.06981zm4.67492-27.40716c-.24981 0-.42824.35686-.42824.74941v1.17765c0 .39255.21412.74942.42824.74942h2.06981c.2498 0 .42823-.32118.42823-.74942v-1.17765c0-.39255-.21411-.74941-.42823-.74941h-2.06981zm0 4.55001c-.24981 0-.42824.35687-.42824.74942v1.17765c0 .39255.21412.74941.42824.74941h2.06981c.2498 0 .42823-.32117.42823-.74941v-1.17765c0-.39255-.21411-.74942-.42823-.74942h-2.06981zm0 4.58571c-.24981 0-.42824.35686-.42824.74941v1.17765c0 .39255.21412.74942.42824.74942h2.06981c.2498 0 .42823-.32118.42823-.74942v-1.17765c0-.39255-.21411-.74941-.42823-.74941h-2.06981zm0 4.55001c-.24981 0-.42824.35687-.42824.74942v1.17765c0 .39255.21412.74941.42824.74941h2.06981c.2498 0 .42823-.32117.42823-.74941v-1.17765c0-.39255-.21411-.74942-.42823-.74942h-2.06981zm0 4.58571c-.24981 0-.42824.35686-.42824.74941v1.17765c0 .39255.21412.74942.42824.74942h2.06981c.2498 0 .42823-.32118.42823-.74942v-1.17765c0-.39255-.21411-.74941-.42823-.74941h-2.06981zm0 4.5857c-.24981 0-.42824.35686-.42824.74941v1.17766c0 .39255.21412.74941.42824.74941h2.06981c.2498 0 .42823-.32118.42823-.74941v-1.17766c0-.39255-.21411-.74941-.42823-.74941h-2.06981zm0 4.55002c-.24981 0-.42824.35686-.42824.74941v1.17765c0 .39255.21412.74942.42824.74942h2.06981c.2498 0 .42823-.32118.42823-.74942v-1.17765c0-.39255-.21411-.74941-.42823-.74941h-2.06981zm4.67491-27.40716c-.2498 0-.42823.35686-.42823.74941v1.17765c0 .39255.21412.74942.42823.74942h2.06982c.2498 0 .42823-.32118.42823-.74942v-1.17765c0-.39255-.21412-.74941-.42823-.74941h-2.06982zm0 4.55001c-.2498 0-.42823.35687-.42823.74942v1.17765c0 .39255.21412.74941.42823.74941h2.06982c.2498 0 .42823-.32117.42823-.74941v-1.17765c0-.39255-.21412-.74942-.42823-.74942h-2.06982zm0 4.58571c-.2498 0-.42823.35686-.42823.74941v1.17765c0 .39255.21412.74942.42823.74942h2.06982c.2498 0 .42823-.32118.42823-.74942v-1.17765c0-.39255-.21412-.74941-.42823-.74941h-2.06982zm0 4.55001c-.2498 0-.42823.35687-.42823.74942v1.17765c0 .39255.21412.74941.42823.74941h2.06982c.2498 0 .42823-.32117.42823-.74941v-1.17765c0-.39255-.21412-.74942-.42823-.74942h-2.06982zm0 4.58571c-.2498 0-.42823.35686-.42823.74941v1.17765c0 .39255.21412.74942.42823.74942h2.06982c.2498 0 .42823-.32118.42823-.74942v-1.17765c0-.39255-.21412-.74941-.42823-.74941h-2.06982zm0 4.5857c-.2498 0-.42823.35686-.42823.74941v1.17766c0 .39255.21412.74941.42823.74941h2.06982c.2498 0 .42823-.32118.42823-.74941v-1.17766c0-.39255-.21412-.74941-.42823-.74941h-2.06982zm0 4.55002c-.2498 0-.42823.35686-.42823.74941v1.17765c0 .39255.21412.74942.42823.74942h2.06982c.2498 0 .42823-.32118.42823-.74942v-1.17765c0-.39255-.21412-.74941-.42823-.74941h-2.06982zm4.67492-27.40716c-.2498 0-.42823.35686-.42823.74941v1.17765c0 .39255.21412.74942.42823.74942h2.06982c.2498 0 .42823-.32118.42823-.74942v-1.17765c0-.39255-.21412-.74941-.42823-.74941h-2.06982zm0 4.55001c-.2498 0-.42823.35687-.42823.74942v1.17765c0 .39255.21412.74941.42823.74941h2.06982c.2498 0 .42823-.32117.42823-.74941v-1.17765c0-.39255-.21412-.74942-.42823-.74942h-2.06982zm0 4.58571c-.2498 0-.42823.35686-.42823.74941v1.17765c0 .39255.21412.74942.42823.74942h2.06982c.2498 0 .42823-.32118.42823-.74942v-1.17765c0-.39255-.21412-.74941-.42823-.74941h-2.06982zm0 4.55001c-.2498 0-.42823.35687-.42823.74942v1.17765c0 .39255.21412.74941.42823.74941h2.06982c.2498 0 .42823-.32117.42823-.74941v-1.17765c0-.39255-.21412-.74942-.42823-.74942h-2.06982zm0 4.58571c-.2498 0-.42823.35686-.42823.74941v1.17765c0 .39255.21412.74942.42823.74942h2.06982c.2498 0 .42823-.32118.42823-.74942v-1.17765c0-.39255-.21412-.74941-.42823-.74941h-2.06982zm0 4.5857c-.2498 0-.42823.35686-.42823.74941v1.17766c0 .39255.21412.74941.42823.74941h2.06982c.2498 0 .42823-.32118.42823-.74941v-1.17766c0-.39255-.21412-.74941-.42823-.74941h-2.06982zm0 4.55002c-.2498 0-.42823.35686-.42823.74941v1.17765c0 .39255.21412.74942.42823.74942h2.06982c.2498 0 .42823-.32118.42823-.74942v-1.17765c0-.39255-.21412-.74941-.42823-.74941h-2.06982zm4.71061-27.40716c-.24981 0-.42824.35686-.42824.74941v1.17765c0 .39255.21412.74942.42824.74942h2.06981c.24981 0 .42824-.32118.42824-.74942v-1.17765c0-.39255-.21412-.74941-.42824-.74941h-2.06981zm0 4.55001c-.24981 0-.42824.35687-.42824.74942v1.17765c0 .39255.21412.74941.42824.74941h2.06981c.24981 0 .42824-.32117.42824-.74941v-1.17765c0-.39255-.21412-.74942-.42824-.74942h-2.06981zm0 4.58571c-.24981 0-.42824.35686-.42824.74941v1.17765c0 .39255.21412.74942.42824.74942h2.06981c.24981 0 .42824-.32118.42824-.74942v-1.17765c0-.39255-.21412-.74941-.42824-.74941h-2.06981zm0 4.55001c-.24981 0-.42824.35687-.42824.74942v1.17765c0 .39255.21412.74941.42824.74941h2.06981c.24981 0 .42824-.32117.42824-.74941v-1.17765c0-.39255-.21412-.74942-.42824-.74942h-2.06981zm0 4.58571c-.24981 0-.42824.35686-.42824.74941v1.17765c0 .39255.21412.74942.42824.74942h2.06981c.24981 0 .42824-.32118.42824-.74942v-1.17765c0-.39255-.21412-.74941-.42824-.74941h-2.06981zm0 4.5857c-.24981 0-.42824.35686-.42824.74941v1.17766c0 .39255.21412.74941.42824.74941h2.06981c.24981 0 .42824-.32118.42824-.74941v-1.17766c0-.39255-.21412-.74941-.42824-.74941h-2.06981zm0 4.55002c-.24981 0-.42824.35686-.42824.74941v1.17765c0 .39255.21412.74942.42824.74942h2.06981c.24981 0 .42824-.32118.42824-.74942v-1.17765c0-.39255-.21412-.74941-.42824-.74941h-2.06981zm4.67492-27.40716c-.24981 0-.42824.35686-.42824.74941v1.17765c0 .39255.21412.74942.42824.74942h2.06981c.2498 0 .42824-.32118.42824-.74942v-1.17765c0-.39255-.21412-.74941-.42824-.74941h-2.06981zm0 4.55001c-.24981 0-.42824.35687-.42824.74942v1.17765c0 .39255.21412.74941.42824.74941h2.06981c.2498 0 .42824-.32117.42824-.74941v-1.17765c0-.39255-.21412-.74942-.42824-.74942h-2.06981zm0 4.58571c-.24981 0-.42824.35686-.42824.74941v1.17765c0 .39255.21412.74942.42824.74942h2.06981c.2498 0 .42824-.32118.42824-.74942v-1.17765c0-.39255-.21412-.74941-.42824-.74941h-2.06981zm0 4.55001c-.24981 0-.42824.35687-.42824.74942v1.17765c0 .39255.21412.74941.42824.74941h2.06981c.2498 0 .42824-.32117.42824-.74941v-1.17765c0-.39255-.21412-.74942-.42824-.74942h-2.06981zm0 4.58571c-.24981 0-.42824.35686-.42824.74941v1.17765c0 .39255.21412.74942.42824.74942h2.06981c.2498 0 .42824-.32118.42824-.74942v-1.17765c0-.39255-.21412-.74941-.42824-.74941h-2.06981zm0 4.5857c-.24981 0-.42824.35686-.42824.74941v1.17766c0 .39255.21412.74941.42824.74941h2.06981c.2498 0 .42824-.32118.42824-.74941v-1.17766c0-.39255-.21412-.74941-.42824-.74941h-2.06981zm0 4.55002c-.24981 0-.42824.35686-.42824.74941v1.17765c0 .39255.21412.74942.42824.74942h2.06981c.2498 0 .42824-.32118.42824-.74942v-1.17765c0-.39255-.21412-.74941-.42824-.74941h-2.06981z"/>
  <path fill="none" stroke="#545353" stroke-width=".35686406" stroke-miterlimit="10" d="M502.35454 133.96226c0-.32118-.39255-.57098-.89216-.57098m-.002 45.07525c.49961 0 .89216-.24981.89216-.57099m-104.42409.0196c0 .32118.39255.57098.89216.57098m.001-45.07528c-.49961 0-.89216.2498-.89216.57098"/>
  <path fill="#545353" d="M397.75012 133.96226h.35687v43.96565h-.35687zm1.07192 44.32583h102.6341v.35687h-102.6341zm.0814-45.05565h102.56273v.35686H398.90344zm103.27264.71708h.35687v43.96565h-.35687z"/>
  <path fill="#515050" d="M499.58521 137.99554h-98.92272v-1.67726h98.92272v1.67726zm.0714 3.28315h-98.92272v-1.67726h98.92272v1.67726zm-.0714 3.24746h-98.92272v-1.67726h98.92272v1.67726zm.0357 3.28315H400.6982v-1.67726h98.92271v1.67726zm-.0714 3.28315h-98.92272v-1.67726h98.92272v1.67726zm.0357 3.28315h-98.92272v-1.67726h98.92272v1.67726zm.0714 3.24746h-98.92272v-1.67726h98.92272v1.67726zm.0357 3.28315h-98.92272v-1.67726h98.92272v1.67726zm-.21412 3.28315h-98.88703v-1.67726h98.92272v1.67726zm0 10.70592h-98.88703v-8.02944h98.92272v8.02944z"/>
  <path fill="#b7b7b7" d="M255.35608 189.05632h397.33244v-3.99687H255.49883v3.99687"/>
  <path fill="#221f1f" d="M648.68904 178.21697h1.24903v-.60667h-1.24903v-1.39177h-.60667v1.39177h-1.24902v.60667h1.24902v1.39177h.60667v-1.39177zm-4.75232 1.35323h-12.09769v-4.88904h12.09769v4.88904z"/>
  <path fill="#d6d4d4" d="M642.97097 175.38354l-1.14196 1.67726 1.24902 1.82001h-1.14196l-.67804-.99922-.67805.99922h-1.14196c.0357-.0714 1.24902-1.85569 1.24902-1.85569l-.53529-.71373h-2.21256c-.10706 0-.21412-.0357-.28549.10706-.0357.0357-.0357.10706 0 .14274 0 .0357.0714.0714.10706.10706h.96353c.42824 0 .7851.24981.96353.64236.14275.32118.14275.74941-.0357 1.0349-.21412.39255-.60667.57099-1.03491.57099h-2.46236l-.39255-1.35609-.39255 1.35609h-.89216l-.35687-1.35609-.39255 1.35609h-.99921s.92784-3.28315.96353-3.49727h.85647l.39255 1.46314.39255-1.46314h.82079l.71373 2.56942h1.64157c.10706 0 .28549.0357.32118-.10706 0-.0714 0-.14275-.0357-.17843-.0357-.0357-.10706-.0357-.14274-.0357h-.92785c-.42823 0-.82079-.28549-.99922-.67804-.17843-.39255-.0714-.89216.24981-1.21334.21412-.21412.46392-.32118.7851-.35686h2.8906l.57098.85647.60667-.85647h1.14196z"/>
  <path fill="#221f1f" d="M645.38373 178.87981c.0714-.42824 1.14197-.67804 1.14197-1.5702 0-.85648-.60667-1.10628-1.14197-1.10628-.53529 0-1.10628.39255-1.10628 1.07059v.24981h.7851v-.17844c0-.21411.10706-.35686.32118-.35686.17843 0 .28549.10706.28549.35686 0 .5353-.89216.74942-1.28471 1.39177-.14274.2855-.17843.85648-.17843.85648h2.21256v-.67804h-1.03491z"/>
</svg>
