<svg xmlns="http://www.w3.org/2000/svg" viewBox="0 0 551 602.667"><path d="M550.01 602.667H.99a.99.99 0 0 1-.99-.99V14.656a.99.99 0 0 1 .99-.99h549.02a.99.99 0 0 1 .99.99v587.021a.99.99 0 0 1-.99.99z" fill="#333"/><linearGradient id="a" gradientUnits="userSpaceOnUse" x1="58.5" y1="6.833" x2="492.5" y2="6.833"><stop offset="0" stop-color="#40423f"/><stop offset=".008" stop-color="#3a3c3a"/><stop offset=".027" stop-color="#353534"/><stop offset=".08" stop-color="#333"/><stop offset=".92" stop-color="#333"/><stop offset=".973" stop-color="#353534"/><stop offset=".992" stop-color="#3a3c3a"/><stop offset="1" stop-color="#40423f"/></linearGradient><path d="M491.51 0H59.49a.99.99 0 0 0-.99.99v12.677h434V.99a.99.99 0 0 0-.99-.99z" fill="url(#a)"/><path d="M516.5 13.667v418l26.556 157.845a.99.99 0 0 1-.276.865l7.931 12a.988.988 0 0 0 .29-.7V14.656a.99.99 0 0 0-.99-.99l-33.511.001zm-482 0v418L7.944 589.512a.986.986 0 0 0 .276.865l-7.931 12a.988.988 0 0 1-.29-.7L0 14.656a.99.99 0 0 1 .99-.99l33.51.001z" fill="#4c423f"/><path d="M275.5 584.155H17.258a.982.982 0 0 1-.969-1.146L41.75 431.667v-418H34.5v418L7.944 589.512a.99.99 0 0 0 .977 1.155h533.158a.99.99 0 0 0 .977-1.155L516.5 431.667v-418h-7.25v418l25.462 151.342a.983.983 0 0 1-.969 1.146H275.5z" fill="#43454e"/><path d="M275.5 590.667H8.921a.987.987 0 0 1-.701-.29l-7.931 12c.179.179.426.29.7.29h549.02a.988.988 0 0 0 .7-.29l-7.931-12a.986.986 0 0 1-.701.29H275.5z" fill="#3a2d2c"/><path d="M308.167 542h-10.833a1.417 1.417 0 0 1-1.417-1.417V450h13.667v90.583a1.418 1.418 0 0 1-1.417 1.417z" fill="#444"/><linearGradient id="b" gradientUnits="userSpaceOnUse" x1="295.917" y1="557.188" x2="533.161" y2="557.188"><stop offset="0" stop-color="#35363b"/><stop offset="1" stop-color="#43454b"/></linearGradient><path d="M309.583 562.667h221.706l1.872 11.125H295.917v-33.208c0 .782.634 1.417 1.417 1.417h10.833c.782 0 1.417-.634 1.417-1.417v22.083z" fill="url(#b)"/><path d="M484.961 573.792H326.289a.289.289 0 0 1-.289-.289v-36.297c0-.16.129-.289.289-.289h158.672c.16 0 .289.129.289.289v36.297a.29.29 0 0 1-.289.289z" fill="#2d2f33" stroke="#202123" stroke-miterlimit="10"/><path d="M481.542 514.917H329.708a3.719 3.719 0 0 1-3.708-3.708v-58.292h159.25v58.292a3.72 3.72 0 0 1-3.708 3.708z" fill="#1a1b1c"/><path d="M473.324 455.667v40.375c0 4.652-3.806 8.458-8.458 8.458H346.384c-4.652 0-8.458-3.806-8.458-8.458v-40.375" fill="none" stroke="#fff" stroke-width="2" stroke-miterlimit="10"/><path fill="none" stroke="#fff" stroke-width="2" stroke-miterlimit="10" d="M414.125 468.333l-8.5-5.166-8.5 5.166"/><path d="M483.214 556.579H328.036a.412.412 0 0 1-.411-.411v-.482c0-.226.185-.411.411-.411h155.178c.226 0 .411.185.411.411v.482a.412.412 0 0 1-.411.411zm-121.127-3.233h-34.269a.194.194 0 0 1-.194-.194v-.917c0-.107.087-.194.194-.194h34.269c.107 0 .194.087.194.194v.917a.194.194 0 0 1-.194.194zm0-3h-34.269a.194.194 0 0 1-.194-.194v-.917c0-.107.087-.194.194-.194h34.269c.107 0 .194.087.194.194v.917a.194.194 0 0 1-.194.194zm0-3h-34.269a.194.194 0 0 1-.194-.194v-.917c0-.107.087-.194.194-.194h34.269c.107 0 .194.087.194.194v.917a.194.194 0 0 1-.194.194zm0-3h-34.269a.194.194 0 0 1-.194-.194v-.917c0-.107.087-.194.194-.194h34.269c.107 0 .194.087.194.194v.917a.194.194 0 0 1-.194.194zm0-3h-34.269a.194.194 0 0 1-.194-.194v-.917c0-.107.087-.194.194-.194h34.269c.107 0 .194.087.194.194v.917a.194.194 0 0 1-.194.194zm87.076 12.036h34.269a.194.194 0 0 0 .194-.194v-.917a.194.194 0 0 0-.194-.194h-34.269a.194.194 0 0 0-.194.194v.917c0 .107.087.194.194.194zm0-3h34.269a.194.194 0 0 0 .194-.194v-.917a.194.194 0 0 0-.194-.194h-34.269a.194.194 0 0 0-.194.194v.917c0 .107.087.194.194.194zm0-3h34.269a.194.194 0 0 0 .194-.194v-.917a.194.194 0 0 0-.194-.194h-34.269a.194.194 0 0 0-.194.194v.917c0 .107.087.194.194.194zm0-3h34.269a.194.194 0 0 0 .194-.194v-.917a.194.194 0 0 0-.194-.194h-34.269a.194.194 0 0 0-.194.194v.917c0 .107.087.194.194.194zm0-3h34.269a.194.194 0 0 0 .194-.194v-.917a.194.194 0 0 0-.194-.194h-34.269a.194.194 0 0 0-.194.194v.917c0 .107.087.194.194.194z" fill="#5d606d"/><path d="M507.924 23.167H297.243a1.33 1.33 0 0 0-1.326 1.326v393.514a1.33 1.33 0 0 0 1.326 1.326h210.681a1.33 1.33 0 0 0 1.326-1.326V24.493a1.33 1.33 0 0 0-1.326-1.326z" fill="#2d2f33"/><path d="M502 419.333V23.167h5.924a1.33 1.33 0 0 1 1.326 1.326v394.84H502zm-453 0V23.167h-5.924a1.33 1.33 0 0 0-1.326 1.326v394.84H49z" fill="#494c56"/><path d="M366.465 542.375h4.841c.41 0 .753.048 1.027.144.274.097.489.232.645.408.154.176.264.383.328.62.063.237.096.508.096.813v.496c0 .229-.028.453-.084.672s-.146.417-.272.596a1.336 1.336 0 0 1-.508.428c-.213.107-.47.16-.768.16h-3.528v1.456h-1.776v-5.793zm1.777 2.895h2.76c.197 0 .343-.056.437-.168a.676.676 0 0 0 .14-.447v-.225c0-.202-.056-.355-.168-.46-.112-.104-.299-.155-.56-.155h-2.608v1.455zm6.049-1.183h1.439v.776h.017c.08-.305.253-.521.52-.648s.592-.191.977-.191c.554 0 .953.126 1.195.38.243.253.364.662.364 1.228 0 .059-.003.152-.008.28a.438.438 0 0 0-.008.08h-1.328c0-.277-.05-.475-.148-.592s-.295-.177-.588-.177c-.277 0-.496.057-.656.168-.16.112-.239.286-.239.521v2.256h-1.536v-4.081zm5.143 1.816c0-.374.044-.685.132-.933s.215-.439.38-.576c.166-.136.361-.231.588-.287a3.26 3.26 0 0 1 .788-.084h1.072c.427 0 .783.026 1.068.079.285.054.519.145.7.272.181.128.315.306.403.532s.132.519.132.876v.688h-3.728v.248c0 .208.073.353.22.433s.389.119.725.119h.472a2.6 2.6 0 0 0 .479-.035.66.66 0 0 0 .261-.101.278.278 0 0 0 .107-.14.601.601 0 0 0 .024-.188h1.439v.177c0 .245-.051.45-.151.615a1.016 1.016 0 0 1-.429.385c-.184.091-.396.154-.636.191s-.509.057-.808.057h-1.152c-.293 0-.559-.021-.796-.064s-.455-.131-.652-.264a1.348 1.348 0 0 1-.468-.593c-.114-.261-.172-.6-.172-1.016v-.391zm3.776-.345c0-.239-.072-.396-.216-.468-.145-.072-.446-.107-.904-.107-.267 0-.471.008-.612.023a1.034 1.034 0 0 0-.324.08.275.275 0 0 0-.147.164 1.022 1.022 0 0 0-.036.308h2.239zm3.784 1.336c0 .064.01.118.028.16.019.043.06.08.124.112a.972.972 0 0 0 .292.076c.13.019.3.027.508.027h.544c.368 0 .612-.02.732-.06.119-.04.18-.121.18-.244 0-.122-.046-.209-.136-.26-.091-.051-.268-.076-.528-.076h-1.44a5.213 5.213 0 0 1-.903-.076c-.235-.045-.422-.121-.561-.228s-.238-.251-.3-.433a2.218 2.218 0 0 1-.092-.703c0-.246.047-.447.14-.604a.894.894 0 0 1 .388-.355c.166-.08.357-.135.576-.164s.475-.044.769-.044h1.071c.513 0 .922.02 1.229.06s.543.106.708.2a.744.744 0 0 1 .34.368c.062.151.095.355.1.611h-1.535a.337.337 0 0 0-.089-.147c-.037-.035-.095-.063-.172-.084s-.183-.035-.315-.04a13.92 13.92 0 0 0-.568-.008c-.453 0-.742.016-.868.048-.125.032-.188.117-.188.256 0 .091.057.153.172.188.114.035.364.053.748.053h1.063c.443 0 .799.034 1.068.104s.468.164.596.284.212.255.252.404.061.333.061.552c0 .277-.033.503-.101.676-.066.174-.179.31-.336.408s-.374.169-.651.212-.643.064-1.097.064h-1.456c-.714 0-1.216-.098-1.504-.292-.288-.195-.432-.543-.432-1.045h1.583zm6.328 0c0 .064.01.118.028.16.019.043.06.08.124.112a.972.972 0 0 0 .292.076c.13.019.3.027.508.027h.544c.368 0 .612-.02.732-.06.119-.04.18-.121.18-.244 0-.122-.046-.209-.136-.26-.091-.051-.268-.076-.528-.076h-1.44a5.213 5.213 0 0 1-.903-.076c-.235-.045-.422-.121-.561-.228s-.238-.251-.3-.433a2.218 2.218 0 0 1-.092-.703c0-.246.047-.447.14-.604a.894.894 0 0 1 .388-.355c.166-.08.357-.135.576-.164s.475-.044.769-.044h1.071c.513 0 .922.02 1.229.06s.543.106.708.2a.744.744 0 0 1 .34.368c.062.151.095.355.1.611h-1.535a.337.337 0 0 0-.089-.147c-.037-.035-.095-.063-.172-.084s-.183-.035-.315-.04a13.92 13.92 0 0 0-.568-.008c-.453 0-.742.016-.868.048-.125.032-.188.117-.188.256 0 .091.057.153.172.188.114.035.364.053.748.053h1.063c.443 0 .799.034 1.068.104s.468.164.596.284.212.255.252.404.061.333.061.552c0 .277-.033.503-.101.676-.066.174-.179.31-.336.408s-.374.169-.651.212-.643.064-1.097.064h-1.456c-.714 0-1.216-.098-1.504-.292-.288-.195-.432-.543-.432-1.045h1.583zm9.216-1.703h-.769v-1.104h.769v-.96h1.535v.96h2.385v1.104h-2.385v1.567c0 .145.049.241.145.292s.245.076.448.076c.245 0 .411-.034.5-.104.088-.069.132-.197.132-.385v-.271h1.344v.496c0 .41-.143.741-.428.992-.285.25-.722.376-1.309.376h-.607c-.251 0-.48-.023-.688-.068s-.394-.121-.556-.229c-.163-.106-.289-.253-.38-.439s-.136-.416-.136-.688v-1.615zm4.863.447c0-.319.048-.586.145-.8.096-.213.225-.38.388-.5a1.45 1.45 0 0 1 .536-.248 2.74 2.74 0 0 1 .62-.067h2.296c.219 0 .425.022.62.067.194.046.373.128.536.248.162.12.292.287.388.5.096.214.144.48.144.8v.977c0 .319-.048.587-.144.8s-.226.38-.388.5a1.45 1.45 0 0 1-.536.248 2.746 2.746 0 0 1-.62.068h-2.296a2.74 2.74 0 0 1-.62-.068 1.435 1.435 0 0 1-.536-.248 1.233 1.233 0 0 1-.388-.5c-.097-.213-.145-.48-.145-.8v-.977zm1.536.681c0 .282.083.479.248.592s.432.168.8.168h.368c.256 0 .46-.011.612-.032a.99.99 0 0 0 .352-.104.38.38 0 0 0 .172-.196.97.97 0 0 0 .048-.34v-.561c0-.144-.016-.259-.048-.344-.031-.085-.089-.152-.172-.2s-.2-.081-.352-.1a5.192 5.192 0 0 0-.612-.028h-.368c-.368 0-.635.057-.8.168-.165.112-.248.31-.248.592v.385zm9.111-3.944h6.336v1.344h-4.56v.929h4.32v1.199h-4.32v.929h4.664v1.392h-6.44v-5.793zm9.066 6.055c0 .422-.128.721-.385.896-.256.176-.626.264-1.111.264-.086 0-.222-.008-.408-.023a4.205 4.205 0 0 1-.2-.017v-1.032a.16.16 0 0 1 .056.009c.054.005.089.008.104.008.272 0 .408-.134.408-.4v-4.048h1.536v4.343zm0-4.855h-1.536v-1.2h1.536v1.2zm.951 2.328c0-.374.044-.685.132-.933s.215-.439.38-.576c.166-.136.361-.231.588-.287a3.26 3.26 0 0 1 .788-.084h1.072c.427 0 .783.026 1.068.079.285.054.519.145.7.272.181.128.315.306.403.532s.132.519.132.876v.688H429.6v.248c0 .208.073.353.22.433s.389.119.725.119h.472a2.6 2.6 0 0 0 .479-.035.66.66 0 0 0 .261-.101.278.278 0 0 0 .107-.14.601.601 0 0 0 .024-.188h1.439v.177c0 .245-.051.45-.151.615a1.016 1.016 0 0 1-.429.385c-.184.091-.396.154-.636.191s-.509.057-.808.057h-1.152c-.293 0-.559-.021-.796-.064s-.455-.131-.652-.264a1.348 1.348 0 0 1-.468-.593c-.114-.261-.172-.6-.172-1.016v-.391zm3.776-.345c0-.239-.072-.396-.216-.468-.145-.072-.446-.107-.904-.107-.267 0-.471.008-.612.023a1.034 1.034 0 0 0-.324.08.275.275 0 0 0-.147.164 1.022 1.022 0 0 0-.036.308h2.239zm2.159.345c0-.374.044-.685.132-.933s.215-.439.38-.576c.166-.136.361-.231.588-.287a3.26 3.26 0 0 1 .788-.084h1.729c.587 0 1.038.11 1.355.332.317.221.477.561.477 1.02v.368h-1.488c0-.208-.065-.354-.196-.44-.13-.085-.361-.128-.691-.128h-.592c-.326 0-.564.05-.717.148-.151.099-.228.257-.228.476v.544c0 .251.07.428.212.532.142.104.343.156.604.156h.783c.245 0 .444-.036.597-.108a.374.374 0 0 0 .228-.364v-.096h1.488v.36c0 .261-.05.483-.148.668a1.145 1.145 0 0 1-.403.436c-.171.107-.361.185-.572.232s-.434.072-.668.072h-1.568c-.293 0-.559-.021-.796-.064s-.455-.131-.652-.264a1.348 1.348 0 0 1-.468-.593c-.114-.261-.172-.6-.172-1.016v-.391zm6.681-.712h-.769v-1.104h.769v-.96h1.535v.96h2.385v1.104h-2.385v1.567c0 .145.049.241.145.292s.245.076.448.076c.245 0 .411-.034.5-.104.088-.069.132-.197.132-.385v-.271h1.344v.496c0 .41-.143.741-.428.992-.285.25-.722.376-1.309.376h-.607c-.251 0-.48-.023-.688-.068s-.394-.121-.556-.229c-.163-.106-.289-.253-.38-.439s-.136-.416-.136-.688v-1.615zM355.211 471.598h1.554v5.068h-1.554v-5.068zm2.688 0h2.407l2.919 3.683h.015v-3.683h1.554v5.068h-2.408l-2.919-3.682h-.014v3.682h-1.554v-5.068zm7.853 3.409h1.555c.004.252.055.412.15.479.096.068.27.102.521.102h1.904c.21 0 .373-.026.489-.08.117-.054.175-.169.175-.347 0-.121-.021-.211-.066-.27-.044-.059-.135-.102-.272-.13-.138-.027-.339-.046-.603-.056s-.678-.014-1.242-.014a11.58 11.58 0 0 1-1.41-.066c-.339-.045-.593-.12-.764-.228a.788.788 0 0 1-.343-.445c-.059-.188-.087-.451-.087-.787 0-.28.018-.51.052-.689a.977.977 0 0 1 .249-.483c.131-.142.336-.253.616-.332.279-.079.655-.119 1.127-.119h2.17c.434 0 .784.035 1.05.105.266.069.463.169.592.297.128.129.213.28.255.455s.063.389.063.641v.161h-1.555c0-.205-.042-.345-.126-.417s-.294-.108-.63-.108H367.9a.809.809 0 0 0-.431.099.324.324 0 0 0-.157.294c0 .107.019.188.056.245.037.056.115.099.234.129s.299.051.539.06c.24.01.582.014 1.025.014.663 0 1.178.018 1.544.053s.654.106.864.214.357.266.441.476.126.502.126.875c0 .354-.036.634-.108.837s-.198.359-.378.469-.429.185-.746.224a10.9 10.9 0 0 1-1.295.06h-1.883c-.369 0-.676-.021-.921-.063s-.445-.112-.602-.21c-.156-.099-.272-.235-.347-.413s-.112-.403-.112-.679v-.353zm7.351-3.409h5.544v1.177h-3.99v.812h3.78v1.05h-3.78v.813h4.081v1.218h-5.635v-5.07zm6.573 0h4.689c.294 0 .539.035.735.105s.351.17.465.301c.115.131.196.287.245.469a2.4 2.4 0 0 1 .074.63v.322c0 .364-.06.644-.179.837s-.349.33-.689.409v.014c.131.023.245.058.343.102a.857.857 0 0 1 .263.186c.077.08.137.188.179.326s.063.307.063.507v.861h-1.554v-.609c0-.266-.046-.45-.137-.553s-.258-.154-.5-.154h-2.443v1.316h-1.554v-5.069zm1.554 2.492h2.569c.205 0 .352-.042.44-.126s.133-.219.133-.406v-.168c0-.214-.054-.356-.161-.427s-.291-.104-.553-.104h-2.429v1.231zm5.334-2.492h5.922v1.261h-2.185v3.808h-1.554v-3.808h-2.184v-1.261zm9.947 1.779c0-.364.05-.666.15-.906s.245-.429.434-.563c.189-.136.418-.23.687-.284.269-.053.589-.08.963-.08h1.826c.546 0 .981.031 1.306.095.324.063.571.167.742.312.17.145.286.333.347.566s.091.546.091.938h-1.554v-.14c0-.173-.061-.295-.183-.364-.121-.07-.303-.105-.546-.105h-1.693c-.383 0-.641.083-.773.249-.134.165-.2.421-.2.767v.546c0 .383.06.647.179.794.119.147.355.221.711.221h1.658c.191 0 .342-.007.452-.021a.61.61 0 0 0 .266-.092.394.394 0 0 0 .147-.21c.03-.093.045-.219.045-.378h1.555v.477c0 .233-.026.439-.077.619a1.1 1.1 0 0 1-.28.473c-.136.136-.327.241-.574.318s-.56.115-.938.115h-2.506a4.71 4.71 0 0 1-.963-.084 1.832 1.832 0 0 1-.687-.283c-.188-.133-.333-.319-.434-.56s-.15-.543-.15-.907v-1.513zm9.793-1.779h2.022l2.786 5.068h-1.729l-.482-.896h-3.15l-.455.896h-1.735l2.743-5.068zm.028 3.08h1.988l-1.008-1.903-.98 1.903zm5.334-3.08h4.689c.294 0 .539.035.735.105s.351.17.465.301c.115.131.196.287.245.469a2.4 2.4 0 0 1 .074.63v.322c0 .364-.06.644-.179.837s-.349.33-.689.409v.014c.131.023.245.058.343.102a.857.857 0 0 1 .263.186c.077.08.137.188.179.326s.063.307.063.507v.861H416.3v-.609c0-.266-.046-.45-.137-.553s-.258-.154-.5-.154h-2.443v1.316h-1.554v-5.069zm1.553 2.492h2.569c.205 0 .352-.042.44-.126s.133-.219.133-.406v-.168c0-.214-.054-.356-.161-.427s-.291-.104-.553-.104h-2.429v1.231zm5.335-2.492h5.922v1.261h-2.185v3.808h-1.554v-3.808h-2.184v-1.261zm6.601 0h4.689c.294 0 .539.035.735.105s.351.17.465.301c.115.131.196.287.245.469a2.4 2.4 0 0 1 .074.63v.322c0 .364-.06.644-.179.837s-.349.33-.689.409v.014c.131.023.245.058.343.102a.857.857 0 0 1 .263.186c.077.08.137.188.179.326s.063.307.063.507v.861h-1.554v-.609c0-.266-.046-.45-.137-.553s-.258-.154-.5-.154h-2.443v1.316h-1.554v-5.069zm1.553 2.492h2.569c.205 0 .352-.042.44-.126s.133-.219.133-.406v-.168c0-.214-.054-.356-.161-.427s-.291-.104-.553-.104h-2.429v1.231zm5.79-2.492h1.554v5.068h-1.554v-5.068zm2.744 0h4.69c.77 0 1.313.136 1.627.406.315.271.473.724.473 1.358v1.54c0 .635-.157 1.087-.473 1.357-.314.271-.857.406-1.627.406h-4.69v-5.067zm1.553 3.767h2.758c.341 0 .58-.064.718-.192.138-.129.207-.368.207-.718v-.687c0-.35-.069-.589-.207-.717-.138-.129-.377-.192-.718-.192h-2.758v2.506zm6.063-1.988c0-.364.05-.666.15-.906s.245-.429.434-.563c.189-.136.418-.23.687-.284.269-.053.589-.08.963-.08h2.338c.429 0 .777.037 1.046.112.269.074.472.181.609.318s.23.302.28.493c.049.191.073.425.073.7v.161h-1.526c0-.233-.061-.386-.182-.459-.121-.072-.322-.108-.603-.108h-1.687c-.205 0-.37.016-.493.046a.595.595 0 0 0-.294.157.64.64 0 0 0-.154.315c-.03.135-.046.314-.046.539v.63c0 .224.016.403.046.539.03.135.081.24.154.314.072.075.17.127.294.158.123.03.288.045.493.045h1.659c.116 0 .222-.007.314-.021a.865.865 0 0 0 .252-.077.426.426 0 0 0 .179-.168.562.562 0 0 0 .066-.287v-.147h-1.932v-1.05h3.486v1.442c0 .359-.049.642-.144.847a.936.936 0 0 1-.438.455c-.196.098-.438.16-.725.186s-.688.038-1.201.038h-1.868a4.71 4.71 0 0 1-.963-.084 1.832 1.832 0 0 1-.687-.283c-.188-.133-.333-.319-.434-.56s-.15-.543-.15-.907v-1.511zm7.546-1.779h5.544v1.177h-3.99v.812h3.78v1.05h-3.78v.813h4.081v1.218h-5.635v-5.07z" fill="#fff"/><path d="M155.331 4.615c1.09 0 1.791.181 2.104.542.313.362.47 1.171.47 2.429 0 1.374-.157 2.239-.472 2.597-.315.357-1.078.536-2.288.536-1.09 0-1.794-.177-2.113-.529-.319-.354-.479-1.13-.479-2.332 0-1.429.156-2.327.47-2.693s1.082-.55 2.308-.55zm-.088.975c-.766 0-1.212.099-1.341.295s-.193.876-.193 2.039c0 .861.075 1.38.227 1.556.15.176.595.264 1.333.264.706 0 1.13-.099 1.271-.297.141-.197.211-.798.211-1.8 0-1.004-.066-1.599-.2-1.781-.134-.184-.57-.276-1.308-.276zm4.57.035v1.617h2.689v.959h-2.689v2.465h-1.139V4.668h3.973v.957h-2.834zm4.667 0v1.617h2.689v.959h-2.689v2.465h-1.139V4.668h3.973v.957h-2.834zm17.271-1.01c1.09 0 1.791.181 2.104.542.313.362.47 1.171.47 2.429 0 1.374-.157 2.239-.472 2.597-.315.357-1.078.536-2.288.536-1.09 0-1.794-.177-2.113-.529-.319-.354-.479-1.13-.479-2.332 0-1.429.156-2.327.47-2.693s1.082-.55 2.308-.55zm-.088.975c-.766 0-1.212.099-1.341.295s-.193.876-.193 2.039c0 .861.075 1.38.227 1.556.15.176.595.264 1.333.264.706 0 1.13-.099 1.271-.297.141-.197.211-.798.211-1.8 0-1.004-.066-1.599-.2-1.781-.134-.184-.57-.276-1.308-.276zm9-.922v5.998h-1.93l-1.714-3.291a16.663 16.663 0 0 1-.399-.861l-.193-.432-.189-.43h-.044l.018.395.013.392.01.786v3.441h-1.139V4.668h1.93l1.56 3.041c.138.27.297.596.479.979l.229.487.229.492h.039l-.014-.387-.013-.387-.009-.773V4.668h1.137z" fill="#262625"/><path d="M285.72 573.792H47.78a2.537 2.537 0 0 1-2.53-2.53L73 474.128a2.537 2.537 0 0 1 2.53-2.53h210.19a2.537 2.537 0 0 1 2.53 2.53v97.134a2.537 2.537 0 0 1-2.53 2.53z" fill="#272828"/><path d="M158.876 489.268h2.387l1.757 3.263 1.757-3.263h2.388v5.068h-1.513v-3.64h-.014l-2.037 3.64h-1.162l-2.037-3.64h-.014v3.64h-1.512v-5.068zm9.225 1.779c0-.364.05-.666.15-.906s.245-.429.434-.563c.189-.136.418-.23.687-.284.269-.053.589-.08.963-.08h2.491c.374 0 .694.028.963.084s.498.15.689.283c.191.134.336.32.434.561.099.24.147.542.147.906v1.512c0 .364-.049.665-.147.903a1.243 1.243 0 0 1-.434.56 1.811 1.811 0 0 1-.689.287 4.71 4.71 0 0 1-.963.084h-2.491a4.71 4.71 0 0 1-.963-.084 1.832 1.832 0 0 1-.687-.283c-.188-.133-.333-.319-.434-.56s-.15-.543-.15-.907v-1.513zm1.596 1.029c0 .383.06.647.179.794.119.147.355.221.711.221h1.987c.354 0 .592-.073.711-.221.119-.146.179-.411.179-.794v-.546c0-.346-.066-.602-.2-.767-.133-.166-.391-.249-.773-.249h-1.819c-.383 0-.641.083-.773.249-.134.165-.2.421-.2.767v.546zm6.356-2.808h4.69c.77 0 1.313.136 1.627.406.315.271.473.724.473 1.358v1.54c0 .635-.157 1.087-.473 1.357-.314.271-.857.406-1.627.406h-4.69v-5.067zm1.554 3.767h2.758c.341 0 .58-.064.718-.192.138-.129.207-.368.207-.718v-.687c0-.35-.069-.589-.207-.717-.138-.129-.377-.192-.718-.192h-2.758v2.506zm6.175-3.767h5.544v1.177h-3.99v.812h3.78v1.05h-3.78v.813h4.081v1.218h-5.635v-5.07zM193.287 489.213h1.554v1.807h3.276v-1.807h1.554v5.068h-1.554v-1.918h-3.276v1.918h-1.554v-5.068zm7.321 1.778c0-.364.05-.666.15-.906s.245-.429.434-.563c.189-.136.418-.23.687-.284.269-.053.589-.08.963-.08h2.491c.374 0 .694.028.963.084s.498.15.689.283c.191.134.336.32.434.561.099.24.147.542.147.906v1.512c0 .364-.049.665-.147.903a1.243 1.243 0 0 1-.434.56 1.811 1.811 0 0 1-.689.287 4.71 4.71 0 0 1-.963.084h-2.491a4.71 4.71 0 0 1-.963-.084 1.832 1.832 0 0 1-.687-.283c-.188-.133-.333-.319-.434-.56s-.15-.543-.15-.907v-1.513zm1.596 1.029c0 .383.06.647.179.794.119.147.355.221.711.221h1.987c.354 0 .592-.073.711-.221.119-.146.179-.411.179-.794v-.546c0-.346-.066-.602-.2-.767-.133-.166-.391-.249-.773-.249h-1.819c-.383 0-.641.083-.773.249-.134.165-.2.421-.2.767v.546zm6.3-2.807h1.554v3.767h3.493v1.302h-5.047v-5.069zm5.761 0h4.69c.77 0 1.313.136 1.627.406.315.271.473.724.473 1.358v1.54c0 .635-.157 1.087-.473 1.357-.314.271-.857.406-1.627.406h-4.69v-5.067zm1.554 3.766h2.758c.341 0 .58-.064.718-.192.138-.129.207-.368.207-.718v-.687c0-.35-.069-.589-.207-.717-.138-.129-.377-.192-.718-.192h-2.758v2.506zM227.318 492.601h1.555c.004.252.055.412.15.479.096.068.27.102.521.102h1.904c.21 0 .373-.026.489-.08.117-.054.175-.169.175-.347 0-.121-.021-.211-.066-.27-.044-.059-.135-.102-.272-.13-.138-.027-.339-.046-.603-.056s-.678-.014-1.242-.014a11.58 11.58 0 0 1-1.41-.066c-.339-.045-.593-.12-.764-.228a.788.788 0 0 1-.343-.445c-.059-.188-.087-.451-.087-.787 0-.28.018-.51.052-.689a.977.977 0 0 1 .249-.483c.131-.142.336-.253.616-.332.279-.079.655-.119 1.127-.119h2.17c.434 0 .784.035 1.05.105.266.069.463.169.592.297.128.129.213.28.255.455s.063.389.063.641v.161h-1.555c0-.205-.042-.345-.126-.417s-.294-.108-.63-.108h-1.722a.809.809 0 0 0-.431.099.324.324 0 0 0-.157.294c0 .107.019.188.056.245.037.056.115.099.234.129s.299.051.539.06c.24.01.582.014 1.025.014.663 0 1.178.018 1.544.053s.654.106.864.214.357.266.441.476.126.502.126.875c0 .354-.036.634-.108.837s-.198.359-.378.469-.429.185-.746.224a10.9 10.9 0 0 1-1.295.06h-1.88c-.369 0-.676-.021-.921-.063s-.445-.112-.602-.21c-.156-.099-.272-.235-.347-.413s-.112-.403-.112-.679v-.353zm6.98-3.409h5.922v1.261h-2.185v3.808h-1.554v-3.808h-2.184v-1.261zm8.33 0h2.022l2.786 5.068h-1.729l-.482-.896h-3.15l-.455.896h-1.735l2.743-5.068zm.027 3.08h1.988l-1.008-1.903-.98 1.903zm5.335-3.08h4.689c.294 0 .539.035.735.105s.351.17.465.301c.115.131.196.287.245.469a2.4 2.4 0 0 1 .074.63v.322c0 .364-.06.644-.179.837s-.349.33-.689.409v.014c.131.023.245.058.343.102a.857.857 0 0 1 .263.186c.077.08.137.188.179.326s.063.307.063.507v.861h-1.554v-.609c0-.266-.046-.45-.137-.553s-.258-.154-.5-.154h-2.443v1.316h-1.554v-5.069zm1.554 2.492h2.569c.205 0 .352-.042.44-.126s.133-.219.133-.406v-.168c0-.214-.054-.356-.161-.427s-.291-.104-.553-.104h-2.429v1.231zm5.334-2.492h5.922v1.261h-2.185v3.808h-1.554v-3.808h-2.184v-1.261zM162.018 501.086h4.733v.936h-3.582v.756a.886.886 0 0 1 .315-.204c.118-.044.289-.065.513-.065h1.506c.488 0 .854.095 1.095.285.242.189.363.515.363.975v.276c0 .324-.042.582-.126.773a.883.883 0 0 1-.378.43c-.168.094-.374.155-.618.186s-.565.045-.966.045h-1.044c-.364 0-.662-.013-.894-.039a1.69 1.69 0 0 1-.585-.159c-.158-.079-.277-.195-.357-.348s-.12-.354-.12-.605v-.253h1.224c0 .188.044.313.133.375.088.063.281.094.582.094h1.248c.287 0 .473-.041.555-.123s.123-.237.123-.465a.957.957 0 0 0-.036-.294.292.292 0 0 0-.12-.162.528.528 0 0 0-.225-.072 3.285 3.285 0 0 0-.394-.019h-1.403c-.221 0-.351.097-.391.288h-1.151v-2.611zm8.777 0h2.046l1.506 2.796 1.506-2.796h2.046v4.344h-1.296v-3.12h-.012l-1.746 3.12h-.996l-1.746-3.12h-.012v3.12h-1.296v-4.344zm8.076 0h1.331v4.344h-1.331v-4.344zm2.304 0h2.063l2.502 3.155h.013v-3.155h1.332v4.344h-2.064l-2.502-3.156h-.012v3.156h-1.332v-4.344zM194.108 502.154l-1.602 1.025-.606-.869 1.843-1.2h1.59v4.344h-1.225v-3.3zm2.983.611c0-.336.033-.611.099-.827a1.09 1.09 0 0 1 .318-.517c.146-.128.339-.22.579-.275.239-.057.542-.084.905-.084h1.561c.364 0 .666.026.906.081.239.054.433.146.578.275.146.13.253.303.318.52.066.216.1.491.1.827v1.213c0 .548-.126.938-.375 1.173-.251.233-.644.351-1.18.351h-2.256c-.532 0-.924-.117-1.176-.351-.252-.234-.378-.625-.378-1.173v-1.213zm1.296.985c0 .24.054.412.162.516.107.104.31.156.605.156h1.236c.3 0 .503-.052.609-.156.105-.104.158-.275.158-.516v-.936c0-.24-.053-.412-.158-.517-.106-.104-.31-.155-.609-.155h-1.236c-.296 0-.498.052-.605.155-.108.104-.162.276-.162.517v.936zm7.763-2.64h2.046l1.506 2.796 1.506-2.796h2.046v4.344h-1.296v-3.12h-.012l-1.746 3.12h-.996l-1.746-3.12h-.012v3.12h-1.296v-4.344zm8.077 0h1.331v4.344h-1.331v-4.344zm2.304 0h2.063l2.502 3.155h.013v-3.155h1.332v4.344h-2.064l-2.502-3.156h-.012v3.156h-1.332v-4.344zM228.489 503.954c0-.276.097-.496.291-.66s.499-.26.915-.288l1.524-.096a9.3 9.3 0 0 0 .603-.049c.122-.016.215-.039.279-.068a.233.233 0 0 0 .126-.129.833.833 0 0 0 .03-.259c0-.1-.008-.176-.021-.228s-.049-.093-.105-.123a.73.73 0 0 0-.258-.063 5.274 5.274 0 0 0-.504-.018h-.882c-.292 0-.488.034-.588.103-.101.067-.15.212-.15.432v.186h-1.26v-.51c0-.424.132-.721.396-.891.264-.17.699-.255 1.308-.255h1.752c.316 0 .575.023.777.071.201.048.36.123.477.226.116.102.198.231.246.39s.072.355.072.591c0 .34-.022.604-.066.792-.044.188-.126.336-.246.444s-.293.186-.519.234a6.682 6.682 0 0 1-.957.107l-1.374.072c-.272.016-.447.058-.525.126s-.117.202-.117.402h3.864v.936h-5.088v-1.475zm5.79-1.213c0-.336.033-.611.099-.827a1.09 1.09 0 0 1 .318-.517c.146-.128.339-.22.579-.275.239-.057.542-.084.905-.084h1.561c.364 0 .666.026.906.081.239.054.433.146.578.275.146.13.253.303.318.52.066.216.1.491.1.827v1.213c0 .548-.126.938-.375 1.173-.251.233-.644.351-1.18.351h-2.256c-.532 0-.924-.117-1.176-.351-.252-.234-.378-.625-.378-1.173v-1.213zm1.296.985c0 .24.054.412.162.516.107.104.31.156.605.156h1.236c.3 0 .503-.052.609-.156.105-.104.158-.275.158-.516v-.936c0-.24-.053-.412-.158-.517-.106-.104-.31-.155-.609-.155h-1.236c-.296 0-.498.052-.605.155-.108.104-.162.276-.162.517v.936zm7.763-2.64h2.046l1.506 2.796 1.506-2.796h2.046v4.344h-1.296v-3.12h-.012l-1.746 3.12h-.996l-1.746-3.12h-.012v3.12h-1.296v-4.344zm8.077 0h1.331v4.344h-1.331v-4.344zm2.304 0h2.063l2.502 3.155h.013v-3.155h1.332v4.344h-2.064l-2.502-3.156h-.012v3.156h-1.332v-4.344zM125.939 503.978c0-.276.097-.496.291-.66s.499-.26.915-.288l1.524-.096a9.3 9.3 0 0 0 .603-.049c.122-.016.215-.039.279-.068a.233.233 0 0 0 .126-.129.833.833 0 0 0 .03-.259c0-.1-.008-.176-.021-.228s-.049-.093-.105-.123a.73.73 0 0 0-.258-.063 5.274 5.274 0 0 0-.504-.018h-.882c-.292 0-.488.034-.588.103-.101.067-.15.212-.15.432v.186h-1.26v-.51c0-.424.132-.721.396-.891.264-.17.699-.255 1.308-.255h1.752c.316 0 .575.023.777.071.201.048.36.123.477.226.116.102.198.231.246.39s.072.355.072.591c0 .34-.022.604-.066.792-.044.188-.126.336-.246.444s-.293.186-.519.234a6.682 6.682 0 0 1-.957.107l-1.374.072c-.272.016-.447.058-.525.126s-.117.202-.117.402h3.864v.936h-5.088v-1.475zm8.922-2.868h2.046l1.506 2.796 1.506-2.796h2.046v4.344h-1.296v-3.12h-.012l-1.746 3.12h-.996l-1.746-3.12h-.012v3.12h-1.296v-4.344zm8.076 0h1.331v4.344h-1.331v-4.344zm2.304 0h2.063l2.502 3.155h.013v-3.155h1.332v4.344h-2.064l-2.502-3.156h-.012v3.156h-1.332v-4.344zM126.372 489.268h5.922v1.261h-2.185v3.808h-1.554v-3.808h-2.184v-1.261zm6.686 0h1.554v5.068h-1.554v-5.068zm2.687 0h2.387l1.757 3.263 1.757-3.263h2.388v5.068h-1.513v-3.64h-.014l-2.037 3.64h-1.162l-2.037-3.64h-.014v3.64h-1.512v-5.068zm9.338 0h5.544v1.177h-3.99v.812h3.78v1.05h-3.78v.813h4.081v1.218h-5.635v-5.07z" fill="#fff"/><g fill="#fff"><path d="M121.301 556.046h1.332v1.548h2.808v-1.548h1.332v4.344h-1.332v-1.644h-2.808v1.644h-1.332v-4.344zm5.772 1.524c0-.312.043-.57.13-.776.086-.206.21-.367.372-.483a1.49 1.49 0 0 1 .588-.243c.229-.046.505-.068.824-.068h2.137c.319 0 .595.023.824.071.23.048.428.129.592.243s.288.274.372.48.126.465.126.776v1.296c0 .313-.042.57-.126.774s-.208.364-.372.48a1.577 1.577 0 0 1-.592.245 4.012 4.012 0 0 1-.824.072h-2.137c-.319 0-.595-.023-.824-.072a1.573 1.573 0 0 1-.588-.242 1.077 1.077 0 0 1-.372-.48c-.087-.206-.13-.465-.13-.777v-1.296zm1.368.881c0 .328.052.556.153.682s.305.188.609.188h1.704c.304 0 .507-.063.608-.188.103-.126.153-.354.153-.682v-.468c0-.296-.058-.515-.171-.657-.114-.142-.335-.213-.663-.213h-1.561c-.328 0-.549.071-.663.213-.113.143-.171.361-.171.657v.468zm4.8-.881c0-.312.043-.57.13-.776.086-.206.21-.367.372-.483a1.49 1.49 0 0 1 .588-.243c.229-.046.505-.068.824-.068h1.566c.468 0 .841.026 1.119.081.278.054.49.143.636.267a.924.924 0 0 1 .297.486c.052.199.078.468.078.804h-1.332v-.12c0-.147-.052-.252-.156-.312-.104-.061-.26-.091-.468-.091h-1.452c-.328 0-.549.071-.663.213-.113.143-.171.361-.171.657v.468c0 .328.052.556.153.682s.305.188.609.188h1.422c.164 0 .293-.006.387-.018s.17-.038.229-.078c.058-.04.1-.1.126-.18a1.12 1.12 0 0 0 .038-.324h1.332v.408c0 .2-.021.377-.065.531-.044.153-.124.288-.24.404s-.28.207-.492.273a2.782 2.782 0 0 1-.804.099h-2.148c-.319 0-.595-.023-.824-.072a1.573 1.573 0 0 1-.588-.242 1.077 1.077 0 0 1-.372-.48c-.087-.206-.13-.465-.13-.777v-1.297zm5.965-1.524h1.332v1.596h.624l1.68-1.596h1.813l-2.353 2.124 2.628 2.22h-1.884l-1.92-1.668h-.588v1.668h-1.332v-4.344z"/><path d="M144.924 556.046h4.752v1.008h-3.42v.696h3.24v.899h-3.24v.696h3.498v1.044h-4.83v-4.343z"/><path d="M152.051 558.878l-2.406-2.832h1.608l1.464 1.775 1.464-1.775h1.607l-2.405 2.832v1.512h-1.332v-1.512z"/></g><path d="M159.062 556.046h5.076v1.08h-1.872v3.264h-1.332v-3.264h-1.872v-1.08zm5.155 0h4.752v1.008h-3.42v.696h3.24v.899h-3.24v.696h3.498v1.044h-4.83v-4.343zm5.129 0h2.063l2.502 3.155h.013v-3.155h1.332v4.344h-2.064l-2.502-3.156h-.012v3.156h-1.332v-4.344zm6.306 0h2.063l2.502 3.155h.013v-3.155h1.332v4.344h-2.064l-2.502-3.156h-.012v3.156h-1.332v-4.344zm6.379 0h1.331v4.344h-1.331v-4.344zm1.722 2.922h1.332c.004.216.047.353.129.411.082.058.231.087.447.087h1.632c.18 0 .32-.023.42-.069s.15-.145.15-.297c0-.104-.02-.181-.058-.231-.038-.05-.116-.087-.233-.11a3.378 3.378 0 0 0-.517-.048 32.774 32.774 0 0 0-1.064-.013c-.517 0-.919-.019-1.209-.057s-.509-.103-.654-.195c-.146-.092-.244-.219-.294-.381s-.075-.387-.075-.675c0-.24.015-.437.045-.591s.102-.292.213-.414c.112-.122.288-.217.528-.285s.562-.102.966-.102h1.86c.372 0 .672.029.899.09.229.06.397.145.508.255.109.11.183.24.219.39.036.15.054.333.054.549v.139h-1.332c0-.176-.036-.295-.107-.357-.072-.062-.253-.093-.54-.093h-1.477c-.156 0-.279.028-.369.084s-.135.14-.135.252c0 .092.016.162.048.21s.1.085.201.111c.102.025.256.043.462.051s.499.012.879.012c.568 0 1.009.016 1.323.045.313.03.561.091.741.184a.77.77 0 0 1 .378.407c.072.181.107.431.107.75 0 .305-.03.543-.093.718a.746.746 0 0 1-.324.401c-.153.095-.366.158-.639.192s-.642.051-1.11.051h-1.613c-.316 0-.579-.018-.789-.054s-.382-.096-.517-.18a.755.755 0 0 1-.297-.354 1.53 1.53 0 0 1-.096-.582v-.301z" fill="#fff"/><g fill="#fff"><path d="M191.091 557.945c0-.312.043-.57.13-.776.086-.206.21-.367.372-.483a1.49 1.49 0 0 1 .588-.243c.229-.046.505-.068.824-.068h2.005c.367 0 .666.031.896.096.23.063.404.155.522.272.117.118.197.26.239.424s.063.363.063.6v.138h-1.309c0-.199-.052-.331-.155-.393-.104-.063-.276-.093-.517-.093h-1.445a1.85 1.85 0 0 0-.424.039.504.504 0 0 0-.252.135.557.557 0 0 0-.132.27 2.27 2.27 0 0 0-.039.462v.54c0 .192.014.347.039.462.026.116.07.206.132.271a.523.523 0 0 0 .252.135c.106.026.247.039.424.039h1.422c.1 0 .189-.006.27-.018a.748.748 0 0 0 .216-.066.366.366 0 0 0 .153-.144.476.476 0 0 0 .057-.246v-.126h-1.655v-.9h2.987v1.236c0 .308-.041.55-.123.726s-.206.307-.375.391a1.711 1.711 0 0 1-.62.158 12.3 12.3 0 0 1-1.029.033h-1.603c-.319 0-.595-.023-.824-.072a1.573 1.573 0 0 1-.588-.242 1.077 1.077 0 0 1-.372-.48c-.087-.206-.13-.465-.13-.777v-1.3zm7.89-1.524h1.734l2.388 4.344h-1.482l-.414-.768h-2.699l-.391.768h-1.487l2.351-4.344zm.025 2.64h1.703l-.863-1.632-.84 1.632z"/><path d="M203.073 556.421h2.046l1.506 2.796 1.506-2.796h2.046v4.344h-1.296v-3.12h-.012l-1.746 3.12h-.996l-1.746-3.12h-.012v3.12h-1.296v-4.344zm7.5 0h4.752v1.008h-3.42v.696h3.24v.899h-3.24v.696h3.498v1.044h-4.83v-4.343zm7.529 2.802h1.261v.192c0 .184.039.307.116.368.078.063.231.094.459.094h1.591c.195 0 .321-.029.378-.087.056-.059.084-.165.084-.321s-.031-.265-.094-.327c-.062-.062-.19-.093-.387-.093h-1.368v-.9h1.242c.208 0 .345-.028.411-.087.066-.058.099-.169.099-.333 0-.16-.048-.27-.144-.33-.096-.06-.25-.09-.462-.09h-1.32c-.216 0-.364.029-.444.087-.079.059-.119.167-.119.327v.186h-1.261v-.239c0-.296.038-.529.114-.699s.198-.298.366-.384.385-.144.651-.171c.266-.028.622-.042 1.07-.042h.895c.396 0 .717.018.963.054s.438.098.576.186a.711.711 0 0 1 .291.36c.056.152.084.352.084.6 0 .188-.011.336-.03.444a.624.624 0 0 1-.105.261c-.05.066-.119.119-.207.159s-.214.086-.378.138v.019c.181.032.323.071.43.117a.568.568 0 0 1 .242.183.643.643 0 0 1 .114.285c.021.114.03.263.03.447 0 .224-.023.41-.069.558a.751.751 0 0 1-.233.36c-.11.092-.263.16-.456.204a3.482 3.482 0 0 1-.747.065h-2.214c-.204 0-.392-.017-.562-.051s-.321-.094-.453-.18-.233-.202-.306-.349a1.237 1.237 0 0 1-.108-.549v-.462z"/></g><g fill="#fff"><path d="M227.946 557.57c0-.312.043-.57.13-.776.086-.206.21-.367.372-.483a1.49 1.49 0 0 1 .588-.243c.229-.046.505-.068.824-.068h2.005c.367 0 .666.031.896.096.23.063.404.155.522.272.117.118.197.26.239.424s.063.363.063.6v.138h-1.309c0-.199-.052-.331-.155-.393-.104-.063-.276-.093-.517-.093h-1.445a1.85 1.85 0 0 0-.424.039.504.504 0 0 0-.252.135.557.557 0 0 0-.132.27 2.27 2.27 0 0 0-.039.462v.54c0 .192.014.347.039.462.026.116.07.206.132.271a.523.523 0 0 0 .252.135c.106.026.247.039.424.039h1.422c.1 0 .189-.006.27-.018a.748.748 0 0 0 .216-.066.366.366 0 0 0 .153-.144.476.476 0 0 0 .057-.246v-.126h-1.655v-.9h2.987v1.236c0 .308-.041.55-.123.726s-.206.307-.375.391a1.711 1.711 0 0 1-.62.158 12.3 12.3 0 0 1-1.029.033h-1.603c-.319 0-.595-.023-.824-.072a1.573 1.573 0 0 1-.588-.242 1.077 1.077 0 0 1-.372-.48c-.087-.206-.13-.465-.13-.777v-1.3zm7.891-1.524h1.734l2.388 4.344h-1.482l-.414-.768h-2.699l-.391.768h-1.487l2.351-4.344zm.024 2.64h1.703l-.863-1.632-.84 1.632z"/><path d="M239.929 556.046h2.046l1.506 2.796 1.506-2.796h2.046v4.344h-1.296v-3.12h-.012l-1.746 3.12h-.996l-1.746-3.12h-.012v3.12h-1.296v-4.344zm7.5 0h4.752v1.008h-3.42v.696h3.24v.899h-3.24v.696h3.498v1.044h-4.83v-4.343zm7.464 1.884l3.102-1.884h1.536v2.502h.642v.972h-.642v.87h-1.26v-.87h-3.378v-1.59zm1.043.606v.012h2.334v-1.458l-2.334 1.446z"/></g><path d="M129.62 547.518a6.14 6.14 0 0 1-6.135-6.134v-19.719a6.142 6.142 0 0 1 6.135-6.135h19.719a6.14 6.14 0 0 1 6.134 6.135v19.719a6.14 6.14 0 0 1-6.134 6.134H129.62z" fill="#191919"/><path d="M129.62 546.101a4.723 4.723 0 0 1-4.718-4.717v-19.719a4.723 4.723 0 0 1 4.718-4.718h19.719a4.723 4.723 0 0 1 4.717 4.718v19.719a4.722 4.722 0 0 1-4.717 4.717H129.62z" fill="#343635"/><path d="M129.62 545.251a3.87 3.87 0 0 1-3.867-3.866v-19.719a3.87 3.87 0 0 1 3.867-3.867h19.719a3.87 3.87 0 0 1 3.866 3.867v19.719a3.87 3.87 0 0 1-3.866 3.866H129.62z" fill="#403f3b"/><path d="M149.338 542.983H129.62a1.6 1.6 0 0 1-1.599-1.599v-19.719a1.6 1.6 0 0 1 1.599-1.599h19.719a1.6 1.6 0 0 1 1.599 1.599v19.719a1.6 1.6 0 0 1-1.6 1.599z" fill="#e3dfb9"/><path d="M164.62 547.518a6.14 6.14 0 0 1-6.135-6.134v-19.719a6.142 6.142 0 0 1 6.135-6.135h19.719a6.14 6.14 0 0 1 6.134 6.135v19.719a6.14 6.14 0 0 1-6.134 6.134H164.62z" fill="#191919"/><path d="M164.62 546.101a4.723 4.723 0 0 1-4.718-4.717v-19.719a4.723 4.723 0 0 1 4.718-4.718h19.719a4.723 4.723 0 0 1 4.717 4.718v19.719a4.722 4.722 0 0 1-4.717 4.717H164.62z" fill="#343635"/><path d="M164.62 545.251a3.87 3.87 0 0 1-3.867-3.866v-19.719a3.87 3.87 0 0 1 3.867-3.867h19.719a3.87 3.87 0 0 1 3.866 3.867v19.719a3.87 3.87 0 0 1-3.866 3.866H164.62z" fill="#403f3b"/><path d="M184.338 542.983H164.62a1.6 1.6 0 0 1-1.599-1.599v-19.719a1.6 1.6 0 0 1 1.599-1.599h19.719a1.6 1.6 0 0 1 1.599 1.599v19.719a1.6 1.6 0 0 1-1.6 1.599z" fill="#e3dfb9"/><path d="M199.62 547.418a6.14 6.14 0 0 1-6.135-6.134v-19.719a6.142 6.142 0 0 1 6.135-6.135h19.719a6.14 6.14 0 0 1 6.134 6.135v19.719a6.14 6.14 0 0 1-6.134 6.134H199.62z" fill="#191919"/><path d="M199.62 546.001a4.723 4.723 0 0 1-4.718-4.717v-19.719a4.723 4.723 0 0 1 4.718-4.718h19.719a4.723 4.723 0 0 1 4.717 4.718v19.719a4.722 4.722 0 0 1-4.717 4.717H199.62z" fill="#343635"/><path d="M199.62 545.15a3.87 3.87 0 0 1-3.867-3.866v-19.719a3.87 3.87 0 0 1 3.867-3.867h19.719a3.87 3.87 0 0 1 3.866 3.867v19.719a3.87 3.87 0 0 1-3.866 3.866H199.62z" fill="#403f3b"/><path d="M219.338 542.883H199.62a1.6 1.6 0 0 1-1.599-1.599v-19.719a1.6 1.6 0 0 1 1.599-1.599h19.719a1.6 1.6 0 0 1 1.599 1.599v19.719a1.6 1.6 0 0 1-1.6 1.599z" fill="#e3dfb9"/><path d="M234.62 547.418a6.14 6.14 0 0 1-6.135-6.134v-19.719a6.142 6.142 0 0 1 6.135-6.135h19.719a6.14 6.14 0 0 1 6.134 6.135v19.719a6.14 6.14 0 0 1-6.134 6.134H234.62z"/><path d="M234.62 546.001a4.723 4.723 0 0 1-4.718-4.717v-19.719a4.723 4.723 0 0 1 4.718-4.718h19.719a4.723 4.723 0 0 1 4.717 4.718v19.719a4.722 4.722 0 0 1-4.717 4.717H234.62z" fill="#343635"/><path d="M234.62 545.15a3.87 3.87 0 0 1-3.867-3.866v-19.719a3.87 3.87 0 0 1 3.867-3.867h19.719a3.87 3.87 0 0 1 3.866 3.867v19.719a3.87 3.87 0 0 1-3.866 3.866H234.62z" fill="#403f3b"/><path d="M254.338 542.883H234.62a1.6 1.6 0 0 1-1.599-1.599v-19.719a1.6 1.6 0 0 1 1.599-1.599h19.719a1.6 1.6 0 0 1 1.599 1.599v19.719a1.6 1.6 0 0 1-1.6 1.599z" fill="#e3dfb9"/><path d="M140.381 529.457l-2.937 1.881-1.111-1.595 3.377-2.2h2.915v7.964h-2.244v-6.05zm29.434 3.387c0-.506.178-.909.534-1.21.355-.301.914-.477 1.678-.528l2.794-.176a17.18 17.18 0 0 0 1.105-.088c.224-.029.394-.071.511-.127a.417.417 0 0 0 .231-.236c.036-.103.055-.26.055-.473 0-.184-.013-.322-.038-.418a.362.362 0 0 0-.192-.226c-.104-.055-.261-.094-.474-.115a9.678 9.678 0 0 0-.924-.033h-1.617c-.535 0-.895.063-1.077.187-.184.125-.275.39-.275.792v.342h-2.311v-.936c0-.777.242-1.321.727-1.634.484-.312 1.283-.467 2.397-.467h3.213c.579 0 1.054.044 1.424.132s.662.226.875.412c.212.188.362.426.451.715.088.29.132.651.132 1.084 0 .623-.041 1.107-.121 1.452-.081.345-.231.616-.451.813-.22.198-.537.342-.951.43-.415.088-1 .153-1.755.197l-2.519.133c-.499.029-.82.106-.963.23-.143.125-.215.37-.215.737h7.084v1.716h-9.328v-2.705zm34.945-.265h2.311v.353c0 .337.071.563.214.676.144.114.424.171.842.171h2.915c.359 0 .59-.053.693-.159.103-.106.153-.303.153-.589s-.057-.485-.17-.6c-.114-.113-.351-.171-.71-.171H208.5v-1.649h2.277c.381 0 .632-.053.753-.159s.182-.311.182-.611c0-.293-.088-.494-.264-.604-.177-.11-.459-.165-.848-.165h-2.42c-.396 0-.667.053-.813.159-.147.106-.221.307-.221.6v.341h-2.31v-.439c0-.543.069-.97.209-1.281.14-.313.363-.547.671-.704.309-.158.706-.263 1.193-.313.488-.052 1.143-.077 1.964-.077h1.639c.727 0 1.314.033 1.766.099.451.066.803.18 1.056.341.254.162.432.382.534.66.103.279.153.646.153 1.101 0 .345-.018.615-.055.813s-.101.357-.192.479-.219.219-.38.292-.392.157-.692.253v.032c.33.06.592.131.786.215s.343.196.445.336c.103.139.173.313.209.522.037.209.056.482.056.819 0 .41-.043.752-.127 1.022a1.368 1.368 0 0 1-.429.66c-.202.169-.48.294-.836.374-.356.081-.813.121-1.37.121h-4.059c-.374 0-.717-.031-1.028-.094a2.336 2.336 0 0 1-.831-.33c-.241-.157-.429-.37-.561-.638s-.198-.603-.198-1.007v-.849zm34.879-1.683l5.688-3.454h2.815v4.587h1.178v1.782h-1.178v1.595h-2.31v-1.595h-6.193v-2.915zm1.914 1.111v.022h4.279v-2.673l-4.279 2.651z"/><path d="M96.62 547.518a6.14 6.14 0 0 1-6.135-6.134v-19.719a6.142 6.142 0 0 1 6.135-6.135h19.719a6.14 6.14 0 0 1 6.134 6.135v19.719a6.14 6.14 0 0 1-6.134 6.134H96.62z" fill="#191919"/><path d="M96.62 546.101a4.723 4.723 0 0 1-4.718-4.717v-19.719a4.723 4.723 0 0 1 4.718-4.718h19.719a4.723 4.723 0 0 1 4.717 4.718v19.719a4.722 4.722 0 0 1-4.717 4.717H96.62z" fill="#343635"/><path d="M96.62 545.251a3.87 3.87 0 0 1-3.867-3.866v-19.719a3.87 3.87 0 0 1 3.867-3.867h19.719a3.87 3.87 0 0 1 3.866 3.867v19.719a3.87 3.87 0 0 1-3.866 3.866H96.62z" fill="#403f3b"/><path d="M116.338 542.983H96.62a1.6 1.6 0 0 1-1.599-1.599v-19.719a1.6 1.6 0 0 1 1.599-1.599h19.719a1.6 1.6 0 0 1 1.599 1.599v19.719a1.6 1.6 0 0 1-1.6 1.599z" fill="#e8c72f"/><path d="M87.661 500.121h4.689c.294 0 .539.035.735.105s.351.17.465.301c.115.131.196.287.245.469a2.4 2.4 0 0 1 .074.63v.322c0 .364-.06.644-.179.837s-.349.33-.689.409v.014c.131.023.245.058.343.102a.857.857 0 0 1 .263.186c.077.08.137.188.179.326s.063.307.063.507v.861h-1.554v-.609c0-.266-.046-.45-.137-.553s-.258-.154-.5-.154h-2.443v1.316h-1.554v-5.069zm1.554 2.492h2.569c.205 0 .352-.042.44-.126s.133-.219.133-.406v-.168c0-.214-.054-.356-.161-.427s-.291-.104-.553-.104h-2.429v1.231zm5.705-2.492h5.544v1.177h-3.99v.812h3.78v1.05h-3.78v.813h4.081v1.218H94.92v-5.07zm6.481 3.409h1.555c.004.252.055.412.15.479.096.068.27.102.521.102h1.904c.21 0 .373-.026.489-.08.117-.054.175-.169.175-.347 0-.121-.021-.211-.066-.27-.044-.059-.135-.102-.272-.13-.138-.027-.339-.046-.603-.056s-.678-.014-1.242-.014a11.58 11.58 0 0 1-1.41-.066c-.339-.045-.593-.12-.764-.228a.788.788 0 0 1-.343-.445c-.059-.188-.087-.451-.087-.787 0-.28.018-.51.052-.689a.977.977 0 0 1 .249-.483c.131-.142.336-.253.616-.332.279-.079.655-.119 1.127-.119h2.17c.434 0 .784.035 1.05.105.266.069.463.169.592.297.128.129.213.28.255.455s.063.389.063.641v.161h-1.555c0-.205-.042-.345-.126-.417s-.294-.108-.63-.108h-1.722a.809.809 0 0 0-.431.099.324.324 0 0 0-.157.294c0 .107.019.188.056.245.037.056.115.099.234.129s.299.051.539.06c.24.01.582.014 1.025.014.663 0 1.178.018 1.544.053s.654.106.864.214.357.266.441.476.126.502.126.875c0 .354-.036.634-.108.837s-.198.359-.378.469-.429.185-.746.224a10.9 10.9 0 0 1-1.295.06h-1.883c-.369 0-.676-.021-.921-.063s-.445-.112-.602-.21c-.156-.099-.272-.235-.347-.413s-.112-.403-.112-.679v-.353zm7.351-3.409h5.544v1.177h-3.99v.812h3.78v1.05h-3.78v.813h4.081v1.218h-5.635v-5.07zm6.202 0h5.922v1.261h-2.185v3.808h-1.554v-3.808h-2.184v-1.261z" fill="#eec421"/><path d="M258.991 509.127H87.055a.64.64 0 0 0-.638.638v.991a.64.64 0 0 0 .638.638h171.936a.64.64 0 0 0 .638-.638v-.991a.64.64 0 0 0-.638-.638zm0 41.766H87.055a.64.64 0 0 0-.638.638v.991a.64.64 0 0 0 .638.638h171.936a.64.64 0 0 0 .638-.638v-.991a.64.64 0 0 0-.638-.638zm.189 11.972H121.751a.45.45 0 0 0-.449.449v.508a.45.45 0 0 0 .449.449H259.18a.45.45 0 0 0 .449-.449v-.508a.45.45 0 0 0-.449-.449zm0-66.609H121.751a.45.45 0 0 0-.449.449v.508a.45.45 0 0 0 .449.449H259.18a.45.45 0 0 0 .449-.449v-.508a.45.45 0 0 0-.449-.449z" fill="#e3d4a7"/><g><linearGradient id="c" gradientUnits="userSpaceOnUse" x1="517.781" y1="419.333" x2="517.781" y2="583.851"><stop offset="0" stop-color="#494c56"/><stop offset=".187" stop-color="#474c57"/><stop offset="1" stop-color="#43454b"/></linearGradient><path d="M502 419.333c.375 7.433.101 18.464-.331 27.003a238.298 238.298 0 0 1-.875 11.663l33.703 125.851a.98.98 0 0 0 .258-.842l-25.462-151.342v-12.333H502z" fill="url(#c)"/><linearGradient id="d" gradientUnits="userSpaceOnUse" x1="33.262" y1="419.333" x2="33.262" y2="583.851"><stop offset="0" stop-color="#494c56"/><stop offset=".187" stop-color="#474c57"/><stop offset="1" stop-color="#43454b"/></linearGradient><path d="M49.044 419.333c-.375 7.433-.101 18.464.331 27.003.203 4.013.501 7.928.875 11.663L16.547 583.851a.98.98 0 0 1-.258-.842L41.75 431.667v-12.333h7.294z" fill="url(#d)"/></g><path d="M41.75 24.493a1.33 1.33 0 0 1 1.326-1.326h13.167v57H290v-57h217.924a1.33 1.33 0 0 1 1.326 1.326V13.667H41.75v10.826z" fill="#2d2f33"/><path d="M49 419.333h248.243a1.33 1.33 0 0 1-1.326-1.326V24.493a1.33 1.33 0 0 1 1.326-1.326H290v57H56.243v-57H49v396.166z" fill="#272828"/><path d="M279.08 409.333H67.163c-.94 0-1.708-.769-1.708-1.708V95.042c0-.94.769-1.708 1.708-1.708H279.08c.94 0 1.708.769 1.708 1.708v312.583c0 .94-.769 1.708-1.708 1.708z" fill="#2a2c30"/><linearGradient id="e" gradientUnits="userSpaceOnUse" x1="405.73" y1="434.413" x2="405.73" y2="451.417"><stop offset="0" stop-color="#46474d"/><stop offset=".225" stop-color="#3b3d41"/><stop offset=".556" stop-color="#333538"/><stop offset="1" stop-color="#303235"/></linearGradient><path d="M498.629 434.413H312.832a2.171 2.171 0 0 0-2.165 2.165v12.674c0 1.191.974 2.165 2.165 2.165h185.797a2.171 2.171 0 0 0 2.165-2.165v-12.674c0-1.19-.975-2.165-2.165-2.165z" fill="url(#e)"/><linearGradient id="f" gradientUnits="userSpaceOnUse" x1="275.5" y1="458.344" x2="275.5" y2="13.667"><stop offset="0" stop-color="#494949"/><stop offset=".112" stop-color="#3e3f3f"/><stop offset="1" stop-color="#3e3f3f"/></linearGradient><path d="M295.917 457.5v-6.963c0-4.942 4.043-8.985 8.985-8.985h196.245a.854.854 0 0 0 .854-.854V27.181c0-7.433-6.081-13.514-13.514-13.514H62.514C55.081 13.667 49 19.748 49 27.181V444.83c0 7.433 6.081 13.514 13.514 13.514h232.559a.844.844 0 0 0 .844-.844z" fill="url(#f)"/><path d="M486.602 136.111v38.968a2.913 2.913 0 0 1-2.905 2.905H67.303a2.913 2.913 0 0 1-2.905-2.905v-38.968a2.913 2.913 0 0 1 2.905-2.905h416.393a2.914 2.914 0 0 1 2.906 2.905zm-6.834 1.016H71.232a2.62 2.62 0 0 0-2.612 2.612v31.712a2.62 2.62 0 0 0 2.612 2.612h408.536a2.62 2.62 0 0 0 2.612-2.612v-31.712a2.62 2.62 0 0 0-2.612-2.612z" fill="#393938"/><g><g fill="#fff"><path d="M241.989 152.929h1.79l2.084 3.962 2.084-3.962h1.79l-2.865 5.332h-2.017l-2.866-5.332zm7.806 0h1.634v5.332h-1.634v-5.332zm2.268 0h4.934c.81 0 1.381.142 1.712.427.332.285.497.761.497 1.428v1.621c0 .667-.165 1.143-.497 1.428-.331.285-.902.427-1.712.427h-4.934v-5.331zm1.636 3.962h2.901c.359 0 .61-.067.755-.202.145-.135.218-.387.218-.755v-.721c0-.369-.073-.62-.218-.755-.145-.135-.396-.202-.755-.202h-2.901v2.635zm5.875-3.962h5.832v1.237h-4.197v.855h3.977v1.104h-3.977v.855h4.293v1.281h-5.928v-5.332zm6.178 1.871c0-.383.053-.701.158-.954.106-.253.258-.45.457-.593.2-.142.44-.241.722-.298.282-.057.62-.085 1.013-.085h2.621c.393 0 .73.03 1.012.089.282.058.524.158.725.298.201.139.353.336.457.589.103.253.155.571.155.954v1.59c0 .383-.051.699-.155.95a1.304 1.304 0 0 1-.457.589 1.893 1.893 0 0 1-.725.302 5.005 5.005 0 0 1-1.012.089h-2.621c-.393 0-.731-.03-1.013-.089a1.916 1.916 0 0 1-.722-.298 1.318 1.318 0 0 1-.457-.589c-.105-.253-.158-.571-.158-.954v-1.59zm1.679 1.082c0 .403.063.681.188.836s.374.232.747.232h2.092c.373 0 .622-.077.748-.232.125-.155.187-.433.187-.836v-.574c0-.363-.069-.632-.209-.806s-.412-.262-.814-.262h-1.915c-.403 0-.674.087-.814.262-.14.174-.21.443-.21.806v.574zM282.07 152.929h5.832v1.237h-4.197v.855h3.977v1.104h-3.977v.855h4.293v1.281h-5.928v-5.332zm6.297 0h2.533l3.072 3.873h.014v-3.873h1.635v5.332h-2.534l-3.071-3.873h-.014v3.873h-1.635v-5.332zm7.349 0h6.23v1.326h-2.298v4.006h-1.635v-4.006h-2.298v-1.326zm6.326 0h5.832v1.237h-4.197v.855h3.977v1.104h-3.977v.855h4.293v1.281h-5.928v-5.332zm6.296 0h4.934c.309 0 .567.037.773.111.207.074.369.179.49.316s.206.302.258.494c.051.191.077.413.077.663v.339c0 .383-.063.676-.188.88-.125.204-.368.347-.725.431v.015c.138.024.258.06.36.106a.915.915 0 0 1 .277.196.822.822 0 0 1 .187.342c.045.146.066.324.066.534v.906h-1.634v-.641c0-.28-.049-.474-.144-.582-.096-.108-.271-.162-.527-.162h-2.57v1.384h-1.635v-5.332zm1.635 2.621h2.702c.217 0 .371-.044.465-.132.093-.088.139-.231.139-.427v-.177c0-.226-.057-.376-.169-.449-.113-.073-.307-.11-.582-.11h-2.556v1.295zm4.993-2.621h6.23v1.326h-2.298v4.006h-1.635v-4.006h-2.298v-1.326zm8.144 0h2.129l2.93 5.332h-1.819l-.509-.943h-3.313l-.479.943h-1.826l2.887-5.332zm.03 3.24h2.091l-1.06-2.003-1.031 2.003zm5.081-3.24h1.634v5.332h-1.634v-5.332zm2.209 0h2.533l3.072 3.873h.014v-3.873h1.635v5.332h-2.534l-3.071-3.873h-.014v3.873h-1.635v-5.332zm7.739 0h2.512l1.848 3.431 1.848-3.431h2.512v5.332h-1.591v-3.829h-.014l-2.143 3.829h-1.223l-2.143-3.829h-.014v3.829h-1.591v-5.332zm9.205 0h5.832v1.237h-4.197v.855h3.977v1.104h-3.977v.855h4.293v1.281h-5.928v-5.332zm6.296 0h2.533l3.072 3.873h.014v-3.873h1.635v5.332h-2.534l-3.071-3.873h-.014v3.873h-1.635v-5.332zm7.35 0h6.23v1.326h-2.298v4.006h-1.635v-4.006h-2.298v-1.326zM376.267 156.514h1.635c.004.266.058.435.158.505.101.072.283.106.548.106h2.003c.221 0 .393-.027.516-.085.122-.056.183-.178.183-.363 0-.128-.023-.223-.069-.284-.047-.061-.143-.106-.288-.137a4.227 4.227 0 0 0-.633-.059 44.525 44.525 0 0 0-1.307-.014c-.634 0-1.128-.023-1.484-.07-.356-.047-.624-.126-.803-.239a.823.823 0 0 1-.361-.467c-.061-.2-.092-.475-.092-.829 0-.295.019-.536.056-.725a1.02 1.02 0 0 1 .261-.509c.138-.149.354-.266.648-.349.295-.085.689-.126 1.186-.126h2.283c.457 0 .824.036 1.104.11.28.074.487.178.623.313a1 1 0 0 1 .269.48c.044.183.066.408.066.674v.169h-1.634c0-.216-.044-.363-.133-.439-.088-.076-.309-.113-.663-.113h-1.811c-.191 0-.342.034-.453.102a.337.337 0 0 0-.165.309c0 .113.019.198.058.257s.121.104.247.137c.125.032.314.052.566.063.254.009.613.014 1.08.014.697 0 1.238.018 1.623.056.386.036.689.111.91.225.22.113.375.279.464.5.088.221.132.529.132.92 0 .374-.038.667-.114.881a.93.93 0 0 1-.397.493c-.189.115-.45.194-.785.236-.333.041-.787.063-1.362.063h-1.981c-.387 0-.71-.022-.968-.067a1.71 1.71 0 0 1-.634-.221.911.911 0 0 1-.364-.433 1.875 1.875 0 0 1-.118-.716v-.368zm9.566-.109l-2.953-3.475h1.974l1.797 2.179 1.796-2.179h1.974l-2.953 3.475v1.855h-1.635v-1.855zm4.478.109h1.635c.004.266.058.435.158.505.101.072.283.106.548.106h2.003c.221 0 .393-.027.516-.085.122-.056.183-.178.183-.363 0-.128-.023-.223-.069-.284-.047-.061-.143-.106-.288-.137a4.227 4.227 0 0 0-.633-.059 44.525 44.525 0 0 0-1.307-.014c-.634 0-1.128-.023-1.484-.07-.356-.047-.624-.126-.803-.239a.823.823 0 0 1-.361-.467c-.061-.2-.092-.475-.092-.829 0-.295.019-.536.056-.725a1.02 1.02 0 0 1 .261-.509c.138-.149.354-.266.648-.349.295-.085.689-.126 1.186-.126h2.283c.457 0 .824.036 1.104.11.28.074.487.178.623.313a1 1 0 0 1 .269.48c.044.183.066.408.066.674v.169h-1.634c0-.216-.044-.363-.133-.439-.088-.076-.309-.113-.663-.113h-1.811c-.191 0-.342.034-.453.102a.337.337 0 0 0-.165.309c0 .113.019.198.058.257s.121.104.247.137c.125.032.314.052.566.063.254.009.613.014 1.08.014.697 0 1.238.018 1.623.056.386.036.689.111.91.225.22.113.375.279.464.5.088.221.132.529.132.92 0 .374-.038.667-.114.881a.93.93 0 0 1-.397.493c-.189.115-.45.194-.785.236a11.7 11.7 0 0 1-1.362.063h-1.981c-.387 0-.71-.022-.968-.067a1.71 1.71 0 0 1-.634-.221.911.911 0 0 1-.364-.433 1.875 1.875 0 0 1-.118-.716v-.368zm6.723-3.585h6.23v1.325h-2.298v4.006h-1.635v-4.006h-2.298v-1.325zm6.325 0h5.832v1.237h-4.197v.854h3.977v1.104h-3.977v.856h4.293v1.28h-5.928v-5.331zm6.296 0h2.512l1.848 3.43 1.848-3.43h2.512v5.331h-1.591v-3.829h-.014l-2.143 3.829h-1.223l-2.143-3.829h-.014v3.829h-1.591v-5.331z"/></g><g fill="#fff"><path d="M205.541 147.489v4.135h-62.19v-4.168l62.19.033m-60.825 9.16v1.472h-1.345l.004-4.941h6.31v1.32h-4.931l-.004 1.015h4.759v1.168l-4.793-.034m15.375 1.461h1.406v-4.924h-1.406v4.924zm19.757-4.924l-.006 4.919h1.45l.006-1.788h3.954v1.794h1.45l.011-4.924h-1.455l-.006 1.89h-3.954v-1.89h-1.45m11.185-.006v4.924h6.357v-1.314h-5.003v-3.61h-1.354m-34.927.005h-3.276l-2.867 4.93h1.517l.936-1.45h4.079l.857 1.45h1.69l-2.936-4.93zm-3.111 2.279l.655-1.027h1.759l.552 1.027h-2.966m15.578 1.252c.065 0-.062.006 0 0"/><path d="M168.792 156.734c.644-.09 1.208-.615 1.208-1.286v-.795c0-.739-.739-1.455-1.472-1.455h-5.513v4.913h1.31v-1.421h2.724l1.276 1.421h1.759l-1.292-1.377zm-.679-1.162h-3.792v-1.089h3.796c.312 0 .565.254.565.564 0 .316-.251.57-.569.525m10.506-.434h-1.382a.8.8 0 0 0-.761-.581h-2.939a.767.767 0 0 0-.767.761v.694c0 .417.344.761.767.761h2.939a.767.767 0 0 0 .761-.666h1.342c0 1.213-.835 2.002-1.895 2.002h-3.531a1.908 1.908 0 0 1-1.918-1.895v-1.139c0-1.044.857-1.895 1.918-1.895h3.531c1.06.001 1.935.909 1.935 1.958m9.617 2.967h1.404v-4.913h-1.404v4.913zm15.725-4.919h-5.516v4.907h5.55s1.523-.305 1.529-2.521c.006-2.081-1.354-2.352-1.563-2.386zm-.394 3.61l-3.779-.011-.006-2.307h3.79c.338.062.756.124.767 1.111.006 1.185-.772 1.207-.772 1.207m1.979 2.803v4.135h-62.192v-4.168l62.192.033"/></g><path d="M475.152 140.883H75.848a1.07 1.07 0 0 0-1.066 1.066v.597c0 .586.48 1.066 1.066 1.066h399.305a1.07 1.07 0 0 0 1.066-1.066v-.597a1.07 1.07 0 0 0-1.067-1.066zm0 26.694H75.848a1.07 1.07 0 0 0-1.066 1.066v.597c0 .586.48 1.066 1.066 1.066h399.305a1.07 1.07 0 0 0 1.066-1.066v-.597a1.07 1.07 0 0 0-1.067-1.066z" fill="#e3d4a7"/></g></svg>