<?xml version="1.0" encoding="UTF-8" standalone="no"?>
<svg
   xmlns:dc="http://purl.org/dc/elements/1.1/"
   xmlns:cc="http://creativecommons.org/ns#"
   xmlns:rdf="http://www.w3.org/1999/02/22-rdf-syntax-ns#"
   xmlns:svg="http://www.w3.org/2000/svg"
   xmlns="http://www.w3.org/2000/svg"
   viewBox="0 0 632.13251 348.85501"
   height="348.85501"
   width="632.13251"
   xml:space="preserve"
   version="1.1"
   id="svg2"><metadata
     id="metadata8"><rdf:RDF><cc:Work
         rdf:about=""><dc:format>image/svg+xml</dc:format><dc:type
           rdf:resource="http://purl.org/dc/dcmitype/StillImage" /><dc:title></dc:title></cc:Work></rdf:RDF></metadata><defs
     id="defs6"><clipPath
       id="clipPath16"
       clipPathUnits="userSpaceOnUse"><path
         id="path18"
         d="m 0,279.084 505.706,0 L 505.706,0 0,0 0,279.084 Z" /></clipPath></defs><g
     transform="matrix(1.25,0,0,-1.25,0,348.855)"
     id="g10"><g
       id="g12"><g
         clip-path="url(#clipPath16)"
         id="g14"><g
           transform="translate(480.8263,0.1879)"
           id="g20"><path
             id="path22"
             style="fill:#bdbeb6;fill-opacity:1;fill-rule:nonzero;stroke:none"
             d="m 0,0 -456.305,0 c 0,0 -24.521,-3.923 -24.521,24.084 l 0,175.553 c 0,1.54 0.915,2.932 2.329,3.543 l 9.347,4.035 0,63.072 c 0,1.161 0.645,2.226 1.674,2.764 l 11.171,5.845 0,-41.163 13.138,-15.12 0,-72.245 -27.302,-91.985 0,-31.501 c 0,0 -2.52,-16.381 18.481,-16.381 l 449.846,0 c 0,0 14.281,-1.68 14.281,13.86 l 0,34.022 -23.589,91.985 -0.075,72.245 12.113,15.12 -0.008,41.163 11.474,-5.685 c 0.885,-0.439 1.446,-1.342 1.446,-2.33 l 0,-61.432 9.074,-2.303 c 1.145,-0.291 1.947,-1.322 1.947,-2.503 l 0,-172.158 C 24.521,32.485 29.78,0 0,0" /></g><g
           transform="translate(360.2375,267.8858)"
           id="g24"><path
             id="path26"
             style="fill:#e4e6dc;fill-opacity:1;fill-rule:nonzero;stroke:none"
             d="m 0,0 c 0,2.008 -1.63,3.637 -3.637,3.637 l -204.065,0 c -1.739,0 -3.15,-1.411 -3.15,-3.15 l 0,-11.206 c -0.008,-0.302 0,-0.487 0,-0.487 l 0,-18.759 -124.865,0 0,41.163 456.885,0 0.009,-41.163 L 0,-29.965 0,0 Z" /></g><g
           transform="translate(492.9637,58.5736)"
           id="g28"><path
             id="path30"
             style="fill:#d8dac5;fill-opacity:1;fill-rule:nonzero;stroke:none"
             d="m 0,0 0,-34.02 c 0,-15.55 -14.28,-13.87 -14.28,-13.87 l -449.84,0 c -21.01,0 -18.49,16.39 -18.49,16.39 l 0,31.5 L 0,0 Z" /></g><g
           transform="translate(492.9637,58.5736)"
           id="g32"><path
             id="path34"
             style="fill:#d4d4d0;fill-opacity:1;fill-rule:nonzero;stroke:none"
             d="m 0,0 -482.61,0 27.31,91.98 431.71,0 L 0,0 Z" /></g><g
           transform="translate(149.3856,237.9213)"
           id="g36"><path
             id="path38"
             style="fill:#ddddd9;fill-opacity:1;fill-rule:nonzero;stroke:none"
             d="m 0,0 0,-15.121 -111.726,0 L -124.865,0 0,0 Z" /></g><g
           transform="translate(481.4144,237.9213)"
           id="g40"><path
             id="path42"
             style="fill:#ddddd9;fill-opacity:1;fill-rule:nonzero;stroke:none"
             d="m 0,0 -12.113,-15.121 -109.064,0 0,15.121 L 0,0 Z" /></g><g
           transform="translate(469.3737,150.5536)"
           id="g44"><path
             id="path46"
             style="fill:#e4e6dc;fill-opacity:1;fill-rule:nonzero;stroke:none"
             d="m 0,0 -431.71,0 0,72.25 111.72,0 0,33.88 c 0,0 -0.01,0.18 0,0.48 0.06,1.53 0.7,6.1 6.3,6.1 l 196.57,0 c 0,0 7.98,0.08 7.98,-6.5 l 0,-33.96 109.07,0 L 0,0 Z" /></g><g
           transform="translate(360.2375,267.8858)"
           id="g48"><path
             id="path50"
             style="fill:#d2d2d0;fill-opacity:1;fill-rule:nonzero;stroke:none"
             d="m 0,0 0,-11.122 c 0,6.577 -7.98,6.502 -7.98,6.502 l -196.572,0 c -5.603,0 -6.241,-4.57 -6.3,-6.099 l 0,11.206 c 0,1.739 1.411,3.15 3.15,3.15 l 204.065,0 C -1.63,3.637 0,2.008 0,0" /></g><g
           transform="translate(357.2937,254.3036)"
           id="g52"><path
             id="path54"
             style="fill:#959995;fill-opacity:1;fill-rule:nonzero;stroke:none"
             d="m 0,0 0,-93.81 c 0,-2.24 -1.81,-4.06 -4.05,-4.06 l -195.73,0 c -2.25,0 -4.07,1.82 -4.07,4.06 l 0,93.81 c 0,2.24 1.82,4.06 4.07,4.06 l 195.73,0 C -1.81,4.06 0,2.24 0,0" /></g><g
           transform="translate(335.4561,224.6906)"
           id="g56"><path
             id="path58"
             style="fill:#7e7f80;fill-opacity:1;fill-rule:nonzero;stroke:none"
             d="m 0,0 0,-19.531 -160.449,0 0,19.531 c 0,2.671 2.159,4.83 4.83,4.83 l 150.789,0 C -2.159,4.83 0,2.671 0,0" /></g><g
           transform="translate(335.4561,203.6894)"
           id="g60"><path
             id="path62"
             style="fill:#7e7f80;fill-opacity:1;fill-rule:nonzero;stroke:none"
             d="m 0,0 0,-13.861 c 0,-2.671 -2.159,-4.83 -4.83,-4.83 l -150.789,0 c -2.671,0 -4.83,2.159 -4.83,4.83 L -160.449,0 0,0 Z" /></g><path
           id="path64"
           style="fill:#252323;fill-opacity:1;fill-rule:nonzero;stroke:none"
           d="m 335.456,203.957 -160.449,0 0,2.127 160.449,0 0,-2.127 z" /><path
           id="path66"
           style="fill:#e7e4b0;fill-opacity:1;fill-rule:nonzero;stroke:none"
           d="m 141.824,153.494 -90.51,0 0,68.05 90.51,0 0,-68.05 z" /><path
           id="path68"
           style="fill:#807e5a;fill-opacity:1;fill-rule:nonzero;stroke:none"
           d="m 56.838,160.074 80.787,0 0,7.283 -80.787,0 0,-7.283 z m 0,13.306 80.787,0 0,6.72 -80.787,0 0,-6.72 z m 0,12.736 80.787,0 0,6.51 -80.787,0 0,-6.51 z m 0,12.18 80.787,0 0,6.863 -80.787,0 0,-6.863 z m 80.787,12.467 -80.787,0 0,7.56 80.787,0 0,-7.56 z" /><path
           id="path70"
           style="fill:#e6e3cf;fill-opacity:1;fill-rule:nonzero;stroke:none"
           d="m 56.838,157.134 80.787,0 0,2.94 -80.787,0 0,-2.94 z m 0,12.743 80.787,0 0,3.503 -80.787,0 0,-3.503 z m 0,12.534 80.787,0 0,3.705 -80.787,0 0,-3.705 z m 0,12.525 80.787,0 0,3.36 -80.787,0 0,-3.36 z m 80.787,13.164 -80.787,0 0,2.663 80.787,0 0,-2.663 z" /><path
           id="path72"
           style="fill:#e7e4b0;fill-opacity:1;fill-rule:nonzero;stroke:none"
           d="m 458.174,153.494 -90.52,0 0,68.05 90.52,0 0,-68.05 z" /><path
           id="path74"
           style="fill:#807e5a;fill-opacity:1;fill-rule:nonzero;stroke:none"
           d="m 373.191,160.074 80.779,0 0,7.283 -80.779,0 0,-7.283 z m 0,13.306 80.779,0 0,6.72 -80.779,0 0,-6.72 z m 0,12.736 80.779,0 0,6.51 -80.779,0 0,-6.51 z m 0,12.18 80.779,0 0,6.863 -80.779,0 0,-6.863 z m 80.779,12.467 -80.779,0 0,7.56 80.779,0 0,-7.56 z" /><path
           id="path76"
           style="fill:#e6e3cf;fill-opacity:1;fill-rule:nonzero;stroke:none"
           d="m 373.191,157.134 80.779,0 0,2.94 -80.779,0 0,-2.94 z m 0,12.743 80.779,0 0,3.503 -80.779,0 0,-3.503 z m 0,12.534 80.779,0 0,3.705 -80.779,0 0,-3.705 z m 0,12.525 80.779,0 0,3.36 -80.779,0 0,-3.36 z m 80.779,13.164 -80.779,0 0,2.663 80.779,0 0,-2.663 z" /><g
           transform="translate(479.5237,62.7736)"
           id="g78"><path
             id="path80"
             style="fill:#26479e;fill-opacity:1;fill-rule:nonzero;stroke:none"
             d="m 0,0 -453.84,0 c -3.99,0 -2.52,4.83 -2.52,4.83 l 24.58,77.49 415.19,0 C -16.59,82.32 2.38,8.96 3.5,4.34 4.62,-0.28 0,0 0,0" /></g><path
           id="path82"
           style="fill:#d54955;fill-opacity:1;fill-rule:nonzero;stroke:none"
           d="m 417.504,30.01 -40.045,0 0,23.244 40.045,0 0,-23.244 z" /><path
           id="path84"
           style="fill:#544044;fill-opacity:1;fill-rule:nonzero;stroke:none"
           d="m 260.171,45.231 -9.459,0 0,4.729 9.459,0 0,-4.729 z" /><path
           id="path86"
           style="fill:#ebebf2;fill-opacity:1;fill-rule:nonzero;stroke:none"
           d="m 477.634,66.274 -450.895,0 0,3.847 450.895,0 0,-3.847 z" /><g
           transform="translate(469.3765,95.4325)"
           id="g88"><path
             id="path90"
             style="fill:#9a2025;fill-opacity:1;fill-rule:nonzero;stroke:none"
             d="m 0,0 -432.658,0 2.814,8.501 427.483,0 L 0,0 Z" /></g><g
           transform="translate(467.0159,103.9337)"
           id="g92"><path
             id="path94"
             style="fill:#ebebf2;fill-opacity:1;fill-rule:nonzero;stroke:none"
             d="m 0,0 -427.483,0 11.777,35.61 405.81,0 L 0,0 Z" /></g><g
           transform="translate(83.3101,88.2984)"
           id="g96"><path
             id="path98"
             style="fill:#9a2025;fill-opacity:1;fill-rule:nonzero;stroke:none"
             d="m 0,0 c 1.627,0.001 3.255,-0.032 4.88,0.015 0.757,0.022 0.954,-0.235 0.921,-0.883 -0.03,-0.613 0.052,-1.14 -0.936,-1.127 -2.857,0.037 -5.715,-0.024 -8.571,0.026 -0.967,0.016 -1.338,-0.209 -1.282,-1.15 0.086,-1.451 0.038,-2.909 0.013,-4.364 -0.01,-0.558 0.095,-0.876 0.833,-0.864 2.261,0.037 4.524,0.045 6.785,0.004 0.854,-0.015 0.869,0.416 0.828,0.967 -0.041,0.538 0.243,1.24 -0.815,1.227 -1.269,-0.016 -2.541,0.041 -3.808,-0.015 -0.929,-0.04 -0.888,0.457 -0.882,1.039 0.005,0.565 -0.087,1.07 0.863,1.045 2.023,-0.053 4.048,-0.032 6.071,-0.008 0.662,0.007 0.911,-0.197 0.896,-0.823 -0.037,-1.527 -0.034,-3.055 0.006,-4.582 0.018,-0.646 -0.203,-0.919 -0.937,-0.915 -3.293,0.019 -6.587,-0.013 -9.88,0.014 -1.251,0.01 -2.193,0.851 -2.218,2 -0.048,2.145 -0.044,4.292 -0.007,6.438 0.02,1.163 0.902,1.919 2.24,1.947 1.666,0.035 3.333,0.008 5,0.009" /></g><g
           transform="translate(68.8981,88.2992)"
           id="g100"><path
             id="path102"
             style="fill:#9a2025;fill-opacity:1;fill-rule:nonzero;stroke:none"
             d="M 0,0 C 1.588,0 3.18,-0.055 4.764,0.02 5.73,0.066 5.762,-0.38 5.745,-1.035 5.73,-1.649 5.804,-2.15 4.796,-2.129 c -2.857,0.058 -5.717,0.004 -8.576,0.03 -0.775,0.007 -1.246,-0.037 -1.229,-0.968 0.016,-0.865 0.268,-1.133 1.217,-1.108 2.222,0.058 4.446,0.019 6.67,0.015 C 5.065,-4.164 5.736,-4.771 5.736,-6.728 5.735,-7.274 5.751,-7.82 5.738,-8.366 5.707,-9.635 5,-10.374 3.644,-10.389 c -3.335,-0.036 -6.671,0.007 -10.006,-0.026 -1.025,-0.011 -0.746,0.615 -0.775,1.112 -0.031,0.521 -0.094,0.997 0.796,0.985 2.938,-0.039 5.877,-0.001 8.816,-0.023 0.726,-0.006 1.192,0.041 1.148,0.911 -0.039,0.775 -0.048,1.321 -1.167,1.296 -2.38,-0.053 -4.764,-0.013 -7.146,-0.009 -1.769,0.003 -2.436,0.613 -2.448,2.238 -0.004,0.582 -0.006,1.164 0.001,1.747 0.015,1.311 0.827,2.116 2.253,2.146 1.627,0.035 3.256,0.008 4.884,0.008 L 0,0 Z" /></g><g
           transform="translate(111.1861,80.0036)"
           id="g104"><path
             id="path106"
             style="fill:#9a2025;fill-opacity:1;fill-rule:nonzero;stroke:none"
             d="M 0,0 C 1.347,0 2.694,0.023 4.04,-0.01 4.683,-0.026 4.965,0.134 4.948,0.776 4.906,2.373 4.906,3.971 4.941,5.568 4.955,6.173 4.664,6.304 4.089,6.302 1.435,6.291 -1.219,6.295 -3.873,6.308 -4.453,6.311 -4.732,6.148 -4.72,5.557 -4.689,3.96 -4.689,2.362 -4.727,0.765 -4.743,0.116 -4.434,-0.028 -3.802,-0.012 -2.536,0.02 -1.268,-0.003 0,0 M 0.131,8.328 C 1.719,8.328 3.307,8.355 4.894,8.32 6.296,8.289 7.125,7.569 7.156,6.287 7.206,4.213 7.208,2.137 7.151,0.064 7.113,-1.341 6.206,-2.049 4.448,-2.096 2.742,-2.142 1.034,-2.107 -0.674,-2.107 c -1.231,0 -2.463,-0.039 -3.692,0.012 -1.847,0.076 -2.63,0.861 -2.634,2.555 -0.005,1.82 -0.018,3.64 0.006,5.46 0.022,1.699 0.752,2.379 2.598,2.414 1.508,0.029 3.018,0.006 4.527,0.006 0,-0.004 0,-0.008 0,-0.012" /></g><g
           transform="translate(126.5,80.0026)"
           id="g108"><path
             id="path110"
             style="fill:#9a2025;fill-opacity:1;fill-rule:nonzero;stroke:none"
             d="M 0,0 C 1.351,0 2.702,0.023 4.052,-0.01 4.675,-0.026 4.884,0.17 4.872,0.74 4.84,2.341 4.833,3.944 4.872,5.546 4.886,6.148 4.712,6.384 4.015,6.377 1.394,6.348 -1.229,6.356 -3.85,6.377 -4.506,6.382 -4.762,6.181 -4.748,5.556 -4.71,3.955 -4.715,2.352 -4.744,0.75 -4.754,0.193 -4.567,-0.028 -3.932,-0.011 -2.623,0.024 -1.311,-0.001 0,0 m 0.18,8.347 c 1.507,0 3.015,0.012 4.522,-0.003 C 6.24,8.327 7.085,7.662 7.139,6.241 7.216,4.207 7.215,2.168 7.147,0.134 7.101,-1.252 6.217,-1.963 4.686,-1.972 c -3.094,-0.018 -6.188,-0.02 -9.282,10e-4 -1.621,0.011 -2.411,0.729 -2.434,2.212 -0.03,1.963 -0.034,3.927 0,5.89 0.024,1.455 0.859,2.195 2.45,2.216 1.587,0.021 3.173,0.005 4.76,0.005 l 0,-0.005 z" /></g><g
           transform="translate(141.813,80.0019)"
           id="g112"><path
             id="path114"
             style="fill:#9a2025;fill-opacity:1;fill-rule:nonzero;stroke:none"
             d="M 0,0 C 1.307,0 2.615,0.026 3.921,-0.011 4.587,-0.03 4.823,0.171 4.808,0.793 4.77,2.389 4.779,3.987 4.806,5.585 4.815,6.117 4.677,6.38 4.025,6.375 1.331,6.354 -1.362,6.358 -4.055,6.378 -4.618,6.382 -4.821,6.199 -4.814,5.685 -4.791,4.015 -4.789,2.344 -4.812,0.675 -4.819,0.148 -4.588,-0.017 -4.04,-0.007 -2.694,0.015 -1.347,0 0,0 m -0.029,-1.978 c -1.548,0 -3.097,-0.025 -4.645,0.008 -1.564,0.033 -2.333,0.729 -2.357,2.168 -0.034,2.001 -0.035,4.004 0.006,6.004 0.031,1.484 0.767,2.134 2.354,2.142 C -1.535,8.359 1.602,8.357 4.738,8.35 6.128,8.346 6.967,7.755 7.025,6.484 7.123,4.305 7.128,2.117 7.031,-0.062 6.976,-1.313 6.152,-1.92 4.735,-1.959 3.149,-2.003 1.56,-1.969 -0.029,-1.969 l 0,-0.009 z" /></g><g
           transform="translate(100.1219,84.144)"
           id="g116"><path
             id="path118"
             style="fill:#9a2025;fill-opacity:1;fill-rule:nonzero;stroke:none"
             d="M 0,0 C 0.001,-1.091 0.036,-2.184 -0.012,-3.274 -0.041,-3.931 0.187,-4.224 0.927,-4.151 1.28,-4.116 1.65,-4.193 1.996,-4.135 3.22,-3.932 3.35,-4.537 3.29,-5.438 3.249,-6.05 3.021,-6.263 2.361,-6.256 c -2.262,0.024 -4.525,0.04 -6.786,-0.004 -0.918,-0.017 -0.902,0.467 -0.907,1.05 -0.006,0.589 -0.009,1.03 0.902,1.05 2.288,0.049 2.287,0.092 2.287,2.226 0,1.091 -0.03,2.184 0.009,3.274 0.023,0.616 -0.227,0.873 -0.892,0.833 -0.355,-0.022 -0.714,-0.004 -1.071,-10e-4 -1.125,0.009 -1.63,0.752 -1.191,1.7 0.153,0.329 0.424,0.278 0.685,0.279 1.27,0.008 2.541,-0.022 3.81,0.016 C -0.133,4.186 0.015,3.91 0.006,3.383 -0.016,2.256 -0.001,1.128 0,0" /></g><g
           transform="translate(92.0502,82.4369)"
           id="g120"><path
             id="path122"
             style="fill:#9a2025;fill-opacity:1;fill-rule:nonzero;stroke:none"
             d="M 0,0 C -0.315,0 -0.632,0.022 -0.944,-0.005 -1.653,-0.065 -2.018,0.104 -2.011,0.867 -2.005,1.589 -1.74,1.836 -0.98,1.772 -0.433,1.725 0.122,1.774 0.672,1.755 1.317,1.733 2.092,2.038 2.096,0.903 2.1,-0.189 1.385,0.017 0.708,0.007 0.472,0.003 0.236,0.006 0,0.006 L 0,0 Z" /></g><g
           transform="translate(167.3121,78.6168)"
           id="g124"><path
             id="path126"
             style="fill:#ffffff;fill-opacity:1;fill-rule:nonzero;stroke:none"
             d="m 0,0 c -0.773,-0.374 -1.782,-0.561 -3.027,-0.561 -1.624,0 -2.902,0.477 -3.832,1.432 -0.93,0.955 -1.395,2.227 -1.395,3.817 0,1.694 0.523,3.067 1.569,4.12 1.046,1.054 2.403,1.58 4.071,1.58 1.034,0 1.905,-0.13 2.614,-0.391 L 0,7.701 c -0.709,0.423 -1.516,0.635 -2.422,0.635 -0.994,0 -1.796,-0.313 -2.407,-0.938 -0.61,-0.625 -0.915,-1.472 -0.915,-2.54 0,-1.024 0.288,-1.839 0.864,-2.447 0.576,-0.608 1.351,-0.912 2.325,-0.912 0.931,0 1.782,0.226 2.555,0.679 L 0,0 Z" /></g><g
           transform="translate(172.5912,84.1985)"
           id="g128"><path
             id="path130"
             style="fill:#ffffff;fill-opacity:1;fill-rule:nonzero;stroke:none"
             d="m 0,0 c -0.551,0 -0.98,-0.189 -1.285,-0.569 -0.305,-0.379 -0.457,-0.915 -0.457,-1.609 0,-1.452 0.585,-2.178 1.757,-2.178 1.117,0 1.676,0.746 1.676,2.237 C 1.691,-0.706 1.127,0 0,0 m -0.059,-6.143 c -1.26,0 -2.25,0.353 -2.971,1.06 -0.721,0.706 -1.082,1.665 -1.082,2.875 0,1.251 0.374,2.229 1.122,2.935 0.748,0.707 1.759,1.06 3.034,1.06 1.255,0 2.24,-0.353 2.954,-1.06 0.713,-0.706 1.07,-1.64 1.07,-2.802 0,-1.255 -0.367,-2.247 -1.103,-2.975 -0.736,-0.729 -1.744,-1.093 -3.024,-1.093" /></g><g
           transform="translate(190.178,78.2402)"
           id="g132"><path
             id="path134"
             style="fill:#ffffff;fill-opacity:1;fill-rule:nonzero;stroke:none"
             d="m 0,0 -2.326,0 0,4.312 c 0,1.097 -0.403,1.646 -1.211,1.646 -0.383,0 -0.696,-0.165 -0.937,-0.494 -0.241,-0.33 -0.362,-0.741 -0.362,-1.233 l 0,-4.231 -2.333,0 0,4.356 c 0,1.068 -0.396,1.602 -1.189,1.602 -0.399,0 -0.717,-0.157 -0.956,-0.472 C -9.552,5.171 -9.672,4.742 -9.672,4.201 l 0,-4.201 -2.333,0 0,7.56 2.333,0 0,-1.181 0.03,0 c 0.241,0.404 0.579,0.732 1.015,0.986 0.436,0.253 0.912,0.38 1.428,0.38 1.068,0 1.799,-0.47 2.193,-1.41 0.576,0.94 1.423,1.41 2.54,1.41 C -0.822,7.745 0,6.731 0,4.703 L 0,0 Z" /></g><g
           transform="translate(194.32,82.2198)"
           id="g136"><path
             id="path138"
             style="fill:#ffffff;fill-opacity:1;fill-rule:nonzero;stroke:none"
             d="m 0,0 0,-0.605 c 0,-0.522 0.138,-0.948 0.413,-1.278 0.276,-0.33 0.638,-0.494 1.086,-0.494 0.531,0 0.944,0.205 1.237,0.616 0.293,0.411 0.439,0.993 0.439,1.746 0,1.329 -0.517,1.994 -1.551,1.994 C 1.147,1.979 0.757,1.798 0.454,1.436 0.152,1.074 0,0.596 0,0 m 0.066,-3.101 -0.029,0 0,-4.356 -2.333,0 0,11.038 2.333,0 0,-1.137 0.029,0 c 0.576,0.881 1.386,1.321 2.43,1.321 0.979,0 1.736,-0.335 2.27,-1.007 C 5.3,2.086 5.567,1.171 5.567,0.015 5.567,-1.245 5.256,-2.257 4.633,-3.02 4.011,-3.783 3.182,-4.164 2.149,-4.164 c -0.911,0 -1.605,0.354 -2.083,1.063" /></g><g
           transform="translate(208.5844,78.2402)"
           id="g140"><path
             id="path142"
             style="fill:#ffffff;fill-opacity:1;fill-rule:nonzero;stroke:none"
             d="m 0,0 -2.326,0 0,1.152 -0.037,0 c -0.576,-0.891 -1.346,-1.337 -2.311,-1.337 -1.752,0 -2.628,1.061 -2.628,3.183 l 0,4.562 2.326,0 0,-4.356 c 0,-1.068 0.423,-1.602 1.27,-1.602 0.418,0 0.753,0.147 1.004,0.439 0.251,0.293 0.376,0.691 0.376,1.193 l 0,4.326 L 0,7.56 0,0 Z" /></g><g
           transform="translate(215.1186,78.3288)"
           id="g144"><path
             id="path146"
             style="fill:#ffffff;fill-opacity:1;fill-rule:nonzero;stroke:none"
             d="m 0,0 c -0.345,-0.182 -0.864,-0.273 -1.558,-0.273 -1.644,0 -2.466,0.854 -2.466,2.562 l 0,3.463 -1.225,0 0,1.72 1.225,0 0,1.632 2.326,0.664 0,-2.296 1.698,0 0,-1.72 -1.698,0 0,-3.057 c 0,-0.788 0.312,-1.181 0.938,-1.181 0.246,0 0.499,0.071 0.76,0.214 L 0,0 Z" /></g><g
           transform="translate(221.0621,82.7883)"
           id="g148"><path
             id="path150"
             style="fill:#ffffff;fill-opacity:1;fill-rule:nonzero;stroke:none"
             d="M 0,0 C 0,1.083 -0.438,1.624 -1.314,1.624 -1.688,1.624 -2.012,1.469 -2.285,1.159 -2.558,0.849 -2.724,0.463 -2.783,0 L 0,0 Z m 2.163,-1.432 -4.932,0 c 0.079,-1.098 0.771,-1.647 2.075,-1.647 0.832,0 1.563,0.197 2.193,0.591 l 0,-1.684 C 0.8,-4.546 -0.108,-4.733 -1.226,-4.733 c -1.22,0 -2.168,0.339 -2.842,1.016 -0.674,0.676 -1.012,1.62 -1.012,2.831 0,1.255 0.365,2.249 1.093,2.983 0.729,0.733 1.624,1.1 2.688,1.1 1.102,0 1.955,-0.327 2.558,-0.982 C 1.862,1.56 2.163,0.672 2.163,-0.45 l 0,-0.982 z" /></g><g
           transform="translate(229.5454,83.6964)"
           id="g152"><path
             id="path154"
             style="fill:#ffffff;fill-opacity:1;fill-rule:nonzero;stroke:none"
             d="m 0,0 c -0.281,0.153 -0.608,0.229 -0.982,0.229 -0.507,0 -0.903,-0.186 -1.189,-0.558 -0.285,-0.371 -0.428,-0.877 -0.428,-1.517 l 0,-3.61 -2.333,0 0,7.56 2.333,0 0,-1.403 0.03,0 C -2.2,1.725 -1.536,2.237 -0.576,2.237 -0.33,2.237 -0.138,2.208 0,2.149 L 0,0 Z" /></g><g
           transform="translate(243.8467,88.8278)"
           id="g156"><path
             id="path158"
             style="fill:#ffffff;fill-opacity:1;fill-rule:nonzero;stroke:none"
             d="m 0,0 -3.647,-10.588 -2.703,0 L -9.953,0 l 2.57,0 2.207,-7.368 c 0.118,-0.399 0.19,-0.751 0.214,-1.056 l 0.045,0 c 0.034,0.33 0.111,0.691 0.229,1.085 L -2.496,0 0,0 Z" /></g><path
           id="path160"
           style="fill:#ffffff;fill-opacity:1;fill-rule:nonzero;stroke:none"
           d="m 247.221,78.24 -2.333,0 0,7.56 2.333,0 0,-7.56 z m -1.152,8.757 c -0.394,0 -0.716,0.117 -0.967,0.35 -0.251,0.234 -0.377,0.521 -0.377,0.861 0,0.349 0.126,0.635 0.377,0.856 0.251,0.222 0.573,0.332 0.967,0.332 0.399,0 0.723,-0.11 0.971,-0.332 0.249,-0.221 0.373,-0.507 0.373,-0.856 0,-0.355 -0.124,-0.645 -0.373,-0.872 -0.248,-0.226 -0.572,-0.339 -0.971,-0.339" /><g
           transform="translate(254.294,81.9171)"
           id="g162"><path
             id="path164"
             style="fill:#ffffff;fill-opacity:1;fill-rule:nonzero;stroke:none"
             d="m 0,0 0,0.569 c 0,0.492 -0.143,0.9 -0.428,1.225 -0.286,0.325 -0.657,0.487 -1.115,0.487 -0.517,0 -0.921,-0.203 -1.211,-0.609 C -3.044,1.266 -3.19,0.709 -3.19,0 c 0,-0.664 0.141,-1.176 0.421,-1.536 0.281,-0.359 0.67,-0.539 1.167,-0.539 0.472,0 0.858,0.19 1.156,0.569 C -0.148,-1.127 0,-0.625 0,0 m 2.289,-3.677 -2.333,0 0,1.041 -0.03,0 c -0.531,-0.817 -1.312,-1.225 -2.34,-1.225 -0.945,0 -1.706,0.333 -2.282,1 -0.576,0.667 -0.864,1.598 -0.864,2.795 0,1.25 0.318,2.251 0.953,3.005 0.635,0.753 1.467,1.129 2.495,1.129 0.975,0 1.654,-0.349 2.038,-1.048 l 0.03,0 0,4.496 2.333,0 0,-11.193 z" /></g><g
           transform="translate(263.176,82.7883)"
           id="g166"><path
             id="path168"
             style="fill:#ffffff;fill-opacity:1;fill-rule:nonzero;stroke:none"
             d="M 0,0 C 0,1.083 -0.438,1.624 -1.314,1.624 -1.688,1.624 -2.012,1.469 -2.285,1.159 -2.558,0.849 -2.724,0.463 -2.783,0 L 0,0 Z m 2.163,-1.432 -4.932,0 c 0.079,-1.098 0.771,-1.647 2.075,-1.647 0.832,0 1.563,0.197 2.193,0.591 l 0,-1.684 C 0.8,-4.546 -0.108,-4.733 -1.226,-4.733 c -1.22,0 -2.168,0.339 -2.842,1.016 -0.674,0.676 -1.012,1.62 -1.012,2.831 0,1.255 0.365,2.249 1.093,2.983 0.729,0.733 1.624,1.1 2.688,1.1 1.102,0 1.955,-0.327 2.558,-0.982 C 1.862,1.56 2.163,0.672 2.163,-0.45 l 0,-0.982 z" /></g><g
           transform="translate(270.3894,84.1985)"
           id="g170"><path
             id="path172"
             style="fill:#ffffff;fill-opacity:1;fill-rule:nonzero;stroke:none"
             d="m 0,0 c -0.551,0 -0.98,-0.189 -1.285,-0.569 -0.305,-0.379 -0.457,-0.915 -0.457,-1.609 0,-1.452 0.585,-2.178 1.757,-2.178 1.117,0 1.676,0.746 1.676,2.237 C 1.691,-0.706 1.127,0 0,0 m -0.059,-6.143 c -1.26,0 -2.25,0.353 -2.971,1.06 -0.722,0.706 -1.082,1.665 -1.082,2.875 0,1.251 0.374,2.229 1.122,2.935 0.748,0.707 1.759,1.06 3.034,1.06 1.255,0 2.24,-0.353 2.954,-1.06 0.713,-0.706 1.07,-1.64 1.07,-2.802 0,-1.255 -0.367,-2.247 -1.103,-2.975 -0.736,-0.729 -1.744,-1.093 -3.024,-1.093" /></g><g
           transform="translate(289.0616,78.949)"
           id="g174"><path
             id="path176"
             style="fill:#ffffff;fill-opacity:1;fill-rule:nonzero;stroke:none"
             d="m 0,0 c -1.034,-0.596 -2.318,-0.893 -3.854,-0.893 -1.703,0 -3.045,0.471 -4.027,1.414 -0.982,0.942 -1.474,2.24 -1.474,3.894 0,1.664 0.537,3.02 1.61,4.068 1.073,1.049 2.5,1.573 4.282,1.573 1.123,0 2.112,-0.155 2.968,-0.465 l 0,-2.237 c -0.817,0.472 -1.816,0.708 -2.997,0.708 -0.99,0 -1.795,-0.321 -2.418,-0.963 -0.623,-0.642 -0.934,-1.5 -0.934,-2.573 0,-1.088 0.279,-1.93 0.838,-2.525 0.559,-0.596 1.313,-0.894 2.263,-0.894 0.571,0 1.024,0.082 1.358,0.244 l 0,2.067 -2.119,0 0,1.905 L 0,5.323 0,0 Z" /></g><g
           transform="translate(294.9904,81.3117)"
           id="g178"><path
             id="path180"
             style="fill:#ffffff;fill-opacity:1;fill-rule:nonzero;stroke:none"
             d="M 0,0 0,0.509 -1.373,0.332 c -0.758,-0.098 -1.137,-0.44 -1.137,-1.026 0,-0.266 0.092,-0.484 0.277,-0.653 0.185,-0.17 0.434,-0.255 0.749,-0.255 0.438,0 0.795,0.151 1.071,0.454 C -0.138,-0.845 0,-0.463 0,0 m 2.193,-3.071 -2.208,0 0,1.085 -0.029,0 c -0.507,-0.847 -1.258,-1.27 -2.252,-1.27 -0.734,0 -1.31,0.208 -1.731,0.624 -0.421,0.416 -0.632,0.971 -0.632,1.665 0,1.467 0.869,2.313 2.606,2.54 L 0,1.846 c 0,0.827 -0.448,1.24 -1.344,1.24 -0.901,0 -1.757,-0.268 -2.569,-0.805 l 0,1.758 c 0.325,0.167 0.769,0.315 1.333,0.443 0.564,0.128 1.076,0.192 1.539,0.192 2.156,0 3.234,-1.076 3.234,-3.227 l 0,-4.518 z" /></g><g
           transform="translate(311.0341,78.2402)"
           id="g182"><path
             id="path184"
             style="fill:#ffffff;fill-opacity:1;fill-rule:nonzero;stroke:none"
             d="m 0,0 -2.326,0 0,4.312 c 0,1.097 -0.403,1.646 -1.211,1.646 -0.383,0 -0.696,-0.165 -0.937,-0.494 -0.241,-0.33 -0.362,-0.741 -0.362,-1.233 l 0,-4.231 -2.333,0 0,4.356 c 0,1.068 -0.396,1.602 -1.189,1.602 -0.399,0 -0.717,-0.157 -0.956,-0.472 C -9.552,5.171 -9.672,4.742 -9.672,4.201 l 0,-4.201 -2.333,0 0,7.56 2.333,0 0,-1.181 0.03,0 c 0.241,0.404 0.579,0.732 1.015,0.986 0.436,0.253 0.912,0.38 1.428,0.38 1.068,0 1.799,-0.47 2.193,-1.41 0.576,0.94 1.423,1.41 2.54,1.41 C -0.822,7.745 0,6.731 0,4.703 L 0,0 Z" /></g><g
           transform="translate(317.5092,82.7883)"
           id="g186"><path
             id="path188"
             style="fill:#ffffff;fill-opacity:1;fill-rule:nonzero;stroke:none"
             d="M 0,0 C 0,1.083 -0.438,1.624 -1.314,1.624 -1.688,1.624 -2.012,1.469 -2.285,1.159 -2.558,0.849 -2.724,0.463 -2.783,0 L 0,0 Z m 2.163,-1.432 -4.932,0 c 0.079,-1.098 0.771,-1.647 2.075,-1.647 0.832,0 1.563,0.197 2.193,0.591 l 0,-1.684 C 0.8,-4.546 -0.108,-4.733 -1.226,-4.733 c -1.22,0 -2.168,0.339 -2.842,1.016 -0.674,0.676 -1.012,1.62 -1.012,2.831 0,1.255 0.365,2.249 1.093,2.983 0.729,0.733 1.624,1.1 2.688,1.1 1.102,0 1.955,-0.327 2.558,-0.982 C 1.862,1.56 2.163,0.672 2.163,-0.45 l 0,-0.982 z" /></g><g
           transform="translate(216.1178,125.6644)"
           id="g190"><path
             id="path192"
             style="fill:#28479f;fill-opacity:1;fill-rule:nonzero;stroke:none"
             d="m 0,0 c 0,1.087 0.39,2.026 1.171,2.817 0.781,0.791 1.873,1.186 3.277,1.186 l 10.674,0 0,-3.558 -10.674,0 C 3.855,0.445 3.558,0.297 3.558,0 c 0,-0.297 0.297,-0.445 0.89,-0.445 l 2.668,0 c 2.037,0 3.88,-0.825 5.531,-2.476 1.65,-1.65 2.475,-3.642 2.475,-5.975 0,-2.312 -0.825,-4.299 -2.475,-5.96 -1.651,-1.66 -3.494,-2.49 -5.531,-2.49 l -11.564,0 0,3.558 10.675,0 c 1.641,0 2.94,0.484 3.899,1.453 0.959,0.968 1.438,2.115 1.438,3.439 0,1.345 -0.479,2.496 -1.438,3.455 -0.959,0.959 -2.258,1.438 -3.899,1.438 l -1.779,0 c -1.404,0 -2.496,0.39 -3.277,1.171 C 0.39,-2.051 0,-1.107 0,0 m -4.448,0 c 0,2.313 0.826,4.3 2.476,5.96 1.651,1.661 3.494,2.491 5.53,2.491 l 11.564,0 0,-3.558 -10.674,0 C 2.807,4.893 1.507,4.408 0.549,3.44 -0.41,2.471 -0.89,1.324 -0.89,0 c 0,-1.344 0.48,-2.496 1.439,-3.454 0.958,-0.959 2.258,-1.439 3.899,-1.439 l 1.779,0 c 1.403,0 2.496,-0.39 3.276,-1.171 0.781,-0.781 1.172,-1.725 1.172,-2.832 0,-1.087 -0.391,-2.026 -1.172,-2.817 -0.78,-0.79 -1.873,-1.186 -3.276,-1.186 l -10.675,0 0,3.559 10.675,0 c 0.593,0 0.889,0.148 0.889,0.444 0,0.297 -0.296,0.445 -0.889,0.445 l -2.669,0 c -2.036,0 -3.879,0.826 -5.53,2.476 -1.65,1.651 -2.476,3.642 -2.476,5.975" /></g><g
           transform="translate(237.4671,120.7718)"
           id="g194"><path
             id="path196"
             style="fill:#28479f;fill-opacity:1;fill-rule:nonzero;stroke:none"
             d="m 0,0 11.564,0 0,-3.558 -8.006,0 c 0,-0.593 0.297,-0.89 0.89,-0.89 l 9.785,0 0,-3.558 -10.675,0 C 1.186,-8.006 0,-6.82 0,-4.448 L 0,0 Z m 0,0.89 0,4.447 c 0,2.372 1.186,3.559 3.558,3.559 l 10.675,0 0,-3.559 -9.785,0 c -0.593,0 -0.89,-0.296 -0.89,-0.889 l 8.006,0 0,-3.558 L 0,0.89 Z m -4.448,4.447 c 0,5.338 2.669,8.006 8.006,8.006 l 10.675,0 0,-3.558 -10.675,0 C 0.593,9.785 -0.89,8.303 -0.89,5.337 l 0,-9.785 c 0,-2.965 1.483,-4.448 4.448,-4.448 l 10.675,0 0,-3.558 -10.675,0 c -5.337,0 -8.006,2.669 -8.006,8.006 l 0,9.785 z" /></g><g
           transform="translate(257.9269,126.1091)"
           id="g198"><path
             id="path200"
             style="fill:#28479f;fill-opacity:1;fill-rule:nonzero;stroke:none"
             d="m 0,0 c 0,2.372 1.186,3.558 3.558,3.558 l 10.675,0 0,-3.558 -9.785,0 C 3.855,0 3.558,-0.297 3.558,-0.89 l 0,-8.006 c 0,-0.593 0.297,-0.889 0.89,-0.889 l 1.779,0 0,0.889 -1.779,0 0,3.559 5.337,0 0,-8.006 -6.227,0 C 1.186,-13.343 0,-12.157 0,-9.785 L 0,0 Z m -4.448,0 c 0,5.337 2.669,8.006 8.006,8.006 l 10.675,0 0,-3.558 -10.675,0 C 0.593,4.448 -0.89,2.965 -0.89,0 l 0,-9.785 c 0,-2.965 1.483,-4.448 4.448,-4.448 l 7.117,0 0,9.785 -6.227,0 0,3.558 9.785,0 0,-16.901 -10.675,0 c -5.337,0 -8.006,2.669 -8.006,8.006 l 0,9.785 z" /></g><g
           transform="translate(284.0206,120.4753)"
           id="g202"><path
             id="path204"
             style="fill:#28479f;fill-opacity:1;fill-rule:nonzero;stroke:none"
             d="m 0,0 -1.631,-4.151 3.262,0 L 0,0 Z m -2.224,-7.709 0,1.927 -2.52,-6.375 -3.559,0 7.71,20.756 c 0.099,0.395 0.296,0.593 0.593,0.593 0.297,0 0.494,-0.198 0.593,-0.593 l 6.227,-16.308 -9.044,0 z m 0,-0.89 10.527,0 L 1.186,9.489 C 0.988,9.884 0.593,10.082 0,10.082 c -0.494,0 -0.89,-0.198 -1.186,-0.593 l -8.006,-21.646 -3.558,0 8.302,22.832 c 0.989,1.976 2.471,2.965 4.448,2.965 2.273,0 3.756,-0.989 4.448,-2.965 l 8.599,-22.832 -15.271,0 0,3.558 z" /></g></g></g></g></svg>