<svg xmlns="http://www.w3.org/2000/svg" viewBox="-51 295.6 400 136.76416">
  <path fill="#17569b" d="M32.820807 369.05428H62.29137c12.06961 0 21.84377-9.77415 21.84377-21.84376 0-12.0696-9.77416-21.76971-21.84377-21.76971h-7.70085c-.59237 0-1.1107-.51833-1.1107-1.1107 0-.66642.51833-1.18475 1.1107-1.18475h29.39652l.074-9.18178H54.59047c-5.70159 0-10.292482 4.59089-10.292482 10.29248 0 5.77564 4.590892 10.44058 10.292482 10.44058h7.70085c6.88634 0 12.51389 5.62754 12.51389 12.51388 0 6.88634-5.62755 12.43984-12.51389 12.43984H32.820757v9.40392z"/>
  <path fill="#17569b" d="M32.820807 357.50301H62.29137c5.77564 0 10.36653-4.66494 10.36653-10.36653 0-5.7016-4.59089-10.36653-10.36653-10.36653h-7.70085c-6.886336 0-12.439835-5.7016-12.439835-12.58793 0-6.88634 5.553499-12.43984 12.439835-12.43984h29.47057l-.074-9.32988H54.59057c-12.069602 0-21.769713 9.77416-21.769713 21.84376 0 12.06961 9.774158 21.76972 21.769713 21.76972h7.62681c.59237 0 1.1107.51832 1.1107 1.1107 0 .59237-.51833 1.1107-1.1107 1.1107H32.820857v9.25583zm74.120693 2.2214c-5.10922 0-9.25583-4.07257-9.25583-9.25583v-29.61866c0-4.96113 4.14661-9.10774 9.25583-9.10774h31.46983v-9.25583H106.9415c-10.21843 0-18.51166 8.29322-18.51166 18.51166v29.47057c0 10.21843 8.29323 18.51166 18.51166 18.51166h31.32174v-9.25583H106.9415z"/>
  <path fill="#17569b" d="M99.98112 320.99801c0-3.85043 3.10996-7.10848 7.03443-7.10848h31.46983v9.25583H111.3843c-2.14735 0-2.14735 2.14735-2.14735 2.14735h22.65827v9.25584h-31.84006l-.074-13.55054zm6.96038 36.505c-3.85042 0-7.03443-3.18401-7.03443-7.03443v-13.62459h31.84006v9.25583h-22.65827c0 2.14736 2.14735 2.14736 2.14735 2.14736h26.95298v9.18178l-31.24769.074zm53.60978 2.2214c-5.10922 0-9.32988-4.14662-9.32988-9.25583v-29.47057c0-5.10922 4.14661-9.25583 9.25583-9.25583h30.50722v-9.25583h-30.58127c-10.21843 0-18.51166 8.29322-18.51166 18.51166v29.47057c0 10.21843 8.36727 18.51166 18.58571 18.51166h30.50722v-43.61348h-26.21251v9.25583h16.95668v25.10182h-21.17734z"/>
  <path fill="#17569b" d="M153.36875 350.46858c0 3.85042 3.18401 7.10847 7.10848 7.10847h19.02999v-20.73306h-14.73528v9.32988h5.47945v2.14735h-5.47945c-1.18475 0-2.14736-1.03665-2.14736-2.14735v-20.73306s0-2.14735 2.14736-2.14735h26.13846v-9.25584h-30.50722c-3.85042 0-7.10847 3.18401-7.10847 7.10848l.074 29.32248zm66.19771-36.6531c.44428-1.18474 1.48093-2.0733 2.81377-2.0733 1.33284 0 2.44354.81451 2.81377 2.0733l14.73529 43.83562h-21.62163v-10.29248h7.25658l-3.25806-9.77416-10.66271 31.39578h-10.88486l18.80785-55.16476z"/>
  <path fill="#17569b" d="M243.03924 359.72441h-24.65753v9.25583h37.46761l-19.47427-57.75639c-1.70308-5.62754-7.33062-9.77416-13.99482-9.77416-6.6642 0-12.29174 4.14662-13.99482 9.77416L188.689 368.98024h9.92226l19.02998-56.20141c.81452-1.85116 2.59164-3.184 4.81304-3.184 2.14735 0 3.92447 1.25879 4.73898 3.184l15.84598 46.94558zm7.40467-49.61126c1.92521 0 3.77638-.74046 5.10922-2.14735 1.40688-1.40689 2.14735-3.18401 2.14735-5.10922 0-1.92521-.74047-3.77638-2.14735-5.10922-1.33284-1.40688-3.18401-2.14735-5.10922-2.14735-3.99852 0-7.25657 3.184-7.25657 7.18252 0 1.92522.81451 3.77638 2.14735 5.10922 1.33284 1.55498 3.18401 2.2214 5.10922 2.2214zm-6.21992-7.25657c0-1.62903.66642-3.18401 1.85117-4.4428 1.1107-1.18475 2.73972-1.85116 4.4428-1.85116 1.62902 0 3.184.66641 4.4428 1.85116 1.18474 1.18475 1.85116 2.81377 1.85116 4.4428 0 3.48019-2.81377 6.21992-6.21992 6.21992-1.70307 0-3.25805-.59237-4.4428-1.85117-1.25879-1.03665-1.92521-2.66568-1.92521-4.36875z"/>
  <path fill="#17569b" d="M248.59274 303.523v3.48019h-1.03665v-8.07108h2.96187c1.1107 0 1.77712 0 2.44354.51832.51832.44428.81451 1.1107.81451 1.85117 0 1.85117-1.48093 2.14735-1.92521 2.14735l2.2214 3.4802h-1.2588l-2.14735-3.4802-2.07331.074zm0-.88856h2.14736c.37023 0 .66642 0 .9626-.14809.81452-.1481 1.03666-.74047 1.03666-1.2588 0-.14809-.074-.81451-.51833-1.18474-.44428-.37024-.96261-.29619-1.55498-.29619h-2.07331v2.88782z"/>
  <path fill="red" d="M-51 402.81956v-8.07109c0-7.18252 3.554239-10.73676 10.736764-10.73676H8.089226v10.73676h-48.352462v8.07109h37.615698c7.182525 0 10.736764 3.55424 10.736764 10.73676v8.07109c0 7.18252-3.554239 10.73676-10.736764 10.73676H-51v-10.73676h48.352462v-8.07109h-37.615698C-47.371714 413.55632-51 409.92804-51 402.81956zm64.420585 18.7338v-26.87893c0-7.18253 3.554239-10.73677 10.736764-10.73677H72.50981v10.73677H24.157349v26.87893H61.77305v-8.07109H40.299519v-10.73676H72.50981v29.54461H24.157349c-7.108478 0-10.736764-3.55424-10.736764-10.73676zm64.420585-7.99704v-10.73676h18.80785v10.73676H77.84117zm24.21325 18.7338v-10.73676h16.14217v-26.87893h-16.14217v-10.73677h29.54462v37.6157h16.14217v10.73676h-45.68679zm112.699-10.73676c0 7.18252-3.55423 10.73676-10.73676 10.73676h-40.28138c-7.18252 0-10.73676-3.55424-10.73676-10.73676v-26.87893c0-7.18253 3.55424-10.73677 10.73676-10.73677h40.28138c7.18253 0 10.73676 3.55424 10.73676 10.73677v26.87893zm-10.73676 0v-26.87893h-40.28138v26.87893h40.28138zm77.82303 0c0 7.18252-3.55424 10.73676-10.73677 10.73676h-40.28137c-7.18253 0-10.73677-3.55424-10.73677-10.73676v-26.87893c0-7.18253 3.55424-10.73677 10.73677-10.73677h40.28137c7.18253 0 10.73677 3.55424 10.73677 10.73677v26.87893zm-10.73677 0v-26.87893h-40.28137v26.87893h40.28137zm77.89708 0c0 7.18252-3.55424 10.73676-10.73676 10.73676h-40.28138c-7.18253 0-10.73677-3.55424-10.73677-10.73676v-26.87893c0-7.18253 3.55424-10.73677 10.73677-10.73677h40.28138c7.18252 0 10.73676 3.55424 10.73676 10.73677v26.87893zm-10.73676 0v-26.87893h-40.28138v26.87893h40.28138z"/>
</svg>
