<svg xmlns="http://www.w3.org/2000/svg" width="400" height="68.465027">
  <defs>
    <clipPath id="a">
      <path d="M0 64.592h377.368V0H0v64.592z"/>
    </clipPath>
  </defs>
  <g clip-path="url(#a)" transform="matrix(1.0599742,0,0,-1.0599742,-3.2890425e-4,68.465342)">
    <path fill="#2b2321" d="M5.8396 12.7202c0 10.538 0 21.075.001 31.613.496.503 1.141.54 1.783.541 8.788.017 17.576.027 26.365-.004.373-.001.744-.038 1.1-.148 1.225-.684.239-1.275-.169-1.718-2.206-2.394-3.819-5.107-4.715-8.243-2.155-7.544-.713-14.313 4.366-20.299.309-.364.673-.683.909-1.109.254-.459.196-.809-.344-.998-.62-.204-1.26-.184-1.895-.185-8.33-.006-16.659-.008-24.988.003-.837.001-1.719-.117-2.413.547m83.4697 31.6119v-31.609c-.448-.459-1.029-.533-1.621-.535-7.021-.021-14.043-.049-21.064.014-.267.002-.529.052-.783.124-1.029.419-.484 1.006-.086 1.462.835.956 1.674 1.903 2.385 2.96 1.65 2.452 2.658 5.151 3.201 8.046.153.819.155 1.696.699 2.405.408.293.89.298 1.362.32.68.033 1.1.298 1.079 1.052-.018.671-.402.916-1.011.957-.471.031-.953.025-1.379.288-.565.578-.555 1.359-.681 2.07-.743 4.221-2.489 7.935-5.4 11.106-.398.432-1.398.993-.213 1.715.625.195 1.267.174 1.905.175 6.395.006 12.789.009 19.184-.003.839-.002 1.726.122 2.423-.547"/>
    <path fill="#b7aba9" d="M89.3093 44.3321c-7.971.009-15.942.018-23.914.028-.489-.239-.818.098-1.133.358-2.893 2.389-6.174 3.948-9.848 4.716-.364.076-1.529-.045-.611.972 2.272.447 4.568.141 6.851.202 2.22.06 2.266.063 2.274 2.213.005 1.332-.015 2.665.002 3.997.013.985-.366 1.468-1.405 1.467-5.436-.007-10.872.002-16.308-.006-.873-.001-1.43-.312-1.502-1.256-.077-1.012-.667-1.522-1.65-1.613-.754-.07-1.146-.489-1.215-1.231-.093-.994-.636-1.524-1.63-1.648-.611-.076-1.178-.275-1.125-1.066.057-.847.735-.812 1.303-.827 1.811-.048 3.624-.007 5.436-.023.743-.006 1.495.066 2.218-.182 1.038-.871-.094-.89-.468-1.01-1.257-.401-2.566-.611-3.804-1.109-2.029-.815-3.917-1.843-5.608-3.244-.454-.377-.896-.957-1.65-.708-9.894-.01-19.788-.02-29.682-.029-.018.961-.037 1.922-.055 2.882-.624.982-.61 1.976-.061 2.981.801.58 1.732.427 2.622.429 6.914.015 13.828.035 20.741-.015 1.428-.011 2.24.406 2.269 1.906.046.175.125.339.227.488.15.145.333.312.534.296 1.761-.141 2.201.938 2.246 2.395.067.152.171.274.307.368.232.127.488.226.746.205 1.308-.109 1.785.552 1.706 1.773-.014.207.071.409.153.604.078.147.19.259.334.34 1.889-.145 2.408 1.148 2.753 2.624.953.022 1.905.044 2.857.066.982.622 1.964.627 2.945-.004 2.859.002 5.717.003 8.576.005.983.622 1.966.625 2.948-.003 4.779.001 9.558.001 14.337.001 3.863.81 7.726.809 11.59 0 .424-.006.856-.065 1.271-.009 1.232.169 1.792-.282 1.581-1.562-.172-1.044.295-1.496 1.331-1.326 1.297.212 1.648-.374 1.566-1.595-.092-1.373-.007-2.757 0-4.136.752-1.944.752-3.887 0-5.83l-.055-2.884z"/>
    <path fill="#fdfdf9" d="M53.4753 50.0787c4.49-.83 8.482-2.698 11.92-5.719 2.967-3.178 5.268-6.733 6.172-11.057.227-1.087.347-2.197.517-3.296.623-.987.619-1.975.003-2.963-.523-5.344-2.463-10.033-6.366-13.821-.144-.139-.219-.349-.326-.527-.996-1.672-2.68-2.538-4.251-3.487-2.307-1.395-4.886-2.016-7.56-2.253-1.134-.532-2.17-.57-3.361.086-.834.459-1.903-.353-2.891-.089-3.914.212-7.297 1.764-10.362 4.111-.588.45-1.25.839-1.457 1.632-2.758 2.939-5.016 6.209-5.963 10.171-1.877 7.849-.184 14.827 5.407 20.762.211.223.377.488.565.733 3.445 3.003 7.44 4.859 11.914 5.719 2.013.881 4.026.884 6.039-.002"/>
    <path fill="#b8aaa9" d="M35.5131 12.6956c3.417-2.99 7.39-4.837 11.82-5.743-12.418-.009-24.834-.005-37.251-.054-1.144-.004-1.521.356-1.409 1.454.075.733.168 1.638-1.039 1.437-1.663-.277-2.047.542-1.834 1.974.047.314.028.637.039.957 9.892-.009 19.783-.017 29.674-.025"/>
    <path fill="#b6aba9" d="M23.1251 58.7945c.478-.006.962.035 1.432-.028 1.112-.147 1.594.287 1.41 1.408-.199 1.209.328 1.536 1.507 1.505 3.342-.089 6.687-.057 10.032-.073.65-.949.61-1.895-.015-2.837l.005.005c-.164-.134-.329-.313-.539-.314-1.358-.007-2.026-.673-2.032-2.032-.001-.21-.181-.375-.314-.539l.004.004c-.119-.098-.243-.253-.38-.254-1.498-.011-2.239-.752-2.251-2.25-.001-.138-.155-.261-.254-.381l.005.005c-.518-.469-1.162-.504-1.805-.505-7.52-.013-15.041-.025-22.561.006-.374.001-.746.035-1.106.152-.204.074-.374.196-.511.364.018.371.098.751.044 1.111-.207 1.366.258 2.005 1.714 1.764.722-.119 1.339.079 1.162.991-.351 1.809.633 2.065 2.067 1.883.261-.033.531.008.796.015 3.863.808 7.727.808 11.59 0"/>
    <path fill="#b8aaaa" d="M53.5847 6.956c1.209.335 2.42.665 3.627 1.006 3.131.881 5.679 2.771 8.184 4.734 7.971.009 15.942.018 23.914.027.01-.479-.027-.965.042-1.436.179-1.213-.326-1.68-1.509-1.485-1.161.191-1.52-.366-1.384-1.443.113-.902-.038-1.469-1.23-1.463-10.548.055-21.096.048-31.644.06"/>
    <path fill="#c4c3c3" d="M83.6151 61.6746h-11.59c.094 2.859.094 2.859 3.016 2.859 2.223 0 4.452-.101 6.666.034 1.559.094 2.13-.431 1.884-1.943-.05-.307.013-.633.024-.95m-60.49-2.8801h-11.59c.093 2.849.093 2.849 2.947 2.864 1.902.765 3.804.767 5.706-.002 2.846-.009 2.846-.009 2.937-2.862"/>
    <path fill="#c4c4c3" d="M5.8234 50.143c-.013-.976-.025-1.951-.038-2.927-.424.011-.855.076-1.271.022-1.233-.16-1.8.292-1.59 1.576.174 1.063-.329 1.466-1.348 1.315-1.141-.171-1.569.215-1.576 1.457-.008 1.293.519 1.502 1.615 1.445 1.375-.072 2.758-.007 4.137-.001l.12-.033c.567-.962.573-1.913-.049-2.854"/>
    <path fill="#c3c3c3" d="M89.3642 47.2158v5.83c1.488-.011 2.978-.088 4.461-.013 1.129.058 1.332-.462 1.299-1.429-.029-.867-.004-1.657-1.221-1.472-1.29.197-1.905-.268-1.684-1.633.158-.982-.299-1.351-1.263-1.26-.525.05-1.061-.012-1.592-.023"/>
    <path fill="#1a1316" d="M20.1876 61.6566c-1.902.001-3.803.001-5.705.002-.1 2.875-.1 2.875 2.684 2.874h.16c2.927 0 2.927 0 2.861-2.876"/>
    <path fill="#c4c3c3" d="M46.1642 61.6715c-.982.001-1.963.002-2.945.004.012.367.063.739.028 1.101-.112 1.14.03 1.819 1.527 1.815 1.541-.005 1.39-.853 1.365-1.818-.009-.367.016-.734.025-1.102m11.5244.0019c-.983.001-1.965.001-2.948.002.011.368.062.739.027 1.102-.111 1.139.028 1.819 1.527 1.814 1.541-.005 1.393-.849 1.368-1.815-.01-.367.016-.735.026-1.103"/>
    <path fill="#a09795" d="M37.4908 58.7693c.005.946.01 1.891.015 2.837.952.001 1.905.002 2.857.003.032-2.833.032-2.833-2.872-2.84"/>
    <path fill="#c6c2bf" d="M72.0876 27.0434c-.001.988-.002 1.976-.003 2.963.366-.014.732-.038 1.098-.04 1.69-.011 1.757-.237 1.759-2.382 0-.528-.452-.485-.814-.495-.68-.018-1.36-.031-2.04-.046"/>
    <path fill="#0e090c" d="M53.4753 50.0787c-2.013.001-4.026.001-6.039.002-2.926.017-5.854.11-8.776.015-1.285-.042-1.186.626-1.175 1.462.01.813-.143 1.684 1.162 1.457 1.314-.227 2.04.171 1.73 1.665-.203.982.226 1.381 1.209 1.213 1.239-.213 1.942.137 1.673 1.562-.19 1.006.193 1.354 1.272 1.343 5.855-.054 11.712-.046 17.567-.006 1 .007 1.395-.212 1.345-1.304-.094-2.072-.082-4.153-.01-6.227.033-.949-.306-1.158-1.181-1.15-2.925.03-5.851-.015-8.777-.032"/>
    <path fill="#0e090d" d="M75.0186 58.7729c2.453.001 4.907-.026 7.36.016.823.015 1.245-.094 1.225-1.093-.064-3.146-.043-6.293-.009-9.439.008-.742-.186-1.027-.976-1.022-5.119.029-10.239.031-15.359 0-.792-.004-.983.277-.975 1.017.033 3.146.053 6.294-.01 9.439-.02.995.397 1.111 1.224 1.096 2.506-.043 5.013-.015 7.52-.014"/>
    <path fill="#a19795" d="M5.8234 50.143c.016.951.032 1.903.049 2.854 8.621.005 17.242.011 25.862.016-.005-2.882-.005-2.883-2.835-2.882-7.692.003-15.384.008-23.076.012"/>
    <path fill="#a19795" d="M31.7303 53.0088c.006 2.878.006 2.878 2.885 2.885-.006-2.879-.006-2.879-2.885-2.885"/>
    <path fill="#a29795" d="M34.6108 55.8893c.004 3.138-.243 2.878 2.885 2.885-.005-2.879-.005-2.879-2.885-2.885"/>
    <path fill="#1b1318" d="M42.3291 11.4924c-4.07 2.245-7.377 5.258-9.116 9.654-2.824 7.143-1.956 13.875 3.131 19.676 5.318 6.064 12.173 7.936 19.824 5.516 7.543-2.384 11.931-7.861 12.914-15.686 1.641-13.062-10.604-23.6-23.329-20.269-.509.134-1.029.227-1.544.339-.723.02-1.435.069-1.88.77"/>
    <path fill="#fefefe" d="M42.3291 11.4924c.627-.257 1.253-.513 1.88-.77-1.622-.515-1.904-.4-1.88.77"/>
    <path fill="#fefdfb" d="M71.9028 50.1306c-2.724.001-2.724.001-2.724 2.718 0 3.042 0 3.042 3.04 3.043 2.721.002 2.721.002 2.721-2.722-.001-3.04-.001-3.04-3.037-3.039"/>
    <path fill="#3c3041" d="M50.8453 15.5645c-7.45-.226-13.354 5.563-13.372 12.991-.016 7.137 5.833 13.043 13.097 12.954 7.222-.089 12.786-5.71 12.866-13.01.077-6.962-5.845-13.112-12.591-12.935"/>
    <path fill="#1a1418" d="M50.5655 18.4465c-5.787-.341-10.156 5.195-10.259 9.849-.131 5.961 5.376 10.455 9.947 10.347 5.799-.138 10.123-4.436 10.33-10.146.172-4.768-4.58-10.389-10.018-10.05"/>
    <path fill="#2b2321" d="M108.6781 51.2662h11.85v-3.775h2.963v-7.551h-2.963v-3.775h-14.812v3.775h-2.963v3.776h5.925v-3.776h8.888v7.551h-11.85v3.775h-2.963v7.55h2.963v3.775h11.85v-3.775h2.962v-3.775h-5.925v3.775h-5.925v-7.55zm23.6997 3.7749h14.813v-3.775h-11.851v-11.326h11.851v-3.774h-14.813v3.774h-2.962v11.326h2.962v3.775zm29.6242-.0001h8.888v-3.775h-8.888v3.775zm-2.963-18.875h-5.924v18.875h5.924v-3.775h2.963v-3.775h-2.963V36.166zm29.624 15.1h-5.925v-3.775h5.925v3.775zm-8.887 3.775h11.85v-3.775h2.963v-7.55h-11.85v-3.775h11.85v-3.775h-14.813v3.775h-2.962v11.325h2.962v3.775zm32.587-3.775h-5.925v-3.775h5.925v3.775zm-8.888 3.775h11.851v-3.775h2.962v-7.55h-11.85v-3.775h11.85v-3.775h-14.813v3.775h-2.962v11.325h2.962v3.775zm20.7373.0001h14.813v-3.775h2.962v-15.1h-5.925v15.1h-5.925v-15.1h-5.925v18.875z"/>
    <path d="M253.8368 51.2662h11.85v-3.775h2.963v-7.551h-2.963v-3.775h-14.812v3.775h-2.963v3.776h5.925v-3.776h8.888v7.551h-11.85v3.775h-2.963v7.55h2.963v3.775h11.85v-3.775h2.962v-3.775h-5.925v3.775h-5.925v-7.55zm20.7368 11.3252h5.925v-7.55h8.888v-3.775h2.962v-15.101h-5.925v15.101h-5.925v-15.101h-5.925v26.426zM310.123 51.266h-5.925V39.94h5.925v11.326zm2.963-15.1h-11.85v3.775h-2.963v11.325h2.963v3.775h11.85v-3.775h2.962V39.941h-2.962v-3.775zm8.8865 18.8751h2.962v7.55h5.925v-7.55h8.888v-3.775h-8.888v-11.326h8.888v-3.774h-11.85v3.774h-2.963v11.326h-2.962v3.775zm29.6241-7.5503h8.888v-3.775h2.962v-3.775h-2.962v-3.775h-14.813v3.775h11.85v3.775h-8.887v3.775h-2.963v3.775h2.963v3.775h14.812v-3.775h-11.85v-3.775z"/>
    <path fill="#a19795" d="M105.974 23.5802h1.452v-1.453h2.905v2.905h-1.452v1.453h4.358v-5.81h-7.263v1.452h-1.453v1.453h-1.452v4.357h1.452v1.453h1.453v1.453h7.263v-1.453h-5.811v-1.453h-1.452v-4.357zm15.978-.0002h-2.905v-1.453h2.905v1.453zm-4.358 1.452h4.358v1.453h-5.811v1.453h7.263v-1.453h1.453v-5.81h-7.263v1.453h-1.453v1.452h1.453v1.452zm10.1676 5.8109h4.357v-10.168h-2.904v8.715h-1.453v1.453zm7.2627 0h4.357v-10.168h-2.904v8.715h-1.453v1.453zm13.0737-4.3579h-2.905v-1.453h2.905v1.453zm-4.358 1.453h5.81v-1.453h1.453V23.58h-5.81v-1.452h5.81v-1.453h-7.263v1.453h-1.453v4.357h1.453v1.453zm14.525 0h4.358v-1.453h-4.358v1.453zm-1.452-7.263h-2.905v7.263h2.905v-1.453h1.452v-1.453h-1.452v-4.357zm10.1673-.0001h4.357v1.453h-4.357v1.452h-1.453v4.358h2.906v-4.358h2.904v4.358h2.906v-7.263h-1.453v-1.453h-5.81v1.453z"/>
    <path fill="#d50f2a" d="M362.2794 17.9215h-259.211l3.001-2.911h259.21l-3 2.911z"/>
    <path fill="#e5e2e1" d="M366.2072 13.6647h-259.211l3.001-2.911h259.21l-3 2.911z"/>
    <path fill="#fdfbfc" d="M52.2391 59.8387h-2.253c-.275 0-.5.225-.5.5v2.165c0 .275.225.5.5.5h2.253c.275 0 .5-.225.5-.5v-2.165c0-.275-.225-.5-.5-.5"/>
    <path fill="#e5e2e1" d="M22.698 42.3727H10.54c-.55 0-1 .45-1 1v3.876c0 .55.45 1 1 1h12.158c.55 0 1-.45 1-1v-3.876c0-.55-.45-1-1-1"/>
    <path fill="#d4102e" d="M15.006 45.474h-2.775v2.775h2.775v-2.775zm6.036 0h-2.775v2.775h2.775v-2.775z"/>
    <path fill="#d50f2a" d="M358.418 22.282h-6.338v3.191h6.338v-3.191zm15.794 0h-6.338v3.191h6.338v-3.191zM358.418 3.055h-6.338v3.191h6.338V3.055zm18.95 0h-9.301v3.191h9.301V3.055z"/>
    <path fill="#d50f2a" d="M374.3132 9.3013V.0003h-3.191v9.301h3.191zm-.002 9.8117h-3.191v6.338h3.191v-6.338zm-19.04-16.018h-3.191v6.338h3.191V3.095zm0 16.018h-3.191v6.338h3.191v-6.338zm19.04-4.221h-3.191v3.125h3.191v-3.125zm0-4.377h-3.191v3.125h3.191v-3.125zm-7.269 11.799h-3.191v3.125h3.191v-3.125zm-4.377 0h-3.191v3.125h3.191v-3.125z"/>
    <path fill="#e5e2e1" d="M355.271 15.011h-3.191v2.911h3.191v-2.911z"/>
    <path fill="#d50f2a" d="M355.271 10.754h-3.191v2.911h3.191v-2.911zm7.394-7.666h-3.191v3.125h3.191V3.088zm4.377 0h-3.191v3.125h3.191V3.088z"/>
  </g>
</svg>
