<svg xmlns="http://www.w3.org/2000/svg" width="400" height="484.50809">
  <defs>
    <clipPath id="a">
      <path d="M0 317.48h262.105V0H0v317.48z"/>
    </clipPath>
  </defs>
  <path fill="#565555" d="M390.51067 365.44284H9.3168768V115.9703H390.51067v249.47254z"/>
  <path d="M10.07993 364.67979h379.66616V116.73335H10.07993v247.94644zm381.1938 1.5261H8.55535V115.20725h382.71838v250.99864z"/>
  <path fill="#fff" d="M390.68312 85.463443H9.3168768V4.4012741H390.68312V85.463443z"/>
  <path d="M10.07993 84.70039h379.84014V5.1643271H10.07993V84.70039zm381.36625 1.526106H8.5538238V3.6382211H391.44618V86.226496z"/>
  <path fill="#fdd401" d="M390.68312 90.704091H9.3168768v-5.240648H390.68312v5.240648z"/>
  <path d="M10.07993 89.941038h379.84014v-3.714542H10.07993v3.714542zm381.36625 1.526106H8.5538238V84.70039H391.44618v6.766754z"/>
  <path fill="#fdd401" d="M390.68312 115.9703H9.3168768V90.704091H390.68312V115.9703z"/>
  <path d="M10.07993 115.20725h379.84014V91.467144H10.07993v23.740106zm381.36625 1.5261H8.5538238V89.941038H391.44618v26.792312z"/>
  <path fill="#fdd401" d="M390.51067 478.75621H9.3168768v-74.39767H390.51067v74.39767z"/>
  <path d="M10.07993 477.99315h379.66616v-72.87156H10.07993v72.87156zm381.1938 1.52611H8.55535v-75.92377h382.71838v75.92377z"/>
  <path fill="#232020" d="M26.474886 484.5081h23.439461v-5.75189H26.474886v5.75189zm323.275024 0h23.43946v-5.75189h-23.43946v5.75189z"/>
  <path fill="#fdd401" d="M390.51067 404.35854H9.3168768v-9.91969H390.51067v9.91969z"/>
  <path d="M10.07993 403.59549h379.66616v-8.39358H10.07993v8.39358zm381.1938 1.5261H8.55535V393.6758h382.71838v11.44579z"/>
  <path fill="#332f2f" d="M390.51067 394.43885H9.3168768v-28.99601H390.51067v28.99601z"/>
  <path d="M10.07993 393.6758h379.66616v-27.46991H10.07993v27.46991zm381.1938 1.52611H8.55535v-30.52212h382.71838v30.52212zm-45.3574-51.50608H53.738769V134.61932H345.91633v209.07651z"/>
  <path d="M54.501822 342.93278H345.15328V135.38237H54.501822v207.55041zm292.177558 1.5261H52.975716V133.85626H346.67938v210.60262z"/>
  <g clip-path="url(#a)" transform="matrix(1.5261059,0,0,-1.5261059,0,484.5081)">
    <path fill="#ea2200" d="M130.9567 264.9031h-71.913c-6.93 0-13.862.112-20.788-.055-2.819-.067-6.33 2.23-6.914 5.52-.105.591-.156 1.173-.156 1.77.004 10.395.003 20.79.003 31.185.001 3.385 2.548 6.284 5.892 6.759.792.112 1.578.154 2.374.154 61.319-.002 122.639-.002 183.958-.002 3.705 0 6.166-1.777 7.351-5.278.122-.362.155-.713.155-1.082-.001-10.594-.004-21.188.001-31.782.001-2.89-1.222-5.07-3.72-6.526-.883-.514-1.859-.658-2.859-.658-15.11-.004-30.219-.004-45.329-.005h-48.055"/>
    <path fill="#0c0303" d="M131.1325 267.2987h-92.094c-1.779 0-3.334.46-4.47 1.969-.886 1.176-.924 2.526-.928 3.882-.016 6.191-.021 12.381-.001 18.572.012 3.804-.082 7.608.066 11.412.103 2.64 1.952 4.486 4.607 4.556.255.006.511.003.766.003 61.396.001 122.792 0 184.187.006 1.843.001 3.362-.547 4.417-2.16.679-1.038.744-2.192.745-3.348.004-9.91-.014-19.82-.026-29.73-.001-.882-.047-1.734-.49-2.555-.906-1.683-2.317-2.574-4.175-2.577-21.099-.028-42.198-.025-63.298-.029-9.768-.002-19.537-.001-29.306-.001"/>
    <path fill="#fd8309" d="M131.0337 306.5562c30.732 0 61.463-.005 92.195.015 1.369.001 2.514-.316 3.373-1.42.635-.816.698-1.797.699-2.757.013-9.941.001-19.881-.001-29.822 0-1.628-.416-3.025-2.005-3.826-.447-.226-.917-.29-1.396-.332-.395-.034-.794-.045-1.191-.045-61.208-.001-122.416 0-183.623.001-.568 0-1.136-.025-1.693.133-1.551.441-2.606 1.778-2.607 3.391-.006 10.338.01 20.677-.007 31.015-.003 2.12 1.703 3.674 3.805 3.669 22.183-.045 44.365-.024 66.548-.022 8.634.001 17.269 0 25.903 0"/>
    <path fill="#040305" d="M114.3474 285.0088c.674-.476.002-.883-.139-1.226-.424-1.033-.476-1.011.565-1.469.234-.103.456-.246.699-.314.852-.239 1.218-.641.634-1.502-.283-.416.128-.546.4-.655 1.261-.505 1.185-.583.614-1.691-2.601-5.049-8.328-7.982-13.979-7.17-1.676.241-3.252.723-4.792 1.405-1.342.594-2.818.83-4.256 1.629.219-.766.525-1.311.877-1.828.322-.473.289-.7-.352-.687-.908.018-1.817-.006-2.726-.006-9.57-.001-19.14-.001-28.711-.001-.17 0-.341.008-.511.001-.55-.023-.759.138-.428.686.288.477.527.983.857 1.606-.997 0-1.866.02-2.733-.007-.527-.017-.698.168-.44.633.259.468.774 1.04.593 1.423-.225.476-.971.162-1.488.196-.617.041-.534.332-.332.715.436.827.859 1.662 1.315 2.479.234.421.261.615-.329.553-.534-.056-1.08-.061-1.616-.028-.585.035-.779-.159-.767-.771.041-2.1.023-4.202.019-6.303-.002-1.179-.009-1.18-1.147-1.181-3.521-.002-7.043.016-10.563-.021-.754-.008-1.052.228-.957.968.025.196-.017.4.007.596.066.541-.135.741-.703.754-1.459.034-1.484.06-1.53 1.508-.02.62-.298.75-.851.748-1.483-.004-1.48.016-1.48 1.497.001 7.98-.001 15.96.003 23.94.001.36-.096.743.155 1.071.146.121.322.09.489.09 4.369.001 8.738.001 13.107 0 .168 0 .343.028.493-.083 1.799-.187 3.499-.67 5.042-1.647.383-.243.766-.476 1.092-.8 2.379-2.366 4.894-4.618 6.429-7.832 1.938 3.65 3.831 7.213 5.723 10.776.26.312.52.643.788.007.316-.389.406-.931.875-1.291.157.276.303.531.466.818.825-.655 1.043-1.628 1.546-2.413.343-.536.521-.477.764.04.216.461.452.914.707 1.355.107.183.125.475.407.498.341.029.384-.301.498-.504 1.34-2.399 2.687-4.794 3.991-7.213 1.004-1.862 2.152-3.646 3.001-5.593.114-.259.355-.463.629-.671.085 1.67.317 3.276.902 4.811 1.85 4.856 5.306 7.926 10.339 9.181 3.685.919 7.182.291 10.561-1.367 1.507-.739 3.075-1.342 4.384-2.441 1.228-1.031 2.241-2.235 3.118-3.569.296-.45.307-.785-.252-.982-.628-.22-.455-.526-.166-.936.874-1.243.854-1.24-.508-1.997-1.73-.961-3.451-1.939-5.168-2.922-.176-.101-.486-.145-.426-.447.045-.227.305-.225.48-.303 1.083-.484 2.166-.964 3.25-1.446.503-.238 1.003-.485 1.531-.667"/>
    <path fill="#040205" d="M181.3685 301.3988c.333-.553.666-1.107 1.029-1.71.529.633.787 1.354 1.155 2.011.103.184.09.515.385.481.221-.025.336-.268.447-.474.825-1.519 1.666-3.03 2.492-4.549 2.002-3.68 3.998-7.363 6-11.042.171-.314.369-.614.552-.915.286.132.193.327.193.475-.005 5.736-.018 11.472-.019 17.209 0 .29-.162.73.175.837.298.094.479-.326.693-.543.355-.362.968-1.07 1.036-1.022.709.507.828-.254 1.102-.492.531-.461.971-1.026 1.456-1.542.113-.12.252-.215.53-.45v2.879c.088.044.175.087.263.131 1.98-2.158 3.96-4.316 5.981-6.518.277.399.072.789.192 1.122.164 1.468.065 2.942.054 4.412-.005.664.224.887.86.954 2.94.313 5.888.105 8.832.16.508.01.993-.192 1.507-.208.424-.013.623-.277.663-.726.127-1.436.142-1.437 1.494-1.693.45-.085.772-.311.648-.804-.117-.467-.503-.375-.832-.243-.329.131-.668.107-1.006.124-.916.046-1.177.206-1.171 1.083.008 1.149-.138 1.328-1.579 1.453-2.605.226-5.204-.289-7.813-.114-.398.027-.566-.25-.569-.595-.017-1.985-.039-3.971.011-5.956.003-.113.038-.225.092-.326.134-.242.241-.603.564-.539.313.062.198.425.2.661.014 1.39.022 2.781.001 4.17-.012.747.289 1.159 1.028 1.314.703.148 1.379.273 2.073-.067.389-.191.839-.078 1.261-.082 1.163-.011 2.327-.002 3.49-.005.283-.001.568.007.841-.09.205-.073.347-.204.339-.434-.008-.23-.165-.35-.369-.41-.276-.082-.562-.064-.845-.064-1.731-.004-3.461.003-5.192-.006-.33-.001-.69.09-.959-.205-.214-.338-.151-.717-.151-1.081-.005-2.865-.003-5.73-.003-8.596 0-.255.014-.511-.007-.765-.029-.357.048-.794-.397-.943-.389-.13-.624.186-.852.437-3.125 3.443-6.32 6.822-9.43 10.279-.164.182-.307.4-.578.458-.245-.295-.149-.619-.149-.916-.006-7.263-.005-14.526-.004-21.789 0-.367-.026-.739.126-1.089.259-.254.588-.184.892-.185 6.305-.004 12.61-.004 18.916-.004.432 0 .859.015 1.213.3.341.273.627.272.808-.155.18-.426.224-.859-.316-1.058-.316-.117-.663-.166-1.004-.155-5.593.175-11.187.029-16.78.075-.142.001-.285.001-.426-.012-.304-.028-.574-.124-.588-.484-.011-.317.169-.538.461-.647.327-.123.674-.076 1.013-.077 5.908-.003 11.815-.001 17.723-.003.368 0 .741.032 1.103-.06.26-.066.492-.201.47-.514-.022-.305-.225-.434-.526-.428-.199.003-.397-.002-.596-.002-24.71 0-49.42.002-74.13-.008-.547-.001-1.067.117-1.598.191-.337.047-.589.196-.623.58-.024.259-.053.549.168.71.294.213.598.099.844-.141.315-.307.706-.326 1.11-.326 6.959-.001 13.917-.002 20.876.002.282 0 .578-.026.827.142.337.228.436.464-.039.654-.482.064-.964.047-1.446.047-7.089-.003-14.178.009-21.266-.009-.456-.096-.859-.101-1.26.258-.438.394-1.033.173-1.557.192-.995.036-1.041.065-1.05 1.076-.012 1.266-.012 1.29-1.353 1.307-.58.008-.788.194-.787.793.016 8.449.009 16.897.017 25.345 0 .385-.126 1.052.631.47.266-.253.527-.511.798-.758.217-.197.433-.586.627.05.062.201.213.177.569-.175.658-.651 1.294-1.325 1.999-2.052.431 1.013-.081 1.977.366 3.129 1.144-1.204 2.174-2.315 3.232-3.398 2.017-2.065 4.059-4.107 6.07-6.179.49-.504.776-.271 1.158.124 3.304 3.419 6.622 6.823 9.935 10.233.156.16.3.332.527.584.366-1.068.013-2.06.229-3.053.52.227.715.797 1.335.923 0-.629-.009-1.214.005-1.799.005-.182-.07-.437.18-.511.189-.056.286.147.4.263.476.484.947.973 1.42 1.461.118.122.237.295.418.248.271-.069.163-.327.164-.503.009-2.385.007-4.769.008-7.154.001-2.981.002-5.961.005-8.942 0-.219.023-.438.043-.788.515.382.637.889.857 1.303 2.894 5.45 5.767 10.911 8.654 16.365.219.413.354 1.101.826 1.078.439-.022.653-.669.906-1.092.135-.224.203-.804.637-.218.794.489.755-.367 1.065-.66"/>
    <path fill="#0c0308" d="M208.2575 299.3169c.242.298.579.174.875.176 1.985.011 3.971-.003 5.957.015.267.003.765-.188.749.26-.015.415-.506.227-.783.232-1.304.021-2.609.007-3.914.01-.504.002-.973.042-1.475.249-.733.302-1.501-.017-2.219-.284-.317-.119-.211-.434-.212-.673-.008-1.588.002-3.177-.011-4.765-.002-.264.152-.633-.178-.766-.364-.147-.529.244-.745.444-.303.281-.441.641-.439 1.065.007 1.986.021 3.972-.01 5.957-.008.533.261.8.684.745 2.464-.322 4.911.254 7.372.091.622-.041 1.229-.168 1.85-.195.347-.015.494-.232.5-.563.001-.085 0-.17.004-.255.066-1.459.066-1.461 1.536-1.559.201-.014.394-.023.564-.151.158-.119.34-.27.519-.08.077.081.088.264.066.39-.038.222-.212.313-.431.339-1.521.175-1.566.22-1.741 1.876-.029.278-.062.471-.409.522-1.269.185-2.524.423-3.825.352-1.272-.07-2.559-.097-3.826.01-1.098.092-2.08-.463-3.159-.384-.419.03-.369-.347-.37-.623-.004-1.22.003-2.44-.006-3.659-.002-.273.092-.574-.15-.806-.018 1.646-.026 3.293-.059 4.939-.01.458.123.664.623.662 3.635-.016 7.271-.018 10.906-.002.497.002.666-.194.636-.651-.01-.142-.003-.284-.003-.426-.003-1.307-.002-1.343 1.264-1.311.711.018.995-.219.895-.927-.035-.251.005-.511-.007-.766-.02-.428.168-.628.603-.617.454.012.91-.025 1.363.002.602.035.777-.237.777-.813-.014-8.351-.016-16.701.001-25.051.002-.685-.305-.788-.883-.787-7.611.013-15.223.01-22.835.01-18.12 0-36.24.002-54.361-.017-.687 0-.931.235-.881.877.013.169-.004.342.017.51.081.64-.131.987-.836.864-.028-.005-.057 0-.085 0-1.755.015-1.772.014-1.842 1.712-.02.468-.147.627-.635.639-1.485.037-1.489.061-1.489 1.563-.002 8.293-.001 16.586-.001 24.88 0 .056-.007.114.001.17.035.239-.101.607.164.68.302.084.472-.229.572-.507-.293.102-.573.187-.554-.299.01-.227 0-.454 0-.681v-24.029c0-1.415.585-1.816 1.973-1.351.167.056.308.346.505.117.147-.172.028-.356-.088-.536-.351-.546-.133-1.156-.147-1.737-.006-.252.228-.288.437-.295.858-.026 1.75.164 2.508-.479.105-.089.422.072.641.117.331-.584.838-.746 1.494-.744 6.695.014 13.389.015 20.084-.002.64-.001 1.089.19 1.376.756.688-.454.698-.842.054-1.224-.296-.176-.604-.129-.91-.129-7.014-.004-14.028-.001-21.042-.006-.492 0-.973-.033-1.265.484-.116.205-.32.239-.517.132-.216-.119-.15-.346-.153-.537-.005-.224.088-.352.331-.412.843-.207 1.678-.358 2.564-.357 24.392.018 48.785.013 73.178.027.396.001 1.131-.281 1.117.353-.013.6-.739.297-1.131.298-6.077.021-12.154.015-18.231.015-.227 0-.455-.014-.681.005-.637.055-.891.513-.888 1.051.003.533.437.652.913.652 5.509-.005 11.018-.007 16.527.005.362.001.691-.143 1.084-.061 1 .209 1.009.167.567 1.225-.344-.553-.851-.667-1.431-.666-6.559.007-13.119.003-19.679.01-.281 0-.665-.141-.732.345.44.361.968.263 1.468.263 5.998.007 11.997.004 17.995.006.423.001.85-.039 1.259.103.358.211.334.56.334.902.001 7.277 0 14.553 0 21.83 0 .312.025.631-.267.85-.348.176-.723.131-1.089.132-2.354.004-4.709-.002-7.064.006-.42.001-.859-.05-1.218.258"/>
    <path fill="#040204" d="M129.6955 281.8031c-1.873.001-3.747.027-5.619-.012-.698-.015-1.018.179-.895.911.037.221-.011.455.012.68.059.559-.199.728-.736.751-1.575.068-1.608.087-1.603 1.678.002.65-.219.807-.834.8-1.429-.015-1.426.016-1.422 1.455.004 1.56.026 3.122-.01 4.682-.013.577.128.79.746.786 3.831-.025 7.663-.023 11.494-.001.588.004.859-.157.757-.765-.009-.056-.005-.114-.003-.17.052-1.675-.318-1.534 1.544-1.518.548.005.661-.173.681-.668.064-1.635.081-1.659 1.693-1.668.527-.003.68-.158.672-.676-.026-1.873-.028-3.747.005-5.619.01-.55-.195-.663-.693-.657-1.929.024-3.859.01-5.789.011"/>
    <path fill="#5a2304" d="M181.3685 301.3988c-.354.221-.456.85-1.065.66.016.232.083.46.332.506.279.051.355-.216.453-.402.127-.24.29-.472.28-.764"/>
    <path fill="#5d2702" d="M114.3474 285.0088c-.606.002-1.094.278-1.531.667.572-.081 1.082-.305 1.531-.667"/>
    <path fill="#040305" d="M73.4187 303.0676c-.266.355-.526.103-.788-.007.071.255.104.611.432.584.224-.019.366-.301.356-.577"/>
    <path fill="#fdd401" d="M101.2069 287.0503c1.814-.797 3.571-1.572 5.331-2.341 2.645-1.156 5.285-2.322 7.941-3.452.617-.262.444-.579.214-.978-2.402-4.172-8.029-6.944-12.825-6.312-6.579.866-11.149 5.203-11.984 11.776-.552 4.344.947 8.135 4.187 11.139 5.198 4.818 13.435 4.717 18.513-.206.506-.49.918-1.076 1.395-1.597.364-.397.315-.643-.167-.901-1.546-.825-3.074-1.685-4.612-2.524-2.411-1.316-4.825-2.626-7.236-3.94-.272-.148-.545-.297-.757-.664m-57.7015.0727c-.001 3.718.018 7.436-.016 11.153-.007.714.21.898.907.893 3.973-.033 7.948.049 11.919-.038 3.735-.081 7.726-2.358 8.225-6.684.637-5.528-2.78-9.172-8.015-9.433-.707-.035-1.421-.045-2.127 0-.648.04-.884-.148-.868-.845.05-2.042.016-4.086.022-6.13.003-1.122.009-1.147-1.083-1.152-2.695-.014-5.391.016-8.087-.013-.701-.008-.941.218-.922.927.05 1.9.039 3.802.044 5.703.006 1.873.002 3.746.001 5.619m31.4544 13.2316c2.949-5.317 5.863-10.572 8.778-15.828 1.607-2.897 3.217-5.794 4.822-8.693.526-.951.506-.976-.524-.975-8.287.002-16.574.003-24.861.005-1.71.001-1.73.013-.923 1.545 4.133 7.849 8.276 15.692 12.417 23.536.063.118.156.221.291.41"/>
    <path fill="#381374" d="M79.2372 298.297c.827-1.494 1.661-2.985 2.481-4.484.935-1.712 1.84-3.441 2.791-5.145 1.333-2.389 2.763-4.728 4.021-7.156.778-1.501 1.714-2.913 2.43-4.441.577-1.233 1.34-2.355 1.983-3.548.341-.634.26-.814-.478-.807-2.697.026-5.395.004-8.093.004-6.474.001-12.948.001-19.422.016-.313.001-.832-.23-.845.386-.012.549.347.655.858.654 8.292-.018 16.583-.015 24.875-.017 1.024 0 1.077.073.604.981-1.494 2.87-3.12 5.669-4.665 8.513-1.601 2.946-3.295 5.842-4.864 8.808-.99 1.872-2.069 3.696-3.111 5.539-.185.327-.338.657-.261 1.047.126.12.183.278.254.434.231.502.632.55.919.088.178-.287.337-.588.523-.872"/>
    <path fill="#fbfbfb" d="M42.449 300.1601c-.016-.822-.045-1.645-.045-2.467-.003-6.559.004-13.118-.009-19.678 0-.305.235-.766-.389-.852-.655-.089-.8.17-.798.792.018 7.099.007 14.198.006 21.296-.001 2.164.001 2.164 2.148 2.164 3.379 0 6.758-.017 10.137.008 1.313.01 2.567-.188 3.764-.731.092-.098.301-.062.314-.237.015-.211-.169-.176-.294-.184-.198-.012-.396-.004-.595-.004-4.445 0-8.889.002-13.334-.005-.301-.001-.624.104-.905-.102"/>
    <path fill="#381374" d="M65.958 286.3727c-.682-2.553-2.242-4.287-4.771-5.118-.403-.335-.969.009-1.371-.33h-.083l-.084-.004c-.847-.353-1.733-.112-2.6-.16-.885-.049-.842-.018-.826-.884.042-2.183.011-4.366.017-6.55.002-.545-.248-.756-.779-.755-2.948.003-5.897 0-8.846.002-.328.001-.614.046-.777.39-.153.325-.17.597.181.798 2.64.002 5.281.02 7.922-.005.597-.005.783.185.775.778-.028 2.101-.017 4.202-.007 6.303.005 1.039.089 1.154 1.126 1.092 2.026-.121 3.899.314 5.641 1.351 1.876 1.119 3.082 2.764 3.803 4.796.125.287.211.588.245.897.028.251-.027.571.344.561.433-.012.34-.38.335-.644-.019-.845-.176-1.677-.245-2.518"/>
    <path fill="#fbfbfb" d="M98.0239 300.6526c-2.779-1.205-5.165-2.905-6.869-5.463-2.398-3.597-3.026-7.5-2.026-11.685.045-.191.1-.379.141-.571.01-.048-.016-.104-.027-.157-1.512 1.663-1.848 3.672-1.745 5.823.273 5.699 4.022 10.546 9.468 12.215.107.033.222.037.334.055.267.014.622.32.724-.217"/>
    <path fill="#371373" d="M102.0901 272.7497c.79.091 1.58-.262 2.371 0 .525.361 1.194-.045 1.717.323 1.256.341 2.519.664 3.672 1.292 1.907 1.039 3.601 2.331 4.925 4.081.228.302.575.68.99.341.337-.275.04-.636-.128-.913-1.488-2.462-3.671-4.05-6.304-5.133-2.029-.835-4.122-.707-6.224-.667-.356.274-.848.043-1.201.324-.055-.001-.11.002-.164.008-.137.368-.003.464.346.344"/>
    <path fill="#f9f9f9" d="M73.0097 301.3267c.562-.537.612-.996.269-1.635-1.852-3.443-3.652-6.914-5.48-10.37-.084-.159-.138-.373-.382-.441-.246 1.037-.028 1.948.481 2.881 1.656 3.032 3.245 6.102 4.861 9.157.065.122.145.237.251.408"/>
    <path fill="#381272" d="M104.2964 287.7401c2.564 1.201 4.947 2.733 7.456 4.035.51.265.933.739 1.57.743.45.304.62-.122.872-.335l.002-.006c.14-.27.009-.456-.24-.484-.377-.041-.558-.323-.805-.531-1.699-.917-3.399-1.833-5.098-2.75-.395-.146-.669-.475-1.029-.673-.221-.276-.635-.062-.856-.336-.165-.121-.33-.241-.495-.362-.324-.2-.663-.248-1.042-.17-.661.135-.702.218-.335.869"/>
    <path fill="#f6f6f6" d="M106.3971 286c.775.857 1.506.707 2.35.283 1.286-.645 2.626-1.184 3.953-1.743.366-.155.507-.339.29-.698-.168-.277-.262-.641-.75-.422-1.925.865-3.861 1.707-5.843 2.58"/>
    <path fill="#17032d" d="M46.0187 273.7614c-.237-.81-.12-1.015.652-1.017 2.888-.009 5.776.013 8.664-.015.631-.006.758.251.741.807-.071 2.259.127 4.522-.102 6.78-.049.48.264.619.703.612.991-.015 1.982-.006 2.973-.008-.064-.42-.395-.33-.662-.333-.708-.01-1.416-.019-2.123-.001-.434.011-.513-.085-.499-.574.066-2.263.039-4.529.042-6.793 0-.562-.305-.819-.854-.818-3.058.001-6.116.008-9.173-.005-.633-.003-.709.483-.84.891-.121.377.13.504.478.474"/>
    <path fill="#f0f0f0" d="M60.1549 277.2008c1.023 1.337 1.071 3.16 3.143 3.646-.658-1.264-1.203-2.384-1.822-3.46-.236-.412-.714-.166-1.321-.186"/>
    <path fill="#fbfbfb" d="M42.449 300.1601c.145.383.482.229.731.229 4.619.001 9.238-.013 13.857-.009.111 0 .378-.244.38.122.001.063-.1.127-.154.19.525.039.86-.314 1.335-.59-.516-.21-.899.054-1.299.059-4.95.069-9.9.066-14.85-.001"/>
    <path fill="#381374" d="M65.958 286.3727c-.108.849.124 1.677.155 2.517.007.184.064.456-.198.491-.362.049-.282-.273-.293-.474-.017-.322-.088-.611-.343-.83.114.892.231 1.784.338 2.676.027.222.09.388.352.374.205-.012.307-.139.308-.331.01-1.482.135-2.974-.319-4.423"/>
    <path fill="#1a0536" d="M79.2372 298.297c-.069.046-.15.081-.204.141-.768.857-.767.858-1.492.209.182.468.043 1.235.699 1.291.678.057.616-.732.85-1.167.076-.144.099-.315.147-.474"/>
    <path fill="#240847" d="M102.0901 272.7497c-.205-.024-.347-.113-.346-.344-.658-.118-1.202.161-1.723.576.693-.04 1.425.451 2.069-.232"/>
    <path fill="#fbfbfb" d="M98.0239 300.6526c-.16.343-.488.126-.724.217.897.472 1.87.489 2.888.344-.721-.187-1.443-.374-2.164-.561"/>
    <path fill="#1a053b" d="M104.2964 287.7401c-.191-.467-.07-.692.466-.771.328-.049.601.169.911.072-.346-.331-1.545-.506-1.8-.208-.473.554-.077.77.423.907"/>
    <path fill="#fbfbfb" d="M92.1974 277.6829c.491-.666.983-1.332 1.474-1.998-.908.221-1.193 1.017-1.635 1.664-.14.205-.121.333.161.334"/>
    <path fill="#25094d" d="M113.1518 291.1617c.073.371.192.692.664.674.231-.009.348.123.38.342.229-.245.271-.491-.069-.653-.312-.149-.649-.244-.975-.363"/>
    <path fill="#fbfbfb" d="M92.1974 277.6829c-.054-.111-.107-.223-.161-.334-.427.426-.577.998-.772 1.561.434-.312.741-.723.933-1.227"/>
    <path fill="#240847" d="M106.1785 273.0722c-.464-.685-1.152-.178-1.718-.323.479.607 1.142.234 1.718.323"/>
    <path fill="#17032d" d="M59.8162 280.9249c.35.554.903.267 1.371.33-.325-.658-.915-.215-1.371-.33"/>
    <path fill="#20063c" d="M107.0241 287.7394c.232.394.459.795 1.029.673-.26-.352-.504-.728-1.029-.673"/>
    <path fill="#240847" d="M101.9077 272.3972c.42-.034.907.179 1.202-.324-.424.023-.91-.187-1.202.324"/>
    <path fill="#25094d" d="M114.1947 292.183c-.338-.011-.5.435-.873.335.592.673.725.15.873-.335"/>
    <path fill="#20063c" d="M106.1683 287.403c.12.533.55.275.856.336-.116-.544-.549-.28-.856-.336"/>
    <path fill="#fdd401" d="M208.2575 299.3169c3.233-.005 6.466-.009 9.699-.014.169-.26.088-.552.088-.828.005-7.502.006-15.004-.001-22.507-.001-.35.135-.749-.232-1.024-2.178-.019-4.357-.051-6.536-.055-4.446-.009-8.893-.004-13.34.001-.365.001-.731.051-1.096.077-.006 7.323-.012 14.646-.017 21.969-.001.838 0 1.675 0 2.66.909-.599 1.429-1.348 2.031-1.997 2.924-3.154 5.819-6.336 8.724-9.508.131-.144.244-.389.454-.336.304.076.17.382.171.58.011 3.236.007 6.471.011 9.707.001.425.029.85.044 1.275m-66.7642.2765c1.532-1.471 3.06-2.894 4.537-4.367 2.166-2.16 4.308-4.343 6.43-6.546.428-.445.669-.511 1.135-.033 3.261 3.351 6.552 6.672 9.833 10.003.353.358.701.721 1.229 1.265v-2.654c0-7.184-.008-14.367.015-21.551.002-.681-.212-.876-.87-.873-6.899.028-13.798.033-20.696.044-.341.001-.683.022-1.022.004-.457-.023-.651.131-.65.631.016 7.922.015 15.843.02 23.765 0 .108.026.215.039.312m39.326-24.7295c-4.229 0-8.459.001-12.688-.001-.9 0-.928.047-.497.863 4.182 7.911 8.362 15.823 12.548 23.731.128.241.174.647.466.654.333.009.435-.392.572-.657 1.596-3.086 3.259-6.138 4.936-9.178 2.526-4.58 4.957-9.212 7.551-13.755.924-1.617.934-1.628-.883-1.633-4.002-.011-8.003-.004-12.005-.004v-.02"/>
    <path fill="#3b1477" d="M185.9256 293.1908c-.681 1.25-1.363 2.5-2.044 3.75-.583.728-.857 1.502-.347 2.389v.004c.184.186.273.573.667.314 1.264-2.32 2.546-4.63 3.786-6.962.917-1.725 1.856-3.442 2.813-5.137 1.491-2.642 2.809-5.372 4.319-8 .723-.81.579-1.787.5-2.738-.033-.394-.273-.548-.654-.313-.122.332-.245.663-.367.995-.706 1.126-1.374 2.273-2.015 3.436-.964 1.834-2.047 3.602-2.938 5.479-.669 1.411-1.494 2.747-2.247 4.119-.107.196-.197.402-.294.604-.484.634-.693 1.426-1.179 2.06"/>
    <path fill="#381375" d="M165.8336 275.4819c-.008 7.373 0 14.746-.044 22.118-.005.857.609 1.159 1.071 1.582.293.269.324-.154.326-.35.014-.987.009-1.974.009-2.96.001-4.963-.015-9.925.02-14.888.005-.73-.06-1.463-.005-2.186.078-1.036-.162-1.957-.709-2.819-.219-.171-.143-.738-.668-.497"/>
    <path fill="#381270" d="M184.1289 272.7233c-4.483-.001-8.966-.007-13.45.012-.326.001-.915-.255-.901.405.011.523.456.632.933.631 8.966-.004 17.932-.001 26.899-.004.248 0 .52.06.724-.152.172-.178.42-.331.326-.638-.089-.292-.356-.241-.571-.242-1.787-.009-3.575-.01-5.362-.011-2.866-.001-5.732 0-8.598-.001"/>
    <path fill="#fbfbfb" d="M178.7621 301.4211c.429-.561.681-.962.34-1.602-3.447-6.478-6.866-12.972-10.293-19.46-.064-.121-.141-.235-.304-.338-.094.753-.276 1.496.112 2.23 2.721 5.149 5.437 10.3 8.158 15.45.643 1.217 1.296 2.428 1.987 3.72"/>
    <path fill="#f4f4f5" d="M139.2832 300.89c.69-.446 1.046-.853 1.045-1.569-.014-7.065-.003-14.13-.023-21.195 0-.311.264-.866-.433-.897-.357-.016-.62.042-.593.493.02.339.009.68.009 1.021-.002 6.951-.003 13.903-.005 20.854v1.293"/>
    <path fill="#37126f" d="M167.1648 273.7567c.198-.851-.183-1.041-.989-1.038-6.992.027-13.984.025-20.976-.002-.797-.003-1.093.27-.989 1.031 7.651.003 15.303.006 22.954.009"/>
    <path fill="#38126f" d="M144.31 300.2863c.261.023.327-.104.411-.22 1.268-1.744 3.005-3.03 4.482-4.571 1.45-1.514 2.926-3.004 4.404-4.492.291-.293.264-.562.002-.799-.249-.224-.477-.559-.901-.128-.991 1.008-2.055 1.944-3.051 2.948-1.245 1.255-2.453 2.549-3.676 3.827-.505.529-1.006 1.061-1.512 1.589-.486.508-.258 1.119-.246 1.698.002.07.081.139.087.148"/>
    <path fill="#fcfbfb" d="M195.5263 281.3608c-.398.663-.822 1.237-.818 2.071.028 5.594.014 11.187.017 16.781 0 .247-.045.505.131.798.488-.374.86-.745.859-1.43-.015-5.821-.008-11.641-.018-17.462-.001-.23.107-.503-.171-.758"/>
    <path fill="#fafafa" d="M163.1553 301.6483c.186-.971.074-1.654-.602-2.321-2.483-2.447-4.903-4.957-7.339-7.45-.259-.264-.47-.519-.816-.113-.241.283-.498.475-.092.886 2.845 2.885 5.663 5.798 8.491 8.7.077.078.168.141.358.298"/>
    <path fill="#361272" d="M207.0272 290.4412c-2.211 2.393-4.284 4.673-6.406 6.906-.48.506-.97.935-.875 1.702.023.183-.105.435.142.526.216.079.382-.135.502-.255.677-.672 1.35-1.352 1.975-2.072 1.414-1.63 2.857-3.234 4.363-4.779.574-.588.269-1.244.299-2.028"/>
    <path fill="#1f0741" d="M194.9659 276.4975c.728-.019.608.594.586.952-.043.709-.087 1.442-.433 2.099.521-.26.686-.717.69-1.259.004-.736.01-1.472.002-2.208-.002-.21.093-.507-.211-.569-.29-.059-.345.243-.442.432-.088.172-.13.368-.192.553"/>
    <path fill="#260845" d="M192.5832 280.929c.054-.014.143-.012.156-.043.5-1.197 1.562-2.086 1.859-3.393-1.032.934-1.515 2.19-2.015 3.436"/>
    <path fill="#1c063e" d="M183.5349 299.33c-.254-.85.001-1.626.346-2.39-.99.857-1.061 1.345-.346 2.39"/>
    <path fill="#230846" d="M185.9256 293.1908c.696-.513.905-1.305 1.179-2.06-.729.495-.891 1.314-1.179 2.06"/>
    <path fill="#1f0741" d="M165.8336 275.4819c.36-.019.368.436.668.497.052-.456-.329-.731-.446-1.128-.366.132-.197.413-.222.631"/>
    <path fill="#1c063e" d="M184.2012 299.6479c-.288.034-.37-.366-.666-.314-.127.298-.078.548.253.643.247.071.432-.023.413-.329"/>
    <path fill="#381272" d="M220.8614 284.7525c.001-3.69-.016-7.379.016-11.068.006-.722-.158-.973-.938-.97-6.272.032-12.544.015-18.816.013-.199 0-.398.004-.596.008-.441.01-.596.305-.598.675-.002.442.368.356.63.357 2.356.005 4.711-.003 7.067-.003 3.519 0 7.039.001 10.558.005 1.083.001 1.137.047 1.137 1.171.001 6.811-.004 13.623-.007 20.434 0 .256.024.514-.004.766-.069.625.174.846.816.842.629-.004.746-.265.743-.821-.018-3.803-.009-7.606-.008-11.409"/>
    <path fill="#fafafa" d="M207.0624 293.9044c-.827.516-1.029 1.121-1.008 1.905.047 1.73.03 3.463.008 5.194-.006.512.077.767.688.761 2.867-.03 5.735-.019 8.602-.001.455.003.679-.089.671-.603-.008-.491-.132-.695-.676-.689-2.498.026-4.996-.012-7.494.024-.642.009-.821-.171-.806-.81.042-1.89.015-3.781.015-5.781"/>
    <path fill="#040205" d="M221.7145 284.3224v-11.23c0-.198-.002-.397-.004-.595-.003-.216-.056-.399-.32-.41-.26-.012-.343.151-.351.376-.005.17-.005.34-.005.51v22.545c0 .085.002.17-.001.255-.012.324-.02.685.422.678.502-.008.245-.432.246-.644.018-3.828.013-7.657.013-11.485"/>
    <path fill="#e2cd4f" d="M217.8115 274.9438c.154.316.152.653.152.994-.004 7.789-.005 15.577-.007 23.365.354-.176.174-.499.174-.745.011-7.611.013-15.222-.007-22.833-.001-.254.293-.729-.312-.781"/>
    <path fill="#fdd401" d="M127.3421 285.2095c-1.53 0-3.06.019-4.589-.01-.57-.011-.821.14-.796.76.042 1.075.028 2.153.001 3.229-.013.525.124.759.71.754 3.116-.024 6.233-.017 9.349-.002.495.003.72-.132.707-.669-.027-1.133-.024-2.267.007-3.399.016-.545-.23-.671-.714-.666-1.558.018-3.117.007-4.675.007v-.004z"/>
    <path fill="#f7f7f7" d="M125.1848 292.4457c1.531 0 3.062-.022 4.591.012.566.012.729-.176.717-.728-.012-.563-.208-.721-.762-.714-2.72.031-5.441.005-8.162.041-.6.007-.793-.172-.75-.764.049-.676.003-1.36.016-2.04.005-.321-.032-.547-.446-.529-.363.016-.689.003-.686.509.008 1.247-.001 2.494 0 3.741 0 .517.377.474.72.474 1.588.001 3.175.001 4.762.001v-.003z"/>
    <path fill="#331068" d="M129.0102 282.9602c-1.36 0-2.719-.006-4.079.005-.288.002-.693-.092-.67.405.018.37.194.594.626.652 1.862.251 3.727.183 5.586.06.849-.057 1.694-.055 2.54-.063.525-.004.769.298.773.805.005.652.01 1.303-.001 1.955-.008.468.087.908.633.92.559.012.69-.536.673-.91-.037-.788-.112-1.574-.107-2.366.009-1.604-.092-1.621-1.728-1.506-1.409.099-2.83.021-4.246.021v.022"/>
    <path fill="#0a0505" d="M110.0786 280.244c-2.389 1.061-4.776 2.125-7.169 3.178-.392.173-.789.269-.49.859.291.572.619.281.976.126 2.673-1.167 5.351-2.324 8.023-3.494.969-.424 1.002-.556.316-1.386-2.17-2.626-5.059-3.702-8.373-3.851-.403-.018-.551.142-.565.543-.016.451.181.591.601.609 1.74.076 3.414.41 4.951 1.286.57.325 1.109.683 1.579 1.141.137.317.847.545.151.989"/>
    <path fill="#0d0804" d="M102.8737 289.6803c-.325.018-.408.292-.519.503-.134.254-.083.461.214.62 2.658 1.429 5.309 2.872 7.962 4.31.265.144.459.127.626-.174.197-.356.219-.646-.168-.86-.693-.382-1.395-.748-2.09-1.127-1.858-1.013-3.715-2.029-5.573-3.043-.149-.081-.303-.154-.452-.229"/>
    <path fill="#cbad29" d="M110.0786 280.244c.709-.284.709-.284-.151-.989-.006.338.538.592.151.989"/>
    <path fill="#080403" d="M52.0084 280.3738c0-1.106-.018-2.213.008-3.319.012-.49-.104-.709-.656-.696-1.559.035-3.12.023-4.68.007-.441-.005-.678.082-.683.597-.006.588.355.529.731.528 1.163-.001 2.326.025 3.489-.002.556-.012.736.205.731.745-.02 2.127.01 4.255-.021 6.382-.01.669.135.934.89.928 1.727-.015 3.469-.175 5.181.136 2.201.399 4.052 1.315 4.748 3.68.095.322.141.661.186.996.054.404.155.689.677.649.543-.041.453-.4.454-.727.001-2.18-1.636-4.315-4-5.211-1.675-.634-3.42-.724-5.189-.681-1.861.046-1.862.022-1.866-1.799-.001-.738 0-1.475 0-2.213"/>
    <path fill="#0f0b06" d="M54.9657 287.7187c1.332-.037 2.433.569 3.067 1.912.23.489.533.5.952.314.51-.226.236-.542.095-.829-.855-1.752-2.591-2.717-4.583-2.511-.33.034-.881-.089-.828.56.048.58.425.655.905.556.081-.016.169-.002.392-.002"/>
    <path fill="#150f06" d="M54.8225 292.4752c.585 0 1.127-.537 1.139-1.13.012-.597-.507-1.149-1.101-1.171-.623-.023-1.197.548-1.18 1.174.016.607.543 1.127 1.142 1.127"/>
    <path fill="#0c0604" d="M86.3065 276.4868c-2.329 0-4.476.002-6.623-.002-.321-.001-.458.119-.429.458.031.363.05.659.553.648 1.217-.025 2.434-.019 3.651-.004.863.01.914.109.521.865-.482.928-.961 1.858-1.457 2.778-.181.337-.282.589.163.826.387.205.613.161.813-.223.9-1.725 1.809-3.445 2.808-5.346"/>
    <path fill="#080505" d="M75.0125 283.6597c-1.004-.014-1.869.802-1.898 1.79-.027.942.795 1.78 1.78 1.812 1.019.034 1.879-.781 1.884-1.784.005-.974-.802-1.804-1.766-1.818"/>
    <path fill="#120b06" d="M75.0234 280.8049c-.127.678-.016 1.087.83 1.195 1.028.132 1.822.746 2.188 1.763.172.48.419.607.886.433.555-.207.31-.57.191-.897-.247-.68-.735-1.188-1.245-1.676-.408-.323-.887-.503-1.364-.688l.004.001c-.493-.089-.966-.398-1.49-.131"/>
    <path fill="#a58f1d" d="M75.0234 280.8049c.496.044.993.087 1.489.131-.475-.286-.949-.581-1.489-.131"/>
    <path fill="#a58f1d" d="M76.5092 280.9348c.408.322.885.507 1.364.688-.326-.484-.796-.683-1.364-.688"/>
    <path fill="#0a0403" d="M213.3656 276.4883c-.908 0-1.816.01-2.724-.005-.367-.006-.589.051-.557.507.028.405.114.61.586.6 1.362-.028 2.725.013 4.086-.019.547-.013.758.147.741.717-.032 1.076.015 2.155 0 3.233-.006.404.057.636.541.64.466.004.578-.192.574-.61-.014-1.504-.019-3.008.002-4.512.007-.467-.194-.572-.611-.562-.879.021-1.759.006-2.638.006v.005zm-53.5104-.003c-.906.001-1.811.008-2.717-.003-.317-.004-.538.014-.532.435.005.387.043.662.523.659 1.188-.007 2.377.003 3.566.006 1.553.004 1.324-.083 1.352 1.384.015.849.011 1.699.002 2.547-.004.39.071.642.552.639.493-.002.546-.282.543-.658-.009-1.47-.042-2.941-.004-4.41.014-.544-.226-.61-.653-.603-.877.013-1.755.003-2.632.004"/>
    <path fill="#0d0803" d="M188.2862 276.5249c-.88 0-1.761.019-2.641-.008-.433-.013-.611.126-.62.57-.009.461.194.583.616.576 1.107-.019 2.215-.005 3.322-.01.959-.005.96-.009.579.825-.423.928-.834 1.862-1.278 2.78-.196.406-.184.672.266.887.484.233.617-.119.759-.413.699-1.457 1.377-2.924 2.072-4.383.27-.566.264-.888-.52-.84-.848.052-1.703.011-2.555.011v.005z"/>
    <path fill="#060504" d="M178.9039 285.5143c.012 1.073.757 1.793 1.841 1.779 1.019-.013 1.768-.764 1.763-1.769-.005-.99-.802-1.817-1.755-1.82-1.029-.004-1.86.81-1.849 1.81"/>
    <path fill="#14100a" d="M181.3122 280.8261c-.291-.027-.52.059-.536.386-.016.302-.07.683.36.738 1.345.173 2.311.803 2.796 2.118.146.397.508.235.809.159.348-.089.329-.299.249-.583-.407-1.44-2.182-2.808-3.678-2.818"/>
    <path fill="#fcfb01" d="M143.3099 112.272c-.771-1.535-2.641-2.155-4.176-1.384-1.536.771-2.155 2.641-1.384 4.176.771 1.536 2.641 2.155 4.176 1.384.604-.303 1.093-.795 1.392-1.4l-2.788-1.38 2.78-1.396zm-51.4414-7.4448l-2.788 1.38c.3.605.788 1.097 1.392 1.4 1.536.771 3.406.152 4.177-1.384.771-1.535.151-3.405-1.384-4.176-1.536-.771-3.406-.152-4.177 1.384l2.78 1.396z"/>
    <path fill="#fcfb01" d="M91.8685 104.8272l-2.788 1.38c.3.605.788 1.097 1.392 1.4 1.536.771 3.406.152 4.177-1.384.771-1.535.151-3.405-1.384-4.176-1.536-.771-3.406-.152-4.177 1.384l2.78 1.396zm8.4 0l-2.788 1.38c.3.605.788 1.097 1.392 1.4 1.536.771 3.406.152 4.177-1.384.771-1.535.151-3.405-1.384-4.176-1.536-.771-3.406-.152-4.177 1.384l2.78 1.396zm8.4 0l-2.788 1.38c.3.605.788 1.097 1.392 1.4 1.536.771 3.406.152 4.177-1.384.771-1.535.151-3.405-1.384-4.176-1.536-.771-3.406-.152-4.177 1.384l2.78 1.396z"/>
    <path fill="#e5a69f" d="M176.6115 117.3525c0-.305-.253-.552-.565-.552-.312 0-.565.247-.565.552 0 .305.253.552.565.552.312 0 .565-.247.565-.552m0 3.6481c0-.305-.253-.552-.565-.552-.312 0-.565.247-.565.552 0 .305.253.552.565.552.312 0 .565-.247.565-.552m.002 3.5576c0-.305-.253-.552-.565-.552-.312 0-.565.247-.565.552 0 .305.253.552.565.552.312 0 .565-.247.565-.552m-3.6457 0c0-.305-.253-.552-.565-.552-.312 0-.565.247-.565.552 0 .305.253.552.565.552.312 0 .565-.247.565-.552m-3.58 0c0-.305-.253-.552-.565-.552-.312 0-.565.247-.565.552 0 .305.253.552.565.552.312 0 .565-.247.565-.552m-.0316 3.6244c0-.305-.253-.552-.565-.552-.312 0-.565.247-.565.552 0 .305.253.552.565.552.312 0 .565-.247.565-.552m-3.5685-3.6244c0-.305-.253-.552-.565-.552-.312 0-.565.247-.565.552 0 .305.253.552.565.552.312 0 .565-.247.565-.552m-3.6317 0c0-.305-.253-.552-.565-.552-.312 0-.564.247-.564.552 0 .305.252.552.564.552.312 0 .565-.247.565-.552m-3.6146.0223c0-.305-.253-.552-.565-.552-.312 0-.564.247-.564.552 0 .305.252.552.564.552.312 0 .565-.247.565-.552m.009 3.6021c0-.305-.253-.552-.565-.552-.312 0-.565.247-.565.552 0 .305.253.552.565.552.312 0 .565-.247.565-.552m10.8056 3.608c0-.305-.253-.552-.565-.552-.312 0-.565.247-.565.552 0 .305.253.552.565.552.312 0 .565-.247.565-.552m.0343 3.6105c0-.305-.253-.552-.565-.552-.312 0-.565.247-.565.552 0 .305.253.552.565.552.312 0 .565-.247.565-.552m3.5517.0401c0-.305-.253-.552-.565-.552-.312 0-.565.247-.565.552 0 .305.253.552.565.552.312 0 .565-.247.565-.552m3.6645 3.6318c0-.305-.253-.552-.565-.552-.312 0-.565.247-.565.552 0 .305.253.552.565.552.312 0 .565-.247.565-.552m.007 3.5442c0-.305-.253-.552-.565-.552-.312 0-.565.247-.565.552 0 .305.253.552.565.552.312 0 .565-.247.565-.552m-18.0699-10.8289c0-.305-.253-.552-.565-.552-.312 0-.564.247-.564.552 0 .305.252.552.564.552.312 0 .565-.247.565-.552m-.002 3.6529c0-.305-.253-.552-.565-.552-.312 0-.564.247-.564.552 0 .305.252.552.564.552.312 0 .565-.247.565-.552m-3.599 0c0-.305-.253-.552-.565-.552-.312 0-.565.247-.565.552 0 .305.253.552.565.552.312 0 .565-.247.565-.552m21.6643 10.81c0-.305-.253-.552-.565-.552-.312 0-.565.247-.565.552 0 .305.253.552.565.552.312 0 .565-.247.565-.552m-3.6012 0c0-.305-.253-.552-.565-.552-.312 0-.565.247-.565.552 0 .305.253.552.565.552.312 0 .565-.247.565-.552m-3.615-.0624c0-.305-.253-.552-.565-.552-.312 0-.565.247-.565.552 0 .305.253.552.565.552.312 0 .565-.247.565-.552m-3.5798.0624c0-.305-.253-.552-.565-.552-.312 0-.565.247-.565.552 0 .305.253.552.565.552.312 0 .565-.247.565-.552m-3.6556-.0624c0-.305-.253-.552-.565-.552-.312 0-.565.247-.565.552 0 .305.253.552.565.552.312 0 .565-.247.565-.552m-3.5899-7.2128c0-.305-.253-.552-.565-.552-.312 0-.565.247-.565.552 0 .305.253.552.565.552.312 0 .565-.247.565-.552m0 3.5899c0-.305-.253-.552-.565-.552-.312 0-.565.247-.565.552 0 .305.253.552.565.552.312 0 .565-.247.565-.552m-3.6228 3.6229c0-.305-.253-.552-.565-.552-.312 0-.565.247-.565.552 0 .305.253.552.565.552.312 0 .565-.247.565-.552m3.6228.0624c0-.305-.253-.552-.565-.552-.312 0-.565.247-.565.552 0 .305.253.552.565.552.312 0 .565-.247.565-.552m-7.2055-10.904c0-.305-.253-.552-.565-.552-.312 0-.564.247-.564.552 0 .305.252.552.564.552.312 0 .565-.247.565-.552m0 10.8416c0-.305-.253-.552-.565-.552-.312 0-.564.247-.564.552 0 .305.252.552.564.552.312 0 .565-.247.565-.552m-3.7007.0529c0-.305-.253-.552-.565-.552-.312 0-.565.247-.565.552 0 .305.253.552.565.552.312 0 .565-.247.565-.552m-3.563 0c0-.305-.253-.552-.565-.552-.312 0-.564.247-.564.552 0 .305.252.552.564.552.312 0 .565-.247.565-.552m-3.6173 0c0-.305-.253-.552-.565-.552-.312 0-.565.247-.565.552 0 .305.253.552.565.552.312 0 .565-.247.565-.552m-3.5984.0413c0-.305-.253-.552-.565-.552-.312 0-.565.247-.565.552 0 .305.253.552.565.552.312 0 .565-.247.565-.552m-.0712-3.7018c0-.305-.253-.552-.565-.552-.312 0-.564.247-.564.552 0 .305.252.552.564.552.312 0 .565-.247.565-.552m.0712-3.6052c0-.305-.253-.552-.565-.552-.312 0-.565.247-.565.552 0 .305.253.552.565.552.312 0 .565-.247.565-.552m21.6023 10.8066c0-.305-.253-.552-.565-.552-.312 0-.564.247-.564.552 0 .305.252.552.564.552.312 0 .565-.247.565-.552m.0639 3.6238c0-.305-.253-.552-.565-.552-.312 0-.565.247-.565.552 0 .305.253.552.565.552.312 0 .565-.247.565-.552m0 3.648c0-.305-.253-.552-.565-.552-.312 0-.565.247-.565.552 0 .305.253.552.565.552.312 0 .565-.247.565-.552m.0586 3.5788c0-.305-.253-.552-.565-.552-.312 0-.564.247-.564.552 0 .305.252.552.564.552.312 0 .565-.247.565-.552m-.0661 3.6369c0-.305-.253-.552-.565-.552-.312 0-.565.247-.565.552 0 .305.253.552.565.552.312 0 .565-.247.565-.552m-.0441 3.6484c0-.305-.253-.552-.565-.552-.312 0-.565.247-.565.552 0 .305.253.552.565.552.312 0 .565-.247.565-.552m0 3.6853c0-.305-.253-.552-.565-.552-.312 0-.565.247-.565.552 0 .305.253.552.565.552.312 0 .565-.247.565-.552m-.0825 3.5314c0-.305-.253-.552-.565-.552-.312 0-.564.247-.564.552 0 .305.252.552.564.552.312 0 .565-.247.565-.552m.0638 3.6238c0-.305-.253-.552-.565-.552-.312 0-.565.247-.565.552 0 .305.253.552.565.552.312 0 .565-.247.565-.552m0 3.648c0-.305-.253-.552-.565-.552-.312 0-.565.247-.565.552 0 .305.253.552.565.552.312 0 .565-.247.565-.552m.0586 3.5788c0-.305-.253-.552-.565-.552-.312 0-.564.247-.564.552 0 .305.252.552.564.552.312 0 .565-.247.565-.552m-.0661 3.637c0-.305-.253-.552-.565-.552-.312 0-.565.247-.565.552 0 .305.253.552.565.552.312 0 .565-.247.565-.552m.0289 3.5916c0-.305-.253-.552-.565-.552-.312 0-.565.247-.565.552 0 .305.253.552.565.552.312 0 .565-.247.565-.552m0 3.6853c0-.305-.253-.552-.565-.552-.312 0-.565.247-.565.552 0 .305.253.552.565.552.312 0 .565-.247.565-.552m-.0826 3.5314c0-.305-.253-.552-.565-.552-.312 0-.565.247-.565.552 0 .305.253.552.565.552.312 0 .565-.247.565-.552m.0638 3.6238c0-.305-.253-.552-.565-.552-.312 0-.564.247-.564.552 0 .305.252.552.564.552.312 0 .565-.247.565-.552m0 3.648c0-.305-.253-.552-.565-.552-.312 0-.564.247-.564.552 0 .305.252.552.564.552.312 0 .565-.247.565-.552m.0586 3.5788c0-.305-.253-.552-.565-.552-.312 0-.565.247-.565.552 0 .305.253.552.565.552.312 0 .565-.247.565-.552m-.0661 3.6369c0-.305-.253-.552-.565-.552-.312 0-.564.247-.564.552 0 .305.252.552.564.552.312 0 .565-.247.565-.552m18.1579-.1364c0-.305-.253-.552-.565-.552-.312 0-.564.247-.564.552 0 .305.252.552.564.552.312 0 .565-.247.565-.552m-7.2127 0c0-.305-.253-.552-.565-.552-.312 0-.565.247-.565.552 0 .305.253.552.565.552.312 0 .565-.247.565-.552m3.6228.0624c0-.305-.253-.552-.565-.552-.312 0-.565.247-.565.552 0 .305.253.552.565.552.312 0 .565-.247.565-.552m-7.2056-.0624c0-.305-.253-.552-.565-.552-.312 0-.565.247-.565.552 0 .305.253.552.565.552.312 0 .565-.247.565-.552m-3.7007.053c0-.305-.253-.552-.565-.552-.312 0-.564.247-.564.552 0 .305.252.552.564.552.312 0 .565-.247.565-.552m-7.1741-.0218c0-.305-.253-.552-.565-.552-.312 0-.565.247-.565.552 0 .305.253.552.565.552.312 0 .565-.247.565-.552m-7.2127 0c0-.305-.253-.552-.565-.552-.312 0-.564.247-.564.552 0 .305.252.552.564.552.312 0 .565-.247.565-.552m3.6228.0624c0-.305-.253-.552-.565-.552-.312 0-.565.247-.565.552 0 .305.253.552.565.552.312 0 .565-.247.565-.552m-7.2055-.0624c0-.305-.253-.552-.565-.552-.312 0-.565.247-.565.552 0 .305.253.552.565.552.312 0 .565-.247.565-.552m-3.7007.053c0-.305-.253-.552-.565-.552-.312 0-.565.247-.565.552 0 .305.253.552.565.552.312 0 .565-.247.565-.552m36.2017-14.4953c0-.305-.253-.552-.565-.552-.312 0-.565.247-.565.552 0 .305.253.552.565.552.312 0 .565-.247.565-.552m-7.2127 0c0-.305-.253-.552-.565-.552-.312 0-.565.247-.565.552 0 .305.253.552.565.552.312 0 .565-.247.565-.552m3.6229.0624c0-.305-.253-.552-.565-.552-.312 0-.565.247-.565.552 0 .305.253.552.565.552.312 0 .565-.247.565-.552m-7.2056-.0624c0-.305-.253-.552-.565-.552-.312 0-.564.247-.564.552 0 .305.252.552.564.552.312 0 .565-.247.565-.552m-3.7007.053c0-.305-.253-.552-.565-.552-.312 0-.564.247-.564.552 0 .305.252.552.564.552.312 0 .565-.247.565-.552m14.4608-10.9248c0-.305-.253-.552-.565-.552-.312 0-.564.247-.564.552 0 .305.252.552.564.552.312 0 .565-.247.565-.552m-7.2127 0c0-.305-.253-.552-.565-.552-.312 0-.565.247-.565.552 0 .305.253.552.565.552.312 0 .565-.247.565-.552m3.6228.0625c0-.305-.253-.552-.565-.552-.312 0-.565.247-.565.552 0 .305.253.552.565.552.312 0 .565-.247.565-.552m-7.2056-.0625c0-.305-.253-.552-.565-.552-.312 0-.565.247-.565.552 0 .305.253.552.565.552.312 0 .565-.247.565-.552m-3.7007.053c0-.305-.253-.552-.565-.552-.312 0-.564.247-.564.552 0 .305.252.552.564.552.312 0 .565-.247.565-.552m14.5315 3.5455c0-.305-.253-.552-.565-.552-.312 0-.565.247-.565.552 0 .305.253.552.565.552.312 0 .565-.247.565-.552m-.0873 3.6708c0-.305-.253-.552-.565-.552-.312 0-.565.247-.565.552 0 .305.253.552.565.552.312 0 .565-.247.565-.552m-21.6361 3.5943c0-.305-.253-.552-.565-.552-.312 0-.564.247-.564.552 0 .305.252.552.564.552.312 0 .565-.247.565-.552m-3.6062-.0426c0-.305-.253-.552-.565-.552-.312 0-.564.247-.564.552 0 .305.252.552.564.552.312 0 .565-.247.565-.552m25.2662 3.66c0-.305-.253-.552-.565-.552-.312 0-.565.247-.565.552 0 .305.253.552.565.552.312 0 .565-.247.565-.552m.0634 7.2147c0-.305-.253-.552-.565-.552-.312 0-.565.247-.565.552 0 .305.253.552.565.552.312 0 .565-.247.565-.552m-39.8387 3.5489c0-.305-.253-.552-.565-.552-.312 0-.565.247-.565.552 0 .305.253.552.565.552.312 0 .565-.247.565-.552m0-3.5489c0-.305-.253-.552-.565-.552-.312 0-.565.247-.565.552 0 .305.253.552.565.552.312 0 .565-.247.565-.552m.0339-3.6301c0-.305-.253-.552-.565-.552-.312 0-.565.247-.565.552 0 .305.253.552.565.552.312 0 .565-.247.565-.552m-.0339-3.5358c0-.305-.253-.552-.565-.552-.312 0-.565.247-.565.552 0 .305.253.552.565.552.312 0 .565-.247.565-.552m-33.4892.0565c0-.305.253-.552.565-.552.312 0 .565.247.565.552 0 .305-.253.552-.565.552-.312 0-.565-.247-.565-.552m0 3.6479c0-.305.253-.552.565-.552.312 0 .565.247.565.552 0 .305-.253.552-.565.552-.312 0-.565-.247-.565-.552m-.0586 3.5789c0-.305.253-.552.565-.552.312 0 .564.247.564.552 0 .305-.252.552-.564.552-.312 0-.565-.247-.565-.552m.0661 3.6369c0-.305.253-.552.565-.552.312 0 .565.247.565.552 0 .305-.253.552-.565.552-.312 0-.565-.247-.565-.552m-18.1579-.1365c0-.305.253-.552.565-.552.312 0 .565.247.565.552 0 .305-.253.552-.565.552-.312 0-.565-.247-.565-.552m7.2128 0c0-.305.253-.552.565-.552.312 0 .564.247.564.552 0 .305-.252.552-.564.552-.312 0-.565-.247-.565-.552m-3.6229.0625c0-.305.253-.552.565-.552.312 0 .565.247.565.552 0 .305-.253.552-.565.552-.312 0-.565-.247-.565-.552m7.2056-.0625c0-.305.253-.552.565-.552.312 0 .564.247.564.552 0 .305-.252.552-.564.552-.312 0-.565-.247-.565-.552m3.7007.053c0-.305.253-.552.565-.552.312 0 .565.247.565.552 0 .305-.253.552-.565.552-.312 0-.565-.247-.565-.552m7.1741-.0217c0-.305.253-.552.565-.552.312 0 .564.247.564.552 0 .305-.252.552-.564.552-.312 0-.565-.247-.565-.552m7.2127 0c0-.305.253-.552.565-.552.312 0 .565.247.565.552 0 .305-.253.552-.565.552-.312 0-.565-.247-.565-.552m-3.6228.0624c0-.305.253-.552.565-.552.312 0 .564.247.564.552 0 .305-.252.552-.564.552-.312 0-.565-.247-.565-.552m7.2056-.0624c0-.305.253-.552.565-.552.312 0 .565.247.565.552 0 .305-.253.552-.565.552-.312 0-.565-.247-.565-.552m3.7007.0529c0-.305.253-.552.565-.552.312 0 .565.247.565.552 0 .305-.253.552-.565.552-.312 0-.565-.247-.565-.552m-36.2018-14.4952c0-.305.253-.552.565-.552.312 0 .565.247.565.552 0 .305-.253.552-.565.552-.312 0-.565-.247-.565-.552m7.2127 0c0-.305.253-.552.565-.552.312 0 .564.247.564.552 0 .305-.252.552-.564.552-.312 0-.565-.247-.565-.552m-3.6228.0624c0-.305.253-.552.565-.552.312 0 .565.247.565.552 0 .305-.253.552-.565.552-.312 0-.565-.247-.565-.552m7.2055-.0624c0-.305.253-.552.565-.552.312 0 .565.247.565.552 0 .305-.253.552-.565.552-.312 0-.565-.247-.565-.552m3.7007.053c0-.305.253-.552.565-.552.312 0 .565.247.565.552 0 .305-.253.552-.565.552-.312 0-.565-.247-.565-.552M85.1864 189.53c0-.305.253-.552.565-.552.312 0 .565.247.565.552 0 .305-.253.552-.565.552-.312 0-.565-.247-.565-.552m7.2128 0c0-.305.253-.552.565-.552.312 0 .564.247.564.552 0 .305-.252.552-.564.552-.312 0-.565-.247-.565-.552m-3.6229.0624c0-.305.253-.552.565-.552.312 0 .565.247.565.552 0 .305-.253.552-.565.552-.312 0-.565-.247-.565-.552m7.2056-.0624c0-.305.253-.552.565-.552.312 0 .564.247.564.552 0 .305-.252.552-.564.552-.312 0-.565-.247-.565-.552m3.7007.053c0-.305.253-.552.565-.552.312 0 .565.247.565.552 0 .305-.253.552-.565.552-.312 0-.565-.247-.565-.552m-14.5315 3.5455c0-.305.253-.552.565-.552.312 0 .565.247.565.552 0 .305-.253.552-.565.552-.312 0-.565-.247-.565-.552m.0873 3.6708c0-.305.253-.552.565-.552.312 0 .564.247.564.552 0 .305-.252.552-.564.552-.312 0-.565-.247-.565-.552m-.0239 7.2116c0-.305.253-.552.565-.552.312 0 .565.247.565.552 0 .305-.253.552-.565.552-.312 0-.565-.247-.565-.552m-.0634 7.2147c0-.305.253-.552.565-.552.312 0 .565.247.565.552 0 .305-.253.552-.565.552-.312 0-.565-.247-.565-.552m39.8388 3.549c0-.305.253-.552.565-.552.312 0 .564.247.564.552 0 .305-.252.552-.564.552-.312 0-.565-.247-.565-.552m0-3.549c0-.305.253-.552.565-.552.312 0 .564.247.564.552 0 .305-.252.552-.564.552-.312 0-.565-.247-.565-.552m-.0339-3.63c0-.305.253-.552.565-.552.312 0 .565.247.565.552 0 .305-.253.552-.565.552-.312 0-.565-.247-.565-.552m.0339-3.5358c0-.305.253-.552.565-.552.312 0 .564.247.564.552 0 .305-.252.552-.564.552-.312 0-.565-.247-.565-.552m-10.9236-7.3161c0-.305.253-.552.565-.552.312 0 .564.247.564.552 0 .305-.252.552-.564.552-.312 0-.565-.247-.565-.552m0-3.601c0-.305.253-.552.565-.552.312 0 .564.247.564.552 0 .305-.252.552-.564.552-.312 0-.565-.247-.565-.552m10.8542-3.612c0-.305.253-.552.565-.552.312 0 .565.247.565.552 0 .305-.253.552-.565.552-.312 0-.565-.247-.565-.552m-3.6183.008c0-.305.253-.552.565-.552.312 0 .565.247.565.552 0 .305-.253.552-.565.552-.312 0-.565-.247-.565-.552m-3.6164-.008c0-.305.253-.552.565-.552.312 0 .564.247.564.552 0 .305-.252.552-.564.552-.312 0-.565-.247-.565-.552m-3.5803.0106c0-.305.253-.552.565-.552.312 0 .565.247.565.552 0 .305-.253.552-.565.552-.312 0-.565-.247-.565-.552"/>
    <path fill="#d9d6f6" d="M125.6654 136.0127c0-.56-.459-1.013-1.025-1.013-.566 0-1.025.453-1.025 1.013 0 .56.459 1.013 1.025 1.013.566 0 1.025-.453 1.025-1.013"/>
    <path fill="#3132e7" d="M125.5489 135.748c0-.267-.188-.483-.42-.483-.231 0-.419.216-.419.483s.188.483.419.483c.232 0 .42-.216.42-.483"/>
    <path fill="#d9d6f6" d="M122.9201 136.0127c0-.56-.459-1.013-1.025-1.013-.566 0-1.025.453-1.025 1.013 0 .56.459 1.013 1.025 1.013.566 0 1.025-.453 1.025-1.013"/>
    <path fill="#3132e7" d="M122.8036 135.748c0-.267-.188-.483-.42-.483-.231 0-.419.216-.419.483s.188.483.419.483c.232 0 .42-.216.42-.483"/>
    <path fill="#f9b834" d="M160.631 105.5741h-.301v.682h-.603v.54h-2.825v-.54h-.714v-.682l-.406-.024.033-1.838.373-.026v-.921h.714v-.65h2.825v.65h.603v.921h.301v1.888z"/>
    <path fill="#5eb959" d="M159.6075 107.8273h-1.071v.032h-.667v-1.571h.667v.873h1.071v.666z"/>
    <path fill="#fce038" d="M157.14 103.972h-.666v1.698h.666v-1.698z"/>
    <path fill="#eb2224" d="M167.9411 105.8376h-.573v.65h-3.706v-.65h-.611v-1.452h.611v-.764h.611v-.764h.726v-.726h1.146v.726h.879v.764h.344v.764h.573v1.452z"/>
    <path fill="#53b648" d="M167.1436 106.764h-1.347v.745h-.429v-.745h-1.376v-.544h.702v-.287h1.719v.287h.731v.544z"/>
    <path fill="#fff" d="M165.408 104.434h-.506v.542h.506v-.542zm1.418-.573h-.506v.542h.506v-.542zm-.487-.889h-.506v.542h.506v-.542zm.69 2.078h-.265v.284h.265v-.284zm-1.734-1.476h-.279v.299h.279v-.299zm-.974 1.385h-.35v.375h.35v-.375z"/>
    <path fill="#eb2224" d="M172.6375 104.7947v.265h-.14v.174h-.172v.112h-1.687v-.112h-.172v-.174h-.194v-.265h-.258v-1.695h.258v-.285h.194v-.194h.172v-.113h1.687v.113h.172v.194h.14v.285h.28v1.695h-.28z"/>
    <path fill="#fff" d="M170.792 103.441h-.487v.487h.487v-.487zm.518-.549h-.533v.533h.533v-.533z"/>
    <path fill="#eb2224" d="M174.2365 103.8944v.265h-.14v.174h-.172v.112h-1.687v-.112h-.172v-.174h-.194v-.265h-.258v-1.695h.258v-.285h.194v-.194h.172v-.113h1.687v.113h.172v.194h.14v.285h.28v1.695h-.28z"/>
    <path fill="#fff" d="M172.391 102.54h-.487v.487h.487v-.487zm.518-.548h-.533v.533h.533v-.533z"/>
    <path fill="#9d6026" d="M172.7221 104.711v.511l.457.013v.511h.514l.005.887h-.385v-.511l-1.021.013-.005-.5-.506.003v-.416h-.497v.524h.403l.005.494.479.003.014.511 1.007.026.014.498h.994v.524l1.129-.014.002-1.155h-.988l-.005-1.054-.524.005.005-.493h-.489v-.363l.005-.474-.61.005-.003.452z"/>
    <path fill="#eb2224" d="M114.0315 143.5273l.001.024v3.169l.446-.008.008 1.326h.387l.008.427h.403v.41l.814.008.016.201h1.644l.008-.193.775-.008v-.41l.427.008v-.418h.442l.008-1.287.308.008-.007-3.249h-.309l-.002.338h-.433v.458l-.437.003v-.429l-.411-.005-.005-.381-.764-.005v.82l-.801.005.005-.82-.922-.005-.006.412h-.374l.004.413h-.379l-.004-.41-.395.008v-.414l-.455.004z"/>
    <path fill="#d9d6f6" d="M115.237 147.6376h.458v.395h.838v-.395h.364v-1.209h-.364v-.427h-.838v.427h-.458v1.209zm2.4662-.0275h.458v.391h.838v-.391h.364v-1.197h-.364v-.422h-.838v.422h-.458v1.197z"/>
    <path fill="#2f55a4" d="M116.106 146.431h.79v.751h-.79v-.751zm2.467-.015h.79v.743h-.79v-.743z"/>
    <path fill="#67c6bd" d="M117.9493 161.3271l-.001.025v3.331l-.468-.008-.009 1.394h-.407l-.008.448h-.424v.432l-.856.008-.017.211h-1.728l-.008-.203-.815-.008v-.431l-.448.008v-.439h-.466l-.008-1.353-.324.009.008-3.416h.324l.002.356h.455v.481l.46.003v-.451l.432-.005.006-.4.803-.006v.862l.842.006-.005-.862.969-.006.006.434h.393l-.004.434h.399l.004-.431.415.008v-.435l.478.004z"/>
    <path fill="#d9d6f6" d="M116.8261 165.6478h-.482v.415h-.881v-.415h-.382v-1.271h.382v-.449h.881v.449h.482v1.271zm-2.3405-.0289h-.482v.411h-.881v-.411h-.382v-1.258h.382v-.444h.881v.444h.482v1.258z"/>
    <path fill="#2f55a4" d="M116.295 163.846h-.831v.789h.831v-.789zm-2.289.004h-.831v.781h.831v-.781z"/>
    <path fill="#f17720" d="M134.2299 172.414l-.001.025v3.331l-.468-.008-.009 1.394h-.407l-.008.448h-.424v.432l-.856.008-.017.211h-1.728l-.008-.203-.815-.008v-.431l-.448.008v-.439h-.466l-.008-1.353-.324.009.008-3.416h.324l.002.355h.455v.482l.46.003v-.451l.432-.005.006-.4.803-.006v.862l.842.006-.005-.862.969-.006.006.434h.393l-.004.434h.399l.004-.431.415.008v-.435l.478.004z"/>
    <path fill="#d9d6f6" d="M132.9211 177.555h-.482v.415h-.881v-.415h-.382v-1.271h.382v-.449h.881v.449h.482v1.271zm-1.9826-.007h-.482v.411h-.881v-.411h-.382v-1.258h.382v-.444h.881v.444h.482v1.258z"/>
    <path fill="#2f55a4" d="M132.365 177.174h-.831v.789h.831v-.789zm-1.884.004h-.831v.781h.831v-.781z"/>
    <path fill="#e5a69f" d="M177.6602 207.6078c0-.823-.683-1.489-1.525-1.489-.842 0-1.525.666-1.525 1.489 0 .823.683 1.489 1.525 1.489.842 0 1.525-.666 1.525-1.489m-90.3561.0326c0-.823-.683-1.489-1.525-1.489-.842 0-1.525.666-1.525 1.489 0 .823.683 1.489 1.525 1.489.842 0 1.525-.666 1.525-1.489m90.3089-72.1546c0-.823-.683-1.489-1.525-1.489-.842 0-1.525.666-1.525 1.489 0 .823.683 1.489 1.525 1.489.842 0 1.525-.666 1.525-1.489"/>
    <path fill="#132fef" d="M81.132 185.653h-.717v34.529h.717v-34.529zm48.052 33.812H81.132v.717h48.052v-.717z"/>
    <path fill="#132fef" d="M129.543 204.691h-.717v15.491h.717v-15.491z"/>
    <path fill="#132fef" d="M133.279 204.222h-4.453v.717h4.453v-.717z"/>
    <path fill="#132fef" d="M133.279 204.691h-.717v15.491h.717v-15.491zM99.89 185.076H80.416v.717H99.89v-.717z"/>
    <path fill="#132fef" d="M100.248 172.4h-.717v13.393h.717V172.4z"/>
    <path fill="#132fef" d="M100.248 172.41H80.415v.73h19.833v-.73zm80.726 13.243h.717v34.529h-.717v-34.529zm-48.053 33.812h48.052v.717h-48.052v-.717z"/>
    <path fill="#132fef" d="M162.216 185.076h19.474v.717h-19.474v-.717z"/>
    <path fill="#132fef" d="M161.857 172.4h.717v13.393h-.717V172.4z"/>
    <path fill="#132fef" d="M161.857 172.41h19.833v.73h-19.833v-.73zm-80.653-43.724h-.86v-19.861h.86v19.861z"/>
    <path fill="#132fef" d="M131.053 109.542H81.132v-.717h49.921v.717zm-42.329 22.239h-8.38v-.717h8.38v.717z"/>
    <path fill="#132fef" d="M88.007 128.327h.717v3.276h-.717v-3.276zm11.883 22.296H80.416v-.717H99.89v.717z"/>
    <path fill="#132fef" d="M100.248 163.299h-.717v-13.393h.717v13.393z"/>
    <path fill="#132fef" d="M100.248 163.289H80.415v-.73h19.833v.73zm-19.057-12.666h-.835v-19.558h.835v19.558zm7.533-21.579h-8.38v-.717h8.38v.717zm92.178-.358h.86v-19.861h-.86v19.861z"/>
    <path fill="#132fef" d="M131.053 109.542h49.921v-.717h-49.921v.717zm42.329 22.239h8.38v-.717h-8.38v.717z"/>
    <path fill="#132fef" d="M174.098 128.327h-.717v3.276h.717v-3.276zm-11.882 22.296h19.474v-.717h-19.474v.717z"/>
    <path fill="#132fef" d="M161.857 163.299h.717v-13.393h-.717v13.393z"/>
    <path fill="#132fef" d="M161.857 163.289h19.833v-.73h-19.833v.73zm19.057-12.666h.835v-19.558h-.835v19.558zm-7.532-21.579h8.38v-.717h-8.38v.717zm-72.776 74.563h-.717v8.064h.717v-8.064z"/>
    <path fill="#132fef" d="M100.606 210.954H88.777v.717h11.829v-.717z"/>
    <path fill="#132fef" d="M88.776 211.671h.717v-8.064h-.717v8.064z"/>
    <path fill="#132fef" d="M88.776 204.323h11.829v-.717H88.776v.717zm11.83-11.78h-.717v4.604h.717v-4.604z"/>
    <path fill="#132fef" d="M100.605 196.642H88.776v.717h11.829v-.717z"/>
    <path fill="#132fef" d="M89.492 192.543h-.717v4.604h.717v-4.604z"/>
    <path fill="#132fef" d="M100.605 192.543H88.776v.717h11.829v-.717zm21.493 11.064h-.717v8.064h.717v-8.064z"/>
    <path fill="#132fef" d="M122.098 210.954h-15.209v.717h15.209v-.717z"/>
    <path fill="#132fef" d="M106.889 211.671h.717v-8.064h-.717v8.064z"/>
    <path fill="#132fef" d="M106.889 204.323h15.209v-.717h-15.209v.717zm4.274-8.402h-4.632v.717h4.632v-.717zm10.699-13.902h-.717v4.132h.717v-4.132z"/>
    <path fill="#132fef" d="M107.247 171.532h-.717v25.106h.717v-25.106zm3.916 13.902h-.717v11.204h.717v-11.204z"/>
    <path fill="#132fef" d="M121.867 185.434h-11.42v.717h11.42v-.717zm-10.704-13.185h-4.632v-.717h4.632v.717z"/>
    <path fill="#132fef" d="M111.163 182.736h-.717v-11.204h.717v11.204z"/>
    <path fill="#132fef" d="M121.867 182.736h-11.42v-.717h11.42v.717zm21.603 9.974h-.717v4.632h.717v-4.632zm-14.619-9.982h4.132v-.717h-4.132v.717z"/>
    <path fill="#132fef" d="M118.364 197.342h25.106v-.717h-25.106v.717zm13.902-3.915h11.204v-.717h-11.204v.717z"/>
    <path fill="#132fef" d="M132.982 182.006h-.717v11.42h.717v-11.42zm-14.618 10.704h.717v4.632h-.717v-4.632z"/>
    <path fill="#132fef" d="M129.567 193.427h-11.204v-.717h11.204v.717z"/>
    <path fill="#132fef" d="M128.851 182.006h.717v11.42h-.717v-11.42zm-17.486-18.036h-4.632v.717h4.632v-.717z"/>
    <path fill="#132fef" d="M107.449 149.231h-.717v15.456h.717v-15.456zm3.916.068h-.717v15.388h.717v-15.388z"/>
    <path fill="#132fef" d="M111.365 150.015h-4.632v-.717h4.632v.717zm-4.692-7.19h.717v-4.632h-.717v4.632z"/>
    <path fill="#132fef" d="M122.129 138.193h-15.456v.717h15.456v-.717zm-.068 3.916h-15.388v.717h15.388v-.717z"/>
    <path fill="#132fef" d="M122.061 142.825h-.717v-4.632h.717v4.632zm-33.426-20.729h.717v-4.632h-.717v4.632zm22.48 9.983h-4.132v.717h4.132v-.717z"/>
    <path fill="#132fef" d="M121.602 117.464H88.724v.717h32.878v-.717zM107.7 121.38H88.724v.717H107.7v-.717z"/>
    <path fill="#132fef" d="M106.983 132.8h.717v-11.42h-.717v11.42zm14.619-10.704h-.717v-4.632h.717v4.632z"/>
    <path fill="#132fef" d="M110.398 121.38h11.204v.717h-11.204v-.717z"/>
    <path fill="#132fef" d="M111.115 132.8h-.717v-11.42h.717v11.42zm32.674 16.237h-.717v4.632h.717v-4.632zm-14.618-9.982h4.132v-.717h-4.132v.717z"/>
    <path fill="#132fef" d="M118.684 153.669h25.106v-.717h-25.106v.717zm13.902-3.915h11.204v-.717h-11.204v.717z"/>
    <path fill="#132fef" d="M133.302 138.333h-.717v11.42h.717v-11.42zm-14.618 10.704h.717v4.632h-.717v-4.632z"/>
    <path fill="#132fef" d="M129.887 149.754h-11.204v-.717h11.204v.717z"/>
    <path fill="#132fef" d="M129.171 138.333h.717v11.42h-.717v-11.42zm14.618-9.568h-.717v4.632h.717v-4.632zm-14.618-9.982h4.132v-.717h-4.132v.717z"/>
    <path fill="#132fef" d="M118.684 133.398h25.106v-.717h-25.106v.717zm13.902-3.916h11.204v-.717h-11.204v.717z"/>
    <path fill="#132fef" d="M133.302 118.062h-.717v11.42h.717v-11.42zm-14.618 10.703h.717v4.632h-.717v-4.632z"/>
    <path fill="#132fef" d="M129.887 129.482h-11.204v-.717h11.204v.717z"/>
    <path fill="#132fef" d="M129.171 118.062h.717v11.42h-.717v-11.42zm-28.643 24.848H88.884v.717h11.644v-.717zm-3.916-14.739h-.717v10.98h.717v-10.98z"/>
    <path fill="#132fef" d="M100.528 128.239h-.717v15.388h.717v-15.388z"/>
    <path fill="#132fef" d="M100.528 128.955h-4.632v-.717h4.632v.717zm-11.644 14.672h.717v-4.476h-.717v4.476z"/>
    <path fill="#132fef" d="M96.612 139.151h-7.728v.717h7.728v-.717zm30.112 35.227h-7.895v.717h7.895v-.717z"/>
    <path fill="#132fef" d="M119.439 161.764h-.717v13.331h.717v-13.331z"/>
    <path fill="#132fef" d="M143.111 162.481h-24.389v-.717h24.389v.717zm-7.929 11.897h7.895v.717h-7.895v-.717z"/>
    <path fill="#132fef" d="M142.467 161.764h.717v13.331h-.717v-13.331zm18.794 41.628h.717v8.064h-.717v-8.064z"/>
    <path fill="#132fef" d="M161.261 210.739h11.829v.717h-11.829v-.717z"/>
    <path fill="#132fef" d="M173.09 211.456h-.717v-8.064h.717v8.064z"/>
    <path fill="#132fef" d="M173.09 204.108h-11.829v-.717h11.829v.717zm-11.829-11.78h.717v4.604h-.717v-4.604z"/>
    <path fill="#132fef" d="M161.262 196.427h11.829v.717h-11.829v-.717z"/>
    <path fill="#132fef" d="M172.375 192.328h.717v4.604h-.717v-4.604z"/>
    <path fill="#132fef" d="M161.262 192.328h11.829v.717h-11.829v-.717zm-21.493 11.064h.717v8.064h-.717v-8.064z"/>
    <path fill="#132fef" d="M139.769 210.739h15.209v.717h-15.209v-.717z"/>
    <path fill="#132fef" d="M154.978 211.456h-.717v-8.064h.717v8.064z"/>
    <path fill="#132fef" d="M154.978 204.108h-15.209v-.717h15.209v.717zm-4.274-8.402h4.632v.717h-4.632v-.717zm-10.699-13.902h.717v4.132h-.717v-4.132z"/>
    <path fill="#132fef" d="M154.619 171.317h.717v25.106h-.717v-25.106zm-3.915 13.902h.717v11.204h-.717v-11.204z"/>
    <path fill="#132fef" d="M139.9999 185.9359v-.717h11.42v.717h-11.42zm10.7041-13.9019h4.632v-.717h-4.632v.717z"/>
    <path fill="#132fef" d="M150.704 182.521h.717v-11.204h-.717v11.204z"/>
    <path fill="#132fef" d="M140 182.521h11.42v-.717H140v.717zm10.502-18.766h4.632v.717h-4.632v-.717z"/>
    <path fill="#132fef" d="M154.418 149.016h.717v15.456h-.717v-15.456zm-3.916.068h.717v15.388h-.717v-15.388z"/>
    <path fill="#132fef" d="M150.502 149.8h4.632v-.717h-4.632v.717zm4.692-7.19h-.717v-4.632h.717v4.632z"/>
    <path fill="#132fef" d="M139.738 137.978h15.456v.717h-15.456v-.717zm.068 3.916h15.388v.717h-15.388v-.717z"/>
    <path fill="#132fef" d="M139.806 142.61h.717v-4.632h-.717v4.632zm33.426-20.728h-.717v-4.632h.717v4.632zm-22.48 9.982h4.132v.717h-4.132v-.717z"/>
    <path fill="#132fef" d="M140.265 117.249h32.878v.717h-32.878v-.717zm13.902 3.916h18.976v.717h-18.976v-.717z"/>
    <path fill="#132fef" d="M154.884 132.585h-.717v-11.42h.717v11.42zm-14.619-10.703h.717v-4.632h-.717v4.632z"/>
    <path fill="#132fef" d="M151.469 121.165h-11.204v.717h11.204v-.717z"/>
    <path fill="#132fef" d="M150.752 132.585h.717v-11.42h-.717v11.42zm10.587 10.11h11.644v.717h-11.644v-.717zm3.916-14.739h.717v10.98h-.717v-10.98z"/>
    <path fill="#132fef" d="M161.339 128.024h.717v15.388h-.717v-15.388z"/>
    <path fill="#132fef" d="M161.339 128.74h4.632v-.717h-4.632v.717zm11.644 14.672h-.717v-4.476h.717v4.476z"/>
    <path fill="#132fef" d="M165.255 138.936h7.728v.717h-7.728v-.717z"/>
    <path fill="#fdd401" d="M6.105 0H0v317.48h6.105V0z"/>
    <path d="M.5.5h5.105v316.48H.5V.5zm6.105-1H-.5v318.48h7.105V-.5z"/>
    <path fill="#fdd401" d="M262.105 0H256v317.48h6.105V0z"/>
    <path d="M256.5.5h5.105v316.48H256.5V.5zm6.105-1H255.5v318.48h7.105V-.5z"/>
    <path fill="#56768f" d="M186.886 60.309H75.719v16.25h111.167v-16.25z"/>
    <path fill="#332f2f" d="M184.665 61.184H77.94v14.562h106.725V61.184z"/>
    <path fill="#56768f" d="M181.718 61.997H80.525v12.938h101.193V61.997z"/>
    <path fill="#332f2f" d="M180.002 62.683H82.604v11.649h97.398V62.683z"/>
    <path fill="#332f2f" d="M109.914 60.309H91.38v16.25h18.534v-16.25z"/>
    <path fill="#1e1e1e" d="M175.689 10.059H86.416v38.5h89.273v-38.5z"/>
    <path d="M106.531 14.059H93.529v6h13.002v-6z"/>
    <path fill="#848280" d="M115.886 27.7259c0-1.381-1.119-2.5-2.5-2.5s-2.5 1.119-2.5 2.5 1.119 2.5 2.5 2.5 2.5-1.119 2.5-2.5"/>
    <path d="M136.053 14.059h-13.002v6h13.002v-6z"/>
    <path fill="#848280" d="M145.4086 27.7259c0-1.381-1.119-2.5-2.5-2.5s-2.5 1.119-2.5 2.5 1.119 2.5 2.5 2.5 2.5-1.119 2.5-2.5"/>
    <path fill="#9d9a93" d="M116.897 42.226h-10.805v4.333h10.805v-4.333z"/>
    <path fill="#b9b8b4" d="M147.094 34.226h-41.002v5.667h41.002v-5.667z"/>
    <path fill="#9d9a93" d="M147.122 42.226h-10.805v4.333h10.805v-4.333z"/>
    <path fill="#8c241b" d="M101.719 42.226h-3.508v4.333h3.508v-4.333zm53.26 0h-3.508v4.333h3.508v-4.333z"/>
    <path fill="#848280" d="M162.5527 30.9759c0-1.795-.751-3.25-1.678-3.25-.926 0-1.677 1.455-1.677 3.25s.751 3.25 1.677 3.25c.927 0 1.678-1.455 1.678-3.25"/>
    <path fill="#fff" d="M157.4503 67.3961v4.085c0-.721-2.728-1.306-6.094-1.306s-6.094.585-6.094 1.306v-4.085.078c1.558-.367 3.71-.594 6.087-.594 2.384 0 4.542.228 6.101.597"/>
    <path d="M145.7617 67.8756c1.541-.321 3.505-.496 5.587-.496 2.091 0 4.06.176 5.601.498v2.541c-1.637-.696-4.789-.743-5.593-.743-.805 0-3.957.047-5.595.743v-2.543zm5.587-1.496c-2.335 0-4.537.216-6.201.608l.095.409h-.481v4.084h1c.193-.211 2.12-.805 5.595-.805 3.473 0 5.4.594 5.616.896l.977-.091v-4.084h-.48l.096-.406c-1.664-.394-3.872-.611-6.217-.611"/>
    <path fill="#fff" d="M145.2465 67.4739v2.568c-1.537-.329-2.487-.782-2.487-1.282 0-.502.957-.957 2.503-1.286"/>
    <path d="M144.746 69.4079c-1.092-.292-1.447-.58-1.491-.679.044-.048.399-.328 1.491-.619v1.298zm.412-2.423c-1.95.414-2.898.994-2.898 1.775 0 .787.916 1.349 2.882 1.771l.604.129v-3.186h-.484l-.104-.489z"/>
    <path fill="#fff" d="M157.4512 67.4774v2.564c1.546-.328 2.501-.781 2.501-1.282 0-.5-.956-.953-2.501-1.282"/>
    <path d="M157.9511 69.4098v-1.3c1.102.292 1.462.581 1.506.681-.044.046-.403.328-1.506.619m-1-2.55v3.799l.604-.128c1.976-.42 2.897-.982 2.897-1.771 0-.788-.921-1.351-2.897-1.772l-.604-.128z"/>
    <path fill="#fff" d="M157.4503 71.531c0-.721-2.728-1.306-6.094-1.306s-6.094.585-6.094 1.306c0 .721 2.728 1.306 6.094 1.306s6.094-.585 6.094-1.306"/>
    <path d="M145.8437 71.5309c.483-.317 2.362-.806 5.513-.806 3.15 0 5.028.489 5.511.806-.483.317-2.361.806-5.511.806-3.152 0-5.03-.489-5.513-.806m5.513-1.806c-1.102 0-6.595.087-6.595 1.806s5.493 1.806 6.595 1.806c1.101 0 6.593-.087 6.593-1.806s-5.492-1.806-6.593-1.806m-40.0431 1.5914c0-2.679-4.776-4.85-10.667-4.85s-10.666 2.171-10.666 4.85"/>
    <path fill="#121010" d="M100.6474 65.9655c-6.262 0-11.167 2.351-11.167 5.351h1c0-2.359 4.656-4.351 10.167-4.351s10.166 1.992 10.166 4.351h1c0-3-4.904-5.351-11.166-5.351"/>
    <path d="M111.3136 71.3163c0-1.666-4.776-3.017-10.667-3.017s-10.666 1.351-10.666 3.017 4.775 3.017 10.666 3.017 10.667-1.351 10.667-3.017"/>
    <path fill="#121010" d="M100.6474 73.8336c-6.206 0-10.167-1.491-10.167-2.518 0-1.026 3.961-2.516 10.167-2.516 6.206 0 10.166 1.49 10.166 2.516 0 1.027-3.96 2.518-10.166 2.518m0-6.034c-5.549 0-11.167 1.208-11.167 3.516 0 2.31 5.618 3.518 11.167 3.518 5.549 0 11.166-1.208 11.166-3.518 0-2.308-5.617-3.516-11.166-3.516"/>
    <path d="M103.155 73.148h-5.02v10.185h5.02V73.148z"/>
    <path d="M98.635 73.148h-1v10.411h1V73.148zm5.019 0h-1v10.411h1V73.148z"/>
    <path fill="#e02325" d="M109.914 92.2688c0-5.109-4.149-9.25-9.267-9.25-5.118 0-9.267 4.141-9.267 9.25s4.149 9.25 9.267 9.25c5.118 0 9.267-4.141 9.267-9.25"/>
    <path d="M100.6474 101.0192c-4.834 0-8.768-3.925-8.768-8.75s3.934-8.75 8.768-8.75c4.834 0 8.767 3.925 8.767 8.75s-3.933 8.75-8.767 8.75m0-18.5c-5.386 0-9.768 4.374-9.768 9.75s4.382 9.75 9.768 9.75c5.386 0 9.767-4.374 9.767-9.75s-4.381-9.75-9.767-9.75"/>
    <path fill="#e02325" d="M97.96 65.243h5.147v-.52H97.96v.52z"/>
    <path fill="#e02325" d="M98.7882 64.9825l-.828-.26 2.574-2.426 2.574 2.426-.828.26M87.386 72.515h.52v-2.364h-.52v2.364z"/>
    <path fill="#e02325" d="M87.6461 72.1352l-.26.38-2.426-1.182 2.426-1.182.26.38m26.5209-.6182h-.52v2.364h.52v-2.364z"/>
    <path fill="#e02325" d="M113.907 70.2931l.26-.38 2.426 1.182-2.426 1.182-.26-.38"/>
    <path fill="#fff" d="M174.6428 64.5477v4.085c0-.721-2.728-1.306-6.094-1.306s-6.094.585-6.094 1.306v-4.085.078c1.558-.367 3.71-.594 6.087-.594 2.384 0 4.542.228 6.101.597"/>
    <path d="M162.955 65.027c1.538-.32 3.502-.495 5.586-.495 2.09 0 4.06.176 5.602.498v2.54c-1.638-.696-4.79-.743-5.594-.743-.805 0-3.956.047-5.594.743v-2.543zm5.586-1.495c-2.338 0-4.54.216-6.2.607l.095.409h-.481v4.084h1c.193-.211 2.12-.805 5.594-.805 3.473 0 5.4.594 5.616.897l.978-.092v-4.084h-.481l.096-.406c-1.666-.393-3.873-.61-6.217-.61"/>
    <path fill="#fff" d="M162.439 64.6254v2.568c-1.537-.329-2.487-.782-2.487-1.282 0-.502.957-.957 2.503-1.286"/>
    <path d="M161.9394 66.5602c-1.093-.292-1.449-.58-1.492-.679.044-.048.4-.328 1.492-.619v1.298zm.411-2.424c-1.977.421-2.898.986-2.898 1.775 0 .788.916 1.351 2.883 1.771l.604.129v-3.186h-.484l-.105-.489z"/>
    <path fill="#fff" d="M174.6438 64.6289v2.564c1.546-.328 2.501-.781 2.501-1.282 0-.5-.955-.953-2.501-1.282"/>
    <path d="M175.1435 66.5612v-1.3c1.103.293 1.463.581 1.507.681-.044.046-.403.328-1.507.619m-1-2.55v3.799l.604-.128c1.977-.42 2.898-.982 2.898-1.771 0-.787-.921-1.351-2.898-1.772l-.604-.128z"/>
    <path fill="#fff" d="M174.6428 68.6826c0-.721-2.728-1.306-6.094-1.306s-6.094.585-6.094 1.306c0 .721 2.728 1.306 6.094 1.306s6.094-.585 6.094-1.306"/>
    <path d="M163.0371 68.6823c.483-.316 2.361-.806 5.512-.806 3.15 0 5.028.49 5.511.806-.483.317-2.36.807-5.511.807-3.152 0-5.03-.49-5.512-.807m5.512-1.806c-1.102 0-6.594.087-6.594 1.806 0 1.72 5.492 1.807 6.594 1.807 1.101 0 6.593-.087 6.593-1.807 0-1.719-5.492-1.806-6.593-1.806"/>
    <path fill="#fff" d="M128.0697 64.5873v4.085c0-.721 2.728-1.306 6.094-1.306s6.094.585 6.094 1.306v-4.085.078c-1.558-.367-3.71-.594-6.087-.594-2.384 0-4.542.228-6.101.597"/>
    <path d="M128.5693 65.07c1.542-.323 3.511-.499 5.602-.499 2.081 0 4.045.175 5.586.495v2.544c-1.637-.696-4.789-.743-5.593-.743-.805 0-3.957.047-5.595.743v-2.54zm5.602-1.499c-2.344 0-4.552.217-6.217.611l.095.406h-.48v4.085h1c.193-.212 2.12-.806 5.595-.806 3.473 0 5.4.594 5.616.896l.977-.09v-4.085h-.481l.096-.41c-1.665-.391-3.867-.607-6.201-.607"/>
    <path fill="#fff" d="M140.2734 64.6651v2.568c1.537-.329 2.487-.782 2.487-1.282 0-.502-.957-.957-2.503-1.286"/>
    <path d="M140.7734 66.5993v-1.298c1.092.292 1.447.58 1.491.679-.044.048-.399.328-1.491.619m-.411-2.424l-.105.489h-.484v3.187l.604-.129c1.966-.421 2.882-.984 2.882-1.771 0-.78-.948-1.361-2.897-1.776"/>
    <path fill="#fff" d="M128.0687 64.6685v2.564c-1.546-.328-2.501-.781-2.501-1.282 0-.5.956-.953 2.501-1.282"/>
    <path d="M127.5683 66.6003c-1.102-.292-1.462-.581-1.506-.681.044-.045.404-.327 1.506-.618v1.299zm1-2.55l-.604.129c-1.976.421-2.897.984-2.897 1.772s.921 1.35 2.897 1.771l.604.128v-3.8z"/>
    <path fill="#fff" d="M128.0697 68.7222c0-.721 2.728-1.306 6.094-1.306s6.094.585 6.094 1.306c0 .721-2.728 1.306-6.094 1.306s-6.094-.585-6.094-1.306"/>
    <path d="M128.6513 68.7223c.483-.317 2.361-.806 5.513-.806 3.15 0 5.028.489 5.511.806-.483.317-2.361.806-5.511.806-3.151 0-5.03-.489-5.513-.806m5.513-1.806c-1.102 0-6.595.087-6.595 1.806s5.493 1.806 6.595 1.806c1.101 0 6.593-.087 6.593-1.806s-5.492-1.806-6.593-1.806"/>
    <path fill="#ed2324" d="M69.75 16.515h1.6v1.599h-1.6v-1.599zm-1.599 1.599h1.599v1.6h-1.599v-1.6z"/>
    <path fill="#ed2324" d="M66.552 19.714h1.599v1.599h-1.599v-1.599zm3.198-1.6h1.6v1.6h-1.6v-1.6z"/>
    <path fill="#ed2324" d="M69.75 19.714h1.6v1.599h-1.6v-1.599zm-1.599 0h1.599v1.599h-1.599v-1.599zm-3.199-1.6h1.6v1.6h-1.6v-1.6zm-11.194 0h1.599v1.6h-1.599v-1.6zm-3.199 0h1.599v1.6h-1.599v-1.6zm-1.599-1.599h1.599v1.599H48.96v-1.599zm0 1.599h1.599v1.6H48.96v-1.6zm0 1.6h1.599v1.599H48.96v-1.599zm1.599 0h1.599v1.599h-1.599v-1.599zm12.794-3.199h1.599v1.599h-1.599v-1.599zm-1.599 0h1.599v1.599h-1.599v-1.599zm0 1.599h1.599v1.6h-1.599v-1.6zm1.599 0h1.599v1.6h-1.599v-1.6zm-6.397-1.599h1.6v1.599h-1.6v-1.599zm-1.599 0h1.599v1.599h-1.599v-1.599zm0 1.599h1.599v1.6h-1.599v-1.6zm1.599 0h1.6v1.6h-1.6v-1.6z"/>
    <path fill="#ed2324" d="M60.154 19.714h1.6v1.599h-1.6v-1.599zm-1.598 0h1.598v1.599h-1.598v-1.599zm4.797 0h1.599v1.599h-1.599v-1.599zm1.599 0h1.6v1.599h-1.6v-1.599z"/>
    <path fill="#ed2324" d="M61.754 19.714h1.599v1.599h-1.599v-1.599zm-9.596 0h1.6v1.599h-1.6v-1.599zm3.199 0h1.599v1.599h-1.599v-1.599zm1.599 0h1.6v1.599h-1.6v-1.599zm-3.198 0h1.599v1.599h-1.599v-1.599zm12.794 1.599h1.599v1.599h-1.599v-1.599zm3.198 0h1.6v1.599h-1.6v-1.599z"/>
    <path fill="#ed2324" d="M68.151 21.313h1.599v1.599h-1.599v-1.599zm-19.191 0h1.599v1.599H48.96v-1.599zm1.599 0h1.599v1.599h-1.599v-1.599zm9.595 0h1.6v1.599h-1.6v-1.599zm-1.598 0h1.598v1.599h-1.598v-1.599zm4.797 0h1.599v1.599h-1.599v-1.599zm1.599 0h1.6v1.599h-1.6v-1.599z"/>
    <path fill="#ed2324" d="M61.754 21.313h1.599v1.599h-1.599v-1.599zm-9.596 0h1.6v1.599h-1.6v-1.599zm3.199 0h1.599v1.599h-1.599v-1.599zm1.599 0h1.6v1.599h-1.6v-1.599zm-3.198 0h1.599v1.599h-1.599v-1.599zm12.794 1.599h1.599v1.599h-1.599v-1.599zm3.198 0h1.6v1.599h-1.6v-1.599z"/>
    <path fill="#ed2324" d="M68.151 22.912h1.599v1.599h-1.599v-1.599zm-19.191 0h1.599v1.599H48.96v-1.599zm1.599 0h1.599v1.599h-1.599v-1.599zm9.595 0h1.6v1.599h-1.6v-1.599zm-1.598 0h1.598v1.599h-1.598v-1.599zm4.797 0h1.599v1.599h-1.599v-1.599zm1.599 0h1.6v1.599h-1.6v-1.599z"/>
    <path fill="#ed2324" d="M61.754 22.912h1.599v1.599h-1.599v-1.599zm-9.596 0h1.6v1.599h-1.6v-1.599zm3.199 0h1.599v1.599h-1.599v-1.599zm1.599 0h1.6v1.599h-1.6v-1.599zm-3.198 0h1.599v1.599h-1.599v-1.599zm12.794 1.599h1.599v1.599h-1.599v-1.599zm3.198 0h1.6v1.599h-1.6v-1.599z"/>
    <path fill="#ed2324" d="M68.151 24.511h1.599v1.599h-1.599v-1.599zm-19.191 0h1.599v1.599H48.96v-1.599zm1.599 0h1.599v1.599h-1.599v-1.599zm9.595 0h1.6v1.599h-1.6v-1.599zm-1.598 0h1.598v1.599h-1.598v-1.599zm4.797 0h1.599v1.599h-1.599v-1.599zm1.599 0h1.6v1.599h-1.6v-1.599z"/>
    <path fill="#ed2324" d="M61.754 24.511h1.599v1.599h-1.599v-1.599zm-9.596 0h1.6v1.599h-1.6v-1.599zm3.199 0h1.599v1.599h-1.599v-1.599zm1.599 0h1.6v1.599h-1.6v-1.599zm-3.198 0h1.599v1.599h-1.599v-1.599z"/>
    <path fill="#fff" d="M66.552 26.11h1.599v1.6h-1.599v-1.6z"/>
    <path fill="#ed2324" d="M69.75 26.11h1.6v1.6h-1.6v-1.6zm-1.599 0h1.599v1.6h-1.599v-1.6zm-19.191 0h1.599v1.6H48.96v-1.6zm1.599 0h1.599v1.6h-1.599v-1.6zm9.595 0h1.6v1.6h-1.6v-1.6zm-1.598 0h1.598v1.6h-1.598v-1.6zm4.797 0h1.599v1.6h-1.599v-1.6z"/>
    <path fill="#fff" d="M64.952 26.11h1.6v1.6h-1.6v-1.6z"/>
    <path fill="#ed2324" d="M61.754 26.11h1.599v1.6h-1.599v-1.6zm-9.596 0h1.6v1.6h-1.6v-1.6z"/>
    <path fill="#fff" d="M55.357 26.11h1.599v1.6h-1.599v-1.6zm1.599 0h1.6v1.6h-1.6v-1.6z"/>
    <path fill="#ed2324" d="M53.758 26.11h1.599v1.6h-1.599v-1.6z"/>
    <path fill="#232020" d="M66.552 27.71h1.599v1.599h-1.599V27.71z"/>
    <path fill="#ed2324" d="M69.75 27.71h1.6v1.599h-1.6V27.71z"/>
    <path fill="#232020" d="M68.151 27.71h1.599v1.599h-1.599V27.71z"/>
    <path fill="#ed2324" d="M48.96 27.71h1.599v1.599H48.96V27.71zm1.599 0h1.599v1.599h-1.599V27.71zm9.595 0h1.6v1.599h-1.6V27.71z"/>
    <path fill="#232020" d="M58.556 27.71h1.598v1.599h-1.598V27.71z"/>
    <path fill="#fff" d="M63.353 27.71h1.599v1.599h-1.599V27.71zm1.599 0h1.6v1.599h-1.6V27.71z"/>
    <path fill="#ed2324" d="M61.754 27.71h1.599v1.599h-1.599V27.71zm-9.596 0h1.6v1.599h-1.6V27.71z"/>
    <path fill="#fff" d="M55.357 27.71h1.599v1.599h-1.599V27.71z"/>
    <path fill="#232020" d="M56.956 27.71h1.6v1.599h-1.6V27.71z"/>
    <path fill="#fff" d="M53.758 27.71h1.599v1.599h-1.599V27.71z"/>
    <path fill="#232020" d="M66.552 29.309h1.599v1.599h-1.599v-1.599z"/>
    <path fill="#232020" d="M68.151 29.309h1.599v1.599h-1.599v-1.599z"/>
    <path fill="#ed2324" d="M50.559 29.309h1.599v1.599h-1.599v-1.599zm9.595 0h1.6v1.599h-1.6v-1.599z"/>
    <path fill="#232020" d="M58.556 29.309h1.598v1.599h-1.598v-1.599z"/>
    <path fill="#fff" d="M63.353 29.309h1.599v1.599h-1.599v-1.599zm1.599 0h1.6v1.599h-1.6v-1.599z"/>
    <path fill="#ed2324" d="M61.754 29.309h1.599v1.599h-1.599v-1.599zm-9.596 0h1.6v1.599h-1.6v-1.599z"/>
    <path fill="#fff" d="M55.357 29.309h1.599v1.599h-1.599v-1.599z"/>
    <path fill="#232020" d="M56.956 29.309h1.6v1.599h-1.6v-1.599z"/>
    <path fill="#fff" d="M53.758 29.309h1.599v1.599h-1.599v-1.599zm12.794 1.599h1.599v1.599h-1.599v-1.599z"/>
    <path fill="#fff" d="M68.151 30.908h1.599v1.599h-1.599v-1.599z"/>
    <path fill="#ed2324" d="M50.559 30.908h1.599v1.599h-1.599v-1.599zm9.595 0h1.6v1.599h-1.6v-1.599z"/>
    <path fill="#fff" d="M58.556 30.908h1.598v1.599h-1.598v-1.599zm4.797 0h1.599v1.599h-1.599v-1.599zm1.599 0h1.6v1.599h-1.6v-1.599z"/>
    <path fill="#ed2324" d="M61.754 30.908h1.599v1.599h-1.599v-1.599zm-9.596 0h1.6v1.599h-1.6v-1.599z"/>
    <path fill="#fff" d="M55.357 30.908h1.599v1.599h-1.599v-1.599zm1.599 0h1.6v1.599h-1.6v-1.599zm-3.198 0h1.599v1.599h-1.599v-1.599zm12.794 1.599h1.599v1.6h-1.599v-1.6z"/>
    <path fill="#ed2324" d="M68.151 32.507h1.599v1.6h-1.599v-1.6zm-17.592 0h1.599v1.6h-1.599v-1.6zm9.595 0h1.6v1.6h-1.6v-1.6zm-1.598 0h1.598v1.6h-1.598v-1.6zm4.797 0h1.599v1.6h-1.599v-1.6z"/>
    <path fill="#fff" d="M64.952 32.507h1.6v1.6h-1.6v-1.6z"/>
    <path fill="#ed2324" d="M61.754 32.507h1.599v1.6h-1.599v-1.6zm-9.596 0h1.6v1.6h-1.6v-1.6z"/>
    <path fill="#fff" d="M55.357 32.507h1.599v1.6h-1.599v-1.6zm1.599 0h1.6v1.6h-1.6v-1.6z"/>
    <path fill="#ed2324" d="M53.758 32.507h1.599v1.6h-1.599v-1.6zm12.794 1.6h1.599v1.599h-1.599v-1.599zm-6.398 0h1.6v1.599h-1.6v-1.599zm-1.598 0h1.598v1.599h-1.598v-1.599zm4.797 0h1.599v1.599h-1.599v-1.599zm1.599 0h1.6v1.599h-1.6v-1.599z"/>
    <path fill="#ed2324" d="M61.754 34.107h1.599v1.599h-1.599v-1.599zm-9.596 0h1.6v1.599h-1.6v-1.599zm3.199 0h1.599v1.599h-1.599v-1.599zm1.599 0h1.6v1.599h-1.6v-1.599zm-3.198 0h1.599v1.599h-1.599v-1.599zm6.396 1.599h1.6v1.599h-1.6v-1.599zm-1.598 0h1.598v1.599h-1.598v-1.599zm4.797 0h1.599v1.599h-1.599v-1.599zm1.599 0h1.6v1.599h-1.6v-1.599zm-3.198 0h1.599v1.599h-1.599v-1.599zm-6.397 0h1.599v1.599h-1.599v-1.599zm1.599 0h1.6v1.599h-1.6v-1.599zm-3.198 0h1.599v1.599h-1.599v-1.599zm6.396 1.599h1.6v1.599h-1.6v-1.599zm-1.598 0h1.598v1.599h-1.598v-1.599zm3.198 0h1.599v1.599h-1.599v-1.599zm-4.798 0h1.6v1.599h-1.6v-1.599z"/>
    <path fill="#f7b9d4" d="M228.94 17.383h-1.599v1.599h1.599v-1.599zm1.6 1.599h-1.6v1.6h1.6v-1.6zm1.598 1.6h-1.598v1.599h1.598v-1.599zm-3.198-1.6h-1.599v1.6h1.599v-1.6zm0 1.6h-1.599v1.599h1.599v-1.599zm1.6 0h-1.6v1.599h1.6v-1.599zm3.198-1.6h-1.6v1.6h1.6v-1.6zm11.194 0h-1.598v1.6h1.598v-1.6zm3.199 0h-1.6v1.6h1.6v-1.6zm1.599-1.599h-1.598v1.599h1.598v-1.599zm0 1.599h-1.598v1.6h1.598v-1.6zm0 1.6h-1.598v1.599h1.598v-1.599zm-1.599 0h-1.599v1.599h1.599v-1.599zm-12.793-3.199h-1.6v1.599h1.6v-1.599zm1.598 0h-1.598v1.599h1.598v-1.599zm0 1.599h-1.598v1.6h1.598v-1.6zm-1.598 0h-1.6v1.6h1.6v-1.6zm6.396-1.599h-1.599v1.599h1.599v-1.599z"/>
    <path fill="#f7b9d4" d="M243.333 17.383h-1.6v1.599h1.6v-1.599zm0 1.599h-1.6v1.6h1.6v-1.6z"/>
    <path fill="#f7b9d4" d="M241.734 18.982h-1.599v1.6h1.599v-1.6zm-3.198 1.6h-1.6v1.599h1.6v-1.599zm1.599 0h-1.599v1.599h1.599v-1.599zm-4.797 0h-1.6v1.599h1.6v-1.599zm-1.6 0h-1.6v1.599h1.6v-1.599zm3.198 0h-1.598v1.599h1.598v-1.599zm9.596 0h-1.6v1.599h1.6v-1.599zm-3.199 0h-1.6v1.599h1.6v-1.599z"/>
    <path fill="#f7b9d4" d="M241.734 20.582h-1.599v1.599h1.599v-1.599zm3.198 0h-1.598v1.599h1.598v-1.599zm-12.794 1.599h-1.598v1.599h1.598v-1.599zm-3.198 0h-1.599v1.599h1.599v-1.599zm1.6 0h-1.6v1.599h1.6v-1.599zm19.19 0h-1.598v1.599h1.598v-1.599zm-1.599 0h-1.599v1.599h1.599v-1.599zm-9.595 0h-1.6v1.599h1.6v-1.599zm1.599 0h-1.599v1.599h1.599v-1.599zm-4.797 0h-1.6v1.599h1.6v-1.599zm-1.6 0h-1.6v1.599h1.6v-1.599zm3.198 0h-1.598v1.599h1.598v-1.599zm9.596 0h-1.6v1.599h1.6v-1.599zm-3.199 0h-1.6v1.599h1.6v-1.599z"/>
    <path fill="#f7b9d4" d="M241.734 22.181h-1.599v1.599h1.599v-1.599zm3.198 0h-1.598v1.599h1.598v-1.599zm-12.794 1.599h-1.598v1.599h1.598V23.78zm-3.198 0h-1.599v1.599h1.599V23.78zm1.6 0h-1.6v1.599h1.6V23.78zm19.19 0h-1.598v1.599h1.598V23.78zm-1.599 0h-1.599v1.599h1.599V23.78zm-9.595 0h-1.6v1.599h1.6V23.78zm1.599 0h-1.599v1.599h1.599V23.78zm-4.797 0h-1.6v1.599h1.6V23.78zm-1.6 0h-1.6v1.599h1.6V23.78zm3.198 0h-1.598v1.599h1.598V23.78zm9.596 0h-1.6v1.599h1.6V23.78zm-3.199 0h-1.6v1.599h1.6V23.78z"/>
    <path fill="#f7b9d4" d="M241.734 23.78h-1.599v1.599h1.599V23.78zm3.198 0h-1.598v1.599h1.598V23.78zm-12.794 1.599h-1.598v1.599h1.598v-1.599zm-3.198 0h-1.599v1.599h1.599v-1.599zm1.6 0h-1.6v1.599h1.6v-1.599zm19.19 0h-1.598v1.599h1.598v-1.599zm-1.599 0h-1.599v1.599h1.599v-1.599zm-9.595 0h-1.6v1.599h1.6v-1.599zm1.599 0h-1.599v1.599h1.599v-1.599zm-4.797 0h-1.6v1.599h1.6v-1.599zm-1.6 0h-1.6v1.599h1.6v-1.599zm3.198 0h-1.598v1.599h1.598v-1.599zm9.596 0h-1.6v1.599h1.6v-1.599zm-3.199 0h-1.6v1.599h1.6v-1.599z"/>
    <path fill="#f7b9d4" d="M241.734 25.379h-1.599v1.599h1.599v-1.599zm3.198 0h-1.598v1.599h1.598v-1.599z"/>
    <path fill="#fff" d="M232.138 26.978h-1.598v1.6h1.598v-1.6z"/>
    <path fill="#f7b9d4" d="M228.94 26.978h-1.599v1.6h1.599v-1.6zm1.6 0h-1.6v1.6h1.6v-1.6zm19.19 0h-1.598v1.6h1.598v-1.6zm-1.599 0h-1.599v1.6h1.599v-1.6zm-9.595 0h-1.6v1.6h1.6v-1.6zm1.599 0h-1.599v1.6h1.599v-1.6zm-4.797 0h-1.6v1.6h1.6v-1.6z"/>
    <path fill="#fff" d="M233.738 26.978h-1.6v1.6h1.6v-1.6z"/>
    <path fill="#f7b9d4" d="M236.936 26.978h-1.598v1.6h1.598v-1.6zm9.596 0h-1.6v1.6h1.6v-1.6z"/>
    <path fill="#fff" d="M243.333 26.978h-1.6v1.6h1.6v-1.6z"/>
    <path fill="#fff" d="M241.734 26.978h-1.599v1.6h1.599v-1.6z"/>
    <path fill="#f7b9d4" d="M244.932 26.978h-1.598v1.6h1.598v-1.6z"/>
    <path fill="#232020" d="M232.138 28.578h-1.598v1.599h1.598v-1.599z"/>
    <path fill="#f7b9d4" d="M228.94 28.578h-1.599v1.599h1.599v-1.599z"/>
    <path fill="#232020" d="M230.54 28.578h-1.6v1.599h1.6v-1.599z"/>
    <path fill="#f7b9d4" d="M249.73 28.578h-1.598v1.599h1.598v-1.599zm-1.599 0h-1.599v1.599h1.599v-1.599zm-9.595 0h-1.6v1.599h1.6v-1.599z"/>
    <path fill="#232020" d="M240.135 28.578h-1.599v1.599h1.599v-1.599z"/>
    <path fill="#fff" d="M235.338 28.578h-1.6v1.599h1.6v-1.599zm-1.6 0h-1.6v1.599h1.6v-1.599z"/>
    <path fill="#f7b9d4" d="M236.936 28.578h-1.598v1.599h1.598v-1.599zm9.596 0h-1.6v1.599h1.6v-1.599z"/>
    <path fill="#fff" d="M243.333 28.578h-1.6v1.599h1.6v-1.599z"/>
    <path fill="#232020" d="M241.734 28.578h-1.599v1.599h1.599v-1.599z"/>
    <path fill="#fff" d="M244.932 28.578h-1.598v1.599h1.598v-1.599z"/>
    <path fill="#232020" d="M232.138 30.177h-1.598v1.599h1.598v-1.599zm-1.598 0h-1.6v1.599h1.6v-1.599z"/>
    <path fill="#f7b9d4" d="M248.131 30.177h-1.599v1.599h1.599v-1.599zm-9.595 0h-1.6v1.599h1.6v-1.599z"/>
    <path fill="#232020" d="M240.135 30.177h-1.599v1.599h1.599v-1.599z"/>
    <path fill="#fff" d="M235.338 30.177h-1.6v1.599h1.6v-1.599zm-1.6 0h-1.6v1.599h1.6v-1.599z"/>
    <path fill="#f7b9d4" d="M236.936 30.177h-1.598v1.599h1.598v-1.599zm9.596 0h-1.6v1.599h1.6v-1.599z"/>
    <path fill="#fff" d="M243.333 30.177h-1.6v1.599h1.6v-1.599z"/>
    <path fill="#232020" d="M241.734 30.177h-1.599v1.599h1.599v-1.599z"/>
    <path fill="#fff" d="M244.932 30.177h-1.598v1.599h1.598v-1.599zm-12.794 1.599h-1.598v1.599h1.598v-1.599zm-1.598 0h-1.6v1.599h1.6v-1.599z"/>
    <path fill="#f7b9d4" d="M248.131 31.776h-1.599v1.599h1.599v-1.599zm-9.595 0h-1.6v1.599h1.6v-1.599z"/>
    <path fill="#fff" d="M240.135 31.776h-1.599v1.599h1.599v-1.599zm-4.797 0h-1.6v1.599h1.6v-1.599zm-1.6 0h-1.6v1.599h1.6v-1.599z"/>
    <path fill="#f7b9d4" d="M236.936 31.776h-1.598v1.599h1.598v-1.599zm9.596 0h-1.6v1.599h1.6v-1.599z"/>
    <path fill="#fff" d="M243.333 31.776h-1.6v1.599h1.6v-1.599z"/>
    <path fill="#fff" d="M241.734 31.776h-1.599v1.599h1.599v-1.599zm3.198 0h-1.598v1.599h1.598v-1.599zm-12.794 1.599h-1.598v1.6h1.598v-1.6z"/>
    <path fill="#f7b9d4" d="M230.54 33.375h-1.6v1.6h1.6v-1.6zm17.591 0h-1.599v1.6h1.599v-1.6zm-9.595 0h-1.6v1.6h1.6v-1.6zm1.599 0h-1.599v1.6h1.599v-1.6zm-4.797 0h-1.6v1.6h1.6v-1.6z"/>
    <path fill="#fff" d="M233.738 33.375h-1.6v1.6h1.6v-1.6z"/>
    <path fill="#f7b9d4" d="M236.936 33.375h-1.598v1.6h1.598v-1.6zm9.596 0h-1.6v1.6h1.6v-1.6z"/>
    <path fill="#fff" d="M243.333 33.375h-1.6v1.6h1.6v-1.6z"/>
    <path fill="#fff" d="M241.734 33.375h-1.599v1.6h1.599v-1.6z"/>
    <path fill="#f7b9d4" d="M244.932 33.375h-1.598v1.6h1.598v-1.6zm-12.794 1.6h-1.598v1.599h1.598v-1.599zm6.398 0h-1.6v1.599h1.6v-1.599zm1.599 0h-1.599v1.599h1.599v-1.599zm-4.797 0h-1.6v1.599h1.6v-1.599zm-1.6 0h-1.6v1.599h1.6v-1.599zm3.198 0h-1.598v1.599h1.598v-1.599zm9.596 0h-1.6v1.599h1.6v-1.599zm-3.199 0h-1.6v1.599h1.6v-1.599z"/>
    <path fill="#f7b9d4" d="M241.734 34.975h-1.599v1.599h1.599v-1.599zm3.198 0h-1.598v1.599h1.598v-1.599zm-6.396 1.599h-1.6v1.599h1.6v-1.599zm1.599 0h-1.599v1.599h1.599v-1.599zm-4.797 0h-1.6v1.599h1.6v-1.599zm-1.6 0h-1.6v1.599h1.6v-1.599zm3.198 0h-1.598v1.599h1.598v-1.599zm6.397 0h-1.6v1.599h1.6v-1.599z"/>
    <path fill="#f7b9d4" d="M241.734 36.574h-1.599v1.599h1.599v-1.599zm3.198 0h-1.598v1.599h1.598v-1.599zm-6.396 1.599h-1.6v1.599h1.6v-1.599zm1.599 0h-1.599v1.599h1.599v-1.599zm-3.199 0h-1.598v1.599h1.598v-1.599zm4.798 0h-1.599v1.599h1.599v-1.599z"/>
    <path fill="#f17720" d="M213.003 15.783h1.599v1.599h-1.599v-1.599zm-1.599 1.599h1.599v1.6h-1.599v-1.6zm-1.6 1.6h1.599v1.599h-1.599v-1.599zm3.199-1.6h1.599v1.6h-1.599v-1.6zm0 1.6h1.599v1.599h-1.599v-1.599zm-1.599 0h1.599v1.599h-1.599v-1.599zm-3.199-1.6h1.599v1.6h-1.599v-1.6zm-11.195 0h1.6v1.6h-1.6v-1.6zm-3.198 0h1.599v1.6h-1.599v-1.6zm-1.599-1.599h1.599v1.599h-1.599v-1.599zm0 1.599h1.599v1.6h-1.599v-1.6z"/>
    <path fill="#f17720" d="M192.213 18.982h1.599v1.599h-1.599v-1.599zm1.599 0h1.599v1.599h-1.599v-1.599zm12.794-3.199h1.6v1.599h-1.6v-1.599zm-1.599 0h1.599v1.599h-1.599v-1.599zm0 1.599h1.599v1.6h-1.599v-1.6zm1.599 0h1.6v1.6h-1.6v-1.6zm-6.397-1.599h1.599v1.599h-1.599v-1.599zm-1.599 0h1.599v1.599h-1.599v-1.599zm0 1.599h1.599v1.6h-1.599v-1.6zm1.599 0h1.599v1.6h-1.599v-1.6zm3.199 1.6h1.599v1.599h-1.599v-1.599zm-1.6 0h1.6v1.599h-1.6v-1.599zm4.798 0h1.6v1.599h-1.6v-1.599z"/>
    <path fill="#f17720" d="M208.205 18.982h1.599v1.599h-1.599v-1.599zm-3.198 0h1.599v1.599h-1.599v-1.599zm-9.596 0h1.599v1.599h-1.599v-1.599zm3.199 0h1.599v1.599h-1.599v-1.599zm1.599 0h1.599v1.599h-1.599v-1.599zm-3.199 0h1.6v1.599h-1.6v-1.599zm12.794 1.599h1.599v1.599h-1.599v-1.599zm3.199 0h1.599v1.599h-1.599v-1.599zm-1.599 0h1.599v1.599h-1.599v-1.599zm-19.191 0h1.599v1.599h-1.599v-1.599zm1.599 0h1.599v1.599h-1.599v-1.599zm9.596 0h1.599v1.599h-1.599v-1.599zm-1.6 0h1.6v1.599h-1.6v-1.599zm4.798 0h1.6v1.599h-1.6v-1.599z"/>
    <path fill="#f17720" d="M208.205 20.581h1.599v1.599h-1.599v-1.599zm-3.198 0h1.599v1.599h-1.599v-1.599zm-9.596 0h1.599v1.599h-1.599v-1.599zm3.199 0h1.599v1.599h-1.599v-1.599zm1.599 0h1.599v1.599h-1.599v-1.599zm-3.199 0h1.6v1.599h-1.6v-1.599zm12.794 1.599h1.599v1.599h-1.599V22.18zm3.199 0h1.599v1.599h-1.599V22.18zm-1.599 0h1.599v1.599h-1.599V22.18zm-19.191 0h1.599v1.599h-1.599V22.18zm1.599 0h1.599v1.599h-1.599V22.18zm9.596 0h1.599v1.599h-1.599V22.18zm-1.6 0h1.6v1.599h-1.6V22.18zm4.798 0h1.6v1.599h-1.6V22.18z"/>
    <path fill="#f17720" d="M208.205 22.18h1.599v1.599h-1.599V22.18zm-3.198 0h1.599v1.599h-1.599V22.18zm-9.596 0h1.599v1.599h-1.599V22.18zm3.199 0h1.599v1.599h-1.599V22.18zm1.599 0h1.599v1.599h-1.599V22.18zm-3.199 0h1.6v1.599h-1.6V22.18zm12.794 1.599h1.599v1.6h-1.599v-1.6zm3.199 0h1.599v1.6h-1.599v-1.6zm-1.599 0h1.599v1.6h-1.599v-1.6zm-19.191 0h1.599v1.6h-1.599v-1.6zm1.599 0h1.599v1.6h-1.599v-1.6zm9.596 0h1.599v1.6h-1.599v-1.6zm-1.6 0h1.6v1.6h-1.6v-1.6zm4.798 0h1.6v1.6h-1.6v-1.6z"/>
    <path fill="#f17720" d="M208.205 23.779h1.599v1.6h-1.599v-1.6zm-3.198 0h1.599v1.6h-1.599v-1.6zm-9.596 0h1.599v1.6h-1.599v-1.6zm3.199 0h1.599v1.6h-1.599v-1.6zm1.599 0h1.599v1.6h-1.599v-1.6zm-3.199 0h1.6v1.6h-1.6v-1.6z"/>
    <path fill="#fff" d="M209.804 25.379h1.599v1.599h-1.599v-1.599z"/>
    <path fill="#f17720" d="M213.003 25.379h1.599v1.599h-1.599v-1.599zm-1.599 0h1.599v1.599h-1.599v-1.599zm-19.191 0h1.599v1.599h-1.599v-1.599zm1.599 0h1.599v1.599h-1.599v-1.599zm9.596 0h1.599v1.599h-1.599v-1.599zm-1.6 0h1.6v1.599h-1.6v-1.599zm4.798 0h1.6v1.599h-1.6v-1.599z"/>
    <path fill="#fff" d="M208.205 25.379h1.599v1.599h-1.599v-1.599z"/>
    <path fill="#f17720" d="M205.007 25.379h1.599v1.599h-1.599v-1.599zm-9.596 0h1.599v1.599h-1.599v-1.599z"/>
    <path fill="#fff" d="M198.61 25.379h1.599v1.599h-1.599v-1.599zm1.599 0h1.599v1.599h-1.599v-1.599z"/>
    <path fill="#f17720" d="M197.01 25.379h1.6v1.599h-1.6v-1.599z"/>
    <path fill="#232020" d="M209.804 26.978h1.599v1.599h-1.599v-1.599z"/>
    <path fill="#f17720" d="M213.003 26.978h1.599v1.599h-1.599v-1.599z"/>
    <path fill="#232020" d="M211.404 26.978h1.599v1.599h-1.599v-1.599z"/>
    <path fill="#f17720" d="M192.213 26.978h1.599v1.599h-1.599v-1.599zm1.599 0h1.599v1.599h-1.599v-1.599zm9.596 0h1.599v1.599h-1.599v-1.599z"/>
    <path fill="#232020" d="M201.808 26.978h1.6v1.599h-1.6v-1.599z"/>
    <path fill="#fff" d="M206.606 26.978h1.6v1.599h-1.6v-1.599z"/>
    <path fill="#fff" d="M208.205 26.978h1.599v1.599h-1.599v-1.599z"/>
    <path fill="#f17720" d="M205.007 26.978h1.599v1.599h-1.599v-1.599zm-9.596 0h1.599v1.599h-1.599v-1.599z"/>
    <path fill="#fff" d="M198.61 26.978h1.599v1.599h-1.599v-1.599z"/>
    <path fill="#232020" d="M200.209 26.978h1.599v1.599h-1.599v-1.599z"/>
    <path fill="#fff" d="M197.01 26.978h1.6v1.599h-1.6v-1.599z"/>
    <path fill="#232020" d="M209.804 28.577h1.599v1.599h-1.599v-1.599zm1.6 0h1.599v1.599h-1.599v-1.599z"/>
    <path fill="#f17720" d="M193.812 28.577h1.599v1.599h-1.599v-1.599zm9.596 0h1.599v1.599h-1.599v-1.599z"/>
    <path fill="#232020" d="M201.808 28.577h1.6v1.599h-1.6v-1.599z"/>
    <path fill="#fff" d="M206.606 28.577h1.6v1.599h-1.6v-1.599z"/>
    <path fill="#fff" d="M208.205 28.577h1.599v1.599h-1.599v-1.599z"/>
    <path fill="#f17720" d="M205.007 28.577h1.599v1.599h-1.599v-1.599zm-9.596 0h1.599v1.599h-1.599v-1.599z"/>
    <path fill="#fff" d="M198.61 28.577h1.599v1.599h-1.599v-1.599z"/>
    <path fill="#232020" d="M200.209 28.577h1.599v1.599h-1.599v-1.599z"/>
    <path fill="#fff" d="M197.01 28.577h1.6v1.599h-1.6v-1.599zm12.794 1.599h1.599v1.599h-1.599v-1.599zm1.6 0h1.599v1.599h-1.599v-1.599z"/>
    <path fill="#f17720" d="M193.812 30.176h1.599v1.599h-1.599v-1.599zm9.596 0h1.599v1.599h-1.599v-1.599z"/>
    <path fill="#fff" d="M201.808 30.176h1.6v1.599h-1.6v-1.599zm4.798 0h1.6v1.599h-1.6v-1.599z"/>
    <path fill="#fff" d="M208.205 30.176h1.599v1.599h-1.599v-1.599z"/>
    <path fill="#f17720" d="M205.007 30.176h1.599v1.599h-1.599v-1.599zm-9.596 0h1.599v1.599h-1.599v-1.599z"/>
    <path fill="#fff" d="M198.61 30.176h1.599v1.599h-1.599v-1.599zm1.599 0h1.599v1.599h-1.599v-1.599zm-3.199 0h1.6v1.599h-1.6v-1.599zm12.794 1.599h1.599v1.6h-1.599v-1.6z"/>
    <path fill="#f17720" d="M211.404 31.775h1.599v1.6h-1.599v-1.6zm-17.592 0h1.599v1.6h-1.599v-1.6zm9.596 0h1.599v1.6h-1.599v-1.6zm-1.6 0h1.6v1.6h-1.6v-1.6zm4.798 0h1.6v1.6h-1.6v-1.6z"/>
    <path fill="#fff" d="M208.205 31.775h1.599v1.6h-1.599v-1.6z"/>
    <path fill="#f17720" d="M205.007 31.775h1.599v1.6h-1.599v-1.6zm-9.596 0h1.599v1.6h-1.599v-1.6z"/>
    <path fill="#fff" d="M198.61 31.775h1.599v1.6h-1.599v-1.6zm1.599 0h1.599v1.6h-1.599v-1.6z"/>
    <path fill="#f17720" d="M197.01 31.775h1.6v1.6h-1.6v-1.6zm12.794 1.6h1.599v1.599h-1.599v-1.599zm-6.396 0h1.599v1.599h-1.599v-1.599zm-1.6 0h1.6v1.599h-1.6v-1.599zm4.798 0h1.6v1.599h-1.6v-1.599z"/>
    <path fill="#f17720" d="M208.205 33.375h1.599v1.599h-1.599v-1.599zm-3.198 0h1.599v1.599h-1.599v-1.599zm-9.596 0h1.599v1.599h-1.599v-1.599zm3.199 0h1.599v1.599h-1.599v-1.599zm1.599 0h1.599v1.599h-1.599v-1.599zm-3.199 0h1.6v1.599h-1.6v-1.599zm6.398 1.599h1.599v1.599h-1.599v-1.599zm-1.6 0h1.6v1.599h-1.6v-1.599zm4.798 0h1.6v1.599h-1.6v-1.599z"/>
    <path fill="#f17720" d="M208.205 34.974h1.599v1.599h-1.599v-1.599zm-3.198 0h1.599v1.599h-1.599v-1.599zm-6.397 0h1.599v1.599h-1.599v-1.599zm1.599 0h1.599v1.599h-1.599v-1.599zm-3.199 0h1.6v1.599h-1.6v-1.599zm6.398 1.599h1.599v1.6h-1.599v-1.6zm-1.6 0h1.6v1.6h-1.6v-1.6zm3.199 0h1.599v1.6h-1.599v-1.6zm-4.798 0h1.599v1.6h-1.599v-1.6z"/>
    <path fill="#6ab4d6" d="M34.621 16.583h1.6v1.599h-1.6v-1.599zm-1.599 1.599h1.599v1.6h-1.599v-1.6zm-1.599 1.599h1.599v1.599h-1.599v-1.599zm3.198-1.599h1.6v1.6h-1.6v-1.6z"/>
    <path fill="#6ab4d6" d="M34.621 19.781h1.6v1.599h-1.6v-1.599zm-1.599 0h1.599v1.599h-1.599v-1.599zm-3.198-1.599h1.599v1.6h-1.599v-1.6zm-11.194 0h1.599v1.6H18.63v-1.6zm-3.198 0h1.599v1.6h-1.599v-1.6zm-1.6-1.599h1.599v1.599h-1.599v-1.599zm0 1.599h1.599v1.6h-1.599v-1.6z"/>
    <path fill="#6ab4d6" d="M13.832 19.781h1.599v1.599h-1.599v-1.599zm1.6 0h1.599v1.599h-1.599v-1.599zm12.793-3.198h1.599v1.599h-1.599v-1.599zm-1.6 0h1.6v1.599h-1.6v-1.599zm0 1.599h1.6v1.6h-1.6v-1.6zm1.6 0h1.599v1.6h-1.599v-1.6zm-6.397-1.599h1.599v1.599h-1.599v-1.599z"/>
    <path fill="#6ab4d6" d="M20.229 16.583h1.6v1.599h-1.6v-1.599zm0 1.599h1.6v1.6h-1.6v-1.6z"/>
    <path fill="#6ab4d6" d="M21.828 18.182h1.599v1.6h-1.599v-1.6zm3.198 1.599h1.599v1.599h-1.599v-1.599zm-1.599 0h1.599v1.599h-1.599v-1.599zm4.798 0h1.599v1.599h-1.599v-1.599zm1.599 0h1.599v1.599h-1.599v-1.599zm-3.199 0h1.6v1.599h-1.6v-1.599zm-9.594 0h1.599v1.599h-1.599v-1.599z"/>
    <path fill="#6ab4d6" d="M20.229 19.781h1.6v1.599h-1.6v-1.599z"/>
    <path fill="#6ab4d6" d="M21.828 19.781h1.599v1.599h-1.599v-1.599zm-3.198 0h1.599v1.599H18.63v-1.599zm12.793 1.599h1.599v1.599h-1.599V21.38zm3.198 0h1.6v1.599h-1.6V21.38zm-1.599 0h1.599v1.599h-1.599V21.38zm-19.19 0h1.599v1.599h-1.599V21.38zm1.6 0h1.599v1.599h-1.599V21.38zm9.594 0h1.599v1.599h-1.599V21.38zm-1.599 0h1.599v1.599h-1.599V21.38zm4.798 0h1.599v1.599h-1.599V21.38z"/>
    <path fill="#6ab4d6" d="M29.824 21.38h1.599v1.599h-1.599V21.38zm-3.199 0h1.6v1.599h-1.6V21.38zm-9.594 0h1.599v1.599h-1.599V21.38zm3.198 0h1.6v1.599h-1.6V21.38z"/>
    <path fill="#6ab4d6" d="M21.828 21.38h1.599v1.599h-1.599V21.38zm-3.198 0h1.599v1.599H18.63V21.38zm12.793 1.599h1.599v1.599h-1.599v-1.599zm3.198 0h1.6v1.599h-1.6v-1.599zm-1.599 0h1.599v1.599h-1.599v-1.599zm-19.19 0h1.599v1.599h-1.599v-1.599zm1.6 0h1.599v1.599h-1.599v-1.599zm9.594 0h1.599v1.599h-1.599v-1.599zm-1.599 0h1.599v1.599h-1.599v-1.599zm4.798 0h1.599v1.599h-1.599v-1.599z"/>
    <path fill="#6ab4d6" d="M29.824 22.979h1.599v1.599h-1.599v-1.599zm-3.199 0h1.6v1.599h-1.6v-1.599zm-9.594 0h1.599v1.599h-1.599v-1.599zm3.198 0h1.6v1.599h-1.6v-1.599z"/>
    <path fill="#6ab4d6" d="M21.828 22.979h1.599v1.599h-1.599v-1.599zm-3.198 0h1.599v1.599H18.63v-1.599zm12.793 1.6h1.599v1.6h-1.599v-1.6zm3.198 0h1.6v1.6h-1.6v-1.6zm-1.599 0h1.599v1.6h-1.599v-1.6zm-19.19 0h1.599v1.6h-1.599v-1.6zm1.6 0h1.599v1.6h-1.599v-1.6zm9.594 0h1.599v1.6h-1.599v-1.6zm-1.599 0h1.599v1.6h-1.599v-1.6zm4.798 0h1.599v1.6h-1.599v-1.6z"/>
    <path fill="#6ab4d6" d="M29.824 24.579h1.599v1.6h-1.599v-1.6zm-3.199 0h1.6v1.6h-1.6v-1.6zm-9.594 0h1.599v1.6h-1.599v-1.6zm3.198 0h1.6v1.6h-1.6v-1.6z"/>
    <path fill="#6ab4d6" d="M21.828 24.579h1.599v1.6h-1.599v-1.6zm-3.198 0h1.599v1.6H18.63v-1.6zm12.793 1.599h1.599v1.599h-1.599v-1.599zm3.198 0h1.6v1.599h-1.6v-1.599zm-1.599 0h1.599v1.599h-1.599v-1.599zm-19.19 0h1.599v1.599h-1.599v-1.599zm1.6 0h1.599v1.599h-1.599v-1.599zm9.594 0h1.599v1.599h-1.599v-1.599zm-1.599 0h1.599v1.599h-1.599v-1.599zm4.798 0h1.599v1.599h-1.599v-1.599z"/>
    <path fill="#6ab4d6" d="M29.824 26.178h1.599v1.599h-1.599v-1.599zm-3.199 0h1.6v1.599h-1.6v-1.599zm-9.594 0h1.599v1.599h-1.599v-1.599zm3.198 0h1.6v1.599h-1.6v-1.599z"/>
    <path fill="#6ab4d6" d="M21.828 26.178h1.599v1.599h-1.599v-1.599zm-3.198 0h1.599v1.599H18.63v-1.599zm12.793 1.599h1.599v1.599h-1.599v-1.599zm3.198 0h1.6v1.599h-1.6v-1.599zm-1.599 0h1.599v1.599h-1.599v-1.599zm-19.19 0h1.599v1.599h-1.599v-1.599zm1.6 0h1.599v1.599h-1.599v-1.599zm9.594 0h1.599v1.599h-1.599v-1.599zm-1.599 0h1.599v1.599h-1.599v-1.599zm4.798 0h1.599v1.599h-1.599v-1.599z"/>
    <path fill="#6ab4d6" d="M29.824 27.777h1.599v1.599h-1.599v-1.599zm-3.199 0h1.6v1.599h-1.6v-1.599zm-9.594 0h1.599v1.599h-1.599v-1.599zm3.198 0h1.6v1.599h-1.6v-1.599z"/>
    <path fill="#6ab4d6" d="M21.828 27.777h1.599v1.599h-1.599v-1.599zm-3.198 0h1.599v1.599H18.63v-1.599zm12.793 1.599h1.599v1.599h-1.599v-1.599zm1.599 0h1.599v1.599h-1.599v-1.599zm-17.59 0h1.599v1.599h-1.599v-1.599zm9.594 0h1.599v1.599h-1.599v-1.599zm-1.599 0h1.599v1.599h-1.599v-1.599zm4.798 0h1.599v1.599h-1.599v-1.599z"/>
    <path fill="#6ab4d6" d="M29.824 29.376h1.599v1.599h-1.599v-1.599zm-3.199 0h1.6v1.599h-1.6v-1.599zm-9.594 0h1.599v1.599h-1.599v-1.599zm3.198 0h1.6v1.599h-1.6v-1.599z"/>
    <path fill="#6ab4d6" d="M21.828 29.376h1.599v1.599h-1.599v-1.599zm-3.198 0h1.599v1.599H18.63v-1.599zm12.793 1.599h1.599v1.599h-1.599v-1.599zm1.599 0h1.599v1.599h-1.599v-1.599zm-17.59 0h1.599v1.599h-1.599v-1.599zm9.594 0h1.599v1.599h-1.599v-1.599zm-1.599 0h1.599v1.599h-1.599v-1.599z"/>
    <path fill="#fff" d="M28.225 30.975h1.599v1.599h-1.599v-1.599zm1.599 0h1.599v1.599h-1.599v-1.599z"/>
    <path fill="#6ab4d6" d="M26.625 30.975h1.6v1.599h-1.6v-1.599zm-9.594 0h1.599v1.599h-1.599v-1.599z"/>
    <path fill="#fff" d="M20.229 30.975h1.6v1.599h-1.6v-1.599z"/>
    <path fill="#6ab4d6" d="M21.828 30.975h1.599v1.599h-1.599v-1.599z"/>
    <path fill="#fff" d="M18.63 30.975h1.599v1.599H18.63v-1.599zm12.793 1.599h1.599v1.6h-1.599v-1.6z"/>
    <path fill="#6ab4d6" d="M33.022 32.574h1.599v1.6h-1.599v-1.6zm-17.59 0h1.599v1.6h-1.599v-1.6zm9.594 0h1.599v1.6h-1.599v-1.6zm-1.599 0h1.599v1.6h-1.599v-1.6z"/>
    <path fill="#fff" d="M28.225 32.574h1.599v1.6h-1.599v-1.6zm1.599 0h1.599v1.6h-1.599v-1.6zm-3.199 0h1.6v1.6h-1.6v-1.6zm-9.594 0h1.599v1.6h-1.599v-1.6zm3.198 0h1.6v1.6h-1.6v-1.6z"/>
    <path fill="#fff" d="M21.828 32.574h1.599v1.6h-1.599v-1.6zm-3.198 0h1.599v1.6H18.63v-1.6zm12.793 1.6h1.599v1.599h-1.599v-1.599z"/>
    <path fill="#6ab4d6" d="M25.026 34.174h1.599v1.599h-1.599v-1.599zm-1.599 0h1.599v1.599h-1.599v-1.599z"/>
    <path fill="#232020" d="M28.225 34.174h1.599v1.599h-1.599v-1.599zm1.599 0h1.599v1.599h-1.599v-1.599z"/>
    <path fill="#fff" d="M26.625 34.174h1.6v1.599h-1.6v-1.599zm-9.594 0h1.599v1.599h-1.599v-1.599z"/>
    <path fill="#232020" d="M20.229 34.174h1.6v1.599h-1.6v-1.599z"/>
    <path fill="#fff" d="M21.828 34.174h1.599v1.599h-1.599v-1.599z"/>
    <path fill="#232020" d="M18.63 34.174h1.599v1.599H18.63v-1.599z"/>
    <path fill="#6ab4d6" d="M25.026 35.773h1.599v1.599h-1.599v-1.599zm-1.599 0h1.599v1.599h-1.599v-1.599z"/>
    <path fill="#232020" d="M28.225 35.773h1.599v1.599h-1.599v-1.599zm1.599 0h1.599v1.599h-1.599v-1.599z"/>
    <path fill="#fff" d="M26.625 35.773h1.6v1.599h-1.6v-1.599z"/>
    <path fill="#232020" d="M20.229 35.773h1.6v1.599h-1.6v-1.599z"/>
    <path fill="#fff" d="M21.828 35.773h1.599v1.599h-1.599v-1.599z"/>
    <path fill="#232020" d="M18.63 35.773h1.599v1.599H18.63v-1.599z"/>
    <path fill="#6ab4d6" d="M25.026 37.372h1.599v1.6h-1.599v-1.6zm-1.599 0h1.599v1.6h-1.599v-1.6zm3.198 0h1.6v1.6h-1.6v-1.6zm-4.797 0h1.599v1.6h-1.599v-1.6z"/>
    <path fill="#56768f" d="M15.044 86.51h-2.27v146.822h2.27V86.51zm13.999 0h-2.27v146.822h2.27V86.51z"/>
    <path fill="#56768f" d="M29.043 231.062H12.774v2.27h16.269v-2.27zm0-144.552H12.774v2.27h16.269v-2.27zm-7.34 22.024h-1.589v102.775h1.589V108.534zM234.838 86.51h-2.27v146.822h2.27V86.51zm13.999 0h-2.27v146.822h2.27V86.51z"/>
    <path fill="#56768f" d="M248.837 231.062h-16.269v2.27h16.269v-2.27zm0-144.552h-16.269v2.27h16.269v-2.27zm-7.34 22.024h-1.589v102.775h1.589V108.534z"/>
  </g>
</svg>
