<svg xmlns="http://www.w3.org/2000/svg" width="82.860458" height="200">
  <defs>
    <clipPath id="c">
      <path d="M0 406.277h168.322V0H0v406.277z"/>
    </clipPath>
    <clipPath id="d">
      <path d="M7.99342 160.329H162.206V6.11584H7.99342V160.329z"/>
    </clipPath>
    <linearGradient id="e" x2="1" gradientTransform="matrix(19.603794,-19.603794,19.603794,19.603794,32.058698,168.83363)" gradientUnits="userSpaceOnUse">
      <stop offset="0" stop-color="#a6a8ab"/>
      <stop offset="1" stop-color="#e6e7e8"/>
    </linearGradient>
    <clipPath id="f">
      <path d="M0 406.277h168.322V0H0v406.277z"/>
    </clipPath>
    <clipPath id="g">
      <path d="M62.5988 105.659h44.8722V60.786H62.5988v44.873z"/>
    </clipPath>
    <clipPath id="h">
      <path d="M58.434 83.504c0 14.847 12.035 26.882 26.882 26.882 14.847 0 26.883-12.035 26.883-26.882 0-14.847-12.036-26.883-26.883-26.883S58.434 68.657 58.434 83.504m54.583-.346c0 15.49-12.557 28.047-28.047 28.047S56.923 98.648 56.923 83.158 69.48 55.111 84.97 55.111s28.047 12.557 28.047 28.047"/>
    </clipPath>
    <linearGradient id="a" x2="1" gradientTransform="matrix(39.664417,-39.664417,-39.664417,-39.664417,65.138191,102.98982)" gradientUnits="userSpaceOnUse">
      <stop offset="0" stop-opacity="0" stop-color="#fff"/>
      <stop offset=".20751882" stop-color="#fff"/>
      <stop offset=".5" stop-color="#fff"/>
      <stop offset=".79248118" stop-color="#fff"/>
      <stop offset="1" stop-opacity="0" stop-color="#fff"/>
    </linearGradient>
    <mask id="j" width="1" height="1" x="0" y="0" maskUnits="userSpaceOnUse">
      <path fill="url(#a)" d="M-32768 32767h65535v-65535h-65535v65535z"/>
    </mask>
    <linearGradient id="i" x2="1" gradientTransform="matrix(39.664417,-39.664417,-39.664417,-39.664417,65.138191,102.98982)" gradientUnits="userSpaceOnUse">
      <stop offset="0" stop-color="#231f20"/>
      <stop offset=".20751882" stop-color="#231f20"/>
      <stop offset=".5" stop-color="#231f20"/>
      <stop offset=".79248118" stop-color="#231f20"/>
      <stop offset="1" stop-color="#231f20"/>
    </linearGradient>
    <clipPath id="k">
      <path d="M111.507 82.812c0-14.847-12.036-26.883-26.882-26.883-14.847 0-26.883 12.036-26.883 26.883s12.036 26.883 26.883 26.883c14.846 0 26.882-12.036 26.882-26.883m-54.583.346c0-15.49 12.556-28.047 28.047-28.047 15.49 0 28.047 12.557 28.047 28.047s-12.557 28.047-28.047 28.047c-15.491 0-28.047-12.557-28.047-28.047"/>
    </clipPath>
    <linearGradient id="b" x2="1" gradientTransform="matrix(-39.664425,39.664425,39.664425,39.664425,104.80286,63.325817)" gradientUnits="userSpaceOnUse">
      <stop offset="0" stop-opacity="0" stop-color="#fff"/>
      <stop offset=".5" stop-color="#fff"/>
      <stop offset="1" stop-opacity="0" stop-color="#fff"/>
    </linearGradient>
    <mask id="m" width="1" height="1" x="0" y="0" maskUnits="userSpaceOnUse">
      <path fill="url(#b)" d="M-32768 32767h65535v-65535h-65535v65535z"/>
    </mask>
    <linearGradient id="l" x2="1" gradientTransform="matrix(-39.664425,39.664425,39.664425,39.664425,104.80286,63.325817)" gradientUnits="userSpaceOnUse">
      <stop offset="0" stop-color="#fff"/>
      <stop offset=".5" stop-color="#fff"/>
      <stop offset="1" stop-color="#fff"/>
    </linearGradient>
    <clipPath id="n">
      <path d="M81.8602 329.248h53.0618v-53.062H81.8602v53.062z"/>
    </clipPath>
    <clipPath id="o">
      <path d="M82.5478 328.408h51.5342v-51.534H82.5478v51.534z"/>
    </clipPath>
    <clipPath id="p">
      <path d="M75.1491 335.806H141.48v-66.331H75.1491v66.331z"/>
    </clipPath>
    <clipPath id="q">
      <path d="M55.4057 399.51h53.0623v-53.062H55.4057v53.062z"/>
    </clipPath>
    <clipPath id="r">
      <path d="M56.0933 398.67h51.5337v-51.534H56.0933v51.534z"/>
    </clipPath>
    <clipPath id="s">
      <path d="M48.6945 406.068h66.3315v-66.331H48.6945v66.331z"/>
    </clipPath>
    <clipPath id="t">
      <path d="M55.3292 258.304h53.0618v-53.062H55.3292v53.062z"/>
    </clipPath>
    <clipPath id="u">
      <path d="M56.0168 257.464h51.5342V205.93H56.0168v51.534z"/>
    </clipPath>
    <clipPath id="v">
      <path d="M48.6181 264.862h66.3309v-66.331H48.6181v66.331z"/>
    </clipPath>
  </defs>
  <g clip-path="url(#c)" transform="matrix(0.49227497,0,0,-0.49227497,0,200)">
    <path fill="#231f20" d="M85.0995 0c-45.962 0-83.222 37.26-83.222 83.222 0 45.963 37.26 83.222 83.222 83.222 45.962 0 83.222-37.259 83.222-83.222 0-45.962-37.26-83.222-83.222-83.222"/>
    <g clip-path="url(#d)" opacity=".10000598">
      <path fill="#84849b" d="M85.0992 6.1158l16.896 16.323h-8.253v18.674h-17.286v-18.674h-8.252l16.895-16.323zm54.5228 22.5835l.405 23.489-5.835-5.835-13.205 13.204-12.223-12.223 13.205-13.204-5.836-5.836 23.489.405zm22.5841 54.5222l-16.323 16.896v-8.252h-18.674v-17.287h18.674v-8.252l16.323 16.895zm-22.5834 54.5226l-23.489.405 5.835-5.835-13.205-13.205 12.224-12.223 13.204 13.205 5.836-5.835-.405 23.488zm-54.5222 22.5844l-16.896-16.322h8.252v-18.675h17.287v18.674l8.252.001-16.895 16.322zm-54.5226-22.5832l-.405-23.489 5.835 5.835 13.205-13.205 12.223 12.223-13.205 13.205 5.835 5.836-23.488-.405zM7.9934 83.223l16.322-16.895v8.251h18.675v17.286h-18.674l-.001 8.253-16.322-16.895zm22.5833-54.5226l23.489-.405-5.835 5.835 13.205 13.205-12.223 12.223-13.205-13.205-5.836 5.835.405-23.488z"/>
    </g>
    <path fill="#6d6e70" d="M84.1609.0119c-45.529.504-82.284 37.562-82.284 83.21 0 45.649 36.755 82.707 82.284 83.211-.313.003-.625.012-.939.012-45.962 0-83.222-37.26-83.222-83.223 0-45.962 37.26-83.222 83.222-83.222.314 0 .626.009.939.012"/>
  </g>
  <path fill="url(#e)" d="M27.998631 159.03189c0 7.65537 6.206603 13.86197 13.861971 13.86197 7.655861 0 13.861972-6.2066 13.861972-13.86197 0-7.65586-6.206111-13.86197-13.861972-13.86197-7.655368 0-13.861971 6.20611-13.861971 13.86197"/>
  <g clip-path="url(#f)" transform="matrix(0.49227497,0,0,-0.49227497,0,200)">
    <g clip-path="url(#g)" opacity=".30000299">
      <path fill="#231f20" d="M85.035 60.786c-12.391 0-22.436 10.045-22.436 22.436s10.045 22.437 22.436 22.437 22.436-10.046 22.436-22.437c0-12.391-10.045-22.436-22.436-22.436"/>
    </g>
    <g clip-path="url(#h)" opacity=".14999402">
      <path fill="url(#i)" d="M58.434 83.504c0 14.847 12.035 26.882 26.882 26.882 14.847 0 26.883-12.035 26.883-26.882 0-14.847-12.036-26.883-26.883-26.883S58.434 68.657 58.434 83.504m54.583-.346c0 15.49-12.557 28.047-28.047 28.047S56.923 98.648 56.923 83.158 69.48 55.111 84.97 55.111s28.047 12.557 28.047 28.047" mask="url(#j)"/>
    </g>
    <g clip-path="url(#k)" opacity=".39999402">
      <path fill="url(#l)" d="M111.507 82.812c0-14.847-12.036-26.883-26.882-26.883-14.847 0-26.883 12.036-26.883 26.883s12.036 26.883 26.883 26.883c14.846 0 26.882-12.036 26.882-26.883m-54.583.346c0-15.49 12.556-28.047 28.047-28.047 15.49 0 28.047 12.557 28.047 28.047s-12.557 28.047-28.047 28.047c-15.491 0-28.047-12.557-28.047-28.047" mask="url(#m)"/>
    </g>
    <path fill="#cf8a61" d="M108.3911 269.4192c-18.39 0-33.298 14.908-33.298 33.298s14.908 33.298 33.298 33.298 33.298-14.908 33.298-33.298-14.908-33.298-33.298-33.298"/>
    <g clip-path="url(#n)" opacity=".30000299">
      <path fill="#cf8a61" d="M108.3911 276.1864c-14.653 0-26.531 11.878-26.531 26.531 0 14.652 11.878 26.531 26.531 26.531 14.653 0 26.531-11.879 26.531-26.531 0-14.653-11.878-26.531-26.531-26.531"/>
    </g>
    <path fill="#cf8a61" d="M108.3148 276.8739c-14.231 0-25.767 11.536-25.767 25.767s11.536 25.767 25.767 25.767 25.767-11.536 25.767-25.767-11.536-25.767-25.767-25.767"/>
    <path fill="#cf8a61" d="M108.3148 276.8739c-14.231 0-25.767 11.536-25.767 25.767s11.536 25.767 25.767 25.767 25.767-11.536 25.767-25.767-11.536-25.767-25.767-25.767"/>
    <g clip-path="url(#o)" opacity=".19999701">
      <path fill="#cf8a61" d="M83.9352 302.9589c0 13.64 11.057 24.697 24.697 24.697 13.64 0 24.698-11.057 24.698-24.697 0-13.64-11.058-24.698-24.698-24.698s-24.697 11.058-24.697 24.698m50.146-.318c0 14.231-11.536 25.767-25.766 25.767-14.231 0-25.767-11.536-25.767-25.767s11.536-25.767 25.767-25.767c14.23 0 25.766 11.536 25.766 25.767"/>
    </g>
    <g clip-path="url(#p)" opacity=".14999402">
      <path fill="#cf8a61" d="M76.9348 303.0498c0 17.557 14.233 31.789 31.789 31.789 17.557 0 31.789-14.232 31.789-31.789 0-17.556-14.232-31.789-31.789-31.789-17.556 0-31.789 14.233-31.789 31.789m64.546-.409c0 18.317-14.849 33.166-33.166 33.166-18.317 0-33.166-14.849-33.166-33.166 0-18.317 14.849-33.165 33.166-33.165 18.317 0 33.166 14.848 33.166 33.165"/>
    </g>
    <path fill="#cf8a61" d="M81.9366 339.6811c-18.39 0-33.298 14.908-33.298 33.298s14.908 33.298 33.298 33.298 33.298-14.908 33.298-33.298-14.908-33.298-33.298-33.298"/>
    <g clip-path="url(#q)" opacity=".30000299">
      <path fill="#cf8a61" d="M81.9366 346.4483c-14.653 0-26.531 11.878-26.531 26.531 0 14.652 11.878 26.531 26.531 26.531 14.653 0 26.531-11.879 26.531-26.531 0-14.653-11.878-26.531-26.531-26.531"/>
    </g>
    <path fill="#cf8a61" d="M81.8602 347.1358c-14.231 0-25.767 11.536-25.767 25.767s11.536 25.767 25.767 25.767 25.767-11.536 25.767-25.767-11.536-25.767-25.767-25.767"/>
    <path fill="#cf8a61" d="M81.8602 347.1358c-14.231 0-25.767 11.536-25.767 25.767s11.536 25.767 25.767 25.767 25.767-11.536 25.767-25.767-11.536-25.767-25.767-25.767"/>
    <g clip-path="url(#r)" opacity=".19999701">
      <path fill="#cf8a61" d="M57.4806 373.2208c0 13.64 11.057 24.697 24.697 24.697 13.64 0 24.698-11.057 24.698-24.697 0-13.64-11.058-24.698-24.698-24.698s-24.697 11.058-24.697 24.698m50.146-.318c0 14.231-11.536 25.767-25.766 25.767-14.231 0-25.767-11.536-25.767-25.767s11.536-25.767 25.767-25.767c14.23 0 25.766 11.536 25.766 25.767"/>
    </g>
    <g clip-path="url(#s)" opacity=".14999402">
      <path fill="#cf8a61" d="M50.4802 373.3117c0 17.557 14.233 31.789 31.789 31.789 17.557 0 31.789-14.232 31.789-31.789 0-17.556-14.232-31.789-31.789-31.789-17.556 0-31.789 14.233-31.789 31.789m64.546-.409c0 18.317-14.849 33.166-33.166 33.166-18.317 0-33.166-14.849-33.166-33.166 0-18.317 14.849-33.165 33.166-33.165 18.317 0 33.166 14.848 33.166 33.165"/>
    </g>
    <path fill="#cf8a61" d="M81.8602 198.475c-18.39 0-33.298 14.908-33.298 33.298s14.908 33.298 33.298 33.298 33.298-14.908 33.298-33.298-14.908-33.298-33.298-33.298"/>
    <g clip-path="url(#t)" opacity=".30000299">
      <path fill="#cf8a61" d="M81.8602 205.2422c-14.653 0-26.531 11.878-26.531 26.531 0 14.652 11.878 26.531 26.531 26.531 14.653 0 26.531-11.879 26.531-26.531 0-14.653-11.878-26.531-26.531-26.531"/>
    </g>
    <path fill="#cf8a61" d="M81.7838 205.9297c-14.231 0-25.767 11.536-25.767 25.767s11.536 25.767 25.767 25.767 25.767-11.536 25.767-25.767-11.536-25.767-25.767-25.767"/>
    <path fill="#cf8a61" d="M81.7838 205.9297c-14.231 0-25.767 11.536-25.767 25.767s11.536 25.767 25.767 25.767 25.767-11.536 25.767-25.767-11.536-25.767-25.767-25.767"/>
    <g clip-path="url(#u)" opacity=".19999701">
      <path fill="#cf8a61" d="M57.4042 232.0147c0 13.64 11.057 24.697 24.697 24.697 13.64 0 24.698-11.057 24.698-24.697 0-13.64-11.058-24.698-24.698-24.698s-24.697 11.058-24.697 24.698m50.146-.318c0 14.231-11.536 25.767-25.766 25.767-14.231 0-25.767-11.536-25.767-25.767s11.536-25.767 25.767-25.767c14.23 0 25.766 11.536 25.766 25.767"/>
    </g>
    <g clip-path="url(#v)" opacity=".14999402">
      <path fill="#cf8a61" d="M50.4038 232.1056c0 17.557 14.233 31.789 31.789 31.789 17.557 0 31.789-14.232 31.789-31.789 0-17.556-14.232-31.789-31.789-31.789-17.556 0-31.789 14.233-31.789 31.789m64.546-.409c0 18.317-14.849 33.165-33.166 33.165-18.317 0-33.166-14.848-33.166-33.165s14.849-33.165 33.166-33.165c18.317 0 33.166 14.848 33.166 33.165"/>
    </g>
    <path fill="#cf8a61" d="M144.325 82.7398c0-21.083-17.092-38.175-38.175-38.175s-38.175 17.092-38.175 38.175 17.092 38.175 38.175 38.175 38.175-17.092 38.175-38.175"/>
  </g>
</svg>
