<?xml version="1.0" encoding="UTF-8" ?>
<!DOCTYPE svg PUBLIC "-//W3C//DTD SVG 1.1//EN" "http://www.w3.org/Graphics/SVG/1.1/DTD/svg11.dtd">
<svg width="657pt" height="150pt" viewBox="0 0 657 150" version="1.1" xmlns="http://www.w3.org/2000/svg">
<g id="#fe8234ff">
<path fill="#fe8234" opacity="1.00" d=" M 0.00 0.00 L 144.35 0.00 C 152.53 1.43 160.84 4.22 167.05 9.95 C 174.00 16.16 180.07 24.41 180.48 34.05 C 180.71 42.55 180.43 51.06 180.56 59.56 C 165.70 59.56 150.85 59.51 136.00 59.57 C 130.31 59.55 124.42 60.09 118.95 58.12 C 79.39 45.03 39.58 32.68 0.00 19.64 L 0.00 0.00 Z" />
<path fill="#fe8234" opacity="1.00" d=" M 59.92 42.93 C 71.78 46.05 83.18 50.63 94.89 54.25 C 99.71 55.73 104.47 57.39 109.20 59.14 C 109.59 75.12 109.24 91.12 109.36 107.10 C 114.63 107.28 119.90 107.34 125.18 107.30 C 125.56 121.53 125.28 135.77 125.32 150.00 L 37.64 150.00 C 37.55 142.71 37.49 135.42 37.76 128.14 C 44.98 124.40 52.24 120.73 59.65 117.40 C 60.06 92.58 59.51 67.75 59.92 42.93 Z" />
<path fill="#fe8234" opacity="1.00" d=" M 114.94 64.34 C 136.82 64.40 158.70 64.35 180.57 64.37 C 180.51 76.96 180.48 89.55 180.59 102.14 C 176.73 102.38 172.86 102.46 169.00 102.42 C 150.94 102.29 132.88 102.56 114.82 102.29 C 114.75 89.64 114.54 76.98 114.94 64.34 Z" />
</g>
<g id="#000000ff">
<path fill="#000000" opacity="1.00" d=" M 219.11 42.28 C 235.62 42.36 252.13 42.28 268.64 42.33 C 268.63 46.44 268.64 50.54 268.63 54.65 C 256.87 54.83 245.09 54.25 233.33 54.93 C 233.31 60.62 233.31 66.32 233.34 72.01 C 243.58 72.66 253.84 72.14 264.09 72.27 C 264.39 76.41 264.38 80.57 264.06 84.71 C 253.82 84.83 243.56 84.31 233.33 84.96 C 233.21 95.23 233.66 105.51 233.13 115.78 C 228.45 115.86 223.78 115.86 219.10 115.79 C 218.84 91.29 218.82 66.78 219.11 42.28 Z" />
<path fill="#000000" opacity="1.00" d=" M 280.89 42.29 C 292.61 42.30 304.32 42.34 316.04 42.28 C 322.09 42.32 328.75 43.33 333.30 47.69 C 337.79 52.51 340.62 59.73 338.04 66.16 C 336.68 71.14 332.64 74.57 328.99 77.92 C 332.63 79.30 336.52 80.84 338.82 84.19 C 344.57 91.70 342.85 102.93 336.55 109.57 C 331.86 114.55 324.57 115.73 318.04 115.85 C 305.64 115.76 293.25 115.87 280.86 115.79 C 280.33 101.20 280.79 86.60 280.64 72.00 C 280.78 62.10 280.32 52.19 280.89 42.29 M 295.36 54.40 C 295.27 60.27 295.29 66.15 295.31 72.03 C 301.87 72.36 308.46 72.56 315.02 72.21 C 319.15 71.97 323.95 69.51 324.39 64.95 C 325.36 59.93 321.26 54.34 315.99 54.49 C 309.11 54.32 302.23 54.60 295.36 54.40 M 295.32 84.95 C 295.28 91.00 295.29 97.06 295.31 103.12 C 302.21 103.54 309.13 103.50 316.04 103.37 C 320.16 103.33 324.83 101.73 326.65 97.71 C 328.51 94.15 327.19 89.29 323.77 87.19 C 320.88 85.36 317.41 84.71 314.04 84.66 C 307.80 84.54 301.55 84.57 295.32 84.95 Z" />
<path fill="#000000" opacity="1.00" d=" M 404.65 42.44 C 409.68 42.22 414.72 42.23 419.76 42.36 C 426.38 57.92 432.57 73.66 438.74 89.40 C 442.14 98.18 446.37 106.64 449.11 115.67 C 443.89 115.93 438.66 115.89 433.43 115.68 C 431.38 110.03 429.26 104.40 426.84 98.89 C 417.28 98.52 407.69 98.52 398.13 98.89 C 395.90 104.45 393.95 110.11 391.62 115.63 C 386.65 115.89 381.67 115.95 376.71 115.70 C 378.66 108.37 382.22 101.62 384.58 94.43 C 391.23 77.08 398.57 60.00 404.65 42.44 M 412.31 60.91 C 408.76 69.10 405.46 77.43 403.04 86.03 C 409.31 86.46 415.61 86.50 421.88 85.96 C 418.84 77.56 415.96 69.07 412.31 60.91 Z" />
<path fill="#000000" opacity="1.00" d=" M 458.05 42.31 C 462.40 42.26 466.76 42.26 471.12 42.30 C 471.70 56.52 471.20 70.76 471.36 85.00 C 471.23 95.27 471.65 105.54 471.14 115.80 C 466.77 115.86 462.41 115.86 458.04 115.78 C 457.46 101.86 457.94 87.92 457.79 74.00 C 457.93 63.44 457.47 52.86 458.05 42.31 Z" />
<path fill="#000000" opacity="1.00" d=" M 548.91 42.30 C 553.63 42.26 558.34 42.26 563.06 42.31 C 563.62 50.83 563.17 59.37 563.32 67.90 C 567.57 64.62 572.45 61.66 577.99 61.52 C 582.95 61.33 588.00 63.02 591.92 66.06 C 596.07 69.76 596.49 75.80 596.42 81.00 C 596.15 92.60 596.68 104.20 596.13 115.79 C 591.73 115.86 587.34 115.86 582.94 115.79 C 582.37 104.52 582.88 93.23 582.73 81.95 C 582.64 78.92 582.20 75.35 579.43 73.54 C 573.53 68.90 563.91 73.92 563.47 81.18 C 562.89 92.70 563.77 104.26 563.09 115.78 C 558.35 115.87 553.62 115.87 548.88 115.80 C 548.38 101.87 548.81 87.93 548.67 74.00 C 548.81 63.43 548.35 52.86 548.91 42.30 Z" />
<path fill="#000000" opacity="1.00" d=" M 510.29 62.03 C 519.50 59.76 529.57 64.93 533.86 73.23 C 538.04 81.37 538.42 91.03 535.85 99.72 C 533.83 109.58 524.20 117.61 514.03 116.96 C 508.40 116.63 503.73 113.14 499.53 109.72 C 498.82 118.48 499.60 127.26 499.06 136.02 C 494.66 136.30 490.24 136.32 485.83 136.12 C 485.51 111.67 485.59 87.21 485.79 62.76 C 489.81 62.56 493.83 62.56 497.85 62.75 C 498.05 64.90 498.25 67.04 498.47 69.19 C 502.04 66.28 505.68 63.08 510.29 62.03 M 508.32 72.15 C 503.03 74.26 499.78 79.70 499.39 85.24 C 498.74 91.84 499.80 99.42 504.86 104.17 C 508.38 107.65 514.64 107.67 518.25 104.30 C 522.12 101.10 523.08 95.79 523.24 91.03 C 523.37 85.48 522.49 79.49 518.95 75.03 C 516.19 72.49 512.00 70.91 508.32 72.15 Z" />
<path fill="#000000" opacity="1.00" d=" M 616.20 65.19 C 620.63 62.55 625.87 61.60 630.97 61.45 C 637.66 61.33 645.11 62.00 650.33 66.66 C 654.64 70.49 654.00 76.79 654.11 82.01 C 654.32 93.16 652.34 104.83 657.00 115.39 L 657.00 116.19 C 652.79 115.95 648.58 115.78 644.37 115.66 C 643.24 114.12 642.13 112.57 641.01 111.04 C 636.10 113.93 630.90 117.07 625.00 117.03 C 619.12 117.03 612.70 114.67 609.58 109.41 C 606.02 103.86 606.75 96.04 611.20 91.20 C 614.87 87.22 620.32 85.69 625.44 84.61 C 630.56 83.64 635.65 82.52 640.62 80.96 C 640.14 78.48 640.73 75.27 638.41 73.59 C 635.75 71.60 632.19 71.34 629.01 71.75 C 624.59 72.48 622.58 78.68 617.70 77.73 C 614.63 77.38 611.73 76.27 608.85 75.24 C 610.77 71.58 612.49 67.42 616.20 65.19 M 623.75 95.70 C 619.99 98.22 621.83 104.65 625.85 106.06 C 630.24 107.88 635.39 105.84 638.51 102.54 C 641.15 99.53 640.29 95.25 640.33 91.59 C 634.76 92.65 628.85 92.99 623.75 95.70 Z" />
</g>
</svg>
