<?xml version="1.0" encoding="UTF-8" standalone="no"?>
<svg
   xmlns:dc="http://purl.org/dc/elements/1.1/"
   xmlns:cc="http://creativecommons.org/ns#"
   xmlns:rdf="http://www.w3.org/1999/02/22-rdf-syntax-ns#"
   xmlns:svg="http://www.w3.org/2000/svg"
   xmlns="http://www.w3.org/2000/svg"
   viewBox="0 0 221.58376 498.57626"
   height="498.57626"
   width="221.58376"
   xml:space="preserve"
   version="1.1"
   id="svg2"><metadata
     id="metadata8"><rdf:RDF><cc:Work
         rdf:about=""><dc:format>image/svg+xml</dc:format><dc:type
           rdf:resource="http://purl.org/dc/dcmitype/StillImage" /><dc:title></dc:title></cc:Work></rdf:RDF></metadata><defs
     id="defs6"><clipPath
       id="clipPath16"
       clipPathUnits="userSpaceOnUse"><path
         id="path18"
         d="m 0,398.861 177.267,0 L 177.267,0 0,0 0,398.861 Z" /></clipPath></defs><g
     transform="matrix(1.25,0,0,-1.25,0,498.57625)"
     id="g10"><g
       id="g12"><g
         clip-path="url(#clipPath16)"
         id="g14"><g
           transform="translate(65.739,62.8189)"
           id="g20"><path
             id="path22"
             style="fill:#666870;fill-opacity:1;fill-rule:nonzero;stroke:none"
             d="m 0,0 c 5.204,0.001 10.409,0.007 15.613,-0.002 1.674,-0.003 1.813,-0.23 1.058,-1.719 -2.723,-5.364 -4.712,-11.008 -5.843,-16.895 -1.27,-6.606 -1.549,-13.273 -0.792,-20.01 0.893,-7.95 3.178,-15.425 6.759,-22.542 0.586,-1.165 0.347,-1.574 -1.004,-1.576 -10.271,-0.012 -20.548,-0.19 -30.814,0.05 -11.864,0.277 -21.823,8.552 -24.573,20.029 -0.434,1.81 -0.733,3.656 -0.701,5.553 0.065,3.697 0.015,7.395 0.019,11.093 0.015,11.609 7.501,21.654 18.615,24.947 2.326,0.69 4.707,1.078 7.145,1.073 C -9.678,-0.007 -4.839,-0.001 0,0" /></g><g
           transform="translate(97.4094,36.5225)"
           id="g24"><path
             id="path26"
             style="fill:#d8d5cb;fill-opacity:1;fill-rule:nonzero;stroke:none"
             d="m 0,0 c -2.419,0 -4.841,-0.074 -7.257,0.021 -2.247,0.089 -3.796,-0.917 -4.746,-2.82 -0.513,-1.026 -1.187,-1.376 -2.263,-1.333 -1.321,0.054 -2.648,0.058 -3.97,10e-4 -1.237,-0.054 -1.706,0.449 -1.689,1.691 0.074,5.241 1.053,10.33 2.466,15.35 1.192,4.236 2.984,8.229 5.014,12.122 0.356,0.682 0.765,1.242 1.63,1.254 4.38,0.058 8.78,0.242 12.994,-1.289 9.033,-3.281 14.81,-9.589 17.231,-18.878 0.691,-2.649 0.853,-5.408 0.672,-8.156 -0.071,-1.067 0.33,-1.485 1.388,-1.467 1.642,0.027 3.286,-0.079 4.927,-0.033 4.083,0.117 7.516,-1.397 10.32,-4.252 2.334,-2.376 5.135,-3.375 8.365,-3.426 1.734,-0.028 3.469,-0.041 5.203,10e-4 1.107,0.027 1.407,-0.514 1.399,-1.518 -0.007,-0.963 -0.205,-1.602 -1.352,-1.56 -2.597,0.094 -5.205,-0.196 -7.793,0.171 -3.095,0.438 -5.717,1.862 -7.87,4.085 -2.299,2.373 -5.059,3.481 -8.334,3.427 -1.506,-0.025 -3.016,-0.068 -4.518,0.015 -1.303,0.071 -1.808,-0.397 -1.738,-1.723 0.219,-4.159 -0.332,-8.231 -2.051,-12.036 -4.038,-8.941 -10.867,-14.316 -20.645,-15.83 -2.638,-0.408 -5.282,-0.212 -7.924,-0.276 -0.887,-0.022 -1.398,0.387 -1.811,1.167 -3.69,6.958 -6.249,14.261 -7.1,22.137 -0.2,1.86 -0.479,3.7 -0.473,5.579 0.004,1.115 0.456,1.571 1.559,1.542 1.505,-0.039 3.013,-0.031 4.518,0 0.822,0.016 1.377,-0.256 1.728,-1.041 0.989,-2.21 2.741,-3.133 5.141,-3.108 4.701,0.05 9.403,0.046 14.104,0.003 2.303,-0.021 3.962,0.896 4.907,3.005 0.367,0.818 0.955,1.151 1.831,1.137 1.461,-0.023 2.922,-0.004 4.382,0.002 0.619,0.002 1.225,0.028 1.261,0.88 0.039,0.908 -0.547,1.035 -1.255,1.034 C 16.79,-4.124 15.329,-4.098 13.869,-4.124 13.04,-4.139 12.52,-3.808 12.143,-3.058 11.086,-0.952 9.447,0.145 6.983,0.024 4.66,-0.089 2.328,0 0,0" /></g><g
           transform="translate(100.3676,28.2979)"
           id="g28"><path
             id="path30"
             style="fill:#666870;fill-opacity:1;fill-rule:nonzero;stroke:none"
             d="M 0,0 C -1.32,-0.001 -2.642,-0.035 -3.961,0.007 -5.928,0.069 -7.453,1.516 -7.395,3.204 -7.336,4.942 -5.843,6.276 -3.88,6.291 -1.239,6.312 1.402,6.318 4.043,6.289 6.159,6.266 7.456,5.086 7.507,3.215 7.554,1.524 6.054,0.081 4.098,0.01 2.733,-0.039 1.366,0.001 0,0" /></g><g
           transform="translate(100.3676,28.2979)"
           id="g32"><path
             id="path34"
             style="fill:none;stroke:#4f4c4d;stroke-width:0.5;stroke-linecap:butt;stroke-linejoin:miter;stroke-miterlimit:10;stroke-dasharray:none;stroke-opacity:1"
             d="M 0,0 C -1.32,-0.001 -2.642,-0.035 -3.961,0.007 -5.928,0.069 -7.453,1.516 -7.395,3.204 -7.336,4.942 -5.843,6.276 -3.88,6.291 -1.239,6.312 1.402,6.318 4.043,6.289 6.159,6.266 7.456,5.086 7.507,3.215 7.554,1.524 6.054,0.081 4.098,0.01 2.733,-0.039 1.366,0.001 0,0 Z" /></g><g
           transform="translate(108.413,398.8612)"
           id="g36"><path
             id="path38"
             style="fill:#d8d5cb;fill-opacity:1;fill-rule:nonzero;stroke:none"
             d="m 0,0 23.256,0 c 7.795,0 14.173,-6.378 14.173,-14.173 l 0,-282.907 c 0,-7.795 -6.378,-14.173 -14.173,-14.173 l -23.256,0" /></g><g
           transform="translate(37.4294,87.6082)"
           id="g40"><path
             id="path42"
             style="fill:#cac2b5;fill-opacity:1;fill-rule:nonzero;stroke:none"
             d="m 0,0 -23.256,0 c -7.795,0 -14.173,6.378 -14.173,14.173 l 0,282.907 c 0,7.795 6.378,14.173 14.173,14.173 l 23.256,0" /></g><g
           transform="translate(11.1573,101.7814)"
           id="g44"><path
             id="path46"
             style="fill:#efede1;fill-opacity:1;fill-rule:nonzero;stroke:none"
             d="m 0,0 0,282.907 c 0,7.795 6.378,14.173 14.173,14.173 l 95.555,0 c 7.796,0 14.174,-6.378 14.174,-14.173 L 123.902,0 c 0,-7.795 -6.378,-14.173 -14.174,-14.173 l -95.555,0 C 6.378,-14.173 0,-7.795 0,0" /></g><path
           id="path48"
           style="fill:#c0ba9f;fill-opacity:1;fill-rule:nonzero;stroke:none"
           d="m 113.581,378.958 9.956,0 0,-15.299 -9.956,0 0,15.299 z" /><path
           id="path50"
           style="fill:#c0ba9f;fill-opacity:1;fill-rule:nonzero;stroke:none"
           d="m 113.581,358.011 9.956,0 0,-15.299 -9.956,0 0,15.299 z" /><path
           id="path52"
           style="fill:#666870;fill-opacity:1;fill-rule:nonzero;stroke:none"
           d="m 113.581,337.51 9.956,0 0,-15.299 -9.956,0 0,15.299 z" /><path
           id="path54"
           style="fill:#666870;fill-opacity:1;fill-rule:nonzero;stroke:none"
           d="m 113.581,316.397 9.956,0 0,-15.299 -9.956,0 0,15.299 z" /><path
           id="path56"
           style="fill:#666870;fill-opacity:1;fill-rule:nonzero;stroke:none"
           d="m 113.581,295.285 9.956,0 0,-15.299 -9.956,0 0,15.299 z" /><path
           id="path58"
           style="fill:#666870;fill-opacity:1;fill-rule:nonzero;stroke:none"
           d="m 113.581,274.53 9.956,0 0,-15.299 -9.956,0 0,15.299 z" /><path
           id="path60"
           style="fill:#c0ba9f;fill-opacity:1;fill-rule:nonzero;stroke:none"
           d="m 113.581,253.723 9.956,0 0,-15.299 -9.956,0 0,15.299 z" /><path
           id="path62"
           style="fill:#c0ba9f;fill-opacity:1;fill-rule:nonzero;stroke:none"
           d="m 113.581,232.611 9.956,0 0,-15.299 -9.956,0 0,15.299 z" /><path
           id="path64"
           style="fill:#c0ba9f;fill-opacity:1;fill-rule:nonzero;stroke:none"
           d="m 113.581,211.804 9.956,0 0,-15.299 -9.956,0 0,15.299 z" /><path
           id="path66"
           style="fill:#cac2b5;fill-opacity:1;fill-rule:nonzero;stroke:none"
           d="m 87.267,378.958 15.299,0 0,-15.299 -15.299,0 0,15.299 z" /><path
           id="path68"
           style="fill:#cac2b5;fill-opacity:1;fill-rule:nonzero;stroke:none"
           d="m 66.096,378.958 15.299,0 0,-15.299 -15.299,0 0,15.299 z" /><path
           id="path70"
           style="fill:#c0ba9f;fill-opacity:1;fill-rule:nonzero;stroke:none"
           d="m 87.267,358.011 15.299,0 0,-15.299 -15.299,0 0,15.299 z" /><path
           id="path72"
           style="fill:#c0ba9f;fill-opacity:1;fill-rule:nonzero;stroke:none"
           d="m 87.267,337.51 15.299,0 0,-15.299 -15.299,0 0,15.299 z" /><path
           id="path74"
           style="fill:#c0ba9f;fill-opacity:1;fill-rule:nonzero;stroke:none"
           d="m 87.267,316.397 15.299,0 0,-15.299 -15.299,0 0,15.299 z" /><path
           id="path76"
           style="fill:#c0ba9f;fill-opacity:1;fill-rule:nonzero;stroke:none"
           d="m 87.267,295.285 15.299,0 0,-15.299 -15.299,0 0,15.299 z" /><path
           id="path78"
           style="fill:#c0ba9f;fill-opacity:1;fill-rule:nonzero;stroke:none"
           d="m 87.267,274.53 15.299,0 0,-15.299 -15.299,0 0,15.299 z" /><path
           id="path80"
           style="fill:#c0ba9f;fill-opacity:1;fill-rule:nonzero;stroke:none"
           d="m 87.267,253.723 15.299,0 0,-15.299 -15.299,0 0,15.299 z" /><path
           id="path82"
           style="fill:#c0ba9f;fill-opacity:1;fill-rule:nonzero;stroke:none"
           d="m 87.267,232.611 15.299,0 0,-15.299 -15.299,0 0,15.299 z" /><path
           id="path84"
           style="fill:#c0ba9f;fill-opacity:1;fill-rule:nonzero;stroke:none"
           d="m 66.096,358.011 15.299,0 0,-15.299 -15.299,0 0,15.299 z" /><path
           id="path86"
           style="fill:#c0ba9f;fill-opacity:1;fill-rule:nonzero;stroke:none"
           d="m 66.096,337.51 15.299,0 0,-15.299 -15.299,0 0,15.299 z" /><path
           id="path88"
           style="fill:#c0ba9f;fill-opacity:1;fill-rule:nonzero;stroke:none"
           d="m 66.096,316.397 15.299,0 0,-15.299 -15.299,0 0,15.299 z" /><path
           id="path90"
           style="fill:#c0ba9f;fill-opacity:1;fill-rule:nonzero;stroke:none"
           d="m 66.096,295.285 15.299,0 0,-15.299 -15.299,0 0,15.299 z" /><path
           id="path92"
           style="fill:#c0ba9f;fill-opacity:1;fill-rule:nonzero;stroke:none"
           d="m 66.096,274.53 15.299,0 0,-15.299 -15.299,0 0,15.299 z" /><path
           id="path94"
           style="fill:#c0ba9f;fill-opacity:1;fill-rule:nonzero;stroke:none"
           d="m 66.096,253.723 15.299,0 0,-15.299 -15.299,0 0,15.299 z" /><path
           id="path96"
           style="fill:#c0ba9f;fill-opacity:1;fill-rule:nonzero;stroke:none"
           d="m 45.348,337.51 15.299,0 0,-15.299 -15.299,0 0,15.299 z" /><path
           id="path98"
           style="fill:#c0ba9f;fill-opacity:1;fill-rule:nonzero;stroke:none"
           d="m 45.348,316.397 15.299,0 0,-15.299 -15.299,0 0,15.299 z" /><path
           id="path100"
           style="fill:#c0ba9f;fill-opacity:1;fill-rule:nonzero;stroke:none"
           d="m 45.348,295.285 15.299,0 0,-15.299 -15.299,0 0,15.299 z" /><path
           id="path102"
           style="fill:#c0ba9f;fill-opacity:1;fill-rule:nonzero;stroke:none"
           d="m 45.348,274.53 15.299,0 0,-15.299 -15.299,0 0,15.299 z" /><path
           id="path104"
           style="fill:#c0ba9f;fill-opacity:1;fill-rule:nonzero;stroke:none"
           d="m 45.348,253.723 15.299,0 0,-15.299 -15.299,0 0,15.299 z" /><path
           id="path106"
           style="fill:#c0ba9f;fill-opacity:1;fill-rule:nonzero;stroke:none"
           d="m 24.177,378.958 15.299,0 0,-15.299 -15.299,0 0,15.299 z" /><path
           id="path108"
           style="fill:#c0ba9f;fill-opacity:1;fill-rule:nonzero;stroke:none"
           d="m 24.177,232.611 15.299,0 0,-15.299 -15.299,0 0,15.299 z" /><path
           id="path110"
           style="fill:#c0ba9f;fill-opacity:1;fill-rule:nonzero;stroke:none"
           d="m 24.177,211.804 15.299,0 0,-15.299 -15.299,0 0,15.299 z" /><path
           id="path112"
           style="fill:#c0ba9f;fill-opacity:1;fill-rule:nonzero;stroke:none"
           d="m 24.177,188.082 15.299,0 0,-15.299 -15.299,0 0,15.299 z" /><path
           id="path114"
           style="fill:#c0ba9f;fill-opacity:1;fill-rule:nonzero;stroke:none"
           d="m 24.177,166.97 15.299,0 0,-15.299 -15.299,0 0,15.299 z" /><path
           id="path116"
           style="fill:#c0ba9f;fill-opacity:1;fill-rule:nonzero;stroke:none"
           d="m 45.348,166.97 15.299,0 0,-15.299 -15.299,0 0,15.299 z" /><path
           id="path118"
           style="fill:#cac2b5;fill-opacity:1;fill-rule:nonzero;stroke:none"
           d="m 45.348,125.356 15.299,0 0,-15.299 -15.299,0 0,15.299 z" /><path
           id="path120"
           style="fill:#c0ba9f;fill-opacity:1;fill-rule:nonzero;stroke:none"
           d="m 24.177,145.857 15.299,0 0,-15.299 -15.299,0 0,15.299 z" /><path
           id="path122"
           style="fill:#cac2b5;fill-opacity:1;fill-rule:nonzero;stroke:none"
           d="m 24.177,125.356 15.299,0 0,-15.299 -15.299,0 0,15.299 z" /><path
           id="path124"
           style="fill:#cac2b5;fill-opacity:1;fill-rule:nonzero;stroke:none"
           d="m 66.096,125.356 15.299,0 0,-15.299 -15.299,0 0,15.299 z" /><path
           id="path126"
           style="fill:#666870;fill-opacity:1;fill-rule:nonzero;stroke:none"
           d="m 87.267,125.356 15.299,0 0,-15.299 -15.299,0 0,15.299 z" /><path
           id="path128"
           style="fill:#666870;fill-opacity:1;fill-rule:nonzero;stroke:none"
           d="m 87.267,145.857 15.299,0 0,-15.299 -15.299,0 0,15.299 z" /><path
           id="path130"
           style="fill:#666870;fill-opacity:1;fill-rule:nonzero;stroke:none"
           d="m 87.267,166.97 15.299,0 0,-15.299 -15.299,0 0,15.299 z" /><path
           id="path132"
           style="fill:#666870;fill-opacity:1;fill-rule:nonzero;stroke:none"
           d="m 87.267,188.082 15.299,0 0,-15.299 -15.299,0 0,15.299 z" /><path
           id="path134"
           style="fill:#cac2b5;fill-opacity:1;fill-rule:nonzero;stroke:none"
           d="m 45.348,378.958 15.299,0 0,-36.246 -15.299,0 0,36.246 z" /><path
           id="path136"
           style="fill:#cac2b5;fill-opacity:1;fill-rule:nonzero;stroke:none"
           d="m 45.348,232.611 15.299,0 0,-36.246 -15.299,0 0,36.246 z" /><path
           id="path138"
           style="fill:#666870;fill-opacity:1;fill-rule:nonzero;stroke:none"
           d="m 66.096,232.611 15.299,0 0,-36.246 -15.299,0 0,36.246 z" /><path
           id="path140"
           style="fill:#666870;fill-opacity:1;fill-rule:nonzero;stroke:none"
           d="m 66.32,211.664 36.246,0 0,-15.299 -36.246,0 0,15.299 z" /><path
           id="path142"
           style="fill:#666870;fill-opacity:1;fill-rule:nonzero;stroke:none"
           d="m 24.177,358.011 15.299,0 0,-119.586 -15.299,0 0,119.586 z" /><g
           transform="translate(118.5821,141.45)"
           id="g144"><path
             id="path146"
             style="fill:#666870;fill-opacity:1;fill-rule:nonzero;stroke:none"
             d="m 0,0 c -4.263,0 -7.719,3.456 -7.719,7.719 0,4.263 3.456,7.719 7.719,7.719 4.263,0 7.719,-3.456 7.719,-7.719 C 7.719,3.456 4.263,0 0,0" /></g><g
           transform="translate(118.6046,120.702)"
           id="g148"><path
             id="path150"
             style="fill:#2c9d40;fill-opacity:1;fill-rule:nonzero;stroke:none"
             d="m 0,0 c -4.263,0 -7.719,3.456 -7.719,7.719 0,4.263 3.456,7.719 7.719,7.719 4.263,0 7.719,-3.456 7.719,-7.719 C 7.719,3.456 4.263,0 0,0" /></g><g
           transform="translate(145.8423,255.367)"
           id="g152"><path
             id="path154"
             style="fill:#d8d5cb;fill-opacity:1;fill-rule:nonzero;stroke:none"
             d="m 0,0 c 7.046,0.201 7.603,-1.91 12.442,-6.837 4.027,-4.1 8.861,-5.824 14.434,-5.912 2.992,-0.047 -0.858,-0.102 2.134,-0.029 1.911,0.047 2.427,-0.888 2.414,-2.621 -0.013,-1.661 -0.355,-2.763 -2.333,-2.691 -4.481,0.163 -2.136,-0.306 -6.602,0.327 -5.341,0.756 -9.866,3.214 -13.581,7.049 C 4.941,-6.619 5.651,-5.704 0,-5.798" /></g></g></g></g></svg>