<?xml version="1.0" encoding="utf-8"?>
<!-- Generator: Adobe Illustrator 19.0.0, SVG Export Plug-In . SVG Version: 6.00 Build 0)  -->
<svg version="1.1" baseProfile="tiny" id="Calque_1"
	 xmlns="http://www.w3.org/2000/svg" xmlns:xlink="http://www.w3.org/1999/xlink" x="0px" y="0px" viewBox="0 0 172 172"
	 xml:space="preserve">
<g>
	<path d="M86,172c-47.5,0-86-38.5-86-86S38.5,0,86,0s86,38.5,86,86S133.5,172,86,172z M98.6,86c0-7-5.7-12.6-12.6-12.6
		S73.4,79.1,73.4,86c0,7,5.6,12.6,12.6,12.6S98.6,93,98.6,86z"/>
	<path id="XMLID_918_" fill="#FFFFFF" d="M86,1.4C39.3,1.4,1.4,39.3,1.4,86s37.9,84.6,84.6,84.6c46.7,0,84.6-37.9,84.6-84.6
		S132.7,1.4,86,1.4z M150.2,135.2c-14.8,19.3-38,31.7-64.2,31.7s-49.4-12.4-64.2-31.7C11.3,121.6,5.1,104.5,5.1,86
		C5.1,41.3,41.3,5.1,86,5.1c44.7,0,80.9,36.2,80.9,80.9C166.9,104.5,160.7,121.6,150.2,135.2L150.2,135.2z"/>
	<path id="XMLID_1_" d="M98.6,126.6l5.7,8.6h45.9c-14.8,19.3-38,31.7-64.2,31.7s-49.4-12.4-64.2-31.7h43.3"/>
	<path id="XMLID_913_" fill="#757575" d="M104.3,135.2h45.9c10.5-13.6,16.7-30.7,16.7-49.2c0-44.7-36.2-80.9-80.9-80.9
		C41.3,5.1,5.1,41.3,5.1,86c0,18.5,6.2,35.6,16.7,49.2h43.3 M86,112c-14.4,0-26-11.7-26-26s11.6-26,26-26s26,11.7,26,26
		S100.4,112,86,112z"/>
	<path id="XMLID_909_" fill="#96C93E" d="M86,60c-14.4,0-26,11.7-26,26s11.6,26,26,26s26-11.7,26-26S100.4,60,86,60z M86,110.1
		c-13.3,0-24.1-10.8-24.1-24.1S72.7,61.9,86,61.9s24.1,10.8,24.1,24.1S99.3,110.1,86,110.1z"/>
	<path id="XMLID_905_" fill="#939598" d="M86,61.9c-13.3,0-24.1,10.8-24.1,24.1s10.8,24.1,24.1,24.1s24.1-10.8,24.1-24.1
		S99.3,61.9,86,61.9z M86,108.6c-12.5,0-22.6-10.1-22.6-22.6S73.5,63.4,86,63.4c12.5,0,22.6,10.1,22.6,22.6S98.5,108.6,86,108.6z"/>
	<path id="XMLID_902_" fill="#58595B" stroke="#383839" stroke-width="1.977" stroke-miterlimit="10" d="M86,63.4
		c-12.5,0-22.6,10.1-22.6,22.6s10.1,22.6,22.6,22.6c12.5,0,22.6-10.1,22.6-22.6S98.5,63.4,86,63.4z M86,97.9
		c-7,0-12.6-5.6-12.6-12.6c0-7,5.6-12.6,12.6-12.6s12.6,5.7,12.6,12.6C98.6,92.3,93,97.9,86,97.9z"/>
	<g>
		<path id="ScummVM" fill="#060706" d="M121.3,125c-0.2-0.6-0.6-1-1.3-1.1c-0.7-0.1-1.4-0.1-2.1-0.2c-0.6-0.1-1.3,0.2-1.6,0.8
			c-1,1.9-2.1,3.8-3.1,5.7c-0.4,0.7-0.8,1.4-1.2,2.2c0,0.1,0,0.2-0.1,0.2c-0.1,0-0.1-0.1-0.1-0.2c-0.8-2.8-1.5-5.6-2.3-8.4
			c0,0,0-0.1,0-0.1c-0.2-0.7-0.7-1.1-1.5-1.1c-0.7-0.1-1.3-0.1-2-0.2c-0.5-0.1-1-0.1-1.4,0.3c-0.1,0.1-0.1,0-0.1-0.1
			c-0.2-0.5-0.7-0.8-1.3-0.7c-0.9,0.2-1.8,0.4-2.7,0.5c-0.7,0.1-1,0.5-1.1,1.2c-0.1,0.6-0.2,1.1-0.2,1.7c-0.2,1.2-0.3,2.5-0.5,3.7
			c-0.1,0.4-0.1,0.9-0.2,1.4c-0.1-0.1-0.1-0.1-0.1-0.2c-1.1-2-2.2-4-3.3-5.9c-0.2-0.4-0.7-0.7-1.1-0.6c-1.1,0.2-2.2,0.4-3.3,0.7
			c-0.8,0.2-1.1,1-0.7,1.7c0.7,1.2,1.5,2.5,2.2,3.7c0.1,0.1,0,0.1-0.1,0.2c-0.3,0.1-0.6,0.1-0.9,0.3c-0.2,0.1-0.3,0.1-0.5,0
			c-0.4-0.2-0.9-0.3-1.3-0.2c-0.5,0.1-1,0-1.5-0.1c-0.6-0.1-1.2,0-1.8,0c-0.5,0-0.9,0.1-1.3,0.5c-0.1,0.1-0.2,0.1-0.4,0
			c-1.3-0.7-2.6-0.8-3.9-0.3c-0.2,0.1-0.3,0.1-0.5,0c-0.5-0.2-0.9-0.3-1.4-0.2c-0.5,0.1-0.9,0.1-1.3-0.1c0,0-0.1,0-0.1,0
			c-0.7,0-1.4,0-2.1,0.1c-0.2,0-0.4,0-0.5-0.1c-0.2-0.2-0.5-0.3-0.8-0.3c-0.7,0-1.4,0-2.2,0c-0.4,0-0.7,0.1-1,0.3
			c-0.1,0.1-0.3,0.1-0.4,0.1c-0.2-0.1-0.4-0.2-0.7-0.2c-0.7,0-1.5,0-2.2,0c-0.4,0-0.8,0.2-1.1,0.5c-0.2,0.2-0.3,0.3-0.5,0.1
			c-0.8-0.6-1.7-0.8-2.7-0.9c-1.1,0-2.1,0.2-3,0.8c0,0,0,0,0,0c-0.1,0.1-0.3,0.3-0.4,0.2c-0.1-0.1,0-0.3,0-0.4c0.1-0.2,0-0.4,0-0.6
			c-0.1-0.3-0.3-0.6-0.5-0.8c-1.7-1.5-3.6-2-5.7-1.4c-1.9,0.5-3,2.3-2.7,4.2c0.1,0.8,0.4,1.4,0.9,2c0.1,0.2,0.1,0.3,0,0.5
			c-0.4,0.4-0.8,0.9-1.1,1.4c-0.2,0.3-0.3,0.7-0.2,1.1c0.1,0.3,0.3,0.6,0.5,0.9c0.3,0.3,0.7,0.7,1.1,1c0.7,0.6,1.6,0.8,2.5,0.9
			c1,0.1,2,0,2.9-0.4c0.6-0.2,1.2-0.6,1.6-1.1c0.1-0.1,0.3-0.2,0.4,0c0.7,0.8,1.6,1.3,2.7,1.4c1.6,0.3,2.9,0,4.1-1.2
			c0.1-0.1,0.3-0.2,0.4,0c0.6,0.8,1.4,1.2,2.4,1.3c0.6,0.1,1.2,0.1,1.8,0c0.2-0.1,0.4-0.1,0.6,0c0.4,0.1,0.8,0.1,1.2,0.1
			c0.5,0,1.1,0.1,1.6-0.1c0.5-0.2,1-0.1,1.4-0.1c0.6,0,1.2,0,1.8-0.1c0.3-0.1,0.6-0.1,0.9,0.1c0.2,0.1,0.5,0.1,0.8,0.1
			c0.5,0,1.1,0,1.6,0c0.4,0,0.8-0.1,1.1-0.3c0.3-0.2,0.5,0,0.8,0c0.5,0.1,1.1,0.1,1.6,0.2c0.2,0,0.4,0,0.6-0.1
			c0.2-0.1,0.4-0.1,0.5,0c0.3,0.1,0.6,0.1,0.9,0.1c0.7,0,1.5,0,2.2-0.2c0.1,0,0.2,0,0.3,0c0.3,0.1,0.6,0.2,1,0.2c0.5,0,1.1,0,1.6,0
			c0.4,0,0.8-0.1,1.1-0.3c0.3-0.2,0.5,0,0.8,0c0.5,0.1,1.1,0.2,1.6,0.2c0.7,0,1.3-0.2,1.4-1.2c0-0.2,0.1-0.5,0.1-0.8
			c0.1,0.2,0.3,0.4,0.4,0.6c0,0,0.1,0.1,0.1,0.1c0.4,0.6,0.7,1.2,1.1,1.8c0.1,0.1,0.2,0.1,0.3,0.2c0.3,0.1,0.6,0.1,0.8,0
			c0.5-0.1,1-0.2,1.5-0.3c0.6-0.1,1-0.4,1.1-1.1c0.1,0.3,0.2,0.5,0.4,0.6c0,0,0,0,0.1,0.1c0.5,0.4,1.1,0.3,1.6,0.4
			c0.4,0,0.9,0.1,1.3,0.1c0.7,0,1.3-0.5,1.4-1.2c0.2-1.3,0.4-2.5,0.5-3.8c0,0,0-0.1,0-0.1c0.1,0.4,0.2,0.7,0.3,1.1
			c0.2,0.8,0.4,1.6,0.7,2.4c0.2,0.6,0.3,1.3,0.7,1.8c0.6,0.5,1.3,0.4,2,0.5c0.4,0.1,0.8,0,1.2-0.2c0.2-0.1,0.4-0.3,0.6-0.6
			c0.7-1.3,1.5-2.6,2.2-3.9c0,0,0-0.1,0.1-0.1c0,0.5-0.1,1-0.1,1.4c0,0.6-0.1,1.2-0.1,1.8c-0.1,0.6-0.1,1.2,0.4,1.7
			c0.5,0.4,1.1,0.3,1.7,0.4c0.5,0.1,0.9,0.1,1.4,0.1c0.8,0.1,1.6-0.5,1.6-1.3c0.1-1.3,0.2-2.6,0.4-4c0.1-1.2,0.2-2.4,0.3-3.6
			c0.1-1.3,0.2-2.7,0.4-4c0.1-1,0.2-2,0.3-3C121.3,125.3,121.3,125.1,121.3,125z M57.4,137.7c-1.4,0.8-3.6,0.7-4.9-0.2
			c-0.3-0.2-0.5-0.4-0.7-0.7c0,0-0.1-0.1-0.1-0.1c-0.2-0.3-0.2-0.3,0-0.6c0.3-0.3,0.5-0.6,0.8-1c0.1-0.1,0.2-0.1,0.3,0
			c0.5,0.5,1.1,0.8,1.8,1c0.2,0.1,0.5,0.1,0.8,0.1c0.4-0.1,0.6-0.4,0.4-0.8c-0.1-0.2-0.2-0.3-0.3-0.4c-0.8-0.6-1.7-1-2.4-1.7
			c-0.1-0.1-0.2-0.2-0.2-0.3c-0.6-0.6-0.8-1.3-0.8-2.1c0.1-1.4,1.1-2.3,2.4-2.5c1.3-0.2,2.5,0,3.6,0.8c0,0,0,0,0,0
			c0.1,0.1,0.3,0.2,0.4,0.3c0,0,0,0,0,0c0,0,0.1,0.1,0.1,0.1c0,0,0,0,0,0c0,0,0,0,0,0c0.1,0.1,0.2,0.1,0.2,0.2c0,0,0,0,0,0
			c0.1,0.1,0.1,0.2,0,0.3c-0.2,0.4-0.5,0.7-0.7,1.1c-0.1,0.2-0.2,0.1-0.3,0c-0.5-0.4-1-0.7-1.6-0.9c-0.1,0-0.3-0.1-0.4-0.1
			c-0.4,0-0.6,0.1-0.7,0.4c0,0.2,0.1,0.4,0.3,0.5c0.3,0.3,0.7,0.4,1.1,0.6c0.4,0.2,0.9,0.5,1.2,0.8c0.6,0.4,1,1,1.2,1.7
			c0,0.2,0.1,0.3,0.1,0.5C58.9,136,58.5,137,57.4,137.7z M61.9,134.8C61.9,134.9,61.9,134.9,61.9,134.8c0,0.1,0.2,0.6,0.3,0.7
			c0,0,0,0,0,0c0.6,0.7,1.5,0.5,2-0.2c0.2-0.3,0.2-0.3,0.6-0.2c0.4,0.1,0.7,0.2,1.1,0.3c0.4,0.1,0.4,0.1,0.2,0.5
			c-0.3,1.2-1.4,2.2-2.7,2.3c-1,0.1-2-0.1-2.8-0.8c-0.1-0.1-0.2-0.2-0.3-0.3c-0.1-0.1-0.1-0.2-0.1-0.2c-0.4-0.5-0.6-1.1-0.7-1.8
			c-0.1-0.9,0-1.8,0.4-2.7c0.5-1,1.4-1.5,2.5-1.6c0.5-0.1,1,0,1.5,0.1c0.9,0.2,1.6,0.7,2,1.5c0.2,0.2,0.2,0.5,0.3,0.7
			c0,0.1,0,0.2-0.2,0.3c-0.5,0.1-1,0.3-1.5,0.4c-0.2,0-0.2-0.1-0.3-0.2c-0.3-0.5-0.7-0.7-1.2-0.7c-0.5,0-0.8,0.3-1,0.8
			C61.9,134.1,61.9,134.5,61.9,134.8z M73.9,138.3c-0.6,0-1.2,0-1.8,0c-0.2,0-0.3-0.1-0.3-0.3c0,0,0-0.1,0-0.1c0-0.1,0-0.2-0.1-0.2
			c-0.1,0-0.2,0.1-0.2,0.1c-0.7,0.6-1.5,0.6-2.4,0.4c-0.6-0.1-1.2-0.4-1.6-1c0,0-0.1-0.1-0.1-0.1c-0.3-0.4-0.4-0.9-0.5-1.4
			c-0.1-1,0-2,0.1-2.9c0-0.5,0.1-1,0.2-1.4c0-0.1,0.1-0.2,0.2-0.2c0.7,0,1.5,0,2.2,0c0.3,0,0.2,0.2,0.2,0.4
			c-0.1,0.9-0.3,1.8-0.3,2.7c0,0.3,0,0.7,0,1v0c0,0.1,0.1,0.4,0.2,0.6l0,0c0.3,0.3,0.7,0.4,1.2,0.3c0.4-0.2,0.7-0.5,0.7-1
			c0-1.1,0-2.2-0.1-3.3c0-0.2,0-0.5,0-0.7c0-0.1,0.1-0.2,0.2-0.2c0.7,0,1.4,0,2.2,0c0.1,0,0.2,0.1,0.2,0.2c0,0.1,0,0.2,0,0.3
			c0,0.6,0,1.2,0.1,1.8c0.1,1.6,0.1,3.3,0.2,4.9C74.2,138.3,74.2,138.3,73.9,138.3z M85,135.5c0,0.8-0.2,1.6-0.3,2.4
			c0,0.2-0.1,0.3-0.4,0.3c-0.7-0.1-1.3-0.2-2-0.3c-0.2,0-0.1-0.4-0.1-0.5c0.2-1,0.4-2,0.4-3c0-0.2,0-0.4-0.1-0.6
			c-0.1-0.2-0.1-0.4-0.3-0.5c-0.4-0.1-0.7,0-0.8,0.5c-0.1,0.3-0.1,0.7-0.1,1c0,1.1,0,2.1,0,3.2c0,0.2,0,0.3-0.2,0.3
			c-0.7,0-1.4,0-2,0c-0.1,0-0.2,0-0.2-0.2c0-0.6,0-1.2,0-1.8c0-0.7,0-1.4,0-2.1c0-0.1,0-0.2-0.1-0.4c-0.1-0.4-0.4-0.5-0.8-0.3
			c-0.2,0.2-0.2,0.4-0.2,0.6c0,1.3,0,2.5-0.1,3.8c0,0.3-0.1,0.3-0.3,0.3c-0.6,0-1.2,0-1.8,0c-0.4,0-0.4-0.6-0.4-0.7
			c0-1.7,0-3.4,0-5.1c0-0.3,0-0.6,0-0.9c0-0.2,0.1-0.3,0.3-0.3c0.6,0,1.2,0,1.7,0c0.2,0,0.3,0.1,0.3,0.3c0,0.1,0,0.2,0,0.3
			c0,0.1,0,0.1,0.1,0.2c0.1,0,0.1,0,0.2-0.1c0.2-0.3,0.5-0.5,0.9-0.5c0.6-0.1,1.2,0,1.6,0.5c0.1,0.1,0.2,0.2,0.3,0
			c0.8-0.8,1.7-0.8,2.7-0.6c1.1,0.3,1.6,1.2,1.8,2.2c0,0.2,0,0.3,0.1,0.5C85,134.4,85,135,85,135.5z M117.2,125
			c0.1-0.2,0.3-0.2,0.5-0.2c0.2,0,0.4,0,0.6,0c0.1,0,0.1,0,0.1,0.1c-0.2,0.7-0.5,1.4-0.7,2.1c0,0.1,0,0.1-0.1,0.1c-0.5,0-1,0-1.5,0
			C116.5,126.4,116.8,125.7,117.2,125z M104.6,127.8c0.2-1.3,0.4-2.6,0.6-3.9c0-0.2,0.2-0.3,0.4-0.3c0.7,0.1,1.3,0.1,2,0.2
			c0.1,0,0.3,0,0.4,0c0.2,0,0.4,0.1,0.4,0.4c0.2,0.8,0.4,1.6,0.7,2.4c0,0.1,0,0.1-0.1,0.1c-0.5,0-0.9,0-1.4,0c-0.4,0-0.9,0-1.3,0
			c-0.1,0-0.2,0-0.2,0.2c-0.1,0.3-0.2,0.6-0.3,1c0,0.1-0.1,0.1-0.2,0.1c-0.3,0-0.6,0-0.9,0C104.6,127.9,104.6,127.9,104.6,127.8z
			 M100.2,126.5c0.1-0.8,0.2-1.6,0.3-2.4c0-0.3,0.2-0.4,0.4-0.5c0.2-0.1,0.5-0.1,0.7-0.1c0.1,0,0.1,0,0.1,0.1c0,0.1,0,0.3,0,0.4
			c0,0.1,0,0.2-0.1,0.2c-0.1,0.1-0.2,0.2-0.2,0.3c0,0.2,0,0.4-0.2,0.5c-0.1,0,0,0.1,0,0.2c0,0.4,0,0.8,0,1.3c0,0.2-0.2,0.4-0.4,0.4
			c-0.1,0-0.2,0-0.3,0C100.1,126.9,100.1,126.9,100.2,126.5z M91.9,127.3c-0.3-0.5-0.6-0.9-0.8-1.4c-0.1-0.2-0.1-0.3,0.2-0.4
			c0.9-0.2,1.7-0.4,2.6-0.5c0.2,0,0.4,0,0.4,0.2c0.2,0.3,0.3,0.6,0.5,0.9c0,0.1,0,0.1-0.1,0.1c-0.1,0-0.2,0-0.3,0
			c-0.2,0-0.3,0-0.4,0.2c0,0.1-0.1,0.1-0.2,0.1c-0.2,0-0.4,0-0.6,0c-0.2,0-0.3,0.1-0.2,0.3c0,0.3,0,0.6,0,0.9c0,0.1,0,0.1-0.1,0.1
			c-0.1,0-0.2,0-0.4,0C92.2,127.8,92.1,127.6,91.9,127.3z M95.4,138c0,0.1-0.1,0.2-0.2,0.2c-0.7-0.1-1.4-0.2-2.2-0.3
			c-0.3,0-0.2-0.2-0.1-0.4c0.2-0.8,0.3-1.6,0.4-2.4c0-0.4,0.1-0.7,0-1.1c0-0.2-0.1-0.4-0.2-0.6c-0.4-0.3-0.8-0.1-1,0.3
			c-0.2,0.5-0.1,1-0.2,1.4c0,0.9,0,1.9,0.1,2.8c0,0.2-0.1,0.2-0.2,0.2c-0.7,0-1.4,0-2.1,0c-0.2,0-0.3-0.1-0.2-0.3c0-1.2,0-2.3,0-3.5
			c0-0.2,0-0.4-0.1-0.6c-0.2-0.6-0.5-0.7-1-0.3c-0.1,0.5-0.1,1.1-0.1,1.6c0,0.9,0,1.8-0.1,2.7c0,0.2-0.1,0.3-0.3,0.3
			c-0.7,0-1.3,0-2,0c-0.2,0-0.3-0.1-0.2-0.3c0-0.2,0-0.5,0-0.7c0-0.2,0-0.3,0-0.5v-0.2c0-0.2,0-0.4,0-0.6c0-0.8,0-1.7,0-2.5
			c0-0.6,0-1.2-0.1-1.8c0-0.2,0.1-0.3,0.3-0.3c0.6,0,1.1,0,1.7,0c0.2,0,0.3,0.1,0.3,0.2c0,0.1,0,0.2,0,0.3c0,0.2,0.1,0.2,0.2,0.1
			c0.2-0.3,0.5-0.5,0.9-0.5c0.6-0.1,1.2,0,1.6,0.5c0.1,0.1,0.2,0.1,0.3,0c0.6-0.6,1.3-0.8,2.1-0.6c0.3,0,0.7,0.1,1,0.2
			c0.5,0.2,0.9,0.7,1.1,1.2c0,0.1,0.1,0.2,0.1,0.4c0.2,0.4,0.2,0.7,0.2,1.1C95.8,135.4,95.6,136.7,95.4,138z M96.5,132.3
			c-0.1-0.3-0.3-0.6-0.5-0.9c-0.6-0.8-1.4-1.2-2.3-1.4c-0.1,0-0.2-0.1-0.2-0.2c-0.4-0.6-0.8-1.3-1.1-1.9c-0.1-0.1-0.1-0.1,0.1-0.1
			c0.2,0,0.5,0,0.7,0c0.1,0,0.1,0,0.1-0.1c0-0.3,0-0.7,0-1c0-0.1,0-0.1,0.1-0.1c0.2,0,0.3,0,0.5,0c0.2,0,0.4,0,0.5-0.2
			c0.1-0.1,0.2,0,0.3-0.1c0.3-0.1,0.5,0.1,0.6,0.4c0.6,1.1,1.2,2.2,1.9,3.3c0.2,0.3,0.4,0.7,0.6,1l0.2,0.3c0.1,0.1,0,0.2-0.1,0.2
			c-0.4,0.3-0.7,0.6-1,0.9C96.5,132.5,96.5,132.5,96.5,132.3z M101.2,136.9c-0.1,0.3-0.1,0.6-0.2,0.9c0,0,0,0,0,0c0,0,0,0.2-0.1,0.6
			c0,0.4-0.3,0.4-0.3,0.4s-1.3,0.3-1.5,0.3c-0.2,0.1-0.3-0.2-0.3-0.2l-0.4-0.8l0,0c0,0,0,0,0-0.1l0,0c-0.1-0.2-0.3-0.5-0.4-0.7
			c-0.1-0.1,0-0.1,0-0.1c0.6-0.2,1.1-0.4,1.7-0.6c0.1,0,0.1-0.1,0.1-0.2c0-0.1,0-0.2,0-0.3c0-0.3,0-0.6,0.3-0.7
			c0.1-0.1,0.2-0.1,0.3-0.1c0.4,0,0.7,0,0.9-0.3c0,0,0.1-0.1,0.2-0.1C101.4,135.5,101.3,136.2,101.2,136.9z M102.4,129.7
			c-0.1,0.5-0.2,0.9-0.2,1.4c-0.1,0.3-0.1,0.7-0.2,1c0,0.1-0.1,0.1-0.1,0.1c-0.2,0-0.4,0-0.6,0c-0.1,0-0.1,0-0.1-0.1
			c0-0.3,0-0.5,0-0.8v-0.2c0-0.2,0-0.3,0-0.5c0-0.2,0-0.4,0.2-0.5c0.1-0.1,0.1-0.3,0.1-0.4c0-0.1,0-0.1,0.1-0.1
			C101.9,129.6,102.1,129.6,102.4,129.7C102.4,129.6,102.4,129.6,102.4,129.7z M102.6,128.4C102.6,128.4,102.6,128.5,102.6,128.4
			c0,0.1,0,0.1,0,0.2c0,0.1,0,0.1,0,0.2c0,0.1,0,0.1,0,0.2c0,0,0,0.1,0,0.1c0,0.1,0,0.1,0,0.2c0,0.1-0.1,0.1-0.1,0.1
			c-0.3,0-0.6,0-0.9,0c-0.1,0-0.2,0-0.1,0.2c0,0.2,0.1,0.5-0.2,0.6c-0.1,0-0.1,0.1-0.1,0.2c0,0.2,0,0.5,0,0.7c0,0.4,0,0.7,0,1.1
			c0,0.1,0,0.2,0.2,0.2c0.2,0,0.4,0,0.6,0c0.1,0,0.1,0,0.1,0.1c-0.1,0.6-0.2,1.2-0.3,1.8c0,0.1,0,0.2-0.1,0.2
			c-0.1,0-0.1,0.1-0.2,0.1c-0.3,0.3-0.6,0.4-1,0.4c-0.3,0-0.8,0.4-0.8,0.7c0,0.2,0,0.3,0,0.5c0,0.1,0,0.1-0.1,0.1
			c-0.6,0.2-1.1,0.4-1.7,0.6c-0.1,0-0.1,0-0.2-0.1c-0.2-0.4-0.5-0.8-0.8-1.3c0-0.1-0.1-0.1-0.1-0.2c0-0.9,0-1.8-0.2-2.6
			c0-0.1,0-0.1,0.1-0.2c0.4-0.3,0.7-0.6,1.1-0.9c0.1-0.1,0.1-0.1,0.2,0c0.3,0.6,0.7,1.2,1,1.8c0,0.1,0,0.2,0.1,0.1
			c0.1,0,0.1-0.1,0.1-0.2c0.1-0.7,0.2-1.5,0.3-2.2c0,0,0,0,0,0c0-0.1,0.5-3.2,0.5-3.9c0,0,0-0.1,0-0.1c0-0.1,0-0.1,0.1-0.1
			c0.2,0,0.4,0,0.6,0c0.1,0,0.2,0,0.3-0.1c0.2-0.1,0.3-0.3,0.3-0.6c0-0.3,0-0.6,0-0.8c0-0.2,0-0.4,0.2-0.6c0.1-0.1,0-0.2,0-0.3
			c0-0.1,0-0.2,0-0.2c0.3-0.2,0.2-0.4,0.2-0.7c0-0.3,0-0.3,0.3-0.4c0.3-0.1,0.6-0.1,0.8-0.2c0.3-0.1,0.4,0,0.3,0.3c0,0,0,0.1,0,0.1
			c0,0,0,0.1,0,0.1c0,0,0,0,0,0.1c0,0,0,0.1,0,0.1c-0.1,0.7-0.2,1.5-0.4,2.2C102.9,126.9,102.7,127.6,102.6,128.4z M105.9,136.7
			c-0.1,0.6-0.2,1.2-0.3,1.8c0,0.2-0.2,0.3-0.3,0.3c-0.7-0.1-1.3-0.1-2-0.2c-0.2,0-0.3-0.2-0.3-0.3c0.1-0.6,0.2-1.2,0.3-1.8
			c0-0.1,0-0.2,0.2-0.2C104.2,136.4,105,136.5,105.9,136.7C105.9,136.6,105.9,136.7,105.9,136.7z M106.1,135.3
			c-0.1,0.3-0.1,0.7-0.1,1c0,0.1,0,0.2-0.1,0.1c-0.7-0.1-1.3-0.2-2-0.2c0,0,0,0,0,0c-0.1,0-0.3,0-0.4-0.1c-0.1-0.1,0-0.3,0-0.4
			c0-0.2,0.1-0.5,0.1-0.7c0-0.1,0.1-0.1,0.2-0.1c0.1,0,0.2,0,0.4,0c0.2,0,0.4,0,0.6,0.2c0.1,0.1,0.2,0.1,0.4,0.1c0.3,0,0.6,0,1,0
			C106.1,135.1,106.1,135.2,106.1,135.3z M108.5,135.2c-0.3-1-0.6-2-0.9-3c0,0,0-0.1,0-0.1c-0.2-0.7-0.4-1.5-0.7-2.2
			c0-0.1,0-0.1-0.1-0.1c-0.1,0-0.1,0.1-0.1,0.1c-0.1,0.8-0.2,1.5-0.3,2.3c-0.1,0.5-0.1,1.1-0.2,1.6c0,0.3-0.1,0.7-0.1,1
			c0,0.1,0,0.1-0.1,0.1c-0.4,0-0.7,0-1.1,0c0,0-0.1,0-0.1,0c-0.3-0.2-0.7-0.2-1-0.2c-0.2,0-0.2,0-0.2-0.2c0.1-0.8,0.2-1.6,0.4-2.3
			c0.2-1.1,0.3-2.2,0.5-3.3c0-0.2,0.1-0.4,0.1-0.7c0-0.1,0.1-0.1,0.1-0.1c0.4,0,0.8,0,1.1,0c0.1,0,0.1,0,0.2-0.1
			c0.1-0.3,0.2-0.7,0.3-1c0-0.1,0.1-0.1,0.2-0.1c0.9,0,1.7,0,2.6,0c0.1,0,0.1,0,0.2,0.1c0.4,1.6,0.9,3.2,1.3,4.8
			c0,0.1,0,0.1-0.1,0.1c-0.4,0-0.8,0-1.2,0c-0.1,0-0.1,0-0.1,0.1c0,0.8,0,1.6,0,2.5c0,0.3,0,0.5,0,0.8c0,0.1,0,0.2-0.2,0.2
			C108.7,135.5,108.6,135.4,108.5,135.2z M119.8,129.7c-0.1,0.9-0.2,1.7-0.2,2.6c0,0.5-0.1,0.9-0.1,1.4c0,0.4-0.1,0.8-0.1,1.2
			c-0.1,0.7-0.1,1.3-0.2,2c0,0.3-0.1,0.5-0.1,0.8c0,0-0.1,1.7-0.1,2c-0.1,0.3-0.4,0.3-0.4,0.3s-2.2-0.2-2.5-0.3
			c-0.3-0.1-0.2-0.3-0.2-0.3l0.1-1.5c0.1-0.7,0.1-1.3,0.2-2c0-0.3,0.1-0.6,0.1-1c0-0.2,0-0.2,0.2-0.2c0.3,0,0.7,0,1,0
			c0.1,0,0.2,0,0.2-0.2c0-0.8,0-1.5,0-2.2c0-0.1,0-0.1,0-0.2c-0.1-0.6,0.2-1.1,0.3-1.7c0.1-0.2,0.1-0.5,0.2-0.7
			c0-0.1,0.1-0.1,0.1-0.1c0.5,0,0.9,0,1.4,0C119.8,129.6,119.8,129.7,119.8,129.7z M120.2,125.3c-0.1,0.7-0.1,1.5-0.2,2.2
			c0,0.5-0.1,1.1-0.1,1.6c0,0.1,0,0.2-0.2,0.2c-0.5,0-1,0-1.4,0c-0.1,0-0.1,0-0.2,0.1c-0.2,0.6-0.4,1.3-0.5,1.9c0,0.2,0,0.4,0,0.6
			c0,0.8,0,1.6,0,2.4c0,0.1-0.1,0.1-0.1,0.1c-0.3,0-0.6,0-1,0c-0.1,0-0.1,0-0.1-0.1c0.1-0.8,0.1-1.6,0.2-2.4c0-0.2,0-0.5,0.1-0.7
			c0,0,0-0.1,0-0.1c-0.1,0-0.1,0-0.1,0.1c-0.2,0.4-0.4,0.7-0.7,1.1c-0.1,0.2-0.2,0.4-0.4,0.7c-0.3,0.5-0.6,1.1-0.9,1.6
			c-0.5,0.8-0.9,1.6-1.4,2.4c-0.3,0.6-0.7,1.2-1,1.8c0,0,0,0,0,0c0,0-0.1,0.2-0.1,0.2c-0.3,0.4-0.9,0.2-1.4,0.2
			c-0.2,0-0.5,0-0.7-0.1c-0.2-0.1-0.3-0.2-0.4-0.4c0,0,0,0,0,0c0,0,0,0,0,0c0,0,0,0,0,0c0,0,0,0,0,0c0-0.1-0.1-0.2-0.1-0.3
			c0,0,0,0,0-0.1c-0.2-0.8-0.5-1.6-0.7-2.4c0-0.1,0-0.1,0.1-0.1c0.4,0,0.4,0,0.4-0.4c0-1,0-2,0-2.9c0-0.1,0-0.2,0.2-0.2
			c0.3,0,0.6,0,1,0c0.1,0,0.2,0,0.2,0.1c0.1,0.6,0.3,1.2,0.5,1.9c0.1,0.3,0.2,0.7,0.3,1c0,0.1,0,0.1,0.1,0.1c0.1,0,0.1-0.1,0.2-0.1
			c0.5-1,1-1.9,1.6-2.9c0-0.1,0.1-0.1,0.1-0.2c0.9-1.6,1.7-3.2,2.6-4.8c0-0.1,0.1-0.1,0.2-0.1c0.5,0,1,0,1.6,0c0.1,0,0.1,0,0.2-0.1
			c0.2-0.7,0.5-1.5,0.7-2.2c0-0.1,0.1-0.1,0.2-0.1c0.4,0,0.8,0.1,1.1,0.1C120.1,125,120.2,125.1,120.2,125.3z"/>
		<path id="Shadow" fill="#757575" d="M59.8,129.7c0,0.2,0.1,0.4,0,0.6c0,0.1-0.1,0.3,0,0.4c0.1,0.1,0.3-0.1,0.4-0.2c0,0,0,0,0,0
			C60.1,130.2,60,129.9,59.8,129.7z M111.9,132.2c-0.7-2.6-1.4-5.1-2.1-7.7c-0.1-0.3-0.2-0.5-0.4-0.7c0,0,0,0.1,0,0.1
			c0.8,2.8,1.5,5.6,2.3,8.4c0,0.1,0,0.2,0.1,0.2c0.1,0,0.1-0.1,0.1-0.2C111.9,132.3,111.9,132.3,111.9,132.2z M102,138.7
			c-0.1,0.7-0.5,1-1.1,1.1c-0.5,0.1-1,0.2-1.5,0.3c-0.3,0.1-0.6,0.1-0.8,0c-0.1-0.1-0.2-0.1-0.3-0.2c0,0.1,0.1,0.1,0.1,0.2
			c0.3,0.6,0.7,0.7,1.4,0.6c0.5-0.1,1.1-0.2,1.6-0.3c0.7-0.1,0.9-0.4,1.1-1C102.2,139.2,102,139,102,138.7z M107.3,134.7
			c0,0.1,0,0.1,0,0.1c-0.2,1.3-0.4,2.5-0.5,3.8c-0.1,0.7-0.7,1.2-1.4,1.2c-0.4,0-0.9,0-1.3-0.1c-0.6-0.1-1.1,0-1.6-0.4
			c0.1,0.4,0.6,0.9,1.1,0.9c0.7,0.1,1.3,0.1,2,0.2c0.9,0.1,1.5-0.4,1.6-1.3c0.1-1.1,0.3-2.2,0.5-3.3c0,0,0-0.1,0.1-0.1
			C107.5,135.5,107.4,135.1,107.3,134.7z M115,135.9c-0.7,1.3-1.5,2.6-2.2,3.9c-0.1,0.2-0.3,0.4-0.6,0.6c-0.4,0.2-0.8,0.3-1.2,0.2
			c-0.7-0.1-1.4,0-2-0.5c0.2,0.5,0.6,0.9,1.1,1c0.5,0.1,1,0.1,1.4,0.2c0.6,0.1,1.3-0.2,1.6-0.8c0.4-0.7,0.8-1.4,1.2-2.1
			c0.2-0.4,0.4-0.7,0.6-1.1c0-0.5,0.1-1,0.1-1.4C115.1,135.8,115.1,135.8,115,135.9z M121.3,125c0,0.1,0,0.3,0,0.4
			c-0.1,1-0.2,2-0.3,3c-0.1,1.3-0.2,2.7-0.4,4c-0.1,1.2-0.2,2.4-0.3,3.6c-0.1,1.3-0.2,2.6-0.4,4c-0.1,0.8-0.8,1.4-1.6,1.3
			c-0.5-0.1-0.9-0.1-1.4-0.1c-0.6-0.1-1.2,0-1.7-0.4c0.1,0.5,0.6,0.9,1.2,0.9c0.7,0.1,1.4,0.1,2,0.2c0.6,0.1,1.1,0,1.5-0.4
			c0.3-0.3,0.4-0.8,0.4-1.2c0.1-1.5,0.3-3.1,0.4-4.6c0.1-1.6,0.3-3.1,0.4-4.7c0.1-1.6,0.3-3.2,0.4-4.8
			C121.7,125.7,121.6,125.3,121.3,125z M96.6,137.3c-0.1,0.3-0.1,0.5-0.1,0.8c-0.2,1-0.8,1.2-1.4,1.2c-0.5,0-1.1-0.1-1.6-0.2
			c-0.3,0-0.5-0.1-0.8,0c-0.3,0.2-0.7,0.3-1.1,0.3c-0.5,0-1.1,0-1.6,0c-0.3,0-0.7-0.1-1-0.2c-0.1,0-0.2-0.1-0.3,0
			c-0.7,0.2-1.5,0.1-2.2,0.2c-0.3,0-0.6,0-0.9-0.1c-0.2-0.1-0.4,0-0.5,0c-0.2,0.1-0.4,0.1-0.6,0.1c-0.5-0.1-1.1-0.1-1.6-0.2
			c-0.3,0-0.5-0.1-0.8,0c-0.3,0.2-0.7,0.3-1.1,0.3c-0.5,0-1.1,0-1.6,0c-0.3,0-0.5,0-0.8-0.1c-0.3-0.2-0.6-0.1-0.9-0.1
			c-0.6,0.1-1.2,0.1-1.8,0.1c-0.5,0-1-0.1-1.4,0.1c-0.5,0.2-1.1,0.1-1.6,0.1c-0.4,0-0.8,0.1-1.2-0.1c-0.2-0.1-0.4-0.1-0.6,0
			c-0.6,0.2-1.2,0.1-1.8,0c-0.9-0.2-1.8-0.6-2.4-1.3c-0.1-0.2-0.3-0.1-0.4,0c-1.2,1.1-2.5,1.4-4.1,1.2c-1-0.2-1.9-0.6-2.7-1.4
			c-0.1-0.2-0.3-0.1-0.4,0c-0.5,0.5-1,0.9-1.6,1.1c-0.9,0.3-1.9,0.5-2.9,0.4c-0.9-0.1-1.8-0.4-2.5-0.9c-0.4-0.3-0.7-0.6-1.1-1
			c0,0.1,0.1,0.2,0.2,0.3c0.8,1.1,1.8,1.8,3.1,2.1c2,0.4,3.8,0.1,5.3-1.4c0.2-0.2,0.3-0.1,0.4,0c0.6,0.7,1.3,1.1,2.2,1.3
			c1.7,0.4,3.2,0.1,4.5-1.1c0.2-0.2,0.3-0.1,0.5,0c1,1.2,2.3,1.5,3.8,1.3c0.4-0.1,0.8-0.1,1.3,0c0.6,0.1,1.2,0,1.8,0
			c0.4,0,0.8-0.1,1.2-0.2c0.1,0,0.2,0,0.3,0c1,0.1,1.9,0.1,2.9-0.1c0.1,0,0.3,0,0.4,0c0.2,0.1,0.5,0.2,0.8,0.2c0.5,0,1,0,1.5,0
			c0.5,0,1,0,1.4-0.3c0.1-0.1,0.2-0.1,0.3-0.1c0.4,0.1,0.9,0.1,1.3,0.2c0.5,0.1,1,0.1,1.5-0.1c0.1,0,0.2,0,0.2,0
			c0.5,0.2,1.1,0.1,1.6,0.1c0.4,0,0.9,0,1.3-0.1c0.3-0.1,0.5-0.1,0.8,0c0.1,0.1,0.3,0.1,0.4,0.1c0.6,0.1,1.2,0,1.8,0.1
			c0.5,0,1,0,1.4-0.3c0.1-0.1,0.2-0.1,0.4,0c0.7,0.1,1.3,0.2,2,0.2c0.7,0.1,1.2-0.3,1.4-1c0.1-0.3,0.1-0.6,0.2-0.9
			C96.9,137.8,96.8,137.6,96.6,137.3z"/>
		<path id="XMLID_22_" fill="#96C93E" d="M57.4,137.7c-1.4,0.8-3.6,0.7-4.9-0.2c-0.3-0.2-0.5-0.4-0.7-0.7c0,0-0.1-0.1-0.1-0.1
			c-0.2-0.3-0.2-0.3,0-0.6c0.3-0.3,0.5-0.6,0.8-1c0.1-0.1,0.2-0.1,0.3,0c0.5,0.5,1.1,0.8,1.8,1c0.2,0.1,0.5,0.1,0.8,0.1
			c0.4-0.1,0.6-0.4,0.4-0.8c-0.1-0.2-0.2-0.3-0.3-0.4c-0.8-0.6-1.7-1-2.4-1.7c-0.1-0.1-0.2-0.2-0.2-0.3c-0.6-0.6-0.8-1.3-0.8-2.1
			c0.1-1.4,1.1-2.3,2.4-2.5c1.3-0.2,2.5,0,3.6,0.8c0,0,0,0,0,0c0.1,0.1,0.3,0.2,0.4,0.3c0,0,0,0,0,0c0,0,0.1,0.1,0.1,0.1
			c0,0,0,0,0,0c0,0,0,0,0,0c0.1,0.1,0.2,0.1,0.2,0.2c0,0,0,0,0,0c0.1,0.1,0.1,0.2,0,0.3c-0.2,0.4-0.5,0.7-0.7,1.1
			c-0.1,0.2-0.2,0.1-0.3,0c-0.5-0.4-1-0.7-1.6-0.9c-0.1,0-0.3-0.1-0.4-0.1c-0.4,0-0.6,0.1-0.7,0.4c0,0.2,0.1,0.4,0.3,0.5
			c0.3,0.3,0.7,0.4,1.1,0.6c0.4,0.2,0.9,0.5,1.2,0.8c0.6,0.4,1,1,1.2,1.7c0,0.2,0.1,0.3,0.1,0.5C58.9,136,58.5,137,57.4,137.7z"/>
		<path id="XMLID_14_" fill="#96C93E" d="M66.2,135.9c-0.3,1.2-1.4,2.2-2.7,2.3c-1,0.1-2-0.1-2.8-0.8c-0.1,0-0.2-0.2-0.3-0.3
			c-0.1-0.1-0.1-0.2-0.1-0.2c-0.4-0.5-0.6-1.1-0.7-1.8c-0.1-0.9,0-1.8,0.4-2.7c0.5-1,1.4-1.5,2.5-1.6c0.5-0.1,1,0,1.5,0.1
			c0.9,0.2,1.6,0.7,2,1.5c0.2,0.2,0.2,0.5,0.3,0.7c0,0.1,0,0.2-0.2,0.3c-0.5,0.1-1,0.3-1.5,0.4c-0.2,0-0.2-0.1-0.3-0.2
			c-0.3-0.5-0.7-0.7-1.2-0.7c-0.5,0-0.8,0.3-1,0.8c-0.1,0.4-0.2,0.7-0.1,1.1c0,0,0,0,0,0c0,0.1,0.2,0.5,0.3,0.7c0,0,0,0,0,0
			c0.6,0.7,1.5,0.5,2-0.2c0.2-0.3,0.2-0.3,0.6-0.2c0.4,0.1,0.7,0.2,1.1,0.3C66.3,135.5,66.3,135.6,66.2,135.9z"/>
		<path id="XMLID_13_" fill="#96C93E" d="M73.9,138.3c-0.6,0-1.2,0-1.8,0c-0.2,0-0.3-0.1-0.3-0.3c0,0,0-0.1,0-0.1
			c0-0.1,0-0.2-0.1-0.2c-0.1,0-0.2,0.1-0.2,0.1c-0.7,0.6-1.5,0.6-2.4,0.4c-0.6-0.1-1.2-0.4-1.6-1c0,0-0.1-0.1-0.1-0.1
			c-0.3-0.4-0.4-0.9-0.5-1.4c-0.1-1,0-2,0.1-2.9c0-0.5,0.1-1,0.2-1.4c0-0.1,0.1-0.2,0.2-0.2c0.7,0,1.5,0,2.2,0
			c0.3,0,0.2,0.2,0.2,0.4c-0.1,0.9-0.3,1.8-0.3,2.7c0,0.3,0,0.7,0,1v0c0,0.1,0.1,0.4,0.2,0.6l0,0c0.3,0.3,0.7,0.4,1.2,0.3
			c0.4-0.2,0.7-0.5,0.7-1c0-1.1,0-2.2-0.1-3.3c0-0.2,0-0.5,0-0.7c0-0.1,0.1-0.2,0.2-0.2c0.7,0,1.4,0,2.2,0c0.1,0,0.2,0.1,0.2,0.2
			c0,0.1,0,0.2,0,0.3c0,0.6,0,1.2,0.1,1.8c0.1,1.6,0.1,3.3,0.2,4.9C74.2,138.3,74.2,138.3,73.9,138.3z"/>
		<path id="XMLID_10_" fill="#96C93E" d="M95.4,138c0,0.1-0.1,0.2-0.2,0.2c-0.7-0.1-1.4-0.2-2.2-0.3c-0.3,0-0.2-0.2-0.1-0.4
			c0.2-0.8,0.3-1.6,0.4-2.4c0-0.4,0.1-0.7,0-1.1c0-0.2-0.1-0.4-0.2-0.6c-0.4-0.3-0.8-0.1-1,0.3c-0.2,0.5-0.1,1-0.2,1.4
			c0,0.9,0,1.9,0.1,2.8c0,0.2-0.1,0.2-0.2,0.2c-0.7,0-1.4,0-2.1,0c-0.2,0-0.3-0.1-0.2-0.3c0-1.2,0-2.3,0-3.5c0-0.2,0-0.4-0.1-0.6
			c-0.2-0.6-0.5-0.7-1-0.3c-0.1,0.5-0.1,1.1-0.1,1.6c0,0.9,0,1.8-0.1,2.7c0,0.2-0.1,0.3-0.3,0.3c-0.7,0-1.3,0-2,0
			c-0.2,0-0.3-0.1-0.2-0.3c0-0.2,0-0.5,0-0.7c0-0.2,0-0.3,0-0.5v-0.2c0-0.9,0-1.8,0-2.6c0-0.1,0-0.3,0-0.4c0-0.6,0-1.2-0.1-1.8
			c0-0.2,0.1-0.3,0.3-0.3c0.6,0,1.1,0,1.7,0c0.2,0,0.3,0.1,0.3,0.2c0,0.1,0,0.2,0,0.3c0,0.2,0.1,0.2,0.2,0.1
			c0.2-0.3,0.5-0.5,0.9-0.5c0.6-0.1,1.2,0,1.6,0.5c0.1,0.1,0.2,0.1,0.3,0c0.6-0.6,1.3-0.8,2.1-0.6c0.3,0,0.7,0.1,1,0.2
			c0.5,0.2,0.9,0.7,1.1,1.2c0,0.1,0.1,0.2,0.1,0.4c0.2,0.4,0.2,0.7,0.2,1.1C95.8,135.4,95.6,136.7,95.4,138z"/>
		<path id="XMLID_9_" fill="#96C93E" d="M85,135.5c0,0.8-0.2,1.6-0.3,2.4c0,0.2-0.1,0.3-0.4,0.3c-0.7-0.1-1.3-0.2-2-0.3
			c-0.2,0-0.1-0.4-0.1-0.5c0.2-1,0.4-2,0.4-3c0-0.2,0-0.4-0.1-0.6c-0.1-0.2-0.1-0.4-0.3-0.5c-0.4-0.1-0.7,0-0.8,0.5
			c-0.1,0.3-0.1,0.7-0.1,1c0,1.1,0,2.1,0,3.2c0,0.2,0,0.3-0.2,0.3c-0.7,0-1.4,0-2,0c-0.1,0-0.2,0-0.2-0.2c0-0.6,0-1.2,0-1.8
			c0-0.7,0-1.4,0-2.1c0-0.1,0-0.2-0.1-0.4c-0.1-0.4-0.4-0.5-0.8-0.3c-0.2,0.2-0.2,0.4-0.2,0.6c0,1.3,0,2.5-0.1,3.8
			c0,0.3-0.1,0.3-0.3,0.3c-0.6,0-1.2,0-1.8,0c-0.4,0-0.4-0.6-0.4-0.7c0-1.7,0-3.4,0-5.1c0-0.3,0-0.6,0-0.9c0-0.2,0.1-0.3,0.3-0.3
			c0.6,0,1.2,0,1.7,0c0.2,0,0.3,0.1,0.3,0.3c0,0.1,0,0.2,0,0.3c0,0.1,0,0.1,0.1,0.2c0.1,0,0.1,0,0.2-0.1c0.2-0.3,0.5-0.5,0.9-0.5
			c0.6-0.1,1.2,0,1.6,0.5c0.1,0.1,0.2,0.2,0.3,0c0.8-0.8,1.7-0.8,2.7-0.6c1.1,0.3,1.6,1.2,1.8,2.2c0,0.2,0,0.3,0.1,0.5
			C85,134.4,85,135,85,135.5z"/>
		<path id="M_white" fill="#FFFFFF" d="M118.3,124.8c-0.2,0-0.4,0-0.6,0c-0.2,0-0.4,0.1-0.5,0.2c-0.4,0.7-0.8,1.4-1.2,2.1
			c0.5,0,1,0,1.5,0c0.1,0,0.1,0,0.1-0.1c0.2-0.7,0.5-1.4,0.7-2.1C118.4,124.9,118.4,124.8,118.3,124.8z M106,135.1c-0.3,0-0.6,0-1,0
			c-0.1,0-0.3,0-0.4-0.1c-0.2-0.1-0.4-0.2-0.6-0.2c-0.1,0-0.2,0-0.4,0c-0.1,0-0.1,0-0.2,0.1c0,0.2-0.1,0.5-0.1,0.7
			c0,0.1-0.1,0.3,0,0.4c0.1,0.1,0.3,0.1,0.4,0.1c0,0,0,0,0,0c0.7,0.1,1.3,0.2,2,0.2c0.1,0,0.1,0,0.1-0.1c0-0.3,0.1-0.7,0.1-1
			C106.1,135.2,106.1,135.1,106,135.1z M119.7,129.6c-0.5,0-0.9,0-1.4,0c-0.1,0-0.1,0-0.1,0.1c-0.1,0.2-0.1,0.5-0.2,0.7
			c-0.1,0.6-0.4,1.1-0.3,1.7c0,0.1,0,0.1,0,0.2c0,0.7,0,1.5,0,2.2c0,0.1,0,0.2-0.2,0.2c-0.3,0-0.7,0-1,0c-0.2,0-0.2,0.1-0.2,0.2
			c0,0.3,0,0.7-0.1,1c-0.1,0.7-0.1,1.3-0.2,2l-0.1,1.5c0,0,0,0.2,0.2,0.3c0.3,0.1,2.5,0.3,2.5,0.3s0.3,0,0.4-0.3
			c0.1-0.3,0.1-2,0.1-2c0-0.3,0.1-0.5,0.1-0.8c0.1-0.7,0.1-1.3,0.2-2c0-0.4,0.1-0.8,0.1-1.2c0-0.5,0.1-0.9,0.1-1.4
			c0.1-0.9,0.2-1.7,0.2-2.6C119.8,129.7,119.8,129.6,119.7,129.6z M105.8,136.6c-0.8-0.1-1.5-0.2-2.3-0.3c-0.1,0-0.2,0-0.2,0.2
			c-0.1,0.6-0.2,1.2-0.3,1.8c0,0.2,0.1,0.3,0.3,0.3c0.7,0.1,1.3,0.1,2,0.2c0.2,0,0.3-0.1,0.3-0.3
			C105.7,137.9,105.8,137.3,105.8,136.6C105.9,136.7,105.9,136.6,105.8,136.6z M109.1,126.5c-0.2-0.8-0.4-1.6-0.7-2.4
			c-0.1-0.2-0.2-0.3-0.4-0.4c-0.1,0-0.3,0-0.4,0c-0.7-0.1-1.3-0.1-2-0.2c-0.2,0-0.4,0.1-0.4,0.3c-0.2,1.3-0.4,2.6-0.6,3.9
			c0,0.1,0,0.1,0.1,0.1c0.3,0,0.6,0,0.9,0c0.1,0,0.1,0,0.2-0.1c0.1-0.3,0.2-0.6,0.3-1c0-0.1,0.1-0.2,0.2-0.2c0.4,0,0.9,0,1.3,0
			c0.5,0,0.9,0,1.4,0C109.1,126.7,109.1,126.6,109.1,126.5z M109.1,126.5c-0.2-0.8-0.4-1.6-0.7-2.4c-0.1-0.2-0.2-0.3-0.4-0.4
			c-0.1,0-0.3,0-0.4,0c-0.7-0.1-1.3-0.1-2-0.2c-0.2,0-0.4,0.1-0.4,0.3c-0.2,1.3-0.4,2.6-0.6,3.9c0,0.1,0,0.1,0.1,0.1
			c0.3,0,0.6,0,0.9,0c0.1,0,0.1,0,0.2-0.1c0.1-0.3,0.2-0.6,0.3-1c0-0.1,0.1-0.2,0.2-0.2c0.4,0,0.9,0,1.3,0c0.5,0,0.9,0,1.4,0
			C109.1,126.7,109.1,126.6,109.1,126.5z M119.9,125c-0.4,0-0.8-0.1-1.1-0.1c-0.1,0-0.1,0-0.2,0.1c-0.2,0.7-0.5,1.5-0.7,2.2
			c0,0.1-0.1,0.1-0.2,0.1c-0.5,0-1,0-1.6,0c-0.1,0-0.2,0-0.2,0.1c-0.9,1.6-1.7,3.2-2.6,4.8c0,0.1-0.1,0.1-0.1,0.2
			c-0.5,1-1,1.9-1.6,2.9c0,0.1-0.1,0.1-0.2,0.1c-0.1,0-0.1-0.1-0.1-0.1c-0.1-0.3-0.2-0.7-0.3-1c-0.1-0.6-0.3-1.2-0.5-1.9
			c0-0.1-0.1-0.1-0.2-0.1c-0.3,0-0.6,0-1,0c-0.1,0-0.2,0-0.2,0.2c0,1,0,2,0,2.9c0,0.4,0,0.4-0.4,0.4c-0.1,0-0.2,0-0.1,0.1
			c0.2,0.8,0.5,1.6,0.7,2.4c0,0,0,0,0,0.1c0,0.1,0.1,0.2,0.1,0.3c0,0,0,0,0,0c0,0,0,0,0,0c0,0,0,0,0,0c0,0,0,0,0,0
			c0.1,0.2,0.2,0.3,0.4,0.4c0.2,0.1,0.5,0.1,0.7,0.1c0.4,0,1.1,0.2,1.4-0.2c0,0,0.1-0.1,0.1-0.2c0,0,0,0,0,0c0.3-0.6,0.7-1.2,1-1.8
			c0.5-0.8,0.9-1.6,1.4-2.4c0.3-0.5,0.6-1.1,0.9-1.6c0.1-0.2,0.2-0.4,0.4-0.7c0.2-0.4,0.4-0.7,0.7-1.1c0,0,0-0.1,0.1-0.1
			c0.1,0,0,0.1,0,0.1c0,0.2,0,0.5-0.1,0.7c-0.1,0.8-0.1,1.6-0.2,2.4c0,0.1,0,0.1,0.1,0.1c0.3,0,0.6,0,1,0c0.1,0,0.1,0,0.1-0.1
			c0-0.8,0-1.6,0-2.4c0-0.2,0-0.4,0-0.6c0.2-0.6,0.4-1.3,0.5-1.9c0-0.1,0.1-0.1,0.2-0.1c0.5,0,1,0,1.4,0c0.2,0,0.2,0,0.2-0.2
			c0-0.5,0.1-1.1,0.1-1.6c0.1-0.7,0.1-1.5,0.2-2.2C120.2,125.1,120.1,125,119.9,125z M110.5,131.8c-0.4-1.6-0.9-3.2-1.3-4.8
			c0-0.1-0.1-0.1-0.2-0.1c-0.9,0-1.7,0-2.6,0c-0.1,0-0.1,0-0.2,0.1c-0.1,0.3-0.2,0.7-0.3,1c0,0.1-0.1,0.1-0.2,0.1
			c-0.4,0-0.8,0-1.1,0c-0.1,0-0.1,0-0.1,0.1c0,0.2-0.1,0.4-0.1,0.7c-0.2,1.1-0.3,2.2-0.5,3.3c-0.1,0.8-0.2,1.6-0.4,2.3
			c0,0.2,0,0.2,0.2,0.2c0.4,0,0.7,0,1,0.2c0,0,0.1,0,0.1,0c0.4,0,0.7,0,1.1,0c0.1,0,0.1,0,0.1-0.1c0-0.3,0.1-0.7,0.1-1
			c0.1-0.5,0.1-1.1,0.2-1.6c0.1-0.8,0.2-1.5,0.3-2.3c0-0.1,0-0.1,0.1-0.1c0.1,0,0.1,0.1,0.1,0.1c0.2,0.7,0.4,1.5,0.7,2.2
			c0,0,0,0.1,0,0.1c0.3,1,0.6,2,0.9,3c0.1,0.2,0.1,0.3,0.4,0.3c0.1,0,0.2,0,0.2-0.2c0-0.3,0-0.5,0-0.8c0-0.8,0-1.6,0-2.5
			c0-0.1,0.1-0.1,0.1-0.1c0.4,0,0.8,0,1.2,0C110.5,132,110.5,131.9,110.5,131.8z"/>
		<path id="V_white" fill="#FFFFFF" d="M102.3,129.6c-0.2,0-0.5,0-0.7,0c-0.1,0-0.1,0-0.1,0.1c0,0.1,0.1,0.3-0.1,0.4
			c-0.2,0.1-0.2,0.3-0.2,0.5c0,0.2,0,0.3,0,0.5v0.2c0,0.3,0,0.5,0,0.8c0,0.1,0,0.1,0.1,0.1c0.2,0,0.4,0,0.6,0c0.1,0,0.1,0,0.1-0.1
			c0.1-0.3,0.1-0.7,0.2-1C102.2,130.6,102.3,130.2,102.3,129.6C102.4,129.6,102.4,129.6,102.3,129.6z M101.8,124c0-0.1,0-0.3,0-0.4
			c0-0.1,0-0.1-0.1-0.1c-0.2,0.1-0.5,0.1-0.7,0.1c-0.3,0.1-0.4,0.2-0.4,0.5c-0.1,0.8-0.2,1.6-0.3,2.4c-0.1,0.4-0.1,0.4,0.4,0.4
			c0.1,0,0.2,0,0.3,0c0.2,0,0.4-0.2,0.4-0.4c0-0.4,0-0.8,0-1.3c0-0.1,0-0.1,0-0.2c0.2-0.1,0.2-0.3,0.2-0.5c0-0.1,0-0.3,0.2-0.3
			C101.8,124.2,101.8,124.1,101.8,124z M94.8,126c-0.2-0.3-0.3-0.6-0.5-0.9c-0.1-0.2-0.3-0.2-0.4-0.2c-0.9,0.2-1.7,0.4-2.6,0.5
			c-0.2,0-0.3,0.2-0.2,0.4c0.3,0.5,0.6,0.9,0.8,1.4c0.2,0.3,0.3,0.5,0.6,0.4c0.2,0,0.3,0,0.4,0c0.1,0,0.1,0,0.1-0.1
			c0-0.3,0-0.6,0-0.9c0-0.2,0-0.3,0.2-0.3c0.2,0,0.4,0,0.6,0c0.1,0,0.1,0,0.2-0.1c0.1-0.2,0.2-0.2,0.4-0.2c0.1,0,0.2,0,0.3,0
			C94.8,126.1,94.8,126.1,94.8,126z M101.3,134.9c-0.2,0.3-0.6,0.3-0.9,0.3c-0.1,0-0.2,0-0.3,0.1c-0.3,0.2-0.4,0.4-0.3,0.7
			c0,0.1,0,0.2,0,0.3c0,0.1,0,0.2-0.1,0.2c-0.6,0.2-1.1,0.4-1.7,0.6c-0.1,0-0.1,0.1,0,0.1c0.1,0.2,0.3,0.5,0.4,0.7l0,0l0,0.1l0,0
			l0.4,0.8c0,0,0.1,0.3,0.3,0.2c0.2-0.1,1.5-0.3,1.5-0.3s0.2,0,0.3-0.4c0-0.4,0.1-0.5,0.1-0.6c0,0,0,0,0,0c0.1-0.3,0.1-0.6,0.2-0.9
			c0.1-0.7,0.2-1.4,0.4-2.1C101.4,134.8,101.4,134.8,101.3,134.9z M97.8,131.3l-0.2-0.3c-0.2-0.3-0.4-0.7-0.6-1
			c-0.6-1.1-1.3-2.2-1.9-3.3c-0.2-0.3-0.3-0.4-0.6-0.4c-0.1,0-0.2,0-0.3,0.1c-0.1,0.2-0.3,0.2-0.5,0.2c-0.2,0-0.3,0-0.5,0
			c-0.1,0-0.1,0-0.1,0.1c0,0.3,0,0.7,0,1c0,0.1,0,0.1-0.1,0.1c-0.2,0-0.5,0-0.7,0c-0.1,0-0.1,0-0.1,0.1c0.4,0.6,0.8,1.3,1.1,1.9
			c0.1,0.1,0.1,0.1,0.2,0.2c0.9,0.2,1.7,0.6,2.3,1.4c0.2,0.3,0.4,0.6,0.5,0.9c0,0.1,0.1,0.1,0.2,0c0.3-0.3,0.7-0.6,1-0.9
			C97.8,131.4,97.8,131.4,97.8,131.3z M103.1,123.2c-0.3,0.1-0.6,0.1-0.8,0.2c-0.3,0.1-0.3,0.1-0.3,0.4c0,0.2,0.1,0.5-0.2,0.7
			c-0.1,0,0,0.2,0,0.2c0,0.1,0.1,0.3,0,0.3c-0.2,0.2-0.2,0.3-0.2,0.6c0,0.3,0,0.6,0,0.8c0,0.2,0,0.4-0.3,0.6
			c-0.1,0.1-0.2,0.1-0.3,0.1c-0.2,0-0.4,0-0.6,0c-0.1,0-0.1,0-0.1,0.1c0,0,0,0.1,0,0.1c-0.1,0.5-0.1,0.9-0.2,1.4
			c-0.1,0.8-0.2,1.6-0.3,2.4c0,0,0,0.1,0,0.1c0,0,0,0,0,0c-0.1,0.7-0.2,1.5-0.3,2.2c0,0.1,0,0.2-0.1,0.2c-0.1,0-0.1-0.1-0.1-0.1
			c-0.3-0.6-0.7-1.2-1-1.8c-0.1-0.1-0.1-0.1-0.2,0c-0.4,0.3-0.7,0.6-1.1,0.9c-0.1,0-0.1,0.1-0.1,0.2c0.2,0.9,0.3,1.8,0.2,2.6
			c0,0.1,0,0.1,0.1,0.2c0.3,0.4,0.5,0.8,0.8,1.3c0,0.1,0.1,0.1,0.2,0.1c0.6-0.2,1.1-0.4,1.7-0.6c0.1,0,0.1-0.1,0.1-0.1
			c0-0.2,0-0.3,0-0.5c0-0.3,0.4-0.8,0.8-0.7c0.4,0,0.7-0.1,1-0.4c0,0,0.1-0.1,0.2-0.1c0.1,0,0.1-0.1,0.1-0.2
			c0.1-0.6,0.2-1.2,0.3-1.8c0-0.1,0-0.1-0.1-0.1c-0.2,0-0.4,0-0.6,0c-0.1,0-0.2,0-0.2-0.2c0-0.4,0-0.7,0-1.1c0-0.2,0-0.5,0-0.7
			c0-0.1,0-0.2,0.1-0.2c0.2-0.1,0.2-0.4,0.2-0.6c0-0.1,0-0.2,0.1-0.2c0.3,0,0.6,0,0.9,0c0.1,0,0.1,0,0.1-0.1c0-0.1,0-0.1,0-0.2
			c0,0,0-0.1,0-0.1c0-0.1,0-0.1,0-0.2c0-0.1,0-0.1,0-0.2c0,0,0-0.1,0-0.1c0,0,0,0,0-0.1c0.1-0.8,0.3-1.6,0.4-2.3
			c0.1-0.7,0.2-1.5,0.4-2.2c0,0,0-0.1,0-0.1c0,0,0,0,0-0.1c0,0,0-0.1,0-0.1c0,0,0-0.1,0-0.1C103.5,123.2,103.4,123.1,103.1,123.2z"
			/>
	</g>
</g>
</svg>
