<svg xmlns="http://www.w3.org/2000/svg" width="100.48589" height="200">
  <defs>
    <clipPath id="c">
      <path d="M0 335.016h168.322V0H0v335.016z"/>
    </clipPath>
    <clipPath id="d">
      <path d="M7.99342 160.329H162.206V6.11584H7.99342V160.329z"/>
    </clipPath>
    <linearGradient id="e" x2="1" gradientTransform="matrix(23.773759,-23.773759,23.773759,23.773759,38.877972,162.20416)" gradientUnits="userSpaceOnUse">
      <stop offset="0" stop-color="#a6a8ab"/>
      <stop offset="1" stop-color="#e6e7e8"/>
    </linearGradient>
    <clipPath id="f">
      <path d="M0 335.016h168.322V0H0v335.016z"/>
    </clipPath>
    <clipPath id="g">
      <path d="M62.5988 105.659h44.8722V60.786H62.5988v44.873z"/>
    </clipPath>
    <clipPath id="h">
      <path d="M58.434 83.504c0 14.847 12.035 26.882 26.882 26.882 14.847 0 26.883-12.035 26.883-26.882 0-14.847-12.036-26.883-26.883-26.883S58.434 68.657 58.434 83.504m54.583-.346c0 15.49-12.557 28.047-28.047 28.047S56.923 98.648 56.923 83.158 69.48 55.111 84.97 55.111s28.047 12.557 28.047 28.047"/>
    </clipPath>
    <linearGradient id="a" x2="1" gradientTransform="matrix(39.664417,-39.664417,-39.664417,-39.664417,65.138191,102.98982)" gradientUnits="userSpaceOnUse">
      <stop offset="0" stop-opacity="0" stop-color="#fff"/>
      <stop offset=".20751882" stop-color="#fff"/>
      <stop offset=".5" stop-color="#fff"/>
      <stop offset=".79248118" stop-color="#fff"/>
      <stop offset="1" stop-opacity="0" stop-color="#fff"/>
    </linearGradient>
    <mask id="j" width="1" height="1" x="0" y="0" maskUnits="userSpaceOnUse">
      <path fill="url(#a)" d="M-32768 32767h65535v-65535h-65535v65535z"/>
    </mask>
    <linearGradient id="i" x2="1" gradientTransform="matrix(39.664417,-39.664417,-39.664417,-39.664417,65.138191,102.98982)" gradientUnits="userSpaceOnUse">
      <stop offset="0" stop-color="#231f20"/>
      <stop offset=".20751882" stop-color="#231f20"/>
      <stop offset=".5" stop-color="#231f20"/>
      <stop offset=".79248118" stop-color="#231f20"/>
      <stop offset="1" stop-color="#231f20"/>
    </linearGradient>
    <clipPath id="k">
      <path d="M111.507 82.812c0-14.847-12.036-26.883-26.882-26.883-14.847 0-26.883 12.036-26.883 26.883s12.036 26.883 26.883 26.883c14.846 0 26.882-12.036 26.882-26.883m-54.583.346c0-15.49 12.556-28.047 28.047-28.047 15.49 0 28.047 12.557 28.047 28.047s-12.557 28.047-28.047 28.047c-15.491 0-28.047-12.557-28.047-28.047"/>
    </clipPath>
    <linearGradient id="b" x2="1" gradientTransform="matrix(-39.664425,39.664425,39.664425,39.664425,104.80286,63.325817)" gradientUnits="userSpaceOnUse">
      <stop offset="0" stop-opacity="0" stop-color="#fff"/>
      <stop offset=".5" stop-color="#fff"/>
      <stop offset="1" stop-opacity="0" stop-color="#fff"/>
    </linearGradient>
    <mask id="m" width="1" height="1" x="0" y="0" maskUnits="userSpaceOnUse">
      <path fill="url(#b)" d="M-32768 32767h65535v-65535h-65535v65535z"/>
    </mask>
    <linearGradient id="l" x2="1" gradientTransform="matrix(-39.664425,39.664425,39.664425,39.664425,104.80286,63.325817)" gradientUnits="userSpaceOnUse">
      <stop offset="0" stop-color="#fff"/>
      <stop offset=".5" stop-color="#fff"/>
      <stop offset="1" stop-color="#fff"/>
    </linearGradient>
    <clipPath id="n">
      <path d="M58.5181 328.248H111.58v-53.062H58.5181v53.062z"/>
    </clipPath>
    <clipPath id="o">
      <path d="M59.2057 327.408h51.5333v-51.534H59.2057v51.534z"/>
    </clipPath>
    <clipPath id="p">
      <path d="M51.8069 334.806h66.3311v-66.331H51.8069v66.331z"/>
    </clipPath>
    <clipPath id="q">
      <path d="M57.9564 252.304h53.0616v-53.062H57.9564v53.062z"/>
    </clipPath>
    <clipPath id="r">
      <path d="M58.644 251.463h51.534V199.93H58.644v51.533z"/>
    </clipPath>
    <clipPath id="s">
      <path d="M51.2453 258.862h66.3317v-66.331H51.2453v66.331z"/>
    </clipPath>
  </defs>
  <g clip-path="url(#c)" transform="matrix(0.59698784,0,0,-0.59698784,0,200)">
    <path fill="#231f20" d="M85.0995 0c-45.962 0-83.222 37.26-83.222 83.222 0 45.963 37.26 83.222 83.222 83.222 45.962 0 83.222-37.259 83.222-83.222 0-45.962-37.26-83.222-83.222-83.222"/>
    <g clip-path="url(#d)" opacity=".10000598">
      <path fill="#84849b" d="M85.0992 6.1158l16.896 16.323h-8.253v18.674h-17.286v-18.674h-8.252l16.895-16.323zm54.5228 22.5835l.405 23.489-5.835-5.835-13.205 13.204-12.223-12.223 13.205-13.204-5.836-5.836 23.489.405zm22.5841 54.5222l-16.323 16.896v-8.252h-18.674v-17.287h18.674v-8.252l16.323 16.895zm-22.5834 54.5226l-23.489.405 5.835-5.835-13.205-13.205 12.224-12.223 13.204 13.205 5.836-5.835-.405 23.488zm-54.5222 22.5844l-16.896-16.322h8.252v-18.675h17.287v18.674l8.252.001-16.895 16.322zm-54.5226-22.5832l-.405-23.489 5.835 5.835 13.205-13.205 12.223 12.223-13.205 13.205 5.835 5.836-23.488-.405zM7.9934 83.223l16.322-16.895v8.251h18.675v17.286h-18.674l-.001 8.253-16.322-16.895zm22.5833-54.5226l23.489-.405-5.835 5.835 13.205 13.205-12.223 12.223-13.205-13.205-5.836 5.835.405-23.488z"/>
    </g>
    <path fill="#6d6e70" d="M84.1609.0119c-45.529.504-82.284 37.562-82.284 83.21 0 45.649 36.755 82.707 82.284 83.211-.313.003-.625.012-.939.012-45.962 0-83.222-37.26-83.222-83.223 0-45.962 37.26-83.222 83.222-83.222.314 0 .626.009.939.012"/>
  </g>
  <path fill="url(#e)" d="M33.95428 150.31748c0 9.28376 7.526823 16.81058 16.810581 16.81058 9.284355 0 16.81058-7.52682 16.81058-16.81058 0-9.28436-7.526225-16.81058-16.81058-16.81058-9.283758 0-16.810581 7.52622-16.810581 16.81058"/>
  <g clip-path="url(#f)" transform="matrix(0.59698784,0,0,-0.59698784,0,200)">
    <g clip-path="url(#g)" opacity=".30000299">
      <path fill="#231f20" d="M85.035 60.786c-12.391 0-22.436 10.045-22.436 22.436s10.045 22.437 22.436 22.437 22.436-10.046 22.436-22.437c0-12.391-10.045-22.436-22.436-22.436"/>
    </g>
    <g clip-path="url(#h)" opacity=".14999402">
      <path fill="url(#i)" d="M58.434 83.504c0 14.847 12.035 26.882 26.882 26.882 14.847 0 26.883-12.035 26.883-26.882 0-14.847-12.036-26.883-26.883-26.883S58.434 68.657 58.434 83.504m54.583-.346c0 15.49-12.557 28.047-28.047 28.047S56.923 98.648 56.923 83.158 69.48 55.111 84.97 55.111s28.047 12.557 28.047 28.047" mask="url(#j)"/>
    </g>
    <g clip-path="url(#k)" opacity=".39999402">
      <path fill="url(#l)" d="M111.507 82.812c0-14.847-12.036-26.883-26.882-26.883-14.847 0-26.883 12.036-26.883 26.883s12.036 26.883 26.883 26.883c14.846 0 26.882-12.036 26.882-26.883m-54.583.346c0-15.49 12.556-28.047 28.047-28.047 15.49 0 28.047 12.557 28.047 28.047s-12.557 28.047-28.047 28.047c-15.491 0-28.047-12.557-28.047-28.047" mask="url(#m)"/>
    </g>
    <path fill="#00adee" d="M85.049 268.4192c-18.39 0-33.298 14.908-33.298 33.298s14.908 33.298 33.298 33.298 33.298-14.908 33.298-33.298-14.908-33.298-33.298-33.298"/>
    <g clip-path="url(#n)" opacity=".30000299">
      <path fill="#00adee" d="M85.049 275.1864c-14.653 0-26.531 11.878-26.531 26.531 0 14.652 11.878 26.531 26.531 26.531 14.653 0 26.531-11.879 26.531-26.531 0-14.653-11.878-26.531-26.531-26.531"/>
    </g>
    <path fill="#00adee" d="M84.9726 275.8739c-14.231 0-25.767 11.536-25.767 25.767s11.536 25.767 25.767 25.767 25.767-11.536 25.767-25.767-11.536-25.767-25.767-25.767"/>
    <path fill="#00adee" d="M84.9726 275.8739c-14.231 0-25.767 11.536-25.767 25.767s11.536 25.767 25.767 25.767 25.767-11.536 25.767-25.767-11.536-25.767-25.767-25.767"/>
    <g clip-path="url(#o)" opacity=".19999701">
      <path fill="#00adee" d="M60.593 301.9589c0 13.64 11.057 24.697 24.697 24.697 13.64 0 24.698-11.057 24.698-24.697 0-13.64-11.058-24.698-24.698-24.698s-24.697 11.058-24.697 24.698m50.146-.318c0 14.231-11.536 25.767-25.766 25.767-14.231 0-25.767-11.536-25.767-25.767s11.536-25.767 25.767-25.767c14.23 0 25.766 11.536 25.766 25.767"/>
    </g>
    <g clip-path="url(#p)" opacity=".14999402">
      <path fill="#00adee" d="M53.5926 302.0498c0 17.557 14.233 31.789 31.789 31.789 17.557 0 31.789-14.232 31.789-31.789 0-17.556-14.232-31.789-31.789-31.789-17.556 0-31.789 14.233-31.789 31.789m64.546-.409c0 18.317-14.849 33.166-33.166 33.166-18.317 0-33.166-14.849-33.166-33.166 0-18.317 14.849-33.165 33.166-33.165 18.317 0 33.166 14.848 33.166 33.165"/>
    </g>
    <path fill="#00adee" d="M84.4874 192.475c-18.39 0-33.298 14.908-33.298 33.298s14.908 33.298 33.298 33.298 33.298-14.908 33.298-33.298-14.908-33.298-33.298-33.298"/>
    <g clip-path="url(#q)" opacity=".30000299">
      <path fill="#00adee" d="M84.4874 199.2422c-14.653 0-26.531 11.878-26.531 26.531 0 14.652 11.878 26.531 26.531 26.531 14.653 0 26.531-11.879 26.531-26.531 0-14.653-11.878-26.531-26.531-26.531"/>
    </g>
    <path fill="#00adee" d="M84.411 199.9297c-14.231 0-25.767 11.536-25.767 25.767s11.536 25.767 25.767 25.767 25.767-11.536 25.767-25.767-11.536-25.767-25.767-25.767"/>
    <path fill="#00adee" d="M84.411 199.9297c-14.231 0-25.767 11.536-25.767 25.767s11.536 25.767 25.767 25.767 25.767-11.536 25.767-25.767-11.536-25.767-25.767-25.767"/>
    <g clip-path="url(#r)" opacity=".19999701">
      <path fill="#00adee" d="M60.0314 226.0147c0 13.64 11.057 24.697 24.697 24.697 13.64 0 24.698-11.057 24.698-24.697 0-13.64-11.058-24.698-24.698-24.698s-24.697 11.058-24.697 24.698m50.146-.318c0 14.231-11.536 25.767-25.766 25.767-14.231 0-25.767-11.536-25.767-25.767s11.536-25.767 25.767-25.767c14.23 0 25.766 11.536 25.766 25.767"/>
    </g>
    <g clip-path="url(#s)" opacity=".14999402">
      <path fill="#00adee" d="M53.031 226.1056c0 17.557 14.233 31.789 31.789 31.789 17.557 0 31.789-14.232 31.789-31.789 0-17.556-14.232-31.789-31.789-31.789-17.556 0-31.789 14.233-31.789 31.789m64.546-.409c0 18.317-14.849 33.165-33.166 33.165-18.317 0-33.166-14.848-33.166-33.165s14.849-33.165 33.166-33.165c18.317 0 33.166 14.848 33.166 33.165"/>
    </g>
    <path fill="#00adee" d="M144.7076 82.8081c0-21.185-17.173-38.358-38.358-38.358s-38.358 17.173-38.358 38.358 17.173 38.358 38.358 38.358 38.358-17.173 38.358-38.358"/>
  </g>
</svg>
