<svg baseProfile="tiny" xmlns="http://www.w3.org/2000/svg" viewBox="0 0 153.5 157.6"><path fill="#3B62A6" d="M139.1 147v-6.4h9v6.4h-9M141.7.1h-3.2v.5h-12.8l-.7.5-1 .7H20V.1H1.8C.8.1 0 .9 0 1.9v153.9c0 1 .8 1.8 1.8 1.8h150c1 0 1.8-.8 1.8-1.8V18.4h-1.5v-5.9h1.5V10L141.7.1"/><path fill="#FFF" d="M18.4 68.6h116.7v89H18.4z"/><path fill="#838483" d="M39.1 0v50.9c0 1.5 1.2 2.7 2.7 2.7h77.8c1.5 0 2.7-1.2 2.7-2.7V0H39.1zm48.1 7.7h22.7V50H87.2V7.7z"/><path fill="#2C2D2C" d="M109.4 95.4L76.8 83.7 44.1 95.4v13.1l7.2-2v13.1l-7.2-2v13.7l32.7 12.4 32.7-12.4v-13.7l-6.5 2v-13.1l6.5 2V95.4zm-34.6 45.1l-28.7-11.1v-9.8l28.7 11.8v9.1zm14.4-15.7L76.8 130l-12.4-5.2v-23.5l12.4-4.6 12.4 4.6v23.5zm17.6-18.9L77.4 95.4v-9.8l29.4 10.5v9.8z"/></svg>