<svg xmlns="http://www.w3.org/2000/svg" viewBox="0 0 169.611 387.985"><path d="M0 193.992c0 34.746 4.617 72.765 9.373 102.105 3.828 23.618 7.704 41.346 9.666 49.258 3.324 13.403 7.295 24.796 8.095 26.235 2.114 3.8 5.734 7.211 8.845 10.194 7.499 7.192 18.889 6.146 18.889 6.146s13.492-1.499 34.78-4.797c21.288-3.298 52.883-15.591 52.883-15.591s7.082-1.799 13.079-8.095c2.145-2.253 8.178-8.899 8.178-16.341v-28.933-35.83c0-5.697-6.074-9.002-7.878-10.044-2.017-1.165-6.439-2.906-10.56-2.249-7.543 1.203-15.884 6.182-19.393 7.346-4.155 1.378-11.633 3.458-14.909 4.358a1.517 1.517 0 0 1-1.9-1.208c-1.376-8.054-7.207-44.429-7.207-82.554s5.831-74.5 7.207-82.554a1.517 1.517 0 0 1 1.9-1.208c3.276.899 10.754 2.98 14.909 4.357 3.509 1.163 11.85 6.143 19.393 7.346 4.121.657 8.543-1.083 10.56-2.249 1.804-1.042 7.878-4.348 7.878-10.044V73.81 44.877c0-7.441-6.032-14.088-8.178-16.341-5.997-6.296-13.079-8.095-13.079-8.095S110.937 8.148 89.649 4.85 54.869.053 54.869.053 43.479-.993 35.979 6.2c-3.111 2.983-6.731 6.394-8.845 10.194-.8 1.439-4.772 12.832-8.095 26.235-1.962 7.912-5.837 25.64-9.666 49.258C4.617 121.228 0 159.246 0 193.992z" fill="#323333"/><linearGradient id="a" gradientUnits="userSpaceOnUse" x1="-103.2" y1="191.201" x2="272.812" y2="191.201" gradientTransform="rotate(90 84.806 193.992)"><stop offset="0" stop-color="#545454"/><stop offset="1" stop-color="#3b3b3b"/></linearGradient><path d="M148.568 358.359c8.342-5.46 10.895-16.851 10.999-17.333l.05-.23 1.388-24.492.198-30.168.001-.11-.008-.11c-.02-.295-.548-7.28-5.858-10.786-4.186-2.763-8.68-2.485-10.676-1.884l-.152.05c-.096.035-9.705 3.493-20.202 7.13-3.958 1.371-7.93 2.402-11.772 3.398-1.877.487-3.683.955-5.427 1.447-1.413-5.693-3.692-23.201-5.503-46.396-1.703-21.818-2.445-43.256-2.5-44.882.055-1.627.797-23.065 2.5-44.882 1.811-23.195 4.09-40.703 5.503-46.396 1.746.492 3.553.961 5.431 1.448 3.841.996 7.813 2.026 11.769 3.396a1948.435 1948.435 0 0 1 20.2 7.13l.152.05c1.996.6 6.49.879 10.676-1.884 5.31-3.505 5.838-10.491 5.858-10.786l.008-.11-.193-30.129-1.38-24.406-.013-.235-.05-.23c-.104-.482-2.657-11.873-10.999-17.333-8.088-5.294-65.2-23.639-96.154-23.639-6.655 0-11.568 3.452-13.481 9.469-7.555 23.771-13.514 58.318-15.16 68.34-.16.973-.322 1.971-.487 2.987l-.686 4.289c-3.696 23.394-8.61 59.515-8.61 102.92s4.914 79.527 8.611 102.926l.686 4.288c.164 1.011.326 2.009.486 2.981 1.646 10.023 7.605 44.57 15.16 68.34 1.912 6.019 6.826 9.47 13.481 9.47 30.953.001 88.065-18.344 96.154-23.638z" fill="url(#a)"/><path d="M147.247 354.051c7.526-4.797 9.864-15.291 9.864-15.291l1.396-23.986.196-29.683s-.393-5.697-4.59-8.395-8.292-1.499-8.292-1.499-9.749 3.419-20.548 7.062c-7.033 2.372-14.072 3.732-20.032 5.531-1.929.582-5.106-24.998-7.045-49.184-1.817-22.663-2.549-44.613-2.549-44.613s.732-21.95 2.549-44.613c1.939-24.186 5.116-49.766 7.045-49.184 5.96 1.799 12.999 3.158 20.032 5.531 10.799 3.643 20.548 7.062 20.548 7.062s4.095 1.199 8.292-1.499c4.198-2.698 4.59-8.395 4.59-8.395l-.196-29.683-1.396-23.986s-2.337-10.494-9.864-15.291-64.486-22.894-95.976-22.894c-3.093 0-8.698.878-10.794 7.302-6.535 20.024-12.264 49.214-15.291 67.162-.162.96-.327 1.945-.492 2.942l-.696 4.235c-4.007 24.7-8.706 59.604-8.706 101.311 0 41.707 4.699 76.612 8.706 101.311l.696 4.235.492 2.942c3.027 17.947 8.757 47.138 15.291 67.162 2.096 6.423 7.701 7.302 10.794 7.302 31.49-.001 88.449-18.097 95.976-22.894zM103.077 283.699l1.327 3.982M49.114 294.666c3.306-.245 6.781-.565 10.333-.98M59.447 94.299a245.879 245.879 0 0 0-10.333-.98" fill="#444544"/><circle cx="101.742" cy="56.721" r="28.784" fill="#1b1c1c"/><circle cx="102.536" cy="56.126" r="26.311" fill="#636363"/><circle cx="101.337" cy="56.726" r="26.311" fill="#3a3b3a"/><path d="M163.789 44.877h2.916c.839.029 1.326.438 1.349 1.349l.648 58.617c-.07.963-.508 1.533-1.373 1.649h-3.541V44.877zM163.789 343.107h2.916c.839-.029 1.326-.438 1.349-1.349l.648-58.616c-.07-.963-.508-1.533-1.373-1.649h-3.541v61.614z" fill="#232423"/><linearGradient id="b" gradientUnits="userSpaceOnUse" x1="220.719" y1="175.079" x2="211.724" y2="151.093" gradientTransform="rotate(90 84.806 193.992)"><stop offset="0" stop-color="#383838"/><stop offset="1" stop-color="#242424"/></linearGradient><path d="M121.6 355.338c6.755 0 12.231-5.476 12.231-12.231a12.19 12.19 0 0 0-.957-4.749l-9.303-31.218c0-6.755-5.476-12.231-12.23-12.231s-12.23 5.476-12.23 12.231c0 1.843.419 3.584 1.149 5.151l-.008.008 9.244 32.549.012-.003c.846 5.929 5.929 10.493 12.092 10.493z" fill="url(#b)"/><circle cx="111.341" cy="307.14" r="11.304" fill="#18c49b"/><circle cx="111.341" cy="307.14" r="10.174" fill="#47deba"/><circle cx="121.6" cy="343.107" r="11.007" fill="#e6a604"/><circle cx="121.6" cy="343.107" r="9.907" fill="#ffdf46"/><linearGradient id="c" gradientUnits="userSpaceOnUse" x1="227.092" y1="206.174" x2="222.295" y2="186.386" gradientTransform="rotate(90 84.806 193.992)"><stop offset="0" stop-color="#383838"/><stop offset="1" stop-color="#242424"/></linearGradient><path d="M86.107 366.131c6.755 0 12.23-5.476 12.23-12.231 0-2.039-.506-3.957-1.388-5.647l.004-.002-6.844-25.503c.556-1.58.861-3.278.861-5.048 0-8.404-6.813-15.216-15.216-15.216s-15.216 6.813-15.216 15.216c0 4.807 2.231 9.09 5.711 11.879l7.776 26.137c.173 1.16.505 2.265.98 3.294l.02.067.01-.005c1.951 4.167 6.169 7.059 11.072 7.059z" fill="url(#c)"/><circle cx="86.107" cy="353.901" r="11.007" fill="#005e9c"/><circle cx="86.107" cy="353.901" r="9.907" fill="#4a9be4"/><circle cx="75.755" cy="317.701" r="14.109" fill="#da2b27"/><circle cx="75.755" cy="317.701" r="12.698" fill="#ff5853"/><path d="M100.776 189.795c.003.024.014.044.014.069-.659 0-.659 8.283 0 8.283 0 .017-.009.028-.01.044h32.41l.516-.032c.65-.078 16.084-1.742 30.094 11.695l5.812-6.059c-16.053-15.397-34-14.264-36.649-14h-32.187z" fill="#1c1c1c"/><path d="M101.061 189.207h.829c.386 0 .699.27.699.656-.659 0-.659 8.283 0 8.283 0 .386-.313.525-.699.525h-.829c-1.287 0-1.287-9.464 0-9.464z" fill="#393b39"/><path d="M131.674 65.861a.604.604 0 0 1-.589-.735l.76-3.437a.602.602 0 0 1 .998-.315l2.597 2.376c.161.147.229.362.182.576s-.2.38-.408.446l-3.356 1.06a.62.62 0 0 1-.184.029z" fill="#4f4f4f"/><path d="M132.436 61.455c.086 0 .173.03.245.096l2.596 2.377a.364.364 0 0 1-.136.616l-3.356 1.06a.364.364 0 0 1-.465-.426l.76-3.437a.362.362 0 0 1 .356-.286m0-.48a.84.84 0 0 0-.826.662l-.76 3.437a.84.84 0 0 0 .165.71.841.841 0 0 0 .912.277l3.356-1.06a.836.836 0 0 0 .57-.623.835.835 0 0 0-.254-.805l-2.596-2.377a.835.835 0 0 0-.567-.221z" fill="#333"/><path d="M149.637 76.086c-.29 0-.55-.15-.695-.401a.797.797 0 0 1-.001-.805l2.727-4.722c.146-.251.405-.402.696-.402s.551.151.696.403l2.727 4.721a.793.793 0 0 1 0 .804.794.794 0 0 1-.696.402h-5.454z" fill="#4a4a4a"/><path d="M152.363 69.996c.19 0 .38.094.489.282L155.578 75a.564.564 0 0 1-.489.846h-5.453a.564.564 0 0 1-.489-.846l2.726-4.722c.11-.188.3-.282.49-.282m0-.48c-.377 0-.715.195-.904.522l-2.726 4.722a1.032 1.032 0 0 0 0 1.044c.189.327.527.522.904.522h5.453c.377 0 .715-.195.904-.522a1.032 1.032 0 0 0 0-1.044l-2.726-4.722a1.034 1.034 0 0 0-.905-.522z" fill="#333"/><path d="M35.853 254.514a.803.803 0 0 1-.666-.354l-3.054-4.517a.796.796 0 0 1-.057-.802.795.795 0 0 1 .666-.45l5.446-.386c.333 0 .585.141.731.376a.8.8 0 0 1 .041.777l-2.385 4.903a.793.793 0 0 1-.722.453z" fill="#4a4a4a"/><path d="M38.241 248.243c.411 0 .689.433.505.811l-2.385 4.903a.56.56 0 0 1-.508.317.558.558 0 0 1-.467-.248l-3.054-4.517a.564.564 0 0 1 .428-.879l5.439-.386.042-.001m0-.48h-.017l-.059.003-5.439.386c-.376.027-.7.245-.865.585-.165.339-.137.729.074 1.041l3.054 4.517c.194.288.517.459.864.459.403 0 .763-.225.94-.587l2.385-4.903a1.041 1.041 0 0 0-.053-1.01 1.037 1.037 0 0 0-.884-.491z" fill="#333"/><path d="M71.048 51.564a.605.605 0 0 1-.407-.159l-2.596-2.376a.598.598 0 0 1-.182-.576.597.597 0 0 1 .407-.445l3.356-1.06a.604.604 0 0 1 .773.706l-.761 3.437a.6.6 0 0 1-.59.473z" fill="#4a4a4a"/><path d="M71.81 47.158c.223 0 .406.208.354.443l-.76 3.437a.364.364 0 0 1-.602.19l-2.596-2.377a.364.364 0 0 1 .136-.616l3.356-1.06a.377.377 0 0 1 .112-.017m0-.48a.823.823 0 0 0-.255.04l-3.356 1.06a.836.836 0 0 0-.57.623.835.835 0 0 0 .254.805l2.596 2.377a.84.84 0 0 0 1.394-.44l.76-3.437a.84.84 0 0 0-.165-.71.84.84 0 0 0-.658-.318z" fill="#333"/><path d="M93.638 90.059a.602.602 0 0 1-.577-.422l-1.06-3.356a.604.604 0 0 1 .574-.786l.132.014 3.437.76c.214.047.38.2.446.409a.597.597 0 0 1-.131.589l-2.377 2.596a.595.595 0 0 1-.444.196z" fill="#4a4a4a"/><path d="M92.576 85.734c.026 0 .053.003.081.009l3.437.76a.365.365 0 0 1 .19.602l-2.377 2.596a.364.364 0 0 1-.616-.137l-1.06-3.356a.363.363 0 0 1 .345-.474m0-.48a.843.843 0 0 0-.803 1.098l1.06 3.356a.844.844 0 1 0 1.427.316l2.377-2.596a.835.835 0 0 0 .182-.824.837.837 0 0 0-.622-.57l-3.437-.76a.886.886 0 0 0-.184-.02z" fill="#333"/><path d="M110.197 27.344l-3.437-.76a.597.597 0 0 1-.445-.408.6.6 0 0 1 .131-.59l2.376-2.596a.597.597 0 0 1 .444-.196.6.6 0 0 1 .577.422l1.061 3.356a.603.603 0 0 1-.574.786l-.133-.014z" fill="#4a4a4a"/><path d="M109.266 23.033c.15 0 .297.092.349.255l1.06 3.356a.364.364 0 0 1-.427.465l-3.437-.76a.365.365 0 0 1-.19-.602l2.377-2.596a.365.365 0 0 1 .268-.118m.001-.479c-.235 0-.462.1-.621.274l-2.377 2.596a.835.835 0 0 0-.182.824.836.836 0 0 0 .623.57l3.437.76a.843.843 0 0 0 .987-1.078l-1.06-3.356a.845.845 0 0 0-.807-.59z" fill="#333"/><path d="M149.637 82.421c-.29 0-.55-.15-.695-.402a.795.795 0 0 1-.001-.804l2.727-4.723c.146-.251.405-.402.696-.402s.551.15.696.402l2.727 4.722a.793.793 0 0 1 0 .804.794.794 0 0 1-.696.402h-5.454z" fill="#4a4a4a"/><path d="M152.363 76.33c.19 0 .38.094.489.282l2.726 4.722a.564.564 0 0 1-.489.846h-5.453a.564.564 0 0 1-.489-.846l2.726-4.722c.11-.188.3-.282.49-.282m0-.479c-.377 0-.715.195-.904.522l-2.726 4.722a1.032 1.032 0 0 0 0 1.044c.189.327.527.522.904.522h5.453c.377 0 .715-.195.904-.522a1.032 1.032 0 0 0 0-1.044l-2.726-4.722a1.034 1.034 0 0 0-.905-.522z" fill="#333"/><path d="M152.963 323.026a.795.795 0 0 1-.696-.401l-2.727-4.722a.799.799 0 0 1 .001-.806.796.796 0 0 1 .695-.401h5.453c.291 0 .551.15.696.402s.146.553 0 .805l-2.726 4.722a.796.796 0 0 1-.696.401z" fill="#4a4a4a"/><path d="M155.689 316.936c.434 0 .706.47.489.846l-2.726 4.722c-.109.188-.299.282-.489.282s-.38-.094-.489-.282l-2.726-4.722a.564.564 0 0 1 .489-.846h5.452m0-.48h-5.453c-.377 0-.715.195-.904.522a1.032 1.032 0 0 0 0 1.044l2.726 4.722c.189.327.527.522.904.522s.715-.195.904-.522l2.726-4.722a1.032 1.032 0 0 0 0-1.044 1.029 1.029 0 0 0-.903-.522z" fill="#333"/><path d="M152.963 316.691a.795.795 0 0 1-.696-.401l-2.727-4.722c-.145-.252-.145-.553.001-.805s.405-.402.695-.402h5.453c.291 0 .552.15.696.403a.793.793 0 0 1 0 .804l-2.726 4.722a.796.796 0 0 1-.696.401z" fill="#4a4a4a"/><path d="M155.689 310.601c.434 0 .706.47.489.846l-2.726 4.722c-.109.188-.299.282-.489.282s-.38-.094-.489-.282l-2.726-4.722a.564.564 0 0 1 .489-.846h5.452m0-.48h-5.453c-.377 0-.715.195-.904.522a1.032 1.032 0 0 0 0 1.044l2.726 4.722c.189.327.527.522.904.522s.715-.195.904-.522l2.726-4.722a1.032 1.032 0 0 0 0-1.044 1.029 1.029 0 0 0-.903-.522z" fill="#333"/><path d="M31.814 240.26a.98.98 0 0 1-.982-.949l-.027-.761a.974.974 0 0 1 .264-.705.98.98 0 0 1 .685-.313l5.872-.207c.566 0 .997.417 1.016.948l.026.761a.98.98 0 0 1-.949 1.018l-5.905.208z" fill="#4a4a4a"/><path d="M37.658 237.565c.399 0 .729.316.743.718l.027.761a.745.745 0 0 1-.717.77l-5.87.207h-.027a.744.744 0 0 1-.743-.718l-.027-.76a.745.745 0 0 1 .717-.77l5.87-.207.027-.001m0-.479h-.008l-.035.001-5.87.207c-.327.011-.629.149-.852.389s-.339.551-.328.877l.027.76c.023.662.56 1.181 1.222 1.181l5.913-.207a1.226 1.226 0 0 0 1.18-1.266l-.027-.76a1.218 1.218 0 0 0-1.222-1.182z" fill="#333"/><g><path d="M31.951 244.155a.98.98 0 0 1-.983-.949l-.027-.761a.986.986 0 0 1 .948-1.018l5.872-.207c.566 0 .997.417 1.016.948l.027.761a.985.985 0 0 1-.948 1.018l-5.905.208z" fill="#4a4a4a"/><path d="M37.795 241.461c.399 0 .729.316.743.718l.027.761a.745.745 0 0 1-.717.77l-5.87.207h-.027a.744.744 0 0 1-.743-.718l-.027-.761a.745.745 0 0 1 .717-.77l5.87-.207h.027m0-.48h-.008l-.035.001-5.87.207c-.327.011-.629.149-.852.389s-.339.551-.328.877l.027.76c.023.662.56 1.181 1.222 1.181l5.913-.207c.327-.011.629-.149.852-.389s.339-.551.328-.877l-.027-.76a1.219 1.219 0 0 0-1.222-1.182z" fill="#333"/></g><g><path d="M53.974 326.723a.606.606 0 0 1-.587-.472l-1.099-5.045a.602.602 0 0 1 .46-.715l1.045-.228.103-.008c.28 0 .526.198.586.473l1.099 5.044a.599.599 0 0 1-.459.715l-1.045.228-.103.008z" fill="#4a4a4a"/><path d="M53.896 320.495a.36.36 0 0 1 .352.284l1.099 5.044a.362.362 0 0 1-.276.43l-1.019.222a.36.36 0 0 1-.429-.276l-1.099-5.044a.362.362 0 0 1 .276-.43l1.019-.222a.403.403 0 0 1 .077-.008m0-.479a.9.9 0 0 0-.179.019l-1.019.222a.84.84 0 0 0-.643 1l1.099 5.044a.845.845 0 0 0 1 .643l1.019-.222a.84.84 0 0 0 .643-1l-1.099-5.044a.845.845 0 0 0-.821-.662z" fill="#333"/></g><g><path d="M57.114 324.311l-.119-.036-1.59-.698a.547.547 0 0 1-.318-.39.549.549 0 0 1 .127-.485l1.156-1.296a.42.42 0 0 1 .724.189l.047.216 2.411-.486h.021c.225 0 .357.11.394.268l.26 1.194-.069.168a.346.346 0 0 1-.224.153l-2.405.483.046.21a.42.42 0 0 1-.409.51h-.052z" fill="#4a4a4a"/><path d="M56.683 321.504a.18.18 0 0 1 .177.142l.073.336a.112.112 0 0 0 .133.085l2.532-.509a.111.111 0 0 1 .133.085l.239 1.095a.112.112 0 0 1-.086.133l-2.532.509a.113.113 0 0 0-.086.133l.073.336a.18.18 0 0 1-.249.203l-1.59-.699a.313.313 0 0 1-.108-.495l1.155-1.297a.195.195 0 0 1 .136-.057m0-.48a.662.662 0 0 0-.492.221l-1.155 1.297a.792.792 0 0 0 .273 1.254l1.59.699a.661.661 0 0 0 .916-.716l2.165-.435a.594.594 0 0 0 .46-.706l-.238-1.095a.595.595 0 0 0-.578-.466h-.052l-.074.014-2.172.436a.66.66 0 0 0-.643-.503z" fill="#333"/></g><g><path d="M127.083 301.087c-.327 0-.564-.141-.747-.442-.151-.251-.291-.728-.516-1.756-.185-.85-.189-1.217-.021-1.512.165-.274.414-.374.876-.481l.028-.001c.245 0 .391.122.425.288l.21.964-.21.065c-.188.046-.217.061-.224.064.041.012.108.38.173.674.034.162.139.58.163.653.009.006.016.01.021.01.024 0 .008-.09-.075-.5l-.093-.435a.375.375 0 0 1 .288-.446l.388-.085h.025c.241 0 .384.118.422.285l.124.574c.058.263.091.333.106.352-.001-.056-.079-.412-.13-.648-.074-.339-.134-.615-.177-.715-.008.014-.041.021-.071.027l-.235.052-.12-.221-.164-.755a.38.38 0 0 1 .285-.447c.223-.048.355-.064.471-.064.743 0 .935.714 1.209 1.978.193.89.24 1.259.118 1.557-.152.37-.477.488-.805.56a1.598 1.598 0 0 1-.327.041.708.708 0 0 1-.348-.082c-.137.259-.408.339-.699.401-.141.03-.263.045-.37.045z" fill="#4a4a4a"/><path d="M128.306 296.827c.5 0 .672.4.974 1.789.192.883.221 1.193.13 1.415-.091.221-.267.336-.633.416a1.35 1.35 0 0 1-.277.036.429.429 0 0 1-.308-.107.123.123 0 0 0-.085-.033.14.14 0 0 0-.133.102c-.061.208-.215.286-.571.363a1.506 1.506 0 0 1-.32.041c-.25 0-.406-.102-.542-.327-.135-.225-.272-.698-.486-1.682-.169-.778-.179-1.111-.047-1.342.107-.177.254-.258.723-.367a.136.136 0 0 1 .164.103l.163.75-.054.017c-.247.054-.3.099-.304.234a11.399 11.399 0 0 0 .315 1.451c.051.148.107.208.214.208.028 0 .06-.004.097-.012.137-.03.197-.086.204-.188.001-.082-.004-.105-.115-.66l-.088-.403a.137.137 0 0 1 .104-.162l.389-.085a.136.136 0 0 1 .162.104l.124.572c.085.391.148.517.295.517a.454.454 0 0 0 .084-.01c.233-.051.238-.119.067-.906-.161-.739-.195-.899-.362-.899a.858.858 0 0 0-.173.028l-.069.015-.164-.755a.137.137 0 0 1 .104-.162l.05-.011c.141-.032.262-.05.368-.05m0-.48c-.134 0-.283.019-.47.06l-.05.011a.617.617 0 0 0-.483.552.62.62 0 0 0-.542-.324h-.055l-.084.016c-.518.121-.819.245-1.025.587-.233.405-.185.886-.01 1.691.233 1.069.375 1.547.544 1.828.228.377.54.56.953.56.125 0 .263-.017.423-.052.209-.045.519-.113.734-.346.082.021.168.032.26.032.112 0 .233-.015.379-.047.351-.076.779-.225.975-.702.147-.357.1-.756-.105-1.699-.264-1.211-.472-2.167-1.444-2.167z" fill="#333"/></g><g><path d="M129.682 303.225a.377.377 0 0 1-.368-.298l-.145-.662a.379.379 0 0 1 .286-.447l1.807-.393-.679-.541a.377.377 0 0 1-.07-.524l.324-.428a.375.375 0 0 1 .301-.149h.08l.146.076 1.119.848.071.161.281 1.295a.372.372 0 0 1-.051.283.367.367 0 0 1-.237.164l-2.786.606-.079.009z" fill="#4a4a4a"/><path d="M131.138 300.023c.029 0 .057.009.082.028l1.051.796c.026.02.044.048.051.079l.28 1.287a.137.137 0 0 1-.104.162l-2.788.606a.136.136 0 0 1-.162-.104l-.144-.664a.137.137 0 0 1 .104-.162l1.991-.433a.136.136 0 0 0 .104-.162l-.013-.061a.137.137 0 0 0-.05-.079l-.81-.624a.136.136 0 0 1-.025-.19l.325-.428a.138.138 0 0 1 .108-.051m0-.48a.619.619 0 0 0-.491.244l-.324.427a.617.617 0 0 0 .115.86l.289.223-1.32.287a.61.61 0 0 0-.387.269.611.611 0 0 0-.084.464l.144.664a.619.619 0 0 0 .601.485h.051l.079-.014 2.788-.606a.61.61 0 0 0 .387-.269.61.61 0 0 0 .084-.463l-.28-1.287a.617.617 0 0 0-.229-.36l-1.052-.797a.604.604 0 0 0-.371-.127z" fill="#333"/></g><g><path d="M128.589 308.817a.375.375 0 0 1-.367-.294l-.735-3.386a.374.374 0 0 1 .266-.44c.069-.02.125-.032.218-.053.462-.101.702-.138.875-.138l.122.007a.804.804 0 0 1 .429.17.366.366 0 0 1 .052-.28.365.365 0 0 1 .237-.165c.237-.052.4-.074.543-.074.738 0 .913.64 1.158 1.771.28 1.286.313 1.491.196 1.793-.134.358-.443.49-.934.597a2.351 2.351 0 0 1-.503.067.945.945 0 0 1-.349-.062c-.215-.085-.381-.266-.516-.567l.109.504a.375.375 0 0 1-.288.446l-.434.095-.079.009zm1.597-2.176c.034.112.104.346.14.39l.106-.067c-.027-.026-.063-.207-.147-.593-.044-.203-.16-.741-.218-.828.021.042-.038.053-.119.068l-.068.015.306 1.015z" fill="#4a4a4a"/><path d="M130.227 304.403c.506 0 .659.362.925 1.582.277 1.272.296 1.427.207 1.657-.088.235-.275.343-.761.448a2.193 2.193 0 0 1-.452.062.71.71 0 0 1-.263-.046c-.226-.09-.388-.352-.528-.863-.361-1.264-.414-1.439-.454-1.493-.052-.076-.101-.107-.183-.107a.563.563 0 0 0-.106.012l-.032.007.577 2.655a.137.137 0 0 1-.104.162l-.435.095a.136.136 0 0 1-.162-.104l-.736-3.383a.136.136 0 0 1 .097-.16c.069-.019.124-.031.221-.052.417-.091.652-.129.807-.129.034 0 .064.002.091.005.305.034.462.206.63.668.013.036.139.463.391 1.291.126.422.172.532.31.532a.638.638 0 0 0 .128-.018c.178-.039.236-.085.243-.206.01-.088-.013-.213-.118-.698-.128-.59-.195-.83-.257-.917-.025-.04-.063-.058-.132-.058-.054 0-.128.011-.229.031l-.105.023-.166-.764a.137.137 0 0 1 .104-.162 2.32 2.32 0 0 1 .492-.07m0-.479c-.16 0-.338.024-.595.08a.612.612 0 0 0-.415.318 1.157 1.157 0 0 0-.371-.055c-.194 0-.44.038-.909.14-.109.024-.17.037-.248.059a.616.616 0 0 0-.437.724l.736 3.383a.619.619 0 0 0 .601.485h.052l.079-.014.435-.095a.617.617 0 0 0 .462-.436 1.206 1.206 0 0 0 .529.12c.151 0 .322-.023.554-.073.456-.099.917-.239 1.108-.749.144-.372.095-.628-.188-1.927-.229-1.052-.426-1.96-1.393-1.96z" fill="#333"/></g><g><path d="M140.319 342.395a1.532 1.532 0 0 1-1.441-1.019l-2.012-5.663a1.515 1.515 0 0 1 .072-1.195c.188-.375.512-.651.913-.776l3.179-.993a1.526 1.526 0 0 1 1.912.99l.199.616.302-.096.086-.007a.4.4 0 0 1 .391.486l-.622 2.812a.397.397 0 0 1-.392.313.398.398 0 0 1-.271-.106l-2.122-1.942a.399.399 0 0 1 .15-.677l.045-.015-.002-.003-1.371.48 1.438 4.072 1.313-.451c-.066-.049-.06-.166-.009-.271a.437.437 0 0 1 .25-.22l1.676-.568.104-.011c.185 0 .349.118.409.294l.34 1.001c.134.396.103.82-.09 1.193a1.517 1.517 0 0 1-.92.764l-3.086.926a1.535 1.535 0 0 1-.441.066z" fill="#4a4a4a"/><path d="M141.487 332.917a1.29 1.29 0 0 1 1.227.894l.272.843.494-.156a.16.16 0 0 1 .205.187l-.622 2.81a.16.16 0 0 1-.157.126.159.159 0 0 1-.108-.042l-2.123-1.944a.16.16 0 0 1 .06-.271l.275-.087-.076-.234a.193.193 0 0 0-.242-.125l-1.431.452a.193.193 0 0 0-.124.249l1.408 4.128a.193.193 0 0 0 .238.121l1.372-.419a.192.192 0 0 0 .127-.247.193.193 0 0 1 .121-.245l1.638-.556a.193.193 0 0 1 .245.121l.339 1a1.29 1.29 0 0 1-.851 1.65l-3.086.926a1.288 1.288 0 0 1-1.586-.803l-2.012-5.663a1.29 1.29 0 0 1 .831-1.663l3.179-.993c.129-.04.259-.059.387-.059m0-.479c-.179 0-.357.027-.528.081l-3.179.993c-.464.145-.838.464-1.055.898s-.247.926-.084 1.384l2.012 5.663a1.773 1.773 0 0 0 2.176 1.103l3.086-.926a1.753 1.753 0 0 0 1.064-.884c.222-.431.259-.921.103-1.38l-.339-1a.674.674 0 0 0-.853-.421l-1.638.556a.673.673 0 0 0-.451.554l-.889.271-1.224-3.588.462-.146c.018.15.089.291.203.396l2.123 1.944a.64.64 0 0 0 1.058-.334l.622-2.81a.637.637 0 0 0-.126-.539.638.638 0 0 0-.499-.24h-.074l-.119.03-.039.012-.126-.39a1.77 1.77 0 0 0-1.686-1.227z" fill="#333"/></g><g><path d="M64.936 365.242a.517.517 0 0 1-.496-.373l-1.652-5.667a.52.52 0 0 1 .352-.642l6.121-1.784.112-.011c.229 0 .432.153.496.372l1.652 5.668a.52.52 0 0 1-.352.642l-6.121 1.784-.112.011z" fill="#4a4a4a"/><path d="M69.373 357.005c.12 0 .231.079.266.2l1.652 5.668a.278.278 0 0 1-.189.344l-6.088 1.774a.277.277 0 0 1-.344-.189l-1.652-5.668a.278.278 0 0 1 .189-.344l6.088-1.774a.3.3 0 0 1 .078-.011m0-.479a.76.76 0 0 0-.212.03l-6.088 1.774a.758.758 0 0 0-.515.939l1.652 5.668a.76.76 0 0 0 .939.515l6.088-1.774a.758.758 0 0 0 .515-.939l-1.652-5.668a.762.762 0 0 0-.727-.545z" fill="#333"/></g><g><circle cx="106.739" cy="37.532" r="4.461" fill="#232423" stroke="#131413" stroke-width=".6" stroke-miterlimit="10"/></g><g><circle cx="120.897" cy="61.182" r="4.461" fill="#232423" stroke="#131413" stroke-width=".6" stroke-miterlimit="10"/></g><g><circle cx="96.683" cy="76.285" r="4.461" fill="#232423" stroke="#131413" stroke-width=".6" stroke-miterlimit="10"/></g><g><circle cx="81.599" cy="51.957" r="4.461" fill="#232423" stroke="#131413" stroke-width=".6" stroke-miterlimit="10"/></g><path d="M24.194 90.88c3.368-.182 12.436.205 20.65.615 4.398.22 8.553.427 11.784.535 8.836.297 44.584 7.113 47.911 8.777l-.371 1.609c-2.84-1.42-38.102-8.269-47.601-8.588-3.245-.109-7.407-.316-11.813-.536-8.169-.407-17.584-.768-20.859-.59l.299-1.822z" fill="#323333"/><path d="M24.194 92.079c3.368-.182 12.436.205 20.65.615 4.398.22 8.553.427 11.784.535 8.836.297 44.584 7.113 47.911 8.777l-.371 1.609c-2.84-1.42-38.102-8.269-47.601-8.588-3.245-.109-7.407-.316-11.813-.536-8.169-.407-17.584-.768-20.859-.59l.299-1.822z" fill="#4b4d4b"/><path d="M24.194 91.48c3.368-.182 12.436.205 20.65.615 4.398.22 8.553.427 11.784.535 8.836.297 44.584 7.113 47.911 8.777l-.371 1.609c-2.84-1.42-38.102-8.269-47.601-8.588-3.245-.109-7.407-.316-11.813-.536-8.169-.407-17.584-.768-20.859-.59l.299-1.822z" fill="#444544"/><path d="M9.287 92.418c.09-.006 9.862-.667 14.907-.939l-.298 1.821c-5.033.272-14.811.932-14.901.938l.292-1.82z" fill="#1e1f1f"/><path d="M106.619 107.542c-.006-.029.092-3.255-2.45-4.526l.371-1.609c3.362 1.681 2.079 6.135 2.079 6.135z" fill="#393b3b"/><path d="M24.194 297.105c3.368.182 12.436-.205 20.65-.615 4.398-.22 8.553-.427 11.784-.535 8.836-.297 44.584-7.113 47.911-8.777l-.371-1.609c-2.84 1.42-38.102 8.269-47.601 8.588-3.245.109-7.407.316-11.813.536-8.169.407-17.584.768-20.859.59l.299 1.822z" fill="#323333"/><path d="M24.194 295.905c3.368.182 12.436-.205 20.65-.615 4.398-.22 8.553-.427 11.784-.535 8.836-.297 44.584-7.113 47.911-8.777l-.371-1.609c-2.84 1.42-38.102 8.269-47.601 8.588-3.245.109-7.407.316-11.813.536-8.169.407-17.584.768-20.859.59l.299 1.822z" fill="#4b4d4b"/><path d="M24.194 296.505c3.368.182 12.436-.205 20.65-.615 4.398-.22 8.553-.427 11.784-.535 8.836-.297 44.584-7.113 47.911-8.777l-.371-1.609c-2.84 1.42-38.102 8.269-47.601 8.588-3.245.109-7.407.316-11.813.536-8.169.407-17.584.768-20.859.59l.299 1.822z" fill="#444544"/><path d="M9.287 295.566c.09.006 9.862.667 14.907.939l-.298-1.821c-5.033-.272-14.811-.932-14.901-.938l.292 1.82z" fill="#1e1f1f"/><path d="M106.619 280.443c-.006.029.092 3.255-2.45 4.526l.371 1.609c3.362-1.682 2.079-6.135 2.079-6.135z" fill="#393b3b"/><path d="M49.114 93.319c-2.922 15.757-8.937 53.872-8.937 100.674s6.015 84.917 8.937 100.674l1.165-.187c-2.934-15.865-8.903-53.862-8.903-100.487s5.968-84.622 8.903-100.487l-1.165-.187z" fill="#585959"/><path d="M59.447 293.686c-2.568-15.722-8.776-58.035-8.776-99.694s6.208-83.972 8.776-99.694h-1.199c-2.568 15.722-8.776 58.035-8.776 99.694s6.208 83.972 8.776 99.694h1.199z" fill="#2f3030"/><path d="M58.247 293.686c-2.568-15.722-8.776-58.035-8.776-99.694s6.208-83.972 8.776-99.694a241.19 241.19 0 0 0-7.969-.793c-2.934 15.865-8.903 53.862-8.903 100.487s5.968 84.622 8.903 100.487a241.19 241.19 0 0 0 7.969-.793z" fill="#404040"/><g><path d="M53.688 263.176c0 1.698-1.144 3.175-2.662 3.436-.458.079-.901.08-1.357.005-1.389-.231-2.488-1.474-2.672-3.024a597.935 597.935 0 0 1-3.376-39.99 3.61 3.61 0 0 1 1.58-3.206c.895-.6 1.967-.715 2.942-.315l.092.038c1.13.481 1.909 1.668 1.986 3.023.713 12.611 1.871 25.935 3.442 39.602.017.142.025.288.025.431m1.2 0c0-.211-.012-.424-.037-.637-1.337-11.634-2.625-25.208-3.433-39.498-.113-1.998-1.279-3.811-3.076-4.577l-.113-.047c-3.388-1.389-7.01 1.293-7.01 4.988 0 .095.002.192.007.288a600.36 600.36 0 0 0 3.386 40.111c.272 2.297 1.942 4.218 4.164 4.587a5.84 5.84 0 0 0 1.956-.006c2.455-.422 4.156-2.695 4.156-5.209z" fill="#1e1f1f"/></g><path d="M59.447 92.842v1.456l-10.333-.98v-1.013c0 .001 4.122-.257 10.333.537zM59.447 295.142v-1.456l-10.333.98v1.013s4.122.258 10.333-.537z" fill="#282929"/><g><path d="M132.214 61.978l2.596 2.377a.353.353 0 0 1 .086.136l.378-.119a.364.364 0 0 0 .136-.616l-2.596-2.377a.365.365 0 0 0-.602.19l-.081.367c.028.014.058.019.083.042zM152.385 70.705l2.726 4.722c.046.08.066.164.071.247h.04c.434 0 .706-.47.489-.846l-2.726-4.722a.564.564 0 0 0-.977 0l-.189.327a.555.555 0 0 1 .566.272zM37.732 248.672a.564.564 0 0 1 .547.81l-2.247 4.618a.558.558 0 0 0 .461-.315l2.385-4.903a.564.564 0 0 0-.547-.81l-5.439.386a.565.565 0 0 0-.524.594l5.364-.38zM71.233 47.603a.364.364 0 0 1 .465.426l-.679 3.07a.355.355 0 0 0 .518-.233l.76-3.437a.364.364 0 0 0-.465-.426l-3.356 1.06a.36.36 0 0 0-.222.48l2.979-.94zM95.626 86.93a.365.365 0 0 1 .19.602l-1.897 2.072c.042-.019.085-.038.12-.076l2.377-2.596a.365.365 0 0 0-.19-.602l-3.437-.76a.364.364 0 0 0-.426.465l.059.186 3.204.709zM109.148 23.716l1.001 3.171.232.051a.364.364 0 0 0 .426-.465l-1.06-3.356a.364.364 0 0 0-.616-.136l-.48.524a.356.356 0 0 1 .497.211zM152.385 77.04l2.726 4.722c.046.08.066.164.071.247h.04c.434 0 .706-.47.489-.846l-2.726-4.722a.564.564 0 0 0-.977 0l-.189.327a.555.555 0 0 1 .566.272zM155.222 317.363c.434 0 .706.47.489.846l-2.537 4.395a.552.552 0 0 0 .411-.272l2.726-4.722a.564.564 0 0 0-.489-.846h-2.991a.561.561 0 0 1-.67 0h-1.791a.562.562 0 0 0-.56.6h5.412zM155.222 311.028c.434 0 .706.47.489.846l-2.537 4.395a.552.552 0 0 0 .411-.272l2.726-4.722a.564.564 0 0 0-.489-.846h-5.453a.562.562 0 0 0-.56.6h5.413zM31.295 238.2l5.87-.206a.745.745 0 0 1 .77.717l.027.761c.002.052-.016.098-.024.148a.736.736 0 0 0 .624-.747l-.027-.761a.743.743 0 0 0-.77-.717l-5.87.206a.734.734 0 0 0-.693.622c.032-.006.06-.022.093-.023zM31.432 242.095l5.87-.207a.745.745 0 0 1 .77.717l.027.76c.002.052-.016.098-.024.148a.736.736 0 0 0 .624-.747l-.027-.76a.743.743 0 0 0-.77-.717l-5.87.207a.734.734 0 0 0-.693.622c.032-.006.06-.021.093-.023zM53.352 320.931a.362.362 0 0 1 .43.276l1.078 4.949.344-.075a.361.361 0 0 0 .276-.43l-1.099-5.044a.361.361 0 0 0-.43-.276l-1.019.222a.361.361 0 0 0-.276.43l.021.095.675-.147zM57.004 323.786l.221.097a.178.178 0 0 0 .248-.191l-.469.094zM56.393 322.074l.073.336c.013.06.073.099.133.086l2.532-.509c.06-.013.12.025.133.086l.163.747.59-.118a.112.112 0 0 0 .086-.133l-.239-1.095a.112.112 0 0 0-.133-.086l-2.532.509a.111.111 0 0 1-.133-.086l-.073-.336a.18.18 0 0 0-.311-.082l-.486.546a.174.174 0 0 1 .197.135zM128.018 299.993c.233-.051.238-.119.067-.906-.117-.54-.169-.766-.252-.851l-.269.058a.136.136 0 0 0-.104.161l.088.403c.111.556.116.579.115.66-.001.009-.008.013-.009.021.092.403.164.497.364.454zM128.387 297.604c.111.047.16.248.29.845.044.175.089.371.137.594.141.648.193.986.176 1.209.308-.079.471-.191.554-.394.091-.221.062-.531-.13-1.415-.366-1.684-.541-1.915-1.342-1.74l-.05.011a.136.136 0 0 0-.104.162l.087.398c.155.038.276.138.382.33zM126.264 297.557a.136.136 0 0 1 .164.103l.163.75-.054.016c-.247.054-.3.099-.304.234a11.519 11.519 0 0 0 .243 1.184c.051.172.099.306.145.404.054.066.123.083.238.058.137-.03.197-.086.204-.188.001-.082-.004-.105-.115-.66l-.088-.403a.135.135 0 0 1 .104-.161l.025-.005a10.295 10.295 0 0 1-.156-.828c.004-.135.057-.18.304-.234l.054-.016-.163-.75a.136.136 0 0 0-.164-.103c-.469.109-.616.19-.723.367a.714.714 0 0 0-.084.287c.064-.018.125-.036.207-.055zM131.033 302.047a.136.136 0 0 0 .104-.162l-.013-.061a.137.137 0 0 0-.05-.079l-.179-.138-1.254.273a.136.136 0 0 0-.104.162l.069.315 1.427-.31zM131.673 301.146c.018.014.027.036.036.056l.096.072c.026.02.044.048.051.079l.211.972.564-.123a.136.136 0 0 0 .104-.161l-.28-1.287a.132.132 0 0 0-.051-.079l-1.051-.797a.135.135 0 0 0-.19.026l-.325.428a.136.136 0 0 0 .025.19l.81.624z" fill="#636363"/><g><path d="M130.318 305.181c.034.008.06.022.077.049.062.087.129.327.257.917.094.434.12.576.118.665.132.618.175.882.166 1.052.327-.092.482-.198.555-.395.089-.23.07-.384-.207-1.657-.337-1.547-.493-1.714-1.417-1.513a.136.136 0 0 0-.104.162l.082.375c.209.021.353.122.473.345zM128.433 306.179c-.071-.104-.137-.124-.289-.095l-.032.007.482 2.214c.02.068.086.112.157.097l.41-.089c-.103-.144-.193-.347-.273-.641-.362-1.264-.414-1.44-.455-1.493zM128.47 305.178c.273-.047.749-.307.463.315.037.016.069.04.1.086.04.054.093.229.454 1.493.067.245.14.43.222.569.053.036.117.032.219.01.179-.039.236-.085.243-.206.01-.088-.013-.213-.118-.698-.128-.59-.195-.83-.257-.917-.044-.072-.364-.962-.289-.973a.57.57 0 0 0-.437-.278c-.153-.019-.39.013-.898.124a3.816 3.816 0 0 0-.221.052.137.137 0 0 0-.097.16l.069.316c.275-.052.436-.033.547-.053z" fill="#636363"/></g><g><path d="M140.68 339.577l-1.347-3.947-.537.17a.193.193 0 0 0-.124.249l1.408 4.128c.034.097.139.15.238.12l1.372-.419a.192.192 0 0 0 .127-.247.193.193 0 0 1 .121-.245l.006-.002-1.026.314a.194.194 0 0 1-.238-.121zM137.456 334.397l3.179-.993a1.29 1.29 0 0 1 1.613.835l.272.843.494-.156a.16.16 0 0 1 .205.188l-.47 2.127.183.168a.16.16 0 0 0 .265-.084l.622-2.811a.16.16 0 0 0-.205-.188l-.494.156-.272-.843a1.291 1.291 0 0 0-1.613-.835l-3.179.993a1.284 1.284 0 0 0-.777.676c.056-.027.114-.056.177-.076zM142.417 339.031a.192.192 0 0 1-.069.216l1.229-.417a.193.193 0 0 1 .245.121l.339 1c.113.333.079.679-.061.972.575-.278.873-.946.661-1.571l-.339-1a.193.193 0 0 0-.245-.121l-1.638.556a.19.19 0 0 0-.122.244z" fill="#636363"/></g><g><path d="M68.828 357.444a.278.278 0 0 1 .344.189l1.615 5.543.448-.13a.278.278 0 0 0 .189-.344l-1.652-5.668a.278.278 0 0 0-.344-.189l-6.088 1.774a.278.278 0 0 0-.189.344l.037.125 5.64-1.644z" fill="#636363"/></g></g><g><g fill="#da2b27"><path d="M70.035 196.638c-.04-.963-.594-1.972-1.583-2.028l-.915-.05v.01l-1.323-.075c.09 2.508.204 5.014.338 7.52.473.025.945.052 1.418.078-.097-1.805-.183-3.61-.257-5.417.153-.688.763.11.82.467.047 1.085.097 2.17.15 3.253.049.962.895 1.785 1.884 1.841l.917.051c.99.056 1.75-.68 1.702-1.642a443.836 443.836 0 0 1-.176-3.829c-.041-.963-.656-1.99-1.646-2.046l-.915-.05c.023.631.048 1.262.074 1.893l.186.01a.83.83 0 0 1 .802.792c.035.811.072 1.623.112 2.434.02.416-.267.71-.686.707a.832.832 0 0 1-.758-.787 466.137 466.137 0 0 1-.142-3.134l-.002.002zM69.489 192.343c.079.732.329 1.28 1.146 1.325l.916.051c.988.055 1.316-.706 1.286-1.669a429.88 429.88 0 0 1-.092-3.405c-.023-.963-.62-1.993-1.608-2.048l-.914-.05.039 1.896.186.01a.81.81 0 0 1 .787.792c.016.67.034 1.338.054 2.007.012.417-.057.722-.475.721a.813.813 0 0 1-.743-.789 444.41 444.41 0 0 1-.045-1.632l-1.243-.069c.016.616.032 1.231.05 1.847.012.417-.28.71-.7.708-.418-.046-.506-.359-.518-.776-.022-.74-.041-1.482-.06-2.223-.01-.433.308-.73.752-.707l.186.01-.04-1.897-.914-.05c-.988-.056-1.548.91-1.526 1.872.027 1.207.059 2.414.096 3.621.053 1.1.635 1.776 1.624 1.831l.69.038c.897.05 1.065-.58 1.067-1.415l-.001.001z"/><g><path d="M65.338 115.307c.128.006.22-.025.274-.091a.688.688 0 0 0 .123-.275c.122-.393.31-.621.561-.684.251-.063.566-.082.942-.056l7.825.036c.28.018.517.004.714-.038.196-.042.32-.217.372-.523.033-.281-.019-.49-.158-.625a4.676 4.676 0 0 0-.505-.423 1853.456 1853.456 0 0 1-6.242-5.328l-1.048-.9a4.899 4.899 0 0 1-.617-.574 1.104 1.104 0 0 1-.278-.766 1.876 1.876 0 0 0-.02-.49c-.029-.152-.142-.24-.342-.261-.12-.003-.206.035-.254.112a.664.664 0 0 0-.092.273c-.044.286-.075.575-.096.867-.02.293-.052.586-.096.879a12.01 12.01 0 0 1-.165.784c-.065.26-.119.522-.164.784a.637.637 0 0 0 .027.338c.04.104.123.162.253.176.195-.006.325-.115.39-.33.065-.212.142-.426.23-.637.088-.212.263-.32.526-.321.272.054.64.258 1.101.61.462.352.786.608.972.766a468.983 468.983 0 0 0-.473 3.084l-.996-.005a20.27 20.27 0 0 1-.992-.03c-.454-.042-.704-.175-.749-.4a2.151 2.151 0 0 1-.032-.668c.024-.221-.087-.347-.333-.378-.107-.003-.186.026-.237.088a.461.461 0 0 0-.095.236c-.06.425-.11.852-.147 1.283-.037.43-.084.858-.143 1.283a16 16 0 0 1-.156.855c-.059.284-.11.569-.154.855a.698.698 0 0 0 .013.335c.031.092.118.146.261.159zm4.524-3.587c.13-.86.26-1.717.393-2.575 1.076.885 2.154 1.77 3.235 2.655l-3.628-.08zM72.651 138.227c.094.003.167-.023.22-.08a.349.349 0 0 0 .09-.214c.011-.14.017-.276.017-.411 0-.135-.002-.273-.005-.412-.006-.343.004-.691.03-1.042.024-.351.054-.701.09-1.05.028-.255.063-.51.106-.764s.08-.51.107-.764a.539.539 0 0 0-.07-.332c-.059-.101-.154-.156-.287-.17-.24.03-.368.199-.385.507-.017.307-.168.475-.454.503a1.203 1.203 0 0 1-.239-.043 3.232 3.232 0 0 1-.235-.077l-6.619-2.332a5.786 5.786 0 0 1-.802-.296c-.225-.105-.358-.324-.399-.658a5.27 5.27 0 0 0-.054-.538c-.029-.206-.136-.324-.32-.354-.108-.002-.19.035-.244.11a.518.518 0 0 0-.095.26c-.03.333-.046.67-.045 1.01.001.34-.015.68-.044 1.022-.04.364-.09.729-.15 1.096-.06.367-.11.732-.15 1.096a2.65 2.65 0 0 0-.03.517c.004.196.102.308.292.337.201-.003.317-.098.348-.283.031-.185.08-.37.145-.553.066-.184.251-.274.557-.271.125.009.251.032.377.07.126.037.25.08.372.128l6.664 2.334c.275.088.472.184.591.29.12.106.192.305.222.595.005.147.032.306.08.477.047.17.154.269.32.292zM71.775 148.4c.17-.011.301-.174.393-.487.092-.313.157-.644.195-.993.038-.35.06-.583.065-.703.09-1.293-.072-2.661-.484-4.103-.412-1.443-1.078-2.691-2.002-3.745-.925-1.054-2.114-1.644-3.576-1.771-.932-.034-1.726.19-2.38.67a4.88 4.88 0 0 0-1.532 1.87 6.79 6.79 0 0 0-.649 2.395 12.698 12.698 0 0 0 .121 3.037c.024.189.061.352.11.49.05.138.165.247.346.328.382.158.77.303 1.163.432.394.13.786.263 1.178.398.556.218.873.458.954.719.08.262.111.49.092.688-.019.197.1.308.354.333.11 0 .188-.035.24-.111a.498.498 0 0 0 .083-.26c.022-.386.031-.774.027-1.164-.004-.391.006-.782.031-1.177.031-.371.075-.742.131-1.111.056-.37.1-.741.134-1.111a.837.837 0 0 0-.04-.362c-.04-.117-.132-.184-.276-.2-.178.005-.284.103-.319.292a3.29 3.29 0 0 1-.159.567c-.07.188-.25.28-.537.28-.292-.034-.687-.146-1.186-.337a97.897 97.897 0 0 1-1.199-.466c-.234-.073-.398-.164-.49-.27-.092-.107-.127-.287-.104-.54.094-.906.448-1.574 1.06-2.006.612-.432 1.362-.623 2.25-.575a6.024 6.024 0 0 1 2.333.637 6.403 6.403 0 0 1 1.914 1.452c.52.589.946 1.305 1.284 2.145.338.84.487 1.66.447 2.459-.023.379-.114.607-.273.686-.159.078-.415.099-.77.064a3.744 3.744 0 0 1-.28-.031 3.328 3.328 0 0 0-.28-.031.988.988 0 0 0-.429.052c-.13.048-.206.158-.225.33.001.19.088.337.258.437.171.1.336.177.496.228.117.047.376.148.776.302.401.152.652.24.755.264zM61.41 156.72c.128.006.216-.025.264-.092a.626.626 0 0 0 .098-.276c.085-.394.252-.623.497-.686.246-.063.558-.082.937-.056l7.83.036c.28.017.517.004.71-.038.191-.042.3-.217.322-.525.007-.281-.064-.49-.216-.627a5.312 5.312 0 0 0-.544-.424 1889.89 1889.89 0 0 1-6.739-5.347l-1.132-.902a5.588 5.588 0 0 1-.67-.578 1.225 1.225 0 0 1-.35-.77 1.903 1.903 0 0 0-.067-.49c-.042-.154-.164-.242-.365-.263-.122-.003-.203.035-.244.113a.633.633 0 0 0-.067.274c-.017.287-.022.577-.015.87.007.295.002.589-.014.884-.02.263-.052.525-.092.787s-.07.524-.09.787c-.01.122.01.235.058.339.05.104.138.163.27.176.193-.006.313-.116.358-.33.045-.214.102-.428.171-.641.07-.213.233-.32.496-.322.277.054.663.259 1.158.613.495.354.843.61 1.043.769a535.055 535.055 0 0 0-.186 3.095l-.996-.006a20.468 20.468 0 0 1-.995-.03c-.458-.042-.72-.176-.787-.401a2.233 2.233 0 0 1-.094-.671c.004-.221-.119-.348-.369-.38-.108-.002-.184.027-.229.089a.424.424 0 0 0-.073.237c-.02.427-.03.855-.027 1.287.003.432-.005.86-.023 1.287a16.42 16.42 0 0 1-.076.857c-.033.285-.058.57-.075.857a.706.706 0 0 0 .044.336c.042.095.134.15.278.162zm4.19-3.598c.048-.861.1-1.723.152-2.584 1.158.888 2.32 1.776 3.483 2.664l-3.636-.08zM73.226 131.67c.101.004.176-.023.226-.081a.398.398 0 0 0 .09-.228c.031-.325.06-.653.08-.983.022-.33.05-.658.083-.983.028-.172.066-.43.115-.773.05-.343.034-.577-.045-.701a.723.723 0 0 0-.102-.068.723.723 0 0 1-.102-.068 2117.807 2117.807 0 0 1-5.98-4.614l6.394.189c.12.015.225.016.315.004s.146-.087.167-.226c.042-.356.08-.715.115-1.075s.082-.717.141-1.073c.036-.2.074-.4.115-.598.041-.198.075-.394.102-.587a1.015 1.015 0 0 0-.005-.381c-.026-.123-.113-.192-.263-.21-.253.036-.4.225-.444.567-.042.342-.19.53-.443.566a1.67 1.67 0 0 1-.52-.136c-.173-.076-.335-.147-.486-.216-1.003-.435-2.007-.87-3.01-1.303a129.527 129.527 0 0 1-2.992-1.337c-.425-.175-.717-.34-.876-.495-.159-.155-.246-.467-.26-.938a.858.858 0 0 0-.069-.346c-.045-.101-.138-.158-.282-.171-.129-.003-.218.038-.266.12a.73.73 0 0 0-.09.295c-.037.27-.067.544-.092.819-.024.275-.054.549-.089.819-.038.254-.085.505-.14.752a9.642 9.642 0 0 0-.14.74.613.613 0 0 0 .044.334c.046.107.134.168.264.182.221-.005.354-.118.4-.341.044-.222.11-.443.197-.663.087-.22.303-.33.648-.326.488.05 1.194.263 2.12.639a53.57 53.57 0 0 1 2.68 1.175c.861.407 1.442.682 1.74.825l-7.437-.248a1.516 1.516 0 0 0-.553.04c-.14.045-.228.192-.263.443-.023.255.041.46.19.615.15.155.32.3.508.435 2.238 1.785 4.487 3.57 6.747 5.357l-6.014-1.987a4.833 4.833 0 0 1-.78-.268c-.259-.114-.403-.316-.433-.61a4.232 4.232 0 0 0-.014-.563c-.018-.21-.132-.328-.344-.36-.116-.003-.202.032-.258.104a.511.511 0 0 0-.1.265c-.039.356-.062.715-.068 1.077a12.81 12.81 0 0 1-.065 1.077c-.049.37-.112.74-.19 1.109-.08.369-.143.739-.189 1.109a.79.79 0 0 0 .03.373c.038.112.133.174.284.189.19-.003.308-.09.356-.262a4.32 4.32 0 0 1 .182-.514c.073-.171.241-.255.502-.254.188.013.378.046.568.098.19.053.373.108.548.167l6.205 1.936c.275.07.486.155.634.252.148.097.225.294.233.59a1.51 1.51 0 0 0 .05.464c.041.154.151.24.331.26z"/></g></g><g fill="#e3e7e6"><path d="M68.872 160.381l-5.198-.292c-1.434-.081-2.64.98-2.681 2.367a460.068 460.068 0 0 0-.132 5.508c-.025 1.387 1.127 2.577 2.564 2.658l1.33.074c.01-.831.022-1.661.037-2.492l-.5-.028c-.646-.036-1.11-.519-1.098-1.142.023-1.142.05-2.283.081-3.425.017-.623.503-1.053 1.148-1.016l3.311.186c.646.036 1.104.519 1.087 1.142a427.277 427.277 0 0 0-.074 3.201c-.013.623-.492 1.053-1.138 1.017l-.27-.015c-.015.831-.027 1.661-.037 2.492l1.331.075c1.437.081 2.615-.979 2.639-2.366.03-1.761.071-3.523.121-5.285.038-1.388-1.087-2.579-2.521-2.659-.001-.001-.001 0 0 0zM63.094 174.587l5.787.324c-.004 1.469-.002 2.939.008 4.407.005.77-.637 1.357-1.438 1.312l-2.895-.162c-.799-.045-1.454-.705-1.458-1.474-.009-1.469-.01-2.938-.005-4.408l.001.001zm-2.298-2.585a455.51 455.51 0 0 0-.004 8.014c.012 1.486 1.326 2.805 2.868 2.891l4.749.265c1.542.086 2.818-1.088 2.804-2.574-.025-2.67-.027-5.341-.006-8.014-3.47-.193-6.941-.387-10.411-.582z"/></g></g></svg>