<svg xmlns="http://www.w3.org/2000/svg" viewBox="0 0 153.534 153.534"><path d="M76.767 47.243c-16.306 0-29.524 13.218-29.524 29.524s13.218 29.524 29.524 29.524 29.524-13.218 29.524-29.524-13.218-29.524-29.524-29.524zm0 38.947a9.423 9.423 0 1 1 0-18.846 9.423 9.423 0 0 1 0 18.846z" fill="#b5b5b5"/><path d="M76.767 0C34.37 0 0 34.37 0 76.767s34.37 76.767 76.767 76.767 76.767-34.37 76.767-76.767S119.164 0 76.767 0zm0 106.291c-16.306 0-29.524-13.218-29.524-29.524s13.218-29.524 29.524-29.524 29.524 13.218 29.524 29.524-13.218 29.524-29.524 29.524z" fill="#e3e7e6"/><path d="M76.767 50.134c14.685 0 26.633 11.947 26.633 26.633S91.453 103.4 76.767 103.4 50.134 91.452 50.134 76.767s11.948-26.633 26.633-26.633m0-2.891c-16.306 0-29.524 13.218-29.524 29.524s13.218 29.524 29.524 29.524 29.524-13.218 29.524-29.524-13.218-29.524-29.524-29.524z"/><path d="M76.767 53.067c13.068 0 23.7 10.632 23.7 23.7s-10.632 23.7-23.7 23.7-23.7-10.632-23.7-23.7 10.632-23.7 23.7-23.7m0-.082c-13.135 0-23.782 10.648-23.782 23.782s10.648 23.782 23.782 23.782 23.782-10.648 23.782-23.782-10.648-23.782-23.782-23.782z"/><path d="M76.767 67.376c5.178 0 9.391 4.213 9.391 9.391s-4.213 9.391-9.391 9.391-9.391-4.213-9.391-9.391 4.213-9.391 9.391-9.391m0-.033a9.423 9.423 0 1 0 0 18.846 9.423 9.423 0 0 0 0-18.846zM136.936 71.256a3.11 3.11 0 0 1-.006.142c-.017.152 0 .223-.437.223s-.42-.072-.437-.223a7.441 7.441 0 0 1-.01-.445c.001-.126.005-.396.01-.445.017-.152 0-.223.437-.223s.42.072.437.223a3.6 3.6 0 0 1 .006.151h.598a4.267 4.267 0 0 0-.017-.308c-.034-.303.085-.593-1.023-.593-1.108 0-.989.29-1.023.593a6.716 6.716 0 0 0-.021.602c.001.252.009.503.021.602.034.303-.085.593 1.023.593 1.108 0 .989-.29 1.023-.593.007-.058.012-.167.016-.298l-.597-.001zM129.849 69.819l-.583 1.703-.583-1.703-.873-.005v2.287h.584v-1.704l.583 1.704h.583l.579-1.704v1.704h.583v-2.287zM137.665 69.814h1.676v.583h-.547v1.704h-.583v-1.704h-.546zM133.169 72.101l.669-2.289h.869l.671 2.289h-.583l-.138-.473h-.765l.108-.372h.547l-.271-.932-.524 1.777zM126.406 70.284c.437 0 .42.072.437.223.006.049.01.319.01.445.001.126-.005.396-.01.445-.017.152 0 .223-.437.223s-.42-.072-.437-.223a7.441 7.441 0 0 1-.01-.445c.001-.126.005-.396.01-.445.017-.151 0-.223.437-.223l.001-.526c-1.108 0-.989.29-1.023.593a6.716 6.716 0 0 0-.021.602c.001.252.009.503.021.602.034.303-.085.593 1.023.593 1.108 0 .989-.29 1.023-.593.011-.099.019-.349.021-.602s-.009-.503-.021-.602c-.034-.303.085-.593-1.023-.593l-.001.526zM124.437 71.256a3.11 3.11 0 0 1-.006.142c-.017.152 0 .223-.437.223s-.42-.072-.437-.223a7.441 7.441 0 0 1-.01-.445c.001-.126.005-.396.01-.445.017-.152 0-.223.437-.223s.42.072.437.223a3.6 3.6 0 0 1 .006.151h.598a4.267 4.267 0 0 0-.017-.308c-.034-.303.085-.593-1.023-.593-1.108 0-.989.29-1.023.593a6.716 6.716 0 0 0-.021.602c.001.252.009.503.021.602.034.303-.085.593 1.023.593 1.108 0 .989-.29 1.023-.593.007-.058.012-.167.016-.298l-.597-.001zM132.142 71.578h-.354v-.522l.354-.002c.437 0 .423-.072.441-.223.006-.049.004-.009.004-.135-.001-.126.002-.083-.004-.132-.017-.152-.004-.223-.441-.223l-.354.001.001 1.757h-.584v-2.284h.938c1.108 0 .987.291 1.027.593.005.036.005.201.005.29 0 .072 0 .237-.005.289-.029.304.08.591-1.028.591zM120.801 80.711l-3.65-.004a.956.956 0 0 1-.956-.956v-5.556c0-.528.428-.956.956-.956l2.285-.003a.497.497 0 0 0 .497-.497l.007-2.222c0-.115.093-.208.208-.208h1.339c.115 0 .208.093.208.208l.014 9.986a.208.208 0 0 1-.208.208h-.7l-.017.496h.914a.497.497 0 0 0 .497-.497V70.305a.497.497 0 0 0-.497-.497h-1.757a.497.497 0 0 0-.497.497l.003 2.227a.208.208 0 0 1-.208.208l-2.087-.004c-.805 0-1.458.653-1.458 1.458v5.556c0 .805.653 1.458 1.458 1.458l3.633-.001.016-.496z"/><path d="M119.443 78.666v-3.595a.545.545 0 0 0-1.091 0v3.88a.546.546 0 1 0 1.091 0v-.285l.496.017v.269a1.04 1.04 0 1 1-2.082 0v-3.88a1.04 1.04 0 1 1 2.082 0v3.612l-.496-.018zM124.27 80.711h-.683a.208.208 0 0 1-.208-.208l.008-7.052c0-.115.093-.208.208-.208h1.339c.115 0 .208.093.208.208l.014 7.052a.208.208 0 0 1-.208.208h-.678v.494l.876.001a.497.497 0 0 0 .497-.497v-7.471a.497.497 0 0 0-.497-.497h-1.757a.497.497 0 0 0-.497.497l-.001 7.469c0 .274.221.497.495.497l.884.001v-.494zM130.58 74.63l-1.471-.002a.82.82 0 1 0 0 1.64l2.016.006c.528 0 .956.428.956.956l-.007 2.51a.956.956 0 0 1-.956.956l-4.002.007a.208.208 0 0 1-.208-.208v-.972c0-.115.093-.208.208-.208l2.727-.009a.82.82 0 1 0 0-1.64l-1.974-.008a.956.956 0 0 1-.956-.956v-2.507c0-.528.428-.956.956-.956l3.709-.017c.115 0 .208.093.208.208v.994a.208.208 0 0 1-.208.208l-.998-.002-.017.489h1.22a.496.496 0 0 0 .497-.495l.002-1.393a.497.497 0 0 0-.497-.497l-3.916.002c-.805 0-1.458.653-1.458 1.458v2.507c0 .805.653 1.458 1.458 1.458l1.975-.003a.33.33 0 0 1 0 .66l-2.939-.001a.497.497 0 0 0-.497.497v1.39c0 .274.222.497.497.497l4.214-.001c.805 0 1.458-.653 1.458-1.458l.007-2.51c0-.805-.653-1.458-1.458-1.458l-2.016.006a.33.33 0 0 1 0-.66h1.454l.016-.488zM137.995 76.009h.632a.208.208 0 0 0 .208-.208l-.003-1.606a.956.956 0 0 0-.956-.956h-3.161a.956.956 0 0 0-.956.956v5.556c0 .528.428.956.956.956h3.161a.956.956 0 0 0 .956-.956l.003-1.527a.208.208 0 0 0-.208-.208h-1.193a.208.208 0 0 0-.208.208l.007.728c0 .575-.362 1.041-.937 1.041-.575 0-.937-.466-.937-1.041v-3.88c0-.575.362-1.041.937-1.041.575 0 .937.466.937 1.041l-.007.729c0 .115.093.208.208.208h.561l-.017.501h-.75a.497.497 0 0 1-.497-.497l.006-.941c0-.301-.14-.545-.441-.545s-.441.244-.441.545v3.88c0 .301.14.546.441.546s.441-.244.441-.546l-.006-.94c0-.274.222-.497.497-.497h1.61c.274 0 .497.222.497.497l-.001 1.739c0 .805-.653 1.458-1.458 1.458h-3.161a1.458 1.458 0 0 1-1.458-1.458v-5.556c0-.805.653-1.458 1.458-1.458h3.161c.805 0 1.458.653 1.458 1.458l.001 1.818a.497.497 0 0 1-.497.497h-.86l.017-.501z"/><g><circle cx="76.767" cy="76.767" r="29.524" fill="none"/><path d="M76.767 0c-25.93 0-48.855 12.857-62.753 32.543H139.52C125.622 12.857 102.697 0 76.767 0z" fill="#1b1c1c"/></g><g><path d="M82.956 21.284v4.483c0 1.237.983 2.241 2.194 2.241h4.809c1.21 0 2.194-1.004 2.194-2.24l-.001-1.146h-2.177v.431c0 .556-.4.963-.943.963H86.04c-.544 0-.942-.407-.942-.963V22.2c0-.556.398-.963.942-.963h2.795c.544 0 .943.407.943.963v.232h2.177v-1.146c0-1.237-.982-2.24-2.193-2.24h-4.615c-1.21-.003-2.192 1.001-2.192 2.24M95.632 26.024v-4.982h3.852c.673 0 1.218.558 1.218 1.246v2.491c0 .687-.546 1.245-1.218 1.245h-3.852zm-2.145 1.992h7.003c1.299 0 2.389-1.115 2.389-2.44V21.49c0-1.326-1.09-2.44-2.39-2.44h-7.002v8.966" fill="#e3e7e6"/><path d="M113.377 20.098c-.873 0-1.763.461-1.763 1.34v.814l.009.001v1.177h6.824v-1.26h-4.918c-.634-.162.06-.678.383-.715h2.953c.873 0 1.58-.715 1.58-1.594v-.815c0-.88-.707-1.594-1.58-1.594h-3.476c-.873 0-1.777.515-1.777 1.396v.814h1.718v-.165c0-.395.288-.685.68-.685h2.209c.378 0 .659.27.678.643a.66.66 0 0 1-.678.642l-2.844.001M109.5 20.446c.66-.049 1.146-.255 1.146-.983v-.815c0-.88-.71-1.195-1.581-1.195h-3.087c-.872 0-1.777.515-1.777 1.396v.814h1.719v-.165c0-.395.287-.685.679-.685h1.82c.378 0 .659.07.679.443a.66.66 0 0 1-.68.642l-1.478.001v1.106h1.674a.66.66 0 0 1 .678.643c-.02.373-.3.442-.678.442h-2.015a.66.66 0 0 1-.68-.684v-.166h-1.718v.815c0 .88.904 1.395 1.777 1.395h3.282c.996-.018 1.58-.515 1.58-1.395v-.615c0-.799-.58-.969-1.34-.994" fill="#da2b27"/><g fill="#da2b27"><path d="M40.206 27.918c0-.115-.034-.193-.096-.233a.57.57 0 0 0-.254-.075c-.36-.06-.574-.196-.644-.413-.069-.216-.102-.494-.098-.832l-.364-6.982a2.314 2.314 0 0 0-.07-.631c-.048-.17-.21-.257-.49-.264-.254.007-.439.08-.554.222a4.7 4.7 0 0 0-.355.505l-4.477 6.296-.756 1.063c-.148.227-.31.438-.486.633a1.126 1.126 0 0 1-.675.36 1.764 1.764 0 0 0-.439.09c-.137.049-.21.163-.219.344.004.108.042.178.114.21s.155.045.25.042c.26-.003.521-.017.785-.042s.53-.038.796-.042c.238.003.476.015.714.035.238.02.476.032.714.035a.611.611 0 0 0 .303-.072c.091-.05.14-.133.145-.25-.015-.173-.12-.273-.316-.302a6.06 6.06 0 0 1-.586-.115c-.195-.048-.3-.19-.316-.423.035-.25.2-.607.493-1.07.294-.461.507-.786.64-.973h2.798l.045.888c.015.298.023.594.024.888-.015.41-.123.65-.323.722-.2.07-.4.11-.6.119-.2.008-.307.125-.323.349.002.096.033.163.091.199a.38.38 0 0 0 .217.052c.385-.003.772-.017 1.161-.042.39-.024.776-.038 1.161-.042.26.002.518.012.777.028.26.016.518.026.777.028a.646.646 0 0 0 .301-.054c.087-.038.131-.122.135-.251zm-3.455-3.568h-2.337l2.225-3.246.112 3.246zM60.455 19.033c-.002-.084-.029-.147-.082-.19a.309.309 0 0 0-.198-.062 4.542 4.542 0 0 0-.37.017c-.123.01-.246.024-.372.038-.309.034-.622.054-.939.06-.317.008-.634.01-.95.01a11.465 11.465 0 0 1-.693-.028 11.465 11.465 0 0 0-.693-.028.5.5 0 0 0-.296.093.33.33 0 0 0-.138.27c.04.212.198.31.476.298.277-.013.436.107.476.36 0 .07-.01.143-.026.217a3.001 3.001 0 0 1-.058.217l-1.763 6.114a5.398 5.398 0 0 1-.226.743c-.083.21-.274.349-.572.418-.137.02-.297.053-.48.1-.185.046-.286.153-.304.32.004.097.041.166.112.206.071.04.15.06.238.059.301-.005.605-.023.911-.056.306-.033.614-.051.922-.056.33.003.66.015.993.035.333.02.664.032.993.035.136.01.291.004.467-.017.176-.022.272-.118.29-.29-.014-.18-.105-.275-.273-.286a2.765 2.765 0 0 1-.505-.081c-.168-.042-.259-.2-.272-.473.001-.113.016-.227.044-.343.028-.116.06-.23.096-.343l1.763-6.142c.065-.253.142-.436.231-.551.09-.115.264-.197.525-.247.132-.017.274-.053.425-.11.152-.054.235-.157.248-.307zM69.66 19.103c-.02-.151-.174-.258-.46-.321a5.113 5.113 0 0 0-.905-.113 11.815 11.815 0 0 0-.637-.013c-1.169.003-2.392.24-3.67.71-1.278.473-2.368 1.163-3.269 2.07-.902.909-1.373 2.02-1.413 3.333.017.834.258 1.523.723 2.067a4.224 4.224 0 0 0 1.762 1.215 6.159 6.159 0 0 0 2.188.397 11.795 11.795 0 0 0 2.73-.322c.168-.034.313-.078.434-.131.122-.053.214-.164.278-.331a15.8 15.8 0 0 0 .331-1.065c.097-.36.197-.718.3-1.076.167-.51.367-.808.6-.896a1.63 1.63 0 0 1 .614-.125c.18.005.273-.107.282-.336-.004-.097-.04-.166-.112-.206a.446.446 0 0 0-.238-.06c-.349.005-.7.02-1.05.05-.352.029-.706.045-1.063.049a15.38 15.38 0 0 1-1.007-.042 16.984 16.984 0 0 0-1.007-.042.769.769 0 0 0-.324.06c-.103.045-.159.132-.166.262.013.158.106.246.28.264.172.018.345.052.518.102.173.05.266.204.28.46-.016.262-.097.623-.244 1.08a93.44 93.44 0 0 1-.359 1.103c-.055.214-.127.366-.219.456-.09.09-.252.134-.48.13-.82-.017-1.44-.282-1.86-.795-.419-.513-.63-1.166-.63-1.96a5.445 5.445 0 0 1 .454-2.13c.297-.69.7-1.294 1.21-1.815.504-.506 1.126-.94 1.866-1.298.74-.36 1.471-.547 2.191-.563.342-.003.553.063.631.199.078.136.11.364.096.682a3.04 3.04 0 0 1-.014.252 3.04 3.04 0 0 0-.014.252.87.87 0 0 0 .068.38c.05.113.153.173.31.18a.445.445 0 0 0 .38-.257c.082-.158.142-.31.18-.456.036-.107.114-.344.233-.71a7.25 7.25 0 0 0 .201-.69zM77.682 27.918c0-.115-.034-.193-.096-.233a.57.57 0 0 0-.254-.075c-.36-.06-.574-.196-.644-.413-.069-.216-.102-.494-.098-.832l-.364-6.982a2.314 2.314 0 0 0-.07-.631c-.048-.17-.21-.257-.49-.264-.254.007-.439.08-.554.222a4.7 4.7 0 0 0-.355.505L70.28 25.51l-.755 1.064c-.148.227-.31.438-.486.633a1.126 1.126 0 0 1-.675.36 1.764 1.764 0 0 0-.439.09c-.137.049-.21.163-.219.344.004.108.042.178.114.21a.58.58 0 0 0 .25.042c.26-.003.521-.017.785-.042.264-.024.53-.038.796-.042.238.003.476.015.714.035.238.02.476.032.714.035a.611.611 0 0 0 .303-.072c.091-.05.14-.133.145-.25-.015-.173-.12-.273-.316-.302a6.06 6.06 0 0 1-.586-.115c-.195-.048-.3-.19-.316-.423.035-.25.2-.607.493-1.07.294-.461.507-.786.64-.973h2.798l.045.888c.015.298.023.594.024.888-.014.412-.122.653-.322.723-.2.07-.4.11-.6.119-.2.008-.307.125-.323.349.002.096.033.163.091.199a.38.38 0 0 0 .217.052c.385-.003.772-.017 1.161-.042.39-.024.776-.038 1.161-.042.26.002.518.012.777.028.26.016.518.026.777.028a.646.646 0 0 0 .301-.054c.085-.04.13-.124.133-.253zm-3.456-3.568H71.89l2.225-3.246.112 3.246zM54.525 19.089c-.002-.09-.03-.155-.084-.194a.343.343 0 0 0-.21-.058c-.294.002-.59.009-.888.02a26.56 26.56 0 0 1-.888.022c-.156-.008-.39-.017-.7-.026-.313-.01-.522.027-.629.11a.7.7 0 0 0-.056.098.7.7 0 0 1-.056.098l-3.848 5.82-.154-5.722a1.14 1.14 0 0 0-.012-.282c-.015-.08-.086-.12-.212-.124-.322.002-.646.008-.972.017-.326.009-.65.008-.972-.003-.182-.008-.363-.02-.544-.033a8.06 8.06 0 0 0-.533-.023.936.936 0 0 0-.343.049c-.109.037-.167.124-.175.259.044.222.222.33.532.329.31-.002.487.107.532.329a1.551 1.551 0 0 1-.096.479 30.33 30.33 0 0 1-.17.458l-1.02 2.838c-.339.947-.689 1.89-1.05 2.828-.137.4-.27.68-.4.84-.132.162-.409.278-.832.349a.826.826 0 0 0-.308.105c-.089.052-.135.143-.14.273.004.115.045.189.122.222a.62.62 0 0 0 .27.044c.244-.002.492-.01.741-.021.25-.012.496-.02.742-.021.231.003.458.015.684.035.225.02.45.032.673.035a.575.575 0 0 0 .297-.08.292.292 0 0 0 .15-.256c-.016-.196-.124-.301-.326-.315a3.443 3.443 0 0 1-.606-.097c-.202-.051-.31-.231-.326-.54.02-.44.176-1.095.467-1.964.292-.87.6-1.712.921-2.528.323-.816.541-1.366.654-1.648l.154 6.66c-.004.205.018.368.065.488s.184.18.411.184a.724.724 0 0 0 .544-.24 3.79 3.79 0 0 0 .366-.502l4.477-6.59-1.483 5.568c-.045.24-.112.48-.2.724a.68.68 0 0 1-.527.45c-.15.01-.319.036-.505.074-.187.038-.289.154-.306.346.003.103.04.176.107.219a.435.435 0 0 0 .243.06c.322-.004.646-.022.972-.055.326-.033.65-.051.972-.056.336.005.672.023 1.007.056.336.033.672.05 1.007.056a.736.736 0 0 0 .334-.063c.098-.045.15-.136.156-.273-.012-.168-.097-.265-.254-.292a3.703 3.703 0 0 1-.472-.111c-.157-.048-.242-.19-.254-.422.002-.17.022-.341.06-.516.036-.175.077-.343.121-.505l1.427-5.722c.05-.252.115-.448.194-.59.08-.14.253-.228.52-.263a1.39 1.39 0 0 0 .413-.087c.135-.051.206-.158.216-.32z"/></g></g><g><path d="M76.767 1.457c41.526 0 75.31 33.784 75.31 75.31s-33.784 75.31-75.31 75.31-75.31-33.784-75.31-75.31 33.784-75.31 75.31-75.31m0-1.457C34.37 0 0 34.37 0 76.767s34.37 76.767 76.767 76.767 76.767-34.37 76.767-76.767S119.164 0 76.767 0z" fill="#ababab"/></g><g fill="#323333"><path d="M9.323 73.872v-.379c0-1.659.531-1.905 4.019-1.905 1.829 0 2.455.076 2.853.351.398.275.55.673.55 1.431 0 .891-.237 1.204-1.024 1.365.967.218 1.147.455 1.147 1.507 0 .938-.246 1.346-.938 1.583-.502.171-1.498.237-3.536.237-1.611 0-2.275-.123-2.673-.483-.332-.313-.417-.673-.417-1.867h1.829l.009.114c0 .512.066.635.332.701.114.019.929.047 1.583.047.351 0 1.27-.028 1.422-.047.398-.047.521-.171.521-.531 0-.284-.085-.427-.284-.483-.161-.038-.209-.038-1.356-.057h-1.109V74.1h1.46c.948 0 1.166-.095 1.166-.531 0-.483-.133-.521-1.763-.521-1.953 0-1.953 0-1.953.682v.142H9.323zM17.968 74.014v-.274c0-1.915.398-2.152 3.602-2.152 2.635 0 2.948.028 3.365.303.427.275.559.692.559 1.697 0 .749-.076 1.119-.275 1.422-.275.408-.863.616-1.934.673-2.654.171-3.024.199-3.147.256-.237.095-.303.218-.313.531v.066h5.773v1.45h-7.536c-.028-.313-.028-.417-.028-.72 0-1.052.038-1.536.142-1.829.199-.588.607-.825 1.592-.957.076-.009.976-.076 2.72-.218 1.119-.085 1.204-.133 1.204-.645 0-.37-.066-.502-.303-.569-.171-.057-.426-.066-1.431-.066-1.223 0-1.725.028-1.924.114-.161.057-.199.228-.209.701v.218h-1.857zM28.111 71.664V74.1h.076c.332-.559.758-.72 1.877-.72 1.109 0 1.735.123 2.123.417.436.332.569.768.569 1.934 0 1.119-.114 1.574-.493 1.905-.37.332-.995.465-2.152.465-1.251 0-1.678-.142-2.01-.701h-.085v.588h-1.583v-6.322h1.678zm.313 3.147c-.237.142-.313.37-.313.948 0 .635.095.844.436.957.209.066.635.114 1.081.114.607 0 1.014-.066 1.194-.199.19-.133.256-.379.256-.938 0-.597-.095-.806-.398-.929-.218-.076-.626-.123-1.081-.123-.588-.001-.986.056-1.175.17zM35.068 71.664v1.261H33.39v-1.261h1.678zm0 1.839v4.484H33.39v-4.484h1.678zM38.007 72.469v1.033h2.654v1.204h-2.654v1.308c0 .493.009.559.085.673.085.152.256.218.578.218.341 0 .531-.066.607-.228.057-.104.066-.142.066-.607h1.536c-.019.853-.085 1.128-.341 1.46-.341.426-.853.569-2.01.569-1.071 0-1.507-.095-1.839-.417-.237-.237-.332-.483-.351-.995-.009-.076-.009-.303-.009-.673v-1.308h-.882v-1.204h.882v-1.033h1.678z"/></g><g><path fill="red" d="M48.708 125.502h4.238l-1.895-1.974h-2.343z"/><g fill="#025"><path d="M41.235 123.318a5.688 5.688 0 0 0 7.423 5.416v-2.838a3.207 3.207 0 0 1-1.615.432c-1.729 0-3.129-1.348-3.129-3.01 0-1.663 1.4-3.011 3.129-3.011.591 0 1.143.158 1.615.432v-2.842a5.694 5.694 0 0 0-7.423 5.421zM48.708 123.128h2.343l1.895-1.973h-4.238zM62.654 121.612c-.83.005-1.51.231-2.041.677-.53.446-.804 1.08-.822 1.902.018.818.292 1.449.822 1.894.53.445 1.21.67 2.041.675.83-.006 1.51-.231 2.041-.675.53-.445.804-1.076.822-1.894-.018-.823-.292-1.457-.822-1.902-.531-.446-1.211-.672-2.041-.677zm.846 3.541c-.175.266-.458.405-.847.417-.389-.012-.671-.151-.847-.417-.175-.266-.262-.587-.259-.962-.003-.38.083-.704.259-.971s.458-.406.847-.418c.389.012.671.151.847.418s.262.59.259.971c.003.376-.083.697-.259.962zM72.854 121.612c-.354-.002-.683.073-.987.224s-.558.392-.76.72a1.446 1.446 0 0 0-.607-.713 1.82 1.82 0 0 0-.933-.231c-.392-.002-.746.08-1.06.244s-.559.423-.734.776h-.019v-.907h-1.549v4.922h1.701v-2.078c.002-.527.087-.916.255-1.167a.798.798 0 0 1 .709-.373c.239.006.413.098.521.277.108.179.161.411.159.696v2.645h1.701v-2.078c.002-.527.087-.916.255-1.167a.798.798 0 0 1 .709-.373c.239.006.413.098.521.277.108.179.161.411.159.696v2.645h1.701v-2.9c.016-.672-.096-1.194-.338-1.567-.244-.373-.711-.562-1.404-.568zM82.168 121.612a2.16 2.16 0 0 0-.987.224 1.881 1.881 0 0 0-.76.72 1.446 1.446 0 0 0-.607-.713 1.82 1.82 0 0 0-.933-.231c-.392-.002-.746.08-1.06.244s-.559.423-.734.776h-.019v-.907h-1.549v4.922h1.701v-2.078c.002-.527.087-.916.255-1.167a.798.798 0 0 1 .709-.373c.239.006.413.098.521.277.108.179.161.411.159.696v2.645h1.701v-2.078c.002-.527.087-.916.255-1.167a.798.798 0 0 1 .709-.373c.239.006.413.098.521.277.108.179.161.411.159.696v2.645h1.701v-2.9c.016-.672-.096-1.194-.338-1.567-.245-.373-.712-.562-1.404-.568zM87.456 121.612c-.83.005-1.51.231-2.041.677-.53.446-.804 1.08-.822 1.902.018.818.292 1.449.822 1.894.53.445 1.21.67 2.041.675.83-.006 1.51-.231 2.041-.675.53-.445.804-1.076.822-1.894-.018-.823-.292-1.457-.822-1.902-.53-.446-1.21-.672-2.041-.677zm.847 3.541c-.175.266-.458.405-.847.417-.389-.012-.671-.151-.847-.417-.175-.266-.262-.587-.259-.962-.003-.38.083-.704.259-.971.175-.267.458-.406.847-.418.389.012.671.151.847.418.175.267.262.59.259.971.003.376-.083.697-.259.962zM94.587 122.358h-.019a1.79 1.79 0 0 0-.753-.586 2.476 2.476 0 0 0-.938-.161c-.683.028-1.204.291-1.563.789a2.851 2.851 0 0 0-.543 1.696c.002.747.194 1.373.575 1.878.381.504.939.766 1.673.786.4-.007.753-.104 1.058-.291.305-.187.516-.42.633-.701h.019v.879h1.568v-7.085h-1.71v2.796zm-.298 2.74a.956.956 0 0 1-.732.359c-.324-.006-.576-.129-.756-.367-.18-.239-.271-.557-.274-.955a1.39 1.39 0 0 1 .267-.854c.176-.233.431-.355.763-.365a.938.938 0 0 1 .753.363c.186.235.281.542.286.922-.007.366-.11.665-.307.897zM99.809 121.612c-.83.005-1.51.231-2.041.677-.53.446-.804 1.08-.822 1.902.018.818.292 1.449.822 1.894.53.445 1.21.67 2.041.675.83-.006 1.51-.231 2.041-.675.53-.445.804-1.076.822-1.894-.018-.823-.292-1.457-.822-1.902-.53-.446-1.21-.672-2.041-.677zm.847 3.541c-.175.266-.458.405-.847.417-.389-.012-.671-.151-.847-.417-.175-.266-.262-.587-.259-.962-.003-.38.083-.704.259-.971.175-.267.458-.406.847-.418.389.012.671.151.847.418s.262.59.259.971c.003.376-.084.697-.259.962zM106.383 121.612c-.365.004-.663.096-.894.276a1.942 1.942 0 0 0-.561.744h-.019v-.907h-1.549v4.922h1.701v-2.078c.002-.486.109-.863.321-1.131.212-.268.518-.405.916-.409.099-.001.196.001.292.007.095.006.19.022.285.05l.085-1.417a4.514 4.514 0 0 0-.277-.039 2.76 2.76 0 0 0-.3-.018zM112.298 124.371c.01-.756-.176-1.398-.559-1.928s-1.025-.807-1.926-.83c-.779.005-1.41.231-1.892.675s-.73 1.076-.744 1.894c.018.818.292 1.451.822 1.899.53.448 1.21.674 2.041.68.318.001.629-.024.934-.074s.595-.129.87-.237v-1.2a3.16 3.16 0 0 1-1.502.378c-.418.003-.751-.069-.999-.217s-.397-.391-.446-.727h3.401v-.313zm-3.42-.652c.018-.291.103-.533.256-.727.153-.194.383-.295.688-.302.337.008.579.108.727.302.148.194.22.437.217.727h-1.888zM58.899 125.305c-.977.253-2.065.085-2.666-.413-.974-.806-.99-2.726-.028-3.459.404-.308 1.012-.475 1.654-.479.319-.002.646.037.961.118.328.085.448.111.448.111l.159-1.473c-.48-.091-.972-.185-1.545-.185-.916 0-1.841.166-2.525.501-1.342.656-2.054 2.162-1.799 3.804.128.827.341 1.299.818 1.817.482.523 1.036.85 1.78 1.051.455.123.765.16 1.71.16.738 0 1.346-.118 1.625-.184l-.133-1.488-.459.119z"/></g></g></svg>