<?xml version="1.0" encoding="utf-8"?>
<!-- Generator: Adobe Illustrator 19.0.0, SVG Export Plug-In . SVG Version: 6.00 Build 0)  -->
<svg version="1.1"
	 id="svg2" xmlns:cc="http://creativecommons.org/ns#" xmlns:sodipodi="http://sodipodi.sourceforge.net/DTD/sodipodi-0.dtd" xmlns:svg="http://www.w3.org/2000/svg" xmlns:dc="http://purl.org/dc/elements/1.1/" xmlns:rdf="http://www.w3.org/1999/02/22-rdf-syntax-ns#" xmlns:inkscape="http://www.inkscape.org/namespaces/inkscape" sodipodi:docname="console.svg" inkscape:version="0.48.4 r9939"
	 xmlns="http://www.w3.org/2000/svg" xmlns:xlink="http://www.w3.org/1999/xlink" x="0px" y="0px" viewBox="-180 262.8 250.2 268.2"
	 enable-background="new -180 262.8 250.2 268.2" xml:space="preserve">
<sodipodi:namedview  inkscape:cy="134.10687" inkscape:cx="77.722758" borderopacity="1" pagecolor="#ffffff" gridtolerance="10" objecttolerance="10" bordercolor="#666666" id="namedview3886" guidetolerance="10" inkscape:zoom="3.3890881" showgrid="false" inkscape:window-y="24" inkscape:pageopacity="0" inkscape:window-x="65" inkscape:window-height="1056" inkscape:window-width="1855" inkscape:pageshadow="2" inkscape:current-layer="svg2" inkscape:window-maximized="1">
	</sodipodi:namedview>
<g id="g10" transform="matrix(1.25,0,0,-1.25,0,268.21375)">
	<g id="g12">
		<g>
			<defs>
				<rect id="SVGID_1_" x="-169" y="-237.1" width="250.2" height="268.2"/>
			</defs>
			<clipPath id="SVGID_2_">
				<use xlink:href="#SVGID_1_"  overflow="visible"/>
			</clipPath>
			<g id="g14" clip-path="url(#SVGID_2_)">
				<g id="g20" transform="translate(154.5794,74.8154)">
					<path id="path22" fill="#CAC2B5" d="M-144-210.2h-109.8c-1.6,0-2.8,1.3-2.8,2.8v9c0,1.6,1.3,2.8,2.8,2.8H-144
						c1.6,0,2.8-1.3,2.8-2.8v-9C-141.2-209-142.4-210.2-144-210.2"/>
				</g>
				<g id="g24" transform="translate(181.2666,83.152)">
					<path id="path26" fill="#EFEDE1" d="M-144-210.2h-162.1c-1.6,0-2.8,1.3-2.8,2.8v125.8c0,1.6,1.3,2.8,2.8,2.8H-144
						c1.6,0,2.8-1.3,2.8-2.8v-125.8C-141.2-209-142.4-210.2-144-210.2"/>
				</g>
				<g id="g28" transform="translate(173.1577,95.2732)">
					<path id="path30" fill="#D8D5CB" d="M-144-210.2h-145.8c-0.8,0-1.4,0.6-1.4,1.4v104.3c0,0.8,0.6,1.4,1.4,1.4H-144
						c0.8,0,1.4-0.6,1.4-1.4v-104.3C-142.6-209.6-143.2-210.2-144-210.2"/>
				</g>
			</g>
		</g>
	</g>
	<g id="g32">
		<g id="g34">
			<g id="g40">
				<g id="g42">
				</g>
			</g>
		</g>
	</g>
	<g id="g62">
		<g>
			<defs>
				<rect id="SVGID_3_" x="-169" y="-237.1" width="250.2" height="268.2"/>
			</defs>
			<clipPath id="SVGID_4_">
				<use xlink:href="#SVGID_3_"  overflow="visible"/>
			</clipPath>
			<g id="g64" clip-path="url(#SVGID_4_)">
				<g id="g70" transform="translate(153.0653,103.8857)">
					<path id="path72" fill="none" stroke="#4F4C4D" stroke-width="0.25" stroke-miterlimit="10" d="M-144-210.2h-105.6
						c-7.8,0-14.2,6.4-14.2,14.2v61.6c0,7.8,6.4,14.2,14.2,14.2l105.6,0c7.8,0,14.2-6.4,14.2-14.2v-61.6
						C-129.8-203.9-136.2-210.2-144-210.2z"/>
				</g>
				<g id="g74" transform="translate(141.4103,65.884)">
					<path id="path76" fill="#E4DCCB" d="M-144-210.2h-83.5l4.5,8.9h74.5L-144-210.2z"/>
				</g>
				<path id="path78" fill="#EFEDE0" d="M15.5-152.8h-117.6v8.4H15.5V-152.8z"/>
				<g id="g80" transform="translate(191.6249,0)">
					<path id="path82" fill="#E4DCCB" d="M-144-210.2h-183.1c-4.7,0-8.5,3.8-8.5,8.5v40.5c0,4.7,3.8,8.5,8.5,8.5H-144
						c4.7,0,8.5-3.8,8.5-8.5v-40.5C-135.5-206.4-139.3-210.2-144-210.2"/>
				</g>
				<g id="g84" transform="translate(14.1035,15.3564)">
					<path id="path86" fill="#C0BA9F" d="M-144-210.2L-144-210.2c-1.2,0-2.2,1-2.2,2.2v22.3c0,1.2,1,2.2,2.2,2.2l0,0
						c1.2,0,2.2-1,2.2-2.2V-208C-141.8-209.2-142.8-210.2-144-210.2"/>
				</g>
				<g id="g88" transform="translate(22.2288,15.3564)">
					<path id="path90" fill="#C0BA9F" d="M-144-210.2L-144-210.2c-1.2,0-2.2,1-2.2,2.2v22.3c0,1.2,1,2.2,2.2,2.2l0,0
						c1.2,0,2.2-1,2.2-2.2V-208C-141.8-209.2-142.8-210.2-144-210.2"/>
				</g>
				<g id="g92" transform="translate(30.2047,15.3564)">
					<path id="path94" fill="#C0BA9F" d="M-144-210.2L-144-210.2c-1.2,0-2.2,1-2.2,2.2v22.3c0,1.2,1,2.2,2.2,2.2l0,0
						c1.2,0,2.2-1,2.2-2.2V-208C-141.8-209.2-142.8-210.2-144-210.2"/>
				</g>
				<g id="g96" transform="translate(38.3299,15.3564)">
					<path id="path98" fill="#C0BA9F" d="M-144-210.2L-144-210.2c-1.2,0-2.2,1-2.2,2.2v22.3c0,1.2,1,2.2,2.2,2.2l0,0
						c1.2,0,2.2-1,2.2-2.2V-208C-141.8-209.2-142.8-210.2-144-210.2"/>
				</g>
				<g id="g100" transform="translate(45.9274,15.3564)">
					<path id="path102" fill="#C0BA9F" d="M-144-210.2L-144-210.2c-1.2,0-2.2,1-2.2,2.2v22.3c0,1.2,1,2.2,2.2,2.2l0,0
						c1.2,0,2.2-1,2.2-2.2V-208C-141.8-209.2-142.8-210.2-144-210.2"/>
				</g>
				<g id="g104" transform="translate(54.0527,15.3564)">
					<path id="path106" fill="#C0BA9F" d="M-144-210.2L-144-210.2c-1.2,0-2.2,1-2.2,2.2v22.3c0,1.2,1,2.2,2.2,2.2l0,0
						c1.2,0,2.2-1,2.2-2.2V-208C-141.8-209.2-142.8-210.2-144-210.2"/>
				</g>
				<g id="g108" transform="translate(188.5454,8.1831)">
					<path id="path110" fill="#666870" d="M-144-210.2h-118.6c-1.6,0-2.8,1.3-2.8,2.8v35.4c0,1.6,1.3,2.8,2.8,2.8H-144
						c1.6,0,2.8-1.3,2.8-2.8v-35.4C-141.2-209-142.4-210.2-144-210.2"/>
				</g>
				<g id="g112" transform="translate(188.5454,8.1831)">
					<path id="path114" fill="none" stroke="#4F4C4D" stroke-width="0.5" stroke-miterlimit="10" d="M-144-210.2h-118.6
						c-1.6,0-2.8,1.3-2.8,2.8v35.4c0,1.6,1.3,2.8,2.8,2.8H-144c1.6,0,2.8-1.3,2.8-2.8v-35.4C-141.2-209-142.4-210.2-144-210.2z"/>
				</g>
				<g id="g116" transform="translate(122.3736,25.8304)">
					<path id="path118" fill="#201D1D" d="M-144-210.2h-48.4c-0.8,0-1.4,0.6-1.4,1.4v3c0,0.8,0.6,1.4,1.4,1.4h48.4
						c0.8,0,1.4-0.6,1.4-1.4v-3C-142.6-209.6-143.2-210.2-144-210.2"/>
				</g>
				<path id="path120" fill="#201D1D" d="M-42.7-188h-13.1v13.1h13.1V-188z"/>
				<path id="path122" fill="#525458" d="M-59.4-188h-4.6v13.1h4.6V-188z"/>
				<g id="g124" transform="translate(179.0843,25.8304)">
					<path id="path126" fill="#201D1D" d="M-144-210.2h-48.4c-0.8,0-1.4,0.6-1.4,1.4v3c0,0.8,0.6,1.4,1.4,1.4h48.4
						c0.8,0,1.4-0.6,1.4-1.4v-3C-142.6-209.6-143.2-210.2-144-210.2"/>
				</g>
				<g id="g128" transform="translate(186.9229,25.6823)">
					<path id="path130" fill="#525458" d="M-144-210.2h-3.1c-0.8,0-1.4,0.6-1.4,1.4v3.1c0,0.8,0.6,1.4,1.4,1.4h3.1
						c0.8,0,1.4-0.6,1.4-1.4v-3.1C-142.6-209.6-143.2-210.2-144-210.2"/>
				</g>
				<g id="g132" transform="translate(185.3652,31.7064)">
					<path id="path134" fill="#201D1D" d="M-144-210.2h1.6c0.8,0,1.4-0.6,1.4-1.4v-3.1c0-0.8-0.6-1.4-1.4-1.4l-1.6-0.1"/>
				</g>
				<path id="path136" fill="#CAC2B5" d="M44.3-199.6h-5.9v5.9h5.9V-199.6z"/>
				<path id="path138" fill="#1F70C1" d="M43.8-198.9h-1.8v1.8h1.8V-198.9z"/>
				<g id="g140" transform="translate(132.3629,179.347)">
				</g>
				<g id="g144" transform="translate(108.7874,167.3632)">
				</g>
				<g id="g148" transform="translate(69.5992,167.0285)">
				</g>
				<g id="g152" transform="translate(78.3179,168.7893)">
				</g>
				<g id="g156" transform="translate(86.0433,166.3922)">
				</g>
				<g id="g160" transform="translate(107.5141,166.7087)">
				</g>
				<g id="g164" transform="translate(97.1408,169.1656)">
				</g>
				<g id="g168" transform="translate(122.6267,172.8758)">
				</g>
				<g id="g172" transform="translate(115.2826,181.509)">
				</g>
				<g id="g176" transform="translate(132.0248,112.6395)">
				</g>
				<g id="g180" transform="translate(160.0988,154.7744)">
				</g>
				<g id="g184" transform="translate(160.0988,147.9837)">
				</g>
				<g id="g188" transform="translate(160.0988,138.6012)">
				</g>
				<g id="g192" transform="translate(160.0988,132.3502)">
				</g>
				<g id="g196" transform="translate(160.0988,125.9397)">
				</g>
				<g id="g200" transform="translate(160.0988,116.9105)">
				</g>
				<g id="g208" transform="translate(130.8616,146.646)">
				</g>
			</g>
		</g>
	</g>
</g>
<path id="path3272" inkscape:connector-curvature="0" fill="#FFFFFF" d="M-122.8,400.7c-7.1-0.9-13-6.1-14.8-13.1
	c-0.6-2.2-0.6-3.4-0.6-42.4c0-44.6-0.1-42.4,2-46.5c1.5-2.9,4.5-6,7.3-7.5c4.2-2.1-2-2,74.2-2c57.3,0,68.9,0.1,70.1,0.4
	c6.2,1.6,10.9,6.4,12.7,12.6c0.5,1.8,0.5,4.1,0.5,42.8c0,38.1,0,41-0.5,42.7c-1.7,6.1-6.3,10.8-12.5,12.6c-1.6,0.5-5.6,0.5-69.2,0.6
	C-90.5,400.9-121.7,400.8-122.8,400.7L-122.8,400.7L-122.8,400.7z"/>
<path id="path3488" inkscape:connector-curvature="0" fill="#1F70C1" d="M-128.5,315.5v4h28.7v-4H-128.5z M-95.7,315.5v4h40.9
	c0,0-4.2-4-9.7-4H-95.7z M-46.7,315.5v4h24.8l-1.5-4H-46.7z M-4.2,315.5l-1.5,4h24.5v-4H-4.2z M-128.5,323.3v4h28.7v-4H-128.5z
	 M-95.7,323.3v4H-50c0,0-0.5-3.1-1.5-4H-95.7z M-46.7,323.3v4h27.5l-1.4-4H-46.7z M-7.1,323.3l-1.4,4h27.4v-4L-7.1,323.3L-7.1,323.3
	z M-120.2,331.2v4h12.4v-4H-120.2z M-87.4,331.2v4H-75v-4H-87.4z M-62.9,331.2v4h12.4c0,0,0.8-2.1,0.8-4H-62.9z M-38.5,331.2v4h22.1
	l-1.5-4H-38.5z M-9.8,331.2l-1.5,4h22.2v-4H-9.8z M-120.2,339v4h12.4v-4H-120.2z M-87.4,339v4h31.8c0,0,2.7-2.1,3.5-4H-87.4z
	 M-38.5,339v4H-26v-2.2l0.8,2.2h22.8l0.8-2.2v2.2h12.4v-4h-23.4l-1.2,3.4L-15,339H-38.5z M-120.2,346.9v4h12.4v-4H-120.2z
	 M-87.4,346.9v4h35.3c-0.8-2-3.5-4-3.5-4H-87.4z M-38.5,346.9v4H-26v-4H-38.5z M-23.8,346.9l1.5,4h17.1l1.4-4H-23.8L-23.8,346.9z
	 M-1.6,346.9v4h12.4v-4H-1.6z M-120.2,354.8v4h12.4v-4H-120.2z M-87.4,354.8v4H-75v-4H-87.4z M-62.9,354.8v4h13.2c0-1.9-0.8-4-0.8-4
	H-62.9z M-38.5,354.8v4H-26v-4H-38.5z M-20.9,354.8l1.5,4H-8l1.5-4H-20.9z M-1.6,354.8v4h12.4v-4H-1.6z M-128.3,362.6v4h28.7v-4
	H-128.3z M-95.7,362.6v4h44.2c0.9-0.9,1.5-4,1.5-4H-95.7z M-46.5,362.6v4H-26v-4H-46.5z M-18.1,362.6l1.5,4h5.8l1.4-4H-18.1
	L-18.1,362.6z M-1.6,362.6v4h20.7v-4H-1.6z M-128.3,370.5v4h28.7v-4H-128.3z M-95.7,370.5v4h31.2c5.5,0,9.7-4,9.7-4H-95.7z
	 M-46.5,370.5v4H-26v-4H-46.5z M-15.3,370.5l1.4,4l0.2,0l1.5-4L-15.3,370.5L-15.3,370.5L-15.3,370.5z M-1.6,370.5v4h20.7v-4H-1.6z"
	/>
</svg>
