<?xml version="1.0" encoding="utf-8"?>
<!-- Generator: Adobe Illustrator 19.0.0, SVG Export Plug-In . SVG Version: 6.00 Build 0)  -->
<svg version="1.1"
	 id="svg2" xmlns:cc="http://creativecommons.org/ns#" xmlns:sodipodi="http://sodipodi.sourceforge.net/DTD/sodipodi-0.dtd" xmlns:svg="http://www.w3.org/2000/svg" xmlns:dc="http://purl.org/dc/elements/1.1/" xmlns:rdf="http://www.w3.org/1999/02/22-rdf-syntax-ns#" xmlns:inkscape="http://www.inkscape.org/namespaces/inkscape" sodipodi:docname="controller.svg" inkscape:version="0.48.4 r9939"
	 xmlns="http://www.w3.org/2000/svg" xmlns:xlink="http://www.w3.org/1999/xlink" x="0px" y="0px" viewBox="-194 147.4 221.6 498.6"
	 enable-background="new -194 147.4 221.6 498.6" xml:space="preserve">
<sodipodi:namedview  inkscape:cy="249.28813" inkscape:cx="110.79188" borderopacity="1" pagecolor="#ffffff" gridtolerance="10" objecttolerance="10" bordercolor="#666666" id="namedview3243" guidetolerance="10" inkscape:zoom="1.8231915" showgrid="false" inkscape:window-y="24" inkscape:pageopacity="0" inkscape:window-x="65" inkscape:window-height="1056" inkscape:window-width="1855" inkscape:pageshadow="2" inkscape:current-layer="svg2" inkscape:window-maximized="1">
	</sodipodi:namedview>
<g id="g10" transform="matrix(1.25,0,0,-1.25,0,498.57625)">
	<g id="g12">
		<g>
			<defs>
				<rect id="SVGID_1_" x="-177.4" y="-167.8" width="221.6" height="498.6"/>
			</defs>
			<clipPath id="SVGID_2_">
				<use xlink:href="#SVGID_1_"  overflow="visible"/>
			</clipPath>
			<g id="g14" clip-path="url(#SVGID_2_)">
				<g id="g20" transform="translate(65.739,62.8189)">
					<path id="path22" fill="#666870" d="M-155.2-117.9c5.2,0,10.4,0,15.6,0c1.7,0,1.8-0.2,1.1-1.7c-2.7-5.4-4.7-11-5.8-16.9
						c-1.3-6.6-1.5-13.3-0.8-20c0.9-7.9,3.2-15.4,6.8-22.5c0.6-1.2,0.3-1.6-1-1.6c-10.3,0-20.5-0.2-30.8,0
						c-11.9,0.3-21.8,8.6-24.6,20c-0.4,1.8-0.7,3.7-0.7,5.6c0.1,3.7,0,7.4,0,11.1c0,11.6,7.5,21.7,18.6,24.9
						c2.3,0.7,4.7,1.1,7.1,1.1C-164.9-117.9-160-117.9-155.2-117.9"/>
				</g>
				<g id="g24" transform="translate(97.4094,36.5225)">
					<path id="path26" fill="#D8D5CB" d="M-155.2-117.9c-2.4,0-4.8-0.1-7.3,0c-2.2,0.1-3.8-0.9-4.7-2.8c-0.5-1-1.2-1.4-2.3-1.3
						c-1.3,0.1-2.6,0.1-4,0c-1.2-0.1-1.7,0.4-1.7,1.7c0.1,5.2,1.1,10.3,2.5,15.3c1.2,4.2,3,8.2,5,12.1c0.4,0.7,0.8,1.2,1.6,1.3
						c4.4,0.1,8.8,0.2,13-1.3c9-3.3,14.8-9.6,17.2-18.9c0.7-2.6,0.9-5.4,0.7-8.2c-0.1-1.1,0.3-1.5,1.4-1.5c1.6,0,3.3-0.1,4.9,0
						c4.1,0.1,7.5-1.4,10.3-4.3c2.3-2.4,5.1-3.4,8.4-3.4c1.7,0,3.5,0,5.2,0c1.1,0,1.4-0.5,1.4-1.5c0-1-0.2-1.6-1.4-1.6
						c-2.6,0.1-5.2-0.2-7.8,0.2c-3.1,0.4-5.7,1.9-7.9,4.1c-2.3,2.4-5.1,3.5-8.3,3.4c-1.5,0-3-0.1-4.5,0c-1.3,0.1-1.8-0.4-1.7-1.7
						c0.2-4.2-0.3-8.2-2.1-12c-4-8.9-10.9-14.3-20.6-15.8c-2.6-0.4-5.3-0.2-7.9-0.3c-0.9,0-1.4,0.4-1.8,1.2
						c-3.7,7-6.2,14.3-7.1,22.1c-0.2,1.9-0.5,3.7-0.5,5.6c0,1.1,0.5,1.6,1.6,1.5c1.5,0,3,0,4.5,0c0.8,0,1.4-0.3,1.7-1
						c1-2.2,2.7-3.1,5.1-3.1c4.7,0.1,9.4,0,14.1,0c2.3,0,4,0.9,4.9,3c0.4,0.8,1,1.2,1.8,1.1c1.5,0,2.9,0,4.4,0c0.6,0,1.2,0,1.3,0.9
						c0,0.9-0.5,1-1.3,1c-1.5,0-2.9,0-4.4,0c-0.8,0-1.3,0.3-1.7,1.1c-1.1,2.1-2.7,3.2-5.2,3.1C-150.5-118-152.9-117.9-155.2-117.9"
						/>
				</g>
				<g id="g28" transform="translate(100.3676,28.2979)">
					<path id="path30" fill="#666870" d="M-155.2-117.9c-1.3,0-2.6,0-4,0c-2,0.1-3.5,1.5-3.4,3.2c0.1,1.7,1.6,3.1,3.5,3.1
						c2.6,0,5.3,0,7.9,0c2.1,0,3.4-1.2,3.5-3.1c0-1.7-1.5-3.1-3.4-3.2C-152.5-118-153.8-117.9-155.2-117.9"/>
				</g>
				<g id="g32" transform="translate(100.3676,28.2979)">
					<path id="path34" fill="none" stroke="#4F4C4D" stroke-width="0.5" stroke-miterlimit="10" d="M-155.2-117.9c-1.3,0-2.6,0-4,0
						c-2,0.1-3.5,1.5-3.4,3.2c0.1,1.7,1.6,3.1,3.5,3.1c2.6,0,5.3,0,7.9,0c2.1,0,3.4-1.2,3.5-3.1c0-1.7-1.5-3.1-3.4-3.2
						C-152.5-118-153.8-117.9-155.2-117.9z"/>
				</g>
				<g id="g36" transform="translate(108.413,398.8612)">
					<path id="path38" fill="#D8D5CB" d="M-155.2-117.9h23.3c7.8,0,14.2-6.4,14.2-14.2V-415c0-7.8-6.4-14.2-14.2-14.2h-23.3"/>
				</g>
				<g id="g40" transform="translate(37.4294,87.6082)">
					<path id="path42" fill="#CAC2B5" d="M-155.2-117.9h-23.3c-7.8,0-14.2,6.4-14.2,14.2v282.9c0,7.8,6.4,14.2,14.2,14.2h23.3"/>
				</g>
				<g id="g44" transform="translate(11.1573,101.7814)">
					<path id="path46" fill="#EFEDE1" d="M-155.2-117.9V165c0,7.8,6.4,14.2,14.2,14.2h95.6c7.8,0,14.2-6.4,14.2-14.2l0-282.9
						c0-7.8-6.4-14.2-14.2-14.2H-141C-148.8-132.1-155.2-125.7-155.2-117.9"/>
				</g>
				<path id="path48" fill="#C0BA9F" d="M-41.6,261h10v-15.3h-10V261z"/>
				<path id="path50" fill="#C0BA9F" d="M-41.6,240.1h10v-15.3h-10V240.1z"/>
				<path id="path52" fill="#666870" d="M-41.6,219.6h10v-15.3h-10V219.6z"/>
				<path id="path54" fill="#666870" d="M-41.6,198.5h10v-15.3h-10V198.5z"/>
				<path id="path56" fill="#666870" d="M-41.6,177.3h10V162h-10V177.3z"/>
				<path id="path58" fill="#666870" d="M-41.6,156.6h10v-15.3h-10V156.6z"/>
				<path id="path60" fill="#C0BA9F" d="M-41.6,135.8h10v-15.3h-10V135.8z"/>
				<path id="path62" fill="#C0BA9F" d="M-41.6,114.7h10V99.4h-10V114.7z"/>
				<path id="path64" fill="#C0BA9F" d="M-41.6,93.9h10V78.6h-10V93.9z"/>
				<path id="path66" fill="#CAC2B5" d="M-67.9,261h15.3v-15.3h-15.3V261z"/>
				<path id="path68" fill="#CAC2B5" d="M-89.1,261h15.3v-15.3h-15.3L-89.1,261z"/>
				<path id="path70" fill="#C0BA9F" d="M-67.9,240.1h15.3v-15.3h-15.3V240.1z"/>
				<path id="path72" fill="#C0BA9F" d="M-67.9,219.6h15.3v-15.3h-15.3V219.6z"/>
				<path id="path74" fill="#C0BA9F" d="M-67.9,198.5h15.3v-15.3h-15.3V198.5z"/>
				<path id="path76" fill="#C0BA9F" d="M-67.9,177.3h15.3V162h-15.3V177.3z"/>
				<path id="path78" fill="#C0BA9F" d="M-67.9,156.6h15.3v-15.3h-15.3V156.6z"/>
				<path id="path80" fill="#C0BA9F" d="M-67.9,135.8h15.3v-15.3h-15.3V135.8z"/>
				<path id="path82" fill="#C0BA9F" d="M-67.9,114.7h15.3V99.4h-15.3V114.7z"/>
				<path id="path84" fill="#C0BA9F" d="M-89.1,240.1h15.3v-15.3h-15.3L-89.1,240.1z"/>
				<path id="path86" fill="#C0BA9F" d="M-89.1,219.6h15.3v-15.3h-15.3L-89.1,219.6z"/>
				<path id="path88" fill="#C0BA9F" d="M-89.1,198.5h15.3v-15.3h-15.3L-89.1,198.5z"/>
				<path id="path90" fill="#C0BA9F" d="M-89.1,177.3h15.3V162h-15.3L-89.1,177.3z"/>
				<path id="path92" fill="#C0BA9F" d="M-89.1,156.6h15.3v-15.3h-15.3L-89.1,156.6z"/>
				<path id="path94" fill="#C0BA9F" d="M-89.1,135.8h15.3v-15.3h-15.3L-89.1,135.8z"/>
				<path id="path96" fill="#C0BA9F" d="M-109.9,219.6h15.3v-15.3h-15.3V219.6z"/>
				<path id="path98" fill="#C0BA9F" d="M-109.9,198.5h15.3v-15.3h-15.3V198.5z"/>
				<path id="path100" fill="#C0BA9F" d="M-109.9,177.3h15.3V162h-15.3V177.3z"/>
				<path id="path102" fill="#C0BA9F" d="M-109.9,156.6h15.3v-15.3h-15.3V156.6z"/>
				<path id="path104" fill="#C0BA9F" d="M-109.9,135.8h15.3v-15.3h-15.3V135.8z"/>
				<path id="path106" fill="#C0BA9F" d="M-131,261h15.3v-15.3H-131V261z"/>
				<path id="path108" fill="#C0BA9F" d="M-131,114.7h15.3V99.4H-131V114.7z"/>
				<path id="path110" fill="#C0BA9F" d="M-131,93.9h15.3V78.6H-131V93.9z"/>
				<path id="path112" fill="#C0BA9F" d="M-131,70.1h15.3V54.8H-131V70.1z"/>
				<path id="path114" fill="#C0BA9F" d="M-131,49h15.3V33.7H-131V49z"/>
				<path id="path116" fill="#C0BA9F" d="M-109.9,49h15.3V33.7h-15.3V49z"/>
				<path id="path118" fill="#CAC2B5" d="M-109.9,7.4h15.3V-7.9h-15.3V7.4z"/>
				<path id="path120" fill="#C0BA9F" d="M-131,27.9h15.3V12.6H-131V27.9z"/>
				<path id="path122" fill="#CAC2B5" d="M-131,7.4h15.3V-7.9H-131V7.4z"/>
				<path id="path124" fill="#CAC2B5" d="M-89.1,7.4h15.3V-7.9h-15.3L-89.1,7.4z"/>
				<path id="path126" fill="#666870" d="M-67.9,7.4h15.3V-7.9h-15.3V7.4z"/>
				<path id="path128" fill="#666870" d="M-67.9,27.9h15.3V12.6h-15.3V27.9z"/>
				<path id="path130" fill="#666870" d="M-67.9,49h15.3V33.7h-15.3V49z"/>
				<path id="path132" fill="#666870" d="M-67.9,70.1h15.3V54.8h-15.3V70.1z"/>
				<path id="path134" fill="#CAC2B5" d="M-109.9,261h15.3v-36.2h-15.3V261z"/>
				<path id="path136" fill="#CAC2B5" d="M-109.9,114.7h15.3V78.4h-15.3V114.7z"/>
				<path id="path138" fill="#666870" d="M-89.1,114.7h15.3V78.4h-15.3L-89.1,114.7z"/>
				<path id="path140" fill="#666870" d="M-88.9,93.7h36.2V78.4h-36.2L-88.9,93.7z"/>
				<path id="path142" fill="#666870" d="M-131,240.1h15.3V120.5H-131V240.1z"/>
				<g id="g144" transform="translate(118.5821,141.45)">
					<path id="path146" fill="#666870" d="M-155.2-117.9c-4.3,0-7.7,3.5-7.7,7.7c0,4.3,3.5,7.7,7.7,7.7s7.7-3.5,7.7-7.7
						C-147.5-114.5-150.9-117.9-155.2-117.9"/>
				</g>
				<g id="g148" transform="translate(118.6046,120.702)">
					<path id="path150" fill="#1F70C1" d="M-155.2-117.9c-4.3,0-7.7,3.5-7.7,7.7s3.5,7.7,7.7,7.7s7.7-3.5,7.7-7.7
						C-147.5-114.5-150.9-117.9-155.2-117.9"/>
				</g>
				<g id="g152" transform="translate(145.8423,255.367)">
					<path id="path154" fill="#D8D5CB" d="M-155.2-117.9c7,0.2,7.6-1.9,12.4-6.8c4-4.1,8.9-5.8,14.4-5.9c3,0-0.9-0.1,2.1,0
						c1.9,0,2.4-0.9,2.4-2.6c0-1.7-0.4-2.8-2.3-2.7c-4.5,0.2-2.1-0.3-6.6,0.3c-5.3,0.8-9.9,3.2-13.6,7c-4,4.1-3.3,5-8.9,4.9"/>
				</g>
			</g>
		</g>
	</g>
</g>
</svg>
