<?xml version="1.0" encoding="utf-8"?>
<!-- Generator: Adobe Illustrator 19.0.0, SVG Export Plug-In . SVG Version: 6.00 Build 0)  -->
<svg version="1.1" baseProfile="tiny"
	 id="svg2" xmlns:cc="http://creativecommons.org/ns#" xmlns:sodipodi="http://sodipodi.sourceforge.net/DTD/sodipodi-0.dtd" xmlns:svg="http://www.w3.org/2000/svg" xmlns:dc="http://purl.org/dc/elements/1.1/" xmlns:rdf="http://www.w3.org/1999/02/22-rdf-syntax-ns#" xmlns:inkscape="http://www.inkscape.org/namespaces/inkscape" sodipodi:docname="game.svg" inkscape:version="0.48.4 r9939"
	 xmlns="http://www.w3.org/2000/svg" xmlns:xlink="http://www.w3.org/1999/xlink" x="0px" y="0px" viewBox="-197 290 215 215"
	 xml:space="preserve">
<sodipodi:namedview  inkscape:cy="107.5125" inkscape:cx="69.546038" borderopacity="1" pagecolor="#ffffff" gridtolerance="10" objecttolerance="10" bordercolor="#666666" id="namedview3175" guidetolerance="10" inkscape:zoom="4.2274155" showgrid="false" inkscape:window-y="24" inkscape:pageopacity="0" inkscape:window-x="65" inkscape:window-height="1056" inkscape:window-width="1855" inkscape:pageshadow="2" inkscape:current-layer="svg2" inkscape:window-maximized="1">
	</sodipodi:namedview>
<rect x="-197" y="290" fill="none" width="215" height="215"/>
<g>
	<g id="g14">
		<g id="g20" transform="translate(172.0199,86.0099)">
			<path fill="#231F20" d="M-261.5,204c-59.4,0-107.5,48.1-107.5,107.5S-320.9,419-261.5,419S-154,370.9-154,311.5
				S-202.1,204-261.5,204z M-261.7,326.4c-8.8,0-15.4-7.2-15.8-15.8c-0.4-8.5,7.5-15.8,15.8-15.8c8.8,0,15.4,7.2,15.8,15.8
				C-245.6,319.1-253.4,326.4-261.7,326.4z"/>
		</g>
		<g id="g24" transform="translate(150.1937,36.812)">
			<path id="path26" fill="#FFFFFF" d="M-159.5,422.2c-18.5,24.1-47.5,39.6-80.2,39.6s-61.8-15.5-80.2-39.6
				c-13.1-17-20.9-38.4-20.9-61.5c0-55.9,45.3-101.1,101.1-101.1c55.9,0,101.1,45.2,101.1,101.1
				C-138.6,383.8-146.4,405.1-159.5,422.2L-159.5,422.2z M-239.7,254.9c-58.4,0-105.7,47.3-105.7,105.7s47.4,105.7,105.7,105.7
				c58.4,0,105.7-47.3,105.7-105.7S-181.3,254.9-239.7,254.9"/>
		</g>
		<g id="g32" transform="translate(86.0001,59.9826)">
			<path id="path34" fill="#6E6F71" d="M-175.5,370c-18,0-32.5-14.6-32.5-32.5s14.6-32.5,32.5-32.5s32.5,14.6,32.5,32.5
				S-157.5,370-175.5,370 M-255.7,399h160.5c13.1-17,20.9-38.4,20.9-61.5c0-55.9-45.3-101.1-101.1-101.1
				c-55.8,0-101.1,45.2-101.1,101.1C-276.6,360.6-268.8,382-255.7,399"/>
		</g>
		<g id="g36" transform="translate(86.0001,61.9003)">
			<path id="path38" fill="#1F70C1" d="M-175.5,365.7c-16.7,0-30.2-13.5-30.2-30.1s13.5-30.1,30.2-30.1s30.2,13.5,30.2,30.1
				S-158.8,365.7-175.5,365.7 M-175.5,303c-18,0-32.5,14.6-32.5,32.5c0,18,14.6,32.5,32.5,32.5s32.5-14.6,32.5-32.5
				C-143,317.6-157.5,303-175.5,303"/>
		</g>
		<g id="g40" transform="translate(86.0001,63.4424)">
			<path id="path42" fill="#918F90" d="M-175.5,362.3c-15.6,0-28.2-12.7-28.2-28.2c0-15.6,12.6-28.2,28.2-28.2
				c15.6,0,28.2,12.6,28.2,28.2C-147.3,349.6-159.9,362.3-175.5,362.3 M-175.5,303.9c-16.7,0-30.2,13.5-30.2,30.1
				s13.5,30.1,30.2,30.1s30.2-13.5,30.2-30.1S-158.8,303.9-175.5,303.9"/>
		</g>
		<g id="g44" transform="translate(86.0001,74.1182)">
			<path fill="#4F4C4D" d="M-175.5,295.2c-15.6,0-28.2,12.6-28.2,28.2c0,15.6,12.6,28.2,28.2,28.2c15.6,0,28.2-12.7,28.2-28.2
				C-147.3,307.8-159.9,295.2-175.5,295.2z M-173.4,338.1c-0.7,0.1-1.5,0.2-2.2,0.2c-8.8,0-15.4-7.2-15.8-15.8
				c-0.2-4.7,2.1-9,5.6-11.9c2.8-2.4,6.4-3.9,10.3-3.9c8.7,0,15.8,7.1,15.8,15.8C-159.7,330.5-165.7,337.1-173.4,338.1z"/>
		</g>
		<g id="g48" transform="translate(86.0001,74.1182)">
			<path fill="none" stroke="#353132" stroke-width="1.977" stroke-miterlimit="10" d="M-175.5,295.2c-15.6,0-28.2,12.6-28.2,28.2
				c0,15.6,12.6,28.2,28.2,28.2c15.6,0,28.2-12.7,28.2-28.2C-147.3,307.8-159.9,295.2-175.5,295.2z M-173.4,338.1
				c-0.7,0.1-1.5,0.2-2.2,0.2c-8.8,0-15.4-7.2-15.8-15.8c-0.2-4.7,2.1-9,5.6-11.9c2.8-2.4,6.4-3.9,10.3-3.9
				c8.7,0,15.8,7.1,15.8,15.8C-159.7,330.5-165.7,337.1-173.4,338.1z"/>
		</g>
		<g id="g52" transform="translate(120.2069,46.6753)">
		</g>
		<g id="g56" transform="translate(96.6313,34.6915)">
		</g>
		<g id="g60" transform="translate(57.4432,34.3568)">
		</g>
		<g id="g64" transform="translate(66.1619,36.1176)">
		</g>
		<g id="g68" transform="translate(73.8872,33.7205)">
		</g>
		<g id="g72" transform="translate(95.358,34.037)">
		</g>
		<g id="g76" transform="translate(84.9848,36.4939)">
		</g>
		<g id="g80" transform="translate(110.4707,40.2041)">
		</g>
		<g id="g84" transform="translate(103.1266,48.8373)">
		</g>
	</g>
	<path id="path4059" inkscape:connector-curvature="0" fill="#1F70C1" d="M-122.2,462.4v1.8h12.7v-1.8H-122.2z M-107.7,462.4v1.8
		h18.2c0,0-1.9-1.8-4.3-1.8H-107.7z M-86,462.4v1.8h11l-0.7-1.8H-86z M-67.1,462.4l-0.7,1.8h10.9v-1.8H-67.1L-67.1,462.4z
		 M-122.2,465.9v1.8h12.7v-1.8H-122.2z M-107.7,465.9v1.8h20.3c0,0-0.2-1.4-0.6-1.8H-107.7z M-86,465.9v1.8h12.2l-0.6-1.8L-86,465.9
		L-86,465.9z M-68.4,465.9l-0.6,1.8h12.1v-1.8L-68.4,465.9L-68.4,465.9z M-118.6,469.4v1.8h5.5v-1.8H-118.6z M-104,469.4v1.8h5.5
		v-1.8H-104z M-93.1,469.4v1.8h5.5c0,0,0.4-0.9,0.4-1.8H-93.1z M-82.3,469.4v1.8h9.8l-0.7-1.8H-82.3z M-69.6,469.4l-0.7,1.8h9.8
		v-1.8H-69.6z M-118.6,472.9v1.8h5.5v-1.8H-118.6z M-104,472.9v1.8h14.1c0,0,1.2-0.9,1.6-1.8H-104L-104,472.9z M-82.3,472.9v1.8h5.5
		v-1l0.4,1h10.1l0.4-1v1h5.5v-1.8h-10.4l-0.5,1.5l-0.6-1.5H-82.3L-82.3,472.9z M-118.6,476.4v1.8h5.5v-1.8H-118.6z M-104,476.4v1.8
		h15.6c-0.4-0.9-1.6-1.8-1.6-1.8H-104L-104,476.4z M-82.3,476.4v1.8h5.5v-1.8H-82.3z M-75.8,476.4l0.7,1.8h7.6l0.6-1.8H-75.8z
		 M-66,476.4v1.8h5.5v-1.8H-66z M-118.6,479.9v1.8h5.5v-1.8H-118.6z M-104,479.9v1.8h5.5v-1.8H-104z M-93.1,479.9v1.8h5.9
		c0-0.8-0.4-1.8-0.4-1.8H-93.1z M-82.3,479.9v1.8h5.5v-1.8H-82.3z M-74.5,479.9l0.6,1.8h5.1l0.7-1.8H-74.5z M-66,479.9v1.8h5.5v-1.8
		H-66z M-122.1,483.4v1.8h12.7v-1.8H-122.1L-122.1,483.4z M-107.7,483.4v1.8h19.6c0.4-0.4,0.6-1.8,0.6-1.8H-107.7L-107.7,483.4z
		 M-85.9,483.4v1.8h9.1v-1.8H-85.9z M-73.3,483.4l0.7,1.8h2.6l0.6-1.8H-73.3z M-66,483.4v1.8h9.2v-1.8H-66z M-122.1,486.8v1.8h12.7
		v-1.8H-122.1L-122.1,486.8z M-107.7,486.8v1.8h13.8c2.5,0,4.3-1.8,4.3-1.8H-107.7L-107.7,486.8z M-85.9,486.8v1.8h9.1v-1.8H-85.9z
		 M-72,486.8l0.6,1.8l0.1,0l0.6-1.8L-72,486.8L-72,486.8L-72,486.8z M-66,486.8v1.8h9.2v-1.8H-66L-66,486.8z"/>
</g>
</svg>
