<?xml version="1.0" encoding="UTF-8" standalone="no"?>
<svg
   xmlns:dc="http://purl.org/dc/elements/1.1/"
   xmlns:cc="http://creativecommons.org/ns#"
   xmlns:rdf="http://www.w3.org/1999/02/22-rdf-syntax-ns#"
   xmlns:svg="http://www.w3.org/2000/svg"
   xmlns="http://www.w3.org/2000/svg"
   viewBox="0 0 518.81372 123.595"
   height="123.595"
   width="518.81372"
   xml:space="preserve"
   version="1.1"
   id="svg2"><metadata
     id="metadata8"><rdf:RDF><cc:Work
         rdf:about=""><dc:format>image/svg+xml</dc:format><dc:type
           rdf:resource="http://purl.org/dc/dcmitype/StillImage" /><dc:title></dc:title></cc:Work></rdf:RDF></metadata><defs
     id="defs6"><clipPath
       id="clipPath16"
       clipPathUnits="userSpaceOnUse"><path
         id="path18"
         d="m 0,98.876 415.051,0 L 415.051,0 0,0 0,98.876 Z" /></clipPath></defs><g
     transform="matrix(1.25,0,0,-1.25,0,123.595)"
     id="g10"><g
       id="g12"><g
         clip-path="url(#clipPath16)"
         id="g14"><g
           transform="translate(325.4809,27.8692)"
           id="g20"><path
             id="path22"
             style="fill:#000000;fill-opacity:1;fill-rule:nonzero;stroke:none"
             d="m 0,0 0.169,0 c 0.193,0 0.35,0.069 0.35,0.251 0,0.129 -0.097,0.257 -0.35,0.257 C 0.084,0.508 0.036,0.503 0,0.496 L 0,0 Z m 0,-0.816 -0.241,0 0,1.471 C -0.121,0.672 0,0.69 0.181,0.69 0.398,0.69 0.543,0.643 0.639,0.579 0.724,0.514 0.772,0.415 0.772,0.274 0.772,0.08 0.639,-0.035 0.483,-0.083 l 0,-0.011 C 0.615,-0.117 0.7,-0.235 0.724,-0.451 0.76,-0.68 0.796,-0.77 0.82,-0.816 l -0.241,0 C 0.543,-0.77 0.507,-0.635 0.471,-0.442 0.434,-0.253 0.35,-0.185 0.157,-0.185 l -0.157,0 0,-0.631 z m 0.241,1.88 c -0.579,0 -1.049,-0.496 -1.049,-1.112 0,-0.628 0.47,-1.119 1.049,-1.119 0.591,-0.006 1.062,0.491 1.062,1.113 0,0.622 -0.471,1.118 -1.062,1.118 m 0,0.208 c 0.724,0 1.303,-0.587 1.303,-1.32 0,-0.745 -0.579,-1.323 -1.303,-1.323 -0.724,0 -1.303,0.578 -1.303,1.323 0,0.733 0.579,1.32 1.303,1.32 m -6.237,-10.368 0,5.86 -1.906,-3.815 -1.327,0 -1.93,3.815 0,-5.86 -1.967,0 0,10.058 1.943,0 2.617,-5.437 2.606,5.437 1.943,0 0,-10.058 -1.979,0 z m -15.025,7.091 -1.271,-3.653 2.5,0 -1.229,3.653 z m 2.343,-7.091 -0.591,1.782 -3.574,0 -0.608,-1.782 -2.048,0 3.659,10.058 1.538,0 3.678,-10.058 -2.054,0 z m -16.806,0 0,10.058 6.63,0 0,-1.746 -4.659,0 0,-2.373 3.968,0 0,-1.745 -3.968,0 0,-2.448 4.659,0 0,-1.746 -6.63,0 z m -6.765,8.312 0,-8.313 -1.966,0 0,8.313 -2.628,0 0,1.745 7.222,0 0,-1.745 -2.628,0 z m -8.43,-7.592 c -0.697,-0.543 -1.588,-0.813 -2.682,-0.813 -0.789,0 -1.479,0.1 -2.069,0.304 -0.586,0.202 -1.122,0.541 -1.602,1.021 l 1.273,1.269 c 0.299,-0.3 0.654,-0.518 1.065,-0.649 0.41,-0.134 0.864,-0.2 1.363,-0.2 1.185,0 1.78,0.418 1.78,1.248 0,0.351 -0.091,0.624 -0.269,0.818 -0.179,0.193 -0.49,0.321 -0.934,0.389 l -0.566,0.087 -0.65,0.082 c -0.859,0.124 -1.512,0.4 -1.955,0.833 -0.481,0.479 -0.721,1.139 -0.721,1.975 0,0.912 0.316,1.65 0.946,2.207 0.632,0.561 1.484,0.84 2.561,0.84 0.702,0 1.315,-0.089 1.833,-0.275 0.52,-0.185 0.99,-0.484 1.411,-0.898 l -1.241,-1.227 c -0.285,0.271 -0.596,0.455 -0.939,0.549 -0.344,0.093 -0.715,0.142 -1.123,0.142 -0.5,0 -0.883,-0.119 -1.151,-0.359 -0.269,-0.24 -0.403,-0.542 -0.403,-0.909 0,-0.263 0.104,-0.502 0.31,-0.709 0.209,-0.211 0.514,-0.346 0.919,-0.403 l 0.606,-0.083 0.582,-0.086 c 0.451,-0.066 0.828,-0.162 1.135,-0.284 0.306,-0.119 0.568,-0.287 0.784,-0.494 0.519,-0.489 0.777,-1.201 0.777,-2.136 0,-0.951 -0.349,-1.696 -1.04,-2.239" /></g><g
           transform="translate(262.4153,23.8423)"
           id="g24"><path
             id="path26"
             style="fill:#000000;fill-opacity:1;fill-rule:nonzero;stroke:none"
             d="m 0,0 c -1.058,0.286 -1.685,1.376 -1.398,2.435 0.286,1.059 1.377,1.686 2.435,1.4 C 2.096,3.549 2.723,2.458 2.436,1.399 2.15,0.34 1.059,-0.286 0,0 m -0.177,-0.639 c -1.407,0.38 -2.243,1.836 -1.862,3.243 0.38,1.407 1.835,2.243 3.242,1.863 C 2.61,4.086 3.446,2.631 3.066,1.224 2.686,-0.183 1.23,-1.019 -0.177,-0.639 m -5.694,-3.505 c -0.755,-0.974 -2.161,-1.154 -3.136,-0.399 -0.45,0.348 -0.729,0.838 -0.825,1.358 l 1.107,-0.853 c 0.72,-0.557 1.754,-0.424 2.309,0.294 0.557,0.718 0.425,1.752 -0.294,2.308 l -1.145,0.882 c 0.548,0.054 1.116,-0.092 1.585,-0.454 0.473,-0.366 0.774,-0.894 0.849,-1.485 0.075,-0.593 -0.085,-1.18 -0.45,-1.651 M -22.684,5.968 c -0.734,0.568 -1.017,1.507 -0.789,2.353 0.075,0.277 0.204,0.542 0.39,0.781 0.754,0.976 2.161,1.155 3.135,0.401 0.46,-0.356 0.739,-0.855 0.831,-1.387 l -1.134,0.873 c -0.718,0.556 -1.751,0.424 -2.308,-0.294 -0.556,-0.719 -0.424,-1.754 0.294,-2.31 l 1.137,-0.875 c -0.56,-0.048 -1.109,0.111 -1.556,0.458 M 1.549,5.745 C -0.564,6.317 -2.747,5.063 -3.318,2.95 -3.323,2.933 -3.327,2.916 -3.331,2.9 L -6.766,-0.012 C -7.162,0.114 -7.582,0.152 -8.004,0.099 -8.191,0.076 -8.37,0.034 -8.544,-0.023 l -9.881,7.605 c 0.047,0.917 -0.338,1.841 -1.117,2.445 -1.264,0.977 -3.087,0.745 -4.066,-0.519 -0.977,-1.263 -0.745,-3.086 0.519,-4.064 0.611,-0.473 1.371,-0.68 2.139,-0.583 0.177,0.022 0.349,0.063 0.516,0.115 l 9.903,-7.623 c -0.04,-0.909 0.346,-1.822 1.119,-2.419 1.263,-0.979 3.087,-0.746 4.064,0.516 0.254,0.33 0.431,0.7 0.526,1.093 l 4.213,1.564 C -0.58,-1.901 -0.552,-1.91 -0.522,-1.918 1.59,-2.489 3.773,-1.234 4.344,0.879 4.915,2.991 3.662,5.174 1.549,5.745" /></g><g
           transform="translate(184.9135,19.2226)"
           id="g28"><path
             id="path30"
             style="fill:#000000;fill-opacity:1;fill-rule:nonzero;stroke:none"
             d="m 0,0 c 0,-0.407 -0.3,-0.681 -0.653,-0.681 l 0,0.003 C -1.017,-0.681 -1.311,-0.407 -1.311,0 c 0,0.407 0.294,0.679 0.658,0.679 C -0.3,0.679 0,0.407 0,0 m 0.265,0 c 0,0.559 -0.434,0.883 -0.918,0.883 -0.488,0 -0.922,-0.324 -0.922,-0.883 0,-0.559 0.434,-0.884 0.922,-0.884 0.484,0 0.918,0.325 0.918,0.884 m -1.071,-0.075 0.099,0 0.227,-0.4 0.251,0 -0.253,0.417 c 0.131,0.009 0.238,0.071 0.238,0.247 0,0.218 -0.151,0.288 -0.405,0.288 l -0.368,0 0,-0.952 0.211,0 0,0.4 m 0,0.161 0,0.229 0.147,0 c 0.081,0 0.19,-0.006 0.19,-0.104 0,-0.106 -0.056,-0.125 -0.151,-0.125 l -0.186,0" /></g><g
           transform="translate(176.8505,26.8505)"
           id="g32"><path
             id="path34"
             style="fill:#000000;fill-opacity:1;fill-rule:nonzero;stroke:none"
             d="m 0,0 1.716,-4.697 -3.487,0 L 0,0 Z m -1.839,1.829 -3.957,-10.026 2.794,0 0.626,1.773 4.682,0 0.593,-1.773 3.033,0 L 1.946,1.83 -1.839,1.829 Z M -9.783,-8.2 l 2.834,0 0,10.032 -2.834,10e-4 0,-10.033 z m -19.679,10.033 -2.365,-7.952 -2.266,7.951 -3.059,10e-4 3.236,-10.033 4.084,0 3.262,10.033 -2.892,0 z m 11.458,-2.185 1.218,0 c 1.768,0 2.911,-0.794 2.911,-2.853 0,-2.06 -1.143,-2.854 -2.911,-2.854 l -1.218,0 0,5.707 z m -2.811,2.185 0,-10.033 4.596,0 c 2.449,0 3.248,0.407 4.112,1.32 0.611,0.641 1.006,2.049 1.006,3.586 0,1.41 -0.334,2.669 -0.917,3.452 -1.05,1.401 -2.562,1.675 -4.82,1.675 l -3.977,0 z m -26.852,0.014 0,-10.047 2.859,0 0,7.629 2.214,-0.001 c 0.734,0 1.256,-0.183 1.61,-0.56 0.448,-0.477 0.631,-1.247 0.631,-2.656 l 0,-4.412 2.77,0 0,5.551 c 0,3.962 -2.526,4.496 -4.996,4.496 l -5.088,0 z m 22.29,-0.014 10e-4,-10.033 2.833,0 0,10.033 -2.834,0 z" /></g><g
           transform="translate(103.5875,24.9362)"
           id="g36"><path
             id="path38"
             style="fill:#7db500;fill-opacity:1;fill-rule:nonzero;stroke:none"
             d="m 0,0 c 0,0 2.222,3.279 6.658,3.617 l 0,1.19 C 1.745,4.412 -2.511,0.251 -2.511,0.251 c 0,0 2.41,-6.968 9.169,-7.606 l 0,1.265 C 1.698,-5.466 0,0 0,0 m 6.658,-3.576 0,-1.158 c -3.748,0.668 -4.789,4.565 -4.789,4.565 0,0 1.8,1.994 4.789,2.318 l 0,-1.271 c -0.002,0 -0.003,0.001 -0.005,0.001 -1.569,0.188 -2.795,-1.278 -2.795,-1.278 0,0 0.687,-2.467 2.8,-3.177 m 0,10.577 0,-2.194 c 0.145,0.011 0.289,0.02 0.434,0.026 5.587,0.188 9.227,-4.582 9.227,-4.582 0,0 -4.181,-5.084 -8.537,-5.084 -0.399,0 -0.772,0.037 -1.124,0.099 l 0,-1.356 c 0.301,-0.039 0.612,-0.061 0.936,-0.061 4.054,0 6.985,2.07 9.823,4.52 0.47,-0.377 2.397,-1.294 2.793,-1.696 -2.699,-2.259 -8.988,-4.08 -12.553,-4.08 -0.344,0 -0.674,0.021 -0.999,0.052 l 0,-1.906 15.406,0 0,16.262 -15.406,0 z m 0,-4.852 0,1.468 c 0.143,0.011 0.287,0.018 0.434,0.023 4.017,0.126 6.653,-3.452 6.653,-3.452 0,0 -2.847,-3.954 -5.899,-3.954 -0.44,0 -0.833,0.071 -1.188,0.19 l 0,4.454 c 1.564,-0.189 1.879,-0.88 2.819,-2.447 l 2.092,1.763 c 0,0 -1.527,2.002 -4.1,2.002 -0.28,0 -0.548,-0.019 -0.811,-0.047" /></g><path
           id="path40"
           style="fill:#333333;fill-opacity:1;fill-rule:nonzero;stroke:none"
           d="m 189.975,18.619 -2.282,0 0,10.055 2.282,0 0,-10.055 z" /><g
           transform="translate(191.9128,23.5871)"
           id="g42"><path
             id="path44"
             style="fill:#333333;fill-opacity:1;fill-rule:nonzero;stroke:none"
             d="m 0,0 c 0,0.91 -0.029,1.686 -0.059,2.327 l 1.969,0 0.105,-0.999 0.044,0 c 0.298,0.462 1.045,1.164 2.253,1.164 1.492,0 2.611,-0.985 2.611,-3.133 l 0,-4.327 -2.268,0 0,4.043 c 0,0.94 -0.328,1.582 -1.149,1.582 -0.627,0 -0.999,-0.433 -1.149,-0.851 -0.06,-0.134 -0.089,-0.358 -0.089,-0.567 l 0,-4.207 L 0,-4.968 0,0 Z" /></g><path
           id="path46"
           style="fill:#333333;fill-opacity:1;fill-rule:nonzero;stroke:none"
           d="m 204.1,21.782 -3.908,0 0,1.507 3.908,0 0,-1.507 z" /><g
           transform="translate(207.8126,28.6745)"
           id="g48"><path
             id="path50"
             style="fill:#333333;fill-opacity:1;fill-rule:nonzero;stroke:none"
             d="m 0,0 0,-3.864 3.745,0 0,3.864 2.267,0 0,-10.055 -2.267,0 0,4.207 -3.745,0 0,-4.207 -2.282,0 L -2.282,0 0,0 Z" /></g><g
           transform="translate(217.6112,22.2742)"
           id="g52"><path
             id="path54"
             style="fill:#333333;fill-opacity:1;fill-rule:nonzero;stroke:none"
             d="m 0,0 c 0,-1.253 0.522,-2.193 1.492,-2.193 0.88,0 1.447,0.881 1.447,2.193 0,1.089 -0.417,2.193 -1.447,2.193 C 0.403,2.193 0,1.074 0,0 m 5.282,0.075 c 0,-2.671 -1.896,-3.894 -3.849,-3.894 -2.134,0 -3.775,1.402 -3.775,3.759 0,2.358 1.552,3.864 3.894,3.864 2.237,0 3.73,-1.536 3.73,-3.729" /></g><g
           transform="translate(224.2928,23.5871)"
           id="g56"><path
             id="path58"
             style="fill:#333333;fill-opacity:1;fill-rule:nonzero;stroke:none"
             d="m 0,0 c 0,0.91 -0.029,1.686 -0.059,2.327 l 1.909,0 0.105,-0.984 0.045,0 c 0.312,0.462 0.954,1.149 2.207,1.149 0.94,0 1.686,-0.478 1.999,-1.239 l 0.03,0 c 0.269,0.373 0.597,0.672 0.94,0.88 0.403,0.239 0.85,0.359 1.388,0.359 1.401,0 2.461,-0.985 2.461,-3.163 l 0,-4.297 -2.208,0 0,3.969 c 0,1.059 -0.343,1.67 -1.074,1.67 C 7.22,0.671 6.848,0.314 6.698,-0.119 6.639,-0.284 6.609,-0.522 6.609,-0.701 l 0,-4.267 -2.208,0 0,4.088 c 0,0.925 -0.328,1.551 -1.044,1.551 -0.582,0 -0.925,-0.447 -1.06,-0.82 C 2.223,-0.328 2.208,-0.537 2.208,-0.716 l 0,-4.252 L 0,-4.968 0,0 Z" /></g><g
           transform="translate(241.5351,23.0947)"
           id="g60"><path
             id="path62"
             style="fill:#333333;fill-opacity:1;fill-rule:nonzero;stroke:none"
             d="M 0,0 C 0,0.552 -0.238,1.477 -1.283,1.477 -2.238,1.477 -2.626,0.612 -2.685,0 L 0,0 Z m -2.67,-1.551 c 0.074,-0.94 0.999,-1.388 2.058,-1.388 0.776,0 1.402,0.105 2.015,0.299 L 1.7,-4.177 c -0.745,-0.298 -1.655,-0.448 -2.64,-0.448 -2.476,0 -3.894,1.433 -3.894,3.715 0,1.85 1.149,3.894 3.685,3.894 2.357,0 3.253,-1.835 3.253,-3.64 0,-0.388 -0.045,-0.731 -0.075,-0.895 l -4.699,0 z" /></g><g
           transform="translate(337.9953,19.2359)"
           id="g64"><path
             id="path66"
             style="fill:#333333;fill-opacity:1;fill-rule:nonzero;stroke:none"
             d="m 0,0 c -0.701,-0.238 -2.029,-0.567 -3.356,-0.567 -1.836,0 -3.163,0.463 -4.088,1.358 -0.925,0.865 -1.432,2.178 -1.417,3.655 0.015,3.341 2.446,5.251 5.743,5.251 1.299,0 2.297,-0.254 2.79,-0.492 l -0.478,-1.82 c -0.552,0.238 -1.238,0.432 -2.342,0.432 -1.894,0 -3.326,-1.074 -3.326,-3.252 0,-2.073 1.297,-3.297 3.162,-3.297 0.523,0 0.941,0.06 1.119,0.149 l 0,2.104 -1.551,0 0,1.775 L 0,5.296 0,0 Z" /></g><g
           transform="translate(343.6921,22.2194)"
           id="g68"><path
             id="path70"
             style="fill:#333333;fill-opacity:1;fill-rule:nonzero;stroke:none"
             d="m 0,0 c -1.193,0.015 -2.119,-0.268 -2.119,-1.149 0,-0.581 0.389,-0.865 0.896,-0.865 0.567,0 1.029,0.373 1.178,0.836 C -0.015,-1.059 0,-0.925 0,-0.79 L 0,0 Z m 0.268,-3.446 -0.134,0.731 -0.045,0 c -0.477,-0.582 -1.223,-0.895 -2.088,-0.895 -1.477,0 -2.357,1.074 -2.357,2.238 0,1.894 1.7,2.804 4.281,2.79 l 0,0.104 c 0,0.388 -0.209,0.94 -1.328,0.94 -0.745,0 -1.536,-0.254 -2.013,-0.552 l -0.418,1.462 c 0.507,0.283 1.507,0.641 2.834,0.641 2.432,0 3.208,-1.432 3.208,-3.147 l 0,-2.537 c 0,-0.701 0.029,-1.372 0.104,-1.775 l -2.044,0 z" /></g><g
           transform="translate(347.6879,23.7412)"
           id="g72"><path
             id="path74"
             style="fill:#333333;fill-opacity:1;fill-rule:nonzero;stroke:none"
             d="m 0,0 c 0,0.91 -0.029,1.686 -0.059,2.327 l 1.909,0 0.105,-0.985 0.045,0 c 0.312,0.463 0.954,1.15 2.207,1.15 0.94,0 1.686,-0.478 1.999,-1.239 l 0.03,0 c 0.269,0.373 0.597,0.672 0.94,0.88 0.403,0.239 0.85,0.359 1.388,0.359 1.401,0 2.461,-0.985 2.461,-3.163 l 0,-4.297 -2.208,0 0,3.969 c 0,1.059 -0.343,1.67 -1.074,1.67 C 7.22,0.671 6.848,0.314 6.698,-0.119 6.639,-0.284 6.609,-0.522 6.609,-0.701 l 0,-4.267 -2.208,0 0,4.088 c 0,0.925 -0.328,1.551 -1.044,1.551 -0.582,0 -0.925,-0.447 -1.06,-0.82 C 2.223,-0.328 2.208,-0.537 2.208,-0.716 l 0,-4.252 L 0,-4.968 0,0 Z" /></g><g
           transform="translate(364.9302,23.2488)"
           id="g76"><path
             id="path78"
             style="fill:#333333;fill-opacity:1;fill-rule:nonzero;stroke:none"
             d="M 0,0 C 0,0.552 -0.238,1.477 -1.283,1.477 -2.238,1.477 -2.626,0.612 -2.685,0 L 0,0 Z m -2.67,-1.551 c 0.074,-0.94 0.999,-1.388 2.058,-1.388 0.776,0 1.402,0.105 2.015,0.299 L 1.7,-4.177 c -0.745,-0.298 -1.655,-0.448 -2.64,-0.448 -2.476,0 -3.894,1.433 -3.894,3.715 0,1.85 1.149,3.894 3.685,3.894 2.357,0 3.253,-1.835 3.253,-3.64 0,-0.388 -0.045,-0.731 -0.075,-0.895 l -4.699,0 z" /></g><g
           transform="translate(368.5382,21.1158)"
           id="g80"><path
             id="path82"
             style="fill:#333333;fill-opacity:1;fill-rule:nonzero;stroke:none"
             d="m 0,0 c 0.612,-0.314 1.552,-0.627 2.522,-0.627 1.044,0 1.596,0.433 1.596,1.089 0,0.627 -0.477,0.985 -1.686,1.418 -1.671,0.582 -2.76,1.506 -2.76,2.968 0,1.716 1.432,3.029 3.804,3.029 1.134,0 1.969,-0.239 2.566,-0.507 L 5.535,5.534 C 5.132,5.729 4.416,6.012 3.431,6.012 2.447,6.012 1.97,5.564 1.97,5.042 1.97,4.401 2.537,4.117 3.834,3.625 5.609,2.969 6.445,2.044 6.445,0.626 c 0,-1.685 -1.298,-3.118 -4.058,-3.118 -1.149,0 -2.283,0.299 -2.849,0.612 L 0,0 Z" /></g><g
           transform="translate(378.9055,28.1569)"
           id="g84"><path
             id="path86"
             style="fill:#333333;fill-opacity:1;fill-rule:nonzero;stroke:none"
             d="m 0,0 0,-2.088 1.626,0 0,-1.671 -1.626,0 0,-2.641 c 0,-0.88 0.208,-1.283 0.895,-1.283 0.283,0 0.507,0.03 0.671,0.06 L 1.581,-9.339 C 1.282,-9.458 0.745,-9.533 0.104,-9.533 c -0.731,0 -1.342,0.254 -1.701,0.627 -0.417,0.433 -0.626,1.134 -0.626,2.163 l 0,2.984 -0.97,0 0,1.671 0.97,0 0,1.581 L 0,0 Z" /></g><g
           transform="translate(381.8422,23.6666)"
           id="g88"><path
             id="path90"
             style="fill:#333333;fill-opacity:1;fill-rule:nonzero;stroke:none"
             d="m 0,0 c 0,1.074 -0.029,1.775 -0.059,2.402 l 1.954,0 0.075,-1.343 0.059,0 c 0.373,1.059 1.268,1.507 1.969,1.507 0.209,0 0.314,0 0.478,-0.03 l 0,-2.133 C 4.312,0.433 4.118,0.462 3.864,0.462 3.029,0.462 2.462,0.015 2.312,-0.686 2.283,-0.836 2.268,-1.014 2.268,-1.193 l 0,-3.7 L 0,-4.893 0,0 Z" /></g><g
           transform="translate(391.8068,23.2488)"
           id="g92"><path
             id="path94"
             style="fill:#333333;fill-opacity:1;fill-rule:nonzero;stroke:none"
             d="M 0,0 C 0,0.552 -0.238,1.477 -1.283,1.477 -2.238,1.477 -2.626,0.612 -2.685,0 L 0,0 Z m -2.67,-1.551 c 0.074,-0.94 0.999,-1.388 2.058,-1.388 0.776,0 1.402,0.105 2.015,0.299 L 1.7,-4.177 c -0.745,-0.298 -1.655,-0.448 -2.64,-0.448 -2.476,0 -3.894,1.433 -3.894,3.715 0,1.85 1.149,3.894 3.685,3.894 2.357,0 3.253,-1.835 3.253,-3.64 0,-0.388 -0.045,-0.731 -0.075,-0.895 l -4.699,0 z" /></g><g
           transform="translate(399.1446,22.2194)"
           id="g96"><path
             id="path98"
             style="fill:#333333;fill-opacity:1;fill-rule:nonzero;stroke:none"
             d="m 0,0 c -1.193,0.015 -2.119,-0.268 -2.119,-1.149 0,-0.581 0.389,-0.865 0.896,-0.865 0.567,0 1.029,0.373 1.178,0.836 C -0.015,-1.059 0,-0.925 0,-0.79 L 0,0 Z m 0.269,-3.446 -0.135,0.731 -0.045,0 c -0.477,-0.582 -1.223,-0.895 -2.088,-0.895 -1.477,0 -2.357,1.074 -2.357,2.238 0,1.894 1.7,2.804 4.281,2.79 l 0,0.104 c 0,0.388 -0.209,0.94 -1.328,0.94 -0.745,0 -1.536,-0.254 -2.013,-0.552 l -0.418,1.462 c 0.507,0.283 1.507,0.641 2.834,0.641 2.432,0 3.208,-1.432 3.208,-3.147 l 0,-2.537 c 0,-0.701 0.029,-1.372 0.104,-1.775 l -2.043,0 z" /></g><g
           transform="translate(403.1404,23.7412)"
           id="g100"><path
             id="path102"
             style="fill:#333333;fill-opacity:1;fill-rule:nonzero;stroke:none"
             d="m 0,0 c 0,0.91 -0.029,1.686 -0.059,2.327 l 1.909,0 0.105,-0.985 0.045,0 c 0.312,0.463 0.954,1.15 2.207,1.15 0.94,0 1.686,-0.478 1.999,-1.239 l 0.03,0 c 0.269,0.373 0.597,0.672 0.94,0.88 0.403,0.239 0.85,0.359 1.388,0.359 1.401,0 2.461,-0.985 2.461,-3.163 l 0,-4.297 -2.208,0 0,3.969 c 0,1.059 -0.343,1.67 -1.074,1.67 C 7.22,0.671 6.848,0.314 6.698,-0.119 6.639,-0.284 6.609,-0.522 6.609,-0.701 l 0,-4.267 -2.208,0 0,4.088 c 0,0.925 -0.328,1.551 -1.044,1.551 -0.582,0 -0.925,-0.447 -1.06,-0.82 C 2.223,-0.328 2.208,-0.537 2.208,-0.716 l 0,-4.252 L 0,-4.968 0,0 Z" /></g><g
           transform="translate(49.2783,80.3708)"
           id="g104"><path
             id="path106"
             style="fill:#a3a1a3;fill-opacity:1;fill-rule:nonzero;stroke:none"
             d="m 0,0 c -17.172,0 -31.092,-13.921 -31.092,-31.092 0,-17.172 13.92,-31.093 31.092,-31.093 17.172,0 31.092,13.921 31.092,31.093 C 31.092,-13.921 17.172,0 0,0 m 49.278,-31.092 c 0,-27.216 -22.062,-49.279 -49.278,-49.279 -27.216,0 -49.278,22.063 -49.278,49.279 0,27.215 22.062,49.278 49.278,49.278 27.216,0 49.278,-22.063 49.278,-49.278" /></g><path
           id="path108"
           style="fill:#a3a1a3;fill-opacity:1;fill-rule:nonzero;stroke:none"
           d="m 50.23,18.186 -2.952,0 0,62.185 2.952,0 0,-62.185 z" /><path
           id="path110"
           style="fill:#a3a1a3;fill-opacity:1;fill-rule:nonzero;stroke:none"
           d="m 17.487,49.754 62.884,0 0,-2.952 -62.884,0 0,2.952 z" /><g
           transform="translate(27.7399,25.0017)"
           id="g112"><path
             id="path114"
             style="fill:#a3a1a3;fill-opacity:1;fill-rule:nonzero;stroke:none"
             d="M 0,0 -2.088,2.088 42.794,46.969 44.881,44.881 0,0 Z" /></g><g
           transform="translate(71.9656,27.745)"
           id="g116"><path
             id="path118"
             style="fill:#a3a1a3;fill-opacity:1;fill-rule:nonzero;stroke:none"
             d="m 0,0 -2.088,-2.088 -44.225,44.226 2.087,2.088 L 0,0 Z" /></g><g
           transform="translate(141.9123,51.5405)"
           id="g120"><path
             id="path122"
             style="fill:#a4a1a4;fill-opacity:1;fill-rule:nonzero;stroke:none"
             d="m 0,0 c -0.162,4.376 -0.324,9.672 -0.324,14.967 l -0.162,0 C -1.621,10.32 -3.134,5.133 -4.539,0.865 l -4.431,-14.211 -6.429,0 -3.89,14.103 c -1.19,4.268 -2.432,9.455 -3.296,14.21 l -0.108,0 C -22.909,10.05 -23.071,4.431 -23.342,-0.108 l -0.648,-13.832 -7.618,0 2.323,36.417 10.968,0 3.566,-12.157 c 1.135,-4.215 2.27,-8.753 3.08,-13.021 l 0.162,0 c 1.027,4.214 2.27,9.023 3.458,13.075 l 3.89,12.103 10.753,0 1.999,-36.417 -8.051,0 L 0,0 Z" /></g><g
           transform="translate(163.8518,55.7011)"
           id="g124"><path
             id="path126"
             style="fill:#a4a1a4;fill-opacity:1;fill-rule:nonzero;stroke:none"
             d="m 0,0 c 0,-7.132 3.351,-12.157 8.861,-12.157 5.566,0 8.753,5.295 8.753,12.373 0,6.538 -3.134,12.157 -8.806,12.157 C 3.242,12.373 0,7.078 0,0 m 26.313,0.486 c 0,-11.941 -7.24,-19.181 -17.883,-19.181 -10.807,0 -17.129,8.159 -17.129,18.533 0,10.914 6.97,19.073 17.722,19.073 11.185,0 17.29,-8.375 17.29,-18.425" /></g><g
           transform="translate(202.5959,55.7011)"
           id="g128"><path
             id="path130"
             style="fill:#a4a1a4;fill-opacity:1;fill-rule:nonzero;stroke:none"
             d="m 0,0 c 0,-7.132 3.351,-12.157 8.861,-12.157 5.566,0 8.753,5.295 8.753,12.373 0,6.538 -3.134,12.157 -8.806,12.157 C 3.242,12.373 0,7.078 0,0 m 26.313,0.486 c 0,-11.941 -7.24,-19.181 -17.883,-19.181 -10.807,0 -17.129,8.159 -17.129,18.533 0,10.914 6.97,19.073 17.722,19.073 11.185,0 17.29,-8.375 17.29,-18.425" /></g><g
           transform="translate(234.3157,37.6006)"
           id="g132"><path
             id="path134"
             style="fill:#a4a1a4;fill-opacity:1;fill-rule:nonzero;stroke:none"
             d="m 0,0 0,36.417 9.617,0 7.565,-13.346 c 2.161,-3.836 4.322,-8.374 5.943,-12.481 l 0.162,0 c -0.54,4.809 -0.702,9.726 -0.702,15.183 l 0,10.644 7.564,0 0,-36.417 -8.645,0 -7.78,14.048 c -2.161,3.89 -4.539,8.591 -6.322,12.86 L 7.24,26.854 C 7.456,22.045 7.564,16.912 7.564,10.968 L 7.564,0 0,0 Z" /></g><g
           transform="translate(271.5998,74.0175)"
           id="g136"><path
             id="path138"
             style="fill:#a4a1a4;fill-opacity:1;fill-rule:nonzero;stroke:none"
             d="m 0,0 8.267,0 0,-29.501 14.48,0 0,-6.916 L 0,-36.417 0,0 Z" /></g><path
           id="path140"
           style="fill:#a4a1a4;fill-opacity:1;fill-rule:nonzero;stroke:none"
           d="m 307.479,37.601 -8.267,0 0,36.417 8.267,0 0,-36.417 z" /><g
           transform="translate(345.0305,39.2754)"
           id="g142"><path
             id="path144"
             style="fill:#a4a1a4;fill-opacity:1;fill-rule:nonzero;stroke:none"
             d="m 0,0 c -2.539,-0.864 -7.348,-2.053 -12.156,-2.053 -6.647,0 -11.455,1.675 -14.805,4.917 -3.351,3.134 -5.187,7.888 -5.134,13.238 0.055,12.103 8.862,19.019 20.803,19.019 4.7,0 8.32,-0.919 10.104,-1.784 l -1.729,-6.591 c -1.999,0.864 -4.485,1.566 -8.483,1.566 -6.863,0 -12.049,-3.89 -12.049,-11.778 0,-7.511 4.701,-11.941 11.455,-11.941 1.89,0 3.403,0.216 4.052,0.54 l 0,7.618 -5.62,0 0,6.43 L 0,19.181 0,0 Z" /></g><g
           transform="translate(359.7307,74.0175)"
           id="g146"><path
             id="path148"
             style="fill:#a4a1a4;fill-opacity:1;fill-rule:nonzero;stroke:none"
             d="m 0,0 0,-13.994 13.562,0 0,13.994 8.212,0 0,-36.417 -8.212,0 0,15.237 -13.562,0 0,-15.237 -8.267,0 L -8.267,0 0,0 Z" /></g><g
           transform="translate(395.718,67.1015)"
           id="g150"><path
             id="path152"
             style="fill:#a4a1a4;fill-opacity:1;fill-rule:nonzero;stroke:none"
             d="m 0,0 -9.779,0 0,6.916 27.988,0 0,-6.916 -9.941,0 0,-29.501 -8.268,0 L 0,0 Z" /></g><g
           transform="translate(143.0364,52.0185)"
           id="g154"><path
             id="path156"
             style="fill:#deddde;fill-opacity:1;fill-rule:nonzero;stroke:none"
             d="m 0,0 c -0.162,4.376 -0.324,9.672 -0.324,14.967 l -0.162,0 C -1.621,10.32 -3.134,5.133 -4.539,0.865 l -4.431,-14.211 -6.429,0 -3.89,14.103 c -1.19,4.268 -2.432,9.455 -3.296,14.21 l -0.108,0 C -22.909,10.05 -23.071,4.431 -23.342,-0.108 l -0.648,-13.832 -7.618,0 2.323,36.417 10.968,0 3.566,-12.157 c 1.135,-4.215 2.27,-8.753 3.08,-13.021 l 0.162,0 c 1.027,4.214 2.27,9.023 3.458,13.075 l 3.89,12.103 10.753,0 1.999,-36.417 -8.051,0 L 0,0 Z" /></g><g
           transform="translate(164.9758,56.1792)"
           id="g158"><path
             id="path160"
             style="fill:#deddde;fill-opacity:1;fill-rule:nonzero;stroke:none"
             d="m 0,0 c 0,-7.132 3.351,-12.157 8.861,-12.157 5.566,0 8.753,5.295 8.753,12.373 0,6.538 -3.134,12.157 -8.806,12.157 C 3.242,12.373 0,7.078 0,0 m 26.313,0.486 c 0,-11.941 -7.24,-19.181 -17.883,-19.181 -10.807,0 -17.129,8.159 -17.129,18.533 0,10.914 6.97,19.073 17.722,19.073 11.185,0 17.29,-8.375 17.29,-18.425" /></g><g
           transform="translate(203.72,56.1792)"
           id="g162"><path
             id="path164"
             style="fill:#deddde;fill-opacity:1;fill-rule:nonzero;stroke:none"
             d="m 0,0 c 0,-7.132 3.351,-12.157 8.861,-12.157 5.566,0 8.753,5.295 8.753,12.373 0,6.538 -3.134,12.157 -8.806,12.157 C 3.242,12.373 0,7.078 0,0 m 26.313,0.486 c 0,-11.941 -7.24,-19.181 -17.883,-19.181 -10.807,0 -17.129,8.159 -17.129,18.533 0,10.914 6.97,19.073 17.722,19.073 11.185,0 17.29,-8.375 17.29,-18.425" /></g><g
           transform="translate(235.4397,38.0786)"
           id="g166"><path
             id="path168"
             style="fill:#deddde;fill-opacity:1;fill-rule:nonzero;stroke:none"
             d="m 0,0 0,36.417 9.617,0 7.565,-13.346 c 2.161,-3.836 4.322,-8.374 5.943,-12.481 l 0.162,0 c -0.54,4.809 -0.702,9.726 -0.702,15.183 l 0,10.644 7.564,0 0,-36.417 -8.645,0 -7.78,14.048 c -2.161,3.89 -4.539,8.591 -6.322,12.86 L 7.24,26.854 C 7.456,22.045 7.564,16.912 7.564,10.968 L 7.564,0 0,0 Z" /></g><g
           transform="translate(272.7238,74.4956)"
           id="g170"><path
             id="path172"
             style="fill:#deddde;fill-opacity:1;fill-rule:nonzero;stroke:none"
             d="m 0,0 8.267,0 0,-29.501 14.48,0 0,-6.916 L 0,-36.417 0,0 Z" /></g><path
           id="path174"
           style="fill:#deddde;fill-opacity:1;fill-rule:nonzero;stroke:none"
           d="m 308.603,38.079 -8.267,0 0,36.417 8.267,0 0,-36.417 z" /><g
           transform="translate(346.1545,39.7534)"
           id="g176"><path
             id="path178"
             style="fill:#deddde;fill-opacity:1;fill-rule:nonzero;stroke:none"
             d="m 0,0 c -2.539,-0.864 -7.348,-2.053 -12.156,-2.053 -6.647,0 -11.455,1.675 -14.805,4.917 -3.351,3.134 -5.187,7.888 -5.134,13.238 0.055,12.103 8.862,19.019 20.803,19.019 4.7,0 8.32,-0.919 10.104,-1.784 l -1.729,-6.591 c -1.999,0.864 -4.485,1.566 -8.483,1.566 -6.863,0 -12.049,-3.89 -12.049,-11.778 0,-7.511 4.701,-11.941 11.455,-11.941 1.89,0 3.403,0.216 4.052,0.54 l 0,7.618 -5.62,0 0,6.43 L 0,19.181 0,0 Z" /></g><g
           transform="translate(360.8547,74.4956)"
           id="g180"><path
             id="path182"
             style="fill:#deddde;fill-opacity:1;fill-rule:nonzero;stroke:none"
             d="m 0,0 0,-13.994 13.562,0 0,13.994 8.212,0 0,-36.417 -8.212,0 0,15.237 -13.562,0 0,-15.237 -8.267,0 L -8.267,0 0,0 Z" /></g><g
           transform="translate(396.842,67.5796)"
           id="g184"><path
             id="path186"
             style="fill:#deddde;fill-opacity:1;fill-rule:nonzero;stroke:none"
             d="m 0,0 -9.779,0 0,6.916 27.988,0 0,-6.916 -9.941,0 0,-29.501 -8.268,0 L 0,0 Z" /></g><g
           transform="translate(50.2305,80.6901)"
           id="g188"><path
             id="path190"
             style="fill:#deddde;fill-opacity:1;fill-rule:nonzero;stroke:none"
             d="m 0,0 c -17.172,0 -31.092,-13.921 -31.092,-31.092 0,-17.172 13.92,-31.093 31.092,-31.093 17.172,0 31.092,13.921 31.092,31.093 C 31.092,-13.921 17.172,0 0,0 m 49.278,-31.092 c 0,-27.216 -22.062,-49.279 -49.278,-49.279 -27.216,0 -49.278,22.063 -49.278,49.279 0,27.215 22.062,49.278 49.278,49.278 27.216,0 49.278,-22.063 49.278,-49.278" /></g><path
           id="path192"
           style="fill:#deddde;fill-opacity:1;fill-rule:nonzero;stroke:none"
           d="m 51.183,18.505 -2.952,0 0,62.185 2.952,0 0,-62.185 z" /><path
           id="path194"
           style="fill:#deddde;fill-opacity:1;fill-rule:nonzero;stroke:none"
           d="m 18.439,50.074 62.884,0 0,-2.952 -62.884,0 0,2.952 z" /><g
           transform="translate(28.6921,25.321)"
           id="g196"><path
             id="path198"
             style="fill:#deddde;fill-opacity:1;fill-rule:nonzero;stroke:none"
             d="M 0,0 -2.088,2.088 42.794,46.969 44.881,44.881 0,0 Z" /></g><g
           transform="translate(72.9178,28.0643)"
           id="g200"><path
             id="path202"
             style="fill:#deddde;fill-opacity:1;fill-rule:nonzero;stroke:none"
             d="m 0,0 -2.088,-2.088 -44.225,44.226 2.087,2.088 L 0,0 Z" /></g></g></g></g></svg>