<?xml version="1.0" encoding="utf-8"?>
<!-- Generator: Adobe Illustrator 19.0.0, SVG Export Plug-In . SVG Version: 6.00 Build 0)  -->
<svg version="1.1" baseProfile="tiny" id="Calque_1"
	 xmlns="http://www.w3.org/2000/svg" xmlns:xlink="http://www.w3.org/1999/xlink" x="0px" y="0px" viewBox="0 0 172 172"
	 xml:space="preserve">
<g>
	<path d="M86,172c-47.5,0-86-38.5-86-86S38.5,0,86,0s86,38.5,86,86S133.5,172,86,172z M98.6,85.3c0-7-5.7-12.6-12.6-12.6
		s-12.6,5.7-12.6,12.6c0,7,5.6,12.6,12.6,12.6S98.6,92.3,98.6,85.3z"/>
	<path id="XMLID_918_" fill="#FFFFFF" d="M86,1.4C39.3,1.4,1.4,39.3,1.4,86s37.9,84.6,84.6,84.6c46.7,0,84.6-37.9,84.6-84.6
		S132.7,1.4,86,1.4z M150.2,135.2c-14.8,19.3-38,31.7-64.2,31.7s-49.4-12.4-64.2-31.7C11.3,121.6,5.1,104.5,5.1,86
		C5.1,41.3,41.3,5.1,86,5.1c44.7,0,80.9,36.2,80.9,80.9C166.9,104.5,160.7,121.6,150.2,135.2L150.2,135.2z"/>
	<path id="XMLID_917_" d="M150.2,135.2c-14.8,19.3-38,31.7-64.2,31.7s-49.4-12.4-64.2-31.7h43.3l5.8-8.6h27.7l5.7,8.6H150.2z"/>
	<path id="XMLID_913_" fill="#939598" d="M86,5.1C41.3,5.1,5.1,41.3,5.1,86c0,18.5,6.2,35.6,16.7,49.2h43.3l5.8-8.6h27.7l5.7,8.6
		h45.9c10.5-13.6,16.7-30.7,16.7-49.2C166.9,41.3,130.7,5.1,86,5.1z M86,112c-14.4,0-26-11.7-26-26s11.6-26,26-26s26,11.7,26,26
		S100.4,112,86,112z"/>
	<path id="XMLID_909_" fill="#BCBEC0" d="M86,60c-14.4,0-26,11.7-26,26s11.6,26,26,26s26-11.7,26-26S100.4,60,86,60z M86,110.1
		c-13.3,0-24.1-10.8-24.1-24.1S72.7,61.9,86,61.9s24.1,10.8,24.1,24.1S99.3,110.1,86,110.1z"/>
	<path id="XMLID_905_" fill="#939598" d="M86,61.9c-13.3,0-24.1,10.8-24.1,24.1s10.8,24.1,24.1,24.1s24.1-10.8,24.1-24.1
		S99.3,61.9,86,61.9z M86,108.6c-12.5,0-22.6-10.1-22.6-22.6S73.5,63.4,86,63.4c12.5,0,22.6,10.1,22.6,22.6S98.5,108.6,86,108.6z"/>
	<path id="XMLID_902_" fill="#58595B" stroke="#383839" stroke-width="1.977" stroke-miterlimit="10" d="M86,63.4
		c-12.5,0-22.6,10.1-22.6,22.6s10.1,22.6,22.6,22.6c12.5,0,22.6-10.1,22.6-22.6S98.5,63.4,86,63.4z M86,97.9
		c-7,0-12.6-5.6-12.6-12.6c0-7,5.6-12.6,12.6-12.6s12.6,5.7,12.6,12.6C98.6,92.3,93,97.9,86,97.9z"/>
	<g id="megacd_1_">
		<path id="XMLID_901_" fill="#FFFFFF" d="M77.8,145c0-0.6,0-1.1,0-1.5c0,0,0.1-0.1,0.1-0.1c2,0,3.9-0.1,5.9,0
			c1.1,0,1.9,1.3,1.8,2.4c-0.1,1.2-1,2.1-2.2,2.1c-1.7,0-3.5,0-5.2,0c-1.3,0-2.6,0-3.9,0c-1.4,0-2.2-0.8-2.2-2.2c0-1,0-2,0-3.1
			c0.6,0,1.1,0,1.6,0c0.5,0,1,0,1.6,0c0,0.8,0,1.6,0,2.4c0,1,0.1,1.1,1.1,1.1c1.6,0,3.3,0,4.9,0c0.1,0,0.3,0,0.4,0
			c0.4,0,0.7-0.2,0.6-0.6c-0.1-0.2-0.4-0.5-0.6-0.5c-1-0.1-2,0-3,0C78.4,145,78.1,145,77.8,145z"/>
		<path id="XMLID_900_" fill="#FFFFFF" d="M69.8,143.3c0,0.6,0,1.1,0,1.7c-2.6,0-5.1,0-7.6,0c-0.1,0.9,0.1,1.2,0.9,1.2
			c2.1,0,4.2,0,6.4,0c0.3,0,0.5,0,0.8,0c0,0.6,0,1.1,0,1.7c-0.2,0-0.5,0-0.7,0c-2.8,0-5.5,0-8.3,0c-1.7,0-2.4-0.8-2.4-2.4
			c0-0.9,0-1.9,0-2.9c1.1,0,2.1,0,3.2,0c0.2,0.6,0.7,0.7,1.2,0.7c1.9,0,3.7,0,5.6,0C69.1,143.3,69.4,143.3,69.8,143.3z"/>
		<path id="XMLID_899_" fill="#FFFFFF" d="M57,142.1c-5.8,0-11.6,0-17.4,0c0-0.6,0-1.2,0-1.8c0.2,0,0.4-0.1,0.5-0.1c5,0,10,0,15,0
			C56.4,140.3,57.1,141,57,142.1z"/>
		<path id="XMLID_898_" fill="#FFFFFF" d="M96.8,144.2c0-0.6,0-1.1,0-1.6c1.1,0,2.1,0,3.2,0c0,1.7,0,3.5,0,5.2c-1,0-2.1,0-3.2,0
			c0-0.5,0-1-0.1-1.5c-1.9,0-3.8,0-5.7,0c0-0.7,0-1.4,0-2.1C93,144.2,94.8,144.2,96.8,144.2z"/>
		<path id="XMLID_897_" fill="#FFFFFF" d="M122.7,147.9c0-0.6,0-1.1,0-1.7c0.3,0,0.5,0,0.8,0c1.6,0,3.2,0,4.8,0
			c0.7,0,0.9-0.2,0.9-0.9c0-0.9,0-1.7,0-2.6c1.1,0,2.1,0,3.3,0c0,0.4,0,0.9,0,1.3c0,0.6,0,1.2,0,1.8c0,1.1-0.7,2-1.8,2.1
			C127.9,148,125.3,147.9,122.7,147.9z"/>
		<path id="XMLID_896_" fill="#FFFFFF" d="M72.1,142.1c-0.1-1,0.6-1.8,1.7-1.8c1.3,0,2.6,0,3.8,0c2.4,0,4.7,0,7.1,0
			c0.3,0,0.5,0,0.8,0c0,0.6,0,1.2,0,1.8C81.1,142.1,76.6,142.1,72.1,142.1z"/>
		<path id="XMLID_895_" fill="#FFFFFF" d="M132.3,142.1c-4.5,0-8.9,0-13.4,0c0-0.2,0-0.4,0-0.6c0-0.4,0-0.7,0-1.1
			c0.2,0,0.4-0.1,0.5-0.1c3.7,0,7.4,0,11.1,0C131.7,140.3,132.4,141,132.3,142.1z"/>
		<path id="XMLID_894_" fill="#FFFFFF" d="M87.2,142.1c0-1.1,0.6-1.8,1.6-1.8c3.2,0,6.4,0,9.5,0c1,0,1.7,0.8,1.6,1.8
			C95.8,142.1,91.5,142.1,87.2,142.1z"/>
		<path id="XMLID_893_" fill="#FFFFFF" d="M58.9,142.1c0-0.6,0-1.2,0-1.8c3.8,0,7.6,0,11.4,0c0,0.6,0,1.1,0,1.8
			C66.5,142.1,62.8,142.1,58.9,142.1z"/>
		<path id="XMLID_892_" fill="#FFFFFF" d="M53.8,147.9c0-1.8,0-3.5,0-5.2c1.1,0,2.1,0,3.2,0c0,1.7,0,3.5,0,5.2
			C55.9,147.9,54.9,147.9,53.8,147.9z"/>
		<path id="XMLID_891_" fill="#FFFFFF" d="M39.6,142.7c1.1,0,2.1,0,3.1,0c0,1.8,0,3.5,0,5.3c-1.1,0-2.1,0-3.1,0
			C39.6,146.2,39.6,144.5,39.6,142.7z"/>
		<path id="XMLID_890_" fill="#FFFFFF" d="M87.2,147.9c0-1.8,0-3.5,0-5.2c1.1,0,2.1,0,3.2,0c0,1.7,0,3.5,0,5.2
			C89.3,147.9,88.3,147.9,87.2,147.9z"/>
		<path id="XMLID_889_" fill="#FFFFFF" d="M49.9,147.9c-1.1,0-2.1,0-3.1,0c0-1.7,0-3.5,0-5.2c1,0,2,0,3.1,0
			C49.9,144.4,49.9,146.1,49.9,147.9z"/>
		<path id="XMLID_888_" fill="#FFFFFF" d="M119,147.9c0-1.8,0-3.5,0-5.2c1.1,0,2.1,0,3.2,0c0,1.7,0,3.5,0,5.2
			C121.1,147.9,120,147.9,119,147.9z"/>
		<path id="XMLID_887_" fill="#FFFFFF" d="M117.2,141.8v0.3h-11.1v-0.3c0-0.8,0.7-1.5,1.5-1.5h8C116.5,140.3,117.2,141,117.2,141.8z
			"/>
		<path id="XMLID_886_" fill="#FFFFFF" d="M117.2,146.2v0.3c0,0.8-0.7,1.5-1.5,1.5h-8c-0.8,0-1.5-0.6-1.5-1.5v-3.8h2.4v3
			c0,0.3,0.3,0.6,0.6,0.6H117.2z"/>
	</g>
	<g id="SEGA_7_">
		<path id="XMLID_885_" fill="#FFFFFF" d="M101.4,138.1l0,0.2l-0.1,0.3l-0.3,0.1h-5.3v-1.1c-0.3,0.8-0.5,1.2-1.2,1.2
			c-0.2,0-0.5,0-0.9-0.1l-0.5-0.1h0c-0.2,0.1-0.3,0.1-0.6,0.1h-0.1c-0.6,0-1.1,0-1.7,0H88c-1.4,0-2.4-0.8-2.8-2v2h-4.1
			c-0.3,0-0.6,0-0.9,0c-1.3-0.1-2.4-1.3-2.5-2.6v-0.2c-0.1,0.5-0.3,1-0.6,1.5c-0.6,0.8-1.4,1.2-2.4,1.3c-0.6,0-1.1,0-1.6,0l-3.1,0
			V135h1.7c-0.6-0.3-1-0.8-1.3-1.5c-0.6-1.2-0.5-2.5,0.3-3.6c0.6-0.9,1.4-1.3,2.3-1.4c0.6,0,1.2,0,1.8,0h3v1.7h0v0.9
			c0-1.3,1.1-2.5,2.3-2.6c0.7,0,1.3-0.1,2-0.1l3.3,0v1.9c0.4-1.2,1.4-1.9,2.7-1.9c0.6,0,2.8,0,2.8,0h1.7v2h0v1.3h0v3.4l1.6-5
			c0.4-1.3,1.2-1.9,2.3-1.9c0.2,0,0.3,0,0.5,0c0.9,0.1,1.5,0.7,1.7,1.5c0.7,2.1,1.4,4.2,2.1,6.3L101.4,138.1z"/>
		<path id="XMLID_884_" d="M101,138.2c-1.6,0-3.2,0-4.9,0c0-0.4,0-0.7,0-1.1c1.1,0,2.1,0,3.3,0c-0.2-0.7-0.4-1.3-0.6-1.9
			c-0.5-1.5-0.9-3-1.5-4.5c-0.1-0.4-0.5-0.8-0.8-0.9c-0.5-0.1-0.7,0.4-0.9,0.9c-0.7,2.3-1.5,4.6-2.2,6.9c-0.2,0.5-0.4,0.7-1,0.7
			c-1.5,0-3,0-4.5,0c-1.5,0-2.5-1-2.5-2.6c0-1.4,0-2.8,0-4.2c0-1.6,1-2.6,2.5-2.6c1.3,0,2.7,0,4.1,0c0,0.4,0,0.7,0,1.2
			c-1.2,0-2.3,0-3.5,0c-1.6,0-2,0.4-2,2.1c0,1.1,0,2.1,0,3.2c0,1.1,0.5,1.7,1.6,1.7c0.9,0,1.7,0,2.7,0c0-1.3,0-2.4,0-3.7
			c-0.7,0-1.5,0-2.2,0c0-0.4,0-0.8,0-1.2c1.1,0,2.2,0,3.5,0c0,1.6,0,3.3,0,4.9c0.1,0,0.1,0,0.2,0c0.7-2.3,1.5-4.5,2.2-6.8
			c0.4-1.3,1.2-1.8,2.4-1.6c0.7,0.1,1.2,0.5,1.4,1.2c0.9,2.7,1.8,5.4,2.6,8.1C101,138.1,101,138.1,101,138.2z"/>
		<path id="XMLID_883_" d="M70.4,138.2c0-0.4,0-0.8,0-1.2c1.3,0,2.6,0,3.9,0c1.1,0,1.9-0.8,1.9-1.8c0-1-0.8-1.8-1.8-1.9
			c-0.4,0-0.9,0-1.3,0c-0.7-0.1-1.1-0.7-1.1-1.4c0-0.7,0.5-1.4,1.1-1.4c1.4,0,2.8,0,4.2,0c0,0.4,0,0.7,0,1.2c-0.7,0-1.4,0-2.1,0
			c-0.7,0-1.3,0-2,0c0,0.1,0,0.3,0,0.4c0.4,0,0.8,0,1.2,0.1c1.5,0,2.5,0.9,2.9,2.4c0.4,1.8-0.8,3.7-2.6,3.8
			C73.3,138.3,71.9,138.2,70.4,138.2z"/>
		<path id="XMLID_882_" d="M70.4,136.6c0-0.4,0-0.7,0-1.2c1.4,0,2.7,0,4.1,0c0-0.1,0-0.2,0-0.3c-0.4,0-0.8,0-1.3,0
			c-1.2,0-2.1-0.6-2.6-1.7c-0.5-1.1-0.4-2.2,0.2-3.2c0.5-0.7,1.1-1.2,2-1.2c1.4,0,2.9,0,4.4,0c0,0.4,0,0.7,0,1.2c-1.3,0-2.6,0-3.9,0
			c-1.3,0-2.1,1.2-1.7,2.4c0.2,0.7,0.9,1.2,1.8,1.3c0.4,0,0.8,0,1.2,0c0.6,0.1,1.1,0.7,1.2,1.4c0,0.7-0.5,1.4-1.1,1.4
			C73.3,136.6,71.9,136.6,70.4,136.6z"/>
		<path id="XMLID_881_" d="M84.9,128.9c0,0.4,0,0.7,0,1.2c-1.3,0-2.6,0-3.8,0c-1.3,0-1.8,0.5-1.8,1.9c0,1.1,0,2.2,0,3.3
			c0,1.3,0.5,1.8,1.7,1.8c1.3,0,2.6,0,3.9,0c0,0.4,0,0.7,0,1.2c-1,0-1.9,0-2.8,0c-0.6,0-1.2,0-1.8,0c-1.1-0.1-2.1-1.1-2.1-2.2
			c0-1.6,0-3.3,0-4.9c0-1,0.9-2.1,1.9-2.2C81.6,128.8,83.2,128.9,84.9,128.9z"/>
		<path id="XMLID_878_" d="M93.6,138.2c0.8-2.6,1.6-5.1,2.5-7.5c0.1-0.2,0.2-0.4,0.4-0.4c0.1,0,0.3,0.2,0.4,0.3c0.7,2,1.3,4,2,6.1
			c-1,0-1.9,0-2.8,0c0-0.3-0.1-0.6-0.1-0.8c0,0-0.1,0-0.1,0c-0.2,0.5-0.3,0.9-0.5,1.4C95,138.3,95,138.3,93.6,138.2z M96,135.2
			c0.4,0,0.6,0,1,0c-0.2-0.5-0.3-0.9-0.4-1.3c-0.1,0-0.1,0-0.2,0C96.3,134.4,96.2,134.8,96,135.2z"/>
		<path id="XMLID_877_" d="M89.5,135.1c-0.4-0.1-0.6-0.2-0.8-0.2c0-0.3,0-0.7,0-1.1c0.6,0,1.2,0,1.8,0c0,0.9,0,1.8,0,2.8
			c-0.9,0-1.8,0.1-2.8,0c-0.2,0-0.6-0.5-0.6-0.7c-0.1-1.5,0-3,0-4.5c0-0.5,0.3-0.8,0.8-0.8c1.4,0,2.8,0,4.2,0c0,0.4,0,0.7,0,1.2
			c-1,0-2.1,0-3.1,0c-0.6,0-0.9,0.2-0.8,0.9c0,0.7,0,1.4,0,2.1C88.2,135.4,88.6,135.6,89.5,135.1z"/>
		<path id="XMLID_876_" d="M80.9,135.3c1.3,0.2,2.6,0,3.9,0.1c0,0.4,0,0.7,0,1.1c-1.5,0-3,0-4.5,0c-0.2,0-0.6-0.5-0.6-0.8
			c-0.1-0.6,0-1.2,0-1.9c1.4,0,2.8,0,4.2,0c0,0.4,0,0.7,0,1.1c-1,0-2,0-2.9,0C80.9,135.1,80.9,135.2,80.9,135.3z"/>
		<path id="XMLID_875_" d="M84.9,130.5c0,0.4,0,0.7,0,1.1c-1.3,0.2-2.7-0.1-4,0.2c0,0.1,0,0.2,0,0.3c1,0,1.9,0,3,0
			c0,0.4,0,0.8,0,1.2c-1.4,0-2.7,0-4.2,0c0-0.7-0.1-1.4,0-2.1c0-0.2,0.4-0.6,0.7-0.6C81.9,130.5,83.4,130.5,84.9,130.5z"/>
	</g>
</g>
</svg>
