<?xml version="1.0" encoding="utf-8"?>
<!-- Generator: Adobe Illustrator 19.0.0, SVG Export Plug-In . SVG Version: 6.00 Build 0)  -->
<svg version="1.1" baseProfile="tiny" id="Layer_1" xmlns="http://www.w3.org/2000/svg" xmlns:xlink="http://www.w3.org/1999/xlink"
	 x="0px" y="0px" viewBox="0 0 518.5 337.1" xml:space="preserve">
<g>
	<path fill="#807887" d="M517.6,64H3.4c-1.2,0-2.1-1-2.1-2.1V20.1c0-2.5,2.1-4.6,4.6-4.6h511.8c1.2,0,2.1,1,2.1,2.1v44.3
		C519.8,63,518.8,64,517.6,64z"/>
	<path fill="#807887" d="M514,118.6H4.5c-2.5,0-4.5-2-4.5-4.5V74.5c0-2.5,2-4.5,4.5-4.5H514c2.5,0,4.5,2,4.5,4.5v39.6
		C518.5,116.5,516.5,118.6,514,118.6z"/>
	<rect x="6.2" y="64" fill="#48434B" width="508.7" height="2.4"/>
	<rect x="6.2" y="66.4" fill="#746C7A" width="508.7" height="3.6"/>
	<rect x="4.9" y="118.6" fill="#48434B" width="508.7" height="2.4"/>
	<rect x="4.9" y="121" fill="#746C7A" width="508.7" height="3.6"/>
	<path fill="#807887" d="M514,173.1H4.5c-2.5,0-4.5-2-4.5-4.5v-39.6c0-2.5,2-4.5,4.5-4.5H514c2.5,0,4.5,2,4.5,4.5v39.6
		C518.5,171.1,516.5,173.1,514,173.1z"/>
	<rect x="4.9" y="173.1" fill="#48434B" width="508.7" height="2.4"/>
	<rect x="4.9" y="175.5" fill="#746C7A" width="508.7" height="3.6"/>
	<path fill="#807887" d="M514,227.7H4.5c-2.5,0-4.5-2-4.5-4.5v-39.6c0-2.5,2-4.5,4.5-4.5H514c2.5,0,4.5,2,4.5,4.5v39.6
		C518.5,225.7,516.5,227.7,514,227.7z"/>
	<rect x="4.9" y="227.7" fill="#48434B" width="508.7" height="2.4"/>
	<rect x="4.9" y="230.1" fill="#746C7A" width="508.7" height="3.6"/>
	<path fill="#807887" d="M514,280.4H4.5c-2.5,0-4.5-2-4.5-4.5v-39.6c0-2.5,2-4.5,4.5-4.5H514c2.5,0,4.5,2,4.5,4.5v39.6
		C518.5,278.4,516.5,280.4,514,280.4z"/>
	<rect x="4.9" y="280.4" fill="#48434B" width="508.7" height="2.4"/>
	<rect x="4.9" y="282.8" fill="#746C7A" width="508.7" height="3.6"/>
	<path fill="#807887" d="M514,336.6H4.5c-2.5,0-4.5-2-4.5-4.5v-41.2c0-2.5,2-4.5,4.5-4.5H514c2.5,0,4.5,2,4.5,4.5v41.2
		C518.5,334.6,516.5,336.6,514,336.6z"/>
	<path fill="#807886" d="M440.8,336.5H80.2v-324c0-6.6,5.4-12,12-12h336.7c6.6,0,12,5.4,12,12V336.5z"/>
	<rect x="213.8" y="203.1" fill="#6A626E" width="93.3" height="9.5"/>
	<rect x="213.8" y="212.6" fill="#6F6774" width="93.3" height="9.5"/>
	<rect x="213.8" y="222.1" fill="#797180" width="93.3" height="9.5"/>
	<rect x="213.8" y="231.6" fill="#827988" width="93.3" height="9.5"/>
	<rect x="213.8" y="241.1" fill="#7F7785" width="93.3" height="9.5"/>
	<rect x="213.8" y="250.6" fill="#847C8B" width="93.3" height="9.5"/>
	<rect x="213.8" y="260.1" fill="#89808E" width="93.3" height="9.5"/>
	<rect x="213.8" y="269.5" fill="#908996" width="93.3" height="9.5"/>
	<rect x="213.8" y="279" fill="#8D8693" width="93.3" height="9.5"/>
	<rect x="213.8" y="288.5" fill="#8C8391" width="93.3" height="9.5"/>
	<rect x="213.8" y="298" fill="#847D8B" width="93.3" height="9.5"/>
	<path fill="#4B474F" d="M215.3,202.5h-3.8v91C214.4,264.6,217.8,234.1,215.3,202.5z"/>
	<path fill="#4B474F" d="M305.7,202.5h3.8v91C306.6,264.6,303.2,234.1,305.7,202.5z"/>
	<g>
		<circle fill="#201C24" cx="46.6" cy="314.1" r="9.8"/>
		<polygon fill="none" stroke="#000000" stroke-miterlimit="10" points="40.6,316.6 41.7,310.6 47.4,308.5 52.1,312.5 51,318.5 
			45.2,320.6 		"/>
		<polyline fill="#5E585E" points="51.3,316.6 40.6,316.6 41.7,310.6 47.4,308.5 52.1,312.5 51.3,316.6 		"/>
		<polyline fill="#2A2727" points="51.3,316.6 40.6,316.6 45.2,320.6 51,318.5 51.3,316.6 		"/>
	</g>
	<g>
		<circle fill="#201C24" cx="474.4" cy="314.1" r="9.8"/>
		<polygon fill="none" stroke="#000000" stroke-miterlimit="10" points="480.4,316.6 479.3,310.6 473.6,308.5 468.9,312.5 
			470,318.5 475.8,320.6 		"/>
		<polyline fill="#5E585E" points="469.7,316.6 480.4,316.6 479.3,310.6 473.6,308.5 468.9,312.5 469.7,316.6 		"/>
		<polyline fill="#2A2727" points="469.7,316.6 480.4,316.6 475.8,320.6 470,318.5 469.7,316.6 		"/>
	</g>
	<path fill="none" stroke="#665F6B" stroke-miterlimit="10" d="M96.8,214.6c0-6.6,5.4-12,12-12h303.3c6.6,0,12,5.4,12,12"/>
	<path d="M424.2,214.5c0-6.6-5.4-10.7-12-10.7H108.8c-6.6,0-12,4.1-12,10.7c0-6.6,5.4-12,12-12h303.3
		C418.8,202.5,424.2,207.9,424.2,214.5z"/>
	<g>
		<polygon fill="#4B474F" points="424.7,337.1 96.3,337.1 96.3,214.6 97.3,214.6 97.3,336.1 423.7,336.1 423.7,214.6 424.7,214.6 		
			"/>
	</g>
	<g>
		<path fill="#4B474F" d="M441.3,337H79.7V12.5C79.7,5.6,85.3,0,92.2,0h336.7c6.9,0,12.5,5.6,12.5,12.5V337z M80.7,336h359.7V12.5
			c0-6.3-5.2-11.5-11.5-11.5H92.2c-6.3,0-11.5,5.2-11.5,11.5V336z"/>
	</g>
	<path d="M410.1,151H110.9c-6.6,0-12-5.4-12-12V0.5h323.2V139C422.1,145.6,416.7,151,410.1,151z"/>
	<g>
		<path fill="#FFFFFF" d="M120.9,105.8c7.1,0,12.9,4,12.9,9c0,5-5.8,9-12.9,9s-12.9-4-12.9-9C108,109.8,113.8,105.8,120.9,105.8z"/>
		<g>
			<g>
				<path fill="#A58252" d="M118.1,120.1h0.4v0c0,0.1,0,0.2,0.1,0.3c0.1,0.1,0.2,0.1,0.3,0.1c0.1,0,0.2,0,0.3-0.1
					c0.1,0,0.1-0.1,0.1-0.2c0-0.1,0-0.1-0.1-0.2c0,0-0.1-0.1-0.2-0.1l-0.3,0c-0.2,0-0.4-0.1-0.4-0.2c-0.1-0.1-0.1-0.2-0.1-0.4
					c0-0.2,0.1-0.4,0.2-0.5c0.1-0.1,0.3-0.2,0.5-0.2c0.2,0,0.4,0.1,0.6,0.2c0.1,0.1,0.2,0.3,0.2,0.5v0h-0.4c0-0.1,0-0.2-0.1-0.2
					c-0.1-0.1-0.2-0.1-0.3-0.1c-0.1,0-0.2,0-0.3,0.1c-0.1,0-0.1,0.1-0.1,0.2c0,0.1,0,0.1,0.1,0.1c0,0,0.1,0.1,0.3,0.1l0.3,0
					c0.2,0,0.3,0.1,0.4,0.2s0.1,0.3,0.1,0.4c0,0.2-0.1,0.4-0.2,0.6c-0.1,0.1-0.3,0.2-0.6,0.2c-0.3,0-0.5-0.1-0.6-0.2
					C118.2,120.5,118.1,120.3,118.1,120.1L118.1,120.1L118.1,120.1L118.1,120.1z"/>
				<path fill="#A58252" d="M121.3,120.3c0,0.2-0.1,0.3-0.2,0.4c-0.1,0.1-0.3,0.2-0.4,0.2c-0.2,0-0.4-0.1-0.5-0.2
					c-0.1-0.2-0.2-0.4-0.2-0.6c0-0.3,0.1-0.5,0.2-0.6c0.1-0.2,0.3-0.2,0.5-0.2c0.2,0,0.4,0.1,0.5,0.2c0.1,0.2,0.2,0.4,0.2,0.7v0.1
					h-1c0,0.1,0,0.2,0.1,0.3c0.1,0.1,0.1,0.1,0.2,0.1c0.1,0,0.1,0,0.2-0.1c0,0,0.1-0.1,0.1-0.2L121.3,120.3L121.3,120.3z
					 M120.3,119.8l0.6,0c0-0.1,0-0.2-0.1-0.2c-0.1-0.1-0.1-0.1-0.2-0.1c-0.1,0-0.2,0-0.2,0.1C120.4,119.6,120.3,119.7,120.3,119.8z"
					/>
				<path fill="#A58252" d="M122.8,120.6c0,0.1,0,0.1,0,0.1c0,0,0,0.1,0,0.1v0h-0.4l0-0.2c-0.1,0.1-0.1,0.1-0.2,0.2
					c-0.1,0-0.2,0.1-0.3,0.1c-0.2,0-0.3,0-0.4-0.1c-0.1-0.1-0.1-0.2-0.1-0.4c0-0.2,0-0.3,0.1-0.3c0.1-0.1,0.2-0.1,0.4-0.2
					c0,0,0.1,0,0.1,0c0.2,0,0.3-0.1,0.3-0.2c0-0.1,0-0.1-0.1-0.1c0,0-0.1,0-0.2,0c-0.1,0-0.2,0-0.2,0.1c0,0-0.1,0.1-0.1,0.2l-0.4,0
					v0c0-0.2,0.1-0.3,0.2-0.4c0.1-0.1,0.3-0.2,0.5-0.2c0.1,0,0.2,0,0.3,0c0.1,0,0.1,0.1,0.2,0.1c0,0,0.1,0.1,0.1,0.2
					c0,0.1,0,0.2,0,0.3L122.8,120.6L122.8,120.6z M122.5,120c0,0-0.1,0.1-0.3,0.1c0,0,0,0,0,0c-0.1,0-0.2,0-0.3,0.1
					c0,0-0.1,0.1-0.1,0.1c0,0.1,0,0.1,0.1,0.2c0,0,0.1,0.1,0.1,0.1c0.1,0,0.2,0,0.3-0.1C122.4,120.3,122.5,120.2,122.5,120
					C122.5,120.1,122.5,120.1,122.5,120C122.5,120,122.5,120,122.5,120z"/>
				<path fill="#A58252" d="M123.2,120.8v-2.2h0.4v2.2H123.2z"/>
			</g>
		</g>
		<path fill="#A58252" d="M135.3,114.8l1.5,1.6l-2.2,1.3l0.6,2.6l-2.4,0.1l-0.2,2.8l-2.6-0.7l-0.4,2.6l-2.4-1l-1.3,2.3l-1.9-1.6
			l-1.7,2.3l-1.8-2l-2,1.9l-1.3-2.2l-2.4,1.4l-0.8-2.5l-2.7,1.1l-0.4-2.4l-2.4,0.2l0.4-2.5l-2.5,0l0.6-2.7l-1.9-1.1l1.5-1.8
			l-1.4-2.4l2.3-0.7l-0.6-2.6l2.5,0l0.3-2.6l2.2,0.7l0.7-2.5l2.3,1.2l0.9-2.2l2,1.4l1.4-2.1l1.8,1.8l1.6-1.7l1.4,2.1l2.2-1.4
			l0.9,2.3l2.2-1.1l0.6,2.5l2.7-0.5l-0.1,2.4l2.7,0.3l-0.8,2.3l2.3,1L135.3,114.8z M133.7,114.8c0-5-5.8-9-12.9-9s-12.9,4-12.9,9
			c0,5,5.8,9,12.9,9S133.7,119.7,133.7,114.8z"/>
		<g>
			<g>
				<path fill="#A58252" d="M116.6,110.1c0-0.6,0.3-0.7,0.6-0.7c0.2,0,0.6,0.1,0.6,0.7c0,0.6-0.3,0.7-0.6,0.7
					C116.9,110.9,116.6,110.7,116.6,110.1L116.6,110.1z M116.2,110.1c0,1,0.7,1.1,1,1.1c0.3,0,1-0.1,1-1.1c0-1-0.7-1.1-1-1.1
					C116.9,109,116.2,109.1,116.2,110.1L116.2,110.1z"/>
				<path fill="#A58252" d="M118.9,111.2h-0.4v-1.3h-0.2v-0.3h0.2v-0.1c0-0.3,0.2-0.5,0.5-0.5c0.1,0,0.2,0,0.2,0v0.3h-0.1
					c-0.1,0-0.1,0-0.1,0.2v0.1h0.3v0.3h-0.3L118.9,111.2L118.9,111.2z"/>
				<path fill="#A58252" d="M119.9,111.2h-0.4v-1.3h-0.2v-0.3h0.2v-0.1c0-0.3,0.2-0.5,0.5-0.5c0.1,0,0.2,0,0.2,0v0.3H120
					c-0.1,0-0.1,0-0.1,0.2v0.1h0.3v0.3h-0.3L119.9,111.2L119.9,111.2z"/>
				<path fill="#A58252" d="M120.7,109.6v1.6h-0.4v-1.6H120.7L120.7,109.6z M120.7,109.4h-0.4v-0.4h0.4V109.4L120.7,109.4z"/>
				<path fill="#A58252" d="M122.4,110.6c0,0.2-0.1,0.6-0.7,0.6c-0.6,0-0.7-0.5-0.7-0.8c0-0.5,0.2-0.9,0.8-0.9
					c0.2,0,0.7,0.1,0.7,0.6H122c0-0.1-0.1-0.3-0.3-0.3c-0.3,0-0.3,0.3-0.3,0.5c0,0.2,0,0.5,0.3,0.5c0.2,0,0.3-0.2,0.3-0.3
					L122.4,110.6L122.4,110.6z"/>
				<path fill="#A58252" d="M123.1,109.6v1.6h-0.4v-1.6H123.1L123.1,109.6z M123.1,109.4h-0.4v-0.4h0.4V109.4L123.1,109.4z"/>
				<path fill="#A58252" d="M124.3,110.6c0,0.2-0.2,0.3-0.4,0.3c-0.1,0-0.2,0-0.2-0.2c0-0.2,0.1-0.2,0.3-0.2c0.2,0,0.2-0.1,0.3-0.1
					V110.6L124.3,110.6z M124.7,110c0-0.4-0.4-0.5-0.6-0.5c-0.3,0-0.7,0.1-0.7,0.6h0.4c0-0.1,0-0.2,0.3-0.2c0.1,0,0.3,0,0.3,0.2
					c0,0.1-0.1,0.1-0.1,0.1l-0.4,0.1c-0.3,0-0.5,0.2-0.5,0.5c0,0.3,0.2,0.5,0.5,0.5c0.3,0,0.4-0.1,0.5-0.2c0,0.1,0,0.1,0,0.2h0.4
					v-0.1c-0.1,0-0.1-0.1-0.1-0.2L124.7,110L124.7,110z"/>
				<polygon fill="#A58252" points="125.4,111.2 125,111.2 125,109.1 125.4,109.1 				"/>
			</g>
		</g>
		<path fill="#A58252" d="M120.9,123c6.7,0,12.1-3.7,12.1-8.2c0-4.5-5.4-8.2-12.1-8.2c-6.7,0-12.1,3.7-12.1,8.2
			C108.8,119.3,114.2,123,120.9,123L120.9,123z M109.1,114.8c0-4.4,5.3-7.9,11.8-7.9c6.5,0,11.8,3.6,11.8,7.9s-5.3,7.9-11.8,7.9
			C114.4,122.7,109.1,119.1,109.1,114.8L109.1,114.8z"/>
		<g>
			<g>
				<path fill="#A58252" d="M128.5,117.5c1.4,0,2.6-1.1,2.6-2.6c0-1.4-1.1-2.6-2.6-2.6h-15.3c-1.4,0-2.6,1.1-2.6,2.6
					c0,1.4,1.1,2.6,2.6,2.6H128.5L128.5,117.5z M113.2,116.9c-1,0-1.9-0.8-1.9-1.9c0-1,0.8-1.9,1.9-1.9h15.3c1,0,1.9,0.8,1.9,1.9
					c0,1-0.8,1.9-1.9,1.9H113.2L113.2,116.9z"/>
				<path fill="#A58252" d="M112.5,116.2v-2.4l0.8,0l1,1.6l0-1.6h0.8l0,2.4c0,0-0.5,0-0.8,0c-0.1-0.1-1-1.6-1-1.6v1.6L112.5,116.2
					L112.5,116.2z"/>
				<path fill="#A58252" d="M117.2,114.6C117.3,114.6,117.3,114.6,117.2,114.6c0.2,0,0.2,0,0.3,0c0.6-0.2,0.9,0.1,1,0.2
					c0.3,0.3,0.2,0.9,0.2,1.5c0,0-0.8,0-0.8,0s0-1,0-1.1c0-0.1-0.2-0.3-0.3-0.3c-0.2,0-0.4,0.1-0.4,0.3c0,0.4,0,1.1,0,1.1h-0.8v-1.6
					L117.2,114.6L117.2,114.6z"/>
				<polygon fill="#A58252" points="119.1,114.4 119.1,114.2 119.8,114.2 119.8,114.4 120.2,114.4 120.2,114.6 119.8,114.6 
					119.8,116.2 119.1,116.2 119.1,114.6 118.7,114.6 118.7,114.4 				"/>
				<path fill="#A58252" d="M120.2,115.4c0-0.5,0.5-0.9,0.9-0.9c0.2,0,0.4,0,0.6,0.1c0.1,0.1,0.2,0.1,0.3,0.2
					c0.2,0.2,0.3,0.4,0.3,0.7l-1.3,0c0,0.2-0.1,0.7,0.2,0.7c0.1,0,0.2,0,0.3-0.1c0-0.1,0-0.2,0-0.3c0.1,0,0.7,0,0.8,0
					c-0.2,0.4-0.6,0.6-1,0.6C121,116.2,120.2,116.2,120.2,115.4L120.2,115.4z M120.9,115.1l0.5,0c0-0.1,0-0.1,0-0.2
					c0-0.1-0.1-0.2-0.3-0.2c-0.2,0-0.3,0.1-0.3,0.3C120.9,115,120.9,115.1,120.9,115.1L120.9,115.1z"/>
				<path fill="#A58252" d="M127.3,115.7c-0.1-0.2-0.2-0.5,0-0.8c0.1-0.2,0.4-0.4,0.6-0.5c0.2-0.1,0.5-0.1,0.8,0
					c0.2,0.1,0.5,0.2,0.6,0.5c0.1,0.2,0.1,0.6,0,0.8c-0.1,0.1-0.3,0.3-0.5,0.4c-0.2,0.1-0.6,0.1-0.8,0
					C127.7,116.1,127.5,116,127.3,115.7L127.3,115.7z M128.3,116c0.2,0,0.3-0.2,0.3-0.3c0-0.2,0-0.5,0-0.8c0-0.1-0.1-0.3-0.3-0.3
					c-0.3,0-0.3,0.2-0.3,0.3c0,0.1,0,0.6,0,0.8C128,115.8,128.1,116,128.3,116L128.3,116z"/>
				<path fill="#A58252" d="M127,116.2c0,0-0.7,0-0.7,0c0,0,0-0.1,0-0.1c-0.2,0.2-1,0.2-1.3-0.4c0-0.1-0.1-0.5,0-0.7
					c0.2-0.4,0.6-0.5,0.9-0.5c0.1,0,0.4,0.1,0.4,0.1l0-0.9l0.7,0C127,113.7,127,116.2,127,116.2L127,116.2z M126.2,115.8
					c0-0.1,0-0.5,0-0.8c0-0.1,0-0.2-0.1-0.2c-0.1-0.1-0.1-0.1-0.2-0.1c-0.2,0-0.2,0.1-0.2,0.2c0,0.2,0,0.5,0,0.7
					c0,0.1,0,0.1,0.1,0.2C126,116,126.2,115.9,126.2,115.8L126.2,115.8z"/>
				<polygon fill="#A58252" points="116.2,116.2 116.2,114.6 115.4,114.6 115.4,116.2 				"/>
				<polygon fill="#A58252" points="116.2,114.3 116.2,113.8 115.4,113.8 115.4,114.3 				"/>
				<path fill="#A58252" d="M123.3,114.6C123.3,114.6,123.3,114.6,123.3,114.6c0.2,0,0.2,0,0.3,0c0.6-0.2,0.9,0.1,1,0.2
					c0.3,0.3,0.2,0.9,0.2,1.5c0,0-0.8,0-0.8,0s0-1,0-1.1c0-0.1-0.2-0.3-0.3-0.3c-0.2,0-0.4,0.1-0.4,0.3c0,0.4,0,1.1,0,1.1h-0.7v-1.6
					L123.3,114.6L123.3,114.6z"/>
				<path fill="#A58252" d="M128.9,114.3L128.9,114.3l-0.1-0.2h0.1c0.1,0,0.1,0,0.1,0.1c0,0,0,0.1-0.1,0.1l0.1,0.1H128.9l0-0.1h0
					L128.9,114.3L128.9,114.3z M129,114.2C129,114.2,129,114.2,129,114.2C129,114.1,129,114.1,129,114.2L129,114.2L129,114.2
					L129,114.2L129,114.2z M129,114.4c-0.1,0-0.2-0.1-0.2-0.2c0-0.1,0.1-0.2,0.2-0.2c0.1,0,0.2,0.1,0.2,0.2
					C129.2,114.3,129.1,114.4,129,114.4L129,114.4z M129,114c-0.1,0-0.2,0.1-0.2,0.2s0.1,0.2,0.2,0.2v0c0.1,0,0.2-0.1,0.2-0.2
					S129.1,114,129,114L129,114z"/>
			</g>
		</g>
	</g>
	<g>
		<path id="path452" fill="#ED1C24" d="M108.2,40.5c-2.9,0-4.9-2.1-4.9-4.6c0-2.5,2-4.6,4.9-4.6h27.6c2.9,0,4.9,2.1,4.9,4.6
			c0,2.5-2,4.6-4.9,4.6L108.2,40.5L108.2,40.5z"/>
		<path id="path454" fill="#FFFFFF" d="M108.2,32.5c-2.3,0-3.7,1.6-3.7,3.5c0,1.9,1.4,3.5,3.7,3.5h27.6c2.3,0,3.7-1.6,3.7-3.5
			c0-1.9-1.4-3.5-3.7-3.5H108.2z"/>
		<path id="path456" fill="#ED1C24" d="M107,33.8h1.4l1.9,3l0-3h1.3v4.3h-1.3l-1.9-3v3H107L107,33.8L107,33.8z"/>
		<path id="path458" fill="#ED1C24" d="M118.8,34.2h1.3v0.6h0.7v0.4h-0.7l0,2.9h-1.3l0-2.9h-0.7v-0.4l0.7,0L118.8,34.2L118.8,34.2z"
			/>
		<path id="path460" fill="#ED1C24" d="M112.3,35.2h1.3v2.9h-1.3V35.2z"/>
		<path id="path462" fill="#ED1C24" d="M112.3,33.8h1.3v0.9h-1.3V33.8z"/>
		<path id="path464" fill="#ED1C24" d="M135.1,35c-1.1,0-1.9,0.7-1.9,1.6c0,0.9,0.9,1.6,1.9,1.6c1.1,0,1.9-0.7,1.9-1.6
			C137.1,35.7,136.2,35,135.1,35 M135.7,36.6c0,0,0,0.4,0,0.6c0,0.5-0.3,0.6-0.5,0.6c-0.3,0-0.5-0.2-0.5-0.6c0-0.2,0-0.6,0-0.6
			s0-0.4,0-0.6c0-0.5,0.3-0.6,0.5-0.6c0.3,0,0.5,0.2,0.5,0.6C135.7,36.2,135.7,36.5,135.7,36.6L135.7,36.6L135.7,36.6z"/>
		<path id="path466" fill="#ED1C24" d="M131.5,36.6v-0.5c0-0.4-0.3-0.6-0.5-0.6c-0.2,0-0.5,0.1-0.5,0.6v0.5v0.5
			c0,0.4,0.3,0.6,0.5,0.6c0.2,0,0.5-0.1,0.5-0.6L131.5,36.6L131.5,36.6z M131.5,33.8h1.3v4.3h-1.3c0,0,0-0.1,0-0.2
			c-0.5,0.3-1.1,0.3-1.5,0.1c-0.1-0.1-0.9-0.4-0.9-1.4c0-0.8,0.7-1.6,1.7-1.5c0.3,0,0.5,0.1,0.7,0.3L131.5,33.8L131.5,33.8z"/>
		<path id="path468" fill="#ED1C24" d="M116.7,35.1c0.5,0,1.5,0.3,1.5,1.4c0,0.2,0,1.6,0,1.6h-1.3v-1.9c0-0.3-0.2-0.5-0.6-0.5
			c-0.4,0-0.6,0.3-0.6,0.5c0,0.1,0,1.9,0,1.9h-1.3l0-2.9l1.3,0c0,0,0,0.2,0,0.3C115.9,35.3,116.2,35.1,116.7,35.1"/>
		<path id="path470" fill="#ED1C24" d="M127.3,35.1c0.5,0,1.5,0.3,1.5,1.4c0,0.2,0,1.6,0,1.6h-1.3v-1.9c0-0.3-0.2-0.5-0.6-0.5
			c-0.4,0-0.6,0.3-0.6,0.5c0,0.1,0,1.9,0,1.9h-1.3v-2.9l1.3,0c0,0,0,0.2,0,0.3C126.5,35.3,126.8,35.1,127.3,35.1"/>
		<path id="path472" fill="#ED1C24" d="M123.2,37.1c0,0,0,0,0,0.2c0,0.5-0.3,0.6-0.5,0.6c-0.2,0-0.5-0.1-0.5-0.6c0-0.2,0-0.6,0-0.6
			s2.5,0,2.5,0c0-0.9-0.9-1.6-1.9-1.6s-1.9,0.7-1.9,1.6c0,0.9,0.9,1.6,1.9,1.6c0.9,0,1.6-0.5,1.8-1.2L123.2,37.1L123.2,37.1z
			 M122.1,36.2c0-0.3,0-0.4,0.1-0.6c0.1-0.2,0.3-0.3,0.5-0.3c0.2,0,0.4,0.1,0.5,0.3c0.1,0.1,0.1,0.3,0.1,0.6H122.1z"/>
		<path id="path474" fill="#ED1C24" d="M137.3,34.2c0.1,0,0.2,0,0.2-0.2c0-0.1-0.1-0.1-0.2-0.1h-0.2v0.3H137.3z M137.1,34.8H137v-1
			h0.4c0.2,0,0.3,0.1,0.3,0.3c0,0.2-0.1,0.3-0.3,0.3l0.3,0.4h-0.2l-0.3-0.4h-0.2L137.1,34.8L137.1,34.8z"/>
		<path id="path476" fill="#ED1C24" d="M137.3,35c0.4,0,0.7-0.3,0.7-0.7c0-0.4-0.3-0.7-0.7-0.7c-0.4,0-0.7,0.3-0.7,0.7
			C136.6,34.7,136.9,35,137.3,35 M136.5,34.3c0-0.5,0.4-0.9,0.9-0.9c0.5,0,0.9,0.4,0.9,0.9c0,0.5-0.4,0.9-0.9,0.9
			C136.9,35.2,136.5,34.8,136.5,34.3"/>
	</g>
	<g>
		<path id="polyline2177" fill="#C40000" d="M327.4,124.2c-0.8,0-1.6,0.7-1.8,1.5v0v0v0l0,0v0v0l0,0v0l0,0v0l0,0v0l0,0l0,0l0,0.1
			l0,0.1l0,0.1l0,0.1l0,0.1l0,0.1l0,0.1l0,0.1l0,0.3l0,0.1l0,0.1l0,0.1l0,0.1l0,0.1l0,0.1l0,0.1l0,0.1l0,0.1v0l0,0v0v0l0,0v0v0l0,0
			v0v0c0,0.4,0,0.9,0.2,1c0.1,0.8,2.8,4.6,2.8,5.1c-0.1,0.6-0.4,2.3-0.4,2.3c-0.1,0.6-0.5,1-1.1,1c-0.6,0-1-0.5-0.9-1l0.5-2.8h-2
			l-0.7,3.9c-0.1,0.8,0.4,1.4,1.2,1.4h2.9c0.8,0,1.6-0.6,1.7-1.4c0,0,0.7-3.6,0.7-3.9c0-0.3-0.1-0.3-0.1-0.3c0-0.3-2.4-4.3-2.6-4.4
			c-0.1-0.1-0.2-0.5-0.2-0.7c0-0.2,0.3-1.8,0.3-1.8c0.1-0.6,0.6-1,1.2-1c0.6,0,0.8,0.5,0.7,1l-0.4,2.5h2l0.7-3.8
			c0.2-0.8-0.4-1.5-1.2-1.5H327.4z M332.9,124.2l-2.4,13.8c-0.1,0.8,0.4,1.4,1.2,1.4h2.9c0.8,0,1.6-0.6,1.7-1.4l2.6-13.8H337
			l-2.4,13.5c0,0.2-0.2,0.4-0.4,0.4h-1.4c-0.2,0-0.3-0.2-0.3-0.4l2.4-13.5H332.9z M339.8,124.2l-2.9,15.3h1.9l1.3-6.9h2.4
			c0.8,0,1.6-0.6,1.7-1.4l1.1-5.4c0.2-0.8-0.4-1.5-1.2-1.5h-2.4H339.8z M346.7,124.2l-3,15.3h4.3l0.3-1.9h-2.1l0.9-5.2h2.1l0.3-1.6
			h-2.1l0.9-4.7h2.1l0.3-1.9H346.7z M351.8,124.2l-2.9,15.3h1.9l1.3-6.9h1.4c0.2,0.2,0.2,0.5,0.2,0.6c0,0.2,0.1,0.5,0,0.7
			c0,0.2-1.1,5.5-1.1,5.5h1.9c0,0,1.1-5.8,1.1-5.9c0-0.1,0-0.4-0.1-0.6c-0.1-0.1-0.2-0.3-0.3-0.4c-0.3-0.2-0.6-0.3-0.6-0.3h-0.1
			c0.6-0.2,1.6-0.6,1.7-1.2l1.1-5.4c0.2-0.8-0.4-1.5-1.2-1.5H351.8z M362.1,124.2l-2.9,15.3h2.2l1.8-8.8l0.7,8.8h1.9l2.9-15.3h-2.2
			l-1.5,8l-1-8H362.1z M369.8,124.2l-2.9,15.3h1.9l2.9-15.3H369.8z M372.7,124.2l-2.9,15.3h2.2l1.8-8.8l0.7,8.8h1.9l2.9-15.3h-2.2
			l-1.5,8l-1-8H372.7z M380.1,124.2l-0.4,1.9h1.2l-2.4,13.4h2.2l2.4-13.4h1.2l0.3-1.9H380.1z M385.4,124.2l-3,15.3h4.3l0.3-1.9h-2.1
			l0.9-5.2h2.1l0.3-1.6h-2.1l0.9-4.7h2.1l0.3-1.9H385.4z M390.3,124.2l-2.9,15.3h2.2l1.8-8.8l0.7,8.8h1.9l2.9-15.3h-2.2l-1.5,8l-1-8
			H390.3z M397.9,124.2l-2.9,15.3h4.4c0.8,0,1.6-0.6,1.7-1.4l2.3-12.3c0.2-0.8-0.4-1.5-1.2-1.5H397.9z M406.2,124.2
			c-0.8,0-1.6,0.7-1.8,1.5l-2.1,12.3c-0.1,0.8,0.4,1.4,1.2,1.4h3.2c0.8,0,1.6-0.6,1.7-1.4l2.3-12.3c0.2-0.8-0.4-1.5-1.2-1.5H406.2z
			 M399.6,125.9h0.9c0.6,0,1,0.5,0.9,1l-1.9,10c-0.1,0.6-0.6,1-1.2,1h-0.9L399.6,125.9z M407.3,125.9L407.3,125.9c0.6,0,1,0.5,0.9,1
			l-1.8,10c-0.1,0.6-0.6,1-1.2,1c-0.6,0-0.8-0.5-0.7-1l1.8-10l0,0l0,0l0-0.1l0,0l0-0.1l0,0l0,0l0,0l0,0l0,0l0,0l0,0l0,0l0,0l0,0l0,0
			l0,0l0,0l0,0l0,0l0,0l0,0l0,0l0,0l0,0l0.1,0l0,0h0l0,0L407.3,125.9L407.3,125.9z M341.7,126h0.9c0.2,0,0.6,0.5,0.6,0.7l-0.8,3.8
			c0,0.2-0.3,0.6-0.5,0.6h-1.1h0h0l0,0h0h0h0h0v0h0h0l0,0h0l0,0l0,0h0v0l0,0l0,0v0l0,0l0,0v0v0l0,0v0v0l0,0v0c0,0,0-0.1,0-0.1
			l0.9-4.6C341.5,126,341.6,126,341.7,126z M353.6,126L353.6,126L353.6,126L353.6,126L353.6,126h0.9c0.2,0,0.6,0.5,0.6,0.7l-0.8,3.8
			c0,0.2-0.5,0.7-0.7,0.7h-0.8c-0.2,0-0.3-0.1-0.3-0.3c0,0,0-0.1,0-0.1l0.9-4.6l0,0l0,0l0,0h0l0,0l0,0h0L353.6,126L353.6,126
			L353.6,126L353.6,126L353.6,126L353.6,126L353.6,126L353.6,126L353.6,126z M323.1,140.8v5h85.7v-5H323.1z M386.1,141.3
			L386.1,141.3L386.1,141.3L386.1,141.3L386.1,141.3L386.1,141.3h0.7c0.2,0,0.3,0.1,0.3,0.3l-0.2,0.8h-0.4l0.1-0.6
			c0-0.1-0.1-0.2-0.2-0.2c-0.1,0-0.2,0.1-0.3,0.2l-0.1,0.4c0,0,0,0.1,0,0.2c0.1,0,0.6,0.9,0.6,1c0,0,0,0,0,0.1
			c0,0.1-0.2,0.9-0.2,0.9c0,0.2-0.2,0.3-0.4,0.3h-0.6c-0.2,0-0.3-0.1-0.3-0.3l0.2-0.9h0.4l-0.1,0.6c0,0.1,0.1,0.2,0.2,0.2
			c0.1,0,0.3-0.1,0.3-0.2l0.1-0.5c-0.1-0.2-0.6-1-0.6-1.1c0,0,0-0.1,0-0.2c0-0.1,0.1-0.6,0.1-0.6h0v0v0v0l0,0v0l0,0v0l0,0v0l0,0l0,0
			v0h0l0,0l0,0l0,0v0h0l0,0l0,0h0L386.1,141.3L386.1,141.3L386.1,141.3L386.1,141.3L386.1,141.3L386.1,141.3z M389.6,141.3h0.5
			l0.1,1.3l0.7-1.3h0.5l-1.1,2l-0.3,1.4h-0.5l0.2-1.5L389.6,141.3z M394.5,141.3L394.5,141.3L394.5,141.3L394.5,141.3L394.5,141.3
			L394.5,141.3h0.7c0.2,0,0.3,0.1,0.3,0.3l-0.2,0.8h-0.4l0.1-0.6c0-0.1-0.1-0.2-0.2-0.2c-0.1,0-0.3,0.1-0.3,0.2l-0.1,0.4
			c0,0,0,0.1,0,0.2c0.1,0,0.6,0.9,0.6,1c0,0,0,0,0,0.1c0,0.1-0.2,0.9-0.2,0.9c0,0.2-0.2,0.3-0.4,0.3H394c-0.2,0-0.3-0.1-0.3-0.3
			l0.2-0.9h0.4l-0.1,0.6c0,0.1,0.1,0.2,0.2,0.2c0.1,0,0.2-0.1,0.3-0.2l0.1-0.5c-0.1-0.2-0.6-1-0.6-1.1c0,0,0-0.1,0-0.2
			c0-0.1,0.1-0.6,0.1-0.6l0,0v0v0l0,0v0l0,0v0l0,0v0l0,0l0,0v0h0l0,0l0,0l0,0l0,0l0,0l0,0h0L394.5,141.3L394.5,141.3L394.5,141.3
			L394.5,141.3L394.5,141.3L394.5,141.3z M398,141.3h1l-0.1,0.4h-0.3l-0.5,3h-0.5l0.5-3h-0.3L398,141.3z M401.9,141.3h0.9l-0.1,0.4
			h-0.5l-0.2,1.1h0.5l-0.1,0.3H402l-0.2,1.1h0.5l-0.1,0.4h-1L401.9,141.3z M405.6,141.3h0.6l0.1,2l0.9-1.9l0.5,0l-0.6,3.4h-0.4
			l0.3-1.8l-0.8,1.8h-0.3l-0.1-1.8l-0.3,1.8H405L405.6,141.3z M325,141.4h0.9l-0.1,0.4h-0.5l-0.2,1.1h0.5l-0.1,0.4h-0.5l-0.2,1.1
			h0.5l-0.1,0.4h-1L325,141.4z M329.1,141.4h0.4l0.2,1.8l0.3-1.8h0.5l-0.6,3.4h-0.4l-0.2-2l-0.4,2h-0.5L329.1,141.4z M333.6,141.4h1
			l-0.1,0.4h-0.3l-0.5,3h-0.5l0.5-3h-0.3L333.6,141.4z M338,141.4h0.9l-0.1,0.4h-0.5l-0.2,1.1h0.5l-0.1,0.4h-0.5l-0.2,1.1h0.5
			l-0.1,0.4h-1L338,141.4z M342.2,141.4h1c0.2,0,0.3,0.2,0.3,0.3l-0.2,1.2c0,0.1-0.3,0.2-0.4,0.3h0h0h0v0h0h0h0h0l0,0h0h0h0v0h0h0v0
			h0c0,0,0,0.1,0,0.2c0,0-0.2,1.3-0.2,1.3h-0.4c0,0,0.2-1.2,0.2-1.2c0-0.1,0-0.1,0-0.2c0,0,0-0.1,0-0.1h-0.3l-0.3,1.5h-0.4
			L342.2,141.4z M346.5,141.4h1l-0.1,0.4h-0.3l-0.5,3h-0.5l0.5-3h-0.3L346.5,141.4z M351.5,141.4h0.6l-0.2,3.4h-0.6l0.1-0.8h-0.3
			l-0.3,0.8h-0.5L351.5,141.4z M355.5,141.4h0.4l-0.6,3.4h-0.4L355.5,141.4z M359.4,141.4h0.4l0.2,1.8l0.3-1.8h0.5l-0.6,3.4h-0.4
			l-0.2-2l-0.4,2h-0.5L359.4,141.4z M364.4,141.4h0.6l0.1,2l0.9-2h0.5l-0.6,3.4h-0.4l0.3-1.8l-0.8,1.8h-0.3l-0.1-1.8l-0.3,1.8h-0.5
			L364.4,141.4z M369.8,141.4h0.9l-0.1,0.4h-0.5l-0.2,1.1h0.5l-0.1,0.4h-0.5l-0.2,1.1h0.5l-0.1,0.4h-0.9L369.8,141.4z M374.2,141.4
			h0.4l0.2,1.8l0.3-1.8h0.5l-0.6,3.4h-0.4l-0.2-2l-0.4,2h-0.5L374.2,141.4z M378.6,141.4h1l-0.1,0.4h-0.3l-0.5,3h-0.5l0.5-3h-0.3
			L378.6,141.4z M342.6,141.8C342.6,141.8,342.6,141.8,342.6,141.8l-0.3,1.1c0,0,0,0,0,0c0,0,0,0.1,0.1,0.1h0.2c0,0,0.2-0.1,0.2-0.1
			l0.2-0.8c0,0-0.1-0.2-0.1-0.2L342.6,141.8L342.6,141.8z M351.5,142.8l-0.3,0.9h0.2L351.5,142.8z"/>
	</g>
	<g>
		<rect x="365" y="63.3" fill="#7F7F7F" width="44.9" height="1.2"/>
		<rect x="365" y="66.4" fill="#7F7F7F" width="26.6" height="1.2"/>
		<rect x="365" y="69.5" fill="#7F7F7F" width="19" height="1.2"/>
		<rect x="365" y="72.5" fill="#7F7F7F" width="13.8" height="1.2"/>
		<rect x="365" y="75.4" fill="#7F7F7F" width="10" height="1.2"/>
		<rect x="365" y="78.4" fill="#7F7F7F" width="6" height="1.2"/>
		<rect x="365" y="81.4" fill="#7F7F7F" width="3" height="1.2"/>
		<rect x="365" y="84.4" fill="#7F7F7F" width="1" height="1.2"/>
		<rect x="397" y="66.4" fill="#7F7F7F" width="12.9" height="1.2"/>
		<rect x="389.1" y="69.5" fill="#7F7F7F" width="20.8" height="1.2"/>
		<rect x="384" y="72.5" fill="#7F7F7F" width="25.9" height="1.2"/>
		<rect x="380.1" y="75.4" fill="#7F7F7F" width="29.8" height="1.2"/>
		<rect x="407" y="78.4" fill="#7F7F7F" width="2.9" height="1.2"/>
		<rect x="391" y="78.4" fill="#7F7F7F" width="11" height="1.2"/>
		<rect x="376" y="78.4" fill="#7F7F7F" width="9.9" height="1.2"/>
		<rect x="407" y="81.4" fill="#7F7F7F" width="2.9" height="1.2"/>
		<rect x="391" y="81.4" fill="#7F7F7F" width="6" height="1.2"/>
		<rect x="373" y="81.4" fill="#7F7F7F" width="8" height="1.2"/>
		<rect x="405" y="84.4" fill="#7F7F7F" width="4.9" height="1.2"/>
		<rect x="389.1" y="84.4" fill="#7F7F7F" width="3.8" height="1.2"/>
		<rect x="371" y="84.4" fill="#7F7F7F" width="6" height="1.2"/>
		<rect x="403" y="87.4" fill="#7F7F7F" width="7" height="1.2"/>
		<rect x="387" y="87.4" fill="#7F7F7F" width="4" height="1.2"/>
		<rect x="368" y="87.4" fill="#7F7F7F" width="7" height="1.2"/>
		<rect x="400" y="90.4" fill="#7F7F7F" width="9.9" height="1.2"/>
		<rect x="384" y="90.4" fill="#7F7F7F" width="4.9" height="1.2"/>
		<rect x="366" y="90.4" fill="#7F7F7F" width="6.9" height="1.2"/>
		<rect x="365" y="96.5" fill="#7F7F7F" width="44.9" height="1.2"/>
		<rect x="404" y="99.4" fill="#7F7F7F" width="5.9" height="1.2"/>
		<rect x="386" y="99.4" fill="#7F7F7F" width="8.8" height="1.2"/>
		<rect x="402" y="102.4" fill="#7F7F7F" width="7.8" height="1.2"/>
		<rect x="385" y="102.4" fill="#7F7F7F" width="6" height="1.2"/>
		<rect x="400" y="105.4" fill="#7F7F7F" width="9.8" height="1.2"/>
		<rect x="383" y="105.4" fill="#7F7F7F" width="6" height="1.2"/>
		<rect x="398" y="108.4" fill="#7F7F7F" width="11.9" height="1.2"/>
		<rect x="381" y="108.4" fill="#7F7F7F" width="5.9" height="1.2"/>
		<rect x="395" y="111.4" fill="#7F7F7F" width="14.9" height="1.2"/>
		<rect x="378" y="111.4" fill="#7F7F7F" width="7" height="1.2"/>
		<rect x="390" y="114.4" fill="#7F7F7F" width="19.9" height="1.2"/>
		<rect x="374" y="114.4" fill="#7F7F7F" width="11" height="1.2"/>
		<rect x="365" y="117.4" fill="#7F7F7F" width="44.9" height="1.2"/>
		<rect x="397" y="93.4" fill="#7F7F7F" width="13" height="1.2"/>
		<rect x="365" y="93.4" fill="#7F7F7F" width="6.9" height="1.2"/>
		<rect x="381" y="93.4" fill="#7F7F7F" width="7" height="1.2"/>
		<rect x="365" y="99.4" fill="#7F7F7F" width="13.9" height="1.2"/>
		<rect x="365" y="102.4" fill="#7F7F7F" width="10" height="1.2"/>
		<rect x="365" y="105.4" fill="#7F7F7F" width="7" height="1.2"/>
		<rect x="365" y="108.4" fill="#7F7F7F" width="3.9" height="1.2"/>
		<rect x="365" y="111.4" fill="#7F7F7F" width="2.9" height="1.2"/>
		<rect x="365" y="114.4" fill="#7F7F7F" width="2" height="1.2"/>
	</g>
	<g>
		<path fill="#FFFFFF" d="M105.3,21.6v-4.7h1v3.9h2.4v0.8H105.3z"/>
		<path fill="#FFFFFF" d="M109.4,21.6v-4.8h1v4.8H109.4z"/>
		<path fill="#FFFFFF" d="M114.3,19.8l0.9,0.3c-0.1,0.5-0.4,0.9-0.7,1.2c-0.3,0.3-0.8,0.4-1.3,0.4c-0.6,0-1.2-0.2-1.6-0.6
			s-0.6-1-0.6-1.8c0-0.8,0.2-1.4,0.6-1.9c0.4-0.4,1-0.7,1.6-0.7c0.6,0,1.1,0.2,1.4,0.5c0.2,0.2,0.4,0.5,0.5,0.9l-1,0.2
			c-0.1-0.2-0.2-0.4-0.4-0.6c-0.2-0.1-0.4-0.2-0.7-0.2c-0.4,0-0.6,0.1-0.9,0.4c-0.2,0.3-0.3,0.7-0.3,1.2c0,0.6,0.1,1,0.3,1.3
			c0.2,0.3,0.5,0.4,0.9,0.4c0.3,0,0.5-0.1,0.7-0.2C114.1,20.4,114.3,20.2,114.3,19.8z"/>
		<path fill="#FFFFFF" d="M116.1,21.6v-4.8h3.6v0.8h-2.6v1.1h2.4v0.8h-2.4v1.3h2.7v0.8H116.1z"/>
		<path fill="#FFFFFF" d="M120.6,21.6v-4.8h0.9l2,3.2v-3.2h0.9v4.8h-1l-1.9-3.1v3.1H120.6z"/>
		<path fill="#FFFFFF" d="M128.5,19.8l0.9,0.3c-0.1,0.5-0.4,0.9-0.7,1.2c-0.3,0.3-0.8,0.4-1.3,0.4c-0.6,0-1.2-0.2-1.6-0.6
			s-0.6-1-0.6-1.8c0-0.8,0.2-1.4,0.6-1.9c0.4-0.4,1-0.7,1.6-0.7c0.6,0,1.1,0.2,1.4,0.5c0.2,0.2,0.4,0.5,0.5,0.9l-1,0.2
			c-0.1-0.2-0.2-0.4-0.4-0.6c-0.2-0.1-0.4-0.2-0.7-0.2c-0.4,0-0.6,0.1-0.9,0.4c-0.2,0.3-0.3,0.7-0.3,1.2c0,0.6,0.1,1,0.3,1.3
			c0.2,0.3,0.5,0.4,0.9,0.4c0.3,0,0.5-0.1,0.7-0.2C128.3,20.4,128.5,20.2,128.5,19.8z"/>
		<path fill="#FFFFFF" d="M130.3,21.6v-4.8h3.6v0.8h-2.6v1.1h2.4v0.8h-2.4v1.3h2.7v0.8H130.3z"/>
		<path fill="#FFFFFF" d="M134.8,16.8h1.8c0.4,0,0.7,0,0.9,0.1c0.3,0.1,0.5,0.2,0.7,0.4c0.2,0.2,0.4,0.5,0.5,0.8s0.2,0.7,0.2,1.1
			c0,0.4,0,0.7-0.1,1c-0.1,0.3-0.3,0.6-0.5,0.8c-0.2,0.2-0.4,0.3-0.7,0.4c-0.2,0.1-0.5,0.1-0.9,0.1h-1.8V16.8z M135.8,17.6v3.2h0.7
			c0.3,0,0.5,0,0.6,0c0.2,0,0.3-0.1,0.4-0.2s0.2-0.2,0.3-0.5c0.1-0.2,0.1-0.5,0.1-0.9s0-0.7-0.1-0.9c-0.1-0.2-0.2-0.4-0.3-0.5
			c-0.1-0.1-0.3-0.2-0.4-0.2c-0.1,0-0.4,0-0.8,0H135.8z"/>
		<path fill="#FFFFFF" d="M117.9,24.8h1.9c0.4,0,0.7,0,0.9,0c0.2,0,0.4,0.1,0.5,0.2c0.1,0.1,0.3,0.2,0.4,0.4
			c0.1,0.2,0.1,0.4,0.1,0.6c0,0.2-0.1,0.4-0.2,0.6c-0.1,0.2-0.3,0.3-0.5,0.4c0.3,0.1,0.5,0.2,0.7,0.4c0.2,0.2,0.2,0.4,0.2,0.7
			c0,0.2-0.1,0.4-0.2,0.6c-0.1,0.2-0.2,0.4-0.4,0.5c-0.2,0.1-0.4,0.2-0.7,0.2c-0.2,0-0.6,0-1.2,0h-1.6V24.8z M118.8,25.6v1.1h0.6
			c0.4,0,0.6,0,0.7,0c0.2,0,0.3-0.1,0.4-0.2c0.1-0.1,0.1-0.2,0.1-0.4c0-0.1,0-0.3-0.1-0.4s-0.2-0.1-0.4-0.2c-0.1,0-0.4,0-0.8,0
			H118.8z M118.8,27.5v1.3h0.9c0.4,0,0.6,0,0.7,0c0.1,0,0.3-0.1,0.4-0.2s0.1-0.2,0.1-0.4c0-0.1,0-0.3-0.1-0.4
			c-0.1-0.1-0.2-0.2-0.3-0.2c-0.1,0-0.4-0.1-0.9-0.1H118.8z"/>
		<path fill="#FFFFFF" d="M124,29.6v-2l-1.8-2.8h1.1l1.1,1.9l1.1-1.9h1.1l-1.8,2.8v2H124z"/>
	</g>
</g>
</svg>
