<?xml version="1.0" encoding="UTF-8" standalone="no"?>
<!-- Created with Inkscape (http://www.inkscape.org/) -->

<svg
   xmlns:dc="http://purl.org/dc/elements/1.1/"
   xmlns:cc="http://creativecommons.org/ns#"
   xmlns:rdf="http://www.w3.org/1999/02/22-rdf-syntax-ns#"
   xmlns:svg="http://www.w3.org/2000/svg"
   xmlns="http://www.w3.org/2000/svg"
   xmlns:sodipodi="http://sodipodi.sourceforge.net/DTD/sodipodi-0.dtd"
   xmlns:inkscape="http://www.inkscape.org/namespaces/inkscape"
   version="1.1"
   id="svg2"
   width="1280"
   height="320"
   viewBox="0 0 1280 320"
   sodipodi:docname="SNES.svg"
   inkscape:version="0.92.3 (2405546, 2018-03-11)">
  <metadata
     id="metadata8">
    <rdf:RDF>
      <cc:Work
         rdf:about="">
        <dc:format>image/svg+xml</dc:format>
        <dc:type
           rdf:resource="http://purl.org/dc/dcmitype/StillImage" />
        <dc:title></dc:title>
      </cc:Work>
    </rdf:RDF>
  </metadata>
  <defs
     id="defs6" />
  <sodipodi:namedview
     pagecolor="#ffffff"
     bordercolor="#666666"
     borderopacity="1"
     objecttolerance="10"
     gridtolerance="10"
     guidetolerance="10"
     inkscape:pageopacity="0"
     inkscape:pageshadow="2"
     inkscape:window-width="1920"
     inkscape:window-height="1017"
     id="namedview4"
     showgrid="false"
     inkscape:zoom="0.2703125"
     inkscape:cx="640"
     inkscape:cy="160"
     inkscape:window-x="-4"
     inkscape:window-y="-4"
     inkscape:window-maximized="1"
     inkscape:current-layer="g12" />
  <g
     id="g12"
     transform="translate(3.202312,4.508674)">
    <path
       style="fill:#fc9da2"
       d="M 30,288 V 262 H 637.5 1245 v 26 26 H 637.5 30 Z M 14.058543,225.79092 c -2.442802,-1.26 -5.2859033,-3.45172 -6.3180036,-4.87049 -4.0430958,-5.55778 -3.924784,-8.54798 1.599293,-40.42043 l 5.1995476,-30 14.73031,-0.27673 c 13.554602,-0.25465 14.729249,-0.13493 14.717012,1.5 -0.0073,0.9772 -1.582313,10.2963 -3.5,20.7091 -3.919787,21.28398 -4.084363,23.5112 -2.030753,27.48244 1.519801,2.93898 6.886598,6.08519 10.38008,6.08519 3.255181,0 7.445779,-1.91907 10.450637,-4.78584 3.409488,-3.2528 4.819762,-8.10507 8.264608,-28.4357 l 2.663876,-15.72154 -2.95103,-6.27846 C 65.641053,147.32531 59.659693,136.85 53.972209,127.5 29.995719,88.083593 27.677298,83.181556 27.746729,72.049209 27.78909,65.257288 35.94515,24.877165 38.107483,20.753788 40.749855,15.715023 45.140429,11.238644 50.17645,8.4489596 L 55.5,5.5 82.3102,5.1899358 c 25.71007,-0.2973411 26.99209,-0.22201 31.24302,1.8358275 5.11429,2.4757852 7.7809,5.7876167 9.34901,11.6111387 1.15713,4.297261 0.78224,6.828397 -7.4223,50.113098 L 112.77886,83 H 97.889431 C 88.420812,83 83,82.628098 83,81.978492 83,81.416663 84.35,73.326341 86,64 89.689287,43.146937 89.818867,38.053961 86.75,34.522003 83.613549,30.912262 78.448724,30.265572 72.780541,32.772878 c -7.214535,3.191332 -9.574514,7.258204 -12.439464,21.436498 -3.121876,15.449795 -3.322613,22.534173 -0.751256,26.513262 1.050598,1.625766 4.879957,7.415758 8.509686,12.86665 C 77.438641,107.6142 89.549841,127.8664 95.255975,139 c 4.378761,8.54368 4.804355,9.95299 4.227848,14 -1.761362,12.36448 -10.849982,56.00503 -12.39386,59.51122 -2.166003,4.91906 -6.962234,9.83924 -12.45551,12.7774 -3.914594,2.09378 -5.517063,2.22685 -30.134453,2.5023 -25.426533,0.28451 -26.097963,0.2404 -30.441457,-2 z m 103.400087,0.32942 c -5.11035,-2.32131 -9.17952,-7.11563 -10.07054,-11.86517 -0.50547,-2.69441 4.10647,-31.33552 17.14444,-106.47056 L 142.36845,5 h 14.42418 14.42419 l -0.5377,2.25 c -0.29574,1.2375 -8.26019,45.804887 -17.69879,99.03864 -13.71076,77.32878 -16.91724,97.08245 -15.94826,98.25 0.94871,1.14312 4.0121,1.46136 14.06732,1.46136 12.23468,0 12.92436,-0.10849 14.30322,-2.25 0.79843,-1.24005 9.44947,-46.23898 19.27305,-100.25 L 202.5,5.5 215.75,5.2209749 C 224.93736,5.0275029 229,5.2813218 229,6.0487861 229,8.3622431 191.84855,207.6664 190.80279,210.9631 c -0.6042,1.9047 -3.39833,5.76287 -6.20916,8.57371 -7.93489,7.93489 -10.39631,8.46734 -39.02177,8.44123 -21.18967,-0.0193 -24.55574,-0.24176 -28.11323,-1.8577 z M 201,227.03699 C 201,225.94708 241.74471,11.025722 242.66713,7.25 L 243.21682,5 h 33.57586 c 31.99258,0 33.77905,0.098358 37.88462,2.0858275 5.02764,2.4338424 7.66668,5.7641825 9.26178,11.6879385 1.03579,3.846636 0.36379,8.312738 -6.99538,46.490832 C 312.46602,88.494069 308.01808,109.3 307.05939,111.5 c -2.5857,5.93369 -6.48083,10.03279 -12.2792,12.92225 -5.05388,2.51845 -5.64571,2.57784 -25.72653,2.58176 l -20.55366,0.004 -9.58269,50.24599 -9.58268,50.24599 -14.16732,0.27746 C 206.04106,227.95619 201,227.69271 201,227.03699 Z m 74.59288,-122.46438 c 1.12084,-0.78507 2.77546,-3.14757 3.67694,-5.250005 C 280.85337,95.629425 292,44.194897 292,40.581005 292,39.601452 290.47,37.27 288.6,35.4 c -3.32719,-3.327187 -3.57882,-3.399672 -11.75,-3.384687 -4.5925,0.0084 -8.84585,0.345922 -9.45189,0.75 -1.41397,0.942759 -14.65244,68.408337 -13.83928,70.527397 0.80722,2.10358 2.4227,2.45334 11.96866,2.59129 5.4972,0.0794 8.66985,-0.33392 10.06539,-1.31139 z M 299.4893,225.75 c 0.29007,-1.2375 9.97414,-50.4 21.52016,-109.25 C 332.55548,57.65 342.23529,8.4875 342.52016,7.25 L 343.0381,5 h 29.48095 c 27.41165,0 29.48073,0.1228347 29.47776,1.75 -0.002,0.9625 -0.67976,5.8 -1.50668,10.75 -0.82691,4.95 -1.74586,10.4625 -2.04211,12.25 L 397.90937,33 h -15.43563 c -15.18132,0 -15.4445,0.03707 -15.97341,2.25 -0.29577,1.2375 -3.38964,16.5375 -6.87525,34 L 353.2876,101 h 14.79718 c 8.13845,0 15.04855,0.40671 15.35576,0.9038 0.30722,0.49709 -0.39017,5.88591 -1.54976,11.97516 l -2.10834,11.07136 -15.59329,0.27484 -15.59328,0.27484 -6.24843,37 c -3.43664,20.35 -6.27071,37.1125 -6.29794,37.25 -0.0272,0.1375 6.98175,0.25 15.5755,0.25 h 15.625 l -0.53071,2.75 c -0.2919,1.5125 -1.30177,7.8125 -2.24416,14 L 362.76169,228 h -31.8999 -31.89989 z m 76.98994,0 C 377.20369,222.59926 418,6.254934 418,5.5638831 418,5.2537474 433.20465,5 451.78811,5 c 33.05321,0 33.88498,0.048938 38.24193,2.25 4.98463,2.5181572 8.59239,7.220437 9.58037,12.48687 0.46293,2.467629 -1.63831,15.456318 -7.05959,43.638246 -4.24529,22.068686 -8.16344,41.580144 -8.707,43.358794 -1.30269,4.26265 -7.53739,9.47858 -15.45062,12.92596 -5.99439,2.61143 -8.03583,4.34013 -5.12533,4.34013 2.59281,0 8.79174,5.19653 10.72917,8.9942 1.10163,2.15937 1.98688,5.40655 1.96724,7.21596 -0.0196,1.80941 -3.53844,22.18984 -7.81953,45.28984 l -7.78381,42 -14.18047,0.27746 C 436.83846,227.96024 432,227.69952 432,227.01333 c 0,-0.57288 3.40723,-18.69773 7.57162,-40.27746 6.62604,-34.33594 7.50548,-40.18632 7.04204,-46.84653 -0.29126,-4.18587 -1.07749,-8.81324 -1.74718,-10.28305 -1.21531,-2.66731 -1.23656,-2.67184 -11.20531,-2.38933 l -9.98769,0.28304 -7.19464,38 c -3.95706,20.9 -8.22108,43.5125 -9.47559,50.25 L 404.7223,228 h -14.3802 -14.3802 z m 71.53093,-122 c 1.81826,-1.2375 4.11345,-3.375 5.10041,-4.75 C 454.92712,96.469262 466,46.708389 466,41.075695 466,39.044026 464.96878,37.301761 462.4652,35.103592 459.15412,32.196426 458.43404,32 451.08765,32 c -5.07966,0 -8.19147,0.44039 -8.83253,1.25 C 441.16338,34.628784 429,97.037773 429,101.26061 c 0,3.54035 2.30885,4.67264 9.60212,4.70898 4.71597,0.0235 6.85308,-0.4807 9.40805,-2.21959 z M 526,227.18833 C 526,226.36305 564.86663,21.073493 567.07205,10.25 L 568.1418,5 h 14.20105 14.20106 l 6.95299,55.975053 c 3.82415,30.786279 7.2241,55.648777 7.55544,55.249997 C 611.5845,115.58459 632.0714,7.6438978 632.02025,5.75 632.00911,5.3375 639.46075,5 648.57946,5 h 16.57945 l -0.57486,2.75 c -0.31617,1.5125 -9.35974,49.1 -20.09682,105.75 -10.73708,56.65 -20.0227,105.5875 -20.63471,108.75 l -1.11273,5.75 h -14.3699 c -10.84098,0 -14.36449,-0.30697 -14.3479,-1.25 0.0761,-4.32396 -9.30449,-119.58673 -9.84937,-121.02308 -0.38184,-1.00656 -6.0765,24.93207 -13.17262,60 L 558.5,227.5 542.25,227.77477 C 533.3125,227.9259 526,227.662 526,227.18833 Z m 111,0.29215 C 637,226.16332 679.07346,5.5932089 679.38393,5.2827416 679.57056,5.096103 686.01229,5.068634 693.69887,5.2216994 L 707.67448,5.5 l -21.08898,111 -21.08898,111 -14.24826,0.27746 C 643.41172,227.93006 637,227.79642 637,227.48048 Z m 43,-0.93765 C 680,224.90713 720.76091,9.6247495 721.61491,6.75 722.07837,5.1898656 723.67589,5 736.33934,5 h 14.20457 l 6.95299,55.975053 c 3.82415,30.786279 7.22496,55.648777 7.55737,55.249997 C 765.38667,115.82627 770.05274,91.65 775.42331,62.5 780.79388,33.35 785.41947,8.4875 785.7024,7.25 786.21029,5.0285566 786.42586,5 802.68786,5 h 16.47105 l -0.57655,2.75 c -0.31711,1.5125 -9.36211,49.1 -20.1,105.75 -10.7379,56.65 -20.02275,105.5875 -20.63301,108.75 l -1.10956,5.75 h -14.3699 c -10.83698,0 -14.36633,-0.30732 -14.35539,-1.25 0.0535,-4.61429 -9.29898,-119.60912 -9.84383,-121.03595 -0.3931,-1.02945 -5.97441,24.38573 -13.17632,60 L 712.5,227.5 l -16.25,0.27477 c -13.93155,0.23557 -16.25,0.0598 -16.25,-1.23194 z m 128,1.05614 c 0,-0.24782 7.65,-43.53197 17,-96.187 9.35,-52.655029 17,-96.338417 17,-97.074194 C 842,33.324344 839.91289,33 833.39159,33 c -8.42307,0 -8.5966,-0.04844 -8.05997,-2.25 0.30165,-1.2375 1.52671,-7.5375 2.72237,-14 L 830.22792,5 h 33.49445 33.49445 l -0.55009,2.25 c -0.30254,1.2375 -1.3317,7.521152 -2.28701,13.963672 l -1.73693,11.713672 -8.53153,0.286328 -8.53153,0.286328 -17.54525,97 -17.54525,97 -16.24462,0.27477 C 815.31008,227.9259 808,227.84678 808,227.59897 Z m 56,-1.1244 c 0,-1.66564 43.03218,-220.8077679 43.44407,-221.2396839 0.13905,-0.1458126 13.50025,-0.1458126 29.69154,0 L 966.57433,5.5 964.50136,19 l -2.07297,13.5 -15.59819,0.274804 -15.59818,0.274804 -6.20775,31.725196 C 921.61002,82.223662 918.58403,97.5125 918.29986,98.75 l -0.51668,2.25 h 14.94175 c 8.21795,0 15.17063,0.22889 15.45038,0.50865 0.27976,0.27975 -0.43822,5.56725 -1.59551,11.75 l -2.10416,11.24135 -15.73782,0.27539 c -11.5861,0.20275 -15.74308,0.59845 -15.75774,1.5 -0.011,0.67354 -2.84922,17.53711 -6.30724,37.47461 l -6.2873,36.25 h 15.30723 C 928.68101,200 931,200.22888 931,201.51077 c 0,1.58761 -2.64508,19.02373 -3.60128,23.73923 L 926.84109,228 H 895.42054 C 867.92499,228 864,227.80945 864,226.47457 Z M 936.47148,225.75 C 937.59631,220.7834 978,7.042256 978,6.0583141 978,5.362706 982.95392,5 992.45469,5 h 14.45471 l 0.5676,3.25 c 0.3122,1.7875 3.4904,27.1 7.0626,56.25 3.5723,29.15 6.5997,53.33088 6.7277,53.7353 0.128,0.40441 4.9768,-24.795586 10.7752,-56.000001 L 1042.585,5.5 1058.7925,5.2252287 1075,4.9504574 1074.956,7.2252287 C 1074.9322,8.4763529 1065.5784,58.55 1054.1701,118.5 l -20.7424,109 -14.1485,0.27706 -14.1485,0.27706 -0.5577,-4.27706 c -0.3067,-2.35238 -2.6023,-30.37706 -5.10126,-62.27706 -2.49896,-31.9 -4.64668,-58.35783 -4.77271,-58.79517 -0.12603,-0.43734 -5.76735,26.78766 -12.53626,60.5 -6.76892,33.71234 -12.52997,62.08267 -12.80234,63.04517 -0.44588,1.57568 -2.13394,1.75 -16.94687,1.75 H 935.9619 Z m 111.58562,0 c 0.031,-1.2375 9.3981,-51.3 20.8148,-111.25 l 20.7577,-109 32.4352,-0.2972981 c 21.0326,-0.1927829 33.7377,0.080245 36.1401,0.7766393 7.5876,2.1993744 12.7951,8.9553818 12.7951,16.5997138 0,4.1153 -33.2662,181.727755 -35.1969,187.920945 -1.76,5.64537 -10.0368,13.71015 -16.2397,15.82371 -4.2157,1.43642 -9.6878,1.67629 -38.2415,1.67629 H 1048 l 0.057,-2.25 z m 51.6278,-20.81362 c 3.4242,-1.29375 8.0065,-5.50407 9.8686,-9.06759 C 1111.0677,192.97125 1139,47.100296 1139,42.090482 c 0,-2.157795 -1.0554,-4.271698 -3.4224,-6.855167 -3.4009,-3.711751 -3.4791,-3.737496 -12.3995,-4.081062 l -8.9771,-0.345748 -0.589,2.845748 C 1111.9751,41.563418 1082,203.92705 1082,204.88429 c 0,1.4565 13.8598,1.49733 17.6849,0.0521 z m 62.7162,21.15819 c -5.7369,-2.60537 -8.7155,-7.16559 -9.1634,-14.02917 -0.4734,-7.25416 30.5581,-185.725461 33.2961,-191.495288 2.538,-5.348555 7.8047,-10.353418 13.864,-13.1748374 4.9875,-2.3223141 5.7327,-2.3759564 33.1403,-2.3855057 27.1002,-0.00944 28.1871,0.065494 32.4919,2.2402311 5.0138,2.5328832 8.5932,7.224717 9.5981,12.580929 0.496,2.644344 -3.9166,28.043559 -16.5287,95.138251 -9.463,50.34195 -17.93,93.5382 -18.8156,95.99167 -0.9089,2.51772 -3.6636,6.51423 -6.3242,9.17478 -7.3012,7.30119 -10.2959,7.8686 -41.3911,7.84241 -23.2582,-0.0196 -26.5104,-0.22264 -30.1674,-1.88347 z m 39.2838,-21.15819 c 3.7575,-1.4197 8.2632,-5.74058 9.8521,-9.44798 1.7585,-4.10329 27.463,-147.016349 27.463,-152.690057 0,-5.47416 -2.5512,-9.165106 -7.4534,-10.782949 -7.4812,-2.46902 -16.2067,2.500353 -18.4299,10.496294 -0.61,2.193572 -7,36.838312 -14.2001,76.988312 -9.107,50.78338 -12.9423,74.35948 -12.6022,77.467 0.8361,7.63963 7.3307,11.00702 15.3705,7.96938 z"
       id="path26"
       inkscape:connector-curvature="0" />
    <path
       style="fill:#fc7b82"
       d="M 30,288 V 262 H 637.5 1245 v 26 26 H 637.5 30 Z M 18.430644,227.09943 C 10.320183,225.05701 5,218.69366 5,211.03533 5,207.38442 13.240012,157.4733 14.622543,152.75 15.079797,151.18783 16.683845,151 29.567388,151 37.505324,151 44,151.14293 44,151.31763 c 0,0.17469 -1.569016,8.83719 -3.486702,19.25 -3.875392,21.04291 -4.255666,26.92748 -1.952594,30.21558 3.518761,5.02373 10.814061,6.55638 17.072271,3.58666 5.863696,-2.7825 7.954195,-7.87231 11.535885,-28.08683 2.974064,-16.78516 3.10439,-18.42622 1.782573,-22.44609 C 68.167089,151.45163 60.596649,138.025 52.128233,124 43.659817,109.975 34.879112,94.675 32.615556,90 28.659812,81.830064 28.501956,81.131105 28.550365,72 28.589134,64.687206 29.573837,58.046674 32.827363,43.15724 35.152012,32.518722 37.923035,22.111026 38.985192,20.029027 41.771342,14.56772 49.389666,8.2587309 55.327554,6.4953675 61.352899,4.7060323 104.1347,4.3542459 110.21895,6.0440063 c 4.42862,1.2299509 9.29109,5.1078397 11.31697,9.0254497 C 123.87142,19.58582 123.30431,25.82968 118,54 115.25561,68.575 113.0079,80.8375 113.0051,81.25 113.0021,81.6625 106.24143,82 97.980948,82 H 82.961896 L 83.47199,79.75 C 85.958058,68.784067 89.885841,41.908404 89.389258,39.261387 87.679381,30.14696 75.664809,28.240552 67.660724,35.813618 c -4.369726,4.134416 -5.413185,6.916312 -8.192745,21.842122 -3.005113,16.136989 -2.72784,20.483922 1.658664,26.00362 6.354813,7.996492 27.527461,42.74899 34.601343,56.79418 2.130268,4.22965 3.479565,8.34279 3.444474,10.5 -0.06839,4.20423 -8.550676,49.02036 -10.846898,57.30955 -1.954977,7.05731 -7.426937,13.62326 -14.086826,16.90316 -4.527003,2.22947 -5.811087,2.34207 -28.738736,2.51993 -13.2,0.10241 -25.38121,-0.16163 -27.069356,-0.58675 z m 101.844406,-0.0262 c -6.87602,-1.72791 -11.6354,-6.97133 -12.69806,-13.98946 -0.3502,-2.31283 5.75572,-39.75756 17.21702,-105.5838 L 142.55367,5.5 156.27683,5.2217804 C 169.44348,4.9548437 170,5.0249841 170,6.951358 c 0,1.1042884 -7.64979,45.104487 -16.99954,97.778222 -9.34975,52.67373 -16.99975,96.79406 -17,98.04517 -6.9e-4,3.42217 4.00907,4.42353 16.22426,4.05171 9.13196,-0.27798 11.01934,-0.62349 12.70849,-2.32646 1.64765,-1.66113 4.96495,-18.43507 19.57877,-99 C 194.18924,52.15 202.33824,7.7125 202.62088,6.75 203.07603,5.2000353 204.61305,5 216.06739,5 223.18032,5 229,5.1344577 229,5.2987948 229,5.463132 220.45798,51.647475 210.01774,107.93067 189.49502,218.56832 190.16571,215.78096 182.7277,221.34806 c -8.13879,6.09162 -8.24032,6.11013 -34.7277,6.33117 -13.475,0.11244 -25.95123,-0.16024 -27.72495,-0.60597 z M 201.42211,225.25 c 0.48068,-2.27512 38.88234,-204.542546 41.1038,-216.5 L 243.22258,5 275.36129,5.00558 c 19.02172,0.0033 33.65655,0.4271222 35.85766,1.0384294 7.80085,2.1665111 12.78358,8.6619496 12.77725,16.6563336 -0.004,4.982087 -15.00635,83.744437 -16.8567,88.497377 -1.55034,3.9823 -7.92521,10.6378 -12.57129,13.1247 -3.74654,2.0054 -5.74845,2.20297 -25.31821,2.49872 -11.6875,0.17663 -21.25071,0.62663 -21.25158,1 -0.002,0.71206 -16.20103,85.84264 -18.06387,94.92886 L 228.8582,228 h -14.00855 -14.00856 z m 75.9199,-122.2446 c 1.38588,-1.64704 2.75172,-3.784537 3.0352,-4.750004 C 281.73055,93.646135 292,43.382446 292,41.367783 c 0,-1.264005 -1.39662,-3.888849 -3.10359,-5.832987 L 285.79282,32 l -8.64641,0.01531 c -4.75553,0.0084 -9.20595,0.370651 -9.88983,0.804953 C 266.15549,33.519516 253,97.179907 253,101.80891 c 0,3.4641 2.10079,4.19109 12.11111,4.19109 9.5586,0 9.75067,-0.047 12.2309,-2.9946 z M 300,226.34614 c 0,-0.92529 9.675,-50.83206 21.5,-110.90394 C 333.325,55.37033 343,5.9459763 343,5.6103073 343,5.2746383 356.33125,5 372.625,5 h 29.625 l -0.54326,2.75 c -0.29879,1.5125 -1.31576,7.801382 -2.25994,13.975292 l -1.71668,11.225292 -15.5686,0.274708 L 366.59291,33.5 359.84489,67 c -3.71141,18.425 -6.76981,33.8375 -6.79645,34.25 -0.0266,0.4125 6.9747,0.75 15.55855,0.75 12.06902,0 15.50068,0.28336 15.13805,1.25 -0.25791,0.6875 -1.27481,5.8625 -2.25976,11.5 L 379.69446,125 h -15.62155 -15.62156 l -5.83599,34.75 c -3.2098,19.1125 -6.0676,35.9875 -6.35068,37.5 L 335.75,200 h 15.56213 15.56213 l -0.57978,3.75 c -0.31888,2.0625 -1.31775,8.25 -2.21971,13.75 l -1.63994,10 -31.21741,0.26425 C 302.52671,228.00711 300,227.89233 300,226.34614 Z m 77,-0.0463 C 377,224.03591 418.038,6.7475298 418.65373,5.7512626 419.4308,4.49393 481.54133,4.85571 486.6713,6.1474499 c 5.94543,1.4970784 10.6867,6.2458641 12.18775,12.2070831 1.05669,4.196497 0.47156,8.146559 -6.94216,46.864117 -5.31657,27.765389 -8.69749,43.13965 -9.84779,44.78135 -2.31518,3.30423 -8.19532,7.19923 -15.51084,10.27435 l -5.94173,2.49764 5.06501,2.56663 c 6.77389,3.43259 9.7184,8.23686 9.59877,15.66138 -0.0706,4.38038 -8.96504,55.0068 -14.36252,81.75 L 459.8582,228 h -14.00855 -14.00856 l 0.58299,-2.75 c 0.32065,-1.5125 3.76688,-19.4 7.65831,-39.75 6.09809,-31.88964 7.01406,-38.10494 6.63184,-45 -0.24392,-4.4 -0.94326,-9.2375 -1.55411,-10.75 -1.11054,-2.7498 -1.11138,-2.75 -11.39721,-2.75 h -10.28658 l -9.48817,50.25 -9.48816,50.25 -13.75,0.27822 C 378.19604,228.03224 377,227.90364 377,226.2998 Z m 73.54365,-124.5498 4.42723,-4.25 6.01345,-28.427219 c 5.71605,-27.021316 5.93314,-28.55446 4.38955,-31 -3.23707,-5.128531 -5.30436,-6.027816 -13.87388,-6.035232 -4.4,-0.0038 -8.50899,0.323686 -9.13109,0.727764 C 441.74682,33.169391 438.44599,48.125 435.03375,66 431.6215,83.875 428.61044,99.44781 428.3425,100.60624 427.451,104.46067 430.38687,106 438.62964,106 c 7.44684,0 7.5104,-0.0227 11.91401,-4.25 z m 76.12445,125.5 C 526.42064,226.8375 535.16591,179.475 546.10204,122 557.03817,64.525 566.48527,14.6875 567.09561,11.25 L 568.20531,5 h 13.89734 c 7.64354,0 13.93429,0.1125 13.97944,0.25 0.0452,0.1375 3.36005,26.125 7.36645,57.75 5.19494,41.00693 7.48964,56.49607 8.00006,54 0.39364,-1.925 5.29867,-27.8 10.90007,-57.5 l 10.18435,-54 h 15.98349 c 13.6295,0 15.95413,0.220915 15.78411,1.5 -0.47612,3.581902 -41.36511,218.62632 -41.78912,219.77835 -0.35776,0.97207 -3.76987,1.21166 -14.241,1 L 594.5,227.5 l -5.09341,-63 c -2.80138,-34.65 -5.3816,-62.325 -5.73384,-61.5 -0.35223,0.825 -6.06362,28.5 -12.69198,61.5 -6.62835,33 -12.29095,60.7875 -12.58355,61.75 -0.47658,1.56771 -2.1334,1.75 -15.90559,1.75 -8.45548,0 -15.57606,-0.3375 -15.82353,-0.75 z m 111.03362,0 C 637.30472,226.5348 678.38586,9.0428015 679.43375,6.3120399 680.15345,4.436538 707,4.4045673 707,6.2792122 707,7.5037458 666.6095,221.10443 665.4995,225.75 c -0.52443,2.19487 -0.86645,2.25 -13.95954,2.25 -7.38206,0 -13.60927,-0.3375 -13.83824,-0.75 z m 42.76905,-3 c 1.91539,-10.35933 39.70745,-209.482068 40.61565,-214 L 722.1418,5 h 13.9291 c 7.661,0 13.96855,0.1125 14.01676,0.25 0.0482,0.1375 3.34976,26.125 7.33676,57.75 6.90629,54.7808 7.30331,57.2399 8.39541,52 0.63048,-3.025 5.45797,-28.675 10.72776,-57 5.26979,-28.325 9.92455,-51.8496402 10.3439,-52.2769783 0.41936,-0.427338 7.70283,-0.652338 16.18549,-0.5 C 816.10406,5.4569719 818.46877,5.7330225 818.29895,7 817.813,10.625662 776.9323,225.63148 776.51081,226.77835 c -0.35725,0.97209 -3.76891,1.21167 -14.24031,1 L 748.5,227.5 l -5.09177,-63 c -2.80047,-34.65 -5.3834,-62.325 -5.73985,-61.5 -0.35644,0.825 -6.06978,28.5 -12.6963,61.5 -6.62652,33 -12.28642,60.7875 -12.57754,61.75 -0.47546,1.57196 -2.16162,1.75 -16.57322,1.75 h -16.0439 l 0.69335,-3.75 z m 128.24696,3 c -0.22017,-0.4125 7.3262,-44.175 16.76971,-97.25 L 842.65746,33.5 833.98864,33 825.31982,32.5 827.92377,19 830.52772,5.5 863.26386,5.2363357 896,4.9726713 895.996,7.2363357 C 895.99192,9.5212144 893.44073,26.585879 892.48065,30.75 891.99286,32.865688 891.45563,33 883.48095,33 877.84795,33 875,33.3791 875,34.128928 875,35.293757 841.41761,221.73596 840.48478,225.75 c -0.51439,2.21347 -0.7733,2.25 -15.94482,2.25 -8.48206,0 -15.60206,-0.3375 -15.82223,-0.75 z M 864,227.19441 C 864,225.99396 906.9655,7.7056067 907.48829,6.25 907.83343,5.289014 914.64961,5 936.96862,5 962.19957,5 966,5.197771 966,6.5107652 966,8.0983818 963.35492,25.534496 962.39872,30.25 L 961.84109,33 H 946.4396 c -15.15202,0 -15.40987,0.03645 -15.91865,2.25 C 928.88898,42.350299 918,98.957832 918,100.34153 918,101.81245 919.6963,102 933,102 c 11.33342,0 14.99996,0.30555 14.99983,1.25 -1.7e-4,1.25484 -2.52779,15.28904 -3.51203,19.5 -0.5173,2.21318 -0.77797,2.25 -15.9274,2.25 h -15.40149 l -0.55706,2.75 c -0.30638,1.5125 -3.04768,17.375 -6.09178,35.25 -3.04411,17.875 -5.76276,33.5125 -6.04145,34.75 L 899.9619,200 h 15.51905 c 8.53548,0 15.51896,0.3375 15.51885,0.75 -5.1e-4,1.96235 -4.10559,25.61216 -4.57852,26.37738 C 925.74309,228.22471 864,228.29102 864,227.19441 Z M 937.0389,225.75 c 0.0214,-1.2375 9.37343,-51.3 20.78229,-111.25 L 978.56458,5.5 992.78229,5.2225434 C 1000.602,5.0699423 1007,5.2319333 1007,5.5825235 c 0,1.6770796 14.0537,113.8045465 14.2941,114.0448665 0.1517,0.15177 4.7287,-23.66481 10.1711,-52.925726 C 1036.9076,37.440749 1041.7658,11.5875 1042.2612,9.25 L 1043.162,5 h 15.919 C 1069.8807,5 1075,5.3497155 1075,6.0874799 1075,7.1130705 1034.5798,220.94708 1033.478,225.75 c -0.505,2.20143 -0.8179,2.25 -14.4971,2.25 -7.9726,0 -13.9809,-0.40048 -13.9809,-0.93188 0,-2.9179 -10.07144,-125.47289 -10.3327,-125.73415 -0.1735,-0.1735 -5.86252,27.24288 -12.64228,60.92529 -6.77975,33.68241 -12.69778,62.25324 -13.15117,63.49074 -0.80651,2.20131 -1.16028,2.25 -16.3491,2.25 -15.4446,0 -15.52455,-0.0116 -15.48585,-2.25 z M 1048,227.08741 c 0,-1.10882 40.7239,-215.934531 41.6831,-219.8857006 l 0.558,-2.2982907 34.1294,0.2982907 c 32.3347,0.2826037 34.3134,0.4063128 37.6261,2.3523568 4.2313,2.4856708 7.7213,7.4255428 8.6162,12.1955918 0.4769,2.541773 -4.2706,29.649275 -17.006,97.102132 -19.037,100.82964 -18.5948,99.04421 -25.8791,104.49627 -8.4323,6.31129 -7.1266,6.12344 -44.9777,6.4713 -23.8331,0.21903 -34.75,-0.0109 -34.75,-0.73195 z m 54.5751,-23.57856 c 2.338,-1.37014 5.194,-4.01727 6.3468,-5.88253 1.579,-2.55487 5.547,-21.5904 16.0871,-77.17356 7.695,-40.580204 13.991,-75.305413 13.991,-77.167134 0,-1.86172 -0.6826,-4.704982 -1.5169,-6.318359 C 1135.1801,32.513903 1131.2695,31 1122.0687,31 c -7.5008,0 -8.0663,0.148428 -8.5724,2.25 -0.2979,1.2375 -7.5006,39.825 -16.0058,85.75 -8.5052,45.925 -15.6528,84.2875 -15.8836,85.25 -0.3749,1.56316 0.4952,1.75 8.1489,1.75 7.3274,0 9.1842,-0.36084 12.8193,-2.49115 z m 63.8555,23.58846 C 1158.5523,225.11879 1153,218.68885 1153,211.54373 c 0,-7.31588 32.012,-187.646894 34.0037,-191.551065 2.7694,-5.428385 10.4007,-11.7383122 16.3239,-13.4972975 6.0898,-1.8084917 53.7518,-2.1564247 59.9413,-0.4375722 5.4021,1.500209 10.2488,6.7505777 11.6356,12.6048387 1.0723,4.526442 0.02,10.793797 -16.3737,97.507726 -9.6359,50.9687 -17.9275,93.7187 -18.4258,95 -2.1153,5.43888 -7.0793,10.67018 -12.7822,13.47047 L 1221.5,227.5 l -26,0.18407 c -14.3,0.10123 -27.3812,-0.16281 -29.0694,-0.58676 z m 37.9923,-23.49925 c 7.5332,-4.41475 7.3051,-3.53213 22.0968,-85.52371 14.715,-81.566295 14.4354,-78.949548 8.9839,-84.070957 -3.6867,-3.463492 -10.9897,-3.859675 -15.5036,-0.841065 -6.5837,4.402745 -7.0039,6.088155 -20.9718,84.116012 -7.1655,40.02808 -13.0282,75.0502 -13.0282,77.82692 0,4.24668 0.4643,5.51288 2.9231,7.97166 3.7924,3.79246 9.5854,3.98723 15.4998,0.52114 z"
       id="path24"
       inkscape:connector-curvature="0" />
    <path
       style="fill:#fb5c64"
       d="M 30,288 V 262 H 637.5 1245 v 26 26 H 637.5 30 Z M 12.989831,224.75 C 8.2177996,221.50218 5.8477137,217.84008 5.2974507,212.86424 4.9115277,209.37446 11.464288,167.10369 14.538772,153.25 15.028508,151.04324 15.31639,151 29.519052,151 c 7.964521,0 14.475711,0.1125 14.469311,0.25 -0.0064,0.1375 -1.782155,9.85105 -3.946121,21.58567 -4.475419,24.26902 -4.328344,26.71635 1.855641,30.87777 6.979053,4.69646 16.270586,1.96769 20.373499,-5.98335 2.607596,-5.05326 8.260039,-37.08989 7.375405,-41.80195 C 68.933304,152.12773 62.715394,140.97716 45.989643,113.50382 27.52555,83.175121 26.009628,77.975031 29.921539,58.385156 37.152577,22.173912 38.448892,18.325099 45.499005,12.135018 52.3827,6.0910527 54.350192,5.683741 78.885226,5.2233734 c 25.647244,-0.4812366 31.736974,0.03864 36.222364,3.092278 9.29337,6.3269026 9.50059,9.6170786 2.84875,45.2312396 L 112.642,82 H 97.978019 83.31404 l 3.526351,-20.75 c 3.438254,-20.231613 3.483092,-20.840223 1.794788,-24.361443 -3.835762,-8.000078 -14.716161,-7.881729 -22.26656,0.242201 -3.733739,4.017355 -4.607713,6.653447 -7.401965,22.325899 -2.584454,14.495729 -2.14382,18.71405 2.604384,24.932585 7.238201,9.479585 29.936591,47.061808 35.028625,57.997658 1.309439,2.81221 2.385195,6.79195 2.390568,8.84389 0.01637,6.25059 -10.640295,58.16539 -12.803242,62.37204 -2.474584,4.81274 -6.389368,8.5268 -11.897151,11.28715 C 70.319131,226.87999 68.550187,227 43.187721,227 c -26.24175,0 -26.971887,-0.0544 -30.19789,-2.25 z m 103.026749,0.39856 c -1.89872,-1.0183 -4.28407,-2.96563 -5.30078,-4.3274 -4.03011,-5.39789 -3.90465,-8.29742 1.78444,-41.24235 C 133.0059,60.832624 142.16553,8.2663288 142.61548,6.75 143.07663,5.1959594 144.63892,5 156.56739,5 168.31203,5 170,5.2046458 170,6.6285377 170,7.5242335 162.35,51.341392 153,104 c -9.35,52.65861 -17,96.90993 -17,98.33628 0,3.81811 2.60863,4.66372 14.38721,4.66372 12.49262,0 15.25314,-0.98142 16.63673,-5.91471 C 167.57699,199.11338 175.6742,155.2 185.01776,103.5 194.36132,51.8 202.23826,8.4875 202.52208,7.25 203.02491,5.0575459 203.37288,5 216.12746,5 229.19798,5 229.21602,5.00324 228.66655,7.25 228.3639,8.4875 219.73668,54.725 209.49495,110 189.4085,218.40733 190.03022,215.82422 182.67388,221.43517 175.69954,226.75476 174.07306,227 145.76652,227 c -23.68463,0 -26.64076,-0.18397 -29.74994,-1.85144 z m 85.57253,0.10144 c 0.22102,-0.9625 9.65089,-50.54106 20.95525,-110.17457 11.30437,-59.633521 20.78296,-108.7960209 21.06353,-109.2500048 0.69598,-1.1261117 61.91156,-1.0051281 66.81472,0.1320495 7.84355,1.8191389 12.71396,7.4026193 13.30332,15.2510543 0.50401,6.711902 -14.77287,86.022301 -17.64186,91.588291 -2.26461,4.39344 -7.22972,9.25878 -12.08407,11.84123 -3.03192,1.61294 -6.34193,1.9049 -24.75,2.18309 -11.6875,0.17663 -21.25,0.48371 -21.25,0.68241 0,0.50737 -17.90986,94.4982 -18.53022,97.24645 -0.49681,2.20094 -0.81069,2.25 -14.39521,2.25 -12.71245,0 -13.85333,-0.14805 -13.48546,-1.75 z m 75.11161,-121.5 c 1.12715,-1.2375 2.50612,-3.15 3.06439,-4.25 1.20304,-2.370432 12.44433,-54.954082 12.46834,-58.323425 0.009,-1.293607 -1.4555,-3.842197 -3.30462,-5.75 C 285.6184,32.011072 285.5778,32 276.36285,32 c -5.29469,0 -9.51821,0.442365 -9.88467,1.035304 C 265.66124,34.357149 253,98.656284 253,101.48323 253,105.28964 254.8913,106 265.02569,106 c 8.70831,0 9.821,-0.21444 11.67503,-2.25 z M 300,226.15756 C 300,224.36988 343.04788,6.7315502 343.5679,5.890134 343.87047,5.4005603 357.19026,5 373.16743,5 h 29.04939 l -0.53669,2.25 c -0.29518,1.2375 -1.31939,7.5375 -2.27602,14 L 397.66477,33 h -15.60221 -15.60222 l -6.41601,32.246753 c -3.52881,17.735714 -6.60761,33.249032 -6.84179,34.47404 -0.42355,2.215687 -0.34556,2.228727 14.9717,2.503247 l 15.39747,0.27596 -2.00614,11.25 -2.00613,11.25 h -15.5971 -15.5971 l -6.21194,36.75 c -3.41656,20.2125 -6.19874,37.07607 -6.18262,37.47461 0.0161,0.39853 6.90181,0.84853 15.30152,1 L 366.5444,200.5 364.55627,213.75 362.56815,227 H 331.28408 C 314.07783,227 300,226.6209 300,226.15756 Z M 377.54011,222.75 c 0.36446,-2.3375 9.73277,-52.175 20.81846,-110.75 L 418.51436,5.5 h 33.99282 c 33.9232,0 34.00128,0.00485 38.12493,2.3678856 C 495.99112,10.938833 499,16.282635 499,22.729323 c 0,5.324652 -14.26995,80.906177 -16.15798,85.581557 -1.47678,3.65701 -5.74989,6.84471 -14.78579,11.03006 l -7.32012,3.39061 4.88195,2.66569 c 5.03104,2.74711 8.53683,7.02253 9.7447,11.88398 0.43812,1.76338 -1.13745,12.74241 -4.30523,30 -8.34152,45.44338 -10.91996,58.91454 -11.36089,59.35548 -0.23185,0.23184 -6.48141,0.29593 -13.88792,0.14242 L 432.34234,226.5 l 7.33841,-38 c 7.64196,-39.57181 8.67543,-49.19711 6.12082,-57.00649 l -1.30636,-3.99351 -10.55354,-0.28186 -10.55353,-0.28187 -7.24282,38.28187 c -3.98356,21.05502 -8.23339,43.56844 -9.44407,50.02981 L 404.5,226.9959 l -13.81127,0.002 -13.81128,0.002 0.66266,-4.25 z M 448.5285,103.98239 c 1.79551,-1.10969 4.02469,-3.17772 4.95374,-4.595622 0.92904,-1.417906 4.35551,-15.147838 7.61437,-30.51096 5.55091,-26.168432 5.83012,-28.11682 4.42001,-30.843675 -2.54956,-4.930301 -5.11508,-6.033748 -13.98913,-6.01682 -4.41512,0.0084 -8.56325,0.355952 -9.21806,0.77229 -0.65482,0.416337 -4.16126,16.153635 -7.7921,34.971773 -5.13779,26.628499 -6.36266,34.661114 -5.52424,36.227714 1.57229,2.93784 14.77941,2.93467 19.53541,-0.005 z m 78.5703,118.79182 c 0.47668,-2.35081 9.90779,-51.95863 20.95803,-110.23958 C 559.10707,54.253676 568.3664,6.216176 568.63311,5.7846297 568.89982,5.3530834 575.11769,5 582.45061,5 c 13.00707,0 13.34515,0.054932 13.84773,2.25 0.28333,1.2375 3.5778,27.091811 7.32105,57.454025 3.74324,30.362214 7.00008,55.009835 7.23743,54.772495 0.23734,-0.23735 5.23913,-25.979161 11.11507,-57.20403 L 632.65543,5.5 648.32772,5.2246071 c 14.44552,-0.2538364 15.67293,-0.136423 15.68061,1.5 0.005,0.9764661 -9.32446,50.9496139 -20.73121,111.0514429 l -20.73955,109.27604 -14.0113,-0.27604 -14.01131,-0.27605 -4.96891,-62.70523 c -2.7329,-34.48788 -5.21127,-62.46605 -5.50748,-62.17371 -0.29621,0.29235 -6.19897,28.5097 -13.11723,62.70524 l -12.57867,62.1737 -16.05527,0.27421 -16.05527,0.27422 z M 658.21125,117.25 C 669.66581,56.8875 679.24011,6.9375 679.48748,6.25 680.04386,4.7036379 707,4.4287817 707,5.9694706 707,7.2622534 666.05968,223.00688 665.3887,225.25 664.92315,226.80636 663.34484,227 651.125,227 h -13.74022 z m 22.25714,107.52489 C 681.24491,221.37121 722,6.2924732 722,5.5982275 722,5.2692024 728.25122,5 735.89159,5 c 13.58599,0 13.90299,0.049498 14.40944,2.25 0.28482,1.2375 3.57358,27.097523 7.30836,57.466719 3.73478,30.369195 6.97962,55.027611 7.21075,54.796471 0.23114,-0.23114 5.20366,-25.978662 11.05006,-57.21672 L 786.5,5.5 802.25,5.2246071 c 12.22386,-0.2137374 15.7615,0.010145 15.80137,1 0.0283,0.7014661 -9.30008,50.6746179 -20.72964,111.0514529 L 776.54071,227.05211 762.52035,226.77606 748.5,226.5 743.54354,163.78979 c -2.72605,-34.49061 -5.20105,-62.46878 -5.5,-62.1737 -0.29895,0.29508 -6.20394,28.51467 -13.1222,62.71021 l -12.57867,62.1737 -16.19663,0.27489 -16.19664,0.2749 z M 809,225.42189 C 809,223.93097 841.41182,40.035116 842.51798,35.25 843.02607,33.05204 842.84107,33 834.51905,33 c -10.05231,0 -9.52625,1.364252 -6.1696,-16 L 830.57249,5.5 863.28624,5.2363357 896,4.9726713 V 7.11247 c 0,1.1768892 -0.69701,6.470538 -1.5489,11.763664 C 891.90662,34.685832 893.21602,33 883.48095,33 c -4.66452,0 -8.48199,0.3375 -8.48327,0.75 -0.003,0.976614 -33.79077,188.04843 -34.49724,191 -0.52975,2.21325 -0.79141,2.25 -16.01949,2.25 C 811.0462,227 809,226.79141 809,225.42189 Z m 55.02091,1.32811 c 0.0115,-0.1375 9.82305,-49.975 21.80343,-110.75 L 907.60686,5.5 936.80343,5.2348954 c 23.0163,-0.2089878 29.19652,0.00269 29.19633,1 C 965.99963,6.9307029 965.10896,12.9 964.0205,19.5 c -1.08847,6.6 -1.98836,12.3375 -1.99977,12.75 -0.0114,0.4125 -6.98716,0.75 -15.50168,0.75 -15.22334,0 -15.49017,0.03744 -16.03548,2.25 -0.30499,1.2375 -3.38609,16.65 -6.84689,34.25 l -6.29235,32 15.32783,0.27539 C 941.36647,101.9316 948,102.45723 948,102.98993 c 0,0.51654 -0.89864,5.56761 -1.99697,11.22461 -1.09834,5.657 -1.99834,10.39796 -2,10.53546 -0.002,0.1375 -6.96946,0.25 -15.48398,0.25 -15.23919,0 -15.48877,0.0351 -15.982,2.25 -0.27558,1.2375 -2.98976,16.875 -6.03151,34.75 -3.04174,17.875 -5.78559,33.7375 -6.09745,35.25 l -0.567,2.75 H 915.54554 931.25 l -0.52854,2.75 c -0.2907,1.5125 -1.31286,7.5875 -2.27147,13.5 L 926.70707,227 h -31.35354 c -17.24444,0 -31.34412,-0.1125 -31.33262,-0.25 z M 937,225.98694 C 937,224.65608 977.9239,9.0260196 978.60844,6.75 979.07558,5.1968074 980.63879,5 992.50837,5 c 7.35548,0 13.61223,0.386064 13.90383,0.8579201 0.2916,0.471856 3.4622,24.6593559 7.0457,53.7499999 6.9178,56.15851 7.6427,61.46993 8.1746,59.89208 0.1853,-0.55 4.8493,-25.3 10.3642,-55 5.515,-29.7 10.2826,-55.2375 10.5947,-56.75 L 1043.1589,5 h 16.0318 16.0319 l -0.6943,3.75 c -3.1437,16.979022 -40.6208,214.26034 -41.0331,216 -0.5216,2.20062 -0.8402,2.25 -14.5143,2.25 -10.515,0 -13.9823,-0.30988 -13.9866,-1.25 -0.014,-3.16696 -9.99027,-125.0793 -10.25673,-125.34576 -0.16605,-0.16606 -5.61854,26.11255 -12.11664,58.39692 -6.49809,32.28436 -12.2584,60.83634 -12.80068,63.44884 L 968.83427,227 H 952.91714 C 942.83562,227 937,226.62859 937,225.98694 Z M 1048.3237,224.75 c 0.2972,-1.2375 9.5766,-49.95 20.6208,-108.25 11.0443,-58.3 20.3415,-107.2644765 20.6606,-108.8099478 l 0.5801,-2.8099478 33.6574,0.3099478 c 38.0881,0.3507495 38.945,0.5093555 43.9966,8.1435068 2.2192,3.353568 2.6338,5.028954 2.4982,10.093712 -0.2494,9.310496 -33.8642,184.963849 -36.3984,190.198819 -2.3876,4.9321 -6.6343,8.86049 -12.439,11.50657 -3.6233,1.65168 -7.283,1.82548 -38.8584,1.84538 l -34.8584,0.022 0.5405,-2.25 z m 53.715,-20.76975 c 8.209,-4.18789 7.7198,-2.42251 23.039,-83.15281 7.6529,-40.330092 13.9161,-75.404254 13.9183,-77.942581 0.01,-8.774701 -5.0515,-12.146868 -17.5234,-11.680224 l -7.8941,0.295365 -15.6015,84 c -8.5808,46.2 -15.8997,85.4625 -16.2642,87.25 L 1081.05,206 h 8.5148 c 6.5692,0 9.4195,-0.46152 12.4739,-2.01975 z m 58.9511,20.76975 c -4.6055,-3.1345 -7.0484,-6.75451 -7.6504,-11.33658 -0.5863,-4.46304 30.7659,-186.33623 33.0736,-191.859541 2.0663,-4.945222 8.0186,-11.049551 13.3663,-13.7075347 C 1204.4054,5.5470122 1205.0811,5.5 1233.5,5.5 c 28.6718,0 29.0468,0.026797 33.1321,2.3678856 5.3199,3.0485234 8.6073,8.7907144 8.5724,14.9735684 -0.036,6.415385 -33.7928,184.752886 -35.8532,189.414106 -2.208,4.99519 -7.7437,10.56407 -12.7705,12.84712 -3.6698,1.66675 -7.0115,1.85561 -33.1829,1.87536 -28.5517,0.0215 -29.1647,-0.0206 -32.4081,-2.22804 z m 43.0489,-20.76975 c 8.06,-4.11188 7.4932,-1.96797 22.4639,-84.98025 8.6709,-48.080576 13.4015,-76.652564 13.0256,-78.673611 C 1238.6442,35.572962 1232.9502,31 1227.9155,31 c -6.4833,0 -12.5247,4.180768 -14.8286,10.26173 -0.7978,2.105667 -16.437,87.87929 -27.1559,148.93723 -1.0941,6.23212 0.3854,11.80162 3.8296,14.41675 2.6029,1.97632 9.7852,1.65667 14.2781,-0.63546 z"
       id="path22"
       inkscape:connector-curvature="0" />
    <path
       style="fill:#fb0b17"
       d="M 30,288 V 262 H 637.5 1245 v 26 26 H 637.5 30 Z M 14.450423,225.5934 C 10.289526,223.78103 6.2218127,218.69928 5.3922011,214.27707 4.7644275,210.93075 6.886052,196.91305 13.720725,159.25 L 15.217843,151 h 14.458466 c 13.305326,0 14.416171,0.13957 13.928153,1.75 -1.844385,6.08635 -7.644758,41.95331 -7.121687,44.03739 0.349313,1.39178 2.138589,4.03397 3.97617,5.87155 2.888511,2.88852 4.011817,3.34106 8.293172,3.34106 5.801645,0 10.615659,-2.75331 13.52557,-7.73576 1.880941,-3.22062 7.743698,-32.46626 7.881257,-39.31469 0.09412,-4.6858 -3.292337,-11.22987 -21.245063,-41.05447 C 26.783176,81.12968 26.274818,79.559029 30.008486,59.483985 36.428372,24.965791 39.110195,17.068682 46.266061,11.610636 53.323699,6.2275137 54.843019,6 83.733483,6 c 29.869137,0 31.446747,0.3052187 35.992167,6.963364 4.0719,5.964528 3.95314,8.538402 -1.82362,39.523078 L 112.49277,81.5 98.246385,81.777457 c -7.835512,0.152601 -14.261697,-0.0724 -14.280411,-0.5 C 83.94726,80.849855 85.379319,71.725 87.148328,61 90.58782,40.14733 90.524513,37.433604 86.504787,33.413878 81.456619,28.36571 69.454474,31.33392 64.472169,38.86269 c -2.761366,4.172706 -7.484457,25.766434 -7.457427,34.094972 0.01682,5.181666 -0.108189,4.932097 10.104056,20.172389 9.510295,14.192739 21.658338,34.478649 27.609144,46.104289 4.221539,8.2473 4.492198,9.23552 3.902843,14.25001 -0.954889,8.12462 -9.5052,51.37026 -11.180256,56.54733 -2.016857,6.23348 -6.476208,11.3039 -12.645301,14.37809 L 69.607311,227 43.553656,226.96086 C 24.161309,226.93172 16.720295,226.5821 14.450423,225.5934 Z M 116.5,224.97571 c -5.39836,-2.72984 -7.7832,-6.30731 -8.27016,-12.406 C 107.94671,209.02389 112.95849,177.89217 124.90314,109 134.2961,54.825 142.21904,9.4875 142.50967,8.25 143.02541,6.054067 143.36205,6 156.51905,6 c 7.41452,0 13.47045,0.3375 13.45763,0.75 -0.0128,0.4125 -7.84082,44.625 -17.39553,98.25 -15.60923,87.60548 -17.22824,97.72833 -15.95362,99.75 1.34642,2.13556 2.04756,2.25 13.78474,2.25 10.28964,0 12.72805,-0.29386 14.52127,-1.75 1.91749,-1.55704 4.07857,-12.33499 19.59981,-97.75 9.59459,-52.8 17.7104,-97.2375 18.03513,-98.75 L 203.15891,6 h 12.42055 C 226.14162,6 228,6.2323598 228,7.5529883 c 0,0.8541435 -8.36537,46.6262097 -18.58972,101.7157017 -11.85012,63.84927 -19.26712,101.49054 -20.45819,103.82523 -2.49151,4.88376 -9.90083,11.27454 -14.75893,12.73006 -2.55266,0.7648 -12.62645,1.17574 -28.80918,1.17523 -22.99121,-7.3e-4 -25.18824,-0.15464 -28.88398,-2.0235 z m 85.48597,0.77429 c -0.008,-0.6875 9.31407,-50.4125 20.71508,-110.5 L 243.43016,6 277.46508,6.00155 c 37.9459,0.00173 38.74389,0.1283346 43.24064,6.860199 4.26294,6.381843 4.13516,7.942598 -4.18701,51.138247 -4.29156,22.275 -8.40376,42.544664 -9.13824,45.043684 -1.73998,5.92022 -7.18622,12.18973 -13.13314,15.11841 -4.42911,2.1812 -6.13841,2.36053 -25.50022,2.67534 -20.32058,0.33039 -20.7633,0.38247 -21.25261,2.5 C 246.76753,132.48347 229,225.76375 229,226.43435 229,226.74546 222.925,227 215.5,227 c -10.12585,0 -13.50351,-0.31242 -13.51403,-1.25 z m 75.52978,-122.36149 c 3.05534,-3.29677 2.4088,-0.95602 9.45203,-34.220427 5.66049,-26.733833 5.91245,-28.499007 4.46699,-31.294222 C 288.98548,33.137456 284.49702,31.005788 277,31.01848 265.46246,31.038012 266.54452,28.923015 259.3588,65.5 c -3.45759,17.6 -6.3028,33.3725 -6.32267,35.05 -0.0571,4.8206 1.35318,5.45 12.21162,5.45 9.33187,0 9.97453,-0.1368 12.268,-2.61149 z M 300.31515,224.75 c 0.29258,-1.2375 10.10748,-50.9625 21.81089,-110.5 L 343.40497,6 h 29.10444 29.10444 l -2.07978,13.25 -2.07977,13.25 -15.58497,0.274671 -15.58498,0.274671 -6.64258,33.225329 c -3.65342,18.273931 -6.6424,33.787829 -6.64218,34.475329 3.1e-4,0.94443 3.66729,1.25 15.00041,1.25 12.13667,0 15,0.26525 15,1.38953 0,1.61232 -2.85235,17.27216 -3.61747,19.86047 -0.46372,1.56872 -2.11593,1.75 -15.94992,1.75 C 354.94468,125 348,125.15603 348,125.34674 c 0,0.1907 -2.69738,16.2782 -5.99418,35.75 -3.2968,19.47179 -5.9968,36.19076 -6,37.15326 -0.005,1.58915 1.37291,1.75 14.99418,1.75 13.62058,0 14.99963,0.16093 14.99598,1.75 -0.004,1.89529 -2.6689,19.3288 -3.51533,23 L 361.9619,227 h -31.08936 -31.08936 z m 76.72674,1.52822 C 377.06492,225.8502 386.41531,176.225 397.82052,116 L 418.55726,6.5 h 35.14913 c 33.941,0 35.244,0.070866 37.90958,2.0617886 4.49958,3.3607464 6.63465,6.9903224 7.12578,12.1137194 0.32854,3.427225 -1.74934,16.264461 -7.17452,44.324492 -4.20035,21.725 -8.11978,41.00365 -8.70985,42.84144 -1.23032,3.83191 -9.53174,9.76182 -17.85659,12.75539 -2.75044,0.98904 -4.9991,2.04686 -4.99704,2.35071 0.002,0.30385 2.06913,1.40194 4.59349,2.44019 6.36741,2.61886 10.40276,8.30626 10.40276,14.66161 0,2.6121 -3.375,22.99061 -7.5,45.28559 -4.125,22.29497 -7.5,40.79028 -7.5,41.10069 0,0.31041 -6.075,0.56438 -13.5,0.56438 -10.82438,0 -13.5,-0.27405 -13.5,-1.38271 0,-0.76049 3.39355,-19.09799 7.54123,-40.75 7.96096,-41.55839 8.37531,-46.17748 4.89935,-54.61729 L 444.10205,127 h -10.50571 -10.50571 l -0.68837,3.75 c -0.37861,2.0625 -4.60061,24.45 -9.38223,49.75 l -8.69385,46 -13.66309,0.27822 c -7.5147,0.15302 -13.64424,-0.072 -13.6212,-0.5 z M 450.13373,103.0413 c 1.97418,-1.62729 4.09425,-4.214786 4.71127,-5.750001 2.00497,-4.988571 12.30468,-55.558802 11.75875,-57.733932 -0.29165,-1.162033 -1.92635,-3.450318 -3.63267,-5.085078 C 460.03455,31.658922 459.42038,31.5 451.48434,31.5 c -4.94817,0 -8.85207,0.467734 -9.52562,1.141281 C 440.94547,33.654531 428,97.974661 428,101.99579 428,105.13105 430.27255,106 438.47216,106 c 7.46857,0 8.34054,-0.22123 11.66157,-2.9587 z M 526.95266,226.25 c -0.026,-0.4125 9.30456,-50.1375 20.73466,-110.5 L 568.46933,6 h 13.65405 13.65404 l 0.56336,3.25 c 0.30984,1.7875 3.59955,27.724231 7.31046,57.63718 4.0382,32.551143 7.05506,53.62949 7.51411,52.5 C 611.58719,118.34923 616.46444,93.2 622.00368,63.5 627.54292,33.8 632.31346,8.7125 632.6049,7.75 633.07972,6.1818208 634.73819,6 648.56739,6 c 11.70461,0 15.4212,0.3019583 15.38539,1.25 -0.026,0.6875 -9.38477,50.3 -20.79732,110.25 l -20.75009,109 -13.63724,0.27779 -13.63725,0.2778 -0.55739,-4.2778 c -0.63186,-4.84939 -9.53702,-116.9874 -9.64117,-121.40629 -0.0598,-2.537862 -0.17291,-2.639121 -0.97336,-0.8715 -0.49813,1.1 -6.31558,29 -12.92766,62 -6.61209,33 -12.25765,61.0125 -12.54569,62.25 -0.51531,2.21389 -0.77219,2.25 -16.00466,2.25 -8.51452,0 -15.50225,-0.3375 -15.52829,-0.75 z m 111.11694,-1 c 0.0383,-0.9625 9.37845,-50.575 20.75594,-110.25 L 679.51188,6.5 693.28212,6.22161 707.05235,5.94322 706.52613,8.22161 C 706.23671,9.4747245 697.2241,56.85 686.4981,113.5 675.77211,170.15 666.51523,218.8625 665.92725,221.75 L 664.8582,227 h -13.4291 c -12.14946,0 -13.42247,-0.16675 -13.3595,-1.75 z m 42.52993,0 c 0.22677,-0.9625 9.1946,-48.1 19.92852,-104.75 10.73392,-56.65 20.0148,-105.5875 20.62419,-108.75 L 722.26021,6 h 13.7586 13.75861 l 0.56336,3.25 c 0.30984,1.7875 3.59416,27.681041 7.29848,57.541201 3.70432,29.860161 7.03554,53.710159 7.40272,52.999999 0.36718,-0.71016 5.34544,-26.602378 11.06281,-57.538262 L 786.5,6.0058766 l 15.75,-0.00294 c 11.96155,-0.00223 15.73795,0.2977325 15.69991,1.2470617 -0.0276,0.6875 -9.38783,50.2999997 -20.80063,110.2500017 l -20.75054,109 -13.63393,0.27779 -13.63393,0.2778 -0.5703,-4.2778 c -0.61709,-4.62876 -9.51678,-116.94044 -9.62826,-121.50606 -0.0606,-2.480164 -0.16357,-2.561345 -0.97919,-0.77173 -0.50133,1.1 -6.31588,28.90175 -12.92122,61.78167 -6.60533,32.87992 -12.28848,60.89242 -12.62921,62.25 L 711.78318,227 h -15.79797 c -14.53608,0 -15.76504,-0.13978 -15.38568,-1.75 z M 809,226.04956 C 809,225.16118 841.38567,41.746856 842.60141,35.75 l 0.5575,-2.75 h -8.57945 c -10.04419,0 -9.44275,1.458908 -6.18384,-15 l 2.27703,-11.5 32.66367,-0.2636643 c 17.96503,-0.1450154 32.65549,0.079985 32.64548,0.5 C 895.97179,7.156351 895.07998,12.9 894,19.5 c -1.07998,6.6 -1.97179,12.3375 -1.9818,12.75 -0.01,0.4125 -3.80745,0.75 -8.43874,0.75 -8.38045,0 -8.42328,0.01309 -8.99365,2.75 -0.31521,1.5125 -8.00506,43.925 -17.08856,94.25 -9.08351,50.325 -16.77212,92.7375 -17.08581,94.25 L 839.84109,227 H 824.42054 C 815.34289,227 809,226.60906 809,226.04956 Z M 865.70931,219.75 c 0.77973,-3.9875 10.53444,-53.6 21.67712,-110.25 L 907.64585,6.5 936.93517,6.234717 966.22449,5.969434 965.6787,8.234717 C 965.37852,9.4806226 964.36558,15.5625 963.42773,21.75 L 961.72254,33 946.11127,33.011523 930.5,33.023045 924.15268,65.761523 c -3.49103,18.006162 -6.55885,33.525977 -6.81739,34.488477 -0.43306,1.61223 0.76399,1.75 15.20573,1.75 h 15.6758 l -0.53819,2.25 c -0.296,1.2375 -1.28947,6.4013 -2.20772,11.47511 l -1.66954,9.22511 -15.61196,0.27489 -15.61196,0.27489 -6.23607,36 c -3.42984,19.8 -6.25977,36.5625 -6.28873,37.25 -0.04,0.94872 3.69941,1.25 15.51474,1.25 14.35388,0 15.52759,0.13642 15.05692,1.75 -0.28076,0.9625 -1.28651,7.0375 -2.23501,13.5 L 926.66477,227 h -31.18658 -31.18658 z m 71.69873,4.5 c 0.31182,-1.5125 9.59533,-50.45 20.63002,-108.75 C 969.07275,57.2 978.3337,8.7125 978.61795,7.75 979.07774,6.1931129 980.65385,6 992.90068,6 h 13.76592 l 6.7368,55.25 c 5.7683,47.30743 8.1613,63.93967 8.5177,59.19983 0.043,-0.57759 4.8039,-26.38728 10.5789,-57.35487 C 1038.275,32.127371 1043,6.612446 1043,6.3951265 1043,6.1778069 1050.2086,6 1059.0191,6 h 16.019 l -0.5409,2.25 C 1073.9408,10.56415 1033,226.04379 1033,226.65782 1033,226.84602 1026.7,227 1019,227 h -14 l -0.027,-3.25 c -0.046,-5.51771 -9.72512,-123.835455 -10.1668,-124.277135 -0.22867,-0.228673 -6.21554,28.371385 -13.30415,63.555685 L 968.61367,227 h -15.88629 -15.88629 z m 110.98096,1 C 1048.8989,223.5465 1090,7.4675101 1090,6.4904695 1090,6.2207113 1105.3512,6 1124.1138,6 c 32.894,0 34.2486,0.075734 37.8822,2.1178856 4.9451,2.7793134 8.2425,8.6939154 8.2085,14.7235684 -0.037,6.475823 -33.8029,184.776006 -35.884,189.482346 -2.1941,4.962 -10.0381,11.97541 -15.0847,13.4874 -2.7249,0.81639 -14.5253,1.1888 -37.6692,1.1888 -31.6294,0 -33.6692,-0.10759 -33.1776,-1.75 z m 50.111,-19.36004 c 5.7877,-1.59001 12.012,-8.38381 13.3314,-14.55116 0.5693,-2.66134 7.1601,-37.17149 14.6463,-76.68922 14.9649,-78.996807 14.6397,-75.848653 8.3788,-81.116854 C 1132.1127,31.223982 1131.0328,31 1122.6445,31 h -9.202 l -15.9089,85.75 c -8.7499,47.1625 -16.1019,86.7625 -16.3378,88 -0.4112,2.15694 -0.145,2.24977 6.4376,2.24442 3.7766,-0.003 8.6666,-0.50007 10.8666,-1.10446 z m 63.5199,19.35849 c -3.9924,-2.00585 -7.7053,-7.04441 -8.5557,-11.6102 -0.3652,-1.96092 5.4562,-37.84005 15.5173,-95.63825 17.2855,-99.300496 17.3901,-99.754711 24.3196,-105.612259 7.4773,-6.3206673 8.6924,-6.5011033 41.617,-6.1798583 28.4349,0.2774398 30.0778,0.3957126 32.6987,2.3539059 4.7092,3.5184214 6.6866,7.0297224 7.1218,12.6467404 0.3057,3.945387 -3.94,28.313539 -16.6898,95.791471 -9.4049,49.775 -17.5516,91.89703 -18.1038,93.60451 -1.5748,4.86932 -7.8525,11.44351 -13.3894,14.02179 -4.9287,2.29507 -5.7585,2.35437 -33.0556,2.36238 -24.6741,0.007 -28.4134,-0.19947 -31.4801,-1.74023 z m 38.2574,-19.30858 c 5.1585,-1.43251 10.2821,-6.18063 12.1252,-11.23647 C 1214.0481,190.18907 1240,47.185094 1240,42.631267 c 0,-3.967763 -2.5986,-8.372344 -5.9673,-10.11434 -4.0789,-2.109323 -10.6575,-1.91193 -14.4528,0.433665 -6.4746,4.001576 -6.6106,4.553446 -21.2129,86.096878 -13.0294,72.7604 -13.6051,76.533 -12.2689,80.39763 1.017,2.94171 2.3628,4.5349 4.9019,5.80335 4.0974,2.04686 4.3331,2.06443 9.2773,0.69142 z"
       id="path20"
       inkscape:connector-curvature="0" />
    <path
       style="fill:#f30404"
       d="M 30,288 V 262 H 637.5 1245 v 26 26 H 637.5 30 Z"
       id="path18"
       inkscape:connector-curvature="0" />
    <path
       style="fill:#950202"
       d="m 794.34897,309.75562 c -0.42299,-0.6844 -1.25233,-6.6469 -1.84299,-13.25 L 791.43205,284.5 l -1.78142,9 c -3.2843,16.59281 -3.24349,16.5 -7.25656,16.5 -2.8996,0 -3.43268,-0.31205 -2.98952,-1.75 0.29663,-0.9625 2.14324,-8.725 4.10358,-17.25 5.64829,-24.56294 5.04247,-23 8.91519,-23 3.73856,0 3.51735,-0.76231 5.2003,17.92075 l 0.66845,7.42074 2.34845,-11.42074 c 1.29165,-6.28141 2.56181,-11.98325 2.82258,-12.67075 0.66084,-1.74225 6.5369,-1.62963 6.5369,0.12528 0,1.88107 -8.83682,39.55167 -9.54803,40.70243 -0.83715,1.35453 -5.2094,1.12379 -6.103,-0.32209 z M 598.25,309.29427 c -2.13908,-0.41201 -2.25542,-0.91058 -2.35994,-10.11382 L 595.78013,289.5 593.92847,297 c -1.0184,4.125 -2.10251,8.5125 -2.40911,9.75 -0.44742,1.80586 -1.25788,2.25 -4.1058,2.25 -2.91614,0 -3.45319,-0.31179 -3.0143,-1.75 0.29372,-0.9625 2.36405,-9.625 4.60074,-19.25 2.23669,-9.625 4.30702,-18.2875 4.60074,-19.25 0.38957,-1.27659 1.59003,-1.75 4.43762,-1.75 h 3.90359 l 0.27902,13.25 0.27903,13.25 5.5,-13.24583 5.5,-13.24584 4.81739,-0.004 c 4.12472,-0.004 4.74099,0.24745 4.28604,1.74583 C 621.99035,270.7692 613,309.01902 613,309.6082 c 0,0.74136 -5.88245,0.39102 -6.35814,-0.37867 -0.2619,-0.42376 0.38284,-4.36126 1.43275,-8.75 1.04992,-4.38874 1.78645,-8.35812 1.63673,-8.82083 -0.14971,-0.46272 -2.01651,3.47478 -4.14844,8.75 -2.13192,5.27521 -4.14323,9.53002 -4.46956,9.45512 -0.32634,-0.0749 -1.60584,-0.3312 -2.84334,-0.56955 z m 44.09897,-0.53865 c -0.42299,-0.6844 -1.25233,-6.6469 -1.84299,-13.25 L 639.43205,283.5 l -1.78142,9 c -3.2843,16.59281 -3.24349,16.5 -7.25656,16.5 -2.8996,0 -3.43268,-0.31205 -2.98952,-1.75 0.29663,-0.9625 2.14324,-8.725 4.10358,-17.25 5.64829,-24.56294 5.04247,-23 8.91519,-23 3.73856,0 3.51735,-0.76231 5.2003,17.92075 l 0.66845,7.42074 2.34845,-11.42074 c 1.29165,-6.28141 2.56181,-11.98325 2.82258,-12.67075 0.66084,-1.74225 6.5369,-1.62963 6.5369,0.12528 0,1.88107 -8.83682,39.55167 -9.54803,40.70243 -0.83715,1.35453 -5.2094,1.12379 -6.103,-0.32209 z M 692.40455,308.25 c 0.29663,-0.9625 2.14324,-8.725 4.10358,-17.25 1.96034,-8.525 4.01531,-17.1875 4.56661,-19.25 l 1.00235,-3.75 h 8.33901 c 11.96522,0 11.76016,-0.58284 7.14818,20.31698 -2.08549,9.45066 -4.42598,18.19552 -5.20109,19.43302 -1.3014,2.07773 -2.14004,2.25 -10.95363,2.25 -8.62863,0 -9.49259,-0.1679 -9.00501,-1.75 z m 18.00947,-18.29941 c 1.97229,-8.27718 3.58598,-15.47718 3.58598,-16 0,-0.52283 -1.4625,-0.94929 -3.25,-0.9477 l -3.25,0.003 -3.35012,14.67622 c -1.84256,8.07193 -3.57821,15.27063 -3.85699,15.99711 -0.36086,0.94039 0.5074,1.32089 3.01414,1.32089 h 3.521 l 3.58599,-15.04941 z m 7.24122,17.29941 c 0.38133,-1.5125 2.57741,-10.75 4.88016,-20.52778 2.30276,-9.77778 4.43107,-18.02202 4.72958,-18.32053 0.29851,-0.29851 1.86747,-0.39851 3.48657,-0.22222 l 2.94383,0.32053 -4.16451,18 c -2.29048,9.9 -4.48051,19.2375 -4.86674,20.75 -0.59816,2.34243 -1.22096,2.75 -4.20223,2.75 -3.3196,0 -3.46427,-0.14174 -2.80666,-2.75 z m 17.48278,-13.5 c 2.12135,-8.9375 4.0917,-17.2625 4.37855,-18.5 0.41297,-1.78162 0.0868,-2.25 -1.56707,-2.25 -1.59397,0 -2.01292,-0.53285 -1.76905,-2.25 0.29605,-2.08455 0.89497,-2.27158 8.14479,-2.54342 7.65737,-0.28712 7.81826,-0.24422 7.5,2 -0.21012,1.48166 -1.11436,2.40557 -2.5547,2.61028 -2.51637,0.35764 -2.38426,-0.0402 -7.44756,22.43025 l -3.32298,14.74711 -3.6095,0.003 -3.6095,0.003 3.85702,-16.25 z m 10.51722,13.5 c 0.38133,-1.5125 2.57741,-10.75 4.88016,-20.52778 2.30276,-9.77778 4.43107,-18.02202 4.72958,-18.32053 0.29851,-0.29851 1.86747,-0.39851 3.48657,-0.22222 l 2.94383,0.32053 -4.16451,18 c -2.29048,9.9 -4.48051,19.2375 -4.86674,20.75 -0.59816,2.34243 -1.22096,2.75 -4.20223,2.75 -3.3196,0 -3.46427,-0.14174 -2.80666,-2.75 z m 11.37423,1.28551 c -1.63948,-1.97546 6.20553,-37.39787 8.70057,-39.28551 0.9422,-0.71283 4.54756,-1.25 8.38966,-1.25 7.50952,0 10.2663,1.56907 9.35108,5.32233 -0.29205,1.19772 -2.25483,9.53741 -4.36173,18.53265 -2.14404,9.15381 -4.44238,16.74231 -5.21989,17.23468 -2.4123,1.52763 -15.48867,1.09783 -16.85969,-0.55415 z M 772.66089,291 c 4.10326,-17.41097 4.13014,-18.22386 0.58911,-17.81642 -2.6458,0.30443 -2.86759,0.79544 -5.85331,12.95797 -5.00481,20.38743 -4.922,19.03658 -1.14451,18.67088 L 769.47934,304.5 Z m -288.37183,17.35074 c -0.76299,-0.3096 -0.99419,-1.5751 -0.625,-3.42105 0.55873,-2.79363 0.42322,-2.92969 -2.91774,-2.92969 -2.95017,0 -3.69999,0.47394 -4.74632,3 -1.03396,2.49619 -1.81004,3 -4.62132,3 C 469.52041,308 468,307.7518 468,307.44845 c 0,-0.30336 4.34569,-9.75336 9.65709,-21 L 487.31418,266 h 3.34291 c 2.20544,0 3.34291,0.4784 3.34291,1.40597 0,3.26824 -4.16806,40.05694 -4.62146,40.79056 -0.53627,0.8677 -3.13693,0.9465 -5.08948,0.15421 z m 1.2209,-18.10074 c 0.35963,-3.1625 0.84909,-6.65 1.0877,-7.75 0.40693,-1.87598 -3.70914,6.30471 -5.66039,11.25 -0.77155,1.95546 -0.57316,2.25 1.51552,2.25 2.18327,0 2.46316,-0.52642 3.05717,-5.75 z m 131.14528,16 c 0.38133,-1.5125 2.57741,-10.75 4.88016,-20.52778 2.30276,-9.77778 4.43107,-18.02202 4.72958,-18.32053 0.29851,-0.29851 1.86747,-0.39851 3.48657,-0.22222 l 2.94383,0.32053 -4.16451,18 c -2.29048,9.9 -4.48051,19.2375 -4.86674,20.75 -0.59816,2.34243 -1.22096,2.75 -4.20223,2.75 -3.3196,0 -3.46427,-0.14174 -2.80666,-2.75 z m 36,0 c 0.38133,-1.5125 2.57741,-10.75 4.88016,-20.52778 2.30276,-9.77778 4.43107,-18.02202 4.72958,-18.32053 0.29851,-0.29851 1.86747,-0.39851 3.48657,-0.22222 l 2.94383,0.32053 -4.16451,18 c -2.29048,9.9 -4.48051,19.2375 -4.86674,20.75 -0.59816,2.34243 -1.22096,2.75 -4.20223,2.75 -3.3196,0 -3.46427,-0.14174 -2.80666,-2.75 z m 21.74931,1 c 0.29663,-0.9625 2.14324,-8.725 4.10358,-17.25 1.96034,-8.525 4.01531,-17.1875 4.56661,-19.25 l 1.00235,-3.75 h 7.32278 c 7.23003,0 7.31686,0.031 6.85488,2.44771 -0.39257,2.05359 -1.12435,2.49638 -4.54477,2.75 -4.3742,0.32434 -4.50354,0.51629 -6.09948,9.05229 l -0.70113,3.75 h 3.61487 c 3.17676,0 3.57613,0.27269 3.29531,2.25 -0.2628,1.85043 -1.04053,2.30296 -4.37943,2.54821 l -4.05988,0.29821 -1.19012,5.76198 C 682.52626,303.91401 682.55065,304 686.5,304 c 3.53568,0 3.996,0.54388 2.89301,3.41821 -0.47844,1.2468 -2.18697,1.58179 -8.06739,1.58179 -6.64393,0 -7.40137,-0.19152 -6.92107,-1.75 z m -246.37508,-0.71449 c -1.63948,-1.97546 6.20553,-37.39787 8.70057,-39.28551 2.50568,-1.89569 14.74127,-1.63583 16.73248,0.35537 0.88295,0.88296 1.38181,2.34546 1.10858,3.25 -0.27323,0.90455 -0.92354,3.59217 -1.44514,5.97249 -1.16857,5.33281 -1.26252,5.42695 -4.58426,4.59325 -2.59771,-0.65198 -2.66989,-0.85363 -2.01364,-5.62516 l 0.68066,-4.94893 -2.85436,0.32649 c -2.77891,0.31786 -2.93639,0.66065 -5.95767,12.96804 -5.00066,20.37052 -4.91662,19.03658 -1.17618,18.67088 2.88119,-0.2817 3.30209,-0.75501 4.27949,-4.81243 0.97855,-4.06218 1.39613,-4.53049 4.29201,-4.81336 2.14547,-0.20957 3.20406,0.12164 3.19612,1 -0.0274,3.02917 -2.99248,12.19965 -4.19018,12.9594 -2.34066,1.48476 -15.42491,1.00837 -16.76848,-0.61053 z M 450.40455,306.25 c 0.29663,-0.9625 2.14324,-8.725 4.10358,-17.25 5.67617,-24.68415 5.00999,-23 9.0978,-23 2.8996,0 3.43268,0.31205 2.98952,1.75 C 465.46159,271.42914 459,300.19376 459,301.56213 c 0,0.97661 1.12277,1.43787 3.5,1.43787 3.53568,0 3.996,0.54388 2.89301,3.41821 -0.47844,1.2468 -2.18697,1.58179 -8.06739,1.58179 -6.64393,0 -7.40137,-0.19152 -6.92107,-1.75 z m 42.65375,0.32025 c -0.91559,-1.10322 -0.91384,-2.8161 0.008,-7.5 1.18495,-6.02297 1.22112,-6.07025 4.6436,-6.07025 3.35909,0 3.43223,0.0851 2.79524,3.25 -0.35976,1.7875 -0.88585,4.06902 -1.16908,5.07004 -0.43492,1.53718 -8.7e-4,1.77031 2.79289,1.5 2.90889,-0.28144 3.41426,-0.77291 4.1901,-4.07489 0.81087,-3.45101 0.50015,-4.36791 -3.83995,-11.33131 l -4.7222,-7.57647 1.1291,-5.66869 c 0.62101,-3.11777 1.8868,-6.23118 2.81286,-6.91868 2.52141,-1.87188 14.77211,-1.63651 16.73005,0.32143 0.86429,0.86428 1.55236,1.65178 1.52906,1.75 -0.0233,0.0982 -0.61715,2.65357 -1.31966,5.67857 -1.2022,5.17667 -1.47034,5.51888 -4.56125,5.82109 l -3.28395,0.32108 0.69745,-5.07108 C 512.17533,271.08979 512.14131,271 509.56909,271 c -1.89075,0 -2.88966,0.71297 -3.59384,2.5651 -1.64393,4.32387 -1.14269,6.17089 3.52475,12.98839 2.475,3.61511 4.49466,7.10698 4.48813,7.75972 -0.0293,2.93318 -3.01924,12.09005 -4.19018,12.83283 -2.30412,1.46159 -15.42328,1.01033 -16.73965,-0.57579 z m 24,0 c -0.91559,-1.10322 -0.91384,-2.8161 0.008,-7.5 1.18495,-6.02297 1.22112,-6.07025 4.6436,-6.07025 3.35909,0 3.43223,0.0851 2.79524,3.25 -0.35976,1.7875 -0.88585,4.06902 -1.16908,5.07004 -0.43492,1.53718 -8.7e-4,1.77031 2.79289,1.5 2.90889,-0.28144 3.41426,-0.77291 4.1901,-4.07489 0.81087,-3.45101 0.50015,-4.36791 -3.83995,-11.33131 l -4.7222,-7.57647 1.1291,-5.66869 c 0.62101,-3.11777 1.8868,-6.23118 2.81286,-6.91868 2.52141,-1.87188 14.77211,-1.63651 16.73005,0.32143 0.86429,0.86428 1.55236,1.65178 1.52906,1.75 -0.0233,0.0982 -0.61715,2.65357 -1.31966,5.67857 -1.2022,5.17667 -1.47034,5.51888 -4.56125,5.82109 l -3.28395,0.32108 0.69745,-5.07108 C 536.17533,271.08979 536.14131,271 533.56909,271 c -1.89075,0 -2.88966,0.71297 -3.59384,2.5651 -1.64393,4.32387 -1.14269,6.17089 3.52475,12.98839 2.475,3.61511 4.49466,7.10698 4.48813,7.75972 -0.0293,2.93318 -3.01924,12.09005 -4.19018,12.83283 -2.30412,1.46159 -15.42328,1.01033 -16.73965,-0.57579 z M 539.65524,305.25 c 0.38133,-1.5125 2.57741,-10.75 4.88016,-20.52778 2.30276,-9.77778 4.43107,-18.02202 4.72958,-18.32053 0.29851,-0.29851 1.86747,-0.39851 3.48657,-0.22222 l 2.94383,0.32053 -4.16451,18 c -2.29048,9.9 -4.48051,19.2375 -4.86674,20.75 -0.59816,2.34243 -1.22096,2.75 -4.20223,2.75 -3.3196,0 -3.46427,-0.14174 -2.80666,-2.75 z m 10.37423,1.28551 c -1.63948,-1.97546 6.20553,-37.39787 8.70057,-39.28551 2.50568,-1.89569 14.74127,-1.63583 16.73248,0.35537 0.88295,0.88296 1.38181,2.34546 1.10858,3.25 -0.27323,0.90455 -0.92354,3.59217 -1.44514,5.97249 -1.16857,5.33281 -1.26252,5.42695 -4.58426,4.59325 -2.59771,-0.65198 -2.66989,-0.85363 -2.01364,-5.62516 l 0.68066,-4.94893 -2.85436,0.32649 c -2.77891,0.31786 -2.93639,0.66065 -5.95767,12.96804 -5.00066,20.37052 -4.91662,19.03658 -1.17618,18.67088 2.88119,-0.2817 3.30209,-0.75501 4.27949,-4.81243 0.97855,-4.06218 1.39613,-4.53049 4.29201,-4.81336 2.14547,-0.20957 3.20406,0.12164 3.19612,1 -0.0274,3.02917 -2.99248,12.19965 -4.19018,12.9594 -2.34066,1.48476 -15.42491,1.00837 -16.76848,-0.61053 z"
       id="path16"
       inkscape:connector-curvature="0" />
    <path
       style="fill:#080000"
       d="m 692.99328,309.25 c -0.004,-0.4125 2.11357,-9.8625 4.70503,-21 l 4.71174,-20.25 6.54498,0.0136 c 7.61319,0.0159 10.71456,0.68293 11.39279,2.45037 0.79236,2.06486 -7.91767,37.64995 -9.45347,38.62244 -1.69316,1.07212 -17.8916,1.22011 -17.90107,0.16354 z m 13.76243,-4.5 c 1.26013,-1.57421 8.15358,-30.50738 7.43881,-31.22214 C 713.9042,273.23754 712.17524,273 710.35239,273 c -2.61489,0 -3.42502,0.47481 -3.83904,2.25 -0.28862,1.2375 -1.87219,7.96301 -3.51905,14.94557 -1.64687,6.98256 -2.9943,13.39506 -2.9943,14.25 0,1.91527 5.27595,2.15302 6.75571,0.30443 z M 718,309.27814 c 0,-0.39702 2.11885,-9.84702 4.70856,-21 L 727.41712,268 h 2.89985 c 2.4955,0 2.82694,0.31373 2.37698,2.25 -0.28758,1.2375 -2.46472,10.6875 -4.8381,21 L 723.54063,310 h -2.77032 C 719.24664,310 718,309.67516 718,309.27814 Z M 732.47727,307.75 c 0.28346,-1.2375 2.09203,-8.93229 4.01905,-17.09953 C 738.42335,282.48322 740,275.17072 740,274.40047 740,273.63021 739.05186,273 737.89301,273 c -1.51045,0 -1.93514,-0.44784 -1.5,-1.58179 0.33385,-0.86998 0.60699,-1.99498 0.60699,-2.5 0,-0.50501 3.42314,-0.91821 7.60699,-0.91821 6.52574,0 7.52071,0.22483 7,1.58179 -0.33385,0.86998 -0.60699,1.99498 -0.60699,2.5 0,0.50501 -1.05339,0.91821 -2.34087,0.91821 -2.03665,0 -2.50501,0.74727 -3.60389,5.75 -0.69466,3.1625 -2.60742,11.4875 -4.25057,18.5 -2.98747,12.74962 -2.98765,12.75 -5.91517,12.75 -2.52207,0 -2.85621,-0.31167 -2.41223,-2.25 z M 746,309.27814 c 0,-0.39702 2.11885,-9.84702 4.70856,-21 L 755.41712,268 h 2.89985 c 2.4955,0 2.82694,0.31373 2.37698,2.25 -0.28758,1.2375 -2.46472,10.6875 -4.8381,21 L 751.54063,310 h -2.77032 C 747.24664,310 746,309.67516 746,309.27814 Z M 758.2,308.8 c -1.75885,-1.75885 -1.52225,-3.64943 2.71963,-21.73089 2.68988,-11.46592 4.39977,-16.82949 5.65864,-17.75 2.40192,-1.75633 12.51462,-1.70289 14.95151,0.079 1.86341,1.36255 1.80464,1.86488 -2.31049,19.75 -2.83839,12.33613 -4.77636,18.76163 -5.91204,19.60188 -2.16174,1.59939 -13.52027,1.63698 -15.10725,0.05 z M 773.14889,291 c 4.72966,-18.79477 4.72323,-18.19468 0.19099,-17.81037 l -3.66011,0.31037 -3.42424,14.80899 c -1.88333,8.14495 -3.16383,15.48759 -2.84557,16.31697 0.36921,0.96213 1.57616,1.39325 3.33435,1.19101 2.66946,-0.30705 2.86986,-0.77068 6.40458,-14.81697 z m 6.84439,18.25 c -0.004,-0.4125 2.11357,-9.8625 4.70503,-21 L 789.41005,268 h 2.77592 c 3.16354,0 3.38589,0.59524 4.29585,11.5 0.32127,3.85 0.86838,9.475 1.2158,12.5 l 0.63167,5.5 1.20463,-7 c 0.66255,-3.85 1.98363,-10.4875 2.93574,-14.75 1.66808,-7.46786 1.83575,-7.75 4.60572,-7.75 3.36102,0 3.6263,-2.56038 -2.43482,23.5 l -4.18643,18 -3.08358,0.30266 -3.08357,0.30265 -0.62244,-6.30265 C 793.32219,300.3362 792.73239,293.675 792.35386,289 l -0.68824,-8.5 -2.76737,13.5 c -1.52206,7.425 -2.79682,14.0625 -2.83281,14.75 -0.069,1.31728 -6.06042,1.81064 -6.07216,0.5 z M 585,308.27814 c 0,-0.39702 2.11885,-9.84702 4.70856,-21 L 594.41712,267 h 3.88673 3.88672 l -0.71643,15.25 c -0.39404,8.3875 -0.49827,15.025 -0.23162,14.75 0.26666,-0.275 3.28909,-7.1375 6.71652,-15.25 l 6.2317,-14.75 h 3.90463 c 2.14755,0 3.90463,0.32484 3.90463,0.72186 0,0.39702 -2.11885,9.84702 -4.70856,21 L 612.58288,309 h -2.79144 C 608.25615,309 607,308.74821 607,308.44046 c 0,-0.30774 1.12767,-5.55507 2.50594,-11.66072 1.37827,-6.10565 2.34828,-11.25886 2.15557,-11.45157 -0.19271,-0.19271 -2.53195,5.05462 -5.19831,11.66073 C 601.87506,308.35636 601.46397,309 598.79179,309 h -2.82348 l 0.54044,-12.75 c 0.60711,-14.32318 -0.0456,-13.95387 -3.5351,2 C 590.66401,308.80975 590.57264,309 587.8112,309 586.26504,309 585,308.67516 585,308.27814 Z m 32,0 c 0,-0.39702 2.11885,-9.84702 4.70856,-21 L 626.41712,267 h 2.89985 c 2.4955,0 2.82694,0.31373 2.37698,2.25 -0.28758,1.2375 -2.46472,10.6875 -4.8381,21 L 622.54063,309 h -2.77032 C 618.24664,309 617,308.67516 617,308.27814 Z m 10.99328,-0.0281 c -0.004,-0.4125 2.11357,-9.8625 4.70503,-21 l 4.71174,-20.25 h 2.77592 c 3.16354,0 3.38589,0.59524 4.29585,11.5 0.32127,3.85 0.86838,9.475 1.2158,12.5 l 0.63167,5.5 1.20463,-7 c 0.66255,-3.85 1.98363,-10.4875 2.93574,-14.75 1.66808,-7.46786 1.83575,-7.75 4.60572,-7.75 3.36102,0 3.6263,-2.56038 -2.43482,23.5 l -4.18643,18 -3.08358,0.30266 -3.08357,0.30265 -0.62244,-6.30265 C 641.32219,299.3362 640.73239,292.675 640.35386,288 l -0.68824,-8.5 -2.76737,13.5 c -1.52206,7.425 -2.79682,14.0625 -2.83281,14.75 -0.069,1.31728 -6.06042,1.81064 -6.07216,0.5 z M 653,308.27814 c 0,-0.39702 2.11885,-9.84702 4.70856,-21 L 662.41712,267 h 2.89985 c 2.4955,0 2.82694,0.31373 2.37698,2.25 -0.28758,1.2375 -2.46472,10.6875 -4.8381,21 L 658.54063,309 h -2.77032 C 654.24664,309 653,308.67516 653,308.27814 Z m 21.99328,0.0175 c -0.004,-0.43763 2.11357,-9.90819 4.70503,-21.04569 l 4.71174,-20.25 h 6.79498 C 694.94226,267 698,267.4132 698,267.91821 698,270.8357 696.56298,272 692.96213,272 h -3.82389 l -1.39441,6.25 -1.3944,6.25 3.90865,0.31157 c 3.0171,0.2405 3.77558,0.65833 3.32528,1.83179 C 693.26251,287.47948 693,288.57677 693,289.08179 693,289.5868 691.20857,290 689.01905,290 c -3.52683,0 -4.05123,0.3137 -4.59705,2.75 -0.33886,1.5125 -1.01992,4.325 -1.51347,6.25 -1.42016,5.539 -1.21541,6 2.66479,6 2.86361,0 3.50706,0.34758 3.23967,1.75 -0.27145,1.4237 -1.59033,1.80513 -7.07333,2.04569 -3.70681,0.16263 -6.74268,-0.0624 -6.74638,-0.5 z M 429.2,306.8 c -1.75885,-1.75885 -1.52225,-3.64943 2.71963,-21.73089 2.68988,-11.46592 4.39977,-16.82949 5.65864,-17.75 2.36753,-1.73118 12.51258,-1.70438 14.89728,0.0393 1.72021,1.25785 1.76128,1.81335 0.55449,7.5 -1.2417,5.85112 -1.44379,6.14154 -4.27367,6.14154 -2.16386,0 -2.82146,-0.38799 -2.42199,-1.42899 0.30159,-0.78594 0.85554,-3.06643 1.23099,-5.06775 l 0.68263,-3.63878 -3.78411,0.31776 -3.78412,0.31776 -3.42424,14.80899 c -1.88333,8.14495 -3.16383,15.48759 -2.84557,16.31697 0.36902,0.96165 1.57573,1.39314 3.33074,1.19101 2.39643,-0.27601 2.93277,-0.99541 4.15035,-5.56697 1.14746,-4.30827 1.79088,-5.25 3.58695,-5.25 1.20377,0 2.43926,0.2506 2.74555,0.55688 0.98989,0.9899 -2.30237,11.90327 -3.98001,13.19312 -2.08042,1.59954 -13.45619,1.63735 -15.04354,0.05 z m 21.79328,0.49569 c -0.004,-0.43763 2.11357,-9.90819 4.70503,-21.04569 L 460.41005,266 h 2.79498 c 1.53723,0 2.79497,0.3827 2.79497,0.85045 0,0.46775 -1.8,8.57965 -4,18.02643 -2.2,9.44679 -4,17.61409 -4,18.14955 0,0.53546 1.608,0.97357 3.57332,0.97357 2.86361,0 3.50706,0.34758 3.23967,1.75 -0.27145,1.4237 -1.59033,1.80513 -7.07333,2.04569 -3.70681,0.16263 -6.74268,-0.0624 -6.74638,-0.5 z m 20.4552,-6.54569 c 13.68561,-29.75411 16.3921,-34.75 18.8256,-34.75 1.31592,0 2.59845,0.20587 2.85007,0.45748 0.25161,0.25161 -0.46491,9.58911 -1.59226,20.75 l -2.04974,20.29252 -2.85957,0.32786 c -2.7378,0.31389 -2.84178,0.17549 -2.44188,-3.25 C 484.59174,301.057 484.54082,301 480.98441,301 c -3.14569,0 -3.83026,0.45352 -5.28302,3.5 -1.35217,2.83552 -2.23086,3.5 -4.62832,3.5 h -2.95928 z m 13.92297,-5.5 c 0.27843,-0.9625 0.76431,-4.9 1.07974,-8.75 l 0.57351,-7 -3.51235,7.3801 c -1.93179,4.05906 -3.51235,7.99656 -3.51235,8.75 0,2.05091 4.76578,1.71367 5.37145,-0.3801 z m 8.63609,11.25908 c -0.83761,-1.00925 -1.01271,-2.98893 -0.542,-6.12785 0.99998,-6.66832 1.43487,-7.38123 4.50272,-7.38123 2.75253,0 2.75362,0.003 1.71866,4.52565 -1.21049,5.28985 -0.16126,7.0612 3.62037,6.11207 2.47556,-0.62132 3.65338,-3.03188 3.67906,-7.52966 0.008,-1.31556 -1.78635,-5.24203 -3.98635,-8.72549 -2.2,-3.48345 -3.99749,-7.58208 -3.99442,-9.10806 0.009,-4.63024 1.97079,-10.1915 3.97243,-11.26274 2.74523,-1.4692 12.32754,-1.24005 14.49754,0.34669 1.72021,1.25785 1.76128,1.81335 0.55449,7.5 -1.2369,5.82854 -1.45269,6.14154 -4.23407,6.14154 -2.31223,0 -2.82676,-0.36933 -2.43801,-1.75 0.271,-0.9625 0.78708,-3.2125 1.14684,-5 0.63903,-3.17508 0.57296,-3.25 -2.86633,-3.25 -4.11755,0 -4.70014,0.68661 -4.87005,5.73956 -0.0983,2.92331 0.80386,5.07738 4.05257,9.67622 2.31253,3.2736 4.17652,7.06998 4.17343,8.5 -0.009,4.15866 -2.02045,10.48127 -3.76494,11.83422 -2.33852,1.81366 -13.66558,1.63439 -15.22194,-0.24092 z m 24,0 c -0.83761,-1.00925 -1.01271,-2.98893 -0.542,-6.12785 0.99998,-6.66832 1.43487,-7.38123 4.50272,-7.38123 2.75253,0 2.75362,0.003 1.71866,4.52565 -1.21049,5.28985 -0.16126,7.0612 3.62037,6.11207 2.47556,-0.62132 3.65338,-3.03188 3.67906,-7.52966 0.008,-1.31556 -1.78635,-5.24203 -3.98635,-8.72549 -2.2,-3.48345 -3.99749,-7.58208 -3.99442,-9.10806 0.009,-4.63024 1.97079,-10.1915 3.97243,-11.26274 2.74523,-1.4692 12.32754,-1.24005 14.49754,0.34669 1.72021,1.25785 1.76128,1.81335 0.55449,7.5 -1.2369,5.82854 -1.45269,6.14154 -4.23407,6.14154 -2.31223,0 -2.82676,-0.36933 -2.43801,-1.75 0.271,-0.9625 0.78708,-3.2125 1.14684,-5 0.63903,-3.17508 0.57296,-3.25 -2.86633,-3.25 -4.11755,0 -4.70014,0.68661 -4.87005,5.73956 -0.0983,2.92331 0.80386,5.07738 4.05257,9.67622 2.31253,3.2736 4.17652,7.06998 4.17343,8.5 -0.009,4.15866 -2.02045,10.48127 -3.76494,11.83422 -2.33852,1.81366 -13.66558,1.63439 -15.22194,-0.24092 z M 540,307.27814 c 0,-0.39702 2.11885,-9.84702 4.70856,-21 L 549.41712,266 h 2.89985 c 2.4955,0 2.82694,0.31373 2.37698,2.25 -0.28758,1.2375 -2.46472,10.6875 -4.8381,21 L 545.54063,308 h -2.77032 C 541.24664,308 540,307.67516 540,307.27814 Z M 551.2,306.8 c -1.75885,-1.75885 -1.52225,-3.64943 2.71963,-21.73089 2.68988,-11.46592 4.39977,-16.82949 5.65864,-17.75 2.36753,-1.73118 12.51258,-1.70438 14.89728,0.0393 1.72021,1.25785 1.76128,1.81335 0.55449,7.5 -1.2417,5.85112 -1.44379,6.14154 -4.27367,6.14154 -2.16386,0 -2.82146,-0.38799 -2.42199,-1.42899 0.30159,-0.78594 0.85554,-3.06643 1.23099,-5.06775 l 0.68263,-3.63878 -3.78411,0.31776 -3.78412,0.31776 -3.42424,14.80899 c -1.88333,8.14495 -3.16383,15.48759 -2.84557,16.31697 0.36902,0.96165 1.57573,1.39314 3.33074,1.19101 2.39643,-0.27601 2.93277,-0.99541 4.15035,-5.56697 1.14746,-4.30827 1.79088,-5.25 3.58695,-5.25 1.20377,0 2.43926,0.2506 2.74555,0.55688 0.98989,0.9899 -2.30237,11.90327 -3.98001,13.19312 -2.08042,1.59954 -13.45619,1.63735 -15.04354,0.05 z"
       id="path14"
       inkscape:connector-curvature="0" />
  </g>
</svg>
