<svg xmlns="http://www.w3.org/2000/svg" width="400" height="231.23207">
  <defs>
    <clipPath id="a">
      <path d="M0 257.87h446.08V0H0v257.87z"/>
    </clipPath>
  </defs>
  <g clip-path="url(#a)" transform="matrix(0.89670014,0,0,-0.89670014,0,231.23207)">
    <path fill="#a4a9ab" d="M446.08 52.35V32.08s-1.508-10.79-6.806-15.92c-5.288-5.12-18.755-7.41-18.755-7.41l-54.573-4.34L269.557 0h-92.259l-76.942 3.16-71.263 5.17S0 9.5 0 31.16v20.98c17.537-1.87 61.616-5.83 118.915-5.7 1.063-.29 1.921-.28 1.921-.28l64.373-1h75.744s55.936 1.09 63.94 1.09c1.095 0 2.014.14 2.799.4 59.23-.14 102.793 3.98 118.388 5.7"/>
    <path fill="#b1b7bb" d="M446.08 249V52.35c-15.595-1.72-59.158-5.84-118.388-5.7-.785-.26-1.704-.4-2.799-.4-8.004 0-63.94-1.09-63.94-1.09h-75.744l-64.373 1s-.858-.01-1.921.28C61.616 46.31 17.537 50.27 0 52.14v197.52s.341 5 12.218 6.17 25.654 2.04 25.654 2.04H408.29s26.078-2.12 30.561-3.37c4.471-1.25 7.229-1.42 7.229-5.5"/>
    <path fill="#414144" d="M12.29 17.75v-.2c-3.08 3.26-5.21 7.66-5.21 13.61v223.77l1.331.326.289-74.136V31.16c0-5.83.64-10.17 3.59-13.41m421.3336 0v-.2c3.08 3.26 5.21 7.66 5.21 13.61V237l.017 17.5-1.35.294-.287-73.674V31.16c0-5.83-.64-10.17-3.59-13.41"/>
    <path fill="#16181d" d="M324.37 46.65c-.76-.26-1.65-.4-2.71-.4-7.75 0-61.91-1.09-61.91-1.09h-73.34l-62.33 1s-.83-.01-1.86.28c-1.68.47-3.89 1.73-3.89 5.14V243.5s-.13 5.52 4.58 5.52 100.17-.02 100.17-.02h100.5s4.83.58 4.83-4.71V54s.75-5.78-4.04-7.35"/>
    <path fill="#16181d" d="M315.9756 55.7805c-.702-.229-1.524-.352-2.503-.352-6.23 0-44.928-.726-54.862-.915-1.396-.026-2.617-.93-3.057-2.254l-.886-2.662c-.301-.906-1.149-1.518-2.104-1.518h-59.515c-.848 0-1.621.484-1.993 1.246l-1.724 3.534c-.481.987-1.478 1.621-2.577 1.637l-55.78.853s-.767-.009-1.718.246c-1.552.414-3.593 1.522-3.593 4.523v168.874s-.12 4.857 4.23 4.857c4.351 0 92.524-.017 92.524-.017h92.828s4.462.51 4.462-4.145v-167.44s.692-5.086-3.732-6.467"/>
    <path fill="#565e64" d="M133.705 225.398h178.5V66.892h-178.5v158.506z"/>
    <path fill="#656971" d="M96.58 227.41c0-4.32-3.5-7.82-7.81-7.82-3.86 0-7.06 2.79-7.69 6.47l-16.52.02c-.05-.57-.14-1.17-.25-1.82-.41-2.42-2.5-4.46-4.26-4.46H33.63s-3.86-.28-5.03 5.04c-.55 2.52.01 5.75.01 5.75s1.16 3.96 5.02 4.43h25.4s4.32 0 5.38-5.53c.06-.26.11-.51.14-.78l16.51-.03c.61 3.71 3.82 6.54 7.71 6.54 4.31 0 7.81-3.5 7.81-7.81"/>
    <path fill="#404044" d="M35.8925 232.4966h20.937s3.563 0 4.436-3.696c.314-1.036.21-2.111-.081-3.499-.339-1.615-2.063-2.984-3.511-2.982h-21.781s-3.188-.186-4.146 3.373c-.453 1.684.004 3.844.004 3.844s.954 2.647 4.142 2.96"/>
    <path fill="#eb223b" d="M83.0175 227.4072c0 3.176 2.574 5.75 5.75 5.75s5.75-2.574 5.75-5.75-2.574-5.75-5.75-5.75-5.75 2.574-5.75 5.75"/>
    <path fill="#263246" d="M347.58 143.33c0 9.527 7.723 17.25 17.25 17.25 9.527 0 17.25-7.723 17.25-17.25 0-9.527-7.723-17.25-17.25-17.25-9.527 0-17.25 7.723-17.25 17.25m43.375 31.875c0 9.389 7.611 17 17 17s17-7.611 17-17-7.611-17-17-17-17 7.611-17 17"/>
    <path fill="#666a6e" d="M410.46 40.45c-2.08 0-3.76-1.67-3.76-3.74 0-2.08 1.68-3.76 3.76-3.76 2.07 0 3.74 1.68 3.74 3.76 0 2.07-1.67 3.74-3.74 3.74m-.005 24.505c2.071 0 3.75 1.679 3.75 3.75 0 2.071-1.679 3.75-3.75 3.75-2.071 0-3.75-1.679-3.75-3.75 0-2.071 1.679-3.75 3.75-3.75m0 32.25c2.071 0 3.75 1.679 3.75 3.75 0 2.071-1.679 3.75-3.75 3.75-2.071 0-3.75-1.679-3.75-3.75 0-2.071 1.679-3.75 3.75-3.75M383.08 38.45c-2.07 0-3.75-1.67-3.75-3.74 0-2.08 1.68-3.76 3.75-3.76 2.07 0 3.75 1.68 3.75 3.76 0 2.07-1.68 3.74-3.75 3.74m0 24.505c2.071 0 3.75 1.679 3.75 3.75 0 2.071-1.679 3.75-3.75 3.75-2.071 0-3.75-1.679-3.75-3.75 0-2.071 1.679-3.75 3.75-3.75m0 32.25c2.071 0 3.75 1.679 3.75 3.75 0 2.071-1.679 3.75-3.75 3.75-2.071 0-3.75-1.679-3.75-3.75 0-2.071 1.679-3.75 3.75-3.75M355.83 35.71c-2.07 0-3.75-1.68-3.75-3.76 0-2.07 1.68-3.74 3.75-3.74 2.07 0 3.75 1.67 3.75 3.74 0 2.08-1.68 3.76-3.75 3.76m0 24.495c2.071 0 3.75 1.679 3.75 3.75 0 2.071-1.679 3.75-3.75 3.75-2.071 0-3.75-1.679-3.75-3.75 0-2.071 1.679-3.75 3.75-3.75m-3.75 36c0 2.071 1.679 3.75 3.75 3.75 2.071 0 3.75-1.679 3.75-3.75 0-2.071-1.679-3.75-3.75-3.75-2.071 0-3.75 1.679-3.75 3.75"/>
    <path fill="#16181d" d="M87.8925 55.955c1.208 0 2.188.979 2.188 2.188 0 1.208-.98 2.187-2.188 2.187-1.208 0-2.188-.979-2.188-2.187 0-1.209.98-2.188 2.188-2.188m0 7.437c1.208 0 2.188.98 2.188 2.188 0 1.208-.98 2.188-2.188 2.188-1.208 0-2.188-.98-2.188-2.188 0-1.208.98-2.188 2.188-2.188m0 7.438c1.208 0 2.188.979 2.188 2.187 0 1.209-.98 2.188-2.188 2.188-1.208 0-2.188-.979-2.188-2.188 0-1.208.98-2.187 2.188-2.187m0 7.562c1.208 0 2.188.98 2.188 2.188 0 1.208-.98 2.187-2.188 2.187-1.208 0-2.188-.979-2.188-2.187 0-1.208.98-2.188 2.188-2.188m-8.438-22.437c1.209 0 2.188.979 2.188 2.188 0 1.208-.979 2.187-2.188 2.187-1.208 0-2.187-.979-2.187-2.187 0-1.209.979-2.188 2.187-2.188m0 7.437c1.209 0 2.188.98 2.188 2.188 0 1.208-.979 2.188-2.188 2.188-1.208 0-2.187-.98-2.187-2.188 0-1.208.979-2.188 2.187-2.188m0 7.438c1.209 0 2.188.979 2.188 2.187 0 1.209-.979 2.188-2.188 2.188-1.208 0-2.187-.979-2.187-2.188 0-1.208.979-2.187 2.187-2.187m0 7.562c1.209 0 2.188.98 2.188 2.188 0 1.208-.979 2.187-2.188 2.187-1.208 0-2.187-.979-2.187-2.187 0-1.208.979-2.188 2.187-2.188m-8.249-22.437c1.208 0 2.187.979 2.187 2.188 0 1.208-.979 2.187-2.187 2.187-1.209 0-2.188-.979-2.188-2.187 0-1.209.979-2.188 2.188-2.188m0 7.437c1.208 0 2.187.98 2.187 2.188 0 1.208-.979 2.188-2.187 2.188-1.209 0-2.188-.98-2.188-2.188 0-1.208.979-2.188 2.188-2.188m0 7.438c1.208 0 2.187.979 2.187 2.187 0 1.209-.979 2.188-2.187 2.188-1.209 0-2.188-.979-2.188-2.188 0-1.208.979-2.187 2.188-2.187m0 7.562c1.208 0 2.187.98 2.187 2.188 0 1.208-.979 2.187-2.187 2.187-1.209 0-2.188-.979-2.188-2.187 0-1.208.979-2.188 2.188-2.188m-8.25-22.437c1.208 0 2.187.979 2.187 2.188 0 1.208-.979 2.187-2.187 2.187-1.209 0-2.188-.979-2.188-2.187 0-1.209.979-2.188 2.188-2.188m0 7.437c1.208 0 2.187.98 2.187 2.188 0 1.208-.979 2.188-2.187 2.188-1.209 0-2.188-.98-2.188-2.188 0-1.208.979-2.188 2.188-2.188m0 7.438c1.208 0 2.187.979 2.187 2.187 0 1.209-.979 2.188-2.187 2.188-1.209 0-2.188-.979-2.188-2.188 0-1.208.979-2.187 2.188-2.187m0 7.562c1.208 0 2.187.98 2.187 2.188 0 1.208-.979 2.187-2.187 2.187-1.209 0-2.188-.979-2.188-2.187 0-1.208.979-2.188 2.188-2.188m-8.126-22.437c1.209 0 2.188.979 2.188 2.188 0 1.208-.979 2.187-2.188 2.187-1.208 0-2.187-.979-2.187-2.187 0-1.209.979-2.188 2.187-2.188m0 7.437c1.209 0 2.188.98 2.188 2.188 0 1.208-.979 2.188-2.188 2.188-1.208 0-2.187-.98-2.187-2.188 0-1.208.979-2.188 2.187-2.188m0 7.438c1.209 0 2.188.979 2.188 2.187 0 1.209-.979 2.188-2.188 2.188-1.208 0-2.187-.979-2.187-2.188 0-1.208.979-2.187 2.187-2.187m-2.187 9.75c0 1.208.979 2.187 2.187 2.187 1.209 0 2.188-.979 2.188-2.187 0-1.208-.979-2.188-2.188-2.188-1.208 0-2.187.98-2.187 2.188"/>
    <path fill="#656971" d="M402.1634 227.2466c0 5.201 4.216 9.417 9.417 9.417 5.2 0 9.416-4.216 9.416-9.417s-4.216-9.417-9.416-9.417c-5.201 0-9.417 4.216-9.417 9.417"/>
    <path fill="#404044" d="M404.9967 227.2466c0 3.636 2.947 6.583 6.583 6.583s6.584-2.947 6.584-6.583-2.948-6.583-6.584-6.583c-3.636 0-6.583 2.947-6.583 6.583M36.87 162.33h-6.9c-.09-1.11-.14-2.24-.14-3.38 0-1.03.04-2.05.11-3.06h6.9c-.09 1.01-.14 2.03-.14 3.06 0 1.14.06 2.27.17 3.38m9.11-26.98l-4.91-4.8c.81-.86 1.65-1.68 2.52-2.46l4.8 4.93c-.83.74-1.64 1.52-2.41 2.33m25.35-11.02c-1.14 0-2.26.05-3.37.16v-6.9c1.11-.09 2.23-.14 3.37-.14 1.03 0 2.05.04 3.06.12v6.89c-1.01-.08-2.03-.13-3.06-.13M97.27 136c-.75-.83-1.52-1.62-2.33-2.39l4.79-4.91c.86.8 1.68 1.64 2.47 2.52L97.27 136zm15.45 26.02h-6.9c.09-1.01.14-2.03.14-3.07 0-1.14-.05-2.26-.16-3.37h6.89c.09 1.11.14 2.23.14 3.37 0 1.03-.04 2.06-.11 3.07m-13.65 27.8l-4.8-4.93c.83-.74 1.64-1.52 2.41-2.33l4.9 4.79c-.8.86-1.64 1.68-2.51 2.47m-27.74 10.63c-1.03 0-2.05-.04-3.06-.11v-6.89c1.01.08 2.03.13 3.06.13 1.14 0 2.26-.05 3.37-.16v6.89c-1.11.09-2.23.14-3.37.14M47.72 184.3c-.81-.77-1.58-1.56-2.32-2.4l-4.94 4.79c.79.88 1.62 1.72 2.47 2.52l4.79-4.91z"/>
    <path fill="#656971" d="M105.82 162.02h6.9c-.72 9.78-4.82 18.61-11.14 25.33l-4.9-4.79c5.1-5.49 8.45-12.63 9.14-20.54M97.27 136l4.93-4.78c5.9 6.57 9.74 15.02 10.49 24.36h-6.89c-.73-7.48-3.83-14.26-8.53-19.58m-22.88-11.54v-6.89c9.78.71 18.61 4.81 25.34 11.13l-4.79 4.91c-5.49-5.1-12.64-8.45-20.55-9.15m24.68 65.36c-6.57 5.91-15.03 9.74-24.37 10.49v-6.89c7.47-.72 14.25-3.82 19.57-8.53l4.8 4.93zm-30.8 3.63v6.89c-9.77-.71-18.6-4.81-25.34-11.13l4.79-4.91c5.49 5.11 12.64 8.46 20.55 9.15m-24.68-65.36c6.57-5.91 15.03-9.75 24.37-10.5v6.9c-7.47.72-14.25 3.82-19.57 8.53l-4.8-4.93zm-6.75 27.8h-6.9c.72-9.78 4.82-18.61 11.13-25.34l4.91 4.8c-5.1 5.48-8.45 12.63-9.14 20.54m.03 6.44h-6.9c.75 9.34 4.59 17.8 10.49 24.36l4.94-4.79c-4.71-5.32-7.81-12.1-8.53-19.57"/>
    <path fill="#83898b" d="M104.42 155.72c-.7-7.19-3.68-13.69-8.19-18.8-.72-.8-1.46-1.56-2.24-2.3-5.27-4.89-12.13-8.11-19.72-8.78-.97-.08-1.95-.12-2.94-.12-1.09 0-2.17.04-3.24.15-7.17.69-13.67 3.67-18.78 8.19-.8.71-1.58 1.46-2.31 2.24-4.9 5.26-8.12 12.12-8.78 19.71-.09.97-.13 1.95-.13 2.94 0 1.09.05 2.18.16 3.24.69 7.18 3.67 13.68 8.19 18.79.71.81 1.45 1.57 2.23 2.31 5.27 4.9 12.13 8.12 19.72 8.78.97.08 1.95.12 2.94.12 1.09 0 2.17-.04 3.24-.15 7.17-.69 13.67-3.67 18.78-8.19.8-.71 1.58-1.46 2.31-2.24 4.9-5.27 8.12-12.12 8.78-19.71.09-.97.13-1.95.13-2.95 0-1.09-.04-2.17-.15-3.23m1.4 6.3c-.69 7.91-4.04 15.05-9.14 20.54-.77.81-1.58 1.59-2.41 2.33-5.32 4.71-12.1 7.81-19.57 8.53-1.11.11-2.23.16-3.37.16-1.03 0-2.05-.05-3.06-.13-7.91-.69-15.06-4.04-20.55-9.15-.81-.77-1.58-1.56-2.32-2.4-4.71-5.32-7.81-12.1-8.53-19.57-.11-1.11-.17-2.24-.17-3.38 0-1.03.05-2.05.14-3.06.69-7.91 4.04-15.06 9.14-20.54.77-.81 1.58-1.59 2.41-2.33 5.32-4.71 12.1-7.81 19.57-8.53 1.11-.11 2.23-.16 3.37-.16 1.03 0 2.05.05 3.06.13 7.91.7 15.06 4.05 20.55 9.15.81.77 1.58 1.56 2.33 2.39 4.7 5.32 7.8 12.1 8.53 19.58.11 1.11.16 2.23.16 3.37 0 1.04-.05 2.06-.14 3.07"/>
    <path fill="#a1a9ac" d="M104.57 158.95c0-1.09-.04-2.17-.15-3.23-.7-7.19-3.68-13.69-8.19-18.8-.72-.8-1.46-1.56-2.24-2.3-5.27-4.89-12.13-8.11-19.72-8.78-.97-.08-1.95-.12-2.94-.12-1.09 0-2.17.04-3.24.15-7.17.69-13.67 3.67-18.78 8.19-.8.71-1.58 1.46-2.31 2.24-4.9 5.26-8.12 12.12-8.78 19.71-.09.97-.13 1.95-.13 2.94 0 1.09.05 2.18.16 3.24.69 7.18 3.67 13.68 8.19 18.79.71.81 1.45 1.57 2.23 2.31 5.27 4.9 12.13 8.12 19.72 8.78.97.08 1.95.12 2.94.12 1.09 0 2.17-.04 3.24-.15 7.17-.69 13.67-3.67 18.78-8.19.8-.71 1.58-1.46 2.31-2.24 4.9-5.27 8.12-12.12 8.78-19.71.09-.97.13-1.95.13-2.95"/>
    <path fill="#404044" d="M49.9133 158.955c0 11.828 9.589 21.417 21.417 21.417 11.828 0 21.416-9.589 21.416-21.417 0-11.828-9.588-21.417-21.416-21.417-11.828 0-21.417 9.589-21.417 21.417"/>
    <path fill="#252528" d="M53.8925 158.955c0 9.63 7.807 17.437 17.437 17.437 9.631 0 17.438-7.807 17.438-17.437s-7.807-17.437-17.438-17.437c-9.63 0-17.437 7.807-17.437 17.437"/>
    <path fill="#2a2b2d" d="M80.08 158.955c0 4.832-3.918 8.75-8.75 8.75s-8.75-3.918-8.75-8.75 3.918-8.75 8.75-8.75 8.75 3.918 8.75 8.75"/>
    <path fill="#636875" d="M214.12 19.62c-.83 1.63-1.46 2.04-2.16 2.04h-11.67s-.51.13-.81.63c-.18.3-.15 1.25.18 1.66.3.37.8.46 1.09.46h13.58v3.48h-15.71c-.51 0-1.01-.17-1.42-.49-.59-.47-1.39-1.24-1.62-2.07-.38-1.38-.5-4.31 0-5.31s2-1.75 2.5-1.75h11.25s.58-.06.83-.56.13-1.38-.25-1.63c-.37-.25-.54-.21-1-.21h-13.66v-3.13h16.87s2 .26 2.21 1.67c.21 1.42.63 3.59-.21 5.21m15.27 8.27v-8.81l-8.78 8.78h-4.47V12.77h4v9.18l9.22-9.21h4.1v15.15h-4.07zm23.31-15.12h-5.31l-4.81 4.81-3.28-3.28v-1.53h-4.41v15.12h4.57v-7.68l7.4 7.4h5.66l-7.33-7.33 7.51-7.51z"/>
    <path fill="#231f20" d="M30.8989 243.5096c.212-.045.479-.063.803-.063 1.171 0 1.885.459 1.885 1.296 0 .802-.703 1.189-1.773 1.189-.424 0-.748-.027-.915-.063v-2.359zm-.971 2.926c.469.063 1.082.117 1.863.117.96 0 1.662-.18 2.108-.504.413-.288.658-.729.658-1.269 0-.55-.2-.982-.58-1.297-.513-.441-1.349-.666-2.297-.666-.29 0-.558.009-.781.054v-2.431h-.971v5.996zm6.5227-2.9977c0-1.296.87-2.458 2.398-2.458 1.54 0 2.409 1.144 2.409 2.521 0 1.206-.781 2.467-2.398 2.467-1.606 0-2.409-1.198-2.409-2.53m5.833.099c0-2.089-1.572-3.196-3.491-3.196-1.985 0-3.38 1.243-3.38 3.079 0 1.926 1.484 3.187 3.492 3.187 2.052 0 3.379-1.27 3.379-3.07m2.4844-3.0971l-1.907 6.068h1.026l.892-3.07c.223-.756.424-1.513.558-2.098h.022c.123.603.357 1.324.614 2.107l1.003 3.061h1.016l.914-3.079c.212-.72.413-1.441.525-2.08h.022c.156.667.368 1.341.602 2.098l.993 3.061h.992l-2.13-6.068h-1.015l-.948 3.16c-.234.774-.39 1.368-.491 1.981h-.022c-.134-.603-.301-1.198-.58-1.981l-1.071-3.16h-1.015zm12.0981 2.8447h-2.922v-2.188h3.256v-.657h-4.227v6.068h4.06v-.657h-3.089v-1.918h2.922v-.648zm2.563.3785h.993c1.037 0 1.695.459 1.695 1.152 0 .784-.703 1.125-1.729 1.135-.468 0-.803-.037-.959-.073v-2.214zm-.971 2.764c.491.081 1.194.126 1.863.126 1.037 0 1.707-.153 2.175-.495.379-.27.591-.685.591-1.153 0-.801-.624-1.332-1.416-1.548v-.027c.58-.162.925-.594 1.104-1.225.245-.846.424-1.431.58-1.665h-1.004c-.123.171-.29.693-.502 1.449-.223.837-.625 1.152-1.505 1.18h-.915v-2.629h-.971v5.987zm300.1444-18.8241c0-1.296.87-2.458 2.398-2.458 1.54 0 2.41 1.144 2.41 2.521 0 1.206-.782 2.467-2.399 2.467-1.605 0-2.409-1.198-2.409-2.53m5.834.099c0-2.089-1.573-3.196-3.491-3.196-1.986 0-3.38 1.243-3.38 3.079 0 1.926 1.483 3.187 3.491 3.187 2.053 0 3.38-1.27 3.38-3.07m2.2275-.0272c.212-.045.479-.063.803-.063 1.171 0 1.885.459 1.885 1.296 0 .802-.703 1.189-1.774 1.189-.424 0-.747-.027-.914-.063v-2.359zm-.971 2.926c.469.063 1.082.117 1.863.117.96 0 1.662-.18 2.108-.504.413-.288.658-.729.658-1.269 0-.55-.201-.982-.58-1.297-.513-.441-1.349-.666-2.298-.666-.29 0-.557.009-.78.054v-2.431h-.971v5.996zm7.3587-.594h-2.286v.666h5.565v-.666h-2.298v-5.402h-.981v5.402zm5.0843-5.4017h-.971v6.068h.971v-6.068zm2.2848 2.9979c0-1.296.87-2.458 2.398-2.458 1.54 0 2.41 1.144 2.41 2.521 0 1.206-.782 2.467-2.399 2.467-1.605 0-2.409-1.198-2.409-2.53m5.834.099c0-2.089-1.573-3.196-3.491-3.196-1.986 0-3.38 1.243-3.38 3.079 0 1.926 1.483 3.187 3.491 3.187 2.053 0 3.38-1.27 3.38-3.07m1.2569-3.097v6.068h1.06l2.409-3.07c.557-.711.993-1.351 1.349-1.972l.023.009c-.089.811-.112 1.549-.112 2.494v2.539h.915v-6.068h-.982l-2.387 3.079c-.524.675-1.026 1.368-1.405 2.025l-.034-.008c.057-.766.078-1.495.078-2.503v-2.593h-.914zm-21.5743-51.5411l-1.227 2.91c-.278.66-.463 1.26-.65 1.845h-.037c-.186-.6-.39-1.215-.631-1.83l-1.226-2.925h3.771zm-4.106-1.02l-1.302-3.18h-1.672l4.256 10.11h1.951l4.275-10.11h-1.728l-1.339 3.18h-4.441zm43.4029 28.4976c.315-.045.78-.06 1.356-.06 1.673 0 3.216.495 3.216 1.965 0 1.38-1.468 1.95-3.234 1.95h-1.338v-3.855zm0 4.845h1.468c1.71 0 2.714.72 2.714 1.695 0 1.185-1.116 1.65-2.751 1.65-.744 0-1.171-.045-1.431-.09v-3.255zm-1.617 4.14c.706.12 1.821.21 2.955.21 1.617 0 2.658-.225 3.438-.735.651-.39 1.041-.99 1.041-1.785 0-.975-.799-1.83-2.119-2.22v-.03c1.19-.24 2.583-1.035 2.583-2.535 0-.87-.427-1.53-1.058-2.025-.874-.645-2.286-.945-4.331-.945-1.116 0-1.97.06-2.509.12v9.945z"/>
    <path fill="#565759" d="M250.2485 51.7088c0 .732-.009 1.465.006 2.197.004.216-.067.261-.265.254-.403-.014-.807.006-1.21-.008-.207-.008-.178.114-.185.242-.007.143.019.215.191.214 1.151-.007 2.302-.008 3.452.001.195.001.177-.104.174-.226-.002-.117.033-.238-.169-.231-.425.014-.852-.004-1.277.008-.172.004-.212-.056-.212-.219.006-1.495.004-2.989.002-4.484-.001-.075.046-.191-.049-.22-.133-.042-.284-.041-.418.001-.07.022-.039.12-.039.184-.002.763-.001 1.525-.001 2.287m-1.8589-2.2591c-.006-.157-.018-.237-.215-.236-1.038.011-2.078.01-3.117.001-.182-.001-.224.055-.222.229.008.822.003 1.645.003 2.467 0 .83.004 1.66-.002 2.489-.002.151.033.209.197.208 1.017-.007 2.033-.008 3.05.001.192.001.193-.089.197-.232.004-.155-.022-.228-.205-.225-.837.009-1.674 0-2.511.007-.173.002-.235-.04-.23-.224.012-.5.011-1.001 0-1.502-.004-.174.059-.212.22-.211.763.008 1.525-.002 2.288.009.181.002.227-.053.224-.228-.002-.166-.032-.233-.22-.23-.763.011-1.525-.001-2.288.008-.181.003-.227-.055-.224-.229.011-.553.011-1.107 0-1.66-.003-.176.046-.23.226-.228.867.009 1.734 0 2.601.008.172.001.236-.04.228-.222m-3.7713-.228c-.227 0-.41-.004-.592.001-.106.003-.14.104-.192.173-.639.838-1.28 1.674-1.911 2.518-.112.151-.186.171-.323.032-.211-.211-.437-.408-.665-.6-.11-.092-.144-.193-.142-.331.006-.538-.007-1.077.008-1.614.005-.209-.114-.189-.241-.18-.117.008-.271-.069-.27.172.008 1.682.007 3.363.001 5.045-.001.223.14.164.254.164.112-.001.258.061.254-.163-.009-.792-.004-1.585-.001-2.377 0-.068-.045-.165.042-.199.068-.026.11.061.157.104.858.79 1.729 1.566 2.562 2.381.28.274.564.268.955.242-.503-.458-.961-.874-1.419-1.29-.277-.251-.547-.51-.833-.75-.139-.116-.126-.194-.022-.324.745-.927 1.482-1.858 2.221-2.789.045-.056.085-.116.157-.215m-5.4186 1.4275c-.386-1.012-1.104-1.52-2.146-1.52-1.125.001-1.894.533-2.242 1.61-.359 1.113-.288 2.177.45 3.146.829 1.087 3.167 1.26 3.883-.568.034-.086.115-.205-.047-.221-.133-.013-.301-.229-.411.041-.232.569-.588 1.014-1.232 1.121-.737.123-1.365-.08-1.822-.694-.481-.646-.55-1.39-.467-2.16.052-.492.197-.952.553-1.318.887-.917 2.348-.693 2.916.446.057.113.113.231.143.353.037.15.116.159.245.123.285-.078.286-.073.177-.359m-6.2518-.2764c-.719-1.119-2.356-1.145-3.112-.05-.593.859-.585 2.358.016 3.213.74 1.053 2.384 1.019 3.096-.064.277-.421.403-.911.403-1.561.014-.552-.102-1.07-.403-1.538m.93 1.779c-.095 1.463-.86 2.369-2.191 2.521-1.327.152-2.344-.515-2.692-1.802-.157-.58-.168-1.171-.039-1.755.2-.908.685-1.606 1.614-1.867.928-.26 1.818-.164 2.547.544.592.575.754 1.321.762 2.113 0 .082.005.164-.001.246"/>
    <path fill="#df2025" d="M230.8505 60.7703c-.054.082-.069.144.025.226.799.699 1.593 1.402 2.384 2.11.103.092.142.071.206-.035.235-.393.476-.782.721-1.168.056-.09.05-.137-.044-.187-.097-.052-.186-.119-.278-.179-.782-.483-1.565-.962-2.342-1.451-.127-.08-.182-.06-.255.06-.13.213-.277.417-.417.624m-2.6605 5.4794c.021-.003.043-.007.064-.01.036-.027.075-.031.117-.017.022-.004.043-.008.065-.012.056-.034.115-.035.177-.023.021-.003.042-.007.063-.01.036-.028.076-.03.118-.017.021-.004.043-.008.064-.012.046-.029.096-.03.147-.017.021-.004.043-.008.065-.012.06-.055.021-.112.001-.166-.07-.194-.142-.387-.213-.58-.32-.867-.64-1.734-.959-2.601-.028-.077-.047-.159-.161-.135-.231.05-.462.097-.693.143-.077.015-.094.053-.083.128.105.679.207 1.359.309 2.04.05.336.097.674.145 1.011.004.021.008.043.012.064.027.036.031.075.017.117.004.022.007.043.011.065.02.119.088.146.197.108.035-.012.076-.004.115-.005.021-.003.042-.006.064-.009.036-.025.075-.029.116-.014.032-.006.063-.011.095-.017.046-.03.095-.033.147-.019m1.0323-4.0605c-.026.073.021.126.053.181.549.937 1.1 1.873 1.647 2.811.054.092.093.12.192.049.339-.244.684-.479 1.03-.712.081-.055.1-.095.028-.174-.097-.108-.183-.226-.274-.339-.04-.044-.082-.087-.121-.133-.567-.678-1.135-1.355-1.699-2.036-.069-.083-.123-.095-.213-.037-.211.135-.428.261-.643.39m-5.6276-6.0587l.001-.01c.01-.017.02-.033.029-.05l.001-.011c.01-.016.02-.033.03-.049v-.011c.001-.033.009-.063.039-.083.007-.015.015-.03.022-.044l-.003-.011.011-.004c.006-.013.013-.026.02-.039.001-.047.023-.084.061-.111.227-.459.45-.919.68-1.376.802-1.599 1.604-3.197 2.414-4.792.07-.139.063-.205-.091-.246-.057-.014-.108-.05-.162-.077-.015-.009-.031-.019-.047-.029-.013-.003-.026-.007-.04-.01-.222-.094-.444-.187-.666-.281-.186-.078-.187-.079-.275.102-1.334 2.718-2.667 5.436-4.001 8.153-.281.573-.566 1.144-.85 1.716-.005.019-.008.039-.017.057-.125.264-.125.264.145.393 1.221.58 2.444 1.157 3.663 1.742.371.178.721.398 1.12.518 2.171.651 4.488-.714 4.795-2.968.252-1.848-.71-3.027-.713-3.063-.015-.012-.034-.022-.046-.038-.601-.777-1.393-1.29-2.289-1.664-.115-.048-.192-.032-.281.048-.161.144-.331.278-.497.415-.84.695-1.679 1.39-2.521 2.082-.087.071-.112.133-.071.243.129.337.249.679.367 1.021.129.374.281.741.387 1.123.005.009.208.55.208.55.011.009.022.018.033.026.592 0 2.335.018 2.614.015.06-.001.122.011.165-.046 0-.031.001-1.061 0-1.306-.17-.006-.34-.018-.51-.019-.394-.003-.789-.001-1.184-.001-.066 0-.132.008-.153-.082-.037-.155-.079-.309-.118-.463-.02-.017-.151-.524-.191-.632-.036-.097-.008-.156.075-.214.491-.342.977-.69 1.465-1.034.344-.243.349-.247.663.027.31.272.959 1.195.956 1.201v.001c.02.028.043.054.058.085.423.854.298 1.668-.192 2.449-.421.673-1.039 1.003-1.83 1.001-.563-.002-1.093-.152-1.593-.406-.849-.428-1.697-.857-2.54-1.295-.405-.21-.352-.09-.156-.512.004-.009.013-.014.02-.022l.995-1.969z"/>
    <path fill="#565759" d="M220.5854 50.2408c-.756-.985-2.273-.958-2.996.049-.625.871-.598 2.413.018 3.29.686.975 2.602 1.062 3.238-.406.176-.406.244-.83.241-1.268.001-.606-.125-1.175-.501-1.665m1.019 1.978c-.09 1.289-.821 2.327-2.186 2.458-1.187.114-2.202-.378-2.636-1.612-.13-.371-.178-.756-.161-1.148 0-.127-.009-.255.002-.381.101-1.196.804-2.252 2.159-2.389 1.276-.128 2.32.449 2.697 1.739.127.437.157.883.125 1.333m-5.1304-2.7736c-.003-.171-.039-.232-.224-.23-1.039.009-2.079.008-3.118 0-.17-.001-.215.046-.213.213.008.83.003 1.66.003 2.491 0 .822.004 1.645-.002 2.467-.002.154.021.224.203.223 1.01-.01 2.02-.01 3.029 0 .185.001.202-.073.204-.224.001-.162-.022-.237-.216-.235-.83.012-1.66.001-2.491.009-.171.002-.234-.035-.229-.221.014-.508.01-1.017.002-1.525-.002-.148.043-.192.191-.191.77.007 1.54-.004 2.31.008.198.004.212-.08.214-.237.003-.158-.029-.223-.208-.22-.755.01-1.511-.001-2.266.008-.178.002-.248-.034-.243-.23.014-.553.012-1.107.001-1.66-.004-.175.04-.23.223-.228.867.01 1.735 0 2.602.009.179.001.23-.049.228-.227m-4.1972.6274c0-.092-.005-.172-.095-.233-.998-.674-2.076-.941-3.231-.517-.989.364-1.518 1.124-1.6 2.179-.038.495-.01.988.147 1.464.433 1.316 1.564 1.834 2.858 1.709.851-.083 1.483-.474 1.784-1.311.034-.094.076-.207-.079-.214-.132-.006-.295-.23-.397.018-.33.812-.943 1.158-1.799 1.122-.824-.034-1.417-.421-1.768-1.166-.443-.94-.276-2.29.356-2.959.612-.648 1.373-.725 2.191-.563.364.072.693.23 1.003.431.099.063.141.139.138.258-.007.328-.009.658.001.986.004.152-.053.191-.196.189-.441-.007-.882.007-1.323-.007-.189-.006-.201.08-.199.227.002.143.003.241.196.231.306-.017.613-.005.92-.005.299 0 .598-.008.896.003.162.006.201-.052.199-.205-.007-.546-.003-1.091-.002-1.637m-6.4691.3433c-.739-1.206-2.508-1.212-3.2.02-.547.973-.544 2.006.008 2.977.668 1.178 2.414 1.196 3.161.064.311-.473.417-1.002.408-1.577.013-.518-.095-1.024-.377-1.484m.903 1.741c-.098 1.456-.853 2.353-2.174 2.513-1.334.162-2.364-.51-2.71-1.804-.156-.581-.167-1.171-.037-1.755.202-.908.689-1.606 1.618-1.864.928-.257 1.818-.16 2.545.55.591.575.751 1.322.768 2.134-.002.062-.004.144-.01.226"/>
    <path fill="#565759" d="M201.7927 49.4384c-.003-.177-.051-.225-.228-.223-1.032.008-2.063.009-3.094-.001-.197-.002-.232.066-.23.244.008.822.003 1.644.003 2.466 0 .822.005 1.644-.003 2.467-.002.163.037.218.21.217 1.009-.008 2.019-.011 3.027.001.207.003.201-.092.208-.241.006-.161-.032-.219-.208-.218-.837.01-1.674 0-2.511.009-.179.002-.229-.052-.225-.227.011-.493.013-.986-.001-1.479-.005-.196.065-.234.244-.231.754.008 1.51-.004 2.265.009.193.003.213-.072.216-.233.004-.174-.042-.229-.223-.226-.763.011-1.525 0-2.287.009-.17.001-.216-.05-.214-.216.01-.56.011-1.121-.001-1.681-.004-.186.064-.222.232-.22.86.007 1.72-.002 2.579.007.184.003.244-.042.241-.233m-4.1769-.0161c0-.149-.03-.203-.194-.21-.238-.01-.387.057-.528.268-.89 1.339-1.798 2.666-2.701 3.995-.054.079-.093.171-.177.224-.071-.03-.045-.088-.044-.137.009-1.361.015-2.721.033-4.082.002-.198-.04-.266-.255-.271-.235-.005-.243.101-.242.279.004 1.616.001 3.231.006 4.846 0 .089-.072.249.08.258.161.009.356.1.488-.102.263-.4.536-.793.804-1.19.697-1.027 1.392-2.055 2.09-3.081.04-.058.061-.138.173-.163 0 .385.003.761-.001 1.137-.009 1.069-.014 2.138-.037 3.207-.006.232.12.202.264.206.148.003.245.006.244-.204-.01-1.66-.007-3.32-.003-4.98"/>
    <path fill="#e8222e" d="M316.7554 241.1445c-.336-.024-.669-.004-1.003-.004l-.001-.007c-.306 0-.61.01-.917-.003-.253-.011-.366.065-.317.342.086.479.154.96.215 1.439.031.243.139.337.382.332.638-.01 1.282.013 1.918-.01.677-.024 1-.399.921-1.012-.088-.675-.466-1.025-1.198-1.077m1.534-3.208c-.256.892-.19 1.938-1.003 2.614.104.061.154.096.207.12.894.409 1.315.998 1.322 1.847.006.793-.382 1.225-1.32 1.35-1.019.137-2.084.03-3.124.059-.298.008-.294-.197-.322-.386-.268-1.8-.53-3.601-.809-5.402-.047-.299.022-.4.331-.406.33-.004.456.102.476.426.016.274.066.552.12.827.088.446-.041 1.016.283 1.305.348.311.896.094 1.355.103.755.014 1.174-.327 1.334-1.038.095-.421.172-.849.26-1.273.06-.288.518-.471.8-.325.084.043.113.105.09.179m-10.6766.394c-.994.037-1.657.8-1.652 1.912.001.2.026.405.033.504.092.605.236 1.092.546 1.536.55.785 1.279 1.107 2.15 1.057.799-.047 1.292-.461 1.52-1.178.21-.657.124-1.356-.113-2.05-.404-1.182-1.318-1.823-2.484-1.781m1.033 5.686c-1.792.002-3.186-1.278-3.47-3.183-.279-1.879.74-3.18 2.489-3.18 1.77 0 3.149 1.271 3.435 3.166.289 1.914-.695 3.195-2.454 3.197m-9.3815-3.0839c.134.9.281 1.801.395 2.701.04.321.174.383.463.388.311.006.38-.101.333-.401-.24-1.525-.447-3.05-.694-4.575-.064-.391.049-.501.427-.488.729.025 1.452-.004 2.18.012.3.007.349-.118.309-.389-.038-.262-.134-.357-.403-.354-1.044.012-2.089.013-3.137 0-.279-.004-.326.109-.285.361.146.915.276 1.83.412 2.745m-4.1001-1.5271c-.479-.737-1.12-1.148-1.968-1.166-.858-.017-1.454.328-1.716 1.094-.318.929-.173 1.889.403 2.821.522.843 1.474 1.245 2.43 1.077.834-.146 1.393-.917 1.376-1.906-.003-.187-.029-.376-.045-.565-.064-.473-.205-.93-.48-1.355m1.329 2.324c-.158 1.611-1.514 2.509-3.188 2.146-1.481-.32-2.513-1.493-2.752-3.134-.015-.101-.035-.203-.045-.305-.125-1.301.501-2.37 1.601-2.741 1.14-.385 2.492-.029 3.367.926.854.931 1.125 1.999 1.017 3.108m-10.8402-4.0836c-1.445-.003-2.359.8-2.429 2.222-.067 1.363.249 2.659 1.57 3.605 1.043.748 2.575.729 3.432.017.267-.221.456-.502.535-.847.041-.178.221-.402-.069-.573-.268-.158-.649.019-.716.298-.146.611-.576.894-1.195.954-.805.079-1.556-.136-2.069-.887-.73-1.07-.894-2.19-.463-3.254.354-.877 1.617-1.16 2.557-.638.326.18.561.439.716.773.152.326.536.491.814.358.188-.089.068-.247.021-.375-.338-.92-1.299-1.592-2.355-1.652-.117-.007-.233-.001-.349-.001"/>
  </g>
</svg>
