<svg xmlns="http://www.w3.org/2000/svg" width="237.81039" height="200">
  <defs>
    <clipPath id="a">
      <path d="M0 153.13h182.08V0H0v153.13z"/>
    </clipPath>
  </defs>
  <path fill="#2c2a2a" d="M2.2721811 198.19748l4.4145382 1.80239v-42.36912l-4.4145382-1.22771v41.79444zm228.8684689-40.5666L231.11455 200l4.41454-1.3322v-42.35736l-4.38842 1.32044z"/>
  <path fill="#565759" d="M6.6872417 157.63088V200H231.11427l.0261-42.36912H6.6872217zm224.4229783-1.22823H6.6871111V27.754122H231.11022V156.40265z"/>
  <path fill="#2c2a2a" d="M6.6871111 27.754122V156.40265l-4.4145382-1.35832V30.366275l4.4145382-2.612153zm224.4274189 0V156.40265l4.41454-1.35832V30.366275l-4.41454-2.612153z"/>
  <g clip-path="url(#a)" transform="matrix(1.3060764,0,0,-1.3060764,0,199.99948)">
    <path fill="#39393a" d="M79.2034 26.0675h25.982c.74 0 1.143-.866.665-1.432l-12.451-14.772c-.577-.685-1.627-.704-2.228-.038l-12.861 14.232c-.699.774-.15 2.01.893 2.01m-13.9063 0h-47.739c-1.105 0-2.001-.896-2.001-2v-12.73c0-1.104.896-2 2.001-2h47.687c1.104 0 2 .896 2 2v12.782c0 1.076-.872 1.948-1.948 1.948m51.9896-1.3229v-13.563c0-1.018.826-1.844 1.844-1.844h48.249c.961 0 1.74.779 1.74 1.74v12.896c0 1.157-.937 2.094-2.093 2.094h-48.417c-.731 0-1.323-.592-1.323-1.323M182.08 135.13l-1.74-5.25h-.01l-3.37 2h-12.67l1.26 3.31 16.05-.06h.48z"/>
    <path fill="#565759" d="M165.18 137.82H16.53v2.12h148.65v-2.12zm-148.3 5.29h147.95v-2.13H16.88v2.13zm.54 2.52h146.87v-1.48H17.42v1.48zm1.17 2.42h144.53v-1.08H18.59v1.08zm159.89 2.58c-.29.74-1.16 1.33-2 1.75-1.04.5-2.16.75-3.3.75H8.42c-1.14 0-2.27-.25-3.3-.75-.85-.42-1.71-1.01-2-1.75C2.49 149 0 135.13 0 135.13l13.54.05 2.99.01h149.02l16.53-.06s-2.97 13.87-3.6 15.5"/>
    <path fill="#454547" d="M17.787 122.213h146.5V43.046h-146.5v79.167z"/>
    <path fill="#39393a" d="M17.79 131.88H5.12l-3.38-2L0 135.13l13.54.05 2.99.01.02-.06 1.24-3.25z"/>
    <path fill="#696a6c" d="M164.287 126.755h-146.5v-2.125h146.5v2.125zm0 3.625h-146.5v-2.125h146.5v2.125z"/>
    <path fill="#454547" d="M165.55 135.19l-1.26-3.31H17.79l-1.24 3.25-.02.06h149.02z"/>
    <path fill="#161413" d="M1.74 34.42v-1.04l3.38-.94h171.853l3.36 1.01v.97l-3.38-1.04H5.12l-3.38 1.04z"/>
    <path fill="#696a6c" d="M165.18 137.82H16.53v2.12h148.65v-2.12zm-.35 3.16H16.88v2.13h147.95v-2.13zm-.54 3.17H17.42v1.48h146.87v-1.48zm-1.17 2.82H18.59v1.08h144.53v-1.08z"/>
    <path fill="#565759" d="M49.6114 12.5732h3.807v4.864l5.729-4.864h4.53l-6.175 5.28 6.069 4.979h-4.529l-5.624-4.547v4.547h-3.807v-10.259zm-14.9124 0h3.807v6.133l6.893-6.133h3.789v10.259h-3.807v-6.133l-6.893 6.133h-3.789v-10.259zm-.6346 7.4032v2.856h-11.105c-1.933.033-3.173-1.468-3.173-3.279s1.189-3.315 3.173-3.279h7.033c.262 0 .476-.189.476-.423 0-.233-.214-.423-.476-.423h-10.1v-2.855h11.105c1.933-.034 3.173 1.468 3.173 3.278 0 1.811-1.189 3.315-3.173 3.279h-7.033c-.262 0-.476.189-.476.423 0 .234.214.423.476.423h10.1m128.8436-6.7558c0 .529-.007 1.057.004 1.586.003.156-.048.189-.191.184-.291-.011-.583.004-.874-.006-.149-.006-.128.082-.133.175-.006.103.014.155.138.154.831-.005 1.661-.006 2.492 0 .141.002.128-.074.126-.163-.002-.084.023-.171-.122-.167-.307.011-.615-.002-.922.006-.125.004-.154-.04-.153-.158.004-1.079.003-2.158.001-3.237 0-.054.033-.138-.035-.159-.096-.03-.205-.029-.302.001-.051.016-.028.087-.028.133-.001.55-.001 1.101-.001 1.651m-1.342-1.631c-.005-.113-.013-.171-.155-.17-.75.008-1.5.007-2.25.001-.132-.001-.162.039-.161.165.006.593.003 1.187.003 1.781 0 .599.002 1.198-.002 1.797-.001.108.024.151.142.15.734-.005 1.468-.006 2.202 0 .139.002.14-.064.142-.167.003-.112-.016-.164-.147-.163-.605.007-1.209 0-1.814.006-.124.001-.169-.029-.166-.162.009-.361.009-.723.001-1.084-.003-.126.042-.153.158-.152.551.005 1.101-.002 1.652.005.131.002.164-.037.162-.164-.002-.12-.023-.168-.159-.166-.551.008-1.101-.001-1.652.006-.131.002-.164-.04-.161-.166.007-.399.007-.798 0-1.198-.003-.127.033-.166.162-.164.626.006 1.252-.001 1.878.005.125.001.17-.029.165-.16m-2.7227-.1646c-.164 0-.296-.003-.427.001-.077.002-.102.075-.139.124-.462.605-.924 1.21-1.38 1.819-.081.108-.134.123-.233.023-.152-.153-.315-.295-.48-.434-.079-.066-.104-.139-.102-.239.004-.388-.005-.777.005-1.165.004-.151-.082-.136-.174-.13-.084.006-.195-.05-.195.124.006 1.214.006 2.429.001 3.643-.001.161.101.118.183.118.081 0 .186.044.184-.118-.007-.571-.003-1.144-.001-1.716 0-.049-.033-.119.03-.143.049-.019.08.044.114.075.619.57 1.248 1.13 1.849 1.719.203.198.408.193.69.174-.363-.33-.694-.631-1.025-.931-.199-.181-.395-.368-.601-.541-.1-.084-.091-.141-.016-.235.538-.668 1.07-1.341 1.604-2.013.032-.04.061-.084.113-.155m-3.912 1.0306c-.279-.731-.797-1.098-1.549-1.097-.813 0-1.368.384-1.619 1.162-.259.803-.208 1.572.325 2.271.598.785 2.286.91 2.803-.41.025-.062.083-.148-.034-.16-.095-.009-.217-.165-.296.03-.168.411-.425.732-.89.81-.532.089-.985-.058-1.315-.502-.348-.466-.397-1.003-.338-1.559.038-.355.143-.687.4-.952.64-.661 1.695-.5 2.105.322.041.082.081.167.103.255.027.109.084.115.177.09.206-.057.206-.054.128-.26m-4.5135-.1995c-.519-.808-1.701-.827-2.247-.036-.428.62-.422 1.702.012 2.319.534.761 1.721.736 2.235-.046.2-.303.291-.658.291-1.127.01-.398-.074-.772-.291-1.11m.672 1.284c-.069 1.057-.621 1.71-1.582 1.82-.959.11-1.693-.371-1.944-1.301-.113-.419-.121-.845-.028-1.266.145-.656.495-1.16 1.165-1.348.67-.188 1.313-.119 1.839.392.427.415.544.954.55 1.525 0 .06.004.119 0 .178m-2.3045 6.1783c-.043.066-.055.116.02.182.641.561 1.279 1.125 1.914 1.693.083.074.114.058.166-.028.188-.315.382-.627.578-.938.046-.071.041-.109-.035-.149-.078-.042-.149-.096-.223-.144-.628-.388-1.256-.773-1.881-1.165-.101-.064-.145-.048-.204.048-.105.171-.223.334-.335.501m-2.1363 4.3997c.017-.003.035-.005.052-.008.029-.021.06-.025.093-.014.018-.003.035-.006.053-.009.044-.027.092-.028.141-.019.017-.002.035-.005.052-.008.028-.022.06-.024.094-.014l.051-.009c.037-.023.077-.024.118-.014.018-.003.035-.006.052-.01.048-.043.017-.089.001-.133-.056-.155-.114-.31-.171-.465-.257-.697-.513-1.393-.77-2.089-.022-.061-.037-.128-.129-.108-.185.039-.371.078-.557.114-.061.012-.075.043-.066.103.084.546.166 1.092.248 1.638.04.27.078.541.117.812.003.017.006.034.009.052.022.028.025.06.014.093.003.018.006.035.009.053.016.095.07.117.158.087.028-.01.061-.004.092-.005.017-.002.034-.005.051-.007.03-.02.061-.024.094-.011.025-.005.051-.009.076-.014.037-.024.077-.026.118-.015m.8289-3.2604c-.021.059.017.101.043.145.44.753.882 1.504 1.322 2.257.043.075.074.097.154.039.273-.195.55-.384.827-.571.066-.044.08-.076.023-.14-.078-.086-.147-.181-.22-.272-.032-.035-.066-.07-.097-.107-.456-.544-.912-1.087-1.365-1.634-.055-.067-.098-.076-.171-.03-.17.108-.344.209-.516.313m-4.5187-4.8649l.001-.008c.008-.014.015-.027.023-.04l.001-.009.024-.039v-.009c.001-.027.007-.051.031-.067.006-.012.012-.024.018-.035l-.003-.009.009-.003c.006-.011.011-.021.016-.032.001-.038.019-.067.05-.088.181-.369.361-.739.545-1.106.645-1.283 1.289-2.567 1.939-3.848.056-.111.05-.164-.073-.197-.046-.011-.087-.04-.13-.062-.013-.007-.025-.015-.038-.023-.011-.003-.021-.005-.032-.008-.178-.075-.357-.15-.535-.225-.15-.064-.15-.064-.221.081-1.071 2.183-2.141 4.365-3.212 6.547-.226.46-.455.918-.683 1.377-.004.016-.006.032-.013.046-.101.213-.101.213.116.316.98.466 1.962.929 2.941 1.399.298.143.579.32.899.416 1.743.523 3.604-.574 3.851-2.383.202-1.484-.571-2.431-.573-2.46-.012-.01-.027-.018-.037-.03-.483-.624-1.119-1.036-1.838-1.337-.092-.038-.154-.025-.225.039-.13.115-.266.223-.4.333-.674.558-1.348 1.116-2.024 1.672-.069.057-.09.107-.056.195.103.271.199.545.294.82.104.3.225.595.311.902.003.007.167.442.167.442.009.006.017.013.026.02.475 0 1.875.014 2.099.012.049 0 .098.009.132-.037.001-.025.001-.852 0-1.048-.136-.006-.272-.015-.409-.016-.317-.002-.634 0-.951 0-.052 0-.106.006-.122-.066-.03-.124-.064-.248-.095-.372-.016-.014-.122-.421-.154-.508-.029-.078-.006-.124.061-.171.394-.275.784-.554 1.176-.831.276-.195.28-.198.532.022.249.218.77.959.768.965.016.023.034.044.047.069.339.686.239 1.339-.155 1.966-.338.541-.834.805-1.469.803-.452-.001-.878-.122-1.28-.325-.681-.344-1.362-.688-2.039-1.04-.325-.169-.283-.072-.125-.411.003-.007.011-.012.016-.018l.799-1.581zm-1.4667-3.832c-.546-.711-1.641-.692-2.163.036-.451.629-.432 1.742.013 2.374.495.704 1.878.767 2.338-.293.127-.293.176-.598.174-.915.001-.437-.091-.848-.362-1.202m.736 1.428c-.065.93-.593 1.68-1.578 1.775-.857.082-1.591-.273-1.903-1.164-.094-.268-.129-.546-.116-.829 0-.092-.007-.184 0-.275.074-.863.581-1.626 1.559-1.725.922-.093 1.675.324 1.947 1.256.092.315.113.638.091.962m-3.7042-2.0024c-.002-.123-.028-.167-.162-.166-.75.006-1.501.006-2.251 0-.122-.001-.155.033-.154.154.006.599.003 1.198.003 1.798 0 .594.002 1.188-.002 1.781-.001.112.015.162.147.161.729-.007 1.458-.007 2.187 0 .133.001.145-.052.146-.162.002-.116-.015-.171-.155-.169-.599.008-1.199.001-1.798.006-.124.001-.169-.025-.166-.159.01-.367.007-.734.002-1.101-.002-.107.031-.139.137-.138.556.005 1.113-.003 1.668.006.143.002.153-.058.155-.171.002-.115-.021-.161-.15-.159-.546.007-1.091-.001-1.636.005-.129.002-.179-.024-.176-.166.01-.399.009-.799.001-1.198-.003-.126.029-.166.161-.165.626.008 1.252 0 1.879.007.128.001.166-.035.164-.164m-3.0302.4529c0-.067-.003-.124-.068-.168-.721-.486-1.499-.68-2.333-.373-.714.262-1.096.811-1.155 1.573-.028.357-.008.713.105 1.056.313.951 1.13 1.325 2.064 1.234.615-.059 1.071-.342 1.288-.946.025-.068.055-.149-.057-.154-.095-.005-.213-.167-.286.013-.239.586-.681.835-1.299.81-.595-.025-1.024-.305-1.277-.843-.319-.678-.199-1.653.257-2.136.442-.468.991-.523 1.582-.406.263.052.5.166.724.311.071.046.102.1.1.186-.005.237-.007.475.001.712.002.11-.039.138-.142.137-.318-.006-.637.005-.955-.006-.137-.004-.145.058-.144.165.001.103.002.173.142.166.221-.012.442-.003.664-.003.216 0 .432-.006.647.002.117.005.145-.038.144-.148-.006-.394-.003-.788-.002-1.182m-4.6704.2479c-.533-.871-1.81-.875-2.31.014-.395.703-.393 1.448.005 2.15.483.85 1.743.863 2.283.046.224-.342.301-.724.294-1.139.01-.374-.069-.739-.272-1.071m.652 1.257c-.071 1.051-.616 1.698-1.57 1.814-.963.117-1.706-.368-1.956-1.302-.113-.42-.121-.846-.027-1.267.146-.656.497-1.159 1.168-1.346.67-.186 1.313-.116 1.838.397.426.416.542.955.554 1.541-.002.045-.003.104-.007.163"/>
    <path fill="#565759" d="M127.925 11.5815c-.002-.128-.037-.163-.165-.161-.744.006-1.489.006-2.234-.001-.142-.001-.167.048-.166.176.006.594.003 1.187.003 1.781 0 .593.003 1.187-.002 1.781-.002.117.026.157.152.156.728-.005 1.457-.007 2.185.001.149.002.145-.066.15-.174.004-.116-.023-.158-.15-.157-.605.007-1.209 0-1.813.006-.13.002-.165-.038-.162-.163.007-.356.009-.713-.001-1.068-.004-.142.047-.169.176-.167.544.006 1.09-.003 1.635.006.14.002.154-.052.156-.168.003-.126-.03-.165-.161-.163-.551.008-1.101 0-1.651.006-.123.002-.156-.035-.154-.155.006-.405.007-.81-.001-1.214-.003-.134.046-.16.167-.159.621.005 1.242-.001 1.862.005.133.002.176-.03.174-.168m-3.0155-.0116c0-.108-.022-.146-.14-.152-.172-.007-.28.041-.381.194-.642.967-1.298 1.924-1.95 2.884-.039.057-.067.124-.128.162-.051-.022-.032-.064-.032-.099.006-.983.011-1.965.024-2.947.001-.143-.029-.192-.184-.196-.17-.003-.175.073-.175.202.003 1.166.001 2.332.004 3.498.001.065-.052.18.058.186.117.007.257.073.353-.073.19-.289.386-.573.58-.859.503-.742 1.005-1.484 1.509-2.225.028-.041.044-.099.125-.118 0 .278.002.55-.001.822-.007.772-.01 1.543-.027 2.315-.004.168.087.146.191.148.107.003.177.005.176-.147-.007-1.198-.005-2.397-.002-3.595"/>
  </g>
  <path stroke-width=".1" d="M181.20874 108.01942h28.41559v29.11438h-28.41559z"/>
  <path fill="#f10000" d="M195.06011 135.98874c-.93779.36434-1.85647.72147-2.79641 1.0861-3.70093-6.81701-7.40465-13.63541-11.11173-20.46131.36963-.15841.73864-.3171 1.10797-.47523 1.09166-.46746 2.18362-.93436 3.27528-1.40264 1.23786-.53111 2.47818-1.05858 3.71233-1.59747.55399-.24235 1.09321-.51247 1.6438-.76259 1.22247-.55473 2.51819-.83376 3.88745-.78985 2.31721.0745 4.27585.886 5.87288 2.39591.85191.80458 1.4102 1.76422 1.7709 2.82503.27239.80012.41273 1.61691.3998 2.45205-.0209 1.34761-.4041 2.60963-1.1683 3.76826-.82267 1.24618-1.94142 2.23584-3.28483 3.02401-.84206.49357-1.73737.89406-2.68098 1.21894-2.37445-1.77366-4.74705-3.54566-7.12766-5.32376.73772-1.88344 1.47515-3.76327 2.21595-5.65338 2.03344-.0181 4.06811-.0358 6.1237-.0536v2.72997h-3.98254c-.26038.8596-.51952 1.71697-.78144 2.58211 1.38189.88462 2.75794 1.76533 4.16444 2.66606.3841-.30432.78021-.59835 1.15076-.91685.53799-.46218.99657-.98437 1.3982-1.55188.60015-.84848.9387-1.76227.919-2.77276-.0147-.72759-.26191-1.40209-.60907-2.0502-.36563-.68312-.84392-1.2873-1.51947-1.75253-.76511-.52694-1.63733-.77651-2.58865-.80457-1.39758-.0408-2.69237.30265-3.92438.87432-1.17137.5436-2.34552 1.08193-3.51874 1.62276-.83006.38297-1.66042.76649-2.49017 1.15001-.0169.008-.0321.0192-.0502.0306 3.33039 5.97825 6.65676 11.95234 9.99207 17.94254zm2.3529-26.24056c-.6654-.12368-1.31234-.2443-1.97681-.36797.38686-2.3331-.16642.96903.22136-1.36935 1.25992.0238 1.24282-.007 2.46127.0372-.94024 2.30336.23257-.59907-.70582 1.70014z"/>
  <path fill="#07b8f9" d="M208.21575 107.84528c.32131.46981 1.4422 1.54041 1.41561 2.16002-.0234.54607-.0287.41155-.0159 1.01858-2.09869 1.17337-3.6754 1.9773-5.77963 3.15316-.44134-.59473-.87407-1.17864-1.31664-1.77616 1.89741-1.51714 3.79081-3.03151 5.69652-4.5556"/>
  <path fill="#069211" d="M200.6789 108.00902c.79074.0149 2.02547.0231 3.24609.0239-1.65487 1.78199-1.32729 1.4237-2.98863 3.2118-.58107-.32377-1.15691-.64448-1.74905-.97464 1.31448-2.02184.16327-.21701 1.49159-2.26108z"/>
  <path fill="#1d1d1b" d="M182.91151 107.06944l-.003-2.481h.26979v2.97079h-.26979l-1.43631-2.5011.007 2.5011h-.26979v-2.97079h.28322l1.41953 2.481zm.56775-2.481h1.32386v.29304h-1.0474v1.03173h1.04064v.29304h-1.04064v1.05994h1.0474v.29304h-1.32386v-2.97079zm1.44979 1.49342c0-.91521.59686-1.54562 1.30167-1.54562.73171 0 1.30161.66644 1.30161 1.53757 0 .87124-.56649 1.53756-1.30161 1.53756-.73853 0-1.30167-.67849-1.30167-1.52557v-.004zm.27987-.008c0 .69854.44172 1.24453 1.02515 1.24453.5901 0 1.02175-.56592 1.02175-1.24453 0-.67849-.4316-1.24452-1.0251-1.24452-.58675 0-1.0218.55398-1.0218 1.2404v.004zm4.62684-.71458c-.0776-.12845-.17203-.23684-.27992-.32114-.16186-.1325-.35744-.2088-.57998-.2088-.5463 0-1.02175.49778-1.02175 1.2404 0 .7548.47886 1.25258 1.02511 1.25258.26303 0 .49569-.10827.66767-.26893.17539-.16466.29675-.38939.33724-.62236h-1.35819v-.27299h1.6819c-.003.17271-.0371.38939-.11129.57415-.21583.55804-.71492.88318-1.21733.88318-.72836 0-1.30497-.66639-1.30497-1.54563 0-.89117.58674-1.53356 1.30833-1.53356.50581 0 .97454.33724 1.17012.82298h-.31695v.00012zm.60583-.77078h1.38254v.29304h-1.10598v1.03172h1.09927v.29304h-1.09927v1.05995h1.10598v.29304h-1.38254v-2.97079zm1.49384 1.49342c0-.91522.59686-1.54562 1.30162-1.54562.73176 0 1.30161.66643 1.30161 1.53756 0 .87125-.5665 1.53757-1.30161 1.53757-.73848 0-1.30162-.67849-1.30162-1.52558v-.004zm.27987-.008c0 .69853.44172 1.24452 1.0251 1.24452.59015 0 1.02175-.56591 1.02175-1.24452 0-.6785-.4316-1.24453-1.0251-1.24453-.58675 0-1.02175.55398-1.02175 1.24041v.004zm5.40289.008c0-.91522.59682-1.54562 1.30167-1.54562.73176 0 1.30167.66643 1.30167 1.53756 0 .87125-.5665 1.53757-1.30167 1.53757-.73848 0-1.30167-.67849-1.30167-1.52558v-.004zm.27982-.008c0 .69853.44177 1.24452 1.02521 1.24452.59015 0 1.0218-.56591 1.0218-1.24452 0-.6785-.4316-1.24453-1.02516-1.24453-.58669 0-1.02185.55398-1.02185 1.24041v.004zm5.1088.68654c-.16181.4577-.59681.8512-1.14648.8512-.73842 0-1.30166-.67849-1.30166-1.53751 0-.84714.54971-1.53762 1.29816-1.53762.61701 0 1.00491.48979 1.14983.86713h-.30016c-.0844-.17659-.36751-.57409-.84967-.57409-.58339 0-1.02175.54999-1.02175 1.24047 0 .70259.44162 1.24858 1.02175 1.24858.5228 0 .78898-.44565.84967-.55804l.30031-.00012zm2.73818-2.17191h1.38264v.29304h-1.10603v1.03173h1.09922v.29304h-1.09922v1.05994h1.10603v.29304h-1.38264v-2.97079zm2.78533.29304h-.80412v-.29304h1.89147v.29304h-.80743v2.67775h-.27992v-2.67775zm-3.49038 2.67775h.34736l-1.2964-1.48954 1.19177-1.48131h-.30342l-1.30813 1.61065v-1.61059h-.27651v2.97079h.27651v-.96813l.25456-.31655 1.11426 1.28468z"/>
  <path fill="none" d="M196.38187 107.78629c-.5431-1.28587-1.08469-2.56828-1.62663-3.85164.003-.003.005-.005.008-.007.13514-.0823.27034-.16466.40544-.24687.19102-.11609.38209-.23165.57291-.34834.20059-.12266.41141-.19645.63896-.18768.15489.006.2969.0596.42148.17271.10994.0999.18776.22956.24739.3762.0566.13912.0969.28391.0992.4401.003.21691-.0519.41307-.14958.59521-.0654.12182-.14011.23391-.2277.33313-.0603.0684-.12483.13148-.18736.19681-.22896-.19335-.45305-.38241-.67805-.5723.0428-.18572.0848-.36976.12723-.55428h.64843v-.58603c-.33484.004-.66597.008-.99704.0115-.12062.40574-.24068.80927-.3608 1.21357.3876.38169.7739.76207 1.16051 1.14287.15363-.0697.29941-.15565.43661-.26172.21863-.16913.40088-.38158.53473-.64914.12432-.24872.18681-.51962.19021-.8089.002-.17928-.0207-.35455-.065-.52637-.0588-.22765-.14968-.43371-.28838-.60642-.26003-.32412-.57893-.49833-.95616-.51431-.22299-.009-.43396.0505-.63299.16954-.0897.0537-.17744.11168-.26764.16371-.20095.11567-.40289.2289-.60443.34291-.17775.10058-.35554.20081-.53328.30109-.0601.034-.12021.068-.1804.10202.60363 1.46526 1.20656 2.92879 1.80919 4.39232.15278-.0783.30241-.15499.45505-.23314z"/>
  <path fill="#f10000" d="M196.38187 107.78629c-.15269.0782-.30227.15487-.4553.23314-.60258-1.46335-1.20561-2.927-1.80919-4.39226.0602-.034.12027-.0681.1804-.10201.17774-.10035.35553-.20057.53328-.3011.20154-.114.40348-.22723.60443-.34291.0902-.052.17799-.11001.26764-.1637.19903-.11908.41-.17898.63294-.16955.37728.016.69618.19019.95621.51431.1387.17271.2296.37871.28833.60642.0443.17176.0672.34709.0651.52637-.003.28928-.0658.56019-.19022.8089-.13394.26751-.31609.47995-.53482.64914-.1371.10595-.28288.19192-.43651.26166-.38661-.38074-.77291-.76112-1.16051-1.14281.12011-.4043.24018-.80783.36079-1.21356.33108-.004.66236-.008.99705-.0115v.58602h-.64843c-.0424.18452-.0846.36856-.12723.55428.225.18989.44904.37895.67805.5723.0625-.0653.12703-.12844.18736-.19681.0876-.0992.16226-.21131.22765-.33313.0977-.18214.15284-.37829.14963-.59521-.002-.15619-.0426-.30098-.0992-.4401-.0595-.14664-.1374-.27633-.24739-.3762-.12458-.11311-.26659-.16669-.42148-.17271-.22755-.009-.43837.065-.63896.18768-.19072.11669-.38189.23225-.57291.34835-.13515.0822-.27035.16453-.40544.24686-.003.002-.005.004-.008.007.54224 1.2833 1.08383 2.56571 1.62688 3.85158zm.38309-5.63285c-.10833-.0266-.21367-.0524-.32185-.079.063-.50083.12597-1.00154.18911-1.5035.19719.0342.39247.0683.59085.10285-.15308.49444-.30532.98609-.45811 1.47964zm1.75888-.40848c.10463.2017.2078.4009.31274.60326-.34171.25188-.68326.50352-1.02586.75593-.0719-.12767-.14232-.25301-.21438-.38127.30894-.32568.61721-.65075.9275-.97792zm-.82532-.78731c.15118.12439.29961.24663.44869.36929-.26945.38252-.53809.76392-.80858 1.14776-.0946-.0695-.18837-.13835-.28478-.20922.21402-.43401.42839-.86904.64467-1.30783z"/>
</svg>
