<svg xmlns="http://www.w3.org/2000/svg" width="400" height="118.15842">
  <path fill="#1d1d1b" d="M23.97487 76.855753l-.04798-29.342051h3.798725v35.134681H23.92689L3.7034754 53.068563l.09525 29.57982H0V47.513702h3.987815l19.987053 29.342051zm7.993975-29.342051h18.640142v3.465701H35.861409v12.20192h14.652328v3.46571H35.861409v12.53565h14.747578v3.4657H31.968845V47.513702zm20.41321 17.662241c0-10.82397 8.403904-18.279605 18.32758-18.279605 10.302561 0 18.326874 7.881795 18.326874 18.184355 0 10.30397-7.976335 18.18435-18.326874 18.18435-10.398517 0-18.32758-8.02431-18.32758-18.04254v-.0466zm3.940542-.0952c0 8.26138 6.219496 14.71865 14.43431 14.71865 8.308654 0 14.386332-6.69293 14.386332-14.71865 0-8.02432-6.076973-14.718653-14.433604-14.718653-8.261381 0-14.387038 6.551813-14.387038 14.669963v.0487zm65.146303-8.45118c-1.0922-1.51907-2.42218-2.80107-3.94125-3.79802-2.27895-1.56704-5.03274-2.469453-8.16613-2.469453-7.69199 0-14.386327 5.887173-14.386327 14.669963 0 8.92673 6.742317 14.8139 14.433607 14.8139 3.70347 0 6.97938-1.28058 9.40085-3.18065 2.46946-1.94734 4.17832-4.60518 4.74841-7.36039h-19.12345v-3.22863h23.68136c-.0473 2.04259-.52212 4.60518-1.56705 6.79029-3.03884 6.59979-10.0662 10.44509-17.14012 10.44509-10.255291 0-18.37415-7.88109-18.37415-18.27961 0-10.53963 8.261381-18.137076 18.42142-18.137076 7.1219 0 13.72169 3.988516 16.47549 9.733176h-4.46266v.001zm8.5302-9.115811h19.46635v3.465701h-15.57237v12.20192h15.47783v3.46571h-15.47783v12.53565h15.57237v3.4657H129.9991V47.513752zm21.0334 17.662241c0-10.82397 8.4039-18.279605 18.32687-18.279605 10.30327 0 18.32688 7.881795 18.32688 18.184355 0 10.30397-7.97634 18.18435-18.32688 18.18435-10.39781 0-18.32687-8.02431-18.32687-18.04254v-.0466zm3.94054-.0952c0 8.26138 6.21949 14.71865 14.4336 14.71865 8.30936 0 14.38634-6.69293 14.38634-14.71865 0-8.02432-6.07698-14.718653-14.43361-14.718653-8.26138 0-14.38633 6.551813-14.38633 14.669963v.0487zm76.07329.0952c0-10.82397 8.40319-18.279605 18.32758-18.279605 10.30326 0 18.32758 7.881795 18.32758 18.184355 0 10.30397-7.97634 18.18435-18.32758 18.18435-10.39782 0-18.32758-8.02431-18.32758-18.04254v-.0466zm3.93983-.0952c0 8.26138 6.2202 14.71865 14.43502 14.71865 8.30936 0 14.38704-6.69293 14.38704-14.71865 0-8.02432-6.07698-14.718653-14.43431-14.718653-8.26068 0-14.38775 6.551813-14.38775 14.669963v.0487zm71.93237 8.11956c-2.27825 5.41304-8.4032 10.06691-16.14247 10.06691-10.3971 0-18.32758-8.02432-18.32758-18.18365 0-10.01893 7.73997-18.185058 18.27819-18.185058 8.68754 0 14.14927 5.792628 16.18974 10.255288h-4.22629c-1.18816-2.08845-5.17457-6.789586-11.96345-6.789586-8.21411 0-14.38633 6.504536-14.38633 14.670676 0 8.30935 6.21808 14.76662 14.38633 14.76662 7.36109 0 11.10902-5.27052 11.96345-6.59979l4.22841-.001zm38.55381-25.686551h19.46777v3.465701h-15.57308v12.20192h15.47712v3.46571h-15.47712v12.53565h15.57308v3.4657h-19.46777V47.513802zm39.21775 3.465701H373.368v-3.465701H400v3.465701h-11.36866v31.66898h-3.94125v-31.66898z"/>
  <path fill="#f10000" d="M151.16232 109.72206c-1.44851 4.92621-6.08544 8.43636-11.65653 8.43636-7.27713 0-12.49332-5.76441-12.49332-12.39595 0-6.342967 4.92621-12.332447 12.46157-12.332447 6.85873.0332 10.75483 5.08778 11.68828 8.566877h-5.05533c-.74013-1.64254-2.86527-4.314477-6.6654-4.347647-4.63693 0-7.63132 3.895387-7.63132 8.113917 0 4.34765 3.1235 8.18025 7.66377 8.18025 4.25028 0 6.18281-3.34858 6.63295-4.21854l5.05533-.003zm12.84751-3.73593c0-7.629197 5.86036-12.558227 12.49402-12.558227 7.21292 0 12.52578 5.60213 12.52578 12.364197 0 6.76207-5.28111 12.3635-12.55823 12.3635-7.30959 0-12.46157-5.763-12.46157-12.13772v-.0317zm4.79779-.19262c0 4.34765 3.12351 8.14708 7.76114 8.14708 4.83026 0 7.66378-4.18678 7.66378-8.11392 0-3.99204-2.83352-8.180237-7.69623-8.180237-4.76534 0-7.72869 3.927837-7.72869 8.115327v.0318zm34.39032-11.912637h4.79709v19.609577h7.82464v4.21853h-12.62173V93.880873zm24.41937 12.105257c0-7.629197 5.86037-12.558227 12.49332-12.558227 7.21363 0 12.52648 5.60213 12.52648 12.364197 0 6.76207-5.2811 12.3635-12.55823 12.3635-7.30817 0-12.46157-5.763-12.46157-12.13772v-.0317zm4.7978-.19262c0 4.34765 3.12421 8.14708 7.75973 8.14708 4.83025 0 7.66377-4.18678 7.66377-8.11392 0-3.99204-2.83423-8.180237-7.69552-8.180237-4.76534 0-7.72798 3.927837-7.72798 8.115327v.0318z"/>
  <path fill="#1d1d1b" d="M335.54514 82.648383h4.89093l-18.2535-17.61638 16.78029-17.519007h-4.27215l-18.4186 19.048657V47.513702h-3.89327v35.134681h3.89327v-11.4498l3.58424-3.74369 15.68879 15.19349z"/>
  <path fill="#f10000" d="M272.21 93.880873c2.68042.0677 5.04898.20531 7.17976 1.99038.54893.44873 1.0654 1.03082 1.44287 1.61502 1.09996 1.68487 1.20227 3.572237 1.20227 4.226287 0 .58209-.0684 2.19711-.96097 3.67526-.2413.37535-.54963.89182-1.27142 1.54376-.79022.68862-1.61431 1.06539-1.92476 1.20227-.5842.24059-1.16699.41275-2.43841.68721l7.00831 9.30843h-5.39399l-6.73314-9.17084v9.17084h-4.84295V93.878753l6.73243.002zm-1.88948 11.507647h2.40454c.27587 0 .51435 0 .79093-.0346.51435 0 2.23239-.0692 3.36622-1.44287.27376-.34431.75565-1.06539.75565-2.23379 0-.37748-.0346-1.30599-.65335-2.161827-1.06609-1.44428-2.71498-1.58046-4.36458-1.61644h-2.30153v7.489497h.002z"/>
  <path fill="none" d="M213.63879 85.333743c-7.64684-15.20761-15.27251-30.37429-22.90312-45.552254.0423-.02963.0762-.05856.115-.07761 1.90289-.973671 3.80649-1.947341 5.70868-2.9196 2.68958-1.373016 5.37988-2.739683 8.06664-4.119755 2.82435-1.450627 5.79264-2.323403 8.99658-2.219686 2.18088.07056 4.18043.704853 5.93445 2.042591 1.54799 1.181105 2.64372 2.714988 3.48334 4.44925.79657 1.645362 1.36455 3.357752 1.3963 5.204903.0445 2.56541-.73096 4.885285-2.1061 7.039355-.92145 1.440749-1.97274 2.766496-3.20605 3.939836-.84949.80857-1.75755 1.55505-2.63808 2.32764-3.2237-2.28672-6.37896-4.52263-9.54691-6.768423.60184-2.196402 1.19451-4.37305 1.79141-6.555341h9.12992v-6.930698c-4.71454.04515-9.37687.08961-14.03849.136172-1.69828 4.798502-3.38879 9.570897-5.08002 14.352465 5.4575 4.514165 10.89664 9.012805 16.34003 13.516375 2.16324-.82479 4.21571-1.8408 6.14752-3.09528 3.07835-2.00026 5.64447-4.51275 7.52902-7.67718 1.75049-2.941471 2.63032-6.145411 2.67829-9.566662.0296-2.120203-.2921-4.193133-.91581-6.225141-.82762-2.69241-2.1075-5.129408-4.06049-7.171999-3.66114-3.833297-8.15131-5.893527-13.46275-6.082617-3.13974-.111478-6.11014.597608-8.91262 2.005196-1.26224.635003-2.49838 1.320805-3.76838 1.936052-2.82929 1.368077-5.67269 2.707227-8.51044 4.055549-2.50262 1.189571-5.00594 2.374909-7.50856 3.560952-.84596.401463-1.69263.804336-2.54 1.206505 8.49915 17.329215 16.98843 34.637965 25.47347 51.946725 2.15125-.9257 4.25804-1.83304 6.40717-2.75732z"/>
  <path fill="#f10000" d="M213.63879 85.333743c-2.14983.92498-4.25592 1.83162-6.4107 2.75732-8.48434-17.30664-16.97502-34.61681-25.47347-51.946021.84737-.402168 1.69334-.805042 2.54001-1.206504 2.50261-1.186749 5.00593-2.372087 7.50855-3.560953 2.83775-1.348321 5.68115-2.687471 8.51044-4.055548 1.27001-.615247 2.50614-1.30105 3.76839-1.936052 2.80247-1.408294 5.77287-2.116675 8.9119-2.005197 5.31215.18909 9.80232 2.24932 13.46346 6.082618 1.95299 2.042591 3.23287 4.478883 4.05979 7.171999.62442 2.031302.94615 4.104938.91652 6.22514-.048 3.421252-.9264 6.625192-2.6783 9.566668-1.88596 3.16372-4.45066 5.67621-7.53043 7.67717-1.9304 1.25308-3.98287 2.26979-6.14611 3.09458-5.44338-4.50287-10.88253-9.00151-16.34003-13.51567 1.69123-4.781568 3.38175-9.553964 5.08002-14.352465 4.66163-.04586 9.32607-.09102 14.0385-.136173v6.930698h-9.12993c-.5969 2.182292-1.19098 4.358939-1.79141 6.555342 3.16796 2.245788 6.32251 4.481708 9.54691 6.768418.88053-.77258 1.78859-1.51907 2.63808-2.32763 1.23332-1.17335 2.2846-2.499092 3.20535-3.939842 1.37584-2.154069 2.15195-4.473944 2.1068-7.039354-.0339-1.847152-.60043-3.559541-1.3963-5.204903-.8382-1.734262-1.93464-3.268146-3.48334-4.44925-1.75402-1.337738-3.75357-1.97133-5.93445-2.042591-3.20394-.103717-6.17223.768353-8.99658 2.219686-2.68535 1.380072-5.37705 2.746738-8.06664 4.119754-1.90289.97226-3.80649 1.94593-5.70867 2.9196-.0388.01976-.0734.04868-.11501.07761 7.63485 15.17726 15.26052 30.34394 22.90665 45.55155zm5.394-66.618105c-1.52542-.313974-3.0085-.620186-4.5318-.934159.88688-5.923162 1.77377-11.844912 2.66277-17.781479 2.77637.404991 5.52593.807865 8.31924 1.216383-2.15548 5.847666-4.29897 11.662172-6.45021 17.499255z"/>
  <path fill="#07b8f9" d="M243.79788 13.884681c1.4732 2.385492 2.92595 4.741351 4.40339 7.134604-4.8112 2.978867-9.62029 5.954911-14.44419 8.940128-1.01177-1.509894-2.00379-2.992272-3.01838-4.509222 4.34977-3.851643 8.69036-7.696229 13.05918-11.56551z"/>
  <path fill="#069211" d="M232.17734 4.573429c2.12866 1.471089 4.21853 2.916777 6.31756 4.367405-3.79378 4.524039-7.57628 9.034673-11.38488 13.574235-1.3321-.821976-2.6522-1.63619-4.00969-2.474393 3.01344-5.132936 6.03182-10.277867 9.07701-15.467247z"/>
  <path d="M290.74219 111.79076h-1.397v-1.14371h4.08589v1.14371h-1.38784v5.31638h-1.30105v-5.31638zm3.37046 5.31708v-6.46009h1.75401l1.66089 4.63552 1.63195-4.63552h1.7639v6.46009h-1.2058l.036-5.17738-1.80834 5.17738h-.85584l-1.81611-5.17738.036 5.17738h-1.19662z"/>
</svg>
