<svg xmlns="http://www.w3.org/2000/svg" viewBox="-62 141.1 400.00001 421.0503">
  <path fill="#a7a8a8" d="M335.23675 141.38143l-52.16316 109.84755-1.73053-2.47219 50.67985-107.62258c1.3185 0 2.38978.0824 3.21384.24722M-5.2559539 248.74237l-1.7305315 2.47219L-59.14965 141.36701c.824063-.16481 1.812938-.24722 3.213844-.24722l50.6798521 107.62258z"/>
  <path fill="#e4e5e4" d="M331.99349 141.18242l-50.67985 107.54017c-31.64401-45.07622-84.05439-74.49526-143.30449-74.49526-59.250106 0-111.578083 29.41904-143.304494 74.49526l-50.762258-107.62258H329.27408c1.07128 0 1.89535 0 2.71941.0824"/>
  <path fill="#dedfde" d="M338 149.78893v313.72064s-.24722 81.4998-5.52122 87.59786c-2.55459 2.96663-48.20766 7.08694-94.6848 8.98228C188.35023 562.23228 138 562.14987 138 562.14987s-50.350227.0824-99.793984-2.06016c-46.4771326-1.97775-92.130202-6.01565-94.684796-8.98228C-61.752781 544.92696-62 463.50957-62 463.50957V149.78893c0-5.85084 0-7.74619 2.719407-8.32303l52.1631641 109.84755 1.7305315-2.47219C26.339514 203.76503 78.667491 174.346 137.91759 174.346c59.25011 0 111.57808 29.41903 143.30449 74.49526l1.73054 2.47219 52.16316-109.84755C338 142.04274 338 143.85568 338 149.78893"/>
  <path fill="#e4e5e4" d="M274.56696 349.57237c0 75.48413-61.14545 136.62958-136.54718 136.62958-75.401733 0-136.5471801-61.22785-136.5471801-136.62958 0-21.17841 4.8619695-41.28554 13.4322211-59.1677 22.002472-45.81788 68.891636-77.46189 123.114959-77.46189 54.47054 0 101.60692 31.97363 123.44458 78.20355 8.40544 17.71734 13.1026 37.49485 13.1026 58.42604"/>
  <path fill="#a7a8a8" d="M313.11067 349.57237c0 96.82736-78.36835 175.27812-175.11331 175.27812-96.74495 0-175.113306-78.45076-175.113306-175.27812 0-36.42357 11.124846-70.29255 30.0782863-98.31067l1.7305316-2.47219 1.4833127 3.04903C-22.942068 279.60945-34.14932 313.2312-34.14932 349.57237c0 95.17923 77.132262 172.3939 172.22909 172.3939 95.09683 0 172.14668-77.13226 172.14668-172.3939 0-36.25876-11.20725-69.96292-30.3255-97.73383l1.48331-3.04903 1.73053 2.47219c18.95344 28.01812 29.99588 61.8871 29.99588 98.31067"/>
  <path fill="#a7a8a8" d="M281.29477 248.74237l-1.48332 3.04903c-31.06716-45.07622-82.9831-74.66007-141.82117-74.66007-58.838076 0-110.754021 29.50144-141.8211823 74.57767l-1.4833128-3.04904C26.412196 203.58374 78.740173 174.1647 137.99028 174.1647c59.2501 0 111.66048 29.50145 143.30449 74.57767"/>
  <path fill="#d65725" d="M123.92468 524.32671l14.09147 30.40791 14.09147-30.40791"/>
  <path fill="#a7a8a8" d="M-35.724351 518.61753c-7.828595-20.68398-6.427689-28.8422 3.049032-34.69304 14.009064-8.65266 36.5883804 14.91553 39.2253808 27.44128 2.8018129 13.67944-4.3675319 26.04038-15.4099712 27.93573-11.0424396 1.97775-22.3320976-8.73507-26.8644416-20.68397"/>
  <path fill="#bbb" d="M-33.013597 519.99503c-2.307375-12.60816 4.779563-24.30985 15.822002-26.20519 11.0424397-1.89535 21.8376601 6.75731 24.1450355 19.36547 2.3073753 12.60816-4.8619695 24.30985-15.9044088 26.20519-10.9600327 1.89534-21.7552537-6.75731-24.0626287-19.36547"/>
  <path fill="#c1c3c2" d="M-27.18937 518.9891c-1.648125-8.89988 3.378657-17.22291 11.207252-18.54141 7.8285951-1.3185 15.40997132 4.77956 17.0580966 13.67944 1.6481252 8.89987-3.4610631 17.2229-11.2896576 18.5414-7.663783 1.40091-15.327565-4.77956-16.975691-13.67943"/>
  <path fill="#e4e5e4" d="M261.452 291.16075c-21.83766-46.31232-68.97404-78.28595-123.44458-78.28595-54.223324 0-101.112488 31.644-123.11496 77.46188l-18.7062218-38.56613C27.253399 206.69433 79.169345 177.19289 138.00742 177.19289c58.83807 0 110.75401 29.58384 141.82117 74.66007L261.452 291.16075z"/>
  <path fill="#a7a8a8" d="M311.76885 518.61753c7.8286-20.68398 6.42769-28.8422-3.13144-34.69304-13.92666-8.65266-36.50597 14.91553-39.14297 27.44128-2.80182 13.67944 4.36753 26.04038 15.40997 27.93573 11.04244 1.97775 22.3321-8.73507 26.86444-20.68397"/>
  <path fill="#bbb" d="M308.97569 519.99503c2.30738-12.60816-4.77956-24.30985-15.822-26.20519-11.04244-1.89535-21.83766 6.75731-24.14504 19.36547-2.30737 12.60816 4.86197 24.30985 15.90441 26.20519 11.04244 1.89534 21.83766-6.75731 24.06263-19.36547"/>
  <path fill="#c1c3c2" d="M286.12171 532.68048c-7.82859-1.3185-12.85537-9.64153-11.28965-18.54141 1.64812-8.89987 9.3119-14.99794 17.05809-13.67944 7.8286 1.40091 12.85538 9.64154 11.20725 18.54141-1.56571 8.89988-9.2295 14.99794-16.97569 13.67944m-325.98096-101.7344c0-2.30738 1.895344-4.12031 4.120313-4.12031 2.307375 0 4.120313 1.89534 4.120313 4.12031 0 2.30737-1.895344 4.12031-4.120313 4.12031-2.307375.0824-4.120313-1.81294-4.120313-4.12031m-16.627936-78.65126c0-2.30737 1.895344-4.12031 4.120313-4.12031 2.307376 0 4.120313 1.81294 4.120313 4.12031 0 2.30738-1.895344 4.12032-4.120313 4.12032-2.224969.0824-4.120313-1.81294-4.120313-4.12032m4.134899 40.08406c0-2.30738 1.895344-4.12032 4.120313-4.12032 2.307376 0 4.120314 1.81294 4.120314 4.12032 0 2.30737-1.895345 4.12031-4.120314 4.12031-2.224969 0-4.120313-1.89534-4.120313-4.12031M-39.85925 273.6748c0 2.30737 1.895344 4.12031 4.120313 4.12031 2.307375 0 4.120313-1.89534 4.120313-4.12031 0-2.30738-1.895344-4.12032-4.120313-4.12032-2.307375-.0824-4.120313 1.81294-4.120313 4.12032m-12.493037 38.62406c0 2.30738 1.895344 4.12031 4.120313 4.12031 2.307376 0 4.120314-1.89534 4.120314-4.12031 0-2.30738-1.895345-4.12031-4.120314-4.12031-2.224969 0-4.120313 1.81293-4.120313 4.12031M315.90375 430.94608c0-2.30738-1.89534-4.12031-4.12031-4.12031-2.30738 0-4.12032 1.89534-4.12032 4.12031 0 2.30737 1.89535 4.12031 4.12032 4.12031 2.30737.0824 4.12031-1.81294 4.12031-4.12031m16.54413-78.65126c0-2.30737-1.89535-4.12031-4.12032-4.12031-2.30737 0-4.12031 1.81294-4.12031 4.12031 0 2.30738 1.89535 4.12032 4.12031 4.12032 2.30738.0824 4.12032-1.81294 4.12032-4.12032m-4.13779 40.08406c0-2.30738-1.89534-4.12032-4.12031-4.12032-2.30737 0-4.12031 1.81294-4.12031 4.12032 0 2.30737 1.89534 4.12031 4.12031 4.12031 2.30738 0 4.12031-1.89534 4.12031-4.12031M315.90375 273.6748c0 2.30737-1.89534 4.12031-4.12031 4.12031-2.30738 0-4.12032-1.89534-4.12032-4.12031 0-2.30738 1.89535-4.12032 4.12032-4.12032 2.30737-.0824 4.12031 1.81294 4.12031 4.12032m12.40634 38.62406c0 2.30738-1.89534 4.12031-4.12031 4.12031-2.30737 0-4.12031-1.89534-4.12031-4.12031 0-2.30738 1.89534-4.12031 4.12031-4.12031 2.30738 0 4.12031 1.81293 4.12031 4.12031"/>
  <path fill="#dedfde" d="M183.6417 313.71806v11.7841c0 2.637-2.14257 4.77956-4.77957 4.77956h-77.21466c-2.637004 0-4.779567-2.14256-4.779567-4.77956v-11.7841c0-2.637 2.142563-4.77956 4.779567-4.77956h9.39431c2.38978 0 4.28513-1.89535 4.28513-4.28513v-11.12484c0-13.92666 10.71281-25.95798 24.63947-26.53482 14.83313-.65925 27.11166 11.12485 27.11166 25.87557v11.8665c0 2.38978 1.89534 4.28512 4.28512 4.28512h7.49897c2.637-.0824 4.77957 2.06016 4.77957 4.69716"/>
  <path d="M133.88727 323.45197c-.0824 0-.24722.24722-.32963.24722-.24722.0824-.49443.16481-.65925.24722-.24722 0-.49443.0824-.65925.0824-.32962 0-.65925-.0824-.82406-.24721-.24722-.16482-.24722-.0824-.41203-.32963-.16481-.24722-.41203-.57684-.41203-.82406v-.57685c0-.16481.0824-.24721.24722-.41203.16481-.16481.24722-.32962.49443-.49443.24722-.0824.41204-.16482.74166-.24722.16481-.0824.41203-.0824.82406-.16482.24722 0 .65925 0 .74166-.0824.16481 0 .24722 0 .41203-.0824.0824-.0824.24722-.0824.32963-.16481.0824-.0824.16481-.0824.32962-.24722v1.64813s0 .74165-.24722 1.07128c-.32962.41203-.57684.57684-.57684.57684m-3.79069-5.60362c.41203-.16482.65925-.24722.90647-.41204.24722-.0824.49444-.16481.90647-.24721.32962-.0824.57684-.0824.98887-.0824.32963 0 .74166.16481 1.07128.24722.24722.0824.49444.32962.57685.57684.16481.16481.24722.24722.24722.57685v.24721c0 .0824-.0824.16482-.16482.24722-.0824.0824-.16481.24722-.24721.24722l-.24722.24722c-.16482.0824-.24722.0824-.41203.16481-.16482.0824-.32963 0-.57685.0824-.74165.0824-1.23609.16481-1.56572.24722-.32962.0824-.49443.16481-.74165.24722-.24722.0824-.32963.24722-.57685.41203s-.24722.32962-.41203.49444c-.0824.16481-.24722.32962-.24722.57684s-.0824.49444-.0824.74166c0 .41203.0824.74165.24722 1.15368.16481.32963.49443.65925.90646.82407.41204.16481.90647.41203 1.56572.41203h.65925c.24722 0 .41203-.0824.82407-.16481.16481-.16482.41203-.24722.65925-.49444l.41203-.41203v.90647h1.56572c-.16482-.65926-.24722-.74166-.16482-1.15369 0-.74166-.0824-2.47219 0-3.37866v-1.07128c0-.32963-.16481-.82406-.24722-1.15369-.0824-.24722-.24721-.49444-.49443-.74165-.24722-.24722-.74166-.57685-1.07128-.74166-.41204-.0824-.74166-.16481-1.15369-.16481-.41203 0-1.07128 0-1.48331.0824-.41204.0824-.74166.16482-1.40091.32963-.24722.57684-.24722.90647-.24722 1.15369m32.49122 5.52402c-.0824 0-.24721.24722-.41203.24722-.24722.0824-.41203.16481-.57684.24721-.24722 0-.49444.0824-.65925.0824-.32963 0-.65925-.0824-.90647-.24722-.24722-.16481-.24722-.0824-.41203-.32962-.16481-.24722-.41203-.57685-.41203-.82407v-.57684c.0824-.16481.0824-.24722.24722-.41203.16481-.16481.24721-.32963.49443-.49444.16482-.0824.41203-.16481.74166-.24722.16481-.0824.41203-.0824.82406-.16481.16481 0 .65925 0 .74166-.0824.0824 0 .24722-.0824.32962-.0824.16482-.0824.24722-.0824.32963-.16482.0824-.0824.16481-.0824.32962-.24721v1.64812s0 .65925-.24721 1.07128c-.16482.41203-.41204.57685-.41204.57685m-3.79068-5.60363c.32962-.16481.65925-.24722.90646-.41203.24722-.0824.57685-.16481.90647-.24722.32963-.0824.65925-.0824.98888-.0824.32962 0 .82406.16482 1.07128.24722s.49444.32963.65925.57685c.16481.16481.16481.32962.24722.65925v.24722c0 .0824-.0824.0824-.16481.16481-.0824.0824-.16482.24722-.24722.24722-.0824.0824-.16481.16481-.32963.24722-.0824.0824-.24722.0824-.41203.16481-.16481.0824-.32962 0-.57684.0824-.74166.0824-1.3185.16482-1.56572.24722-.32963.0824-.49444.16482-.74166.24722s-.32962.24722-.57684.41203c-.24722.16482-.24722.24722-.41203.49444-.0824.16481-.16482.41203-.24722.57685-.0824.24721-.16481.49443-.16481.74165 0 .41203.0824.74166.24721 1.15369.24722.32962.49444.65925.90647.82406s.90647.41203 1.64813.41203h.65925c.24722 0 .49444-.0824.82406-.16481.16481-.16481.49444-.24722.74166-.49444l.41203-.41203v.90647h1.56572c-.16481-.65925-.24722-.74166-.24722-1.15369v-4.44994c0-.32962-.16481-.82406-.24722-1.15368-.0824-.24722-.24722-.49444-.49444-.74166-.16481-.24722-.65925-.57684-1.07128-.74166-.41203-.0824-.65925-.16481-1.15369-.16481-.41203 0-1.07128.0824-1.48331.0824-.49444.0824-.74166.16481-1.40091.32962-.24721.49444-.24721.90647-.24721 1.15369m-21.36136 6.92567l.16482-.57684v-1.64813l-.0824-4.69716c0-.41203-.24722-.90646-.24722-1.15368.24722 0 .74166-.0824.98888-.16482.16481-.0824.41203-.0824.57684-.0824v1.07128c.16481-.32963.49444-.32963.57684-.49444.0824-.16481.24722-.16481.49444-.32962.24722-.16482.32963-.16482.65925-.24722.32963 0 .57685-.0824.90647-.0824.24722 0 .41203 0 .65925.0824.24722 0 .41203.16481.57685.24722.16481.0824.32962.24722.49443.32962.16482.16481.24722.24722.41203.49444 0 .0824.32963-.41203.82407-.65925.49443-.24722.98887-.49444 1.56572-.49444.32962 0 1.15368 0 1.48331.16481.32962.16482.82406.32963 1.07128.57685s.24722.32962.49444.57684.32962.90647.32962 1.15369v5.10919c0 .41203.0824.41203.16481.82406h-1.64812c.24722-.65925.16481-.49444.16481-.82406v-4.69716c0-.32962-.0824-.74166-.16481-.90647-.0824-.16481-.41203-.49444-.49444-.65925-.16481-.16481-.32962-.16481-.57684-.24722-.16481-.0824-.49444-.0824-.74166-.0824-.16481 0-.49444 0-.65925.0824s-.32962.0824-.49444.24722c-.16481.0824-.24721.16481-.41203.32963-.0824.16481-.24722.32962-.32962.49443-.0824.16482-.0824.49444-.0824.82407v4.77956l.24722.74166h-1.73053c0-.74166.0824-.0824.0824-.82407v-4.86197c0-.24721-.0824-.41203-.0824-.57684-.0824-.16481-.16481-.49444-.32963-.57684-.16481-.16482-.49443-.49444-.65925-.49444-.16481-.0824-.49443-.16481-.74165-.16481-.24722 0-.41203 0-.65925.16481-.24722.0824-.41203.16481-.57685.32962-.16481.16482-.32962.24722-.49443.49444-.0824.24722-.24722.24722-.24722.65925-.0824.41203-.0824 2.14256-.0824 3.21385v1.81293c0 .32963.16481.49444.16481.82407h-.82406c0-.0824-.41203-.0824-.74166-.0824m19.89807-1.51117c0 .0824 0 .24722-.0824.49444 0 .24722-.0824.49444-.16481.74166-.32963.0824-.74166.24722-1.07128.24722-.32963 0-1.2361.0824-1.48332.0824-.49443 0-1.15368-.0824-1.64812-.24722-.49444-.16481-1.07128-.49443-1.40091-.90646-.32962-.32963-.74165-.74166-.98887-1.3185-.16481-.57685-.32963-1.07129-.32963-1.64813 0-.82406.0824-1.15369.32963-1.89534.24722-.74166.82406-1.3185 1.4009-1.73054.57685-.41203 1.81294-.74165 2.80182-.74165.74165 0 1.56572.0824 2.22497.32962 0 .49444.0824.74166.0824 1.07128-.49443-.16481-.98887-.41203-1.23609-.49443-.32963 0-.74166-.0824-.90647-.0824-.49444 0-1.40091.24722-1.73053.41203-.32963.16481-.65925.41203-.90647.74166-.24722.32962-.41203.74165-.49444 1.23609-.0824.49444-.16481.49444-.0824.98888 0 .65925.16481 1.15369.32962 1.64812.24722.49444.49444.90647.98888 1.15369.41203.24722.90646.49444 1.48331.49444.57684.16481 1.73053.0824 2.88422-.57685m8.54973 1.18847l-.16481-.57685c0-.0824-.16482-.41203-.24722-.82406.90647.49444 1.89534.90647 2.637.90647.32962 0 .74166-.16481.98887-.24722.24722-.0824.49444-.24722.65925-.49444.0824-.16481.24722-.41203.24722-.57684 0-.0824.0824-.24722 0-.41203 0-.0824-.0824-.41203-.16481-.49444l-.49444-.49444c-.16481-.0824-.49443-.32962-1.07128-.49443-.49444-.24722-1.15369-.41204-1.4009-.65925-.24722-.16482-.65925-.41204-.82407-.65925-.16481-.24722-.24722-.41204-.41203-.65925-.0824-.24722 0-.49444 0-.74166 0-.32963.24722-.74166.41203-.98888.24722-.32962.57685-.49443.98888-.74165.41203-.16482.90647-.24722 1.48331-.24722.65925 0 1.23609.16481 1.97775.24722 0 .41203-.0824.74165 0 1.07128-.49444-.32963-1.15369-.57685-1.73053-.57685-.32963 0-.65925.0824-.90647.16482-.24722.0824-.57684.32962-.74166.49444-.0824.16481-.16481.32962-.16481.49443 0 .16482 0 .32963.0824.49444 0 .0824.32962.49444.49444.49444.24721.0824.16481.0824.32962.16481.24722 0 .82406.32963 1.40091.57684.57684.24722 1.15368.65925 1.3185.82407.16481.16481.41203.41203.49443.82406.0824.24722.16482.49444.16482.65925 0 .32962-.0824.32962-.0824.57684 0 .41203-.0824.49444-.24722.82407-.24722.32962-.57684.65925-1.07128.82406s-.90647.32962-1.48331.32962h-1.07128c-.32963 0-.57685-.16481-.82407-.16481-.0824.24722-.24721.24722-.57684.0824m10.25645-.67384c-.0824.24722-.16481.41203-.16481.90647-.32963.0824-.49444.16481-.74166.16481h-.57684c-.49444 0-.82407 0-1.07129-.16481-.24721-.16481-.49443-.32962-.65925-.57684-.16481-.24722-.24721-.98888-.24721-1.48332v-5.19159h-.98888v-.74166h.98888v-1.4009c0-.24722-.16482-.49444-.24722-.65925.49443-.0824 1.15368-.32963 1.48331-.41204 0 .82407.0824 1.97776.0824 2.47219h2.14256v.82407l-.57685-.0824h-1.56571v5.02678c0 .41203.0824.90647.16481 1.15369.0824.24722.24722.24722.41203.41203.16481.0824.32962.0824.49444.0824h.41203c.16481-.16482.24722-.24722.65925-.32963m-47.81475-.46345c0 .32962-.16482.65925-.16482 1.15369-.49443.16481-1.23609.41203-1.64812.49443h-1.07128c-.65925 0-1.2361-.16481-1.81294-.32962-.49444-.16481-.98887-.49444-1.40091-.90647-.41203-.41203-.74165-.90647-.90646-1.40091-.16482-.57684-.24722-1.07128-.24722-1.64812 0-.82406.0824-1.15369.32962-1.89535.24722-.74165.82406-1.23609 1.40091-1.64812.57684-.41203 1.23609-.57684 2.14256-.57684.49444 0 .98888 0 1.40091.16481.41203.16481.74165.32962 1.07128.57684.24722.32963.49444.65925.74165 1.07128.16482.49444.24722.49444.24722.98888.0824.24722.0824.65925.0824.82406h-6.01566v.57684c0 .57685.0824 1.15369.32963 1.64813.24722.49444.57684.82406.98887 1.07128.49444.24722.98888.49444 1.56572.49444.82406.0824 1.97775-.16481 2.96663-.65925m-5.52122-3.9555h4.36753v-.49444c0-.16481-.0824-.32962-.24722-.57684-.0824-.24722-.24722-.32963-.49444-.49444-.16481-.16481-.32962-.24722-.57684-.41203-.24722-.0824-.57684-.0824-.82406-.0824s-.49444.0824-.74166.16481c-.24722.0824-.49444.24722-.65925.41204-.24722.16481-.32962.32962-.49444.49443-.16481.24722-.24722.41203-.24722.65925v.0824c-.0824 0-.0824 0-.0824.24722m-6.77437 5.65859c0-.16481.16481-.41203.16481-.49444 0-2.637 0-4.69716-.0824-6.34528v-.74166l-.24722-.57684c.24722 0 .57685-.0824.74166-.0824s.65925-.0824.82406-.0824v1.48331c.16482-.32963.24722-.32963.32963-.49444.0824-.16481.32962-.41203.49444-.49444.16481-.0824.32962-.24721.57684-.32962.24722-.0824.41203-.16481.65925-.16481h.90647c.49444.0824.74165.16481.90647.24722 0 .24721-.32963 1.15368-.32963 1.15368s-.41203 0-.74165-.16481c-.32963-.0824-.49444-.0824-.74166-.0824s-.65925.0824-.90647.16482c-.24722.0824-.49444.24722-.65925.49443-.16481.24722-.24722.49444-.41203.74166-.0824.24722-.0824 0-.0824.41203v5.02678l.16482.49444h-.82407c-.0824-.24722-.49443-.16481-.74165-.16481m-12.37792.0569l.24722-.82406v-9.97116c0-.32963-.16481-.57685-.32963-1.15369h5.27401c.90646.0824 1.15368.0824 1.73053.24722.49443.0824 1.3185.57684 1.73053.90647.41203.24722.82406.57684 1.15369 1.07128.32962.49444.49443.57684.65925 1.15369.24722.74165.49443 1.48331.49443 2.22497.0824.98887 0 1.73053-.32962 2.637-.32963.90647-.90647 1.56572-1.56572 2.14256-.57684.65925-1.23609.98888-2.06016 1.15369-.74165.16481-1.64812.32962-2.637.32962h-2.30737l-2.06016.0824zm2.06016-.98888h1.81294c.49443 0 .98887 0 1.48331-.0824.49444-.0824.90647-.24722 1.23609-.41203.41203-.16482.74166-.32963 1.15369-.74166.41203-.32963.65925-.74166.90647-1.15369.24722-.49444.41203-.90647.49444-1.48331.0824-.57684.16481-1.15369.16481-1.64813 0-.65925-.24722-1.15368-.41203-1.64812-.16482-.57684-.49444-1.23609-.90647-1.64813-.49444-.41203-.82406-.65925-1.40091-.82406-.49444-.16481-1.23609-.32962-2.06015-.32962-.49444 0-1.2361 0-1.48332.0824-.32962 0-.65925.0824-1.07128.0824l.0824 9.80634z"/>
  <path fill="#cf3311" d="M141.58492 296.01176c0-1.40091-.65925-1.2361-1.15369-1.3185-.49444-.0824-1.64812.16481-2.7194-.0824-1.2361-.24722-1.89535-1.97775-1.73054-2.80181.65925-2.38978 2.22497-2.71941 3.29625-2.637.82407 0 2.38979.0824 4.36754 1.81293.90647.74166 1.4009 2.80182 1.4009 3.95551 0 1.4009 0 3.04903-.90647 3.9555-1.4009 1.48331-4.94437 2.7194-7.00453 2.637-7.99341-.82407-7.66378-8.32304-7.66378-8.32304s-.65925-3.21384 2.06016-6.6749c.24721-.24722.57684-.90647.82406-1.2361.24722-.32962.49444-.41203.82406-.65925.32963-.24722.65925-.41203.98888-.65925.90646-.49444 1.81293-.98887 2.7194-1.3185 1.40091-.41203 2.71941-.49444 3.79069-.49444 3.29625.0824 6.83972 1.89535 8.65266 4.69716.24722.41203.49444.65925.74165.98888.49444.32962.74166.98887 1.07129 1.81293.41203 1.15369.24721.74166.74165 2.5546.32963 1.3185.49444 2.14256.49444 2.96662 0 .41204.0824.82407.0824 1.2361 0 1.4009.24722 1.81294-.0824 2.88422-.49444 1.89534-1.64813 3.79069-2.637 4.69715-1.73053 1.73054-3.37866 2.22497-4.28513 2.71941-.90646.49444-1.3185.57684-2.55459.98888-1.23609.49443-1.89534.49443-4.03791.49443-2.14256 0-3.87309-.16481-4.44994-.24722-3.79068-1.07128-5.19159-1.73053-6.83972-3.13143-4.28512-3.37866-5.19159-9.97116-5.19159-9.97116s-.49444-3.37866.24722-6.83972c.41203-1.89534 2.30737-5.274 3.37866-6.5925.90646-1.15369 3.04903-2.80181 4.28512-3.62588 1.2361-.82406 3.04903-1.89534 5.10919-2.47219.98888-.32962 1.81294-.49443 4.12031-.57684 2.637-.0824 6.5925.57684 8.89988 1.3185 2.38978.74166 4.61475 2.30738 5.76844 3.54347s3.70828 5.02678 4.12031 5.76844c.49444.74166 1.64813 4.86197 1.81294 5.43881.0824.49444.32962 2.38978 2.14256 2.30738 1.64813-.16481 1.15369-2.06016 1.15369-2.38978-.0824-.32963-.65925-3.54347-.90647-4.44994-.24722-.90647-1.56572-3.21385-1.89534-3.62588-.16482-.24722-1.3185-2.22497-2.47219-3.70828-.90647-1.15369-1.73053-2.22497-2.637-2.80181-1.81294-1.15369-4.03791-2.14257-4.03791-2.14257s-3.87309-1.3185-5.93325-1.56571c-1.73053-.24722-3.62588-.57685-6.75731-.41204-3.13144.24722-4.86197 1.07129-6.01566 1.48332-1.15369.49443-3.70828 1.64812-5.68603 3.21384-1.89535 1.56572-1.3185.82406-2.38978 1.97775-.98888 1.15369-1.3185 1.48331-2.06016 2.47219-.74166.98887-2.22497 3.9555-2.80181 5.93325-.24722.82406-.57685 2.06016-.74166 3.21384-.16481.98888-.16481 1.97776-.0824 2.80182.16482 1.73053.0824 1.73053.0824 1.73053s.82406 3.29625 1.23609 4.69716c.49444 1.3185 1.07129 3.21384 3.79069 6.26287 2.71941 2.96663 5.1916 3.79069 6.18047 4.20272.90647.32963 4.12031 1.48331 8.32303 1.56572 4.86197.0824 6.18047-.98887 7.00454-1.3185.90647-.41203 3.87309-1.64812 6.26287-3.87309 2.38978-2.22497 3.13144-4.69716 3.21385-4.86197.65925-1.89535.90647-4.94438.24722-7.8286-.41204-1.97775-.74166-3.70828-1.15369-4.94437-.74166-2.14257-1.56572-3.29625-2.14256-4.20272-.57685-.90647-2.30738-2.22497-3.37866-2.88422-.49444-.32963-.98888-.65925-1.73053-.98888-.74166-.32962-1.64813-.49444-2.71941-.74165-.98888-.24722-2.38978-.49444-3.46106-.57685-.98888-.0824-1.81294 0-2.14257 0-.49443 0-2.14256.24722-4.44993 1.48331-1.2361.65925-2.637 1.48332-4.12032 2.96663-.49443.49444-.90647 1.07128-1.23609 1.56572-3.29625 4.53234-2.14256 9.64153-2.14256 9.64153s.57684 6.83972 6.5925 8.81747c2.14256.65925 4.0379.74166 5.60362.49444 2.637-.32963 4.53235-1.40091 5.85085-2.14256 1.3185-.65925 2.30737-1.81294 2.80181-3.04904.49444-1.15368.65925-2.30737.57684-3.29625 0-.57684 0-1.3185-.16481-2.14256-.16481-2.14256-.82406-4.03791-2.55459-5.52122l-.49444-.32962c-.32962-.24722-.57684-.32963-.82406-.49444-1.48332-.74166-2.88422-1.07128-4.94438-1.15369-.74165 0-1.81294.16481-2.38978.49444-2.38978 1.15369-3.70828 3.29625-3.54347 6.01566.0824 2.55459 2.55459 3.9555 2.96663 4.36753-.0824 0 5.274 1.3185 5.43881-1.07128"/>
  <path fill="#c1c3c2" d="M121.40478 518.82618h33.20972l17.30532-37.41245c-10.87763 2.80182-22.16729 4.20272-33.86898 4.20272-11.70168 0-23.07375-1.48331-33.86897-4.20272l17.22291 37.41245"/>
  <path fill="#8c8c8c" d="M-25.363988 516.3975c.164812.0824.329625.0824.576843.0824.906469 0 1.483313-.41203 1.483313-1.2361 0-.74165-.576844-1.15368-1.400906-1.15368-.329625 0-.576844 0-.741657.0824v2.22497zm-.741657-2.80181c.329625-.0824.824063-.0824 1.400907-.0824.741656 0 1.236094.16481 1.648125.49444.329625.24722.494437.65925.494437 1.23609 0 .49444-.164812.90647-.412031 1.2361-.412031.41203-1.071281.65925-1.730531.65925-.247219 0-.412032 0-.576844-.0824v2.30738h-.824063v-5.76844zm4.981376 2.82892c0 1.2361.65925 2.30738 1.812938 2.30738 1.153688 0 1.812938-1.07128 1.812938-2.38978 0-1.15369-.576844-2.38979-1.812938-2.38979-1.153688.0824-1.812938 1.2361-1.812938 2.47219m4.532345-.0824c0 1.97775-1.236094 3.04903-2.719407 3.04903-1.565719 0-2.637-1.15369-2.637-2.96663 0-1.81294 1.153687-3.04903 2.719406-3.04903 1.565719.0824 2.637001 1.23609 2.637001 2.96663m1.90342 2.99126l-1.483313-5.76844h.824063l.65925 2.88422c.164812.74166.329625 1.40091.412031 1.97775.08241-.57684.247219-1.23609.494438-1.97775l.741656-2.88422h.741656l.741657 2.96663c.164812.65925.329625 1.4009.412031 1.97775.08241-.65925.247219-1.2361.494438-1.97775l.7416559-2.88422h.7416564l-1.6481253 5.76844h-.741656l-.741657-3.04903c-.164812-.74166-.329625-1.3185-.412031-1.89535-.08241.57685-.247219 1.15369-.412031 1.89535l-.824063 3.04903h-.741656zm9.2556239-2.77717h-2.2249691v2.06015h2.4721879v.65925h-3.2138443v-5.76843h3.131438v.65925h-2.3897816v1.81293h2.2249691v.57685zm1.9905233-.28884h.7416563c.8240627 0 1.3185003-.41203 1.3185003-1.07128 0-.74165-.5768439-1.07128-1.3185003-1.07128-.329625 0-.5768438 0-.7416563.0824v2.06015zm-.7416564-2.637c.4120313-.0824.9064689-.0824 1.4009065-.0824.8240626 0 1.3185002.16481 1.6481252.49443.3296251.24722.49443762.65925.49443762 1.07129 0 .74165-.49443762 1.23609-1.07128142 1.48331.4120313.16481.7416564.57684.82406263 1.15369.16481253.82406.32962505 1.4009.4120313 1.56572h-.74165633c-.082406-.16482-.2472188-.65925-.4120313-1.40091-.1648126-.82406-.4944376-1.07128-1.1536877-1.15369h-.7416564v2.47219h-.7416563l.082406-5.60363zM279.6014 516.42189c0 1.3185.74166 2.5546 2.06016 2.5546 1.3185 0 2.06015-1.2361 2.06015-2.637 0-1.2361-.65925-2.5546-2.06015-2.5546-1.40091 0-2.06016 1.2361-2.06016 2.637m4.94438-.0824c0 2.22497-1.3185 3.37865-2.96663 3.37865-1.64812 0-2.88422-1.3185-2.88422-3.21384 0-1.97775 1.2361-3.29625 2.96663-3.29625 1.73053-.0824 2.88422 1.23609 2.88422 3.13144m1.82422.0607c.16482.0824.41204.0824.65925.0824.98888 0 1.56572-.49444 1.56572-1.3185 0-.82407-.57684-1.2361-1.48331-1.2361-.32962 0-.65925 0-.74166.0824v2.38978zm-.74165-3.04903c.41203-.0824.90647-.16481 1.56572-.16481.82406 0 1.4009.16481 1.81293.49443.32963.32963.57685.74166.57685 1.3185 0 .57685-.16481.98888-.49444 1.3185-.41203.49444-1.15369.65925-1.97775.65925-.24722 0-.49444 0-.65925-.0824v2.55459h-.82406v-6.09806zm8.28924 3.27334h-2.47218v2.30738h2.7194v.65925h-3.54347v-6.34529h3.46107v.65925h-2.637v1.97775h2.47218v.74166zm1.32732 2.97544v-6.34528h.90647l2.06016 3.21384c.49443.74166.82406 1.40091 1.15368 2.06016-.0824-.82406-.0824-1.64812-.0824-2.637v-2.637h.74165v6.34528h-.82406l-1.97775-3.21384c-.41203-.74166-.90647-1.40091-1.15369-2.14256.0824.82406.0824 1.56571.0824 2.637v2.7194h-.90647z"/>
</svg>
