<svg xmlns="http://www.w3.org/2000/svg" viewBox="-119 220 210.11656 200">
  <path fill="#dedfde" d="M-51.068703 279.83888c-.05651 0-.226057-.11303-.508628-.28257-.282571-.16954-.734685-.3956-1.299827-.67817-.3956-.16954-.7912-.3956-1.243314-.67817-.169542-.0565-.339085-.16954-.508628-.28257-.621656-.33909-1.299827-.67817-2.091027-1.07377-.169542-.0565-.282571-.16955-.452114-.22606-.05651-.0565-.169542-.0565-.226057-.11303-.282571-.16954-.621656-.28257-.904227-.45211-.226057-.11303-.452114-.22606-.734686-.33909-.339085-.16954-.734685-.33908-1.130284-.56514-.113029-.0565-.282572-.11303-.3956-.16954-.621657-.33909-1.299827-.62166-2.034513-.96074-.282571-.11303-.565142-.28258-.847713-.3956h-.05651c-.3956-.22606-.847714-.3956-1.299828-.62166-.339085-.16954-.621657-.28257-.960742-.45211-1.186799-.56515-2.486627-1.1868-3.786454-1.75195-.169543-.11302-.3956-.16954-.621657-.28257-.452114-.22605-.960742-.45211-1.46937-.67817-.226057-.11303-.3956-.16954-.621657-.28257-.339085-.11303-.621656-.28257-.960742-.3956-.395599-.16954-.791199-.33908-1.243313-.50863-.339085-.11303-.621656-.28257-.960742-.3956-2.995255-1.29982-6.103538-2.59965-9.324849-3.84297-.339086-.11302-.734685-.28257-1.073771-.39559-.282571-.11303-.621657-.22606-.904228-.33909-.452114-.16954-.960742-.33909-1.412856-.50863-.565142-.22606-1.130285-.3956-1.695427-.62165-.508628-.16955-1.017256-.3956-1.525884-.56515-.113029-.0565-.226057-.11303-.339086-.11303-1.186799-.3956-2.373598-.84771-3.560397-1.24331-.226057-.0565-.3956-.16954-.621657-.22606-7.798969-2.59965-15.710969-4.63416-23.057819-5.65142-.0565-.28257-.0565-.62166 0-.96074.56515-2.3736 2.03452-4.12554 3.84297-5.65143 6.3296-5.14279 13.73296-8.25107 21.249362-11.1333 10.059535-3.84297 20.458155-6.7252 30.913289-9.21182 5.764452-1.35634 11.585419-2.54314 17.4629-3.61691 4.125539-.73469 8.251079-1.41286 12.376618-1.92149 3.447369-.3956 6.951252-.90423 10.39862-1.1868 4.690682-.3956 9.32485-.73468 14.0155317-.90422 2.5431407-.11303 5.1427957-.22606 7.6859365-.11303 4.1820537.16954 8.3641074.3956 12.5461608.7912 2.712684.22605 5.481882.45211 8.194565.73468 3.277826.33909 6.499138.84772 9.720449 1.41286 4.12554.73468 8.194565 1.80845 12.094047 3.33434 2.882227 1.13028 5.59491 2.71268 8.138051 4.46462.621656.45212.904228 1.13029 1.130285 1.80846 1.356341 3.84297 2.260569 7.85548 3.221311 11.81147.904228 3.72994 1.751942 7.45988 2.599655 11.18982.05651.33909.169543.84772.169543 1.1868h-.05651c-.678171-.45211-1.412856-.90423-2.147541-1.41285-2.882227-1.80846-5.933995-3.44737-9.098793-4.86023-9.607421-4.35159-20.288612-6.72519-31.478431-6.72519-8.4206218 0-16.502158 1.35634-24.075066 3.84297-.226057.0565-.3956.11302-.621657.22605-11.076791 3.72994-21.136325 10.00302-29.33089 18.14107-4.238568 4.18206-7.968508 8.81622-11.076791 13.84599m40.51952 140.0745c-3.72994-.0565-7.403365-.3956-11.133305-.7912-2.93874-.28257-5.877481-.56514-8.816221-.96074-3.164798-.3956-6.273081-.84771-9.381364-1.35634-5.029767-.84772-10.059535-1.69543-15.089302-2.7692-6.329595-1.35634-12.602675-2.82571-18.819242-4.52114-4.295082-1.1868-8.53365-2.43011-12.772218-3.84297-4.860224-1.63891-9.60742-3.33434-14.298103-5.48188-3.89948-1.80845-7.79896-3.61691-11.35936-6.10354-2.43011-1.69542-4.7472-3.56039-6.16005-6.27308-.28257-.56514-.56515-1.1868-.50863-1.86497-.0565-.11303-.0565-.16954-.11303-.28257.3956-.0565.84771-.11303 1.24331-.16954.45212-.0565.90423-.11303 1.35635-.22606.62165-.11303 1.24331-.16954 1.80845-.28257h.16954c.3956-.0565.84772-.16954 1.24332-.22606.3956-.0565.7912-.16954 1.1868-.22605 26.109574-5.19931 55.77955-20.34513 60.300689-22.71873l.565142-.28257c7.290337 11.58542 17.575929 21.07981 29.839519 27.40941 4.634167 2.43011 9.60742 4.35159 14.7502161 5.76445h.056514c6.49913748 1.80846 13.3938747 2.7692 20.4581549 2.7692 1.46937 0 2.882226-.0565 4.295082-.11303h.226057c2.656169-.16954 5.312339-.45212 7.911994-.90423 11.302847-1.80845 21.588439-5.99051 30.517689-11.98102-.113029.28257-.339086.62166-.565143.84772-.282571 2.59965-1.017256 5.14279-1.582398 7.74245-.960742 4.23856-2.204056 8.47713-3.164798 12.7157-.678171 2.88223-2.656169 4.23857-4.973253 5.59491-4.916739 2.88223-10.285591 4.40811-15.767472 5.5384-4.351597.90422-8.816222 1.46937-13.224332 1.92148-3.164798.33909-6.329595.3956-9.494393.73468-6.2730805.62166-12.4896468.3956-18.706213.33909"/>
  <path fill="#a7a8a8" d="M14.878721 357.23027c-8.0815363-.16954-15.3153589-2.82571-21.5884395-7.91199C-13.095828 344.232-17.39091 337.67635-19.25588 329.70784c-2.599655-10.96376-.621656-21.19284 6.103538-30.29163 5.6514242-7.62943 13.28084648-12.32011 22.7187244-14.07205 2.3735976-.45211 4.8037106-.62166 7.2338226-.62166h64.087147c0 .0565.05651.11303.05651.11303.226057.45212.508628.90423.734685 1.35634H16.517629c-5.990509 0-11.6984477 1.24332-17.01078615 4.12554-5.99050935 3.22132-10.62467685 7.85548-13.95901685 13.78948-3.447369 6.16005-4.803711 12.77222-4.238568 19.77998.621656 7.62942 3.503883 14.35462 8.590164 20.06256 5.3123387 5.99051 11.9245047 9.66393 19.7234697 11.1333 1.7519413.33909 3.5038833.56514 5.2558243.50863 3.277826-.0565 6.612166.11303 9.889992-.0565 4.916739-.22606 9.833477 0 14.750216-.22606 4.803711-.22606 9.663935 0 14.467645-.22606 4.973254-.22606 10.003021 0 14.976274-.22606 3.33434-.16954 9.155307-.0565 12.602675-.16954-.282571.50863-.508628 1.01726-.791199 1.52589h-1.86497c-2.656169 0-5.312338-.11303-7.968508.0565-5.086281.28257-10.172563 0-15.20233.22606-4.747196.22605-9.494392 0-14.241588.22605-4.973253.22606-10.003021 0-14.976274.22606-3.842968.33909-7.742451.33909-11.641933.28257m-133.771976 28.44385s-.0565 0 0 0c-.16954-.56515 0-.96075.67817-1.35635 3.67342-2.14754 7.68594-3.50388 11.75496-4.80371 5.02977-1.63891 10.116057-3.05177 15.258852-4.01251 1.808456-.33908 2.430113-1.24331 2.882227-2.82571 1.525884-6.04702 2.882226-12.15056 3.842968-18.31061.678171-4.18206 1.243313-8.42062 1.582399-12.65919.339085-3.67343.678171-7.34685.904227-11.02028.226057-3.61691.339086-7.23382.339086-10.85073 0-4.01251-.169543-8.02503-.452114-12.03754-.339085-4.57765-.734685-9.1553-1.299828-13.67644-.960742-7.57291-2.147541-15.03279-4.012511-22.43616-.452113-1.86497-1.017256-3.67342-1.356341-5.53839 0-.11303-.05651-.22606-.113029-.33909l-4.860224-1.80845c-5.707938-1.29983-11.415882-2.7692-16.954282-4.69068-2.3736-.84772-4.74719-1.80846-6.89473-3.10829-.67818-.3956-1.13029-.90422-1.24332-1.52588 7.34685.96074 15.25885 3.05177 23.057819 5.65142.226057.0565.3956.11303.621657.22606 1.186799.3956 2.373598.7912 3.560397 1.24331.113028.0565.226057.11303.339085.11303.508628.16954 1.017257.33909 1.525885.56514.565142.22606 1.130284.3956 1.695427.62166.452114.16954.960742.33909 1.412856.50863.282571.11303.621656.22606.904228.33908.339085.11303.734685.28258 1.07377.3956 3.221312 1.24332 6.386109 2.54314 9.381364 3.84297.339085.11303.621657.28257.960742.3956.3956.16954.791199.33909 1.243313.50863.339086.16954.621657.28257.960742.3956.226057.11303.452114.16954.621657.28257.508628.22606.960742.45211 1.46937.67817.226057.11303.3956.16954.621657.28257.678171.28257 1.299827.62166 1.921484.90423.169543.0565.339085.16954.452114.22606.339085.16954.621656.28257.904228.45211.169542.0565.282571.16954.452114.22606.339085.16954.67817.28257.960742.45211.452114.22606.847713.3956 1.299827.62166h.05651c.282572.11303.565143.28257.847714.3956.678171.33908 1.356342.67817 2.034513.96074.113028.0565.282571.11303.395599.16954.3956.16955.734685.3956 1.130285.56515.226057.11302.508628.22605.734685.33908.282571.16954.621657.28257.904228.45212.05651.0565.169543.0565.226057.11302.169543.0565.282571.16955.452114.22606.791199.3956 1.46937.73469 2.091027 1.07377.169542.11303.339085.16954.508628.28257.452114.22606.904228.45212 1.243313.67817.565143.28257.960742.50863 1.299828.67817.282571.16955.452114.22606.508628.28258-.282571.39559-.508628.79119-.734685 1.24331-1.130285-.62166-17.632443-9.21182-34.078087-15.03279 0 0 6.725195 28.59621 6.725195 53.63201l-.05651-.11302c0 25.09232-6.725195 55.21441-6.725195 55.21441 16.445644-5.76446 32.947802-14.01553 34.134601-14.63719l.847713 1.35634c-.169542.11303-.339085.16954-.565142.28257-6.103538 3.1648-35.038828 17.68896-60.300697 22.77524-.3956.0565-.7912.16954-1.1868.22606-.3956.0565-.84772.16954-1.24332.22605h-.16954c-.62166.11303-1.24331.22606-1.80845.28258-.45212.0565-.90423.11302-1.35635.22605-.62165.0565-1.01725.11303-1.41285.16955"/>
  <path fill="#e4e5e4" d="M-79.244894 319.55133l.05651.11302c-.05651-25.0358-6.725194-53.63201-6.725194-53.63201 16.502158 5.82097 32.947801 14.41113 34.078086 15.03279-.169543.28257-.282571.50863-.452114.7912-4.690682 7.96851-7.968508 16.89776-9.494392 26.39215l.791199.33908.282571.11303c-.05651.28257-.05651.56514-.113028.7912 0 .16954-.05651.33909-.05651.50863v.11303c-.05651.28257-.05651.56514-.113029.84771-.05651.3956-.113028.73469-.113028 1.13029-.05651.33908-.05651.67817-.113029 1.01725v.16954c-.05651.33909-.05651.67818-.113028 1.01726-.339086-.22606-.734685-.3956-1.073771-.62166-2.091027-1.13028-4.238568-2.20405-6.442623-3.22131-1.299828-.62165-1.695427-.3956-1.808456 1.01726-.169542 3.05177-.508628 6.10354-.452114 9.21182-.05651 3.10828.282572 6.21657.452114 9.32485.05652 1.35634.508628 1.5824 1.751942 1.07377 2.260569-.90423 4.40811-1.978 6.555652-3.10828.339085-.22606.734685-.3956 1.07377-.62166l.169543 1.86497c0 .22606.05651.45211.05651.67817.05651.56514.169543 1.13029.226057 1.69543 0 .16954.05651.33908.05651.56514 0 .0565 0 .11303.05651.22606l-.339085.16954-.734685.33909c1.525884 9.49439 4.747196 18.36712 9.324849 26.33563.226057.33909.3956.73469.621657 1.07377-1.243313.62166-17.745471 8.81622-34.1346 14.63719 0-.16954 6.725194-30.23512 6.725194-55.38395"/>
  <path fill="#a7a8a8" d="M14.087635 397.47689c-7.0642803 0-13.9590175-.96074-20.458155-2.7692h-.056514c-5.142796-1.41286-10.116049-3.39085-14.750217-5.76445-12.207075-6.3296-22.492667-15.82399-29.839518-27.40941-5.425367-8.59016-9.155307-18.31061-10.79422-28.76575l.734685-.33908.339086-.16954.508628 3.05177c.05651.28257.113028.62165.169543.90422.05651.3956.169542.73469.226057 1.13029.05651.16954.05651.33908.113028.50863 0 .0565.05651.11302.05651.16954.05651.28257.169543.62166.226057.90423.05651.28257.113029.50862.226057.7912.05652.16954.05652.28257.113029.45211.05651.11303.05651.28257.113028.3956.113029.33908.169543.67817.282571 1.01726.05651.16954.113029.3956.169543.56514.05651.28257.169543.50863.226057.7912.05651.22605.169543.45211.226057.67817.113029.33908.169543.62165.282571.90423.05651.22605.169543.45211.226057.67817.169543.56514.3956 1.07377.565143 1.63891.113028.22606.169542.50863.282571.73468v.0565c.113028.28257.169543.50863.282571.7912.113028.28257.226057.56514.339085.7912.05652.11303.05652.16954.113029.28257.05651.16954.113028.28257.169543.45211.113028.22606.226057.50863.339085.73469.113029.22606.226057.45211.339086.73468.226056.56515.508628 1.13029.791199 1.69543l.508628 1.01726.508628 1.01725.339086.67817.169542.33909v.0565c.05651.16955.169543.28257.226057.45212.7912 1.52588 1.695427 2.99525 2.599655 4.40811.05652.11303.169543.22606.226057.3956.169543.22605.339086.50863.508628.73468l.678171 1.01726c0 .0565.05651.0565.05651.11303.05651.11303.169542.22605.226056.33908.05651.11303.169543.22606.226057.33909.113029.22606.282572.3956.452114.62166l.847714 1.18679c.113028.16955.226057.28258.339085.45212l.05651.0565c.05651.11303.169542.22606.226057.28257.113028.11303.169542.22606.282571.33909.282571.3956.621656.7912.904228 1.13028.282571.3956.621656.73469.904227 1.13029.169543.16954.339086.3956.452114.56514.169543.16954.339086.3956.508628.56514.169543.16955.282572.33909.452114.50863.282572.28257.508629.56514.7912.84772.169542.16954.339085.39559.508628.56514l.339085.33908c.452114.45212.904228.96075 1.356342 1.41286l.05651.0565c5.425367 5.42537 11.641934 10.05954 18.480157 13.61993 4.80371 2.54315 9.946506 4.57766 15.2588443 5.99051 6.32959484 1.69543 12.9982751 2.65617 19.8930117 2.65617.960742 0 1.921485 0 2.882227-.0565 3.786454-.16954 7.459879-.56514 11.07679-1.24331 10.737706-1.978 20.684212-6.27308 29.274376-12.26359 8.590165-5.99051 15.937016-13.73296 21.418897-22.71873.734685-1.1868 1.46937-2.43011 2.147541-3.72994.282571-.50863.565143-1.01725.7912-1.52588 5.255824-10.28559 8.194564-21.92753 8.194564-34.24763 0-12.32011-2.93874-23.96204-8.194564-34.24763-.226057-.45211-.452114-.90423-.734686-1.35634 0-.0565-.05651-.11303-.05651-.11303-.169543-.28257-.339085-.56514-.452114-.84771-.113028-.16955-.226057-.3956-.339085-.56515-.113029-.16954-.226057-.3956-.339086-.56514-.05651-.11303-.113028-.22606-.169542-.28257-.113029-.22606-.226057-.45211-.3956-.67817-.05651-.11303-.169543-.22606-.226057-.3956-.169543-.33909-.3956-.62166-.565142-.96074-.226057-.33909-.3956-.62166-.621657-.96074-.05651-.0565-.05651-.11303-.113028-.16955-.169543-.28257-.3956-.62165-.621657-.90423l-.678157-1.01721c-.226057-.33909-.452114-.67817-.734685-1.01726-.05651-.0565-.05651-.11303-.113029-.16954-.113028-.16954-.282571-.3956-.395599-.56514l-.508628-.67817c-.113029-.16955-.282572-.33909-.3956-.50863-.169543-.16954-.282571-.3956-.452114-.56514-.282571-.3956-.621657-.7912-.904228-1.13029-.169543-.16954-.339085-.3956-.452114-.56514-.169542-.16954-.339085-.3956-.452114-.56514-.508628-.56515-.960742-1.13029-1.46937-1.69543-.169543-.16954-.339085-.33909-.452114-.50863-.621656-.67817-1.299827-1.35634-1.921484-2.03451l-.621657-.62166c-.282571-.28257-.565142-.56514-.904227-.84771-.282572-.28257-.565143-.56514-.904228-.84772-.282571-.28257-.621657-.56514-.904228-.84771s-.621657-.56514-.904228-.7912c-.226057-.22606-.508628-.45211-.734685-.62166-.508628-.45211-1.017256-.84771-1.525884-1.24331-.282572-.22606-.508629-.3956-.7912-.62166-4.747196-3.72994-10.00302-6.89473-15.541416-9.38136-9.494392-4.23857-20.00604-6.61217-31.026317-6.61217-5.0297672 0-9.946506.50863-14.75021636 1.41286-14.52415964 2.88223-27.52243464 9.88999-37.80802564 19.72347-4.747197 4.57765-8.872736 9.72045-12.320105 15.37187-.565142.90423-1.07377 1.86497-1.638913 2.82572-.05651.16954-.169542.28257-.226056.45211-.05651.16954-.169543.28257-.226057.45211-.169543.33909-.339086.62166-.508629.96075-.169542.33908-.339085.62165-.452114.96074-.113028.28257-.282571.56514-.395599.7912-.05651.11303-.113029.28257-.226057.3956-.113029.16954-.169543.3956-.282571.56514-.05651.11303-.05651.16954-.113029.28257-.113028.22606-.169543.3956-.282571.62166-.339085.73468-.621657 1.41285-.904228 2.14754-.05651.16954-.169543.3956-.226057.56514-.05651.22606-.169543.3956-.226057.62166-.169542.45211-.339085.84771-.508628 1.29982-.05651.11303-.113028.22606-.113028.3956-.282572.73469-.508629 1.52589-.7912 2.26057l-.339085 1.01726c-.05651.16954-.113029.3956-.169543.56514l-.169543.50863c-.113028.33909-.169542.62166-.282571.96074 0 .0565-.05651.16955-.05651.28257-.05651.16955-.113029.3956-.169543.56515-.282571 1.07377-.565142 2.20405-.791199 3.27782-.05651.22606-.113029.3956-.113029.62166v.11303c0 .11303-.05651.22605-.05651.33908-.05651.16955-.05651.33909-.113028.50863-.05651.22606-.113029.45211-.113029.67817 0 .0565 0 .11303-.05651.16954 0 .16955-.05651.28258-.05651.45212-.05652.22606-.113029.50863-.113029.73468-.05651.28257-.113028.62166-.169542.90423l-.282572-.11303-.791199-.33908c1.638913-10.28559 5.368853-19.89302 10.681191-28.37015 3.164798-5.02977 6.894737-9.72045 11.076791-13.84599 8.194565-8.13805 18.254099-14.41113 29.443919-18.19758.226057-.0565.395599-.11303.6216564-.22606 7.5729081-2.48663 15.6544443-3.84297 24.0750656-3.84297 11.246334 0 21.871011 2.43011 31.478432 6.72519 3.164797 1.41286 6.216566 3.05177 9.098792 4.86023.734685.45211 1.412856.96074 2.147541 1.41286h.05651c20.571184 13.78947 34.078087 37.24288 34.078087 63.86109 0 26.6182-13.506903 50.07161-34.078087 63.86109-8.929249 5.99051-19.214841 10.17256-30.291632 11.98101-2.599655.45212-5.255824.73469-7.911993.90423h-.226057c-1.638913-.0565-3.051769-.0565-4.521139-.0565"/>
  <path fill="#c1c3c2" d="M14.946595 355.76147c-1.808456 0-3.560398-.16955-5.2558247-.50863-7.798965-1.52588-14.4676453-5.1428-19.7234693-11.13331-5.086282-5.76445-8.025022-12.48964-8.590165-20.06255-.565142-6.95125.7912-13.61993 4.238568-19.77998 3.33434-5.934 7.9685081-10.51165 13.95901745-13.78948 5.31233845-2.88222 11.02027655-4.12554 17.01078555-4.12554h65.160918c5.255825 10.28559 8.194565 21.92753 8.194565 34.24763s-2.93874 23.96204-8.194565 34.24763c-3.447368.11303-9.211821 0-12.602675.16954-4.973253.22606-10.00302 0-14.976273.22606-4.803711.22606-9.607421 0-14.467646.22606-4.916738.22605-9.833477-.0565-14.750216.22605-3.390854.16955-6.66868 0-10.00302.0565"/>
  <path fill="#dedfde" d="M14.087635 396.35638c-20.9667832 0-39.955568-8.53365-53.688528-22.26661-11.076791-11.07679-18.706213-25.60095-21.192839-41.82054-.282572-1.63891-.452114-3.27782-.621657-4.97325 2.712683-1.5824 5.312338-3.27783 7.855479-5.19931 1.412856-1.07377 1.356342-1.29983 0-2.43011-2.486626-2.03451-5.142796-3.78646-7.855479-5.36886.169543-1.86496.3956-3.72993.678171-5.5949 1.582399-9.83348 5.029767-19.0453 9.946506-27.23987 3.447369-5.65142 7.572908-10.85073 12.320104-15.37187 10.229077-9.88999 23.283867-16.89776 37.80802616-19.72347 4.74719614-.96074 9.66393494-1.41286 14.75021684-1.41286 11.076791 0 21.588439 2.3736 31.026317 6.61217 5.59491 2.48663 10.79422 5.65142 15.541416 9.38136 8.251079 6.44263 15.145816 14.58068 20.119069 23.90553H16.68729c-2.430113 0-4.860225.16954-7.233823.62165-9.38136373 1.75194-17.0673003 6.38611-22.718724 14.07205-6.725195 9.09879-8.646679 19.27135-6.103538 30.29163 1.86497 7.96851 6.160052 14.46765 12.5461611 19.61044 6.27308054 5.08628 13.5069032 7.74245 21.5884389 7.912 3.899483.0565 7.798965.0565 11.754962-.11303 4.973253-.22606 10.003021 0 14.976274-.22606 4.747196-.22606 9.494392 0 14.241588-.22606 5.086281-.22605 10.116049.0565 15.20233-.22605 2.65617-.16955 5.312339-.0565 7.968508-.0565h1.86497c-.678171 1.24331-1.412856 2.48663-2.147541 3.72994-13.167818 21.58844-37.18637 36.1126-64.539261 36.1126"/>
  <path fill="#a7a8a8" d="M-70.715709 320.58469c.113029 2.65617.282572 5.25582.3956 7.91199.05651 1.63891.3956 1.86497 1.921484 1.24331 5.142796-2.03451 9.776964-4.86022 14.185074-8.08153.847714-.62166.7912-.84772 0-1.52589-4.351596-3.67342-9.381363-6.27308-14.524159-8.64667-1.130285-.50863-1.525885-.3956-1.582399.90422-.113028 2.71269-.226057 5.48188-.3956 8.19457m-.452113.0565c-.05652-3.05177.282571-6.16005.452113-9.21182.05652-1.41285.508629-1.63891 1.808456-1.01726 5.425367 2.54315 10.737706 5.31234 15.428387 9.21183 1.356342 1.13028 1.412856 1.35634 0 2.43011-4.80371 3.61691-9.889991 6.66868-15.484901 8.92925-1.243313.50863-1.638913.28257-1.751942-1.07377-.169542-3.05177-.508628-6.16005-.452113-9.26834"/>
  <path fill="#c1c3c2" d="M-70.715595 320.58395c.169542-2.71268.226056-5.48188.452113-8.19456.113029-1.29983.452114-1.41286 1.582399-.90423 5.142796 2.3736 10.116049 4.97325 14.52416 8.64668.791199.67817.791199.90423 0 1.52588-4.408111 3.22132-9.042279 6.10354-14.185074 8.08154-1.525885.62166-1.808456.3956-1.921485-1.24331-.169542-2.59966-.282571-5.25583-.452113-7.912"/>
  <path fill="#a7a8a8" d="M49.171279 320.855c0-5.934-.113029-11.86799.05651-17.8585.05651-2.48663-2.091027-4.57766-4.521139-4.57766-10.568163.11303-21.19284.11303-31.761003 0-2.712683 0-4.5211388 2.26057-4.5211388 4.57766.1130285 11.86799.1130285 23.79249 0 35.66048 0 2.48663 1.8084558 4.69068 4.6906818 4.69068 10.511649-.0565 21.023297-.0565 31.534946 0 2.373598 0 4.634167-1.978 4.577653-4.57765-.113028-5.99051-.05651-11.9245-.05651-17.91501m-19.666956 26.16609H11.758852c-2.7691974 0-4.3515961-1.24331-5.0862812-3.956-.5651424-2.09103-1.8084556-12.09405-1.7519414-22.04055.056514-10.39862 1.5258845-20.74073 1.9214841-22.26661.6781709-2.43011 2.2605696-3.72994 4.7471965-3.72994h37.581969c2.317084 0 5.029767 10.3421 5.029767 25.88352 0 15.37187-2.882226 26.10958-5.029767 26.10958H29.504323"/>
  <path fill="#c1c3c2" d="M9.5153557 320.878v16.95427c0 2.65617 1.5823983 4.23857 4.2385683 4.23857h30.122089c2.712684 0 4.238568-1.5824 4.238568-4.29509V303.8107c0-2.65617-1.582399-4.29509-4.238568-4.29509H13.753924c-2.599655 0-4.2385683 1.69543-4.2385683 4.29509v17.0673m39.6729963-.0565c0 5.99051-.113029 11.98102.05651 17.97153.05651 2.59966-2.204055 4.57765-4.577653 4.57765-10.511649-.0565-21.023297-.0565-31.534946 0-2.882226 0-4.6906818-2.20405-4.6906818-4.69068.1130285-11.86799.1130285-23.79249 0-35.66048 0-2.31709 1.8084558-4.57766 4.5211388-4.57766 10.568163.11303 21.19284.11303 31.761003 0 2.486626 0 4.577653 2.03452 4.521139 4.57766-.169543 5.93399-.05651 11.86799-.05651 17.80198"/>
  <path fill="#4a4a4c" d="M9.5153557 320.878v-16.95427c0-2.59966 1.6389133-4.29509 4.2385683-4.29509h30.122089c2.656169 0 4.238568 1.63892 4.238568 4.29509v33.96505c0 2.71269-1.582399 4.29509-4.238568 4.29509H13.753924c-2.65617 0-4.2385683-1.63892-4.2385683-4.23857V320.878"/>
  <path fill="#6d6d6d" d="M21.850888 380.78083c4.690682 0 8.53365 3.78645 8.53365 8.53365 0 4.69068-3.786454 8.53365-8.53365 8.53365s-8.53365-3.78645-8.53365-8.53365c0-4.69068 3.786454-8.53365 8.53365-8.53365"/>
  <path fill="#02aa46" d="M21.850888 381.41893c4.351597 0 7.911994 3.5604 7.911994 7.912 0 4.35159-3.560397 7.91199-7.911994 7.91199-4.351596 0-7.911993-3.5604-7.911993-7.91199 0-4.40811 3.503883-7.912 7.911993-7.912"/>
  <path fill="#6d6d6d" d="M-12.780755 380.78083c4.6906819 0 8.5336502 3.78645 8.5336502 8.53365 0 4.69068-3.7864541 8.53365-8.5336502 8.53365-4.747196 0-8.53365-3.78645-8.53365-8.53365.05651-4.69068 3.842968-8.53365 8.53365-8.53365"/>
  <path fill="#e23434" d="M-12.780755 381.41893c4.3515965 0 7.9119935 3.5604 7.9119935 7.912 0 4.35159-3.560397 7.91199-7.9119935 7.91199-4.351596 0-7.911993-3.5604-7.911993-7.91199 0-4.40811 3.560397-7.912 7.911993-7.912"/>
  <path fill="#6d6d6d" d="M4.4706065 362.79687c4.6906819 0 8.5336505 3.78645 8.5336505 8.53365 0 4.69068-3.7864544 8.53365-8.5336505 8.53365s-8.5336501-3.78646-8.5336501-8.53365c.056514-4.7472 3.84296825-8.53365 8.5336501-8.53365"/>
  <path fill="#f2e825" d="M4.4706065 363.36348c4.4081107 0 7.9685075 3.5604 7.9685075 7.96851 0 4.40811-3.5603968 7.96851-7.9685075 7.96851-4.40811065 0-7.9685077-3.5604-7.9685077-7.96851.056514-4.40811 3.6169113-7.96851 7.9685077-7.96851"/>
  <path fill="#6d6d6d" d="M4.4706065 398.2413c4.6906819 0 8.5336505 3.78645 8.5336505 8.53365 0 4.69068-3.7864544 8.53365-8.5336505 8.53365s-8.5336501-3.78645-8.5336501-8.53365c.056514-4.7472 3.84296825-8.53365 8.5336501-8.53365"/>
  <path fill="#3f6c9e" d="M4.4706065 398.98424c4.2950822 0 7.7424505 3.44736 7.7424505 7.74245 0 4.29508-3.4473683 7.74245-7.7424505 7.74245-4.29508217 0-7.7424508-3.44737-7.7424508-7.74245 0-4.23857 3.50388287-7.74245 7.7424508-7.74245"/>
  <path fill="#e4e5e4" d="M22.682716 223.7407c12.828732 0 23.170838 10.39862 23.170838 23.17084 0 12.77222-10.39862 23.17084-23.170838 23.17084-12.7722184 0-23.17083838-10.39862-23.17083838-23.17084 0-12.77222 10.34210578-23.17084 23.17083838-23.17084"/>
  <path fill="#a7a8a8" d="M22.682716 230.87291c8.872735 0 16.050044 7.17731 16.050044 16.05004 0 8.87274-7.177309 16.05005-16.050044 16.05005-8.872736 0-16.1065585-7.17731-16.1065585-16.05005 0-8.87273 7.1773085-16.05004 16.1065585-16.05004"/>
  <path fill="#c1c3c2" d="M22.682716 233.17445c7.572908 0 13.73296 6.16006 13.73296 13.73296 0 7.57291-6.160052 13.73296-13.73296 13.73296s-13.7329604-6.16005-13.7329604-13.73296c0-7.5729 6.1035374-13.73296 13.7329604-13.73296"/>
  <path fill="#dedfde" d="M67.888343 337.21197h-4.408111c-.960742 0-1.808456-.7912-1.808456-1.80846v-28.9918c0-.96074.7912-1.80846 1.808456-1.80846h4.408111c.960742 0 1.808455.7912 1.808455 1.80846v3.5604c0 .90422.734685 1.58239 1.582399 1.58239h4.182054c5.255824 0 9.720449 4.01251 10.00302 9.26834.226057 5.59491-4.182054 10.17256-9.720449 10.17256h-4.464625c-.904228 0-1.582399.73469-1.582399 1.5824v2.82571c-.05651.96074-.847713 1.80846-1.808455 1.80846"/>
  <path d="M64.215652 318.47885s-.05651-.11302-.113029-.11302c0-.11303-.05651-.16955-.05651-.22606v-.22606c0-.11303.05651-.22605.113029-.33908.05651-.11303 0-.11303.113028-.16955.05651-.0565.226057-.16954.339085-.16954h.226057c.05651 0 .113029.0565.169543.0565l.169543.16954c.05651.0565.05651.16954.113028.28257 0 .0565.05652.16954.05652.28257 0 .0565 0 .22606.05651.28257 0 .0565 0 .11303.05651.16954 0 .0565.05651.11303.05651.11303l.113029.11303h-.621657s-.282571 0-.3956-.11303c-.339085 0-.395599-.11303-.395599-.11303m2.091027-1.41285c.05651.16954.113028.22606.169542.33908 0 .11303.05652.16955.05652.33909 0 .11303.05651.22606.05651.33908 0 .11303-.05651.28258-.05651.3956 0 .11303-.113029.16955-.226057.22606-.05652.0565-.113029.0565-.226057.0565h-.113029c-.05651 0-.05651-.0565-.113028-.0565-.05651 0-.05651-.0565-.113029-.11303 0 0-.05651-.0565-.05651-.11303 0-.0565-.05651-.11302-.05651-.16954 0-.0565 0-.11303-.05651-.22606-.05652-.28257-.05652-.45211-.113029-.62165-.05651-.11303-.05651-.22606-.113028-.28257-.05652-.11303-.05652-.11303-.169543-.22606l-.169543-.16954c-.05651-.0565-.113028-.0565-.226057-.11303-.05651 0-.169543-.0565-.282571-.0565-.169543 0-.282571 0-.452114.11303-.113028.0565-.226057.22606-.339085.33909-.05652.16954-.169543.33908-.169543.62166v.22605c0 .0565.05651.16954.05651.28257.05651.0565.113029.16955.169543.28257l.169543.16955h-.226057v.56514c.226057-.0565.282571-.0565.452114-.0565h1.638913c.113028 0 .339085-.0565.395599-.11303.113029-.0565.169543-.11303.282571-.16955.113029-.0565.226057-.28257.282572-.3956.05651-.16954.05651-.28257.05651-.45211v-.56514c0-.16954-.05651-.28257-.113029-.50863-.169542.11303-.339085.11303-.395599.11303m-2.058978 12.23652c0-.0565-.05651-.11303-.113028-.16954 0-.11303-.05652-.16955-.05652-.22606v-.22606c0-.11303.05652-.22606.113029-.33908.05651-.0565 0-.0565.113028-.16955.05652-.0565.226057-.16954.339086-.16954h.226057c.05651 0 .113028.0565.169542.11303l.169543.16954c.05651.0565.05651.16954.113029.28257 0 .0565.05651.16955.05651.28257 0 .0565 0 .22606.05651.28258 0 .0565 0 .11302.05651.11302 0 .0565.05651.11303.05651.11303l.113028.11303h-.791199s-.226057 0-.3956-.11303c-.169543 0-.226057-.0565-.226057-.0565m2.091027-1.46937l.169543.33908c0 .11303.05651.22606.05651.33909 0 .11303.05651.22606.05651.33908 0 .11303-.05651.28258-.05651.3956 0 .11303-.113029.16955-.226057.22606-.05651.0565-.113029.0565-.226057.0565h-.113029c-.05651 0 0 0-.05651-.0565-.05651 0-.05651-.0565-.113028-.11303 0 0-.05652-.0565-.05652-.11303 0-.0565-.05651-.11302-.05651-.16954 0-.0565 0-.11303-.05651-.22606-.05651-.28257-.05651-.50862-.113028-.62165-.05651-.11303-.05651-.22606-.113029-.28257-.05651-.0565-.05651-.11303-.169543-.22606l-.169542-.16954c-.05652-.0565-.169543-.0565-.226057-.11303-.05652 0-.169543-.0565-.282572-.0565-.169542 0-.282571 0-.452113.11303-.113029.0565-.226057.22606-.339086.33909-.05651.16954-.169543.33908-.169543.62165v.22606c0 .11303.05652.16954.05652.28257.05651.0565.113028.16955.169542.28257l.169543.16955h-.282571v.56514c.226057-.0565.282571-.0565.452114-.0565h1.638913c.113028 0 .339085-.0565.395599-.11302.113029-.0565.169543-.11303.282572-.16955.113028-.0565.226057-.22605.282571-.3956.05651-.16954.05651-.22605.05651-.3956 0-.16954 0-.3956-.05651-.56514 0-.16954-.05651-.28257-.113029-.50863-.113028.0565-.226057.0565-.339085.0565m-2.605256-8.03548l.226057.0565h.621657l1.808456-.0565c.169542 0 .339085-.11303.395599-.11303 0 .11303 0 .28257.05651.3956v.22606h-.395599c.113028.0565.113028.16954.226057.22606.05651.0565.05651.11302.113028.16954.05651.0565.05651.11303.05651.22606v.33908c0 .0565 0 .16954-.05651.22606 0 .0565-.05651.16954-.113028.22605 0 .0565-.05651.11303-.113029.16955-.05651.0565-.05651.11303-.169542.16954 0 0 .169542.11303.226057.28257.113028.16954.169542.3956.169542.56514 0 .11303 0 .45212-.05651.56515-.05651.11302-.113028.33908-.226057.3956-.113028.0565-.113028.11302-.226057.16954-.113028.11303-.339085.11303-.3956.11303h-1.921484c-.169542 0-.169542.0565-.339085.0565v-.62166c.226057.0565.169543.0565.339085.0565h1.808456c.113028 0 .282571-.0565.339085-.0565.05651 0 .226057-.16954.226057-.22605.05651-.0565.05651-.11303.113029-.22606.05651-.0565.05651-.22606.05651-.28257v-.22606c0-.0565-.05651-.11303-.05651-.16954-.05651-.0565-.05651-.11303-.113029-.16954-.05651-.0565-.113028-.0565-.169542-.11303-.05651 0-.169543 0-.282572-.0565H64.07255l-.282571.11303v-.62165c.282571 0 0 .0565.282571.0565h1.808455c.113029 0 .169543 0 .226057-.0565.05651 0 .169543-.0565.226057-.11303l.226057-.22606c.05652-.0565.05652-.16954.05652-.28257 0-.11303 0-.16954-.05652-.22606-.05651-.0565-.05651-.16954-.113028-.22605-.05651-.0565-.05651-.11303-.169543-.16955-.113028-.0565-.05651-.0565-.226057-.11303-.169543 0-.791199-.0565-1.186799-.0565h-.678171c-.113028 0-.169542.0565-.282571.0565v-.28257c-.169543.16955-.169543 0-.169543-.16954m.567008 7.51617h-.226057c-.113029 0-.169543-.0565-.282571-.0565-.05651-.11302-.05651-.28257-.113029-.3956v-.56514c0-.22605.05651-.45211.113029-.62165.05651-.16955.169542-.3956.339085-.50863.113028-.11303.282571-.28257.508628-.33909.226057-.0565.3956-.11303.621657-.11303.339085 0 .395599.0565.678171.11303.282571.11303.508628.33909.621656.50863.169543.22606.282571.67817.282571 1.01726 0 .28257-.05651.56514-.113028.84771-.169543 0-.282571 0-.3956.0565.05652-.16954.169543-.33908.169543-.45211 0-.11303.05651-.28257.05651-.33909 0-.16954-.05651-.50862-.169542-.62165-.05652-.11303-.169543-.22606-.282572-.33909-.113028-.0565-.282571-.16954-.452114-.16954-.169542-.0565-.169542-.0565-.395599-.0565-.226057 0-.452114.0565-.621657.11302-.169543.0565-.339085.22606-.452114.3956-.113028.16955-.226057.33909-.226057.56515.05651.11302.113029.50862.339086.96074m-.471549 3.20204l.226056-.0565s.169543-.0565.282572-.0565c-.169543.33909-.339086.73469-.339086 1.01726 0 .11303.05651.28257.05651.3956.05652.11302.113029.16954.169543.22605.05651.0565.169543.11303.226057.11303h.169543c.05651 0 .169543 0 .226057-.0565.05651 0 .113028-.11303.169543-.16955.05651-.0565.113028-.22605.169542-.39559.05651-.16955.169543-.45212.226057-.50863.05651-.11303.169543-.22606.226057-.33909.05651-.0565.169543-.11303.226057-.16954h.282571c.113029 0 .282572.0565.3956.16954.113028.0565.169543.22606.282571.3956.05651.16954.113029.33909.113029.56514 0 .22606-.05651.45212-.113029.73469h-.395599c.113028-.22606.226056-.45212.226056-.67817 0-.11303 0-.22606-.05651-.33909-.05651-.11303-.113028-.22605-.169542-.28257-.05651-.0565-.113029-.0565-.226057-.0565-.05651 0-.113029 0-.169543.0565-.05651 0-.169543.11303-.169543.22606-.05651.11303 0 .0565-.05651.11303 0 .11303-.113029.28257-.226057.50862-.113029.22606-.226057.3956-.282571.50863-.05651.0565-.169543.16955-.339086.22606-.05651.0565-.169542.0565-.226057.0565h-.226057c-.169542 0-.226057 0-.339085-.11302-.113029-.0565-.226057-.22606-.339085-.3956-.05652-.16955-.113029-.33909-.113029-.56515v-.3956c0-.11302.05651-.22605.05651-.33908.05652-.22606.05652-.28257.05652-.3956m.267815 3.87134c-.113029 0-.169543-.0565-.339086-.0565-.05651-.11303-.05651-.16954-.05651-.28257v-.22606c0-.16954 0-.28257.05651-.39559.05651-.11303.113029-.16955.226057-.22606.113029-.0565.3956-.11303.565143-.11303h1.921484v-.3956h.282571v.3956h.565142c.113029 0 .169543-.0565.226057-.11303.05651.16954.113029.45212.169543.56514h-.904228v.7912h-.282571v-.7912h-1.921484c-.169543 0-.339085 0-.452114.0565-.05651 0-.113028.0565-.169543.16954 0 .0565-.05651.11303-.05651.22606v.16954c.113029 0 .169543.0565.169543.22606m.191979-18.00736c-.113029 0-.282571-.0565-.452114-.0565-.05651-.16954-.169543-.45211-.169543-.62165v-.3956c0-.22606.05651-.45212.113029-.67817.05651-.16955.169542-.3956.339085-.50863.169543-.16954.339085-.28257.508628-.33909.226057-.0565.3956-.0565.621657-.11302.339085 0 .452114.0565.734685.11302.282571.11303.452114.28258.621657.50863.169542.22606.226056.45212.226056.7912 0 .16954 0 .3956-.05651.50863-.05651.16954-.113028.28257-.226057.3956-.113028.11303-.226057.22606-.395599.28257-.169543.0565-.169543.0565-.3956.11303h-.339086v-2.26057h-.226056c-.226057 0-.452114.0565-.621657.11303-.169543.11303-.339086.22605-.3956.3956-.113028.16954-.169542.3956-.169542.62165 0 .33909.113028.7912.282571 1.13029m1.46937-2.03451v1.63891h.169543c.05651 0 .113028-.0565.226057-.0565l.169542-.16955c.05651-.0565.113029-.11303.169543-.22605 0-.0565.05651-.22606.05651-.33909 0-.11303 0-.22606-.05651-.28257-.05651-.11303-.05651-.16954-.169543-.22606-.05651-.0565-.113028-.11303-.226057-.16954-.05651-.0565-.169542-.11303-.226057-.11303 0-.0565 0-.0565-.113028-.0565m-2.088145-2.5818c.05652 0 .169543.0565.226057.0565h2.65617l.226056-.11302c0 .11302 0 .22605.05652.28257 0 .0565.05651.22605.05651.33908h-.565142c.113028.0565.113028.0565.169542.11303.05652.0565.169543.11303.226057.16954.05651.0565.113029.11303.113029.22606 0 .0565.05651.16954.05651.22606v.33908c0 .16955-.05651.28257-.05651.33909-.05652 0-.3956-.11303-.3956-.11303s0-.16954.05651-.28257v-.28257c0-.11303 0-.22606-.05651-.33909-.05651-.0565-.113028-.16954-.169543-.22605-.05651-.0565-.169542-.11303-.282571-.16955-.113028-.0565 0 0-.169543-.0565h-1.921484l-.169542.0565v-.33908c-.05652.0565-.05652-.11303-.05652-.22606m-.0096-4.6418l.282571.11303h3.72994c.113028 0 .226057-.0565.3956-.11303v1.978c0 .33909-.05652.3956-.113029.67817-.05651.16954-.226057.50863-.339085.67817-.113029.16955-.226057.28257-.3956.3956-.169543.11303-.226057.16955-.3956.28257-.282571.11303-.565142.16955-.847713.16955-.3956 0-.678171 0-1.017257-.11303-.339085-.11303-.565142-.33909-.791199-.56514-.226057-.22606-.3956-.45212-.452114-.7912-.05651-.28257-.113028-.62166-.113028-.96075v-.84771l.05651-.90423zm.339085.7912v1.24332c0 .16954.113029.33908.169543.45211.05651.16954.113029.28257.282571.3956.113029.16954.282571.22606.452114.33908.169543.0565.339086.16955.565143.16955.226057.0565.395599.0565.621656.0565s.3956-.0565.621657-.16954c.226057-.0565.452114-.16954.621656-.33909.169543-.16954.282572-.33908.339086-.50862.05651-.16955.113028-.45212.113028-.7912v-.96075l-3.786454.11303z"/>
  <path fill="#cf3311" d="M74.518424 321.37391c.508628 0 .452114-.22606.508628-.3956 0-.16954-.05651-.62166 0-1.01726.113028-.45211.734685-.73468 1.07377-.62165.904228.22605 1.017257.84771 1.017257 1.24331 0 .33909-.05651.90423-.678171 1.63891-.282571.33909-1.073771.50863-1.46937.56515-.565143 0-1.130285 0-1.469371-.33909-.565142-.50863-1.017256-1.86497-1.017256-2.65617.339085-2.99525 3.108283-2.88223 3.108283-2.88223s1.186799-.22605 2.486627.7912c.113028.0565.339085.22606.452114.33909.113028.11303.169542.16954.226057.33908.113028.11303.169542.22606.226057.3956.226057.33909.395599.67818.508628 1.01726.169542.50863.169542 1.01726.169542 1.41286-.05651 1.24331-.734685 2.59965-1.751941 3.27782-.169543.11303-.226057.16955-.3956.28257-.169542.11303-.395599.22606-.678171.33909-.452113.16954-.282571.11303-.960742.28257-.508628.11303-.791199.16954-1.130284.22606-.169543 0-.282572 0-.452114.0565-.565143 0-.678171.0565-1.073771-.0565-.734685-.16955-1.412856-.62166-1.751941-1.01726-.621657-.67817-.847714-1.24331-1.017257-1.63891-.169542-.33909-.226057-.50863-.395599-.96074-.169543-.45212-.226057-.73469-.226057-1.52589s.05651-1.46937.113028-1.63891c.3956-1.41286.678171-1.978 1.186799-2.54314 1.243314-1.5824 3.72994-1.92149 3.72994-1.92149s1.243313-.16954 2.599655.11303c.678171.16954 1.977998.84772 2.486627 1.24332.452114.33908 1.07377 1.13028 1.356341 1.58239.282572.45212.678171 1.13029.960742 1.92149.113029.3956.169543.67817.226057 1.52588.05652 1.01726-.226057 2.48663-.508628 3.33434-.282571.90423-.847713 1.75194-1.356341 2.14754-.452114.45212-1.86497 1.41286-2.147542 1.5824-.282571.16955-1.808455.62166-2.034512.67817-.169543.0565-.904228.11303-.847714.7912.05651.62166.7912.45212.904228.45212.113029 0 1.356342-.22606 1.638913-.33909.339085-.11303 1.186799-.56514 1.356342-.67817.113028-.0565.847713-.50863 1.412856-.96074.395599-.33909.847713-.62166 1.07377-1.01726.452114-.67817.7912-1.52588.7912-1.52588s.508628-1.46937.565142-2.20406c.05651-.67817.226057-1.35634.169543-2.54314-.05652-1.1868-.3956-1.80845-.565143-2.26057-.169542-.3956-.621656-1.41285-1.186799-2.14754-.621656-.73468-.282571-.50863-.734685-.90423-.452114-.3956-.565142-.50863-.904228-.7912-.395599-.28257-1.46937-.84771-2.260569-1.01725-.282571-.0565-.7912-.22606-1.186799-.28257-.3956-.0565-.734685-.0565-1.073771 0-.621656.0565-.678171.0565-.678171.0565s-1.243313.28257-1.751941.45211c-.508628.16955-1.186799.3956-2.373598 1.41286-1.130285 1.01726-1.412856 1.978-1.582399 2.31708-.113028.33909-.565142 1.5824-.565142 3.1648-.05651 1.80846.395599 2.31709.508628 2.65617.169543.33909.621657 1.46937 1.46937 2.3736.847714.90423 1.751942 1.1868 1.808456 1.1868.734685.22605 1.86497.33908 2.93874.11303.734685-.16955 1.412856-.28257 1.86497-.3956.7912-.28257 1.243313-.56515 1.582399-.7912.339085-.22606.847713-.84772 1.07377-1.29983.113029-.22606.282572-.3956.3956-.62166.113029-.28257.169543-.62165.282571-1.01725.113029-.3956.169543-.90423.226057-1.29983v-.7912c0-.16954-.113028-.7912-.565142-1.63891-.226057-.45212-.565143-.96074-1.130285-1.52589-.169543-.16954-.3956-.33908-.565142-.45211-1.695428-1.24331-3.616912-.7912-3.616912-.7912s-2.599655.22606-3.33434 2.48663c-.226057.7912-.282571 1.52588-.169542 2.09102.113028 1.01726.565142 1.69543.791199 2.20406.282571.50863.678171.84771 1.130285 1.07377.395599.22606.847713.22606 1.243313.22606.226057 0 .508628 0 .791199-.0565.734685-.11303 1.46937-.3956 2.034513-1.01725l.113028-.22606.169543-.33909c.282571-.56514.3956-1.07377.452114-1.86497 0-.28257-.05651-.67817-.169543-.90423-.452114-.90422-1.243313-1.35634-2.260569-1.35634-.960742.0565-1.469371.96075-1.638913 1.13029.05651-.28257-.452114 1.69543.452114 1.75194"/>
  <path fill="#a7a8a8" d="M-19.630908 274.19028h-8.646679c-.508628 0-.960742-.45211-.960742-.96074v-10.17256h-10.172563c-.508628 0-.960742-.45211-.960742-.96074v-8.64668c0-.50863.452114-.96074.960742-.96074h10.172563v-10.17257c0-.50863.452114-.96074.960742-.96074h8.646679c.508628 0 .960742.45211.960742.96074v10.17257h10.1725631c.5086281 0 .960742.45211.960742.96074v8.64668c0 .50863-.4521139.96074-.960742.96074H-18.670166v10.17256c0 .50863-.452114.96074-.960742.96074"/>
  <path fill="#c1c3c2" d="M-20.121729 273.2374h-7.685936c-.452114 0-.847714-.3956-.847714-.84772v-9.9465h-9.889992c-.452114 0-.847713-.3956-.847713-.84772v-7.68593c0-.45212.395599-.84772.847713-.84772h9.889992v-9.88999c0-.45211.3956-.84771.847714-.84771h7.685936c.452114 0 .847714.3956.847714.84771v9.94651h9.8899919c.4521139 0 .8477136.3956.8477136.84771v7.62942c0 .45212-.3955997.84772-.8477136.84772h-9.8899919v9.88999c.05651.56514-.339085.90423-.847714.90423"/>
  <path fill="#7f7f7f" d="M-74.332394 314.68155c-.113028.16954-.169542.45211-.169542.73468 0 .45212.226056.67818.508628.67818.282571 0 .452114-.16955.565142-.62166.169543-.50863.3956-.84771.847714-.84771.452114 0 .791199.45211.791199 1.07377 0 .33908-.05651.56514-.169543.73468l-.282571-.11303c.05651-.11303.113029-.33908.113029-.62165 0-.45212-.226057-.62166-.452114-.62166-.282572 0-.3956.22606-.565143.67817-.169542.56514-.452114.84771-.847713.84771-.452114 0-.847714-.3956-.847714-1.13028 0-.33909.05651-.67817.169543-.84771l.339085.0565zm2.159409 3.12083v-1.01726h.339086v2.43011h-.339086v-1.01725h-2.599655v-.45212h2.599655zm-1.388498 3.04295l.847714-.33908.508628-.16955-.508628-.16954-.847714-.33908v1.01725zm-.282571-1.07377l-.904228-.33908v-.45212l2.93874 1.13029v.50862l-2.93874 1.13029v-.45211l.904228-.33909v-1.1868zm.608545 2.85267v.45211c0 .45212.226057.73469.565142.73469.3956 0 .565143-.28257.565143-.73469 0-.22605 0-.33908-.05651-.3956h-1.073771zm1.356342-.3956c.05651.22606.05651.50863.05651.7912 0 .45211-.05651.73469-.226057.96074-.113028.16954-.339085.28257-.565142.28257-.3956 0-.621657-.28257-.734685-.62165-.05652.28257-.282572.3956-.565143.50862-.395599.11303-.678171.16955-.791199.22606v-.45211c.05651-.0565.339085-.11303.678171-.22606.395599-.11303.565142-.28257.565142-.67817v-.3956h-1.243313v-.45211h2.825712zm-.293818 3.29659v-1.01726h.339086v2.43012h-.339086v-1.01726h-2.599655v-.45211h2.599655z"/>
  <path fill="#b1b2b5" d="M33.528872 241.76648c-.226057.11303-.282571.33909-.226057.56514.113029.22606.339085.28258.565142.22606.226057-.11303.282572-.33908.226057-.56514-.113028-.22606-.339085-.33909-.565142-.22606m-2.317084.96074c-.226057.11303-.282571.33909-.226057.56515.113029.22605.339086.28257.565143.22605.226057-.11302.282571-.33908.226057-.56514-.113029-.22606-.339086-.28257-.565143-.22606m-2.430112 1.07378c-.226057.11302-.282571.33908-.226057.56514.113028.22605.339085.28257.565142.22605.226057-.11302.282572-.33908.226057-.56514-.113028-.22605-.395599-.28257-.565142-.22605m-1.921484 1.29982c.113028.22606 0 .45212-.226057.56515-.226057.11302-.452114 0-.565143-.22606-.113028-.22606 0-.45212.226057-.56514.226057-.0565.452114 0 .565143.22605m-15.089302 7.00777c.226057-.11303.282571-.33909.226057-.56514-.05651-.22606-.339086-.28258-.565143-.22606-.226057.0565-.282571.33908-.226057.56514.113029.22606.339086.28257.565143.22606m2.317084-1.01726c.226057-.11303.282571-.33908.226057-.56514-.113029-.22606-.339086-.28257-.565143-.22606-.226057.0565-.282571.33909-.226057.56515.113029.22605.339086.33908.565143.22605m2.486626-1.07377c.226057-.11303.282571-.33908.226057-.56514-.113028-.22606-.339085-.28257-.565142-.22606-.226057.11303-.282571.33909-.226057.56514.05651.22606.339085.33909.565142.22606m1.921484-1.29983c-.113028-.22605 0-.45211.226057-.56514.226057-.11303.452114 0 .565143.22606.113028.22606 0 .45211-.226057.56514-.226057.11303-.508628 0-.565143-.22606m9.32485 9.0988c-.113029-.22606-.339086-.28257-.565143-.22606-.226057.11303-.282571.33909-.226057.56514.113029.22606.339086.28257.565143.22606.226057-.0565.339085-.3956.226057-.56514m-.960742-2.31709c-.113029-.22605-.339086-.28257-.565143-.22605-.226057.11302-.282571.33908-.226057.56514.113029.22606.339086.28257.565143.22606.169543-.11303.282571-.33909.226057-.56515m-1.073771-2.48662c-.113028-.22606-.339085-.28257-.565142-.22606-.226057.11303-.282571.33908-.226057.56514.113028.22606.339085.28257.565142.22606.169543-.11303.282571-.33909.226057-.56514m-1.299827-1.92149c-.226057.11303-.452114 0-.565143-.22605-.113028-.22606 0-.45212.226057-.56515.226057-.11303.452114 0 .565143.22606.05651.22606-.05652.45211-.226057.56514m-7.007766-15.03279c.113029.22606.339085.28258.565142.22606.226057-.11303.282572-.33908.226057-.56514-.113028-.22606-.339085-.28257-.565142-.22606-.226057.11303-.339085.33909-.226057.56514m1.017256 2.26057c.113029.22606.339086.28258.565143.22606.226057-.11303.282571-.33908.226057-.56514-.113029-.22606-.339086-.28257-.565143-.22606-.226057.11303-.339085.3956-.226057.56514m1.073771 2.48663c.113028.22606.339085.28257.565142.22606.226057-.11303.282571-.33909.226057-.56514-.05651-.22606-.339085-.28258-.565142-.22606-.226057.11303-.339086.33908-.226057.56514m1.299827 1.92148c.226057-.11302.452114 0 .565143.22606.113028.22606 0 .45212-.226057.56514-.226057.11303-.452114 0-.565143-.22605-.113028-.22606 0-.45212.226057-.56515m10.003021-4.63416c-.169543.16954-.169543.45211 0 .56514.169542.16954.452114.16954.565142 0 .169543-.16954.169543-.45211 0-.56514-.113028-.11303-.3956-.11303-.565142 0m-1.751942 1.80845c-.169542.16955-.169542.45212 0 .56515.169543.16954.452114.16954.565143 0 .169542-.16955.169542-.45212 0-.56515-.169543-.16954-.3956-.16954-.565143 0m-1.921484 1.86497c-.169543.16955-.169543.45212 0 .56514.169543.16955.452114.16955.565143 0 .169542-.16954.169542-.45211 0-.56514-.113029-.11303-.3956-.11303-.565143 0M14.427059 255.7255c.169543-.16954.169543-.45211 0-.56514-.169543-.16955-.452114-.16955-.565142 0-.169543.16954-.169543.45211 0 .56514.169542.16954.395599.16954.565142 0m1.808456-1.75194c.169543-.16954.169543-.45212 0-.56514-.169543-.16955-.452114-.16955-.565143 0-.169542.16954-.169542.45211 0 .56514.113029.16954.3956.16954.565143 0m1.86497-1.92149c.169542-.16954.169542-.45211 0-.56514-.169543-.16954-.452114-.16954-.565143 0-.169542.16954-.169542.45212 0 .56514.169543.16955.3956.16955.565143 0m13.33736 3.10829c-.169543-.16955-.452114-.16955-.565142 0-.169543.16954-.169543.45211 0 .56514.169542.16954.452114.16954.565142 0 .169543-.16954.169543-.45211 0-.56514m-1.751941-1.80846c-.169543-.16954-.452114-.16954-.565143 0-.169542.16954-.169542.45212 0 .56514.169543.16955.452114.16955.565143 0 .169542-.11302.169542-.3956 0-.56514m-1.921484-1.86497c-.169543-.16954-.452114-.16954-.565143 0-.169543.16954-.169543.45212 0 .56514.169543.16955.452114.16955.565143 0 .169542-.16954.169542-.45211 0-.56514m-13.902503-12.77222c.169542.16955.452114.16955.565142 0 .169543-.16954.169543-.45211 0-.56514-.169543-.16954-.452114-.16954-.565142 0-.169543.11303-.169543.3956 0 .56514m1.751941 1.75195c.169543.16954.452114.16954.565143 0 .169542-.16955.169542-.45212 0-.56515-.169543-.16954-.452114-.16954-.565143 0-.169543.16955-.169543.3956 0 .56515m1.921484 1.92148c.169543.16954.452114.16954.565143 0 .169542-.16954.169542-.45211 0-.56514-.169543-.16955-.452114-.16955-.565143 0-.169542.11303-.169542.3956 0 .56514m9.381364-6.7252c-.113028.22606 0 .45212.226057.56515.226057.11303.452114 0 .565142-.22606.113029-.22606 0-.45211-.226057-.56514-.226057-.0565-.452114 0-.565142.22605m-.960742 2.31709c-.113029.22606 0 .45211.226057.56514.226057.11303.452114 0 .565142-.22606.113029-.22605 0-.45211-.226057-.56514-.226057-.11303-.452114 0-.565142.22606m-1.017256 2.48663c-.113029.22605 0 .45211.226057.56514.226057.11303.452114 0 .565142-.22606.113028-.22606 0-.45211-.226057-.56514-.226057-.11303-.508628 0-.565142.22606m-.508629 2.26056c.226057.11303.339086.33909.226057.56515-.113028.22605-.339085.33908-.565142.22605-.226057-.11302-.339085-.33908-.226057-.56514.113029-.22606.339086-.33908.565142-.22606m-6.047023 15.42839c.113028-.22605 0-.45211-.226057-.56514-.226057-.11303-.452114 0-.565142.22606-.113029.22605 0 .45211.226056.56514.226057.11303.452114 0 .565143-.22606m.960742-2.26057c.113028-.22605 0-.45211-.226057-.56514-.226057-.11303-.452114 0-.565142.22606-.113029.22605 0 .45211.226057.56514.226057.0565.452113-.0565.565142-.22606m1.07377-2.48662c.113029-.22606 0-.45212-.226056-.56515-.226057-.11302-.452114 0-.565143.22606-.113028.22606 0 .45211.226057.56514.226057.0565.452114-.0565.565142-.22605m.452114-2.31709c-.226057-.11303-.339085-.33908-.226057-.56514.113029-.22606.339086-.33909.565143-.22606.226057.11303.339085.33909.226057.56515-.113029.22605-.339086.33908-.565143.22605m13.05479.11303c-.226057-.11303-.452114 0-.565143.22606-.113028.22605 0 .45211.226057.56514.226057.11303.452114 0 .565143-.22606.05651-.22605 0-.50863-.226057-.56514m-2.317084-.96074c-.226057-.11303-.452114 0-.565143.22606-.113028.22605 0 .45211.226057.56514.226057.11303.452114 0 .565143-.22606.05651-.22606 0-.50863-.226057-.56514m-2.486627-1.07377c-.226057-.11303-.452114 0-.565142.22605-.113029.22606 0 .45212.226057.56515.226057.11303.452114 0 .565142-.22606.113029-.22606 0-.45211-.226057-.56514m-2.260569-.50863c-.113029.22606-.339086.33909-.565143.22606-.226057-.11303-.339085-.33909-.226057-.56515.113029-.22605.339086-.33908.565143-.22605.226057.11303.282571.3956.226057.56514M11.37529 242.6142c.226057.11302.452114 0 .565143-.22606.113028-.22606 0-.45211-.226057-.56514-.226057-.11303-.452114 0-.565143.22605-.05651.28257.05651.50863.226057.56515m2.317084 1.01725c.226057.11303.452114 0 .565142-.22605.113029-.22606 0-.45212-.226057-.56515-.226057-.11303-.452113 0-.565142.22606-.05651.22606.05651.45211.226057.56514m2.486627 1.01726c.226057.11303.452113 0 .565142-.22606.113028-.22606 0-.45211-.226057-.56514-.226057-.11303-.452114 0-.565142.22606-.05651.22605 0 .50862.226057.56514m2.260569.50863c.113029-.22606.339086-.33909.565143-.22606.226056.11303.339085.33909.226056.56514-.113028.22606-.339085.33909-.565142.22606-.169543-.11303-.282571-.33909-.226057-.56514m-7.798965 2.20405c.226057 0 .3956-.16954.3956-.3956 0-.22605-.169543-.3956-.3956-.3956s-.3956.16955-.3956.3956c0 .22606.169543.3956.3956.3956m2.486627 0c.226057 0 .395599-.16954.395599-.3956 0-.22605-.169542-.3956-.395599-.3956-.226057 0-.3956.16955-.3956.3956 0 .22606.169543.3956.3956.3956m2.712683 0c.226057 0 .3956-.16954.3956-.3956 0-.22605-.169543-.3956-.3956-.3956s-.3956.16955-.3956.3956c0 .22606.169543.3956.3956.3956m18.875756-.84771c-.226057 0-.3956.16954-.3956.3956s.169543.3956.3956.3956.3956-.16954.3956-.3956-.169543-.3956-.3956-.3956m-2.543141 0c-.226057 0-.395599.16954-.395599.3956s.169542.3956.395599.3956c.226057 0 .3956-.16954.3956-.3956s-.169543-.3956-.3956-.3956m-2.656169 0c-.226057 0-.3956.16954-.3956.3956s.169543.3956.3956.3956.3956-.16954.3956-.3956-.169543-.3956-.3956-.3956m-7.290337-11.64193c0 .22605.169543.3956.3956.3956s.395599-.16955.395599-.3956c0-.22606-.169542-.3956-.395599-.3956-.169543 0-.3956.16954-.3956.3956m0 2.54314c0 .22605.169543.3956.3956.3956s.395599-.16955.395599-.3956c0-.22606-.169542-.3956-.395599-.3956-.169543-.0565-.3956.11302-.3956.3956m0 2.65617c0 .22605.169543.3956.3956.3956s.395599-.16955.395599-.3956c0-.22606-.169542-.3956-.395599-.3956-.169543 0-.3956.16954-.3956.3956m.847714 18.87575c0-.22606-.169543-.3956-.3956-.3956s-.3956.16954-.3956.3956.169543.3956.3956.3956.3956-.16954.3956-.3956m0-2.48663c0-.22605-.169543-.39559-.3956-.39559s-.3956.16954-.3956.39559c0 .22606.169543.3956.3956.3956s.3956-.16954.3956-.3956m0-2.71268c0-.22606-.169543-.3956-.3956-.3956s-.3956.16954-.3956.3956.169543.3956.3956.3956.3956-.16954.3956-.3956"/>
  <path fill="#b5aa1d" d="M.76293333 373.06093l1.63891297-.96074c.6216566-.3956 1.0172563-.62166 1.4693702-.84772-.4521139-.22605-.8477136-.3956-1.4693702-.7912l-1.63891297-.90422v-1.13029l3.78645407 2.26057 3.6734255-2.20405v1.13028l-1.7519414.96074c-.5086282.28257-.8477136.50863-1.2433133.67817v.0565c.4521139.22605.7911994.3956 1.2433133.67817l1.7519414 1.01725v1.13029l-3.6169113-2.26057-3.84296827 2.31708v-1.13028z"/>
  <path fill="#036d2e" d="M18.19119 388.68265h3.164797l4.295083-2.3736v1.07377l-2.034513 1.07377c-.565142.28258-1.017256.50863-1.525884.73469.508628.22606.960742.45211 1.525884.73468l2.034513 1.07377v1.07378l-4.295083-2.48663H18.19119v-.90423z"/>
  <path fill="#a02727" d="M-13.396709 390.39057l2.147541-.73469c.508628-.16954.904228-.28257 1.3563415-.3956-.4521135-.11303-.9042275-.22605-1.3563415-.3956l-2.147541-.73468v2.26057zm-.734685-2.43011l-2.317084-.7912V386.152l7.4598793 2.54314v1.13029l-7.4598793 2.54314v-1.01726l2.317084-.7912v-2.59965z"/>
  <path fill="#264560" d="M1.5179636 405.36848c-.056514.16954-.056514.45211-.056514.7912 0 1.01726.3390855 1.92148 1.4693702 1.92148 1.0172564 0 1.412856-.84771 1.412856-1.92148v-.7912H1.5179639zm3.560397 0v.84771c0 1.01726.5086282 1.5824 1.2433133 1.5824.8477136 0 1.186799-.67817 1.186799-1.63891 0-.45211-.056514-.67817-.056514-.84771H5.0783608zm3.051769-.96074c.1130284.3956.1695427 1.07377.1695427 1.75194 0 .96074-.1695427 1.5824-.5651424 2.03451-.2825712.3956-.7346851.62166-1.2998275.62166-.7346851 0-1.3563418-.45212-1.638913-1.24331-.1695427.67817-.7346851 1.52588-1.8649699 1.52588-.6216566 0-1.1302847-.28257-1.4693702-.62166-.4521139-.50862-.67817084-1.35634-.67817084-2.54314 0-.67817.0565142-1.1868.11302847-1.46937H8.1301296z"/>
  <path fill="#a7a8a8" d="M-23.927171 253.20943c2.486626 0 4.521139 2.03451 4.521139 4.52114 0 2.48662-2.034513 4.52114-4.521139 4.52114-2.486627 0-4.52114-2.03452-4.52114-4.52114-.05651-2.48663 1.977999-4.52114 4.52114-4.52114"/>
</svg>
