<svg xmlns="http://www.w3.org/2000/svg" viewBox="0 0 304.59518 199.99999">
  <path fill="#cdcdcd" d="M0 100C0 44.78483 44.784829 0 100 0c55.21517 0 100 44.78483 100 100s-44.78483 100-100 100C44.784829 200 0 155.21517 0 100zm100-14.80671c-8.315098 0-15.025529 6.63749-15.025529 14.87965S91.684902 114.95259 100 114.95259c8.3151 0 15.02553-6.63749 15.02553-14.87965S108.3151 85.19329 100 85.19329z"/>
  <path fill="#020202" d="M2.9905179 100C2.9905179 46.3895 46.462436 2.990518 100 2.990518c53.6105 0 97.00948 43.471922 97.00948 97.009482 0 53.6105-43.47192 97.00948-97.00948 97.00948-53.610503 0-97.0094821-43.39898-97.0094821-97.00948zM99.708242 85.26623c-8.315098 0-15.025529 6.71043-15.025529 15.02553 0 8.3151 6.710431 15.02553 15.025529 15.02553s15.025528-6.71043 15.025528-15.02553c0-8.3151-6.71043-15.02553-15.025528-15.02553z"/>
  <path fill="#030303" d="M138.0744 100v83.07805c-11.59738 5.32458-24.50766 8.31509-38.0744 8.31509-13.56674 0-26.477024-2.99051-38.074398-8.31509V100c0 21.00656 17.067833 38.0744 38.074398 38.0744 21.00656 0 38.0744-17.06784 38.0744-38.0744z"/>
  <path fill="#fff" d="M90.59081 167.39606c.364697-.14588.656455-.29176.875273-.3647.218819-.0729.510576-.14587.875274-.21881.364697-.0729.583515-.0729.948213-.0729.364697 0 .729394.14588 1.021152.21881.218818.0729.437637.3647.583516.51058.145879.14588.218818.29176.218818.51058v.29175c0 .0729-.07294.14588-.145879.21882-.07294.0729-.145879.21882-.218818.29176-.07294.0729-.145879.14588-.291758.21882-.145879.0729-.291758.0729-.437637.14588-.145879.0729-.364697 0-.510576.0729-.656455.0729-1.239971.14588-1.531729.21882-.291757.0729-.510576.14588-.729394.29175-.218819.0729-.364698.21882-.510576.3647-.218819.14588-.291758.29176-.364698.43764-.07294.14588-.218818.3647-.291758.51057 0 .21882-.07294.43764-.07294.7294 0 .43764.07294.72939.291758 1.09409.145879.3647.510576.65646.875273.80233.364698.14588.875274.3647 1.531729.3647h.656455c.218818 0 .437637-.0729.802334-.14588.145879-.14588.437637-.29175.656455-.43763l.364698-.3647v.87527h1.458789c-.145879-.58351-.218819-.65645-.145879-1.09409 0-.72939-.07294-2.33406 0-3.28227v-1.02116c0-.29176-.145879-.80233-.218818-1.09409-.07294-.29176-.291758-.43764-.437637-.72939-.218819-.21882-.656455-.58352-1.021153-.65646-.437636-.0729-.656455-.14588-1.094092-.14588-.437636 0-1.021152 0-1.458789.0729-.437637.0729-.729394.14588-1.31291.3647-.364697.3647-.364697.80233-.364697 1.02115zm3.646973 5.39752c-.07294 0-.291758.21882-.364698.21882-.291758.0729-.437636.14588-.583515.21882-.218819 0-.437637.0729-.656455.0729-.364698 0-.583516-.0729-.802335-.21882-.218818-.14588-.218818-.0729-.437636-.29176-.145879-.21882-.364698-.51057-.364698-.80233v-.58352c0-.14588.07294-.29176.218819-.43764l.437637-.43763c.218818-.0729.364697-.14588.729394-.29176.145879-.0729.437637-.0729.802334-.14588.218819 0 .583516 0 .729395-.0729.145879 0 .291758 0 .364697-.0729.07294-.0729.218818-.0729.291758-.14588.07294-.0729.145879-.0729.364697-.29175v1.60466s0 .65646-.291758 1.02116c-.145879.43763-.437636.65645-.437636.65645zm23.997087-5.5434c.36469-.14588.58351-.29176.87527-.36469.21882-.0729.51057-.14588.87527-.21882.3647-.0729.58352-.0729.94822-.0729.36469 0 .80233.14588 1.02115.21882.29176.0729.43763.36469.58351.51057.14588.14588.14588.3647.21882.58352v.29176c0 .0729-.0729.0729-.14588.14587-.0729.0729-.14588.21882-.21882.29176-.0729.0729-.14587.14588-.29175.21882-.0729.0729-.21882.0729-.3647.14588-.14588.0729-.3647 0-.51058.0729-.72939.0729-1.23997.14588-1.53173.21882-.29175.0729-.51057.14588-.72939.29176-.21882.0729-.3647.21881-.51058.36469-.21881.14588-.29175.29176-.36469.43764-.0729.14588-.14588.3647-.21882.58351-.0729.21882-.14588.43764-.14588.7294 0 .43764.0729.72939.29176 1.09409.21882.3647.51057.65646.87527.80234.43764.14587.87527.36469 1.53173.36469h.58351c.21882 0 .43764-.0729.80234-.14588.14588-.14588.43764-.29175.65645-.43763.29176-.21882.43764-.3647.43764-.3647v.87527h1.45879c-.14588-.58351-.21882-.65645-.21882-1.09409v-4.23049c0-.29176-.14588-.80233-.21882-1.09409-.0729-.29176-.29175-.51058-.43763-.72939-.14588-.21882-.65646-.58352-1.02116-.65646-.36469-.0729-.65645-.21882-1.09409-.21882-.43763 0-1.02115.0729-1.45879.0729-.43763.0729-.72939.14588-1.31291.29176-.36469.43764-.36469.80233-.36469 1.02115zm3.64697 5.47046c-.0729 0-.29176.21882-.3647.21882-.21882.0729-.43764.14588-.58351.21882-.21882 0-.43764.0729-.65646.0729-.3647 0-.65646-.0729-.87527-.21882-.21882-.14588-.21882-.0729-.3647-.29176-.14588-.21882-.43764-.51057-.43764-.80233v-.58352c.0729-.14588.0729-.29176.21882-.3647.14588-.14587.29176-.29175.51058-.43763.14588-.0729.36469-.14588.72939-.29176.14588-.0729.43764-.0729.80234-.14588.14587 0 .58351 0 .72939-.0729.0729 0 .21882-.0729.3647-.0729.14588-.0729.21882-.0729.36469-.14588.0729-.0729.14588-.0729.29176-.29175v1.60466s0 .65646-.29176 1.02116c-.21881.36469-.43763.58351-.43763.58351zm-24.215903 1.23997l.145879-.58351v-1.60467l-.07294-4.59519c0-.43763-.218819-.87527-.218819-1.09409.218819 0 .729395-.0729.948213-.14588.145879-.0729.437637-.0729.583516-.0729v1.02116c.145879-.29176.437637-.3647.583516-.51058.07294-.14588.218818-.14588.437638-.3647.21882-.14588.3647-.14588.58352-.21882.36469 0 .58351-.0729.87527-.0729.21882 0 .43764 0 .58351.0729.21882 0 .43764.14588.58352.21882.14588.0729.3647.21882.43764.29176.14588.14588.29175.21882.43763.43764 0 .0729.3647-.3647.80234-.58352.43763-.21882.94821-.43764 1.45879-.43764.36469 0 1.09409 0 1.45879.14588.36469.14588.80233.29176 1.02115.51058.21882.21882.29176.3647.43764.51058.21881.21881.29175.87527.29175 1.09409v4.88694c0 .3647.0729.43764.14588.80233h-1.53173c.21882-.65645.14588-.43763.14588-.80233v-4.52225c0-.29175-.0729-.65645-.14588-.87527-.0729-.14588-.36469-.51058-.51057-.65645-.14588-.14588-.3647-.14588-.51058-.21882-.14588-.0729-.51058-.0729-.72939-.0729-.14588 0-.43764 0-.58352.0729-.14588.0729-.29176.0729-.43764.21882-.14588.0729-.29175.14587-.43763.29175-.0729.14588-.21882.29176-.29176.51058-.0729.14588-.0729.51058-.0729.80233v4.52225l.21882.72939h-1.67761c0-.65645.0729-.0729.0729-.80233v-4.59519c0-.29175-.0729-.36469-.0729-.58351-.0729-.14588-.14588-.43764-.29176-.58352-.14588-.14588-.43763-.43763-.65645-.51057-.14588-.0729-.43764-.14588-.65646-.14588-.29176 0-.43763 0-.65645.14588-.21882.0729-.43764.14588-.583519.36469-.145879.14588-.291758.21882-.437637.43764-.07294.29176-.218819.21882-.218819.65646-.07294.43763-.07294 2.0423-.07294 3.13639v1.75055c0 .3647.145879.43764.145879.80233h-.802334c0 .21882-.437637.21882-.729395.21882zm19.183083-1.45879c0 .0729 0 .29176-.0729.51058 0 .21882-.0729.43764-.14588.65645-.3647.0729-.7294.21882-1.02116.21882-.29175 0-1.16703.0729-1.45878.0729-.51058 0-1.0941-.0729-1.53173-.21882-.43764-.14587-1.02116-.51057-1.38585-.87527-.3647-.3647-.7294-.72939-.94822-1.23997-.14588-.51058-.29175-1.02115-.29175-1.60467 0-.80233.0729-1.09409.29175-1.82348.21882-.7294.80234-1.23998 1.31291-1.67761.51058-.43764 1.75055-.7294 2.69876-.7294.65646 0 1.45879.0729 2.18819.29176 0 .51058.0729.7294.0729 1.02115-.43764-.14588-.94822-.36469-1.16703-.43763-.29176 0-.65646-.0729-.94822-.0729-.43763 0-1.31291.21882-1.6776.36469-.3647.14588-.58352.43764-.87528.7294-.21882.29176-.3647.72939-.43763 1.16703-.0729.43764-.14588.43764-.0729.94821 0 .58352.14587 1.16703.29175 1.60467.21882.43764.51058.94821.94822 1.16703.43763.29176.94821.51058 1.45879.51058.58351.0729 1.60466.0729 2.7717-.58352zm8.24215 1.16703l-.14587-.51057c0-.0729-.14588-.43764-.21882-.80234.94821.51058 1.89642.87528 2.55288.87528.3647 0 .72939-.14588.94821-.21882.21882-.0729.43764-.29176.58352-.43764.0729-.14588.21882-.36469.29175-.51057 0-.0729.0729-.29176 0-.3647 0-.0729-.0729-.43764-.14587-.51058l-.43764-.43763c-.14588-.0729-.51058-.29176-1.02115-.51058-.43764-.21882-1.0941-.43764-1.38585-.58352-.21882-.14587-.65646-.43763-.80234-.58351-.14588-.14588-.29176-.43764-.36469-.58352-.0729-.21882 0-.51057 0-.72939 0-.3647.21881-.65646.43763-.94821.21882-.3647.51058-.51058.94822-.65646.43763-.14588.87527-.21882 1.38584-.21882.58352 0 1.16704.14588 1.89643.29176 0 .43764-.0729.72939 0 1.02115-.51058-.36469-1.09409-.51057-1.67761-.51057-.29175 0-.58351.0729-.87527.14588-.29176.0729-.51058.36469-.65646.51057-.0729.14588-.14587.29176-.14587.51058 0 .14588 0 .36469.0729.43763 0 .0729.36469.43764.51057.51058.21882.0729.14588.0729.3647.14588.21882 0 .80233.3647 1.31291.58352.58351.29175 1.09409.58351 1.23997.80233.14588.14588.3647.43764.51058.80233.0729.21882.14587.43764.14587.58352 0 .29176-.0729.3647-.0729.51058 0 .36469-.0729.51057-.29176.80233-.21882.3647-.58352.65645-1.02115.80233-.43764.14588-.87528.29176-1.38585.29176h-1.02116c-.29175 0-.58351-.14588-.80233-.14588-.29176-.29176-.43764-.29176-.7294-.3647zm9.84683-.65645c-.0729.29176-.14588.43764-.14588.87527-.36469.0729-.43763.14588-.65645.14588h-.51058c-.43764 0-.80233 0-1.02115-.14588-.29176-.14588-.43764-.29175-.58352-.58351-.14588-.29176-.29175-.94822-.29175-1.38585v-5.03282h-.94822v-.7294h.94822v-1.38585c0-.21882-.14588-.43764-.21882-.58351.43763-.0729 1.16703-.29176 1.45879-.3647 0 .80233.0729 1.89642.0729 2.33406h2.0423v.80233l-.58352-.0729h-1.45878v4.814c0 .43764.0729.94821.14587 1.09409.0729.21882.21882.29176.3647.3647.14588.0729.3647.0729.51058.0729h.43763c0-.0729.0729-.14588.43764-.21882zm-51.422318-4.30343h4.230489v-.43764c0-.14587-.07294-.36469-.218819-.51057-.07294-.21882-.291758-.3647-.437636-.43764-.145879-.14588-.364698-.29176-.583516-.3647-.218819-.0729-.510576-.0729-.802334-.0729-.291758 0-.510576.0729-.729395.14587-.291758.0729-.437637.21882-.656455.3647-.218818.14588-.364697.29176-.437637.51058-.145879.21882-.218818.43763-.291758.58351v.0729s0-.0729-.07294.14588zm5.324581 3.86579c0 .29176-.145879.65646-.145879 1.16703-.437637.14588-1.239971.43764-1.531729.43764h-1.021152c-.583516 0-1.239971-.14588-1.750547-.29176-.437637-.14588-.948213-.51057-1.312911-.94821-.364697-.43764-.729394-.87527-.875273-1.38585-.145879-.51058-.218819-1.02115-.218819-1.60467 0-.80233.07294-1.09409.364698-1.82348.291757-.65646.802334-1.16704 1.31291-1.60467.510576-.43764 1.239971-.58352 2.115244-.58352.437637 0 .948213 0 1.38585.14588.437637.14588.729395.29176 1.021152.58352.291758.29175.510577.58351.656456 1.02115.145879.43764.218818.43764.291757.94821.07294.21882.07294.58352.07294.80234h-5.762217v.58351c0 .58352.07294 1.16703.364697 1.60467.218818.43764.510576.80233.948213 1.02115.437637.21882.948213.43764 1.531728.43764.510577.21882 1.604669-.0729 2.552882-.51058zm-11.816193 1.60467c0-.14588.145879-.3647.145879-.51058 0-2.55288 0-4.52224-.07294-6.12691v-.72939l-.218818-.58352c.218818 0 .583516-.0729.729395-.0729.145879 0 .583515-.0729.802334-.0729v1.45879c.145879-.3647.218818-.29176.364697-.51058.07294-.14587.364697-.36469.510576-.51057.145879-.0729.364698-.21882.583516-.29176.218818-.0729.437637-.14588.656455-.14588h.875274c.437636.0729.729394.14588.875273.21882 0 .21882-.364697 1.09409-.364697 1.09409s-.364697 0-.656455-.14588c-.291758-.0729-.510577-.0729-.729395-.0729-.291758 0-.583516.0729-.875273.14588-.218819.0729-.437637.21882-.583516.43764-.145879.21882-.291758.43764-.364697.72939-.07294.21882-.07294 0-.07294.43764v4.88694l.145879.43764h-.802334c-.291758-.14588-.656455-.0729-.948213-.0729zm-9.919767-.87527h1.750547c.437637 0 .948213 0 1.45879-.0729.510576-.0729.875273-.21882 1.239971-.3647.364697-.14588.729394-.3647 1.094091-.65645.364698-.3647.656456-.7294.875274-1.16704.218818-.43763.364697-.94821.437637-1.45878.07294-.51058.145879-1.0941.145879-1.60467 0-.58352-.218819-1.09409-.364698-1.60467s-.437636-1.16703-.948213-1.53173c-.437636-.3647-.802334-.65645-1.31291-.80233-.437637-.14588-1.167031-.3647-1.969365-.3647-.510577 0-1.167032 0-1.45879.0729-.364697 0-.583515.0729-1.021152.0729l.07294 9.48213zm-2.042304.87527l.291757-.80233v-9.62801c0-.29176-.145879-.58352-.291757-1.09409h4.959883c.875273.0729 1.094092.0729 1.677607.29175.437637.0729 1.312911.58352 1.677608.87528.364697.29176.802334.58351 1.094092 1.02115.291758.43764.437637.58352.656455 1.09409.291758.7294.437637 1.45879.437637 2.11525.07294.94821 0 1.6776-.291758 2.55288-.291758.87527-.948213 1.53173-1.458789 2.11524-.583516.58352-1.239971.94821-1.969366 1.16703-.729394.14588-1.604668.3647-2.552881.3647h-2.188184l-2.042304-.0729z"/>
  <path fill="#cf3311" d="M101.67761 154.3399c0-.80234-.3647-.7294-.65646-.7294-.29176-.0729-.94821.0729-1.531726-.0729-.729395-.14588-1.094092-1.09409-.948213-1.60466.364697-1.38585 1.239971-1.53173 1.823489-1.53173.51057 0 1.38585.0729 2.47994 1.02115.51058.43764.80233 1.60467.80233 2.26112 0 .80234 0 1.75055-.51057 2.26113-.80234.80233-2.7717 1.53172-3.938734 1.53172-4.449307-.51057-4.303428-4.66812-4.303428-4.66812s-.364698-1.82349 1.167031-3.71991c.145879-.14588.291758-.51058.437637-.65646.145879-.14588.291758-.21882.510576-.3647.145879-.14587.364697-.21881.583516-.36469.510576-.29176 1.021152-.58352 1.531728-.7294.802335-.21882 1.531734-.29176 2.188184-.29176 1.82349.0729 3.86579 1.0941 4.88694 2.62583.14588.21881.29176.36469.43764.58351.14588.21882.29176.58352.51058 1.02115.21882.65646.14588.3647.43763 1.45879.14588.7294.29176 1.16703.29176 1.67761 0 .21882.0729.43764.0729.72939 0 .80234.14588 1.02116-.0729 1.60467-.29176 1.09409-.94821 2.11525-1.53173 2.69876-1.02115.94822-1.89642 1.23997-2.407 1.53173s-.72939.29176-1.45879.58352c-.65645.29175-1.09409.29175-2.26112.29175-1.239972 0-2.188185-.0729-2.479943-.14587-2.188184-.58352-2.917579-1.02116-3.865792-1.75055-2.407002-1.89643-2.917578-5.61634-2.917578-5.61634s-.291758-1.89643.145879-3.86579c.218818-1.02115 1.31291-2.99052 1.896426-3.71991.510576-.65646 1.677607-1.60467 2.407002-2.04231.729395-.43763 1.750547-1.02115 2.917578-1.38585.583516-.21882 1.021153-.29176 2.334068-.3647 1.53172-.0729 3.71991.3647 5.03282.7294 1.38585.43764 2.62582 1.31291 3.20933 1.96936.65646.7294 2.11525 2.84464 2.33407 3.28228.29175.43764.94821 2.7717 1.02115 3.06346.0729.29176.14588 1.31291 1.23997 1.31291.94821-.0729.65646-1.16703.65646-1.38585-.0729-.21882-.3647-1.96937-.51058-2.47994-.14588-.51058-.87527-1.82349-1.02115-2.04231-.0729-.14588-.7294-1.23997-1.38585-2.11524-.51058-.65646-.94822-1.23997-1.53173-1.60467-1.02115-.65646-2.26113-1.23997-2.26113-1.23997s-2.18818-.7294-3.35521-.87527c-1.02115-.14588-2.04231-.3647-3.79285-.21882-1.750549.14588-2.698762.58351-3.355217.87527-.656455.29176-2.115245.87527-3.209337 1.82349-1.094091.87527-.729394.43763-1.31291 1.09409-.583516.65645-.729394.80233-1.167031 1.38585-.364698.58351-1.239971 2.26112-1.531729 3.35521-.145879.43764-.364697 1.16703-.437637 1.82349-.07294.58352-.07294 1.09409-.07294 1.60467.07294.94821.07294 1.02115.07294 1.02115s.437637 1.89643.656455 2.62582c.291758.7294.583516 1.82349 2.115245 3.5011 1.531728 1.6776 2.917578 2.11524 3.501094 2.33406.510576.21882 2.334063.80233 4.668127.87527 2.7717.0729 3.42815-.58351 3.93873-.72939.51058-.21882 2.18818-.94822 3.50109-2.18819s1.75055-2.62582 1.82349-2.69876c.3647-1.09409.51058-2.7717.14588-4.4493-.21882-1.0941-.43764-2.11525-.65646-2.7717-.36469-1.16703-.87527-1.82349-1.23997-2.40701-.29176-.51057-1.31291-1.23997-1.89642-1.60466-.29176-.14588-.58352-.3647-.94822-.58352-.36469-.14588-.87527-.29176-1.53172-.43764-.58352-.14588-1.31292-.29175-1.96937-.29175-.58352-.0729-1.02115 0-1.23997 0-.291759 0-1.239972.14587-2.479943.80233-.729394.3647-1.458789.80233-2.334062 1.67761-.291758.29176-.510577.58351-.656456.87527-1.896426 2.55288-1.167031 5.39752-1.167031 5.39752s.364697 3.86579 3.719913 4.95988c1.23997.3647 2.261123.3647 3.136399.29176 1.45879-.21882 2.55288-.80233 3.28227-1.16703.7294-.3647 1.31291-1.02115 1.60467-1.75055.29176-.65645.3647-1.31291.3647-1.82348 0-.3647 0-.7294-.0729-1.16703-.21882-1.0941-.58352-2.18819-1.53173-3.06346l-.29176-.21882c-.14588-.14588-.36469-.21882-.43763-.29176-.80234-.43763-1.60467-.58351-2.7717-.65645-.43764 0-1.021156.0729-1.385854.29176-1.31291.65645-2.042304 1.82348-2.042304 3.42815.07294 1.45879 1.458789 2.26112 1.677607 2.47994-.145879-.29176 2.844641.51058 2.917581-.87527z"/>
  <path fill="#fff" d="M110.57622 192.70605h-8.53392c-.80233 0-1.31291-.21881-1.75054-.65645v.65645h-2.844641c-1.021153 0-1.750547-.43763-2.042305-1.16703-.07294.14588-.218818.3647-.364697.51058-.437637.43764-.948213.65645-1.531729.65645H90.51787v-2.62582h.656455c-.437636-.43763-.656455-1.02115-.656455-1.60466 0-.65646.218819-1.16704.656455-1.60467.437637-.43764.948213-.65646 1.531729-.65646h2.990518v.65646c.364697-.43764.948213-.65646 1.750547-.65646h2.844641v.65646c.3647-.43764.94821-.65646 1.75054-.65646h2.84464v3.06346l.80234-2.18818c.3647-.7294.94821-.87528 1.38585-.87528.65645 0 1.16703.3647 1.38585.94821l2.11524 5.5434z"/>
  <path fill="#174b9a" d="M90.955507 188.40263c0-.51058.218818-.94822.583516-1.31291.364697-.3647.802334-.58352 1.23997-.58352h2.552882v.80233h-2.334063c-.364697 0-.656455.0729-.875274.29176-.218818.21882-.291758.43764-.291758.7294 0 .29175.07294.58351.291758.72939.218819.21882.510577.29176.875274.29176h.364697c.291758 0 .583516.0729.729395.29176.145879.14588.291758.36469.291758.65645 0 .21882-.07294.43764-.291758.65646-.145879.14588-.437637.29175-.729395.29175h-2.334063v-.80233h2.334063c.145879 0 .218818 0 .218818-.0729s-.07294-.0729-.218818-.0729h-.583516c-.437636 0-.875273-.21882-1.23997-.58351-.364698-.29176-.583516-.80234-.583516-1.31291zm1.021152 0c0-.21882.07294-.43764.291758-.65646.145879-.14588.437637-.29176.729395-.29176h2.334063v.80234h-2.334063c-.145879 0-.218819 0-.218819.0729s.07294.0729.218819.0729h.583515c.437637 0 .875274.21881 1.239971.58351.364698.3647.583516.80234.583516 1.31291 0 .51058-.218818.94821-.583516 1.31291-.364697.3647-.802334.58352-1.239971.58352h-2.552881v-.80234h2.334063c.364697 0 .656455-.0729.875274-.29175.218818-.21882.291757-.43764.291757-.7294 0-.29176-.07294-.58351-.291757-.72939-.218819-.21882-.510577-.29176-.875274-.29176h-.364697c-.291758 0-.583516-.0729-.729395-.29176-.218818-.14588-.291758-.3647-.291758-.65645zm3.719913-.0729c0-1.16704.583516-1.75055 1.750547-1.75055h2.334063v.80233h-2.334063c-.656455 0-1.021153.3647-1.021153 1.02116v2.18818c0 .65645.364698 1.02115 1.021153 1.02115h2.334063v.80234h-2.334063c-1.167031 0-1.750547-.58352-1.750547-1.75055v-2.33406zm1.021152 1.02115v-1.02115c0-.51058.291758-.80234.802334-.80234h2.334063v.80234h-2.188184c-.145879 0-.218818.0729-.218818.21881h1.750547v.80234h-2.479942zm0 .14588h2.552881v.80233h-1.750547c0 .14588.07294.21882.218819.21882h2.188184v.80233h-2.334063c-.510576 0-.802334-.29175-.802334-.80233v-1.02115zm3.501096-1.16703c0-1.16704.58351-1.75055 1.75055-1.75055h2.33406v.80233h-2.33406c-.65646 0-1.02116.3647-1.02116 1.02116v2.18818c0 .65645.3647 1.02115 1.02116 1.02115h1.60466v-2.18818h-1.38585v-.80234h2.18819v3.71992h-2.33407c-1.16703 0-1.75054-.58352-1.75054-1.75055v-2.26112zm1.02115 0c0-.51058.29176-.80234.80233-.80234h2.33407v.80234h-2.18819c-.14588 0-.21881.0729-.21881.21881v1.75055c0 .14588.0729.21882.21881.21882h.3647v-.21882h-.3647v-.80233h1.16704v1.75054h-1.38585c-.51058 0-.80234-.29175-.80234-.80233v-2.11524z"/>
  <path fill="#174b9a" d="M106.49161 191.46608h2.33406l-1.60466-4.01167c-.0729-.0729-.14588-.14588-.29176-.14588s-.21882.0729-.29176.14588l-1.75055 4.81401h-.80233l1.82349-5.03283c.21881-.43763.58351-.65645 1.02115-.65645.51057 0 .80233.21882 1.02115.65645l1.89643 5.03283h-3.35522v-.80234zm0-.14588v-.43763l-.58351 1.38585h-.80234l1.67761-4.59519c0-.0729.0729-.14588.14588-.14588.0729 0 .14588.0729.14588.14588l1.38585 3.64697h-1.96937zm.51058-1.75054l-.3647.94821h.7294l-.3647-.94821z"/>
  <path fill="#32507c" d="M191.39314 100c0 36.83443-21.80889 68.63603-53.2458 83.07805V100c0 21.00656-17.06784 38.0744-38.0744 38.0744-21.006565 0-38.074399-17.06784-38.074399-38.0744v83.07805C30.561634 168.63603 8.7527352 136.90737 8.7527352 100c0-50.47411 40.9190368-91.393144 91.3931448-91.393144 50.32823 0 91.24726 40.919034 91.24726 91.393144zM100 85.04741c-8.315098 0-15.025529 6.71043-15.025529 14.95259 0 8.24216 6.710431 14.95259 15.025529 14.95259 8.3151 0 15.02553-6.71043 15.02553-14.95259 0-8.24216-6.71043-14.95259-15.02553-14.95259z"/>
  <path fill="#9f9f9f" d="M138.0744 100c0 21.00656-17.06784 38.0744-38.0744 38.0744-21.006565 0-38.074398-17.06784-38.074398-38.0744 0-21.00656 17.067833-38.0744 38.074398-38.0744 21.00656 0 38.0744 17.06784 38.0744 38.0744zM100 84.97447c-8.315098 0-15.025529 6.78337-15.025529 15.17141S91.684902 115.31729 100 115.31729c8.3151 0 15.02553-6.78337 15.02553-15.17141S108.3151 84.97447 100 84.97447z"/>
  <path fill="#181818" d="M65.426696 100c0-19.11014 15.463165-34.5733 34.573304-34.5733 19.11014 0 34.5733 15.46316 34.5733 34.5733S119.11014 134.5733 100 134.5733c-19.110139 0-34.573304-15.46316-34.573304-34.5733zM100 115.02553c8.3151 0 15.02553-6.71043 15.02553-15.02553 0-8.3151-6.71043-15.02553-15.02553-15.02553-8.315098 0-15.025529 6.71043-15.025529 15.02553 0 8.3151 6.710431 15.02553 15.025529 15.02553z"/>
  <path fill="#dedfde" d="M230.85339 194.67542V60.68563c8.6798-3.93873 19.25602-6.27279 30.56164-6.27279 11.37855 0 21.88183 2.33406 30.56163 6.27279v134.06273C283.29686 198.10357 272.72064 200 261.34209 200c-11.23268 0-21.8089-1.96937-30.4887-5.32458"/>
  <ellipse cx="261.41501" cy="69.292496" fill="#c1c3c2" rx="9.7738876" ry="8.9715538"/>
  <path fill="#56727d" d="M281.76513 142.45077h-40.62727c-3.5011 0-6.34574-2.84464-6.34574-6.34574v-31.87454c0-3.5011 2.84464-6.34573 6.34574-6.34573h40.62727c3.5011 0 6.34574 2.84463 6.34574 6.34573v31.87454c-.0729 3.5011-2.91758 6.34574-6.34574 6.34574z"/>
  <path fill="#353360" d="M241.57549 134.20861h5.1787v7.80452h-5.1787z"/>
  <path fill="#353360" d="M241.35667 134.20861h4.95989v7.51276h-4.95989z"/>
  <path fill="#56727d" d="M241.57549 134.50036h4.66813v6.71044h-4.66813z"/>
  <path fill="#353360" d="M241.86725 140.4814h1.53173v.21882h-1.53173zm2.62582 0h1.31291v.21882h-1.31291zm-2.62582-.80233h1.53173v.21881h-1.53173zm2.62582 0h1.31291v.21881h-1.31291zm-2.62582-.7294h3.86579v.21882h-3.86579zm2.62582-1.09409h1.31291v.21882h-1.31291zm.21882-.80233h1.02115v.21881h-1.02115zm.51058-.7294h.51057v.21882h-.51057z"/>
  <path fill="#56727d" stroke="#353360" stroke-width=".72939461" stroke-miterlimit="10" d="M246.09774 134.35449h-5.10576l-1.75055 3.86579h5.10576z"/>
  <path fill="#353360" d="M241.86725 133.69803h.51058v1.31291h-.51058zm1.02115 0h.51058v1.31291h-.51058zm1.02116 0h.51057v1.31291h-.51057zm1.09409 0h.51057v1.31291h-.51057z"/>
  <path fill="#4a6787" d="M236.46973 99.85412h49.81765v33.11452h-49.81765z"/>
  <path fill="#363264" d="M251.05762 124.79942h4.15755v4.15755h-4.15755zm4.15755-4.15755h4.15755v4.15755h-4.15755zm0-4.15755h4.15755v4.15755h-4.15755zm-4.15755 0h4.15755v4.15755h-4.15755zm8.3151 0h4.15755v4.15755h-4.15755zm0-4.15755h4.15755v4.15755h-4.15755zm0-4.15755h4.15755v4.15755h-4.15755zm-4.15755 0h4.15755v4.15755h-4.15755zm-4.15755 0h4.15755v4.15755h-4.15755zm0-4.15755h4.15755v4.15755h-4.15755zm0 8.3151h4.15755v4.15755h-4.15755zm-4.15755 0h4.15755v4.15755h-4.15755zm-4.15755 4.15755h4.15755v4.15755h-4.15755zm24.9453 8.3151h4.15755v4.15755h-4.15755zm-4.15755-4.15755h4.15755v4.15755h-4.15755zm0-4.15755h4.15755v4.15755h-4.15755zm4.15755 0h4.15755v4.15755h-4.15755zm-4.15755-8.3151h4.15755v4.15755h-4.15755zm4.15755 0h4.15755v4.15755h-4.15755zm0-4.15755h4.15755v4.15755h-4.15755zm0 8.3151h4.15755v4.15755h-4.15755zm4.15755 0h4.15755v4.15755h-4.15755zm4.15755 4.15755h4.15755v4.15755h-4.15755z"/>
  <path fill="#2f3338" d="M260.75857 149.23414c-.14588 0-.29176 0-.3647-.0729-.0729-.0729-.21882-.0729-.29175-.14588v-.51058c.0729.14588.21881.21882.29175.29176.14588.0729.21882.0729.3647.0729.14588 0 .29176-.0729.3647-.14588.0729-.0729.14588-.21882.14588-.3647 0-.14588 0-.21882-.0729-.29176-.0729-.0729-.14588-.14587-.21882-.14587-.0729 0-.14588-.0729-.21882-.0729-.0729 0-.14588-.0729-.21882-.0729-.0729 0-.14588-.0729-.21882-.0729-.0729-.0729-.14588-.0729-.14588-.14588-.0729-.0729-.0729-.14588-.0729-.21882 0-.0729-.0729-.21882-.0729-.29176 0-.21882.0729-.43763.21881-.58351.14588-.14588.29176-.21882.51058-.21882.14588 0 .21882 0 .3647.0729.0729 0 .21882.0729.29176.14588v.51057c-.0729-.0729-.14588-.14588-.29176-.21882-.14588-.0729-.21882-.0729-.3647-.0729-.14588 0-.21882.0729-.29176.14588-.0729.0729-.14588.21882-.14588.3647 0 .14588 0 .21882.0729.29176.0729.0729.14588.14588.21882.14588.0729 0 .14588.0729.21882.0729.0729 0 .14588.0729.21882.0729.14588.0729.29176.14588.29176.29175.0729.14588.0729.29176.0729.51058 0 .14588 0 .21882-.0729.3647 0 .14588-.0729.21882-.14588.29176l-.21882.21881c.0729-.21881-.0729-.21881-.21882-.21881zm2.33406-.0729h-1.23997v-2.99052h.29176v2.69876h.94821v.29176zm.21882 0v-2.99052h1.31291v.3647h-1.09409v.80233h1.02115v.3647h-1.02115v1.09409h1.09409v.3647h-1.31291zm1.67761 0v-2.99052h1.31291v.3647h-1.09409v.80233h1.02115v.3647h-1.02115v1.09409h1.09409v.3647h-1.31291zm2.99052-2.11525c0 .14588 0 .29176-.0729.3647 0 .14588-.0729.21882-.14588.29176-.0729.0729-.14588.14588-.29176.21882-.0729.0729-.21882.0729-.3647.0729h-.14588v1.0941h-.29175v-2.99052h.51057c.14588 0 .21882 0 .29176.0729.0729 0 .14588.0729.21882.14588.0729.0729.14588.14588.21882.29176.0729.14587.0729.29175.0729.43763zm-.29176 0c0-.0729 0-.21882-.0729-.29176-.0729-.0729-.0729-.14587-.14588-.21881-.0729-.0729-.0729-.0729-.14588-.0729h-.3647v1.23997h.21882c.14588 0 .21882 0 .29176-.0729.0729 0 .14588-.0729.14588-.14588.0729-.0729.0729-.14588.0729-.21882v-.21882zm8.09628 2.11525h-.29176v-2.62582l-.58351 1.75054h-.14588l-.58352-1.75054v2.62582h-.29176v-2.99052h.3647l.51058 1.67761.51057-1.67761h.3647v2.99052zm1.96936-2.62582c.0729.14587.14588.29175.21882.51057.0729.21882.0729.43764.0729.65646 0 .21882 0 .43763-.0729.65645-.0729.21882-.0729.3647-.21882.51058-.0729.14588-.21881.21882-.29175.29176-.14588.0729-.21882.0729-.3647.0729-.14588 0-.29176 0-.3647-.0729-.14588-.0729-.21882-.14588-.29176-.29176-.0729-.14588-.14587-.29176-.21881-.51058-.0729-.21882-.0729-.43763-.0729-.65645 0-.21882 0-.51058.0729-.65646.0729-.21882.0729-.3647.21881-.51057.0729-.14588.21882-.21882.29176-.29176.14588-.0729.21882-.0729.3647-.0729.14588 0 .29176 0 .3647.0729.14588 0 .21882.14588.29175.29176zm0 1.09409c0-.21882 0-.3647-.0729-.51058 0-.14588-.0729-.29176-.14588-.3647-.0729-.0729-.14588-.21881-.21882-.21881-.0729-.0729-.14588-.0729-.29176-.0729-.0729 0-.21882 0-.29176.0729l-.21882.21881c-.0729.0729-.0729.21882-.14588.3647 0 .14588-.0729.3647-.0729.51058 0 .36469.0729.72939.14587.87527.14588.21882.29176.29176.51058.29176.21882 0 .3647-.0729.51058-.29176.21882-.14588.29175-.43764.29175-.87527zm2.26113.0729c0 .29175-.0729.51057-.14588.72939-.0729.21882-.21882.3647-.29176.51058-.0729.0729-.21882.14588-.3647.21882-.14588 0-.29175.0729-.43763.0729h-.51058v-2.99052h.51058c.21882 0 .36469 0 .51057.0729.14588.0729.21882.0729.29176.14588.14588.14588.21882.29175.29176.51057.14588.14588.14588.3647.14588.7294zm-.29176-.0729c0-.21882 0-.43764-.0729-.58352-.0729-.14588-.14588-.29176-.21882-.3647-.0729-.0729-.14588-.14587-.21882-.14587-.0729 0-.21881-.0729-.29175-.0729h-.29176v2.33406h.21882c.14588 0 .21881 0 .36469-.0729.0729 0 .21882-.0729.29176-.14588.0729-.0729.14588-.21882.21882-.3647v-.58351zm.65646 1.53173v-2.99052h1.31291v.3647h-1.0941v.80233h1.02116v.3647h-1.02116v1.09409h1.0941v.3647h-1.31291zm-11.8162 34.28154l1.23997-3.57403h.58352l1.23997 3.57403h-.51058l-.29175-1.02115h-1.38585l-.29176 1.02115h-.58352zm2.04231-1.45879l-.58352-1.6776-.58351 1.6776h1.16703zm17.9431-2.62582c0 .14588 0 .3647-.0729.43764-.0729.14588-.14588.21882-.29176.3647l-.43764.21882c-.14588.0729-.3647.0729-.58352.0729h-1.02115v-3.57403h1.53173c.14588 0 .21882.0729.3647.14588.14588.0729.21882.14588.29176.29176.0729.14588.0729.21882.0729.3647 0 .14587-.0729.29175-.14588.43763-.0729.14588-.21882.21882-.3647.29176.21882.0729.3647.14588.51058.29176.14587.14588.14587.43763.14587.65645zm-.65645-1.60467c0-.0729 0-.14587-.0729-.21881 0-.0729-.0729-.14588-.14588-.14588-.0729-.0729-.14588-.0729-.29176-.0729h-.80233v1.02115h.87527c.0729 0 .14588-.0729.21882-.0729.0729-.0729.14588-.0729.14588-.21882 0-.0729.0729-.14588.0729-.29176zm.14588 1.67761c0-.14588 0-.21882-.0729-.3647l-.21882-.21881c-.0729-.0729-.14588-.0729-.21882-.0729h-.87527v1.31291h.87527c.14588 0 .21882-.0729.29176-.14588l.21882-.21882v-.29176z"/>
  <path fill="#a7a8a8" d="M290.51787 97.88476h-58.20569c7.43983-.94822 17.72429-1.53173 29.10285-1.53173 11.37855 0 21.66302.58351 29.10284 1.53173zm0 44.56601h-58.20569c7.43983.94821 17.72429 1.53172 29.10285 1.53172 11.37855 0 21.66302-.58351 29.10284-1.53172z"/>
  <circle cx="270.4595" cy="171.33479" r="6.1269145" fill="#c1c3c2"/>
  <circle cx="270.4595" cy="171.33479" r="5.1787014" fill="#646fa4"/>
  <circle cx="264.33261" cy="157.33041" r="3.8657916" fill="#c1c3c2"/>
  <circle cx="264.33261" cy="157.33041" r="2.9905179" fill="#646fa4"/>
  <path fill="#c1c3c2" d="M282.12983 161.19621h-5.10576c-2.18818 0-3.86579-1.75055-3.86579-3.86579 0-2.18819 1.75055-3.8658 3.86579-3.8658h5.10576"/>
  <circle cx="277.02405" cy="157.33041" r="2.9905179" fill="#646fa4"/>
  <path fill="#a7a8a8" d="M229.83224 61.48796h1.09409v131.80161h-1.09409zm62.14442 14.36908v.80233h.0729c-8.6798-4.4493-19.25602-7.221-30.56164-7.221-11.37855 0-21.88183 2.7717-30.56163 7.221v-.80233c8.6798-4.44931 19.25602-7.22101 30.56163-7.22101 11.30562 0 21.88184 2.7717 30.4887 7.22101m-71.99125 0h9.84683v.80233h-9.84683z"/>
  <path fill="#dedfde" d="M219.76659 75.85704h10.06565V62.80088c0-1.16704-.94821-2.11525-2.11525-2.11525-4.37636 0-7.9504 3.57403-7.9504 7.9504v7.22101zm2.55288 115.24435l7.43983 2.62582V76.65937h-10.06565v111.8162c.0729 1.38585 1.16704 2.11524 2.62582 2.62582z"/>
  <path fill="#dedfde" d="M219.76659 171.33479v12.32677c-.80233 0-1.45879-2.7717-1.45879-6.19985 0-3.35522.65646-6.12692 1.45879-6.12692z"/>
  <path fill="#a7a8a8" d="M291.97666 61.48796h1.09409v131.80161h-1.09409zm1.09409 14.36908h9.84683v.80233h-9.84683z"/>
  <path fill="#dedfde" d="M303.1364 75.85704h-10.06565V62.80088c0-1.16704.94821-2.11525 2.11525-2.11525 4.37636 0 7.9504 3.57403 7.9504 7.9504v7.22101zm-2.62582 115.17141l-7.43983 2.62582V76.58643h10.06565v111.8162c0 1.45879-1.16703 2.18818-2.62582 2.62582zm2.62582-19.7666v12.32677c.80233 0 1.45879-2.7717 1.45879-6.19985-.0729-3.35522-.65646-6.12692-1.45879-6.12692z"/>
  <circle cx="287.89206" cy="167.54195" r="6.1269145" fill="#c1c3c2"/>
  <circle cx="287.89206" cy="167.54195" r="5.1787014" fill="#646fa4"/>
  <path fill="#c1c3c2" d="M230.26988 163.74909c0 7.51276 5.25164 13.56674 12.61852 13.56674 7.36689 0 13.93144-7.9504 13.93144-15.46317 0-7.51276-4.15755-11.59737-11.52444-11.59737-7.36688 0-15.02552 6.05397-15.02552 13.4938z"/>
  <circle cx="242.23195" cy="165.35376" r="11.962071" fill="#a7a8a8"/>
  <circle cx="241.9402" cy="165.35376" r="11.159738" fill="#646fa4"/>
  <g fill="none" stroke="#a7a8a8" stroke-miterlimit="10" transform="scale(0.7293946,0.7293946)">
    <circle cx="331.70001" cy="226.7" r="1.2"/>
    <path d="M326.1 212.5v4.9c0 1.9-1.6 3.5-3.5 3.5h-5m-.1 11.5h4.9c1.9 0 3.5 1.6 3.5 3.5v5m11.5 0V236c0-1.9 1.6-3.5 3.5-3.5h5m.1-11.5h-4.9c-1.9 0-3.5-1.6-3.5-3.5v-5"/>
  </g>
  <path fill="#2f3338" d="M262.21736 86.72502c.21882-.0729.3647-.14588.51058-.21882.14587-.0729.29175-.0729.43763-.14588.21882-.0729.29176-.0729.51058-.0729.21882 0 .43764.0729.58351.0729.14588.0729.21882.21882.29176.29176.0729.0729.0729.14588.0729.29176v.14588c0 .0729-.0729.0729-.0729.14587-.0729.0729-.0729.14588-.14588.14588l-.14588.14588c-.0729.0729-.14587.0729-.21881.0729-.0729.0729-.21882 0-.29176.0729-.3647.0729-.65646.0729-.80234.14588-.14587.0729-.29175.0729-.36469.14588-.14588.0729-.21882.14588-.29176.21882-.14588.0729-.14588.14588-.21882.29176-.0729.0729-.14588.21881-.14588.29175 0 .14588-.0729.29176-.0729.3647 0 .21882 0 .43764.14588.58352.0729.21881.29176.36469.51058.43763.21882.0729.43763.21882.80233.21882h.3647c.14588 0 .21882-.0729.43764-.0729.0729-.0729.21881-.14588.36469-.29176l.21882-.21881v.43763h.80234c-.0729-.36469-.14588-.36469-.0729-.58351 0-.43764-.0729-1.31291 0-1.75055v-.58352c0-.14588-.0729-.43763-.14588-.58351-.0729-.14588-.14588-.21882-.21882-.43764-.14588-.14588-.3647-.29176-.58352-.3647-.21882-.0729-.36469-.0729-.58351-.0729h-.80234c-.21882.0729-.43763.0729-.72939.21882-.14588.29176-.14588.51058-.14588.65646zm2.0423 2.91758s-.14587.0729-.21881.14588c-.14588.0729-.21882.0729-.3647.14587h-.3647c-.21882 0-.3647-.0729-.43764-.14587-.14587-.0729-.14587-.0729-.21881-.14588-.0729-.0729-.21882-.29176-.21882-.43764v-.29176c0-.0729.0729-.14588.14588-.21882.0729-.0729.14588-.14588.29175-.21881.14588-.0729.21882-.0729.3647-.14588.0729-.0729.21882-.0729.43764-.0729.0729 0 .3647 0 .43764-.0729.0729 0 .14587 0 .21881-.0729.0729 0 .14588-.0729.14588-.0729s.0729-.0729.21882-.14588v.87527s0 .3647-.14588.58352l-.29176.29176zm12.98323-2.99052c.21882-.0729.3647-.14588.43764-.21882.14587-.0729.29175-.0729.43763-.0729.21882 0 .3647-.0729.51058-.0729.21882 0 .43763.0729.58351.14588.14588.0729.21882.21882.3647.29176.0729.0729.0729.14588.14588.3647v.14587c0 .0729-.0729.0729-.0729.0729-.0729.0729-.0729.14588-.14588.14588-.0729 0-.0729.0729-.14588.14588-.0729 0-.14588.0729-.21882.0729-.0729.0729-.21881 0-.29175.0729-.3647.0729-.65646.0729-.80234.14588-.14588.0729-.29176.0729-.43763.14588-.14588.0729-.21882.14588-.29176.21882-.14588.0729-.14588.14588-.21882.21882-.0729.0729-.0729.21881-.14588.29175 0 .14588-.0729.29176-.0729.3647 0 .21882.0729.43764.14588.58352.0729.21881.29176.36469.51058.43763.21881.0729.51057.21882.87527.21882h.3647c.14588 0 .21882-.0729.43763-.0729.0729-.0729.21882-.14588.3647-.29176l.21882-.21881v.43763h.80233c-.0729-.36469-.0729-.36469-.0729-.58351v-2.33407c0-.14588-.0729-.43763-.14587-.58351-.0729-.14588-.14588-.29176-.29176-.43764-.0729-.14588-.3647-.29176-.58352-.3647-.21882-.0729-.3647-.0729-.58351-.0729-.21882 0-.58352 0-.80234.0729-.21882.0729-.43763.0729-.72939.14588-.14588.29176-.0729.43764-.14588.58352zm2.0423 2.99052c-.0729 0-.14588.14588-.21882.14588-.14587 0-.21881.0729-.29175.14587h-.3647c-.21882 0-.3647-.0729-.43764-.14587-.14588-.0729-.14588 0-.21882-.14588-.0729-.14588-.21881-.29176-.21881-.43764v-.29176c0-.0729.0729-.14588.14588-.21882.0729-.0729.14587-.14588.29175-.21881.0729-.0729.21882-.0729.3647-.14588.0729 0 .21882-.0729.43764-.0729.0729 0 .36469 0 .43763-.0729.0729 0 .14588 0 .21882-.0729.0729 0 .14588-.0729.21882-.0729l.14588-.14588v.87527s0 .3647-.14588.58352c-.21882.14588-.3647.29176-.3647.29176zm-13.20204.65645l.0729-.29176v-.87527l-.0729-2.47994c0-.21882-.14588-.51058-.14588-.58352.14588 0 .43764-.0729.51058-.0729h.29176v.58352c.0729-.14588.21881-.21882.29175-.29176.0729-.0729.14588-.0729.29176-.21882.14588-.0729.21882-.0729.3647-.14588h.51058c.14587 0 .21881 0 .36469.0729.14588 0 .21882.0729.29176.14588.0729.0729.21882.14588.21882.14588l.21882.21882c0 .0729.21882-.21882.43763-.3647.21882-.14588.51058-.21882.80234-.21882.21882 0 .58351 0 .80233.0729.21882.0729.43764.14588.58352.29176.14588.14588.14588.21882.21882.29176.14588.14588.14588.43764.14588.58351v2.69877c0 .21881.0729.21881.0729.43763h-.87527c.0729-.3647.0729-.21882.0729-.43763v-2.40701c0-.14588-.0729-.36469-.0729-.43763-.0729-.0729-.21882-.29176-.29176-.3647-.0729-.0729-.21882-.0729-.29175-.14588-.0729-.0729-.29176-.0729-.43764-.0729-.0729 0-.21882 0-.3647.0729-.0729 0-.14588.0729-.21882.0729-.0729.0729-.14588.0729-.21882.14588-.0729.0729-.14587.14588-.14587.29176-.0729.0729-.0729.29175-.0729.43763v2.47994l.14588.43764h-.87528c0-.3647.0729-.0729.0729-.43764v-2.55288c0-.14588 0-.21882-.0729-.29175 0-.0729-.0729-.21882-.14588-.29176-.0729-.0729-.21882-.21882-.36469-.29176-.0729-.0729-.21882-.0729-.3647-.0729-.14588 0-.21882 0-.3647.0729-.14588.0729-.21882.0729-.29176.21882l-.21882.21882c-.0729.14588-.14587.14588-.14587.36469-.0729.21882-.0729 1.0941-.0729 1.67761v.94821c0 .21882.0729.29176.0729.43764h-.43764c.0729-.0729-.14588-.0729-.29176-.0729zm10.43034-.80233v.29176c0 .14587-.0729.21881-.0729.36469-.21881.0729-.36469.14588-.58351.14588h-.80234c-.29175 0-.58351-.0729-.87527-.14588-.21882-.0729-.58351-.29175-.72939-.43763-.21882-.21882-.43764-.3647-.51058-.65646-.0729-.29176-.14588-.58351-.14588-.87527 0-.43764.0729-.58352.14588-.94822.14588-.36469.43764-.65645.72939-.87527.29176-.21882.94822-.43764 1.45879-.43764.3647 0 .80234.0729 1.16704.14588 0 .29176.0729.43764.0729.58352-.29175-.0729-.51057-.21882-.65645-.21882s-.3647-.0729-.51058-.0729c-.21881 0-.72939.14588-.87527.21882-.21882.0729-.3647.21882-.43764.43764-.14588.14587-.21882.43763-.29175.65645-.0729.21882-.0729.29176-.0729.51058 0 .36469.0729.65645.14587.87527.0729.21882.29176.51058.51058.65646.21882.14588.51058.29175.80234.29175.36469-.14587.94821-.14587 1.53172-.51057zm4.52225.65645l-.0729-.29175c0-.0729-.0729-.21882-.14588-.43764.51058.29176 1.02115.51057 1.38585.51057.21882 0 .3647-.0729.51058-.14587.14588-.0729.29176-.14588.3647-.29176.0729-.0729.14587-.21882.14587-.29176v-.21882c0-.0729-.0729-.21882-.0729-.29176l-.29175-.29175c-.0729-.0729-.29176-.14588-.58352-.29176-.29176-.0729-.58351-.21882-.72939-.3647-.14588-.0729-.3647-.21882-.43764-.3647-.0729-.14588-.14588-.21882-.21882-.36469v-.43764c0-.21882.14588-.3647.21882-.51058.0729-.21882.29176-.29175.51058-.36469.21881-.0729.51057-.14588.80233-.14588.3647 0 .65646.0729 1.02115.14588 0 .21881-.0729.36469 0 .58351-.29176-.21882-.58351-.29176-.94821-.29176-.14588 0-.3647 0-.51058.0729s-.29175.21882-.36469.29176c-.0729.0729-.0729.14588-.0729.29176 0 .0729 0 .21882.0729.29176 0 .0729.21881.21881.29175.29175.14588.0729.0729.0729.21882.0729.14588 0 .43764.21882.7294.29176.29175.14588.58351.3647.65645.43764.0729.0729.21882.21882.29176.43764.0729.14587.0729.21881.0729.36469s-.0729.21882-.0729.29176c0 .21882 0 .29176-.14588.43764-.0729.21882-.29176.36469-.58351.43763-.21882.0729-.51058.14588-.80234.14588h-.58351c-.14588 0-.29176-.0729-.43764-.0729 0 .14588-.0729.14588-.21882.0729zm5.32458-.36469c0 .14587-.0729.21881-.0729.43763-.21882.0729-.29176.0729-.3647.0729h-.29175c-.21882 0-.43764 0-.58352-.0729-.14588-.0729-.29176-.14588-.3647-.29176-.0729-.14587-.14588-.51057-.14588-.80233v-2.69876h-.51057v-.3647h.51057v-.72939c0-.14588-.0729-.29176-.14587-.3647.29175-.0729.65645-.14588.80233-.21882 0 .43764.0729 1.02116.0729 1.31291h1.09409v.43764l-.29176-.0729h-.80233v2.62582c0 .21882 0 .51058.0729.58352 0 .14588.0729.14588.21882.21882.0729.0729.21882.0729.29175.0729h.21882c.0729-.0729.14588-.0729.29176-.14587zm-27.93581-2.33407h2.33406v-.21882c0-.0729-.0729-.21881-.14588-.29175-.0729-.14588-.14588-.21882-.21882-.29176-.0729-.0729-.21882-.14588-.29175-.21882-.14588-.0729-.29176-.0729-.43764-.0729-.14588 0-.29176.0729-.43764.0729-.14588.0729-.29176.14588-.3647.21882-.14587.0729-.21881.14588-.29175.29176-.0729.14588-.14588.21881-.14588.36469v.14588zm2.84464 2.11525c0 .14588-.0729.36469-.0729.65645-.29176.0729-.65646.21882-.87528.29176h-.58351c-.3647 0-.65646-.0729-.94822-.14588-.29175-.0729-.51057-.29176-.72939-.51057-.21882-.21882-.3647-.43764-.51058-.7294-.0729-.29176-.14587-.58352-.14587-.87527 0-.43764.0729-.58352.21881-1.02116.14588-.36469.43764-.65645.7294-.87527.29176-.21882.65645-.29176 1.16703-.29176.21882 0 .51058 0 .72939.0729.21882.0729.43764.14588.58352.29176.14588.14588.29176.3647.3647.58352.0729.21881.14588.21881.14588.51057v.43764h-3.1364v.29176c0 .29175.0729.65645.21882.87527.14588.29176.29176.43764.51057.58352.21882.14588.51058.29175.80234.29175.43763-.0729 1.02115-.21881 1.53173-.43763zm-6.41868.87527c0-.0729.0729-.21882.0729-.29176 0-1.38585 0-2.47994-.0729-3.35521v-.3647l-.14587-.29176c.14587 0 .29175 0 .43763-.0729.0729 0 .3647-.0729.43764-.0729v.80234c.0729-.21882.14588-.14588.21882-.29176l.29175-.29176c.0729-.0729.21882-.14588.29176-.14588.14588 0 .21882-.0729.3647-.0729h.43764c.29175 0 .43763.0729.43763.14588 0 .14588-.21881.58352-.21881.58352s-.21882 0-.3647-.0729c-.14588-.0729-.29176-.0729-.43764-.0729-.14588 0-.3647.0729-.43764.0729-.14587.0729-.21881.14588-.36469.21882-.0729.14588-.14588.21882-.21882.43763-.0729.14588-.0729 0-.0729.21882v2.62582l.0729.21882h-.43764c.0729 0-.14588.0729-.29176.0729zm-5.39752-.51058h.94822c.21882 0 .51057 0 .80233-.0729s.43764-.14588.65646-.21882c.21881-.0729.43763-.21882.58351-.3647.21882-.21882.3647-.43764.51058-.65646.0729-.21881.21882-.51057.21882-.80233.0729-.29176.0729-.58352.0729-.87527 0-.3647-.14588-.58352-.21882-.87528-.0729-.29175-.29176-.65645-.51058-.87527-.29176-.21882-.43764-.3647-.72939-.43764-.29176-.0729-.65646-.21882-1.0941-.21882-.29175 0-.65645 0-.80233.0729-.21882 0-.3647.0729-.58351.0729l.14587 5.25164zm-1.09409.51058l.14588-.43764v-5.25164c0-.14588-.0729-.29176-.14588-.58351h2.7717c.43764 0 .58352.0729.94821.14588.21882.0729.7294.29175.94822.43763.21882.14588.43763.29176.58351.58352.14588.21882.21882.29176.3647.58351.14588.3647.21882.80234.21882 1.16704.0729.51057 0 .94821-.14588 1.38585-.14588.51057-.51058.80233-.80233 1.16703-.29176.36469-.65646.51057-1.0941.65645-.43763.0729-.87527.21882-1.38585.21882h-1.31291l-1.09409-.0729zm-6.27279-2.0423c0-.3647-.14588-.29176-.29176-.3647-.14588 0-.43764.0729-.65645 0-.29176-.0729-.51058-.51058-.43764-.7294.14588-.58351.58351-.65645.80233-.65645.21882 0 .58352 0 1.09409.43764.21882.21881.3647.72939.3647 1.02115 0 .3647 0 .72939-.21882 1.02115-.36469.3647-1.23997.65646-1.75054.65646-1.96937-.21882-1.89643-2.11525-1.89643-2.11525s-.14588-.80233.51058-1.67761c.0729-.0729.14588-.21881.21882-.29175.0729-.0729.14587-.0729.21881-.14588.0729-.0729.14588-.0729.21882-.14588.21882-.14588.43764-.21882.65646-.29176.36469-.0729.65645-.14588.94821-.14588.80233 0 1.67761.43764 2.18818 1.16703l.21882.21882c.0729.0729.14588.29176.21882.43764.0729.29176.0729.14588.21882.65645.0729.29176.14588.51058.14588.7294v.29176c0 .36469.0729.43763 0 .72939-.14588.43764-.43764.94821-.65646 1.16703-.43763.43764-.80233.58352-1.09409.65646-.21882.14588-.3647.14588-.65645.21881-.29176.14588-.43764.14588-1.02116.14588-.51057 0-.94821 0-1.09409-.0729-.94821-.29175-1.31291-.43763-1.67761-.80233-1.09409-.80233-1.31291-2.47994-1.31291-2.47994s-.14588-.80234.0729-1.67761c.0729-.43764.58352-1.31291.87528-1.67761.21882-.29175.72939-.72939 1.09409-.87527.29176-.21882.72939-.43764 1.31291-.58352.21882-.0729.43764-.14587 1.02115-.14587.65646 0 1.67761.14587 2.18819.29175.58351.21882 1.16703.58352 1.45878.87528.29176.29175.94822 1.23997 1.02116 1.45879.14588.21881.43763 1.23997.43763 1.38585 0 .14587.0729.58351.51058.58351.43764 0 .29176-.51058.29176-.58351 0-.0729-.14588-.87528-.21882-1.0941-.0729-.21881-.3647-.80233-.43764-.87527 0-.0729-.36469-.58352-.58351-.94821-.21882-.29176-.43764-.58352-.65646-.7294-.43764-.29176-1.02115-.51057-1.02115-.51057s-.94821-.3647-1.45879-.3647c-.43764-.0729-.87527-.14588-1.67761-.0729-.80233.0729-1.23997.29176-1.45879.3647-.29175.14588-.94821.43763-1.38585.80233-.51057.3647-.36469.21882-.58351.51058-.21882.29175-.3647.36469-.51058.58351-.14588.21882-.58351 1.02116-.65645 1.45879-.0729.21882-.14588.51058-.21882.80234 0 .21881-.0729.51057 0 .72939.0729.43764 0 .43764 0 .43764s.21882.80233.29176 1.16703c.14587.29176.29175.80233.94821 1.53173.65645.72939 1.31291.94821 1.53173 1.02115.21882.0729 1.02115.3647 2.11524.3647 1.23997 0 1.53173-.21882 1.75055-.3647.21882-.0729.94821-.43764 1.53173-.94821.58351-.51058.80233-1.16703.80233-1.23997.14588-.43764.21882-1.23997.0729-1.96937-.0729-.51058-.21882-.94821-.29176-1.23997-.14588-.51058-.36469-.80233-.51057-1.02115-.14588-.21882-.58352-.58352-.87528-.7294-.14588-.0729-.21881-.14588-.43763-.21882-.14588-.0729-.43764-.14587-.65646-.21881-.21882-.0729-.58351-.14588-.87527-.14588h-.51058c-.14588 0-.51057.0729-1.09409.36469-.29176.14588-.65646.3647-1.02115.7294-.14588.14588-.21882.29176-.29176.3647-.80233 1.16703-.51058 2.407-.51058 2.407s.14588 1.67761 1.67761 2.18818c.51058.14588 1.02115.14588 1.38585.14588.65646-.0729 1.16703-.3647 1.45879-.51057.3647-.14588.58352-.43764.72939-.7294.14588-.29176.14588-.58352.14588-.80233 0-.14588 0-.3647-.0729-.51058-.0729-.51058-.29175-.94821-.65645-1.31291l-.14588-.0729c-.0729-.0729-.14588-.0729-.21882-.14588-.3647-.21882-.72939-.29176-1.23997-.29176-.21882 0-.43764.0729-.58351.14588-.58352.29176-.94822.80234-.87528 1.53173 0 .65646.65646 1.02115.7294 1.09409-.3647-.0729 1.02115.29176 1.02115-.36469z"/>
</svg>
