<?xml version="1.0" encoding="UTF-8" standalone="no"?>
<!-- Created with Inkscape (http://www.inkscape.org/) -->

<svg
   xmlns:dc="http://purl.org/dc/elements/1.1/"
   xmlns:cc="http://creativecommons.org/ns#"
   xmlns:rdf="http://www.w3.org/1999/02/22-rdf-syntax-ns#"
   xmlns:svg="http://www.w3.org/2000/svg"
   xmlns="http://www.w3.org/2000/svg"
   xmlns:sodipodi="http://sodipodi.sourceforge.net/DTD/sodipodi-0.dtd"
   xmlns:inkscape="http://www.inkscape.org/namespaces/inkscape"
   width="654.25781"
   height="376.94766"
   id="svg3786"
   version="1.1"
   inkscape:version="0.48.4 r9939"
   sodipodi:docname="Nouveau document 6">
  <defs
     id="defs3788">
    <clipPath
       clipPathUnits="userSpaceOnUse"
       id="clipPath16">
      <path
         inkscape:connector-curvature="0"
         d="M 0,792 612,792 612,0 0,0 0,792 z"
         id="path18" />
    </clipPath>
  </defs>
  <sodipodi:namedview
     id="base"
     pagecolor="#ffffff"
     bordercolor="#666666"
     borderopacity="1.0"
     inkscape:pageopacity="0.0"
     inkscape:pageshadow="2"
     inkscape:zoom="0.35"
     inkscape:cx="327.12892"
     inkscape:cy="188.47383"
     inkscape:document-units="px"
     inkscape:current-layer="layer1"
     showgrid="false"
     fit-margin-top="0"
     fit-margin-left="0"
     fit-margin-right="0"
     fit-margin-bottom="0"
     inkscape:window-width="486"
     inkscape:window-height="415"
     inkscape:window-x="51"
     inkscape:window-y="24"
     inkscape:window-maximized="0" />
  <metadata
     id="metadata3791">
    <rdf:RDF>
      <cc:Work
         rdf:about="">
        <dc:format>image/svg+xml</dc:format>
        <dc:type
           rdf:resource="http://purl.org/dc/dcmitype/StillImage" />
        <dc:title></dc:title>
      </cc:Work>
    </rdf:RDF>
  </metadata>
  <g
     inkscape:label="Calque 1"
     inkscape:groupmode="layer"
     id="layer1"
     transform="translate(-47.871083,-343.88834)">
    <g
       transform="matrix(1.25,0,0,-1.25,-11.652871,985.17522)"
       id="g12">
      <g
         id="g14"
         clip-path="url(#clipPath16)">
        <g
           id="g20"
           transform="translate(570.5806,268.5715)">
          <path
             inkscape:connector-curvature="0"
             d="m 0,0 c -0.897,-18.048 -16.502,-27.826 -32.795,-34.667 -25.978,-10.913 -44.631,-16.614 -72.538,-19.666 -64,-7 -105.334,0.666 -170.334,7.666 -16.86,1.816 -60.316,-2 -83.217,-5.333 -30.764,-4.478 -58.726,-3.925 -89.783,-4.667 -33.792,-0.796 -57.17,17.608 -64.333,52.049 -16.333,78.534 -12.667,158.413 11.633,220.609 8.764,22.432 18.91,25.335 43.366,25.342 l 202.48,3.125 1.375,0 c 68.335,0 136.224,-0.898 204.567,-0.975 20.343,-0.031 33.236,-8.549 38.322,-24.193 l 0.309,-8.17 0.239,-6.377 0.07,-1.94 0.24,-6.291 0.061,-1.732 0.232,-6.021 0.101,-2.713 0.201,-5.503 0.123,-3.169 0.178,-4.746 0.132,-3.493 C -9.31,110.353 2.898,58.758 0,0"
             style="fill:#303d59;fill-opacity:1;fill-rule:nonzero;stroke:none"
             id="path22" />
        </g>
        <g
           id="g24"
           transform="translate(480.75,282.56)">
          <path
             inkscape:connector-curvature="0"
             d="m 0,0 c -2.9,-13.69 -2.27,-16.54 -16.75,-18.16 -15.94,-1.77 -51.81,-7.38 -67.75,-8.5 -5.08,-0.35 -36.12,-5.38 -43.84,-4.58 -5.75,0.6 -2,7.83 -10,12.83 -3.92,2.46 -14.89,1.86 -22.41,2.25 -4.78,0.25 -8.28,-0.72 -10.7,-2.19 -0.41,-0.24 -0.79,-0.5 -1.14,-0.76 -2.02,-1.57 -3.06,-3.47 -3.32,-5.04 -0.26,-1.59 -6.68,-3.92 -8.59,-0.01 -1.83,3.75 -6.04,7.75 -11.67,7.67 -22.47,-0.33 -34.78,0.03 -57.25,-0.08 -5.96,-0.03 -12.51,1.34 -17.5,-3.17 -5.05,-4.57 -3.82,-9.24 -5.6,-12.58 -1.2,-2.25 -10.52,-2.74 -16.21,-1.53 -7.62,1.63 -8.99,8.19 -10.94,16.19 -7.67,31.47 -12.45,64.16 -13.33,96.13 -0.17,5.84 -0.01,16.02 -0.01,21.87 -0.15,33.56 5.46,61.52 13.51,94.26 6,24.41 6.75,26.64 31.93,26.63 85.07,0 156.98,-2.14 237.57,-12.55 19.59,-2.53 24.75,-3.69 28,-15.34 C -0.84,174.84 3.32,152.6 5.5,134.01 10.83,88.51 9.66,45.68 0,0"
             style="fill:#f5e8d1;fill-opacity:1;fill-rule:nonzero;stroke:none"
             id="path26" />
        </g>
        <g
           id="g28"
           transform="translate(68.5333,306.7496)">
          <path
             inkscape:connector-curvature="0"
             d="m 0,0 c 0,24.326 19.72,44.046 44.046,44.046 24.326,0 44.046,-19.72 44.046,-44.046 0,-24.326 -19.72,-44.046 -44.046,-44.046 C 19.72,-44.046 0,-24.326 0,0"
             style="fill:#4f6185;fill-opacity:1;fill-rule:nonzero;stroke:none"
             id="path30" />
        </g>
        <g
           id="g32"
           transform="translate(73.8217,447.9456)">
          <path
             inkscape:connector-curvature="0"
             d="m 0,0 c 0,24.326 19.72,44.046 44.046,44.046 24.326,0 44.046,-19.72 44.046,-44.046 0,-24.326 -19.72,-44.046 -44.046,-44.046 C 19.72,-44.046 0,-24.326 0,0"
             style="fill:#4f6185;fill-opacity:1;fill-rule:nonzero;stroke:none"
             id="path34" />
        </g>
        <g
           id="g36"
           transform="translate(554.8449,313.4161)">
          <path
             inkscape:connector-curvature="0"
             d="M 0,0 C 0,-3.769 0.69,-15.377 -9.321,-16.695 -13.879,-17.296 -26.45,-3.154 -26.666,0.201 -26.929,4.328 -14.029,17.213 -9.592,16.595 0.425,15.211 0,3.769 0,0"
             style="fill:#93a9b5;fill-opacity:1;fill-rule:nonzero;stroke:none"
             id="path38" />
        </g>
        <g
           id="g40"
           transform="translate(528.6658,283.7511)">
          <path
             inkscape:connector-curvature="0"
             d="m 0,0 c -1.637,-9.45 -11.527,-9.291 -17.004,-9.291 -5.478,0 -15.369,-0.454 -16.827,9.191 -0.631,4.176 12.251,17.545 17.561,17.545 C -10.502,17.445 0.706,4.076 0,0"
             style="fill:#93a9b5;fill-opacity:1;fill-rule:nonzero;stroke:none"
             id="path42" />
        </g>
        <g
           id="g44"
           transform="translate(88.8723,328.0583)">
          <path
             inkscape:connector-curvature="0"
             d="m 0,0 -4.122,5.926 c 0,0 -0.773,2.447 0,2.19 l 0.773,-0.258 c 0,0 2.576,-1.417 3.349,-2.19 0.773,-0.773 11.207,-10.112 12.818,-11.465 1.61,-1.353 7.697,-7.109 11.159,-7.15 3.8,-0.044 6.715,2.641 8.776,4.058 2.061,1.417 19.033,14.686 19.033,14.686 0,0 1.933,1.159 2.834,0.386 0.902,-0.773 -0.515,-2.962 -0.515,-2.962 0,0 -20.531,-20.032 -21.352,-22.061 -0.821,-2.029 -1.371,-4.186 0.096,-6.763 2.12,-3.724 6.137,-6.952 9.131,-9.855 0,0 10.08,-10.66 10.837,-11.562 0.757,-0.902 1.546,-2.576 0.515,-3.349 -1.03,-0.773 -8.792,5.829 -8.792,5.829 0,0 -13.145,10.306 -14.975,11.594 -1.831,1.288 -6.055,3.865 -11.208,0.386 -5.153,-3.478 -22.823,-17.876 -22.823,-17.876 0,0 -1.975,-0.711 -2.49,0 -0.516,0.711 20.289,21.773 20.289,21.773 0,0 3.053,3.232 2.963,6.699 -0.097,3.724 -0.064,4.122 -3.027,7.343 C 10.306,-11.401 0,0 0,0"
             style="fill:#354269;fill-opacity:1;fill-rule:nonzero;stroke:none"
             id="path46" />
        </g>
        <g
           id="g48"
           transform="translate(94.3511,469.2542)">
          <path
             inkscape:connector-curvature="0"
             d="m 0,0 -4.122,5.926 c 0,0 -0.773,2.447 0,2.19 l 0.773,-0.258 c 0,0 2.576,-1.417 3.349,-2.19 0.773,-0.773 11.207,-10.112 12.818,-11.465 1.61,-1.353 7.697,-7.109 11.159,-7.15 3.8,-0.044 6.715,2.641 8.776,4.058 2.061,1.417 19.033,14.686 19.033,14.686 0,0 1.933,1.159 2.834,0.386 0.902,-0.772 -0.515,-2.962 -0.515,-2.962 0,0 -20.531,-20.032 -21.352,-22.061 -0.821,-2.029 -1.371,-4.186 0.096,-6.763 2.12,-3.724 6.137,-6.952 9.131,-9.855 0,0 10.08,-10.66 10.837,-11.562 0.757,-0.902 1.546,-2.576 0.515,-3.349 -1.03,-0.773 -8.792,5.829 -8.792,5.829 0,0 -13.145,10.306 -14.975,11.594 -1.831,1.288 -6.055,3.865 -11.208,0.386 -5.153,-3.478 -22.823,-17.876 -22.823,-17.876 0,0 -1.975,-0.711 -2.49,0 -0.516,0.711 20.289,21.773 20.289,21.773 0,0 3.053,3.232 2.963,6.699 -0.097,3.724 -0.064,4.122 -3.027,7.343 C 10.306,-11.401 0,0 0,0"
             style="fill:#354269;fill-opacity:1;fill-rule:nonzero;stroke:none"
             id="path50" />
        </g>
        <g
           id="g52"
           transform="translate(237.257,247.2211)">
          <path
             inkscape:connector-curvature="0"
             d="m 0,0 -17.947,0 c -3.387,0 -6.157,2.771 -6.157,6.157 l 0,0 c 0,3.386 2.77,6.157 6.157,6.157 l 17.947,0 c 3.386,0 6.157,-2.771 6.157,-6.157 l 0,0 C 6.157,2.771 3.386,0 0,0"
             style="fill:#f5e8d1;fill-opacity:1;fill-rule:nonzero;stroke:none"
             id="path54" />
        </g>
        <g
           id="g56"
           transform="translate(284.0543,247.2211)">
          <path
             inkscape:connector-curvature="0"
             d="m 0,0 -17.947,0 c -3.387,0 -6.157,2.771 -6.157,6.157 l 0,0 c 0,3.386 2.77,6.157 6.157,6.157 l 17.947,0 c 3.386,0 6.157,-2.771 6.157,-6.157 l 0,0 C 6.157,2.771 3.386,0 0,0"
             style="fill:#f5e8d1;fill-opacity:1;fill-rule:nonzero;stroke:none"
             id="path58" />
        </g>
        <g
           id="g60"
           transform="translate(335.0543,247.2211)">
          <path
             inkscape:connector-curvature="0"
             d="m 0,0 -17.947,0 c -3.387,0 -6.157,2.771 -6.157,6.157 l 0,0 c 0,3.386 2.77,6.157 6.157,6.157 l 17.947,0 c 3.386,0 6.157,-2.771 6.157,-6.157 l 0,0 C 6.157,2.771 3.386,0 0,0"
             style="fill:#f36f40;fill-opacity:1;fill-rule:nonzero;stroke:none"
             id="path62" />
        </g>
        <g
           id="g64"
           transform="translate(118.6972,320.1271)">
          <path
             inkscape:connector-curvature="0"
             d="m 0,0 c 0,0 3.568,3.347 9.538,9.547 5.024,5.217 2.899,11.787 -0.766,13.707 -3.381,1.771 -4.259,2.211 -13.243,2.235 -10.197,0.027 -11.904,-0.438 -15.362,-2.512 -3.907,-2.344 -4.992,-8.503 -1.449,-12.561 L -11.299,0.401 C -8.396,-2.76 -3.199,-2.86 0,0"
             style="fill:#93a9b5;fill-opacity:1;fill-rule:nonzero;stroke:none"
             id="path66" />
        </g>
        <g
           id="g68"
           transform="translate(99.3291,312.5997)">
          <path
             inkscape:connector-curvature="0"
             d="m 0,0 c 0,0 -3.347,3.568 -9.547,9.538 -5.217,5.024 -11.787,2.899 -13.707,-0.766 -1.771,-3.381 -2.211,-4.259 -2.235,-13.243 -0.027,-10.197 0.438,-11.904 2.512,-15.362 2.344,-3.907 8.503,-4.992 12.561,-1.449 l 10.015,9.983 C 2.76,-8.396 2.86,-3.199 0,0"
             style="fill:#93a9b5;fill-opacity:1;fill-rule:nonzero;stroke:none"
             id="path70" />
        </g>
        <g
           id="g72"
           transform="translate(107.1142,292.7164)">
          <path
             inkscape:connector-curvature="0"
             d="m 0,0 c 0,0 -3.568,-3.347 -9.538,-9.547 -5.024,-5.217 -2.899,-11.787 0.766,-13.707 3.381,-1.771 4.259,-2.211 13.243,-2.235 10.197,-0.027 11.904,0.438 15.362,2.512 3.907,2.344 4.992,8.503 1.449,12.561 L 11.299,-0.401 C 8.396,2.76 3.199,2.86 0,0"
             style="fill:#93a9b5;fill-opacity:1;fill-rule:nonzero;stroke:none"
             id="path74" />
        </g>
        <g
           id="g76"
           transform="translate(126.4823,300.2438)">
          <path
             inkscape:connector-curvature="0"
             d="m 0,0 c 0,0 3.347,-3.568 9.547,-9.538 5.217,-5.024 11.787,-2.899 13.707,0.766 1.771,3.381 2.211,4.259 2.235,13.243 0.027,10.197 -0.438,11.904 -2.512,15.362 -2.344,3.907 -8.503,4.992 -12.561,1.449 L 0.401,11.299 C -2.76,8.396 -2.86,3.199 0,0"
             style="fill:#93a9b5;fill-opacity:1;fill-rule:nonzero;stroke:none"
             id="path78" />
        </g>
        <g
           id="g80"
           transform="translate(124.267,461.4918)">
          <path
             inkscape:connector-curvature="0"
             d="m 0,0 c 0,0 3.568,3.347 9.538,9.547 5.024,5.217 2.899,11.787 -0.766,13.707 -3.381,1.771 -4.259,2.211 -13.243,2.235 -10.197,0.027 -11.904,-0.438 -15.362,-2.512 -3.907,-2.344 -4.992,-8.503 -1.449,-12.561 L -11.299,0.401 C -8.396,-2.76 -3.199,-2.86 0,0"
             style="fill:#93a9b5;fill-opacity:1;fill-rule:nonzero;stroke:none"
             id="path82" />
        </g>
        <g
           id="g84"
           transform="translate(104.8989,453.9643)">
          <path
             inkscape:connector-curvature="0"
             d="m 0,0 c 0,0 -3.347,3.568 -9.547,9.538 -5.217,5.024 -11.787,2.899 -13.707,-0.766 -1.771,-3.381 -2.211,-4.259 -2.235,-13.243 -0.027,-10.197 0.438,-11.904 2.512,-15.362 2.344,-3.907 8.503,-4.992 12.561,-1.449 l 10.015,9.983 C 2.76,-8.396 2.86,-3.199 0,0"
             style="fill:#93a9b5;fill-opacity:1;fill-rule:nonzero;stroke:none"
             id="path86" />
        </g>
        <g
           id="g88"
           transform="translate(112.6841,434.081)">
          <path
             inkscape:connector-curvature="0"
             d="m 0,0 c 0,0 -3.568,-3.347 -9.538,-9.547 -5.024,-5.217 -2.899,-11.787 0.766,-13.707 3.381,-1.771 4.259,-2.211 13.243,-2.235 10.197,-0.027 11.904,0.438 15.362,2.512 3.907,2.344 4.992,8.503 1.449,12.561 L 11.299,-0.401 C 8.396,2.76 3.199,2.86 0,0"
             style="fill:#93a9b5;fill-opacity:1;fill-rule:nonzero;stroke:none"
             id="path90" />
        </g>
        <g
           id="g92"
           transform="translate(132.0521,441.6085)">
          <path
             inkscape:connector-curvature="0"
             d="m 0,0 c 0,0 3.347,-3.568 9.547,-9.538 5.217,-5.024 11.787,-2.899 13.707,0.766 1.771,3.381 2.211,4.259 2.235,13.243 0.027,10.197 -0.438,11.904 -2.512,15.362 -2.344,3.907 -8.503,4.992 -12.561,1.449 L 0.401,11.299 C -2.76,8.396 -2.86,3.199 0,0"
             style="fill:#93a9b5;fill-opacity:1;fill-rule:nonzero;stroke:none"
             id="path94" />
        </g>
        <g
           id="g96"
           transform="translate(560.2276,474.9999)">
          <path
             inkscape:connector-curvature="0"
             d="m 0,0 -36.629,2.381 c -1.098,0 -2.002,0.904 -2.002,2.001 0,0.549 0.224,1.052 0.587,1.407 0.364,0.363 0.866,0.588 1.415,0.588 l 36.389,0 L 0,0 z"
             style="fill:#cbcacb;fill-opacity:1;fill-rule:nonzero;stroke:none"
             id="path98" />
        </g>
        <g
           id="g100"
           transform="translate(560.5367,466.7682)">
          <path
             inkscape:connector-curvature="0"
             d="m 0,0 c -0.093,-0.046 -0.193,-0.077 -0.294,-0.077 l -36.644,2.38 c -1.098,0 -2.002,0.905 -2.002,2.002 0,0.549 0.224,1.044 0.587,1.407 0.364,0.363 0.866,0.587 1.415,0.587 l 36.582,0 c 0.039,0 0.078,0 0.116,-0.007 L 0,0 z"
             style="fill:#cbcacb;fill-opacity:1;fill-rule:nonzero;stroke:none"
             id="path102" />
        </g>
        <g
           id="g104"
           transform="translate(560.8304,459.0157)">
          <path
             inkscape:connector-curvature="0"
             d="m 0,0 c -0.185,-0.193 -0.379,-0.309 -0.587,-0.309 l -36.645,2.38 c -1.098,0 -2.002,0.897 -2.002,1.995 0,0.548 0.224,1.051 0.588,1.414 0.363,0.363 0.865,0.587 1.414,0.587 l 36.583,0 c 0.139,0 0.286,-0.015 0.417,-0.046 L 0,0 z"
             style="fill:#cbcacb;fill-opacity:1;fill-rule:nonzero;stroke:none"
             id="path106" />
        </g>
        <g
           id="g108"
           transform="translate(561.1319,450.7995)">
          <path
             inkscape:connector-curvature="0"
             d="m 0,0 c -0.263,-0.441 -0.564,-0.727 -0.889,-0.727 l -36.644,2.381 c -1.098,0 -2.002,0.904 -2.002,2.002 0,0.549 0.224,1.043 0.587,1.407 0.363,0.363 0.866,0.587 1.415,0.587 l 36.582,0 c 0.263,0 0.518,-0.054 0.75,-0.147 L 0,0 z"
             style="fill:#cbcacb;fill-opacity:1;fill-rule:nonzero;stroke:none"
             id="path110" />
        </g>
        <g
           id="g112"
           transform="translate(561.4333,442.8847)">
          <path
             inkscape:connector-curvature="0"
             d="m 0,0 c -0.325,-0.75 -0.734,-1.314 -1.19,-1.314 l -36.645,2.381 c -1.097,0 -2.002,0.904 -2.002,2.002 0,0.548 0.224,1.043 0.588,1.406 0.363,0.364 0.865,0.588 1.414,0.588 l 36.583,0 c 0.394,0 0.765,-0.116 1.074,-0.317 L 0,0 z"
             style="fill:#cbcacb;fill-opacity:1;fill-rule:nonzero;stroke:none"
             id="path114" />
        </g>
        <path
           inkscape:connector-curvature="0"
           d="m 559.344,476.738 -7.472,0 0,3.221 7.472,0 0,-3.221 z"
           style="fill:#354876;fill-opacity:1;fill-rule:nonzero;stroke:none"
           id="path116" />
        <path
           inkscape:connector-curvature="0"
           d="m 559.344,468.268 -7.472,0 0,3.221 7.472,0 0,-3.221 z"
           style="fill:#354876;fill-opacity:1;fill-rule:nonzero;stroke:none"
           id="path118" />
        <path
           inkscape:connector-curvature="0"
           d="m 559.344,460.281 -7.472,0 0,3.221 7.472,0 0,-3.221 z"
           style="fill:#354876;fill-opacity:1;fill-rule:nonzero;stroke:none"
           id="path120" />
        <path
           inkscape:connector-curvature="0"
           d="m 559.344,451.65 -7.472,0 0,3.221 7.472,0 0,-3.221 z"
           style="fill:#354876;fill-opacity:1;fill-rule:nonzero;stroke:none"
           id="path122" />
        <path
           inkscape:connector-curvature="0"
           d="m 559.344,443.148 -7.472,0 0,3.221 7.472,0 0,-3.221 z"
           style="fill:#354876;fill-opacity:1;fill-rule:nonzero;stroke:none"
           id="path124" />
        <g
           id="g126"
           transform="translate(522.9503,404.8408)">
          <path
             inkscape:connector-curvature="0"
             d="m 0,0 c 0,0 9.275,-16.489 20.611,-26.28 11.337,-9.79 14.686,-19.838 14.686,-29.371 l 0,-40.965 c 0,0 0.258,-30.724 -25.249,-39.935 -29.611,-10.693 -176.485,-22.93 -176.485,-22.93 0,0 132.686,8.502 178.031,20.611 25.686,6.86 30.239,32.774 30.531,56.167 0.222,17.903 -1.317,34.569 -2.19,38.646 -1.546,7.214 -13.14,16.489 -19.324,21.9 C 14.428,-16.747 3.607,-6.183 0,0"
             style="fill:#2d3442;fill-opacity:1;fill-rule:nonzero;stroke:none"
             id="path128" />
        </g>
        <g
           id="g130"
           transform="translate(203.5902,495.5398)">
          <path
             inkscape:connector-curvature="0"
             d="M 0,0 C 0.942,0.615 1.517,1.869 2.832,1.835 3.307,1.823 3.782,1.834 4.316,1.834 3.666,-1.043 3.04,-3.813 2.408,-6.611 c 1.466,0.544 1.43,0.585 1.897,2.135 0.466,1.546 0.854,3.11 1.218,4.683 C 5.68,0.889 6.826,1.838 7.476,1.829 8.258,1.818 9.044,1.899 9.837,1.772 9.217,-0.996 8.605,-3.725 7.954,-6.63 c 1.001,0.614 1.725,1.168 1.906,2.324 0.207,1.321 0.54,2.62 0.813,3.93 0.195,0.935 1.047,1.289 1.529,1.969 0.281,0.396 0.693,0.219 1.05,0.234 0.576,0.024 1.153,0.007 1.754,0.007 -0.634,-2.7 -1.255,-5.297 -1.849,-7.9 -0.134,-0.583 -0.079,-0.483 -0.78,-1.285 l -0.852,-0.778 c -0.551,-0.503 -1.104,-0.822 -1.887,-0.813 -3.848,0.044 -7.697,0.02 -11.546,0.02 0,0.219 1.867,8.895 1.908,8.922"
             style="fill:#aa8958;fill-opacity:1;fill-rule:nonzero;stroke:none"
             id="path132" />
        </g>
        <g
           id="g134"
           transform="translate(317.3295,487.1108)">
          <path
             inkscape:connector-curvature="0"
             d="m 0,0 -3.762,0 c 0.269,1.059 0.536,2.129 0.812,3.197 0.351,1.362 0.05,1.795 -1.26,1.797 -0.308,0.001 -0.616,0 -0.987,0 -0.308,-1.129 -0.6,-2.269 -0.933,-3.395 -0.372,-1.262 -1.168,-1.896 -2.378,-1.862 -0.692,0.018 -1.416,-0.181 -2.087,0.149 0.289,1.492 1.691,5.96 1.869,6.645 l 5.683,0 c 0.684,0 1.369,-0.032 2.05,0.008 C -0.21,6.585 0.378,6.228 0.888,5.653 0.888,4.921 0.285,1.199 0,0"
             style="fill:#aa8958;fill-opacity:1;fill-rule:nonzero;stroke:none"
             id="path136" />
        </g>
        <g
           id="g138"
           transform="translate(257.3539,492.0862)">
          <path
             inkscape:connector-curvature="0"
             d="M 0,0 C -2.754,0.067 -3.282,-0.16 -3.451,-1.44 -1.421,-1.686 -1.297,-1.637 0,0 m 3.112,-0.687 c 0.869,0.87 1.817,1.321 2.679,1.913 0.377,0.259 0.789,0.346 1.247,0.339 1.614,-0.024 3.229,-0.023 4.844,-0.002 0.524,0.007 0.976,-0.104 1.432,-0.405 0.791,-0.52 0.99,-1.135 0.469,-1.926 -0.313,-0.474 -0.735,-0.831 -1.285,-0.996 -1.015,-0.302 -2.01,-0.335 -3.004,0.048 0.036,0.195 0.043,0.265 0.062,0.332 0.113,0.407 0.633,0.749 0.194,1.245 C 9.532,0.108 8.61,0.031 8.207,-0.153 7.281,-0.574 7.009,-1.458 6.848,-2.36 6.675,-3.332 6.294,-4.233 6.156,-5.205 l -3.853,0 C 2.59,-3.757 2.868,-2.355 3.16,-0.883 2.646,-1.077 2.409,-1.465 2.125,-1.751 0.95,-2.932 -0.428,-3.238 -1.977,-3.065 c -0.606,0.068 -1.224,0.011 -1.805,0.011 -0.174,-0.301 -0.135,-0.538 -0.05,-0.846 l 4.993,0 c -0.716,-0.859 -1.46,-1.58 -2.59,-1.571 -1.511,0.011 -3.023,-0.005 -4.535,0.009 -0.294,0.002 -0.574,-0.013 -0.886,0.138 -1.008,0.488 -1.428,0.751 -1.006,2.208 0.314,1.085 0.405,2.248 1.29,3.035 0.59,0.525 1.224,0.994 1.822,1.508 0.252,0.217 0.526,0.12 0.786,0.122 1.924,0.012 3.848,0.009 5.772,0.006 C 2.861,1.553 3.083,1.31 3.111,0.15 3.116,-0.069 3.112,-0.288 3.112,-0.687"
             style="fill:#aa8958;fill-opacity:1;fill-rule:nonzero;stroke:none"
             id="path140" />
        </g>
        <g
           id="g142"
           transform="translate(266.4366,486.7109)">
          <path
             inkscape:connector-curvature="0"
             d="m 0,0 c 0.681,0.725 1.338,1.401 1.965,2.106 0.229,0.257 0.489,0.219 0.754,0.213 2.67,-0.065 5.344,0.137 8.012,-0.1 0.571,-0.05 0.813,0.274 1.043,1.419 -1.173,0 -2.33,0.082 -3.472,-0.021 C 6.977,3.498 6.08,4.316 6.181,5.895 c 0.113,1.767 0.887,3.071 2.195,4.062 0.231,0.175 0.517,0.281 0.85,0.279 2.74,-0.022 5.48,-0.013 8.393,-0.013 C 17.017,9.571 16.508,9.049 16.035,8.493 15.784,8.199 15.488,8.25 15.187,8.249 14.088,8.246 12.988,8.255 11.888,8.246 10.802,8.237 10.374,7.834 10.112,6.492 c 1.208,0 2.394,-0.013 3.578,0.004 0.8,0.012 1.465,-0.311 1.931,-0.966 C 16.087,4.875 15.983,4.037 15.862,3.322 15.627,1.943 14.953,0.805 13.71,0.161 13.412,0.006 13.109,-0.105 12.751,-0.104 8.592,-0.087 4.433,-0.093 0.274,-0.09 0.218,-0.09 0.161,-0.054 0,0"
             style="fill:#aa8958;fill-opacity:1;fill-rule:nonzero;stroke:none"
             id="path144" />
        </g>
        <g
           id="g146"
           transform="translate(291.519,488.6386)">
          <path
             inkscape:connector-curvature="0"
             d="M 0,0 C 0.93,0.457 1.577,1.109 1.819,2.259 2.117,3.68 2.618,4.005 3.269,4.761 3.655,5.208 4.171,4.947 4.627,4.996 4.96,5.032 5.3,5.003 5.654,5.003 5.508,3.42 4.956,2.03 4.801,0.549 4.726,-0.17 2.601,-1.4 2.211,-1.848 2.041,-2.043 1.848,-2.019 1.649,-2.019 -2.024,-2.02 -5.697,-2.018 -9.37,-2.013 c -0.062,0 -0.124,0.051 -0.232,0.098 0.239,1.555 0.605,3.097 0.916,4.642 0.184,0.909 1.096,1.435 1.72,2.093 0.36,0.381 0.845,0.137 1.272,0.176 0.371,0.034 0.748,0.007 1.247,0.007 -0.144,-1.796 -0.711,-3.444 -1.041,-5.101 0.15,-0.153 0.201,-0.018 0.279,0.008 1.463,0.479 1.589,1.832 1.789,3.122 0.163,1.049 1.141,1.969 2.149,1.971 0.652,10e-4 1.305,0 1.957,-0.007 C 0.75,4.995 0.813,4.948 0.877,4.922 0.596,3.331 -0.083,-0.079 0,0"
             style="fill:#aa8958;fill-opacity:1;fill-rule:nonzero;stroke:none"
             id="path148" />
        </g>
        <g
           id="g150"
           transform="translate(246.1676,491.9789)">
          <path
             inkscape:connector-curvature="0"
             d="M 0,0 C -0.604,0.193 -1.015,0.125 -1.419,0.12 -2.1,0.111 -2.907,-0.276 -3.15,-1.242 c -0.18,-0.719 -0.495,-1.645 -0.222,-2.51 1.499,-0.144 2.378,0.08 2.949,1.555 C -0.195,-1.606 0,-0.752 0,0 M 5.555,4.076 C 4.994,3.239 4.591,2.505 4.066,1.887 3.441,1.151 3.342,0.256 3.155,-0.635 2.83,-2.185 2.474,-3.728 2.111,-5.361 l -4.106,0 c -1.167,0 -2.335,-0.005 -3.502,10e-4 -1.396,0.006 -2.065,0.794 -1.848,2.259 0.097,0.654 0.302,1.299 0.522,1.922 0.209,0.596 0.303,0.855 0.818,1.315 0.374,0.333 0,0 1.395,1.039 0.874,0.57 0.779,0.512 1.282,0.496 0.857,-0.029 1.716,0.005 2.574,-0.013 C -0.257,1.647 0.107,1.724 0.472,2.266 1.324,3.53 1.02,3.099 1.324,3.53 1.494,3.77 1.671,4.081 2.04,4.078 3.158,4.072 4.276,4.076 5.555,4.076"
             style="fill:#aa8958;fill-opacity:1;fill-rule:nonzero;stroke:none"
             id="path152" />
        </g>
        <g
           id="g154"
           transform="translate(221.3348,488.189)">
          <path
             inkscape:connector-curvature="0"
             d="M 0,0 C 2.219,0.001 2.99,1.582 2.939,3.854 0.842,4.213 -0.455,3.139 0,0 M 6.35,1.363 C 6.219,0.788 5.931,0.364 5.484,0.053 4.788,-0.43 4.072,-0.879 3.386,-1.377 3.104,-1.582 2.817,-1.571 2.515,-1.571 c -1.65,0 -3.304,-0.076 -4.949,0.022 -1.456,0.088 -2.043,0.994 -1.674,2.348 0.129,0.473 0.228,0.973 0.39,1.412 0.239,0.648 0.45,1.294 1.12,1.777 1.196,0.977 0.779,0.679 1.196,0.977 0.44,0.314 0.89,0.533 1.484,0.511 C 1.833,5.411 3.587,5.454 5.34,5.453 6.66,5.452 7.246,4.654 6.852,3.297 6.757,2.968 6.429,1.711 6.35,1.363"
             style="fill:#aa8958;fill-opacity:1;fill-rule:nonzero;stroke:none"
             id="path156" />
        </g>
        <g
           id="g158"
           transform="translate(303.9435,491.9459)">
          <path
             inkscape:connector-curvature="0"
             d="m 0,0 c -0.92,0.255 -1.688,0.363 -2.355,-0.496 -0.301,-0.387 -0.601,-0.79 -0.829,-1.207 -0.206,-0.375 -0.376,-0.895 -0.023,-1.357 0.4,-0.524 0.947,-0.79 1.534,-0.938 0.386,-0.097 0.59,0.125 0.7,0.572 C -0.699,-2.313 -0.352,-1.22 0,0 m 2.422,-4.889 c -2.683,0 -5.388,-0.011 -8.093,0.008 -0.687,0.004 -1.437,1.021 -1.511,1.879 -0.164,1.902 0.695,3.146 2.169,4.072 0.723,0.453 1.444,0.658 2.286,0.641 C -0.397,1.667 1.935,1.696 4.29,1.696 4.189,1.074 2.869,-3.44 2.422,-4.889"
             style="fill:#aa8958;fill-opacity:1;fill-rule:nonzero;stroke:none"
             id="path160" />
        </g>
        <g
           id="g162"
           transform="translate(228.8616,492.9661)">
          <path
             inkscape:connector-curvature="0"
             d="M 0,0 C 0.191,0.523 0.371,0.683 0.842,0.681 3.282,0.67 5.723,0.71 8.162,0.658 9.114,0.638 9.803,0.071 9.77,-1.048 9.729,-2.429 9.281,-3.692 9.007,-5.004 8.95,-5.275 9.002,-5.576 8.834,-5.868 l -3.457,0 c 0.169,1.014 0.276,1.993 0.519,2.931 0.095,0.364 0.13,0.707 0.125,1.06 C 6.012,-1.198 5.73,-0.893 5.105,-0.865 4.628,-0.844 4.15,-0.861 3.644,-0.861 3.371,-1.98 3.131,-3.072 2.835,-4.146 2.482,-5.424 1.549,-6.127 0.294,-6.129 -1.497,-6.132 -1.459,-6.141 -1.065,-4.295 -0.934,-3.68 -0.294,-0.804 0,0"
             style="fill:#aa8958;fill-opacity:1;fill-rule:nonzero;stroke:none"
             id="path164" />
        </g>
        <g
           id="g166"
           transform="translate(255.8032,265.9726)">
          <path
             inkscape:connector-curvature="0"
             d="m 0,0 -21.205,21.257 0.831,0.829 L 1.721,-0.041 0,0 z"
             style="fill:#aa8958;fill-opacity:1;fill-rule:nonzero;stroke:none"
             id="path168" />
        </g>
        <g
           id="g170"
           transform="translate(210.6806,263.5978)">
          <path
             inkscape:connector-curvature="0"
             d="m 0,0 -22.66,22.715 1.016,1.013 L 1.016,1.013 0,0 z"
             style="fill:#aa8958;fill-opacity:1;fill-rule:nonzero;stroke:none"
             id="path172" />
        </g>
        <g
           id="g174"
           transform="translate(309.3,264.21)">
          <path
             inkscape:connector-curvature="0"
             d="m 0,0 c -0.41,-0.24 -0.79,-0.5 -1.14,-0.76 l -23.37,23.42 0.94,0.93 L 0,0 z"
             style="fill:#43426f;fill-opacity:1;fill-rule:nonzero;stroke:none"
             id="path176" />
        </g>
        <g
           id="g178"
           transform="translate(194.895,282.9113)">
          <path
             inkscape:connector-curvature="0"
             d="M 0,0 C -0.655,0.658 -0.754,1.576 -0.132,2.316 L 0.588,1.593 C 0.316,1.262 0.336,0.949 0.643,0.641 0.94,0.342 1.327,0.315 1.586,0.572 1.732,0.717 1.808,0.914 1.78,1.108 1.752,1.301 1.726,1.357 1.413,2.032 1.095,2.712 1.164,3.335 1.617,3.786 2.187,4.354 3.124,4.32 3.723,3.718 4.323,3.116 4.401,2.257 3.803,1.591 L 3.088,2.309 C 3.311,2.572 3.306,2.85 3.075,3.082 2.848,3.31 2.541,3.316 2.327,3.103 2.195,2.972 2.153,2.789 2.207,2.57 2.228,2.491 2.233,2.475 2.459,1.995 2.941,0.965 2.831,0.442 2.344,-0.043 1.691,-0.694 0.67,-0.673 0,0"
             style="fill:#aa8958;fill-opacity:1;fill-rule:nonzero;stroke:none"
             id="path180" />
        </g>
        <g
           id="g182"
           transform="translate(201.4081,282.541)">
          <path
             inkscape:connector-curvature="0"
             d="m 0,0 c -0.715,0.718 -1.785,0.74 -2.482,0.046 -0.683,-0.679 -0.665,-1.769 0.04,-2.477 0.706,-0.709 1.751,-0.715 2.443,-0.026 C 0.693,-1.768 0.69,-0.693 0,0 m -3.08,-3.077 c -1.093,1.097 -1.135,2.787 -0.097,3.821 1.052,1.048 2.722,0.999 3.831,-0.114 1.062,-1.067 1.08,-2.751 0.052,-3.775 -1.053,-1.049 -2.703,-1.02 -3.786,0.068"
             style="fill:#aa8958;fill-opacity:1;fill-rule:nonzero;stroke:none"
             id="path184" />
        </g>
        <g
           id="g186"
           transform="translate(202.0429,275.7337)">
          <path
             inkscape:connector-curvature="0"
             d="M 0,0 C -0.73,0.733 -0.786,1.725 0.13,2.638 L 2.411,4.909 3.101,4.216 0.82,1.945 C 0.26,1.387 0.296,0.99 0.648,0.636 0.991,0.292 1.388,0.244 1.953,0.807 L 4.234,3.078 4.924,2.385 2.643,0.114 C 1.722,-0.803 0.735,-0.738 0,0"
             style="fill:#aa8958;fill-opacity:1;fill-rule:nonzero;stroke:none"
             id="path188" />
        </g>
        <g
           id="g190"
           transform="translate(206.32,271.5655)">
          <path
             inkscape:connector-curvature="0"
             d="M 0,0 1.061,4.169 -1.556,1.563 -2.246,2.256 1.355,5.842 2.141,5.053 1.06,0.895 3.682,3.506 4.372,2.813 0.771,-0.774 0,0 z"
             style="fill:#aa8958;fill-opacity:1;fill-rule:nonzero;stroke:none"
             id="path192" />
        </g>
        <g
           id="g194"
           transform="translate(212.333,271.1613)">
          <path
             inkscape:connector-curvature="0"
             d="m 0,0 c -0.109,0.324 -0.307,0.601 -0.745,1.041 l -0.136,0.136 -2.325,-2.315 0.151,-0.152 c 0.413,-0.414 0.749,-0.654 1.068,-0.75 0.507,-0.159 1.099,0.017 1.533,0.449 C 0.009,-1.13 0.177,-0.529 0,0 m -2.265,-2.96 c -0.448,0.158 -0.839,0.443 -1.403,1.009 l -0.866,0.87 3.601,3.587 0.851,-0.855 C 0.503,1.065 0.858,0.532 0.98,0.069 1.196,-0.753 0.923,-1.609 0.241,-2.289 -0.485,-3.012 -1.417,-3.265 -2.265,-2.96"
             style="fill:#aa8958;fill-opacity:1;fill-rule:nonzero;stroke:none"
             id="path196" />
        </g>
        <g
           id="g198"
           transform="translate(460.5508,291.7463)">
          <path
             inkscape:connector-curvature="0"
             d="m 0,0 -266.205,-0.592 c -2.778,0 -4.562,0.663 -5.099,4.667 -1.592,11.888 -3.75,23.833 -5.916,44.12 -2.085,19.527 -1.389,60.638 1.416,82.426 2.806,21.787 4.063,25.848 7.563,37.975 1.004,3.479 1.91,5.437 4.687,5.437 l 257.25,0 c 2.778,0 4.782,-0.875 6.558,-4.625 1.776,-3.75 5.919,-24.887 7.692,-41.75 1.774,-16.862 3.823,-41.746 3.75,-60.75 0,0 -0.625,-38.635 -6.666,-61.878 C 3.643,-0.304 2.778,0 0,0"
             style="fill:#a18b68;fill-opacity:1;fill-rule:nonzero;stroke:none"
             id="path200" />
        </g>
        <g
           id="g202"
           transform="translate(452.7473,299.2381)">
          <path
             inkscape:connector-curvature="0"
             d="m 0,0 -251.722,0 c -0.642,0 -1.167,0.525 -1.167,1.167 l 0,158.71 c 0,0.641 0.525,1.166 1.167,1.166 l 251.722,0 c 0.642,0 1.167,-0.525 1.167,-1.166 l 0,-158.71 C 1.167,0.525 0.642,0 0,0"
             style="fill:#312f36;fill-opacity:1;fill-rule:nonzero;stroke:none"
             id="path204" />
        </g>
        <g
           id="g206"
           transform="translate(268.1572,472.0387)">
          <path
             inkscape:connector-curvature="0"
             d="m 0,0 c 0.054,-0.627 -0.244,-1.02 -0.788,-1.432 -0.984,-0.747 -2.083,-0.689 -3.205,-0.659 -1.011,0.028 -1.964,0.305 -2.81,0.79 -0.509,0.293 -0.774,0.769 -0.795,1.386 -0.057,1.656 0.45,3.216 0.875,4.789 0.444,1.648 0.926,3.289 1.441,4.92 0.307,0.972 0.886,1.807 1.694,2.522 0.615,0.544 1.234,0.428 1.882,0.149 0.593,-0.256 0.976,-0.603 0.981,-1.312 0.007,-1.122 -0.442,-2.124 -0.81,-3.141 -0.759,-2.098 -1.402,-4.224 -2.012,-6.359 -0.352,-1.232 0.374,-1.824 1.756,-1.529 0.595,0.127 1.261,0.52 1.804,-0.136 L 0,0 z"
             style="fill:#4692b7;fill-opacity:1;fill-rule:nonzero;stroke:none"
             id="path208" />
        </g>
        <g
           id="g210"
           transform="translate(249.9454,469.5956)">
          <path
             inkscape:connector-curvature="0"
             d="m 0,0 c -0.086,0.225 -0.299,0.162 -0.477,0.174 -1.759,0.118 -3.325,1.368 -3.53,3.199 -0.118,1.062 -0.026,2.085 0.206,3.112 0.399,1.77 1.78,2.683 3.488,3.264 0.573,0.195 1.17,0.384 1.807,0.365 C 2.227,10.091 2.428,9.884 2.189,9.263 1.87,8.433 1.465,7.632 1.147,6.802 0.829,5.97 0.583,5.126 0.554,4.223 0.516,3.013 1.136,2.302 2.163,1.969 3.286,1.605 4.644,2.067 5.322,2.965 5.707,3.476 5.788,4.045 5.928,4.635 6.105,5.38 5.86,6.023 5.734,6.71 5.612,7.375 5.219,7.782 4.552,8.031 4.279,8.133 3.933,8.19 3.799,8.573 5.148,9.436 6.671,9.74 8.279,9.558 8.902,9.488 9.506,9.173 9.793,8.534 10.183,7.669 10.419,6.806 10.13,5.868 10.037,5.569 10.071,5.238 9.991,4.934 9.439,2.853 7.828,1.663 5.802,0.887 4.687,0.459 3.517,0.148 2.282,0.16 2.175,0.161 2.125,0.081 2.088,0 L 0,0 z"
             style="fill:#4692b7;fill-opacity:1;fill-rule:nonzero;stroke:none"
             id="path212" />
        </g>
        <g
           id="g214"
           transform="translate(272.1531,469.5956)">
          <path
             inkscape:connector-curvature="0"
             d="m 0,0 c -0.28,0.35 -0.702,0.112 -1.049,0.211 -1.16,0.328 -2.068,0.933 -2.675,1.907 -0.074,0.118 -0.079,0.289 -0.272,0.325 l 0.013,-0.012 c -0.186,0.822 -0.236,1.654 -0.19,2.49 0.132,2.397 1.464,4.206 3.942,4.897 0.529,0.147 1.073,0.282 1.64,0.297 C 1.888,10.127 2.07,9.931 2.098,9.492 2.143,8.807 1.68,8.289 1.419,7.727 0.914,6.635 0.649,5.5 0.405,4.355 0.214,3.459 0.99,2.351 1.969,2.068 3.852,1.525 5.611,2.342 5.863,4.581 5.929,5.166 5.903,5.768 5.759,6.381 5.524,7.374 4.969,7.972 3.923,8.227 3.84,8.248 3.775,8.326 3.65,8.414 3.778,8.649 3.974,8.786 4.226,8.913 5.422,9.515 6.71,9.683 8.04,9.576 8.971,9.502 9.983,8.634 10.028,7.762 10.072,6.88 10.117,5.994 9.921,5.093 9.536,3.319 8.283,2.234 6.723,1.366 5.369,0.612 3.881,0.209 2.287,0.174 2.128,0.171 1.971,0.166 1.898,0 L 0,0 z"
             style="fill:#4692b7;fill-opacity:1;fill-rule:nonzero;stroke:none"
             id="path216" />
        </g>
        <g
           id="g218"
           transform="translate(237.9426,469.7369)">
          <path
             inkscape:connector-curvature="0"
             d="m 0,0 c -2.648,0.031 -4.738,0.59 -6.343,2.175 -1.083,1.068 -1.633,2.366 -1.804,3.855 -0.186,1.614 0.153,3.056 1.192,4.327 0.872,1.066 1.991,1.907 3.282,2.538 1.538,0.753 3.137,1.367 4.849,1.688 1.569,0.295 3.139,0.393 4.747,0.137 C 6.649,14.604 7.41,14.579 8.156,14.512 8.58,14.473 8.851,14.336 8.747,13.925 8.453,12.763 8.44,11.559 8.048,10.405 7.887,9.933 7.66,9.503 7.425,9.076 7.157,8.588 6.416,8.587 6.139,9.07 5.837,9.597 5.58,10.153 5.38,10.72 5.273,11.025 5.139,11.327 4.956,11.57 4.345,12.38 3.668,12.698 2.584,12.477 -0.009,11.948 -1.446,10.313 -2.544,8.321 -3.02,7.46 -3.28,6.506 -3.188,5.5 -3.058,4.089 -2.296,2.766 -0.734,2.393 -0.138,2.251 0.414,2.332 1.01,2.443 2.371,2.697 3.546,3.2 4.461,4.176 4.945,4.692 5.66,4.735 6.305,4.9 6.617,4.979 6.823,4.787 6.877,4.467 7.059,3.39 6.617,2.504 5.727,1.884 4.363,0.934 1.743,-0.167 0,0"
             style="fill:#4692b7;fill-opacity:1;fill-rule:nonzero;stroke:none"
             id="path220" />
        </g>
        <g
           id="g222"
           transform="translate(293.8906,474.0733)">
          <path
             inkscape:connector-curvature="0"
             d="M 0,0 C -0.4,0.274 -0.451,0.578 -0.63,0.809 -1.212,1.559 -1.93,1.805 -2.9,1.561 -4.629,1.126 -5.694,0.009 -6.487,-1.386 -6.763,-1.87 -7.01,-2.369 -7.296,-2.848 c -0.507,-0.845 -1.891,-1.296 -2.776,-0.867 -0.343,0.167 -0.661,0.425 -0.664,0.879 -0.005,0.752 0.025,1.49 0.297,2.211 0.489,1.296 0.939,2.6 1.256,3.945 0.103,0.437 0.366,0.861 0.64,1.24 0.492,0.68 2.438,0.809 3.001,0.21 0.457,-0.486 0.348,-1.084 0.265,-1.656 -0.019,-0.132 -0.164,-0.249 0.028,-0.452 2.06,1.605 4.158,3.196 7.272,2.937 C 1.837,3.556 0.843,1.844 0,0"
             style="fill:#4692b7;fill-opacity:1;fill-rule:nonzero;stroke:none"
             id="path224" />
        </g>
        <g
           id="g226"
           transform="translate(241.7007,284.3368)">
          <path
             inkscape:connector-curvature="0"
             d="M 0,0 C 0.101,-0.399 0.343,-0.887 0.729,-1.27 1.301,-1.838 1.926,-1.876 2.349,-1.45 2.74,-1.056 2.732,-0.602 2.365,0.198 1.9,1.143 1.817,1.933 2.407,2.527 3.059,3.184 4.102,3.117 4.944,2.281 5.387,1.841 5.609,1.422 5.696,1.125 L 5.101,0.834 C 5.034,1.049 4.87,1.461 4.478,1.85 3.887,2.437 3.32,2.316 3.035,2.029 2.644,1.635 2.714,1.179 3.088,0.361 c 0.459,-1.002 0.49,-1.716 -0.124,-2.335 -0.646,-0.651 -1.7,-0.722 -2.721,0.292 -0.417,0.414 -0.755,0.986 -0.837,1.366 L 0,0 z"
             style="fill:#aa8958;fill-opacity:1;fill-rule:nonzero;stroke:none"
             id="path228" />
        </g>
        <g
           id="g230"
           transform="translate(248.8356,283.3868)">
          <path
             inkscape:connector-curvature="0"
             d="M 0,0 -1.317,1.308 -0.857,1.77 2.348,-1.412 1.888,-1.875 0.565,-0.561 -3.16,-4.313 -3.725,-3.752 0,0 z"
             style="fill:#aa8958;fill-opacity:1;fill-rule:nonzero;stroke:none"
             id="path232" />
        </g>
        <g
           id="g234"
           transform="translate(250.8583,277.4046)">
          <path
             inkscape:connector-curvature="0"
             d="M 0,0 0.781,1.634 C 0.958,2.005 1.142,2.319 1.32,2.626 L 1.307,2.639 C 0.994,2.453 0.669,2.267 0.331,2.093 L -1.304,1.295 0,0 z M -1.842,0.984 -3.607,0.105 -4.186,0.679 1.47,3.433 2.145,2.764 -0.563,-2.918 -1.16,-2.325 -0.307,-0.54 -1.842,0.984 z"
             style="fill:#aa8958;fill-opacity:1;fill-rule:nonzero;stroke:none"
             id="path236" />
        </g>
        <g
           id="g238"
           transform="translate(253.7153,275.5365)">
          <path
             inkscape:connector-curvature="0"
             d="M 0,0 0.572,-0.568 C 1.169,-1.161 1.865,-1.218 2.343,-0.736 2.883,-0.192 2.714,0.447 2.129,1.04 1.86,1.308 1.642,1.474 1.528,1.539 L 0,0 z M 1.347,2.475 C 1.686,2.251 2.122,1.88 2.507,1.497 3.104,0.904 3.384,0.415 3.418,-0.09 3.45,-0.495 3.287,-0.904 2.964,-1.229 2.411,-1.785 1.685,-1.797 1.08,-1.495 L 1.062,-1.513 C 1.284,-1.957 1.185,-2.455 0.853,-2.995 0.411,-3.723 0.11,-4.232 0.038,-4.484 L -0.54,-3.91 c 0.048,0.189 0.311,0.648 0.711,1.294 0.449,0.709 0.435,1.158 -0.054,1.68 l -0.527,0.523 -1.813,-1.826 -0.559,0.555 4.129,4.159 z"
             style="fill:#aa8958;fill-opacity:1;fill-rule:nonzero;stroke:none"
             id="path240" />
        </g>
        <g
           id="g242"
           transform="translate(258.9968,273.2977)">
          <path
             inkscape:connector-curvature="0"
             d="M 0,0 -1.317,1.308 -0.857,1.771 2.348,-1.412 1.888,-1.875 0.565,-0.561 -3.16,-4.313 -3.725,-3.752 0,0 z"
             style="fill:#aa8958;fill-opacity:1;fill-rule:nonzero;stroke:none"
             id="path244" />
        </g>
        <g
           id="g246"
           transform="translate(294.6429,286.8155)">
          <path
             inkscape:connector-curvature="0"
             d="M 0,0 C 0.085,-0.148 0.218,-0.31 0.394,-0.491 1.032,-1.147 1.732,-1.245 2.299,-0.694 2.842,-0.166 2.721,0.482 2.138,1.082 1.907,1.32 1.713,1.483 1.598,1.553 L 0,0 z M 1.453,2.47 C 1.751,2.249 2.122,1.941 2.547,1.503 3.069,0.966 3.33,0.454 3.353,-0.009 3.383,-0.43 3.218,-0.858 2.852,-1.214 2.48,-1.575 2.078,-1.747 1.658,-1.742 1.08,-1.745 0.472,-1.425 -0.044,-0.894 c -0.158,0.163 -0.298,0.319 -0.389,0.473 l -1.646,-1.6 -0.529,0.543 4.061,3.948 z"
             style="fill:#43426f;fill-opacity:1;fill-rule:nonzero;stroke:none"
             id="path248" />
        </g>
        <g
           id="g250"
           transform="translate(297.6203,283.6545)">
          <path
             inkscape:connector-curvature="0"
             d="M 0,0 C -0.878,-0.853 -1.191,-2.105 -0.359,-2.961 0.479,-3.823 1.727,-3.558 2.66,-2.651 3.477,-1.857 3.906,-0.59 3.025,0.316 2.151,1.216 0.903,0.877 0,0 M 3.243,-3.203 C 1.829,-4.578 0.222,-4.425 -0.822,-3.351 -1.903,-2.239 -1.821,-0.64 -0.577,0.569 0.728,1.838 2.389,1.837 3.482,0.712 4.6,-0.438 4.463,-2.017 3.243,-3.203"
             style="fill:#43426f;fill-opacity:1;fill-rule:nonzero;stroke:none"
             id="path252" />
        </g>
        <g
           id="g254"
           transform="translate(300.1227,277.0172)">
          <path
             inkscape:connector-curvature="0"
             d="M 0,0 3.071,5.064 3.63,4.489 2.036,1.968 C 1.646,1.345 1.243,0.734 0.919,0.274 L 0.931,0.262 C 1.407,0.59 2.022,0.933 2.692,1.305 L 5.312,2.758 5.865,2.189 4.278,-0.35 C 3.905,-0.943 3.527,-1.53 3.155,-2.013 l 0.012,-0.013 c 0.536,0.351 1.109,0.678 1.748,1.044 L 7.529,0.477 8.07,-0.079 2.8,-2.88 2.247,-2.312 3.871,0.3 C 4.268,0.941 4.585,1.419 4.945,1.879 L 4.933,1.891 C 4.452,1.569 3.958,1.271 3.276,0.912 L 0.553,-0.569 0,0 z"
             style="fill:#43426f;fill-opacity:1;fill-rule:nonzero;stroke:none"
             id="path256" />
        </g>
        <g
           id="g258"
           transform="translate(308.642,272.108)">
          <path
             inkscape:connector-curvature="0"
             d="M 0,0 -1.591,1.637 -3.073,0.197 -1.3,-1.628 -1.745,-2.061 -4.047,0.308 0.063,4.302 2.274,2.028 1.829,1.596 0.147,3.326 -1.152,2.064 0.439,0.427 0,0 z"
             style="fill:#43426f;fill-opacity:1;fill-rule:nonzero;stroke:none"
             id="path260" />
        </g>
        <g
           id="g262"
           transform="translate(310.2964,270.918)">
          <path
             inkscape:connector-curvature="0"
             d="M 0,0 0.541,-0.556 C 1.105,-1.137 1.775,-1.203 2.244,-0.747 2.775,-0.231 2.624,0.388 2.071,0.968 1.816,1.231 1.61,1.394 1.5,1.458 L 0,0 z M 1.344,2.363 C 1.666,2.142 2.079,1.778 2.443,1.403 3.008,0.822 3.269,0.346 3.292,-0.141 3.316,-0.532 3.151,-0.923 2.834,-1.231 2.291,-1.759 1.591,-1.759 1.013,-1.457 L 0.995,-1.475 C 1.201,-1.907 1.097,-2.385 0.767,-2.9 0.327,-3.594 0.028,-4.08 -0.045,-4.321 l -0.547,0.562 c 0.049,0.182 0.312,0.619 0.709,1.236 0.445,0.676 0.44,1.108 -0.021,1.62 l -0.498,0.512 -1.781,-1.731 -0.528,0.544 4.055,3.941 z"
             style="fill:#43426f;fill-opacity:1;fill-rule:nonzero;stroke:none"
             id="path264" />
        </g>
        <g
           id="g266"
           transform="translate(544.447,314.1029)">
          <path
             inkscape:connector-curvature="0"
             d="M 0,0 -0.589,2.864 -2.126,0 0,0 z m 2.683,-4.013 -1.88,0 -0.529,2.584 -3.158,0 -1.399,-2.584 -1.784,0 5.065,9.031 1.6,0 2.085,-9.031 z"
             style="fill:#373535;fill-opacity:1;fill-rule:nonzero;stroke:none"
             id="path268" />
        </g>
        <g
           id="g270"
           transform="translate(511.2336,283.7957)">
          <path
             inkscape:connector-curvature="0"
             d="M 0,0 1.777,0 C 2.93,0 3.563,0.396 3.674,1.189 3.703,1.395 3.698,1.572 3.66,1.723 3.622,1.873 3.537,1.997 3.405,2.095 3.273,2.193 3.089,2.266 2.854,2.314 2.62,2.362 2.32,2.386 1.955,2.386 l -1.62,0 L 0,0 z m 0.551,3.917 1.613,0 c 0.524,0 0.921,0.079 1.192,0.236 0.27,0.157 0.431,0.42 0.483,0.789 C 3.862,5.106 3.854,5.25 3.814,5.373 3.774,5.496 3.696,5.599 3.577,5.681 3.459,5.763 3.299,5.823 3.097,5.862 2.895,5.9 2.641,5.92 2.336,5.92 L 0.832,5.92 0.551,3.917 z M 5.404,1.189 C 5.277,0.287 4.893,-0.396 4.251,-0.858 3.609,-1.32 2.715,-1.552 1.566,-1.552 l -3.466,0 1.268,9.024 3.302,0 C 3.153,7.472 3.584,7.416 3.963,7.304 4.341,7.192 4.655,7.032 4.903,6.822 5.152,6.613 5.331,6.357 5.442,6.057 5.552,5.756 5.581,5.417 5.527,5.038 5.474,4.655 5.356,4.323 5.175,4.04 4.994,3.757 4.74,3.507 4.413,3.288 4.617,3.183 4.788,3.057 4.927,2.909 5.066,2.761 5.176,2.595 5.258,2.413 5.339,2.231 5.392,2.036 5.415,1.829 5.438,1.621 5.434,1.408 5.404,1.189"
             style="fill:#373535;fill-opacity:1;fill-rule:nonzero;stroke:none"
             id="path272" />
        </g>
        <g
           id="g274"
           transform="translate(122.0081,476.3475)">
          <path
             inkscape:connector-curvature="0"
             d="m 0,0 -5.332,-1.007 -2.3,-2.299 -1.023,1.023 2.299,2.3 1.003,5.336 L -4.118,4.118 -4.885,0.46 -1.235,1.235 0,0 z"
             style="fill:#373535;fill-opacity:1;fill-rule:nonzero;stroke:none"
             id="path276" />
        </g>
        <g
           id="g278"
           transform="translate(119.6589,467.7586)">
          <path
             inkscape:connector-curvature="0"
             d="m 0,0 -0.982,0.982 3.891,3.89 C 2.514,5.057 2.059,5.407 1.545,5.921 L 2.37,6.745 C 3.176,5.939 3.942,5.781 4.665,6.273 L 5.469,5.469 0,0 z"
             style="fill:#373535;fill-opacity:1;fill-rule:nonzero;stroke:none"
             id="path280" />
        </g>
        <g
           id="g282"
           transform="translate(94.1667,450.8123)">
          <path
             inkscape:connector-curvature="0"
             d="m 0,0 -5.332,-1.007 -2.3,-2.299 -1.023,1.023 2.299,2.3 1.003,5.336 L -4.118,4.118 -4.885,0.46 -1.235,1.235 0,0 z"
             style="fill:#373535;fill-opacity:1;fill-rule:nonzero;stroke:none"
             id="path284" />
        </g>
        <g
           id="g286"
           transform="translate(93.2593,444.958)">
          <path
             inkscape:connector-curvature="0"
             d="M 0,0 1.699,1.699 -1.077,1.077 0,0 z m 0.771,-2.544 -0.68,0.68 -1.201,-1.202 -0.978,0.978 1.201,1.201 -2.15,2.151 0.775,0.774 L 3.634,3.211 4.4,2.444 0.978,-0.978 1.657,-1.657 0.771,-2.544 z"
             style="fill:#373535;fill-opacity:1;fill-rule:nonzero;stroke:none"
             id="path288" />
        </g>
        <g
           id="g290"
           transform="translate(120.4938,424.4009)">
          <path
             inkscape:connector-curvature="0"
             d="m 0,0 -5.332,-1.007 -2.3,-2.299 -1.023,1.023 2.299,2.3 1.003,5.336 L -4.118,4.118 -4.885,0.46 -1.235,1.235 0,0 z"
             style="fill:#373535;fill-opacity:1;fill-rule:nonzero;stroke:none"
             id="path292" />
        </g>
        <g
           id="g294"
           transform="translate(122.9134,419.2385)">
          <path
             inkscape:connector-curvature="0"
             d="M 0,0 C -0.097,-0.097 -0.206,-0.185 -0.327,-0.265 -0.449,-0.345 -0.578,-0.412 -0.715,-0.466 -0.851,-0.52 -0.993,-0.558 -1.139,-0.58 -1.286,-0.602 -1.432,-0.604 -1.579,-0.584 -1.521,-0.769 -1.494,-0.958 -1.498,-1.15 -1.502,-1.342 -1.533,-1.53 -1.591,-1.715 -1.649,-1.9 -1.73,-2.079 -1.835,-2.25 -1.94,-2.421 -2.065,-2.578 -2.208,-2.722 -2.462,-2.976 -2.743,-3.163 -3.049,-3.281 -3.356,-3.4 -3.667,-3.454 -3.982,-3.443 c -0.315,0.011 -0.626,0.086 -0.934,0.226 -0.308,0.139 -0.59,0.337 -0.847,0.594 -0.26,0.26 -0.456,0.539 -0.589,0.837 -0.132,0.299 -0.203,0.602 -0.211,0.912 -0.008,0.309 0.048,0.618 0.168,0.926 0.12,0.308 0.304,0.6 0.553,0.876 l 1.015,-1.015 c -0.124,-0.124 -0.224,-0.259 -0.3,-0.404 -0.076,-0.145 -0.122,-0.293 -0.137,-0.443 -0.015,-0.151 0.003,-0.3 0.054,-0.448 0.051,-0.148 0.141,-0.286 0.271,-0.416 0.125,-0.124 0.26,-0.216 0.406,-0.274 0.147,-0.058 0.295,-0.083 0.446,-0.076 0.15,0.007 0.299,0.045 0.447,0.116 0.148,0.07 0.287,0.17 0.417,0.3 0.132,0.133 0.234,0.274 0.304,0.425 0.071,0.15 0.106,0.304 0.106,0.462 0,0.157 -0.035,0.315 -0.106,0.474 -0.07,0.159 -0.181,0.314 -0.333,0.466 l -0.415,0.415 0.825,0.824 0.315,-0.315 c 0.259,-0.259 0.522,-0.385 0.787,-0.377 0.265,0.008 0.515,0.13 0.75,0.365 0.207,0.207 0.31,0.418 0.308,0.632 -0.001,0.214 -0.101,0.42 -0.3,0.619 -0.411,0.412 -0.911,0.381 -1.5,-0.091 L -3.484,3.17 c 0.295,0.234 0.592,0.404 0.89,0.509 0.299,0.105 0.591,0.151 0.877,0.139 0.286,-0.012 0.56,-0.081 0.822,-0.205 C -0.633,3.489 -0.391,3.316 -0.17,3.095 0.079,2.846 0.267,2.586 0.396,2.314 0.524,2.042 0.595,1.77 0.607,1.498 0.619,1.226 0.575,0.962 0.474,0.706 0.374,0.451 0.215,0.215 0,0"
             style="fill:#373535;fill-opacity:1;fill-rule:nonzero;stroke:none"
             id="path296" />
        </g>
        <g
           id="g298"
           transform="translate(111.6227,330.861)">
          <path
             inkscape:connector-curvature="0"
             d="M 0,0 -1.251,1.251 -0.63,4.74 -4.118,4.118 -5.382,5.382 -0.41,6.161 0.29,10.648 1.537,9.401 1.007,6.393 4.023,6.915 5.27,5.668 0.779,4.972 0,0 z"
             style="fill:#373535;fill-opacity:1;fill-rule:nonzero;stroke:none"
             id="path300" />
        </g>
        <g
           id="g302"
           transform="translate(114.7426,327.7412)">
          <path
             inkscape:connector-curvature="0"
             d="m 0,0 -0.982,0.982 3.891,3.89 C 2.514,5.057 2.059,5.407 1.545,5.921 L 2.37,6.745 C 3.176,5.939 3.942,5.781 4.665,6.273 L 5.469,5.469 0,0 z"
             style="fill:#373535;fill-opacity:1;fill-rule:nonzero;stroke:none"
             id="path304" />
        </g>
        <g
           id="g306"
           transform="translate(138.8889,302.4869)">
          <path
             inkscape:connector-curvature="0"
             d="M 0,0 -1.251,1.251 -0.63,4.74 -4.118,4.118 -5.382,5.382 -0.41,6.161 0.29,10.648 1.537,9.401 1.007,6.393 4.023,6.915 5.27,5.668 0.779,4.972 0,0 z"
             style="fill:#373535;fill-opacity:1;fill-rule:nonzero;stroke:none"
             id="path308" />
        </g>
        <g
           id="g310"
           transform="translate(142.9451,298.4307)">
          <path
             inkscape:connector-curvature="0"
             d="m 0,0 -3.663,3.663 c 0.473,0.472 0.955,0.758 1.446,0.857 0.266,0.05 0.582,0.079 0.949,0.087 C -0.9,4.616 -0.476,4.595 0.004,4.545 0.43,4.501 0.798,4.473 1.108,4.46 1.419,4.448 1.689,4.458 1.918,4.491 c 0.23,0.033 0.429,0.092 0.599,0.176 0.17,0.085 0.328,0.2 0.474,0.346 0.232,0.232 0.348,0.477 0.348,0.734 0,0.257 -0.121,0.506 -0.364,0.75 C 2.875,6.596 2.76,6.671 2.629,6.722 2.498,6.773 2.357,6.794 2.206,6.784 2.056,6.775 1.898,6.735 1.734,6.664 1.57,6.594 1.403,6.486 1.235,6.339 L 0.232,7.342 C 0.522,7.588 0.824,7.773 1.137,7.899 1.451,8.025 1.762,8.086 2.072,8.083 2.381,8.081 2.684,8.015 2.981,7.887 3.278,7.758 3.555,7.565 3.812,7.309 4.088,7.032 4.294,6.746 4.431,6.449 4.568,6.152 4.639,5.86 4.645,5.573 4.65,5.285 4.596,5.008 4.483,4.74 4.37,4.472 4.201,4.226 3.977,4.002 3.77,3.795 3.552,3.632 3.323,3.513 3.094,3.395 2.845,3.312 2.577,3.265 2.328,3.226 1.993,3.203 1.57,3.194 1.148,3.186 0.66,3.207 0.108,3.257 -0.055,3.27 -0.269,3.283 -0.532,3.296 -0.796,3.308 -1.087,3.288 -1.405,3.236 L 0.916,0.916 0,0 z"
             style="fill:#373535;fill-opacity:1;fill-rule:nonzero;stroke:none"
             id="path312" />
        </g>
        <g
           id="g314"
           transform="translate(111.6227,274.63)">
          <path
             inkscape:connector-curvature="0"
             d="M 0,0 -1.251,1.251 -0.63,4.74 -4.118,4.118 -5.382,5.382 -0.41,6.161 0.29,10.648 1.537,9.401 1.007,6.393 4.023,6.915 5.27,5.668 0.779,4.972 0,0 z"
             style="fill:#373535;fill-opacity:1;fill-rule:nonzero;stroke:none"
             id="path316" />
        </g>
        <g
           id="g318"
           transform="translate(119.5114,274.9366)">
          <path
             inkscape:connector-curvature="0"
             d="M 0,0 C -0.097,-0.097 -0.206,-0.185 -0.327,-0.265 -0.449,-0.345 -0.578,-0.412 -0.715,-0.466 -0.851,-0.52 -0.993,-0.558 -1.139,-0.58 -1.286,-0.602 -1.432,-0.604 -1.579,-0.584 -1.521,-0.769 -1.494,-0.958 -1.498,-1.15 -1.502,-1.342 -1.533,-1.53 -1.591,-1.715 -1.649,-1.9 -1.73,-2.078 -1.835,-2.25 -1.94,-2.421 -2.065,-2.578 -2.208,-2.722 -2.462,-2.976 -2.743,-3.163 -3.049,-3.281 -3.356,-3.4 -3.667,-3.454 -3.982,-3.443 c -0.315,0.011 -0.626,0.086 -0.934,0.226 -0.308,0.139 -0.59,0.337 -0.847,0.594 -0.26,0.26 -0.456,0.539 -0.589,0.837 -0.132,0.299 -0.203,0.602 -0.211,0.912 -0.008,0.309 0.048,0.618 0.168,0.926 0.12,0.308 0.304,0.6 0.553,0.876 l 1.015,-1.015 c -0.124,-0.124 -0.224,-0.259 -0.3,-0.404 -0.076,-0.145 -0.122,-0.293 -0.137,-0.443 -0.015,-0.151 0.003,-0.3 0.054,-0.448 0.051,-0.148 0.141,-0.286 0.271,-0.416 0.125,-0.124 0.26,-0.216 0.406,-0.274 0.147,-0.058 0.295,-0.083 0.446,-0.076 0.15,0.007 0.299,0.045 0.447,0.116 0.148,0.07 0.287,0.17 0.417,0.3 0.132,0.133 0.234,0.274 0.304,0.425 0.071,0.15 0.106,0.304 0.106,0.462 0,0.157 -0.035,0.315 -0.106,0.474 -0.07,0.159 -0.182,0.314 -0.333,0.466 l -0.415,0.415 0.825,0.824 0.315,-0.315 c 0.259,-0.259 0.522,-0.385 0.787,-0.377 0.265,0.008 0.515,0.13 0.75,0.365 0.207,0.207 0.31,0.418 0.308,0.632 -0.001,0.214 -0.101,0.42 -0.3,0.619 -0.412,0.412 -0.911,0.381 -1.5,-0.091 L -3.484,3.17 c 0.295,0.234 0.592,0.404 0.89,0.509 0.299,0.105 0.591,0.151 0.877,0.139 0.286,-0.012 0.56,-0.081 0.822,-0.205 C -0.633,3.489 -0.391,3.316 -0.17,3.095 0.079,2.846 0.267,2.586 0.396,2.314 0.524,2.042 0.595,1.77 0.607,1.498 0.619,1.226 0.575,0.962 0.474,0.706 0.374,0.451 0.215,0.215 0,0"
             style="fill:#373535;fill-opacity:1;fill-rule:nonzero;stroke:none"
             id="path320" />
        </g>
        <g
           id="g322"
           transform="translate(83.5958,304.3474)">
          <path
             inkscape:connector-curvature="0"
             d="M 0,0 -1.251,1.251 -0.63,4.74 -4.118,4.118 -5.382,5.382 -0.41,6.161 0.29,10.648 1.537,9.401 1.007,6.393 4.023,6.915 5.27,5.668 0.779,4.972 0,0 z"
             style="fill:#373535;fill-opacity:1;fill-rule:nonzero;stroke:none"
             id="path324" />
        </g>
        <g
           id="g326"
           transform="translate(88.1574,303.9621)">
          <path
             inkscape:connector-curvature="0"
             d="M 0,0 1.699,1.699 -1.077,1.077 0,0 z m 0.771,-2.544 -0.68,0.68 -1.201,-1.202 -0.978,0.978 1.201,1.201 -2.15,2.151 0.775,0.774 L 3.634,3.211 4.4,2.444 0.978,-0.978 1.657,-1.657 0.771,-2.544 z"
             style="fill:#373535;fill-opacity:1;fill-rule:nonzero;stroke:none"
             id="path328" />
        </g>
        <g
           id="g330"
           transform="translate(148.0181,450.2551)">
          <path
             inkscape:connector-curvature="0"
             d="m 0,0 -5.332,-1.007 -2.3,-2.299 -1.023,1.023 2.299,2.3 1.003,5.336 L -4.118,4.118 -4.885,0.46 -1.235,1.235 0,0 z"
             style="fill:#373535;fill-opacity:1;fill-rule:nonzero;stroke:none"
             id="path332" />
        </g>
        <g
           id="g334"
           transform="translate(146.6053,440.7298)">
          <path
             inkscape:connector-curvature="0"
             d="m 0,0 -3.663,3.663 c 0.473,0.472 0.955,0.758 1.446,0.857 0.266,0.05 0.582,0.079 0.949,0.087 C -0.9,4.616 -0.476,4.595 0.004,4.545 0.43,4.501 0.798,4.473 1.108,4.46 1.419,4.448 1.689,4.458 1.918,4.491 c 0.23,0.033 0.429,0.092 0.599,0.176 0.17,0.085 0.328,0.2 0.474,0.346 0.232,0.232 0.348,0.477 0.348,0.734 0,0.257 -0.121,0.506 -0.364,0.75 C 2.875,6.596 2.76,6.671 2.629,6.722 2.498,6.773 2.357,6.794 2.206,6.785 2.056,6.775 1.898,6.735 1.734,6.664 1.57,6.594 1.403,6.486 1.235,6.339 L 0.232,7.342 C 0.522,7.588 0.824,7.773 1.137,7.899 1.451,8.025 1.762,8.086 2.072,8.083 2.381,8.081 2.684,8.015 2.981,7.887 3.278,7.758 3.555,7.565 3.812,7.309 4.088,7.032 4.294,6.746 4.431,6.449 4.568,6.152 4.639,5.86 4.645,5.573 4.65,5.285 4.596,5.008 4.483,4.74 4.37,4.472 4.201,4.226 3.977,4.002 3.77,3.795 3.552,3.632 3.323,3.513 3.094,3.395 2.845,3.312 2.577,3.265 2.328,3.226 1.993,3.203 1.57,3.194 1.148,3.186 0.66,3.207 0.108,3.257 -0.055,3.27 -0.269,3.284 -0.532,3.296 -0.796,3.308 -1.087,3.288 -1.405,3.236 L 0.916,0.916 0,0 z"
             style="fill:#373535;fill-opacity:1;fill-rule:nonzero;stroke:none"
             id="path336" />
        </g>
      </g>
    </g>
  </g>
</svg>
