<?xml version="1.0" encoding="UTF-8" standalone="no"?>
<!-- Created with Inkscape (http://www.inkscape.org/) -->

<svg
   xmlns:dc="http://purl.org/dc/elements/1.1/"
   xmlns:cc="http://creativecommons.org/ns#"
   xmlns:rdf="http://www.w3.org/1999/02/22-rdf-syntax-ns#"
   xmlns:svg="http://www.w3.org/2000/svg"
   xmlns="http://www.w3.org/2000/svg"
   xmlns:sodipodi="http://sodipodi.sourceforge.net/DTD/sodipodi-0.dtd"
   xmlns:inkscape="http://www.inkscape.org/namespaces/inkscape"
   width="338.13217"
   height="210.394"
   id="svg4198"
   version="1.1"
   inkscape:version="0.48.4 r9939"
   sodipodi:docname="Nouveau document 9">
  <defs
     id="defs4200">
    <clipPath
       clipPathUnits="userSpaceOnUse"
       id="clipPath342">
      <path
         inkscape:connector-curvature="0"
         d="M 0,792 612,792 612,0 0,0 0,792 z"
         id="path344" />
    </clipPath>
  </defs>
  <sodipodi:namedview
     id="base"
     pagecolor="#ffffff"
     bordercolor="#666666"
     borderopacity="1.0"
     inkscape:pageopacity="0.0"
     inkscape:pageshadow="2"
     inkscape:zoom="0.35"
     inkscape:cx="169.06609"
     inkscape:cy="105.197"
     inkscape:document-units="px"
     inkscape:current-layer="layer1"
     showgrid="false"
     fit-margin-top="0"
     fit-margin-left="0"
     fit-margin-right="0"
     fit-margin-bottom="0"
     inkscape:window-width="486"
     inkscape:window-height="415"
     inkscape:window-x="51"
     inkscape:window-y="24"
     inkscape:window-maximized="0" />
  <metadata
     id="metadata4203">
    <rdf:RDF>
      <cc:Work
         rdf:about="">
        <dc:format>image/svg+xml</dc:format>
        <dc:type
           rdf:resource="http://purl.org/dc/dcmitype/StillImage" />
        <dc:title></dc:title>
      </cc:Work>
    </rdf:RDF>
  </metadata>
  <g
     inkscape:label="Calque 1"
     inkscape:groupmode="layer"
     id="layer1"
     transform="translate(-205.93391,-427.16518)">
    <g
       transform="matrix(1.25,0,0,-1.25,-20.820089,670.72793)"
       id="g338">
      <g
         id="g340"
         clip-path="url(#clipPath342)">
        <g
           id="g346"
           transform="translate(442.8982,81.9012)">
          <path
             inkscape:connector-curvature="0"
             d="m 0,0 c 0,-3.203 -2.649,-5.851 -5.851,-5.851 l -241.54,0 c -3.264,0 -5.851,2.648 -5.851,5.851 l 0,83.511 c 0,3.202 2.587,5.85 5.851,5.85 l 241.54,0 C -2.649,89.361 0,86.713 0,83.511 L 0,0 z m -178.23,108.083 105.497,0 c 3.879,0 7.082,-3.14 7.082,-7.02 0,-3.88 -3.203,-7.083 -7.082,-7.083 l -105.497,0 c -3.88,0 -7.021,3.203 -7.021,7.083 0,3.88 3.141,7.02 7.021,7.02 m 180.262,4.866 -256.567,0 c -3.819,0 -6.96,-3.079 -6.96,-6.898 l 0,-112.394 c 0,-2.71 1.54,-5.05 3.819,-6.159 0.924,-0.554 2.032,-0.8 3.141,-0.8 l 256.567,0 c 3.141,0 5.789,2.093 6.651,4.926 0.185,0.616 0.308,1.355 0.308,2.033 l 0,112.394 c 0,3.819 -3.079,6.898 -6.959,6.898"
             style="fill:#d4d4d4;fill-opacity:1;fill-rule:nonzero;stroke:none"
             id="path348" />
        </g>
        <path
           inkscape:connector-curvature="0"
           d="m 442.898,30.107 -248.869,0 0,33.133 248.869,0 0,-33.133 z m 4.188,8.253 0,16.012 4.557,0 -0.061,19.154 c -0.863,-2.834 -3.511,-4.927 -6.652,-4.927 l -256.567,0 c -1.109,0 -2.217,0.246 -3.141,0.8 l 0,-15.027 4.557,0 0,-16.012 c 0,0 -6.158,-1.047 -4.557,-6.036 1.601,-5.05 4.557,-5.789 4.557,-5.789 l 257.307,0 c 0,0 2.956,0.739 4.557,5.789 1.602,4.989 -4.557,6.036 -4.557,6.036"
           style="fill:#d4d4d4;fill-opacity:1;fill-rule:nonzero;stroke:none"
           id="path350" />
        <g
           id="g352"
           transform="translate(442.8982,165.4119)">
          <path
             inkscape:connector-curvature="0"
             d="m 0,0 0,-83.511 c 0,-3.202 -2.649,-5.85 -5.851,-5.85 l -241.54,0 c -3.264,0 -5.851,2.648 -5.851,5.85 l 0,83.511 c 0,3.203 2.587,5.851 5.851,5.851 l 241.54,0 C -2.649,5.851 0,3.203 0,0"
             style="fill:#f4f4f5;fill-opacity:1;fill-rule:nonzero;stroke:none"
             id="path354" />
        </g>
        <g
           id="g356"
           transform="translate(377.2472,182.9641)">
          <path
             inkscape:connector-curvature="0"
             d="m 0,0 c 0,-3.88 -3.203,-7.083 -7.082,-7.083 l -105.497,0 c -3.88,0 -7.021,3.203 -7.021,7.083 0,3.88 3.141,7.021 7.021,7.021 l 105.497,0 C -3.203,7.021 0,3.88 0,0"
             style="fill:#bababa;fill-opacity:1;fill-rule:nonzero;stroke:none"
             id="path358" />
        </g>
        <path
           inkscape:connector-curvature="0"
           d="m 442.898,54.495 -248.869,0 0,8.745 248.869,0 0,-8.745 z"
           style="fill:#969b9b;fill-opacity:1;fill-rule:nonzero;stroke:none"
           id="path360" />
        <path
           inkscape:connector-curvature="0"
           d="m 291.52,30.107 4.249,0 0,24.388 -4.249,0 0,-24.388 z m 142.14,0 4.249,0 0,24.388 -4.249,0 0,-24.388 z m -7.945,0 4.003,0 0,24.388 -4.003,0 0,-24.388 z m -8.19,0 3.941,0 0,24.388 -3.941,0 0,-24.388 z m -8.007,0 4.249,0 0,24.388 -4.249,0 0,-24.388 z m -7.944,0 4.003,0 0,24.388 -4.003,0 0,-24.388 z m -8.191,0 4.003,0 0,24.388 -4.003,0 0,-24.388 z m -8.622,0 4.249,0 0,24.388 -4.249,0 0,-24.388 z m -7.945,0 4.003,0 0,24.388 -4.003,0 0,-24.388 z m -8.191,0 3.941,0 0,24.388 -3.941,0 0,-24.388 z m -7.944,0 4.188,0 0,24.388 -4.188,0 0,-24.388 z m -7.945,0 3.942,0 0,24.388 -3.942,0 0,-24.388 z m -8.253,0 4.003,0 0,24.388 -4.003,0 0,-24.388 z m -8.437,0 4.188,0 0,24.388 -4.188,0 0,-24.388 z m -7.944,0 3.942,0 0,24.388 -3.942,0 0,-24.388 z m -8.253,0 4.003,0 0,24.388 -4.003,0 0,-24.388 z m -7.945,0 4.249,0 0,24.388 -4.249,0 0,-24.388 z m -7.944,0 3.941,0 0,24.388 -3.941,0 0,-24.388 z m -20.693,0 4.003,0 0,24.388 -4.003,0 0,-24.388 z m -8.191,0 4.249,0 0,24.388 -4.249,0 0,-24.388 z m -15.889,0 3.942,0 0,24.388 -3.942,0 0,-24.388 z m -8.253,0 4.249,0 0,24.388 -4.249,0 0,-24.388 z m -8.191,0 4.249,0 0,24.388 -4.249,0 0,-24.388 z m -8.191,0 3.942,0 0,24.388 -3.942,0 0,-24.388 z m -8.191,0 4.188,0 0,24.388 -4.188,0 0,-24.388 z m -7.76,0 3.757,0 0,24.388 -3.757,0 0,-24.388 z m -8.19,0 4.003,0 0,24.388 -4.003,0 0,-24.388 z m -8.191,0 4.249,0 0,24.388 -4.249,0 0,-24.388 z m -4.004,0 -4.188,0 0,24.388 4.188,0 0,-24.388 z"
           style="fill:#4e4f4f;fill-opacity:1;fill-rule:nonzero;stroke:none"
           id="path362" />
        <path
           inkscape:connector-curvature="0"
           d="m 295.769,30.107 3.942,0 0,24.388 -3.942,0 0,-24.388 z m -32.641,0 4.249,0 0,24.388 -4.249,0 0,-24.388 z m 174.782,0 4.988,0 0,24.388 -4.988,0 0,-24.388 z m -8.191,0 3.942,0 0,24.388 -3.942,0 0,-24.388 z m -8.253,0 4.249,0 0,24.388 -4.249,0 0,-24.388 z m -7.698,0 3.757,0 0,24.388 -3.757,0 0,-24.388 z m -8.191,0 3.941,0 0,24.388 -3.941,0 0,-24.388 z m -8.191,0 4.188,0 0,24.388 -4.188,0 0,-24.388 z m -8.376,0 4.372,0 0,24.388 -4.372,0 0,-24.388 z m -8.191,0 3.942,0 0,24.388 -3.942,0 0,-24.388 z m -8.252,0 4.249,0 0,24.388 -4.249,0 0,-24.388 z m -7.699,0 3.757,0 0,24.388 -3.757,0 0,-24.388 z m -8.19,0 4.003,0 0,24.388 -4.003,0 0,-24.388 z m -8.191,0 4.249,0 0,24.388 -4.249,0 0,-24.388 z m -8.253,0 4.249,0 0,24.388 -4.249,0 0,-24.388 z m -8.191,0 4.003,0 0,24.388 -4.003,0 0,-24.388 z m -8.191,0 4.249,0 0,24.388 -4.249,0 0,-24.388 z m -7.698,0 3.695,0 0,24.388 -3.695,0 0,-24.388 z m -8.253,0 4.003,0 0,24.388 -4.003,0 0,-24.388 z m -8.19,0 4.249,0 0,24.388 -4.249,0 0,-24.388 z m -12.441,0 4.249,0 0,24.388 -4.249,0 0,-24.388 z m -7.944,0 3.941,0 0,24.388 -3.941,0 0,-24.388 z m -8.191,0 3.942,0 0,24.388 -3.942,0 0,-24.388 z m -3.757,0 3.757,0 0,24.388 -3.757,0 0,-24.388 z m -12.194,0 4.003,0 0,24.388 -4.003,0 0,-24.388 z m -8.191,0 3.941,0 0,24.388 -3.941,0 0,-24.388 z m -8.499,0 4.249,0 0,24.388 -4.249,0 0,-24.388 z m -7.945,0 4.003,0 0,24.388 -4.003,0 0,-24.388 z m -8.191,0 4.003,0 0,24.388 -4.003,0 0,-24.388 z m -7.944,0 4.188,0 0,24.388 -4.188,0 0,-24.388 z m -7.945,0 3.942,0 0,24.388 -3.942,0 0,-24.388 z m -4.249,0 -4.003,0 0,24.388 4.003,0 0,-24.388 z"
           style="fill:#485551;fill-opacity:1;fill-rule:nonzero;stroke:none"
           id="path364" />
        <g
           id="g366"
           transform="translate(230.3743,146.6943)">
          <path
             inkscape:connector-curvature="0"
             d="m 0,0 c 0.386,0.636 0.473,1.3 0.534,1.962 0.05,0.54 -0.065,1.07 -0.181,1.597 -0.397,1.806 -1.304,3.337 -2.55,4.675 -0.432,0.465 -0.884,0.913 -1.385,1.314 -0.681,0.547 -1.399,1.032 -2.163,1.445 -0.965,0.522 -1.992,0.899 -3.068,1.109 -0.615,0.12 -1.252,0.214 -1.874,0.19 -0.555,-0.021 -1.12,-0.105 -1.67,-0.255 -1.374,-0.377 -2.414,-1.18 -3.05,-2.444 -0.549,-1.091 -0.611,-2.28 -0.373,-3.459 0.212,-1.045 0.617,-2.039 1.187,-2.943 0.716,-1.135 1.556,-2.166 2.614,-3.02 0.68,-0.549 1.382,-1.055 2.143,-1.476 1.703,-0.941 3.512,-1.493 5.479,-1.399 0.54,0.026 1.071,0.126 1.572,0.349 -0.159,0.024 -0.315,0.029 -0.47,0.023 -0.925,-0.035 -1.781,0.227 -2.601,0.621 -1.382,0.665 -2.466,1.677 -3.236,2.986 -0.592,1.007 -0.902,2.113 -0.595,3.298 0.164,0.637 0.502,1.155 1.053,1.556 0.886,0.646 1.896,0.633 2.882,0.525 0.805,-0.088 1.58,-0.401 2.294,-0.822 1.035,-0.61 1.925,-1.38 2.572,-2.396 C -0.266,2.462 0.155,1.417 -0.021,0.22 -0.029,0.167 -0.011,0.109 0,0 m -9.693,19.448 c 0.275,-0.208 0.616,-0.121 0.916,-0.167 1.589,-0.244 3.102,-0.721 4.574,-1.346 1.473,-0.625 2.882,-1.381 4.21,-2.265 0.902,-0.6 1.776,-1.249 2.597,-1.969 C 3.068,13.296 3.498,12.853 3.979,12.463 4.444,12.085 4.815,11.59 5.215,11.138 5.762,10.523 6.265,9.865 6.725,9.178 7.637,7.816 8.328,6.35 8.679,4.746 8.778,4.292 8.887,3.814 8.745,3.228 8.681,3.784 8.643,4.242 8.491,4.672 8.215,5.452 7.796,6.157 7.302,6.818 6.847,7.426 6.358,8.007 5.791,8.513 5.038,9.185 4.241,9.795 3.36,10.304 c -0.862,0.499 -1.773,0.859 -2.726,1.112 -0.777,0.205 -1.574,0.305 -2.391,0.224 0,-0.137 0.112,-0.196 0.208,-0.261 0.65,-0.438 1.246,-0.942 1.83,-1.466 C 0.718,9.521 1.125,9.11 1.519,8.674 2.239,7.874 2.879,7.019 3.449,6.11 4.212,4.891 4.752,3.571 5.086,2.176 5.36,1.029 5.417,-0.134 5.245,-1.312 5.062,-2.57 4.62,-3.725 3.911,-4.762 3.227,-5.762 2.326,-6.535 1.258,-7.138 0.187,-7.743 -0.951,-8.137 -2.136,-8.401 -2.655,-8.517 -3.188,-8.588 -3.725,-8.637 -4.493,-8.709 -5.26,-8.785 -6.03,-8.804 c -0.926,-0.023 -1.836,0.126 -2.752,0.259 -0.926,0.133 -1.813,0.386 -2.691,0.676 -1.722,0.571 -3.339,1.368 -4.898,2.297 -1.011,0.602 -1.975,1.269 -2.896,1.991 -1.063,0.833 -2.061,1.754 -2.959,2.765 -1.178,1.326 -2.248,2.737 -2.982,4.371 -0.387,0.861 -0.688,1.744 -0.835,2.685 -0.061,0.389 -0.065,0.763 -0.044,1.149 0.076,-0.379 0.14,-0.758 0.222,-1.134 0.172,-0.795 0.602,-1.456 1.028,-2.117 0.384,-0.595 0.881,-1.107 1.357,-1.626 0.425,-0.462 0.926,-0.862 1.428,-1.243 0.667,-0.504 1.376,-0.959 2.14,-1.301 1.072,-0.48 2.176,-0.878 3.375,-0.889 0.233,-0.002 0.439,-0.147 0.683,-0.101 0.119,0.022 0.247,-0.002 0.314,0.145 -1.253,0.83 -2.365,1.834 -3.371,2.945 -0.81,0.894 -1.491,1.889 -2.11,2.93 -0.739,1.244 -1.175,2.594 -1.504,3.984 -0.154,0.649 -0.119,1.323 -0.127,1.99 -0.022,1.749 0.562,3.312 1.559,4.697 0.891,1.238 2.123,2.086 3.545,2.673 0.834,0.344 1.69,0.597 2.56,0.79 0.547,0.121 1.113,0.22 1.685,0.226 0.109,0.001 0.255,-0.076 0.325,0.09 l 3.285,0 z"
             style="fill:#eb3f3f;fill-opacity:1;fill-rule:nonzero;stroke:none"
             id="path368" />
        </g>
        <g
           id="g370"
           transform="translate(196.6893,135.4315)">
          <path
             inkscape:connector-curvature="0"
             d="M 0,0 C 0.43,0.264 0.694,0.803 1.294,0.788 1.511,0.783 1.729,0.787 1.973,0.787 1.676,-0.448 1.39,-1.638 1.101,-2.839 c 0.67,0.233 0.653,0.251 0.867,0.917 0.213,0.664 0.39,1.335 0.556,2.011 C 2.596,0.382 3.12,0.79 3.417,0.786 3.775,0.781 4.134,0.816 4.496,0.761 4.213,-0.428 3.933,-1.6 3.636,-2.848 c 0.457,0.264 0.788,0.502 0.871,0.999 0.095,0.567 0.246,1.125 0.371,1.688 0.09,0.401 0.479,0.553 0.699,0.845 0.129,0.17 0.317,0.094 0.48,0.101 0.264,0.01 0.527,0.002 0.802,0.002 C 6.569,-0.372 6.285,-1.487 6.014,-2.605 5.953,-2.856 5.978,-2.813 5.657,-3.157 L 5.268,-3.491 C 5.016,-3.707 4.763,-3.844 4.405,-3.841 2.646,-3.822 0.887,-3.832 -0.872,-3.832 -0.872,-3.738 -0.019,-0.011 0,0"
             style="fill:#393738;fill-opacity:1;fill-rule:nonzero;stroke:none"
             id="path372" />
        </g>
        <g
           id="g374"
           transform="translate(248.6774,131.8113)">
          <path
             inkscape:connector-curvature="0"
             d="m 0,0 -1.719,0 c 0.122,0.455 0.245,0.914 0.371,1.373 0.16,0.585 0.022,0.771 -0.576,0.772 -0.141,0 -0.282,0 -0.451,0 C -2.516,1.66 -2.65,1.17 -2.802,0.687 c -0.17,-0.542 -0.534,-0.814 -1.087,-0.8 -0.316,0.008 -0.647,-0.078 -0.954,0.064 0.132,0.641 0.773,2.56 0.855,2.854 l 2.597,0 c 0.313,0 0.626,-0.014 0.937,0.004 C -0.096,2.828 0.173,2.675 0.406,2.428 0.406,2.114 0.13,0.515 0,0"
             style="fill:#393738;fill-opacity:1;fill-rule:nonzero;stroke:none"
             id="path376" />
        </g>
        <g
           id="g378"
           transform="translate(221.2637,133.9482)">
          <path
             inkscape:connector-curvature="0"
             d="M 0,0 C -1.259,0.029 -1.5,-0.069 -1.577,-0.618 -0.65,-0.724 -0.593,-0.703 0,0 M 1.422,-0.295 C 1.82,0.079 2.253,0.272 2.647,0.526 2.819,0.638 3.008,0.675 3.217,0.672 3.955,0.662 4.693,0.662 5.431,0.671 5.671,0.674 5.877,0.626 6.086,0.497 6.447,0.274 6.538,0.01 6.3,-0.33 6.157,-0.533 5.964,-0.687 5.713,-0.757 5.249,-0.888 4.794,-0.902 4.34,-0.737 4.356,-0.653 4.359,-0.623 4.368,-0.595 4.42,-0.42 4.657,-0.273 4.457,-0.06 4.357,0.046 3.935,0.013 3.751,-0.066 3.328,-0.247 3.204,-0.626 3.13,-1.014 3.051,-1.431 2.877,-1.818 2.814,-2.236 l -1.761,0 c 0.131,0.622 0.258,1.224 0.391,1.857 -0.234,-0.084 -0.343,-0.25 -0.473,-0.373 -0.537,-0.507 -1.167,-0.639 -1.875,-0.564 -0.277,0.029 -0.559,0.004 -0.824,0.004 -0.08,-0.129 -0.062,-0.231 -0.023,-0.363 l 2.282,0 c -0.328,-0.369 -0.668,-0.678 -1.184,-0.675 -0.691,0.005 -1.382,-0.002 -2.073,0.004 -0.134,10e-4 -0.262,-0.006 -0.405,0.059 -0.461,0.21 -0.653,0.323 -0.46,0.949 0.144,0.466 0.185,0.965 0.59,1.303 0.27,0.226 0.559,0.427 0.833,0.648 0.115,0.093 0.24,0.052 0.359,0.052 0.879,0.006 1.759,0.004 2.638,0.003 0.479,-0.001 0.58,-0.105 0.593,-0.604 0.002,-0.094 0,-0.188 0,-0.359"
             style="fill:#393738;fill-opacity:1;fill-rule:nonzero;stroke:none"
             id="path380" />
        </g>
        <g
           id="g382"
           transform="translate(225.4153,131.6395)">
          <path
             inkscape:connector-curvature="0"
             d="M 0,0 C 0.311,0.312 0.611,0.602 0.898,0.904 1.003,1.015 1.122,0.999 1.243,0.996 2.463,0.968 3.685,1.055 4.905,0.953 5.166,0.931 5.277,1.071 5.382,1.563 4.845,1.563 4.317,1.598 3.795,1.554 3.189,1.502 2.779,1.854 2.825,2.532 2.877,3.291 3.231,3.851 3.829,4.277 3.934,4.352 4.065,4.397 4.217,4.396 5.469,4.387 6.722,4.391 8.053,4.391 7.778,4.111 7.546,3.887 7.329,3.648 7.215,3.522 7.079,3.543 6.942,3.543 6.439,3.542 5.936,3.546 5.434,3.542 4.937,3.538 4.742,3.365 4.622,2.788 5.174,2.788 5.716,2.783 6.258,2.79 6.623,2.795 6.927,2.656 7.14,2.375 7.353,2.094 7.306,1.734 7.25,1.427 7.143,0.835 6.835,0.346 6.267,0.069 6.13,0.003 5.992,-0.045 5.828,-0.044 3.927,-0.037 2.026,-0.04 0.125,-0.038 0.1,-0.038 0.074,-0.023 0,0"
             style="fill:#393738;fill-opacity:1;fill-rule:nonzero;stroke:none"
             id="path384" />
        </g>
        <g
           id="g386"
           transform="translate(236.8799,132.4675)">
          <path
             inkscape:connector-curvature="0"
             d="M 0,0 C 0.425,0.196 0.721,0.476 0.831,0.97 0.968,1.581 1.197,1.72 1.494,2.045 1.671,2.237 1.906,2.125 2.115,2.146 2.267,2.161 2.422,2.149 2.584,2.149 2.518,1.469 2.265,0.872 2.194,0.236 2.16,-0.073 1.189,-0.601 1.011,-0.794 0.933,-0.877 0.845,-0.867 0.754,-0.867 c -1.679,-0.001 -3.358,0 -5.037,0.003 -0.028,0 -0.057,0.021 -0.106,0.042 0.109,0.667 0.276,1.329 0.419,1.993 0.084,0.391 0.501,0.617 0.786,0.899 0.165,0.164 0.386,0.059 0.581,0.076 0.17,0.014 0.342,0.003 0.571,0.003 -0.067,-0.772 -0.326,-1.479 -0.477,-2.191 0.069,-0.066 0.093,-0.008 0.128,0.003 0.669,0.206 0.726,0.787 0.818,1.341 0.074,0.451 0.521,0.846 0.982,0.847 0.298,0 0.596,0 0.894,-0.003 C 0.343,2.145 0.372,2.125 0.401,2.114 0.272,1.431 -0.038,-0.034 0,0"
             style="fill:#393738;fill-opacity:1;fill-rule:nonzero;stroke:none"
             id="path388" />
        </g>
        <g
           id="g390"
           transform="translate(216.1507,133.9021)">
          <path
             inkscape:connector-curvature="0"
             d="m 0,0 c -0.276,0.083 -0.464,0.054 -0.649,0.051 -0.311,-0.003 -0.68,-0.17 -0.791,-0.584 -0.082,-0.309 -0.226,-0.707 -0.101,-1.079 0.685,-0.061 1.087,0.035 1.347,0.668 C -0.089,-0.69 0,-0.323 0,0 M 2.539,1.751 C 2.283,1.391 2.098,1.076 1.859,0.81 1.573,0.494 1.528,0.11 1.442,-0.273 1.293,-0.939 1.131,-1.601 0.965,-2.303 l -1.877,0 c -0.533,0 -1.067,-0.002 -1.6,10e-4 -0.638,0.003 -0.945,0.341 -0.845,0.97 0.044,0.281 0.138,0.558 0.238,0.826 0.096,0.255 0.139,0.367 0.374,0.564 0.171,0.144 0,0 0.638,0.447 0.399,0.245 0.356,0.22 0.586,0.213 0.392,-0.013 0.784,0.002 1.176,-0.006 0.228,-0.005 0.394,0.028 0.561,0.261 0.389,0.543 0.25,0.358 0.389,0.543 0.078,0.103 0.159,0.237 0.328,0.236 0.51,-0.003 1.021,-0.001 1.606,-0.001"
             style="fill:#393738;fill-opacity:1;fill-rule:nonzero;stroke:none"
             id="path392" />
        </g>
        <g
           id="g394"
           transform="translate(204.8001,132.2743)">
          <path
             inkscape:connector-curvature="0"
             d="M 0,0 C 1.014,0 1.367,0.679 1.343,1.655 0.385,1.81 -0.208,1.348 0,0 M 2.902,0.586 C 2.843,0.338 2.711,0.156 2.507,0.023 2.189,-0.185 1.861,-0.378 1.548,-0.592 1.419,-0.679 1.288,-0.675 1.15,-0.675 c -0.755,0 -1.511,-0.033 -2.262,0.01 -0.666,0.037 -0.934,0.427 -0.766,1.008 0.059,0.203 0.105,0.418 0.178,0.607 0.11,0.278 0.206,0.555 0.512,0.763 0.547,0.419 0.356,0.291 0.547,0.419 0.201,0.135 0.407,0.229 0.678,0.22 C 0.838,2.324 1.64,2.342 2.441,2.342 3.044,2.341 3.312,1.999 3.132,1.416 3.088,1.275 2.938,0.735 2.902,0.586"
             style="fill:#393738;fill-opacity:1;fill-rule:nonzero;stroke:none"
             id="path396" />
        </g>
        <g
           id="g398"
           transform="translate(242.559,133.8879)">
          <path
             inkscape:connector-curvature="0"
             d="m 0,0 c -0.421,0.109 -0.771,0.156 -1.077,-0.213 -0.137,-0.166 -0.274,-0.339 -0.379,-0.518 -0.093,-0.162 -0.171,-0.385 -0.01,-0.583 0.183,-0.225 0.433,-0.34 0.701,-0.403 0.177,-0.042 0.27,0.054 0.32,0.246 C -0.319,-0.993 -0.161,-0.524 0,0 m 1.107,-2.1 c -1.226,0 -2.463,-0.005 -3.699,0.003 -0.314,0.002 -0.657,0.439 -0.691,0.808 -0.075,0.817 0.318,1.351 0.992,1.748 0.33,0.195 0.66,0.283 1.045,0.276 C -0.181,0.716 0.884,0.728 1.961,0.728 1.915,0.461 1.311,-1.477 1.107,-2.1"
             style="fill:#393738;fill-opacity:1;fill-rule:nonzero;stroke:none"
             id="path400" />
        </g>
        <g
           id="g402"
           transform="translate(208.2404,134.3261)">
          <path
             inkscape:connector-curvature="0"
             d="M 0,0 C 0.087,0.225 0.17,0.293 0.385,0.292 1.5,0.288 2.616,0.305 3.731,0.283 4.166,0.274 4.481,0.03 4.466,-0.45 4.447,-1.043 4.242,-1.586 4.117,-2.149 4.091,-2.266 4.115,-2.395 4.038,-2.52 l -1.58,0 c 0.077,0.435 0.126,0.856 0.237,1.259 0.043,0.156 0.059,0.303 0.057,0.455 C 2.748,-0.514 2.619,-0.383 2.334,-0.372 2.115,-0.363 1.897,-0.37 1.666,-0.37 1.541,-0.85 1.431,-1.319 1.296,-1.781 1.135,-2.33 0.708,-2.631 0.134,-2.632 -0.684,-2.634 -0.667,-2.638 -0.487,-1.845 -0.427,-1.581 -0.134,-0.345 0,0"
             style="fill:#393738;fill-opacity:1;fill-rule:nonzero;stroke:none"
             id="path404" />
        </g>
        <g
           id="g406"
           transform="translate(215.1564,120.8331)">
          <path
             inkscape:connector-curvature="0"
             d="M 0,0 C -0.05,0.143 -0.174,0.102 -0.277,0.11 -1.3,0.185 -2.21,0.976 -2.329,2.135 -2.398,2.807 -2.344,3.454 -2.21,4.104 -1.978,5.225 -1.175,5.802 -0.182,6.17 0.151,6.293 0.498,6.413 0.868,6.401 1.295,6.387 1.411,6.255 1.273,5.862 1.087,5.337 0.851,4.83 0.667,4.305 0.482,3.778 0.339,3.244 0.322,2.673 0.3,1.907 0.661,1.457 1.258,1.246 1.91,1.016 2.7,1.308 3.094,1.876 3.318,2.2 3.365,2.56 3.446,2.933 3.549,3.405 3.406,3.812 3.333,4.247 3.262,4.667 3.034,4.925 2.646,5.083 2.487,5.147 2.287,5.183 2.209,5.426 2.993,5.972 3.878,6.164 4.813,6.049 5.175,6.005 5.526,5.805 5.693,5.401 5.92,4.854 6.057,4.307 5.889,3.714 5.835,3.525 5.855,3.315 5.808,3.123 5.487,1.805 4.551,1.053 3.373,0.561 2.725,0.291 2.045,0.093 1.326,0.101 1.264,0.102 1.236,0.051 1.214,0 L 0,0 z"
             style="fill:#efac50;fill-opacity:1;fill-rule:nonzero;stroke:none"
             id="path408" />
        </g>
        <g
           id="g410"
           transform="translate(228.0667,120.8331)">
          <path
             inkscape:connector-curvature="0"
             d="M 0,0 C -0.163,0.221 -0.408,0.071 -0.61,0.133 -1.284,0.341 -1.812,0.724 -2.165,1.34 -2.208,1.415 -2.211,1.524 -2.323,1.546 l 0.008,-0.008 c -0.109,0.521 -0.138,1.048 -0.111,1.576 0.077,1.518 0.851,2.662 2.291,3.099 C 0.173,6.307 0.49,6.392 0.819,6.402 1.098,6.409 1.203,6.285 1.22,6.007 1.246,5.574 0.977,5.246 0.825,4.89 0.531,4.199 0.378,3.481 0.236,2.756 0.124,2.189 0.575,1.488 1.145,1.309 2.239,0.965 3.262,1.482 3.408,2.899 3.447,3.27 3.432,3.65 3.348,4.039 3.212,4.667 2.889,5.046 2.281,5.207 2.233,5.22 2.194,5.27 2.122,5.325 2.197,5.474 2.31,5.56 2.457,5.641 3.152,6.022 3.901,6.128 4.674,6.061 5.215,6.013 5.804,5.464 5.829,4.912 5.855,4.354 5.882,3.794 5.768,3.223 5.544,2.101 4.815,1.414 3.908,0.864 3.121,0.387 2.256,0.132 1.33,0.11 1.237,0.108 1.146,0.105 1.103,0 L 0,0 z"
             style="fill:#7b9ac8;fill-opacity:1;fill-rule:nonzero;stroke:none"
             id="path412" />
        </g>
        <g
           id="g414"
           transform="translate(208.1787,120.9225)">
          <path
             inkscape:connector-curvature="0"
             d="m 0,0 c -1.539,0.019 -2.755,0.373 -3.688,1.376 -0.629,0.677 -0.949,1.498 -1.048,2.441 -0.108,1.021 0.089,1.933 0.693,2.738 0.507,0.674 1.158,1.207 1.908,1.606 0.894,0.476 1.823,0.865 2.819,1.069 C 1.596,9.416 2.509,9.478 3.443,9.316 3.865,9.243 4.308,9.227 4.741,9.184 4.988,9.16 5.146,9.073 5.085,8.813 4.914,8.078 4.907,7.315 4.678,6.585 4.585,6.286 4.453,6.014 4.316,5.744 4.16,5.435 3.73,5.435 3.569,5.74 3.393,6.074 3.244,6.426 3.128,6.784 3.065,6.977 2.987,7.169 2.881,7.323 2.526,7.835 2.132,8.036 1.502,7.896 -0.005,7.562 -0.84,6.527 -1.479,5.267 -1.756,4.721 -1.907,4.118 -1.853,3.481 -1.778,2.588 -1.335,1.751 -0.427,1.515 -0.08,1.425 0.241,1.476 0.587,1.546 1.378,1.707 2.062,2.025 2.593,2.643 2.875,2.97 3.291,2.997 3.665,3.101 3.847,3.151 3.967,3.029 3.998,2.827 4.104,2.146 3.847,1.585 3.329,1.192 2.537,0.591 1.014,-0.106 0,0"
             style="fill:#00a9e6;fill-opacity:1;fill-rule:nonzero;stroke:none"
             id="path416" />
        </g>
        <g
           id="g418"
           transform="translate(225.7438,122.3794)">
          <path
             inkscape:connector-curvature="0"
             d="m 0,0 c 0.032,-0.397 -0.142,-0.645 -0.458,-0.907 -0.572,-0.472 -1.211,-0.436 -1.863,-0.416 -0.588,0.017 -1.142,0.192 -1.634,0.5 -0.296,0.185 -0.45,0.486 -0.462,0.877 -0.033,1.048 0.262,2.035 0.508,3.031 0.259,1.043 0.539,2.081 0.838,3.113 0.179,0.615 0.516,1.144 0.985,1.596 0.358,0.345 0.718,0.272 1.094,0.095 0.345,-0.162 0.568,-0.382 0.57,-0.83 0.005,-0.711 -0.256,-1.345 -0.47,-1.988 -0.441,-1.328 -0.815,-2.673 -1.17,-4.025 -0.205,-0.78 0.217,-1.154 1.021,-0.968 0.345,0.081 0.733,0.329 1.049,-0.086 L 0,0 z"
             style="fill:#e56565;fill-opacity:1;fill-rule:nonzero;stroke:none"
             id="path420" />
        </g>
        <g
           id="g422"
           transform="translate(240.7037,123.667)">
          <path
             inkscape:connector-curvature="0"
             d="m 0,0 c -0.233,0.174 -0.262,0.366 -0.366,0.512 -0.339,0.475 -0.756,0.631 -1.32,0.476 -1.005,-0.276 -1.624,-0.982 -2.085,-1.865 -0.16,-0.307 -0.304,-0.622 -0.471,-0.925 -0.294,-0.535 -1.099,-0.821 -1.613,-0.549 -0.2,0.105 -0.384,0.269 -0.386,0.556 -0.003,0.476 0.014,0.943 0.173,1.4 0.283,0.82 0.545,1.645 0.73,2.496 0.06,0.276 0.213,0.545 0.372,0.785 0.285,0.431 1.417,0.512 1.744,0.133 C -2.956,2.711 -3.019,2.333 -3.068,1.971 -3.079,1.887 -3.163,1.813 -3.051,1.685 -1.854,2.7 -0.634,3.708 1.176,3.544 1.068,2.25 0.49,1.167 0,0"
             style="fill:#d78fac;fill-opacity:1;fill-rule:nonzero;stroke:none"
             id="path424" />
        </g>
      </g>
    </g>
  </g>
</svg>
