<?xml version="1.0" encoding="UTF-8" standalone="no"?>
<!-- Created with Inkscape (http://www.inkscape.org/) -->

<svg
   xmlns:dc="http://purl.org/dc/elements/1.1/"
   xmlns:cc="http://creativecommons.org/ns#"
   xmlns:rdf="http://www.w3.org/1999/02/22-rdf-syntax-ns#"
   xmlns:svg="http://www.w3.org/2000/svg"
   xmlns="http://www.w3.org/2000/svg"
   xmlns:sodipodi="http://sodipodi.sourceforge.net/DTD/sodipodi-0.dtd"
   xmlns:inkscape="http://www.inkscape.org/namespaces/inkscape"
   width="350.43799"
   height="97.435867"
   id="svg2"
   version="1.1"
   inkscape:version="0.48.4 r9939"
   sodipodi:docname="logo.svg">
  <defs
     id="defs4" />
  <sodipodi:namedview
     id="base"
     pagecolor="#ffffff"
     bordercolor="#666666"
     borderopacity="1.0"
     inkscape:pageopacity="0.0"
     inkscape:pageshadow="2"
     inkscape:zoom="1.979899"
     inkscape:cx="191.49676"
     inkscape:cy="98.729009"
     inkscape:document-units="px"
     inkscape:current-layer="layer1"
     showgrid="false"
     borderlayer="false"
     fit-margin-top="0"
     fit-margin-left="0"
     fit-margin-right="0"
     fit-margin-bottom="0"
     inkscape:window-width="1629"
     inkscape:window-height="998"
     inkscape:window-x="51"
     inkscape:window-y="24"
     inkscape:window-maximized="0" />
  <metadata
     id="metadata7">
    <rdf:RDF>
      <cc:Work
         rdf:about="">
        <dc:format>image/svg+xml</dc:format>
        <dc:type
           rdf:resource="http://purl.org/dc/dcmitype/StillImage" />
        <dc:title />
      </cc:Work>
    </rdf:RDF>
  </metadata>
  <g
     inkscape:label="Calque 1"
     inkscape:groupmode="layer"
     id="layer1"
     transform="translate(-115.99461,-723.01982)">
    <g
       id="g3939">
      <g
         transform="matrix(1.25,0,0,-1.25,249.3471,820.45569)"
         id="g438">
        <path
           id="path440"
           style="fill:#efac50;fill-opacity:1;fill-rule:nonzero;stroke:none"
           d="m 0,0 c -0.226,0.641 -0.783,0.46 -1.246,0.494 -4.599,0.338 -8.694,3.894 -9.229,9.106 -0.31,3.022 -0.067,5.934 0.538,8.855 1.044,5.04 4.654,7.637 9.118,9.29 C 0.68,28.3 2.239,28.84 3.906,28.783 5.822,28.719 6.346,28.129 5.723,26.362 4.889,24.001 3.829,21.72 2.999,19.357 2.168,16.99 1.525,14.587 1.449,12.018 1.348,8.575 2.971,6.551 5.655,5.604 c 2.936,-1.035 6.486,0.278 8.257,2.833 1.008,1.456 1.219,3.075 1.584,4.753 0.462,2.121 -0.178,3.95 -0.507,5.906 -0.319,1.892 -1.346,3.052 -3.091,3.76 -0.713,0.289 -1.616,0.453 -1.967,1.541 3.526,2.458 7.509,3.323 11.711,2.806 1.629,-0.201 3.208,-1.098 3.959,-2.915 1.018,-2.462 1.637,-4.919 0.88,-7.588 C 26.239,15.849 26.329,14.907 26.118,14.043 24.675,8.119 20.464,4.734 15.167,2.523 12.254,1.308 9.195,0.42 5.964,0.456 5.686,0.459 5.556,0.232 5.458,0 L 0,0 z"
           inkscape:connector-curvature="0" />
      </g>
      <g
         transform="matrix(1.25,0,0,-1.25,321.91585,820.45569)"
         id="g442">
        <path
           id="path444"
           style="fill:#7b9ac8;fill-opacity:1;fill-rule:nonzero;stroke:none"
           d="m 0,0 c -0.732,0.995 -1.834,0.32 -2.741,0.599 -3.033,0.934 -5.407,2.656 -6.995,5.428 -0.192,0.335 -0.207,0.824 -0.71,0.926 l 0.034,-0.035 c -0.487,2.339 -0.617,4.709 -0.497,7.086 0.344,6.824 3.826,11.97 10.304,13.937 1.384,0.42 2.806,0.804 4.287,0.846 C 4.936,28.821 5.41,28.263 5.485,27.014 5.602,25.066 4.392,23.591 3.71,21.989 2.389,18.883 1.698,15.652 1.059,12.393 0.56,9.845 2.587,6.691 5.148,5.887 c 4.921,-1.546 9.521,0.779 10.179,7.15 0.172,1.665 0.105,3.378 -0.273,5.124 -0.612,2.826 -2.065,4.528 -4.798,5.254 -0.216,0.057 -0.388,0.281 -0.715,0.53 0.336,0.671 0.847,1.059 1.506,1.42 3.127,1.714 6.494,2.191 9.97,1.888 2.434,-0.212 5.081,-2.681 5.197,-5.163 0.117,-2.511 0.235,-5.031 -0.278,-7.596 C 24.928,9.447 21.652,6.359 17.574,3.887 14.035,1.742 10.146,0.596 5.98,0.496 5.563,0.486 5.152,0.472 4.962,0 L 0,0 z"
           inkscape:connector-curvature="0" />
      </g>
      <g
         transform="matrix(1.25,0,0,-1.25,210.12549,819.95318)"
         id="g446">
        <path
           id="path448"
           style="fill:#00a9e6;fill-opacity:1;fill-rule:nonzero;stroke:none"
           d="m 0,0 c -6.922,0.087 -12.387,1.679 -16.583,6.189 -2.829,3.041 -4.266,6.734 -4.714,10.973 -0.486,4.593 0.399,8.696 3.116,12.314 2.279,3.033 5.206,5.426 8.579,7.223 4.021,2.142 8.2,3.889 12.676,4.805 4.103,0.84 8.207,1.117 12.409,0.388 1.898,-0.329 3.889,-0.401 5.838,-0.593 1.109,-0.108 1.818,-0.498 1.546,-1.669 -0.77,-3.307 -0.803,-6.735 -1.829,-10.017 -0.421,-1.345 -1.015,-2.569 -1.628,-3.782 -0.702,-1.389 -2.637,-1.392 -3.361,-0.018 -0.79,1.5 -1.463,3.083 -1.984,4.695 -0.281,0.868 -0.631,1.727 -1.11,2.42 -1.596,2.307 -3.367,3.209 -6.199,2.58 -6.779,-1.504 -10.535,-6.159 -13.407,-11.826 -1.244,-2.452 -1.924,-5.166 -1.682,-8.029 0.338,-4.017 2.33,-7.78 6.414,-8.842 1.559,-0.405 3.002,-0.174 4.56,0.143 3.556,0.723 6.63,2.153 9.021,4.93 1.264,1.469 3.135,1.593 4.821,2.06 0.815,0.226 1.354,-0.321 1.495,-1.23 C 18.453,9.648 17.299,7.128 14.972,5.362 11.407,2.657 4.558,-0.476 0,0"
           inkscape:connector-curvature="0" />
      </g>
      <g
         transform="matrix(1.25,0,0,-1.25,308.85848,811.76431)"
         id="g450">
        <path
           id="path452"
           style="fill:#e56565;fill-opacity:1;fill-rule:nonzero;stroke:none"
           d="m 0,0 c 0.142,-1.784 -0.637,-2.902 -2.06,-4.077 -2.573,-2.123 -5.444,-1.96 -8.379,-1.873 -2.641,0.079 -5.133,0.866 -7.344,2.249 -1.332,0.832 -2.024,2.186 -2.079,3.943 -0.148,4.712 1.177,9.153 2.286,13.629 1.163,4.691 2.421,9.36 3.768,14.001 0.804,2.767 2.317,5.144 4.428,7.178 1.607,1.549 3.227,1.22 4.919,0.425 1.551,-0.729 2.553,-1.717 2.565,-3.734 0.019,-3.194 -1.154,-6.045 -2.116,-8.939 -1.984,-5.97 -3.665,-12.021 -5.26,-18.098 -0.92,-3.506 0.977,-5.191 4.591,-4.351 1.553,0.361 3.295,1.479 4.715,-0.388 L 0,0 z"
           inkscape:connector-curvature="0" />
      </g>
      <g
         transform="matrix(1.25,0,0,-1.25,392.94823,804.52643)"
         id="g454">
        <path
           id="path456"
           style="fill:#d78fac;fill-opacity:1;fill-rule:nonzero;stroke:none"
           d="m 0,0 c -1.046,0.78 -1.179,1.646 -1.647,2.303 -1.522,2.134 -3.399,2.835 -5.933,2.14 -4.52,-1.239 -7.306,-4.417 -9.379,-8.387 -0.72,-1.379 -1.365,-2.799 -2.115,-4.161 -1.324,-2.405 -4.942,-3.688 -7.255,-2.467 -0.898,0.474 -1.728,1.207 -1.737,2.5 -0.014,2.14 0.066,4.241 0.778,6.295 1.276,3.686 2.454,7.398 3.283,11.225 0.269,1.243 0.957,2.451 1.673,3.53 1.284,1.936 6.372,2.302 7.843,0.598 1.195,-1.384 0.912,-3.085 0.694,-4.714 -0.05,-0.376 -0.43,-0.709 0.073,-1.286 5.385,4.567 10.87,9.096 19.011,8.36 C 4.802,10.119 2.204,5.249 0,0"
           inkscape:connector-curvature="0" />
      </g>
      <g
         style="fill:#242121;fill-opacity:1"
         transform="matrix(1.25,0,0,-1.25,121.73086,728.25819)"
         id="g458">
        <path
           id="path460"
           style="fill:#242121;fill-opacity:1;fill-rule:nonzero;stroke:none"
           d="M 0,0 C 2.266,1.39 3.65,4.226 6.813,4.149 7.955,4.122 9.098,4.145 10.382,4.145 8.819,-2.358 7.314,-8.619 5.793,-14.945 c 3.528,1.23 3.439,1.323 4.564,4.827 1.122,3.495 2.053,7.029 2.929,10.587 0.379,1.54 3.135,3.687 4.699,3.666 1.881,-0.025 3.773,0.159 5.681,-0.13 -1.493,-6.256 -2.964,-12.425 -4.531,-18.993 2.409,1.388 4.15,2.64 4.586,5.254 0.498,2.987 1.297,5.924 1.955,8.885 0.47,2.113 2.518,2.912 3.679,4.45 0.676,0.895 1.666,0.496 2.526,0.529 1.385,0.054 2.774,0.015 4.22,0.015 -1.527,-6.103 -3.02,-11.972 -4.45,-17.857 -0.321,-1.319 -0.188,-1.092 -1.876,-2.905 l -2.05,-1.759 c -1.324,-1.136 -2.656,-1.858 -4.539,-1.838 -9.257,0.099 -18.517,0.045 -27.775,0.045 0,0.496 4.491,20.109 4.589,20.169"
           inkscape:connector-curvature="0" />
      </g>
      <g
         style="fill:#242121;fill-opacity:1"
         transform="matrix(1.25,0,0,-1.25,463.7626,752.07581)"
         id="g462">
        <path
           id="path464"
           style="fill:#242121;fill-opacity:1;fill-rule:nonzero;stroke:none"
           d="m 0,0 -9.05,0 c 0.646,2.394 1.29,4.813 1.953,7.227 0.845,3.079 0.12,4.058 -3.032,4.063 -0.74,0.001 -1.48,0 -2.373,0 -0.742,-2.554 -1.445,-5.13 -2.244,-7.676 -0.895,-2.852 -2.812,-4.284 -5.721,-4.21 -1.665,0.043 -3.407,-0.408 -5.022,0.337 0.695,3.373 4.069,13.474 4.497,15.023 l 13.672,0 c 1.644,0 3.292,-0.072 4.932,0.018 1.884,0.104 3.297,-0.703 4.524,-2.003 C 2.136,11.125 0.685,2.71 0,0"
           inkscape:connector-curvature="0" />
      </g>
      <g
         style="fill:#242121;fill-opacity:1"
         transform="matrix(1.25,0,0,-1.25,283.40685,738.01681)"
         id="g466">
        <path
           id="path468"
           style="fill:#242121;fill-opacity:1;fill-rule:nonzero;stroke:none"
           d="M 0,0 C -6.625,0.152 -7.897,-0.362 -8.302,-3.255 -3.419,-3.812 -3.12,-3.699 0,0 m 7.486,-1.554 c 2.091,1.968 4.371,2.986 6.445,4.325 0.907,0.585 1.898,0.782 3,0.766 3.884,-0.054 7.769,-0.05 11.654,-0.004 1.26,0.015 2.347,-0.236 3.445,-0.915 1.902,-1.176 2.383,-2.567 1.127,-4.354 -0.752,-1.071 -1.766,-1.879 -3.09,-2.251 -2.442,-0.684 -4.836,-0.758 -7.227,0.107 0.086,0.441 0.103,0.6 0.148,0.751 0.274,0.921 1.523,1.693 0.468,2.814 -0.526,0.558 -2.744,0.385 -3.712,-0.03 -2.228,-0.953 -2.882,-2.95 -3.269,-4.99 -0.417,-2.198 -1.332,-4.233 -1.665,-6.431 l -9.269,0 c 0.691,3.272 1.36,6.442 2.062,9.769 C 6.366,-2.435 5.796,-3.312 5.112,-3.958 2.286,-6.627 -1.029,-7.32 -4.757,-6.929 c -1.457,0.153 -2.943,0.025 -4.34,0.025 -0.42,-0.68 -0.326,-1.216 -0.121,-1.913 l 12.01,0 c -1.722,-1.94 -3.511,-3.57 -6.229,-3.551 -3.636,0.025 -7.273,-0.01 -10.91,0.02 -0.707,0.006 -1.381,-0.029 -2.131,0.312 -2.425,1.103 -3.437,1.699 -2.421,4.993 0.756,2.452 0.974,5.081 3.103,6.86 1.42,1.186 2.944,2.246 4.384,3.409 0.607,0.491 1.264,0.272 1.89,0.275 4.628,0.028 9.257,0.02 13.886,0.014 2.519,-0.004 3.052,-0.553 3.12,-3.177 0.013,-0.494 0.002,-0.989 0.002,-1.892"
           inkscape:connector-curvature="0" />
      </g>
      <g
         style="fill:#242121;fill-opacity:1"
         transform="matrix(1.25,0,0,-1.25,310.71998,753.20582)"
         id="g470">
        <path
           id="path472"
           style="fill:#242121;fill-opacity:1;fill-rule:nonzero;stroke:none"
           d="m 0,0 c 1.638,1.64 3.218,3.167 4.727,4.76 0.551,0.582 1.176,0.497 1.814,0.482 6.425,-0.146 12.855,0.309 19.276,-0.225 1.372,-0.114 1.955,0.618 2.509,3.208 -2.824,0 -5.606,0.183 -8.353,-0.048 -3.188,-0.269 -5.347,1.579 -5.104,5.149 0.273,3.994 2.134,6.941 5.283,9.183 0.555,0.395 1.243,0.635 2.044,0.629 6.591,-0.049 13.183,-0.028 20.191,-0.028 -1.448,-1.475 -2.673,-2.653 -3.811,-3.91 -0.603,-0.665 -1.317,-0.551 -2.039,-0.552 -2.646,-0.007 -5.292,0.013 -7.938,-0.008 -2.613,-0.02 -3.641,-0.93 -4.271,-3.965 2.906,0 5.757,-0.028 8.607,0.01 1.925,0.026 3.524,-0.703 4.645,-2.184 1.121,-1.48 0.871,-3.376 0.579,-4.993 C 37.594,4.392 35.973,1.82 32.984,0.364 32.266,0.014 31.538,-0.237 30.676,-0.234 20.671,-0.197 10.665,-0.209 0.66,-0.203 0.524,-0.202 0.387,-0.122 0,0"
           inkscape:connector-curvature="0" />
      </g>
      <g
         style="fill:#242121;fill-opacity:1"
         transform="matrix(1.25,0,0,-1.25,386.14648,747.75869)"
         id="g474">
        <path
           id="path476"
           style="fill:#242121;fill-opacity:1;fill-rule:nonzero;stroke:none"
           d="m 0,0 c 2.237,1.034 3.795,2.506 4.376,5.107 0.717,3.212 1.923,3.948 3.489,5.654 0.929,1.012 2.169,0.422 3.266,0.533 0.802,0.081 1.618,0.016 2.47,0.016 C 13.251,7.731 11.923,4.589 11.55,1.241 11.368,-0.385 6.258,-3.164 5.319,-4.177 4.91,-4.618 4.446,-4.565 3.968,-4.565 c -8.837,-10e-4 -17.673,0.003 -26.509,0.015 -0.15,10e-4 -0.3,0.116 -0.559,0.222 0.575,3.514 1.455,6.999 2.205,10.491 0.442,2.057 2.636,3.246 4.136,4.733 0.868,0.86 2.033,0.31 3.06,0.398 0.894,0.076 1.8,0.016 3.002,0.016 -0.348,-4.061 -1.712,-7.785 -2.507,-11.531 0.362,-0.347 0.486,-0.04 0.673,0.017 3.519,1.082 3.822,4.142 4.304,7.058 0.393,2.372 2.744,4.45 5.17,4.455 1.569,0.003 3.138,-10e-4 4.707,-0.016 C 1.803,11.291 1.956,11.185 2.109,11.127 1.433,7.531 -0.199,-0.18 0,0"
           inkscape:connector-curvature="0" />
      </g>
      <g
         style="fill:#242121;fill-opacity:1"
         transform="matrix(1.25,0,0,-1.25,249.76774,738.31993)"
         id="g478">
        <path
           id="path480"
           style="fill:#242121;fill-opacity:1;fill-rule:nonzero;stroke:none"
           d="m 0,0 c -1.452,0.436 -2.442,0.282 -3.414,0.271 -1.639,-0.019 -3.58,-0.895 -4.163,-3.079 -0.434,-1.625 -1.191,-3.719 -0.535,-5.674 3.605,-0.325 5.721,0.181 7.093,3.516 C -0.469,-3.63 0,-1.699 0,0 M 13.364,9.214 C 12.015,7.322 11.044,5.663 9.782,4.266 8.278,2.601 8.041,0.579 7.591,-1.436 6.808,-4.94 5.951,-8.428 5.078,-12.119 l -9.878,0 c -2.808,0 -5.616,-0.01 -8.423,0.002 -3.358,0.015 -4.97,1.795 -4.447,5.106 0.234,1.48 0.726,2.937 1.255,4.347 0.504,1.345 0.73,1.932 1.968,2.97 0.899,0.755 0,0 3.356,2.35 2.102,1.289 1.874,1.158 3.085,1.121 2.062,-0.065 4.129,0.013 6.193,-0.03 1.195,-0.025 2.069,0.149 2.95,1.376 C 3.186,7.98 2.453,7.005 3.186,7.98 3.594,8.522 4.019,9.224 4.909,9.219 7.597,9.205 10.286,9.214 13.364,9.214"
           inkscape:connector-curvature="0" />
      </g>
      <g
         style="fill:#242121;fill-opacity:1"
         transform="matrix(1.25,0,0,-1.25,175.09186,749.02918)"
         id="g482">
        <path
           id="path484"
           style="fill:#242121;fill-opacity:1;fill-rule:nonzero;stroke:none"
           d="M 0,0 C 5.339,0.003 7.194,3.575 7.07,8.712 2.026,9.524 -1.095,7.096 0,0 M 15.276,3.082 C 14.961,1.78 14.269,0.823 13.192,0.12 11.519,-0.973 9.795,-1.988 8.145,-3.114 7.468,-3.576 6.778,-3.552 6.05,-3.552 c -3.969,0 -7.948,-0.172 -11.905,0.051 -3.503,0.198 -4.916,2.247 -4.028,5.306 0.31,1.07 0.549,2.201 0.938,3.193 0.574,1.464 1.084,2.925 2.695,4.018 2.878,2.207 1.874,1.534 2.878,2.207 1.058,0.709 2.14,1.205 3.569,1.155 4.212,-0.146 8.433,-0.05 12.651,-0.052 3.173,-0.002 4.584,-1.806 3.636,-4.874 C 16.255,6.71 15.465,3.867 15.276,3.082"
           inkscape:connector-curvature="0" />
      </g>
      <g
         style="fill:#242121;fill-opacity:1"
         transform="matrix(1.25,0,0,-1.25,423.50885,738.41343)"
         id="g486">
        <path
           id="path488"
           style="fill:#242121;fill-opacity:1;fill-rule:nonzero;stroke:none"
           d="m 0,0 c -2.214,0.576 -4.06,0.821 -5.667,-1.122 -0.723,-0.875 -1.444,-1.785 -1.994,-2.727 -0.494,-0.849 -0.902,-2.023 -0.053,-3.069 0.962,-1.184 2.276,-1.785 3.688,-2.12 0.929,-0.22 1.421,0.283 1.685,1.293 C -1.682,-5.228 -0.846,-2.757 0,0 m 5.826,-11.052 c -6.454,0 -12.961,-0.025 -19.468,0.017 -1.654,0.011 -3.457,2.309 -3.635,4.25 -0.395,4.299 1.67,7.111 5.218,9.203 1.738,1.024 3.473,1.488 5.498,1.451 C -0.955,3.767 4.654,3.834 10.321,3.834 10.078,2.427 6.901,-7.776 5.826,-11.052"
           inkscape:connector-curvature="0" />
      </g>
      <g
         style="fill:#242121;fill-opacity:1"
         transform="matrix(1.25,0,0,-1.25,197.72599,735.53057)"
         id="g490">
        <path
           id="path492"
           style="fill:#242121;fill-opacity:1;fill-rule:nonzero;stroke:none"
           d="m 0,0 c 0.46,1.182 0.893,1.543 2.026,1.539 5.87,-0.025 11.741,0.067 17.609,-0.051 2.291,-0.046 3.948,-1.328 3.869,-3.856 -0.098,-3.123 -1.176,-5.978 -1.836,-8.943 -0.137,-0.613 -0.012,-1.295 -0.416,-1.953 l -8.317,0 c 0.408,2.291 0.664,4.504 1.25,6.626 0.227,0.822 0.312,1.596 0.3,2.395 -0.023,1.535 -0.701,2.225 -2.203,2.287 -1.148,0.048 -2.299,0.01 -3.516,0.01 C 8.109,-4.476 7.532,-6.944 6.82,-9.373 5.972,-12.262 3.727,-13.85 0.708,-13.855 -3.601,-13.861 -3.51,-13.882 -2.562,-9.71 -2.247,-8.32 -0.708,-1.818 0,0"
           inkscape:connector-curvature="0" />
      </g>
    </g>
  </g>
</svg>
