<?xml version="1.0"?>
<svg xmlns="http://www.w3.org/2000/svg" viewBox="0 0 252.281 252.281">
  <path d="M126.14 77.627c-26.793 0-48.513 21.72-48.513 48.513s21.72 48.513 48.513 48.513 48.513-21.72 48.513-48.513-21.72-48.513-48.513-48.513zm0 63.998c-8.552 0-15.484-6.932-15.484-15.484s6.932-15.484 15.484-15.484 15.484 6.932 15.484 15.484-6.932 15.484-15.484 15.484z" fill="#b6b6b5"/>
  <path d="M126.14 0C56.475 0 0 56.475 0 126.14s56.475 126.14 126.14 126.14 126.14-56.475 126.14-126.14S195.806 0 126.14 0zm0 174.653c-26.793 0-48.513-21.72-48.513-48.513s21.72-48.513 48.513-48.513 48.513 21.72 48.513 48.513-21.72 48.513-48.513 48.513z" fill="#fcc00d"/>
  <path d="M206.386 130.842c.575 0 1.147-.035 1.686-.241 1.444-.497 2.4-2.023 2.352-3.529a3.793 3.793 0 0 0-.738-2.06c-.664-.939-1.822-1.472-2.963-1.444l-2.568-.001v2.17l-.007.03.007-.001v7.929h1.045v-2.853m-.01-6.339c.588-.001 1.177-.014 1.764.014.875.058 1.724.546 2.152 1.321.536.917.475 2.157-.186 2.994a2.567 2.567 0 0 1-1.988 1.031c-.577.008-1.142.004-1.732.004l-.01-5.364z" fill="#927d4c"/>
  <g fill="#927d4c">
    <path d="M221.783 129.393v-1.968h-1.537a4.29 4.29 0 0 1 .087 1.968h1.45z"/>
    <path d="M219.956 130.513a4.31 4.31 0 1 1-.207-4.208h1.084a5.261 5.261 0 1 0 .161 4.209h-1.038v-.001z"/>
  </g>
  <path fill="none" stroke="#927d4c" stroke-width=".523" stroke-miterlimit="10" d="M189.794 118.504l-8.223 4.432v10.162"/>
  <path d="M191.58 117.712c-.296-.385.13-.893.56-.735 1.849.284 3.713.895 5.178 2.092.89.74 1.635 1.814 1.575 3.019.039 1.592-.981 2.948-2.094 3.978-.33.735-.606 1.525-1.225 2.081-.578.448-.619 1.245-1.113 1.755-.54.584-.439.216-.669.908-.417.746-1.082 1.175-1.754 1.56-.256.075-.81.363-.978-.119-.059-.26 1.056-.917.13-.622-1.56.144-3.525.039-4.497-1.384-.187-.431-.161-.565-.162-.813-.704-.508-1.202-1.287-1.141-2.186-.781-.542-1.523-1.314-1.557-2.322-.134-.988.633-1.787 1.412-2.261 1.503-.901 3.308-1.125 5.03-1.122 1.79.107 3.652.503 5.111 1.608.567.414.952 1.008 1.316 1.596l.032-.032c.959-.924 1.617-2.468.988-3.745-.738-1.302-2.138-2.058-3.499-2.557-.845-.362-1.796-.351-2.643-.699zm-6.377 6.161c-.888.712-.232 2.163.685 2.447 1.223-1 2.848-1.289 4.387-1.28 1.38.087 2.805.401 3.92 1.263.218.25.485-.041.712-.103.333-.212.663-.432.984-.663-.141-.526-.362-1.045-.786-1.407-1.287-1.182-3.108-1.585-4.811-1.612-1.761-.041-3.691.193-5.091 1.355zm6.155 3.478c.653-.091 1.516-.25 1.77-.342.342-.104.21-.159.095-.247-.87-.544-1.912-.701-2.919-.76-1.102-.004-2.259.112-3.235.663-.1.061-.42.12.002.241.948.331 3.289.464 3.493.473.204.009.794-.028.794-.028zm-5.037.355c.089.231.27.574.633.785.153-.102.387-.218.584-.322.127-.052.263-.142.394-.188-.064-.004-.16-.016-.348-.024a10.852 10.852 0 0 1-1.263-.251zm6.181.369c.339.094.662.25.902.547.473-.132 1-.439.701-.991-.531.157-1.068.301-1.603.444zm-4.408.907c.301.178.714.168 1.036.234 1.003.066 2.028.045 3.026-.125-.196-.289-.574-.289-.881-.376-1.022-.244-2.197-.104-3.181.267zm-.466.933c.654.695 1.687.772 2.582.815 1-.023 2.088-.218 2.86-.904a10.36 10.36 0 0 1-5.442.089z" fill="#927d4c"/>
  <circle cx="190.303" cy="117.261" r=".72" fill="#927d4c"/>
  <path fill="#927d4c" d="M190.303 138.354l-8.93-5.083v-4.583l8.93 5.083z"/>
  <path d="M198.711 129.586v3.381l-7.886 4.488v-3.381l7.886-4.488m.523-.898l-8.93 5.083v4.583l8.93-5.083v-4.583z" fill="#937d4c"/>
  <path fill="#927d4c" d="M227.673 125.576v-2.008h-5.067v10.131h1.924v-4.306h2.998v-1.968h-2.998v-1.849z"/>
  <path fill="#927d4c" d="M235.741 133.699l-3.01-5.264 2.783-4.867h-2.316l-1.625 2.842-1.625-2.842h-2.316l2.783 4.867-3.01 5.264h2.316l1.852-3.239 1.852 3.239z"/>
  <g>
    <path d="M126.14 4.073c32.605 0 63.259 12.697 86.315 35.753 23.056 23.056 35.753 53.709 35.753 86.315s-12.697 63.259-35.753 86.315c-23.056 23.056-53.709 35.753-86.315 35.753s-63.259-12.697-86.315-35.753C16.77 189.4 4.073 158.746 4.073 126.14S16.77 62.881 39.825 39.825C62.881 16.77 93.535 4.073 126.14 4.073m0-4.073C56.475 0 0 56.475 0 126.14s56.475 126.14 126.14 126.14 126.14-56.475 126.14-126.14S195.806 0 126.14 0z" fill="#020203"/>
  </g>
  <g>
    <path d="M126.14 82.379c24.13 0 43.762 19.631 43.762 43.762s-19.631 43.762-43.762 43.762-43.762-19.631-43.762-43.762 19.632-43.762 43.762-43.762m0-4.752c-26.793 0-48.513 21.72-48.513 48.513s21.72 48.513 48.513 48.513 48.513-21.72 48.513-48.513-21.72-48.513-48.513-48.513z" fill="#020203"/>
  </g>
  <g>
    <path d="M126.14 87.198c21.473 0 38.942 17.469 38.942 38.942s-17.469 38.942-38.942 38.942-38.942-17.469-38.942-38.942 17.47-38.942 38.942-38.942m0-.136c-21.582 0-39.078 17.496-39.078 39.078s17.496 39.078 39.078 39.078c21.582 0 39.078-17.496 39.078-39.078s-17.495-39.078-39.078-39.078z" fill="#020203"/>
  </g>
  <g>
    <path d="M126.14 110.71c8.508 0 15.43 6.922 15.43 15.43s-6.922 15.43-15.43 15.43-15.43-6.922-15.43-15.43 6.922-15.43 15.43-15.43m0-.054c-8.552 0-15.484 6.933-15.484 15.484s6.933 15.484 15.484 15.484 15.484-6.933 15.484-15.484-6.932-15.484-15.484-15.484z" fill="#020203"/>
  </g>
  <g>
    <path d="M91.412 184.057h5.507c1.26 0 2.744 1.178 3.406 1.825l9.666 10.716v-12.537h3.282v17.106h-5.747c-1.023-.035-2.03-.244-3.201-1.395l-9.646-10.735v12.13h-3.267v-17.11zM159.85 201.283c-3.934.535-7.91.59-11.894.256-2.333-.206-4.62-.686-6.712-1.779-2.643-1.372-3.488-4.45-3.453-7.243.03-2.578.794-5.33 3.096-6.829 1.508-.988 3.116-1.314 4.83-1.624 4.67-.821 9.347-.635 13.904-.14v2.442c-5.371-1.042-11.049-.783-12.975 1.686-1.205 1.535-1.376 3.062-1.376 4.348 0 2.318.795 5.837 5.504 6.519 3.073.45 6.115.109 9.08-.43v2.794zM126.204 198.62c.465.003 7.871.038 10.414 0v2.557c-5.12.198-10.038.283-15.212.07-4.387-.182-5.146-2.387-5.228-4.507v-12.68h20.195v2.437H123.31v4.356h11.91v2.376h-11.91c0 1.286.043 2.744.054 3.007.066 1.655.837 2.267 2.841 2.383" fill="#2068b1"/>
  </g>
  <g fill="#927d4c">
    <path d="M55.605 109.24a5.15 5.15 0 0 1-.01.234c-.028.249 0 .367-.718.367s-.69-.118-.718-.367a16.09 16.09 0 0 1 0-1.464c.028-.249 0-.367.718-.367s.69.118.718.367c.004.034.007.132.01.249h.982a6.845 6.845 0 0 0-.028-.505c-.057-.498.14-.975-1.681-.975-1.821 0-1.624.477-1.681.975-.018.162-.035.574-.034.988.002.415.015.826.034.988.057.498-.14.975 1.681.975 1.821 0 1.624-.477 1.681-.975.011-.095.02-.275.026-.49h-.98zM43.96 106.878l-.958 2.8-.959-2.8-1.433-.007v3.757h.958v-2.799l.958 2.799h.958l.951-2.799v2.799h.958v-3.757zM56.802 106.871h2.754v.958h-.898v2.799H57.7v-2.799h-.898zM49.415 110.628l1.099-3.761h1.428l1.102 3.761h-.958l-.226-.777h-1.258l.178-.611h.899l-.446-1.532-.86 2.92zM38.302 107.644c.718 0 .69.118.718.367a16.052 16.052 0 0 1 0 1.464c-.028.249 0 .367-.718.367s-.69-.118-.718-.367a16.09 16.09 0 0 1 0-1.464c.028-.25 0-.367.718-.367l.001-.865c-1.821 0-1.624.477-1.681.975-.018.162-.036.574-.034.988.002.415.015.826.034.988.057.498-.14.975 1.681.975 1.821 0 1.624-.477 1.681-.975.018-.162.032-.574.034-.988.002-.415-.015-.826-.034-.988-.057-.498.14-.975-1.681-.975l-.001.865zM35.067 109.24a3.962 3.962 0 0 1-.01.234c-.028.249 0 .367-.718.367s-.69-.118-.718-.367a16.052 16.052 0 0 1 0-1.464c.028-.249 0-.367.718-.367s.69.118.718.367c.004.034.007.132.01.249h.982a6.845 6.845 0 0 0-.028-.505c-.057-.498.14-.975-1.681-.975-1.821 0-1.624.477-1.681.975-.018.162-.036.574-.034.988.002.415.015.826.034.988.057.498-.14.975 1.681.975 1.821 0 1.624-.477 1.681-.975.011-.095.02-.275.026-.49h-.98zM47.726 109.769h-.581v-.857l.581-.003c.718 0 .696-.118.724-.367.009-.081.007-.014.006-.222-.001-.207.003-.136-.006-.217-.028-.249-.006-.367-.724-.367l-.582.001.001 2.888h-.96v-3.754h1.541c1.821 0 1.621.478 1.688.975.008.059.008.33.008.477 0 .118 0 .389-.008.475-.045.499.133.971-1.688.971zM29.091 124.777l-5.998-.007a1.571 1.571 0 0 1-1.571-1.571v-9.13a1.57 1.57 0 0 1 1.571-1.571l3.754-.004a.816.816 0 0 0 .816-.816l.011-3.65c0-.189.153-.342.342-.342h2.201c.189 0 .342.153.342.342l.023 16.409a.342.342 0 0 1-.342.342l-1.149-.002-.028.815h1.501a.816.816 0 0 0 .816-.816v-17.097a.816.816 0 0 0-.816-.816h-2.887a.816.816 0 0 0-.816.816l.004 3.659a.342.342 0 0 1-.342.342l-3.429-.006a2.395 2.395 0 0 0-2.395 2.395v9.13a2.395 2.395 0 0 0 2.395 2.395l5.97-.002.027-.815z"/>
    <path d="M26.861 121.417v-5.906a.896.896 0 1 0-1.792 0v6.376a.896.896 0 1 0 1.792 0v-.47l.815.028v.441a1.71 1.71 0 1 1-3.422 0v-6.376a1.71 1.71 0 1 1 3.422 0v5.934l-.815-.027zM34.792 124.777h-1.123a.342.342 0 0 1-.342-.342l.014-11.588c0-.189.153-.342.342-.342h2.201c.189 0 .342.153.342.342l.023 11.587a.342.342 0 0 1-.342.342l-1.115.001v.812l1.439.001a.816.816 0 0 0 .816-.816v-12.276a.816.816 0 0 0-.816-.816h-2.887a.816.816 0 0 0-.816.816l-.002 12.273c0 .451.363.816.813.816l1.453.001v-.811zM45.16 114.785l-2.418-.003a1.347 1.347 0 1 0 0 2.694l3.312.009c.868 0 1.571.704 1.571 1.571l-.011 4.124c0 .868-.704 1.571-1.571 1.571l-6.575.012a.342.342 0 0 1-.342-.342v-1.597c0-.189.153-.342.342-.342l4.481-.015a1.347 1.347 0 1 0 0-2.694l-3.244-.013a1.571 1.571 0 0 1-1.571-1.571v-4.12c0-.868.704-1.571 1.571-1.571l6.095-.029c.189 0 .342.153.342.342v1.633a.342.342 0 0 1-.342.342l-1.64-.001-.028.803 2.005.001a.814.814 0 0 0 .816-.813l.003-2.288a.816.816 0 0 0-.816-.816l-6.435.003a2.395 2.395 0 0 0-2.395 2.395v4.12a2.395 2.395 0 0 0 2.395 2.395l3.244-.006a.542.542 0 1 1 0 1.083l-4.83-.001a.816.816 0 0 0-.816.816v2.284c0 .451.365.816.816.816l6.924-.001a2.395 2.395 0 0 0 2.395-2.395l.011-4.124a2.395 2.395 0 0 0-2.395-2.395l-3.312.009a.54.54 0 1 1 0-1.083l2.39.001.028-.804zM57.344 117.05h1.038a.342.342 0 0 0 .342-.342l-.004-2.639a1.57 1.57 0 0 0-1.571-1.571h-5.195a1.57 1.57 0 0 0-1.571 1.571v9.13c0 .868.704 1.571 1.571 1.571h5.195c.868 0 1.571-.704 1.571-1.571l.004-2.509a.342.342 0 0 0-.342-.342h-1.96a.342.342 0 0 0-.342.342l.011 1.196c0 .945-.595 1.711-1.54 1.711-.945 0-1.54-.766-1.54-1.711v-6.376c0-.945.595-1.711 1.54-1.711.945 0 1.54.766 1.54 1.711l-.011 1.198c0 .189.153.342.342.342h.922l-.028.823h-1.233a.816.816 0 0 1-.816-.816l.01-1.547c0-.495-.23-.896-.725-.896s-.725.401-.725.896v6.376c0 .495.23.896.725.896s.725-.401.725-.896l-.01-1.545c0-.451.366-.816.816-.816h2.646c.451 0 .816.366.816.816l-.001 2.858a2.395 2.395 0 0 1-2.395 2.395h-5.195a2.396 2.396 0 0 1-2.396-2.395v-9.13a2.395 2.395 0 0 1 2.396-2.395h5.195a2.395 2.395 0 0 1 2.395 2.395l.001 2.988a.816.816 0 0 1-.816.816h-1.413l.028-.823z"/>
  </g>
  <g fill="#2068b1">
    <path d="M82.174 226.457c.604 0 1.122.216 1.556.649s.65.953.65 1.56-.216 1.128-.647 1.562-.951.65-1.559.65c-.609 0-1.131-.216-1.564-.649s-.65-.954-.65-1.563.217-1.13.652-1.562.955-.647 1.562-.647zm-.006 4.058c.506 0 .94-.181 1.302-.543s.543-.797.543-1.305-.181-.942-.542-1.302-.796-.541-1.304-.541-.942.18-1.302.541-.541.794-.541 1.302.18.943.541 1.305.796.543 1.303.543zm1.055-1.383c-.133.537-.48.806-1.043.806-.35 0-.631-.114-.845-.343s-.321-.536-.321-.923c0-.383.106-.686.318-.908s.5-.334.866-.334c.262 0 .484.065.667.195s.294.311.335.543h-.407c-.059-.277-.261-.416-.606-.416-.242 0-.431.084-.565.252s-.202.395-.202.68c0 .273.07.493.209.658s.322.248.546.248c.359 0 .573-.152.642-.457h.406zM86.63 230.825h-.55v-3.378c-.223.148-.567.223-1.034.223v-.434c.674 0 1.061-.26 1.16-.779h.425v4.368zM90.225 228.845c-.283.313-.609.469-.979.469-.357 0-.66-.13-.907-.391s-.371-.592-.371-.995c0-.408.123-.755.368-1.042s.571-.429.977-.429c.465 0 .826.179 1.084.536s.387.873.387 1.547c0 1.572-.507 2.358-1.521 2.358-.32 0-.592-.09-.816-.27s-.359-.446-.406-.8h.568c.047.424.275.636.686.636.264 0 .477-.139.639-.417s.26-.679.291-1.202zm.006-.425c-.008-.494-.093-.873-.255-1.135s-.379-.394-.65-.394c-.238 0-.429.096-.571.287s-.214.43-.214.715c0 .289.073.526.218.71s.34.277.584.277c.303 0 .599-.154.888-.46zM93.562 228.845c-.283.313-.609.469-.979.469-.357 0-.66-.13-.907-.391s-.371-.592-.371-.995c0-.408.123-.755.368-1.042s.571-.429.977-.429c.465 0 .826.179 1.084.536s.387.873.387 1.547c0 1.572-.507 2.358-1.521 2.358-.32 0-.592-.09-.816-.27s-.359-.446-.406-.8h.568c.047.424.275.636.686.636.264 0 .477-.139.639-.417s.26-.679.291-1.202zm.006-.425c-.008-.494-.093-.873-.255-1.135s-.379-.394-.65-.394c-.238 0-.429.096-.571.287s-.214.43-.214.715c0 .289.073.526.218.71s.34.277.584.277c.303 0 .599-.154.888-.46zM95.22 228.508c.283-.311.608-.466.976-.466.359 0 .663.13.91.391s.371.592.371.995c0 .408-.123.755-.368 1.042s-.571.429-.977.429c-.465 0-.826-.179-1.084-.538s-.387-.874-.387-1.545c0-1.572.506-2.358 1.518-2.358.322 0 .595.09.817.27s.358.446.407.8h-.568c-.049-.424-.277-.636-.686-.636-.264 0-.477.139-.64.417s-.259.677-.289 1.199zm-.006.427c.008.492.093.87.255 1.134s.379.396.65.396c.238 0 .429-.096.571-.287s.214-.43.214-.715c0-.289-.073-.526-.218-.712s-.34-.278-.584-.278c-.303 0-.599.154-.888.462zM103.174 230.825h-.583l-2.25-3.39v3.39h-.539v-4.295h.58l2.25 3.39v-3.39h.542v4.295zM107.337 230.825h-3.202v-4.295h3.103v.51h-2.534v1.313h2.37v.51h-2.37v1.453h2.634v.509zM109.936 230.898c-.607 0-1.092-.2-1.455-.599s-.543-.94-.543-1.622.181-1.222.543-1.622.847-.599 1.455-.599c.467 0 .864.126 1.192.378s.513.584.554.996h-.586c-.023-.271-.141-.487-.353-.647s-.479-.24-.801-.24c-.436 0-.78.15-1.034.45s-.381.728-.381 1.285c0 .555.126.982.378 1.283s.594.451 1.025.451c.336 0 .607-.082.814-.246s.324-.398.352-.703h.586c-.041.457-.221.811-.539 1.061s-.721.374-1.207.374zM117.436 230.825h-.571v-2.021h-2.232v2.021h-.568v-4.295h.568v1.764h2.232v-1.764h.571v4.295zM119.584 227.646c.443 0 .797.142 1.062.425s.397.684.397 1.201c0 .516-.132.916-.397 1.2s-.619.426-1.062.426c-.441 0-.794-.142-1.059-.426s-.397-.684-.397-1.2c0-.518.132-.918.397-1.201s.617-.425 1.059-.425zm0 2.819c.264 0 .478-.1.642-.3s.246-.498.246-.892c0-.396-.082-.695-.246-.895s-.378-.3-.642-.3-.478.1-.642.3-.246.499-.246.895c0 .395.082.692.246.892s.378.3.642.3zM125.862 230.825h-.554v-2.01c0-.258-.037-.441-.111-.551s-.198-.164-.372-.164c-.268 0-.53.166-.788.498v2.227h-.551v-2.01c0-.258-.037-.441-.111-.551s-.199-.164-.375-.164c-.268 0-.529.166-.785.498v2.227h-.554v-3.108h.554v.396c.262-.311.552-.466.87-.466.455 0 .745.188.87.563.207-.244.383-.399.527-.464s.286-.098.425-.098c.637 0 .955.382.955 1.146v2.031zM127.98 230.898c-.457 0-.824-.143-1.102-.429s-.416-.685-.416-1.197c0-.508.134-.906.403-1.194s.62-.432 1.053-.432c.443 0 .797.142 1.062.425s.397.684.397 1.201v.132h-2.341c.023.359.123.626.297.8s.39.261.646.261c.193 0 .368-.049.523-.148s.237-.239.245-.42h.571c-.043.32-.188.567-.435.741s-.548.26-.903.26zm.814-1.927c-.045-.299-.146-.522-.302-.671s-.348-.223-.574-.223c-.221 0-.41.074-.568.221s-.259.372-.302.672h1.746zM133.271 230.825h-3.202v-4.295h3.103v.51h-2.534v1.313h2.37v.51h-2.37v1.453h2.634v.509zM134.551 230.825h-.554v-4.295h.554v4.295zM136.687 230.898c-.457 0-.824-.143-1.102-.429s-.416-.685-.416-1.197c0-.508.134-.906.403-1.194s.62-.432 1.053-.432c.443 0 .797.142 1.062.425s.397.684.397 1.201v.132h-2.341c.023.359.123.626.297.8s.39.261.646.261c.193 0 .368-.049.523-.148s.237-.239.245-.42h.571c-.043.32-.188.567-.435.741s-.547.26-.903.26zm.814-1.927c-.045-.299-.146-.522-.302-.671s-.348-.223-.574-.223c-.221 0-.41.074-.568.221s-.259.372-.302.672h1.746zM139.962 230.898c-.441 0-.794-.142-1.059-.426s-.397-.684-.397-1.2c0-.518.132-.918.397-1.201s.618-.425 1.059-.425c.34 0 .624.086.851.258s.362.42.403.744h-.568c-.008-.186-.078-.327-.209-.425s-.291-.146-.476-.146c-.264 0-.478.1-.642.3s-.246.499-.246.895c0 .395.082.692.246.892s.378.3.642.3c.186 0 .344-.049.476-.146s.202-.238.209-.422h.568c-.041.324-.175.572-.403.744s-.511.258-.851.258zM142.91 230.831a2.122 2.122 0 0 1-.396.035c-.227 0-.393-.041-.498-.122s-.171-.185-.196-.312-.038-.3-.038-.519v-1.764h-.384v-.434h.384v-.773h.551v.773h.504v.434h-.504v1.793c0 .213.027.348.081.406s.127.086.221.086c.096 0 .188-.008.275-.023v.42zM144.984 228.221a1.254 1.254 0 0 0-.337-.035c-.281 0-.522.147-.724.442v2.197h-.554v-3.108h.554v.434c.232-.336.502-.504.809-.504.078 0 .162.008.252.023v.551zM146.627 227.646c.443 0 .797.142 1.062.425s.397.684.397 1.201c0 .516-.132.916-.397 1.2s-.619.426-1.062.426c-.441 0-.794-.142-1.059-.426s-.397-.684-.397-1.2c0-.518.132-.918.397-1.201s.618-.425 1.059-.425zm0 2.819c.264 0 .478-.1.642-.3s.246-.498.246-.892c0-.396-.082-.695-.246-.895s-.378-.3-.642-.3-.478.1-.642.3-.246.499-.246.895c0 .395.082.692.246.892s.379.3.642.3zM149.258 228.112c.275-.311.585-.466.929-.466.701 0 1.052.382 1.052 1.146v2.033h-.554v-2.01c0-.254-.045-.437-.136-.548s-.24-.167-.447-.167c-.281 0-.563.166-.844.498v2.227h-.554v-3.108h.554v.395zM152.595 227.128h-.554v-.598h.554v.598zm0 3.697h-.554v-3.108h.554v3.108zM154.669 230.898c-.441 0-.794-.142-1.059-.426s-.397-.684-.397-1.2c0-.518.132-.918.397-1.201s.618-.425 1.059-.425c.34 0 .624.086.851.258s.362.42.403.744h-.568c-.008-.186-.078-.327-.209-.425s-.291-.146-.476-.146c-.264 0-.478.1-.642.3s-.246.499-.246.895c0 .395.082.692.246.892s.378.3.642.3c.186 0 .344-.049.476-.146s.202-.238.209-.422h.568c-.041.324-.175.572-.403.744s-.511.258-.851.258zM157.52 230.898c-.85 0-1.294-.334-1.333-1.002h.554c.004.379.262.568.773.568.229 0 .403-.047.523-.142s.18-.213.18-.356c0-.141-.059-.24-.176-.297s-.359-.132-.725-.224-.634-.194-.803-.308-.253-.313-.253-.598c0-.258.105-.471.315-.64s.491-.253.842-.253c.814 0 1.23.29 1.248.87h-.551c-.02-.293-.239-.439-.659-.439-.186 0-.339.035-.461.105s-.183.173-.183.308c0 .121.047.208.141.262s.329.126.705.217.655.197.838.318.274.33.274.627c0 .283-.113.518-.338.705s-.53.279-.911.279zM160.136 230.825c0 .256-.051.461-.152.615s-.251.231-.448.231v-.281c.197 0 .296-.188.296-.565h-.296v-.601h.601v.601zM165.401 230.825h-2.657v-4.295h.568v3.785h2.089v.51zM167.214 230.831a2.122 2.122 0 0 1-.396.035c-.227 0-.393-.041-.498-.122s-.171-.185-.196-.312-.038-.3-.038-.519v-1.764h-.384v-.434h.384v-.773h.551v.773h.504v.434h-.504v1.793c0 .213.027.348.081.406s.127.086.221.086c.096 0 .188-.008.275-.023v.42zM169.643 230.453c-.246.297-.542.445-.888.445-.406 0-.721-.145-.943-.434s-.334-.679-.334-1.169c0-.508.125-.91.374-1.206s.562-.444.939-.444c.336 0 .62.104.853.311v-1.427h.551v4.295h-.551v-.371zm0-.521v-1.477c-.238-.252-.511-.378-.817-.378-.236 0-.425.102-.567.306s-.212.508-.212.913c0 .383.067.673.201.872s.319.297.555.297c.308 0 .588-.178.84-.533zM171.738 230.825h-.601v-.601h.601v.601z"/>
  </g>
  <g fill="#927d4c">
    <path d="M13.176 132.668l.027.629c-.419.073-.884.1-1.395.082h-1.012c-1.094.018-1.65-.374-1.668-1.176 0-.383.1-.747.301-1.094l.492.273a1.48 1.48 0 0 0-.219.793c0 .255.091.419.273.492.164.091.438.128.82.109h1.012c.384.001.84-.035 1.369-.108zm-.356-4.211v.602H9.484v-.602h3.336zM18.604 129.004c.383.456.574 1.003.574 1.641 0 .583-.119 1.085-.355 1.504-.31.529-.83.966-1.559 1.313l-.438-.574c1.094-.383 1.659-1.057 1.695-2.023.055-.766-.109-1.313-.492-1.641-.31-.273-.748-.41-1.313-.41a1.825 1.825 0 0 0-1.367.656c-.383.456-.583 1.012-.602 1.668 0 .438.055.775.164 1.012.109.201.237.301.383.301.292 0 .538-.282.738-.848.2-.528.383-1.395.547-2.598l.602.055c-.201 1.659-.501 2.798-.902 3.418-.255.419-.593.629-1.012.629-.255 0-.483-.146-.684-.438-.328-.456-.465-1.039-.41-1.75a3.25 3.25 0 0 1 .656-1.695c.528-.656 1.185-.984 1.969-.984.767.017 1.368.272 1.806.764zM23.936 131.54l.663.167c-.139.544-.389.96-.75 1.246-.361.286-.803.429-1.325.429-.54 0-.979-.11-1.318-.33-.338-.22-.596-.539-.772-.956a3.42 3.42 0 0 1-.265-1.343c0-.522.1-.977.299-1.365.2-.389.483-.684.852-.886a2.493 2.493 0 0 1 1.215-.302c.501 0 .923.127 1.265.383s.58.614.714 1.077l-.653.154c-.116-.365-.285-.63-.506-.796s-.499-.25-.834-.25c-.385 0-.707.092-.966.277-.258.185-.44.433-.545.743a2.993 2.993 0 0 0-.157.962c0 .426.062.798.187 1.116.124.318.317.556.579.713s.546.236.851.236c.372 0 .686-.107.943-.321s.432-.533.523-.954zM25.731 133.297v-5.011h1.726c.39 0 .687.024.892.072a1.7 1.7 0 0 1 .735.359c.264.223.462.509.593.856.131.347.196.744.196 1.191 0 .38-.044.718-.133 1.012s-.203.537-.342.73a1.803 1.803 0 0 1-.457.454 1.843 1.843 0 0 1-.598.251 3.417 3.417 0 0 1-.805.085h-1.807zm.663-.591h1.07c.331 0 .589-.031.778-.092.188-.062.337-.148.449-.26.157-.157.28-.369.367-.634.088-.266.132-.587.132-.966 0-.524-.086-.927-.258-1.208-.172-.282-.381-.47-.627-.566-.178-.068-.464-.103-.858-.103h-1.053v3.829zM31.628 130.563a15.1 15.1 0 0 0 .328 2.762l-.574.219c-.201-.82-.31-1.741-.328-2.762-.019-.802.091-1.768.328-2.898l.547.219a10.068 10.068 0 0 0-.301 2.46zm3.308 1.203c.401.201.793.492 1.176.875l-.328.492a3.58 3.58 0 0 0-.875-.766c-.091.729-.456 1.112-1.094 1.148-.474.036-.83-.073-1.066-.328a1.006 1.006 0 0 1-.246-.738c.018-.219.1-.419.246-.602.219-.255.51-.383.875-.383.255 0 .51.037.766.109v-1.914h-1.832v-.52h1.832v-1.34h.547v1.34h1.039v.52h-1.039v2.107zm-1.257 1.257c.438 0 .674-.31.711-.93a2.478 2.478 0 0 0-.684-.164.669.669 0 0 0-.52.164c-.128.109-.191.246-.191.41s.063.292.191.383c.128.11.292.156.493.137zM39.056 133.646l-.461.465a5.857 5.857 0 0 0-1.176-1.06l.461-.461c.401.27.793.622 1.176 1.056zM50.743 129.77v.52h-6.207v-.52h1.941l-.438-1.012h-.875v-.52h2.215v-.656h.52c.146.019.155.073.027.164v.492h2.242v.52h-.875l-.465 1.012h1.915zm-1.149 3.992h-.547v-.219h-2.762v.355h-.547v-3.145h3.855v3.009zm-.547-1.914v-.574h-2.762v.574h2.762zm0 1.175v-.656h-2.762v.656h2.762zm-2.023-3.253h1.285l.355-1.012h-2.023l.383 1.012zM54.995 128.375h1.148v2.57h-.465v-.109h-.41v.52h2.68v.52h-2.379a5.058 5.058 0 0 0 2.543 1.094l-.164.629c-1.222-.292-2.115-.766-2.68-1.422v1.695h-.547v-1.531c-.638.583-1.495 1.039-2.57 1.367l-.246-.602c1.021-.219 1.896-.629 2.625-1.23h-2.488v-.52h2.68v-.52h-.41V131h-.465v-2.625h.711l.164-.738.602.109c.073.019.045.073-.082.164l-.247.465zm-2.625 2.598l-.328-.547a5.843 5.843 0 0 0 1.313-.902l.301.465c-.255.255-.638.565-1.148.93-.02.108-.065.127-.138.054zm.848-1.668a13.54 13.54 0 0 0-.93-.602l.328-.492c.383.183.702.355.957.52l-.355.574zm1.093-.492v.574h1.367v-.574h-1.367zm0 1.585h1.367v-.574h-1.367v.574zm2.434-1.121l-.438-.383c.383-.328.702-.629.957-.902l.492.438c.018.091-.027.119-.137.082-.218.2-.51.456-.874.765zm.793 1.532a7.711 7.711 0 0 0-1.23-.875l.355-.465c.364.164.793.438 1.285.82l-.41.52zM64.47 131.602h-1.777v2.078h-.547v-2.078h-1.641c-.037.948-.319 1.704-.848 2.27l-.438-.438a2.772 2.772 0 0 0 .738-1.914v-3.5h5.059v5.223c0 .292-.146.438-.438.438h-.766l-.137-.602h.684c.073 0 .109-.036.109-.109v-1.368zm-3.965-3.063v1.012h1.641v-1.012h-1.641zm0 1.531v1.012h1.641v-1.012h-1.641zm2.188-1.531v1.012h1.777v-1.012h-1.777zm0 1.531v1.012h1.777v-1.012h-1.777zM66.945 133.598a10.563 10.563 0 0 1-.328-2.68c0-1.002.118-2.005.355-3.008l.52.219a11.82 11.82 0 0 0-.301 2.707c0 .93.1 1.769.301 2.516l-.547.246zm1.613-2.489l.41.328c-.128.164-.21.355-.246.574-.073.419.155.629.684.629h1.941v.602h-1.613c-.547 0-.939-.082-1.176-.246-.273-.2-.401-.51-.383-.93.019-.309.146-.628.383-.957zm-.136-1.914v-.602h2.734v.602h-2.734zM10.332 138.06v4.266h-.547v-3.5a3.566 3.566 0 0 1-.547.82l-.355-.574c.638-.656 1.066-1.649 1.285-2.98l.602.164c.164.055.146.119-.055.191-.109.511-.246.994-.41 1.449.182.019.191.073.027.164zm2.789-2.023c.146.019.155.073.027.164v.684h1.941v.52h-1.941v.602h1.559v2.078h-.547v-.219h-1.012c0 .365-.073.72-.219 1.066.456.31 1.221.556 2.297.738l-.191.602c-.966-.128-1.759-.419-2.379-.875-.456.474-1.103.793-1.941.957l-.191-.52c.766-.128 1.34-.383 1.723-.766-.365-.328-.62-.656-.766-.984l.328-.219h-.766v-1.859h1.559v-.602h-1.859v-.52h1.859v-.848h.519zm-.52 3.39v-.984H11.59v.984h1.011zm0 .438h-.684c.146.255.337.501.574.738.074-.219.11-.465.11-.738zm1.559-.438v-.984h-1.012v.984h1.012zM21.612 140.001h-1.777v2.078h-.547v-2.078h-1.641c-.037.948-.319 1.704-.848 2.27l-.438-.438a2.772 2.772 0 0 0 .738-1.914v-3.5h5.059v5.223c0 .292-.146.438-.438.438h-.766l-.137-.602h.684c.073 0 .109-.036.109-.109v-1.368zm-3.965-3.062v1.012h1.641v-1.012h-1.641zm0 1.531v1.012h1.641v-1.012h-1.641zm2.187-1.531v1.012h1.777v-1.012h-1.777zm0 1.531v1.012h1.777v-1.012h-1.777zM27.423 139.427l.602.273c-.237 1.495-.957 2.242-2.16 2.242-.583.018-.994-.119-1.23-.41-.219-.273-.337-.738-.355-1.395v-3.773h.547v3.773c0 .456.082.775.246.957.164.164.501.237 1.012.219.401-.018.711-.2.93-.547.198-.29.334-.737.408-1.339zM29.077 137.705v-.602h1.176c.055-.346.109-.711.164-1.094l.574.109-.164.984h1.121v.602h-1.23a14.533 14.533 0 0 1-1.176 3.719l-.52-.328c.492-.948.866-2.078 1.121-3.391h-1.066zm3.555.929h.547v1.75c.292.164.583.347.875.547l-.328.52a6.766 6.766 0 0 0-.574-.41c-.037.383-.191.674-.465.875-.219.164-.52.246-.902.246s-.693-.091-.93-.273c-.237-.183-.355-.456-.355-.82 0-.346.127-.629.383-.848.2-.164.483-.246.848-.246.292 0 .592.055.902.164v-1.505zm-.847 1.86c-.492 0-.738.191-.738.574 0 .365.255.547.766.547a.82.82 0 0 0 .602-.246c.146-.146.219-.355.219-.629a1.546 1.546 0 0 0-.849-.246zm.519-3.172a7.575 7.575 0 0 1 1.723.547l-.191.574a6.898 6.898 0 0 0-1.695-.574l.163-.547zM37.295 140.193l.492.383c-.146.511-.337.884-.574 1.121a.717.717 0 0 1-.684.273c-.602-.073-.912-.902-.93-2.488 0-.893.045-1.795.137-2.707l.629.082a17.936 17.936 0 0 0-.191 2.652c.018 1.112.155 1.695.41 1.75.255.055.492-.3.711-1.066zm2.734-1.504c.219.583.355 1.185.41 1.805l-.629.191a8.026 8.026 0 0 0-.383-1.723c-.219-.638-.465-1.139-.738-1.504l.52-.328c.328.438.601.957.82 1.559zM46.059 136.72v.547c-.857.019-1.55.255-2.078.711-.492.438-.738.966-.738 1.586 0 .602.191 1.058.574 1.367.364.292.92.438 1.668.438l-.164.602c-.857 0-1.522-.228-1.996-.684-.419-.401-.638-.948-.656-1.641 0-.401.118-.82.355-1.258a2.947 2.947 0 0 1 1.121-1.148h-2.871v-.52h4.785zm-.328 1.149v1.066h-.465v-1.066h.465zm.739 0v1.066h-.465v-1.066h.465zM49.218 140.576c.419.456.738.83.957 1.121l-.52.492a16.447 16.447 0 0 0-1.805-2.16c-.328-.328-.492-.61-.492-.848 0-.164.137-.392.41-.684a11.524 11.524 0 0 0 1.805-2.324l.492.41c-.748 1.021-1.376 1.769-1.887 2.242-.164.164-.246.292-.246.383 0 .073.055.155.164.246.311.293.685.666 1.122 1.122zM54.646 137.158v.52h-1.805c-.273 1.404-.684 2.652-1.23 3.746l-.492-.355c.528-.984.911-2.114 1.148-3.391h-1.094v-.52h1.176c.073-.383.118-.766.137-1.148l.602.109c-.037.347-.082.693-.137 1.039h1.695zm1.34 4.265v.602h-1.777c-.383 0-.693-.091-.93-.273a.903.903 0 0 1-.355-.848c.036-.292.164-.583.383-.875l.41.301c-.183.255-.265.492-.246.711.036.255.301.383.793.383h1.722zm-.164-2.925v.52h-2.379v-.52h2.379zm-.437-2.489v1.066h-.465v-1.066h.465zm.738 0v1.066h-.465v-1.066h.465zM61.059 137.048l.082.52c-.31.073-.766.146-1.367.219a6.418 6.418 0 0 0 1.313 1.832l-.41.52c-.419-.346-.976-.538-1.668-.574-.419 0-.72.101-.902.301a.786.786 0 0 0-.246.574c0 .347.137.593.41.738.383.219 1.094.328 2.133.328l-.109.602c-1.203 0-2.042-.183-2.516-.547-.31-.219-.474-.556-.492-1.012-.019-.419.137-.774.465-1.066a1.42 1.42 0 0 1 1.039-.438c.51.019.911.082 1.203.191-.255-.383-.52-.838-.793-1.367-.802.128-1.468.201-1.996.219l-.055-.574c.51-.036 1.121-.1 1.832-.191a76.14 76.14 0 0 1-.383-1.121l.547-.164c.127.456.255.857.383 1.203a17.43 17.43 0 0 0 1.53-.193zM64.163 140.193l.492.383c-.146.511-.337.884-.574 1.121a.717.717 0 0 1-.684.273c-.602-.073-.912-.902-.93-2.488 0-.893.045-1.795.137-2.707l.629.082a17.936 17.936 0 0 0-.191 2.652c.018 1.112.155 1.695.41 1.75.255.055.492-.3.711-1.066zm2.734-1.504c.219.583.355 1.185.41 1.805l-.629.191a8.026 8.026 0 0 0-.383-1.723c-.219-.638-.465-1.139-.738-1.504l.52-.328c.328.438.602.957.82 1.559zM69.212 140.914c.216 0 .4.077.552.231a.75.75 0 0 1 .227.545c0 .223-.08.411-.239.563a.775.775 0 0 1-.547.227.772.772 0 0 1-.542-.227.742.742 0 0 1-.241-.563.778.778 0 0 1 .79-.776zm.024 1.196a.337.337 0 0 0 .269-.13.423.423 0 0 0 0-.564.373.373 0 0 0-.299-.126.37.37 0 0 0-.286.123c-.074.082-.111.177-.111.284a.413.413 0 0 0 .427.413z"/>
  </g>
</svg>
