<?xml version="1.0"?>
<svg xmlns="http://www.w3.org/2000/svg" viewBox="0 0 189.5 62.1">
  <g fill="#6f706a">
    <circle cx="24.1" cy="4.6" r="1.9"/>
    <path d="M24.1 49.7l-13.4-7.6 3.6-2v.1c2.6 3.8 7.9 4.1 12.1 3.7 2.5-.8-.5 1-.4 1.7.5 1.3 1.9.5 2.6.3 1.8-1 3.6-2.2 4.7-4.2.6-1.9.3-.9 1.8-2.5 1.3-1.4 1.4-3.5 3-4.7 1.7-1.5 2.4-3.6 3.3-5.6 3-2.8 5.8-6.4 5.7-10.7.2-3.3-1.8-6.2-4.3-8.2-4-3.2-9-4.9-14-5.6-1.2-.4-2.3.9-1.5 2 2.3.9 4.9.9 7.1 1.9 3.7 1.3 7.5 3.4 9.4 6.9 1.7 3.4-.1 7.6-2.7 10.1l-.1.1c-1-1.6-2-3.2-3.6-4.3-3.9-3-8.9-4-13.8-4.3V7.4L0 20.4v27.9L24.1 62l24.1-13.7V36L24.1 49.7zm0-21c2.7.2 5.6.6 7.9 2.1.3.2.7.4-.3.7-.7.2-3 .7-4.8.9 0 0-1.6.1-2.1.1h-.7v-3.8zm-1.7 7.1c1.5-.1 3-.1 4.4.3.8.2 1.8.2 2.4 1-2.7.5-5.5.5-8.2.3-.4-.1-.8-.1-1.2-.2l2.6-1.4zm1.5 5.7c-2.4-.1-5.2-.3-7-2.2 4.8 1.2 9.9 1.2 14.7-.2-2.1 1.8-5 2.3-7.7 2.4zm8.6-5.7c-.6-.8-1.5-1.2-2.4-1.5 1.4-.4 2.9-.8 4.3-1.2.8 1.5-.6 2.3-1.9 2.7zm4.6-12.1c1.1 1 1.7 2.4 2.1 3.8l-2.7 1.8c-.6.2-1.3 1-1.9.3-3-2.3-6.8-3.2-10.5-3.4v-6.8c4.6 0 9.5 1.1 13 4.3z"/>
  </g>
  <path d="M189.5 60.1H53.2v-5.8h136.3v5.8z" fill="#020203"/>
  <path d="M29.5 3.6c-.8-1 .4-2.4 1.5-2 5 .8 10 2.4 14 5.6 2.4 2 4.4 4.9 4.3 8.2.1 4.3-2.6 8-5.7 10.7-.9 2-1.6 4.1-3.3 5.6-1.6 1.2-1.7 3.4-3 4.7-1.5 1.6-1.2.6-1.8 2.5-1.1 2-2.9 3.2-4.7 4.2-.7.2-2.2 1-2.6-.3-.2-.7 2.9-2.5.4-1.7-4.2.4-9.5.1-12.1-3.7-.5-1.2-.4-1.5-.4-2.2-1.9-1.4-3.2-3.5-3.1-5.9-2.1-1.5-4.1-3.5-4.2-6.3-.4-2.7 1.7-4.8 3.8-6.1 4.1-2.4 8.9-3 13.6-3 4.8.3 9.9 1.4 13.8 4.3 1.5 1.1 2.6 2.7 3.6 4.3l.1-.1c2.6-2.5 4.4-6.7 2.7-10.1-2-3.5-5.8-5.6-9.4-6.9-2.6-.9-5.2-.9-7.5-1.8zM12.3 20.2c-2.4 1.9-.6 5.8 1.8 6.6 3.3-2.7 7.7-3.5 11.8-3.5 3.7.2 7.6 1.1 10.6 3.4.6.7 1.3-.1 1.9-.3l2.7-1.8c-.4-1.4-1-2.8-2.1-3.8-3.5-3.2-8.4-4.3-13-4.4-4.7 0-9.9.7-13.7 3.8zm16.6 9.4c1.8-.2 4.1-.7 4.8-.9.9-.3.6-.4.3-.7-2.3-1.5-5.2-1.9-7.9-2.1-3 0-6.1.3-8.7 1.8-.3.2-1.1.3 0 .6 2.6.9 8.9 1.3 9.4 1.3.5.1 2.1 0 2.1 0zm-13.6 1c.2.6.7 1.6 1.7 2.1.4-.3 1-.6 1.6-.9.3-.1.7-.4 1.1-.5-.2 0-.4 0-.9-.1-1.3-.1-2.3-.4-3.5-.6zm16.7.9c.9.3 1.8.7 2.4 1.5 1.3-.4 2.7-1.2 1.9-2.7-1.4.5-2.8.9-4.3 1.2zM20.1 34c.8.5 1.9.5 2.8.6 2.7.2 5.5.1 8.2-.3-.5-.8-1.6-.8-2.4-1-2.8-.7-5.9-.3-8.6.7zm-1.2 2.5c1.8 1.9 4.6 2.1 7 2.2 2.7-.1 5.6-.6 7.7-2.4-4.8 1.4-9.9 1.4-14.7.2z" fill="#21254e"/>
  <path d="M62.9 31.8c2.4 0 4.9-.1 7.1-1 6.1-2.1 10.2-8.6 10-15-.2-3.1-1.2-6.2-3.1-8.7-2.8-4-7.7-6.2-12.6-6.1H53.4v42.9h4.4V31.8m0-26.8c2.5 0 5-.1 7.5.1 3.7.2 7.3 2.3 9.1 5.6 2.3 3.9 2 9.1-.8 12.7-2 2.6-5.1 4.3-8.4 4.4h-7.3L57.8 5z" fill="#020203"/>
  <circle cx="26.1" cy="2.4" r="1.9" fill="#21254e"/>
  <path fill="#21254e" d="M26.1 59.3L2 45.6V33.2l24.1 13.7z"/>
  <path fill="#e51929" d="M26.1 59.3l24.1-13.7V33.2L26.1 46.9z"/>
  <g fill="#020203">
    <path d="M128.2 25.7v-8.3h-6.5c.4 1.6.7 3.2.7 5 0 1.2-.1 2.3-.3 3.4l6.1-.1z"/>
    <path d="M120.4 30.4c-3 6-9.2 10.1-16.4 10.1-10.1 0-18.3-8.2-18.3-18.3S94 4 104.1 4c6.5 0 12.2 3.4 15.5 8.6h4.6C120.5 5.1 112.9 0 104.1 0 91.7 0 81.8 10 81.8 22.3s10 22.3 22.3 22.3c9.4 0 17.5-5.9 20.8-14.2h-4.5z"/>
  </g>
  <path fill="#c1942e" d="M2 45.6l24.1-13V5.1L2 18.1z"/>
  <path d="M29.5 3.6c-.8-1 .4-2.4 1.5-2 5 .8 10 2.4 14 5.6 2.4 2 4.4 4.9 4.3 8.2.1 4.3-2.6 8-5.7 10.7-.9 2-1.6 4.1-3.3 5.6-1.6 1.2-1.7 3.4-3 4.7-1.5 1.6-1.2.6-1.8 2.5-1.1 2-2.9 3.2-4.7 4.2-.7.2-2.2 1-2.6-.3-.2-.7 2.9-2.5.4-1.7-4.2.4-9.5.1-12.1-3.7-.5-1.2-.4-1.5-.4-2.2-1.9-1.4-3.2-3.5-3.1-5.9-2.1-1.5-4.1-3.5-4.2-6.3-.4-2.7 1.7-4.8 3.8-6.1 4.1-2.4 8.9-3 13.6-3 4.8.3 9.9 1.4 13.8 4.3 1.5 1.1 2.6 2.7 3.6 4.3l.1-.1c2.6-2.5 4.4-6.7 2.7-10.1-2-3.5-5.8-5.6-9.4-6.9-2.6-.9-5.2-.9-7.5-1.8zM12.3 20.2c-2.4 1.9-.6 5.8 1.8 6.6 3.3-2.7 7.7-3.5 11.8-3.5 3.7.2 7.6 1.1 10.6 3.4.6.7 1.3-.1 1.9-.3l2.7-1.8c-.4-1.4-1-2.8-2.1-3.8-3.5-3.2-8.4-4.3-13-4.4-4.7 0-9.9.7-13.7 3.8zm16.6 9.4c1.8-.2 4.1-.7 4.8-.9.9-.3.6-.4.3-.7-2.3-1.5-5.2-1.9-7.9-2.1-3 0-6.1.3-8.7 1.8-.3.2-1.1.3 0 .6 2.6.9 8.9 1.3 9.4 1.3.5.1 2.1 0 2.1 0zm-13.6 1c.2.6.7 1.6 1.7 2.1.4-.3 1-.6 1.6-.9.3-.1.7-.4 1.1-.5-.2 0-.4 0-.9-.1-1.3-.1-2.3-.4-3.5-.6zm16.7.9c.9.3 1.8.7 2.4 1.5 1.3-.4 2.7-1.2 1.9-2.7-1.4.5-2.8.9-4.3 1.2zM20.1 34c.8.5 1.9.5 2.8.6 2.7.2 5.5.1 8.2-.3-.5-.8-1.6-.8-2.4-1-2.8-.7-5.9-.3-8.6.7zm-1.2 2.5c1.8 1.9 4.6 2.1 7 2.2 2.7-.1 5.6-.6 7.7-2.4-4.8 1.4-9.9 1.4-14.7.2z" fill="#271e47"/>
  <circle cx="26.1" cy="2.4" r="1.9" fill="#21254e"/>
  <path fill="#342257" d="M26.1 59.3L2 45.6V33.2l24.1 13.7z"/>
  <path fill="#a4284c" d="M26.1 59.3l24.1-13.7V33.2L26.1 46.9z"/>
  <path fill="#020203" d="M153.1 9.5V1h-21.4v42.9h8.1V25.7h12.7v-8.4h-12.7V9.5z"/>
  <path fill="#020203" d="M187.3 43.9l-12.7-22.3L186.4 1h-9.9l-6.8 12-6.9-12H153l11.8 20.6L152 43.9h9.8l7.9-13.7 7.8 13.7z"/>
  <g fill="#020203">
    <path d="M57.9 52.4V48L56 52.4h-.4L53.8 48v4.4h-.5v-5h.7l1.8 4.2 1.8-4.2h.8v5h-.5zM61.1 52.5c-1 0-1.7-.6-1.7-2v-3.1h.5v3.1c0 1 .4 1.5 1.2 1.5.8 0 1.2-.5 1.2-1.5v-3.1h.5v3.1c0 1.4-.7 2-1.7 2zM63.8 52.4v-5h.5V52h2.1v.5h-2.6zM67.7 47.9v4.5h-.5v-4.5h-1.1v-.5h2.8v.5h-1.2zM69.4 52.4v-5h.5v5h-.5zM75.6 52.4V48l-1.9 4.4h-.4L71.4 48v4.4h-.5v-5h.8l1.8 4.2 1.8-4.2h.8v5h-.5zM77 52.4v-5h2.7v.5h-2.2v1.8h2.2v.5h-2.2V52h2.2v.5H77zM82 52.4h-1.3v-5h1.2c.9 0 1.4.1 1.9.4.7.4 1.1 1.2 1.1 2.1-.1 1.5-1 2.5-2.9 2.5zm1.4-4.2c-.4-.2-.8-.3-1.6-.3h-.7V52h.7c.9 0 1.4-.1 1.8-.4.5-.4.7-.9.7-1.6 0-.8-.3-1.4-.9-1.8zM85.6 52.4v-5h.5v5h-.5zM90.9 52.4l-.7-1.7h-2.3l-.7 1.7h-.5l2.1-5h.6l2.1 5h-.6zM89 48l-1 2.3h2L89 48zM93.8 52.4v-5h2.7v.5h-2.2v1.8h2.2v.5h-2.2V52h2.2v.5h-2.7zM100.9 52.4l-3-4.4v4.4h-.5v-5h.7l2.8 4.1v-4.1h.5v5h-.5zM103.5 47.9v4.5h-.5v-4.5h-1.1v-.5h2.8v.5h-1.2zM105.2 52.4v-5h2.7v.5h-2.2v1.8h2.2v.5h-2.2V52h2.2v.5h-2.7zM110.7 50.6l1.4 1.9h-.6l-1.7-2.3c1.4 0 1.9-.2 1.9-1.1 0-.8-.5-1.1-1.7-1.1h-.7v4.5h-.5v-5h1.2c1.6 0 2.1.6 2.1 1.6 0 .8-.5 1.4-1.4 1.5zM114 47.9v4.5h-.5v-4.5h-1.1v-.5h2.8v.5H114zM119.2 52.4l-.7-1.7h-2.3l-.7 1.7h-.5l2.1-5h.6l2.1 5h-.6zm-1.9-4.4l-1 2.3h1.9l-.9-2.3zM120.3 52.4v-5h.5v5h-.5zM125.2 52.4l-3-4.4v4.4h-.5v-5h.7l2.8 4.1v-4.1h.5v5h-.5zM131.4 52.4V48l-1.9 4.4h-.4l-1.9-4.4v4.4h-.5v-5h.8l1.8 4.2 1.8-4.2h.8v5h-.5zM132.8 52.4v-5h2.7v.5h-2.2v1.8h2.2v.5h-2.2V52h2.2v.5h-2.7zM139.9 52.4l-3-4.4v4.4h-.5v-5h.7l2.8 4.1v-4.1h.5v5h-.5zM142.5 47.9v4.5h-.5v-4.5h-1.1v-.5h2.8v.5h-1.2zM147.5 50.4h-1v2h-.5v-5h1.4c1.4 0 1.9.5 1.9 1.5s-.5 1.5-1.8 1.5zm-.3-2.5h-.7V50h.9c1 0 1.4-.3 1.4-1 0-1-.6-1.1-1.6-1.1zM150 52.4v-5h.5V52h2.1v.5H150zM157.1 52.4l-.7-1.7h-2.3l-.7 1.7h-.5l2.1-5h.6l2.1 5h-.6zm-1.8-4.4l-1 2.3h1.9l-.9-2.3zM159.4 50.8v1.7h-.5v-1.7l-1.7-3.3h.6l1.4 2.8 1.5-2.8h.5l-1.8 3.3zM161.7 52.4v-5h2.7v.5h-2.2v1.8h2.2v.5h-2.2V52h2.2v.5h-2.7zM167.2 50.6l1.4 1.9h-.6l-1.7-2.3c1.4 0 1.9-.2 1.9-1.1 0-.8-.5-1.1-1.7-1.1h-.7v4.5h-.5v-5h1.2c1.6 0 2.1.6 2.1 1.6 0 .8-.5 1.4-1.4 1.5zM172.6 50.4h-1v2h-.5v-5h1.4c1.4 0 1.9.5 1.9 1.5s-.5 1.5-1.8 1.5zm-.3-2.5h-.7V50h.9c1 0 1.4-.3 1.4-1 0-1-.6-1.1-1.6-1.1zM177.5 52.5c-1.5 0-2.6-1.1-2.6-2.6s1.1-2.6 2.6-2.6c1 0 1.9.5 2.3 1.4h-.6c-.4-.7-1-.9-1.7-.9-1.2 0-2.1.9-2.1 2.1 0 1.2 1 2.1 2.1 2.1.7 0 1.2-.3 1.7-.9h.6c-.5 1-1.3 1.4-2.3 1.4zM182.8 47.9v1.8h2v.5h-2v2.3h-.5v-5h2.5v.5l-2-.1zM188.5 52.4l-1.4-2.1-1.4 2.1h-.6l1.7-2.5-1.6-2.4h.6l1.3 2 1.3-2h.6l-1.6 2.4 1.7 2.5h-.6z"/>
  </g>
  <path d="M180.9 50.4c-.2 0-.4-.2-.4-.4s.2-.4.4-.4.4.2.4.4c-.1.2-.2.4-.4.4z" fill="#020203"/>
</svg>
