<?xml version="1.0" encoding="UTF-8" standalone="no"?>
<svg
   xmlns:dc="http://purl.org/dc/elements/1.1/"
   xmlns:cc="http://creativecommons.org/ns#"
   xmlns:rdf="http://www.w3.org/1999/02/22-rdf-syntax-ns#"
   xmlns:svg="http://www.w3.org/2000/svg"
   xmlns="http://www.w3.org/2000/svg"
   viewBox="0 0 203.18124 255.33624"
   height="255.33624"
   width="203.18124"
   xml:space="preserve"
   version="1.1"
   id="svg2"><metadata
     id="metadata8"><rdf:RDF><cc:Work
         rdf:about=""><dc:format>image/svg+xml</dc:format><dc:type
           rdf:resource="http://purl.org/dc/dcmitype/StillImage" /><dc:title></dc:title></cc:Work></rdf:RDF></metadata><defs
     id="defs6"><clipPath
       id="clipPath16"
       clipPathUnits="userSpaceOnUse"><path
         id="path18"
         d="m 0,204.269 162.545,0 L 162.545,0 0,0 0,204.269 Z" /></clipPath></defs><g
     transform="matrix(1.25,0,0,-1.25,0,255.33625)"
     id="g10"><g
       id="g12"><g
         clip-path="url(#clipPath16)"
         id="g14"><g
           transform="translate(159.8144,0)"
           id="g20"><path
             id="path22"
             style="fill:#2b2a2b;fill-opacity:1;fill-rule:nonzero;stroke:none"
             d="m 0,0 -157.084,0 c -1.508,0 -2.73,1.222 -2.73,2.73 l 0,198.809 c 0,1.507 1.222,2.73 2.73,2.73 l 157.084,0 c 1.508,0 2.73,-1.223 2.73,-2.73 L 2.73,2.73 C 2.73,1.222 1.508,0 0,0" /></g><g
           transform="translate(153.0737,9.2151)"
           id="g24"><path
             id="path26"
             style="fill:#a7afb6;fill-opacity:1;fill-rule:nonzero;stroke:none"
             d="m 0,0 -142.835,0 c -1.689,0 -3.071,1.382 -3.071,3.072 l 0,178.927 c 0,1.689 1.382,3.072 3.071,3.072 l 142.835,0 c 1.689,0 3.072,-1.383 3.072,-3.072 l 0,-178.927 C 3.072,1.382 1.689,0 0,0" /></g><path
           id="path28"
           style="fill:#bbbdbf;fill-opacity:1;fill-rule:nonzero;stroke:none"
           d="m 127.732,47.1 -92.407,0 0,121.077 92.407,0 0,-121.077 z" /><g
           transform="translate(15.1151,177.3624)"
           id="g30"><path
             id="path32"
             style="fill:#ad2b37;fill-opacity:1;fill-rule:evenodd;stroke:none"
             d="m 0,0 c -0.008,0.001 -0.017,0.001 -0.025,0.002 -0.2,-0.888 -0.401,-1.776 -0.602,-2.669 l 1.173,0 C 0.362,-1.769 0.181,-0.884 0,0 m -2.885,-5.12 c 0.147,0.444 0.298,0.886 0.44,1.332 0.17,0.536 0.331,1.074 0.499,1.611 0.299,0.963 0.596,1.927 0.903,2.887 0.116,0.363 0.322,0.656 0.711,0.784 C 0.005,1.606 0.61,1.491 0.867,1 1.024,0.7 1.132,0.372 1.237,0.048 1.414,-0.498 1.57,-1.051 1.737,-1.601 2.074,-2.712 2.412,-3.822 2.75,-4.933 2.775,-5.014 2.798,-5.095 2.825,-5.187 l -1.519,0 c -0.105,0.369 -0.21,0.744 -0.324,1.115 -0.015,0.048 -0.084,0.112 -0.128,0.112 -0.613,0.008 -1.226,0.005 -1.846,0.005 -0.116,-0.374 -0.237,-0.739 -0.34,-1.109 -0.031,-0.11 -0.082,-0.133 -0.182,-0.132 -0.457,0.003 -0.914,10e-4 -1.371,10e-4 l 0,0.075 z" /></g><path
           id="path34"
           style="fill:#ad2b37;fill-opacity:1;fill-rule:evenodd;stroke:none"
           d="m 31.548,178.782 1.503,0 0,-6.652 -1.503,0 0,6.652 z" /><g
           transform="translate(27.9772,177.5045)"
           id="g36"><path
             id="path38"
             style="fill:#ad2b37;fill-opacity:1;fill-rule:evenodd;stroke:none"
             d="m 0,0 0,-5.322 -1.428,0 0,0.213 c 0,1.815 0.013,3.631 -0.009,5.446 -0.006,0.413 0.466,0.94 0.94,0.94 C -0.04,1.278 0.417,1.291 0.874,1.275 1.752,1.243 2.574,0.695 2.829,-0.172 3.03,-0.854 2.765,-1.638 2.172,-2.03 1.994,-2.148 1.812,-2.257 1.619,-2.378 2.189,-3.341 2.768,-4.32 3.36,-5.319 3.3,-5.327 3.261,-5.336 3.222,-5.336 2.734,-5.337 2.245,-5.339 1.757,-5.333 c -0.054,0 -0.135,0.035 -0.159,0.078 -0.473,0.868 -0.937,1.74 -1.407,2.609 -0.359,0.663 -0.068,0.972 0.498,1.22 0.189,0.083 0.381,0.181 0.537,0.312 0.301,0.253 0.236,0.536 0.053,0.785 C 1.116,-0.106 0.906,0.044 0.597,0.004 0.407,-0.02 0.212,0 0,0" /></g><g
           transform="translate(23.5364,177.3553)"
           id="g40"><path
             id="path42"
             style="fill:#ad2b37;fill-opacity:1;fill-rule:evenodd;stroke:none"
             d="m 0,0 c -0.01,0 -0.02,0 -0.029,0.001 -0.2,-0.885 -0.4,-1.77 -0.601,-2.663 l 1.173,0 C 0.361,-1.766 0.18,-0.883 0,0 m 2.823,-5.18 -1.519,0 c -0.106,0.371 -0.21,0.746 -0.325,1.117 -0.014,0.047 -0.085,0.11 -0.13,0.11 -0.613,0.008 -1.226,0.005 -1.843,0.005 -0.119,-0.381 -0.232,-0.755 -0.355,-1.126 -0.016,-0.047 -0.086,-0.108 -0.133,-0.109 -0.462,-0.008 -0.925,-0.005 -1.412,-0.005 0.13,0.417 0.256,0.816 0.381,1.216 0.414,1.325 0.824,2.65 1.241,3.973 0.101,0.32 0.196,0.645 0.335,0.949 0.324,0.716 1.122,0.753 1.641,0.278 C 0.935,1.018 1.039,0.72 1.128,0.424 1.331,-0.249 1.531,-0.922 1.735,-1.595 2.071,-2.706 2.41,-3.816 2.748,-4.927 2.772,-5.008 2.796,-5.09 2.823,-5.18" /></g><g
           transform="translate(18.541,172.1811)"
           id="g44"><path
             id="path46"
             style="fill:#ad2b37;fill-opacity:1;fill-rule:evenodd;stroke:none"
             d="m 0,0 0,5.316 -1.297,0 0,1.272 4.031,0 0,-1.259 -1.256,0 L 1.478,0 0,0 Z" /></g><g
           transform="translate(34.5141,189.7175)"
           id="g48"><path
             id="path50"
             style="fill:#a62f34;fill-opacity:1;fill-rule:nonzero;stroke:none"
             d="m 0,0 15.778,0 -7.889,-18.031 -6.566,0 L 7.338,-5.287 0,-5.287 0,0 Z" /></g><g
           transform="translate(57.2281,184.6423)"
           id="g52"><path
             id="path54"
             style="fill:#a62f34;fill-opacity:1;fill-rule:nonzero;stroke:none"
             d="m 0,0 c 0,1.082 -0.48,1.623 -1.44,1.623 -0.986,0 -1.479,-0.481 -1.479,-1.444 0,-0.582 0.117,-0.994 0.351,-1.237 0.234,-0.242 0.622,-0.363 1.166,-0.363 C -0.467,-1.421 0,-0.948 0,0 m 0.548,-7.13 c 0,1.293 -0.617,1.94 -1.85,1.94 -1.291,0 -1.936,-0.594 -1.936,-1.782 0,-1.267 0.657,-1.9 1.97,-1.9 1.211,0 1.816,0.58 1.816,1.742 m 1.093,4.02 c 1.451,-0.441 2.575,-1.112 3.371,-2.012 0.795,-0.901 1.194,-1.918 1.194,-3.053 0,-1.594 -0.695,-2.868 -2.082,-3.822 -1.388,-0.955 -3.247,-1.432 -5.578,-1.432 -2.381,0 -4.262,0.473 -5.644,1.418 -1.382,0.946 -2.072,2.224 -2.072,3.836 0,0.405 0.038,0.786 0.114,1.142 0.077,0.355 0.194,0.688 0.354,0.999 0.159,0.311 0.359,0.603 0.601,0.878 0.242,0.275 0.526,0.529 0.85,0.763 0.325,0.234 0.707,0.453 1.146,0.655 0.44,0.203 0.895,0.403 1.366,0.601 l 0,0.027 -0.038,0 c 0,0.018 -0.013,0.027 -0.038,0.027 0,0.018 -0.013,0.027 -0.039,0.027 -0.764,0.252 -1.397,0.531 -1.9,0.838 -0.503,0.306 -0.933,0.74 -1.289,1.303 -0.357,0.563 -0.535,1.213 -0.535,1.952 0,1.287 0.675,2.361 2.025,3.221 1.349,0.86 3.036,1.29 5.061,1.29 2.063,0 3.75,-0.437 5.062,-1.31 C 4.881,3.364 5.537,2.243 5.537,0.875 5.537,-0.026 5.222,-0.791 4.592,-1.421 3.961,-2.052 2.978,-2.615 1.641,-3.11" /></g><g
           transform="translate(83.8012,180.8075)"
           id="g56"><path
             id="path58"
             style="fill:#a62f34;fill-opacity:1;fill-rule:nonzero;stroke:none"
             d="m 0,0 c 0,-2.578 0.845,-3.867 2.535,-3.867 0.914,0 1.574,0.284 1.979,0.854 0.405,0.569 0.608,1.474 0.608,2.715 0,1.367 -0.203,2.363 -0.608,2.986 C 4.109,3.312 3.438,3.623 2.501,3.623 0.833,3.623 0,2.416 0,0 m 2.57,9.383 c 2.478,0 4.36,-0.806 5.645,-2.418 1.285,-1.612 1.927,-3.984 1.927,-7.118 0,-3.052 -0.654,-5.389 -1.962,-7.01 -1.308,-1.621 -3.178,-2.431 -5.61,-2.431 -2.307,0 -4.144,0.758 -5.508,2.276 -1.365,1.517 -2.047,3.969 -2.047,7.354 0,2.972 0.656,5.272 1.97,6.902 1.313,1.63 3.152,2.445 5.516,2.445 l 0.069,0 z" /></g><g
           transform="translate(68.3456,180.8075)"
           id="g60"><path
             id="path62"
             style="fill:#a62f34;fill-opacity:1;fill-rule:nonzero;stroke:none"
             d="m 0,0 c 0,-2.578 0.845,-3.867 2.536,-3.867 0.913,0 1.573,0.284 1.978,0.854 0.405,0.569 0.608,1.474 0.608,2.715 0,1.367 -0.203,2.363 -0.608,2.986 C 4.109,3.312 3.438,3.623 2.501,3.623 0.834,3.623 0,2.416 0,0 m 2.57,9.383 c 2.478,0 4.36,-0.806 5.645,-2.418 1.285,-1.612 1.927,-3.984 1.927,-7.118 0,-3.052 -0.654,-5.389 -1.962,-7.01 -1.308,-1.621 -3.178,-2.431 -5.61,-2.431 -2.307,0 -4.144,0.758 -5.508,2.276 -1.365,1.517 -2.047,3.969 -2.047,7.354 0,2.972 0.656,5.272 1.97,6.902 1.313,1.63 3.152,2.445 5.516,2.445 l 0.069,0 z" /></g></g></g></g></svg>