<svg id="Capa_1" data-name="Capa 1" xmlns="http://www.w3.org/2000/svg" viewBox="0 0 283.52083 75.16667"><title>controller</title><path d="M283.51811,300.69418H-.00272L10.539,238.40251a4.05355,4.05355,0,0,1,4.04166-4.04166H268.914a4.05355,4.05355,0,0,1,4.04166,4.04166Z" transform="translate(0.00272 -234.36085)" fill="#cfc9bf"/><path d="M276.26417,291.19418H8.418a1.45978,1.45978,0,0,1-1.42076-1.795l6.92886-41.87174c0-1.55828,1.77772-2.83323,3.95049-2.83323H266.47256c2.17277,0,3.9505,1.275,3.9505,2.83323l7.26171,41.87111A1.45977,1.45977,0,0,1,276.26417,291.19418Z" transform="translate(0.00272 -234.36085)" fill="#352b1b"/><path d="M0,66.33333H283.52083a0,0,0,0,1,0,0v4.2474a.58594.58594,0,0,1-.58594.58594H.58594A.58594.58594,0,0,1,0,70.58073v-4.2474a0,0,0,0,1,0,0Z" fill="#958b7c"/><path d="M281.2408,309.52751H2.27252a.81834.81834,0,0,1-.81691-.815l-.87239-3.185h282.349l-.87447,3.185A.81834.81834,0,0,1,281.2408,309.52751Z" transform="translate(0.00272 -234.36085)" fill="#908a7b"/><path d="M188.341,254.77986l-166.09375.12265a.26592.26592,0,0,0-.28125.24531l-4.53125,23.82189a.26592.26592,0,0,0,.28125.24531l173.15625.08634a.26591.26591,0,0,0,.28125-.2453l-2.53125-24.03089A.26592.26592,0,0,0,188.341,254.77986Z" transform="translate(0.00272 -234.36085)" fill="#0e0000"/><path d="M168.42428,285.69418H39.63278a.28216.28216,0,0,1-.28133-.28134l.599-6.18654,128.51562.07492.23959,6.11162A.28216.28216,0,0,1,168.42428,285.69418Z" transform="translate(0.00272 -234.36085)" fill="#0e0000"/><path d="M43.33061,246.02751H22.47645a.27987.27987,0,0,0-.27905.279L20.99728,252.561a.27986.27986,0,0,0,.279.279H43.78074a.27986.27986,0,0,0,.279-.279l-.45012-6.25441A.27987.27987,0,0,0,43.33061,246.02751Z" transform="translate(0.00272 -234.36085)" fill="#0e0000"/><path d="M115.43477,246.02751h-65.936c-.45917,0-.83486.12557-.83486.279L47.62228,252.561c0,.15347.37569.279.83486.279h67.33028c.45917,0,.83486-.12557.83486-.279l-.35264-6.25441C116.26964,246.15308,115.894,246.02751,115.43477,246.02751Z" transform="translate(0.00272 -234.36085)" fill="#0e0000"/><path d="M187.63842,246.02751H122.59831c-.45293,0-.82352.12557-.82352.279l-1.02751,6.25441c0,.15347.37058.279.82352.279h66.41546c.45294,0,.82351-.12557.82351-.279l-.34783-6.25441C188.46194,246.15308,188.09135,246.02751,187.63842,246.02751Z" transform="translate(0.00272 -234.36085)" fill="#0e0000"/><path d="M194.92583,285.42264l-.60616-18.09167a.27782.27782,0,0,1,.27694-.29036h21.52316c.7672,0,.88818.10982.90217.25378l1.7579,18.09167a.27767.27767,0,0,1-.27527.30812H195.20615A.28053.28053,0,0,1,194.92583,285.42264Z" transform="translate(0.00272 -234.36085)" fill="#0e0000"/><path d="M215.46265,255.27751H194.17253a.30114.30114,0,0,0-.30025.30026l.2971,5.48282a.30114.30114,0,0,0,.30025.30026H215.822a.30114.30114,0,0,0,.30025-.30026l-.35937-5.48282A.30115.30115,0,0,0,215.46265,255.27751Z" transform="translate(0.00272 -234.36085)" fill="#0e0000"/><path d="M214.546,246.75668H193.25587a.30114.30114,0,0,0-.30026.30025l.2971,5.48283a.30114.30114,0,0,0,.30025.30025h21.3524a.30113.30113,0,0,0,.30025-.30025l-.35937-5.48283A.30114.30114,0,0,0,214.546,246.75668Z" transform="translate(0.00272 -234.36085)" fill="#0e0000"/><path d="M268.44179,285.69418H224.61855a.27848.27848,0,0,1-.2764-.24442l-2.74627-29.90659a.2785.2785,0,0,1,.2764-.31257h42.98139a.27849.27849,0,0,1,.27425.23l3.58811,29.90659A.27849.27849,0,0,1,268.44179,285.69418Z" transform="translate(0.00272 -234.36085)" fill="#0e0000"/><polygon points="31.387 12.552 23.293 12.552 22.156 18.198 32.531 18.198 31.387 12.552" fill="#241f16"/><path d="M23.56056,10.418h7.559a.26754.26754,0,0,1,.26754.26754V12.5517a0,0,0,0,1,0,0H23.293a0,0,0,0,1,0,0V10.68556A.26754.26754,0,0,1,23.56056,10.418Z" fill="#282219"/><polygon points="31.387 10.681 32.531 14.076 32.531 18.198 31.387 12.552 31.387 10.681" fill="#38312a"/><polygon points="23.3 10.681 22.156 14.076 22.156 18.198 23.3 12.552 23.3 10.681" fill="#38312a"/><polygon points="42.325 12.552 34.231 12.552 33.094 18.198 43.469 18.198 42.325 12.552" fill="#241f16"/><path d="M34.49806,10.418h7.559a.26754.26754,0,0,1,.26754.26754V12.5517a0,0,0,0,1,0,0H34.23051a0,0,0,0,1,0,0V10.68556a.26754.26754,0,0,1,.26754-.26754Z" fill="#282219"/><polygon points="42.325 10.681 43.469 14.076 43.469 18.198 42.325 12.552 42.325 10.681" fill="#38312a"/><polygon points="34.238 10.681 33.094 14.076 33.094 18.198 34.238 12.552 34.238 10.681" fill="#38312a"/><polygon points="60.477 12.66 50.456 12.66 49.049 18.306 61.893 18.306 60.477 12.66" fill="#241f16"/><path d="M50.75394,10.5261H60.1793a.29768.29768,0,0,1,.29768.29768v1.836a0,0,0,0,1,0,0H50.45625a0,0,0,0,1,0,0v-1.836a.29768.29768,0,0,1,.29768-.29768Z" fill="#282219"/><polygon points="60.477 10.789 61.893 14.185 61.893 18.306 60.477 12.66 60.477 10.789" fill="#38312a"/><polygon points="50.465 10.789 49.049 14.185 49.049 18.306 50.465 12.66 50.465 10.789" fill="#38312a"/><polygon points="73.836 12.707 63.815 12.707 62.408 18.353 75.252 18.353 73.836 12.707" fill="#241f16"/><path d="M64.11276,10.57291h9.42536a.29768.29768,0,0,1,.29768.29768v1.836a0,0,0,0,1,0,0H63.81507a0,0,0,0,1,0,0v-1.836A.29768.29768,0,0,1,64.11276,10.57291Z" fill="#282219"/><polygon points="73.836 10.836 75.252 14.231 75.252 18.353 73.836 12.707 73.836 10.836" fill="#38312a"/><polygon points="63.824 10.836 62.408 14.231 62.408 18.353 63.824 12.707 63.824 10.836" fill="#38312a"/><polygon points="87.543 12.707 77.522 12.707 76.115 18.353 88.959 18.353 87.543 12.707" fill="#241f16"/><path d="M77.81977,10.57291h9.42536a.29768.29768,0,0,1,.29768.29768v1.836a0,0,0,0,1,0,0H77.52209a0,0,0,0,1,0,0v-1.836a.29768.29768,0,0,1,.29768-.29768Z" fill="#282219"/><polygon points="87.543 10.836 88.959 14.231 88.959 18.353 87.543 12.707 87.543 10.836" fill="#38312a"/><polygon points="77.531 10.836 76.115 14.231 76.115 18.353 77.531 12.707 77.531 10.836" fill="#38312a"/><polygon points="99.102 12.753 89.675 12.753 88.351 18.4 100.434 18.4 99.102 12.753" fill="#241f16"/><path d="M89.96394,10.61972h8.849a.28872.28872,0,0,1,.28872.28872v1.845a0,0,0,0,1,0,0H89.67521a0,0,0,0,1,0,0v-1.845a.28872.28872,0,0,1,.28872-.28872Z" fill="#282219"/><polygon points="99.102 10.883 100.434 14.278 100.434 18.4 99.102 12.753 99.102 10.883" fill="#38312a"/><polygon points="89.684 10.883 88.351 14.278 88.351 18.4 89.684 12.753 89.684 10.883" fill="#38312a"/><polygon points="100.918 12.768 90.897 12.768 89.49 18.414 102.334 18.414 100.918 12.768" fill="#241f16"/><path d="M91.19459,10.63419H100.62a.29768.29768,0,0,1,.29768.29768v1.836a0,0,0,0,1,0,0H90.8969a0,0,0,0,1,0,0v-1.836a.29768.29768,0,0,1,.29768-.29768Z" fill="#282219"/><polygon points="100.918 10.897 102.334 14.293 102.334 18.414 100.918 12.768 100.918 10.897" fill="#38312a"/><polygon points="90.906 10.897 89.49 14.293 89.49 18.414 90.906 12.768 90.906 10.897" fill="#38312a"/><polygon points="114.459 12.707 104.438 12.707 103.03 18.353 115.875 18.353 114.459 12.707" fill="#241f16"/><path d="M104.7355,10.57291h9.42536a.29768.29768,0,0,1,.29768.29768v1.836a0,0,0,0,1,0,0H104.43782a0,0,0,0,1,0,0v-1.836A.29768.29768,0,0,1,104.7355,10.57291Z" fill="#282219"/><polygon points="114.459 10.836 115.875 14.231 115.875 18.353 114.459 12.707 114.459 10.836" fill="#38312a"/><polygon points="104.447 10.836 103.03 14.231 103.03 18.353 104.447 12.707 104.447 10.836" fill="#38312a"/><polygon points="133.446 12.629 123.556 12.629 122.167 18.275 134.844 18.275 133.446 12.629" fill="#241f16"/><path d="M123.85148,10.49546h9.29912a.29575.29575,0,0,1,.29575.29575v1.83794a0,0,0,0,1,0,0h-9.89061a0,0,0,0,1,0,0V10.79121A.29575.29575,0,0,1,123.85148,10.49546Z" fill="#282219"/><polygon points="133.446 10.758 134.844 14.154 134.844 18.275 133.446 12.629 133.446 10.758" fill="#38312a"/><polygon points="123.565 10.758 122.167 14.154 122.167 18.275 123.565 12.629 123.565 10.758" fill="#38312a"/><polygon points="146.632 12.676 136.741 12.676 135.352 18.322 148.03 18.322 146.632 12.676" fill="#241f16"/><path d="M137.03683,10.54227H146.336a.29575.29575,0,0,1,.29575.29575V12.676a0,0,0,0,1,0,0h-9.89061a0,0,0,0,1,0,0V10.838A.29575.29575,0,0,1,137.03683,10.54227Z" fill="#282219"/><polygon points="146.632 10.805 148.03 14.201 148.03 18.322 146.632 12.676 146.632 10.805" fill="#38312a"/><polygon points="136.75 10.805 135.352 14.201 135.352 18.322 136.75 12.676 136.75 10.805" fill="#38312a"/><polygon points="160.161 12.676 150.27 12.676 148.881 18.322 161.559 18.322 160.161 12.676" fill="#241f16"/><path d="M150.56586,10.54227H159.865a.29575.29575,0,0,1,.29575.29575V12.676a0,0,0,0,1,0,0h-9.89061a0,0,0,0,1,0,0V10.838A.29575.29575,0,0,1,150.56586,10.54227Z" fill="#282219"/><polygon points="160.161 10.805 161.559 14.201 161.559 18.322 160.161 12.676 160.161 10.805" fill="#38312a"/><polygon points="150.279 10.805 148.881 14.201 148.881 18.322 150.279 12.676 150.279 10.805" fill="#38312a"/><polygon points="173.362 12.737 163.471 12.737 162.082 18.383 174.76 18.383 173.362 12.737" fill="#241f16"/><path d="M163.767,10.60355h9.29912a.29575.29575,0,0,1,.29575.29575v1.83794a0,0,0,0,1,0,0h-9.89061a0,0,0,0,1,0,0V10.89929a.29575.29575,0,0,1,.29575-.29575Z" fill="#282219"/><polygon points="173.362 10.867 174.76 14.262 174.76 18.383 173.362 12.737 173.362 10.867" fill="#38312a"/><polygon points="163.48 10.867 162.082 14.262 162.082 18.383 163.48 12.737 163.48 10.867" fill="#38312a"/><polygon points="186.727 12.676 176.836 12.676 175.447 18.322 188.125 18.322 186.727 12.676" fill="#241f16"/><path d="M177.13208,10.54227h9.29912a.29575.29575,0,0,1,.29575.29575V12.676a0,0,0,0,1,0,0h-9.89061a0,0,0,0,1,0,0V10.838A.29575.29575,0,0,1,177.13208,10.54227Z" fill="#282219"/><polygon points="186.727 10.805 188.125 14.201 188.125 18.322 186.727 12.676 186.727 10.805" fill="#38312a"/><polygon points="176.845 10.805 175.447 14.201 175.447 18.322 176.845 12.676 176.845 10.805" fill="#38312a"/><polygon points="202.739 12.676 195.104 12.676 194.032 18.322 203.818 18.322 202.739 12.676" fill="#241f16"/><path d="M195.36393,10.54227H202.479a.25984.25984,0,0,1,.25984.25984V12.676a0,0,0,0,1,0,0h-7.63477a0,0,0,0,1,0,0V10.80211A.25984.25984,0,0,1,195.36393,10.54227Z" fill="#282219"/><polygon points="202.739 10.805 203.818 14.201 203.818 18.322 202.739 12.676 202.739 10.805" fill="#38312a"/><polygon points="195.111 10.805 194.032 14.201 194.032 18.322 195.111 12.676 195.111 10.805" fill="#38312a"/><polygon points="213.056 12.676 205.421 12.676 204.349 18.322 214.135 18.322 213.056 12.676" fill="#241f16"/><path d="M205.68071,10.54227h7.11509a.25984.25984,0,0,1,.25984.25984V12.676a0,0,0,0,1,0,0h-7.63477a0,0,0,0,1,0,0V10.80211A.25984.25984,0,0,1,205.68071,10.54227Z" fill="#282219"/><polygon points="213.056 10.805 214.135 14.201 214.135 18.322 213.056 12.676 213.056 10.805" fill="#38312a"/><polygon points="205.428 10.805 204.349 14.201 204.349 18.322 205.428 12.676 205.428 10.805" fill="#38312a"/><polygon points="231.701 22.263 223.787 22.263 222.675 28.811 232.82 28.811 231.701 22.263" fill="#241f16"/><path d="M224.07162,19.78889H231.416a.28488.28488,0,0,1,.28488.28488v2.1894a0,0,0,0,1,0,0h-7.91413a0,0,0,0,1,0,0v-2.1894A.28488.28488,0,0,1,224.07162,19.78889Z" fill="#282219"/><polygon points="231.701 20.094 232.82 24.031 232.82 28.811 231.701 22.263 231.701 20.094" fill="#38312a"/><polygon points="223.794 20.094 222.675 24.031 222.675 28.811 223.794 22.263 223.794 20.094" fill="#38312a"/><polygon points="242.395 22.263 234.481 22.263 233.37 28.811 243.514 28.811 242.395 22.263" fill="#241f16"/><path d="M234.7659,19.78889h7.34436a.28488.28488,0,0,1,.28488.28488v2.1894a0,0,0,0,1,0,0H234.481a0,0,0,0,1,0,0v-2.1894A.28488.28488,0,0,1,234.7659,19.78889Z" fill="#282219"/><polygon points="242.395 20.094 243.514 24.031 243.514 28.811 242.395 22.263 242.395 20.094" fill="#38312a"/><polygon points="234.488 20.094 233.37 24.031 233.37 28.811 234.488 22.263 234.488 20.094" fill="#38312a"/><polygon points="253.28 22.008 245.366 22.008 244.255 28.555 254.399 28.555 253.28 22.008" fill="#241f16"/><path d="M245.651,19.53366h7.34436a.28488.28488,0,0,1,.28488.28488v2.1894a0,0,0,0,1,0,0h-7.91413a0,0,0,0,1,0,0v-2.1894A.28488.28488,0,0,1,245.651,19.53366Z" fill="#282219"/><polygon points="253.28 19.839 254.399 23.776 254.399 28.555 253.28 22.008 253.28 19.839" fill="#38312a"/><polygon points="245.373 19.839 244.255 23.776 244.255 28.555 245.373 22.008 245.373 19.839" fill="#38312a"/><polygon points="263.974 22.008 256.06 22.008 254.949 28.555 265.093 28.555 263.974 22.008" fill="#241f16"/><path d="M256.34526,19.53366h7.34436a.28488.28488,0,0,1,.28488.28488v2.1894a0,0,0,0,1,0,0h-7.91413a0,0,0,0,1,0,0v-2.1894A.28488.28488,0,0,1,256.34526,19.53366Z" fill="#282219"/><polygon points="263.974 19.839 265.093 23.776 265.093 28.555 263.974 22.008 263.974 19.839" fill="#38312a"/><polygon points="256.068 19.839 254.949 23.776 254.949 28.555 256.068 22.008 256.068 19.839" fill="#38312a"/><polygon points="232.298 27.806 224.384 27.806 223.272 34.354 233.416 34.354 232.298 27.806" fill="#706f6d"/><path d="M224.66842,25.33181h7.34436a.28488.28488,0,0,1,.28488.28488v2.1894a0,0,0,0,1,0,0h-7.91413a0,0,0,0,1,0,0v-2.1894A.28488.28488,0,0,1,224.66842,25.33181Z" fill="#9e9c9a"/><polygon points="232.298 25.637 233.416 29.574 233.416 34.354 232.298 27.806 232.298 25.637" fill="#7a7874"/><polygon points="224.391 25.637 223.272 29.574 223.272 34.354 224.391 27.806 224.391 25.637" fill="#7a7874"/><polygon points="242.992 27.806 235.078 27.806 233.966 34.354 244.111 34.354 242.992 27.806" fill="#706f6d"/><path d="M235.3627,25.33181h7.34436a.28488.28488,0,0,1,.28488.28488v2.1894a0,0,0,0,1,0,0h-7.91413a0,0,0,0,1,0,0v-2.1894A.28488.28488,0,0,1,235.3627,25.33181Z" fill="#9e9c9a"/><polygon points="242.992 25.637 244.111 29.574 244.111 34.354 242.992 27.806 242.992 25.637" fill="#7a7874"/><polygon points="235.085 25.637 233.966 29.574 233.966 34.354 235.085 27.806 235.085 25.637" fill="#7a7874"/><polygon points="253.877 27.551 245.963 27.551 244.851 34.098 254.996 34.098 253.877 27.551" fill="#706f6d"/><path d="M246.24778,25.07657h7.34436a.28488.28488,0,0,1,.28488.28488v2.1894a0,0,0,0,1,0,0H245.9629a0,0,0,0,1,0,0v-2.1894A.28488.28488,0,0,1,246.24778,25.07657Z" fill="#9e9c9a"/><polygon points="253.877 25.382 254.996 29.319 254.996 34.098 253.877 27.551 253.877 25.382" fill="#7a7874"/><polygon points="245.97 25.382 244.851 29.319 244.851 34.098 245.97 27.551 245.97 25.382" fill="#7a7874"/><polygon points="264.571 27.551 256.657 27.551 255.546 34.098 265.69 34.098 264.571 27.551" fill="#241f16"/><path d="M256.94206,25.07657h7.34436a.28488.28488,0,0,1,.28488.28488v2.1894a0,0,0,0,1,0,0h-7.91413a0,0,0,0,1,0,0v-2.1894a.28488.28488,0,0,1,.28488-.28488Z" fill="#282219"/><polygon points="264.571 25.382 265.69 29.319 265.69 34.098 264.571 27.551 264.571 25.382" fill="#38312a"/><polygon points="256.664 25.382 255.546 29.319 255.546 34.098 256.664 27.551 256.664 25.382" fill="#38312a"/><polygon points="232.894 33.322 224.98 33.322 223.869 39.87 234.013 39.87 232.894 33.322" fill="#706f6d"/><path d="M225.26522,30.84792h7.34436a.28488.28488,0,0,1,.28488.28488v2.1894a0,0,0,0,1,0,0h-7.91413a0,0,0,0,1,0,0v-2.1894a.28488.28488,0,0,1,.28488-.28488Z" fill="#9e9c9a"/><polygon points="232.894 31.153 234.013 35.09 234.013 39.87 232.894 33.322 232.894 31.153" fill="#7a7874"/><polygon points="224.988 31.153 223.869 35.09 223.869 39.87 224.988 33.322 224.988 31.153" fill="#7a7874"/><polygon points="243.589 33.322 235.675 33.322 234.563 39.87 244.707 39.87 243.589 33.322" fill="#706f6d"/><path d="M235.9595,30.84792h7.34436a.28488.28488,0,0,1,.28488.28488v2.1894a0,0,0,0,1,0,0h-7.91413a0,0,0,0,1,0,0v-2.1894A.28488.28488,0,0,1,235.9595,30.84792Z" fill="#9e9c9a"/><polygon points="243.589 31.153 244.707 35.09 244.707 39.87 243.589 33.322 243.589 31.153" fill="#7a7874"/><polygon points="235.682 31.153 234.563 35.09 234.563 39.87 235.682 33.322 235.682 31.153" fill="#7a7874"/><polygon points="254.474 33.067 246.56 33.067 245.448 39.614 255.592 39.614 254.474 33.067" fill="#706f6d"/><path d="M246.84458,30.59269h7.34436a.28488.28488,0,0,1,.28488.28488V33.067a0,0,0,0,1,0,0H246.5597a0,0,0,0,1,0,0v-2.1894A.28488.28488,0,0,1,246.84458,30.59269Z" fill="#9e9c9a"/><polygon points="254.474 30.898 255.592 34.835 255.592 39.614 254.474 33.067 254.474 30.898" fill="#7a7874"/><polygon points="246.567 30.898 245.448 34.835 245.448 39.614 246.567 33.067 246.567 30.898" fill="#7a7874"/><polygon points="265.168 33.067 257.254 33.067 256.142 39.614 266.287 39.614 265.168 33.067" fill="#241f16"/><path d="M257.53886,30.59269h7.34436a.28488.28488,0,0,1,.28488.28488V33.067a0,0,0,0,1,0,0H257.254a0,0,0,0,1,0,0v-2.1894A.28488.28488,0,0,1,257.53886,30.59269Z" fill="#282219"/><polygon points="265.168 30.898 266.287 34.835 266.287 39.614 265.168 33.067 265.168 30.898" fill="#38312a"/><polygon points="257.261 30.898 256.142 34.835 256.142 39.614 257.261 33.067 257.261 30.898" fill="#38312a"/><polygon points="233.491 38.83 225.577 38.83 224.466 45.378 234.61 45.378 233.491 38.83" fill="#706f6d"/><path d="M225.862,36.35571h7.34436a.28488.28488,0,0,1,.28488.28488V38.83a0,0,0,0,1,0,0h-7.91413a0,0,0,0,1,0,0v-2.1894A.28488.28488,0,0,1,225.862,36.35571Z" fill="#9e9c9a"/><polygon points="233.491 36.661 234.61 40.598 234.61 45.378 233.491 38.83 233.491 36.661" fill="#7a7874"/><polygon points="225.584 36.661 224.466 40.598 224.466 45.378 225.584 38.83 225.584 36.661" fill="#7a7874"/><polygon points="244.186 38.83 236.271 38.83 235.16 45.378 245.304 45.378 244.186 38.83" fill="#706f6d"/><path d="M236.5563,36.35571h7.34436a.28488.28488,0,0,1,.28488.28488V38.83a0,0,0,0,1,0,0h-7.91413a0,0,0,0,1,0,0v-2.1894A.28488.28488,0,0,1,236.5563,36.35571Z" fill="#9e9c9a"/><polygon points="244.186 36.661 245.304 40.598 245.304 45.378 244.186 38.83 244.186 36.661" fill="#7a7874"/><polygon points="236.279 36.661 235.16 40.598 235.16 45.378 236.279 38.83 236.279 36.661" fill="#7a7874"/><polygon points="255.071 38.575 247.157 38.575 246.045 45.122 256.189 45.122 255.071 38.575" fill="#706f6d"/><path d="M247.44139,36.10048h7.34436a.28488.28488,0,0,1,.28488.28488v2.1894a0,0,0,0,1,0,0H247.1565a0,0,0,0,1,0,0v-2.1894A.28488.28488,0,0,1,247.44139,36.10048Z" fill="#9e9c9a"/><polygon points="255.071 36.405 256.189 40.343 256.189 45.122 255.071 38.575 255.071 36.405" fill="#7a7874"/><polygon points="247.164 36.405 246.045 40.343 246.045 45.122 247.164 38.575 247.164 36.405" fill="#7a7874"/><polygon points="265.765 38.575 257.851 38.575 256.739 45.122 266.884 45.122 265.765 38.575" fill="#241f16"/><path d="M258.13566,36.10048H265.48a.28488.28488,0,0,1,.28488.28488v2.1894a0,0,0,0,1,0,0h-7.91413a0,0,0,0,1,0,0v-2.1894A.28488.28488,0,0,1,258.13566,36.10048Z" fill="#282219"/><polygon points="265.765 36.405 266.884 40.343 266.884 45.122 265.765 38.575 265.765 36.405" fill="#38312a"/><polygon points="257.858 36.405 256.739 40.343 256.739 45.122 257.858 38.575 257.858 36.405" fill="#38312a"/><polygon points="234.072 44.373 226.158 44.373 225.047 50.92 235.191 50.92 234.072 44.373" fill="#706f6d"/><path d="M226.44305,41.89862h7.34436a.28488.28488,0,0,1,.28488.28488v2.1894a0,0,0,0,1,0,0h-7.91413a0,0,0,0,1,0,0v-2.1894a.28488.28488,0,0,1,.28488-.28488Z" fill="#9e9c9a"/><polygon points="234.072 42.204 235.191 46.141 235.191 50.92 234.072 44.373 234.072 42.204" fill="#7a7874"/><polygon points="226.165 42.204 225.047 46.141 225.047 50.92 226.165 44.373 226.165 42.204" fill="#7a7874"/><polygon points="244.767 44.373 236.852 44.373 235.741 50.92 245.885 50.92 244.767 44.373" fill="#706f6d"/><path d="M237.13733,41.89862h7.34436a.28488.28488,0,0,1,.28488.28488v2.1894a0,0,0,0,1,0,0h-7.91413a0,0,0,0,1,0,0v-2.1894a.28488.28488,0,0,1,.28488-.28488Z" fill="#9e9c9a"/><polygon points="244.767 42.204 245.885 46.141 245.885 50.92 244.767 44.373 244.767 42.204" fill="#7a7874"/><polygon points="236.86 42.204 235.741 46.141 235.741 50.92 236.86 44.373 236.86 42.204" fill="#7a7874"/><polygon points="255.652 44.118 247.738 44.118 246.626 50.665 256.77 50.665 255.652 44.118" fill="#706f6d"/><path d="M248.02241,41.64339h7.34436a.28488.28488,0,0,1,.28488.28488v2.1894a0,0,0,0,1,0,0h-7.91413a0,0,0,0,1,0,0v-2.1894a.28488.28488,0,0,1,.28488-.28488Z" fill="#9e9c9a"/><polygon points="255.652 41.948 256.77 45.886 256.77 50.665 255.652 44.118 255.652 41.948" fill="#7a7874"/><polygon points="247.745 41.948 246.626 45.886 246.626 50.665 247.745 44.118 247.745 41.948" fill="#7a7874"/><polygon points="266.346 44.118 258.432 44.118 257.32 50.665 267.465 50.665 266.346 44.118" fill="#241f16"/><path d="M258.71669,41.64339H266.061a.28488.28488,0,0,1,.28488.28488v2.1894a0,0,0,0,1,0,0h-7.91413a0,0,0,0,1,0,0v-2.1894A.28488.28488,0,0,1,258.71669,41.64339Z" fill="#282219"/><polygon points="266.346 41.948 267.465 45.886 267.465 50.665 266.346 44.118 266.346 41.948" fill="#38312a"/><polygon points="258.439 41.948 257.32 45.886 257.32 50.665 258.439 44.118 258.439 41.948" fill="#38312a"/><polygon points="32.396 21.488 23.414 21.488 22.153 27.134 33.666 27.134 32.396 21.488" fill="#241f16"/><path d="M23.69589,19.35417h8.41845a.28184.28184,0,0,1,.28184.28184v1.85185a0,0,0,0,1,0,0H23.41405a0,0,0,0,1,0,0V19.636A.28184.28184,0,0,1,23.69589,19.35417Z" fill="#282219"/><polygon points="32.396 19.617 33.666 23.013 33.666 27.134 32.396 21.488 32.396 19.617" fill="#38312a"/><polygon points="23.422 19.617 22.153 23.013 22.153 27.134 23.422 21.488 23.422 19.617" fill="#38312a"/><polygon points="43.512 21.488 35.736 21.488 34.644 27.134 44.611 27.134 43.512 21.488" fill="#706f6d"/><path d="M35.99856,19.35417h7.2513a.26223.26223,0,0,1,.26223.26223v1.87146a0,0,0,0,1,0,0H35.73633a0,0,0,0,1,0,0V19.61639A.26223.26223,0,0,1,35.99856,19.35417Z" fill="#9e9c9a"/><polygon points="43.512 19.617 44.611 23.013 44.611 27.134 43.512 21.488 43.512 19.617" fill="#7a7874"/><polygon points="35.743 19.617 34.644 23.013 34.644 27.134 35.743 21.488 35.743 19.617" fill="#7a7874"/><polygon points="54.32 21.488 46.544 21.488 45.452 27.134 55.419 27.134 54.32 21.488" fill="#706f6d"/><path d="M46.80606,19.35417h7.2513a.26223.26223,0,0,1,.26223.26223v1.87146a0,0,0,0,1,0,0H46.54384a0,0,0,0,1,0,0V19.61639a.26223.26223,0,0,1,.26223-.26223Z" fill="#9e9c9a"/><polygon points="54.32 19.617 55.419 23.013 55.419 27.134 54.32 21.488 54.32 19.617" fill="#7a7874"/><polygon points="46.551 19.617 45.452 23.013 45.452 27.134 46.551 21.488 46.551 19.617" fill="#7a7874"/><polygon points="65.127 21.488 57.351 21.488 56.259 27.134 66.226 27.134 65.127 21.488" fill="#706f6d"/><path d="M57.61357,19.35417h7.2513a.26223.26223,0,0,1,.26223.26223v1.87146a0,0,0,0,1,0,0H57.35134a0,0,0,0,1,0,0V19.61639A.26223.26223,0,0,1,57.61357,19.35417Z" fill="#9e9c9a"/><polygon points="65.127 19.617 66.226 23.013 66.226 27.134 65.127 21.488 65.127 19.617" fill="#7a7874"/><polygon points="57.358 19.617 56.259 23.013 56.259 27.134 57.358 21.488 57.358 19.617" fill="#7a7874"/><polygon points="75.935 21.488 68.159 21.488 67.067 27.134 77.034 27.134 75.935 21.488" fill="#706f6d"/><path d="M68.42107,19.35417h7.2513a.26223.26223,0,0,1,.26223.26223v1.87146a0,0,0,0,1,0,0H68.15884a0,0,0,0,1,0,0V19.61639A.26223.26223,0,0,1,68.42107,19.35417Z" fill="#9e9c9a"/><polygon points="75.935 19.617 77.034 23.013 77.034 27.134 75.935 21.488 75.935 19.617" fill="#7a7874"/><polygon points="68.166 19.617 67.067 23.013 67.067 27.134 68.166 21.488 68.166 19.617" fill="#7a7874"/><polygon points="86.742 21.619 78.966 21.619 77.874 27.266 87.841 27.266 86.742 21.619" fill="#706f6d"/><path d="M79.22857,19.48566h7.2513a.26223.26223,0,0,1,.26223.26223v1.87146a0,0,0,0,1,0,0H78.96635a0,0,0,0,1,0,0V19.74788A.26223.26223,0,0,1,79.22857,19.48566Z" fill="#9e9c9a"/><polygon points="86.742 19.749 87.841 23.144 87.841 27.266 86.742 21.619 86.742 19.749" fill="#7a7874"/><polygon points="78.973 19.749 77.874 23.144 77.874 27.266 78.973 21.619 78.973 19.749" fill="#7a7874"/><polygon points="97.55 21.619 89.774 21.619 88.682 27.266 98.649 27.266 97.55 21.619" fill="#706f6d"/><path d="M90.03608,19.48566h7.2513a.26223.26223,0,0,1,.26223.26223v1.87146a0,0,0,0,1,0,0H89.77385a0,0,0,0,1,0,0V19.74788A.26223.26223,0,0,1,90.03608,19.48566Z" fill="#9e9c9a"/><polygon points="97.55 19.749 98.649 23.144 98.649 27.266 97.55 21.619 97.55 19.749" fill="#7a7874"/><polygon points="89.781 19.749 88.682 23.144 88.682 27.266 89.781 21.619 89.781 19.749" fill="#7a7874"/><polygon points="108.368 21.619 100.593 21.619 99.501 27.266 109.467 27.266 108.368 21.619" fill="#706f6d"/><path d="M100.85484,19.48566h7.2513a.26223.26223,0,0,1,.26223.26223v1.87146a0,0,0,0,1,0,0h-7.77575a0,0,0,0,1,0,0V19.74788A.26223.26223,0,0,1,100.85484,19.48566Z" fill="#9e9c9a"/><polygon points="108.368 19.749 109.467 23.144 109.467 27.266 108.368 21.619 108.368 19.749" fill="#7a7874"/><polygon points="100.6 19.749 99.501 23.144 99.501 27.266 100.6 21.619 100.6 19.749" fill="#7a7874"/><polygon points="119.176 21.619 111.4 21.619 110.308 27.266 120.275 27.266 119.176 21.619" fill="#706f6d"/><path d="M111.66235,19.48566h7.2513a.26223.26223,0,0,1,.26223.26223v1.87146a0,0,0,0,1,0,0h-7.77575a0,0,0,0,1,0,0V19.74788A.26223.26223,0,0,1,111.66235,19.48566Z" fill="#9e9c9a"/><polygon points="119.176 19.749 120.275 23.144 120.275 27.266 119.176 21.619 119.176 19.749" fill="#7a7874"/><polygon points="111.407 19.749 110.308 23.144 110.308 27.266 111.407 21.619 111.407 19.749" fill="#7a7874"/><polygon points="129.983 21.619 122.208 21.619 121.116 27.266 131.082 27.266 129.983 21.619" fill="#706f6d"/><path d="M122.46985,19.48566h7.2513a.26223.26223,0,0,1,.26223.26223v1.87146a0,0,0,0,1,0,0h-7.77575a0,0,0,0,1,0,0V19.74788A.26223.26223,0,0,1,122.46985,19.48566Z" fill="#9e9c9a"/><polygon points="129.983 19.749 131.082 23.144 131.082 27.266 129.983 21.619 129.983 19.749" fill="#7a7874"/><polygon points="122.215 19.749 121.116 23.144 121.116 27.266 122.215 21.619 122.215 19.749" fill="#7a7874"/><polygon points="140.791 21.619 133.015 21.619 131.923 27.266 141.89 27.266 140.791 21.619" fill="#706f6d"/><path d="M133.27735,19.48566h7.2513a.26223.26223,0,0,1,.26223.26223v1.87146a0,0,0,0,1,0,0h-7.77575a0,0,0,0,1,0,0V19.74788A.26223.26223,0,0,1,133.27735,19.48566Z" fill="#9e9c9a"/><polygon points="140.791 19.749 141.89 23.144 141.89 27.266 140.791 21.619 140.791 19.749" fill="#7a7874"/><polygon points="133.022 19.749 131.923 23.144 131.923 27.266 133.022 21.619 133.022 19.749" fill="#7a7874"/><polygon points="151.598 21.619 143.823 21.619 142.731 27.266 152.697 27.266 151.598 21.619" fill="#706f6d"/><path d="M144.08485,19.48566h7.2513a.26223.26223,0,0,1,.26223.26223v1.87146a0,0,0,0,1,0,0h-7.77575a0,0,0,0,1,0,0V19.74788A.26223.26223,0,0,1,144.08485,19.48566Z" fill="#9e9c9a"/><polygon points="151.598 19.749 152.697 23.144 152.697 27.266 151.598 21.619 151.598 19.749" fill="#7a7874"/><polygon points="143.83 19.749 142.731 23.144 142.731 27.266 143.83 21.619 143.83 19.749" fill="#7a7874"/><polygon points="162.406 21.619 154.63 21.619 153.538 27.266 163.505 27.266 162.406 21.619" fill="#706f6d"/><path d="M154.89236,19.48566h7.2513a.26223.26223,0,0,1,.26223.26223v1.87146a0,0,0,0,1,0,0h-7.77575a0,0,0,0,1,0,0V19.74788a.26223.26223,0,0,1,.26223-.26223Z" fill="#9e9c9a"/><polygon points="162.406 19.749 163.505 23.144 163.505 27.266 162.406 21.619 162.406 19.749" fill="#7a7874"/><polygon points="154.637 19.749 153.538 23.144 153.538 27.266 154.637 21.619 154.637 19.749" fill="#7a7874"/><polygon points="173.213 21.619 165.438 21.619 164.346 27.266 174.312 27.266 173.213 21.619" fill="#706f6d"/><path d="M165.69986,19.48566h7.2513a.26223.26223,0,0,1,.26223.26223v1.87146a0,0,0,0,1,0,0h-7.77575a0,0,0,0,1,0,0V19.74788A.26223.26223,0,0,1,165.69986,19.48566Z" fill="#9e9c9a"/><polygon points="173.213 19.749 174.312 23.144 174.312 27.266 173.213 21.619 173.213 19.749" fill="#7a7874"/><polygon points="165.445 19.749 164.346 23.144 164.346 27.266 165.445 21.619 165.445 19.749" fill="#7a7874"/><polygon points="186.696 21.619 176.586 21.619 175.167 27.266 188.125 27.266 186.696 21.619" fill="#241f16"/><path d="M176.88548,19.48566H186.397a.299.299,0,0,1,.299.299v1.83469a0,0,0,0,1,0,0H176.58648a0,0,0,0,1,0,0V19.78466A.299.299,0,0,1,176.88548,19.48566Z" fill="#282219"/><polygon points="186.696 19.749 188.125 23.144 188.125 27.266 186.696 21.619 186.696 19.749" fill="#38312a"/><polygon points="176.596 19.749 175.167 23.144 175.167 27.266 176.596 21.619 176.596 19.749" fill="#38312a"/><polygon points="48.774 26.576 40.998 26.576 39.906 32.222 49.873 32.222 48.774 26.576" fill="#706f6d"/><path d="M41.26053,24.44245h7.2513a.26223.26223,0,0,1,.26223.26223v1.87146a0,0,0,0,1,0,0H40.9983a0,0,0,0,1,0,0V24.70468A.26223.26223,0,0,1,41.26053,24.44245Z" fill="#9e9c9a"/><polygon points="48.774 24.705 49.873 28.101 49.873 32.222 48.774 26.576 48.774 24.705" fill="#7a7874"/><polygon points="41.005 24.705 39.906 28.101 39.906 32.222 41.005 26.576 41.005 24.705" fill="#7a7874"/><polygon points="59.582 26.576 51.806 26.576 50.714 32.222 60.681 32.222 59.582 26.576" fill="#706f6d"/><path d="M52.068,24.44245h7.2513a.26223.26223,0,0,1,.26223.26223v1.87146a0,0,0,0,1,0,0H51.80581a0,0,0,0,1,0,0V24.70468A.26223.26223,0,0,1,52.068,24.44245Z" fill="#9e9c9a"/><polygon points="59.582 24.705 60.681 28.101 60.681 32.222 59.582 26.576 59.582 24.705" fill="#7a7874"/><polygon points="51.813 24.705 50.714 28.101 50.714 32.222 51.813 26.576 51.813 24.705" fill="#7a7874"/><polygon points="70.389 26.576 62.613 26.576 61.521 32.222 71.488 32.222 70.389 26.576" fill="#706f6d"/><path d="M62.87554,24.44245h7.2513a.26223.26223,0,0,1,.26223.26223v1.87146a0,0,0,0,1,0,0H62.61331a0,0,0,0,1,0,0V24.70468A.26223.26223,0,0,1,62.87554,24.44245Z" fill="#9e9c9a"/><polygon points="70.389 24.705 71.488 28.101 71.488 32.222 70.389 26.576 70.389 24.705" fill="#7a7874"/><polygon points="62.62 24.705 61.521 28.101 61.521 32.222 62.62 26.576 62.62 24.705" fill="#7a7874"/><polygon points="81.197 26.576 73.421 26.576 72.329 32.222 82.296 32.222 81.197 26.576" fill="#706f6d"/><path d="M73.683,24.44245h7.2513a.26223.26223,0,0,1,.26223.26223v1.87146a0,0,0,0,1,0,0H73.42081a0,0,0,0,1,0,0V24.70468A.26223.26223,0,0,1,73.683,24.44245Z" fill="#9e9c9a"/><polygon points="81.197 24.705 82.296 28.101 82.296 32.222 81.197 26.576 81.197 24.705" fill="#7a7874"/><polygon points="73.428 24.705 72.329 28.101 72.329 32.222 73.428 26.576 73.428 24.705" fill="#7a7874"/><polygon points="92.004 26.708 84.228 26.708 83.136 32.354 93.103 32.354 92.004 26.708" fill="#706f6d"/><path d="M84.49054,24.57394h7.2513a.26223.26223,0,0,1,.26223.26223v1.87146a0,0,0,0,1,0,0H84.22831a0,0,0,0,1,0,0V24.83617A.26223.26223,0,0,1,84.49054,24.57394Z" fill="#9e9c9a"/><polygon points="92.004 24.837 93.103 28.232 93.103 32.354 92.004 26.708 92.004 24.837" fill="#7a7874"/><polygon points="84.235 24.837 83.136 28.232 83.136 32.354 84.235 26.708 84.235 24.837" fill="#7a7874"/><polygon points="102.812 26.708 95.036 26.708 93.944 32.354 103.911 32.354 102.812 26.708" fill="#706f6d"/><path d="M95.298,24.57394h7.2513a.26223.26223,0,0,1,.26223.26223v1.87146a0,0,0,0,1,0,0H95.03582a0,0,0,0,1,0,0V24.83617A.26223.26223,0,0,1,95.298,24.57394Z" fill="#9e9c9a"/><polygon points="102.812 24.837 103.911 28.232 103.911 32.354 102.812 26.708 102.812 24.837" fill="#7a7874"/><polygon points="95.043 24.837 93.944 28.232 93.944 32.354 95.043 26.708 95.043 24.837" fill="#7a7874"/><polygon points="113.63 26.708 105.855 26.708 104.763 32.354 114.729 32.354 113.63 26.708" fill="#706f6d"/><path d="M106.11681,24.57394h7.2513a.26223.26223,0,0,1,.26223.26223v1.87146a0,0,0,0,1,0,0h-7.77575a0,0,0,0,1,0,0V24.83617a.26223.26223,0,0,1,.26223-.26223Z" fill="#9e9c9a"/><polygon points="113.63 24.837 114.729 28.232 114.729 32.354 113.63 26.708 113.63 24.837" fill="#7a7874"/><polygon points="105.862 24.837 104.763 28.232 104.763 32.354 105.862 26.708 105.862 24.837" fill="#7a7874"/><polygon points="124.438 26.708 116.662 26.708 115.57 32.354 125.537 32.354 124.438 26.708" fill="#706f6d"/><path d="M116.92431,24.57394h7.2513a.26223.26223,0,0,1,.26223.26223v1.87146a0,0,0,0,1,0,0h-7.77575a0,0,0,0,1,0,0V24.83617a.26223.26223,0,0,1,.26223-.26223Z" fill="#9e9c9a"/><polygon points="124.438 24.837 125.537 28.232 125.537 32.354 124.438 26.708 124.438 24.837" fill="#7a7874"/><polygon points="116.669 24.837 115.57 28.232 115.57 32.354 116.669 26.708 116.669 24.837" fill="#7a7874"/><polygon points="135.245 26.708 127.47 26.708 126.378 32.354 136.344 32.354 135.245 26.708" fill="#706f6d"/><path d="M127.73182,24.57394h7.2513a.26223.26223,0,0,1,.26223.26223v1.87146a0,0,0,0,1,0,0h-7.77575a0,0,0,0,1,0,0V24.83617A.26223.26223,0,0,1,127.73182,24.57394Z" fill="#9e9c9a"/><polygon points="135.245 24.837 136.344 28.232 136.344 32.354 135.245 26.708 135.245 24.837" fill="#7a7874"/><polygon points="127.477 24.837 126.378 28.232 126.378 32.354 127.477 26.708 127.477 24.837" fill="#7a7874"/><polygon points="146.053 26.708 138.277 26.708 137.185 32.354 147.152 32.354 146.053 26.708" fill="#706f6d"/><path d="M138.53932,24.57394h7.2513a.26223.26223,0,0,1,.26223.26223v1.87146a0,0,0,0,1,0,0h-7.77575a0,0,0,0,1,0,0V24.83617A.26223.26223,0,0,1,138.53932,24.57394Z" fill="#9e9c9a"/><polygon points="146.053 24.837 147.152 28.232 147.152 32.354 146.053 26.708 146.053 24.837" fill="#7a7874"/><polygon points="138.284 24.837 137.185 28.232 137.185 32.354 138.284 26.708 138.284 24.837" fill="#7a7874"/><polygon points="156.86 26.708 149.085 26.708 147.993 32.354 157.959 32.354 156.86 26.708" fill="#706f6d"/><path d="M149.34682,24.57394h7.2513a.26223.26223,0,0,1,.26223.26223v1.87146a0,0,0,0,1,0,0h-7.77575a0,0,0,0,1,0,0V24.83617a.26223.26223,0,0,1,.26223-.26223Z" fill="#9e9c9a"/><polygon points="156.86 24.837 157.959 28.232 157.959 32.354 156.86 26.708 156.86 24.837" fill="#7a7874"/><polygon points="149.092 24.837 147.993 28.232 147.993 32.354 149.092 26.708 149.092 24.837" fill="#7a7874"/><polygon points="167.668 26.708 159.892 26.708 158.8 32.354 168.767 32.354 167.668 26.708" fill="#706f6d"/><path d="M160.15432,24.57394h7.2513a.26223.26223,0,0,1,.26223.26223v1.87146a0,0,0,0,1,0,0H159.8921a0,0,0,0,1,0,0V24.83617A.26223.26223,0,0,1,160.15432,24.57394Z" fill="#9e9c9a"/><polygon points="167.668 24.837 168.767 28.232 168.767 32.354 167.668 26.708 167.668 24.837" fill="#7a7874"/><polygon points="159.899 24.837 158.8 28.232 158.8 32.354 159.899 26.708 159.899 24.837" fill="#7a7874"/><polygon points="51.527 33.148 43.587 33.148 42.472 38.794 52.65 38.794 51.527 33.148" fill="#706f6d"/><path d="M43.852,31.01445h7.41041a.265.265,0,0,1,.265.265v1.8687a0,0,0,0,1,0,0H43.587a0,0,0,0,1,0,0v-1.8687a.265.265,0,0,1,.265-.265Z" fill="#9e9c9a"/><polygon points="51.527 31.277 52.65 34.673 52.65 38.794 51.527 33.148 51.527 31.277" fill="#7a7874"/><polygon points="43.594 31.277 42.472 34.673 42.472 38.794 43.594 33.148 43.594 31.277" fill="#7a7874"/><polygon points="62.564 33.148 54.623 33.148 53.508 38.794 63.686 38.794 62.564 33.148" fill="#706f6d"/><path d="M54.88833,31.01445h7.41041a.265.265,0,0,1,.265.265v1.8687a0,0,0,0,1,0,0H54.62334a0,0,0,0,1,0,0v-1.8687A.265.265,0,0,1,54.88833,31.01445Z" fill="#9e9c9a"/><polygon points="62.564 31.277 63.686 34.673 63.686 38.794 62.564 33.148 62.564 31.277" fill="#7a7874"/><polygon points="54.631 31.277 53.508 34.673 53.508 38.794 54.631 33.148 54.631 31.277" fill="#7a7874"/><polygon points="73.6 33.148 65.66 33.148 64.544 38.794 74.722 38.794 73.6 33.148" fill="#706f6d"/><path d="M65.92466,31.01445h7.41041a.265.265,0,0,1,.265.265v1.8687a0,0,0,0,1,0,0H65.65967a0,0,0,0,1,0,0v-1.8687A.265.265,0,0,1,65.92466,31.01445Z" fill="#9e9c9a"/><polygon points="73.6 31.277 74.722 34.673 74.722 38.794 73.6 33.148 73.6 31.277" fill="#7a7874"/><polygon points="65.667 31.277 64.544 34.673 64.544 38.794 65.667 33.148 65.667 31.277" fill="#7a7874"/><polygon points="84.636 33.148 76.696 33.148 75.581 38.794 85.759 38.794 84.636 33.148" fill="#706f6d"/><path d="M76.961,31.01445h7.41041a.265.265,0,0,1,.265.265v1.8687a0,0,0,0,1,0,0H76.696a0,0,0,0,1,0,0v-1.8687A.265.265,0,0,1,76.961,31.01445Z" fill="#9e9c9a"/><polygon points="84.636 31.277 85.759 34.673 85.759 38.794 84.636 33.148 84.636 31.277" fill="#7a7874"/><polygon points="76.703 31.277 75.581 34.673 75.581 38.794 76.703 33.148 76.703 31.277" fill="#7a7874"/><polygon points="95.673 33.28 87.732 33.28 86.617 38.926 96.795 38.926 95.673 33.28" fill="#706f6d"/><path d="M87.99731,31.14594h7.41041a.265.265,0,0,1,.265.265v1.8687a0,0,0,0,1,0,0H87.73233a0,0,0,0,1,0,0v-1.8687a.265.265,0,0,1,.265-.265Z" fill="#9e9c9a"/><polygon points="95.673 31.409 96.795 34.804 96.795 38.926 95.673 33.28 95.673 31.409" fill="#7a7874"/><polygon points="87.74 31.409 86.617 34.804 86.617 38.926 87.74 33.28 87.74 31.409" fill="#7a7874"/><polygon points="106.709 33.28 98.769 33.28 97.653 38.926 107.831 38.926 106.709 33.28" fill="#706f6d"/><path d="M99.03364,31.14594H106.444a.265.265,0,0,1,.265.265v1.8687a0,0,0,0,1,0,0H98.76865a0,0,0,0,1,0,0v-1.8687A.265.265,0,0,1,99.03364,31.14594Z" fill="#9e9c9a"/><polygon points="106.709 31.409 107.831 34.804 107.831 38.926 106.709 33.28 106.709 31.409" fill="#7a7874"/><polygon points="98.776 31.409 97.653 34.804 97.653 38.926 98.776 33.28 98.776 31.409" fill="#7a7874"/><polygon points="117.757 33.28 109.816 33.28 108.701 38.926 118.879 38.926 117.757 33.28" fill="#706f6d"/><path d="M110.08147,31.14594h7.41041a.265.265,0,0,1,.265.265v1.8687a0,0,0,0,1,0,0h-7.94038a0,0,0,0,1,0,0v-1.8687A.265.265,0,0,1,110.08147,31.14594Z" fill="#9e9c9a"/><polygon points="117.757 31.409 118.879 34.804 118.879 38.926 117.757 33.28 117.757 31.409" fill="#7a7874"/><polygon points="109.824 31.409 108.701 34.804 108.701 38.926 109.824 33.28 109.824 31.409" fill="#7a7874"/><polygon points="128.793 33.28 120.853 33.28 119.738 38.926 129.916 38.926 128.793 33.28" fill="#706f6d"/><path d="M121.1178,31.14594h7.41041a.265.265,0,0,1,.265.265v1.8687a0,0,0,0,1,0,0h-7.94038a0,0,0,0,1,0,0v-1.8687A.265.265,0,0,1,121.1178,31.14594Z" fill="#9e9c9a"/><polygon points="128.793 31.409 129.916 34.804 129.916 38.926 128.793 33.28 128.793 31.409" fill="#7a7874"/><polygon points="120.86 31.409 119.738 34.804 119.738 38.926 120.86 33.28 120.86 31.409" fill="#7a7874"/><polygon points="139.83 33.28 131.889 33.28 130.774 38.926 140.952 38.926 139.83 33.28" fill="#706f6d"/><path d="M132.15413,31.14594h7.41041a.265.265,0,0,1,.265.265v1.8687a0,0,0,0,1,0,0h-7.94038a0,0,0,0,1,0,0v-1.8687A.265.265,0,0,1,132.15413,31.14594Z" fill="#9e9c9a"/><polygon points="139.83 31.409 140.952 34.804 140.952 38.926 139.83 33.28 139.83 31.409" fill="#7a7874"/><polygon points="131.896 31.409 130.774 34.804 130.774 38.926 131.896 33.28 131.896 31.409" fill="#7a7874"/><polygon points="150.866 33.28 142.925 33.28 141.81 38.926 151.988 38.926 150.866 33.28" fill="#706f6d"/><path d="M143.19045,31.14594h7.41041a.265.265,0,0,1,.265.265v1.8687a0,0,0,0,1,0,0h-7.94038a0,0,0,0,1,0,0v-1.8687A.265.265,0,0,1,143.19045,31.14594Z" fill="#9e9c9a"/><polygon points="150.866 31.409 151.988 34.804 151.988 38.926 150.866 33.28 150.866 31.409" fill="#7a7874"/><polygon points="142.933 31.409 141.81 34.804 141.81 38.926 142.933 33.28 142.933 31.409" fill="#7a7874"/><polygon points="161.902 33.28 153.962 33.28 152.847 38.926 163.025 38.926 161.902 33.28" fill="#706f6d"/><path d="M154.22678,31.14594h7.41041a.265.265,0,0,1,.265.265v1.8687a0,0,0,0,1,0,0h-7.94038a0,0,0,0,1,0,0v-1.8687A.265.265,0,0,1,154.22678,31.14594Z" fill="#9e9c9a"/><polygon points="161.902 31.409 163.025 34.804 163.025 38.926 161.902 33.28 161.902 31.409" fill="#7a7874"/><polygon points="153.969 31.409 152.847 34.804 152.847 38.926 153.969 33.28 153.969 31.409" fill="#7a7874"/><polygon points="53.843 38.66 45.748 38.66 44.611 44.306 54.987 44.306 53.843 38.66" fill="#706f6d"/><path d="M46.01561,36.52649h7.55967a.26755.26755,0,0,1,.26755.26755v1.86613a0,0,0,0,1,0,0H45.74806a0,0,0,0,1,0,0V36.794A.26755.26755,0,0,1,46.01561,36.52649Z" fill="#9e9c9a"/><polygon points="53.843 36.789 54.987 40.185 54.987 44.306 53.843 38.66 53.843 36.789" fill="#7a7874"/><polygon points="45.755 36.789 44.611 40.185 44.611 44.306 45.755 38.66 45.755 36.789" fill="#7a7874"/><polygon points="65.094 38.66 56.999 38.66 55.862 44.306 66.238 44.306 65.094 38.66" fill="#706f6d"/><path d="M57.26652,36.52649h7.55967a.26755.26755,0,0,1,.26755.26755v1.86613a0,0,0,0,1,0,0H56.999a0,0,0,0,1,0,0V36.794A.26755.26755,0,0,1,57.26652,36.52649Z" fill="#9e9c9a"/><polygon points="65.094 36.789 66.238 40.185 66.238 44.306 65.094 38.66 65.094 36.789" fill="#7a7874"/><polygon points="57.006 36.789 55.862 40.185 55.862 44.306 57.006 38.66 57.006 36.789" fill="#7a7874"/><polygon points="76.345 38.66 68.25 38.66 67.113 44.306 77.489 44.306 76.345 38.66" fill="#706f6d"/><path d="M68.51743,36.52649H76.0771a.26755.26755,0,0,1,.26755.26755v1.86613a0,0,0,0,1,0,0H68.24988a0,0,0,0,1,0,0V36.794a.26755.26755,0,0,1,.26755-.26755Z" fill="#9e9c9a"/><polygon points="76.345 36.789 77.489 40.185 77.489 44.306 76.345 38.66 76.345 36.789" fill="#7a7874"/><polygon points="68.257 36.789 67.113 40.185 67.113 44.306 68.257 38.66 68.257 36.789" fill="#7a7874"/><polygon points="87.596 38.66 79.501 38.66 78.364 44.306 88.74 44.306 87.596 38.66" fill="#706f6d"/><path d="M79.76835,36.52649H87.328a.26755.26755,0,0,1,.26755.26755v1.86613a0,0,0,0,1,0,0H79.50079a0,0,0,0,1,0,0V36.794A.26755.26755,0,0,1,79.76835,36.52649Z" fill="#9e9c9a"/><polygon points="87.596 36.789 88.74 40.185 88.74 44.306 87.596 38.66 87.596 36.789" fill="#7a7874"/><polygon points="79.508 36.789 78.364 40.185 78.364 44.306 79.508 38.66 79.508 36.789" fill="#7a7874"/><polygon points="98.846 38.792 90.752 38.792 89.615 44.438 99.991 44.438 98.846 38.792" fill="#706f6d"/><path d="M91.01926,36.658h7.55967a.26755.26755,0,0,1,.26755.26755v1.86613a0,0,0,0,1,0,0H90.7517a0,0,0,0,1,0,0V36.92553A.26755.26755,0,0,1,91.01926,36.658Z" fill="#9e9c9a"/><polygon points="98.846 36.921 99.991 40.316 99.991 44.438 98.846 38.792 98.846 36.921" fill="#7a7874"/><polygon points="90.759 36.921 89.615 40.316 89.615 44.438 90.759 38.792 90.759 36.921" fill="#7a7874"/><polygon points="110.097 38.792 102.003 38.792 100.866 44.438 111.242 44.438 110.097 38.792" fill="#706f6d"/><path d="M102.27017,36.658h7.55967a.26755.26755,0,0,1,.26755.26755v1.86613a0,0,0,0,1,0,0h-8.09477a0,0,0,0,1,0,0V36.92553a.26755.26755,0,0,1,.26755-.26755Z" fill="#9e9c9a"/><polygon points="110.097 36.921 111.242 40.316 111.242 44.438 110.097 38.792 110.097 36.921" fill="#7a7874"/><polygon points="102.01 36.921 100.866 40.316 100.866 44.438 102.01 38.792 102.01 36.921" fill="#7a7874"/><polygon points="121.36 38.792 113.265 38.792 112.128 44.438 122.504 44.438 121.36 38.792" fill="#706f6d"/><path d="M113.53281,36.658h7.55967a.26755.26755,0,0,1,.26755.26755v1.86613a0,0,0,0,1,0,0h-8.09477a0,0,0,0,1,0,0V36.92553A.26755.26755,0,0,1,113.53281,36.658Z" fill="#9e9c9a"/><polygon points="121.36 36.921 122.504 40.316 122.504 44.438 121.36 38.792 121.36 36.921" fill="#7a7874"/><polygon points="113.273 36.921 112.128 40.316 112.128 44.438 113.273 38.792 113.273 36.921" fill="#7a7874"/><polygon points="132.611 38.792 124.516 38.792 123.379 44.438 133.755 44.438 132.611 38.792" fill="#706f6d"/><path d="M124.78372,36.658h7.55967a.26755.26755,0,0,1,.26755.26755v1.86613a0,0,0,0,1,0,0h-8.09477a0,0,0,0,1,0,0V36.92553A.26755.26755,0,0,1,124.78372,36.658Z" fill="#9e9c9a"/><polygon points="132.611 36.921 133.755 40.316 133.755 44.438 132.611 38.792 132.611 36.921" fill="#7a7874"/><polygon points="124.524 36.921 123.379 40.316 123.379 44.438 124.524 38.792 124.524 36.921" fill="#7a7874"/><polygon points="143.862 38.792 135.767 38.792 134.63 44.438 145.006 44.438 143.862 38.792" fill="#706f6d"/><path d="M136.03463,36.658h7.55967a.26755.26755,0,0,1,.26755.26755v1.86613a0,0,0,0,1,0,0h-8.09477a0,0,0,0,1,0,0V36.92553A.26755.26755,0,0,1,136.03463,36.658Z" fill="#9e9c9a"/><polygon points="143.862 36.921 145.006 40.316 145.006 44.438 143.862 38.792 143.862 36.921" fill="#7a7874"/><polygon points="135.774 36.921 134.63 40.316 134.63 44.438 135.774 38.792 135.774 36.921" fill="#7a7874"/><polygon points="155.113 38.792 147.018 38.792 145.881 44.438 156.257 44.438 155.113 38.792" fill="#706f6d"/><path d="M147.28554,36.658h7.55967a.26755.26755,0,0,1,.26755.26755v1.86613a0,0,0,0,1,0,0H147.018a0,0,0,0,1,0,0V36.92553a.26755.26755,0,0,1,.26755-.26755Z" fill="#9e9c9a"/><polygon points="155.113 36.921 156.257 40.316 156.257 44.438 155.113 38.792 155.113 36.921" fill="#7a7874"/><polygon points="147.025 36.921 145.881 40.316 145.881 44.438 147.025 38.792 147.025 36.921" fill="#7a7874"/><path d="M187.874,267.64048H176.61735l.056-4.02263h-5.26461V259.872a.28781.28781,0,0,1,.2962-.27673h15.87327a.28657.28657,0,0,1,.2958.27635Z" transform="translate(0.00272 -234.36085)" fill="#282219"/><polygon points="187.877 33.28 176.62 33.28 175.135 38.813 189.406 38.813 187.877 33.28" fill="#241f16"/><polygon points="171.411 25.499 169.915 28.894 169.915 32.354 171.411 29.257 171.411 25.499" fill="#38312a"/><polygon points="169.915 32.314 175.135 32.314 176.676 29.257 171.411 29.257 169.915 32.314" fill="#241f16"/><polygon points="176.676 29.257 175.135 32.314 175.135 38.813 176.62 33.28 176.676 29.257" fill="#38312a"/><polygon points="187.877 25.511 188.898 28.595 189.406 38.813 187.877 33.28 187.877 25.511" fill="#38312a"/><polygon points="172.939 33.28 164.998 33.28 163.883 38.926 174.061 38.926 172.939 33.28" fill="#706f6d"/><path d="M165.26311,31.14594h7.41041a.265.265,0,0,1,.265.265v1.8687a0,0,0,0,1,0,0h-7.94038a0,0,0,0,1,0,0v-1.8687A.265.265,0,0,1,165.26311,31.14594Z" fill="#9e9c9a"/><polygon points="172.939 31.409 174.061 34.804 174.061 38.926 172.939 33.28 172.939 31.409" fill="#7a7874"/><polygon points="165.005 31.409 163.883 34.804 163.883 38.926 165.005 33.28 165.005 31.409" fill="#7a7874"/><polygon points="166.364 38.792 158.269 38.792 157.132 44.438 167.508 44.438 166.364 38.792" fill="#706f6d"/><path d="M158.53645,36.658h7.55967a.26755.26755,0,0,1,.26755.26755v1.86613a0,0,0,0,1,0,0H158.2689a0,0,0,0,1,0,0V36.92553A.26755.26755,0,0,1,158.53645,36.658Z" fill="#9e9c9a"/><polygon points="166.364 36.921 167.508 40.316 167.508 44.438 166.364 38.792 166.364 36.921" fill="#7a7874"/><polygon points="158.276 36.921 157.132 40.316 157.132 44.438 158.276 38.792 158.276 36.921" fill="#7a7874"/><polygon points="188.589 38.923 170.28 38.923 168.828 44.569 190.042 44.569 188.589 38.923" fill="#241f16"/><path d="M170.68253,36.78947h17.5044a.40238.40238,0,0,1,.40238.40238v1.7313a0,0,0,0,1,0,0H170.28015a0,0,0,0,1,0,0v-1.7313A.40238.40238,0,0,1,170.68253,36.78947Z" fill="#282219"/><polygon points="188.589 37.052 190.042 40.448 190.042 44.569 188.589 38.923 188.589 37.052" fill="#38312a"/><polygon points="170.28 37.052 168.828 40.448 168.828 44.569 170.28 38.923 170.28 37.052" fill="#38312a"/><polygon points="203.544 21.061 195.909 21.061 194.837 26.708 204.623 26.708 203.544 21.061" fill="#241f16"/><path d="M196.16881,18.92773h7.11509a.25984.25984,0,0,1,.25984.25984v1.87385a0,0,0,0,1,0,0H195.909a0,0,0,0,1,0,0V19.18756A.25984.25984,0,0,1,196.16881,18.92773Z" fill="#282219"/><polygon points="203.544 19.191 204.623 22.586 204.623 26.708 203.544 21.061 203.544 19.191" fill="#38312a"/><polygon points="195.916 19.191 194.837 22.586 194.837 26.708 195.916 21.061 195.916 19.191" fill="#38312a"/><polygon points="213.861 21.061 206.226 21.061 205.154 26.708 214.94 26.708 213.861 21.061" fill="#241f16"/><path d="M206.4856,18.92773h7.11509a.25984.25984,0,0,1,.25984.25984v1.87385a0,0,0,0,1,0,0h-7.63477a0,0,0,0,1,0,0V19.18756A.25984.25984,0,0,1,206.4856,18.92773Z" fill="#282219"/><polygon points="213.861 19.191 214.94 22.586 214.94 26.708 213.861 21.061 213.861 19.191" fill="#38312a"/><polygon points="206.233 19.191 205.154 22.586 205.154 26.708 206.233 21.061 206.233 19.191" fill="#38312a"/><polygon points="204.302 33.031 196.243 33.031 195.111 38.678 205.441 38.678 204.302 33.031" fill="#241f16"/><path d="M196.50985,30.89765h7.52528a.267.267,0,0,1,.267.267v1.86672a0,0,0,0,1,0,0h-8.05921a0,0,0,0,1,0,0V31.16462A.267.267,0,0,1,196.50985,30.89765Z" fill="#282219"/><polygon points="204.302 31.161 205.441 34.556 205.441 38.678 204.302 33.031 204.302 31.161" fill="#38312a"/><polygon points="196.25 31.161 195.111 34.556 195.111 38.678 196.25 33.031 196.25 31.161" fill="#38312a"/><polygon points="215.192 33.031 207.133 33.031 206.001 38.678 216.332 38.678 215.192 33.031" fill="#241f16"/><path d="M207.40018,30.89765h7.52528a.267.267,0,0,1,.267.267v1.86672a0,0,0,0,1,0,0h-8.05921a0,0,0,0,1,0,0V31.16462A.267.267,0,0,1,207.40018,30.89765Z" fill="#282219"/><polygon points="215.192 31.161 216.332 34.556 216.332 38.678 215.192 33.031 215.192 31.161" fill="#38312a"/><polygon points="207.141 31.161 206.001 34.556 206.001 38.678 207.141 33.031 207.141 31.161" fill="#38312a"/><polygon points="204.864 39.055 196.805 39.055 195.673 44.701 206.004 44.701 204.864 39.055" fill="#241f16"/><path d="M197.07212,36.921h7.52528a.267.267,0,0,1,.267.267v1.86672a0,0,0,0,1,0,0h-8.05921a0,0,0,0,1,0,0V37.18792A.267.267,0,0,1,197.07212,36.921Z" fill="#282219"/><polygon points="204.864 37.184 206.004 40.579 206.004 44.701 204.864 39.055 204.864 37.184" fill="#38312a"/><polygon points="196.812 37.184 195.673 40.579 195.673 44.701 196.812 39.055 196.812 37.184" fill="#38312a"/><polygon points="215.755 39.055 207.695 39.055 206.564 44.701 216.894 44.701 215.755 39.055" fill="#241f16"/><path d="M207.96245,36.921h7.52528a.267.267,0,0,1,.267.267v1.86672a0,0,0,0,1,0,0h-8.05921a0,0,0,0,1,0,0V37.18792A.267.267,0,0,1,207.96245,36.921Z" fill="#282219"/><polygon points="215.755 37.184 216.894 40.579 216.894 44.701 215.755 39.055 215.755 37.184" fill="#38312a"/><polygon points="207.703 37.184 206.564 40.579 206.564 44.701 207.703 39.055 207.703 37.184" fill="#38312a"/><polygon points="216.15 45.269 197.399 45.269 195.912 50.916 217.638 50.916 216.15 45.269" fill="#241f16"/><path d="M197.80658,43.13577H215.743a.40721.40721,0,0,1,.40721.40721v1.72648a0,0,0,0,1,0,0H197.39938a0,0,0,0,1,0,0V43.543a.40721.40721,0,0,1,.40721-.40721Z" fill="#282219"/><polygon points="216.15 43.399 217.638 46.794 217.638 50.916 216.15 45.269 216.15 43.399" fill="#38312a"/><polygon points="197.399 43.399 195.912 46.794 195.912 50.916 197.399 45.269 197.399 43.399" fill="#38312a"/><polygon points="37.792 26.708 22.56 26.708 21.352 32.354 39 32.354 37.792 26.708" fill="#241f16"/><path d="M22.92747,24.57394H37.42479a.367.367,0,0,1,.367.367v1.76668a0,0,0,0,1,0,0H22.56046a0,0,0,0,1,0,0V24.94095A.367.367,0,0,1,22.92747,24.57394Z" fill="#282219"/><polygon points="37.792 24.837 39 28.232 39 32.354 37.792 26.708 37.792 24.837" fill="#38312a"/><polygon points="22.56 24.837 21.352 28.232 21.352 32.354 22.56 26.708 22.56 24.837" fill="#38312a"/><polygon points="29.313 33.28 21.037 33.28 19.875 38.926 30.483 38.926 29.313 33.28" fill="#241f16"/><path d="M21.30785,31.14594h7.735a.27053.27053,0,0,1,.27053.27053v1.86315a0,0,0,0,1,0,0h-8.2761a0,0,0,0,1,0,0V31.41648a.27053.27053,0,0,1,.27053-.27053Z" fill="#282219"/><polygon points="29.313 31.409 30.483 34.804 30.483 38.926 29.313 33.28 29.313 31.409" fill="#38312a"/><polygon points="21.045 31.409 19.875 34.804 19.875 38.926 21.045 33.28 21.045 31.409" fill="#38312a"/><polygon points="40.497 33.28 32.221 33.28 31.058 38.926 41.667 38.926 40.497 33.28" fill="#241f16"/><path d="M32.49126,31.14594h7.735a.27053.27053,0,0,1,.27053.27053v1.86315a0,0,0,0,1,0,0h-8.2761a0,0,0,0,1,0,0V31.41648A.27053.27053,0,0,1,32.49126,31.14594Z" fill="#282219"/><polygon points="40.497 31.409 41.667 34.804 41.667 38.926 40.497 33.28 40.497 31.409" fill="#38312a"/><polygon points="32.228 31.409 31.058 34.804 31.058 38.926 32.228 33.28 32.228 31.409" fill="#38312a"/><polygon points="41.814 38.792 20.405 38.792 18.706 44.438 43.512 44.438 41.814 38.792" fill="#241f16"/><path d="M20.83985,36.658H41.37872a.43512.43512,0,0,1,.43512.43512v1.69857a0,0,0,0,1,0,0H20.40473a0,0,0,0,1,0,0V37.0931A.43512.43512,0,0,1,20.83985,36.658Z" fill="#282219"/><polygon points="41.814 36.921 43.512 40.316 43.512 44.438 41.814 38.792 41.814 36.921" fill="#38312a"/><polygon points="20.405 36.921 18.706 40.316 18.706 44.438 20.405 38.792 20.405 36.921" fill="#38312a"/><polygon points="49.838 45.508 41.744 45.508 40.607 51.155 50.982 51.155 49.838 45.508" fill="#241f16"/><path d="M42.01137,43.37481h7.559a.26754.26754,0,0,1,.26754.26754v1.86614a0,0,0,0,1,0,0H41.74383a0,0,0,0,1,0,0V43.64235a.26754.26754,0,0,1,.26754-.26754Z" fill="#282219"/><polygon points="49.838 43.638 50.982 47.033 50.982 51.155 49.838 45.508 49.838 43.638" fill="#38312a"/><polygon points="41.751 43.638 40.607 47.033 40.607 51.155 41.751 45.508 41.751 43.638" fill="#38312a"/><polygon points="60.775 45.508 52.681 45.508 51.545 51.155 61.92 51.155 60.775 45.508" fill="#241f16"/><path d="M52.94887,43.37481h7.559a.26754.26754,0,0,1,.26754.26754v1.86614a0,0,0,0,1,0,0H52.68133a0,0,0,0,1,0,0V43.64235A.26754.26754,0,0,1,52.94887,43.37481Z" fill="#282219"/><polygon points="60.775 43.638 61.92 47.033 61.92 51.155 60.775 45.508 60.775 43.638" fill="#38312a"/><polygon points="52.689 43.638 51.545 47.033 51.545 51.155 52.689 45.508 52.689 43.638" fill="#38312a"/><polygon points="166.94 45.401 152.567 45.401 151.427 51.047 168.08 51.047 166.94 45.401" fill="#241f16"/><path d="M152.92368,43.26726h13.66a.35652.35652,0,0,1,.35652.35652v1.77717a0,0,0,0,1,0,0h-14.373a0,0,0,0,1,0,0V43.62377A.35652.35652,0,0,1,152.92368,43.26726Z" fill="#282219"/><polygon points="166.94 43.53 168.08 46.926 168.08 51.047 166.94 45.401 166.94 43.53" fill="#38312a"/><polygon points="152.567 43.53 151.427 46.926 151.427 51.047 152.567 45.401 152.567 43.53" fill="#38312a"/><polygon points="149.767 45.508 63.636 45.508 62.544 51.155 150.866 51.155 149.767 45.508" fill="#706f6d"/><path d="M149.50179,277.76l-85.60587-.02431a.263.263,0,0,0-.26222.26222v1.87146H149.764V278.0222A.263.263,0,0,0,149.50179,277.76Z" transform="translate(0.00272 -234.36085)" fill="#9e9c9a"/><polygon points="149.767 43.638 150.866 47.033 150.866 51.155 149.767 45.508 149.767 43.638" fill="#7a7874"/><polygon points="63.643 43.638 62.544 47.033 62.544 51.155 63.643 45.508 63.643 43.638" fill="#7a7874"/><polygon points="231.796 6.22 232.263 5.536 231.874 5.438 232.729 5.203 234.518 5.751 234.985 5.203 235.841 5.321 235.141 5.418 234.518 6.2 232.496 5.633 232.263 5.985 232.729 6.102 231.796 6.22" fill="#1b1610"/><path d="M237.3965,239.6756h.39776q.43242,0,.579.01218a.76791.76791,0,0,1,.28527.06372c.07373.0289.18776.07659.18624.143l.25978-.27154h-3.11742l-.01976.02353h.12626a.66989.66989,0,0,1,.19826.01912c.04351.00864.06776.02095.073.03685.0015.00952-.01549.0352-.05074.07709l-.21452.25577a.75464.75464,0,0,1-.1455.03193c-.09676.01621-.195.02517-.194.02479a.794.794,0,0,1,.14977.01981c.04349.011.075.02372.09549.029l-.19975.2441a.27795.27795,0,0,1-.103.08593.5628.5628,0,0,1-.13977.03275c-.0755.00952-.172.01432-.172.01432l-.01976.02353h2.98919l.21251-.2747a1.05477,1.05477,0,0,1-.43829.16416,4.85812,4.85812,0,0,1-.83053.05931h-.22828a1.59213,1.59213,0,0,1-.22775-.01085.13527.13527,0,0,1-.07677-.0277q-.01237-.01685.051-.09255l.217-.23867a3.36146,3.36146,0,0,1,.40326.01728.99582.99582,0,0,1,.21952.04095c.10025.03344.22977.05041.20851.10277l.28426-.36977a1.02955,1.02955,0,0,1-.44528.10511,3.62981,3.62981,0,0,1-.551.03287h-.07627Z" transform="translate(0.00272 -234.36085)" fill="#1b1610"/><path d="M241.516,240.54146l.62229-.33224a8.53655,8.53655,0,0,1-1.24132.09843c-.546-.00852-.98705-.13035-.91929-.26909.13824-.28271,1.30507-.357,1.30507-.357l.46653.1759.54452-.03905-.38151-.256a13.27677,13.27677,0,0,0-1.42734.10889c-.7303.10139-1.45309.29382-1.38033.49886.17026.47892,1.70836.41173,1.86686.41041C241.13021,240.57919,241.516,240.54146,241.516,240.54146Z" transform="translate(0.00272 -234.36085)" fill="#1b1610"/><rect x="243.29859" y="5.20361" width="0.62631" height="1.93358" fill="#1b1610"/><path d="M244.72941,239.64456c.29505-.01259.68062-.02321,1.17238-.02321a6.53609,6.53609,0,0,1,1.3265.09927c.25933.05656.41395.14348.41395.24967,0,.10817-.12624.19312-.365.2551a6.23138,6.23138,0,0,1-1.44589.13113c-.18252,0-.35084-.002-.49127-.01061v.47809h-.61065Zm.61065.5754c.13358.00889.3019.01259.50546.01259.73689,0,1.18607-.09038,1.18607-.2551,0-.15755-.44233-.23386-1.1161-.23386-.26668,0-.47023.00543-.57543.01235Z" transform="translate(0.00272 -234.36085)"/><path d="M251.76709,240.785a11.2578,11.2578,0,0,1-1.2492.0568c-1.33336,0-2.33741-.21262-2.33741-.604,0-.37364,1.00405-.627,2.4705-.627a9.352,9.352,0,0,1,1.123.0531l-.14728.12594a8.15976,8.15976,0,0,0-.95464-.04964c-1.10876,0-1.84566.1788-1.84566.49242,0,.29215.66693.47983,1.81777.47983a9.05416,9.05416,0,0,0,.99672-.04964Z" transform="translate(0.00272 -234.36085)"/><path d="M253.94009,240.28738v.11508h-1.73361v-.11508Z" transform="translate(0.00272 -234.36085)"/><path d="M254.82329,240.71411c.13358.0037.28771,0,.49811-.00519a5.05535,5.05535,0,0,0,.95463-.11162.96334.96334,0,0,0,.60381-.30646h-.02105a3.81592,3.81592,0,0,1-1.074.124c-.82105,0-1.34755-.15582-1.34755-.35239,0-.21782.62485-.4092,1.558-.4092.9336,0,1.509.19138,1.509.48526,0,.25337-.33664.43043-.78583.54033a6.729,6.729,0,0,1-1.3265.15409c-.22459.00889-.42129.01062-.56857.00889Zm.22459-.66232c0,.14348.344.24448.87732.24448a2.59641,2.59641,0,0,0,.89836-.12051c.03523-.01408.05628-.03186.05628-.05656,0-.19657-.28772-.34721-.9336-.34721C255.41975,239.772,255.04788,239.8888,255.04788,240.05179Z" transform="translate(0.00272 -234.36085)"/><path d="M258.00817,240.53186c0-.14521.344-.24794.90522-.3082l-.00685-.00543c-.50546-.06025-.7232-.15928-.7232-.25856,0-.18249.61066-.30646,1.41067-.30646.88466,0,1.32651.14,1.32651.2835,0,.0973-.18936.20176-.7506.26917v.00544c.56809.05655.91941.15755.91941.29733,0,.20027-.68112.33486-1.5511.33486C258.5836,240.84351,258.00817,240.7,258.00817,240.53186Zm2.45631-.00716c0-.14-.38606-.20719-1.00356-.2514-.53334.03877-.82105.12743-.82105.23732-.021.11681.32979.21954.91206.21954C260.1068,240.73016,260.46448,240.64323,260.46448,240.5247Zm-1.69837-.57565c0,.11508.344.17707.87.21263.3934-.03383.69481-.10446.69481-.20917,0-.09211-.21725-.18768-.77163-.18768C259.047,239.76483,258.76611,239.84978,258.76611,239.94905Z" transform="translate(0.00272 -234.36085)"/><path d="M264.69453,240.236c0,.39142-.57543.6075-1.58633.6075-.891,0-1.49483-.21089-1.509-.59169,0-.386.66008-.59861,1.58633-.59861C264.147,239.65321,264.69453,239.86929,264.69453,240.236Zm-2.47735.01778c0,.29931.36453.46921.92625.46921.63169,0,.93359-.186.93359-.47983,0-.2835-.28771-.46945-.92674-.46945C262.61009,239.77372,262.21718,239.94016,262.21718,240.25379Z" transform="translate(0.00272 -234.36085)"/><path d="M266.60135,239.81792h-.01419l-.79268.10817-.11939-.11879.99672-.13458h.526V240.824h-.59646Z" transform="translate(0.00272 -234.36085)"/><path d="M244.72941,241.03022c.10083-.00444.23309-.00815.401-.00815a2.13336,2.13336,0,0,1,.45445.03556c.08911.02025.14163.05112.14163.08915,0,.03853-.04314.0689-.12475.09113a2.05525,2.05525,0,0,1-.49525.04667c-.06238,0-.12006-.00049-.16837-.0037v.17089h-.2087Zm.2087.20571c.046.00321.10365.00445.17306.00445.25232,0,.40614-.03235.40614-.09113,0-.0563-.151-.08347-.38175-.08347-.09146,0-.16134.002-.19745.00445Z" transform="translate(0.00272 -234.36085)"/><path d="M246.8455,241.25174h-.62986v.15385h.70208v.04618h-.91078v-.42649h.87467v.04618h-.666v.13484h.62986Z" transform="translate(0.00272 -234.36085)"/><path d="M247.18786,241.031c.106-.00568.25748-.00889.40146-.00889a2.162,2.162,0,0,1,.469.03482c.0816.019.12709.04816.12709.081,0,.05631-.1346.0936-.30531.10891v.00173a.3524.3524,0,0,1,.23825.08618.52966.52966,0,0,0,.12475.11706h-.21621a.4294.4294,0,0,1-.10833-.102c-.04784-.05878-.13413-.081-.32408-.08273H247.397v.18472h-.20917Zm.20917.19435h.21386c.22371,0,.36581-.03235.36581-.081,0-.05507-.15148-.07927-.37285-.07976-.10083,0-.173.00247-.20682.00494Z" transform="translate(0.00272 -234.36085)"/><path d="M248.45085,241.3846a2.45793,2.45793,0,0,0,.37472.0279c.21433,0,.33908-.02963.33908-.07285,0-.03976-.08629-.06248-.30531-.0847-.26451-.0247-.42772-.06075-.42772-.12076,0-.06643.20917-.11582.52386-.11582a2.58174,2.58174,0,0,1,.35831.02074l-.05768.045a2.18679,2.18679,0,0,0-.30766-.02025c-.22136,0-.30531.03482-.30531.064,0,.03976.09849.05951.32219.08223.27389.02791.41318.06273.41318.12545,0,.06569-.18478.12274-.567.12274a2.84337,2.84337,0,0,1-.41364-.02741Z" transform="translate(0.00272 -234.36085)"/><path d="M251.04765,241.2342c0,.14669-.33861.22448-.75226.22448-.42772,0-.72787-.08717-.72787-.21633,0-.13557.31938-.224.75226-.224C250.762,241.01837,251.04765,241.10752,251.04765,241.2342Zm-1.25689.00692c0,.09112.18759.17262.51682.17262.33158,0,.51918-.08026.51918-.17707,0-.08495-.16837-.17336-.51683-.17336C249.96381,241.06331,249.79076,241.14728,249.79076,241.24112Z" transform="translate(0.00272 -234.36085)"/><path d="M251.31779,241.45177v-.42649h.2284l.51917.21584a2.59977,2.59977,0,0,1,.29078.13854l.00515-.00074a.51558.51558,0,0,1-.02391-.17534v-.1783h.197v.42649h-.21151l-.51449-.21633a3.09409,3.09409,0,0,1-.303-.14249l-.007.00074a.77914.77914,0,0,1,.01689.17583v.18225Z" transform="translate(0.00272 -234.36085)"/><path d="M253.16,241.31767l-.16837.1341h-.21621l.5506-.42649h.25232l.55293.42649h-.2237l-.17306-.1341Zm.53136-.043-.159-.123a.751.751,0,0,1-.084-.07779h-.00469a.9384.9384,0,0,1-.0816.0773l-.159.12347Z" transform="translate(0.00272 -234.36085)"/><path d="M254.36717,241.02528h.20917v.38031h.69223v.04618h-.9014Z" transform="translate(0.00272 -234.36085)"/><path d="M257.14172,241.43794a3.70547,3.70547,0,0,1-.42772.02025c-.4568,0-.8001-.07606-.8001-.21584,0-.1336.3433-.224.84606-.224a3.05982,3.05982,0,0,1,.38457.019l-.05065.0447a2.74308,2.74308,0,0,0-.32689-.01753c-.37988,0-.6322.064-.6322.17583,0,.10446.2284.17163.62235.17163a3.002,3.002,0,0,0,.34143-.01778Z" transform="translate(0.00272 -234.36085)"/><path d="M258.73628,241.2342c0,.14669-.33861.22448-.75226.22448-.42772,0-.72787-.08717-.72787-.21633,0-.13557.31938-.224.75226-.224C258.45067,241.01837,258.73628,241.10752,258.73628,241.2342Zm-1.25689.00692c0,.09112.1876.17262.51683.17262.33157,0,.51917-.08026.51917-.17707,0-.08495-.16837-.17336-.51683-.17336C257.65245,241.06331,257.47939,241.14728,257.47939,241.24112Z" transform="translate(0.00272 -234.36085)"/><path d="M260.37212,241.26433a.84564.84564,0,0,1-.02438-.184h-.007a2.39015,2.39015,0,0,1-.20448.162l-.28608.207h-.15852l-.26217-.20324a1.49961,1.49961,0,0,1-.18713-.16571h-.00515a1.51785,1.51785,0,0,1-.031.18843l-.04314.183h-.19979l.113-.42649h.26686l.27623.20621a1.387,1.387,0,0,1,.16368.14372h.007a1.378,1.378,0,0,1,.17071-.14372l.28843-.20621h.26685l.10084.42649h-.204Z" transform="translate(0.00272 -234.36085)"/><path d="M260.93679,241.03022c.1013-.00444.23355-.00815.40145-.00815a2.13346,2.13346,0,0,1,.45446.03556c.0891.02025.14163.05112.14163.08915,0,.03853-.04315.0689-.12475.09113a2.05534,2.05534,0,0,1-.49526.04667c-.06237,0-.12006-.00049-.16836-.0037v.17089h-.20917Zm.20917.20571c.046.00321.10364.00445.173.00445.25279,0,.40662-.03235.40662-.09113,0-.0563-.15148-.08347-.38223-.08347-.09145,0-.16133.002-.19744.00445Z" transform="translate(0.00272 -234.36085)"/><path d="M262.42349,241.02528v.25239c0,.09557.16133.13607.37754.13607.24059,0,.39442-.04174.39442-.13607v-.25239h.211v.24868c0,.13089-.26169.18472-.6125.18472-.332,0-.582-.04988-.582-.18225v-.25115Z" transform="translate(0.00272 -234.36085)"/><path d="M264.07621,241.0722h-.49291v-.04692h1.19921v.04692h-.49525v.37957h-.21105Z" transform="translate(0.00272 -234.36085)"/><path d="M265.80022,241.25174h-.62985v.15385h.70207v.04618h-.91078v-.42649h.87467v.04618h-.666v.13484h.62985Z" transform="translate(0.00272 -234.36085)"/><path d="M266.14258,241.031c.106-.00568.25748-.00889.40146-.00889a2.16182,2.16182,0,0,1,.469.03482c.0816.019.1271.04816.1271.081,0,.05631-.1346.0936-.30532.10891v.00173a.3524.3524,0,0,1,.23825.08618.52985.52985,0,0,0,.12475.11706h-.2162a.42922.42922,0,0,1-.10834-.102c-.04784-.05878-.13413-.081-.32407-.08273h-.19745v.18472h-.20917Zm.20917.19435h.21386c.22371,0,.36582-.03235.36582-.081,0-.05507-.15149-.07927-.37285-.07976-.10084,0-.17306.00247-.20683.00494Z" transform="translate(0.00272 -234.36085)"/><rect x="29.65844" y="238.85817" width="7.25" height="0.61433" transform="translate(-207.56319 22.10872) rotate(-86.18677)" fill="#958b7c"/><rect x="213.35805" y="235.54019" width="0.61855" height="7.25" transform="translate(-15.41708 -219.63452) rotate(-3.80999)" fill="#958b7c"/></svg>