<svg baseProfile="tiny" xmlns="http://www.w3.org/2000/svg" viewBox="0 0 168 168"><path fill="#3C3C3C" d="M110.1 94.2v.5l-.3.9-.7.6-.9.4h-.9l-.9-.4-.6-.6-.4-.9-.1-.5.1-.5.4-.8.6-.7.9-.3.4-.1.5.1.9.3.7.7.3.8v.5zM84 112h.8l1.6.4 2.1.9 2.2 2.2 1 2.1.3 1.6V152.8l-.3 1.6-1 2.1-2.2 2.2-2.1 1-1.6.3h-1.6l-1.5-.3-2.2-1-2.2-2.2-.9-2.1-.4-1.6V119.2l.4-1.6.9-2.1 2.2-2.2 2.2-.9 1.5-.4h.8z"/><path d="M0 0h168v39.7h-4v8h4V168h-65.6l-.1-.5-.4-.8-.6-.7-.9-.4-.5-.1-.5.1-.9.4-.6.7-.4.8-.1.5h-27l-.1-.5-.4-.8-.7-.7-.8-.4-.5-.1-.5.1-.9.4-.7.7-.4.8v.5H0V0zm100 84l-.1-1.6-.7-3.1-1.2-2.9-1.7-2.6-2.2-2.2-2.5-1.7-2.9-1.2-3.1-.6L84 68l-1.6.1-3.1.6-2.9 1.2-2.6 1.7-2.2 2.2-1.7 2.6-1.2 2.9-.6 3.1L68 84l.1 1.7.6 3.1 1.2 2.9 1.7 2.5 2.2 2.2 2.6 1.7 2.9 1.2 3.1.7H84l1.7-.1 3.1-.7 2.9-1.2 2.5-1.7 2.2-2.2 1.7-2.5 1.2-2.9.7-3.1V84z"/><path fill-rule="evenodd" fill="#3C3C3C" d="M100 84l-.1 1.7-.7 3.1-1.2 2.9-1.7 2.5-2.2 2.2-2.5 1.7-2.9 1.2-3.1.7H84l-1.6-.1-3.1-.7-2.9-1.2-2.6-1.7-2.2-2.2-1.7-2.5-1.2-2.9-.6-3.1L68 84l.1-1.6.6-3.1 1.2-2.9 1.7-2.6 2.2-2.2 2.6-1.7 2.9-1.2 3.1-.6L84 68l1.7.1 3.1.6 2.9 1.2 2.5 1.7 2.2 2.2 1.7 2.6 1.2 2.9.7 3.1V84zm4 0l-.1 2.1-.8 3.9-1.5 3.5-2.2 3.2-2.7 2.7-3.2 2.2-3.5 1.5-3.9.8-2.1.1-2-.1-3.9-.8-3.6-1.5-3.2-2.2-2.7-2.7-2.2-3.2-1.5-3.5-.8-3.9L64 84l.1-2 .8-3.9 1.6-3.6 2.2-3.2 2.7-2.7 3.2-2.2 3.6-1.6 3.9-.8 2-.1 2.1.1 3.9.8 3.5 1.6 3.2 2.2 2.7 2.7 2.2 3.2 1.5 3.6.8 3.9v2z"/><path fill="none" stroke="#1A1A1A" stroke-miterlimit="10" d="M100 84v1.7l-.7 3.1-1.2 2.9-1.7 2.5-2.2 2.2-2.5 1.7-2.9 1.2-3.1.7h-3.3l-3.1-.7-2.9-1.2-2.6-1.7-2.2-2.2-1.7-2.5-1.2-2.9-.6-3.1L68 84l.1-1.6.6-3.1 1.2-2.9 1.7-2.5 2.2-2.3 2.6-1.6 2.9-1.3 3.1-.6L84 68l1.7.1 3.1.6 2.9 1.3 2.5 1.6 2.2 2.3 1.7 2.5 1.2 2.9.7 3.1V84z"/><path fill="#3E3BC4" d="M56 3.8h99.3v6.6H56z"/><path fill="#FFF" d="M56 10.4h99.3V17H56z"/><path fill="#FFF" d="M56 16.9h99.3v6.6H56zM56 23.5h99.3v6.6H56z"/><path fill="#FFF" d="M56 30h99.3v7.7H56z"/><g fill="none" stroke="#231F20" stroke-width=".323" stroke-miterlimit="10"><path d="M56 10.4h99.3M56 16.9h99.3M56 23.5h99.3M56 30h99.3"/></g></svg>