<?xml version="1.0" encoding="UTF-8"?>
<!DOCTYPE svg PUBLIC "-//W3C//DTD SVG 1.0//EN" "http://www.w3.org/TR/2001/REC-SVG-20010904/DTD/svg10.dtd">
<!-- Creator: CorelDRAW 2018 (64 Bit) -->
<svg xmlns="http://www.w3.org/2000/svg" xml:space="preserve" width="1501px" height="3381px" version="1.0" shape-rendering="geometricPrecision" text-rendering="geometricPrecision" image-rendering="optimizeQuality" fill-rule="evenodd" clip-rule="evenodd"
viewBox="0 0 1501 3380.68"
 xmlns:xlink="http://www.w3.org/1999/xlink"
 baseProfile="tiny">
 <g id="Camada_x0020_1">
  <metadata id="CorelCorpID_0Corel-Layer"/>
  <path fill="#BDBDBD" d="M1462.86 2289.62c0,-8.61 -1.07,-18.31 -4.31,-26.92 -3.23,-8.61 -11.84,-15.07 -22.61,-15.07l0 5.38c-2.16,0 -5.38,0 -5.38,3.23l1.08 383.37c-4.31,136.77 -44.16,256.3 -107.69,359.69 -2.16,4.29 2.15,6.45 4.31,6.45 7.53,0 12.91,-1.08 18.3,-1.08l0 1.08c7.53,0 12.92,1.08 18.31,0 5.38,-1.08 10.76,-3.23 13.99,-9.69 0,0 0,0 0,0 0,0 0,0 0,0 58.16,-103.38 85.08,-221.84 85.08,-347.84l0 -358.6 -1.08 0zm0 0z"/>
  <path fill="#BDBDBD" d="M1462.86 1093.21c0,8.62 -1.07,18.3 -4.31,26.92 -3.23,8.61 -11.84,15.08 -22.61,15.08l0 -5.39c-2.16,0 -5.38,0 -5.38,-3.23l1.08 -383.37c-4.31,-136.76 -44.16,-256.3 -107.69,-359.68 -2.16,-4.31 2.15,-6.46 4.31,-6.46 7.53,0 12.91,1.08 18.3,1.08l0 -1.08c7.53,0 12.92,-1.08 18.31,0 5.38,1.08 10.76,3.23 13.99,9.69 0,0 0,0 0,0 0,0 0,0 0,0 58.16,103.38 85.08,221.84 85.08,347.83l0 358.61 -1.08 0 0 0zm0 0z"/>
  <path fill="#CCCCCC" d="M1435.94 730.3l0 908.88 -12.92 0 0 103.39 12.92 0 0 907.81c0,385.53 -312.3,697.82 -697.82,697.82 -385.52,1.08 -697.82,-311.21 -697.82,-696.74 0,-152.92 48.46,-292.91 131.38,-408.14l0 0 10.77 -14c20.46,-25.84 32.3,-57.08 32.3,-92.61l0 -891.67c0,-34.45 -11.84,-66.76 -32.3,-92.6l-10.77 -14 0 0c-82.92,-115.23 -131.38,-256.3 -131.38,-408.14 0,-385.53 312.29,-697.82 697.82,-697.82 385.52,0 697.82,312.29 697.82,697.82l0 0 0 0zm0 0z"/>
  <rect fill="none" x="29.53" y="32.48" width="1441.95" height="3315.72"/>
  <path fill="#4C4C4C" d="M411.82 1285.97c3.23,0 5.39,-1.08 6.47,-3.23l3.23 -4.31c4.3,-6.46 9.69,-9.69 16.15,-9.69 3.23,0 6.47,1.07 8.62,2.15 2.15,1.08 4.3,3.23 5.38,6.47 1.07,2.15 2.15,5.38 2.15,8.62 0,4.3 -2.15,7.53 -5.39,10.76 -3.22,2.15 -7.53,4.31 -12.91,4.31l0 -9.7c2.15,0 4.31,0 5.38,-1.07 1.08,-1.08 2.16,-2.16 2.16,-3.24 0,-2.14 -1.08,-3.22 -2.16,-4.3 -1.07,-1.07 -2.15,-2.15 -4.31,-2.15 -2.15,0 -4.31,1.08 -6.46,4.31 -2.16,3.22 -3.23,5.38 -4.3,7.53 -3.23,4.31 -8.62,6.47 -15.09,6.47 -3.22,0 -6.45,-1.08 -8.6,-2.16 -2.16,-1.08 -4.31,-3.23 -5.39,-5.39 -1.08,-2.15 -2.16,-5.37 -2.16,-8.61 0,-2.15 1.08,-4.31 1.08,-6.46 1.08,-2.15 2.16,-3.23 4.31,-5.39 3.23,-3.23 8.62,-4.31 14,-4.31l0 9.7c-3.23,0 -5.38,0 -6.46,1.08 -1.07,1.07 -2.15,2.15 -2.15,4.31 0,2.15 0,3.23 1.08,4.3 2.14,-1.07 4.29,-1.07 5.37,0l0 0 0 0zm0 0z"/>
  <path fill="#4C4C4C" d="M443.06 1495.96l0 -12.92 -46.31 -6.46 0 -9.69 46.31 6.46 0 -11.84 10.76 1.07 0 34.46 -10.76 -1.08zm0 0z"/>
  <path fill="#4C4C4C" d="M416.13 1449.66c-4.31,0 -7.54,-1.08 -10.77,-3.24 -3.22,-2.15 -5.38,-4.3 -7.53,-6.45 -2.16,-3.23 -2.16,-5.39 -2.16,-8.62 0,-4.31 2.16,-7.54 5.39,-10.77 3.23,-2.15 8.61,-4.3 15.07,-4.3 4.31,0 8.62,0 14,1.07 5.39,1.08 9.7,2.16 12.93,4.3 3.22,2.16 6.45,4.31 8.61,6.47 2.15,3.23 2.15,5.38 2.15,8.62 0,4.31 -2.15,8.61 -5.38,10.76 -3.24,3.23 -8.61,4.31 -15.08,4.31l0 -8.62c3.23,0 6.47,0 7.54,-1.07 1.08,-1.07 2.16,-2.15 2.16,-4.31 0,-5.38 -5.39,-8.61 -16.16,-9.69 -5.38,0 -8.61,-1.08 -10.77,-1.08 -6.46,0 -9.69,2.16 -9.69,5.39 0,2.15 1.07,4.31 2.15,5.38 2.16,1.08 4.31,2.16 6.47,3.24l1.07 8.61zm0 0z"/>
  <path fill="#4C4C4C" d="M420.44 1405.5l0 -16.15 -14 -2.15 0 18.3 -10.77 -1.08 0 -29.07 57.07 7.54 0 29.08 -10.76 -1.08 0 -18.31 -11.85 -1.07 0 16.15 -9.69 -2.16 0 0zm0 0z"/>
  <path fill="#4C4C4C" d="M407.51 1351.66l0 17.23 -10.76 -1.08 0 -27.99 57.07 7.53 0 9.7 -46.31 -5.39zm0 0z"/>
  <path fill="#4C4C4C" d="M420.44 1332.28l0 -16.16 -14 -2.15 0 18.31 -10.77 -1.08 0 -27.99 57.07 7.53 0 29.08 -10.76 -1.08 0 -18.31 -11.85 -1.07 0 16.15 -9.69 -3.23 0 0zm0 0z"/>
  <path fill="#4C4C4C" d="M411.82 1661.8c3.23,0 5.39,-1.08 6.47,-3.23l3.23 -5.38c4.3,-6.46 9.69,-9.7 16.15,-9.7 3.23,0 6.47,1.08 8.62,2.16 2.15,1.08 4.3,3.23 5.38,6.46 1.07,2.16 2.15,5.39 2.15,8.61 0,4.31 -2.15,7.54 -5.39,10.78 -3.22,2.15 -7.53,4.31 -12.91,4.31l0 -9.7c2.15,0 4.31,0 5.38,-1.08 1.08,-1.07 2.16,-2.15 2.16,-3.23 0,-2.15 -1.08,-3.23 -2.16,-4.3 -1.07,-1.08 -2.15,-2.15 -4.31,-2.15 -2.15,0 -4.31,1.07 -6.46,4.3 -2.16,3.23 -3.23,5.38 -4.3,7.54 -3.23,4.31 -8.62,6.46 -15.09,6.46 -3.22,0 -6.45,-1.08 -8.6,-2.15 -2.16,-1.08 -4.31,-3.23 -5.39,-6.47 -1.08,-2.15 -2.16,-5.38 -2.16,-8.61 0,-2.15 1.08,-4.31 1.08,-6.46 1.08,-2.16 2.16,-3.23 4.31,-5.39 3.23,-3.23 8.62,-4.31 14,-4.31l0 9.7c-3.23,0 -5.38,0 -6.46,1.08 -1.07,1.07 -2.15,2.15 -2.15,4.31 0,2.14 0,3.22 1.08,4.3 2.14,1.07 4.29,1.07 5.37,2.15l0 0 0 0zm0 0z"/>
  <path fill="#4C4C4C" d="M443.06 1842.72l0 -11.85 -46.31 -6.46 0 -9.69 46.31 6.46 0 -11.84 10.76 1.07 0 34.46 -10.76 -2.15 0 0zm0 0z"/>
  <path fill="#4C4C4C" d="M426.9 1775.96l0 5.37c0,1.08 0,3.24 1.08,4.31 1.07,1.08 2.15,2.16 4.3,2.16 2.16,0 3.24,1.07 5.39,0 3.23,0 4.31,-2.16 4.31,-4.31l0 -6.47 -15.08 -1.06 0 0zm-9.69 -2.16l-20.46 -2.15 0 -9.7 57.07 7.54 0 15.08c0,4.31 -1.08,8.62 -4.31,10.76 -3.22,2.16 -7.53,3.23 -11.84,3.23 -4.31,0 -7.54,-1.07 -9.69,-3.23 -3.23,-1.08 -5.38,-3.22 -6.46,-6.45l-22.62 5.37 -1.07 0.01 0 -10.77 20.46 -4.31 0 -5.38 -1.08 0 0 0zm0 0z"/>
  <path fill="#4C4C4C" d="M407.51 1731.8l-10.76 -4.31 0 -10.76 57.07 22.6 0 9.7 -57.07 7.53 0 -10.76 10.76 -1.08 0 -12.92zm10.78 4.3l0 8.62 19.38 -2.15 -19.38 -6.47zm0 0z"/>
  <path fill="#4C4C4C" d="M443.06 1717.8l0 -11.85 -46.31 -6.46 0 -9.69 46.31 6.46 0 -11.84 10.76 1.07 0 34.46 -10.76 -2.15 0 0zm0 0z"/>
  <path fill="#999999" d="M745.66 1130.9c-218.61,0 -396.3,-176.61 -396.3,-395.22 0,-218.61 177.69,-395.22 396.3,-395.22 218.6,0 396.29,176.61 396.29,395.22 0,218.61 -177.69,395.22 -396.29,395.22z"/>
  <path fill="none" stroke="#999999" stroke-width="28.5" stroke-miterlimit="22.9256" d="M745.66 1130.9c-218.61,0 -396.3,-176.61 -396.3,-395.22 0,-218.61 177.69,-395.22 396.3,-395.22 218.6,0 396.29,176.61 396.29,395.22 0,218.61 -177.69,395.22 -396.29,395.22"/>
  <path fill="#CCCCCC" d="M745.66 1117.98c-212.15,0 -383.37,-171.22 -383.37,-383.38 0,-212.14 171.22,-383.36 383.37,-383.36 212.14,0 383.37,171.22 383.37,383.36 0,212.16 -171.23,383.38 -383.37,383.38z"/>
  <path fill="#666666" d="M744.58 3281.43c-346.75,0 -628.9,-282.13 -628.9,-628.9 0,-347.83 282.15,-628.89 628.9,-628.89 347.84,0 628.91,282.14 628.91,628.89 1.06,346.77 -281.07,628.9 -628.91,628.9z"/>
  <path fill="#4C4C4C" d="M844.73 1010.29l0 -175.54 176.61 0c7.54,0 14,-6.46 14,-13.99l0 -171.22c0,-7.55 -6.46,-14.01 -14,-14.01l-176.61 0 0 -175.53c0,-7.53 -6.46,-14 -14,-14l-170.14 0c-7.54,0 -14.01,6.47 -14.01,14l0 175.53 -176.61 0c-7.53,0 -13.99,6.46 -13.99,14.01l0 171.22c0,7.53 6.46,13.99 13.99,13.99l176.61 0 0 176.61c0,7.54 6.47,14.01 14.01,14.01l171.22 0c7.53,-1.08 12.92,-7.54 12.92,-15.08z"/>
  <path fill="#666666" d="M763.96 486.92c-9.68,-17.22 -25.84,-17.22 -35.53,0l-38.77 67.84c-9.69,17.24 -5.39,31.24 9.7,31.24l91.53 0c15.07,0 20.46,-14 9.69,-31.24l-36.62 -67.84c-9.69,-17.22 -25.84,-17.22 -35.53,0l-38.77 67.84c-9.69,17.24 -5.39,31.24 9.7,31.24l91.53 0c15.07,0 20.46,-14 9.68,-31.24l-36.61 -67.84 0 0zm0 0z"/>
  <path fill="#666666" d="M763.96 982.29c-9.68,17.23 -25.84,17.23 -35.53,0l-38.77 -67.85c-9.69,-17.23 -5.39,-31.22 9.7,-31.22l91.53 0c15.07,0 20.46,13.99 9.69,31.22l-36.62 67.85c-9.69,17.23 -25.84,17.23 -35.53,0l-38.77 -67.85c-9.69,-17.23 -5.39,-31.22 9.7,-31.22l91.53 0c15.07,0 20.46,13.99 9.68,31.22l-36.61 67.85 0 0zm0 0z"/>
  <path fill="#666666" d="M992.27 752.91c17.23,-9.69 17.23,-25.84 0,-35.54l-66.77 -38.76c-17.23,-9.69 -31.23,-5.39 -31.23,10.77l0 91.53c0,15.08 14,20.46 31.23,10.77l66.77 -38.77c17.23,-9.69 17.23,-25.84 0,-35.54l-66.77 -38.76c-17.23,-9.69 -31.23,-5.39 -31.23,10.77l0 91.53c0,15.08 14,20.46 31.23,10.77l66.77 -38.77zm0 0z"/>
  <path fill="#666666" d="M497.98 752.91c-17.23,-9.69 -17.23,-25.84 0,-35.54l67.84 -38.76c17.23,-9.69 31.23,-5.39 31.23,10.77l0 91.53c0,15.08 -14.01,20.46 -31.23,10.77l-67.84 -38.77c-17.23,-9.69 -17.23,-25.84 0,-35.54l67.84 -38.76c17.23,-9.69 31.23,-5.39 31.23,10.77l0 91.53c0,15.08 -14.01,20.46 -31.23,10.77l-67.84 -38.77zm0 0z"/>
  <path fill="#666666" d="M661.67 1485.19l-110.93 -142.14c-38.77,-48.46 31.23,-109.85 73.23,-57.08l110.92 142.15c38.77,50.62 -34.46,108.77 -73.22,57.07l0 0z"/>
  <path fill="#666666" d="M661.67 1841.64l-110.93 -142.15c-38.77,-48.45 31.23,-109.84 73.23,-57.07l110.92 142.15c38.77,50.61 -34.46,108.77 -73.22,57.07z"/>
  <path fill="#D8D8D8" d="M1200.1 2867.91l0 -22.62 -34.46 29.08 -37.69 -31.23 0 21.54 24.77 20.46 -24.77 20.46 0 21.54 37.69 -31.23 34.46 29.07 0 -22.61 -20.46 -17.23 20.46 -17.23 0 0zm0 0z"/>
  <path fill="#D8D8D8" d="M942.73 3153.29l0 10.76 0 10.78 -71.07 32.3 0 -17.23 18.3 -8.62 0 -35.53 -18.3 -8.61 0 -17.24 71.07 33.39zm-38.77 21.54l24.77 -10.78 -23.69 -10.76 -1.08 21.54zm0 0z"/>
  <path fill="#D8D8D8" d="M593.82 2131.32l0 -19.39 -39.85 32.32 -33.38 0 0 17.23 33.38 0 39.85 32.3 0 -19.38 -26.93 -21.54 26.93 -21.54 0 0zm0 0z"/>
  <path fill="#CCCCCC" d="M342.91 2402.7l0 46.3c0,0 0,0 0,0l0 1.08 0 0c-2.16,30.15 -33.39,31.23 -35.55,2.15 -1.07,36.61 -36.61,33.39 -38.76,-2.15l0 0 0 -1.08 0 0 0 -46.3 74.31 0zm-60.31 47.38c2.16,11.85 15.08,11.85 17.23,0l0 -29.07 -17.23 0 0 29.07zm31.23 0c4.31,11.85 15.07,7.54 16.15,0l0 -29.07 -16.15 0 0 29.07zm0 0z"/>
  <path fill="#F4F4F4" d="M868.42 2335.93c0,-72.15 -58.15,-130.3 -130.3,-130.3 -72.15,0 -130.3,58.15 -130.3,130.3 0,72.15 58.15,130.3 130.3,130.3 72.15,0 130.3,-58.15 130.3,-130.3l0 0zm-10.76 0c0,65.69 -52.78,119.53 -119.54,119.53 -65.69,0 -119.53,-52.76 -119.53,-119.53 0,-65.69 52.76,-119.54 119.53,-119.54 66.76,0 119.54,53.86 119.54,119.54l0 0zm0 0z"/>
  <path fill="#F4F4F4" d="M1115.03 2651.46c0,-72.15 -58.15,-130.3 -130.3,-130.3 -72.15,0 -130.3,58.15 -130.3,130.3 0,72.15 58.15,130.3 130.3,130.3 72.14,0 130.3,-58.15 130.3,-130.3l0 0zm-10.77 0c0,65.69 -52.76,119.53 -119.53,119.53 -65.69,0 -119.54,-52.76 -119.54,-119.53 0,-66.76 53.85,-118.46 119.54,-118.46 65.69,0 119.53,52.77 119.53,118.46l0 0zm0 0z"/>
  <path fill="#F4F4F4" d="M628.28 2662.23c0,-72.16 -58.15,-130.31 -130.3,-130.31 -72.16,0 -130.31,58.15 -130.31,130.31 0,72.15 58.15,130.3 130.31,130.3 72.15,0 130.3,-58.15 130.3,-130.3l0 0zm-10.77 0c0,65.68 -52.77,118.46 -119.53,118.46 -65.7,0 -118.46,-52.78 -118.46,-118.46 0,-65.69 52.76,-119.53 118.46,-119.53 66.76,1.07 119.53,53.84 119.53,119.53l0 0zm0 0z"/>
  <path fill="#F4F4F4" d="M874.89 2977.76c0,-72.16 -58.15,-130.31 -130.31,-130.31 -72.15,0 -130.3,58.15 -130.3,130.31 0,72.14 58.15,130.3 130.3,130.3 72.16,0 130.31,-58.16 130.31,-130.3l0 0zm-10.78 0c0,65.68 -52.76,119.53 -119.53,119.53 -65.69,0 -119.54,-52.77 -119.54,-119.53 0,-65.7 52.78,-119.54 119.54,-119.54 65.69,1.08 119.53,53.84 119.53,119.54l0 0zm0 0z"/>
  <path fill="#D8D8D8" d="M839.34 3098.37c-66.76,51.69 -162.6,39.84 -215.37,-26.93l-246.61 -315.52c-51.69,-66.77 -39.84,-162.62 26.92,-215.38 66.77,-51.7 162.61,-39.84 215.39,26.92l245.52 316.6c19.38,24.77 30.16,53.85 32.31,84 3.23,47.39 -16.16,98 -58.16,130.31l0 0 0 0zm0 0z"/>
  <path fill="#C10011" d="M874.89 2977.76c0,72.14 -58.15,130.3 -130.31,130.3 -72.15,0 -130.3,-58.16 -130.3,-130.3 0,-72.16 58.15,-130.31 130.3,-130.31 72.16,1.08 130.31,59.23 130.31,130.31l0 0zm0 0z"/>
  <path fill="#D8D8D8" d="M1078.41 2773.15c-66.76,51.68 -162.6,39.84 -215.37,-26.93l-246.61 -315.53c-51.69,-66.76 -39.84,-162.6 26.92,-215.37 66.77,-51.69 162.61,-39.85 215.39,26.92l245.52 316.61c19.38,24.77 30.16,53.84 32.3,84 4.31,47.37 -16.15,97.99 -58.15,130.3l0 0 0 0zm0 0z"/>
  <path fill="#0041B9" d="M1115.03 2651.46c0,72.15 -58.15,130.3 -130.3,130.3 -72.15,0 -130.3,-58.15 -130.3,-130.3 0,-72.15 58.15,-130.3 130.3,-130.3 72.14,1.07 130.3,59.23 130.3,130.3l0 0zm0 0z"/>
  <path fill="#E4B521" d="M628.28 2662.23c0,72.15 -58.15,130.3 -130.3,130.3 -72.16,0 -130.31,-58.15 -130.31,-130.3 0,-72.16 58.15,-130.31 130.31,-130.31 72.15,0 130.3,58.15 130.3,130.31l0 0zm0 0z"/>
  <path fill="#027D44" d="M868.42 2335.93c0,72.15 -58.15,130.3 -130.3,130.3 -72.15,0 -130.3,-58.15 -130.3,-130.3 0,-72.15 58.15,-130.3 130.3,-130.3 72.15,0 130.3,58.15 130.3,130.3l0 0zm0 0z"/>
  <circle fill="#595959" cx="745.66" cy="734.6" r="73.23"/>
  <path id="Fill-6" fill="#666666" d="M1119.07 1854.83l0 -23.2 14.12 0 21.19 10.09c-5.98,-2.17 -11.68,-3.54 -17.11,-5.45l-8.97 -1.92 0 4.93 28.53 7.37 0 -7.92 -13.32 -6.01c-0.81,-0.28 -1.89,-0.82 -2.99,-1.09l13.05 0 3.26 0 9.5 0 0 23.2 -47.26 0zm0 -23.2l0 -38.5 9.23 0 0 2.99 4.08 1.1 0 -4.09 8.69 0 0 6 4.61 1.1 0 -7.1 3.54 0 3.8 1.09 0 8.46 3.81 0.83 0 -10.38 9.5 0 0 38.5 -9.5 0 0 -7.38 -28.53 -7.92 0 5.2 8.97 2.45c5.43,1.37 11.13,2.74 17.11,3.83l-26.08 -1.38 0 2.74 4.89 2.46 -14.12 0 0 0zm34.5 0l-10.06 -0.82c-2.44,0 -5.7,-0.55 -7.87,-1.1 1.63,0.55 3.26,1.1 4.88,1.92l13.05 0zm-34.5 -38.5l0 -30.31 26.35 0 7.6 1.91 0 5.73 3.81 1.09 0 -8.73 9.5 0 0 30.31 -9.5 0 0 -2.73 -28.53 -7.92 0 10.65 -9.23 0zm30.15 0l-3.54 -0.94 0 0.94 3.54 0zm-8.15 0l0 -2.18 -8.69 -2.2 0 4.38 8.69 0zm-22 -30.31l0 -34.14 8.96 0c1.09,3.01 3.81,5.73 7.61,6.28 2.71,0.55 4.62,0.55 5.98,-0.27 1.62,-1.09 3.56,-3.42 4.92,-5.05 0.27,-0.28 0.59,-0.53 1.05,-0.96l4.34 0c1.09,0.83 1.64,1.91 1.64,3.01 0,3 -2.99,2.46 -5.44,1.36l0 4.91c2.99,0.55 9.23,2.47 9.23,-5.46 0,-1.36 -0.26,-2.72 -0.53,-3.82l9.5 0 0 34.14 -9.5 0 0 -7.66 -3.81 -0.81 0 5.73 -24.72 -6.28 0 4.38 17.12 4.64 -26.35 0 0 0zm13.58 -34.14c0.54,0.83 1.36,1.08 2.71,1.36 1.68,0.37 2.58,-0.09 3.26,-0.81 0.27,-0.28 0.28,-0.27 0.55,-0.55l-6.52 0zm-13.58 0l0 -29.76 24.17 0 13.59 9.56 0 -5.47 -6.61 -4.09 1.17 0 14.94 0 0 29.76 -9.5 0c-1.09,-2.73 -3.26,-4.36 -6.8,-5.46 -1.63,-0.55 -2.99,-0.55 -4.35,0 -2.98,1.37 -4.33,3.55 -6.51,5.46l-6.52 0c-0.55,-0.55 -0.81,-1.37 -0.81,-2.45 0,-2.46 1.77,-2.69 5.01,-1.9l1.5 0.26 0 -4.91 -2.16 -0.55c-4.9,-0.82 -8.7,0 -8.7,6 0,1.37 0.27,2.46 0.54,3.55l-8.96 0 0 0zm32.86 0c-0.54,-0.27 -0.98,-0.43 -1.5,-0.51 -1.37,-0.2 -2.3,-0.04 -2.84,0.51l4.34 0zm-32.86 -29.76l0 -37.69 8.96 0c1.09,3.28 3.74,5.99 7.61,6.83 2.98,0.65 5.22,0.03 6.49,-1.13 1.71,-1.56 3.01,-2.97 4.38,-4.33 0.53,-0.55 0.81,-0.82 1.35,-1.37l3.53 0c1.3,0.7 2.18,1.37 2.18,2.73 0,2.47 -2.99,2.47 -5.44,1.65l0 4.91c2.99,0.28 9.23,2.46 9.23,-4.91 0,-1.65 -0.26,-3.01 -0.53,-4.38l9.5 0 0 37.69 -16.09 0c-1.8,-1.06 -3.47,-1.92 -5.1,-2.73l4.46 -0.41 7.23 -0.69 0 -4.91 -16.03 2.46 -12.5 -3.55 0 4.92 12.5 2.99 2.44 1.92 -24.17 0zm13.58 -37.69c0.54,0.55 1.38,1 2.71,1.37 1.5,0.41 2.33,-0.26 3.05,-0.93 0.16,-0.15 0.49,-0.44 0.49,-0.44l-6.25 0zm-13.58 0l0 -51.6 26.35 0 7.6 2.18 0 5.74 3.81 1.09 0 -9.01 9.5 0 0 51.6 -9.5 0c-1.09,-2.73 -3.26,-4.64 -6.8,-5.72 -1.63,-0.28 -3.34,-0.43 -4.48,0.13 -3.05,1.51 -4.2,3.68 -6.65,5.59l-6.25 0c-0.55,-0.54 -0.81,-1.36 -0.81,-2.73 0,-2.46 1.9,-2.46 4.88,-1.36l1.63 0.55 0 -4.92 -2.16 -0.54c-4.9,-1.64 -8.7,-0.55 -8.7,5.46 0,1.09 0.27,2.46 0.54,3.54l-8.96 0 0 0zm32.32 0c-0.35,-0.2 -0.3,-0.2 -0.68,-0.33 -1.38,-0.47 -2.31,-0.21 -2.85,0.33l3.53 0zm-32.32 -51.6l0 -36.59 9.23 0 0 4.09 28.53 7.92 0 -4.92 -5.71 -1.36c-2.72,-1.09 -5.44,-1.64 -7.88,-2.18 -2.44,-0.55 -5.43,-0.82 -7.88,-1.37 4.35,0 7.88,-0.55 11.15,-0.55l10.32 -1.09 0 -0.54 9.5 0 0 36.59 -9.5 0 0 -7.37 -3.81 -0.82 0 5.73 -24.72 -6.28 0 4.36 17.12 4.38 -26.35 0 0 0zm0 -36.59l0 -32.77 9.23 0 0 3.28 4.08 1.09 0 -4.37 8.69 0 0 5.74 4.61 1.63 0 -7.37 4.62 0 2.72 0.81 0 9.02 3.81 0.82 0 -10.65 9.5 0 0 32.77 -9.5 0 0 -4.64 -28.53 -7.65 0 5.19 5.44 1.36c1.9,0.55 4.88,1.1 7.88,1.92 2.99,0.54 5.97,1.09 8.41,1.63 -4.89,0 -8.41,0 -11.68,0.28l-10.05 1.63 0 0.28 -9.23 0 0 0zm0 -32.77l0 -37.95 14.12 0 21.19 10.1c-5.98,-1.91 -11.68,-3.28 -17.11,-4.92l-8.97 -2.45 0 4.91 28.53 7.1 0 -7.1 -13.32 -6.28c-0.81,-0.28 -2.16,-0.82 -3.53,-1.36l10.33 0 6.52 0.82 0 -0.82 9.5 0 0 37.95 -9.5 0 0 -3 -28.53 -7.38 0 10.38 -9.23 0 0 0zm31.23 0l-4.62 -1.1 0 1.1 4.62 0zm-9.23 0l0 -2.18 -8.69 -2.46 0 4.64 8.69 0zm-22 -37.95l0 -40.42 9.23 0 0 4.37 28.53 7.65 0 -4.92 -5.71 -1.37c-2.72,-1.09 -5.44,-1.36 -7.88,-1.91 -2.44,-0.55 -5.43,-1.08 -7.88,-1.63 4.35,0 7.88,-0.28 11.15,-0.28l10.32 -1.09 0 -0.82 9.5 0 0 40.42 -9.5 0 0 -7.1 -28.53 -7.37 0 4.36 8.97 2.46c5.43,1.63 11.13,3.01 17.11,4.09l0 0.55 -26.08 -2.18 0 3 4.89 2.19 -14.12 0 0 0zm31.23 0l-6.79 -0.55c-2.44,0 -5.7,-0.55 -7.87,-1.1 1.36,0.55 2.98,1.1 4.34,1.65l10.32 0zm-31.23 -40.42l0 -32.49 14.12 0 23.64 6.28 0 -5.19 -4.63 -1.09 14.13 0 0 32.49 -9.5 0 0 -4.64 -28.53 -7.38 0 4.93 5.44 1.36c1.9,0.55 4.88,1.09 7.88,1.63 2.99,0.82 5.97,1.37 8.41,1.92 -4.89,0 -8.41,0 -11.68,0.54l-10.05 1.37 0 0.27 -9.23 0 0 0zm0 -32.49l0 -31.4 9.23 0 0 4.91 28.53 1.91 0 -6.28 -1.09 -0.54 10.59 0 0 31.4 -14.13 0 -23.9 -6.28 0 4.91 4.89 1.37 -14.12 0 0 0zm9.23 -31.4l7.06 0.55 0 -0.55 -7.06 0zm11.41 0l0 1.08c0,0 12.99,1.68 14.67,1.92l0 -0.55c-1.45,-0.53 -7.87,-2.45 -7.87,-2.45l-6.8 0zm-20.64 0l0 -3.28 16.29 0 0 3.28 -7.06 0 -9.23 0zm47.26 -3.28l0 3.28 -10.59 0 -6.52 -3.28 17.11 0zm-19.82 3.28l-6.8 0 0 -3.01 6.8 3.01zm-27.44 -3.28l0 -27.03 25.25 0 8.7 2.18 0 5.46 3.81 1.36 0 -9 9.5 0 0 27.03 -17.11 0 -20.92 -10.11 0 4.92 7.06 3.55 0 1.64 -16.29 0 0 0zm0 -27.03l0 -35.77 21.45 0c-0.09,0.62 -0.15,0.91 -0.26,1.36 -0.45,1.67 -2.99,1.09 -4.9,0.54 -1.62,-0.54 -5.42,-1.36 -7.06,-1.36l0 5.47 0.55 0c0.54,-1.1 7.33,0.81 8.96,1.36 2.99,0.55 5.03,0.55 5.03,-2.46l0.23 0c0.28,3.55 3.97,4.92 6.96,6.01 4.9,0.81 6.8,-1.64 6.8,-5.46l0 -5.46 9.5 0 0 35.77 -9.5 0 0 -7.11 -3.81 -1.09 0 5.47 -24.72 -6.29 0 4.92 16.02 4.1 -25.25 0 0 0zm25.54 -35.77l0 1.36c0,2.18 1.35,3.55 4.33,4.1 2.99,1.09 4.08,-0.55 4.08,-1.92l0 -3.54 -0.03 0 -8.38 0zm-25.54 0l0 -32.77 9.23 0 0 3.27 4.08 0.82 0 -4.09 8.69 0 0 5.73 4.61 0.82 0 -6.55 4.62 0 2.72 0.81 0 8.74 3.81 1.09 0 -10.64 9.5 0 0 32.77 -9.5 0 0 -3.83 -28.53 -7.65 0 5.19 12.5 2.73 0 1.1c0,0.81 -0.11,1.63 -0.28,2.46l-21.45 0 0 0zm33.92 0l-8.38 -2.46 0 2.46 8.38 0zm-33.92 -32.77l0 -29.22 25.25 0 8.7 2.18 0 6.01 3.81 1.1 0 -9.29 9.5 0 0 29.22 -9.5 0 0 -3.28 -28.53 -7.37 0 10.65 -9.23 0zm31.23 0l-4.62 -1.37 0 1.37 4.62 0zm-9.23 0l0 -2.18 -8.69 -2.47 0 4.65 8.69 0zm-22 -29.22l0 -36.05 9.23 0 0 4.92 28.53 7.37 0 -4.92 -5.71 -1.63c-2.72,-0.55 -5.44,-1.36 -7.88,-1.91 -2.44,-0.55 -5.43,-1.1 -7.88,-1.37 4.35,0 7.82,-0.66 11.23,-0.89l10.24 -0.74 0 -0.83 9.5 0 0 36.05 -9.5 0 0 -7.1 -3.81 -1.37 0 5.74 -24.72 -6.28 0 4.92 16.02 4.09 -25.25 0 0 0zm0 -36.05l0 -36.04 9.23 0 0 2.73 4.08 1.64 0 -4.37 8.69 0 0 5.73 4.61 1.65 0 -7.38 4.62 0 2.72 0.82 0 8.47 3.81 1.36 0 -10.65 9.5 0 0 36.04 -9.5 0 0 -4.64 -28.53 -7.37 0 4.92 5.51 1.59c2.32,0.67 5.02,1.16 7.89,1.81 2.96,0.67 5.84,1.37 8.33,1.51 -3.71,-0.21 -8.41,0 -11.68,0.55l-10.05 1.37 0 0.26 -9.23 0 0 0zm0 -36.04l0 -21.3 47.26 0 0 21.3 -9.5 0 0 -3 -28.53 -7.38 0 10.38 -9.23 0zm31.23 0l-4.62 -1.09 0 1.09 4.62 0zm-9.23 0l0 -2.19 -8.69 -2.45 0 4.64 8.69 0z"/>
  <path id="Fill-8" fill="#666666" d="M1251.89 1207.68c-4.35,2.46 -23.36,13.93 -26.89,15.3 -2.99,1.63 -8.42,2.73 -13.59,1.63l-23.35 -4.36c-6.25,-1.38 -10.87,-6.56 -10.87,-13.39l0 -20.2c0,-6.29 4.9,-10.65 10.87,-10.65l2.17 0 30.42 5.46 0 13.92 -26.07 -4.64 -0.27 0c-2.18,0 -3.8,1.64 -3.8,3.55l0 7.65c0,2.73 1.9,4.91 4.34,5.46l17.11 3.27c3.54,0.55 4.89,0 10.32,-3 4.35,-2.45 22.28,-12.02 27.71,-15.01 7.06,-3.56 10.32,-3.83 16.3,-3.01l20.91 3.82c6.25,1.37 10.87,7.1 10.87,13.38l0 20.48c0,5.74 -4.62,10.93 -10.87,10.93 -0.55,0 -1.36,0 -2.17,-0.28l-29.34 -5.46 0 -14.2 24.99 4.65 0.55 0c1.62,0 3.25,-1.65 3.25,-3.56l0 -7.92c0,-2.45 -1.9,-4.64 -3.8,-4.91l-13.58 -2.73c-7.06,-1.09 -10.32,0.55 -15.21,3.82l0 0z"/>
  <path id="Fill-11" fill="#666666" d="M1194.58 1244.27l-0.27 0c-2.18,0 -3.8,1.64 -3.8,3.55l0 7.65c0,2.73 1.9,4.91 4.34,5.46l103.22 18.84 0 14.2 -110.01 -20.2c-6.25,-1.1 -10.87,-6.56 -10.87,-13.39l0 -20.2c0,-6.01 4.9,-10.93 10.87,-10.93l2.17 0 107.84 19.66 0 14.2 -103.49 -18.84 0 0z"/>
  <polygon id="Fill-13" fill="#666666" points="1298.07,1355.14 1298.07,1387.9 1284.49,1385.72 1284.49,1367.42 1246.19,1360.33 1246.19,1378.61 1232.6,1376.16 1232.6,1358.13 1190.51,1350.49 1190.51,1368.51 1177.19,1366.05 1177.19,1333.01 "/>
  <path id="Fill-15" fill="#666666" d="M1177.2 1450.16l120.87 22.12 0 14.47c-64.65,6.28 -80.4,6.55 -92.36,6.55 12.5,0.55 30.7,2.18 92.36,13.38l0 14.47 -120.87 -21.84 0 -14.74c64.64,-6.01 78.22,-6.29 90.17,-6.29 -14.39,-0.54 -28.52,-2.18 -90.17,-13.38l0 -14.74 0 0z"/>
  <polygon id="Fill-17" fill="#666666" points="1177.2,1524.71 1177.2,1510.24 1298.07,1532.08 1298.07,1546.82 "/>
  <polygon id="Fill-19" fill="#666666" points="1284.49,1645.4 1284.49,1635.3 1177.19,1615.63 1177.19,1600.61 1284.49,1620.56 1284.49,1610.17 1298.06,1612.36 1298.06,1647.86 "/>
  <polygon id="Fill-21" fill="#666666" points="1298.07,1653.86 1298.07,1687.18 1284.49,1684.72 1284.49,1666.15 1246.19,1659.6 1246.19,1677.62 1232.6,1675.16 1232.6,1656.87 1190.51,1649.49 1190.51,1667.24 1177.19,1664.79 1177.19,1632.02 "/>
  <path id="Fill-23" fill="#666666" d="M1177.2 1535.9l120.87 22.12 0 14.47c-64.65,6.56 -80.4,6.83 -92.36,6.83 12.5,0.55 30.7,2.19 92.36,13.38l0 14.47 -120.87 -22.11 0 -14.48c64.64,-6.28 78.22,-6.55 90.17,-6.55 -14.39,-0.55 -28.52,-2.18 -90.17,-13.38l0 -14.75z"/>
  <path id="Fill-25" fill="#666666" d="M1177.2 1674.61l120.87 22.13 0 14.74c-64.65,6 -80.4,6.28 -92.36,6.55 12.5,0.28 30.7,1.91 92.36,13.11l0 14.74 -120.87 -22.11 0 -14.74c64.64,-6.02 78.22,-6.29 90.17,-6.29 -14.39,-0.55 -28.52,-2.18 -90.17,-13.11l0 -15.02z"/>
  <path id="Fill-27" fill="#666666" d="M1298.33 1319.37l0 15.29c0,6.55 -4.88,11.46 -11.4,11.46 -0.28,0 -0.82,0 -1.9,-0.55l-42.65 -7.92c-6.52,-1.08 -10.86,-6.27 -10.86,-12.82l0 -5.46 13.31 0 0 0.53c0,2.47 1.9,4.38 4.34,4.93l31.51 6 0.55 0c1.9,0 3.26,-1.63 3.26,-3.54l0 -7.92 13.84 0 0 0zm-120.32 -38.51l120.32 22.39 0 16.12 -13.84 0 0 -4.38 -39.66 -6.82 0 11.2 -13.31 0 0 -13.66 -53.51 -10.1 0 -14.75z"/>
  <path id="Fill-29" fill="#666666" d="M1226.09 1413.3l0.27 0c1.36,0 2.44,-0.28 2.98,-1.1l14.94 0 0 0.82c0,2.46 1.9,4.37 4.35,4.92l31.24 5.46 0.54 0c1.9,0 3.53,-1.1 3.53,-3.55l0 -7.65 13.58 0 0 16.39c0,6 -4.74,10.04 -10.99,10.58 -0.54,0 -1.18,0 -2.04,-0.2l-37.76 -6.84c-5.43,-0.53 -8.96,-3.81 -10.32,-9.28 -1.63,3.83 -5.43,6.29 -10.05,5.74l-1.9 0 -46.99 -8.74 0 -7.65 41.83 0 6.79 1.1 0 0zm3.25 -1.1c0.28,-0.54 0.55,-1.36 0.55,-2.18l0 -12.01 -52.42 -9.29 0 -14.75 120.05 22.12 0 16.11 -13.58 0 0 -3.82 -39.66 -7.37 0 11.19 -14.94 0 0 0zm-51.87 0l41.83 0 -41.83 -7.64 0 7.64z"/>
  <path id="Fill-31" fill="#666666" d="M1297.79 1767.46l0 21.03c0,5.72 -4.89,10.64 -11.14,10.64 -0.54,0 -1.08,-0.27 -1.9,-0.27l-96.69 -17.48c-5.97,-1.36 -10.32,-6.27 -10.32,-13.1l0 -0.82 14.94 0c0.54,0.55 1.35,0.82 2.17,1.09l84.98 15.76c0.23,0.05 0.31,0.08 0.85,0.08 1.9,0 3.53,-1.91 3.53,-3.82l0 -13.11 13.58 0 0 0zm0 -12.02l0 12.02 -13.58 0 0 -0.27 -93.44 -16.67 0 12.84c0,1.64 0.82,3 1.91,4.1l-14.94 0 0 -34.41 120.05 22.39z"/>
  <path id="Fill-33" fill="#666666" d="M1297.79 1822.89l0 20.48c0,5.74 -4.89,10.1 -11.14,10.1l-1.9 0 -96.69 -17.2c-5.97,-1.37 -10.32,-6.83 -10.32,-13.38l16.29 0 0.82 0 85.29 15.84 0.54 0c1.9,0 3.53,-1.37 3.53,-3.28l0 -7.92c0,-2.18 -1.36,-4.09 -2.98,-4.64l16.56 0 0 0zm0 -0.27l0 0.27 -16.56 0c-0.28,-0.27 -0.55,-0.27 -1.09,-0.27l-85.29 -15.85 -0.54 0c-1.9,0 -3.54,1.38 -3.54,3.28l0 7.92c0,2.19 1.36,4.1 3.26,4.92l-16.29 0 0 -20.48c0,-6 4.35,-10.38 10.32,-10.38l2.45 0 96.14 17.2c6.25,1.37 11.14,6.84 11.14,13.39l0 0z"/>
  <path id="Fill-35" fill="#666666" d="M1190.77 1847.19l0 1.37c0,1.36 -1.08,2.45 -2.71,2.73 -0.81,0 -1.9,0 -2.71,-1.37 -1.09,2.18 -3.81,0.27 -4.62,1.64l-0.28 0 0 -1.64c1.64,-0.54 4.08,0.55 4.35,-1.91l0 -0.82 1.09 0 0 1.09c0,1.64 3.26,2.73 3.53,-0.54l0 -0.55 1.35 0 0 0zm-14.12 0c0,4.91 4.08,8.47 8.42,8.47 4.62,0 8.96,-3.56 8.96,-8.47l-1.07 0c0,4.37 -3.81,7.37 -7.89,7.37 -4.34,0 -7.33,-3 -7.6,-7.37l-0.82 0 0 0zm3.8 -3.82l10.32 0 0 3.82 -1.35 0 0 -2.46 -3.53 0 0 2.46 -1.09 0 0 -2.46 -4.35 0 0 -1.36 0 0zm13.58 3.82l0 0c0,-4.92 -4.34,-8.73 -8.96,-8.73 -4.34,0 -8.42,3.81 -8.42,8.73l0.82 0c0,-4.37 3.26,-7.37 7.6,-7.37 4.08,0 7.89,3 7.89,7.37l1.07 0 0 0z"/>
  <path fill="#666666" fill-rule="nonzero" d="M1218.44 1982.68l0 -42.23 30.02 6.12c8.74,1.78 14.18,2.44 16.36,2 2.15,-0.45 3.24,-2.2 3.24,-5.25 0,-3.42 -1.31,-5.87 -3.93,-7.33 -2.66,-1.47 -8.34,-3.1 -17.09,-4.88l-80.22 -16.36c-8.43,-1.72 -13.89,-2.35 -16.48,-1.95 -2.54,0.4 -3.82,2.23 -3.82,5.43 0,3.11 1.28,5.42 3.86,6.91 2.55,1.47 8.6,3.18 18.11,5.12l21.75 4.44 0 42.24 -6.74 -1.38c-17.92,-3.66 -30.64,-7.44 -38.11,-11.32 -7.5,-3.89 -14.06,-10.49 -19.7,-19.74 -5.66,-9.29 -8.46,-19.83 -8.46,-31.72 0,-12.35 2.37,-22.04 7.14,-29.1 4.77,-7.02 11.37,-11 19.82,-11.88 8.45,-0.87 21.13,0.41 38.07,3.86l50.49 10.3c12.47,2.54 21.8,4.85 28.03,6.9 6.22,2.1 12.23,5.68 17.99,10.85 5.77,5.14 10.31,11.57 13.63,19.28 3.32,7.72 4.95,16.15 4.95,25.31 0,12.4 -2.54,22.14 -7.68,29.19 -5.11,7.02 -11.48,11.02 -19.13,12.02 -7.65,0.97 -19.53,-0.18 -35.67,-3.48l-16.43 -3.35 0 0z"/>
  <path id="_1" fill="#666666" fill-rule="nonzero" d="M1293.85 2013.16l0 31.54c0,20.33 -0.98,33.9 -2.98,40.67 -2.01,6.77 -5.29,11.57 -9.84,14.36 -4.55,2.8 -9.61,4.12 -15.19,3.92 -5.61,-0.23 -16.58,-1.99 -32.97,-5.32l-60.55 -12.36c-15.52,-3.16 -25.91,-5.96 -31.12,-8.39 -5.24,-2.44 -9.36,-5.67 -12.31,-9.65 -2.95,-4.01 -4.99,-8.64 -6.2,-13.91 -1.16,-5.23 -1.75,-12.89 -1.75,-22.98l0 -53.13 172.91 35.25zm-29.5 36.22l-113.89 -23.22c0,5.98 1.31,9.94 3.9,11.83 2.62,1.94 9.69,4.06 21.23,6.42l67.26 13.71c7.83,1.6 12.86,2.38 15.08,2.39 2.22,-0.03 3.83,-0.72 4.85,-2.19 1.06,-1.42 1.57,-4.39 1.57,-8.94l0 0z"/>
 </g>
</svg>
