<?xml version="1.0" encoding="UTF-8" standalone="no"?>
<svg
   xmlns:bx="https://www.boxy-svg.com/bx"
   xmlns:dc="http://purl.org/dc/elements/1.1/"
   xmlns:cc="http://creativecommons.org/ns#"
   xmlns:rdf="http://www.w3.org/1999/02/22-rdf-syntax-ns#"
   xmlns:svg="http://www.w3.org/2000/svg"
   xmlns="http://www.w3.org/2000/svg"
   xmlns:sodipodi="http://sodipodi.sourceforge.net/DTD/sodipodi-0.dtd"
   xmlns:inkscape="http://www.inkscape.org/namespaces/inkscape"
   width="165.13803100585938"
   height="384.989013671875"
   viewBox="109.841 -107.425 165.138 384.989"
   version="1.1"
   id="svg68"
   sodipodi:docname="controller3T.svg"
   inkscape:version="0.92.3 (2405546, 2018-03-11)">
  <metadata
     id="metadata74">
    <rdf:RDF>
      <cc:Work
         rdf:about="">
        <dc:format>image/svg+xml</dc:format>
        <dc:type
           rdf:resource="http://purl.org/dc/dcmitype/StillImage" />
        <dc:title></dc:title>
      </cc:Work>
    </rdf:RDF>
  </metadata>
  <defs
     id="defs72" />
  <sodipodi:namedview
     pagecolor="#ffffff"
     bordercolor="#666666"
     borderopacity="1"
     objecttolerance="10"
     gridtolerance="10"
     guidetolerance="10"
     inkscape:pageopacity="0"
     inkscape:pageshadow="2"
     inkscape:window-width="1920"
     inkscape:window-height="1018"
     id="namedview70"
     showgrid="false"
     inkscape:zoom="0.61300451"
     inkscape:cx="82.569016"
     inkscape:cy="192.49451"
     inkscape:window-x="-8"
     inkscape:window-y="-8"
     inkscape:window-maximized="1"
     inkscape:current-layer="svg68" />
  <path
     inkscape:connector-curvature="0"
     bx:origin="0 0"
     style="fill:#bdbdbd"
     d="m 274.97949,154.52851 c 0,-0.991 -0.085,-2.134 -0.519,-3.111 -0.435,-0.978 -1.363,-1.795 -2.674,-1.795 v 0.641 c -0.252,-0.011 -0.63,0.021 -0.641,0.332 l 0.121,44.485 c -0.479,15.887 -5.099,29.69 -12.469,41.794 -0.258,0.514 0.278,0.736 0.488,0.727 0.857,-0.036 1.531,-0.086 2.068,-0.151 v 0.065 c 0.848,0 1.502,0.073 2.134,0 0.624,-0.073 1.257,-0.428 1.616,-1.077 0.004,-0.006 0.019,0.004 0.021,0 0.002,-0.006 -0.004,-0.015 0,-0.02 6.714,-11.945 9.855,-25.708 9.855,-40.34 z"
     id="path7" />
  <path
     inkscape:connector-curvature="0"
     bx:origin="0 1"
     style="fill:#bdbdbd"
     d="m 274.97949,15.710486 c 0,0.991 -0.085,2.134 -0.519,3.111 -0.435,0.978 -1.363,1.795 -2.674,1.795 v -0.641 c -0.252,0.011 -0.63,-0.021 -0.641,-0.332 l 0.121,-44.485 c -0.479,-15.887 -5.099,-29.69 -12.469,-41.794 -0.258,-0.514 0.278,-0.736 0.488,-0.727 0.857,0.036 1.531,0.086 2.068,0.151 v -0.065 c 0.848,0 1.502,-0.073 2.134,0 0.624,0.073 1.257,0.428 1.616,1.077 0.004,0.006 0.019,-0.004 0.021,0 0.002,0.006 -0.004,0.015 0,0.02 6.714,11.945 9.855,25.708 9.855,40.34 z"
     id="path-7" />
  <path
     inkscape:connector-curvature="0"
     bx:origin="0.5 0.5"
     style="fill:#cccccc"
     d="m 271.86849,-26.40649 v 89.45 16.098 h -0.837 -0.637 v 0.637 10.758 0.637 h 0.637 0.837 v 15.919 89.449 c 0,44.754 -36.25,81.022 -81.002,81.022 -44.754,0 -81.022,-36.27 -81.022,-81.022 0,-17.66 5.652,-33.984 15.24,-47.297 v -0.019 l 1.295,-1.673 c 2.348,-2.94 3.745,-6.667 3.745,-10.719 l 0,-30.361 v -42.813 -30.362 c 0,-4.051 -1.397,-7.778 -3.745,-10.717 l -1.295,-1.674 v -0.019 c -9.594,-13.305 -15.243,-29.626 -15.243,-47.292 0,-44.752 36.268,-81.021 81.022,-81.021 44.752,0 81.003,36.27 81.003,81.021 z"
     id="path-11" />
  <g
     id="g32"
     transform="rotate(90,191.91049,84.569)">
    <g
       id="g18">
      <path
         inkscape:connector-curvature="0"
         id="path5"
         bx:origin="0.5 0.5"
         style="fill:#4c4c4c"
         d="m 145.366,123.432 c 0.053,-0.336 -0.087,-0.598 -0.42,-0.784 l -0.56,-0.319 c -0.787,-0.469 -1.16,-1.107 -1.12,-1.913 0.02,-0.372 0.117,-0.7 0.29,-0.983 0.173,-0.293 0.417,-0.519 0.73,-0.678 0.307,-0.16 0.643,-0.235 1.01,-0.226 0.493,0.009 0.89,0.199 1.19,0.571 0.3,0.363 0.447,0.855 0.44,1.475 h -1.16 c 0.007,-0.248 -0.033,-0.451 -0.12,-0.611 -0.087,-0.15 -0.23,-0.23 -0.43,-0.239 -0.2,0 -0.373,0.062 -0.52,0.186 -0.153,0.123 -0.243,0.296 -0.27,0.518 -0.04,0.302 0.13,0.549 0.51,0.744 0.38,0.196 0.657,0.359 0.83,0.492 0.547,0.434 0.803,1.019 0.77,1.754 -0.02,0.381 -0.113,0.718 -0.28,1.01 -0.167,0.283 -0.397,0.505 -0.69,0.664 -0.293,0.16 -0.627,0.235 -1,0.226 -0.267,-0.009 -0.513,-0.062 -0.74,-0.159 -0.233,-0.107 -0.433,-0.262 -0.6,-0.465 -0.327,-0.408 -0.483,-0.948 -0.47,-1.622 l 1.17,0.014 c -0.013,0.336 0.037,0.594 0.15,0.77 0.107,0.169 0.293,0.253 0.56,0.253 0.193,0 0.357,-0.057 0.49,-0.173 0.133,-0.123 0.213,-0.292 0.24,-0.505 z" />
      <path
         inkscape:connector-curvature="0"
         id="path8"
         bx:origin="0.5 0.5"
         style="fill:#4c4c4c"
         d="m 169.788,119.844 h -1.44 l -0.71,5.382 h -1.17 l 0.71,-5.382 h -1.43 l 0.17,-1.235 h 4.04 z" />
      <path
         inkscape:connector-curvature="0"
         id="path10"
         bx:origin="0.5 0.5"
         style="fill:#4c4c4c"
         d="m 164.477,122.967 c -0.034,0.469 -0.15,0.881 -0.35,1.236 -0.2,0.363 -0.46,0.642 -0.78,0.837 -0.327,0.195 -0.68,0.288 -1.06,0.279 -0.52,-0.017 -0.927,-0.239 -1.22,-0.664 -0.3,-0.435 -0.464,-1.019 -0.49,-1.754 -0.02,-0.488 0.02,-1.023 0.12,-1.608 0.1,-0.576 0.263,-1.076 0.49,-1.502 0.233,-0.434 0.503,-0.757 0.81,-0.97 0.313,-0.212 0.653,-0.315 1.02,-0.305 0.546,0.017 0.976,0.235 1.29,0.651 0.313,0.425 0.486,1.006 0.52,1.741 h -1.17 c 0.006,-0.408 -0.047,-0.695 -0.16,-0.864 -0.12,-0.177 -0.3,-0.27 -0.54,-0.279 -0.62,-0.027 -0.997,0.607 -1.13,1.9 -0.06,0.594 -0.09,1.014 -0.09,1.262 -0.014,0.744 0.193,1.13 0.62,1.156 0.273,0.01 0.493,-0.083 0.66,-0.279 0.166,-0.195 0.273,-0.465 0.32,-0.81 z" />
      <path
         inkscape:connector-curvature="0"
         id="path12"
         bx:origin="0.5 0.5"
         style="fill:#4c4c4c"
         d="m 159.332,122.422 h -1.83 l -0.2,1.582 h 2.16 l -0.16,1.222 h -3.33 l 0.86,-6.617 h 3.34 l -0.16,1.235 h -2.17 l -0.18,1.396 h 1.83 z" />
      <path
         inkscape:connector-curvature="0"
         id="path14"
         bx:origin="0.5 0.5"
         style="fill:#4c4c4c"
         d="m 153.087,124.004 h 2.02 l -0.16,1.222 h -3.19 l 0.86,-6.617 h 1.17 z" />
      <path
         inkscape:connector-curvature="0"
         id="path16"
         bx:origin="0.5 0.5"
         style="fill:#4c4c4c"
         d="m 150.782,122.422 h -1.83 l -0.2,1.582 h 2.16 l -0.16,1.222 h -3.33 l 0.86,-6.617 h 3.34 l -0.16,1.235 h -2.17 l -0.18,1.396 h 1.83 z" />
    </g>
    <g
       id="g30">
      <path
         inkscape:connector-curvature="0"
         id="path20"
         bx:origin="0.5 0.5"
         style="fill:#4c4c4c"
         d="m 189.002,123.432 c 0.053,-0.336 -0.087,-0.598 -0.42,-0.784 l -0.56,-0.319 c -0.787,-0.469 -1.16,-1.107 -1.12,-1.913 0.02,-0.372 0.117,-0.7 0.29,-0.983 0.173,-0.293 0.417,-0.519 0.73,-0.678 0.307,-0.16 0.643,-0.235 1.01,-0.226 0.493,0.009 0.89,0.199 1.19,0.571 0.3,0.363 0.447,0.855 0.44,1.475 h -1.16 c 0.007,-0.248 -0.033,-0.451 -0.12,-0.611 -0.087,-0.15 -0.23,-0.23 -0.43,-0.239 -0.2,0 -0.373,0.062 -0.52,0.186 -0.153,0.123 -0.243,0.296 -0.27,0.518 -0.04,0.302 0.13,0.549 0.51,0.744 0.38,0.196 0.657,0.359 0.83,0.492 0.547,0.434 0.803,1.019 0.77,1.754 -0.02,0.381 -0.113,0.718 -0.28,1.01 -0.167,0.283 -0.397,0.505 -0.69,0.664 -0.293,0.16 -0.627,0.235 -1,0.226 -0.267,-0.009 -0.513,-0.062 -0.74,-0.159 -0.233,-0.107 -0.433,-0.262 -0.6,-0.465 -0.327,-0.408 -0.483,-0.948 -0.47,-1.622 l 1.17,0.014 c -0.013,0.336 0.037,0.594 0.15,0.77 0.107,0.169 0.293,0.253 0.56,0.253 0.193,0 0.357,-0.057 0.49,-0.173 0.133,-0.123 0.213,-0.292 0.24,-0.505 z" />
      <path
         inkscape:connector-curvature="0"
         id="path22"
         bx:origin="0.5 0.5"
         style="fill:#4c4c4c"
         d="m 210.073,119.844 h -1.44 l -0.71,5.382 h -1.17 l 0.71,-5.382 h -1.43 l 0.17,-1.235 h 4.04 z" />
      <path
         inkscape:connector-curvature="0"
         id="path24"
         bx:origin="0 0"
         style="fill:#4c4c4c"
         d="m 202.25,121.665 h 0.68 c 0.186,0 0.35,-0.057 0.49,-0.173 0.14,-0.123 0.24,-0.292 0.3,-0.505 0.06,-0.203 0.076,-0.408 0.05,-0.611 -0.047,-0.336 -0.21,-0.514 -0.49,-0.532 h -0.79 z m -0.16,1.222 -0.3,2.339 h -1.17 l 0.86,-6.617 1.76,0.013 c 0.56,0 0.993,0.173 1.3,0.518 0.3,0.355 0.433,0.833 0.4,1.435 -0.02,0.479 -0.124,0.873 -0.31,1.183 -0.18,0.319 -0.434,0.567 -0.76,0.744 l 0.67,2.644 v 0.08 h -1.25 l -0.55,-2.339 z" />
      <path
         inkscape:connector-curvature="0"
         id="path26"
         bx:origin="0 0"
         style="fill:#4c4c4c"
         d="m 197.201,123.99 -0.44,1.236 h -1.29 l 2.64,-6.617 h 1.1 l 0.92,6.617 h -1.22 l -0.12,-1.236 z m 0.44,-1.235 h 1.03 l -0.22,-2.273 z" />
      <path
         inkscape:connector-curvature="0"
         id="path28"
         bx:origin="0.5 0.5"
         style="fill:#4c4c4c"
         d="m 195.548,119.844 h -1.44 l -0.71,5.382 h -1.17 l 0.71,-5.382 h -1.43 l 0.17,-1.235 h 4.04 z" />
    </g>
  </g>
  <path
     inkscape:connector-curvature="0"
     clip-path="url(#clipPath16)"
     bx:origin="0.5 0.5"
     d="m 191.79249,20.04351 c -25.403,0 -45.994,-20.559 -45.994,-45.92 0,-25.361 20.591,-45.92 45.994,-45.92 25.402,0 45.996,20.559 45.996,45.92 0,25.361 -20.594,45.92 -45.996,45.92"
     style="fill:#999999;fill-opacity:1;fill-rule:nonzero;stroke:#999999"
     id="path42" />
  <path
     inkscape:connector-curvature="0"
     clip-path="url(#clipPath16)"
     bx:origin="0.5 0.5"
     d="m 191.79349,18.62351 c -24.594,0 -44.53,-19.922 -44.53,-44.499 0,-24.577 19.936,-44.501 44.53,-44.501 24.593,0 44.53,19.924 44.53,44.501 0,24.577 -19.937,44.499 -44.53,44.499"
     style="fill:#cccccc;fill-opacity:1;fill-rule:nonzero;stroke:none"
     id="path46" />
  <path
     inkscape:connector-curvature="0"
     clip-path="url(#clipPath16)"
     bx:origin="0.5 0.5"
     d="m 191.70449,269.67951 c -40.332,0 -73.028,-32.697 -73.028,-73.029 0,-40.333 32.696,-73.029 73.028,-73.029 40.333,0 73.029,32.696 73.029,73.029 0,40.332 -32.696,73.029 -73.029,73.029"
     style="fill:#666666;fill-opacity:1;fill-rule:nonzero;stroke:none"
     id="path50" />
  <path
     inkscape:connector-curvature="0"
     clip-path="url(#clipPath16)"
     bx:origin="0.5 0.5"
     d="m 203.31949,6.10751 v -20.459 h 20.458 c 0.873,0 1.589,-0.715 1.589,-1.59 v -19.871 c 0,-0.875 -0.716,-1.59 -1.589,-1.59 h -20.458 v -20.459 c 0,-0.873 -0.716,-1.588 -1.59,-1.588 h -19.872 c -0.873,0 -1.589,0.715 -1.589,1.588 v 20.459 l -20.459,0 c -0.874,0 -1.589,0.715 -1.589,1.59 v 19.871 c 0,0.875 0.715,1.59 1.589,1.59 l 20.459,0 v 20.459 c 0,0.874 0.716,1.589 1.589,1.589 h 19.872 c 0.874,0 1.59,-0.715 1.59,-1.589"
     style="fill:#4c4c4c;fill-opacity:1;fill-rule:nonzero;stroke:none"
     id="path70" />
  <path
     inkscape:connector-curvature="0"
     clip-path="url(#clipPath16)"
     bx:origin="0.5 0.5"
     d="m 193.87849,-54.66049 c -1.146,-2.022 -3.023,-2.022 -4.17,0 l -4.442,7.834 c -1.148,2.022 -0.612,3.676 1.19,3.676 h 10.674 c 1.802,0 2.336,-1.654 1.191,-3.676 l -4.443,-7.834 c -1.146,-2.022 -3.023,-2.022 -4.17,0 l -4.442,7.834 c -1.148,2.022 -0.612,3.676 1.19,3.676 h 10.674 c 1.802,0 2.336,-1.654 1.191,-3.676 z"
     style="fill:#666666;fill-opacity:1;fill-rule:nonzero;stroke:none"
     id="path90" />
  <path
     inkscape:connector-curvature="0"
     clip-path="url(#clipPath16)"
     bx:origin="0.5 0.5"
     d="m 193.87849,2.80851 c -1.146,2.023 -3.023,2.023 -4.17,0 l -4.442,-7.834 c -1.148,-2.022 -0.612,-3.676 1.19,-3.676 h 10.674 c 1.802,0 2.336,1.654 1.191,3.676 l -4.443,7.834 c -1.146,2.023 -3.023,2.023 -4.17,0 l -4.442,-7.834 c -1.148,-2.022 -0.612,-3.676 1.19,-3.676 h 10.674 c 1.802,0 2.336,1.654 1.191,3.676 z"
     style="fill:#666666;fill-opacity:1;fill-rule:nonzero;stroke:none"
     id="path94" />
  <path
     inkscape:connector-curvature="0"
     clip-path="url(#clipPath16)"
     bx:origin="0.5 0.5"
     d="m 220.45349,-23.79249 c 2.022,-1.147 2.022,-3.024 0,-4.17 l -7.834,-4.442 c -2.022,-1.147 -3.676,-0.611 -3.676,1.19 v 10.674 c 0,1.802 1.654,2.336 3.676,1.191 l 7.834,-4.443 c 2.022,-1.147 2.022,-3.024 0,-4.17 l -7.834,-4.442 c -2.022,-1.147 -3.676,-0.611 -3.676,1.19 v 10.674 c 0,1.802 1.654,2.336 3.676,1.191 z"
     style="fill:#666666;fill-opacity:1;fill-rule:nonzero;stroke:none"
     id="path98" />
  <path
     inkscape:connector-curvature="0"
     clip-path="url(#clipPath16)"
     bx:origin="0.5 0.5"
     d="m 162.98449,-23.84149 c -2.023,-1.146 -2.023,-3.023 0,-4.17 l 7.833,-4.442 c 2.023,-1.146 3.677,-0.611 3.677,1.19 v 10.675 c 0,1.801 -1.654,2.336 -3.677,1.19 l -7.833,-4.443 c -2.023,-1.146 -2.023,-3.023 0,-4.17 l 7.833,-4.442 c 2.023,-1.146 3.677,-0.611 3.677,1.19 v 10.675 c 0,1.801 -1.654,2.336 -3.677,1.19 z"
     style="fill:#666666;fill-opacity:1;fill-rule:nonzero;stroke:none"
     id="path102" />
  <path
     inkscape:connector-curvature="0"
     clip-path="url(#clipPath16)"
     bx:origin="0.5 0.5"
     d="M 181.98991,61.222082 169.09794,44.776568 c -4.47789,-5.684717 3.62845,-12.78427 8.46943,-6.638819 l 12.89296,16.444497 c 4.52225,5.876972 -3.88471,12.599714 -8.47042,6.639836"
     style="fill:#666666;fill-opacity:1;fill-rule:nonzero;stroke:none"
     id="path-4" />
  <path
     inkscape:connector-curvature="0"
     clip-path="url(#clipPath16)"
     bx:origin="0.5 0.5"
     d="M 181.98992,102.56009 169.09795,86.114578 c -4.47789,-5.684718 3.62844,-12.784271 8.46943,-6.638819 l 12.89295,16.444496 c 4.52226,5.876975 -3.8847,12.599715 -8.47041,6.639835"
     style="fill:#666666;fill-opacity:1;fill-rule:nonzero;stroke:none"
     id="path-2" />
  <path
     inkscape:connector-curvature="0"
     id="path45"
     bx:origin="0 0"
     style="fill:#d8d8d8"
     d="m 244.49749,221.71951 0.03,-2.686 -4.034,3.388 -4.395,-3.613 0.017,2.527 2.836,2.382 -2.836,2.381 -0.017,2.527 4.395,-3.613 4.034,3.388 -0.03,-2.686 -2.429,-1.997 z" />
  <path
     inkscape:connector-curvature="0"
     id="path47"
     bx:origin="0 0"
     style="fill:#d8d8d8"
     d="m 214.69649,254.78751 -0.011,1.254 0.011,1.253 -8.311,3.797 -0.011,-2.041 2.085,-0.948 0.024,-4.112 -2.109,-0.959 0.011,-2.041 z m -4.541,2.545 2.841,-1.291 -2.796,-1.271 z" />
  <path
     inkscape:connector-curvature="0"
     id="path49"
     bx:origin="0 0"
     style="fill:#d8d8d8"
     d="m 174.14849,136.23951 0.002,-2.27 -4.674,3.762 h -3.836 v 1.984 h 3.858 l 4.652,3.744 -0.003,-2.27 -3.095,-2.475 z" />
  <path
     inkscape:connector-curvature="0"
     id="path51"
     bx:origin="0 0"
     style="fill:#cccccc"
     d="m 145.07049,167.72751 v 0.84 h 0.002 v 4.585 h 0.002 c -0.001,0.014 -0.001,0.028 -0.002,0.042 v 0.069 h -0.004 c -0.228,3.457 -3.921,3.68 -4.087,0.241 -0.16,4.193 -4.315,3.909 -4.488,-0.241 h -0.001 v -0.018 c -0.001,-0.032 -0.002,-0.064 -0.003,-0.096 h 0.003 v -5.422 z m -6.996,5.507 c 0.221,1.32 1.718,1.404 1.99,0.029 h -0.002 v -3.331 h -1.988 z m 3.57,-0.032 c 0.539,1.425 1.707,0.82 1.848,0.061 h -0.002 v -3.331 h -1.846 z" />
  <path
     inkscape:connector-curvature="0"
     bx:origin="0.5 0.5"
     style="fill:#f4f4f4"
     d="m 206.07149,159.95651 c 0,-8.331 -6.771,-15.101 -15.102,-15.101 -8.331,0 -15.102,6.77 -15.102,15.101 0,8.332 6.771,15.102 15.102,15.102 8.331,0 15.102,-6.77 15.102,-15.102 z m -1.276,0 c 0,7.642 -6.185,13.826 -13.826,13.826 -7.641,0 -13.825,-6.184 -13.825,-13.826 0,-7.64 6.184,-13.824 13.825,-13.824 7.641,0 13.826,6.184 13.826,13.824 z"
     id="circle35" />
  <path
     inkscape:connector-curvature="0"
     bx:origin="0.5 0.5"
     style="fill:#f4f4f4"
     d="m 234.63849,196.62551 c 0,-8.331 -6.77,-15.082 -15.102,-15.082 -8.33,0 -15.101,6.751 -15.101,15.082 0,8.331 6.771,15.102 15.101,15.102 8.332,0 15.102,-6.771 15.102,-15.102 z m -1.277,0 c 0,7.641 -6.184,13.825 -13.824,13.825 -7.641,0 -13.825,-6.184 -13.825,-13.825 0,-7.64 6.184,-13.805 13.825,-13.805 7.64,0 13.824,6.164 13.824,13.805 z"
     id="circle37" />
  <path
     inkscape:connector-curvature="0"
     bx:origin="0.5 0.5"
     style="fill:#f4f4f4"
     d="m 178.18149,197.83751 c 0,-8.33 -6.771,-15.101 -15.103,-15.101 -8.331,0 -15.082,6.771 -15.082,15.101 0,8.333 6.751,15.082 15.082,15.082 8.331,0 15.103,-6.749 15.103,-15.082 z m -1.278,0 c 0,7.643 -6.184,13.805 -13.825,13.805 -7.641,0 -13.804,-6.162 -13.804,-13.805 0,-7.64 6.163,-13.824 13.804,-13.824 7.641,0 13.825,6.184 13.825,13.824 z"
     id="circle41" />
  <path
     inkscape:connector-curvature="0"
     bx:origin="0.5 0.5"
     style="fill:#f4f4f4"
     d="m 206.74749,234.50751 c 0,-8.331 -6.771,-15.103 -15.101,-15.103 -8.331,0 -15.101,6.772 -15.101,15.103 0,8.332 6.77,15.102 15.101,15.102 8.33,0 15.101,-6.772 15.101,-15.102 z m -1.276,0 c 0,7.64 -6.184,13.824 -13.824,13.824 -7.642,0 -13.825,-6.184 -13.825,-13.824 0,-7.64 6.184,-13.824 13.825,-13.824 7.64,0 13.824,6.184 13.824,13.824 z"
     id="circle43" />
  <path
     inkscape:connector-curvature="0"
     id="path57"
     bx:origin="0 0"
     style="fill:#d8d8d8"
     d="m 202.61349,248.41651 c -7.753,6.039 -18.918,4.662 -24.958,-3.092 l -28.567,-36.667 c -6.039,-7.754 -4.641,-18.919 3.112,-24.957 7.754,-6.038 18.918,-4.661 24.957,3.093 l 28.548,36.687 c 2.266,2.906 3.5,6.279 3.731,9.697 0.386,5.692 -1.976,11.466 -6.823,15.239 z" />
  <path
     inkscape:connector-curvature="0"
     bx:origin="0.5 0.5"
     style="fill:#47449e"
     d="m 206.73849,234.50651 c 0,8.342 -6.751,15.093 -15.094,15.093 -8.34,0 -15.09,-6.751 -15.09,-15.093 0,-8.341 6.75,-15.092 15.09,-15.092 8.343,0 15.094,6.751 15.094,15.092 z"
     id="path-5" />
  <path
     inkscape:connector-curvature="0"
     id="path60"
     bx:origin="0 0"
     style="fill:#d8d8d8"
     d="m 230.41949,210.66351 c -7.753,6.039 -18.918,4.662 -24.957,-3.093 l -28.567,-36.666 c -6.039,-7.754 -4.642,-18.919 3.112,-24.958 7.754,-6.038 18.918,-4.66 24.956,3.094 l 28.548,36.687 c 2.266,2.906 3.5,6.278 3.732,9.696 0.386,5.693 -1.977,11.467 -6.824,15.24 z" />
  <path
     inkscape:connector-curvature="0"
     bx:origin="0.5 0.5"
     style="fill:#a59ef7"
     d="m 234.62949,196.63651 c 0,8.341 -6.751,15.092 -15.094,15.092 -8.341,0 -15.091,-6.751 -15.091,-15.092 0,-8.341 6.75,-15.093 15.091,-15.093 8.343,0 15.094,6.752 15.094,15.093 z"
     id="path-6" />
  <path
     inkscape:connector-curvature="0"
     bx:origin="0.5 0.5"
     style="fill:#47449e"
     d="m 178.18049,197.82751 c 0,8.342 -6.751,15.093 -15.093,15.093 -8.341,0 -15.09,-6.751 -15.09,-15.093 0,-8.341 6.749,-15.092 15.09,-15.092 8.342,0 15.093,6.751 15.093,15.092 z"
     id="path-1" />
  <path
     inkscape:connector-curvature="0"
     bx:origin="0.5 0.5"
     style="fill:#a59ef7"
     d="m 206.06149,159.95651 c 0,8.342 -6.751,15.093 -15.093,15.093 -8.341,0 -15.091,-6.751 -15.091,-15.093 0,-8.341 6.75,-15.092 15.091,-15.092 8.342,0 15.093,6.751 15.093,15.092 z"
     id="path-10" />
  <path
     inkscape:connector-curvature="0"
     clip-path="url(#clipPath16)"
     bx:origin="0.5 0.5"
     d="m 191.79349,-17.51149 c -4.621,0 -8.365,-3.745 -8.365,-8.366 0,-4.619 3.744,-8.364 8.365,-8.364 4.619,0 8.365,3.745 8.365,8.364 0,4.621 -3.746,8.366 -8.365,8.366"
     style="fill:#666666;fill-opacity:0.5;fill-rule:nonzero;stroke:none"
     id="path-18" />
  <g
     id="g944"
     transform="translate(-586.83443,6.0943212)">
    <g
       transform="matrix(0,1.605718,1.605718,0,837.55795,-5.7328015)"
       id="g104">
      <path
         id="path106"
         style="fill:#4c4c4c;fill-opacity:1;fill-rule:nonzero;stroke:none"
         d="m 0,0 c 0,-0.841 -1.525,-1.523 -3.407,-1.523 -1.882,0 -3.408,0.682 -3.408,1.523 0,0.841 1.526,1.523 3.408,1.523 C -1.525,1.523 0,0.841 0,0"
         inkscape:connector-curvature="0" />
    </g>
    <g
       transform="matrix(0,1.605718,1.605718,0,833.50641,4.0614385)"
       id="g108">
      <path
         id="path110"
         style="fill:#4c4c4c;fill-opacity:1;fill-rule:nonzero;stroke:none"
         d="m 0,0 c 0,-0.841 -1.525,-1.523 -3.407,-1.523 -1.882,0 -3.408,0.682 -3.408,1.523 0,0.841 1.526,1.523 3.408,1.523 C -1.525,1.523 0,0.841 0,0"
         inkscape:connector-curvature="0" />
    </g>
    <g
       transform="matrix(0,1.605718,1.605718,0,836.11163,4.7199585)"
       id="g112">
      <path
         id="path114"
         style="fill:#4c4c4c;fill-opacity:1;fill-rule:nonzero;stroke:none"
         d="M 0,0 C -0.41,1.706 -1.897,3.592 -3.817,2.772 -2.254,6.378 0.697,5.805 1.721,4.575 2.519,3.618 2.5,0.343 0,0"
         inkscape:connector-curvature="0" />
    </g>
    <g
       id="g933">
      <g
         id="g116"
         transform="matrix(0,1.605718,1.605718,0,840.54118,-4.9225515)">
        <path
           inkscape:connector-curvature="0"
           d="M 0,0 C -0.41,1.706 -1.897,3.591 -3.817,2.772 -2.254,6.378 0.697,5.805 1.721,4.575 2.519,3.618 2.5,0.343 0,0"
           style="fill:#4c4c4c;fill-opacity:1;fill-rule:nonzero;stroke:none"
           id="path118" />
      </g>
    </g>
  </g>
  <text
     xml:space="preserve"
     style="font-style:normal;font-weight:normal;font-size:25.88020325px;line-height:1.25;font-family:sans-serif;letter-spacing:0px;word-spacing:0px;fill:#666666;fill-opacity:1;stroke:none;stroke-width:0.64700508"
     x="28.752043"
     y="-183.188"
     id="text118"
     transform="matrix(0,0.76522094,-1.3068121,0,0,0)"><tspan
       sodipodi:role="line"
       id="tspan116"
       x="28.752043"
       y="-183.188"
       style="font-style:normal;font-variant:normal;font-weight:normal;font-stretch:normal;font-family:SNES;-inkscape-font-specification:SNES;fill:#666666;fill-opacity:1;stroke-width:0.64700508">SUPER NINTENDO CD</tspan></text>
  <g
     id="g2500"
     transform="matrix(0,0.31606396,-0.39534881,0,192.03403,204.12744)">
    <rect
       y="-110.97247"
       x="-571.48871"
       height="43.564545"
       width="250.24286"
       id="rect236"
       style="fill:#666666;fill-opacity:1;stroke-width:1.53374732" />
    <text
       id="text1045"
       y="-76.526085"
       x="-562.37061"
       style="font-style:normal;font-weight:normal;font-size:40px;line-height:1.25;font-family:sans-serif;letter-spacing:0px;word-spacing:0px;fill:#000000;fill-opacity:1;stroke:#4c4c4c;stroke-opacity:1"
       xml:space="preserve"><tspan
         style="font-style:normal;font-variant:normal;font-weight:normal;font-stretch:normal;font-family:SNES;-inkscape-font-specification:SNES;fill:#ffffff;stroke:#4c4c4c;stroke-opacity:1"
         y="-76.526085"
         x="-562.37061"
         id="tspan1043"
         sodipodi:role="line">ENTERTAINMENT SYSTEM</tspan></text>
  </g>
</svg>
