<svg xmlns="http://www.w3.org/2000/svg" viewBox="0 0 133.92 307.992"><path d="M133.07 209.562c0-.792-.066-1.707-.414-2.488-.347-.781-1.09-1.437-2.14-1.437v.515c-.203-.011-.504.016-.512.266l.098 35.586c-.387 12.711-4.082 23.754-9.977 33.437-.207.411.223.586.391.582a23.5 23.5 0 0 0 1.652-.121v.051c.68 0 1.203.059 1.707 0a1.694 1.694 0 0 0 1.293-.863c.004-.004.016.004.02 0 0-.004-.004-.012 0-.016 5.371-9.554 7.882-20.566 7.882-32.269v-33.243zm0-111.054c0 .793-.066 1.707-.414 2.488-.347.785-1.09 1.438-2.14 1.438v-.512c-.203.008-.504-.02-.512-.266l.098-35.59c-.387-12.707-4.082-23.75-9.977-33.433-.207-.41.223-.59.391-.582.683.027 1.222.07 1.652.121v-.051c.68 0 1.203-.059 1.707 0 .5.055 1.008.34 1.293.859.004.004.016-.003.02 0 0 .004-.004.012 0 .016 5.371 9.559 7.882 20.566 7.882 32.274v33.238zm0 0" fill="#bdbdbd"/><path d="M130.582 64.816v84.438h-1.18v9.625h1.18v84.293c0 35.805-29 64.82-64.801 64.82-35.804 0-64.82-29.015-64.82-64.82a64.503 64.503 0 0 1 12.195-37.836v-.016l1.035-1.34a13.682 13.682 0 0 0 2.997-8.574v-82.828c0-3.242-1.118-6.223-2.997-8.574l-1.035-1.34v-.012C5.481 92.008.961 78.949.961 64.816.961 29.016 29.973 0 65.777 0c35.801 0 64.801 29.016 64.801 64.816h.004zm0 0" fill="#ccc"/><path fill="none" d="M0 0h133.92v307.92H0z"/><path d="M35.524 116.359c.269.043.48-.07.628-.336l.254-.449c.375-.629.887-.926 1.532-.894.296.015.558.093.785.23.234.141.418.336.543.586.129.246.187.516.179.809a1.187 1.187 0 0 1-.453.953c-.293.238-.687.355-1.183.351v-.929a.984.984 0 0 0 .492-.094c.117-.07.183-.188.191-.348a.612.612 0 0 0-.152-.414.592.592 0 0 0-.414-.215c-.242-.035-.438.102-.594.407a4.682 4.682 0 0 1-.394.664c-.348.437-.813.644-1.403.617a1.758 1.758 0 0 1-.808-.227 1.407 1.407 0 0 1-.532-.55 1.543 1.543 0 0 1-.179-.801c.008-.211.05-.41.125-.59.086-.188.211-.348.375-.481.324-.261.758-.386 1.297-.375l-.012.934c-.27-.008-.477.031-.617.121-.133.086-.203.234-.203.449a.57.57 0 0 0 .14.391.635.635 0 0 0 .403.191zm2.871 19.539v-1.152l-4.305-.57v-.934l4.305.567v-1.145l.988.137v3.234l-.988-.137zm-2.496-4.25a2.354 2.354 0 0 1-.993-.281 1.776 1.776 0 0 1-.668-.621 1.551 1.551 0 0 1-.222-.848c.011-.418.191-.742.531-.976.348-.242.816-.371 1.402-.395.391-.015.821.016 1.285.098a3.99 3.99 0 0 1 1.204.391c.347.187.605.402.777.648.168.25.25.524.242.816-.012.438-.187.782-.519 1.032-.34.25-.805.39-1.395.418v-.938c.328.004.559-.035.691-.129.141-.093.215-.238.223-.429.024-.496-.484-.797-1.519-.907-.473-.047-.809-.07-1.008-.07-.598-.012-.906.152-.926.496a.622.622 0 0 0 .223.527c.156.133.371.219.648.258l.024.91zm.433-4.117v-1.461l-1.266-.16v1.727l-.976-.129v-2.664l5.293.687v2.672l-.988-.125v-1.738l-1.118-.145v1.465l-.945-.129zm-1.266-4.996v1.617l-.976-.129v-2.55l5.293.687v.938l-4.317-.563zm1.266-1.844v-1.461l-1.266-.16v1.727l-.976-.129v-2.664l5.293.687v2.672l-.988-.125V119.5l-1.118-.145v1.465l-.945-.129zm-.808 30.579c.269.042.48-.071.628-.336l.254-.45c.375-.629.887-.925 1.532-.894.296.015.558.094.785.23.234.141.418.336.543.586.129.246.187.512.179.805a1.181 1.181 0 0 1-.453.953c-.293.242-.687.359-1.183.352v-.926a.983.983 0 0 0 .492-.098c.117-.07.183-.183.191-.344a.614.614 0 0 0-.152-.414.591.591 0 0 0-.414-.218c-.242-.032-.438.105-.594.41a4.93 4.93 0 0 1-.394.664c-.348.437-.813.64-1.403.613a1.792 1.792 0 0 1-.808-.223 1.407 1.407 0 0 1-.532-.55 1.552 1.552 0 0 1-.179-.801c.008-.215.05-.41.125-.594.086-.183.211-.344.375-.476.324-.262.758-.387 1.297-.379l-.012.937c-.27-.012-.477.028-.617.121-.133.086-.203.235-.203.446 0 .156.046.285.14.394a.656.656 0 0 0 .403.192zm2.871 16.855v-1.152l-4.305-.567v-.937l4.305.57v-1.144l.988.136v3.231l-.988-.137zm-1.457-6.258v.543c0 .149.046.281.14.395a.817.817 0 0 0 .403.238c.164.047.328.062.488.039.269-.035.41-.168.426-.391v-.632l-1.457-.192zm-.977-.129l-1.871-.238v-.938l5.293.688-.012 1.41c0 .445-.137.793-.414 1.039-.281.239-.664.348-1.148.321-.383-.016-.696-.098-.946-.25a1.474 1.474 0 0 1-.593-.606l-2.118.535h-.062v-1l1.871-.441v-.52zm-.883-3.91l-.988-.351v-1.032l5.293 2.11v.883l-5.293.734v-.977l.988-.093v-1.274zm.988.352v.824l1.817-.176-1.817-.648zm2.329-1.676v-1.149l-4.305-.57v-.937l4.305.57v-1.145l.988.137v3.231l-.988-.137zm0 0" fill="#4c4c4c"/><path d="M66.52 101.977c-20.321 0-36.793-16.45-36.793-36.739S46.199 28.504 66.52 28.504c20.324 0 36.796 16.445 36.796 36.734s-16.472 36.739-36.796 36.739" fill="#999"/><path d="M66.519 101.977c-20.32 0-36.793-16.45-36.793-36.739s16.473-36.734 36.793-36.734c20.324 0 36.797 16.445 36.797 36.734s-16.473 36.739-36.797 36.739" fill="none" stroke="#999" stroke-width=".8"/><path d="M66.524 100.84c-19.676 0-35.625-15.938-35.625-35.602 0-19.66 15.949-35.597 35.625-35.597 19.671 0 35.621 15.937 35.621 35.597 0 19.664-15.95 35.602-35.621 35.602" fill="#ccc"/><path d="M66.449 301.684c-32.265 0-58.422-26.157-58.422-58.422 0-32.266 26.157-58.426 58.422-58.426 32.266 0 58.426 26.16 58.426 58.426 0 32.265-26.16 58.422-58.426 58.422" fill="#666"/><path d="M75.742 90.828V74.461h16.367c.7 0 1.27-.574 1.27-1.273V57.289c0-.699-.57-1.269-1.27-1.269H75.742V39.652c0-.699-.574-1.273-1.273-1.273H58.574c-.699 0-1.273.574-1.273 1.273V56.02H40.934c-.7 0-1.27.57-1.27 1.269v15.899c0 .699.57 1.273 1.27 1.273h16.367v16.367c0 .699.574 1.27 1.273 1.27h15.895c.699 0 1.273-.571 1.273-1.27" fill="#4c4c4c"/><path d="M68.191 42.211c-.917-1.617-2.421-1.617-3.339 0l-3.551 6.269c-.918 1.618-.492 2.942.949 2.942h8.543c1.441 0 1.867-1.324.949-2.942l-3.551-6.269c-.917-1.617-2.421-1.617-3.339 0l-3.551 6.269c-.918 1.618-.492 2.942.949 2.942h8.543c1.441 0 1.867-1.324.949-2.942l-3.551-6.269zm0 45.977c-.917 1.617-2.421 1.617-3.339 0l-3.551-6.266c-.918-1.621-.492-2.942.949-2.942h8.543c1.441 0 1.867 1.321.949 2.942l-3.551 6.266c-.917 1.617-2.421 1.617-3.339 0l-3.551-6.266c-.918-1.621-.492-2.942.949-2.942h8.543c1.441 0 1.867 1.321.949 2.942l-3.551 6.266zm21.258-21.282c1.617-.918 1.617-2.418 0-3.336l-6.265-3.554c-1.618-.918-2.942-.489-2.942.953v8.539c0 1.441 1.324 1.867 2.942.953l6.265-3.555c1.617-.918 1.617-2.418 0-3.336l-6.265-3.554c-1.618-.918-2.942-.489-2.942.953v8.539c0 1.441 1.324 1.867 2.942.953l6.265-3.555zm-45.976-.039c-1.617-.918-1.617-2.418 0-3.336l6.269-3.554c1.617-.915 2.942-.489 2.942.953v8.539c0 1.441-1.325 1.871-2.942.953l-6.269-3.555c-1.617-.918-1.617-2.418 0-3.336l6.269-3.554c1.617-.915 2.942-.489 2.942.953v8.539c0 1.441-1.325 1.871-2.942.953l-6.269-3.555zm15.207 68.051l-10.317-13.156c-3.582-4.547 2.907-10.227 6.778-5.313l10.312 13.156c3.621 4.704-3.105 10.083-6.773 5.313m0 33.07l-10.317-13.156c-3.582-4.547 2.907-10.227 6.778-5.312l10.312 13.156c3.621 4.703-3.105 10.082-6.773 5.312" fill="#666"/><path d="M108.684 263.316l.023-2.148-3.226 2.711-3.516-2.891.016 2.02 2.265 1.906-2.265 1.906-.016 2.02 3.516-2.891 3.226 2.711-.023-2.148-1.942-1.598 1.942-1.598zm-23.84 26.454l-.008 1.003.008 1.004-6.649 3.035-.007-1.632 1.668-.758.019-3.289-1.687-.766.007-1.633 6.649 3.036zm-3.633 2.035l2.273-1.032-2.238-1.015-.035 2.047zm-28.805-96.871v-1.817l-3.738 3.008h-3.07v1.586h3.086l3.722 2.996v-1.816l-2.476-1.981 2.476-1.976zm0 0" fill="#d8d8d8"/><path d="M29.145 220.121v4.43h-.004c-.18 2.765-3.137 2.945-3.27.191-.129 3.356-3.453 3.129-3.59-.191v-.016l-.004-.074h.004v-4.34h6.864zm-5.598 4.406c.176 1.059 1.375 1.125 1.59.024v-2.664h-1.59v2.64zm2.855-.023c.43 1.137 1.368.656 1.477.047v-2.664h-1.477v2.617zm0 0" fill="#ccc"/><path d="M77.945 213.906c0-6.664-5.418-12.082-12.082-12.082s-12.082 5.418-12.082 12.082c0 6.664 5.418 12.082 12.082 12.082s12.082-5.418 12.082-12.082zm-1.023 0a11.051 11.051 0 0 1-11.059 11.059c-6.113 0-11.062-4.945-11.062-11.059 0-6.113 4.949-11.058 11.062-11.058a11.05 11.05 0 0 1 11.059 11.058zm23.875 29.336c0-6.668-5.414-12.066-12.082-12.066-6.664 0-12.078 5.398-12.078 12.066 0 6.664 5.414 12.082 12.078 12.082 6.668 0 12.082-5.418 12.082-12.082zm-1.02 0c0 6.113-4.949 11.059-11.062 11.059-6.109 0-11.059-4.946-11.059-11.059s4.95-11.047 11.059-11.047c6.113 0 11.062 4.934 11.062 11.047zm-44.144.969c0-6.664-5.418-12.082-12.082-12.082-6.668 0-12.067 5.418-12.067 12.082 0 6.664 5.399 12.066 12.067 12.066 6.664 0 12.082-5.402 12.082-12.066zm-1.024 0c0 6.113-4.945 11.043-11.058 11.043-6.113 0-11.043-4.93-11.043-11.043s4.93-11.059 11.043-11.059a11.051 11.051 0 0 1 11.058 11.059zm23.875 29.336c0-6.664-5.418-12.082-12.082-12.082s-12.078 5.418-12.078 12.082c0 6.664 5.414 12.082 12.078 12.082s12.082-5.418 12.082-12.082zm-1.019 0c0 6.113-4.949 11.058-11.059 11.058-6.113 0-11.062-4.945-11.062-11.058 0-6.113 4.949-11.059 11.062-11.059 6.11 0 11.059 4.946 11.059 11.059zm0 0" fill="#f4f4f4"/><path d="M75.176 284.672c-6.199 4.832-15.133 3.73-19.965-2.473l-22.852-29.332c-4.832-6.203-3.714-15.137 2.489-19.965 6.203-4.832 15.133-3.73 19.965 2.473l22.839 29.352a14.135 14.135 0 0 1 2.985 7.753 14.198 14.198 0 0 1-5.461 12.192zm0 0" fill="#d8d8d8"/><path d="M78.477 273.547c0 6.672-5.399 12.074-12.075 12.074-6.671 0-12.07-5.402-12.07-12.074 0-6.676 5.399-12.074 12.07-12.074a12.065 12.065 0 0 1 12.075 12.074zm0 0" fill="#eb2d2f"/><path d="M97.422 254.473c-6.203 4.828-15.133 3.726-19.965-2.477l-22.855-29.332c-4.828-6.203-3.711-15.137 2.492-19.965 6.203-4.832 15.133-3.73 19.965 2.473l22.836 29.351a14.153 14.153 0 0 1 2.988 7.754 14.21 14.21 0 0 1-5.461 12.196zm0 0" fill="#d8d8d8"/><path d="M100.789 243.25c0 6.672-5.398 12.074-12.074 12.074-6.672 0-12.074-5.402-12.074-12.074s5.402-12.074 12.074-12.074c6.676 0 12.074 5.402 12.074 12.074zm0 0" fill="#323b98"/><path d="M55.633 244.203c0 6.672-5.402 12.074-12.074 12.074-6.676 0-12.075-5.402-12.075-12.074s5.399-12.074 12.075-12.074c6.672 0 12.074 5.402 12.074 12.074zm0 0" fill="#f9ec2b"/><path d="M77.938 213.906c0 6.672-5.403 12.074-12.075 12.074-6.675 0-12.074-5.402-12.074-12.074s5.399-12.074 12.074-12.074c6.672 0 12.075 5.402 12.075 12.074zm0 0" fill="#01954b"/><circle cx="66.522" cy="65.24" r="7.335" fill="#595959"/><path d="M108.354 113.866s.066-.165.066-.397v-2.416s.165-.331.629-.331c0 0 .43.132.43.596v3.31h.927v-4.269s-.033-.993-1.191-1.258c0 0-1.655-.265-1.721 1.423v2.151s-.066.695-.629.629c0 0-.496-.099-.463-.53v-3.376h-.993v3.872s-.165 1.456 1.291 1.688c-.001 0 1.422.166 1.654-1.092zm-1.92 5.593v-1.787s.099-.728.662-.728h3.31v-1.456h-3.674s-1.324.397-1.324 1.522v3.905h5.031v-1.456h-4.005zm4.038 6.454v-4.137h-5.064v1.423h1.721v2.482c.199 1.688 1.688 1.622 1.688 1.622 1.523-.132 1.655-1.39 1.655-1.39zm-2.35-.86v-1.82h1.357v1.92c0 .53-.629.629-.629.629-.893-.167-.728-.729-.728-.729zm-.231 2.747s-2.118-.265-2.482 2.085v3.012h1.026v-2.615s0-.794 1.059-.927v3.574h.96v-3.541s.86.066 1.026.993v2.548h1.026v-3.111c-.001 0-.2-2.018-2.615-2.018zm.959 11.683c1.456 0 1.622-1.522 1.622-1.522v-4.236h-5.064v1.489h1.886v1.456l-1.853 1.258v1.688l1.92-1.456c.265 1.389 1.489 1.323 1.489 1.323zm-.662-2.615v-1.655h1.291v1.721s.099.927-.662.927c0 0-.629.099-.629-.993zm.398 6.023h-3.21v1.456h1.986v3.641h1.059v-3.574h.265c.563.099.794.993.794.993v2.648h.927v-3.111c-.001-1.788-1.821-2.053-1.821-2.053zm1.82 9.3v-3.343h-.96v2.648c0 .993-.993 1.092-.993 1.092v-2.482c-.066-1.688-1.556-1.655-1.556-1.655-1.589 0-1.555 1.754-1.555 1.754v3.905h2.846c2.019.001 2.218-1.919 2.218-1.919zm-4.071.431v-2.019s.033-.53.596-.53c0 0 .563.066.563.596l-.033 1.953h-1.126zm4.071 8.108v-5.792h-5.031l-.033 1.522h4.038v1.324h-4.071v1.489h4.038v.64c-.022.794-.629.916-.629.916h-3.376v1.423h3.276c1.622.001 1.788-1.522 1.788-1.522zm-5.031 2.416v1.589h4.997v-1.589h-4.997zm2.549 2.284c-2.482 0-2.615 2.085-2.615 2.085v2.945h.993v-2.515c.199-1.125 1.522-.993 1.522-.993 1.655 0 1.522 1.059 1.522 1.059v2.482h1.026v-3.078c-.264-1.985-2.448-1.985-2.448-1.985zm2.515 8.572s.166-2.714-2.118-3.078c0 0-1.886-.298-2.648 1.026 0 0-1.225 1.886-.033 4.071 0 0 .728 1.456 2.912 1.092 0 0 1.986-.431 1.887-3.111zm-4.303.066s-.199-1.886 1.688-1.721c0 0 1.721-.165 1.721 1.622 0 0 .199 1.754-1.721 1.754 0 0-1.688.165-1.688-1.655zm4.17 9.598v-5.792h-5.031l-.033 1.522h4.038v1.324h-4.071v1.489h4.038v.64c-.022.794-.629.916-.629.916h-3.376v1.423h3.276c1.623 0 1.788-1.522 1.788-1.522zm10.612-74.438v2.223l-5.119 3.074 5.119-.001v2.204h-7.342v-2.201l5.119-3.089h-5.119v-2.209l7.342-.001zm-.756 19.484v2.147h-.988v1.161h-.726v-1.161l-4.872.002v-2.149l4.872.001v-1.165h.724l.002 1.165.988-.001zm-1.704-10.757v2.145h-4.883v-2.145h4.883zm2.462-.006v2.15h-1.502v-2.15h1.502zm-2.13 37.584c0-1.731-1.225-3.134-2.74-3.134-1.513 0-2.741 1.403-2.741 3.134 0 1.732 1.228 3.133 2.741 3.133 1.514 0 2.74-1.401 2.74-3.133m-2.733.861l-1.034-.002c-.778 0-1.098-.446-1.098-.877 0-.43.32-.879 1.098-.879l1.053.001 1.016.001c.776 0 1.094.451 1.094.877 0 .428-.318.877-1.094.877-.296 0-.843-.001-1.038.002h.003zm-.016-6.795h.873c.755 0 .947-.507.947-.84 0-.342-.191-.841-.947-.841h-1.738c-.757 0-.951.499-.951.841 0 .333.194.84.951.84h.865zm4.877-.014v2.115h-7.341v-2.12l.281-.001c-.528-.82-.528-1.746-.184-2.469a2.608 2.608 0 0 1 2.423-1.465c1.288 0 2.696 1.179 2.555 2.726-.046.509-.237.87-.437 1.214h2.703zm-2.235-24.466c.024.803-.516 2.427-2.448 2.417-.345-.002-2.657-.001-2.657-.001v-2.129h3.206c.426 0 .898-.395.898-.981 0-.584-.472-1.018-.898-1.018l-3.206.002v-2.128l4.881-.002.002 2.13s-.392-.002-.514 0a2.55 2.55 0 0 1 .736 1.71m0 17.426c.024.802-.516 2.429-2.448 2.418-.345-.002-2.657 0-2.657 0v-2.132h3.206c.426 0 .898-.395.898-.981 0-.584-.472-1.017-.898-1.017l-3.206.002v-2.128h4.881l.002 2.128s-.392-.002-.514 0c.402.41.716 1.001.736 1.71m-3.398-6.746l-.297.001c-.893 0-1.092-.57-1.092-.887 0-.316.199-.898 1.092-.898l1.007.002s-.002 4.039.002 4.039c1.513 0 2.766-1.42 2.766-3.163s-1.225-3.157-2.741-3.157c-1.515 0-2.74 1.413-2.74 3.157 0 1.447.85 2.67 2.003 3.042v-2.136zm1.472-1.781c.427-.004.713.004.957.141a.871.871 0 0 1 .446.755.868.868 0 0 1-.446.752c-.244.136-.529.144-.957.141v-1.789zm-5.875-40.753c-1.082 0-1.957-1.957-1.957-4.375s.875-4.379 1.957-4.379c1.078 0 1.957 1.961 1.957 4.379 0 2.418-.879 4.375-1.957 4.375m-3.242 7.836c-1.082 0-1.957-1.957-1.957-4.375s.875-4.379 1.957-4.379 1.957 1.961 1.957 4.379c0 2.418-.875 4.375-1.957 4.375m2.086.527c2.191-.527 4.613-2.438 3.558-4.902 4.633 2.007 3.895 5.796 2.317 7.113-1.231 1.027-5.438 1-5.875-2.211m3.543-7.715c2.191-.523 4.613-2.434 3.558-4.902 4.633 2.008 3.899 5.801 2.317 7.113-1.231 1.027-5.438 1.004-5.875-2.211" fill="#4c4c4c"/></svg>