<?xml version="1.0" encoding="UTF-8"?>
<!DOCTYPE svg PUBLIC "-//W3C//DTD SVG 1.0//EN" "http://www.w3.org/TR/2001/REC-SVG-20010904/DTD/svg10.dtd">
<!-- Creator: CorelDRAW 2018 (64 Bit) -->
<svg xmlns="http://www.w3.org/2000/svg" xml:space="preserve" width="1012px" height="318px" version="1.0" shape-rendering="geometricPrecision" text-rendering="geometricPrecision" image-rendering="optimizeQuality" fill-rule="evenodd" clip-rule="evenodd"
viewBox="0 0 1012 318"
 xmlns:xlink="http://www.w3.org/1999/xlink">
 <g id="Camada_x0020_1">
  <metadata id="CorelCorpID_0Corel-Layer"/>
  <g id="_2264205002080">
   <path fill="#0A0794" fill-rule="nonzero" d="M255.95 240.15l-1.93 7.51 2.03 -0.2 -0.1 -7.31zm-76.14 -0.98l-0.48 0.31 -0.77 8.81 0.01 0.13c0.03,0.27 0.25,0.49 0.56,0.45l1.53 -0.15c0.38,-0.04 1.25,-0.9 1.28,-1.29l0.67 -7.26c0.03,-0.41 -0.76,-1.21 -1.14,-1.17l-1.66 0.17zm304.35 -34.48l8.52 -0.87 -0.28 3.63 -2.16 0.22 -1.88 25.62 -4.07 0.42 1.88 -25.63 -2.28 0.24 0.27 -3.63zm-37.75 3.85l3.56 -0.36 3.43 14.8 1.27 -15.28 4.07 -0.42 -2.41 29.27 -3.57 0.37 -3.09 -16.51 -1.61 16.99 -4.19 0.42 2.54 -29.28zm-36.87 3.75l7.5 -0.76 -0.14 3.61 -4.07 0.42 -0.75 9.06 3.94 -0.4 -0.19 3.1 -4.07 0.42 -0.67 9.83 4.07 -0.42 -0.27 3.63 -8.01 0.81 2.66 -29.3zm-46.14 4.71l4.7 -0.48 2.46 16.57 5.56 -17.26 4.58 -0.47 -1.91 29.1 -3.56 0.36 0.74 -15.36 -4.81 15.77 -2.54 0.26 -2.35 -15.43 -1.21 15.8 -4.07 0.41 2.41 -29.27zm-42.07 4.28l3.55 -0.36 3.44 14.81 1.27 -15.29 4.07 -0.41 -2.41 29.27 -3.69 0.38 -2.97 -16.53 -1.61 16.99 -4.19 0.43 2.54 -29.29zm-32.8 3.35l3.69 -0.38 -2.54 29.29 -3.56 0.36 2.41 -29.27zm-33.81 3.44l4.83 -0.49 1.4 28.88 -4.83 0.5 -0.04 -6.68 -2.92 0.3 -1.74 6.86 -4.33 0.44 7.63 -29.81zm-42.33 4.31l8.52 -0.86 -0.15 3.61 -2.16 0.22 -2.01 25.63 -4.07 0.42 1.88 -25.62 -2.28 0.23 0.27 -3.63zm-36.36 3.71l8.14 -0.83c1.51,-0.15 2.6,1.09 2.46,2.7l-0.87 10.37c-0.1,1.12 -1.94,2.22 -2.93,2.74l0.5 -0.06 0.02 0.13 0.51 -0.05 0.13 0.11 0.39 -0.04 0.01 0.13 0.25 -0.02 0.02 0.12 0.12 -0.01c0.21,0.29 0.38,1.2 0.4,1.37l-0.88 11.52 -3.69 0.38c0,0 0.95,-10.21 0.98,-10.63 -0.01,-0.45 -0.15,-0.98 -0.28,-1.39 -0.05,-0.3 -0.12,-0.83 -0.49,-1.1l-2.55 0.26 -1.09 13.21 -3.69 0.37 2.54 -29.28zm-35.84 3.65l7.62 -0.78 -0.27 3.63 -3.94 0.4 -0.87 9.08 3.94 -0.4 -0.2 3.1 -3.94 0.4 -0.67 9.83 3.94 -0.4 -0.14 3.61 -8.14 0.83 2.67 -29.3zm-36.99 3.77l8.39 -0.85 -0.15 3.61 -2.16 0.22 -2.01 25.63 -4.07 0.42 1.88 -25.62 -2.28 0.23 0.4 -3.64zm-38.14 3.89l3.56 -0.37 3.44 14.81 1.26 -15.29 4.2 -0.42 -2.54 29.28 -3.56 0.37 -3.09 -16.51 -1.61 16.98 -4.2 0.43 2.54 -29.28zm-35.08 3.57l7.5 -0.76 -0.15 3.61 -4.07 0.41 -0.74 9.07 3.94 -0.4 -0.2 3.1 -4.07 0.42 -0.54 9.81 3.94 -0.4 -0.27 3.62 -8.13 0.83 2.79 -29.31zm682.63 -70.58l4.7 -0.48 2.45 16.44 5.57 -17.13 4.57 -0.6 -1.92 29.1 -3.56 0.36 0.75 -15.36 -4.82 15.77 -2.54 0.26 -2.34 -15.43 -1.22 15.8 -4.19 0.42 2.55 -29.15zm-31.4 3.19l7.63 -0.77 -0.29 3.49 -3.94 0.41 -0.86 9.2 4.07 -0.41 -0.34 2.99 -3.94 0.4 -0.67 9.83 3.94 -0.4 -0.14 3.61 -8.14 0.83 2.68 -29.18zm-33.3 3.4l8.51 -0.87 -0.28 3.5 -2.16 0.22 -1.89 25.62 -4.19 0.43 1.88 -25.62 -2.16 0.22 0.29 -3.5zm-29.62 3.02l6.23 -0.64c1.51,-0.15 2.68,0.95 2.57,2.56l-0.67 7.27 -3.43 0.35 0.28 -4.79c0.06,-1.08 -0.64,-1.86 -1.72,-1.75 -1.06,0.11 -2.03,1.06 -2.09,2.14l-0.29 3.5 0.51 1.23c0.47,0.23 5.74,7.21 5.8,7.76 0.16,0.26 0.17,0.39 0.18,0.5 -0.08,0.95 -0.53,7.37 -0.53,7.37 -0.13,1.48 -1.43,2.84 -2.91,2.99l-5.47 0.56c-1.48,0.15 -2.56,-0.97 -2.43,-2.45l0.53 -7.37 3.69 -0.38 -0.36 5.3c-0.06,1.09 0.7,1.99 1.73,1.88 1.07,-0.11 1.99,-1.17 2.09,-2.27l0.33 -4.27c-0.87,-1.68 -6.01,-7.61 -6.45,-9.1 -0.21,-0.15 -0.39,-1.06 -0.43,-1.76 -0.04,-0.76 0.46,-5.56 0.46,-5.57l0.11 -0.13 -0.03 -0.26 0.1 -0.27 -0.01 -0.12 0.11 -0.14 -0.01 -0.13 0.12 -0.14 -0.02 -0.13 0.12 -0.14 0.11 -0.14 -0.01 -0.13 0.13 -0.01 0.11 -0.14 0.12 -0.14 0.11 -0.14 0.11 -0.14 0.12 -0.14 0.11 -0.14 0.13 -0.01 0.11 -0.14 0.13 -0.01 0.11 -0.14 0.38 -0.04 0.12 -0.14zm-41.57 4.23l4.58 -0.46 1.74 10.74 4.74 -11.41 4.58 -0.46 -7.72 17.48 -1.06 12.31 -4.07 0.42 0.71 -13.18 -3.5 -15.44zm-29.23 2.98l6.23 -0.63c1.5,-0.16 2.71,0.94 2.57,2.56l-0.67 7.26 -3.44 0.35 0.29 -4.78c0.06,-1.08 -0.65,-1.86 -1.72,-1.75 -1.06,0.11 -2.02,1.05 -2.1,2.14l-0.28 3.5 0.51 1.23c0.5,0.22 5.74,7.2 5.8,7.75 0.13,0.27 0.21,0.39 0.18,0.5 -0.04,0.95 -0.66,7.39 -0.66,7.39 -0.13,1.48 -1.41,2.84 -2.91,2.99l-5.34 0.55c-1.48,0.15 -2.56,-0.98 -2.43,-2.45l0.53 -7.38 3.69 -0.37 -0.36 5.3c-0.06,1.08 0.66,1.99 1.73,1.88 1.03,-0.11 2.02,-1.18 2.08,-2.27l0.34 -4.27c-0.86,-1.69 -6.01,-7.62 -6.45,-9.11 -0.22,-0.15 -0.39,-1.06 -0.44,-1.75 -0.04,-0.76 0.46,-5.57 0.46,-5.57l0.13 -0.01 -0.04 -0.38 0.1 -0.27 -0.01 -0.13 0.11 -0.14 -0.01 -0.13 0.11 -0.14 -0.01 -0.12 0.11 -0.14 0.12 -0.14 -0.01 -0.13 0.12 -0.01 0.12 -0.14 0.11 -0.14 0.11 -0.14 -0.01 -0.13 0.13 -0.01 0.12 -0.14 0.11 -0.14 0.13 -0.02 0.11 -0.14 0.13 -0.01 0.11 -0.14 0.38 -0.04 0.12 -0.14zm-533.83 49.9l4.31 42.33 725.58 -73.93 -4.32 -42.33 -725.57 73.93zm245.56 -151.27l7.89 -0.81c1.73,-0.17 5.82,3.42 5.66,5.21l-3.5 32.46c-0.13,1.7 -3.86,6.05 -5.53,6.22l-6.99 0.71c-1.44,0.15 -2.53,-0.7 -2.77,-2.03 -0.03,-0.21 -0.08,-0.51 -0.08,-0.76l3.52 -39.79 0.12 -0.14 0.11 -0.14 0.24 -0.15 0.13 -0.02 0.11 -0.14 0.12 -0.14 0.12 -0.01 0.12 -0.14 0.12 -0.01 0.24 -0.16 0.39 -0.03 -0.02 -0.13zm-101.31 10.32l7.88 -0.8c1.74,-0.18 5.81,3.41 5.67,5.2l-3.48 32.59c-0.15,1.69 -1.99,5.73 -3.64,5.9l-9.79 0.99 -0.14 -0.11 -0.51 0.05 -0.01 -0.13 -0.25 0.03 -0.15 -0.11 -0.12 0.01 -0.14 -0.12 -0.14 -0.11 -0.13 0.01 -0.01 -0.12 -0.14 -0.12 -0.14 -0.11 -0.02 -0.13 -0.14 -0.11 -0.14 -0.12 -0.02 -0.25 -0.14 -0.12 -0.03 -0.25 -0.14 -0.11 -0.01 -0.13c-0.02,-0.21 -0.08,-0.53 -0.08,-0.76l3.65 -39.81c0.64,-0.64 1.45,-1.17 2.31,-1.26zm555.7 -57.14l0.51 -0.05c4.79,-0.49 8.33,3.04 8,7.92l-6.65 86.09c-0.33,4.87 -4.35,9.3 -9.14,9.79 -4.8,0.49 -7.21,-3.28 -6.87,-8.16l6.51 -86.08 0.09 -0.39 0.09 -0.39 0.07 -0.53 0.09 -0.39 0.08 -0.52 0.09 -0.39 0.08 -0.4 0.22 -0.41 0.09 -0.39 0.21 -0.41 0.09 -0.39 0.22 -0.41 0.22 -0.28 0.22 -0.41 0.21 -0.4 0.36 -0.3 0.23 -0.28 0.23 -0.28 0.35 -0.29 0.36 -0.29 0.23 -0.28 0.35 -0.3 0.37 -0.16 0.36 -0.3 0.24 -0.15 0.49 -0.18 0.37 -0.16 0.38 -0.04 0.37 -0.17 0.51 -0.05 0.37 -0.17zm-65.47 6.67l7.5 -0.76c4.8,-0.49 8.47,3.02 8.13,7.91l-7.4 86.16c-0.35,4.88 -4.61,9.33 -9.41,9.82l-7.37 0.75 8.55 -103.88zm54.42 -20.57c-6.98,0.71 -13.04,7.12 -13.56,14.36l-7.55 106.21c-0.5,6.78 4.45,11.62 11.13,10.94l26.82 -2.73c6.73,-0.69 12.71,-6.64 13.28,-13.43l9.07 -106.37c0.62,-7.24 -4.52,-12.51 -11.48,-11.8l-27.71 2.82zm-69.79 7.11l-11.37 131.65 37.12 -3.78c6.74,-0.69 12.7,-6.64 13.27,-13.43l9.07 -106.36c0.61,-7.26 -4.5,-12.52 -11.48,-11.81l-36.61 3.73zm-64.7 6.6l-11.37 131.65 18.81 -1.92 7.5 -76.41 13.6 74.26 16.27 -1.66 11.38 -131.65 -18.82 1.92 -5.7 68.78 -15.27 -66.64 -16.4 1.67zm-41.31 4.21l-12.26 131.74 36.61 -3.73 0.91 -16.28 -18.05 1.84 3.05 -44.37 18.05 -1.84 1.17 -13.73 -18.05 1.84 3.8 -40.84 18.05 -1.84 0.91 -16.28 -34.19 3.49zm-44.74 4.56l-1.43 16.32 10.17 -1.03 -8.55 115.18 18.56 -1.89 8.94 -115.22 9.78 -1 0.91 -16.28 -38.38 3.92zm-63.05 6.42l-11.38 131.65 18.81 -1.92 7.5 -76.41 13.61 74.26 16.27 -1.66 11.37 -131.65 -18.81 1.92 -5.71 68.78 -15.27 -66.64 -16.39 1.67zm-24.79 2.53l-11.38 131.65 16.28 -1.66 11.37 -131.65 -16.27 1.66zm-64.58 6.58l-11.37 131.65 18.69 -1.91 7.49 -76.41 13.61 74.26 16.27 -1.66 11.37 -131.65 -18.69 1.91 -5.83 68.79 -15.27 -66.64 -16.27 1.66zm-87.07 8.87l-11.24 131.63 16.27 -1.65 5.1 -59.6 11.56 -1.18c1.67,1.26 2.11,3.85 2.45,5.14 0.5,1.87 1.06,4.27 1.02,6.19 -0.02,1.91 -4.12,47.81 -4.12,47.81l16.27 -1.65c0,0 4.16,-49.98 4.08,-50.77 -0.06,-0.8 -0.34,-3.31 -1.37,-4.61 -0.68,-0.83 -1.92,-2.77 -3.17,-3.4 -2.42,-1.22 -5.08,-1.92 -5.08,-1.92l-1.14 0.11c4.46,-2.3 12.93,-6.22 13.36,-11.25l4.22 -46.79c0.63,-7.26 -4.5,-12.52 -11.47,-11.8l-36.74 3.74zm-43.73 4.45l-12.26 131.74 36.61 -3.73 0.91 -16.27 -18.05 1.84 2.93 -44.35 18.05 -1.84 1.17 -13.74 -18.05 1.84 3.93 -40.85 18.05 -1.84 0.91 -16.28 -34.2 3.48zm-58.09 5.92l-11.37 131.65 16.27 -1.66 5.23 -59.61 20.72 -2.11c6.73,-0.69 12.58,-6.67 13.14,-13.41l4.22 -46.8c0.62,-7.25 -4.5,-12.51 -11.47,-11.8l-36.74 3.74zm-58.47 5.96l-8.4 119.27c-0.49,6.78 4.56,11.61 11.26,10.93l24.28 -2.47c6.73,-0.69 12.71,-6.64 13.27,-13.43l9.8 -119.41 -15.25 1.55 -9.12 116.01c-0.13,1.68 -1.6,3.24 -3.25,3.41l-12.07 1.23c-1.7,0.17 -2.96,-1.1 -2.86,-2.79l8.61 -115.96 -16.27 1.66zm-46.78 4.77c-6.98,0.71 -13.17,7.13 -13.69,14.37l0.04 0.38 -0.12 0.14 0.04 0.38 -0.1 0.27 0.03 0.25 -0.1 0.27 0.03 0.38 -0.1 0.27 0.04 0.38 -0.09 0.39 -0.08 0.4 -0.05 0.77 -0.17 0.92 -0.03 0.9 -0.17 0.92 -0.02 1.03 -0.15 1.04 -0.14 1.17 -0.15 1.04 -0.16 2.2 -0.14 1.17 -0.15 1.04 -0.02 1.03 -0.15 1.05 -0.15 1.04 -0.03 1.03 -0.03 0.9 -0.18 0.79 -0.04 0.9 0.04 0.38 -0.1 0.27 0.07 0.64 -0.09 0.39 0.05 0.51 -0.1 0.27 0.02 0.25c0.19,3.12 1.05,7.32 2.1,8.01 1.93,6.71 27.97,36.07 27.81,40.96 -0.12,4.9 -1.36,19.4 -1.36,19.4 -0.34,4.89 -3.22,9.07 -8.02,9.55 -4.8,0.49 -8.46,-3 -8.13,-7.9l1.92 -24.09 -17.04 1.74 -2.37 33.38c-0.49,6.78 4.56,11.61 11.25,10.93l24.28 -2.48c6.73,-0.68 12.6,-6.63 13.15,-13.41 0,0 3.13,-31.27 2.89,-33.43 -0.25,-2.18 -0.88,-2.35 -0.88,-2.35 -0.26,-2.49 -23.97,-33.93 -26.17,-34.97 -0.95,-0.43 -2.02,-3.67 -2.25,-5.68 -0.24,-1.98 1.1,-15.65 1.1,-15.65 0.34,-4.88 4.49,-9.19 9.29,-9.68 4.8,-0.49 7.19,3.15 6.86,8.04l-1.53 21.6 17.16 -1.75 2.73 -32.51c0.62,-7.25 -4.51,-12.52 -11.48,-11.81l-25.17 2.57z"/>
   <path fill="#C40A0A" fill-rule="nonzero" d="M879.16 89.51l-43.99 4.38 1.5 -28.69c0.43,-8.35 0.24,-13.5 -0.58,-15.49 -0.81,-1.96 -2.82,-2.8 -5.99,-2.49 -3.56,0.36 -5.91,1.84 -7,4.44 -1.09,2.64 -1.87,8.12 -2.31,16.47l-4 76.68c-0.42,8.04 -0.19,13.21 0.64,15.59 0.83,2.34 2.94,3.34 6.29,3.01 3.23,-0.32 5.43,-1.75 6.56,-4.33 1.12,-2.53 1.92,-8.36 2.4,-17.45l1.08 -20.79 43.99 -4.38 -0.33 6.44c-0.9,17.13 -2.78,29.41 -5.6,36.79 -2.83,7.42 -8.64,14.23 -17.36,20.47 -8.75,6.24 -19.28,9.96 -31.67,11.19 -12.85,1.28 -23.34,0.07 -31.46,-3.65 -8.09,-3.74 -13.32,-9.49 -15.6,-17.29 -2.29,-7.81 -3.01,-19.79 -2.16,-35.99l2.52 -48.25c0.62,-11.91 1.51,-20.87 2.64,-26.9 1.17,-6.04 3.92,-12.03 8.37,-17.95 4.42,-5.91 10.38,-10.83 17.87,-14.73 7.5,-3.9 16.02,-6.31 25.56,-7.26 12.92,-1.29 23.47,0.09 31.65,4.16 8.14,4.03 13.34,9.58 15.63,16.62 2.25,7.05 2.97,18.27 2.17,33.7l-0.82 15.7zm19.49 -73.64l32.85 -3.27c21.18,-2.11 35.48,-2.6 42.85,-1.43 7.37,1.17 12.91,3.74 16.56,7.7 3.65,3.97 5.85,8.56 6.54,13.79 0.68,5.27 0.63,15.7 -0.19,31.37l-3.02 57.87c-0.77,14.83 -2,24.83 -3.69,29.95 -1.68,5.15 -4.38,9.34 -8.05,12.51 -3.7,3.17 -8.18,5.56 -13.48,7.23 -5.25,1.63 -13.15,2.97 -23.65,4.02l-55.34 5.51 8.62 -165.25zm42.52 23.82l-5.68 108.84c6.23,-0.62 10.14,-2.25 11.69,-4.87 1.59,-2.65 2.66,-9.48 3.23,-20.51l3.36 -64.28c0.39,-7.48 0.39,-12.26 0.04,-14.34 -0.39,-2.08 -1.38,-3.5 -3.07,-4.3 -1.66,-0.84 -4.83,-1.01 -9.57,-0.54z"/>
   <path fill="#069C07" fill-rule="nonzero" d="M43.03 47.4l13.37 -1.38 -4.36 15.97 14.63 -1.52 4.36 -15.97 13.42 -1.38 -12.48 45.74 -13.42 1.38 5.05 -18.52 -14.63 1.51 -5.05 18.52 -13.36 1.39 12.47 -45.74zm66.52 30.25l-15.16 1.56 -4.23 7.77 -13.65 1.41 28.77 -47.43 14.64 -1.51 3.75 44.06 -14.01 1.45 -0.11 -7.31zm-0.13 -9.61l-0.24 -15.95 -9.23 16.93 9.47 -0.98zm51.33 -6.55l10.71 2.53c-1.73,3.55 -3.77,6.58 -6.1,9.08 -2.33,2.51 -4.91,4.48 -7.75,5.92 -2.83,1.45 -6.19,2.37 -10.07,2.77 -4.71,0.49 -8.35,0.16 -10.96,-0.97 -2.58,-1.14 -4.46,-3.41 -5.63,-6.82 -1.18,-3.41 -1,-7.96 0.55,-13.62 2.06,-7.56 5.55,-13.57 10.47,-18.03 4.93,-4.45 10.87,-7.04 17.85,-7.76 5.45,-0.57 9.43,0.15 11.91,2.16 2.48,2.01 3.83,5.34 4.03,10.02l-12.55 3.98c-0.03,-1.34 -0.19,-2.31 -0.47,-2.9 -0.46,-1 -1.15,-1.74 -2.07,-2.2 -0.93,-0.47 -2.06,-0.64 -3.4,-0.5 -3.05,0.32 -5.73,1.85 -8.04,4.58 -1.74,2.03 -3.17,5.1 -4.29,9.17 -1.38,5.07 -1.6,8.46 -0.65,10.19 0.95,1.72 2.74,2.45 5.38,2.18 2.56,-0.27 4.7,-1.22 6.43,-2.88 1.72,-1.65 3.27,-3.95 4.65,-6.9zm25.62 -28.9l13.37 -1.39 -4.72 17.28 18.73 -18.72 17.79 -1.84 -20.49 18.82 8.73 26.84 -16.45 1.7 -4.01 -17.83 -9.03 8.36 -3.03 11.13 -13.37 1.38 12.48 -45.73z"/>
   <path fill="#009600" fill-rule="nonzero" d="M693.74 241.91l26.49 -3.02 4.27 39.42 15.94 -41.72 26.37 -3 -9.57 66.66 -16.43 1.87 7.29 -50.82 -19.97 52.26 -14.88 1.7 -5.35 -49.38 -7.3 50.82 -16.42 1.87 9.56 -66.66zm76 35.23l19.23 -3.4c-0.04,3.12 0.46,5.44 1.49,6.95 1.69,2.44 4.44,3.46 8.29,3.02 2.86,-0.33 5.16,-1.26 6.9,-2.82 1.76,-1.55 2.76,-3.24 3.02,-5.06 0.25,-1.72 -0.26,-3.19 -1.53,-4.39 -1.27,-1.19 -4.5,-2.08 -9.7,-2.69 -8.51,-1.02 -14.39,-3 -17.66,-5.94 -3.3,-2.92 -4.57,-6.99 -3.82,-12.21 0.49,-3.41 1.92,-6.75 4.29,-10.01 2.37,-3.28 5.62,-6 9.76,-8.18 4.14,-2.18 9.59,-3.65 16.35,-4.42 8.3,-0.95 14.4,-0.09 18.3,2.6 3.9,2.67 5.76,7.42 5.6,14.24l-19.04 3.3c-0.07,-2.97 -0.81,-5.05 -2.22,-6.23 -1.42,-1.2 -3.54,-1.63 -6.37,-1.31 -2.33,0.27 -4.17,0.98 -5.5,2.12 -1.32,1.15 -2.09,2.46 -2.3,3.91 -0.15,1.06 0.2,1.95 1.03,2.69 0.79,0.78 2.92,1.34 6.35,1.69 8.49,0.94 14.49,2.2 17.98,3.76 3.51,1.55 5.93,3.69 7.23,6.44 1.31,2.73 1.7,5.92 1.17,9.57 -0.61,4.27 -2.33,8.34 -5.14,12.22 -2.83,3.86 -6.44,6.97 -10.85,9.31 -4.39,2.33 -9.73,3.85 -16.03,4.57 -11.04,1.26 -18.38,-0.06 -22,-3.94 -3.63,-3.87 -5.24,-9.14 -4.83,-15.79zm117.69 -57.29l20.06 -2.28 -5.7 39.71c-0.57,3.92 -1.71,7.72 -3.4,11.34 -1.7,3.65 -4.01,6.92 -6.95,9.83 -2.93,2.91 -5.87,5.05 -8.82,6.44 -4.12,1.92 -8.91,3.19 -14.37,3.82 -3.16,0.36 -6.58,0.52 -10.25,0.49 -3.67,-0.02 -6.68,-0.56 -8.99,-1.63 -2.32,-1.06 -4.35,-2.71 -6.06,-4.96 -1.73,-2.24 -2.79,-4.64 -3.18,-7.19 -0.63,-4.09 -0.71,-7.78 -0.24,-11.05l5.69 -39.71 20.06 -2.28 -5.83 40.65c-0.52,3.63 0.05,6.36 1.71,8.17 1.68,1.82 4.25,2.54 7.73,2.14 3.43,-0.39 6.29,-1.71 8.54,-3.95 2.24,-2.22 3.63,-5.19 4.16,-8.88l5.84 -40.66zm23.63 31.93l26.23 -2.99 -2.06 14.34 -26.23 2.99 2.06 -14.34zm78.09 -44.61l-9.73 67.78 -18.24 2.07 6.37 -44.34c-3.28,2.63 -6.41,4.8 -9.38,6.53 -2.97,1.73 -6.63,3.49 -10.97,5.25l2.16 -15.08c6.44,-2.75 11.57,-5.75 15.37,-8.99 3.81,-3.26 6.98,-7.1 9.51,-11.52l14.91 -1.7z"/>
  </g>
 </g>
</svg>
