<?xml version="1.0" encoding="UTF-8" standalone="no"?>
<!-- Created with Inkscape (http://www.inkscape.org/) -->

<svg
   xmlns:dc="http://purl.org/dc/elements/1.1/"
   xmlns:cc="http://creativecommons.org/ns#"
   xmlns:rdf="http://www.w3.org/1999/02/22-rdf-syntax-ns#"
   xmlns:svg="http://www.w3.org/2000/svg"
   xmlns="http://www.w3.org/2000/svg"
   xmlns:sodipodi="http://sodipodi.sourceforge.net/DTD/sodipodi-0.dtd"
   xmlns:inkscape="http://www.inkscape.org/namespaces/inkscape"
   version="1.1"
   id="svg2"
   sodipodi:docname="111.svg"
   inkscape:version="0.92.3 (2405546, 2018-03-11)">
  <metadata
     id="metadata8">
    <rdf:RDF>
      <cc:Work
         rdf:about="">
        <dc:format>image/svg+xml</dc:format>
        <dc:type
           rdf:resource="http://purl.org/dc/dcmitype/StillImage" />
        <dc:title />
      </cc:Work>
    </rdf:RDF>
  </metadata>
  <defs
     id="defs6" />
  <sodipodi:namedview
     pagecolor="#ffffff"
     bordercolor="#666666"
     borderopacity="1"
     objecttolerance="10"
     gridtolerance="10"
     guidetolerance="10"
     inkscape:pageopacity="0"
     inkscape:pageshadow="2"
     inkscape:window-width="1920"
     inkscape:window-height="1024"
     id="namedview4"
     showgrid="false"
     inkscape:zoom="1.4045404"
     inkscape:cx="365.49239"
     inkscape:cy="297.70468"
     inkscape:window-x="0"
     inkscape:window-y="29"
     inkscape:window-maximized="1"
     inkscape:current-layer="svg2" />
  <g
     id="g917"
     transform="translate(-166.81002,-255.24587)"
     inkscape:export-xdpi="600.03717"
     inkscape:export-ydpi="600.03717">
    <path
       sodipodi:nodetypes="cccccccccccccccccccccc"
       inkscape:connector-curvature="0"
       id="path862"
       d="m 387.35256,396.88908 c 32.6104,-24.45627 66.48291,-44.81068 102.88063,-56.95814 l 0.17799,-46.63447 c 6.91091,-13.17178 35.39543,-11.34972 41.11666,0.178 l 0.17799,47.52443 c 36.63988,15.53363 73.05184,31.38066 102.25765,57.13614 -5.74159,29.32696 -12.52072,48.27857 -19.17511,68.47757 12.72024,-0.002 18.41982,6.69716 23.91357,13.59298 8.71063,-15.34033 28.06425,-15.44435 36.1112,-6.06704 11.07789,-8.09087 23.90313,-7.88181 36.84479,-7.11977 19.19607,6.16501 7.68538,36.91617 -10.50165,37.55677 -4.33491,36.53018 -26.05812,35.38574 -46.99046,35.95482 h -81.16534 c -20.58667,21.12792 -40.88545,47.11121 -63.18793,60.51802 -24.91688,-17.95985 -42.40034,-40.75664 -61.91571,-62.31749 H 327.19053 c -12.7177,-0.34422 -12.98797,-9.30588 -13.70554,-17.95788 v -35.59883 c 1.252,-16.10993 16.83203,-13.48598 25.09717,-13.70555 7.66732,-0.0192 12.76801,-0.26137 22.42727,7.11976 h 50.37234 c -13.18411,-27.9723 -24.00526,-55.60704 -24.02921,-81.69932 z"
       style="fill:#29a8a7;fill-opacity:1;stroke:#000000;stroke-width:0;stroke-linecap:butt;stroke-linejoin:miter;stroke-miterlimit:4;stroke-dasharray:none;stroke-opacity:1" />
    <path
       style="fill:#181f26;fill-opacity:1;stroke:#000000;stroke-width:0;stroke-linecap:butt;stroke-linejoin:miter;stroke-miterlimit:4;stroke-dasharray:none;stroke-opacity:1"
       d="m 510.54708,592.8827 c 54.77208,-43.74755 95.5427,-110.53439 115.84025,-192.42658 -39.26987,-29.55603 -77.13623,-46.48042 -114.34197,-57.45915 -50.41101,14.19469 -86.88613,34.66053 -116.65227,58.14541 18.20329,91.66284 64.20956,145.09657 115.15399,191.74032 z"
       id="path860"
       inkscape:connector-curvature="0"
       sodipodi:nodetypes="ccccc" />
    <path
       sodipodi:nodetypes="ccccc"
       inkscape:connector-curvature="0"
       id="path812"
       d="M 510.57556,581.5236 C 560.80206,541.40669 598.1891,480.16254 616.80214,405.06664 580.7913,377.96349 546.0675,362.44367 511.94949,352.37607 c -46.22736,13.01667 -79.67538,31.78403 -106.97121,53.31988 16.69258,84.05567 58.88076,133.0549 105.59728,175.82765 z"
       style="fill:#29a8a7;fill-opacity:1;stroke:#000000;stroke-width:0;stroke-linecap:butt;stroke-linejoin:miter;stroke-miterlimit:4;stroke-dasharray:none;stroke-opacity:1" />
    <path
       style="fill:#29a8a7;fill-opacity:1;stroke:#181f26;stroke-width:2.5;stroke-linecap:butt;stroke-linejoin:miter;stroke-miterlimit:4;stroke-dasharray:none;stroke-opacity:1"
       d="m 510.61156,565.25505 c 44.48075,-35.52767 77.59084,-89.76569 94.07461,-156.27088 -31.89132,-24.00264 -62.64284,-37.74704 -92.85785,-46.66295 -40.93912,11.52761 -70.56079,28.14805 -94.73407,47.22027 14.783,74.43998 52.14499,117.83387 93.51731,155.71356 z"
       id="path814"
       inkscape:connector-curvature="0"
       sodipodi:nodetypes="ccccc" />
    <path
       sodipodi:nodetypes="ccccccc"
       inkscape:connector-curvature="0"
       id="path816"
       d="m 510.99262,473.53496 -73.41637,-25.17217 -8.55854,-31.71695 84.07507,-29.70316 78.53719,28.69628 -7.29993,32.72383 z"
       style="fill:#78c7df;fill-opacity:1;stroke:#181f26;stroke-width:3;stroke-linecap:butt;stroke-linejoin:miter;stroke-miterlimit:4;stroke-dasharray:none;stroke-opacity:1" />
    <path
       sodipodi:nodetypes="ccccccccsc"
       inkscape:connector-curvature="0"
       id="path832"
       d="m 482.22345,392.08324 c -0.34484,-4.24159 -1.20237,-8.05595 0.35599,-13.88354 4.1945,-8.44504 50.84398,-10.00297 56.24616,1.24595 0.77378,3.58312 0.90231,7.2953 0,11.21364 5.16136,1.38538 9.65574,2.85418 8.29074,13.5447 -0.2288,5.64813 -1.76395,10.75194 -9.96104,13.07994 -8.32595,2.30775 -17.89285,2.54723 -27.16476,3.27838 -10.86098,-0.28799 -21.9201,-0.42738 -29.09517,-3.47981 -3.38154,-1.87681 -4.26251,-5.18808 -5.05577,-7.52385 -3.02264,-8.90013 -1.19942,-18.32844 6.38385,-17.47541 z"
       style="fill:#78c7df;fill-opacity:1;stroke:#181f26;stroke-width:0;stroke-linecap:butt;stroke-linejoin:miter;stroke-miterlimit:4;stroke-dasharray:none;stroke-opacity:1" />
    <path
       sodipodi:nodetypes="cccccccccccccccccc"
       inkscape:connector-curvature="0"
       id="path824"
       d="m 542.02949,401.42793 -26.96611,9.78968 c 1.74301,3.97282 7.70392,6.10031 14.77351,7.74275 l -10.59065,10.05667 17.35443,-0.44499 -4.36086,4.62785 17.97741,-0.17799 -3.20389,4.98383 8.63272,-0.71197 c -2.7159,3.23338 -7.15234,6.31034 -12.47252,9.30697 l 11.5792,-0.37758 -11.07576,8.43268 13.46712,1.76205 22.15151,-9.56542 0.75517,-11.5792 7.80337,-13.59298 -12.08264,-6.04132 z"
       style="fill:#29a8a7;fill-opacity:1;stroke:#000000;stroke-width:0;stroke-linecap:butt;stroke-linejoin:miter;stroke-miterlimit:4;stroke-dasharray:none;stroke-opacity:1" />
    <path
       sodipodi:nodetypes="ccccccccccccccccc"
       inkscape:connector-curvature="0"
       id="path822"
       d="m 475.99366,404.72083 30.79299,5.8738 c -4.34181,7.51524 -11.90795,4.99924 -18.15541,6.58579 l 13.34957,11.39162 -19.04538,-1.42395 7.47575,6.76378 -28.7955,-4.42822 13.84399,8.1661 -12.81558,-0.178 12.81558,7.83175 -12.1036,1.06796 16.19747,7.83174 -19.04538,1.24596 -17.44342,-8.18773 -6.05181,-19.04537 -0.35598,-9.43369 z"
       style="fill:#29a8a7;fill-opacity:1;stroke:#000000;stroke-width:0;stroke-linecap:butt;stroke-linejoin:miter;stroke-miterlimit:4;stroke-dasharray:none;stroke-opacity:1" />
    <path
       sodipodi:nodetypes="cccccccccccccccccccccc"
       inkscape:connector-curvature="0"
       id="path818"
       d="m 437.57625,448.36279 32.47211,11.45334 -18.24983,-10.19473 17.74638,2.64307 -21.89979,-11.32748 15.60675,1.25861 -17.87225,-9.94301 10.57232,-0.12586 -15.60675,-9.3137 21.27049,6.67062 -0.37759,-3.27238 19.88602,4.02755 -11.07575,-8.6844 24.03942,5.28616 -21.14462,-10.57232 1.38447,-2.64308 c 8.99513,-0.16467 15.77141,0.52406 28.72114,-1.16161 -7.85365,-1.59629 -15.22002,-3.58239 -19.75735,-7.83174 l 4.09386,0.089 -8.8997,-5.51782 -49.46787,17.44283 z"
       style="fill:#181f26;fill-opacity:1;stroke:#000000;stroke-width:0;stroke-linecap:butt;stroke-linejoin:miter;stroke-miterlimit:4;stroke-dasharray:none;stroke-opacity:1" />
    <path
       sodipodi:nodetypes="ccccsscccccccsccccccccsccscssccssccccscccsscscsccccsccsscccccccccccccccccsccsccccccccscccccccccscscccccccccccsccsccsccscscscccssccssccscccsccccsccssccsccscssccssccccsccccsccssccccssccscccsccssscscscsccsccccccccscsccccccssccsscccccccccccccccccccccccccscsccccscscccccscccccccssccccccscscccccccccccccscccccccccccccccccccccccccscccssscscssccccccccccccccccccccccccsccsccccc"
       inkscape:connector-curvature="0"
       id="path914"
       d="m 532.68488,388.2563 c -0.10779,0.21549 -0.0421,0.13109 -0.17799,0.26699 -0.0297,0.0297 -0.0541,0.0657 -0.089,0.089 -0.0552,0.0368 -0.12279,0.0522 -0.17799,0.089 -0.0349,0.0233 -0.0593,0.0593 -0.089,0.089 -0.089,0.089 -0.17799,0.178 -0.26699,0.267 -0.0297,0.0297 -0.0541,0.0657 -0.089,0.089 -0.0552,0.0368 -0.12279,0.0522 -0.17799,0.089 -0.0698,0.0465 -0.1029,0.14049 -0.178,0.17799 -0.0839,0.042 -0.17989,0.0542 -0.26699,0.089 -0.3069,0.1228 -0.0514,0.0796 -0.44498,0.178 -0.31069,0.0777 0.28487,-0.18693 -0.26699,0.089 -0.0282,0.009 -0.0625,-0.0133 -0.089,0 -0.0957,0.0478 -0.18139,0.1138 -0.26699,0.178 -0.0336,0.0252 -0.0492,0.0757 -0.089,0.089 -0.0563,0.0188 -0.11979,-0.0116 -0.17799,0 -0.092,0.0184 -0.175,0.0706 -0.267,0.089 -0.40718,0.081 0.0572,-0.11759 -0.35598,0.089 -0.0281,0.009 -0.0625,-0.0133 -0.089,0 -0.0957,0.0478 -0.17129,0.13019 -0.26699,0.17799 -0.0265,0.0133 -0.0609,-0.009 -0.089,0 -0.0629,0.021 -0.11369,0.0729 -0.17799,0.089 -0.0922,0.0231 -0.25394,0 -0.35599,0 h -0.88997 -0.71198 -0.17799 c -0.0593,0 -0.1217,0.0188 -0.178,0 -0.32992,-0.11 0.10849,-0.089 -0.17799,-0.089 h -0.97897 c -0.0211,0 -0.33609,0.01 -0.35599,0 -0.0375,-0.0188 -0.0492,-0.0757 -0.089,-0.089 -0.0563,-0.0188 -0.11869,0 -0.17799,0 h -0.62298 c -0.089,0 -0.18259,0.0281 -0.26699,0 -0.0796,-0.0265 -0.10299,-0.1405 -0.17799,-0.178 -0.0839,-0.042 -0.1799,-0.0542 -0.267,-0.089 -0.0616,-0.0246 -0.11509,-0.068 -0.17799,-0.089 -0.0516,-0.0172 -0.27889,0 -0.35599,0 -0.28648,0 0.15193,0.021 -0.17799,-0.089 -0.0563,-0.0188 -0.1187,0 -0.178,0 -0.0297,-0.0297 -0.0515,-0.0702 -0.089,-0.089 -0.0265,-0.0133 -0.0593,0 -0.089,0 -0.068,0 -0.59798,0.0125 -0.62298,0 -0.075,-0.0375 -0.10299,-0.14049 -0.17799,-0.17799 -0.0265,-0.0133 -0.0593,0 -0.089,0 h -0.089 -0.62298 c -0.0593,0 -0.12169,0.0188 -0.17799,0 -0.0398,-0.0133 -0.0483,-0.0788 -0.089,-0.089 -0.0863,-0.0216 -0.17969,0.0175 -0.26699,0 -0.065,-0.013 -0.11359,-0.0729 -0.17799,-0.089 -0.0863,-0.0216 -0.178,0 -0.267,0 h -0.62298 -0.71197 -0.089 c -0.0297,0 -0.089,-0.0297 -0.089,0 0,0.0297 0.0625,0.0133 0.089,0 0.0751,-0.0375 0.10819,-0.13149 0.17799,-0.17799 0.0552,-0.0368 0.1228,-0.0522 0.178,-0.089 0.0698,-0.0465 0.0984,-0.15149 0.17799,-0.17799 0.0563,-0.0188 0.1217,0.0188 0.178,0 0.0796,-0.0265 0.10299,-0.1405 0.17799,-0.178 0.0839,-0.042 0.18309,-0.0471 0.26699,-0.089 0.0475,-0.0238 0.22009,-0.22019 0.26699,-0.26699 l 0.53399,-0.53399 c 0.10182,-0.10179 0.10535,-0.12409 0.26699,-0.17799 0.26499,-0.0883 -0.18261,0.21073 0.26699,-0.089 0.10472,-0.0698 0.14654,-0.21639 0.26699,-0.26699 0.0247,-0.0165 0.0609,0.009 0.089,0 0.0629,-0.021 0.11509,-0.068 0.17799,-0.089 0.26499,-0.0883 -0.1826,0.21073 0.26699,-0.089 0.0803,-0.0535 0.30409,-0.33869 0.35599,-0.35599 0.0563,-0.0188 0.1204,0.0144 0.178,0 0.0643,-0.0161 0.11869,-0.0593 0.17799,-0.089 0.0593,-0.0297 0.12279,-0.0522 0.17799,-0.089 0.0698,-0.0465 0.1082,-0.13149 0.178,-0.17799 0.0552,-0.0368 0.11869,-0.0593 0.17799,-0.089 0.0593,-0.0297 0.1151,-0.068 0.178,-0.089 0.0282,-0.009 0.0625,0.0133 0.089,0 0.0375,-0.0188 0.0515,-0.0702 0.089,-0.089 0.0265,-0.0133 0.0643,0.0165 0.089,0 0.0698,-0.0465 0.11089,-0.12769 0.17799,-0.17799 0.0531,-0.0398 0.1228,-0.0522 0.178,-0.089 0.0349,-0.0233 0.0492,-0.0757 0.089,-0.089 0.0563,-0.0188 0.1217,0.0188 0.178,0 0.0398,-0.0133 0.0593,-0.0593 0.089,-0.089 0.0593,-0.0593 0.1082,-0.13149 0.178,-0.17799 0.0247,-0.0165 0.0609,0.009 0.089,0 0.35555,-0.11849 4.3e-4,-0.0595 0.35598,-0.17799 0.0281,-0.009 0.0625,0.0133 0.089,0 0.0876,-0.0438 0.18039,-0.2324 0.26699,-0.267 0.11357,-0.0454 0.24242,-0.0436 0.35599,-0.089 0.0677,-0.0271 0.26729,-0.29689 0.35599,-0.35599 0.0552,-0.0368 0.12489,-0.0492 0.17799,-0.089 0.16613,-0.12459 0.27886,-0.32039 0.44499,-0.44498 0.0856,-0.0642 0.19139,-0.1024 0.26699,-0.178 0.0756,-0.0756 0.11869,-0.17799 0.17799,-0.26699 0.0593,-0.0593 0.1187,-0.11869 0.178,-0.17799 0.15463,-0.15463 0.36138,-0.325 0.44498,-0.53399 0.022,-0.0551 -0.0188,-0.12169 0,-0.17799 0.0133,-0.0398 0.0702,-0.0515 0.089,-0.089 0.0133,-0.0265 -0.0133,-0.0625 0,-0.089 0.0188,-0.0375 0.0757,-0.0492 0.089,-0.089 0.0188,-0.0563 -0.0188,-0.1217 0,-0.178 0.0133,-0.0398 0.0702,-0.0515 0.089,-0.089 0.0235,-0.047 -0.0258,-0.22829 0,-0.26699 0.0465,-0.0698 0.1187,-0.1187 0.178,-0.178 0,-0.0297 -0.0133,-0.0625 0,-0.089 0.0188,-0.0375 0.0788,-0.0483 0.089,-0.089 0.0216,-0.0863 0,-0.17799 0,-0.26699 0,-0.0297 -0.0133,-0.0625 0,-0.089 0.0188,-0.0375 0.0757,-0.0492 0.089,-0.089 0.0188,-0.0563 0,-0.11869 0,-0.17799 0,-0.0297 -0.0133,-0.0625 0,-0.089 0.0188,-0.0375 0.0702,-0.0515 0.089,-0.089 0.0133,-0.0265 0,-0.0593 0,-0.089 0,-0.0612 -0.0173,-0.48219 0,-0.53399 0.021,-0.0629 0.068,-0.11509 0.089,-0.17799 0.016,-0.0482 0,-0.32569 0,-0.35599 v -0.53398 -0.88997 c 0,-0.0754 0.0159,-0.30819 0,-0.35599 -0.0133,-0.0398 -0.0593,-0.0593 -0.089,-0.089 -0.0593,-0.0593 -0.14049,-0.10289 -0.17799,-0.17799 -0.0265,-0.0531 0.0188,-0.12169 0,-0.17799 -0.0201,-0.0603 -0.233,-0.199 -0.267,-0.267 -0.0133,-0.0265 0.021,-0.068 0,-0.089 -0.0469,-0.0469 -0.12279,-0.0522 -0.17799,-0.089 -0.081,-0.054 -0.18809,-0.22759 -0.26699,-0.26699 -0.0839,-0.0419 -0.18309,-0.047 -0.26699,-0.089 -0.0375,-0.0188 -0.0593,-0.0593 -0.089,-0.089 -0.11866,-0.11866 -0.23733,-0.23732 -0.35599,-0.35598 -0.0297,-0.0297 -0.0541,-0.0657 -0.089,-0.089 -0.38869,-0.25913 0.0293,0.0394 -0.35599,-0.089 -0.0398,-0.0133 -0.0593,-0.0593 -0.089,-0.089 -0.0593,-0.0593 -0.10299,-0.14049 -0.17799,-0.17799 -0.0559,-0.028 -0.30009,0.028 -0.35599,0 -0.0375,-0.0188 -0.0492,-0.0757 -0.089,-0.089 -0.051,-0.017 -0.36139,0 -0.44499,0 -0.0297,0 -0.0609,0.009 -0.089,0 -0.0629,-0.021 -0.1151,-0.068 -0.178,-0.089 -0.0762,-0.0254 -0.27748,0.0196 -0.35598,0 -0.0644,-0.0161 -0.1151,-0.068 -0.178,-0.089 -0.0281,-0.009 -0.0593,0 -0.089,0 -0.0897,0 -0.58328,0.0159 -0.62298,0 -0.0779,-0.0312 -0.10819,-0.13149 -0.17799,-0.17799 -0.0247,-0.0165 -0.0593,0 -0.089,0 h -0.26699 c -0.0593,0 -0.11979,0.0116 -0.17799,0 -0.092,-0.0184 -0.17499,-0.0706 -0.26699,-0.089 -0.0964,-0.0193 -0.52788,0 -0.62298,0 -0.0593,0 -0.1217,0.0188 -0.178,0 -0.0398,-0.0133 -0.0492,-0.0757 -0.089,-0.089 -0.0563,-0.0188 -0.1187,0 -0.178,0 -0.089,0 -0.17969,0.0174 -0.26699,0 -0.065,-0.013 -0.11299,-0.076 -0.17799,-0.089 -0.0815,-0.0163 -0.53588,0 -0.62298,0 -0.0297,0 -0.0643,0.0165 -0.089,0 -0.0698,-0.0465 -0.10299,-0.14049 -0.17799,-0.17799 -0.0531,-0.0265 -0.1187,0 -0.178,0 h -0.44498 c -0.0585,0 -0.2168,0.0167 -0.267,0 -0.0629,-0.021 -0.11359,-0.0729 -0.17799,-0.089 -0.11512,-0.0288 -0.24087,0.0288 -0.35599,0 -0.0643,-0.0161 -0.11509,-0.068 -0.17799,-0.089 -0.0281,-0.009 -0.0593,0 -0.089,0 -0.0573,0 -0.56278,0.0151 -0.62298,0 -0.0643,-0.0161 -0.11509,-0.068 -0.17799,-0.089 -0.0931,-0.031 -0.26289,0.031 -0.35599,0 -0.10147,-0.0338 -0.16769,-0.1383 -0.26699,-0.178 -0.0265,-0.0106 -0.40849,0 -0.44499,0 -0.0297,0 -0.0608,0.009 -0.089,0 -0.0629,-0.021 -0.11369,-0.0729 -0.17799,-0.089 -0.0576,-0.0144 -0.11869,0 -0.17799,0 h -0.35599 c -0.0593,0 -0.1198,0.0116 -0.178,0 -0.092,-0.0184 -0.17599,-0.0662 -0.26699,-0.089 -0.0288,-0.007 -0.0593,0 -0.089,0 -0.089,-0.0297 -0.178,-0.0593 -0.267,-0.089 -0.0576,-0.0144 -0.11869,0 -0.17799,0 h -0.44499 c -0.0593,0 -0.12169,0.0188 -0.17799,0 -0.0398,-0.0133 -0.0515,-0.0702 -0.089,-0.089 -0.0199,-0.01 -0.33488,0 -0.35598,0 h -0.71198 -1.95794 -1.77994 -0.71198 c -0.0211,0 -0.33608,-0.01 -0.35598,0 -0.0375,0.0188 -0.0492,0.0757 -0.089,0.089 -0.0432,0.0144 -0.53208,0 -0.62298,0 h -1.15696 c -0.053,0 -0.50059,-0.0167 -0.53399,0 -0.075,0.0375 -0.10819,0.1315 -0.17799,0.178 -0.0247,0.0165 -0.0593,0 -0.089,0 h -0.089 -0.62298 c -0.24679,0 0.14206,-0.0133 -0.26699,0.089 -0.0576,0.0144 -0.1187,0 -0.178,0 -0.13365,0 -0.32705,-0.0236 -0.44498,0 -0.0651,0.013 -0.1151,0.068 -0.178,0.089 -0.0281,0.009 -0.0593,0 -0.089,0 -0.0728,0 -0.57787,-0.015 -0.62297,0 -0.0398,0.0133 -0.0515,0.0702 -0.089,0.089 -0.0531,0.0265 -0.1286,-0.0329 -0.178,0 -0.0698,0.0465 -0.10819,0.13149 -0.17799,0.17799 -0.0494,0.0329 -0.12039,-0.0144 -0.17799,0 -0.091,0.0228 -0.176,0.0662 -0.267,0.089 -0.0919,0.023 -0.27158,-0.0281 -0.35598,0 -0.0629,0.021 -0.1151,0.068 -0.178,0.089 -0.0563,0.0188 -0.11869,0 -0.17799,0 h -0.44499 -0.17799 c -0.0297,0 -0.0625,-0.0133 -0.089,0 -0.0375,0.0188 -0.0515,0.0702 -0.089,0.089 -0.057,0.0285 -0.47868,-0.0276 -0.53398,0 -0.0751,0.0375 -0.10289,0.1405 -0.17799,0.178 -0.0472,0.0236 -0.38449,-0.0202 -0.44499,0 -0.0398,0.0133 -0.0515,0.0702 -0.089,0.089 -0.0265,0.0133 -0.0593,0 -0.089,0 h -0.089 c -0.0728,0 -0.57788,-0.015 -0.62298,0 -0.0398,0.0133 -0.0515,0.0702 -0.089,0.089 -0.0265,0.0133 -0.0593,0 -0.089,0 h -0.089 c -0.0603,0 -0.58248,-0.0135 -0.62298,0 -0.0398,0.0133 -0.0515,0.0702 -0.089,0.089 -0.0514,0.0257 -0.40838,-0.0244 -0.44498,0 -0.0698,0.0465 -0.1029,0.14049 -0.178,0.17799 -0.0712,0.0356 -0.19579,-0.0356 -0.26699,0 -0.0375,0.0188 -0.0483,0.0788 -0.089,0.089 -0.0863,0.0216 -0.178,0 -0.267,0 -0.0593,0.0297 -0.11509,0.068 -0.17799,0.089 -0.0563,0.0188 -0.12169,-0.0188 -0.17799,0 -0.5334,0.17779 0.22353,-0.0228 -0.35599,0.26699 -0.0531,0.0265 -0.1217,-0.0188 -0.178,0 -0.0398,0.0133 -0.0515,0.0702 -0.089,0.089 -0.0531,0.0265 -0.1204,-0.0144 -0.178,0 -0.74077,0.18499 0.10743,-0.006 -0.44498,0.17799 -0.0281,0.009 -0.0625,-0.0133 -0.089,0 -0.40731,0.20369 0.37765,-0.0369 -0.26699,0.17799 -0.0282,0.009 -0.0609,-0.009 -0.089,0 -0.0629,0.021 -0.11509,0.068 -0.17799,0.089 -0.0281,0.009 -0.0625,-0.0133 -0.089,0 -0.0375,0.0188 -0.0515,0.0702 -0.089,0.089 -0.0265,0.0133 -0.0625,-0.0133 -0.089,0 -0.1068,0.0534 -0.1602,0.21359 -0.267,0.26699 -0.0265,0.0133 -0.0625,-0.0133 -0.089,0 -0.0375,0.0188 -0.0515,0.0702 -0.089,0.089 -0.0265,0.0133 -0.0625,-0.0133 -0.089,0 -0.0375,0.0188 -0.0593,0.0593 -0.089,0.089 l -0.089,0.089 -0.35599,0.35599 c -0.0297,0.0297 -0.0515,0.0702 -0.089,0.089 -0.0531,0.0265 -0.13609,-0.042 -0.17799,0 -0.10839,0.10839 -0.0417,0.19879 -0.17799,0.26699 -0.0265,0.0133 -0.0625,-0.0133 -0.089,0 -0.0375,0.0188 -0.0593,0.0593 -0.089,0.089 -0.0297,0.0297 -0.0657,0.0541 -0.089,0.089 -0.0368,0.0552 -0.0593,0.1187 -0.089,0.178 -0.0297,0.0593 -0.068,0.11509 -0.089,0.17799 -0.009,0.0281 0.0133,0.0625 0,0.089 -0.0188,0.0375 -0.0657,0.0541 -0.089,0.089 -0.0368,0.0552 -0.0492,0.1249 -0.089,0.178 -0.0503,0.0671 -0.1315,0.10819 -0.178,0.17799 -0.0165,0.0247 0,0.0593 0,0.089 0,0.0374 -0.0132,0.50748 0,0.53398 0.0188,0.0375 0.0702,0.0515 0.089,0.089 0.0236,0.0472 -0.0202,0.38448 0,0.44498 0.0265,0.0796 0.14049,0.1029 0.17799,0.178 0.042,0.0839 0.047,0.18309 0.089,0.26699 0.0238,0.0475 0.22009,0.22019 0.26699,0.26699 l 0.53398,0.53398 0.62298,0.62298 c 0.0695,0.0695 0.21579,0.19019 0.26699,0.26699 0.0368,0.0552 0.0522,0.1228 0.089,0.178 0.0465,0.0698 0.1405,0.10299 0.178,0.17799 0.0133,0.0265 -0.0133,0.0625 0,0.089 0.0534,0.1068 0.21359,0.1602 0.26699,0.26699 0.0133,0.0265 -0.0165,0.0643 0,0.089 0.15397,0.23099 0.15901,0.13567 0.35599,0.26699 0.0349,0.0233 0.0593,0.0593 0.089,0.089 0.0297,0.0297 0.0702,0.0515 0.089,0.089 0.0133,0.0265 -0.021,0.068 0,0.089 0.006,0.006 0.33939,0.1669 0.35599,0.178 0.081,0.054 0.18809,0.22759 0.26699,0.26699 0.095,0.0475 0.083,-0.0475 0.17799,0 0.0375,0.0188 0.0515,0.0702 0.089,0.089 0.0265,0.0133 0.0609,-0.009 0.089,0 0.0629,0.021 0.11509,0.068 0.17799,0.089 0.0281,0.009 0.0625,-0.0133 0.089,0 0.1068,0.0534 0.16019,0.21359 0.26699,0.26699 0.0265,0.0133 0.0608,-0.009 0.089,0 0.0629,0.021 0.11509,0.068 0.17799,0.089 0.0563,0.0188 0.1249,-0.0265 0.178,0 0.0375,0.0188 0.0515,0.0702 0.089,0.089 0.0265,0.0133 0.0625,-0.0133 0.089,0 0.0375,0.0188 0.0593,0.0593 0.089,0.089 0.0593,0.0593 0.10819,0.1315 0.17799,0.178 0.0247,0.0165 0.0609,-0.009 0.089,0 0.0629,0.021 0.11509,0.068 0.17799,0.089 0.0281,0.009 0.0625,-0.0133 0.089,0 0.0751,0.0375 0.10289,0.1405 0.17799,0.178 0.0265,0.0133 0.0593,0 0.089,0 l 0.17799,0.17799 c 0.0494,0.0329 0.1217,-0.0188 0.178,0 0.0629,0.021 0.11509,0.068 0.17799,0.089 0.0563,0.0188 0.1204,-0.0144 0.178,0 0.091,0.0227 0.17599,0.0662 0.26699,0.089 0.082,0.0205 0.18699,-0.0267 0.26699,0 0.0629,0.021 0.11509,0.068 0.17799,0.089 0.0281,0.009 0.0593,0 0.089,0 0.11866,0.0593 0.23733,0.1187 0.35599,0.178 0.0275,0.011 0.0608,-0.009 0.089,0 0.0629,0.021 0.11369,0.0729 0.17799,0.089 0.0576,0.0144 0.12169,-0.0188 0.17799,0 0.0398,0.0133 0.0515,0.0702 0.089,0.089 0.0564,0.0282 0.38719,-0.0289 0.44499,0 0.0375,0.0188 0.0515,0.0702 0.089,0.089 0.0531,0.0265 0.1286,-0.0329 0.178,0 0.0698,0.0465 0.10009,0.14679 0.17799,0.17799 0.39559,0.15822 0.14503,-0.0527 0.35599,0 0.091,0.0228 0.17989,0.0542 0.26699,0.089 0.0616,0.0246 0.1136,0.0729 0.178,0.089 0.0576,0.0144 0.11979,-0.0116 0.17799,0 0.75657,0.15131 -0.25357,0.004 0.53398,0.26699 0.0362,0.0121 0.49329,-0.0204 0.53399,0 0.0375,0.0188 0.0471,0.089 0.089,0.089 0.0297,0 0.0297,-0.089 0,-0.089 -0.0297,0 0,0.0593 0,0.089 v 0.089 0.53399 c 0,0.089 0.0281,0.18259 0,0.26699 -0.0133,0.0398 -0.0593,0.0593 -0.089,0.089 l -0.089,0.089 c -0.003,0.003 -0.31999,0.33799 -0.35599,0.35599 -0.0265,0.0133 -0.0625,-0.0133 -0.089,0 -0.075,0.0375 -0.10819,0.13149 -0.17799,0.17799 -0.0552,0.0368 -0.1187,0.0593 -0.178,0.089 -0.11866,0.0593 -0.2328,0.12869 -0.35598,0.17799 -0.0871,0.0348 -0.1866,0.0407 -0.267,0.089 -0.0719,0.0432 -0.10599,0.1348 -0.17799,0.178 -0.0804,0.0483 -0.18309,0.0471 -0.26699,0.089 -0.40731,0.2037 0.37765,-0.0369 -0.26699,0.178 -0.0281,0.009 -0.0643,-0.0165 -0.089,0 -0.0698,0.0465 -0.11869,0.11869 -0.17799,0.17799 -0.0297,0 -0.0625,-0.0133 -0.089,0 -0.0375,0.0188 -0.0492,0.0757 -0.089,0.089 -0.0563,0.0188 -0.12169,-0.0188 -0.17799,0 -0.0398,0.0133 -0.0515,0.0702 -0.089,0.089 -0.0265,0.0133 -0.0593,0 -0.089,0 -0.0593,0.0297 -0.11869,0.0593 -0.17799,0.089 -0.20369,0.1358 0.0556,0.0705 -0.26699,0.178 -0.0281,0.009 -0.0609,-0.009 -0.089,0 -0.12586,0.0419 -0.23013,0.13609 -0.35599,0.17799 -0.0563,0.0188 -0.12489,-0.0265 -0.17799,0 -0.26699,0.1335 0.17799,0.089 -0.26699,0.26699 -0.0304,0.0122 -0.39679,-0.0241 -0.44499,0 -0.0375,0.0188 -0.0492,0.0757 -0.089,0.089 -0.0506,0.0169 -0.36119,0 -0.44499,0 h -0.88997 -3.0259 -0.97897 c -0.0581,0 -0.28589,0.0175 -0.35599,0 -0.20472,-0.0512 -0.40846,-0.16599 -0.62298,-0.17799 l -8.45472,-10.23467 c 4.50893,-10.72342 53.67984,-8.29185 54.46621,-0.089 z"
       style="fill:#29a8a7;fill-opacity:1;stroke:#000000;stroke-width:0;stroke-linecap:butt;stroke-linejoin:miter;stroke-miterlimit:4;stroke-dasharray:none;stroke-opacity:1" />
    <path
       sodipodi:nodetypes="cccccccccccc"
       inkscape:connector-curvature="0"
       id="path842"
       d="m 491.89322,400.89395 c 3.55035,-2.34076 8.2602,-4.15188 13.36013,-5.78481 l 1.50302,-2.9369 -2.33802,-2.13593 1.87794,-3.0307 c -24.33768,-7.38758 -3.85296,-14.01569 4.88562,-11.29783 20.36812,-0.57782 15.95919,8.5836 3.00488,11.09437 l 2.00517,4.39112 -2.42153,1.42395 1.00202,2.22493 c 4.49253,1.7765 9.27054,3.46606 12.27461,5.69582 -3.2499,4.04568 -27.56521,4.59917 -35.15384,0.35598 z"
       style="fill:#fdfdfd;fill-opacity:1;stroke:#000000;stroke-width:0;stroke-linecap:butt;stroke-linejoin:miter;stroke-miterlimit:4;stroke-dasharray:none;stroke-opacity:1" />
    <path
       inkscape:connector-curvature="0"
       id="path916"
       d="m 488.18626,386.03144 4.18286,5.07283 c 0.30547,0.25456 0.43588,0.47313 0.80098,0.53398 0.0878,0.0146 0.17972,-0.0174 0.26699,0 0.065,0.013 0.11364,0.0729 0.17799,0.089 0.11512,0.0288 0.24087,-0.0288 0.35599,0 0.0644,0.0161 0.11364,0.0729 0.178,0.089 0.0576,0.0144 0.11866,0 0.17799,0 0.0297,0 0.0643,-0.0165 0.089,0 0.0698,0.0465 0.10818,0.13145 0.17799,0.17799 0.0246,0.0164 0.4969,0 0.53398,0 0.20766,0 0.41532,0 0.62298,0 0.089,0 0.18256,0.0281 0.26699,0 0.0398,-0.0133 0.0515,-0.0702 0.089,-0.089 0.0265,-0.0133 0.0625,0.0133 0.089,0 0.0375,-0.0188 0.0492,-0.0757 0.089,-0.089 0.0563,-0.0188 0.1217,0.0188 0.17799,0 0.0398,-0.0133 0.0492,-0.0757 0.089,-0.089 0.0563,-0.0188 0.1217,0.0188 0.17799,0 0.0603,-0.0201 0.19901,-0.233 0.26699,-0.26699 0.0265,-0.0133 0.0625,0.0133 0.089,0 0.0375,-0.0188 0.0541,-0.0657 0.089,-0.089 0.0552,-0.0368 0.1228,-0.0522 0.17799,-0.089 0.0585,-0.039 0.21882,-0.25093 0.26699,-0.26699 0.0563,-0.0188 0.12171,0.0188 0.178,0 0.0796,-0.0265 0.0984,-0.15146 0.17799,-0.17799 0.0563,-0.0188 0.12291,0.022 0.17799,0 0.0993,-0.0397 0.17133,-0.13016 0.267,-0.178 0.0839,-0.0419 0.17598,-0.0662 0.26699,-0.089 0.0288,-0.007 0.0625,0.0133 0.089,0 0.0375,-0.0188 0.0492,-0.0757 0.089,-0.089 0.0563,-0.0188 0.12043,0.0144 0.17799,0 0.0644,-0.0161 0.11507,-0.068 0.178,-0.089 0.13349,-0.0445 0.089,0.089 0.26699,0 0.0751,-0.0375 0.10818,-0.13145 0.17799,-0.17799 0.0247,-0.0165 0.0593,0 0.089,0 0.089,0 0.18065,0.0216 0.26699,0 0.0407,-0.0102 0.0483,-0.0788 0.089,-0.089 0.0863,-0.0216 0.17799,0 0.26699,0 0.0593,0 0.12171,0.0188 0.178,0 0.0398,-0.0133 0.0483,-0.0788 0.089,-0.089 0.11512,-0.0288 0.24087,0.0288 0.35599,0 0.091,-0.0228 0.17598,-0.0662 0.26699,-0.089 0.3034,-0.0758 -0.32048,0.24923 0.35599,-0.089 0.31973,-0.15986 -0.31841,-0.0656 0.35599,-0.17799 0.0878,-0.0146 0.18065,0.0216 0.26699,0 0.0407,-0.0102 0.0541,-0.0657 0.089,-0.089 0.0552,-0.0368 0.11506,-0.068 0.17799,-0.089 0.0563,-0.0188 0.12493,0.0265 0.178,0 0.10679,-0.0534 0.16019,-0.21359 0.26699,-0.26699 0.0265,-0.0133 0.0625,0.0133 0.089,0 0.0318,-0.0159 0.33132,-0.31898 0.35599,-0.35599 0.0368,-0.0552 0.0522,-0.1228 0.089,-0.17799 0.0465,-0.0698 0.14047,-0.10295 0.17799,-0.178 0.0133,-0.0265 -0.0133,-0.0625 0,-0.089 0.0188,-0.0375 0.0702,-0.0515 0.089,-0.089 0.028,-0.0559 -0.028,-0.30005 0,-0.35599 0.0188,-0.0375 0.0702,-0.0515 0.089,-0.089 0.0133,-0.0265 -0.007,-0.0602 0,-0.089 0.0228,-0.091 0.047,-0.18309 0.089,-0.26699 0.0188,-0.0375 0.0702,-0.0515 0.089,-0.089 0.0133,-0.0265 -0.009,-0.0609 0,-0.089 0.021,-0.0629 0.068,-0.11506 0.089,-0.17799 0.009,-0.0281 -0.0133,-0.0625 0,-0.089 0.0188,-0.0375 0.0593,-0.0593 0.089,-0.089 0.0297,-0.0297 0.0515,-0.0702 0.089,-0.089 0.0265,-0.0133 0.068,0.021 0.089,0 0.021,-0.021 -0.021,-0.068 0,-0.089 0.042,-0.0419 0.12493,0.0265 0.17799,0 0.0375,-0.0188 0.0515,-0.0702 0.089,-0.089 0.0265,-0.0133 0.0609,0.009 0.089,0 0.0629,-0.021 0.11364,-0.0729 0.17799,-0.089 0.0576,-0.0144 0.11867,0 0.178,0 0.17799,0 0.35598,0 0.53398,0 0.35599,0 0.71198,0 1.06796,0 0.38566,0 0.77131,0 1.15697,0 0.14832,0 0.29953,0.0291 0.44498,0 0.065,-0.013 0.11295,-0.076 0.178,-0.089 0.0873,-0.0175 0.17799,0 0.26699,0 0.20766,0 0.41532,0 0.62298,0 0.50431,0 1.00863,0 1.51295,0 0.35599,0 0.71197,0 1.06796,0 0.0593,0 0.11866,0 0.178,0 0.0593,0 0.12492,-0.0265 0.17799,0 0.075,0.0375 0.10295,0.14047 0.17799,0.17799 0.0531,0.0265 0.11867,0 0.178,0 0.14833,0 0.29666,0 0.44498,0 0.23733,0 0.47466,0 0.71198,0 0.089,0 0.18065,-0.0216 0.26699,0 0.0407,0.0102 0.0483,0.0788 0.089,0.089 0.0863,0.0216 0.17799,0 0.26699,0 0.10641,0 0.4759,-0.0194 0.53398,0 0.0629,0.021 0.1228,0.0522 0.178,0.089 0.0349,0.0233 0.0593,0.0593 0.089,0.089 0.0593,0.0593 0.11867,0.11867 0.178,0.178 0.0593,0.0593 0.13145,0.10818 0.17799,0.17799 0.0368,0.0552 0.0492,0.12493 0.089,0.178 0.0503,0.0671 0.11866,0.11866 0.17799,0.17799 0.0297,0.0297 0.0757,0.0492 0.089,0.089 0.0188,0.0563 0,0.11866 0,0.17799 0,0.0297 -0.0133,0.0625 0,0.089 0.0375,0.0751 0.15146,0.0984 0.17799,0.17799 0.0188,0.0563 -0.0144,0.12044 0,0.178 0.0359,0.14368 0.0875,0.17652 0.178,0.26699 0.0297,0.0297 0.0702,0.0515 0.089,0.089 0.0265,0.0531 -0.0265,0.12493 0,0.178 0.0475,0.095 0.13049,0.083 0.17799,0.17799 0.0419,0.0839 0.037,0.18894 0.089,0.26699 0.0165,0.0247 0.0625,-0.0133 0.089,0 0.0375,0.0188 0.0593,0.0593 0.089,0.089 0.0297,0.0297 0.0702,0.0515 0.089,0.089 0.14473,0.28946 0.0225,0.21169 0.17799,0.44498 0.0466,0.0698 0.14047,0.10295 0.178,0.178 0.0133,0.0265 -0.0133,0.0625 0,0.089 0.0375,0.075 0.15146,0.0984 0.17799,0.17799 0.10997,0.32992 -0.11972,0.0583 0.089,0.26699 0.0469,0.0468 0.24322,0.21946 0.26699,0.26699 0.0133,0.0265 -0.0133,0.0625 0,0.089 0.29517,0.29517 -0.0419,-0.0839 0.089,0.17799 0.0188,0.0375 0.0593,0.0593 0.089,0.089 0.0297,0.0297 0.0541,0.0657 0.089,0.089 0.0552,0.0368 0.1228,0.0522 0.17799,0.089 0.28822,0.19215 -0.037,-0.011 0.089,0.178 0.0506,0.12045 0.19718,0.16227 0.26699,0.26699 0.0368,0.0552 0.0522,0.1228 0.089,0.17799 0.0555,0.0833 0.29899,0.299 0.35599,0.35599 0.0297,0.0297 0.0593,0.0593 0.089,0.089 0.0297,0.0297 0.0515,0.0702 0.089,0.089 0.0265,0.0133 0.0593,0 0.089,0 0.0297,0.0297 0.0515,0.0702 0.089,0.089 0.0265,0.0133 0.0643,-0.0164 0.089,0 0.0698,0.0465 0.10818,0.13145 0.178,0.178 0.0247,0.0165 0.0625,-0.0133 0.089,0 0.0375,0.0188 0.0593,0.0593 0.089,0.089 0.0593,0.0297 0.11641,0.0644 0.178,0.089 0.0871,0.0348 0.17598,0.0662 0.26699,0.089 0.0288,0.007 0.0625,-0.0133 0.089,0 0.0375,0.0188 0.0593,0.0593 0.089,0.089 0.0297,0.0297 0.0702,0.0515 0.089,0.089 0.0133,0.0265 -0.0165,0.0643 0,0.089 0.0586,0.0879 0.34575,0.34575 0.44498,0.44499 0.23733,0.23732 0.47466,0.47465 0.71198,0.71197 0.057,0.057 0.30047,0.27271 0.35599,0.35599 0.19607,0.0448 0.047,0.18308 0.089,0.26699 0.0188,0.0375 0.0757,0.0492 0.089,0.089 0.0267,0.0801 -0.0267,0.18689 0,0.26699 0.021,0.0629 0.0729,0.11364 0.089,0.17799 0.005,0.0185 0.004,0.60979 0,0.62298 -0.0292,0.0875 -0.22026,0.14685 -0.26699,0.178 -0.0698,0.0465 -0.0984,0.15146 -0.17799,0.17799 -0.0192,0.006 -0.33155,-0.0163 -0.35599,0 -0.0593,0.0593 -0.11867,0.11867 -0.178,0.178 -0.0297,0 -0.0625,-0.0133 -0.089,0 -0.0375,0.0188 -0.0515,0.0702 -0.089,0.089 -0.0265,0.0133 -0.0593,0 -0.089,0 -0.089,0 -0.18065,-0.0216 -0.26699,0 -0.0407,0.0102 -0.0515,0.0702 -0.089,0.089 -0.0265,0.0133 -0.0625,-0.0133 -0.089,0 -0.0375,0.0188 -0.0492,0.0757 -0.089,0.089 -0.0563,0.0188 -0.11866,0 -0.178,0 -0.0297,0 -0.0625,-0.0133 -0.089,0 -0.068,0.034 -0.20673,0.2469 -0.26699,0.26699 -0.0563,0.0188 -0.12171,-0.0188 -0.178,0 -0.0398,0.0133 -0.0492,0.0757 -0.089,0.089 -0.0563,0.0188 -0.12044,-0.0144 -0.178,0 -0.0643,0.0161 -0.11506,0.068 -0.17799,0.089 -0.0282,0.009 -0.0609,-0.009 -0.089,0 -0.0629,0.021 -0.11866,0.0593 -0.17799,0.089 -0.0593,0.0297 -0.1228,0.0522 -0.178,0.089 -0.0349,0.0233 -0.0483,0.0788 -0.089,0.089 -0.29665,0.0742 -0.19777,-0.0494 -0.44498,0 -0.24089,-0.15125 -0.23013,0.13604 -0.35599,0.178 -0.0563,0.0188 -0.11866,0 -0.17799,0 -0.089,0 -0.178,0 -0.26699,0 -0.0297,0 -0.0643,-0.0165 -0.089,0 -0.0698,0.0465 -0.10818,0.13145 -0.178,0.17799 -0.0247,0.0165 -0.0609,-0.009 -0.089,0 -0.0629,0.021 -0.11507,0.068 -0.178,0.089 -0.0281,0.009 -0.0625,-0.0133 -0.089,0 -0.0375,0.0188 -0.0492,0.0757 -0.089,0.089 -0.0563,0.0188 -0.11866,0 -0.178,0 -0.0297,0 -0.0625,-0.0133 -0.089,0 -0.0375,0.0188 -0.0492,0.0757 -0.089,0.089 -0.0605,0.0202 -0.3978,-0.0236 -0.44499,0 -0.075,0.0375 -0.10294,0.14047 -0.17799,0.178 -0.0318,0.0159 -0.51338,0 -0.53398,0 -0.35599,0 -0.71198,0 -1.06797,0 -0.47465,0 -0.9493,0 -1.42395,0 -0.1106,0 -0.51696,0.0177 -0.62298,0 -0.0925,-0.0154 -0.17598,-0.0662 -0.26699,-0.089 -0.12714,-0.0318 -0.42263,0.0371 -0.53398,0 -0.0398,-0.0133 -0.0515,-0.0702 -0.089,-0.089 -0.0199,-0.01 -0.33484,0 -0.35599,0 -0.23732,0 -0.47465,0 -0.71198,0 -0.089,0 -0.17799,0 -0.26699,0 -0.0593,0 -0.1217,0.0188 -0.17799,0 -0.0629,-0.021 -0.11364,-0.0729 -0.178,-0.089 -0.0576,-0.0144 -0.11866,0 -0.17799,0 -0.14833,0 -0.29666,0 -0.44498,0 -0.0593,0 -0.12291,0.022 -0.178,0 -0.0993,-0.0397 -0.16552,-0.14417 -0.26699,-0.178 -0.16298,-0.0543 -0.36741,0.0416 -0.53398,0 -0.0644,-0.0161 -0.11295,-0.076 -0.178,-0.089 -0.0873,-0.0175 -0.17799,0 -0.26699,0 -0.089,0 -0.17799,0 -0.26699,0 -0.0593,0 -0.11981,0.0116 -0.17799,0 -0.092,-0.0184 -0.17989,-0.0542 -0.26699,-0.089 -0.0616,-0.0246 -0.11257,-0.0781 -0.178,-0.089 -0.11705,-0.0195 -0.23732,0 -0.35599,0 -0.11866,0 -0.23732,0 -0.35599,0 -0.0593,0 -0.1229,0.022 -0.17799,0 -0.0993,-0.0397 -0.16768,-0.13827 -0.26699,-0.17799 -0.0551,-0.022 -0.11866,0 -0.178,0 -0.089,0 -0.17799,0 -0.26699,0 -0.35598,0 -0.71197,0 -1.06796,0 -0.0871,0 -0.54144,0.0163 -0.62298,0 -0.065,-0.013 -0.11256,-0.0781 -0.178,-0.089 -0.11704,-0.0195 -0.23732,0 -0.35598,0 -0.11867,0 -0.23733,0 -0.35599,0 -0.38566,0 -0.77131,0 -1.15696,0 -0.35599,0 -0.71198,0 -1.06797,0 -0.13727,0 -0.42992,0.0208 -0.53398,0 -0.065,-0.013 -0.11641,-0.0644 -0.178,-0.089 -0.0871,-0.0348 -0.175,-0.0706 -0.26699,-0.089 -0.0582,-0.0116 -0.1229,0.022 -0.17799,0 -0.0993,-0.0397 -0.16768,-0.13827 -0.26699,-0.178 -0.0551,-0.022 -0.11982,0.0116 -0.178,0 -0.18398,-0.0368 -0.35,-0.1412 -0.53398,-0.17799 -0.11636,-0.0233 -0.23963,0.0233 -0.35599,0 -0.092,-0.0184 -0.17598,-0.0662 -0.26699,-0.089 -0.0288,-0.007 -0.0643,0.0165 -0.089,0 -0.0698,-0.0465 -0.10817,-0.13145 -0.17799,-0.17799 -0.032,-0.0213 -0.47487,0.0148 -0.53398,0 -0.0644,-0.0161 -0.11507,-0.068 -0.178,-0.089 -0.0856,-0.0285 -0.26286,0.0233 -0.35598,0 -0.091,-0.0228 -0.17599,-0.0662 -0.267,-0.089 -0.0863,-0.0216 -0.18065,0.0216 -0.26699,0 -0.27549,-0.0689 -0.10268,-0.11501 -0.35599,-0.26699 -0.0804,-0.0483 -0.17989,-0.0542 -0.26699,-0.089 -0.12318,-0.0493 -0.23404,-0.12573 -0.35599,-0.17799 -0.14683,-0.0629 -0.2954,-0.1219 -0.44498,-0.17799 -0.0878,-0.0329 -0.18308,-0.047 -0.26699,-0.089 -0.0375,-0.0188 -0.05,-0.0734 -0.089,-0.089 -0.11357,-0.0454 -0.23995,-0.0503 -0.35599,-0.089 -0.21584,-0.0719 -0.23705,-0.215 -0.44498,-0.26699 -0.0576,-0.0144 -0.12044,0.0144 -0.178,0 -0.0643,-0.0161 -0.11506,-0.068 -0.17799,-0.089 -0.0281,-0.009 -0.0625,0.0133 -0.089,0 -0.0375,-0.0188 -0.0515,-0.0702 -0.089,-0.089 -0.2619,-0.13095 0.11718,0.20617 -0.17799,-0.089"
       style="fill:#78c7df;fill-opacity:1;stroke:#000000;stroke-width:0;stroke-linecap:butt;stroke-linejoin:miter;stroke-miterlimit:4;stroke-dasharray:none;stroke-opacity:1" />
    <path
       sodipodi:nodetypes="ccccccccccccc"
       inkscape:connector-curvature="0"
       id="path840"
       d="m 482.57944,378.1997 c 4.63815,7.21306 16.35879,7.38999 23.71685,8.80591 l -15.04037,1.00688 11.5792,5.34909 -7.48873,1.57326 c 9.43927,1.77399 18.97136,3.25624 30.04065,-0.0927 l -5.60682,-2.84791 8.98871,-3.91587 -12.10361,-1.15696 c 8.09407,-1.5274 16.5714,-2.53219 22.16028,-7.47576 0.81694,4.01019 0.59992,7.67573 0,11.21364 -11.11331,11.39237 -48.08926,8.94642 -56.60215,1.42395 -0.72019,-4.81426 -1.04009,-9.53956 0.35599,-13.88353 z"
       style="fill:#181f26;fill-opacity:1;stroke:#00ff00;stroke-width:0;stroke-linecap:butt;stroke-linejoin:miter;stroke-miterlimit:4;stroke-dasharray:none;stroke-opacity:1" />
    <path
       sodipodi:nodetypes="ccccccccccccccccccccc"
       inkscape:connector-curvature="0"
       id="path820"
       d="m 584.33004,448.36279 -33.93482,11.35823 19.57936,-11.39162 -17.08744,2.49191 23.13924,-9.78967 -20.11334,1.77994 21.53729,-11.56962 h -12.2816 l 15.03419,-7.86229 -20.01802,4.83639 1.06796,-3.91588 -18.68938,4.44986 10.32366,-7.83174 -22.07128,3.91587 c 6.81987,-3.73788 16.33028,-7.47576 16.55346,-11.21364 -10.4694,1.53847 -19.30691,0.46593 -27.4111,-1.77994 4.23985,-1.44404 11.39346,-2.14717 15.84148,-7.11976 l -3.38189,-1.77995 11.92561,-4.62784 47.28655,17.32592 z"
       style="fill:#181f26;fill-opacity:1;stroke:#000000;stroke-width:0;stroke-linecap:butt;stroke-linejoin:miter;stroke-miterlimit:4;stroke-dasharray:none;stroke-opacity:1" />
    <path
       inkscape:connector-curvature="0"
       id="path830"
       d="m 481.68947,435.06883 28.74606,5.07283 32.0143,-5.56064 -31.1577,11.51232 z"
       style="fill:#fdfdfd;fill-opacity:1;stroke:#000000;stroke-width:0;stroke-linecap:butt;stroke-linejoin:miter;stroke-miterlimit:4;stroke-dasharray:none;stroke-opacity:1" />
    <path
       sodipodi:nodetypes="ccc"
       inkscape:connector-curvature="0"
       id="path826"
       d="m 429.01771,416.64584 82.31302,29.95489 c 26.72963,-10.02631 53.26825,-18.52461 80.29924,-30.96177"
       style="fill:none;stroke:#181f26;stroke-width:3;stroke-linecap:butt;stroke-linejoin:miter;stroke-miterlimit:4;stroke-dasharray:none;stroke-opacity:1" />
    <path
       sodipodi:nodetypes="cc"
       inkscape:connector-curvature="0"
       id="path828"
       d="m 510.99262,473.53496 0.33811,-26.93423"
       style="fill:none;stroke:#181f26;stroke-width:3;stroke-linecap:butt;stroke-linejoin:miter;stroke-miterlimit:4;stroke-dasharray:none;stroke-opacity:1" />
    <path
       sodipodi:nodetypes="cc"
       inkscape:connector-curvature="0"
       id="path834"
       d="m 482.57944,378.1997 c 1.91782,9.00783 41.98993,13.43081 56.24616,1.24595"
       style="fill:none;stroke:#181f26;stroke-width:3;stroke-linecap:butt;stroke-linejoin:miter;stroke-miterlimit:4;stroke-dasharray:none;stroke-opacity:1" />
    <path
       sodipodi:nodetypes="cc"
       inkscape:connector-curvature="0"
       id="path836"
       d="m 538.8256,390.65929 c -5.05748,9.6339 -49.09433,10.67179 -56.60215,1.42395"
       style="fill:none;stroke:#181f26;stroke-width:3;stroke-linecap:butt;stroke-linejoin:miter;stroke-miterlimit:4;stroke-dasharray:none;stroke-opacity:1" />
    <path
       sodipodi:nodetypes="cc"
       inkscape:connector-curvature="0"
       id="path838"
       d="m 546.03436,395.19814 c -5.12438,13.82353 -65.1342,14.6326 -70.82571,1.00689"
       style="fill:none;stroke:#181f26;stroke-width:3;stroke-linecap:butt;stroke-linejoin:miter;stroke-miterlimit:4;stroke-dasharray:none;stroke-opacity:1" />
    <path
       sodipodi:nodetypes="ccccc"
       inkscape:connector-curvature="0"
       id="path844"
       d="m 499.75152,296.82628 -0.88562,78.08052 c 1.15029,5.70206 19.58832,8.59824 24.38521,0.26699 l -1.06797,-77.69445 z"
       style="fill:#78c7df;fill-opacity:1;stroke:#181f26;stroke-width:3;stroke-linecap:butt;stroke-linejoin:miter;stroke-miterlimit:4;stroke-dasharray:none;stroke-opacity:1" />
    <ellipse
       ry="4.640831"
       rx="11.315612"
       cy="297.16785"
       cx="510.836"
       id="path848"
       style="opacity:1;fill:#fdfdfd;fill-opacity:1;stroke:#181f26;stroke-width:3;stroke-linejoin:round;stroke-miterlimit:4;stroke-dasharray:none;stroke-dashoffset:0;stroke-opacity:1" />
    <path
       inkscape:connector-curvature="0"
       id="path852"
       d="m 499.48889,353.90348 3.73787,-17.26543 1.95794,7.11976 6.67478,-24.91917 4.62785,23.13923 3.20389,-7.83174 2.31393,21.00331 -3.0259,3.64888 -10.76865,2.84791 -6.94177,-2.66991 z"
       style="fill:#29a8a7;fill-opacity:1;stroke:#000000;stroke-width:0;stroke-linecap:butt;stroke-linejoin:miter;stroke-miterlimit:4;stroke-dasharray:none;stroke-opacity:1" />
    <path
       sodipodi:nodetypes="cccccccccccc"
       inkscape:connector-curvature="0"
       id="path850"
       d="m 498.8659,374.9068 0.356,-30.615 2.66991,12.1926 2.40292,-8.18773 2.31392,7.74274 4.71685,-21.2703 4.09386,21.3593 1.86894,-7.65375 2.04694,7.38676 3.47088,-13.88355 0.44499,33.19592 c -4.67963,7.03271 -19.95016,7.04832 -24.38521,-0.26699 z"
       style="fill:#181f26;fill-opacity:1;stroke:#0000ff;stroke-width:0;stroke-linecap:butt;stroke-linejoin:miter;stroke-miterlimit:4;stroke-dasharray:none;stroke-opacity:1" />
    <path
       sodipodi:nodetypes="ccccc"
       inkscape:connector-curvature="0"
       id="path854"
       d="m 445.50548,402.2977 -0.25172,10.9499 c 4.40224,4.9759 20.90928,3.53557 21.77394,0 v -10.69817 c -0.0742,-5.6852 -19.68814,-6.50356 -21.52222,-0.25173 z"
       style="fill:#ea6020;fill-opacity:1;stroke:#181f26;stroke-width:3;stroke-linecap:butt;stroke-linejoin:miter;stroke-miterlimit:4;stroke-dasharray:none;stroke-opacity:1" />
    <path
       sodipodi:nodetypes="cc"
       inkscape:connector-curvature="0"
       id="path856"
       d="m 445.50548,402.2977 c 0.50753,4.87036 18.76144,5.81171 21.2705,0.25172"
       style="fill:none;fill-opacity:1;stroke:#181f26;stroke-width:3;stroke-linecap:butt;stroke-linejoin:miter;stroke-miterlimit:4;stroke-dasharray:none;stroke-opacity:1" />
    <path
       sodipodi:nodetypes="ccc"
       inkscape:connector-curvature="0"
       id="path858"
       d="m 452.26141,399.61634 c 5.64092,-1.50307 18.76068,0.40358 10.81669,4.17231 -0.62805,-1.83701 -4.06089,-3.61263 -10.81669,-4.17231 z"
       style="fill:#fdfdfd;fill-opacity:1;stroke:#fdfdfd;stroke-width:0;stroke-linecap:butt;stroke-linejoin:miter;stroke-miterlimit:4;stroke-dasharray:none;stroke-opacity:1" />
    <path
       sodipodi:nodetypes="ccccccccccccccccccccccccccccccccccccccccc"
       inkscape:connector-curvature="0"
       id="path908"
       d="m 320.27391,488.63827 c -0.35248,-7.40171 3.63839,-9.76512 9.18784,-10.32059 h 17.11708 c 6.03084,0.89055 9.89213,5.33127 13.34125,10.44645 3.64898,-1.8889 7.4565,-3.61926 16.36192,-0.25172 7.97197,-2.6413 17.1163,-2.6029 27.43767,0.12586 7.14109,-1.68901 14.25608,-3.49284 23.03254,2.01377 9.18555,-5.32971 17.35319,-4.35862 25.12324,-2.18496 5.41061,-3.59859 15.48022,-1.69109 24.34009,-1.21328 8.67714,-0.48868 17.95929,-2.70598 24.41701,3.14652 5.87736,-3.69362 12.85229,-4.67987 22.27738,0.37758 l 9.18784,-0.25172 c 6.3663,-17.84281 28.67544,-22.63644 45.18406,-11.45334 -1.98391,-15.87292 3.50698,-21.36419 19.63429,-12.08264 7.97121,5.91163 4.92569,24.34227 6.29305,37.75826 l 6.04132,2.51722 0.25172,-27.94112 c 0.35007,-10.32767 21.69711,-5.04381 24.66874,7.80338 1.08433,7.31828 -2.06378,20.05407 4.27927,20.64118 8.14951,1.64506 4.37727,-12.72971 5.7896,-20.13774 1.08871,-9.11827 12.29915,-14.80966 19.23679,-13.1738 8.37009,2.07755 5.2944,9.878 6.88668,15.34446 6.98987,-14.04891 20.84478,-19.8194 43.96456,-14.41753 2.31314,25.19825 -11.59508,21.10839 -19.75736,24.91918 3.03947,33.10776 -24.92356,34.88883 -44.32054,31.14898 -8.82784,2.66 -15.93651,1.63606 -22.42727,-0.71197 -21.71804,6.22766 -35.60752,2.4187 -44.24781,-8.11999 -7.73052,8.63795 -19.0457,11.62425 -29.57731,10.82403 -5.8704,9.86842 -13.56684,14.25872 -24.79459,8.0551 -0.54601,-2.43195 -0.99818,-5.07036 -0.37758,-10.06887 -8.37066,2.0466 -14.06419,0.0775 -16.7395,-6.41891 -8.7765,10.6453 -18.69224,5.09222 -24.41701,1.88792 -6.67672,6.42344 -16.87354,3.34258 -25.67562,4.02755 l -10.69818,-2.01378 c -11.06751,4.51451 -18.44186,1.64268 -25.04631,-2.76894 -13.00052,7.97223 -20.42874,4.14432 -27.86057,0.32403 -4.36982,5.39951 -9.59762,5.86568 -15.3075,3.55988 -11.24489,1.88587 -10.3632,-2.79682 -14.41752,-4.80584 -3.00046,4.27188 -7.03907,7.33258 -16.01948,4.62784 -14.26547,1.04067 -30.99492,4.7213 -32.57293,-7.83174 z"
       style="fill:#181f26;fill-opacity:1;stroke:#f400f6;stroke-width:0;stroke-linecap:butt;stroke-linejoin:miter;stroke-miterlimit:4;stroke-dasharray:none;stroke-opacity:1" />
    <path
       sodipodi:nodetypes="ccsccc"
       inkscape:connector-curvature="0"
       id="path868"
       d="m 326.47856,524.5109 v -39.7817 c 3.91631,0.0461 11.34179,-1.00758 16.76779,-0.1558 8.08872,1.26976 15.2195,8.61844 7.7954,18.4892 7.28884,6.61435 3.93453,21.77448 -5.71811,21.35814 z"
       style="fill:#ea6020;fill-opacity:1;stroke:#000000;stroke-width:0;stroke-linecap:butt;stroke-linejoin:miter;stroke-miterlimit:4;stroke-dasharray:none;stroke-opacity:1" />
    <path
       sodipodi:nodetypes="ccccc"
       inkscape:connector-curvature="0"
       id="path870"
       d="m 331.90738,519.26007 v -12.90458 h 13.52756 c 6.82854,0.54447 6.39312,12.23876 0,12.90458 z"
       style="fill:#181f26;fill-opacity:1;stroke:#000000;stroke-width:0;stroke-linecap:butt;stroke-linejoin:miter;stroke-miterlimit:4;stroke-dasharray:none;stroke-opacity:1" />
    <path
       style="fill:#181f26;fill-opacity:1;stroke:#000000;stroke-width:0;stroke-linecap:butt;stroke-linejoin:miter;stroke-miterlimit:4;stroke-dasharray:none;stroke-opacity:1"
       d="m 331.8411,500.99295 v -11.19389 h 11.73429 c 5.92332,0.47229 5.54562,10.61634 0,11.19389 z"
       id="path872"
       inkscape:connector-curvature="0"
       sodipodi:nodetypes="ccccc" />
    <path
       sodipodi:nodetypes="ccccccccc"
       inkscape:connector-curvature="0"
       id="path874"
       d="m 356.82673,521.73569 c 0.14959,2.72013 4.57742,3.68834 5.18299,0 v -5.98511 h 13.69789 v 5.6149 c -0.0506,3.46426 5.34722,4.0983 5.4298,0 v -17.58513 c -3.18543,-14.55831 -22.92047,-11.65474 -24.18728,0 z"
       style="fill:#ea6020;fill-opacity:1;stroke:#000000;stroke-width:0;stroke-linecap:butt;stroke-linejoin:miter;stroke-miterlimit:4;stroke-dasharray:none;stroke-opacity:1" />
    <path
       sodipodi:nodetypes="cccc"
       inkscape:connector-curvature="0"
       id="path876"
       d="m 362.12189,510.22687 h 13.43856 c 0.26943,-4.86679 1.19429,-10.7596 -6.36329,-11.43613 -8.01944,0.0595 -7.31993,7.27269 -7.07527,11.43613 z"
       style="fill:#181f26;fill-opacity:1;stroke:#000000;stroke-width:0;stroke-linecap:butt;stroke-linejoin:miter;stroke-miterlimit:4;stroke-dasharray:none;stroke-opacity:1" />
    <path
       sodipodi:nodetypes="ccccccccc"
       inkscape:connector-curvature="0"
       id="path878"
       d="m 382.0716,493.29512 h 16.55071 c 2.95374,0.31631 2.49822,5.85667 0,5.72667 h -6.35598 v 23.28426 c -0.93069,2.85298 -5.3121,2.35802 -5.53788,0 v -23.1584 h -4.53099 c -2.59829,-0.56904 -3.42486,-5.13342 -0.12586,-5.85253 z"
       style="fill:#ea6020;fill-opacity:1;stroke:#000000;stroke-width:0;stroke-linecap:butt;stroke-linejoin:miter;stroke-miterlimit:4;stroke-dasharray:none;stroke-opacity:1" />
    <ellipse
       ry="13.167189"
       rx="12.455213"
       cy="509.06989"
       cx="412.22726"
       id="path880"
       style="opacity:1;fill:none;fill-opacity:1;stroke:#ea6020;stroke-width:4.71999979;stroke-linejoin:round;stroke-miterlimit:4;stroke-dasharray:none;stroke-dashoffset:0;stroke-opacity:1" />
    <path
       sodipodi:nodetypes="ccccccc"
       inkscape:connector-curvature="0"
       id="path882"
       d="m 450.54049,503.2406 c -5.81318,-7.9426 -17.34596,-3.10111 -17.17644,6.0518 1.14379,9.93336 10.2253,9.67512 17.26544,5.60681 3.6592,-2.26068 7.41001,2.61048 1.60195,6.49679 -14.3747,7.90328 -23.70557,-1.9625 -24.4742,-12.2816 -0.9344,-13.61257 16.90619,-21.8448 26.96611,-9.87867 1.99937,2.82609 -1.49115,7.31593 -4.18286,4.00487 z"
       style="fill:#ea6020;fill-opacity:1;stroke:#00d200;stroke-width:0;stroke-linecap:butt;stroke-linejoin:miter;stroke-miterlimit:4;stroke-dasharray:none;stroke-opacity:1" />
    <path
       sodipodi:nodetypes="ccccccccccccccc"
       inkscape:connector-curvature="0"
       id="path884"
       d="m 456.2808,522.15248 v -25.94265 c -0.0141,-1.25374 0.11577,-2.7073 1.95794,-2.93691 h 15.61899 c 3.03813,0.74085 2.09475,5.6882 0,5.87381 h -11.79212 v 6.40779 h 9.2112 c 3.15373,0.71515 2.48105,5.28717 0,5.69581 h -9.1667 v 7.84627 h 11.71407 c 3.02005,0.54918 2.61515,5.66977 0,5.72667 h -15.60675 c -1.693,-0.01 -1.98312,-1.87418 -1.93663,-2.67079 z"
       style="fill:#ea6020;fill-opacity:1;stroke:#000000;stroke-width:0;stroke-linecap:butt;stroke-linejoin:miter;stroke-miterlimit:4;stroke-dasharray:none;stroke-opacity:1" />
    <path
       sodipodi:nodetypes="cccccccccc"
       inkscape:connector-curvature="0"
       id="path886"
       d="m 477.15062,493.62891 v 29.72503 c 0.068,1.6278 4.42419,2.96405 5.42882,0 V 512.3183 h 4.62785 l 7.29776,11.21363 c 2.31328,2.56512 5.69695,-0.87707 4.09387,-3.47088 l -4.89484,-8.09874 c 8.61678,-4.42802 6.15625,-16.55085 -1.42395,-18.2444 z"
       style="fill:#ea6020;fill-opacity:1;stroke:#000000;stroke-width:0;stroke-linecap:butt;stroke-linejoin:miter;stroke-miterlimit:4;stroke-dasharray:none;stroke-opacity:1" />
    <path
       sodipodi:nodetypes="ccccc"
       inkscape:connector-curvature="0"
       id="path888"
       d="m 482.22345,507.60145 v -9.0777 h 9.2557 c 4.03415,1.02886 4.02408,7.96368 0,9.07771 z"
       style="fill:#181f26;fill-opacity:1;stroke:#000000;stroke-width:0;stroke-linecap:butt;stroke-linejoin:miter;stroke-miterlimit:4;stroke-dasharray:none;stroke-opacity:1" />
    <path
       style="fill:#ea6020;fill-opacity:1;stroke:#000000;stroke-width:0;stroke-linecap:butt;stroke-linejoin:miter;stroke-miterlimit:4;stroke-dasharray:none;stroke-opacity:1"
       d="m 500.05642,521.73569 c 0.14959,2.72013 4.57742,3.68834 5.18299,0 v -5.98511 h 13.69789 v 5.6149 c -0.0506,3.46426 5.34722,4.0983 5.4298,0 v -17.58513 c -3.18543,-14.55831 -22.92047,-11.65474 -24.18728,0 z"
       id="path890"
       inkscape:connector-curvature="0"
       sodipodi:nodetypes="ccccccccc" />
    <path
       style="fill:#181f26;fill-opacity:1;stroke:#000000;stroke-width:0;stroke-linecap:butt;stroke-linejoin:miter;stroke-miterlimit:4;stroke-dasharray:none;stroke-opacity:1"
       d="m 505.35158,510.22687 h 13.43856 c 0.26943,-4.86679 1.19429,-10.7596 -6.36329,-11.43613 -8.01944,0.0595 -7.31993,7.27269 -7.07527,11.43613 z"
       id="path892"
       inkscape:connector-curvature="0"
       sodipodi:nodetypes="cccc" />
    <path
       sodipodi:nodetypes="ccccscc"
       inkscape:connector-curvature="0"
       id="path894"
       d="m 534.90973,537.86046 v -8.72171 c 3.23829,-0.57908 6.41444,-7.98203 1.25861,-13.80087 -4.32431,-22.9862 7.13676,-38.80316 30.06836,-34.25756 17.50174,5.69578 18.64936,19.23825 13.86781,31.94288 -5.60264,14.88629 -20.27961,15.64067 -31.31124,13.62363 -1.16965,7.74006 -7.1681,14.12276 -13.88354,11.21363 z"
       style="fill:#fdfdfd;fill-opacity:1;stroke:#005b9c;stroke-width:0;stroke-linecap:butt;stroke-linejoin:miter;stroke-miterlimit:4;stroke-dasharray:none;stroke-opacity:1" />
    <path
       sodipodi:nodetypes="ccsc"
       inkscape:connector-curvature="0"
       id="path896"
       d="m 548.45969,515.06905 c -2.80819,-11.71461 1.88069,-26.56474 16.23604,-21.39635 7.5671,3.8415 8.0099,16.16167 -3.39563,20.83579 -3.39679,1.39205 -7.41673,0.2813 -12.84041,0.56056 z"
       style="fill:#181f26;fill-opacity:1;stroke:#000000;stroke-width:0;stroke-linecap:butt;stroke-linejoin:miter;stroke-miterlimit:4;stroke-dasharray:none;stroke-opacity:1" />
    <path
       style="fill:#29a8a7;fill-opacity:1;stroke:#000000;stroke-width:0;stroke-linecap:butt;stroke-linejoin:miter;stroke-miterlimit:4;stroke-dasharray:none;stroke-opacity:1"
       d="m 554.39735,508.7615 c -1.29265,-5.39239 0.8657,-12.22809 7.47366,-9.84901 3.48323,1.76828 3.68706,7.43942 -1.56306,9.59098 -1.56358,0.64077 -3.41401,0.12949 -5.9106,0.25803 z"
       id="path898"
       inkscape:connector-curvature="0"
       sodipodi:nodetypes="ccsc" />
    <ellipse
       ry="3.8599246"
       rx="3.5704303"
       cy="522.06165"
       cx="531.01727"
       id="path900"
       style="opacity:1;fill:#ea6020;fill-opacity:1;stroke:#005b9c;stroke-width:0;stroke-linejoin:round;stroke-miterlimit:4;stroke-dasharray:none;stroke-dashoffset:0;stroke-opacity:1" />
    <path
       sodipodi:nodetypes="ccccccc"
       inkscape:connector-curvature="0"
       id="path902"
       d="m 583.68013,468.97672 v 35.77683 c 2.13116,19.67856 16.31106,24.65574 38.62473,22.07127 -1.10848,-14.94448 -12.41511,-10.25522 -19.66835,-12.90457 -4.17963,-1.04908 -6.52199,-4.01199 -6.67478,-9.2557 v -23.40623 c -0.0681,-8.32552 -6.16247,-12.52784 -12.2816,-12.2816 z"
       style="fill:#fdfdfd;fill-opacity:1;stroke:#c10000;stroke-width:0;stroke-linecap:butt;stroke-linejoin:miter;stroke-miterlimit:4;stroke-dasharray:none;stroke-opacity:1" />
    <path
       sodipodi:nodetypes="cccccccc"
       inkscape:connector-curvature="0"
       id="path904"
       d="m 615.63008,479.65637 c -0.60585,8.944 -0.58067,18.64523 0,29.01305 5.65715,21.09286 38.85795,25.99188 46.90146,0 0.94906,-10.44209 0.43198,-19.41803 0,-28.47907 -7.05396,0.18472 -11.9769,4.00479 -12.37626,10.71341 -0.19662,10.49994 1.38264,24.97242 -13.08953,24.16529 -12.50208,-3.10113 -8.15337,-15.92962 -9.81715,-25.29803 -0.46187,-5.31724 -4.7911,-10.2994 -11.61852,-10.11465 z"
       style="fill:#fdfdfd;fill-opacity:1;stroke:#000000;stroke-width:0;stroke-linecap:butt;stroke-linejoin:miter;stroke-miterlimit:4;stroke-dasharray:none;stroke-opacity:1" />
    <path
       sodipodi:nodetypes="ccccccc"
       inkscape:connector-curvature="0"
       id="path906"
       d="m 655.81902,527.27756 c 14.18089,0.56468 30.70243,-0.28587 31.71694,-16.23605 0.83745,-12.51777 1.27768,-18.62613 12.96367,-19.88602 5.77346,-1.07804 9.38428,-4.02381 7.80338,-11.45334 -11.04581,0.90457 -27.62171,-3.0026 -31.96867,15.22916 -2.42312,15.00399 1.37918,19.09006 -9.81715,19.6343 -4.6487,-0.15252 -11.4171,5.11922 -10.69817,12.71195 z"
       style="fill:#fdfdfd;fill-opacity:1;stroke:#000000;stroke-width:0;stroke-linecap:butt;stroke-linejoin:miter;stroke-miterlimit:4;stroke-dasharray:none;stroke-opacity:1" />
    <path
       inkscape:connector-curvature="0"
       id="path866"
       d="m 580.29824,479.65637 17.44343,-17.97741 -9.61169,-21.89328 17.08744,1.24596 24.3852,-15.84148 -11.03564,-9.61169 0.88997,-45.38851 -39.5147,5.51782 -13.88355,-31.50498 -23.13924,-5.33983 24.74119,2.84791 14.77352,27.9451 40.76066,-3.91588 -1.42395,47.70244 14.06154,12.81558 -29.54703,17.97741 -12.2816,-1.95794 9.2557,21.18131 -22.96125,17.26543 z"
       style="fill:#00afe4;fill-opacity:1;stroke:#000000;stroke-width:0;stroke-linecap:butt;stroke-linejoin:miter;stroke-miterlimit:4;stroke-dasharray:none;stroke-opacity:1" />
    <path
       inkscape:connector-curvature="0"
       id="path864"
       d="m 438.25889,478.23242 -15.0405,-16.01948 9.96767,-23.13924 -17.5096,2.36674 -25.03101,-15.27132 12.54859,-11.30263 -1.33495,-44.58754 38.23438,5.21039 15.1033,-30.96179 25.80148,-4.90858 -27.94111,3.02067 -15.22917,26.05321 -38.63929,-2.95773 v 47.19783 l -13.59298,13.27832 28.3187,17.49466 13.0266,-1.13274 -8.49561,19.82308 19.76016,16.42485 z"
       style="fill:#00afe4;fill-opacity:1;stroke:#000000;stroke-width:0;stroke-linecap:butt;stroke-linejoin:miter;stroke-miterlimit:4;stroke-dasharray:none;stroke-opacity:1" />
    <path
       style="fill:none;fill-opacity:1;stroke:#181f26;stroke-width:3;stroke-linecap:butt;stroke-linejoin:miter;stroke-miterlimit:4;stroke-dasharray:none;stroke-opacity:1"
       d="m 482.22345,392.08324 c -0.34484,-4.24159 -1.20237,-8.05595 0.35599,-13.88354 4.1945,-8.44504 50.84398,-10.00297 56.24616,1.24595 0.77378,3.58312 0.90231,7.2953 0,11.21364 5.16136,1.38538 9.65574,2.85418 8.29074,13.5447 -0.2288,5.64813 -1.76395,10.75194 -9.96104,13.07994 -8.32595,2.30775 -17.89285,2.54723 -27.16476,3.27838 -10.86098,-0.28799 -21.9201,-0.42738 -29.09517,-3.47981 -3.38154,-1.87681 -4.26251,-5.18808 -5.05577,-7.52385 -3.02264,-8.90013 -1.19942,-18.32844 6.38385,-17.47541 z"
       id="path912"
       inkscape:connector-curvature="0"
       sodipodi:nodetypes="ccccccccsc" />
  </g>
</svg>
