<svg xmlns="http://www.w3.org/2000/svg">
  <defs>
    <clipPath id="a">
      <path d="M0 1674.879h3881.437V0H0v1674.879z"/>
    </clipPath>
  </defs>
  <g clip-path="url(#a)" transform="matrix(0.10305462,0,0,-0.10305462,-1.6372708e-6,172.60402)">
    <path fill="#d3192a" d="M1940.538 1258.802v268.932h-590.077c-428.626 0-776.096-58.338-776.096-130.302s347.47-130.302 776.096-130.302v-8.328h590.077z"/>
    <path fill="#af1f24" d="M1310.475 1527.564v-134.296h31.127v134.456c-10.425-.02-20.803-.072-31.127-.16"/>
    <path fill="#d3192a" d="M1940.8981 1258.802v268.932h590.078c428.625 0 776.096-58.338 776.096-130.302s-347.471-130.303-776.096-130.303h-.001v-8.328h-590.077v.001z"/>
    <path fill="#af1f24" d="M2570.96 1527.564v-134.296h-31.127v134.456c10.426-.02 20.805-.072 31.127-.16"/>
    <path fill="#232323" d="M2209.687 1646.879c-6.008 19.25-19.716 28-35.39 28H1707.14c-15.675 0-29.382-8.75-35.39-28l-25.621-106c0-15.656 45.336-25 61.011-25h467.157c15.674 0 61.011 9.344 61.011 25l-25.621 106z"/>
    <path fill="#af1f24" d="M1940.538 1572.158h-558.055v-209.834h1116.47v209.834h-558.415z"/>
    <path fill="#363636" d="M2327.531 1615.879h-773.64c-7.828 0-14.173-6.346-14.173-14.173v-171.653c0-7.828 6.346-14.173 14.173-14.173h773.64c7.835 0 14.187 6.346 14.187 14.173v171.653c0 7.828-6.352 14.173-14.187 14.173"/>
    <path fill="#555" d="M1988.384 1495.215c-7.916 0-14.333 6.417-14.333 14.333v115.321c0 15.655-12.691 28.346-28.347 28.346h-9.618c-15.67 0-28.373-12.691-28.373-28.346v-115.32c0-7.916-6.423-14.333-14.346-14.333h-353.649v-19.974h802v19.974h-353.334v-.001z"/>
    <path fill="#d3192a" d="M1694.837 1502.73c0 8.879-12.553 18.149-20.172 18.149h-150.878c-7.619 0-20.172-9.27-20.172-18.149l-13.897-41.774c0-8.879 6.177-16.077 13.796-16.077h191.422c7.62 0 13.797 7.198 13.797 16.077l-13.896 41.774zm491.7621 0c0 8.879 12.553 18.149 20.172 18.149h150.878c7.619 0 20.172-9.27 20.172-18.149l13.897-41.774c0-8.879-6.177-16.077-13.797-16.077h-191.422c-7.62 0-13.797 7.198-13.797 16.077l13.897 41.774zm-781.763-111.418c0-7.828-6.346-14.173-14.173-14.173h-34.887c-7.828 0-14.173 6.346-14.173 14.173v184.675c0 7.828 6.345 14.173 14.173 14.173h34.887c7.828 0 14.173-6.346 14.173-14.173v-184.675zm1071.765 0c0-7.828 6.346-14.173 14.173-14.173h34.887c7.827 0 14.173 6.346 14.173 14.173v184.675c0 7.828-6.346 14.173-14.173 14.173h-34.887c-7.827 0-14.173-6.346-14.173-14.173v-184.675z"/>
    <path fill="#af1f24" d="M1942.1791 1475.241h-565.96c-8.009 0-14.501-6.345-14.501-14.173l-22-59.8c0-7.828 5.292-16.129 13.301-16.129h589.16v90.102z"/>
    <path fill="#af1f24" d="M1940.8981 1475.241h564.419c7.987 0 14.462-6.345 14.462-14.173l21.939-59.8c0-7.828-5.277-16.129-13.266-16.129h-587.554v90.102z"/>
    <path fill="#d3192a" d="M2508.2041 1453.068c0 7.828-6.35 14.173-14.182 14.173h-1106.532c-7.849 0-14.212-6.345-14.212-14.173l-21.561-59.8c0-7.828 5.187-16.129 13.036-16.129h1151.956c7.833 0 13.008 8.302 13.008 16.129l-21.513 59.8z"/>
    <path fill="#232323" d="M1940.718 387.879v394h-1521v-22h-157v-362l13.073-10h1664.927zm0 0v394h1521v-22h157v-362l-13.072-10H1940.718z"/>
    <path fill="#191919" d="M1940.718 387.879H275.791l148.524-113.612c7.603-6.734 23.843-11.388 42.653-11.388h2947.5c18.811 0 35.051 4.653 42.653 11.388l148.524 113.612H1940.718z"/>
    <path fill="#232323" d="M3461.718 758.651v23.228h-3042v-23.228h-157V376.438l13.073-10.559h3329.855l13.072 10.559v382.213h-157z"/>
    <path fill="#191919" d="M1940.718 293.599H986.443l26.868-266.852C1017.961 10.93 1027.893 0 1039.397 0h1802.641c11.505 0 21.438 10.93 26.087 26.747l26.868 266.852h-954.275z"/>
    <path fill="#af1f24" d="M1940.718 1399.879H398.051v-618h3085.333v618H1940.718z"/>
    <path fill="#ed1c24" d="M3248.624 1009.879c-4.148 0-7.8 2.12-9.938 5.333h-.111c-.043.134-.088.267-.131.4-.93 1.522-1.531 3.263-1.695 5.133-71.945 214.235-274.365 368.572-512.836 368.572h-1566.39c-238.471 0-440.891-154.337-512.835-368.572-.165-1.871-.767-3.611-1.695-5.133-.043-.134-.088-.267-.132-.4h-.111c-2.137-3.213-5.788-5.333-9.937-5.333-4.149 0-34.761 5.333-34.761 5.333V781.879h2685.332v233.334s-30.611-5.334-34.76-5.334"/>
    <path fill="#232323" d="M598.051 781.879V570.125s30.612 5.334 34.761 5.334c4.148 0 7.799-2.121 9.937-5.334h.111c.043-.134.088-.267.132-.4.929-1.521 1.53-3.263 1.695-5.133 71.944-214.234 274.364-368.572 512.835-368.572h783.196v585.859H598.051z"/>
    <path fill="#232323" d="M3283.384 781.879V570.125s-30.611 5.334-34.76 5.334c-4.149 0-7.8-2.121-9.938-5.334h-.111c-.043-.134-.088-.267-.131-.4-.93-1.521-1.531-3.263-1.695-5.133-71.945-214.234-274.365-368.572-512.836-368.572h-783.195v585.859h1342.666z"/>
    <path fill="#100f0f" d="M2724.2571 1358.802h-1567.078c-278.606 0-504.461-225.855-504.461-504.462V727.689c0-278.606 225.855-504.461 504.461-504.461h1567.078c278.605 0 504.461 225.854 504.461 504.461V854.34c0 278.607-225.855 504.462-504.461 504.462"/>
    <path fill="#363636" d="M2985.0029 1206.906H896.5359l-72.11-109.545V293.599h2232.583v803.762l-72.006 109.545z"/>
    <path fill="#191919" d="M1983.7571 804.879h-86.079c-14.44 0-26.147-12.691-26.147-28.347V517.296c0-15.655 11.707-28.347 26.147-28.347h86.079c14.441 0 26.147 12.691 26.147 28.347v259.236c.001 15.656-11.706 28.347-26.147 28.347"/>
    <path fill="#232323" d="M2202.6101 315.566l-8.521 54.777-13.292 85.452h-.307c-46.637 55.676-136.469 93.473-239.771 93.814-103.303-.342-193.135-38.139-239.771-93.814h-.307l-13.292-85.452-8.521-54.777-9.685-62.26 25.366-199.49c0-6.884 4.13-13.248 11.121-18.443 2.416-2.997 8.304-5.862 17.143-8.531 2.939-.967 103.279-18.358 217.447-18.358.167 0 .333.001.499.001.166 0 .332-.001.499-.001 114.168 0 214.508 17.392 217.447 18.358 8.839 2.669 14.727 5.534 17.143 8.531 6.991 5.195 11.121 11.56 11.121 18.443l25.366 199.49-9.685 62.26z"/>
    <path fill="#191919" d="M1404.8361 1342.098c-2-2-110.995 0-223.489-.347-104.076-.321-238.629-25.872-342.629-127.872-104-102-144.847-182.611-167.059-333-22.528-152.525 6.324-225.983 22.17-335.983 16.333-113.372 98.167-297.104 126.273-335.924 28.106-38.82 106.616 132.907 106.616 132.907s-124 180-126 278-18.267 170.359 52 313c100 203 220 265 260 285s214-2 224-2 68.118 126.219 68.118 126.219m1071.765 0c2-2 110.994 0 223.488-.347 104.076-.321 238.629-25.872 342.629-127.872 104-102 144.847-182.611 167.059-333 22.528-152.525-6.323-225.983-22.17-335.983-16.332-113.372-98.168-297.104-126.273-335.924-28.105-38.82-106.616 132.907-106.616 132.907s124 180 126 278 18.267 170.359-52 313c-100 203-220 265-260 285s-214-2-224-2-68.117 126.219-68.117 126.219"/>
    <path fill="#232323" d="M2922.718 1207.879c-110 118-370 140-494 150s-323.666 6-323.666 6l-163.517-1.55-165.151 1.55s-199.667 4-323.667-6c-124-10-384-32-494-150s-222-346-216-580 12-352 100-446 214-82 238-100 536 10 536 10 44.966 3.063 48 52c9.281 149.72 16.75 197.728-8 223-12 11-21.793 7.961-60 8.683-182.363 3.444-296-13.683-456 14.317-141.913 24.835-187.351 55.01-228 90-60.06 51.699-57.869 40.85-72 78-17.857 46.946 2 160 2 160s24 198 104 318c76.105 114.158 124.645 162.357 206 166 268 12 670.667.334 670.667.334 3.019-.593 114-.001 117.333-1.001 3.333 1 114.314.408 117.334 1.001 0 0 402.666 11.666 670.666-.334 81.355-3.643 129.895-51.842 206-166 80-120 104-318 104-318s19.857-113.054 2-160c-14.131-37.15-11.939-26.301-72-78-40.648-34.99-86.088-65.165-228-90-160-28-273.637-10.873-456-14.317-38.207-.722-48 2.317-60-8.683-24.75-25.272-17.281-73.28-8-223 3.033-48.937 48-52 48-52s512-28 536-10 150 6 238 100 94 212 100 446-105.999 462-215.999 580"/>
    <path fill="#5e3d38" d="M1853.53 650.267c0-23.483-19.037-42.52-42.52-42.52h-614.031c-23.483 0-42.52 19.037-42.52 42.52v324.316c0 23.483 19.037 42.52 42.52 42.52h614.031c23.483 0 42.52-19.037 42.52-42.52V650.267zm174.376 0c0-23.483 19.036-42.52 42.52-42.52h614.03c23.483 0 42.52 19.037 42.52 42.52v324.316c0 23.483-19.036 42.52-42.52 42.52h-614.03c-23.483 0-42.52-19.037-42.52-42.52V650.267z"/>
    <path fill="#232323" d="M99.838 827.596l.008.071-.01.001c-.103 8.939-6.831 16.617-15.944 17.657-3.576.408-7.02-.273-10.02-1.762l-.001.009-.065-.04c-.843-.423-50.665-30.784-50.665-30.784l-.003-.021c-4.147-2.468-7.144-6.761-7.733-11.927L.104 666.67c-.589-5.166 1.364-10.023 4.849-13.362l-.002-.021s41.704-40.803 42.43-41.404l.055-.053.003.008c2.588-2.126 5.79-3.565 9.365-3.974 9.114-1.039 17.398 4.927 19.512 13.613l.01-.001.008.071c.168.707 23.509 205.323 23.504 206.049m3681.7611 0l-.01.071.01.001c.104 8.939 6.83 16.617 15.943 17.657 3.576.408 7.021-.273 10.021-1.762v.009l.066-.04c.843-.423 50.664-30.784 50.664-30.784v-.021c4.146-2.468 7.143-6.761 7.732-11.927l15.301-134.13c.59-5.166-1.363-10.023-4.848-13.362v-.021s-41.704-40.803-42.431-41.404l-.056-.053v.008c-2.588-2.126-5.79-3.565-9.365-3.974-9.114-1.039-17.397 4.927-19.512 13.613l-.011-.001-.01.071c-.166.707-23.508 205.323-23.502 206.049"/>
    <path fill="#191919" d="M112.79 864.767c-12.524 1.429-23.835-7.565-25.264-20.09L60.144 604.641c-1.428-12.524 7.566-23.834 20.09-25.264 12.525-1.428 23.835 7.566 25.265 20.09l27.382 240.035c1.429 12.526-7.566 23.836-20.091 25.265m3655.856 0c12.525 1.429 23.836-7.565 25.265-20.09l27.382-240.036c1.428-12.524-7.566-23.834-20.09-25.264-12.525-1.428-23.836 7.566-25.266 20.09l-27.381 240.035c-1.43 12.526 7.565 23.836 20.09 25.265"/>
    <path fill="#d3192a" d="M200.304 1164.193l410.136-46.469-29.722 240.155c0 23.196-18.804 42-42 42H309.051c-44.522 0-81.535-32.149-89.09-74.5v-.001c-.572-3.207-.969-6.475-1.194-9.79l-18.463-151.395zm3480.8281 0l-410.137-46.469 29.723 240.155c0 23.196 18.805 42 42 42h229.666c44.522 0 81.535-32.149 89.09-74.5v-.001c.572-3.207.97-6.475 1.194-9.79l18.464-151.395z"/>
    <path fill="#232323" d="M649.718 794.879l-545.667-13-30.667-280 10.667-76c0-41.974 34.026-76 76-76h380.667c28.493 0 51.945 21.537 54.99 49.22l.006.002 54.004 395.778z"/>
    <path fill="#191919" d="M644.262 794.879l-51.548-377.778-.006-.002c-3.044-27.683-26.497-49.22-54.99-49.22H157.051c-34.526 0-63.656 23.03-72.913 54.562 1.799-40.377 35.093-72.562 75.913-72.562h380.667c28.493 0 51.945 21.537 54.99 49.22l.006.002 54.004 395.778h-5.456z"/>
    <path fill="#232323" d="M3231.718 794.879l545.666-13 30.667-280-10.667-76c0-41.974-34.026-76-76-76h-380.666c-28.492 0-51.945 21.537-54.99 49.22l-.01.002-54.004 395.778z"/>
    <path fill="#191919" d="M3237.1741 794.879l51.548-377.778.01-.002c3.045-27.683 26.498-49.22 54.99-49.22h380.666c34.526 0 63.656 23.03 72.913 54.562-1.799-40.377-35.093-72.562-75.913-72.562h-380.666c-28.492 0-51.945 21.537-54.99 49.22l-.01.002-54.004 395.778h5.456z"/>
    <path fill="#d3192a" d="M649.35 797.903l-40.632 333.976c0 21.539-17.461 39-39 39h-185l13.333-389h238.667c7.18 0 13 5.82 13 13 0 1.043-.136 2.052-.368 3.024"/>
    <path fill="#af1f24" d="M649.35 797.903l-40.632 333.976c0 21.539-17.461 39-39 39h-185l.994-29h178.006c21.539 0 39-17.461 39-39l38.935-320.024c4.731 1.944 8.065 6.593 8.065 12.024 0 1.043-.136 2.052-.368 3.024"/>
    <path fill="#d3192a" d="M3232.085 797.903l40.633 333.976c0 21.539 17.461 39 39 39h185l-13.334-389h-238.666c-7.18 0-13 5.82-13 13 0 1.043.136 2.052.367 3.024"/>
    <path fill="#af1f24" d="M3232.085 797.903l40.633 333.976c0 21.539 17.461 39 39 39h185l-.994-29h-178.006c-21.539 0-39-17.461-39-39l-38.936-320.024c-4.73 1.944-8.064 6.593-8.064 12.024 0 1.043.136 2.052.367 3.024"/>
    <path fill="#2b2c2c" d="M384.718 1170.879l-193-6.998c-24.117 0-43.667-19.55-43.667-43.667l-44-338.335h294l-13.333 389z"/>
    <path fill="#232323" d="M148.051 1092.214c0 24.117 19.55 43.667 43.667 43.667l193 6.998 12.374-361h.959l-13.333 389-193-6.998c-24.117 0-43.667-19.55-43.667-43.667l-44-338.335h3.641l40.359 310.335z"/>
    <path fill="#2b2c2c" d="M3496.718 1170.879l193-6.998c24.117 0 43.667-19.55 43.667-43.667l43.999-338.335h-294l13.334 389z"/>
    <path fill="#232323" d="M3733.385 1092.214c0 24.117-19.55 43.667-43.667 43.667l-193 6.998-12.374-361h-.96l13.334 389 193-6.998c24.117 0 43.667-19.55 43.667-43.667l43.999-338.335h-3.641l-40.358 310.335z"/>
    <path fill="#191919" d="M371.796 1170.411l12.053-387.809-38.537-288.55H74.484l1.989-14.173h281.245l40.333 302-12.09 389h-1.243l-12.922-.468zm3137.8441 0l-12.053-387.809 38.537-288.55h270.828l-1.989-14.173h-281.245l-40.334 302 12.091 389h1.243l12.922-.468z"/>
    <path fill="#191919" d="M284.718 956.879H126.81l-4.162-32h162.07c8.836 0 16 7.164 16 16s-7.164 16-16 16m0-59H119.137l-4.162-32h169.743c8.836 0 16 7.164 16 16s-7.164 16-16 16m0-61H111.204l-4.162-32h177.676c8.836 0 16 7.164 16 16s-7.164 16-16 16m0-61H103.394l-3.504-32h184.828c8.836 0 16 7.164 16 16s-7.164 16-16 16m0-58H97.042l-3.505-32h191.181c8.836 0 16 7.164 16 16s-7.164 16-16 16m0-58H90.69l-3.505-32h197.533c8.836 0 16 7.164 16 16s-7.164 16-16 16m3312 297h157.908l4.162-32h-162.07c-8.836 0-16 7.164-16 16s7.164 16 16 16m0-59h165.581l4.161-32h-169.742c-8.836 0-16 7.164-16 16s7.164 16 16 16m0-61h173.514l4.162-32h-177.676c-8.836 0-16 7.164-16 16s7.164 16 16 16m0-61h181.324l3.504-32h-184.828c-8.836 0-16 7.164-16 16s7.164 16 16 16m0-58h187.676l3.505-32h-191.181c-8.836 0-16 7.164-16 16s7.164 16 16 16m0-58h194.028l3.505-32h-197.533c-8.836 0-16 7.164-16 16s7.164 16 16 16"/>
    <path fill="#363636" d="M2127.97 434.213c0 46.575-83.78 84.333-187.129 84.333-103.349 0-187.129-37.758-187.129-84.333l-60.216-372.436 1.012-7.962c0-6.884 4.13-13.248 11.121-18.443 2.416-2.997 8.304-5.862 17.143-8.531 2.939-.967 103.279-18.358 217.447-18.358.167 0 .333.001.499.001.166 0 .332-.001.499-.001 114.168 0 214.508 17.392 217.447 18.358 8.839 2.669 14.727 5.534 17.143 8.531 6.931 5.15 11.043 11.449 11.114 18.264l-58.951 380.577z"/>
    <path fill="#232323" d="M1784.0601 1161.751c-25.991 0-54.928-22.453-54.928-52.743 0-30.29 26.354-52.742 54.928-52.742h318.729c30.288-2.187 54.931 22.452 54.931 52.742 0 30.29-25.402 52.743-54.931 52.743h-318.729z"/>
    <path fill="#363636" d="M1784.0601 1148.626c-20.335 1.087-41.803-16.53-41.803-39.619s17.552-39.489 41.803-39.618h318.729c24.575-.334 41.806 16.529 41.806 39.618 0 23.088-20.688 41.396-41.806 39.619h-318.729z"/>
    <path fill="#232323" d="M1831.655 1116.487h15.134v-33.298h-15.134v33.298zm49.075 1.513s-6.282-.313-11.024-5.055v3.542h-15.137v-33.298h15.137v21.62c1.729 6.055 6.702 5.84 6.702 5.84 7.997 0 7.567-7.786 7.567-7.786v-19.674h14.486v20.111s-.865 14.7-17.731 14.7m122.1601 0s-6.281-.313-11.023-5.055v3.542h-15.138v-33.298h15.138v21.62c1.729 6.055 6.698 5.84 6.698 5.84 8.001 0 7.57-7.786 7.57-7.786v-19.674h14.486v20.111s-.864 14.7-17.731 14.7m-171.2351 14.593h15.134v-10.052h-15.134v10.052zm97.9411-12.6479h-7.567v7.785h-15.137v-7.785h-6.268v-4.323h6.268v-32.433h15.137v32.433h7.567v4.323zm165.7259-2.0511c11.702 0 21.188-8.228 21.188-18.378s-9.486-18.378-21.188-18.378c-11.702 0-21.188 8.228-21.188 18.378s9.486 18.378 21.188 18.378"/>
    <path fill="#363636" d="M2095.322 1113.998c-3.209 0-5.837-2.95-5.837-6.563v-15.845c0-3.61 2.628-6.563 5.837-6.563 3.213 0 5.838 2.952 5.838 6.563v15.845c0 3.613-2.625 6.563-5.838 6.563"/>
    <path fill="#232323" d="M2053.698 1132.489v-17c-2.174 1.186-4.525 1.86-6.811 1.86-11.354 0-20.555-7.985-20.555-17.834s9.201-17.833 20.555-17.833c2.146 0 4.539.852 6.811 2.32v-.812h15.137v49.3h-15.137v-.001z"/>
    <path fill="#363636" d="M2047.7781 1112.595c-3.112 0-5.664-2.688-5.664-5.978v-14.427c0-3.286 2.552-5.974 5.664-5.974 3.114 0 5.666 2.688 5.666 5.974v14.432c0 3.285-2.552 5.973-5.666 5.973"/>
    <path fill="#232323" d="M1957.175 1092.918c0-5.404-2.751-7.89-6.121-7.89-3.367 0-6.122 2.952-6.122 6.563v7.383h28.308c0 .18-1.268 18.92-22.186 18.92-12.271 0-22.214-8.228-22.214-18.38 0-10.151 9.944-18.376 22.214-18.376 9.453 0 17.51 4.893 20.719 11.781h-14.598z"/>
    <path fill="#363636" d="M1957.175 1104.162v3.274c0 3.612-2.751 6.563-6.121 6.563-3.367 0-6.122-2.95-6.122-6.563v-3.274h12.243z"/>
    <path fill="#232323" d="M1771.5441 1132.593v-49.187h13.621v34.38l21.84-34.597h15.567v49.404h-15.137v-34.484l-21.622 34.484h-14.269z"/>
  </g>
</svg>
