<?xml version="1.0" encoding="UTF-8" standalone="no"?>
<svg
   xmlns:dc="http://purl.org/dc/elements/1.1/"
   xmlns:cc="http://creativecommons.org/ns#"
   xmlns:rdf="http://www.w3.org/1999/02/22-rdf-syntax-ns#"
   xmlns:svg="http://www.w3.org/2000/svg"
   xmlns="http://www.w3.org/2000/svg"
   viewBox="0 0 549.54376 684.09998"
   height="684.09998"
   width="549.54376"
   xml:space="preserve"
   version="1.1"
   id="svg2"><metadata
     id="metadata8"><rdf:RDF><cc:Work
         rdf:about=""><dc:format>image/svg+xml</dc:format><dc:type
           rdf:resource="http://purl.org/dc/dcmitype/StillImage" /><dc:title></dc:title></cc:Work></rdf:RDF></metadata><defs
     id="defs6"><clipPath
       id="clipPath16"
       clipPathUnits="userSpaceOnUse"><path
         id="path18"
         d="m 0,547.28 439.635,0 L 439.635,0 0,0 0,547.28 Z" /></clipPath></defs><g
     transform="matrix(1.25,0,0,-1.25,0,684.1)"
     id="g10"><g
       id="g12"><g
         clip-path="url(#clipPath16)"
         id="g14"><g
           transform="translate(146.1688,367.0691)"
           id="g20"><path
             id="path22"
             style="fill:#1b1c1c;fill-opacity:1;fill-rule:nonzero;stroke:none"
             d="M 0,0 Z" /></g><g
           transform="translate(146.1688,180.2105)"
           id="g24"><path
             id="path26"
             style="fill:#1b1c1c;fill-opacity:1;fill-rule:nonzero;stroke:none"
             d="M 0,0 Z" /></g><g
           transform="translate(175.1079,265.8635)"
           id="g28"><path
             id="path30"
             style="fill:#1b1c1c;fill-opacity:1;fill-rule:nonzero;stroke:none"
             d="m 0,0 0,0.011 0,15.495 0,0.02 -1.494,90.365 -28.137,-4.687 0,-0.093 c -1.386,-0.351 -2.422,-1.723 -2.422,-3.369 l 0,-179.935 c 0,-1.645 1.036,-3.017 2.422,-3.367 l 0,-0.093 28.137,-4.685 L 0,0 Z" /></g><g
           transform="translate(122.6385,2.3488)"
           id="g32"><path
             id="path34"
             style="fill:#1b1c1c;fill-opacity:1;fill-rule:nonzero;stroke:none"
             d="m 0,0 c 46.369,5.537 55.366,8.997 98.08,21.454 42.714,12.457 41.718,29.067 65.94,21.454 24.223,-7.612 18.686,-7.612 35.296,-14.533 16.609,-6.921 33.911,-6.921 33.911,-6.921 l 33.219,38.064 0,211.773 0,211.773 -33.219,38.064 c 0,0 -17.302,0 -33.911,-6.921 -16.61,-6.921 -11.073,-6.921 -35.296,-14.533 -24.222,-7.613 -23.226,8.997 -65.94,21.454 -42.714,12.457 -51.711,15.917 -98.08,21.454 -46.369,5.536 -57.442,0 -89.969,-3.46 -32.527,-3.461 -51.575,-67.603 -4.152,-78.204 47.047,-10.518 53.567,-10.762 89.277,-15.226 44.292,-5.536 76.748,-6.92 114.191,-17.301 14.987,-4.156 12.457,-13.842 12.457,-13.842 0,0 -8.305,-62.286 -9.689,-133.569 -0.066,-3.417 -0.126,-6.641 -0.18,-9.689 0.054,-3.048 0.114,-6.272 0.18,-9.689 1.384,-71.283 9.689,-133.569 9.689,-133.569 0,0 2.53,-9.687 -12.457,-13.842 C 71.904,103.81 39.448,102.426 -4.844,96.89 -40.554,92.426 -47.074,92.182 -94.121,81.664 -141.544,71.063 -122.496,6.921 -89.969,3.46 -57.442,0 -46.369,-5.537 0,0" /></g><g
           transform="translate(388.3929,183.6708)"
           id="g36"><path
             id="path38"
             style="fill:#232323;fill-opacity:1;fill-rule:nonzero;stroke:none"
             d="m 0,0 0,89.931 0,90 c 0,4.59 -3.718,8.312 -8.305,8.312 l -204.852,0 c -4.587,0 -8.305,-3.722 -8.305,-8.312 l 0,-90 0,-89.931 c 0,-4.586 3.718,-8.305 8.305,-8.305 l 204.852,0 C -3.718,-8.305 0,-4.586 0,0" /></g><g
           transform="translate(380.088,191.9756)"
           id="g40"><path
             id="path42"
             style="fill:#2b2b2b;fill-opacity:1;fill-rule:nonzero;stroke:none"
             d="m 0,0 0,81.664 0,81.664 c 0,4.587 -3.718,8.305 -8.305,8.305 l -149.487,0 c -4.586,0 -8.304,-3.718 -8.304,-8.305 l 0,-81.664 0,-81.664 c 0,-4.586 3.718,-8.305 8.304,-8.305 l 149.487,0 C -3.718,-8.305 0,-4.586 0,0" /></g><g
           transform="translate(426.4567,400.9804)"
           id="g44"><path
             id="path46"
             style="fill:#232323;fill-opacity:1;fill-rule:nonzero;stroke:none"
             d="m 0,0 -59.518,-92.045 c 0,0 -19.378,-27.683 -54.673,-18.686 -35.296,8.997 -45.52,52.374 -37.372,85.124 7.613,30.6 26.991,107.271 26.991,107.271 0,0 22.34,58.826 89.969,35.296 C 33.025,93.429 12.97,17.994 0,0" /></g><g
           transform="translate(426.4567,146.2991)"
           id="g48"><path
             id="path50"
             style="fill:#232323;fill-opacity:1;fill-rule:nonzero;stroke:none"
             d="m 0,0 -59.518,92.045 c 0,0 -19.378,27.683 -54.673,18.686 -35.296,-8.997 -45.52,-52.374 -37.372,-85.124 7.613,-30.6 26.991,-107.271 26.991,-107.271 0,0 22.34,-58.826 89.969,-35.296 C 33.025,-93.429 12.97,-17.994 0,0" /></g><g
           transform="translate(368.5824,68.8739)"
           id="g52"><path
             id="path54"
             style="fill:none;stroke:#1b1c1c;stroke-width:1.56900001;stroke-linecap:butt;stroke-linejoin:miter;stroke-miterlimit:10;stroke-dasharray:none;stroke-opacity:1"
             d="m 0,0 c -15.862,0 -28.721,12.859 -28.721,28.721 0,15.862 12.859,28.721 28.721,28.721 15.862,0 28.721,-12.859 28.721,-28.721 C 28.721,12.859 15.862,0 0,0 Z" /></g><g
           transform="translate(368.5824,475.7238)"
           id="g56"><path
             id="path58"
             style="fill:none;stroke:#1b1c1c;stroke-width:1.56900001;stroke-linecap:butt;stroke-linejoin:miter;stroke-miterlimit:10;stroke-dasharray:none;stroke-opacity:1"
             d="m 0,0 c -15.862,0 -28.721,-12.859 -28.721,-28.721 0,-15.862 12.859,-28.721 28.721,-28.721 15.862,0 28.721,12.859 28.721,28.721 C 28.721,-12.859 15.862,0 0,0 Z" /></g><g
           transform="translate(381.0396,67.9534)"
           id="g60"><path
             id="path62"
             style="fill:#1b1c1c;fill-opacity:1;fill-rule:nonzero;stroke:none"
             d="m 0,0 0,17.184 17.184,0 c 2.168,0 3.924,1.757 3.924,3.923 l 0,17.068 c 0,2.167 -1.756,3.924 -3.924,3.924 L 0,42.099 0,59.283 c 0,2.167 -1.757,3.924 -3.923,3.924 l -17.068,0 c -2.167,0 -3.923,-1.757 -3.923,-3.924 l 0,-17.184 -17.185,0 c -2.167,0 -3.924,-1.757 -3.924,-3.924 l 0,-17.068 c 0,-2.166 1.757,-3.923 3.924,-3.923 l 17.185,0 0,-17.184 c 0,-2.167 1.756,-3.924 3.923,-3.924 l 17.068,0 C -1.757,-3.924 0,-2.167 0,0" /></g><g
           transform="translate(381.0396,67.9534)"
           id="g64"><path
             id="path66"
             style="fill:none;stroke:#191818;stroke-width:1.96200001;stroke-linecap:butt;stroke-linejoin:miter;stroke-miterlimit:10;stroke-dasharray:none;stroke-opacity:1"
             d="m 0,0 0,17.184 17.184,0 c 2.168,0 3.924,1.757 3.924,3.923 l 0,17.068 c 0,2.167 -1.756,3.924 -3.924,3.924 L 0,42.099 0,59.283 c 0,2.167 -1.757,3.924 -3.923,3.924 l -17.068,0 c -2.167,0 -3.923,-1.757 -3.923,-3.924 l 0,-17.184 -17.185,0 c -2.167,0 -3.924,-1.757 -3.924,-3.924 l 0,-17.068 c 0,-2.166 1.757,-3.923 3.924,-3.923 l 17.185,0 0,-17.184 c 0,-2.167 1.756,-3.924 3.923,-3.924 l 17.068,0 C -1.757,-3.924 0,-2.167 0,0 Z" /></g><g
           transform="translate(381.0396,417.3616)"
           id="g68"><path
             id="path70"
             style="fill:#1b1c1c;fill-opacity:1;fill-rule:nonzero;stroke:none"
             d="m 0,0 0,17.184 17.184,0 c 2.168,0 3.924,1.757 3.924,3.923 l 0,17.068 c 0,2.167 -1.756,3.924 -3.924,3.924 L 0,42.099 0,59.283 c 0,2.167 -1.757,3.924 -3.923,3.924 l -17.068,0 c -2.167,0 -3.923,-1.757 -3.923,-3.924 l 0,-17.184 -17.185,0 c -2.167,0 -3.924,-1.757 -3.924,-3.924 l 0,-17.068 c 0,-2.166 1.757,-3.923 3.924,-3.923 l 17.185,0 0,-17.184 c 0,-2.167 1.756,-3.924 3.923,-3.924 l 17.068,0 C -1.757,-3.924 0,-2.167 0,0" /></g><g
           transform="translate(381.0396,417.3616)"
           id="g72"><path
             id="path74"
             style="fill:none;stroke:#191818;stroke-width:1.96200001;stroke-linecap:butt;stroke-linejoin:miter;stroke-miterlimit:10;stroke-dasharray:none;stroke-opacity:1"
             d="m 0,0 0,17.184 17.184,0 c 2.168,0 3.924,1.757 3.924,3.923 l 0,17.068 c 0,2.167 -1.756,3.924 -3.924,3.924 L 0,42.099 0,59.283 c 0,2.167 -1.757,3.924 -3.923,3.924 l -17.068,0 c -2.167,0 -3.923,-1.757 -3.923,-3.924 l 0,-17.184 -17.185,0 c -2.167,0 -3.924,-1.757 -3.924,-3.924 l 0,-17.068 c 0,-2.166 1.757,-3.923 3.924,-3.923 l 17.185,0 0,-17.184 c 0,-2.167 1.756,-3.924 3.923,-3.924 l 17.068,0 C -1.757,-3.924 0,-2.167 0,0 Z" /></g><g
           transform="translate(368.5824,91.3661)"
           id="g76"><path
             id="path78"
             style="fill:#151515;fill-opacity:1;fill-rule:nonzero;stroke:none"
             d="m 0,0 c -3.44,0 -6.229,2.789 -6.229,6.229 0,3.44 2.789,6.228 6.229,6.228 3.44,0 6.229,-2.788 6.229,-6.228 C 6.229,2.789 3.44,0 0,0" /></g><g
           transform="translate(368.5824,453.2316)"
           id="g80"><path
             id="path82"
             style="fill:#151515;fill-opacity:1;fill-rule:nonzero;stroke:none"
             d="m 0,0 c -3.44,0 -6.229,-2.789 -6.229,-6.229 0,-3.44 2.789,-6.228 6.229,-6.228 3.44,0 6.229,2.788 6.229,6.228 C 6.229,-2.789 3.44,0 0,0" /></g><g
           transform="translate(339.8615,147.6832)"
           id="g84"><path
             id="path86"
             style="fill:#ea122c;fill-opacity:1;fill-rule:nonzero;stroke:none"
             d="m 0,0 c -8.982,0 -16.264,7.282 -16.264,16.264 0,8.982 7.282,16.263 16.264,16.263 8.982,0 16.264,-7.281 16.264,-16.263 C 16.264,7.282 8.982,0 0,0" /></g><g
           transform="translate(339.8615,147.6832)"
           id="g88"><path
             id="path90"
             style="fill:none;stroke:#191818;stroke-width:1.96200001;stroke-linecap:butt;stroke-linejoin:miter;stroke-miterlimit:10;stroke-dasharray:none;stroke-opacity:1"
             d="m 0,0 c -8.982,0 -16.264,7.282 -16.264,16.264 0,8.982 7.282,16.263 16.264,16.263 8.982,0 16.264,-7.281 16.264,-16.263 C 16.264,7.282 8.982,0 0,0 Z" /></g><g
           transform="translate(322.9059,189.2074)"
           id="g92"><path
             id="path94"
             style="fill:#ea122c;fill-opacity:1;fill-rule:nonzero;stroke:none"
             d="m 0,0 c -8.982,0 -16.264,7.282 -16.264,16.264 0,8.982 7.282,16.263 16.264,16.263 8.982,0 16.264,-7.281 16.264,-16.263 C 16.264,7.282 8.982,0 0,0" /></g><g
           transform="translate(322.9059,189.2074)"
           id="g96"><path
             id="path98"
             style="fill:none;stroke:#191818;stroke-width:1.96200001;stroke-linecap:butt;stroke-linejoin:miter;stroke-miterlimit:10;stroke-dasharray:none;stroke-opacity:1"
             d="m 0,0 c -8.982,0 -16.264,7.282 -16.264,16.264 0,8.982 7.282,16.263 16.264,16.263 8.982,0 16.264,-7.281 16.264,-16.263 C 16.264,7.282 8.982,0 0,0 Z" /></g><g
           transform="translate(339.8615,396.9145)"
           id="g100"><path
             id="path102"
             style="fill:#6d6e70;fill-opacity:1;fill-rule:nonzero;stroke:none"
             d="m 0,0 c -8.982,0 -16.264,-7.282 -16.264,-16.264 0,-8.982 7.282,-16.263 16.264,-16.263 8.982,0 16.264,7.281 16.264,16.263 C 16.264,-7.282 8.982,0 0,0" /></g><g
           transform="translate(339.8615,396.9145)"
           id="g104"><path
             id="path106"
             style="fill:none;stroke:#191818;stroke-width:1.96200001;stroke-linecap:butt;stroke-linejoin:miter;stroke-miterlimit:10;stroke-dasharray:none;stroke-opacity:1"
             d="m 0,0 c -8.982,0 -16.264,-7.282 -16.264,-16.264 0,-8.982 7.282,-16.263 16.264,-16.263 8.982,0 16.264,7.281 16.264,16.263 C 16.264,-7.282 8.982,0 0,0 Z" /></g><g
           transform="translate(322.9059,355.3904)"
           id="g108"><path
             id="path110"
             style="fill:#808184;fill-opacity:1;fill-rule:nonzero;stroke:none"
             d="m 0,0 c -8.982,0 -16.264,-7.282 -16.264,-16.264 0,-8.982 7.282,-16.263 16.264,-16.263 8.982,0 16.264,7.281 16.264,16.263 C 16.264,-7.282 8.982,0 0,0" /></g><g
           transform="translate(322.9059,355.3904)"
           id="g112"><path
             id="path114"
             style="fill:none;stroke:#191818;stroke-width:1.96200001;stroke-linecap:butt;stroke-linejoin:miter;stroke-miterlimit:10;stroke-dasharray:none;stroke-opacity:1"
             d="m 0,0 c -8.982,0 -16.264,-7.282 -16.264,-16.264 0,-8.982 7.282,-16.263 16.264,-16.263 8.982,0 16.264,7.281 16.264,16.263 C 16.264,-7.282 8.982,0 0,0 Z" /></g><g
           transform="translate(376.1952,240.8044)"
           id="g116"><path
             id="path118"
             style="fill:#6d6e70;fill-opacity:1;fill-rule:nonzero;stroke:none"
             d="m 0,0 c 0,-1.72 -1.394,-3.114 -3.114,-3.114 -1.184,0 -2.202,0.668 -2.728,1.641 l -0.003,-0.025 -9.871,16.186 0,14.687 9.487,0 6.229,0 L 0,0 Z" /></g><g
           transform="translate(373.0808,248.0711)"
           id="g120"><path
             id="path122"
             style="fill:#929496;fill-opacity:1;fill-rule:nonzero;stroke:none"
             d="m 0,0 c 1.72,0 3.114,1.394 3.114,3.114 l 0,22.493 0,6.882 0,22.493 c 0,1.72 -1.394,3.114 -3.114,3.114 -1.184,0 -2.202,-0.668 -2.728,-1.642 l -0.003,0.026 -9.871,-16.186 0,-7.805 0,-6.882 0,-7.805 9.871,-16.185 0.003,0.025 C -2.202,0.668 -1.184,0 0,0" /></g><g
           transform="translate(361.1721,282.4825)"
           id="g124"><path
             id="path126"
             style="fill:#808184;fill-opacity:1;fill-rule:nonzero;stroke:none"
             d="m 0,0 c -0.542,0 -0.981,0.439 -0.981,0.981 l 0,2.537 c 0,0.541 0.439,0.98 0.981,0.98 l 14.648,0 c 0.541,0 0.981,-0.439 0.981,-0.98 l 0,-2.537 C 15.629,0.439 15.189,0 14.648,0 L 0,0 Z" /></g><g
           transform="translate(361.1721,274.6968)"
           id="g128"><path
             id="path130"
             style="fill:#808184;fill-opacity:1;fill-rule:nonzero;stroke:none"
             d="m 0,0 c -0.542,0 -0.981,0.439 -0.981,0.981 l 0,2.536 c 0,0.542 0.439,0.981 0.981,0.981 l 14.648,0 c 0.541,0 0.981,-0.439 0.981,-0.981 l 0,-2.536 C 15.629,0.439 15.189,0 14.648,0 L 0,0 Z" /></g><g
           transform="translate(361.1721,267.257)"
           id="g132"><path
             id="path134"
             style="fill:#808184;fill-opacity:1;fill-rule:nonzero;stroke:none"
             d="m 0,0 c -0.542,0 -0.981,0.439 -0.981,0.981 l 0,2.536 c 0,0.542 0.439,0.981 0.981,0.981 l 14.648,0 c 0.541,0 0.981,-0.439 0.981,-0.981 l 0,-2.536 C 15.629,0.439 15.189,0 14.648,0 L 0,0 Z" /></g><g
           transform="translate(370.4863,381.2409)"
           id="g136"><path
             id="path138"
             style="fill:#929496;fill-opacity:1;fill-rule:nonzero;stroke:none"
             d="M 0,0 1.407,3.229 C 1.471,3.375 1.462,3.517 1.38,3.654 1.298,3.79 1.177,3.893 1.017,3.962 0.859,4.031 0.707,4.049 0.559,4.017 0.411,3.983 0.304,3.891 0.238,3.738 l -0.829,-1.9 C -0.814,1.325 -1.199,1.01 -1.744,0.894 -2.239,0.786 -2.757,0.851 -3.299,1.087 -3.843,1.324 -4.244,1.658 -4.501,2.09 -4.786,2.569 -4.817,3.066 -4.592,3.582 l 1.508,3.46 1.392,-0.606 -1.413,-3.241 c -0.06,-0.137 -0.044,-0.277 0.047,-0.421 0.083,-0.127 0.206,-0.227 0.37,-0.298 0.158,-0.069 0.311,-0.09 0.459,-0.063 0.148,0.028 0.254,0.115 0.318,0.261 l 0.83,1.905 C -0.856,5.095 -0.472,5.414 0.071,5.535 0.563,5.647 1.079,5.586 1.616,5.351 2.153,5.118 2.548,4.784 2.8,4.352 3.082,3.867 3.111,3.366 2.886,2.85 L 1.382,-0.602 0,0 Z" /></g><g
           transform="translate(362.7904,377.6075)"
           id="g140"><path
             id="path142"
             style="fill:#929496;fill-opacity:1;fill-rule:nonzero;stroke:none"
             d="M 0,0 1.504,3.452 C 1.729,3.969 2.114,4.288 2.659,4.413 3.152,4.525 3.668,4.463 4.206,4.229 4.441,4.126 4.655,3.998 4.847,3.845 5.039,3.692 5.2,3.519 5.33,3.324 5.548,3.36 5.783,3.359 6.035,3.322 6.287,3.285 6.526,3.218 6.751,3.12 7.288,2.886 7.683,2.55 7.937,2.113 8.22,1.628 8.248,1.128 8.023,0.612 L 6.519,-2.841 5.137,-2.238 6.544,0.99 C 6.608,1.137 6.599,1.279 6.517,1.415 6.435,1.552 6.314,1.655 6.154,1.725 5.996,1.793 5.844,1.811 5.696,1.778 5.548,1.745 5.441,1.652 5.375,1.5 L 3.968,-1.729 2.59,-1.129 2.551,-1.112 4.038,2.301 C 4.033,2.412 3.992,2.517 3.912,2.612 3.833,2.706 3.73,2.781 3.605,2.836 3.447,2.905 3.294,2.922 3.145,2.889 2.997,2.857 2.889,2.764 2.823,2.612 L 1.416,-0.617 0,0 Z" /></g><g
           transform="translate(360.1978,371.7506)"
           id="g144"><path
             id="path146"
             style="fill:#929496;fill-opacity:1;fill-rule:nonzero;stroke:none"
             d="M 0,0 1.054,2.42 C 1.387,3.183 1.861,3.7 2.477,3.971 2.955,4.181 3.507,4.236 4.131,4.139 4.539,4.075 4.961,3.947 5.395,3.758 5.476,3.723 5.54,3.694 5.587,3.669 5.634,3.645 5.674,3.623 5.706,3.601 L 8.782,2.261 8.196,0.915 5.12,2.255 C 4.567,2.497 4.053,2.592 3.58,2.543 3.035,2.486 2.666,2.238 2.475,1.801 L 1.421,-0.619 0,0 Z" /></g><g
           transform="translate(357.6729,365.864)"
           id="g148"><path
             id="path150"
             style="fill:#929496;fill-opacity:1;fill-rule:nonzero;stroke:none"
             d="M 0,0 1.504,3.452 C 1.729,3.969 2.114,4.288 2.659,4.413 3.152,4.525 3.668,4.463 4.206,4.229 4.441,4.126 4.655,3.998 4.847,3.846 5.039,3.692 5.2,3.519 5.33,3.324 5.548,3.36 5.783,3.359 6.035,3.323 6.287,3.285 6.525,3.218 6.75,3.12 7.288,2.886 7.683,2.55 7.937,2.113 8.22,1.628 8.248,1.128 8.023,0.612 L 6.519,-2.841 5.137,-2.238 6.544,0.99 C 6.608,1.137 6.598,1.279 6.517,1.415 6.435,1.552 6.314,1.655 6.154,1.725 5.996,1.793 5.844,1.811 5.696,1.778 5.548,1.745 5.441,1.652 5.374,1.5 L 3.968,-1.729 2.59,-1.129 2.551,-1.112 4.038,2.301 C 4.034,2.412 3.992,2.517 3.912,2.611 3.833,2.706 3.73,2.781 3.605,2.836 3.447,2.905 3.294,2.922 3.145,2.889 2.997,2.857 2.889,2.764 2.823,2.611 L 1.416,-0.617 0,0 Z" /></g><g
           transform="translate(355.0803,360.0071)"
           id="g152"><path
             id="path154"
             style="fill:#929496;fill-opacity:1;fill-rule:nonzero;stroke:none"
             d="M 0,0 1.294,2.97 C 1.604,3.683 2.184,4.098 3.033,4.219 3.793,4.327 4.613,4.19 5.491,3.806 6.39,3.415 7.07,2.895 7.534,2.246 8.048,1.525 8.152,0.814 7.847,0.114 L 6.553,-2.855 5.171,-2.253 6.367,0.493 C 6.51,0.82 6.433,1.162 6.135,1.515 5.868,1.834 5.485,2.101 4.986,2.319 4.471,2.543 3.994,2.648 3.556,2.633 3.07,2.618 2.757,2.449 2.618,2.127 L 1.421,-0.619 0,0 Z" /></g><g
           transform="translate(358.2358,353.1304)"
           id="g156"><path
             id="path158"
             style="fill:#929496;fill-opacity:1;fill-rule:nonzero;stroke:none"
             d="M 0,0 0.598,1.373 -4.572,3.626 -3.996,4.95 1.175,2.697 1.771,4.065 3.153,3.463 1.382,-0.602 0,0 Z" /></g><g
           transform="translate(352.0312,336.026)"
           id="g160"><path
             id="path162"
             style="fill:#929496;fill-opacity:1;fill-rule:nonzero;stroke:none"
             d="M 0,0 1.407,3.229 C 1.471,3.375 1.462,3.516 1.38,3.653 1.298,3.789 1.177,3.892 1.017,3.962 0.859,4.031 0.707,4.049 0.559,4.016 0.411,3.983 0.304,3.891 0.238,3.738 l -0.829,-1.9 C -0.814,1.325 -1.199,1.01 -1.744,0.893 -2.239,0.786 -2.757,0.851 -3.299,1.087 -3.843,1.324 -4.244,1.658 -4.501,2.09 -4.786,2.569 -4.817,3.066 -4.592,3.582 l 1.508,3.46 1.392,-0.607 -1.413,-3.241 c -0.06,-0.137 -0.044,-0.276 0.047,-0.42 0.083,-0.127 0.206,-0.227 0.37,-0.299 0.158,-0.068 0.311,-0.089 0.459,-0.062 0.148,0.028 0.254,0.115 0.318,0.261 l 0.83,1.905 C -0.856,5.095 -0.472,5.414 0.071,5.535 0.563,5.647 1.079,5.585 1.616,5.351 2.153,5.117 2.548,4.783 2.8,4.351 3.082,3.866 3.111,3.366 2.886,2.85 L 1.382,-0.602 0,0 Z" /></g><g
           transform="translate(350.0159,331.4018)"
           id="g164"><path
             id="path166"
             style="fill:#929496;fill-opacity:1;fill-rule:nonzero;stroke:none"
             d="M 0,0 0.599,1.373 -4.572,3.627 -3.996,4.95 1.175,2.697 1.771,4.065 3.153,3.463 1.382,-0.602 0,0 Z" /></g><g
           transform="translate(342.2145,327.6184)"
           id="g168"><path
             id="path170"
             style="fill:#929496;fill-opacity:1;fill-rule:nonzero;stroke:none"
             d="M 0,0 0.625,1.435 6.36,0.819 C 6.416,0.806 6.456,0.829 6.482,0.888 6.51,0.952 6.502,1.004 6.46,1.048 L 2.091,4.798 2.724,6.252 C 3.087,5.958 3.63,5.511 4.353,4.908 5.153,4.237 5.913,3.589 6.635,2.966 7.421,2.283 7.856,1.884 7.937,1.771 8.067,1.569 8.13,1.332 8.128,1.062 8.125,0.792 8.066,0.524 7.949,0.255 7.833,-0.011 7.677,-0.237 7.48,-0.424 7.284,-0.612 7.068,-0.723 6.833,-0.76 6.695,-0.788 6.108,-0.745 5.073,-0.631 4.344,-0.552 3.354,-0.433 2.101,-0.272 1.401,-0.18 0.701,-0.09 0,0" /></g><g
           transform="translate(339.5929,322.0076)"
           id="g172"><path
             id="path174"
             style="fill:#929496;fill-opacity:1;fill-rule:nonzero;stroke:none"
             d="M 0,0 3.441,3.045 1.813,3.755 2.39,5.078 4.559,4.133 C 5.081,3.905 5.452,3.6 5.672,3.216 5.925,2.776 5.934,2.287 5.699,1.748 L 4.982,0.102 C 4.916,-0.051 4.923,-0.196 5.004,-0.334 5.076,-0.458 5.191,-0.553 5.348,-0.622 5.509,-0.691 5.662,-0.713 5.808,-0.684 5.97,-0.652 6.085,-0.56 6.152,-0.408 L 7.56,2.825 8.942,2.223 7.436,-1.233 C 7.211,-1.75 6.827,-2.069 6.284,-2.19 5.791,-2.302 5.276,-2.24 4.739,-2.007 4.198,-1.771 3.802,-1.436 3.551,-1.004 3.27,-0.523 3.243,-0.023 3.468,0.495 L 3.833,1.331 1.55,-0.675 0,0 Z" /></g><g
           transform="translate(342.9633,315.218)"
           id="g176"><path
             id="path178"
             style="fill:#929496;fill-opacity:1;fill-rule:nonzero;stroke:none"
             d="M 0,0 0.598,1.373 -4.572,3.627 -3.996,4.95 1.175,2.697 1.771,4.065 3.154,3.463 1.382,-0.602 0,0 Z" /></g><g
           transform="translate(343.5301,217.9465)"
           id="g180"><path
             id="path182"
             style="fill:#a6a8ab;fill-opacity:1;fill-rule:nonzero;stroke:none"
             d="m 0,0 0.67,-1.396 c 0.227,-0.472 0.47,-0.763 0.731,-0.877 0.26,-0.113 0.531,-0.102 0.813,0.034 0.262,0.126 0.426,0.322 0.493,0.59 0.068,0.268 -0.014,0.642 -0.244,1.121 L 1.796,0.862 0,0 Z M 3.482,1.672 4.054,0.481 C 4.259,0.054 4.475,-0.207 4.703,-0.304 4.93,-0.401 5.183,-0.383 5.461,-0.249 5.718,-0.125 5.879,0.055 5.945,0.292 6.009,0.529 5.942,0.855 5.743,1.271 L 5.162,2.479 3.482,1.672 Z M 5.631,6.104 8.092,0.978 C 8.502,0.124 8.606,-0.634 8.402,-1.295 8.199,-1.955 7.785,-2.436 7.161,-2.735 6.636,-2.987 6.109,-3.039 5.577,-2.893 5.223,-2.795 4.873,-2.572 4.526,-2.222 4.679,-2.933 4.64,-3.527 4.413,-4.006 4.184,-4.486 3.787,-4.861 3.223,-5.131 2.764,-5.352 2.299,-5.444 1.83,-5.407 c -0.469,0.038 -0.899,0.191 -1.291,0.459 -0.243,0.166 -0.507,0.466 -0.789,0.9 -0.377,0.578 -0.614,0.968 -0.71,1.169 l -2.27,4.727 8.861,4.256 z" /></g><g
           transform="translate(363.321,176.0459)"
           id="g184"><path
             id="path186"
             style="fill:#a6a8ab;fill-opacity:1;fill-rule:nonzero;stroke:none"
             d="M 0,0 2.716,2.508 -0.934,1.946 0,0 Z m -1.643,-1.488 -1.493,3.109 -1.67,-0.271 -1.343,2.796 10.46,0.925 1.435,-2.987 -7.263,-7.585 -1.376,2.867 1.25,1.146 z" /></g><g
           transform="translate(250.0322,334.2343)"
           id="g188"><path
             id="path190"
             style="fill:#6d6e70;fill-opacity:1;fill-rule:nonzero;stroke:none"
             d="M 0,0 -28.058,-6.441 0,-12.849 0,-9.381 -15.769,-6.441 0,-3.469 0,0 Z" /></g><path
           id="path192"
           style="fill:#6d6e70;fill-opacity:1;fill-rule:nonzero;stroke:none"
           d="m 250.032,316.497 -28.058,0 0,3.468 28.058,0 0,-3.468 z" /><path
           id="path194"
           style="fill:#6d6e70;fill-opacity:1;fill-rule:nonzero;stroke:none"
           d="m 247.179,306.455 -9.751,0 0,3.469 9.751,0 0,-3.469 z m 2.857,6.939 -28.063,0 0,-3.47 14.499,0 -14.499,-4.824 0,-3.199 13.268,3.86 c 1.169,-2.144 2.699,-2.775 2.699,-2.775 l 8.914,0 c 2.866,1.42 3.182,3.87 3.182,3.87 l 0,6.538 z" /><g
           transform="translate(250.0322,301.897)"
           id="g196"><path
             id="path198"
             style="fill:#6d6e70;fill-opacity:1;fill-rule:nonzero;stroke:none"
             d="m 0,0 0,-10.372 -2.851,0 0,3.469 -25.207,0 0,3.468 25.207,0 0,3.435 L 0,0 Z" /></g><g
           transform="translate(237.9399,272.3354)"
           id="g200"><path
             id="path202"
             style="fill:#6d6e70;fill-opacity:1;fill-rule:nonzero;stroke:none"
             d="m 0,0 -9.663,-1.583 0,3.426 L 0,0 Z m 12.096,0 -28.033,6.7 -0.03,0 0,-3.436 3.783,-0.727 0,-4.846 -3.783,-0.694 0,-3.469 L 12.096,0 Z" /></g><g
           transform="translate(250.0322,264.4733)"
           id="g204"><path
             id="path206"
             style="fill:#6d6e70;fill-opacity:1;fill-rule:nonzero;stroke:none"
             d="m 0,0 0,-3.468 -25.207,0 0,-5.188 -2.851,0 0,8.656 L 0,0 Z" /></g><g
           transform="translate(250.0322,227.3786)"
           id="g208"><path
             id="path210"
             style="fill:#6d6e70;fill-opacity:1;fill-rule:nonzero;stroke:none"
             d="M 0,0 0,-3.17 -12.093,-6.407 0,-9.348 l 0,-3.501 -16.505,4.855 -11.553,0 0,3.469 11.553,0 L 0,0 Z" /></g><path
           id="path212"
           style="fill:#6d6e70;fill-opacity:1;fill-rule:nonzero;stroke:none"
           d="m 246.854,231.873 -22.025,0 0,3.471 22.025,0 0,-3.471 z m 3.178,1.73 c 0,3.942 -3.178,5.208 -3.178,5.208 -0.045,-0.031 -21.099,0 -21.699,0 -3.411,-0.521 -3.181,-5.208 -3.181,-5.208 0,-5.2 3.181,-5.199 3.181,-5.199 l 21.699,0 c 3.336,1.345 3.178,5.199 3.178,5.199" /><g
           transform="translate(250.0322,290.171)"
           id="g214"><path
             id="path216"
             style="fill:#6d6e70;fill-opacity:1;fill-rule:nonzero;stroke:none"
             d="m 0,0 0,-3.502 -24.877,0 0,-3.501 24.877,0 0,-3.435 -24.877,0 c 0,0 -3.181,1.123 -3.181,5.054 0,3.93 3.181,5.384 3.181,5.384 L 0,0 Z" /></g><path
           id="path218"
           style="fill:#6d6e70;fill-opacity:1;fill-rule:nonzero;stroke:none"
           d="m 234.581,245.014 -9.751,0 0,3.502 9.751,0 0,-3.502 z m 12.253,0 -9.407,0 0,3.491 9.407,0 0,-3.491 z m 3.202,6.971 -28.063,0 0,-6.971 c 0.765,-3.236 2.856,-3.438 2.856,-3.438 0,0 7.496,0.006 9.434,0.006 1.223,0.244 1.264,1.35 1.264,1.35 0,0 0.341,0.004 0.61,0 0.085,-1.223 1.291,-1.356 1.291,-1.356 0,0 7.488,0.006 9.426,0 2.289,0.53 3.182,3.438 3.182,3.438 l 0,6.971 z" /><g
           transform="translate(224.825,217.2868)"
           id="g220"><path
             id="path222"
             style="fill:#6d6e70;fill-opacity:1;fill-rule:nonzero;stroke:none"
             d="m 0,0 0,-2.411 -0.326,0 0,1.025 -2.525,0 0,0.347 2.525,0 0,1.039 L 0,0 Z" /></g><g
           transform="translate(221.974,214.5294)"
           id="g224"><path
             id="path226"
             style="fill:#6d6e70;fill-opacity:1;fill-rule:nonzero;stroke:none"
             d="m 0,0 2.851,0 0,-0.347 -2.543,-1.238 2.543,-1.189 0,-0.364 -2.851,0 0,0.364 2.207,0 L 0,-1.748 0,-1.398 2.207,-0.347 0,-0.347 0,0 Z" /></g><g
           transform="translate(203.941,303.8989)"
           id="g228"><path
             id="path230"
             style="fill:#1b1c1c;fill-opacity:1;fill-rule:nonzero;stroke:none"
             d="M 0,0 C 0,5.019 -4.336,10.607 -10.185,10.607 -16.034,10.607 -20.369,5.518 -20.369,0 l 0,-61.548 c -0.423,-5.849 4.335,-10.608 10.184,-10.608 5.849,0 10.185,4.906 10.185,10.608 L 0,0 Z" /></g><g
           transform="translate(201.4065,303.8989)"
           id="g232"><path
             id="path234"
             style="fill:#232323;fill-opacity:1;fill-rule:nonzero;stroke:none"
             d="m 0,0 c 0.21,3.927 -3.191,8.072 -7.651,8.072 -4.458,0 -7.624,-3.389 -7.65,-8.072 l 0,-61.548 c -0.064,-4.746 3.192,-8.073 7.65,-8.073 4.46,0 7.994,3.995 7.651,8.073 L 0,0 Z" /></g><path
           id="path236"
           style="fill:#1b1c1c;fill-opacity:1;fill-rule:nonzero;stroke:none"
           d="m 195.201,294.708 -6.43,0 0,-2.922 6.43,0 0,2.922 z" /><g
           transform="translate(195.4929,285.2312)"
           id="g238"><path
             id="path240"
             style="fill:#1b1c1c;fill-opacity:1;fill-rule:nonzero;stroke:none"
             d="m 0,0 c 0,0 -0.061,1.213 -0.976,2.129 l 0.684,0 0,2.923 -6.43,0 0,-2.923 4.175,0 c 1.169,-0.334 1.128,-1.294 1.128,-1.294 0,-1.545 -1.504,-1.462 -1.504,-1.462 l -3.799,0 0,-2.797 3.883,0 C -2.839,-3.424 0,-3.257 0,0" /></g><g
           transform="translate(195.4929,261.6414)"
           id="g242"><path
             id="path244"
             style="fill:#1b1c1c;fill-opacity:1;fill-rule:nonzero;stroke:none"
             d="m 0,0 c 0,0 -0.061,1.213 -0.976,2.129 l 0.684,0 0,2.923 -6.43,0 0,-2.923 4.175,0 c 1.169,-0.334 1.128,-1.294 1.128,-1.294 0,-1.545 -1.504,-1.462 -1.504,-1.462 l -3.799,0 0,-2.797 3.883,0 C -2.839,-3.424 0,-3.257 0,0" /></g><path
           id="path246"
           style="fill:#1b1c1c;fill-opacity:1;fill-rule:nonzero;stroke:none"
           d="m 196.37,291.786 1.941,0 0,2.922 -1.941,0 0,-2.922 z" /><g
           transform="translate(195.8687,275.7951)"
           id="g248"><path
             id="path250"
             style="fill:#1b1c1c;fill-opacity:1;fill-rule:nonzero;stroke:none"
             d="m 0,0 0,1.461 1.503,0 0,2.923 -1.503,0 0,1.211 -0.835,0 0,-1.211 -6.263,0 0,-2.923 6.263,0 L -0.835,0 0,0 Z" /></g><g
           transform="translate(195.4726,243.7923)"
           id="g252"><path
             id="path254"
             style="fill:#1b1c1c;fill-opacity:1;fill-rule:nonzero;stroke:none"
             d="M 0,0 C 0,2.26 -1.59,4.092 -3.55,4.092 -5.509,4.092 -7.098,2.26 -7.098,0 c 0,-2.259 1.589,-4.092 3.548,-4.092 C -1.59,-4.092 0,-2.259 0,0" /></g><g
           transform="translate(194.7197,243.7923)"
           id="g256"><path
             id="path258"
             style="fill:#232323;fill-opacity:1;fill-rule:nonzero;stroke:none"
             d="m 0,0 c 0,0.62 -0.569,1.127 -1.267,1.127 l -3.06,0 C -5.024,1.127 -5.594,0.62 -5.594,0 c 0,-0.62 0.57,-1.127 1.267,-1.127 l 3.06,0 C -0.569,-1.127 0,-0.62 0,0" /></g><g
           transform="translate(198.2909,251.8301)"
           id="g260"><path
             id="path262"
             style="fill:#1b1c1c;fill-opacity:1;fill-rule:nonzero;stroke:none"
             d="m 0,0 -3.283,0 c 0.229,0.42 0.359,0.874 0.359,1.315 0,2.193 -1.542,3.97 -3.444,3.97 -1.902,0 -3.444,-1.777 -3.444,-3.97 0,-0.414 0.165,-0.876 0.449,-1.315 l -0.157,0 0,-2.923 9.52,0 L 0,0 Z" /></g><g
           transform="translate(194.4494,252.9737)"
           id="g264"><path
             id="path266"
             style="fill:#232323;fill-opacity:1;fill-rule:nonzero;stroke:none"
             d="m 0,0 c 0,0.601 -0.519,1.093 -1.154,1.093 l -2.786,0 c -0.635,0 -1.155,-0.492 -1.155,-1.093 0,-0.602 0.52,-1.094 1.155,-1.094 l 2.786,0 C -0.519,-1.094 0,-0.602 0,0" /></g><g
           transform="translate(190.6498,270.4693)"
           id="g268"><path
             id="path270"
             style="fill:#1b1c1c;fill-opacity:1;fill-rule:nonzero;stroke:none"
             d="m 0,0 c -1.044,0 -1.524,0.531 -1.524,1.182 0,0.65 0.57,1.182 1.267,1.182 l 1.426,0 0,-5.466 c 0.035,-0.001 3.654,0.245 3.654,4.284 0,2.37 -1.59,4.29 -3.55,4.29 -1.96,0 -3.548,-1.92 -3.548,-4.29 0,-1.825 0.945,-3.381 2.275,-4.001 L 0,0 Z" /></g><g
           transform="translate(192.8206,270.4693)"
           id="g272"><path
             id="path274"
             style="fill:#232323;fill-opacity:1;fill-rule:nonzero;stroke:none"
             d="m 0,0 0.633,0 c 0.697,0 1.266,0.531 1.266,1.182 0,0.65 -0.569,1.182 -1.266,1.182 L 0,2.364 0,0 Z" /></g><g
           transform="translate(198.3112,306.3157)"
           id="g276"><path
             id="path278"
             style="fill:#1b1c1c;fill-opacity:1;fill-rule:nonzero;stroke:none"
             d="m 0,0 -9.498,0 0,-2.63 6.638,0 -6.68,-4.218 0,-3.006 9.54,0 0,2.923 -6.66,0 L 0,-2.755 0,0 Z" /></g></g></g></g></svg>