<svg xmlns="http://www.w3.org/2000/svg" viewBox="57.1 352 400 100.79096">
  <path fill="#fe0016" d="M57.09999835 352.112994l21.0169491 100.5649715L99.0209022 352.112994h-11.299435l-9.60451975 56.497175-9.7175141-56.497175h-11.299435zm46.44067785 0h11.299435v100.5649715h-11.299435V352.112994zm21.4689265 0v100.5649715h11.299435v-51.977401l15.70621465 51.977401h10.3954802l-12.54237285-47.57062135c7.0056497-4.18079095 9.039548-9.7175141 9.039548-9.7175141V363.412429c-4.63276835-10.28248585-12.6553672-11.41242935-12.6553672-11.41242935l-21.2429378.11299435zm11.299435 10.1694915h11.299435v34.91525415h-11.299435V362.2824855zm26.10169485-10.1694915h33.78531065v10.1694915h-11.299435v90.39548h-11.299435v-90.39548h-11.18644065V352.112994zm96.2711862 0L236.8740092 452.56497115v.11299435h11.18644065l2.37288135-13.559322h15.819209l2.259887 13.559322h11.299435L258.68191875 352.112994zm0 43.27683605l5.1977401 34.68926545H252.6932182l5.98870055-34.68926545zM284.3316362 352.112994h11.299435v90.39548h16.83615815v10.1694915H284.3316362V352.112994zm120.79096015 0h10.28248585l10.50847455 43.3898304 9.60451975-43.3898304h11.41242935l-15.819209 59.2090394v41.46892645h-11.299435V411.3220334l-14.6892655-59.2090394zm-20.22598865 0c-12.8813559 0-16.9491525 11.41242935-16.9491525 11.41242935.11299435.11299435 0 75.59322015 0 77.7401128 1.69491525 12.2033898 16.9491525 11.41242935 16.9491525 11.41242935 16.9491525 0 16.9491525-11.41242935 16.9491525-11.41242935v-77.7401128c-4.40677965-11.9774011-16.9491525-11.41242935-16.9491525-11.41242935zm-5.76271185 11.41242935h11.299435V442.508474h-11.299435v-78.98305065zm-178.531073-11.41242935h11.41242935v89.15254215h11.41242935V352.112994h11.18644065v89.15254215s-3.6158192 11.41242935-16.4971751 11.41242935c-12.8813559 0-17.51412425-11.41242935-17.51412425-11.41242935V352.112994zm124.40677935 0v100.5649715h22.71186435c10.50847455-2.7118644 11.18644065-10.28248585 11.18644065-10.28248585V408.610169c-.79096045-4.40677965-4.40677965-4.519774-4.40677965-4.519774v-2.14689265c3.95480225-.33898305 4.40677965-4.63276835 4.40677965-4.63276835v-33.78531065c-1.69491525-8.24858755-11.18644065-11.41242935-11.18644065-11.41242935H325.0096022zm11.299435 11.41242935h11.41242935v33.6723163H336.3090372v-33.6723163zm0 43.95480215h11.41242935v34.91525415H336.3090372V407.4802255zm101.694915 34.91525415h7.9096045v1.1299435h-3.3898305v9.039548h-1.1299435v-9.039548h-3.3898305v-1.1299435zm8.92655365 10.28248585V442.508474h1.1299435l4.0677966 9.15254235 3.8418079-9.15254235h1.1299435v10.1694915h-1.1299435v-7.9096045l-3.3898305 7.9096045h-1.1299435l-3.3898305-7.9096045v7.9096045h-1.1299435z"/>
</svg>
