<svg xmlns="http://www.w3.org/2000/svg" width="199.86435" height="200">
  <path fill="#b7b6a8" d="M176.9863 200H23.013699C10.410959 200 0 189.58904 0 176.9863V23.013699C0 10.410959 10.410959 0 23.013699 0H176.84932c12.73972 0 23.01369 10.410959 23.01369 23.013699V176.84932C200 189.58904 189.58904 200 176.9863 200z"/>
  <path fill="#a4adb7" d="M149.0411 31.917808H48.356164c-9.041096 0-16.438356 7.39726-16.438356 16.438356V148.76712c0 9.0411 7.39726 16.43836 16.438356 16.43836H149.0411c9.04109 0 16.43835-7.39726 16.43835-16.43836V48.356164c0-9.178082-7.39726-16.438356-16.43835-16.438356z"/>
  <circle cx="39.589039" cy="37.397259" r="19.863014" fill="#960e0c"/>
  <path fill="#421a1a" d="M39.589041 57.945205c-11.369863 0-20.547945-9.178082-20.547945-20.547945 0-11.369863 9.178082-20.547945 20.547945-20.547945 11.369863 0 20.547945 9.178082 20.547945 20.547945 0 11.369863-9.178082 20.547945-20.547945 20.547945zm0-39.726027c-10.547945 0-19.178082 8.630137-19.178082 19.178082s8.630137 19.178082 19.178082 19.178082 19.178082-8.630137 19.178082-19.178082-8.630137-19.178082-19.178082-19.178082z"/>
  <path fill="#b7b6a8" d="M62.191781 37.39726C62.191781 49.863014 52.054795 60 39.589041 60c-12.465753 0-22.60274-10.136986-22.60274-22.60274 0-12.465753 10.136987-22.602739 22.60274-22.602739 12.465754 0 22.60274 10.136986 22.60274 22.602739zm-22.60274-19.863013c-10.958904 0-19.863014 8.904109-19.863014 19.863013 0 10.958904 8.90411 19.863014 19.863014 19.863014s19.863014-8.90411 19.863014-19.863014-8.90411-19.863013-19.863014-19.863013z"/>
  <circle cx="157.94521" cy="37.397259" r="19.863014" fill="#960e0c"/>
  <path fill="#421a1a" d="M157.94521 57.945205c-11.36987 0-20.54795-9.178082-20.54795-20.547945 0-11.369863 9.17808-20.547945 20.54795-20.547945 11.36986 0 20.54794 9.178082 20.54794 20.547945 0 11.369863-9.31507 20.547945-20.54794 20.547945zm0-39.726027c-10.54795 0-19.17809 8.630137-19.17809 19.178082s8.63014 19.178082 19.17809 19.178082c10.54794 0 19.17808-8.630137 19.17808-19.178082s-8.63014-19.178082-19.17808-19.178082z"/>
  <path fill="#b7b6a8" d="M180.54795 37.39726C180.54795 49.863014 170.41096 60 157.94521 60c-12.46576 0-22.60274-10.136986-22.60274-22.60274 0-12.465753 10.13698-22.602739 22.60274-22.602739 12.46575 0 22.60274 10.136986 22.60274 22.602739zm-22.60274-19.863013c-10.95891 0-19.86302 8.904109-19.86302 19.863013 0 10.958904 8.90411 19.863014 19.86302 19.863014 10.9589 0 19.86301-8.90411 19.86301-19.863014s-8.90411-19.863013-19.86301-19.863013z"/>
  <circle cx="98.76712" cy="98.493149" r="58.219177" fill="#231f20"/>
</svg>
