<?xml version="1.0" encoding="UTF-8" standalone="no"?>
<svg
   xmlns:dc="http://purl.org/dc/elements/1.1/"
   xmlns:cc="http://creativecommons.org/ns#"
   xmlns:rdf="http://www.w3.org/1999/02/22-rdf-syntax-ns#"
   xmlns:svg="http://www.w3.org/2000/svg"
   xmlns="http://www.w3.org/2000/svg"
   viewBox="0 0 633.65002 295.85126"
   height="295.85126"
   width="633.65002"
   xml:space="preserve"
   version="1.1"
   id="svg2"><metadata
     id="metadata8"><rdf:RDF><cc:Work
         rdf:about=""><dc:format>image/svg+xml</dc:format><dc:type
           rdf:resource="http://purl.org/dc/dcmitype/StillImage" /><dc:title></dc:title></cc:Work></rdf:RDF></metadata><defs
     id="defs6"><clipPath
       id="clipPath54"
       clipPathUnits="userSpaceOnUse"><path
         id="path56"
         d="m 0,236.681 506.92,0 L 506.92,0 0,0 0,236.681 Z" /></clipPath></defs><g
     transform="matrix(1.25,0,0,-1.25,0,295.85125)"
     id="g10"><path
       id="path12"
       style="fill:#444141;fill-opacity:1;fill-rule:nonzero;stroke:none"
       d="m 402.784,8.439 -295.718,0 0,220.033 295.718,0 0,-220.033 z" /><g
       transform="translate(289.3164,205.8887)"
       id="g14"><path
         id="path16"
         style="fill:#f57a14;fill-opacity:1;fill-rule:nonzero;stroke:none"
         d="m 0,0 -9.476,-3.438 9.537,0 3.627,2.003 L 0,0 Z" /></g><g
       transform="translate(280.4678,215.8047)"
       id="g18"><path
         id="path20"
         style="fill:#f57a14;fill-opacity:1;fill-rule:nonzero;stroke:none"
         d="m 0,0 11.257,0 14.988,-7.599 -5.878,0 -4.132,1.901 L 13.686,-6.734 0,0 Z" /></g><g
       transform="translate(301.4336,212.3242)"
       id="g22"><path
         id="path24"
         style="fill:#f57a14;fill-opacity:1;fill-rule:nonzero;stroke:none"
         d="m 0,0 9.477,3.434 -9.537,0 -3.626,-2 L 0,0 Z" /></g><g
       transform="translate(310.2832,202.4072)"
       id="g26"><path
         id="path28"
         style="fill:#f57a14;fill-opacity:1;fill-rule:nonzero;stroke:none"
         d="m 0,0 -11.257,0 -14.988,7.599 5.878,0 4.132,-1.901 2.547,1.037 L 0,0 Z" /></g><path
       id="path30"
       style="fill:#f57a14;fill-opacity:1;fill-rule:nonzero;stroke:none"
       d="m 209.422,215.896 7.461,0 0,-9.117 -7.461,0 0,9.117 z" /><path
       id="path32"
       style="fill:#f57a14;fill-opacity:1;fill-rule:nonzero;stroke:none"
       d="m 209.422,205.663 19.119,0 0,-2.791 -19.119,0 0,2.791 z" /><g
       transform="translate(221.5469,215.8965)"
       id="g34"><path
         id="path36"
         style="fill:#f57a14;fill-opacity:1;fill-rule:nonzero;stroke:none"
         d="M 0,0 8.861,0 14.923,-5.115 10.541,-8.331 0,0 Z" /></g><g
       transform="translate(232.7393,207.0586)"
       id="g38"><path
         id="path40"
         style="fill:#f57a14;fill-opacity:1;fill-rule:nonzero;stroke:none"
         d="m 0,0 0,-4.186 6.995,0 0,4.186 13.524,8.838 -6.529,0 L 0.467,0 0,0 Z" /></g><g
       transform="translate(254.1914,214.502)"
       id="g42"><path
         id="path44"
         style="fill:#f57a14;fill-opacity:1;fill-rule:nonzero;stroke:none"
         d="m 0,0 7.462,-4.652 0,-6.978 L 0,-11.63 0,0 Z" /></g><g
       transform="translate(255.124,215.8965)"
       id="g46"><path
         id="path48"
         style="fill:#f57a14;fill-opacity:1;fill-rule:nonzero;stroke:none"
         d="m 0,0 19.121,-13.024 4.196,0 0,13.026 -3.637,0 0,-9.16 L 6.064,0 0,0 Z" /></g><g
       id="g50"><g
         clip-path="url(#clipPath54)"
         id="g52"><g
           transform="translate(339.499,44.0713)"
           id="g58"><path
             id="path60"
             style="fill:#4f4c4d;fill-opacity:1;fill-rule:nonzero;stroke:none"
             d="m 0,0 c 9.165,0 16.596,33.251 16.596,74.27 0,41.016 -7.431,74.268 -16.596,74.268 l -171.148,0 c -9.166,0 -16.596,-33.252 -16.596,-74.268 0,-41.019 7.43,-74.27 16.596,-74.27 L 0,0 Z" /></g><path
           id="path62"
           style="fill:#393536;fill-opacity:1;fill-rule:nonzero;stroke:none"
           d="m 335.801,65.11 -165.107,0 0,106.427 165.107,0 0,-106.427 z" /><g
           transform="translate(331.8564,175.2188)"
           id="g64"><path
             id="path66"
             style="fill:#444141;fill-opacity:1;fill-rule:nonzero;stroke:none"
             d="m 0,0 -156.809,0 c -4.124,0 -7.477,-3.355 -7.477,-7.479 l 0,-98.572 c 0,-4.123 3.353,-7.478 7.477,-7.478 l 156.809,0 c 4.124,0 7.479,3.355 7.479,7.478 l 0,98.572 C 7.479,-3.355 4.124,0 0,0 m 0,-5.439 c 1.122,0 2.039,-0.917 2.039,-2.04 l 0,-98.572 c 0,-1.122 -0.917,-2.039 -2.039,-2.039 l -156.809,0 c -1.121,0 -2.039,0.917 -2.039,2.039 l 0,98.572 c 0,1.123 0.918,2.04 2.039,2.04 L 0,-5.439" /></g><g
           transform="translate(133.9336,8.166)"
           id="g68"><path
             id="path70"
             style="fill:#444141;fill-opacity:1;fill-rule:nonzero;stroke:none"
             d="m 0,0 -25.039,-8.055 c -0.231,-0.072 -0.473,-0.111 -0.714,-0.111 l -82.646,0 c -0.924,0 -1.76,0.546 -2.134,1.391 -15.309,34.759 -23.401,75.199 -23.401,116.949 0,41.752 8.092,82.191 23.401,116.949 0.374,0.846 1.21,1.392 2.134,1.392 l 82.646,0 c 0.241,0 0.483,-0.038 0.714,-0.112 L 0,220.35 C -13.945,188.687 -22.058,150.902 -22.058,110.176 -22.058,69.447 -13.945,31.661 0,0" /></g><g
           transform="translate(131.8662,12.3906)"
           id="g72"><path
             id="path74"
             style="fill:#4f4c4d;fill-opacity:1;fill-rule:nonzero;stroke:none"
             d="m 0,0 -24.08,-7.745 c -0.222,-0.07 -0.452,-0.107 -0.686,-0.107 l -79.475,0 c -0.89,0 -1.695,0.524 -2.053,1.338 -14.722,33.426 -22.504,72.315 -22.504,112.463 0,40.151 7.782,79.039 22.504,112.465 0.358,0.813 1.163,1.338 2.053,1.338 l 79.475,0 c 0.234,0 0.464,-0.037 0.686,-0.107 L 0,211.899 C -13.409,181.453 -21.213,145.116 -21.213,105.951 -21.213,66.785 -13.409,30.447 0,0" /></g><g
           transform="translate(372.9854,8.166)"
           id="g76"><path
             id="path78"
             style="fill:#444141;fill-opacity:1;fill-rule:nonzero;stroke:none"
             d="m 0,0 25.04,-8.055 c 0.231,-0.072 0.472,-0.111 0.714,-0.111 l 82.646,0 c 0.924,0 1.761,0.546 2.134,1.391 15.31,34.759 23.401,75.199 23.401,116.949 0,41.752 -8.091,82.191 -23.401,116.949 -0.373,0.846 -1.21,1.392 -2.134,1.392 l -82.646,0 c -0.242,0 -0.483,-0.038 -0.714,-0.112 L 0,220.35 C 13.946,188.687 22.059,150.902 22.059,110.176 22.059,69.447 13.946,31.661 0,0" /></g><g
           transform="translate(374.9316,12.3906)"
           id="g80"><path
             id="path82"
             style="fill:#4f4c4d;fill-opacity:1;fill-rule:nonzero;stroke:none"
             d="m 0,0 24.079,-7.745 c 0.222,-0.07 0.454,-0.107 0.687,-0.107 l 79.476,0 c 0.889,0 1.694,0.524 2.051,1.338 14.723,33.426 22.505,72.315 22.505,112.463 0,40.151 -7.782,79.039 -22.505,112.465 -0.357,0.813 -1.162,1.338 -2.051,1.338 l -79.476,0 c -0.233,0 -0.465,-0.037 -0.687,-0.107 L 0,211.899 C 13.41,181.453 21.212,145.116 21.212,105.951 21.212,66.785 13.41,30.447 0,0" /></g><g
           transform="translate(99.3296,69.8184)"
           id="g84"><path
             id="path86"
             style="fill:#444141;fill-opacity:1;fill-rule:nonzero;stroke:none"
             d="m 0,0 c -0.656,0 -1.233,0.475 -1.341,1.143 -2.491,15.433 -3.755,31.375 -3.755,47.38 0,15.88 1.246,31.711 3.703,47.053 0.119,0.741 0.813,1.248 1.557,1.127 0.742,-0.119 1.247,-0.816 1.128,-1.557 -2.434,-15.2 -3.668,-30.886 -3.668,-46.623 0,-15.861 1.251,-31.656 3.72,-46.947 C 1.463,0.835 0.96,0.137 0.218,0.018 0.145,0.006 0.072,0 0,0" /></g><g
           transform="translate(106.1587,71.7773)"
           id="g88"><path
             id="path90"
             style="fill:#444141;fill-opacity:1;fill-rule:nonzero;stroke:none"
             d="m 0,0 c -0.66,0 -1.239,0.48 -1.342,1.152 -2.285,14.812 -3.444,30.09 -3.444,45.412 0,15.216 1.141,30.385 3.392,45.084 0.113,0.743 0.81,1.25 1.549,1.139 C 0.898,92.674 1.407,91.98 1.293,91.238 -0.936,76.674 -2.066,61.643 -2.066,46.564 -2.066,31.381 -0.919,16.242 1.345,1.567 1.459,0.824 0.951,0.131 0.209,0.016 0.139,0.005 0.069,0 0,0" /></g><g
           transform="translate(384.8818,108.5977)"
           id="g92"><path
             id="path94"
             style="fill:#5a5758;fill-opacity:1;fill-rule:nonzero;stroke:none"
             d="m 0,0 c 0,-1.502 -1.219,-2.72 -2.72,-2.72 l -6.797,0 c -1.502,0 -2.72,1.218 -2.72,2.72 l 0,19.941 c 0,1.501 1.218,2.719 2.72,2.719 l 6.797,0 C -1.219,22.66 0,21.442 0,19.941 L 0,0 Z" /></g><g
           transform="translate(382.1758,72.5)"
           id="g96"><path
             id="path98"
             style="fill:#5a5758;fill-opacity:1;fill-rule:nonzero;stroke:none"
             d="m 0,0 c -0.157,-1.492 -1.496,-2.576 -2.989,-2.42 l -6.761,0.711 c -1.493,0.157 -2.577,1.496 -2.42,2.989 l 2.083,19.831 c 0.157,1.494 1.496,2.576 2.989,2.42 L -0.337,22.82 C 1.156,22.664 2.24,21.326 2.083,19.832 L 0,0 Z" /></g><g
           transform="translate(382.1758,164.8613)"
           id="g100"><path
             id="path102"
             style="fill:#5a5758;fill-opacity:1;fill-rule:nonzero;stroke:none"
             d="M 0,0 C -0.157,1.493 -1.496,2.576 -2.989,2.42 L -9.75,1.71 c -1.493,-0.157 -2.577,-1.495 -2.42,-2.989 l 2.083,-19.832 c 0.157,-1.493 1.496,-2.576 2.989,-2.419 l 6.761,0.71 c 1.493,0.157 2.577,1.496 2.42,2.988 L 0,0 Z" /></g><g
           transform="translate(123.5596,108.5977)"
           id="g104"><path
             id="path106"
             style="fill:#5a5758;fill-opacity:1;fill-rule:nonzero;stroke:none"
             d="m 0,0 c 0,-1.502 1.218,-2.72 2.719,-2.72 l 6.799,0 c 1.5,0 2.718,1.218 2.718,2.72 l 0,19.941 c 0,1.501 -1.218,2.719 -2.718,2.719 l -6.799,0 C 1.218,22.66 0,21.442 0,19.941 L 0,0 Z" /></g><g
           transform="translate(126.2656,72.5)"
           id="g108"><path
             id="path110"
             style="fill:#5a5758;fill-opacity:1;fill-rule:nonzero;stroke:none"
             d="m 0,0 c 0.157,-1.492 1.495,-2.576 2.988,-2.42 l 6.762,0.711 c 1.493,0.157 2.577,1.496 2.42,2.989 l -2.084,19.831 c -0.157,1.494 -1.495,2.576 -2.99,2.42 L 0.336,22.82 C -1.157,22.664 -2.24,21.326 -2.084,19.832 L 0,0 Z" /></g><g
           transform="translate(126.2656,164.8613)"
           id="g112"><path
             id="path114"
             style="fill:#5a5758;fill-opacity:1;fill-rule:nonzero;stroke:none"
             d="M 0,0 C 0.157,1.493 1.495,2.576 2.988,2.42 L 9.75,1.71 c 1.493,-0.157 2.577,-1.495 2.42,-2.989 l -2.084,-19.832 c -0.157,-1.493 -1.495,-2.576 -2.99,-2.419 l -6.76,0.71 c -1.493,0.157 -2.576,1.496 -2.42,2.988 L 0,0 Z" /></g><g
           transform="translate(150.0068,210.7949)"
           id="g116"><path
             id="path118"
             style="fill:#f1512a;fill-opacity:1;fill-rule:nonzero;stroke:none"
             d="m 0,0 c 0,-1.877 -1.521,-3.398 -3.399,-3.398 -1.877,0 -3.399,1.521 -3.399,3.398 0,1.878 1.522,3.399 3.399,3.399 C -1.521,3.399 0,1.878 0,0" /></g><g
           transform="translate(428.584,188.2295)"
           id="g120"><path
             id="path122"
             style="fill:#393536;fill-opacity:1;fill-rule:nonzero;stroke:none"
             d="m 0,0 c 0.385,-1.415 -0.451,-2.878 -1.868,-3.262 l -25.968,-7.058 c -1.416,-0.386 -2.876,0.45 -3.262,1.868 l -7.059,25.967 c -0.384,1.418 0.451,2.877 1.868,3.262 l 25.968,7.058 c 1.416,0.386 2.876,-0.449 3.26,-1.867 L 0,0 Z" /></g><g
           transform="translate(422.3291,200.4736)"
           id="g124"><path
             id="path126"
             style="fill:#5a5758;fill-opacity:1;fill-rule:nonzero;stroke:none"
             d="m 0,0 c 1.926,-7.083 -2.255,-14.385 -9.338,-16.311 -7.082,-1.924 -14.385,2.256 -16.31,9.339 -1.925,7.082 2.257,14.385 9.339,16.309 C -9.228,11.263 -1.925,7.082 0,0" /></g><g
           transform="translate(470.7324,200.126)"
           id="g128"><path
             id="path130"
             style="fill:#393536;fill-opacity:1;fill-rule:nonzero;stroke:none"
             d="m 0,0 c 0.385,-1.415 -0.452,-2.878 -1.869,-3.262 l -25.967,-7.058 c -1.416,-0.385 -2.877,0.45 -3.263,1.868 l -7.057,25.968 c -0.385,1.417 0.451,2.876 1.867,3.261 l 25.968,7.059 c 1.416,0.385 2.875,-0.451 3.261,-1.867 L 0,0 Z" /></g><g
           transform="translate(464.4766,212.3701)"
           id="g132"><path
             id="path134"
             style="fill:#5a5758;fill-opacity:1;fill-rule:nonzero;stroke:none"
             d="m 0,0 c 1.926,-7.083 -2.254,-14.385 -9.337,-16.31 -7.083,-1.924 -14.385,2.256 -16.31,9.338 -1.925,7.083 2.257,14.385 9.338,16.308 C -9.227,11.263 -1.925,7.083 0,0" /></g><g
           transform="translate(432.5752,18.6172)"
           id="g136"><path
             id="path138"
             style="fill:#393536;fill-opacity:1;fill-rule:nonzero;stroke:none"
             d="m 0,0 c -0.386,-1.416 0.452,-2.878 1.868,-3.262 l 25.968,-7.058 c 1.416,-0.385 2.875,0.45 3.262,1.867 l 7.058,25.969 c 0.385,1.416 -0.451,2.876 -1.868,3.261 L 10.321,27.836 C 8.905,28.221 7.444,27.385 7.06,25.969 L 0,0 Z" /></g><g
           transform="translate(438.8301,30.8613)"
           id="g140"><path
             id="path142"
             style="fill:#5a5758;fill-opacity:1;fill-rule:nonzero;stroke:none"
             d="m 0,0 c -1.926,-7.084 2.254,-14.385 9.338,-16.311 7.081,-1.923 14.385,2.256 16.309,9.339 C 27.572,0.11 23.391,7.412 16.308,9.336 9.227,11.262 1.926,7.082 0,0" /></g><g
           transform="translate(390.4268,30.5137)"
           id="g144"><path
             id="path146"
             style="fill:#393536;fill-opacity:1;fill-rule:nonzero;stroke:none"
             d="m 0,0 c -0.386,-1.416 0.451,-2.877 1.868,-3.262 l 25.968,-7.058 c 1.416,-0.385 2.876,0.451 3.262,1.867 l 7.059,25.969 c 0.384,1.416 -0.451,2.876 -1.868,3.261 L 10.321,27.836 C 8.905,28.221 7.445,27.385 7.061,25.969 L 0,0 Z" /></g><g
           transform="translate(396.6816,42.7578)"
           id="g148"><path
             id="path150"
             style="fill:#5a5758;fill-opacity:1;fill-rule:nonzero;stroke:none"
             d="m 0,0 c -1.926,-7.084 2.255,-14.385 9.338,-16.311 7.082,-1.923 14.385,2.256 16.31,9.339 C 27.572,0.111 23.39,7.412 16.309,9.336 9.227,11.262 1.925,7.082 0,0" /></g><g
           transform="translate(89.8867,128.625)"
           id="g152"><path
             id="path154"
             style="fill:#393536;fill-opacity:1;fill-rule:nonzero;stroke:none"
             d="m 0,0 c 0,2.243 -1.836,4.078 -4.079,4.078 l -11.729,0 c -2.244,0 -4.08,1.836 -4.08,4.079 l 0,11.73 c 0,2.244 -1.835,4.078 -4.078,4.078 l -21.291,0 c -2.244,0 -4.08,-1.834 -4.08,-4.078 l 0,-11.73 c 0,-2.243 -1.836,-4.079 -4.078,-4.079 l -11.73,0 c -2.243,0 -4.08,-1.835 -4.08,-4.078 l 0,-21.292 c 0,-2.243 1.837,-4.079 4.08,-4.079 l 11.73,0 c 2.242,0 4.078,-1.836 4.078,-4.079 l 0,-11.729 c 0,-2.243 1.836,-4.079 4.08,-4.079 l 21.291,0 c 2.243,0 4.078,1.836 4.078,4.079 l 0,11.729 c 0,2.243 1.836,4.079 4.08,4.079 l 11.729,0 c 2.243,0 4.079,1.836 4.079,4.079 L 0,0 Z" /></g><g
           transform="translate(86.6563,117.9981)"
           id="g156"><path
             id="path158"
             style="fill:#5a5758;fill-opacity:1;fill-rule:nonzero;stroke:none"
             d="m 0,0 c 0,-6.523 -5.287,-11.792 -11.81,-11.792 l -4.614,0.038 c -1.751,0 -3.184,-1.434 -3.184,-3.185 l 0,-4.575 c 0,-6.523 -5.289,-11.81 -11.811,-11.81 -6.523,0 -11.753,5.287 -11.753,11.81 l 0.018,4.575 c 0,1.751 -1.433,3.185 -3.185,3.185 l -4.614,-0.038 c -6.522,0 -11.809,5.269 -11.809,11.792 0,6.521 5.287,11.791 11.809,11.791 l 4.614,-0.037 c 1.752,0 3.185,1.432 3.185,3.183 l -0.018,4.577 c 0,6.522 5.23,11.81 11.753,11.81 6.522,0 11.811,-5.288 11.811,-11.81 l 0,-4.577 c 0,-1.751 1.433,-3.183 3.184,-3.183 l 4.614,0.037 C -5.287,11.791 0,6.521 0,0" /></g><path
           id="path160"
           style="fill:#7b7979;fill-opacity:1;fill-rule:evenodd;stroke:none"
           d="m 271.543,34.961 1.457,0 0,-8.474 -1.457,0 0,8.474 z m -16.674,-1.449 0,1.442 5.085,0 0,-1.442 -1.808,0 -0.006,-7.025 -1.456,0 0,7.018 -1.815,0.007 z m 14.342,-3.526 c 0.968,0.371 1.652,1.306 1.652,2.403 0,1.421 -1.151,2.572 -2.573,2.572 l -0.996,0.006 c -0.923,0.004 -1.457,-0.484 -1.457,-1.458 l 0,-6.972 1.457,0 0,7.017 0.898,0 c 0.684,0 1.238,-0.555 1.238,-1.24 0,-0.609 -0.439,-1.114 -1.018,-1.218 -0.102,-0.025 -0.205,-0.055 -0.301,-0.112 -0.507,-0.306 -0.671,-0.966 -0.365,-1.472 l 1.831,-3.025 1.539,0 -1.99,3.274 c -0.044,0.071 -0.021,0.163 0.051,0.206 0.012,0.008 0.028,0.012 0.041,0.015 l -0.007,0.004 z m -17.656,-1.47 -0.553,-2.016 -1.529,0 2.135,7.746 c 0.134,0.447 0.55,0.775 1.044,0.775 0.492,0 0.911,-0.328 1.046,-0.775 l 2.343,-7.759 -1.519,0.013 -0.615,2.012 -2.352,0.004 z m 1.941,1.348 -0.828,2.701 -0.739,-2.696 1.567,-0.005 z m 7.432,-1.348 -0.554,-2.016 -1.53,0 2.137,7.746 c 0.133,0.447 0.55,0.775 1.043,0.775 0.494,0 0.912,-0.328 1.045,-0.775 l 2.344,-7.759 -1.518,0.013 -0.615,2.012 -2.352,0.004 z m 1.94,1.348 -0.827,2.701 -0.74,-2.696 1.567,-0.005 z m -21.166,5.317 1.335,0 0,-8.693 -1.335,0 0,8.693 z m -0.219,0 -0.933,0 0,-2.625 c 0,-2.204 -1.513,-4.056 -3.556,-4.574 l -0.004,-1.491 c 2.552,0.423 4.498,2.644 4.496,5.31 l -0.003,3.38 z m 1.777,0 0.933,0 0,-2.625 c 0,-2.204 1.511,-4.056 3.556,-4.574 l 0.002,-1.491 c -2.551,0.423 -4.497,2.644 -4.495,5.31 l 0.004,3.38 z" /><g
           transform="translate(462.7822,54.1035)"
           id="g162"><path
             id="path164"
             style="fill:#444141;fill-opacity:1;fill-rule:nonzero;stroke:none"
             d="M 0,0 C -0.097,0 -0.195,0.01 -0.295,0.031 -1.027,0.193 -1.49,0.92 -1.328,1.652 3.121,21.78 5.377,42.837 5.377,64.238 c 0,21.285 -2.232,42.235 -6.635,62.267 -0.161,0.733 0.303,1.459 1.036,1.62 0.739,0.158 1.459,-0.303 1.62,-1.036 C 5.843,106.865 8.096,85.719 8.096,64.238 8.096,42.641 5.818,21.386 1.326,1.066 1.187,0.432 0.624,0 0,0" /></g><g
           transform="translate(449.0107,58.0537)"
           id="g166"><path
             id="path168"
             style="fill:#444141;fill-opacity:1;fill-rule:nonzero;stroke:none"
             d="m 0,0 c -0.091,0 -0.183,0.009 -0.274,0.028 -0.737,0.151 -1.21,0.87 -1.059,1.606 3.892,18.928 5.865,38.662 5.865,58.654 0,19.889 -1.951,39.516 -5.798,58.334 -0.15,0.736 0.325,1.454 1.06,1.605 0.737,0.155 1.454,-0.326 1.604,-1.06 C 5.282,100.17 7.251,80.36 7.251,60.288 7.251,40.112 5.26,20.193 1.331,1.086 1.198,0.442 0.632,0 0,0" /></g><g
           transform="translate(434.5381,62.2051)"
           id="g170"><path
             id="path172"
             style="fill:#444141;fill-opacity:1;fill-rule:nonzero;stroke:none"
             d="m 0,0 c -0.085,0 -0.17,0.008 -0.256,0.024 -0.737,0.14 -1.222,0.852 -1.082,1.589 3.349,17.65 5.047,35.993 5.047,54.524 0,18.41 -1.678,36.646 -4.987,54.201 -0.14,0.738 0.345,1.449 1.084,1.588 0.734,0.14 1.448,-0.346 1.587,-1.084 C 4.734,93.121 6.428,74.715 6.428,56.137 6.428,37.438 4.714,18.922 1.334,1.107 1.21,0.455 0.64,0 0,0" /></g><g
           transform="translate(424.2061,65.169)"
           id="g174"><path
             id="path176"
             style="fill:#444141;fill-opacity:1;fill-rule:nonzero;stroke:none"
             d="m 0,0 c -0.08,0 -0.16,0.007 -0.241,0.021 -0.739,0.132 -1.232,0.839 -1.1,1.578 2.989,16.73 4.505,34.082 4.505,51.574 0,17.385 -1.496,34.629 -4.445,51.252 -0.131,0.738 0.362,1.444 1.101,1.576 0.733,0.131 1.445,-0.362 1.576,-1.102 C 4.373,88.12 5.883,70.718 5.883,53.173 5.883,35.521 4.354,18.009 1.337,1.12 1.219,0.462 0.646,0 0,0" /></g><g
           transform="translate(413.8418,68.1416)"
           id="g178"><path
             id="path180"
             style="fill:#444141;fill-opacity:1;fill-rule:nonzero;stroke:none"
             d="m 0,0 c -0.075,0 -0.15,0.007 -0.227,0.019 -0.74,0.125 -1.24,0.826 -1.116,1.566 2.651,15.811 3.994,32.168 3.994,48.615 0,16.334 -1.326,32.582 -3.939,48.292 -0.124,0.741 0.377,1.441 1.117,1.565 0.748,0.116 1.442,-0.378 1.565,-1.119 C 4.032,83.082 5.37,66.685 5.37,50.2 5.37,33.603 4.014,17.095 1.339,1.136 1.228,0.471 0.651,0 0,0" /></g><g
           transform="translate(407.999,69.8184)"
           id="g182"><path
             id="path184"
             style="fill:#444141;fill-opacity:1;fill-rule:nonzero;stroke:none"
             d="m 0,0 c -0.072,0 -0.146,0.006 -0.219,0.018 -0.741,0.119 -1.245,0.817 -1.125,1.558 2.468,15.291 3.72,31.086 3.72,46.947 0,15.749 -1.234,31.436 -3.669,46.622 -0.118,0.742 0.386,1.439 1.128,1.558 0.731,0.115 1.438,-0.385 1.558,-1.127 C 3.85,80.247 5.095,64.416 5.095,48.523 5.095,32.518 3.832,16.576 1.34,1.143 1.232,0.475 0.655,0 0,0" /></g><g
           transform="translate(401.1699,71.7773)"
           id="g186"><path
             id="path188"
             style="fill:#444141;fill-opacity:1;fill-rule:nonzero;stroke:none"
             d="m 0,0 c -0.069,0 -0.139,0.005 -0.209,0.016 -0.742,0.115 -1.251,0.808 -1.137,1.551 2.265,14.673 3.413,29.812 3.413,44.997 0,15.081 -1.131,30.112 -3.361,44.673 -0.114,0.743 0.396,1.437 1.138,1.55 C 0.595,92.898 1.28,92.391 1.394,91.65 3.645,76.951 4.786,61.782 4.786,46.564 4.786,31.24 3.627,15.961 1.342,1.152 1.238,0.48 0.659,0 0,0" /></g><g
           transform="translate(453.4199,126.7793)"
           id="g190"><path
             id="path192"
             style="fill:#393536;fill-opacity:1;fill-rule:nonzero;stroke:none"
             d="m 0,0 c 0.049,-1.717 0.085,-3.438 0.103,-5.16 l 2.718,0.058 C 2.802,-3.345 2.767,-1.59 2.717,0.163 L 0,0 Z" /></g><g
           transform="translate(427.0723,131.6856)"
           id="g194"><path
             id="path196"
             style="fill:#393536;fill-opacity:1;fill-rule:nonzero;stroke:none"
             d="M 0,0 2.707,0.291 C 2.649,1.576 2.573,2.858 2.499,4.141 L -0.2,3.703 C -0.13,2.47 -0.055,1.236 0,0" /></g><g
           transform="translate(416.2471,130.5234)"
           id="g198"><path
             id="path200"
             style="fill:#393536;fill-opacity:1;fill-rule:nonzero;stroke:none"
             d="M 0,0 2.708,0.29 C 2.663,1.381 2.6,2.467 2.542,3.557 l -2.7,-0.438 C -0.105,2.079 -0.042,1.041 0,0" /></g><g
           transform="translate(429.7647,104.4356)"
           id="g202"><path
             id="path204"
             style="fill:#393536;fill-opacity:1;fill-rule:nonzero;stroke:none"
             d="m 0,0 -2.707,0.291 c -0.056,-1.236 -0.13,-2.469 -0.202,-3.703 l 2.7,-0.438 C -0.133,-2.566 -0.059,-1.285 0,0" /></g><g
           transform="translate(453.5215,114.791)"
           id="g206"><path
             id="path208"
             style="fill:#393536;fill-opacity:1;fill-rule:nonzero;stroke:none"
             d="m 0,0 c -0.021,-1.723 -0.06,-3.442 -0.109,-5.16 l 2.715,-0.162 c 0.052,1.752 0.091,3.507 0.113,5.263 L 0,0 Z" /></g><g
           transform="translate(440.5898,103.2734)"
           id="g210"><path
             id="path212"
             style="fill:#393536;fill-opacity:1;fill-rule:nonzero;stroke:none"
             d="m 0,0 -2.708,0.291 c -0.07,-1.432 -0.151,-2.859 -0.242,-4.287 l 2.696,-0.437 C -0.158,-2.957 -0.074,-1.48 0,0" /></g><g
           transform="translate(455.7988,101.6406)"
           id="g214"><path
             id="path216"
             style="fill:#393536;fill-opacity:1;fill-rule:nonzero;stroke:none"
             d="m 0,0 -2.707,0.29 c -0.094,-1.704 -0.2,-3.405 -0.321,-5.104 L -0.333,-5.25 C -0.206,-3.504 -0.097,-1.754 0,0" /></g><g
           transform="translate(465.8623,155.3193)"
           id="g218"><path
             id="path220"
             style="fill:#393536;fill-opacity:1;fill-rule:nonzero;stroke:none"
             d="m 0,0 c 0.254,-2.021 0.488,-4.045 0.7,-6.077 l 2.676,0.572 C 3.158,-3.429 2.913,-1.36 2.652,0.704 L 0,0 Z" /></g><g
           transform="translate(437.6563,137.1357)"
           id="g222"><path
             id="path224"
             style="fill:#393536;fill-opacity:1;fill-rule:nonzero;stroke:none"
             d="m 0,0 c 0.089,-1.427 0.17,-2.856 0.239,-4.288 l 2.708,0.291 C 2.875,-2.518 2.791,-1.039 2.696,0.437 L 0,0 Z" /></g><g
           transform="translate(430.0039,125.3789)"
           id="g226"><path
             id="path228"
             style="fill:#393536;fill-opacity:1;fill-rule:nonzero;stroke:none"
             d="m 0,0 -2.715,-0.163 c 0.031,-1.382 0.039,-2.767 0.052,-4.149 l 2.719,0.057 C 0.043,-2.836 0.033,-1.417 0,0" /></g><g
           transform="translate(419.1846,115.5156)"
           id="g230"><path
             id="path232"
             style="fill:#393536;fill-opacity:1;fill-rule:nonzero;stroke:none"
             d="M 0,0 -2.721,0.059 C -2.732,-1.186 -2.738,-2.428 -2.764,-3.67 l 2.715,-0.163 C -0.022,-2.556 -0.013,-1.277 0,0" /></g><g
           transform="translate(416.4678,120.8369)"
           id="g234"><path
             id="path236"
             style="fill:#393536;fill-opacity:1;fill-rule:nonzero;stroke:none"
             d="M 0,0 2.719,0.058 C 2.709,1.335 2.702,2.614 2.676,3.891 L -0.039,3.728 C -0.015,2.487 -0.01,1.243 0,0" /></g><g
           transform="translate(438.1504,125.8652)"
           id="g238"><path
             id="path240"
             style="fill:#393536;fill-opacity:1;fill-rule:nonzero;stroke:none"
             d="m 0,0 c 0.038,-1.521 0.064,-3.044 0.081,-4.568 l 2.717,0.056 C 2.783,-2.951 2.755,-1.393 2.715,0.163 L 0,0 Z" /></g><g
           transform="translate(440.9473,115.0566)"
           id="g242"><path
             id="path244"
             style="fill:#393536;fill-opacity:1;fill-rule:nonzero;stroke:none"
             d="M 0,0 -2.719,0.057 C -2.734,-1.467 -2.766,-2.99 -2.804,-4.512 l 2.716,-0.162 C -0.048,-3.117 -0.017,-1.561 0,0" /></g><g
           transform="translate(430.0557,115.2861)"
           id="g246"><path
             id="path248"
             style="fill:#393536;fill-opacity:1;fill-rule:nonzero;stroke:none"
             d="M 0,0 -2.718,0.058 C -2.733,-1.325 -2.743,-2.71 -2.776,-4.091 l 2.715,-0.162 C -0.026,-2.837 -0.014,-1.418 0,0" /></g><g
           transform="translate(418.9434,105.5977)"
           id="g250"><path
             id="path252"
             style="fill:#393536;fill-opacity:1;fill-rule:nonzero;stroke:none"
             d="M 0,0 -2.709,0.291 C -2.752,-0.75 -2.815,-1.788 -2.868,-2.827 l 2.699,-0.438 C -0.11,-2.176 -0.048,-1.09 0,0" /></g><g
           transform="translate(469.2109,86.6016)"
           id="g254"><path
             id="path256"
             style="fill:#393536;fill-opacity:1;fill-rule:nonzero;stroke:none"
             d="m 0,0 -2.676,0.572 c -0.215,-2.031 -0.451,-4.055 -0.706,-6.074 l 2.651,-0.703 C -0.467,-4.143 -0.221,-2.076 0,0" /></g><g
           transform="translate(454.8994,89.6641)"
           id="g258"><path
             id="path260"
             style="fill:#393536;fill-opacity:1;fill-rule:nonzero;stroke:none"
             d="m 0,0 -2.678,0.573 c -0.169,-1.797 -0.35,-3.592 -0.552,-5.38 l 2.654,-0.705 C -0.366,-3.679 -0.177,-1.842 0,0" /></g><g
           transform="translate(439.8936,92.877)"
           id="g262"><path
             id="path264"
             style="fill:#393536;fill-opacity:1;fill-rule:nonzero;stroke:none"
             d="M 0,0 -2.681,0.572 C -2.81,-0.979 -2.953,-2.525 -3.105,-4.07 l 2.663,-0.707 C -0.282,-3.188 -0.136,-1.596 0,0" /></g><g
           transform="translate(467.6172,100.3711)"
           id="g266"><path
             id="path268"
             style="fill:#393536;fill-opacity:1;fill-rule:nonzero;stroke:none"
             d="M 0,0 C -0.117,-1.965 -0.247,-3.928 -0.403,-5.884 L 2.288,-6.32 c 0.162,2.005 0.298,4.015 0.419,6.029 L 0,0 Z" /></g><g
           transform="translate(452.79,139.5869)"
           id="g270"><path
             id="path272"
             style="fill:#393536;fill-opacity:1;fill-rule:nonzero;stroke:none"
             d="m 0,0 c 0.12,-1.698 0.226,-3.4 0.317,-5.106 l 2.706,0.291 C 2.93,-3.061 2.82,-1.311 2.696,0.437 L 0,0 Z" /></g><g
           transform="translate(468.0107,127.6523)"
           id="g274"><path
             id="path276"
             style="fill:#393536;fill-opacity:1;fill-rule:nonzero;stroke:none"
             d="m 0,0 c 0.058,-1.904 0.103,-3.813 0.125,-5.725 l 2.718,0.059 C 2.82,-3.72 2.775,-1.777 2.715,0.163 L 0,0 Z" /></g><g
           transform="translate(468.1338,114.4824)"
           id="g278"><path
             id="path280"
             style="fill:#393536;fill-opacity:1;fill-rule:nonzero;stroke:none"
             d="m 0,0 c -0.024,-1.912 -0.073,-3.82 -0.133,-5.725 l 2.715,-0.162 c 0.063,1.94 0.112,3.883 0.136,5.828 L 0,0 Z" /></g><g
           transform="translate(467.2344,141.9258)"
           id="g282"><path
             id="path284"
             style="fill:#393536;fill-opacity:1;fill-rule:nonzero;stroke:none"
             d="m 0,0 c 0.154,-1.956 0.283,-3.92 0.399,-5.885 l 2.706,0.291 C 2.986,-3.58 2.855,-1.568 2.694,0.437 L 0,0 Z" /></g><g
           transform="translate(426.5244,140.6719)"
           id="g286"><path
             id="path288"
             style="fill:#393536;fill-opacity:1;fill-rule:nonzero;stroke:none"
             d="M 0,0 2.685,0.575 C 2.575,1.995 2.468,3.414 2.34,4.829 L -0.324,4.123 C -0.203,2.752 -0.102,1.375 0,0" /></g><g
           transform="translate(437.2354,142.9648)"
           id="g290"><path
             id="path292"
             style="fill:#393536;fill-opacity:1;fill-rule:nonzero;stroke:none"
             d="M 0,0 2.68,0.574 C 2.546,2.17 2.4,3.762 2.241,5.352 L -0.423,4.646 C -0.27,3.1 -0.128,1.552 0,0" /></g><g
           transform="translate(429.1865,95.168)"
           id="g294"><path
             id="path296"
             style="fill:#393536;fill-opacity:1;fill-rule:nonzero;stroke:none"
             d="M 0,0 -2.684,0.574 C -2.786,-0.8 -2.89,-2.175 -3.011,-3.545 l 2.662,-0.707 C -0.219,-2.838 -0.109,-1.42 0,0" /></g><g
           transform="translate(451.7002,151.5606)"
           id="g298"><path
             id="path300"
             style="fill:#393536;fill-opacity:1;fill-rule:nonzero;stroke:none"
             d="M 0,0 C 0.201,-1.789 0.379,-3.584 0.548,-5.383 L 3.225,-4.81 C 3.051,-2.967 2.863,-1.129 2.654,0.705 L 0,0 Z" /></g><g
           transform="translate(415.8135,138.3789)"
           id="g302"><path
             id="path304"
             style="fill:#393536;fill-opacity:1;fill-rule:nonzero;stroke:none"
             d="M 0,0 2.686,0.576 C 2.6,1.818 2.519,3.061 2.419,4.301 L -0.257,3.592 C -0.163,2.396 -0.081,1.198 0,0" /></g><g
           transform="translate(418.4785,97.46)"
           id="g306"><path
             id="path308"
             style="fill:#393536;fill-opacity:1;fill-rule:nonzero;stroke:none"
             d="m 0,0 -2.685,0.574 c -0.08,-1.196 -0.162,-2.394 -0.257,-3.588 l 2.674,-0.71 C -0.166,-2.485 -0.085,-1.241 0,0" /></g></g></g></g></svg>