<?xml version="1.0" encoding="UTF-8" standalone="no"?>
<!-- Generator: Adobe Illustrator 13.0.0, SVG Export Plug-In . SVG Version: 6.00 Build 14948)  -->

<svg
   xmlns:ns="&amp;ns_sfw;"
   xmlns:dc="http://purl.org/dc/elements/1.1/"
   xmlns:cc="http://creativecommons.org/ns#"
   xmlns:rdf="http://www.w3.org/1999/02/22-rdf-syntax-ns#"
   xmlns:svg="http://www.w3.org/2000/svg"
   xmlns="http://www.w3.org/2000/svg"
   xmlns:sodipodi="http://sodipodi.sourceforge.net/DTD/sodipodi-0.dtd"
   xmlns:inkscape="http://www.inkscape.org/namespaces/inkscape"
   version="1.2"
   id="Layer_3"
   x="0px"
   y="0px"
   width="533.73785"
   height="268.79688"
   viewBox="0 0 533.73783 268.79687"
   xml:space="preserve"
   inkscape:version="0.91 r13725"
   sodipodi:docname="controller.svg"><defs
     id="defs158" /><sodipodi:namedview
     pagecolor="#ffffff"
     bordercolor="#666666"
     borderopacity="1"
     objecttolerance="10"
     gridtolerance="10"
     guidetolerance="10"
     inkscape:pageopacity="0"
     inkscape:pageshadow="2"
     inkscape:window-width="690"
     inkscape:window-height="480"
     id="namedview156"
     showgrid="false"
     fit-margin-top="0"
     fit-margin-left="0"
     fit-margin-right="0"
     fit-margin-bottom="0"
     inkscape:zoom="0.48145317"
     inkscape:cx="270.93051"
     inkscape:cy="137.832"
     inkscape:window-x="0"
     inkscape:window-y="0"
     inkscape:window-maximized="0"
     inkscape:current-layer="Layer_3" /><metadata
     id="metadata55"><rdf:RDF><cc:Work
         rdf:about=""><dc:format>image/svg+xml</dc:format><dc:type
           rdf:resource="http://purl.org/dc/dcmitype/StillImage" /><dc:title></dc:title></cc:Work></rdf:RDF><ns:sfw><ns:slices /><ns:sliceSourceBounds
         x="689.569"
         y="401.668"
         width="533.74"
         height="268.797"
         bottomLeftOrigin="true" /></ns:sfw></metadata><path
     id="path3"
     d="m 35.33,110.49388 -0.255,0.255 c 0,0 -15.638,15.388 -17.58,17.382 -0.785,0.804 -1.243,1.449 -1.5,1.925 -0.256,0.476 -0.311,0.905 -0.311,0.905 l -0.028,0.057 0,0.058 0,2.095 0,0.906 0.906,0 336.109,0 0.906,0 0,-0.906 0,-2.039 c -0.002,-0.002 -0.019,0.016 0.113,-0.226 0.164,-0.303 0.502,-0.824 1.188,-1.529 1.795,-1.841 17.552,-17.325 17.552,-17.325 l 1.585,-1.557 -2.208,0 -336.11,0 -0.367,0 z m 0.764,1.812 333.477,0 c -2.341,2.302 -14.228,14.011 -15.994,15.825 -0.784,0.804 -1.216,1.449 -1.472,1.925 -0.257,0.476 -0.34,0.905 -0.34,0.905 l 0,0.057 0,0.058 0,1.188 -334.299,0 0,-1.075 c 0,0 -0.022,0.019 0.142,-0.283 0.164,-0.303 0.502,-0.824 1.189,-1.529 1.767,-1.814 16.85,-16.631 17.297,-17.071 z"
     inkscape:connector-curvature="0"
     style="fill:#f4f4f4" /><path
     id="path5"
     d="m 68.677,110.74888 c 0,0 -15.638,15.388 -17.58,17.382 -0.785,0.804 -1.215,1.449 -1.472,1.925 -0.257,0.476 -0.339,0.905 -0.339,0.905 l 0,0.057 0,0.058 0,2.095 1.812,0 0,-2.039 c -10e-4,-0.002 -0.017,0.016 0.113,-0.226 0.164,-0.303 0.501,-0.824 1.189,-1.529 1.792,-1.84 17.552,-17.325 17.552,-17.325 l -1.275,-1.303 z"
     inkscape:connector-curvature="0"
     style="fill:#f4f4f4" /><path
     id="path7"
     d="m 102.279,110.74888 c 0,0 -15.609,15.388 -17.551,17.382 -0.785,0.804 -1.244,1.449 -1.5,1.925 -0.257,0.476 -0.34,0.905 -0.34,0.905 l 0,0.057 0,0.058 0,2.095 1.813,0 0,-1.981 c 0,0 -0.051,0.019 0.113,-0.283 0.164,-0.303 0.501,-0.824 1.189,-1.529 1.792,-1.84 17.552,-17.325 17.552,-17.325 l -1.276,-1.304 z"
     inkscape:connector-curvature="0"
     style="fill:#f4f4f4" /><path
     id="path9"
     d="m 135.882,110.74888 c 0,0 -15.609,15.388 -17.551,17.382 -0.785,0.804 -1.243,1.449 -1.5,1.925 -0.257,0.476 -0.34,0.905 -0.34,0.905 l 0,0.057 0,0.058 0,2.095 1.813,0 0,-1.981 c 0,0 -0.022,0.019 0.141,-0.283 0.164,-0.303 0.502,-0.824 1.189,-1.529 1.792,-1.84 17.523,-17.325 17.523,-17.325 l -1.275,-1.304 z"
     inkscape:connector-curvature="0"
     style="fill:#f4f4f4" /><path
     id="path11"
     d="m 169.513,110.74888 c 0,0 -15.638,15.388 -17.58,17.382 -0.785,0.804 -1.244,1.449 -1.5,1.925 -0.257,0.476 -0.312,0.905 -0.312,0.905 l -0.029,0.057 0,0.058 0,2.095 1.812,0 0,-1.981 c 0,0 -0.022,0.019 0.142,-0.283 0.164,-0.303 0.501,-0.824 1.189,-1.529 1.792,-1.84 17.551,-17.325 17.551,-17.325 l -1.273,-1.304 z"
     inkscape:connector-curvature="0"
     style="fill:#f4f4f4" /><path
     id="path13"
     d="m 203.116,110.74888 c 0,0 -15.639,15.389 -17.58,17.382 -0.784,0.804 -1.215,1.449 -1.472,1.925 -0.257,0.476 -0.339,0.905 -0.339,0.905 l 0,0.057 0,0.058 0,2.095 1.812,0 0,-2.039 c -0.002,-0.002 -0.018,0.016 0.113,-0.226 0.163,-0.303 0.502,-0.824 1.189,-1.529 1.794,-1.841 17.551,-17.325 17.551,-17.325 l -1.274,-1.303 z"
     inkscape:connector-curvature="0"
     style="fill:#f4f4f4" /><path
     id="path15"
     d="m 236.718,110.74888 c 0,0 -15.609,15.388 -17.551,17.382 -0.785,0.804 -1.243,1.449 -1.5,1.925 -0.257,0.476 -0.339,0.905 -0.339,0.905 l 0,0.057 0,0.058 0,2.095 1.812,0 0,-2.039 c -0.002,-0.002 -0.018,0.016 0.113,-0.226 0.164,-0.303 0.501,-0.824 1.189,-1.529 1.792,-1.84 17.551,-17.325 17.551,-17.325 l -1.275,-1.303 z"
     inkscape:connector-curvature="0"
     style="fill:#f4f4f4" /><path
     id="path17"
     d="m 270.32,110.74888 c 0,0 -15.609,15.388 -17.551,17.382 -0.783,0.804 -1.243,1.449 -1.5,1.925 -0.257,0.476 -0.34,0.905 -0.34,0.905 l 0,0.057 0,0.058 0,2.095 1.812,0 0,-1.981 c 0,0 -0.021,0.019 0.142,-0.283 0.163,-0.303 0.501,-0.824 1.189,-1.529 1.794,-1.841 17.522,-17.325 17.522,-17.325 l -1.274,-1.304 z"
     inkscape:connector-curvature="0"
     style="fill:#f4f4f4" /><path
     id="path19"
     d="m 303.951,110.74888 c 0,0 -15.637,15.388 -17.58,17.382 -0.783,0.804 -1.243,1.449 -1.5,1.925 -0.257,0.476 -0.312,0.905 -0.312,0.905 l -0.028,0.057 0,0.058 0,2.095 1.812,0 0,-1.981 c 0,0 -0.021,0.019 0.142,-0.283 0.164,-0.303 0.502,-0.824 1.188,-1.529 1.793,-1.84 17.523,-17.325 17.523,-17.325 l -1.245,-1.304 0,0 z"
     inkscape:connector-curvature="0"
     style="fill:#f4f4f4" /><path
     id="path21"
     d="m 337.553,110.74888 c 0,0 -15.637,15.388 -17.579,17.382 -0.784,0.804 -1.214,1.449 -1.473,1.925 -0.256,0.476 -0.34,0.905 -0.34,0.905 l -0.027,0.057 0,0.058 0,2.095 1.812,0 0,-1.981 c 0,0 -0.021,0.019 0.142,-0.283 0.164,-0.303 0.503,-0.824 1.189,-1.529 1.791,-1.84 17.551,-17.325 17.551,-17.325 l -1.275,-1.304 z"
     inkscape:connector-curvature="0"
     style="fill:#f4f4f4" /><path
     id="path23"
     d="m 104.29,0.11787515 c 0,0 -2.852,-0.229 -5.464,2.20799995 -0.007,0.007 -0.188,0.161 -0.198,0.169 -0.283,-0.681 -0.678,-1.321 -1.331,-1.78299995 -0.545,-0.385 -1.279,-0.588 -2.039,-0.453 -0.759,0.135 -1.509,0.563 -2.265,1.27399995 l -0.085,0.084 c -0.668,0.626 -5.747,5.241 -13.022,11.8329999 -7.324,6.637 -16.839,15.246 -26.271,23.78 -18.863,17.068 -37.396,33.829 -37.396,33.829 l -1.755,1.585 2.378,0 5.832,0 0.34,0 0.255,-0.255 c 0,0 18.606,-16.634 37.509,-33.546 9.451,-8.456 18.989,-16.976 26.299,-23.524 7.311,-6.5489999 12.33,-11.0709999 12.994,-11.6909999 l 0.029,0 c 2.111,-1.958 3.991,-1.699 3.991,-1.699 L 104.29,0.11787515 Z M 95.57,2.0428751 c 0.295,-0.052 0.463,-0.012 0.68,0.142 0.367,0.259 0.691,0.997 0.877,1.67 -1.469,1.331 -4.915,4.444 -11.267,10.1349999 -7.31,6.548 -16.848,15.069 -26.299,23.525 -18.774,16.796 -37.005,33.096 -37.254,33.319 l -3.143,0 c 1.593,-1.44 17.676,-15.991 35.669,-32.272 9.431,-8.535 18.946,-17.142 26.271,-23.78 C 88.429,8.1448751 93.51,3.5228751 94.239,2.8358751 c 0.586,-0.55 1.036,-0.74 1.331,-0.793 z"
     inkscape:connector-curvature="0"
     style="fill:#f4f4f4" /><path
     id="path25"
     d="m 112.556,0.11787515 c 0,0 -2.824,-0.229 -5.435,2.20799995 -0.008,0.007 -0.188,0.161 -0.199,0.169 -0.282,-0.681 -0.677,-1.321 -1.33,-1.78299995 -0.545,-0.385 -1.308,-0.588 -2.066,-0.453 -0.759,0.135 -1.481,0.563 -2.236,1.27399995 -0.61,0.574 -5.811,5.281 -13.135,11.9169999 -7.325,6.637 -16.839,15.246 -26.271,23.78 -18.863,17.068 -37.396,33.829 -37.396,33.829 l -1.726,1.585 2.349,0 5.832,0 0.34,0 0.254,-0.255 c 0,0 18.607,-16.634 37.51,-33.546 9.451,-8.456 18.988,-16.976 26.299,-23.524 7.31,-6.5489999 12.329,-11.0709999 12.994,-11.6909999 l 0.113,-0.085 c 2.07,-1.859 3.906,-1.614 3.906,-1.614 l 0.197,-1.81099995 z m -8.691,1.92499995 c 0.295,-0.052 0.463,-0.012 0.679,0.142 0.365,0.258 0.662,1.001 0.85,1.67 -1.475,1.337 -4.923,4.452 -11.267,10.1349999 -7.31,6.548 -16.82,15.069 -26.271,23.525 -18.774,16.796 -37.005,33.096 -37.255,33.319 l -3.17,0 c 1.593,-1.44 17.676,-15.991 35.669,-32.272 9.431,-8.535 18.945,-17.142 26.271,-23.78 7.324,-6.6369999 12.405,-11.2589999 13.135,-11.9459999 0.585,-0.55 1.063,-0.74 1.359,-0.793 z"
     inkscape:connector-curvature="0"
     style="fill:#f4f4f4" /><path
     id="path27"
     d="m 120.85,0.11787515 c 0,0 -2.852,-0.229 -5.463,2.20799995 -0.008,0.007 -0.188,0.161 -0.198,0.169 -0.283,-0.681 -0.677,-1.321 -1.331,-1.78299995 -0.545,-0.385 -1.279,-0.588 -2.039,-0.453 -0.759,0.135 -1.509,0.563 -2.264,1.27399995 -0.611,0.574 -5.783,5.281 -13.107,11.9169999 -7.324,6.637 -16.839,15.246 -26.271,23.78 -18.862,17.068 -37.396,33.829 -37.396,33.829 l -1.755,1.585 2.35,0 5.86,0 0.34,0 0.255,-0.255 c 0,0 18.607,-16.634 37.509,-33.546 9.451,-8.456 18.96,-16.976 26.271,-23.524 7.311,-6.5489999 12.358,-11.0709999 13.022,-11.6909999 2.119,-1.978 4.02,-1.699 4.02,-1.699 l 0.197,-1.81099995 z m -8.719,1.92499995 c 0.295,-0.052 0.463,-0.012 0.68,0.142 0.367,0.259 0.691,0.997 0.877,1.67 -1.469,1.331 -4.915,4.444 -11.267,10.1349999 -7.31,6.548 -16.848,15.069 -26.299,23.525 -18.773,16.796 -37.005,33.096 -37.254,33.319 l -3.142,0 c 1.593,-1.44 17.676,-15.991 35.669,-32.272 9.431,-8.535 18.946,-17.142 26.271,-23.78 7.085,-6.4199999 11.731,-10.6389999 12.711,-11.5499999 l 0.424,-0.396 c 0.584,-0.55 1.035,-0.74 1.33,-0.793 z"
     inkscape:connector-curvature="0"
     style="fill:#f4f4f4" /><path
     id="path29"
     d="m 129.116,0.11787515 c 0,0 -2.824,-0.229 -5.435,2.20799995 -0.008,0.007 -0.188,0.161 -0.198,0.169 -0.283,-0.681 -0.677,-1.321 -1.331,-1.78299995 -0.545,-0.385 -1.308,-0.588 -2.066,-0.453 -0.759,0.135 -1.509,0.563 -2.265,1.27399995 -0.61,0.574 -5.782,5.281 -13.107,11.9169999 -7.324,6.637 -16.839,15.246 -26.27,23.78 -18.862,17.068 -37.396,33.829 -37.396,33.829 l -1.727,1.585 2.349,0 5.832,0 0.34,0 0.255,-0.255 c 0,0 18.607,-16.634 37.509,-33.546 9.451,-8.456 18.989,-16.976 26.299,-23.524 7.31,-6.5489999 12.329,-11.0709999 12.994,-11.6909999 2.119,-1.978 4.02,-1.699 4.02,-1.699 l 0.197,-1.81099995 z m -8.718,1.92499995 c 0.295,-0.052 0.491,-0.012 0.707,0.142 0.373,0.263 0.666,1.017 0.85,1.698 -1.481,1.342 -4.931,4.43 -11.267,10.1059999 -7.31,6.548 -16.82,15.069 -26.271,23.525 -18.774,16.796 -37.005,33.096 -37.254,33.319 l -3.17,0 c 1.593,-1.44 17.676,-15.991 35.669,-32.272 9.431,-8.535 18.945,-17.142 26.271,-23.78 7.325,-6.6369999 12.405,-11.2589999 13.135,-11.9459999 0.583,-0.549 1.034,-0.739 1.33,-0.792 z"
     inkscape:connector-curvature="0"
     style="fill:#f4f4f4" /><path
     id="path31"
     d="m 137.411,0.11787515 c 0,0 -2.853,-0.229 -5.464,2.20799995 -0.008,0.007 -0.188,0.161 -0.198,0.169 -0.283,-0.681 -0.677,-1.321 -1.331,-1.78299995 -0.545,-0.385 -1.279,-0.588 -2.038,-0.453 -0.759,0.135 -1.509,0.563 -2.265,1.27399995 -0.61,0.574 -5.783,5.281 -13.107,11.9169999 -7.324,6.637 -16.839,15.246 -26.271,23.78 -18.863,17.068 -37.396,33.829 -37.396,33.829 l -1.755,1.585 2.35,0 5.832,0 0.368,0 0.255,-0.255 c 0,0 18.607,-16.634 37.509,-33.546 9.451,-8.456 18.96,-16.976 26.271,-23.524 7.311,-6.5479999 12.357,-11.0709999 13.021,-11.6909999 2.119,-1.978 3.992,-1.699 3.992,-1.699 l 0.227,-1.81099995 z m -8.72,1.92499995 c 0.295,-0.052 0.463,-0.012 0.68,0.142 0.365,0.258 0.662,1.001 0.849,1.67 -1.475,1.337 -4.922,4.452 -11.267,10.1349999 -7.31,6.548 -16.82,15.069 -26.271,23.525 -18.774,16.796 -37.005,33.096 -37.255,33.319 l -3.141,0 c 1.594,-1.441 17.648,-15.991 35.641,-32.272 9.432,-8.535 18.974,-17.142 26.299,-23.78 7.086,-6.4199999 11.731,-10.6389999 12.711,-11.5499999 l 0.424,-0.396 c 0.585,-0.55 1.035,-0.74 1.33,-0.793 z"
     inkscape:connector-curvature="0"
     style="fill:#f4f4f4" /><path
     id="path33"
     d="m 145.677,0.11787515 c 0,0 -2.823,-0.229 -5.435,2.20799995 -0.009,0.008 -0.215,0.188 -0.227,0.198 -0.283,-0.691 -0.669,-1.344 -1.331,-1.81199995 -0.545,-0.385 -1.279,-0.588 -2.038,-0.453 -0.759,0.135 -1.509,0.563 -2.265,1.27399995 -0.61,0.574 -5.782,5.281 -13.107,11.9169999 -7.324,6.637 -16.839,15.246 -26.271,23.78 -18.861,17.068 -37.396,33.829 -37.396,33.829 l -1.727,1.585 2.35,0 5.832,0 0.34,0 0.255,-0.255 c 0,0 18.606,-16.634 37.509,-33.546 9.452,-8.456 18.989,-16.976 26.299,-23.524 7.31,-6.5489999 12.329,-11.0709999 12.994,-11.6909999 2.119,-1.978 4.02,-1.699 4.02,-1.699 l 0.198,-1.81099995 z m -8.719,1.92499995 c 0.295,-0.052 0.462,-0.012 0.679,0.142 0.372,0.263 0.694,1.017 0.877,1.698 -1.481,1.342 -4.931,4.43 -11.267,10.1059999 -7.31,6.548 -16.848,15.069 -26.299,23.525 -18.773,16.796 -37.004,33.096 -37.254,33.319 l -3.142,0 c 1.593,-1.44 17.676,-15.991 35.669,-32.272 9.431,-8.535 18.945,-17.142 26.271,-23.78 7.325,-6.6369999 12.405,-11.2589999 13.135,-11.9459999 0.585,-0.549 1.035,-0.739 1.331,-0.792 z"
     inkscape:connector-curvature="0"
     style="fill:#f4f4f4" /><path
     id="path35"
     d="m 153.943,0.11787515 c 0,0 -2.824,-0.229 -5.435,2.20799995 -0.008,0.007 -0.188,0.161 -0.198,0.169 -0.283,-0.681 -0.678,-1.321 -1.331,-1.78299995 -0.545,-0.385 -1.279,-0.588 -2.039,-0.453 -0.759,0.135 -1.509,0.563 -2.265,1.27399995 -0.61,0.574 -5.811,5.281 -13.135,11.9169999 -7.325,6.637 -16.839,15.246 -26.271,23.78 -18.862,17.068 -37.368,33.829 -37.368,33.829 l -1.755,1.585 2.349,0 5.832,0 0.34,0 0.283,-0.255 c 0,0 18.579,-16.634 37.481,-33.546 9.451,-8.456 18.988,-16.976 26.299,-23.524 7.311,-6.5479999 12.358,-11.0719999 13.022,-11.6909999 2.119,-1.978 3.992,-1.699 3.992,-1.699 l 0.199,-1.81099995 z m -8.691,1.92499995 c 0.295,-0.052 0.463,-0.012 0.68,0.142 0.364,0.258 0.661,1.001 0.849,1.67 -1.475,1.337 -4.922,4.452 -11.267,10.1349999 -7.31,6.548 -16.82,15.069 -26.271,23.525 -18.774,16.796 -37.005,33.096 -37.254,33.319 l -3.143,0 c 1.593,-1.441 17.649,-15.991 35.641,-32.272 9.431,-8.535 18.946,-17.142 26.271,-23.78 7.085,-6.4199999 11.76,-10.6389999 12.739,-11.5499999 l 0.425,-0.396 c 0.585,-0.55 1.036,-0.74 1.33,-0.793 z"
     inkscape:connector-curvature="0"
     style="fill:#f4f4f4" /><path
     id="path37"
     d="m 162.238,0.11787515 c 0,0 -2.853,-0.229 -5.464,2.20799995 -0.008,0.007 -0.188,0.161 -0.198,0.169 -0.283,-0.681 -0.677,-1.321 -1.331,-1.78299995 -0.545,-0.385 -1.279,-0.588 -2.038,-0.453 -0.759,0.135 -1.509,0.563 -2.265,1.27399995 -0.611,0.574 -5.783,5.281 -13.107,11.9169999 -7.324,6.637 -16.839,15.246 -26.271,23.78 -18.861,17.068 -37.396,33.829 -37.396,33.829 l -1.755,1.585 2.378,0 5.832,0 0.339,0 0.255,-0.255 c 0,0 18.607,-16.634 37.509,-33.546 9.452,-8.456 18.961,-16.976 26.271,-23.524 7.311,-6.5489999 12.358,-11.0709999 13.022,-11.6909999 2.119,-1.978 4.02,-1.699 4.02,-1.699 l 0.199,-1.81099995 z m -8.719,1.92499995 c 0.295,-0.052 0.462,-0.012 0.679,0.142 0.367,0.259 0.691,0.997 0.877,1.67 -1.469,1.331 -4.915,4.444 -11.267,10.1349999 -7.31,6.548 -16.848,15.069 -26.299,23.525 -18.773,16.796 -37.005,33.096 -37.254,33.319 l -3.142,0 c 1.593,-1.44 17.676,-15.991 35.669,-32.272 9.432,-8.535 18.946,-17.142 26.271,-23.78 7.325,-6.6369999 12.405,-11.2589999 13.135,-11.9459999 0.585,-0.55 1.035,-0.74 1.331,-0.793 z"
     inkscape:connector-curvature="0"
     style="fill:#f4f4f4" /><path
     id="path39"
     d="m 170.447,0.11787515 c 0,0 -2.853,-0.229 -5.464,2.20799995 -0.008,0.007 -0.188,0.161 -0.198,0.169 -0.283,-0.681 -0.677,-1.321 -1.331,-1.78299995 -0.545,-0.385 -1.279,-0.588 -2.038,-0.453 -0.759,0.135 -1.509,0.563 -2.265,1.27399995 -0.61,0.574 -5.811,5.281 -13.135,11.9169999 -7.324,6.637 -16.811,15.246 -26.242,23.78 -18.862,17.068 -37.396,33.829 -37.396,33.829 l -1.755,1.585 2.35,0 5.832,0 0.339,0 0.283,-0.255 c 0,0 18.607,-16.634 37.509,-33.546 9.451,-8.456 18.96,-16.976 26.271,-23.524 7.311,-6.5489999 12.358,-11.0719999 13.022,-11.6909999 2.118,-1.978 3.991,-1.699 3.991,-1.699 l 0.227,-1.81099995 z m -8.719,1.92499995 c 0.296,-0.052 0.463,-0.012 0.68,0.142 0.365,0.258 0.662,1.001 0.85,1.67 -1.476,1.337 -4.923,4.452 -11.267,10.1349999 -7.31,6.548 -16.82,15.069 -26.271,23.525 -18.773,16.796 -37.005,33.096 -37.254,33.319 l -3.142,0 c 1.593,-1.441 17.648,-15.991 35.641,-32.272 9.431,-8.535 18.946,-17.142 26.271,-23.78 7.325,-6.6369999 12.434,-11.2589999 13.164,-11.9459999 0.582,-0.55 1.032,-0.74 1.328,-0.793 z"
     inkscape:connector-curvature="0"
     style="fill:#f4f4f4" /><path
     id="path41"
     d="m 178.713,0.11787515 c 0,0 -2.852,-0.229 -5.463,2.20799995 -0.008,0.007 -0.188,0.161 -0.199,0.169 -0.283,-0.681 -0.677,-1.321 -1.331,-1.78299995 -0.545,-0.385 -1.279,-0.588 -2.038,-0.453 -0.759,0.135 -1.509,0.563 -2.264,1.27399995 -0.611,0.574 -5.783,5.281 -13.107,11.9169999 -7.325,6.637 -16.839,15.246 -26.271,23.78 -18.862,17.068 -37.396,33.829 -37.396,33.829 l -1.727,1.585 2.35,0 5.831,0 0.34,0 0.254,-0.255 c 0,0 18.607,-16.634 37.509,-33.546 9.451,-8.456 18.989,-16.976 26.299,-23.524 7.31,-6.5479999 12.33,-11.0709999 12.994,-11.6909999 2.119,-1.978 4.02,-1.699 4.02,-1.699 l 0.199,-1.81099995 z m -8.719,1.92499995 c 0.295,-0.052 0.462,-0.012 0.679,0.142 0.367,0.259 0.691,0.997 0.877,1.67 -1.469,1.331 -4.915,4.444 -11.267,10.1349999 -7.31,6.548 -16.848,15.069 -26.298,23.525 -18.774,16.796 -37.005,33.096 -37.255,33.319 l -3.142,0 c 1.593,-1.44 17.676,-15.991 35.669,-32.272 9.431,-8.535 18.945,-17.142 26.271,-23.78 7.325,-6.6369999 12.406,-11.2589999 13.135,-11.9459999 0.586,-0.55 1.036,-0.74 1.331,-0.793 z"
     inkscape:connector-curvature="0"
     style="fill:#f4f4f4" /><path
     id="path43"
     d="m 186.98,0.11787515 c 0,0 -2.824,-0.229 -5.436,2.20799995 -0.008,0.007 -0.188,0.161 -0.198,0.169 -0.284,-0.681 -0.678,-1.321 -1.331,-1.78299995 -0.545,-0.385 -1.308,-0.588 -2.067,-0.453 -0.759,0.135 -1.48,0.563 -2.236,1.27399995 -0.61,0.574 -5.811,5.281 -13.135,11.9169999 -7.324,6.637 -16.839,15.246 -26.271,23.78 -18.862,17.068 -37.367,33.829 -37.367,33.829 l -1.755,1.585 2.35,0 5.832,0 0.339,0 0.255,-0.255 c 0,0 18.607,-16.634 37.509,-33.546 9.451,-8.456 18.989,-16.976 26.299,-23.524 7.311,-6.5489999 12.358,-11.0709999 13.022,-11.6909999 2.118,-1.978 3.991,-1.699 3.991,-1.699 l 0.199,-1.81099995 z m -8.691,1.92499995 c 0.295,-0.052 0.462,-0.012 0.679,0.142 0.365,0.258 0.662,1.001 0.85,1.67 -1.475,1.337 -4.923,4.452 -11.267,10.1349999 -7.31,6.548 -16.82,15.069 -26.271,23.525 -18.773,16.796 -37.005,33.096 -37.254,33.319 l -3.171,0 c 1.593,-1.44 17.676,-15.991 35.669,-32.272 9.431,-8.535 18.946,-17.142 26.271,-23.78 7.085,-6.4199999 11.76,-10.6389999 12.739,-11.5499999 l 0.424,-0.396 c 0.585,-0.55 1.035,-0.74 1.331,-0.793 z"
     inkscape:connector-curvature="0"
     style="fill:#f4f4f4" /><path
     id="path45"
     d="m 195.274,0.11787515 c 0,0 -2.852,-0.229 -5.463,2.20799995 -0.008,0.007 -0.188,0.161 -0.199,0.169 -0.283,-0.681 -0.677,-1.321 -1.331,-1.78299995 -0.545,-0.385 -1.279,-0.588 -2.038,-0.453 -0.759,0.135 -1.51,0.563 -2.265,1.27399995 -0.61,0.574 -5.783,5.281 -13.106,11.9169999 -7.325,6.637 -16.839,15.246 -26.271,23.78 -18.863,17.068 -37.396,33.829 -37.396,33.829 l -1.755,1.585 2.35,0 5.86,0 0.339,0 0.254,-0.255 c 0,0 18.607,-16.634 37.51,-33.546 9.451,-8.456 18.96,-16.976 26.271,-23.524 7.31,-6.5489999 12.357,-11.0709999 13.022,-11.6909999 2.119,-1.978 4.02,-1.699 4.02,-1.699 l 0.198,-1.81099995 z m -8.719,1.92499995 c 0.295,-0.052 0.462,-0.012 0.679,0.142 0.368,0.259 0.691,0.997 0.878,1.67 -1.47,1.331 -4.915,4.444 -11.267,10.1349999 -7.31,6.548 -16.848,15.069 -26.298,23.525 -18.774,16.796 -37.005,33.096 -37.255,33.319 l -3.142,0 c 1.593,-1.44 17.676,-15.991 35.669,-32.272 9.432,-8.535 18.945,-17.142 26.271,-23.78 7.325,-6.6369999 12.406,-11.2589999 13.135,-11.9459999 0.584,-0.55 1.034,-0.74 1.33,-0.793 z"
     inkscape:connector-curvature="0"
     style="fill:#f4f4f4" /><path
     id="path47"
     d="m 203.54,0.11787515 c 0,0 -2.824,-0.229 -5.436,2.20799995 -0.007,0.007 -0.188,0.161 -0.198,0.169 -0.284,-0.681 -0.678,-1.321 -1.331,-1.78299995 -0.545,-0.385 -1.308,-0.588 -2.067,-0.453 -0.759,0.135 -1.48,0.563 -2.236,1.27399995 -0.61,0.574 -5.811,5.281 -13.135,11.9169999 -7.324,6.637 -16.839,15.246 -26.271,23.78 -18.863,17.068 -37.396,33.829 -37.396,33.829 l -1.727,1.585 2.35,0 5.832,0 0.34,0 0.255,-0.255 c 0,0 18.606,-16.634 37.509,-33.546 9.452,-8.456 18.989,-16.976 26.299,-23.524 7.311,-6.5489999 12.33,-11.0709999 12.994,-11.6909999 2.119,-1.978 4.02,-1.699 4.02,-1.699 l 0.198,-1.81099995 z m -8.691,1.92499995 c 0.295,-0.052 0.463,-0.012 0.68,0.142 0.365,0.258 0.661,1.001 0.849,1.67 -1.475,1.337 -4.923,4.452 -11.267,10.1349999 -7.31,6.548 -16.819,15.069 -26.271,23.525 -18.774,16.796 -37.004,33.096 -37.254,33.319 l -3.171,0 c 1.593,-1.44 17.676,-15.991 35.669,-32.272 9.431,-8.535 18.946,-17.142 26.271,-23.78 7.325,-6.6369999 12.406,-11.2589999 13.135,-11.9459999 0.585,-0.55 1.064,-0.74 1.359,-0.793 z"
     inkscape:connector-curvature="0"
     style="fill:#f4f4f4" /><path
     id="path49"
     d="m 211.835,0.11787515 c 0,0 -2.852,-0.229 -5.463,2.20799995 -0.008,0.007 -0.188,0.161 -0.198,0.169 -0.283,-0.681 -0.678,-1.321 -1.331,-1.78299995 -0.545,-0.385 -1.279,-0.588 -2.038,-0.453 -0.759,0.135 -1.509,0.563 -2.265,1.27399995 -0.609,0.574 -5.782,5.281 -13.106,11.9169999 -7.325,6.637 -16.839,15.246 -26.271,23.78 -18.863,17.068 -37.396,33.829 -37.396,33.829 l -1.755,1.585 2.35,0 5.832,0 0.368,0 0.254,-0.255 c 0,0 18.607,-16.634 37.51,-33.546 9.451,-8.456 18.96,-16.976 26.271,-23.524 7.31,-6.5489999 12.357,-11.0709999 13.022,-11.6909999 2.118,-1.978 4.02,-1.699 4.02,-1.699 l 0.196,-1.81099995 z m -8.719,1.92499995 c 0.295,-0.052 0.462,-0.012 0.679,0.142 0.367,0.259 0.691,0.997 0.877,1.67 -1.469,1.331 -4.916,4.444 -11.267,10.1349999 -7.31,6.548 -16.849,15.069 -26.299,23.525 -18.773,16.796 -37.004,33.096 -37.254,33.319 l -3.143,0 c 1.593,-1.44 17.677,-15.991 35.669,-32.272 9.431,-8.535 18.945,-17.142 26.271,-23.78 7.324,-6.6369999 12.405,-11.2589999 13.135,-11.9459999 0.586,-0.55 1.036,-0.74 1.332,-0.793 z"
     inkscape:connector-curvature="0"
     style="fill:#f4f4f4" /><path
     id="path51"
     d="m 220.101,0.11787515 c 0,0 -2.824,-0.229 -5.435,2.20799995 -0.009,0.008 -0.215,0.188 -0.227,0.198 -0.283,-0.691 -0.669,-1.344 -1.331,-1.81199995 -0.545,-0.385 -1.279,-0.588 -2.038,-0.453 -0.759,0.135 -1.509,0.563 -2.265,1.27399995 -0.611,0.574 -5.783,5.281 -13.107,11.9169999 -7.324,6.637 -16.839,15.246 -26.271,23.78 -18.862,17.068 -37.396,33.829 -37.396,33.829 l -1.727,1.585 2.35,0 5.832,0 0.339,0 0.255,-0.255 c 0,0 18.607,-16.634 37.509,-33.546 9.452,-8.456 18.989,-16.976 26.299,-23.524 7.311,-6.5489999 12.33,-11.0709999 12.994,-11.6909999 2.119,-1.978 4.02,-1.699 4.02,-1.699 l 0.199,-1.81099995 z m -8.72,1.92499995 c 0.295,-0.052 0.462,-0.012 0.68,0.142 0.373,0.263 0.694,1.017 0.877,1.698 -1.482,1.342 -4.931,4.43 -11.267,10.1059999 -7.31,6.548 -16.849,15.069 -26.299,23.525 -18.773,16.796 -37.005,33.096 -37.255,33.319 l -3.142,0 c 1.593,-1.44 17.676,-15.991 35.669,-32.272 9.432,-8.535 18.946,-17.142 26.271,-23.78 7.325,-6.6369999 12.406,-11.2589999 13.135,-11.9459999 0.586,-0.549 1.036,-0.739 1.331,-0.792 z"
     inkscape:connector-curvature="0"
     style="fill:#f4f4f4" /><path
     id="path53"
     d="m 228.367,0.11787515 c 0,0 -2.824,-0.229 -5.435,2.20799995 -0.008,0.007 -0.188,0.161 -0.198,0.169 -0.283,-0.681 -0.678,-1.321 -1.331,-1.78299995 -0.545,-0.385 -1.279,-0.588 -2.038,-0.453 -0.759,0.135 -1.509,0.563 -2.265,1.27399995 -0.61,0.574 -5.811,5.281 -13.135,11.9169999 -7.325,6.637 -16.84,15.246 -26.271,23.78 -18.862,17.068 -37.368,33.829 -37.368,33.829 l -1.755,1.585 2.35,0 5.832,0 0.34,0 0.283,-0.255 c 0,0 18.579,-16.634 37.481,-33.546 9.451,-8.456 18.988,-16.976 26.299,-23.524 7.31,-6.5489999 12.357,-11.0709999 13.022,-11.6909999 2.118,-1.978 3.992,-1.699 3.992,-1.699 l 0.197,-1.81099995 z m -8.691,1.92499995 c 0.295,-0.052 0.462,-0.012 0.679,0.142 0.365,0.258 0.662,1.001 0.849,1.67 -1.475,1.337 -4.922,4.452 -11.267,10.1349999 -7.31,6.548 -16.82,15.069 -26.271,23.525 -18.773,16.796 -37.004,33.096 -37.254,33.319 l -3.142,0 c 1.593,-1.441 17.647,-15.991 35.641,-32.272 9.431,-8.535 18.945,-17.142 26.271,-23.78 7.085,-6.4199999 11.759,-10.6389999 12.739,-11.5499999 l 0.425,-0.396 c 0.584,-0.55 1.035,-0.74 1.33,-0.793 z"
     inkscape:connector-curvature="0"
     style="fill:#f4f4f4" /><path
     id="path55"
     d="m 236.746,0.11787515 c 0,0 -2.853,-0.229 -5.464,2.20799995 -0.007,0.007 -0.188,0.161 -0.198,0.169 -0.283,-0.681 -0.677,-1.321 -1.331,-1.78299995 -0.545,-0.385 -1.279,-0.588 -2.038,-0.453 -0.759,0.135 -1.509,0.563 -2.265,1.27399995 -0.61,0.574 -5.782,5.281 -13.106,11.9169999 -7.325,6.637 -16.839,15.246 -26.271,23.78 -18.863,17.068 -37.396,33.829 -37.396,33.829 l -1.755,1.585 2.35,0 5.832,0 0.369,0 0.254,-0.255 c 0,0 18.607,-16.634 37.509,-33.546 9.451,-8.456 18.96,-16.976 26.27,-23.524 7.311,-6.5489999 12.358,-11.0719999 13.022,-11.6909999 2.118,-1.978 4.02,-1.699 4.02,-1.699 l 0.198,-1.81099995 z m -8.719,1.92499995 c 0.295,-0.052 0.462,-0.012 0.679,0.142 0.367,0.259 0.691,0.997 0.877,1.67 -1.47,1.332 -4.915,4.444 -11.267,10.1349999 -7.31,6.548 -16.848,15.069 -26.299,23.525 -18.773,16.796 -37.004,33.096 -37.254,33.319 l -3.142,0 c 1.592,-1.44 17.676,-15.991 35.669,-32.272 9.431,-8.535 18.945,-17.142 26.271,-23.78 7.085,-6.4199999 11.731,-10.6389999 12.71,-11.5499999 l 0.425,-0.396 c 0.585,-0.55 1.036,-0.74 1.331,-0.793 z"
     inkscape:connector-curvature="0"
     style="fill:#f4f4f4" /><path
     id="path57"
     d="m 245.012,0.11787515 c 0,0 -2.824,-0.229 -5.435,2.20799995 -0.009,0.008 -0.215,0.188 -0.227,0.198 -0.283,-0.69 -0.67,-1.345 -1.33,-1.81199995 -0.546,-0.385 -1.28,-0.588 -2.039,-0.453 -0.759,0.135 -1.509,0.563 -2.265,1.27399995 -0.61,0.574 -5.783,5.281 -13.107,11.9169999 -7.325,6.637 -16.839,15.246 -26.271,23.78 -18.862,17.068 -37.396,33.829 -37.396,33.829 l -1.726,1.585 2.35,0 5.832,0 0.339,0 0.255,-0.255 c 0,0 18.607,-16.634 37.509,-33.546 9.451,-8.456 18.989,-16.976 26.299,-23.524 7.311,-6.5489999 12.329,-11.0709999 12.994,-11.6909999 2.119,-1.978 4.02,-1.699 4.02,-1.699 l 0.198,-1.81099995 z m -8.718,1.92499995 c 0.295,-0.052 0.491,-0.012 0.708,0.142 0.372,0.263 0.665,1.017 0.85,1.698 -1.481,1.341 -4.931,4.43 -11.267,10.1059999 -7.31,6.548 -16.849,15.069 -26.299,23.525 -18.774,16.796 -36.977,33.096 -37.227,33.319 l -3.17,0 c 1.593,-1.44 17.677,-15.991 35.669,-32.272 9.431,-8.535 18.946,-17.142 26.271,-23.78 7.325,-6.6369999 12.405,-11.2589999 13.135,-11.9459999 0.584,-0.549 1.034,-0.739 1.33,-0.792 z"
     inkscape:connector-curvature="0"
     style="fill:#f4f4f4" /><path
     id="path59"
     d="m 253.307,0.11787515 c 0,0 -2.851,-0.229 -5.463,2.20799995 -0.008,0.007 -0.188,0.161 -0.198,0.169 -0.284,-0.681 -0.677,-1.321 -1.331,-1.78299995 -0.545,-0.385 -1.279,-0.588 -2.038,-0.453 -0.759,0.135 -1.509,0.563 -2.265,1.27399995 -0.611,0.574 -5.783,5.281 -13.107,11.9169999 -7.324,6.637 -16.839,15.246 -26.271,23.78 -18.862,17.068 -37.396,33.829 -37.396,33.829 l -1.755,1.585 2.35,0 5.832,0 0.339,0 0.283,-0.255 c 0,0 18.607,-16.634 37.509,-33.546 9.452,-8.456 18.96,-16.976 26.271,-23.524 7.311,-6.5489999 12.358,-11.0719999 13.022,-11.6909999 2.12,-1.979 3.991,-1.699 3.991,-1.699 l 0.227,-1.81099995 z m -8.719,1.92499995 c 0.295,-0.052 0.462,-0.012 0.679,0.142 0.365,0.258 0.662,1.001 0.85,1.67 -1.476,1.337 -4.923,4.452 -11.267,10.1349999 -7.31,6.548 -16.82,15.069 -26.271,23.525 -18.773,16.796 -37.004,33.096 -37.254,33.319 l -3.142,0 c 1.593,-1.441 17.647,-15.991 35.641,-32.272 9.431,-8.535 18.946,-17.142 26.271,-23.78 7.085,-6.4199999 11.76,-10.6389999 12.739,-11.5499999 l 0.425,-0.396 c 0.583,-0.55 1.033,-0.74 1.329,-0.793 z"
     inkscape:connector-curvature="0"
     style="fill:#f4f4f4" /><path
     id="path61"
     d="m 261.572,0.11787515 c 0,0 -2.851,-0.229 -5.463,2.20799995 -0.008,0.007 -0.188,0.161 -0.198,0.169 -0.283,-0.681 -0.677,-1.321 -1.33,-1.78299995 -0.546,-0.385 -1.28,-0.588 -2.039,-0.453 -0.759,0.135 -1.509,0.563 -2.265,1.27399995 -0.61,0.574 -5.783,5.281 -13.107,11.9169999 -7.325,6.637 -16.839,15.246 -26.271,23.78 -18.863,17.068 -37.396,33.829 -37.396,33.829 l -1.727,1.585 2.349,0 5.832,0 0.339,0 0.255,-0.255 c 0,0 18.607,-16.634 37.509,-33.546 9.451,-8.456 18.988,-16.976 26.299,-23.524 7.311,-6.5479999 12.329,-11.0709999 12.994,-11.6909999 2.119,-1.978 4.02,-1.699 4.02,-1.699 l 0.199,-1.81099995 z m -8.718,1.92499995 c 0.295,-0.053 0.462,-0.012 0.679,0.142 0.367,0.259 0.691,0.997 0.877,1.67 -1.468,1.331 -4.915,4.444 -11.267,10.1349999 -7.31,6.548 -16.849,15.069 -26.299,23.525 -18.774,16.796 -37.005,33.096 -37.254,33.319 l -3.142,0 c 1.593,-1.44 17.676,-15.991 35.669,-32.272 9.431,-8.535 18.946,-17.142 26.271,-23.78 7.325,-6.6369999 12.405,-11.2589999 13.135,-11.9459999 0.585,-0.55 1.036,-0.74 1.331,-0.793 z"
     inkscape:connector-curvature="0"
     style="fill:#f4f4f4" /><path
     id="path63"
     d="m 269.839,0.11787515 c 0,0 -2.822,-0.229 -5.436,2.20799995 -0.007,0.007 -0.188,0.161 -0.198,0.169 -0.283,-0.681 -0.677,-1.321 -1.331,-1.78299995 -0.545,-0.385 -1.307,-0.588 -2.066,-0.453 -0.759,0.135 -1.481,0.563 -2.236,1.27399995 -0.61,0.574 -5.811,5.281 -13.135,11.9169999 -7.324,6.637 -16.839,15.246 -26.271,23.78 -18.862,17.068 -37.368,33.829 -37.368,33.829 l -1.755,1.585 2.35,0 5.832,0 0.339,0 0.255,-0.255 c 0,0 18.607,-16.634 37.509,-33.546 9.451,-8.456 18.988,-16.976 26.299,-23.524 7.31,-6.5489999 12.358,-11.0719999 13.021,-11.6909999 2.12,-1.979 3.992,-1.699 3.992,-1.699 l 0.199,-1.81099995 z m -8.691,1.92499995 c 0.296,-0.052 0.464,-0.012 0.68,0.142 0.366,0.258 0.662,1.001 0.85,1.67 -1.476,1.337 -4.922,4.452 -11.267,10.1349999 -7.31,6.548 -16.82,15.069 -26.271,23.525 -18.773,16.796 -37.005,33.096 -37.254,33.319 l -3.142,0 c 1.593,-1.441 17.648,-15.991 35.641,-32.272 9.431,-8.535 18.946,-17.142 26.271,-23.78 7.085,-6.4199999 11.759,-10.6389999 12.739,-11.5499999 l 0.425,-0.396 c 0.582,-0.55 1.033,-0.74 1.328,-0.793 z"
     inkscape:connector-curvature="0"
     style="fill:#f4f4f4" /><path
     id="path65"
     d="m 278.133,0.11787515 c 0,0 -2.813,-0.223 -5.406,2.15099995 l -0.057,0.057 c -0.007,0.007 -0.188,0.161 -0.198,0.169 -0.283,-0.681 -0.677,-1.321 -1.331,-1.78299995 -0.545,-0.385 -1.278,-0.588 -2.038,-0.453 -0.759,0.135 -1.508,0.563 -2.264,1.27399995 -0.61,0.574 -5.783,5.281 -13.107,11.9169999 -7.325,6.637 -16.839,15.246 -26.271,23.78 -18.863,17.068 -37.396,33.829 -37.396,33.829 l -1.755,1.585 2.349,0 5.86,0 0.34,0 0.255,-0.255 c 0,0 18.607,-16.634 37.509,-33.546 9.451,-8.456 18.96,-16.976 26.271,-23.524 7.31,-6.5489999 12.358,-11.0709999 13.021,-11.6909999 2.12,-1.978 4.02,-1.699 4.02,-1.699 l 0.198,-1.81099995 z m -8.719,1.92499995 c 0.295,-0.053 0.463,-0.012 0.68,0.142 0.368,0.259 0.691,0.997 0.877,1.67 -1.468,1.331 -4.915,4.444 -11.266,10.1349999 -7.31,6.548 -16.848,15.069 -26.299,23.525 -18.773,16.796 -37.005,33.096 -37.254,33.319 l -3.142,0 c 1.593,-1.44 17.676,-15.991 35.669,-32.272 9.431,-8.535 18.945,-17.142 26.271,-23.78 7.325,-6.6369999 12.406,-11.2589999 13.135,-11.9459999 0.584,-0.55 1.034,-0.74 1.329,-0.793 z"
     inkscape:connector-curvature="0"
     style="fill:#f4f4f4" /><path
     id="path67"
     d="m 286.399,0.11787515 c 0,0 -2.824,-0.229 -5.435,2.20799995 -0.008,0.007 -0.188,0.161 -0.199,0.169 -0.283,-0.681 -0.677,-1.321 -1.33,-1.78299995 -0.545,-0.385 -1.308,-0.588 -2.066,-0.453 -0.76,0.135 -1.481,0.563 -2.236,1.27399995 -0.61,0.574 -5.811,5.281 -13.136,11.9169999 -7.324,6.637 -16.839,15.246 -26.27,23.78 -18.862,17.068 -37.396,33.829 -37.396,33.829 l -1.727,1.585 2.35,0 5.832,0 0.339,0 0.255,-0.255 c 0,0 18.607,-16.634 37.509,-33.546 9.451,-8.456 18.989,-16.976 26.298,-23.524 7.311,-6.5489999 12.33,-11.0709999 12.994,-11.6909999 2.119,-1.978 4.02,-1.699 4.02,-1.699 l 0.198,-1.81099995 z m -8.69,1.92499995 c 0.295,-0.052 0.463,-0.012 0.679,0.142 0.366,0.258 0.662,1.001 0.85,1.67 -1.474,1.336 -4.922,4.452 -11.267,10.1349999 -7.309,6.548 -16.819,15.069 -26.27,23.525 -18.773,16.796 -37.005,33.096 -37.254,33.319 l -3.17,0 c 1.593,-1.44 17.676,-15.991 35.669,-32.272 9.431,-8.535 18.946,-17.142 26.27,-23.78 7.325,-6.6369999 12.406,-11.2589999 13.135,-11.9459999 0.585,-0.55 1.062,-0.74 1.358,-0.793 z"
     inkscape:connector-curvature="0"
     style="fill:#f4f4f4" /><path
     id="path69"
     d="m 294.694,0.11787515 c 0,0 -2.853,-0.229 -5.465,2.20799995 -0.006,0.007 -0.188,0.161 -0.197,0.169 -0.283,-0.681 -0.678,-1.321 -1.331,-1.78299995 -0.544,-0.385 -1.279,-0.588 -2.038,-0.453 -0.759,0.135 -1.509,0.563 -2.265,1.27399995 -0.61,0.574 -5.782,5.281 -13.106,11.9169999 -7.324,6.637 -16.839,15.246 -26.271,23.78 -18.862,17.068 -37.396,33.829 -37.396,33.829 l -1.755,1.585 2.35,0 5.832,0 0.368,0 0.255,-0.255 c 0,0 18.607,-16.634 37.509,-33.546 9.451,-8.456 18.96,-16.976 26.271,-23.524 7.311,-6.5489999 12.358,-11.0709999 13.021,-11.6909999 2.12,-1.978 4.021,-1.699 4.021,-1.699 l 0.197,-1.81099995 z m -8.719,1.92499995 c 0.296,-0.052 0.464,-0.012 0.68,0.142 0.368,0.259 0.692,0.997 0.878,1.67 -1.469,1.331 -4.915,4.444 -11.268,10.1349999 -7.309,6.548 -16.848,15.069 -26.298,23.525 -18.774,16.796 -37.005,33.096 -37.255,33.319 l -3.142,0 c 1.593,-1.44 17.676,-15.991 35.669,-32.272 9.432,-8.535 18.945,-17.142 26.27,-23.78 7.086,-6.4199999 11.732,-10.6389999 12.711,-11.5499999 l 0.425,-0.396 c 0.585,-0.55 1.035,-0.74 1.33,-0.793 z"
     inkscape:connector-curvature="0"
     style="fill:#f4f4f4" /><path
     id="path71"
     d="m 302.875,0.11787515 c 0,0 -2.824,-0.229 -5.436,2.20799995 -0.007,0.007 -0.188,0.161 -0.198,0.169 -0.283,-0.681 -0.677,-1.321 -1.33,-1.78299995 -0.545,-0.385 -1.308,-0.588 -2.066,-0.453 -0.758,0.135 -1.481,0.563 -2.237,1.27399995 -0.609,0.574 -5.81,5.281 -13.135,11.9169999 -7.324,6.637 -16.838,15.246 -26.27,23.78 -18.862,17.068 -37.396,33.829 -37.396,33.829 l -1.727,1.585 2.35,0 5.832,0 0.34,0 0.254,-0.255 c 0,0 18.607,-16.634 37.51,-33.546 9.451,-8.456 18.989,-16.976 26.298,-23.524 7.312,-6.5489999 12.33,-11.0709999 12.994,-11.6909999 2.119,-1.978 4.02,-1.699 4.02,-1.699 l 0.197,-1.81099995 z m -8.69,1.92499995 c 0.295,-0.052 0.463,-0.012 0.679,0.142 0.366,0.258 0.662,1.001 0.85,1.67 -1.476,1.337 -4.923,4.452 -11.268,10.1349999 -7.308,6.548 -16.818,15.069 -26.269,23.525 -18.774,16.796 -37.005,33.096 -37.255,33.319 l -3.17,0 c 1.593,-1.44 17.676,-15.991 35.669,-32.272 9.432,-8.535 18.945,-17.142 26.269,-23.78 7.325,-6.6369999 12.407,-11.2589999 13.136,-11.9459999 0.585,-0.55 1.063,-0.74 1.359,-0.793 z"
     inkscape:connector-curvature="0"
     style="fill:#f4f4f4" /><path
     id="path73"
     d="m 311.17,0.11787515 c 0,0 -2.853,-0.229 -5.464,2.20799995 -0.007,0.007 -0.188,0.161 -0.198,0.169 -0.283,-0.681 -0.677,-1.321 -1.331,-1.78299995 -0.544,-0.385 -1.279,-0.588 -2.037,-0.453 -0.76,0.135 -1.51,0.563 -2.266,1.27399995 -0.609,0.574 -5.781,5.281 -13.106,11.9169999 -7.323,6.637 -16.838,15.246 -26.271,23.78 -18.862,17.068 -37.396,33.829 -37.396,33.829 l -1.755,1.585 2.35,0 5.832,0 0.368,0 0.255,-0.255 c 0,0 18.607,-16.634 37.508,-33.546 9.452,-8.456 18.96,-16.976 26.271,-23.524 7.311,-6.5479999 12.358,-11.0719999 13.022,-11.6909999 2.117,-1.978 4.019,-1.699 4.019,-1.699 l 0.199,-1.81099995 z m -8.719,1.92499995 c 0.295,-0.052 0.463,-0.012 0.679,0.142 0.368,0.259 0.692,0.997 0.878,1.67 -1.469,1.332 -4.916,4.444 -11.268,10.1349999 -7.309,6.548 -16.847,15.069 -26.299,23.525 -18.772,16.796 -37.004,33.096 -37.254,33.319 l -3.142,0 c 1.593,-1.44 17.676,-15.991 35.668,-32.272 9.432,-8.535 18.945,-17.142 26.271,-23.78 7.087,-6.4199999 11.732,-10.6389999 12.711,-11.5499999 l 0.425,-0.396 c 0.585,-0.55 1.035,-0.74 1.331,-0.793 z"
     inkscape:connector-curvature="0"
     style="fill:#f4f4f4" /><path
     id="path75"
     d="m 319.437,0.11787515 c 0,0 -2.822,-0.229 -5.437,2.20799995 -0.008,0.008 -0.214,0.188 -0.226,0.198 -0.283,-0.69 -0.669,-1.345 -1.331,-1.81199995 -0.544,-0.385 -1.279,-0.588 -2.038,-0.453 -0.759,0.135 -1.51,0.563 -2.265,1.27399995 -0.61,0.574 -5.782,5.281 -13.106,11.9169999 -7.323,6.637 -16.839,15.246 -26.271,23.78 -18.861,17.068 -37.395,33.829 -37.395,33.829 l -1.727,1.585 2.35,0 5.832,0 0.339,0 0.255,-0.255 c 0,0 18.607,-16.634 37.508,-33.546 9.452,-8.456 18.99,-16.976 26.299,-23.524 7.311,-6.5489999 12.331,-11.0719999 12.993,-11.6909999 2.121,-1.979 4.021,-1.699 4.021,-1.699 l 0.199,-1.81099995 z m -8.721,1.92499995 c 0.296,-0.053 0.493,-0.012 0.709,0.142 0.371,0.263 0.664,1.017 0.85,1.698 -1.481,1.342 -4.932,4.43 -11.268,10.1059999 -7.309,6.548 -16.848,15.069 -26.299,23.525 -18.773,16.796 -36.977,33.096 -37.226,33.319 l -3.17,0 c 1.593,-1.44 17.676,-15.991 35.668,-32.272 9.432,-8.535 18.945,-17.142 26.271,-23.78 7.325,-6.6369999 12.406,-11.2589999 13.135,-11.9459999 0.586,-0.549 1.035,-0.739 1.33,-0.792 z"
     inkscape:connector-curvature="0"
     style="fill:#f4f4f4" /><path
     id="path77"
     d="m 327.73,0.11787515 c 0,0 -2.851,-0.229 -5.463,2.20799995 -0.008,0.007 -0.188,0.161 -0.198,0.169 -0.283,-0.681 -0.678,-1.321 -1.33,-1.78299995 -0.546,-0.385 -1.279,-0.588 -2.039,-0.453 -0.759,0.135 -1.509,0.563 -2.265,1.27399995 -0.61,0.574 -5.782,5.281 -13.106,11.9169999 -7.325,6.637 -16.839,15.246 -26.271,23.78 -18.862,17.068 -37.396,33.829 -37.396,33.829 l -1.755,1.585 2.35,0 5.832,0 0.339,0 0.283,-0.255 c 0,0 18.607,-16.634 37.509,-33.546 9.451,-8.456 18.959,-16.976 26.271,-23.524 7.311,-6.5489999 12.358,-11.0719999 13.021,-11.6909999 2.12,-1.979 3.992,-1.699 3.992,-1.699 l 0.226,-1.81099995 z m -8.719,1.92499995 c 0.296,-0.052 0.464,-0.012 0.68,0.142 0.364,0.258 0.661,1.001 0.849,1.67 -1.476,1.337 -4.921,4.452 -11.267,10.1349999 -7.309,6.548 -16.819,15.069 -26.27,23.525 -18.773,16.796 -37.005,33.096 -37.255,33.319 l -3.142,0 c 1.593,-1.441 17.648,-15.991 35.641,-32.272 9.432,-8.535 18.974,-17.142 26.299,-23.78 7.085,-6.4199999 11.732,-10.6389999 12.71,-11.5499999 l 0.425,-0.396 c 0.586,-0.55 1.035,-0.74 1.33,-0.793 z"
     inkscape:connector-curvature="0"
     style="fill:#f4f4f4" /><path
     id="path79"
     d="m 335.996,0.11787515 c 0,0 -2.853,-0.229 -5.463,2.20799995 -0.008,0.007 -0.188,0.161 -0.198,0.169 -0.283,-0.681 -0.678,-1.321 -1.33,-1.78299995 -0.546,-0.385 -1.28,-0.588 -2.039,-0.453 -0.759,0.135 -1.509,0.563 -2.265,1.27399995 -0.61,0.575 -5.782,5.281 -13.107,11.9169999 -7.325,6.637 -16.838,15.246 -26.271,23.78 -18.862,17.068 -37.395,33.829 -37.395,33.829 l -1.727,1.585 2.35,0 5.832,0 0.34,0 0.254,-0.255 c 0,0 18.607,-16.634 37.508,-33.546 9.452,-8.456 18.99,-16.976 26.299,-23.524 7.312,-6.5489999 12.331,-11.0709999 12.994,-11.6909999 2.119,-1.978 4.02,-1.699 4.02,-1.699 l 0.198,-1.81099995 z m -8.719,1.92499995 c 0.295,-0.052 0.464,-0.012 0.679,0.142 0.368,0.259 0.692,0.997 0.878,1.67 -1.469,1.331 -4.915,4.444 -11.267,10.1349999 -7.309,6.548 -16.848,15.069 -26.299,23.525 -18.773,16.796 -37.004,33.096 -37.254,33.319 l -3.142,0 c 1.593,-1.44 17.676,-15.991 35.667,-32.272 9.434,-8.535 18.947,-17.142 26.271,-23.78 7.324,-6.6369999 12.406,-11.2599999 13.135,-11.9459999 0.587,-0.55 1.037,-0.74 1.332,-0.793 z"
     inkscape:connector-curvature="0"
     style="fill:#f4f4f4" /><path
     id="path81"
     d="m 344.263,0.11787515 c 0,0 -2.822,-0.229 -5.436,2.20799995 -0.007,0.007 -0.188,0.161 -0.198,0.169 -0.283,-0.681 -0.677,-1.321 -1.331,-1.78299995 -0.544,-0.385 -1.279,-0.588 -2.037,-0.453 -0.76,0.135 -1.51,0.563 -2.265,1.27399995 -0.611,0.574 -5.811,5.281 -13.136,11.9169999 -7.323,6.637 -16.839,15.246 -26.271,23.78 -18.861,17.068 -37.367,33.829 -37.367,33.829 l -1.755,1.585 2.35,0 5.831,0 0.339,0 0.255,-0.255 c 0,0 18.607,-16.634 37.509,-33.546 9.452,-8.456 18.988,-16.976 26.299,-23.524 7.311,-6.5479999 12.358,-11.0719999 13.022,-11.6909999 2.119,-1.979 3.991,-1.699 3.991,-1.699 l 0.2,-1.81099995 z m -8.692,1.92499995 c 0.296,-0.052 0.464,-0.012 0.68,0.142 0.366,0.258 0.662,1.001 0.85,1.67 -1.476,1.337 -4.923,4.452 -11.268,10.1349999 -7.309,6.548 -16.818,15.069 -26.271,23.525 -18.773,16.796 -37.005,33.096 -37.254,33.319 l -3.142,0 c 1.593,-1.441 17.649,-15.991 35.64,-32.272 9.433,-8.535 18.946,-17.142 26.271,-23.78 7.086,-6.4199999 11.761,-10.6389999 12.739,-11.5499999 l 0.425,-0.396 c 0.585,-0.55 1.035,-0.74 1.33,-0.793 z"
     inkscape:connector-curvature="0"
     style="fill:#f4f4f4" /><path
     id="path83"
     d="m 352.558,0.11787515 c 0,0 -2.853,-0.229 -5.465,2.20799995 -0.007,0.007 -0.188,0.161 -0.197,0.169 -0.283,-0.681 -0.678,-1.321 -1.331,-1.78299995 -0.544,-0.385 -1.279,-0.588 -2.038,-0.453 -0.76,0.135 -1.51,0.563 -2.265,1.27399995 -0.608,0.574 -5.782,5.281 -13.106,11.9169999 -7.323,6.637 -16.839,15.246 -26.271,23.78 -18.863,17.068 -37.396,33.829 -37.396,33.829 l -1.755,1.585 2.35,0 5.86,0 0.339,0 0.255,-0.255 c 0,0 18.607,-16.634 37.51,-33.546 9.45,-8.456 18.959,-16.976 26.271,-23.524 7.311,-6.5489999 12.357,-11.0719999 13.021,-11.6909999 2.118,-1.978 4.021,-1.699 4.021,-1.699 l 0.197,-1.81099995 z m -8.72,1.92499995 c 0.296,-0.053 0.463,-0.012 0.679,0.142 0.369,0.259 0.692,0.997 0.879,1.67 -1.47,1.332 -4.915,4.444 -11.268,10.1349999 -7.31,6.548 -16.848,15.069 -26.299,23.525 -18.774,16.796 -37.005,33.096 -37.254,33.319 l -3.142,0 c 1.593,-1.44 17.677,-15.991 35.669,-32.272 9.432,-8.535 18.945,-17.142 26.271,-23.78 7.325,-6.6369999 12.406,-11.2589999 13.136,-11.9459999 0.584,-0.55 1.034,-0.74 1.329,-0.793 z"
     inkscape:connector-curvature="0"
     style="fill:#f4f4f4" /><path
     id="path85"
     d="m 360.823,0.11787515 c 0,0 -2.822,-0.229 -5.436,2.20799995 -0.007,0.007 -0.188,0.161 -0.198,0.169 -0.283,-0.681 -0.678,-1.321 -1.33,-1.78299995 -0.545,-0.385 -1.308,-0.588 -2.066,-0.453 -0.76,0.135 -1.481,0.563 -2.237,1.27399995 -0.61,0.574 -5.81,5.281 -13.135,11.9169999 -7.322,6.637 -16.838,15.246 -26.271,23.78 -18.862,17.068 -37.396,33.829 -37.396,33.829 l -1.727,1.585 2.349,0 5.832,0 0.34,0 0.255,-0.255 c 0,0 18.607,-16.634 37.509,-33.546 9.451,-8.456 18.988,-16.976 26.3,-23.524 7.311,-6.5489999 12.329,-11.0719999 12.993,-11.6909999 2.119,-1.979 4.019,-1.699 4.019,-1.699 l 0.199,-1.81099995 z m -8.691,1.92499995 c 0.296,-0.053 0.464,-0.012 0.68,0.142 0.365,0.258 0.662,1.001 0.85,1.67 -1.476,1.337 -4.922,4.452 -11.268,10.1349999 -7.309,6.548 -16.818,15.069 -26.271,23.525 -18.771,16.796 -37.004,33.096 -37.254,33.319 l -3.171,0 c 1.594,-1.44 17.678,-15.991 35.67,-32.272 9.432,-8.535 18.945,-17.142 26.27,-23.78 7.325,-6.6369999 12.407,-11.2589999 13.135,-11.9459999 0.586,-0.55 1.064,-0.74 1.359,-0.793 z"
     inkscape:connector-curvature="0"
     style="fill:#f4f4f4" /><path
     id="path87"
     d="m 368.862,0.11787515 c 0,0 -2.824,-0.229 -5.435,2.20799995 -0.008,0.007 -0.188,0.161 -0.198,0.169 -0.283,-0.681 -0.678,-1.321 -1.33,-1.78299995 -0.546,-0.385 -1.309,-0.588 -2.067,-0.453 -0.758,0.135 -1.48,0.563 -2.236,1.27399995 -0.61,0.575 -5.811,5.281 -13.136,11.9169999 -7.324,6.637 -16.838,15.246 -26.271,23.78 -18.862,17.068 -37.367,33.829 -37.367,33.829 l -1.755,1.585 2.35,0 5.832,0 0.34,0 0.255,-0.255 c 0,0 18.607,-16.634 37.508,-33.546 9.452,-8.456 18.99,-16.976 26.299,-23.524 7.312,-6.5489999 12.331,-11.0709999 12.994,-11.6909999 2.119,-1.978 4.02,-1.699 4.02,-1.699 l 0.197,-1.81099995 z m -8.69,1.92499995 c 0.296,-0.052 0.464,-0.012 0.68,0.142 0.364,0.258 0.661,1.001 0.849,1.67 -1.476,1.337 -4.922,4.452 -11.267,10.1349999 -7.309,6.548 -16.819,15.069 -26.271,23.525 -18.773,16.796 -37.004,33.096 -37.254,33.319 l -3.171,0 c 1.594,-1.44 17.678,-15.991 35.669,-32.272 9.433,-8.535 18.946,-17.142 26.271,-23.78 7.325,-6.6369999 12.435,-11.2599999 13.163,-11.9459999 0.587,-0.55 1.035,-0.74 1.331,-0.793 z"
     inkscape:connector-curvature="0"
     style="fill:#f4f4f4" /><path
     id="path89"
     d="m 377.157,0.11787515 c 0,0 -2.853,-0.229 -5.463,2.20799995 -0.008,0.007 -0.188,0.161 -0.199,0.169 -0.282,-0.681 -0.678,-1.321 -1.33,-1.78299995 -0.545,-0.385 -1.279,-0.588 -2.038,-0.453 -0.759,0.135 -1.509,0.563 -2.265,1.27399995 -0.611,0.574 -5.782,5.281 -13.107,11.9169999 -7.325,6.637 -16.838,15.246 -26.271,23.78 -18.862,17.068 -37.396,33.829 -37.396,33.829 l -1.755,1.585 2.35,0 5.831,0 0.368,0 0.255,-0.255 c 0,0 18.607,-16.634 37.509,-33.546 9.452,-8.456 18.96,-16.976 26.271,-23.524 7.311,-6.5479999 12.358,-11.0719999 13.022,-11.6909999 2.117,-1.978 4.02,-1.699 4.02,-1.699 l 0.198,-1.81099995 z m -8.718,1.92499995 c 0.295,-0.052 0.464,-0.012 0.679,0.142 0.368,0.259 0.692,0.997 0.878,1.67 -1.469,1.332 -4.915,4.444 -11.267,10.1349999 -7.31,6.548 -16.848,15.069 -26.299,23.525 -18.774,16.796 -37.006,33.096 -37.255,33.319 l -3.142,0 c 1.594,-1.44 17.677,-15.991 35.668,-32.272 9.434,-8.535 18.946,-17.142 26.271,-23.78 7.087,-6.4199999 11.732,-10.6389999 12.712,-11.5499999 l 0.424,-0.396 c 0.584,-0.55 1.035,-0.74 1.331,-0.793 z"
     inkscape:connector-curvature="0"
     style="fill:#f4f4f4" /><path
     id="path91"
     d="m 385.423,0.11787515 c 0,0 -2.823,-0.229 -5.436,2.20799995 -0.006,0.007 -0.188,0.161 -0.197,0.169 -0.283,-0.681 -0.678,-1.321 -1.331,-1.78299995 -0.544,-0.385 -1.307,-0.588 -2.066,-0.453 -0.752,0.134 -1.487,0.575 -2.236,1.27399995 -0.007,0.006 -0.021,-0.007 -0.028,0 -0.621,0.584 -5.79,5.289 -13.106,11.9169999 -7.325,6.637 -16.839,15.246 -26.271,23.78 -18.862,17.068 -37.396,33.829 -37.396,33.829 l -1.728,1.585 2.35,0 5.832,0 0.339,0 0.255,-0.255 c 0,0 18.607,-16.634 37.51,-33.546 9.452,-8.456 18.988,-16.976 26.299,-23.524 7.311,-6.5479999 12.33,-11.0719999 12.993,-11.6909999 2.118,-1.978 4.021,-1.699 4.021,-1.699 l 0.196,-1.81099995 z m -8.719,1.92499995 c 0.296,-0.052 0.492,-0.012 0.708,0.142 0.371,0.263 0.665,1.017 0.849,1.698 -1.48,1.342 -4.931,4.43 -11.267,10.1059999 -7.31,6.548 -16.818,15.069 -26.271,23.525 -18.773,16.796 -37.005,33.096 -37.254,33.319 l -3.171,0 c 1.594,-1.44 17.677,-15.991 35.669,-32.272 9.432,-8.535 18.945,-17.142 26.271,-23.78 7.325,-6.6369999 12.406,-11.2599999 13.136,-11.9459999 0.585,-0.549 1.035,-0.739 1.33,-0.792 z"
     inkscape:connector-curvature="0"
     style="fill:#f4f4f4" /><path
     id="path93"
     d="m 393.718,0.11787515 c 0,0 -2.852,-0.229 -5.464,2.20799995 -0.007,0.007 -0.188,0.161 -0.198,0.169 -0.283,-0.681 -0.678,-1.321 -1.33,-1.78299995 -0.545,-0.385 -1.279,-0.588 -2.038,-0.453 -0.76,0.135 -1.51,0.563 -2.265,1.27399995 -0.61,0.574 -5.782,5.281 -13.106,11.9169999 -7.325,6.637 -16.839,15.246 -26.271,23.78 -18.863,17.068 -37.396,33.829 -37.396,33.829 l -1.756,1.585 2.35,0 5.832,0 0.368,0 0.255,-0.255 c 0,0 18.607,-16.634 37.51,-33.546 9.45,-8.456 18.959,-16.976 26.271,-23.524 7.311,-6.5489999 12.357,-11.0719999 13.021,-11.6909999 2.118,-1.978 4.021,-1.699 4.021,-1.699 l 0.196,-1.81099995 z m -8.719,1.92499995 c 0.296,-0.052 0.463,-0.012 0.679,0.142 0.367,0.258 0.662,1.001 0.85,1.67 -1.476,1.337 -4.922,4.452 -11.267,10.1349999 -7.31,6.548 -16.819,15.069 -26.271,23.525 -18.773,16.796 -37.004,33.096 -37.253,33.319 l -3.144,0 c 1.595,-1.44 17.678,-15.991 35.67,-32.272 9.432,-8.535 18.945,-17.142 26.271,-23.78 7.086,-6.4199999 11.731,-10.6389999 12.71,-11.5499999 l 0.426,-0.396 c 0.584,-0.55 1.034,-0.74 1.329,-0.793 z"
     inkscape:connector-curvature="0"
     style="fill:#f4f4f4" /><path
     id="path95"
     d="m 401.984,0.11787515 c 0,0 -2.824,-0.229 -5.436,2.20799995 -0.009,0.008 -0.214,0.188 -0.227,0.198 -0.283,-0.691 -0.669,-1.344 -1.33,-1.81199995 -0.546,-0.385 -1.28,-0.588 -2.038,-0.453 -0.76,0.135 -1.51,0.563 -2.266,1.27399995 -0.609,0.574 -5.782,5.281 -13.106,11.9169999 -7.325,6.637 -16.838,15.246 -26.271,23.78 -18.862,17.068 -37.396,33.829 -37.396,33.829 l -1.727,1.585 2.35,0 5.832,0 0.34,0 0.255,-0.255 c 0,0 18.607,-16.634 37.509,-33.546 9.451,-8.456 18.987,-16.976 26.298,-23.524 7.312,-6.5489999 12.331,-11.0719999 12.995,-11.6909999 2.117,-1.978 4.019,-1.699 4.019,-1.699 l 0.199,-1.81099995 z m -8.719,1.92499995 c 0.295,-0.052 0.464,-0.012 0.68,0.142 0.373,0.263 0.695,1.017 0.878,1.698 -1.481,1.342 -4.931,4.43 -11.268,10.1059999 -7.309,6.548 -16.847,15.069 -26.299,23.525 -18.774,16.796 -37.005,33.096 -37.255,33.319 l -3.142,0 c 1.595,-1.44 17.678,-15.991 35.669,-32.272 9.433,-8.535 18.946,-17.142 26.271,-23.78 7.325,-6.6369999 12.407,-11.2589999 13.136,-11.9459999 0.586,-0.549 1.034,-0.739 1.33,-0.792 z"
     inkscape:connector-curvature="0"
     style="fill:#f4f4f4" /><path
     id="path97"
     d="m 410.25,0.11787515 c 0,0 -2.822,-0.229 -5.435,2.20799995 -0.007,0.007 -0.188,0.161 -0.198,0.169 -0.283,-0.681 -0.679,-1.321 -1.331,-1.78299995 -0.545,-0.385 -1.279,-0.588 -2.039,-0.453 -0.758,0.135 -1.508,0.563 -2.264,1.27399995 -0.611,0.574 -5.811,5.281 -13.136,11.9169999 -7.324,6.637 -16.838,15.246 -26.271,23.78 -18.862,17.068 -37.367,33.829 -37.367,33.829 l -1.755,1.585 2.35,0 5.831,0 0.34,0 0.283,-0.255 c 0,0 18.579,-16.634 37.48,-33.546 9.452,-8.456 18.988,-16.976 26.299,-23.524 7.311,-6.5479999 12.359,-11.0719999 13.022,-11.6909999 2.119,-1.979 3.991,-1.699 3.991,-1.699 l 0.2,-1.81099995 z m -8.69,1.92499995 c 0.295,-0.053 0.464,-0.012 0.68,0.142 0.364,0.258 0.661,1.001 0.85,1.67 -1.477,1.337 -4.923,4.452 -11.268,10.1349999 -7.309,6.548 -16.818,15.069 -26.271,23.525 -18.772,16.796 -37.005,33.096 -37.255,33.319 l -3.142,0 c 1.594,-1.441 17.648,-15.991 35.641,-32.272 9.433,-8.535 18.945,-17.142 26.271,-23.78 7.325,-6.6369999 12.434,-11.2589999 13.163,-11.9459999 0.586,-0.55 1.035,-0.74 1.331,-0.793 z"
     inkscape:connector-curvature="0"
     style="fill:#f4f4f4" /><path
     id="path99"
     d="m 418.544,0.11787515 c 0,0 -2.85,-0.229 -5.463,2.20799995 -0.008,0.007 -0.188,0.161 -0.199,0.169 -0.281,-0.681 -0.677,-1.321 -1.329,-1.78299995 -0.546,-0.385 -1.279,-0.588 -2.039,-0.453 -0.759,0.135 -1.509,0.563 -2.264,1.27399995 -0.611,0.574 -5.782,5.281 -13.107,11.9169999 -7.325,6.637 -16.839,15.246 -26.271,23.78 -18.862,17.068 -37.396,33.829 -37.396,33.829 l -1.754,1.585 2.378,0 5.831,0 0.339,0 0.255,-0.255 c 0,0 18.608,-16.634 37.51,-33.546 9.451,-8.456 18.959,-16.976 26.271,-23.524 7.311,-6.5489999 12.358,-11.0719999 13.021,-11.6909999 2.12,-1.979 4.021,-1.699 4.021,-1.699 l 0.196,-1.81099995 z m -8.719,1.92499995 c 0.296,-0.052 0.464,-0.012 0.68,0.142 0.368,0.259 0.691,0.997 0.877,1.67 -1.468,1.332 -4.914,4.444 -11.266,10.1349999 -7.311,6.548 -16.848,15.069 -26.299,23.525 -18.774,16.796 -37.005,33.096 -37.255,33.319 l -3.143,0 c 1.594,-1.44 17.677,-15.991 35.67,-32.272 9.432,-8.535 18.945,-17.142 26.271,-23.78 7.325,-6.6369999 12.405,-11.2589999 13.135,-11.9459999 0.586,-0.55 1.035,-0.74 1.33,-0.793 z"
     inkscape:connector-curvature="0"
     style="fill:#f4f4f4" /><path
     id="path101"
     d="m 426.811,0.11787515 c 0,0 -2.823,-0.229 -5.436,2.20799995 -0.007,0.007 -0.188,0.161 -0.198,0.169 -0.283,-0.681 -0.677,-1.321 -1.33,-1.78299995 -0.545,-0.385 -1.307,-0.588 -2.066,-0.453 -0.759,0.135 -1.481,0.563 -2.236,1.27399995 -0.61,0.575 -5.811,5.281 -13.136,11.9169999 -7.324,6.637 -16.838,15.246 -26.271,23.78 -18.861,17.068 -37.367,33.829 -37.367,33.829 l -1.756,1.585 2.351,0 5.832,0 0.339,0 0.255,-0.255 c 0,0 18.608,-16.634 37.509,-33.546 9.452,-8.456 18.99,-16.976 26.299,-23.524 7.312,-6.5489999 12.33,-11.0709999 12.994,-11.6909999 2.119,-1.978 4.02,-1.699 4.02,-1.699 l 0.197,-1.81099995 z M 418.12,2.0428751 c 0.296,-0.052 0.463,-0.012 0.679,0.142 0.367,0.258 0.662,1.001 0.85,1.67 -1.476,1.337 -4.922,4.452 -11.267,10.1349999 -7.31,6.548 -16.819,15.069 -26.271,23.525 -18.772,16.796 -37.004,33.096 -37.253,33.319 l -3.171,0 c 1.592,-1.44 17.677,-15.991 35.668,-32.272 9.433,-8.535 18.946,-17.142 26.271,-23.78 7.324,-6.6369999 12.435,-11.2599999 13.164,-11.9459999 0.585,-0.55 1.035,-0.74 1.33,-0.793 z"
     inkscape:connector-curvature="0"
     style="fill:#f4f4f4" /><path
     id="path103"
     d="m 435.021,0.11787515 c 0,0 -2.853,-0.229 -5.464,2.20799995 -0.007,0.007 -0.188,0.161 -0.198,0.169 -0.282,-0.681 -0.678,-1.321 -1.33,-1.78299995 -0.545,-0.385 -1.279,-0.588 -2.039,-0.453 -0.758,0.135 -1.508,0.563 -2.264,1.27399995 -0.611,0.574 -5.782,5.281 -13.107,11.9169999 -7.325,6.637 -16.839,15.246 -26.271,23.78 -18.862,17.068 -37.396,33.829 -37.396,33.829 l -1.755,1.585 2.378,0 5.831,0 0.339,0 0.255,-0.255 c 0,0 18.608,-16.634 37.51,-33.546 9.452,-8.456 18.988,-16.976 26.299,-23.524 7.311,-6.5479999 12.33,-11.0719999 12.993,-11.6909999 2.119,-1.978 4.021,-1.699 4.021,-1.699 l 0.198,-1.81099995 z m -8.719,1.92499995 c 0.295,-0.052 0.464,-0.012 0.68,0.142 0.367,0.259 0.691,0.997 0.877,1.67 -1.469,1.332 -4.915,4.444 -11.267,10.1349999 -7.31,6.548 -16.848,15.069 -26.299,23.525 -18.774,16.796 -37.005,33.096 -37.255,33.319 l -3.143,0 c 1.595,-1.44 17.677,-15.991 35.67,-32.272 9.432,-8.535 18.945,-17.142 26.27,-23.78 7.325,-6.6369999 12.406,-11.2589999 13.136,-11.9459999 0.585,-0.55 1.035,-0.74 1.331,-0.793 z"
     inkscape:connector-curvature="0"
     style="fill:#f4f4f4" /><path
     id="path105"
     d="m 443.286,0.11787515 c 0,0 -2.823,-0.229 -5.436,2.20799995 -0.007,0.007 -0.188,0.161 -0.197,0.169 -0.283,-0.681 -0.678,-1.321 -1.331,-1.78299995 -0.544,-0.385 -1.307,-0.588 -2.066,-0.453 -0.759,0.135 -1.481,0.563 -2.236,1.27399995 -0.61,0.575 -5.811,5.281 -13.135,11.9169999 -7.325,6.637 -16.839,15.246 -26.271,23.78 -18.862,17.068 -37.367,33.829 -37.367,33.829 l -1.756,1.585 2.35,0 5.832,0 0.339,0 0.255,-0.255 c 0,0 18.607,-16.634 37.51,-33.546 9.451,-8.456 18.988,-16.976 26.299,-23.524 7.311,-6.5479999 12.357,-11.0719999 13.021,-11.6909999 2.118,-1.978 3.992,-1.699 3.992,-1.699 l 0.197,-1.81099995 z m -8.69,1.92499995 c 0.296,-0.052 0.463,-0.012 0.679,0.142 0.365,0.258 0.662,1.001 0.85,1.67 -1.475,1.337 -4.922,4.452 -11.266,10.1349999 -7.311,6.548 -16.82,15.069 -26.271,23.525 -18.773,16.796 -37.005,33.096 -37.254,33.319 l -3.171,0 c 1.592,-1.44 17.677,-15.991 35.669,-32.272 9.432,-8.535 18.945,-17.142 26.271,-23.78 7.325,-6.6369999 12.435,-11.2599999 13.164,-11.9459999 0.584,-0.55 1.034,-0.74 1.329,-0.793 z"
     inkscape:connector-curvature="0"
     style="fill:#f4f4f4" /><path
     id="path107"
     d="m 451.581,0.11787515 c 0,0 -2.853,-0.229 -5.464,2.20799995 -0.007,0.007 -0.188,0.161 -0.198,0.169 -0.283,-0.681 -0.678,-1.321 -1.33,-1.78299995 -0.545,-0.385 -1.279,-0.588 -2.038,-0.453 -0.76,0.135 -1.51,0.563 -2.266,1.27399995 -0.609,0.574 -5.781,5.281 -13.106,11.9169999 -7.324,6.637 -16.838,15.246 -26.271,23.78 -18.862,17.068 -37.396,33.829 -37.396,33.829 l -1.755,1.585 2.35,0 5.86,0 0.34,0 0.255,-0.255 c 0,0 18.607,-16.634 37.509,-33.546 9.451,-8.456 18.96,-16.976 26.271,-23.524 7.312,-6.5489999 12.358,-11.0719999 13.022,-11.6909999 2.117,-1.978 4.021,-1.699 4.021,-1.699 l 0.196,-1.81099995 z m -8.719,1.92499995 c 0.295,-0.052 0.463,-0.012 0.679,0.142 0.368,0.259 0.692,0.997 0.878,1.67 -1.469,1.332 -4.915,4.444 -11.268,10.1349999 -7.309,6.548 -16.847,15.069 -26.299,23.525 -18.773,16.796 -37.004,33.096 -37.254,33.319 l -3.142,0 c 1.594,-1.44 17.677,-15.991 35.669,-32.272 9.432,-8.535 18.945,-17.142 26.27,-23.78 7.087,-6.4199999 11.732,-10.6389999 12.711,-11.5499999 l 0.426,-0.396 c 0.585,-0.55 1.034,-0.74 1.33,-0.793 z"
     inkscape:connector-curvature="0"
     style="fill:#f4f4f4" /><path
     id="path109"
     d="m 459.848,0.11787515 c 0,0 -2.824,-0.229 -5.436,2.20799995 -0.007,0.007 -0.188,0.161 -0.198,0.169 -0.283,-0.681 -0.678,-1.321 -1.33,-1.78299995 -0.546,-0.385 -1.309,-0.588 -2.066,-0.453 -0.76,0.135 -1.481,0.563 -2.237,1.27399995 -0.609,0.575 -5.811,5.281 -13.135,11.9169999 -7.325,6.637 -16.839,15.246 -26.271,23.78 -18.862,17.068 -37.396,33.829 -37.396,33.829 l -1.727,1.585 2.35,0 5.832,0 0.34,0 0.254,-0.255 c 0,0 18.607,-16.634 37.51,-33.546 9.451,-8.456 18.987,-16.976 26.298,-23.524 7.311,-6.5479999 12.331,-11.0719999 12.995,-11.6909999 2.117,-1.978 4.019,-1.699 4.019,-1.699 l 0.198,-1.81099995 z m -8.692,1.92499995 c 0.295,-0.052 0.464,-0.012 0.68,0.142 0.364,0.258 0.661,1.001 0.85,1.67 -1.477,1.337 -4.923,4.452 -11.268,10.1349999 -7.309,6.548 -16.818,15.069 -26.271,23.525 -18.774,16.796 -37.005,33.096 -37.255,33.319 l -3.17,0 c 1.593,-1.44 17.677,-15.991 35.669,-32.272 9.433,-8.535 18.945,-17.142 26.271,-23.78 7.325,-6.6369999 12.407,-11.2599999 13.136,-11.9459999 0.585,-0.55 1.062,-0.74 1.358,-0.793 z"
     inkscape:connector-curvature="0"
     style="fill:#f4f4f4" /><path
     id="path111"
     d="m 468.142,0.11787515 c 0,0 -2.852,-0.229 -5.464,2.20799995 -0.007,0.007 -0.188,0.161 -0.197,0.169 -0.283,-0.681 -0.679,-1.321 -1.331,-1.78299995 -0.545,-0.385 -1.279,-0.588 -2.039,-0.453 -0.758,0.135 -1.508,0.563 -2.264,1.27399995 -0.611,0.575 -5.782,5.281 -13.107,11.9169999 -7.325,6.637 -16.839,15.246 -26.271,23.78 -18.862,17.068 -37.396,33.829 -37.396,33.829 l -1.755,1.585 2.35,0 5.831,0 0.367,0 0.256,-0.255 c 0,0 18.607,-16.634 37.509,-33.546 9.452,-8.456 18.96,-16.976 26.271,-23.524 7.311,-6.5479999 12.359,-11.0709999 13.021,-11.6909999 2.12,-1.978 4.021,-1.699 4.021,-1.699 l 0.198,-1.81099995 z m -8.72,1.92499995 c 0.296,-0.052 0.465,-0.012 0.681,0.142 0.367,0.259 0.691,0.997 0.877,1.67 -1.469,1.331 -4.915,4.444 -11.267,10.1349999 -7.309,6.548 -16.847,15.069 -26.299,23.525 -18.774,16.796 -37.005,33.096 -37.255,33.319 l -3.143,0 c 1.594,-1.44 17.678,-15.991 35.67,-32.272 9.432,-8.535 18.945,-17.142 26.271,-23.78 7.325,-6.6369999 12.405,-11.2599999 13.135,-11.9459999 0.586,-0.55 1.035,-0.74 1.33,-0.793 z"
     inkscape:connector-curvature="0"
     style="fill:#f4f4f4" /><path
     id="path113"
     d="m 476.407,0.11787515 c 0,0 -2.823,-0.229 -5.435,2.20799995 -0.01,0.008 -0.214,0.188 -0.228,0.198 -0.282,-0.691 -0.668,-1.344 -1.329,-1.81199995 -0.546,-0.385 -1.279,-0.588 -2.039,-0.453 -0.759,0.135 -1.509,0.563 -2.265,1.27399995 -0.61,0.574 -5.782,5.281 -13.107,11.9169999 -7.324,6.637 -16.838,15.246 -26.27,23.78 -18.862,17.068 -37.396,33.829 -37.396,33.829 l -1.727,1.585 2.35,0 5.832,0 0.339,0 0.255,-0.255 c 0,0 18.608,-16.634 37.51,-33.546 9.451,-8.456 18.987,-16.976 26.299,-23.524 7.311,-6.5489999 12.329,-11.0719999 12.993,-11.6909999 2.118,-1.978 4.021,-1.699 4.021,-1.699 l 0.197,-1.81099995 z m -8.718,1.92499995 c 0.296,-0.052 0.464,-0.012 0.68,0.142 0.373,0.263 0.695,1.017 0.877,1.698 -1.48,1.342 -4.931,4.43 -11.266,10.1059999 -7.31,6.548 -16.849,15.069 -26.299,23.525 -18.774,16.796 -37.005,33.096 -37.255,33.319 l -3.143,0 c 1.594,-1.44 17.677,-15.991 35.67,-32.272 9.432,-8.535 18.945,-17.142 26.271,-23.78 7.324,-6.6369999 12.405,-11.2589999 13.135,-11.9459999 0.585,-0.549 1.035,-0.739 1.33,-0.792 z"
     inkscape:connector-curvature="0"
     style="fill:#f4f4f4" /><path
     id="path115"
     d="m 484.674,0.11787515 c 0,0 -2.824,-0.229 -5.435,2.20799995 -0.008,0.007 -0.188,0.161 -0.199,0.169 -0.283,-0.681 -0.677,-1.321 -1.33,-1.78299995 -0.545,-0.385 -1.279,-0.588 -2.038,-0.453 -0.76,0.135 -1.51,0.563 -2.266,1.27399995 -0.609,0.575 -5.81,5.281 -13.135,11.9169999 -7.325,6.637 -16.838,15.246 -26.271,23.78 -18.862,17.068 -37.367,33.829 -37.367,33.829 l -1.756,1.585 2.351,0 5.832,0 0.339,0 0.283,-0.255 c 0,0 18.58,-16.634 37.48,-33.546 9.452,-8.456 18.988,-16.976 26.299,-23.524 7.311,-6.5479999 12.358,-11.0719999 13.022,-11.6909999 2.117,-1.978 3.991,-1.699 3.991,-1.699 l 0.2,-1.81099995 z m -8.691,1.92499995 c 0.295,-0.052 0.463,-0.012 0.679,0.142 0.364,0.258 0.662,1.001 0.85,1.67 -1.476,1.337 -4.923,4.452 -11.267,10.1349999 -7.31,6.548 -16.819,15.069 -26.271,23.525 -18.773,16.796 -37.004,33.096 -37.254,33.319 l -3.142,0 c 1.594,-1.441 17.648,-15.991 35.64,-32.272 9.433,-8.535 18.945,-17.142 26.271,-23.78 7.325,-6.6369999 12.436,-11.2599999 13.164,-11.9459999 0.585,-0.55 1.035,-0.74 1.33,-0.793 z"
     inkscape:connector-curvature="0"
     style="fill:#f4f4f4" /><path
     id="path117"
     d="m 492.969,0.11787515 c 0,0 -2.853,-0.229 -5.464,2.20799995 -0.007,0.007 -0.188,0.161 -0.198,0.169 -0.283,-0.681 -0.677,-1.321 -1.331,-1.78299995 -0.544,-0.385 -1.279,-0.588 -2.037,-0.453 -0.76,0.135 -1.51,0.563 -2.266,1.27399995 -0.609,0.574 -5.781,5.281 -13.106,11.9169999 -7.325,6.637 -16.839,15.246 -26.271,23.78 -18.863,17.068 -37.396,33.829 -37.396,33.829 l -1.756,1.585 2.378,0 5.831,0 0.341,0 0.254,-0.255 c 0,0 18.607,-16.634 37.51,-33.546 9.451,-8.456 18.96,-16.976 26.271,-23.524 7.311,-6.5479999 12.358,-11.0719999 13.022,-11.6909999 2.117,-1.978 4.02,-1.699 4.02,-1.699 l 0.198,-1.81099995 z m -8.72,1.92499995 c 0.296,-0.052 0.464,-0.012 0.68,0.142 0.368,0.259 0.692,0.997 0.878,1.67 -1.469,1.332 -4.915,4.444 -11.268,10.1349999 -7.309,6.548 -16.847,15.069 -26.299,23.525 -18.774,16.796 -37.005,33.096 -37.254,33.319 l -3.142,0 c 1.594,-1.44 17.676,-15.991 35.668,-32.272 9.432,-8.535 18.945,-17.142 26.271,-23.78 7.325,-6.6369999 12.406,-11.2589999 13.136,-11.9459999 0.585,-0.55 1.035,-0.74 1.33,-0.793 z"
     inkscape:connector-curvature="0"
     style="fill:#f4f4f4" /><path
     id="path119"
     d="m 501.319,0.11787515 c 0,0 -2.823,-0.229 -5.436,2.20799995 -0.009,0.008 -0.214,0.188 -0.226,0.198 -0.283,-0.69 -0.67,-1.345 -1.331,-1.81199995 -0.545,-0.385 -1.279,-0.588 -2.039,-0.453 -0.758,0.135 -1.508,0.563 -2.264,1.27399995 -0.609,0.574 -5.782,5.281 -13.107,11.9169999 -7.323,6.637 -16.839,15.246 -26.271,23.78 -18.862,17.068 -37.396,33.829 -37.396,33.829 l -1.727,1.585 2.35,0 5.831,0 0.341,0 0.254,-0.255 c 0,0 18.607,-16.634 37.509,-33.546 9.452,-8.456 18.99,-16.976 26.299,-23.524 7.311,-6.5489999 12.331,-11.0709999 12.994,-11.6909999 2.12,-1.978 4.02,-1.699 4.02,-1.699 l 0.199,-1.81099995 z m -8.718,1.92499995 c 0.295,-0.053 0.492,-0.012 0.708,0.142 0.371,0.263 0.665,1.017 0.849,1.698 -1.48,1.342 -4.932,4.43 -11.267,10.1059999 -7.309,6.548 -16.848,15.069 -26.299,23.525 -18.774,16.796 -36.977,33.096 -37.227,33.319 l -3.17,0 c 1.595,-1.44 17.677,-15.991 35.669,-32.272 9.432,-8.535 18.945,-17.142 26.271,-23.78 7.325,-6.6369999 12.406,-11.2589999 13.135,-11.9459999 0.586,-0.549 1.035,-0.739 1.331,-0.792 z"
     inkscape:connector-curvature="0"
     style="fill:#f4f4f4" /><path
     id="path121"
     d="m 509.585,0.11787515 c 0,0 -2.823,-0.229 -5.435,2.20799995 -0.007,0.007 -0.188,0.161 -0.198,0.169 -0.283,-0.681 -0.678,-1.321 -1.331,-1.78299995 -0.544,-0.385 -1.278,-0.588 -2.038,-0.453 -0.758,0.135 -1.51,0.563 -2.264,1.27399995 -0.611,0.574 -5.811,5.281 -13.136,11.9169999 -7.325,6.637 -16.811,15.246 -26.242,23.78 -18.862,17.068 -37.396,33.829 -37.396,33.829 l -1.756,1.585 2.35,0 5.832,0 0.339,0 0.283,-0.255 c 0,0 18.608,-16.634 37.51,-33.546 9.452,-8.456 18.962,-16.976 26.271,-23.524 7.311,-6.5489999 12.358,-11.0709999 13.021,-11.6909999 2.12,-1.978 3.992,-1.699 3.992,-1.699 l 0.198,-1.81099995 z m -8.69,1.92499995 c 0.296,-0.052 0.464,-0.012 0.68,0.142 0.364,0.258 0.661,1.001 0.849,1.67 -1.475,1.337 -4.921,4.452 -11.266,10.1349999 -7.31,6.548 -16.82,15.069 -26.271,23.525 -18.774,16.796 -37.006,33.096 -37.255,33.319 l -3.143,0 c 1.594,-1.441 17.649,-15.991 35.641,-32.272 9.433,-8.535 18.946,-17.142 26.271,-23.78 7.324,-6.6369999 12.434,-11.2589999 13.163,-11.9459999 l 0.113,-0.085 c 0.511,-0.445 0.949,-0.66 1.218,-0.708 z"
     inkscape:connector-curvature="0"
     style="fill:#f4f4f4" /><path
     id="path123"
     d="m 93.532,0.00487515 c -1.52,-0.02 -3.448,0.028 -5.549,0.028 l -80.34,0 c -0.653,0 -1.337,0.009 -2.01,0.396 -0.672,0.387 -1.104,1.22499995 -1.104,2.17999995 0,-0.031 -0.026,0.424 -0.057,1.047 -0.03,0.623 -0.084,1.484 -0.142,2.576 -0.115,2.184 -0.256,5.2399999 -0.453,8.8609999 -0.395,7.241 -0.946,16.779 -1.472,26.299 -0.525,9.52 -1.05,19.009 -1.443,26.186 -0.198,3.588 -0.338,6.611 -0.453,8.748 -0.058,1.068 -0.11,1.922 -0.142,2.519 -0.016,0.299 -0.021,0.511 -0.029,0.68 -0.007,0.169 -0.028,0.219 -0.028,0.34 0,0.308 -0.106,1.116 0.142,1.953 0.124,0.418 0.357,0.859 0.792,1.189 0.435,0.33 1.028,0.51 1.67,0.51 l 526.315,0 c 2.113,0 3.117,-0.104 3.879,-0.708 0.38,-0.302 0.596,-0.82 0.622,-1.161 0.028,-0.34 -0.028,-0.546 -0.028,-0.623 0,-0.158 0.012,-0.166 0,-0.34 -0.008,-0.174 -0.037,-0.425 -0.056,-0.736 -0.04,-0.623 -0.098,-1.514 -0.171,-2.633 -0.143,-2.239 -0.348,-5.376 -0.594,-9.144 -0.492,-7.535 -1.125,-17.535 -1.783,-27.488 -1.313,-19.907 -2.633,-39.71699985 -2.633,-39.71699985 l -0.057,-0.85 -0.85,0 -9.682,0 -0.113,0 c -0.172,-0.013 -2.82,-0.151 -5.35,2.20799995 -0.008,0.007 -0.188,0.161 -0.199,0.169 -0.283,-0.681 -0.677,-1.321 -1.33,-1.78299995 -0.545,-0.385 -1.279,-0.588 -2.038,-0.453 -0.759,0.135 -1.51,0.563 -2.265,1.27399995 -0.61,0.575 -5.782,5.281 -13.107,11.9169999 -7.324,6.637 -16.838,15.246 -26.27,23.78 -18.862,17.068 -37.396,33.829 -37.396,33.829 l -1.727,1.585 2.349,0 5.832,0 0.34,0 0.255,-0.255 c 0,0 18.608,-16.634 37.51,-33.546 9.451,-8.456 18.989,-16.976 26.299,-23.524 7.311,-6.5489999 12.329,-11.0709999 12.993,-11.6909999 2.119,-1.978 4.021,-1.699 4.021,-1.699 l 0.057,0 0.027,0 8.946,0 c 0.055,0.82 1.29,19.4149999 2.575,38.8959999 0.656,9.953 1.292,19.925 1.783,27.459 0.246,3.767 0.452,6.906 0.595,9.144 0.073,1.118 0.131,2.013 0.17,2.633 0.02,0.31 0.048,0.566 0.057,0.736 0.011,0.169 0,0.338 0,0.227 0,0.223 0.022,0.299 0.028,0.368 -0.045,0.018 -0.76,0.312 -2.689,0.312 l -526.313,0 c -0.357,0 -0.498,-0.09 -0.566,-0.142 -0.068,-0.052 -0.123,-0.095 -0.169,-0.255 -0.095,-0.32 -0.057,-0.91 -0.057,-1.444 0,0.068 0.021,-0.062 0.028,-0.227 0.008,-0.165 0.013,-0.41 0.029,-0.708 0.03,-0.595 0.055,-1.452 0.113,-2.52 0.115,-2.135 0.284,-5.131 0.481,-8.719 0.394,-7.176 0.918,-16.694 1.443,-26.214 0.526,-9.52 1.05,-19.057 1.444,-26.299 0.197,-3.621 0.367,-6.6459999 0.481,-8.8319999 0.057,-1.093 0.11,-1.978 0.142,-2.605 0.031,-0.626 0.057,-0.93 0.057,-1.132 0,-0.557 0.066,-0.547 0.198,-0.623 0.131,-0.076 0.535,-0.142 1.104,-0.142 l 80.34,0 c 2.118,0 4.073,-0.048 5.549,-0.028 0.737,0.009 1.362,0.044 1.812,0.084 0.45,0.041 0.773,0.174 0.623,0.085 l 0.906,-1.55699995 c -0.486,-0.286 -0.851,-0.292 -1.387,-0.339 -0.537,-0.044 -1.195,-0.07 -1.955,-0.081 z M 509.161,2.0428751 c 0.295,-0.052 0.463,-0.012 0.679,0.142 0.368,0.259 0.692,0.997 0.878,1.67 -1.469,1.331 -4.915,4.444 -11.268,10.1349999 -7.309,6.548 -16.847,15.069 -26.298,23.525 -18.773,16.796 -37.005,33.096 -37.254,33.319 l -3.143,0 c 1.594,-1.44 17.677,-15.991 35.669,-32.272 9.432,-8.535 18.945,-17.142 26.27,-23.78 7.325,-6.6369999 12.407,-11.2599999 13.137,-11.9459999 0.585,-0.55 1.035,-0.74 1.33,-0.793 z"
     inkscape:connector-curvature="0"
     style="fill:#f4f4f4" /><path
     id="rect125"
     d="m 0,86.431875 0,0.906 0,46.030005 0,0.906 0.906,0 531.695,0 0.906,0 0,-0.906 0,-46.030005 0,-0.906 -0.906,0 -531.695,0 -0.906,0 z m 1.812,1.811 529.883,0 0,44.219005 -529.883,0 0,-44.219005 z"
     inkscape:connector-curvature="0"
     style="fill:#f4f4f4" /><path
     id="rect127"
     d="m 0,134.83988 0,0.905 0,132.146 0,0.906 0.906,0 531.695,0 0.906,0 0,-0.906 0,-132.146 0,-0.905 -0.906,0 -531.695,0 -0.906,0 z m 1.812,1.811 529.883,0 0,130.334 -529.883,0 0,-130.334 z"
     inkscape:connector-curvature="0"
     style="fill:#f4f4f4" /><path
     id="line129"
     d="m 1.189,82.439875 0,4.727 1.812,0 0,-4.727 -1.812,0 z"
     inkscape:connector-curvature="0"
     style="fill:#f4f4f4" /><path
     id="line131"
     d="m 1.189,133.22688 0,2.519 1.812,0 0,-2.519 -1.812,0 z"
     inkscape:connector-curvature="0"
     style="fill:#f4f4f4" /><path
     id="line133"
     d="m 530.421,82.524875 0,4.728 1.812,0 0,-4.728 -1.812,0 z"
     inkscape:connector-curvature="0"
     style="fill:#f4f4f4" /><path
     id="line135"
     d="m 530.421,133.31088 0,2.521 1.812,0 0,-2.521 -1.812,0 z"
     inkscape:connector-curvature="0"
     style="fill:#f4f4f4" /><path
     id="polygon137"
     d="m 413.534,96.197875 -0.255,0.283 -11.975,11.975005 -1.558,1.557 2.181,0 105.449,0 0.396,0 0.283,-0.311 10.813,-11.975005 1.359,-1.529 -2.038,0 -104.258,0 -0.397,0 z m 0.764,1.812 101.883,0 -9.228,10.191005 -102.846,0 10.191,-10.191005 z"
     inkscape:connector-curvature="0"
     style="fill:#f4f4f4" /><path
     id="path139"
     d="m 16.221,145.56788 c -0.665,0 -1.217,0.554 -1.217,1.218 l 0,20.1 c 0,0.662 0.555,1.217 1.217,1.217 l 20.099,0 c 0.665,0 1.217,-0.553 1.217,-1.217 l 0,-20.1 c 0,-0.663 -0.555,-1.218 -1.217,-1.218 l -20.099,0 z m 0.594,1.812 18.91,0 0,18.911 -18.91,0 0,-18.911 z"
     inkscape:connector-curvature="0"
     style="fill:#f4f4f4" /><path
     id="path141"
     d="m 37.905,145.56788 c -0.664,0 -1.217,0.554 -1.217,1.218 l 0,20.1 c 0,0.662 0.555,1.217 1.217,1.217 l 20.1,0 c 0.664,0 1.246,-0.553 1.246,-1.217 l 0,-20.1 c 0,-0.663 -0.584,-1.218 -1.246,-1.218 l -20.1,0 z m 0.595,1.812 18.938,0 0,18.911 -18.938,0 0,-18.911 z"
     inkscape:connector-curvature="0"
     style="fill:#f4f4f4" /><path
     id="path143"
     d="m 59.618,145.56788 c -0.664,0 -1.246,0.554 -1.246,1.218 l 0,20.1 c 0,0.662 0.584,1.217 1.246,1.217 l 20.099,0 c 0.665,0 1.217,-0.553 1.217,-1.217 l 0,-20.1 c 0,-0.663 -0.555,-1.218 -1.217,-1.218 l -20.099,0 z m 0.567,1.812 18.938,0 0,18.911 -18.938,0 0,-18.911 z"
     inkscape:connector-curvature="0"
     style="fill:#f4f4f4" /><path
     id="path145"
     d="m 81.303,145.56788 c -0.665,0 -1.217,0.554 -1.217,1.218 l 0,20.1 c 0,0.662 0.555,1.217 1.217,1.217 l 20.099,0 c 0.665,0 1.217,-0.553 1.217,-1.217 l 0,-20.1 c 0,-0.663 -0.556,-1.218 -1.217,-1.218 l -20.099,0 z m 0.595,1.812 18.91,0 0,18.911 -18.91,0 0,-18.911 z"
     inkscape:connector-curvature="0"
     style="fill:#f4f4f4" /><path
     id="path147"
     d="m 102.987,145.56788 c -0.664,0 -1.217,0.554 -1.217,1.218 l 0,20.1 c 0,0.662 0.556,1.217 1.217,1.217 l 20.1,0 c 0.664,0 1.217,-0.553 1.217,-1.217 l 0,-20.1 c 0,-0.663 -0.556,-1.218 -1.217,-1.218 l -20.1,0 z m 0.595,1.812 18.911,0 0,18.911 -18.911,0 0,-18.911 z"
     inkscape:connector-curvature="0"
     style="fill:#f4f4f4" /><path
     id="path149"
     d="m 124.7,145.56788 c -0.663,0 -1.246,0.554 -1.246,1.218 l 0,20.1 c 0,0.665 0.584,1.217 1.246,1.217 l 20.099,0 c 0.665,0 1.217,-0.553 1.217,-1.217 l 0,-20.1 c 0,-0.663 -0.555,-1.218 -1.217,-1.218 l -20.099,0 z m 0.566,1.812 18.938,0 0,18.911 -18.938,0 0,-18.911 z"
     inkscape:connector-curvature="0"
     style="fill:#f4f4f4" /><path
     id="path151"
     d="m 146.385,145.56788 c -0.665,0 -1.217,0.554 -1.217,1.218 l 0,20.1 c 0,0.662 0.555,1.217 1.217,1.217 l 20.099,0 c 0.665,0 1.217,-0.553 1.217,-1.217 l 0,-20.1 c 0,-0.663 -0.556,-1.218 -1.217,-1.218 l -20.099,0 z m 0.595,1.812 18.91,0 0,18.911 -18.91,0 0,-18.911 z"
     inkscape:connector-curvature="0"
     style="fill:#f4f4f4" /><path
     id="path153"
     d="m 168.069,145.56788 c -0.664,0 -1.217,0.554 -1.217,1.218 l 0,20.1 c 0,0.662 0.555,1.217 1.217,1.217 l 20.099,0 c 0.664,0 1.217,-0.553 1.217,-1.217 l 0,-20.1 c 0,-0.663 -0.556,-1.218 -1.217,-1.218 l -20.099,0 z m 0.595,1.812 18.911,0 0,18.911 -18.911,0 0,-18.911 z"
     inkscape:connector-curvature="0"
     style="fill:#f4f4f4" /><path
     id="path155"
     d="m 189.753,145.56788 c -0.663,0 -1.217,0.554 -1.217,1.218 l 0,20.1 c 0,0.665 0.556,1.217 1.217,1.217 l 20.128,0 c 0.663,0 1.217,-0.553 1.217,-1.217 l 0,-20.1 c 0,-0.663 -0.557,-1.218 -1.217,-1.218 l -20.128,0 z m 0.595,1.812 18.938,0 0,18.911 -18.938,0 0,-18.911 z"
     inkscape:connector-curvature="0"
     style="fill:#f4f4f4" /><path
     id="path157"
     d="m 211.467,145.56788 c -0.665,0 -1.218,0.554 -1.218,1.218 l 0,20.1 c 0,0.662 0.556,1.217 1.218,1.217 l 20.099,0 c 0.663,0 1.218,-0.553 1.218,-1.217 l 0,-20.1 c 0,-0.666 -0.556,-1.218 -1.218,-1.218 l -20.099,0 z m 0.594,1.812 18.91,0 0,18.911 -18.91,0 0,-18.911 z"
     inkscape:connector-curvature="0"
     style="fill:#f4f4f4" /><path
     id="path159"
     d="m 233.151,145.56788 c -0.663,0 -1.217,0.554 -1.217,1.218 l 0,20.1 c 0,0.665 0.555,1.217 1.217,1.217 l 20.1,0 c 0.663,0 1.217,-0.553 1.217,-1.217 l 0,-20.1 c 0,-0.666 -0.556,-1.218 -1.217,-1.218 l -20.1,0 z m 0.595,1.812 18.91,0 0,18.911 -18.91,0 0,-18.911 z"
     inkscape:connector-curvature="0"
     style="fill:#f4f4f4" /><path
     id="path161"
     d="m 254.836,145.56788 c -0.664,0 -1.217,0.554 -1.217,1.218 l 0,20.1 c 0,0.665 0.555,1.217 1.217,1.217 l 20.098,0 c 0.664,0 1.246,-0.556 1.246,-1.217 l 0,-20.1 c 0,-0.663 -0.584,-1.218 -1.246,-1.218 l -20.098,0 z m 0.594,1.812 18.938,0 0,18.911 -18.938,0 0,-18.911 z"
     inkscape:connector-curvature="0"
     style="fill:#f4f4f4" /><path
     id="path163"
     d="m 276.548,145.56788 c -0.662,0 -1.245,0.554 -1.245,1.218 l 0,20.1 c 0,0.665 0.583,1.217 1.245,1.217 l 20.099,0 c 0.664,0 1.218,-0.556 1.218,-1.217 l 0,-20.1 c 0,-0.663 -0.556,-1.218 -1.218,-1.218 l -20.099,0 z m 0.566,1.812 18.938,0 0,18.911 -18.938,0 0,-18.911 z"
     inkscape:connector-curvature="0"
     style="fill:#f4f4f4" /><path
     id="path165"
     d="m 48.21,167.16888 c -0.664,0 -1.217,0.553 -1.217,1.217 l 0,20.1 c 0,0.662 0.555,1.217 1.217,1.217 l 20.099,0 c 0.663,0 1.246,-0.556 1.246,-1.217 l 0,-0.906 -0.029,0 0,-19.193 c 0,-0.66 -0.558,-1.217 -1.217,-1.217 l -20.099,0 z m 0.594,1.812 18.911,0 0,18.91 -18.911,0 0,-18.91 z"
     inkscape:connector-curvature="0"
     style="fill:#f4f4f4" /><path
     id="path167"
     d="m 16.363,167.16888 c -0.665,0 -1.217,0.553 -1.217,1.217 l 0,20.1 c 0,0.662 0.555,1.217 1.217,1.217 l 30.205,0 c 0.665,0 1.217,-0.553 1.217,-1.217 l 0,-20.1 c 0,-0.662 -0.555,-1.217 -1.217,-1.217 l -30.205,0 z m 0.594,1.812 29.017,0 0,18.91 -29.017,0 0,-18.91 z"
     inkscape:connector-curvature="0"
     style="fill:#f4f4f4" /><path
     id="path169"
     d="m 69.923,167.16888 c -0.663,0 -1.246,0.556 -1.246,1.217 l 0,20.1 c 0,0.659 0.585,1.217 1.246,1.217 l 20.099,0 c 0.665,0 1.217,-0.553 1.217,-1.217 l 0,-20.1 c 0,-0.662 -0.556,-1.217 -1.217,-1.217 l -20.099,0 z m 0.566,1.812 18.938,0 0,18.91 -18.938,0 0,-18.91 z"
     inkscape:connector-curvature="0"
     style="fill:#f4f4f4" /><path
     id="path171"
     d="m 91.607,167.16888 c -0.665,0 -1.217,0.553 -1.217,1.217 l 0,20.1 c 0,0.662 0.556,1.217 1.217,1.217 l 20.099,0 c 0.665,0 1.218,-0.553 1.218,-1.217 l 0,-20.1 c 0,-0.662 -0.556,-1.217 -1.218,-1.217 l -20.099,0 z m 0.595,1.812 18.91,0 0,18.91 -18.91,0 0,-18.91 z"
     inkscape:connector-curvature="0"
     style="fill:#f4f4f4" /><path
     id="path173"
     d="m 113.292,167.16888 c -0.665,0 -1.217,0.553 -1.217,1.217 l 0,20.1 c 0,0.662 0.556,1.217 1.217,1.217 l 20.1,0 c 0.664,0 1.217,-0.553 1.217,-1.217 l 0,-20.1 c 0,-0.662 -0.556,-1.217 -1.217,-1.217 l -20.1,0 z m 0.594,1.812 18.91,0 0,18.91 -18.91,0 0,-18.91 z"
     inkscape:connector-curvature="0"
     style="fill:#f4f4f4" /><path
     id="path175"
     d="m 134.976,167.16888 c -0.664,0 -1.217,0.553 -1.217,1.217 l 0,20.1 c 0,0.662 0.556,1.217 1.217,1.217 l 20.127,0 c 0.665,0 1.217,-0.553 1.217,-1.217 l 0,-20.1 c 0,-0.662 -0.555,-1.217 -1.217,-1.217 l -20.127,0 z m 0.595,1.812 18.938,0 0,18.91 -18.938,0 0,-18.91 z"
     inkscape:connector-curvature="0"
     style="fill:#f4f4f4" /><path
     id="path177"
     d="m 156.689,167.16888 c -0.663,0 -1.217,0.553 -1.217,1.217 l 0,20.1 c 0,0.662 0.557,1.217 1.217,1.217 l 20.099,0 c 0.665,0 1.218,-0.553 1.218,-1.217 l 0,-20.1 c 0,-0.662 -0.556,-1.217 -1.218,-1.217 l -20.099,0 z m 0.595,1.812 18.91,0 0,18.91 -18.91,0 0,-18.91 z"
     inkscape:connector-curvature="0"
     style="fill:#f4f4f4" /><path
     id="path179"
     d="m 178.374,167.16888 c -0.665,0 -1.217,0.553 -1.217,1.217 l 0,20.1 c 0,0.662 0.556,1.217 1.217,1.217 l 20.1,0 c 0.279,0 0.528,-0.147 0.736,-0.312 l 0.481,0 0,-0.905 0,-20.1 c 0,-0.662 -0.556,-1.217 -1.217,-1.217 l -20.1,0 z m 0.594,1.812 18.911,0 0,18.599 0,0.312 -18.911,0 0,-18.911 z"
     inkscape:connector-curvature="0"
     style="fill:#f4f4f4" /><path
     id="path181"
     d="m 200.058,167.16888 c -0.665,0 -1.217,0.553 -1.217,1.217 l 0,20.1 c 0,0.662 0.556,1.217 1.217,1.217 l 20.099,0 c 0.663,0 1.246,-0.553 1.246,-1.217 l 0,-20.1 c 0,-0.666 -0.583,-1.217 -1.246,-1.217 l -20.099,0 z m 0.594,1.812 18.938,0 0,18.91 -18.938,0 0,-18.91 z"
     inkscape:connector-curvature="0"
     style="fill:#f4f4f4" /><path
     id="path183"
     d="m 221.771,167.16888 c -0.665,0 -1.246,0.553 -1.246,1.217 l 0,20.1 c 0,0.662 0.584,1.217 1.246,1.217 l 20.099,0 c 0.665,0 1.217,-0.553 1.217,-1.217 l 0,-20.1 c 0,-0.666 -0.554,-1.217 -1.217,-1.217 l -20.099,0 z m 0.566,1.812 18.938,0 0,18.91 -18.938,0 0,-18.91 z"
     inkscape:connector-curvature="0"
     style="fill:#f4f4f4" /><path
     id="path185"
     d="m 243.456,167.16888 c -0.664,0 -1.217,0.553 -1.217,1.217 l 0,20.1 c 0,0.666 0.555,1.217 1.217,1.217 l 20.099,0 c 0.664,0 1.217,-0.553 1.217,-1.217 l 0,-20.1 c 0,-0.666 -0.556,-1.217 -1.217,-1.217 l -20.099,0 z m 0.594,1.812 18.91,0 0,18.91 -18.91,0 0,-18.91 z"
     inkscape:connector-curvature="0"
     style="fill:#f4f4f4" /><path
     id="path187"
     d="m 265.139,167.16888 c -0.662,0 -1.217,0.556 -1.217,1.217 l 0,20.1 c 0,0.662 0.556,1.217 1.217,1.217 l 20.099,0 c 0.664,0 1.246,-0.556 1.246,-1.217 l 0,-20.1 c 0,-0.662 -0.584,-1.217 -1.246,-1.217 l -20.099,0 z m 0.595,1.812 18.939,0 0,18.91 -18.939,0 0,-18.91 z"
     inkscape:connector-curvature="0"
     style="fill:#f4f4f4" /><path
     id="path189"
     d="m 53.674,188.73988 c -0.665,0 -1.218,0.552 -1.218,1.217 l 0,20.099 c 0,0.663 0.556,1.218 1.218,1.218 l 20.099,0 c 0.664,0 1.246,-0.556 1.246,-1.218 l 0,-0.905 0,-19.193 c 0,-0.66 -0.586,-1.217 -1.246,-1.217 l -20.099,0 z m 0.594,1.812 18.938,0 0,18.91 -18.938,0 0,-18.91 z"
     inkscape:connector-curvature="0"
     style="fill:#f4f4f4" /><path
     id="path191"
     d="m 16.476,188.73988 c -0.664,0 -1.217,0.552 -1.217,1.217 l 0,20.099 c 0,0.663 0.556,1.218 1.217,1.218 l 35.556,0 c 0.664,0 1.217,-0.553 1.217,-1.218 l 0,-20.099 c 0,-0.663 -0.556,-1.217 -1.217,-1.217 l -35.556,0 z m 0.594,1.812 34.367,0 0,18.91 -34.367,0 0,-18.91 z"
     inkscape:connector-curvature="0"
     style="fill:#f4f4f4" /><path
     id="path193"
     d="m 75.386,188.73988 c -0.664,0 -1.246,0.552 -1.246,1.217 l 0,20.099 c 0,0.663 0.584,1.218 1.246,1.218 l 20.1,0 c 0.664,0 1.217,-0.553 1.217,-1.218 l 0,-20.099 c 0,-0.663 -0.556,-1.217 -1.217,-1.217 l -20.1,0 z m 0.567,1.812 18.938,0 0,18.91 -18.938,0 0,-18.91 z"
     inkscape:connector-curvature="0"
     style="fill:#f4f4f4" /><path
     id="path195"
     d="m 97.071,188.73988 c -0.665,0 -1.217,0.552 -1.217,1.217 l 0,20.099 c 0,0.663 0.556,1.218 1.217,1.218 l 20.099,0 c 0.664,0 1.217,-0.553 1.217,-1.218 l 0,-20.099 c 0,-0.663 -0.555,-1.217 -1.217,-1.217 l -20.099,0 z m 0.594,1.812 18.911,0 0,18.91 -18.911,0 0,-18.91 z"
     inkscape:connector-curvature="0"
     style="fill:#f4f4f4" /><path
     id="path197"
     d="m 118.755,188.73988 c -0.665,0 -1.217,0.552 -1.217,1.217 l 0,20.099 c 0,0.663 0.556,1.218 1.217,1.218 l 20.099,0 c 0.665,0 1.246,-0.553 1.246,-1.218 l 0,-20.099 c 0,-0.663 -0.584,-1.217 -1.246,-1.217 l -20.099,0 z m 0.595,1.812 18.938,0 0,18.91 -18.938,0 0,-18.91 z"
     inkscape:connector-curvature="0"
     style="fill:#f4f4f4" /><path
     id="path199"
     d="m 140.468,188.73988 c -0.665,0 -1.246,0.552 -1.246,1.217 l 0,20.099 c 0,0.663 0.583,1.218 1.246,1.218 l 20.099,0 c 0.664,0 1.217,-0.553 1.217,-1.218 l 0,-20.099 c 0,-0.663 -0.556,-1.217 -1.217,-1.217 l -20.099,0 z m 0.566,1.812 18.939,0 0,18.91 -18.939,0 0,-18.91 z"
     inkscape:connector-curvature="0"
     style="fill:#f4f4f4" /><path
     id="path201"
     d="m 162.152,188.73988 c -0.663,0 -1.217,0.552 -1.217,1.217 l 0,20.099 c 0,0.663 0.558,1.218 1.217,1.218 l 20.1,0 c 0.663,0 1.217,-0.553 1.217,-1.218 l 0,-20.099 c 0,-0.666 -0.556,-1.217 -1.217,-1.217 l -20.1,0 z m 0.595,1.812 18.91,0 0,18.91 -18.91,0 0,-18.91 z"
     inkscape:connector-curvature="0"
     style="fill:#f4f4f4" /><path
     id="path203"
     d="m 183.837,188.73988 c -0.665,0 -1.217,0.552 -1.217,1.217 l 0,20.099 c 0,0.663 0.555,1.218 1.217,1.218 l 20.099,0 c 0.665,0 1.217,-0.553 1.217,-1.218 l 0,-20.099 c 0,-0.663 -0.555,-1.217 -1.217,-1.217 l -20.099,0 z m 0.595,1.812 18.91,0 0,18.91 -18.91,0 0,-18.91 z"
     inkscape:connector-curvature="0"
     style="fill:#f4f4f4" /><path
     id="path205"
     d="m 205.522,188.73988 c -0.665,0 -1.217,0.552 -1.217,1.217 l 0,20.099 c 0,0.663 0.555,1.218 1.217,1.218 l 20.128,0 c 0.663,0 1.217,-0.553 1.217,-1.218 l 0,-20.099 c 0,-0.666 -0.556,-1.217 -1.217,-1.217 l -20.128,0 z m 0.594,1.812 18.938,0 0,18.91 -18.938,0 0,-18.91 z"
     inkscape:connector-curvature="0"
     style="fill:#f4f4f4" /><path
     id="path207"
     d="m 227.234,188.73988 c -0.664,0 -1.217,0.552 -1.217,1.217 l 0,20.099 c 0,0.663 0.556,1.218 1.217,1.218 l 20.099,0 c 0.664,0 1.217,-0.553 1.217,-1.218 l 0,-20.099 c 0,-0.666 -0.555,-1.217 -1.217,-1.217 l -20.099,0 z m 0.595,1.812 18.911,0 0,18.91 -18.911,0 0,-18.91 z"
     inkscape:connector-curvature="0"
     style="fill:#f4f4f4" /><path
     id="path209"
     d="m 248.919,188.73988 c -0.664,0 -1.218,0.552 -1.218,1.217 l 0,20.099 c 0,0.667 0.556,1.218 1.218,1.218 l 20.098,0 c 0.664,0 1.217,-0.556 1.217,-1.218 l 0,-20.099 c 0,-0.663 -0.555,-1.217 -1.217,-1.217 l -20.098,0 z m 0.595,1.812 18.91,0 0,18.91 -18.91,0 0,-18.91 z"
     inkscape:connector-curvature="0"
     style="fill:#f4f4f4" /><path
     id="path211"
     d="m 64.827,210.31088 c -0.663,0 -1.217,0.584 -1.217,1.246 l 0,20.1 c 0,0.66 0.557,1.217 1.217,1.217 l 20.1,0 c 0.278,0 0.501,-0.15 0.708,-0.312 l 0.509,0 0,-0.905 0,-20.1 c 0,-0.663 -0.555,-1.246 -1.217,-1.246 l -20.1,0 z m 0.594,1.812 18.911,0 0,18.627 0,0.312 -18.911,0 0,-18.939 z"
     inkscape:connector-curvature="0"
     style="fill:#f4f4f4" /><path
     id="path213"
     d="m 16.363,210.31088 c -0.665,0 -1.217,0.582 -1.217,1.246 l 0,20.1 c 0,0.662 0.555,1.217 1.217,1.217 l 46.907,0 c 0.665,0 1.217,-0.554 1.217,-1.217 l 0,-0.906 0,-19.193 c 0,-0.663 -0.555,-1.246 -1.217,-1.246 l -46.907,0 z m 0.594,1.812 45.719,0 0,18.938 -45.719,0 0,-18.938 z"
     inkscape:connector-curvature="0"
     style="fill:#f4f4f4" /><path
     id="path215"
     d="m 86.512,210.31088 c -0.665,0 -1.218,0.582 -1.218,1.246 l 0,20.1 c 0,0.662 0.556,1.217 1.218,1.217 l 20.099,0 c 0.665,0 1.246,-0.554 1.246,-1.217 l 0,-20.1 c 0,-0.663 -0.584,-1.246 -1.246,-1.246 l -20.099,0 z m 0.595,1.812 18.938,0 0,18.938 -18.938,0 0,-18.938 z"
     inkscape:connector-curvature="0"
     style="fill:#f4f4f4" /><path
     id="path217"
     d="m 108.196,210.31088 c -0.665,0 -1.217,0.582 -1.217,1.246 l 0,20.1 c 0,0.662 0.556,1.217 1.217,1.217 l 20.127,0 c 0.664,0 1.217,-0.554 1.217,-1.217 l 0,-20.1 c 0,-0.663 -0.556,-1.246 -1.217,-1.246 l -20.127,0 z m 0.595,1.812 18.939,0 0,18.938 -18.939,0 0,-18.938 z"
     inkscape:connector-curvature="0"
     style="fill:#f4f4f4" /><path
     id="path219"
     d="m 129.909,210.31088 c -0.663,0 -1.217,0.584 -1.217,1.246 l 0,20.1 c 0,0.662 0.556,1.217 1.217,1.217 l 20.1,0 c 0.665,0 1.217,-0.554 1.217,-1.217 l 0,-20.1 c 0,-0.663 -0.556,-1.246 -1.217,-1.246 l -20.1,0 z m 0.594,1.812 18.91,0 0,18.938 -18.91,0 0,-18.938 z"
     inkscape:connector-curvature="0"
     style="fill:#f4f4f4" /><path
     id="path221"
     d="m 151.594,210.31088 c -0.664,0 -1.218,0.582 -1.218,1.246 l 0,20.1 c 0,0.665 0.556,1.217 1.218,1.217 l 20.099,0 c 0.665,0 1.217,-0.554 1.217,-1.217 l 0,-20.1 c 0,-0.663 -0.555,-1.246 -1.217,-1.246 l -20.099,0 z m 0.594,1.812 18.91,0 0,18.938 -18.91,0 0,-18.938 z"
     inkscape:connector-curvature="0"
     style="fill:#f4f4f4" /><path
     id="path223"
     d="m 173.278,210.31088 c -0.665,0 -1.217,0.582 -1.217,1.246 l 0,20.1 c 0,0.662 0.555,1.217 1.217,1.217 l 20.128,0 c 0.664,0 1.217,-0.554 1.217,-1.217 l 0,-20.1 c 0,-0.663 -0.556,-1.246 -1.217,-1.246 l -20.128,0 z m 0.595,1.812 18.938,0 0,18.938 -18.938,0 0,-18.938 z"
     inkscape:connector-curvature="0"
     style="fill:#f4f4f4" /><path
     id="path225"
     d="m 194.991,210.31088 c -0.663,0 -1.217,0.584 -1.217,1.246 l 0,20.1 c 0,0.662 0.556,1.217 1.217,1.217 l 20.099,0 c 0.665,0 1.217,-0.554 1.217,-1.217 l 0,-20.1 c 0,-0.663 -0.555,-1.246 -1.217,-1.246 l -20.099,0 z m 0.594,1.812 18.911,0 0,18.938 -18.911,0 0,-18.938 z"
     inkscape:connector-curvature="0"
     style="fill:#f4f4f4" /><path
     id="path227"
     d="m 216.675,210.31088 c -0.665,0 -1.217,0.582 -1.217,1.246 l 0,20.1 c 0,0.662 0.556,1.217 1.217,1.217 l 20.099,0 c 0.663,0 1.217,-0.554 1.217,-1.217 l 0,-20.1 c 0,-0.666 -0.556,-1.246 -1.217,-1.246 l -20.099,0 z m 0.595,1.812 18.91,0 0,18.938 -18.91,0 0,-18.938 z"
     inkscape:connector-curvature="0"
     style="fill:#f4f4f4" /><path
     id="path229"
     d="m 40.878,231.93888 c -0.665,0 -1.217,0.553 -1.217,1.217 l 0,20.1 c 0,0.664 0.553,1.217 1.217,1.217 l 31.14,0 c 0.668,0 1.217,-0.551 1.217,-1.217 l 0,-20.1 c 0,-0.662 -0.556,-1.217 -1.217,-1.217 l -31.14,0 z m 0.594,1.812 29.951,0 0,18.91 -29.951,0 0,-18.91 z"
     inkscape:connector-curvature="0"
     style="fill:#f4f4f4" /><path
     id="path231"
     d="m 271.085,231.93888 c -0.663,0 -1.217,0.556 -1.217,1.217 l 0,20.1 c 0,0.664 0.554,1.217 1.217,1.217 l 31.139,0 c 0.668,0 1.218,-0.551 1.218,-1.217 l 0,-20.1 c 0,-0.666 -0.556,-1.217 -1.218,-1.217 l -31.139,0 z m 0.594,1.812 29.951,0 0,18.91 -29.951,0 0,-18.91 z"
     inkscape:connector-curvature="0"
     style="fill:#f4f4f4" /><path
     id="path233"
     d="m 73.659,231.93888 c -0.664,0 -1.217,0.553 -1.217,1.217 l 0,20.1 c 0,0.664 0.553,1.217 1.217,1.217 l 195.783,0 c 0.278,0 0.5,-0.149 0.708,-0.312 l 0.51,0 0,-0.905 0,-20.1 c 0,-0.662 -0.556,-1.217 -1.217,-1.217 l -195.784,0 z m 0.595,1.812 194.594,0 0,18.599 0,0.312 -194.594,0 0,-18.911 z"
     inkscape:connector-curvature="0"
     style="fill:#f4f4f4" /><path
     id="path235"
     d="m 260.072,210.31088 c -0.664,0 -1.245,0.582 -1.245,1.246 l 0,20.1 c 0,0.665 0.583,1.217 1.245,1.217 l 20.099,0 c 0.666,0 1.218,-0.554 1.218,-1.217 l 0,-20.1 c 0,-0.666 -0.554,-1.246 -1.218,-1.246 l -20.099,0 z m 0.567,1.812 18.938,0 0,18.938 -18.938,0 0,-18.938 z"
     inkscape:connector-curvature="0"
     style="fill:#f4f4f4" /><path
     id="path237"
     d="m 281.814,210.31088 c -0.663,0 -1.218,0.582 -1.218,1.246 l 0,20.1 c 0,0.665 0.555,1.217 1.218,1.217 l 31.14,0 c 0.665,0 1.217,-0.554 1.217,-1.217 l 0,-20.1 c 0,-0.666 -0.553,-1.246 -1.217,-1.246 l -31.14,0 z m 0.593,1.812 29.951,0 0,18.938 -29.951,0 0,-18.938 z"
     inkscape:connector-curvature="0"
     style="fill:#f4f4f4" /><path
     id="path239"
     d="m 238.332,210.31088 c -0.665,0 -1.217,0.582 -1.217,1.246 l 0,20.1 c 0,0.665 0.554,1.217 1.217,1.217 l 20.127,0 c 0.663,0 1.217,-0.554 1.217,-1.217 l 0,-20.1 c 0,-0.666 -0.556,-1.246 -1.217,-1.246 l -20.127,0 z m 0.594,1.812 18.938,0 0,18.938 -18.938,0 0,-18.938 z"
     inkscape:connector-curvature="0"
     style="fill:#f4f4f4" /><path
     id="path241"
     d="m 270.603,188.73988 c -0.664,0 -1.217,0.552 -1.217,1.217 l 0,20.099 c 0,0.667 0.555,1.218 1.217,1.218 l 20.099,0 c 0.664,0 1.245,-0.556 1.245,-1.218 l 0,-20.099 c 0,-0.663 -0.583,-1.217 -1.245,-1.217 l -20.099,0 z m 0.595,1.812 18.938,0 0,18.91 -18.938,0 0,-18.91 z"
     inkscape:connector-curvature="0"
     style="fill:#f4f4f4" /><path
     id="path243"
     d="m 330.278,188.73988 c -0.662,0 -1.246,0.555 -1.246,1.217 l 0,20.099 c 0,0.663 0.584,1.218 1.246,1.218 l 20.099,0 c 0.664,0 1.218,-0.556 1.218,-1.218 l 0,-20.099 c 0,-0.663 -0.556,-1.217 -1.218,-1.217 l -20.099,0 z m 0.567,1.812 18.938,0 0,18.91 -18.938,0 0,-18.91 z"
     inkscape:connector-curvature="0"
     style="fill:#f4f4f4" /><path
     id="path245"
     d="m 308.593,167.16888 c -0.661,0 -1.217,0.556 -1.217,1.217 l 0,20.1 c 0,0.175 0.011,0.148 0,0.255 l -14.805,0 c -0.662,0 -1.219,0.552 -1.219,1.217 l 0,20.099 c 0,0.667 0.557,1.218 1.219,1.218 l 36.206,0 c 0.31,0 0.575,-0.116 0.792,-0.312 l 0.426,0 0,-0.906 0,-41.67 c 0,-0.666 -0.556,-1.217 -1.218,-1.217 l -20.184,0 z m 0.595,1.812 18.996,0 0,40.17 0,0.312 -35.019,0 0,-18.91 14.692,0 c 0.209,0 0.494,-0.054 0.735,-0.227 0.242,-0.173 0.381,-0.417 0.454,-0.623 0.146,-0.41 0.141,-0.745 0.141,-1.217 l 0,-19.505 z"
     inkscape:connector-curvature="0"
     style="fill:#f4f4f4" /><path
     id="path247"
     d="m 286.852,167.16888 c -0.661,0 -1.245,0.556 -1.245,1.217 l 0,20.1 c 0,0.662 0.584,1.217 1.245,1.217 l 20.101,0 c 0.662,0 1.217,-0.556 1.217,-1.217 l 0,-20.1 c 0,-0.662 -0.556,-1.217 -1.217,-1.217 l -20.101,0 z m 0.566,1.812 18.939,0 0,18.91 -18.939,0 0,-18.91 z"
     inkscape:connector-curvature="0"
     style="fill:#f4f4f4" /><path
     id="path249"
     d="m 330.25,167.16888 c -0.664,0 -1.218,0.553 -1.218,1.217 l 0,20.1 c 0,0.666 0.554,1.217 1.218,1.217 l 20.099,0 c 0.664,0 1.218,-0.556 1.218,-1.217 l 0,-20.1 c 0,-0.662 -0.556,-1.217 -1.218,-1.217 l -20.099,0 z m 0.595,1.812 18.909,0 0,18.91 -18.909,0 0,-18.91 z"
     inkscape:connector-curvature="0"
     style="fill:#f4f4f4" /><path
     id="path251"
     d="m 360.54,167.16888 c -0.664,0 -1.246,0.553 -1.246,1.217 l 0,20.1 c 0,0.666 0.582,1.217 1.246,1.217 l 20.1,0 c 0.663,0 1.218,-0.553 1.218,-1.217 l 0,-20.1 c 0,-0.666 -0.557,-1.217 -1.218,-1.217 l -20.1,0 z m 0.567,1.812 18.938,0 0,18.91 -18.938,0 0,-18.91 z"
     inkscape:connector-curvature="0"
     style="fill:#f4f4f4" /><path
     id="path253"
     d="m 382.48,167.16888 c -0.664,0 -1.217,0.556 -1.217,1.217 l 0,20.1 c 0,0.662 0.555,1.217 1.217,1.217 l 20.099,0 c 0.664,0 1.246,-0.553 1.246,-1.217 l 0,-20.1 c 0,-0.666 -0.584,-1.217 -1.246,-1.217 l -20.099,0 z m 0.594,1.812 18.938,0 0,18.91 -18.938,0 0,-18.91 z"
     inkscape:connector-curvature="0"
     style="fill:#f4f4f4" /><path
     id="path255"
     d="m 404.446,167.16888 c -0.662,0 -1.217,0.556 -1.217,1.217 l 0,20.1 c 0,0.662 0.556,1.217 1.217,1.217 l 20.101,0 c 0.662,0 1.217,-0.556 1.217,-1.217 l 0,-20.1 c 0,-0.662 -0.557,-1.217 -1.217,-1.217 l -20.101,0 z m 0.595,1.812 18.911,0 0,18.91 -18.911,0 0,-18.91 z"
     inkscape:connector-curvature="0"
     style="fill:#f4f4f4" /><path
     id="path257"
     d="m 360.54,188.82388 c -0.664,0 -1.246,0.582 -1.246,1.246 l 0,20.1 c 0,0.665 0.582,1.217 1.246,1.217 l 20.1,0 c 0.663,0 1.218,-0.554 1.218,-1.217 l 0,-20.1 c 0,-0.666 -0.557,-1.246 -1.218,-1.246 l -20.1,0 z m 0.567,1.812 18.938,0 0,18.939 -18.938,0 0,-18.939 z"
     inkscape:connector-curvature="0"
     style="fill:#f4f4f4" /><path
     id="path259"
     d="m 382.48,188.82388 c -0.664,0 -1.217,0.584 -1.217,1.246 l 0,20.1 c 0,0.662 0.555,1.217 1.217,1.217 l 20.099,0 c 0.664,0 1.246,-0.554 1.246,-1.217 l 0,-20.1 c 0,-0.666 -0.584,-1.246 -1.246,-1.246 l -20.099,0 z m 0.594,1.812 18.938,0 0,18.939 -18.938,0 0,-18.939 z"
     inkscape:connector-curvature="0"
     style="fill:#f4f4f4" /><path
     id="path261"
     d="m 404.446,188.82388 c -0.662,0 -1.217,0.584 -1.217,1.246 l 0,20.1 c 0,0.662 0.556,1.217 1.217,1.217 l 20.101,0 c 0.662,0 1.217,-0.556 1.217,-1.217 l 0,-20.1 c 0,-0.662 -0.557,-1.246 -1.217,-1.246 l -20.101,0 z m 0.595,1.812 18.911,0 0,18.939 -18.911,0 0,-18.939 z"
     inkscape:connector-curvature="0"
     style="fill:#f4f4f4" /><path
     id="path263"
     d="m 433.69,167.16888 c -0.663,0 -1.217,0.553 -1.217,1.217 l 0,20.1 c 0,0.666 0.555,1.217 1.217,1.217 l 20.099,0 c 0.664,0 1.219,-0.553 1.219,-1.217 l 0,-20.1 c 0,-0.666 -0.557,-1.217 -1.219,-1.217 l -20.099,0 z m 0.594,1.812 18.91,0 0,18.91 -18.91,0 0,-18.91 z"
     inkscape:connector-curvature="0"
     style="fill:#f4f4f4" /><path
     id="path265"
     d="m 455.657,167.16888 c -0.661,0 -1.217,0.556 -1.217,1.217 l 0,20.1 c 0,0.662 0.557,1.217 1.217,1.217 l 20.1,0 c 0.663,0 1.217,-0.553 1.217,-1.217 l 0,-20.1 c 0,-0.666 -0.556,-1.217 -1.217,-1.217 l -20.1,0 z m 0.595,1.812 18.91,0 0,18.91 -18.91,0 0,-18.91 z"
     inkscape:connector-curvature="0"
     style="fill:#f4f4f4" /><path
     id="path267"
     d="m 477.597,167.16888 c -0.662,0 -1.218,0.556 -1.218,1.217 l 0,20.1 c 0,0.662 0.558,1.217 1.218,1.217 l 20.1,0 c 0.663,0 1.245,-0.553 1.245,-1.217 l 0,-20.1 c 0,-0.666 -0.584,-1.217 -1.245,-1.217 l -20.1,0 z m 0.593,1.812 18.939,0 0,18.91 -18.939,0 0,-18.91 z"
     inkscape:connector-curvature="0"
     style="fill:#f4f4f4" /><path
     id="path269"
     d="m 499.366,167.16888 c -0.664,0 -1.218,0.553 -1.218,1.217 l 0,20.1 c 0,0.666 0.556,1.217 1.218,1.217 l 20.1,0 c 0.663,0 1.217,-0.553 1.217,-1.217 l 0,-20.1 c 0,-0.666 -0.556,-1.217 -1.217,-1.217 l -20.1,0 z m 0.594,1.812 18.91,0 0,18.91 -18.91,0 0,-18.91 z"
     inkscape:connector-curvature="0"
     style="fill:#f4f4f4" /><path
     id="path271"
     d="m 433.69,145.39888 c -0.665,0 -1.217,0.553 -1.217,1.217 l 0,20.1 c 0,0.664 0.555,1.217 1.217,1.217 l 20.099,0 c 0.664,0 1.219,-0.555 1.219,-1.217 l 0,-20.1 c 0,-0.666 -0.553,-1.217 -1.219,-1.217 l -20.099,0 z m 0.594,1.812 18.91,0 0,18.91 -18.91,0 0,-18.91 z"
     inkscape:connector-curvature="0"
     style="fill:#f4f4f4" /><path
     id="path273"
     d="m 455.657,145.39888 c -0.663,0 -1.217,0.556 -1.217,1.217 l 0,20.1 c 0,0.66 0.557,1.217 1.217,1.217 l 20.1,0 c 0.663,0 1.217,-0.555 1.217,-1.217 l 0,-20.1 c 0,-0.666 -0.552,-1.217 -1.217,-1.217 l -20.1,0 z m 0.595,1.812 18.91,0 0,18.91 -18.91,0 0,-18.91 z"
     inkscape:connector-curvature="0"
     style="fill:#f4f4f4" /><path
     id="path275"
     d="m 477.597,145.39888 c -0.664,0 -1.218,0.556 -1.218,1.217 l 0,20.1 c 0,0.66 0.558,1.217 1.218,1.217 l 20.1,0 c 0.663,0 1.245,-0.555 1.245,-1.217 l 0,-20.1 c 0,-0.666 -0.58,-1.217 -1.245,-1.217 l -20.1,0 z m 0.593,1.812 18.939,0 0,18.91 -18.939,0 0,-18.91 z"
     inkscape:connector-curvature="0"
     style="fill:#f4f4f4" /><path
     id="path277"
     d="m 499.366,145.39888 c -0.666,0 -1.218,0.553 -1.218,1.217 l 0,20.1 c 0,0.664 0.556,1.217 1.218,1.217 l 20.1,0 c 0.663,0 1.217,-0.555 1.217,-1.217 l 0,-20.1 c 0,-0.666 -0.552,-1.217 -1.217,-1.217 l -20.1,0 z m 0.594,1.812 18.91,0 0,18.91 -18.91,0 0,-18.91 z"
     inkscape:connector-curvature="0"
     style="fill:#f4f4f4" /><path
     id="path279"
     d="m 433.69,188.82388 c -0.663,0 -1.217,0.582 -1.217,1.246 l 0,20.1 c 0,0.665 0.555,1.217 1.217,1.217 l 20.099,0 c 0.664,0 1.219,-0.554 1.219,-1.217 l 0,-20.1 c 0,-0.666 -0.557,-1.246 -1.219,-1.246 l -20.099,0 z m 0.594,1.812 18.91,0 0,18.939 -18.91,0 0,-18.939 z"
     inkscape:connector-curvature="0"
     style="fill:#f4f4f4" /><path
     id="path281"
     d="m 455.657,188.82388 c -0.661,0 -1.217,0.584 -1.217,1.246 l 0,20.1 c 0,0.662 0.557,1.217 1.217,1.217 l 20.1,0 c 0.663,0 1.217,-0.554 1.217,-1.217 l 0,-20.1 c 0,-0.666 -0.556,-1.246 -1.217,-1.246 l -20.1,0 z m 0.595,1.812 18.91,0 0,18.939 -18.91,0 0,-18.939 z"
     inkscape:connector-curvature="0"
     style="fill:#f4f4f4" /><path
     id="path283"
     d="m 477.597,188.82388 c -0.662,0 -1.218,0.584 -1.218,1.246 l 0,20.1 c 0,0.662 0.558,1.217 1.218,1.217 l 20.1,0 c 0.663,0 1.245,-0.554 1.245,-1.217 l 0,-20.1 c 0,-0.666 -0.584,-1.246 -1.245,-1.246 l -20.1,0 z m 0.593,1.812 18.939,0 0,18.939 -18.939,0 0,-18.939 z"
     inkscape:connector-curvature="0"
     style="fill:#f4f4f4" /><path
     id="path285"
     d="m 499.366,188.82388 c -0.664,0 -1.218,0.582 -1.218,1.246 l 0,20.1 c 0,0.665 0.556,1.217 1.218,1.217 l 20.1,0 c 0.663,0 1.217,-0.554 1.217,-1.217 l 0,-20.1 c 0,-0.666 -0.556,-1.246 -1.217,-1.246 l -20.1,0 z m 0.594,1.812 18.91,0 0,18.939 -18.91,0 0,-18.939 z"
     inkscape:connector-curvature="0"
     style="fill:#f4f4f4" /><path
     id="path287"
     d="m 433.69,210.50988 c -0.663,0 -1.217,0.552 -1.217,1.217 l 0,20.127 c 0,0.668 0.554,1.218 1.217,1.218 l 20.099,0 c 0.668,0 1.219,-0.551 1.219,-1.218 l 0,-20.127 c 0,-0.666 -0.557,-1.217 -1.219,-1.217 l -20.099,0 z m 0.594,1.811 18.91,0 0,18.938 -18.91,0 0,-18.938 z"
     inkscape:connector-curvature="0"
     style="fill:#f4f4f4" /><path
     id="path289"
     d="m 455.657,210.50988 c -0.661,0 -1.217,0.555 -1.217,1.217 l 0,20.127 c 0,0.665 0.554,1.218 1.217,1.218 l 20.1,0 c 0.667,0 1.217,-0.551 1.217,-1.218 l 0,-20.127 c 0,-0.666 -0.556,-1.217 -1.217,-1.217 l -20.1,0 z m 0.595,1.811 18.91,0 0,18.938 -18.91,0 0,-18.938 z"
     inkscape:connector-curvature="0"
     style="fill:#f4f4f4" /><path
     id="path291"
     d="m 477.597,210.50988 c -0.662,0 -1.218,0.555 -1.218,1.217 l 0,20.127 c 0,0.665 0.554,1.218 1.218,1.218 l 20.1,0 c 0.666,0 1.245,-0.551 1.245,-1.218 l 0,-20.127 c 0,-0.666 -0.584,-1.217 -1.245,-1.217 l -20.1,0 z m 0.593,1.811 18.939,0 0,18.938 -18.939,0 0,-18.938 z"
     inkscape:connector-curvature="0"
     style="fill:#f4f4f4" /><path
     id="path293"
     d="m 499.366,210.50988 c -0.664,0 -1.218,0.552 -1.218,1.217 l 0,41.868 c 0,0.667 0.556,1.218 1.218,1.218 l 20.1,0 c 0.663,0 1.217,-0.553 1.217,-1.218 l 0,-41.868 c 0,-0.666 -0.556,-1.217 -1.217,-1.217 l -20.1,0 z m 0.594,1.811 18.91,0 0,40.68 -18.91,0 0,-40.68 z"
     inkscape:connector-curvature="0"
     style="fill:#f4f4f4" /><path
     id="path295"
     d="m 433.69,232.19288 c -0.665,0 -1.217,0.554 -1.217,1.217 l 0,20.101 c 0,0.664 0.555,1.245 1.217,1.245 l 41.868,0 c 0.662,0 1.219,-0.586 1.219,-1.245 l 0,-20.101 c 0,-0.661 -0.555,-1.217 -1.219,-1.217 l -41.868,0 z m 0.594,1.812 40.68,0 0,18.939 -40.68,0 0,-18.939 z"
     inkscape:connector-curvature="0"
     style="fill:#f4f4f4" /><path
     id="path297"
     d="m 477.597,232.19288 c -0.664,0 -1.218,0.557 -1.218,1.217 l 0,20.101 c 0,0.66 0.558,1.245 1.218,1.245 l 20.1,0 c 0.663,0 1.245,-0.583 1.245,-1.245 l 0,-20.101 c 0,-0.665 -0.58,-1.217 -1.245,-1.217 l -20.1,0 z m 0.593,1.812 18.939,0 0,18.939 -18.939,0 0,-18.939 z"
     inkscape:connector-curvature="0"
     style="fill:#f4f4f4" /><path
     id="path299"
     d="m 298.232,145.56788 c -0.662,0 -1.217,0.554 -1.217,1.218 l 0,20.1 c 0,0.665 0.555,1.217 1.217,1.217 l 20.101,0 c 0.663,0 1.217,-0.553 1.217,-1.217 l 0,-20.1 c 0,-0.666 -0.555,-1.218 -1.217,-1.218 l -20.101,0 z m 0.595,1.812 18.91,0 0,18.911 -18.91,0 0,-18.911 z"
     inkscape:connector-curvature="0"
     style="fill:#f4f4f4" /><path
     id="path301"
     d="m 320.229,145.56788 c -0.662,0 -1.218,0.557 -1.218,1.218 l 0,20.1 c 0,0.662 0.556,1.217 1.218,1.217 l 29.865,0 c 0.662,0 1.245,-0.556 1.245,-1.217 l 0,-20.1 c 0,-0.663 -0.585,-1.218 -1.245,-1.218 l -29.865,0 z m 0.593,1.812 28.705,0 0,18.911 -28.705,0 0,-18.911 z"
     inkscape:connector-curvature="0"
     style="fill:#f4f4f4" /><path
     id="path303"
     d="m 360.512,145.56788 c -0.664,0 -1.218,0.557 -1.218,1.218 l 0,20.1 c 0,0.662 0.556,1.217 1.218,1.217 l 30.517,0 c 0.664,0 1.217,-0.556 1.217,-1.217 l 0,-20.1 c 0,-0.663 -0.555,-1.218 -1.217,-1.218 l -30.517,0 z m 0.595,1.812 29.327,0 0,18.911 -29.327,0 0,-18.911 z"
     inkscape:connector-curvature="0"
     style="fill:#f4f4f4" /><path
     id="path305"
     d="m 393.464,145.56788 c -0.664,0 -1.219,0.557 -1.219,1.218 l 0,20.1 c 0,0.662 0.557,1.217 1.219,1.217 l 30.828,0 c 0.662,0 1.217,-0.556 1.217,-1.217 l 0,-20.1 c 0,-0.663 -0.556,-1.218 -1.217,-1.218 l -30.828,0 z m 0.594,1.812 29.64,0 0,18.911 -29.64,0 0,-18.911 z"
     inkscape:connector-curvature="0"
     style="fill:#f4f4f4" /></svg>