<?xml version="1.0" encoding="UTF-8" standalone="no"?>
<svg
   xmlns:dc="http://purl.org/dc/elements/1.1/"
   xmlns:cc="http://creativecommons.org/ns#"
   xmlns:rdf="http://www.w3.org/1999/02/22-rdf-syntax-ns#"
   xmlns:svg="http://www.w3.org/2000/svg"
   xmlns="http://www.w3.org/2000/svg"
   viewBox="0 0 191.9175 197.03751"
   height="197.03751"
   width="191.9175"
   xml:space="preserve"
   version="1.1"
   id="svg2"><metadata
     id="metadata8"><rdf:RDF><cc:Work
         rdf:about=""><dc:format>image/svg+xml</dc:format><dc:type
           rdf:resource="http://purl.org/dc/dcmitype/StillImage" /><dc:title></dc:title></cc:Work></rdf:RDF></metadata><defs
     id="defs6"><clipPath
       id="clipPath16"
       clipPathUnits="userSpaceOnUse"><path
         id="path18"
         d="m 0,157.63 153.534,0 L 153.534,0 0,0 0,157.63 Z" /></clipPath><clipPath
       id="clipPath24"
       clipPathUnits="userSpaceOnUse"><path
         id="path26"
         d="m 0,157.52 153.534,0 0,-157.51598694 -153.534,0 L 0,157.52 Z" /></clipPath><linearGradient
       id="linearGradient48"
       spreadMethod="pad"
       gradientTransform="matrix(146.584,0,0,146.584,-679.09589,130.82687)"
       gradientUnits="userSpaceOnUse"
       y2="0"
       x2="1"
       y1="0"
       x1="0"><stop
         id="stop50"
         offset="0"
         style="stop-opacity:1;stop-color:#999999" /><stop
         id="stop52"
         offset="0.32746"
         style="stop-opacity:1;stop-color:#ececec" /><stop
         id="stop54"
         offset="1"
         style="stop-opacity:1;stop-color:#999999" /></linearGradient><clipPath
       id="clipPath62"
       clipPathUnits="userSpaceOnUse"><path
         id="path64"
         d="m 0,157.63 153.534,0 L 153.534,0 0,0 0,157.63 Z" /></clipPath></defs><g
     transform="matrix(1.25,0,0,-1.25,0,197.0375)"
     id="g10"><g
       id="g12"><g
         clip-path="url(#clipPath16)"
         id="g14"><g
           id="g20"><g
             id="g22" /><g
             id="g28"><g
               style="opacity:0.99607801"
               id="g30"
               clip-path="url(#clipPath24)"><path
                 id="path32"
                 style="fill:#3a61a6;fill-opacity:1;fill-rule:nonzero;stroke:none"
                 d="m 139.085,17.072 8.997,0 0,-6.412 -8.997,0 0,6.412 z M 1.788,157.516 C 0.798,157.516 0,156.718 0,155.728 L 0,1.792 C 0,0.802 0.798,0.004 1.788,0.004 l 149.957,0 c 0.991,0 1.789,0.798 1.789,1.788 l 0,137.44 -1.467,0 0,5.91 1.467,0 0,2.445 -11.875,9.932 -3.185,0 0,-0.502 -12.825,0 -0.601,-0.448 -1.033,-0.74 0,-0.014 -0.014,0 -104.01,0 0,1.705 -18.203,0 0,-0.004 z" /></g></g></g></g></g><path
       id="path34"
       style="fill:#ffffff;fill-opacity:1;fill-rule:nonzero;stroke:none"
       d="m 18.395,0 116.742,0 0,89.033 -116.742,0 0,-89.033 z" /><g
       id="g36"><g
         id="g38"><g
           id="g44"><g
             id="g46"><path
               id="path56"
               style="fill:url(#linearGradient48);stroke:none"
               d="m 39.076,157.63 0,-50.923 c 0,-1.486 1.196,-2.683 2.682,-2.683 l 0,0 77.76,0 c 1.486,0 2.682,1.197 2.682,2.683 l 0,0 0,50.923 -83.124,0 z m 48.143,-7.726 22.715,0 0,-42.232 -22.715,0 0,42.232 z" /></g></g></g></g><g
       id="g58"><g
         clip-path="url(#clipPath62)"
         id="g60"><path
           id="path66"
           style="fill:#000000;fill-opacity:1;fill-rule:nonzero;stroke:none"
           d="m 99.226,32.758 2.603,0 0,-16.36 -2.603,0 0,16.36 z" /><g
           transform="translate(58.1057,29.6062)"
           id="g68"><path
             id="path70"
             style="fill:#000000;fill-opacity:1;fill-rule:nonzero;stroke:none"
             d="m 0,0 1.79,-6.807 -3.539,0 L 0,0 Z m 0.027,3.566 c -0.82,0 -1.519,-0.508 -1.79,-1.234 l 0,-0.013 -4.637,-15.527 2.779,0 1.072,4.218 5.166,0 1.126,-4.218 2.847,0 -4.759,15.54 -0.014,0 C 1.543,3.055 0.848,3.566 0.027,3.566" /></g><g
           transform="translate(63.1907,32.82)"
           id="g72"><path
             id="path74"
             style="fill:#000000;fill-opacity:1;fill-rule:nonzero;stroke:none"
             d="m 0,0 0,-2.197 4.041,0 0,-14.224 2.603,0 0,14.224 4.055,0 0,2.197 L 0,0 Z" /></g><g
           transform="translate(66.4438,53.3865)"
           id="g76"><path
             id="path78"
             style="fill:#000000;fill-opacity:1;fill-rule:nonzero;stroke:none"
             d="m 0,0 c 4.098,6.204 4.005,19.41 4.005,22.663 l 3.017,0 C 7.011,21.411 7.681,8.822 5.555,0.894 3.43,-7.034 -4.504,-15.927 -14.097,-15.927 l 0,5.625 c 2.821,0 9.999,4.098 14.097,10.302" /></g><g
           transform="translate(93.8075,22.3387)"
           id="g80"><path
             id="path82"
             style="fill:#000000;fill-opacity:1;fill-rule:nonzero;stroke:none"
             d="m 0,0 c -0.076,0.13 -0.122,0.286 -0.122,0.459 0,0.157 0.04,0.298 0.102,0.42 0.096,0.152 0.269,0.239 0.384,0.312 1.355,0.824 2.317,2.556 2.317,4.561 0,2.69 -1.693,4.894 -3.792,5.064 -0.262,0.034 -0.852,0.031 -0.852,0.031 l -2.962,0 10e-4,0 c -1.027,0 -1.863,-1.113 -1.863,-2.484 l 0.004,-0.004 0,-14.297 2.53,0 0,13.277 -0.002,0 c 0,0.416 0.254,0.755 0.565,0.755 l 1.707,0 c 0.155,0 0.618,-0.012 0.71,-0.029 l 0,-10e-4 C -0.518,7.981 0.095,7.265 0.273,6.316 0.283,6.277 0.289,6.239 0.295,6.2 l 0,-0.009 C 0.305,6.133 0.309,6.078 0.315,6.021 0.324,5.933 0.325,5.844 0.325,5.752 0.325,4.879 -0.035,4.115 -0.57,3.719 -0.678,3.633 -0.79,3.558 -0.908,3.494 -0.992,3.443 -1.09,3.396 -1.191,3.351 -1.874,3.029 -2.167,2.839 -2.452,2.474 -2.771,2.028 -2.973,1.426 -2.978,0.76 -2.983,0.135 -2.82,-0.437 -2.542,-0.88 l 3.214,-5.06 3.009,0 L 0,0" /></g><g
           transform="translate(79.14,29.6062)"
           id="g84"><path
             id="path86"
             style="fill:#000000;fill-opacity:1;fill-rule:nonzero;stroke:none"
             d="m 0,0 1.79,-6.807 -3.539,0 L 0,0 Z m 0.027,3.566 c -0.82,0 -1.519,-0.508 -1.79,-1.234 l 0,-0.013 -4.637,-15.527 2.779,0 1.072,4.218 5.166,0 1.126,-4.218 2.847,0 -4.759,15.54 -0.014,0 C 1.543,3.055 0.848,3.566 0.027,3.566 Z" /></g><path
           id="path88"
           style="fill:#000000;fill-opacity:1;fill-rule:nonzero;stroke:none"
           d="m 74.304,76.05 5.408,0 0,-38.67 -5.408,0 0,38.67 z" /><g
           transform="translate(87.5732,53.3865)"
           id="g90"><path
             id="path92"
             style="fill:#000000;fill-opacity:1;fill-rule:nonzero;stroke:none"
             d="m 0,0 c -4.098,6.204 -4.005,19.41 -4.005,22.663 l -3.017,0 C -7.011,21.411 -7.681,8.822 -5.555,0.894 -3.43,-7.034 4.504,-15.927 14.097,-15.927 l 0,5.625 C 11.276,-10.302 4.098,-6.204 0,0" /></g></g></g></g></svg>