<svg xmlns="http://www.w3.org/2000/svg" width="400" height="557.42114" version="1">
  <path stroke="#2e2e2f" stroke-width="1.36293983" stroke-miterlimit="10" d="M392.82702 45.9979c0 2.5091-2.03402 4.5432-4.54324 4.5432H11.716381c-2.5092238 0-4.5432401-2.034-4.5432401-4.5432V5.5551c0-2.5091 2.033856-4.5433 4.5432401-4.5433H388.28378c2.50906 0 4.54324 2.0341 4.54324 4.5433v40.4428z"/>
  <path fill="#434345" d="M7.064957 9.0351c0-1.3635 2.040908-2.4689 4.558787-2.4689H389.48903c1.71828 0 3.21442.5153 3.9911 1.276V2.4689c0-1.3635-2.04091-2.4689-4.55831-2.4689H11.05638C8.5383407 0 6.4974327 1.1054 6.4974327 2.4689v21.9765c0 .4328.2062705.8394.5675243 1.1929V9.0351z"/>
  <path stroke="#2e2e2f" stroke-width="1.36293983" stroke-miterlimit="10" d="M392.82702 545.0167c0 6.4744-2.03402 11.723-4.54324 11.723H11.716381c-2.5092238 0-4.5432401-5.2486-4.5432401-11.723V440.662c0-6.4744 2.033856-11.723 4.5432401-11.723H388.28378c2.50906 0 4.54324 5.2486 4.54324 11.723v104.3547z"/>
  <path stroke="#1c1b1c" stroke-width="1.36293983" stroke-miterlimit="10" d="M366.79446 546.9483c0 5.4075-1.76604 9.7914-3.9443 9.7914H35.905003c-2.178582 0-3.944462-4.3839-3.944462-9.7914v-87.1614c0-5.4074 1.76588-9.7913 3.944462-9.7913H362.85016c2.17842 0 3.9443 4.3839 3.9443 9.7913v87.1614z"/>
  <path fill="#2e2e2f" d="M32.451615 458.7128c0-1.3636 1.765881-2.4688 3.944303-2.4688H363.3414c1.48636 0 2.7812.5152 3.45322 1.2759v-5.3731c0-1.3636-1.76604-2.4689-3.94398-2.4689H35.905003c-2.178742 0-3.944622 1.1053-3.944622 2.4689v21.9763c0 .4328.178543.8394.491074 1.1929v-16.6032z"/>
  <path stroke="#2e2e2f" stroke-width="1.36293983" stroke-miterlimit="10" d="M395.47167 36.5947H4.528487c-2.1247305 0-3.84701708 1.7223-3.84701708 3.8469v395.2719c0 2.1246 1.72228658 3.8469 3.84701708 3.8469H395.47167c2.12457 0 3.84686-1.7223 3.84686-3.8469V40.4416c0-2.1246-1.72229-3.8469-3.84686-3.8469z"/>
  <path fill="#1c1b1c" stroke="#282829" stroke-width="1.36293983" stroke-miterlimit="10" d="M19.755802 418.7213c0 3.0109 2.440788 5.4518 5.451824 5.4518H374.95281c3.01087 0 5.45182-2.4408 5.45182-5.4518V62.2439c0-3.0109-2.44079-5.4518-5.45182-5.4518H25.207466c-3.010876 0-5.451824 2.4408-5.451824 5.4518v356.4774z"/>
  <path fill="#282829" stroke="#282829" stroke-width="1.36293983" stroke-miterlimit="10" d="M380.40447 418.7213V62.2439c0-1.1117-.33353-2.1449-.9049-3.007-38.42978 14.5771-92.28577 35.5243-95.3178 39.5542-4.7407 6.301-17.08199 173.1953-12.19352 204.5032 4.88846 31.3079 4.95225 51.0342-67.52274 61.0448-72.47499 10.0107-112.970526 27.8515-112.970526 27.8515S49.91505 407.4555 20.099426 420.629c.773474 2.07 2.768224 3.5441 5.107879 3.5441H374.95249c3.01119 0 5.45198-2.4409 5.45198-5.4518z"/>
  <path d="M70.567103 394.9964c0 6.0217 4.689568 10.9034 10.474438 10.9034H318.31737c5.78487 0 10.47444-4.8817 10.47444-10.9034V83.5638c0-6.0218-4.68957-10.9035-10.47444-10.9035H81.041541c-5.78487 0-10.474438 4.8817-10.474438 10.9035v311.4326z"/>
  <path fill="#fff" d="M310.33885 82.9831H214.9135c-.26525.6006-.55678 1.1852-.87685 1.7491h96.26903c2.92721 0 5.29668 2.331 5.29668 5.2056v297.1268c0 2.8748-2.36947 6.6098-5.29668 6.6098H88.031499c-2.926413 0-5.297482-3.7351-5.297482-6.6098V89.9378c0-2.8746 2.371069-5.2056 5.297482-5.2056h95.969311c-.3199-.564-.61111-1.1487-.87749-1.7491H87.964345c-3.792845 0-6.86751 3.1483-6.86751 7.0318v298.0946c0 3.8835 3.074665 7.0319 6.86751 7.0319H310.33885c3.79253 0 6.86799-3.1484 6.86799-7.0319V90.0149c0-3.8835-3.07546-7.0318-6.86799-7.0318z"/>
  <path fill="#00173d" stroke="#475caa" stroke-width=".15915044" d="M310.30584 84.7322h-96.26903c-3.09902 5.4565-8.66512 9.0962-15.01752 9.0962-6.35319 0-11.91897-3.6397-15.01848-9.0962H88.031499c-2.926413 0-5.297482 2.331-5.297482 5.2056v297.1268c0 2.8748 2.371069 6.6098 5.297482 6.6098H310.30584c2.92721 0 5.29668-3.7351 5.29668-6.6098V89.9378c0-2.8746-2.36947-5.2056-5.29668-5.2056z"/>
  <path fill="#475caa" stroke="#475caa" stroke-width=".18405674" d="M93.212463 84.4907v301.3315M119.35256 84.7295v304.7056m26.81276-304.7056v304.7056m26.60056-304.7056v304.7056m26.77911-295.6384v295.6387m26.23129-304.7059v304.7056M252.5275 84.7295v304.7056m26.53725-304.7056v304.7056m26.75154-304.7496v304.7063"/>
  <path fill="none" stroke="#475caa" stroke-width=".18405674" d="M83.223008 322.234H315.22443M83.223008 295.1815H315.32621M83.223008 267.4133H315.32653m-232.103522-26.832H315.32717M83.223008 213.103H315.32653M83.223008 185.7337H315.32717M83.223008 158.7692H315.32717M83.223008 131.8694H315.32621M83.223008 104.2788H315.32653M83.223008 349.9353H315.22443"/>
  <path fill="#475caa" stroke="#475caa" stroke-width=".18405674" d="M83.223008 377.0353H315.22443"/>
  <path fill="#e51e25" d="M145.30145 381.5551l9.91333-16.2912-2.08306-1.9616-.0832-1.1945h7.91377l2.66565 2.3886 1.74969-2.3886h9.82982l5.91485 6.0564h12.16195l-2.2491-2.9857s-1.08264-1.1934-.58291-2.2175c.49957-1.024 1.66603-1.024 1.66603-1.024h12.66263l5.95685 6.0995h17.8678l7.97643 8.1671v6.2744l-91.28006-.086"/>
  <path fill="#375eab" d="M81.444947 382.4754v5.6111c0 4.3147 3.432072 7.8128 7.665666 7.8128H309.7654c4.23231 0 7.66454-3.4981 7.66454-7.8128v-5.6111H81.444947z"/>
  <path fill="#e51e25" d="M81.408084 381.7415H317.57547v1.2796H81.408084z"/>
  <path fill="#3c70b7" stroke="#fff" stroke-width=".40068084" d="M126.01124 381.1139c0 6.3368-5.03849 11.4737-11.25417 11.4737-6.21488 0-11.25336-5.1369-11.25336-11.4737 0-6.3362 5.03864-11.4736 11.25336-11.4736 6.21568 0 11.25417 5.1372 11.25417 11.4736z"/>
  <path fill="#ed2024" d="M119.20207 376.8545v3.7903h-7.22091c-.99674 0-1.80756.8263-1.80756 1.8417 0 1.0164.81082 1.8421 1.80756 1.8421h5.91597v3.791h-5.91597c-3.04614 0-5.52475-2.5272-5.52475-5.6331 0-3.1047 2.47845-5.6322 5.52475-5.6322h7.22091z"/>
  <path fill="#fff" d="M117.47064 373.1243h-5.91549v3.7905h5.91549c.99642 0 1.80707.8268 1.80707 1.842 0 1.0166-.81065 1.8423-1.80707 1.8423h-3.98357v-1.6922l-5.8025 3.5866 5.8025 3.5869v-1.6915h3.98357c3.04678 0 5.52475-2.527 5.52475-5.6323 0-3.1053-2.47797-5.6323-5.52475-5.6323z"/>
  <path fill="#ed2024" d="M115.96488 382.6368l5.80186 3.5869-5.80186 3.587"/>
  <path fill="#c1be31" d="M239.12777 367.0917l-1.11229-3.9062 3.74268 1.7981 3.14823-3.8557.67042 4.2136 4.97645-2.0579-2.78104 3.7122 3.92955 1.9714-5.64623.7839.76498 5.6839-3.84029-4.5114-3.81576 4.5114.43241-5.2786-3.68674 1.4567"/>
  <path fill="#fff" d="M242.00594 367.3867l-69.96994-.03c-1.79328 2.6411-4.69502 8.9381-6.22273 11.1883 0-2.4102-.15258-8.539-.15258-11.3444l-7.23774.03v1.7361h4.32912l-6.28332 11.1442H153.885v1.5171h6.87648v-1.5171h-2.02616c1.21871-2.0598 3.55885-6.2764 4.91812-8.5758 0 2.3848.45838 7.4275.45838 10.0929h1.89233c1.98369-2.8353 4.49516-8.334 5.90123-10.404 0 2.2367.1529 6.494.1529 8.7997h-1.62035v1.6043h9.17992v-1.081c0-.6095-.91724-.7073-.91724-.7073v-4.3974h-2.74467v1.2216h.73742v3.3598h-2.47637l-.30436-11.057h23.24526c-.24506.3742-.46367.8339-.54749 1.3743-.78229 5.0593 8.67426 4.0107 8.74414 7.1838.0306 1.3781-1.41681 2.187-3.34617 2.187-1.52851 0-3.09277-1.9966-3.27885-2.6172-.1864-.6209-.23239-1.0785-.23239-1.0785h-1.64873l-.00064 5.6015h1.70194v-1.4336c.91836.9361 2.49415 1.5756 3.91561 1.5756 2.83105 0 5.29684-1.1639 5.20164-4.2124-.0944-3.0237-2.17089-3.6376-4.71666-4.5367 0 0-4.02796-.8839-4.02796-2.2012 0-1.1627 1.46793-1.8309 1.61859-1.8428h40.28942l1.1756-1.5798z"/>
  <path fill="#fff" d="M187.19921 378.3203c0-2.142-.65712-3.2278-2.25343-3.2278-1.203 0-1.60048.1447-2.10293.4308 0 0-.73501-.1557-1.16438-.1563-.42857-.0005-1.53269.1563-1.53269.1563v1.2208h.94609v3.286h-.78309v1.579h3.45916v-1.579h-.82172v-1.9656c0-.4181.24233-1.3926 1.08472-1.3926.40149 0 1.3136 0 1.3136 1.6484v3.2775h2.52092v-1.58h-.66625v-1.6975zm3.6845 1.4369c1.0368-.644 4.1105-1.6979 4.1105-1.6979s-.0239-1.8292-1.90579-2.6825c-1.01613-.4608-4.90658-.6342-4.7875 3.3167.0386 1.2935.78566 2.9511 3.63321 2.9102h2.81839v-1.5793h-2.81839c-.39795 0-.75279-.1267-1.05042-.2672zm-.1771-2.5512c1.22208-.9016 1.8816.1707 1.8816.1707l-2.21497 1.0239s-.17726-.8183.33337-1.1946zm20.62513 2.1749l.002-2.6243h1.53332v-1.5795h-1.53332l.00032-1.4962h-2.00677v1.4962h-.7528v1.5795h.7528v2.5743c-.008.2465-.0163 1.3422.62586 1.998.67186.6852 2.63905.4435 2.89244.3946l-.005-1.5726c-.4611.027-1.13361.046-1.3152-.1394-.22005-.2241-.1936-.6096-.1936-.6294zm-32.53545-4.8435c0 .086-.0683.1561-.15242.1561h-1.88608c-.0845 0-.15274-.07-.15274-.1561v-1.6876c0-.086.0683-.1563.15274-.1563h1.88608c.0841 0 .15242.07.15242.1563v1.6876zm37.7318.4738c-1.92055 0-3.47727 1.5939-3.47727 3.5606 0 1.9666 1.55672 3.5606 3.47727 3.5606 1.9207 0 3.47742-1.594 3.47742-3.5606 0-1.9665-1.55672-3.5606-3.47742-3.5606zm0 4.9263c-.73598 0-1.33379-.6114-1.33379-1.3657 0-.7542.59781-1.3658 1.33379-1.3658.73677 0 1.3341.6116 1.3341 1.3658 0 .7541-.59733 1.3657-1.3341 1.3657zm9.45991-3.8911c-.19826-.8006-.89913-1.3093-1.56586-1.1365-.18159.047-.33898.1422-.47232.2675l-.003-.0005s-.75552.5082-1.04706.5427c-.33673.04-.15915-.3957-.30612-.4387h-1.95227v1.5337h.82524v3.1889h-.89769v1.6244h3.58722v-1.6244h-.83566v-2.5264s.19713-.2405.46238-.2476c.009 0 .0263.0005.0382.001.31333.4592.82332.7053 1.31583.5776.66818-.172 1.04835-.9611.85073-1.7617zm10.67718 4.1576v-1.6974c0-2.1421-.22726-3.1983-2.10101-3.2279-1.04305-.016-1.52034.3713-1.95628.6611-.30548-.4356-.81354-.6589-1.65754-.6723-1.2038-.019-1.29596.1447-1.79825.4306 0 0-.73517-.1556-1.1639-.1561-.42953-.0006-1.53397.1561-1.53397.1561v1.221h.94625v3.286h-.78277v1.579h3.459v-1.579h-.82188v-1.9654c0-.4183.24249-1.3927 1.08488-1.3927.40245 0 .8565 0 .8565 1.6484v3.2774l1.87102-.018-.016-3.2591c0-.3445-.008-.6583-.0248-.9469.15418-.3586.43738-.6902.9275-.6902.40212 0 .85649 0 .85649 1.6483v3.2774h3.13028v-1.58h-1.27545zm4.23744-12.8737l-.56736-1.9919 1.90868.9168 1.80082-1.9161-.0758 2.1604 2.71069-.8613-1.36889 1.6435 2.00373 1.0051-2.87897.3996.3901 2.8983-1.95853-2.3004-1.70193 2.2508-.0231-2.6421-2.44367 1.1246"/>
  <path fill="#ec1d25" stroke="#010101" stroke-width=".08013617" d="M157.52815 100.239c0 .9884-.78662 1.7901-1.7561 1.7901H89.970634c-.969487 0-1.756104-.8017-1.756104-1.7901v-7.7264c0-.9886.786617-1.7906 1.756104-1.7906h65.801576c.96948 0 1.7561.8019 1.7561 1.7906v7.7264zm151.14227.0003c0 .9886-.78758 1.7903-1.75643 1.7903h-65.80093c-.97077 0-1.75658-.8017-1.75658-1.7903v-7.7265c0-.9881.78581-1.79 1.75658-1.79h65.80093c.96885 0 1.75643.8019 1.75643 1.79v7.7265z"/>
  <path fill="none" stroke="#1f2358" stroke-width=".09616341" d="M94.618372 126.3668v-5.6562c0-.1725.136872-.3125.305959-.3125h5.889689m100.18159 5.9687v-5.6562c0-.1725.13687-.3125.30484-.3125h5.88985m-9.04898 5.9688v-5.6563c0-.1725-.13687-.3125-.30484-.3125h-5.88968m112.39899 5.9688v-5.6563c0-.1725-.13687-.3125-.305-.3125h-5.88921M94.618372 206.273v-5.6561c0-.1726.136872-.3125.305479-.3125h5.889689m100.18207 5.9686v-5.6561c0-.1726.13687-.3125.30484-.3125h5.88985m-9.04898 5.9692v-5.6565c0-.1726-.13687-.3125-.30484-.3125h-5.88968m112.39899 5.969v-5.6565c0-.1726-.13687-.3125-.305-.3125h-5.88921m6.19421-7.9701v5.6562c0 .1728-.13687.3127-.30564.3127h-5.88921m-100.18223-5.9689v5.6562c0 .1723-.13655.3122-.30468.3122h-5.89017m9.04898-5.9688v5.6566c0 .1723.13687.3122.30468.3122h5.88968m-112.398828-5.9688v5.6566c0 .1723.136872.3122.304998.3122h5.88969m-6.194688 90.5061v-5.6558c0-.1728.136872-.3127.305479-.3127h5.889689m100.18207 5.9685v-5.6558c0-.1728.13687-.3127.30484-.3127h5.88985m-9.04898 5.969v-5.6563c0-.1728-.13687-.3127-.30484-.3127h-5.88968m112.39899 5.969v-5.6563c0-.1728-.13687-.3127-.305-.3127h-5.88921m6.19421-7.97v5.6563c0 .1728-.13687.3127-.30564.3127h-5.88921m-100.18223-5.969v5.6563c0 .1723-.13655.3122-.30468.3122h-5.89017m9.04898-5.9685v5.6563c0 .1723.13687.3122.30468.3122h5.88968m-112.398828-5.9685v5.6563c0 .1723.136872.3122.304998.3122h5.88969m203.53273 75.1267v5.6563c0 .1728-.13687.3129-.30564.3129h-5.88921m-100.18223-5.9692v5.6563c0 .1723-.13655.3123-.30468.3123h-5.89017m9.04898-5.9686v5.6563c0 .1723.13687.3123.30468.3123h5.88968m-112.398828-5.9686v5.6563c0 .1723.136872.3123.304998.3123h5.88969"/>
  <path fill="#fff" d="M200.36478 389.7691h-1.31712v1.2059h1.46794v.3622h-1.90548v-3.3446h1.82967v.3624h-1.39229v1.0567h1.31712v.3574zm1.21086 1.0422c.19617.1191.48258.218.78469.218.44716 0 .70857-.233.70857-.5707 0-.3127-.18111-.4909-.63837-.6647-.55294-.1939-.8948-.4765-.8948-.948 0-.5212.4369-.9083 1.09578-.9083.34699 0 .59814.08.74944.1637l-.12117.3524c-.11027-.06-.33625-.1586-.64365-.1586-.46191 0-.63789.2729-.63789.5013 0 .3127.20611.4665.67315.6448.57297.2184.86515.4914.86515.9831 0 .5162-.38706.9624-1.18682.9624-.32648 0-.68372-.094-.86435-.2132l.11027-.3622zm5.45951.4167c-.16107.08-.48274.1589-.8948.1589-.95538 0-1.67468-.5954-1.67468-1.692 0-1.0476.7193-1.7573 1.76973-1.7573.42231 0 .68869.09.8044.1493l-.1053.3521c-.16572-.079-.4026-.139-.68388-.139-.79415 0-1.32209.5012-1.32209 1.3798 0 .8187.47746 1.3447 1.30238 1.3447.26605 0 .53771-.054.71401-.1388l.0902.3423zm1.66844-.9425l-.3518 1.0518h-.45277l1.15172-3.3445h.52778l1.1562 3.3445h-.46751l-.36222-1.0518h-1.2014zm1.11053-.3374l-.33177-.9632c-.0752-.218-.12549-.4167-.17533-.6105h-.0107c-.0499.1986-.10498.4021-.17085.6055l-.33161.968h1.0203zm1.97006-1.9161c.21092-.034.48739-.064.83983-.064.4321 0 .74863.1.94994.2782.18607.159.29666.4018.29666.6999 0 .3026-.0907.5404-.26124.7143-.23144.2435-.6084.3672-1.03568.3672-.13127 0-.25147 0-.3518-.03v1.3397h-.43755v-3.3052zm.43771 1.6129c.0954.025.21621.035.36173.035.52794 0 .84961-.2531.84961-.715 0-.4416-.3167-.6547-.79896-.6547-.19169 0-.33721.015-.41222.034v1.3002zm4.5442.1242h-1.31712v1.2059h1.46778v.3622h-1.90532v-3.3446h1.83015v.3624h-1.39261v1.0567h1.31712v.3574zM92.401324 94.3708c.371672-.047.85906-.087 1.478993-.087.761294 0 1.319683.1339 1.673885.3751.327116.2143.522648.5423.522648.944 0 .4085-.159631.73-.460463.9642-.408053.3281-1.07158.4954-1.82438.4954-.230311 0-.442672-.01-.620574-.04v1.8077h-.770109v-4.4594zm.770109 2.1762c.168286.033.381288.047.638365.047.929419 0 1.496142-.3416 1.496142-.9642 0-.5959-.558229-.8841-1.407993-.8841-.336411 0-.593488.02-.726674.047v1.7547zm4.824518-2.2297h.77075v4.0241h2.549929v.4887h-3.320679v-4.5128zm6.028319 3.0932l-.61929 1.4196h-.79719l2.02792-4.5128h.93006l2.03674 4.5128h-.8238l-.63772-1.4196h-2.11672zm1.95741-.4551l-.58419-1.2991c-.13351-.2944-.22166-.5622-.31013-.8233h-.0179c-.0883.2678-.18608.5421-.30067.8168l-.58451 1.3057h1.79745zm4.00953 1.8747v-1.9148l-1.88592-2.598h.87653l.84127 1.2454c.23015.3414.40741.6161.59365.9308h.0179c.16828-.2948.37151-.5894.60182-.9308l.85842-1.2454h.87717l-2.001 2.5913v1.9215h-.77989zm7.37494-2.1156h-2.32075v1.6269h2.58632v.4887h-3.35643v-4.5128h3.2234v.4888h-2.45329v1.4261h2.32075v.4823zm2.14941-2.337c.38994-.06.94801-.094 1.47947-.094.82332 0 1.3543.1138 1.72662.3683.30115.2007.46943.5087.46943.857 0 .5959-.49572.9911-1.12463 1.1516v.02c.46063.1205.73501.442.87637.9106.19521.6294.33657 1.0646.46062 1.2388h-.79703c-.0973-.1273-.23031-.5155-.3986-1.078-.1771-.6227-.49572-.8571-1.19547-.8773h-.72619v1.9551h-.77059v-4.4527zm.77059 2.0557h.78822c.82396 0 1.34644-.3416 1.34644-.857 0-.5824-.55838-.8371-1.37321-.844-.37183 0-.6374.027-.76145.054v1.6471zm12.74037.094c0 1.5534-1.24917 2.3772-2.77191 2.3772-1.57612 0-2.68344-.9241-2.68344-2.2901 0-1.4327 1.17768-2.3701 2.77191-2.3701 1.62916-.0002 2.68344.9438 2.68344 2.283zm-4.63203.074c0 .9642.69077 1.8279 1.90419 1.8279 1.22208 0 1.91285-.8506 1.91285-1.875 0-.8973-.61993-1.8345-1.90435-1.8345-1.27497 0-1.91269.8903-1.91269 1.8816zm6.51539 2.2294v-4.5128h.84111l1.91285 2.2834c.44283.5289.78854 1.0042 1.07158 1.466l.0178-.01c-.0704-.6025-.0882-1.1516-.0882-1.8547v-1.8882h.72603v4.5128h-.77908l-1.89538-2.2898c-.41639-.5023-.81499-1.0177-1.11566-1.5066l-.0263.01c.0441.5689.062 1.1115.062 1.8614v1.9282h-.72683zm9.80017-2.1156h-2.31978v1.6269h2.58567v.4887h-3.35642v-4.5128h3.2234v.4888h-2.45265v1.4261h2.31978v.4823zm100.16364-2.2438c.37247-.047.85906-.087 1.47915-.087.76194 0 1.31953.1338 1.67373.375.32776.2141.52249.5424.52249.944 0 .4086-.15947.7299-.46063.9642-.40741.3281-1.07158.4956-1.8239.4956-.23015 0-.44331-.01-.61993-.04v1.8077h-.77091v-4.4595zm.77091 2.1763c.16813.033.38081.047.63724.047.93022 0 1.49695-.3415 1.49695-.9642 0-.5961-.55775-.8841-1.40799-.8841-.33626 0-.59349.02-.72604.047v1.7547zm4.82388-2.2299h.77091v4.0241h2.55025v.4887h-3.32116v-4.5128zm6.0288 3.0936l-.61945 1.4192h-.79735l2.02808-4.5128h.9299l2.03658 4.5128h-.82332l-.63772-1.4192h-2.11672zm1.95741-.4555l-.58435-1.299c-.13351-.2944-.2215-.5622-.31045-.8233h-.0173c-.0889.2678-.18592.5423-.30115.8167l-.58452 1.3058h1.79778zm4.00905 1.8747v-1.9148l-1.8864-2.598h.8762l.84192 1.2455c.23015.3415.40693.6159.59316.9309h.0176c.16861-.2948.37151-.5892.60199-.9309l.85922-1.2455h.87685l-2.00132 2.5913v1.9215h-.77925zm7.37477-2.1157h-2.3201v1.627h2.58583v.4887h-3.35642v-4.5128h3.2234v.4887h-2.45281v1.4264h2.3201v.482zm2.1499-2.3368c.38978-.06.94785-.094 1.47915-.094.82332 0 1.35494.1139 1.72693.3681.30083.2009.46912.5092.46912.8572 0 .5959-.49556.9908-1.12463 1.1517v.02c.46046.1205.73517.442.87717.9106.19457.6294.33641 1.0646.4603 1.2388h-.79703c-.0976-.1273-.23015-.5155-.3986-1.078-.17694-.6227-.4962-.8572-1.19531-.877h-.72587v1.955h-.77123v-4.4527zm.77123 2.0556h.7879c.82315 0 1.3458-.3413 1.3458-.8569 0-.5825-.55791-.8371-1.37257-.8436-.37167 0-.63772.027-.76113.053v1.6471zm15.30633-1.6496h-1.82551v-.4954h4.44387v.4954h-1.83399v4.0173h-.78437v-4.0173zm14.14932 1.7141c0 1.5533-1.25541 2.377-2.78778 2.377-1.58445 0-2.69786-.924-2.69786-2.29 0-1.4328 1.18361-2.3701 2.78713-2.3701 1.63847-.0002 2.69851.9438 2.69851 2.2831zm-4.65752.073c0 .9642.6943 1.8279 1.91366 1.8279 1.22928 0 1.92455-.8505 1.92455-1.875 0-.8972-.62362-1.8343-1.91462-1.8343-1.28298.0002-1.92359.8905-1.92359 1.8814z"/>
  <path fill="#fff" d="M292.8509 98.7911l-1.16278-4.5129h.62538l.54381 2.2835c.13655.5623.259 1.1248.3409 1.56h.0133c.075-.4488.21765-.9844.37456-1.5669l.61192-2.2766h.61865l.55758 2.2899c.12982.5357.25195 1.0713.31975 1.5468h.0138c.0952-.4955.22422-.9978.36734-1.5601l.60519-2.2766h.60535l-1.29885 4.5129h-.61929l-.57794-2.3501c-.1428-.5758-.238-1.0177-.29971-1.4732h-.0136c-.0809.4486-.18335.8907-.35324 1.4732l-.65295 2.3501h-.61913zm-59.274 289.5041h-.9868v-.3672h2.40184v.3672h-.99144v2.9776h-.42376v-2.9776zm2.72398-.3672v1.399h1.56923v-1.399h.42376v3.3448h-.42376v-1.5682h-1.56923v1.5682h-.41895v-3.3448h.41895zm3.24921.045c.21188-.045.51495-.07.80392-.07.44796 0 .73677.084.9384.2728.16395.1492.25547.3773.25547.6353 0 .442-.26958.7349-.61128.8538v.015c.25019.089.39972.3273.47633.6749.10594.4662.18303.7887.25019.9181h-.43306c-.0524-.094-.12501-.3823-.21669-.7988-.0962-.4621-.26942-.6354-.64958-.6504h-.39507v1.4492h-.41847v-3.3001zm.41847 1.5234h.42872c.44781 0 .73165-.2529.73165-.6351 0-.4318-.30356-.6208-.74607-.6256-.20258 0-.34635.02-.4143.04v1.2208zm3.11842-1.5681v1.98c0 .7495.32359 1.067.75664 1.067.48162 0 .78934-.3278.78934-1.067v-1.98h.42312v1.9504c0 1.0273-.52425 1.4487-1.22672 1.4487-.66465 0-1.16502-.3919-1.16502-1.4292v-1.9699h.42264zm3.1681 2.8189c.18768.1189.46206.218.75087.218.42841 0 .6786-.2332.6786-.5709 0-.3127-.17294-.4909-.61096-.6647-.53002-.1939-.8573-.4765-.8573-.948 0-.5212.41847-.9081 1.04947-.9081.3324 0 .57281.079.71721.1637l-.11539.3526c-.1061-.06-.32247-.1587-.61641-.1587-.44283 0-.61128.2728-.61128.5012 0 .3126.1973.4667.64494.6447.54909.2185.82813.4914.82813.9831 0 .5163-.37071.9626-1.13617.9626-.31302 0-.65472-.094-.82765-.2133l.10594-.3622zm3.57632-2.4517h-.98696v-.3672h2.40216v.3672h-.9916v2.9776h-.42376v-2.9776zm24.85375-.6428h1.74777v.3623h-1.3293v1.1118h1.22769v.357h-1.22769v1.5137h-.41847v-3.3448zm3.29231 0v3.3447h-.41847v-3.3447h.41847zm1.26119.045c.21188-.045.51527-.07.80392-.07.44828 0 .73693.084.9384.2728.16412.1492.25579.3773.25579.6353 0 .442-.26974.7348-.61144.8538v.015c.25035.089.3994.3273.47633.6749.10642.4662.18319.7887.25051.918h-.43354c-.0524-.094-.12485-.3822-.21637-.7988-.0965-.4619-.26942-.6353-.65006-.6503h-.39475v1.4491h-.41863v-3.3zm.41879 1.5234h.42841c.4478 0 .73164-.2529.73164-.6351 0-.4316-.30324-.6208-.74575-.6256-.20258 0-.34667.02-.4143.04v1.2208zm4.38024.2084h-1.26134v1.2057h1.40575v.3624h-1.82454v-3.3447h1.75257v.3623h-1.33362v1.0569h1.26134v.3574z"/>
  <ellipse cx="224.63113" cy="389.89426" fill="#e51e25" stroke="#010101" stroke-width=".09202837" rx="2.2430115" ry="2.2963822"/>
  <ellipse cx="258.54907" cy="389.70993" fill="#e51e25" stroke="#010101" stroke-width=".09202837" rx="2.2428513" ry="2.2965424"/>
  <path fill="#e51e25" stroke="#010101" stroke-width=".09202837" d="M288.00731 385.7871l3.23045 3.3076-2.42268 2.5726 3.67873-.9188.98712 3.124.8972-3.4912 3.76881 1.194-2.60219-2.6642 2.24318-2.8483-3.31989 1.2499-1.25653-2.8118-.98696 2.8485"/>
  <path fill="#f4eb32" d="M313.22504 77.1803h-96.79985v.3545h.0245c-.25916 1.9251-.78693 3.7546-1.53621 5.4483h95.42535c3.79253 0 6.86799 3.1483 6.86799 7.0318v298.0946c0 3.8835-3.0753 7.0319-6.86799 7.0319H87.964325c-3.792845 0-6.86751-3.1484-6.86751-7.0319V90.0149c0-3.8835 3.074665-7.0318 6.86751-7.0318H183.1233c-.74863-1.6936-1.27673-3.5232-1.53621-5.4483v-.3545H86.135778c-5.899625 0-10.682312 4.8973-10.682312 10.9386v304.2294c0 6.0412 7.834753 10.9386 10.529893 10.9386H311.54664c9.10476 0 12.36165-4.8974 12.36165-10.9386V88.1187c-.00032-6.0411-4.78349-10.9384-10.68327-10.9384z"/>
  <path fill="#2e2e2f" d="M371.6528 64.4555c.12357.3478-1.50688 1.2435-3.64139 2.0008l-31.94805 11.3356c-2.13418.7575-3.96449 1.0894-4.0879.7418l-.75905-2.1394c-.12357-.3476 1.50688-1.2434 3.64123-2.0008l31.94804-11.3356c2.13435-.7573 3.96466-1.0894 4.08823-.7416l.75889 2.1392zm-40.43639 338.9266c-.12357.3478 1.50688 1.2437 3.64139 2.0009l31.94804 11.3356c2.13419.7574 3.9645 1.0893 4.08791.7417l.75905-2.1395c.12357-.3476-1.50688-1.2434-3.64123-2.0007l-31.94805-11.3355c-2.13434-.7575-3.96465-1.0896-4.08822-.7418l-.75889 2.1393zM27.784645 64.2486c-.12357.3478 1.506881 1.2435 3.641388 2.0008L63.37408 77.585c2.134186.7574 3.964497 1.0894 4.087906.7417l.75905-2.1393c.12357-.3476-1.50688-1.2434-3.641227-2.0008L32.631761 62.851c-2.134346-.7573-3.964657-1.0894-4.088227-.7416l-.758889 2.1392zm40.436391 338.9266c.12357.3478-1.50688 1.2437-3.641387 2.0009l-31.948048 11.3355c-2.134186.7575-3.964497 1.0894-4.087906.7418l-.75905-2.1395c-.12357-.3476 1.506881-1.2434 3.641227-2.0007l31.948048-11.3356c2.134346-.7574 3.964657-1.0895 4.088227-.7417l.758889 2.1393z"/>
  <g stroke="#95d0f1" stroke-miterlimit="10" transform="matrix(0.16027234,0,0,0.16027234,-8.0775757e-6,0)">
    <path fill="none" stroke-width="8.50389957" d="M1023.54 1096.709l51.334-26.666-42 42.666-15.334 66-14-68.666-46.666-40zm-128 169.999l64.667 30.667 63.333-34-53.333 55.333-4.667 59.371-15.333-60.037-54.667-48.667zm236 108.665l15.334-22.667 6.666 30-22 41.334 26-39.334 28.667-12-4.667 22.667m38 359.328l-604.666 20m120.666-138l423.334 206.667m-217.334-160l221.334 336.667m-161.334 0l-3.807-255.334m-143.526 178.667l304.667-359.333m253.333 80.666l-414.474 104.142m114.474-370.141l-114.474 370.141M735.54 1937.366l101.334 38 98-44.667-77.334 63.334-18.666 99.333-27.334-88.667zm532.667-2l40.667 28 10.666 54 8-50 62.667-52-72 34zm455.999-563.329l40 34 16 69.334v-65.334l48-48-52 26.336z"/>
    <circle cx="706.89899" cy="1207.597" r="8.25" fill="#fff"/>
    <circle cx="1052.207" cy="1299.092" r="8.25" fill="#fff"/>
    <circle cx="1006.541" cy="1378.079" r="8.25" fill="#fff"/>
    <circle cx="917.20697" cy="1406.952" r="8.25" fill="#fff"/>
    <circle cx="903.78998" cy="1459.584" r="8.25" fill="#fff"/>
    <circle cx="778.146" cy="1515.832" r="8.25" fill="#fff"/>
    <circle cx="659.65198" cy="978.10797" r="8.25" fill="#fff"/>
    <circle cx="651.40198" cy="933.85999" r="8.25" fill="#fff"/>
    <circle cx="651.40198" cy="885.86298" r="8.25" fill="#fff"/>
    <circle cx="1715.9561" cy="801.867" r="8.25" fill="#fff"/>
    <circle cx="1616.604" cy="1792.567" r="8.25" fill="#fff"/>
    <circle cx="1472.611" cy="1859.951" r="8.25" fill="#fff"/>
    <circle cx="1276.457" cy="1548.83" r="8.25" fill="#fff"/>
    <circle cx="1242.584" cy="1664.701" r="8.25" fill="#fff"/>
    <circle cx="869.64099" cy="1815.816" r="8.25" fill="#fff"/>
  </g>
  <g fill-rule="evenodd" clip-rule="evenodd">
    <path fill="#ed1c24" d="M36.30808783 20.90464185h2.4528079l1.61233973 4.5850711 1.43780316-4.5850711h2.4915938v8.43401135h-1.70722097v-5.26206147l-1.7210044 5.26206147h-1.0677343l-1.6775706-5.26206147v5.26206147h-1.82101432v-8.43401135"/>
    <path fill="#0095da" d="M45.23173117 20.90464185h3.61670563c1.14402396 0 2.35792666.94400408 2.35295822 2.0708789-.00496844 1.10107098-.84527632 1.59422897-1.40943496 1.87694938.91275098.22870863 1.64519557 1.30573875 1.6056083 2.2024625-.0503255 1.13873497-1.05811798 2.28372057-2.5489713 2.28372057h-3.61670562v-8.43401135h-.00016027zm1.76475874 1.18633586h1.1328049c1.7320632 0 1.6629858 2.0397861.0871882 2.0397861h-1.2199931v-2.0397861zm.0217971 3.4657291h1.13296517c1.7319029 0 1.66282553 2.5271743.08702788 2.5271743H47.018287v-2.5271743z"/>
  </g>
  <circle cx="57.303768" cy="25.436739" r="1.2821788" fill="#ed1c24" fill-rule="evenodd" clip-rule="evenodd"/>
  <circle cx="64.142105" cy="25.436739" r="1.2821788" fill="#ed1c24" fill-rule="evenodd" clip-rule="evenodd"/>
  <circle cx="70.980438" cy="25.436739" r="1.2821788" fill="#ed1c24" fill-rule="evenodd" clip-rule="evenodd"/>
  <circle cx="77.818626" cy="25.436739" r="1.2821788" fill="#ed1c24" fill-rule="evenodd" clip-rule="evenodd"/>
  <circle cx="84.65696" cy="25.436739" r="1.2821788" fill="#ed1c24" fill-rule="evenodd" clip-rule="evenodd"/>
  <circle cx="91.495308" cy="25.436739" r="1.2821788" fill="#ed1c24" fill-rule="evenodd" clip-rule="evenodd"/>
  <circle cx="98.345497" cy="25.436739" r="1.2821788" fill="#ed1c24" fill-rule="evenodd" clip-rule="evenodd"/>
  <circle cx="105.18384" cy="25.436739" r="1.2821788" fill="#ed1c24" fill-rule="evenodd" clip-rule="evenodd"/>
  <circle cx="112.02202" cy="25.436739" r="1.2821788" fill="#ed1c24" fill-rule="evenodd" clip-rule="evenodd"/>
  <circle cx="118.86036" cy="25.436739" r="1.2821788" fill="#ed1c24" fill-rule="evenodd" clip-rule="evenodd"/>
  <circle cx="125.47288" cy="25.436739" r="1.2821788" fill="#ed1c24" fill-rule="evenodd" clip-rule="evenodd"/>
  <circle cx="132.31122" cy="25.436739" r="1.2821788" fill="#ed1c24" fill-rule="evenodd" clip-rule="evenodd"/>
  <circle cx="139.14957" cy="25.436739" r="1.2821788" fill="#ed1c24" fill-rule="evenodd" clip-rule="evenodd"/>
  <circle cx="145.98775" cy="25.436739" r="1.2821788" fill="#ed1c24" fill-rule="evenodd" clip-rule="evenodd"/>
  <circle cx="152.82608" cy="25.436739" r="1.2821788" fill="#ed1c24" fill-rule="evenodd" clip-rule="evenodd"/>
  <circle cx="159.66441" cy="25.436739" r="1.2821788" fill="#ed1c24" fill-rule="evenodd" clip-rule="evenodd"/>
  <circle cx="166.51462" cy="25.436739" r="1.2821788" fill="#ed1c24" fill-rule="evenodd" clip-rule="evenodd"/>
  <circle cx="235.74042" cy="25.436739" r="1.2821788" fill="#ed1c24" fill-rule="evenodd" clip-rule="evenodd"/>
  <circle cx="242.5786" cy="25.436739" r="1.2821788" fill="#ed1c24" fill-rule="evenodd" clip-rule="evenodd"/>
  <circle cx="249.41695" cy="25.436739" r="1.2821788" fill="#ed1c24" fill-rule="evenodd" clip-rule="evenodd"/>
  <circle cx="256.25525" cy="25.436739" r="1.2821788" fill="#ed1c24" fill-rule="evenodd" clip-rule="evenodd"/>
  <circle cx="263.09344" cy="25.436739" r="1.2821788" fill="#ed1c24" fill-rule="evenodd" clip-rule="evenodd"/>
  <circle cx="269.93179" cy="25.436739" r="1.2821788" fill="#ed1c24" fill-rule="evenodd" clip-rule="evenodd"/>
  <circle cx="276.78198" cy="25.436739" r="1.2821788" fill="#ed1c24" fill-rule="evenodd" clip-rule="evenodd"/>
  <circle cx="283.62033" cy="25.436739" r="1.2821788" fill="#ed1c24" fill-rule="evenodd" clip-rule="evenodd"/>
  <circle cx="290.45865" cy="25.436739" r="1.2821788" fill="#ed1c24" fill-rule="evenodd" clip-rule="evenodd"/>
  <circle cx="297.29684" cy="25.436739" r="1.2821788" fill="#ed1c24" fill-rule="evenodd" clip-rule="evenodd"/>
  <circle cx="303.90936" cy="25.436739" r="1.2821788" fill="#ed1c24" fill-rule="evenodd" clip-rule="evenodd"/>
  <circle cx="310.74771" cy="25.436739" r="1.2821788" fill="#ed1c24" fill-rule="evenodd" clip-rule="evenodd"/>
  <circle cx="317.58603" cy="25.436739" r="1.2821788" fill="#ed1c24" fill-rule="evenodd" clip-rule="evenodd"/>
  <circle cx="324.42422" cy="25.436739" r="1.2821788" fill="#ed1c24" fill-rule="evenodd" clip-rule="evenodd"/>
  <circle cx="331.26257" cy="25.436739" r="1.2821788" fill="#ed1c24" fill-rule="evenodd" clip-rule="evenodd"/>
  <circle cx="338.10089" cy="25.436739" r="1.2821788" fill="#ed1c24" fill-rule="evenodd" clip-rule="evenodd"/>
  <circle cx="344.95126" cy="25.436739" r="1.2821788" fill="#ed1c24" fill-rule="evenodd" clip-rule="evenodd"/>
  <g fill="none" stroke="#0072bc" stroke-width=".22715067" stroke-miterlimit="10">
    <path d="M176.73117933 21.12133005l-2.2423703 3.54410226-2.36962655-3.5638157-3.37261085-.0307723 5.74191685 8.75808204 5.43996376-8.6789075zm19.4928028 7.1242658c-.81306157.9717312-2.0349779 1.58974133-3.40113932 1.58974133-2.44815993 0-4.4326521-1.9844921-4.4326521-4.4326521 0-2.44816 1.98449217-4.43249184 4.4326521-4.43249184 1.38940098 0 2.6292678.63884555 3.4420088 1.63942576l-1.83063063 1.78623523c-.33577055-.53611097-.93182338-.89271693-1.6113781-.89271693-1.04914274 0-1.89986832.85072558-1.89986832 1.89970805 0 1.049303.8507256 1.8998683 1.8998683 1.8998683.67939447 0 1.27560758-.35644567 1.61137813-.89271692l1.78976122 1.8355991zm7.4787882-7.1415752h-6.4727587l-.5638381 3.02209523h2.28916983v5.62956595h3.02225552v-5.62956595h2.28900956zm1.63686142.00961633v8.6248957h3.09758352v-6.28267572h1.3599108c.41558618.26444936.3777619.604387.3777619.604387.2266251 1.28442253-1.0956217 1.05779744-1.0956217 1.05779744v2.5310208l1.3222468 2.10020873h3.62680278l-2.00212207-3.5734321c.60422672-.30227362 1.0198129-.90666062 1.0198129-.90666062.4154259-.56672293.22662508-1.9266338.22662508-1.9266338-.18912136-2.2667317-2.45553252-2.2289074-2.45553252-2.2289074h-5.4774675zm16.4860937 2.45521198l-.79334807-2.4834199h-6.55065108v8.67249658h6.55065108l.79334808-2.4834199h-4.88846664v-.91243044h2.48390072v-1.95708554h-2.48390072v-.8361408zm-33.90769706 0l-.8021631-2.48325964h-6.62501746v8.67233632h6.62501743l.80216306-2.4834199h-4.94392088v-.91243044h2.51210864v-1.956765h-2.51210867v-.83646134z"/>
    <path d="M232.5884939 21.1198876l-3.71094575.02099568-1.67356378 2.04459424-1.6745254-2.04459424-3.7107855-.02099568 3.53721055 4.32190392-3.53672972 4.31982038 3.71447175-.02115594 1.67035832-2.04090798 1.66971724 2.04090798 3.7144718.02115594-3.53705026-4.31982038z"/>
    <path d="M176.73117933 21.12133005l-2.2423703 3.54410226-2.36962655-3.5638157-3.37261085-.0307723 5.74191685 8.75808204 5.43996376-8.6789075zm19.4928028 7.1242658c-.81306157.9717312-2.0349779 1.58974133-3.40113932 1.58974133-2.44815993 0-4.4326521-1.9844921-4.4326521-4.4326521 0-2.44816 1.98449217-4.43249184 4.4326521-4.43249184 1.38940098 0 2.6292678.63884555 3.4420088 1.63942576l-1.83063063 1.78623523c-.33577055-.53611097-.93182338-.89271693-1.6113781-.89271693-1.04914274 0-1.89986832.85072558-1.89986832 1.89970805 0 1.049303.8507256 1.8998683 1.8998683 1.8998683.67939447 0 1.27560758-.35644567 1.61137813-.89271692l1.78976122 1.8355991zm7.4787882-7.1415752h-6.4727587l-.5638381 3.02209523h2.28916983v5.62956595h3.02225552v-5.62956595h2.28900956zm1.63686142.00961633v8.6248957h3.09758352v-6.28267572h1.3599108c.41558618.26444936.3777619.604387.3777619.604387.2266251 1.28442253-1.0956217 1.05779744-1.0956217 1.05779744v2.5310208l1.3222468 2.10020873h3.62680278l-2.00212207-3.5734321c.60422672-.30227362 1.0198129-.90666062 1.0198129-.90666062.4154259-.56672293.22662508-1.9266338.22662508-1.9266338-.18912136-2.2667317-2.45553252-2.2289074-2.45553252-2.2289074h-5.4774675zm16.4860937 2.45521198l-.79334807-2.4834199h-6.55065108v8.67249658h6.55065108l.79334808-2.4834199h-4.88846664v-.91243044h2.48390072v-1.95708554h-2.48390072v-.8361408zm-33.90769706 0l-.8021631-2.48325964h-6.62501746v8.67233632h6.62501743l.80216306-2.4834199h-4.94392088v-.91243044h2.51210864v-1.956765h-2.51210867v-.83646134z"/>
    <path d="M232.5884939 21.1198876l-3.71094575.02099568-1.67356378 2.04459424-1.6745254-2.04459424-3.7107855-.02099568 3.53721055 4.32190392-3.53672972 4.31982038 3.71447175-.02115594 1.67035832-2.04090798 1.66971724 2.04090798 3.7144718.02115594-3.53705026-4.31982038z"/>
  </g>
  <g fill-rule="evenodd" clip-rule="evenodd">
    <path fill="#ed1c24" d="M46.42592038 514.17338022h2.4528079l1.61233973 4.58491083 1.4378032-4.58491083h2.4915938v8.43401135h-1.707221v-5.26222174l-1.72100435 5.26222174H49.9245053l-1.6775706-5.26222174v5.26222174h-1.82101432v-8.43401135"/>
    <path fill="#0095da" d="M55.34956372 514.17338022h3.61670563c1.14402396 0 2.35792666.94400408 2.35295822 2.0708789-.00496844 1.1009107-.84527632 1.59422897-1.40943496 1.87694938.912751.22870863 1.6451956 1.30573875 1.60560837 2.2024625-.05032552 1.13873497-1.058118 2.28372057-2.5489713 2.28372057H55.349724v-8.43401135h-.00016028zm1.76475874 1.1861756h1.1328049c1.73206318 0 1.6629858 2.03978606.08718815 2.03978606h-1.219993v-2.03978607zm.02179704 3.46588934h1.13296517c1.7319029 0 1.66282553 2.52717426.08702788 2.52717426H57.1361195v-2.52717426z"/>
  </g>
  <circle cx="67.421593" cy="518.70557" r="1.2821788" fill="#ed1c24" fill-rule="evenodd" clip-rule="evenodd"/>
  <circle cx="74.259773" cy="518.70557" r="1.2821788" fill="#ed1c24" fill-rule="evenodd" clip-rule="evenodd"/>
  <circle cx="81.098114" cy="518.70557" r="1.2821788" fill="#ed1c24" fill-rule="evenodd" clip-rule="evenodd"/>
  <circle cx="87.936455" cy="518.70557" r="1.2821788" fill="#ed1c24" fill-rule="evenodd" clip-rule="evenodd"/>
  <circle cx="94.774635" cy="518.70557" r="1.2821788" fill="#ed1c24" fill-rule="evenodd" clip-rule="evenodd"/>
  <circle cx="101.61298" cy="518.70557" r="1.2821788" fill="#ed1c24" fill-rule="evenodd" clip-rule="evenodd"/>
  <circle cx="108.46333" cy="518.70557" r="1.2821788" fill="#ed1c24" fill-rule="evenodd" clip-rule="evenodd"/>
  <circle cx="115.30167" cy="518.70557" r="1.2821788" fill="#ed1c24" fill-rule="evenodd" clip-rule="evenodd"/>
  <circle cx="122.13985" cy="518.70557" r="1.2821788" fill="#ed1c24" fill-rule="evenodd" clip-rule="evenodd"/>
  <circle cx="128.97821" cy="518.70557" r="1.2821788" fill="#ed1c24" fill-rule="evenodd" clip-rule="evenodd"/>
  <circle cx="135.59071" cy="518.70557" r="1.2821788" fill="#ed1c24" fill-rule="evenodd" clip-rule="evenodd"/>
  <circle cx="142.42891" cy="518.70557" r="1.2821788" fill="#ed1c24" fill-rule="evenodd" clip-rule="evenodd"/>
  <circle cx="149.26724" cy="518.70557" r="1.2821788" fill="#ed1c24" fill-rule="evenodd" clip-rule="evenodd"/>
  <circle cx="156.10558" cy="518.70557" r="1.2821788" fill="#ed1c24" fill-rule="evenodd" clip-rule="evenodd"/>
  <circle cx="162.94376" cy="518.70557" r="1.2821788" fill="#ed1c24" fill-rule="evenodd" clip-rule="evenodd"/>
  <circle cx="169.78209" cy="518.70557" r="1.2821788" fill="#ed1c24" fill-rule="evenodd" clip-rule="evenodd"/>
  <circle cx="176.63246" cy="518.70557" r="1.2821788" fill="#ed1c24" fill-rule="evenodd" clip-rule="evenodd"/>
  <circle cx="245.85826" cy="518.70557" r="1.2821788" fill="#ed1c24" fill-rule="evenodd" clip-rule="evenodd"/>
  <circle cx="252.69643" cy="518.70557" r="1.2821788" fill="#ed1c24" fill-rule="evenodd" clip-rule="evenodd"/>
  <circle cx="259.53476" cy="518.70557" r="1.2821788" fill="#ed1c24" fill-rule="evenodd" clip-rule="evenodd"/>
  <circle cx="266.37311" cy="518.70557" r="1.2821788" fill="#ed1c24" fill-rule="evenodd" clip-rule="evenodd"/>
  <circle cx="273.21127" cy="518.70557" r="1.2821788" fill="#ed1c24" fill-rule="evenodd" clip-rule="evenodd"/>
  <circle cx="280.04962" cy="518.70557" r="1.2821788" fill="#ed1c24" fill-rule="evenodd" clip-rule="evenodd"/>
  <circle cx="286.89981" cy="518.70557" r="1.2821788" fill="#ed1c24" fill-rule="evenodd" clip-rule="evenodd"/>
  <circle cx="293.73816" cy="518.70557" r="1.2821788" fill="#ed1c24" fill-rule="evenodd" clip-rule="evenodd"/>
  <circle cx="300.57651" cy="518.70557" r="1.2821788" fill="#ed1c24" fill-rule="evenodd" clip-rule="evenodd"/>
  <circle cx="307.41467" cy="518.70557" r="1.2821788" fill="#ed1c24" fill-rule="evenodd" clip-rule="evenodd"/>
  <circle cx="314.02719" cy="518.70557" r="1.2821788" fill="#ed1c24" fill-rule="evenodd" clip-rule="evenodd"/>
  <circle cx="320.86551" cy="518.70557" r="1.2821788" fill="#ed1c24" fill-rule="evenodd" clip-rule="evenodd"/>
  <circle cx="327.70386" cy="518.70557" r="1.2821788" fill="#ed1c24" fill-rule="evenodd" clip-rule="evenodd"/>
  <circle cx="334.54205" cy="518.70557" r="1.2821788" fill="#ed1c24" fill-rule="evenodd" clip-rule="evenodd"/>
  <circle cx="341.38037" cy="518.70557" r="1.2821788" fill="#ed1c24" fill-rule="evenodd" clip-rule="evenodd"/>
  <circle cx="348.21872" cy="518.70557" r="1.2821788" fill="#ed1c24" fill-rule="evenodd" clip-rule="evenodd"/>
  <circle cx="355.06906" cy="518.70557" r="1.2821788" fill="#ed1c24" fill-rule="evenodd" clip-rule="evenodd"/>
  <g fill="none" stroke="#0072bc" stroke-width=".22715067" stroke-miterlimit="10">
    <path d="M186.8490119 514.38990815l-2.24237032 3.54426253-2.36962655-3.56397603-3.37261085-.03061202 5.74191685 8.75792175 5.43996377-8.67890748zm19.4928028 7.12426578c-.8130616.9717312-2.0349779 1.58974134-3.40113933 1.58974134-2.44816 0-4.4326521-1.98433184-4.4326521-4.43249183 0-2.44816 1.9844921-4.43249184 4.4326521-4.43249184 1.3894009 0 2.62926773.63884555 3.44200877 1.63942577l-1.83063067 1.78623523c-.33577055-.53611098-.93182338-.89271693-1.6113781-.89271693-1.04914274 0-1.89986832.85088585-1.89986832 1.8998683 0 1.04930302.85072558 1.89986833 1.89986832 1.89986833.67939445 0 1.27560755-.35660595 1.6113781-.89271693l1.78976122 1.83527856zm7.47862792-7.1415752h-6.47259845l-.5638381 3.02209525h2.28916984v5.62956594h3.02225558v-5.62956594h2.28900956zm1.63702168.00961635v8.6248957h3.09758352v-6.282836h1.3599108c.41558618.26444936.3777619.604387.3777619.604387.2266251 1.2845828-1.0956217 1.05779744-1.0956217 1.05779744v2.53118107l1.3222468 2.1002087h3.62680278l-2.00212207-3.5734321c.60422672-.30227365 1.0198129-.9066606 1.0198129-.9066606.4154259-.5665627.2266251-1.9266338.2266251-1.9266338-.18912137-2.2667317-2.45553253-2.22890746-2.45553253-2.22890746h-5.4774675zm16.4860937 2.45537225l-.79334807-2.48358018h-6.55065108v8.67265686h6.55065108l.79334808-2.4834199h-4.8884666v-.9125907h2.48390075v-1.9570855h-2.48390072v-.83598052zm-33.90769705 0l-.80216307-2.4834199h-6.62501744v8.67249658h6.62501744l.80216307-2.4834199h-4.94408115v-.9125907h2.51226893v-1.956765h-2.51226893v-.83630102z"/>
    <path d="M242.70632646 514.3884657l-3.71094576.02099567-1.67356377 2.04475452-1.6745254-2.04475458-3.7107855-.02099567 3.53721054 4.3219039-3.53672972 4.3198204 3.71447175-.02115596 1.67035833-2.04090798 1.66971723 2.04090798 3.71447176.02115597-3.53705028-4.3198204z"/>
    <path d="M186.8490119 514.38990815l-2.24237032 3.54426253-2.36962655-3.56397603-3.37261085-.03061202 5.74191685 8.75792175 5.43996377-8.67890748zm19.4928028 7.12426578c-.8130616.9717312-2.0349779 1.58974134-3.40113933 1.58974134-2.44816 0-4.4326521-1.98433184-4.4326521-4.43249183 0-2.44816 1.9844921-4.43249184 4.4326521-4.43249184 1.3894009 0 2.62926773.63884555 3.44200877 1.63942577l-1.83063067 1.78623523c-.33577055-.53611098-.93182338-.89271693-1.6113781-.89271693-1.04914274 0-1.89986832.85088585-1.89986832 1.8998683 0 1.04930302.85072558 1.89986833 1.89986832 1.89986833.67939445 0 1.27560755-.35660595 1.6113781-.89271693l1.78976122 1.83527856zm7.47862792-7.1415752h-6.47259845l-.5638381 3.02209525h2.28916984v5.62956594h3.02225558v-5.62956594h2.28900956zm1.63702168.00961635v8.6248957h3.09758352v-6.282836h1.3599108c.41558618.26444936.3777619.604387.3777619.604387.2266251 1.2845828-1.0956217 1.05779744-1.0956217 1.05779744v2.53118107l1.3222468 2.1002087h3.62680278l-2.00212207-3.5734321c.60422672-.30227365 1.0198129-.9066606 1.0198129-.9066606.4154259-.5665627.2266251-1.9266338.2266251-1.9266338-.18912137-2.2667317-2.45553253-2.22890746-2.45553253-2.22890746h-5.4774675zm16.4860937 2.45537225l-.79334807-2.48358018h-6.55065108v8.67265686h6.55065108l.79334808-2.4834199h-4.8884666v-.9125907h2.48390075v-1.9570855h-2.48390072v-.83598052zm-33.90769705 0l-.80216307-2.4834199h-6.62501744v8.67249658h6.62501744l.80216307-2.4834199h-4.94408115v-.9125907h2.51226893v-1.956765h-2.51226893v-.83630102z"/>
    <path d="M242.70632646 514.3884657l-3.71094576.02099567-1.67356377 2.04475452-1.6745254-2.04475458-3.7107855-.02099567 3.53721054 4.3219039-3.53672972 4.3198204 3.71447175-.02115596 1.67035833-2.04090798 1.66971723 2.04090798 3.71447176.02115597-3.53705028-4.3198204z"/>
  </g>
  <circle cx="43.996033" cy="467.61032" r="6.8147802" stroke="#1c1b1c" stroke-width="1.36293983" stroke-miterlimit="10"/>
  <circle cx="43.996033" cy="545.34985" r="6.8147802" stroke="#1c1b1c" stroke-width="1.36293983" stroke-miterlimit="10"/>
  <circle cx="354.50702" cy="467.61032" r="6.8147802" stroke="#1c1b1c" stroke-width="1.36293983" stroke-miterlimit="10"/>
  <circle cx="354.50702" cy="545.34985" r="6.8147802" stroke="#1c1b1c" stroke-width="1.36293983" stroke-miterlimit="10"/>
</svg>
