<?xml version="1.0" encoding="UTF-8" standalone="no"?>
<!-- Generator: Adobe Illustrator 16.0.0, SVG Export Plug-In . SVG Version: 6.00 Build 0)  -->

<svg
   xmlns:dc="http://purl.org/dc/elements/1.1/"
   xmlns:cc="http://creativecommons.org/ns#"
   xmlns:rdf="http://www.w3.org/1999/02/22-rdf-syntax-ns#"
   xmlns:svg="http://www.w3.org/2000/svg"
   xmlns="http://www.w3.org/2000/svg"
   xmlns:sodipodi="http://sodipodi.sourceforge.net/DTD/sodipodi-0.dtd"
   xmlns:inkscape="http://www.inkscape.org/namespaces/inkscape"
   version="1.0"
   x="0px"
   y="0px"
   width="334.5"
   height="975.5"
   viewBox="0 0 334.49999 975.50001"
   enable-background="new 0 0 975.504 334.504"
   xml:space="preserve"
   id="svg2"
   inkscape:version="0.48.4 r9939"
   sodipodi:docname="controller2.svg"><metadata
     id="metadata124"><rdf:RDF><cc:Work
         rdf:about=""><dc:format>image/svg+xml</dc:format><dc:type
           rdf:resource="http://purl.org/dc/dcmitype/StillImage" /><dc:title></dc:title></cc:Work></rdf:RDF></metadata><defs
     id="defs122" /><sodipodi:namedview
     pagecolor="#ffffff"
     bordercolor="#666666"
     borderopacity="1"
     objecttolerance="10"
     gridtolerance="10"
     guidetolerance="10"
     inkscape:pageopacity="0"
     inkscape:pageshadow="2"
     inkscape:window-width="1629"
     inkscape:window-height="998"
     id="namedview120"
     showgrid="false"
     fit-margin-top="0"
     fit-margin-left="0"
     fit-margin-right="0"
     fit-margin-bottom="0"
     inkscape:zoom="0.34853777"
     inkscape:cx="167.248"
     inkscape:cy="487.748"
     inkscape:window-x="51"
     inkscape:window-y="24"
     inkscape:window-maximized="0"
     inkscape:current-layer="svg2" /><g
     id="g3101"
     transform="matrix(0,1,-1,0,334.49998,0)"><g
       id="Calque_2"><path
         id="path5"
         d="m 971.252,313.244 c 0,9.394 -7.614,17.008 -17.008,17.008 H 21.26 c -9.393,0 -17.008,-7.614 -17.008,-17.008 V 21.26 c 0,-9.393 7.615,-17.008 17.008,-17.008 h 932.984 c 9.394,0 17.008,7.615 17.008,17.008 v 291.984 z"
         stroke-miterlimit="10"
         inkscape:connector-curvature="0"
         style="stroke:#2e2e2f;stroke-width:8.50389957;stroke-miterlimit:10" /></g><g
       id="Calque_3" /><g
       id="Calque_4"><path
         id="path9"
         d="M 916.905,28.252 H 572.252 v 14 c 0,27.062 -21.938,49 -49,49 -27.062,0 -49,-21.938 -49,-49 v -14 H 58.599 c -15.656,0 -28.347,12.691 -28.347,28.347 v 218.307 c 0,15.655 12.691,28.347 28.347,28.347 h 858.307 c 15.655,0 28.347,-12.691 28.347,-28.347 V 56.599 C 945.252,40.943 932.561,28.252 916.905,28.252 z"
         stroke-miterlimit="10"
         inkscape:connector-curvature="0"
         style="stroke:#2e2e2f;stroke-width:2.83459997;stroke-miterlimit:10" /></g><g
       id="Calque_5"><path
         id="path12"
         d="m 839.252,112.532 c -29.012,0 -52.943,21.68 -56.521,49.72 h -13.957 c -3.578,-28.04 -27.51,-49.72 -56.521,-49.72 -29.011,0 -52.943,21.68 -56.521,49.72 h -11.957 c -3.578,-28.04 -27.51,-49.72 -56.521,-49.72 -29.011,0 -52.943,21.68 -56.521,49.72 h -13.957 c -3.578,-28.04 -27.51,-49.72 -56.521,-49.72 -29.012,0 -52.944,21.68 -56.521,49.72 h -63.732 c -3.588,-50.304 -45.529,-90 -96.747,-90 -53.572,0 -97,43.428 -97,97 0,53.571 43.428,97 97,97 50.877,0 92.601,-39.172 96.669,-89 h 63.865 c 3.77,27.827 27.605,49.28 56.465,49.28 28.86,0 52.695,-21.453 56.465,-49.28 h 14.07 c 3.77,27.827 27.604,49.28 56.465,49.28 28.861,0 52.695,-21.453 56.465,-49.28 h 12.07 c 3.77,27.827 27.604,49.28 56.465,49.28 28.861,0 52.695,-21.453 56.465,-49.28 h 14.07 c 3.77,27.827 27.604,49.28 56.465,49.28 31.48,0 57,-25.52 57,-57 0,-31.48 -25.522,-57 -57.002,-57 z"
         inkscape:connector-curvature="0"
         style="fill:#ffffff" /></g><g
       id="Calque_6"><circle
         id="circle15"
         r="86"
         cy="168.252"
         cx="242.418"
         stroke-miterlimit="10"
         sodipodi:cx="242.418"
         sodipodi:cy="168.252"
         sodipodi:rx="86"
         sodipodi:ry="86"
         style="stroke:#2e2e2f;stroke-width:5.66930008;stroke-miterlimit:10"
         d="m 328.418,168.252 c 0,47.49649 -38.50351,86 -86,86 -47.49649,0 -86,-38.50351 -86,-86 0,-47.49649 38.50351,-86.000001 86,-86.000001 47.49649,0 86,38.503511 86,86.000001 z" /><circle
         id="circle17"
         r="46"
         cy="170.01601"
         cx="460.01599"
         stroke-miterlimit="10"
         sodipodi:cx="460.01599"
         sodipodi:cy="170.01601"
         sodipodi:rx="46"
         sodipodi:ry="46"
         style="stroke:#222223;stroke-width:5.66930008;stroke-miterlimit:10"
         d="m 506.01599,170.01601 c 0,25.40509 -20.5949,46 -46,46 -25.4051,0 -46,-20.59491 -46,-46 0,-25.4051 20.5949,-46 46,-46 25.4051,0 46,20.5949 46,46 z" /><circle
         id="circle19"
         r="35.432999"
         cy="170.01601"
         cx="460.01599"
         stroke-miterlimit="10"
         sodipodi:cx="460.01599"
         sodipodi:cy="170.01601"
         sodipodi:rx="35.432999"
         sodipodi:ry="35.432999"
         style="stroke:#414042;stroke-width:5.66930008;stroke-miterlimit:10"
         d="m 495.44899,170.01601 c 0,19.5691 -15.86389,35.433 -35.433,35.433 -19.5691,0 -35.433,-15.8639 -35.433,-35.433 0,-19.56911 15.8639,-35.433 35.433,-35.433 19.56911,0 35.433,15.86389 35.433,35.433 z" /><circle
         id="circle21"
         r="46"
         cy="170.01601"
         cx="587.01599"
         stroke-miterlimit="10"
         sodipodi:cx="587.01599"
         sodipodi:cy="170.01601"
         sodipodi:rx="46"
         sodipodi:ry="46"
         style="stroke:#222223;stroke-width:5.66930008;stroke-miterlimit:10"
         d="m 633.01599,170.01601 c 0,25.40509 -20.5949,46 -46,46 -25.4051,0 -46,-20.59491 -46,-46 0,-25.4051 20.5949,-46 46,-46 25.4051,0 46,20.5949 46,46 z" /><circle
         id="circle23"
         r="35.432999"
         cy="170.01601"
         cx="587.01599"
         stroke-miterlimit="10"
         sodipodi:cx="587.01599"
         sodipodi:cy="170.01601"
         sodipodi:rx="35.432999"
         sodipodi:ry="35.432999"
         style="stroke:#414042;stroke-width:5.66930008;stroke-miterlimit:10"
         d="m 622.44899,170.01601 c 0,19.5691 -15.86389,35.433 -35.433,35.433 -19.5691,0 -35.433,-15.8639 -35.433,-35.433 0,-19.56911 15.8639,-35.433 35.433,-35.433 19.56911,0 35.433,15.86389 35.433,35.433 z" /><circle
         id="circle25"
         r="46"
         cy="170.01601"
         cx="712.01599"
         stroke-miterlimit="10"
         sodipodi:cx="712.01599"
         sodipodi:cy="170.01601"
         sodipodi:rx="46"
         sodipodi:ry="46"
         style="stroke:#222223;stroke-width:5.66930008;stroke-miterlimit:10"
         d="m 758.01599,170.01601 c 0,25.40509 -20.5949,46 -46,46 -25.4051,0 -46,-20.59491 -46,-46 0,-25.4051 20.5949,-46 46,-46 25.4051,0 46,20.5949 46,46 z" /><circle
         id="circle27"
         r="35.432999"
         cy="170.01601"
         cx="712.01599"
         stroke-miterlimit="10"
         sodipodi:cx="712.01599"
         sodipodi:cy="170.01601"
         sodipodi:rx="35.432999"
         sodipodi:ry="35.432999"
         style="stroke:#414042;stroke-width:5.66930008;stroke-miterlimit:10"
         d="m 747.44899,170.01601 c 0,19.5691 -15.86389,35.433 -35.433,35.433 -19.5691,0 -35.433,-15.8639 -35.433,-35.433 0,-19.56911 15.8639,-35.433 35.433,-35.433 19.56911,0 35.433,15.86389 35.433,35.433 z" /><circle
         id="circle29"
         r="46"
         cy="170.01601"
         cx="839.33002"
         stroke-miterlimit="10"
         sodipodi:cx="839.33002"
         sodipodi:cy="170.01601"
         sodipodi:rx="46"
         sodipodi:ry="46"
         style="stroke:#222223;stroke-width:5.66930008;stroke-miterlimit:10"
         d="m 885.33002,170.01601 c 0,25.40509 -20.5949,46 -46,46 -25.4051,0 -46,-20.59491 -46,-46 0,-25.4051 20.5949,-46 46,-46 25.4051,0 46,20.5949 46,46 z" /><circle
         id="circle31"
         r="35.432999"
         cy="170.01601"
         cx="839.33099"
         stroke-miterlimit="10"
         sodipodi:cx="839.33099"
         sodipodi:cy="170.01601"
         sodipodi:rx="35.432999"
         sodipodi:ry="35.432999"
         style="stroke:#414042;stroke-width:5.66930008;stroke-miterlimit:10"
         d="m 874.76399,170.01601 c 0,19.5691 -15.86389,35.433 -35.433,35.433 -19.5691,0 -35.433,-15.8639 -35.433,-35.433 0,-19.56911 15.8639,-35.433 35.433,-35.433 19.56911,0 35.433,15.86389 35.433,35.433 z" /></g><g
       id="Calque_7"><circle
         id="circle34"
         r="54"
         cy="168.752"
         cx="242.418"
         stroke-miterlimit="10"
         sodipodi:cx="242.418"
         sodipodi:cy="168.752"
         sodipodi:rx="54"
         sodipodi:ry="54"
         style="stroke:#2e2e2f;stroke-width:14.17319965;stroke-miterlimit:10"
         d="m 296.418,168.752 c 0,29.82338 -24.17662,54 -54,54 -29.82338,0 -54,-24.17662 -54,-54 0,-29.82338 24.17662,-54 54,-54 29.82338,0 54,24.17662 54,54 z" /><circle
         id="circle36"
         r="26.5"
         cy="168.502"
         cx="242.418"
         stroke-miterlimit="10"
         sodipodi:cx="242.418"
         sodipodi:cy="168.502"
         sodipodi:rx="26.5"
         sodipodi:ry="26.5"
         style="fill:#6d6e71;stroke:#414042;stroke-width:2.83459997;stroke-miterlimit:10"
         d="m 268.918,168.502 c 0,14.63554 -11.86445,26.5 -26.5,26.5 -14.63555,0 -26.5,-11.86446 -26.5,-26.5 0,-14.63555 11.86445,-26.5 26.5,-26.5 14.63555,0 26.5,11.86445 26.5,26.5 z" /></g><g
       id="Calque_8"><g
         id="g39"><g
           id="g41"><polygon
             id="polygon43"
             points="652.532,84.699 675.379,52.352 661.951,52.245 652.533,65.455 642.58,52.171 628.415,52.057 "
             stroke-miterlimit="10"
             style="fill:none;stroke:#0072bc;stroke-width:1.41729999;stroke-miterlimit:10" /><path
             id="path45"
             d="m 743.822,78.798 c -3.415,3.622 -8.547,5.925 -14.284,5.925 -10.283,0 -18.618,-7.396 -18.618,-16.52 0,-9.125 8.335,-16.521 18.618,-16.521 5.835,0 11.042,2.381 14.455,6.11 l -7.688,6.657 c -1.411,-1.998 -3.915,-3.328 -6.768,-3.328 -4.406,0 -7.979,3.171 -7.979,7.081 0,3.91 3.572,7.08 7.979,7.08 2.853,0 5.356,-1.329 6.768,-3.327 l 7.517,6.843 z"
             stroke-miterlimit="10"
             inkscape:connector-curvature="0"
             style="fill:none;stroke:#0072bc;stroke-width:1.41729999;stroke-miterlimit:10" /><polygon
             id="polygon47"
             points="755.295,84.426 767.987,84.426 767.987,63.444 777.602,63.444 775.233,52.18 748.047,52.18 745.68,63.444 755.295,63.444 "
             stroke-miterlimit="10"
             style="fill:none;stroke:#0072bc;stroke-width:1.41729999;stroke-miterlimit:10" /><path
             id="path49"
             d="m 782.108,52.216 v 32.146 h 13.011 V 60.945 h 5.711 c 1.746,0.986 1.588,2.253 1.588,2.253 0.951,4.787 -4.603,3.942 -4.603,3.942 v 9.434 l 5.554,7.828 h 15.233 l -8.409,-13.319 c 2.537,-1.126 4.283,-3.379 4.283,-3.379 1.744,-2.112 0.953,-7.18 0.953,-7.18 -0.796,-8.448 -10.315,-8.308 -10.315,-8.308 h -23.006 z"
             stroke-miterlimit="10"
             inkscape:connector-curvature="0"
             style="fill:none;stroke:#0072bc;stroke-width:1.41729999;stroke-miterlimit:10" /><polygon
             id="polygon51"
             points="820.506,61.367 820.506,75.178 820.506,80.448 820.506,84.435 848.02,84.435 851.351,75.178 830.818,75.178 830.818,71.777 841.251,71.777 841.251,64.484 830.818,64.484 830.818,61.367 851.351,61.367 848.02,52.111 830.818,52.111 820.506,52.111 "
             stroke-miterlimit="10"
             style="fill:none;stroke:#0072bc;stroke-width:1.41729999;stroke-miterlimit:10" /><polygon
             id="polygon53"
             points="677.743,61.367 677.743,75.178 677.743,80.448 677.743,84.435 705.567,84.435 708.937,75.178 688.172,75.178 688.172,71.777 698.724,71.777 698.724,64.485 688.172,64.485 688.172,61.367 708.937,61.367 705.567,52.111 688.172,52.111 677.743,52.111 "
             stroke-miterlimit="10"
             style="fill:none;stroke:#0072bc;stroke-width:1.41729999;stroke-miterlimit:10" /><polygon
             id="polygon55"
             points="851.321,52.239 866.178,68.348 851.323,84.448 866.925,84.369 873.94,76.763 880.954,84.369 896.554,84.448 881.698,68.348 896.556,52.239 880.969,52.318 873.94,59.938 866.906,52.318 "
             stroke-miterlimit="10"
             style="fill:none;stroke:#0072bc;stroke-width:1.41729999;stroke-miterlimit:10" /></g><g
           id="g57"><polygon
             id="polygon59"
             points="652.532,84.699 675.379,52.352 661.951,52.245 652.533,65.455 642.58,52.171 628.415,52.057 "
             stroke-miterlimit="10"
             style="fill:none;stroke:#0072bc;stroke-width:1.41729999;stroke-miterlimit:10" /><path
             id="path61"
             d="m 743.822,78.798 c -3.415,3.622 -8.547,5.925 -14.284,5.925 -10.283,0 -18.618,-7.396 -18.618,-16.52 0,-9.125 8.335,-16.521 18.618,-16.521 5.835,0 11.042,2.381 14.455,6.11 l -7.688,6.657 c -1.411,-1.998 -3.915,-3.328 -6.768,-3.328 -4.406,0 -7.979,3.171 -7.979,7.081 0,3.91 3.572,7.08 7.979,7.08 2.853,0 5.356,-1.329 6.768,-3.327 l 7.517,6.843 z"
             stroke-miterlimit="10"
             inkscape:connector-curvature="0"
             style="fill:none;stroke:#0072bc;stroke-width:1.41729999;stroke-miterlimit:10" /><polygon
             id="polygon63"
             points="755.295,84.426 767.987,84.426 767.987,63.444 777.602,63.444 775.233,52.18 748.047,52.18 745.68,63.444 755.295,63.444 "
             stroke-miterlimit="10"
             style="fill:none;stroke:#0072bc;stroke-width:1.41729999;stroke-miterlimit:10" /><path
             id="path65"
             d="m 782.108,52.216 v 32.146 h 13.011 V 60.945 h 5.711 c 1.746,0.986 1.588,2.253 1.588,2.253 0.951,4.787 -4.603,3.942 -4.603,3.942 v 9.434 l 5.554,7.828 h 15.233 l -8.409,-13.319 c 2.537,-1.126 4.283,-3.379 4.283,-3.379 1.744,-2.112 0.953,-7.18 0.953,-7.18 -0.796,-8.448 -10.315,-8.308 -10.315,-8.308 h -23.006 z"
             stroke-miterlimit="10"
             inkscape:connector-curvature="0"
             style="fill:none;stroke:#0072bc;stroke-width:1.41729999;stroke-miterlimit:10" /><polygon
             id="polygon67"
             points="820.506,61.367 820.506,75.178 820.506,80.448 820.506,84.435 848.02,84.435 851.351,75.178 830.818,75.178 830.818,71.777 841.251,71.777 841.251,64.484 830.818,64.484 830.818,61.367 851.351,61.367 848.02,52.111 830.818,52.111 820.506,52.111 "
             stroke-miterlimit="10"
             style="fill:none;stroke:#0072bc;stroke-width:1.41729999;stroke-miterlimit:10" /><polygon
             id="polygon69"
             points="677.743,61.367 677.743,75.178 677.743,80.448 677.743,84.435 705.567,84.435 708.937,75.178 688.172,75.178 688.172,71.777 698.724,71.777 698.724,64.485 688.172,64.485 688.172,61.367 708.937,61.367 705.567,52.111 688.172,52.111 677.743,52.111 "
             stroke-miterlimit="10"
             style="fill:none;stroke:#0072bc;stroke-width:1.41729999;stroke-miterlimit:10" /><polygon
             id="polygon71"
             points="851.321,52.239 866.178,68.348 851.323,84.448 866.925,84.369 873.94,76.763 880.954,84.369 896.554,84.448 881.698,68.348 896.556,52.239 880.969,52.318 873.94,59.938 866.906,52.318 "
             stroke-miterlimit="10"
             style="fill:none;stroke:#0072bc;stroke-width:1.41729999;stroke-miterlimit:10" /></g></g><g
         id="g73"><polygon
           id="polygon75"
           points="105.791,57.239 105.791,83.127 100.55,83.127 100.55,66.975 95.268,83.127 91.991,83.127 86.842,66.975 86.842,83.127 81.252,83.127 81.252,57.239 81.252,57.239 88.781,57.239 93.729,71.313 98.143,57.239 "
           clip-rule="evenodd"
           style="fill:#ed1c24;fill-rule:evenodd" /><path
           id="path77"
           d="m 108.643,57.239 h 11.101 c 3.512,0 7.238,2.897 7.222,6.356 -0.015,3.379 -2.595,4.894 -4.326,5.761 2.801,0.702 5.05,4.008 4.928,6.76 -0.154,3.496 -3.248,7.01 -7.824,7.01 H 108.643 V 57.239 l 0,0 z m 5.416,3.641 h 3.478 c 5.316,0 5.104,6.261 0.268,6.261 H 114.06 V 60.88 l -0.001,0 z m 0.067,10.639 h 3.478 c 5.316,0 5.104,7.757 0.267,7.757 h -3.745 v -7.757 l 0,0 z"
           clip-rule="evenodd"
           inkscape:connector-curvature="0"
           style="fill:#0095da;fill-rule:evenodd" /></g><circle
         id="circle79"
         r="3.9360001"
         cy="71.150002"
         cx="145.69701"
         clip-rule="evenodd"
         sodipodi:cx="145.69701"
         sodipodi:cy="71.150002"
         sodipodi:rx="3.9360001"
         sodipodi:ry="3.9360001"
         style="fill:#ed1c24;fill-rule:evenodd"
         d="m 149.63301,71.150002 c 0,2.173792 -1.76221,3.936 -3.936,3.936 -2.1738,0 -3.936,-1.762208 -3.936,-3.936 0,-2.173793 1.7622,-3.936001 3.936,-3.936001 2.17379,0 3.936,1.762208 3.936,3.936001 z" /><circle
         id="circle81"
         r="3.9360001"
         cy="71.150002"
         cx="166.687"
         clip-rule="evenodd"
         sodipodi:cx="166.687"
         sodipodi:cy="71.150002"
         sodipodi:rx="3.9360001"
         sodipodi:ry="3.9360001"
         style="fill:#ed1c24;fill-rule:evenodd"
         d="m 170.623,71.150002 c 0,2.173792 -1.76221,3.936 -3.936,3.936 -2.1738,0 -3.936,-1.762208 -3.936,-3.936 0,-2.173793 1.7622,-3.936001 3.936,-3.936001 2.17379,0 3.936,1.762208 3.936,3.936001 z" /><circle
         id="circle83"
         r="3.9360001"
         cy="71.150002"
         cx="187.67599"
         clip-rule="evenodd"
         sodipodi:cx="187.67599"
         sodipodi:cy="71.150002"
         sodipodi:rx="3.9360001"
         sodipodi:ry="3.9360001"
         style="fill:#ed1c24;fill-rule:evenodd"
         d="m 191.61199,71.150002 c 0,2.173792 -1.7622,3.936 -3.936,3.936 -2.17379,0 -3.936,-1.762208 -3.936,-3.936 0,-2.173793 1.76221,-3.936001 3.936,-3.936001 2.1738,0 3.936,1.762208 3.936,3.936001 z" /><circle
         id="circle85"
         r="3.9360001"
         cy="70.150002"
         cx="328.25201"
         clip-rule="evenodd"
         sodipodi:cx="328.25201"
         sodipodi:cy="70.150002"
         sodipodi:rx="3.9360001"
         sodipodi:ry="3.9360001"
         style="fill:#ed1c24;fill-rule:evenodd"
         d="m 332.18801,70.150002 c 0,2.173792 -1.7622,3.936 -3.936,3.936 -2.17379,0 -3.936,-1.762208 -3.936,-3.936 0,-2.173793 1.76221,-3.936001 3.936,-3.936001 2.1738,0 3.936,1.762208 3.936,3.936001 z" /><circle
         id="circle87"
         r="3.9360001"
         cy="70.182999"
         cx="350.25201"
         clip-rule="evenodd"
         sodipodi:cx="350.25201"
         sodipodi:cy="70.182999"
         sodipodi:rx="3.9360001"
         sodipodi:ry="3.9360001"
         style="fill:#ed1c24;fill-rule:evenodd"
         d="m 354.18801,70.182999 c 0,2.173792 -1.7622,3.936 -3.936,3.936 -2.17379,0 -3.936,-1.762208 -3.936,-3.936 0,-2.173793 1.76221,-3.936 3.936,-3.936 2.1738,0 3.936,1.762207 3.936,3.936 z" /><circle
         id="circle89"
         r="3.9360001"
         cy="70.182999"
         cx="371.242"
         clip-rule="evenodd"
         sodipodi:cx="371.242"
         sodipodi:cy="70.182999"
         sodipodi:rx="3.9360001"
         sodipodi:ry="3.9360001"
         style="fill:#ed1c24;fill-rule:evenodd"
         d="m 375.178,70.182999 c 0,2.173792 -1.7622,3.936 -3.936,3.936 -2.17379,0 -3.936,-1.762208 -3.936,-3.936 0,-2.173793 1.76221,-3.936 3.936,-3.936 2.1738,0 3.936,1.762207 3.936,3.936 z" /><circle
         id="circle91"
         r="3.9360001"
         cy="70.182999"
         cx="392.26801"
         clip-rule="evenodd"
         sodipodi:cx="392.26801"
         sodipodi:cy="70.182999"
         sodipodi:rx="3.9360001"
         sodipodi:ry="3.9360001"
         style="fill:#ed1c24;fill-rule:evenodd"
         d="m 396.20401,70.182999 c 0,2.173792 -1.76221,3.936 -3.936,3.936 -2.1738,0 -3.936,-1.762208 -3.936,-3.936 0,-2.173793 1.7622,-3.936 3.936,-3.936 2.17379,0 3.936,1.762207 3.936,3.936 z" /><circle
         id="circle93"
         r="3.9360001"
         cy="70.182999"
         cx="413.258"
         clip-rule="evenodd"
         sodipodi:cx="413.258"
         sodipodi:cy="70.182999"
         sodipodi:rx="3.9360001"
         sodipodi:ry="3.9360001"
         style="fill:#ed1c24;fill-rule:evenodd"
         d="m 417.194,70.182999 c 0,2.173792 -1.76221,3.936 -3.936,3.936 -2.1738,0 -3.936,-1.762208 -3.936,-3.936 0,-2.173793 1.7622,-3.936 3.936,-3.936 2.17379,0 3.936,1.762207 3.936,3.936 z" /><circle
         id="circle95"
         r="3.9360001"
         cy="70.182999"
         cx="434.24799"
         clip-rule="evenodd"
         sodipodi:cx="434.24799"
         sodipodi:cy="70.182999"
         sodipodi:rx="3.9360001"
         sodipodi:ry="3.9360001"
         style="fill:#ed1c24;fill-rule:evenodd"
         d="m 438.18399,70.182999 c 0,2.173792 -1.76221,3.936 -3.936,3.936 -2.1738,0 -3.936,-1.762208 -3.936,-3.936 0,-2.173793 1.7622,-3.936 3.936,-3.936 2.17379,0 3.936,1.762207 3.936,3.936 z" /><circle
         id="circle97"
         r="3.9360001"
         cy="70.182999"
         cx="455.237"
         clip-rule="evenodd"
         sodipodi:cx="455.237"
         sodipodi:cy="70.182999"
         sodipodi:rx="3.9360001"
         sodipodi:ry="3.9360001"
         style="fill:#ed1c24;fill-rule:evenodd"
         d="m 459.173,70.182999 c 0,2.173792 -1.76221,3.936 -3.936,3.936 -2.17379,0 -3.936,-1.762208 -3.936,-3.936 0,-2.173793 1.76221,-3.936 3.936,-3.936 2.17379,0 3.936,1.762207 3.936,3.936 z" /><circle
         id="circle99"
         r="3.9360001"
         cy="71.150002"
         cx="600.31598"
         clip-rule="evenodd"
         sodipodi:cx="600.31598"
         sodipodi:cy="71.150002"
         sodipodi:rx="3.9360001"
         sodipodi:ry="3.9360001"
         style="fill:#ed1c24;fill-rule:evenodd"
         d="m 604.25198,71.150002 c 0,2.173792 -1.76221,3.936 -3.936,3.936 -2.17379,0 -3.936,-1.762208 -3.936,-3.936 0,-2.173793 1.76221,-3.936001 3.936,-3.936001 2.17379,0 3.936,1.762208 3.936,3.936001 z" /><circle
         id="circle101"
         r="3.9360001"
         cy="71.150002"
         cx="621.30701"
         clip-rule="evenodd"
         sodipodi:cx="621.30701"
         sodipodi:cy="71.150002"
         sodipodi:rx="3.9360001"
         sodipodi:ry="3.9360001"
         style="fill:#ed1c24;fill-rule:evenodd"
         d="m 625.24301,71.150002 c 0,2.173792 -1.76221,3.936 -3.936,3.936 -2.1738,0 -3.936,-1.762208 -3.936,-3.936 0,-2.173793 1.7622,-3.936001 3.936,-3.936001 2.17379,0 3.936,1.762208 3.936,3.936001 z" /></g><g
       id="Calque_9"><g
         id="g104"><path
           id="path106"
           d="m 466.477,252.263 v 26.755 h -7.394 v -17.531 c -1.196,0.909 -2.354,1.645 -3.472,2.207 -1.118,0.562 -2.521,1.101 -4.208,1.615 v -5.994 c 2.488,-0.801 4.42,-1.765 5.796,-2.889 1.375,-1.124 2.452,-2.513 3.229,-4.163 h 6.049 z"
           inkscape:connector-curvature="0"
           style="fill:#ed1c24" /></g><g
         id="g108"><path
           id="path110"
           d="m 598.303,279.018 h -21.928 c 0.252,-2.165 1.014,-4.202 2.288,-6.11 1.274,-1.907 3.663,-4.16 7.169,-6.756 2.141,-1.591 3.511,-2.799 4.109,-3.625 0.598,-0.825 0.896,-1.608 0.896,-2.351 0,-0.801 -0.295,-1.486 -0.888,-2.055 -0.593,-0.567 -1.337,-0.852 -2.234,-0.852 -0.933,0 -1.695,0.293 -2.288,0.879 -0.592,0.586 -0.99,1.621 -1.193,3.104 l -7.32,-0.593 c 0.287,-2.057 0.813,-3.663 1.578,-4.817 0.765,-1.154 1.846,-2.04 3.239,-2.656 1.393,-0.616 3.323,-0.924 5.787,-0.924 2.572,0 4.573,0.293 6.003,0.879 1.429,0.587 2.554,1.487 3.373,2.701 0.819,1.214 1.229,2.575 1.229,4.082 0,1.604 -0.47,3.135 -1.409,4.594 -0.939,1.46 -2.646,3.063 -5.123,4.81 -1.471,1.017 -2.455,1.729 -2.951,2.135 -0.497,0.407 -1.08,0.939 -1.75,1.598 h 11.412 v 5.957 z"
           inkscape:connector-curvature="0"
           style="fill:#ed1c24" /></g><g
         id="g112"><path
           id="path114"
           d="m 710.002,260.319 -6.909,-1.238 c 0.574,-2.2 1.679,-3.888 3.312,-5.06 1.633,-1.173 3.944,-1.759 6.936,-1.759 3.433,0 5.915,0.64 7.446,1.92 1.531,1.28 2.297,2.889 2.297,4.827 0,1.137 -0.312,2.165 -0.933,3.086 -0.623,0.922 -1.562,1.729 -2.817,2.423 1.017,0.251 1.794,0.545 2.332,0.879 0.873,0.539 1.553,1.247 2.037,2.127 0.484,0.879 0.727,1.929 0.727,3.149 0,1.531 -0.4,2.999 -1.202,4.405 -0.802,1.405 -1.956,2.488 -3.463,3.248 -1.508,0.759 -3.488,1.139 -5.939,1.139 -2.393,0 -4.28,-0.281 -5.662,-0.843 -1.381,-0.563 -2.518,-1.385 -3.409,-2.468 -0.892,-1.082 -1.576,-2.443 -2.055,-4.082 l 7.304,-0.969 c 0.287,1.471 0.732,2.491 1.336,3.06 0.604,0.568 1.373,0.852 2.307,0.852 0.98,0 1.797,-0.358 2.449,-1.076 0.652,-0.718 0.979,-1.675 0.979,-2.871 0,-1.221 -0.314,-2.165 -0.943,-2.835 -0.627,-0.67 -1.479,-1.005 -2.557,-1.005 -0.574,0 -1.363,0.144 -2.368,0.431 l 0.376,-5.222 c 0.407,0.06 0.725,0.089 0.951,0.089 0.957,0 1.756,-0.305 2.396,-0.915 0.639,-0.609 0.959,-1.334 0.959,-2.171 0,-0.802 -0.238,-1.441 -0.717,-1.92 -0.479,-0.479 -1.137,-0.718 -1.975,-0.718 -0.861,0 -1.561,0.26 -2.1,0.78 -0.539,0.522 -0.904,1.434 -1.095,2.737 z"
           inkscape:connector-curvature="0"
           style="fill:#ed1c24" /></g><g
         id="g116"><path
           id="path118"
           d="M 844.475,274.101 H 831.16 v -6.011 l 13.314,-15.827 h 6.37 v 16.168 h 3.302 v 5.67 h -3.302 v 4.917 h -6.37 v -4.917 z m 0,-5.67 v -8.279 l -7.035,8.279 h 7.035 z"
           inkscape:connector-curvature="0"
           style="fill:#ed1c24" /></g></g></g></svg>