<?xml version="1.0" encoding="utf-8"?>
<!-- Generator: Adobe Illustrator 16.0.0, SVG Export Plug-In . SVG Version: 6.00 Build 0)  -->
<!DOCTYPE svg PUBLIC "-//W3C//DTD SVG 1.0//EN" "http://www.w3.org/TR/2001/REC-SVG-20010904/DTD/svg10.dtd">
<svg version="1.0" xmlns="http://www.w3.org/2000/svg" xmlns:xlink="http://www.w3.org/1999/xlink" x="0px" y="0px"
	 width="1457.007px" height="1362.288px" viewBox="0 0 1457.007 1362.288" enable-background="new 0 0 1457.007 1362.288"
	 xml:space="preserve">
<g id="Calque_2">
	<path stroke="#383839" stroke-width="17.0079" stroke-miterlimit="10" d="M1448.503,1339.611c0,7.827-6.346,14.173-14.173,14.173
		H22.677c-7.828,0-14.173-6.346-14.173-14.173V22.677c0-7.828,6.346-14.173,14.173-14.173h1411.653
		c7.827,0,14.173,6.346,14.173,14.173V1339.611z"/>
</g>
<g id="Calque_3">
	<path stroke="#383839" stroke-width="14.1732" stroke-miterlimit="10" d="M1405.332,545.504h-17.827v-0.027
		c-9.739-0.573-17.565-20.331-17.565-44.64c0-0.447,0.008-0.889,0.014-1.333h-0.448V21.677c0-7.828-6.346-14.173-14.173-14.173
		H101.676c-7.827,0-14.173,6.346-14.173,14.173v477.827H87.49c0.005,0.444,0.014,0.886,0.014,1.333c0,24.669-8.059,44.667-18,44.667
		H51.676c-7.827,0-14.173,6.346-14.173,14.173v755.654c0,7.827,6.346,14.173,14.173,14.173h1353.655
		c7.827,0,14.173-6.346,14.173-14.173V559.677C1419.504,551.85,1413.159,545.504,1405.332,545.504z"/>
</g>
<g id="Calque_4">
	<path fill="#939598" d="M1370.503,1260.331c0,7.827-6.346,14.173-14.173,14.173H100.677c-7.828,0-14.174-6.346-14.174-14.173
		V600.677c0-7.828,6.346-14.173,14.174-14.173h1255.653c7.827,0,14.173,6.346,14.173,14.173V1260.331z"/>
	
		<line fill="#FFFFFF" stroke="#FFFFFF" stroke-width="2.8346" stroke-miterlimit="10" x1="105.609" y1="586.504" x2="105.609" y2="1274.504"/>
	
		<line fill="#FFFFFF" stroke="#FFFFFF" stroke-width="2.8346" stroke-miterlimit="10" x1="145.615" y1="586.504" x2="145.615" y2="1274.504"/>
	
		<line fill="#FFFFFF" stroke="#FFFFFF" stroke-width="2.8346" stroke-miterlimit="10" x1="185.615" y1="586.504" x2="185.615" y2="1274.504"/>
	
		<line fill="#FFFFFF" stroke="#FFFFFF" stroke-width="2.8346" stroke-miterlimit="10" x1="225.615" y1="586.504" x2="225.615" y2="1274.504"/>
	
		<line fill="#FFFFFF" stroke="#FFFFFF" stroke-width="2.8346" stroke-miterlimit="10" x1="265.615" y1="586.504" x2="265.615" y2="1274.504"/>
	
		<line fill="#FFFFFF" stroke="#FFFFFF" stroke-width="2.8346" stroke-miterlimit="10" x1="305.615" y1="586.504" x2="305.615" y2="1274.504"/>
	
		<line fill="#FFFFFF" stroke="#FFFFFF" stroke-width="2.8346" stroke-miterlimit="10" x1="345.62" y1="586.504" x2="345.62" y2="1274.504"/>
	
		<line fill="#FFFFFF" stroke="#FFFFFF" stroke-width="2.8346" stroke-miterlimit="10" x1="385.62" y1="586.504" x2="385.62" y2="1274.504"/>
	
		<line fill="#FFFFFF" stroke="#FFFFFF" stroke-width="2.8346" stroke-miterlimit="10" x1="425.62" y1="586.504" x2="425.62" y2="1274.504"/>
	
		<line fill="#FFFFFF" stroke="#FFFFFF" stroke-width="2.8346" stroke-miterlimit="10" x1="465.62" y1="586.504" x2="465.62" y2="1274.504"/>
	
		<line fill="#FFFFFF" stroke="#FFFFFF" stroke-width="2.8346" stroke-miterlimit="10" x1="505.62" y1="586.504" x2="505.62" y2="1274.504"/>
	
		<line fill="#FFFFFF" stroke="#FFFFFF" stroke-width="2.8346" stroke-miterlimit="10" x1="545.625" y1="586.504" x2="545.625" y2="1274.504"/>
	
		<line fill="#FFFFFF" stroke="#FFFFFF" stroke-width="2.8346" stroke-miterlimit="10" x1="585.625" y1="586.504" x2="585.625" y2="1274.504"/>
	
		<line fill="#FFFFFF" stroke="#FFFFFF" stroke-width="2.8346" stroke-miterlimit="10" x1="625.625" y1="586.504" x2="625.625" y2="1274.504"/>
	
		<line fill="#FFFFFF" stroke="#FFFFFF" stroke-width="2.8346" stroke-miterlimit="10" x1="665.625" y1="586.504" x2="665.625" y2="1274.504"/>
	
		<line fill="#FFFFFF" stroke="#FFFFFF" stroke-width="2.8346" stroke-miterlimit="10" x1="705.625" y1="586.504" x2="705.625" y2="1274.504"/>
	
		<line fill="#FFFFFF" stroke="#FFFFFF" stroke-width="2.8346" stroke-miterlimit="10" x1="745.63" y1="586.504" x2="745.63" y2="1274.504"/>
	
		<line fill="#FFFFFF" stroke="#FFFFFF" stroke-width="2.8346" stroke-miterlimit="10" x1="785.63" y1="586.504" x2="785.63" y2="1274.504"/>
	
		<line fill="#FFFFFF" stroke="#FFFFFF" stroke-width="2.8346" stroke-miterlimit="10" x1="825.63" y1="586.504" x2="825.63" y2="1274.504"/>
	
		<line fill="#FFFFFF" stroke="#FFFFFF" stroke-width="2.8346" stroke-miterlimit="10" x1="865.63" y1="586.504" x2="865.63" y2="1274.504"/>
	
		<line fill="#FFFFFF" stroke="#FFFFFF" stroke-width="2.8346" stroke-miterlimit="10" x1="905.63" y1="586.504" x2="905.63" y2="1274.504"/>
	
		<line fill="#FFFFFF" stroke="#FFFFFF" stroke-width="2.8346" stroke-miterlimit="10" x1="945.63" y1="586.504" x2="945.63" y2="1274.504"/>
	
		<line fill="#FFFFFF" stroke="#FFFFFF" stroke-width="2.8346" stroke-miterlimit="10" x1="985.636" y1="586.504" x2="985.636" y2="1274.504"/>
	
		<line fill="#FFFFFF" stroke="#FFFFFF" stroke-width="2.8346" stroke-miterlimit="10" x1="1025.636" y1="586.504" x2="1025.636" y2="1274.504"/>
	
		<line fill="#FFFFFF" stroke="#FFFFFF" stroke-width="2.8346" stroke-miterlimit="10" x1="1065.636" y1="586.504" x2="1065.636" y2="1274.504"/>
	
		<line fill="#FFFFFF" stroke="#FFFFFF" stroke-width="2.8346" stroke-miterlimit="10" x1="1105.636" y1="586.504" x2="1105.636" y2="1274.504"/>
	
		<line fill="#FFFFFF" stroke="#FFFFFF" stroke-width="2.8346" stroke-miterlimit="10" x1="1145.636" y1="586.504" x2="1145.636" y2="1274.504"/>
	
		<line fill="#FFFFFF" stroke="#FFFFFF" stroke-width="2.8346" stroke-miterlimit="10" x1="1185.64" y1="586.504" x2="1185.64" y2="1274.504"/>
	
		<line fill="#FFFFFF" stroke="#FFFFFF" stroke-width="2.8346" stroke-miterlimit="10" x1="1225.64" y1="586.504" x2="1225.64" y2="1274.504"/>
	
		<line fill="#FFFFFF" stroke="#FFFFFF" stroke-width="2.8346" stroke-miterlimit="10" x1="1265.64" y1="586.504" x2="1265.64" y2="1274.504"/>
	
		<line fill="#FFFFFF" stroke="#FFFFFF" stroke-width="2.8346" stroke-miterlimit="10" x1="1305.64" y1="586.504" x2="1305.64" y2="1274.504"/>
	
		<line fill="#FFFFFF" stroke="#FFFFFF" stroke-width="2.8346" stroke-miterlimit="10" x1="1345.64" y1="586.504" x2="1345.64" y2="1274.504"/>
	
		<line fill="none" stroke="#FFFFFF" stroke-width="2.8346" stroke-miterlimit="10" x1="86.503" y1="1249.958" x2="1370.503" y2="1249.958"/>
	
		<line fill="none" stroke="#FFFFFF" stroke-width="2.8346" stroke-miterlimit="10" x1="86.503" y1="1212.269" x2="1370.503" y2="1212.269"/>
	
		<line fill="none" stroke="#FFFFFF" stroke-width="2.8346" stroke-miterlimit="10" x1="86.503" y1="1174.579" x2="1370.503" y2="1174.579"/>
	
		<line fill="none" stroke="#FFFFFF" stroke-width="2.8346" stroke-miterlimit="10" x1="86.503" y1="1136.89" x2="1370.503" y2="1136.89"/>
	
		<line fill="none" stroke="#FFFFFF" stroke-width="2.8346" stroke-miterlimit="10" x1="86.503" y1="1099.2" x2="1370.503" y2="1099.2"/>
	
		<line fill="none" stroke="#FFFFFF" stroke-width="2.8346" stroke-miterlimit="10" x1="86.503" y1="1061.511" x2="1370.503" y2="1061.511"/>
	
		<line fill="none" stroke="#FFFFFF" stroke-width="2.8346" stroke-miterlimit="10" x1="86.503" y1="1023.821" x2="1370.503" y2="1023.821"/>
	
		<line fill="none" stroke="#FFFFFF" stroke-width="2.8346" stroke-miterlimit="10" x1="86.503" y1="986.132" x2="1370.503" y2="986.132"/>
	
		<line fill="none" stroke="#FFFFFF" stroke-width="2.8346" stroke-miterlimit="10" x1="86.503" y1="948.442" x2="1370.503" y2="948.442"/>
	
		<line fill="none" stroke="#FFFFFF" stroke-width="2.8346" stroke-miterlimit="10" x1="86.503" y1="910.753" x2="1370.503" y2="910.753"/>
	
		<line fill="none" stroke="#FFFFFF" stroke-width="2.8346" stroke-miterlimit="10" x1="86.503" y1="873.063" x2="1370.503" y2="873.063"/>
	
		<line fill="none" stroke="#FFFFFF" stroke-width="2.8346" stroke-miterlimit="10" x1="86.503" y1="835.374" x2="1370.503" y2="835.374"/>
	
		<line fill="none" stroke="#FFFFFF" stroke-width="2.8346" stroke-miterlimit="10" x1="86.503" y1="797.685" x2="1370.503" y2="797.685"/>
	
		<line fill="none" stroke="#FFFFFF" stroke-width="2.8346" stroke-miterlimit="10" x1="86.503" y1="759.995" x2="1370.503" y2="759.995"/>
	
		<line fill="none" stroke="#FFFFFF" stroke-width="2.8346" stroke-miterlimit="10" x1="86.503" y1="722.306" x2="1370.503" y2="722.306"/>
	
		<line fill="none" stroke="#FFFFFF" stroke-width="2.8346" stroke-miterlimit="10" x1="86.503" y1="684.616" x2="1370.503" y2="684.616"/>
	
		<line fill="none" stroke="#FFFFFF" stroke-width="2.8346" stroke-miterlimit="10" x1="86.503" y1="646.927" x2="1370.503" y2="646.927"/>
	
		<line fill="none" stroke="#FFFFFF" stroke-width="2.8346" stroke-miterlimit="10" x1="86.503" y1="609.237" x2="1370.503" y2="609.237"/>
</g>
<g id="Calque_7">
	<path fill="#939598" d="M1203.615,1251.331c0,7.827-6.408,14.173-14.313,14.173H296.928c-7.905,0-14.313-6.346-14.313-14.173
		v-67.654c0-7.827,6.408-14.173,14.313-14.173h892.374c7.904,0,14.313,6.346,14.313,14.173V1251.331z"/>
</g>
<g id="Calque_5">
	<path d="M1067.676,676.891l30.88-37.727c4.159-5.083,5.007-12.105,2.181-18.033c-2.816-5.894-8.767-9.647-15.293-9.647
		c-0.033,0-0.063,0-0.096,0l-41.612,0.238c-5.047,0.03-9.818,2.307-13.016,6.212l-5.659,6.913l-5.662-6.917
		c-3.196-3.905-7.966-6.178-13.013-6.208l-41.611-0.238c-1.265-0.006-2.506,0.172-3.72,0.44c-1.648-0.533-3.393-0.824-5.192-0.824
		h-73.455c-6.265,0-11.672,3.438-14.604,8.492c-7.933-5.504-17.456-8.174-26.484-8.174h-61.422c-3.362,0-6.479,1.009-9.114,2.7
		c-2.681-1.757-5.848-2.81-9.243-2.81h-72.577c-6.129,0-11.603,3.28-14.581,8.313c-10.345-6.354-22.338-9.812-34.838-9.812
		c-17.874,0-34.09,7.108-46.07,18.602l-1.8-5.576c-2.257-6.993-8.77-11.735-16.123-11.735h-74.289c-1.731,0-3.369,0.338-4.938,0.821
		c-0.407-0.033-0.808-0.093-1.218-0.093l-35.851-0.324c-5.904-0.099-11.338,2.932-14.472,7.883l-11.179,17.672L421.5,618.845
		c-3.111-4.68-8.34-7.512-13.959-7.565l-37.819-0.337c-6.255-0.199-12.026,3.336-15.024,8.823
		c-2.999,5.487-2.727,12.179,0.701,17.411l64.387,98.206c3.134,4.778,8.465,7.651,14.171,7.651c0.06,0,0.116,0,0.172,0
		c5.771-0.06,11.12-3.055,14.184-7.946l36.006-57.443v47.651c0,9.358,7.585,16.943,16.944,16.943h74.289
		c7.354,0,13.866-4.738,16.123-11.734l1.906-5.904c11.974,11.434,28.143,18.506,45.964,18.506c19.787,0,38.425-8.71,51.133-23.896
		c0.265-0.318,0.45-0.672,0.688-1.003v7.063c0,9.358,7.585,16.943,16.944,16.943h33.888c0.05,0,0.096-0.013,0.146-0.013
		l37.538-0.179c0.003,0,0.01,0,0.017,0h34.735c4.173,0,7.992-1.51,10.943-4.008c3.038,2.624,6.96,4.127,11.084,4.127h40.665
		c0.801,0,1.589-0.066,2.366-0.173c0.891,0.143,1.787,0.271,2.717,0.271h73.455c1.469,0,2.889-0.238,4.266-0.596
		c1.463,0.411,2.991,0.636,4.557,0.636c0.033,0,0.063,0,0.096,0l41.652-0.238c5.047-0.029,9.818-2.307,13.016-6.212l5.616-6.86
		l5.612,6.857c3.193,3.908,7.966,6.186,13.016,6.215l41.652,0.238c0.032,0,0.063,0,0.096,0c6.525,0,12.479-3.753,15.292-9.646
		c2.826-5.928,1.976-12.95-2.184-18.033L1067.676,676.891z M689.813,696.509l-19.529-20.035l1.439-1.403
		c3.035,2.559,6.88,4.015,10.915,4.015h8.727v19.347C690.885,697.767,690.398,697.107,689.813,696.509z"/>
	<path fill="#FFFFFF" d="M1089.038,626.714l-46.013,0.265l-17.96,21.941l-17.967-21.941l-46.014-0.265l41.069,50.183l-41.063,50.15
		l46.053-0.265l17.921-21.896l17.917,21.896l46.053,0.265l-41.065-50.15L1089.038,626.714z M1081.847,723.619l-37.251-0.212
		l-19.531-23.87l-19.535,23.87l-37.251,0.212l38.257-46.722l-38.263-46.755l37.21,0.212l19.582,23.913l19.574-23.913l37.211-0.212
		l-38.263,46.755L1081.847,723.619z"/>
	<path fill="#FFFFFF" d="M586.875,657.584l-10.094-31.234h-77.214v100.638h77.214l10.094-31.234h-56.074v-6.85h28.169v-25.33
		h-28.169v-5.99H586.875z M555.582,666.963v18.552h-28.169v13.628h54.803l-7.896,24.457h-71.363v-93.86h71.363l7.896,24.456h-54.803
		v12.768H555.582z"/>
	<path fill="#FFFFFF" d="M911.636,695.754v-6.85h27.852v-25.33h-27.852v-5.99h55.441L957.1,626.35h-76.387v100.638H957.1
		l9.978-31.234H911.636z M954.625,723.6h-70.522v-93.86h70.522l7.813,24.456h-54.19v12.768h27.852v18.552h-27.852v13.628h54.19
		L954.625,723.6z"/>
	<path fill="#FFFFFF" d="M867.678,675.961c5.007-6.83,2.941-22.189,2.862-22.745c-2.185-26.23-28.011-26.548-29.219-26.548h-0.003
		h-63.116V726.77h38.124V656.32h13.042c3.224,2.25,3.071,4.812,3.064,4.897l-0.026,0.238l0.043,0.241
		c0.593,3.369,0.195,5.907-1.182,7.553c-1.82,2.167-5.152,2.491-6.979,2.491c-1.237,0-2.114-0.139-2.171-0.148l-1.979-0.331v30.873
		l15.583,24.754h44.495l-23.03-41.099C863.412,682.1,867.519,676.189,867.678,675.961z M874.432,723.5h-36.836l-14.068-22.345
		v-26.038c2.855,0.096,7.538-0.351,10.335-3.687c2.025-2.416,2.681-5.825,1.956-10.137c0.022-1.108-0.259-5.061-5.027-8.098
		l-0.417-0.266h-17.437v70.45h-31.347v-93.324h59.804c2.438,0,23.87,0.655,25.78,23.529c0.563,4.055,1.257,15.614-2.261,20.412
		c-0.043,0.063-4.511,6.467-10.799,9.611l-1.588,0.794L874.432,723.5z"/>
	<path fill="#FFFFFF" d="M687.552,626.559l-6.956,37.277h26.018v63.126h37.277v-63.126h26.012l-6.956-37.277H687.552z
		 M740.502,660.446v63.127h-30.499v-63.127H684.68l5.692-30.499h69.761l5.692,30.499H740.502z"/>
	<path fill="#FFFFFF" d="M639.543,656.85c6.801,0,13.019,3.445,16.633,9.217l1.115,1.78l23.139-22.577l-0.973-1.202
		c-9.815-12.079-24.363-19.009-39.914-19.009c-28.341,0-51.397,23.057-51.397,51.397c0,28.342,23.056,51.398,51.397,51.398
		c15.26,0,29.635-6.719,39.438-18.434l0.98-1.172l-22.64-23.229l-1.145,1.827c-3.614,5.771-9.832,9.217-16.633,9.217
		c-10.812,0-19.608-8.796-19.608-19.608C619.936,665.646,628.732,656.85,639.543,656.85z M616.547,676.457
		c0,12.679,10.318,22.997,22.997,22.997c7.257,0,13.952-3.346,18.291-9.048l17.546,17.996
		c-9.117,10.229-22.093,16.064-35.837,16.064c-26.472,0-48.009-21.538-48.009-48.01c0-26.471,21.537-48.009,48.009-48.009
		c14.009,0,27.147,6.023,36.287,16.573l-17.963,17.53c-4.342-5.729-11.047-9.091-18.324-9.091
		C626.865,653.461,616.547,663.779,616.547,676.457z"/>
	<path fill="#FFFFFF" d="M433.923,665.076l-25.621-38.537l-41.89-0.377l67.577,103.064l64.01-102.121l-39.825-0.357L433.923,665.076
		z M491.909,630.438l-57.986,92.513l-61.197-93.344l33.749,0.305l27.521,41.394l26.038-41.155L491.909,630.438z"/>
	<g>
		<polygon fill-rule="evenodd" clip-rule="evenodd" points="685.364,1093.896 705.822,1093.896 719.268,1132.138 731.261,1093.896 
			752.042,1093.896 752.042,1164.24 737.802,1164.24 737.802,1120.351 723.448,1164.24 714.544,1164.24 700.552,1120.351 
			700.552,1164.24 685.364,1164.24 685.364,1093.896 		"/>
		<path fill-rule="evenodd" clip-rule="evenodd" d="M759.791,1093.896h30.166c9.543,0,19.668,7.873,19.624,17.272
			c-0.04,9.182-7.05,13.297-11.755,15.654c7.612,1.907,13.722,10.891,13.391,18.37c-0.42,9.498-8.824,19.047-21.26,19.047h-30.166
			V1093.896L759.791,1093.896z M774.511,1103.79h9.448c14.446,0,13.87,17.013,0.726,17.013h-10.174V1103.79L774.511,1103.79z
			 M774.693,1132.697h9.449c14.444,0,13.869,21.077,0.726,21.077h-10.175V1132.697L774.693,1132.697z"/>
	</g>
	<g>
		<path d="M421.82,1212.269v-21.904h-7.823v-4.46h20.951v4.46h-7.805v21.904H421.82z"/>
		<path d="M439.68,1212.269h-5.054v-19.099h4.694v2.715c0.803-1.282,1.525-2.128,2.167-2.535c0.641-0.407,1.37-0.611,2.185-0.611
			c1.151,0,2.26,0.317,3.327,0.953l-1.564,4.406c-0.852-0.552-1.643-0.828-2.374-0.828c-0.708,0-1.307,0.195-1.798,0.585
			c-0.492,0.39-0.878,1.094-1.16,2.113c-0.282,1.019-0.422,3.153-0.422,6.402V1212.269z"/>
		<path d="M451.479,1198.996l-4.586-0.827c0.515-1.846,1.403-3.213,2.662-4.101c1.259-0.887,3.129-1.33,5.611-1.33
			c2.254,0,3.932,0.267,5.036,0.8c1.103,0.534,1.879,1.211,2.329,2.032c0.45,0.821,0.675,2.329,0.675,4.523l-0.054,5.898
			c0,1.679,0.081,2.916,0.243,3.714c0.162,0.797,0.465,1.651,0.908,2.563h-5c-0.132-0.336-0.294-0.833-0.485-1.492
			c-0.084-0.3-0.144-0.498-0.18-0.594c-0.863,0.839-1.786,1.469-2.77,1.888c-0.983,0.42-2.032,0.63-3.147,0.63
			c-1.966,0-3.516-0.533-4.649-1.601c-1.133-1.067-1.699-2.416-1.699-4.047c0-1.078,0.257-2.041,0.773-2.886
			c0.516-0.846,1.238-1.493,2.167-1.942c0.929-0.449,2.269-0.842,4.019-1.178c2.362-0.443,3.999-0.857,4.91-1.241v-0.504
			c0-0.971-0.24-1.663-0.719-2.077c-0.479-0.413-1.385-0.62-2.716-0.62c-0.899,0-1.601,0.177-2.104,0.53
			C452.198,1197.489,451.79,1198.109,451.479,1198.996z M458.24,1203.097c-0.647,0.216-1.672,0.474-3.075,0.773
			s-2.32,0.594-2.751,0.881c-0.66,0.468-0.989,1.062-0.989,1.78c0,0.708,0.264,1.319,0.792,1.835
			c0.527,0.516,1.199,0.773,2.014,0.773c0.911,0,1.78-0.3,2.607-0.899c0.612-0.456,1.013-1.013,1.205-1.673
			c0.132-0.432,0.198-1.252,0.198-2.464V1203.097z"/>
		<path d="M484.229,1212.269h-4.694v-2.806c-0.78,1.091-1.7,1.903-2.761,2.437c-1.061,0.534-2.131,0.801-3.21,0.801
			c-2.194,0-4.073-0.884-5.638-2.652c-1.564-1.769-2.347-4.235-2.347-7.4c0-3.237,0.761-5.698,2.284-7.383s3.447-2.526,5.773-2.526
			c2.134,0,3.98,0.887,5.539,2.661v-9.495h5.054V1212.269z M470.74,1202.306c0,2.038,0.282,3.513,0.845,4.424
			c0.815,1.319,1.954,1.979,3.417,1.979c1.163,0,2.152-0.495,2.967-1.484c0.815-0.988,1.223-2.466,1.223-4.433
			c0-2.194-0.396-3.773-1.187-4.738c-0.792-0.966-1.805-1.448-3.039-1.448c-1.199,0-2.203,0.477-3.013,1.43
			C471.145,1198.987,470.74,1200.411,470.74,1202.306z"/>
		<path d="M487.359,1193.17h4.658v2.607c1.667-2.026,3.651-3.039,5.953-3.039c1.223,0,2.284,0.252,3.183,0.755
			c0.899,0.504,1.637,1.266,2.212,2.284c0.839-1.019,1.745-1.78,2.716-2.284c0.971-0.503,2.008-0.755,3.111-0.755
			c1.402,0,2.589,0.285,3.561,0.854c0.971,0.57,1.696,1.406,2.176,2.509c0.348,0.815,0.521,2.135,0.521,3.957v12.211h-5.054v-10.916
			c0-1.895-0.174-3.117-0.521-3.669c-0.467-0.72-1.187-1.079-2.158-1.079c-0.708,0-1.373,0.216-1.996,0.647
			s-1.073,1.064-1.349,1.897c-0.276,0.833-0.414,2.149-0.414,3.947v9.172h-5.054v-10.467c0-1.858-0.09-3.057-0.27-3.597
			c-0.18-0.539-0.458-0.941-0.836-1.205c-0.377-0.264-0.89-0.396-1.538-0.396c-0.779,0-1.481,0.21-2.104,0.63
			c-0.624,0.42-1.07,1.024-1.34,1.816c-0.27,0.791-0.405,2.104-0.405,3.938v9.279h-5.053V1193.17z"/>
		<path d="M522.789,1198.996l-4.586-0.827c0.515-1.846,1.403-3.213,2.662-4.101c1.259-0.887,3.129-1.33,5.611-1.33
			c2.254,0,3.932,0.267,5.036,0.8c1.103,0.534,1.879,1.211,2.329,2.032c0.45,0.821,0.675,2.329,0.675,4.523l-0.054,5.898
			c0,1.679,0.081,2.916,0.243,3.714c0.162,0.797,0.465,1.651,0.908,2.563h-5c-0.132-0.336-0.294-0.833-0.485-1.492
			c-0.084-0.3-0.144-0.498-0.18-0.594c-0.863,0.839-1.786,1.469-2.77,1.888c-0.983,0.42-2.032,0.63-3.147,0.63
			c-1.966,0-3.516-0.533-4.649-1.601c-1.133-1.067-1.699-2.416-1.699-4.047c0-1.078,0.257-2.041,0.773-2.886
			c0.516-0.846,1.238-1.493,2.167-1.942c0.929-0.449,2.269-0.842,4.019-1.178c2.362-0.443,3.999-0.857,4.91-1.241v-0.504
			c0-0.971-0.24-1.663-0.719-2.077c-0.479-0.413-1.385-0.62-2.716-0.62c-0.899,0-1.601,0.177-2.104,0.53
			C523.508,1197.489,523.101,1198.109,522.789,1198.996z M529.551,1203.097c-0.647,0.216-1.672,0.474-3.075,0.773
			s-2.32,0.594-2.751,0.881c-0.66,0.468-0.989,1.062-0.989,1.78c0,0.708,0.264,1.319,0.792,1.835
			c0.527,0.516,1.199,0.773,2.014,0.773c0.911,0,1.78-0.3,2.607-0.899c0.612-0.456,1.013-1.013,1.205-1.673
			c0.132-0.432,0.198-1.252,0.198-2.464V1203.097z"/>
		<path d="M542.86,1212.269h-5.054v-19.099h4.694v2.715c0.803-1.282,1.525-2.128,2.167-2.535c0.641-0.407,1.37-0.611,2.185-0.611
			c1.151,0,2.26,0.317,3.327,0.953l-1.564,4.406c-0.852-0.552-1.643-0.828-2.374-0.828c-0.708,0-1.307,0.195-1.798,0.585
			c-0.492,0.39-0.878,1.094-1.16,2.113c-0.282,1.019-0.422,3.153-0.422,6.402V1212.269z"/>
		<path d="M550.703,1212.269v-26.364h5.053v13.991l5.917-6.726h6.222l-6.528,6.978l6.996,12.121h-5.449l-4.802-8.578l-2.356,2.464
			v6.114H550.703z"/>
		<path d="M577.483,1202.449c0-1.679,0.414-3.303,1.241-4.873c0.828-1.571,1.999-2.77,3.516-3.598c1.517-0.827,3.21-1.24,5.081-1.24
			c2.889,0,5.257,0.938,7.104,2.814c1.846,1.876,2.77,4.247,2.77,7.112c0,2.89-0.932,5.284-2.796,7.185
			c-1.865,1.9-4.211,2.851-7.041,2.851c-1.75,0-3.42-0.396-5.008-1.187c-1.589-0.792-2.796-1.952-3.624-3.48
			C577.897,1206.505,577.483,1204.644,577.483,1202.449z M582.663,1202.719c0,1.895,0.45,3.346,1.349,4.353
			c0.899,1.007,2.008,1.511,3.327,1.511c1.318,0,2.424-0.504,3.318-1.511c0.893-1.007,1.34-2.47,1.34-4.388
			c0-1.871-0.447-3.31-1.34-4.316c-0.894-1.007-2-1.511-3.318-1.511c-1.319,0-2.428,0.504-3.327,1.511
			C583.112,1199.374,582.663,1200.825,582.663,1202.719z"/>
		<path d="M597.465,1193.17h2.806v-1.439c0-1.606,0.17-2.805,0.512-3.597c0.342-0.791,0.971-1.436,1.889-1.933
			c0.917-0.498,2.077-0.747,3.479-0.747c1.439,0,2.848,0.216,4.227,0.647l-0.684,3.525c-0.803-0.191-1.577-0.288-2.32-0.288
			c-0.731,0-1.256,0.171-1.574,0.513c-0.318,0.342-0.477,0.998-0.477,1.97v1.349h3.777v3.975h-3.777v15.124h-5.053v-15.124h-2.806
			V1193.17z"/>
		<path d="M617.916,1203.69l5.18-0.504c0.312,1.738,0.944,3.016,1.897,3.831c0.953,0.815,2.239,1.223,3.857,1.223
			c1.714,0,3.006-0.362,3.875-1.088c0.869-0.726,1.304-1.574,1.304-2.545c0-0.623-0.183-1.153-0.548-1.592
			c-0.366-0.438-1.004-0.818-1.916-1.142c-0.624-0.216-2.044-0.6-4.262-1.151c-2.854-0.707-4.855-1.576-6.006-2.607
			c-1.619-1.45-2.428-3.219-2.428-5.306c0-1.342,0.38-2.599,1.142-3.768s1.858-2.059,3.291-2.67s3.162-0.918,5.188-0.918
			c3.309,0,5.8,0.726,7.472,2.177c1.673,1.45,2.551,3.387,2.635,5.809l-5.323,0.233c-0.228-1.354-0.716-2.328-1.466-2.922
			c-0.749-0.594-1.873-0.891-3.372-0.891c-1.547,0-2.758,0.318-3.633,0.953c-0.564,0.408-0.845,0.953-0.845,1.637
			c0,0.624,0.264,1.157,0.791,1.601c0.671,0.563,2.302,1.151,4.892,1.763c2.59,0.611,4.505,1.244,5.746,1.897
			s2.212,1.546,2.913,2.68c0.702,1.133,1.052,2.532,1.052,4.199c0,1.51-0.42,2.925-1.259,4.244c-0.839,1.318-2.026,2.299-3.561,2.94
			c-1.535,0.641-3.447,0.962-5.737,0.962c-3.333,0-5.893-0.771-7.679-2.312C619.33,1208.885,618.263,1206.64,617.916,1203.69z"/>
		<path d="M651.08,1193.17v4.028h-3.453v7.697c0,1.559,0.033,2.467,0.099,2.725s0.216,0.471,0.45,0.638
			c0.233,0.168,0.518,0.252,0.854,0.252c0.468,0,1.145-0.162,2.032-0.485l0.432,3.921c-1.175,0.503-2.506,0.755-3.992,0.755
			c-0.912,0-1.733-0.153-2.464-0.459c-0.731-0.306-1.268-0.701-1.61-1.187s-0.579-1.142-0.71-1.97
			c-0.108-0.587-0.162-1.773-0.162-3.561v-8.326h-2.32v-4.028h2.32v-3.795l5.071-2.949v6.744H651.08z"/>
		<path d="M664.173,1206.19l5.036,0.845c-0.647,1.847-1.67,3.252-3.066,4.218c-1.396,0.965-3.144,1.447-5.242,1.447
			c-3.321,0-5.779-1.085-7.374-3.255c-1.259-1.738-1.888-3.933-1.888-6.582c0-3.165,0.827-5.645,2.482-7.437
			c1.654-1.792,3.747-2.688,6.276-2.688c2.841,0,5.083,0.938,6.726,2.814c1.642,1.876,2.428,4.751,2.355,8.623h-12.661
			c0.036,1.499,0.443,2.665,1.223,3.498c0.779,0.833,1.75,1.25,2.913,1.25c0.792,0,1.457-0.216,1.997-0.647
			S663.897,1207.149,664.173,1206.19z M664.461,1201.083c-0.036-1.463-0.414-2.575-1.133-3.337
			c-0.719-0.761-1.595-1.142-2.625-1.142c-1.103,0-2.014,0.402-2.733,1.205c-0.72,0.804-1.073,1.895-1.061,3.273H664.461z"/>
		<path d="M676.961,1212.269h-5.054v-19.099h4.694v2.715c0.803-1.282,1.525-2.128,2.167-2.535c0.641-0.407,1.37-0.611,2.185-0.611
			c1.151,0,2.26,0.317,3.327,0.953l-1.564,4.406c-0.852-0.552-1.643-0.828-2.374-0.828c-0.708,0-1.307,0.195-1.798,0.585
			c-0.492,0.39-0.878,1.094-1.16,2.113c-0.282,1.019-0.422,3.153-0.422,6.402V1212.269z"/>
		<path d="M702.355,1212.269h-5.054v-9.747c0-2.063-0.108-3.396-0.324-4.002c-0.216-0.604-0.566-1.075-1.052-1.411
			c-0.486-0.336-1.07-0.504-1.753-0.504c-0.875,0-1.661,0.24-2.356,0.72s-1.172,1.114-1.43,1.906
			c-0.258,0.791-0.387,2.254-0.387,4.388v8.65h-5.053v-19.099h4.693v2.806c1.667-2.158,3.765-3.237,6.294-3.237
			c1.115,0,2.134,0.2,3.058,0.603c0.923,0.401,1.621,0.914,2.095,1.537c0.474,0.624,0.803,1.331,0.989,2.122
			c0.186,0.792,0.279,1.925,0.279,3.399V1212.269z"/>
		<path d="M714.804,1212.269v-26.364h19.549v4.46h-14.226v5.845h13.236v4.442h-13.236v7.175h14.728v4.442H714.804z"/>
		<path d="M737.86,1212.269v-26.364h5.054v26.364H737.86z"/>
		<path d="M757.68,1206.19l5.035,0.845c-0.647,1.847-1.67,3.252-3.066,4.218c-1.396,0.965-3.145,1.447-5.242,1.447
			c-3.321,0-5.779-1.085-7.373-3.255c-1.259-1.738-1.889-3.933-1.889-6.582c0-3.165,0.827-5.645,2.481-7.437
			c1.655-1.792,3.747-2.688,6.276-2.688c2.842,0,5.084,0.938,6.727,2.814s2.428,4.751,2.355,8.623h-12.66
			c0.036,1.499,0.443,2.665,1.223,3.498s1.75,1.25,2.913,1.25c0.792,0,1.457-0.216,1.996-0.647
			C756.997,1207.845,757.404,1207.149,757.68,1206.19z M757.967,1201.083c-0.036-1.463-0.413-2.575-1.133-3.337
			c-0.72-0.761-1.595-1.142-2.626-1.142c-1.103,0-2.014,0.402-2.733,1.205c-0.719,0.804-1.073,1.895-1.061,3.273H757.967z"/>
		<path d="M782.284,1198.816l-4.981,0.899c-0.168-0.995-0.549-1.744-1.143-2.248c-0.593-0.504-1.363-0.755-2.311-0.755
			c-1.259,0-2.264,0.435-3.013,1.304s-1.124,2.322-1.124,4.36c0,2.267,0.381,3.867,1.143,4.802c0.761,0.936,1.783,1.403,3.066,1.403
			c0.959,0,1.744-0.272,2.355-0.818s1.043-1.483,1.295-2.814l4.964,0.845c-0.516,2.278-1.505,3.999-2.968,5.162
			s-3.423,1.744-5.881,1.744c-2.794,0-5.021-0.881-6.681-2.644c-1.661-1.763-2.491-4.202-2.491-7.319c0-3.153,0.833-5.608,2.5-7.364
			c1.666-1.757,3.921-2.635,6.762-2.635c2.326,0,4.176,0.501,5.548,1.501C780.698,1195.241,781.684,1196.767,782.284,1198.816z"/>
		<path d="M793.398,1193.17v4.028h-3.452v7.697c0,1.559,0.032,2.467,0.099,2.725c0.065,0.258,0.216,0.471,0.449,0.638
			c0.234,0.168,0.519,0.252,0.854,0.252c0.468,0,1.145-0.162,2.032-0.485l0.432,3.921c-1.175,0.503-2.506,0.755-3.992,0.755
			c-0.911,0-1.732-0.153-2.464-0.459s-1.268-0.701-1.609-1.187s-0.579-1.142-0.711-1.97c-0.107-0.587-0.162-1.773-0.162-3.561
			v-8.326h-2.319v-4.028h2.319v-3.795l5.072-2.949v6.744H793.398z"/>
		<path d="M800.27,1212.269h-5.054v-19.099h4.694v2.715c0.803-1.282,1.525-2.128,2.167-2.535c0.641-0.407,1.369-0.611,2.185-0.611
			c1.151,0,2.26,0.317,3.327,0.953l-1.564,4.406c-0.852-0.552-1.643-0.828-2.374-0.828c-0.708,0-1.307,0.195-1.799,0.585
			c-0.491,0.39-0.878,1.094-1.159,2.113c-0.282,1.019-0.423,3.153-0.423,6.402V1212.269z"/>
		<path d="M807.124,1202.449c0-1.679,0.414-3.303,1.241-4.873c0.827-1.571,1.999-2.77,3.516-3.598c1.517-0.827,3.21-1.24,5.08-1.24
			c2.89,0,5.258,0.938,7.104,2.814c1.847,1.876,2.77,4.247,2.77,7.112c0,2.89-0.932,5.284-2.796,7.185s-4.212,2.851-7.041,2.851
			c-1.75,0-3.42-0.396-5.009-1.187c-1.588-0.792-2.796-1.952-3.623-3.48S807.124,1204.644,807.124,1202.449z M812.303,1202.719
			c0,1.895,0.449,3.346,1.349,4.353s2.008,1.511,3.327,1.511c1.318,0,2.425-0.504,3.317-1.511c0.894-1.007,1.34-2.47,1.34-4.388
			c0-1.871-0.446-3.31-1.34-4.316c-0.893-1.007-1.999-1.511-3.317-1.511c-1.319,0-2.428,0.504-3.327,1.511
			S812.303,1200.825,812.303,1202.719z"/>
		<path d="M846.689,1212.269h-5.053v-9.747c0-2.063-0.108-3.396-0.324-4.002c-0.216-0.604-0.566-1.075-1.052-1.411
			s-1.07-0.504-1.754-0.504c-0.875,0-1.66,0.24-2.355,0.72s-1.172,1.114-1.43,1.906c-0.258,0.791-0.387,2.254-0.387,4.388v8.65
			h-5.054v-19.099h4.694v2.806c1.666-2.158,3.765-3.237,6.294-3.237c1.115,0,2.134,0.2,3.058,0.603
			c0.923,0.401,1.621,0.914,2.095,1.537c0.474,0.624,0.804,1.331,0.989,2.122c0.186,0.792,0.278,1.925,0.278,3.399V1212.269z"/>
		<path d="M850.341,1190.58v-4.676h5.054v4.676H850.341z M850.341,1212.269v-19.099h5.054v19.099H850.341z"/>
		<path d="M875.754,1198.816l-4.981,0.899c-0.168-0.995-0.549-1.744-1.143-2.248c-0.593-0.504-1.363-0.755-2.311-0.755
			c-1.259,0-2.264,0.435-3.013,1.304s-1.124,2.322-1.124,4.36c0,2.267,0.381,3.867,1.143,4.802c0.761,0.936,1.783,1.403,3.066,1.403
			c0.959,0,1.744-0.272,2.355-0.818s1.043-1.483,1.295-2.814l4.964,0.845c-0.516,2.278-1.505,3.999-2.968,5.162
			s-3.423,1.744-5.881,1.744c-2.794,0-5.021-0.881-6.681-2.644c-1.661-1.763-2.491-4.202-2.491-7.319c0-3.153,0.833-5.608,2.5-7.364
			c1.666-1.757,3.921-2.635,6.762-2.635c2.326,0,4.176,0.501,5.548,1.501C874.168,1195.241,875.155,1196.767,875.754,1198.816z"/>
		<path d="M876.332,1206.819l5.071-0.773c0.216,0.983,0.653,1.729,1.313,2.239s1.583,0.765,2.77,0.765c1.307,0,2.29-0.24,2.95-0.72
			c0.443-0.336,0.665-0.785,0.665-1.349c0-0.384-0.12-0.701-0.359-0.953c-0.252-0.24-0.815-0.462-1.69-0.666
			c-4.077-0.898-6.66-1.72-7.751-2.463c-1.511-1.031-2.267-2.464-2.267-4.299c0-1.654,0.653-3.045,1.96-4.172s3.333-1.69,6.079-1.69
			c2.613,0,4.556,0.426,5.827,1.276c1.271,0.852,2.146,2.11,2.625,3.777l-4.766,0.881c-0.204-0.743-0.591-1.313-1.16-1.709
			c-0.569-0.396-1.382-0.593-2.437-0.593c-1.331,0-2.284,0.186-2.859,0.558c-0.384,0.264-0.575,0.605-0.575,1.024
			c0,0.36,0.167,0.666,0.503,0.917c0.456,0.336,2.029,0.81,4.721,1.421s4.571,1.361,5.639,2.248
			c1.055,0.899,1.582,2.152,1.582,3.759c0,1.751-0.731,3.255-2.194,4.514s-3.626,1.889-6.492,1.889c-2.602,0-4.66-0.527-6.177-1.583
			C877.791,1210.063,876.799,1208.63,876.332,1206.819z"/>
		<path d="M905.755,1212.269v-26.364h5.323v26.364H905.755z"/>
		<path d="M932.013,1212.269h-5.053v-9.747c0-2.063-0.108-3.396-0.324-4.002c-0.216-0.604-0.566-1.075-1.052-1.411
			s-1.07-0.504-1.754-0.504c-0.875,0-1.66,0.24-2.355,0.72s-1.172,1.114-1.43,1.906c-0.258,0.791-0.387,2.254-0.387,4.388v8.65
			h-5.054v-19.099h4.694v2.806c1.666-2.158,3.765-3.237,6.294-3.237c1.115,0,2.134,0.2,3.058,0.603
			c0.923,0.401,1.621,0.914,2.095,1.537c0.474,0.624,0.804,1.331,0.989,2.122c0.186,0.792,0.278,1.925,0.278,3.399V1212.269z"/>
		<path d="M952.319,1198.816l-4.981,0.899c-0.168-0.995-0.549-1.744-1.143-2.248c-0.593-0.504-1.363-0.755-2.311-0.755
			c-1.259,0-2.264,0.435-3.013,1.304s-1.124,2.322-1.124,4.36c0,2.267,0.381,3.867,1.143,4.802c0.761,0.936,1.783,1.403,3.066,1.403
			c0.959,0,1.744-0.272,2.355-0.818s1.043-1.483,1.295-2.814l4.964,0.845c-0.516,2.278-1.505,3.999-2.968,5.162
			s-3.423,1.744-5.881,1.744c-2.794,0-5.021-0.881-6.681-2.644c-1.661-1.763-2.491-4.202-2.491-7.319c0-3.153,0.833-5.608,2.5-7.364
			c1.666-1.757,3.921-2.635,6.762-2.635c2.326,0,4.176,0.501,5.548,1.501C950.733,1195.241,951.719,1196.767,952.319,1198.816z"/>
		<path d="M954.676,1212.269v-5.054h5.054v5.054H954.676z"/>
		<path d="M983.166,1185.364c2.361,0,4.627,0.594,6.798,1.781c2.17,1.187,3.875,2.88,5.116,5.08s1.861,4.505,1.861,6.915
			c0,2.397-0.608,4.685-1.825,6.86c-1.218,2.176-2.914,3.873-5.09,5.09s-4.463,1.825-6.86,1.825c-2.398,0-4.686-0.608-6.861-1.825
			s-3.873-2.914-5.09-5.09s-1.825-4.463-1.825-6.86c0-2.41,0.621-4.715,1.861-6.915c1.241-2.2,2.946-3.894,5.116-5.08
			C978.537,1185.958,980.803,1185.364,983.166,1185.364z M983.166,1188.08c-1.895,0-3.714,0.474-5.459,1.421
			c-1.744,0.947-3.114,2.305-4.109,4.073s-1.492,3.624-1.492,5.566c0,1.918,0.488,3.752,1.466,5.503
			c0.977,1.75,2.341,3.114,4.091,4.091c1.751,0.978,3.585,1.466,5.504,1.466c1.918,0,3.752-0.488,5.503-1.466
			c1.75-0.977,3.113-2.341,4.091-4.091c0.978-1.751,1.466-3.585,1.466-5.503c0-1.931-0.497-3.783-1.492-5.558
			c-0.996-1.774-2.365-3.135-4.109-4.082C986.878,1188.554,985.059,1188.08,983.166,1188.08z M986.51,1201.19l2.896,0.971
			c-0.456,1.511-1.211,2.668-2.267,3.472c-1.055,0.803-2.313,1.205-3.776,1.205c-2.05,0-3.723-0.672-5.018-2.015
			s-1.942-3.195-1.942-5.557c0-1.547,0.288-2.926,0.863-4.137c0.576-1.211,1.406-2.116,2.491-2.716
			c1.085-0.599,2.299-0.899,3.642-0.899c1.475,0,2.706,0.352,3.695,1.053s1.76,1.808,2.312,3.317l-2.914,0.684
			c-0.335-0.875-0.771-1.511-1.304-1.906s-1.166-0.594-1.897-0.594c-1.091,0-1.984,0.411-2.679,1.232
			c-0.696,0.821-1.044,2.107-1.044,3.857c0,1.751,0.342,3.039,1.025,3.866c0.684,0.828,1.505,1.241,2.464,1.241
			c0.803,0,1.499-0.236,2.086-0.71C985.731,1203.082,986.186,1202.294,986.51,1201.19z"/>
		<path d="M1018.471,1212.269h-5.054v-19.045c-1.847,1.727-4.022,3.003-6.528,3.83v-4.585c1.319-0.432,2.752-1.25,4.299-2.455
			c1.546-1.205,2.607-2.61,3.183-4.218h4.101V1212.269z"/>
		<path d="M1024.659,1206.172l4.892-0.539c0.119,0.995,0.432,1.732,0.935,2.212c0.504,0.479,1.169,0.719,1.996,0.719
			c1.043,0,1.931-0.479,2.662-1.438c0.731-0.959,1.198-2.949,1.402-5.971c-1.271,1.475-2.859,2.212-4.766,2.212
			c-2.074,0-3.863-0.8-5.368-2.4s-2.257-3.684-2.257-6.25c0-2.673,0.794-4.828,2.383-6.465s3.611-2.455,6.069-2.455
			c2.674,0,4.868,1.034,6.582,3.103c1.715,2.068,2.572,5.471,2.572,10.206c0,4.819-0.894,8.297-2.68,10.431
			c-1.787,2.134-4.112,3.201-6.978,3.201c-2.063,0-3.729-0.549-5-1.646C1025.833,1209.993,1025.018,1208.354,1024.659,1206.172z
			 M1036.096,1195.13c0-1.63-0.375-2.896-1.124-3.795c-0.749-0.898-1.616-1.349-2.599-1.349c-0.936,0-1.712,0.369-2.329,1.106
			s-0.926,1.945-0.926,3.623c0,1.703,0.335,2.953,1.007,3.75c0.671,0.798,1.511,1.196,2.518,1.196c0.972,0,1.789-0.384,2.455-1.151
			C1035.763,1197.744,1036.096,1196.616,1036.096,1195.13z"/>
		<path d="M1047.895,1198.043c-1.307-0.551-2.257-1.31-2.851-2.274c-0.593-0.965-0.89-2.023-0.89-3.175
			c0-1.966,0.687-3.59,2.059-4.873c1.373-1.283,3.324-1.925,5.854-1.925c2.505,0,4.451,0.642,5.836,1.925s2.077,2.907,2.077,4.873
			c0,1.224-0.318,2.312-0.954,3.265c-0.635,0.953-1.528,1.682-2.679,2.185c1.462,0.588,2.574,1.445,3.336,2.572
			c0.761,1.127,1.142,2.428,1.142,3.902c0,2.434-0.776,4.412-2.329,5.935s-3.617,2.284-6.195,2.284c-2.398,0-4.395-0.63-5.988-1.889
			c-1.883-1.486-2.824-3.524-2.824-6.114c0-1.427,0.354-2.736,1.062-3.93C1045.257,1199.611,1046.373,1198.69,1047.895,1198.043z
			 M1048.471,1204.248c0,1.391,0.356,2.476,1.069,3.255c0.714,0.779,1.604,1.169,2.671,1.169c1.043,0,1.906-0.375,2.59-1.124
			s1.025-1.831,1.025-3.246c0-1.234-0.349-2.227-1.044-2.977c-0.695-0.749-1.576-1.124-2.644-1.124c-1.234,0-2.155,0.426-2.76,1.277
			C1048.773,1202.33,1048.471,1203.253,1048.471,1204.248z M1048.938,1192.954c0,1.007,0.285,1.792,0.854,2.355
			s1.328,0.846,2.275,0.846c0.959,0,1.727-0.285,2.302-0.854s0.863-1.357,0.863-2.365c0-0.946-0.285-1.705-0.854-2.274
			s-1.321-0.854-2.257-0.854c-0.971,0-1.744,0.288-2.32,0.863C1049.226,1191.245,1048.938,1192.007,1048.938,1192.954z"/>
		<path d="M1071.115,1185.796c2.554,0,4.55,0.912,5.988,2.734c1.714,2.157,2.571,5.736,2.571,10.736
			c0,4.987-0.863,8.572-2.59,10.754c-1.427,1.799-3.416,2.697-5.97,2.697c-2.566,0-4.635-0.985-6.205-2.958
			c-1.57-1.972-2.355-5.488-2.355-10.548c0-4.963,0.863-8.536,2.59-10.718C1066.57,1186.695,1068.561,1185.796,1071.115,1185.796z
			 M1071.115,1189.986c-0.612,0-1.157,0.195-1.637,0.585s-0.852,1.088-1.115,2.095c-0.348,1.307-0.521,3.507-0.521,6.601
			c0,3.093,0.155,5.218,0.468,6.375c0.312,1.157,0.704,1.928,1.178,2.311c0.474,0.384,1.016,0.576,1.628,0.576
			c0.611,0,1.156-0.195,1.636-0.585s0.852-1.088,1.115-2.095c0.348-1.295,0.521-3.489,0.521-6.582c0-3.094-0.156-5.219-0.468-6.376
			c-0.312-1.156-0.704-1.93-1.178-2.319S1071.726,1189.986,1071.115,1189.986z"/>
	</g>
	<g>
		<path d="M309.821,1221.883c2.465,0,4.83,0.619,7.094,1.857c2.264,1.238,4.044,3.006,5.339,5.302s1.942,4.701,1.942,7.216
			c0,2.503-0.635,4.889-1.905,7.16c-1.27,2.271-3.04,4.041-5.311,5.311c-2.271,1.27-4.657,1.905-7.16,1.905s-4.889-0.636-7.16-1.905
			c-2.271-1.27-4.041-3.04-5.311-5.311c-1.27-2.271-1.905-4.657-1.905-7.16c0-2.515,0.647-4.92,1.942-7.216s3.075-4.063,5.339-5.302
			C304.992,1222.502,307.356,1221.883,309.821,1221.883z M309.821,1224.716c-1.977,0-3.875,0.495-5.696,1.483
			s-3.25,2.405-4.288,4.25c-1.039,1.846-1.558,3.782-1.558,5.809c0,2.002,0.51,3.916,1.529,5.743c1.02,1.826,2.443,3.25,4.27,4.27
			s3.741,1.529,5.743,1.529s3.916-0.51,5.743-1.529s3.25-2.443,4.27-4.27c1.02-1.827,1.53-3.741,1.53-5.743
			c0-2.014-0.52-3.947-1.558-5.799c-1.039-1.852-2.468-3.271-4.289-4.26C313.697,1225.211,311.798,1224.716,309.821,1224.716z
			 M313.312,1238.397l3.021,1.014c-0.476,1.576-1.264,2.784-2.365,3.622s-2.415,1.257-3.941,1.257c-2.139,0-3.885-0.7-5.236-2.102
			c-1.352-1.401-2.027-3.334-2.027-5.799c0-1.614,0.3-3.053,0.901-4.316s1.467-2.208,2.599-2.834s2.399-0.938,3.8-0.938
			c1.539,0,2.824,0.366,3.856,1.098c1.032,0.732,1.836,1.887,2.412,3.463l-3.04,0.713c-0.351-0.913-0.804-1.576-1.361-1.989
			s-1.217-0.619-1.98-0.619c-1.139,0-2.071,0.429-2.796,1.285c-0.726,0.857-1.089,2.199-1.089,4.025c0,1.827,0.357,3.172,1.07,4.035
			c0.713,0.863,1.57,1.295,2.571,1.295c0.838,0,1.563-0.247,2.177-0.741C312.499,1240.371,312.974,1239.549,313.312,1238.397z"/>
		<path d="M347.134,1239.843v-4.636h11.973v10.96c-1.164,1.126-2.85,2.118-5.058,2.975c-2.208,0.856-4.445,1.285-6.709,1.285
			c-2.877,0-5.386-0.604-7.525-1.811c-2.14-1.207-3.748-2.934-4.823-5.18c-1.076-2.246-1.614-4.688-1.614-7.329
			c0-2.864,0.601-5.41,1.801-7.638c1.201-2.227,2.959-3.935,5.274-5.123c1.764-0.914,3.959-1.37,6.587-1.37
			c3.416,0,6.083,0.716,8.004,2.148c1.92,1.433,3.156,3.413,3.707,5.939l-5.518,1.032c-0.388-1.351-1.117-2.417-2.187-3.199
			s-2.405-1.173-4.007-1.173c-2.427,0-4.357,0.77-5.79,2.308c-1.433,1.539-2.149,3.823-2.149,6.851c0,3.266,0.726,5.715,2.177,7.348
			c1.451,1.632,3.353,2.448,5.705,2.448c1.164,0,2.33-0.228,3.5-0.685s2.174-1.01,3.012-1.661v-3.49H347.134z"/>
		<path d="M380.296,1239.843l5.386,1.708c-0.826,3.002-2.199,5.232-4.12,6.69c-1.92,1.457-4.357,2.186-7.31,2.186
			c-3.653,0-6.656-1.248-9.008-3.743c-2.353-2.496-3.528-5.909-3.528-10.238c0-4.579,1.183-8.135,3.547-10.669
			c2.365-2.533,5.474-3.8,9.328-3.8c3.365,0,6.099,0.994,8.201,2.983c1.251,1.177,2.189,2.865,2.815,5.067l-5.499,1.313
			c-0.326-1.426-1.004-2.552-2.037-3.378s-2.287-1.238-3.763-1.238c-2.04,0-3.694,0.731-4.964,2.195
			c-1.27,1.464-1.905,3.835-1.905,7.113c0,3.478,0.625,5.955,1.876,7.432s2.878,2.214,4.88,2.214c1.476,0,2.746-0.469,3.81-1.407
			C379.07,1243.333,379.833,1241.857,380.296,1239.843z"/>
		<path d="M388.912,1249.958v-27.513h20.4v4.654h-14.845v6.1h13.813v4.635h-13.813v7.488h15.37v4.636H388.912z"/>
		<path d="M434.482,1249.958h-5.274v-19.874c-1.927,1.802-4.197,3.134-6.813,3.997v-4.785c1.376-0.451,2.872-1.305,4.485-2.563
			c1.614-1.257,2.722-2.724,3.322-4.4h4.279V1249.958z"/>
		<path d="M440.939,1243.596l5.105-0.563c0.125,1.038,0.45,1.808,0.976,2.308c0.526,0.501,1.22,0.751,2.083,0.751
			c1.088,0,2.014-0.5,2.777-1.501s1.251-3.078,1.464-6.23c-1.326,1.538-2.984,2.308-4.973,2.308c-2.165,0-4.032-0.835-5.602-2.505
			c-1.57-1.671-2.355-3.845-2.355-6.521c0-2.79,0.829-5.039,2.487-6.747c1.658-1.708,3.769-2.562,6.334-2.562
			c2.79,0,5.079,1.079,6.869,3.237c1.789,2.158,2.684,5.708,2.684,10.65c0,5.029-0.932,8.658-2.796,10.885
			c-1.864,2.228-4.292,3.341-7.281,3.341c-2.152,0-3.892-0.572-5.217-1.718C442.165,1247.584,441.314,1245.873,440.939,1243.596z
			 M452.875,1232.073c0-1.701-0.391-3.021-1.173-3.96c-0.782-0.938-1.686-1.408-2.712-1.408c-0.976,0-1.786,0.385-2.43,1.154
			c-0.645,0.77-0.967,2.03-0.967,3.782c0,1.776,0.35,3.081,1.051,3.913c0.7,0.832,1.576,1.248,2.627,1.248
			c1.013,0,1.867-0.4,2.562-1.201S452.875,1233.624,452.875,1232.073z"/>
		<path d="M465.188,1235.113c-1.364-0.575-2.355-1.367-2.975-2.374c-0.62-1.007-0.929-2.111-0.929-3.313
			c0-2.052,0.716-3.747,2.149-5.086s3.469-2.008,6.109-2.008c2.615,0,4.645,0.669,6.09,2.008c1.445,1.339,2.167,3.034,2.167,5.086
			c0,1.276-0.332,2.411-0.995,3.406s-1.595,1.755-2.796,2.28c1.526,0.613,2.687,1.508,3.481,2.684
			c0.794,1.176,1.192,2.533,1.192,4.072c0,2.54-0.811,4.604-2.431,6.193s-3.775,2.384-6.465,2.384c-2.502,0-4.585-0.657-6.25-1.971
			c-1.964-1.552-2.946-3.679-2.946-6.381c0-1.489,0.369-2.855,1.107-4.101C462.435,1236.749,463.599,1235.789,465.188,1235.113z
			 M465.789,1241.588c0,1.451,0.372,2.584,1.117,3.396c0.744,0.813,1.673,1.22,2.787,1.22c1.088,0,1.989-0.391,2.703-1.173
			c0.713-0.781,1.07-1.91,1.07-3.387c0-1.289-0.363-2.324-1.089-3.106c-0.726-0.781-1.645-1.173-2.759-1.173
			c-1.289,0-2.249,0.444-2.88,1.332C466.104,1239.586,465.789,1240.55,465.789,1241.588z M466.276,1229.802
			c0,1.052,0.297,1.871,0.892,2.459c0.594,0.588,1.385,0.882,2.374,0.882c1,0,1.801-0.297,2.402-0.892
			c0.601-0.594,0.901-1.417,0.901-2.468c0-0.988-0.297-1.779-0.891-2.374c-0.595-0.594-1.379-0.892-2.355-0.892
			c-1.014,0-1.82,0.301-2.421,0.901S466.276,1228.813,466.276,1229.802z"/>
		<path d="M498.313,1245.06v4.898h-18.486c0.2-1.852,0.801-3.606,1.802-5.265c1.001-1.657,2.978-3.856,5.93-6.596
			c2.377-2.215,3.835-3.717,4.373-4.505c0.726-1.088,1.088-2.164,1.088-3.228c0-1.176-0.316-2.08-0.948-2.712
			s-1.504-0.948-2.618-0.948c-1.101,0-1.977,0.332-2.627,0.995s-1.026,1.764-1.126,3.303l-5.254-0.525
			c0.313-2.902,1.295-4.985,2.946-6.249s3.716-1.896,6.193-1.896c2.715,0,4.848,0.731,6.4,2.195
			c1.551,1.464,2.327,3.284,2.327,5.462c0,1.238-0.222,2.418-0.667,3.537c-0.444,1.12-1.148,2.293-2.111,3.519
			c-0.638,0.813-1.789,1.983-3.453,3.51s-2.718,2.54-3.162,3.04c-0.444,0.501-0.804,0.988-1.079,1.464H498.313z"/>
		<path d="M501.467,1249.958v-5.273h5.273v5.273H501.467z"/>
		<path d="M543.171,1249.958h-6.043l-2.402-6.249h-10.998l-2.271,6.249h-5.893l10.716-27.513h5.875L543.171,1249.958z
			 M532.943,1239.073l-3.791-10.209l-3.716,10.209H532.943z"/>
		<path d="M544.542,1249.958v-27.513h5.273v27.513H544.542z"/>
		<path d="M553.684,1249.958v-27.513h5.273v27.513H553.684z"/>
		<path d="M572.022,1249.958v-27.513h11.692c2.94,0,5.077,0.247,6.409,0.741s2.399,1.373,3.2,2.637s1.201,2.709,1.201,4.336
			c0,2.063-0.607,3.769-1.82,5.113c-1.214,1.346-3.028,2.193-5.442,2.543c1.201,0.701,2.192,1.471,2.974,2.309
			c0.782,0.838,1.836,2.327,3.163,4.467l3.359,5.367h-6.644l-4.016-5.986c-1.427-2.14-2.402-3.488-2.928-4.045
			s-1.083-0.938-1.67-1.145c-0.588-0.206-1.52-0.31-2.796-0.31h-1.126v11.485H572.022z M577.577,1234.081h4.11
			c2.665,0,4.329-0.112,4.992-0.338s1.182-0.613,1.558-1.163c0.375-0.551,0.563-1.239,0.563-2.064c0-0.926-0.247-1.674-0.741-2.243
			c-0.495-0.569-1.192-0.929-2.092-1.079c-0.451-0.063-1.802-0.094-4.054-0.094h-4.335V1234.081z"/>
		<path d="M598.185,1227.325v-4.88h5.273v4.88H598.185z M598.185,1249.958v-19.931h5.273v19.931H598.185z"/>
		<path d="M606.838,1251.271l6.024,0.732c0.1,0.7,0.332,1.182,0.694,1.444c0.5,0.376,1.289,0.563,2.365,0.563
			c1.376,0,2.409-0.206,3.097-0.619c0.463-0.275,0.813-0.72,1.051-1.333c0.163-0.438,0.244-1.245,0.244-2.421v-2.908
			c-1.577,2.151-3.566,3.228-5.968,3.228c-2.678,0-4.798-1.132-6.362-3.396c-1.226-1.789-1.839-4.017-1.839-6.682
			c0-3.341,0.804-5.893,2.411-7.657c1.608-1.764,3.606-2.646,5.996-2.646c2.465,0,4.498,1.082,6.1,3.246v-2.796h4.936v17.885
			c0,2.353-0.194,4.11-0.582,5.273c-0.388,1.164-0.932,2.077-1.633,2.74s-1.636,1.183-2.806,1.558
			c-1.17,0.376-2.649,0.563-4.438,0.563c-3.378,0-5.774-0.579-7.188-1.736c-1.414-1.157-2.121-2.624-2.121-4.4
			C606.819,1251.734,606.826,1251.521,606.838,1251.271z M611.549,1239.58c0,2.114,0.41,3.662,1.229,4.645s1.83,1.474,3.031,1.474
			c1.288,0,2.377-0.504,3.265-1.511c0.888-1.008,1.333-2.499,1.333-4.477c0-2.064-0.425-3.597-1.276-4.598
			c-0.851-1.001-1.927-1.501-3.228-1.501c-1.264,0-2.306,0.49-3.125,1.473S611.549,1237.565,611.549,1239.58z"/>
		<path d="M634.521,1222.445v10.115c1.701-1.989,3.734-2.983,6.099-2.983c1.213,0,2.309,0.225,3.284,0.676
			c0.976,0.45,1.711,1.025,2.205,1.727c0.494,0.7,0.832,1.476,1.014,2.327c0.181,0.851,0.272,2.171,0.272,3.959v11.692h-5.273
			v-10.528c0-2.089-0.1-3.416-0.3-3.979c-0.2-0.563-0.554-1.011-1.061-1.342c-0.506-0.332-1.142-0.497-1.905-0.497
			c-0.876,0-1.658,0.213-2.346,0.638c-0.688,0.426-1.192,1.066-1.511,1.924c-0.319,0.856-0.479,2.124-0.479,3.8v9.984h-5.273
			v-27.513H634.521z"/>
		<path d="M660.346,1230.027v4.204h-3.604v8.032c0,1.626,0.035,2.574,0.104,2.843c0.068,0.27,0.225,0.491,0.469,0.666
			c0.244,0.176,0.541,0.264,0.891,0.264c0.488,0,1.195-0.169,2.121-0.507l0.451,4.091c-1.227,0.525-2.615,0.788-4.167,0.788
			c-0.951,0-1.808-0.159-2.571-0.479c-0.764-0.319-1.323-0.731-1.68-1.238c-0.357-0.507-0.604-1.191-0.741-2.056
			c-0.113-0.612-0.169-1.851-0.169-3.716v-8.688h-2.421v-4.204h2.421v-3.96l5.292-3.078v7.038H660.346z"/>
		<path d="M660.61,1244.271l5.292-0.807c0.225,1.025,0.682,1.805,1.37,2.336c0.688,0.532,1.652,0.798,2.89,0.798
			c1.364,0,2.39-0.25,3.078-0.751c0.462-0.35,0.694-0.819,0.694-1.407c0-0.4-0.125-0.731-0.375-0.994
			c-0.263-0.251-0.851-0.482-1.764-0.695c-4.254-0.938-6.95-1.795-8.088-2.57c-1.577-1.076-2.365-2.571-2.365-4.485
			c0-1.727,0.682-3.178,2.045-4.354c1.364-1.176,3.478-1.764,6.343-1.764c2.728,0,4.754,0.444,6.081,1.332
			c1.326,0.889,2.24,2.202,2.74,3.941l-4.973,0.92c-0.213-0.776-0.617-1.37-1.211-1.783s-1.442-0.619-2.543-0.619
			c-1.389,0-2.383,0.193-2.984,0.581c-0.4,0.275-0.601,0.633-0.601,1.07c0,0.375,0.175,0.694,0.526,0.957
			c0.475,0.351,2.117,0.845,4.926,1.482c2.809,0.639,4.77,1.42,5.883,2.346c1.101,0.938,1.651,2.246,1.651,3.923
			c0,1.826-0.763,3.396-2.29,4.71c-1.526,1.314-3.785,1.971-6.775,1.971c-2.715,0-4.864-0.55-6.446-1.651
			C662.133,1247.656,661.098,1246.161,660.61,1244.271z"/>
		<path d="M691.504,1249.958v-27.513h11.691c2.94,0,5.076,0.247,6.409,0.741c1.332,0.494,2.398,1.373,3.2,2.637
			c0.8,1.264,1.2,2.709,1.2,4.336c0,2.063-0.606,3.769-1.82,5.113c-1.213,1.346-3.027,2.193-5.442,2.543
			c1.201,0.701,2.192,1.471,2.975,2.309s1.836,2.327,3.162,4.467l3.359,5.367h-6.644l-4.016-5.986
			c-1.427-2.14-2.402-3.488-2.928-4.045s-1.082-0.938-1.671-1.145c-0.588-0.206-1.52-0.31-2.796-0.31h-1.126v11.485H691.504z
			 M697.059,1234.081h4.11c2.665,0,4.328-0.112,4.992-0.338c0.662-0.226,1.182-0.613,1.558-1.163
			c0.375-0.551,0.563-1.239,0.563-2.064c0-0.926-0.247-1.674-0.741-2.243s-1.191-0.929-2.093-1.079
			c-0.45-0.063-1.802-0.094-4.054-0.094h-4.335V1234.081z"/>
		<path d="M729.208,1243.614l5.255,0.883c-0.676,1.927-1.743,3.394-3.2,4.4c-1.458,1.008-3.281,1.511-5.471,1.511
			c-3.466,0-6.03-1.132-7.694-3.396c-1.313-1.814-1.971-4.104-1.971-6.869c0-3.303,0.863-5.89,2.59-7.76s3.91-2.806,6.55-2.806
			c2.965,0,5.305,0.979,7.019,2.937c1.715,1.959,2.534,4.958,2.459,8.999h-13.212c0.037,1.564,0.463,2.781,1.276,3.65
			c0.813,0.87,1.826,1.305,3.04,1.305c0.825,0,1.52-0.226,2.083-0.676C728.495,1245.341,728.92,1244.616,729.208,1243.614z
			 M729.508,1238.285c-0.037-1.526-0.432-2.687-1.182-3.481c-0.751-0.795-1.665-1.191-2.74-1.191c-1.151,0-2.103,0.419-2.853,1.257
			c-0.751,0.839-1.12,1.978-1.107,3.416H729.508z"/>
		<path d="M735.647,1244.271l5.293-0.807c0.225,1.025,0.682,1.805,1.37,2.336c0.688,0.532,1.651,0.798,2.89,0.798
			c1.363,0,2.39-0.25,3.078-0.751c0.463-0.35,0.694-0.819,0.694-1.407c0-0.4-0.125-0.731-0.375-0.994
			c-0.264-0.251-0.852-0.482-1.765-0.695c-4.254-0.938-6.95-1.795-8.089-2.57c-1.576-1.076-2.364-2.571-2.364-4.485
			c0-1.727,0.682-3.178,2.046-4.354c1.363-1.176,3.478-1.764,6.343-1.764c2.728,0,4.754,0.444,6.081,1.332
			c1.325,0.889,2.239,2.202,2.739,3.941l-4.973,0.92c-0.213-0.776-0.616-1.37-1.211-1.783c-0.594-0.413-1.442-0.619-2.543-0.619
			c-1.389,0-2.383,0.193-2.983,0.581c-0.401,0.275-0.601,0.633-0.601,1.07c0,0.375,0.175,0.694,0.525,0.957
			c0.476,0.351,2.117,0.845,4.926,1.482c2.809,0.639,4.771,1.42,5.884,2.346c1.101,0.938,1.651,2.246,1.651,3.923
			c0,1.826-0.763,3.396-2.289,4.71c-1.527,1.314-3.785,1.971-6.775,1.971c-2.715,0-4.863-0.55-6.446-1.651
			C737.17,1247.656,736.135,1246.161,735.647,1244.271z"/>
		<path d="M768.885,1243.614l5.255,0.883c-0.676,1.927-1.743,3.394-3.2,4.4c-1.458,1.008-3.281,1.511-5.471,1.511
			c-3.466,0-6.03-1.132-7.694-3.396c-1.313-1.814-1.971-4.104-1.971-6.869c0-3.303,0.863-5.89,2.59-7.76s3.91-2.806,6.55-2.806
			c2.965,0,5.305,0.979,7.019,2.937c1.715,1.959,2.534,4.958,2.459,8.999h-13.212c0.037,1.564,0.463,2.781,1.276,3.65
			c0.813,0.87,1.826,1.305,3.04,1.305c0.825,0,1.52-0.226,2.083-0.676C768.171,1245.341,768.597,1244.616,768.885,1243.614z
			 M769.185,1238.285c-0.037-1.526-0.432-2.687-1.182-3.481c-0.751-0.795-1.665-1.191-2.74-1.191c-1.151,0-2.103,0.419-2.853,1.257
			c-0.751,0.839-1.12,1.978-1.107,3.416H769.185z"/>
		<path d="M782.23,1249.958h-5.273v-19.931h4.898v2.834c0.838-1.339,1.592-2.221,2.262-2.646c0.669-0.425,1.429-0.638,2.28-0.638
			c1.201,0,2.358,0.331,3.472,0.994l-1.633,4.599c-0.889-0.576-1.714-0.863-2.478-0.863c-0.738,0-1.363,0.203-1.876,0.609
			c-0.514,0.407-0.917,1.142-1.211,2.205s-0.441,3.291-0.441,6.682V1249.958z"/>
		<path d="M796.082,1249.958l-8.032-19.931h5.537l3.753,10.172l1.089,3.396c0.287-0.863,0.469-1.433,0.544-1.708
			c0.175-0.563,0.362-1.126,0.563-1.688l3.79-10.172h5.424l-7.919,19.931H796.082z"/>
		<path d="M821.982,1243.614l5.255,0.883c-0.676,1.927-1.743,3.394-3.2,4.4c-1.458,1.008-3.281,1.511-5.471,1.511
			c-3.466,0-6.03-1.132-7.694-3.396c-1.313-1.814-1.971-4.104-1.971-6.869c0-3.303,0.863-5.89,2.59-7.76s3.91-2.806,6.55-2.806
			c2.965,0,5.305,0.979,7.019,2.937c1.715,1.959,2.534,4.958,2.459,8.999h-13.212c0.037,1.564,0.463,2.781,1.276,3.65
			c0.813,0.87,1.826,1.305,3.04,1.305c0.825,0,1.52-0.226,2.083-0.676C821.268,1245.341,821.694,1244.616,821.982,1243.614z
			 M822.282,1238.285c-0.037-1.526-0.432-2.687-1.182-3.481c-0.751-0.795-1.665-1.191-2.74-1.191c-1.151,0-2.103,0.419-2.853,1.257
			c-0.751,0.839-1.12,1.978-1.107,3.416H822.282z"/>
		<path d="M848.558,1249.958h-4.898v-2.928c-0.813,1.139-1.773,1.986-2.881,2.543s-2.224,0.835-3.35,0.835
			c-2.29,0-4.251-0.922-5.884-2.768s-2.449-4.42-2.449-7.723c0-3.379,0.795-5.946,2.384-7.704s3.597-2.637,6.024-2.637
			c2.227,0,4.153,0.926,5.78,2.777v-9.909h5.273V1249.958z M834.483,1239.561c0,2.128,0.294,3.667,0.882,4.617
			c0.851,1.376,2.039,2.064,3.565,2.064c1.214,0,2.246-0.517,3.097-1.549c0.851-1.031,1.276-2.573,1.276-4.626
			c0-2.289-0.413-3.938-1.238-4.944c-0.826-1.008-1.884-1.511-3.172-1.511c-1.251,0-2.299,0.497-3.144,1.491
			C834.905,1236.099,834.483,1237.584,834.483,1239.561z"/>
		<path d="M852.219,1249.958v-5.273h5.273v5.273H852.219z"/>
		<path d="M870.463,1249.958v-27.513h8.313l4.992,18.768l4.936-18.768h8.333v27.513h-5.161v-21.657l-5.462,21.657h-5.349
			l-5.442-21.657v21.657H870.463z"/>
		<path d="M904.921,1236.107l-4.786-0.863c0.538-1.926,1.464-3.353,2.777-4.278c1.314-0.926,3.266-1.389,5.855-1.389
			c2.353,0,4.104,0.278,5.255,0.835s1.961,1.264,2.431,2.121c0.469,0.856,0.703,2.43,0.703,4.72l-0.056,6.155
			c0,1.752,0.084,3.044,0.253,3.876s0.485,1.724,0.948,2.674h-5.218c-0.138-0.351-0.307-0.869-0.507-1.558
			c-0.087-0.313-0.149-0.52-0.188-0.619c-0.9,0.876-1.864,1.532-2.89,1.971c-1.026,0.438-2.121,0.656-3.284,0.656
			c-2.053,0-3.669-0.557-4.852-1.67s-1.773-2.521-1.773-4.223c0-1.126,0.269-2.13,0.807-3.012c0.538-0.883,1.292-1.559,2.262-2.027
			s2.367-0.879,4.194-1.229c2.465-0.463,4.173-0.895,5.123-1.295v-0.525c0-1.014-0.25-1.735-0.75-2.167
			c-0.501-0.432-1.445-0.647-2.834-0.647c-0.938,0-1.67,0.185-2.196,0.553C905.671,1234.534,905.247,1235.183,904.921,1236.107z
			 M911.977,1240.387c-0.675,0.226-1.745,0.494-3.209,0.807c-1.464,0.313-2.421,0.62-2.871,0.92
			c-0.688,0.488-1.032,1.107-1.032,1.858c0,0.738,0.275,1.376,0.826,1.914c0.55,0.538,1.251,0.807,2.102,0.807
			c0.95,0,1.857-0.313,2.721-0.938c0.639-0.475,1.058-1.057,1.258-1.745c0.138-0.45,0.206-1.308,0.206-2.571V1240.387z"/>
		<path d="M939.098,1249.958H934.2v-2.928c-0.813,1.139-1.773,1.986-2.881,2.543s-2.224,0.835-3.35,0.835
			c-2.29,0-4.251-0.922-5.884-2.768s-2.449-4.42-2.449-7.723c0-3.379,0.795-5.946,2.384-7.704s3.597-2.637,6.024-2.637
			c2.227,0,4.153,0.926,5.78,2.777v-9.909h5.273V1249.958z M925.023,1239.561c0,2.128,0.294,3.667,0.882,4.617
			c0.851,1.376,2.039,2.064,3.565,2.064c1.214,0,2.246-0.517,3.097-1.549c0.851-1.031,1.276-2.573,1.276-4.626
			c0-2.289-0.413-3.938-1.238-4.944c-0.826-1.008-1.884-1.511-3.172-1.511c-1.251,0-2.299,0.497-3.144,1.491
			C925.445,1236.099,925.023,1237.584,925.023,1239.561z"/>
		<path d="M954.301,1243.614l5.255,0.883c-0.676,1.927-1.743,3.394-3.2,4.4c-1.458,1.008-3.281,1.511-5.471,1.511
			c-3.466,0-6.03-1.132-7.694-3.396c-1.313-1.814-1.971-4.104-1.971-6.869c0-3.303,0.863-5.89,2.59-7.76s3.91-2.806,6.55-2.806
			c2.965,0,5.305,0.979,7.019,2.937c1.715,1.959,2.534,4.958,2.459,8.999h-13.212c0.037,1.564,0.463,2.781,1.276,3.65
			c0.813,0.87,1.826,1.305,3.04,1.305c0.825,0,1.52-0.226,2.083-0.676C953.587,1245.341,954.013,1244.616,954.301,1243.614z
			 M954.601,1238.285c-0.037-1.526-0.432-2.687-1.182-3.481c-0.751-0.795-1.665-1.191-2.74-1.191c-1.151,0-2.103,0.419-2.853,1.257
			c-0.751,0.839-1.12,1.978-1.107,3.416H954.601z"/>
		<path d="M971.738,1227.325v-4.88h5.273v4.88H971.738z M971.738,1249.958v-19.931h5.273v19.931H971.738z"/>
		<path d="M999.008,1249.958h-5.273v-10.172c0-2.151-0.112-3.544-0.338-4.176s-0.591-1.123-1.098-1.473
			c-0.507-0.351-1.117-0.525-1.83-0.525c-0.913,0-1.732,0.25-2.458,0.75c-0.727,0.501-1.224,1.164-1.492,1.989
			c-0.27,0.826-0.403,2.353-0.403,4.579v9.027h-5.273v-19.931h4.897v2.928c1.739-2.252,3.929-3.378,6.568-3.378
			c1.164,0,2.228,0.209,3.19,0.629c0.964,0.419,1.692,0.954,2.187,1.604s0.838,1.389,1.032,2.214
			c0.194,0.826,0.291,2.009,0.291,3.547V1249.958z"/>
		<path d="M1012.017,1249.958v-27.513h11.691c2.94,0,5.076,0.247,6.409,0.741c1.332,0.494,2.398,1.373,3.2,2.637
			c0.8,1.264,1.2,2.709,1.2,4.336c0,2.063-0.606,3.769-1.82,5.113c-1.213,1.346-3.027,2.193-5.442,2.543
			c1.201,0.701,2.192,1.471,2.975,2.309s1.836,2.327,3.162,4.467l3.359,5.367h-6.644l-4.016-5.986
			c-1.427-2.14-2.402-3.488-2.928-4.045s-1.082-0.938-1.671-1.145c-0.588-0.206-1.52-0.31-2.796-0.31h-1.126v11.485H1012.017z
			 M1017.572,1234.081h4.11c2.665,0,4.328-0.112,4.992-0.338c0.662-0.226,1.182-0.613,1.558-1.163
			c0.375-0.551,0.563-1.239,0.563-2.064c0-0.926-0.247-1.674-0.741-2.243s-1.191-0.929-2.093-1.079
			c-0.45-0.063-1.802-0.094-4.054-0.094h-4.335V1234.081z"/>
		<path d="M1049.722,1243.614l5.255,0.883c-0.676,1.927-1.743,3.394-3.2,4.4c-1.458,1.008-3.281,1.511-5.471,1.511
			c-3.466,0-6.03-1.132-7.694-3.396c-1.313-1.814-1.971-4.104-1.971-6.869c0-3.303,0.863-5.89,2.59-7.76s3.91-2.806,6.55-2.806
			c2.965,0,5.305,0.979,7.019,2.937c1.715,1.959,2.534,4.958,2.459,8.999h-13.212c0.037,1.564,0.463,2.781,1.276,3.65
			c0.813,0.87,1.826,1.305,3.04,1.305c0.825,0,1.52-0.226,2.083-0.676C1049.008,1245.341,1049.434,1244.616,1049.722,1243.614z
			 M1050.022,1238.285c-0.037-1.526-0.432-2.687-1.182-3.481c-0.751-0.795-1.665-1.191-2.74-1.191c-1.151,0-2.103,0.419-2.853,1.257
			c-0.751,0.839-1.12,1.978-1.107,3.416H1050.022z"/>
		<path d="M1057.868,1230.027h4.917v2.928c0.639-1.001,1.502-1.814,2.59-2.439c1.089-0.626,2.296-0.938,3.622-0.938
			c2.314,0,4.279,0.907,5.894,2.721c1.613,1.814,2.421,4.342,2.421,7.582c0,3.328-0.813,5.915-2.44,7.761
			c-1.626,1.846-3.597,2.768-5.911,2.768c-1.102,0-2.1-0.219-2.993-0.656c-0.896-0.438-1.837-1.188-2.825-2.252v10.04h-5.273
			V1230.027z M1063.085,1239.655c0,2.239,0.443,3.894,1.332,4.964c0.889,1.069,1.971,1.604,3.247,1.604
			c1.226,0,2.245-0.491,3.059-1.474c0.813-0.981,1.22-2.593,1.22-4.832c0-2.09-0.419-3.642-1.257-4.654
			c-0.839-1.014-1.877-1.521-3.115-1.521c-1.289,0-2.358,0.497-3.209,1.492C1063.51,1236.229,1063.085,1237.703,1063.085,1239.655z"
			/>
		<path d="M1079.958,1249.958v-5.273h5.273v5.273H1079.958z"/>
		<path d="M1097.021,1239.711c0-1.751,0.432-3.446,1.295-5.086c0.863-1.639,2.086-2.89,3.669-3.753
			c1.582-0.863,3.35-1.295,5.302-1.295c3.015,0,5.486,0.979,7.413,2.937c1.927,1.959,2.89,4.433,2.89,7.423
			c0,3.016-0.973,5.515-2.918,7.497c-1.945,1.983-4.395,2.975-7.348,2.975c-1.826,0-3.568-0.413-5.227-1.238
			c-1.658-0.826-2.918-2.036-3.781-3.632C1097.453,1243.943,1097.021,1242.001,1097.021,1239.711z M1102.425,1239.992
			c0,1.978,0.47,3.491,1.408,4.542s2.096,1.576,3.472,1.576s2.53-0.525,3.463-1.576c0.932-1.051,1.397-2.577,1.397-4.579
			c0-1.952-0.466-3.453-1.397-4.504c-0.933-1.051-2.087-1.576-3.463-1.576s-2.533,0.525-3.472,1.576
			S1102.425,1238.016,1102.425,1239.992z"/>
		<path d="M1117.873,1230.027h2.928v-1.501c0-1.677,0.179-2.928,0.535-3.754c0.356-0.825,1.014-1.498,1.971-2.018
			c0.957-0.519,2.167-0.778,3.631-0.778c1.502,0,2.972,0.225,4.41,0.675l-0.713,3.679c-0.838-0.2-1.646-0.3-2.421-0.3
			c-0.764,0-1.311,0.178-1.642,0.534c-0.332,0.356-0.498,1.042-0.498,2.056v1.407h3.941v4.147h-3.941v15.783h-5.273v-15.783h-2.928
			V1230.027z"/>
		<path d="M1140.452,1249.958v-27.513h5.556v27.513H1140.452z"/>
		<path d="M1154.773,1249.958h-5.273v-19.931h4.898v2.834c0.838-1.339,1.592-2.221,2.262-2.646c0.669-0.425,1.429-0.638,2.28-0.638
			c1.201,0,2.358,0.331,3.472,0.994l-1.633,4.599c-0.889-0.576-1.714-0.863-2.478-0.863c-0.738,0-1.363,0.203-1.876,0.609
			c-0.514,0.407-0.917,1.142-1.211,2.205s-0.441,3.291-0.441,6.682V1249.958z"/>
		<path d="M1174.687,1243.614l5.255,0.883c-0.676,1.927-1.743,3.394-3.2,4.4c-1.458,1.008-3.281,1.511-5.471,1.511
			c-3.466,0-6.03-1.132-7.694-3.396c-1.313-1.814-1.971-4.104-1.971-6.869c0-3.303,0.863-5.89,2.59-7.76s3.91-2.806,6.55-2.806
			c2.965,0,5.305,0.979,7.019,2.937c1.715,1.959,2.534,4.958,2.459,8.999h-13.212c0.037,1.564,0.463,2.781,1.276,3.65
			c0.813,0.87,1.826,1.305,3.04,1.305c0.825,0,1.52-0.226,2.083-0.676C1173.973,1245.341,1174.399,1244.616,1174.687,1243.614z
			 M1174.987,1238.285c-0.037-1.526-0.432-2.687-1.182-3.481c-0.751-0.795-1.665-1.191-2.74-1.191c-1.151,0-2.103,0.419-2.853,1.257
			c-0.751,0.839-1.12,1.978-1.107,3.416H1174.987z"/>
		<path d="M1182.983,1249.958v-5.273h5.273v5.273H1182.983z"/>
	</g>
	<g>
		<path fill="#222223" d="M375.254,461.226v-59.181h11.112v59.181H375.254z"/>
		<path fill="#222223" d="M393.99,461.226v-59.181h10.812l22.524,39.521v-39.521h10.324v59.181H426.5l-22.187-38.593v38.593H393.99z
			"/>
		<path fill="#222223" d="M443.509,441.97l10.812-1.13c0.65,3.902,1.971,6.769,3.96,8.599s4.674,2.745,8.052,2.745
			c3.579,0,6.275-0.814,8.09-2.442s2.722-3.532,2.722-5.712c0-1.399-0.382-2.59-1.145-3.573c-0.764-0.982-2.097-1.837-3.998-2.563
			c-1.302-0.484-4.268-1.345-8.897-2.583c-5.957-1.588-10.136-3.539-12.539-5.854c-3.378-3.256-5.068-7.226-5.068-11.909
			c0-3.014,0.794-5.833,2.384-8.458s3.879-4.623,6.87-5.995c2.99-1.372,6.601-2.059,10.831-2.059c6.907,0,12.106,1.628,15.598,4.885
			c3.492,3.256,5.325,7.603,5.5,13.039l-11.112,0.525c-0.476-3.041-1.496-5.228-3.06-6.56s-3.911-1.998-7.039-1.998
			c-3.229,0-5.757,0.713-7.583,2.139c-1.177,0.916-1.765,2.14-1.765,3.674c0,1.4,0.55,2.598,1.652,3.593
			c1.401,1.266,4.805,2.583,10.211,3.956s9.404,2.792,11.994,4.259c2.59,1.467,4.618,3.472,6.082,6.015
			c1.464,2.543,2.196,5.686,2.196,9.426c0,3.391-0.876,6.567-2.628,9.527c-1.752,2.961-4.229,5.161-7.433,6.6
			s-7.195,2.16-11.975,2.16c-6.958,0-12.301-1.729-16.03-5.188C446.462,453.63,444.234,448.59,443.509,441.97z"/>
		<path fill="#222223" d="M494.53,461.226v-59.181h40.806v10.012h-29.694v13.12h27.63v9.971h-27.63v16.107h30.746v9.971H494.53z"/>
		<path fill="#222223" d="M542.772,461.226v-59.181h23.388c5.881,0,10.154,0.532,12.82,1.595c2.666,1.063,4.799,2.954,6.401,5.672
			c1.601,2.718,2.402,5.827,2.402,9.325c0,4.44-1.214,8.108-3.641,11c-2.428,2.894-6.057,4.717-10.887,5.47
			c2.403,1.507,4.386,3.163,5.95,4.965c1.564,1.803,3.673,5.006,6.326,9.608l6.72,11.545h-13.289l-8.034-12.878
			c-2.853-4.602-4.805-7.501-5.856-8.699c-1.051-1.197-2.165-2.019-3.341-2.463c-1.176-0.444-3.041-0.666-5.593-0.666h-2.252v24.706
			H542.772z M553.884,427.073h8.221c5.331,0,8.659-0.242,9.986-0.727c1.326-0.484,2.365-1.318,3.116-2.503
			c0.751-1.184,1.126-2.665,1.126-4.44c0-1.992-0.495-3.599-1.483-4.824c-0.989-1.225-2.384-1.999-4.186-2.321
			c-0.901-0.134-3.604-0.202-8.109-0.202h-8.672V427.073z"/>
		<path fill="#222223" d="M607.57,461.226v-49.169h-16.33v-10.012h43.735v10.012h-16.293v49.169H607.57z"/>
		<path fill="#222223" d="M669.743,461.226v-49.169h-16.33v-10.012h43.735v10.012h-16.293v49.169H669.743z"/>
		<path fill="#222223" d="M697.602,431.999c0-6.028,0.838-11.088,2.515-15.179c1.251-3.014,2.959-5.718,5.124-8.114
			c2.165-2.395,4.536-4.171,7.114-5.329c3.428-1.561,7.382-2.341,11.863-2.341c8.109,0,14.596,2.705,19.464,8.114
			c4.867,5.409,7.302,12.932,7.302,22.566c0,9.554-2.415,17.029-7.245,22.425c-4.83,5.396-11.287,8.094-19.371,8.094
			c-8.184,0-14.691-2.685-19.521-8.054C700.016,448.812,697.602,441.418,697.602,431.999z M709.051,431.595
			c0,6.701,1.439,11.781,4.317,15.239c2.878,3.458,6.532,5.188,10.962,5.188c4.43,0,8.065-1.716,10.906-5.147
			c2.84-3.432,4.261-8.579,4.261-15.441c0-6.782-1.383-11.841-4.148-15.179c-2.766-3.337-6.438-5.006-11.018-5.006
			c-4.58,0-8.271,1.689-11.074,5.066C710.453,419.693,709.051,424.786,709.051,431.595z"/>
		<path fill="#222223" d="M787.253,461.226v-49.169h-16.33v-10.012h43.735v10.012h-16.293v49.169H787.253z"/>
		<path fill="#222223" d="M818.791,461.226v-59.181h11.112v23.293h21.773v-23.293h11.112v59.181h-11.112v-25.876h-21.773v25.876
			H818.791z"/>
		<path fill="#222223" d="M870.863,461.226v-59.181h11.111v59.181H870.863z"/>
		<path fill="#222223" d="M886.67,441.97l10.812-1.13c0.65,3.902,1.971,6.769,3.96,8.599c1.99,1.83,4.674,2.745,8.053,2.745
			c3.579,0,6.275-0.814,8.09-2.442s2.722-3.532,2.722-5.712c0-1.399-0.382-2.59-1.145-3.573c-0.764-0.982-2.097-1.837-3.998-2.563
			c-1.302-0.484-4.268-1.345-8.897-2.583c-5.956-1.588-10.136-3.539-12.538-5.854c-3.379-3.256-5.068-7.226-5.068-11.909
			c0-3.014,0.794-5.833,2.384-8.458c1.589-2.624,3.879-4.623,6.87-5.995c2.99-1.372,6.601-2.059,10.83-2.059
			c6.908,0,12.107,1.628,15.599,4.885s5.324,7.603,5.499,13.039l-11.111,0.525c-0.476-3.041-1.496-5.228-3.06-6.56
			c-1.564-1.332-3.911-1.998-7.039-1.998c-3.229,0-5.757,0.713-7.583,2.139c-1.177,0.916-1.765,2.14-1.765,3.674
			c0,1.4,0.55,2.598,1.651,3.593c1.401,1.266,4.806,2.583,10.212,3.956c5.405,1.373,9.403,2.792,11.994,4.259
			c2.59,1.467,4.617,3.472,6.081,6.015c1.464,2.543,2.196,5.686,2.196,9.426c0,3.391-0.876,6.567-2.628,9.527
			c-1.752,2.961-4.229,5.161-7.433,6.6c-3.204,1.439-7.196,2.16-11.976,2.16c-6.958,0-12.301-1.729-16.03-5.188
			C889.623,453.63,887.396,448.59,886.67,441.97z"/>
		<path fill="#222223" d="M956.276,461.226v-58.697h11.112v48.726h27.63v9.971H956.276z"/>
		<path fill="#222223" d="M999.526,461.226v-59.181h11.111v59.181H999.526z"/>
		<path fill="#222223" d="M1018.261,461.226v-59.181h10.812l22.524,39.521v-39.521h10.324v59.181h-11.15l-22.186-38.593v38.593
			H1018.261z"/>
		<path fill="#222223" d="M1070.596,461.226v-59.181h40.807v10.012h-29.695v13.12h27.63v9.971h-27.63v16.107h30.746v9.971H1070.596z
			"/>
	</g>
	<path fill="#E51E25" d="M116.609,1052.366l114.364-187.945l-24.031-22.63l-0.958-13.78h91.297l30.753,27.556l20.184-27.556H461.62
		l68.239,69.869h140.306l-25.947-34.444c0,0-12.491-13.768-6.724-25.582c5.764-11.813,19.219-11.813,19.219-11.813h146.08
		l68.724,70.365h206.133l92.021,94.222v72.384l-1053.054-0.987"/>
	<polygon fill="#C1BE31" points="1199.036,885.508 1186.205,840.444 1229.381,861.188 1265.703,816.707 1273.436,865.316 
		1330.848,841.575 1298.765,884.4 1344.097,907.145 1278.961,916.187 1287.783,981.759 1243.48,929.716 1199.461,981.759 
		1204.449,920.864 1161.916,937.67 	"/>
	<path fill="#FFFFFF" d="M1232.242,888.911l-807.209-0.349c-20.689,30.471-54.164,103.114-71.789,129.073
		c0-27.805-1.761-98.511-1.761-130.875l-83.497,0.349v20.028h49.942l-72.487,128.565h-29.806v17.502h79.331v-17.502h-23.378
		c14.061-23.763,41.057-72.408,56.737-98.936c0,27.513,5.289,85.688,5.289,116.438h21.831
		c22.885-32.711,51.858-96.146,68.08-120.026c0,25.805,1.762,74.918,1.762,101.519h-18.692v18.508H512.5c0,0,0-5.441,0-12.472
		c0-7.031-10.581-8.159-10.581-8.159v-50.73h-31.664v14.094h8.505v38.76H450.19l-3.51-127.56h268.167
		c-2.828,4.317-5.349,9.621-6.316,15.854c-9.025,58.368,100.072,46.27,100.878,82.876c0.354,15.898-16.346,25.232-38.605,25.232
		c-17.634,0-35.68-23.035-37.824-30.194c-2.152-7.163-2.683-12.44-2.683-12.44h-19.021l-0.007,64.622h19.635c0,0,0-10.313,0-16.539
		c10.596,10.799,28.774,18.177,45.173,18.177c32.661,0,61.107-13.427,60.009-48.598c-1.09-34.883-25.044-41.964-54.415-52.336
		c0,0-46.466-10.197-46.466-25.395c0-13.414,16.934-21.122,18.671-21.26h464.798L1232.242,888.911z"/>
	<path fill="#FFFFFF" d="M599.961,1015.047c0-24.712-7.581-37.238-25.994-37.238c-13.878,0-18.464,1.671-24.26,4.969
		c0,0-8.48-1.795-13.435-1.802c-4.943-0.005-17.681,1.802-17.681,1.802v14.084h10.913v37.91h-9.032v18.216h39.905v-18.216h-9.479
		c0-11.949,0-17.849,0-22.676c0-4.824,2.795-16.065,12.513-16.065c4.634,0,15.157,0,15.157,19.017v37.81h29.082v-18.229
		c0,0-3.095,0-7.688,0C599.961,1025.606,599.961,1015.047,599.961,1015.047z"/>
	<g>
		<path fill="#FFFFFF" d="M642.47,1031.623c11.961-7.429,47.42-19.588,47.42-19.588s-0.274-21.103-21.986-30.947
			c-11.723-5.315-56.603-7.316-55.231,38.263c0.448,14.925,9.064,34.046,41.916,33.575h32.512v-18.221h-32.512
			C649.996,1034.705,645.9,1033.244,642.47,1031.623z M640.426,1002.19c14.099-10.401,21.708,1.97,21.708,1.97l-25.554,11.813
			C636.58,1015.973,634.536,1006.533,640.426,1002.19z"/>
	</g>
	<path fill="#FFFFFF" d="M878.367,1027.281l0.021-30.275h17.688v-18.222h-17.688l0.004-17.261H855.24v17.261h-8.685v18.222h8.685
		v29.698v-0.014c-0.087,2.845-0.188,15.483,7.223,23.05c7.75,7.905,30.443,5.115,33.369,4.553l-0.058-18.143
		c-5.319,0.31-13.076,0.527-15.172-1.607C878.063,1031.958,878.367,1027.511,878.367,1027.281z"/>
	<path fill="#FFFFFF" d="M503.023,971.405c0,0.994-0.788,1.801-1.759,1.801h-21.758c-0.976,0-1.762-0.807-1.762-1.801v-19.47
		c0-0.993,0.787-1.802,1.762-1.802h21.758c0.971,0,1.759,0.809,1.759,1.802V971.405z"/>
	<g>
		<path fill="#FFFFFF" d="M938.315,976.871c-22.156,0-40.115,18.39-40.115,41.077c0,22.687,17.959,41.076,40.115,41.076
			c22.159,0,40.118-18.39,40.118-41.076C978.433,995.261,960.474,976.871,938.315,976.871z M938.315,1033.702
			c-8.491,0-15.389-7.054-15.389-15.754c0-8.701,6.897-15.758,15.389-15.758c8.501,0,15.391,7.057,15.391,15.758
			C953.706,1026.648,946.816,1033.702,938.315,1033.702z"/>
	</g>
	<path fill="#FFFFFF" d="M1047.452,988.814c-2.29-9.236-10.376-15.105-18.063-13.111c-2.096,0.54-3.912,1.64-5.45,3.086
		l-0.028-0.005c0,0-8.718,5.862-12.08,6.26c-3.886,0.461-1.839-4.565-3.531-5.062h-22.523v17.694h9.522v36.79H984.94v18.738h41.386
		v-18.738h-9.643v-29.146c0,0,2.275-2.775,5.334-2.856c0.104,0.025,0.304,0.006,0.44,0.011c3.614,5.298,9.498,8.138,15.182,6.665
		C1045.342,1007.154,1049.73,998.048,1047.452,988.814z"/>
	<path fill="#FFFFFF" d="M1170.625,1036.777c0-9.024,0-19.582,0-19.582c0-24.712-2.622-36.896-24.239-37.237
		c-12.032-0.188-17.54,4.285-22.566,7.627c-3.524-5.025-9.387-7.603-19.122-7.757c-13.89-0.22-14.95,1.67-20.747,4.967
		c0,0-8.479-1.795-13.427-1.8c-4.955-0.009-17.695,1.8-17.695,1.8v14.086h10.917v37.909h-9.032v18.215h39.905v-18.215h-9.48
		c0-11.948,0-17.849,0-22.673c0-4.827,2.796-16.069,12.514-16.069c4.644,0,9.881,0,9.881,19.018v37.81l21.584-0.211l-0.184-37.599
		c0-3.974-0.087-7.595-0.285-10.924c1.776-4.137,5.045-7.961,10.7-7.961c4.637,0,9.88,0,9.88,19.015v37.81h36.113v-18.228
		C1185.341,1036.777,1175.211,1036.777,1170.625,1036.777z"/>
</g>
<g id="Calque_6">
	<g>
		<path d="M660.981,781.153l5.56,1.763c-0.853,3.1-2.27,5.401-4.252,6.905c-1.982,1.505-4.497,2.257-7.544,2.257
			c-3.771,0-6.87-1.288-9.298-3.864s-3.642-6.099-3.642-10.566c0-4.727,1.221-8.396,3.661-11.012
			c2.44-2.614,5.649-3.922,9.627-3.922c3.474,0,6.295,1.026,8.464,3.079c1.292,1.214,2.26,2.958,2.906,5.23l-5.676,1.355
			c-0.336-1.472-1.036-2.634-2.102-3.486s-2.36-1.278-3.884-1.278c-2.104,0-3.813,0.755-5.123,2.266
			c-1.311,1.512-1.966,3.959-1.966,7.342c0,3.59,0.646,6.146,1.937,7.67c1.291,1.524,2.97,2.286,5.036,2.286
			c1.523,0,2.835-0.484,3.933-1.453C659.715,784.756,660.503,783.232,660.981,781.153z"/>
		<path d="M695.48,791.594h-6.236l-2.479-6.45h-11.351l-2.344,6.45h-6.082l11.06-28.396h6.063L695.48,791.594z M684.924,780.359
			l-3.913-10.537l-3.835,10.537H684.924z"/>
		<path d="M695.482,782.354l5.578-0.542c0.336,1.872,1.018,3.247,2.044,4.125c1.026,0.879,2.411,1.317,4.154,1.317
			c1.847,0,3.238-0.391,4.175-1.172c0.936-0.781,1.404-1.694,1.404-2.741c0-0.671-0.197-1.242-0.591-1.714
			c-0.395-0.471-1.082-0.881-2.063-1.229c-0.671-0.232-2.201-0.646-4.59-1.24c-3.074-0.762-5.23-1.697-6.47-2.809
			c-1.743-1.563-2.615-3.467-2.615-5.714c0-1.446,0.41-2.799,1.23-4.058c0.819-1.26,2.001-2.218,3.544-2.877
			c1.543-0.658,3.406-0.987,5.589-0.987c3.563,0,6.246,0.781,8.048,2.344s2.747,3.647,2.838,6.256l-5.733,0.252
			c-0.246-1.459-0.772-2.509-1.579-3.147c-0.807-0.64-2.018-0.959-3.632-0.959c-1.666,0-2.97,0.343-3.912,1.026
			c-0.607,0.439-0.911,1.027-0.911,1.763c0,0.672,0.284,1.247,0.853,1.725c0.724,0.606,2.479,1.239,5.269,1.897
			c2.789,0.659,4.853,1.34,6.188,2.044c1.337,0.704,2.383,1.666,3.138,2.886c0.756,1.221,1.134,2.729,1.134,4.523
			c0,1.627-0.452,3.15-1.356,4.571c-0.903,1.42-2.182,2.476-3.835,3.167c-1.653,0.69-3.713,1.036-6.179,1.036
			c-3.59,0-6.347-0.83-8.271-2.489C697.005,787.949,695.856,785.531,695.482,782.354z"/>
		<path d="M720.354,782.354l5.578-0.542c0.336,1.872,1.017,3.247,2.044,4.125c1.026,0.879,2.411,1.317,4.154,1.317
			c1.847,0,3.238-0.391,4.175-1.172c0.936-0.781,1.404-1.694,1.404-2.741c0-0.671-0.197-1.242-0.591-1.714
			c-0.395-0.471-1.082-0.881-2.063-1.229c-0.672-0.232-2.201-0.646-4.591-1.24c-3.073-0.762-5.229-1.697-6.469-2.809
			c-1.743-1.563-2.615-3.467-2.615-5.714c0-1.446,0.41-2.799,1.23-4.058c0.819-1.26,2.001-2.218,3.544-2.877
			c1.543-0.658,3.406-0.987,5.588-0.987c3.564,0,6.247,0.781,8.049,2.344c1.801,1.563,2.747,3.647,2.838,6.256l-5.734,0.252
			c-0.245-1.459-0.771-2.509-1.578-3.147c-0.808-0.64-2.018-0.959-3.632-0.959c-1.666,0-2.971,0.343-3.913,1.026
			c-0.606,0.439-0.91,1.027-0.91,1.763c0,0.672,0.284,1.247,0.853,1.725c0.723,0.606,2.479,1.239,5.269,1.897
			c2.789,0.659,4.852,1.34,6.188,2.044s2.383,1.666,3.138,2.886c0.756,1.221,1.134,2.729,1.134,4.523
			c0,1.627-0.452,3.15-1.356,4.571c-0.904,1.42-2.183,2.476-3.835,3.167c-1.653,0.69-3.713,1.036-6.179,1.036
			c-3.591,0-6.347-0.83-8.271-2.489C721.877,787.949,720.728,785.531,720.354,782.354z"/>
		<path d="M746.678,791.594v-28.396h21.056v4.804h-15.322v6.295h14.257v4.784h-14.257v7.729h15.864v4.784H746.678z"/>
		<path d="M777.943,791.594v-23.592h-8.426v-4.804h22.565v4.804h-8.406v23.592H777.943z"/>
		<path d="M800.588,791.594v-23.592h-8.426v-4.804h22.565v4.804h-8.406v23.592H800.588z"/>
		<path d="M816.84,791.594v-28.396h21.056v4.804h-15.322v6.295h14.257v4.784h-14.257v7.729h15.864v4.784H816.84z"/>
	</g>
</g>
<g id="Calque_8">
	
		<line fill="none" stroke="#2E2E2F" stroke-width="14.1732" stroke-miterlimit="10" x1="636.282" y1="191.837" x2="742.949" y2="114.504"/>
	
		<line fill="none" stroke="#2E2E2F" stroke-width="14.1732" stroke-miterlimit="10" x1="737.949" y1="114.504" x2="841.282" y2="195.837"/>
	
		<line fill="none" stroke="#2E2E2F" stroke-width="14.1732" stroke-miterlimit="10" x1="805.282" y1="185.504" x2="805.282" y2="221.504"/>
	
		<line fill="none" stroke="#2E2E2F" stroke-width="14.1732" stroke-miterlimit="10" x1="668.948" y1="186.504" x2="668.948" y2="222.504"/>
</g>
</svg>
