<?xml version="1.0" encoding="utf-8"?>
<!-- Generator: Adobe Illustrator 16.0.0, SVG Export Plug-In . SVG Version: 6.00 Build 0)  -->
<!DOCTYPE svg PUBLIC "-//W3C//DTD SVG 1.0//EN" "http://www.w3.org/TR/2001/REC-SVG-20010904/DTD/svg10.dtd">
<svg version="1.0" id="Layer_1" xmlns="http://www.w3.org/2000/svg" xmlns:xlink="http://www.w3.org/1999/xlink" x="0px" y="0px"
	 width="221.248px" height="39.334px" viewBox="0 0 221.248 39.334" enable-background="new 0 0 221.248 39.334"
	 xml:space="preserve">
<path fill="#0072BC" d="M211.005,19.795l9.112-11.134c1.228-1.5,1.478-3.572,0.644-5.321c-0.831-1.74-2.587-2.846-4.513-2.846
	c-0.01,0-0.019,0-0.028,0l-12.279,0.07c-1.489,0.009-2.897,0.681-3.841,1.833l-1.67,2.04l-1.671-2.041
	c-0.943-1.152-2.351-1.823-3.84-1.832l-12.279-0.07c-0.373-0.003-0.739,0.05-1.098,0.129c-0.486-0.157-1.001-0.243-1.532-0.243
	h-21.676c-1.849,0-3.444,1.015-4.31,2.506c-2.341-1.624-5.151-2.412-7.815-2.412h-18.125c-0.992,0-1.912,0.298-2.689,0.796
	c-0.791-0.518-1.726-0.829-2.728-0.829H99.25c-1.809,0-3.423,0.968-4.303,2.453C91.894,1.021,88.355,0,84.667,0
	c-5.274,0-10.059,2.098-13.595,5.489l-0.531-1.645c-0.667-2.064-2.588-3.463-4.758-3.463H43.861c-0.511,0-0.994,0.099-1.458,0.241
	c-0.12-0.01-0.238-0.026-0.359-0.027L31.466,0.5c-1.742-0.029-3.346,0.865-4.271,2.327l-3.298,5.214l-3.573-5.375
	c-0.918-1.381-2.46-2.217-4.119-2.232L5.045,0.333C3.2,0.275,1.496,1.318,0.611,2.938s-0.805,3.594,0.207,5.138l19,28.979
	c0.925,1.41,2.498,2.258,4.182,2.258c0.017,0,0.034,0,0.051,0c1.703-0.017,3.281-0.901,4.185-2.344l10.625-16.951v14.062
	c0,2.761,2.239,5,5,5h21.922c2.169,0,4.091-1.399,4.758-3.463l0.563-1.742c3.533,3.374,8.305,5.461,13.563,5.461
	c5.839,0,11.339-2.57,15.088-7.052c0.078-0.094,0.133-0.198,0.204-0.296v2.084c0,2.761,2.239,5,5,5h10
	c0.015,0,0.028-0.004,0.043-0.004l11.077-0.053c0.001,0,0.003,0,0.005,0h10.25c1.231,0,2.358-0.445,3.229-1.183
	c0.896,0.775,2.054,1.218,3.271,1.218h12c0.236,0,0.469-0.019,0.698-0.051c0.263,0.042,0.527,0.081,0.802,0.081h21.676
	c0.434,0,0.853-0.07,1.259-0.176c0.432,0.121,0.883,0.188,1.345,0.188c0.01,0,0.019,0,0.028,0l12.291-0.07
	c1.489-0.009,2.897-0.681,3.841-1.833l1.657-2.024l1.656,2.024c0.942,1.153,2.351,1.825,3.841,1.833l12.291,0.07
	c0.01,0,0.019,0,0.028,0c1.926,0,3.683-1.107,4.513-2.847c0.834-1.749,0.583-3.822-0.645-5.321L211.005,19.795z M99.501,25.583
	l-5.763-5.912l0.425-0.415c0.895,0.755,2.031,1.185,3.221,1.185h2.575v5.709C99.817,25.956,99.674,25.761,99.501,25.583z"/>
<path fill="#FFFFFF" d="M217.309,4.989L203.73,5.066l-5.3,6.475l-5.302-6.475l-13.578-0.077l12.119,14.808l-12.117,14.799
	l13.59-0.078l5.288-6.461l5.287,6.461l13.59,0.078l-12.118-14.799L217.309,4.989z M215.187,33.584l-10.992-0.063l-5.764-7.043
	l-5.765,7.043l-10.992,0.063l11.289-13.788L181.672,6l10.98,0.063l5.778,7.056l5.776-7.056L215.188,6l-11.291,13.796L215.187,33.584
	z"/>
<path fill="#FFFFFF" d="M69.125,14.098l-2.978-9.217H43.361v29.697h22.786l2.978-9.217H52.578V23.34h8.313v-7.475h-8.313v-1.768
	H69.125z M59.891,16.866v5.475h-8.313v4.021H67.75l-2.331,7.217H44.361V5.881h21.058l2.331,7.217H51.578v3.768H59.891z"/>
<path fill="#FFFFFF" d="M164.959,25.361V23.34h8.219v-7.475h-8.219v-1.767h16.36l-2.944-9.217h-22.541v29.697h22.541l2.944-9.217
	H164.959z M177.645,33.578h-20.811V5.881h20.811l2.306,7.217h-15.991v3.767h8.219v5.475h-8.219v4.021h15.991L177.645,33.578z"/>
<path fill="#FFFFFF" d="M151.987,19.521c1.478-2.016,0.868-6.548,0.845-6.712c-0.645-7.739-8.266-7.833-8.622-7.833h-0.001h-18.625
	v29.539h11.25V13.725h3.849c0.951,0.665,0.906,1.42,0.904,1.445l-0.008,0.071l0.013,0.071c0.175,0.994,0.058,1.744-0.349,2.229
	c-0.537,0.64-1.521,0.735-2.06,0.736c-0.365,0-0.624-0.042-0.641-0.044l-0.584-0.098v9.11l4.599,7.305h13.13l-6.796-12.128
	C150.729,21.332,151.94,19.588,151.987,19.521z M153.98,33.549h-10.87l-4.151-6.594v-7.684c0.843,0.028,2.225-0.104,3.05-1.088
	c0.598-0.712,0.791-1.718,0.577-2.991c0.007-0.328-0.076-1.494-1.483-2.39l-0.123-0.078h-5.146v20.789h-9.25V5.975h17.647
	c0.72,0,7.044,0.194,7.607,6.944c0.166,1.196,0.371,4.606-0.667,6.022c-0.013,0.019-1.331,1.909-3.187,2.836l-0.469,0.234
	L153.98,33.549z"/>
<path fill="#FFFFFF" d="M98.834,4.942l-2.053,11h7.677V34.57h11V15.942h7.676l-2.053-11H98.834z M114.459,14.942V33.57h-9V14.942
	h-7.473l1.68-9h20.586l1.68,9H114.459z"/>
<path fill="#FFFFFF" d="M84.667,13.881c2.007,0,3.842,1.017,4.908,2.72l0.329,0.525l6.828-6.662l-0.288-0.354
	C93.548,6.544,89.255,4.5,84.667,4.5C76.304,4.5,69.5,11.304,69.5,19.667s6.804,15.167,15.167,15.167
	c4.503,0,8.745-1.982,11.637-5.439l0.29-0.346l-6.681-6.854l-0.338,0.539c-1.066,1.703-2.901,2.72-4.908,2.72
	c-3.19,0-5.786-2.596-5.786-5.786S81.477,13.881,84.667,13.881z M77.881,19.667c0,3.742,3.044,6.786,6.786,6.786
	c2.142,0,4.117-0.987,5.397-2.67l5.178,5.312c-2.691,3.018-6.52,4.74-10.576,4.74c-7.812,0-14.167-6.355-14.167-14.167
	S76.855,5.5,84.667,5.5c4.134,0,8.011,1.777,10.708,4.891l-5.302,5.173c-1.28-1.69-3.259-2.683-5.407-2.683
	C80.925,12.881,77.881,15.925,77.881,19.667z"/>
<path fill="#FFFFFF" d="M23.991,16.309L16.43,4.937L4.069,4.825l19.94,30.414L42.898,5.104L31.147,4.998L23.991,16.309z
	 M41.102,6.087L23.991,33.386L5.931,5.842l9.959,0.09l8.121,12.215l7.684-12.145L41.102,6.087z"/>
</svg>
