<svg xmlns="http://www.w3.org/2000/svg" width="400" height="293.24051">
  <defs>
    <clipPath id="a">
      <path d="M0 373.008h508.808V0H0v373.008z"/>
    </clipPath>
  </defs>
  <g clip-path="url(#a)" transform="matrix(0.78615116,0,0,-0.78615116,0,293.24051)">
    <path fill="#2b2b2b" d="M500.1109 373.0078H8.6979c-4.804 0-8.698-3.895-8.698-8.698v-10.595h95.405c1.041 0 2.669.33 5.14-2.898 2.335-3.052 17.544-21.756 18.994-23.733 1.449-1.976 4.218-3.03 8.039-3.03h254.607c3.822 0 6.589 1.054 8.039 3.03 1.449 1.977 16.658 20.681 18.994 23.733 2.471 3.228 4.1 2.898 5.14 2.898h94.45v10.595c0 4.803-3.894 8.698-8.697 8.698"/>
    <path fill="#383838" d="M88.8487 353.7148h6.556c1.041 0 2.669.33 5.14-2.898 2.335-3.052 17.544-21.756 18.994-23.733 1.45-1.976 4.218-3.03 8.039-3.03h254.607c3.822 0 6.589 1.054 8.039 3.03 1.45 1.977 16.659 20.681 18.995 23.733 2.47 3.228 4.099 2.898 5.139 2.898h94.45V8.6978c0-4.803-3.894-8.698-8.697-8.698H8.6987c-4.805 0-8.699 3.895-8.699 8.698v345.017h88.849z"/>
    <path fill="#2d2d2d" d="M115.6016 1.0001v311.437c0 1.007.9 1.831 2 1.831h271.439c1.1 0 2-.824 2-1.831V1.0001"/>
    <path fill="#383838" d="M118.4285 1.0001v309.176c0 .999.883 1.817 1.963 1.817h266.444c1.08 0 1.963-.818 1.963-1.817V1.0001"/>
    <path fill="#2b2b2b" d="M115.6016 115.0469c0-20.962-9.322-37.955-30.325-37.955-21.002 0-30.324 16.993-30.324 37.955s14.007 37.955 30.324 37.955 30.325-16.993 30.325-37.955"/>
    <path fill="#3f3f3f" d="M103.0406 161.2256c-38.583 0-69.861 31.277-69.861 69.86s31.278 69.862 69.861 69.862h302.215c38.584 0 69.861-31.279 69.861-69.862s-31.277-69.86-69.861-69.86h-302.215z"/>
    <path fill="#e8e2e9" d="M19.3721 335.4072h3.359v5.41l6.08-5.41h3.343v9.05h-3.359v-5.41l-6.08 5.41h-3.343v-9.05zm13.1553 0h3.359v4.291l5.054-4.291h3.996l-5.448 4.657 5.355 4.393h-3.996l-4.961-4.011v4.011h-3.359v-9.05zm-13.7153 6.5313v2.519h-9.796c-1.707.03-2.8-1.295-2.8-2.893 0-1.597 1.049-2.924 2.8-2.892h6.204c.232 0 .42-.167.42-.373 0-.207-.188-.374-.42-.374h-8.911v-2.518h9.797c1.706-.031 2.799 1.295 2.799 2.892s-1.049 2.924-2.799 2.892h-6.204c-.232 0-.42.167-.42.373 0 .207.188.374.42.374h8.91z"/>
    <path fill="#383838" d="M403.065 257.9707c14.849 0 26.885-12.036 26.885-26.885 0-14.847-12.036-26.885-26.885-26.885H105.231c-14.849 0-26.885 12.038-26.885 26.885 0 14.849 12.036 26.885 26.885 26.885h297.834z"/>
    <path fill="#2d2d2d" d="M403.065 204.201H105.231v53.77h297.834v-53.77z"/>
    <path fill="#494949" d="M257.4634 324.0537h124.722c3.821 0 6.589 1.054 8.039 3.03 1.449 1.977 16.658 20.681 18.994 23.733 2.471 3.228 4.099 2.898 5.14 2.898h6.555v7.315h-28.334c-1.04 0-2.669.329-5.139-2.9-2.335-3.051-11.597-14.76-13.048-16.737-1.45-1.977-4.217-3.031-8.039-3.031h-222.944c-3.822 0-6.59 1.054-8.04 3.031-1.449 1.977-10.712 13.686-13.047 16.737-2.471 3.229-4.099 2.9-5.139 2.9h-28.335v-7.315h6.556c1.041 0 2.669.33 5.141-2.898 2.335-3.052 17.544-21.756 18.993-23.733 1.45-1.976 4.218-3.03 8.04-3.03h129.885zM79.096 361.029h3.361v-7.315h-3.361v7.315zm-9.554 0h3.361v-7.315h-3.361v7.315zm-9.555 0h3.361v-7.315h-3.361v7.315zm-9.555 0h3.361v-7.315h-3.361v7.315zm-9.554 0h3.36v-7.315h-3.36v7.315zm-9.555 0h3.36v-7.315h-3.36v7.315zm-9.555 0h3.361v-7.315h-3.361v7.315zm-9.555 0h3.361v-7.315h-3.361v7.315zm-12.213 0h6.019v-7.315H0v7.315zm429.712-7.314h-3.361v7.315h3.361v-7.315zm9.555 0h-3.361v7.315h3.361v-7.315zm9.555 0h-3.361v7.315h3.361v-7.315zm9.555 0h-3.361v7.315h3.361v-7.315zm9.554 0h-3.361v7.315h3.361v-7.315zm9.555 0h-3.36v7.315h3.36v-7.315zm9.555 0h-3.36v7.315h3.36v-7.315zm9.554 0h-3.36v7.315h3.36v-7.315zm12.213 0h-6.019v7.315h6.019v-7.315z"/>
    <path fill="#c19528" d="M266.5533 87.0547v-4.907h-.357c-.42 1.347-1.057 2.364-1.91 3.051-.841.702-1.351 1.059-2.357 1.059-.955 0-1.757-.302-2.394-.88-.65-.591-1.095-1.402-1.363-2.446-.267-1.045-.395-2.117-.395-3.218 0-1.333.141-2.502.434-3.506.292-1.016.763-1.552 1.413-2.02.65-.467 1.172-.7 2.064-.7.318 0 .636.027.955.095.331.083.586.179.93.317v3.547c0 .55-.039.907-.103 1.071-.076.151-.216.303-.433.427-.216.137-.484.206-.802.206h-.331v.371h6.267v-.371c-.472-.041-.803-.111-.995-.22-.19-.097-.331-.275-.432-.522-.051-.138-.076-.454-.089-.962l-.026-3.438c-.815-.384-1.566-.715-2.458-.921-.892-.192-1.821-.356-2.777-.356-1.222 0-1.999.096-2.802.453-.815.357-1.516.688-2.139 1.265-.612.59-1.096 1.251-1.452 1.979-.433.948-.662 1.993-.662 3.176 0 2.089.687 3.849 2.05 5.292 1.349 1.444 3.069 2.158 5.133 2.158.942 0 1.783-.261 2.662-.618.624-.262.993-.385 1.108-.385.178 0 .331.069.484.206.152.138.293.399.42.797h.357zm-23.1299-.8925c-1.21-.015-2.114-.633-2.738-1.87-.523-1.004-.777-2.475-.777-4.372 0-2.268.369-3.973 1.16-5.045.56-.756 1.362-1.114 2.355-1.114v-1.058h-.012c-2.446 0-4.343.839-5.681 2.515-1.058 1.321-1.593 2.887-1.593 4.702 0 2.035.689 3.739 2.064 5.087 1.376 1.361 3.07 2.006 5.082 1.923h.14v-.768zm.025 0h-.025v.768c2.102.056 3.835-.589 5.159-1.91 1.35-1.361 2.025-3.052 2.025-5.086 0-1.746-.51-3.272-1.516-4.605-1.337-1.746-3.223-2.626-5.668-2.626v1.058c.675 0 1.261.193 1.707.523.573.412.942 1.086 1.261 2.007.318.907.534 2.076.534 3.547 0 1.759-.165 3.065-.496 3.931-.318.88-.738 1.485-1.235 1.856-.51.357-1.096.537-1.746.537m-14.0861-.2345v-5.485h.28c.879 0 1.223.274 1.617.839.395.549.65 1.361.752 2.447h.395v-7.286h-.395c-.076.797-.254 1.443-.509 1.952-.268.509-.573.853-.917 1.017-.344.179-.56.261-1.223.261v-4.083c0-.769.039-1.237.103-1.402.063-.179.177-.315.355-.426.179-.11.459-.165.866-.165h.828c1.287 0 1.656.303 2.433.907.777.591 1.312 1.279 1.656 2.516h.382l-.599-4.192h-11.323v.384h.472c.394 0 .725.069.968.206.178.097.318.261.408.496.076.165.114.59.114 1.292v9.156c0 .618-.013 1.003-.051 1.154-.063.233-.191.426-.382.55-.254.192-.611.288-1.057.288h-.472v.386h11.617v-4.111h-.383c-.204 1.003-.471 1.718-.84 2.158-.357.44-.854.756-1.516.962-.382.124-1.096.179-2.153.179h-1.426zm-15.0542.8115l7.145-8.634v5.981c0 .838-.115 1.402-.37 1.69-.343.399-.751.592-1.567.577v.386h4.318v-.386c-.611-.068-.713-.178-.916-.288-.217-.124-.383-.316-.497-.591-.115-.261-.178-.729-.178-1.388v-11.576h-.357l-9.807 11.576v-8.84c0-.797.191-1.333.573-1.621.382-.277.815-.413 1.312-.413h.344v-.385h-5.146v.385c.802 0 1.35.164 1.668.466.307.303.472.826.472 1.568v9.816l-.319.37c-.305.371-.573.606-.802.73-.242.109-.026.179-.458.191v.386h4.585zm72.4068-.577c-1.21-.015-2.114-.633-2.738-1.87-.523-1.004-.777-2.475-.777-4.372 0-2.268.369-3.973 1.159-5.045.56-.756 1.363-1.114 2.356-1.114v-1.058h-.013c-2.445 0-4.343.839-5.68 2.515-1.058 1.321-1.592 2.887-1.592 4.702 0 2.035.688 3.739 2.063 5.087 1.376 1.361 3.07 2.006 5.082 1.923h.14v-.768zm.025 0h-.025v.768c2.102.056 3.834-.589 5.159-1.91 1.362-1.361 2.037-3.052 2.037-5.086 0-1.746-.509-3.272-1.515-4.605-1.35-1.746-3.236-2.626-5.681-2.626v1.058c.675 0 1.261.193 1.707.523.573.412.942 1.086 1.261 2.007.318.907.535 2.076.535 3.547 0 1.759-.166 3.065-.497 3.931-.318.88-.738 1.485-1.235 1.856-.51.357-1.096.537-1.746.537"/>
    <path fill="#c19528" d="M272.6534 85.9277v-5.485h.281c.879 0 1.223.274 1.617.839.395.549.65 1.361.751 2.447h.395v-7.286h-.395c-.076.797-.254 1.443-.508 1.952-.268.509-.574.853-.918 1.017-.344.179-.56.261-1.223.261v-4.083c0-.769.039-1.237.102-1.402.064-.179.179-.315.357-.426.179-.11.458-.165.866-.165h.828c1.286 0 1.656.303 2.432.907.777.591 1.312 1.279 1.656 2.516h.382l-.598-4.192h-11.323v.384h.471c.395 0 .726.069.969.206.178.097.318.261.407.496.076.165.114.59.114 1.292v9.156c0 .618-.012 1.003-.05 1.154-.064.233-.192.426-.383.55-.254.192-.611.288-1.057.288h-.471v.386h11.616v-4.111h-.383c-.203 1.003-.47 1.718-.84 2.158-.356.44-.853.756-1.516.962-.381.124-1.095.179-2.152.179h-1.427z"/>
    <path fill="#c19528" fill-rule="evenodd" d="M252.3902 81.2266h.076c.726 0 1.313-.618 1.313-1.361s-.587-1.348-1.313-1.348h-.076c-.726 0-1.311.605-1.311 1.348 0 .743.585 1.361 1.311 1.361"/>
    <path fill="#282828" d="M146.692 204.201h-1.586v53.77h1.586v-53.77zm216.444 0h-1.586v53.77h1.586v-53.77z"/>
    <path fill="#282828" d="M403.065 230.357H105.231v1.458h297.834v-1.458zm-284.637 27.614h-2.827v42.977h2.827v-42.977zm272.613 0h-2.242v42.977h2.242v-42.977zm0-96.746h-2.242v42.977h2.242v-42.977zm-272.613 0h-2.827v42.977h2.827v-42.977z"/>
    <path fill="#2d2d2d" d="M89.678 102.388h-2.577V0h2.577v102.388zM16.204 89.833h-2.577V0h2.577v89.833z"/>
    <path fill="#2d2d2d" d="M13.6273 89.5366l.99-2.379 57.449 23.921-.99 2.378-57.449-23.92z"/>
    <path fill="#383838" d="M102.0801 118.6055c0-9.28-7.523-16.804-16.803-16.804-9.28 0-16.803 7.524-16.803 16.804 0 9.279 7.523 16.803 16.803 16.803 9.28 0 16.803-7.524 16.803-16.803"/>
    <path fill="#212121" d="M205.3163 361.0387h-62.488c-.754 0-1.372.617-1.372 1.372 0 .754.618 1.372 1.372 1.372h62.488c.755 0 1.372-.618 1.372-1.372 0-.755-.617-1.372-1.372-1.372m86.7101.1343h-79.49c-.755 0-1.372.617-1.372 1.372 0 .754.617 1.372 1.372 1.372h79.49c.755 0 1.372-.618 1.372-1.372 0-.755-.617-1.372-1.372-1.372m70.3266 0h-62.488c-.754 0-1.372.617-1.372 1.372 0 .754.618 1.372 1.372 1.372h62.488c.755 0 1.372-.618 1.372-1.372 0-.755-.617-1.372-1.372-1.372m-70.3266-7.4487h-79.49c-.755 0-1.372.617-1.372 1.372 0 .754.617 1.372 1.372 1.372h79.49c.755 0 1.372-.618 1.372-1.372 0-.755-.617-1.372-1.372-1.372m0-8.3657h-79.49c-.755 0-1.372.617-1.372 1.372 0 .754.617 1.372 1.372 1.372h79.49c.755 0 1.372-.618 1.372-1.372 0-.755-.617-1.372-1.372-1.372m-86.6481 8.1045h-56.844c-.721 0-1.31.589-1.31 1.31v.124c0 .72.589 1.31 1.31 1.31h56.844c.72 0 1.31-.59 1.31-1.31v-.124c0-.721-.59-1.31-1.31-1.31m151.2863.2612h-56.844c-.721 0-1.31.589-1.31 1.31v.124c0 .72.589 1.31 1.31 1.31h56.844c.72 0 1.31-.59 1.31-1.31v-.124c0-.721-.59-1.31-1.31-1.31m-6.3323-8.3657h-50.585c-.68 0-1.237.557-1.237 1.237v.269c0 .681.557 1.238 1.237 1.238h50.585c.68 0 1.237-.557 1.237-1.238v-.269c0-.68-.557-1.237-1.237-1.237m-144.9941 0h-50.585c-.68 0-1.237.557-1.237 1.237v.269c0 .681.557 1.238 1.237 1.238h50.585c.68 0 1.237-.557 1.237-1.238v-.269c0-.68-.557-1.237-1.237-1.237"/>
  </g>
</svg>
