<svg xmlns="http://www.w3.org/2000/svg" width="256.36349" height="200">
  <defs>
    <clipPath id="a">
      <path d="M0 172.892h221.616V0H0v172.892z"/>
    </clipPath>
  </defs>
  <path fill="#2d2d2d" d="M252.66987 197.5476H2.6953242v-43.04305H252.66987v43.04305z"/>
  <g clip-path="url(#a)" transform="matrix(1.1567915,0,0,-1.1567915,0,200)">
    <path fill="#383838" d="M192.436 29.675h-79.802v2.887h79.802v-2.887zm0-5.078h-79.802v2.891h79.802v-2.891zm0-5.071h-79.802v2.887h79.802v-2.887zm0-5.077h-79.802v2.893h79.802v-2.893zm0-5.072h-79.802v2.887h79.802V9.377zm0-5.078h-79.802v2.893h79.802V4.299zm-83.755 25.376h-79.5v2.887h79.5v-2.887zm0-5.078h-79.5v2.891h79.5v-2.891zm0-5.071h-79.5v2.887h79.5v-2.887zm0-5.077h-79.5v2.893h79.5v-2.893zm0-5.072h-79.5v2.887h79.5V9.377zm0-5.078h-79.5v2.893h79.5V4.299zm112.935 28.263v132.931c0 1.868-1.512 3.383-3.385 3.383H184.53c-3.726 0-10.637 4.016-14.373 4.016h-118.7c-3.735 0-10.645-4.016-14.373-4.016H3.385c-1.864 0-3.385-1.515-3.385-3.383V32.562h25.235v-2.887H0v-2.187h25.235v-2.891H0v-2.184h25.235v-2.887H0v-2.185h25.235v-2.892H0v-2.185h25.235V9.377H0V7.192h25.235V4.299H0v-.914C0 1.517 1.521 0 3.385 0h214.846c1.873 0 3.385 1.517 3.385 3.385v.914h-25.235v2.893h25.235v2.185h-25.235v2.887h25.235v2.185h-25.235v2.892h25.235v2.185h-25.235v2.887h25.235v2.184h-25.235v2.891h25.235v2.187h-25.235v2.887h25.235z"/>
    <path fill="#2d2d2d" d="M54.132 172.8916v-72.524c0-1.871 1.512-3.383 3.385-3.383h100.358c1.872 0 3.383 1.512 3.383 3.383v72.524H54.132z"/>
  </g>
  <path fill="#d40000" d="M137.98999 80.515071zm0-1.70048zm0-1.673783zm0 .836892zm0 3.374262zm0-1.700488zm0-3.34755z"/>
</svg>
