<?xml version="1.0" encoding="utf-8"?>
<!-- Generator: Adobe Illustrator 19.0.0, SVG Export Plug-In . SVG Version: 6.00 Build 0)  -->
<svg version="1.1" baseProfile="tiny" id="Layer_1" xmlns="http://www.w3.org/2000/svg" xmlns:xlink="http://www.w3.org/1999/xlink"
	 x="0px" y="0px" viewBox="0 0 489.5 837.3" xml:space="preserve">
<g>
	<g>
		<path fill="#A29583" d="M489.5,528V12c0-6.6-5.4-12-12-12h-465c-6.6,0-12,5.4-12,12v516c0,6.6,5.4,12,12,12h465
			C484.1,540,489.5,534.6,489.5,528z"/>
	</g>
	<g>
		<path fill="#D7250B" d="M369.6,99.4v-67c0-6.6-5.4-12-12-12h-62c-6.6,0-12,5.4-12,12v67c0,6.6,5.4,12,12,12h62
			C364.2,111.4,369.6,106,369.6,99.4z"/>
	</g>
	<g>
		<path fill="#D7250B" d="M473.6,217.4v-67c0-6.6-5.4-12-12-12h-62c-6.6,0-12,5.4-12,12v67c0,6.6,5.4,12,12,12h62
			C468.2,229.4,473.6,224,473.6,217.4z"/>
	</g>
	<g>
		<path fill="#A29583" d="M0.5,128.4V528c0,6.6,5.4,12,12,12h357.1c6.6,0,12-5.4,12-12V128.4c0-6.6-5.4-12-12-12H12.5
			C5.9,116.4,0.5,121.8,0.5,128.4z"/>
		<path fill="#2D241A" d="M0,528V128.4c0-6.9,5.6-12.5,12.5-12.5h357.1c6.9,0,12.5,5.6,12.5,12.5V528c0,6.9-5.6,12.5-12.5,12.5H12.5
			C5.6,540.5,0,534.9,0,528z M381.1,128.4c0-6.3-5.2-11.5-11.5-11.5H12.5c-6.3,0-11.5,5.2-11.5,11.5V528c0,6.3,5.2,11.5,11.5,11.5
			h357.1c6.3,0,11.5-5.2,11.5-11.5V128.4z"/>
	</g>
	<g>
		<path fill="#685646" d="M50.2,475V181.3c0-6.6,5.4-12,12-12H324c6.6,0,12,5.4,12,12V475c0,6.6-5.4,12-12,12H62.2
			C55.6,487,50.2,481.6,50.2,475z"/>
	</g>
	<g>
		<path fill="none" stroke="#000000" stroke-miterlimit="10" d="M170.5,328.2"/>
	</g>
	<g>
		<path fill="none" stroke="#000000" stroke-miterlimit="10" d="M240.7,340.2"/>
	</g>
	<g>
		<path fill="#847863" d="M38.6,62.4v-40c0-6.6,5.4-12,12-12h40c6.6,0,12,5.4,12,12v40c0,6.6-5.4,12-12,12h-40
			C44,74.4,38.6,69,38.6,62.4z"/>
	</g>
	<g>
		<path fill="none" stroke="#000000" stroke-miterlimit="10" d="M211.5,312.6"/>
	</g>
	<g>
		<path fill="none" stroke="#000000" stroke-miterlimit="10" d="M211.5,358"/>
	</g>
	<g>
		<path fill="none" stroke="#000000" stroke-miterlimit="10" d="M350.6,352"/>
	</g>
	<g>
		<g id="path5_1_">
			<path inkscape:connector-curvature="0" fill="#A29583" d="M76.6,25C76.6,25,76.7,25,76.6,25c3.7,2.4,5.8,6.1,5.8,9.5
				c0,3.5-1.9,5.7-1.9,8.7c0,2.8,1.9,4.6,1.9,8.6c0,3.1-1.7,6.4-4.6,8.7c-0.4-0.6-0.8-1.2-1.2-1.7L76.6,25L76.6,25L76.6,25z"/>
		</g>
		<g id="path7_1_">
			<path inkscape:connector-curvature="0" fill="#A29583" d="M85.7,48.7c1.9,1.5,4.6,2.6,7.4,2.2c-0.2-2.4-1.7-5.3-3.7-6.9
				c-1.8-1.5-4.5-2.7-7.2-2.3C82,44.4,83.6,47.1,85.7,48.7L85.7,48.7L85.7,48.7z"/>
		</g>
		<g id="path9_1_">
			<path sodipodi:nodetypes="ccccccc" inkscape:connector-curvature="0" fill="#A29583" d="M76.7,24.9c-1.6-1-3.9-1.7-5.8-1.9
				l0,32.7c2.2,0.4,4.3,1.5,5.8,3.4L76.7,24.9L76.7,24.9L76.7,24.9z"/>
		</g>
		<g id="path11_1_">
			<path inkscape:connector-curvature="0" fill="#A29583" d="M65,23.3c2-0.3,4-0.4,5.8-0.2l0,32.4c-2-0.3-4-0.1-5.8,0.8L65,23.3
				L65,23.3L65,23.3z"/>
		</g>
		<g id="path13_1_">
			<path inkscape:connector-curvature="0" fill="#A29583" d="M59.2,24.9c1.9-0.8,3.9-1.3,5.8-1.6l0,33c-2.3,1-4.3,2.9-5.3,5.6
				c-0.2-0.1-0.3-0.2-0.5-0.2L59.2,24.9L59.2,24.9L59.2,24.9z"/>
		</g>
		<g id="path15_1_">
			<path inkscape:connector-curvature="0" fill="#A29583" d="M59.2,61.6c-2-0.9-3.1-1.4-5-2.7c-0.3-0.2-0.5-0.3-0.8-0.5l0-30.4
				c0.1-0.1,0.3-0.2,0.4-0.3c1.7-1.1,3.5-2.1,5.4-2.8L59.2,61.6L59.2,61.6z"/>
		</g>
		<g id="path19_1_">
			<path inkscape:connector-curvature="0" fill="#A29583" d="M53.4,58.4c-2.7-1.9-5.8-4.4-5.8-7.4c0-3,1.9-3.7,1.9-7.7
				c0-4-1.9-4.9-1.9-7.8c0-3.2,3-5.6,5.8-7.5L53.4,58.4L53.4,58.4z"/>
		</g>
	</g>
	<g>
		<path fill="none" stroke="#000000" stroke-miterlimit="10" d="M306.3,346"/>
	</g>
	<g>
		
			<rect x="262.9" y="301.5" transform="matrix(-0.7405 0.6721 -0.6721 -0.7405 730.9377 528.9033)" fill="#6D5A4B" width="1" height="208.1"/>
	</g>
	<g>
		
			<rect x="159.1" y="250.6" transform="matrix(-0.67 0.7424 -0.7424 -0.67 626.1812 223.786)" fill="#6D5A4B" width="208.5" height="1"/>
	</g>
	<g>
		
			<rect x="123" y="146.2" transform="matrix(-0.7423 0.67 -0.67 -0.7423 383.1797 354.2419)" fill="#6D5A4B" width="1" height="209.2"/>
	</g>
	<g>
		
			<rect x="19.3" y="405.1" transform="matrix(-0.6723 0.7403 -0.7403 -0.6723 506.7256 586.8447)" fill="#6D5A4B" width="208.3" height="1"/>
	</g>
	<g>
		<g>
			<g>
				<circle fill="#463A2D" cx="193" cy="328.5" r="36.5"/>
			</g>
			<g>
				<path fill="#606060" d="M156,328.5c0-20.4,16.6-37,37-37s37,16.6,37,37s-16.6,37-37,37S156,348.9,156,328.5z M229,328.5
					c0-19.9-16.1-36-36-36s-36,16.1-36,36s16.1,36,36,36S229,348.3,229,328.5z"/>
			</g>
		</g>
		<g>
			<g>
				<ellipse fill="#3F3126" cx="390.6" cy="355.2" rx="24.5" ry="31.6"/>
			</g>
			<g>
				<path fill="#606060" d="M365.6,355.2c0-17.7,11.2-32.1,25-32.1s25,14.4,25,32.1s-11.2,32.1-25,32.1S365.6,372.9,365.6,355.2z
					 M414.6,355.2c0-17.1-10.8-31.1-24-31.1s-24,13.9-24,31.1s10.8,31.1,24,31.1S414.6,372.4,414.6,355.2z"/>
			</g>
		</g>
		<g>
			<g>
				<path fill="#372E24" d="M237.3,351.9l-44.2-6.2c-8.8,0-16-7.7-16-17.3c0-9.5,7.2-17.3,16-17.3l45.8,6.4"/>
				<path fill="#606060" d="M176.5,328.5c0-9.8,7.4-17.8,16.5-17.8l45.9,6.4l-0.1,1l-45.8-6.4c-8.5,0-15.4,7.5-15.4,16.8
					s7,16.8,15.5,16.8l44.3,6.2l-0.1,1l-44.2-6.2C183.9,346.2,176.5,338.3,176.5,328.5z"/>
			</g>
			<g>
				<path fill="#372E24" d="M237.3,351.9c-3.4-4.1-5.5-9.9-5.5-16.3c0-7.3,2.8-13.8,7.1-18"/>
				<path fill="#606060" d="M231.2,335.6c0-7.2,2.6-13.9,7.2-18.3l0.7,0.7c-4.4,4.3-6.9,10.7-6.9,17.6c0,6.1,1.9,11.8,5.4,16
					l-0.8,0.6C233.2,347.8,231.2,341.9,231.2,335.6z"/>
			</g>
		</g>
		<g>
			<g>
				<path fill="#403124" d="M390.6,386.8c-13.5,0-24.5-14.1-24.5-31.6c0-17.4,11-31.6,24.5-31.6H390l-64-13.8l-76,3.3v0
					c-10.1,0-18.3,10.5-18.3,23.3c0,12.9,10,22.1,18,24.5l74.5,21.8l67.3,4.1"/>
			</g>
			<g>
				<path fill="#606060" d="M231.2,336.5c0-13.2,8.4-23.8,18.8-23.8l0.5,0l75.5-3.3l0.1,0l63.9,13.8h0.5v1c-13.2,0-24,13.9-24,31.1
					c0,15.8,9.2,28.9,21,30.8l3.9,0.2l-0.1,1l-0.9-0.1v0.1c-1,0-2.1-0.1-3.1-0.2l-63.4-3.9l-74.5-21.8
					C242,359.2,231.2,350,231.2,336.5z M249.5,313.6c-9.6,0.3-17.3,10.5-17.3,22.8c0,13,10.3,21.8,17.7,24l74.4,21.8l58.6,3.6
					c-10.1-4.1-17.4-16.3-17.4-30.5c0-16.1,9.3-29.4,21.3-31.7l-61-13.2L249.5,313.6L249.5,313.6z"/>
			</g>
		</g>
	</g>
</g>
<g>
	<g>
		<g>
			<path fill="#919D9C" d="M375.3,721.4c0-2.9,2.1-5.4,5-5.9c37.8-6.4,57.8,4.4,66.4,11.4c22.4,18.4,28.5,42.8,34.9,68.6
				c2.2,8.9,4.5,18.1,7.5,27.2c1.1,3.2-0.7,6.6-3.8,7.6c-3.2,1.1-6.6-0.7-7.6-3.8c-3.2-9.5-5.5-19-7.8-28.1
				c-6.2-24.9-11.5-46.4-30.8-62.2c-5.6-4.6-22.4-14.7-56.8-8.9c-3.3,0.6-6.4-1.7-6.9-4.9C375.3,722,375.3,721.7,375.3,721.4z"/>
		</g>
		<path fill-rule="evenodd" fill="#979577" d="M389.9,682.1v78.8c0,1.7-1.3,3-3,3h-1.8c-1.7,0-3-1.3-3-3v-78.8c0-1.7,1.3-3,3-3h1.8
			C388.5,679.1,389.9,680.5,389.9,682.1z"/>
		<polygon fill-rule="evenodd" fill="#919D9C" points="396.5,694.4 396.5,748.7 389,752.5 389,691.1 		"/>
		<polygon fill-rule="evenodd" fill="#919D9C" points="408.6,696.6 408.6,747.1 399.8,750.7 399.8,693.5 		"/>
		<polygon fill-rule="evenodd" fill="#919D9C" points="421.8,700.9 421.8,742.3 411.8,745.3 411.8,698.4 		"/>
		<polygon fill-rule="evenodd" fill="#919D9C" points="433.8,705.2 433.8,738.1 423.9,740.5 423.9,703.2 		"/>
	</g>
	<path fill-rule="evenodd" fill="none" d="M385.7,624.4v194.3c0,10.3-8.4,18.7-18.7,18.7H49.6c-10.3,0-18.7-8.4-18.7-18.7V624.4
		c0-10.3,8.4-26.8,18.7-26.8l317.4,8.1C377.3,605.7,385.7,614.1,385.7,624.4"/>
	<path fill-rule="evenodd" fill="#9E9A7B" d="M385.7,624.4v194.3c0,10.3-8.4,18.7-18.7,18.7H49.6c-10.3,0-18.7-8.4-18.7-18.7V624.4
		c0-10.3,8.4-26.8,18.7-26.8l317.4,8.1C377.3,605.7,385.7,614.1,385.7,624.4z"/>
	<path fill-rule="evenodd" fill="#AAA584" d="M330.3,638.2v164.2c0,8-6.5,14.4-14.4,14.4h-215c-8,0-14.4-6.5-14.4-14.4V638.2
		c0-8,6.5-14.4,14.4-14.4h215C323.8,623.8,330.3,630.2,330.3,638.2z"/>
	<g>
		<path fill-rule="evenodd" fill="#525B55" d="M367,651.4v134.1c0,4-3.2,7.2-7.2,7.2h-90.3c-4,0-7.2-3.2-7.2-7.2V651.4
			c0-4,3.2-7.2,7.2-7.2h90.3C363.8,644.2,367,647.5,367,651.4z"/>
		<path fill-rule="evenodd" fill="#6E766F" d="M329.7,650.2v137.1c0,1.7-1.3,3-3,3H267c-1.7,0-3-1.3-3-3V650.2c0-1.7,1.3-3,3-3h59.6
			C328.3,647.2,329.7,648.6,329.7,650.2z"/>
		<path fill-rule="evenodd" fill="#949F94" d="M364.6,650.2v137.1c0,1.7-1.3,3-3,3h-29.5c-1.7,0-3-1.3-3-3V650.2c0-1.7,1.3-3,3-3
			h29.5C363.2,647.2,364.6,648.6,364.6,650.2z"/>
		<path fill-rule="evenodd" fill="#4E453D" d="M268.8,650.2v137.1c0,1.7-1.1,3-2.4,3l0,0c-1.3,0-2.4-1.3-2.4-3V650.2
			c0-1.7,1.1-3,2.4-3l0,0C267.8,647.2,268.8,648.6,268.8,650.2z"/>
	</g>
	<path fill-rule="evenodd" fill="#A19B7E" d="M148.4,653.9v25.9c0,4-3.2,7.2-7.2,7.2h-26.5c-4,0-7.2-3.2-7.2-7.2v-25.9
		c0-4,3.2-7.2,7.2-7.2h26.5C145.2,646.6,148.4,649.9,148.4,653.9z"/>
	<path fill="#A7A488" d="M386,626.6"/>
	<path fill="#A7A488" d="M382,625.4c-11,3.7-22,7.3-33,11c-5.2,1.7-10.3,3.6-15.5,5c-0.8,0.2-1.6,0.6-2.5,0.4
		c-1.1-0.6-0.9-1.7-0.9-2.7c0.3-5.4-2-9.6-6.3-12.8c-0.5-0.3-1.1-0.6-1-1.4c3.8-2.9,8.1-4.8,12.3-7c7.1-3.7,14.2-7.4,21.6-10.7
		c1-0.5,2.2-0.8,3-1.7c3.8,0,7.7,0,11.5,0c0.2,0.6,0.8,0.6,1.3,0.8c8.4,3,13,9.2,13.4,18.1"/>
	<path fill="#A7A488" d="M384.9,628.8"/>
	<path fill="#A7A488" d="M384.9,630.4"/>
	<path fill="#979378" d="M59.3,597.6c4,3,8,6.1,12.1,9.1c6.9,5.1,13.9,10.2,20.9,15.2c0.5,0.4,1.1,0.7,1.3,1.5
		c0.1,1.4-0.8,1.9-1.4,2.5c-3.8,4-5.4,9.4-5.5,15.8c0,1.5,0.2,3.1-0.5,4.4c-0.9,0.7-1.9,0.2-2.7-0.2c-16.3-7.5-32.6-15.4-48.7-23.8
		c-0.3-0.1-0.5-0.4-0.8-0.6c-0.2-0.2-0.3-0.5-0.5-0.7c0-0.4,0-0.8,0-1.2c0.5-8.5,3.5-14.7,8.6-19.2c1.8-1.6,3.9-2.2,5.9-2.9
		C51.7,597.6,55.5,597.6,59.3,597.6z"/>
	<path fill="#A7A488" d="M385.6,816.8"/>
	<path fill="#A7A488" d="M385.6,819.7c-0.4,5.7-2.8,10.6-7.8,14.2c-4,2.9-8.5,3.8-13.3,3.4c-7.5-3.1-15-6.1-22.4-9.2
		c-7.5-3.2-15-6.5-22.5-9.7c-0.8-0.3-1.4-0.9-2.1-1.3c0.6-0.7,1.4-0.9,2.2-1.1c5.4-1.7,8.6-5.3,9.9-10.6c0.2-0.7,0.2-1.5,0.8-2.1
		c18.3,5.2,36.5,10.7,54.8,16.4"/>
	<path fill="#A7A488" d="M386,817.7"/>
	<path fill="#979378" d="M94.9,816.7c-4.8,2.5-9.6,5.1-14.5,7.5c-8.3,4-16.4,8.2-24.9,11.9c-0.7,0.3-1.3,0.7-2,1.1
		c-6.1,0.5-11.9-0.3-16.6-4.6c-3.4-3.1-5.5-6.9-6-11.4c0-0.5,0.1-0.9,0.1-1.4c2.7-2.1,6.2-2.6,9.3-3.7c14.1-4.8,28.2-9.5,42.4-14.1
		c0.9-0.3,1.9-0.8,2.9-0.3c0.6,0.5,0.6,1.2,0.6,1.8c0.5,5,2.6,9.1,7.2,11.7C94.1,815.7,94.7,816,94.9,816.7z"/>
	<g>
		<path id="path5" inkscape:connector-curvature="0" fill="#AAA584" d="M134.3,655.3C134.3,655.3,134.3,655.3,134.3,655.3
			c2.5,1.6,4,4.2,4,6.6c0,2.4-1.3,4-1.3,6c0,2,1.3,3.2,1.3,6c0,2.1-1.2,4.4-3.2,6c-0.2-0.4-0.5-0.8-0.8-1.2L134.3,655.3L134.3,655.3
			L134.3,655.3z"/>
		<path id="path7" inkscape:connector-curvature="0" fill="#AAA584" d="M140.6,671.8c1.3,1,3.2,1.8,5.1,1.5
			c-0.1-1.7-1.2-3.6-2.6-4.8c-1.3-1-3.2-1.9-5-1.6C138,668.8,139.1,670.7,140.6,671.8L140.6,671.8L140.6,671.8z"/>
		<path id="path9" sodipodi:nodetypes="ccccccc" inkscape:connector-curvature="0" fill="#AAA584" d="M134.3,655.2
			c-1.1-0.7-2.7-1.2-4-1.3l0,22.6c1.5,0.2,3,1.1,4,2.3L134.3,655.2L134.3,655.2L134.3,655.2z"/>
		<path id="path11" inkscape:connector-curvature="0" fill="#AAA584" d="M126.3,654.1c1.4-0.2,2.8-0.3,4-0.1l0,22.4
			c-1.4-0.2-2.8,0-4,0.5L126.3,654.1L126.3,654.1L126.3,654.1z"/>
		<path id="path13" inkscape:connector-curvature="0" fill="#AAA584" d="M122.3,655.2c1.3-0.5,2.7-0.9,4-1.1l0,22.8
			c-1.6,0.7-3,2-3.7,3.9c-0.1-0.1-0.2-0.1-0.4-0.2L122.3,655.2L122.3,655.2L122.3,655.2z"/>
		<path id="path15" inkscape:connector-curvature="0" fill="#AAA584" d="M122.2,680.7c-1.4-0.6-2.1-1-3.5-1.9
			c-0.2-0.1-0.4-0.2-0.5-0.4l0-21.1c0.1-0.1,0.2-0.1,0.3-0.2c1.2-0.8,2.5-1.4,3.7-1.9L122.2,680.7L122.2,680.7z"/>
		<path id="path19" inkscape:connector-curvature="0" fill="#AAA584" d="M118.2,678.4c-1.9-1.3-4-3-4-5.1c0-2.1,1.3-2.6,1.3-5.4
			c0-2.8-1.3-3.4-1.3-5.4c0-2.2,2.1-3.9,4-5.2L118.2,678.4L118.2,678.4z"/>
	</g>
</g>
</svg>
