<?xml version="1.0"?>
<svg xmlns="http://www.w3.org/2000/svg" viewBox="0 0 879.95 355.159">
  <path fill="#454649" d="M648.433 191.525h206.75v51.846h-206.75z"/>
  <path fill="#c3c2c7" d="M44.553.053h199.833v4.312H44.553z"/>
  <path d="M287.093 24.208C287.093 5.516 275.755 0 266.562 0c-2.422 0-10.812.021-22.176.053v4.312h-4.434v-4.3l-4.871.014v4.286h-4.434V.091l-4.871.014v4.26h-4.434V.117l-4.871.014v4.233h-4.434V.144l-4.871.014v4.207h-4.434V.17l-4.871.014v4.181h-4.434V.196l-4.871.013v4.155h-4.434V.221l-4.871.013v4.13h-4.434V.246l-4.871.012v4.107h-4.434V.269l-4.871.011v4.084h-4.434V.29l-4.871.009v4.066h-4.434V.305l-2.435.001-2.436-.001v4.06H137.6V.299L132.729.29v4.075h-4.434V.28l-4.871-.011v4.096h-4.434V.258l-4.871-.012v4.119h-4.434V.235l-4.871-.013v4.143h-4.434V.209L95.509.196v4.169h-4.434V.184L86.204.17v4.195H81.77V.158L76.899.144v4.221h-4.434V.131L67.594.117v4.247H63.16V.104L58.289.09v4.274h-4.434V.079L48.984.065v4.3H44.55V.053C33.189.021 24.799 0 22.377 0 13.184 0 1.846 5.516 1.846 24.208c0 18.693-3.411 288.662-.959 304.904 2.451 18.999 11.644 26.047 27.886 26.047s115.698-.667 115.698-.667 99.456.667 115.697.667 25.434-7.048 27.886-26.047c2.45-16.241-.961-286.211-.961-304.904z" fill="#d9d9d9"/>
  <path d="M267.927 348.159H22.053c-8.301 0-15.092-6.792-15.092-15.092V21.164c0-8.301 6.792-15.092 15.092-15.092h245.874c8.301 0 15.092 6.791 15.092 15.092v311.902c0 8.301-6.791 15.093-15.092 15.093z" fill="#4c4c4c"/>
  <path d="M266.912 347.158H22.857c-8.255.359-15.515-6.858-14.998-14.998V21.859C7.342 13.524 15.04 6.35 22.857 6.861h244.055c8.246-.467 15.551 6.575 14.998 14.998v310.302c.596 8.008-6.796 15.444-14.998 14.997z" fill="#c3c2c7"/>
  <path d="M254.942 289.469H34c-7.19 0-13.072-5.883-13.072-13.072V53.476c0-7.19 5.883-13.072 13.072-13.072h220.942c7.19 0 13.072 5.883 13.072 13.072v222.921c.001 7.19-5.882 13.072-13.072 13.072z" fill="#6e7270"/>
  <path d="M179.519 270.126h-70.88c-3.268 0-5.942-2.674-5.942-5.942v-31.898c0-3.268 2.674-5.942 5.942-5.942h70.88c3.268 0 5.942 2.674 5.942 5.942v31.898c0 3.269-2.674 5.942-5.942 5.942z" fill="#505656" stroke="#272828" stroke-miterlimit="10"/>
  <path d="M144.468 164.937c13.34 0 71.377-2.497 81.42-3.324 10.043-.827 14.002-3.935 16.187-7.207 2.367-3.545 2.599-10.279 2.127-14.888-.473-4.608-5.908-5.317-7.916-5.317h-91.818.003-91.818c-2.009 0-7.444.709-7.916 5.317-.473 4.608-.24 11.343 2.127 14.888 2.185 3.272 6.144 6.38 16.187 7.207 10.043.827 68.08 3.324 81.42 3.324" fill="#464749"/>
  <path d="M200.973 265.595v-31.857a8.32 8.32 0 0 1 8.319-8.319h25.139a8.319 8.319 0 0 1 8.319 8.319v31.857a8.319 8.319 0 0 1-8.319 8.319h-25.139a8.319 8.319 0 0 1-8.319-8.319z" fill="#bfc0c5"/>
  <path d="M234.346 271.453h-24.969c-3.268 0-5.942-2.674-5.942-5.942v-31.688c0-3.268 2.674-5.942 5.942-5.942h24.969c3.268 0 5.942 2.674 5.942 5.942v31.688c0 3.268-2.674 5.942-5.942 5.942z" fill="#505656"/>
  <path d="M45.799 265.534v-31.857a8.32 8.32 0 0 1 8.319-8.319h25.138a8.319 8.319 0 0 1 8.319 8.319v31.857a8.319 8.319 0 0 1-8.319 8.319H54.118a8.319 8.319 0 0 1-8.319-8.319z" fill="#bfc0c5"/>
  <path d="M79.171 271.391H54.202c-3.268 0-5.942-2.674-5.942-5.942v-31.687c0-3.268 2.674-5.942 5.942-5.942h24.969c3.268 0 5.942 2.674 5.942 5.942v31.687c0 3.268-2.674 5.942-5.942 5.942z" fill="#6e7270"/>
  <path d="M63.183 158.538h-.7a1.191 1.191 0 0 1-1.188-1.188v-19.327c0-.654.535-1.188 1.188-1.188h.7c.654 0 1.189.535 1.189 1.188v19.327c0 .653-.535 1.188-1.189 1.188zM225.756 158.538h.701c.654 0 1.188-.535 1.188-1.188v-19.327c0-.654-.535-1.188-1.188-1.188h-.701c-.654 0-1.188.535-1.188 1.188v19.327c0 .653.534 1.188 1.188 1.188zM147.425 158.592a4.137 4.137 0 0 1-5.908 0l-5.908-6.016c-1.625-1.654-.296-3.008 2.954-3.008h11.817c3.25 0 4.579 1.354 2.954 3.008l-5.909 6.016z" fill="#444343"/>
  <ellipse transform="rotate(-80.729 232.274 75.939)" cx="232.27" cy="75.934" rx="18.909" ry="18.909" fill="#4c4c4c"/>
  <ellipse transform="rotate(-45.001 232.27 75.937)" cx="232.27" cy="75.934" rx="18.249" ry="18.249" fill="#6f7271"/>
  <path d="M230.28 78.166c0 1.776-3.22 3.215-7.191 3.215-3.972 0-7.191-1.44-7.191-3.215 0-1.776 3.22-3.215 7.191-3.215 3.972 0 7.191 1.439 7.191 3.215z" fill="#52c64b"/>
  <path d="M243.154 83.491c0 1.776-3.22 3.215-7.191 3.215s-7.191-1.44-7.191-3.215c0-1.776 3.22-3.215 7.191-3.215s7.191 1.44 7.191 3.215z" fill="#f9ec2b"/>
  <path d="M244.019 81.381c-.866-3.601-4.004-7.58-8.057-5.85 3.3-7.612 9.527-6.401 11.69-3.806 1.684 2.021 1.644 8.933-3.633 9.656z" fill="#eb2d2f"/>
  <path d="M231.345 75.559c-.866-3.601-4.004-7.58-8.057-5.85 3.3-7.612 9.527-6.401 11.69-3.806 1.684 2.021 1.644 8.933-3.633 9.656z" fill="#323b98"/>
  <path fill="#4c4c4c" d="M40.446 6.648h.616v33.756h-.616zM247.877 6.648h.616v33.756h-.616zM252.153 289.466h.616v57.705h-.616zM36.167 289.469h.616v57.702h-.616z"/>
  <g fill="#dcdbe1">
    <path d="M134.555 260.16c-.191.203-.299.491-.322.865l2.926-.008v.875h-2.933c0 .178.02.348.06.512.04.163.12.313.241.447.107.126.235.205.382.235s.297.045.451.045h.063l1.736-.007V264h-1.785c-.285 0-.559-.025-.823-.077a1.705 1.705 0 0 1-.745-.356 1.825 1.825 0 0 1-.588-.837 3.428 3.428 0 0 1-.182-1.012 1.974 1.974 0 0 1-.003-.217c.002-.07.005-.14.01-.21.051-.793.267-1.377.647-1.75s.951-.56 1.711-.56l1.757-.008v.875h-1.736c-.387.006-.677.109-.867.312zM138.782 263.167c.527.005.851-.119.97-.371s.179-.604.179-1.057v-2.766h1.099v2.989c0 .056-.001.108-.003.157-.002.05-.003.1-.003.151-.014.219-.054.434-.119.644s-.172.399-.322.567a1.3 1.3 0 0 1-.731.438 4.48 4.48 0 0 1-.857.08h-1.45v-.833h1.237zM143.193 260.16c-.191.203-.299.491-.322.865l2.926-.008v.875h-2.933c0 .178.02.348.06.512.04.163.12.313.241.447.107.126.235.205.382.235s.297.045.451.045h.063l1.736-.007V264h-1.785c-.285 0-.559-.025-.823-.077a1.705 1.705 0 0 1-.745-.356 1.825 1.825 0 0 1-.588-.837 3.428 3.428 0 0 1-.182-1.012 1.974 1.974 0 0 1-.003-.217c.002-.07.005-.14.01-.21.051-.793.267-1.377.647-1.75s.951-.56 1.711-.56l1.757-.008v.875h-1.736c-.387.006-.676.109-.867.312zM147.805 260.339c-.148.331-.23.717-.244 1.155v.228a2.356 2.356 0 0 0 .098.713c.047.156.123.295.23.416a.705.705 0 0 0 .389.235c.147.03.298.045.451.045h.063l1.736-.007V264h-1.785c-.284 0-.56-.025-.823-.077a1.697 1.697 0 0 1-.744-.356c-.281-.229-.477-.508-.589-.837s-.173-.666-.182-1.012a1.974 1.974 0 0 1-.003-.217c.002-.07.005-.14.01-.21.051-.793.268-1.377.647-1.75s.95-.56 1.712-.56l1.757-.008v.861h-1.736c-.508.006-.837.174-.987.505zM150.787 259.856v-.875h4.34v.875h-1.631V264h-1.092v-4.144h-1.617z"/>
  </g>
  <g fill="#dcdbe1">
    <path d="M212.555 258.912c.052.005.102.008.15.008s.099.002.15.007c.191.009.38.039.563.091.185.052.347.146.486.287.127.121.221.264.283.427.063.163.102.331.116.504 0 .033.001.065.003.098.003.033.004.065.004.099.005.35-.076.652-.241.906-.166.255-.424.424-.774.508l1.254 2.093h-1.19l-1.106-1.974h-1.245v1.974h-1.058v-5.026h2.605zm-.252.897h-1.295v1.267h1.295a.058.058 0 0 0 .028.007h.027c.225 0 .428-.033.613-.101.184-.068.273-.246.27-.536 0-.299-.098-.479-.291-.539s-.41-.091-.647-.091v-.007zM216.405 260.099c-.191.203-.299.491-.322.865l2.926-.008v.875h-2.934c0 .178.02.348.061.512.039.163.119.313.24.447a.67.67 0 0 0 .383.235c.146.03.297.045.451.045h.062l1.736-.007v.875h-1.785a4.23 4.23 0 0 1-.822-.077 1.833 1.833 0 0 1-1.334-1.193 3.46 3.46 0 0 1-.182-1.012c-.005-.074-.006-.146-.004-.217s.006-.14.011-.21c.052-.793.267-1.377.647-1.75s.951-.56 1.711-.56l1.758-.008v.875h-1.736c-.386.006-.676.11-.867.313zM221.57 259.809c-.229.005-.421.053-.577.144s-.234.265-.234.521c0 .196.066.336.199.42s.288.126.465.126l1.4-.007c.052.005.105.007.161.007s.112.002.168.007c.163.01.325.036.483.081a.972.972 0 0 1 .42.241c.111.103.195.227.252.371s.091.294.105.447c.004.047.008.093.01.137.002.045.004.09.004.137-.01.583-.17.979-.483 1.187-.313.208-.737.312-1.274.312h-2.813v-.896h2.646a1.35 1.35 0 0 0 .605-.111c.171-.079.24-.259.207-.539-.023-.22-.105-.354-.245-.406a1.576 1.576 0 0 0-.497-.084l-1.246-.007c-.518.005-.928-.1-1.229-.312s-.449-.596-.444-1.151c.009-.583.172-.981.487-1.193.314-.213.74-.318 1.277-.318l2.765-.008v.896h-2.612zM226.422 260.099c-.191.203-.299.491-.322.865l2.927-.008v.875h-2.934c0 .178.02.348.06.512.04.163.12.313.241.447.107.126.234.205.382.235s.298.045.451.045h.063l1.736-.007v.875h-1.785a4.24 4.24 0 0 1-.823-.077 1.7 1.7 0 0 1-.745-.356 1.818 1.818 0 0 1-.588-.837 3.396 3.396 0 0 1-.182-1.012c-.006-.074-.006-.146-.004-.217s.006-.14.01-.21c.052-.793.268-1.377.648-1.75s.95-.56 1.711-.56l1.758-.008v.875h-1.736c-.388.006-.678.11-.868.313zM229.432 259.795v-.875h4.34v.875h-1.631v4.144h-1.092v-4.144h-1.617z"/>
  </g>
  <path d="M51.722 328.336s-.214-.086-.514-.086h-3.125s-.428-.214-.428-.813c0 0 .171-.557.771-.557h4.281v-1.199h-5.522s-1.284.043-1.627 1.541c0 0-.342 2.14 1.841 2.226h2.783s.899.086.813.813c0 0-.128.642-.685.599h-4.367v1.284h5.009s1.884.214 2.183-1.67c0 .002.214-1.839-1.413-2.138zm7.235 2.482h-2.312s-.942-.128-.942-.856v-4.281H53.82v4.752s.514 1.712 1.969 1.712h5.052v-6.507h-1.884v5.18zm8.348-5.222h-5.351v6.55h1.841v-2.226h3.211c2.183-.257 2.098-2.183 2.098-2.183-.172-1.97-1.799-2.141-1.799-2.141zm-1.113 3.039h-2.355v-1.755h2.483c.685 0 .813.813.813.813-.213 1.156-.941.942-.941.942zm3.553.3s-.342 2.74 2.697 3.211h3.896v-1.327h-3.382s-1.027 0-1.199-1.37h4.623v-1.242H71.8s.086-1.113 1.284-1.327h3.296v-1.327h-4.024s-2.611.257-2.611 3.382zm15.112-1.242c0-1.884-1.969-2.098-1.969-2.098h-5.48v6.55h1.926v-2.44h1.884l1.627 2.397h2.183l-1.884-2.483c1.798-.342 1.713-1.926 1.713-1.926zm-3.382.857h-2.141v-1.67h2.226s1.199-.128 1.199.856c0 0 .129.814-1.284.814zm7.791-.514v4.153h1.884v-2.569h4.709v-1.37h-4.623v-.342c.128-.728 1.284-1.027 1.284-1.027h3.425v-1.199H91.92c-2.311-.001-2.654 2.354-2.654 2.354zm12.029-2.355h-4.324v1.241h3.425c1.284 0 1.413 1.284 1.413 1.284h-3.211c-2.183.086-2.141 2.012-2.141 2.012 0 2.055 2.269 2.012 2.269 2.012h5.052v-3.682c0-2.61-2.483-2.867-2.483-2.867zm.557 5.266h-2.611s-.685-.043-.685-.771c0 0 .086-.728.771-.728l2.526.043v1.456zm10.488-5.266h-7.492v6.507l1.969.043v-5.223h1.712v5.266h1.926v-5.223h.828c1.027.029 1.184.813 1.184.813v4.367h1.841v-4.238c.002-2.098-1.968-2.312-1.968-2.312zm3.125 6.507h2.055v-6.464h-2.055v6.464zm2.954-3.296c0 3.211 2.697 3.382 2.697 3.382h3.81v-1.284h-3.253c-1.456-.257-1.284-1.969-1.284-1.969 0-2.141 1.37-1.969 1.37-1.969h3.211v-1.327h-3.981c-2.57.342-2.57 3.167-2.57 3.167zm11.088-3.253s-3.51-.214-3.981 2.74c0 0-.385 2.44 1.327 3.425 0 0 2.44 1.584 5.266.043 0 0 1.884-.942 1.413-3.767-.001-.001-.558-2.57-4.025-2.441zm.085 5.565s-2.44.257-2.226-2.183c0 0-.214-2.226 2.098-2.226 0 0 2.269-.257 2.269 2.226 0 0 .214 2.183-2.141 2.183zm12.415-5.394h-7.492v6.507l1.969.043v-5.223h1.712v5.266h1.926v-5.223h.828c1.027.029 1.184.813 1.184.813v4.367h1.841v-4.238c.001-2.098-1.968-2.312-1.968-2.312z" fill="#4c4c4c"/>
  <g fill="#4c4c4c">
    <path d="M45.722 312.084h2.876l3.976 6.622-.001-6.622h2.85v9.496h-2.848l-3.996-6.622v6.622h-2.857v-9.496zM70.925 313.061h2.777v1.278h1.501v.939h-1.501l.003 6.302h-2.78l.001-6.302h-1.507v-.936l1.507-.003-.001-1.278zM57.011 315.266h2.774v6.316h-2.774v-6.316zM57.003 312.081h2.781v1.943h-2.781v-1.943zM105.618 314.837c-2.239 0-4.054 1.585-4.054 3.544 0 1.957 1.815 3.545 4.054 3.545 2.24 0 4.052-1.588 4.052-3.545 0-1.959-1.812-3.544-4.052-3.544m1.114 3.535l-.003 1.338c0 1.006-.576 1.421-1.134 1.421-.557 0-1.137-.414-1.137-1.421l.001-1.362.002-1.314c0-1.003.583-1.415 1.134-1.415.554 0 1.134.411 1.134 1.415 0 .382-.001 1.091.003 1.342v-.004zM97.942 318.392v-1.13c0-.977-.655-1.224-1.086-1.224-.442 0-1.088.247-1.088 1.224v2.248c0 .979.646 1.23 1.088 1.23.431 0 1.086-.252 1.086-1.23v-1.118zm-.018-6.308h2.736v9.495h-2.742l-.001-.364c-1.061.683-2.259.683-3.194.238a3.373 3.373 0 0 1-1.896-3.133c0-1.666 1.525-3.487 3.526-3.305.658.06 1.126.307 1.571.566v-3.497zM66.278 314.975c1.038-.031 3.14.667 3.126 3.167-.003.446-.001 3.437-.001 3.437h-2.754v-4.147c0-.551-.511-1.162-1.268-1.162-.756 0-1.316.611-1.316 1.162l.003 4.147h-2.753l-.003-6.314 2.756-.003s-.003.507 0 .664a3.291 3.291 0 0 1 2.21-.951M88.818 314.975c1.037-.031 3.141.667 3.127 3.167-.003.446 0 3.437 0 3.437h-2.757v-4.147c0-.551-.511-1.162-1.268-1.162-.756 0-1.315.611-1.315 1.162l.003 4.147h-2.753v-6.314l2.753-.003s-.003.507 0 .664a3.289 3.289 0 0 1 2.21-.951M80.092 319.371l.001.384c0 1.155-.737 1.412-1.147 1.412-.408 0-1.161-.257-1.161-1.412l.003-1.303s5.225.003 5.225-.003c0-1.957-1.836-3.578-4.092-3.578-2.256 0-4.083 1.585-4.083 3.545s1.828 3.544 4.083 3.544c1.872 0 3.453-1.099 3.935-2.591l-2.764.002zm-2.304-1.905c-.006-.553.006-.922.182-1.237.216-.39.614-.574.976-.577.36.003.758.188.973.577.177.316.186.685.182 1.237h-2.313z"/>
  </g>
  <path d="M216.273 332.904a3.128 3.128 0 0 1-3.125-3.124 3.129 3.129 0 0 1 3.125-3.125h8.903a3.128 3.128 0 0 1 3.124 3.125 3.128 3.128 0 0 1-3.124 3.124h-8.903z" fill="#c95b5b"/>
  <linearGradient id="a" gradientUnits="userSpaceOnUse" x1="220.724" y1="332.061" x2="220.724" y2="327.496">
    <stop offset="0"/>
    <stop offset="1" stop-color="#fff"/>
  </linearGradient>
  <path d="M225.254 332.061h-9.059a2.21 2.21 0 0 1-2.204-2.204v-.157a2.21 2.21 0 0 1 2.204-2.204h9.059a2.21 2.21 0 0 1 2.204 2.204v.157a2.21 2.21 0 0 1-2.204 2.204z" fill="url(#a)"/>
  <path d="M225.254 332.061h-9.059a2.21 2.21 0 0 1-2.204-2.204v-.157a2.21 2.21 0 0 1 2.204-2.204h9.059a2.21 2.21 0 0 1 2.204 2.204v.157a2.21 2.21 0 0 1-2.204 2.204z" fill="#c11b25"/>
  <g fill="#707175">
    <path d="M214.238 319.677c.003.003.006.004.01.004h.162c.05 0 .102.003.152.008.09.006.181.019.27.038.09.021.173.053.25.099a.688.688 0 0 1 .302.34c.061.144.092.295.095.452.002.144-.022.282-.074.416a.745.745 0 0 1-.258.332.863.863 0 0 1-.33.142 2.555 2.555 0 0 1-.362.042h-.193l-.731-.004v1.004h-.604v-2.872h1.311zm-.008.511h-.7v.849h.736a.801.801 0 0 0 .38-.086c.106-.058.159-.169.159-.334.006-.185-.051-.301-.17-.351a1.052 1.052 0 0 0-.405-.074v-.004zM215.79 320.477c.069-.21.171-.382.306-.514s.312-.226.53-.282a2.37 2.37 0 0 1 .78-.048c.093.011.183.028.268.052.214.054.388.146.524.28.136.134.235.306.3.516a2.49 2.49 0 0 1 .084.624c0 .115-.007.227-.021.336a1.927 1.927 0 0 1-.063.313c-.064.216-.165.39-.304.521a1.114 1.114 0 0 1-.536.274 1.904 1.904 0 0 1-.265.046 2.52 2.52 0 0 1-.275.014c-.083 0-.166-.005-.248-.016a2.44 2.44 0 0 1-.244-.044 1.127 1.127 0 0 1-.532-.274 1.156 1.156 0 0 1-.304-.521 2.292 2.292 0 0 1-.084-.636c0-.112.007-.224.02-.334a1.7 1.7 0 0 1 .064-.303v-.004zm.624.204a1.49 1.49 0 0 0-.04.218 2.023 2.023 0 0 0 .002.441c.009.073.021.145.038.214a.854.854 0 0 0 .146.32.59.59 0 0 0 .286.2.83.83 0 0 0 .145.035.856.856 0 0 0 .303 0 .892.892 0 0 0 .144-.035c.123-.043.219-.109.288-.2s.117-.197.145-.32a1.813 1.813 0 0 0 0-.869.812.812 0 0 0-.145-.321.562.562 0 0 0-.288-.198.983.983 0 0 0-.447-.036.831.831 0 0 0-.145.036.573.573 0 0 0-.284.2.936.936 0 0 0-.147.319v-.004zM219.311 319.677l.664 2.208.56-2.208h.712l.645 2.208.619-2.208h.62l-.888 2.872h-.74l-.611-2.144-.536 2.144h-.736l-.952-2.872h.643zM224.098 320.354c-.109.116-.17.281-.184.494l1.672-.004v.5h-1.676c0 .102.011.199.034.292a.57.57 0 0 0 .138.256.385.385 0 0 0 .218.134c.084.018.17.026.258.026h.037l.992-.004v.5h-1.02a2.5 2.5 0 0 1-.471-.044 1.05 1.05 0 0 1-.762-.682 1.938 1.938 0 0 1-.104-.578c-.003-.043-.004-.084-.003-.124l.007-.12c.029-.453.152-.787.37-1 .217-.214.543-.32.978-.32l1.004-.004v.5h-.992c-.221.004-.387.063-.496.178zM227.602 319.677a.838.838 0 0 0 .086.004c.027 0 .057.002.086.004.109.006.217.022.321.053a.631.631 0 0 1 .278.163.669.669 0 0 1 .162.244 1.03 1.03 0 0 1 .068.345l.002.056a.907.907 0 0 1-.139.518.69.69 0 0 1-.441.29l.716 1.196h-.68l-.633-1.128h-.712v1.128h-.604v-2.872h1.49zm-.144.511h-.74v.725h.74c.006.002.011.004.016.004h.017c.128 0 .244-.02.35-.059.105-.038.157-.141.154-.306 0-.171-.056-.273-.166-.308a1.22 1.22 0 0 0-.37-.053v-.003z"/>
  </g>
  <path d="M79.731 265.391H53.807c-3.006 0-5.465-2.459-5.465-5.465v-25.924c0-3.006 2.459-5.465 5.465-5.465h25.924c3.006 0 5.465 2.459 5.465 5.465v25.924c-.001 3.006-2.46 5.465-5.465 5.465z" fill="#505656"/>
  <g fill="#505656">
    <path d="M24.37 242.681c.104-.315.257-.572.459-.771s.467-.339.795-.423c.12-.028.244-.05.372-.066s.256-.023.384-.023a2.887 2.887 0 0 1 .816.096c.32.08.582.22.786.42s.354.458.45.774a3.66 3.66 0 0 1 .096 1.439c-.021.164-.052.32-.096.468-.097.324-.248.585-.456.783s-.477.335-.805.411c-.128.032-.26.055-.396.069a4.04 4.04 0 0 1-.414.021 3.096 3.096 0 0 1-.738-.089c-.324-.076-.59-.213-.798-.411s-.36-.459-.456-.783a3.22 3.22 0 0 1-.093-.456c-.022-.164-.033-.33-.033-.498s.01-.335.03-.501c.02-.165.052-.316.096-.452v-.008zm.937.306a2.269 2.269 0 0 0-.061.327 2.995 2.995 0 0 0-.018.326c0 .112.007.224.021.333.015.11.033.218.058.321.044.185.116.344.219.48a.887.887 0 0 0 .429.3 1.338 1.338 0 0 0 .445.073 1.461 1.461 0 0 0 .444-.073.902.902 0 0 0 .433-.3c.104-.137.176-.296.216-.48.024-.104.043-.211.057-.321a2.45 2.45 0 0 0 0-.659 2.941 2.941 0 0 0-.057-.321 1.223 1.223 0 0 0-.216-.483.86.86 0 0 0-.433-.297 1.451 1.451 0 0 0-.673-.054c-.075.012-.147.03-.216.054a.863.863 0 0 0-.426.3c-.1.137-.174.297-.222.48v-.006zM30.311 241.481l1.764 3.096-.042-3.096h.924v4.308h-1.05l-1.854-3.258.042 3.258h-.931v-4.308h1.147z"/>
  </g>
  <g fill="#505656">
    <path d="M24.37 254.681c.104-.315.257-.572.459-.771s.467-.339.795-.423c.12-.028.244-.05.372-.066s.256-.023.384-.023a2.887 2.887 0 0 1 .816.096c.32.08.582.22.786.42s.354.458.45.774a3.66 3.66 0 0 1 .096 1.439c-.021.164-.052.32-.096.468-.097.324-.248.585-.456.783s-.477.335-.805.411c-.128.032-.26.055-.396.069a4.04 4.04 0 0 1-.414.021 3.096 3.096 0 0 1-.738-.089c-.324-.076-.59-.213-.798-.411s-.36-.459-.456-.783a3.22 3.22 0 0 1-.093-.456c-.022-.164-.033-.33-.033-.498s.01-.335.03-.501c.02-.165.052-.316.096-.452v-.008zm.937.306a2.269 2.269 0 0 0-.061.327 2.995 2.995 0 0 0-.018.326c0 .112.007.224.021.333.015.11.033.218.058.321.044.185.116.344.219.48a.887.887 0 0 0 .429.3 1.338 1.338 0 0 0 .445.073 1.461 1.461 0 0 0 .444-.073.902.902 0 0 0 .433-.3c.104-.137.176-.296.216-.48.024-.104.043-.211.057-.321a2.45 2.45 0 0 0 0-.659 2.941 2.941 0 0 0-.057-.321 1.223 1.223 0 0 0-.216-.483.86.86 0 0 0-.433-.297 1.451 1.451 0 0 0-.673-.054c-.075.012-.147.03-.216.054a.863.863 0 0 0-.426.3c-.1.137-.174.297-.222.48v-.006zM29.527 254.027c.262-.36.837-.54 1.726-.54l1.38-.006v.75h-1.458c-.381.008-.659.09-.837.246-.179.155-.277.426-.298.81l2.593-.006v.744H30.04v1.764h-.905v-1.98c0-.828.131-1.422.392-1.782zM33.596 254.027c.262-.36.837-.54 1.725-.54l1.38-.006v.75h-1.458c-.38.008-.659.09-.837.246-.178.155-.277.426-.297.81l2.592-.006v.744h-2.592v1.764h-.906v-1.98c-.001-.828.13-1.422.393-1.782z"/>
  </g>
  <path d="M83.957 245.83H49.416a1.16 1.16 0 0 1-1.156-1.156v-2.137c0-.636.52-1.156 1.156-1.156h34.541c.636 0 1.156.52 1.156 1.156v2.137a1.16 1.16 0 0 1-1.156 1.156z" fill="#494747"/>
  <path d="M49.425 241.381c-.601 0-1.083.493-1.142 1.112.059.619.541 1.112 1.142 1.112h34.524c.601 0 1.083-.493 1.142-1.112-.059-.619-.541-1.112-1.142-1.112H49.425z" fill="#666"/>
  <g fill="#dcdbe1">
    <path d="M55.144 256.132c.005.005.011.008.018.008H55.447c.088 0 .177.004.266.014.158.01.316.031.473.066s.302.092.438.172c.247.145.423.343.528.595.104.252.16.516.164.791.005.252-.038.494-.129.728s-.242.428-.452.581a1.46 1.46 0 0 1-.577.249 4.59 4.59 0 0 1-.634.073h-.336l-1.28-.007v1.757H52.85v-5.026h2.294zm-.014.896h-1.225v1.483h1.287c.257 0 .479-.05.665-.15.187-.1.28-.295.28-.584.01-.322-.09-.526-.297-.612a1.828 1.828 0 0 0-.711-.13v-.007zM57.86 257.532c.122-.368.3-.669.536-.899.235-.231.545-.396.927-.493a3.984 3.984 0 0 1 .883-.105 3.27 3.27 0 0 1 .951.112c.374.093.68.257.917.489.238.233.413.535.525.903a4.205 4.205 0 0 1 .147 1.092c0 .201-.012.397-.035.588a3.353 3.353 0 0 1-.112.547c-.112.378-.289.682-.532.913-.242.231-.555.391-.938.479a3.3 3.3 0 0 1-.462.08 4.54 4.54 0 0 1-.483.025c-.145 0-.289-.01-.434-.028a4.61 4.61 0 0 1-.428-.077c-.378-.089-.688-.248-.931-.479s-.42-.535-.532-.913c-.047-.164-.083-.341-.108-.532s-.038-.385-.038-.581.012-.391.035-.585c.022-.193.061-.369.111-.528v-.008zm1.092.358a2.5 2.5 0 0 0-.07.381 3.357 3.357 0 0 0 .07 1.145c.051.215.136.401.255.561.119.158.286.275.501.35.079.028.163.049.252.063a1.694 1.694 0 0 0 .785-.063c.214-.074.382-.191.504-.35a1.41 1.41 0 0 0 .252-.561c.027-.121.05-.246.066-.374a3.15 3.15 0 0 0-.066-1.145 1.431 1.431 0 0 0-.252-.563 1.011 1.011 0 0 0-.504-.347 1.694 1.694 0 0 0-.785-.063 1.498 1.498 0 0 0-.252.063.996.996 0 0 0-.497.35 1.627 1.627 0 0 0-.259.561v-.008zM64.02 256.132l1.162 3.864.98-3.864h1.246l1.127 3.864 1.085-3.864h1.085l-1.555 5.026h-1.295l-1.07-3.752-.938 3.752h-1.288l-1.666-5.026h1.127zM72.399 257.318c-.191.203-.299.491-.322.865l2.927-.008v.875H72.07c0 .178.02.348.06.512.04.163.12.313.241.447a.672.672 0 0 0 .382.235c.147.03.298.045.451.045h.063l1.736-.007v.875h-1.785a4.24 4.24 0 0 1-.823-.077 1.705 1.705 0 0 1-.745-.356c-.28-.229-.476-.508-.588-.837s-.173-.666-.182-1.012c-.005-.074-.006-.146-.004-.217s.006-.14.011-.21c.051-.793.267-1.377.647-1.75s.95-.56 1.711-.56l1.758-.008v.875h-1.736c-.388.007-.677.11-.868.313zM78.53 256.132c.052.005.102.008.15.008s.1.002.15.007c.191.009.38.039.563.091.185.052.347.146.487.287.126.121.22.264.283.427a1.757 1.757 0 0 1 .119.602c.002.033.003.065.003.099.005.35-.075.652-.241.906-.166.255-.424.424-.773.508l1.253 2.093h-1.19l-1.105-1.974h-1.246v1.974h-1.057v-5.026h2.604zm-.252.896h-1.295v1.267h1.295a.06.06 0 0 0 .028.007h.027c.225 0 .429-.033.613-.101s.273-.246.27-.536c0-.299-.098-.479-.291-.539s-.409-.091-.647-.091v-.007z"/>
  </g>
  <circle cx="42.077" cy="243.644" r="1.327" fill="#505656"/>
  <circle cx="42.077" cy="255.644" r="1.327" fill="#505656"/>
  <g fill="#85898a">
    <path d="M77.164 140.996c0 .303.054.53.16.68.106.15.323.225.65.225.326 0 .542-.075.647-.225.104-.15.157-.375.157-.675v-2.155h.755v2.3c0 .044-.001.085-.005.125-.003.127-.02.251-.047.373a.95.95 0 0 1-.158.342.947.947 0 0 1-.412.325c-.169.07-.343.115-.522.135a2.16 2.16 0 0 1-.21.02 4.83 4.83 0 0 1-.402 0 2.149 2.149 0 0 1-.208-.02 1.821 1.821 0 0 1-.53-.13.97.97 0 0 1-.42-.33.916.916 0 0 1-.154-.342 1.93 1.93 0 0 1-.045-.373c-.004-.04-.006-.082-.006-.125v-2.3h.75v2.15zM81.435 139.486a.84.84 0 0 0-.413.103c-.111.065-.167.189-.167.373 0 .14.047.24.143.3.095.06.205.09.332.09l1-.005c.037.003.075.005.115.005s.08.001.12.005c.116.007.231.026.345.058s.214.089.3.172c.08.073.141.162.181.265s.064.21.074.32a1.76 1.76 0 0 1 .011.196c-.007.417-.122.699-.346.847-.223.148-.526.223-.909.223H80.21v-.64h1.89a.974.974 0 0 0 .433-.08c.121-.057.17-.185.147-.385-.018-.157-.075-.253-.176-.29a1.09 1.09 0 0 0-.354-.06l-.89-.005c-.37.003-.663-.071-.878-.223-.215-.151-.321-.426-.317-.822.007-.417.122-.701.348-.853.225-.152.529-.228.912-.228l1.975-.005v.64h-1.865zM84.899 139.693c-.137.145-.214.351-.23.618l2.09-.005v.625h-2.095c0 .126.015.248.043.365s.085.224.172.32c.077.09.168.146.272.167.105.021.213.032.323.032h.044l1.239-.005v.625h-1.274c-.203 0-.399-.018-.588-.055a1.23 1.23 0 0 1-.532-.255c-.2-.163-.34-.362-.42-.598a2.445 2.445 0 0 1-.13-.722 1.35 1.35 0 0 1-.003-.155c.002-.05.004-.1.008-.15.036-.566.19-.983.462-1.25s.68-.4 1.223-.4l1.255-.005v.625h-1.239c-.277.005-.483.078-.62.223zM90.129 139.821a2.177 2.177 0 0 0-.175.825v.163a1.708 1.708 0 0 0 .07.509.774.774 0 0 0 .165.298c.08.09.172.146.277.167.104.021.212.032.322.032h.044l1.24-.005v.625h-1.275c-.203 0-.398-.018-.587-.055a1.304 1.304 0 0 1-.953-.853 2.445 2.445 0 0 1-.13-.722 1.615 1.615 0 0 1-.002-.155c.001-.05.004-.1.007-.15.037-.566.191-.983.463-1.25s.679-.4 1.223-.4l1.255-.005v.615h-1.24c-.362.004-.598.124-.704.361zM94.46 138.846l1.529 3.59h-.84l-.33-.855h-1.56l-.32.855h-.795l1.515-3.59h.801zm-.955 2.095h1.069l-.545-1.38-.524 1.38zM97.409 139.486a.837.837 0 0 0-.412.103c-.112.065-.168.189-.168.373 0 .14.048.24.143.3a.61.61 0 0 0 .333.09l1-.005c.036.003.074.005.114.005s.08.001.12.005c.117.007.232.026.346.058s.213.089.3.172c.08.073.14.162.18.265s.065.21.075.32l.008.098.002.098c-.007.417-.121.699-.345.847-.224.148-.526.223-.91.223h-2.01v-.64h1.89a.972.972 0 0 0 .433-.08c.122-.057.171-.185.147-.385-.017-.157-.075-.253-.175-.29a1.101 1.101 0 0 0-.355-.06l-.89-.005c-.37.003-.662-.071-.878-.223-.215-.151-.32-.426-.317-.822.007-.417.123-.701.348-.853.226-.152.529-.228.913-.228l1.975-.005v.64h-1.867zM101.185 139.486a.84.84 0 0 0-.413.103c-.111.065-.167.189-.167.373 0 .14.047.24.143.3.095.06.205.09.332.09l1-.005c.037.003.075.005.115.005s.08.001.12.005c.116.007.231.026.345.058s.214.089.3.172c.08.073.141.162.181.265s.064.21.074.32a1.76 1.76 0 0 1 .011.196c-.007.417-.122.699-.346.847-.223.148-.526.223-.909.223H99.96v-.64h1.891a.974.974 0 0 0 .433-.08c.121-.057.17-.185.147-.385-.018-.157-.075-.253-.176-.29a1.09 1.09 0 0 0-.354-.06l-.89-.005c-.37.003-.663-.071-.878-.223-.215-.151-.321-.426-.317-.822.007-.417.122-.701.348-.853.225-.152.529-.228.912-.228l1.975-.005v.64h-1.866zM104.649 139.693c-.137.145-.214.351-.23.618l2.09-.005v.625h-2.095c0 .126.015.248.043.365s.085.224.172.32c.077.09.168.146.272.167.105.021.213.032.323.032h.044l1.239-.005v.625h-1.274c-.203 0-.399-.018-.588-.055a1.23 1.23 0 0 1-.532-.255c-.2-.163-.34-.362-.42-.598a2.445 2.445 0 0 1-.13-.722 1.35 1.35 0 0 1-.003-.155c.002-.05.004-.1.008-.15.036-.566.19-.983.462-1.25s.68-.4 1.223-.4l1.255-.005v.625h-1.239c-.277.005-.483.078-.62.223zM106.799 139.476v-.625h3.101v.625h-1.165v2.96h-.78v-2.96h-1.156z"/>
    <path d="M109.894 139.476v-.625h3.101v.625h-1.165v2.96h-.78v-2.96h-1.156zM114.219 139.693c-.137.145-.213.351-.229.618l2.09-.005v.625h-2.095c0 .126.014.248.042.365s.086.224.173.32c.076.09.167.146.272.167.104.021.212.032.322.032h.044l1.24-.005v.625h-1.275c-.203 0-.398-.018-.587-.055a1.304 1.304 0 0 1-.953-.853 2.445 2.445 0 0 1-.13-.722 1.615 1.615 0 0 1-.002-.155c.001-.05.004-.1.007-.15.037-.566.191-.983.463-1.25s.679-.4 1.223-.4l1.255-.005v.625h-1.24c-.277.005-.484.078-.62.223zM119.079 138.846l.83 2.76.7-2.76h.89l.805 2.76.775-2.76h.774l-1.109 3.59h-.925l-.766-2.68-.67 2.68h-.92l-1.189-3.59h.805zM124.209 142.436v-3.59h.79v3.59h-.79zM125.374 139.476v-.625h3.1v.625h-1.165v2.96h-.78v-2.96h-1.155zM129.594 140.301h1.385v-1.455h.756v3.59h-.756v-1.5h-1.385v1.5h-.755v-3.59h.755v1.455zM135.579 139.486a.84.84 0 0 0-.413.103c-.111.065-.167.189-.167.373 0 .14.047.24.143.3.095.06.205.09.332.09l1-.005c.037.003.075.005.115.005s.08.001.12.005c.116.007.231.026.345.058s.214.089.3.172c.08.073.141.162.181.265s.064.21.074.32a1.76 1.76 0 0 1 .011.196c-.007.417-.122.699-.346.847-.223.148-.526.223-.909.223h-2.011v-.64h1.891a.974.974 0 0 0 .433-.08c.121-.057.17-.185.147-.385-.018-.157-.075-.253-.176-.29a1.09 1.09 0 0 0-.354-.06l-.89-.005c-.37.003-.663-.071-.878-.223-.215-.151-.321-.426-.317-.822.007-.417.122-.701.348-.853.225-.152.529-.228.912-.228l1.975-.005v.64h-1.866zM138.924 140.996c0 .303.053.53.16.68.106.15.323.225.649.225.327 0 .543-.075.647-.225.105-.15.158-.375.158-.675v-2.155h.755v2.3c0 .044-.002.085-.005.125-.004.127-.02.251-.048.373s-.081.236-.157.342a.95.95 0 0 1-.413.325c-.168.07-.342.115-.522.135-.069.01-.14.017-.21.02a4.751 4.751 0 0 1-.402 0 2.1 2.1 0 0 1-.207-.02 1.821 1.821 0 0 1-.53-.13.964.964 0 0 1-.575-.672 2.002 2.002 0 0 1-.045-.373c-.003-.04-.005-.082-.005-.125v-2.3h.75v2.15zM143.663 138.846c.004.003.008.005.013.005h.203c.063 0 .126.003.189.01.113.007.226.022.338.048.111.025.216.066.313.123a.863.863 0 0 1 .377.425c.075.18.114.368.118.565.003.18-.027.354-.093.52s-.173.305-.322.415c-.127.09-.265.149-.413.177a3.082 3.082 0 0 1-.452.053h-.24l-.915-.005v1.255h-.755v-3.59h1.639zm-.01.64h-.875v1.06h.92c.184 0 .342-.036.476-.107.133-.072.2-.211.2-.417.006-.23-.064-.376-.213-.438s-.317-.092-.508-.092v-.006zM146.594 139.693c-.137.145-.214.351-.23.618l2.09-.005v.625h-2.095c0 .126.015.248.043.365s.085.224.172.32c.077.09.168.146.272.167.105.021.213.032.323.032h.044l1.239-.005v.625h-1.274c-.203 0-.399-.018-.588-.055a1.23 1.23 0 0 1-.532-.255c-.2-.163-.34-.362-.42-.598a2.445 2.445 0 0 1-.13-.722 1.35 1.35 0 0 1-.003-.155c.002-.05.004-.1.008-.15.036-.566.19-.983.462-1.25s.68-.4 1.223-.4l1.255-.005v.625h-1.239c-.278.005-.484.078-.62.223zM150.974 138.846c.036.003.072.005.107.005s.07.001.107.005c.137.007.271.028.402.065s.248.105.348.205c.09.087.157.188.202.305a1.29 1.29 0 0 1 .088.5c.003.25-.055.466-.173.647s-.303.302-.553.362l.896 1.495h-.85l-.79-1.41h-.891v1.41h-.755v-3.59h1.862zm-.181.64h-.925v.905h.925c.007.003.014.005.021.005h.02c.16 0 .307-.024.438-.072.132-.048.196-.176.193-.383 0-.213-.069-.341-.208-.385s-.292-.065-.463-.065v-.005zM155.101 139.301c.219-.3.698-.45 1.438-.45l1.15-.005v.625h-1.215c-.316.006-.55.075-.697.205-.148.13-.231.355-.248.675l2.16-.005v.62h-2.16v1.47h-.755v-1.65c-.001-.69.109-1.185.327-1.485zM160.019 138.846l1.53 3.59h-.84l-.33-.855h-1.561l-.319.855h-.796l1.516-3.59h.8zm-.956 2.095h1.07l-.545-1.38-.525 1.38zM162.908 138.846l.915 2.755.915-2.755h1.105v3.59h-.74l.06-2.795-.92 2.795h-.8l-.95-2.825.075 2.825h-.77v-3.59h1.11zM166.588 142.436v-3.59h.79v3.59h-.79zM168.898 139.821a2.158 2.158 0 0 0-.175.825v.163a1.706 1.706 0 0 0 .069.509.787.787 0 0 0 .165.298.5.5 0 0 0 .277.167c.105.021.213.032.323.032h.044l1.239-.005v.625h-1.274c-.203 0-.399-.018-.588-.055a1.23 1.23 0 0 1-.532-.255c-.2-.163-.34-.362-.42-.598a2.445 2.445 0 0 1-.13-.722 1.35 1.35 0 0 1-.003-.155c.002-.05.004-.1.008-.15.036-.566.19-.983.462-1.25s.68-.4 1.223-.4l1.255-.005v.615h-1.239c-.362.004-.597.124-.704.361zM171.269 139.846a1.56 1.56 0 0 1 .382-.643c.169-.165.39-.283.663-.353a2.987 2.987 0 0 1 .975-.06c.116.013.229.035.335.065.267.067.485.184.655.35s.295.382.375.645a2.902 2.902 0 0 1 .104.78c0 .144-.008.284-.024.42s-.044.267-.08.39a1.45 1.45 0 0 1-.38.653 1.412 1.412 0 0 1-.67.342c-.107.027-.217.046-.33.058s-.229.018-.346.018c-.103 0-.206-.007-.31-.02a3.348 3.348 0 0 1-.305-.055 1.407 1.407 0 0 1-.665-.342 1.433 1.433 0 0 1-.38-.653c-.034-.117-.06-.243-.078-.38s-.027-.275-.027-.415.008-.279.025-.417c.017-.138.043-.264.08-.377v-.006zm.779.255c-.023.09-.04.181-.05.272s-.015.183-.015.272c0 .093.006.186.018.277.012.092.027.181.047.268.037.153.098.287.183.4a.727.727 0 0 0 .357.25 1.204 1.204 0 0 0 .74 0 .745.745 0 0 0 .36-.25c.086-.113.146-.247.18-.4a2.315 2.315 0 0 0 0-1.085 1.017 1.017 0 0 0-.18-.402.717.717 0 0 0-.36-.248 1.216 1.216 0 0 0-.74 0 .716.716 0 0 0-.354.25 1.152 1.152 0 0 0-.186.4v-.004zM176.373 138.846l.915 2.755.915-2.755h1.105v3.59h-.74l.06-2.795-.92 2.795h-.8l-.95-2.825.075 2.825h-.77v-3.59h1.11zM183.093 138.846l.915 2.755.915-2.755h1.105v3.59h-.74l.06-2.795-.92 2.795h-.8l-.95-2.825.075 2.825h-.77v-3.59h1.11zM188.599 138.846l1.529 3.59h-.84l-.33-.855h-1.56l-.32.855h-.795l1.515-3.59h.801zm-.955 2.095h1.069l-.545-1.38-.524 1.38zM192.238 138.846c.036.003.072.005.107.005s.07.001.107.005c.137.007.271.028.402.065s.248.105.348.205c.09.087.157.188.202.305a1.29 1.29 0 0 1 .088.5c.003.25-.055.466-.173.647s-.303.302-.553.362l.896 1.495h-.85l-.79-1.41h-.891v1.41h-.755v-3.59h1.862zm-.18.64h-.925v.905h.925c.007.003.014.005.021.005h.02c.16 0 .307-.024.438-.072.132-.048.196-.176.193-.383 0-.213-.069-.341-.208-.385s-.292-.065-.463-.065v-.005zM194.883 138.846v1.725l1.415-1.725h.905l-1.44 1.755 1.455 1.835h-.965l-1.37-1.785v1.785h-.755v-3.59h.755zM199.288 139.846c.087-.264.214-.478.383-.643a1.43 1.43 0 0 1 .662-.353 2.96 2.96 0 0 1 .975-.06c.117.013.229.035.336.065.267.067.484.184.654.35s.295.382.375.645a2.9 2.9 0 0 1 .105.78c0 .144-.009.284-.025.42s-.043.267-.08.39c-.08.27-.206.488-.38.653a1.402 1.402 0 0 1-.67.342c-.106.027-.217.046-.33.058s-.229.018-.345.018c-.104 0-.207-.007-.311-.02a3.412 3.412 0 0 1-.305-.055 1.417 1.417 0 0 1-.665-.342 1.45 1.45 0 0 1-.38-.653 3.014 3.014 0 0 1-.105-.795c0-.14.009-.279.025-.417s.043-.264.08-.377v-.006zm.78.255a2.292 2.292 0 0 0 0 1.089c.036.153.098.287.183.4a.727.727 0 0 0 .357.25 1.216 1.216 0 0 0 .559.045 1.03 1.03 0 0 0 .18-.045.745.745 0 0 0 .36-.25c.087-.113.146-.247.18-.4a2.493 2.493 0 0 0 .066-.545 2.585 2.585 0 0 0-.066-.54 1.003 1.003 0 0 0-.18-.402.717.717 0 0 0-.36-.248 1.213 1.213 0 0 0-.739 0c-.153.053-.272.137-.355.25s-.145.247-.185.4v-.004zM204.238 138.846l1.47 2.58-.035-2.58h.77v3.59h-.875l-1.545-2.715.035 2.715h-.774v-3.59h.954zM207.961 142.383a.991.991 0 0 1-.548-.317 1.008 1.008 0 0 1-.271-.505 3.03 3.03 0 0 1-.055-.575v-2.14h.755v1.97c-.003.333.033.588.11.765.076.177.313.265.71.265l.89-.005v.595h-.955c-.226 0-.438-.018-.636-.053zM210.227 138.846l.885 1.37.9-1.37h.875l-1.385 2.005v1.585h-.755v-1.585l-1.365-2.005h.845z"/>
  </g>
  <g>
    <path d="M839.979 355.159H664.628c-4.404 0-8.007-3.603-8.007-8.007V286.91h191.365v60.242c0 4.404-3.603 8.007-8.007 8.007z" fill="#414244"/>
    <path d="M752.303 241.385c21.158 0 55.039-1.464 74.838-2.998 9.735-.754 16.298-2.133 19.881-6.423 9.381-11.232 6.819-26.761 6.819-40.355 0 0 1.778-.084 4.261-.084 2.92 0 6.275.582 6.928 2.333 8.238 22.094 18.138 56.991 13.908 65.096-1.511 2.895-5.263 6.035-8.296 11.573-3.207 5.856-2.856 10.055-2.909 14.2-.021 1.602-1.337 2.88-2.939 2.88H639.811c-1.602 0-2.919-1.278-2.939-2.88-.053-4.145.298-8.344-2.909-14.2-3.033-5.538-6.785-8.677-8.296-11.573-4.23-8.104 5.67-43.002 13.908-65.096.653-1.75 4.008-2.333 6.928-2.333 2.483 0 4.261.084 4.261.084 0 13.594-2.562 29.123 6.819 40.355 3.583 4.29 10.146 5.669 19.881 6.423 19.8 1.534 53.681 2.998 74.839 2.998z" fill="#454649"/>
    <path d="M853.377 217.42c-.963 4.227-2.838 7.653-7.13 7.653h-79.981c-4.286 0-7.792-3.507-7.792-7.792v-25.67h-12.339v25.67c0 4.286-3.507 7.792-7.792 7.792H658.36c-4.293 0-6.167-3.426-7.13-7.653h-.001c.898 5.249 2.74 10.216 6.355 14.545 3.583 4.29 10.146 5.669 19.881 6.423 19.799 1.534 53.68 2.998 74.838 2.998 21.158 0 55.039-1.464 74.838-2.998 9.735-.754 16.298-2.133 19.881-6.423 3.616-4.329 5.458-9.297 6.355-14.545" fill="#48494c"/>
    <linearGradient id="b" gradientUnits="userSpaceOnUse" x1="650.445" y1="208.341" x2="746.133" y2="208.341">
      <stop offset="0" stop-color="#575a5d"/>
      <stop offset=".063" stop-color="#595c5f"/>
      <stop offset=".085" stop-color="#5f6266"/>
      <stop offset=".101" stop-color="#6a6d71"/>
      <stop offset=".112" stop-color="#76797f"/>
      <stop offset=".136" stop-color="#6e7277"/>
      <stop offset=".194" stop-color="#63666c"/>
      <stop offset=".275" stop-color="#5c6065"/>
      <stop offset=".5" stop-color="#5a5e63"/>
      <stop offset=".887" stop-color="#585c61"/>
      <stop offset=".926" stop-color="#575b60"/>
      <stop offset=".957" stop-color="#505257"/>
      <stop offset="1" stop-color="#3f3e43"/>
    </linearGradient>
    <path d="M651.229 217.42c.963 4.227 2.838 7.653 7.13 7.653h79.981c4.286 0 7.792-3.507 7.792-7.792v-25.67h-95.369c.001 8.353-.966 17.439.466 25.809z" fill="url(#b)"/>
    <linearGradient id="c" gradientUnits="userSpaceOnUse" x1="854.161" y1="208.341" x2="758.473" y2="208.341">
      <stop offset="0" stop-color="#575a5d"/>
      <stop offset=".063" stop-color="#595c5f"/>
      <stop offset=".085" stop-color="#5f6266"/>
      <stop offset=".101" stop-color="#6a6d71"/>
      <stop offset=".112" stop-color="#76797f"/>
      <stop offset=".136" stop-color="#6e7277"/>
      <stop offset=".194" stop-color="#63666c"/>
      <stop offset=".275" stop-color="#5c6065"/>
      <stop offset=".5" stop-color="#5a5e63"/>
      <stop offset=".887" stop-color="#585c61"/>
      <stop offset=".926" stop-color="#575b60"/>
      <stop offset=".957" stop-color="#505257"/>
      <stop offset="1" stop-color="#3f3e43"/>
    </linearGradient>
    <path d="M853.377 217.42c-.963 4.227-2.838 7.653-7.13 7.653h-79.981c-4.286 0-7.792-3.507-7.792-7.792v-25.67h95.369c-.001 8.353.966 17.439-.466 25.809z" fill="url(#c)"/>
    <g fill="#4a4b52">
      <path d="M726.544 198.093h2.719v21.193h-2.719zM726.544 221.447h2.719v3.625h-2.719zM679.417 198.093h2.719v21.193h-2.719zM679.417 221.447h2.719v3.625h-2.719z"/>
    </g>
    <path d="M705.259 205.019l3.584 7.044h-1.968l-.773-1.678h-3.654l-.75 1.678h-1.862l3.549-7.044h1.874zm-2.237 4.111h2.506l-1.277-2.708-1.229 2.708z" fill="#4a4b52"/>
    <g fill="#4a4b52">
      <path d="M778.062 219.286h-2.719v-21.193h2.719zM778.062 225.072h-2.719v-3.625h2.719zM825.19 219.286h-2.72v-21.193h2.72zM825.19 225.072h-2.72v-3.625h2.72z"/>
    </g>
    <path d="M796.358 212.063v-7.044h4.532c.074.007.147.01.221.01.074 0 .148.003.221.01.606.02 1.173.111 1.701.274.528.164.873.524 1.038 1.079.139.504.1.927-.117 1.271-.216.343-.591.639-1.123.888.589.223.982.51 1.179.864.196.353.225.792.086 1.315-.147.536-.481.891-1.001 1.064a5.412 5.412 0 0 1-1.664.27h-5.073zm1.854-4.15h2.714c.352.007.643-.047.872-.162.23-.114.344-.329.344-.643.008-.308-.106-.52-.344-.638s-.528-.177-.872-.177l-2.714-.01v1.63zm3.617 2.742c.225-.121.337-.338.337-.652 0-.32-.113-.54-.337-.657-.225-.118-.518-.176-.878-.176l-2.738-.01v1.658h2.738c.36.012.653-.042.878-.163z" fill="#4a4b52"/>
    <path d="M652.542 216.044c6.102 2.779 12.715 4.324 16.356 4.324h68.599c2.554 0 5.504-.142 7.673-.491M852.064 216.044c-6.102 2.779-12.715 4.324-16.356 4.324H767.11c-2.554 0-5.504-.142-7.673-.491" fill="none" stroke="#47494e" stroke-width=".418" stroke-miterlimit="10"/>
    <path d="M751.808 281.611h50.461a4.06 4.06 0 0 0 4.048-4.048V256.34c0-6.195-48.314-7.634-54.509-7.634s-54.509 1.439-54.509 7.634v21.223a4.06 4.06 0 0 0 4.048 4.048h50.461z" fill="#45484d" stroke="#323135" stroke-width=".837" stroke-miterlimit="10"/>
    <g>
      <circle cx="789.171" cy="268.161" r="9.197" fill="none" stroke="#acbbc2" stroke-width=".251" stroke-miterlimit="10"/>
      <circle cx="789.171" cy="268.161" r="6.884" fill="#acbbc2"/>
      <g fill="#2a2c2b">
        <ellipse cx="785.918" cy="268.958" rx="2.827" ry="1.209"/>
        <path d="M793.021 271.243c0 .668-1.266 1.209-2.827 1.209s-2.827-.541-2.827-1.209c0-.667 1.266-1.209 2.827-1.209 1.562 0 2.827.541 2.827 1.209zM793.297 270.581c-.237-1.427-1.34-3.062-2.95-2.495 1.477-2.88 3.846-2.242 4.61-1.173.595.832.394 3.526-1.66 3.668z"/>
        <path d="M788.967 268.296c-.24-1.382-1.347-2.968-2.955-2.423 1.471-2.786 3.84-2.163 4.607-1.126.597.808.401 3.416-1.652 3.549z"/>
      </g>
      <g fill="#acbbc2">
        <path d="M782.548 263.443a.473.473 0 0 0-.065.155c-.009.048.009.085.052.11.033.02.066.018.099-.005a.343.343 0 0 0 .09-.098c.083-.132.126-.196.214-.322l.027-.035c.009-.012.018-.025.028-.036a.833.833 0 0 1 .09-.097.295.295 0 0 1 .106-.062.196.196 0 0 1 .098-.008c.032.006.06.017.085.033l.023.014.021.016c.086.071.121.153.105.24a.807.807 0 0 1-.142.297 6.09 6.09 0 0 0-.385.615l-.152-.085c.139-.248.213-.367.369-.595a.515.515 0 0 0 .073-.141c.013-.045-.004-.08-.053-.106-.038-.02-.072-.019-.102.006a.53.53 0 0 0-.09.1c-.076.11-.114.166-.186.28a.851.851 0 0 1-.226.259c-.078.053-.164.055-.257.001-.097-.056-.143-.137-.133-.238a.85.85 0 0 1 .141-.354c.173-.274.265-.405.458-.654l.137.108c-.178.229-.263.35-.425.602zM783.646 262.68c.061.056.12.083.175.083.056 0 .122-.042.201-.123.079-.081.119-.147.117-.202-.001-.055-.03-.112-.086-.172l-.401-.429c.085-.08.128-.119.215-.195l.388.447.023.026.021.027c.02.027.04.056.054.087a.26.26 0 0 1 .021.106.343.343 0 0 1-.045.16.842.842 0 0 1-.103.149c-.015.019-.031.036-.047.054l-.048.051-.048.047-.053.048a.97.97 0 0 1-.15.111.357.357 0 0 1-.164.051.239.239 0 0 1-.106-.019.412.412 0 0 1-.115-.074l-.026-.022-.451-.383c.076-.091.115-.135.194-.223l.434.395zM784.578 261.09l.005-.002a.268.268 0 0 1 .532-.144.314.314 0 0 1 .159.25.292.292 0 0 1-.038.155.483.483 0 0 1-.095.117c-.039.034-.08.067-.123.097l-.035.023a5.789 5.789 0 0 0-.293.207l.205.273c-.08.06-.12.091-.198.155l-.615-.76c.193-.157.293-.231.496-.371zm.096.146a5.989 5.989 0 0 0-.262.189l.173.231c.105-.079.158-.117.265-.191a.47.47 0 0 0 .124-.118c.029-.042.027-.087-.002-.134-.032-.052-.075-.074-.129-.058a.587.587 0 0 0-.169.081zM785.624 260.741a.226.226 0 0 0 .003.187c.262-.135.396-.196.669-.304l.063.158a6.111 6.111 0 0 0-.656.297.35.35 0 0 0 .059.082.203.203 0 0 0 .091.051.17.17 0 0 0 .102 0 .83.83 0 0 0 .101-.038l.007-.003.007-.003c.149-.07.225-.102.378-.163l.063.158a6.292 6.292 0 0 0-.38.163 1.47 1.47 0 0 1-.179.07c-.06.019-.122.025-.187.019a.384.384 0 0 1-.202-.076.56.56 0 0 1-.156-.186l-.018-.037c-.065-.141-.073-.267-.019-.378.053-.111.172-.214.354-.299.168-.079.253-.115.425-.184l.063.158a7.078 7.078 0 0 0-.412.176c-.092.043-.15.095-.176.152zM787.027 259.965a2.205 2.205 0 0 0 .076-.018.934.934 0 0 1 .148-.018.32.32 0 0 1 .136.026.248.248 0 0 1 .143.174l.004.019a.267.267 0 0 1-.022.185.323.323 0 0 1-.162.138c.157.13.233.197.378.334a6.039 6.039 0 0 0-.267.058 6.08 6.08 0 0 0-.35-.306c-.117.032-.175.05-.29.087l.119.365c-.093.03-.139.046-.231.079l-.335-.918c.259-.094.39-.134.653-.205zm-.016.186a6.12 6.12 0 0 0-.319.095l.076.234c.123-.039.185-.058.309-.092l.007-.001.007-.002a.611.611 0 0 0 .142-.058c.041-.024.054-.063.04-.117-.014-.056-.046-.085-.097-.084a.682.682 0 0 0-.165.025zM788.523 259.839c.072-.087.245-.142.515-.144.168-.002.252-.001.42.005l-.007.17a6.99 6.99 0 0 0-.434-.006.436.436 0 0 0-.246.063c-.051.038-.077.1-.077.188.299-.017.449-.018.748-.006l-.007.168a6.367 6.367 0 0 0-.731.005l.022.399c-.097.005-.145.009-.241.017a67.445 67.445 0 0 0-.041-.447c-.019-.187.007-.325.079-.412zM790.305 259.779c.163.419.231.631.338 1.054a4.595 4.595 0 0 0-.265-.052 7.518 7.518 0 0 0-.066-.247 5.893 5.893 0 0 0-.513-.065 6.983 6.983 0 0 0-.124.223 5.448 5.448 0 0 0-.255-.015c.211-.382.33-.57.594-.934.117.012.175.019.291.036zm-.407.524c.144.015.216.024.36.046a7.424 7.424 0 0 0-.135-.397 8.688 8.688 0 0 0-.225.351zM791.338 260.001c.046.325.063.487.083.81.211-.246.323-.366.556-.599.152.057.228.088.378.154l-.395.894a4.686 4.686 0 0 0-.221-.092c.121-.28.181-.419.304-.698-.237.233-.35.354-.564.601-.098-.034-.147-.051-.245-.081a8.377 8.377 0 0 0-.095-.827c-.069.3-.104.45-.176.749a5.258 5.258 0 0 0-.24-.06l.223-.951c.156.035.235.055.392.1zM792.179 261.36l.426-.88c.106.051.158.077.262.132l-.458.864a6.18 6.18 0 0 0-.23-.116zM793.218 261.119a.462.462 0 0 0-.171.159l-.023.038a.347.347 0 0 0-.052.131.193.193 0 0 0 .005.098c.01.035.028.065.055.089a.73.73 0 0 0 .086.067l.006.004.006.004c.139.093.208.141.342.243l-.103.136a5.384 5.384 0 0 0-.344-.245 1.33 1.33 0 0 1-.154-.118.464.464 0 0 1-.114-.151.387.387 0 0 1-.04-.212.555.555 0 0 1 .078-.23l.022-.034c.087-.128.191-.201.314-.212s.274.036.443.149c.157.104.234.159.386.274l-.101.134a6.315 6.315 0 0 0-.372-.266c-.112-.075-.202-.092-.269-.058zM793.919 261.622a.414.414 0 0 1 .22-.047.583.583 0 0 1 .254.09 1.443 1.443 0 0 1 .287.243c.03.034.057.069.08.103a.6.6 0 0 1 .108.249.394.394 0 0 1-.089.316.66.66 0 0 1-.263.2.41.41 0 0 1-.221.022.579.579 0 0 1-.227-.101 2.019 2.019 0 0 1-.179-.145 1.292 1.292 0 0 1-.139-.155.568.568 0 0 1-.111-.217.417.417 0 0 1 .01-.221.636.636 0 0 1 .105-.193.679.679 0 0 1 .077-.084.439.439 0 0 1 .086-.063l.002.003zm.177.236a.52.52 0 0 0-.192.226.268.268 0 0 0-.023.124.278.278 0 0 0 .047.133.511.511 0 0 0 .186.175.28.28 0 0 0 .137.04.257.257 0 0 0 .122-.031.476.476 0 0 0 .211-.207.244.244 0 0 0 .03-.125.285.285 0 0 0-.049-.144.523.523 0 0 0-.09-.108c-.018-.016-.036-.032-.055-.046a.636.636 0 0 0-.059-.037.267.267 0 0 0-.144-.037.268.268 0 0 0-.122.038l.001-.001zM795.472 262.828c-.15.299-.23.445-.4.727a7.58 7.58 0 0 1 .821-.114c.096.154.143.234.232.396l-.856.47a5.33 5.33 0 0 0-.135-.235l.664-.371a7.48 7.48 0 0 0-.829.108 5.713 5.713 0 0 0-.161-.235c.171-.29.251-.44.4-.747-.233.201-.35.301-.585.5-.067-.085-.1-.127-.169-.208l.742-.636c.113.134.169.203.276.345z"/>
      </g>
      <g fill="#acbbc2">
        <path d="M781.658 271.819a.41.41 0 0 1-.013-.2.207.207 0 0 1 .066-.127.473.473 0 0 1 .108-.066l.43-.178c.036.088.055.131.094.217l-.391.176a.29.29 0 0 0-.137.102c-.024.039-.009.121.049.24.053.107.08.16.135.263l-.114.062a7.75 7.75 0 0 1-.146-.288 1.724 1.724 0 0 1-.081-.201zM781.95 272.429l.682-.382c.046.084.07.125.118.206l-.67.403a8.357 8.357 0 0 1-.13-.227zM782.815 272.755a.367.367 0 0 0-.178.056l-.029.02a.292.292 0 0 0-.079.082.184.184 0 0 0-.004.174c.015.03.033.059.053.088l.004.006.004.006c.092.128.139.19.236.311l-.106.086a6.186 6.186 0 0 1-.245-.327 1.205 1.205 0 0 1-.098-.162.487.487 0 0 1-.049-.175.316.316 0 0 1 .148-.304.23.23 0 0 1 .028-.019c.009-.005.019-.011.029-.015a.361.361 0 0 1 .304-.028c.092.036.182.12.275.25.085.119.129.177.219.29a7.718 7.718 0 0 1-.105.084 7.183 7.183 0 0 1-.22-.292c-.066-.09-.127-.134-.187-.131zM783.446 273.525a.185.185 0 0 0-.145.039c.163.188.248.277.423.448l-.095.098a6.453 6.453 0 0 1-.431-.457.231.231 0 0 0-.051.062.155.155 0 0 0-.017.086.17.17 0 0 0 .029.088.558.558 0 0 0 .062.078l.005.005.005.005a6.8 6.8 0 0 0 .266.271l-.095.098a6.222 6.222 0 0 1-.277-.285 1.24 1.24 0 0 1-.114-.144.467.467 0 0 1-.068-.163.305.305 0 0 1 .016-.185.374.374 0 0 1 .122-.153.631.631 0 0 1 .027-.019.366.366 0 0 1 .296-.07c.095.022.192.091.297.204.097.104.146.154.247.252l-.095.098a5.983 5.983 0 0 1-.248-.255c-.057-.058-.108-.092-.159-.101zM784.278 274.087a7.076 7.076 0 0 0-.029.702l.336-.452c.067.052.101.077.169.127l-.461.634a6.503 6.503 0 0 1-.212-.159 7.105 7.105 0 0 1 .026-.747l-.382.453a6.507 6.507 0 0 1-.177-.159l.531-.576c.079.072.119.108.199.177zM785.111 274.872a.298.298 0 0 0-.109-.042c-.034-.005-.061.01-.083.043-.017.026-.018.051-.002.077a.202.202 0 0 0 .069.067 5.986 5.986 0 0 0 .271.162l.029.017c.028.018.055.037.079.059s.043.046.057.074a.16.16 0 0 1 .018.075.214.214 0 0 1-.014.071l-.008.02-.009.019c-.043.079-.103.119-.177.116a.594.594 0 0 1-.26-.09 6.829 6.829 0 0 1-.51-.323l.079-.115c.185.127.279.187.471.3a.376.376 0 0 0 .119.049c.038.007.064-.012.079-.052.012-.032.009-.058-.012-.08a.46.46 0 0 0-.083-.063 7.132 7.132 0 0 1-.219-.134.505.505 0 0 1-.185-.179c-.032-.062-.024-.129.027-.199.054-.073.116-.105.186-.098.07.007.148.039.236.095.182.114.276.167.465.267l-.066.123a6.855 6.855 0 0 1-.448-.259zM785.933 275.364a.195.195 0 0 0-.115.095c.213.099.322.145.541.227l-.049.127a6.624 6.624 0 0 1-.551-.232.243.243 0 0 0-.023.077.154.154 0 0 0 .016.084.158.158 0 0 0 .057.066.512.512 0 0 0 .09.047l.006.003c.133.057.201.084.336.134l-.049.127a6.278 6.278 0 0 1-.351-.142 1.118 1.118 0 0 1-.154-.081.415.415 0 0 1-.119-.117.295.295 0 0 1-.053-.171.383.383 0 0 1 .039-.157.419.419 0 0 1 .031-.058c.066-.105.145-.167.237-.187.092-.02.204.001.339.059.124.053.187.078.313.125l-.049.127a6.092 6.092 0 0 1-.315-.127c-.071-.03-.129-.039-.177-.026zM787.059 275.583c.141.041.239.096.296.169.057.073.077.171.06.293a.306.306 0 0 1-.014.064.426.426 0 0 1-.071.145.285.285 0 0 1-.15.098.396.396 0 0 1-.164.016 1.094 1.094 0 0 1-.172-.035 7.088 7.088 0 0 1-.469-.149l.264-.736c.167.06.251.087.42.135zm-.043.13a5.936 5.936 0 0 1-.227-.069l-.159.484c.097.031.145.046.242.074l.006.003.006.002a.627.627 0 0 0 .092.019.157.157 0 0 0 .088-.015.159.159 0 0 0 .065-.054.29.29 0 0 0 .046-.101l.008-.032.009-.033a.384.384 0 0 0 .01-.111.157.157 0 0 0-.028-.075.158.158 0 0 0-.064-.056.622.622 0 0 0-.083-.031l-.006-.002-.006-.002.001-.001zM788.034 276.584l.108-.774c.195.026.293.036.489.05l.024.003.024.003c.062.008.126.02.183.04a.17.17 0 0 1 .11.123c.014.056.008.103-.017.141a.285.285 0 0 1-.131.094c.066.027.111.061.132.1a.19.19 0 0 1 .006.146.166.166 0 0 1-.122.114.634.634 0 0 1-.201.019l-.013-.001-.013-.001a6.558 6.558 0 0 1-.579-.057zm.272-.43c.122.013.183.019.306.027a.203.203 0 0 0 .099-.012c.027-.011.042-.034.044-.069.002-.034-.009-.058-.035-.073a.208.208 0 0 0-.095-.025 7.549 7.549 0 0 1-.299-.028l-.02.18zm.39.337c.027-.012.041-.035.043-.07.002-.035-.01-.061-.034-.075a.233.233 0 0 0-.101-.026 6.616 6.616 0 0 1-.313-.029l-.021.183c.128.014.192.02.321.029.042.003.077 0 .105-.012zM789.219 275.88c.095.119.144.177.246.293.096-.123.141-.185.229-.31.093-.006.14-.01.233-.019-.13.188-.199.281-.347.462l.017.344c-.089.004-.133.006-.222.008l-.008-.345a6.302 6.302 0 0 1-.374-.436c.09.003.135.003.226.003zM790.733 275.723c.2.188.306.279.527.454l-.153-.541c.08-.021.12-.031.199-.054l.221.75c-.099.029-.149.042-.249.068a6.74 6.74 0 0 1-.562-.479l.128.577a5.521 5.521 0 0 1-.224.041l-.135-.769c.098-.017.148-.027.248-.047zM791.734 276.27l-.241-.744c.081-.025.121-.039.201-.066l.262.737c-.089.03-.133.045-.222.073zM792.12 275.297c.234.146.355.215.608.344l-.255-.502a6.42 6.42 0 0 0 .186-.092l.362.694a7.26 7.26 0 0 1-.234.116 6.416 6.416 0 0 1-.647-.362l.237.543a5.58 5.58 0 0 1-.214.084l-.281-.73c.096-.037.144-.056.238-.095zM792.811 275.122l-.065-.12a6.11 6.11 0 0 0 .72-.437l.078.112a6.61 6.61 0 0 1-.27.178l.345.546c-.079.05-.119.074-.2.121l-.329-.555a5.926 5.926 0 0 1-.279.155zM793.849 274.515a.187.187 0 0 0 .029.146c.192-.144.285-.22.467-.38l.09.103a6.452 6.452 0 0 1-.477.387.252.252 0 0 0 .057.056c.022.015.05.024.083.025a.157.157 0 0 0 .087-.02.591.591 0 0 0 .08-.054l.005-.004a6.459 6.459 0 0 0 .29-.244l.09.103a6.943 6.943 0 0 1-.299.25 1.04 1.04 0 0 1-.148.1.404.404 0 0 1-.162.051.3.3 0 0 1-.178-.033.381.381 0 0 1-.121-.108c-.007-.009-.015-.018-.02-.027a.419.419 0 0 1-.017-.028c-.062-.108-.079-.207-.052-.298s.099-.181.217-.274c.108-.087.161-.132.265-.224l.09.103a5.126 5.126 0 0 1-.268.224c-.06.049-.096.096-.108.146zM794.465 273.733c.275.044.416.059.702.077l-.423-.371c.058-.065.087-.098.144-.166l.594.51a5.955 5.955 0 0 1-.181.207 6.45 6.45 0 0 1-.746-.078l.42.418c-.068.067-.103.1-.173.165l-.53-.577a6.77 6.77 0 0 0 .193-.185zM795.305 272.73c.092-.131.182-.217.274-.254.092-.038.193-.03.304.025l.029.015a.421.421 0 0 1 .141.136c.03.049.043.111.038.185a.459.459 0 0 1-.046.174 1.36 1.36 0 0 1-.098.166 7.302 7.302 0 0 1-.318.428l-.608-.493c.117-.148.174-.225.284-.382zm.109.082a6.56 6.56 0 0 1-.151.209l.405.309a7 7 0 0 0 .166-.228l.004-.006a.735.735 0 0 0 .052-.089.185.185 0 0 0 .019-.094.164.164 0 0 0-.027-.083.303.303 0 0 0-.054-.059l-.026-.02-.027-.018-.029-.019c-.01-.007-.021-.012-.032-.017a.412.412 0 0 0-.072-.027.146.146 0 0 0-.082.007.172.172 0 0 0-.077.049.765.765 0 0 0-.061.075l-.004.006-.004.005c0 .001 0 .001 0 0zM795.824 272.32c-.036-.052-.056-.11-.062-.172s.004-.133.029-.214a1.997 1.997 0 0 1 .073-.179 1.07 1.07 0 0 1 .107-.181.55.55 0 0 1 .153-.155.332.332 0 0 1 .262-.047.52.52 0 0 1 .165.068.309.309 0 0 1 .148.232c.009.069 0 .15-.026.239a1.352 1.352 0 0 1-.137.306c-.018.029-.038.057-.058.085a.541.541 0 0 1-.171.158.3.3 0 0 1-.184.036.463.463 0 0 1-.166-.059.56.56 0 0 1-.074-.054.339.339 0 0 1-.058-.063h-.001zm.168-.184a.223.223 0 0 0 .044.043.305.305 0 0 0 .105.057.407.407 0 0 0 .058.014c.034.005.07.002.104-.01a.26.26 0 0 0 .103-.079.364.364 0 0 0 .036-.049c.011-.018.022-.036.032-.056a.724.724 0 0 0 .025-.058c.008-.02.013-.04.018-.059a.261.261 0 0 0 .002-.133.187.187 0 0 0-.054-.091.344.344 0 0 0-.215-.099.195.195 0 0 0-.103.016.251.251 0 0 0-.097.08.637.637 0 0 0-.086.153l-.017.054a.246.246 0 0 0-.003.123.221.221 0 0 0 .048.094z"/>
      </g>
    </g>
    <g>
      <g fill="#acbbc2">
        <path d="M722.807 279.371v-.458h.84c.697 0 .852-.006.911-.037l.111-.037a.907.907 0 0 0 .202-.085c.204-.106.637-.53.637-.622l.051-.188a.59.59 0 0 0 .044-.255l-.008-.126-1.289-.006c-1.176-.006-1.291-.01-1.319-.048-.022-.029-.031-.159-.031-.432 0-.321.007-.397.039-.429.034-.035.22-.039 1.67-.039 1.387 0 1.635.005 1.66.036.022.026.027.22.021.738-.007.619-.013.711-.051.769l-.044.11-.062.168-.061.169c0 .025.092.144.204.264.373.4.539.594.539.63l.031.056.091.088.031.13-.029.062h-.838l-.178-.187a1.65 1.65 0 0 1-.204-.246c-.036-.078-.106-.093-.172-.035l-.08.047-.065.036-.406.212-.127.049-.179.065-.096.038c-.008.012-.424.022-.929.022h-.916v-.459z"/>
        <path d="M726.84 278.598c-.09-.014-.096-.047-.088-.491l.007-.372 1.472-.007c1.066-.005 1.481.002 1.505.022.026.021.034.117.034.406 0 .321-.006.383-.041.412-.034.028-.292.035-1.431.037-.764.002-1.42-.001-1.458-.007zM729.677 279.8v-.932l.82-.153c.277-.107.349-.28.427-.62.016-.088.036-.199.036-.745.001-.497.009-.691.031-.712l.6.009c.058.058.058 1.924 0 2.092-.055.158-.189 1.089-1.105 1.09h-.381c-.277.001-.408-.009-.428-.029zM734.137 278.598l-.083-.078.011-.766c.016-.024.342-.031 1.492-.031 1.43 0 1.473.001 1.498.048l-.01.784c-.034.047-.08.048-1.444.051a50.755 50.755 0 0 1-1.464-.008zM738.286 279.791c-.03-.078-.017-.891.015-.923.022-.022.279-.03 1.001-.03.792 0 .985-.006 1.042-.035.039-.019.154-.061.256-.093.234-.072.387-.176.49-.331l.081-.122-.006-.384-.007-.384-1.556-.006-1.556-.006-.024-.063a2.103 2.103 0 0 1-.024-.384c0-.288.005-.326.05-.37.049-.049.083-.049 1.919-.049 1.666 0 1.873.004 1.908.039.034.034.039.148.039.881 0 .794-.003.852-.053 1.008-.055.17-.118.326-.19.471-.052.104-.455.5-.509.5l-.04.023c0 .051-.256.172-.483.228l-.123.048c-.014.014-.466.023-1.119.023-.977-.002-1.098-.007-1.111-.041zM742.436 279.795c-.019-.023-.026-.149-.022-.389l.007-.355.062-.017c.034-.009.256-.018.493-.02l.432-.003.083-.093c.076-.085.083-.106.083-.256 0-.255-.03-.243.648-.252.546-.006.59-.01.641-.057l.085-.214c-.014-.044-.067-.047-1.325-.047-.72 0-1.327-.007-1.349-.015v-.713a49.41 49.41 0 0 1 1.668-.015c1.234 0 1.636.007 1.658.03.042.041.039 1.007-.003 1.16-.071.256-.183.394-.427.524l-.148.079-.465.01-.465.01v.126a.53.53 0 0 1-.311.489c-.088.045-.147.049-.707.049-.489.004-.615-.003-.638-.031zM750.37 279.912c-.023-.009-.031-.124-.031-.453 0-.38.006-.445.041-.475.034-.028.335-.036 1.642-.047l1.601-.013.007-.617c.006-.548.002-.622-.035-.663-.039-.044-.116-.046-1.6-.046-1.027 0-1.576-.009-1.607-.026-.044-.023-.048-.055-.048-.408 0-.352.004-.384.048-.408h3.943c.047.025.048.069.048 1.583v1.557l-.056.015-3.953.001zM754.83 279.913l-.007-.851c.021-.032.189-.038 1.216-.044.945-.005 1.036-.001 1.246-.04.261-.085.375-.1.579-.306a.825.825 0 0 0 .245-.42c.031-.266.035-.201.035-.757 0-.513.008-.71.03-.732l.61-.008c.027.017.031.212.025 1.038-.007.927.003.908-.052 1.065a1.67 1.67 0 0 1-.367.557c-.177.176-.255.233-.424.311-.44.206-.299.19-1.78.196a37.813 37.813 0 0 1-1.356-.009zM734.017 279.801c-.021.021-.151.03-.427.03h-.381c-.916-.002-1.05-.932-1.105-1.09-.058-.168-.058-2.034 0-2.092l.6-.009c.021.021.03.215.031.712 0 .545.021.657.036.745.078.34.15.513.427.62l.82.153v.931z"/>
        <path d="M733.497 276.531a.671.671 0 1 0 0 1.342.671.671 0 0 0 0-1.342zm0 .863a.191.191 0 0 1 0-.382.191.191 0 1 1 0 .382zM749.901 277.735l-3.81-.334-.119-.13v-.559l.119-.11 3.81.333.119.131v.559zM749.901 278.785l-3.81-.333-.119-.13v-.56l.119-.109 3.81.333.119.131v.559zM749.901 279.836l-3.81-.334-.119-.13v-.559l.119-.11 3.81.333.119.131v.559z"/>
        <path d="M757.286 277.653h-2.312a.152.152 0 0 1-.151-.151v-.749c0-.083.068-.151.151-.151h2.312c.083 0 .151.068.151.151v.749a.152.152 0 0 1-.151.151z" fill-rule="evenodd" clip-rule="evenodd"/>
      </g>
      <path d="M760.824 276.307a.434.434 0 0 0 .036.002l.036.002a.56.56 0 0 1 .135.022.268.268 0 0 1 .117.068c.03.029.052.063.068.102a.417.417 0 0 1 .027.12l.001.024a.371.371 0 0 1-.056.239.29.29 0 0 1-.185.121l.3.5h-.284l-.265-.472h-.297v.472h-.252v-1.201h.619zm-.059.214h-.31v.303h.31l.007.002h.007a.4.4 0 0 0 .146-.025c.044-.016.065-.059.065-.128 0-.072-.023-.114-.069-.129a.503.503 0 0 0-.154-.022v-.001z" fill="#acbbc2"/>
      <circle cx="760.752" cy="276.907" r="1.25" fill="none" stroke="#acbbc2" stroke-width=".209" stroke-miterlimit="10"/>
    </g>
    <g fill="#acbbc2">
      <path d="M718.231 257.489v-.668h1.223c1.015 0 1.241-.009 1.326-.054l.162-.054c.032 0 .165-.056.295-.124.297-.154.928-.771.928-.906l.074-.274a.855.855 0 0 0 .063-.371l-.011-.184-1.877-.009c-1.713-.009-1.881-.015-1.922-.07-.032-.043-.045-.231-.045-.629 0-.468.01-.578.057-.624.05-.051.32-.057 2.432-.057 2.021 0 2.381.007 2.418.052.032.038.04.321.031 1.075-.01.902-.019 1.035-.074 1.12l-.064.161-.09.245-.089.247c0 .036.134.209.298.385.543.583.785.865.785.918l.045.082.132.128.046.19-.042.09h-1.22l-.259-.272a2.579 2.579 0 0 1-.298-.358c-.052-.114-.154-.135-.251-.051l-.116.068-.095.052-.592.308-.184.072-.261.094-.139.055c-.011.018-.617.032-1.353.032h-1.333v-.669z"/>
      <path d="M724.105 256.363c-.131-.021-.14-.068-.128-.715l.01-.541 2.143-.01c1.553-.007 2.157.002 2.193.032.038.031.049.171.049.591 0 .468-.009.558-.06.6-.049.041-.426.051-2.085.054a83.496 83.496 0 0 1-2.122-.011zM753.974 256.363l-.12-.113.016-1.116c.023-.035.498-.045 2.173-.045 2.083 0 2.145.002 2.182.07l-.014 1.141c-.049.068-.117.07-2.102.074a73.929 73.929 0 0 1-2.135-.011zM729.063 258.1c-.043-.113-.024-1.298.021-1.344.032-.032.406-.043 1.459-.043 1.154 0 1.435-.009 1.518-.051.056-.028.224-.089.373-.135.341-.106.563-.256.713-.483l.118-.178-.009-.56-.01-.56-2.266-.009-2.266-.009-.035-.092c-.02-.051-.035-.303-.035-.559 0-.419.007-.475.073-.54.071-.071.12-.072 2.795-.072 2.427 0 2.729.006 2.779.057.049.049.056.216.056 1.283 0 1.157-.004 1.241-.078 1.468a4.638 4.638 0 0 1-.277.685c-.076.152-.663.729-.742.729l-.059.034c0 .074-.372.25-.704.332l-.179.07c-.02.02-.679.034-1.63.034-1.419-.001-1.595-.007-1.615-.057zM735.108 258.106c-.028-.034-.038-.217-.032-.567l.01-.517.09-.025c.049-.013.373-.026.718-.029l.629-.004.12-.135c.111-.125.121-.155.121-.372 0-.372-.044-.355.944-.367.795-.009.859-.015.934-.082l.124-.311c-.021-.065-.098-.068-1.929-.068-1.049 0-1.933-.01-1.965-.022v-1.039c.031-.012 1.124-.022 2.429-.022 1.797 0 2.383.01 2.416.043.06.06.057 1.467-.005 1.689-.103.373-.267.574-.621.763l-.215.115-.677.015-.677.015v.184c0 .312-.16.564-.453.713-.128.065-.215.071-1.03.071-.714.002-.897-.007-.931-.048zM745.98 255.106l-5.549-.486-.173-.19v-.814l.173-.16 5.549.485.174.191v.814zM745.98 256.636l-5.549-.486-.173-.19v-.815l.173-.159 5.549.485.174.191v.814zM745.98 258.166l-5.549-.486-.173-.19v-.815l.173-.16 5.549.486.174.191v.814zM751.987 253.671h-4.191c.005.1-.074.404-.29.709a1.291 1.291 0 0 1-.483.405v1.334c.102-.002.871-.031 1.358-.674.341-.45.345-.938.34-1.092h3.227l-.001.386-.001.352c-.001.259-3.225.201-3.225.201l-.005.846s2.96-.036 3.03.084c.037.063-.057.24-.13.319-.277.3-.399.273-.636.341-.28.08-.609.067-1.893.075-1.396.009-1.625.018-1.653.065l.009 1.24c.023.011.853.016 1.843.011 2.012-.009 1.82.014 2.418-.286.229-.115.335-.198.576-.453.278-.295.387-.547.499-.811.074-.228.06-.201.07-1.551.009-1.203.003-1.487-.034-1.512l-.828.011zM762.67 255.215h2.307a.125.125 0 0 0 .124-.124v-.876a.125.125 0 0 0-.124-.124h-2.307v-.627a.133.133 0 0 0-.132-.132h-1.319a.133.133 0 0 0-.132.132v.627h-2.242a.125.125 0 0 0-.124.124v.876c0 .068.056.124.124.124h2.242v3.071c0 .072.059.132.132.132h1.319a.133.133 0 0 0 .132-.132v-3.071z"/>
      <path d="M759.405 255.585s1.034.019 1.033 0l-.02 1.447c0 .718-.794 1.368-1.909 1.368 0 0-.208-.801-.128-1.329 0 0 .551.055.794-.161.315-.28.23-1.325.23-1.325zM764.415 255.585s-1.034.019-1.033 0l.02 1.447c0 .718.794 1.368 1.909 1.368 0 0 .208-.801.128-1.329 0 0-.551.055-.794-.161-.316-.28-.23-1.325-.23-1.325zM763.624 253.869h-.288a.367.367 0 0 1-.366-.366c0-.201.165-.366.366-.366h.288c.201 0 .366.165.366.366a.367.367 0 0 1-.366.366zM764.854 253.869h-.288a.367.367 0 0 1-.366-.366c0-.201.165-.366.366-.366h.288c.201 0 .366.165.366.366a.367.367 0 0 1-.366.366z"/>
    </g>
    <g>
      <path d="M718.299 269.121c-.601 3.574-1.779 5.361-3.535 5.361-1.683 0-2.235-1.719-1.658-5.157l1.308-7.784h1.097l-1.235 7.349c-.42 2.497-.126 3.746.881 3.746.97 0 1.658-1.204 2.063-3.613l1.257-7.483h1.096l-1.274 7.581zM724.389 263.334h-2.469l-.643 3.825h2.275l-.3 1.784h-2.275l-.895 5.326h-1.097l2.139-12.728h3.565l-.3 1.793zM728.774 274.269h-1.202l-.05-3.24h-2.598l-1.115 3.24h-1.198l4.612-12.728h1.235l.316 12.728zm-1.253-4.962l-.063-5.077c0-.165.016-.432.047-.799h-.019c-.084.337-.16.603-.226.799l-1.76 5.077h2.021zM736.775 274.269h-1.087l1.384-8.237c.113-.674.273-1.5.48-2.476h-.018c-.161.556-.288.955-.381 1.198l-3.57 9.515h-.756l-.389-9.444c-.009-.278.004-.701.038-1.269h-.018c-.061.509-.188 1.34-.382 2.494l-1.381 8.219h-1.014l2.139-12.728h1.543l.313 8.477c.023.651.027 1.136.013 1.455h.023c.226-.669.402-1.165.527-1.491l3.187-8.441h1.488l-2.139 12.728zM739.525 274.269h-1.129l2.139-12.728h1.129l-2.139 12.728zM750.524 263.334h-1.9l-1.84 10.935h-1.098l1.84-10.935h-1.896l.302-1.793h4.893l-.301 1.793zM755.605 269.121c-.601 3.574-1.781 5.361-3.54 5.361-1.685 0-2.238-1.719-1.659-5.157l1.31-7.784h1.098l-1.236 7.349c-.42 2.497-.126 3.746.882 3.746.972 0 1.66-1.204 2.065-3.613l1.259-7.483h1.097l-1.276 7.581zM761.404 274.269h-1.282l-.483-3.408a8.147 8.147 0 0 0-.144-.803 2.638 2.638 0 0 0-.185-.546.746.746 0 0 0-.254-.31.642.642 0 0 0-.358-.098h-.443l-.869 5.166h-1.093l2.141-12.728h2.177c.31 0 .584.071.822.213.237.142.429.357.575.643.145.287.237.645.274 1.074.037.429.007.931-.089 1.504-.076.45-.18.863-.312 1.239a5.45 5.45 0 0 1-.464 1.003 3.66 3.66 0 0 1-.588.75 2.515 2.515 0 0 1-.687.48l-.006.036c.098.13.178.274.242.43a5.668 5.668 0 0 1 .315 1.047c.043.21.089.454.137.732l.574 3.576zm-2.165-11.016l-.696 4.136h.914c.169 0 .333-.05.493-.151.16-.1.309-.245.445-.435s.256-.42.36-.692c.104-.272.185-.577.242-.914.102-.609.082-1.086-.06-1.429-.142-.343-.401-.515-.776-.515h-.922zM762.173 274.269l2.141-12.728h2.098c.64 0 1.1.27 1.384.808.283.538.352 1.24.207 2.103-.122.722-.334 1.349-.635 1.882s-.659.911-1.072 1.136l-.006.036c.438.101.747.425.928.972.18.547.196 1.259.049 2.135-.183 1.089-.554 1.97-1.114 2.645-.559.674-1.179 1.012-1.858 1.012h-2.122zm2.949-11.033l-.609 3.621h.711c.381 0 .709-.173.984-.519.275-.346.466-.836.572-1.469.183-1.089-.103-1.633-.859-1.633h-.799zm-.895 5.316l-.678 4.03h.936c.409 0 .755-.182 1.04-.546.284-.364.48-.866.587-1.504.222-1.319-.142-1.979-1.092-1.979h-.793zM770.568 274.482c-.953 0-1.616-.595-1.99-1.784-.373-1.189-.399-2.737-.079-4.642.344-2.047.912-3.681 1.7-4.9s1.685-1.828 2.687-1.828c.928 0 1.577.591 1.945 1.775.368 1.183.392 2.731.07 4.642-.349 2.077-.916 3.719-1.7 4.926-.784 1.207-1.662 1.811-2.633 1.811zm1.952-11.3c-.606 0-1.172.435-1.697 1.305-.526.87-.909 2.015-1.148 3.435-.238 1.414-.245 2.553-.021 3.417.223.864.634 1.296 1.23 1.296.633 0 1.202-.411 1.707-1.234.504-.822.881-1.973 1.13-3.452.256-1.521.276-2.695.06-3.524-.217-.828-.637-1.243-1.261-1.243zM713.255 262.677a3.109 3.109 0 0 1-.08.394l-.069.233a1.8 1.8 0 0 1-.085.214.717.717 0 0 1-.097.151c-.034.039-.069.058-.105.058-.05 0-.112-.042-.189-.126a2.22 2.22 0 0 0-.302-.267 2.592 2.592 0 0 0-.453-.267 1.47 1.47 0 0 0-.635-.126c-.274 0-.521.06-.742.18-.222.12-.415.282-.58.486a2.668 2.668 0 0 0-.401.694 3.325 3.325 0 0 0-.207.807c-.036.285-.024.534.036.748.06.214.149.408.268.583.119.174.259.34.42.495l.494.476c.167.162.331.336.492.52.159.185.295.399.405.642.11.243.188.521.236.835.047.314.045.679-.007 1.093a5.365 5.365 0 0 1-.433 1.55 4.658 4.658 0 0 1-.83 1.263c-.334.36-.719.644-1.153.855a3.171 3.171 0 0 1-1.404.316c-.274 0-.524-.034-.75-.102a2.899 2.899 0 0 1-.603-.252 2.401 2.401 0 0 1-.437-.311 1.231 1.231 0 0 1-.245-.287c-.048-.084-.061-.208-.04-.369.005-.039.015-.094.031-.165.016-.072.036-.149.06-.234.025-.084.049-.167.076-.248.026-.081.056-.155.089-.223a.861.861 0 0 1 .101-.165c.035-.042.073-.063.113-.063.072 0 .154.052.249.155.094.104.214.215.357.336.144.12.319.232.525.335.206.104.457.156.753.156.314 0 .602-.063.864-.19.263-.126.491-.298.688-.515.196-.217.357-.471.483-.762.126-.292.211-.603.253-.933.037-.291.027-.546-.03-.763s-.144-.413-.261-.588a2.72 2.72 0 0 0-.418-.486 17.415 17.415 0 0 1-.492-.466 7.08 7.08 0 0 1-.481-.52 2.63 2.63 0 0 1-.395-.642 3.227 3.227 0 0 1-.232-.835 4.008 4.008 0 0 1 .009-1.103c.065-.512.196-.991.392-1.438.196-.447.443-.839.741-1.176a3.433 3.433 0 0 1 1.029-.797 2.762 2.762 0 0 1 1.254-.291c.215 0 .417.026.605.078.189.052.356.115.504.189.147.074.271.156.372.243.101.087.168.16.201.219a.558.558 0 0 1 .065.18c.003.059.003.135-.009.226z" fill="#acbbc2"/>
    </g>
    <g>
      <path d="M700.977 315.074a6.057 6.057 0 0 1-6.05-6.05v-.73a6.057 6.057 0 0 1 6.05-6.05h102.652a6.057 6.057 0 0 1 6.05 6.05v.73a6.057 6.057 0 0 1-6.05 6.05H700.977z" fill="#27282d"/>
      <path d="M803.629 312.703H700.977a3.689 3.689 0 0 1-3.678-3.678v-.73a3.689 3.689 0 0 1 3.678-3.678h102.652a3.689 3.689 0 0 1 3.678 3.678v.73a3.689 3.689 0 0 1-3.678 3.678z" fill="#1e1e20"/>
      <path fill="#1a1a1d" d="M733.898 304.616h36.809v8.087h-36.809z"/>
      <g fill="#151416">
        <path d="M732.774 304.616h1.124v8.087h-1.124zM770.707 304.616h1.124v8.087h-1.124z"/>
      </g>
      <path fill="none" stroke="#2e3134" stroke-width=".418" stroke-miterlimit="10" d="M697.692 310.674h35.082M732.774 309.496h-35.445M697.329 307.823h35.445M697.695 306.639h35.079"/>
      <path fill="none" stroke="#242529" stroke-width=".418" stroke-miterlimit="10" d="M732.774 306.639h1.124M732.774 307.823h1.124M732.774 309.496h1.124M732.774 310.674h1.124"/>
      <path fill="none" stroke="#28282b" stroke-width=".418" stroke-miterlimit="10" d="M733.898 306.639h36.809M733.898 307.823h36.809M733.898 309.496h36.809M733.898 310.674h36.809"/>
      <path fill="none" stroke="#242529" stroke-width=".418" stroke-miterlimit="10" d="M770.707 306.639h1.124M770.707 307.823h1.124M770.688 309.496h1.124M770.707 310.674h1.124"/>
      <path fill="none" stroke="#2e3134" stroke-width=".418" stroke-miterlimit="10" d="M806.914 310.674h-35.083M771.831 309.496h35.446M807.277 307.823h-35.446M806.911 306.639h-35.08"/>
    </g>
  </g>
  <g>
    <path d="M462.081 353.035h117.512c5.345 0 11.582-4.893 12.96-13.124l2.216-13.124H329.395l2.216 13.124c1.378 8.231 7.614 13.124 12.96 13.124h117.51z" fill="#a2a2a3"/>
    <path d="M462.081 275.291h133.795c4.874 0 8.862 3.965 8.862 8.81l1.355 10.873a49.022 49.022 0 0 1 0 12.128l-1.355 10.873c0 4.846-3.988 8.81-8.862 8.81H328.285c-4.874 0-8.862-3.965-8.862-8.81l-1.355-10.873a49.022 49.022 0 0 1 0-12.128l1.355-10.873c0-4.846 3.988-8.81 8.862-8.81h133.796z" fill="#c4c4c4"/>
    <path d="M552.818 316.669H371.343c-8.596 0-15.629-7.033-15.629-15.629s7.033-15.629 15.629-15.629h181.475c8.596 0 15.629 7.033 15.629 15.629.001 8.595-7.033 15.629-15.629 15.629z" fill="#b4b4b5" stroke="#727272" stroke-width=".258" stroke-miterlimit="10"/>
    <circle cx="371.543" cy="301.039" r="6.588" fill="#b7bcbf" stroke="#9b9b9b" stroke-width=".258" stroke-miterlimit="10"/>
    <path d="M371.737 304.331V298.6h-1.375v-.816l2.361-.038v6.585h-.986z" fill="#969696"/>
    <circle cx="552.61" cy="300.931" r="6.588" fill="#b7bcbf" stroke="#9b9b9b" stroke-width=".258" stroke-miterlimit="10"/>
    <path d="M549.819 301.308c.096-.283.315-.52.656-.711a2.01 2.01 0 0 1 .725-.237 6.12 6.12 0 0 1 .791-.051h.437a9.188 9.188 0 0 0 .79 0c.266-.012.465-.101.595-.265.13-.163.18-.379.149-.646-.037-.31-.164-.494-.381-.554a2.69 2.69 0 0 0-.707-.088l-3.199-.009v-1.153h3.497c.031.006.064.009.098.009H553.563c.199 0 .396.013.591.037.195.025.379.087.553.186.285.155.491.374.619.656.127.283.2.575.218.879v.055c.031.676-.125 1.194-.469 1.553-.344.36-.858.54-1.539.54l-1.266-.009c-.552.006-.873.134-.963.385-.09.251-.131.593-.125 1.027v.224l4.334-.01v1.144h-5.841v-2.009a2.913 2.913 0 0 1 .144-.953z" fill="#969696"/>
    <path d="M395.634 309.995c-4.939 0-8.956-4.017-8.956-8.955 0-4.939 4.017-8.956 8.956-8.956h43.874a5.948 5.948 0 0 1 5.942 5.942v6.028a5.948 5.948 0 0 1-5.942 5.942h-43.874z" fill="#969da1"/>
    <path d="M410.833 307.928h28.676a3.88 3.88 0 0 0 3.875-3.875v-6.028a3.88 3.88 0 0 0-3.875-3.875h-43.875c-3.798 0-6.889 3.091-6.889 6.889s3.091 6.888 6.889 6.888h15.199z" fill="#b1b6b9"/>
    <path d="M395.634 296.734h15.199c.713 0 1.292.578 1.292 1.292v6.028c0 .713-.578 1.292-1.292 1.292h-15.199a4.31 4.31 0 0 1-4.306-4.305 4.31 4.31 0 0 1 4.306-4.307zM424.309 296.734h-9.128c-.713 0-1.292.578-1.292 1.292v6.028c0 .713.578 1.292 1.292 1.292H439.508c.713 0 1.292-.578 1.292-1.292v-6.028c0-.713-.578-1.292-1.292-1.292h-15.199z" fill="#d2d7d8"/>
    <circle cx="395.634" cy="301.039" r="2.756" fill="#26292e"/>
    <circle cx="395.634" cy="301.039" r=".689" fill="#514641"/>
    <circle cx="401.705" cy="301.039" r="2.756" fill="#26292e"/>
    <circle cx="401.705" cy="301.039" r=".689" fill="#514641"/>
    <circle cx="407.776" cy="301.039" r="2.756" fill="#26292e"/>
    <circle cx="407.776" cy="301.039" r=".689" fill="#514641"/>
    <circle cx="418.238" cy="301.039" r="2.756" fill="#26292e"/>
    <circle cx="418.238" cy="301.039" r=".689" fill="#514641"/>
    <circle cx="424.309" cy="301.039" r="2.756" fill="#26292e"/>
    <circle cx="424.309" cy="301.039" r=".689" fill="#514641"/>
    <circle cx="430.38" cy="301.039" r="2.756" fill="#26292e"/>
    <circle cx="430.38" cy="301.039" r=".689" fill="#514641"/>
    <circle cx="436.451" cy="301.039" r="2.756" fill="#26292e"/>
    <circle cx="436.451" cy="301.039" r=".689" fill="#514641"/>
    <path d="M528.483 309.886c4.939 0 8.956-4.017 8.956-8.955 0-4.939-4.017-8.956-8.956-8.956h-43.874a5.948 5.948 0 0 0-5.942 5.942v6.028a5.948 5.948 0 0 0 5.942 5.942h43.874z" fill="#969da1"/>
    <path d="M513.284 307.819h-28.676a3.88 3.88 0 0 1-3.875-3.875v-6.028a3.88 3.88 0 0 1 3.875-3.875h43.875c3.798 0 6.889 3.091 6.889 6.889s-3.091 6.888-6.889 6.888h-15.199z" fill="#b1b6b9"/>
    <path d="M528.483 296.625h-15.199c-.713 0-1.292.578-1.292 1.292v6.028c0 .713.578 1.292 1.292 1.292h15.199a4.31 4.31 0 0 0 4.306-4.305 4.312 4.312 0 0 0-4.306-4.307zM499.808 296.625h9.128c.713 0 1.292.578 1.292 1.292v6.028c0 .713-.578 1.292-1.292 1.292H484.609a1.292 1.292 0 0 1-1.292-1.292v-6.028c0-.713.578-1.292 1.292-1.292h15.199z" fill="#d2d7d8"/>
    <g>
      <circle cx="528.483" cy="300.931" r="2.756" fill="#26292e"/>
      <circle cx="528.483" cy="300.931" r=".689" fill="#514641"/>
      <circle cx="522.412" cy="300.931" r="2.756" fill="#26292e"/>
      <circle cx="522.412" cy="300.931" r=".689" fill="#514641"/>
      <circle cx="516.341" cy="300.931" r="2.756" fill="#26292e"/>
      <circle cx="516.341" cy="300.931" r=".689" fill="#514641"/>
      <circle cx="505.879" cy="300.931" r="2.756" fill="#26292e"/>
      <circle cx="505.879" cy="300.931" r=".689" fill="#514641"/>
      <circle cx="499.808" cy="300.931" r="2.756" fill="#26292e"/>
      <circle cx="499.808" cy="300.931" r=".689" fill="#514641"/>
      <circle cx="493.737" cy="300.931" r="2.756" fill="#26292e"/>
      <circle cx="493.737" cy="300.931" r=".689" fill="#514641"/>
      <circle cx="487.666" cy="300.931" r="2.756" fill="#26292e"/>
      <circle cx="487.666" cy="300.931" r=".689" fill="#514641"/>
    </g>
    <path d="M355.717 301.373h-38.024a74.149 74.149 0 0 1 0-.667h38.024c-.002.111-.004.222-.004.334l.004.333zM568.444 301.373h38.024c.002-.222.002-.445 0-.667h-38.024a18.486 18.486 0 0 1 0 .667z" fill="#727272"/>
    <path d="M594.769 275.291c0-2.664-2.32-4.844-5.155-4.844H334.549c-2.835 0-5.155 2.18-5.155 4.844" fill="#afafaf"/>
    <path d="M589.964 270.448c0-3.232-2.236-5.877-4.969-5.877h-245.83c-2.733 0-4.969 2.645-4.969 5.877" fill="#6e7270"/>
    <path d="M504.599 264.57h-85.524v-2.872a1.74 1.74 0 0 1 1.735-1.735h82.054a1.74 1.74 0 0 1 1.735 1.735v2.872zM561.254 264.57h-38.083v-.205c0-.408.334-.742.742-.742h36.599c.408 0 .742.334.742.742v.205zM400.989 264.57h-38.083v-2.643a1.97 1.97 0 0 1 1.964-1.964h34.154a1.97 1.97 0 0 1 1.964 1.964v2.643z" fill="#505656"/>
    <g>
      <path d="M361.447 355.159h-9.53a1.66 1.66 0 0 1-1.655-1.655v-.469h12.833v.476c0 .906-.742 1.648-1.648 1.648zM572.251 355.159h-9.53a1.66 1.66 0 0 1-1.655-1.655v-.469h12.833v.476c0 .906-.742 1.648-1.648 1.648z" fill="#505656"/>
    </g>
    <g fill="#919191">
      <path d="M359.451 350.785h-2.671a1.063 1.063 0 0 1-1.063-1.063v-17.873c0-.587.476-1.063 1.063-1.063h2.671c.587 0 1.063.476 1.063 1.063v17.873c0 .587-.476 1.063-1.063 1.063zM368.902 350.785h-2.671a1.063 1.063 0 0 1-1.063-1.063v-17.873c0-.587.476-1.063 1.063-1.063h2.671c.587 0 1.063.476 1.063 1.063v17.873a1.062 1.062 0 0 1-1.063 1.063zM378.354 350.785h-2.671a1.063 1.063 0 0 1-1.063-1.063v-17.873c0-.587.476-1.063 1.063-1.063h2.671c.587 0 1.063.476 1.063 1.063v17.873c0 .587-.476 1.063-1.063 1.063zM387.806 350.785h-2.671a1.063 1.063 0 0 1-1.063-1.063v-17.873c0-.587.476-1.063 1.063-1.063h2.671c.587 0 1.063.476 1.063 1.063v17.873c0 .587-.476 1.063-1.063 1.063zM397.257 350.785h-2.671a1.063 1.063 0 0 1-1.063-1.063v-17.873c0-.587.476-1.063 1.063-1.063h2.671c.587 0 1.063.476 1.063 1.063v17.873c0 .587-.476 1.063-1.063 1.063zM406.709 350.785h-2.671a1.063 1.063 0 0 1-1.063-1.063v-17.873c0-.587.476-1.063 1.063-1.063h2.671c.587 0 1.063.476 1.063 1.063v17.873c0 .587-.476 1.063-1.063 1.063zM416.16 350.785h-2.671a1.063 1.063 0 0 1-1.063-1.063v-17.873c0-.587.476-1.063 1.063-1.063h2.671c.587 0 1.063.476 1.063 1.063v17.873c0 .587-.476 1.063-1.063 1.063zM425.612 350.785h-2.671a1.063 1.063 0 0 1-1.063-1.063v-17.873c0-.587.476-1.063 1.063-1.063h2.671c.587 0 1.063.476 1.063 1.063v17.873c0 .587-.476 1.063-1.063 1.063zM435.063 350.785h-2.671a1.063 1.063 0 0 1-1.063-1.063v-17.873c0-.587.476-1.063 1.063-1.063h2.671c.587 0 1.063.476 1.063 1.063v17.873c0 .587-.476 1.063-1.063 1.063zM444.515 350.785h-2.671a1.063 1.063 0 0 1-1.063-1.063v-17.873c0-.587.476-1.063 1.063-1.063h2.671c.587 0 1.063.476 1.063 1.063v17.873c0 .587-.476 1.063-1.063 1.063zM453.966 350.785h-2.671a1.063 1.063 0 0 1-1.063-1.063v-17.873c0-.587.476-1.063 1.063-1.063h2.671c.587 0 1.063.476 1.063 1.063v17.873c0 .587-.476 1.063-1.063 1.063zM463.418 350.785h-2.671a1.063 1.063 0 0 1-1.063-1.063v-17.873c0-.587.476-1.063 1.063-1.063h2.671c.587 0 1.063.476 1.063 1.063v17.873c0 .587-.476 1.063-1.063 1.063zM472.869 350.785h-2.671a1.063 1.063 0 0 1-1.063-1.063v-17.873c0-.587.476-1.063 1.063-1.063h2.671c.587 0 1.063.476 1.063 1.063v17.873c0 .587-.476 1.063-1.063 1.063zM482.321 350.785h-2.671a1.063 1.063 0 0 1-1.063-1.063v-17.873c0-.587.476-1.063 1.063-1.063h2.671c.587 0 1.063.476 1.063 1.063v17.873c0 .587-.476 1.063-1.063 1.063zM491.772 350.785h-2.671a1.063 1.063 0 0 1-1.063-1.063v-17.873c0-.587.476-1.063 1.063-1.063h2.671c.587 0 1.063.476 1.063 1.063v17.873a1.062 1.062 0 0 1-1.063 1.063zM501.224 350.785h-2.671a1.063 1.063 0 0 1-1.063-1.063v-17.873c0-.587.476-1.063 1.063-1.063h2.671c.587 0 1.063.476 1.063 1.063v17.873c0 .587-.476 1.063-1.063 1.063zM510.675 350.785h-2.671a1.063 1.063 0 0 1-1.063-1.063v-17.873c0-.587.476-1.063 1.063-1.063h2.671c.587 0 1.063.476 1.063 1.063v17.873a1.062 1.062 0 0 1-1.063 1.063zM520.127 350.785h-2.671a1.063 1.063 0 0 1-1.063-1.063v-17.873c0-.587.476-1.063 1.063-1.063h2.671c.587 0 1.063.476 1.063 1.063v17.873c0 .587-.476 1.063-1.063 1.063zM529.578 350.785h-2.671a1.063 1.063 0 0 1-1.063-1.063v-17.873c0-.587.476-1.063 1.063-1.063h2.671c.587 0 1.063.476 1.063 1.063v17.873a1.062 1.062 0 0 1-1.063 1.063zM539.03 350.785h-2.671a1.063 1.063 0 0 1-1.063-1.063v-17.873c0-.587.476-1.063 1.063-1.063h2.671c.587 0 1.063.476 1.063 1.063v17.873c0 .587-.476 1.063-1.063 1.063zM548.481 350.785h-2.671a1.063 1.063 0 0 1-1.063-1.063v-17.873c0-.587.476-1.063 1.063-1.063h2.671c.587 0 1.063.476 1.063 1.063v17.873a1.062 1.062 0 0 1-1.063 1.063zM557.933 350.785h-2.671a1.063 1.063 0 0 1-1.063-1.063v-17.873c0-.587.476-1.063 1.063-1.063h2.671c.587 0 1.063.476 1.063 1.063v17.873c0 .587-.476 1.063-1.063 1.063zM567.384 350.785h-2.671a1.063 1.063 0 0 1-1.063-1.063v-17.873c0-.587.476-1.063 1.063-1.063h2.671c.587 0 1.063.476 1.063 1.063v17.873a1.062 1.062 0 0 1-1.063 1.063z"/>
    </g>
    <g fill="#888889">
      <path d="M367.567 326.787H354.5c0 1.622 2.925 2.938 6.534 2.938 3.608-.001 6.533-1.316 6.533-2.938zM556.598 326.787h13.067c0 1.622-2.925 2.938-6.534 2.938-3.608-.001-6.533-1.316-6.533-2.938z"/>
    </g>
  </g>
</svg>
