<?xml version="1.0"?>
<svg xmlns="http://www.w3.org/2000/svg" viewBox="0 0 86.976 200">
  <path fill="#bdbdbd" d="M86.457 136.148c0-.52-.065-1.104-.26-1.624s-.715-.91-1.364-.91v.325c-.13 0-.325 0-.325.195l.065 23.125c-.26 8.25-2.663 15.46-6.496 21.695-.13.26.13.39.26.39.455 0 .78-.065 1.104-.065v.065c.455 0 .78.065 1.105 0 .324-.065.65-.195.844-.585 3.508-6.236 5.132-13.38 5.132-20.98v-21.631zm0-72.166c0 .52-.065 1.104-.26 1.624s-.715.909-1.364.909v-.325c-.13 0-.325 0-.325-.195l.065-23.124c-.26-8.25-2.663-15.46-6.496-21.695-.13-.26.13-.39.26-.39.455 0 .78.065 1.104.065v-.065c.455 0 .78-.065 1.105 0 .324.065.65.195.844.585 3.508 6.235 5.132 13.38 5.132 20.98v21.63zm0 0"/>
  <path fill="#ccc" d="M84.833 42.092v54.823h-.78v6.235h.78v54.758C84.833 181.163 65.995 200 42.74 200 19.487 200.065.65 181.228.65 157.973c0-9.224 2.923-17.668 7.924-24.618l.65-.845a8.845 8.845 0 0 0 1.948-5.586V73.141a8.98 8.98 0 0 0-1.948-5.587l-.65-.844A42.01 42.01 0 0 1 .65 42.092C.65 18.837 19.487 0 42.74 0s42.092 18.837 42.092 42.092zm0 0"/>
  <path fill="none" d="M0 0h86.976v200H0z"/>
  <path fill="#4c4c4c" d="M23.06 75.609c.194 0 .324-.065.39-.195l.194-.26c.26-.39.585-.584.974-.584.195 0 .39.065.52.13s.26.194.325.39c.065.13.13.324.13.519 0 .26-.13.455-.325.65-.195.13-.455.26-.78.26v-.585c.13 0 .26 0 .325-.065s.13-.13.13-.195c0-.13-.065-.195-.13-.26s-.13-.13-.26-.13-.26.065-.39.26-.194.325-.26.455c-.194.26-.519.39-.909.39-.194 0-.39-.066-.52-.13a.783.783 0 0 1-.324-.325 1.224 1.224 0 0 1-.13-.52c0-.13.065-.26.065-.39.065-.13.13-.195.26-.325.195-.194.52-.26.844-.26v.585c-.195 0-.324 0-.39.065-.064.065-.13.13-.13.26s0 .195.066.26c.13-.065.26-.065.324 0zm1.883 12.666v-.78l-2.793-.389v-.584l2.793.39v-.715l.65.065v2.078l-.65-.065zm-1.624-2.793c-.26 0-.454-.065-.65-.195-.194-.13-.324-.26-.454-.39-.13-.194-.13-.324-.13-.519 0-.26.13-.455.325-.65.195-.13.52-.26.91-.26.26 0 .519 0 .844.065.324.065.584.13.78.26.194.13.389.26.519.39.13.195.13.325.13.52 0 .26-.13.52-.325.65-.195.194-.52.26-.91.26v-.52c.195 0 .39 0 .455-.066.065-.064.13-.13.13-.26 0-.324-.325-.519-.974-.584-.325 0-.52-.065-.65-.065-.39 0-.584.13-.584.325 0 .13.065.26.13.325l.39.194.064.52zm.26-2.663v-.974l-.844-.13v1.104l-.65-.065V81l3.443.455v1.754l-.65-.065V82.04l-.714-.065v.974l-.585-.13zm-.78-3.248v1.04l-.649-.065v-1.69l3.443.455v.585l-2.793-.325zm.78-1.169v-.974l-.844-.13v1.104l-.65-.065v-1.689l3.443.455v1.754l-.65-.065v-1.105l-.714-.064v.974l-.585-.195zm-.52 19.877c.195 0 .325-.065.39-.195l.195-.325c.26-.39.585-.585.974-.585.195 0 .39.065.52.13s.26.195.325.39c.065.13.13.325.13.52 0 .26-.13.454-.325.65-.195.13-.455.259-.78.259v-.585c.13 0 .26 0 .325-.065s.13-.13.13-.194c0-.13-.065-.195-.13-.26s-.13-.13-.26-.13-.26.065-.39.26c-.13.194-.194.324-.26.454-.194.26-.519.39-.909.39-.194 0-.39-.065-.52-.13a.665.665 0 0 1-.324-.39 1.224 1.224 0 0 1-.13-.52c0-.13.065-.26.065-.389.065-.13.13-.195.26-.325.195-.195.52-.26.844-.26v.585c-.195 0-.324 0-.39.065-.064.065-.13.13-.13.26s0 .195.066.26c.13.065.26.065.324.13zm1.884 10.912v-.714l-2.793-.39v-.585l2.793.39v-.714l.65.065v2.078l-.65-.13zm-.974-4.027v.325c0 .065 0 .195.065.26s.13.13.26.13.194.064.324 0c.195 0 .26-.13.26-.26v-.39l-.91-.065zm-.585-.13l-1.234-.13v-.585l3.443.455v.91c0 .26-.065.52-.26.65a1.31 1.31 0 0 1-.715.194c-.26 0-.454-.065-.584-.195a.586.586 0 0 1-.39-.39l-1.364.325h-.065v-.65l1.234-.26v-.324zm-.584-2.533l-.65-.26v-.65l3.443 1.364v.585l-3.443.455v-.65l.65-.065v-.78zm.65.26v.52l1.168-.13-1.169-.39zm1.493-1.105v-.714l-2.793-.39v-.585l2.793.39v-.714l.65.065v2.078l-.65-.13zm0 0"/>
  <path fill="#999" d="M43.196 66.255c-13.186 0-23.904-10.653-23.904-23.839S30.01 18.577 43.196 18.577 67.1 29.23 67.1 42.417 56.382 66.254 43.196 66.254"/>
  <path fill="none" stroke="#999" stroke-width=".52" d="M43.196 66.255c-13.186 0-23.904-10.653-23.904-23.839S30.01 18.577 43.196 18.577 67.1 29.23 67.1 42.417 56.382 66.254 43.196 66.254"/>
  <path fill="#ccc" d="M43.196 65.476c-12.797 0-23.125-10.328-23.125-23.125 0-12.796 10.328-23.124 23.125-23.124 12.796 0 23.124 10.328 23.124 23.124 0 12.797-10.328 23.125-23.124 23.125"/>
  <path fill="#666" d="M43.13 195.973c-20.915 0-37.934-17.019-37.934-37.935 0-20.98 17.019-37.934 37.935-37.934 20.98 0 37.934 17.018 37.934 37.934.065 20.916-16.953 37.935-37.934 37.935"/>
  <path fill="#4c4c4c" d="M49.172 58.98V48.392h10.653a.86.86 0 0 0 .844-.844V37.22a.86.86 0 0 0-.844-.845H49.172V25.788a.86.86 0 0 0-.845-.845H38.064a.86.86 0 0 0-.844.845v10.587H26.567a.86.86 0 0 0-.844.845v10.328c0 .455.39.844.844.844H37.22v10.653c0 .455.39.845.844.845h10.328a.91.91 0 0 0 .78-.91"/>
  <path fill="#666" d="M44.3 27.411c-.585-1.039-1.559-1.039-2.143 0l-2.339 4.093c-.585 1.039-.325 1.883.585 1.883h5.521c.91 0 1.234-.844.585-1.883L44.3 27.41c-.585-1.039-1.559-1.039-2.143 0l-2.339 4.093c-.585 1.039-.325 1.883.585 1.883h5.521c.91 0 1.234-.844.585-1.883L44.3 27.41zm0 29.88c-.585 1.04-1.559 1.04-2.143 0L39.818 53.2c-.585-1.04-.325-1.884.585-1.884h5.521c.91 0 1.234.845.585 1.884L44.3 57.291c-.585 1.04-1.559 1.04-2.143 0L39.818 53.2c-.585-1.04-.325-1.884.585-1.884h5.521c.91 0 1.234.845.585 1.884L44.3 57.291zm13.77-13.835c1.04-.585 1.04-1.56 0-2.144l-4.027-2.338c-1.039-.585-1.883-.325-1.883.65v5.52c0 .91.844 1.235 1.883.65l4.028-2.338c1.04-.585 1.04-1.56 0-2.144l-4.028-2.338c-1.039-.585-1.883-.325-1.883.65v5.52c0 .91.844 1.235 1.883.65l4.028-2.338zm-29.814 0c-1.04-.585-1.04-1.56 0-2.144l4.092-2.338c1.04-.585 1.884-.325 1.884.65v5.52c0 .91-.845 1.235-1.884.65l-4.092-2.338c-1.04-.585-1.04-1.56 0-2.144l4.092-2.338c1.04-.585 1.884-.325 1.884.65v5.52c0 .91-.845 1.235-1.884.65l-4.092-2.338zm9.873 44.17l-6.69-8.574c-2.339-2.923 1.883-6.626 4.417-3.443l6.69 8.574c2.339 3.053-2.078 6.56-4.417 3.443m0 21.5l-6.69-8.574c-2.339-2.923 1.883-6.625 4.417-3.443l6.69 8.575c2.339 3.053-2.078 6.56-4.417 3.442"/>
  <path fill="#d8d8d8" d="M70.607 171.03v-1.365l-2.078 1.754-2.274-1.884v1.3l1.494 1.234-1.494 1.234v1.299l2.274-1.884 2.078 1.754v-1.364l-1.234-1.04 1.234-1.039zm-15.524 17.213v1.299l-4.287 1.949v-1.04l1.104-.52v-2.143l-1.104-.52v-1.039l4.287 2.014zm-2.339 1.299l1.494-.65-1.429-.65-.065 1.3zm-18.707-62.943v-1.169l-2.403 1.949H29.62v1.04h2.014l2.403 1.948v-1.17l-1.624-1.298 1.624-1.3zm0 0"/>
  <path fill="#ccc" d="M18.902 142.968v2.858c-.13 1.82-2.013 1.884-2.143.13-.065 2.209-2.274 2.014-2.339-.13v-2.858h4.482zm-3.637 2.858c.13.715.91.715 1.039 0v-1.753h-1.04v1.753zm1.883 0c.26.715.91.455.975 0v-1.753h-.975v1.753zm0 0"/>
  <path fill="#f4f4f4" d="M50.6 138.941a7.845 7.845 0 0 0-7.859-7.86 7.845 7.845 0 0 0-7.86 7.86 7.845 7.845 0 0 0 7.86 7.86 7.845 7.845 0 0 0 7.86-7.86zm-.649 0a7.194 7.194 0 0 1-7.21 7.21 7.194 7.194 0 0 1-7.21-7.21c0-3.962 3.183-7.21 7.21-7.21s7.21 3.248 7.21 7.21zm15.525 19.032a7.845 7.845 0 0 0-7.86-7.86c-4.352 0-7.86 3.508-7.86 7.86s3.508 7.86 7.86 7.86a7.845 7.845 0 0 0 7.86-7.86zm-.65 0a7.194 7.194 0 0 1-7.21 7.21 7.194 7.194 0 0 1-7.21-7.21c0-4.027 3.248-7.145 7.21-7.145s7.21 3.183 7.21 7.145zm-28.71.65a7.845 7.845 0 0 0-7.86-7.86 7.845 7.845 0 0 0-7.86 7.86 7.845 7.845 0 0 0 7.86 7.86 7.845 7.845 0 0 0 7.86-7.86zm-.65 0c0 3.962-3.183 7.145-7.21 7.145a7.125 7.125 0 0 1-7.145-7.145c0-3.963 3.183-7.21 7.145-7.21 4.027.065 7.21 3.247 7.21 7.21zm15.525 19.032a7.845 7.845 0 0 0-7.86-7.86c-4.352 0-7.86 3.508-7.86 7.86s3.508 7.86 7.86 7.86a7.845 7.845 0 0 0 7.86-7.86zm-.65 0a7.194 7.194 0 0 1-7.21 7.21 7.194 7.194 0 0 1-7.21-7.21 7.194 7.194 0 0 1 7.21-7.21c3.962.065 7.21 3.248 7.21 7.21zm0 0"/>
  <path fill="#d8d8d8" d="M48.847 184.93c-4.027 3.118-9.808 2.403-12.991-1.624L20.98 164.274c-3.118-4.027-2.404-9.808 1.624-12.991 4.027-3.118 9.808-2.404 12.99 1.624l14.81 19.097a9.243 9.243 0 0 1 1.95 5.066c.194 2.858-.975 5.911-3.508 7.86zm0 0"/>
  <path fill="#eb2d2f" d="M50.99 177.655a7.845 7.845 0 0 1-7.86 7.86c-4.351 0-7.859-3.508-7.859-7.86s3.508-7.86 7.86-7.86c4.352.065 7.86 3.573 7.86 7.86zm0 0"/>
  <path fill="#d8d8d8" d="M63.267 165.313c-4.027 3.118-9.808 2.404-12.991-1.624l-14.875-19.032c-3.118-4.027-2.403-9.808 1.624-12.991 4.027-3.118 9.808-2.403 12.991 1.624l14.81 19.097a9.242 9.242 0 0 1 1.949 5.067c.26 2.858-.974 5.91-3.508 7.86zm0 0"/>
  <path fill="#323b98" d="M65.476 157.973a7.845 7.845 0 0 1-7.86 7.86c-4.352 0-7.86-3.508-7.86-7.86s3.508-7.86 7.86-7.86c4.352.066 7.86 3.573 7.86 7.86zm0 0"/>
  <path fill="#f9ec2b" d="M36.116 158.623a7.845 7.845 0 0 1-7.86 7.86 7.845 7.845 0 0 1-7.86-7.86 7.845 7.845 0 0 1 7.86-7.86 7.845 7.845 0 0 1 7.86 7.86zm0 0"/>
  <path fill="#01954b" d="M50.6 138.941a7.845 7.845 0 0 1-7.859 7.86 7.845 7.845 0 0 1-7.86-7.86 7.845 7.845 0 0 1 7.86-7.86 7.845 7.845 0 0 1 7.86 7.86zm0 0"/>
  <circle cx="43.196" cy="42.351" r="4.742" fill="#595959"/>
  <path fill="#4c4c4c" d="M70.412 73.985s.065-.13.065-.26v-1.559s.13-.195.39-.195c0 0 .26.065.26.39v2.144h.585v-2.793s0-.65-.78-.845c0 0-1.104-.195-1.104.91v1.429s-.065.454-.39.39c0 0-.325-.066-.325-.326v-2.208h-.65v2.533s-.13.975.845 1.105c0 0 .91.065 1.104-.715zm-1.299 3.638v-1.17s.065-.454.455-.454h2.144v-.975h-2.404s-.844.26-.844.975v2.533h3.248v-.974h-2.599zm2.663 4.157v-2.663h-3.312v.909h1.104v1.624c.13 1.104 1.104 1.04 1.104 1.04.975-.066 1.104-.91 1.104-.91zm-1.558-.52v-1.17h.909v1.235c0 .325-.39.39-.39.39-.584-.13-.52-.455-.52-.455zm-.13 1.754s-1.364-.195-1.624 1.364v1.949h.65v-1.69s0-.519.714-.584v2.339h.65v-2.274s.584.065.649.65v1.624h.65v-2.014c0-.065-.13-1.364-1.69-1.364zm.65 7.6c.974 0 1.038-.975 1.038-.975v-2.728h-3.312v.975h1.234v.974l-1.234.844v1.105l1.234-.975c.195.78 1.04.78 1.04.78zm-.456-1.69v-1.103h.845v1.104s.065.584-.455.584c0 .065-.39.13-.39-.584zm.26 3.898h-2.078v.975h1.299v2.338h.714v-2.338h.195c.39.065.52.65.52.65v1.688h.584v-2.014c-.064-1.104-1.234-1.299-1.234-1.299zm1.17 6.041V96.72h-.65v1.688c0 .65-.65.715-.65.715v-1.624c-.065-1.104-1.039-1.104-1.039-1.104-1.04 0-1.04 1.17-1.04 1.17v2.532h1.82c1.429 0 1.559-1.234 1.559-1.234zm-2.664.26v-1.3s0-.324.39-.324c0 0 .39.065.39.39v1.299h-.78zm2.664 5.261v-3.767h-3.248v.974h2.598v.845h-2.663v.974h2.598v.39c0 .52-.39.584-.39.584H68.4v.91h2.143c1.04.13 1.17-.91 1.17-.91zm-3.248 1.56v1.039h3.248v-1.04h-3.248zm1.624 1.493c-1.624 0-1.69 1.364-1.69 1.364v1.884h.65v-1.624c.13-.714.975-.65.975-.65 1.104 0 .974.715.974.715v1.624h.65v-2.013c-.13-1.3-1.56-1.3-1.56-1.3zm1.624 5.587s.13-1.754-1.365-2.014c0 0-1.234-.195-1.688.65 0 0-.78 1.234 0 2.663 0 0 .454.974 1.883.714 0 0 1.234-.26 1.17-2.013zm-2.794.065s-.13-1.235 1.105-1.105c0 0 1.104-.13 1.104 1.04 0 0 .13 1.169-1.104 1.169 0-.065-1.105.065-1.105-1.104zm2.729 6.235v-3.767h-3.248v.974h2.598v.845h-2.663v.974h2.598v.39c0 .52-.39.584-.39.584h-2.208v.91h2.143c1.04.065 1.17-.91 1.17-.91zm6.885-48.392v1.43l-3.313 2.013h3.313v1.429H73.79v-1.43l3.313-2.013H73.79v-1.429h4.742zM78.077 83.6v1.364h-.65v.78h-.454v-.78H73.79v-1.364h3.183v-.78h.455v.78h.65zm-1.104-6.95v1.363H73.79v-1.364h3.183zm1.559-.066v1.43h-.974v-1.43h.974zm-1.364 24.424c0-1.105-.78-2.014-1.754-2.014s-1.754.91-1.754 2.014c0 1.104.78 2.013 1.754 2.013.974.065 1.754-.844 1.754-2.013m-1.754.584h-.65c-.52 0-.714-.26-.714-.584 0-.26.195-.585.714-.585h1.365c.52 0 .714.325.714.585 0 .26-.195.584-.714.584h-.715zm-.065-4.417h.585c.52 0 .584-.324.584-.52 0-.194-.13-.519-.584-.519h-1.17c-.52 0-.65.325-.65.52s.13.52.65.52h.585zm3.183 0v1.364H73.79v-1.364h.195c-.325-.52-.325-1.104-.13-1.624.065-.13.455-.974 1.559-.974.844 0 1.754.78 1.689 1.754 0 .325-.13.584-.26.78l1.689.064zm-1.43-15.914c0 .52-.324 1.559-1.558 1.559H73.79v-1.364h2.079c.26 0 .584-.26.584-.65s-.324-.65-.584-.65H73.79v-1.363h3.183v1.364h-.325c.195.26.455.65.455 1.104m0 11.302c0 .52-.325 1.56-1.56 1.56H73.79v-1.365h2.079c.26 0 .584-.26.584-.65 0-.389-.324-.649-.584-.649H73.79v-1.364h3.183v1.364h-.325c.195.26.455.65.455 1.104m-2.209-4.352H74.7c-.585 0-.715-.39-.715-.584s.13-.585.715-.585h.65v2.598c.973 0 1.818-.909 1.818-2.078 0-1.17-.78-2.079-1.754-2.079s-1.754.91-1.754 2.079c0 .91.52 1.754 1.3 1.948l-.066-1.299zm.975-1.169c.26 0 .454 0 .65.065.194.13.26.325.26.52s-.066.39-.26.52c-.13.064-.325.064-.65.064v-1.169zm-3.833-26.437c-.714 0-1.299-1.3-1.299-2.858s.585-2.858 1.3-2.858c.714 0 1.298 1.299 1.298 2.858-.065 1.559-.584 2.858-1.299 2.858m-2.143 5.067c-.715 0-1.3-1.3-1.3-2.858 0-1.56.585-2.859 1.3-2.859.714 0 1.299 1.3 1.299 2.859 0 1.558-.585 2.858-1.3 2.858m1.365.324c1.429-.324 2.988-1.559 2.338-3.182 2.988 1.299 2.534 3.767 1.494 4.611-.78.715-3.507.65-3.832-1.429m2.338-5.001c1.43-.325 2.988-1.56 2.339-3.183 2.988 1.299 2.533 3.767 1.494 4.612-.845.714-3.573.65-3.833-1.43"/>
</svg>
