<?xml version="1.0"?>
<svg xmlns="http://www.w3.org/2000/svg" viewBox="0 0 199.59 121.856">
  <path d="M45.857 0c44.64 0 45.857 5.692 45.857 12.064v108.369c0 .783-.64 1.423-1.423 1.423H1.423c-.783 0-1.423-.64-1.423-1.423V12.064C0 5.692 1.217 0 45.857 0z" fill="#c7cac4"/>
  <linearGradient id="a" gradientUnits="userSpaceOnUse" x1="45.857" y1="77.824" x2="45.857" y2="8.09">
    <stop offset="0" stop-color="#c7cac4"/>
    <stop offset=".253" stop-color="#c5c5be"/>
    <stop offset="1" stop-color="#c4c4bc"/>
  </linearGradient>
  <path d="M6.694 77.824V12.797c0-2.486 1.039-4.706 39.163-4.706s39.163 2.221 39.163 4.706v65.028" fill="url(#a)" stroke="#929392" stroke-width=".107" stroke-miterlimit="10"/>
  <path d="M55.219 104.773H36.767c-1.017 0-1.445 1.297-.628 1.902l9.226 6.833c.373.276.882.276 1.255 0l9.226-6.833c.818-.605.39-1.902-.627-1.902z" fill="#999998"/>
  <path d="M78.598 68.481H12.901a3.675 3.675 0 0 1-3.665-3.665V24.893a3.675 3.675 0 0 1 3.665-3.665h65.698a3.675 3.675 0 0 1 3.665 3.665v39.923a3.677 3.677 0 0 1-3.666 3.665z" fill="#b2aeaa"/>
  <path d="M12.901 68.116a3.303 3.303 0 0 1-3.299-3.299V24.893a3.303 3.303 0 0 1 3.299-3.299h65.698a3.303 3.303 0 0 1 3.299 3.299v39.923a3.303 3.303 0 0 1-3.299 3.299H12.901z" fill="#0a93c7"/>
  <path d="M12.901 66.289a1.475 1.475 0 0 1-1.473-1.473V24.893c0-.812.661-1.473 1.473-1.473h65.698c.812 0 1.473.661 1.473 1.473v39.923c0 .812-.661 1.473-1.473 1.473H12.901z" fill="#eddfde" stroke="#cf7069" stroke-width=".43" stroke-miterlimit="10"/>
  <circle cx="70.875" cy="32.584" r="8.405" fill="#fff" stroke="#2a2c2b" stroke-width=".215" stroke-miterlimit="10"/>
  <circle cx="70.875" cy="32.584" r="6.291" fill="#2a2c2b"/>
  <ellipse cx="67.903" cy="33.312" rx="2.583" ry="1.105" fill="#75ce97"/>
  <path d="M74.394 35.4c0 .61-1.157 1.105-2.583 1.105-1.427 0-2.583-.495-2.583-1.105s1.157-1.105 2.583-1.105c1.427 0 2.583.495 2.583 1.105z" fill="#f1dd75"/>
  <path d="M74.646 34.795c-.217-1.304-1.225-2.798-2.695-2.28 1.35-2.632 3.515-2.049 4.213-1.072.543.761.359 3.222-1.518 3.352z" fill="#f06547"/>
  <path d="M70.689 32.707c-.219-1.263-1.231-2.712-2.7-2.214 1.344-2.546 3.51-1.977 4.21-1.029.545.738.366 3.122-1.51 3.243z" fill="#51afd8"/>
  <g>
    <g fill="#2a2c2b">
      <path d="M64.823 28.272a.41.41 0 0 0-.059.141c-.008.044.008.077.047.101.03.018.06.016.09-.005a.308.308 0 0 0 .082-.089c.076-.12.115-.179.195-.294l.024-.032.025-.033a.63.63 0 0 1 .083-.088.276.276 0 0 1 .097-.057.172.172 0 0 1 .089-.007.211.211 0 0 1 .078.03l.021.013.02.014c.079.065.11.14.096.22a.729.729 0 0 1-.13.272 5.55 5.55 0 0 0-.351.562l-.139-.078a5.65 5.65 0 0 1 .338-.543.47.47 0 0 0 .067-.129c.012-.041-.004-.073-.048-.097-.034-.019-.066-.017-.093.005a.469.469 0 0 0-.083.091c-.07.1-.104.151-.17.256a.778.778 0 0 1-.206.237c-.071.048-.15.05-.235.001-.089-.051-.131-.125-.121-.217a.792.792 0 0 1 .129-.324c.158-.251.242-.37.419-.598l.125.099a6.002 6.002 0 0 0-.39.549zM65.826 27.575c.056.051.109.076.16.076.051 0 .111-.038.184-.113.073-.074.109-.135.107-.185-.001-.05-.027-.103-.078-.157l-.366-.392c.077-.073.117-.109.196-.178l.354.408.021.024a.492.492 0 0 1 .069.105.233.233 0 0 1 .019.097.32.32 0 0 1-.041.146.802.802 0 0 1-.137.185c-.015.016-.029.032-.044.046l-.044.043c-.015.015-.032.029-.048.043a.914.914 0 0 1-.137.101.337.337 0 0 1-.15.047.203.203 0 0 1-.097-.018.366.366 0 0 1-.08-.049l-.025-.019-.023-.02-.413-.35c.07-.083.105-.124.177-.203l.396.363zM66.678 26.122a.008.008 0 0 0 .004-.002l.003-.002.054-.037a1.042 1.042 0 0 1 .159-.087.438.438 0 0 1 .106-.031.244.244 0 0 1 .164.025c.044.026.079.06.105.101a.259.259 0 0 1 .005.268.421.421 0 0 1-.087.106 1.428 1.428 0 0 1-.113.089l-.032.021-.031.021a4.834 4.834 0 0 0-.236.169l.188.25c-.073.055-.11.084-.181.142l-.562-.695c.177-.142.268-.21.454-.338zm.088.133a5.584 5.584 0 0 0-.24.173l.158.211c.096-.072.144-.107.243-.174a.42.42 0 0 0 .113-.108c.026-.039.025-.08-.002-.123-.029-.048-.068-.068-.118-.053a.563.563 0 0 0-.154.076v-.002zM67.634 25.803a.205.205 0 0 0 .003.171c.24-.123.362-.179.611-.278l.058.144a5.638 5.638 0 0 0-.599.271.341.341 0 0 0 .054.075.19.19 0 0 0 .084.047c.031.009.062.01.094 0a.643.643 0 0 0 .092-.035l.006-.003.006-.003c.136-.064.206-.094.345-.149l.058.144a5.03 5.03 0 0 0-.347.149 1.387 1.387 0 0 1-.164.064.425.425 0 0 1-.171.017.348.348 0 0 1-.184-.069.516.516 0 0 1-.144-.17l-.017-.033c-.059-.129-.066-.244-.018-.345s.157-.196.323-.273c.154-.072.232-.106.389-.168l.058.144a5.9 5.9 0 0 0-.376.161c-.084.04-.137.087-.161.139zM68.916 25.094a.359.359 0 0 0 .035-.008l.035-.008a.874.874 0 0 1 .135-.017.286.286 0 0 1 .124.024.21.21 0 0 1 .081.06.237.237 0 0 1 .045.082l.005.017.004.017a.245.245 0 0 1-.02.169.29.29 0 0 1-.148.126c.144.118.213.18.345.305-.098.019-.147.03-.244.053a5.431 5.431 0 0 0-.32-.28c-.107.029-.16.045-.265.079l.109.333c-.085.027-.127.042-.211.072l-.306-.839c.236-.083.356-.121.596-.185zm-.014.169c-.117.032-.175.05-.291.087l.07.214c.112-.036.169-.053.282-.084h.006l.006-.002a.528.528 0 0 0 .13-.053c.038-.022.049-.058.037-.107-.013-.051-.042-.077-.088-.077a.553.553 0 0 0-.15.023l-.002-.001zM70.283 24.978c.066-.08.224-.129.47-.132.154-.002.23-.001.384.005l-.007.155a5.841 5.841 0 0 0-.397-.006.407.407 0 0 0-.225.057c-.047.034-.07.092-.071.172.273-.016.41-.017.683-.006l-.007.154a5.955 5.955 0 0 0-.668.004l.021.365a5.605 5.605 0 0 0-.221.016l-.037-.409c-.014-.169.009-.295.075-.375zM71.911 24.924c.149.383.211.576.309.963a4.928 4.928 0 0 0-.242-.048 6.307 6.307 0 0 0-.061-.226 5.725 5.725 0 0 0-.469-.06 8.115 8.115 0 0 0-.113.204 6.065 6.065 0 0 0-.233-.014c.193-.349.301-.521.543-.853.108.012.161.019.266.034zm-.371.478c.132.014.198.022.329.042a8.157 8.157 0 0 0-.123-.363 7.541 7.541 0 0 0-.206.321zM72.856 25.127c.042.297.057.445.076.74.193-.225.295-.335.508-.547.139.053.208.081.345.14l-.361.817a5.059 5.059 0 0 0-.202-.084c.11-.255.166-.383.278-.638-.216.213-.32.323-.515.549a5.867 5.867 0 0 0-.224-.074 7.849 7.849 0 0 0-.087-.756c-.063.274-.096.411-.161.684a7.853 7.853 0 0 0-.22-.055l.204-.869c.144.033.216.052.359.093zM73.624 26.369l.389-.805c.097.046.145.07.24.12l-.418.79a8.28 8.28 0 0 0-.211-.105zM74.574 26.148a.422.422 0 0 0-.156.145l-.021.035a.3.3 0 0 0-.047.119.197.197 0 0 0 .004.09.18.18 0 0 0 .05.081c.024.022.05.042.079.061l.006.004.006.004c.127.085.19.129.313.222l-.094.124a4.85 4.85 0 0 0-.314-.224 1.309 1.309 0 0 1-.141-.108.433.433 0 0 1-.104-.138.337.337 0 0 1-.036-.193.5.5 0 0 1 .053-.176c.006-.012.012-.024.019-.034a.54.54 0 0 1 .02-.031c.08-.117.174-.183.287-.194.113-.011.25.033.405.137.143.095.214.146.353.25l-.093.122a6.036 6.036 0 0 0-.34-.243c-.105-.068-.188-.084-.249-.053zM75.214 26.608a.374.374 0 0 1 .201-.043.52.52 0 0 1 .232.083 1.209 1.209 0 0 1 .262.222.997.997 0 0 1 .073.094.547.547 0 0 1 .099.228.355.355 0 0 1-.03.206.533.533 0 0 1-.203.22.478.478 0 0 1-.09.046.37.37 0 0 1-.202.02.535.535 0 0 1-.207-.092 1.741 1.741 0 0 1-.23-.2c-.022-.024-.041-.048-.061-.073a.518.518 0 0 1-.101-.198.387.387 0 0 1 .049-.292.62.62 0 0 1 .127-.164.635.635 0 0 1 .081-.057c0 .001 0 0 0 0zm.162.215a.425.425 0 0 0-.176.207.249.249 0 0 0-.021.114.247.247 0 0 0 .043.121.462.462 0 0 0 .17.161.254.254 0 0 0 .125.037c.04 0 .077-.01.112-.028a.496.496 0 0 0 .112-.079.515.515 0 0 0 .081-.11.225.225 0 0 0-.017-.246.545.545 0 0 0-.133-.141.535.535 0 0 0-.054-.034.26.26 0 0 0-.132-.034.238.238 0 0 0-.11.032c0 .001 0 .001 0 0zM76.634 27.71c-.137.273-.21.406-.366.664.295-.055.445-.076.75-.104.088.141.13.214.212.362l-.782.43a7.494 7.494 0 0 0-.123-.215l.607-.339c-.308.026-.46.046-.757.099a4.793 4.793 0 0 0-.148-.215c.156-.265.229-.402.365-.683-.213.184-.32.275-.534.457a4.915 4.915 0 0 0-.155-.19l.678-.581c.104.122.155.185.253.315z"/>
    </g>
    <g fill="#2a2c2b">
      <path d="M64.01 35.927a.378.378 0 0 1-.012-.183.187.187 0 0 1 .06-.116.415.415 0 0 1 .099-.06l.393-.163c.033.08.05.12.086.199l-.357.161a.267.267 0 0 0-.125.093c-.022.036-.008.111.045.219.048.098.073.146.124.241l-.104.056a6.46 6.46 0 0 1-.133-.263 1.216 1.216 0 0 1-.076-.184zM64.277 36.484l.623-.349c.042.076.064.114.107.188l-.612.369a6.992 6.992 0 0 1-.118-.208zM65.067 36.782a.338.338 0 0 0-.163.051l-.027.018a.247.247 0 0 0-.073.074.143.143 0 0 0-.022.073.165.165 0 0 0 .018.086c.014.027.03.054.049.08l.004.005a6.211 6.211 0 0 0 .219.289l-.097.078a5.676 5.676 0 0 1-.224-.299 1.105 1.105 0 0 1-.09-.148.426.426 0 0 1-.045-.16.283.283 0 0 1 .033-.169.32.32 0 0 1 .102-.108.123.123 0 0 1 .025-.017l.026-.014c.101-.051.194-.059.278-.026.084.033.167.11.251.228.078.109.118.162.201.265l-.096.077a6.003 6.003 0 0 1-.201-.267c-.057-.079-.113-.118-.168-.116zM65.644 37.486a.17.17 0 0 0-.132.035c.149.171.227.253.387.409l-.087.089a5.799 5.799 0 0 1-.394-.418.23.23 0 0 0-.047.057.15.15 0 0 0-.016.079c.001.029.01.055.026.08a.537.537 0 0 0 .061.076l.004.005c.095.102.144.151.243.247l-.087.09a6.223 6.223 0 0 1-.253-.26 1.134 1.134 0 0 1-.104-.132.425.425 0 0 1-.062-.149.285.285 0 0 1 .014-.169.343.343 0 0 1 .111-.14l.024-.017c.094-.064.184-.084.27-.064.086.02.176.083.271.187.089.095.134.141.226.231l-.087.09a5.568 5.568 0 0 1-.227-.233c-.048-.054-.095-.085-.141-.093zM66.404 37.999a6.184 6.184 0 0 0-.026.642l.307-.413c.061.047.092.07.155.116l-.421.579a6.554 6.554 0 0 1-.194-.146 6.41 6.41 0 0 1 .024-.682l-.349.414a4.416 4.416 0 0 1-.161-.146l.485-.526c.071.067.107.099.18.162zM67.165 38.717a.28.28 0 0 0-.1-.039c-.031-.005-.056.009-.076.039-.015.023-.017.046-.002.07a.185.185 0 0 0 .063.061 5.631 5.631 0 0 0 .275.164c.025.016.05.034.072.054s.039.042.052.067a.155.155 0 0 1 .017.068.203.203 0 0 1-.013.065l-.007.018a.254.254 0 0 1-.008.018c-.039.072-.094.109-.162.106a.539.539 0 0 1-.238-.083 6.298 6.298 0 0 1-.466-.295l.073-.105c.169.116.255.171.431.274a.324.324 0 0 0 .109.044c.035.006.058-.011.072-.048.011-.029.008-.053-.011-.073a.444.444 0 0 0-.075-.057 5.1 5.1 0 0 1-.2-.123.467.467 0 0 1-.169-.164c-.03-.057-.022-.118.024-.182.049-.067.106-.096.17-.09a.525.525 0 0 1 .216.087c.167.104.252.153.425.244l-.06.112a4.388 4.388 0 0 1-.412-.232zM67.916 39.166a.177.177 0 0 0-.105.087c.195.091.294.132.494.207l-.045.116a6.152 6.152 0 0 1-.503-.212.234.234 0 0 0-.021.07.138.138 0 0 0 .015.077.141.141 0 0 0 .053.061.499.499 0 0 0 .076.04l.006.002a6.771 6.771 0 0 0 .313.125l-.045.116a6.335 6.335 0 0 1-.321-.13 1.039 1.039 0 0 1-.141-.074.383.383 0 0 1-.109-.107.268.268 0 0 1-.048-.156.363.363 0 0 1 .048-.171l.015-.026a.35.35 0 0 1 .217-.171.523.523 0 0 1 .309.054c.114.048.171.071.286.114l-.045.116a5.932 5.932 0 0 1-.287-.116c-.064-.025-.118-.034-.162-.022zM68.945 39.366c.129.038.219.088.271.155.052.067.07.156.054.268a.313.313 0 0 1-.013.06c-.013.045-.034.092-.065.133s-.077.071-.137.09a.363.363 0 0 1-.15.014.994.994 0 0 1-.157-.032 6.26 6.26 0 0 1-.428-.136l.242-.673c.152.053.229.077.383.121zm-.039.119a8.226 8.226 0 0 1-.208-.063l-.146.442a5.671 5.671 0 0 0 .227.07l.006.002a.521.521 0 0 0 .084.017.146.146 0 0 0 .08-.013.144.144 0 0 0 .059-.049.278.278 0 0 0 .033-.064l.009-.028.008-.029.008-.03c.003-.011.004-.022.005-.032a.325.325 0 0 0 .004-.07.136.136 0 0 0-.026-.068.15.15 0 0 0-.058-.051.568.568 0 0 0-.081-.03l-.005-.002.001-.002zM69.836 40.281l.099-.707c.178.024.268.033.447.046l.022.003.022.003a.826.826 0 0 1 .167.036.156.156 0 0 1 .101.113c.013.051.007.094-.016.128a.26.26 0 0 1-.12.086c.061.025.101.055.121.092a.172.172 0 0 1 .005.133.15.15 0 0 1-.112.104.616.616 0 0 1-.184.018l-.012-.001-.012-.001a6.693 6.693 0 0 1-.528-.053zm.249-.393c.112.012.168.017.28.025.036.003.066 0 .091-.011.024-.01.038-.031.04-.063.002-.031-.008-.053-.032-.066a.202.202 0 0 0-.086-.023 5.037 5.037 0 0 1-.273-.026 4.32 4.32 0 0 0-.02.164zm.356.308c.024-.011.038-.032.039-.064.002-.032-.009-.055-.031-.068a.229.229 0 0 0-.092-.024 5.425 5.425 0 0 1-.286-.027l-.019.167c.117.013.176.018.293.026a.191.191 0 0 0 .096-.01zM70.919 39.638c.087.109.132.162.225.268.087-.112.129-.169.209-.283.085-.006.128-.009.213-.017a5.897 5.897 0 0 1-.317.423l.016.315c-.081.004-.122.005-.203.007l-.007-.315a5.498 5.498 0 0 1-.341-.399l.205.001zM72.303 39.494c.183.172.279.255.482.415l-.14-.494c.073-.019.109-.029.182-.05l.202.685a8.489 8.489 0 0 1-.228.062 6.266 6.266 0 0 1-.514-.438l.117.527c-.082.016-.123.024-.205.038l-.124-.703c.091-.015.137-.023.228-.042zM73.218 39.994l-.22-.68c.074-.023.11-.035.183-.061l.239.674a7.954 7.954 0 0 1-.202.067zM73.571 39.105c.214.134.325.197.555.314l-.233-.458.17-.084.331.634a6.07 6.07 0 0 1-.214.106 6.118 6.118 0 0 1-.591-.33l.216.496c-.078.032-.117.047-.195.077l-.257-.667.218-.088zM74.202 38.945l-.059-.11c.271-.144.403-.224.658-.399l.071.102c-.098.067-.147.1-.247.162l.315.499-.182.111-.301-.507a5.317 5.317 0 0 1-.255.142zM75.151 38.39a.18.18 0 0 0 .026.134 5.83 5.83 0 0 0 .427-.347l.082.094a5.8 5.8 0 0 1-.436.353c.015.02.033.038.052.052.02.014.045.022.076.023a.152.152 0 0 0 .08-.019.474.474 0 0 0 .078-.054l.005-.004c.106-.085.158-.129.26-.22l.082.094a5.93 5.93 0 0 1-.274.229.94.94 0 0 1-.135.091.372.372 0 0 1-.148.047.27.27 0 0 1-.163-.03.362.362 0 0 1-.129-.123l-.016-.026c-.057-.098-.072-.189-.048-.272.024-.083.091-.165.198-.251.099-.079.147-.12.243-.205l.082.094a4.747 4.747 0 0 1-.245.205.278.278 0 0 0-.097.135zM75.714 37.676c.251.04.38.054.641.07l-.387-.339.132-.151.543.466a4.983 4.983 0 0 1-.166.189 5.77 5.77 0 0 1-.681-.071l.384.382a5.631 5.631 0 0 1-.158.151l-.484-.527c.071-.067.106-.101.176-.17zM76.481 36.759c.084-.12.166-.198.25-.232.084-.034.176-.027.278.023l.027.014c.008.004.017.011.026.017a.376.376 0 0 1 .103.107.281.281 0 0 1 .035.169.441.441 0 0 1-.042.159 1.261 1.261 0 0 1-.09.152c-.112.161-.171.24-.291.391l-.556-.45c.108-.136.16-.206.26-.35zm.099.075a5.48 5.48 0 0 1-.138.191l.37.283c.06-.08.09-.121.148-.204l.005-.005.004-.005a.615.615 0 0 0 .048-.081.175.175 0 0 0 .017-.086.153.153 0 0 0-.025-.076.281.281 0 0 0-.049-.054l-.024-.018-.025-.016-.026-.017a.16.16 0 0 0-.029-.015c-.02-.009-.043-.02-.066-.025a.14.14 0 0 0-.075.006.184.184 0 0 0-.071.044.537.537 0 0 0-.055.069l-.003.005a.013.013 0 0 1-.006.004c.001.001.001.001 0 0zM76.956 36.385a.322.322 0 0 1-.057-.158.496.496 0 0 1 .027-.196 1.045 1.045 0 0 1 .068-.163c.013-.029.029-.057.045-.086.017-.028.034-.054.052-.08a.512.512 0 0 1 .14-.142.305.305 0 0 1 .161-.05.43.43 0 0 1 .155.03.473.473 0 0 1 .074.039.282.282 0 0 1 .135.212.547.547 0 0 1-.024.219 1.266 1.266 0 0 1-.125.28 1.067 1.067 0 0 1-.053.078.504.504 0 0 1-.156.144.279.279 0 0 1-.244.014.43.43 0 0 1-.142-.085.23.23 0 0 1-.056-.056zm.153-.169a.252.252 0 0 0 .085.07.29.29 0 0 0 .104.035.194.194 0 0 0 .095-.009.233.233 0 0 0 .094-.072.438.438 0 0 0 .062-.096c.009-.017.016-.036.023-.053a.368.368 0 0 0 .016-.054.249.249 0 0 0 .002-.121.174.174 0 0 0-.049-.083c-.013-.012-.027-.025-.042-.036a.282.282 0 0 0-.099-.045c-.018-.005-.037-.007-.055-.009a.18.18 0 0 0-.094.014.236.236 0 0 0-.089.073c-.01.013-.021.027-.031.043-.009.015-.018.03-.026.047a.558.558 0 0 0-.037.1.238.238 0 0 0-.003.112c.009.032.023.06.044.084z"/>
    </g>
  </g>
  <g>
    <path d="M15.341 63.589c0 .518-.397.933-.906.933a.918.918 0 0 1-.915-.933c0-.511.403-.926.915-.926a.91.91 0 0 1 .906.926zm-1.67.009c0 .448.331.8.764.8.424 0 .755-.352.755-.81 0-.448-.331-.803-.755-.803-.433.001-.764.356-.764.813zm1.132-.352a.65.65 0 0 0-.292-.069c-.283 0-.421.18-.421.421 0 .235.147.424.424.424a.59.59 0 0 0 .304-.078l.036.114a.687.687 0 0 1-.37.093c-.349 0-.551-.24-.551-.545 0-.343.271-.56.575-.56.156 0 .292.045.331.081l-.036.119zM16.174 62.817a1.98 1.98 0 0 1 .375-.033c.205 0 .337.036.436.116a.332.332 0 0 1 .132.281c0 .154-.102.288-.269.349v.005c.151.038.328.163.328.399 0 .137-.054.24-.134.318-.111.102-.29.149-.55.149-.142 0-.25-.009-.319-.019v-1.565zm.205.652h.186c.217 0 .344-.113.344-.267 0-.186-.142-.26-.349-.26a.897.897 0 0 0-.182.014v.513zm0 .762c.04.007.099.01.172.01.212 0 .408-.078.408-.309 0-.217-.186-.307-.41-.307h-.17v.606zM17.712 63.887l-.165.5h-.212l.541-1.591h.248l.543 1.591h-.219l-.17-.5h-.566zm.521-.16l-.156-.458c-.035-.104-.059-.198-.083-.29h-.004c-.024.094-.05.191-.08.288l-.156.46h.479zM18.9 64.388v-1.591h.224l.51.805c.118.186.21.354.285.516l.005-.002a7.022 7.022 0 0 1-.024-.654v-.666h.194v1.591h-.208l-.505-.807a5.015 5.015 0 0 1-.297-.531l-.007.003c.012.201.017.392.017.656v.68H18.9zM20.455 62.817c.125-.019.274-.033.436-.033.295 0 .505.068.644.198.142.13.224.314.224.571 0 .26-.08.472-.229.618-.149.148-.394.229-.703.229-.146 0-.269-.007-.373-.019v-1.564zm.205 1.407c.052.009.127.012.208.012.439 0 .677-.245.677-.675.002-.375-.21-.614-.644-.614-.106 0-.186.01-.241.021v1.256zM22.253 63.887l-.165.5h-.212l.54-1.591h.248l.543 1.591h-.219l-.17-.5h-.565zm.521-.16l-.156-.458c-.035-.104-.059-.198-.083-.29h-.005c-.024.094-.05.191-.08.288l-.156.46h.48zM23.647 62.797v1.591h-.205v-1.591h.205zM24.885 63.019h-.005l-.267.144-.04-.158.335-.18h.177v1.534h-.201v-1.34zM25.766 64.214c.045.005.097 0 .168-.007a.573.573 0 0 0 .321-.149.67.67 0 0 0 .203-.408h-.007a.45.45 0 0 1-.361.165c-.276 0-.453-.208-.453-.469 0-.29.21-.545.524-.545s.507.255.507.646c0 .337-.113.573-.264.719a.767.767 0 0 1-.446.206.985.985 0 0 1-.191.012v-.17zm.076-.883c0 .191.116.326.295.326a.343.343 0 0 0 .302-.16.135.135 0 0 0 .019-.076c0-.262-.097-.463-.314-.463-.177 0-.302.156-.302.373zM26.978 64.214c.045.005.097 0 .168-.007a.573.573 0 0 0 .321-.149.67.67 0 0 0 .203-.408h-.007a.45.45 0 0 1-.361.165c-.276 0-.453-.208-.453-.469 0-.29.21-.545.524-.545.314 0 .507.255.507.646 0 .337-.113.573-.264.719a.767.767 0 0 1-.446.206.985.985 0 0 1-.191.012v-.17zm.076-.883c0 .191.116.326.295.326a.343.343 0 0 0 .302-.16.135.135 0 0 0 .019-.076c0-.262-.097-.463-.314-.463-.177 0-.302.156-.302.373zM28.945 62.97a.745.745 0 0 0-.156.01.621.621 0 0 0-.533.545h.007a.457.457 0 0 1 .37-.177c.271 0 .463.196.463.495 0 .281-.191.541-.51.541-.328 0-.543-.255-.543-.654 0-.302.109-.54.26-.691a.839.839 0 0 1 .491-.227c.061-.009.113-.012.151-.012v.17zm-.059.886c0-.22-.125-.352-.316-.352a.34.34 0 0 0-.297.189.181.181 0 0 0-.024.092c.005.253.12.439.337.439.18-.001.3-.149.3-.368zM31.196 63.689a11.969 11.969 0 0 1-.024-.687h-.007a8.87 8.87 0 0 1-.201.604l-.281.771h-.156l-.257-.757a7.115 7.115 0 0 1-.184-.618h-.005c-.005.198-.017.465-.031.703l-.043.682h-.196l.111-1.591h.262l.271.769c.066.196.12.37.16.536h.007c.04-.16.097-.335.168-.536l.283-.769h.262l.099 1.591h-.201l-.037-.698zM31.989 63.887l-.165.5h-.212l.54-1.591h.248l.543 1.591h-.219l-.17-.5h-.565zm.521-.16l-.156-.458c-.035-.104-.059-.198-.083-.29h-.005c-.024.094-.05.191-.08.288l-.156.46h.48zM33.178 62.817c.125-.019.274-.033.436-.033.295 0 .505.068.644.198.142.13.224.314.224.571 0 .26-.08.472-.229.618-.149.148-.394.229-.703.229-.146 0-.269-.007-.373-.019v-1.564zm.205 1.407c.052.009.127.012.208.012.439 0 .677-.245.677-.675.002-.375-.21-.614-.644-.614-.106 0-.186.01-.241.021v1.256zM35.575 63.642h-.618v.573h.689v.172h-.894v-1.591h.859v.172h-.654v.503h.618v.171zM36.62 62.797v1.591h-.205v-1.591h.205zM36.979 64.388v-1.591h.224l.51.805c.118.186.21.354.285.516l.005-.002a7.022 7.022 0 0 1-.024-.654v-.666h.194v1.591h-.208l-.505-.807a5.015 5.015 0 0 1-.297-.531l-.007.003c.012.201.017.392.017.656v.68h-.194zM39.36 62.784h.205v1.064c0 .422-.208.552-.481.552a.661.661 0 0 1-.219-.038l.031-.168a.481.481 0 0 0 .172.031c.184 0 .293-.083.293-.394v-1.047zM40.166 63.887l-.165.5h-.212l.54-1.591h.248l.543 1.591h-.22l-.17-.5h-.564zm.521-.16l-.156-.458c-.035-.104-.059-.198-.083-.29h-.005a5.013 5.013 0 0 1-.08.288l-.156.46h.48zM41.355 62.822c.099-.016.229-.031.394-.031.203 0 .352.047.446.132a.43.43 0 0 1 .139.333.469.469 0 0 1-.123.34c-.109.116-.286.175-.486.175a.752.752 0 0 1-.165-.014v.637h-.205v-1.572zm.205.767a.68.68 0 0 0 .17.016c.248 0 .399-.12.399-.34 0-.21-.149-.312-.375-.312a.812.812 0 0 0-.193.017v.619zM42.67 63.887l-.165.5h-.212l.54-1.591h.248l.543 1.591h-.219l-.17-.5h-.565zm.522-.16l-.156-.458c-.035-.104-.059-.198-.083-.29h-.005a5.013 5.013 0 0 1-.08.288l-.156.46h.48zM43.859 64.388v-1.591h.224l.51.805c.118.186.21.354.285.516l.005-.002a7.04 7.04 0 0 1-.023-.654v-.666h.193v1.591h-.208l-.505-.807a5.015 5.015 0 0 1-.297-.531l-.007.003c.012.201.016.392.016.656v.68h-.193z"/>
  </g>
  <g>
    <g fill="#2a2c2b">
      <path d="M13.511 27.566v-.427h.783c.649 0 .794-.006.849-.034l.103-.035c.02 0 .105-.036.189-.079.19-.099.594-.494.594-.58l.047-.175a.553.553 0 0 0 .041-.237l-.007-.119-1.201-.006c-1.096-.005-1.204-.009-1.23-.045-.02-.027-.029-.148-.029-.403 0-.3.006-.37.036-.4.032-.032.205-.036 1.556-.036 1.293 0 1.524.005 1.547.033.02.024.025.205.02.688-.006.577-.012.662-.048.717l-.041.103-.058.157-.057.158c0 .023.086.134.191.246.348.373.502.553.502.587l.029.052.085.082.029.121-.027.058h-.78l-.166-.174a1.65 1.65 0 0 1-.191-.229c-.033-.073-.099-.087-.161-.033l-.074.044-.061.034-.379.197-.118.046-.167.06-.089.035c-.007.011-.395.02-.866.02h-.853v-.426z"/>
      <path d="M17.271 26.845c-.084-.013-.089-.044-.082-.457l.007-.346 1.372-.006c.994-.004 1.381.002 1.403.02.024.02.032.109.032.378 0 .3-.006.357-.038.384-.031.026-.273.032-1.334.034a46.121 46.121 0 0 1-1.36-.007zM19.914 27.965v-.869l.764-.143c.259-.1.325-.261.398-.578.014-.082.033-.186.034-.694.001-.463.009-.644.029-.664l.56.009c.054.054.054 1.793 0 1.95-.051.147-.177 1.015-1.03 1.016h-.355c-.259.001-.381-.007-.4-.027zM24.071 26.845l-.077-.072.01-.714c.015-.023.319-.029 1.391-.029 1.333 0 1.373.001 1.396.045l-.009.73c-.032.043-.075.045-1.345.048a48.207 48.207 0 0 1-1.366-.008zM27.938 27.957c-.028-.072-.016-.831.014-.86.021-.02.26-.028.933-.028.738 0 .918-.006.971-.033a2.26 2.26 0 0 1 .239-.087c.218-.068.36-.164.457-.309l.075-.114-.006-.358-.006-.358-1.45-.006-1.45-.006-.022-.059a1.946 1.946 0 0 1-.023-.358c0-.268.005-.304.046-.345.045-.045.077-.046 1.788-.046 1.553 0 1.746.004 1.779.036.031.032.036.138.036.821 0 .74-.003.794-.05.94-.051.159-.11.304-.177.439-.049.097-.425.466-.475.466l-.037.021c0 .048-.238.16-.45.212l-.114.045c-.013.013-.435.021-1.043.021-.91.002-1.022-.002-1.035-.034zM31.807 27.961c-.018-.021-.025-.139-.02-.363l.007-.331.058-.016c.032-.009.239-.017.46-.018l.402-.002.077-.086c.071-.08.077-.099.077-.238 0-.238-.028-.227.604-.235.509-.006.55-.01.598-.053l.08-.199c-.013-.041-.063-.043-1.235-.043-.671 0-1.237-.006-1.257-.014v-.665c.02-.008.719-.014 1.554-.014 1.15 0 1.525.007 1.546.028.039.039.036.938-.003 1.081-.066.239-.171.367-.398.489l-.137.074-.433.01-.433.009v.118c0 .2-.102.361-.29.456-.082.042-.137.046-.659.046-.46-.002-.577-.008-.598-.034zM39.201 28.07c-.021-.009-.029-.115-.029-.423 0-.354.005-.415.038-.442.031-.026.312-.034 1.53-.043l1.492-.012.006-.575c.005-.511.002-.58-.032-.618-.037-.041-.108-.043-1.492-.043-.958 0-1.468-.008-1.498-.024-.041-.022-.045-.052-.045-.38s.004-.358.045-.38h3.675c.043.023.045.064.045 1.475v1.452l-.052.014-3.683-.001zM43.359 28.071l-.006-.794c.019-.03.176-.036 1.134-.041.881-.005.965-.001 1.161-.037.243-.08.35-.093.54-.285a.767.767 0 0 0 .228-.391c.029-.248.032-.187.032-.706 0-.478.007-.662.028-.682l.569-.007c.025.016.029.198.023.967-.007.864.003.847-.048.992-.077.169-.152.33-.343.519-.165.164-.238.217-.395.29-.41.192-.278.177-1.659.183a34.119 34.119 0 0 1-1.264-.008zM23.959 27.967c-.019.019-.141.028-.398.028h-.355c-.853-.002-.979-.869-1.03-1.016-.054-.157-.054-1.896 0-1.95l.56-.009c.02.02.028.201.029.664 0 .508.019.612.034.694.073.317.139.478.398.578l.764.143v.868z"/>
      <path d="M23.474 24.919a.626.626 0 1 0 0 1.253.626.626 0 0 0 0-1.253zm0 .804a.178.178 0 1 1 0-.357.178.178 0 0 1 0 .357zM38.764 26.041l-3.551-.311-.111-.122v-.521l.111-.102 3.551.311.111.121v.521zM38.764 27.02l-3.551-.311-.111-.121v-.522l.111-.102 3.551.311.111.122v.521zM38.764 27.999l-3.551-.311-.111-.121v-.522l.111-.102 3.551.311.111.122v.521z"/>
      <path d="M45.647 25.964h-2.155a.14.14 0 0 1-.14-.14v-.698a.14.14 0 0 1 .14-.14h2.155a.14.14 0 0 1 .14.14v.698a.14.14 0 0 1-.14.14z" fill-rule="evenodd" clip-rule="evenodd"/>
    </g>
    <path d="M48.381 25.086l.022.001a.379.379 0 0 1 .104.014.172.172 0 0 1 .112.103.265.265 0 0 1 .016.073v.028a.229.229 0 0 1-.035.132.177.177 0 0 1-.113.074l.182.304h-.173l-.161-.287h-.181v.287h-.153v-.73h.38zm-.036.13h-.188v.184h.188l.004.001h.004a.252.252 0 0 0 .089-.015c.027-.01.04-.036.039-.078 0-.043-.014-.069-.042-.078a.35.35 0 0 0-.094-.014z" fill="#2a2c2b"/>
    <circle cx="48.337" cy="25.45" r=".76" fill="none" stroke="#2a2c2b" stroke-width=".107" stroke-miterlimit="10"/>
  </g>
  <g>
    <g fill="#d0878a">
      <path d="M13.331 32.553v-.455h.833c.691 0 .845-.006.903-.037l.11-.037a.885.885 0 0 0 .201-.084c.202-.105.632-.525.632-.617l.05-.187a.58.58 0 0 0 .043-.253l-.007-.125-1.278-.006c-1.166-.006-1.28-.01-1.308-.048-.022-.029-.031-.157-.031-.428 0-.319.007-.393.039-.425.034-.034.218-.039 1.656-.039 1.376 0 1.621.005 1.646.035.022.026.027.219.021.732-.007.614-.013.705-.051.762l-.044.109-.061.167-.061.168c0 .025.091.143.203.262.37.397.534.589.534.625l.031.056.09.087.031.129-.028.061h-.83l-.176-.185a1.726 1.726 0 0 1-.203-.244c-.035-.078-.105-.092-.171-.035l-.079.047-.065.036-.403.21-.125.049-.178.064-.095.037c-.007.012-.42.022-.921.022h-.908v-.453z"/>
      <path d="M17.33 31.787c-.089-.014-.095-.047-.087-.487l.007-.369 1.459-.007c1.057-.005 1.469.002 1.493.022.026.021.034.116.034.403 0 .319-.006.38-.041.408-.033.028-.29.034-1.419.037a57.154 57.154 0 0 1-1.446-.007zM37.664 31.787l-.082-.077.011-.76c.016-.024.339-.031 1.48-.031 1.418 0 1.46.001 1.485.048l-.01.777c-.034.046-.079.048-1.431.051a54.438 54.438 0 0 1-1.453-.008zM20.706 32.969c-.029-.077-.017-.884.015-.915.022-.022.276-.029.993-.029.785 0 .977-.006 1.033-.035.038-.019.152-.061.254-.092.232-.072.383-.174.486-.329l.08-.121-.006-.381-.007-.381-1.543-.006-1.543-.006-.024-.063a2.061 2.061 0 0 1-.024-.381c0-.285.005-.323.049-.367.048-.048.082-.049 1.902-.049 1.652 0 1.858.004 1.892.039.033.034.038.147.038.874 0 .787-.003.845-.053 1a3.203 3.203 0 0 1-.189.467c-.052.103-.452.496-.505.496l-.04.023c0 .051-.253.17-.479.226l-.122.048c-.014.014-.462.023-1.109.023-.965-.002-1.085-.007-1.098-.041zM24.821 32.974c-.019-.023-.026-.147-.022-.386l.007-.352.061-.017c.034-.009.254-.018.489-.02l.428-.002.082-.092c.076-.085.082-.106.082-.253 0-.253-.03-.241.642-.25.541-.006.585-.01.636-.056l.085-.212c-.014-.044-.067-.046-1.313-.046-.714 0-1.316-.007-1.337-.015v-.707c.021-.008.765-.015 1.654-.015 1.223 0 1.622.007 1.644.029.041.041.039.998-.003 1.15-.07.254-.182.391-.423.52l-.146.079-.461.01-.461.01v.125a.525.525 0 0 1-.309.485c-.087.044-.146.049-.701.049-.487 0-.611-.007-.634-.034zM32.222 30.931l-3.777-.331-.118-.129v-.554l.118-.109 3.777.33.119.13v.554zM32.222 31.972l-3.777-.33-.118-.13v-.554l.118-.109 3.777.331.119.129v.554zM32.222 33.014l-3.777-.331-.118-.129v-.555l.118-.109 3.777.331.119.13v.554zM36.311 29.954h-2.853c.004.068-.05.275-.198.482a.863.863 0 0 1-.329.275v.908c.069-.001.593-.021.925-.459.232-.306.235-.638.231-.744h2.197l-.001.263v.239c-.001.176-2.195.137-2.195.137l-.003.576s2.015-.025 2.063.057c.025.043-.039.164-.089.217-.188.204-.272.186-.433.232-.191.054-.415.046-1.289.051-.951.006-1.106.012-1.125.044l.006.844c.016.007.581.011 1.255.007 1.37-.006 1.239.01 1.646-.194.156-.078.228-.135.392-.309.189-.201.264-.372.34-.552.05-.155.041-.137.048-1.056.006-.819.002-1.012-.023-1.029l-.565.011zM43.584 31.005h1.571a.086.086 0 0 0 .085-.085v-.596a.086.086 0 0 0-.085-.085h-1.571v-.427a.09.09 0 0 0-.09-.09h-.898a.09.09 0 0 0-.09.09v.427H40.98a.086.086 0 0 0-.085.085v.596c0 .046.038.085.085.085h1.526v2.091c0 .049.04.09.09.09h.898a.09.09 0 0 0 .09-.09v-2.091z"/>
      <path d="M41.361 31.257s.704.013.704 0l-.013.985c0 .489-.54.931-1.3.931 0 0-.141-.545-.087-.905 0 0 .375.037.54-.109.214-.19.156-.902.156-.902zM44.772 31.257s-.704.013-.704 0l.013.985c0 .489.54.931 1.3.931 0 0 .141-.545.087-.905 0 0-.375.037-.54-.109-.214-.19-.156-.902-.156-.902zM44.233 30.089h-.196a.25.25 0 0 1-.249-.249.25.25 0 0 1 .249-.249h.196a.25.25 0 0 1 .249.249.25.25 0 0 1-.249.249zM45.071 30.089h-.196a.25.25 0 0 1-.249-.249.25.25 0 0 1 .249-.249h.196a.25.25 0 0 1 .249.249.25.25 0 0 1-.249.249z"/>
    </g>
  </g>
  <path d="M55.083 104.529H36.631c-1.017 0-1.445 1.297-.628 1.902l9.226 6.833c.373.276.882.276 1.255 0l9.226-6.833c.818-.605.39-1.902-.627-1.902z" fill="#c7c7c4"/>
  <g>
    <path d="M153.733 0c44.64 0 45.857 5.692 45.857 12.064v108.369c0 .783-.64 1.423-1.423 1.423h-88.868c-.783 0-1.423-.64-1.423-1.423V12.064C107.876 5.692 109.093 0 153.733 0z" fill="#c7cac4"/>
    <linearGradient id="b" gradientUnits="userSpaceOnUse" x1="153.733" y1="77.824" x2="153.733" y2="8.09">
      <stop offset="0" stop-color="#c7cac4"/>
      <stop offset=".253" stop-color="#c5c5be"/>
      <stop offset="1" stop-color="#c4c4bc"/>
    </linearGradient>
    <path d="M114.57 77.824V12.797c0-2.486 1.039-4.706 39.163-4.706s39.163 2.221 39.163 4.706v65.028" fill="url(#b)" stroke="#929392" stroke-width=".107" stroke-miterlimit="10"/>
    <path d="M163.095 104.773h-18.452c-1.017 0-1.445 1.297-.628 1.902l9.226 6.833c.373.276.882.276 1.255 0l9.226-6.833c.818-.605.39-1.902-.627-1.902z" fill="#999998"/>
    <path d="M186.475 68.481h-65.698a3.675 3.675 0 0 1-3.665-3.665V24.893a3.675 3.675 0 0 1 3.665-3.665h65.698a3.675 3.675 0 0 1 3.665 3.665v39.923a3.677 3.677 0 0 1-3.665 3.665z" fill="#b2aeaa"/>
    <path d="M120.777 68.116a3.303 3.303 0 0 1-3.299-3.299V24.893a3.303 3.303 0 0 1 3.299-3.299h65.698a3.303 3.303 0 0 1 3.299 3.299v39.923a3.303 3.303 0 0 1-3.299 3.299h-65.698z" fill="#284976"/>
    <path d="M120.777 66.289a1.475 1.475 0 0 1-1.473-1.473V24.893c0-.812.661-1.473 1.473-1.473h65.698c.812 0 1.473.661 1.473 1.473v39.923c0 .812-.661 1.473-1.473 1.473h-65.698z" fill="#a0c0cf" stroke="#42c5e8" stroke-width=".25" stroke-miterlimit="10"/>
    <circle cx="178.751" cy="32.584" r="8.405" fill="#fff" stroke="#2a2c2b" stroke-width=".215" stroke-miterlimit="10"/>
    <circle cx="178.751" cy="32.584" r="6.291" fill="#2a2c2b"/>
    <ellipse cx="175.779" cy="33.312" rx="2.583" ry="1.105" fill="#75ce97"/>
    <path d="M182.27 35.4c0 .61-1.157 1.105-2.583 1.105-1.427 0-2.583-.495-2.583-1.105s1.157-1.105 2.583-1.105c1.427 0 2.583.495 2.583 1.105z" fill="#f1dd75"/>
    <path d="M182.522 34.795c-.217-1.304-1.225-2.798-2.695-2.28 1.35-2.632 3.515-2.049 4.213-1.072.543.761.359 3.222-1.518 3.352z" fill="#f06547"/>
    <path d="M178.565 32.707c-.219-1.263-1.231-2.712-2.7-2.214 1.344-2.546 3.51-1.977 4.21-1.029.545.738.366 3.122-1.51 3.243z" fill="#51afd8"/>
    <g>
      <g fill="#2a2c2b">
        <path d="M172.699 28.272a.41.41 0 0 0-.059.141c-.008.044.008.077.047.101.03.018.06.016.09-.005a.308.308 0 0 0 .082-.089c.076-.12.115-.179.195-.294l.024-.032.025-.033a.63.63 0 0 1 .083-.088.276.276 0 0 1 .097-.057.172.172 0 0 1 .089-.007.211.211 0 0 1 .078.03l.021.013.02.014c.079.065.11.14.096.22a.745.745 0 0 1-.13.272 5.55 5.55 0 0 0-.351.562l-.139-.078a5.65 5.65 0 0 1 .338-.543.47.47 0 0 0 .067-.129c.012-.041-.004-.073-.048-.097-.034-.019-.066-.017-.093.005a.469.469 0 0 0-.083.091c-.07.1-.104.151-.17.256a.778.778 0 0 1-.206.237c-.071.048-.15.05-.235.001-.089-.051-.131-.125-.121-.217s.052-.202.129-.324c.158-.251.242-.37.419-.598l.125.099a6.002 6.002 0 0 0-.39.549zM173.702 27.575c.056.051.109.076.16.076.051 0 .111-.038.184-.113.073-.074.109-.135.107-.185-.001-.05-.027-.103-.078-.157l-.366-.392c.077-.073.117-.109.196-.178l.354.408.021.024a.492.492 0 0 1 .069.105.233.233 0 0 1 .019.097.32.32 0 0 1-.041.146.802.802 0 0 1-.137.185c-.015.016-.029.032-.044.046l-.044.043c-.015.015-.032.029-.048.043a.914.914 0 0 1-.137.101.337.337 0 0 1-.15.047.203.203 0 0 1-.097-.018.366.366 0 0 1-.08-.049l-.025-.019-.023-.02-.413-.35c.07-.083.105-.124.177-.203l.396.363zM174.554 26.122a.008.008 0 0 0 .004-.002l.003-.002.054-.037.056-.034a.908.908 0 0 1 .103-.053.438.438 0 0 1 .106-.031c.065-.01.119-.001.164.025s.079.06.105.101a.259.259 0 0 1 .005.268.421.421 0 0 1-.087.106 1.428 1.428 0 0 1-.113.089l-.032.021-.031.021a4.834 4.834 0 0 0-.236.169l.188.25c-.073.055-.11.084-.181.142l-.562-.695c.177-.142.268-.21.454-.338zm.088.133a5.584 5.584 0 0 0-.24.173l.158.211c.096-.072.144-.107.243-.174a.42.42 0 0 0 .113-.108c.027-.039.025-.08-.002-.123-.029-.048-.068-.068-.118-.053a.563.563 0 0 0-.154.076v-.002zM175.51 25.803a.205.205 0 0 0 .003.171c.24-.123.362-.179.611-.278l.058.144a5.638 5.638 0 0 0-.599.271.341.341 0 0 0 .054.075.19.19 0 0 0 .084.047c.031.009.062.01.094 0a.643.643 0 0 0 .092-.035l.006-.003.006-.003c.136-.064.206-.094.345-.149l.058.144a5.03 5.03 0 0 0-.347.149 1.387 1.387 0 0 1-.164.064.425.425 0 0 1-.171.017.348.348 0 0 1-.184-.069.516.516 0 0 1-.144-.17l-.017-.033c-.059-.129-.066-.244-.018-.345.049-.102.157-.196.323-.273.154-.072.232-.106.389-.168l.058.144a5.9 5.9 0 0 0-.376.161c-.084.04-.137.087-.161.139zM176.793 25.094a.359.359 0 0 0 .035-.008l.035-.008a.874.874 0 0 1 .135-.017.286.286 0 0 1 .124.024.21.21 0 0 1 .081.06.237.237 0 0 1 .045.082l.005.017.004.017a.245.245 0 0 1-.02.169.29.29 0 0 1-.148.126c.144.118.213.18.345.305-.098.019-.147.03-.244.053a5.431 5.431 0 0 0-.32-.28c-.107.029-.16.045-.265.079l.109.333c-.085.027-.127.042-.211.072l-.306-.839c.235-.083.355-.121.596-.185zm-.015.169c-.117.032-.175.05-.291.087l.07.214c.112-.036.169-.053.282-.084h.006l.006-.002a.528.528 0 0 0 .13-.053c.038-.022.049-.058.036-.107-.013-.051-.042-.077-.088-.077a.553.553 0 0 0-.15.023l-.001-.001zM178.159 24.978c.066-.08.224-.129.47-.132.154-.002.23-.001.384.005l-.007.155a5.841 5.841 0 0 0-.397-.006c-.103.003-.179.023-.225.057s-.07.092-.071.172c.273-.016.41-.017.683-.006l-.007.154a5.955 5.955 0 0 0-.668.004l.021.365a5.605 5.605 0 0 0-.221.016l-.037-.409c-.014-.169.009-.295.075-.375zM179.788 24.924c.149.383.211.576.309.963a4.928 4.928 0 0 0-.242-.048 6.307 6.307 0 0 0-.061-.226 5.725 5.725 0 0 0-.469-.06 8.115 8.115 0 0 0-.113.204 6.065 6.065 0 0 0-.233-.014c.193-.349.301-.521.543-.853.107.012.16.019.266.034zm-.372.478c.132.014.198.022.329.042a8.157 8.157 0 0 0-.123-.363 7.541 7.541 0 0 0-.206.321zM180.732 25.127c.042.297.057.445.076.74.193-.225.295-.335.508-.547.139.053.208.081.345.14l-.361.817a5.059 5.059 0 0 0-.202-.084c.11-.255.166-.383.278-.638-.216.213-.32.323-.515.549a5.867 5.867 0 0 0-.224-.074 7.849 7.849 0 0 0-.087-.756c-.063.274-.096.411-.161.684a7.853 7.853 0 0 0-.22-.055l.204-.869c.144.033.216.052.359.093zM181.5 26.369l.389-.805c.097.046.145.07.24.12l-.418.79a8.28 8.28 0 0 0-.211-.105zM182.45 26.148a.422.422 0 0 0-.156.145l-.021.035-.02.036a.3.3 0 0 0-.027.083.197.197 0 0 0 .004.09.18.18 0 0 0 .05.081c.024.022.05.042.079.061l.006.004.006.004c.127.085.19.129.313.222l-.094.124a4.85 4.85 0 0 0-.314-.224 1.309 1.309 0 0 1-.141-.108.433.433 0 0 1-.104-.138.337.337 0 0 1-.036-.193.5.5 0 0 1 .053-.176c.006-.012.012-.024.019-.034a.54.54 0 0 1 .02-.031c.08-.117.174-.183.287-.194s.25.033.405.137c.143.095.214.146.353.25l-.093.122a6.036 6.036 0 0 0-.34-.243c-.105-.068-.188-.084-.249-.053zM183.09 26.608a.374.374 0 0 1 .201-.043.52.52 0 0 1 .232.083 1.209 1.209 0 0 1 .262.222.997.997 0 0 1 .073.094.547.547 0 0 1 .099.228.355.355 0 0 1-.03.206.533.533 0 0 1-.203.22.478.478 0 0 1-.09.046.37.37 0 0 1-.202.02.535.535 0 0 1-.207-.092 1.741 1.741 0 0 1-.23-.2c-.022-.024-.041-.048-.061-.073a.518.518 0 0 1-.101-.198.387.387 0 0 1 .049-.292.62.62 0 0 1 .127-.164.635.635 0 0 1 .081-.057c0 .001 0 0 0 0zm.162.215a.425.425 0 0 0-.176.207.249.249 0 0 0-.021.114.247.247 0 0 0 .043.121.462.462 0 0 0 .171.161.254.254 0 0 0 .125.037c.04 0 .077-.01.112-.028a.496.496 0 0 0 .112-.079.515.515 0 0 0 .081-.11.225.225 0 0 0-.017-.246.545.545 0 0 0-.133-.141.535.535 0 0 0-.054-.034.238.238 0 0 0-.243-.002c0 .001 0 .001 0 0zM184.51 27.71c-.137.273-.21.406-.366.664.295-.055.445-.076.75-.104.088.141.13.214.212.362l-.782.43a7.494 7.494 0 0 0-.123-.215l.607-.339c-.308.026-.46.046-.757.099a4.793 4.793 0 0 0-.148-.215c.156-.265.229-.402.365-.683-.213.184-.32.275-.534.457a4.915 4.915 0 0 0-.155-.19l.678-.581c.104.122.155.185.253.315z"/>
      </g>
      <g fill="#2a2c2b">
        <path d="M171.886 35.927a.378.378 0 0 1-.012-.183.187.187 0 0 1 .06-.116.415.415 0 0 1 .099-.06l.393-.163c.033.08.05.12.086.199l-.357.161a.267.267 0 0 0-.125.093c-.022.036-.008.111.045.219.048.098.073.146.124.241l-.104.056a6.46 6.46 0 0 1-.133-.263 1.216 1.216 0 0 1-.076-.184zM172.153 36.484l.623-.349c.042.076.064.114.107.188l-.612.369a6.992 6.992 0 0 1-.118-.208zM172.943 36.782a.338.338 0 0 0-.163.051l-.027.018a.247.247 0 0 0-.073.074.143.143 0 0 0-.022.073.165.165 0 0 0 .018.086c.014.027.03.054.049.08l.004.005a6.211 6.211 0 0 0 .219.289l-.097.078a5.676 5.676 0 0 1-.224-.299 1.105 1.105 0 0 1-.09-.148.426.426 0 0 1-.045-.16.283.283 0 0 1 .033-.169.32.32 0 0 1 .102-.108.123.123 0 0 1 .025-.017l.026-.014c.101-.051.194-.059.278-.026.084.033.167.11.251.228.078.109.118.162.201.265l-.096.077a6.003 6.003 0 0 1-.201-.267c-.057-.079-.113-.118-.168-.116zM173.52 37.486a.17.17 0 0 0-.132.035c.149.171.227.253.387.409l-.087.089a5.799 5.799 0 0 1-.394-.418.23.23 0 0 0-.047.057.15.15 0 0 0-.016.079c.001.029.01.055.026.08a.537.537 0 0 0 .061.076l.004.005c.095.102.144.151.243.247l-.087.09a6.223 6.223 0 0 1-.253-.26 1.265 1.265 0 0 1-.105-.132.425.425 0 0 1-.062-.149.285.285 0 0 1 .014-.169.343.343 0 0 1 .111-.14l.024-.017c.094-.064.184-.084.27-.064.086.02.176.083.271.187.089.095.134.141.226.231l-.087.09a5.568 5.568 0 0 1-.227-.233c-.047-.054-.094-.085-.14-.093zM174.28 37.999a6.184 6.184 0 0 0-.026.642l.307-.413c.061.047.092.07.155.116l-.421.579a6.554 6.554 0 0 1-.194-.146 6.157 6.157 0 0 1 .024-.682l-.349.414a4.416 4.416 0 0 1-.161-.146l.485-.526c.071.067.107.099.18.162zM175.041 38.717a.28.28 0 0 0-.1-.039c-.031-.005-.056.009-.076.039-.015.023-.017.046-.002.07a.185.185 0 0 0 .063.061 5.631 5.631 0 0 0 .275.164c.025.016.05.034.072.054s.039.042.052.067a.155.155 0 0 1 .017.068.203.203 0 0 1-.013.065l-.007.018a.254.254 0 0 1-.008.018c-.039.072-.094.109-.162.106a.539.539 0 0 1-.238-.083 6.298 6.298 0 0 1-.466-.295l.073-.105c.169.116.255.171.431.274a.324.324 0 0 0 .109.044c.035.006.058-.011.072-.048.011-.029.008-.053-.011-.073a.444.444 0 0 0-.075-.057 5.1 5.1 0 0 1-.2-.123.467.467 0 0 1-.169-.164c-.03-.057-.022-.118.024-.182.049-.067.106-.096.17-.09a.525.525 0 0 1 .216.087c.167.104.252.153.425.244l-.06.112a4.388 4.388 0 0 1-.412-.232zM175.792 39.166a.177.177 0 0 0-.105.087c.195.091.294.132.494.207l-.045.116a6.152 6.152 0 0 1-.503-.212.234.234 0 0 0-.021.07.138.138 0 0 0 .015.077.148.148 0 0 0 .053.061.499.499 0 0 0 .076.04l.006.002a6.771 6.771 0 0 0 .313.125l-.045.116a6.335 6.335 0 0 1-.321-.13 1.039 1.039 0 0 1-.141-.074.383.383 0 0 1-.109-.107.268.268 0 0 1-.048-.156.363.363 0 0 1 .048-.171l.015-.026a.35.35 0 0 1 .217-.171.523.523 0 0 1 .309.054c.114.048.171.071.286.114l-.045.116a5.932 5.932 0 0 1-.287-.116c-.064-.025-.118-.034-.162-.022zM176.821 39.366c.129.038.219.088.271.155.052.067.07.156.054.268a.313.313 0 0 1-.013.06c-.013.045-.034.092-.065.133s-.077.071-.137.09a.363.363 0 0 1-.15.014.994.994 0 0 1-.157-.032 6.26 6.26 0 0 1-.428-.136l.242-.673c.152.053.229.077.383.121zm-.038.119a8.226 8.226 0 0 1-.208-.063l-.146.442a5.671 5.671 0 0 0 .227.07l.006.002a.521.521 0 0 0 .084.017.146.146 0 0 0 .08-.013.144.144 0 0 0 .059-.049.278.278 0 0 0 .033-.064l.009-.028.008-.029.008-.03c.003-.011.004-.022.005-.032a.325.325 0 0 0 .004-.07.136.136 0 0 0-.026-.068.15.15 0 0 0-.058-.051.568.568 0 0 0-.081-.03l-.005-.002.001-.002zM177.712 40.281l.099-.707c.178.024.268.033.447.046l.022.003.022.003a.826.826 0 0 1 .167.036.156.156 0 0 1 .101.113c.013.051.007.094-.016.128a.26.26 0 0 1-.12.086c.061.025.101.055.121.092a.172.172 0 0 1 .005.133.15.15 0 0 1-.112.104.616.616 0 0 1-.184.018l-.012-.001-.012-.001a6.74 6.74 0 0 1-.528-.053zm.249-.393c.112.012.168.017.28.025.036.003.066 0 .091-.011.024-.01.038-.031.04-.063.002-.031-.008-.053-.032-.066a.202.202 0 0 0-.086-.023 5.037 5.037 0 0 1-.273-.026c-.009.065-.012.098-.02.164zm.356.308c.025-.011.038-.032.039-.064.002-.032-.009-.055-.031-.068a.229.229 0 0 0-.092-.024 5.425 5.425 0 0 1-.286-.027l-.019.167c.117.013.176.018.293.026a.191.191 0 0 0 .096-.01zM178.795 39.638c.087.109.132.162.225.268.087-.112.129-.169.209-.283.085-.006.128-.009.213-.017a5.897 5.897 0 0 1-.317.423l.016.315c-.081.004-.122.005-.203.007l-.007-.315a5.498 5.498 0 0 1-.341-.399l.205.001zM180.179 39.494c.183.172.279.255.482.415l-.14-.494c.073-.019.109-.029.182-.05l.202.685a8.489 8.489 0 0 1-.228.062 6.266 6.266 0 0 1-.514-.438l.117.527c-.082.016-.123.024-.205.038l-.124-.703c.091-.015.137-.023.228-.042zM181.094 39.994l-.22-.68c.074-.023.11-.035.183-.061l.239.674a7.954 7.954 0 0 1-.202.067zM181.447 39.105c.214.134.325.197.555.314l-.233-.458.17-.084.331.634a6.07 6.07 0 0 1-.214.106 6.118 6.118 0 0 1-.591-.33l.216.496c-.078.032-.117.047-.195.077l-.257-.667c.088-.035.132-.052.218-.088zM182.078 38.945l-.059-.11c.271-.144.403-.224.658-.399l.071.102c-.098.067-.147.1-.247.162l.315.499-.182.111-.301-.507a5.317 5.317 0 0 1-.255.142zM183.027 38.39a.18.18 0 0 0 .026.134 5.83 5.83 0 0 0 .427-.347l.082.094a5.8 5.8 0 0 1-.436.353c.015.02.033.038.052.052.02.014.045.022.076.023a.152.152 0 0 0 .08-.019.474.474 0 0 0 .078-.054l.005-.004c.106-.085.158-.129.26-.22l.082.094a5.93 5.93 0 0 1-.274.229.94.94 0 0 1-.135.091.372.372 0 0 1-.148.047.27.27 0 0 1-.163-.03.362.362 0 0 1-.129-.123l-.016-.026c-.057-.098-.072-.189-.048-.272.024-.083.091-.165.198-.251.099-.079.147-.12.243-.205l.082.094a4.747 4.747 0 0 1-.245.205.278.278 0 0 0-.097.135zM183.59 37.676c.251.04.38.054.641.07l-.387-.339.132-.151.543.466a6.03 6.03 0 0 1-.165.189 5.77 5.77 0 0 1-.681-.071l.384.382a5.631 5.631 0 0 1-.158.151l-.484-.527.175-.17zM184.357 36.759c.084-.12.166-.198.25-.232.084-.034.176-.027.278.023l.027.014c.008.004.017.011.026.017a.376.376 0 0 1 .103.107.281.281 0 0 1 .035.169.441.441 0 0 1-.042.159 1.143 1.143 0 0 1-.09.152c-.112.161-.171.24-.291.391l-.556-.45c.108-.136.16-.206.26-.35zm.1.075a5.48 5.48 0 0 1-.138.191l.37.283c.06-.08.09-.121.148-.204l.005-.005.004-.005a.615.615 0 0 0 .048-.081.175.175 0 0 0 .017-.086.153.153 0 0 0-.025-.076.281.281 0 0 0-.049-.054l-.024-.018-.025-.016-.026-.017a.16.16 0 0 0-.029-.015c-.02-.009-.043-.02-.066-.025a.14.14 0 0 0-.075.006.184.184 0 0 0-.071.044.537.537 0 0 0-.055.069l-.003.005-.006.004c0 .001 0 .001 0 0zM184.832 36.385a.322.322 0 0 1-.057-.158.496.496 0 0 1 .027-.196 1.045 1.045 0 0 1 .068-.163c.013-.029.029-.057.045-.086.017-.028.034-.054.052-.08a.512.512 0 0 1 .14-.142.305.305 0 0 1 .161-.05.43.43 0 0 1 .155.03.473.473 0 0 1 .074.039.282.282 0 0 1 .135.212.547.547 0 0 1-.024.219 1.266 1.266 0 0 1-.125.28 1.067 1.067 0 0 1-.053.078.504.504 0 0 1-.156.144.279.279 0 0 1-.244.014.43.43 0 0 1-.142-.085.23.23 0 0 1-.056-.056c.001 0 0 0 0 0zm.153-.169a.252.252 0 0 0 .085.07.29.29 0 0 0 .104.035.194.194 0 0 0 .095-.009.233.233 0 0 0 .094-.072.438.438 0 0 0 .062-.096c.009-.017.016-.036.023-.053a.368.368 0 0 0 .016-.054.249.249 0 0 0 .002-.121.174.174 0 0 0-.049-.083c-.013-.012-.027-.025-.042-.036a.282.282 0 0 0-.099-.045c-.018-.005-.037-.007-.055-.009a.18.18 0 0 0-.094.014.236.236 0 0 0-.089.073c-.01.013-.021.027-.031.043-.009.015-.018.03-.026.047a.558.558 0 0 0-.037.1.238.238 0 0 0-.003.112c.009.032.023.06.044.084z"/>
      </g>
    </g>
    <g>
      <path d="M123.217 63.589c0 .518-.397.933-.906.933a.918.918 0 0 1-.915-.933c0-.511.403-.926.915-.926a.91.91 0 0 1 .906.926zm-1.67.009c0 .448.331.8.764.8.424 0 .755-.352.755-.81 0-.448-.331-.803-.755-.803-.433.001-.764.356-.764.813zm1.132-.352a.65.65 0 0 0-.292-.069c-.283 0-.421.18-.421.421 0 .235.147.424.424.424a.59.59 0 0 0 .304-.078l.036.114a.687.687 0 0 1-.37.093c-.349 0-.551-.24-.551-.545 0-.343.271-.56.575-.56.156 0 .292.045.331.081l-.036.119zM124.05 62.817a1.98 1.98 0 0 1 .375-.033c.205 0 .337.036.436.116a.332.332 0 0 1 .132.281c0 .154-.102.288-.269.349v.005c.151.038.328.163.328.399 0 .137-.054.24-.134.318-.111.102-.29.149-.55.149-.142 0-.25-.009-.319-.019v-1.565zm.205.652h.186c.217 0 .344-.113.344-.267 0-.186-.142-.26-.349-.26a.897.897 0 0 0-.182.014v.513zm0 .762c.04.007.099.01.172.01.212 0 .408-.078.408-.309 0-.217-.186-.307-.41-.307h-.17v.606zM125.588 63.887l-.165.5h-.212l.541-1.591H126l.543 1.591h-.219l-.17-.5h-.566zm.521-.16l-.156-.458c-.035-.104-.059-.198-.083-.29h-.005c-.024.094-.05.191-.08.288l-.156.46h.48zM126.777 64.388v-1.591h.224l.51.805c.118.186.21.354.285.516l.005-.002a7.022 7.022 0 0 1-.024-.654v-.666h.194v1.591h-.208l-.505-.807a5.015 5.015 0 0 1-.297-.531l-.007.003c.012.201.017.392.017.656v.68h-.194zM128.331 62.817c.125-.019.274-.033.437-.033.295 0 .505.068.644.198.142.13.224.314.224.571 0 .26-.08.472-.229.618-.149.148-.394.229-.703.229-.146 0-.269-.007-.373-.019v-1.564zm.205 1.407c.052.009.127.012.208.012.439 0 .677-.245.677-.675.002-.375-.21-.614-.644-.614-.106 0-.186.01-.241.021v1.256zM130.129 63.887l-.165.5h-.212l.54-1.591h.248l.543 1.591h-.219l-.17-.5h-.565zm.521-.16l-.156-.458c-.035-.104-.059-.198-.083-.29h-.005a5.013 5.013 0 0 1-.08.288l-.156.46h.48zM131.523 62.797v1.591h-.205v-1.591h.205zM132.761 63.019h-.005l-.267.144-.04-.158.335-.18h.177v1.534h-.201v-1.34zM133.642 64.214c.045.005.097 0 .168-.007a.573.573 0 0 0 .321-.149.67.67 0 0 0 .203-.408h-.007a.45.45 0 0 1-.361.165c-.276 0-.453-.208-.453-.469 0-.29.21-.545.524-.545.314 0 .507.255.507.646 0 .337-.113.573-.264.719a.767.767 0 0 1-.446.206.985.985 0 0 1-.191.012v-.17zm.076-.883c0 .191.116.326.295.326a.343.343 0 0 0 .302-.16.135.135 0 0 0 .019-.076c0-.262-.097-.463-.314-.463-.177 0-.302.156-.302.373zM134.854 64.214c.045.005.097 0 .168-.007a.573.573 0 0 0 .321-.149.67.67 0 0 0 .203-.408h-.007a.45.45 0 0 1-.361.165c-.276 0-.453-.208-.453-.469 0-.29.21-.545.524-.545.314 0 .507.255.507.646 0 .337-.113.573-.264.719a.767.767 0 0 1-.446.206.985.985 0 0 1-.191.012v-.17zm.076-.883c0 .191.116.326.295.326a.343.343 0 0 0 .302-.16.135.135 0 0 0 .019-.076c0-.262-.097-.463-.314-.463-.177 0-.302.156-.302.373zM136.821 62.97a.745.745 0 0 0-.156.01.621.621 0 0 0-.533.545h.007a.457.457 0 0 1 .37-.177c.271 0 .463.196.463.495 0 .281-.191.541-.51.541-.328 0-.543-.255-.543-.654 0-.302.109-.54.26-.691a.839.839 0 0 1 .491-.227c.061-.009.113-.012.151-.012v.17zm-.059.886c0-.22-.125-.352-.316-.352a.34.34 0 0 0-.297.189.181.181 0 0 0-.024.092c.005.253.12.439.337.439.18-.001.3-.149.3-.368zM139.072 63.689a11.969 11.969 0 0 1-.024-.687h-.007a8.87 8.87 0 0 1-.201.604l-.281.771h-.156l-.257-.757a7.115 7.115 0 0 1-.184-.618h-.005c-.005.198-.017.465-.031.703l-.043.682h-.196l.111-1.591h.262l.271.769c.066.196.12.37.16.536h.007c.04-.16.097-.335.168-.536l.283-.769h.262l.099 1.591h-.201l-.037-.698zM139.865 63.887l-.165.5h-.212l.54-1.591h.248l.543 1.591h-.219l-.17-.5h-.565zm.521-.16l-.156-.458c-.035-.104-.059-.198-.083-.29h-.005a5.013 5.013 0 0 1-.08.288l-.156.46h.48zM141.054 62.817c.125-.019.274-.033.437-.033.295 0 .505.068.644.198.142.13.224.314.224.571 0 .26-.08.472-.229.618-.149.148-.394.229-.703.229-.146 0-.269-.007-.373-.019v-1.564zm.205 1.407c.052.009.127.012.208.012.439 0 .677-.245.677-.675.002-.375-.21-.614-.644-.614-.106 0-.186.01-.241.021v1.256zM143.451 63.642h-.618v.573h.689v.172h-.894v-1.591h.859v.172h-.654v.503h.618v.171zM144.496 62.797v1.591h-.205v-1.591h.205zM144.855 64.388v-1.591h.224l.51.805c.118.186.21.354.285.516l.005-.002a7.022 7.022 0 0 1-.024-.654v-.666h.194v1.591h-.208l-.505-.807a5.015 5.015 0 0 1-.297-.531l-.007.003c.012.201.017.392.017.656v.68h-.194zM147.236 62.784h.205v1.064c0 .422-.208.552-.481.552a.661.661 0 0 1-.219-.038l.031-.168a.481.481 0 0 0 .172.031c.184 0 .293-.083.293-.394v-1.047zM148.042 63.887l-.165.5h-.212l.54-1.591h.248l.543 1.591h-.219l-.17-.5h-.565zm.521-.16l-.156-.458c-.035-.104-.059-.198-.083-.29h-.005c-.024.094-.05.191-.08.288l-.156.46h.48zM149.231 62.822c.099-.016.229-.031.394-.031.203 0 .352.047.446.132a.43.43 0 0 1 .139.333.469.469 0 0 1-.123.34c-.109.116-.286.175-.486.175a.752.752 0 0 1-.165-.014v.637h-.205v-1.572zm.205.767a.68.68 0 0 0 .17.016c.248 0 .399-.12.399-.34 0-.21-.149-.312-.375-.312a.812.812 0 0 0-.193.017v.619zM150.546 63.887l-.165.5h-.212l.54-1.591h.248l.543 1.591h-.219l-.17-.5h-.565zm.522-.16l-.156-.458c-.035-.104-.059-.198-.083-.29h-.005a5.013 5.013 0 0 1-.08.288l-.156.46h.48zM151.735 64.388v-1.591h.224l.51.805c.118.186.21.354.285.516l.005-.002a7.04 7.04 0 0 1-.023-.654v-.666h.193v1.591h-.208l-.505-.807a5.015 5.015 0 0 1-.297-.531l-.007.003c.012.201.016.392.016.656v.68h-.193z"/>
    </g>
    <g>
      <g fill="#2a2c2b">
        <path d="M121.388 27.566v-.427h.783c.649 0 .794-.006.849-.034l.104-.035c.02 0 .105-.036.189-.079.19-.099.594-.494.594-.58l.047-.175a.553.553 0 0 0 .041-.237l-.007-.118-1.201-.006c-1.096-.005-1.204-.009-1.23-.045-.02-.027-.029-.148-.029-.403 0-.3.006-.37.036-.4.032-.032.205-.036 1.556-.036 1.293 0 1.524.005 1.547.033.02.024.025.205.02.688-.006.577-.012.662-.048.717l-.041.103-.058.157-.057.158c0 .023.086.134.191.246.348.373.502.553.502.587l.029.052.085.082.029.121-.027.058h-.78l-.166-.174a1.65 1.65 0 0 1-.191-.229c-.033-.073-.099-.087-.161-.033l-.074.044-.061.034-.379.197-.118.046-.167.06-.089.035c-.007.011-.395.02-.866.02h-.853v-.427z"/>
        <path d="M125.147 26.845c-.084-.013-.089-.044-.082-.457l.007-.346 1.372-.006c.994-.004 1.381.002 1.403.02.024.02.032.109.032.378 0 .3-.006.357-.038.384-.031.026-.273.032-1.334.034a46.121 46.121 0 0 1-1.36-.007zM127.79 27.965v-.869l.764-.143c.259-.1.325-.261.398-.578.014-.082.033-.186.034-.694.001-.463.009-.644.029-.664l.56.009c.054.054.054 1.793 0 1.95-.051.147-.177 1.015-1.03 1.016h-.355c-.259.001-.381-.007-.4-.027zM131.948 26.845l-.077-.072.01-.714c.015-.023.319-.029 1.391-.029 1.333 0 1.373.001 1.396.045l-.009.73c-.032.043-.075.045-1.345.048a48.109 48.109 0 0 1-1.366-.008zM135.814 27.957c-.028-.072-.016-.831.014-.86.021-.02.26-.028.933-.028.738 0 .918-.006.971-.033a2.26 2.26 0 0 1 .239-.087c.218-.068.36-.164.457-.309l.075-.114-.006-.358-.006-.358-1.45-.006-1.45-.006-.022-.059a1.946 1.946 0 0 1-.023-.358c0-.268.005-.304.046-.345.045-.045.077-.046 1.788-.046 1.553 0 1.746.004 1.779.036.031.032.036.138.036.821 0 .74-.003.794-.05.94-.051.159-.11.304-.177.439-.049.097-.425.466-.475.466l-.037.021c0 .048-.238.16-.45.212l-.114.045c-.013.013-.435.021-1.043.021-.91.002-1.022-.002-1.035-.034zM139.683 27.961c-.018-.021-.025-.139-.02-.363l.007-.331.058-.016c.032-.009.239-.017.46-.018l.402-.002.077-.086c.071-.08.077-.099.077-.238 0-.238-.028-.227.604-.235.509-.006.55-.01.598-.053l.08-.199c-.013-.041-.063-.043-1.235-.043-.671 0-1.237-.006-1.257-.014v-.665c.02-.008.719-.014 1.554-.014 1.15 0 1.525.007 1.546.028.039.039.036.938-.003 1.081-.066.239-.171.367-.398.489l-.137.074-.433.01-.433.009v.118c0 .2-.102.361-.29.456-.082.042-.137.046-.659.046-.46-.002-.577-.008-.598-.034zM147.077 28.07c-.021-.009-.029-.115-.029-.423 0-.354.005-.415.038-.442.031-.026.312-.034 1.53-.043l1.492-.012.006-.575c.005-.511.002-.58-.032-.618-.037-.041-.108-.043-1.492-.043-.958 0-1.468-.008-1.498-.024-.041-.022-.045-.052-.045-.38s.004-.358.045-.38h3.675c.043.023.045.064.045 1.475v1.452l-.052.014-3.683-.001zM151.235 28.071l-.006-.794c.019-.03.176-.036 1.134-.041.881-.005.965-.001 1.161-.037.243-.08.35-.093.54-.285a.767.767 0 0 0 .228-.391c.029-.248.032-.187.032-.706 0-.478.007-.662.028-.682l.569-.007c.025.016.029.198.023.967-.007.864.003.847-.048.992-.077.169-.152.33-.343.519-.165.164-.238.217-.395.29-.41.192-.278.177-1.659.183a34.119 34.119 0 0 1-1.264-.008zM131.836 27.967c-.019.019-.141.028-.398.028h-.355c-.853-.002-.979-.869-1.03-1.016-.054-.157-.054-1.896 0-1.95l.56-.009c.02.02.028.201.029.664 0 .508.019.612.034.694.073.317.139.478.398.578l.764.143v.868z"/>
        <path d="M131.35 24.919a.626.626 0 1 0 0 1.253.626.626 0 0 0 0-1.253zm0 .804a.178.178 0 1 1 0-.357.178.178 0 0 1 0 .357zM146.64 26.041l-3.551-.311-.111-.122v-.521l.111-.102 3.551.311.111.121v.521zM146.64 27.02l-3.551-.311-.111-.121v-.522l.111-.102 3.551.311.111.122v.521zM146.64 27.999l-3.551-.311-.111-.121v-.522l.111-.102 3.551.311.111.122v.521z"/>
        <path d="M153.524 25.964h-2.155a.14.14 0 0 1-.14-.14v-.698a.14.14 0 0 1 .14-.14h2.155a.14.14 0 0 1 .14.14v.698a.14.14 0 0 1-.14.14z" fill-rule="evenodd" clip-rule="evenodd"/>
      </g>
      <path d="M156.257 25.086l.022.001a.379.379 0 0 1 .104.014.172.172 0 0 1 .112.103.265.265 0 0 1 .016.073v.014l.001.014a.229.229 0 0 1-.035.132.177.177 0 0 1-.113.074l.182.304h-.173l-.161-.287h-.181v.287h-.153v-.73h.379zm-.036.13h-.188v.184h.188l.004.001h.004a.252.252 0 0 0 .089-.015c.027-.01.04-.036.039-.078 0-.043-.014-.069-.042-.078a.35.35 0 0 0-.094-.014z" fill="#2a2c2b"/>
      <circle cx="156.213" cy="25.45" r=".76" fill="none" stroke="#2a2c2b" stroke-width=".107" stroke-miterlimit="10"/>
    </g>
    <g>
      <g fill="#6e110c">
        <path d="M121.207 32.553v-.455h.833c.691 0 .845-.006.903-.037l.11-.037a.885.885 0 0 0 .201-.084c.202-.105.632-.525.632-.617l.05-.187a.58.58 0 0 0 .043-.253l-.007-.125-1.278-.006c-1.166-.006-1.28-.01-1.308-.048-.022-.029-.031-.157-.031-.428 0-.319.007-.393.039-.425.034-.034.218-.039 1.656-.039 1.376 0 1.621.005 1.646.035.022.026.027.219.021.732-.007.614-.013.705-.051.762l-.044.109-.061.167-.061.168c0 .025.091.143.203.262.37.397.534.589.534.625l.031.056.09.087.031.129-.028.061h-.83l-.176-.185a1.726 1.726 0 0 1-.203-.244c-.035-.078-.105-.092-.171-.035l-.079.047-.065.036-.403.21-.125.049-.178.064-.095.037c-.007.012-.42.022-.921.022h-.908v-.453z"/>
        <path d="M125.206 31.787c-.089-.014-.095-.047-.087-.487l.007-.369 1.459-.007c1.057-.005 1.469.002 1.493.022.026.021.034.116.034.403 0 .319-.006.38-.041.408-.033.028-.29.034-1.419.037a57.206 57.206 0 0 1-1.446-.007zM145.54 31.787l-.082-.077.011-.76c.016-.024.339-.031 1.48-.031 1.418 0 1.46.001 1.485.048l-.01.777c-.034.046-.079.048-1.431.051a54.438 54.438 0 0 1-1.453-.008zM128.582 32.969c-.03-.077-.017-.884.015-.915.022-.022.276-.029.993-.029.785 0 .977-.006 1.033-.035.038-.019.152-.061.254-.092.232-.072.383-.174.486-.329l.08-.121-.006-.381-.007-.381-1.543-.006-1.543-.006-.024-.063a2.061 2.061 0 0 1-.024-.381c0-.285.005-.323.049-.367.048-.048.082-.049 1.902-.049 1.652 0 1.858.004 1.892.039.033.034.038.147.038.874 0 .787-.003.845-.053 1a3.203 3.203 0 0 1-.189.467c-.052.103-.452.496-.505.496l-.04.023c0 .051-.253.17-.479.226l-.122.048c-.014.014-.462.023-1.109.023-.965-.002-1.085-.007-1.098-.041zM132.697 32.974c-.019-.023-.026-.147-.022-.386l.007-.352.061-.017c.034-.009.254-.018.489-.02l.428-.002.082-.092c.076-.085.082-.106.082-.253 0-.253-.03-.241.642-.25.541-.006.585-.01.636-.056l.085-.212c-.014-.044-.067-.046-1.313-.046-.714 0-1.316-.007-1.337-.015v-.707c.021-.008.765-.015 1.654-.015 1.223 0 1.622.007 1.644.029.041.041.039.998-.003 1.15-.07.254-.182.391-.423.52l-.146.079-.461.01-.461.01v.125a.525.525 0 0 1-.309.485c-.087.044-.146.049-.701.049-.487 0-.611-.007-.634-.034zM140.098 30.931l-3.777-.331-.118-.129v-.554l.118-.109 3.777.33.119.13v.554zM140.098 31.972l-3.777-.33-.118-.13v-.554l.118-.109 3.777.331.119.129v.554zM140.098 33.014l-3.777-.331-.118-.129v-.555l.118-.109 3.777.331.119.13v.554zM144.187 29.954h-2.853c.004.068-.05.275-.198.482a.863.863 0 0 1-.329.275v.908c.069-.001.593-.021.925-.459.232-.306.235-.638.231-.744h2.197l-.001.263v.239c-.001.176-2.195.137-2.195.137l-.003.576s2.015-.025 2.063.057c.025.043-.039.164-.089.217-.188.204-.272.186-.433.232-.191.054-.415.046-1.289.051-.951.006-1.106.012-1.125.044l.006.844c.016.007.581.011 1.255.007 1.37-.006 1.239.01 1.646-.194.156-.078.228-.135.392-.309.189-.201.264-.372.34-.552.05-.155.041-.137.048-1.056.006-.819.002-1.012-.023-1.029l-.565.011zM151.46 31.005h1.571a.086.086 0 0 0 .085-.085v-.596a.086.086 0 0 0-.085-.085h-1.571v-.427a.09.09 0 0 0-.09-.09h-.898a.09.09 0 0 0-.09.09v.427h-1.526a.086.086 0 0 0-.085.085v.596c0 .046.038.085.085.085h1.526v2.091c0 .049.04.09.09.09h.898a.09.09 0 0 0 .09-.09v-2.091z"/>
        <path d="M149.237 31.257s.704.013.704 0l-.013.985c0 .489-.54.931-1.3.931 0 0-.141-.545-.087-.905 0 0 .375.037.54-.109.214-.19.156-.902.156-.902zM152.648 31.257s-.704.013-.704 0l.013.985c0 .489.54.931 1.3.931 0 0 .141-.545.087-.905 0 0-.375.037-.54-.109-.214-.19-.156-.902-.156-.902zM152.109 30.089h-.196a.25.25 0 0 1-.249-.249.25.25 0 0 1 .249-.249h.196a.249.249 0 0 1 0 .498zM152.947 30.089h-.196a.25.25 0 0 1-.249-.249.25.25 0 0 1 .249-.249h.196a.25.25 0 0 1 .249.249.25.25 0 0 1-.249.249z"/>
      </g>
    </g>
    <path d="M162.959 104.529h-18.452c-1.017 0-1.445 1.297-.628 1.902l9.226 6.833c.373.276.882.276 1.255 0l9.226-6.833c.818-.605.39-1.902-.627-1.902z" fill="#c7c7c4"/>
  </g>
</svg>
